<svg id="icon3" xmlns="http://www.w3.org/2000/svg" width="122" height="122" viewBox="0 0 122 122">
  <rect id="Rectángulo_36864" data-name="Rectángulo 36864" width="122" height="122" fill="none"/>
  <circle id="Elipse_6971" data-name="Elipse 6971" cx="55.681" cy="55.681" r="55.681" transform="translate(6.588 5.319)" fill="#039be5"/>
  <g id="Grupo_86060" data-name="Grupo 86060" transform="translate(26.188 28.716)">
    <path id="Trazado_155652" data-name="Trazado 155652" d="M102.463,73.186V74c-.187.22-.358.455-.561.667L95.989,80.58a1.391,1.391,0,0,1-2.3,0c-1.171-1.163-2.326-2.334-3.5-3.489-.708-.708-1.318-1.675-2.18-2.033a8.19,8.19,0,0,0-2.977-.146,1.839,1.839,0,0,1-.211,0c-.407-.073-.472.13-.472.5V89.388c0,.431.122.529.537.521h3.424c.374,0,.455-.114.447-.464V86.151c0-1.277.455-1.741,1.716-1.741h10.15a1.838,1.838,0,0,1,1.846.976V97.2a1.708,1.708,0,0,1-1.5.968h-10.7a1.375,1.375,0,0,1-1.513-1.537q0-1.745,0-3.489c0-.35-.073-.472-.447-.464H84.822c-.35,0-.48.073-.464.447v2.44a5.262,5.262,0,0,1-2.2,4.62,17.731,17.731,0,0,1-5.767,2.9,51.776,51.776,0,0,1-11.875,2.22,8.06,8.06,0,0,0-2.253.26h-.943c-.187-.236-.366-.179-.553,0H54.038c-.155-.268-.415-.13-.618-.146a56.405,56.405,0,0,1-12.794-2.188,18.349,18.349,0,0,1-6.222-3.05,5.523,5.523,0,0,1-2.2-4.555q.049-25.213,0-50.475a5.311,5.311,0,0,1,1.854-4.164,13.387,13.387,0,0,1,3.9-2.359,48.738,48.738,0,0,1,15.624-3.164,73.633,73.633,0,0,1,10.988.122A51.842,51.842,0,0,1,76.453,37.8,17.511,17.511,0,0,1,82.2,40.751a5.417,5.417,0,0,1,2.18,4.571c-.073,2.855,0,5.693,0,8.573,0,.423.073.6.545.569a19.065,19.065,0,0,1,2.261,0c.488,0,.651-.13.813-.594a7.393,7.393,0,0,1,14.307.155c.065.22,0,.512.228.667v2.44c-.236.155-.2.431-.268.659a7.385,7.385,0,0,1-8.451,5.287,7.165,7.165,0,0,1-5.832-5.4c-.114-.4-.277-.537-.691-.521h-2.4c-.35,0-.472.081-.472.455V71.722c0,.423.163.48.521.472h2.6a1.171,1.171,0,0,0,.952-.39q2.595-2.635,5.23-5.238a1.524,1.524,0,0,1,2.44,0l5.523,5.523A4.213,4.213,0,0,1,102.463,73.186ZM81.65,83.443a21.407,21.407,0,0,1-5.409,2.513A56.819,56.819,0,0,1,61.195,88.3a68.637,68.637,0,0,1-16.771-1.285,26.6,26.6,0,0,1-9.459-3.571V95.789a2.505,2.505,0,0,0,.813,1.9,9.443,9.443,0,0,0,2.863,1.846c4.8,2.115,9.906,2.773,15.071,3.139A68.506,68.506,0,0,0,66.1,102.4a41.879,41.879,0,0,0,10.923-2.44,11.566,11.566,0,0,0,3.717-2.147,2.513,2.513,0,0,0,.919-2.115,20.759,20.759,0,0,1,0-2.44c0-.455-.13-.569-.577-.561h-4.8c-1,0-1.627-.529-1.627-1.358s.618-1.383,1.627-1.383h4.88c.35,0,.537,0,.537-.455C81.6,87.5,81.65,85.533,81.65,83.443ZM34.965,49.055V61.214A2.847,2.847,0,0,0,36.1,63.581,11.476,11.476,0,0,0,39.17,65.37a44.8,44.8,0,0,0,13.957,2.863,71.15,71.15,0,0,0,13.42-.277,41.016,41.016,0,0,0,10.647-2.44,11.671,11.671,0,0,0,3.383-1.993,2.651,2.651,0,0,0,1.074-2.261c-.065-1.163,0-2.334,0-3.5,0-.472-.122-.618-.61-.61H75.9a1.334,1.334,0,0,1-1.456-1.318,1.366,1.366,0,0,1,1.366-1.415H81.1c.211,0,.537.138.537-.293V49.047a18.617,18.617,0,0,1-4.067,2.041A54.186,54.186,0,0,1,60.5,53.943,68.019,68.019,0,0,1,46.368,53,30.324,30.324,0,0,1,34.965,49.055Zm0,17.2V78.6a2.578,2.578,0,0,0,.862,2,11.216,11.216,0,0,0,3.53,2.05,42.578,42.578,0,0,0,11.72,2.611,71.744,71.744,0,0,0,13.282.114,46.9,46.9,0,0,0,11.826-2.326,14.071,14.071,0,0,0,4.229-2.2,2.765,2.765,0,0,0,1.236-2.513,20.556,20.556,0,0,1,0-2.741c0-.529-.114-.683-.667-.675H75.5a1.44,1.44,0,0,1-1.529-.927,1.342,1.342,0,0,1,1.342-1.814h5.767c.447,0,.577-.122.569-.577V66.232A17.275,17.275,0,0,1,78.4,67.965a47.035,47.035,0,0,1-14.559,3,71.98,71.98,0,0,1-16.885-.675C42.765,69.6,38.7,68.632,34.965,66.257Zm24.058-28.2a70.11,70.11,0,0,0-12.46.976,31.061,31.061,0,0,0-8.54,2.595,7.515,7.515,0,0,0-2.57,1.9,1.513,1.513,0,0,0,0,2.22,6.507,6.507,0,0,0,1.838,1.5,21.521,21.521,0,0,0,5.124,2.058,55.859,55.859,0,0,0,12.647,1.83,63.968,63.968,0,0,0,18.154-1.627,19.691,19.691,0,0,0,6.743-2.741c2.163-1.5,2.155-2.822,0-4.343a16.868,16.868,0,0,0-4.815-2.163A57.462,57.462,0,0,0,59.023,38.059ZM95.054,60.45a4.636,4.636,0,1,0-3.3-1.352,4.636,4.636,0,0,0,3.3,1.352ZM99.723,91.3V87.672c0-.382-.089-.5-.488-.5H91.971c-.374,0-.5.1-.5.488v7.263c0,.374.089.5.488.5h7.255c.382,0,.512-.089.5-.488C99.706,93.723,99.723,92.511,99.723,91.3Zm-.61-17.755c-.1-.114-.179-.22-.277-.317-1.22-1.228-2.44-2.44-3.676-3.684-.268-.277-.415-.2-.651,0-1.2,1.212-2.44,2.44-3.636,3.627-.285.277-.252.431,0,.7Q92.7,75.659,94.5,77.5c.228.236.382.3.643,0,1.212-1.236,2.44-2.44,3.676-3.684Z" transform="translate(-32.198 -35.307)" fill="#fff"/>
    <path id="Trazado_155653" data-name="Trazado 155653" d="M67.31,121.654c.187-.179.366-.236.553,0Z" transform="translate(-38.752 -51.396)" fill="#fff"/>
    <path id="Trazado_155654" data-name="Trazado 155654" d="M64.23,41.232a87.174,87.174,0,0,1,9.207.813c.927.146,1.44.6,1.5,1.334a1.35,1.35,0,0,1-1.627,1.415c-1.724-.211-3.44-.455-5.165-.577-2.3-.163-4.6-.26-6.913-.268A1.383,1.383,0,0,1,59.7,42.566a1.407,1.407,0,0,1,1.562-1.358h1.854Z" transform="translate(-37.332 -36.407)" fill="#fff"/>
    <path id="Trazado_155655" data-name="Trazado 155655" d="M84.559,46.5a1.375,1.375,0,1,1-1.309-1.4A1.375,1.375,0,0,1,84.559,46.5Z" transform="translate(-41.459 -37.135)" fill="#fff"/>
  </g>
</svg>
