<svg id="icon2" xmlns="http://www.w3.org/2000/svg" width="122" height="122" viewBox="0 0 122 122">
  <rect id="Rectángulo_36863" data-name="Rectángulo 36863" width="122" height="122" fill="none"/>
  <circle id="Elipse_6970" data-name="Elipse 6970" cx="55.681" cy="55.681" r="55.681" transform="translate(6.588 5.319)" fill="#039be5"/>
  <g id="Grupo_86059" data-name="Grupo 86059" transform="translate(24.628 29.107)">
    <path id="Trazado_155645" data-name="Trazado 155645" d="M37.12,44.907v-3.88a5.108,5.108,0,0,1,5.222-5.238H96.835a5.091,5.091,0,0,1,5.238,5.222q0,17.031,0,34.071a1.716,1.716,0,0,1-1.7,1.952c-1.057,0-1.716-.748-1.716-2V46.119H40.544V86.054c0,1.627.586,2.2,2.245,2.2H63.318a6.253,6.253,0,0,1,.813,0,1.7,1.7,0,0,1,0,3.383,5.147,5.147,0,0,1-.708,0H42.659a5.154,5.154,0,0,1-5.531-5.514V55.22H33.712V92.894c0,1.627.577,2.2,2.237,2.2H65.123a1.708,1.708,0,0,1,0,3.408H35.892c-3.489,0-5.612-2.115-5.612-5.579V50.462c0-3.416,2.139-5.539,5.571-5.547Zm43.3-5.693H42.683a4.442,4.442,0,0,0-.569,0,1.675,1.675,0,0,0-1.545,1.513c-.049.61,0,1.22,0,1.854H80.422Zm9.126.049H83.936V42.6h5.612Zm3.481,3.327h5.693V40.84a1.627,1.627,0,0,0-1.456-1.627c-1.391-.065-2.782,0-4.2,0ZM37.1,48.38c-3.2-.325-3.66.716-3.318,3.335H37.12V48.835C37.12,48.7,37.112,48.559,37.1,48.38Z" transform="translate(-30.28 -35.787)" fill="#fff"/>
    <path id="Trazado_155646" data-name="Trazado 155646" d="M111,100.048A16.437,16.437,0,0,1,78.468,103.5a27,27,0,0,1-.3-4.88,1.5,1.5,0,0,1,1.8-1.456,3.091,3.091,0,0,0,3.53-1.627,1.57,1.57,0,0,1,2-.748,2.908,2.908,0,0,0,3.831-3.562,1.627,1.627,0,0,1,1.163-1.993,2.949,2.949,0,0,0,2.253-3.749,1.708,1.708,0,0,1,1.9-1.944,16.584,16.584,0,0,1,10.012,3.554,16.413,16.413,0,0,1,6.157,10.793A18.575,18.575,0,0,1,111,100.048Zm-9.654-6.93a2.342,2.342,0,1,0,2.359,2.3,2.261,2.261,0,0,0-2.359-2.3Zm-6.816,8.133a2.342,2.342,0,1,0-2.351-2.318,2.261,2.261,0,0,0,2.351,2.285Zm-4.506,3.335a2.342,2.342,0,1,0-2.294,2.367,2.269,2.269,0,0,0,2.294-2.4Zm9.085,0a2.342,2.342,0,1,0,2.318,2.351,2.269,2.269,0,0,0-2.318-2.416Z" transform="translate(-39.217 -44.698)" fill="#fff"/>
    <path id="Trazado_155647" data-name="Trazado 155647" d="M73.34,66.127a18.025,18.025,0,0,1,2.635,1.366,4.677,4.677,0,0,1,1.96,3.953q0,5.7,0,11.387a5.075,5.075,0,0,1-5.116,5.116H52.291a5.1,5.1,0,0,1-5.132-5.181V71.65a5.083,5.083,0,0,1,4.27-5.254,2.336,2.336,0,0,0,.285-.106V59a6.255,6.255,0,0,1,6.409-6.393h8.833a6.263,6.263,0,0,1,6.417,6.45C73.348,61.475,73.34,63.874,73.34,66.127ZM62.523,84.557h9.825c1.5,0,2.131-.618,2.131-2.107V71.877c0-1.5-.61-2.107-2.115-2.107H52.632c-1.464,0-2.09.618-2.1,2.066V82.475c0,1.448.634,2.074,2.09,2.074Zm7.385-18.284c0-2.586.049-5.132,0-7.662a2.733,2.733,0,0,0-2.765-2.562H57.952a2.806,2.806,0,0,0-2.83,2.863v7.361Z" transform="translate(-33.43 -38.927)" fill="#fff"/>
    <path id="Trazado_155648" data-name="Trazado 155648" d="M96.506,58.843H91.171c-1.22,0-2.009-.691-2-1.724a1.749,1.749,0,0,1,1.968-1.692h10.907a1.741,1.741,0,0,1,1.96,1.692,1.776,1.776,0,0,1-2,1.724Z" transform="translate(-41.273 -39.451)" fill="#fff"/>
    <path id="Trazado_155649" data-name="Trazado 155649" d="M96.6,67.261H91.117a1.724,1.724,0,1,1,0-3.424h10.931a1.749,1.749,0,0,1,1.976,1.684,1.794,1.794,0,0,1-1.993,1.741Z" transform="translate(-41.276 -41.02)" fill="#fff"/>
    <path id="Trazado_155650" data-name="Trazado 155650" d="M96.569,75.672H91.16a1.724,1.724,0,1,1,0-3.416h10.891a1.724,1.724,0,1,1,0,3.416C100.221,75.68,98.391,75.672,96.569,75.672Z" transform="translate(-41.278 -42.592)" fill="#fff"/>
    <path id="Trazado_155651" data-name="Trazado 155651" d="M64.821,84.084H61.568a1.716,1.716,0,1,1,0-3.416H68.18a1.708,1.708,0,0,1,0,3.416C67.058,84.1,65.944,84.084,64.821,84.084Z" transform="translate(-35.769 -44.164)" fill="#fff"/>
  </g>
</svg>
