<svg id="icon4" xmlns="http://www.w3.org/2000/svg" width="122" height="122" viewBox="0 0 122 122">
  <rect id="Rectángulo_36865" data-name="Rectángulo 36865" width="122" height="122" fill="none"/>
  <circle id="Elipse_6972" data-name="Elipse 6972" cx="55.681" cy="55.681" r="55.681" transform="translate(6.588 5.319)" fill="#039be5"/>
  <g id="Grupo_86061" data-name="Grupo 86061" transform="translate(28.894 18.227)">
    <path id="Trazado_155656" data-name="Trazado 155656" d="M92.384,107.956a6.588,6.588,0,0,1-6.2-4.88.52.52,0,0,0,.114.081l-.13-.813v.813H59.892a2.033,2.033,0,0,1,0-4.067H86.146c.26,0,.26,0,.439-.317A16.682,16.682,0,0,1,88.3,96.48l.3-.35H69.774a6.507,6.507,0,0,1-6.507-5.124A6.385,6.385,0,0,1,64.5,85.671a6.255,6.255,0,0,1,4.75-2.44c1.179,0,2.359-.041,3.538-.041h4.6a2.041,2.041,0,1,1,0,4.067H69.562a2.326,2.326,0,0,0-2.294,2.082,2.359,2.359,0,0,0,1.83,2.684,4.3,4.3,0,0,0,.952.065H93.141a1.35,1.35,0,0,1,.586.122l.244.114a2.31,2.31,0,0,1,1.342,1.082,2.334,2.334,0,0,1-.464,2.237c-.813.895-1.708,1.765-2.562,2.6-.537.537-1.074,1.065-1.627,1.627a2.294,2.294,0,0,0-.439,2.651A2.269,2.269,0,0,0,92.2,103.9a1.489,1.489,0,0,0,.268,0,3.2,3.2,0,0,0,1.627-.716c4.124-3.993,8.288-8.133,11.867-11.753a2.277,2.277,0,0,0,0-3.343c-4.229-4.246-8.133-8.133-11.907-11.834a2.44,2.44,0,0,0-1.675-.7,2.5,2.5,0,0,0-1.749.748,2.391,2.391,0,0,0,.089,3.416c1.293,1.318,2.619,2.619,3.937,3.92a2.107,2.107,0,0,1,.659,2.44A2.139,2.139,0,0,1,93.1,87.387H83.592a2.108,2.108,0,0,1-2.351-2.025,1.9,1.9,0,0,1,.545-1.472,2.44,2.44,0,0,1,1.781-.659h5a7.694,7.694,0,0,1-2.44-3.9,6.547,6.547,0,0,1,1.3-5.5,6.433,6.433,0,0,1,5.01-2.383,6.808,6.808,0,0,1,1.065.089V48.1H79.135c-4.335,0-7.035-2.692-7.043-7.027v-2.31a2.1,2.1,0,0,1,2.017-2.342h0a2.09,2.09,0,0,1,2.058,2.31v2.79a2.359,2.359,0,0,0,2.44,2.505h11.8L76.183,29.974v2.367c0,2.2-1.545,2.375-2.017,2.375s-2.05-.211-2.058-2.44V26.485H44.089a4.49,4.49,0,0,0-4.473,4.782V58.449a2.041,2.041,0,1,1-4.067.057c0-.317,0-.643,0-.968V31.731c0-4.839,2.359-7.922,7.011-9.158l.211-.163H73.2a9.947,9.947,0,0,1,4.937,3.123c5.539,5.612,11.273,11.387,17.08,17.08a8,8,0,0,1,2.44,6c0,4.88,0,9.719,0,14.583V73.268a1.106,1.106,0,0,0,.39.919q5.311,5.23,10.573,10.508a6.507,6.507,0,0,1,0,9.817q-5.636,5.612-11.273,11.208A7.092,7.092,0,0,1,92.384,107.956Z" transform="translate(-35.529 -22.41)" fill="#fff"/>
    <path id="Trazado_155657" data-name="Trazado 155657" d="M73.206,23.41a9.183,9.183,0,0,1,4.53,2.92q8.491,8.605,17.08,17.129a7.149,7.149,0,0,1,2.229,5.417c-.041,8.223,0,16.437,0,24.66a1.887,1.887,0,0,0,.626,1.5q5.3,5.238,10.573,10.508c2.692,2.676,2.692,5.994,0,8.662q-5.628,5.612-11.273,11.208c-3.4,3.375-8.353,2.18-9.76-2.375-.163-.5-.439-.455-.813-.455H60.136a1.228,1.228,0,0,1,0-2.44H86.358a1.122,1.122,0,0,0,1.155-.724A18.194,18.194,0,0,1,89.432,96.9a14.811,14.811,0,0,1,1.212-1.155l-.114-.2H70a5.693,5.693,0,0,1-.472-11.3c2.7-.073,5.4,0,8.133,0a1.228,1.228,0,1,1,0,2.44H69.8a3.2,3.2,0,0,0-.643,6.3,5.807,5.807,0,0,0,1.3.089H92.994a1.938,1.938,0,0,1,.651,0c.431.211,1.041.407,1.2.813a1.627,1.627,0,0,1-.309,1.375c-1.334,1.448-2.782,2.79-4.156,4.2a3.123,3.123,0,0,0-.594,3.562,3.042,3.042,0,0,0,3.107,1.822,4.067,4.067,0,0,0,2.1-.935c3.993-3.88,7.938-7.816,11.875-11.761a3.115,3.115,0,0,0,0-4.5q-5.929-5.945-11.915-11.834a3.253,3.253,0,1,0-4.49,4.612c1.309,1.326,2.627,2.627,3.953,3.928a1.3,1.3,0,0,1-1,2.342H83.82c-.952,0-1.521-.472-1.537-1.22s.561-1.236,1.513-1.236h6.921c-.431-.455-.74-.813-1.074-1.131a7.346,7.346,0,0,1-2.5-3.741,5.693,5.693,0,0,1,6.661-6.791l.732.13V47.477c-.366,0-.683-.041-1-.041H79.322c-3.88,0-6.222-2.342-6.23-6.222V38.92c0-.952.472-1.529,1.22-1.537s1.22.553,1.228,1.5,0,1.863,0,2.79a3.18,3.18,0,0,0,3.253,3.253H92.319a.691.691,0,0,0,.2,0L75.443,28.1l.114-.268v4.677c0,1.065-.415,1.586-1.228,1.578s-1.212-.545-1.212-1.627V26.769c0-.7-.228-.887-.887-.887H44.284A5.3,5.3,0,0,0,39,31.478V58.595a1.22,1.22,0,0,1-1.2,1.366,1.236,1.236,0,0,1-1.244-1.334V31.917c0-4.547,2.139-7.32,6.564-8.41.049,0,.081-.065.13-.1Z" transform="translate(-35.716 -22.597)" fill="#fff"/>
    <path id="Trazado_155658" data-name="Trazado 155658" d="M44.785,112.345A12.149,12.149,0,0,1,43,112.239a8.581,8.581,0,0,1-7.466-8.76V74.07a4.123,4.123,0,0,1,.122-1.179,1.9,1.9,0,0,1,1.887-1.48h.171a1.936,1.936,0,0,1,1.871,1.814,5.116,5.116,0,0,1,0,.813v29.345a4.555,4.555,0,0,0,3.806,4.807,6.735,6.735,0,0,0,1.082.057H54.13a2.041,2.041,0,1,1,0,4.067H44.785Z" transform="translate(-35.525 -31.557)" fill="#fff"/>
    <path id="Trazado_155659" data-name="Trazado 155659" d="M36.519,89.083V74.256a3.831,3.831,0,0,1,.089-.968,1.1,1.1,0,0,1,1.22-.87,1.139,1.139,0,0,1,1.131,1.09,8.319,8.319,0,0,1,0,.9v29.158a5.344,5.344,0,0,0,4.481,5.6,6.783,6.783,0,0,0,1.22.073h9.614a1.228,1.228,0,0,1,1.342,1.277,1.212,1.212,0,0,1-1.309,1.179H46.523a23.09,23.09,0,0,1-3.188-.089,7.735,7.735,0,0,1-6.775-7.954C36.5,98.8,36.519,93.947,36.519,89.083Z" transform="translate(-35.711 -31.743)" fill="#fff"/>
    <path id="Trazado_155660" data-name="Trazado 155660" d="M49.1,67.292a5.964,5.964,0,0,1-.74,0,2.009,2.009,0,0,1-.146-3.953,5,5,0,0,1,1.065-.089H84.76a4.5,4.5,0,0,1,1.09.1,1.919,1.919,0,0,1,1.521,2.009,1.9,1.9,0,0,1-1.627,1.919,4.685,4.685,0,0,1-.813.057H49.1Z" transform="translate(-37.599 -30.033)" fill="#fff"/>
    <path id="Trazado_155661" data-name="Trazado 155661" d="M67.182,66.663H49.557a6.7,6.7,0,0,1-.9,0,1.2,1.2,0,0,1-.089-2.351,4.115,4.115,0,0,1,.895-.073H84.945a3.627,3.627,0,0,1,.895.081,1.09,1.09,0,0,1,.9,1.187,1.106,1.106,0,0,1-.968,1.147,5.448,5.448,0,0,1-.895,0Z" transform="translate(-37.784 -30.218)" fill="#fff"/>
    <path id="Trazado_155662" data-name="Trazado 155662" d="M49.371,79.4a2.969,2.969,0,0,1-2.212-.7,1.846,1.846,0,0,1-.529-1.366c0-.927.488-2.017,2.757-2.017H84.7c1.749,0,2.651.667,2.684,1.976a1.911,1.911,0,0,1-.512,1.415,2.9,2.9,0,0,1-2.2.691H49.371Z" transform="translate(-37.598 -32.287)" fill="#fff"/>
    <path id="Trazado_155663" data-name="Trazado 155663" d="M67.248,78.776H49.558c-1.309,0-1.936-.407-1.928-1.253s.61-1.2,1.944-1.2H84.889c1.309,0,1.846.342,1.871,1.187s-.569,1.269-1.9,1.269Z" transform="translate(-37.785 -32.473)" fill="#fff"/>
    <path id="Trazado_155664" data-name="Trazado 155664" d="M49.72,91.488c-2.294,0-2.676-1.253-2.7-2a1.854,1.854,0,0,1,.5-1.383,2.985,2.985,0,0,1,2.22-.708H76.86c2.3,0,2.684,1.244,2.7,1.985a1.887,1.887,0,0,1-.512,1.4,2.985,2.985,0,0,1-2.2.708H49.72Z" transform="translate(-37.67 -34.539)" fill="#fff"/>
    <path id="Trazado_155665" data-name="Trazado 155665" d="M63.457,90.864H49.907c-1.261,0-1.863-.39-1.887-1.212s.6-1.253,1.911-1.253H77.048c1.269,0,1.863.382,1.887,1.2s-.6,1.261-1.9,1.269Z" transform="translate(-37.858 -34.728)" fill="#fff"/>
    <path id="Trazado_155666" data-name="Trazado 155666" d="M49.19,55.2a1.391,1.391,0,0,1-.9-.268A2.521,2.521,0,0,1,47.1,53.228a2.611,2.611,0,0,1,1.106-1.83,1.627,1.627,0,0,1,1.049-.3H68.67a2.936,2.936,0,0,1,2.2.716,1.854,1.854,0,0,1,.545,1.407c0,.895-.521,1.968-2.7,1.968H49.2Z" transform="translate(-37.686 -27.763)" fill="#fff"/>
    <path id="Trazado_155667" data-name="Trazado 155667" d="M59.405,54.565H49.857c-.3,0-.691.073-.878-.073-.374-.293-.862-.724-.878-1.106s.431-.87.813-1.155c.228-.187.683-.114,1.033-.114h18.91c1.293,0,1.928.431,1.9,1.277s-.618,1.179-1.887,1.179Z" transform="translate(-37.873 -27.953)" fill="#fff"/>
  </g>
</svg>
