<?xml version="1.0" encoding="utf-8"?>
<!-- Generator: Adobe Illustrator 26.0.1, SVG Export Plug-In . SVG Version: 6.00 Build 0)  -->
<svg version="1.1" id="Layer_1" xmlns="http://www.w3.org/2000/svg" xmlns:xlink="http://www.w3.org/1999/xlink" x="0px" y="0px"
	 viewBox="0 0 499.8 279" style="enable-background:new 0 0 499.8 279;" xml:space="preserve">
<style type="text/css">
	.st0{fill:#C0EBE7;}
	.st1{fill:#FFECB1;}
	.st2{fill:none;stroke:#024E73;stroke-width:4;stroke-miterlimit:10;}
	.st3{fill:#024E73;}
	.st4{fill:#02749E;}
	.st5{fill:#FFFFFF;}
</style>
<path id="Rectángulo_37414" class="st0" d="M166.9,0h320.9c6.6,0,12,5.4,12,12v255c0,6.6-5.4,12-12,12H166.9c-6.6,0-12-5.4-12-12
	V12C154.9,5.4,160.3,0,166.9,0z"/>
<path id="Rectángulo_37415" class="st1" d="M369.8,23.8h98.4c6.6,0,12,5.4,12,12v27.9c0,6.6-5.4,12-12,12h-98.4
	c-6.6,0-12-5.4-12-12V35.8C357.8,29.2,363.1,23.8,369.8,23.8z"/>
<path id="Rectángulo_37416" class="st1" d="M369.8,110.8h98.4c6.6,0,12,5.4,12,12v27.9c0,6.6-5.4,12-12,12h-98.4
	c-6.6,0-12-5.4-12-12v-27.9C357.8,116.2,363.1,110.8,369.8,110.8z"/>
<path id="Rectángulo_37417" class="st1" d="M369.8,197.9h98.4c6.6,0,12,5.4,12,12v27.9c0,6.6-5.4,12-12,12h-98.4
	c-6.6,0-12-5.4-12-12v-27.9C357.8,203.3,363.1,197.9,369.8,197.9z"/>
<g id="Grupo_87817">
	<line id="Línea_548" class="st2" x1="0" y1="140.5" x2="145.2" y2="140.5"/>
	<path id="Trazado_160392" class="st3" d="M143,147.8l12.8-7.4l-12.8-7.4V147.8z"/>
</g>
<g id="Grupo_87818">
	<line id="Línea_549" class="st2" x1="291.3" y1="140.5" x2="348.3" y2="140.5"/>
	<path id="Trazado_160393" class="st3" d="M346.2,147.8l12.8-7.4l-12.8-7.4V147.8z"/>
</g>
<g id="Grupo_87819">
	<line id="Línea_550" class="st2" x1="291.3" y1="140.5" x2="352.5" y2="220.7"/>
	<path id="Trazado_160394" class="st3" d="M345.3,223.4l13.6,5.7l-1.9-14.6L345.3,223.4z"/>
</g>
<g id="Grupo_87820">
	<line id="Línea_551" class="st2" x1="290.1" y1="140.5" x2="351.5" y2="55.6"/>
	<path id="Trazado_160395" class="st3" d="M356.2,61.7l1.5-14.7l-13.5,6L356.2,61.7z"/>
</g>
<path id="Rectángulo_37418" class="st4" d="M180.9,112.6h103.5c6.6,0,12,5.4,12,12v27.9c0,6.6-5.4,12-12,12H180.9
	c-6.6,0-12-5.4-12-12v-27.9C168.9,118,174.3,112.6,180.9,112.6z"/>
<g>
	<path d="M61.3,98h-3.1l1.1-5.4h-4.4L53.8,98h-3.1l2.7-13.5h3.1l-1.1,5.7h4.4l1.1-5.7H64L61.3,98z"/>
	<path d="M74,86.9h-3.2L68.6,98h-3.1l2.2-11.1h-3.2l0.5-2.4h9.5L74,86.9z"/>
	<path d="M84.1,86.9h-3.2L78.7,98h-3.1l2.2-11.1h-3.2l0.5-2.4h9.5L84.1,86.9z"/>
	<path d="M87.1,93.4L86.2,98h-3.1l2.7-13.5H91c1.4,0,2.5,0.4,3.3,1.2c0.8,0.8,1,1.9,0.8,3.2c-0.3,1.4-0.9,2.5-2,3.3
		c-1,0.8-2.3,1.2-3.8,1.2H87.1z M87.6,91h2.1c0.6,0,1-0.2,1.4-0.6c0.4-0.4,0.7-0.9,0.8-1.4c0.1-0.6,0.1-1.1-0.2-1.5
		c-0.2-0.4-0.6-0.6-1.3-0.6h-2.1L87.6,91z"/>
	<path d="M43.7,115.7l-1,5.2h-3.1l2.7-13.5h4.9c1.4,0,2.4,0.4,3.2,1.1c0.8,0.7,1,1.7,0.8,3c-0.2,0.8-0.4,1.4-0.9,1.9
		c-0.4,0.5-1,0.9-1.8,1.2c0.7,0.2,1.2,0.6,1.4,1.2c0.2,0.6,0.3,1.2,0.1,2l-0.2,0.9c-0.1,0.4-0.1,0.8-0.1,1.2c0,0.4,0.1,0.8,0.3,1
		l0,0.2h-3.2c-0.2-0.2-0.3-0.5-0.3-1c0-0.5,0.1-0.9,0.2-1.4l0.2-0.8c0.1-0.7,0.1-1.2-0.1-1.5c-0.2-0.3-0.6-0.5-1.2-0.5H43.7z
		 M44.2,113.3H46c0.5,0,0.9-0.1,1.3-0.4c0.4-0.3,0.6-0.7,0.7-1.2c0.1-0.6,0.1-1-0.2-1.4c-0.2-0.3-0.6-0.5-1.2-0.5h-1.8L44.2,113.3z"
		/>
	<path d="M55.6,121c-1.3,0-2.4-0.5-3.1-1.4c-0.7-0.9-0.9-2.1-0.7-3.5l0.1-0.4c0.3-1.6,0.8-2.9,1.7-3.8c0.9-0.9,2-1.4,3.5-1.4
		c1.2,0,2.2,0.4,2.8,1.2c0.6,0.8,0.8,1.9,0.6,3.3l-0.3,1.6h-5.2l0,0c0,0.5,0.1,1,0.3,1.3c0.3,0.3,0.6,0.5,1.2,0.5
		c0.5,0,0.9,0,1.3-0.1c0.4-0.1,0.8-0.3,1.3-0.5l0.4,1.9c-0.5,0.3-1,0.6-1.7,0.8C57.1,120.9,56.3,121,55.6,121z M56.6,113
		c-0.4,0-0.7,0.2-0.9,0.5c-0.2,0.3-0.4,0.8-0.5,1.3l0,0h2.2l0-0.2c0.1-0.5,0.1-0.9-0.1-1.2C57.3,113.2,57,113,56.6,113z"/>
	<path d="M61.3,115.7c0.3-1.7,0.9-2.9,1.6-3.8c0.7-0.8,1.7-1.3,2.9-1.3c0.5,0,0.9,0.1,1.2,0.4c0.4,0.2,0.7,0.6,0.9,1l0.5-1.1H71
		l-2.8,13.9h-3.1l0.9-4.6c-0.3,0.3-0.6,0.5-1,0.7c-0.3,0.2-0.7,0.2-1.1,0.2c-1.1,0-1.9-0.5-2.4-1.5c-0.5-1-0.7-2.2-0.4-3.7
		L61.3,115.7z M64.3,115.9c-0.2,0.9-0.2,1.6-0.1,2.1c0.1,0.5,0.4,0.7,0.9,0.7c0.3,0,0.5-0.1,0.8-0.2c0.2-0.1,0.5-0.3,0.7-0.6
		l0.9-4.3c-0.1-0.2-0.2-0.3-0.4-0.3c-0.2-0.1-0.4-0.1-0.7-0.1c-0.5,0-0.8,0.2-1.2,0.7c-0.3,0.5-0.6,1.1-0.7,1.9L64.3,115.9z"/>
	<path d="M76.4,120.8l0-1.1c-0.4,0.4-0.8,0.7-1.3,1c-0.5,0.2-1,0.3-1.5,0.3c-0.9,0-1.6-0.3-2-1c-0.4-0.7-0.5-1.7-0.3-3.1l1.2-6.1
		h3.1l-1.2,6.1c-0.1,0.6-0.1,1,0,1.3c0.1,0.3,0.4,0.4,0.7,0.4c0.3,0,0.5,0,0.8-0.1c0.2-0.1,0.5-0.2,0.6-0.4l1.4-7.3h3.1l-2,10H76.4z
		"/>
	<path d="M85.2,121c-1.3,0-2.4-0.5-3.1-1.4c-0.7-0.9-0.9-2.1-0.7-3.5l0.1-0.4c0.3-1.6,0.8-2.9,1.7-3.8c0.9-0.9,2-1.4,3.5-1.4
		c1.2,0,2.2,0.4,2.8,1.2c0.6,0.8,0.8,1.9,0.6,3.3l-0.3,1.6h-5.2l0,0c0,0.5,0.1,1,0.3,1.3c0.3,0.3,0.6,0.5,1.2,0.5
		c0.5,0,0.9,0,1.3-0.1c0.4-0.1,0.8-0.3,1.3-0.5l0.4,1.9c-0.5,0.3-1,0.6-1.7,0.8C86.6,120.9,85.9,121,85.2,121z M86.2,113
		c-0.4,0-0.7,0.2-0.9,0.5c-0.2,0.3-0.4,0.8-0.5,1.3l0,0H87l0-0.2c0.1-0.5,0.1-0.9-0.1-1.2C86.8,113.2,86.6,113,86.2,113z"/>
	<path d="M95.6,118c0-0.3-0.1-0.5-0.3-0.7c-0.2-0.2-0.6-0.4-1.3-0.5c-1-0.2-1.8-0.6-2.3-1.1s-0.7-1.1-0.5-2c0.1-0.9,0.6-1.7,1.4-2.3
		c0.8-0.6,1.8-0.9,3-0.9c1.2,0,2.2,0.3,2.8,0.9c0.7,0.6,0.9,1.4,0.7,2.3l0,0.1h-3c0.1-0.4,0-0.7-0.1-0.9s-0.4-0.3-0.8-0.3
		c-0.3,0-0.5,0.1-0.7,0.3c-0.2,0.2-0.4,0.4-0.4,0.7c0,0.3,0,0.5,0.2,0.7c0.2,0.2,0.6,0.3,1.3,0.5c1.1,0.2,1.9,0.6,2.4,1.1
		c0.5,0.5,0.6,1.2,0.5,2c-0.2,0.9-0.6,1.7-1.5,2.3c-0.8,0.6-1.9,0.8-3.1,0.8c-1.2,0-2.2-0.3-2.8-1c-0.7-0.7-0.9-1.5-0.7-2.3l0-0.1
		h2.8c-0.1,0.5,0,0.8,0.2,1c0.2,0.2,0.5,0.3,1,0.3c0.3,0,0.6-0.1,0.8-0.3C95.4,118.6,95.5,118.3,95.6,118z"/>
	<path d="M105.5,108.3l-0.5,2.5h1.5l-0.4,2.2h-1.5l-0.9,4.6c-0.1,0.4-0.1,0.6,0,0.8c0.1,0.1,0.3,0.2,0.5,0.2c0.2,0,0.3,0,0.4,0
		c0.1,0,0.2,0,0.4-0.1l-0.3,2.3c-0.3,0.1-0.7,0.1-0.9,0.2c-0.3,0-0.6,0.1-1,0.1c-0.9,0-1.6-0.3-2-0.8c-0.4-0.6-0.5-1.4-0.3-2.6
		l0.9-4.6h-1.3l0.4-2.2h1.3l0.5-2.5H105.5z"/>
</g>
<g>
	<path d="M189.9,35.5L189.9,35.5l3-8.4h3l-5,13.5h-2.9l-0.7-7.9h-0.1l-3.2,7.9H181l-0.7-13.5h3l0.2,8.4l0.1,0l3.4-8.4h2.1
		L189.9,35.5z"/>
	<path d="M198.6,40.8c-1.3,0-2.4-0.5-3.1-1.4c-0.7-0.9-0.9-2.1-0.7-3.5l0.1-0.4c0.3-1.6,0.8-2.9,1.7-3.8c0.9-0.9,2-1.4,3.5-1.4
		c1.2,0,2.2,0.4,2.8,1.2c0.6,0.8,0.8,1.9,0.6,3.3l-0.3,1.6h-5.2l0,0c0,0.5,0.1,1,0.3,1.3c0.3,0.3,0.6,0.5,1.2,0.5
		c0.5,0,0.9,0,1.3-0.1c0.4-0.1,0.8-0.3,1.3-0.5l0.4,1.9c-0.5,0.3-1,0.6-1.7,0.8C200.1,40.7,199.4,40.8,198.6,40.8z M199.7,32.8
		c-0.4,0-0.7,0.2-0.9,0.5c-0.2,0.3-0.4,0.8-0.5,1.3l0,0h2.2l0-0.2c0.1-0.5,0.1-0.9-0.1-1.2C200.3,33,200.1,32.8,199.7,32.8z"/>
	<path d="M213.3,36c-0.3,1.6-0.9,2.8-1.5,3.6c-0.7,0.8-1.7,1.2-2.9,1.2c-0.5,0-0.9-0.1-1.3-0.3c-0.4-0.2-0.7-0.5-0.9-0.9l-0.4,1
		h-2.7l2.9-14.5h3.1l-1,5.1c0.3-0.3,0.6-0.5,1-0.7c0.3-0.2,0.7-0.2,1.1-0.2c1.1,0,1.9,0.5,2.5,1.5c0.5,1,0.6,2.3,0.3,3.9L213.3,36z
		 M210.3,35.8c0.2-1,0.3-1.7,0.2-2.2c-0.1-0.5-0.4-0.8-0.9-0.8c-0.3,0-0.5,0.1-0.8,0.3c-0.2,0.2-0.5,0.4-0.7,0.7l-0.9,4.3
		c0.1,0.1,0.2,0.2,0.4,0.3s0.4,0.1,0.7,0.1c0.5,0,0.9-0.2,1.2-0.6c0.3-0.4,0.5-1,0.7-1.8L210.3,35.8z"/>
	<path d="M225.5,38h-3.7l-1.2,2.6h-3.1l6.7-13.5h3.3l1.3,13.5h-3.1L225.5,38z M222.9,35.6h2.5l-0.3-4.5l-0.1,0L222.9,35.6z"/>
	<path d="M238.8,36c-0.3,1.6-0.9,2.8-1.6,3.6c-0.7,0.8-1.7,1.2-2.8,1.2c-0.4,0-0.8-0.1-1.1-0.2c-0.3-0.2-0.6-0.4-0.9-0.7l-0.9,4.6
		h-3.1l2.8-13.9h2.9l-0.1,0.8c0.3-0.3,0.7-0.6,1-0.8c0.4-0.2,0.7-0.3,1.1-0.3c1.1,0,1.9,0.5,2.4,1.6c0.5,1,0.6,2.3,0.3,3.9L238.8,36
		z M235.8,35.8c0.2-0.9,0.2-1.7,0.1-2.2s-0.4-0.8-0.8-0.8c-0.3,0-0.5,0.1-0.8,0.3c-0.3,0.2-0.5,0.4-0.7,0.7l-0.9,4.3
		c0.1,0.1,0.2,0.2,0.4,0.3c0.2,0.1,0.4,0.1,0.7,0.1c0.5,0,0.8-0.2,1.1-0.6c0.3-0.4,0.5-1,0.7-1.8L235.8,35.8z"/>
	<path d="M248.9,36c-0.3,1.6-0.9,2.8-1.6,3.6c-0.7,0.8-1.7,1.2-2.8,1.2c-0.4,0-0.8-0.1-1.1-0.2c-0.3-0.2-0.6-0.4-0.9-0.7l-0.9,4.6
		h-3.1l2.8-13.9h2.9l-0.1,0.8c0.3-0.3,0.7-0.6,1-0.8c0.4-0.2,0.7-0.3,1.1-0.3c1.1,0,1.9,0.5,2.4,1.6c0.5,1,0.6,2.3,0.3,3.9L248.9,36
		z M245.8,35.8c0.2-0.9,0.2-1.7,0.1-2.2s-0.4-0.8-0.8-0.8c-0.3,0-0.5,0.1-0.8,0.3c-0.3,0.2-0.5,0.4-0.7,0.7l-0.9,4.3
		c0.1,0.1,0.2,0.2,0.4,0.3c0.2,0.1,0.4,0.1,0.7,0.1c0.5,0,0.8-0.2,1.1-0.6c0.3-0.4,0.5-1,0.7-1.8L245.8,35.8z"/>
</g>
<g>
	<path class="st5" d="M189.8,140.2c0.1-0.6,0-1-0.2-1.2s-0.8-0.6-1.6-0.9c-1.5-0.5-2.6-1.2-3.3-1.9c-0.7-0.7-1-1.6-0.7-2.7
		c0.2-1.1,0.8-2,1.8-2.6c1-0.6,2.1-0.9,3.5-0.9c1.4,0,2.5,0.4,3.3,1.1c0.8,0.7,1.1,1.8,0.8,3l0,0.1h-3c0.1-0.5,0-1-0.3-1.3
		c-0.3-0.3-0.7-0.5-1.2-0.5c-0.4,0-0.7,0.1-1.1,0.3c-0.3,0.2-0.5,0.5-0.6,0.8c-0.1,0.5,0,0.9,0.3,1.1s1,0.6,2,1
		c1.3,0.5,2.3,1.1,2.9,1.8c0.6,0.7,0.8,1.7,0.6,2.9c-0.2,1.2-0.8,2.1-1.8,2.7s-2.1,0.9-3.5,0.9c-1.4,0-2.5-0.3-3.5-1
		c-0.9-0.7-1.3-1.7-1-3.1l0-0.1h3c-0.1,0.7,0,1.1,0.4,1.4c0.4,0.3,0.9,0.4,1.5,0.4c0.4,0,0.7-0.1,1.1-0.3
		C189.6,140.8,189.8,140.5,189.8,140.2z"/>
	<path class="st5" d="M197.9,143.8c-1.3,0-2.4-0.5-3.1-1.4c-0.7-0.9-0.9-2.1-0.7-3.5l0.1-0.4c0.3-1.6,0.8-2.9,1.7-3.8
		c0.9-0.9,2-1.4,3.5-1.4c1.2,0,2.2,0.4,2.8,1.2c0.6,0.8,0.8,1.9,0.6,3.3l-0.3,1.6h-5.2l0,0c0,0.5,0.1,1,0.3,1.3
		c0.3,0.3,0.6,0.5,1.2,0.5c0.5,0,0.9,0,1.3-0.1c0.4-0.1,0.8-0.3,1.3-0.5l0.4,1.9c-0.5,0.3-1,0.6-1.7,0.8
		C199.3,143.7,198.6,143.8,197.9,143.8z M198.9,135.8c-0.4,0-0.7,0.2-0.9,0.5c-0.2,0.3-0.4,0.8-0.5,1.3l0,0h2.2l0-0.2
		c0.1-0.5,0.1-0.9-0.1-1.2C199.5,135.9,199.3,135.8,198.9,135.8z"/>
	<path class="st5" d="M209.7,136.3l-1.1,0c-0.3,0-0.5,0.1-0.8,0.2c-0.2,0.1-0.4,0.3-0.5,0.5l-1.3,6.6h-3.1l2-10h2.9l-0.2,1.3l0,0
		c0.3-0.5,0.6-0.9,0.9-1.1c0.4-0.3,0.7-0.4,1.2-0.4c0.1,0,0.3,0,0.4,0c0.2,0,0.3,0,0.4,0.1L209.7,136.3z"/>
	<path class="st5" d="M214.1,139.4l0,0.9l0.1,0l0.3-0.9l2.1-5.9h3.3l-4.6,10H212l-1.4-10h3.3L214.1,139.4z"/>
	<path class="st5" d="M222.2,143.6h-3.1l2.9-14.5h3.1L222.2,143.6z"/>
	<path class="st5" d="M228.4,143.8c-1.3,0-2.4-0.5-3.1-1.4c-0.7-0.9-0.9-2.1-0.7-3.5l0.1-0.4c0.3-1.6,0.8-2.9,1.7-3.8
		c0.9-0.9,2-1.4,3.5-1.4c1.2,0,2.2,0.4,2.8,1.2c0.6,0.8,0.8,1.9,0.6,3.3l-0.3,1.6h-5.2l0,0c0,0.5,0.1,1,0.3,1.3
		c0.3,0.3,0.6,0.5,1.2,0.5c0.5,0,0.9,0,1.3-0.1c0.4-0.1,0.8-0.3,1.3-0.5l0.4,1.9c-0.5,0.3-1,0.6-1.7,0.8
		C229.9,143.7,229.2,143.8,228.4,143.8z M229.5,135.8c-0.4,0-0.7,0.2-0.9,0.5c-0.2,0.3-0.4,0.8-0.5,1.3l0,0h2.2l0-0.2
		c0.1-0.5,0.1-0.9-0.1-1.2C230.1,135.9,229.8,135.8,229.5,135.8z"/>
	<path class="st5" d="M239.6,131.1l-0.5,2.5h1.5l-0.4,2.2h-1.5l-0.9,4.6c-0.1,0.4-0.1,0.6,0,0.8c0.1,0.1,0.3,0.2,0.5,0.2
		c0.2,0,0.3,0,0.4,0c0.1,0,0.2,0,0.4-0.1l-0.3,2.3c-0.3,0.1-0.7,0.1-0.9,0.2c-0.3,0-0.6,0.1-1,0.1c-0.9,0-1.6-0.3-2-0.8
		c-0.4-0.6-0.5-1.4-0.3-2.6l0.9-4.6h-1.3l0.4-2.2h1.3l0.5-2.5H239.6z"/>
	<path class="st5" d="M249.3,138.1h-4.9l-1.1,5.4h-3.1l2.7-13.5h8.9l-0.5,2.4h-5.8l-0.6,3.2h4.9L249.3,138.1z"/>
	<path class="st5" d="M253.5,143.6h-3.1l2-10h3.1L253.5,143.6z M256,131.2h-3.1l0.4-2.1h3.1L256,131.2z"/>
	<path class="st5" d="M258.5,143.6h-3.1l2.9-14.5h3.1L258.5,143.6z"/>
	<path class="st5" d="M266.4,131.1l-0.5,2.5h1.5l-0.4,2.2h-1.5l-0.9,4.6c-0.1,0.4-0.1,0.6,0,0.8c0.1,0.1,0.3,0.2,0.5,0.2
		c0.2,0,0.3,0,0.4,0c0.1,0,0.2,0,0.4-0.1l-0.3,2.3c-0.3,0.1-0.7,0.1-0.9,0.2c-0.3,0-0.6,0.1-1,0.1c-0.9,0-1.6-0.3-2-0.8
		s-0.5-1.4-0.3-2.6l0.9-4.6h-1.3l0.4-2.2h1.3l0.5-2.5H266.4z"/>
	<path class="st5" d="M271.3,143.8c-1.3,0-2.4-0.5-3.1-1.4s-0.9-2.1-0.7-3.5l0.1-0.4c0.3-1.6,0.8-2.9,1.7-3.8c0.9-0.9,2-1.4,3.5-1.4
		c1.2,0,2.2,0.4,2.8,1.2c0.6,0.8,0.8,1.9,0.6,3.3l-0.3,1.6h-5.2l0,0c0,0.5,0.1,1,0.3,1.3c0.3,0.3,0.6,0.5,1.2,0.5
		c0.5,0,0.9,0,1.3-0.1c0.4-0.1,0.8-0.3,1.3-0.5l0.4,1.9c-0.5,0.3-1,0.6-1.7,0.8C272.8,143.7,272,143.8,271.3,143.8z M272.4,135.8
		c-0.4,0-0.7,0.2-0.9,0.5c-0.2,0.3-0.4,0.8-0.5,1.3l0,0h2.2l0-0.2c0.1-0.5,0.1-0.9-0.1-1.2S272.7,135.8,272.4,135.8z"/>
	<path class="st5" d="M283.1,136.3l-1.1,0c-0.3,0-0.5,0.1-0.8,0.2c-0.2,0.1-0.4,0.3-0.5,0.5l-1.3,6.6h-3.1l2-10h2.9l-0.2,1.3l0,0
		c0.3-0.5,0.6-0.9,0.9-1.1c0.4-0.3,0.7-0.4,1.2-0.4c0.1,0,0.3,0,0.4,0c0.2,0,0.3,0,0.4,0.1L283.1,136.3z"/>
</g>
<g>
	<path d="M399.1,52.5c0.1-0.7,0-1.3-0.3-1.7c-0.3-0.4-1.1-0.8-2.1-1.2c-1.3-0.4-2.2-1-2.8-1.6c-0.6-0.6-0.7-1.6-0.5-2.8
		c0.2-1.1,0.7-1.9,1.6-2.5c0.8-0.6,1.8-0.8,3-0.8c1.3,0,2.4,0.4,3.1,1.1c0.7,0.7,1,1.7,0.7,3l0,0H400c0.2-0.8,0-1.5-0.4-2
		c-0.4-0.5-1.1-0.8-1.9-0.8c-0.6,0-1.2,0.2-1.6,0.5c-0.5,0.4-0.8,0.8-0.9,1.3c-0.2,0.8-0.1,1.3,0.2,1.7s1,0.8,2.2,1.2
		c1.3,0.5,2.3,1,2.8,1.7c0.5,0.6,0.7,1.5,0.5,2.7c-0.2,1.1-0.8,2-1.6,2.5c-0.8,0.5-1.9,0.8-3.1,0.8c-1.3,0-2.4-0.3-3.3-1
		c-0.9-0.7-1.2-1.7-0.9-3.1l0-0.1h1.7c-0.2,1,0,1.7,0.5,2.1c0.6,0.4,1.3,0.6,2.2,0.6c0.6,0,1.2-0.2,1.7-0.5
		C398.7,53.5,399,53.1,399.1,52.5z"/>
	<path d="M406.2,55.8c-1.3,0-2.2-0.5-2.9-1.4c-0.6-0.9-0.9-2.1-0.6-3.6l0.1-0.4c0.2-1.5,0.8-2.7,1.8-3.6c0.9-0.9,2-1.4,3-1.4
		c1.2,0,2.1,0.4,2.6,1.2c0.5,0.8,0.7,1.9,0.5,3.3l-0.2,1.1h-6c-0.1,1,0,1.8,0.3,2.4c0.3,0.6,0.9,0.9,1.7,0.9c0.5,0,1.1-0.1,1.5-0.3
		c0.5-0.2,0.9-0.4,1.2-0.7l0.5,1.2c-0.4,0.4-0.9,0.6-1.4,0.9S407,55.8,406.2,55.8z M407.4,46.8c-0.5,0-1,0.3-1.5,0.8s-0.8,1.2-1,1.9
		l0,0.1h4.1l0-0.2c0.1-0.7,0-1.4-0.2-1.8S408.1,46.8,407.4,46.8z"/>
	<path d="M417.9,47.2l-1-0.1c-0.4,0-0.8,0.1-1.1,0.3c-0.3,0.2-0.6,0.6-0.9,1l-1.4,7.2h-1.8l2-10h1.6l-0.1,1.3
		c0.3-0.5,0.7-0.9,1.2-1.1c0.4-0.3,0.9-0.4,1.4-0.4c0.1,0,0.3,0,0.4,0c0.1,0,0.3,0,0.3,0.1L417.9,47.2z"/>
	<path d="M421.9,52.7l0,0.6l0.1,0l0.2-0.6l3.2-7.1h1.8l-5,10h-1.3l-1.9-10h1.8L421.9,52.7z"/>
	<path d="M429.1,55.6h-1.8l2.9-14.5h1.8L429.1,55.6z"/>
	<path d="M435.8,55.8c-1.3,0-2.2-0.5-2.9-1.4c-0.6-0.9-0.9-2.1-0.6-3.6l0.1-0.4c0.2-1.5,0.8-2.7,1.8-3.6c0.9-0.9,2-1.4,3-1.4
		c1.2,0,2.1,0.4,2.6,1.2c0.5,0.8,0.7,1.9,0.5,3.3l-0.2,1.1h-6c-0.1,1,0,1.8,0.3,2.4c0.3,0.6,0.9,0.9,1.7,0.9c0.5,0,1.1-0.1,1.5-0.3
		c0.5-0.2,0.9-0.4,1.2-0.7l0.5,1.2c-0.4,0.4-0.9,0.6-1.4,0.9S436.6,55.8,435.8,55.8z M436.9,46.8c-0.5,0-1,0.3-1.5,0.8
		s-0.8,1.2-1,1.9l0,0.1h4.1l0-0.2c0.1-0.7,0-1.4-0.2-1.8S437.6,46.8,436.9,46.8z"/>
	<path d="M446.1,43.2l-0.5,2.4h1.7l-0.3,1.4h-1.7l-1.2,6.1c-0.1,0.5-0.1,0.8,0,1c0.1,0.2,0.4,0.3,0.7,0.3c0.1,0,0.3,0,0.5,0
		c0.2,0,0.4-0.1,0.5-0.1l0,1.3c-0.2,0.1-0.4,0.2-0.8,0.3c-0.3,0.1-0.7,0.1-1,0.1c-0.6,0-1.1-0.2-1.5-0.7c-0.3-0.5-0.4-1.2-0.2-2.1
		l1.2-6.1h-1.5l0.3-1.4h1.5l0.5-2.4H446.1z"/>
</g>
<g>
	<path d="M408.6,130.1h1.8l-1.9,9.8c-0.3,1.3-0.8,2.3-1.6,2.9s-1.8,1-3,1c-1.1,0-2-0.3-2.6-1c-0.6-0.7-0.8-1.6-0.5-2.9l0,0h1.7
		c-0.2,0.9-0.1,1.5,0.2,1.9c0.3,0.4,0.8,0.6,1.5,0.6c0.6,0,1.1-0.2,1.6-0.7c0.5-0.5,0.8-1.1,1-1.8L408.6,130.1z"/>
	<path d="M418.2,140.5c0.1-0.7,0-1.3-0.3-1.7c-0.3-0.4-1.1-0.8-2.1-1.2c-1.3-0.4-2.2-1-2.8-1.6c-0.6-0.6-0.7-1.6-0.5-2.8
		c0.2-1.1,0.7-1.9,1.6-2.5c0.8-0.6,1.8-0.8,3-0.8c1.3,0,2.4,0.4,3.1,1.1c0.7,0.7,1,1.7,0.7,3l0,0h-1.7c0.2-0.8,0-1.5-0.4-2
		c-0.4-0.5-1.1-0.8-1.9-0.8c-0.6,0-1.2,0.2-1.6,0.5c-0.5,0.4-0.8,0.8-0.9,1.3c-0.2,0.8-0.1,1.3,0.2,1.7s1,0.8,2.2,1.2
		c1.3,0.5,2.3,1,2.8,1.7c0.5,0.6,0.7,1.5,0.5,2.7c-0.2,1.1-0.8,2-1.6,2.5c-0.8,0.5-1.9,0.8-3.1,0.8c-1.3,0-2.4-0.3-3.3-1
		s-1.2-1.7-0.9-3.1l0-0.1h1.7c-0.2,1,0,1.7,0.5,2.1c0.6,0.4,1.3,0.6,2.2,0.6c0.6,0,1.2-0.2,1.7-0.5
		C417.8,141.5,418.1,141,418.2,140.5z"/>
	<path d="M424.5,138.2l-1.1,5.4h-1.8l2.7-13.5h4.9c1.2,0,2.2,0.4,2.8,1.1c0.6,0.8,0.8,1.7,0.6,2.9c-0.3,1.3-0.8,2.3-1.7,3
		c-0.9,0.7-2,1-3.4,1H424.5z M424.8,136.7h3.1c0.8,0,1.4-0.3,2-0.8c0.5-0.5,0.9-1.1,1-1.8c0.2-0.8,0.1-1.4-0.2-1.9
		c-0.3-0.5-0.9-0.7-1.7-0.7h-3.1L424.8,136.7z"/>
</g>
<g>
	<path d="M383.9,229.4c0.1-0.7,0-1.3-0.3-1.7c-0.3-0.4-1.1-0.8-2.1-1.2c-1.3-0.4-2.2-1-2.8-1.6c-0.6-0.6-0.7-1.6-0.5-2.8
		c0.2-1.1,0.7-1.9,1.6-2.5c0.8-0.6,1.8-0.8,3-0.8c1.3,0,2.4,0.4,3.1,1.1c0.7,0.7,1,1.7,0.7,3l0,0h-1.7c0.2-0.8,0-1.5-0.4-2
		c-0.4-0.5-1.1-0.8-1.9-0.8c-0.6,0-1.2,0.2-1.6,0.5c-0.5,0.4-0.8,0.8-0.9,1.3c-0.2,0.8-0.1,1.3,0.2,1.7s1,0.8,2.2,1.2
		c1.3,0.5,2.3,1,2.8,1.7c0.5,0.6,0.7,1.5,0.5,2.7c-0.2,1.1-0.8,2-1.6,2.5c-0.8,0.5-1.9,0.8-3.1,0.8c-1.3,0-2.4-0.3-3.3-1
		s-1.2-1.7-0.9-3.1l0-0.1h1.7c-0.2,1,0,1.7,0.5,2.1c0.6,0.4,1.3,0.6,2.2,0.6c0.6,0,1.2-0.2,1.7-0.5
		C383.5,230.3,383.8,229.9,383.9,229.4z"/>
	<path d="M391.9,220l-0.5,2.4h1.7l-0.3,1.4h-1.7l-1.2,6.1c-0.1,0.5-0.1,0.8,0,1c0.1,0.2,0.4,0.3,0.7,0.3c0.1,0,0.3,0,0.5,0
		c0.2,0,0.4-0.1,0.5-0.1l0,1.3c-0.2,0.1-0.4,0.2-0.8,0.3c-0.3,0.1-0.7,0.1-1,0.1c-0.6,0-1.1-0.2-1.5-0.7c-0.3-0.5-0.4-1.2-0.2-2.1
		l1.2-6.1h-1.5l0.3-1.4h1.5l0.5-2.4H391.9z"/>
	<path d="M399,232.5c0-0.3,0-0.6,0-0.7c0-0.2,0-0.4,0.1-0.6c-0.4,0.4-0.9,0.8-1.4,1.1c-0.5,0.3-1.1,0.4-1.6,0.4
		c-0.9,0-1.6-0.3-2-0.8c-0.4-0.5-0.6-1.3-0.4-2.2c0.2-1,0.7-1.8,1.5-2.3c0.8-0.5,1.8-0.8,3.1-0.8h1.7l0.2-1c0.1-0.6,0.1-1.1-0.2-1.4
		c-0.3-0.3-0.7-0.5-1.3-0.5c-0.5,0-1,0.2-1.4,0.5c-0.4,0.3-0.7,0.7-0.8,1.1h-1.7l0-0.1c0.1-0.8,0.6-1.5,1.4-2
		c0.8-0.6,1.8-0.9,2.9-0.9c1,0,1.8,0.3,2.4,0.9c0.6,0.6,0.8,1.4,0.6,2.5l-1,4.8c-0.1,0.4-0.1,0.7-0.2,1c0,0.3,0,0.6,0,1H399z
		 M396.7,231.1c0.5,0,1-0.1,1.5-0.4c0.5-0.3,0.9-0.6,1.2-1l0.4-1.8H398c-0.6,0-1.2,0.2-1.7,0.6s-0.8,0.8-0.9,1.3
		c-0.1,0.5-0.1,0.8,0.1,1.1C395.8,231,396.2,231.1,396.7,231.1z"/>
	<path d="M408,220l-0.5,2.4h1.7l-0.3,1.4h-1.7l-1.2,6.1c-0.1,0.5-0.1,0.8,0,1c0.1,0.2,0.4,0.3,0.7,0.3c0.1,0,0.3,0,0.5,0
		c0.2,0,0.4-0.1,0.5-0.1l0,1.3c-0.2,0.1-0.4,0.2-0.8,0.3c-0.3,0.1-0.7,0.1-1,0.1c-0.6,0-1.1-0.2-1.5-0.7c-0.3-0.5-0.4-1.2-0.2-2.1
		l1.2-6.1H404l0.3-1.4h1.5l0.5-2.4H408z"/>
	<path d="M411.4,232.5h-1.8l2-10h1.8L411.4,232.5z M414,219.9h-1.8l0.4-1.9h1.8L414,219.9z"/>
	<path d="M418.3,231.2c0.5,0,1-0.2,1.5-0.6c0.5-0.4,0.8-0.8,0.9-1.4h1.6l0,0.1c-0.1,0.9-0.6,1.7-1.4,2.3c-0.8,0.7-1.8,1-2.8,1
		c-1.3,0-2.3-0.5-2.9-1.4c-0.6-1-0.8-2.2-0.6-3.6l0.1-0.4c0.2-1.5,0.8-2.7,1.6-3.6c0.9-0.9,2-1.4,3.4-1.4c1.1,0,1.9,0.3,2.5,1
		c0.6,0.7,0.8,1.5,0.6,2.6l0,0h-1.6c0.1-0.6,0-1.2-0.3-1.6s-0.8-0.6-1.4-0.6c-0.8,0-1.5,0.3-2,1s-0.8,1.5-1,2.5l-0.1,0.4
		c-0.2,1.1-0.1,1.9,0.1,2.6C416.8,230.9,417.4,231.2,418.3,231.2z"/>
	<path d="M437.1,226.5h-5.7l-1.2,6h-1.8l2.7-13.5h8.3l-0.3,1.4h-6.6l-0.9,4.7h5.7L437.1,226.5z"/>
	<path d="M440.4,232.5h-1.8l2-10h1.8L440.4,232.5z M443,219.9h-1.8l0.4-1.9h1.8L443,219.9z"/>
	<path d="M445,232.5h-1.8l2.9-14.5h1.8L445,232.5z"/>
	<path d="M451.8,232.7c-1.3,0-2.2-0.5-2.9-1.4c-0.6-0.9-0.9-2.1-0.6-3.6l0.1-0.4c0.2-1.5,0.8-2.7,1.8-3.6c0.9-0.9,1.9-1.4,3-1.4
		c1.2,0,2.1,0.4,2.6,1.2c0.5,0.8,0.7,1.9,0.5,3.3l-0.2,1.1h-6c-0.1,1,0,1.8,0.3,2.4c0.3,0.6,0.9,0.9,1.7,0.9c0.5,0,1.1-0.1,1.5-0.3
		c0.5-0.2,0.9-0.4,1.2-0.7l0.5,1.2c-0.4,0.4-0.9,0.6-1.4,0.9C453.2,232.5,452.5,232.7,451.8,232.7z M452.9,223.7
		c-0.5,0-1,0.3-1.5,0.8c-0.5,0.5-0.8,1.2-1,1.9l0,0.1h4.1l0-0.2c0.1-0.7,0-1.4-0.2-1.8S453.6,223.7,452.9,223.7z"/>
</g>
</svg>
