<svg id="img12" xmlns="http://www.w3.org/2000/svg" width="441.38" height="336.949" viewBox="0 0 441.38 336.949">
  <rect id="Rectángulo_36876" data-name="Rectángulo 36876" width="438.029" height="336.949" fill="none"/>
  <g id="Grupo_86120" data-name="Grupo 86120" transform="translate(14.889 42.017)">
    <g id="Grupo_86075" data-name="Grupo 86075" transform="translate(44.035 9.785)">
      <g id="Grupo_86070" data-name="Grupo 86070" transform="translate(35.63 23.511)">
        <path id="Trazado_155688" data-name="Trazado 155688" d="M190.776,137.761v-7.433a1.313,1.313,0,0,0-1.32-1.313h-1.907a1.2,1.2,0,0,1-1.182-.928,26.42,26.42,0,0,0-3.321-8.035,1.226,1.226,0,0,1,.16-1.523l1.349-1.342a1.32,1.32,0,0,0,0-1.864l-5.258-5.258a1.32,1.32,0,0,0-1.864,0l-1.342,1.342a1.226,1.226,0,0,1-1.523.16,26.528,26.528,0,0,0-8.035-3.314,1.2,1.2,0,0,1-.892-1.175V105.17a1.313,1.313,0,0,0-1.313-1.32h-7.462a1.313,1.313,0,0,0-1.32,1.32v1.9a1.2,1.2,0,0,1-.928,1.182,26.339,26.339,0,0,0-8.035,3.314,1.226,1.226,0,0,1-1.523-.16l-1.342-1.342a1.32,1.32,0,0,0-1.864,0l-5.222,5.258a1.32,1.32,0,0,0,0,1.864l1.349,1.342a1.226,1.226,0,0,1,.16,1.523,26.166,26.166,0,0,0-3.314,8.035,1.211,1.211,0,0,1-1.182.928H131.7a1.313,1.313,0,0,0-1.32,1.313v7.433a1.313,1.313,0,0,0,1.32,1.32h1.907a1.2,1.2,0,0,1,1.182.928,26.419,26.419,0,0,0,3.292,8.035,1.218,1.218,0,0,1-.16,1.516l-1.291,1.349a1.32,1.32,0,0,0,0,1.864l5.258,5.258a1.334,1.334,0,0,0,1.864,0l1.349-1.349a1.218,1.218,0,0,1,1.516-.16,26.4,26.4,0,0,0,8,3.278,1.2,1.2,0,0,1,.928,1.182V162.9a1.32,1.32,0,0,0,1.32,1.32H164.3a1.32,1.32,0,0,0,1.313-1.32v-1.915a1.211,1.211,0,0,1,.928-1.182,26.405,26.405,0,0,0,8.035-3.307,1.218,1.218,0,0,1,1.516.16L177.439,158a1.334,1.334,0,0,0,1.864,0l5.258-5.258a1.32,1.32,0,0,0,0-1.864l-1.349-1.349a1.218,1.218,0,0,1-.16-1.516,26.42,26.42,0,0,0,3.314-8.035,1.2,1.2,0,0,1,1.175-.928h1.915A1.313,1.313,0,0,0,190.776,137.761Zm-30.212,17.246a20.959,20.959,0,1,1,20.944-20.966,20.959,20.959,0,0,1-20.944,20.966Z" transform="translate(-130.38 -103.85)" fill="none" stroke="#dee3fc" stroke-miterlimit="10" stroke-width="0.79"/>
        <path id="Trazado_155689" data-name="Trazado 155689" d="M245.2,176.553v-5.077a.892.892,0,0,0-.9-.9H243a.82.82,0,0,1-.8-.631,17.978,17.978,0,0,0-2.263-5.475.841.841,0,0,1,.109-1.037l.95-.885a.9.9,0,0,0,0-1.269l-3.626-3.6a.9.9,0,0,0-1.269,0l-.907.921a.841.841,0,0,1-1.037.109,17.732,17.732,0,0,0-5.483-2.263.827.827,0,0,1-.631-.8v-1.3a.9.9,0,0,0-.892-.9h-5.076a.907.907,0,0,0-.9.9v1.3a.82.82,0,0,1-.631.8,17.855,17.855,0,0,0-5.475,2.255.819.819,0,0,1-1.037-.109l-.914-.914a.9.9,0,0,0-1.269,0l-3.583,3.583a.9.9,0,0,0,0,1.269l.914.914a.834.834,0,0,1,.109,1.037,17.9,17.9,0,0,0-2.255,5.483.827.827,0,0,1-.805.631h-1.3a.892.892,0,0,0-.9.9v5.077a.9.9,0,0,0,.9.9h1.3a.82.82,0,0,1,.805.631,18.035,18.035,0,0,0,2.27,5.483.82.82,0,0,1-.109,1.037l-.914.914a.9.9,0,0,0,0,1.269l3.583,3.583a.892.892,0,0,0,1.269,0l.914-.914a.834.834,0,0,1,1.037-.109,18.3,18.3,0,0,0,5.475,2.255.812.812,0,0,1,.631.8v1.313a.9.9,0,0,0,.9.892h5.077a.892.892,0,0,0,.892-.892V192.42a.812.812,0,0,1,.638-.8,18.181,18.181,0,0,0,5.468-2.255.819.819,0,0,1,1.037.109l.921.914a.892.892,0,0,0,1.269,0l3.583-3.583a.9.9,0,0,0,0-1.269l-.921-.914a.841.841,0,0,1-.109-1.037,18.051,18.051,0,0,0,2.263-5.475.812.812,0,0,1,.8-.631h1.3a.9.9,0,0,0,.892-.928ZM224.619,187.5a13.474,13.474,0,1,1,13.474-13.482A13.474,13.474,0,0,1,224.619,187.5Z" transform="translate(-150.618 -117.477)" fill="#dee3fc"/>
      </g>
      <g id="Grupo_86071" data-name="Grupo 86071" transform="translate(7.288)">
        <circle id="Elipse_6975" data-name="Elipse 6975" cx="2.458" cy="2.458" r="2.458" transform="translate(25.078 211.799)" fill="#662d83"/>
        <circle id="Elipse_6976" data-name="Elipse 6976" cx="2.458" cy="2.458" r="2.458" transform="translate(354.057 144.702)" fill="#662d83"/>
        <circle id="Elipse_6977" data-name="Elipse 6977" cx="2.458" cy="2.458" r="2.458" transform="translate(349.147 57.016)" fill="#662d83"/>
        <circle id="Elipse_6978" data-name="Elipse 6978" cx="1.537" cy="1.537" r="1.537" transform="translate(261.773 28.138)" fill="#662d83"/>
        <path id="Trazado_155690" data-name="Trazado 155690" d="M141.349,83.467a1.545,1.545,0,1,1-1.537-1.537A1.545,1.545,0,0,1,141.349,83.467Z" transform="translate(-104.204 -74.315)" fill="#662d83"/>
        <path id="Trazado_155691" data-name="Trazado 155691" d="M188.365,214.265a1.537,1.537,0,1,1-.448-1.092A1.537,1.537,0,0,1,188.365,214.265Z" transform="translate(-117.127 -110.255)" fill="#662d83"/>
        <path id="Trazado_155692" data-name="Trazado 155692" d="M110.439,369.675a1.537,1.537,0,1,1-.448-1.092A1.545,1.545,0,0,1,110.439,369.675Z" transform="translate(-95.71 -152.959)" fill="#662d83"/>
        <circle id="Elipse_6979" data-name="Elipse 6979" cx="2.458" cy="2.458" r="2.458" transform="translate(318.035 213.249)" fill="#662d83"/>
        <circle id="Elipse_6980" data-name="Elipse 6980" cx="2.458" cy="2.458" r="2.458" transform="translate(370.251 213.249)" fill="#662d83"/>
        <circle id="Elipse_6981" data-name="Elipse 6981" cx="2.458" cy="2.458" r="2.458" transform="translate(77.025)" fill="#662d83"/>
        <path id="Trazado_155693" data-name="Trazado 155693" d="M432.04,227.635a3.285,3.285,0,1,1-3.285-3.285,3.285,3.285,0,0,1,3.285,3.285Z" transform="translate(-183.125 -113.45)" fill="#662d83"/>
        <path id="Trazado_155694" data-name="Trazado 155694" d="M97.87,171.605a3.285,3.285,0,1,1-3.285-3.285,3.285,3.285,0,0,1,3.285,3.285Z" transform="translate(-91.3 -98.054)" fill="#662d83"/>
      </g>
      <g id="Grupo_86072" data-name="Grupo 86072" transform="translate(0 19.414)">
        <rect id="Rectángulo_36877" data-name="Rectángulo 36877" width="5.098" height="5.098" rx="0.66" fill="#fff"/>
        <rect id="Rectángulo_36878" data-name="Rectángulo 36878" width="5.098" height="5.098" rx="0.66" transform="translate(6.817)" fill="#fff"/>
        <rect id="Rectángulo_36879" data-name="Rectángulo 36879" width="5.098" height="5.098" rx="0.66" transform="translate(13.634)" fill="#fff"/>
      </g>
      <g id="Grupo_86073" data-name="Grupo 86073" transform="translate(347.073 198.346)">
        <rect id="Rectángulo_36880" data-name="Rectángulo 36880" width="5.098" height="5.098" rx="0.66" fill="#dee3fc"/>
        <rect id="Rectángulo_36881" data-name="Rectángulo 36881" width="5.098" height="5.098" rx="0.66" transform="translate(6.817)" fill="#dee3fc"/>
        <rect id="Rectángulo_36882" data-name="Rectángulo 36882" width="5.098" height="5.098" rx="0.66" transform="translate(13.634)" fill="#dee3fc"/>
      </g>
      <g id="Grupo_86074" data-name="Grupo 86074" transform="translate(31.989 195.554)">
        <rect id="Rectángulo_36883" data-name="Rectángulo 36883" width="5.098" height="5.098" rx="0.66" fill="#dee3fc"/>
        <rect id="Rectángulo_36884" data-name="Rectángulo 36884" width="5.098" height="5.098" rx="0.66" transform="translate(6.817)" fill="#dee3fc"/>
        <rect id="Rectángulo_36885" data-name="Rectángulo 36885" width="5.098" height="5.098" rx="0.66" transform="translate(13.634)" fill="#dee3fc"/>
      </g>
    </g>
    <g id="Grupo_86084" data-name="Grupo 86084" transform="translate(151.751 4.854)">
      <g id="Grupo_86076" data-name="Grupo 86076">
        <rect id="Rectángulo_36886" data-name="Rectángulo 36886" width="129.088" height="249.372" rx="21.35" fill="#36dac9"/>
        <rect id="Rectángulo_36887" data-name="Rectángulo 36887" width="124.251" height="243.643" rx="18.7" transform="translate(2.415 2.183)" fill="#fff"/>
        <path id="Trazado_155695" data-name="Trazado 155695" d="M353.983,82.278V298.566a9.181,9.181,0,0,1-9.181,9.188h-95a9.181,9.181,0,0,1-9.188-9.188V82.278a9.181,9.181,0,0,1,9.181-9.188h15.846a2.328,2.328,0,0,1,2.089,1.284l1.682,3.358a4.54,4.54,0,0,0,4.061,2.546h47.661a4.54,4.54,0,0,0,4.069-2.524l1.682-3.357a2.328,2.328,0,0,1,2.074-1.284H344.8a9.181,9.181,0,0,1,9.181,9.167Z" transform="translate(-232.756 -66.955)" fill="#dee3fc"/>
        <path id="Trazado_155696" data-name="Trazado 155696" d="M331.2,76.324H292.81a1.61,1.61,0,0,1-1.61-1.617h0a1.61,1.61,0,0,1,1.61-1.617H331.2a1.617,1.617,0,0,1,1.617,1.617h0A1.617,1.617,0,0,1,331.2,76.324Z" transform="translate(-246.657 -66.955)" fill="#dee3fc"/>
      </g>
      <rect id="Rectángulo_36888" data-name="Rectángulo 36888" width="97.578" height="42.316" rx="8.38" transform="translate(14.649 190.949)" fill="none" stroke="#698bd1" stroke-linecap="round" stroke-linejoin="round" stroke-width="1" stroke-dasharray="2.84"/>
      <rect id="Rectángulo_36889" data-name="Rectángulo 36889" width="51.142" height="29.712" rx="6.04" transform="translate(55.058 99.717)" fill="none" stroke="#698bd1" stroke-linecap="round" stroke-linejoin="round" stroke-width="1" stroke-dasharray="2.84"/>
      <g id="Grupo_86080" data-name="Grupo 86080" transform="translate(14.649 132.721)">
        <rect id="Rectángulo_36890" data-name="Rectángulo 36890" width="97.962" height="47.356" rx="7.2" transform="translate(3.546 3.836)" fill="#4b5a9b"/>
        <path id="Trazado_155697" data-name="Trazado 155697" d="M347.558,252.854v36.935A5.207,5.207,0,0,1,342.343,295H255.194a5.207,5.207,0,0,1-5.214-5.207V252.854a5.214,5.214,0,0,1,5.214-5.214h87.149a5.214,5.214,0,0,1,5.214,5.214Z" transform="translate(-249.98 -247.64)" fill="#7f95f4"/>
        <rect id="Rectángulo_36891" data-name="Rectángulo 36891" width="32.722" height="32.722" rx="4.86" transform="translate(4.504 10.784)" fill="#fff"/>
        <g id="Grupo_86077" data-name="Grupo 86077" transform="translate(40.387 12.699)">
          <path id="Trazado_155698" data-name="Trazado 155698" d="M329.429,267.376H306.817a1.117,1.117,0,0,1-1.117-1.11h0a1.117,1.117,0,0,1,1.117-1.117h22.612a1.117,1.117,0,0,1,1.11,1.117h0a1.117,1.117,0,0,1-1.11,1.11Z" transform="translate(-305.678 -265.15)" fill="#b2c1f9"/>
          <path id="Trazado_155699" data-name="Trazado 155699" d="M319.115,273.506H306.787a1.117,1.117,0,0,1-1.117-1.11h0a1.117,1.117,0,0,1,1.117-1.117h12.329a1.117,1.117,0,0,1,1.11,1.117h0A1.117,1.117,0,0,1,319.115,273.506Z" transform="translate(-305.67 -266.834)" fill="#b2c1f9"/>
          <path id="Trazado_155700" data-name="Trazado 155700" d="M363.331,273.506h-33.3a1.11,1.11,0,0,1-1.11-1.11h0a1.11,1.11,0,0,1,1.11-1.117h33.3a1.117,1.117,0,0,1,1.117,1.117h0A1.117,1.117,0,0,1,363.331,273.506Z" transform="translate(-312.059 -266.834)" fill="#b2c1f9"/>
          <path id="Trazado_155701" data-name="Trazado 155701" d="M325.854,279.636H306.817a1.117,1.117,0,0,1-1.117-1.117h0a1.117,1.117,0,0,1,1.117-1.11h19.037a1.117,1.117,0,0,1,1.117,1.11h0a1.117,1.117,0,0,1-1.117,1.117Z" transform="translate(-305.678 -268.519)" fill="#b2c1f9"/>
          <path id="Trazado_155702" data-name="Trazado 155702" d="M350.823,279.636H338.857a1.117,1.117,0,0,1-1.117-1.117h0a1.117,1.117,0,0,1,1.117-1.11h11.966a1.117,1.117,0,0,1,1.117,1.11h0a1.117,1.117,0,0,1-1.117,1.117Z" transform="translate(-314.482 -268.519)" fill="#b2c1f9"/>
          <path id="Trazado_155703" data-name="Trazado 155703" d="M371.773,279.636H360.75a1.117,1.117,0,0,1-1.11-1.117h0a1.117,1.117,0,0,1,1.11-1.11h11.023a1.117,1.117,0,0,1,1.117,1.11h0a1.117,1.117,0,0,1-1.117,1.117Z" transform="translate(-320.5 -268.519)" fill="#b2c1f9"/>
          <path id="Trazado_155704" data-name="Trazado 155704" d="M356.951,285.766H306.817a1.117,1.117,0,0,1-1.117-1.117h0a1.117,1.117,0,0,1,1.117-1.11h50.134a1.117,1.117,0,0,1,1.117,1.11h0A1.117,1.117,0,0,1,356.951,285.766Z" transform="translate(-305.678 -270.203)" fill="#b2c1f9"/>
          <path id="Trazado_155705" data-name="Trazado 155705" d="M334.411,291.9H306.817a1.117,1.117,0,0,1-1.117-1.117h0a1.11,1.11,0,0,1,1.117-1.11h27.594a1.1,1.1,0,0,1,1.11,1.11h0a1.11,1.11,0,0,1-1.11,1.117Z" transform="translate(-305.678 -271.888)" fill="#b2c1f9"/>
          <path id="Trazado_155706" data-name="Trazado 155706" d="M369.094,291.9H351a1.11,1.11,0,0,1-1.11-1.117h0a1.1,1.1,0,0,1,1.11-1.11h18.094a1.11,1.11,0,0,1,1.117,1.11h0A1.117,1.117,0,0,1,369.094,291.9Z" transform="translate(-317.821 -271.888)" fill="#b2c1f9"/>
          <path id="Trazado_155707" data-name="Trazado 155707" d="M323.025,298.026H306.817a1.117,1.117,0,0,1-1.117-1.117h0a1.11,1.11,0,0,1,1.117-1.11h16.209a1.11,1.11,0,0,1,1.117,1.11h0a1.117,1.117,0,0,1-1.117,1.117Z" transform="translate(-305.678 -273.572)" fill="#b2c1f9"/>
          <path id="Trazado_155708" data-name="Trazado 155708" d="M351.435,298.026H335.22a1.117,1.117,0,0,1-1.11-1.117h0a1.11,1.11,0,0,1,1.11-1.11h16.216a1.11,1.11,0,0,1,1.117,1.11h0a1.117,1.117,0,0,1-1.117,1.117Z" transform="translate(-313.485 -273.572)" fill="#b2c1f9"/>
          <path id="Trazado_155709" data-name="Trazado 155709" d="M372.377,298.026H362.95a1.11,1.11,0,0,1-1.11-1.117h0a1.1,1.1,0,0,1,1.11-1.11h9.428a1.11,1.11,0,0,1,1.117,1.11h0a1.117,1.117,0,0,1-1.117,1.117Z" transform="translate(-321.105 -273.572)" fill="#b2c1f9"/>
          <path id="Trazado_155710" data-name="Trazado 155710" d="M329.429,304.156H306.817a1.117,1.117,0,0,1-1.117-1.117h0a1.11,1.11,0,0,1,1.117-1.11h22.612a1.11,1.11,0,0,1,1.11,1.11h0a1.117,1.117,0,0,1-1.11,1.117Z" transform="translate(-305.678 -275.257)" fill="#b2c1f9"/>
          <path id="Trazado_155711" data-name="Trazado 155711" d="M367.382,267.376h-22.6a1.117,1.117,0,0,1-1.117-1.11h0a1.117,1.117,0,0,1,1.117-1.117h22.6a1.117,1.117,0,0,1,1.117,1.117h0A1.117,1.117,0,0,1,367.382,267.376Z" transform="translate(-316.109 -265.15)" fill="#b2c1f9"/>
        </g>
        <g id="Grupo_86079" data-name="Grupo 86079" transform="translate(0.014 0.022)">
          <path id="Trazado_155712" data-name="Trazado 155712" d="M347.563,252.863v1.574H250v-1.552a5.214,5.214,0,0,1,5.214-5.214h87.134a5.214,5.214,0,0,1,5.214,5.193Z" transform="translate(-250 -247.67)" fill="#3052ce"/>
          <g id="Grupo_86078" data-name="Grupo 86078" transform="translate(76.749 2.184)">
            <path id="Trazado_155713" data-name="Trazado 155713" d="M358.252,252.021a1.2,1.2,0,1,1-.353-.859A1.211,1.211,0,0,1,358.252,252.021Z" transform="translate(-355.83 -250.716)" fill="#dee3fc"/>
            <path id="Trazado_155714" data-name="Trazado 155714" d="M366.774,251.986a1.211,1.211,0,1,1-.575-1.127,1.211,1.211,0,0,1,.575,1.127Z" transform="translate(-358.173 -250.681)" fill="#dee3fc"/>
            <path id="Trazado_155715" data-name="Trazado 155715" d="M375.3,252.021a1.2,1.2,0,1,1-.35-.856A1.211,1.211,0,0,1,375.3,252.021Z" transform="translate(-360.515 -250.716)" fill="#dee3fc"/>
          </g>
        </g>
      </g>
      <g id="Grupo_86082" data-name="Grupo 86082" transform="translate(20.357 99.746)">
        <rect id="Rectángulo_36892" data-name="Rectángulo 36892" width="29.683" height="29.683" rx="7.15" fill="none" stroke="#495ad6" stroke-miterlimit="10" stroke-width="0.9"/>
        <g id="Grupo_86081" data-name="Grupo 86081" transform="translate(5.94 10.545)">
          <path id="Trazado_155716" data-name="Trazado 155716" d="M270.312,216.71l-4.272,4.279,4.308,4.308" transform="translate(-266.04 -216.71)" fill="none" stroke="#495ad6" stroke-linecap="round" stroke-linejoin="round" stroke-width="1.67"/>
          <path id="Trazado_155717" data-name="Trazado 155717" d="M284.689,216.71l4.279,4.279L284.66,225.3" transform="translate(-271.157 -216.71)" fill="none" stroke="#495ad6" stroke-linecap="round" stroke-linejoin="round" stroke-width="1.67"/>
          <line id="Línea_500" data-name="Línea 500" x1="4.003" y2="8.587" transform="translate(6.904)" fill="none" stroke="#495ad6" stroke-linecap="round" stroke-linejoin="round" stroke-width="1.67"/>
        </g>
      </g>
      <g id="Grupo_86083" data-name="Grupo 86083" transform="translate(14.649 21.358)">
        <path id="Trazado_155718" data-name="Trazado 155718" d="M347.558,100.012V160.4a5.932,5.932,0,0,1-5.932,5.932H255.912a5.932,5.932,0,0,1-5.932-5.932V100.012a5.932,5.932,0,0,1,5.932-5.932h85.713A5.932,5.932,0,0,1,347.558,100.012Z" transform="translate(-249.98 -94.08)" fill="#68c3ef"/>
        <circle id="Elipse_6982" data-name="Elipse 6982" cx="14.142" cy="14.142" r="14.142" transform="translate(63.674 4.939)" fill="#ffa726"/>
        <path id="Trazado_155719" data-name="Trazado 155719" d="M307.337,172.51H255.912a5.932,5.932,0,0,1-5.932-5.932V157.07l22.482-38.98a3.053,3.053,0,0,1,5.294,0l16.992,29.429,12.619,21.858A3,3,0,0,1,307.337,172.51Z" transform="translate(-249.98 -100.257)" fill="#051930"/>
        <path id="Trazado_155720" data-name="Trazado 155720" d="M341.017,178.616H291.84l14.432-24.991,7.774-13.467a2.749,2.749,0,0,1,4.765,0Z" transform="translate(-261.483 -106.363)" fill="#0b3360"/>
      </g>
    </g>
    <g id="Grupo_86092" data-name="Grupo 86092" transform="translate(264.526 101.86)">
      <g id="Grupo_86086" data-name="Grupo 86086" transform="translate(41.035 108.817)">
        <rect id="Rectángulo_36893" data-name="Rectángulo 36893" width="37.914" height="56.973" fill="#3b47bc"/>
        <rect id="Rectángulo_36894" data-name="Rectángulo 36894" width="14.519" height="56.973" transform="translate(52.426 56.98) rotate(180)" fill="#495ad6"/>
        <g id="Grupo_86085" data-name="Grupo 86085" transform="translate(39.988 2.19)">
          <rect id="Rectángulo_36895" data-name="Rectángulo 36895" width="10.661" height="1.82" fill="#b2c1f9"/>
          <rect id="Rectángulo_36896" data-name="Rectángulo 36896" width="10.661" height="1.82" transform="translate(0 3.909)" fill="#b2c1f9"/>
          <rect id="Rectángulo_36897" data-name="Rectángulo 36897" width="10.661" height="1.82" transform="translate(0 7.811)" fill="#b2c1f9"/>
          <rect id="Rectángulo_36898" data-name="Rectángulo 36898" width="10.661" height="1.82" transform="translate(0 11.719)" fill="#b2c1f9"/>
          <rect id="Rectángulo_36899" data-name="Rectángulo 36899" width="10.661" height="1.82" transform="translate(0 15.621)" fill="#b2c1f9"/>
          <rect id="Rectángulo_36900" data-name="Rectángulo 36900" width="10.661" height="1.82" transform="translate(0 19.53)" fill="#b2c1f9"/>
          <rect id="Rectángulo_36901" data-name="Rectángulo 36901" width="10.661" height="1.82" transform="translate(0 23.439)" fill="#b2c1f9"/>
          <rect id="Rectángulo_36902" data-name="Rectángulo 36902" width="10.661" height="1.82" transform="translate(0 27.341)" fill="#b2c1f9"/>
          <rect id="Rectángulo_36903" data-name="Rectángulo 36903" width="10.661" height="1.82" transform="translate(0 31.249)" fill="#b2c1f9"/>
          <rect id="Rectángulo_36904" data-name="Rectángulo 36904" width="10.661" height="1.82" transform="translate(0 35.158)" fill="#b2c1f9"/>
          <rect id="Rectángulo_36905" data-name="Rectángulo 36905" width="10.661" height="1.82" transform="translate(0 39.06)" fill="#b2c1f9"/>
          <rect id="Rectángulo_36906" data-name="Rectángulo 36906" width="10.661" height="1.82" transform="translate(0 42.969)" fill="#b2c1f9"/>
          <rect id="Rectángulo_36907" data-name="Rectángulo 36907" width="10.661" height="1.82" transform="translate(0 46.878)" fill="#b2c1f9"/>
          <rect id="Rectángulo_36908" data-name="Rectángulo 36908" width="10.661" height="1.82" transform="translate(0 50.78)" fill="#b2c1f9"/>
        </g>
      </g>
      <g id="Grupo_86091" data-name="Grupo 86091">
        <path id="Trazado_155721" data-name="Trazado 155721" d="M433.37,424.087h19.305a10.536,10.536,0,0,0-1.262-7.687s-1.552,1.247-6.193.406a20.6,20.6,0,0,1-3.278,2.292C440.557,419.736,432.848,421.266,433.37,424.087Z" transform="translate(-398.492 -258.297)" fill="#281616"/>
        <path id="Trazado_155722" data-name="Trazado 155722" d="M435.054,350.612c1.247,7.426,6.984,32.548,9.428,47.393a22.72,22.72,0,0,0,7.825-.4c-.225-5.178-.667-17.557-.616-22.982.087-9.181.515-21.278-3.525-27.914l-13.576,1.066q.12,1.088.218,1.719C434.873,349.915,434.982,350.264,435.054,350.612Z" transform="translate(-398.834 -239.147)" fill="#002c54"/>
        <path id="Trazado_155723" data-name="Trazado 155723" d="M385.311,424.087H404.58a10.553,10.553,0,0,0-1.255-7.687s-1.552,1.247-6.2.406a20.6,20.6,0,0,1-3.278,2.292C392.5,419.736,384.8,421.266,385.311,424.087Z" transform="translate(-385.286 -258.297)" fill="#281616"/>
        <path id="Trazado_155724" data-name="Trazado 155724" d="M400.84,395.877a22.386,22.386,0,0,0,7.615.682c1.023-5.969,2.64-19.095,4.1-25.245,2.263-9.566,4.475-22.714,2.937-27.406l-13.358-3.358C402.087,340.971,401,381.22,400.84,395.877Z" transform="translate(-389.56 -237.455)" fill="#052635"/>
        <path id="Trazado_155725" data-name="Trazado 155725" d="M454.49,319.939h0c-.261-2.64-.573-4.569-.573-4.569L438.992,319l-12.677,2.9c-4.7,1.044-10.378,2.306-15.389,3.438-5.613,1.276-9.341,5.541-8.115,11.168l1.407,6.824c7.861-.109,44.8-3.626,47.958-5.243C455.738,336.292,456.811,329.918,454.49,319.939Z" transform="translate(-390.038 -230.535)" fill="#052635"/>
        <path id="Trazado_155726" data-name="Trazado 155726" d="M485.209,319.6h0a20.6,20.6,0,0,0-1.559-5.475L469.7,318.682l-12.677,2.9c-4.7,1.044-10.378,2.306-15.382,3.438-5.62,1.276-9.348,5.541-8.115,11.168l1.407,6.824c7.854-.109,40.692-1.255,47.951-5.243C486.391,335.826,487.53,329.574,485.209,319.6Z" transform="translate(-398.478 -230.192)" fill="#002c54"/>
        <path id="Trazado_155727" data-name="Trazado 155727" d="M438.958,291.666s6.628-3,8.456,0c1,1.646.312,4.7-1.951,5.983s-15.041,6.686-27.094,9.7a30.518,30.518,0,0,0-1.349-3.437,63.367,63.367,0,0,0,10.791-6.019,68.674,68.674,0,0,1,11.147-6.23Z" transform="translate(-394.006 -223.656)" fill="#e5918f"/>
        <path id="Trazado_155728" data-name="Trazado 155728" d="M447.406,263.63l-5.686,22.692s.587,5.736,6.382,2.9,9.638-20.9,9.638-20.9Z" transform="translate(-400.793 -216.318)" fill="#e5918f"/>
        <path id="Trazado_155729" data-name="Trazado 155729" d="M458.191,271.37c-.725-.174-1.371-.355-2.016-.551s-1.3-.4-1.893-.609A32.026,32.026,0,0,1,446,266.141a59.524,59.524,0,0,1,5.562-15.6,2.57,2.57,0,0,0,.138-.239l.145-.247a14.222,14.222,0,0,1,3.952-4.112l.479-.334.6,11.886.116,1.218Z" transform="translate(-401.969 -211.366)" fill="#fff"/>
        <path id="Trazado_155730" data-name="Trazado 155730" d="M461.329,275.769c-.725-.174-1.371-.355-2.016-.551s-1.3-.4-1.893-.609c1.131-7.977,2.176-12.989,2.176-12.989l.587,1.45Z" transform="translate(-405.107 -215.766)" fill="#c7e5f2"/>
        <path id="Trazado_155731" data-name="Trazado 155731" d="M494.914,249.185c-.138,3.5-.725,9.138-1.284,14.794-.174,1.8-.334,3.626-.471,5.338-.094,1.081-1.726,6.861-1.791,7.9-.29,4.946-2.72,8.645-.421,16.18a11.784,11.784,0,0,1,.725,3.474c0,.515-.674,1.059-.943,1.2a15.751,15.751,0,0,1-5.149,1.226h0a132.923,132.923,0,0,1-14.287.653c-4.939,0-12.329-.783-13.286-2.023s-.065-2.8.341-5.077c1.82-10.32,1.168-15.7,1.059-23.156v-.566c-.189-11.495-.95-21.329-.413-24.875l.479-.334c.783-.529,1.552-1.008,2.292-1.45a1.949,1.949,0,0,0,.225-.131l.682-.37a2.179,2.179,0,0,1,.261-.131,55.183,55.183,0,0,1,5.512-2.176l.471-.152c1.32-.08,2.749-.094,4.293-.058,1.342.044,3.394.218,5.628.515h0a58.016,58.016,0,0,1,7.47,1.392h.036a15.23,15.23,0,0,1,5.874,4.112A19.872,19.872,0,0,1,494.914,249.185Z" transform="translate(-405.152 -209.669)" fill="#fff"/>
        <path id="Trazado_155732" data-name="Trazado 155732" d="M501.153,299.952a11.783,11.783,0,0,1,.725,3.474c0,.515-.674,1.059-.943,1.2a15.752,15.752,0,0,1-5.149,1.226,3.634,3.634,0,0,0,2.582-2.966c0-.943-1.226-7.346-.892-11.473s1.015-10.682-.261-15.955S494.72,263.3,494.72,263.3l7.2,4.351s.928,1.3,1.951,2.9c-.174,1.8-.334,3.626-.471,5.338C503.27,276.956,498.854,292.417,501.153,299.952Z" transform="translate(-415.357 -216.227)" fill="#c7e5f2"/>
        <g id="Grupo_86089" data-name="Grupo 86089" transform="translate(50.737)">
          <path id="Trazado_155733" data-name="Trazado 155733" d="M459.91,211s.624,7.528,3.118,8.035,1.886-2.7,1.886-2.7l-.348-3.575Z" transform="translate(-456.529 -201.856)" fill="#002c54"/>
          <path id="Trazado_155734" data-name="Trazado 155734" d="M474.536,241.486c-4.888-.58-3.06-5.33-2.386-6.425.174-.058,1.015-.312,1.081-.355h0a1.392,1.392,0,0,0,.384-.566,11.75,11.75,0,0,0,.239-3.909h0v-.457c.08-.3.16-.58.225-.848l2.575-2.016,5.439-4.279s-1.45,7.151-.283,11.661a1.682,1.682,0,0,0,.725,1.088h0a1.269,1.269,0,0,0,.544.189C484.42,236.184,482.564,242.479,474.536,241.486Z" transform="translate(-459.645 -205.052)" fill="#e5918f"/>
          <path id="Trazado_155735" data-name="Trazado 155735" d="M479.749,228.88a8.13,8.13,0,0,1-5.229,6.969,11.605,11.605,0,0,0,.247-3.909l2.176-1.7Z" transform="translate(-460.544 -206.769)" fill="#cc6362"/>
          <path id="Trazado_155736" data-name="Trazado 155736" d="M461.55,209.643s1.131,15.628,5.352,16.956a10.965,10.965,0,0,0,9.232-4.685c1.117-1.494,2.524-1.828,2.981-3.626.725-2.9,1.8-8.34.457-11.6C477.657,202.05,461.731,198.337,461.55,209.643Z" transform="translate(-456.98 -199.433)" fill="#e5918f"/>
          <path id="Trazado_155737" data-name="Trazado 155737" d="M477.905,203.046c-.073-2.836-2.944-3.894-2.944-3.894-2.865-1.342-8.8-.761-14.932.6-1.45.319-3.242-.558-4.242.138-1.211.841,0,4.685,0,4.685,2.364,7.158,11.06,4.83,13.677,3.945.624,1.842.537,4.409,2.089,5.729.885.725,2.422.776,3.981.515.189.363.914.689,1.059,1.189a25.231,25.231,0,0,1,.406,6.309l.725-.363C477.825,221.358,485.455,203.286,477.905,203.046Z" transform="translate(-455.248 -198.391)" fill="#002c54"/>
          <g id="Grupo_86087" data-name="Grupo 86087" transform="translate(5.181 12.467)">
            <path id="Trazado_155738" data-name="Trazado 155738" d="M466.111,218.95a2.163,2.163,0,0,1-1.45,2.662c-1.03.174-2.009-.725-2.226-2.038a2.161,2.161,0,0,1,1.45-2.662C464.914,216.738,465.893,217.652,466.111,218.95Z" transform="translate(-462.391 -215.942)" fill="none" stroke="#fff" stroke-miterlimit="10" stroke-width="0.5"/>
            <path id="Trazado_155739" data-name="Trazado 155739" d="M473.141,217.64a2.163,2.163,0,0,1-1.45,2.662c-1.03.174-2.009-.725-2.226-2.038a1.921,1.921,0,1,1,3.677-.624Z" transform="translate(-464.323 -215.583)" fill="none" stroke="#fff" stroke-miterlimit="10" stroke-width="0.5"/>
            <path id="Trazado_155740" data-name="Trazado 155740" d="M467.52,219.624s.225-.363,1.4-.261" transform="translate(-463.801 -216.617)" fill="none" stroke="#fff" stroke-miterlimit="10" stroke-width="0.5"/>
            <line id="Línea_501" data-name="Línea 501" y1="0.696" x2="4.359" transform="translate(8.861 1.673)" fill="none" stroke="#fff" stroke-miterlimit="10" stroke-width="0.5"/>
          </g>
          <path id="Trazado_155741" data-name="Trazado 155741" d="M480.588,223.031c3,1.153,3.938-6.237,1.088-6.527-2.176-.247-2.248,2.77-2.248,2.77S478.877,222.379,480.588,223.031Z" transform="translate(-461.869 -203.365)" fill="#e5918f"/>
          <g id="Grupo_86088" data-name="Grupo 86088" transform="translate(18.441 14.22)" opacity="0.5">
            <path id="Trazado_155742" data-name="Trazado 155742" d="M481.948,218a2.5,2.5,0,0,0-.377.529,3.155,3.155,0,0,0-.363,1.255,3.962,3.962,0,0,0,0,.725,2.652,2.652,0,0,0,.051.653c.051.2,0,.363.051.471a.2.2,0,0,1,0,.189,1.516,1.516,0,0,1-.109-.152,3.358,3.358,0,0,1-.239-.428,2.938,2.938,0,0,1-.225-.674,2.778,2.778,0,0,1-.051-.819,2.489,2.489,0,0,1,.218-.812,2,2,0,0,1,.435-.587,1.393,1.393,0,0,1,.609-.348Z" transform="translate(-480.676 -218)" fill="#cc6362"/>
            <path id="Trazado_155743" data-name="Trazado 155743" d="M482.424,219.926a1.3,1.3,0,0,0-.29.08,1.394,1.394,0,0,0-.849.834,2.41,2.41,0,0,0-.073.261l-.493-.181a1.92,1.92,0,0,1,.181-.29,1.661,1.661,0,0,1,.544-.5,1.682,1.682,0,0,1,.674-.2A1.122,1.122,0,0,1,482.424,219.926Z" transform="translate(-480.688 -218.526)" fill="#cc6362"/>
          </g>
        </g>
        <path id="Trazado_155744" data-name="Trazado 155744" d="M515.049,287.235h0c-1.32,1.53-6.324,2.64-8.7.529a14.639,14.639,0,0,1-2.451-4.656,145.42,145.42,0,0,1-4.155-14.076l11.2-5.722s1.45,6.462,2.676,12.6v.167c.406,1.973.783,3.9,1.073,5.562a.448.448,0,0,1,0,.131A23.549,23.549,0,0,1,515.049,287.235Z" transform="translate(-416.736 -216.23)" fill="#e5918f"/>
        <path id="Trazado_155745" data-name="Trazado 155745" d="M493.87,255.866a135.968,135.968,0,0,0,4.482,13.054,17.688,17.688,0,0,0,8.217-1.015,15.121,15.121,0,0,0,5.236-3.4s-2.255-6.338-4.279-10.878c-1.813-4.083-2.9-5.613-3.691-6.418a17.84,17.84,0,0,0-4.446-3.307Z" transform="translate(-415.123 -210.897)" fill="#fff"/>
        <path id="Trazado_155746" data-name="Trazado 155746" d="M508.946,258.317l-6.578-2.836L497.19,242.13s.95.29,2.176.8h0l.167.065a.428.428,0,0,1,.1.044c1.117.522,5.446,3.075,8.449,12.329a2.177,2.177,0,0,0,.073.232c.319,1.073.551,1.929.674,2.379a.721.721,0,0,1,.036.131A.769.769,0,0,1,508.946,258.317Z" transform="translate(-416.036 -210.41)" fill="#fff"/>
        <g id="Grupo_86090" data-name="Grupo 86090" transform="translate(56.288 59.511)">
          <path id="Trazado_155747" data-name="Trazado 155747" d="M507.809,291.945h0c-.094.82-.319,1.407-.725,1.617l-1.052.631a56.315,56.315,0,0,1-6.94,3.59,250.838,250.838,0,0,1-24.251,8.7,28.083,28.083,0,0,0-1.451-3.387,62.875,62.875,0,0,0,10.523-6.462c5.229-3.981,12.742-8.826,12.742-8.826l1.9-2.234s6.744-6.208,7.825-4.96v.167c.16.653.725,3.031,1.073,5.562a.449.449,0,0,1,0,.131A23.546,23.546,0,0,1,507.809,291.945Z" transform="translate(-465.784 -280.452)" fill="#e5918f"/>
          <path id="Trazado_155748" data-name="Trazado 155748" d="M471.255,310.83a4.162,4.162,0,0,1-2.662.515c-.725-.16-1.044-.464-1.6-.558a12.241,12.241,0,0,1-2.741-.631c-.725-.355-1.008-.4-.979.334s1.45,1.356,1.842,1.552a3.626,3.626,0,0,1,.928.928c.051.087-2.386,1.356-3.039,1.1a1.915,1.915,0,0,0-.087.914c.116.326.616.442.653.609s-.116.5,0,.761.558.261.725.682,0,.435.109.878.725.522.8.725.051.5.29.653a11.19,11.19,0,0,0,3.227-.885c.8-.341,2.937-3.423,5.3-4.467Z" transform="translate(-462.901 -288.546)" fill="#e5918f"/>
        </g>
        <path id="Trazado_155749" data-name="Trazado 155749" d="M483.4,329.488H466.36V327.82H483.4a.834.834,0,0,1,.827.856h0A.841.841,0,0,1,483.4,329.488Z" transform="translate(-407.564 -233.957)" fill="#375f84"/>
        <path id="Trazado_155750" data-name="Trazado 155750" d="M457.254,317.375H414.583a1.139,1.139,0,0,1-1.1-.812l-8.7-31.438a1.1,1.1,0,0,1,1.052-1.385h41.228a2.176,2.176,0,0,1,2.067,1.574l8.7,31.322a.609.609,0,0,1-.58.74Z" transform="translate(-390.633 -221.844)" fill="#375f84"/>
        <path id="Trazado_155751" data-name="Trazado 155751" d="M455.11,317.367H412.453a1.139,1.139,0,0,1-1.1-.834l-8.7-31.438a1.1,1.1,0,0,1,1.052-1.385h41.25a2.176,2.176,0,0,1,2.067,1.574l8.7,31.322a.6.6,0,0,1-.616.761Z" transform="translate(-390.048 -221.836)" fill="#467cdb"/>
      </g>
    </g>
    <g id="Grupo_86093" data-name="Grupo 86093" transform="translate(77.99 142.61)">
      <path id="Trazado_155752" data-name="Trazado 155752" d="M241.84,297.07l4.946-5.076a13.237,13.237,0,0,1,.435-2.734,12.212,12.212,0,0,1,1.313-2.43,1.755,1.755,0,0,1,1.037,0,4.789,4.789,0,0,1,.994-.232,2.9,2.9,0,0,1,.885.276s.725-.044,1.052-.044a.726.726,0,0,1,.406.08,20.8,20.8,0,0,1,1.77-1.828c.573-.464,1.45-1.313,1.719-1.313s.355.442.174.9a5.192,5.192,0,0,1-.957,1.211l-2.255,3.409a4.838,4.838,0,0,0,.595-.283c.2-.123,1.574-1.407,1.661-1.45s.725-.464,1.059-.051-2.364,3.662-2.8,4.1a23.93,23.93,0,0,1-2.9,1.7s-2.64,4.743-2.9,5.076S241.84,297.07,241.84,297.07Z" transform="translate(-159.332 -262.602)" fill="#e49191"/>
      <path id="Trazado_155753" data-name="Trazado 155753" d="M241.294,266.691s-2.756,15.991-5.352,16.361c0,0-10.378.421-12.691-12.162-2-10.878,6.041-13.242,9.8-12.408S242.106,259.86,241.294,266.691Z" transform="translate(-154.138 -255.612)" fill="#e49191"/>
      <path id="Trazado_155754" data-name="Trazado 155754" d="M231.722,285.6s-1.45,1.958-1.958,6.7a15.4,15.4,0,0,1-8.3-1.45,58.742,58.742,0,0,0,2.408-13.96" transform="translate(-153.732 -260.712)" fill="#e49191"/>
      <path id="Trazado_155755" data-name="Trazado 155755" d="M228.39,254.776c-5.671,1.247-5.214,4.779-5.214,4.779-2.654.66-3.227,1.755-3.205,6.657s1.791,10.777,2.77,11.255,6.527.508,6.984.334,2.4-4.663,1.951-5.454,0-3.894,1.313-4.018,1.037,1.886,1.037,1.886l1.066-.232.812-2.009c7.491.442,9.428-8.093,9.428-8.093C243.532,258.707,234.061,253.522,228.39,254.776Z" transform="translate(-153.323 -254.582)" fill="#002c54"/>
      <path id="Trazado_155756" data-name="Trazado 155756" d="M143.6,404.1l5.736.827-1.9,6.694-6.208-1.566a4.032,4.032,0,0,1,1.291-5.954A2.089,2.089,0,0,1,143.6,404.1Z" transform="translate(-131.464 -295.649)" fill="#e5918f"/>
      <path id="Trazado_155757" data-name="Trazado 155757" d="M188.423,370.582,179.975,345s-2.56-.914-3.873,0c0,0-8.8,4.736-7.861,18.232a224.945,224.945,0,0,0,3.728,25.629l-22.561-.834a7.687,7.687,0,0,0-.965,7.629s28.327,7.615,32.316,8.326c3.242.566,6.788,1.008,8.5-.457C192.281,400.91,188.423,370.582,188.423,370.582Z" transform="translate(-133.503 -279.315)" fill="#02749e"/>
      <path id="Trazado_155758" data-name="Trazado 155758" d="M180.4,404.1l5.729.827-1.9,6.694-6.208-1.566a4.032,4.032,0,0,1,1.291-5.954A2.11,2.11,0,0,1,180.4,404.1Z" transform="translate(-141.576 -295.649)" fill="#e5918f"/>
      <path id="Trazado_155759" data-name="Trazado 155759" d="M174.929,406.986c-.131,1.32,1.023,2.5.812,2.836s-4.068,6.788-4.068,6.788,2.9,1.269,2.444,3.1h-7.368a6.114,6.114,0,0,1-1.878-4.221,21.364,21.364,0,0,1,1.813-5.4l4.308-8.253a4.127,4.127,0,0,1,2.451.044,15.068,15.068,0,0,1,3.568,1.6S175.241,403.708,174.929,406.986Z" transform="translate(-138.182 -295)" fill="#467cdb"/>
      <path id="Trazado_155760" data-name="Trazado 155760" d="M239.116,398.279c-1.82-6.788-18.935-35.76-24.737-43.585-11.894-5.164-24.563-9.544-24.563-9.544-5.243,1.255-7.825,11.814-4.852,18.856,2.038,4.83,14.976,16.984,22.9,24.142H185.878s-2.589,3.865-.239,7.542c0,0,36.565,8.318,39.771,8.79s10.407,0,10.407,0S240.646,403.994,239.116,398.279Z" transform="translate(-143.359 -279.469)" fill="#039be5"/>
      <path id="Trazado_155761" data-name="Trazado 155761" d="M138.129,406.987c-.131,1.32,1.023,2.5.812,2.836s-4.068,6.788-4.068,6.788,2.9,1.269,2.444,3.1h-7.368a6.114,6.114,0,0,1-1.878-4.221,21.365,21.365,0,0,1,1.813-5.4l4.3-8.253a4.156,4.156,0,0,1,2.458.044,14.946,14.946,0,0,1,3.561,1.6S138.441,403.709,138.129,406.987Z" transform="translate(-128.07 -295)" fill="#467cdb"/>
      <path id="Trazado_155762" data-name="Trazado 155762" d="M287.752,295.32,275.96,316.061l-8.449-8.412-6.991,10.4,2.031.979-.725.609s16.3,7.934,18.254,6.186,11.052-28.146,11.052-28.146Z" transform="translate(-164.465 -265.776)" fill="#e49191"/>
      <path id="Trazado_155763" data-name="Trazado 155763" d="M247.872,307.534s-2.226,9.392-6.679,13.844L229.8,317.027s-5.309,8.906-10.458,15.723c-1.987,2.633-2.647,6.338-4.982,6.824-.145-.051-.283-.094-.428-.131-6.331-1.9-15.672.116-23.381-2.749-8.514-3.169-6.861-4.953-6.861-4.953a109.98,109.98,0,0,0,8.093-19.16,117.484,117.484,0,0,0,2.814-11.553,13.3,13.3,0,0,1,11.2-10.711h.189c6.454-.819,23.352,1.175,26.637,2.582S247.872,307.534,247.872,307.534Z" transform="translate(-143.318 -264.349)" fill="#ffa726"/>
      <path id="Trazado_155764" data-name="Trazado 155764" d="M241.47,326.668s-5.309,8.891-10.458,15.708c-1.987,2.633-2.647,6.338-4.982,6.824,1.023-.363,2.72-5.744,3.321-6.955s1.574-2.415,3.626-6.643,4.9-10.443,4.9-10.443Z" transform="translate(-154.988 -273.976)" fill="#5996ef"/>
      <path id="Trazado_155765" data-name="Trazado 155765" d="M217,404.356s.174-.036.493-.08a11.7,11.7,0,0,1,1.313-.116,21.089,21.089,0,0,1,4,.181,20.256,20.256,0,0,1,2.1.4,14.885,14.885,0,0,1,1.791.529,12.113,12.113,0,0,1,1.226.5l.45.218a2.423,2.423,0,0,1-.493-.073c-.312-.073-.761-.123-1.291-.218-1.066-.174-2.473-.406-3.887-.595-.725-.109-1.414-.181-2.081-.276l-1.82-.232Z" transform="translate(-152.507 -295.677)"/>
      <path id="Trazado_155766" data-name="Trazado 155766" d="M306.612,283.392a11.019,11.019,0,0,0-1.98,1.45l.667-1.291a12.408,12.408,0,0,0,1.211-1.327c.319-.471.152-.943-.1-.972a10.269,10.269,0,0,0-1.857,1.327l.138-.254a13.615,13.615,0,0,0,1.211-1.334c.319-.471.145-.943-.1-.965a16.58,16.58,0,0,0-2.3,1.69l-1,1.334.725-1.45a6.68,6.68,0,0,0,.66-1.015c.261-.522.073-.689-.073-.863s-1.523.849-1.878,1.262a21.461,21.461,0,0,0-1.552,2.306l-1.153,2.379c-.073-.689-.189-1.871-.268-2.618-.116-1.088-1.1-1.342-1.131-.812a27.424,27.424,0,0,0-.457,4.525c.123,1.407.355,2.328.442,3.118a6.267,6.267,0,0,1-.725,2.371s3.285,2.038,3.829,1.45a25.247,25.247,0,0,0,2.255-2.9,14.976,14.976,0,0,0,1.284-2.9l1.023-2.176a12.4,12.4,0,0,0,1.211-1.327C307.033,283.893,306.866,283.421,306.612,283.392Z" transform="translate(-174.514 -261.485)" fill="#e49191"/>
    </g>
    <g id="Grupo_86095" data-name="Grupo 86095" transform="translate(355.514 98.472)">
      <path id="Trazado_155767" data-name="Trazado 155767" d="M553.719,193.72h-38.5a4.46,4.46,0,0,0-4.467,4.46v9.094a4.46,4.46,0,0,0,3.9,4.431.645.645,0,0,1,.566.638v4.975a.29.29,0,0,0,.529.174l3.923-5.483a.66.66,0,0,1,.529-.268h33.519a4.467,4.467,0,0,0,4.467-4.467V198.18a4.46,4.46,0,0,0-4.467-4.46Z" transform="translate(-510.75 -193.72)" fill="none" stroke="#fff" stroke-miterlimit="10" stroke-width="0.9"/>
      <g id="Grupo_86094" data-name="Grupo 86094" transform="translate(7.47 7.542)">
        <path id="Trazado_155768" data-name="Trazado 155768" d="M523.951,205.57a1.45,1.45,0,1,1-1.45-1.45A1.45,1.45,0,0,1,523.951,205.57Z" transform="translate(-521.05 -204.12)" fill="none" stroke="#fff" stroke-miterlimit="10" stroke-width="0.9"/>
        <path id="Trazado_155769" data-name="Trazado 155769" d="M534.161,205.57a1.45,1.45,0,1,1-1.45-1.45A1.45,1.45,0,0,1,534.161,205.57Z" transform="translate(-523.856 -204.12)" fill="none" stroke="#fff" stroke-miterlimit="10" stroke-width="0.9"/>
        <path id="Trazado_155770" data-name="Trazado 155770" d="M544.361,205.57a1.45,1.45,0,1,1-1.45-1.45A1.45,1.45,0,0,1,544.361,205.57Z" transform="translate(-526.658 -204.12)" fill="none" stroke="#fff" stroke-miterlimit="10" stroke-width="0.9"/>
        <path id="Trazado_155771" data-name="Trazado 155771" d="M554.571,205.57a1.45,1.45,0,1,1-1.45-1.45A1.45,1.45,0,0,1,554.571,205.57Z" transform="translate(-529.464 -204.12)" fill="none" stroke="#fff" stroke-miterlimit="10" stroke-width="0.9"/>
        <path id="Trazado_155772" data-name="Trazado 155772" d="M564.781,205.57a1.45,1.45,0,1,1-1.45-1.45A1.45,1.45,0,0,1,564.781,205.57Z" transform="translate(-532.27 -204.12)" fill="none" stroke="#fff" stroke-miterlimit="10" stroke-width="0.9"/>
      </g>
    </g>
    <g id="Grupo_86097" data-name="Grupo 86097" transform="translate(89.912 138.322)">
      <path id="Trazado_155773" data-name="Trazado 155773" d="M148.977,248.67h38.48a4.467,4.467,0,0,1,4.467,4.467v9.094a4.475,4.475,0,0,1-3.9,4.431.638.638,0,0,0-.566.638v4.975a.3.3,0,0,1-.537.174L183,266.967a.645.645,0,0,0-.529-.276h-33.5a4.46,4.46,0,0,1-4.467-4.46v-9.094A4.467,4.467,0,0,1,148.977,248.67Z" transform="translate(-144.51 -248.67)" fill="none" stroke="#fff" stroke-miterlimit="10" stroke-width="0.9"/>
      <g id="Grupo_86096" data-name="Grupo 86096" transform="translate(7.426 7.549)">
        <path id="Trazado_155774" data-name="Trazado 155774" d="M195.59,260.53a1.45,1.45,0,1,0,1.45-1.45A1.45,1.45,0,0,0,195.59,260.53Z" transform="translate(-165.972 -259.08)" fill="none" stroke="#fff" stroke-miterlimit="10" stroke-width="0.9"/>
        <path id="Trazado_155775" data-name="Trazado 155775" d="M185.38,260.53a1.45,1.45,0,1,0,1.45-1.45A1.45,1.45,0,0,0,185.38,260.53Z" transform="translate(-163.167 -259.08)" fill="none" stroke="#fff" stroke-miterlimit="10" stroke-width="0.9"/>
        <path id="Trazado_155776" data-name="Trazado 155776" d="M175.17,260.53a1.45,1.45,0,1,0,1.45-1.45A1.45,1.45,0,0,0,175.17,260.53Z" transform="translate(-160.361 -259.08)" fill="none" stroke="#fff" stroke-miterlimit="10" stroke-width="0.9"/>
        <path id="Trazado_155777" data-name="Trazado 155777" d="M165,260.53a1.45,1.45,0,1,0,1.45-1.45A1.45,1.45,0,0,0,165,260.53Z" transform="translate(-157.567 -259.08)" fill="none" stroke="#fff" stroke-miterlimit="10" stroke-width="0.9"/>
        <path id="Trazado_155778" data-name="Trazado 155778" d="M154.75,260.53a1.45,1.45,0,1,0,1.45-1.45A1.45,1.45,0,0,0,154.75,260.53Z" transform="translate(-154.75 -259.08)" fill="none" stroke="#fff" stroke-miterlimit="10" stroke-width="0.9"/>
      </g>
    </g>
    <g id="Grupo_86099" data-name="Grupo 86099" transform="translate(249.64 63.487)">
      <path id="Trazado_155779" data-name="Trazado 155779" d="M441.908,159.491H371.766a7.013,7.013,0,0,1-7.006-7.006h0a7.005,7.005,0,0,1,7.006-7.006h70.143a7,7,0,0,1,7,7.006h0a7.006,7.006,0,0,1-7,7.006Z" transform="translate(-364.76 -145.48)" fill="#fff" stroke="#495ad6" stroke-miterlimit="10" stroke-width="0.9"/>
      <g id="Grupo_86098" data-name="Grupo 86098" transform="translate(68.663 2.799)">
        <path id="Trazado_155780" data-name="Trazado 155780" d="M466.9,153.06a3.728,3.728,0,1,1-3.728-3.72,3.728,3.728,0,0,1,3.728,3.72Z" transform="translate(-459.44 -149.34)" fill="none" stroke="#495ad6" stroke-miterlimit="10" stroke-width="1.67"/>
        <line id="Línea_502" data-name="Línea 502" x2="2.06" y2="2.06" transform="translate(6.36 6.353)" fill="none" stroke="#495ad6" stroke-linecap="round" stroke-miterlimit="10" stroke-width="1.67"/>
      </g>
    </g>
    <g id="Grupo_86118" data-name="Grupo 86118" transform="translate(42.345)">
      <g id="Grupo_86100" data-name="Grupo 86100" transform="translate(149.706 239.163)">
        <rect id="Rectángulo_36909" data-name="Rectángulo 36909" width="28.827" height="28.827" rx="7.71" transform="translate(5.251)" fill="#0b3360"/>
        <rect id="Rectángulo_36910" data-name="Rectángulo 36910" width="28.827" height="28.827" rx="7.71" fill="#495ad6"/>
        <path id="Trazado_155781" data-name="Trazado 155781" d="M300.086,400.061l8.275,4.772a.761.761,0,0,1,0,1.327l-8.275,4.779a.761.761,0,0,1-1.146-.667v-9.558a.761.761,0,0,1,1.146-.653Z" transform="translate(-289.084 -391.082)" fill="#fff"/>
      </g>
      <g id="Grupo_86101" data-name="Grupo 86101" transform="translate(323.474 230.308)">
        <rect id="Rectángulo_36911" data-name="Rectángulo 36911" width="37.682" height="37.682" rx="10.08" transform="translate(6.868)" fill="#0b3360"/>
        <rect id="Rectángulo_36912" data-name="Rectángulo 36912" width="37.682" height="37.682" rx="10.08" fill="#495ad6"/>
        <path id="Trazado_155782" data-name="Trazado 155782" d="M553.751,386.545a4.525,4.525,0,1,1-4.525-4.525A4.525,4.525,0,0,1,553.751,386.545Z" transform="translate(-530.384 -377.299)" fill="#fff"/>
        <path id="Trazado_155783" data-name="Trazado 155783" d="M556.856,405.828v6.679a1.088,1.088,0,0,1-1.088,1.1h-16.68a1.088,1.088,0,0,1-1.088-1.1v-6.679a9.428,9.428,0,0,1,9.428-9.428h0A9.428,9.428,0,0,1,556.856,405.828Z" transform="translate(-528.543 -381.25)" fill="#fff"/>
      </g>
      <g id="Grupo_86102" data-name="Grupo 86102" transform="translate(242.12 83.337)">
        <path id="Trazado_155784" data-name="Trazado 155784" d="M428.706,175.076H413.89a1.11,1.11,0,0,1-1.11-1.11h0a1.117,1.117,0,0,1,1.11-1.117h14.816a1.117,1.117,0,0,1,1.117,1.117h0a1.11,1.11,0,0,1-1.117,1.11Z" transform="translate(-412.78 -172.85)" fill="#f0f4ff"/>
        <path id="Trazado_155785" data-name="Trazado 155785" d="M450.7,175.076H439.977a1.11,1.11,0,0,1-1.117-1.11h0a1.117,1.117,0,0,1,1.117-1.117H450.7a1.11,1.11,0,0,1,1.11,1.117h0a1.1,1.1,0,0,1-1.11,1.11Z" transform="translate(-419.946 -172.85)" fill="#f0f4ff"/>
        <path id="Trazado_155786" data-name="Trazado 155786" d="M420.194,181.826H413.9a1.11,1.11,0,0,1-1.11-1.11h0a1.117,1.117,0,0,1,1.11-1.117h6.295a1.117,1.117,0,0,1,1.117,1.117h0a1.11,1.11,0,0,1-1.117,1.11Z" transform="translate(-412.783 -174.705)" fill="#f0f4ff"/>
        <path id="Trazado_155787" data-name="Trazado 155787" d="M447.338,181.826H427.757a1.11,1.11,0,0,1-1.117-1.11h0a1.117,1.117,0,0,1,1.117-1.117h19.581a1.11,1.11,0,0,1,1.11,1.117h0a1.1,1.1,0,0,1-1.11,1.11Z" transform="translate(-416.589 -174.705)" fill="#f0f4ff"/>
        <path id="Trazado_155788" data-name="Trazado 155788" d="M433.42,188.576H413.89a1.11,1.11,0,0,1-1.11-1.11h0a1.117,1.117,0,0,1,1.11-1.117h19.53a1.117,1.117,0,0,1,1.117,1.117h0a1.11,1.11,0,0,1-1.117,1.11Z" transform="translate(-412.78 -176.56)" fill="#f0f4ff"/>
        <path id="Trazado_155789" data-name="Trazado 155789" d="M452.372,188.576h-6.295a1.11,1.11,0,0,1-1.117-1.11h0a1.117,1.117,0,0,1,1.117-1.117h6.295a1.11,1.11,0,0,1,1.11,1.117h0a1.1,1.1,0,0,1-1.11,1.11Z" transform="translate(-421.623 -176.56)" fill="#f0f4ff"/>
      </g>
      <g id="Grupo_86106" data-name="Grupo 86106" transform="translate(15.955 167.621)">
        <rect id="Rectángulo_36913" data-name="Rectángulo 36913" width="57.263" height="31.656" rx="3.82" fill="#0b3360"/>
        <line id="Línea_503" data-name="Línea 503" x2="52.397" transform="translate(2.429 4.279)" fill="none" stroke="#fff" stroke-linecap="round" stroke-miterlimit="10" stroke-width="0.9"/>
        <circle id="Elipse_6983" data-name="Elipse 6983" cx="0.631" cy="0.631" r="0.631" transform="translate(52.817 1.472)" fill="#fff"/>
        <circle id="Elipse_6984" data-name="Elipse 6984" cx="0.631" cy="0.631" r="0.631" transform="translate(49.503 1.472)" fill="#fff"/>
        <circle id="Elipse_6985" data-name="Elipse 6985" cx="0.631" cy="0.631" r="0.631" transform="translate(46.196 1.472)" fill="#fff"/>
        <g id="Grupo_86105" data-name="Grupo 86105" transform="translate(2.429 6.781)">
          <g id="Grupo_86103" data-name="Grupo 86103">
            <path id="Trazado_155790" data-name="Trazado 155790" d="M114.039,300.175h-8.891a.878.878,0,0,1-.878-.878h0a.878.878,0,0,1,.878-.878h8.891a.877.877,0,0,1,.878.877h0a.877.877,0,0,1-.878.877Z" transform="translate(-104.27 -298.42)" fill="#6589d1"/>
            <path id="Trazado_155791" data-name="Trazado 155791" d="M114.039,305.758h-8.891a.878.878,0,0,1-.878-.87h0a.877.877,0,0,1,.878-.878h8.891a.877.877,0,0,1,.878.878h0A.877.877,0,0,1,114.039,305.758Z" transform="translate(-104.27 -299.956)" fill="#6589d1"/>
            <path id="Trazado_155792" data-name="Trazado 155792" d="M114.039,311.335h-8.891a.877.877,0,0,1-.878-.878h0a.878.878,0,0,1,.878-.878h8.891a.878.878,0,0,1,.914.885h0a.878.878,0,0,1-.914.87Z" transform="translate(-104.27 -301.486)" fill="#6589d1"/>
            <path id="Trazado_155793" data-name="Trazado 155793" d="M114.039,316.925h-8.891a.877.877,0,0,1-.878-.878h0a.877.877,0,0,1,.878-.878h8.891a.877.877,0,0,1,.878.878h0A.877.877,0,0,1,114.039,316.925Z" transform="translate(-104.27 -303.023)" fill="#6589d1"/>
            <path id="Trazado_155794" data-name="Trazado 155794" d="M114.039,322.507h-8.891a.878.878,0,0,1-.878-.87h0a.878.878,0,0,1,.878-.878h8.891a.878.878,0,0,1,.914.9h0a.878.878,0,0,1-.914.849Z" transform="translate(-104.27 -304.558)" fill="#6589d1"/>
            <path id="Trazado_155795" data-name="Trazado 155795" d="M114.039,328.1h-8.891a.877.877,0,0,1-.878-.878h0a.877.877,0,0,1,.878-.878h8.891a.877.877,0,0,1,.878.878h0A.877.877,0,0,1,114.039,328.1Z" transform="translate(-104.27 -306.092)" fill="#6589d1"/>
          </g>
          <g id="Grupo_86104" data-name="Grupo 86104" transform="translate(12.329)">
            <path id="Trazado_155796" data-name="Trazado 155796" d="M160.468,300.175h-38.32a.878.878,0,0,1-.878-.878h0a.878.878,0,0,1,.878-.878h38.32a.877.877,0,0,1,.87.877h0a.878.878,0,0,1-.87.878Z" transform="translate(-121.27 -298.42)" fill="#3b5fb7"/>
            <path id="Trazado_155797" data-name="Trazado 155797" d="M160.468,305.758h-38.32a.878.878,0,0,1-.878-.87h0a.877.877,0,0,1,.878-.878h38.32a.877.877,0,0,1,.87.878h0a.87.87,0,0,1-.87.87Z" transform="translate(-121.27 -299.956)" fill="#3b5fb7"/>
            <path id="Trazado_155798" data-name="Trazado 155798" d="M160.468,311.335h-38.32a.877.877,0,0,1-.878-.878h0a.878.878,0,0,1,.878-.878h38.32a.877.877,0,0,1,.87.878h0a.878.878,0,0,1-.87.878Z" transform="translate(-121.27 -301.487)" fill="#3b5fb7"/>
            <path id="Trazado_155799" data-name="Trazado 155799" d="M160.468,316.925h-38.32a.877.877,0,0,1-.878-.878h0a.877.877,0,0,1,.878-.878h38.32a.878.878,0,0,1,.87.878h0a.878.878,0,0,1-.87.878Z" transform="translate(-121.27 -303.023)" fill="#3b5fb7"/>
            <path id="Trazado_155800" data-name="Trazado 155800" d="M160.468,322.508h-38.32a.878.878,0,0,1-.878-.87h0a.877.877,0,0,1,.878-.878h38.32a.877.877,0,0,1,.87.877h0a.87.87,0,0,1-.87.87Z" transform="translate(-121.27 -304.559)" fill="#3b5fb7"/>
            <path id="Trazado_155801" data-name="Trazado 155801" d="M160.468,328.1h-38.32a.877.877,0,0,1-.878-.878h0a.877.877,0,0,1,.878-.878h38.32a.878.878,0,0,1,.87.878h0a.878.878,0,0,1-.87.878Z" transform="translate(-121.27 -306.092)" fill="#3b5fb7"/>
          </g>
        </g>
      </g>
      <g id="Grupo_86110" data-name="Grupo 86110" transform="translate(287.554)">
        <circle id="Elipse_6986" data-name="Elipse 6986" cx="23.577" cy="23.577" r="23.577" transform="matrix(0.233, -0.972, 0.972, 0.233, 0, 45.856)" fill="none" stroke="#dee3fc" stroke-miterlimit="10" stroke-width="0.79"/>
        <circle id="Elipse_6987" data-name="Elipse 6987" cx="20.495" cy="20.495" r="20.495" transform="translate(1.402 17.973) rotate(-23.87)" fill="#36dac9"/>
        <path id="Trazado_155802" data-name="Trazado 155802" d="M515.8,96.431a1.864,1.864,0,1,1-.543-1.323,1.864,1.864,0,0,1,.543,1.323Z" transform="translate(-485.498 -68)" fill="#fff"/>
        <path id="Trazado_155803" data-name="Trazado 155803" d="M511.749,92.093h0a.573.573,0,0,1-.79-.225L504.932,80.99a.587.587,0,0,1,.225-.8h0a.58.58,0,0,1,.79.232L511.981,91.3a.58.58,0,0,1-.232.79Z" transform="translate(-483.516 -64.033)" fill="#fff"/>
        <path id="Trazado_155804" data-name="Trazado 155804" d="M514.986,97.484h0a.58.58,0,0,1,.827,0l5.214,5.214a.58.58,0,0,1,0,.82h0a.58.58,0,0,1-.827,0L514.986,98.3a.58.58,0,0,1,0-.819Z" transform="translate(-486.252 -68.757)" fill="#fff"/>
        <g id="Grupo_86107" data-name="Grupo 86107" transform="translate(9.675 9.669)">
          <line id="Línea_504" data-name="Línea 504" y1="2.357" transform="translate(18.892)" fill="none" stroke="#fff" stroke-linecap="round" stroke-miterlimit="10" stroke-width="2"/>
          <line id="Línea_505" data-name="Línea 505" x2="2.357" transform="translate(35.166 18.885)" fill="none" stroke="#fff" stroke-linecap="round" stroke-miterlimit="10" stroke-width="2"/>
          <line id="Línea_506" data-name="Línea 506" y2="2.357" transform="translate(18.638 35.166)" fill="none" stroke="#fff" stroke-linecap="round" stroke-miterlimit="10" stroke-width="2"/>
          <line id="Línea_507" data-name="Línea 507" x1="2.357" transform="translate(0 18.631)" fill="none" stroke="#fff" stroke-linecap="round" stroke-miterlimit="10" stroke-width="2"/>
        </g>
        <g id="Grupo_86108" data-name="Grupo 86108" transform="translate(12.126 12.121)" opacity="0.5">
          <line id="Línea_508" data-name="Línea 508" x1="1.175" y1="2.038" transform="translate(7.042)" fill="none" stroke="#dee3fc" stroke-linecap="round" stroke-miterlimit="10" stroke-width="1"/>
          <line id="Línea_509" data-name="Línea 509" y1="1.182" x2="2.038" transform="translate(30.582 7.035)" fill="none" stroke="#dee3fc" stroke-linecap="round" stroke-miterlimit="10" stroke-width="1"/>
          <line id="Línea_510" data-name="Línea 510" x2="1.182" y2="2.045" transform="translate(24.403 30.575)" fill="none" stroke="#dee3fc" stroke-linecap="round" stroke-miterlimit="10" stroke-width="1"/>
          <line id="Línea_511" data-name="Línea 511" x1="2.045" y2="1.175" transform="translate(0 24.403)" fill="none" stroke="#dee3fc" stroke-linecap="round" stroke-miterlimit="10" stroke-width="1"/>
        </g>
        <g id="Grupo_86109" data-name="Grupo 86109" transform="translate(12.249 12.244)" opacity="0.5">
          <line id="Línea_512" data-name="Línea 512" x1="2.045" y1="1.182" transform="translate(0 6.694)" fill="none" stroke="#dee3fc" stroke-linecap="round" stroke-miterlimit="10" stroke-width="1"/>
          <line id="Línea_513" data-name="Línea 513" y1="2.038" x2="1.182" transform="translate(24.498)" fill="none" stroke="#dee3fc" stroke-linecap="round" stroke-miterlimit="10" stroke-width="1"/>
          <line id="Línea_514" data-name="Línea 514" x2="2.045" y2="1.175" transform="translate(30.328 24.498)" fill="none" stroke="#dee3fc" stroke-linecap="round" stroke-miterlimit="10" stroke-width="1"/>
          <line id="Línea_515" data-name="Línea 515" x1="1.175" y2="2.038" transform="translate(6.701 30.328)" fill="none" stroke="#dee3fc" stroke-linecap="round" stroke-miterlimit="10" stroke-width="1"/>
        </g>
      </g>
      <g id="Grupo_86113" data-name="Grupo 86113" transform="translate(0 103.853)">
        <rect id="Rectángulo_36914" data-name="Rectángulo 36914" width="39.763" height="39.763" rx="9.57" transform="translate(3.082 3.445)" fill="#0b3360"/>
        <rect id="Rectángulo_36915" data-name="Rectángulo 36915" width="39.763" height="39.763" rx="7.67" fill="#35afea" stroke="#dee3fc" stroke-miterlimit="10" stroke-width="1"/>
        <g id="Grupo_86112" data-name="Grupo 86112" transform="translate(11.052 6.266)">
          <g id="Grupo_86111" data-name="Grupo 86111">
            <path id="Trazado_155805" data-name="Trazado 155805" d="M109.875,218.845h-.2v-2.284a6.781,6.781,0,1,0-13.561,0v2.284h-.044a1.9,1.9,0,0,0-1.907,1.9v8.587a1.907,1.907,0,0,0,1.907,1.9h13.779a1.907,1.907,0,0,0,1.907-1.9v-8.587a1.9,1.9,0,0,0-1.878-1.9ZM97.83,216.561a5.076,5.076,0,1,1,10.153,0v2.284H97.83Z" transform="translate(-94.16 -209.78)" fill="#dee3fc"/>
            <path id="Trazado_155806" data-name="Trazado 155806" d="M107.714,227.524a2.212,2.212,0,1,0-3.329,1.915.406.406,0,0,1,.2.442l-.384,1.45a1.327,1.327,0,1,0,2.56,0l-.377-1.407a.392.392,0,0,1,.2-.442,2.219,2.219,0,0,0,1.124-1.958Z" transform="translate(-96.669 -214.049)" fill="#35afea"/>
          </g>
          <path id="Trazado_155807" data-name="Trazado 155807" d="M110.974,242.892H95.019a.819.819,0,0,1-.819-.812h0a.82.82,0,0,1,.819-.82h15.955a.82.82,0,0,1,.819.82h0A.819.819,0,0,1,110.974,242.892Z" transform="translate(-94.171 -218.43)" fill="#dee3fc"/>
          <path id="Trazado_155808" data-name="Trazado 155808" d="M110.974,246.7H95.019a.82.82,0,0,1-.819-.812h0a.827.827,0,0,1,.819-.819h15.955a.827.827,0,0,1,.819.819h0A.82.82,0,0,1,110.974,246.7Z" transform="translate(-94.171 -219.477)" fill="#dee3fc"/>
        </g>
      </g>
      <g id="Grupo_86116" data-name="Grupo 86116" transform="translate(328 168.368)">
        <g id="Grupo_86114" data-name="Grupo 86114" transform="translate(0)">
          <rect id="Rectángulo_36916" data-name="Rectángulo 36916" width="23.41" height="23.41" rx="5.63" transform="translate(1.813 2.023)" fill="#0b3360"/>
          <rect id="Rectángulo_36917" data-name="Rectángulo 36917" width="23.41" height="23.41" rx="4.51" fill="#35afea" stroke="#dee3fc" stroke-miterlimit="10" stroke-width="1"/>
        </g>
        <g id="Grupo_86115" data-name="Grupo 86115" transform="translate(4.714 4.739)">
          <path id="Trazado_155809" data-name="Trazado 155809" d="M540.546,310.591a.609.609,0,0,1-.2,0,.725.725,0,0,1-.5-.892l3.539-12.532a.723.723,0,1,1,1.392.392l-3.539,12.532A.725.725,0,0,1,540.546,310.591Z" transform="translate(-538.283 -296.634)" fill="#fff"/>
          <path id="Trazado_155810" data-name="Trazado 155810" d="M548.726,310.592a.609.609,0,0,1-.2,0,.725.725,0,0,1-.5-.892l3.539-12.532a.727.727,0,1,1,1.4.392l-3.546,12.532A.725.725,0,0,1,548.726,310.592Z" transform="translate(-540.531 -296.635)" fill="#fff"/>
          <path id="Trazado_155811" data-name="Trazado 155811" d="M550.971,302.77H538.425a.725.725,0,1,1,0-1.45h12.546a.725.725,0,1,1,0,1.45Z" transform="translate(-537.7 -297.922)" fill="#fff"/>
          <path id="Trazado_155812" data-name="Trazado 155812" d="M550.971,310.67H538.425a.725.725,0,0,1,0-1.45h12.546a.725.725,0,0,1,0,1.45Z" transform="translate(-537.7 -300.093)" fill="#fff"/>
        </g>
      </g>
      <g id="Grupo_86117" data-name="Grupo 86117" transform="translate(56.436 117.451)">
        <path id="Trazado_155813" data-name="Trazado 155813" d="M166.839,221.877h-9.065a.994.994,0,0,1-.994-.994h0a.994.994,0,0,1,.994-.994h9.065a.994.994,0,0,1,.994.994h0a.994.994,0,0,1-.994.994Z" transform="translate(-156.751 -219.89)" fill="#f0f4ff"/>
        <path id="Trazado_155814" data-name="Trazado 155814" d="M175.969,227.967h-18.2a.994.994,0,0,1-.994-.994h0a.994.994,0,0,1,.994-.994h18.2a.994.994,0,0,1,.994.994h0A.994.994,0,0,1,175.969,227.967Z" transform="translate(-156.751 -221.563)" fill="#f0f4ff"/>
        <path id="Trazado_155815" data-name="Trazado 155815" d="M159.909,234.047h-2.176a.994.994,0,0,1-.994-.994h0a.994.994,0,0,1,.994-.994h2.176a.994.994,0,0,1,1,.994h0a.994.994,0,0,1-1,.994Z" transform="translate(-156.74 -223.234)" fill="#f0f4ff"/>
        <path id="Trazado_155816" data-name="Trazado 155816" d="M178.063,234.047H165.394a.994.994,0,0,1-.994-.994h0a.994.994,0,0,1,.994-.994h12.669a.994.994,0,0,1,.994.994h0A.994.994,0,0,1,178.063,234.047Z" transform="translate(-158.845 -223.234)" fill="#f0f4ff"/>
        <path id="Trazado_155817" data-name="Trazado 155817" d="M180.781,221.877h-5.5a.994.994,0,0,1-.994-.994h0a1,1,0,0,1,.994-.994h5.5a.994.994,0,0,1,.994.994h0a.994.994,0,0,1-.994.994Z" transform="translate(-161.563 -219.89)" fill="#f0f4ff"/>
      </g>
      <path id="Trazado_155818" data-name="Trazado 155818" d="M104.112,407.587a6.359,6.359,0,0,0-3.233.884,6.773,6.773,0,0,0-13.512.77,6.326,6.326,0,0,0,.044.725,5.178,5.178,0,1,0-.957,10.269h17.659a6.331,6.331,0,1,0,0-12.655Z" transform="translate(-79.57 -152.585)" fill="#fff"/>
    </g>
    <g id="Grupo_86119" data-name="Grupo 86119" transform="translate(0 189.689)">
      <path id="Trazado_155819" data-name="Trazado 155819" d="M44.247,357.632a6.6,6.6,0,0,1,.094-2.843,28.2,28.2,0,0,0-.319-15.345C40.636,328.863,26.9,319.5,26.9,319.5s3.7,15.592,6.8,22.264a83.681,83.681,0,0,0,8.34,13.322,6.527,6.527,0,0,1,1.2,2.734A113.416,113.416,0,0,1,45.1,379.758l1.037.043a115.963,115.963,0,0,0-1.893-22.17Z" transform="translate(-22.28 -319.5)" fill="#dee3fc"/>
      <path id="Trazado_155820" data-name="Trazado 155820" d="M62.291,351.253a122.632,122.632,0,0,0,4-18.783s-12.329,10.153-13.315,18.022a26.4,26.4,0,0,0,.841,10.943,7.527,7.527,0,0,1,.29,2.981,103.468,103.468,0,0,0-.254,20.56l.921-.1a102.762,102.762,0,0,1,.145-19.312,7.76,7.76,0,0,1,1.7-4.076,32.127,32.127,0,0,0,5.678-10.233Z" transform="translate(-29.381 -323.064)" fill="#b4c1ef"/>
      <path id="Trazado_155821" data-name="Trazado 155821" d="M75.525,331.92s-13.264,4.924-16.731,15.752a28.907,28.907,0,0,0-.29,15.846,5.4,5.4,0,0,1,0,2.7A121.78,121.78,0,0,0,55.35,391.75H56.4a120.989,120.989,0,0,1,3.046-24.962,9.515,9.515,0,0,1,1.574-3.358,85.219,85.219,0,0,0,8.347-13.373C72.5,343.233,75.525,331.92,75.525,331.92Z" transform="translate(-30.098 -322.913)" fill="#dee3fc"/>
      <path id="Trazado_155822" data-name="Trazado 155822" d="M42.555,380.481a36.834,36.834,0,0,0-3.068-12.046,4.068,4.068,0,0,1-.3-2.176,20,20,0,0,0-.312-6.476c-1.081-5.309-8.13-16.789-18.341-17.463a74.358,74.358,0,0,1,5.338,10.4c2.292,6,5.562,12.271,10.994,14.678a4.1,4.1,0,0,1,2.1,2.176,35.674,35.674,0,0,1,2.654,10.951Z" transform="translate(-20.53 -325.771)" fill="#b4c1ef"/>
      <path id="Trazado_155823" data-name="Trazado 155823" d="M39.708,416.022H56.562L60.914,389.3a1.936,1.936,0,0,0-1.893-2.248H37.265a1.936,1.936,0,0,0-1.915,2.255Z" transform="translate(-24.595 -338.062)" fill="#dee3fc"/>
    </g>
  </g>
</svg>
