<?xml version="1.0" encoding="utf-8"?>
<!-- Generator: Adobe Illustrator 26.0.1, SVG Export Plug-In . SVG Version: 6.00 Build 0)  -->
<svg version="1.1" id="Layer_1" xmlns="http://www.w3.org/2000/svg" xmlns:xlink="http://www.w3.org/1999/xlink" x="0px" y="0px"
	 viewBox="0 0 822.5 316.7" style="enable-background:new 0 0 822.5 316.7;" xml:space="preserve">
<style type="text/css">
	.st0{fill:none;stroke:#024E73;stroke-width:32;stroke-miterlimit:10;}
	.st1{fill:#024E73;}
	.st2{fill:#36DAC9;}
	.st3{fill:#1565B2;}
	.st4{fill:#FFFFFF;}
	.st5{fill:#FFA726;}
	.st6{fill:#6DE0D4;}
	.st7{fill:#12263F;}
	.st8{fill:#35AFEA;}
	.st9{fill:#02749E;}
	.st10{fill:#68C3EF;}
	.st11{opacity:0.22;fill:#0B3360;enable-background:new    ;}
	.st12{fill:#A2BAC3;}
</style>
<g>
	<g id="Grupo_87014">
		<line id="Línea_523" class="st0" x1="136.2" y1="64.4" x2="246.1" y2="64.4"/>
		<path id="Trazado_158220" class="st1" d="M235.9,99.5l60.8-35.1l-60.8-35.1V99.5z"/>
	</g>
	<g id="Grupo_87015">
		<line id="Línea_524" class="st0" x1="523" y1="64.4" x2="581.1" y2="64.4"/>
		<path id="Trazado_158221" class="st1" d="M533.3,99.5l-60.8-35.1l60.8-35.1V99.5z"/>
		<path id="Trazado_158222" class="st1" d="M570.8,99.5l60.8-35.1l-60.8-35.1V99.5z"/>
	</g>
	<g id="Grupo_87016">
		<line id="Línea_525" class="st0" x1="296.7" y1="281.6" x2="186.8" y2="281.6"/>
		<path id="Trazado_158223" class="st1" d="M197,246.5l-60.8,35.1l60.8,35.1V246.5z"/>
	</g>
	<g id="Grupo_87017">
		<line id="Línea_526" class="st0" x1="383.3" y1="111" x2="383.3" y2="180.2"/>
		<path id="Trazado_158224" class="st1" d="M348.2,170l35.1,60.8l35.1-60.8H348.2z"/>
	</g>
	<path id="Rectángulo_37155" class="st2" d="M7.5,132.9h103.2c4.1,0,7.5,3.3,7.5,7.5v40.7c0,4.1-3.3,7.5-7.5,7.5H7.5
		c-4.1,0-7.5-3.3-7.5-7.5v-40.7C0,136.3,3.3,132.9,7.5,132.9z"/>
	<path id="Rectángulo_37156" class="st3" d="M316.5,31.7h122.2c4.1,0,7.5,3.3,7.5,7.5v58.3c0,4.1-3.3,7.5-7.5,7.5H316.5
		c-4.1,0-7.5-3.3-7.5-7.5V39.2C309.1,35.1,312.4,31.7,316.5,31.7z"/>
	<path id="Trazado_160520" class="st4" d="M339.7,62.5c-1.2,0.6-2.4,0.8-3.7,0.8c-1.7,0.1-3.4-0.6-4.6-1.8c-1.2-1.3-1.8-3.1-1.7-4.8
		c-0.1-1.9,0.6-3.8,1.9-5.2c1.3-1.3,3.1-2,4.9-2c1.1,0,2.2,0.2,3.2,0.6v1.7c-1-0.5-2.1-0.8-3.2-0.8c-1.4-0.1-2.8,0.5-3.8,1.5
		c-1,1.1-1.5,2.6-1.4,4.1c-0.1,1.4,0.4,2.8,1.3,3.9c0.9,1,2.2,1.5,3.5,1.5c1.2,0,2.4-0.3,3.5-0.9L339.7,62.5z"/>
	<path id="Trazado_160519" class="st4" d="M345.3,63.3c-1.3,0.1-2.5-0.4-3.4-1.3c-0.9-1-1.3-2.3-1.3-3.6c-0.1-1.4,0.4-2.7,1.3-3.8
		c0.9-0.9,2.2-1.4,3.6-1.4c1.3-0.1,2.5,0.4,3.4,1.3c0.9,1,1.3,2.3,1.2,3.7c0.1,1.3-0.4,2.7-1.3,3.7
		C347.8,62.8,346.6,63.3,345.3,63.3z M345.4,54.5c-0.9,0-1.8,0.3-2.3,1c-0.6,0.8-0.9,1.8-0.9,2.8c-0.1,1,0.3,1.9,0.9,2.7
		c0.6,0.7,1.4,1,2.3,1c0.9,0.1,1.7-0.3,2.3-1c0.6-0.8,0.9-1.8,0.8-2.7c0.1-1-0.2-2-0.8-2.8C347.1,54.8,346.3,54.5,345.4,54.5z"/>
	<path id="Trazado_160518" class="st4" d="M359.8,63.1h-1.5v-5.5c0-2-0.7-3.1-2.2-3.1c-0.7,0-1.4,0.3-1.9,0.9
		c-0.5,0.6-0.8,1.4-0.8,2.2v5.5h-1.5v-9.6h1.5v1.6h0c0.6-1.2,1.8-1.9,3.1-1.8c0.9-0.1,1.8,0.3,2.4,1c0.6,0.9,0.9,1.9,0.8,2.9V63.1z"
		/>
	<path id="Trazado_160517" class="st4" d="M366.8,63c-0.4,0.2-0.9,0.3-1.4,0.3c-1.7,0-2.5-0.9-2.5-2.8v-5.7h-1.7v-1.3h1.7v-2.3
		l1.5-0.5v2.8h2.4v1.3h-2.4v5.4c0,0.5,0.1,1,0.3,1.4c0.3,0.3,0.7,0.5,1.1,0.4c0.4,0,0.7-0.1,1-0.3L366.8,63z"/>
	<path id="Trazado_160516" class="st4" d="M373.7,55c-0.3-0.2-0.7-0.3-1.2-0.3c-0.7,0-1.3,0.4-1.6,0.9c-0.5,0.8-0.7,1.6-0.7,2.5v4.9
		h-1.5v-9.6h1.5v2h0c0.2-0.6,0.5-1.2,1-1.6c0.4-0.4,1-0.6,1.5-0.6c0.3,0,0.6,0,0.9,0.1L373.7,55z"/>
	<path id="Trazado_160515" class="st4" d="M378.8,63.3c-1.3,0.1-2.5-0.4-3.4-1.3c-0.9-1-1.3-2.3-1.3-3.6c-0.1-1.4,0.4-2.7,1.3-3.8
		c0.9-0.9,2.2-1.4,3.6-1.4c1.3-0.1,2.5,0.4,3.4,1.3c0.9,1,1.3,2.3,1.2,3.7c0.1,1.3-0.4,2.7-1.3,3.7
		C381.4,62.8,380.1,63.3,378.8,63.3z M378.9,54.5c-0.9,0-1.8,0.3-2.3,1c-0.6,0.8-0.9,1.8-0.9,2.8c-0.1,1,0.3,1.9,0.9,2.7
		c0.6,0.7,1.4,1,2.3,1c0.9,0.1,1.7-0.3,2.3-1c0.6-0.8,0.9-1.8,0.8-2.7c0.1-1-0.2-2-0.8-2.8C380.7,54.8,379.8,54.5,378.9,54.5z
		 M387.6,63.1h-1.5V48.9h1.5L387.6,63.1z M397.6,63.1H396v-1.5h0c-0.6,1.1-1.7,1.8-3,1.7c-0.8,0-1.6-0.2-2.2-0.8
		c-0.5-0.5-0.8-1.3-0.8-2c0-1.8,1.1-2.8,3.2-3.1L396,57c0-1.6-0.7-2.4-2-2.4c-1.2,0-2.3,0.4-3.1,1.2v-1.6c1-0.6,2.1-0.9,3.3-0.9
		c2.3,0,3.4,1.2,3.4,3.6L397.6,63.1z M396,58.2l-2.3,0.3c-0.6,0.1-1.1,0.2-1.6,0.5c-0.4,0.3-0.6,0.8-0.5,1.3c0,0.4,0.2,0.9,0.5,1.1
		c0.4,0.3,0.8,0.5,1.3,0.4c0.7,0,1.4-0.3,1.9-0.8c0.5-0.6,0.8-1.3,0.7-2V58.2z M408.7,63.1h-1.5v-1.6h0c-0.7,1.2-1.9,1.9-3.3,1.9
		c-1.1,0-2.2-0.4-2.9-1.3c-0.8-1-1.2-2.2-1.1-3.5c-0.1-1.4,0.4-2.7,1.2-3.8c0.8-1,2-1.5,3.2-1.4c1.2-0.1,2.3,0.5,2.9,1.6h0v-5.9h1.5
		V63.1z M407.1,58.7v-1.4c0-0.7-0.3-1.4-0.8-2c-0.5-0.5-1.2-0.8-1.9-0.8c-0.9,0-1.7,0.3-2.2,1c-0.6,0.8-0.9,1.8-0.8,2.8
		c-0.1,0.9,0.2,1.9,0.8,2.6c0.5,0.6,1.3,1,2.1,1c0.8,0,1.6-0.3,2.1-0.9C406.9,60.4,407.2,59.6,407.1,58.7z M415.8,63.3
		c-1.3,0.1-2.5-0.4-3.4-1.3c-0.9-1-1.3-2.3-1.3-3.6c-0.1-1.4,0.4-2.7,1.3-3.8c0.9-0.9,2.2-1.4,3.6-1.4c1.3-0.1,2.5,0.4,3.4,1.3
		c0.9,1,1.3,2.3,1.2,3.7c0.1,1.3-0.4,2.7-1.3,3.7C418.4,62.8,417.1,63.3,415.8,63.3z M415.9,54.5c-0.9,0-1.8,0.3-2.3,1
		c-0.6,0.8-0.9,1.8-0.9,2.8c-0.1,1,0.3,1.9,0.9,2.7c0.6,0.7,1.4,1,2.3,1c0.9,0.1,1.7-0.3,2.3-1c0.6-0.8,0.9-1.8,0.8-2.7
		c0.1-1-0.2-2-0.8-2.8C417.6,54.8,416.8,54.5,415.9,54.5z M428,55c-0.3-0.2-0.7-0.3-1.2-0.3c-0.7,0-1.3,0.4-1.6,0.9
		c-0.5,0.8-0.7,1.6-0.7,2.5v4.9H423v-9.6h1.5v2h0c0.2-0.6,0.5-1.2,1-1.6c0.4-0.4,1-0.6,1.5-0.6c0.3,0,0.6,0,0.9,0.1L428,55z"/>
	<path id="Trazado_160505" class="st4" d="M203.3,71.5h-1.8V57.6c-0.2,0.2-0.4,0.3-0.6,0.5c-0.3,0.2-0.6,0.4-0.9,0.5
		c-0.3,0.2-0.7,0.3-1.1,0.5c-0.4,0.2-0.7,0.3-1.1,0.4v-1.9c0.4-0.1,0.9-0.3,1.3-0.5c0.5-0.2,0.9-0.4,1.3-0.6s0.9-0.5,1.2-0.7
		c0.4-0.2,0.7-0.5,1-0.8h0.7L203.3,71.5z"/>
	<path id="Trazado_160507" class="st4" d="M554.8,59.6c0-0.4-0.1-0.9-0.2-1.3c-0.1-0.3-0.4-0.7-0.6-0.9c-0.3-0.2-0.6-0.4-0.9-0.5
		c-0.4-0.1-0.8-0.2-1.2-0.2c-0.4,0-0.7,0-1.1,0.1c-0.3,0.1-0.7,0.2-1,0.4c-0.3,0.2-0.6,0.4-0.9,0.6c-0.3,0.2-0.6,0.5-0.8,0.8v-2
		c0.5-0.5,1.1-0.9,1.7-1.2c0.7-0.3,1.5-0.4,2.3-0.4c0.6,0,1.2,0.1,1.8,0.3c0.5,0.2,1,0.5,1.5,0.8c0.4,0.4,0.8,0.8,1,1.4
		c0.2,0.6,0.4,1.2,0.4,1.9c0,0.6-0.1,1.2-0.2,1.7c-0.1,0.5-0.4,1-0.7,1.5c-0.3,0.5-0.7,0.9-1.1,1.3c-0.5,0.5-1,0.9-1.6,1.3
		c-0.8,0.5-1.4,1-1.9,1.4c-0.4,0.3-0.8,0.7-1.2,1.1c-0.3,0.3-0.5,0.6-0.6,1c-0.1,0.4-0.2,0.8-0.2,1.2h8v1.6h-9.9v-0.8
		c0-0.6,0.1-1.2,0.2-1.8c0.2-0.5,0.4-1,0.7-1.5c0.4-0.5,0.8-1,1.4-1.4c0.6-0.5,1.2-1,2-1.6c0.5-0.4,1-0.8,1.5-1.2
		c0.4-0.3,0.7-0.7,0.9-1.1c0.2-0.4,0.4-0.8,0.5-1.2C554.8,60.5,554.8,60,554.8,59.6z"/>
	<path id="Trazado_160506" class="st4" d="M388.1,150.9c0,0.7-0.1,1.4-0.4,2c-0.3,0.6-0.7,1.1-1.2,1.5c-0.5,0.4-1.1,0.8-1.8,1
		c-0.7,0.2-1.5,0.4-2.3,0.3c-1.3,0.1-2.6-0.2-3.7-0.9v-2c1.1,0.8,2.4,1.3,3.7,1.3c0.5,0,1-0.1,1.5-0.2c0.4-0.1,0.8-0.3,1.2-0.6
		c0.3-0.3,0.6-0.6,0.8-1c0.2-0.4,0.3-0.8,0.3-1.3c0-2.1-1.5-3.2-4.5-3.2h-1.3v-1.6h1.3c2.7,0,4-1,4-3c0-1.8-1-2.7-3-2.7
		c-1.2,0-2.3,0.4-3.2,1.1V140c1.1-0.6,2.4-1,3.7-0.9c0.6,0,1.2,0.1,1.8,0.3c0.5,0.2,1,0.4,1.4,0.8c0.4,0.3,0.7,0.7,0.9,1.2
		c0.2,0.5,0.3,1,0.3,1.6c0.1,2-1.3,3.7-3.2,4.1v0c0.5,0.1,1,0.2,1.5,0.4c0.4,0.2,0.9,0.5,1.2,0.8c0.3,0.3,0.6,0.7,0.8,1.2
		C388,149.9,388.1,150.4,388.1,150.9z"/>
	<path id="Trazado_160504" class="st4" d="M243.9,273.2v10.6h2.1v1.7h-2.1v3.8H242v-3.8h-7.6v-1.6c0.7-0.8,1.4-1.6,2.1-2.5
		c0.7-0.9,1.4-1.8,2.1-2.7c0.7-0.9,1.3-1.9,1.8-2.8c0.5-0.9,1-1.7,1.4-2.7H243.9z M236.6,283.8h5.5v-7.9c-0.6,1-1.1,1.9-1.6,2.6
		c-0.5,0.8-1,1.5-1.4,2.1s-0.9,1.2-1.3,1.7S236.9,283.3,236.6,283.8z"/>
	<path id="Rectángulo_37157" class="st5" d="M316.5,243.2h122.2c4.1,0,7.5,3.3,7.5,7.5v58.3c0,4.1-3.3,7.5-7.5,7.5H316.5
		c-4.1,0-7.5-3.3-7.5-7.5v-58.3C309.1,246.5,312.4,243.2,316.5,243.2z"/>
	<g id="Grupo-2">
		<path id="Trazado_160511" class="st4" d="M369.7,261.1l-5,13.4H363l-4.9-13.4h1.8l3.7,10.7c0.1,0.4,0.2,0.8,0.3,1.2h0
			c0.1-0.4,0.2-0.8,0.3-1.2l3.8-10.6L369.7,261.1z"/>
		<path id="Trazado_160510" class="st4" d="M370.7,262.5c-0.3,0-0.5-0.1-0.7-0.3c-0.2-0.2-0.3-0.4-0.3-0.7c0-0.3,0.1-0.5,0.3-0.7
			c0.2-0.2,0.4-0.3,0.7-0.3c0.3,0,0.5,0.1,0.7,0.3c0.2,0.2,0.3,0.4,0.3,0.7c0,0.3-0.1,0.5-0.3,0.7
			C371.2,262.4,371,262.5,370.7,262.5z M371.4,274.5h-1.5v-9.6h1.5V274.5z M374,274.2v-1.7c0.8,0.6,1.8,0.9,2.8,0.9
			c1.3,0,2-0.4,2-1.3c0-0.2-0.1-0.5-0.2-0.7c-0.1-0.2-0.3-0.3-0.5-0.5c-0.2-0.1-0.4-0.3-0.7-0.4c-0.3-0.1-0.6-0.2-0.9-0.3
			c-0.4-0.1-0.8-0.3-1.1-0.5c-0.3-0.2-0.6-0.3-0.8-0.6c-0.2-0.2-0.4-0.5-0.5-0.7c-0.1-0.3-0.2-0.6-0.2-1c0-0.4,0.1-0.8,0.3-1.2
			c0.2-0.3,0.5-0.6,0.8-0.9c0.4-0.2,0.8-0.4,1.2-0.5c0.4-0.1,0.9-0.2,1.4-0.2c0.8,0,1.5,0.1,2.2,0.4v1.6c-0.7-0.5-1.6-0.7-2.4-0.7
			c-0.3,0-0.5,0-0.8,0.1c-0.2,0.1-0.4,0.1-0.6,0.3c-0.2,0.1-0.3,0.3-0.4,0.4c-0.1,0.2-0.1,0.4-0.1,0.5c0,0.2,0,0.4,0.1,0.6
			c0.1,0.2,0.2,0.3,0.4,0.4c0.2,0.1,0.4,0.3,0.6,0.4c0.2,0.1,0.5,0.2,0.9,0.3c0.4,0.1,0.8,0.3,1.1,0.5c0.3,0.2,0.6,0.3,0.9,0.6
			c0.2,0.2,0.4,0.5,0.5,0.7c0.1,0.3,0.2,0.7,0.2,1c0,0.4-0.1,0.9-0.3,1.2c-0.2,0.4-0.5,0.6-0.8,0.9c-0.4,0.2-0.8,0.4-1.2,0.5
			c-0.5,0.1-1,0.2-1.4,0.2C375.6,274.8,374.8,274.6,374,274.2z M387.1,274.4c-0.4,0.2-0.9,0.3-1.4,0.3c-1.7,0-2.5-0.9-2.5-2.8v-5.7
			h-1.7v-1.3h1.6v-2.3l1.5-0.5v2.8h2.4v1.3h-2.4v5.4c0,0.5,0.1,1,0.3,1.4c0.3,0.3,0.7,0.5,1.1,0.4c0.4,0,0.7-0.1,1-0.3L387.1,274.4z
			 M396.1,274.5h-1.5V273h0c-0.6,1.1-1.7,1.8-3,1.7c-0.8,0-1.6-0.2-2.2-0.8c-0.5-0.5-0.8-1.3-0.8-2c0-1.8,1.1-2.8,3.2-3.1l2.9-0.4
			c0-1.6-0.7-2.4-2-2.4c-1.2,0-2.3,0.4-3.1,1.2v-1.6c1-0.6,2.1-0.9,3.3-0.9c2.3,0,3.4,1.2,3.4,3.6V274.5z M394.5,269.7l-2.3,0.3
			c-0.6,0.1-1.1,0.2-1.6,0.5c-0.4,0.3-0.6,0.8-0.5,1.3c0,0.4,0.2,0.9,0.5,1.1c0.4,0.3,0.8,0.5,1.3,0.4c0.7,0,1.4-0.3,1.9-0.8
			c0.5-0.6,0.8-1.3,0.7-2V269.7z"/>
		<path id="Trazado_160509" class="st4" d="M363.6,300.6h-1.4c-2-2.3-3-5.2-2.9-8.2c-0.1-3,1-6,2.9-8.3h1.4c-1.9,2.3-3,5.3-2.9,8.3
			C360.6,295.4,361.7,298.3,363.6,300.6z"/>
		<path id="Trazado_160508" class="st4" d="M369,292.7c0.1,1.3-0.3,2.6-1,3.7c-0.6,0.9-1.6,1.4-2.7,1.3c-0.4,0-0.9-0.1-1.3-0.2V296
			c0.4,0.3,0.8,0.4,1.3,0.4c1.4,0,2.1-1.2,2.1-3.6v-8.6h1.6V292.7z M371.8,297v-1.9c0.2,0.2,0.5,0.4,0.8,0.5
			c0.3,0.2,0.6,0.3,0.9,0.4c0.3,0.1,0.7,0.2,1,0.2c0.3,0.1,0.6,0.1,0.9,0.1c0.8,0.1,1.5-0.1,2.2-0.5c0.5-0.4,0.8-0.9,0.7-1.6
			c0-0.3-0.1-0.7-0.2-0.9c-0.2-0.3-0.4-0.5-0.7-0.7c-0.3-0.2-0.6-0.5-1-0.6c-0.4-0.2-0.8-0.4-1.2-0.6c-0.5-0.2-0.9-0.5-1.3-0.7
			c-0.4-0.2-0.7-0.5-1.1-0.8c-0.3-0.3-0.5-0.6-0.7-1c-0.2-0.4-0.3-0.9-0.3-1.3c0-0.6,0.1-1.1,0.4-1.6c0.3-0.4,0.6-0.8,1.1-1.1
			c0.5-0.3,1-0.5,1.5-0.7c0.6-0.1,1.1-0.2,1.7-0.2c1-0.1,2,0.1,2.9,0.5v1.8c-0.9-0.6-2-0.9-3.1-0.8c-0.3,0-0.7,0-1,0.1
			c-0.3,0.1-0.6,0.2-0.9,0.4c-0.3,0.2-0.5,0.4-0.7,0.6c-0.2,0.3-0.3,0.6-0.3,0.9c0,0.3,0.1,0.6,0.2,0.9c0.1,0.3,0.3,0.5,0.6,0.7
			c0.3,0.2,0.6,0.4,0.9,0.6c0.4,0.2,0.8,0.4,1.2,0.6c0.5,0.2,0.9,0.5,1.4,0.8c0.4,0.2,0.8,0.5,1.1,0.9c0.3,0.3,0.6,0.7,0.8,1.1
			c0.2,0.4,0.3,0.9,0.3,1.3c0,0.6-0.1,1.2-0.4,1.7c-0.3,0.5-0.6,0.8-1.1,1.1c-0.5,0.3-1,0.5-1.5,0.6c-0.6,0.1-1.2,0.2-1.8,0.2
			c-0.3,0-0.5,0-0.8-0.1c-0.3,0-0.6-0.1-1-0.1c-0.3-0.1-0.6-0.1-0.9-0.2C372.2,297.2,372,297.1,371.8,297z M384.2,292.5v5.1h-1.6
			v-13.4h3.7c1.2-0.1,2.4,0.3,3.3,1c0.8,0.8,1.3,1.8,1.2,3c0,1.2-0.4,2.3-1.3,3.1c-1,0.9-2.3,1.3-3.6,1.2L384.2,292.5z M384.2,285.5
			v5.5h1.6c0.9,0.1,1.8-0.2,2.5-0.7c0.6-0.5,0.9-1.3,0.9-2.1c0-1.8-1-2.7-3.1-2.7L384.2,285.5z M393.2,300.6h-1.4
			c1.9-2.3,3-5.2,2.9-8.2c0-3-1-6-2.9-8.3h1.4c2,2.3,3,5.3,2.9,8.3C396.2,295.4,395.1,298.3,393.2,300.6L393.2,300.6z"/>
	</g>
	<path id="Rectángulo_37158" class="st6" d="M682,31.7H815c4.1,0,7.5,3.3,7.5,7.5v166.9c0,4.1-3.3,7.5-7.5,7.5H682
		c-4.1,0-7.5-3.3-7.5-7.5V39.2C674.5,35.1,677.8,31.7,682,31.7z"/>
	<g id="Grupo-3">
		<path id="Trazado_160522" class="st7" d="M731.7,163.8h-1.6v-9c0-0.7,0-1.6,0.1-2.6h0c-0.1,0.4-0.2,0.9-0.4,1.3l-4.6,10.3h-0.8
			l-4.6-10.3c-0.2-0.4-0.3-0.9-0.4-1.4h0c0.1,0.5,0.1,1.4,0.1,2.6v9H718v-13.4h2.1l4.1,9.4c0.2,0.5,0.5,1.1,0.6,1.6h0.1
			c0.3-0.7,0.5-1.3,0.6-1.6l4.2-9.3h2V163.8z"/>
		<path id="Trazado_160521" class="st7" d="M737.3,164c-1.3,0.1-2.5-0.4-3.4-1.3c-0.9-1-1.3-2.3-1.3-3.6c-0.1-1.4,0.4-2.7,1.3-3.8
			c0.9-0.9,2.2-1.4,3.6-1.4c1.3-0.1,2.5,0.4,3.4,1.3c0.9,1,1.3,2.3,1.2,3.7c0.1,1.3-0.4,2.7-1.3,3.7
			C739.9,163.6,738.6,164.1,737.3,164z M737.5,155.2c-0.9,0-1.8,0.3-2.3,1c-0.6,0.8-0.9,1.8-0.9,2.8c-0.1,1,0.3,1.9,0.9,2.7
			c0.6,0.7,1.4,1,2.3,1c0.9,0.1,1.7-0.3,2.3-1c0.6-0.8,0.9-1.8,0.8-2.7c0.1-1-0.2-2-0.8-2.8C739.2,155.6,738.3,155.2,737.5,155.2z
			 M752.8,163.8h-1.5v-1.6h0c-0.7,1.2-1.9,1.9-3.3,1.9c-1.1,0-2.2-0.4-2.9-1.3c-0.8-1-1.2-2.2-1.1-3.5c-0.1-1.4,0.4-2.7,1.2-3.8
			c0.8-1,2-1.5,3.2-1.4c1.2-0.1,2.3,0.5,2.9,1.6h0v-5.9h1.5L752.8,163.8z M751.2,159.4V158c0-0.7-0.3-1.4-0.8-2
			c-0.5-0.5-1.2-0.8-1.9-0.8c-0.9,0-1.7,0.3-2.2,1c-0.6,0.8-0.9,1.8-0.8,2.8c-0.1,0.9,0.2,1.9,0.8,2.6c0.5,0.6,1.3,1,2.1,1
			c0.8,0,1.6-0.3,2.1-0.9C751,161.1,751.3,160.3,751.2,159.4z M763.6,159.4h-6.8c0,0.9,0.3,1.8,0.9,2.5c0.6,0.6,1.4,0.9,2.3,0.9
			c1.1,0,2.1-0.4,3-1.1v1.4c-1,0.7-2.2,1-3.3,0.9c-1.2,0.1-2.4-0.4-3.2-1.3c-0.8-1-1.2-2.4-1.2-3.7c-0.1-1.3,0.4-2.6,1.3-3.6
			c0.8-0.9,1.9-1.4,3.2-1.4c1.1-0.1,2.2,0.4,2.9,1.2c0.7,1,1.1,2.2,1,3.4L763.6,159.4z M762,158.1c0-0.7-0.2-1.5-0.6-2.1
			c-0.4-0.5-1.1-0.8-1.8-0.7c-0.7,0-1.4,0.3-1.8,0.8c-0.5,0.6-0.9,1.3-0.9,2L762,158.1z M767.5,163.8h-1.5v-14.2h1.5V163.8z
			 M774.6,164c-1.3,0.1-2.5-0.4-3.4-1.3c-0.9-1-1.3-2.3-1.3-3.6c-0.1-1.4,0.4-2.7,1.3-3.8c0.9-0.9,2.2-1.4,3.6-1.4
			c1.3-0.1,2.5,0.4,3.3,1.3c0.9,1,1.3,2.3,1.2,3.7c0.1,1.3-0.4,2.7-1.3,3.7C777.1,163.6,775.9,164.1,774.6,164z M774.7,155.2
			c-0.9,0-1.8,0.3-2.3,1c-0.6,0.8-0.9,1.8-0.9,2.8c-0.1,1,0.3,1.9,0.9,2.7c0.6,0.7,1.4,1,2.3,1c0.9,0.1,1.7-0.3,2.3-1
			c0.6-0.8,0.9-1.8,0.8-2.7c0.1-1-0.2-2-0.8-2.8C776.4,155.6,775.6,155.2,774.7,155.2L774.7,155.2z"/>
		<path id="Trazado_160523" class="st7" d="M724,189.9h-1.4c-2-2.3-3-5.2-2.9-8.2c-0.1-3,1-6,2.9-8.3h1.4c-1.9,2.3-3,5.3-2.9,8.3
			C721.1,184.7,722.1,187.6,724,189.9z M726,186.8v-13.4h3.8c1-0.1,2,0.2,2.8,0.9c0.7,0.5,1,1.4,1,2.2c0,0.7-0.2,1.4-0.6,2
			c-0.4,0.6-1,1-1.7,1.2v0c0.8,0.1,1.6,0.4,2.2,1c0.6,0.6,0.9,1.4,0.8,2.3c0,1.1-0.4,2.1-1.2,2.8c-0.9,0.7-2,1.1-3.1,1.1H726z
			 M727.6,174.8v4.3h1.6c0.7,0,1.5-0.2,2-0.6c0.5-0.4,0.8-1.1,0.7-1.8c0-1.3-0.9-2-2.6-2L727.6,174.8z M727.6,180.5v4.8h2.1
			c0.8,0,1.5-0.2,2.2-0.7c0.5-0.5,0.8-1.1,0.8-1.8c0-1.6-1.1-2.4-3.2-2.4L727.6,180.5z M737,186.8v-13.4h3.8c1-0.1,2,0.2,2.8,0.9
			c0.7,0.5,1,1.4,1,2.2c0,0.7-0.2,1.4-0.6,2c-0.4,0.6-1,1-1.7,1.2v0c0.8,0.1,1.6,0.4,2.2,1c0.6,0.6,0.9,1.4,0.8,2.3
			c0,1.1-0.4,2.1-1.2,2.8c-0.9,0.7-2,1.1-3.1,1.1H737z M738.6,174.8v4.3h1.6c0.7,0,1.5-0.2,2-0.6c0.5-0.4,0.8-1.1,0.7-1.8
			c0-1.3-0.9-2-2.6-2L738.6,174.8z M738.6,180.5v4.8h2.1c0.8,0,1.5-0.2,2.2-0.7c0.5-0.5,0.8-1.1,0.8-1.8c0-1.6-1.1-2.4-3.2-2.4
			L738.6,180.5z M748,186.8v-13.4h3.7c4.7,0,7.1,2.2,7.1,6.6c0.1,1.9-0.6,3.7-2,5c-1.4,1.3-3.3,2-5.3,1.9H748z M749.6,174.8v10.6h2
			c1.5,0.1,3-0.4,4.1-1.4c1-1.1,1.6-2.5,1.5-4c0-3.4-1.8-5.2-5.5-5.2H749.6z"/>
		<path id="Trazado_160524" class="st7" d="M759.3,186.8v-13.4h3.7c4.7,0,7.1,2.2,7.1,6.6c0.1,1.9-0.6,3.7-2,5
			c-1.4,1.3-3.3,2-5.3,1.9H759.3z M760.8,174.8v10.6h2c1.5,0.1,3-0.4,4.1-1.4c1-1.1,1.6-2.5,1.5-4c0-3.4-1.8-5.2-5.5-5.2H760.8z"/>
		<path id="Trazado_160525" class="st7" d="M771.7,189.9h-1.4c1.9-2.3,3-5.2,2.9-8.2c0-3-1-6-2.9-8.3h1.4c2,2.3,3,5.3,2.9,8.3
			C774.7,184.7,773.7,187.6,771.7,189.9z"/>
	</g>
	<g id="Grupo_87023">
		<g id="Grupo_87022">
			<g id="Grupo_87021">
				<g id="Grupo_87018">
					<path id="Trazado_158225" class="st8" d="M713.1,131c0,3.6,14.8,6.6,33,6.6c18.2,0,33-3,33-6.6v-23.2h-66V131z"/>
					<path id="Trazado_158226" class="st9" d="M746.1,101.2c-18.2,0-33,2.9-33,6.6s14.8,6.6,33,6.6c18.2,0,33-2.9,33-6.6
						S764.4,101.2,746.1,101.2z"/>
				</g>
				<g id="Grupo_87019">
					<path id="Trazado_158227" class="st8" d="M713.1,102.5c0,3.6,14.8,6.6,33,6.6c18.2,0,33-2.9,33-6.6V79.3h-66V102.5z"/>
					<path id="Trazado_158228" class="st9" d="M746.1,72.7c-18.2,0-33,3-33,6.6s14.8,6.6,33,6.6c18.2,0,33-2.9,33-6.6
						S764.4,72.7,746.1,72.7z"/>
				</g>
				<g id="Grupo_87020">
					<path id="Trazado_158229" class="st8" d="M713.1,74c0,3.6,14.8,6.6,33,6.6c18.2,0,33-2.9,33-6.6V50.8h-66V74z"/>
					<path id="Trazado_158230" class="st10" d="M746.1,44.2c-18.2,0-33,3-33,6.6s14.8,6.6,33,6.6c18.2,0,33-3,33-6.6
						S764.4,44.2,746.1,44.2z"/>
				</g>
			</g>
			<path id="Trazado_158231" class="st11" d="M713.1,50.8V74c0,0.9,1,1.8,2.8,2.6c-1.8,0.8-2.8,1.7-2.8,2.6v23.2
				c0,0.9,1,1.8,2.8,2.6c-1.8,0.8-2.8,1.7-2.8,2.6v23.2c0,3.6,14.8,6.6,33,6.6V44.2C727.9,44.2,713.1,47.2,713.1,50.8z"/>
		</g>
		<path id="Trazado_158232" class="st12" d="M772.1,56c-1.5,0-2.7,1.3-2.6,2.8V74c-0.1,1.5,1,2.7,2.5,2.8c1.5,0.1,2.7-1,2.8-2.5
			c0-0.1,0-0.2,0-0.3V58.8C774.8,57.3,773.6,56,772.1,56z"/>
		<path id="Trazado_158233" class="st12" d="M772.1,84.8c-1.5,0-2.7,1.3-2.6,2.8v15.2c-0.1,1.5,1,2.7,2.5,2.8c1.5,0.1,2.7-1,2.8-2.5
			c0-0.1,0-0.2,0-0.3V87.6C774.8,86.1,773.6,84.9,772.1,84.8z"/>
		<path id="Trazado_158234" class="st12" d="M772.1,113.3c-1.5,0-2.7,1.3-2.6,2.8v15.2c-0.1,1.5,1,2.7,2.5,2.8
			c1.5,0.1,2.7-1,2.8-2.5c0-0.1,0-0.2,0-0.3v-15.2C774.8,114.6,773.6,113.4,772.1,113.3z"/>
	</g>
	<g>
		<path d="M36.3,165.6L36.3,165.6c-0.4,1.5-1,2.6-1.9,3.4s-2,1.2-3.5,1.2c-1.4,0-2.6-0.6-3.4-1.8s-1.1-2.6-0.8-4.3l0.5-2.5
			c0.4-1.9,1.1-3.3,2.1-4.4s2.3-1.6,3.8-1.6c1.4,0,2.5,0.4,3.3,1.3s1.1,2,1,3.5l0,0h-1.8c0.1-1-0.1-1.8-0.6-2.4s-1.1-0.9-2.1-0.9
			c-0.9,0-1.7,0.4-2.4,1.3s-1.2,1.9-1.4,3.2l-0.5,2.6c-0.3,1.4-0.2,2.5,0.3,3.3c0.5,0.9,1.2,1.3,2.2,1.3c0.9,0,1.6-0.2,2.1-0.7
			c0.5-0.5,0.9-1.3,1.3-2.3H36.3z"/>
		<path d="M39.6,170h-1.9l3-15.2h1.9L39.6,170z"/>
		<path d="M44.5,170h-1.9l2.1-10.6h1.9L44.5,170z M47.1,156.7h-1.9l0.4-2h1.9L47.1,156.7z"/>
		<path d="M51.5,170.2c-1.3,0-2.3-0.5-3-1.5s-0.9-2.3-0.6-3.8l0.1-0.4c0.2-1.6,0.9-2.8,1.9-3.8s2.1-1.5,3.2-1.5
			c1.3,0,2.2,0.4,2.8,1.3s0.7,2,0.5,3.4l-0.2,1.2h-6.4c-0.1,1.1,0,1.9,0.3,2.6c0.3,0.6,0.9,1,1.8,1c0.6,0,1.1-0.1,1.6-0.3
			c0.5-0.2,0.9-0.4,1.3-0.8l0.5,1.3c-0.4,0.4-0.9,0.7-1.5,0.9C53.1,170,52.3,170.2,51.5,170.2z M52.7,160.7c-0.5,0-1.1,0.3-1.6,0.8
			s-0.9,1.2-1.1,2l0,0.1h4.3l0-0.3c0.1-0.8,0-1.4-0.2-1.9S53.5,160.7,52.7,160.7z"/>
		<path d="M60.9,160.9c0.4-0.5,0.9-0.9,1.5-1.2s1.1-0.4,1.8-0.4c1,0,1.7,0.3,2.2,1s0.6,1.7,0.3,3.1l-1.3,6.7h-1.9l1.3-6.6
			c0.2-1,0.2-1.7-0.1-2s-0.7-0.5-1.4-0.5c-0.5,0-0.9,0.1-1.4,0.4s-0.8,0.6-1.2,1.1l-1.5,7.7h-1.9l2.1-10.6H61L60.9,160.9z"/>
		<path d="M73.1,156.8l-0.5,2.5h1.8l-0.3,1.4h-1.8l-1.3,6.4c-0.1,0.5-0.1,0.9,0,1.1s0.4,0.3,0.7,0.3c0.1,0,0.3,0,0.5,0
			s0.4-0.1,0.5-0.1l0,1.3c-0.2,0.1-0.5,0.2-0.8,0.3s-0.7,0.1-1,0.1c-0.7,0-1.2-0.2-1.6-0.7s-0.5-1.2-0.2-2.2l1.3-6.4h-1.5l0.3-1.4
			h1.5l0.5-2.5H73.1z"/>
		<path d="M78.9,170.2c-1.3,0-2.3-0.5-3-1.5s-0.9-2.3-0.6-3.8l0.1-0.4c0.2-1.6,0.9-2.8,1.9-3.8s2.1-1.5,3.2-1.5
			c1.3,0,2.2,0.4,2.8,1.3s0.7,2,0.5,3.4l-0.2,1.2H77c-0.1,1.1,0,1.9,0.3,2.6c0.3,0.6,0.9,1,1.8,1c0.6,0,1.1-0.1,1.6-0.3
			c0.5-0.2,0.9-0.4,1.3-0.8l0.5,1.3c-0.4,0.4-0.9,0.7-1.5,0.9C80.4,170,79.7,170.2,78.9,170.2z M80.1,160.7c-0.5,0-1.1,0.3-1.6,0.8
			s-0.9,1.2-1.1,2l0,0.1h4.3l0-0.3c0.1-0.8,0-1.4-0.2-1.9S80.8,160.7,80.1,160.7z"/>
	</g>
	<g>
		<path d="M209.7,224.6l-1.2,6.2h-1.9l2.8-14.2h4.8c1.4,0,2.4,0.4,3,1.1s0.9,1.7,0.6,3c-0.2,0.8-0.5,1.4-0.9,2s-1.1,0.9-1.8,1.2
			c0.6,0.3,1.1,0.7,1.3,1.3s0.3,1.3,0.1,2.1l-0.3,1.3c-0.1,0.5-0.1,0.9-0.1,1.2s0.1,0.6,0.3,0.8l0,0.2h-1.9c-0.2-0.2-0.3-0.5-0.3-1
			s0.1-0.9,0.2-1.3l0.3-1.3c0.2-0.8,0.1-1.4-0.2-1.9s-0.8-0.7-1.5-0.7H209.7z M210,223.1h2.8c0.9,0,1.6-0.2,2.2-0.6s0.9-1,1.1-1.9
			c0.2-0.8,0.1-1.5-0.2-1.9s-0.9-0.6-1.8-0.6H211L210,223.1z"/>
		<path d="M222.9,231c-1.3,0-2.3-0.5-3-1.5s-0.9-2.3-0.6-3.8l0.1-0.4c0.2-1.6,0.9-2.8,1.9-3.8s2.1-1.5,3.2-1.5
			c1.3,0,2.2,0.4,2.8,1.3s0.7,2,0.5,3.4l-0.2,1.2h-6.4c-0.1,1.1,0,1.9,0.3,2.6c0.3,0.6,0.9,1,1.8,1c0.6,0,1.1-0.1,1.6-0.3
			c0.5-0.2,0.9-0.4,1.3-0.8l0.5,1.3c-0.4,0.4-0.9,0.7-1.5,0.9C224.4,230.8,223.7,231,222.9,231z M224.1,221.5
			c-0.5,0-1.1,0.3-1.6,0.8s-0.9,1.2-1.1,2l0,0.1h4.3l0-0.3c0.1-0.8,0-1.4-0.2-1.9S224.8,221.5,224.1,221.5z"/>
		<path d="M234.9,227.9c0.1-0.4,0-0.8-0.3-1.1c-0.2-0.3-0.8-0.5-1.5-0.7c-1.2-0.3-2-0.7-2.5-1.1s-0.7-1.1-0.6-2
			c0.1-0.9,0.6-1.6,1.4-2.2s1.7-0.9,2.8-0.9s2,0.3,2.6,1s0.8,1.4,0.6,2.3l0,0.1h-1.8c0.1-0.5,0-0.9-0.3-1.3s-0.7-0.5-1.3-0.5
			c-0.6,0-1.1,0.2-1.4,0.5s-0.6,0.7-0.6,1.1c-0.1,0.4,0,0.8,0.2,1s0.7,0.4,1.5,0.6c1.2,0.3,2.1,0.7,2.6,1.2c0.5,0.5,0.7,1.1,0.6,2
			c-0.2,1-0.6,1.7-1.4,2.3c-0.8,0.6-1.8,0.8-2.9,0.8c-1.2,0-2.1-0.3-2.8-1s-0.9-1.5-0.7-2.4l0-0.1h1.8c-0.1,0.7,0.1,1.2,0.4,1.5
			c0.4,0.3,0.9,0.5,1.4,0.5c0.6,0,1.1-0.1,1.5-0.4S234.8,228.4,234.9,227.9z"/>
		<path d="M247.8,226.1c-0.3,1.6-0.9,2.8-1.6,3.7s-1.8,1.2-3,1.2c-0.6,0-1.1-0.1-1.5-0.3s-0.8-0.5-1.1-0.9l-1,5.1h-1.9l2.9-14.6h1.6
			l-0.1,1c0.4-0.4,0.8-0.7,1.3-0.9s1-0.3,1.6-0.3c1.1,0,2,0.6,2.5,1.7s0.7,2.5,0.3,4.2L247.8,226.1z M246,225.9
			c0.2-1.3,0.2-2.3-0.1-3.1c-0.3-0.8-0.9-1.2-1.8-1.2c-0.4,0-0.8,0.1-1.2,0.4c-0.4,0.3-0.7,0.6-1,1l-1,5.2c0.2,0.4,0.4,0.7,0.8,1
			c0.3,0.2,0.8,0.3,1.3,0.3c0.8,0,1.4-0.3,1.9-0.9c0.5-0.6,0.9-1.4,1.1-2.5L246,225.9z"/>
		<path d="M249.8,225.4c0.3-1.6,0.9-2.9,1.8-3.9s2.1-1.5,3.5-1.5c1.3,0,2.3,0.5,3,1.5s0.9,2.3,0.6,3.9l0,0.2
			c-0.3,1.6-0.9,2.9-1.8,3.9s-2.1,1.5-3.5,1.5c-1.3,0-2.3-0.5-3-1.5s-0.9-2.3-0.6-3.8L249.8,225.4z M251.6,225.6
			c-0.2,1.2-0.1,2.1,0.2,2.8c0.3,0.7,0.9,1.1,1.7,1.1c0.8,0,1.5-0.4,2-1.1c0.6-0.7,0.9-1.7,1.1-2.8l0-0.2c0.2-1.1,0.1-2.1-0.2-2.8
			c-0.3-0.7-0.9-1.1-1.7-1.1c-0.8,0-1.5,0.4-2,1.1s-0.9,1.7-1.1,2.8L251.6,225.6z"/>
		<path d="M263.5,221.6c0.4-0.5,0.9-0.9,1.5-1.2s1.1-0.4,1.8-0.4c1,0,1.7,0.3,2.2,1s0.6,1.7,0.3,3.1l-1.3,6.7H266l1.3-6.6
			c0.2-1,0.2-1.7-0.1-2s-0.7-0.5-1.4-0.5c-0.5,0-0.9,0.1-1.4,0.4s-0.8,0.6-1.2,1.1l-1.5,7.7h-1.9l2.1-10.6h1.7L263.5,221.6z"/>
		<path d="M276.9,227.9c0.1-0.4,0-0.8-0.3-1.1c-0.2-0.3-0.8-0.5-1.5-0.7c-1.2-0.3-2-0.7-2.5-1.1s-0.7-1.1-0.6-2
			c0.1-0.9,0.6-1.6,1.4-2.2s1.7-0.9,2.8-0.9s2,0.3,2.6,1s0.8,1.4,0.6,2.3l0,0.1h-1.8c0.1-0.5,0-0.9-0.3-1.3s-0.7-0.5-1.3-0.5
			c-0.6,0-1.1,0.2-1.4,0.5s-0.6,0.7-0.6,1.1c-0.1,0.4,0,0.8,0.2,1s0.7,0.4,1.5,0.6c1.2,0.3,2.1,0.7,2.6,1.2c0.5,0.5,0.7,1.1,0.6,2
			c-0.2,1-0.6,1.7-1.4,2.3c-0.8,0.6-1.8,0.8-2.9,0.8c-1.2,0-2.1-0.3-2.8-1s-0.9-1.5-0.7-2.4l0-0.1h1.8c-0.1,0.7,0.1,1.2,0.4,1.5
			c0.4,0.3,0.9,0.5,1.4,0.5c0.6,0,1.1-0.1,1.5-0.4S276.8,228.4,276.9,227.9z"/>
		<path d="M284.7,231c-1.3,0-2.3-0.5-3-1.5s-0.9-2.3-0.6-3.8l0.1-0.4c0.2-1.6,0.9-2.8,1.9-3.8s2.1-1.5,3.2-1.5
			c1.3,0,2.2,0.4,2.8,1.3s0.7,2,0.5,3.4l-0.2,1.2h-6.4c-0.1,1.1,0,1.9,0.3,2.6c0.3,0.6,0.9,1,1.8,1c0.6,0,1.1-0.1,1.6-0.3
			c0.5-0.2,0.9-0.4,1.3-0.8l0.5,1.3c-0.4,0.4-0.9,0.7-1.5,0.9C286.2,230.8,285.5,231,284.7,231z M285.9,221.5
			c-0.5,0-1.1,0.3-1.6,0.8s-0.9,1.2-1.1,2l0,0.1h4.3l0-0.3c0.1-0.8,0-1.4-0.2-1.9S286.6,221.5,285.9,221.5z"/>
	</g>
	<g>
		<path d="M152,23.1l-1.2,6.2h-1.9l2.8-14.2h4.8c1.4,0,2.4,0.4,3,1.1s0.9,1.7,0.6,3c-0.2,0.8-0.5,1.4-0.9,2s-1.1,0.9-1.8,1.2
			c0.6,0.3,1.1,0.7,1.3,1.3s0.3,1.3,0.1,2.1l-0.3,1.3c-0.1,0.5-0.1,0.9-0.1,1.2s0.1,0.6,0.3,0.8l0,0.2h-1.9c-0.2-0.2-0.3-0.5-0.3-1
			s0.1-0.9,0.2-1.3l0.3-1.3c0.2-0.8,0.1-1.4-0.2-1.9s-0.8-0.7-1.5-0.7H152z M152.3,21.6h2.8c0.9,0,1.6-0.2,2.2-0.6s0.9-1,1.1-1.9
			c0.2-0.8,0.1-1.5-0.2-1.9s-0.9-0.6-1.8-0.6h-2.9L152.3,21.6z"/>
		<path d="M165.2,29.5c-1.3,0-2.3-0.5-3-1.5s-0.9-2.3-0.6-3.8l0.1-0.4c0.2-1.6,0.9-2.8,1.9-3.8s2.1-1.5,3.2-1.5
			c1.3,0,2.2,0.4,2.8,1.3s0.7,2,0.5,3.4l-0.2,1.2h-6.4c-0.1,1.1,0,1.9,0.3,2.6c0.3,0.6,0.9,1,1.8,1c0.6,0,1.1-0.1,1.6-0.3
			c0.5-0.2,0.9-0.4,1.3-0.8l0.5,1.3c-0.4,0.4-0.9,0.7-1.5,0.9C166.8,29.4,166,29.5,165.2,29.5z M166.4,20c-0.5,0-1.1,0.3-1.6,0.8
			s-0.9,1.2-1.1,2l0,0.1h4.3l0-0.3c0.1-0.8,0-1.4-0.2-1.9S167.2,20,166.4,20z"/>
		<path d="M171.6,24c0.4-1.8,0.9-3.2,1.7-4.1s1.8-1.4,3.1-1.4c0.5,0,1,0.1,1.5,0.3s0.8,0.5,1.1,0.9l0.4-1.1h1.6L178,33.3h-1.9l1-4.8
			c-0.4,0.3-0.8,0.6-1.2,0.7s-0.9,0.2-1.4,0.2c-1.1,0-2-0.5-2.6-1.5s-0.7-2.3-0.4-3.8L171.6,24z M173.4,24.2c-0.2,1.1-0.2,2,0.1,2.7
			c0.3,0.7,0.9,1,1.7,1c0.4,0,0.8-0.1,1.1-0.4c0.3-0.2,0.7-0.6,1-1l1.1-5.4c-0.2-0.4-0.4-0.7-0.8-0.9c-0.3-0.2-0.7-0.3-1.2-0.3
			c-0.8,0-1.4,0.4-1.9,1.1s-0.9,1.7-1.1,2.9L173.4,24.2z"/>
		<path d="M188,29.3l0.2-1.4c-0.4,0.5-0.9,1-1.4,1.2s-1.1,0.4-1.7,0.4c-1,0-1.8-0.4-2.2-1.1s-0.6-1.9-0.3-3.4l1.2-6.2h1.9l-1.2,6.2
			c-0.2,1.2-0.3,2,0,2.4s0.6,0.6,1.3,0.6c0.6,0,1.1-0.1,1.6-0.4s0.9-0.7,1.2-1.2l1.5-7.6h1.9l-2.1,10.6H188z"/>
		<path d="M196.6,29.5c-1.3,0-2.3-0.5-3-1.5s-0.9-2.3-0.6-3.8l0.1-0.4c0.2-1.6,0.9-2.8,1.9-3.8s2.1-1.5,3.2-1.5
			c1.3,0,2.2,0.4,2.8,1.3s0.7,2,0.5,3.4l-0.2,1.2h-6.4c-0.1,1.1,0,1.9,0.3,2.6c0.3,0.6,0.9,1,1.8,1c0.6,0,1.1-0.1,1.6-0.3
			c0.5-0.2,0.9-0.4,1.3-0.8l0.5,1.3c-0.4,0.4-0.9,0.7-1.5,0.9C198.1,29.4,197.4,29.5,196.6,29.5z M197.8,20c-0.5,0-1.1,0.3-1.6,0.8
			s-0.9,1.2-1.1,2l0,0.1h4.3l0-0.3c0.1-0.8,0-1.4-0.2-1.9S198.5,20,197.8,20z"/>
		<path d="M208.6,26.5c0.1-0.4,0-0.8-0.3-1.1c-0.2-0.3-0.8-0.5-1.5-0.7c-1.2-0.3-2-0.7-2.5-1.1s-0.7-1.1-0.6-2
			c0.1-0.9,0.6-1.6,1.4-2.2s1.7-0.9,2.8-0.9s2,0.3,2.6,1s0.8,1.4,0.6,2.3l0,0.1h-1.8c0.1-0.5,0-0.9-0.3-1.3s-0.7-0.5-1.3-0.5
			c-0.6,0-1.1,0.2-1.4,0.5s-0.6,0.7-0.6,1.1c-0.1,0.4,0,0.8,0.2,1s0.7,0.4,1.5,0.6c1.2,0.3,2.1,0.7,2.6,1.2c0.5,0.5,0.7,1.1,0.6,2
			c-0.2,1-0.6,1.7-1.4,2.3c-0.8,0.6-1.8,0.8-2.9,0.8c-1.2,0-2.1-0.3-2.8-1s-0.9-1.5-0.7-2.4l0-0.1h1.8c-0.1,0.7,0.1,1.2,0.4,1.5
			c0.4,0.3,0.9,0.5,1.4,0.5c0.6,0,1.1-0.1,1.5-0.4S208.5,26.9,208.6,26.5z"/>
		<path d="M217.3,16.2l-0.5,2.5h1.8l-0.3,1.4h-1.8l-1.3,6.4c-0.1,0.5-0.1,0.9,0,1.1s0.4,0.3,0.7,0.3c0.1,0,0.3,0,0.5,0
			s0.4-0.1,0.5-0.1l0,1.3c-0.2,0.1-0.5,0.2-0.8,0.3s-0.7,0.1-1,0.1c-0.7,0-1.2-0.2-1.6-0.7s-0.5-1.2-0.2-2.2l1.3-6.4h-1.5l0.3-1.4
			h1.5l0.5-2.5H217.3z"/>
	</g>
	<g>
		<path class="st4" d="M343.7,80.1c0.4-2.7,1.3-4.9,2.5-6.6s2.5-2.9,3.7-3.6l0.1,0L350,71c-0.9,0.7-1.8,1.8-2.7,3.4
			s-1.5,3.4-1.8,5.7l0,0.1c-0.4,2.4-0.4,4.3,0,5.7s0.9,2.6,1.6,3.4l-0.5,1.1l-0.1,0c-1-0.6-1.8-1.8-2.5-3.6S343.2,82.8,343.7,80.1
			L343.7,80.1z"/>
		<path class="st4" d="M357.1,82.6c0.1-0.7,0-1.3-0.3-1.8c-0.4-0.4-1.1-0.9-2.2-1.3c-1.4-0.5-2.3-1-2.9-1.7s-0.7-1.7-0.5-2.9
			c0.2-1.1,0.8-2,1.6-2.6s1.9-0.9,3.2-0.9c1.4,0,2.5,0.4,3.2,1.2s1,1.8,0.7,3.2l0,0h-1.8c0.2-0.9,0-1.6-0.4-2.1s-1.1-0.8-2-0.8
			c-0.6,0-1.2,0.2-1.7,0.6s-0.8,0.8-0.9,1.4c-0.2,0.8-0.1,1.4,0.3,1.8s1.1,0.8,2.3,1.3c1.4,0.5,2.4,1.1,3,1.8s0.7,1.6,0.5,2.9
			c-0.2,1.2-0.8,2.1-1.7,2.6s-2,0.9-3.3,0.9c-1.4,0-2.6-0.4-3.5-1.1s-1.2-1.8-0.9-3.3l0-0.1h1.8c-0.2,1.1,0,1.8,0.6,2.2
			s1.4,0.6,2.3,0.6c0.7,0,1.3-0.2,1.8-0.6S357,83.2,357.1,82.6z"/>
		<path class="st4" d="M364.6,86.1c-1.3,0-2.3-0.5-3-1.5s-0.9-2.3-0.6-3.8l0.1-0.4c0.2-1.6,0.9-2.8,1.9-3.8s2.1-1.5,3.2-1.5
			c1.3,0,2.2,0.4,2.8,1.3s0.7,2,0.5,3.4l-0.2,1.2h-6.4c-0.1,1.1,0,1.9,0.3,2.6c0.3,0.6,0.9,1,1.8,1c0.6,0,1.1-0.1,1.6-0.3
			c0.5-0.2,0.9-0.4,1.3-0.8l0.5,1.3c-0.4,0.4-0.9,0.7-1.5,0.9C366.2,86,365.5,86.1,364.6,86.1z M365.9,76.6c-0.5,0-1.1,0.3-1.6,0.8
			s-0.9,1.2-1.1,2l0,0.1h4.3l0-0.3c0.1-0.8,0-1.4-0.2-1.9S366.6,76.6,365.9,76.6z"/>
		<path class="st4" d="M376.9,77l-1-0.1c-0.4,0-0.8,0.1-1.2,0.4s-0.7,0.6-0.9,1l-1.5,7.5h-1.9l2.1-10.6h1.7l-0.1,1.4
			c0.4-0.5,0.8-0.9,1.2-1.2s1-0.4,1.5-0.4c0.1,0,0.3,0,0.4,0s0.3,0,0.3,0.1L376.9,77z"/>
		<path class="st4" d="M381.2,82.8l0,0.6l0.1,0l0.2-0.6l3.4-7.5h1.9l-5.3,10.6h-1.4l-2-10.6h1.9L381.2,82.8z"/>
		<path class="st4" d="M388.7,85.9h-1.9l3-15.2h1.9L388.7,85.9z"/>
		<path class="st4" d="M395.8,86.1c-1.3,0-2.3-0.5-3-1.5s-0.9-2.3-0.6-3.8l0.1-0.4c0.2-1.6,0.9-2.8,1.9-3.8s2.1-1.5,3.2-1.5
			c1.3,0,2.2,0.4,2.8,1.3s0.7,2,0.5,3.4l-0.2,1.2h-6.4c-0.1,1.1,0,1.9,0.3,2.6c0.3,0.6,0.9,1,1.8,1c0.6,0,1.1-0.1,1.6-0.3
			c0.5-0.2,0.9-0.4,1.3-0.8l0.5,1.3c-0.4,0.4-0.9,0.7-1.5,0.9C397.3,86,396.6,86.1,395.8,86.1z M397,76.6c-0.5,0-1.1,0.3-1.6,0.8
			s-0.9,1.2-1.1,2l0,0.1h4.3l0-0.3c0.1-0.8,0-1.4-0.2-1.9S397.7,76.6,397,76.6z"/>
		<path class="st4" d="M406.6,72.8l-0.5,2.5h1.8l-0.3,1.4h-1.8l-1.3,6.4c-0.1,0.5-0.1,0.9,0,1.1s0.4,0.3,0.7,0.3c0.1,0,0.3,0,0.5,0
			s0.4-0.1,0.5-0.1l0,1.3c-0.2,0.1-0.5,0.2-0.8,0.3s-0.7,0.1-1,0.1c-0.7,0-1.2-0.2-1.6-0.7s-0.5-1.2-0.2-2.2l1.3-6.4h-1.5l0.3-1.4
			h1.5l0.5-2.5H406.6z"/>
		<path class="st4" d="M412.9,80.2c-0.4,2.7-1.3,4.9-2.5,6.6c-1.2,1.7-2.5,2.9-3.6,3.6l-0.1,0l-0.2-1c0.9-0.7,1.8-1.8,2.7-3.4
			s1.5-3.5,1.9-5.7l0-0.1c0.4-2.3,0.4-4.2,0-5.7c-0.4-1.5-0.9-2.6-1.6-3.4l0.5-1.1l0.1,0c1,0.6,1.8,1.8,2.5,3.6
			S413.3,77.6,412.9,80.2L412.9,80.2z"/>
	</g>
</g>
</svg>
