<svg xmlns="http://www.w3.org/2000/svg" xmlns:xlink="http://www.w3.org/1999/xlink" width="539.899" height="230.76" viewBox="0 0 539.899 230.76">
  <defs>
    <clipPath id="clip-path">
      <path id="Trazado_159977" data-name="Trazado 159977" d="M239.41,93.32,192,66a4.31,4.31,0,0,1-1.68-4.46l7.51-34.2c.38-1.71,1.74-2.48,3-1.73l47.4,27.35A4.31,4.31,0,0,1,250,57.39l-7.51,34.2C242.07,93.3,240.71,94.07,239.41,93.32Z" fill="none"/>
    </clipPath>
  </defs>
  <g id="img2" transform="translate(8880.95 10872)">
    <g id="img2-2" data-name="img2" transform="translate(-8961.66 -10893.847)">
      <g id="Capa_1" data-name="Capa 1">
        <rect id="Rectángulo_37341" data-name="Rectángulo 37341" width="259.71" height="154.62" rx="12" transform="translate(80.71 57.61)" fill="#32c4b4"/>
        <rect id="Rectángulo_37342" data-name="Rectángulo 37342" width="210.97" height="154.62" rx="12" transform="translate(409.64 57.61)" fill="#32c4b4"/>
        <rect id="Rectángulo_37343" data-name="Rectángulo 37343" width="134.62" height="190.97" rx="5.83" transform="translate(610.61 67.62) rotate(90)" fill="#36dac9"/>
        <path id="Trazado_159868" data-name="Trazado 159868" d="M79.17,73.61H219.34v116a6.65,6.65,0,0,1-6.65,6.65H85.82a6.65,6.65,0,0,1-6.65-6.65Z" transform="translate(284.18 -14.33) rotate(90)" fill="#1565b2"/>
        <path id="Trazado_159869" data-name="Trazado 159869" d="M208.45,73.61H335.31A6.65,6.65,0,0,1,342,80.26v116H201.8v-116a6.65,6.65,0,0,1,6.65-6.65Z" transform="translate(406.81 -136.96) rotate(90)" fill="#36dac9"/>
        <g id="Grupo">
          <path id="Trazado_160403" data-name="Trazado 160403" d="M8.552-3.349H3.19L1.986,0H.246L5.133-12.8H6.609L11.5,0H9.773ZM3.7-4.729H8.051l-2.18-5.985Zm17.306.079a5.694,5.694,0,0,1-.993,3.5A3.183,3.183,0,0,1,17.323.176,3.488,3.488,0,0,1,14.6-.923V3.656H12.973V-9.51h1.485l.079,1.055a3.35,3.35,0,0,1,2.76-1.23,3.243,3.243,0,0,1,2.711,1.292,5.756,5.756,0,0,1,1,3.595ZM19.38-4.834a4.2,4.2,0,0,0-.686-2.54,2.208,2.208,0,0,0-1.881-.932A2.39,2.39,0,0,0,14.6-7v4.544a2.4,2.4,0,0,0,2.232,1.3,2.2,2.2,0,0,0,1.859-.927A4.587,4.587,0,0,0,19.38-4.834ZM24.838,0H23.212V-13.5h1.626Zm4.368,0H27.58V-9.51h1.626ZM27.448-12.032a.971.971,0,0,1,.242-.668.907.907,0,0,1,.716-.272.922.922,0,0,1,.721.272.96.96,0,0,1,.246.668.929.929,0,0,1-.246.659.938.938,0,0,1-.721.264.924.924,0,0,1-.716-.264A.938.938,0,0,1,27.448-12.032ZM35.622-1.151a2.342,2.342,0,0,0,1.521-.527A1.855,1.855,0,0,0,37.863-3H39.4a2.949,2.949,0,0,1-.562,1.556A3.7,3.7,0,0,1,37.455-.264a3.994,3.994,0,0,1-1.833.439,3.918,3.918,0,0,1-3.089-1.3,5.163,5.163,0,0,1-1.147-3.546v-.272a5.725,5.725,0,0,1,.51-2.47,3.883,3.883,0,0,1,1.463-1.679,4.157,4.157,0,0,1,2.254-.6,3.814,3.814,0,0,1,2.659.958A3.424,3.424,0,0,1,39.4-6.24H37.863a2.241,2.241,0,0,0-.7-1.516,2.174,2.174,0,0,0-1.551-.593,2.276,2.276,0,0,0-1.92.892,4.19,4.19,0,0,0-.681,2.58v.308a4.106,4.106,0,0,0,.677,2.531A2.287,2.287,0,0,0,35.622-1.151ZM47.1,0a3.416,3.416,0,0,1-.229-1A3.628,3.628,0,0,1,44.165.176a3.357,3.357,0,0,1-2.307-.8,2.573,2.573,0,0,1-.9-2.017,2.688,2.688,0,0,1,1.129-2.307,5.325,5.325,0,0,1,3.177-.822h1.582v-.747a1.826,1.826,0,0,0-.51-1.358,2.049,2.049,0,0,0-1.5-.505,2.371,2.371,0,0,0-1.459.439,1.3,1.3,0,0,0-.589,1.063H41.15a2.244,2.244,0,0,1,.505-1.375A3.449,3.449,0,0,1,43.027-9.3a4.613,4.613,0,0,1,1.9-.387,3.759,3.759,0,0,1,2.575.822A2.964,2.964,0,0,1,48.472-6.6v4.377a5.351,5.351,0,0,0,.334,2.083V0ZM44.4-1.239a2.858,2.858,0,0,0,1.45-.4,2.392,2.392,0,0,0,.993-1.028V-4.614H45.571q-2.988,0-2.988,1.749a1.48,1.48,0,0,0,.51,1.2A1.959,1.959,0,0,0,44.4-1.239Zm10.433.088a2.342,2.342,0,0,0,1.521-.527A1.855,1.855,0,0,0,57.076-3h1.538a2.949,2.949,0,0,1-.562,1.556A3.7,3.7,0,0,1,56.667-.264a3.994,3.994,0,0,1-1.833.439,3.918,3.918,0,0,1-3.089-1.3A5.163,5.163,0,0,1,50.6-4.667v-.272a5.725,5.725,0,0,1,.51-2.47,3.883,3.883,0,0,1,1.463-1.679,4.157,4.157,0,0,1,2.254-.6,3.814,3.814,0,0,1,2.659.958A3.424,3.424,0,0,1,58.614-6.24H57.076a2.241,2.241,0,0,0-.7-1.516,2.174,2.174,0,0,0-1.551-.593,2.276,2.276,0,0,0-1.92.892,4.19,4.19,0,0,0-.681,2.58v.308A4.106,4.106,0,0,0,52.9-2.039,2.287,2.287,0,0,0,54.835-1.151ZM62.209,0H60.583V-9.51h1.626ZM60.451-12.032a.971.971,0,0,1,.242-.668.907.907,0,0,1,.716-.272.922.922,0,0,1,.721.272.96.96,0,0,1,.246.668.929.929,0,0,1-.246.659.938.938,0,0,1-.721.264.924.924,0,0,1-.716-.264A.938.938,0,0,1,60.451-12.032ZM64.38-4.843a5.617,5.617,0,0,1,.549-2.514,4.1,4.1,0,0,1,1.529-1.723A4.163,4.163,0,0,1,68.7-9.686a4.01,4.01,0,0,1,3.142,1.345,5.174,5.174,0,0,1,1.2,3.577v.114a5.666,5.666,0,0,1-.532,2.492A4.038,4.038,0,0,1,70.985-.439a4.211,4.211,0,0,1-2.272.615A4,4,0,0,1,65.58-1.169a5.147,5.147,0,0,1-1.2-3.56Zm1.635.193a4.068,4.068,0,0,0,.734,2.54,2.349,2.349,0,0,0,1.964.958,2.335,2.335,0,0,0,1.969-.971,4.449,4.449,0,0,0,.729-2.72,4.061,4.061,0,0,0-.743-2.536A2.361,2.361,0,0,0,68.7-8.35a2.335,2.335,0,0,0-1.942.958A4.416,4.416,0,0,0,66.015-4.649ZM69.434-13.5H71.4l-2.355,2.584-1.31,0Zm7.181,3.99.053,1.2a3.465,3.465,0,0,1,2.848-1.371q3.015,0,3.041,3.4V0H80.93V-6.293a2.189,2.189,0,0,0-.47-1.521,1.884,1.884,0,0,0-1.437-.492,2.347,2.347,0,0,0-1.389.422A2.865,2.865,0,0,0,76.7-6.776V0H75.076V-9.51Z" transform="translate(102.98 153.91)" fill="#fff"/>
          <path id="Trazado_160404" data-name="Trazado 160404" d="M6.847-12.8h1.7v9.062A3.753,3.753,0,0,1,7.44-.861,4.117,4.117,0,0,1,4.5.176,4.232,4.232,0,0,1,1.529-.8,3.523,3.523,0,0,1,.466-3.533H2.153a2.346,2.346,0,0,0,.6,1.714A2.332,2.332,0,0,0,4.5-1.2a2.263,2.263,0,0,0,1.692-.659,2.554,2.554,0,0,0,.655-1.846ZM18.3-3.349H12.942L11.738,0H10l4.887-12.8h1.477L21.257,0H19.525Zm-4.852-1.38H17.8l-2.18-5.985ZM26.271-2.241,29.927-12.8h1.846L27.027,0H25.533L20.8-12.8h1.837ZM39.714-3.349H34.353L33.148,0h-1.74l4.887-12.8h1.477L42.667,0H40.936Zm-4.852-1.38h4.351l-2.18-5.985Z" transform="translate(123.24 175.51)" fill="#fff"/>
        </g>
        <g id="Grupo-2" data-name="Grupo">
          <path id="Trazado_160396" data-name="Trazado 160396" d="M5.256-5.7A7.935,7.935,0,0,1,2.1-7.238a2.93,2.93,0,0,1-.989-2.246,3.1,3.1,0,0,1,1.208-2.5,4.8,4.8,0,0,1,3.142-.989,5.243,5.243,0,0,1,2.351.51,3.866,3.866,0,0,1,1.6,1.406A3.6,3.6,0,0,1,9.976-9.1h-1.7a2.34,2.34,0,0,0-.738-1.83,3,3,0,0,0-2.083-.666,3.074,3.074,0,0,0-1.947.55,1.836,1.836,0,0,0-.7,1.528A1.652,1.652,0,0,0,3.476-8.19,6.509,6.509,0,0,0,5.735-7.2a10.481,10.481,0,0,1,2.5.99A3.788,3.788,0,0,1,9.567-4.948,3.219,3.219,0,0,1,10-3.252,2.99,2.99,0,0,1,8.789-.76,5.171,5.171,0,0,1,5.546.176,6.015,6.015,0,0,1,3.085-.33,4.142,4.142,0,0,1,1.323-1.714a3.378,3.378,0,0,1-.62-2H2.4a2.2,2.2,0,0,0,.857,1.833,3.608,3.608,0,0,0,2.29.672,3.317,3.317,0,0,0,2.048-.545,1.77,1.77,0,0,0,.712-1.485,1.738,1.738,0,0,0-.659-1.455A7.6,7.6,0,0,0,5.256-5.7ZM13.676,0H12.05V-9.51h1.626ZM11.918-12.032a.971.971,0,0,1,.242-.668.907.907,0,0,1,.716-.272.922.922,0,0,1,.721.272.96.96,0,0,1,.246.668.929.929,0,0,1-.246.659.938.938,0,0,1-.721.264.924.924,0,0,1-.716-.264A.938.938,0,0,1,11.918-12.032Zm9.9,9.51a1.2,1.2,0,0,0-.5-1.024,4.78,4.78,0,0,0-1.731-.628,8.186,8.186,0,0,1-1.96-.633,2.788,2.788,0,0,1-1.072-.879A2.1,2.1,0,0,1,16.207-6.9,2.467,2.467,0,0,1,17.2-8.877a3.861,3.861,0,0,1,2.527-.809,3.974,3.974,0,0,1,2.624.835,2.652,2.652,0,0,1,1.006,2.136H21.718a1.468,1.468,0,0,0-.567-1.151,2.124,2.124,0,0,0-1.428-.483,2.223,2.223,0,0,0-1.389.387,1.217,1.217,0,0,0-.5,1.011.986.986,0,0,0,.466.888,5.731,5.731,0,0,0,1.683.571,8.77,8.77,0,0,1,1.973.65,2.878,2.878,0,0,1,1.121.91,2.237,2.237,0,0,1,.365,1.3,2.434,2.434,0,0,1-1.02,2.043,4.277,4.277,0,0,1-2.646.769,4.789,4.789,0,0,1-2.021-.4,3.288,3.288,0,0,1-1.375-1.129,2.722,2.722,0,0,1-.5-1.569h1.626a1.683,1.683,0,0,0,.655,1.3,2.54,2.54,0,0,0,1.613.479,2.622,2.622,0,0,0,1.481-.374A1.148,1.148,0,0,0,21.814-2.522Zm5.95-9.29v2.3H29.54v1.257H27.765v5.9A1.32,1.32,0,0,0,28-1.49a1,1,0,0,0,.809.286,3.937,3.937,0,0,0,.773-.105V0a4.742,4.742,0,0,1-1.248.175,2.025,2.025,0,0,1-1.644-.659,2.832,2.832,0,0,1-.554-1.872v-5.9H24.407V-9.51h1.731v-2.3ZM35.385.176a4.155,4.155,0,0,1-3.146-1.27,4.714,4.714,0,0,1-1.213-3.4v-.3a5.707,5.707,0,0,1,.541-2.527,4.217,4.217,0,0,1,1.512-1.74,3.8,3.8,0,0,1,2.1-.628,3.562,3.562,0,0,1,2.883,1.222,5.289,5.289,0,0,1,1.028,3.5v.677H32.651a3.38,3.38,0,0,0,.822,2.272,2.583,2.583,0,0,0,2,.866A2.832,2.832,0,0,0,36.932-1.5a3.666,3.666,0,0,0,1.046-.932l.993.773A3.993,3.993,0,0,1,35.385.176Zm-.2-8.525a2.169,2.169,0,0,0-1.652.716A3.482,3.482,0,0,0,32.7-5.625h4.764v-.123a3.1,3.1,0,0,0-.668-1.92A2.042,2.042,0,0,0,35.183-8.35ZM42.5-9.51l.044,1.055a3.512,3.512,0,0,1,2.821-1.23,2.719,2.719,0,0,1,2.716,1.529A3.6,3.6,0,0,1,49.32-9.264a3.647,3.647,0,0,1,1.8-.422q3.129,0,3.182,3.313V0H52.673V-6.275A2.184,2.184,0,0,0,52.207-7.8a2.051,2.051,0,0,0-1.564-.505,2.156,2.156,0,0,0-1.5.541,2.193,2.193,0,0,0-.694,1.455V0H46.811V-6.231a1.814,1.814,0,0,0-2.03-2.074,2.175,2.175,0,0,0-2.188,1.362V0H40.966V-9.51ZM62.622,0a3.416,3.416,0,0,1-.229-1A3.628,3.628,0,0,1,59.687.176a3.357,3.357,0,0,1-2.307-.8,2.573,2.573,0,0,1-.9-2.017,2.688,2.688,0,0,1,1.129-2.307,5.325,5.325,0,0,1,3.177-.822h1.582v-.747a1.826,1.826,0,0,0-.51-1.358,2.049,2.049,0,0,0-1.5-.505,2.371,2.371,0,0,0-1.459.439,1.3,1.3,0,0,0-.589,1.063H56.672a2.244,2.244,0,0,1,.505-1.375A3.449,3.449,0,0,1,58.548-9.3a4.613,4.613,0,0,1,1.9-.387,3.759,3.759,0,0,1,2.575.822A2.964,2.964,0,0,1,63.993-6.6v4.377a5.351,5.351,0,0,0,.334,2.083V0Zm-2.7-1.239a2.858,2.858,0,0,0,1.45-.4,2.392,2.392,0,0,0,.993-1.028V-4.614H61.093q-2.988,0-2.988,1.749a1.48,1.48,0,0,0,.51,1.2A1.959,1.959,0,0,0,59.924-1.239ZM80.7-1.679A3.9,3.9,0,0,1,78.886-.286a7.331,7.331,0,0,1-2.711.461A5.258,5.258,0,0,1,73.4-.558a4.889,4.889,0,0,1-1.876-2.087,7.21,7.21,0,0,1-.681-3.138V-6.9a6.73,6.73,0,0,1,1.349-4.482,4.7,4.7,0,0,1,3.792-1.591,4.856,4.856,0,0,1,3.226,1.024,4.461,4.461,0,0,1,1.494,2.9H79.014a2.79,2.79,0,0,0-3.023-2.549A2.987,2.987,0,0,0,73.419-10.4a5.82,5.82,0,0,0-.883,3.453V-5.9a5.454,5.454,0,0,0,.984,3.426A3.191,3.191,0,0,0,76.184-1.2a5.882,5.882,0,0,0,1.661-.21,2.569,2.569,0,0,0,1.178-.71V-4.992H76.061v-1.38H80.7Zm6.5,1.854a4.155,4.155,0,0,1-3.146-1.27,4.714,4.714,0,0,1-1.213-3.4v-.3a5.707,5.707,0,0,1,.541-2.527A4.217,4.217,0,0,1,84.9-9.057,3.8,3.8,0,0,1,87-9.686a3.562,3.562,0,0,1,2.883,1.222,5.289,5.289,0,0,1,1.028,3.5v.677H84.472a3.38,3.38,0,0,0,.822,2.272,2.583,2.583,0,0,0,2,.866A2.832,2.832,0,0,0,88.752-1.5,3.666,3.666,0,0,0,89.8-2.435l.993.773A3.993,3.993,0,0,1,87.205.176ZM87-8.35a2.169,2.169,0,0,0-1.652.716,3.482,3.482,0,0,0-.826,2.008h4.764v-.123a3.1,3.1,0,0,0-.668-1.92A2.042,2.042,0,0,0,87-8.35ZM98.332-2.522a1.2,1.2,0,0,0-.5-1.024A4.78,4.78,0,0,0,96.1-4.175a8.186,8.186,0,0,1-1.96-.633,2.788,2.788,0,0,1-1.072-.879A2.1,2.1,0,0,1,92.725-6.9a2.467,2.467,0,0,1,.989-1.978,3.861,3.861,0,0,1,2.527-.809,3.974,3.974,0,0,1,2.624.835A2.652,2.652,0,0,1,99.87-6.715H98.235a1.468,1.468,0,0,0-.567-1.151A2.124,2.124,0,0,0,96.24-8.35a2.223,2.223,0,0,0-1.389.387,1.217,1.217,0,0,0-.5,1.011.986.986,0,0,0,.466.888,5.731,5.731,0,0,0,1.683.571,8.77,8.77,0,0,1,1.973.65,2.878,2.878,0,0,1,1.121.91,2.237,2.237,0,0,1,.365,1.3,2.434,2.434,0,0,1-1.02,2.043,4.277,4.277,0,0,1-2.646.769,4.789,4.789,0,0,1-2.021-.4A3.288,3.288,0,0,1,92.9-1.358a2.722,2.722,0,0,1-.5-1.569h1.626a1.683,1.683,0,0,0,.655,1.3,2.54,2.54,0,0,0,1.613.479,2.622,2.622,0,0,0,1.481-.374A1.148,1.148,0,0,0,98.332-2.522Z" transform="translate(441.36 123.64)" fill="#12263f"/>
          <path id="Trazado_160397" data-name="Trazado 160397" d="M3.437-11.812v2.3H5.212v1.257H3.437v5.9a1.32,1.32,0,0,0,.237.858,1,1,0,0,0,.809.286,3.937,3.937,0,0,0,.773-.105V0A4.742,4.742,0,0,1,4.008.176,2.025,2.025,0,0,1,2.364-.483a2.832,2.832,0,0,1-.554-1.872v-5.9H.079V-9.51H1.811v-2.3Z" transform="translate(542.21 123.64)" fill="#12263f"/>
          <path id="Trazado_160398" data-name="Trazado 160398" d="M.8-4.843a5.617,5.617,0,0,1,.549-2.514A4.1,4.1,0,0,1,2.878-9.079a4.163,4.163,0,0,1,2.237-.606A4.01,4.01,0,0,1,8.257-8.341a5.174,5.174,0,0,1,1.2,3.577v.114a5.666,5.666,0,0,1-.532,2.492A4.038,4.038,0,0,1,7.4-.439,4.211,4.211,0,0,1,5.133.176,4,4,0,0,1,2-1.169,5.147,5.147,0,0,1,.8-4.729Zm1.635.193a4.068,4.068,0,0,0,.734,2.54,2.349,2.349,0,0,0,1.964.958A2.335,2.335,0,0,0,7.1-2.123a4.449,4.449,0,0,0,.729-2.72,4.061,4.061,0,0,0-.743-2.536A2.361,2.361,0,0,0,5.115-8.35a2.335,2.335,0,0,0-1.942.958A4.416,4.416,0,0,0,2.435-4.649Zm13.658-3.4a4.873,4.873,0,0,0-.8-.062A2.143,2.143,0,0,0,13.122-6.75V0H11.5V-9.51h1.582l.026,1.1a2.532,2.532,0,0,1,2.268-1.274,1.661,1.661,0,0,1,.721.123Zm5.555,3.217a5.571,5.571,0,0,1,1.037-3.52A3.28,3.28,0,0,1,25.4-9.686a3.3,3.3,0,0,1,2.646,1.143V-13.5h1.626V0H28.178L28.1-1.02a3.311,3.311,0,0,1-2.716,1.2,3.248,3.248,0,0,1-2.694-1.354,5.634,5.634,0,0,1-1.042-3.533Zm1.626.185a4.218,4.218,0,0,0,.668,2.531,2.159,2.159,0,0,0,1.846.914,2.372,2.372,0,0,0,2.259-1.389V-6.961A2.39,2.39,0,0,0,25.8-8.306a2.17,2.17,0,0,0-1.863.923A4.644,4.644,0,0,0,23.273-4.649ZM36.141.176a4.155,4.155,0,0,1-3.146-1.27,4.714,4.714,0,0,1-1.213-3.4v-.3a5.707,5.707,0,0,1,.541-2.527,4.217,4.217,0,0,1,1.512-1.74,3.8,3.8,0,0,1,2.1-.628,3.562,3.562,0,0,1,2.883,1.222,5.289,5.289,0,0,1,1.028,3.5v.677H33.407a3.38,3.38,0,0,0,.822,2.272,2.583,2.583,0,0,0,2,.866A2.832,2.832,0,0,0,37.688-1.5a3.666,3.666,0,0,0,1.046-.932l.993.773A3.993,3.993,0,0,1,36.141.176Zm-.2-8.525a2.169,2.169,0,0,0-1.652.716,3.482,3.482,0,0,0-.826,2.008h4.764v-.123a3.1,3.1,0,0,0-.668-1.92A2.042,2.042,0,0,0,35.938-8.35Z" transform="translate(547.91 123.64)" fill="#12263f"/>
          <path id="Trazado_160399" data-name="Trazado 160399" d="M1.485,0V-12.8H5.669a4.856,4.856,0,0,1,3.133.861,3.1,3.1,0,0,1,1.05,2.549A2.6,2.6,0,0,1,9.343-7.8,3.3,3.3,0,0,1,7.954-6.732a2.968,2.968,0,0,1,1.639,1.1,3.166,3.166,0,0,1,.6,1.938A3.423,3.423,0,0,1,9.079-.984,4.616,4.616,0,0,1,5.924,0ZM3.173-5.985V-1.38H5.959a2.683,2.683,0,0,0,1.859-.611A2.145,2.145,0,0,0,8.5-3.674q0-2.312-2.514-2.312Zm0-1.354H5.722a2.672,2.672,0,0,0,1.771-.555A1.86,1.86,0,0,0,8.156-9.4a1.829,1.829,0,0,0-.615-1.537,3.021,3.021,0,0,0-1.872-.48h-2.5ZM18.308,0a3.416,3.416,0,0,1-.229-1A3.628,3.628,0,0,1,15.372.176a3.357,3.357,0,0,1-2.307-.8,2.573,2.573,0,0,1-.9-2.017,2.688,2.688,0,0,1,1.129-2.307,5.325,5.325,0,0,1,3.177-.822h1.582v-.747a1.826,1.826,0,0,0-.51-1.358,2.049,2.049,0,0,0-1.5-.505,2.371,2.371,0,0,0-1.459.439,1.3,1.3,0,0,0-.589,1.063H12.357a2.244,2.244,0,0,1,.505-1.375A3.449,3.449,0,0,1,14.234-9.3a4.613,4.613,0,0,1,1.9-.387,3.759,3.759,0,0,1,2.575.822A2.964,2.964,0,0,1,19.679-6.6v4.377a5.351,5.351,0,0,0,.334,2.083V0Zm-2.7-1.239a2.858,2.858,0,0,0,1.45-.4,2.392,2.392,0,0,0,.993-1.028V-4.614H16.778q-2.988,0-2.988,1.749a1.48,1.48,0,0,0,.51,1.2A1.959,1.959,0,0,0,15.609-1.239ZM27.765-2.522a1.2,1.2,0,0,0-.5-1.024,4.78,4.78,0,0,0-1.731-.628,8.186,8.186,0,0,1-1.96-.633A2.788,2.788,0,0,1,22.5-5.687,2.1,2.1,0,0,1,22.157-6.9a2.467,2.467,0,0,1,.989-1.978,3.861,3.861,0,0,1,2.527-.809,3.974,3.974,0,0,1,2.624.835A2.652,2.652,0,0,1,29.3-6.715H27.668A1.468,1.468,0,0,0,27.1-7.866a2.124,2.124,0,0,0-1.428-.483,2.223,2.223,0,0,0-1.389.387,1.217,1.217,0,0,0-.5,1.011.986.986,0,0,0,.466.888,5.731,5.731,0,0,0,1.683.571,8.77,8.77,0,0,1,1.973.65,2.878,2.878,0,0,1,1.121.91,2.237,2.237,0,0,1,.365,1.3,2.434,2.434,0,0,1-1.02,2.043,4.277,4.277,0,0,1-2.646.769,4.789,4.789,0,0,1-2.021-.4,3.288,3.288,0,0,1-1.375-1.129,2.722,2.722,0,0,1-.5-1.569h1.626a1.683,1.683,0,0,0,.655,1.3,2.54,2.54,0,0,0,1.613.479,2.622,2.622,0,0,0,1.481-.374A1.148,1.148,0,0,0,27.765-2.522Zm7.69,2.7a4.155,4.155,0,0,1-3.146-1.27,4.714,4.714,0,0,1-1.213-3.4v-.3a5.707,5.707,0,0,1,.541-2.527,4.217,4.217,0,0,1,1.512-1.74,3.8,3.8,0,0,1,2.1-.628,3.562,3.562,0,0,1,2.883,1.222,5.289,5.289,0,0,1,1.028,3.5v.677H32.722a3.38,3.38,0,0,0,.822,2.272,2.583,2.583,0,0,0,2,.866A2.832,2.832,0,0,0,37-1.5a3.666,3.666,0,0,0,1.046-.932l.993.773A3.993,3.993,0,0,1,35.455.176Zm-.2-8.525a2.169,2.169,0,0,0-1.652.716,3.482,3.482,0,0,0-.826,2.008h4.764v-.123a3.1,3.1,0,0,0-.668-1.92A2.042,2.042,0,0,0,35.253-8.35ZM46.582-2.522a1.2,1.2,0,0,0-.5-1.024,4.78,4.78,0,0,0-1.731-.628,8.186,8.186,0,0,1-1.96-.633,2.788,2.788,0,0,1-1.072-.879A2.1,2.1,0,0,1,40.975-6.9a2.467,2.467,0,0,1,.989-1.978,3.861,3.861,0,0,1,2.527-.809,3.974,3.974,0,0,1,2.624.835A2.652,2.652,0,0,1,48.12-6.715H46.485a1.468,1.468,0,0,0-.567-1.151A2.124,2.124,0,0,0,44.49-8.35a2.223,2.223,0,0,0-1.389.387,1.217,1.217,0,0,0-.5,1.011.986.986,0,0,0,.466.888,5.731,5.731,0,0,0,1.683.571,8.77,8.77,0,0,1,1.973.65,2.878,2.878,0,0,1,1.121.91,2.237,2.237,0,0,1,.365,1.3,2.434,2.434,0,0,1-1.02,2.043,4.277,4.277,0,0,1-2.646.769,4.789,4.789,0,0,1-2.021-.4,3.288,3.288,0,0,1-1.375-1.129,2.722,2.722,0,0,1-.5-1.569h1.626a1.683,1.683,0,0,0,.655,1.3,2.54,2.54,0,0,0,1.613.479,2.622,2.622,0,0,0,1.481-.374A1.148,1.148,0,0,0,46.582-2.522Zm7.8-2.312a5.571,5.571,0,0,1,1.037-3.52A3.28,3.28,0,0,1,58.14-9.686a3.3,3.3,0,0,1,2.646,1.143V-13.5h1.626V0H60.917l-.079-1.02a3.311,3.311,0,0,1-2.716,1.2,3.248,3.248,0,0,1-2.694-1.354,5.634,5.634,0,0,1-1.042-3.533Zm1.626.185a4.218,4.218,0,0,0,.668,2.531,2.159,2.159,0,0,0,1.846.914,2.372,2.372,0,0,0,2.259-1.389V-6.961a2.39,2.39,0,0,0-2.241-1.345,2.17,2.17,0,0,0-1.863.923A4.644,4.644,0,0,0,56.013-4.649ZM68.88.176a4.155,4.155,0,0,1-3.146-1.27,4.714,4.714,0,0,1-1.213-3.4v-.3a5.707,5.707,0,0,1,.541-2.527,4.217,4.217,0,0,1,1.512-1.74,3.8,3.8,0,0,1,2.1-.628,3.562,3.562,0,0,1,2.883,1.222,5.289,5.289,0,0,1,1.028,3.5v.677H66.146a3.38,3.38,0,0,0,.822,2.272,2.583,2.583,0,0,0,2,.866A2.832,2.832,0,0,0,70.427-1.5a3.666,3.666,0,0,0,1.046-.932l.993.773A3.993,3.993,0,0,1,68.88.176Zm-.2-8.525a2.169,2.169,0,0,0-1.652.716A3.482,3.482,0,0,0,66.2-5.625h4.764v-.123a3.1,3.1,0,0,0-.668-1.92A2.042,2.042,0,0,0,68.678-8.35ZM79.181,0V-12.8h3.612a5.815,5.815,0,0,1,2.953.738,4.993,4.993,0,0,1,1.982,2.1,6.837,6.837,0,0,1,.708,3.129v.817a6.861,6.861,0,0,1-.7,3.173,4.915,4.915,0,0,1-2,2.092A6.185,6.185,0,0,1,82.723,0Zm1.688-11.417V-1.38h1.775A3.863,3.863,0,0,0,85.68-2.594a5.016,5.016,0,0,0,1.085-3.457V-6.8a5.1,5.1,0,0,0-1.024-3.391,3.644,3.644,0,0,0-2.9-1.227ZM96.6,0a3.416,3.416,0,0,1-.229-1A3.628,3.628,0,0,1,93.665.176a3.357,3.357,0,0,1-2.307-.8,2.573,2.573,0,0,1-.9-2.017,2.688,2.688,0,0,1,1.129-2.307,5.325,5.325,0,0,1,3.177-.822h1.582v-.747a1.826,1.826,0,0,0-.51-1.358,2.049,2.049,0,0,0-1.5-.505,2.371,2.371,0,0,0-1.459.439,1.3,1.3,0,0,0-.589,1.063H90.65a2.244,2.244,0,0,1,.505-1.375A3.449,3.449,0,0,1,92.527-9.3a4.613,4.613,0,0,1,1.9-.387A3.759,3.759,0,0,1,97-8.864,2.964,2.964,0,0,1,97.972-6.6v4.377a5.351,5.351,0,0,0,.334,2.083V0ZM93.9-1.239a2.858,2.858,0,0,0,1.45-.4,2.392,2.392,0,0,0,.993-1.028V-4.614H95.071q-2.988,0-2.988,1.749a1.48,1.48,0,0,0,.51,1.2A1.959,1.959,0,0,0,93.9-1.239Z" transform="translate(452.61 145.24)" fill="#12263f"/>
          <path id="Trazado_160400" data-name="Trazado 160400" d="M3.437-11.812v2.3H5.212v1.257H3.437v5.9a1.32,1.32,0,0,0,.237.858,1,1,0,0,0,.809.286,3.937,3.937,0,0,0,.773-.105V0A4.742,4.742,0,0,1,4.008.176,2.025,2.025,0,0,1,2.364-.483a2.832,2.832,0,0,1-.554-1.872v-5.9H.079V-9.51H1.811v-2.3Z" transform="translate(551.9 145.24)" fill="#12263f"/>
          <path id="Trazado_160401" data-name="Trazado 160401" d="M.8-4.843a5.617,5.617,0,0,1,.549-2.514A4.1,4.1,0,0,1,2.878-9.079a4.163,4.163,0,0,1,2.237-.606A4.01,4.01,0,0,1,8.257-8.341a5.174,5.174,0,0,1,1.2,3.577v.114a5.666,5.666,0,0,1-.532,2.492A4.038,4.038,0,0,1,7.4-.439,4.211,4.211,0,0,1,5.133.176,4,4,0,0,1,2-1.169,5.147,5.147,0,0,1,.8-4.729Zm1.635.193a4.068,4.068,0,0,0,.734,2.54,2.349,2.349,0,0,0,1.964.958A2.335,2.335,0,0,0,7.1-2.123a4.449,4.449,0,0,0,.729-2.72,4.061,4.061,0,0,0-.743-2.536A2.361,2.361,0,0,0,5.115-8.35a2.335,2.335,0,0,0-1.942.958A4.416,4.416,0,0,0,2.435-4.649Zm14.6,2.127a1.2,1.2,0,0,0-.5-1.024,4.78,4.78,0,0,0-1.731-.628,8.186,8.186,0,0,1-1.96-.633,2.788,2.788,0,0,1-1.072-.879A2.1,2.1,0,0,1,11.426-6.9a2.467,2.467,0,0,1,.989-1.978,3.861,3.861,0,0,1,2.527-.809,3.974,3.974,0,0,1,2.624.835,2.652,2.652,0,0,1,1.006,2.136H16.937a1.468,1.468,0,0,0-.567-1.151,2.124,2.124,0,0,0-1.428-.483,2.223,2.223,0,0,0-1.389.387,1.217,1.217,0,0,0-.5,1.011.986.986,0,0,0,.466.888,5.731,5.731,0,0,0,1.683.571,8.77,8.77,0,0,1,1.973.65,2.878,2.878,0,0,1,1.121.91,2.237,2.237,0,0,1,.365,1.3A2.434,2.434,0,0,1,17.64-.593a4.277,4.277,0,0,1-2.646.769,4.789,4.789,0,0,1-2.021-.4A3.288,3.288,0,0,1,11.6-1.358a2.722,2.722,0,0,1-.5-1.569h1.626a1.683,1.683,0,0,0,.655,1.3,2.54,2.54,0,0,0,1.613.479,2.622,2.622,0,0,0,1.481-.374A1.148,1.148,0,0,0,17.033-2.522Z" transform="translate(557.61 145.24)" fill="#12263f"/>
          <path id="Trazado_160402" data-name="Trazado 160402" d="M6.179-5.177H3.173V0h-1.7V-12.8H5.713a5.014,5.014,0,0,1,3.327.984A3.542,3.542,0,0,1,10.2-8.947a3.445,3.445,0,0,1-.646,2.083,3.856,3.856,0,0,1-1.8,1.327L10.767-.105V0H8.956ZM3.173-6.557H5.766a2.924,2.924,0,0,0,2-.652,2.2,2.2,0,0,0,.743-1.743A2.32,2.32,0,0,0,7.8-10.774a3,3,0,0,0-2.043-.643H3.173ZM16.26.176a4.155,4.155,0,0,1-3.146-1.27,4.714,4.714,0,0,1-1.213-3.4v-.3a5.707,5.707,0,0,1,.541-2.527,4.217,4.217,0,0,1,1.512-1.74,3.8,3.8,0,0,1,2.1-.628A3.562,3.562,0,0,1,18.94-8.464a5.289,5.289,0,0,1,1.028,3.5v.677H13.526a3.38,3.38,0,0,0,.822,2.272,2.583,2.583,0,0,0,2,.866A2.832,2.832,0,0,0,17.807-1.5a3.666,3.666,0,0,0,1.046-.932l.993.773A3.993,3.993,0,0,1,16.26.176Zm-.2-8.525a2.169,2.169,0,0,0-1.652.716,3.482,3.482,0,0,0-.826,2.008h4.764v-.123a3.1,3.1,0,0,0-.668-1.92A2.042,2.042,0,0,0,16.058-8.35ZM23.616,0H21.99V-13.5h1.626Zm8.473,0a3.416,3.416,0,0,1-.229-1A3.628,3.628,0,0,1,29.153.176a3.357,3.357,0,0,1-2.307-.8,2.573,2.573,0,0,1-.9-2.017,2.688,2.688,0,0,1,1.129-2.307,5.325,5.325,0,0,1,3.177-.822h1.582v-.747a1.826,1.826,0,0,0-.51-1.358,2.049,2.049,0,0,0-1.5-.505,2.371,2.371,0,0,0-1.459.439,1.3,1.3,0,0,0-.589,1.063H26.139a2.244,2.244,0,0,1,.505-1.375A3.449,3.449,0,0,1,28.015-9.3a4.613,4.613,0,0,1,1.9-.387,3.759,3.759,0,0,1,2.575.822A2.964,2.964,0,0,1,33.46-6.6v4.377a5.351,5.351,0,0,0,.334,2.083V0Zm-2.7-1.239a2.858,2.858,0,0,0,1.45-.4,2.392,2.392,0,0,0,.993-1.028V-4.614H30.56q-2.988,0-2.988,1.749a1.48,1.48,0,0,0,.51,1.2A1.959,1.959,0,0,0,29.391-1.239Zm10.433.088a2.342,2.342,0,0,0,1.521-.527A1.855,1.855,0,0,0,42.064-3H43.6a2.949,2.949,0,0,1-.562,1.556A3.7,3.7,0,0,1,41.656-.264a3.994,3.994,0,0,1-1.833.439,3.918,3.918,0,0,1-3.089-1.3,5.163,5.163,0,0,1-1.147-3.546v-.272a5.725,5.725,0,0,1,.51-2.47A3.883,3.883,0,0,1,37.56-9.088a4.157,4.157,0,0,1,2.254-.6,3.814,3.814,0,0,1,2.659.958A3.424,3.424,0,0,1,43.6-6.24H42.064a2.241,2.241,0,0,0-.7-1.516,2.174,2.174,0,0,0-1.551-.593,2.276,2.276,0,0,0-1.92.892,4.19,4.19,0,0,0-.681,2.58v.308a4.106,4.106,0,0,0,.677,2.531A2.287,2.287,0,0,0,39.823-1.151ZM47.2,0H45.571V-9.51H47.2ZM45.439-12.032a.971.971,0,0,1,.242-.668.907.907,0,0,1,.716-.272.922.922,0,0,1,.721.272.96.96,0,0,1,.246.668.929.929,0,0,1-.246.659.938.938,0,0,1-.721.264.924.924,0,0,1-.716-.264A.938.938,0,0,1,45.439-12.032Zm3.929,7.189a5.617,5.617,0,0,1,.549-2.514,4.1,4.1,0,0,1,1.529-1.723,4.163,4.163,0,0,1,2.237-.606,4.01,4.01,0,0,1,3.142,1.345,5.174,5.174,0,0,1,1.2,3.577v.114a5.666,5.666,0,0,1-.532,2.492A4.038,4.038,0,0,1,55.973-.439,4.211,4.211,0,0,1,53.7.176a4,4,0,0,1-3.133-1.345,5.147,5.147,0,0,1-1.2-3.56ZM51-4.649a4.068,4.068,0,0,0,.734,2.54,2.349,2.349,0,0,0,1.964.958,2.335,2.335,0,0,0,1.969-.971,4.449,4.449,0,0,0,.729-2.72,4.061,4.061,0,0,0-.743-2.536,2.361,2.361,0,0,0-1.973-.971,2.335,2.335,0,0,0-1.942.958A4.416,4.416,0,0,0,51-4.649ZM61.6-9.51l.053,1.2A3.465,3.465,0,0,1,64.5-9.686q3.015,0,3.041,3.4V0H65.918V-6.293a2.189,2.189,0,0,0-.47-1.521,1.884,1.884,0,0,0-1.437-.492,2.347,2.347,0,0,0-1.389.422,2.865,2.865,0,0,0-.932,1.107V0H60.064V-9.51ZM75.867,0a3.416,3.416,0,0,1-.229-1A3.628,3.628,0,0,1,72.932.176a3.357,3.357,0,0,1-2.307-.8,2.573,2.573,0,0,1-.9-2.017,2.688,2.688,0,0,1,1.129-2.307,5.325,5.325,0,0,1,3.177-.822h1.582v-.747a1.826,1.826,0,0,0-.51-1.358,2.049,2.049,0,0,0-1.5-.505,2.371,2.371,0,0,0-1.459.439,1.3,1.3,0,0,0-.589,1.063H69.917a2.244,2.244,0,0,1,.505-1.375A3.449,3.449,0,0,1,71.793-9.3a4.613,4.613,0,0,1,1.9-.387,3.759,3.759,0,0,1,2.575.822A2.964,2.964,0,0,1,77.238-6.6v4.377a5.351,5.351,0,0,0,.334,2.083V0Zm-2.7-1.239a2.858,2.858,0,0,0,1.45-.4,2.392,2.392,0,0,0,.993-1.028V-4.614H74.338q-2.988,0-2.988,1.749a1.48,1.48,0,0,0,.51,1.2A1.959,1.959,0,0,0,73.169-1.239ZM81.554,0H79.928V-13.5h1.626Z" transform="translate(473.42 166.84)" fill="#12263f"/>
        </g>
        <path id="Trazado_160405" data-name="Trazado 160405" d="M6.847-12.8h1.7v9.062A3.753,3.753,0,0,1,7.44-.861,4.117,4.117,0,0,1,4.5.176,4.232,4.232,0,0,1,1.529-.8,3.523,3.523,0,0,1,.466-3.533H2.153a2.346,2.346,0,0,0,.6,1.714A2.332,2.332,0,0,0,4.5-1.2a2.263,2.263,0,0,0,1.692-.659,2.554,2.554,0,0,0,.655-1.846ZM11.417,0V-12.8h3.612a5.815,5.815,0,0,1,2.953.738,4.993,4.993,0,0,1,1.982,2.1,6.837,6.837,0,0,1,.708,3.129v.817a6.861,6.861,0,0,1-.7,3.173,4.915,4.915,0,0,1-2,2.092A6.185,6.185,0,0,1,14.959,0ZM13.1-11.417V-1.38H14.88a3.863,3.863,0,0,0,3.037-1.214A5.016,5.016,0,0,0,19-6.051V-6.8a5.1,5.1,0,0,0-1.024-3.391,3.644,3.644,0,0,0-2.9-1.227ZM23.221,0V-12.8H27.4a4.856,4.856,0,0,1,3.133.861,3.1,3.1,0,0,1,1.05,2.549,2.6,2.6,0,0,1-.51,1.586,3.3,3.3,0,0,1-1.389,1.068,2.968,2.968,0,0,1,1.639,1.1,3.166,3.166,0,0,1,.6,1.938A3.423,3.423,0,0,1,30.814-.984,4.616,4.616,0,0,1,27.659,0Zm1.688-5.985V-1.38h2.786a2.683,2.683,0,0,0,1.859-.611,2.145,2.145,0,0,0,.681-1.683q0-2.312-2.514-2.312Zm0-1.354h2.549a2.672,2.672,0,0,0,1.771-.555A1.86,1.86,0,0,0,29.892-9.4a1.829,1.829,0,0,0-.615-1.537,3.021,3.021,0,0,0-1.872-.48h-2.5ZM43.84-4.061a4.708,4.708,0,0,1-1.5,3.133,4.911,4.911,0,0,1-3.353,1.1A4.509,4.509,0,0,1,35.354-1.45,6.542,6.542,0,0,1,33.987-5.8v-1.23a7.291,7.291,0,0,1,.637-3.138,4.76,4.76,0,0,1,1.806-2.079,5.029,5.029,0,0,1,2.707-.725,4.624,4.624,0,0,1,3.27,1.138A4.765,4.765,0,0,1,43.84-8.684h-1.7a3.677,3.677,0,0,0-.954-2.222,2.885,2.885,0,0,0-2.052-.688A3.019,3.019,0,0,0,36.6-10.4a5.492,5.492,0,0,0-.918,3.4v1.24a5.645,5.645,0,0,0,.87,3.316A2.812,2.812,0,0,0,38.988-1.2a3.247,3.247,0,0,0,2.158-.637,3.536,3.536,0,0,0,1-2.219Z" transform="translate(251.36 153.91)" fill="#12263f"/>
        <g id="Grupo_87590" data-name="Grupo 87590">
          <line id="Línea_540" data-name="Línea 540" x2="42.04" transform="translate(349.12 133.87)" fill="none" stroke="#024e73" stroke-miterlimit="10" stroke-width="6"/>
          <path id="Trazado_159870" data-name="Trazado 159870" d="M352.36,144.94l-19.17-11.07,19.17-11.07Z" fill="#024e73"/>
          <path id="Trazado_159871" data-name="Trazado 159871" d="M387.92,144.94l19.17-11.07L387.92,122.8Z" fill="#024e73"/>
        </g>
        <path id="Trazado_160406" data-name="Trazado 160406" d="M8.719-5.915H3.173V-1.38H9.615V0H1.485V-12.8H9.527v1.38H3.173v4.122H8.719Zm2.167,1.081A5.582,5.582,0,0,1,11.914-8.38a3.332,3.332,0,0,1,2.76-1.305,3.33,3.33,0,0,1,2.663,1.134l.07-.958H18.9V3.656H17.275V-.879A3.412,3.412,0,0,1,14.656.176a3.28,3.28,0,0,1-2.747-1.34A5.706,5.706,0,0,1,10.885-4.72Zm1.626.185a4.231,4.231,0,0,0,.69,2.566,2.195,2.195,0,0,0,1.859.932,2.435,2.435,0,0,0,2.215-1.283V-7.093a2.442,2.442,0,0,0-2.2-1.257,2.211,2.211,0,0,0-1.872.936A4.606,4.606,0,0,0,12.511-4.649ZM27.382-.94A3.454,3.454,0,0,1,24.6.176,2.956,2.956,0,0,1,22.28-.708a3.823,3.823,0,0,1-.8-2.615V-9.51H23.1v6.144Q23.1-1.2,24.86-1.2a2.434,2.434,0,0,0,2.479-1.389V-9.51h1.626V0H27.418ZM33.2,0H31.575V-9.51H33.2ZM31.443-12.032a.971.971,0,0,1,.242-.668.907.907,0,0,1,.716-.272.922.922,0,0,1,.721.272.96.96,0,0,1,.246.668.929.929,0,0,1-.246.659.938.938,0,0,1-.721.264.924.924,0,0,1-.716-.264A.938.938,0,0,1,31.443-12.032ZM43.836-4.649a5.694,5.694,0,0,1-.993,3.5A3.183,3.183,0,0,1,40.153.176a3.488,3.488,0,0,1-2.725-1.1V3.656H35.8V-9.51h1.485l.079,1.055a3.35,3.35,0,0,1,2.76-1.23,3.243,3.243,0,0,1,2.711,1.292,5.756,5.756,0,0,1,1,3.595ZM42.21-4.834a4.2,4.2,0,0,0-.686-2.54,2.208,2.208,0,0,0-1.881-.932A2.39,2.39,0,0,0,37.428-7v4.544a2.4,2.4,0,0,0,2.232,1.3,2.2,2.2,0,0,0,1.859-.927A4.587,4.587,0,0,0,42.21-4.834Zm3.261-.009a5.617,5.617,0,0,1,.549-2.514,4.1,4.1,0,0,1,1.529-1.723,4.163,4.163,0,0,1,2.237-.606,4.01,4.01,0,0,1,3.142,1.345,5.174,5.174,0,0,1,1.2,3.577v.114A5.666,5.666,0,0,1,53.6-2.158,4.038,4.038,0,0,1,52.075-.439,4.211,4.211,0,0,1,49.8.176,4,4,0,0,1,46.67-1.169a5.147,5.147,0,0,1-1.2-3.56Zm1.635.193a4.068,4.068,0,0,0,.734,2.54,2.349,2.349,0,0,0,1.964.958,2.335,2.335,0,0,0,1.969-.971,4.449,4.449,0,0,0,.729-2.72,4.061,4.061,0,0,0-.743-2.536,2.361,2.361,0,0,0-1.973-.971,2.335,2.335,0,0,0-1.942.958A4.416,4.416,0,0,0,47.105-4.649Zm13.122-.185a5.571,5.571,0,0,1,1.037-3.52A3.28,3.28,0,0,1,63.98-9.686a3.3,3.3,0,0,1,2.646,1.143V-13.5h1.626V0H66.757l-.079-1.02a3.311,3.311,0,0,1-2.716,1.2,3.248,3.248,0,0,1-2.694-1.354,5.634,5.634,0,0,1-1.042-3.533Zm1.626.185a4.218,4.218,0,0,0,.668,2.531,2.159,2.159,0,0,0,1.846.914,2.372,2.372,0,0,0,2.259-1.389V-6.961a2.39,2.39,0,0,0-2.241-1.345,2.17,2.17,0,0,0-1.863.923A4.644,4.644,0,0,0,61.853-4.649ZM74.72.176a4.155,4.155,0,0,1-3.146-1.27,4.714,4.714,0,0,1-1.213-3.4v-.3A5.707,5.707,0,0,1,70.9-7.317a4.217,4.217,0,0,1,1.512-1.74,3.8,3.8,0,0,1,2.1-.628A3.562,3.562,0,0,1,77.4-8.464a5.289,5.289,0,0,1,1.028,3.5v.677H71.987a3.38,3.38,0,0,0,.822,2.272,2.583,2.583,0,0,0,2,.866A2.832,2.832,0,0,0,76.267-1.5a3.666,3.666,0,0,0,1.046-.932l.993.773A3.993,3.993,0,0,1,74.72.176Zm-.2-8.525a2.169,2.169,0,0,0-1.652.716,3.482,3.482,0,0,0-.826,2.008H76.8v-.123a3.1,3.1,0,0,0-.668-1.92A2.042,2.042,0,0,0,74.518-8.35ZM82.077,0H80.451V-13.5h1.626ZM92.949-1.151a2.342,2.342,0,0,0,1.521-.527A1.855,1.855,0,0,0,95.19-3h1.538a2.949,2.949,0,0,1-.562,1.556A3.7,3.7,0,0,1,94.781-.264a3.994,3.994,0,0,1-1.833.439,3.918,3.918,0,0,1-3.089-1.3,5.163,5.163,0,0,1-1.147-3.546v-.272a5.725,5.725,0,0,1,.51-2.47,3.883,3.883,0,0,1,1.463-1.679,4.157,4.157,0,0,1,2.254-.6,3.814,3.814,0,0,1,2.659.958A3.424,3.424,0,0,1,96.728-6.24H95.19a2.241,2.241,0,0,0-.7-1.516A2.174,2.174,0,0,0,92.94-8.35a2.276,2.276,0,0,0-1.92.892,4.19,4.19,0,0,0-.681,2.58v.308a4.106,4.106,0,0,0,.677,2.531A2.287,2.287,0,0,0,92.949-1.151ZM100.323,0H98.7V-13.5h1.626Zm4.368,0h-1.626V-9.51h1.626Zm-1.758-12.032a.971.971,0,0,1,.242-.668.907.907,0,0,1,.716-.272.922.922,0,0,1,.721.272.96.96,0,0,1,.246.668.929.929,0,0,1-.246.659.938.938,0,0,1-.721.264.924.924,0,0,1-.716-.264A.938.938,0,0,1,102.933-12.032ZM111.239.176a4.155,4.155,0,0,1-3.146-1.27,4.714,4.714,0,0,1-1.213-3.4v-.3a5.707,5.707,0,0,1,.541-2.527,4.217,4.217,0,0,1,1.512-1.74,3.8,3.8,0,0,1,2.1-.628,3.562,3.562,0,0,1,2.883,1.222,5.289,5.289,0,0,1,1.028,3.5v.677h-6.442a3.38,3.38,0,0,0,.822,2.272,2.583,2.583,0,0,0,2,.866,2.832,2.832,0,0,0,1.459-.352,3.666,3.666,0,0,0,1.046-.932l.993.773A3.993,3.993,0,0,1,111.239.176Zm-.2-8.525a2.169,2.169,0,0,0-1.652.716,3.482,3.482,0,0,0-.826,2.008h4.764v-.123a3.1,3.1,0,0,0-.668-1.92A2.042,2.042,0,0,0,111.037-8.35Zm7.33-1.16.053,1.2a3.465,3.465,0,0,1,2.848-1.371q3.015,0,3.041,3.4V0h-1.626V-6.293a2.189,2.189,0,0,0-.47-1.521,1.884,1.884,0,0,0-1.437-.492,2.347,2.347,0,0,0-1.389.422,2.865,2.865,0,0,0-.932,1.107V0h-1.626V-9.51Zm10.6-2.3v2.3h1.775v1.257h-1.775v5.9a1.32,1.32,0,0,0,.237.858,1,1,0,0,0,.809.286,3.937,3.937,0,0,0,.773-.105V0a4.742,4.742,0,0,1-1.248.175,2.025,2.025,0,0,1-1.644-.659,2.832,2.832,0,0,1-.554-1.872v-5.9h-1.731V-9.51h1.731v-2.3ZM136.587.176a4.155,4.155,0,0,1-3.146-1.27,4.714,4.714,0,0,1-1.213-3.4v-.3a5.707,5.707,0,0,1,.541-2.527,4.217,4.217,0,0,1,1.512-1.74,3.8,3.8,0,0,1,2.1-.628,3.562,3.562,0,0,1,2.883,1.222,5.289,5.289,0,0,1,1.028,3.5v.677h-6.442a3.38,3.38,0,0,0,.822,2.272,2.583,2.583,0,0,0,2,.866,2.832,2.832,0,0,0,1.459-.352,3.666,3.666,0,0,0,1.046-.932l.993.773A3.993,3.993,0,0,1,136.587.176Zm-.2-8.525a2.169,2.169,0,0,0-1.652.716,3.482,3.482,0,0,0-.826,2.008h4.764v-.123A3.1,3.1,0,0,0,138-7.668,2.042,2.042,0,0,0,136.384-8.35Z" transform="translate(138.13 248.95)" fill="#12263f"/>
        <g id="Grupo_87600" data-name="Grupo 87600">
          <g id="Grupo_87592" data-name="Grupo 87592">
            <path id="Trazado_159872" data-name="Trazado 159872" d="M200,126.05,149.56,97c-1.43-.82-1.25-2.26.4-3.21l34.32-19.81a6.19,6.19,0,0,1,5.56-.23l50.39,29.1c1.43.82,1.25,2.26-.4,3.21l-34.31,19.81a6.19,6.19,0,0,1-5.52.18Z" fill="#b2d3ea"/>
            <path id="Trazado_159873" data-name="Trazado 159873" d="M252,51.26l-50.4-29.1a2,2,0,0,0-1.71-.21h-.1l-1.82.7,1.64.8v.09l-8.21,37.4a4.74,4.74,0,0,0,1.84,4.88l49.18,28.39-.17,2.09,2-.77a2.84,2.84,0,0,0,1.43-2l8.2-37.37a4.71,4.71,0,0,0-1.88-4.9Z" fill="#173d7a"/>
            <path id="Trazado_159874" data-name="Trazado 159874" d="M252,51.26l-50.4-29.1a2,2,0,0,0-1.71-.21h-.1l-1.82.7,1.64.8v.09L194.2,48.2l24.66,19.21,34.77-14.15a3.93,3.93,0,0,0-1.63-2Z" fill="#1565b2"/>
            <path id="Trazado_159875" data-name="Trazado 159875" d="M250.14,57,254,55.37a4.79,4.79,0,0,0-1.55-3.84l-6.07,2.55Z" fill="#274f89"/>
            <path id="Trazado_159876" data-name="Trazado 159876" d="M240.5,96.1,190.1,67a4.7,4.7,0,0,1-1.83-4.87l8.2-37.37c.41-1.87,1.9-2.72,3.33-1.89L250.19,52A4.72,4.72,0,0,1,252,56.84L243.82,94.2C243.41,96.07,241.92,96.92,240.5,96.1Z" fill="#d4ecff"/>
            <path id="Trazado_159877" data-name="Trazado 159877" d="M239.41,93.32,192,66a4.31,4.31,0,0,1-1.68-4.46l7.51-34.2c.38-1.71,1.74-2.48,3-1.73l47.4,27.35A4.31,4.31,0,0,1,250,57.39l-7.51,34.2C242.07,93.3,240.71,94.07,239.41,93.32Z" fill="#fff"/>
            <path id="Trazado_159878" data-name="Trazado 159878" d="M239.41,93.32,192,66a4.31,4.31,0,0,1-1.68-4.46l7.51-34.2c.38-1.71,1.74-2.48,3-1.73l47.4,27.35A4.31,4.31,0,0,1,250,57.39l-7.51,34.2C242.07,93.3,240.71,94.07,239.41,93.32Z" fill="#fff"/>
            <path id="Trazado_159879" data-name="Trazado 159879" d="M241.19,97.37l-6.88-.91L189.84,70.78a6.19,6.19,0,0,0-5.56.23L152.77,89.2l-4.17-.55V91h0a1.64,1.64,0,0,0,1,1.46l50.4,29.1a6.19,6.19,0,0,0,5.56-.23l34.31-19.81a2.22,2.22,0,0,0,1.36-1.87h0Z" fill="#173d7a"/>
            <path id="Trazado_159880" data-name="Trazado 159880" d="M207.78,81.14l-3.16-1.82H169.89L152.77,89.2l-4.17-.55V91h0a1.64,1.64,0,0,0,1,1.46l50.4,29.1a5.25,5.25,0,0,0,2.87.54Z" fill="#1565b2"/>
            <path id="Trazado_159881" data-name="Trazado 159881" d="M150.45,88.89l-1.85-.24V91h0a1.64,1.64,0,0,0,1,1.46l.89.52Z" fill="#5793ce"/>
            <path id="Trazado_159882" data-name="Trazado 159882" d="M200.46,121.8a6.4,6.4,0,0,0,4.73-.29v-5.27h-4.73Z" fill="#274f89"/>
            <path id="Trazado_159883" data-name="Trazado 159883" d="M200,119.21l-50.4-29.1c-1.43-.82-1.25-2.26.4-3.21l34.32-19.8a6.19,6.19,0,0,1,5.56-.24L240.23,96c1.43.82,1.25,2.26-.4,3.21L205.52,119a6.19,6.19,0,0,1-5.52.21Z" fill="#d4ecff"/>
            <path id="Trazado_159884" data-name="Trazado 159884" d="M239.83,98.31l-34.31,19.8a6.19,6.19,0,0,1-5.56.24l-50.4-29.1a1.9,1.9,0,0,1-.89-1,1.53,1.53,0,0,0,.89,1.83l50.4,29.1a6.19,6.19,0,0,0,5.56-.23l34.31-19.81c1.11-.64,1.55-1.5,1.29-2.24a2.66,2.66,0,0,1-1.29,1.41Z" fill="#fff"/>
            <g id="Grupo_87591" data-name="Grupo 87591">
              <path id="Trazado_159885" data-name="Trazado 159885" d="M171,80.48l-2.28-1.32c-.18-.1-.16-.29.06-.41l2.69-1.55a.78.78,0,0,1,.71,0l2.28,1.31c.18.11.16.29,0,.42l-2.69,1.55a.8.8,0,0,1-.77,0Z" fill="#173d7a"/>
              <path id="Trazado_159886" data-name="Trazado 159886" d="M174.52,82.51l-2.28-1.31c-.19-.11-.16-.29,0-.42L175,79.23a.78.78,0,0,1,.71,0L178,80.52c.19.1.16.29-.05.41l-2.69,1.55a.75.75,0,0,1-.74.03Z" fill="#173d7a"/>
              <path id="Trazado_159887" data-name="Trazado 159887" d="M178,84.55l-2.28-1.32c-.19-.11-.16-.29.05-.41l2.69-1.56a.81.81,0,0,1,.71,0l2.28,1.32c.19.11.16.29-.05.41l-2.69,1.56a.81.81,0,0,1-.71,0Z" fill="#173d7a"/>
              <path id="Trazado_159888" data-name="Trazado 159888" d="M182.91,82.87l-2.28-1.32c-.19-.11-.16-.29.05-.41l2.26-1.31a.81.81,0,0,1,.71,0l2.28,1.32c.18.11.16.29-.05.41l-2.26,1.31a.81.81,0,0,1-.71,0Z" fill="#173d7a"/>
              <path id="Trazado_159889" data-name="Trazado 159889" d="M186.43,84.9l-2.28-1.32c-.19-.1-.16-.29,0-.41l2.26-1.3a.75.75,0,0,1,.71,0l2.28,1.31c.19.11.16.29,0,.42l-2.26,1.3a.78.78,0,0,1-.71,0Z" fill="#173d7a"/>
              <path id="Trazado_159890" data-name="Trazado 159890" d="M190,86.93l-2.28-1.31c-.18-.11-.16-.29.05-.42L190,83.9a.78.78,0,0,1,.71,0L193,85.19c.19.1.16.29-.05.41l-2.26,1.3a.75.75,0,0,1-.69.03Z" fill="#173d7a"/>
              <path id="Trazado_159891" data-name="Trazado 159891" d="M193.47,89l-2.28-1.32c-.18-.11-.16-.29.05-.41l2.26-1.31a.83.83,0,0,1,.72,0l2.28,1.32c.18.11.16.29-.06.41L194.19,89A.83.83,0,0,1,193.47,89Z" fill="#173d7a"/>
              <path id="Trazado_159892" data-name="Trazado 159892" d="M197,91l-2.28-1.32c-.18-.1-.16-.29,0-.41L197,88a.77.77,0,0,1,.72,0L200,89.25c.18.11.16.29-.05.42L197.71,91a.83.83,0,0,1-.71,0Z" fill="#173d7a"/>
              <path id="Trazado_159893" data-name="Trazado 159893" d="M200.51,93l-2.28-1.31c-.18-.11-.16-.29.05-.42l2.26-1.3a.8.8,0,0,1,.72,0l2.28,1.32c.18.1.16.29,0,.41L201.23,93A.8.8,0,0,1,200.51,93Z" fill="#173d7a"/>
              <path id="Trazado_159894" data-name="Trazado 159894" d="M204,95.07l-2.28-1.32c-.18-.11-.16-.29.06-.41L204.07,92a.81.81,0,0,1,.71,0l2.28,1.32c.18.1.16.29-.05.41L204.75,95A.83.83,0,0,1,204,95.07Z" fill="#173d7a"/>
              <path id="Trazado_159895" data-name="Trazado 159895" d="M207.56,97.1l-2.28-1.32c-.19-.1-.16-.29.05-.41l2.26-1.31a.78.78,0,0,1,.71,0l2.28,1.31c.18.11.16.29-.05.41l-2.26,1.31a.81.81,0,0,1-.71.01Z" fill="#173d7a"/>
              <path id="Trazado_159896" data-name="Trazado 159896" d="M211.08,99.13l-2.28-1.32c-.19-.1-.16-.29,0-.41l2.26-1.3a.78.78,0,0,1,.71,0l2.28,1.31c.19.11.16.3,0,.42l-2.26,1.3a.78.78,0,0,1-.71,0Z" fill="#173d7a"/>
              <path id="Trazado_159897" data-name="Trazado 159897" d="M214.6,101.16l-2.28-1.31c-.18-.11-.16-.29.05-.41l2.26-1.31a.81.81,0,0,1,.71,0l2.28,1.32c.19.1.16.29-.05.41l-2.26,1.3a.75.75,0,0,1-.71,0Z" fill="#173d7a"/>
              <path id="Trazado_159898" data-name="Trazado 159898" d="M188.1,81.9l-2.28-1.31c-.19-.11-.17-.29.05-.41l2.26-1.31a.81.81,0,0,1,.71,0l2.28,1.32c.18.1.16.29-.05.41l-2.26,1.3a.75.75,0,0,1-.71,0Z" fill="#1565b2"/>
              <path id="Trazado_159899" data-name="Trazado 159899" d="M184.52,79.84l-2.28-1.32c-.18-.1-.16-.29,0-.41l2.26-1.3a.8.8,0,0,1,.72,0l2.28,1.31c.18.11.16.29-.05.42l-2.26,1.3A.8.8,0,0,1,184.52,79.84Z" fill="#1565b2"/>
              <path id="Trazado_159900" data-name="Trazado 159900" d="M180.94,77.77,176,74.94c-.18-.11-.16-.29.05-.41l2.26-1.31a.83.83,0,0,1,.72,0L184,76c.18.1.16.29-.05.41l-2.26,1.3a.77.77,0,0,1-.75.06Z" fill="#173d7a"/>
              <path id="Trazado_159901" data-name="Trazado 159901" d="M183.44,75.26l-4-2.3c-.18-.11-.16-.29,0-.41l2.26-1.31a.81.81,0,0,1,.71,0l4,2.3c.18.11.16.29-.05.42l-2.26,1.3a.8.8,0,0,1-.66,0Z" fill="#173d7a"/>
              <path id="Trazado_159902" data-name="Trazado 159902" d="M191.62,83.94l-2.28-1.32c-.19-.1-.16-.29,0-.41l2.26-1.31a.81.81,0,0,1,.71,0l2.28,1.32c.18.11.16.29,0,.41l-2.26,1.31a.81.81,0,0,1-.71,0Z" fill="#1565b2"/>
              <path id="Trazado_159903" data-name="Trazado 159903" d="M195.14,86l-2.28-1.32c-.19-.1-.16-.29,0-.41l2.26-1.3a.78.78,0,0,1,.71,0l2.28,1.31c.19.11.16.29,0,.42L195.85,86a.78.78,0,0,1-.71,0Z" fill="#173d7a"/>
              <path id="Trazado_159904" data-name="Trazado 159904" d="M198.66,88l-2.28-1.31c-.18-.11-.16-.29.05-.42l2.26-1.3a.78.78,0,0,1,.71,0l2.28,1.32c.19.1.16.29-.05.41L199.37,88A.75.75,0,0,1,198.66,88Z" fill="#173d7a"/>
              <path id="Trazado_159905" data-name="Trazado 159905" d="M202.18,90l-2.28-1.32c-.18-.11-.16-.29,0-.41L202.21,87a.83.83,0,0,1,.72,0l2.28,1.32c.18.11.16.29-.06.41L202.89,90a.81.81,0,0,1-.71,0Z" fill="#173d7a"/>
              <path id="Trazado_159906" data-name="Trazado 159906" d="M205.7,92.07l-2.28-1.32c-.18-.1-.16-.29.05-.41l2.26-1.3a.77.77,0,0,1,.72,0l2.28,1.31c.18.11.16.29,0,.42L206.42,92a.8.8,0,0,1-.72.07Z" fill="#173d7a"/>
              <path id="Trazado_159907" data-name="Trazado 159907" d="M209.22,94.1l-2.28-1.31c-.18-.11-.16-.29.05-.42l2.26-1.3a.8.8,0,0,1,.72,0l2.28,1.32c.18.1.16.29-.05.41l-2.26,1.3A.77.77,0,0,1,209.22,94.1Z" fill="#173d7a"/>
              <path id="Trazado_159908" data-name="Trazado 159908" d="M212.74,96.14l-2.28-1.32c-.18-.11-.16-.29.06-.41l2.25-1.31a.83.83,0,0,1,.72,0l2.28,1.32c.18.11.16.29-.05.41l-2.26,1.31a.83.83,0,0,1-.72,0Z" fill="#173d7a"/>
              <path id="Trazado_159909" data-name="Trazado 159909" d="M216.27,98.17,214,96.85c-.19-.1-.16-.29,0-.41l2.26-1.3a.75.75,0,0,1,.71,0l2.28,1.31c.18.11.16.29,0,.41L217,98.14A.81.81,0,0,1,216.27,98.17Z" fill="#173d7a"/>
              <path id="Trazado_159910" data-name="Trazado 159910" d="M219.79,100.2l-2.28-1.31c-.19-.11-.16-.3.05-.42l2.26-1.3a.78.78,0,0,1,.71,0l2.28,1.32c.19.1.16.29-.05.41l-2.26,1.3a.78.78,0,0,1-.71,0Z" fill="#173d7a"/>
              <path id="Trazado_159911" data-name="Trazado 159911" d="M226.05,103.82l-5-2.88c-.18-.1-.16-.29.05-.41l2.26-1.3a.77.77,0,0,1,.72,0l5,2.87c.19.11.16.29,0,.41l-2.26,1.31a.81.81,0,0,1-.77,0Z" fill="#173d7a"/>
              <path id="Trazado_159912" data-name="Trazado 159912" d="M232.9,99.86l-4.2-2.43c-.18-.1-.16-.29.05-.41l2.26-1.3a.77.77,0,0,1,.72,0l4.2,2.42c.18.11.16.29-.05.41l-2.26,1.31A.83.83,0,0,1,232.9,99.86Z" fill="#173d7a"/>
              <path id="Trazado_159913" data-name="Trazado 159913" d="M197.78,83.54l-2.28-1.32c-.18-.1-.16-.29.05-.41l2.26-1.3a.77.77,0,0,1,.72,0l2.28,1.31c.18.11.16.29-.05.42l-2.26,1.3a.8.8,0,0,1-.72,0Z" fill="#173d7a"/>
              <path id="Trazado_159914" data-name="Trazado 159914" d="M194.17,81.46l-2.28-1.32c-.18-.11-.16-.29.06-.41l2.25-1.31a.83.83,0,0,1,.72,0l2.28,1.32c.18.11.16.29,0,.41l-2.26,1.31a.83.83,0,0,1-.77,0Z" fill="#173d7a"/>
              <path id="Trazado_159915" data-name="Trazado 159915" d="M190.57,79.37l-2.28-1.31c-.19-.11-.16-.29.05-.42l2.26-1.3a.78.78,0,0,1,.71,0l2.28,1.32c.18.1.16.29-.05.41l-2.26,1.3A.78.78,0,0,1,190.57,79.37Z" fill="#1565b2"/>
              <path id="Trazado_159916" data-name="Trazado 159916" d="M187,77.29,184.68,76c-.19-.1-.16-.29,0-.41l2.26-1.3a.75.75,0,0,1,.71,0L190,75.54c.18.11.16.29,0,.41l-2.26,1.31A.81.81,0,0,1,187,77.29Z" fill="#173d7a"/>
              <path id="Trazado_159917" data-name="Trazado 159917" d="M201.3,85.57,199,84.26c-.18-.11-.16-.29.06-.42l2.25-1.3a.8.8,0,0,1,.72,0l2.28,1.32c.18.1.16.29-.05.41L202,85.54a.77.77,0,0,1-.7.03Z" fill="#173d7a"/>
              <path id="Trazado_159918" data-name="Trazado 159918" d="M204.83,87.61l-2.28-1.32c-.19-.11-.16-.29,0-.41l2.26-1.31a.81.81,0,0,1,.71,0l2.28,1.32c.18.11.16.29,0,.41l-2.26,1.31a.81.81,0,0,1-.71,0Z" fill="#173d7a"/>
              <path id="Trazado_159919" data-name="Trazado 159919" d="M208.35,89.64l-2.28-1.32c-.19-.1-.16-.29.05-.41l2.26-1.3a.75.75,0,0,1,.71,0l2.28,1.31c.19.11.16.29-.05.41l-2.26,1.31a.81.81,0,0,1-.71,0Z" fill="#173d7a"/>
              <path id="Trazado_159920" data-name="Trazado 159920" d="M211.87,91.67l-2.28-1.31c-.18-.11-.16-.29,0-.42l2.26-1.3a.78.78,0,0,1,.71,0l2.28,1.32c.19.1.16.29,0,.41l-2.26,1.3a.78.78,0,0,1-.71,0Z" fill="#173d7a"/>
              <path id="Trazado_159921" data-name="Trazado 159921" d="M215.39,93.7l-2.28-1.31c-.18-.11-.16-.29,0-.41l2.26-1.31a.81.81,0,0,1,.71,0L218.41,92c.19.1.16.29,0,.41l-2.26,1.31a.78.78,0,0,1-.76-.02Z" fill="#173d7a"/>
              <path id="Trazado_159922" data-name="Trazado 159922" d="M218.91,95.74l-2.28-1.32c-.18-.1-.16-.29.05-.41l2.26-1.31a.8.8,0,0,1,.72,0l2.28,1.3c.18.11.16.29-.06.41l-2.25,1.31a.83.83,0,0,1-.72.02Z" fill="#173d7a"/>
              <path id="Trazado_159923" data-name="Trazado 159923" d="M222.43,97.77l-2.28-1.32c-.18-.1-.16-.29,0-.41l2.26-1.3a.8.8,0,0,1,.72,0L225.46,96c.18.11.16.29-.05.42l-2.26,1.3a.8.8,0,0,1-.72.05Z" fill="#173d7a"/>
              <path id="Trazado_159924" data-name="Trazado 159924" d="M226,99.8l-2.28-1.31c-.18-.11-.16-.29.05-.41L226,96.77a.83.83,0,0,1,.72,0L229,98.06c.18.1.16.29,0,.41l-2.26,1.3A.77.77,0,0,1,226,99.8Z" fill="#173d7a"/>
              <path id="Trazado_159925" data-name="Trazado 159925" d="M229.48,101.84l-2.29-1.32c-.18-.11-.16-.29.06-.41l2.26-1.31a.81.81,0,0,1,.71,0l2.28,1.32c.18.11.16.29-.05.41l-2.26,1.31a.81.81,0,0,1-.71,0Z" fill="#173d7a"/>
              <path id="Trazado_159926" data-name="Trazado 159926" d="M195.93,78.51l-2.28-1.32c-.18-.1-.16-.29,0-.41l2.26-1.3a.78.78,0,0,1,.71,0L199,76.76c.19.11.16.3,0,.42l-2.26,1.3A.78.78,0,0,1,195.93,78.51Z" fill="#173d7a"/>
              <path id="Trazado_159927" data-name="Trazado 159927" d="M192.43,76.49l-2.28-1.32c-.19-.1-.17-.29,0-.41l2.26-1.31a.78.78,0,0,1,.71,0l2.28,1.31c.18.11.16.29,0,.41l-2.26,1.31A.81.81,0,0,1,192.43,76.49Z" fill="#173d7a"/>
              <path id="Trazado_159928" data-name="Trazado 159928" d="M188.92,74.47l-2.28-1.32c-.18-.11-.16-.29.05-.41L189,71.43a.83.83,0,0,1,.72,0L192,72.72c.18.1.16.29,0,.41l-2.26,1.31a.83.83,0,0,1-.82.03Z" fill="#173d7a"/>
              <path id="Trazado_159929" data-name="Trazado 159929" d="M185.42,72.44l-2.28-1.31c-.19-.11-.16-.29.05-.42l2.26-1.3a.78.78,0,0,1,.71,0l2.28,1.32c.19.1.16.29-.05.41l-2.26,1.3A.78.78,0,0,1,185.42,72.44Z" fill="#173d7a"/>
              <path id="Trazado_159930" data-name="Trazado 159930" d="M189,70.36l-2.28-1.31c-.18-.11-.16-.29,0-.42l.75-.43a.81.81,0,0,1,.71,0l2.28,1.32c.19.1.16.29-.05.41l-.75.43a.78.78,0,0,1-.66,0Z" fill="#173d7a"/>
              <path id="Trazado_159931" data-name="Trazado 159931" d="M193.59,73l-2.28-1.31c-.18-.11-.16-.29.05-.42l.75-.43a.83.83,0,0,1,.72,0l2.28,1.32c.18.1.16.29-.06.41l-.74.43a.8.8,0,0,1-.72,0Z" fill="#173d7a"/>
              <path id="Trazado_159932" data-name="Trazado 159932" d="M197.08,75l-2.28-1.3c-.18-.11-.16-.29,0-.41l.75-.43a.75.75,0,0,1,.71,0l2.28,1.31c.19.11.16.29-.05.42l-.74.43a.83.83,0,0,1-.67-.02Z" fill="#173d7a"/>
              <path id="Trazado_159933" data-name="Trazado 159933" d="M200.57,77l-2.28-1.32c-.18-.1-.16-.29.05-.41l.75-.43a.81.81,0,0,1,.71,0l2.28,1.32c.19.1.16.29-.05.41l-.74.43A.8.8,0,0,1,200.57,77Z" fill="#173d7a"/>
              <path id="Trazado_159934" data-name="Trazado 159934" d="M204.06,79.05l-2.28-1.32c-.18-.11-.16-.29.05-.41l.75-.43a.75.75,0,0,1,.71,0l2.28,1.31c.19.11.16.29,0,.41l-.75.44a.81.81,0,0,1-.76,0Z" fill="#173d7a"/>
              <path id="Trazado_159935" data-name="Trazado 159935" d="M223.54,90.29,221.26,89c-.18-.11-.16-.29.05-.42l.75-.43a.81.81,0,0,1,.71,0l2.28,1.32c.19.1.16.29-.05.41l-.75.43a.78.78,0,0,1-.71-.02Z" fill="#173d7a"/>
              <path id="Trazado_159936" data-name="Trazado 159936" d="M227,92.31,224.75,91c-.18-.11-.16-.29.05-.41l.75-.43a.75.75,0,0,1,.71,0l2.28,1.31c.19.11.16.29,0,.42l-.75.43a.81.81,0,0,1-.79-.01Z" fill="#173d7a"/>
              <path id="Trazado_159937" data-name="Trazado 159937" d="M230.52,94.32,228.24,93c-.18-.1-.16-.29,0-.41l.75-.43a.81.81,0,0,1,.71,0l2.3,1.29c.18.1.16.29-.05.41l-.75.43a.78.78,0,0,1-.68.03Z" fill="#173d7a"/>
              <path id="Trazado_159938" data-name="Trazado 159938" d="M234,96.34,231.73,95c-.19-.11-.16-.29.05-.41l.75-.43a.75.75,0,0,1,.71,0l2.28,1.31c.18.11.16.29-.05.41l-.75.44A.81.81,0,0,1,234,96.34Z" fill="#173d7a"/>
              <path id="Trazado_159939" data-name="Trazado 159939" d="M199.45,80.54l-2.28-1.31c-.18-.11-.16-.29.05-.41l2.26-1.31a.83.83,0,0,1,.72,0l2.28,1.32c.18.1.16.29-.06.41l-2.26,1.3a.75.75,0,0,1-.71,0Z" fill="#173d7a"/>
              <path id="Trazado_159940" data-name="Trazado 159940" d="M203,82.58l-2.28-1.32c-.18-.11-.16-.29.05-.41L203,79.54a.83.83,0,0,1,.72,0L206,80.83c.18.11.16.29-.05.41l-2.26,1.31A.83.83,0,0,1,203,82.58Z" fill="#173d7a"/>
              <path id="Trazado_159941" data-name="Trazado 159941" d="M206.49,84.61l-2.28-1.32c-.18-.1-.16-.29,0-.41l2.26-1.3a.77.77,0,0,1,.72,0l2.28,1.31c.18.11.16.29-.05.42l-2.26,1.3A.8.8,0,0,1,206.49,84.61Z" fill="#173d7a"/>
              <path id="Trazado_159942" data-name="Trazado 159942" d="M210,86.64l-2.28-1.31c-.18-.11-.16-.29.06-.42l2.25-1.3a.8.8,0,0,1,.72,0L213,84.9c.18.1.16.29,0,.41l-2.26,1.3a.77.77,0,0,1-.74.03Z" fill="#173d7a"/>
              <path id="Trazado_159943" data-name="Trazado 159943" d="M213.54,88.68l-2.28-1.32c-.19-.11-.16-.29.05-.41l2.26-1.31a.81.81,0,0,1,.71,0l2.28,1.32c.18.11.16.29-.05.41l-2.26,1.31a.81.81,0,0,1-.71,0Z" fill="#173d7a"/>
              <path id="Trazado_159944" data-name="Trazado 159944" d="M217.06,90.71l-2.28-1.32c-.19-.1-.16-.29.05-.41l2.26-1.3a.75.75,0,0,1,.71,0L220.08,89c.18.11.16.29-.05.42l-2.26,1.3a.78.78,0,0,1-.71-.01Z" fill="#173d7a"/>
              <path id="Trazado_159945" data-name="Trazado 159945" d="M220.58,92.74l-2.28-1.31c-.18-.11-.16-.29,0-.42l2.26-1.3a.78.78,0,0,1,.71,0L223.6,91c.19.1.16.29,0,.41l-2.26,1.3a.78.78,0,0,1-.76.03Z" fill="#173d7a"/>
              <path id="Trazado_159946" data-name="Trazado 159946" d="M224.1,94.78l-2.28-1.32c-.18-.11-.16-.29.05-.41l2.26-1.31a.81.81,0,0,1,.71,0L227.12,93c.19.1.16.29-.05.41l-2.26,1.31a.81.81,0,0,1-.71.06Z" fill="#173d7a"/>
              <path id="Trazado_159947" data-name="Trazado 159947" d="M227.62,96.81l-2.28-1.32c-.18-.1-.16-.29,0-.41l2.26-1.3a.77.77,0,0,1,.72,0l2.28,1.31c.18.11.16.29-.06.41l-2.25,1.31a.83.83,0,0,1-.67,0Z" fill="#173d7a"/>
              <path id="Trazado_159948" data-name="Trazado 159948" d="M179.32,80.8l-6.72-3.88c-.18-.11-.16-.29.05-.41l2.26-1.31a.83.83,0,0,1,.72,0l6.71,3.88c.19.1.16.29-.05.41L180,80.77a.81.81,0,0,1-.68.03Z" fill="#173d7a"/>
              <path id="Trazado_159949" data-name="Trazado 159949" d="M222.58,105.77l-6.72-3.88c-.18-.1-.16-.29,0-.41l2.26-1.3a.8.8,0,0,1,.72,0L225.6,104c.19.1.16.29,0,.41l-2.26,1.3a.78.78,0,0,1-.76.06Z" fill="#173d7a"/>
              <path id="Trazado_159950" data-name="Trazado 159950" d="M208.5,102.13l-2.28-1.31c-.19-.11-.16-.29.05-.42L209,98.85a.78.78,0,0,1,.71,0l2.28,1.32c.19.1.16.29,0,.41l-2.69,1.55a.78.78,0,0,1-.8,0Z" fill="#173d7a"/>
              <path id="Trazado_159951" data-name="Trazado 159951" d="M182.92,87.37l-3.64-2.11c-.19-.1-.16-.29.05-.41L182,83.3a.75.75,0,0,1,.71,0l3.65,2.1c.18.11.16.29,0,.41l-2.69,1.56a.83.83,0,0,1-.75,0Z" fill="#173d7a"/>
              <path id="Trazado_159952" data-name="Trazado 159952" d="M205.1,100.17l-3.64-2.1c-.19-.11-.16-.29,0-.41l2.69-1.56a.81.81,0,0,1,.71,0l3.65,2.11c.18.1.16.29-.05.41l-2.69,1.55A.77.77,0,0,1,205.1,100.17Z" fill="#173d7a"/>
              <path id="Trazado_159953" data-name="Trazado 159953" d="M188,90.3l-3.65-2.1c-.18-.11-.16-.29,0-.42l2.69-1.55a.8.8,0,0,1,.72,0l3.64,2.11c.19.1.16.29-.05.41l-2.69,1.55A.78.78,0,0,1,188,90.3Z" fill="#173d7a"/>
              <path id="Trazado_159954" data-name="Trazado 159954" d="M187.84,86.21l15.85,9.16a.22.22,0,0,1,0,.41L201,97.36a.75.75,0,0,1-.71,0l-15.86-9.15Z" fill="#173d7a"/>
              <path id="Trazado_159955" data-name="Trazado 159955" d="M218.34,105.82l2.54,1.46c.15.09.13.24,0,.34l-1.11.64a.63.63,0,0,1-.58,0l-2.54-1.46c-.15-.09-.13-.24,0-.34l1.1-.64a.65.65,0,0,1,.59,0Z" fill="#173d7a"/>
              <path id="Trazado_159956" data-name="Trazado 159956" d="M214.79,103.77l2.54,1.46c.15.09.13.24,0,.34l-1.11.64a.63.63,0,0,1-.58,0l-2.54-1.46c-.15-.09-.13-.24,0-.34l1.1-.64a.65.65,0,0,1,.59,0Z" fill="#173d7a"/>
              <path id="Trazado_159957" data-name="Trazado 159957" d="M211.27,101.74l2.54,1.46c.15.09.13.24-.05.34l-1.1.64a.63.63,0,0,1-.58,0l-2.54-1.47c-.15-.08-.13-.23,0-.34l1.1-.63a.65.65,0,0,1,.63,0Z" fill="#173d7a"/>
              <path id="Trazado_159958" data-name="Trazado 159958" d="M216.73,102.65l2.54,1.46c.15.09.13.24,0,.34l-1.1.64a.65.65,0,0,1-.59,0L215,103.64c-.15-.08-.13-.23.05-.33l1.1-.64A.63.63,0,0,1,216.73,102.65Z" fill="#173d7a"/>
            </g>
          </g>
          <g id="Grupo_87599" data-name="Grupo 87599" clip-path="url(#clip-path)">
            <g id="Grupo_87598" data-name="Grupo 87598">
              <path id="Trazado_159959" data-name="Trazado 159959" d="M190.02,63.83l8.8-39.97L250.15,53.8l-9.03,40.59Z" fill="#fff"/>
              <g id="Grupo_87593" data-name="Grupo 87593">
                <path id="Trazado_159960" data-name="Trazado 159960" d="M231.47,74.23,204.75,58.38a2.9,2.9,0,0,1-1-3l.21-.93c.27-1.17,1.14-1.73,1.95-1.26L232.65,69a2.92,2.92,0,0,1,1,3l-.21.94C233.18,74.16,232.29,74.72,231.47,74.23Z" fill="#f1f1f1"/>
                <path id="Trazado_159961" data-name="Trazado 159961" d="M231.47,74.23l-.66-.39a2.92,2.92,0,0,1-1-3l.21-.94c.27-1.18,1.16-1.74,2-1.25l.66.39a2.92,2.92,0,0,1,1,3l-.21.94C233.18,74.16,232.29,74.72,231.47,74.23Z" fill="#e6e6e6"/>
                <path id="Trazado_159962" data-name="Trazado 159962" d="M232.71,72.92,232,71.47a.08.08,0,0,0-.09,0l-.22-.47a1.17,1.17,0,0,0,.06-1.11c-.19-.41-.56-.54-.82-.28a1.11,1.11,0,0,0-.13,1.19c.18.37.5.51.75.34l.22.46a.15.15,0,0,0,0,.13l.67,1.5a.07.07,0,0,0,.12,0l.13-.12A.16.16,0,0,0,232.71,72.92Zm-1.88-2.19a1,1,0,0,1,.12-1.09c.23-.23.57-.12.75.25a1,1,0,0,1-.12,1.1c-.23.23-.58.11-.75-.26Z" fill="#b3b3b3"/>
              </g>
              <g id="Grupo_87597" data-name="Grupo 87597">
                <path id="Trazado_159963" data-name="Trazado 159963" d="M249.45,56.92,198.13,26.93l.69-3.07L250.15,53.8Z" fill="#93b3d8"/>
                <path id="Trazado_159964" data-name="Trazado 159964" d="M211,33.86l-.23-1.5a1.12,1.12,0,0,0-.46-.84L204,27.85a.5.5,0,0,0-.69.17l-.76.9a.5.5,0,0,1-.69.17l-3.7-2.16-.54,2.41,51.3,30,.56-2.45-38-22.22A1.12,1.12,0,0,1,211,33.86Z" fill="#e6e6e6"/>
                <path id="Trazado_159965" data-name="Trazado 159965" d="M218.22,38.11l-6.63-3.88a.33.33,0,0,1-.15-.26l-.18-1.36c0-.25.12-.44.28-.34l6.64,3.87a.34.34,0,0,1,.15.26l.18,1.36C218.54,38,218.38,38.2,218.22,38.11Z" fill="#d3d3d3"/>
                <path id="Trazado_159966" data-name="Trazado 159966" d="M220.93,39.69l-1.7-1a.42.42,0,0,1-.15-.27l-.18-1.35c0-.25.13-.44.29-.35l1.7,1A.35.35,0,0,1,221,38l.18,1.35C221.26,39.59,221.1,39.79,220.93,39.69Z" fill="#d3d3d3"/>
                <g id="Grupo_87594" data-name="Grupo 87594">
                  <path id="Trazado_159967" data-name="Trazado 159967" d="M200.92,27.08c-.07.3-.29.45-.5.33a.74.74,0,0,1-.25-.77c.07-.3.29-.45.5-.32a.74.74,0,0,1,.25.76Z" fill="#e2e2e2"/>
                  <path id="Trazado_159968" data-name="Trazado 159968" d="M202,27.72c-.07.3-.29.45-.5.33a.76.76,0,0,1-.26-.77c.07-.3.29-.45.5-.32a.74.74,0,0,1,.26.76Z" fill="#c4c4c4"/>
                  <path id="Trazado_159969" data-name="Trazado 159969" d="M199.82,26.44c-.06.3-.29.45-.49.33a.74.74,0,0,1-.26-.77c.07-.3.29-.44.5-.32a.72.72,0,0,1,.25.76Z" fill="#fff"/>
                </g>
                <path id="Trazado_159970" data-name="Trazado 159970" d="M246.67,57.52,202.13,31.46a.8.8,0,0,1-.28-.83l.06-.26c.07-.32.32-.48.54-.35l44.55,26a.84.84,0,0,1,.29.85l-.06.26C247.15,57.5,246.9,57.66,246.67,57.52Z" fill="#fff"/>
                <g id="Grupo_87595" data-name="Grupo 87595">
                  <path id="Trazado_159971" data-name="Trazado 159971" d="M199.48,29.79l.27-1.22-.97.12Z" fill="#b3b3b3"/>
                  <path id="Trazado_159972" data-name="Trazado 159972" d="M200.2,30.21l.27-1.22.71,1.1Z" fill="#b3b3b3"/>
                </g>
                <g id="Grupo_87596" data-name="Grupo 87596">
                  <path id="Trazado_159973" data-name="Trazado 159973" d="M248.79,57.75l-1.08-.64a.12.12,0,0,1-.05-.13h0a.062.062,0,0,1,.09-.06l1.08.63a.13.13,0,0,1,0,.14h0C248.87,57.74,248.83,57.77,248.79,57.75Z" fill="#b3b3b3"/>
                  <path id="Trazado_159974" data-name="Trazado 159974" d="M248.7,58.2l-1.1-.65v-.11h0s0-.07.07,0l1.1.64a.1.1,0,0,1,0,.12h0C248.76,58.2,248.73,58.22,248.7,58.2Z" fill="#b3b3b3"/>
                  <path id="Trazado_159975" data-name="Trazado 159975" d="M248.89,57.3l-1.08-.63a.15.15,0,0,1-.05-.14h0a.068.068,0,0,1,.1-.06l1.08.63a.15.15,0,0,1,0,.14h0S248.93,57.32,248.89,57.3Z" fill="#b3b3b3"/>
                  <path id="Trazado_159976" data-name="Trazado 159976" d="M248.6,58.65,247.49,58v-.11h0a.05.05,0,0,1,.08,0l1.1.64a.12.12,0,0,1,0,.12h0A.078.078,0,0,1,248.6,58.65Z" fill="#b3b3b3"/>
                </g>
              </g>
            </g>
          </g>
        </g>
        <g id="Grupo_87606" data-name="Grupo 87606">
          <g id="Grupo_87605" data-name="Grupo 87605">
            <g id="Grupo_87604" data-name="Grupo 87604">
              <g id="Grupo_87601" data-name="Grupo 87601">
                <path id="Trazado_159978" data-name="Trazado 159978" d="M486.07,89.17c0,2.82,11.48,5.11,25.63,5.11s25.63-2.29,25.63-5.11v-18H486.07Z" fill="#35afea"/>
                <path id="Trazado_159979" data-name="Trazado 159979" d="M511.7,66.05c-14.15,0-25.63,2.28-25.63,5.11s11.48,5.12,25.63,5.12,25.63-2.29,25.63-5.12S525.86,66.05,511.7,66.05Z" fill="#02749e"/>
              </g>
              <g id="Grupo_87602" data-name="Grupo 87602">
                <path id="Trazado_159980" data-name="Trazado 159980" d="M486.07,67.07c0,2.83,11.48,5.11,25.63,5.11s25.63-2.28,25.63-5.11v-18H486.07Z" fill="#35afea"/>
                <path id="Trazado_159981" data-name="Trazado 159981" d="M511.7,44c-14.15,0-25.63,2.29-25.63,5.11s11.48,5.12,25.63,5.12,25.63-2.29,25.63-5.12S525.86,44,511.7,44Z" fill="#02749e"/>
              </g>
              <g id="Grupo_87603" data-name="Grupo 87603">
                <path id="Trazado_159982" data-name="Trazado 159982" d="M486.07,45c0,2.83,11.48,5.12,25.63,5.12S537.33,47.8,537.33,45V27H486.07Z" fill="#35afea"/>
                <path id="Trazado_159983" data-name="Trazado 159983" d="M511.7,21.85c-14.15,0-25.63,2.29-25.63,5.12s11.48,5.11,25.63,5.11,25.63-2.29,25.63-5.11S525.86,21.85,511.7,21.85Z" fill="#68c3ef"/>
              </g>
            </g>
            <path id="Trazado_159984" data-name="Trazado 159984" d="M486.07,27V45c0,.73.77,1.42,2.15,2.05-1.38.62-2.15,1.31-2.15,2v18c0,.73.77,1.42,2.15,2.05-1.38.62-2.15,1.31-2.15,2v18c0,2.82,11.48,5.11,25.63,5.11V21.85C497.55,21.85,486.07,24.14,486.07,27Z" fill="#cedbee"/>
          </g>
          <path id="Trazado_159985" data-name="Trazado 159985" d="M531.84,31a2.1,2.1,0,0,0-2,2.16V44.94a2.04,2.04,0,0,0,4.08,0V33.15A2.1,2.1,0,0,0,531.84,31Z" fill="#a2bac3"/>
          <path id="Trazado_159986" data-name="Trazado 159986" d="M531.84,53.35a2.1,2.1,0,0,0-2,2.17V67.31a2.04,2.04,0,1,0,4.08,0V55.52a2.1,2.1,0,0,0-2.08-2.17Z" fill="#a2bac3"/>
          <path id="Trazado_159987" data-name="Trazado 159987" d="M531.84,75.45a2.1,2.1,0,0,0-2,2.17V89.4a2.04,2.04,0,1,0,4.08,0V77.62a2.1,2.1,0,0,0-2.08-2.17Z" fill="#a2bac3"/>
        </g>
      </g>
    </g>
    <path id="Trazado_160438" data-name="Trazado 160438" d="M8.719-5.915H3.173V-1.38H9.615V0H1.485V-12.8H9.527v1.38H3.173v4.122H8.719Zm2.167,1.081A5.582,5.582,0,0,1,11.914-8.38a3.332,3.332,0,0,1,2.76-1.305,3.33,3.33,0,0,1,2.663,1.134l.07-.958H18.9V3.656H17.275V-.879A3.412,3.412,0,0,1,14.656.176a3.28,3.28,0,0,1-2.747-1.34A5.706,5.706,0,0,1,10.885-4.72Zm1.626.185a4.231,4.231,0,0,0,.69,2.566,2.195,2.195,0,0,0,1.859.932,2.435,2.435,0,0,0,2.215-1.283V-7.093a2.442,2.442,0,0,0-2.2-1.257,2.211,2.211,0,0,0-1.872.936A4.606,4.606,0,0,0,12.511-4.649ZM27.382-.94A3.454,3.454,0,0,1,24.6.176,2.956,2.956,0,0,1,22.28-.708a3.823,3.823,0,0,1-.8-2.615V-9.51H23.1v6.144Q23.1-1.2,24.86-1.2a2.434,2.434,0,0,0,2.479-1.389V-9.51h1.626V0H27.418ZM33.2,0H31.575V-9.51H33.2ZM31.443-12.032a.971.971,0,0,1,.242-.668.907.907,0,0,1,.716-.272.922.922,0,0,1,.721.272.96.96,0,0,1,.246.668.929.929,0,0,1-.246.659.938.938,0,0,1-.721.264.924.924,0,0,1-.716-.264A.938.938,0,0,1,31.443-12.032ZM43.836-4.649a5.694,5.694,0,0,1-.993,3.5A3.183,3.183,0,0,1,40.153.176a3.488,3.488,0,0,1-2.725-1.1V3.656H35.8V-9.51h1.485l.079,1.055a3.35,3.35,0,0,1,2.76-1.23,3.243,3.243,0,0,1,2.711,1.292,5.756,5.756,0,0,1,1,3.595ZM42.21-4.834a4.2,4.2,0,0,0-.686-2.54,2.208,2.208,0,0,0-1.881-.932A2.39,2.39,0,0,0,37.428-7v4.544a2.4,2.4,0,0,0,2.232,1.3,2.2,2.2,0,0,0,1.859-.927A4.587,4.587,0,0,0,42.21-4.834Zm3.261-.009a5.617,5.617,0,0,1,.549-2.514,4.1,4.1,0,0,1,1.529-1.723,4.163,4.163,0,0,1,2.237-.606,4.01,4.01,0,0,1,3.142,1.345,5.174,5.174,0,0,1,1.2,3.577v.114A5.666,5.666,0,0,1,53.6-2.158,4.038,4.038,0,0,1,52.075-.439,4.211,4.211,0,0,1,49.8.176,4,4,0,0,1,46.67-1.169a5.147,5.147,0,0,1-1.2-3.56Zm1.635.193a4.068,4.068,0,0,0,.734,2.54,2.349,2.349,0,0,0,1.964.958,2.335,2.335,0,0,0,1.969-.971,4.449,4.449,0,0,0,.729-2.72,4.061,4.061,0,0,0-.743-2.536,2.361,2.361,0,0,0-1.973-.971,2.335,2.335,0,0,0-1.942.958A4.416,4.416,0,0,0,47.105-4.649ZM66.16-2.522a1.2,1.2,0,0,0-.5-1.024,4.78,4.78,0,0,0-1.731-.628,8.186,8.186,0,0,1-1.96-.633A2.788,2.788,0,0,1,60.9-5.687,2.1,2.1,0,0,1,60.552-6.9a2.467,2.467,0,0,1,.989-1.978,3.861,3.861,0,0,1,2.527-.809,3.974,3.974,0,0,1,2.624.835A2.652,2.652,0,0,1,67.7-6.715H66.063A1.468,1.468,0,0,0,65.5-7.866a2.124,2.124,0,0,0-1.428-.483,2.223,2.223,0,0,0-1.389.387,1.217,1.217,0,0,0-.5,1.011.986.986,0,0,0,.466.888,5.731,5.731,0,0,0,1.683.571,8.77,8.77,0,0,1,1.973.65,2.878,2.878,0,0,1,1.121.91,2.237,2.237,0,0,1,.365,1.3,2.434,2.434,0,0,1-1.02,2.043,4.277,4.277,0,0,1-2.646.769,4.789,4.789,0,0,1-2.021-.4,3.288,3.288,0,0,1-1.375-1.129,2.722,2.722,0,0,1-.5-1.569h1.626a1.683,1.683,0,0,0,.655,1.3,2.54,2.54,0,0,0,1.613.479A2.622,2.622,0,0,0,65.6-1.525,1.148,1.148,0,0,0,66.16-2.522Zm7.69,2.7A4.155,4.155,0,0,1,70.7-1.094a4.714,4.714,0,0,1-1.213-3.4v-.3a5.707,5.707,0,0,1,.541-2.527,4.217,4.217,0,0,1,1.512-1.74,3.8,3.8,0,0,1,2.1-.628,3.562,3.562,0,0,1,2.883,1.222,5.289,5.289,0,0,1,1.028,3.5v.677H71.117a3.38,3.38,0,0,0,.822,2.272,2.583,2.583,0,0,0,2,.866A2.832,2.832,0,0,0,75.4-1.5a3.666,3.666,0,0,0,1.046-.932l.993.773A3.993,3.993,0,0,1,73.85.176Zm-.2-8.525A2.169,2.169,0,0,0,72-7.633a3.482,3.482,0,0,0-.826,2.008h4.764v-.123a3.1,3.1,0,0,0-.668-1.92A2.042,2.042,0,0,0,73.648-8.35Zm10.389.3a4.873,4.873,0,0,0-.8-.062A2.143,2.143,0,0,0,81.066-6.75V0H79.44V-9.51h1.582l.026,1.1a2.532,2.532,0,0,1,2.268-1.274,1.661,1.661,0,0,1,.721.123Zm4.79,5.845,2.355-7.3h1.661L89.433,0H88.194L84.749-9.51H86.41ZM96.174,0H94.549V-9.51h1.626ZM94.417-12.032a.971.971,0,0,1,.242-.668.907.907,0,0,1,.716-.272.922.922,0,0,1,.721.272.96.96,0,0,1,.246.668.929.929,0,0,1-.246.659.938.938,0,0,1-.721.264.924.924,0,0,1-.716-.264A.938.938,0,0,1,94.417-12.032Zm3.964,7.2a5.571,5.571,0,0,1,1.037-3.52,3.28,3.28,0,0,1,2.716-1.332,3.3,3.3,0,0,1,2.646,1.143V-13.5H106.4V0h-1.494l-.079-1.02a3.311,3.311,0,0,1-2.716,1.2,3.248,3.248,0,0,1-2.694-1.354,5.634,5.634,0,0,1-1.042-3.533Zm1.626.185a4.218,4.218,0,0,0,.668,2.531,2.159,2.159,0,0,0,1.846.914,2.372,2.372,0,0,0,2.259-1.389V-6.961a2.39,2.39,0,0,0-2.241-1.345,2.17,2.17,0,0,0-1.863.923A4.644,4.644,0,0,0,100.007-4.649Zm8.49-.193a5.617,5.617,0,0,1,.549-2.514,4.1,4.1,0,0,1,1.529-1.723,4.163,4.163,0,0,1,2.237-.606,4.01,4.01,0,0,1,3.142,1.345,5.174,5.174,0,0,1,1.2,3.577v.114a5.666,5.666,0,0,1-.532,2.492A4.038,4.038,0,0,1,115.1-.439a4.211,4.211,0,0,1-2.272.615A4,4,0,0,1,109.7-1.169a5.147,5.147,0,0,1-1.2-3.56Zm1.635.193a4.068,4.068,0,0,0,.734,2.54,2.349,2.349,0,0,0,1.964.958,2.335,2.335,0,0,0,1.969-.971,4.449,4.449,0,0,0,.729-2.72,4.061,4.061,0,0,0-.743-2.536,2.361,2.361,0,0,0-1.973-.971,2.335,2.335,0,0,0-1.942.958A4.416,4.416,0,0,0,110.132-4.649Zm13.658-3.4a4.873,4.873,0,0,0-.8-.062,2.143,2.143,0,0,0-2.171,1.362V0h-1.626V-9.51h1.582l.026,1.1a2.532,2.532,0,0,1,2.268-1.274,1.661,1.661,0,0,1,.721.123Zm5.555,3.217a5.571,5.571,0,0,1,1.037-3.52A3.28,3.28,0,0,1,133.1-9.686a3.3,3.3,0,0,1,2.646,1.143V-13.5h1.626V0h-1.494L135.8-1.02a3.311,3.311,0,0,1-2.716,1.2,3.248,3.248,0,0,1-2.694-1.354,5.634,5.634,0,0,1-1.042-3.533Zm1.626.185a4.218,4.218,0,0,0,.668,2.531,2.159,2.159,0,0,0,1.846.914,2.372,2.372,0,0,0,2.259-1.389V-6.961A2.39,2.39,0,0,0,133.5-8.306a2.17,2.17,0,0,0-1.863.923A4.644,4.644,0,0,0,130.97-4.649ZM143.838.176a4.155,4.155,0,0,1-3.146-1.27,4.714,4.714,0,0,1-1.213-3.4v-.3a5.707,5.707,0,0,1,.541-2.527,4.217,4.217,0,0,1,1.512-1.74,3.8,3.8,0,0,1,2.1-.628,3.562,3.562,0,0,1,2.883,1.222,5.289,5.289,0,0,1,1.028,3.5v.677H141.1a3.38,3.38,0,0,0,.822,2.272,2.583,2.583,0,0,0,2,.866,2.832,2.832,0,0,0,1.459-.352,3.666,3.666,0,0,0,1.046-.932l.993.773A3.993,3.993,0,0,1,143.838.176Zm-.2-8.525a2.169,2.169,0,0,0-1.652.716,3.482,3.482,0,0,0-.826,2.008h4.764v-.123a3.1,3.1,0,0,0-.668-1.92A2.042,2.042,0,0,0,143.635-8.35ZM154.138,0V-12.8h4.184a4.856,4.856,0,0,1,3.133.861,3.1,3.1,0,0,1,1.05,2.549A2.6,2.6,0,0,1,162-7.8a3.3,3.3,0,0,1-1.389,1.068,2.968,2.968,0,0,1,1.639,1.1,3.166,3.166,0,0,1,.6,1.938,3.423,3.423,0,0,1-1.116,2.707A4.616,4.616,0,0,1,158.577,0Zm1.688-5.985V-1.38h2.786a2.683,2.683,0,0,0,1.859-.611,2.145,2.145,0,0,0,.681-1.683q0-2.312-2.514-2.312Zm0-1.354h2.549a2.672,2.672,0,0,0,1.771-.555,1.86,1.86,0,0,0,.664-1.506,1.829,1.829,0,0,0-.615-1.537,3.021,3.021,0,0,0-1.872-.48h-2.5ZM165.344,0V-12.8h3.612a5.815,5.815,0,0,1,2.953.738,4.993,4.993,0,0,1,1.982,2.1,6.837,6.837,0,0,1,.708,3.129v.817a6.861,6.861,0,0,1-.7,3.173,4.915,4.915,0,0,1-2,2.092A6.185,6.185,0,0,1,168.886,0Zm1.688-11.417V-1.38h1.775a3.863,3.863,0,0,0,3.037-1.214,5.016,5.016,0,0,0,1.085-3.457V-6.8a5.1,5.1,0,0,0-1.024-3.391,3.644,3.644,0,0,0-2.9-1.227Z" transform="translate(-8532.53 -10646.24)" fill="#12263f"/>
  </g>
</svg>
