<?xml version="1.0" encoding="utf-8"?>
<!-- Generator: Adobe Illustrator 26.0.1, SVG Export Plug-In . SVG Version: 6.00 Build 0)  -->
<svg version="1.1" id="Layer_1" xmlns="http://www.w3.org/2000/svg" xmlns:xlink="http://www.w3.org/1999/xlink" x="0px" y="0px"
	 viewBox="0 0 448.3 297.8" style="enable-background:new 0 0 448.3 297.8;" xml:space="preserve">
<style type="text/css">
	.st0{fill:#EDFFFF;}
	.st1{fill:#FFFFFF;}
	.st2{fill:#1C2E34;}
	.st3{fill:#FF6E65;}
	.st4{fill:#FF9184;}
	.st5{fill:#FFB0A0;}
	.st6{fill:#0B181B;}
	.st7{fill:#007BDE;}
	.st8{fill:#0086FF;}
	.st9{fill:#00B1FF;}
	.st10{fill:#F9A498;}
	.st11{fill:none;stroke:#E98980;stroke-width:0.5;stroke-miterlimit:10;}
	.st12{fill:#0077C9;}
	.st13{fill:none;stroke:#0B181B;stroke-width:0.53;stroke-linecap:round;stroke-linejoin:round;}
	.st14{fill:#FFBA99;}
	.st15{fill:none;stroke:#312220;stroke-width:0.56;stroke-linecap:round;stroke-linejoin:round;}
	.st16{fill:#CB9DA8;}
	.st17{fill:#EAC8CE;}
	.st18{fill:#F6DAE0;}
	.st19{fill:none;stroke:#55382E;stroke-width:1.16;stroke-miterlimit:10;}
	.st20{fill:#E12022;stroke:#E12022;stroke-width:9.000000e-02;stroke-miterlimit:10;}
	.st21{fill:#0B6FB6;stroke:#0B6FB6;stroke-width:9.000000e-02;stroke-miterlimit:10;}
</style>
<g id="Grupo_85895">
	<g id="Grupo_85862">
		<rect id="Rectángulo_36822" x="73.7" y="21.3" class="st0" width="55.3" height="70.2"/>
		<rect id="Rectángulo_36823" x="73.7" y="97.9" class="st0" width="55.3" height="71.9"/>
		<rect id="Rectángulo_36824" x="134.9" y="21.3" class="st0" width="55.3" height="70.2"/>
		<rect id="Rectángulo_36825" x="134.9" y="97.9" class="st0" width="55.3" height="71.9"/>
	</g>
	<g id="Grupo_85890">
		<g id="Grupo_85866">
			<g id="Grupo_85863">
				<rect id="Rectángulo_36826" x="211.7" y="232.8" class="st1" width="5.8" height="20.5"/>
				<path id="Trazado_154801" class="st2" d="M229.8,230.6h-29.9c-3.1,0-5.6-2.5-5.6-5.6l0,0l0,0c0-3.1,2.5-5.6,5.6-5.6c0,0,0,0,0,0
					h29.9c3.1,0,5.6,2.5,5.6,5.6l0,0C235.3,228.1,232.8,230.6,229.8,230.6C229.8,230.6,229.8,230.6,229.8,230.6z"/>
				<rect id="Rectángulo_36827" x="209.4" y="228" class="st2" width="10.6" height="7.3"/>
				<rect id="Rectángulo_36828" x="209.4" y="250" class="st2" width="10.6" height="31.9"/>
				<rect id="Rectángulo_36829" x="184.2" y="277.9" class="st2" width="59.9" height="4.4"/>
				<rect id="Rectángulo_36830" x="184.2" y="277.9" class="st2" width="3.5" height="13.8"/>
				<path id="Trazado_154802" class="st2" d="M191.2,291.8c0,3-2.5,5.5-5.5,5.5c-3,0-5.5-2.5-5.5-5.5c0-3,2.5-5.5,5.5-5.5
					c1.5,0,2.8,0.6,3.9,1.6C190.6,288.9,191.2,290.3,191.2,291.8z"/>
				<rect id="Rectángulo_36831" x="240.6" y="277.9" class="st2" width="3.5" height="13.8"/>
				<path id="Trazado_154803" class="st2" d="M247.6,291.8c0,3-2.5,5.5-5.5,5.5c-3,0-5.5-2.5-5.5-5.5c0-3,2.5-5.5,5.5-5.5
					c1.5,0,2.9,0.6,3.9,1.6C247,288.9,247.6,290.3,247.6,291.8z"/>
			</g>
			<g id="Grupo_85865">
				<g id="Grupo_85864">
					<path id="Trazado_154804" class="st3" d="M251.8,225.8c-22.7,0-41.1-18.4-41.1-41.1v-50.4c0.1-2.9,2.6-5.1,5.4-5
						c2.7,0.1,4.8,2.3,5,5v50.4c0,17,13.8,30.7,30.7,30.7c2.9-0.1,5.3,2.1,5.4,5c0.1,2.9-2.1,5.3-5,5.4
						C252.1,225.8,252,225.8,251.8,225.8z"/>
					<path id="Trazado_154805" class="st3" d="M215.9,129.1h-55.5l3.4,40.7l-1.6,30.6l27.7,17.6l6.5,7.8h55.5l-15.1-9.6l-11.2-12.7
						l-4.5-2.8l-3.8-24.7l-0.2-29.7L215.9,129.1z"/>
				</g>
				<path id="Trazado_154806" class="st4" d="M196.4,225.8c-22.7,0-41.1-18.4-41.1-41.1v-50.4c0.1-2.9,2.6-5.1,5.4-5
					c2.7,0.1,4.8,2.3,5,5v50.4c0,17,13.8,30.7,30.7,30.7c2.9-0.1,5.3,2.1,5.4,5c0.1,2.9-2.1,5.3-5,5.4
					C196.7,225.8,196.5,225.8,196.4,225.8z"/>
			</g>
		</g>
		<g id="Grupo_85889">
			<g id="Grupo_85875">
				<g id="Grupo_85870">
					<g id="Grupo_85868">
						<path id="Trazado_154807" class="st5" d="M285.6,285l-0.4-29.8l-15.1-0.8l0.4,32l14.6,0.1L285.6,285z"/>
						<g id="Grupo_85867">
							<path id="Trazado_154808" class="st6" d="M268.4,280.1c0,0,12.5,5.1,18.4-3l25.7,15.6l-48-0.3L268.4,280.1z"/>
							
								<rect id="Rectángulo_36832" x="286.3" y="270.9" transform="matrix(6.457721e-03 -1 1 6.457721e-03 -8.238 581.4465)" class="st1" width="4.4" height="48"/>
							<path id="Trazado_154809" class="st1" d="M286.4,284c0.1-0.1,0.3-0.1,0.4-0.3c1.1-1.5,2.5-2.8,4-3.9c0.4-0.2,0.5-0.7,0.3-1.1
								c0,0,0,0,0-0.1c-0.3-0.4-0.8-0.5-1.2-0.2c-1.7,1.2-3.2,2.6-4.4,4.2c-0.3,0.3-0.2,0.8,0.1,1.1c0,0,0,0,0.1,0
								C285.9,284.1,286.2,284.1,286.4,284L286.4,284z"/>
							<path id="Trazado_154810" class="st1" d="M290.6,286.1c0.1-0.1,0.3-0.2,0.4-0.3c1.1-1.5,2.5-2.8,4-3.9
								c0.4-0.2,0.5-0.7,0.3-1.1c0,0,0,0,0,0c-0.3-0.4-0.8-0.5-1.2-0.2c-1.7,1.2-3.2,2.6-4.4,4.2c-0.3,0.3-0.2,0.8,0.1,1.1
								c0,0,0,0,0.1,0C290,286.1,290.3,286.2,290.6,286.1z"/>
							<path id="Trazado_154811" class="st1" d="M294.7,288.1c0.1-0.1,0.3-0.1,0.4-0.3c1.1-1.5,2.5-2.8,4-3.9
								c0.4-0.2,0.5-0.7,0.3-1.1c0,0,0,0,0,0c-0.3-0.4-0.8-0.5-1.2-0.2c-1.7,1.2-3.2,2.6-4.4,4.2c-0.3,0.3-0.2,0.8,0.1,1.1
								c0,0,0,0,0,0C294.1,288.2,294.4,288.2,294.7,288.1z"/>
						</g>
					</g>
					<g id="Grupo_85869">
						<path id="Trazado_154812" class="st7" d="M230.5,186l7.1,5.9c-2.1,12.7-8.9,24.2,3.9,24.2h22.8v52.3l25.5,0.3l1.4-64.1
							c0.2-10.1-7.8-18.4-17.9-18.6c-0.1,0-0.2,0-0.3,0L230.5,186z"/>
						<rect id="Rectángulo_36833" x="262.6" y="258.9" class="st8" width="29.4" height="9.9"/>
					</g>
				</g>
				<g id="Grupo_85874">
					<g id="Grupo_85872">
						<path id="Trazado_154813" class="st5" d="M244.7,285l-0.4-29.8l-15.1-0.8l0.4,32l14.6,0.1L244.7,285z"/>
						<g id="Grupo_85871">
							<path id="Trazado_154814" class="st6" d="M227.5,280.1c0,0,12.5,5.1,18.4-3l25.7,15.6l-48-0.3L227.5,280.1z"/>
							
								<rect id="Rectángulo_36834" x="245.4" y="270.9" transform="matrix(6.457721e-03 -1 1 6.457721e-03 -48.8968 540.5224)" class="st1" width="4.4" height="48"/>
							<path id="Trazado_154815" class="st1" d="M245.5,284c0.1-0.1,0.3-0.1,0.4-0.3c1.1-1.5,2.5-2.8,4-3.9c0.4-0.2,0.4-0.7,0.2-1.1
								c0,0,0,0,0,0c-0.3-0.4-0.8-0.5-1.2-0.2c-1.7,1.2-3.2,2.6-4.4,4.2c-0.3,0.3-0.2,0.8,0.1,1.1c0,0,0,0,0.1,0
								C244.9,284.1,245.2,284.1,245.5,284z"/>
							<path id="Trazado_154816" class="st1" d="M249.6,286.1c0.2-0.1,0.3-0.2,0.4-0.3c1.1-1.5,2.5-2.8,4-3.9
								c0.4-0.2,0.5-0.7,0.3-1.1c0,0,0,0,0,0c-0.3-0.4-0.8-0.5-1.2-0.2c-1.7,1.2-3.2,2.6-4.4,4.2c-0.3,0.3-0.2,0.8,0.1,1.1
								c0,0,0,0,0.1,0C249.1,286.1,249.4,286.2,249.6,286.1L249.6,286.1z"/>
							<path id="Trazado_154817" class="st1" d="M253.8,288.1c0.1-0.1,0.3-0.1,0.4-0.3c1.1-1.5,2.5-2.8,4-3.9
								c0.4-0.2,0.5-0.7,0.3-1.1c0,0,0,0,0,0c-0.3-0.4-0.8-0.5-1.2-0.2c-1.7,1.2-3.2,2.6-4.4,4.2c-0.3,0.3-0.2,0.8,0.1,1.1
								c0,0,0,0,0,0C253.2,288.2,253.5,288.2,253.8,288.1z"/>
						</g>
					</g>
					<g id="Grupo_85873">
						<path id="Trazado_154818" class="st8" d="M198.3,186l-1,5.9c-1.9,11.4,5.8,22.1,17.2,23.9c1.1,0.2,2.2,0.3,3.4,0.3h6.2v52.3
							l25.5,0.3l1.5-64.1c0.2-10.1-7.8-18.4-17.9-18.6c-0.1,0-0.2,0-0.3,0L198.3,186z"/>
						<rect id="Rectángulo_36835" x="222.4" y="258.9" class="st9" width="29.4" height="9.9"/>
					</g>
				</g>
			</g>
			<g id="Grupo_85883">
				<g id="Grupo_85878">
					<g id="Grupo_85876">
						<path id="Trazado_154819" class="st10" d="M261.9,163.5l34.4,7.2l1.9,6.9l-45.1,0.6l-3.6-18.7L261.9,163.5z"/>
						<path id="Trazado_154820" class="st10" d="M291,170.3c0,0,7-4.3,14-2.5c4.6,1.2,9.2,5.6,8.8,10.3l0,0l-28-0.4L291,170.3z"/>
					</g>
					<g id="Grupo_85877">
						<path id="Trazado_154821" class="st10" d="M263.8,138.6l4,29.5c0,0-17.2,9-16.8,8s-3.9-37.4-3.9-37.4L263.8,138.6z"/>
						<path id="Trazado_154822" class="st6" d="M248.5,114.2c0,0,12.6,2,15.5,12.8c3.8,14,5.2,16.1,5.2,16.1l-19.1,2.8L248.5,114.2z
							"/>
					</g>
				</g>
				<path id="Trazado_154823" class="st6" d="M224.2,110.6l24.3,3.6c2.5,0.3,4.3,2.5,4.3,4.9l0.6,57.6l-54.2,0.2l-3.7-50.2l2-6.8
					c0.9-3.2,3.6-5.6,6.9-6.1L224.2,110.6z"/>
				<g id="Grupo_85882">
					<g id="Grupo_85879">
						<path id="Trazado_154824" class="st5" d="M208.3,142.9l-10.1,26.2l-15.6-13.6l6.1-18.9L208.3,142.9z"/>
						<path id="Trazado_154825" class="st6" d="M218.2,112.7c0,0-18.9-0.2-23.5,5.4c-5.9,7-12.9,24.9-12.9,24.9l30.6,6.8
							L218.2,112.7z"/>
					</g>
					<g id="Grupo_85881">
						<g id="Grupo_85880">
							<path id="Trazado_154826" class="st5" d="M199.9,164.7l35.4,7.9l-1.5,7.8l-41.8,0.3c0,0-18.7-3.8-9.5-25.2L199.9,164.7z"/>
							<path id="Trazado_154827" class="st5" d="M235.3,172.6c0,0,8.3-3.3,15.2-2c4.7,1,7.9,5.3,7.5,10.1l0,0l-27.8-0.2L235.3,172.6
								z"/>
						</g>
						<line id="Línea_466" class="st11" x1="199.9" y1="164.7" x2="191.2" y2="163.5"/>
					</g>
				</g>
			</g>
			<g id="Grupo_85888">
				<path id="Trazado_154828" class="st6" d="M240.4,67.8c0,0,9.6,9,0.1,12.3L240.4,67.8z"/>
				<path id="Trazado_154829" class="st12" d="M234.7,83.9c-0.2,3.6,2.6,6.7,6.2,6.9c3.6,0.1,6.6-2.8,6.6-6.4c0,0,0,0,0-0.1
					c0.2-3.6-2.6-6.7-6.2-6.9C237.7,77.4,234.7,80.2,234.7,83.9C234.7,83.8,234.7,83.9,234.7,83.9z"/>
				<path id="Trazado_154830" class="st5" d="M232.9,98.1l0.5,12.8c0.2,4.5-2.4,7-6.7,7.1l0,0c-3.7,0.1-7.8-1.5-7.8-5.5l0.1-20.2
					L232.9,98.1z"/>
				<path id="Trazado_154831" class="st6" d="M233.3,106.6c0,0-10.4,1.3-14.1-10.3c-1.2-3.7,13.7,0.5,13.7,0.5L233.3,106.6z"/>
				<path id="Trazado_154832" class="st5" d="M229.2,101.9L229.2,101.9c7.3-0.3,13.1-6.5,13.1-12.7l-0.1-12.9
					c0.1-7.6-5.9-14-13.5-14.3l0,0c-7.7-0.2-15.4,6-15.6,13.9l0.2,10.1C213.3,94.8,220.4,101.9,229.2,101.9L229.2,101.9z"/>
				<g id="Grupo_85884">
					<path id="Trazado_154833" class="st13" d="M234.6,85.8l0.4,2.5l-1.8,0.1"/>
					<path id="Trazado_154834" class="st6" d="M226.5,78.2c0,0,3-0.4,3.1,0.9c0,0,0,0.8-2.6,1.1s-3.3,0.1-3.6-0.7
						C223.1,78.8,225,78.3,226.5,78.2z"/>
					<path id="Trazado_154835" class="st6" d="M238.6,77.8c0,0-2.5-0.2-2.6,1c0,0-0.1,0.8,2.1,0.9c2.2,0.1,2.9-0.2,3-0.9
						C241.3,78.1,239.8,77.8,238.6,77.8z"/>
					<path id="Trazado_154836" class="st6" d="M237,83.1c0,0.7,0.6,1.3,1.3,1.2c0.7,0,1.3-0.6,1.2-1.3s-0.6-1.3-1.3-1.2
						c-0.3,0-0.7,0.1-0.9,0.4C237.2,82.5,237,82.8,237,83.1z"/>
					<path id="Trazado_154837" class="st6" d="M226,83.2c0,0.7,0.6,1.3,1.3,1.3c0.7,0,1.3-0.6,1.3-1.3c0,0,0,0,0,0
						c0-0.7-0.6-1.3-1.3-1.3C226.5,81.9,226,82.5,226,83.2z"/>
					<line id="Línea_467" class="st13" x1="231.8" y1="92.8" x2="235.1" y2="92.3"/>
				</g>
				<path id="Trazado_154838" class="st6" d="M249.9,63.4l-5.6-0.8l3.2-2.1c-2.9-0.9-5.8-1.3-8.8-1.3c-3.7-1.9-7.8-3-11.9-3
					c-6.5-0.1-12,3.4-14,7.3l0,0c0,0-5.4-0.3-6.1,5.7c-1,7.9,8.5,20.8,8.5,20.8l1.1-10.3c5.9-0.4,6.1-5.6,5.7-9
					c2.6,0.2,11.7,0.8,18.9-0.8c0.9-0.1,1.9-0.3,2.7-0.8C246.9,68.1,249.4,66.3,249.9,63.4z"/>
				<g id="Grupo_85885">
					<path id="Trazado_154839" class="st14" d="M206.5,86c0,2.8,2.3,5.2,5.2,5.2c2.8,0,5.2-2.3,5.2-5.2c0-2.8-2.2-5.1-5-5.2
						C208.9,80.8,206.5,83.1,206.5,86z"/>
					<path id="Trazado_154840" class="st15" d="M213.4,87.5c0,0,0.1-3.8-3.5-3.4"/>
				</g>
				<g id="Grupo_85887">
					<path id="Trazado_154841" class="st12" d="M231.6,56l0.2,0.8c0,0-9.3,1-13.5,6.6c-4.7,6.3-4.8,14.8-4.8,14.8l-2,0.2l0.1-13.5
						l4-4.2l6.5-3.8l4.5-1.4L231.6,56z"/>
					<g id="Grupo_85886">
						<path id="Trazado_154842" class="st12" d="M219,83.1c1,4.4-1.9,8.8-7.5,10c-4,0.9-5.9-2.5-6.9-6.9c-1-4.4,1.5-8.7,5.5-9.6
							C214.1,75.8,218,78.7,219,83.1z"/>
						<path id="Trazado_154843" class="st8" d="M217,83.6c1,4.4-1.5,8.7-5.5,9.6s-8-2-8.9-6.5c-0.9-4.5,1.5-8.7,5.5-9.6
							C212,76.2,216,79.1,217,83.6z"/>
					</g>
					<path id="Trazado_154844" class="st8" d="M208.5,78.1c-0.4-3.4-0.3-6.9,0.4-10.3c1.5-6.7,7-11.9,13.8-13
						c0.5-0.1,1.1-0.2,1.7-0.3c2-0.4,4.1-0.1,6,0.7c0.5,0.2,0.9,0.5,1.3,0.8c0,0-9,0.4-13.4,5.2c-4.9,5.5-6.2,12.8-5.9,17.6
						L208.5,78.1z"/>
				</g>
				<path id="Trazado_154845" class="st5" d="M214,112.3l10.2-1.6l13.6,2c0,0,0.8,7.9-10.6,8.2S214,112.3,214,112.3z"/>
			</g>
		</g>
	</g>
	<g id="Grupo_85894">
		<g id="Grupo_85893">
			<g id="Grupo_85891">
				<path id="Trazado_154846" class="st16" d="M275.6,151.5l4.8,3.5l34.2-28.8l83.2-45.9l-4.5-3.3l-57.1,17.5L275.6,151.5z"/>
				<path id="Trazado_154847" class="st16" d="M287.4,79.6l-13.5,67.3c-0.5,2.5,1.1,5,3.6,5.5c0.3,0.1,0.6,0.1,0.9,0.1h97.5
					c2.2,0,4.1-1.5,4.5-3.7l14.4-67.3c0.5-2.5-1.1-5-3.6-5.5c-0.3-0.1-0.6-0.1-1-0.1H292C289.8,75.9,287.9,77.5,287.4,79.6z"/>
				<path id="Trazado_154848" class="st17" d="M291.8,82.8l-13.5,67.3c-0.5,2.5,1.1,5,3.6,5.5c0.3,0.1,0.6,0.1,0.9,0.1h97.5
					c2.2,0,4.1-1.5,4.5-3.7l14.4-67.3c0.5-2.5-1.1-5-3.6-5.5c-0.3-0.1-0.7-0.1-1-0.1h-98.3C294.2,79,292.2,80.6,291.8,82.8
					L291.8,82.8z"/>
				<path id="Trazado_154849" class="st16" d="M327.3,137.9l-1.8,17.8h7.9L327.3,137.9z"/>
				<path id="Trazado_154850" class="st18" d="M327.3,137.5l8.1,39.8h29.4L351,137.5H327.3z"/>
				<circle id="Elipse_6961" class="st1" cx="342.8" cy="106.9" r="6.5"/>
				<path id="Trazado_154851" class="st17" d="M382.2,173.6h-69.4c-1.1,0-1.9,0.8-1.9,1.9c0,0,0,0,0,0l0,0c0,1.1,0.9,1.9,1.9,1.9
					c0,0,0,0,0,0h69.4c1.1,0,1.9-0.9,1.9-1.9v0l0,0C384.1,174.5,383.3,173.6,382.2,173.6C382.2,173.6,382.2,173.6,382.2,173.6z"/>
				<path id="Trazado_154852" class="st17" d="M295.7,173.6H259c-1.1,0-1.9,0.9-1.9,1.9c0,0,0,0,0,0l0,0c0,1.1,0.9,1.9,1.9,1.9l0,0
					h36.7c1.1,0,1.9-0.8,1.9-1.9c0,0,0,0,0,0l0,0C297.7,174.5,296.9,173.6,295.7,173.6C295.8,173.6,295.7,173.6,295.7,173.6
					L295.7,173.6z"/>
			</g>
			<g id="Grupo_85892">
				<line id="Línea_468" class="st19" x1="250.3" y1="183.6" x2="250.3" y2="297.2"/>
				<line id="Línea_469" class="st19" x1="178.3" y1="183.6" x2="178.3" y2="297.2"/>
				<line id="Línea_470" class="st19" x1="425.1" y1="183.6" x2="425.1" y2="297.2"/>
				<line id="Línea_471" class="st19" x1="353.1" y1="183.6" x2="353.1" y2="297.2"/>
				<rect id="Rectángulo_36836" x="161.6" y="177.3" class="st17" width="68.1" height="9.1"/>
				<rect id="Rectángulo_36837" x="229.6" y="177.3" class="st1" width="214" height="9.1"/>
			</g>
		</g>
		<line id="Línea_472" class="st19" x1="448.3" y1="297.2" x2="99.4" y2="297.2"/>
	</g>
</g>
<g id="Grupo_85897">
	<path id="Trazado_154853" class="st20" d="M76.9,53.5c3.5,4.2,4.9,9.8,3.7,15.1c-1.1,5.9-4.4,11.1-8.2,15.6
		c-3.1,3.6-6.6,6.8-10.3,9.8c-4.3,3.5-8.5,7.2-11.2,12.1c-2.3,4-2.8,8.8-1.3,13.1c2.6,7.4,8.5,12.9,11.7,19.8
		c-3.6-3.1-7.1-6.4-10.4-9.9c-3.6-3.5-6.5-7.6-8.8-12.1c-1.6-3.2-1.9-6.9-1-10.3c1.1-3.5,3.6-6.2,6-8.8c6.9-6.9,15.4-12,22.1-19
		c3.7-3.9,6.8-8.4,7.9-13.7C77.9,61.3,77.8,57.3,76.9,53.5L76.9,53.5z"/>
	<path id="Trazado_154854" class="st20" d="M71.3,96.8c7.4-5.4,16-8.9,24.8-11.4c-6.9,4.4-14.2,8.4-20.1,14.1
		c-2.3,2-4.1,4.6-5.2,7.4c-0.7,2.2-0.5,4.5,0.4,6.6c1.6,3.7,4.3,6.6,6.4,10c1.8,2.9,2,6.5,0.7,9.6c-2,4.5-6,7.8-10.1,10.5
		c-0.5,0.3-1,0.9-1.6,1c2.7-2.5,4.9-6,4.8-9.7c-0.1-2.8-1.6-5.3-3.5-7.3c-3.8-4.5-6.9-10.2-6.3-16.2S66.6,100.4,71.3,96.8L71.3,96.8
		z"/>
	<path id="Trazado_154855" class="st21" d="M97.5,140.8c1.6-1.9,4.1-2.4,6.5-2.7c4.1-0.6,8.2,0.6,11.4,3.3c2.6,2.3,3.9,5.7,3.4,9.1
		c-0.6,3.9-3.2,7.2-6.2,9.7c-5.4,4.3-12,6.8-18.6,8.5c0.4-0.4,0.8-0.8,1.3-1.1c5-2.7,10-5.9,13.7-10.3c2.2-2.8,4-6.3,3.3-9.9
		c-0.8-4.2-4.8-7.2-9-7.5C101.2,139.6,99.3,140.4,97.5,140.8L97.5,140.8z"/>
	<path id="Trazado_154856" class="st21" d="M21,144.3c7-3.2,14.6-4.8,22.3-4.8c-4.4,1.3-9,2.4-13.2,4.4c-1.1,0.4-2,1.1-2.7,2.1
		c-0.3,0.8,0.5,1.3,1.1,1.6c2.6,1.1,5.4,1.2,8.2,1.5c9.7,0.5,19.5,0.4,29.2-0.3c9.6-0.6,19.1-1.9,28.6-3.4c-2.1,0.9-4.2,2-6.2,3.2
		c-1,0.6-2.1,1-3.3,1.1c-11.7,2.6-23.6,3.4-35.5,3.6c-4.6,0-9.2,0-13.7-0.3c-5.1-0.2-10.2-0.9-15.2-2c-1.5-0.3-2.9-1-4.1-1.9
		c-0.5-0.5-0.6-1.3-0.1-1.9c0,0,0,0,0,0C17.6,145.7,19.4,145.1,21,144.3L21,144.3z"/>
	<path id="Trazado_154857" class="st21" d="M29.9,160.5c2-1.5,4.3-2.6,6.7-3.3c-0.8,0.9-1.8,1.8-1.9,3c0.1,0.8,0.6,1.5,1.3,1.8
		c1.3,0.6,2.6,0.9,4,1.1c7.3,0.9,14.7,1.1,22.1,0.7c6.7-0.5,13.5-1.3,20.1-2.6c1.9,1.7,4,3,6.3,3.9c-8,2.3-16.3,3.8-24.6,4.4
		c-7.9,0.6-15.8,0.4-23.6-0.7c-3.1-0.4-6.2-1.3-9.1-2.7c-1.1-0.6-2.4-1.4-2.8-2.8C28.4,162.2,29,161.1,29.9,160.5L29.9,160.5z"/>
	<path id="Trazado_154858" class="st21" d="M34.4,177.1c1.8-1.3,3.9-2.2,6.1-2.7c-0.7,0.6-1.9,1.4-1.4,2.6c1,1.3,2.9,1.5,4.5,1.8
		c6.4,0.9,12.9,1.2,19.4,0.8c4.8-0.4,9.7-1.1,14.4-2c2.7,1.6,5.6,3,8.5,4.2c-4.5,2-9.3,3.4-14.2,4.2c-8.2,1.5-16.5,1.6-24.7,0.3
		c-3.7-0.5-7.3-1.6-10.6-3.3c-1.4-0.6-2.5-1.7-3.1-3C32.9,178.9,33.4,177.7,34.4,177.1L34.4,177.1z"/>
	<path id="Trazado_154859" class="st21" d="M13.2,187.9c3.5-1.3,7.1-2,10.8-2.2c1.5-0.1,3,0.1,4.3,0.8c-4.4,0.2-8.8,1.4-12.8,3.4
		c-1,0.4-1.8,1.2-2.2,2.1c0,1.2,1.3,1.6,2.2,1.9c5.5,2.1,11.4,2.7,17.2,3.3c17.3,1.3,34.6,1.2,51.8-0.5c6.5-0.7,13.1-1.4,19.4-3.2
		c2-0.7,4.3-1.4,5.6-3.2c0.8-1.1,0.3-2.4-0.5-3.3c1.3,0.7,3.1,1.6,2.9,3.4c-0.5,1.8-2.4,2.8-3.9,3.6c-4.9,2.5-10.2,3.7-15.6,4.8
		c-15.5,3-31.4,3.7-47.1,3.3c-11.9-0.4-23.7-1.6-35.5-3.6c-2.1-0.5-4.5-0.9-6-2.6c-1-1.1-0.1-2.7,0.8-3.6
		C7.1,190.2,10.2,189,13.2,187.9L13.2,187.9z"/>
	<path id="Trazado_154860" class="st21" d="M108,200.9c3.9-1.3,8-2.7,10.8-5.8c-0.5,3.3-3.4,5.6-6.2,7.1c-5.4,2.8-11.5,4.1-17.5,5.2
		c-12.7,1.9-25.6,2.6-38.5,2.3c-8.8-0.3-17.7-0.6-26.3-2.4c-2.1-0.6-4.3-1-6.1-2.2c7.7,1.2,15.5,1.9,23.3,2.1
		c12.8,0.4,25.7-0.2,38.4-1.7C93.5,204.6,100.9,203.1,108,200.9L108,200.9z"/>
	<path id="Trazado_154861" class="st20" d="M7.8,257.3v-37.5c2.6,0.1,5.2,0,7.8,0.1v42c-0.1,3.9-0.2,8-2,11.5
		c-2.3,3.7-5.7,6.5-9.8,7.9c-1.2-1.4-2.4-2.8-3.7-4.2l0,0c3.2-1.9,6.4-4.5,7.2-8.4S7.7,261.2,7.8,257.3L7.8,257.3z"/>
	<path id="Trazado_154862" class="st20" d="M22.8,234.9c5.2-2.3,10.8-3.2,16.4-2.7c2.9,0.3,5.9,1.4,7.8,3.7c1.5,2,2.2,4.5,2.1,7
		v25.5h-5.7c-0.2-1.3-0.4-2.5-0.5-3.9c-2.1,1.8-4.5,3.2-7.2,4c-3.1,0.8-6.4,0.7-9.5-0.5c-2.4-1-4.1-3-4.8-5.5
		c-1.1-3.6-0.4-7.6,2-10.5c2.2-2.6,5.6-3.9,9-4.5c3.1-0.5,6.3-0.7,9.4-0.6c-0.1-2.4,0.4-5-1-7.1c-1.2-1.5-3.1-2.4-5-2.4
		c-4.1-0.4-8.1,0.7-12,2c-0.4-1.5-0.7-3-1.1-4.6 M32.1,252.5c-1.7,0.5-3.1,1.8-3.7,3.5c-0.6,2-0.3,4.1,0.9,5.9
		c1.2,1.6,3.4,2,5.3,1.8c2.6-0.5,5-1.7,7-3.5v-8.5C38.4,251.6,35.2,251.4,32.1,252.5L32.1,252.5z"/>
	<path id="Trazado_154863" class="st20" d="M89.7,234.9c5.2-2.3,10.9-3.3,16.5-2.7c2.9,0.2,5.6,1.5,7.6,3.6c1.6,2.2,2.4,4.8,2.2,7.5
		c0,8.4,0,16.8-0.1,25.2c-1.9-0.1-3.8,0-5.7-0.1c-0.2-1.3-0.3-2.5-0.6-3.8c-2.6,2.4-5.9,4-9.5,4.5c-3.3,0.3-7-0.1-9.6-2.5
		c-2.7-2.5-3.2-6.6-2.5-10c0.8-3.2,3-5.9,5.9-7.2c4.5-2.2,9.7-2.3,14.6-2.3c-0.1-2.3,0.4-4.8-0.8-6.9c-1-1.6-2.8-2.6-4.7-2.6
		c-4.2-0.5-8.4,0.6-12.4,2C90.4,238,90,236.5,89.7,234.9 M99,252.6c-1.7,0.5-3,1.8-3.6,3.4c-0.6,2-0.3,4.2,0.8,5.9
		c1.2,1.6,3.5,2,5.4,1.8c2.6-0.5,5.1-1.7,7-3.6c-0.1-2.8,0-5.6,0-8.4C105.5,251.7,102.2,251.5,99,252.6L99,252.6z"/>
	<path id="Trazado_154864" class="st20" d="M53.4,232.6h8c1.6,5,3.1,10,4.7,15c0.9,3.1,2,6.1,2.7,9.3c0.3,1.4,0.7,2.9,1.1,4.2
		c3.3-9.2,5.7-18.8,7.1-28.5h7.8c-2.1,12.4-5.9,24.4-11.1,35.8h-9.1C60.8,256.4,57.1,244.5,53.4,232.6L53.4,232.6z"/>
	<g id="Grupo_85896">
		<path id="Trazado_154865" class="st20" d="M117.6,231.9h-0.9v-0.3h2.3v0.3H118v2.7h-0.4V231.9z"/>
		<path id="Trazado_154866" class="st20" d="M121.8,233.3c0-0.4-0.1-1-0.1-1.3l0,0c-0.1,0.4-0.2,0.8-0.4,1.2l-0.5,1.5h-0.3l-0.5-1.5
			c-0.1-0.4-0.3-0.8-0.4-1.2l0,0c0,0.5,0,0.9-0.1,1.4l-0.1,1.3h-0.4l0.2-3.1h0.5l0.5,1.5c0.1,0.4,0.2,0.7,0.3,1l0,0
			c0.1-0.3,0.2-0.7,0.3-1l0.5-1.5h0.5l0.2,3.1h-0.4L121.8,233.3z"/>
	</g>
</g>
<g>
	<path d="M175,12.7c0.1-0.5,0-0.9-0.2-1.2s-0.7-0.5-1.5-0.9c-1.4-0.5-2.4-1.1-3.1-1.8s-0.9-1.5-0.7-2.6c0.2-1.1,0.8-1.9,1.7-2.5
		s2-0.9,3.3-0.9c1.3,0,2.4,0.4,3.1,1.1s1,1.7,0.7,2.9l0,0.1h-2.9c0.1-0.5,0-0.9-0.3-1.2s-0.7-0.5-1.2-0.5c-0.4,0-0.7,0.1-1,0.3
		s-0.5,0.5-0.6,0.8c-0.1,0.5,0,0.8,0.3,1.1s0.9,0.5,1.9,0.9c1.3,0.5,2.2,1,2.8,1.7s0.8,1.6,0.5,2.7c-0.2,1.1-0.8,2-1.7,2.5
		s-2,0.9-3.3,0.9c-1.3,0-2.4-0.3-3.3-1s-1.2-1.6-0.9-3l0-0.1h2.9c-0.1,0.6,0,1.1,0.4,1.3s0.8,0.4,1.4,0.4c0.4,0,0.7-0.1,1-0.3
		S175,13,175,12.7z"/>
	<path d="M182.6,16c-1.3,0-2.2-0.4-2.9-1.3s-0.9-2-0.7-3.3l0.1-0.3c0.2-1.5,0.8-2.7,1.6-3.6s1.9-1.3,3.3-1.3c1.2,0,2,0.4,2.6,1.2
		s0.8,1.8,0.6,3.1l-0.2,1.6h-5l0,0c0,0.5,0.1,0.9,0.3,1.2s0.6,0.5,1.1,0.5c0.5,0,0.9,0,1.2-0.1s0.8-0.2,1.3-0.5l0.4,1.8
		c-0.4,0.3-1,0.6-1.6,0.8S183.3,16,182.6,16z M183.6,8.5c-0.4,0-0.6,0.2-0.9,0.5s-0.4,0.7-0.5,1.2l0,0h2.1l0-0.2
		c0.1-0.5,0.1-0.9-0.1-1.1S184,8.5,183.6,8.5z"/>
	<path d="M193.8,9l-1,0c-0.3,0-0.5,0.1-0.7,0.2s-0.4,0.3-0.5,0.5l-1.2,6.3h-2.9l1.9-9.5h2.8l-0.2,1.2l0,0c0.2-0.5,0.5-0.8,0.9-1.1
		s0.7-0.4,1.1-0.4c0.1,0,0.3,0,0.4,0s0.3,0,0.4,0.1L193.8,9z"/>
	<path d="M198,11.9l0,0.9l0.1,0l0.3-0.9l2-5.6h3.1l-4.4,9.5h-3l-1.3-9.5h3.1L198,11.9z"/>
	<path d="M205.7,15.9h-2.9l2.7-13.7h2.9L205.7,15.9z"/>
	<path d="M211.6,16c-1.3,0-2.2-0.4-2.9-1.3c-0.7-0.9-0.9-2-0.7-3.3l0.1-0.3c0.2-1.5,0.8-2.7,1.6-3.6s1.9-1.3,3.3-1.3
		c1.2,0,2,0.4,2.6,1.2c0.6,0.8,0.8,1.8,0.6,3.1l-0.2,1.6h-5l0,0c0,0.5,0.1,0.9,0.3,1.2s0.6,0.5,1.1,0.5c0.5,0,0.9,0,1.2-0.1
		s0.8-0.2,1.3-0.5l0.4,1.8c-0.4,0.3-1,0.6-1.6,0.8S212.3,16,211.6,16z M212.6,8.5c-0.4,0-0.6,0.2-0.9,0.5s-0.4,0.7-0.5,1.2l0,0h2.1
		l0-0.2c0.1-0.5,0.1-0.9-0.1-1.1S212.9,8.5,212.6,8.5z"/>
	<path d="M222.1,4l-0.5,2.4h1.5l-0.4,2.1h-1.5l-0.9,4.4c-0.1,0.4-0.1,0.6,0,0.8s0.2,0.2,0.5,0.2c0.2,0,0.3,0,0.4,0
		c0.1,0,0.2,0,0.4-0.1l-0.2,2.2c-0.3,0.1-0.6,0.1-0.9,0.2c-0.3,0-0.6,0-0.9,0c-0.9,0-1.5-0.3-1.9-0.8s-0.5-1.4-0.3-2.5l0.9-4.4h-1.2
		l0.4-2.1h1.2l0.5-2.4H222.1z"/>
	<path d="M229.8,9.1c-0.3-0.5-0.4-1-0.6-1.4s-0.1-0.9,0-1.3c0.2-1.1,0.6-1.9,1.3-2.5c0.7-0.6,1.6-0.9,2.6-0.9c0.8,0,1.5,0.3,2,0.9
		s0.6,1.3,0.5,2.2c-0.1,0.6-0.3,1.1-0.6,1.6s-0.7,0.9-1.2,1.2l-0.8,0.5l1.5,2.4c0.2-0.3,0.4-0.7,0.6-1s0.3-0.8,0.3-1.2h2.1
		c-0.1,0.9-0.3,1.6-0.6,2.3s-0.6,1.3-1.1,1.8l1.5,2.3h-3.3l-0.5-0.7c-0.5,0.3-1,0.5-1.5,0.7s-1,0.2-1.6,0.2c-1.2,0-2-0.3-2.7-1
		c-0.6-0.7-0.8-1.5-0.7-2.6c0.1-0.7,0.4-1.3,0.8-1.7C228.4,10.2,229,9.7,229.8,9.1L229.8,9.1z M231.1,13.8c0.2,0,0.4,0,0.7-0.1
		s0.5-0.1,0.7-0.2l-1.7-2.6l0,0c-0.2,0.2-0.3,0.5-0.4,0.7s-0.2,0.5-0.2,0.7c-0.1,0.5,0,0.8,0.2,1.1
		C230.5,13.6,230.8,13.8,231.1,13.8z M231.8,6.3c0,0.2,0,0.5,0,0.7c0.1,0.2,0.2,0.5,0.3,0.7l0.4-0.3c0.3-0.2,0.6-0.4,0.7-0.6
		c0.1-0.2,0.2-0.4,0.3-0.7c0-0.3,0-0.5-0.1-0.7s-0.3-0.3-0.6-0.3c-0.3,0-0.5,0.1-0.7,0.3S231.8,6,231.8,6.3z"/>
	<path d="M250.3,3.1h2.9l-1.8,8.8c-0.3,1.4-0.9,2.4-1.8,3.1s-2,1.1-3.2,1.1s-2.2-0.3-2.8-1s-0.9-1.7-0.6-3l0,0h2.9
		c-0.1,0.7-0.1,1.1,0.1,1.4s0.5,0.4,0.9,0.4c0.3,0,0.6-0.2,1-0.5c0.3-0.3,0.5-0.8,0.7-1.4L250.3,3.1z"/>
	<path d="M259.5,12.7c0.1-0.5,0-0.9-0.2-1.2s-0.7-0.5-1.5-0.9c-1.4-0.5-2.4-1.1-3.1-1.8s-0.9-1.5-0.7-2.6c0.2-1.1,0.8-1.9,1.7-2.5
		c0.9-0.6,2-0.9,3.3-0.9c1.3,0,2.4,0.4,3.1,1.1c0.8,0.7,1,1.7,0.7,2.9l0,0.1h-2.9c0.1-0.5,0-0.9-0.3-1.2s-0.7-0.5-1.2-0.5
		c-0.4,0-0.7,0.1-1,0.3s-0.5,0.5-0.6,0.8c-0.1,0.5,0,0.8,0.3,1.1s0.9,0.5,1.9,0.9c1.3,0.5,2.2,1,2.8,1.7s0.8,1.6,0.5,2.7
		c-0.2,1.1-0.8,2-1.7,2.5s-2,0.9-3.3,0.9c-1.3,0-2.4-0.3-3.3-1s-1.2-1.6-0.9-3l0-0.1h2.9c-0.1,0.6,0,1.1,0.4,1.3
		c0.4,0.2,0.8,0.4,1.4,0.4c0.4,0,0.7-0.1,1-0.3C259.2,13.2,259.4,13,259.5,12.7z"/>
	<path d="M266.8,11.5l-0.9,4.4H263l2.6-12.8h4.9c1.3,0,2.4,0.4,3.1,1.2c0.7,0.8,1,1.8,0.7,3c-0.3,1.3-0.9,2.4-1.9,3.1
		s-2.2,1.1-3.6,1.1H266.8z M267.3,9.2h2c0.5,0,1-0.2,1.4-0.5s0.6-0.8,0.7-1.4c0.1-0.6,0.1-1.1-0.1-1.4s-0.6-0.5-1.2-0.5h-2
		L267.3,9.2z"/>
</g>
</svg>
