<svg id="img3" xmlns="http://www.w3.org/2000/svg" xmlns:xlink="http://www.w3.org/1999/xlink" width="200" height="200" viewBox="0 0 200 200">
  <defs>
    <linearGradient id="linear-gradient" x1="0.816" y1="0.113" x2="0.184" y2="0.887" gradientUnits="objectBoundingBox">
      <stop offset="0" stop-color="#fff"/>
      <stop offset="0.51" stop-color="#fdfdfd"/>
      <stop offset="0.7" stop-color="#f6f6f6"/>
      <stop offset="0.83" stop-color="#ebebeb"/>
      <stop offset="0.86" stop-color="#e6e6e6"/>
    </linearGradient>
  </defs>
  <g id="Grupo_85482" data-name="Grupo 85482">
    <rect id="Rectángulo_36569" data-name="Rectángulo 36569" width="200" height="200" fill="none"/>
    <circle id="Elipse_6853" data-name="Elipse 6853" cx="91.28" cy="91.28" r="91.28" transform="translate(9.467 8.72)" fill="#35afea"/>
    <g id="Grupo_85481" data-name="Grupo 85481" transform="translate(4.667 9.653)" opacity="0.15">
      <path id="Trazado_144184" data-name="Trazado 144184" d="M95.5,15.24a84,84,0,1,1-84,84,84,84,0,0,1,84-84m0-8a92,92,0,1,0,92,92A92,92,0,0,0,95.5,7.24Z" transform="translate(-3.5 -7.24)" fill="#385a65"/>
    </g>
    <path id="Trazado_144185" data-name="Trazado 144185" d="M98,14A84,84,0,1,1,14,98,84,84,0,0,1,98,14m0-8a92,92,0,1,0,92,92A92,92,0,0,0,98,6Z" transform="translate(2 2)" fill="url(#linear-gradient)"/>
  </g>
  <g id="Grupo_85483" data-name="Grupo 85483" transform="translate(44.099 5.405)">
    <path id="Trazado_144186" data-name="Trazado 144186" d="M80.362,163.47c-1.333-.64-2.88-.4-4.307-.72-.107-12.227-.253-24.453-.293-36.68a3.213,3.213,0,0,0-1.96-3.24q-14.213-7.907-28.333-16a16.707,16.707,0,0,1-8.493-12.08c-1.333-8.253-2.347-16.493-3.707-24.707-.6-3.64.107-6.533,3.32-8.653,7.08-2.8,15.507,1.333,17.16,8.733,1.04,4.68,1.56,9.467,2.187,14.227.507,3.893,2.387,5.76,6.467,6.067a2.441,2.441,0,0,0,.413.32c9.493,5.2,18.973,10.427,28.493,15.547a23.813,23.813,0,0,1,8.76,7.693,22.347,22.347,0,0,1,3.573,12.813q0,11.04,0,22.067v9.053l.08,4a51.869,51.869,0,0,1-8,1.213c-.493.067-1.08-.173-1.453.347Z" transform="translate(-33.074 14.765)" fill="#f69480"/>
    <path id="Trazado_144187" data-name="Trazado 144187" d="M134.617,93.307c-.107,8.213,1.12,16.507-1.333,24.613-.427,1.44-.947,2.853-1.427,4.267a44.307,44.307,0,0,1-7.547,11.24,2.48,2.48,0,0,0-.693,1.867q0,14.133.107,28.28A91.039,91.039,0,0,1,99.43,172.36c-.987.213-1.987.307-2.987.453l-.08-4c.507,0,.627-.373.733-.813a15.453,15.453,0,0,0,.067-6.587c-.107-.573.28-1.493-.8-1.653V137.693a22.347,22.347,0,0,0-3.627-12.813,23.813,23.813,0,0,0-8.76-7.693c-9.52-5.093-19-10.32-28.493-15.52a2.44,2.44,0,0,1-.413-.32l2.227-.387a6.387,6.387,0,0,0,6.76-6.667c0-12.613,0-25.213-.32-37.813-.2-8-.08-15.867-.093-23.787a40.36,40.36,0,0,1,4.333-4.973c3,.373,5.56,1.813,8.333,2.933v.373q.12,9.587.227,19.147c-.4.453-.24.987-.24,1.493v9.68c0,.56-.213,1.173.307,1.64v2.147s-.12,0-.12.08a1.586,1.586,0,0,0,.12.2v1.773a1.133,1.133,0,0,0-1.013,1.227A14.667,14.667,0,0,0,75.9,73.52a.76.76,0,0,0,.707.627v15.84a9.72,9.72,0,0,0,9.52,9.227c4.4,0,7.187-2.36,9.133-5.92l.693.347a15.228,15.228,0,0,0,.16,2.933,9.92,9.92,0,0,0,10.493,7.16,9.813,9.813,0,0,0,8.373-8.973H116.4c4,4.92,8.24,5.8,13.68,2.96,1.88-1,2.667-2.8,3.907-4.36Z" transform="translate(-25.743 3.835)" fill="#fcbc81"/>
    <path id="Trazado_144188" data-name="Trazado 144188" d="M57.781,38c-2.667.253-5.12,1.427-7.773,1.907-9.333,1.68-18.307-6.973-16.573-16,.187-.96.413-1.92.627-2.88h0l.253-.373c3.133-6.32,8.293-9.267,15.52-8.747a128.368,128.368,0,0,1,14.333,4.547,62.666,62.666,0,0,0,6.787,2.8c1.133.813,2.28,1.52,3.613.32l.36-.36h0a7.854,7.854,0,0,0,1.333-.293c5.84-2.4,11.773-4.587,17.747-6.667a21.8,21.8,0,0,1,8,0,14.293,14.293,0,0,1,10.92,15.507A14.427,14.427,0,0,1,97.794,40.051c-3.787-.227-7.293-1.693-10.84-2.907-1.013-.347-2.013-.72-3.027-1.08l-.4-.133c-2.667-1.12-5.333-2.587-8.267-2.947-.12-.893-.92-.947-1.547-1.24-1.827-.827-4-1.333-5.187-2.947-1.04-1.333-1.68-1.04-2.667,0C63.234,31.931,60.5,34.945,57.781,38Zm4.347-12c-1.64-.653-2.88-1.2-4.16-1.64-3.187-1.12-6.267-2.6-9.667-3.013a4.4,4.4,0,0,0-4.64,2.307,4.2,4.2,0,0,0,.267,5.053,4.733,4.733,0,0,0,5.187,1.853,116.118,116.118,0,0,0,13.013-4.6Zm22.147,0a98.04,98.04,0,0,0,12.573,4.44,4.787,4.787,0,0,0,5.627-1.893,4.387,4.387,0,0,0,0-5.08,4.853,4.853,0,0,0-5.373-2.08,90.974,90.974,0,0,0-12.827,4.587Z" transform="translate(-33.027 -1.456)" fill="#fc5da6"/>
    <path id="Trazado_144189" data-name="Trazado 144189" d="M65.225,22.092c-1.333,1.2-2.48.493-3.613-.32-.187-5.6-.44-11.187-.347-16.787,3.533-1.427,6.667-.547,9.68,1.467a12,12,0,0,1,3.227,5.573l-8.6,9.72h0Z" transform="translate(-23.684 -3.977)" fill="#fcbc81"/>
    <path id="Trazado_144190" data-name="Trazado 144190" d="M64.49,21.822l8.6-9.72,5.027-5.6a10.28,10.28,0,0,1,2.667-2.053c2.56-1.04,5.04,0,6.547,2.813A4.947,4.947,0,0,1,86,12.3c-.787.853-1.547,1.72-2.32,2.587C77.7,16.942,71.77,19.129,65.93,21.555a7.853,7.853,0,0,1-1.44.267Z" transform="translate(-22.603 -4.054)" fill="#fc3782"/>
    <path id="Trazado_144191" data-name="Trazado 144191" d="M62.87,4.81c-.093,5.6.16,11.187.347,16.787a62.664,62.664,0,0,1-6.787-2.8c.12-3.28-.4-6.667,1.107-9.747A9.973,9.973,0,0,1,62.87,4.81Z" transform="translate(-25.289 -3.802)" fill="#f69480"/>
    <path id="Trazado_144192" data-name="Trazado 144192" d="M34.063,18.43l-.253.373Z" transform="translate(-32.829 0.738)" fill="#def4fc"/>
    <path id="Trazado_144193" data-name="Trazado 144193" d="M86.05,126.77c1.08.16.693,1.08.8,1.653a15.454,15.454,0,0,1-.067,6.653c-.107.44-.227.76-.733.813Z" transform="translate(-15.416 36.852)" fill="#fcbc81"/>
    <path id="Trazado_144194" data-name="Trazado 144194" d="M109.605,90.623a9.813,9.813,0,0,1-8.4,9.04A9.92,9.92,0,0,1,90.712,92.5a15.225,15.225,0,0,1-.16-2.933V87.61a1.693,1.693,0,0,0-.693,1.547c-1.947,3.56-4.733,5.92-9.133,5.92a9.72,9.72,0,0,1-9.52-9.227v-27c.187-4.28-.36-8.573.387-12.84a9.333,9.333,0,0,1,5.733-5.88q0,19.653,0,39.333v8.173c0,1.093.453,1.6,1.573,1.933a9.227,9.227,0,0,0,4.227,0c3.6-.56,7.227-4.827,7.173-8.293-.147-8.76,0-17.507,0-26.267a12.454,12.454,0,0,1,.32-3.44,8.547,8.547,0,0,1,6.133-6.907V92.557a1.226,1.226,0,0,0,1.2,1.44,9.52,9.52,0,0,0,11.653-8.96v-27.8c1.24-2.853,2.907-5.333,6.107-6.4.547.453.36,1.08.36,1.627V87.557c0,1.067,0,1.787,1.507,2.013a10,10,0,0,0,10.747-5.333c.24-.467.12-1.227.933-1.333v3.84c-.373.387-.2.893-.267,1.333-.373.267-.32.667-.333,1.053-1.173,1.56-2.027,3.36-3.907,4.36-5.44,2.84-9.64,1.96-13.68-2.96l-1.467-2.947Z" transform="translate(-20.371 7.972)" fill="#f69480"/>
    <path id="Trazado_144195" data-name="Trazado 144195" d="M89.063,51.674a12.453,12.453,0,0,0-.32,3.44c0,8.76-.093,17.507,0,26.267,0,3.467-3.573,7.733-7.173,8.293a9.227,9.227,0,0,1-4.227,0c-1.12-.333-1.587-.84-1.573-1.933V40.234c6.84-2.253,12.867,1.893,12.947,8.88C88.77,50.007,88.45,50.9,89.063,51.674Z" transform="translate(-18.843 7.801)" fill="#fcbc81"/>
    <path id="Trazado_144196" data-name="Trazado 144196" d="M103.235,56.316v27.8a9.52,9.52,0,0,1-11.72,8.96c-.787-.173-1.333-.56-1.2-1.44V43.622a9.507,9.507,0,0,1,12.6,7.267A51.64,51.64,0,0,1,103.235,56.316Z" transform="translate(-14.001 8.946)" fill="#fcbc81"/>
    <path id="Trazado_144197" data-name="Trazado 144197" d="M118.147,80.437c-.813.107-.693.867-.933,1.333A10,10,0,0,1,106.467,87.1c-1.467-.227-1.507-.947-1.507-2.013V50c0-.547.187-1.173-.36-1.627,5.893-2.533,12.853,1.213,13.227,7.427Q118.573,68.144,118.147,80.437Z" transform="translate(-9.233 10.451)" fill="#fcbc81"/>
    <path id="Trazado_144198" data-name="Trazado 144198" d="M71.684,44.54c-.747,4.267-.2,8.56-.387,12.84-.52-.467-.307-1.08-.307-1.64V46.06c0-.507-.16-1.04.24-1.493Z" transform="translate(-20.45 9.442)" fill="#f2c5a4"/>
    <path id="Trazado_144199" data-name="Trazado 144199" d="M114.3,77.163a1.216,1.216,0,0,1,.333-1.053h.24v1.053Z" transform="translate(-5.999 19.965)" fill="#fcbc81"/>
    <path id="Trazado_144200" data-name="Trazado 144200" d="M114.794,76.453h-.24c0-.453-.107-.96.267-1.333C114.807,75.547,114.807,76,114.794,76.453Z" transform="translate(-5.92 19.635)" fill="#fcbc81"/>
    <path id="Trazado_144201" data-name="Trazado 144201" d="M71,29.92l.4.133-.4.24Z" transform="translate(-20.433 4.568)" fill="#f2c5a4"/>
    <path id="Trazado_144202" data-name="Trazado 144202" d="M56.843,99.72q0-29.56-.133-59.147c0-.613.2-1.333-.28-1.84,2.267-2.427,4.253-5.08,6.76-7.293,0,7.92-.107,15.853.093,23.787.32,12.6.307,25.2.32,37.813a6.387,6.387,0,0,1-6.76,6.68Z" transform="translate(-25.289 5.075)" fill="#f69480"/>
    <path id="Trazado_144203" data-name="Trazado 144203" d="M66.267,33.956c-2.507,2.213-4.493,4.867-6.76,7.293l-3.573,3.88a4.987,4.987,0,0,1-7,.747,4.587,4.587,0,0,1-.413-6.813c1.467-1.733,3.067-3.387,4.6-5.08,2.667-3.053,5.453-6.067,8.133-9.147.933-1.08,1.573-1.427,2.667,0,1.253,1.64,3.36,2.12,5.187,2.947.627.293,1.427.347,1.547,1.24a40.36,40.36,0,0,0-4.387,4.933Z" transform="translate(-28.366 2.559)" fill="#fc3681"/>
    <path id="Trazado_144204" data-name="Trazado 144204" d="M71.5,57.32v6.96a.76.76,0,0,1-.707-.627,14.667,14.667,0,0,1-.307-5.107A1.133,1.133,0,0,1,71.5,57.32Z" transform="translate(-20.637 13.702)" fill="#fcbc81"/>
    <path id="Trazado_144205" data-name="Trazado 144205" d="M100,78.76V75.72l1.48,3.04Z" transform="translate(-10.766 19.835)" fill="#fcbc81"/>
    <path id="Trazado_144206" data-name="Trazado 144206" d="M85.232,77.287a1.693,1.693,0,0,1,.693-1.547v1.893Z" transform="translate(-15.692 19.842)" fill="#fcbc81"/>
    <path id="Trazado_144207" data-name="Trazado 144207" d="M71.24,55.78v.293a1.586,1.586,0,0,1-.12-.2S71.2,55.807,71.24,55.78Z" transform="translate(-20.393 13.188)" fill="#f2c5a4"/>
    <path id="Trazado_144208" data-name="Trazado 144208" d="M64.23,17.73l.36-.36Z" transform="translate(-22.689 0.385)" fill="#fc3782"/>
  </g>
</svg>
