<svg id="img4" xmlns="http://www.w3.org/2000/svg" width="520" height="400" viewBox="0 0 520 400">
  <g id="Capa_1" data-name="Capa 1">
    <rect id="Rectángulo_36727" data-name="Rectángulo 36727" width="520" height="400" fill="none"/>
    <g id="Grupo_85783" data-name="Grupo 85783">
      <path id="Trazado_154460" data-name="Trazado 154460" d="M140.33,257.44l-.73-136.86H390.23l.73,136.86Z" fill="#93b3d8" opacity="0.6"/>
      <g id="Grupo_85782" data-name="Grupo 85782">
        <path id="Trazado_154461" data-name="Trazado 154461" d="M135.94,252.43l-.72-136.86H385.85l.72,136.86Z" fill="#fff"/>
        <g id="Grupo_85781" data-name="Grupo 85781">
          <rect id="Rectángulo_36728" data-name="Rectángulo 36728" width="250.63" height="10.53" transform="translate(135.22 115.57)" fill="#4480bf"/>
          <path id="Trazado_154462" data-name="Trazado 154462" d="M198.11,124.37l-2.48-4.09a3.19,3.19,0,0,0-2.83-1.73H161.7a3.18,3.18,0,0,0-2.83,1.73l-2.48,4.09a3.19,3.19,0,0,1-2.83,1.73H135.22v8.26H385.84V126.1H200.94a3.18,3.18,0,0,1-2.83-1.73Z" fill="#e6e6e6"/>
          <path id="Trazado_154463" data-name="Trazado 154463" d="M233.79,124.4h-32.6a1.05,1.05,0,0,1-.91-.54l-2.1-3.76a1,1,0,0,1,.91-1.55h32.6a1,1,0,0,1,.9.54l2.11,3.76a1,1,0,0,1-.91,1.55Z" fill="#d3d3d3"/>
          <path id="Trazado_154464" data-name="Trazado 154464" d="M247.08,124.4h-8.33a1,1,0,0,1-.9-.54l-2.11-3.76a1,1,0,0,1,.91-1.55H245a1.05,1.05,0,0,1,.91.54l2.1,3.76a1,1,0,0,1-.93,1.55Z" fill="#d3d3d3"/>
          <g id="Grupo_85778" data-name="Grupo 85778">
            <circle id="Elipse_6937" data-name="Elipse 6937" cx="1.87" cy="1.87" r="1.87" transform="translate(143.85 119.75)" fill="#e2e2e2"/>
            <circle id="Elipse_6938" data-name="Elipse 6938" cx="1.87" cy="1.87" r="1.87" transform="translate(149.29 119.75)" fill="#c4c4c4"/>
            <circle id="Elipse_6939" data-name="Elipse 6939" cx="1.87" cy="1.87" r="1.87" transform="translate(138.14 123.176) rotate(-80.78)" fill="#fff"/>
          </g>
          <rect id="Rectángulo_36729" data-name="Rectángulo 36729" width="221.51" height="4.93" rx="1.2" transform="translate(155.16 127.81)" fill="#fff"/>
          <g id="Grupo_85779" data-name="Grupo 85779">
            <path id="Trazado_154465" data-name="Trazado 154465" d="M143.94,132.37v-4.18l-4.18,2.09Z" fill="#b3b3b3"/>
            <path id="Trazado_154466" data-name="Trazado 154466" d="M147.5,132.37v-4.18l4.18,2.09Z" fill="#b3b3b3"/>
          </g>
          <g id="Grupo_85780" data-name="Grupo 85780">
            <path id="Trazado_154467" data-name="Trazado 154467" d="M383.86,129.71h-5.19a.33.33,0,0,1-.33-.33h0a.32.32,0,0,1,.33-.33h5.19a.33.33,0,0,1,.33.33h0A.33.33,0,0,1,383.86,129.71Z" fill="#b3b3b3"/>
            <rect id="Rectángulo_36730" data-name="Rectángulo 36730" width="5.85" height="0.66" rx="0.16" transform="translate(378.34 130.56)" fill="#b3b3b3"/>
            <path id="Trazado_154468" data-name="Trazado 154468" d="M383.86,128.19h-5.19a.32.32,0,0,1-.33-.33h0a.33.33,0,0,1,.33-.33h5.19a.33.33,0,0,1,.33.33h0A.33.33,0,0,1,383.86,128.19Z" fill="#b3b3b3"/>
            <rect id="Rectángulo_36731" data-name="Rectángulo 36731" width="5.85" height="0.66" rx="0.16" transform="translate(378.34 132.07)" fill="#b3b3b3"/>
          </g>
        </g>
      </g>
    </g>
    <g id="Grupo_85784" data-name="Grupo 85784">
      <path id="Trazado_154469" data-name="Trazado 154469" d="M267.2,155.17V153.7a4.31,4.31,0,0,0-4.31-4.31H218a4.31,4.31,0,0,0-4.31,4.31v77.72H320.76V159.48a4.31,4.31,0,0,0-4.31-4.31Z" fill="#bf7d1d"/>
      <rect id="Rectángulo_36732" data-name="Rectángulo 36732" width="98.61" height="70.83" transform="translate(218.4 161.38)" fill="#fff"/>
      <path id="Trazado_154470" data-name="Trazado 154470" d="M265.67,170.23l-1.59,4.41H218a4.31,4.31,0,0,0-4.31,4.31v54.87a4.31,4.31,0,0,0,4.31,4.31h98.5a4.31,4.31,0,0,0,4.31-4.31V171.69a4.31,4.31,0,0,0-4.31-4.31H269.73A4.32,4.32,0,0,0,265.67,170.23Z" fill="#ffa726"/>
      <path id="Trazado_154471" data-name="Trazado 154471" d="M320.76,233.82V198.05C291,227,239.4,234.73,214.84,236.8a4.29,4.29,0,0,0,3.11,1.33h98.5a4.31,4.31,0,0,0,4.31-4.31Z" fill="#ffb951"/>
      <path id="Trazado_154472" data-name="Trazado 154472" d="M257.14,178.11H220.72a3.48,3.48,0,0,0-3.48,3.48v7.71C223.36,185.1,237.19,179.81,257.14,178.11Z" fill="#ffb951"/>
    </g>
    <path id="Trazado_160430" data-name="Trazado 160430" d="M8.206-16.664H11.64V-5.128a5.517,5.517,0,0,1-.7,2.81A4.777,4.777,0,0,1,8.95-.435a6.2,6.2,0,0,1-2.9.664,5.9,5.9,0,0,1-4.12-1.345A4.886,4.886,0,0,1,.458-4.921H3.914a2.679,2.679,0,0,0,.515,1.808,2.061,2.061,0,0,0,1.625.584A1.967,1.967,0,0,0,7.623-3.2a2.853,2.853,0,0,0,.584-1.923ZM23.223-4.372a1.762,1.762,0,0,0-.687-1.494,9.007,9.007,0,0,0-2.472-1.1A17.525,17.525,0,0,1,17.237-8.1Q14.4-9.637,14.4-12.235a4.024,4.024,0,0,1,.761-2.409A4.965,4.965,0,0,1,17.345-16.3a8.228,8.228,0,0,1,3.2-.6,7.489,7.489,0,0,1,3.182.647A5.066,5.066,0,0,1,25.9-14.421a4.777,4.777,0,0,1,.773,2.678H23.234a2.247,2.247,0,0,0-.721-1.78,2.964,2.964,0,0,0-2.026-.635,3.167,3.167,0,0,0-1.957.532,1.679,1.679,0,0,0-.7,1.4,1.608,1.608,0,0,0,.818,1.362,9.246,9.246,0,0,0,2.409,1.03,10.41,10.41,0,0,1,4.269,2.186,4.354,4.354,0,0,1,1.339,3.25A4.01,4.01,0,0,1,25.031-1,7.165,7.165,0,0,1,20.624.229a8.509,8.509,0,0,1-3.5-.7A5.542,5.542,0,0,1,14.713-2.4a4.939,4.939,0,0,1-.83-2.838h3.445q0,2.758,3.3,2.758a3.207,3.207,0,0,0,1.911-.5A1.62,1.62,0,0,0,23.223-4.372Zm9.2-1.5V0H28.991V-16.664h6.5a7.521,7.521,0,0,1,3.3.687,5.06,5.06,0,0,1,2.192,1.951,5.441,5.441,0,0,1,.767,2.878,4.785,4.785,0,0,1-1.677,3.863,6.984,6.984,0,0,1-4.641,1.413Zm0-2.781h3.067a3.016,3.016,0,0,0,2.077-.641,2.331,2.331,0,0,0,.715-1.831,2.749,2.749,0,0,0-.721-1.98,2.693,2.693,0,0,0-1.991-.778H32.425Z" transform="translate(244.09 217.18)" fill="#12263f"/>
    <g id="Grupo_85786" data-name="Grupo 85786">
      <g id="Grupo_85785" data-name="Grupo 85785">
        <path id="Trazado_154473" data-name="Trazado 154473" d="M159,329.74a27.32,27.32,0,1,1-27.323-27.33A27.32,27.32,0,0,1,159,329.74Z" fill="#039be5"/>
        <path id="Trazado_154474" data-name="Trazado 154474" d="M157.49,338.58l-11.23-11.24a7,7,0,0,0-4.37-2.27l-1.57-1.57a9.19,9.19,0,0,0-15.56,3.62h-.22a5.9,5.9,0,0,0-5.84,5h-.06a3.39,3.39,0,0,0-3.29,2.56.56.56,0,0,1,0,.12v.19h0a.43.43,0,0,0,0,.11h0a.76.76,0,0,0,0,.15h0v.15a3.39,3.39,0,0,0,1.28,2.66l18.65,18.65a27.36,27.36,0,0,0,22.21-18.13Z" fill="#02749e"/>
      </g>
      <path id="Trazado_154475" data-name="Trazado 154475" d="M118.64,332.13h.06a5.9,5.9,0,0,1,5.84-5h.22A9.19,9.19,0,0,1,141.47,325a6.95,6.95,0,0,1-.39,13.88H118.64a3.4,3.4,0,1,1,0-6.79Z" fill="#fff"/>
      <path id="Trazado_154476" data-name="Trazado 154476" d="M141.08,337.25H118.64a3.39,3.39,0,0,1-3.29-2.56,3.321,3.321,0,0,0-.11.83,3.4,3.4,0,0,0,3.4,3.4h22.44A6.94,6.94,0,0,0,148,332a5.75,5.75,0,0,0-.05-.84,6.94,6.94,0,0,1-6.87,6.09Z" fill="#3398db"/>
    </g>
    <g id="Grupo_85788" data-name="Grupo 85788">
      <g id="Grupo_85787" data-name="Grupo 85787">
        <path id="Trazado_154477" data-name="Trazado 154477" d="M135.22,28.38a27.327,27.327,0,1,0,0,54.655L121.25,68.75c-2.47-3.22-5.15-8.68-5.15-13a19.11,19.11,0,0,1,32.62-13.53l.62.61,13.2,13.16V55.7a27.33,27.33,0,0,0-27.32-27.32Z" fill="#039be5"/>
        <path id="Trazado_154478" data-name="Trazado 154478" d="M162.54,55.94l-13.2-13.16-.62-.61A19.11,19.11,0,0,0,116.1,55.7c0,4.37,2.68,9.83,5.15,13L135.19,83h0a27.33,27.33,0,0,0,27.35-27.06Z" fill="#02749e"/>
      </g>
      <path id="Trazado_154479" data-name="Trazado 154479" d="M135.22,36.58A19.13,19.13,0,1,0,154.34,55.7,19.13,19.13,0,0,0,135.22,36.58Zm0,37.34c-1.73,0-3.33-1.88-4.54-4.91a27,27,0,0,0,4.09.39v4.43h.91V69.4a27,27,0,0,0,4.08-.39C138.55,72,137,73.92,135.22,73.92ZM122.42,55.7a24.461,24.461,0,0,1,.3-3.87,36,36,0,0,1,5.12-1,48.441,48.441,0,0,0,0,9.83,36,36,0,0,1-5.12-1,24.5,24.5,0,0,1-.3-3.96Zm-.66,3.58c-3-1-4.75-2.31-4.75-3.58s1.72-2.56,4.75-3.57a26.75,26.75,0,0,0,0,7.15Zm6.74-3.58a45.143,45.143,0,0,1,.27-5,55.12,55.12,0,0,1,6-.35V61.08a55.119,55.119,0,0,1-6-.35,45.189,45.189,0,0,1-.27-5.03Zm7.18-12.78a25,25,0,0,1,4.45.46,33.88,33.88,0,0,1,1.44,6.4,54.322,54.322,0,0,0-5.89-.35Zm0-.91V37.53c1.55.3,3,2.1,4.08,4.87a27,27,0,0,0-4.08-.4Zm-.91-4.48V42a27,27,0,0,0-4.09.39c1.1-2.76,2.53-4.56,4.09-4.86Zm0,5.39v6.51a54,54,0,0,0-5.89.35,33.12,33.12,0,0,1,1.44-6.4,24.669,24.669,0,0,1,4.45-.46Zm0,19.07V68.5a25.59,25.59,0,0,1-4.45-.47,33.12,33.12,0,0,1-1.44-6.4,56.62,56.62,0,0,0,5.89.37Zm.91,6.51V62a57,57,0,0,0,5.89-.36,33.882,33.882,0,0,1-1.44,6.4A25.91,25.91,0,0,1,135.68,68.5Zm0-7.42V50.33a54.932,54.932,0,0,1,6,.35,45.229,45.229,0,0,1,0,10,54.928,54.928,0,0,1-6,.4Zm6.92-10.29a36.411,36.411,0,0,1,5.13,1,26,26,0,0,1,0,7.75,36.411,36.411,0,0,1-5.13,1,48.44,48.44,0,0,0,0-9.83Zm6.08,1.34c3,1,4.76,2.32,4.76,3.57s-1.73,2.57-4.76,3.58a26.751,26.751,0,0,0,0-7.15Zm-.15-1A23.541,23.541,0,0,0,147,46a12.72,12.72,0,0,1,6.15,7.5,13,13,0,0,0-4.62-2.34Zm-1-.28a40.211,40.211,0,0,0-5.06-1,34.921,34.921,0,0,0-1.32-6.29,21.9,21.9,0,0,1,4.51,1.63,22.25,22.25,0,0,1,1.9,5.69Zm-6.74-8.28A12.89,12.89,0,0,0,138.11,38a13,13,0,0,1,6.86,6,24,24,0,0,0-4.15-1.4Zm-11.2,0a24,24,0,0,0-4.15,1.33,13,13,0,0,1,6.86-6,13,13,0,0,0-2.68,4.7Zm-.35,1a34,34,0,0,0-1.33,6.29,40.209,40.209,0,0,0-5.06,1,21.87,21.87,0,0,1,1.88-5.64,21.491,21.491,0,0,1,4.54-1.61Zm-7.36,7.55a12.89,12.89,0,0,0-4.62,2.29,12.76,12.76,0,0,1,6.15-7.5,24.09,24.09,0,0,0-1.5,5.25Zm0,9.09a24.09,24.09,0,0,0,1.53,5.21,12.76,12.76,0,0,1-6.15-7.5,12.73,12.73,0,0,0,4.65,2.33Zm1,.28a40.161,40.161,0,0,0,5.06,1,33.932,33.932,0,0,0,1.33,6.28,21.49,21.49,0,0,1-4.51-1.63,21.87,21.87,0,0,1-1.88-5.61Zm6.74,8.28a13,13,0,0,0,2.71,4.64,13,13,0,0,1-6.86-6,23.149,23.149,0,0,0,4.15,1.4Zm11.2,0A23.15,23.15,0,0,0,145,67.48a13,13,0,0,1-6.86,6,12.889,12.889,0,0,0,2.68-4.67Zm.36-1a34.8,34.8,0,0,0,1.32-6.28,40.161,40.161,0,0,0,5.06-1,22.251,22.251,0,0,1-1.87,5.64,21.9,21.9,0,0,1-4.51,1.67Zm7.35-7.55A12.82,12.82,0,0,0,153.15,58,12.72,12.72,0,0,1,147,65.5a23.541,23.541,0,0,0,1.53-5.25Zm3.9-10.51a16,16,0,0,0-6.08-5.16,16.31,16.31,0,0,0-5.16-6.09,18.31,18.31,0,0,1,11.24,11.28ZM129.25,38.49a16.31,16.31,0,0,0-5.16,6.09A16.1,16.1,0,0,0,118,49.74,18.34,18.34,0,0,1,129.25,38.49ZM118,61.67a16.3,16.3,0,0,0,6.08,5.17,16.28,16.28,0,0,0,5.16,6.08A18.31,18.31,0,0,1,118,61.67Zm23.18,11.25a16.28,16.28,0,0,0,5.16-6.08,16.22,16.22,0,0,0,6.08-5.17,18.29,18.29,0,0,1-11.23,11.25Z" fill="#fff"/>
    </g>
    <g id="Grupo_85790" data-name="Grupo 85790">
      <g id="Grupo_85789" data-name="Grupo 85789">
        <path id="Trazado_154480" data-name="Trazado 154480" d="M96.22,192.45A27.32,27.32,0,1,1,68.9,165.12,27.32,27.32,0,0,1,96.22,192.45Z" fill="#039be5"/>
        <path id="Trazado_154481" data-name="Trazado 154481" d="M96.22,192.45v-1.69L83.38,178a6.54,6.54,0,0,0-9.26,0l-7.39,7.39a2,2,0,0,0,0,2.78L68.54,190h0l-2.13,2.13h0l-1.81-1.81a2,2,0,0,0-2.78,0l-7.4,7.39a6.56,6.56,0,0,0,0,9.26l12.8,12.79H68.9a27.32,27.32,0,0,0,27.32-27.31Z" fill="#02749e"/>
      </g>
      <path id="Trazado_154482" data-name="Trazado 154482" d="M69.68,196.17a1.91,1.91,0,0,0-1.39.58l-7.4,7.39a2.606,2.606,0,0,1-3.68-3.69l7.39-7.39a1.969,1.969,0,1,0-2.78-2.79l-7.4,7.39a6.55,6.55,0,0,0,4.63,11.18,6.48,6.48,0,0,0,4.63-1.92l7.39-7.39a2,2,0,0,0,0-2.78,1.93,1.93,0,0,0-1.39-.58Z" fill="#ecf0f0"/>
      <path id="Trazado_154483" data-name="Trazado 154483" d="M83.38,178a6.54,6.54,0,0,0-9.26,0l-7.39,7.39a2,2,0,0,0,0,2.78,1.93,1.93,0,0,0,1.39.58,2,2,0,0,0,1.4-.58l7.38-7.39a2.609,2.609,0,1,1,3.69,3.69l-7.39,7.39a1.973,1.973,0,0,0,2.79,2.79l7.39-7.39a6.56,6.56,0,0,0,0-9.26Z" fill="#ecf0f0"/>
      <path id="Trazado_154484" data-name="Trazado 154484" d="M62.2,197.17a2,2,0,0,0,2,2,1.94,1.94,0,0,0,1.39-.57L75,189.1a1.89,1.89,0,0,0,.58-1.38,2,2,0,0,0-3.36-1.4l-9.46,9.46a2,2,0,0,0-.56,1.39Z" fill="#c8cdd2"/>
    </g>
    <g id="Grupo_85792" data-name="Grupo 85792">
      <g id="Grupo_85791" data-name="Grupo 85791">
        <path id="Trazado_154485" data-name="Trazado 154485" d="M406.58,329.73a27.25,27.25,0,1,1-27.247-27.24,27.25,27.25,0,0,1,27.247,27.24Z" fill="#039be5"/>
        <path id="Trazado_154486" data-name="Trazado 154486" d="M406.58,329.73a27.333,27.333,0,0,0-.56-5.46l-10.87-10.88-.86.18-19.72,4.36.05.23h0v21c-1.26-1-3.63-1.33-6.09-.63-3.27.93-5.46,3.29-4.89,5.27a2.39,2.39,0,0,0,.77,1.18l11.79,11.79a27.19,27.19,0,0,0,30.4-27.06Z" fill="#02749e"/>
      </g>
      <path id="Trazado_154487" data-name="Trazado 154487" d="M394.29,313.57l-19.72,4.36.05.23h0v21c-1.26-1-3.63-1.33-6.09-.63-3.27.93-5.46,3.29-4.89,5.27s3.67,2.82,6.93,1.88c2.78-.8,4.78-2.62,5-4.36h0v-19.6l18.67-4.12v19.27c-1.26-1-3.63-1.35-6.09-.64-3.27.94-5.46,3.29-4.89,5.27s3.67,2.81,6.94,1.88c2.77-.8,4.77-2.62,5-4.36h0V313.39Z" fill="#ffa726"/>
    </g>
    <g id="Grupo_85794" data-name="Grupo 85794">
      <g id="Grupo_85793" data-name="Grupo 85793">
        <path id="Trazado_154488" data-name="Trazado 154488" d="M496.91,197.57a27.24,27.24,0,1,1-27.24-27.24,27.24,27.24,0,0,1,27.24,27.24Z" fill="#039be5"/>
        <path id="Trazado_154489" data-name="Trazado 154489" d="M496.91,197.57a27.171,27.171,0,0,0-1.36-8.5L485,178.53H454.39v38.11l6.89,6.87a27.27,27.27,0,0,0,35.68-25.91Z" fill="#02749e"/>
      </g>
      <path id="Trazado_154490" data-name="Trazado 154490" d="M466.14,182.31a3,3,0,1,1-3,3A3,3,0,0,1,466.14,182.31Z" fill="#f1c30f"/>
      <path id="Trazado_154491" data-name="Trazado 154491" d="M454.38,178.5v38.11H485v-38.1ZM482.66,196v11.6h-3.49l-8.88-8.91,7.54-7.52,4.83,4.84v-1.44l-4.82-4.84-8.26,8.24-5.77-5.78-7.11,7.07v1.44l7.1-7.07,5,5,.37.37.36.36,8.16,8.19h0l-.06.07h-21v-.1h0V180.76h26Z" fill="#ecf0f0"/>
      <path id="Trazado_154492" data-name="Trazado 154492" d="M482.67,180.81V196h0v-1.44l-4.82-4.84-8.26,8.24-5.77-5.78-7.11,7.07v.72h0V180.82Zm-13.53,4.5a3,3,0,1,0-3,3A3,3,0,0,0,469.14,185.31Z" fill="#97ccf6"/>
      <path id="Trazado_154493" data-name="Trazado 154493" d="M482.66,195.96l-.01,11.6h-3.5l-8.87-8.92,7.54-7.52,4.83,4.84Z" fill="#229c97"/>
      <path id="Trazado_154494" data-name="Trazado 154494" d="M456.69,200.65l7.1-7.07,5.04,5.05.37.37.36.36,8.16,8.2.04.03-.06.07-8.4-.01h-2.92l-9.7-.01v-.1h0v-7.61h.01Z" fill="#40bdbd"/>
    </g>
    <g id="Grupo_85796" data-name="Grupo 85796">
      <g id="Grupo_85795" data-name="Grupo 85795">
        <path id="Trazado_154495" data-name="Trazado 154495" d="M406.66,55.7a27.32,27.32,0,1,1-27.32-27.32A27.32,27.32,0,0,1,406.66,55.7Z" fill="#039be5"/>
        <path id="Trazado_154496" data-name="Trazado 154496" d="M406,61.79l-9.4-9.17-24.64,1h-.23l-.95-.94a1.51,1.51,0,0,0-1.12-.6h-6.7l.3,1.54.3,1.53.26,1.35a1.519,1.519,0,0,0-.22.72,1.79,1.79,0,0,0,.62,1.35l1.76,9L381.3,83A27.36,27.36,0,0,0,406,61.79Z" fill="#02749e"/>
      </g>
      <path id="Trazado_154497" data-name="Trazado 154497" d="M373.8,49.22a2.4,2.4,0,0,0-2.05-2h-8.81l.4,2,.39,2,3.18,16.35h25.21L388.56,49.2Z" fill="#f39b12"/>
      <path id="Trazado_154498" data-name="Trazado 154498" d="M396.58,52.62H371.36l-3.97,15.05h25.23Z" fill="#f1c30f"/>
    </g>
    <g id="Grupo_85797" data-name="Grupo 85797">
      <line id="Línea_437" data-name="Línea 437" y1="1.5" transform="translate(307.92 151.72)" fill="none" stroke="#4480bf" stroke-miterlimit="10" stroke-width="1"/>
      <line id="Línea_438" data-name="Línea 438" y1="46.81" transform="translate(307.92 101.89)" fill="none" stroke="#4480bf" stroke-miterlimit="10" stroke-width="1" stroke-dasharray="3.02 3.02"/>
      <path id="Trazado_154499" data-name="Trazado 154499" d="M307.92,100.38v-1.5h1.5" fill="none" stroke="#4480bf" stroke-miterlimit="10" stroke-width="1"/>
      <line id="Línea_439" data-name="Línea 439" x2="63.95" transform="translate(312.4 98.88)" fill="none" stroke="#4480bf" stroke-miterlimit="10" stroke-width="1" stroke-dasharray="2.97 2.97"/>
      <path id="Trazado_154500" data-name="Trazado 154500" d="M377.83,98.88h1.5v-1.5" fill="none" stroke="#4480bf" stroke-miterlimit="10" stroke-width="1"/>
      <line id="Línea_440" data-name="Línea 440" y1="9" transform="translate(379.34 85.81)" fill="none" stroke="#4480bf" stroke-miterlimit="10" stroke-width="1" stroke-dasharray="2.57 2.57"/>
      <line id="Línea_441" data-name="Línea 441" y1="1.5" transform="translate(379.34 83.03)" fill="none" stroke="#4480bf" stroke-miterlimit="10" stroke-width="1"/>
    </g>
    <g id="Grupo_85798" data-name="Grupo 85798">
      <line id="Línea_442" data-name="Línea 442" y1="1.5" transform="translate(232.09 151.72)" fill="none" stroke="#4480bf" stroke-miterlimit="10" stroke-width="1"/>
      <line id="Línea_443" data-name="Línea 443" y1="46.81" transform="translate(232.09 101.89)" fill="none" stroke="#4480bf" stroke-miterlimit="10" stroke-width="1" stroke-dasharray="3.02 3.02"/>
      <path id="Trazado_154501" data-name="Trazado 154501" d="M232.09,100.38v-1.5h-1.5" fill="none" stroke="#4480bf" stroke-miterlimit="10" stroke-width="1"/>
      <line id="Línea_444" data-name="Línea 444" x1="92.37" transform="translate(135.29 98.88)" fill="none" stroke="#4480bf" stroke-miterlimit="10" stroke-width="1" stroke-dasharray="2.93 2.93"/>
      <path id="Trazado_154502" data-name="Trazado 154502" d="M133.83,98.88h-1.5v-1.5" fill="none" stroke="#4480bf" stroke-miterlimit="10" stroke-width="1"/>
      <line id="Línea_445" data-name="Línea 445" y1="9" transform="translate(132.33 85.81)" fill="none" stroke="#4480bf" stroke-miterlimit="10" stroke-width="1" stroke-dasharray="2.57 2.57"/>
      <line id="Línea_446" data-name="Línea 446" y1="1.5" transform="translate(132.33 83.03)" fill="none" stroke="#4480bf" stroke-miterlimit="10" stroke-width="1"/>
    </g>
    <g id="Grupo_85799" data-name="Grupo 85799">
      <line id="Línea_447" data-name="Línea 447" y2="1.5" transform="translate(307.92 236.75)" fill="none" stroke="#4480bf" stroke-miterlimit="10" stroke-width="1"/>
      <line id="Línea_448" data-name="Línea 448" y2="42.59" transform="translate(307.92 241.4)" fill="none" stroke="#4480bf" stroke-miterlimit="10" stroke-width="1" stroke-dasharray="3.15 3.15"/>
      <path id="Trazado_154503" data-name="Trazado 154503" d="M307.92,285.57v1.5h1.5" fill="none" stroke="#4480bf" stroke-miterlimit="10" stroke-width="1"/>
      <line id="Línea_449" data-name="Línea 449" x2="63.95" transform="translate(312.4 287.07)" fill="none" stroke="#4480bf" stroke-miterlimit="10" stroke-width="1" stroke-dasharray="2.97 2.97"/>
      <path id="Trazado_154504" data-name="Trazado 154504" d="M377.83,287.07h1.5v1.5" fill="none" stroke="#4480bf" stroke-miterlimit="10" stroke-width="1"/>
      <line id="Línea_450" data-name="Línea 450" y2="8.18" transform="translate(379.34 290.9)" fill="none" stroke="#4480bf" stroke-miterlimit="10" stroke-width="1" stroke-dasharray="2.34 2.34"/>
      <line id="Línea_451" data-name="Línea 451" y2="1.5" transform="translate(379.34 300.25)" fill="none" stroke="#4480bf" stroke-miterlimit="10" stroke-width="1"/>
    </g>
    <g id="Grupo_85800" data-name="Grupo 85800">
      <line id="Línea_452" data-name="Línea 452" y2="1.5" transform="translate(232.09 236.75)" fill="none" stroke="#4480bf" stroke-miterlimit="10" stroke-width="1"/>
      <line id="Línea_453" data-name="Línea 453" y2="42.59" transform="translate(232.09 241.4)" fill="none" stroke="#4480bf" stroke-miterlimit="10" stroke-width="1" stroke-dasharray="3.15 3.15"/>
      <path id="Trazado_154505" data-name="Trazado 154505" d="M232.09,285.57v1.5h-1.5" fill="none" stroke="#4480bf" stroke-miterlimit="10" stroke-width="1"/>
      <line id="Línea_454" data-name="Línea 454" x1="92.37" transform="translate(135.29 287.07)" fill="none" stroke="#4480bf" stroke-miterlimit="10" stroke-width="1" stroke-dasharray="2.93 2.93"/>
      <path id="Trazado_154506" data-name="Trazado 154506" d="M133.83,287.07h-1.5v1.5" fill="none" stroke="#4480bf" stroke-miterlimit="10" stroke-width="1"/>
      <line id="Línea_455" data-name="Línea 455" y2="8.18" transform="translate(132.33 290.9)" fill="none" stroke="#4480bf" stroke-miterlimit="10" stroke-width="1" stroke-dasharray="2.34 2.34"/>
      <line id="Línea_456" data-name="Línea 456" y2="1.5" transform="translate(132.33 300.25)" fill="none" stroke="#4480bf" stroke-miterlimit="10" stroke-width="1"/>
    </g>
    <line id="Línea_457" data-name="Línea 457" x1="116.99" transform="translate(96.65 193.58)" fill="none" stroke="#4480bf" stroke-miterlimit="10" stroke-width="1" stroke-dasharray="3"/>
    <line id="Línea_458" data-name="Línea 458" x1="116.99" transform="translate(320.84 193.58)" fill="none" stroke="#4480bf" stroke-miterlimit="10" stroke-width="1" stroke-dasharray="3"/>
  </g>
</svg>
