<svg xmlns="http://www.w3.org/2000/svg" width="520" height="400" viewBox="0 0 520 400">
  <g id="img5" transform="translate(-857 -2420)">
    <g id="Capa_1" data-name="Capa 1" transform="translate(857 2420)">
      <rect id="Rectángulo_36838" data-name="Rectángulo 36838" width="520" height="400" fill="none"/>
      <g id="Grupo_85903" data-name="Grupo 85903">
        <rect id="Rectángulo_36839" data-name="Rectángulo 36839" width="490.46" height="337.75" rx="2.69" transform="translate(14.77 31.12)" fill="#202e3e"/>
        <path id="Trazado_154867" data-name="Trazado 154867" d="M498.94,37.41V362.59H21.06V37.41H498.94m3.6-12.57H17.46a9,9,0,0,0-9,9V366.18a9,9,0,0,0,9,9H502.54a9,9,0,0,0,9-9V33.82a9,9,0,0,0-9-9Z" fill="#2a3d52"/>
        <path id="Trazado_154868" data-name="Trazado 154868" d="M17.46,24.84H502.54a9,9,0,0,1,9,9V50H8.48V33.82a9,9,0,0,1,8.98-8.98Z" fill="#2a3d52"/>
        <path id="Trazado_154869" data-name="Trazado 154869" d="M365.1,44.6H154.9a7.18,7.18,0,0,1-7.18-7.19h0a7.17,7.17,0,0,1,7.18-7.18H365.1a7.17,7.17,0,0,1,7.18,7.18h0a7.18,7.18,0,0,1-7.18,7.19Z" fill="#515b73"/>
        <path id="Trazado_154870" data-name="Trazado 154870" d="M104.69,44.49H83.13A7.18,7.18,0,0,1,76,37.3h0a7.18,7.18,0,0,1,7.18-7.19h21.56a7.19,7.19,0,0,1,7.19,7.19h0a7.19,7.19,0,0,1-7.24,7.19Z" fill="#515c73"/>
        <g id="icons">
          <path id="Trazado_154871" data-name="Trazado 154871" d="M83.67,37.3l2.86-2.86a.45.45,0,0,0-.63-.63L82.72,37a.47.47,0,0,0,0,.64l3.18,3.17a.44.44,0,0,0,.32.13.42.42,0,0,0,.31-.13.43.43,0,0,0,0-.63Z" fill="#a7b0b7"/>
          <path id="Trazado_154872" data-name="Trazado 154872" d="M105.4,37l-3.18-3.17a.45.45,0,0,0-.63.63l2.85,2.86-2.85,2.86a.44.44,0,0,0,0,.63.42.42,0,0,0,.31.13.44.44,0,0,0,.32-.13l3.18-3.17A.47.47,0,0,0,105.4,37Z" fill="#a7b0b7"/>
          <g id="Grupo_85898" data-name="Grupo 85898">
            <path id="Trazado_154873" data-name="Trazado 154873" d="M477.83,37.64h-7.18a.45.45,0,1,1,0-.9h7.18a.45.45,0,1,1,0,.9Z" fill="#a7b0b7"/>
            <path id="Trazado_154874" data-name="Trazado 154874" d="M474.24,41.23a.45.45,0,0,1-.45-.45V33.59a.45.45,0,0,1,.9,0v7.19A.45.45,0,0,1,474.24,41.23Z" fill="#a7b0b7"/>
          </g>
          <g id="Grupo_85901" data-name="Grupo 85901">
            <g id="Grupo_85899" data-name="Grupo 85899">
              <rect id="Rectángulo_36840" data-name="Rectángulo 36840" width="5.39" height="5.39" rx="1.2" transform="translate(492.35 33.82)" fill="#2a3d52"/>
              <path id="Trazado_154875" data-name="Trazado 154875" d="M496.85,39.66h-3.6a1.35,1.35,0,0,1-1.34-1.35V34.72a1.34,1.34,0,0,1,1.34-1.35h3.6a1.34,1.34,0,0,1,1.34,1.35v3.59a1.35,1.35,0,0,1-1.34,1.35Zm-3.6-5.39a.45.45,0,0,0-.45.45v3.59a.45.45,0,0,0,.45.45h3.6a.45.45,0,0,0,.45-.45V34.72a.45.45,0,0,0-.45-.45Z" fill="#a7b0b7"/>
            </g>
            <g id="Grupo_85900" data-name="Grupo 85900">
              <rect id="Rectángulo_36841" data-name="Rectángulo 36841" width="5.39" height="5.39" rx="1.2" transform="translate(490.56 35.62)" fill="#2a3d52"/>
              <path id="Trazado_154876" data-name="Trazado 154876" d="M495.05,41.45h-3.59a1.34,1.34,0,0,1-1.35-1.34v-3.6a1.34,1.34,0,0,1,1.35-1.34h3.59a1.35,1.35,0,0,1,1.35,1.34v3.6a1.35,1.35,0,0,1-1.35,1.34Zm-3.59-5.39a.45.45,0,0,0-.45.45v3.6a.45.45,0,0,0,.45.45h3.59a.45.45,0,0,0,.45-.45v-3.6a.45.45,0,0,0-.45-.45Z" fill="#a7b0b7"/>
            </g>
          </g>
          <g id="Grupo_85902" data-name="Grupo 85902">
            <path id="Trazado_154877" data-name="Trazado 154877" d="M365,36.51a.45.45,0,0,1-.45-.45v-1.8a.45.45,0,1,1,.9,0v1.8A.45.45,0,0,1,365,36.51Z" fill="#a7b0b7"/>
            <path id="Trazado_154878" data-name="Trazado 154878" d="M365,36.51h-1.8a.45.45,0,1,1,0-.9H365a.45.45,0,0,1,0,.9Z" fill="#a7b0b7"/>
            <path id="Trazado_154879" data-name="Trazado 154879" d="M361.89,41a3.6,3.6,0,1,1,3-5.6.45.45,0,1,1-.74.5,2.7,2.7,0,1,0,.25,2.56.44.44,0,0,1,.58-.24.45.45,0,0,1,.24.59A3.58,3.58,0,0,1,361.89,41Z" fill="#a7b0b7"/>
          </g>
          <path id="Trazado_154880" data-name="Trazado 154880" d="M162.77,40.77,161,39h-.07a3.52,3.52,0,0,0,.75-2.17,3.64,3.64,0,1,0-1.36,2.79.25.25,0,0,1,0,.07l1.8,1.79a.45.45,0,0,0,.32.14.47.47,0,0,0,.32-.14.45.45,0,0,0,.01-.71Zm-6.62-2.12a2.69,2.69,0,1,1,4.6-1.9,2.65,2.65,0,0,1-.79,1.9,2.75,2.75,0,0,1-3.81,0Z" fill="#a7b0b7"/>
        </g>
        <rect id="Rectángulo_36842" data-name="Rectángulo 36842" width="0.9" height="14.49" transform="translate(93.367 30.123) rotate(-0.36)" fill="#2a3d52"/>
      </g>
    </g>
    <path id="Trazado_160431" data-name="Trazado 160431" d="M1.8,10.6l4.279,1.729v1.34L.492,11.076v-1L6.084,7.494v1.34ZM7.834,6.961A2.02,2.02,0,0,1,8.4,5.484,1.966,1.966,0,0,1,9.871,4.9a1.955,1.955,0,0,1,1.473.584A2.09,2.09,0,0,1,11.908,7v.485a1.994,1.994,0,0,1-.571,1.473,1.968,1.968,0,0,1-1.453.571,2.011,2.011,0,0,1-1.47-.571,2.036,2.036,0,0,1-.581-1.521Zm.943.524a1.294,1.294,0,0,0,.3.88,1.015,1.015,0,0,0,.807.346,1,1,0,0,0,.783-.336,1.336,1.336,0,0,0,.3-.918v-.5a1.326,1.326,0,0,0-.294-.884,1.09,1.09,0,0,0-1.6,0,1.368,1.368,0,0,0-.294.911Zm3.9,5.075a2.008,2.008,0,0,1,.571-1.473,2.159,2.159,0,0,1,2.936,0,2.06,2.06,0,0,1,.574,1.524v.485a2.008,2.008,0,0,1-.571,1.473,1.964,1.964,0,0,1-1.459.578,2.011,2.011,0,0,1-1.47-.571,2.036,2.036,0,0,1-.581-1.521Zm.943.53a1.3,1.3,0,0,0,.3.887,1.015,1.015,0,0,0,.807.346.988.988,0,0,0,.786-.339,1.359,1.359,0,0,0,.294-.922v-.507a1.3,1.3,0,0,0-.3-.884,1.093,1.093,0,0,0-1.586,0,1.319,1.319,0,0,0-.3.915Zm-3.452,1.158L9.454,13.8l4.86-7.779.718.451Zm19.079-2.68a4.559,4.559,0,0,1-.82,2.611,2.368,2.368,0,0,1-1.976.957,1.55,1.55,0,0,1-1.641-1.148,2.6,2.6,0,0,1-.844.865,1.889,1.889,0,0,1-.981.284,1.628,1.628,0,0,1-1.47-.793,3.483,3.483,0,0,1-.369-2.194,6.01,6.01,0,0,1,.516-2.013,3.7,3.7,0,0,1,1.066-1.391A2.206,2.206,0,0,1,24.1,8.239a3.1,3.1,0,0,1,.991.147,3.427,3.427,0,0,1,.984.578l-.355,3.787q-.13,1.579.875,1.579a1.432,1.432,0,0,0,1.251-.766,3.977,3.977,0,0,0,.52-2,5.88,5.88,0,0,0-.988-4.054,4.1,4.1,0,0,0-3.4-1.395,4.44,4.44,0,0,0-2.44.68,4.632,4.632,0,0,0-1.682,1.965,7.6,7.6,0,0,0-.69,2.967,7.054,7.054,0,0,0,.41,2.943,3.921,3.921,0,0,0,1.5,1.907,4.353,4.353,0,0,0,2.437.66,5.208,5.208,0,0,0,1.234-.15,3.854,3.854,0,0,0,1.029-.39l.253.786a3.831,3.831,0,0,1-1.125.438,5.965,5.965,0,0,1-1.418.171,5.434,5.434,0,0,1-2.939-.769,4.68,4.68,0,0,1-1.842-2.215,7.763,7.763,0,0,1-.53-3.38,8.194,8.194,0,0,1,.841-3.38,5.7,5.7,0,0,1,2.058-2.317,5.806,5.806,0,0,1,5.852-.051,4.593,4.593,0,0,1,1.812,2.208A7.92,7.92,0,0,1,29.251,11.568Zm-7.014.581a2.663,2.663,0,0,0,.181,1.49.927.927,0,0,0,.878.52,1.161,1.161,0,0,0,.79-.349,2.563,2.563,0,0,0,.625-1l.007-.062.314-3.438a1.758,1.758,0,0,0-.82-.2,1.539,1.539,0,0,0-1.323.813A4.942,4.942,0,0,0,22.237,12.149Zm18.375-.766A4.429,4.429,0,0,1,39.84,14.1a2.476,2.476,0,0,1-2.092,1.032,2.713,2.713,0,0,1-2.119-.854v3.562H34.364V7.6H35.52l.062.82a2.605,2.605,0,0,1,2.146-.957,2.522,2.522,0,0,1,2.109,1,4.477,4.477,0,0,1,.776,2.8Zm-1.265-.144a3.268,3.268,0,0,0-.533-1.976,1.718,1.718,0,0,0-1.463-.725,1.859,1.859,0,0,0-1.723,1.019v3.534A1.863,1.863,0,0,0,37.365,14.1a1.71,1.71,0,0,0,1.446-.721A3.567,3.567,0,0,0,39.348,11.24ZM46.785,15a2.657,2.657,0,0,1-.178-.779,2.822,2.822,0,0,1-2.105.916,2.611,2.611,0,0,1-1.794-.619,2,2,0,0,1-.7-1.569,2.091,2.091,0,0,1,.878-1.794,4.142,4.142,0,0,1,2.471-.639h1.23V9.935a1.42,1.42,0,0,0-.4-1.056,1.593,1.593,0,0,0-1.169-.393,1.844,1.844,0,0,0-1.135.342,1.007,1.007,0,0,0-.458.827H42.157a1.745,1.745,0,0,1,.393-1.07,2.683,2.683,0,0,1,1.066-.817,3.588,3.588,0,0,1,1.48-.3,2.924,2.924,0,0,1,2,.639,2.306,2.306,0,0,1,.752,1.76v3.4a4.162,4.162,0,0,0,.26,1.62V15Zm-2.1-.964a2.223,2.223,0,0,0,1.128-.308,1.861,1.861,0,0,0,.772-.8V11.411H45.6q-2.324,0-2.324,1.36a1.151,1.151,0,0,0,.4.93A1.524,1.524,0,0,0,44.687,14.036Zm4.847-2.8a4.347,4.347,0,0,1,.8-2.751,2.757,2.757,0,0,1,4.231-.065l.062-.82h1.155v7.219a3.009,3.009,0,0,1-.851,2.263,3.141,3.141,0,0,1-2.287.827,3.8,3.8,0,0,1-1.565-.342,2.7,2.7,0,0,1-1.169-.937l.656-.759a2.473,2.473,0,0,0,1.989,1,1.938,1.938,0,0,0,1.439-.52A1.986,1.986,0,0,0,54.51,14.9v-.636a2.6,2.6,0,0,1-2.071.875,2.526,2.526,0,0,1-2.1-1.046A4.571,4.571,0,0,1,49.533,11.24Zm1.271.144a3.316,3.316,0,0,0,.513,1.965,1.666,1.666,0,0,0,1.436.714,1.852,1.852,0,0,0,1.757-1.087V9.6a1.874,1.874,0,0,0-1.743-1.06,1.681,1.681,0,0,0-1.442.718A3.612,3.612,0,0,0,50.8,11.384Zm9.953,3.753a3.232,3.232,0,0,1-2.447-.988,3.666,3.666,0,0,1-.943-2.642v-.232a4.438,4.438,0,0,1,.42-1.965,3.28,3.28,0,0,1,1.176-1.354A2.956,2.956,0,0,1,60.6,7.467a2.77,2.77,0,0,1,2.242.95,4.114,4.114,0,0,1,.8,2.721v.526H58.632a2.629,2.629,0,0,0,.639,1.767,2.009,2.009,0,0,0,1.555.673,2.2,2.2,0,0,0,1.135-.273,2.851,2.851,0,0,0,.813-.725l.772.6A3.106,3.106,0,0,1,60.758,15.137ZM60.6,8.506a1.687,1.687,0,0,0-1.285.557,2.708,2.708,0,0,0-.643,1.562h3.705v-.1a2.409,2.409,0,0,0-.52-1.494A1.588,1.588,0,0,0,60.6,8.506ZM69.945,15H68.681V4.5h1.265Zm6.59,0a2.657,2.657,0,0,1-.178-.779,2.822,2.822,0,0,1-2.105.916,2.611,2.611,0,0,1-1.794-.619,2,2,0,0,1-.7-1.569,2.091,2.091,0,0,1,.878-1.794,4.141,4.141,0,0,1,2.471-.639h1.23V9.935a1.42,1.42,0,0,0-.4-1.056,1.593,1.593,0,0,0-1.169-.393,1.844,1.844,0,0,0-1.135.342,1.007,1.007,0,0,0-.458.827H71.907a1.745,1.745,0,0,1,.393-1.07,2.683,2.683,0,0,1,1.066-.817,3.588,3.588,0,0,1,1.48-.3,2.924,2.924,0,0,1,2,.639,2.306,2.306,0,0,1,.752,1.76v3.4a4.162,4.162,0,0,0,.26,1.62V15Zm-2.1-.964a2.223,2.223,0,0,0,1.128-.308,1.861,1.861,0,0,0,.772-.8V11.411h-.991q-2.324,0-2.324,1.36a1.151,1.151,0,0,0,.4.93A1.524,1.524,0,0,0,74.437,14.036ZM80.78,7.6l.041.93a2.7,2.7,0,0,1,2.215-1.066q2.345,0,2.365,2.646V15H84.137V10.105a1.7,1.7,0,0,0-.366-1.183,1.466,1.466,0,0,0-1.118-.383,1.825,1.825,0,0,0-1.08.328,2.228,2.228,0,0,0-.725.861V15H79.584V7.6Zm6.228,3.637a4.347,4.347,0,0,1,.8-2.751,2.757,2.757,0,0,1,4.231-.065L92.1,7.6h1.155v7.219a3.009,3.009,0,0,1-.851,2.263,3.141,3.141,0,0,1-2.287.827,3.8,3.8,0,0,1-1.565-.342,2.7,2.7,0,0,1-1.169-.937l.656-.759a2.473,2.473,0,0,0,1.989,1,1.938,1.938,0,0,0,1.439-.52,1.986,1.986,0,0,0,.516-1.463v-.636a2.6,2.6,0,0,1-2.071.875,2.527,2.527,0,0,1-2.1-1.046A4.571,4.571,0,0,1,87.008,11.24Zm1.271.144a3.316,3.316,0,0,0,.513,1.965,1.666,1.666,0,0,0,1.436.714,1.852,1.852,0,0,0,1.757-1.087V9.6a1.874,1.874,0,0,0-1.743-1.06,1.681,1.681,0,0,0-1.442.718A3.612,3.612,0,0,0,88.279,11.384Zm11.45,2.885a2.686,2.686,0,0,1-2.167.868,2.3,2.3,0,0,1-1.8-.687,2.974,2.974,0,0,1-.625-2.034V7.6H96.4v4.778q0,1.682,1.367,1.682a1.893,1.893,0,0,0,1.928-1.08V7.6h1.265V15h-1.2Zm7.718.731a2.657,2.657,0,0,1-.178-.779,2.822,2.822,0,0,1-2.105.916,2.611,2.611,0,0,1-1.794-.619,2,2,0,0,1-.7-1.569,2.091,2.091,0,0,1,.878-1.794,4.141,4.141,0,0,1,2.471-.639h1.23V9.935a1.42,1.42,0,0,0-.4-1.056,1.593,1.593,0,0,0-1.169-.393,1.844,1.844,0,0,0-1.135.342,1.007,1.007,0,0,0-.458.827h-1.271a1.745,1.745,0,0,1,.393-1.07,2.683,2.683,0,0,1,1.066-.817,3.588,3.588,0,0,1,1.48-.3,2.924,2.924,0,0,1,2,.639,2.306,2.306,0,0,1,.752,1.76v3.4a4.162,4.162,0,0,0,.26,1.62V15Zm-2.1-.964a2.223,2.223,0,0,0,1.128-.308,1.861,1.861,0,0,0,.772-.8V11.411h-.991q-2.324,0-2.324,1.36a1.151,1.151,0,0,0,.4.93A1.524,1.524,0,0,0,105.349,14.036Zm4.847-2.8a4.347,4.347,0,0,1,.8-2.751,2.757,2.757,0,0,1,4.231-.065l.062-.82h1.155v7.219a3.009,3.009,0,0,1-.851,2.263,3.141,3.141,0,0,1-2.287.827,3.8,3.8,0,0,1-1.565-.342,2.7,2.7,0,0,1-1.169-.937l.656-.759a2.473,2.473,0,0,0,1.989,1,1.938,1.938,0,0,0,1.439-.52,1.986,1.986,0,0,0,.516-1.463v-.636a2.6,2.6,0,0,1-2.071.875,2.527,2.527,0,0,1-2.1-1.046A4.571,4.571,0,0,1,110.2,11.24Zm1.271.144a3.316,3.316,0,0,0,.513,1.965,1.666,1.666,0,0,0,1.436.714,1.852,1.852,0,0,0,1.757-1.087V9.6a1.874,1.874,0,0,0-1.743-1.06,1.681,1.681,0,0,0-1.442.718A3.612,3.612,0,0,0,111.467,11.384Zm9.953,3.753a3.232,3.232,0,0,1-2.447-.988,3.666,3.666,0,0,1-.943-2.642v-.232a4.438,4.438,0,0,1,.42-1.965,3.28,3.28,0,0,1,1.176-1.354,2.956,2.956,0,0,1,1.637-.489,2.77,2.77,0,0,1,2.242.95,4.114,4.114,0,0,1,.8,2.721v.526h-5.011a2.629,2.629,0,0,0,.639,1.767,2.009,2.009,0,0,0,1.555.673,2.2,2.2,0,0,0,1.135-.273,2.851,2.851,0,0,0,.813-.725l.772.6A3.106,3.106,0,0,1,121.42,15.137Zm-.157-6.631a1.687,1.687,0,0,0-1.285.557,2.708,2.708,0,0,0-.643,1.562h3.705v-.1a2.409,2.409,0,0,0-.52-1.494A1.588,1.588,0,0,0,121.263,8.506Zm10.288.93h-5.7v-1.1h5.7Zm0,2.837h-5.7V11.179h5.7Zm2.673-7.014-.144,2.516H133.2l.007-3.274h1.019ZM137.2,7.6v8.251q0,2.133-1.935,2.133a2.36,2.36,0,0,1-.772-.122V16.859a2.445,2.445,0,0,0,.574.055.859.859,0,0,0,.646-.229,1.133,1.133,0,0,0,.222-.8V7.6ZM135.8,5.642a.758.758,0,0,1,.188-.516.691.691,0,0,1,.55-.215.717.717,0,0,1,.561.212.747.747,0,0,1,.191.52.722.722,0,0,1-.191.513.73.73,0,0,1-.561.205.707.707,0,0,1-.554-.205A.738.738,0,0,1,135.8,5.642Zm8,9.358a2.657,2.657,0,0,1-.178-.779,2.822,2.822,0,0,1-2.105.916,2.611,2.611,0,0,1-1.794-.619,2,2,0,0,1-.7-1.569,2.091,2.091,0,0,1,.878-1.794,4.142,4.142,0,0,1,2.471-.639h1.23V9.935a1.42,1.42,0,0,0-.4-1.056,1.593,1.593,0,0,0-1.169-.393,1.844,1.844,0,0,0-1.135.342,1.007,1.007,0,0,0-.458.827h-1.271a1.745,1.745,0,0,1,.393-1.07,2.683,2.683,0,0,1,1.066-.817,3.588,3.588,0,0,1,1.48-.3,2.924,2.924,0,0,1,2,.639,2.306,2.306,0,0,1,.752,1.76v3.4a4.162,4.162,0,0,0,.26,1.62V15Zm-2.1-.964a2.223,2.223,0,0,0,1.128-.308,1.861,1.861,0,0,0,.772-.8V11.411h-.991q-2.324,0-2.324,1.36a1.151,1.151,0,0,0,.4.93A1.524,1.524,0,0,0,141.7,14.036Zm7.485-.752L151.02,7.6h1.292L149.659,15H148.7l-2.68-7.4h1.292Zm8.8,1.716a2.657,2.657,0,0,1-.178-.779,2.822,2.822,0,0,1-2.105.916,2.611,2.611,0,0,1-1.794-.619,2,2,0,0,1-.7-1.569,2.091,2.091,0,0,1,.878-1.794,4.142,4.142,0,0,1,2.471-.639h1.23V9.935a1.42,1.42,0,0,0-.4-1.056,1.593,1.593,0,0,0-1.169-.393,1.844,1.844,0,0,0-1.135.342,1.007,1.007,0,0,0-.458.827h-1.271a1.745,1.745,0,0,1,.393-1.07,2.683,2.683,0,0,1,1.066-.817,3.588,3.588,0,0,1,1.48-.3,2.924,2.924,0,0,1,2,.639,2.306,2.306,0,0,1,.752,1.76v3.4a4.162,4.162,0,0,0,.26,1.62V15Zm-2.1-.964a2.223,2.223,0,0,0,1.128-.308,1.861,1.861,0,0,0,.772-.8V11.411H156.8q-2.324,0-2.324,1.36a1.151,1.151,0,0,0,.4.93A1.524,1.524,0,0,0,155.894,14.036Zm5.462-8.777-.144,2.516h-.882l.007-3.274h1.019Zm8.1,8.846a1.822,1.822,0,0,0,1.183-.41,1.443,1.443,0,0,0,.561-1.025h1.2a2.293,2.293,0,0,1-.437,1.21,2.881,2.881,0,0,1-1.077.916,3.107,3.107,0,0,1-1.425.342,3.047,3.047,0,0,1-2.4-1.008,4.016,4.016,0,0,1-.892-2.758v-.212a4.453,4.453,0,0,1,.4-1.921A3.02,3.02,0,0,1,167.7,7.932a3.233,3.233,0,0,1,1.753-.465,2.966,2.966,0,0,1,2.068.745,2.663,2.663,0,0,1,.878,1.935h-1.2a1.743,1.743,0,0,0-.543-1.179,1.691,1.691,0,0,0-1.207-.461,1.77,1.77,0,0,0-1.494.694,3.259,3.259,0,0,0-.53,2.006v.239a3.194,3.194,0,0,0,.526,1.969A1.779,1.779,0,0,0,169.456,14.1Zm4.026-2.871a4.369,4.369,0,0,1,.427-1.955,3.187,3.187,0,0,1,1.189-1.34,3.238,3.238,0,0,1,1.74-.472,3.119,3.119,0,0,1,2.444,1.046,4.024,4.024,0,0,1,.933,2.782v.089a4.407,4.407,0,0,1-.414,1.938,3.14,3.14,0,0,1-1.183,1.336,3.275,3.275,0,0,1-1.767.479,3.111,3.111,0,0,1-2.437-1.046,4,4,0,0,1-.933-2.769Zm1.271.15a3.164,3.164,0,0,0,.571,1.976,1.934,1.934,0,0,0,3.059-.01,3.46,3.46,0,0,0,.567-2.116,3.159,3.159,0,0,0-.578-1.972,1.836,1.836,0,0,0-1.535-.755,1.816,1.816,0,0,0-1.511.745A3.435,3.435,0,0,0,174.754,11.384ZM183,7.6l.041.93a2.7,2.7,0,0,1,2.215-1.066q2.345,0,2.365,2.646V15h-1.265V10.105a1.7,1.7,0,0,0-.366-1.183,1.466,1.466,0,0,0-1.118-.383,1.825,1.825,0,0,0-1.08.328,2.228,2.228,0,0,0-.725.861V15H181.8V7.6Zm8.244-1.791V7.6h1.381v.978h-1.381v4.593a1.027,1.027,0,0,0,.185.667.777.777,0,0,0,.629.222,3.062,3.062,0,0,0,.6-.082V15a3.688,3.688,0,0,1-.971.136,1.575,1.575,0,0,1-1.278-.513,2.2,2.2,0,0,1-.431-1.456V8.581h-1.347V7.6h1.347V5.813Zm5.927,9.324a3.232,3.232,0,0,1-2.447-.988,3.666,3.666,0,0,1-.943-2.642v-.232a4.438,4.438,0,0,1,.42-1.965,3.279,3.279,0,0,1,1.176-1.354,2.956,2.956,0,0,1,1.637-.489,2.77,2.77,0,0,1,2.242.95,4.114,4.114,0,0,1,.8,2.721v.526h-5.011a2.629,2.629,0,0,0,.639,1.767,2.009,2.009,0,0,0,1.555.673,2.2,2.2,0,0,0,1.135-.273,2.851,2.851,0,0,0,.813-.725l.772.6A3.106,3.106,0,0,1,197.169,15.137Zm-.157-6.631a1.687,1.687,0,0,0-1.285.557,2.708,2.708,0,0,0-.643,1.562h3.705v-.1a2.409,2.409,0,0,0-.52-1.494A1.588,1.588,0,0,0,197.012,8.506Zm5.7-.9.041.93a2.7,2.7,0,0,1,2.215-1.066q2.345,0,2.365,2.646V15h-1.265V10.105a1.7,1.7,0,0,0-.366-1.183,1.466,1.466,0,0,0-1.118-.383,1.825,1.825,0,0,0-1.08.328,2.228,2.228,0,0,0-.725.861V15h-1.265V7.6Zm8.244-1.791V7.6h1.381v.978h-1.381v4.593a1.027,1.027,0,0,0,.185.667.777.777,0,0,0,.629.222,3.062,3.062,0,0,0,.6-.082V15a3.688,3.688,0,0,1-.971.136,1.575,1.575,0,0,1-1.278-.513,2.2,2.2,0,0,1-.431-1.456V8.581h-1.347V7.6h1.347V5.813Zm9.933.308h-3.2V15h-1.306V6.12h-3.192V5.047h7.7Zm3.7,7.027L226.311,7.6h1.354l-2.974,8.538q-.69,1.846-2.194,1.846l-.239-.021-.472-.089V16.853l.342.027a1.683,1.683,0,0,0,1-.26,1.88,1.88,0,0,0,.591-.95l.28-.752L221.361,7.6h1.381Zm10.452-1.764a4.429,4.429,0,0,1-.772,2.721,2.476,2.476,0,0,1-2.092,1.032,2.713,2.713,0,0,1-2.119-.854v3.562h-1.265V7.6h1.155l.062.82a2.605,2.605,0,0,1,2.146-.957,2.522,2.522,0,0,1,2.109,1,4.477,4.477,0,0,1,.776,2.8Zm-1.265-.144a3.268,3.268,0,0,0-.533-1.976,1.718,1.718,0,0,0-1.463-.725,1.859,1.859,0,0,0-1.723,1.019v3.534a1.863,1.863,0,0,0,1.736,1.012,1.71,1.71,0,0,0,1.446-.721A3.567,3.567,0,0,0,233.775,11.24Zm5.94,3.9a3.232,3.232,0,0,1-2.447-.988,3.666,3.666,0,0,1-.943-2.642v-.232a4.438,4.438,0,0,1,.42-1.965,3.279,3.279,0,0,1,1.176-1.354,2.956,2.956,0,0,1,1.637-.489,2.77,2.77,0,0,1,2.242.95,4.114,4.114,0,0,1,.8,2.721v.526H237.59a2.629,2.629,0,0,0,.639,1.767,2.009,2.009,0,0,0,1.555.673,2.2,2.2,0,0,0,1.135-.273,2.851,2.851,0,0,0,.813-.725l.772.6A3.106,3.106,0,0,1,239.716,15.137Zm-.157-6.631a1.687,1.687,0,0,0-1.285.557,2.708,2.708,0,0,0-.643,1.562h3.705v-.1a2.409,2.409,0,0,0-.52-1.494A1.588,1.588,0,0,0,239.559,8.506Zm10.288.93h-5.7v-1.1h5.7Zm0,2.837h-5.7V11.179h5.7Zm2.673-7.014-.144,2.516h-.882L251.5,4.5h1.019Zm3.384.554V7.6h1.381v.978H255.9v4.593a1.027,1.027,0,0,0,.185.667.777.777,0,0,0,.629.222,3.062,3.062,0,0,0,.6-.082V15a3.688,3.688,0,0,1-.971.136,1.575,1.575,0,0,1-1.278-.513,2.2,2.2,0,0,1-.431-1.456V8.581h-1.347V7.6h1.347V5.813Zm5.927,9.324a3.232,3.232,0,0,1-2.447-.988,3.666,3.666,0,0,1-.943-2.642v-.232a4.438,4.438,0,0,1,.42-1.965,3.28,3.28,0,0,1,1.176-1.354,2.956,2.956,0,0,1,1.637-.489,2.77,2.77,0,0,1,2.242.95,4.114,4.114,0,0,1,.8,2.721v.526H259.7a2.629,2.629,0,0,0,.639,1.767,2.009,2.009,0,0,0,1.555.673,2.2,2.2,0,0,0,1.135-.273,2.851,2.851,0,0,0,.813-.725l.772.6A3.106,3.106,0,0,1,261.83,15.137Zm-.157-6.631a1.687,1.687,0,0,0-1.285.557,2.708,2.708,0,0,0-.643,1.562h3.705v-.1a2.409,2.409,0,0,0-.52-1.494A1.588,1.588,0,0,0,261.673,8.506Zm6.986,1.8L270.3,7.6h1.477l-2.42,3.657,2.5,3.739h-1.463l-1.709-2.769L266.971,15H265.5l2.5-3.739L265.576,7.6h1.463Zm6.173-4.491V7.6h1.381v.978h-1.381v4.593a1.027,1.027,0,0,0,.185.667.777.777,0,0,0,.629.222,3.062,3.062,0,0,0,.6-.082V15a3.688,3.688,0,0,1-.971.136A1.575,1.575,0,0,1,274,14.624a2.2,2.2,0,0,1-.431-1.456V8.581h-1.347V7.6h1.347V5.813Zm3.11,10.042h-1.087l4.156-10.808h1.08ZM284.724,8.5a2.689,2.689,0,0,1,2.188-1.032q2.345,0,2.365,2.646V15h-1.265V10.105a1.7,1.7,0,0,0-.366-1.183,1.466,1.466,0,0,0-1.118-.383,1.825,1.825,0,0,0-1.08.328,2.228,2.228,0,0,0-.725.861V15h-1.265V4.5h1.265Zm8.162-2.687V7.6h1.381v.978h-1.381v4.593a1.027,1.027,0,0,0,.185.667.777.777,0,0,0,.629.222,3.062,3.062,0,0,0,.6-.082V15a3.688,3.688,0,0,1-.971.136,1.575,1.575,0,0,1-1.278-.513,2.2,2.2,0,0,1-.431-1.456V8.581h-1.347V7.6h1.347V5.813ZM296.933,7.6l.034.82a2.732,2.732,0,0,1,2.194-.957,2.115,2.115,0,0,1,2.112,1.189,2.8,2.8,0,0,1,.96-.861,2.837,2.837,0,0,1,1.4-.328q2.434,0,2.475,2.577V15h-1.265V10.119a1.7,1.7,0,0,0-.362-1.186,1.6,1.6,0,0,0-1.217-.393,1.677,1.677,0,0,0-1.169.42,1.706,1.706,0,0,0-.54,1.131V15h-1.271V10.153A1.411,1.411,0,0,0,298.7,8.54,1.692,1.692,0,0,0,297,9.6V15h-1.265V7.6ZM309.388,15h-1.265V4.5h1.265Zm1.825-6.7a.792.792,0,0,1,.195-.547.742.742,0,0,1,.584-.219.765.765,0,0,1,.591.219.776.776,0,0,1,.2.547.734.734,0,0,1-.2.526.778.778,0,0,1-.591.212.7.7,0,0,1-.779-.738Zm.239,8.682-.718-.492a3.3,3.3,0,0,0,.67-1.846V13.5h1.237v.991a3.114,3.114,0,0,1-.338,1.381A3.233,3.233,0,0,1,311.452,16.982ZM3.924,36.1a1.822,1.822,0,0,0,1.183-.41,1.443,1.443,0,0,0,.561-1.025h1.2a2.293,2.293,0,0,1-.437,1.21,2.881,2.881,0,0,1-1.077.916,3.107,3.107,0,0,1-1.425.342,3.047,3.047,0,0,1-2.4-1.008A4.016,4.016,0,0,1,.629,33.37v-.212a4.453,4.453,0,0,1,.4-1.921,3.02,3.02,0,0,1,1.138-1.306,3.233,3.233,0,0,1,1.753-.465,2.966,2.966,0,0,1,2.068.745,2.663,2.663,0,0,1,.878,1.935h-1.2a1.743,1.743,0,0,0-.543-1.179,1.691,1.691,0,0,0-1.207-.461,1.77,1.77,0,0,0-1.494.694,3.259,3.259,0,0,0-.53,2.006v.239a3.194,3.194,0,0,0,.526,1.969A1.779,1.779,0,0,0,3.924,36.1ZM9.55,30.5a2.689,2.689,0,0,1,2.188-1.032q2.345,0,2.365,2.646V37H12.838V32.105a1.7,1.7,0,0,0-.366-1.183,1.466,1.466,0,0,0-1.118-.383,1.825,1.825,0,0,0-1.08.328,2.228,2.228,0,0,0-.725.861V37H8.285V26.5H9.55ZM20.563,37a2.657,2.657,0,0,1-.178-.779,2.822,2.822,0,0,1-2.105.916,2.611,2.611,0,0,1-1.794-.619,2,2,0,0,1-.7-1.569,2.091,2.091,0,0,1,.878-1.794,4.142,4.142,0,0,1,2.471-.639h1.23v-.581a1.42,1.42,0,0,0-.4-1.056,1.593,1.593,0,0,0-1.169-.393,1.844,1.844,0,0,0-1.135.342,1.007,1.007,0,0,0-.458.827H15.935a1.745,1.745,0,0,1,.393-1.07,2.683,2.683,0,0,1,1.066-.817,3.588,3.588,0,0,1,1.48-.3,2.924,2.924,0,0,1,2,.639,2.306,2.306,0,0,1,.752,1.76v3.4a4.162,4.162,0,0,0,.26,1.62V37Zm-2.1-.964a2.223,2.223,0,0,0,1.128-.308,1.861,1.861,0,0,0,.772-.8V33.411h-.991q-2.324,0-2.324,1.36a1.151,1.151,0,0,0,.4.93A1.524,1.524,0,0,0,18.464,36.036Zm8.723-5.3a3.79,3.79,0,0,0-.622-.048,1.667,1.667,0,0,0-1.688,1.06V37H23.611V29.6h1.23l.021.854a1.969,1.969,0,0,1,1.764-.991,1.292,1.292,0,0,1,.561.1Zm5.469,4.3a.931.931,0,0,0-.386-.8,3.718,3.718,0,0,0-1.347-.489,6.367,6.367,0,0,1-1.524-.492,2.169,2.169,0,0,1-.834-.684,1.635,1.635,0,0,1-.27-.943,1.919,1.919,0,0,1,.769-1.538,3,3,0,0,1,1.965-.629,3.091,3.091,0,0,1,2.041.649,2.063,2.063,0,0,1,.783,1.661H32.58a1.142,1.142,0,0,0-.441-.9,1.652,1.652,0,0,0-1.111-.376,1.729,1.729,0,0,0-1.08.3.947.947,0,0,0-.39.786.767.767,0,0,0,.362.69,4.458,4.458,0,0,0,1.309.444,6.821,6.821,0,0,1,1.535.506,2.239,2.239,0,0,1,.872.708,1.74,1.74,0,0,1,.284,1.008,1.893,1.893,0,0,1-.793,1.589,3.326,3.326,0,0,1-2.058.6,3.725,3.725,0,0,1-1.572-.314,2.557,2.557,0,0,1-1.07-.878,2.117,2.117,0,0,1-.386-1.22h1.265a1.309,1.309,0,0,0,.509,1.008,1.976,1.976,0,0,0,1.254.373,2.039,2.039,0,0,0,1.152-.291A.893.893,0,0,0,32.655,35.038Zm5.981,2.1a3.232,3.232,0,0,1-2.447-.988,3.666,3.666,0,0,1-.943-2.642v-.232a4.438,4.438,0,0,1,.42-1.965,3.279,3.279,0,0,1,1.176-1.354,2.956,2.956,0,0,1,1.637-.489,2.77,2.77,0,0,1,2.242.95,4.114,4.114,0,0,1,.8,2.721v.526H36.511a2.629,2.629,0,0,0,.639,1.767,2.009,2.009,0,0,0,1.555.673,2.2,2.2,0,0,0,1.135-.273,2.851,2.851,0,0,0,.813-.725l.772.6A3.106,3.106,0,0,1,38.637,37.137Zm-.157-6.631a1.687,1.687,0,0,0-1.285.557,2.708,2.708,0,0,0-.643,1.562h3.705v-.1a2.409,2.409,0,0,0-.52-1.494A1.588,1.588,0,0,0,38.479,30.506ZM44.7,27.813V29.6h1.381v.978H44.7v4.593a1.027,1.027,0,0,0,.185.667.777.777,0,0,0,.629.222,3.062,3.062,0,0,0,.6-.082V37a3.688,3.688,0,0,1-.971.136,1.575,1.575,0,0,1-1.278-.513,2.2,2.2,0,0,1-.431-1.456V30.581H42.089V29.6h1.347V27.813Zm8.641,3.623h-5.7v-1.1h5.7Zm0,2.837h-5.7V33.179h5.7ZM56.615,37H55.351V29.6h1.265Zm-1.367-9.358a.755.755,0,0,1,.188-.52.706.706,0,0,1,.557-.212.717.717,0,0,1,.561.212.747.747,0,0,1,.191.52.722.722,0,0,1-.191.513.73.73,0,0,1-.561.205.718.718,0,0,1-.557-.205A.73.73,0,0,1,55.248,27.642Zm7.7,7.4a.931.931,0,0,0-.386-.8,3.718,3.718,0,0,0-1.347-.489,6.367,6.367,0,0,1-1.524-.492,2.169,2.169,0,0,1-.834-.684,1.635,1.635,0,0,1-.27-.943,1.919,1.919,0,0,1,.769-1.538,3,3,0,0,1,1.965-.629,3.091,3.091,0,0,1,2.041.649,2.063,2.063,0,0,1,.783,1.661H62.87a1.142,1.142,0,0,0-.441-.9,1.652,1.652,0,0,0-1.111-.376,1.729,1.729,0,0,0-1.08.3.947.947,0,0,0-.39.786.767.767,0,0,0,.362.69,4.458,4.458,0,0,0,1.309.444,6.821,6.821,0,0,1,1.535.506,2.239,2.239,0,0,1,.872.708,1.74,1.74,0,0,1,.284,1.008,1.893,1.893,0,0,1-.793,1.589,3.326,3.326,0,0,1-2.058.6,3.725,3.725,0,0,1-1.572-.314,2.557,2.557,0,0,1-1.07-.878,2.117,2.117,0,0,1-.386-1.22H59.6a1.309,1.309,0,0,0,.509,1.008,1.976,1.976,0,0,0,1.254.373,2.039,2.039,0,0,0,1.152-.291A.893.893,0,0,0,62.945,35.038Zm2.577-1.8a4.369,4.369,0,0,1,.427-1.955,3.187,3.187,0,0,1,1.189-1.34,3.238,3.238,0,0,1,1.74-.472,3.119,3.119,0,0,1,2.444,1.046,4.024,4.024,0,0,1,.933,2.782v.089a4.407,4.407,0,0,1-.414,1.938,3.14,3.14,0,0,1-1.183,1.336,3.275,3.275,0,0,1-1.767.479,3.111,3.111,0,0,1-2.437-1.046,4,4,0,0,1-.933-2.769Zm1.271.15a3.164,3.164,0,0,0,.571,1.976,1.934,1.934,0,0,0,3.059-.01,3.46,3.46,0,0,0,.567-2.116,3.159,3.159,0,0,0-.578-1.972,1.836,1.836,0,0,0-1.535-.755,1.816,1.816,0,0,0-1.511.745A3.435,3.435,0,0,0,66.794,33.384Zm9.68-.1H73.138V32.256h3.336Zm7.137-3.644a2.311,2.311,0,0,1-.393,1.326,2.674,2.674,0,0,1-1.063.909,2.853,2.853,0,0,1,1.234.978,2.46,2.46,0,0,1,.455,1.456,2.6,2.6,0,0,1-.872,2.058,3.821,3.821,0,0,1-4.594,0,2.613,2.613,0,0,1-.865-2.054,2.533,2.533,0,0,1,.441-1.456,2.744,2.744,0,0,1,1.22-.984,2.609,2.609,0,0,1-1.046-.909,2.344,2.344,0,0,1-.383-1.319,2.573,2.573,0,0,1,.807-2,3.425,3.425,0,0,1,4.249,0A2.567,2.567,0,0,1,83.61,29.645Zm-1.032,4.642a1.834,1.834,0,0,0-.53-1.36,1.879,1.879,0,0,0-1.384-.526,1.78,1.78,0,0,0-1.887,1.887,1.767,1.767,0,0,0,.5,1.333,2.245,2.245,0,0,0,2.792,0A1.763,1.763,0,0,0,82.578,34.286Zm-1.9-6.337a1.632,1.632,0,0,0-1.207.461,1.909,1.909,0,0,0-.007,2.481,1.806,1.806,0,0,0,2.427,0,1.871,1.871,0,0,0-.017-2.464A1.609,1.609,0,0,0,80.678,27.949Zm10.794,1.7a2.311,2.311,0,0,1-.393,1.326,2.674,2.674,0,0,1-1.063.909,2.853,2.853,0,0,1,1.234.978,2.46,2.46,0,0,1,.455,1.456,2.6,2.6,0,0,1-.872,2.058,3.821,3.821,0,0,1-4.594,0,2.613,2.613,0,0,1-.865-2.054,2.533,2.533,0,0,1,.441-1.456,2.744,2.744,0,0,1,1.22-.984,2.609,2.609,0,0,1-1.046-.909,2.344,2.344,0,0,1-.383-1.319,2.573,2.573,0,0,1,.807-2,3.425,3.425,0,0,1,4.249,0A2.567,2.567,0,0,1,91.472,29.645Zm-1.032,4.642a1.834,1.834,0,0,0-.53-1.36,1.879,1.879,0,0,0-1.384-.526,1.78,1.78,0,0,0-1.887,1.887,1.767,1.767,0,0,0,.5,1.333,2.245,2.245,0,0,0,2.792,0A1.763,1.763,0,0,0,90.439,34.286Zm-1.9-6.337a1.632,1.632,0,0,0-1.207.461,1.909,1.909,0,0,0-.007,2.481,1.806,1.806,0,0,0,2.427,0,1.871,1.871,0,0,0-.017-2.464A1.609,1.609,0,0,0,88.539,27.949Zm5.339,4.061.506-4.963h5.1v1.169H95.457l-.3,2.714a3.212,3.212,0,0,1,1.661-.431,2.746,2.746,0,0,1,2.16.9,3.523,3.523,0,0,1,.8,2.43,3.4,3.4,0,0,1-.831,2.423,3.027,3.027,0,0,1-2.321.885,3.146,3.146,0,0,1-2.153-.731,2.919,2.919,0,0,1-.95-2.023h1.2a2.009,2.009,0,0,0,.608,1.289,1.892,1.892,0,0,0,1.3.434,1.706,1.706,0,0,0,1.384-.6,2.515,2.515,0,0,0,.5-1.661,2.308,2.308,0,0,0-.543-1.6,1.849,1.849,0,0,0-1.446-.6,2.085,2.085,0,0,0-1.3.362l-.335.273ZM106,32.625a3.094,3.094,0,0,1-.947.759,2.569,2.569,0,0,1-1.207.287,2.652,2.652,0,0,1-1.5-.424,2.755,2.755,0,0,1-.988-1.193,4.067,4.067,0,0,1-.349-1.7,4.143,4.143,0,0,1,.379-1.8,2.787,2.787,0,0,1,1.077-1.224,3.07,3.07,0,0,1,1.627-.424,2.78,2.78,0,0,1,2.328,1.1,4.815,4.815,0,0,1,.851,3.011v.369a6.434,6.434,0,0,1-1.148,4.242,4.412,4.412,0,0,1-3.466,1.371h-.246V35.934h.267A3.012,3.012,0,0,0,106,32.625Zm-1.948,0a1.953,1.953,0,0,0,1.172-.39,2.3,2.3,0,0,0,.783-.964v-.506a3.48,3.48,0,0,0-.54-2.023,1.651,1.651,0,0,0-2.707-.14,2.637,2.637,0,0,0-.506,1.685,2.744,2.744,0,0,0,.489,1.678A1.548,1.548,0,0,0,104.057,32.625Zm7.725.663h-3.336V32.256h3.336ZM117.038,37h-1.271V28.571l-2.55.937V28.359L116.84,27h.2Zm4.607-9.741-.144,2.516h-.882l.007-3.274h1.019Zm1.429,1.7a2.02,2.02,0,0,1,.571-1.477,2.145,2.145,0,0,1,2.939,0A2.09,2.09,0,0,1,127.148,29v.485a1.994,1.994,0,0,1-.571,1.473,1.968,1.968,0,0,1-1.453.571,2.011,2.011,0,0,1-1.47-.571,2.036,2.036,0,0,1-.581-1.521Zm.943.524a1.293,1.293,0,0,0,.3.88,1.015,1.015,0,0,0,.807.346,1,1,0,0,0,.783-.336,1.336,1.336,0,0,0,.3-.918v-.5a1.326,1.326,0,0,0-.294-.884,1.09,1.09,0,0,0-1.6,0,1.368,1.368,0,0,0-.294.911Zm3.9,5.075a2.008,2.008,0,0,1,.571-1.473,2.159,2.159,0,0,1,2.936,0A2.06,2.06,0,0,1,132,34.607v.485a2.008,2.008,0,0,1-.571,1.473,1.964,1.964,0,0,1-1.459.578,2.011,2.011,0,0,1-1.47-.571,2.036,2.036,0,0,1-.581-1.521Zm.943.53a1.3,1.3,0,0,0,.3.887,1.015,1.015,0,0,0,.807.346.988.988,0,0,0,.786-.339,1.359,1.359,0,0,0,.294-.922v-.507a1.3,1.3,0,0,0-.3-.884,1.093,1.093,0,0,0-1.586,0,1.319,1.319,0,0,0-.3.915Zm-3.452,1.158-.718-.451,4.86-7.779.718.451Zm12.633-3.691-4.519-1.771v-1.3l5.838,2.584v1l-5.838,2.591V34.348ZM1.8,54.6l4.279,1.729v1.34L.492,55.076v-1l5.592-2.584v1.34Zm6.029-3.637A2.02,2.02,0,0,1,8.4,49.484,1.966,1.966,0,0,1,9.871,48.9a1.955,1.955,0,0,1,1.473.584A2.09,2.09,0,0,1,11.908,51v.485a1.994,1.994,0,0,1-.571,1.473,1.968,1.968,0,0,1-1.453.571,2.011,2.011,0,0,1-1.47-.571,2.036,2.036,0,0,1-.581-1.521Zm.943.524a1.294,1.294,0,0,0,.3.88,1.015,1.015,0,0,0,.807.346,1,1,0,0,0,.783-.336,1.336,1.336,0,0,0,.3-.918v-.5a1.326,1.326,0,0,0-.294-.884,1.09,1.09,0,0,0-1.6,0,1.368,1.368,0,0,0-.294.911Zm3.9,5.075a2.008,2.008,0,0,1,.571-1.473,2.159,2.159,0,0,1,2.936,0,2.06,2.06,0,0,1,.574,1.524v.485a2.008,2.008,0,0,1-.571,1.473,1.964,1.964,0,0,1-1.459.578,2.011,2.011,0,0,1-1.47-.571,2.036,2.036,0,0,1-.581-1.521Zm.943.53a1.3,1.3,0,0,0,.3.887,1.015,1.015,0,0,0,.807.346.988.988,0,0,0,.786-.339,1.359,1.359,0,0,0,.294-.922v-.507a1.3,1.3,0,0,0-.3-.884,1.093,1.093,0,0,0-1.586,0,1.319,1.319,0,0,0-.3.915Zm-3.452,1.158L9.454,57.8l4.86-7.779.718.451Zm19.079-2.68a4.559,4.559,0,0,1-.82,2.611,2.368,2.368,0,0,1-1.976.957,1.55,1.55,0,0,1-1.641-1.148,2.6,2.6,0,0,1-.844.865,1.889,1.889,0,0,1-.981.284,1.628,1.628,0,0,1-1.47-.793,3.483,3.483,0,0,1-.369-2.194,6.01,6.01,0,0,1,.516-2.013,3.7,3.7,0,0,1,1.066-1.391,2.206,2.206,0,0,1,1.371-.506,3.1,3.1,0,0,1,.991.147,3.427,3.427,0,0,1,.984.578l-.355,3.787q-.13,1.579.875,1.579a1.432,1.432,0,0,0,1.251-.766,3.977,3.977,0,0,0,.52-2,5.88,5.88,0,0,0-.988-4.054,4.1,4.1,0,0,0-3.4-1.395,4.44,4.44,0,0,0-2.44.68,4.632,4.632,0,0,0-1.682,1.965,7.6,7.6,0,0,0-.69,2.967,7.054,7.054,0,0,0,.41,2.943,3.921,3.921,0,0,0,1.5,1.907,4.353,4.353,0,0,0,2.437.66,5.207,5.207,0,0,0,1.234-.15,3.854,3.854,0,0,0,1.029-.39l.253.786a3.831,3.831,0,0,1-1.125.438,5.965,5.965,0,0,1-1.418.171,5.434,5.434,0,0,1-2.939-.769,4.68,4.68,0,0,1-1.842-2.215,7.763,7.763,0,0,1-.53-3.38,8.194,8.194,0,0,1,.841-3.38,5.7,5.7,0,0,1,2.058-2.317,5.806,5.806,0,0,1,5.852-.051,4.593,4.593,0,0,1,1.812,2.208A7.92,7.92,0,0,1,29.251,55.568Zm-7.014.581a2.663,2.663,0,0,0,.181,1.49.927.927,0,0,0,.878.52,1.161,1.161,0,0,0,.79-.349,2.563,2.563,0,0,0,.625-1l.007-.062.314-3.438a1.758,1.758,0,0,0-.82-.2,1.539,1.539,0,0,0-1.323.813A4.942,4.942,0,0,0,22.237,56.149Zm18.375-.766A4.429,4.429,0,0,1,39.84,58.1a2.476,2.476,0,0,1-2.092,1.032,2.713,2.713,0,0,1-2.119-.854v3.562H34.364V51.6H35.52l.062.82a2.605,2.605,0,0,1,2.146-.957,2.522,2.522,0,0,1,2.109,1,4.477,4.477,0,0,1,.776,2.8Zm-1.265-.144a3.268,3.268,0,0,0-.533-1.976,1.718,1.718,0,0,0-1.463-.725,1.859,1.859,0,0,0-1.723,1.019v3.534A1.863,1.863,0,0,0,37.365,58.1a1.71,1.71,0,0,0,1.446-.721A3.567,3.567,0,0,0,39.348,55.24ZM46.785,59a2.657,2.657,0,0,1-.178-.779,2.822,2.822,0,0,1-2.105.916,2.611,2.611,0,0,1-1.794-.619,2,2,0,0,1-.7-1.569,2.091,2.091,0,0,1,.878-1.794,4.142,4.142,0,0,1,2.471-.639h1.23v-.581a1.42,1.42,0,0,0-.4-1.056,1.593,1.593,0,0,0-1.169-.393,1.844,1.844,0,0,0-1.135.342,1.007,1.007,0,0,0-.458.827H42.157a1.745,1.745,0,0,1,.393-1.07,2.683,2.683,0,0,1,1.066-.817,3.588,3.588,0,0,1,1.48-.3,2.924,2.924,0,0,1,2,.639,2.306,2.306,0,0,1,.752,1.76v3.4a4.162,4.162,0,0,0,.26,1.62V59Zm-2.1-.964a2.223,2.223,0,0,0,1.128-.308,1.861,1.861,0,0,0,.772-.8V55.411H45.6q-2.324,0-2.324,1.36a1.151,1.151,0,0,0,.4.93A1.524,1.524,0,0,0,44.687,58.036Zm4.847-2.8a4.347,4.347,0,0,1,.8-2.751,2.757,2.757,0,0,1,4.231-.065l.062-.82h1.155v7.219a3.009,3.009,0,0,1-.851,2.263,3.141,3.141,0,0,1-2.287.827,3.8,3.8,0,0,1-1.565-.342,2.7,2.7,0,0,1-1.169-.937l.656-.759a2.473,2.473,0,0,0,1.989,1,1.938,1.938,0,0,0,1.439-.52A1.986,1.986,0,0,0,54.51,58.9v-.636a2.6,2.6,0,0,1-2.071.875,2.526,2.526,0,0,1-2.1-1.046A4.571,4.571,0,0,1,49.533,55.24Zm1.271.144a3.316,3.316,0,0,0,.513,1.965,1.666,1.666,0,0,0,1.436.714,1.852,1.852,0,0,0,1.757-1.087V53.6a1.874,1.874,0,0,0-1.743-1.06,1.681,1.681,0,0,0-1.442.718A3.612,3.612,0,0,0,50.8,55.384Zm9.953,3.753a3.232,3.232,0,0,1-2.447-.988,3.666,3.666,0,0,1-.943-2.642v-.232a4.438,4.438,0,0,1,.42-1.965,3.28,3.28,0,0,1,1.176-1.354,2.956,2.956,0,0,1,1.637-.489,2.77,2.77,0,0,1,2.242.95,4.114,4.114,0,0,1,.8,2.721v.526H58.632a2.629,2.629,0,0,0,.639,1.767,2.009,2.009,0,0,0,1.555.673,2.2,2.2,0,0,0,1.135-.273,2.851,2.851,0,0,0,.813-.725l.772.6A3.106,3.106,0,0,1,60.758,59.137ZM60.6,52.506a1.687,1.687,0,0,0-1.285.557,2.708,2.708,0,0,0-.643,1.562h3.705v-.1a2.409,2.409,0,0,0-.52-1.494A1.588,1.588,0,0,0,60.6,52.506ZM69.945,59H68.681V51.6h1.265Zm-1.367-9.358a.755.755,0,0,1,.188-.52.706.706,0,0,1,.557-.212.717.717,0,0,1,.561.212.747.747,0,0,1,.191.52.722.722,0,0,1-.191.513.73.73,0,0,1-.561.205.718.718,0,0,1-.557-.205A.73.73,0,0,1,68.578,49.642Zm4.58,1.962.034.82a2.732,2.732,0,0,1,2.194-.957A2.115,2.115,0,0,1,77.5,52.656a2.8,2.8,0,0,1,.96-.861,2.837,2.837,0,0,1,1.4-.328q2.434,0,2.475,2.577V59H81.067V54.119a1.7,1.7,0,0,0-.362-1.186,1.6,1.6,0,0,0-1.217-.393,1.677,1.677,0,0,0-1.169.42,1.706,1.706,0,0,0-.54,1.131V59H76.508V54.153a1.411,1.411,0,0,0-1.579-1.613,1.692,1.692,0,0,0-1.7,1.06V59H71.962V51.6Zm17.329,3.78a4.429,4.429,0,0,1-.772,2.721,2.476,2.476,0,0,1-2.092,1.032,2.713,2.713,0,0,1-2.119-.854v3.562H84.239V51.6h1.155l.062.82a2.605,2.605,0,0,1,2.146-.957,2.522,2.522,0,0,1,2.109,1,4.477,4.477,0,0,1,.776,2.8Zm-1.265-.144a3.268,3.268,0,0,0-.533-1.976,1.718,1.718,0,0,0-1.463-.725A1.859,1.859,0,0,0,85.5,53.559v3.534A1.863,1.863,0,0,0,87.24,58.1a1.71,1.71,0,0,0,1.446-.721A3.567,3.567,0,0,0,89.223,55.24Zm2.536-.007a4.369,4.369,0,0,1,.427-1.955,3.187,3.187,0,0,1,1.189-1.34,3.238,3.238,0,0,1,1.74-.472,3.119,3.119,0,0,1,2.444,1.046,4.024,4.024,0,0,1,.933,2.782v.089a4.407,4.407,0,0,1-.414,1.938A3.14,3.14,0,0,1,96.9,58.658a3.275,3.275,0,0,1-1.767.479,3.111,3.111,0,0,1-2.437-1.046,4,4,0,0,1-.933-2.769Zm1.271.15a3.164,3.164,0,0,0,.571,1.976,1.934,1.934,0,0,0,3.059-.01,3.46,3.46,0,0,0,.567-2.116,3.159,3.159,0,0,0-.578-1.972,1.836,1.836,0,0,0-1.535-.755,1.816,1.816,0,0,0-1.511.745A3.435,3.435,0,0,0,93.03,55.384Zm10.623-2.646a3.79,3.79,0,0,0-.622-.048,1.667,1.667,0,0,0-1.688,1.06V59h-1.265V51.6h1.23l.021.854a1.969,1.969,0,0,1,1.764-.991,1.292,1.292,0,0,1,.561.1Zm3.22-2.926V51.6h1.381v.978h-1.381v4.593a1.027,1.027,0,0,0,.185.667.777.777,0,0,0,.629.222,3.062,3.062,0,0,0,.6-.082V59a3.688,3.688,0,0,1-.971.136,1.575,1.575,0,0,1-1.278-.513,2.2,2.2,0,0,1-.431-1.456V52.581h-1.347V51.6h1.347V49.813Zm8.641,3.623h-5.7v-1.1h5.7Zm0,2.837h-5.7V55.179h5.7Zm2.673-7.014-.144,2.516h-.882l.007-3.274h1.019ZM121.16,51.6v8.251q0,2.133-1.935,2.133a2.36,2.36,0,0,1-.772-.122V60.859a2.445,2.445,0,0,0,.574.055.859.859,0,0,0,.646-.229,1.133,1.133,0,0,0,.222-.8V51.6Zm-1.395-1.962a.758.758,0,0,1,.188-.516.691.691,0,0,1,.55-.215.717.717,0,0,1,.561.212.747.747,0,0,1,.191.52.722.722,0,0,1-.191.513.73.73,0,0,1-.561.205.707.707,0,0,1-.554-.205A.738.738,0,0,1,119.766,49.642Zm8,9.358a2.657,2.657,0,0,1-.178-.779,2.822,2.822,0,0,1-2.105.916,2.611,2.611,0,0,1-1.794-.619,2,2,0,0,1-.7-1.569,2.091,2.091,0,0,1,.878-1.794,4.142,4.142,0,0,1,2.471-.639h1.23v-.581a1.42,1.42,0,0,0-.4-1.056A1.593,1.593,0,0,0,126,52.485a1.844,1.844,0,0,0-1.135.342,1.007,1.007,0,0,0-.458.827h-1.271a1.745,1.745,0,0,1,.393-1.07,2.683,2.683,0,0,1,1.066-.817,3.588,3.588,0,0,1,1.48-.3,2.924,2.924,0,0,1,2,.639,2.306,2.306,0,0,1,.752,1.76v3.4a4.162,4.162,0,0,0,.26,1.62V59Zm-2.1-.964a2.223,2.223,0,0,0,1.128-.308,1.861,1.861,0,0,0,.772-.8V55.411h-.991q-2.324,0-2.324,1.36a1.151,1.151,0,0,0,.4.93A1.524,1.524,0,0,0,125.665,58.036Zm7.485-.752,1.832-5.681h1.292L133.622,59h-.964l-2.68-7.4h1.292Zm8.8,1.716a2.657,2.657,0,0,1-.178-.779,2.822,2.822,0,0,1-2.105.916,2.611,2.611,0,0,1-1.794-.619,2,2,0,0,1-.7-1.569,2.091,2.091,0,0,1,.878-1.794,4.142,4.142,0,0,1,2.471-.639h1.23v-.581a1.42,1.42,0,0,0-.4-1.056,1.593,1.593,0,0,0-1.169-.393,1.844,1.844,0,0,0-1.135.342,1.007,1.007,0,0,0-.458.827h-1.271a1.745,1.745,0,0,1,.393-1.07,2.683,2.683,0,0,1,1.066-.817,3.588,3.588,0,0,1,1.48-.3,2.924,2.924,0,0,1,2,.639,2.306,2.306,0,0,1,.752,1.76v3.4a4.162,4.162,0,0,0,.26,1.62V59Zm-2.1-.964a2.223,2.223,0,0,0,1.128-.308,1.861,1.861,0,0,0,.772-.8V55.411h-.991q-2.324,0-2.324,1.36a1.151,1.151,0,0,0,.4.93A1.524,1.524,0,0,0,139.856,58.036Zm5.175.3a.792.792,0,0,1,.195-.547.742.742,0,0,1,.584-.219.765.765,0,0,1,.591.219.776.776,0,0,1,.2.547.734.734,0,0,1-.2.526.778.778,0,0,1-.591.212.7.7,0,0,1-.779-.738Zm8.224-.068a2.686,2.686,0,0,1-2.167.868,2.3,2.3,0,0,1-1.8-.687,2.974,2.974,0,0,1-.625-2.034V51.6h1.265v4.778q0,1.682,1.367,1.682a1.893,1.893,0,0,0,1.928-1.08V51.6h1.265V59h-1.2Zm4.867-8.456V51.6H159.5v.978h-1.381v4.593a1.027,1.027,0,0,0,.185.667.777.777,0,0,0,.629.222,3.062,3.062,0,0,0,.6-.082V59a3.688,3.688,0,0,1-.971.136,1.575,1.575,0,0,1-1.278-.513,2.2,2.2,0,0,1-.431-1.456V52.581h-1.347V51.6h1.347V49.813ZM162.354,59h-1.265V51.6h1.265Zm-1.367-9.358a.755.755,0,0,1,.188-.52.706.706,0,0,1,.557-.212.717.717,0,0,1,.561.212.747.747,0,0,1,.191.52.722.722,0,0,1-.191.513.73.73,0,0,1-.561.205.718.718,0,0,1-.557-.205A.73.73,0,0,1,160.986,49.642ZM165.751,59h-1.265V48.5h1.265Zm2.051-.663A.792.792,0,0,1,168,57.79a.742.742,0,0,1,.584-.219.765.765,0,0,1,.591.219.776.776,0,0,1,.2.547.734.734,0,0,1-.2.526.778.778,0,0,1-.591.212.7.7,0,0,1-.779-.738Zm3.855.663V49.047h2.81a4.523,4.523,0,0,1,2.3.574,3.884,3.884,0,0,1,1.542,1.634,5.318,5.318,0,0,1,.55,2.434v.636a5.336,5.336,0,0,1-.543,2.468,3.823,3.823,0,0,1-1.552,1.627,4.811,4.811,0,0,1-2.348.581Zm1.313-8.88v7.807h1.381a3,3,0,0,0,2.362-.944,3.9,3.9,0,0,0,.844-2.689v-.582a3.963,3.963,0,0,0-.8-2.637,2.834,2.834,0,0,0-2.259-.954ZM185.206,59a2.657,2.657,0,0,1-.178-.779,2.822,2.822,0,0,1-2.105.916,2.611,2.611,0,0,1-1.794-.619,2,2,0,0,1-.7-1.569,2.091,2.091,0,0,1,.878-1.794,4.142,4.142,0,0,1,2.471-.639h1.23v-.581a1.42,1.42,0,0,0-.4-1.056,1.593,1.593,0,0,0-1.169-.393,1.844,1.844,0,0,0-1.135.342,1.007,1.007,0,0,0-.458.827h-1.271a1.745,1.745,0,0,1,.393-1.07,2.683,2.683,0,0,1,1.066-.817,3.588,3.588,0,0,1,1.48-.3,2.924,2.924,0,0,1,2,.639,2.306,2.306,0,0,1,.752,1.76v3.4a4.162,4.162,0,0,0,.26,1.62V59Zm-2.1-.964a2.223,2.223,0,0,0,1.128-.308,1.861,1.861,0,0,0,.772-.8V55.411h-.991q-2.324,0-2.324,1.36a1.151,1.151,0,0,0,.4.93A1.524,1.524,0,0,0,183.107,58.036Zm6.863-8.224V51.6h1.381v.978h-1.381v4.593a1.027,1.027,0,0,0,.185.667.777.777,0,0,0,.629.222,3.062,3.062,0,0,0,.6-.082V59a3.688,3.688,0,0,1-.971.136,1.575,1.575,0,0,1-1.278-.513,2.2,2.2,0,0,1-.431-1.456V52.581h-1.347V51.6h1.347V49.813Zm5.927,9.324a3.232,3.232,0,0,1-2.447-.988,3.666,3.666,0,0,1-.943-2.642v-.232a4.438,4.438,0,0,1,.42-1.965,3.279,3.279,0,0,1,1.176-1.354,2.956,2.956,0,0,1,1.637-.489,2.77,2.77,0,0,1,2.242.95,4.114,4.114,0,0,1,.8,2.721v.526h-5.011a2.629,2.629,0,0,0,.639,1.767,2.009,2.009,0,0,0,1.555.673,2.2,2.2,0,0,0,1.135-.273,2.851,2.851,0,0,0,.813-.725l.772.6A3.106,3.106,0,0,1,195.9,59.137Zm-.157-6.631a1.687,1.687,0,0,0-1.285.557,2.708,2.708,0,0,0-.643,1.562h3.705v-.1a2.409,2.409,0,0,0-.52-1.494A1.588,1.588,0,0,0,195.74,52.506Zm5.182-3.247-.144,2.516H199.9L199.9,48.5h1.019Zm4.895,1.7a2.02,2.02,0,0,1,.571-1.477,2.145,2.145,0,0,1,2.939,0A2.09,2.09,0,0,1,209.891,51v.485a1.994,1.994,0,0,1-.571,1.473,1.968,1.968,0,0,1-1.453.571,2.011,2.011,0,0,1-1.47-.571,2.036,2.036,0,0,1-.581-1.521Zm.943.524a1.294,1.294,0,0,0,.3.88,1.015,1.015,0,0,0,.807.346,1,1,0,0,0,.783-.336,1.336,1.336,0,0,0,.3-.918v-.5a1.326,1.326,0,0,0-.294-.884,1.09,1.09,0,0,0-1.6,0,1.368,1.368,0,0,0-.294.911Zm3.9,5.075a2.008,2.008,0,0,1,.571-1.473,2.159,2.159,0,0,1,2.936,0,2.06,2.06,0,0,1,.574,1.524v.485a2.008,2.008,0,0,1-.571,1.473,1.964,1.964,0,0,1-1.459.578,2.011,2.011,0,0,1-1.47-.571,2.036,2.036,0,0,1-.581-1.521Zm.943.53a1.3,1.3,0,0,0,.3.887,1.015,1.015,0,0,0,.807.346.988.988,0,0,0,.786-.339,1.359,1.359,0,0,0,.294-.922v-.507a1.3,1.3,0,0,0-.3-.884,1.093,1.093,0,0,0-1.586,0,1.319,1.319,0,0,0-.3.915Zm-3.452,1.158-.718-.451,4.86-7.779.718.451Zm12.633-3.691-4.519-1.771v-1.3l5.838,2.584v1l-5.838,2.591V56.348ZM1.8,76.6l4.279,1.729v1.34L.492,77.076v-1l5.592-2.584v1.34Zm7.533-2.1a2.689,2.689,0,0,1,2.188-1.032q2.345,0,2.365,2.646V81H12.626V76.105a1.7,1.7,0,0,0-.366-1.183,1.466,1.466,0,0,0-1.118-.383,1.825,1.825,0,0,0-1.08.328,2.228,2.228,0,0,0-.725.861V81H8.073V70.5H9.338ZM17.5,71.813V73.6h1.381v.978H17.5v4.593a1.027,1.027,0,0,0,.185.667.777.777,0,0,0,.629.222,3.062,3.062,0,0,0,.6-.082V81a3.688,3.688,0,0,1-.971.136,1.575,1.575,0,0,1-1.278-.513,2.2,2.2,0,0,1-.431-1.456V74.581H14.889V73.6h1.347V71.813ZM21.547,73.6l.034.82a2.732,2.732,0,0,1,2.194-.957,2.115,2.115,0,0,1,2.112,1.189,2.8,2.8,0,0,1,.96-.861,2.837,2.837,0,0,1,1.4-.328q2.434,0,2.475,2.577V81H29.456V76.119a1.7,1.7,0,0,0-.362-1.186,1.6,1.6,0,0,0-1.217-.393,1.677,1.677,0,0,0-1.169.42,1.706,1.706,0,0,0-.54,1.131V81H24.9V76.153a1.411,1.411,0,0,0-1.579-1.613,1.692,1.692,0,0,0-1.7,1.06V81H20.351V73.6ZM34,81H32.737V70.5H34Zm6.5-4.443-4.519-1.771v-1.3l5.838,2.584v1L35.984,79.66V78.348ZM8.736,98.6l4.279,1.729v1.34L7.424,99.076v-1l5.592-2.584v1.34Zm7.533-2.1a2.689,2.689,0,0,1,2.188-1.032q2.345,0,2.365,2.646V103H19.558V98.105a1.7,1.7,0,0,0-.366-1.183,1.466,1.466,0,0,0-1.118-.383,1.825,1.825,0,0,0-1.08.328,2.228,2.228,0,0,0-.725.861V103H15V92.5H16.27Zm9.516,6.638a3.232,3.232,0,0,1-2.447-.988,3.666,3.666,0,0,1-.943-2.642v-.232a4.438,4.438,0,0,1,.42-1.965,3.279,3.279,0,0,1,1.176-1.354,2.956,2.956,0,0,1,1.637-.489,2.77,2.77,0,0,1,2.242.95,4.114,4.114,0,0,1,.8,2.721v.526H23.659a2.629,2.629,0,0,0,.639,1.767,2.009,2.009,0,0,0,1.555.673,2.2,2.2,0,0,0,1.135-.273,2.851,2.851,0,0,0,.813-.725l.772.6A3.106,3.106,0,0,1,25.785,103.137Zm-.157-6.631a1.687,1.687,0,0,0-1.285.557,2.708,2.708,0,0,0-.643,1.562h3.705v-.1a2.409,2.409,0,0,0-.52-1.494A1.588,1.588,0,0,0,25.628,96.506ZM34.7,103a2.657,2.657,0,0,1-.178-.779,2.822,2.822,0,0,1-2.105.916,2.611,2.611,0,0,1-1.794-.619,2,2,0,0,1-.7-1.569,2.091,2.091,0,0,1,.878-1.794,4.141,4.141,0,0,1,2.471-.639H34.5v-.581a1.42,1.42,0,0,0-.4-1.056,1.593,1.593,0,0,0-1.169-.393,1.844,1.844,0,0,0-1.135.342,1.007,1.007,0,0,0-.458.827H30.071a1.745,1.745,0,0,1,.393-1.07,2.683,2.683,0,0,1,1.066-.817,3.588,3.588,0,0,1,1.48-.3,2.924,2.924,0,0,1,2,.639,2.306,2.306,0,0,1,.752,1.76v3.4a4.162,4.162,0,0,0,.26,1.62V103Zm-2.1-.964a2.223,2.223,0,0,0,1.128-.308,1.861,1.861,0,0,0,.772-.8V99.411H33.51q-2.324,0-2.324,1.36a1.151,1.151,0,0,0,.4.93A1.524,1.524,0,0,0,32.6,102.036Zm4.84-2.8a4.333,4.333,0,0,1,.807-2.738,2.745,2.745,0,0,1,4.17-.147V92.5h1.265V103H42.52l-.062-.793a2.575,2.575,0,0,1-2.112.93,2.526,2.526,0,0,1-2.1-1.053,4.382,4.382,0,0,1-.81-2.748Zm1.265.144a3.281,3.281,0,0,0,.52,1.969,1.68,1.68,0,0,0,1.436.711,1.845,1.845,0,0,0,1.757-1.08v-3.4a1.859,1.859,0,0,0-1.743-1.046,1.687,1.687,0,0,0-1.449.718A3.612,3.612,0,0,0,38.705,99.384Zm11.416-.827L45.6,96.786v-1.3l5.838,2.584v1L45.6,101.66v-1.312ZM15.668,120.6l4.279,1.729v1.34l-5.592-2.591v-1l5.592-2.584v1.34Zm7.984-4.785V117.6h1.381v.978H23.652v4.593a1.027,1.027,0,0,0,.185.667.777.777,0,0,0,.629.222,3.062,3.062,0,0,0,.6-.082V125a3.688,3.688,0,0,1-.971.136,1.575,1.575,0,0,1-1.278-.513,2.2,2.2,0,0,1-.431-1.456v-4.587H21.041V117.6h1.347v-1.791ZM27.884,125H26.619v-7.4h1.265Zm-1.367-9.358a.755.755,0,0,1,.188-.52.706.706,0,0,1,.557-.212.717.717,0,0,1,.561.212.747.747,0,0,1,.191.52.722.722,0,0,1-.191.513.73.73,0,0,1-.561.205.718.718,0,0,1-.557-.205A.73.73,0,0,1,26.517,115.642Zm5.106.171V117.6H33v.978H31.623v4.593a1.027,1.027,0,0,0,.185.667.777.777,0,0,0,.629.222,3.062,3.062,0,0,0,.6-.082V125a3.688,3.688,0,0,1-.971.136,1.575,1.575,0,0,1-1.278-.513,2.2,2.2,0,0,1-.431-1.456v-4.587H29.012V117.6h1.347v-1.791ZM35.854,125H34.59V114.5h1.265Zm5.093.137a3.232,3.232,0,0,1-2.447-.988,3.666,3.666,0,0,1-.943-2.642v-.232a4.438,4.438,0,0,1,.42-1.965,3.279,3.279,0,0,1,1.176-1.354,2.956,2.956,0,0,1,1.637-.489,2.77,2.77,0,0,1,2.242.95,4.114,4.114,0,0,1,.8,2.721v.526H38.821a2.629,2.629,0,0,0,.639,1.767,2.009,2.009,0,0,0,1.555.673,2.2,2.2,0,0,0,1.135-.273,2.851,2.851,0,0,0,.813-.725l.772.6A3.106,3.106,0,0,1,40.947,125.137Zm-.157-6.631a1.687,1.687,0,0,0-1.285.557,2.708,2.708,0,0,0-.643,1.562h3.705v-.1a2.409,2.409,0,0,0-.52-1.494A1.588,1.588,0,0,0,40.79,118.506Zm8.982,2.051-4.519-1.771v-1.3l5.838,2.584v1l-5.838,2.591v-1.312ZM60.457,125H59.138v-4.6H54.12V125H52.808v-9.953H54.12v4.279h5.018v-4.279h1.319Zm1.8-3.767a4.369,4.369,0,0,1,.427-1.955,3.187,3.187,0,0,1,1.189-1.34,3.238,3.238,0,0,1,1.74-.472,3.119,3.119,0,0,1,2.444,1.046,4.024,4.024,0,0,1,.933,2.782v.089a4.407,4.407,0,0,1-.414,1.938,3.14,3.14,0,0,1-1.183,1.336,3.275,3.275,0,0,1-1.767.479,3.111,3.111,0,0,1-2.437-1.046,4,4,0,0,1-.933-2.769Zm1.271.15a3.164,3.164,0,0,0,.571,1.976,1.934,1.934,0,0,0,3.059-.01,3.46,3.46,0,0,0,.567-2.116,3.159,3.159,0,0,0-.578-1.972,1.836,1.836,0,0,0-1.535-.755,1.816,1.816,0,0,0-1.511.745A3.434,3.434,0,0,0,63.526,121.384ZM71.948,125H70.684V114.5h1.265Zm6.59,0a2.657,2.657,0,0,1-.178-.779,2.822,2.822,0,0,1-2.105.916,2.611,2.611,0,0,1-1.794-.619,2,2,0,0,1-.7-1.569,2.091,2.091,0,0,1,.878-1.794,4.141,4.141,0,0,1,2.471-.639h1.23v-.581a1.42,1.42,0,0,0-.4-1.056,1.593,1.593,0,0,0-1.169-.393,1.844,1.844,0,0,0-1.135.342,1.007,1.007,0,0,0-.458.827H73.91a1.745,1.745,0,0,1,.393-1.07,2.683,2.683,0,0,1,1.066-.817,3.588,3.588,0,0,1,1.48-.3,2.924,2.924,0,0,1,2,.639,2.306,2.306,0,0,1,.752,1.76v3.4a4.162,4.162,0,0,0,.26,1.62V125Zm-2.1-.964a2.223,2.223,0,0,0,1.128-.308,1.861,1.861,0,0,0,.772-.8v-1.518h-.991q-2.324,0-2.324,1.36a1.151,1.151,0,0,0,.4.93A1.524,1.524,0,0,0,76.439,124.036ZM86.563,121.1V125H85.251v-9.953h3.671a3.688,3.688,0,0,1,2.56.834,2.827,2.827,0,0,1,.926,2.208,2.79,2.79,0,0,1-.906,2.232,3.853,3.853,0,0,1-2.594.783Zm0-1.073h2.358a2.358,2.358,0,0,0,1.613-.5A1.815,1.815,0,0,0,91.1,118.1a1.876,1.876,0,0,0-.561-1.424A2.209,2.209,0,0,0,89,116.12H86.563Zm8.7,4.97H93.994V114.5h1.265Zm6.59,0a2.657,2.657,0,0,1-.178-.779,2.822,2.822,0,0,1-2.105.916,2.611,2.611,0,0,1-1.794-.619,2,2,0,0,1-.7-1.569,2.091,2.091,0,0,1,.878-1.794,4.141,4.141,0,0,1,2.471-.639h1.23v-.581a1.42,1.42,0,0,0-.4-1.056,1.593,1.593,0,0,0-1.169-.393,1.844,1.844,0,0,0-1.135.342,1.007,1.007,0,0,0-.458.827H97.221a1.745,1.745,0,0,1,.393-1.07,2.683,2.683,0,0,1,1.066-.817,3.588,3.588,0,0,1,1.48-.3,2.924,2.924,0,0,1,2,.639,2.306,2.306,0,0,1,.752,1.76v3.4a4.162,4.162,0,0,0,.26,1.62V125Zm-2.1-.964a2.223,2.223,0,0,0,1.128-.308,1.861,1.861,0,0,0,.772-.8v-1.518h-.991q-2.324,0-2.324,1.36a1.151,1.151,0,0,0,.4.93A1.524,1.524,0,0,0,99.75,124.036Zm6.344-6.433.041.93a2.7,2.7,0,0,1,2.215-1.066q2.345,0,2.365,2.646V125H109.45v-4.895a1.7,1.7,0,0,0-.366-1.183,1.466,1.466,0,0,0-1.118-.383,1.825,1.825,0,0,0-1.08.328,2.228,2.228,0,0,0-.725.861V125H104.9v-7.4Zm9.6,7.533a3.232,3.232,0,0,1-2.447-.988,3.666,3.666,0,0,1-.943-2.642v-.232a4.438,4.438,0,0,1,.42-1.965,3.28,3.28,0,0,1,1.176-1.354,2.956,2.956,0,0,1,1.637-.489,2.77,2.77,0,0,1,2.242.95,4.114,4.114,0,0,1,.8,2.721v.526h-5.011a2.629,2.629,0,0,0,.639,1.767,2.009,2.009,0,0,0,1.555.673,2.2,2.2,0,0,0,1.135-.273,2.851,2.851,0,0,0,.813-.725l.772.6A3.106,3.106,0,0,1,115.691,125.137Zm-.157-6.631a1.687,1.687,0,0,0-1.285.557,2.708,2.708,0,0,0-.643,1.562h3.705v-.1a2.409,2.409,0,0,0-.52-1.494A1.588,1.588,0,0,0,115.534,118.506Zm6.221-2.693V117.6h1.381v.978h-1.381v4.593a1.027,1.027,0,0,0,.185.667.777.777,0,0,0,.629.222,3.062,3.062,0,0,0,.6-.082V125a3.688,3.688,0,0,1-.971.136,1.575,1.575,0,0,1-1.278-.513,2.2,2.2,0,0,1-.431-1.456v-4.587h-1.347V117.6h1.347v-1.791ZM129.179,125a2.657,2.657,0,0,1-.178-.779,2.822,2.822,0,0,1-2.105.916,2.611,2.611,0,0,1-1.794-.619,2,2,0,0,1-.7-1.569,2.091,2.091,0,0,1,.878-1.794,4.141,4.141,0,0,1,2.471-.639h1.23v-.581a1.42,1.42,0,0,0-.4-1.056,1.593,1.593,0,0,0-1.169-.393,1.844,1.844,0,0,0-1.135.342,1.007,1.007,0,0,0-.458.827h-1.271a1.745,1.745,0,0,1,.393-1.07,2.683,2.683,0,0,1,1.066-.817,3.588,3.588,0,0,1,1.48-.3,2.924,2.924,0,0,1,2,.639,2.306,2.306,0,0,1,.752,1.76v3.4a4.162,4.162,0,0,0,.26,1.62V125Zm-2.1-.964a2.223,2.223,0,0,0,1.128-.308,1.861,1.861,0,0,0,.772-.8v-1.518h-.991q-2.324,0-2.324,1.36a1.151,1.151,0,0,0,.4.93A1.524,1.524,0,0,0,127.08,124.036Zm6-3.438,4.279,1.729v1.34l-5.592-2.591v-1l5.592-2.584v1.34Zm6.521,5.257H138.51l4.156-10.808h1.08Zm7.232-10.042V117.6h1.381v.978h-1.381v4.593a1.027,1.027,0,0,0,.185.667.777.777,0,0,0,.629.222,3.062,3.062,0,0,0,.6-.082V125a3.688,3.688,0,0,1-.971.136,1.575,1.575,0,0,1-1.278-.513,2.2,2.2,0,0,1-.431-1.456v-4.587h-1.347V117.6h1.347v-1.791ZM151.061,125H149.8v-7.4h1.265Zm-1.367-9.358a.755.755,0,0,1,.188-.52.706.706,0,0,1,.557-.212.717.717,0,0,1,.561.212.747.747,0,0,1,.191.52.722.722,0,0,1-.191.513.73.73,0,0,1-.561.205.718.718,0,0,1-.557-.205A.73.73,0,0,1,149.693,115.642Zm5.106.171V117.6h1.381v.978H154.8v4.593a1.027,1.027,0,0,0,.185.667.777.777,0,0,0,.629.222,3.062,3.062,0,0,0,.6-.082V125a3.688,3.688,0,0,1-.971.136,1.575,1.575,0,0,1-1.278-.513,2.2,2.2,0,0,1-.431-1.456v-4.587h-1.347V117.6h1.347v-1.791ZM159.031,125h-1.265V114.5h1.265Zm5.093.137a3.232,3.232,0,0,1-2.447-.988,3.666,3.666,0,0,1-.943-2.642v-.232a4.438,4.438,0,0,1,.42-1.965,3.279,3.279,0,0,1,1.176-1.354,2.956,2.956,0,0,1,1.637-.489,2.77,2.77,0,0,1,2.242.95,4.114,4.114,0,0,1,.8,2.721v.526H162a2.629,2.629,0,0,0,.639,1.767,2.009,2.009,0,0,0,1.555.673,2.2,2.2,0,0,0,1.135-.273,2.851,2.851,0,0,0,.813-.725l.772.6A3.106,3.106,0,0,1,164.124,125.137Zm-.157-6.631a1.687,1.687,0,0,0-1.285.557,2.708,2.708,0,0,0-.643,1.562h3.705v-.1a2.409,2.409,0,0,0-.52-1.494A1.588,1.588,0,0,0,163.967,118.506Zm8.982,2.051-4.519-1.771v-1.3l5.838,2.584v1l-5.838,2.591v-1.312ZM8.736,142.6l4.279,1.729v1.34l-5.592-2.591v-1l5.592-2.584v1.34Zm6.521,5.257H14.171l4.156-10.808h1.08Zm6.781-7.355a2.689,2.689,0,0,1,2.188-1.032q2.345,0,2.365,2.646V147H25.327v-4.895a1.7,1.7,0,0,0-.366-1.183,1.466,1.466,0,0,0-1.118-.383,1.825,1.825,0,0,0-1.08.328,2.228,2.228,0,0,0-.725.861V147H20.774V136.5h1.265Zm9.516,6.638a3.232,3.232,0,0,1-2.447-.988,3.666,3.666,0,0,1-.943-2.642v-.232a4.438,4.438,0,0,1,.42-1.965,3.28,3.28,0,0,1,1.176-1.354,2.956,2.956,0,0,1,1.637-.489,2.77,2.77,0,0,1,2.242.95,4.114,4.114,0,0,1,.8,2.721v.526H29.429a2.629,2.629,0,0,0,.639,1.767,2.009,2.009,0,0,0,1.555.673,2.2,2.2,0,0,0,1.135-.273,2.851,2.851,0,0,0,.813-.725l.772.6A3.106,3.106,0,0,1,31.555,147.137Zm-.157-6.631a1.687,1.687,0,0,0-1.285.557,2.708,2.708,0,0,0-.643,1.562h3.705v-.1a2.409,2.409,0,0,0-.52-1.494A1.588,1.588,0,0,0,31.4,140.506ZM40.469,147a2.657,2.657,0,0,1-.178-.779,2.822,2.822,0,0,1-2.105.916,2.611,2.611,0,0,1-1.794-.619,2,2,0,0,1-.7-1.569,2.091,2.091,0,0,1,.878-1.794,4.142,4.142,0,0,1,2.471-.639h1.23v-.581a1.42,1.42,0,0,0-.4-1.056,1.593,1.593,0,0,0-1.169-.393,1.844,1.844,0,0,0-1.135.342,1.007,1.007,0,0,0-.458.827H35.841a1.745,1.745,0,0,1,.393-1.07,2.683,2.683,0,0,1,1.066-.817,3.588,3.588,0,0,1,1.48-.3,2.924,2.924,0,0,1,2,.639,2.306,2.306,0,0,1,.752,1.76v3.4a4.162,4.162,0,0,0,.26,1.62V147Zm-2.1-.964a2.223,2.223,0,0,0,1.128-.308,1.861,1.861,0,0,0,.772-.8v-1.518h-.991q-2.324,0-2.324,1.36a1.151,1.151,0,0,0,.4.93A1.524,1.524,0,0,0,38.37,146.036Zm4.84-2.8a4.333,4.333,0,0,1,.807-2.738,2.745,2.745,0,0,1,4.17-.147V136.5h1.265V147H48.289l-.062-.793a2.575,2.575,0,0,1-2.112.93,2.526,2.526,0,0,1-2.1-1.053,4.382,4.382,0,0,1-.81-2.748Zm1.265.144a3.281,3.281,0,0,0,.52,1.969,1.68,1.68,0,0,0,1.436.711,1.845,1.845,0,0,0,1.757-1.08v-3.4a1.859,1.859,0,0,0-1.743-1.046,1.687,1.687,0,0,0-1.449.718A3.612,3.612,0,0,0,44.475,143.384Zm11.416-.827-4.519-1.771v-1.3l5.838,2.584v1l-5.838,2.591v-1.312ZM8.736,164.6l4.279,1.729v1.34l-5.592-2.591v-1l5.592-2.584v1.34Zm12.53.786a4.4,4.4,0,0,1-.779,2.724,2.49,2.49,0,0,1-2.092,1.029,2.578,2.578,0,0,1-2.167-.991l-.062.854H15V158.5H16.27v3.917a2.564,2.564,0,0,1,2.112-.95,2.505,2.505,0,0,1,2.116,1.019,4.53,4.53,0,0,1,.769,2.789ZM20,165.24a3.417,3.417,0,0,0-.5-2,1.652,1.652,0,0,0-1.436-.7,1.857,1.857,0,0,0-1.8,1.162v3.2a1.909,1.909,0,0,0,1.812,1.162,1.643,1.643,0,0,0,1.415-.7A3.634,3.634,0,0,0,20,165.24Zm2.522-.007a4.369,4.369,0,0,1,.427-1.955,3.187,3.187,0,0,1,1.189-1.34,3.238,3.238,0,0,1,1.74-.472,3.119,3.119,0,0,1,2.444,1.046,4.024,4.024,0,0,1,.933,2.782v.089a4.407,4.407,0,0,1-.414,1.938,3.14,3.14,0,0,1-1.183,1.336,3.275,3.275,0,0,1-1.767.479,3.111,3.111,0,0,1-2.437-1.046,4,4,0,0,1-.933-2.769Zm1.271.15a3.164,3.164,0,0,0,.571,1.976,1.934,1.934,0,0,0,3.059-.01,3.46,3.46,0,0,0,.567-2.116,3.159,3.159,0,0,0-.578-1.972,1.836,1.836,0,0,0-1.535-.755,1.816,1.816,0,0,0-1.511.745A3.435,3.435,0,0,0,23.8,165.384Zm6.74-.144a4.333,4.333,0,0,1,.807-2.738,2.745,2.745,0,0,1,4.17-.147V158.5h1.265V169H35.615l-.062-.793a2.575,2.575,0,0,1-2.112.93,2.526,2.526,0,0,1-2.1-1.053,4.382,4.382,0,0,1-.81-2.748Zm1.265.144a3.281,3.281,0,0,0,.52,1.969,1.68,1.68,0,0,0,1.436.711,1.845,1.845,0,0,0,1.757-1.08v-3.4a1.859,1.859,0,0,0-1.743-1.046,1.687,1.687,0,0,0-1.449.718A3.612,3.612,0,0,0,31.8,165.384Zm9.358,1.764,1.723-5.544h1.354l-2.974,8.538q-.69,1.846-2.194,1.846l-.239-.021-.472-.089v-1.025l.342.027a1.683,1.683,0,0,0,1-.26,1.88,1.88,0,0,0,.591-.95l.28-.752L37.933,161.6h1.381Zm8.682-2.591-4.519-1.771v-1.3l5.838,2.584v1l-5.838,2.591v-1.312ZM15.668,186.6l4.279,1.729v1.34l-5.592-2.591v-1l5.592-2.584v1.34Zm12.517.786a4.429,4.429,0,0,1-.772,2.721,2.476,2.476,0,0,1-2.092,1.032,2.713,2.713,0,0,1-2.119-.854v3.562H21.937V183.6h1.155l.062.82a2.605,2.605,0,0,1,2.146-.957,2.522,2.522,0,0,1,2.109,1,4.477,4.477,0,0,1,.776,2.8Zm-1.265-.144a3.268,3.268,0,0,0-.533-1.976,1.718,1.718,0,0,0-1.463-.725,1.859,1.859,0,0,0-1.723,1.019v3.534a1.863,1.863,0,0,0,1.736,1.012,1.71,1.71,0,0,0,1.446-.721A3.567,3.567,0,0,0,26.92,187.24Zm7.349-.684-4.519-1.771v-1.3l5.838,2.584v1L29.75,189.66v-1.312ZM37.3,191v-9.953h3.254a3.777,3.777,0,0,1,2.437.67,2.414,2.414,0,0,1,.817,1.982,2.022,2.022,0,0,1-.4,1.234,2.57,2.57,0,0,1-1.08.831,2.308,2.308,0,0,1,1.275.858,2.462,2.462,0,0,1,.468,1.507,2.662,2.662,0,0,1-.868,2.105,3.59,3.59,0,0,1-2.454.766Zm1.313-4.655v3.582h2.167a2.087,2.087,0,0,0,1.446-.475,1.669,1.669,0,0,0,.53-1.309q0-1.8-1.955-1.8Zm0-1.053H40.6a2.078,2.078,0,0,0,1.377-.432,1.447,1.447,0,0,0,.516-1.171,1.423,1.423,0,0,0-.479-1.2,2.35,2.35,0,0,0-1.456-.373H38.616ZM47.2,191H45.931v-7.4H47.2Zm-1.367-9.358a.755.755,0,0,1,.188-.52.706.706,0,0,1,.557-.212.717.717,0,0,1,.561.212.747.747,0,0,1,.191.52.722.722,0,0,1-.191.513.73.73,0,0,1-.561.205.718.718,0,0,1-.557-.205A.73.73,0,0,1,45.828,181.642Zm6.46,9.5a3.232,3.232,0,0,1-2.447-.988,3.666,3.666,0,0,1-.943-2.642v-.232a4.438,4.438,0,0,1,.42-1.965,3.28,3.28,0,0,1,1.176-1.354,2.956,2.956,0,0,1,1.637-.489,2.77,2.77,0,0,1,2.242.95,4.114,4.114,0,0,1,.8,2.721v.526H50.162a2.629,2.629,0,0,0,.639,1.767,2.009,2.009,0,0,0,1.555.673,2.2,2.2,0,0,0,1.135-.273,2.851,2.851,0,0,0,.813-.725l.772.6A3.106,3.106,0,0,1,52.288,191.137Zm-.157-6.631a1.687,1.687,0,0,0-1.285.557,2.708,2.708,0,0,0-.643,1.562h3.705v-.1a2.409,2.409,0,0,0-.52-1.494A1.588,1.588,0,0,0,52.131,184.506Zm5.7-.9.041.93a2.7,2.7,0,0,1,2.215-1.066q2.345,0,2.365,2.646V191H61.188v-4.895a1.7,1.7,0,0,0-.366-1.183,1.466,1.466,0,0,0-1.118-.383,1.825,1.825,0,0,0-1.08.328,2.228,2.228,0,0,0-.725.861V191H56.636v-7.4Zm8.969,5.681,1.832-5.681h1.292L67.272,191h-.964l-2.68-7.4h1.292Zm7.41,1.853a3.232,3.232,0,0,1-2.447-.988,3.666,3.666,0,0,1-.943-2.642v-.232a4.438,4.438,0,0,1,.42-1.965,3.28,3.28,0,0,1,1.176-1.354,2.956,2.956,0,0,1,1.637-.489,2.77,2.77,0,0,1,2.242.95,4.114,4.114,0,0,1,.8,2.721v.526H72.085a2.629,2.629,0,0,0,.639,1.767,2.009,2.009,0,0,0,1.555.673,2.2,2.2,0,0,0,1.135-.273,2.851,2.851,0,0,0,.813-.725l.772.6A3.106,3.106,0,0,1,74.211,191.137Zm-.157-6.631a1.687,1.687,0,0,0-1.285.557,2.708,2.708,0,0,0-.643,1.562h3.705v-.1a2.409,2.409,0,0,0-.52-1.494A1.588,1.588,0,0,0,74.054,184.506Zm5.7-.9.041.93a2.7,2.7,0,0,1,2.215-1.066q2.345,0,2.365,2.646V191H83.111v-4.895a1.7,1.7,0,0,0-.366-1.183,1.466,1.466,0,0,0-1.118-.383,1.825,1.825,0,0,0-1.08.328,2.228,2.228,0,0,0-.725.861V191H78.559v-7.4Zm7.9,7.4H86.393v-7.4h1.265Zm-1.367-9.358a.755.755,0,0,1,.188-.52.706.706,0,0,1,.557-.212.717.717,0,0,1,.561.212.747.747,0,0,1,.191.52.722.722,0,0,1-.191.513.73.73,0,0,1-.561.205.718.718,0,0,1-.557-.205A.73.73,0,0,1,86.29,181.642Zm3.083,5.6a4.333,4.333,0,0,1,.807-2.738,2.745,2.745,0,0,1,4.17-.147V180.5h1.265V191H94.452l-.062-.793a2.575,2.575,0,0,1-2.112.93,2.526,2.526,0,0,1-2.1-1.053,4.382,4.382,0,0,1-.81-2.748Zm1.265.144a3.281,3.281,0,0,0,.52,1.969,1.68,1.68,0,0,0,1.436.711,1.845,1.845,0,0,0,1.757-1.08v-3.4a1.859,1.859,0,0,0-1.743-1.046,1.687,1.687,0,0,0-1.449.718A3.612,3.612,0,0,0,90.638,187.384Zm6.6-.15a4.369,4.369,0,0,1,.427-1.955,3.187,3.187,0,0,1,1.189-1.34,3.238,3.238,0,0,1,1.74-.472,3.119,3.119,0,0,1,2.444,1.046,4.024,4.024,0,0,1,.933,2.782v.089a4.407,4.407,0,0,1-.414,1.938,3.14,3.14,0,0,1-1.183,1.336,3.275,3.275,0,0,1-1.767.479,3.111,3.111,0,0,1-2.437-1.046,4,4,0,0,1-.933-2.769Zm1.271.15a3.164,3.164,0,0,0,.571,1.976,1.934,1.934,0,0,0,3.059-.01,3.46,3.46,0,0,0,.567-2.116,3.159,3.159,0,0,0-.578-1.972,1.836,1.836,0,0,0-1.535-.755,1.816,1.816,0,0,0-1.511.745A3.435,3.435,0,0,0,98.513,187.384ZM113.593,191a2.657,2.657,0,0,1-.178-.779,2.822,2.822,0,0,1-2.105.916,2.611,2.611,0,0,1-1.794-.619,2,2,0,0,1-.7-1.569,2.091,2.091,0,0,1,.878-1.794,4.142,4.142,0,0,1,2.471-.639h1.23v-.581a1.42,1.42,0,0,0-.4-1.056,1.593,1.593,0,0,0-1.169-.393,1.844,1.844,0,0,0-1.135.342,1.007,1.007,0,0,0-.458.827h-1.271a1.745,1.745,0,0,1,.393-1.07,2.683,2.683,0,0,1,1.066-.817,3.588,3.588,0,0,1,1.48-.3,2.924,2.924,0,0,1,2,.639,2.306,2.306,0,0,1,.752,1.76v3.4a4.162,4.162,0,0,0,.26,1.62V191Zm-2.1-.964a2.223,2.223,0,0,0,1.128-.308,1.861,1.861,0,0,0,.772-.8v-1.518H112.4q-2.324,0-2.324,1.36a1.151,1.151,0,0,0,.4.93A1.524,1.524,0,0,0,111.494,190.036Zm9.987.964h-1.265V180.5h1.265Zm6.59,0a2.657,2.657,0,0,1-.178-.779,2.822,2.822,0,0,1-2.105.916,2.611,2.611,0,0,1-1.794-.619,2,2,0,0,1-.7-1.569,2.091,2.091,0,0,1,.878-1.794,4.142,4.142,0,0,1,2.471-.639h1.23v-.581a1.42,1.42,0,0,0-.4-1.056,1.593,1.593,0,0,0-1.169-.393,1.844,1.844,0,0,0-1.135.342,1.007,1.007,0,0,0-.458.827h-1.271a1.745,1.745,0,0,1,.393-1.07,2.683,2.683,0,0,1,1.066-.817,3.588,3.588,0,0,1,1.48-.3,2.924,2.924,0,0,1,2,.639,2.306,2.306,0,0,1,.752,1.76v3.4a4.162,4.162,0,0,0,.26,1.62V191Zm-2.1-.964a2.223,2.223,0,0,0,1.128-.308,1.861,1.861,0,0,0,.772-.8v-1.518h-.991q-2.324,0-2.324,1.36a1.151,1.151,0,0,0,.4.93A1.524,1.524,0,0,0,125.973,190.036Zm14.861-2.652a4.429,4.429,0,0,1-.772,2.721,2.476,2.476,0,0,1-2.092,1.032,2.713,2.713,0,0,1-2.119-.854v3.562h-1.265V183.6h1.155l.062.82a2.605,2.605,0,0,1,2.146-.957,2.522,2.522,0,0,1,2.109,1,4.477,4.477,0,0,1,.776,2.8Zm-1.265-.144a3.268,3.268,0,0,0-.533-1.976,1.718,1.718,0,0,0-1.463-.725,1.859,1.859,0,0,0-1.723,1.019v3.534a1.863,1.863,0,0,0,1.736,1.012,1.71,1.71,0,0,0,1.446-.721A3.567,3.567,0,0,0,139.569,187.24Zm7.438,3.76a2.657,2.657,0,0,1-.178-.779,2.822,2.822,0,0,1-2.105.916,2.611,2.611,0,0,1-1.794-.619,2,2,0,0,1-.7-1.569,2.091,2.091,0,0,1,.878-1.794,4.142,4.142,0,0,1,2.471-.639h1.23v-.581a1.42,1.42,0,0,0-.4-1.056,1.593,1.593,0,0,0-1.169-.393,1.844,1.844,0,0,0-1.135.342,1.007,1.007,0,0,0-.458.827h-1.271a1.745,1.745,0,0,1,.393-1.07,2.683,2.683,0,0,1,1.066-.817,3.588,3.588,0,0,1,1.48-.3,2.924,2.924,0,0,1,2,.639,2.306,2.306,0,0,1,.752,1.76v3.4a4.162,4.162,0,0,0,.26,1.62V191Zm-2.1-.964a2.223,2.223,0,0,0,1.128-.308,1.861,1.861,0,0,0,.772-.8v-1.518h-.991q-2.324,0-2.324,1.36a1.151,1.151,0,0,0,.4.93A1.524,1.524,0,0,0,144.908,190.036Zm1.169-9.536h1.531l-1.832,2.01-1.019,0Zm3.678,6.74a4.347,4.347,0,0,1,.8-2.751,2.757,2.757,0,0,1,4.231-.065l.062-.82H156v7.219a3.009,3.009,0,0,1-.851,2.263,3.141,3.141,0,0,1-2.287.827,3.8,3.8,0,0,1-1.565-.342,2.7,2.7,0,0,1-1.169-.937l.656-.759a2.473,2.473,0,0,0,1.989,1,1.938,1.938,0,0,0,1.439-.52,1.986,1.986,0,0,0,.516-1.463v-.636a2.6,2.6,0,0,1-2.071.875,2.526,2.526,0,0,1-2.1-1.046A4.571,4.571,0,0,1,149.755,187.24Zm1.271.144a3.316,3.316,0,0,0,.513,1.965,1.666,1.666,0,0,0,1.436.714,1.852,1.852,0,0,0,1.757-1.087V185.6a1.874,1.874,0,0,0-1.743-1.06,1.681,1.681,0,0,0-1.442.718A3.612,3.612,0,0,0,151.026,187.384ZM159.284,191H158.02v-7.4h1.265Zm-1.367-9.358a.755.755,0,0,1,.188-.52.706.706,0,0,1,.557-.212.717.717,0,0,1,.561.212.747.747,0,0,1,.191.52.722.722,0,0,1-.191.513.73.73,0,0,1-.561.205.718.718,0,0,1-.557-.205A.73.73,0,0,1,157.917,181.642ZM162.5,183.6l.041.93a2.7,2.7,0,0,1,2.215-1.066q2.345,0,2.365,2.646V191H165.86v-4.895a1.7,1.7,0,0,0-.366-1.183,1.466,1.466,0,0,0-1.118-.383,1.825,1.825,0,0,0-1.08.328,2.228,2.228,0,0,0-.725.861V191h-1.265v-7.4ZM173.6,191a2.657,2.657,0,0,1-.178-.779,2.822,2.822,0,0,1-2.105.916,2.611,2.611,0,0,1-1.794-.619,2,2,0,0,1-.7-1.569,2.091,2.091,0,0,1,.878-1.794,4.142,4.142,0,0,1,2.471-.639h1.23v-.581a1.42,1.42,0,0,0-.4-1.056,1.593,1.593,0,0,0-1.169-.393,1.844,1.844,0,0,0-1.135.342,1.007,1.007,0,0,0-.458.827h-1.271a1.745,1.745,0,0,1,.393-1.07,2.683,2.683,0,0,1,1.066-.817,3.588,3.588,0,0,1,1.48-.3,2.924,2.924,0,0,1,2,.639,2.306,2.306,0,0,1,.752,1.76v3.4a4.162,4.162,0,0,0,.26,1.62V191Zm-2.1-.964a2.223,2.223,0,0,0,1.128-.308,1.861,1.861,0,0,0,.772-.8v-1.518h-.991q-2.324,0-2.324,1.36a1.151,1.151,0,0,0,.4.93A1.524,1.524,0,0,0,171.5,190.036Zm12.981-8.989H185.8v7.048a2.919,2.919,0,0,1-.858,2.235,3.2,3.2,0,0,1-2.287.807,3.292,3.292,0,0,1-2.311-.759,2.74,2.74,0,0,1-.827-2.126h1.313a1.649,1.649,0,0,0,1.825,1.812,1.76,1.76,0,0,0,1.316-.513,1.986,1.986,0,0,0,.509-1.436Zm6.487,5.517a6.172,6.172,0,0,1-2.458-1.193,2.279,2.279,0,0,1-.769-1.747,2.408,2.408,0,0,1,.94-1.945,3.736,3.736,0,0,1,2.444-.769,4.078,4.078,0,0,1,1.829.4A3.007,3.007,0,0,1,194.2,182.4a2.8,2.8,0,0,1,.441,1.524H193.32a1.82,1.82,0,0,0-.574-1.423,2.335,2.335,0,0,0-1.62-.518,2.391,2.391,0,0,0-1.514.428,1.428,1.428,0,0,0-.543,1.188,1.285,1.285,0,0,0,.516,1.031,5.062,5.062,0,0,0,1.757.77,8.151,8.151,0,0,1,1.941.77,2.946,2.946,0,0,1,1.039.981,2.5,2.5,0,0,1,.338,1.319,2.326,2.326,0,0,1-.943,1.938,4.022,4.022,0,0,1-2.522.728,4.678,4.678,0,0,1-1.914-.393,3.221,3.221,0,0,1-1.371-1.077,2.627,2.627,0,0,1-.482-1.552h1.319a1.714,1.714,0,0,0,.667,1.425,2.806,2.806,0,0,0,1.781.523,2.58,2.58,0,0,0,1.593-.424,1.377,1.377,0,0,0,.554-1.155,1.351,1.351,0,0,0-.513-1.131A5.911,5.911,0,0,0,190.969,186.563Zm6.686.54V191h-1.312v-9.953h3.671a3.688,3.688,0,0,1,2.56.834,2.827,2.827,0,0,1,.926,2.208,2.79,2.79,0,0,1-.906,2.232A3.853,3.853,0,0,1,200,187.1Zm0-1.073h2.358a2.358,2.358,0,0,0,1.613-.5,1.815,1.815,0,0,0,.561-1.435,1.875,1.875,0,0,0-.561-1.424,2.209,2.209,0,0,0-1.538-.555h-2.434Zm5.134,4.307a.792.792,0,0,1,.195-.547.742.742,0,0,1,.584-.219.765.765,0,0,1,.591.219.776.776,0,0,1,.2.547.734.734,0,0,1-.2.526.778.778,0,0,1-.591.212.7.7,0,0,1-.779-.738Zm7.971-3.739,4.279,1.729v1.34l-5.592-2.591v-1l5.592-2.584v1.34Zm6.521,5.257h-1.087l4.156-10.808h1.08Zm11.765-4.471a4.429,4.429,0,0,1-.772,2.721,2.476,2.476,0,0,1-2.092,1.032,2.713,2.713,0,0,1-2.119-.854v3.562H222.8V183.6h1.155l.062.82a2.605,2.605,0,0,1,2.146-.957,2.522,2.522,0,0,1,2.109,1,4.477,4.477,0,0,1,.776,2.8Zm-1.265-.144a3.268,3.268,0,0,0-.533-1.976,1.718,1.718,0,0,0-1.463-.725,1.859,1.859,0,0,0-1.723,1.019v3.534A1.863,1.863,0,0,0,225.8,190.1a1.71,1.71,0,0,0,1.446-.721A3.567,3.567,0,0,0,227.78,187.24Zm7.349-.684-4.519-1.771v-1.3l5.838,2.584v1l-5.838,2.591v-1.312ZM15.668,208.6l4.279,1.729v1.34l-5.592-2.591v-1l5.592-2.584v1.34Zm12.517.786a4.429,4.429,0,0,1-.772,2.721,2.476,2.476,0,0,1-2.092,1.032,2.713,2.713,0,0,1-2.119-.854v3.562H21.937V205.6h1.155l.062.82a2.605,2.605,0,0,1,2.146-.957,2.522,2.522,0,0,1,2.109,1,4.477,4.477,0,0,1,.776,2.8Zm-1.265-.144a3.268,3.268,0,0,0-.533-1.976,1.718,1.718,0,0,0-1.463-.725,1.859,1.859,0,0,0-1.723,1.019v3.534a1.863,1.863,0,0,0,1.736,1.012,1.71,1.71,0,0,0,1.446-.721A3.567,3.567,0,0,0,26.92,209.24Zm7.349-.684-4.519-1.771v-1.3l5.838,2.584v1L29.75,211.66v-1.312Zm4.354,3.37H43.34V213H37.3v-9.953h1.319ZM49.205,213a2.657,2.657,0,0,1-.178-.779,2.822,2.822,0,0,1-2.105.916,2.611,2.611,0,0,1-1.794-.619,2,2,0,0,1-.7-1.569,2.091,2.091,0,0,1,.878-1.794,4.142,4.142,0,0,1,2.471-.639h1.23v-.581a1.42,1.42,0,0,0-.4-1.056,1.593,1.593,0,0,0-1.169-.393,1.844,1.844,0,0,0-1.135.342,1.007,1.007,0,0,0-.458.827H44.577a1.745,1.745,0,0,1,.393-1.07,2.683,2.683,0,0,1,1.066-.817,3.588,3.588,0,0,1,1.48-.3,2.924,2.924,0,0,1,2,.639,2.306,2.306,0,0,1,.752,1.76v3.4a4.162,4.162,0,0,0,.26,1.62V213Zm-2.1-.964a2.223,2.223,0,0,0,1.128-.308,1.861,1.861,0,0,0,.772-.8v-1.518h-.991q-2.324,0-2.324,1.36a1.151,1.151,0,0,0,.4.93A1.524,1.524,0,0,0,47.106,212.036Zm9.878-5.537a2.689,2.689,0,0,1,2.188-1.032q2.345,0,2.365,2.646V213H60.272v-4.895a1.7,1.7,0,0,0-.366-1.183,1.466,1.466,0,0,0-1.118-.383,1.825,1.825,0,0,0-1.08.328,2.228,2.228,0,0,0-.725.861V213H55.72V202.5h1.265Zm6.111,2.734a4.369,4.369,0,0,1,.427-1.955,3.187,3.187,0,0,1,1.189-1.34,3.238,3.238,0,0,1,1.74-.472,3.119,3.119,0,0,1,2.444,1.046,4.024,4.024,0,0,1,.933,2.782v.089a4.407,4.407,0,0,1-.414,1.938,3.14,3.14,0,0,1-1.183,1.336,3.275,3.275,0,0,1-1.767.479,3.111,3.111,0,0,1-2.437-1.046,4,4,0,0,1-.933-2.769Zm1.271.15a3.164,3.164,0,0,0,.571,1.976,1.934,1.934,0,0,0,3.059-.01,3.46,3.46,0,0,0,.567-2.116,3.159,3.159,0,0,0-.578-1.972,1.836,1.836,0,0,0-1.535-.755,1.816,1.816,0,0,0-1.511.745A3.435,3.435,0,0,0,64.367,209.384Zm10.623-2.646a3.789,3.789,0,0,0-.622-.048,1.667,1.667,0,0,0-1.688,1.06V213H71.415v-7.4h1.23l.021.854a1.969,1.969,0,0,1,1.764-.991,1.292,1.292,0,0,1,.561.1ZM80.445,213a2.657,2.657,0,0,1-.178-.779,2.822,2.822,0,0,1-2.105.916,2.611,2.611,0,0,1-1.794-.619,2,2,0,0,1-.7-1.569,2.091,2.091,0,0,1,.878-1.794,4.142,4.142,0,0,1,2.471-.639h1.23v-.581a1.42,1.42,0,0,0-.4-1.056,1.593,1.593,0,0,0-1.169-.393,1.844,1.844,0,0,0-1.135.342,1.007,1.007,0,0,0-.458.827H75.817a1.745,1.745,0,0,1,.393-1.07,2.683,2.683,0,0,1,1.066-.817,3.588,3.588,0,0,1,1.48-.3,2.924,2.924,0,0,1,2,.639,2.306,2.306,0,0,1,.752,1.76v3.4a4.162,4.162,0,0,0,.26,1.62V213Zm-2.1-.964a2.223,2.223,0,0,0,1.128-.308,1.861,1.861,0,0,0,.772-.8v-1.518h-.991q-2.324,0-2.324,1.36a1.151,1.151,0,0,0,.4.93A1.524,1.524,0,0,0,78.347,212.036Zm8.306-2.8a4.333,4.333,0,0,1,.807-2.738,2.745,2.745,0,0,1,4.17-.147V202.5h1.265V213H91.731l-.062-.793a2.575,2.575,0,0,1-2.112.93,2.526,2.526,0,0,1-2.1-1.053,4.382,4.382,0,0,1-.81-2.748Zm1.265.144a3.281,3.281,0,0,0,.52,1.969,1.68,1.68,0,0,0,1.436.711,1.845,1.845,0,0,0,1.757-1.08v-3.4a1.859,1.859,0,0,0-1.743-1.046,1.687,1.687,0,0,0-1.449.718A3.612,3.612,0,0,0,87.917,209.384Zm10.008,3.753a3.232,3.232,0,0,1-2.447-.988,3.666,3.666,0,0,1-.943-2.642v-.232a4.438,4.438,0,0,1,.42-1.965,3.28,3.28,0,0,1,1.176-1.354,2.956,2.956,0,0,1,1.637-.489,2.77,2.77,0,0,1,2.242.95,4.114,4.114,0,0,1,.8,2.721v.526H95.8a2.629,2.629,0,0,0,.639,1.767,2.009,2.009,0,0,0,1.555.673,2.2,2.2,0,0,0,1.135-.273,2.851,2.851,0,0,0,.813-.725l.772.6A3.106,3.106,0,0,1,97.925,213.137Zm-.157-6.631a1.687,1.687,0,0,0-1.285.557,2.708,2.708,0,0,0-.643,1.562h3.705v-.1a2.409,2.409,0,0,0-.52-1.494A1.588,1.588,0,0,0,97.768,206.506ZM103.646,213h-1.265V202.5h1.265Zm9.8-1.962a.931.931,0,0,0-.386-.8,3.718,3.718,0,0,0-1.347-.489,6.367,6.367,0,0,1-1.524-.492,2.169,2.169,0,0,1-.834-.684,1.635,1.635,0,0,1-.27-.943,1.919,1.919,0,0,1,.769-1.538,3,3,0,0,1,1.965-.629,3.091,3.091,0,0,1,2.041.649,2.063,2.063,0,0,1,.783,1.661h-1.271a1.142,1.142,0,0,0-.441-.9,1.652,1.652,0,0,0-1.111-.376,1.729,1.729,0,0,0-1.08.3.947.947,0,0,0-.39.786.767.767,0,0,0,.362.69,4.458,4.458,0,0,0,1.309.444,6.821,6.821,0,0,1,1.535.506,2.239,2.239,0,0,1,.872.708,1.74,1.74,0,0,1,.284,1.008,1.893,1.893,0,0,1-.793,1.589,3.326,3.326,0,0,1-2.058.6,3.725,3.725,0,0,1-1.572-.314,2.557,2.557,0,0,1-1.07-.878,2.117,2.117,0,0,1-.386-1.22h1.265a1.309,1.309,0,0,0,.509,1.008,1.976,1.976,0,0,0,1.254.373,2.039,2.039,0,0,0,1.152-.291A.893.893,0,0,0,113.442,211.038Zm5.981,2.1a3.232,3.232,0,0,1-2.447-.988,3.666,3.666,0,0,1-.943-2.642v-.232a4.438,4.438,0,0,1,.42-1.965,3.28,3.28,0,0,1,1.176-1.354,2.956,2.956,0,0,1,1.637-.489,2.77,2.77,0,0,1,2.242.95,4.114,4.114,0,0,1,.8,2.721v.526H117.3a2.629,2.629,0,0,0,.639,1.767,2.009,2.009,0,0,0,1.555.673,2.2,2.2,0,0,0,1.135-.273,2.851,2.851,0,0,0,.813-.725l.772.6A3.106,3.106,0,0,1,119.424,213.137Zm-.157-6.631a1.687,1.687,0,0,0-1.285.557,2.708,2.708,0,0,0-.643,1.562h3.705v-.1a2.409,2.409,0,0,0-.52-1.494A1.588,1.588,0,0,0,119.267,206.506Zm8.08.232a3.789,3.789,0,0,0-.622-.048,1.667,1.667,0,0,0-1.688,1.06V213h-1.265v-7.4H125l.021.854a1.969,1.969,0,0,1,1.764-.991,1.292,1.292,0,0,1,.561.1Zm3.726,4.546L132.9,205.6H134.2l-2.652,7.4h-.964l-2.68-7.4h1.292ZM136.787,213h-1.265v-7.4h1.265Zm-1.367-9.358a.755.755,0,0,1,.188-.52.706.706,0,0,1,.557-.212.717.717,0,0,1,.561.212.747.747,0,0,1,.191.52.722.722,0,0,1-.191.513.73.73,0,0,1-.561.205.718.718,0,0,1-.557-.205A.73.73,0,0,1,135.42,203.642Zm3.083,5.6a4.333,4.333,0,0,1,.807-2.738,2.745,2.745,0,0,1,4.17-.147V202.5h1.265V213h-1.162l-.062-.793a2.575,2.575,0,0,1-2.112.93,2.526,2.526,0,0,1-2.1-1.053,4.382,4.382,0,0,1-.81-2.748Zm1.265.144a3.281,3.281,0,0,0,.52,1.969,1.68,1.68,0,0,0,1.436.711,1.845,1.845,0,0,0,1.757-1.08v-3.4a1.859,1.859,0,0,0-1.743-1.046,1.687,1.687,0,0,0-1.449.718A3.612,3.612,0,0,0,139.768,209.384Zm6.6-.15a4.369,4.369,0,0,1,.427-1.955,3.187,3.187,0,0,1,1.189-1.34,3.238,3.238,0,0,1,1.74-.472,3.119,3.119,0,0,1,2.444,1.046,4.024,4.024,0,0,1,.933,2.782v.089a4.407,4.407,0,0,1-.414,1.938,3.14,3.14,0,0,1-1.183,1.336,3.275,3.275,0,0,1-1.767.479,3.111,3.111,0,0,1-2.437-1.046,4,4,0,0,1-.933-2.769Zm1.271.15a3.164,3.164,0,0,0,.571,1.976,1.934,1.934,0,0,0,3.059-.01,3.46,3.46,0,0,0,.567-2.116,3.159,3.159,0,0,0-.578-1.972,1.836,1.836,0,0,0-1.535-.755,1.816,1.816,0,0,0-1.511.745A3.435,3.435,0,0,0,147.643,209.384Zm10.623-2.646a3.789,3.789,0,0,0-.622-.048,1.667,1.667,0,0,0-1.688,1.06V213H154.69v-7.4h1.23l.021.854a1.969,1.969,0,0,1,1.764-.991,1.292,1.292,0,0,1,.561.1Zm7.7,6.4a3.232,3.232,0,0,1-2.447-.988,3.666,3.666,0,0,1-.943-2.642v-.232a4.438,4.438,0,0,1,.42-1.965,3.28,3.28,0,0,1,1.176-1.354,2.956,2.956,0,0,1,1.637-.489,2.77,2.77,0,0,1,2.242.95,4.114,4.114,0,0,1,.8,2.721v.526h-5.011a2.629,2.629,0,0,0,.639,1.767,2.009,2.009,0,0,0,1.555.673,2.2,2.2,0,0,0,1.135-.273,2.851,2.851,0,0,0,.813-.725l.772.6A3.106,3.106,0,0,1,165.963,213.137Zm-.157-6.631a1.687,1.687,0,0,0-1.285.557,2.708,2.708,0,0,0-.643,1.562h3.705v-.1a2.409,2.409,0,0,0-.52-1.494A1.588,1.588,0,0,0,165.806,206.506Zm8.812,4.532a.931.931,0,0,0-.386-.8,3.718,3.718,0,0,0-1.347-.489,6.367,6.367,0,0,1-1.524-.492,2.169,2.169,0,0,1-.834-.684,1.635,1.635,0,0,1-.27-.943,1.919,1.919,0,0,1,.769-1.538,3,3,0,0,1,1.965-.629,3.091,3.091,0,0,1,2.041.649,2.063,2.063,0,0,1,.783,1.661h-1.271a1.142,1.142,0,0,0-.441-.9,1.652,1.652,0,0,0-1.111-.376,1.729,1.729,0,0,0-1.08.3.947.947,0,0,0-.39.786.767.767,0,0,0,.362.69,4.458,4.458,0,0,0,1.309.444,6.821,6.821,0,0,1,1.535.506,2.239,2.239,0,0,1,.872.708,1.74,1.74,0,0,1,.284,1.008,1.893,1.893,0,0,1-.793,1.589,3.326,3.326,0,0,1-2.058.6,3.725,3.725,0,0,1-1.572-.314,2.557,2.557,0,0,1-1.07-.878,2.117,2.117,0,0,1-.386-1.22h1.265a1.309,1.309,0,0,0,.509,1.008,1.976,1.976,0,0,0,1.254.373,2.039,2.039,0,0,0,1.152-.291A.893.893,0,0,0,174.617,211.038Zm7.226-2.44,4.279,1.729v1.34l-5.592-2.591v-1l5.592-2.584v1.34Zm6.029-3.637a2.02,2.02,0,0,1,.571-1.477,2.145,2.145,0,0,1,2.939,0,2.09,2.09,0,0,1,.564,1.514v.485a1.994,1.994,0,0,1-.571,1.473,1.968,1.968,0,0,1-1.453.571,2.011,2.011,0,0,1-1.47-.571,2.036,2.036,0,0,1-.581-1.521Zm.943.524a1.294,1.294,0,0,0,.3.88,1.015,1.015,0,0,0,.807.346,1,1,0,0,0,.783-.336,1.336,1.336,0,0,0,.3-.918v-.5a1.326,1.326,0,0,0-.294-.884,1.09,1.09,0,0,0-1.6,0,1.368,1.368,0,0,0-.294.911Zm3.9,5.075a2.008,2.008,0,0,1,.571-1.473,2.159,2.159,0,0,1,2.936,0,2.06,2.06,0,0,1,.574,1.524v.485a2.008,2.008,0,0,1-.571,1.473,1.964,1.964,0,0,1-1.459.578,2.011,2.011,0,0,1-1.47-.571,2.036,2.036,0,0,1-.581-1.521Zm.943.53a1.3,1.3,0,0,0,.3.887,1.015,1.015,0,0,0,.807.346.988.988,0,0,0,.786-.339,1.359,1.359,0,0,0,.294-.922v-.507a1.3,1.3,0,0,0-.3-.884,1.093,1.093,0,0,0-1.586,0,1.319,1.319,0,0,0-.3.915Zm-3.452,1.158-.718-.451,4.86-7.779.718.451Zm13.938-4.812h-5.7v-1.1h5.7Zm0,2.837h-5.7v-1.094h5.7Zm6.563-4.669.041.93a2.7,2.7,0,0,1,2.215-1.066q2.345,0,2.365,2.646V213h-1.265v-4.895a1.7,1.7,0,0,0-.366-1.183,1.466,1.466,0,0,0-1.118-.383,1.825,1.825,0,0,0-1.08.328,2.228,2.228,0,0,0-.725.861V213h-1.265v-7.4Zm9.6,7.533a3.232,3.232,0,0,1-2.447-.988,3.666,3.666,0,0,1-.943-2.642v-.232a4.438,4.438,0,0,1,.42-1.965,3.28,3.28,0,0,1,1.176-1.354,2.956,2.956,0,0,1,1.637-.489,2.77,2.77,0,0,1,2.242.95,4.114,4.114,0,0,1,.8,2.721v.526h-5.011a2.629,2.629,0,0,0,.639,1.767,2.009,2.009,0,0,0,1.555.673,2.2,2.2,0,0,0,1.135-.273,2.851,2.851,0,0,0,.813-.725l.772.6A3.106,3.106,0,0,1,220.309,213.137Zm-.157-6.631a1.687,1.687,0,0,0-1.285.557,2.708,2.708,0,0,0-.643,1.562h3.705v-.1a2.409,2.409,0,0,0-.52-1.494A1.588,1.588,0,0,0,220.151,206.506Zm11.054,4.751,1.422-5.653h1.265l-2.153,7.4h-1.025l-1.8-5.605L227.165,213H226.14l-2.146-7.4h1.258l1.456,5.537,1.723-5.537h1.019ZM238.841,213v-9.953h2.81a4.523,4.523,0,0,1,2.3.574,3.884,3.884,0,0,1,1.542,1.634,5.318,5.318,0,0,1,.55,2.434v.636a5.336,5.336,0,0,1-.543,2.468,3.823,3.823,0,0,1-1.552,1.627A4.811,4.811,0,0,1,241.6,213Zm1.313-8.88v7.807h1.381a3,3,0,0,0,2.362-.944,3.9,3.9,0,0,0,.844-2.689v-.582a3.963,3.963,0,0,0-.8-2.637,2.834,2.834,0,0,0-2.259-.954ZM252.39,213a2.657,2.657,0,0,1-.178-.779,2.822,2.822,0,0,1-2.105.916,2.611,2.611,0,0,1-1.794-.619,2,2,0,0,1-.7-1.569,2.091,2.091,0,0,1,.878-1.794,4.142,4.142,0,0,1,2.471-.639h1.23v-.581a1.42,1.42,0,0,0-.4-1.056,1.593,1.593,0,0,0-1.169-.393,1.844,1.844,0,0,0-1.135.342,1.007,1.007,0,0,0-.458.827h-1.271a1.745,1.745,0,0,1,.393-1.07,2.683,2.683,0,0,1,1.066-.817,3.588,3.588,0,0,1,1.48-.3,2.924,2.924,0,0,1,2,.639,2.306,2.306,0,0,1,.752,1.76v3.4a4.162,4.162,0,0,0,.26,1.62V213Zm-2.1-.964a2.223,2.223,0,0,0,1.128-.308,1.861,1.861,0,0,0,.772-.8v-1.518H251.2q-2.324,0-2.324,1.36a1.151,1.151,0,0,0,.4.93A1.524,1.524,0,0,0,250.291,212.036Zm6.863-8.224V205.6h1.381v.978h-1.381v4.593a1.027,1.027,0,0,0,.185.667.777.777,0,0,0,.629.222,3.062,3.062,0,0,0,.6-.082V213a3.688,3.688,0,0,1-.971.136,1.575,1.575,0,0,1-1.278-.513,2.2,2.2,0,0,1-.431-1.456v-4.587h-1.347V205.6h1.347v-1.791Zm5.927,9.324a3.232,3.232,0,0,1-2.447-.988,3.666,3.666,0,0,1-.943-2.642v-.232a4.438,4.438,0,0,1,.42-1.965,3.28,3.28,0,0,1,1.176-1.354,2.956,2.956,0,0,1,1.637-.489,2.77,2.77,0,0,1,2.242.95,4.114,4.114,0,0,1,.8,2.721v.526h-5.011a2.629,2.629,0,0,0,.639,1.767,2.009,2.009,0,0,0,1.555.673,2.2,2.2,0,0,0,1.135-.273,2.851,2.851,0,0,0,.813-.725l.772.6A3.106,3.106,0,0,1,263.081,213.137Zm-.157-6.631a1.687,1.687,0,0,0-1.285.557,2.708,2.708,0,0,0-.643,1.562H264.7v-.1a2.409,2.409,0,0,0-.52-1.494A1.588,1.588,0,0,0,262.924,206.506Zm4.457,2.454a10.568,10.568,0,0,1,.414-2.967,8.618,8.618,0,0,1,1.234-2.584,5.249,5.249,0,0,1,1.7-1.641l.26.834a5.445,5.445,0,0,0-1.637,2.338,10.135,10.135,0,0,0-.7,3.521l-.007.581a10.188,10.188,0,0,0,.964,4.58,5.47,5.47,0,0,0,1.381,1.818l-.26.772a5.418,5.418,0,0,1-1.736-1.7A9.5,9.5,0,0,1,267.381,208.96Zm7.752.068a10.574,10.574,0,0,1-.4,2.922,8.641,8.641,0,0,1-1.224,2.581,5.361,5.361,0,0,1-1.726,1.682l-.267-.772a5.5,5.5,0,0,0,1.692-2.505,10.839,10.839,0,0,0,.653-3.77v-.219a11.253,11.253,0,0,0-.3-2.669,9.009,9.009,0,0,0-.837-2.211,5.108,5.108,0,0,0-1.207-1.524l.267-.772a5.34,5.34,0,0,1,1.719,1.668,8.66,8.66,0,0,1,1.224,2.577A10.818,10.818,0,0,1,275.133,209.028Zm5.175-4.067a2.02,2.02,0,0,1,.571-1.477,2.145,2.145,0,0,1,2.939,0,2.09,2.09,0,0,1,.564,1.514v.485a1.994,1.994,0,0,1-.571,1.473,1.968,1.968,0,0,1-1.453.571,2.011,2.011,0,0,1-1.47-.571,2.036,2.036,0,0,1-.581-1.521Zm.943.524a1.293,1.293,0,0,0,.3.88,1.015,1.015,0,0,0,.807.346,1,1,0,0,0,.783-.336,1.336,1.336,0,0,0,.3-.918v-.5a1.326,1.326,0,0,0-.294-.884,1.09,1.09,0,0,0-1.6,0,1.368,1.368,0,0,0-.294.911Zm3.9,5.075a2.008,2.008,0,0,1,.571-1.473,2.159,2.159,0,0,1,2.936,0,2.06,2.06,0,0,1,.574,1.524v.485a2.008,2.008,0,0,1-.571,1.473,1.964,1.964,0,0,1-1.459.578,2.011,2.011,0,0,1-1.47-.571,2.036,2.036,0,0,1-.581-1.521Zm.943.53a1.3,1.3,0,0,0,.3.887,1.015,1.015,0,0,0,.807.346.988.988,0,0,0,.786-.339,1.359,1.359,0,0,0,.294-.922v-.507a1.3,1.3,0,0,0-.3-.884,1.093,1.093,0,0,0-1.586,0,1.319,1.319,0,0,0-.3.915Zm-3.452,1.158-.718-.451,4.86-7.779.718.451Zm12.633-3.691-4.519-1.771v-1.3l5.838,2.584v1l-5.838,2.591v-1.312Zm7.15.041,4.279,1.729v1.34l-5.592-2.591v-1l5.592-2.584v1.34Zm6.521,5.257h-1.087l4.156-10.808h1.08Zm11.765-4.471a4.429,4.429,0,0,1-.772,2.721,2.476,2.476,0,0,1-2.092,1.032,2.713,2.713,0,0,1-2.119-.854v3.562h-1.265V205.6h1.155l.062.82a2.605,2.605,0,0,1,2.146-.957,2.522,2.522,0,0,1,2.109,1,4.477,4.477,0,0,1,.776,2.8Zm-1.265-.144a3.268,3.268,0,0,0-.533-1.976,1.718,1.718,0,0,0-1.463-.725,1.859,1.859,0,0,0-1.723,1.019v3.534a1.863,1.863,0,0,0,1.736,1.012,1.71,1.71,0,0,0,1.446-.721A3.567,3.567,0,0,0,319.45,209.24Zm7.349-.684-4.519-1.771v-1.3l5.838,2.584v1l-5.838,2.591v-1.312ZM57.8,230.6l4.279,1.729v1.34l-5.592-2.591v-1l5.592-2.584v1.34Zm6.029-3.637a2.02,2.02,0,0,1,.571-1.477,2.145,2.145,0,0,1,2.939,0A2.09,2.09,0,0,1,67.908,227v.485a1.994,1.994,0,0,1-.571,1.473,1.968,1.968,0,0,1-1.453.571,2.011,2.011,0,0,1-1.47-.571,2.036,2.036,0,0,1-.581-1.521Zm.943.524a1.294,1.294,0,0,0,.3.88,1.015,1.015,0,0,0,.807.346,1,1,0,0,0,.783-.336,1.336,1.336,0,0,0,.3-.918v-.5a1.326,1.326,0,0,0-.294-.884,1.09,1.09,0,0,0-1.6,0,1.368,1.368,0,0,0-.294.911Zm3.9,5.075a2.008,2.008,0,0,1,.571-1.473,2.159,2.159,0,0,1,2.936,0,2.06,2.06,0,0,1,.574,1.524v.485a2.008,2.008,0,0,1-.571,1.473,1.964,1.964,0,0,1-1.459.578,2.011,2.011,0,0,1-1.47-.571,2.036,2.036,0,0,1-.581-1.521Zm.943.53a1.3,1.3,0,0,0,.3.887,1.015,1.015,0,0,0,.807.346.988.988,0,0,0,.786-.339,1.359,1.359,0,0,0,.294-.922v-.507a1.3,1.3,0,0,0-.3-.884,1.093,1.093,0,0,0-1.586,0,1.319,1.319,0,0,0-.3.915Zm-3.452,1.158-.718-.451,4.86-7.779.718.451Zm11.286-3.015a4.369,4.369,0,0,1,.427-1.955,3.187,3.187,0,0,1,1.189-1.34,3.238,3.238,0,0,1,1.74-.472,3.119,3.119,0,0,1,2.444,1.046,4.024,4.024,0,0,1,.933,2.782v.089a4.407,4.407,0,0,1-.414,1.938,3.14,3.14,0,0,1-1.183,1.336,3.275,3.275,0,0,1-1.767.479,3.111,3.111,0,0,1-2.437-1.046,4,4,0,0,1-.933-2.769Zm1.271.15a3.164,3.164,0,0,0,.571,1.976,1.934,1.934,0,0,0,3.059-.01,3.46,3.46,0,0,0,.567-2.116,3.159,3.159,0,0,0-.578-1.972,1.836,1.836,0,0,0-1.535-.755,1.816,1.816,0,0,0-1.511.745A3.435,3.435,0,0,0,78.729,231.384Zm11.614,2.885a2.686,2.686,0,0,1-2.167.868,2.3,2.3,0,0,1-1.8-.687,2.974,2.974,0,0,1-.625-2.034V227.6h1.265v4.778q0,1.682,1.367,1.682a1.893,1.893,0,0,0,1.928-1.08V227.6h1.265V235h-1.2Zm4.867-8.456V227.6h1.381v.978H95.211v4.593a1.027,1.027,0,0,0,.185.667.777.777,0,0,0,.629.222,3.062,3.062,0,0,0,.6-.082V235a3.688,3.688,0,0,1-.971.136,1.575,1.575,0,0,1-1.278-.513,2.2,2.2,0,0,1-.431-1.456v-4.587H92.6V227.6h1.347v-1.791Zm2.885,8.524a.792.792,0,0,1,.195-.547.742.742,0,0,1,.584-.219.765.765,0,0,1,.591.219.776.776,0,0,1,.2.547.734.734,0,0,1-.2.526.778.778,0,0,1-.591.212.7.7,0,0,1-.779-.738ZM108,231.384a4.429,4.429,0,0,1-.772,2.721,2.476,2.476,0,0,1-2.092,1.032,2.713,2.713,0,0,1-2.119-.854v3.562h-1.265V227.6h1.155l.062.82a2.605,2.605,0,0,1,2.146-.957,2.522,2.522,0,0,1,2.109,1,4.477,4.477,0,0,1,.776,2.8Zm-1.265-.144a3.268,3.268,0,0,0-.533-1.976,1.718,1.718,0,0,0-1.463-.725,1.859,1.859,0,0,0-1.723,1.019v3.534a1.863,1.863,0,0,0,1.736,1.012,1.71,1.71,0,0,0,1.446-.721A3.567,3.567,0,0,0,106.736,231.24Zm6.446-2.5a3.789,3.789,0,0,0-.622-.048,1.667,1.667,0,0,0-1.688,1.06V235h-1.265v-7.4h1.23l.021.854a1.969,1.969,0,0,1,1.764-.991,1.292,1.292,0,0,1,.561.1ZM115.719,235h-1.265v-7.4h1.265Zm-1.367-9.358a.755.755,0,0,1,.188-.52.706.706,0,0,1,.557-.212.717.717,0,0,1,.561.212.747.747,0,0,1,.191.52.722.722,0,0,1-.191.513.73.73,0,0,1-.561.205.718.718,0,0,1-.557-.205A.73.73,0,0,1,114.352,225.642Zm4.587,1.962.041.93a2.7,2.7,0,0,1,2.215-1.066q2.345,0,2.365,2.646V235h-1.265v-4.895a1.7,1.7,0,0,0-.366-1.183,1.466,1.466,0,0,0-1.118-.383,1.825,1.825,0,0,0-1.08.328,2.228,2.228,0,0,0-.725.861V235h-1.265v-7.4Zm8.244-1.791V227.6h1.381v.978h-1.381v4.593a1.027,1.027,0,0,0,.185.667.777.777,0,0,0,.629.222,3.062,3.062,0,0,0,.6-.082V235a3.688,3.688,0,0,1-.971.136,1.575,1.575,0,0,1-1.278-.513,2.2,2.2,0,0,1-.431-1.456v-4.587h-1.347V227.6h1.347v-1.791ZM131.414,235h-1.265V224.5h1.265Zm3.22-7.4.041.93a2.7,2.7,0,0,1,2.215-1.066q2.345,0,2.365,2.646V235H137.99v-4.895a1.7,1.7,0,0,0-.366-1.183,1.466,1.466,0,0,0-1.118-.383,1.825,1.825,0,0,0-1.08.328,2.228,2.228,0,0,0-.725.861V235h-1.265v-7.4Zm6.48,3.356a10.569,10.569,0,0,1,.414-2.967,8.618,8.618,0,0,1,1.234-2.584,5.249,5.249,0,0,1,1.7-1.641l.26.834a5.445,5.445,0,0,0-1.637,2.338,10.135,10.135,0,0,0-.7,3.521l-.007.581a10.188,10.188,0,0,0,.964,4.58,5.47,5.47,0,0,0,1.381,1.818l-.26.772a5.418,5.418,0,0,1-1.736-1.7A9.5,9.5,0,0,1,141.114,230.96Zm5.776-6.59.725.492a3.224,3.224,0,0,0-.656,1.873v.93H145.7v-.793a3.136,3.136,0,0,1,.332-1.381A3.31,3.31,0,0,1,146.891,224.37Zm2.153,0,.725.492a3.224,3.224,0,0,0-.656,1.873v.93h-1.258v-.793a3.136,3.136,0,0,1,.332-1.381A3.31,3.31,0,0,1,149.044,224.37Zm9.7,10.63h-1.319v-4.6h-5.018V235h-1.312v-9.953h1.313v4.279h5.018v-4.279h1.319Zm9.987-4.655a6.157,6.157,0,0,1-.492,2.553,3.728,3.728,0,0,1-1.395,1.665,3.848,3.848,0,0,1-5.6-1.651,5.908,5.908,0,0,1-.516-2.478v-.718a6.084,6.084,0,0,1,.5-2.536,3.691,3.691,0,0,1,3.5-2.27,3.858,3.858,0,0,1,2.109.578,3.721,3.721,0,0,1,1.4,1.675,6.187,6.187,0,0,1,.492,2.553Zm-1.306-.643a4.463,4.463,0,0,0-.711-2.717,2.345,2.345,0,0,0-1.989-.947,2.32,2.32,0,0,0-1.958.947,4.371,4.371,0,0,0-.735,2.628v.731a4.469,4.469,0,0,0,.721,2.7,2.527,2.527,0,0,0,3.955.055,4.444,4.444,0,0,0,.718-2.656Zm4.594,4.225h4.717V235H170.7v-9.953h1.319Zm11.84-1.531h-4.17l-.937,2.6H177.4l3.8-9.953h1.148L186.156,235H184.81Zm-3.773-1.073h3.384l-1.7-4.655Zm12.188-.219V235h-1.312v-9.953h3.671a3.688,3.688,0,0,1,2.56.834,2.827,2.827,0,0,1,.926,2.208,2.79,2.79,0,0,1-.906,2.232,3.853,3.853,0,0,1-2.594.783Zm0-1.073h2.358a2.358,2.358,0,0,0,1.613-.5,1.815,1.815,0,0,0,.561-1.435,1.875,1.875,0,0,0-.561-1.424,2.209,2.209,0,0,0-1.538-.555h-2.434Zm8.839,3.9h4.717V235h-6.036v-9.953h1.319Zm11.84-1.531h-4.17l-.937,2.6h-1.354l3.8-9.953h1.148L215.25,235H213.9Zm-3.773-1.073h3.384l-1.7-4.655ZM224.239,235H222.92l-5.011-7.67V235H216.59v-9.953h1.319l5.024,7.7v-7.7h1.306Zm7.957-4.6h-4.313v3.527h5.011V235H226.57v-9.953h6.255v1.073h-4.942v3.206H232.2Zm9.345-4.279h-3.2V235h-1.306v-8.88h-3.192v-1.073h7.7Zm6.433,6.275H243.8l-.937,2.6h-1.354l3.8-9.953h1.148L250.271,235h-1.347Zm-3.773-1.073h3.384l-1.7-4.655Zm6.563-3.473-.718-.492a3.291,3.291,0,0,0,.656-1.873V224.5h1.251v.889a3.378,3.378,0,0,1-1.189,2.461Zm2.1,0-.718-.492a3.291,3.291,0,0,0,.656-1.873V224.5h1.251v.889a3.378,3.378,0,0,1-1.189,2.461Zm5.646,3.179a10.574,10.574,0,0,1-.4,2.922,8.641,8.641,0,0,1-1.224,2.581,5.361,5.361,0,0,1-1.726,1.682l-.267-.772a5.5,5.5,0,0,0,1.692-2.505,10.839,10.839,0,0,0,.653-3.77v-.219a11.253,11.253,0,0,0-.3-2.669,9.009,9.009,0,0,0-.837-2.211,5.108,5.108,0,0,0-1.207-1.524l.267-.772a5.34,5.34,0,0,1,1.719,1.668,8.66,8.66,0,0,1,1.224,2.577A10.818,10.818,0,0,1,258.508,231.028Zm1.75-2.728a.792.792,0,0,1,.195-.547.742.742,0,0,1,.584-.219.765.765,0,0,1,.591.219.776.776,0,0,1,.2.547.734.734,0,0,1-.2.526.778.778,0,0,1-.591.212.7.7,0,0,1-.779-.738Zm.239,8.682-.718-.492a3.3,3.3,0,0,0,.67-1.846V233.5h1.237v.991a3.114,3.114,0,0,1-.338,1.381A3.233,3.233,0,0,1,260.5,236.982Zm6.146-10.021a2.02,2.02,0,0,1,.571-1.477,2.145,2.145,0,0,1,2.939,0,2.09,2.09,0,0,1,.564,1.514v.485a1.994,1.994,0,0,1-.571,1.473,1.968,1.968,0,0,1-1.453.571,2.011,2.011,0,0,1-1.47-.571,2.036,2.036,0,0,1-.581-1.521Zm.943.524a1.293,1.293,0,0,0,.3.88,1.015,1.015,0,0,0,.807.346,1,1,0,0,0,.783-.336,1.336,1.336,0,0,0,.3-.918v-.5a1.326,1.326,0,0,0-.294-.884,1.09,1.09,0,0,0-1.6,0,1.368,1.368,0,0,0-.294.911Zm3.9,5.075a2.008,2.008,0,0,1,.571-1.473,2.159,2.159,0,0,1,2.936,0,2.06,2.06,0,0,1,.574,1.524v.485a2.008,2.008,0,0,1-.571,1.473,1.964,1.964,0,0,1-1.459.578,2.011,2.011,0,0,1-1.47-.571,2.036,2.036,0,0,1-.581-1.521Zm.943.53a1.3,1.3,0,0,0,.3.887,1.015,1.015,0,0,0,.807.346.988.988,0,0,0,.786-.339,1.359,1.359,0,0,0,.294-.922v-.507a1.3,1.3,0,0,0-.3-.884,1.093,1.093,0,0,0-1.586,0,1.319,1.319,0,0,0-.3.915Zm-3.452,1.158-.718-.451,4.86-7.779.718.451Zm12.633-3.691-4.519-1.771v-1.3l5.838,2.584v1l-5.838,2.591v-1.312ZM8.736,252.6l4.279,1.729v1.34l-5.592-2.591v-1l5.592-2.584v1.34Zm6.521,5.257H14.171l4.156-10.808h1.08Zm11.778-4.471a4.4,4.4,0,0,1-.779,2.724,2.49,2.49,0,0,1-2.092,1.029A2.578,2.578,0,0,1,22,256.146l-.062.854H20.774V246.5h1.265v3.917a2.564,2.564,0,0,1,2.112-.95,2.505,2.505,0,0,1,2.116,1.019,4.53,4.53,0,0,1,.769,2.789Zm-1.265-.144a3.417,3.417,0,0,0-.5-2,1.652,1.652,0,0,0-1.436-.7,1.857,1.857,0,0,0-1.8,1.162v3.2a1.909,1.909,0,0,0,1.812,1.162,1.643,1.643,0,0,0,1.415-.7A3.634,3.634,0,0,0,25.771,253.24Zm2.522-.007a4.369,4.369,0,0,1,.427-1.955,3.187,3.187,0,0,1,1.189-1.34,3.238,3.238,0,0,1,1.74-.472,3.119,3.119,0,0,1,2.444,1.046,4.024,4.024,0,0,1,.933,2.782v.089a4.407,4.407,0,0,1-.414,1.938,3.14,3.14,0,0,1-1.183,1.336,3.275,3.275,0,0,1-1.767.479,3.111,3.111,0,0,1-2.437-1.046,4,4,0,0,1-.933-2.769Zm1.271.15a3.164,3.164,0,0,0,.571,1.976,1.934,1.934,0,0,0,3.059-.01,3.46,3.46,0,0,0,.567-2.116,3.159,3.159,0,0,0-.578-1.972,1.836,1.836,0,0,0-1.535-.755,1.816,1.816,0,0,0-1.511.745A3.435,3.435,0,0,0,29.565,253.384Zm6.74-.144a4.333,4.333,0,0,1,.807-2.738,2.745,2.745,0,0,1,4.17-.147V246.5h1.265V257H41.385l-.062-.793a2.575,2.575,0,0,1-2.112.93,2.526,2.526,0,0,1-2.1-1.053,4.382,4.382,0,0,1-.81-2.748Zm1.265.144a3.281,3.281,0,0,0,.52,1.969,1.68,1.68,0,0,0,1.436.711,1.845,1.845,0,0,0,1.757-1.08v-3.4a1.859,1.859,0,0,0-1.743-1.046,1.687,1.687,0,0,0-1.449.718A3.612,3.612,0,0,0,37.57,253.384Zm9.358,1.764,1.723-5.544H50l-2.974,8.538q-.69,1.846-2.194,1.846l-.239-.021-.472-.089v-1.025l.342.027a1.683,1.683,0,0,0,1-.26,1.88,1.88,0,0,0,.591-.95l.28-.752L43.7,249.6h1.381Zm8.682-2.591-4.519-1.771v-1.3l5.838,2.584v1l-5.838,2.591v-1.312ZM1.8,274.6l4.279,1.729v1.34L.492,275.076v-1l5.592-2.584v1.34Zm6.521,5.257H7.239L11.4,269.047h1.08Zm6.781-7.355a2.689,2.689,0,0,1,2.188-1.032q2.345,0,2.365,2.646V279H18.4v-4.895a1.7,1.7,0,0,0-.366-1.183,1.466,1.466,0,0,0-1.118-.383,1.825,1.825,0,0,0-1.08.328,2.228,2.228,0,0,0-.725.861V279H13.843V268.5h1.265Zm8.162-2.687V271.6H24.65v.978H23.27v4.593a1.027,1.027,0,0,0,.185.667.777.777,0,0,0,.629.222,3.062,3.062,0,0,0,.6-.082V279a3.688,3.688,0,0,1-.971.136,1.575,1.575,0,0,1-1.278-.513A2.2,2.2,0,0,1,22,277.168v-4.587H20.658V271.6H22v-1.791Zm4.047,1.791.034.82a2.732,2.732,0,0,1,2.194-.957,2.115,2.115,0,0,1,2.112,1.189,2.8,2.8,0,0,1,.96-.861,2.837,2.837,0,0,1,1.4-.328q2.434,0,2.475,2.577V279H35.226v-4.881a1.7,1.7,0,0,0-.362-1.186,1.6,1.6,0,0,0-1.217-.393,1.677,1.677,0,0,0-1.169.42,1.705,1.705,0,0,0-.54,1.131V279H30.666v-4.847a1.411,1.411,0,0,0-1.579-1.613,1.692,1.692,0,0,0-1.7,1.06V279H26.12v-7.4ZM39.771,279H38.507V268.5h1.265Zm6.5-4.443-4.519-1.771v-1.3l5.838,2.584v1l-5.838,2.591v-1.312Z" transform="translate(940 2484)" fill="#fff"/>
  </g>
</svg>
