<svg xmlns="http://www.w3.org/2000/svg" width="275.051" height="313.919" viewBox="0 0 275.051 313.919">
  <g id="img8" transform="translate(-141.65 -124.019)">
    <g id="Grupo_85953" data-name="Grupo 85953">
      <g id="Grupo_85923" data-name="Grupo 85923">
        <g id="Grupo_85915" data-name="Grupo 85915">
          <g id="Grupo_85906" data-name="Grupo 85906">
            <path id="Trazado_154881" data-name="Trazado 154881" d="M206.59,315.57l-53-30.21c-1.93-1.12-1.69-3.08.55-4.37l30.49-17.6c2.23-1.29,5.62-1.43,7.56-.31l53,30.21c1.93,1.12,1.69,3.07-.55,4.37l-30.48,17.6C211.92,316.55,208.53,316.69,206.59,315.57Z" fill="#b2d3ea"/>
            <path id="Trazado_154882" data-name="Trazado 154882" d="M249.91,283.12h0V159.41l-49.18-12.87-9.06-5.23c-2.08-1.2-5.71-1.05-8.11.34l-8.45,4.88H148.88l7.77,119.42a2.35,2.35,0,0,0,1.39,2.18l49.08,37c2.08,1.2,5.71,1.05,8.11-.34l32.71-18.88C249.32,285.12,250,284.08,249.91,283.12Z" fill="#1565b2"/>
            <path id="Trazado_154883" data-name="Trazado 154883" d="M187.91,140.51a9.3,9.3,0,0,0-4.35,1.14l-8.45,4.88H148.88v124a2.36,2.36,0,0,0,1.39,2.18l56.85,32.41a7.25,7.25,0,0,0,3.76.8l.59-124.81Z" fill="#d4ecff"/>
            <path id="Trazado_154884" data-name="Trazado 154884" d="M207.64,305.39a9.22,9.22,0,0,0,6.48-.07V179.65h-6.48Z" fill="#5793ce"/>
            <path id="Trazado_154885" data-name="Trazado 154885" d="M207.12,181.14l-56.85-32.41c-2.08-1.2-1.82-3.3.58-4.68l32.71-18.89c2.4-1.38,6-1.53,8.11-.33l56.85,32.41c2.08,1.2,1.82,3.3-.58,4.68l-32.71,18.89C212.83,182.19,209.2,182.34,207.12,181.14Z" fill="#d4ecff"/>
            <path id="Trazado_154886" data-name="Trazado 154886" d="M247.94,159.62l-32.71,18.89c-2.4,1.38-6,1.53-8.11.33l-56.85-32.41a3.12,3.12,0,0,1-1-.92c-.72,1.15-.4,2.39,1,3.22l56.85,32.41c2.08,1.2,5.71,1.05,8.11-.33l32.71-18.89c1.86-1.07,2.43-2.58,1.62-3.76a4.59,4.59,0,0,1-1.62,1.46Z" fill="#fafdff"/>
            <g id="Grupo_85905" data-name="Grupo 85905">
              <path id="Trazado_154887" data-name="Trazado 154887" d="M208.73,168l-37.85-21.94c-1-.57-.85-1.55.27-2.19L186.46,135a4.21,4.21,0,0,1,3.79-.16l37.85,21.94c1,.56.85,1.54-.27,2.19l-15.31,8.84A4.21,4.21,0,0,1,208.73,168Z" fill="#173d7a"/>
              <g id="Grupo_85904" data-name="Grupo 85904">
                <path id="Trazado_154888" data-name="Trazado 154888" d="M188.29,147.05l-2.19-1.26a.175.175,0,0,1,0-.31l2.12-1.22a.56.56,0,0,1,.52,0L191,145.5c.14.08.12.22,0,.31L188.82,147A.59.59,0,0,1,188.29,147.05Z" fill="#d4ecff"/>
                <path id="Trazado_154889" data-name="Trazado 154889" d="M195.62,151.26,193.43,150c-.14-.08-.12-.21,0-.3l2.11-1.23a.59.59,0,0,1,.53,0l2.19,1.27c.14.08.12.21,0,.3l-2.11,1.22a.59.59,0,0,1-.53,0Z" fill="#d4ecff"/>
                <path id="Trazado_154890" data-name="Trazado 154890" d="M203,155.48l-2.2-1.27c-.13-.08-.11-.21,0-.3l2.12-1.22a.6.6,0,0,1,.52,0l2.2,1.27c.13.08.12.21,0,.3l-2.12,1.23a.56.56,0,0,1-.52-.01Z" fill="#d4ecff"/>
                <path id="Trazado_154891" data-name="Trazado 154891" d="M210.27,159.69l-2.19-1.27c-.13-.07-.12-.21,0-.3l2.12-1.22a.56.56,0,0,1,.52,0l2.19,1.26c.14.08.12.22,0,.31l-2.12,1.22a.59.59,0,0,1-.52,0Z" fill="#d4ecff"/>
              </g>
              <path id="Trazado_154892" data-name="Trazado 154892" d="M170.88,146.07h0l.23-.15,15.31-8.84a4.21,4.21,0,0,1,3.79-.16l37.8,21.91c.9-.64.95-1.51,0-2l-37.85-21.94a4.21,4.21,0,0,0-3.79.16l-15.31,8.84C170,144.52,169.91,145.5,170.88,146.07Z" fill="#5793ce"/>
            </g>
          </g>
          <g id="Grupo_85908" data-name="Grupo 85908">
            <path id="Trazado_154893" data-name="Trazado 154893" d="M221.62,205.65l21.51-12.32a5.25,5.25,0,0,0,2.2-4.19v-7.69c0-1.62-1-2.36-2.2-1.66l-21.51,12.32a5.23,5.23,0,0,0-2.2,4.19V204C219.42,205.61,220.4,206.35,221.62,205.65Z" fill="#173d7a"/>
            <path id="Trazado_154894" data-name="Trazado 154894" d="M244.2,179.56a2.14,2.14,0,0,1,.55,1.6v7.69a5.25,5.25,0,0,1-2.19,4.19L221,205.36a1.52,1.52,0,0,1-1.07.23,1.32,1.32,0,0,0,1.65.06l21.51-12.32a5.25,5.25,0,0,0,2.2-4.19v-7.69C245.33,180.35,244.87,179.67,244.2,179.56Z" fill="#fff"/>
            <g id="Grupo_85907" data-name="Grupo 85907">
              <path id="Trazado_154895" data-name="Trazado 154895" d="M228.09,197.29l2-1.14a1.12,1.12,0,0,0,.48-.91v-2.11c0-.35-.21-.51-.48-.36l-2,1.14a1.12,1.12,0,0,0-.48.91v2.11C227.61,197.28,227.82,197.44,228.09,197.29Z" fill="#1565b2"/>
              <path id="Trazado_154896" data-name="Trazado 154896" d="M234.69,193.48l2-1.14a1.12,1.12,0,0,0,.48-.91v-2.11c0-.35-.21-.51-.48-.36l-2,1.14a1.12,1.12,0,0,0-.48.91v2.11C234.21,193.47,234.42,193.63,234.69,193.48Z" fill="#fff"/>
            </g>
          </g>
          <g id="Grupo_85910" data-name="Grupo 85910">
            <path id="Trazado_154897" data-name="Trazado 154897" d="M221.62,261.26l21.51-12.32a5.27,5.27,0,0,0,2.2-4.19v-7.7c0-1.61-1-2.35-2.2-1.65l-21.51,12.32a5.23,5.23,0,0,0-2.2,4.19v7.69C219.42,261.22,220.4,262,221.62,261.26Z" fill="#173d7a"/>
            <path id="Trazado_154898" data-name="Trazado 154898" d="M244.2,235.16a2.15,2.15,0,0,1,.55,1.6v7.7a5.26,5.26,0,0,1-2.19,4.19L221,261a1.58,1.58,0,0,1-1.07.23,1.32,1.32,0,0,0,1.65.06l21.51-12.32a5.27,5.27,0,0,0,2.2-4.19v-7.7C245.33,236,244.87,235.28,244.2,235.16Z" fill="#fff"/>
            <g id="Grupo_85909" data-name="Grupo 85909">
              <path id="Trazado_154899" data-name="Trazado 154899" d="M228.09,252.9l2-1.14a1.12,1.12,0,0,0,.48-.91v-2.11c0-.35-.21-.52-.48-.36l-2,1.14a1.12,1.12,0,0,0-.48.91v2.11C227.61,252.89,227.82,253.05,228.09,252.9Z" fill="#1565b2"/>
              <path id="Trazado_154900" data-name="Trazado 154900" d="M234.69,249.09l2-1.14a1.12,1.12,0,0,0,.48-.91v-2.11c0-.35-.21-.52-.48-.36l-2,1.14a1.12,1.12,0,0,0-.48.91v2.11C234.21,249.08,234.42,249.24,234.69,249.09Z" fill="#fff"/>
            </g>
          </g>
          <g id="Grupo_85912" data-name="Grupo 85912">
            <path id="Trazado_154901" data-name="Trazado 154901" d="M221.62,289.06l21.51-12.32a5.25,5.25,0,0,0,2.2-4.19v-7.69c0-1.62-1-2.36-2.2-1.66l-21.51,12.32a5.23,5.23,0,0,0-2.2,4.19v7.69C219.42,289,220.4,289.76,221.62,289.06Z" fill="#173d7a"/>
            <path id="Trazado_154902" data-name="Trazado 154902" d="M244.2,263a2.14,2.14,0,0,1,.55,1.6v7.69a5.25,5.25,0,0,1-2.19,4.19L221,288.77a1.59,1.59,0,0,1-1,.23,1.33,1.33,0,0,0,1.65.05l21.51-12.32a5.25,5.25,0,0,0,2.2-4.19v-7.69C245.33,263.76,244.87,263.08,244.2,263Z" fill="#fff"/>
            <g id="Grupo_85911" data-name="Grupo 85911">
              <path id="Trazado_154903" data-name="Trazado 154903" d="M228.09,280.7l2-1.14a1.12,1.12,0,0,0,.48-.91v-2.11c0-.35-.21-.51-.48-.36l-2,1.14a1.12,1.12,0,0,0-.48.91v2.11C227.61,280.69,227.82,280.85,228.09,280.7Z" fill="#1565b2"/>
              <path id="Trazado_154904" data-name="Trazado 154904" d="M234.69,276.89l2-1.14a1.12,1.12,0,0,0,.48-.91v-2.11c0-.35-.21-.51-.48-.36l-2,1.14a1.12,1.12,0,0,0-.48.91v2.11C234.21,276.88,234.42,277,234.69,276.89Z" fill="#fff"/>
            </g>
          </g>
          <g id="Grupo_85914" data-name="Grupo 85914">
            <path id="Trazado_154905" data-name="Trazado 154905" d="M221.62,233.45l21.51-12.32a5.23,5.23,0,0,0,2.2-4.18v-7.7c0-1.61-1-2.36-2.2-1.66l-21.51,12.32a5.24,5.24,0,0,0-2.2,4.19v7.7C219.42,233.41,220.4,234.15,221.62,233.45Z" fill="#173d7a"/>
            <path id="Trazado_154906" data-name="Trazado 154906" d="M244.2,207.36a2.14,2.14,0,0,1,.55,1.6v7.7a5.26,5.26,0,0,1-2.19,4.19L221,233.17a1.64,1.64,0,0,1-1.07.23,1.32,1.32,0,0,0,1.65,0l21.51-12.32a5.23,5.23,0,0,0,2.2-4.18v-7.7C245.33,208.15,244.87,207.47,244.2,207.36Z" fill="#fff"/>
            <g id="Grupo_85913" data-name="Grupo 85913">
              <path id="Trazado_154907" data-name="Trazado 154907" d="M228.09,225.1l2-1.14a1.16,1.16,0,0,0,.48-.92v-2.11c0-.35-.21-.51-.48-.36l-2,1.14a1.14,1.14,0,0,0-.48.92v2.1C227.61,225.09,227.82,225.25,228.09,225.1Z" fill="#1565b2"/>
              <path id="Trazado_154908" data-name="Trazado 154908" d="M234.69,221.28l2-1.13a1.16,1.16,0,0,0,.48-.92v-2.11c0-.35-.21-.51-.48-.36l-2,1.14a1.13,1.13,0,0,0-.48.92v2.1C234.21,221.28,234.42,221.44,234.69,221.28Z" fill="#fff"/>
            </g>
          </g>
        </g>
        <g id="Grupo_85916" data-name="Grupo 85916">
          <path id="Trazado_154909" data-name="Trazado 154909" d="M203,197.77l-49.65-28.66a4.81,4.81,0,0,1-2-3.84V155.8c0-1.48.9-2.16,2-1.52L203,182.94a4.83,4.83,0,0,1,2,3.85v9.46C205,197.73,204.09,198.42,203,197.77Z" fill="#5793ce"/>
          <path id="Trazado_154910" data-name="Trazado 154910" d="M201.55,194.45l-46.79-27a2.44,2.44,0,0,1-1-1.95v-7.12c0-.75.45-1.1,1-.77l46.79,27a2.41,2.41,0,0,1,1,1.95v7.11C202.57,194.43,202.12,194.78,201.55,194.45Z" fill="#d4ecff" opacity="0.4"/>
          <path id="Trazado_154911" data-name="Trazado 154911" d="M164.51,169.47l-7-4a2.39,2.39,0,0,1-1-1.9h0c0-.73.45-1.06,1-.74l7,4a2.35,2.35,0,0,1,1,1.89h0C165.5,169.45,165.06,169.79,164.51,169.47Z" fill="#d4ecff"/>
          <ellipse id="Elipse_6962" data-name="Elipse 6962" cx="0.93" cy="1.62" rx="0.93" ry="1.62" transform="translate(167.701 169.994) rotate(-30)" fill="#173d7a"/>
          <path id="Trazado_154912" data-name="Trazado 154912" d="M174.5,173.92c0,.73-.51,1-1.15.66a2.55,2.55,0,0,1-1.14-2c0-.73.51-1,1.14-.66a2.54,2.54,0,0,1,1.15,2Z" fill="#173d7a"/>
          <path id="Trazado_154913" data-name="Trazado 154913" d="M178.54,176.25c0,.73-.52,1-1.15.66a2.53,2.53,0,0,1-1.14-2c0-.73.51-1,1.14-.67a2.56,2.56,0,0,1,1.15,2.01Z" fill="#d4ecff"/>
          <path id="Trazado_154914" data-name="Trazado 154914" d="M182.57,178.58c0,.73-.51,1-1.14.66a2.53,2.53,0,0,1-1.14-2c0-.73.51-1,1.14-.66a2.52,2.52,0,0,1,1.14,2Z" fill="#173d7a"/>
          <path id="Trazado_154915" data-name="Trazado 154915" d="M199.58,190.49l-2.35-1.36a1.5,1.5,0,0,1-.63-1.21v-2.49c0-.47.28-.68.63-.48l2.35,1.36a1.49,1.49,0,0,1,.64,1.21V190C200.22,190.48,199.94,190.69,199.58,190.49Z" fill="#173d7a"/>
        </g>
        <g id="Grupo_85917" data-name="Grupo 85917">
          <path id="Trazado_154916" data-name="Trazado 154916" d="M203,214.47,153.33,185.8a4.81,4.81,0,0,1-2-3.84v-9.47c0-1.48.9-2.16,2-1.52L203,199.64a4.81,4.81,0,0,1,2,3.84V213C205,214.43,204.09,215.11,203,214.47Z" fill="#5793ce"/>
          <path id="Trazado_154917" data-name="Trazado 154917" d="M201.55,211.15l-46.79-27a2.42,2.42,0,0,1-1-1.95v-7.12c0-.75.45-1.09,1-.77l46.79,27a2.42,2.42,0,0,1,1,1.95v7.12C202.57,211.13,202.12,211.47,201.55,211.15Z" fill="#d4ecff" opacity="0.4"/>
          <path id="Trazado_154918" data-name="Trazado 154918" d="M164.51,186.16l-7-4a2.36,2.36,0,0,1-1-1.89h0c0-.73.45-1.07,1-.75l7,4a2.36,2.36,0,0,1,1,1.89h0C165.5,186.14,165.06,186.48,164.51,186.16Z" fill="#d4ecff"/>
          <path id="Trazado_154919" data-name="Trazado 154919" d="M170.46,188.28c0,.73-.51,1-1.14.66a2.52,2.52,0,0,1-1.15-2c0-.73.51-1,1.15-.66A2.52,2.52,0,0,1,170.46,188.28Z" fill="#fff"/>
          <path id="Trazado_154920" data-name="Trazado 154920" d="M174.5,190.61c0,.73-.51,1-1.15.66a2.52,2.52,0,0,1-1.14-2c0-.73.51-1,1.14-.66a2.5,2.5,0,0,1,1.15,2Z" fill="#173d7a"/>
          <path id="Trazado_154921" data-name="Trazado 154921" d="M178.54,192.94c0,.73-.52,1-1.15.66a2.52,2.52,0,0,1-1.14-2c0-.73.51-1,1.14-.66a2.53,2.53,0,0,1,1.15,2Z" fill="#d4ecff"/>
          <ellipse id="Elipse_6963" data-name="Elipse 6963" cx="0.93" cy="1.62" rx="0.93" ry="1.62" transform="translate(179.813 193.685) rotate(-30)" fill="#173d7a"/>
          <path id="Trazado_154922" data-name="Trazado 154922" d="M199.58,207.19l-2.35-1.36a1.54,1.54,0,0,1-.63-1.22v-2.49c0-.47.28-.68.63-.48l2.35,1.36a1.51,1.51,0,0,1,.64,1.22v2.48C200.22,207.17,199.94,207.39,199.58,207.19Z" fill="#173d7a"/>
        </g>
        <g id="Grupo_85918" data-name="Grupo 85918">
          <path id="Trazado_154923" data-name="Trazado 154923" d="M203,231.16,153.33,202.5a4.82,4.82,0,0,1-2-3.85v-9.46c0-1.48.9-2.17,2-1.52L203,216.33a4.81,4.81,0,0,1,2,3.84v9.47C205,231.12,204.09,231.8,203,231.16Z" fill="#5793ce"/>
          <path id="Trazado_154924" data-name="Trazado 154924" d="M201.55,227.84l-46.79-27a2.41,2.41,0,0,1-1-1.95v-7.11c0-.75.45-1.1,1-.77l46.79,27a2.44,2.44,0,0,1,1,1.95v7.12C202.57,227.82,202.12,228.17,201.55,227.84Z" fill="#d4ecff" opacity="0.4"/>
          <path id="Trazado_154925" data-name="Trazado 154925" d="M164.51,202.86l-7-4a2.39,2.39,0,0,1-1-1.9h0c0-.73.45-1.06,1-.75l7,4a2.38,2.38,0,0,1,1,1.9h0C165.5,202.84,165.06,203.17,164.51,202.86Z" fill="#d4ecff"/>
          <path id="Trazado_154926" data-name="Trazado 154926" d="M170.46,205c0,.73-.51,1-1.14.66a2.5,2.5,0,0,1-1.15-2c0-.73.51-1,1.15-.66A2.52,2.52,0,0,1,170.46,205Z" fill="#fff"/>
          <path id="Trazado_154927" data-name="Trazado 154927" d="M174.5,207.3c0,.73-.51,1-1.15.66a2.52,2.52,0,0,1-1.14-2c0-.73.51-1,1.14-.66a2.52,2.52,0,0,1,1.15,2Z" fill="#173d7a"/>
          <path id="Trazado_154928" data-name="Trazado 154928" d="M178.54,209.63c0,.73-.52,1-1.15.66a2.52,2.52,0,0,1-1.14-2c0-.73.51-1,1.14-.66a2.54,2.54,0,0,1,1.15,2Z" fill="#d4ecff"/>
          <path id="Trazado_154929" data-name="Trazado 154929" d="M182.57,212c0,.72-.51,1-1.14.66a2.55,2.55,0,0,1-1.14-2c0-.73.51-1,1.14-.66a2.55,2.55,0,0,1,1.14,2Z" fill="#173d7a"/>
          <path id="Trazado_154930" data-name="Trazado 154930" d="M199.58,223.88l-2.35-1.36a1.52,1.52,0,0,1-.63-1.22v-2.48c0-.47.28-.69.63-.49l2.35,1.36a1.52,1.52,0,0,1,.64,1.22v2.49C200.22,223.87,199.94,224.08,199.58,223.88Z" fill="#173d7a"/>
        </g>
        <g id="Grupo_85919" data-name="Grupo 85919">
          <path id="Trazado_154931" data-name="Trazado 154931" d="M203,247.85l-49.65-28.66a4.81,4.81,0,0,1-2-3.84v-9.47c0-1.48.9-2.16,2-1.52L203,233a4.82,4.82,0,0,1,2,3.85v9.46C205,247.81,204.09,248.5,203,247.85Z" fill="#5793ce"/>
          <path id="Trazado_154932" data-name="Trazado 154932" d="M201.55,244.53l-46.79-27a2.44,2.44,0,0,1-1-2v-7.12c0-.75.45-1.1,1-.77l46.79,27a2.41,2.41,0,0,1,1,2v7.11C202.57,244.51,202.12,244.86,201.55,244.53Z" fill="#d4ecff" opacity="0.4"/>
          <path id="Trazado_154933" data-name="Trazado 154933" d="M164.51,219.55l-7-4a2.39,2.39,0,0,1-1-1.9h0c0-.73.45-1.06,1-.75l7,4a2.35,2.35,0,0,1,1,1.89h0C165.5,219.53,165.06,219.87,164.51,219.55Z" fill="#d4ecff"/>
          <path id="Trazado_154934" data-name="Trazado 154934" d="M170.46,221.66c0,.73-.51,1-1.14.67a2.54,2.54,0,0,1-1.15-2c0-.73.51-1,1.15-.66a2.53,2.53,0,0,1,1.14,1.99Z" fill="#173d7a"/>
          <ellipse id="Elipse_6964" data-name="Elipse 6964" cx="0.93" cy="1.62" rx="0.93" ry="1.62" transform="translate(171.726 222.408) rotate(-30)" fill="#173d7a"/>
          <path id="Trazado_154935" data-name="Trazado 154935" d="M178.54,226.33c0,.73-.52,1-1.15.66a2.53,2.53,0,0,1-1.14-2c0-.73.51-1,1.14-.67a2.56,2.56,0,0,1,1.15,2.01Z" fill="#d4ecff"/>
          <path id="Trazado_154936" data-name="Trazado 154936" d="M182.57,228.66c0,.73-.51,1-1.14.66a2.53,2.53,0,0,1-1.14-2c0-.73.51-1,1.14-.66a2.52,2.52,0,0,1,1.14,2Z" fill="#173d7a"/>
          <path id="Trazado_154937" data-name="Trazado 154937" d="M199.58,240.57l-2.35-1.36a1.5,1.5,0,0,1-.63-1.21v-2.49c0-.47.28-.68.63-.48l2.35,1.36a1.49,1.49,0,0,1,.64,1.21v2.49C200.22,240.56,199.94,240.77,199.58,240.57Z" fill="#d4ecff"/>
        </g>
        <g id="Grupo_85920" data-name="Grupo 85920">
          <path id="Trazado_154938" data-name="Trazado 154938" d="M203,264.55l-49.65-28.67a4.81,4.81,0,0,1-2-3.84v-9.47c0-1.48.9-2.16,2-1.52L203,249.72a4.81,4.81,0,0,1,2,3.84V263C205,264.51,204.09,265.19,203,264.55Z" fill="#5793ce"/>
          <path id="Trazado_154939" data-name="Trazado 154939" d="M201.55,261.23l-46.79-27a2.42,2.42,0,0,1-1-2v-7.12c0-.75.45-1.09,1-.77l46.79,27a2.42,2.42,0,0,1,1,2v7.12C202.57,261.21,202.12,261.55,201.55,261.23Z" fill="#d4ecff" opacity="0.4"/>
          <path id="Trazado_154940" data-name="Trazado 154940" d="M164.51,236.24l-7-4a2.36,2.36,0,0,1-1-1.89h0c0-.73.45-1.07,1-.75l7,4a2.36,2.36,0,0,1,1,1.89h0C165.5,236.22,165.06,236.56,164.51,236.24Z" fill="#d4ecff"/>
          <path id="Trazado_154941" data-name="Trazado 154941" d="M170.46,238.36c0,.73-.51,1-1.14.66a2.52,2.52,0,0,1-1.15-2c0-.73.51-1,1.15-.66A2.52,2.52,0,0,1,170.46,238.36Z" fill="#173d7a"/>
          <path id="Trazado_154942" data-name="Trazado 154942" d="M174.5,240.69c0,.73-.51,1-1.15.66a2.53,2.53,0,0,1-1.14-2c0-.73.51-1,1.14-.66a2.5,2.5,0,0,1,1.15,2Z" fill="#fff"/>
          <path id="Trazado_154943" data-name="Trazado 154943" d="M178.54,243c0,.73-.52,1-1.15.66a2.52,2.52,0,0,1-1.14-2c0-.73.51-1,1.14-.66a2.53,2.53,0,0,1,1.15,2Z" fill="#d4ecff"/>
          <path id="Trazado_154944" data-name="Trazado 154944" d="M182.57,245.35c0,.73-.51,1-1.14.66a2.52,2.52,0,0,1-1.14-2c0-.73.51-1,1.14-.66a2.52,2.52,0,0,1,1.14,2Z" fill="#fff"/>
          <path id="Trazado_154945" data-name="Trazado 154945" d="M199.58,257.26l-2.35-1.35a1.54,1.54,0,0,1-.63-1.22V252.2c0-.47.28-.68.63-.48l2.35,1.36a1.5,1.5,0,0,1,.64,1.21v2.49C200.22,257.25,199.94,257.47,199.58,257.26Z" fill="#d4ecff"/>
        </g>
        <g id="Grupo_85921" data-name="Grupo 85921">
          <path id="Trazado_154946" data-name="Trazado 154946" d="M203,281.24l-49.65-28.66a4.83,4.83,0,0,1-2-3.85v-9.46c0-1.48.9-2.17,2-1.52L203,266.41a4.81,4.81,0,0,1,2,3.84v9.47C205,281.2,204.09,281.88,203,281.24Z" fill="#5793ce"/>
          <path id="Trazado_154947" data-name="Trazado 154947" d="M201.55,277.92l-46.79-27a2.41,2.41,0,0,1-1-2v-7.11c0-.75.45-1.1,1-.77l46.79,27a2.44,2.44,0,0,1,1,1.95v7.12C202.57,277.9,202.12,278.25,201.55,277.92Z" fill="#d4ecff" opacity="0.4"/>
          <path id="Trazado_154948" data-name="Trazado 154948" d="M164.51,252.94l-7-4a2.36,2.36,0,0,1-1-1.89h0c0-.73.45-1.06,1-.75l7,4a2.38,2.38,0,0,1,1,1.9h0C165.5,252.92,165.06,253.25,164.51,252.94Z" fill="#d4ecff"/>
          <ellipse id="Elipse_6965" data-name="Elipse 6965" cx="0.93" cy="1.62" rx="0.93" ry="1.62" transform="translate(167.696 253.461) rotate(-30)" fill="#173d7a"/>
          <path id="Trazado_154949" data-name="Trazado 154949" d="M174.5,257.38c0,.73-.51,1-1.15.66a2.52,2.52,0,0,1-1.14-2c0-.73.51-1,1.14-.66a2.5,2.5,0,0,1,1.15,2Z" fill="#173d7a"/>
          <path id="Trazado_154950" data-name="Trazado 154950" d="M178.54,259.71c0,.73-.52,1-1.15.66a2.52,2.52,0,0,1-1.14-2c0-.73.51-1,1.14-.66A2.54,2.54,0,0,1,178.54,259.71Z" fill="#d4ecff"/>
          <path id="Trazado_154951" data-name="Trazado 154951" d="M182.57,262c0,.73-.51,1-1.14.67a2.55,2.55,0,0,1-1.14-2c0-.73.51-1,1.14-.66a2.53,2.53,0,0,1,1.14,1.99Z" fill="#173d7a"/>
          <path id="Trazado_154952" data-name="Trazado 154952" d="M199.58,274l-2.35-1.36a1.52,1.52,0,0,1-.63-1.22V268.9c0-.47.28-.69.63-.49l2.35,1.36a1.52,1.52,0,0,1,.64,1.22v2.49C200.22,274,199.94,274.16,199.58,274Z" fill="#173d7a"/>
        </g>
        <g id="Grupo_85922" data-name="Grupo 85922">
          <path id="Trazado_154953" data-name="Trazado 154953" d="M203,297.93l-49.65-28.66a4.81,4.81,0,0,1-2-3.84V256c0-1.48.9-2.16,2-1.52L203,283.1a4.82,4.82,0,0,1,2,3.85v9.46C205,297.89,204.09,298.57,203,297.93Z" fill="#5793ce"/>
          <path id="Trazado_154954" data-name="Trazado 154954" d="M201.55,294.61l-46.79-27a2.44,2.44,0,0,1-1-2v-7.12c0-.75.45-1.1,1-.77l46.79,27a2.41,2.41,0,0,1,1,2v7.11C202.57,294.59,202.12,294.94,201.55,294.61Z" fill="#d4ecff" opacity="0.4"/>
          <path id="Trazado_154955" data-name="Trazado 154955" d="M164.51,269.63l-7-4a2.39,2.39,0,0,1-1-1.9h0c0-.73.45-1.06,1-.75l7,4a2.35,2.35,0,0,1,1,1.89h0C165.5,269.61,165.06,270,164.51,269.63Z" fill="#d4ecff"/>
          <path id="Trazado_154956" data-name="Trazado 154956" d="M171.74,272.65c0,1.38-1,1.94-2.16,1.25a4.78,4.78,0,0,1-2.17-3.75c0-1.38,1-1.94,2.17-1.25a4.8,4.8,0,0,1,2.16,3.75Z" fill="#fff"/>
          <path id="Trazado_154957" data-name="Trazado 154957" d="M180.1,277.54c0,.73-.51,1-1.14.66a2.5,2.5,0,0,1-1.15-2c0-.73.51-1,1.15-.66a2.52,2.52,0,0,1,1.14,2Z" fill="#173d7a"/>
          <path id="Trazado_154958" data-name="Trazado 154958" d="M184.14,279.87c0,.73-.51,1-1.15.66a2.52,2.52,0,0,1-1.14-2c0-.73.51-1,1.14-.66A2.52,2.52,0,0,1,184.14,279.87Z" fill="#d4ecff"/>
          <path id="Trazado_154959" data-name="Trazado 154959" d="M188.18,282.2c0,.73-.52,1-1.15.66a2.52,2.52,0,0,1-1.14-2c0-.73.51-1,1.14-.66a2.54,2.54,0,0,1,1.15,2Z" fill="#173d7a"/>
          <path id="Trazado_154960" data-name="Trazado 154960" d="M199.58,290.65l-2.35-1.36a1.5,1.5,0,0,1-.63-1.21v-2.49c0-.47.28-.69.63-.48l2.35,1.36a1.49,1.49,0,0,1,.64,1.21v2.49C200.22,290.64,199.94,290.85,199.58,290.65Z" fill="#d4ecff"/>
        </g>
      </g>
      <path id="Trazado_154961" data-name="Trazado 154961" d="M199.68,339.85a1,1,0,0,1-.49-.13l-56.44-32.07a2.18,2.18,0,0,1-1.1-1.89,2.15,2.15,0,0,1,1.07-1.9l24.21-14.29a2.81,2.81,0,0,0,1.39-2.42V271.4a1,1,0,0,1,2,0v15.75a4.83,4.83,0,0,1-2.37,4.14l-24.21,14.29a.18.18,0,0,0-.09.16.19.19,0,0,0,.09.17L200.18,338a1,1,0,0,1-.5,1.87Z" fill="#5793ce"/>
      <g id="Grupo_85927" data-name="Grupo 85927">
        <g id="Grupo_85926" data-name="Grupo 85926">
          <g id="Grupo_85924" data-name="Grupo 85924">
            <rect id="Rectángulo_36843" data-name="Rectángulo 36843" width="5.36" height="11.57" transform="matrix(-0.497, 0.868, -0.868, -0.497, 191.598, 331.306)" fill="#5793ce"/>
            <path id="Trazado_154962" data-name="Trazado 154962" d="M178.34,329a4.18,4.18,0,0,1,1.88-3.29c1.05-.61,1.9-.12,1.9,1.09a4.21,4.21,0,0,1-1.88,3.29C179.19,330.66,178.34,330.18,178.34,329Z" fill="#5793ce"/>
          </g>
          <g id="Grupo_85925" data-name="Grupo 85925">
            <rect id="Rectángulo_36844" data-name="Rectángulo 36844" width="8.69" height="18.15" transform="matrix(-0.497, 0.868, -0.868, -0.497, 206.408, 337.88)" fill="#5793ce"/>
            <path id="Trazado_154963" data-name="Trazado 154963" d="M190,330.35l-3.4-2a7,7,0,0,0-2.67,4.65l3.4,1.95A6.94,6.94,0,0,0,190,330.35Z" fill="#1565b2"/>
            <path id="Trazado_154964" data-name="Trazado 154964" d="M185.45,334.4a6.79,6.79,0,0,1,3.05-5.33c1.7-1,3.07-.19,3.08,1.77a6.78,6.78,0,0,1-3.06,5.32C186.83,337.15,185.45,336.36,185.45,334.4Z" fill="#5793ce"/>
          </g>
        </g>
        <path id="Trazado_154965" data-name="Trazado 154965" d="M181.5,327.73c-.49-.29-.49-.75,0-1a2,2,0,0,1,1.78,0c.49.29.49.75,0,1A2,2,0,0,1,181.5,327.73Z" fill="#d4ecff"/>
      </g>
      <g id="Grupo_85931" data-name="Grupo 85931">
        <g id="Grupo_85930" data-name="Grupo 85930">
          <g id="Grupo_85928" data-name="Grupo 85928">
            <rect id="Rectángulo_36845" data-name="Rectángulo 36845" width="5.36" height="11.57" transform="matrix(-0.497, 0.868, -0.868, -0.497, 179.39, 338.673)" fill="#5793ce"/>
            <path id="Trazado_154966" data-name="Trazado 154966" d="M166.13,336.34a4.18,4.18,0,0,1,1.89-3.28c1-.61,1.89-.12,1.9,1.08a4.18,4.18,0,0,1-1.89,3.29C167,338,166.14,337.55,166.13,336.34Z" fill="#5793ce"/>
          </g>
          <g id="Grupo_85929" data-name="Grupo 85929">
            <rect id="Rectángulo_36846" data-name="Rectángulo 36846" width="8.69" height="18.15" transform="matrix(-0.497, 0.868, -0.868, -0.497, 194.218, 345.251)" fill="#5793ce"/>
            <path id="Trazado_154967" data-name="Trazado 154967" d="M177.74,337.73l-3.39-2a6.94,6.94,0,0,0-2.67,4.65l3.4,1.95a7,7,0,0,0,2.66-4.6Z" fill="#1565b2"/>
            <path id="Trazado_154968" data-name="Trazado 154968" d="M173.24,341.78a6.78,6.78,0,0,1,3.06-5.33c1.69-1,3.07-.2,3.07,1.76a6.77,6.77,0,0,1-3.05,5.33C174.62,344.53,173.25,343.74,173.24,341.78Z" fill="#5793ce"/>
          </g>
        </g>
        <path id="Trazado_154969" data-name="Trazado 154969" d="M169.3,335.1a.54.54,0,0,1,0-1,1.94,1.94,0,0,1,1.77,0,.54.54,0,0,1,0,1A2,2,0,0,1,169.3,335.1Z" fill="#d4ecff"/>
      </g>
      <g id="Grupo_85950" data-name="Grupo 85950">
        <g id="Grupo_85946" data-name="Grupo 85946">
          <path id="Trazado_154985" data-name="Trazado 154985" d="M292.19,436.66,176.05,369.6c-3.29-1.89-2.87-5.21.92-7.4l79.08-45.64c3.8-2.19,9.54-2.43,12.82-.53L385,383.08c3.29,1.9,2.88,5.21-.92,7.4L305,436.13C301.22,438.32,295.48,438.55,292.19,436.66Z" fill="#b2d3ea"/>
          <path id="Trazado_154986" data-name="Trazado 154986" d="M412.22,264.3,296.07,197.24a4.66,4.66,0,0,0-3.93-.48h0l-.22.08h-.05l-4.19,1.6,3.76,1.85a.3.3,0,0,1-.05.2L272.47,286.6c-1,4.31.95,9.34,4.24,11.24l113.34,65.44-.4,4.81,4.59-1.78a6.44,6.44,0,0,0,3.28-4.67l18.92-86.12C417.4,271.22,415.5,266.19,412.22,264.3Z" fill="#173d7a"/>
          <path id="Trazado_154987" data-name="Trazado 154987" d="M412.22,264.3,296.07,197.24a4.66,4.66,0,0,0-3.93-.48h0l-.22.08h-.05l-4.19,1.6,3.76,1.85a.3.3,0,0,1-.05.2l-12.47,56.75,56.83,44.28,80.12-32.61A9,9,0,0,0,412.22,264.3Z" fill="#1565b2"/>
          <path id="Trazado_154988" data-name="Trazado 154988" d="M407.84,277.53l8.84-3.76a11.09,11.09,0,0,0-3.58-8.85l-14,5.88Z" fill="#274f89"/>
          <path id="Trazado_154989" data-name="Trazado 154989" d="M385.63,367.64,269.48,300.58c-3.28-1.89-5.18-6.92-4.23-11.23l18.92-86.12c.94-4.3,4.37-6.26,7.66-4.36L408,265.92c3.29,1.9,5.18,6.93,4.24,11.24l-18.92,86.11C392.34,367.58,388.91,369.54,385.63,367.64Z" fill="#d4ecff"/>
          <path id="Trazado_154990" data-name="Trazado 154990" d="M383.11,361.23l-109.23-63c-3-1.73-4.74-6.34-3.88-10.28l17.31-78.8c.87-4,4-5.74,7-4l109.23,63c3,1.74,4.74,6.34,3.87,10.29l-17.31,78.8C389.25,361.18,386.11,363,383.11,361.23Z" fill="#fff"/>
          <path id="Trazado_154991" data-name="Trazado 154991" d="M383.11,361.23l-109.23-63c-3-1.73-4.74-6.34-3.88-10.28l17.31-78.8c.87-4,4-5.74,7-4l109.23,63c3,1.74,4.74,6.34,3.87,10.29l-17.31,78.8C389.25,361.18,386.11,363,383.11,361.23Z" fill="#fff"/>
          <path id="Trazado_154992" data-name="Trazado 154992" d="M387.23,370.56l-15.88-2.1L268.87,309.3c-3.28-1.9-9-1.66-12.82.53l-72.61,41.91-9.6-1.27v5.45h0a3.71,3.71,0,0,0,2.2,3.36l116.14,67.06c3.29,1.89,9,1.66,12.82-.53l79.08-45.65c2.14-1.23,3.2-2.82,3.14-4.31h0Z" fill="#173d7a"/>
          <path id="Trazado_154993" data-name="Trazado 154993" d="M310.23,333.17,303,329H223l-39.46,22.77-9.6-1.27v5.45h0a3.71,3.71,0,0,0,2.2,3.36l116.14,67.06a12.08,12.08,0,0,0,6.62,1.24Z" fill="#1565b2"/>
          <path id="Trazado_154994" data-name="Trazado 154994" d="M178.1,351l-4.26-.56v5.45h0a3.71,3.71,0,0,0,2.2,3.36l2,1.18Z" fill="#5793ce"/>
          <path id="Trazado_154995" data-name="Trazado 154995" d="M293.36,426.88a14.88,14.88,0,0,0,10.89-.68V414.06H293.36Z" fill="#274f89"/>
          <path id="Trazado_154996" data-name="Trazado 154996" d="M292.19,420.9,176.05,353.84c-3.29-1.89-2.87-5.21.92-7.4l79.08-45.64c3.8-2.19,9.54-2.43,12.82-.53L385,367.32c3.29,1.9,2.88,5.21-.92,7.4L305,420.37C301.22,422.56,295.48,422.79,292.19,420.9Z" fill="#d4ecff"/>
          <path id="Trazado_154997" data-name="Trazado 154997" d="M384.09,372.73,305,418.38c-3.79,2.19-9.53,2.42-12.82.53L176.05,351.85a4.27,4.27,0,0,1-2-2.23c-.52,1.55.14,3.12,2,4.22L292.19,420.9c3.29,1.89,9,1.66,12.82-.53l79.08-45.65c2.55-1.47,3.57-3.45,3-5.17A6.18,6.18,0,0,1,384.09,372.73Z" fill="#fff"/>
          <g id="Grupo_85945" data-name="Grupo 85945">
            <path id="Trazado_154998" data-name="Trazado 154998" d="M225.45,331.64l-5.26-3c-.42-.24-.37-.67.12-.95l6.2-3.58a1.85,1.85,0,0,1,1.65-.07l5.25,3c.42.25.37.67-.12.95l-6.2,3.58a1.77,1.77,0,0,1-1.64.07Z" fill="#173d7a"/>
            <path id="Trazado_154999" data-name="Trazado 154999" d="M233.56,336.33l-5.25-3c-.43-.24-.37-.66.11-1l6.21-3.58a1.83,1.83,0,0,1,1.64-.07l5.26,3c.42.24.37.67-.12.95l-6.2,3.58a1.85,1.85,0,0,1-1.65.12Z" fill="#173d7a"/>
            <path id="Trazado_155000" data-name="Trazado 155000" d="M241.68,341l-5.26-3c-.42-.24-.37-.67.12-1l6.2-3.58a1.85,1.85,0,0,1,1.65-.07l5.25,3c.43.25.37.67-.11.95l-6.21,3.7a1.8,1.8,0,0,1-1.64,0Z" fill="#173d7a"/>
            <path id="Trazado_155001" data-name="Trazado 155001" d="M252.9,337.14l-5.25-3c-.43-.24-.37-.67.11-.95l5.21-3a1.82,1.82,0,0,1,1.65-.06l5.25,3c.42.24.37.67-.12.95l-5.2,3A1.82,1.82,0,0,1,252.9,337.14Z" fill="#173d7a"/>
            <path id="Trazado_155002" data-name="Trazado 155002" d="M261,341.83l-5.26-3c-.42-.25-.37-.67.12-.95l5.21-3a1.83,1.83,0,0,1,1.64-.07l5.26,3c.42.25.37.67-.12,1l-5.21,3a1.83,1.83,0,0,1-1.64.02Z" fill="#173d7a"/>
            <path id="Trazado_155003" data-name="Trazado 155003" d="M269.13,346.52l-5.25-3c-.43-.24-.37-.67.11-1l5.21-3a1.82,1.82,0,0,1,1.65-.06l5.25,3c.42.24.37.67-.12.95l-5.2,3A1.85,1.85,0,0,1,269.13,346.52Z" fill="#173d7a"/>
            <path id="Trazado_155004" data-name="Trazado 155004" d="M277.25,351.2l-5.26-3c-.42-.25-.37-.67.12-.95l5.21-3a1.83,1.83,0,0,1,1.64-.07l5.26,3c.42.24.37.66-.12.95l-5.21,3a1.83,1.83,0,0,1-1.64.07Z" fill="#173d7a"/>
            <path id="Trazado_155005" data-name="Trazado 155005" d="M285.36,355.89l-5.25-3c-.43-.24-.37-.67.11-1l5.21-3a1.79,1.79,0,0,1,1.65-.07l5.25,3c.42.24.37.67-.12.95l-5.2,3a1.85,1.85,0,0,1-1.65.12Z" fill="#173d7a"/>
            <path id="Trazado_155006" data-name="Trazado 155006" d="M293.48,360.57l-5.26-3c-.42-.25-.37-.67.12-1l5.21-3a1.83,1.83,0,0,1,1.64-.07l5.26,3c.42.24.37.67-.12.95l-5.21,3a1.83,1.83,0,0,1-1.64.12Z" fill="#173d7a"/>
            <path id="Trazado_155007" data-name="Trazado 155007" d="M301.59,365.26l-5.25-3c-.43-.24-.37-.67.11-1l5.21-3a1.79,1.79,0,0,1,1.65-.07l5.25,3c.42.25.37.67-.12.95l-5.2,3a1.85,1.85,0,0,1-1.65.12Z" fill="#173d7a"/>
            <path id="Trazado_155008" data-name="Trazado 155008" d="M309.71,369.94l-5.26-3c-.42-.25-.37-.67.12-1l5.21-3a1.83,1.83,0,0,1,1.64-.07l5.26,3c.42.24.37.67-.12.95l-5.21,3A1.8,1.8,0,0,1,309.71,369.94Z" fill="#173d7a"/>
            <path id="Trazado_155009" data-name="Trazado 155009" d="M317.82,374.63l-5.25-3c-.42-.24-.37-.67.12-.95l5.2-3a1.82,1.82,0,0,1,1.65-.07l5.25,3c.43.25.37.67-.11.95l-5.21,3a1.85,1.85,0,0,1-1.65.07Z" fill="#173d7a"/>
            <path id="Trazado_155010" data-name="Trazado 155010" d="M325.94,379.31l-5.26-3c-.42-.25-.37-.67.12-.95l5.21-3a1.83,1.83,0,0,1,1.64-.07l5.26,3c.42.24.37.67-.12.95l-5.21,3a1.77,1.77,0,0,1-1.64.07Z" fill="#173d7a"/>
            <path id="Trazado_155011" data-name="Trazado 155011" d="M264.86,334.93l-5.26-3c-.42-.24-.37-.67.12-.95l5.21-3a1.77,1.77,0,0,1,1.64-.07l5.26,3c.42.25.37.67-.12,1l-5.21,3a1.83,1.83,0,0,1-1.64.02Z" fill="#1565b2"/>
            <path id="Trazado_155012" data-name="Trazado 155012" d="M256.62,330.17l-5.25-3c-.43-.25-.37-.67.11-.95l5.21-3a1.85,1.85,0,0,1,1.65-.07l5.25,3c.42.24.37.67-.12,1l-5.2,3A1.85,1.85,0,0,1,256.62,330.17Z" fill="#1565b2"/>
            <path id="Trazado_155013" data-name="Trazado 155013" d="M248.37,325.41l-11.32-6.54c-.42-.24-.37-.67.12-.95l5.21-3a1.83,1.83,0,0,1,1.64-.07l11.32,6.53c.42.25.37.67-.12.95l-5.2,3a1.85,1.85,0,0,1-1.65.08Z" fill="#173d7a"/>
            <path id="Trazado_155014" data-name="Trazado 155014" d="M254.14,319.62,245,314.31c-.42-.24-.37-.67.12-.95l5.21-3a1.77,1.77,0,0,1,1.64-.07l9.19,5.3c.42.24.37.67-.12,1l-5.21,3A1.83,1.83,0,0,1,254.14,319.62Z" fill="#173d7a"/>
            <path id="Trazado_155015" data-name="Trazado 155015" d="M273,339.61l-5.25-3c-.42-.25-.37-.67.12-.95l5.2-3a1.85,1.85,0,0,1,1.65-.07l5.25,3c.43.24.37.67-.11,1l-5.21,3a1.82,1.82,0,0,1-1.65.02Z" fill="#1565b2"/>
            <path id="Trazado_155016" data-name="Trazado 155016" d="M281.09,344.3l-5.26-3c-.42-.24-.37-.67.12-.95l5.21-3a1.8,1.8,0,0,1,1.64-.07l5.26,3c.42.25.37.67-.12,1l-5.21,3a1.83,1.83,0,0,1-1.64.02Z" fill="#173d7a"/>
            <path id="Trazado_155017" data-name="Trazado 155017" d="M289.2,349l-5.2-3c-.42-.25-.37-.67.12-.95l5.2-3a1.85,1.85,0,0,1,1.65-.07l5.25,3c.43.24.37.67-.11,1l-5.21,3a1.79,1.79,0,0,1-1.7.02Z" fill="#173d7a"/>
            <path id="Trazado_155018" data-name="Trazado 155018" d="M297.32,353.67l-5.26-3c-.42-.24-.37-.67.12-.95l5.21-3a1.83,1.83,0,0,1,1.64-.07l5.26,3c.42.25.37.67-.12.95l-5.21,3a1.83,1.83,0,0,1-1.64.07Z" fill="#173d7a"/>
            <path id="Trazado_155019" data-name="Trazado 155019" d="M305.43,358.35l-5.25-3c-.42-.24-.37-.67.12-.95l5.2-3a1.85,1.85,0,0,1,1.65-.07l5.25,3c.43.24.37.67-.11.95l-5.21,3a1.79,1.79,0,0,1-1.65.07Z" fill="#173d7a"/>
            <path id="Trazado_155020" data-name="Trazado 155020" d="M313.55,363l-5.26-3c-.42-.24-.37-.66.12-.95l5.21-3a1.85,1.85,0,0,1,1.65-.07l5.25,3c.42.25.37.67-.12.95l-5.2,3a1.85,1.85,0,0,1-1.65.07Z" fill="#173d7a"/>
            <path id="Trazado_155021" data-name="Trazado 155021" d="M321.66,367.72l-5.25-3c-.42-.24-.37-.67.12-.95l5.2-3a1.85,1.85,0,0,1,1.65-.07l5.26,3c.42.24.36.67-.12.95l-5.21,3A1.82,1.82,0,0,1,321.66,367.72Z" fill="#173d7a"/>
            <path id="Trazado_155022" data-name="Trazado 155022" d="M329.78,372.41l-5.26-3c-.42-.24-.36-.66.12-.95l5.21-3a1.85,1.85,0,0,1,1.65-.07l5.25,3c.42.25.37.67-.12.95l-5.2,3a1.85,1.85,0,0,1-1.65.07Z" fill="#173d7a"/>
            <path id="Trazado_155023" data-name="Trazado 155023" d="M337.89,377.09l-5.25-3c-.42-.24-.37-.67.12-.95l5.2-3a1.82,1.82,0,0,1,1.65-.06l5.26,3c.42.24.36.67-.12.95l-5.21,3A1.82,1.82,0,0,1,337.89,377.09Z" fill="#173d7a"/>
            <path id="Trazado_155024" data-name="Trazado 155024" d="M352.32,385.42l-11.46-6.62c-.43-.24-.37-.67.11-.95l5.21-3a1.85,1.85,0,0,1,1.65-.07l11.46,6.62c.42.24.37.67-.12,1l-5.2,3A1.82,1.82,0,0,1,352.32,385.42Z" fill="#173d7a"/>
            <path id="Trazado_155025" data-name="Trazado 155025" d="M368.12,376.3l-9.68-5.59c-.42-.24-.37-.66.12-.95l5.21-3a1.83,1.83,0,0,1,1.64-.07l9.68,5.59c.42.24.37.67-.12,1l-5.2,3a1.79,1.79,0,0,1-1.65.02Z" fill="#173d7a"/>
            <path id="Trazado_155026" data-name="Trazado 155026" d="M287.18,338.69l-5.25-3c-.42-.24-.37-.67.12-1l5.2-3a1.82,1.82,0,0,1,1.65-.06l5.26,3c.42.24.36.67-.12.95l-5.21,3A1.82,1.82,0,0,1,287.18,338.69Z" fill="#173d7a"/>
            <path id="Trazado_155027" data-name="Trazado 155027" d="M278.87,333.89l-5.26-3c-.42-.24-.37-.67.12-.95l5.21-3a1.83,1.83,0,0,1,1.64-.07l5.26,3c.42.24.37.67-.12.95l-5.21,3a1.77,1.77,0,0,1-1.64.07Z" fill="#173d7a"/>
            <path id="Trazado_155028" data-name="Trazado 155028" d="M270.55,329.09l-5.25-3c-.43-.25-.37-.67.11-.95l5.21-3a1.85,1.85,0,0,1,1.65-.07l5.25,3c.42.24.37.67-.12.95l-5.2,3a1.85,1.85,0,0,1-1.65.07Z" fill="#1565b2"/>
            <path id="Trazado_155029" data-name="Trazado 155029" d="M262.23,324.29l-5.25-3c-.42-.25-.37-.67.12-1l5.2-3a1.85,1.85,0,0,1,1.65-.07l5.25,3c.43.25.37.67-.11.95l-5.21,3a1.85,1.85,0,0,1-1.65.12Z" fill="#173d7a"/>
            <path id="Trazado_155030" data-name="Trazado 155030" d="M295.3,343.38l-5.26-3c-.42-.25-.36-.67.12-1l5.21-3a1.85,1.85,0,0,1,1.65-.07l5.25,3c.42.24.37.66-.12.95l-5.2,3a1.85,1.85,0,0,1-1.65.12Z" fill="#173d7a"/>
            <path id="Trazado_155031" data-name="Trazado 155031" d="M303.41,348.07l-5.25-3c-.42-.24-.37-.67.12-.95l5.2-3a1.79,1.79,0,0,1,1.65-.07l5.26,3c.42.24.36.67-.12.95l-5.21,3a1.85,1.85,0,0,1-1.65.07Z" fill="#173d7a"/>
            <path id="Trazado_155032" data-name="Trazado 155032" d="M311.53,352.75l-5.25-3c-.43-.25-.37-.67.11-1l5.21-3a1.85,1.85,0,0,1,1.65-.07l5.25,3c.42.24.37.67-.12.95l-5.2,3A1.85,1.85,0,0,1,311.53,352.75Z" fill="#173d7a"/>
            <path id="Trazado_155033" data-name="Trazado 155033" d="M319.65,357.44l-5.26-3c-.42-.24-.37-.67.12-.95l5.21-3a1.77,1.77,0,0,1,1.64-.07l5.26,3c.42.24.37.67-.12.95l-5.21,3a1.83,1.83,0,0,1-1.64.07Z" fill="#173d7a"/>
            <path id="Trazado_155034" data-name="Trazado 155034" d="M327.76,362.12l-5.25-3c-.43-.25-.37-.67.11-.95l5.21-3a1.85,1.85,0,0,1,1.65-.07l5.25,3c.42.24.37.67-.12.95l-5.2,3A1.82,1.82,0,0,1,327.76,362.12Z" fill="#173d7a"/>
            <path id="Trazado_155035" data-name="Trazado 155035" d="M335.88,366.81l-5.26-3c-.42-.24-.37-.67.12-.95l5.21-3a1.8,1.8,0,0,1,1.64-.07l5.26,3c.42.25.37.67-.12,1l-5.21,3a1.83,1.83,0,0,1-1.64.02Z" fill="#173d7a"/>
            <path id="Trazado_155036" data-name="Trazado 155036" d="M344,371.49l-5.25-3c-.43-.25-.37-.67.11-.95l5.21-3a1.85,1.85,0,0,1,1.65-.07l5.25,3c.42.24.37.67-.12.95l-5.2,3a1.79,1.79,0,0,1-1.65.07Z" fill="#173d7a"/>
            <path id="Trazado_155037" data-name="Trazado 155037" d="M352.11,376.18l-5.26-3c-.42-.24-.37-.67.12-.95l5.21-3a1.83,1.83,0,0,1,1.64-.07l5.26,3c.42.25.37.67-.12,1l-5.21,3a1.83,1.83,0,0,1-1.64.02Z" fill="#173d7a"/>
            <path id="Trazado_155038" data-name="Trazado 155038" d="M360.22,380.86l-5.25-3c-.43-.24-.37-.67.11-.95l5.21-3a1.85,1.85,0,0,1,1.65-.07l5.25,3c.42.24.37.67-.12,1l-5.2,3A1.79,1.79,0,0,1,360.22,380.86Z" fill="#173d7a"/>
            <path id="Trazado_155039" data-name="Trazado 155039" d="M282.91,327.11l-5.25-3c-.43-.24-.37-.67.11-.95l5.21-3a1.79,1.79,0,0,1,1.65-.07l5.25,3c.42.24.37.67-.12.95l-5.2,3a1.85,1.85,0,0,1-1.65.07Z" fill="#173d7a"/>
            <path id="Trazado_155040" data-name="Trazado 155040" d="M274.84,322.44l-5.26-3c-.42-.24-.37-.67.12-1l5.21-3a1.8,1.8,0,0,1,1.64-.06l5.26,3c.42.24.37.67-.12.95l-5.21,3A1.8,1.8,0,0,1,274.84,322.44Z" fill="#173d7a"/>
            <path id="Trazado_155041" data-name="Trazado 155041" d="M266.76,317.78l-5.25-3c-.43-.25-.37-.67.11-.95l5.21-3a1.85,1.85,0,0,1,1.65-.07l5.25,3c.42.24.37.67-.12.95l-5.2,3A1.82,1.82,0,0,1,266.76,317.78Z" fill="#173d7a"/>
            <path id="Trazado_155042" data-name="Trazado 155042" d="M258.69,313.12l-5.26-3c-.42-.25-.37-.67.12-.95l5.21-3a1.83,1.83,0,0,1,1.64-.07l5.26,3c.42.24.37.66-.12.95l-5.21,3a1.83,1.83,0,0,1-1.64.07Z" fill="#173d7a"/>
            <path id="Trazado_155043" data-name="Trazado 155043" d="M267,308.33l-5.26-3c-.42-.24-.36-.67.12-1l1.72-1a1.85,1.85,0,0,1,1.65-.07l5.26,3c.42.25.36.67-.12.95l-1.72,1a1.85,1.85,0,0,1-1.65.12Z" fill="#173d7a"/>
            <path id="Trazado_155044" data-name="Trazado 155044" d="M277.53,314.41l-5.26-3c-.42-.25-.37-.67.12-.95l1.72-1a1.85,1.85,0,0,1,1.65-.07l5.25,3c.43.24.37.67-.12,1l-1.72,1a1.83,1.83,0,0,1-1.64.02Z" fill="#173d7a"/>
            <path id="Trazado_155045" data-name="Trazado 155045" d="M285.57,319.05l-5.26-3c-.42-.25-.37-.67.12-.95l1.72-1a1.82,1.82,0,0,1,1.65-.06l5.25,3c.43.24.37.67-.11.95l-1.73,1a1.77,1.77,0,0,1-1.64.06Z" fill="#173d7a"/>
            <path id="Trazado_155046" data-name="Trazado 155046" d="M293.61,323.7l-5.25-3c-.43-.24-.37-.67.11-1l1.72-1a1.85,1.85,0,0,1,1.65-.07l5.26,3c.42.25.36.67-.12.95l-1.72,1A1.85,1.85,0,0,1,293.61,323.7Z" fill="#173d7a"/>
            <path id="Trazado_155047" data-name="Trazado 155047" d="M301.65,328.34l-5.25-3c-.43-.24-.37-.67.11-.95l1.73-1a1.83,1.83,0,0,1,1.64-.07l5.26,3c.42.24.37.66-.12.95l-1.72,1a1.85,1.85,0,0,1-1.65.07Z" fill="#173d7a"/>
            <path id="Trazado_155048" data-name="Trazado 155048" d="M346.54,354.26l-5.25-3c-.42-.24-.37-.67.12-1l1.72-1a1.83,1.83,0,0,1,1.64-.07l5.26,3c.42.25.37.67-.12.95l-1.72,1a1.85,1.85,0,0,1-1.65.12Z" fill="#173d7a"/>
            <path id="Trazado_155049" data-name="Trazado 155049" d="M354.59,358.9l-5.26-3c-.42-.25-.37-.67.12-1l1.72-1a1.85,1.85,0,0,1,1.65-.07l5.25,3c.42.24.37.67-.12.95l-1.72,1A1.83,1.83,0,0,1,354.59,358.9Z" fill="#173d7a"/>
            <path id="Trazado_155050" data-name="Trazado 155050" d="M362.63,363.54l-5.26-3c-.42-.25-.37-.67.12-.95l1.72-1a1.82,1.82,0,0,1,1.65-.06l5.25,3c.42.24.37.67-.12,1l-1.72,1A1.8,1.8,0,0,1,362.63,363.54Z" fill="#173d7a"/>
            <path id="Trazado_155051" data-name="Trazado 155051" d="M370.67,368.18l-5.26-3c-.42-.24-.37-.67.12-.95l1.72-1a1.79,1.79,0,0,1,1.65-.07l5.25,3c.43.25.37.67-.11.95l-1.73,1a1.8,1.8,0,0,1-1.64.07Z" fill="#173d7a"/>
            <path id="Trazado_155052" data-name="Trazado 155052" d="M291,331.79l-5.26-3c-.42-.25-.37-.67.12-.95l5.21-3a1.83,1.83,0,0,1,1.64-.07l5.26,3c.42.24.37.67-.12,1l-5.21,3a1.83,1.83,0,0,1-1.64.02Z" fill="#173d7a"/>
            <path id="Trazado_155053" data-name="Trazado 155053" d="M299.14,336.48l-5.25-3c-.43-.24-.37-.67.11-.95l5.21-3a1.79,1.79,0,0,1,1.65-.07l5.25,3c.42.25.37.67-.12.95l-5.2,3a1.85,1.85,0,0,1-1.65.07Z" fill="#173d7a"/>
            <path id="Trazado_155054" data-name="Trazado 155054" d="M307.26,341.16l-5.26-3c-.42-.25-.37-.67.12-.95l5.21-3a1.83,1.83,0,0,1,1.64-.07l5.26,3c.42.24.37.67-.12.95l-5.21,3a1.8,1.8,0,0,1-1.64.07Z" fill="#173d7a"/>
            <path id="Trazado_155055" data-name="Trazado 155055" d="M315.37,345.85l-5.25-3c-.42-.24-.37-.67.12-.95l5.2-3a1.82,1.82,0,0,1,1.65-.07l5.25,3c.43.25.37.67-.12.95l-5.2,3a1.85,1.85,0,0,1-1.65.07Z" fill="#173d7a"/>
            <path id="Trazado_155056" data-name="Trazado 155056" d="M323.49,350.53l-5.26-3c-.42-.24-.37-.67.12-.95l5.21-3a1.83,1.83,0,0,1,1.64-.07l5.26,3c.42.24.37.67-.12.95l-5.21,3a1.77,1.77,0,0,1-1.64.07Z" fill="#173d7a"/>
            <path id="Trazado_155057" data-name="Trazado 155057" d="M331.6,355.22l-5.25-3c-.42-.24-.37-.67.12-.95l5.2-3a1.85,1.85,0,0,1,1.65-.07l5.25,3c.43.25.37.67-.11.95l-5.21,3a1.85,1.85,0,0,1-1.65.07Z" fill="#173d7a"/>
            <path id="Trazado_155058" data-name="Trazado 155058" d="M339.72,359.9l-5.26-3c-.42-.24-.37-.67.12-.95l5.21-3a1.83,1.83,0,0,1,1.64-.07l5.26,3c.42.24.37.67-.12.95l-5.21,3A1.8,1.8,0,0,1,339.72,359.9Z" fill="#173d7a"/>
            <path id="Trazado_155059" data-name="Trazado 155059" d="M347.83,364.59l-5.25-3c-.42-.24-.37-.66.12-.95l5.2-3a1.85,1.85,0,0,1,1.65-.07l5.25,3c.43.25.37.67-.11.95l-5.21,3a1.85,1.85,0,0,1-1.65.07Z" fill="#173d7a"/>
            <path id="Trazado_155060" data-name="Trazado 155060" d="M356,369.27l-5.26-3c-.42-.24-.37-.67.12-.95l5.21-3a1.8,1.8,0,0,1,1.64-.06l5.26,3c.42.24.37.67-.12.95l-5.21,3a1.8,1.8,0,0,1-1.64.06Z" fill="#173d7a"/>
            <path id="Trazado_155061" data-name="Trazado 155061" d="M244.63,332.37l-15.48-8.94c-.42-.24-.37-.66.12-.95l5.21-3a1.83,1.83,0,0,1,1.64-.07l15.48,8.93c.42.25.37.67-.12,1l-5.2,3a1.85,1.85,0,0,1-1.65.03Z" fill="#173d7a"/>
            <path id="Trazado_155062" data-name="Trazado 155062" d="M344.33,389.93,328.85,381c-.42-.24-.37-.66.12-.95l5.21-3a1.83,1.83,0,0,1,1.64-.07l15.48,8.94c.42.24.37.66-.12.95l-5.21,3a1.83,1.83,0,0,1-1.64.06Z" fill="#173d7a"/>
            <path id="Trazado_155063" data-name="Trazado 155063" d="M311.87,381.54l-5.25-3c-.42-.25-.37-.67.12-.95l6.2-3.58a1.85,1.85,0,0,1,1.65-.07l5.25,3c.42.25.37.67-.12.95l-6.2,3.58a1.79,1.79,0,0,1-1.65.07Z" fill="#173d7a"/>
            <path id="Trazado_155064" data-name="Trazado 155064" d="M252.94,347.52l-8.4-4.85c-.43-.25-.37-.67.11-1l6.21-3.58a1.8,1.8,0,0,1,1.64-.06l8.41,4.85c.42.24.37.67-.12.95l-6.2,3.58a1.85,1.85,0,0,1-1.65.11Z" fill="#173d7a"/>
            <path id="Trazado_155065" data-name="Trazado 155065" d="M304.05,377l-8.4-4.85c-.42-.25-.37-.67.12-.95l6.2-3.59a1.82,1.82,0,0,1,1.65-.06l8.4,4.85c.42.24.37.67-.12.95L305.7,377A1.85,1.85,0,0,1,304.05,377Z" fill="#173d7a"/>
            <path id="Trazado_155066" data-name="Trazado 155066" d="M264.65,354.28l-8.4-4.85c-.43-.25-.37-.67.11-1l6.21-3.58a1.8,1.8,0,0,1,1.64-.06l8.41,4.85c.42.24.37.67-.12.95l-6.2,3.58a1.85,1.85,0,0,1-1.65.11Z" fill="#173d7a"/>
            <path id="Trazado_155067" data-name="Trazado 155067" d="M264.27,344.86,300.81,366c.45.27.45.69,0,.95l-6.33,3.65a1.76,1.76,0,0,1-1.64,0L256.3,349.46Z" fill="#173d7a"/>
            <path id="Trazado_155068" data-name="Trazado 155068" d="M334.55,390l5.86,3.38c.34.2.3.55-.1.78l-2.54,1.46a1.5,1.5,0,0,1-1.35.06l-5.85-3.38c-.34-.2-.3-.55.1-.78l2.54-1.47a1.48,1.48,0,0,1,1.34-.05Z" fill="#173d7a"/>
            <path id="Trazado_155069" data-name="Trazado 155069" d="M326.37,385.31l5.86,3.38c.34.2.3.55-.1.78l-2.54,1.47a1.5,1.5,0,0,1-1.35.05l-5.85-3.38c-.35-.2-.3-.55.1-.78l2.53-1.46A1.5,1.5,0,0,1,326.37,385.31Z" fill="#173d7a"/>
            <path id="Trazado_155070" data-name="Trazado 155070" d="M318.26,380.63l5.85,3.38c.35.2.3.55-.1.78l-2.53,1.46a1.5,1.5,0,0,1-1.35.06l-5.86-3.38c-.34-.2-.3-.55.1-.78l2.54-1.47A1.5,1.5,0,0,1,318.26,380.63Z" fill="#173d7a"/>
            <path id="Trazado_155071" data-name="Trazado 155071" d="M330.85,382.73l5.86,3.38c.34.19.3.54-.1.77l-2.54,1.47a1.53,1.53,0,0,1-1.35.06L326.87,385c-.35-.2-.3-.55.1-.78l2.53-1.47a1.5,1.5,0,0,1,1.35-.02Z" fill="#173d7a"/>
          </g>
        </g>
        <g id="Grupo_85949" data-name="Grupo 85949">
          <g id="Grupo_85947" data-name="Grupo 85947">
            <path id="Trazado_155072" data-name="Trazado 155072" d="M320.1,239.11l-7.76-4.49a2.21,2.21,0,0,1-.95-2.3h0a1.08,1.08,0,0,1,1.66-.79l7.77,4.48a2.22,2.22,0,0,1,.94,2.3h0a1.08,1.08,0,0,1-1.66.8Z" fill="#d4ecff"/>
            <path id="Trazado_155073" data-name="Trazado 155073" d="M338.6,249.79l-11.45-6.62a2.2,2.2,0,0,1-.95-2.29h0a1.08,1.08,0,0,1,1.66-.8l11.45,6.61a2.22,2.22,0,0,1,.95,2.3h0a1.08,1.08,0,0,1-1.66.8Z" fill="#d4ecff"/>
            <path id="Trazado_155074" data-name="Trazado 155074" d="M306.56,275.35l-7.76-4.48a2.21,2.21,0,0,1-.95-2.3h0a1.08,1.08,0,0,1,1.66-.79l7.77,4.48a2.24,2.24,0,0,1,1,2.3h0a1.08,1.08,0,0,1-1.72.79Z" fill="#d4ecff"/>
            <path id="Trazado_155075" data-name="Trazado 155075" d="M323.05,284.88l-11.45-6.62a2.2,2.2,0,0,1-.94-2.3h0a1.08,1.08,0,0,1,1.66-.79l11.45,6.61a2.24,2.24,0,0,1,1,2.3h0a1.09,1.09,0,0,1-1.72.8Z" fill="#d4ecff"/>
            <path id="Trazado_155076" data-name="Trazado 155076" d="M297.19,233.22l-4.85-2.8a2.23,2.23,0,0,1-.95-2.3h0a1.09,1.09,0,0,1,1.67-.79l4.85,2.8a2.22,2.22,0,0,1,.94,2.3h0a1.08,1.08,0,0,1-1.66.79Z" fill="#d4ecff"/>
            <path id="Trazado_155077" data-name="Trazado 155077" d="M312.14,249.2l-14.82-8.56a2.23,2.23,0,0,1-.95-2.3h0a1.09,1.09,0,0,1,1.67-.79l14.82,8.56a2.23,2.23,0,0,1,.95,2.3h0a1.09,1.09,0,0,1-1.67.79Z" fill="#d4ecff"/>
            <path id="Trazado_155078" data-name="Trazado 155078" d="M299.18,256.4l-4.85-2.8a2.23,2.23,0,0,1-.95-2.3h0a1.08,1.08,0,0,1,1.66-.79l4.86,2.8a2.22,2.22,0,0,1,.94,2.3h0a1.08,1.08,0,0,1-1.66.79Z" fill="#d4ecff"/>
            <path id="Trazado_155079" data-name="Trazado 155079" d="M325.55,301l-13-7.48a2.2,2.2,0,0,1-.94-2.3h0a1.08,1.08,0,0,1,1.66-.79l12.95,7.48a2.22,2.22,0,0,1,.95,2.3h0a1.07,1.07,0,0,1-1.62.79Z" fill="#d4ecff"/>
            <path id="Trazado_155080" data-name="Trazado 155080" d="M294.45,268.36l-3.11-1.8a2.21,2.21,0,0,1-.95-2.3h0a1.08,1.08,0,0,1,1.66-.79l3.12,1.8a2.2,2.2,0,0,1,.94,2.3h0a1.08,1.08,0,0,1-1.66.79Z" fill="#d4ecff"/>
            <path id="Trazado_155081" data-name="Trazado 155081" d="M292.21,281.76l-3.86-2.24a2.2,2.2,0,0,1-1-2.29h0a1.08,1.08,0,0,1,1.66-.8l3.87,2.23a2.24,2.24,0,0,1,.95,2.3h0a1.09,1.09,0,0,1-1.62.8Z" fill="#d4ecff"/>
            <path id="Trazado_155082" data-name="Trazado 155082" d="M307.26,290.44l-10.2-5.88a2.24,2.24,0,0,1-.95-2.3h0a1.09,1.09,0,0,1,1.67-.8L308,287.35a2.22,2.22,0,0,1,.95,2.3h0a1.08,1.08,0,0,1-1.69.79Z" fill="#d4ecff"/>
            <path id="Trazado_155083" data-name="Trazado 155083" d="M294.18,290.24,286.85,286a2.24,2.24,0,0,1-1-2.3h0a1.08,1.08,0,0,1,1.66-.8l7.34,4.23a2.22,2.22,0,0,1,.94,2.3h0a1.08,1.08,0,0,1-1.61.81Z" fill="#d4ecff"/>
            <path id="Trazado_155084" data-name="Trazado 155084" d="M336.67,307.46,332,304.74a2.24,2.24,0,0,1-.95-2.3h0a1.08,1.08,0,0,1,1.66-.8l4.71,2.72a2.22,2.22,0,0,1,.95,2.3h0a1.08,1.08,0,0,1-1.7.8Z" fill="#d4ecff"/>
            <path id="Trazado_155085" data-name="Trazado 155085" d="M317.23,266.82l-13-7.48a2.23,2.23,0,0,1-.95-2.3h0a1.08,1.08,0,0,1,1.66-.79l13,7.48a2.22,2.22,0,0,1,.95,2.3h0a1.08,1.08,0,0,1-1.66.79Z" fill="#d4ecff"/>
            <path id="Trazado_155086" data-name="Trazado 155086" d="M318.41,260.16l-22.58-13a2.21,2.21,0,0,1-.95-2.3h0a1.08,1.08,0,0,1,1.66-.79l22.58,13a2.21,2.21,0,0,1,.95,2.3h0a1.08,1.08,0,0,1-1.66.79Z" fill="#d4ecff"/>
            <path id="Trazado_155087" data-name="Trazado 155087" d="M305.79,267.56l-13-7.48a2.2,2.2,0,0,1-.94-2.3h0a1.08,1.08,0,0,1,1.66-.79l13,7.48a2.22,2.22,0,0,1,.94,2.3h0a1.07,1.07,0,0,1-1.66.79Z" fill="#d4ecff"/>
            <path id="Trazado_155088" data-name="Trazado 155088" d="M327.05,272.5l-4.7-2.72a2.22,2.22,0,0,1-1-2.3h0a1.08,1.08,0,0,1,1.66-.79l4.71,2.71a2.24,2.24,0,0,1,1,2.3h0a1.09,1.09,0,0,1-1.67.8Z" fill="#d4ecff"/>
            <path id="Trazado_155089" data-name="Trazado 155089" d="M373.53,270l-27.88-16.1a2.2,2.2,0,0,1-.95-2.29h0a1.08,1.08,0,0,1,1.66-.8l27.88,16.1a2.23,2.23,0,0,1,.95,2.3h0a1.08,1.08,0,0,1-1.66.79Z" fill="#d4ecff"/>
            <path id="Trazado_155090" data-name="Trazado 155090" d="M305.42,282l-15.58-9a2.2,2.2,0,0,1-.94-2.3h0a1.08,1.08,0,0,1,1.66-.79l15.57,9a2.22,2.22,0,0,1,.95,2.3h0a1.08,1.08,0,0,1-1.66.79Z" fill="#d4ecff"/>
            <path id="Trazado_155091" data-name="Trazado 155091" d="M305.29,230.55l-11.45-6.61a2.21,2.21,0,0,1-.95-2.3h0a1.08,1.08,0,0,1,1.66-.79L306,227.46a2.22,2.22,0,0,1,.95,2.3h0a1.08,1.08,0,0,1-1.66.79Z" fill="#d4ecff"/>
            <path id="Trazado_155092" data-name="Trazado 155092" d="M292.14,296.4l-13.26-7.65a2.22,2.22,0,0,1-.95-2.3h0a1.08,1.08,0,0,1,1.66-.8l13.26,7.66a2.21,2.21,0,0,1,.95,2.3h0a1.08,1.08,0,0,1-1.66.79Z" fill="#d4ecff"/>
          </g>
          <g id="Grupo_85948" data-name="Grupo 85948">
            <path id="Trazado_155093" data-name="Trazado 155093" d="M381.89,324.36l-7.76-4.49a2.21,2.21,0,0,1-.95-2.3h0a1.08,1.08,0,0,1,1.66-.79l7.77,4.48a2.22,2.22,0,0,1,.94,2.3h0a1.08,1.08,0,0,1-1.66.8Z" fill="#d4ecff"/>
            <path id="Trazado_155094" data-name="Trazado 155094" d="M387.47,298.2l-14.82-8.56a2.21,2.21,0,0,1-.95-2.3h0a1.08,1.08,0,0,1,1.66-.79l14.83,8.56a2.2,2.2,0,0,1,.94,2.3h0a1.08,1.08,0,0,1-1.66.79Z" fill="#d4ecff"/>
            <path id="Trazado_155095" data-name="Trazado 155095" d="M374.51,305.4l-4.85-2.8a2.21,2.21,0,0,1-1-2.3h0a1.08,1.08,0,0,1,1.66-.79l4.85,2.8a2.22,2.22,0,0,1,.95,2.3h0a1.07,1.07,0,0,1-1.61.79Z" fill="#d4ecff"/>
            <path id="Trazado_155096" data-name="Trazado 155096" d="M369.78,317.36l-3.11-1.8a2.2,2.2,0,0,1-.95-2.29h0a1.08,1.08,0,0,1,1.66-.8l3.11,1.8a2.22,2.22,0,0,1,.95,2.3h0a1.08,1.08,0,0,1-1.66.79Z" fill="#d4ecff"/>
            <path id="Trazado_155097" data-name="Trazado 155097" d="M392.55,315.82l-12.95-7.48a2.21,2.21,0,0,1-1-2.3h0a1.08,1.08,0,0,1,1.66-.79l13,7.48a2.24,2.24,0,0,1,1,2.3h0a1.09,1.09,0,0,1-1.71.79Z" fill="#d4ecff"/>
            <path id="Trazado_155098" data-name="Trazado 155098" d="M393.74,309.16l-22.59-13a2.2,2.2,0,0,1-.94-2.3h0a1.08,1.08,0,0,1,1.66-.79l22.58,13a2.22,2.22,0,0,1,.95,2.3h0a1.08,1.08,0,0,1-1.66.79Z" fill="#d4ecff"/>
            <path id="Trazado_155099" data-name="Trazado 155099" d="M381.12,316.57l-13-7.49a2.23,2.23,0,0,1-1-2.3h0a1.09,1.09,0,0,1,1.67-.79l12.95,7.48a2.22,2.22,0,0,1,.95,2.3h0a1.08,1.08,0,0,1-1.57.8Z" fill="#d4ecff"/>
            <path id="Trazado_155100" data-name="Trazado 155100" d="M380.75,331l-15.58-9a2.24,2.24,0,0,1-.95-2.3h0a1.08,1.08,0,0,1,1.66-.8l15.58,9a2.22,2.22,0,0,1,1,2.29h0a1.08,1.08,0,0,1-1.71.81Z" fill="#d4ecff"/>
          </g>
        </g>
      </g>
    </g>
  </g>
</svg>
