<svg xmlns="http://www.w3.org/2000/svg" xmlns:xlink="http://www.w3.org/1999/xlink" width="530.52" height="493.565" viewBox="0 0 530.52 493.565">
  <defs>
    <clipPath id="clip-path">
      <path id="Trazado_155634" data-name="Trazado 155634" d="M186.54,279.65,107.41,234c-2.18-1.26-3.44-4.6-2.81-7.45l12.54-57.09c.63-2.86,2.9-4.16,5.08-2.9l79.14,45.67c2.18,1.25,3.43,4.59,2.8,7.45l-12.54,57.09C191,279.62,188.72,280.91,186.54,279.65Z" fill="none"/>
    </clipPath>
  </defs>
  <g id="img9" transform="translate(-34.88 -13.36)">
    <g id="Capa_1" data-name="Capa 1">
      <rect id="Rectángulo_36860" data-name="Rectángulo 36860" width="112.43" height="69.62" rx="12" transform="translate(452.97 245.04)" fill="#ffecb1"/>
      <g id="Grupo">
        <path id="Trazado_160540" data-name="Trazado 160540" d="M7.225-3.419q.185-1.046-1.028-1.6L4.5-5.7Q1.547-7.014,1.7-9.325a3.334,3.334,0,0,1,.7-1.9,4.227,4.227,0,0,1,1.8-1.3,6.379,6.379,0,0,1,2.5-.453,4.34,4.34,0,0,1,3,1.1,3.676,3.676,0,0,1,1.125,2.861H8.262a1.831,1.831,0,0,0-.382-1.354,1.722,1.722,0,0,0-1.323-.5,2.667,2.667,0,0,0-1.529.4,1.641,1.641,0,0,0-.773,1.147Q4.087-8.358,5.537-7.8l1.16.439.668.308q2.593,1.283,2.426,3.6A3.477,3.477,0,0,1,9.066-1.49,4.088,4.088,0,0,1,7.308-.229,6.261,6.261,0,0,1,4.86.185,5.483,5.483,0,0,1,2.435-.387,3.767,3.767,0,0,1,.817-1.925,3.983,3.983,0,0,1,.334-4.034l2.575.009Q2.786-1.942,4.957-1.907A2.69,2.69,0,0,0,6.5-2.32,1.608,1.608,0,0,0,7.225-3.419ZM15.363.176a4.137,4.137,0,0,1-2.21-.611,3.7,3.7,0,0,1-1.437-1.652A4.605,4.605,0,0,1,11.347-4.4l.026-.352A6.148,6.148,0,0,1,12.182-7.3a4.884,4.884,0,0,1,1.74-1.789,4.306,4.306,0,0,1,2.355-.593,3.29,3.29,0,0,1,2.782,1.351A4.631,4.631,0,0,1,19.775-5L19.635-3.92H13.808a2.041,2.041,0,0,0,.448,1.477,1.711,1.711,0,0,0,1.318.571,3.041,3.041,0,0,0,2.373-1.055l1.134,1.406A3.527,3.527,0,0,1,17.534-.259,5.059,5.059,0,0,1,15.363.176Zm.791-7.813a1.761,1.761,0,0,0-1.217.431,3.784,3.784,0,0,0-.954,1.556h3.41l.053-.229a2.33,2.33,0,0,0,.009-.668,1.276,1.276,0,0,0-.431-.8A1.35,1.35,0,0,0,16.154-7.638Zm10.731.51a5.117,5.117,0,0,0-.835-.088,2.4,2.4,0,0,0-2.1.993L22.852,0H20.373l1.652-9.51,2.329-.009-.229,1.16A2.615,2.615,0,0,1,26.341-9.7a3.615,3.615,0,0,1,.861.123Zm4.1,3.99L33.7-9.51h2.672L31.772,0H29.4L27.773-9.51h2.514ZM38.522,0h-2.5l2.347-13.5H40.86Zm6.618.176a4.137,4.137,0,0,1-2.21-.611,3.7,3.7,0,0,1-1.437-1.652A4.605,4.605,0,0,1,41.124-4.4l.026-.352A6.148,6.148,0,0,1,41.959-7.3,4.884,4.884,0,0,1,43.7-9.092a4.306,4.306,0,0,1,2.355-.593,3.29,3.29,0,0,1,2.782,1.351A4.631,4.631,0,0,1,49.553-5L49.412-3.92H43.585a2.041,2.041,0,0,0,.448,1.477,1.711,1.711,0,0,0,1.318.571,3.041,3.041,0,0,0,2.373-1.055l1.134,1.406A3.527,3.527,0,0,1,47.312-.259,5.059,5.059,0,0,1,45.141.176Zm.791-7.813a1.761,1.761,0,0,0-1.217.431,3.784,3.784,0,0,0-.954,1.556h3.41l.053-.229a2.33,2.33,0,0,0,.009-.668,1.276,1.276,0,0,0-.431-.8A1.35,1.35,0,0,0,45.932-7.638Zm9.246-4.21L54.765-9.51h1.582l-.325,1.863H54.439l-.809,4.764a1.211,1.211,0,0,0,.07.686q.123.237.6.255.141.009.756-.044L54.879-.044a4.169,4.169,0,0,1-1.424.2,2.234,2.234,0,0,1-1.819-.765,2.763,2.763,0,0,1-.492-2.021l.817-5.019H50.616l.325-1.863h1.345l.4-2.338Z" transform="translate(482.47 273.36)" fill="#12263f"/>
        <path id="Trazado_160541" data-name="Trazado 160541" d="M3.551-4.509,2.76,0H.185L2.408-12.8l4.482.009a4.484,4.484,0,0,1,3.261,1.151,3.57,3.57,0,0,1,1.037,3.006A4.041,4.041,0,0,1,9.62-5.625,5.709,5.709,0,0,1,5.977-4.5Zm.36-2.136,2.145.018a2.711,2.711,0,0,0,1.723-.536A2.157,2.157,0,0,0,8.6-8.613,1.852,1.852,0,0,0,8.3-10.072a1.6,1.6,0,0,0-1.261-.58l-2.426-.009Zm13.975-.483a5.117,5.117,0,0,0-.835-.088,2.4,2.4,0,0,0-2.1.993L13.852,0H11.373l1.652-9.51,2.329-.009-.229,1.16A2.615,2.615,0,0,1,17.341-9.7a3.615,3.615,0,0,1,.861.123Zm5.071-2.558a3.814,3.814,0,0,1,2.167.646,3.638,3.638,0,0,1,1.336,1.731,5.357,5.357,0,0,1,.3,2.448,5.786,5.786,0,0,1-1.578,3.669,4.455,4.455,0,0,1-3.4,1.367,3.8,3.8,0,0,1-2.145-.637A3.624,3.624,0,0,1,18.308-2.18,5.239,5.239,0,0,1,18-4.605,5.957,5.957,0,0,1,19.6-8.35,4.363,4.363,0,0,1,22.957-9.686Zm-2.5,5.979a2.194,2.194,0,0,0,.4,1.33,1.314,1.314,0,0,0,1.063.5A1.926,1.926,0,0,0,23.7-2.921a5.227,5.227,0,0,0,.606-2.848A2.387,2.387,0,0,0,23.9-7.116a1.293,1.293,0,0,0-1.068-.522A1.929,1.929,0,0,0,21.063-6.6,5.173,5.173,0,0,0,20.452-3.706Zm7.5-1.057a6.58,6.58,0,0,1,1.437-3.582,3.647,3.647,0,0,1,2.958-1.349,2.667,2.667,0,0,1,2.268,1.1l.325-.923,2.276.009L35.657-.325A4.481,4.481,0,0,1,34.04,2.681a5.03,5.03,0,0,1-3.375,1.072,4.689,4.689,0,0,1-1.881-.426,4.022,4.022,0,0,1-1.477-1.121L28.538.694a2.642,2.642,0,0,0,2.074,1.081,2.436,2.436,0,0,0,1.652-.505A2.7,2.7,0,0,0,33.2-.255l.141-.571a3.092,3.092,0,0,1-2.329,1A2.732,2.732,0,0,1,28.8-.857a4.44,4.44,0,0,1-.9-2.641A8.876,8.876,0,0,1,27.949-4.764Zm2.435,1.043A2.273,2.273,0,0,0,30.731-2.4a1.215,1.215,0,0,0,1.006.524,2.219,2.219,0,0,0,1.793-.863l.738-4.031a1.458,1.458,0,0,0-1.4-.863,1.944,1.944,0,0,0-1.608.766,4.006,4.006,0,0,0-.826,2.1A9.241,9.241,0,0,0,30.384-3.721ZM44.042-7.128a5.117,5.117,0,0,0-.835-.088,2.4,2.4,0,0,0-2.1.993L40.008,0H37.529l1.652-9.51,2.329-.009-.229,1.16A2.615,2.615,0,0,1,43.5-9.7a3.615,3.615,0,0,1,.861.123ZM49.228,0a2.566,2.566,0,0,1-.1-.861A3.221,3.221,0,0,1,46.705.176a2.919,2.919,0,0,1-2.07-.813A2.46,2.46,0,0,1,43.866-2.6a2.843,2.843,0,0,1,1.305-2.386,5.924,5.924,0,0,1,3.335-.831l1.16.018.123-.571a1.984,1.984,0,0,0,.026-.554.952.952,0,0,0-.312-.646,1.075,1.075,0,0,0-.708-.242,1.514,1.514,0,0,0-.984.286,1.384,1.384,0,0,0-.519.875l-2.487.009a2.764,2.764,0,0,1,1.252-2.21A4.851,4.851,0,0,1,49-9.686a3.507,3.507,0,0,1,2.531.962,2.816,2.816,0,0,1,.765,2.386l-.729,4.553-.044.563a2.714,2.714,0,0,0,.149,1.055L51.662,0ZM47.32-1.749a2.27,2.27,0,0,0,1.872-.932L49.5-4.324l-.861-.009a2.406,2.406,0,0,0-1.978.835,1.454,1.454,0,0,0-.272.712.844.844,0,0,0,.2.751A1,1,0,0,0,47.32-1.749Zm9.809-7.77-.2,1.081a3.5,3.5,0,0,1,2.786-1.248,2.676,2.676,0,0,1,1.459.4,1.889,1.889,0,0,1,.782,1.046,3.662,3.662,0,0,1,2.953-1.45,2.391,2.391,0,0,1,1.973.9,3.68,3.68,0,0,1,.558,2.514l-.018.22L66.41,0H63.923l1.011-6.08a4.4,4.4,0,0,0,.026-.607.942.942,0,0,0-1.055-.95,2.093,2.093,0,0,0-1.749,1.091l-.026.2L61.022,0H58.544l1.011-6.056a4.386,4.386,0,0,0,.026-.606.94.94,0,0,0-1.046-.958,2.1,2.1,0,0,0-1.7.888L55.652,0H53.174l1.644-9.51Z" transform="translate(476.15 294.96)" fill="#12263f"/>
      </g>
      <g id="Grupo_86020" data-name="Grupo 86020">
        <line id="Línea_487" data-name="Línea 487" y2="30.1" transform="translate(510.93 332.11)" fill="none" stroke="#024e73" stroke-miterlimit="10" stroke-width="2"/>
        <path id="Trazado_155442" data-name="Trazado 155442" d="M507.24,333.19l3.69-6.39,3.69,6.39Z" fill="#024e73"/>
        <path id="Trazado_155443" data-name="Trazado 155443" d="M507.24,361.13l3.69,6.39,3.69-6.39Z" fill="#024e73"/>
      </g>
      <g id="Grupo_86021" data-name="Grupo 86021">
        <line id="Línea_488" data-name="Línea 488" y2="30.1" transform="translate(510.93 203.57)" fill="none" stroke="#024e73" stroke-miterlimit="10" stroke-width="2"/>
        <path id="Trazado_155444" data-name="Trazado 155444" d="M507.24,204.65l3.69-6.39,3.69,6.39Z" fill="#024e73"/>
        <path id="Trazado_155445" data-name="Trazado 155445" d="M507.24,232.59l3.69,6.39,3.69-6.39Z" fill="#024e73"/>
      </g>
      <g id="Grupo_86022" data-name="Grupo 86022">
        <path id="Trazado_155446" data-name="Trazado 155446" d="M456.94,96.39H369.1V222.78H247.12" fill="none" stroke="#024e73" stroke-miterlimit="10" stroke-width="2"/>
        <path id="Trazado_155447" data-name="Trazado 155447" d="M455.86,92.7l6.39,3.69-6.39,3.69Z" fill="#024e73"/>
        <path id="Trazado_155448" data-name="Trazado 155448" d="M248.2,219.09l-6.39,3.68,6.39,3.69Z" fill="#024e73"/>
      </g>
      <g id="Grupo-2" data-name="Grupo">
        <path id="Trazado_160535" data-name="Trazado 160535" d="M11.558,0H8.921V-5.484H3.779V0H1.143V-12.8H3.779v5.186H8.921V-12.8h2.637Zm11.5-10.661h-3.92V0H16.5V-10.661H12.634V-12.8H23.058Zm11.1,0h-3.92V0H27.6V-10.661H23.731V-12.8H34.155Zm3.96,6.152V0H35.478V-12.8H40.47a5.776,5.776,0,0,1,2.536.527,3.886,3.886,0,0,1,1.683,1.5,4.178,4.178,0,0,1,.589,2.21A3.674,3.674,0,0,1,43.99-5.594a5.363,5.363,0,0,1-3.564,1.085Zm0-2.136H40.47a2.316,2.316,0,0,0,1.6-.492,1.79,1.79,0,0,0,.549-1.406,2.111,2.111,0,0,0-.554-1.521,2.068,2.068,0,0,0-1.529-.6H38.114Z" transform="translate(286.7 179.57)" fill="#12263f"/>
        <path id="Trazado_160534" data-name="Trazado 160534" d="M3.551-4.509,2.76,0H.185L2.408-12.8l4.482.009a4.484,4.484,0,0,1,3.261,1.151,3.57,3.57,0,0,1,1.037,3.006A4.041,4.041,0,0,1,9.62-5.625,5.709,5.709,0,0,1,5.977-4.5Zm.36-2.136,2.145.018a2.711,2.711,0,0,0,1.723-.536A2.157,2.157,0,0,0,8.6-8.613,1.852,1.852,0,0,0,8.3-10.072a1.6,1.6,0,0,0-1.261-.58l-2.426-.009Zm13.975-.483a5.117,5.117,0,0,0-.835-.088,2.4,2.4,0,0,0-2.1.993L13.852,0H11.373l1.652-9.51,2.329-.009-.229,1.16A2.615,2.615,0,0,1,17.341-9.7a3.615,3.615,0,0,1,.861.123Zm5.071-2.558a3.814,3.814,0,0,1,2.167.646,3.638,3.638,0,0,1,1.336,1.731,5.357,5.357,0,0,1,.3,2.448,5.786,5.786,0,0,1-1.578,3.669,4.455,4.455,0,0,1-3.4,1.367,3.8,3.8,0,0,1-2.145-.637A3.624,3.624,0,0,1,18.308-2.18,5.239,5.239,0,0,1,18-4.605,5.957,5.957,0,0,1,19.6-8.35,4.363,4.363,0,0,1,22.957-9.686Zm-2.5,5.979a2.194,2.194,0,0,0,.4,1.33,1.314,1.314,0,0,0,1.063.5A1.926,1.926,0,0,0,23.7-2.921a5.227,5.227,0,0,0,.606-2.848A2.387,2.387,0,0,0,23.9-7.116a1.293,1.293,0,0,0-1.068-.522A1.929,1.929,0,0,0,21.063-6.6,5.173,5.173,0,0,0,20.452-3.706ZM32.5-11.848,32.089-9.51h1.582l-.325,1.863H31.764l-.809,4.764a1.211,1.211,0,0,0,.07.686q.123.237.6.255.141.009.756-.044L32.2-.044a4.169,4.169,0,0,1-1.424.2A2.234,2.234,0,0,1,28.96-.606a2.763,2.763,0,0,1-.492-2.021l.817-5.019H27.94l.325-1.863H29.61l.4-2.338Zm6.135,2.162A3.814,3.814,0,0,1,40.8-9.04a3.638,3.638,0,0,1,1.336,1.731,5.357,5.357,0,0,1,.3,2.448,5.786,5.786,0,0,1-1.578,3.669,4.455,4.455,0,0,1-3.4,1.367,3.8,3.8,0,0,1-2.145-.637A3.624,3.624,0,0,1,33.987-2.18a5.239,5.239,0,0,1-.308-2.426,5.957,5.957,0,0,1,1.6-3.744A4.363,4.363,0,0,1,38.637-9.686Zm-2.5,5.979a2.194,2.194,0,0,0,.4,1.33,1.314,1.314,0,0,0,1.063.5,1.926,1.926,0,0,0,1.793-1.049,5.227,5.227,0,0,0,.606-2.848,2.387,2.387,0,0,0-.409-1.347,1.293,1.293,0,0,0-1.068-.522A1.929,1.929,0,0,0,36.743-6.6,5.173,5.173,0,0,0,36.132-3.706ZM47.32-1.863a1.628,1.628,0,0,0,1.143-.374,1.836,1.836,0,0,0,.6-1.042l2.329-.009a3.416,3.416,0,0,1-.628,1.8A3.818,3.818,0,0,1,49.25-.237a4.327,4.327,0,0,1-1.991.422,3.514,3.514,0,0,1-2.742-1.2,4.461,4.461,0,0,1-.976-3.111l.026-.483.009-.1A5.945,5.945,0,0,1,45.141-8.38a4.231,4.231,0,0,1,3.278-1.305,3.428,3.428,0,0,1,2.553,1.05A3.71,3.71,0,0,1,51.9-5.959H49.588a1.947,1.947,0,0,0-.334-1.2,1.269,1.269,0,0,0-1-.475Q46.477-7.69,46.1-5.045A8.755,8.755,0,0,0,46-3.428Q46.09-1.89,47.32-1.863ZM57.788-9.686a3.814,3.814,0,0,1,2.167.646,3.638,3.638,0,0,1,1.336,1.731,5.357,5.357,0,0,1,.3,2.448,5.786,5.786,0,0,1-1.578,3.669,4.455,4.455,0,0,1-3.4,1.367,3.8,3.8,0,0,1-2.145-.637A3.624,3.624,0,0,1,53.139-2.18a5.239,5.239,0,0,1-.308-2.426,5.957,5.957,0,0,1,1.6-3.744A4.363,4.363,0,0,1,57.788-9.686Zm-2.5,5.979a2.194,2.194,0,0,0,.4,1.33,1.314,1.314,0,0,0,1.063.5,1.926,1.926,0,0,0,1.793-1.049,5.227,5.227,0,0,0,.606-2.848,2.387,2.387,0,0,0-.409-1.347,1.293,1.293,0,0,0-1.068-.522A1.929,1.929,0,0,0,55.894-6.6,5.173,5.173,0,0,0,55.283-3.706ZM64.925,0h-2.5l2.347-13.5h2.487Z" transform="translate(275.76 201.17)" fill="#12263f"/>
      </g>
      <g id="Grupo-3" data-name="Grupo">
        <path id="Trazado_160539" data-name="Trazado 160539" d="M11.558,0H8.921V-5.484H3.779V0H1.143V-12.8H3.779v5.186H8.921V-12.8h2.637Z" transform="translate(491.55 174.6)" fill="#12263f"/>
        <path id="Trazado_160536" data-name="Trazado 160536" d="M10.775-10.661H6.855V0H4.219V-10.661H.352V-12.8H10.775Z" transform="translate(504.01 174.6)" fill="#12263f"/>
        <path id="Trazado_160537" data-name="Trazado 160537" d="M10.775-10.661H6.855V0H4.219V-10.661H.352V-12.8H10.775Zm4.14,6.152V0H12.278V-12.8h4.992a5.776,5.776,0,0,1,2.536.527,3.886,3.886,0,0,1,1.683,1.5,4.178,4.178,0,0,1,.589,2.21,3.674,3.674,0,0,1-1.288,2.966,5.363,5.363,0,0,1-3.564,1.085Zm0-2.136h2.355a2.316,2.316,0,0,0,1.6-.492,1.79,1.79,0,0,0,.549-1.406,2.111,2.111,0,0,0-.554-1.521,2.068,2.068,0,0,0-1.529-.6H14.915Z" transform="translate(515.29 174.6)" fill="#12263f"/>
        <path id="Trazado_160538" data-name="Trazado 160538" d="M7.225-3.419q.185-1.046-1.028-1.6L4.5-5.7Q1.547-7.014,1.7-9.325a3.334,3.334,0,0,1,.7-1.9,4.227,4.227,0,0,1,1.8-1.3,6.379,6.379,0,0,1,2.5-.453,4.34,4.34,0,0,1,3,1.1,3.676,3.676,0,0,1,1.125,2.861H8.262a1.831,1.831,0,0,0-.382-1.354,1.722,1.722,0,0,0-1.323-.5,2.667,2.667,0,0,0-1.529.4,1.641,1.641,0,0,0-.773,1.147Q4.087-8.358,5.537-7.8l1.16.439.668.308q2.593,1.283,2.426,3.6A3.477,3.477,0,0,1,9.066-1.49,4.088,4.088,0,0,1,7.308-.229,6.261,6.261,0,0,1,4.86.185,5.483,5.483,0,0,1,2.435-.387,3.767,3.767,0,0,1,.817-1.925,3.983,3.983,0,0,1,.334-4.034l2.575.009Q2.786-1.942,4.957-1.907A2.69,2.69,0,0,0,6.5-2.32,1.608,1.608,0,0,0,7.225-3.419ZM15.363.176a4.137,4.137,0,0,1-2.21-.611,3.7,3.7,0,0,1-1.437-1.652A4.605,4.605,0,0,1,11.347-4.4l.026-.352A6.148,6.148,0,0,1,12.182-7.3a4.884,4.884,0,0,1,1.74-1.789,4.306,4.306,0,0,1,2.355-.593,3.29,3.29,0,0,1,2.782,1.351A4.631,4.631,0,0,1,19.775-5L19.635-3.92H13.808a2.041,2.041,0,0,0,.448,1.477,1.711,1.711,0,0,0,1.318.571,3.041,3.041,0,0,0,2.373-1.055l1.134,1.406A3.527,3.527,0,0,1,17.534-.259,5.059,5.059,0,0,1,15.363.176Zm.791-7.813a1.761,1.761,0,0,0-1.217.431,3.784,3.784,0,0,0-.954,1.556h3.41l.053-.229a2.33,2.33,0,0,0,.009-.668,1.276,1.276,0,0,0-.431-.8A1.35,1.35,0,0,0,16.154-7.638Zm10.731.51a5.117,5.117,0,0,0-.835-.088,2.4,2.4,0,0,0-2.1.993L22.852,0H20.373l1.652-9.51,2.329-.009-.229,1.16A2.615,2.615,0,0,1,26.341-9.7a3.615,3.615,0,0,1,.861.123Zm4.1,3.99L33.7-9.51h2.672L31.772,0H29.4L27.773-9.51h2.514ZM40.421.176a4.137,4.137,0,0,1-2.21-.611,3.7,3.7,0,0,1-1.437-1.652A4.605,4.605,0,0,1,36.4-4.4l.026-.352A6.148,6.148,0,0,1,37.239-7.3a4.884,4.884,0,0,1,1.74-1.789,4.306,4.306,0,0,1,2.355-.593,3.29,3.29,0,0,1,2.782,1.351A4.631,4.631,0,0,1,44.833-5L44.692-3.92H38.865a2.041,2.041,0,0,0,.448,1.477,1.711,1.711,0,0,0,1.318.571A3.041,3.041,0,0,0,43-2.927l1.134,1.406A3.527,3.527,0,0,1,42.592-.259,5.059,5.059,0,0,1,40.421.176Zm.791-7.813a1.761,1.761,0,0,0-1.217.431,3.784,3.784,0,0,0-.954,1.556h3.41L42.5-5.88a2.33,2.33,0,0,0,.009-.668,1.276,1.276,0,0,0-.431-.8A1.35,1.35,0,0,0,41.212-7.638Zm10.731.51a5.117,5.117,0,0,0-.835-.088,2.4,2.4,0,0,0-2.1.993L47.909,0H45.431l1.652-9.51,2.329-.009-.229,1.16A2.615,2.615,0,0,1,51.4-9.7a3.615,3.615,0,0,1,.861.123Z" transform="translate(488.39 196.2)" fill="#12263f"/>
      </g>
      <path id="Trazado_160542" data-name="Trazado 160542" d="M.185,0,2.408-12.8l3.674.009a5.032,5.032,0,0,1,2.325.584,4.393,4.393,0,0,1,1.674,1.6,5.493,5.493,0,0,1,.773,2.355,7.775,7.775,0,0,1-.018,1.564l-.062.466A7.309,7.309,0,0,1,8.565-1.7,6.253,6.253,0,0,1,4.14,0Zm4.43-10.661L3.129-2.118,4.2-2.109a3.518,3.518,0,0,0,2.852-1.3A6.723,6.723,0,0,0,8.288-7.339l.018-.281a3.544,3.544,0,0,0-.554-2.224,2.114,2.114,0,0,0-1.731-.809ZM16.963,0a2.566,2.566,0,0,1-.1-.861A3.221,3.221,0,0,1,14.44.176a2.919,2.919,0,0,1-2.07-.813A2.46,2.46,0,0,1,11.6-2.6a2.843,2.843,0,0,1,1.305-2.386,5.924,5.924,0,0,1,3.335-.831L17.4-5.8l.123-.571a1.984,1.984,0,0,0,.026-.554.952.952,0,0,0-.312-.646,1.075,1.075,0,0,0-.708-.242,1.514,1.514,0,0,0-.984.286,1.384,1.384,0,0,0-.519.875l-2.487.009a2.764,2.764,0,0,1,1.252-2.21,4.851,4.851,0,0,1,2.94-.831,3.507,3.507,0,0,1,2.531.962,2.816,2.816,0,0,1,.765,2.386L19.3-1.784l-.044.563a2.714,2.714,0,0,0,.149,1.055L19.4,0ZM15.056-1.749a2.27,2.27,0,0,0,1.872-.932l.308-1.644-.861-.009A2.406,2.406,0,0,0,14.4-3.5a1.454,1.454,0,0,0-.272.712.844.844,0,0,0,.2.751A1,1,0,0,0,15.056-1.749Zm10.881-10.1L25.523-9.51h1.582L26.78-7.646H25.2L24.39-2.883a1.211,1.211,0,0,0,.07.686q.123.237.6.255.141.009.756-.044L25.638-.044a4.169,4.169,0,0,1-1.424.2,2.234,2.234,0,0,1-1.819-.765A2.763,2.763,0,0,1,21.9-2.628l.817-5.019H21.375L21.7-9.51h1.345l.4-2.338ZM32.4,0a2.566,2.566,0,0,1-.1-.861A3.221,3.221,0,0,1,29.874.176,2.919,2.919,0,0,1,27.8-.637,2.46,2.46,0,0,1,27.035-2.6,2.843,2.843,0,0,1,28.34-4.988a5.924,5.924,0,0,1,3.335-.831l1.16.018.123-.571a1.984,1.984,0,0,0,.026-.554.952.952,0,0,0-.312-.646,1.075,1.075,0,0,0-.708-.242,1.514,1.514,0,0,0-.984.286,1.384,1.384,0,0,0-.519.875l-2.487.009a2.764,2.764,0,0,1,1.252-2.21,4.851,4.851,0,0,1,2.94-.831,3.507,3.507,0,0,1,2.531.962,2.816,2.816,0,0,1,.765,2.386l-.729,4.553-.044.563A2.714,2.714,0,0,0,34.84-.167L34.831,0ZM30.489-1.749a2.27,2.27,0,0,0,1.872-.932l.308-1.644-.861-.009A2.406,2.406,0,0,0,29.83-3.5a1.454,1.454,0,0,0-.272.712.844.844,0,0,0,.2.751A1,1,0,0,0,30.489-1.749ZM45.483-4.729a6.819,6.819,0,0,1-1.371,3.6A3.412,3.412,0,0,1,41.247.185a2.652,2.652,0,0,1-2.285-1.213L38.6,0H36.343l2.338-13.5h2.487L40.21-8.64a2.963,2.963,0,0,1,2.32-1.046A2.683,2.683,0,0,1,44.7-8.7a4.376,4.376,0,0,1,.839,2.685A10.274,10.274,0,0,1,45.483-4.729Zm-2.461-.185a7.373,7.373,0,0,0,.053-1.164q-.1-1.534-1.266-1.56a2.062,2.062,0,0,0-1.819,1L39.3-2.851a1.415,1.415,0,0,0,1.424.987q1.828.053,2.241-2.662ZM51.759,0a2.566,2.566,0,0,1-.1-.861A3.221,3.221,0,0,1,49.236.176a2.919,2.919,0,0,1-2.07-.813A2.46,2.46,0,0,1,46.4-2.6,2.843,2.843,0,0,1,47.7-4.988a5.924,5.924,0,0,1,3.335-.831L52.2-5.8l.123-.571a1.984,1.984,0,0,0,.026-.554.952.952,0,0,0-.312-.646,1.075,1.075,0,0,0-.708-.242,1.514,1.514,0,0,0-.984.286,1.384,1.384,0,0,0-.519.875l-2.487.009a2.764,2.764,0,0,1,1.252-2.21,4.851,4.851,0,0,1,2.94-.831,3.507,3.507,0,0,1,2.531.962,2.816,2.816,0,0,1,.765,2.386L54.1-1.784l-.044.563A2.714,2.714,0,0,0,54.2-.167L54.193,0ZM49.852-1.749a2.27,2.27,0,0,0,1.872-.932l.308-1.644-.861-.009a2.406,2.406,0,0,0-1.978.835,1.454,1.454,0,0,0-.272.712.844.844,0,0,0,.2.751A1,1,0,0,0,49.852-1.749Zm11.364-.932q.141-.7-.976-1.02l-.8-.2q-2.839-.782-2.76-2.76a2.731,2.731,0,0,1,1.191-2.193,4.434,4.434,0,0,1,2.764-.831,3.978,3.978,0,0,1,2.6.853,2.809,2.809,0,0,1,1.011,2.224l-2.461-.009a1.084,1.084,0,0,0-1.213-1.239,1.745,1.745,0,0,0-1.006.29,1.194,1.194,0,0,0-.523.782q-.132.7,1.063.993l.352.079a7.071,7.071,0,0,1,1.854.664,2.8,2.8,0,0,1,.989.927,2.3,2.3,0,0,1,.321,1.327,2.533,2.533,0,0,1-.584,1.582A3.577,3.577,0,0,1,61.51-.167a5.328,5.328,0,0,1-2.043.343,4.015,4.015,0,0,1-2.637-.91,2.933,2.933,0,0,1-1.072-2.307l2.338.018a1.285,1.285,0,0,0,1.459,1.38,2.076,2.076,0,0,0,1.129-.281A1.111,1.111,0,0,0,61.216-2.681ZM69.284.176a4.137,4.137,0,0,1-2.21-.611,3.7,3.7,0,0,1-1.437-1.652A4.605,4.605,0,0,1,65.268-4.4l.026-.352A6.148,6.148,0,0,1,66.1-7.3a4.884,4.884,0,0,1,1.74-1.789A4.306,4.306,0,0,1,70.2-9.686,3.29,3.29,0,0,1,72.98-8.334,4.631,4.631,0,0,1,73.7-5L73.556-3.92H67.729a2.041,2.041,0,0,0,.448,1.477,1.711,1.711,0,0,0,1.318.571,3.041,3.041,0,0,0,2.373-1.055L73-1.521A3.527,3.527,0,0,1,71.455-.259,5.059,5.059,0,0,1,69.284.176Zm.791-7.813a1.761,1.761,0,0,0-1.217.431A3.784,3.784,0,0,0,67.9-5.651h3.41l.053-.229a2.33,2.33,0,0,0,.009-.668,1.276,1.276,0,0,0-.431-.8A1.35,1.35,0,0,0,70.075-7.638Z" transform="translate(473.65 506.74)" fill="#12263f"/>
      <g id="Grupo_86042" data-name="Grupo 86042">
        <g id="Grupo_86034" data-name="Grupo 86034">
          <g id="Grupo_86025" data-name="Grupo 86025">
            <path id="Trazado_155449" data-name="Trazado 155449" d="M513.9,155.08l-39.19-22.35c-1.43-.83-1.25-2.27.41-3.23l22.54-13a6.22,6.22,0,0,1,5.59-.24l39.19,22.35c1.44.83,1.26,2.27-.4,3.23l-22.55,13A6.22,6.22,0,0,1,513.9,155.08Z" fill="#b2d3ea"/>
            <path id="Trazado_155450" data-name="Trazado 155450" d="M545.94,131.08h0V39.59l-36.37-9.52-6.7-3.86a6.68,6.68,0,0,0-6,.24l-6.25,3.61h-19.4L477,118.37a1.75,1.75,0,0,0,1,1.6l36.3,27.39a6.65,6.65,0,0,0,6-.25l24.19-14a2.4,2.4,0,0,0,1.45-2.03Z" fill="#1565b2"/>
            <path id="Trazado_155451" data-name="Trazado 155451" d="M500.08,25.61a7,7,0,0,0-3.21.84l-6.25,3.61h-19.4v91.73a1.75,1.75,0,0,0,1,1.61l42,24a5.44,5.44,0,0,0,2.78.6l.44-92.31Z" fill="#d4ecff"/>
            <path id="Trazado_155452" data-name="Trazado 155452" d="M514.68,147.55a6.76,6.76,0,0,0,4.79-.06V54.56h-4.79Z" fill="#5793ce"/>
            <path id="Trazado_155453" data-name="Trazado 155453" d="M514.29,55.66l-42-24c-1.54-.89-1.34-2.44.43-3.46l24.19-14a6.71,6.71,0,0,1,6-.25l42,24c1.53.88,1.34,2.43-.43,3.46l-24.19,14a6.65,6.65,0,0,1-6,.25Z" fill="#d4ecff"/>
            <path id="Trazado_155454" data-name="Trazado 155454" d="M544.48,39.75l-24.19,14a6.65,6.65,0,0,1-6,.25l-42-24a2.47,2.47,0,0,1-.77-.68,1.61,1.61,0,0,0,.77,2.38l42,24a6.65,6.65,0,0,0,6-.25l24.19-14c1.37-.8,1.79-1.91,1.19-2.78a3.431,3.431,0,0,1-1.19,1.08Z" fill="#fafdff"/>
            <g id="Grupo_86024" data-name="Grupo 86024">
              <path id="Trazado_155455" data-name="Trazado 155455" d="M515.48,46l-28-16.23c-.72-.41-.63-1.14.2-1.62L499,21.57a3.14,3.14,0,0,1,2.81-.12l28,16.23c.72.41.62,1.14-.21,1.62l-11.31,6.53A3.14,3.14,0,0,1,515.48,46Z" fill="#173d7a"/>
              <g id="Grupo_86023" data-name="Grupo 86023">
                <path id="Trazado_155456" data-name="Trazado 155456" d="M500.37,30.45l-1.62-.93c-.1-.06-.09-.16,0-.23l1.57-.9a.42.42,0,0,1,.39,0l1.62.94c.1.05.09.15,0,.22l-1.56.91a.45.45,0,0,1-.4-.01Z" fill="#d4ecff"/>
                <path id="Trazado_155457" data-name="Trazado 155457" d="M505.79,33.57l-1.63-.94a.127.127,0,0,1,0-.22l1.57-.91a.45.45,0,0,1,.39,0l1.62.93c.1.06.09.16,0,.23l-1.56.9a.45.45,0,0,1-.39.01Z" fill="#d4ecff"/>
                <path id="Trazado_155458" data-name="Trazado 155458" d="M511.21,36.68l-1.63-.93c-.1-.06-.08-.16,0-.23l1.57-.9a.42.42,0,0,1,.39,0l1.62.94c.1.06.08.16,0,.22l-1.57.91a.42.42,0,0,1-.38-.01Z" fill="#d4ecff"/>
                <path id="Trazado_155459" data-name="Trazado 155459" d="M516.62,39.8,515,38.86a.121.121,0,0,1,0-.22l1.57-.91a.42.42,0,0,1,.38,0l1.63.93c.1.06.08.16,0,.23l-1.57.9a.42.42,0,0,1-.39.01Z" fill="#d4ecff"/>
              </g>
              <path id="Trazado_155460" data-name="Trazado 155460" d="M487.49,29.72h0l.17-.11L499,23.09a3.11,3.11,0,0,1,2.81-.11l27.95,16.2c.67-.47.7-1.12,0-1.5l-28-16.23a3.14,3.14,0,0,0-2.81.12L487.69,28.1C486.86,28.58,486.77,29.31,487.49,29.72Z" fill="#5793ce"/>
            </g>
          </g>
          <g id="Grupo_86027" data-name="Grupo 86027">
            <path id="Trazado_155461" data-name="Trazado 155461" d="M525,73.79l15.91-9.11a3.88,3.88,0,0,0,1.62-3.1V55.89c0-1.2-.72-1.75-1.62-1.23L525,63.77a3.88,3.88,0,0,0-1.62,3.1v5.69C523.39,73.76,524.11,74.3,525,73.79Z" fill="#173d7a"/>
            <path id="Trazado_155462" data-name="Trazado 155462" d="M541.71,54.49a1.6,1.6,0,0,1,.41,1.18v5.69a3.88,3.88,0,0,1-1.62,3.1l-15.92,9.11a1.13,1.13,0,0,1-.78.18,1,1,0,0,0,1.21,0l15.91-9.11a3.89,3.89,0,0,0,1.63-3.1V55.89C542.55,55.08,542.21,54.57,541.71,54.49Z" fill="#fff"/>
            <g id="Grupo_86026" data-name="Grupo 86026">
              <path id="Trazado_155463" data-name="Trazado 155463" d="M529.8,67.61l1.46-.85a.84.84,0,0,0,.35-.67V64.53c0-.26-.16-.38-.35-.27l-1.46.84a.86.86,0,0,0-.36.68v1.56C529.44,67.6,529.6,67.72,529.8,67.61Z" fill="#1565b2"/>
              <path id="Trazado_155464" data-name="Trazado 155464" d="M534.68,64.79l1.46-.85a.84.84,0,0,0,.35-.67V61.71c0-.26-.16-.38-.35-.27l-1.46.85a.83.83,0,0,0-.36.67v1.56C534.32,64.78,534.48,64.9,534.68,64.79Z" fill="#fff"/>
            </g>
          </g>
          <g id="Grupo_86029" data-name="Grupo 86029">
            <path id="Trazado_155465" data-name="Trazado 155465" d="M525,114.91l15.91-9.11a3.88,3.88,0,0,0,1.62-3.1V97c0-1.19-.72-1.74-1.62-1.23L525,104.89a3.88,3.88,0,0,0-1.62,3.1v5.69C523.39,114.88,524.11,115.43,525,114.91Z" fill="#173d7a"/>
            <path id="Trazado_155466" data-name="Trazado 155466" d="M541.71,95.61a1.61,1.61,0,0,1,.41,1.19v5.69a3.91,3.91,0,0,1-1.62,3.1l-15.92,9.11a1.18,1.18,0,0,1-.78.17,1,1,0,0,0,1.21,0l15.91-9.11a3.89,3.89,0,0,0,1.63-3.1V97C542.55,96.2,542.21,95.7,541.71,95.61Z" fill="#fff"/>
            <g id="Grupo_86028" data-name="Grupo 86028">
              <path id="Trazado_155467" data-name="Trazado 155467" d="M529.8,108.73l1.46-.85a.84.84,0,0,0,.35-.67v-1.56c0-.26-.16-.38-.35-.27l-1.46.85a.83.83,0,0,0-.36.67v1.56C529.44,108.72,529.6,108.84,529.8,108.73Z" fill="#1565b2"/>
              <path id="Trazado_155468" data-name="Trazado 155468" d="M534.68,105.91l1.46-.84a.88.88,0,0,0,.35-.68v-1.56c0-.26-.16-.38-.35-.26l-1.46.84a.83.83,0,0,0-.36.67v1.56C534.32,105.9,534.48,106,534.68,105.91Z" fill="#fff"/>
            </g>
          </g>
          <g id="Grupo_86031" data-name="Grupo 86031">
            <path id="Trazado_155469" data-name="Trazado 155469" d="M525,135.47l15.91-9.11a3.87,3.87,0,0,0,1.62-3.1v-5.69c0-1.19-.72-1.74-1.62-1.23L525,125.46a3.85,3.85,0,0,0-1.62,3.09v5.7C523.39,135.44,524.11,136,525,135.47Z" fill="#173d7a"/>
            <path id="Trazado_155470" data-name="Trazado 155470" d="M541.71,116.17a1.61,1.61,0,0,1,.41,1.19v5.69a3.91,3.91,0,0,1-1.62,3.1l-15.92,9.11a1.18,1.18,0,0,1-.78.17,1,1,0,0,0,1.21,0l15.91-9.11a3.88,3.88,0,0,0,1.63-3.1v-5.69C542.55,116.76,542.21,116.26,541.71,116.17Z" fill="#fff"/>
            <g id="Grupo_86030" data-name="Grupo 86030">
              <path id="Trazado_155471" data-name="Trazado 155471" d="M529.8,129.29l1.46-.84a.88.88,0,0,0,.35-.68v-1.56c0-.26-.16-.38-.35-.27l-1.46.85a.83.83,0,0,0-.36.67V129C529.44,129.28,529.6,129.4,529.8,129.29Z" fill="#1565b2"/>
              <path id="Trazado_155472" data-name="Trazado 155472" d="M534.68,126.47l1.46-.84a.86.86,0,0,0,.35-.68v-1.56c0-.26-.16-.38-.35-.26l-1.46.84a.83.83,0,0,0-.36.67v1.56C534.32,126.46,534.48,126.58,534.68,126.47Z" fill="#fff"/>
            </g>
          </g>
          <g id="Grupo_86033" data-name="Grupo 86033">
            <path id="Trazado_155473" data-name="Trazado 155473" d="M525,94.35l15.91-9.11a3.88,3.88,0,0,0,1.62-3.1V76.45c0-1.2-.72-1.74-1.62-1.23L525,84.33a3.88,3.88,0,0,0-1.62,3.1v5.69C523.39,94.32,524.11,94.87,525,94.35Z" fill="#173d7a"/>
            <path id="Trazado_155474" data-name="Trazado 155474" d="M541.71,75.05a1.61,1.61,0,0,1,.41,1.19v5.69A3.88,3.88,0,0,1,540.5,85l-15.92,9.12a1.18,1.18,0,0,1-.78.17,1,1,0,0,0,1.21,0l15.91-9.11a3.89,3.89,0,0,0,1.63-3.1V76.45C542.55,75.64,542.21,75.14,541.71,75.05Z" fill="#fff"/>
            <g id="Grupo_86032" data-name="Grupo 86032">
              <path id="Trazado_155475" data-name="Trazado 155475" d="M529.8,88.17l1.46-.85a.84.84,0,0,0,.35-.67V85.09c0-.26-.16-.38-.35-.27l-1.46.84a.86.86,0,0,0-.36.68V87.9C529.44,88.16,529.6,88.28,529.8,88.17Z" fill="#1565b2"/>
              <path id="Trazado_155476" data-name="Trazado 155476" d="M534.68,85.35l1.46-.84a.88.88,0,0,0,.35-.68V82.27c0-.26-.16-.38-.35-.27l-1.46.85a.83.83,0,0,0-.36.67v1.56C534.32,85.34,534.48,85.46,534.68,85.35Z" fill="#fff"/>
            </g>
          </g>
        </g>
        <g id="Grupo_86035" data-name="Grupo 86035">
          <path id="Trazado_155477" data-name="Trazado 155477" d="M511.23,68,474.51,46.77A3.58,3.58,0,0,1,473,43.92v-7c0-1.09.66-1.6,1.48-1.12L511.23,57a3.59,3.59,0,0,1,1.49,2.85v7C512.72,67.93,512.05,68.44,511.23,68Z" fill="#5793ce"/>
          <path id="Trazado_155478" data-name="Trazado 155478" d="M510.17,65.51l-34.6-20a1.81,1.81,0,0,1-.76-1.44V38.82c0-.55.34-.81.76-.57l34.6,20a1.81,1.81,0,0,1,.76,1.44v5.27C510.93,65.49,510.59,65.75,510.17,65.51Z" fill="#d4ecff" opacity="0.4"/>
          <path id="Trazado_155479" data-name="Trazado 155479" d="M482.78,47l-5.17-3a1.76,1.76,0,0,1-.73-1.4h0c0-.54.33-.79.73-.56l5.17,3a1.76,1.76,0,0,1,.73,1.4h0C483.51,47,483.18,47.26,482.78,47Z" fill="#d4ecff"/>
          <ellipse id="Elipse_6966" data-name="Elipse 6966" cx="0.69" cy="1.2" rx="0.69" ry="1.2" transform="translate(485.144 47.435) rotate(-30)" fill="#173d7a"/>
          <path id="Trazado_155480" data-name="Trazado 155480" d="M490.17,50.32c0,.54-.38.76-.85.49a1.87,1.87,0,0,1-.85-1.47c0-.54.38-.76.85-.49a1.87,1.87,0,0,1,.85,1.47Z" fill="#173d7a"/>
          <path id="Trazado_155481" data-name="Trazado 155481" d="M493.15,52c0,.54-.38.76-.84.49a1.87,1.87,0,0,1-.85-1.47c0-.53.38-.75.85-.48a1.87,1.87,0,0,1,.84,1.46Z" fill="#d4ecff"/>
          <path id="Trazado_155482" data-name="Trazado 155482" d="M496.14,53.77c0,.54-.38.75-.85.48a1.83,1.83,0,0,1-.84-1.46c0-.54.37-.76.84-.49a1.87,1.87,0,0,1,.85,1.47Z" fill="#173d7a"/>
          <path id="Trazado_155483" data-name="Trazado 155483" d="M508.72,62.58l-1.74-1a1.12,1.12,0,0,1-.47-.9V58.83c0-.34.21-.5.47-.35l1.74,1a1.12,1.12,0,0,1,.47.9v1.84C509.19,62.57,509,62.73,508.72,62.58Z" fill="#173d7a"/>
        </g>
        <g id="Grupo_86036" data-name="Grupo 86036">
          <path id="Trazado_155484" data-name="Trazado 155484" d="M511.23,80.31l-36.72-21.2A3.56,3.56,0,0,1,473,56.27v-7c0-1.1.66-1.6,1.48-1.13l36.72,21.2a3.57,3.57,0,0,1,1.49,2.84v7C512.72,80.28,512.05,80.78,511.23,80.31Z" fill="#5793ce"/>
          <path id="Trazado_155485" data-name="Trazado 155485" d="M510.17,77.85l-34.6-20a1.79,1.79,0,0,1-.76-1.44V51.17c0-.56.34-.81.76-.57l34.6,20a1.79,1.79,0,0,1,.76,1.44V77.3C510.93,77.84,510.59,78.09,510.17,77.85Z" fill="#d4ecff" opacity="0.4"/>
          <path id="Trazado_155486" data-name="Trazado 155486" d="M482.78,59.38l-5.17-3a1.76,1.76,0,0,1-.73-1.4h0c0-.54.33-.78.73-.55l5.17,3a1.76,1.76,0,0,1,.73,1.4h0C483.51,59.36,483.18,59.61,482.78,59.38Z" fill="#d4ecff"/>
          <path id="Trazado_155487" data-name="Trazado 155487" d="M487.18,60.94c0,.54-.38.76-.85.49a1.89,1.89,0,0,1-.84-1.47c0-.54.38-.76.84-.49a1.87,1.87,0,0,1,.85,1.47Z" fill="#fff"/>
          <path id="Trazado_155488" data-name="Trazado 155488" d="M490.17,62.66c0,.54-.38.76-.85.49a1.86,1.86,0,0,1-.85-1.46c0-.54.38-.76.85-.49a1.86,1.86,0,0,1,.85,1.46Z" fill="#173d7a"/>
          <path id="Trazado_155489" data-name="Trazado 155489" d="M493.15,64.39c0,.54-.38.76-.84.49a1.87,1.87,0,0,1-.85-1.47c0-.54.38-.76.85-.49a1.89,1.89,0,0,1,.84,1.47Z" fill="#d4ecff"/>
          <ellipse id="Elipse_6967" data-name="Elipse 6967" cx="0.69" cy="1.2" rx="0.69" ry="1.2" transform="translate(494.098 64.95) rotate(-30)" fill="#173d7a"/>
          <path id="Trazado_155490" data-name="Trazado 155490" d="M508.72,74.92l-1.74-1a1.14,1.14,0,0,1-.47-.9V71.18c0-.35.21-.51.47-.36l1.74,1a1.12,1.12,0,0,1,.47.9v1.84C509.19,74.91,509,75.07,508.72,74.92Z" fill="#173d7a"/>
        </g>
        <g id="Grupo_86037" data-name="Grupo 86037">
          <path id="Trazado_155491" data-name="Trazado 155491" d="M511.23,92.65,474.51,71.46A3.58,3.58,0,0,1,473,68.61v-7c0-1.09.66-1.6,1.48-1.12L511.2,81.68a3.59,3.59,0,0,1,1.49,2.85v7C512.72,92.62,512.05,93.13,511.23,92.65Z" fill="#5793ce"/>
          <path id="Trazado_155492" data-name="Trazado 155492" d="M510.17,90.2l-34.6-20a1.81,1.81,0,0,1-.76-1.44V63.51c0-.55.34-.81.76-.57l34.6,20a1.81,1.81,0,0,1,.76,1.44v5.27C510.93,90.18,510.59,90.44,510.17,90.2Z" fill="#d4ecff" opacity="0.4"/>
          <path id="Trazado_155493" data-name="Trazado 155493" d="M482.78,71.72l-5.17-3a1.76,1.76,0,0,1-.73-1.4h0c0-.54.33-.79.73-.56l5.17,3a1.76,1.76,0,0,1,.73,1.4h0C483.51,71.71,483.18,72,482.78,71.72Z" fill="#d4ecff"/>
          <path id="Trazado_155494" data-name="Trazado 155494" d="M487.18,73.28c0,.54-.38.76-.85.49a1.87,1.87,0,0,1-.84-1.46c0-.54.38-.76.84-.49a1.86,1.86,0,0,1,.85,1.46Z" fill="#fff"/>
          <path id="Trazado_155495" data-name="Trazado 155495" d="M490.17,75c0,.54-.38.76-.85.49a1.87,1.87,0,0,1-.85-1.47c0-.54.38-.76.85-.49a1.87,1.87,0,0,1,.85,1.47Z" fill="#173d7a"/>
          <path id="Trazado_155496" data-name="Trazado 155496" d="M493.15,76.73c0,.54-.38.76-.84.49a1.87,1.87,0,0,1-.85-1.47c0-.53.38-.75.85-.48a1.87,1.87,0,0,1,.84,1.46Z" fill="#d4ecff"/>
          <path id="Trazado_155497" data-name="Trazado 155497" d="M496.14,78.46c0,.54-.38.75-.85.48a1.85,1.85,0,0,1-.84-1.46c0-.54.37-.76.84-.49A1.87,1.87,0,0,1,496.14,78.46Z" fill="#173d7a"/>
          <path id="Trazado_155498" data-name="Trazado 155498" d="M508.72,87.27l-1.74-1a1.12,1.12,0,0,1-.47-.9V83.52c0-.34.21-.5.47-.35l1.74,1a1.12,1.12,0,0,1,.47.9v1.84C509.19,87.26,509,87.42,508.72,87.27Z" fill="#173d7a"/>
        </g>
        <g id="Grupo_86038" data-name="Grupo 86038">
          <path id="Trazado_155499" data-name="Trazado 155499" d="M511.23,105,474.51,83.8A3.56,3.56,0,0,1,473,81V74c0-1.1.66-1.6,1.48-1.13L511.23,94a3.57,3.57,0,0,1,1.49,2.84v7C512.72,105,512.05,105.47,511.23,105Z" fill="#5793ce"/>
          <path id="Trazado_155500" data-name="Trazado 155500" d="M510.17,102.54l-34.6-20a1.79,1.79,0,0,1-.76-1.44V75.86c0-.56.34-.81.76-.57l34.6,20a1.79,1.79,0,0,1,.76,1.44V102C510.93,102.53,510.59,102.78,510.17,102.54Z" fill="#d4ecff" opacity="0.4"/>
          <path id="Trazado_155501" data-name="Trazado 155501" d="M482.78,84.07l-5.17-3a1.76,1.76,0,0,1-.73-1.4h0c0-.54.33-.78.73-.55l5.17,3a1.76,1.76,0,0,1,.73,1.4h0C483.51,84.05,483.18,84.3,482.78,84.07Z" fill="#d4ecff"/>
          <path id="Trazado_155502" data-name="Trazado 155502" d="M487.18,85.63c0,.54-.38.76-.85.49a1.89,1.89,0,0,1-.84-1.47c0-.54.38-.76.84-.49a1.87,1.87,0,0,1,.85,1.47Z" fill="#173d7a"/>
          <ellipse id="Elipse_6968" data-name="Elipse 6968" cx="0.69" cy="1.2" rx="0.69" ry="1.2" transform="translate(488.128 86.189) rotate(-30)" fill="#173d7a"/>
          <path id="Trazado_155503" data-name="Trazado 155503" d="M493.15,89.08c0,.54-.38.76-.84.49a1.87,1.87,0,0,1-.85-1.47c0-.54.38-.76.85-.49a1.89,1.89,0,0,1,.84,1.47Z" fill="#d4ecff"/>
          <path id="Trazado_155504" data-name="Trazado 155504" d="M496.14,90.8c0,.54-.38.76-.85.49a1.86,1.86,0,0,1-.84-1.47c0-.54.37-.75.84-.48A1.84,1.84,0,0,1,496.14,90.8Z" fill="#173d7a"/>
          <path id="Trazado_155505" data-name="Trazado 155505" d="M508.72,99.61l-1.74-1a1.14,1.14,0,0,1-.47-.9V95.87c0-.35.21-.51.47-.36l1.74,1a1.12,1.12,0,0,1,.47.9v1.84C509.19,99.6,509,99.76,508.72,99.61Z" fill="#d4ecff"/>
        </g>
        <g id="Grupo_86039" data-name="Grupo 86039">
          <path id="Trazado_155506" data-name="Trazado 155506" d="M511.23,117.34,474.51,96.15A3.58,3.58,0,0,1,473,93.3v-7c0-1.09.66-1.6,1.48-1.12l36.72,21.19a3.59,3.59,0,0,1,1.49,2.85v7C512.72,117.31,512.05,117.82,511.23,117.34Z" fill="#5793ce"/>
          <path id="Trazado_155507" data-name="Trazado 155507" d="M510.17,114.89l-34.6-20a1.81,1.81,0,0,1-.76-1.44V88.2c0-.55.34-.81.76-.57l34.6,20a1.81,1.81,0,0,1,.76,1.44v5.27C510.93,114.87,510.59,115.13,510.17,114.89Z" fill="#d4ecff" opacity="0.4"/>
          <path id="Trazado_155508" data-name="Trazado 155508" d="M482.78,96.41l-5.17-3a1.76,1.76,0,0,1-.73-1.4h0c0-.54.33-.79.73-.56l5.17,3a1.76,1.76,0,0,1,.73,1.4h0C483.51,96.4,483.18,96.64,482.78,96.41Z" fill="#d4ecff"/>
          <path id="Trazado_155509" data-name="Trazado 155509" d="M487.18,98c0,.54-.38.76-.85.49a1.87,1.87,0,0,1-.84-1.46c0-.54.38-.76.84-.49a1.86,1.86,0,0,1,.85,1.46Z" fill="#173d7a"/>
          <path id="Trazado_155510" data-name="Trazado 155510" d="M490.17,99.7c0,.54-.38.76-.85.49a1.87,1.87,0,0,1-.85-1.47c0-.54.38-.76.85-.49a1.87,1.87,0,0,1,.85,1.47Z" fill="#fff"/>
          <path id="Trazado_155511" data-name="Trazado 155511" d="M493.15,101.42c0,.54-.38.76-.84.49a1.87,1.87,0,0,1-.85-1.47c0-.54.38-.75.85-.48a1.87,1.87,0,0,1,.84,1.46Z" fill="#d4ecff"/>
          <path id="Trazado_155512" data-name="Trazado 155512" d="M496.14,103.15c0,.54-.38.75-.85.48a1.85,1.85,0,0,1-.84-1.46c0-.54.37-.76.84-.49A1.87,1.87,0,0,1,496.14,103.15Z" fill="#fff"/>
          <path id="Trazado_155513" data-name="Trazado 155513" d="M508.72,112,507,111a1.12,1.12,0,0,1-.47-.9v-1.84c0-.34.21-.5.47-.35l1.74,1a1.12,1.12,0,0,1,.47.9v1.84C509.19,112,509,112.11,508.72,112Z" fill="#d4ecff"/>
        </g>
        <g id="Grupo_86040" data-name="Grupo 86040">
          <path id="Trazado_155514" data-name="Trazado 155514" d="M511.23,129.69l-36.72-21.2a3.56,3.56,0,0,1-1.48-2.84v-7c0-1.1.66-1.6,1.48-1.13l36.72,21.2a3.57,3.57,0,0,1,1.49,2.84v7C512.72,129.66,512.05,130.16,511.23,129.69Z" fill="#5793ce"/>
          <path id="Trazado_155515" data-name="Trazado 155515" d="M510.17,127.23l-34.6-20a1.79,1.79,0,0,1-.76-1.44v-5.26c0-.56.34-.81.76-.57l34.6,20a1.79,1.79,0,0,1,.76,1.44v5.26C510.93,127.22,510.59,127.47,510.17,127.23Z" fill="#d4ecff" opacity="0.4"/>
          <path id="Trazado_155516" data-name="Trazado 155516" d="M482.78,108.76l-5.17-3a1.76,1.76,0,0,1-.73-1.4h0c0-.54.33-.78.73-.55l5.17,3a1.76,1.76,0,0,1,.73,1.4h0C483.51,108.74,483.18,109,482.78,108.76Z" fill="#d4ecff"/>
          <ellipse id="Elipse_6969" data-name="Elipse 6969" cx="0.692" cy="1.204" rx="0.692" ry="1.204" transform="translate(487.072 109.588) rotate(-29.887)" fill="#173d7a"/>
          <path id="Trazado_155517" data-name="Trazado 155517" d="M490.17,112c0,.54-.38.76-.85.49a1.86,1.86,0,0,1-.85-1.46c0-.54.38-.76.85-.49a1.86,1.86,0,0,1,.85,1.46Z" fill="#173d7a"/>
          <path id="Trazado_155518" data-name="Trazado 155518" d="M493.15,113.77c0,.54-.38.76-.84.49a1.87,1.87,0,0,1-.85-1.47c0-.54.38-.76.85-.49a1.89,1.89,0,0,1,.84,1.47Z" fill="#d4ecff"/>
          <path id="Trazado_155519" data-name="Trazado 155519" d="M496.14,115.49c0,.54-.38.76-.85.49a1.86,1.86,0,0,1-.84-1.47c0-.54.37-.75.84-.48a1.84,1.84,0,0,1,.85,1.46Z" fill="#173d7a"/>
          <path id="Trazado_155520" data-name="Trazado 155520" d="M508.72,124.3l-1.74-1a1.14,1.14,0,0,1-.47-.9v-1.84c0-.35.21-.51.47-.36l1.74,1a1.12,1.12,0,0,1,.47.89V124C509.19,124.29,509,124.45,508.72,124.3Z" fill="#173d7a"/>
        </g>
        <g id="Grupo_86041" data-name="Grupo 86041">
          <path id="Trazado_155521" data-name="Trazado 155521" d="M511.23,142l-36.72-21.2A3.54,3.54,0,0,1,473,118v-7c0-1.09.66-1.6,1.48-1.12l36.72,21.19a3.59,3.59,0,0,1,1.49,2.85v7C512.72,142,512.05,142.51,511.23,142Z" fill="#5793ce"/>
          <path id="Trazado_155522" data-name="Trazado 155522" d="M510.17,139.58l-34.6-20a1.81,1.81,0,0,1-.76-1.44v-5.27c0-.55.34-.81.76-.57l34.6,20a1.81,1.81,0,0,1,.76,1.44V139C510.93,139.56,510.59,139.82,510.17,139.58Z" fill="#d4ecff" opacity="0.4"/>
          <path id="Trazado_155523" data-name="Trazado 155523" d="M482.78,121.1l-5.17-3a1.77,1.77,0,0,1-.73-1.4h0c0-.54.33-.79.73-.56l5.17,3a1.76,1.76,0,0,1,.73,1.4h0C483.51,121.09,483.18,121.33,482.78,121.1Z" fill="#d4ecff"/>
          <path id="Trazado_155524" data-name="Trazado 155524" d="M488.12,123.33c0,1-.71,1.44-1.59.93a3.52,3.52,0,0,1-1.6-2.77c0-1,.71-1.44,1.6-.93a3.53,3.53,0,0,1,1.59,2.77Z" fill="#fff"/>
          <path id="Trazado_155525" data-name="Trazado 155525" d="M494.31,127c0,.54-.38.76-.85.49a1.89,1.89,0,0,1-.84-1.47c0-.54.38-.75.84-.48a1.86,1.86,0,0,1,.85,1.46Z" fill="#173d7a"/>
          <path id="Trazado_155526" data-name="Trazado 155526" d="M497.3,128.68c0,.54-.38.75-.85.48a1.86,1.86,0,0,1-.85-1.46c0-.54.38-.76.85-.49a1.87,1.87,0,0,1,.85,1.47Z" fill="#d4ecff"/>
          <path id="Trazado_155527" data-name="Trazado 155527" d="M500.28,130.4c0,.54-.38.76-.85.49a1.89,1.89,0,0,1-.84-1.47c0-.54.38-.76.84-.49a1.87,1.87,0,0,1,.85,1.47Z" fill="#173d7a"/>
          <path id="Trazado_155528" data-name="Trazado 155528" d="M508.72,136.65l-1.74-1a1.12,1.12,0,0,1-.47-.9V132.9c0-.34.21-.5.47-.35l1.74,1a1.12,1.12,0,0,1,.47.9v1.84C509.19,136.64,509,136.8,508.72,136.65Z" fill="#d4ecff"/>
        </g>
      </g>
      <g id="Grupo_86052" data-name="Grupo 86052">
        <g id="Grupo_86044" data-name="Grupo 86044">
          <path id="Trazado_155529" data-name="Trazado 155529" d="M120.67,334.3,36.53,285.72c-2.38-1.38-2.08-3.78.66-5.36l57.3-33.07c2.75-1.59,6.91-1.76,9.29-.39l84.14,48.58c2.38,1.38,2.08,3.78-.66,5.36L130,333.91C127.21,335.5,123.05,335.67,120.67,334.3Z" fill="#b2d3ea"/>
          <path id="Trazado_155530" data-name="Trazado 155530" d="M207.63,209.42l-84.14-48.58a3.43,3.43,0,0,0-2.86-.35h0l-.15.06h0l-3,1.17,2.73,1.33v.15L106.5,225.59c-.68,3.12.69,6.77,3.07,8.14l82.12,47.42-.29,3.48,3.32-1.29A4.67,4.67,0,0,0,197,280l13.71-62.39C211.38,214.44,210,210.8,207.63,209.42Z" fill="#173d7a"/>
          <path id="Trazado_155531" data-name="Trazado 155531" d="M207.63,209.42l-84.14-48.58a3.43,3.43,0,0,0-2.86-.35h0l-.15.06h0l-3,1.17,2.73,1.33v.15l-9,41.12,41.17,32.08,58-23.63A6.59,6.59,0,0,0,207.63,209.42Z" fill="#1565b2"/>
          <path id="Trazado_155532" data-name="Trazado 155532" d="M204.46,219l6.4-2.73a8,8,0,0,0-2.59-6.41l-10.14,4.27Z" fill="#274f89"/>
          <path id="Trazado_155533" data-name="Trazado 155533" d="M188.37,284.29l-84.15-48.58c-2.38-1.37-3.75-5-3.07-8.14l13.71-62.39c.68-3.12,3.17-4.54,5.55-3.16l84.15,48.58c2.38,1.37,3.75,5,3.06,8.14l-13.7,62.39C193.23,284.25,190.75,285.67,188.37,284.29Z" fill="#d4ecff"/>
          <path id="Trazado_155534" data-name="Trazado 155534" d="M186.54,279.65,107.41,234c-2.18-1.26-3.44-4.6-2.81-7.45l12.54-57.09c.63-2.86,2.9-4.16,5.08-2.9l79.14,45.67c2.18,1.25,3.43,4.59,2.8,7.45l-12.54,57.09C191,279.62,188.72,280.91,186.54,279.65Z" fill="#fff"/>
          <path id="Trazado_155535" data-name="Trazado 155535" d="M186.54,279.65,107.41,234c-2.18-1.26-3.44-4.6-2.81-7.45l12.54-57.09c.63-2.86,2.9-4.16,5.08-2.9l79.14,45.67c2.18,1.25,3.43,4.59,2.8,7.45l-12.54,57.09C191,279.62,188.72,280.91,186.54,279.65Z" fill="#fff"/>
          <path id="Trazado_155536" data-name="Trazado 155536" d="M189.53,286.41,178,284.89,103.78,242c-2.38-1.37-6.54-1.2-9.29.39L41.88,272.77l-7-.91v3.94h0a2.7,2.7,0,0,0,1.6,2.44l84.14,48.58c2.38,1.38,6.54,1.2,9.29-.38l57.3-33.07c1.54-.9,2.31-2.05,2.27-3.13h0Z" fill="#173d7a"/>
          <path id="Trazado_155537" data-name="Trazado 155537" d="M133.74,259.32l-5.27-3h-58L41.88,272.77l-7-.91v3.94h0a2.7,2.7,0,0,0,1.6,2.44l84.14,48.58a8.67,8.67,0,0,0,4.8.9Z" fill="#1565b2"/>
          <path id="Trazado_155538" data-name="Trazado 155538" d="M38,272.26l-3.09-.4v3.94h0a2.7,2.7,0,0,0,1.6,2.44l1.48.86Z" fill="#5793ce"/>
          <path id="Trazado_155539" data-name="Trazado 155539" d="M121.52,327.22a10.85,10.85,0,0,0,7.89-.49v-8.81h-7.89Z" fill="#274f89"/>
          <path id="Trazado_155540" data-name="Trazado 155540" d="M120.67,322.88,36.53,274.3c-2.38-1.38-2.08-3.78.66-5.36l57.3-33.07c2.75-1.59,6.91-1.76,9.29-.39l84.14,48.58c2.38,1.38,2.08,3.78-.66,5.37L130,322.5C127.21,324.08,123.05,324.25,120.67,322.88Z" fill="#d4ecff"/>
          <path id="Trazado_155541" data-name="Trazado 155541" d="M187.26,288,130,321.05c-2.75,1.59-6.91,1.76-9.29.39L36.53,272.86a3.11,3.11,0,0,1-1.48-1.62c-.38,1.12.1,2.26,1.48,3.06l84.14,48.58c2.38,1.37,6.54,1.2,9.29-.38l57.3-33.07c1.84-1.07,2.58-2.5,2.14-3.75a4.45,4.45,0,0,1-2.14,2.32Z" fill="#fff"/>
          <g id="Grupo_86043" data-name="Grupo 86043">
            <path id="Trazado_155542" data-name="Trazado 155542" d="M72.32,258.22,68.51,256c-.31-.18-.27-.49.08-.69l4.5-2.6a1.35,1.35,0,0,1,1.19,0l3.81,2.2c.3.18.26.49-.09.69l-4.49,2.6A1.35,1.35,0,0,1,72.32,258.22Z" fill="#173d7a"/>
            <path id="Trazado_155543" data-name="Trazado 155543" d="M78.19,261.61l-3.8-2.2c-.31-.17-.27-.48.08-.69l4.5-2.59a1.32,1.32,0,0,1,1.19-.05l3.81,2.2c.3.17.26.48-.09.69l-4.49,2.59A1.34,1.34,0,0,1,78.19,261.61Z" fill="#173d7a"/>
            <path id="Trazado_155544" data-name="Trazado 155544" d="M84.07,265l-3.8-2.19c-.31-.18-.27-.49.08-.69l4.5-2.6a1.35,1.35,0,0,1,1.19,0l3.81,2.2c.3.18.26.49-.09.69L85.27,265A1.34,1.34,0,0,1,84.07,265Z" fill="#173d7a"/>
            <path id="Trazado_155545" data-name="Trazado 155545" d="M92.21,262.2,88.4,260c-.31-.17-.27-.48.08-.69l3.78-2.17a1.29,1.29,0,0,1,1.19-.05l3.81,2.2c.3.17.26.48-.09.68l-3.77,2.18a1.29,1.29,0,0,1-1.19.05Z" fill="#173d7a"/>
            <path id="Trazado_155546" data-name="Trazado 155546" d="M98.09,265.6l-3.81-2.2c-.31-.18-.27-.49.08-.69l3.78-2.18a1.35,1.35,0,0,1,1.19,0l3.81,2.2c.3.18.26.48-.09.69l-3.77,2.18A1.35,1.35,0,0,1,98.09,265.6Z" fill="#173d7a"/>
            <path id="Trazado_155547" data-name="Trazado 155547" d="M104,269l-3.81-2.2c-.31-.17-.27-.48.08-.69l3.78-2.17a1.29,1.29,0,0,1,1.19-.05l3.81,2.19c.3.18.26.49-.09.69l-3.77,2.18A1.32,1.32,0,0,1,104,269Z" fill="#173d7a"/>
            <path id="Trazado_155548" data-name="Trazado 155548" d="M109.84,272.38l-3.8-2.19c-.31-.18-.27-.49.08-.69l3.78-2.18a1.32,1.32,0,0,1,1.19-.05l3.81,2.2c.3.18.26.48-.09.69L111,272.34a1.34,1.34,0,0,1-1.16.04Z" fill="#173d7a"/>
            <path id="Trazado_155549" data-name="Trazado 155549" d="M115.72,275.78l-3.8-2.2c-.31-.18-.27-.48.08-.69l3.77-2.18a1.34,1.34,0,0,1,1.2,0l3.8,2.19c.31.18.27.49-.08.69l-3.77,2.18a1.34,1.34,0,0,1-1.2.01Z" fill="#173d7a"/>
            <path id="Trazado_155550" data-name="Trazado 155550" d="M121.6,279.17,117.8,277c-.31-.18-.27-.49.08-.69l3.77-2.18a1.34,1.34,0,0,1,1.2-.05l3.8,2.2c.31.17.27.48-.08.69l-3.77,2.17A1.31,1.31,0,0,1,121.6,279.17Z" fill="#173d7a"/>
            <path id="Trazado_155551" data-name="Trazado 155551" d="M127.48,282.57l-3.8-2.2c-.31-.18-.27-.48.08-.69l3.77-2.18a1.38,1.38,0,0,1,1.2-.05l3.8,2.2c.31.18.27.49-.08.69l-3.77,2.18A1.34,1.34,0,0,1,127.48,282.57Z" fill="#173d7a"/>
            <path id="Trazado_155552" data-name="Trazado 155552" d="M133.36,286l-3.8-2.19c-.31-.18-.27-.49.08-.69l3.77-2.18a1.31,1.31,0,0,1,1.2,0l3.8,2.2c.31.17.27.48-.08.69L134.56,286a1.31,1.31,0,0,1-1.2,0Z" fill="#173d7a"/>
            <path id="Trazado_155553" data-name="Trazado 155553" d="M139.24,289.36l-3.8-2.2c-.31-.18-.27-.49.08-.69l3.77-2.18a1.38,1.38,0,0,1,1.2-.05l3.8,2.2c.31.18.27.49-.08.69l-3.78,2.18A1.35,1.35,0,0,1,139.24,289.36Z" fill="#173d7a"/>
            <path id="Trazado_155554" data-name="Trazado 155554" d="M145.12,292.75l-3.81-2.2c-.3-.17-.26-.48.09-.68l3.77-2.18a1.31,1.31,0,0,1,1.2-.05l3.8,2.2c.31.17.27.48-.08.68l-3.78,2.18A1.29,1.29,0,0,1,145.12,292.75Z" fill="#173d7a"/>
            <path id="Trazado_155555" data-name="Trazado 155555" d="M100.87,260.59l-3.81-2.19c-.3-.18-.27-.49.09-.69l3.77-2.18a1.32,1.32,0,0,1,1.19-.05l3.81,2.2c.31.17.27.48-.09.69l-3.77,2.17A1.29,1.29,0,0,1,100.87,260.59Z" fill="#1565b2"/>
            <path id="Trazado_155556" data-name="Trazado 155556" d="M94.9,257.15,91.09,255c-.3-.18-.26-.48.09-.69L95,252.08a1.38,1.38,0,0,1,1.2-.05l3.8,2.2c.31.18.27.49-.08.69l-3.78,2.18a1.32,1.32,0,0,1-1.24.05Z" fill="#1565b2"/>
            <path id="Trazado_155557" data-name="Trazado 155557" d="M88.92,253.7,80.73,249c-.31-.17-.27-.48.08-.68l3.77-2.18a1.31,1.31,0,0,1,1.2,0l8.2,4.73c.3.18.26.49-.09.69l-3.77,2.18A1.38,1.38,0,0,1,88.92,253.7Z" fill="#173d7a"/>
            <path id="Trazado_155558" data-name="Trazado 155558" d="M93.1,249.5l-6.65-3.84c-.31-.18-.27-.49.08-.69l3.78-2.18a1.35,1.35,0,0,1,1.19,0l6.65,3.85c.31.17.27.48-.08.68L94.3,249.5A1.31,1.31,0,0,1,93.1,249.5Z" fill="#173d7a"/>
            <path id="Trazado_155559" data-name="Trazado 155559" d="M106.75,264l-3.81-2.2c-.3-.18-.27-.48.09-.69l3.77-2.18a1.35,1.35,0,0,1,1.19-.05l3.81,2.2c.3.18.27.49-.09.69l-3.77,2.18a1.32,1.32,0,0,1-1.19.05Z" fill="#1565b2"/>
            <path id="Trazado_155560" data-name="Trazado 155560" d="M112.63,267.38l-3.81-2.19c-.3-.18-.27-.49.09-.69l3.77-2.18a1.29,1.29,0,0,1,1.19-.05l3.81,2.2c.3.17.27.48-.09.69l-3.77,2.17a1.29,1.29,0,0,1-1.19.05Z" fill="#173d7a"/>
            <path id="Trazado_155561" data-name="Trazado 155561" d="M118.51,270.78l-3.81-2.2c-.31-.18-.27-.49.09-.69l3.77-2.18a1.35,1.35,0,0,1,1.19,0l3.81,2.2c.3.18.27.49-.09.69l-3.77,2.18a1.35,1.35,0,0,1-1.19,0Z" fill="#173d7a"/>
            <path id="Trazado_155562" data-name="Trazado 155562" d="M124.39,274.17l-3.81-2.2c-.31-.17-.27-.48.09-.68l3.77-2.18a1.29,1.29,0,0,1,1.19-.05l3.81,2.2c.3.17.27.48-.09.68l-3.77,2.18a1.29,1.29,0,0,1-1.19.05Z" fill="#173d7a"/>
            <path id="Trazado_155563" data-name="Trazado 155563" d="M130.27,277.57l-3.81-2.2c-.31-.18-.27-.49.09-.69l3.77-2.18a1.35,1.35,0,0,1,1.19-.05l3.81,2.2c.3.18.26.49-.09.69l-3.77,2.18A1.35,1.35,0,0,1,130.27,277.57Z" fill="#173d7a"/>
            <path id="Trazado_155564" data-name="Trazado 155564" d="M136.15,281l-3.81-2.2c-.31-.17-.27-.48.08-.69l3.78-2.17a1.29,1.29,0,0,1,1.19,0l3.81,2.2c.3.17.26.48-.09.68L137.34,281a1.29,1.29,0,0,1-1.19,0Z" fill="#173d7a"/>
            <path id="Trazado_155565" data-name="Trazado 155565" d="M142,284.36l-3.81-2.2c-.31-.18-.27-.49.08-.69l3.78-2.18a1.35,1.35,0,0,1,1.19-.05l3.81,2.2c.3.18.26.48-.09.69l-3.77,2.18A1.35,1.35,0,0,1,142,284.36Z" fill="#173d7a"/>
            <path id="Trazado_155566" data-name="Trazado 155566" d="M147.91,287.75l-3.81-2.2c-.31-.17-.27-.48.08-.69l3.78-2.17a1.29,1.29,0,0,1,1.19-.05l3.81,2.19c.3.18.26.49-.09.69l-3.77,2.18A1.32,1.32,0,0,1,147.91,287.75Z" fill="#173d7a"/>
            <path id="Trazado_155567" data-name="Trazado 155567" d="M153.78,291.15,150,289c-.31-.18-.27-.49.08-.69l3.78-2.18A1.32,1.32,0,0,1,155,286l3.81,2.2c.3.18.26.48-.09.69L155,291.1A1.38,1.38,0,0,1,153.78,291.15Z" fill="#173d7a"/>
            <path id="Trazado_155568" data-name="Trazado 155568" d="M164.24,297.18l-8.31-4.8c-.31-.17-.27-.48.09-.68l3.77-2.18a1.29,1.29,0,0,1,1.19,0l8.31,4.79c.3.18.27.49-.09.69l-3.77,2.18a1.32,1.32,0,0,1-1.19,0Z" fill="#173d7a"/>
            <path id="Trazado_155569" data-name="Trazado 155569" d="M175.68,290.57l-7-4.05c-.3-.17-.26-.48.09-.69l3.77-2.17a1.29,1.29,0,0,1,1.19-.05l7,4.05c.31.17.27.48-.08.68l-3.77,2.18a1.31,1.31,0,0,1-1.2.05Z" fill="#173d7a"/>
            <path id="Trazado_155570" data-name="Trazado 155570" d="M117.05,263.32l-3.81-2.19c-.31-.18-.27-.49.08-.69l3.78-2.18a1.32,1.32,0,0,1,1.19-.05l3.81,2.2c.3.18.26.48-.09.69l-3.77,2.18A1.32,1.32,0,0,1,117.05,263.32Z" fill="#173d7a"/>
            <path id="Trazado_155571" data-name="Trazado 155571" d="M111,259.85l-3.81-2.2c-.3-.18-.27-.49.09-.69l3.77-2.18a1.35,1.35,0,0,1,1.19-.05l3.81,2.2c.31.18.27.48-.09.69l-3.77,2.18a1.35,1.35,0,0,1-1.19.05Z" fill="#173d7a"/>
            <path id="Trazado_155572" data-name="Trazado 155572" d="M105,256.37l-3.8-2.2c-.31-.18-.27-.49.08-.69L105,251.3a1.38,1.38,0,0,1,1.2-.05l3.8,2.2c.31.18.27.49-.08.69l-3.77,2.18A1.38,1.38,0,0,1,105,256.37Z" fill="#1565b2"/>
            <path id="Trazado_155573" data-name="Trazado 155573" d="M99,252.89l-3.81-2.2c-.31-.18-.27-.49.09-.69L99,247.82a1.35,1.35,0,0,1,1.19,0L104,250c.3.18.27.49-.09.69l-3.77,2.18a1.35,1.35,0,0,1-1.14.02Z" fill="#173d7a"/>
            <path id="Trazado_155574" data-name="Trazado 155574" d="M122.92,266.72l-3.8-2.2c-.31-.18-.27-.48.08-.69l3.78-2.18a1.32,1.32,0,0,1,1.19,0L128,263.8c.3.18.26.49-.09.69l-3.77,2.18A1.34,1.34,0,0,1,122.92,266.72Z" fill="#173d7a"/>
            <path id="Trazado_155575" data-name="Trazado 155575" d="M128.8,270.11l-3.8-2.19c-.31-.18-.27-.49.08-.69l3.77-2.18a1.34,1.34,0,0,1,1.2-.05l3.8,2.2c.31.17.27.48-.08.69L130,270.06a1.31,1.31,0,0,1-1.2.05Z" fill="#173d7a"/>
            <path id="Trazado_155576" data-name="Trazado 155576" d="M134.68,273.51l-3.8-2.2c-.31-.18-.27-.48.08-.69l3.77-2.18a1.38,1.38,0,0,1,1.2-.05l3.8,2.2c.31.18.27.49-.08.69l-3.77,2.18a1.38,1.38,0,0,1-1.2.05Z" fill="#173d7a"/>
            <path id="Trazado_155577" data-name="Trazado 155577" d="M140.56,276.9l-3.8-2.2c-.31-.17-.27-.48.08-.68l3.77-2.18a1.31,1.31,0,0,1,1.2,0l3.8,2.2c.31.17.27.48-.08.69l-3.77,2.17A1.31,1.31,0,0,1,140.56,276.9Z" fill="#173d7a"/>
            <path id="Trazado_155578" data-name="Trazado 155578" d="M146.44,280.3l-3.8-2.2c-.31-.18-.27-.49.08-.69l3.77-2.18a1.38,1.38,0,0,1,1.2-.05l3.8,2.2c.31.18.27.49-.08.69l-3.77,2.18A1.38,1.38,0,0,1,146.44,280.3Z" fill="#173d7a"/>
            <path id="Trazado_155579" data-name="Trazado 155579" d="M152.32,283.69l-3.81-2.2c-.3-.17-.26-.48.09-.68l3.77-2.18a1.31,1.31,0,0,1,1.2-.05l3.8,2.2c.31.17.27.48-.08.68l-3.78,2.18A1.29,1.29,0,0,1,152.32,283.69Z" fill="#173d7a"/>
            <path id="Trazado_155580" data-name="Trazado 155580" d="M158.2,287.09l-3.81-2.2c-.3-.18-.26-.49.09-.69l3.77-2.18a1.38,1.38,0,0,1,1.2,0l3.8,2.2c.31.18.27.49-.08.69L159.39,287A1.35,1.35,0,0,1,158.2,287.09Z" fill="#173d7a"/>
            <path id="Trazado_155581" data-name="Trazado 155581" d="M164.08,290.48l-3.81-2.2c-.3-.17-.26-.48.09-.69l3.77-2.17a1.29,1.29,0,0,1,1.19-.05l3.81,2.19c.31.18.27.49-.08.69l-3.78,2.18A1.29,1.29,0,0,1,164.08,290.48Z" fill="#173d7a"/>
            <path id="Trazado_155582" data-name="Trazado 155582" d="M170,293.88l-3.81-2.2c-.3-.18-.26-.49.09-.69l3.77-2.18a1.32,1.32,0,0,1,1.19-.05L175,291c.31.18.27.48-.08.69l-3.78,2.18a1.35,1.35,0,0,1-1.14.01Z" fill="#173d7a"/>
            <path id="Trazado_155583" data-name="Trazado 155583" d="M114,254.93l-3.81-2.2c-.3-.18-.27-.48.09-.69l3.77-2.18a1.35,1.35,0,0,1,1.19-.05L119,252c.31.18.27.49-.09.69l-3.77,2.18a1.35,1.35,0,0,1-1.14.06Z" fill="#173d7a"/>
            <path id="Trazado_155584" data-name="Trazado 155584" d="M108.1,251.55l-3.81-2.2c-.3-.17-.27-.48.09-.69l3.77-2.17a1.29,1.29,0,0,1,1.19-.05l3.81,2.19c.31.18.27.49-.09.69l-3.77,2.18a1.29,1.29,0,0,1-1.19.05Z" fill="#173d7a"/>
            <path id="Trazado_155585" data-name="Trazado 155585" d="M102.25,248.17,98.44,246c-.3-.17-.27-.48.09-.68l3.77-2.18a1.29,1.29,0,0,1,1.19-.05l3.81,2.2c.3.17.27.48-.09.69l-3.77,2.17A1.29,1.29,0,0,1,102.25,248.17Z" fill="#173d7a"/>
            <path id="Trazado_155586" data-name="Trazado 155586" d="M96.4,244.8l-3.81-2.2c-.3-.18-.27-.49.09-.69l3.77-2.18a1.32,1.32,0,0,1,1.19,0l3.81,2.2c.3.18.27.48-.09.69l-3.77,2.18A1.35,1.35,0,0,1,96.4,244.8Z" fill="#173d7a"/>
            <path id="Trazado_155587" data-name="Trazado 155587" d="M102.41,241.32l-3.8-2.2c-.31-.17-.27-.48.08-.68l1.25-.72a1.29,1.29,0,0,1,1.19-.05l3.81,2.19c.31.18.27.49-.09.69l-1.24.72a1.31,1.31,0,0,1-1.2.05Z" fill="#173d7a"/>
            <path id="Trazado_155588" data-name="Trazado 155588" d="M110.05,245.73l-3.81-2.2c-.3-.17-.27-.48.09-.69l1.24-.72a1.38,1.38,0,0,1,1.2-.05l3.8,2.2c.31.18.27.49-.08.69l-1.25.72a1.32,1.32,0,0,1-1.19.05Z" fill="#173d7a"/>
            <path id="Trazado_155589" data-name="Trazado 155589" d="M115.87,249.09l-3.8-2.19c-.31-.18-.27-.49.08-.69l1.25-.72a1.29,1.29,0,0,1,1.19-.05l3.81,2.2c.31.17.27.48-.09.68l-1.24.72a1.31,1.31,0,0,1-1.2.05Z" fill="#173d7a"/>
            <path id="Trazado_155590" data-name="Trazado 155590" d="M121.7,252.46l-3.81-2.2c-.3-.18-.26-.49.09-.69l1.25-.72a1.32,1.32,0,0,1,1.19,0l3.81,2.2c.3.18.26.48-.09.69l-1.25.72a1.35,1.35,0,0,1-1.19,0Z" fill="#173d7a"/>
            <path id="Trazado_155591" data-name="Trazado 155591" d="M127.53,255.82l-3.81-2.2c-.31-.17-.27-.48.08-.69l1.25-.72a1.35,1.35,0,0,1,1.19-.05l3.81,2.2c.31.18.27.49-.08.69l-1.25.72a1.29,1.29,0,0,1-1.19.05Z" fill="#173d7a"/>
            <path id="Trazado_155592" data-name="Trazado 155592" d="M160.05,274.6l-3.81-2.2c-.3-.18-.26-.48.09-.69l1.25-.72a1.35,1.35,0,0,1,1.19-.05l3.81,2.2c.3.18.26.49-.09.69l-1.25.72a1.32,1.32,0,0,1-1.19.05Z" fill="#173d7a"/>
            <path id="Trazado_155593" data-name="Trazado 155593" d="M165.88,278l-3.81-2.2c-.31-.17-.27-.48.09-.68l1.24-.72a1.31,1.31,0,0,1,1.2-.05l3.8,2.19c.31.18.27.49-.08.69l-1.25.72A1.29,1.29,0,0,1,165.88,278Z" fill="#173d7a"/>
            <path id="Trazado_155594" data-name="Trazado 155594" d="M171.7,281.33l-3.8-2.2c-.31-.18-.27-.49.08-.69l1.25-.72a1.32,1.32,0,0,1,1.19-.05l3.81,2.2c.3.17.27.48-.09.69l-1.24.72A1.38,1.38,0,0,1,171.7,281.33Z" fill="#173d7a"/>
            <path id="Trazado_155595" data-name="Trazado 155595" d="M177.53,284.69l-3.81-2.2c-.3-.17-.27-.48.09-.69l1.24-.72a1.38,1.38,0,0,1,1.2-.05l3.8,2.2c.31.18.27.49-.08.69l-1.25.72A1.32,1.32,0,0,1,177.53,284.69Z" fill="#173d7a"/>
            <path id="Trazado_155596" data-name="Trazado 155596" d="M119.83,258.32l-3.81-2.2c-.3-.17-.27-.48.09-.68l3.77-2.18a1.29,1.29,0,0,1,1.19,0l3.81,2.2c.3.17.27.48-.09.69L121,258.27a1.29,1.29,0,0,1-1.17.05Z" fill="#173d7a"/>
            <path id="Trazado_155597" data-name="Trazado 155597" d="M125.71,261.72l-3.81-2.2c-.3-.18-.27-.49.09-.69l3.77-2.18a1.35,1.35,0,0,1,1.19,0l3.81,2.2c.3.18.27.49-.09.69l-3.77,2.18A1.35,1.35,0,0,1,125.71,261.72Z" fill="#173d7a"/>
            <path id="Trazado_155598" data-name="Trazado 155598" d="M131.59,265.11l-3.81-2.2c-.31-.17-.27-.48.09-.68l3.77-2.18a1.29,1.29,0,0,1,1.19-.05l3.81,2.2c.3.17.27.48-.09.68l-3.77,2.18a1.29,1.29,0,0,1-1.19.05Z" fill="#173d7a"/>
            <path id="Trazado_155599" data-name="Trazado 155599" d="M137.47,268.51l-3.81-2.2c-.31-.18-.27-.49.09-.69l3.77-2.18a1.35,1.35,0,0,1,1.19-.05l3.81,2.2c.3.18.27.49-.09.69l-3.77,2.18A1.35,1.35,0,0,1,137.47,268.51Z" fill="#173d7a"/>
            <path id="Trazado_155600" data-name="Trazado 155600" d="M143.35,271.9l-3.81-2.2c-.31-.17-.27-.48.09-.69l3.77-2.17a1.29,1.29,0,0,1,1.19,0l3.81,2.2c.3.17.26.48-.09.68l-3.77,2.18a1.29,1.29,0,0,1-1.19,0Z" fill="#173d7a"/>
            <path id="Trazado_155601" data-name="Trazado 155601" d="M149.23,275.3l-3.81-2.2c-.31-.18-.27-.49.08-.69l3.78-2.18a1.35,1.35,0,0,1,1.19-.05l3.81,2.2c.3.18.26.48-.09.69l-3.77,2.18A1.35,1.35,0,0,1,149.23,275.3Z" fill="#173d7a"/>
            <path id="Trazado_155602" data-name="Trazado 155602" d="M155.11,278.69l-3.81-2.2c-.31-.17-.27-.48.08-.69l3.78-2.17a1.29,1.29,0,0,1,1.19-.05l3.81,2.19c.3.18.26.49-.09.69l-3.77,2.18a1.32,1.32,0,0,1-1.19.05Z" fill="#173d7a"/>
            <path id="Trazado_155603" data-name="Trazado 155603" d="M161,282.08l-3.81-2.19c-.31-.18-.27-.49.08-.69L161,277a1.32,1.32,0,0,1,1.19,0l3.81,2.2c.3.18.26.48-.09.69L162.18,282A1.32,1.32,0,0,1,161,282.08Z" fill="#173d7a"/>
            <path id="Trazado_155604" data-name="Trazado 155604" d="M166.86,285.48l-3.8-2.2c-.31-.18-.27-.48.08-.69l3.78-2.18a1.32,1.32,0,0,1,1.19,0l3.81,2.19c.3.18.26.49-.09.69l-3.77,2.18a1.34,1.34,0,0,1-1.2.01Z" fill="#173d7a"/>
            <path id="Trazado_155605" data-name="Trazado 155605" d="M86.21,258.74,75,252.27c-.3-.18-.27-.49.09-.69l3.77-2.18a1.35,1.35,0,0,1,1.19-.05l11.22,6.48c.3.17.26.48-.09.68l-3.77,2.18a1.31,1.31,0,0,1-1.2.05Z" fill="#173d7a"/>
            <path id="Trazado_155606" data-name="Trazado 155606" d="M158.45,300.44,147.23,294c-.3-.18-.26-.48.09-.69l3.77-2.18a1.32,1.32,0,0,1,1.19,0l11.22,6.47c.3.18.26.48-.09.69l-3.77,2.18A1.32,1.32,0,0,1,158.45,300.44Z" fill="#173d7a"/>
            <path id="Trazado_155607" data-name="Trazado 155607" d="M134.93,294.37l-3.8-2.2c-.31-.18-.27-.49.08-.69l4.49-2.59a1.31,1.31,0,0,1,1.2-.05l3.8,2.2c.31.17.27.48-.08.68l-4.49,2.6a1.38,1.38,0,0,1-1.2.05Z" fill="#173d7a"/>
            <path id="Trazado_155608" data-name="Trazado 155608" d="M92.24,269.72l-6.09-3.52c-.31-.18-.27-.48.08-.69l4.5-2.59a1.29,1.29,0,0,1,1.19-.05L98,266.38c.3.18.26.49-.09.69l-4.49,2.6a1.35,1.35,0,0,1-1.18.05Z" fill="#173d7a"/>
            <path id="Trazado_155609" data-name="Trazado 155609" d="M129.27,291.1l-6.09-3.52c-.31-.17-.27-.48.08-.69l4.5-2.59a1.29,1.29,0,0,1,1.19-.05l6.09,3.51c.31.18.27.49-.09.69l-4.49,2.6a1.35,1.35,0,0,1-1.19.05Z" fill="#173d7a"/>
            <path id="Trazado_155610" data-name="Trazado 155610" d="M100.72,274.61l-6.09-3.51c-.31-.18-.27-.49.09-.69l4.49-2.59a1.29,1.29,0,0,1,1.19-.05l6.09,3.51c.31.18.27.49-.09.69l-4.49,2.59A1.29,1.29,0,0,1,100.72,274.61Z" fill="#173d7a"/>
            <path id="Trazado_155611" data-name="Trazado 155611" d="M100.44,267.79l26.48,15.28a.37.37,0,0,1,0,.69l-4.59,2.65a1.31,1.31,0,0,1-1.19,0L94.67,271.12Z" fill="#173d7a"/>
            <path id="Trazado_155612" data-name="Trazado 155612" d="M151.37,300.52l4.24,2.45c.25.15.22.4-.07.57l-1.84,1.06a1.13,1.13,0,0,1-1,0l-4.24-2.45c-.25-.15-.22-.4.07-.57l1.84-1.06A1.13,1.13,0,0,1,151.37,300.52Z" fill="#173d7a"/>
            <path id="Trazado_155613" data-name="Trazado 155613" d="M145.44,297.1l4.24,2.45c.25.14.22.4-.07.56l-1.84,1.06a1.07,1.07,0,0,1-1,0l-4.24-2.44c-.25-.15-.22-.4.07-.57l1.84-1.06A1.1,1.1,0,0,1,145.44,297.1Z" fill="#173d7a"/>
            <path id="Trazado_155614" data-name="Trazado 155614" d="M139.56,293.71l4.24,2.44c.25.15.22.4-.07.57l-1.84,1.06a1.1,1.1,0,0,1-1,0l-4.24-2.45c-.25-.14-.22-.4.07-.56l1.84-1.06a1.07,1.07,0,0,1,1,0Z" fill="#173d7a"/>
            <path id="Trazado_155615" data-name="Trazado 155615" d="M148.68,295.23l4.24,2.44c.26.15.22.4-.07.57L151,299.3a1.1,1.1,0,0,1-1,0l-4.24-2.45c-.25-.14-.22-.4.07-.56l1.84-1.06A1,1,0,0,1,148.68,295.23Z" fill="#173d7a"/>
          </g>
        </g>
        <g id="Grupo_86051" data-name="Grupo 86051" clip-path="url(#clip-path)">
          <g id="Grupo_86050" data-name="Grupo 86050">
            <path id="Trazado_155616" data-name="Trazado 155616" d="M104.08,230.41l14.7-66.73,85.71,49.98L189.4,281.45Z" fill="#fff"/>
            <g id="Grupo_86045" data-name="Grupo 86045">
              <path id="Trazado_155617" data-name="Trazado 155617" d="M173.29,247.79l-44.61-26.48c-1.35-.8-2.09-3-1.65-5l.35-1.56c.44-1.95,1.89-2.89,3.25-2.09l44.63,26.41c1.38.81,2.13,3.07,1.69,5l-.36,1.57C176.15,247.67,174.67,248.61,173.29,247.79Z" fill="#f1f1f1"/>
              <path id="Trazado_155618" data-name="Trazado 155618" d="M173.29,247.79l-1.1-.65c-1.38-.82-2.13-3.08-1.68-5l.35-1.57c.45-2,1.92-2.91,3.3-2.09l1.1.65c1.38.81,2.13,3.07,1.69,5l-.36,1.57C176.15,247.67,174.67,248.61,173.29,247.79Z" fill="#e6e6e6"/>
              <path id="Trazado_155619" data-name="Trazado 155619" d="M175.37,245.6l-1.22-2.42a.12.12,0,0,0-.14-.07l-.36-.77a2,2,0,0,0,.09-1.86c-.32-.68-.94-.89-1.37-.47a1.84,1.84,0,0,0-.21,2c.29.62.83.85,1.25.57l.37.77a.26.26,0,0,0,0,.21l1.12,2.51c0,.09.13.1.21,0l.21-.2A.27.27,0,0,0,175.37,245.6Zm-3.14-3.66a1.7,1.7,0,0,1,.19-1.83c.4-.38,1-.19,1.25.43a1.7,1.7,0,0,1-.19,1.83C173.08,242.75,172.52,242.56,172.23,241.94Z" fill="#b3b3b3"/>
            </g>
            <g id="Grupo_86049" data-name="Grupo 86049">
              <path id="Trazado_155620" data-name="Trazado 155620" d="M203.31,218.87l-85.68-50.06,1.15-5.13,85.71,49.98Z" fill="#93b3d8"/>
              <path id="Trazado_155621" data-name="Trazado 155621" d="M139.05,180.37l-.39-2.49a1.88,1.88,0,0,0-.77-1.41l-10.51-6.13a.83.83,0,0,0-1.15.28L125,172.13a.85.85,0,0,1-1.15.29l-6.17-3.61-.9,4L202.38,223l.93-4.09-63.49-37.09A1.85,1.85,0,0,1,139.05,180.37Z" fill="#e6e6e6"/>
              <path id="Trazado_155622" data-name="Trazado 155622" d="M151.17,187.46,140.09,181a.59.59,0,0,1-.25-.44l-.3-2.26c0-.41.21-.73.48-.57l11.08,6.46a.59.59,0,0,1,.25.44l.3,2.27C151.71,187.3,151.44,187.62,151.17,187.46Z" fill="#d3d3d3"/>
              <path id="Trazado_155623" data-name="Trazado 155623" d="M155.7,190.11l-2.84-1.66a.59.59,0,0,1-.25-.44l-.3-2.26c-.06-.42.21-.74.48-.58l2.84,1.65a.6.6,0,0,1,.25.45l.3,2.26C156.24,190,156,190.27,155.7,190.11Z" fill="#d3d3d3"/>
              <g id="Grupo_86046" data-name="Grupo 86046">
                <path id="Trazado_155624" data-name="Trazado 155624" d="M122.28,169.06c-.11.5-.48.74-.83.54a1.21,1.21,0,0,1-.42-1.28c.11-.5.48-.74.83-.54a1.21,1.21,0,0,1,.42,1.28Z" fill="#e2e2e2"/>
                <path id="Trazado_155625" data-name="Trazado 155625" d="M124.11,170.13c-.11.5-.48.74-.83.54a1.22,1.22,0,0,1-.42-1.28c.11-.5.48-.74.83-.54a1.21,1.21,0,0,1,.42,1.28Z" fill="#c4c4c4"/>
                <path id="Trazado_155626" data-name="Trazado 155626" d="M120.45,168c-.11.5-.48.74-.83.54a1.21,1.21,0,0,1-.42-1.28c.11-.5.48-.74.83-.54a1.22,1.22,0,0,1,.42,1.28Z" fill="#fff"/>
              </g>
              <path id="Trazado_155627" data-name="Trazado 155627" d="M198.67,219.89,124.3,176.37a1.31,1.31,0,0,1-.46-1.38l.09-.44c.13-.54.53-.81.91-.59l74.38,43.48a1.38,1.38,0,0,1,.48,1.42l-.1.44C199.47,219.85,199.06,220.11,198.67,219.89Z" fill="#fff"/>
              <g id="Grupo_86047" data-name="Grupo 86047">
                <path id="Trazado_155628" data-name="Trazado 155628" d="M119.88,173.58l.46-2.04-1.64.2Z" fill="#b3b3b3"/>
                <path id="Trazado_155629" data-name="Trazado 155629" d="M121.08,174.28l.45-2.04,1.18,1.85Z" fill="#b3b3b3"/>
              </g>
              <g id="Grupo_86048" data-name="Grupo 86048">
                <path id="Trazado_155630" data-name="Trazado 155630" d="M202.21,220.26l-1.8-1.06a.21.21,0,0,1-.08-.23h0a.106.106,0,0,1,.15-.1l1.8,1.06a.21.21,0,0,1,.08.23h0C202.34,220.25,202.27,220.29,202.21,220.26Z" fill="#b3b3b3"/>
                <path id="Trazado_155631" data-name="Trazado 155631" d="M202.06,221l-1.84-1.08a.19.19,0,0,1-.07-.19v-.06a.083.083,0,0,1,.12-.08l1.84,1.08a.16.16,0,0,1,.07.19v.06C202.17,221,202.11,221.05,202.06,221Z" fill="#b3b3b3"/>
                <path id="Trazado_155632" data-name="Trazado 155632" d="M202.38,219.51l-1.8-1.06a.21.21,0,0,1-.08-.23h0a.106.106,0,0,1,.15-.1l1.8,1.06a.21.21,0,0,1,.08.23h0C202.51,219.5,202.44,219.54,202.38,219.51Z" fill="#b3b3b3"/>
                <path id="Trazado_155633" data-name="Trazado 155633" d="M201.89,221.77l-1.84-1.08a.19.19,0,0,1-.07-.19v-.06a.08.08,0,0,1,.12-.08l1.85,1.08a.18.18,0,0,1,.06.19v.06C202,221.76,201.94,221.8,201.89,221.77Z" fill="#b3b3b3"/>
              </g>
            </g>
          </g>
        </g>
      </g>
      <path id="Trazado_160533" data-name="Trazado 160533" d="M10.5-3.718,13.588-12.8h2.628L11.461,0H8.868L8.191-8.525,4.843,0H2.25L1.494-12.8H4.008l.255,9.035L7.708-12.8H9.9ZM19.9.176a4.137,4.137,0,0,1-2.21-.611,3.7,3.7,0,0,1-1.437-1.652A4.605,4.605,0,0,1,15.882-4.4l.026-.352A6.148,6.148,0,0,1,16.717-7.3a4.884,4.884,0,0,1,1.74-1.789,4.306,4.306,0,0,1,2.355-.593,3.29,3.29,0,0,1,2.782,1.351A4.631,4.631,0,0,1,24.311-5L24.17-3.92H18.343a2.041,2.041,0,0,0,.448,1.477,1.711,1.711,0,0,0,1.318.571,3.041,3.041,0,0,0,2.373-1.055l1.134,1.406A3.527,3.527,0,0,1,22.069-.259,5.059,5.059,0,0,1,19.9.176Zm.791-7.813a1.761,1.761,0,0,0-1.217.431,3.784,3.784,0,0,0-.954,1.556h3.41l.053-.229a2.33,2.33,0,0,0,.009-.668,1.276,1.276,0,0,0-.431-.8A1.35,1.35,0,0,0,20.689-7.638ZM34.049-4.729a6.819,6.819,0,0,1-1.371,3.6A3.412,3.412,0,0,1,29.813.185a2.652,2.652,0,0,1-2.285-1.213L27.167,0H24.908l2.338-13.5h2.487l-.958,4.86A2.963,2.963,0,0,1,31.1-9.686a2.683,2.683,0,0,1,2.167.989A4.376,4.376,0,0,1,34.1-6.012,10.274,10.274,0,0,1,34.049-4.729Zm-2.461-.185a7.373,7.373,0,0,0,.053-1.164q-.1-1.534-1.266-1.56a2.062,2.062,0,0,0-1.819,1L27.87-2.851a1.415,1.415,0,0,0,1.424.987q1.828.053,2.241-2.662ZM39.419,0l2.224-12.8,3.99.009a5.293,5.293,0,0,1,3.34.905A2.8,2.8,0,0,1,49.983-9.36a3.223,3.223,0,0,1-2.241,2.839,2.15,2.15,0,0,1,1.187.989,2.959,2.959,0,0,1,.36,1.709A3.7,3.7,0,0,1,47.87-1.006,5.629,5.629,0,0,1,44.332,0ZM42.97-5.572l-.606,3.454,2.03.009a2.618,2.618,0,0,0,1.591-.47,1.866,1.866,0,0,0,.765-1.27,1.577,1.577,0,0,0-.215-1.235A1.427,1.427,0,0,0,45.4-5.563Zm.316-1.863,1.749.018a2.785,2.785,0,0,0,1.6-.457A1.772,1.772,0,0,0,47.373-9.1q.22-1.547-1.626-1.556l-1.9-.009Zm13.72.308a5.117,5.117,0,0,0-.835-.088,2.4,2.4,0,0,0-2.1.993L52.972,0H50.493l1.652-9.51,2.329-.009-.229,1.16A2.615,2.615,0,0,1,56.461-9.7a3.615,3.615,0,0,1,.861.123Zm4.711-2.558a3.814,3.814,0,0,1,2.167.646A3.638,3.638,0,0,1,65.22-7.308a5.357,5.357,0,0,1,.3,2.448,5.786,5.786,0,0,1-1.578,3.669,4.455,4.455,0,0,1-3.4,1.367A3.8,3.8,0,0,1,58.4-.461,3.624,3.624,0,0,1,57.068-2.18a5.239,5.239,0,0,1-.308-2.426,5.957,5.957,0,0,1,1.6-3.744A4.363,4.363,0,0,1,61.717-9.686Zm-2.5,5.979a2.194,2.194,0,0,0,.4,1.33,1.314,1.314,0,0,0,1.063.5,1.926,1.926,0,0,0,1.793-1.049,5.227,5.227,0,0,0,.606-2.848,2.387,2.387,0,0,0-.409-1.347,1.293,1.293,0,0,0-1.068-.522A1.929,1.929,0,0,0,59.823-6.6,5.173,5.173,0,0,0,59.212-3.706Zm15.609.243L77.08-9.51h2.47l-4,9.51H73.477l-.7-5.95L70,0H67.922l-.7-9.51h2.32l.149,5.985L72.4-9.51H74.2Zm9.844.782q.141-.7-.976-1.02l-.8-.2q-2.839-.782-2.76-2.76a2.731,2.731,0,0,1,1.191-2.193,4.434,4.434,0,0,1,2.764-.831,3.978,3.978,0,0,1,2.6.853A2.809,2.809,0,0,1,87.7-6.609l-2.461-.009a1.084,1.084,0,0,0-1.213-1.239,1.745,1.745,0,0,0-1.006.29,1.194,1.194,0,0,0-.523.782q-.132.7,1.063.993l.352.079a7.071,7.071,0,0,1,1.854.664,2.8,2.8,0,0,1,.989.927,2.3,2.3,0,0,1,.321,1.327,2.533,2.533,0,0,1-.584,1.582A3.577,3.577,0,0,1,84.96-.167a5.328,5.328,0,0,1-2.043.343,4.015,4.015,0,0,1-2.637-.91,2.933,2.933,0,0,1-1.072-2.307l2.338.018A1.285,1.285,0,0,0,83-1.644a2.076,2.076,0,0,0,1.129-.281A1.111,1.111,0,0,0,84.665-2.681ZM92.734.176a4.137,4.137,0,0,1-2.21-.611,3.7,3.7,0,0,1-1.437-1.652A4.605,4.605,0,0,1,88.717-4.4l.026-.352A6.148,6.148,0,0,1,89.552-7.3a4.884,4.884,0,0,1,1.74-1.789,4.306,4.306,0,0,1,2.355-.593A3.29,3.29,0,0,1,96.43-8.334,4.631,4.631,0,0,1,97.146-5L97.005-3.92H91.178a2.041,2.041,0,0,0,.448,1.477,1.711,1.711,0,0,0,1.318.571,3.041,3.041,0,0,0,2.373-1.055l1.134,1.406A3.527,3.527,0,0,1,94.9-.259,5.059,5.059,0,0,1,92.734.176Zm.791-7.813a1.761,1.761,0,0,0-1.217.431,3.784,3.784,0,0,0-.954,1.556h3.41l.053-.229a2.33,2.33,0,0,0,.009-.668,1.276,1.276,0,0,0-.431-.8A1.35,1.35,0,0,0,93.525-7.638Zm10.731.51a5.117,5.117,0,0,0-.835-.088,2.4,2.4,0,0,0-2.1.993L100.222,0H97.744L99.4-9.51l2.329-.009-.229,1.16A2.615,2.615,0,0,1,103.711-9.7a3.615,3.615,0,0,1,.861.123Z" transform="translate(69.88 376)" fill="#12263f"/>
      <g id="Grupo_86058" data-name="Grupo 86058">
        <g id="Grupo_86057" data-name="Grupo 86057">
          <g id="Grupo_86056" data-name="Grupo 86056">
            <g id="Grupo_86053" data-name="Grupo 86053">
              <path id="Trazado_155635" data-name="Trazado 155635" d="M479.67,467.82c0,3.64,14.8,6.59,33.05,6.59s33-3,33-6.59V444.61H479.67Z" fill="#35afea"/>
              <path id="Trazado_155636" data-name="Trazado 155636" d="M512.72,438c-18.25,0-33.05,2.95-33.05,6.6s14.8,6.59,33.05,6.59,33-2.95,33-6.59S531,438,512.72,438Z" fill="#02749e"/>
            </g>
            <g id="Grupo_86054" data-name="Grupo 86054">
              <path id="Trazado_155637" data-name="Trazado 155637" d="M479.67,439.33c0,3.64,14.8,6.59,33.05,6.59s33-2.95,33-6.59V416.12H479.67Z" fill="#35afea"/>
              <path id="Trazado_155638" data-name="Trazado 155638" d="M512.72,409.53c-18.25,0-33.05,2.94-33.05,6.59s14.8,6.59,33.05,6.59,33-2.95,33-6.59S531,409.53,512.72,409.53Z" fill="#02749e"/>
            </g>
            <g id="Grupo_86055" data-name="Grupo 86055">
              <path id="Trazado_155639" data-name="Trazado 155639" d="M479.67,410.84c0,3.65,14.8,6.6,33.05,6.6s33-2.95,33-6.6V387.63H479.67Z" fill="#35afea"/>
              <path id="Trazado_155640" data-name="Trazado 155640" d="M512.72,381c-18.25,0-33.05,2.95-33.05,6.59s14.8,6.6,33.05,6.6,33-3,33-6.6S531,381,512.72,381Z" fill="#68c3ef"/>
            </g>
          </g>
          <path id="Trazado_155641" data-name="Trazado 155641" d="M479.67,387.63v23.21c0,.94,1,1.83,2.77,2.64-1.77.81-2.77,1.7-2.77,2.64v23.21c0,.94,1,1.83,2.77,2.64-1.77.81-2.77,1.7-2.77,2.64v23.21c0,3.64,14.8,6.59,33.05,6.59V381C494.47,381,479.67,384,479.67,387.63Z" fill="#cedbee"/>
        </g>
        <path id="Trazado_155642" data-name="Trazado 155642" d="M538.68,392.82a2.71,2.71,0,0,0-2.63,2.79v15.2a2.63,2.63,0,0,0,5.26,0v-15.2a2.72,2.72,0,0,0-2.63-2.79Z" fill="#a2bac3"/>
        <path id="Trazado_155643" data-name="Trazado 155643" d="M538.68,421.65a2.71,2.71,0,0,0-2.63,2.79v15.19a2.63,2.63,0,0,0,5.26,0V424.44A2.72,2.72,0,0,0,538.68,421.65Z" fill="#a2bac3"/>
        <path id="Trazado_155644" data-name="Trazado 155644" d="M538.68,450.14a2.71,2.71,0,0,0-2.63,2.78v15.2a2.63,2.63,0,0,0,5.26,0v-15.2a2.71,2.71,0,0,0-2.63-2.78Z" fill="#a2bac3"/>
      </g>
    </g>
  </g>
</svg>
