<svg xmlns="http://www.w3.org/2000/svg" xmlns:xlink="http://www.w3.org/1999/xlink" width="886.6" height="503.141" viewBox="0 0 886.6 503.141">
  <defs>
    <linearGradient id="linear-gradient" x1="0.5" y1="1" x2="0.5" gradientUnits="objectBoundingBox">
      <stop offset="0" stop-color="#9a9a9a"/>
      <stop offset="0.09" stop-color="#a2a2a2"/>
      <stop offset="0.24" stop-color="#b8b8b8"/>
      <stop offset="0.42" stop-color="#dbdbdb"/>
      <stop offset="0.45" stop-color="#e2e2e2"/>
      <stop offset="1" stop-color="#c5c5c5"/>
    </linearGradient>
    <linearGradient id="linear-gradient-2" x1="0.5" y1="1.001" x2="0.5" gradientUnits="objectBoundingBox">
      <stop offset="0" stop-color="#3e3e3e"/>
      <stop offset="0.28" stop-color="#414141"/>
      <stop offset="0.45" stop-color="#494949"/>
      <stop offset="0.58" stop-color="#575757"/>
      <stop offset="0.71" stop-color="#6b6b6b"/>
      <stop offset="0.82" stop-color="#868686"/>
      <stop offset="0.92" stop-color="#a5a5a5"/>
      <stop offset="1" stop-color="#c5c5c5"/>
    </linearGradient>
    <linearGradient id="linear-gradient-3" y1="0.5" x2="1" y2="0.5" gradientUnits="objectBoundingBox">
      <stop offset="0" stop-color="#929292"/>
      <stop offset="0.01" stop-color="#c1c1c1"/>
      <stop offset="0.03" stop-color="#b2b2b2"/>
      <stop offset="0.05" stop-color="#9c9c9c"/>
      <stop offset="0.07" stop-color="#a4a4a4"/>
      <stop offset="0.09" stop-color="#b0b0b0"/>
      <stop offset="1" stop-color="#cfcfcf"/>
    </linearGradient>
    <linearGradient id="linear-gradient-4" y1="0.493" x2="1" y2="0.493" gradientUnits="objectBoundingBox">
      <stop offset="0.01" stop-color="#f7f7f7"/>
      <stop offset="0.06" stop-color="#d0d0d0"/>
      <stop offset="0.5" stop-color="#f7f7f7"/>
      <stop offset="0.87" stop-color="#d0d0d0"/>
      <stop offset="0.87" stop-color="#d2d2d2"/>
      <stop offset="0.95" stop-color="#e8e8e8"/>
      <stop offset="1" stop-color="#f0f0f0"/>
    </linearGradient>
    <linearGradient id="linear-gradient-5" y1="0.5" x2="1" y2="0.5" gradientUnits="objectBoundingBox">
      <stop offset="0" stop-color="#cfcfcf"/>
      <stop offset="0.91" stop-color="#b0b0b0"/>
      <stop offset="0.93" stop-color="#a4a4a4"/>
      <stop offset="0.95" stop-color="#9c9c9c"/>
      <stop offset="0.97" stop-color="#b2b2b2"/>
      <stop offset="0.99" stop-color="#c1c1c1"/>
      <stop offset="1" stop-color="#929292"/>
    </linearGradient>
    <linearGradient id="linear-gradient-6" y1="0.5" x2="1" y2="0.5" gradientUnits="objectBoundingBox">
      <stop offset="0" stop-color="#666"/>
      <stop offset="0.01" stop-color="#d5d5d5"/>
      <stop offset="0.02" stop-color="#bebebe"/>
      <stop offset="0.04" stop-color="#878787"/>
      <stop offset="0.05" stop-color="#717171"/>
      <stop offset="0.06" stop-color="#797979"/>
      <stop offset="0.07" stop-color="#8f8f8f"/>
      <stop offset="0.09" stop-color="#b3b3b3"/>
      <stop offset="0.09" stop-color="#bcbcbc"/>
      <stop offset="1" stop-color="#f0f0f0"/>
    </linearGradient>
    <linearGradient id="linear-gradient-7" y1="0.5" x2="1" y2="0.5" gradientUnits="objectBoundingBox">
      <stop offset="0" stop-color="#f0f0f0"/>
      <stop offset="0.91" stop-color="#bcbcbc"/>
      <stop offset="0.91" stop-color="#b3b3b3"/>
      <stop offset="0.93" stop-color="#8f8f8f"/>
      <stop offset="0.94" stop-color="#797979"/>
      <stop offset="0.95" stop-color="#717171"/>
      <stop offset="0.96" stop-color="#878787"/>
      <stop offset="0.98" stop-color="#bebebe"/>
      <stop offset="0.99" stop-color="#d5d5d5"/>
      <stop offset="1" stop-color="#666"/>
    </linearGradient>
    <linearGradient id="linear-gradient-8" y1="0.5" x2="1" y2="0.5" gradientUnits="objectBoundingBox">
      <stop offset="0" stop-color="#9f9f9f"/>
      <stop offset="0.04" stop-color="#adadad"/>
      <stop offset="0.51" stop-color="#e5e5e5"/>
      <stop offset="0.96" stop-color="#adadad"/>
      <stop offset="1" stop-color="#9f9f9f"/>
    </linearGradient>
    <linearGradient id="linear-gradient-9" y1="0.5" x2="1" y2="0.5" gradientUnits="objectBoundingBox">
      <stop offset="0" stop-color="#f6f6f6"/>
      <stop offset="0.52" stop-color="#f7f7f7"/>
      <stop offset="1" stop-color="#f6f6f6"/>
    </linearGradient>
    <linearGradient id="linear-gradient-10" x1="0.5" y1="1" x2="0.5" gradientUnits="objectBoundingBox">
      <stop offset="0" stop-color="#565656"/>
      <stop offset="0.74" stop-color="#b9b9b9"/>
      <stop offset="0.85" stop-color="#b6b6b6"/>
      <stop offset="0.94" stop-color="#acacac"/>
      <stop offset="1" stop-color="#9f9f9f"/>
    </linearGradient>
  </defs>
  <g id="infografia1" transform="translate(-176.7 -90.93)">
    <g id="Grupo_87632" data-name="Grupo 87632">
      <g id="Grupo_87617" data-name="Grupo 87617">
        <g id="Grupo_87616" data-name="Grupo 87616">
          <g id="Grupo_87610" data-name="Grupo 87610">
            <path id="Trazado_159994" data-name="Trazado 159994" d="M961.05,94H286.23a21.75,21.75,0,0,0-21.9,21.6V567h3.13V112.52a18.448,18.448,0,0,1,.22-2.8,4.69,4.69,0,0,1,.16-.91c.06-.3.13-.6.21-.89s.16-.59.25-.88a18.39,18.39,0,0,1,3.73-6.59c.2-.23.4-.44.61-.66a4.213,4.213,0,0,1,.31-.31A18.671,18.671,0,0,1,276.1,97c.38-.24.77-.46,1.17-.68s.8-.41,1.21-.59h0l.83-.34h0a19,19,0,0,1,6.85-1.28H961a18.83,18.83,0,0,1,8.91,2.23c.4.22.79.44,1.17.68s1,.67,1.47,1h0l.69.57h0c.34.29.66.59,1,.91l.32.31c.2.22.41.43.6.66a18.21,18.21,0,0,1,4.57,12.07V567h3.17V114.26A21.77,21.77,0,0,0,961.05,94Z" fill="url(#linear-gradient)"/>
            <path id="Trazado_159995" data-name="Trazado 159995" d="M264.29,112.53a21.75,21.75,0,0,1,21.89-21.6H961a21.75,21.75,0,0,1,21.89,21.6v1.73A21.77,21.77,0,0,0,961.05,94H286.23a21.75,21.75,0,0,0-21.9,21.6Z" fill="url(#linear-gradient-2)"/>
            <g id="Grupo_87609" data-name="Grupo 87609">
              <rect id="Rectángulo_37345" data-name="Rectángulo 37345" width="712.27" height="12.64" transform="translate(267.46 554.37)"/>
              <path id="Trazado_159996" data-name="Trazado 159996" d="M979.73,112.63V554.37H267.46V112.63a18.67,18.67,0,0,1,18.72-18.57H961A18.67,18.67,0,0,1,979.73,112.63Z"/>
              <path id="Trazado_159997" data-name="Trazado 159997" d="M982.9,567v1.16h-3.17v-.01H267.46v.01h-3.13V567Z"/>
            </g>
          </g>
          <g id="Grupo_87615" data-name="Grupo 87615">
            <g id="Grupo_87614" data-name="Grupo 87614">
              <g id="Grupo_87611" data-name="Grupo 87611">
                <rect id="Rectángulo_37346" data-name="Rectángulo 37346" width="443.3" height="13.42" transform="translate(176.7 568.83)" fill="url(#linear-gradient-3)"/>
                <rect id="Rectángulo_37347" data-name="Rectángulo 37347" width="886.6" height="0.67" transform="translate(176.7 568.16)" fill="url(#linear-gradient-4)"/>
                <rect id="Rectángulo_37348" data-name="Rectángulo 37348" width="443.3" height="13.42" transform="translate(620 568.83)" fill="url(#linear-gradient-5)"/>
              </g>
              <g id="Grupo_87612" data-name="Grupo 87612">
                <rect id="Rectángulo_37349" data-name="Rectángulo 37349" width="443.3" height="12.63" transform="translate(176.7 568.83)" fill="url(#linear-gradient-6)"/>
                <rect id="Rectángulo_37350" data-name="Rectángulo 37350" width="443.3" height="12.63" transform="translate(620 568.83)" fill="url(#linear-gradient-7)"/>
              </g>
              <path id="Trazado_159998" data-name="Trazado 159998" d="M683.1,568.16a10.28,10.28,0,0,1-10.28,10.28H567.17a10.28,10.28,0,0,1-10.27-10.28Z" fill="url(#linear-gradient-8)"/>
              <g id="Grupo_87613" data-name="Grupo 87613">
                <path id="Trazado_159999" data-name="Trazado 159999" d="M683.1,568.16a10.28,10.28,0,0,1-10.27,10.28H567.17a10.27,10.27,0,0,1-10.26-10.28h-.5v.77a10.26,10.26,0,0,0,10.27,10.26H673.32a10.26,10.26,0,0,0,10.27-10.26v-.77Z" fill="url(#linear-gradient-9)"/>
              </g>
            </g>
            <path id="Trazado_160000" data-name="Trazado 160000" d="M176.7,582.25A396,396,0,0,0,273,594.07H967a396,396,0,0,0,96.29-11.82Z" fill="url(#linear-gradient-10)"/>
          </g>
        </g>
        <rect id="Rectángulo_37351" data-name="Rectángulo 37351" width="682.8" height="422.47" transform="translate(282.19 120.97)" fill="#051930"/>
      </g>
      <g id="Grupo_87619" data-name="Grupo 87619">
        <rect id="Rectángulo_37352" data-name="Rectángulo 37352" width="24.97" height="9.12" transform="translate(303.04 178.38)" fill="#1565b2" opacity="0.5"/>
        <rect id="Rectángulo_37353" data-name="Rectángulo 37353" width="99.26" height="9.12" transform="translate(537.57 178.38)" fill="#1565b2" opacity="0.5"/>
        <rect id="Rectángulo_37354" data-name="Rectángulo 37354" width="47.43" height="9.12" transform="translate(652.17 178.38)" fill="#6de0d4" opacity="0.5"/>
        <rect id="Rectángulo_37355" data-name="Rectángulo 37355" width="47.43" height="9.12" transform="translate(728.07 300.42)" fill="#1565b2" opacity="0.5"/>
        <rect id="Rectángulo_37356" data-name="Rectángulo 37356" width="159.89" height="9.12" transform="translate(709.9 178.38)" fill="#8b8b8b" opacity="0.5"/>
        <rect id="Rectángulo_37357" data-name="Rectángulo 37357" width="24.97" height="9.12" transform="translate(328.01 202.78)" fill="#1565b2" opacity="0.5"/>
        <rect id="Rectángulo_37358" data-name="Rectángulo 37358" width="187.96" height="9.12" transform="translate(370.55 202.78)" fill="#8b8b8b" opacity="0.5"/>
        <rect id="Rectángulo_37359" data-name="Rectángulo 37359" width="71.1" height="9.12" transform="translate(645.7 300.42)" fill="#8b8b8b" opacity="0.5"/>
        <rect id="Rectángulo_37360" data-name="Rectángulo 37360" width="179.53" height="9.12" transform="translate(346.21 276.01)" fill="#8b8b8b" opacity="0.5"/>
        <rect id="Rectángulo_37361" data-name="Rectángulo 37361" width="219.97" height="9.12" transform="translate(370.55 227.19)" fill="#6de0d4" opacity="0.5"/>
        <rect id="Rectángulo_37362" data-name="Rectángulo 37362" width="125.95" height="9.12" transform="translate(683.88 251.6)" fill="#8b8b8b" opacity="0.5"/>
        <rect id="Rectángulo_37363" data-name="Rectángulo 37363" width="45.19" height="9.12" transform="translate(751.78 227.19)" fill="#8b8b8b" opacity="0.5"/>
        <rect id="Rectángulo_37364" data-name="Rectángulo 37364" width="102.91" height="9.12" transform="translate(526.54 300.42)" fill="#6de0d4" opacity="0.5"/>
        <rect id="Rectángulo_37365" data-name="Rectángulo 37365" width="208.02" height="9.12" transform="translate(704.62 202.78)" fill="#6de0d4" opacity="0.5"/>
        <rect id="Rectángulo_37366" data-name="Rectángulo 37366" width="124" height="9.12" transform="translate(570.31 202.78)" fill="#1565b2" opacity="0.5"/>
        <rect id="Rectángulo_37367" data-name="Rectángulo 37367" width="80.83" height="9.12" transform="translate(803.17 227.19)" fill="#1565b2" opacity="0.5"/>
        <rect id="Rectángulo_37368" data-name="Rectángulo 37368" width="24.97" height="9.12" transform="translate(328.01 227.19)" fill="#1565b2" opacity="0.5"/>
        <rect id="Rectángulo_37369" data-name="Rectángulo 37369" width="24.97" height="9.12" transform="translate(303.04 251.6)" fill="#8b8b8b" opacity="0.5"/>
        <rect id="Rectángulo_37370" data-name="Rectángulo 37370" width="147.56" height="9.12" transform="translate(346.21 251.6)" fill="#1565b2" opacity="0.5"/>
        <rect id="Rectángulo_37371" data-name="Rectángulo 37371" width="147.56" height="9.12" transform="translate(370.55 324.83)" fill="#1565b2" opacity="0.5"/>
        <rect id="Rectángulo_37372" data-name="Rectángulo 37372" width="190.09" height="9.12" transform="translate(649.91 349.24)" fill="#6de0d4" opacity="0.5"/>
        <rect id="Rectángulo_37373" data-name="Rectángulo 37373" width="152.19" height="9.12" transform="translate(530.09 324.83)" fill="#6de0d4" opacity="0.5"/>
        <rect id="Rectángulo_37374" data-name="Rectángulo 37374" width="133.02" height="9.12" transform="translate(503.99 349.24)" fill="#1565b2" opacity="0.5"/>
        <rect id="Rectángulo_37375" data-name="Rectángulo 37375" width="42.73" height="9.12" transform="translate(370.55 349.24)" fill="#8b8b8b" opacity="0.5"/>
        <rect id="Rectángulo_37376" data-name="Rectángulo 37376" width="163.7" height="9.12" transform="translate(535.9 276.01)" fill="#1565b2" opacity="0.5"/>
        <rect id="Rectángulo_37377" data-name="Rectángulo 37377" width="179.38" height="9.12" transform="translate(709.9 276.01)" fill="#6de0d4" opacity="0.5"/>
        <rect id="Rectángulo_37378" data-name="Rectángulo 37378" width="163.51" height="9.12" transform="translate(508.77 251.6)" fill="#1565b2" opacity="0.5"/>
        <rect id="Rectángulo_37379" data-name="Rectángulo 37379" width="24.97" height="9.12" transform="translate(303.04 276.01)" fill="#1565b2" opacity="0.5"/>
        <rect id="Rectángulo_37380" data-name="Rectángulo 37380" width="24.97" height="9.12" transform="translate(303.04 300.42)" fill="#1565b2" opacity="0.5"/>
        <rect id="Rectángulo_37381" data-name="Rectángulo 37381" width="24.97" height="9.12" transform="translate(328.01 324.83)" fill="#8b8b8b" opacity="0.5"/>
        <rect id="Rectángulo_37382" data-name="Rectángulo 37382" width="24.97" height="9.12" transform="translate(328.01 349.24)" fill="#1565b2" opacity="0.5"/>
        <rect id="Rectángulo_37383" data-name="Rectángulo 37383" width="24.97" height="9.12" transform="translate(303.04 369.68)" fill="#1565b2" opacity="0.5"/>
        <rect id="Rectángulo_37384" data-name="Rectángulo 37384" width="292.77" height="9.12" transform="translate(346.21 369.68)" fill="#1565b2" opacity="0.5"/>
        <rect id="Rectángulo_37385" data-name="Rectángulo 37385" width="24.97" height="9.12" transform="translate(328.01 394.09)" fill="#1565b2" opacity="0.5"/>
        <rect id="Rectángulo_37386" data-name="Rectángulo 37386" width="179.53" height="9.12" transform="translate(346.21 467.31)" fill="#8b8b8b" opacity="0.5"/>
        <rect id="Rectángulo_37387" data-name="Rectángulo 37387" width="125.95" height="9.12" transform="translate(370.55 418.5)" fill="#6de0d4" opacity="0.5"/>
        <rect id="Rectángulo_37388" data-name="Rectángulo 37388" width="205.34" height="9.12" transform="translate(510.47 418.5)" fill="#8b8b8b" opacity="0.5"/>
        <rect id="Rectángulo_37389" data-name="Rectángulo 37389" width="283.24" height="9.12" transform="translate(346.21 491.72)" fill="#6de0d4" opacity="0.5"/>
        <rect id="Rectángulo_37390" data-name="Rectángulo 37390" width="208.02" height="9.12" transform="translate(704.62 394.09)" fill="#6de0d4" opacity="0.5"/>
        <rect id="Rectángulo_37391" data-name="Rectángulo 37391" width="124" height="9.12" transform="translate(570.31 394.09)" fill="#1565b2" opacity="0.5"/>
        <rect id="Rectángulo_37392" data-name="Rectángulo 37392" width="80.83" height="9.12" transform="translate(803.17 418.5)" fill="#1565b2" opacity="0.5"/>
        <rect id="Rectángulo_37393" data-name="Rectángulo 37393" width="24.97" height="9.12" transform="translate(328.01 418.5)" fill="#1565b2" opacity="0.5"/>
        <rect id="Rectángulo_37394" data-name="Rectángulo 37394" width="24.97" height="9.12" transform="translate(303.04 442.9)" fill="#8b8b8b" opacity="0.5"/>
        <rect id="Rectángulo_37395" data-name="Rectángulo 37395" width="238.14" height="9.12" transform="translate(346.21 442.9)" fill="#1565b2" opacity="0.5"/>
        <rect id="Rectángulo_37396" data-name="Rectángulo 37396" width="163.7" height="9.12" transform="translate(535.9 467.31)" fill="#1565b2" opacity="0.5"/>
        <rect id="Rectángulo_37397" data-name="Rectángulo 37397" width="24.97" height="9.12" transform="translate(303.04 467.31)" fill="#1565b2" opacity="0.5"/>
        <g id="Grupo_87618" data-name="Grupo 87618">
          <path id="Trazado_160001" data-name="Trazado 160001" d="M318.47,154.36a2.18,2.18,0,0,1,0,3.08,2.21,2.21,0,0,1-1.51.62,2.32,2.32,0,0,1-1.58-.62l-9.63-9.77c-.1,0-.13-.1-.17-.2a.3.3,0,0,0-.1-.07.74.74,0,0,1-.1-.27.19.19,0,0,1-.11-.14c0-.07,0-.17-.07-.21a.184.184,0,0,1-.07-.17v-.85c0-.07.07-.11.07-.14a2.858,2.858,0,0,0,.07-.28v-.06a.715.715,0,0,1,.18-.31.07.07,0,0,1,.07-.07.61.61,0,0,1,.2-.24l9.63-9.77a2.25,2.25,0,0,1,3.09,0,2.19,2.19,0,0,1,0,3.09l-8.12,8.19Z" fill="#ffa726"/>
          <path id="Trazado_160002" data-name="Trazado 160002" d="M327.2,155.45l8.39-20a1.9,1.9,0,0,1,2.5-1,1.85,1.85,0,0,1,1,2.43l-8.39,20a1.91,1.91,0,0,1-1.75,1.13,1.7,1.7,0,0,1-.69-.14,1.85,1.85,0,0,1-1.06-2.42Z" fill="#ffa726"/>
          <path id="Trazado_160003" data-name="Trazado 160003" d="M355.63,147.4a1.81,1.81,0,0,1-.24.24l-9.63,9.77a2.23,2.23,0,0,1-1.55.62,2.16,2.16,0,0,1-1.53-3.7l8.11-8.19L342.65,138a2.17,2.17,0,0,1,0-3.09,2.24,2.24,0,0,1,3.08,0l9.63,9.77a1.811,1.811,0,0,1,.24.24s0,.07,0,.07a2.682,2.682,0,0,1,.18.31s0,0,0,.06a1.219,1.219,0,0,0,.1.31v1.02a2.069,2.069,0,0,0-.1.31s0,0,0,.1S355.7,147.26,355.63,147.4Z" fill="#ffa726"/>
        </g>
      </g>
      <g id="Grupo_87620" data-name="Grupo 87620" transform="translate(-1.65 3.67)">
        <path id="Trazado_160528" data-name="Trazado 160528" d="M.576,0,3.047-14.219l3.691.01a5.125,5.125,0,0,1,2.993.869,4.794,4.794,0,0,1,1.8,2.4,7.452,7.452,0,0,1,.322,3.423l-.1.713A8.04,8.04,0,0,1,9.346-1.851,7.014,7.014,0,0,1,4.365,0ZM4.609-12.686,2.676-1.543l1.807.01A5.077,5.077,0,0,0,7.993-2.822a6.119,6.119,0,0,0,1.87-3.535A11.5,11.5,0,0,0,10.1-9.414a3.722,3.722,0,0,0-1.006-2.368,3.257,3.257,0,0,0-2.3-.894ZM19.7-8.955l-.83-.088A3.025,3.025,0,0,0,16.191-7.51L14.893,0H13.125l1.836-10.566,1.709-.01-.264,1.23a3.159,3.159,0,0,1,2.646-1.436,3.242,3.242,0,0,1,.84.146ZM21.7,0H19.941l1.836-10.566h1.758Zm1.455-14.424a.967.967,0,0,1,.747.269,1,1,0,0,1,.3.757,1.061,1.061,0,0,1-.3.752,1.069,1.069,0,0,1-.747.313A.974.974,0,0,1,22.4-12.6a.955.955,0,0,1-.283-.742,1.108,1.108,0,0,1,.293-.762A1.033,1.033,0,0,1,23.154-14.424ZM28.428-2.471l3.809-8.1H34.1L28.779,0H27.432l-2.07-10.566H27.1ZM38.652.2A3.81,3.81,0,0,1,35.566-1.26a5.007,5.007,0,0,1-.937-3.623l.049-.42a7.03,7.03,0,0,1,.933-2.871,5.424,5.424,0,0,1,1.87-1.958,4.363,4.363,0,0,1,2.383-.63,3.36,3.36,0,0,1,2.559,1.084,4.458,4.458,0,0,1,1.016,2.832,8.276,8.276,0,0,1-.039,1.27l-.107.811h-6.9a3.569,3.569,0,0,0,.474,2.441A2.243,2.243,0,0,0,38.8-1.279a3.759,3.759,0,0,0,2.891-1.406l1.016.859a4.648,4.648,0,0,1-1.714,1.5A4.857,4.857,0,0,1,38.652.2Zm1.123-9.482a2.582,2.582,0,0,0-1.909.742A5.275,5.275,0,0,0,36.572-6.25l5.137.01.039-.156a2.891,2.891,0,0,0-.4-2.046A1.86,1.86,0,0,0,39.775-9.287Zm11.25.332-.83-.088A3.025,3.025,0,0,0,47.52-7.51L46.221,0H44.453l1.836-10.566L48-10.576l-.264,1.23a3.159,3.159,0,0,1,2.646-1.436,3.242,3.242,0,0,1,.84.146Zm5.146-5.264,2.49,11.582,6.523-11.582H67.6L65.127,0H63.3l.977-5.625,1.162-5.723L58.994,0H57.588L55.049-11.572,54.17-5.439,53.223,0H51.387l2.471-14.219ZM74.609,0a2.367,2.367,0,0,1-.068-.557l.029-.557A4.332,4.332,0,0,1,71.484.2a3.157,3.157,0,0,1-2.271-.884,2.675,2.675,0,0,1-.8-2.163,3.253,3.253,0,0,1,1.47-2.622A6.257,6.257,0,0,1,73.5-6.416l1.846.01.117-.84a1.931,1.931,0,0,0-.366-1.5A1.767,1.767,0,0,0,73.7-9.316a2.726,2.726,0,0,0-1.606.444,1.891,1.891,0,0,0-.854,1.226l-1.777.01a2.833,2.833,0,0,1,.723-1.646A4.2,4.2,0,0,1,71.816-10.4a5.268,5.268,0,0,1,2.061-.376,3.5,3.5,0,0,1,2.568,1,3.1,3.1,0,0,1,.771,2.554l-.859,5.234-.049.752a3.686,3.686,0,0,0,.117,1.064L76.406,0ZM71.836-1.367a3.083,3.083,0,0,0,1.606-.405,4.068,4.068,0,0,0,1.3-1.177l.381-2.178-1.338-.01a5.068,5.068,0,0,0-2.559.527,1.942,1.942,0,0,0-1.006,1.494,1.513,1.513,0,0,0,.347,1.235A1.651,1.651,0,0,0,71.836-1.367ZM82.3-10.576l-.254,1.338a4.166,4.166,0,0,1,3.242-1.523A2.621,2.621,0,0,1,87.5-9.727a4.022,4.022,0,0,1,.527,2.8L86.875,0H85.107L86.27-6.946a3.7,3.7,0,0,0,.01-.888,1.46,1.46,0,0,0-1.611-1.395,3.327,3.327,0,0,0-2.793,1.7L80.566,0H78.8l1.836-10.566ZM96.064,0A2.367,2.367,0,0,1,96-.557l.029-.557A4.332,4.332,0,0,1,92.939.2a3.157,3.157,0,0,1-2.271-.884,2.675,2.675,0,0,1-.8-2.163,3.253,3.253,0,0,1,1.47-2.622,6.257,6.257,0,0,1,3.608-.942l1.846.01.117-.84a1.931,1.931,0,0,0-.366-1.5,1.767,1.767,0,0,0-1.392-.571,2.726,2.726,0,0,0-1.606.444A1.891,1.891,0,0,0,92.7-7.646l-1.777.01a2.833,2.833,0,0,1,.723-1.646A4.2,4.2,0,0,1,93.271-10.4a5.268,5.268,0,0,1,2.061-.376,3.5,3.5,0,0,1,2.568,1,3.1,3.1,0,0,1,.771,2.554l-.859,5.234-.049.752a3.686,3.686,0,0,0,.117,1.064L97.861,0ZM93.291-1.367A3.083,3.083,0,0,0,94.9-1.772a4.068,4.068,0,0,0,1.3-1.177l.381-2.178-1.338-.01a5.068,5.068,0,0,0-2.559.527A1.942,1.942,0,0,0,91.68-3.115a1.513,1.513,0,0,0,.347,1.235A1.651,1.651,0,0,0,93.291-1.367Zm7.48-3.936a8.611,8.611,0,0,1,.933-3,4.878,4.878,0,0,1,1.7-1.885,3.939,3.939,0,0,1,2.192-.581,3.251,3.251,0,0,1,2.773,1.387l.352-1.182h1.621L108.584-.225a5.141,5.141,0,0,1-1.641,3.237,4.621,4.621,0,0,1-3.35,1.157,4.756,4.756,0,0,1-2.056-.508A3.909,3.909,0,0,1,99.99,2.324L101,1.24A3.023,3.023,0,0,0,103.525,2.7a3.031,3.031,0,0,0,2.134-.7,3.628,3.628,0,0,0,1.157-2.109l.2-.937A4,4,0,0,1,103.994.2a3.107,3.107,0,0,1-1.714-.532,3.236,3.236,0,0,1-1.128-1.455,5.949,5.949,0,0,1-.439-2.124A10.915,10.915,0,0,1,100.771-5.3Zm1.709,1a3.717,3.717,0,0,0,.483,2.16,1.827,1.827,0,0,0,1.548.8,3.2,3.2,0,0,0,2.725-1.551l.83-4.848a2.221,2.221,0,0,0-2.119-1.5,2.742,2.742,0,0,0-2.358,1.17A6.1,6.1,0,0,0,102.5-4.8ZM115.811.2a3.81,3.81,0,0,1-3.086-1.455,5.007,5.007,0,0,1-.937-3.623l.049-.42a7.03,7.03,0,0,1,.933-2.871,5.424,5.424,0,0,1,1.87-1.958,4.363,4.363,0,0,1,2.383-.63,3.36,3.36,0,0,1,2.559,1.084A4.458,4.458,0,0,1,120.6-6.846a8.276,8.276,0,0,1-.039,1.27l-.107.811h-6.9a3.569,3.569,0,0,0,.474,2.441,2.244,2.244,0,0,0,1.938,1.045,3.759,3.759,0,0,0,2.891-1.406l1.016.859a4.648,4.648,0,0,1-1.714,1.5A4.857,4.857,0,0,1,115.811.2Zm1.123-9.482a2.582,2.582,0,0,0-1.909.742A5.275,5.275,0,0,0,113.73-6.25l5.137.01.039-.156a2.891,2.891,0,0,0-.4-2.046A1.86,1.86,0,0,0,116.934-9.287Zm11.25.332-.83-.088a3.025,3.025,0,0,0-2.676,1.533L123.379,0h-1.768l1.836-10.566,1.709-.01-.264,1.23a3.159,3.159,0,0,1,2.646-1.436,3.242,3.242,0,0,1,.84.146Z" transform="translate(399.75 187.27)" fill="#ffa726"/>
      </g>
      <path id="Trazado_160529" data-name="Trazado 160529" d="M11.416-4.531a5.668,5.668,0,0,1-2,3.5A5.6,5.6,0,0,1,5.615.2a4.43,4.43,0,0,1-2.3-.649A4.1,4.1,0,0,1,1.777-2.241a6.675,6.675,0,0,1-.605-2.583A8.278,8.278,0,0,1,1.24-6.387l.166-1.172a8.845,8.845,0,0,1,2.251-5.054,5.68,5.68,0,0,1,4.36-1.8,4.253,4.253,0,0,1,3.174,1.294,5.146,5.146,0,0,1,1.24,3.481H10.605q-.127-2.988-2.344-3.223l-.322-.02a3.774,3.774,0,0,0-3.081,1.372,7.428,7.428,0,0,0-1.6,3.882L3.047-6.152l-.059.859a4.834,4.834,0,0,0,.64,2.856A2.412,2.412,0,0,0,5.7-1.338a3.656,3.656,0,0,0,2.456-.713A4.744,4.744,0,0,0,9.639-4.5Zm7.48-6.23a3.809,3.809,0,0,1,2.275.723,4.106,4.106,0,0,1,1.4,1.938,6,6,0,0,1,.308,2.7l-.02.215A7.107,7.107,0,0,1,21.943-2.4,5.386,5.386,0,0,1,20.049-.459,4.62,4.62,0,0,1,17.5.2a3.815,3.815,0,0,1-2.271-.723,4.013,4.013,0,0,1-1.392-1.914,6.164,6.164,0,0,1-.312-2.666,7.2,7.2,0,0,1,.889-2.949,5.511,5.511,0,0,1,1.909-2.026A4.565,4.565,0,0,1,18.9-10.762ZM15.3-5.1a6,6,0,0,0,0,1.279,3.134,3.134,0,0,0,.688,1.836,2.067,2.067,0,0,0,1.577.713A2.816,2.816,0,0,0,19.189-1.7a3.649,3.649,0,0,0,1.25-1.4,5.9,5.9,0,0,0,.654-2.08A9.368,9.368,0,0,0,21.123-6.7a3.253,3.253,0,0,0-.713-1.865,2.113,2.113,0,0,0-1.582-.723A2.88,2.88,0,0,0,16.5-8.213a5.307,5.307,0,0,0-1.182,2.891ZM27.7-10.576l-.254,1.338a4.166,4.166,0,0,1,3.242-1.523,2.621,2.621,0,0,1,2.207,1.035,4.022,4.022,0,0,1,.527,2.8L32.266,0H30.5L31.66-6.946a3.7,3.7,0,0,0,.01-.888,1.46,1.46,0,0,0-1.611-1.395,3.327,3.327,0,0,0-2.793,1.7L25.957,0H24.189l1.836-10.566Zm10.8,0-.254,1.338a4.166,4.166,0,0,1,3.242-1.523,2.621,2.621,0,0,1,2.207,1.035,4.022,4.022,0,0,1,.527,2.8L43.066,0H41.3l1.162-6.946a3.7,3.7,0,0,0,.01-.888,1.46,1.46,0,0,0-1.611-1.395,3.327,3.327,0,0,0-2.793,1.7L36.758,0H34.99l1.836-10.566ZM50.361.2A3.81,3.81,0,0,1,47.275-1.26a5.007,5.007,0,0,1-.937-3.623l.049-.42a7.03,7.03,0,0,1,.933-2.871,5.424,5.424,0,0,1,1.87-1.958,4.363,4.363,0,0,1,2.383-.63,3.36,3.36,0,0,1,2.559,1.084,4.458,4.458,0,0,1,1.016,2.832,8.276,8.276,0,0,1-.039,1.27L55-4.766H48.1a3.569,3.569,0,0,0,.474,2.441,2.243,2.243,0,0,0,1.938,1.045A3.759,3.759,0,0,0,53.4-2.686l1.016.859A4.648,4.648,0,0,1,52.7-.327,4.857,4.857,0,0,1,50.361.2Zm1.123-9.482a2.582,2.582,0,0,0-1.909.742A5.275,5.275,0,0,0,48.281-6.25l5.137.01.039-.156a2.891,2.891,0,0,0-.4-2.046A1.86,1.86,0,0,0,51.484-9.287ZM60.625-1.27a2.681,2.681,0,0,0,1.709-.552,2.624,2.624,0,0,0,1-1.5L65-3.33a3.768,3.768,0,0,1-.8,1.816A4.442,4.442,0,0,1,62.568-.234,4.438,4.438,0,0,1,60.547.2a3.771,3.771,0,0,1-2.231-.688,3.855,3.855,0,0,1-1.343-1.865,6.215,6.215,0,0,1-.293-2.69l.049-.488a7.007,7.007,0,0,1,.889-2.725,5.138,5.138,0,0,1,1.836-1.87,4.561,4.561,0,0,1,2.5-.63,3.571,3.571,0,0,1,2.656,1.113,3.85,3.85,0,0,1,1,2.725l-1.65-.01a2.536,2.536,0,0,0-.576-1.675,2.009,2.009,0,0,0-1.5-.679,2.817,2.817,0,0,0-2.29,1.025,5.371,5.371,0,0,0-1.138,2.949l-.029.254A8.47,8.47,0,0,0,58.4-3.77a2.944,2.944,0,0,0,.645,1.807A2.07,2.07,0,0,0,60.625-1.27ZM71.084-13.125l-.449,2.559h1.924l-.244,1.4H70.4L69.3-2.6a2.291,2.291,0,0,0-.01.469.745.745,0,0,0,.83.762,5.062,5.062,0,0,0,.859-.1L70.84.01a4.809,4.809,0,0,1-1.289.176,1.846,1.846,0,0,1-1.582-.776,3,3,0,0,1-.41-2.036L68.633-9.17H66.768l.244-1.4h1.865l.449-2.559ZM74.766,0H73.008l1.836-10.566H76.6Zm1.455-14.424a.967.967,0,0,1,.747.269,1,1,0,0,1,.3.757,1.061,1.061,0,0,1-.3.752,1.069,1.069,0,0,1-.747.313.974.974,0,0,1-.752-.264.955.955,0,0,1-.283-.742,1.108,1.108,0,0,1,.293-.762A1.033,1.033,0,0,1,76.221-14.424Zm7.3,3.662a3.809,3.809,0,0,1,2.275.723A4.106,4.106,0,0,1,87.2-8.1a6,6,0,0,1,.308,2.7l-.02.215A7.107,7.107,0,0,1,86.572-2.4,5.386,5.386,0,0,1,84.678-.459,4.62,4.62,0,0,1,82.129.2a3.815,3.815,0,0,1-2.271-.723,4.013,4.013,0,0,1-1.392-1.914,6.164,6.164,0,0,1-.312-2.666,7.2,7.2,0,0,1,.889-2.949,5.511,5.511,0,0,1,1.909-2.026A4.565,4.565,0,0,1,83.525-10.762ZM79.932-5.1a6,6,0,0,0,0,1.279,3.134,3.134,0,0,0,.688,1.836A2.067,2.067,0,0,0,82.2-1.27,2.816,2.816,0,0,0,83.818-1.7a3.649,3.649,0,0,0,1.25-1.4,5.9,5.9,0,0,0,.654-2.08A9.367,9.367,0,0,0,85.752-6.7a3.253,3.253,0,0,0-.713-1.865,2.113,2.113,0,0,0-1.582-.723,2.88,2.88,0,0,0-2.324,1.074,5.307,5.307,0,0,0-1.182,2.891Zm12.393-5.479L92.07-9.238a4.166,4.166,0,0,1,3.242-1.523A2.621,2.621,0,0,1,97.52-9.727a4.022,4.022,0,0,1,.527,2.8L96.895,0H95.127l1.162-6.946a3.7,3.7,0,0,0,.01-.888,1.46,1.46,0,0,0-1.611-1.395,3.327,3.327,0,0,0-2.793,1.7L90.586,0H88.818l1.836-10.566Z" transform="translate(403 311.04)" fill="#ffa726"/>
      <path id="Trazado_160530" data-name="Trazado 160530" d="M6.689-5.742H3.408L2.412,0H.566L3.037-14.219l4.277.01a4.767,4.767,0,0,1,3.408,1.134,3.538,3.538,0,0,1,.986,3.06,4.051,4.051,0,0,1-.972,2.356,5.308,5.308,0,0,1-2.3,1.535l2.207,6L10.635,0H8.682ZM3.672-7.285l2.7.01A3.765,3.765,0,0,0,8.74-8.022a2.908,2.908,0,0,0,1.133-2,2.3,2.3,0,0,0-.488-1.914,2.609,2.609,0,0,0-1.934-.732l-2.842-.01ZM16.914.2A3.81,3.81,0,0,1,13.828-1.26a5.007,5.007,0,0,1-.937-3.623l.049-.42a7.03,7.03,0,0,1,.933-2.871,5.424,5.424,0,0,1,1.87-1.958,4.363,4.363,0,0,1,2.383-.63,3.36,3.36,0,0,1,2.559,1.084A4.458,4.458,0,0,1,21.7-6.846a8.276,8.276,0,0,1-.039,1.27l-.107.811h-6.9a3.569,3.569,0,0,0,.474,2.441,2.243,2.243,0,0,0,1.938,1.045,3.759,3.759,0,0,0,2.891-1.406l1.016.859a4.648,4.648,0,0,1-1.714,1.5A4.857,4.857,0,0,1,16.914.2Zm1.123-9.482a2.582,2.582,0,0,0-1.909.742A5.275,5.275,0,0,0,14.834-6.25l5.137.01L20.01-6.4a2.891,2.891,0,0,0-.4-2.046A1.86,1.86,0,0,0,18.037-9.287ZM29.258-2.861q.146-1.094-1.2-1.543l-1.836-.537Q23.9-5.742,23.975-7.6a2.926,2.926,0,0,1,1.274-2.29,4.539,4.539,0,0,1,2.837-.874,3.784,3.784,0,0,1,2.6.933,2.954,2.954,0,0,1,.962,2.378l-1.758-.01a1.649,1.649,0,0,0-.5-1.289,1.971,1.971,0,0,0-1.377-.518,2.573,2.573,0,0,0-1.582.449,1.645,1.645,0,0,0-.713,1.152q-.127.918,1.123,1.338l.889.244a5.722,5.722,0,0,1,2.578,1.221A2.331,2.331,0,0,1,31.016-3a2.963,2.963,0,0,1-.645,1.719A3.685,3.685,0,0,1,28.809-.161,5.226,5.226,0,0,1,26.729.2a4.122,4.122,0,0,1-2.773-.981A3.034,3.034,0,0,1,22.9-3.262l1.768.01a1.873,1.873,0,0,0,.566,1.426,2.165,2.165,0,0,0,1.553.537,3.045,3.045,0,0,0,1.67-.405A1.559,1.559,0,0,0,29.258-2.861ZM39.521-1.045A4.081,4.081,0,0,1,36.367.2,2.633,2.633,0,0,1,34.126-.889a4.146,4.146,0,0,1-.542-2.852l1.133-6.826h1.768L35.342-3.711a4.553,4.553,0,0,0-.02.84,1.748,1.748,0,0,0,.42,1.1,1.433,1.433,0,0,0,1.035.43,3.171,3.171,0,0,0,2.93-1.533l1.328-7.7H42.8L40.967,0H39.3Zm6,1.045H43.76l2.6-15h1.768Zm7.559-13.125-.449,2.559h1.924l-.244,1.4H52.393L51.289-2.6a2.292,2.292,0,0,0-.01.469.745.745,0,0,0,.83.762,5.062,5.062,0,0,0,.859-.1L52.832.01a4.809,4.809,0,0,1-1.289.176,1.846,1.846,0,0,1-1.582-.776,3,3,0,0,1-.41-2.036L50.625-9.17H48.76l.244-1.4h1.865l.449-2.559ZM63.105-3.662q.215-1.563-1.621-2.285l-1.689-.615-.566-.244q-2.852-1.3-2.666-3.652a3.82,3.82,0,0,1,.811-2.09,4.612,4.612,0,0,1,1.89-1.4,6.062,6.062,0,0,1,2.5-.464,5,5,0,0,1,2.3.576,3.7,3.7,0,0,1,1.538,1.528,4.166,4.166,0,0,1,.469,2.212l-1.846-.01a2.547,2.547,0,0,0-.586-2.034,2.623,2.623,0,0,0-1.953-.74,3.638,3.638,0,0,0-2.236.626,2.444,2.444,0,0,0-1.035,1.761q-.2,1.458,1.787,2.211l1.455.518.732.313q2.754,1.27,2.549,3.77a3.765,3.765,0,0,1-.811,2.075A4.532,4.532,0,0,1,62.222-.254,6.582,6.582,0,0,1,59.629.2a5.424,5.424,0,0,1-2.446-.571A3.991,3.991,0,0,1,55.5-1.914a3.847,3.847,0,0,1-.508-2.217l1.836.01A2.419,2.419,0,0,0,57.515-2.1a3.1,3.1,0,0,0,2.192.767,3.914,3.914,0,0,0,2.334-.615A2.4,2.4,0,0,0,63.105-3.662ZM71.025.2A3.81,3.81,0,0,1,67.939-1.26,5.007,5.007,0,0,1,67-4.883l.049-.42a7.03,7.03,0,0,1,.933-2.871,5.424,5.424,0,0,1,1.87-1.958,4.363,4.363,0,0,1,2.383-.63,3.36,3.36,0,0,1,2.559,1.084,4.458,4.458,0,0,1,1.016,2.832,8.276,8.276,0,0,1-.039,1.27l-.107.811h-6.9a3.569,3.569,0,0,0,.474,2.441,2.244,2.244,0,0,0,1.938,1.045,3.759,3.759,0,0,0,2.891-1.406l1.016.859a4.648,4.648,0,0,1-1.714,1.5A4.857,4.857,0,0,1,71.025.2Zm1.123-9.482a2.582,2.582,0,0,0-1.909.742A5.275,5.275,0,0,0,68.945-6.25l5.137.01.039-.156a2.891,2.891,0,0,0-.4-2.046A1.86,1.86,0,0,0,72.148-9.287Zm9.346-3.838-.449,2.559h1.924l-.244,1.4H80.811L79.707-2.6a2.291,2.291,0,0,0-.01.469.745.745,0,0,0,.83.762,5.062,5.062,0,0,0,.859-.1L81.25.01a4.809,4.809,0,0,1-1.289.176,1.846,1.846,0,0,1-1.582-.776,3,3,0,0,1-.41-2.036L79.043-9.17H77.178l.244-1.4h1.865l.449-2.559Z" transform="translate(655.35 238.4)" fill="#ffa726"/>
      <path id="Trazado_160532" data-name="Trazado 160532" d="M8.564-3.662q.215-1.563-1.621-2.285L5.254-6.562l-.566-.244q-2.852-1.3-2.666-3.652a3.82,3.82,0,0,1,.811-2.09,4.612,4.612,0,0,1,1.89-1.4,6.062,6.062,0,0,1,2.5-.464,5,5,0,0,1,2.3.576,3.7,3.7,0,0,1,1.538,1.528,4.166,4.166,0,0,1,.469,2.212l-1.846-.01A2.547,2.547,0,0,0,9.1-12.141a2.623,2.623,0,0,0-1.953-.74,3.638,3.638,0,0,0-2.236.626,2.444,2.444,0,0,0-1.035,1.761q-.2,1.458,1.787,2.211l1.455.518.732.313q2.754,1.27,2.549,3.77A3.765,3.765,0,0,1,9.59-1.606,4.532,4.532,0,0,1,7.681-.254,6.582,6.582,0,0,1,5.088.2,5.424,5.424,0,0,1,2.642-.376,3.991,3.991,0,0,1,.957-1.914,3.847,3.847,0,0,1,.449-4.131l1.836.01A2.419,2.419,0,0,0,2.974-2.1a3.1,3.1,0,0,0,2.192.767A3.914,3.914,0,0,0,7.5-1.953,2.4,2.4,0,0,0,8.564-3.662Zm8.018-9.463-.449,2.559h1.924l-.244,1.4H15.9L14.795-2.6a2.291,2.291,0,0,0-.01.469.745.745,0,0,0,.83.762,5.062,5.062,0,0,0,.859-.1L16.338.01a4.809,4.809,0,0,1-1.289.176,1.846,1.846,0,0,1-1.582-.776,3,3,0,0,1-.41-2.036L14.131-9.17H12.266l.244-1.4h1.865l.449-2.559ZM24.814,0a2.367,2.367,0,0,1-.068-.557l.029-.557A4.332,4.332,0,0,1,21.689.2a3.157,3.157,0,0,1-2.271-.884,2.675,2.675,0,0,1-.8-2.163,3.253,3.253,0,0,1,1.47-2.622A6.257,6.257,0,0,1,23.7-6.416l1.846.01.117-.84a1.931,1.931,0,0,0-.366-1.5,1.767,1.767,0,0,0-1.392-.571,2.726,2.726,0,0,0-1.606.444,1.891,1.891,0,0,0-.854,1.226l-1.777.01a2.833,2.833,0,0,1,.723-1.646A4.2,4.2,0,0,1,22.021-10.4a5.268,5.268,0,0,1,2.061-.376,3.5,3.5,0,0,1,2.568,1,3.1,3.1,0,0,1,.771,2.554l-.859,5.234-.049.752a3.686,3.686,0,0,0,.117,1.064L26.611,0ZM22.041-1.367a3.083,3.083,0,0,0,1.606-.405,4.068,4.068,0,0,0,1.3-1.177l.381-2.178-1.338-.01a5.068,5.068,0,0,0-2.559.527A1.942,1.942,0,0,0,20.43-3.115a1.513,1.513,0,0,0,.347,1.235A1.651,1.651,0,0,0,22.041-1.367ZM33.672-13.125l-.449,2.559h1.924L34.9-9.17H32.988L31.885-2.6a2.291,2.291,0,0,0-.01.469.745.745,0,0,0,.83.762,5.062,5.062,0,0,0,.859-.1L33.428.01a4.809,4.809,0,0,1-1.289.176,1.846,1.846,0,0,1-1.582-.776,3,3,0,0,1-.41-2.036L31.221-9.17H29.355l.244-1.4h1.865l.449-2.559ZM40.01.2A3.81,3.81,0,0,1,36.924-1.26a5.007,5.007,0,0,1-.937-3.623l.049-.42a7.03,7.03,0,0,1,.933-2.871,5.424,5.424,0,0,1,1.87-1.958,4.363,4.363,0,0,1,2.383-.63,3.36,3.36,0,0,1,2.559,1.084,4.458,4.458,0,0,1,1.016,2.832,8.276,8.276,0,0,1-.039,1.27l-.107.811h-6.9a3.569,3.569,0,0,0,.474,2.441,2.243,2.243,0,0,0,1.938,1.045,3.759,3.759,0,0,0,2.891-1.406l1.016.859a4.648,4.648,0,0,1-1.714,1.5A4.857,4.857,0,0,1,40.01.2Zm1.123-9.482a2.582,2.582,0,0,0-1.909.742A5.275,5.275,0,0,0,37.93-6.25l5.137.01.039-.156a2.891,2.891,0,0,0-.4-2.046A1.86,1.86,0,0,0,41.133-9.287ZM49.3-10.576l-.225,1.182a4.132,4.132,0,0,1,3.213-1.367,3.26,3.26,0,0,1,1.7.459,2.251,2.251,0,0,1,.962,1.24,4.363,4.363,0,0,1,3.506-1.7A2.794,2.794,0,0,1,60.791-9.7a3.8,3.8,0,0,1,.557,2.754L60.186,0H58.428L59.58-6.963a3.679,3.679,0,0,0,0-.928q-.186-1.328-1.738-1.357a2.669,2.669,0,0,0-1.753.6,2.778,2.778,0,0,0-1.011,1.626L53.877,0H52.1l1.172-6.953a2.233,2.233,0,0,0-.327-1.67,1.721,1.721,0,0,0-1.411-.605,2.894,2.894,0,0,0-2.627,1.5L47.568,0H45.8l1.836-10.566ZM67.48.2A3.81,3.81,0,0,1,64.395-1.26a5.007,5.007,0,0,1-.937-3.623l.049-.42a7.03,7.03,0,0,1,.933-2.871,5.424,5.424,0,0,1,1.87-1.958,4.363,4.363,0,0,1,2.383-.63A3.36,3.36,0,0,1,71.25-9.678a4.458,4.458,0,0,1,1.016,2.832,8.276,8.276,0,0,1-.039,1.27l-.107.811h-6.9a3.569,3.569,0,0,0,.474,2.441,2.244,2.244,0,0,0,1.938,1.045,3.759,3.759,0,0,0,2.891-1.406l1.016.859a4.648,4.648,0,0,1-1.714,1.5A4.857,4.857,0,0,1,67.48.2ZM68.6-9.287a2.582,2.582,0,0,0-1.909.742A5.275,5.275,0,0,0,65.4-6.25l5.137.01.039-.156a2.891,2.891,0,0,0-.4-2.046A1.86,1.86,0,0,0,68.6-9.287Zm8.184-1.289-.254,1.338a4.166,4.166,0,0,1,3.242-1.523,2.621,2.621,0,0,1,2.207,1.035,4.022,4.022,0,0,1,.527,2.8L81.357,0H79.59l1.162-6.946a3.7,3.7,0,0,0,.01-.888A1.46,1.46,0,0,0,79.15-9.229a3.327,3.327,0,0,0-2.793,1.7L75.049,0H73.281l1.836-10.566ZM88.75-13.125,88.3-10.566h1.924l-.244,1.4H88.066L86.963-2.6a2.291,2.291,0,0,0-.01.469.745.745,0,0,0,.83.762,5.062,5.062,0,0,0,.859-.1L88.506.01a4.809,4.809,0,0,1-1.289.176,1.846,1.846,0,0,1-1.582-.776,3,3,0,0,1-.41-2.036L86.3-9.17H84.434l.244-1.4h1.865l.449-2.559Z" transform="translate(403 404.82)" fill="#ffa726"/>
      <g id="Grupo_87622" data-name="Grupo 87622">
        <g id="Grupo_87621" data-name="Grupo 87621" opacity="0.47">
          <circle id="Elipse_7265" data-name="Elipse 7265" cx="20.58" cy="20.58" r="20.58" transform="translate(352.98 162.36)" fill="#36dac9"/>
        </g>
        <circle id="Elipse_7266" data-name="Elipse 7266" cx="16" cy="16" r="16" transform="translate(357.56 166.94)" fill="#36dac9"/>
      </g>
      <g id="Grupo_87624" data-name="Grupo 87624">
        <g id="Grupo_87623" data-name="Grupo 87623" opacity="0.47">
          <circle id="Elipse_7267" data-name="Elipse 7267" cx="20.58" cy="20.58" r="20.58" transform="translate(356.94 284.4)" fill="#36dac9"/>
        </g>
        <circle id="Elipse_7268" data-name="Elipse 7268" cx="16" cy="16" r="16" transform="translate(361.52 288.98)" fill="#36dac9"/>
      </g>
      <g id="Grupo_87626" data-name="Grupo 87626">
        <g id="Grupo_87625" data-name="Grupo 87625" opacity="0.47">
          <circle id="Elipse_7269" data-name="Elipse 7269" cx="20.58" cy="20.58" r="20.58" transform="translate(356.94 378.07)" fill="#36dac9"/>
        </g>
        <circle id="Elipse_7270" data-name="Elipse 7270" cx="16" cy="16" r="16" transform="translate(361.52 382.65)" fill="#36dac9"/>
      </g>
      <g id="Grupo_87628" data-name="Grupo 87628">
        <g id="Grupo_87627" data-name="Grupo 87627" opacity="0.47">
          <circle id="Elipse_7271" data-name="Elipse 7271" cx="20.58" cy="20.58" r="20.58" transform="translate(600.95 212.33)" fill="#36dac9"/>
        </g>
        <circle id="Elipse_7272" data-name="Elipse 7272" cx="16" cy="16" r="16" transform="translate(605.53 216.91)" fill="#36dac9"/>
      </g>
      <g id="Grupo_87629" data-name="Grupo 87629">
        <path id="Trazado_160531" data-name="Trazado 160531" d="M9.688-6.572H3.525v5.039h7.158V0H1.65V-14.219h8.936v1.533H3.525v4.58H9.688ZM14.7,0H12.891V-15H14.7Zm9.541-10.566.049,1.172a3.9,3.9,0,0,1,3.135-1.367,3.021,3.021,0,0,1,3.018,1.7,4,4,0,0,1,1.372-1.23,4.052,4.052,0,0,1,2-.469q3.477,0,3.535,3.682V0H35.537V-6.973a2.426,2.426,0,0,0-.518-1.694,2.279,2.279,0,0,0-1.738-.562,2.4,2.4,0,0,0-1.67.6,2.436,2.436,0,0,0-.771,1.616V0H29.023V-6.924a2.016,2.016,0,0,0-2.256-2.3,2.417,2.417,0,0,0-2.432,1.514V0H22.529V-10.566ZM44.453.2a4.617,4.617,0,0,1-3.5-1.411A5.237,5.237,0,0,1,39.609-4.99v-.332a6.341,6.341,0,0,1,.6-2.808,4.685,4.685,0,0,1,1.68-1.934,4.223,4.223,0,0,1,2.339-.7,3.957,3.957,0,0,1,3.2,1.357,5.877,5.877,0,0,1,1.143,3.887v.752H41.416a3.756,3.756,0,0,0,.913,2.524,2.87,2.87,0,0,0,2.222.962,3.147,3.147,0,0,0,1.621-.391,4.073,4.073,0,0,0,1.162-1.035l1.1.859A4.437,4.437,0,0,1,44.453.2Zm-.225-9.473a2.41,2.41,0,0,0-1.836.8,3.868,3.868,0,0,0-.918,2.231h5.293v-.137a3.441,3.441,0,0,0-.742-2.134A2.269,2.269,0,0,0,44.229-9.277ZM45.107-15h2.188l-2.617,2.871-1.455,0Zm8.008,1.875v2.559h1.973v1.4H53.115v6.561a1.467,1.467,0,0,0,.264.953,1.11,1.11,0,0,0,.9.318,4.374,4.374,0,0,0,.859-.117V0A5.268,5.268,0,0,1,53.75.2a2.25,2.25,0,0,1-1.826-.732,3.147,3.147,0,0,1-.615-2.08V-9.17H49.385v-1.4h1.924v-2.559Zm3.208,7.744a6.241,6.241,0,0,1,.61-2.793,4.553,4.553,0,0,1,1.7-1.914,4.626,4.626,0,0,1,2.485-.674A4.456,4.456,0,0,1,64.61-9.268a5.748,5.748,0,0,1,1.333,3.975v.127A6.3,6.3,0,0,1,65.352-2.4,4.486,4.486,0,0,1,63.662-.488,4.679,4.679,0,0,1,61.138.2,4.445,4.445,0,0,1,57.656-1.3a5.719,5.719,0,0,1-1.333-3.955Zm1.816.215a4.52,4.52,0,0,0,.815,2.822,2.61,2.61,0,0,0,2.183,1.064,2.594,2.594,0,0,0,2.188-1.079,4.943,4.943,0,0,0,.811-3.022A4.513,4.513,0,0,0,63.311-8.2a2.623,2.623,0,0,0-2.192-1.079A2.594,2.594,0,0,0,58.96-8.213,4.906,4.906,0,0,0,58.14-5.166Zm9.629-.205a6.19,6.19,0,0,1,1.152-3.911,3.644,3.644,0,0,1,3.018-1.479,3.665,3.665,0,0,1,2.939,1.27V-15h1.807V0h-1.66l-.088-1.133A3.679,3.679,0,0,1,71.919.2a3.609,3.609,0,0,1-2.993-1.5,6.26,6.26,0,0,1-1.157-3.926Zm1.807.205a4.687,4.687,0,0,0,.742,2.813,2.4,2.4,0,0,0,2.051,1.016,2.636,2.636,0,0,0,2.51-1.543V-7.734a2.656,2.656,0,0,0-2.49-1.494A2.411,2.411,0,0,0,70.318-8.2,5.16,5.16,0,0,0,69.575-5.166Zm9.434-.215a6.241,6.241,0,0,1,.61-2.793,4.553,4.553,0,0,1,1.7-1.914,4.626,4.626,0,0,1,2.485-.674A4.456,4.456,0,0,1,87.3-9.268a5.748,5.748,0,0,1,1.333,3.975v.127A6.3,6.3,0,0,1,88.037-2.4,4.486,4.486,0,0,1,86.348-.488,4.679,4.679,0,0,1,83.823.2,4.445,4.445,0,0,1,80.342-1.3a5.719,5.719,0,0,1-1.333-3.955Zm1.816.215a4.52,4.52,0,0,0,.815,2.822,2.61,2.61,0,0,0,2.183,1.064,2.594,2.594,0,0,0,2.188-1.079,4.943,4.943,0,0,0,.811-3.022A4.513,4.513,0,0,0,86-8.2,2.623,2.623,0,0,0,83.8-9.277a2.594,2.594,0,0,0-2.158,1.064A4.906,4.906,0,0,0,80.825-5.166Zm17.461-5.41-.254,1.338a4.166,4.166,0,0,1,3.242-1.523,2.621,2.621,0,0,1,2.207,1.035,4.022,4.022,0,0,1,.527,2.8L102.857,0h-1.768l1.162-6.946a3.7,3.7,0,0,0,.01-.888,1.46,1.46,0,0,0-1.611-1.395,3.327,3.327,0,0,0-2.793,1.7L96.548,0H94.78l1.836-10.566ZM110.152.2a3.81,3.81,0,0,1-3.086-1.455,5.007,5.007,0,0,1-.937-3.623l.049-.42a7.03,7.03,0,0,1,.933-2.871,5.424,5.424,0,0,1,1.87-1.958,4.363,4.363,0,0,1,2.383-.63,3.36,3.36,0,0,1,2.559,1.084,4.458,4.458,0,0,1,1.016,2.832,8.276,8.276,0,0,1-.039,1.27l-.107.811h-6.9a3.569,3.569,0,0,0,.474,2.441A2.244,2.244,0,0,0,110.3-1.279a3.759,3.759,0,0,0,2.891-1.406l1.016.859a4.648,4.648,0,0,1-1.714,1.5A4.857,4.857,0,0,1,110.152.2Zm1.123-9.482a2.582,2.582,0,0,0-1.909.742,5.275,5.275,0,0,0-1.294,2.295l5.137.01.039-.156a2.891,2.891,0,0,0-.4-2.046A1.86,1.86,0,0,0,111.275-9.287Zm9.219,2.568,2.871-3.848h2.168l-4.238,5.313L123.872,0h-1.924L120.2-3.945,117.222,0h-2.158l4.365-5.43-2.5-5.137h1.934Zm9.844-6.406-.449,2.559h1.924l-.244,1.4h-1.914L128.55-2.6a2.292,2.292,0,0,0-.01.469.745.745,0,0,0,.83.762,5.063,5.063,0,0,0,.859-.1L130.093.01A4.809,4.809,0,0,1,128.8.186a1.846,1.846,0,0,1-1.582-.776,3,3,0,0,1-.41-2.036l1.074-6.543h-1.865l.244-1.4h1.865l.449-2.559ZM133.1-5.771a15.1,15.1,0,0,1,.591-4.238,12.312,12.312,0,0,1,1.763-3.691,7.5,7.5,0,0,1,2.432-2.344l.371,1.191a7.778,7.778,0,0,0-2.339,3.34,14.479,14.479,0,0,0-1,5.029l-.01.83A14.554,14.554,0,0,0,136.284.889a7.815,7.815,0,0,0,1.973,2.6l-.371,1.1a7.74,7.74,0,0,1-2.48-2.422A13.574,13.574,0,0,1,133.1-5.771Zm11.074.1A15.106,15.106,0,0,1,143.6-1.5a12.345,12.345,0,0,1-1.748,3.687,7.659,7.659,0,0,1-2.466,2.4l-.381-1.1a7.851,7.851,0,0,0,2.417-3.579,15.484,15.484,0,0,0,.933-5.386v-.312a16.077,16.077,0,0,0-.43-3.813,12.87,12.87,0,0,0-1.2-3.159,7.3,7.3,0,0,0-1.724-2.178l.381-1.1a7.629,7.629,0,0,1,2.456,2.383,12.371,12.371,0,0,1,1.748,3.682A15.454,15.454,0,0,1,144.175-5.674Z" transform="translate(651.8 452.95)" fill="#ffa726"/>
      </g>
      <g id="Grupo_87631" data-name="Grupo 87631">
        <g id="Grupo_87630" data-name="Grupo 87630" opacity="0.47">
          <circle id="Elipse_7273" data-name="Elipse 7273" cx="20.58" cy="20.58" r="20.58" transform="translate(597.4 426.88)" fill="#36dac9"/>
        </g>
        <circle id="Elipse_7274" data-name="Elipse 7274" cx="16" cy="16" r="16" transform="translate(601.98 431.46)" fill="#36dac9"/>
      </g>
    </g>
  </g>
</svg>
