<?xml version="1.0" encoding="utf-8"?>
<!-- Generator: Adobe Illustrator 26.0.1, SVG Export Plug-In . SVG Version: 6.00 Build 0)  -->
<svg version="1.1" id="Layer_1" xmlns="http://www.w3.org/2000/svg" xmlns:xlink="http://www.w3.org/1999/xlink" x="0px" y="0px"
	 viewBox="0 0 782.1 300.8" style="enable-background:new 0 0 782.1 300.8;" xml:space="preserve">
<style type="text/css">
	.st0{fill:#B5CEEB;}
	.st1{fill:#12263F;}
	.st2{fill:none;stroke:#024E73;stroke-width:2;stroke-miterlimit:10;}
	.st3{fill:#024E73;}
	.st4{fill:none;stroke:#024E73;stroke-width:2;stroke-miterlimit:10;stroke-dasharray:3.22,3.22;}
	.st5{fill:none;stroke:#024E73;stroke-width:2;stroke-miterlimit:10;stroke-dasharray:3.04,3.04;}
	.st6{enable-background:new    ;}
	.st7{fill:none;stroke:#024E73;stroke-width:2;stroke-miterlimit:10;stroke-dasharray:3;}
</style>
<path id="Rectángulo_37431" class="st0" d="M260,45.1h75.4c6.6,0,12,5.4,12,12v45.6c0,6.6-5.4,12-12,12H260c-6.6,0-12-5.4-12-12
	V57.1C248,50.5,253.4,45.1,260,45.1z"/>
<path id="Trazado_160480" class="st1" d="M286.4,83.7H285l1.5-8.5h1.4L286.4,83.7z M287.6,72.2c0.2,0,0.4,0.1,0.6,0.2
	c0.2,0.2,0.2,0.4,0.2,0.6c0,0.2-0.1,0.4-0.2,0.6c-0.2,0.2-0.4,0.2-0.6,0.2c-0.2,0-0.4-0.1-0.6-0.2c-0.2-0.2-0.2-0.4-0.2-0.6
	c0-0.2,0.1-0.4,0.2-0.6C287.2,72.3,287.4,72.2,287.6,72.2z M291.6,75.3l-0.2,1.1c0.6-0.8,1.6-1.2,2.6-1.2c0.7,0,1.3,0.3,1.8,0.8
	c0.4,0.7,0.6,1.5,0.4,2.2l-0.9,5.5h-1.4l0.9-5.6c0-0.2,0-0.5,0-0.7c0-0.6-0.6-1.1-1.2-1.1c0,0-0.1,0-0.1,0c-0.9,0-1.8,0.5-2.2,1.4
	l-1,6h-1.4l1.5-8.5L291.6,75.3z M298.9,83.7h-1.4l1.5-8.5h1.4L298.9,83.7z M300.1,72.2c0.2,0,0.4,0.1,0.6,0.2
	c0.2,0.2,0.2,0.4,0.2,0.6c0,0.2-0.1,0.4-0.2,0.6c-0.2,0.2-0.4,0.2-0.6,0.2c-0.2,0-0.4-0.1-0.6-0.2c-0.2-0.2-0.2-0.4-0.2-0.6
	c0-0.2,0.1-0.4,0.2-0.6C299.6,72.3,299.9,72.2,300.1,72.2z M305,73.2l-0.4,2h1.5l-0.2,1.1h-1.5l-0.9,5.3c0,0.1,0,0.3,0,0.4
	c0,0.3,0.3,0.6,0.6,0.6c0,0,0.1,0,0.1,0c0.2,0,0.5,0,0.7-0.1l-0.1,1.2c-0.3,0.1-0.7,0.1-1,0.1c-0.5,0-1-0.2-1.3-0.6
	c-0.3-0.5-0.4-1.1-0.3-1.6l0.9-5.2h-1.5l0.2-1.1h1.5l0.4-2H305z"/>
<path id="Rectángulo_37432" class="st0" d="M260,140.2h75.4c6.6,0,12,5.4,12,12v45.6c0,6.6-5.4,12-12,12H260c-6.6,0-12-5.4-12-12
	v-45.6C248,145.6,253.4,140.2,260,140.2z"/>
<path id="Trazado_160479" class="st1" d="M275.7,176.6c0.1-0.6-0.2-1-1-1.2l-1.5-0.4c-1.2-0.4-1.8-1.1-1.8-2.1c0-0.7,0.4-1.4,1-1.8
	c0.7-0.5,1.5-0.7,2.3-0.7c0.8,0,1.5,0.2,2.1,0.7c0.5,0.5,0.8,1.2,0.8,1.9l-1.4,0c0-0.4-0.1-0.8-0.4-1c-0.3-0.3-0.7-0.4-1.1-0.4
	c-0.4,0-0.9,0.1-1.3,0.4c-0.3,0.2-0.5,0.5-0.6,0.9c-0.1,0.5,0.2,0.8,0.9,1.1l0.7,0.2c0.8,0.1,1.5,0.5,2.1,1c0.4,0.4,0.6,0.9,0.6,1.5
	c0,0.5-0.2,1-0.5,1.4c-0.3,0.4-0.8,0.7-1.2,0.9c-0.5,0.2-1.1,0.3-1.7,0.3c-0.8,0-1.6-0.3-2.2-0.8c-0.6-0.5-0.9-1.2-0.8-2l1.4,0
	c0,0.4,0.1,0.8,0.5,1.1c0.3,0.3,0.8,0.5,1.2,0.4c0.5,0,0.9-0.1,1.3-0.3C275.4,177.3,275.6,176.9,275.7,176.6z M282.2,179
	c-1,0-1.9-0.4-2.5-1.2c-0.6-0.8-0.9-1.9-0.8-2.9l0-0.3c0.1-0.8,0.3-1.6,0.7-2.3c0.4-0.6,0.9-1.2,1.5-1.6c0.6-0.3,1.2-0.5,1.9-0.5
	c0.8,0,1.5,0.3,2,0.9c0.5,0.6,0.8,1.4,0.8,2.3c0,0.3,0,0.7,0,1l-0.1,0.6h-5.5c-0.1,0.7,0,1.4,0.4,2c0.3,0.5,0.9,0.8,1.6,0.8
	c0.9,0,1.7-0.4,2.3-1.1l0.8,0.7c-0.4,0.5-0.8,0.9-1.4,1.2C283.5,178.9,282.8,179,282.2,179z M283.1,171.4c-0.6,0-1.1,0.2-1.5,0.6
	c-0.5,0.5-0.9,1.1-1,1.8l4.1,0l0-0.1c0.1-0.6,0-1.1-0.3-1.6C284.1,171.7,283.6,171.4,283.1,171.4L283.1,171.4z M292.1,171.7
	l-0.7-0.1c-0.9,0-1.7,0.5-2.1,1.2l-1,6h-1.4l1.5-8.5l1.4,0l-0.2,1c0.5-0.7,1.3-1.1,2.1-1.1c0.2,0,0.5,0,0.7,0.1L292.1,171.7z
	 M295.5,176.9l3-6.5h1.5l-4.3,8.5h-1.1l-1.7-8.5h1.4L295.5,176.9z M301.6,178.8h-1.4l1.5-8.5h1.4L301.6,178.8z M302.7,167.3
	c0.2,0,0.4,0.1,0.6,0.2c0.2,0.2,0.2,0.4,0.2,0.6c0,0.2-0.1,0.4-0.2,0.6c-0.2,0.2-0.4,0.2-0.6,0.2c-0.2,0-0.4-0.1-0.6-0.2
	c-0.2-0.2-0.2-0.4-0.2-0.6c0-0.2,0.1-0.4,0.2-0.6C302.3,167.4,302.5,167.3,302.7,167.3z M307.4,177.8c0.5,0,1-0.1,1.4-0.4
	c0.4-0.3,0.7-0.7,0.8-1.2l1.3,0c-0.1,0.5-0.3,1-0.6,1.5c-0.3,0.4-0.8,0.8-1.3,1c-0.5,0.2-1.1,0.4-1.6,0.3c-0.6,0-1.3-0.2-1.8-0.6
	c-0.5-0.4-0.9-0.9-1.1-1.5c-0.2-0.7-0.3-1.4-0.2-2.2l0-0.4c0.1-0.8,0.3-1.5,0.7-2.2c0.4-0.6,0.9-1.1,1.5-1.5c0.6-0.4,1.3-0.5,2-0.5
	c0.8,0,1.6,0.3,2.1,0.9c0.5,0.6,0.8,1.4,0.8,2.2l-1.3,0c0-0.5-0.2-1-0.5-1.3c-0.3-0.3-0.7-0.5-1.2-0.5c-0.7,0-1.4,0.3-1.8,0.8
	c-0.5,0.7-0.8,1.5-0.9,2.4l0,0.2c0,0.3,0,0.7,0,1c0,0.5,0.2,1,0.5,1.4C306.5,177.6,307,177.8,307.4,177.8z M315.7,179
	c-1,0-1.9-0.4-2.5-1.2c-0.6-0.8-0.9-1.9-0.8-2.9l0-0.3c0.1-0.8,0.3-1.6,0.7-2.3c0.4-0.6,0.9-1.2,1.5-1.6c0.6-0.3,1.2-0.5,1.9-0.5
	c0.8,0,1.5,0.3,2,0.9c0.5,0.6,0.8,1.4,0.8,2.3c0,0.3,0,0.7,0,1l-0.1,0.6h-5.5c-0.1,0.7,0,1.4,0.4,2c0.3,0.5,0.9,0.8,1.6,0.8
	c0.9,0,1.7-0.4,2.3-1.1l0.8,0.7c-0.4,0.5-0.8,0.9-1.4,1.2C317,178.9,316.4,179,315.7,179z M316.6,171.4c-0.6,0-1.1,0.2-1.5,0.6
	c-0.5,0.5-0.9,1.1-1,1.8l4.1,0l0-0.1c0.1-0.6,0-1.1-0.3-1.6C317.6,171.7,317.1,171.4,316.6,171.4L316.6,171.4z"/>
<path id="Rectángulo_37433" class="st0" d="M260,231.2h75.4c6.6,0,12,5.4,12,12v45.6c0,6.6-5.4,12-12,12H260c-6.6,0-12-5.4-12-12
	v-45.6C248,236.6,253.4,231.2,260,231.2z"/>
<path id="Trazado_160478" class="st1" d="M266.7,265.2c0.1-0.8,0.3-1.6,0.7-2.3c0.3-0.6,0.8-1.2,1.4-1.6c0.5-0.3,1.2-0.5,1.8-0.5
	c0.8,0,1.7,0.4,2.2,1l0.8-4.4h1.4l-2.1,12h-1.3l0.2-0.9c-0.6,0.7-1.5,1.1-2.5,1.1c-0.7,0-1.4-0.3-1.9-0.9c-0.5-0.7-0.8-1.5-0.8-2.4
	C266.6,265.9,266.6,265.5,266.7,265.2z M268,266c0,0.6,0.1,1.2,0.4,1.7c0.3,0.4,0.7,0.6,1.2,0.6c0.9,0,1.7-0.5,2.2-1.2l0.7-3.9
	c-0.2-0.7-0.9-1.2-1.7-1.2c-0.5,0-1.1,0.2-1.5,0.5c-0.5,0.4-0.8,0.9-1,1.5C268.2,264.6,268,265.3,268,266L268,266z M278.8,269.6
	c-1,0-1.9-0.4-2.5-1.2c-0.6-0.8-0.9-1.9-0.8-2.9l0-0.3c0.1-0.8,0.3-1.6,0.7-2.3c0.4-0.6,0.9-1.2,1.5-1.6c0.6-0.3,1.2-0.5,1.9-0.5
	c0.8,0,1.5,0.3,2,0.9c0.5,0.6,0.8,1.4,0.8,2.3c0,0.3,0,0.7,0,1l-0.1,0.6h-5.5c-0.1,0.7,0,1.4,0.4,2c0.3,0.5,0.9,0.8,1.6,0.8
	c0.9,0,1.7-0.4,2.3-1.1l0.8,0.7c-0.4,0.5-0.8,0.9-1.4,1.2C280.1,269.4,279.4,269.6,278.8,269.6z M279.7,262c-0.6,0-1.1,0.2-1.5,0.6
	c-0.5,0.5-0.9,1.1-1,1.8l4.1,0l0-0.1c0.1-0.6,0-1.1-0.3-1.6C280.6,262.2,280.2,262,279.7,262L279.7,262z M288.6,267.1
	c0.1-0.6-0.2-1-1-1.2l-1.5-0.4c-1.2-0.4-1.8-1.1-1.8-2.1c0-0.7,0.4-1.4,1-1.8c0.7-0.5,1.5-0.7,2.3-0.7c0.8,0,1.5,0.2,2.1,0.7
	c0.5,0.5,0.8,1.2,0.8,1.9l-1.4,0c0-0.4-0.1-0.8-0.4-1c-0.3-0.3-0.7-0.4-1.1-0.4c-0.4,0-0.9,0.1-1.3,0.4c-0.3,0.2-0.5,0.5-0.6,0.9
	c-0.1,0.5,0.2,0.8,0.9,1.1l0.7,0.2c0.8,0.1,1.5,0.5,2.1,1c0.4,0.4,0.6,0.9,0.6,1.5c0,0.5-0.2,1-0.5,1.4c-0.3,0.4-0.8,0.7-1.2,0.9
	c-0.5,0.2-1.1,0.3-1.7,0.3c-0.8,0-1.6-0.3-2.2-0.8c-0.6-0.5-0.9-1.2-0.8-2l1.4,0c0,0.4,0.1,0.8,0.5,1.1c0.3,0.3,0.8,0.5,1.2,0.4
	c0.5,0,0.9-0.1,1.3-0.3C288.3,267.9,288.6,267.5,288.6,267.1z M295.2,258.9l-0.4,2h1.5l-0.2,1.1h-1.5l-0.9,5.3c0,0.1,0,0.3,0,0.4
	c0,0.3,0.3,0.6,0.6,0.6c0,0,0.1,0,0.1,0c0.2,0,0.5,0,0.7-0.1l-0.1,1.2c-0.3,0.1-0.7,0.1-1,0.1c-0.5,0-1-0.2-1.3-0.6
	c-0.3-0.5-0.4-1.1-0.3-1.6l0.9-5.2h-1.5l0.2-1.1h1.5l0.4-2L295.2,258.9z M301.9,262.2l-0.7-0.1c-0.9,0-1.7,0.5-2.1,1.2l-1,6h-1.4
	l1.5-8.5l1.4,0l-0.2,1c0.5-0.7,1.3-1.1,2.1-1.1c0.2,0,0.5,0,0.7,0.1L301.9,262.2z M306.3,260.8c0.7,0,1.3,0.2,1.8,0.6
	c0.5,0.4,0.9,0.9,1.1,1.6c0.2,0.7,0.3,1.4,0.2,2.2l0,0.2c-0.1,0.8-0.3,1.5-0.7,2.2c-0.4,0.6-0.9,1.2-1.5,1.6c-0.6,0.4-1.3,0.5-2,0.5
	c-0.7,0-1.3-0.2-1.8-0.6c-0.5-0.4-0.9-0.9-1.1-1.5c-0.2-0.7-0.3-1.4-0.3-2.1c0.1-0.8,0.3-1.6,0.7-2.4c0.4-0.7,0.9-1.2,1.5-1.6
	C304.9,261,305.6,260.8,306.3,260.8z M303.5,265.3c0,0.3,0,0.7,0,1c0,0.5,0.2,1.1,0.6,1.5c0.3,0.4,0.8,0.6,1.3,0.6
	c0.5,0,0.9-0.1,1.3-0.3c0.4-0.3,0.8-0.7,1-1.1c0.3-0.5,0.5-1.1,0.5-1.7c0-0.4,0-0.8,0-1.2c0-0.5-0.2-1.1-0.6-1.5
	c-0.3-0.4-0.8-0.6-1.3-0.6c-0.7,0-1.4,0.3-1.9,0.9c-0.5,0.7-0.9,1.5-0.9,2.3L303.5,265.3z M313.4,267.3l3-6.3h1.6l-5,9.9
	c-0.7,1.4-1.6,2-2.7,2c-0.3,0-0.6-0.1-0.9-0.1l0.1-1.2l0.4,0c0.4,0,0.8-0.1,1.2-0.3c0.4-0.3,0.7-0.6,0.9-1.1l0.5-1L311,261h1.5
	L313.4,267.3z"/>
<path id="Rectángulo_37429" class="st0" d="M496,140.2h65c6.6,0,12,5.4,12,12v45.6c0,6.6-5.4,12-12,12h-65c-6.6,0-12-5.4-12-12
	v-45.6C484,145.6,489.4,140.2,496,140.2z"/>
<path id="Trazado_160483" class="st1" d="M512.8,176.6c0.1-0.6-0.2-1-1-1.2l-1.5-0.4c-1.2-0.4-1.8-1.1-1.8-2.1c0-0.7,0.4-1.4,1-1.8
	c0.7-0.5,1.5-0.7,2.3-0.7c0.8,0,1.5,0.2,2.1,0.7c0.5,0.5,0.8,1.2,0.8,1.9l-1.4,0c0-0.4-0.1-0.8-0.4-1c-0.3-0.3-0.7-0.4-1.1-0.4
	c-0.4,0-0.9,0.1-1.3,0.4c-0.3,0.2-0.5,0.5-0.6,0.9c-0.1,0.5,0.2,0.8,0.9,1.1l0.7,0.2c0.8,0.1,1.5,0.5,2.1,1c0.4,0.4,0.6,0.9,0.6,1.5
	c0,0.5-0.2,1-0.5,1.4c-0.3,0.4-0.8,0.7-1.2,0.9c-0.5,0.2-1.1,0.3-1.7,0.3c-0.8,0-1.6-0.3-2.2-0.8c-0.6-0.5-0.9-1.2-0.8-2l1.4,0
	c0,0.4,0.1,0.8,0.5,1.1c0.3,0.3,0.8,0.5,1.2,0.4c0.5,0,0.9-0.1,1.3-0.3C512.5,177.3,512.8,176.9,512.8,176.6z M519.3,179
	c-1,0-1.9-0.4-2.5-1.2c-0.6-0.8-0.9-1.9-0.8-2.9l0-0.3c0.1-0.8,0.3-1.6,0.7-2.3c0.4-0.6,0.9-1.2,1.5-1.6c0.6-0.3,1.2-0.5,1.9-0.5
	c0.8,0,1.5,0.3,2,0.9c0.5,0.6,0.8,1.4,0.8,2.3c0,0.3,0,0.7,0,1L523,175h-5.5c-0.1,0.7,0,1.4,0.4,2c0.3,0.5,0.9,0.8,1.6,0.8
	c0.9,0,1.7-0.4,2.3-1.1l0.8,0.7c-0.4,0.5-0.8,0.9-1.4,1.2C520.6,178.9,520,179,519.3,179z M520.2,171.4c-0.6,0-1.1,0.2-1.5,0.6
	c-0.5,0.5-0.9,1.1-1,1.8l4.1,0l0-0.1c0.1-0.6,0-1.1-0.3-1.6C521.2,171.7,520.7,171.4,520.2,171.4L520.2,171.4z M529.2,171.7
	l-0.7-0.1c-0.9,0-1.7,0.5-2.1,1.2l-1,6H524l1.5-8.5l1.4,0l-0.2,1c0.5-0.7,1.3-1.1,2.1-1.1c0.2,0,0.5,0,0.7,0.1L529.2,171.7z
	 M532.7,176.9l3-6.5h1.5l-4.3,8.5h-1.1l-1.7-8.5h1.4L532.7,176.9z M538.7,178.8h-1.4l1.5-8.5h1.4L538.7,178.8z M539.9,167.3
	c0.2,0,0.4,0.1,0.6,0.2c0.2,0.2,0.2,0.4,0.2,0.6c0,0.2-0.1,0.4-0.2,0.6c-0.2,0.2-0.4,0.2-0.6,0.2c-0.2,0-0.4-0.1-0.6-0.2
	c-0.2-0.2-0.2-0.4-0.2-0.6c0-0.2,0.1-0.4,0.2-0.6C539.4,167.4,539.6,167.3,539.9,167.3z M544.6,177.8c0.5,0,1-0.1,1.4-0.4
	c0.4-0.3,0.7-0.7,0.8-1.2l1.3,0c-0.1,0.5-0.3,1-0.6,1.5c-0.4,0.4-0.8,0.8-1.3,1c-0.5,0.2-1.1,0.4-1.6,0.3c-0.6,0-1.3-0.2-1.8-0.6
	c-0.5-0.4-0.9-0.9-1.1-1.5c-0.2-0.7-0.3-1.4-0.2-2.2l0-0.4c0.1-0.8,0.3-1.5,0.7-2.2c0.4-0.6,0.9-1.1,1.5-1.5c0.6-0.4,1.3-0.5,2-0.5
	c0.8,0,1.6,0.3,2.1,0.9c0.5,0.6,0.8,1.4,0.8,2.2l-1.3,0c0-0.5-0.2-1-0.5-1.3c-0.3-0.3-0.7-0.5-1.2-0.5c-0.7,0-1.4,0.3-1.8,0.8
	c-0.5,0.7-0.8,1.5-0.9,2.4l0,0.2c0,0.3,0,0.7,0,1c0,0.5,0.2,1,0.5,1.4C543.7,177.6,544.1,177.8,544.6,177.8z M552.9,179
	c-1,0-1.9-0.4-2.5-1.2c-0.6-0.8-0.9-1.9-0.8-2.9l0-0.3c0.1-0.8,0.3-1.6,0.7-2.3c0.4-0.6,0.9-1.2,1.5-1.6c0.6-0.3,1.2-0.5,1.9-0.5
	c0.8,0,1.5,0.3,2,0.9c0.5,0.6,0.8,1.4,0.8,2.3c0,0.3,0,0.7,0,1l-0.1,0.6h-5.5c-0.1,0.7,0,1.4,0.4,2c0.3,0.5,0.9,0.8,1.6,0.8
	c0.9,0,1.7-0.4,2.3-1.1l0.8,0.7c-0.4,0.5-0.8,0.9-1.4,1.2C554.2,178.9,553.5,179,552.9,179z M553.8,171.4c-0.6,0-1.1,0.2-1.5,0.6
	c-0.5,0.5-0.9,1.1-1,1.8l4.1,0l0-0.1c0.1-0.6,0-1.1-0.3-1.6C554.8,171.7,554.3,171.4,553.8,171.4L553.8,171.4z"/>
<path id="Rectángulo_37428" class="st0" d="M705.1,100.8h65c6.6,0,12,5.4,12,12v45.6c0,6.6-5.4,12-12,12h-65c-6.6,0-12-5.4-12-12
	v-45.6C693.1,106.1,698.5,100.8,705.1,100.8z"/>
<path id="Trazado_160481" class="st1" d="M721.1,135.2c0.1-0.8,0.3-1.6,0.7-2.3c0.3-0.6,0.8-1.2,1.4-1.6c0.5-0.3,1.2-0.5,1.8-0.5
	c0.8,0,1.7,0.4,2.2,1l0.8-4.4h1.4l-2.1,12H726l0.2-0.9c-0.6,0.7-1.5,1.1-2.5,1.1c-0.7,0-1.4-0.3-1.9-0.9c-0.5-0.7-0.8-1.5-0.8-2.4
	C721,135.9,721.1,135.5,721.1,135.2z M722.5,136c0,0.6,0.1,1.2,0.4,1.7c0.3,0.4,0.7,0.6,1.2,0.6c0.9,0,1.7-0.5,2.2-1.2l0.7-3.9
	c-0.2-0.7-0.9-1.2-1.7-1.2c-0.5,0-1.1,0.2-1.5,0.5c-0.5,0.4-0.8,0.9-1,1.5C722.6,134.6,722.5,135.3,722.5,136L722.5,136z
	 M734.2,130.8c0.7,0,1.3,0.2,1.8,0.6c0.5,0.4,0.9,0.9,1.1,1.6c0.2,0.7,0.3,1.4,0.2,2.2l0,0.2c-0.1,0.8-0.3,1.5-0.7,2.2
	c-0.4,0.6-0.9,1.2-1.5,1.6c-0.6,0.4-1.3,0.5-2,0.5c-0.7,0-1.3-0.2-1.8-0.6c-0.5-0.4-0.9-0.9-1.1-1.5c-0.2-0.7-0.3-1.4-0.2-2.1
	c0.1-0.8,0.3-1.6,0.7-2.4c0.4-0.7,0.9-1.2,1.5-1.6C732.8,131,733.5,130.8,734.2,130.8z M731.3,135.3c0,0.3,0,0.7,0,1
	c0,0.5,0.2,1.1,0.6,1.5c0.3,0.4,0.8,0.6,1.3,0.6c0.5,0,0.9-0.1,1.3-0.3c0.4-0.3,0.8-0.7,1-1.1c0.3-0.5,0.5-1.1,0.5-1.7
	c0-0.4,0-0.8,0-1.2c0-0.5-0.2-1.1-0.6-1.5c-0.3-0.4-0.8-0.6-1.3-0.6c-0.7,0-1.4,0.3-1.9,0.9c-0.5,0.7-0.9,1.5-0.9,2.3L731.3,135.3z
	 M747.2,137.9c-0.4,0.6-1,1-1.7,1.2c-0.8,0.3-1.6,0.4-2.5,0.4c-0.7,0-1.4-0.2-2-0.5c-0.6-0.3-1-0.8-1.3-1.4
	c-0.3-0.7-0.5-1.4-0.5-2.1c0-0.8,0.1-1.7,0.2-2.5c0.2-1,0.5-1.9,1-2.7c0.4-0.7,1-1.3,1.8-1.8c0.7-0.4,1.6-0.6,2.4-0.6
	c0.9,0,1.8,0.3,2.5,0.9c0.7,0.7,1,1.6,1.1,2.6h-1.4c0-0.6-0.2-1.2-0.7-1.7c-0.4-0.4-1-0.6-1.6-0.6c-0.9-0.1-1.8,0.3-2.5,1.1
	c-0.7,0.9-1.2,2.1-1.3,3.2l-0.1,1.1l0,0.6c-0.1,0.8,0.2,1.7,0.6,2.4c0.4,0.6,1.1,0.9,1.8,0.9c0.9,0.1,1.9-0.2,2.6-0.8l0.5-2.6h-2.6
	l0.2-1.2h4L747.2,137.9z M752.7,139.6c-1,0-1.9-0.4-2.5-1.2c-0.6-0.8-0.9-1.9-0.8-2.9l0-0.3c0.1-0.8,0.3-1.6,0.7-2.3
	c0.4-0.6,0.9-1.2,1.5-1.6c0.6-0.3,1.2-0.5,1.9-0.5c0.8,0,1.5,0.3,2,0.9c0.5,0.6,0.8,1.4,0.8,2.3c0,0.3,0,0.7,0,1l-0.1,0.6h-5.5
	c-0.1,0.7,0,1.4,0.4,2c0.3,0.5,0.9,0.8,1.6,0.8c0.9,0,1.7-0.4,2.3-1.1l0.8,0.7c-0.4,0.5-0.8,0.9-1.4,1.2
	C754,139.4,753.4,139.6,752.7,139.6z M753.6,132c-0.6,0-1.1,0.2-1.5,0.6c-0.5,0.5-0.8,1.1-1,1.8l4.1,0l0-0.1c0.1-0.6,0-1.1-0.3-1.6
	C754.6,132.2,754.2,132,753.6,132z M761.1,128.9l-0.4,2h1.5l-0.2,1.1h-1.5l-0.9,5.3c0,0.1,0,0.3,0,0.4c0,0.3,0.3,0.6,0.6,0.6
	c0,0,0.1,0,0.1,0c0.2,0,0.5,0,0.7-0.1l-0.1,1.2c-0.3,0.1-0.7,0.1-1,0.1c-0.5,0-1-0.2-1.3-0.6c-0.3-0.5-0.4-1.1-0.3-1.6l0.9-5.2h-1.5
	l0.2-1.1h1.5l0.4-2L761.1,128.9z"/>
<path id="Rectángulo_37430" class="st0" d="M705.1,196.4h65c6.6,0,12,5.4,12,12V254c0,6.6-5.4,12-12,12h-65c-6.6,0-12-5.4-12-12
	v-45.6C693.1,201.8,698.5,196.4,705.1,196.4z"/>
<path id="Trazado_160482" class="st1" d="M717.1,230.8c0.1-0.8,0.3-1.6,0.7-2.3c0.3-0.6,0.8-1.2,1.4-1.6c0.5-0.3,1.2-0.5,1.8-0.5
	c0.8,0,1.7,0.4,2.2,1l0.8-4.4h1.4l-2.1,12H722l0.2-0.9c-0.6,0.7-1.5,1.1-2.5,1.1c-0.7,0-1.4-0.3-1.9-0.9c-0.5-0.7-0.8-1.5-0.8-2.4
	C717,231.5,717.1,231.2,717.1,230.8z M718.5,231.6c0,0.6,0.1,1.2,0.4,1.7c0.3,0.4,0.7,0.6,1.2,0.6c0.9,0,1.7-0.5,2.2-1.2l0.7-3.9
	c-0.2-0.7-0.9-1.2-1.7-1.2c-0.5,0-1.1,0.2-1.5,0.5c-0.5,0.4-0.8,0.9-1,1.5C718.6,230.3,718.5,230.9,718.5,231.6L718.5,231.6z
	 M730.2,226.4c0.7,0,1.3,0.2,1.8,0.6c0.5,0.4,0.9,0.9,1.1,1.6c0.2,0.7,0.3,1.4,0.2,2.2l0,0.2c-0.1,0.8-0.3,1.5-0.7,2.2
	c-0.4,0.6-0.9,1.2-1.5,1.6c-0.6,0.4-1.3,0.5-2,0.5c-0.7,0-1.3-0.2-1.8-0.6c-0.5-0.4-0.9-0.9-1.1-1.5c-0.2-0.7-0.3-1.4-0.2-2.1
	c0.1-0.8,0.3-1.6,0.7-2.4c0.4-0.7,0.9-1.2,1.5-1.6C728.8,226.6,729.5,226.4,730.2,226.4z M727.3,231c0,0.3,0,0.7,0,1
	c0,0.5,0.2,1.1,0.6,1.5c0.3,0.4,0.8,0.6,1.3,0.6c0.5,0,0.9-0.1,1.3-0.3c0.4-0.3,0.8-0.7,1-1.1c0.3-0.5,0.5-1.1,0.5-1.7
	c0-0.4,0-0.8,0-1.2c0-0.5-0.2-1.1-0.6-1.5c-0.3-0.4-0.8-0.6-1.3-0.6c-0.7,0-1.4,0.3-1.9,0.9c-0.5,0.7-0.9,1.5-0.9,2.3L727.3,231z
	 M736.9,230.6l-0.8,4.5h-1.5l2-11.4l3.8,0c1-0.1,2,0.3,2.7,0.9c0.6,0.7,0.9,1.6,0.8,2.5c0,1-0.5,1.9-1.3,2.6c-0.9,0.7-2,1-3.1,0.9
	L736.9,230.6z M737.1,229.4l2.5,0c0.7,0,1.4-0.2,2-0.6c0.5-0.4,0.8-1,0.9-1.7c0.1-0.6,0-1.1-0.4-1.6c-0.4-0.4-0.9-0.6-1.5-0.6
	l-2.7,0L737.1,229.4z M748.7,226.4c0.7,0,1.3,0.2,1.8,0.6c0.5,0.4,0.9,0.9,1.1,1.6c0.2,0.7,0.3,1.4,0.2,2.2l0,0.2
	c-0.1,0.8-0.3,1.5-0.7,2.2c-0.4,0.6-0.9,1.2-1.5,1.6c-0.6,0.4-1.3,0.5-2,0.5c-0.7,0-1.3-0.2-1.8-0.6c-0.5-0.4-0.9-0.9-1.1-1.5
	c-0.2-0.7-0.3-1.4-0.3-2.1c0.1-0.8,0.3-1.6,0.7-2.4c0.4-0.7,0.9-1.2,1.5-1.6C747.3,226.6,748,226.4,748.7,226.4z M745.9,231
	c0,0.3,0,0.7,0,1c0,0.5,0.2,1.1,0.6,1.5c0.3,0.4,0.8,0.6,1.3,0.6c0.5,0,0.9-0.1,1.3-0.3c0.4-0.3,0.8-0.7,1-1.1
	c0.3-0.5,0.5-1.1,0.5-1.7c0-0.4,0-0.8,0-1.2c0-0.5-0.2-1.1-0.6-1.5c-0.3-0.4-0.8-0.6-1.3-0.6c-0.7,0-1.4,0.3-1.9,0.9
	c-0.5,0.7-0.9,1.5-0.9,2.3L745.9,231z M758.2,232.8c0.1-0.6-0.2-1-1-1.2l-1.5-0.4c-1.2-0.4-1.8-1.1-1.8-2.1c0-0.7,0.4-1.4,1-1.8
	c0.7-0.5,1.5-0.7,2.3-0.7c0.8,0,1.5,0.2,2.1,0.7c0.5,0.5,0.8,1.2,0.8,1.9l-1.4,0c0-0.4-0.1-0.8-0.4-1c-0.3-0.3-0.7-0.4-1.1-0.4
	c-0.4,0-0.9,0.1-1.3,0.4c-0.3,0.2-0.5,0.5-0.6,0.9c-0.1,0.5,0.2,0.8,0.9,1.1l0.7,0.2c0.8,0.1,1.5,0.5,2.1,1c0.4,0.4,0.6,0.9,0.6,1.5
	c0,0.5-0.2,1-0.5,1.4c-0.3,0.4-0.8,0.7-1.2,0.9c-0.5,0.2-1.1,0.3-1.7,0.3c-0.8,0-1.6-0.3-2.2-0.8c-0.6-0.5-0.9-1.2-0.8-2l1.4,0
	c0,0.4,0.1,0.8,0.5,1.1c0.3,0.3,0.8,0.5,1.2,0.4c0.5,0,0.9-0.1,1.3-0.3C757.9,233.5,758.2,233.2,758.2,232.8z M764.8,224.5l-0.4,2
	h1.5l-0.2,1.1h-1.5l-0.9,5.3c0,0.1,0,0.3,0,0.4c0,0.3,0.3,0.6,0.6,0.6c0,0,0.1,0,0.1,0c0.2,0,0.5,0,0.7-0.1l-0.1,1.2
	c-0.3,0.1-0.7,0.1-1,0.1c-0.5,0-1-0.2-1.3-0.6c-0.3-0.5-0.4-1.1-0.3-1.6l0.9-5.2h-1.5l0.2-1.1h1.5l0.4-2L764.8,224.5z"/>
<g id="Grupo_87840" transform="translate(594.2 6761.688)">
	<line id="Línea_489" class="st2" x1="-419" y1="-6681.8" x2="-361.3" y2="-6681.8"/>
	<path id="Trazado_155683" class="st3" d="M-362.4-6678.1l6.4-3.7l-6.4-3.7V-6678.1z"/>
</g>
<g id="Grupo_87841" transform="translate(594.2 6856.789)">
	<line id="Línea_490" class="st2" x1="-419" y1="-6681.8" x2="-361.3" y2="-6681.8"/>
	<path id="Trazado_155684" class="st3" d="M-362.4-6678.1l6.4-3.7l-6.4-3.7V-6678.1z"/>
</g>
<g id="Grupo_87842" transform="translate(594.2 6951.499)">
	<line id="Línea_490-2" class="st2" x1="-419" y1="-6681.8" x2="-361.3" y2="-6681.8"/>
	<path id="Trazado_155684-2" class="st3" d="M-362.4-6678.1l6.4-3.7l-6.4-3.7V-6678.1z"/>
</g>
<g id="Grupo_87837" transform="translate(476.11 6599.729)">
	<line id="Línea_491" class="st2" x1="-125.5" y1="-6422.6" x2="-20.2" y2="-6422.6"/>
	<path id="Trazado_155685" class="st3" d="M-20.1-6416.9l6.4-5.8l-6.4-5.8V-6416.9z"/>
</g>
<g id="Grupo_87838" transform="translate(1032.319 6821.048)">
	<line id="Línea_493" class="st4" x1="-458.8" y1="-6649" x2="-345.8" y2="-6682"/>
	<path id="Trazado_155686" class="st3" d="M-345.3-6678.5l5.1-5.3l-7.2-1.8L-345.3-6678.5z"/>
</g>
<g id="Grupo_87839" transform="translate(1032.319 6879.829)">
	<line id="Línea_496" class="st5" x1="-458.6" y1="-6706.4" x2="-339.8" y2="-6648.8"/>
	<path id="Trazado_155687" class="st3" d="M-346.5-6648.2l7.3-0.8l-4.3-6L-346.5-6648.2z"/>
</g>
<path id="Trazado_160469" class="st1" d="M44.2,77.5V82h-1.5V70.6h4.2c1.1-0.1,2.1,0.3,2.9,1c0.7,0.6,1.1,1.6,1.1,2.5
	c0.1,1-0.3,1.9-1,2.6c-0.8,0.6-1.9,1-3,0.9H44.2z M44.2,76.3h2.7c0.7,0,1.3-0.2,1.8-0.6c0.4-0.4,0.7-1,0.6-1.6
	c0-0.6-0.2-1.2-0.6-1.6c-0.5-0.4-1.1-0.7-1.8-0.6h-2.8V76.3z M56.6,74.8c-0.2,0-0.5-0.1-0.7-0.1c-0.8-0.1-1.6,0.4-1.9,1.2v6h-1.4
	v-8.5H54l0,1c0.4-0.7,1.2-1.2,2-1.1c0.2,0,0.4,0,0.6,0.1L56.6,74.8z M59.5,82h-1.4v-8.5h1.4L59.5,82z M58,71.3
	c0-0.2,0.1-0.4,0.2-0.6c0.2-0.2,0.4-0.3,0.6-0.2c0.2,0,0.5,0.1,0.6,0.2c0.1,0.2,0.2,0.4,0.2,0.6c0,0.2-0.1,0.4-0.2,0.6
	c-0.2,0.2-0.4,0.3-0.6,0.2c-0.2,0-0.5-0.1-0.6-0.2C58.1,71.7,58,71.5,58,71.3z M63.2,73.5l0,0.9c0.6-0.7,1.5-1.1,2.5-1.1
	c1-0.1,2,0.4,2.4,1.4c0.3-0.4,0.7-0.7,1.1-1c0.5-0.3,1-0.4,1.6-0.4c1.9,0,2.8,1,2.8,2.9V82h-1.4v-5.6c0-0.5-0.1-1-0.4-1.4
	c-0.4-0.3-0.9-0.5-1.4-0.4c-0.5,0-1,0.2-1.3,0.5c-0.4,0.3-0.6,0.8-0.6,1.3V82H67v-5.5c0.1-0.9-0.5-1.7-1.4-1.8c-0.1,0-0.3,0-0.4,0
	c-0.8-0.1-1.6,0.4-1.9,1.2V82h-1.5v-8.5L63.2,73.5z M79.4,82.1c-1.1,0-2.1-0.4-2.8-1.1c-0.7-0.8-1.1-1.9-1.1-3v-0.3
	c0-0.8,0.2-1.5,0.5-2.2c0.3-0.6,0.8-1.2,1.3-1.5c0.6-0.4,1.2-0.6,1.9-0.6c1-0.1,1.9,0.3,2.6,1.1c0.7,0.9,1,2,0.9,3.1v0.6H77
	c0,0.7,0.2,1.5,0.7,2c0.5,0.5,1.1,0.8,1.8,0.8c0.5,0,0.9-0.1,1.3-0.3c0.4-0.2,0.7-0.5,0.9-0.8l0.9,0.7
	C81.9,81.6,80.7,82.2,79.4,82.1z M79.2,74.5c-0.6,0-1.1,0.2-1.5,0.6c-0.4,0.5-0.7,1.1-0.7,1.8h4.2v-0.1c0-0.6-0.2-1.2-0.6-1.7
	C80.3,74.7,79.8,74.5,79.2,74.5z M88.4,74.8c-0.2,0-0.5-0.1-0.7-0.1c-0.8-0.1-1.6,0.4-1.9,1.2v6h-1.4v-8.5h1.4l0,1
	c0.4-0.7,1.2-1.2,2-1.1c0.2,0,0.4,0,0.6,0.1L88.4,74.8z M94.4,82c-0.1-0.3-0.2-0.6-0.2-0.9c-0.6,0.7-1.5,1.1-2.4,1
	c-0.7,0-1.5-0.2-2.1-0.7c-0.5-0.4-0.8-1.1-0.8-1.8c0-0.8,0.3-1.6,1-2.1c0.8-0.5,1.8-0.8,2.8-0.7h1.4v-0.7c0-0.4-0.1-0.9-0.4-1.2
	c-0.4-0.3-0.8-0.5-1.3-0.4c-0.5,0-0.9,0.1-1.3,0.4c-0.3,0.2-0.5,0.6-0.5,0.9h-1.4c0-0.4,0.2-0.9,0.4-1.2c0.3-0.4,0.7-0.7,1.2-0.9
	c0.5-0.2,1.1-0.4,1.7-0.3c0.8,0,1.6,0.2,2.3,0.7c0.6,0.5,0.9,1.3,0.9,2V80c0,0.6,0.1,1.3,0.3,1.9V82H94.4z M92,80.9
	c0.5,0,0.9-0.1,1.3-0.4c0.4-0.2,0.7-0.5,0.9-0.9v-1.7H93c-1.8,0-2.7,0.5-2.7,1.6c0,0.4,0.1,0.8,0.5,1.1C91.1,80.8,91.5,80.9,92,80.9
	L92,80.9z M108.9,77.8c0.1,1.1-0.3,2.2-0.9,3.1c-0.5,0.8-1.4,1.2-2.4,1.2c-0.9,0-1.8-0.3-2.4-1v4.1h-1.4V73.5h1.3l0.1,0.9
	c0.6-0.7,1.5-1.1,2.5-1.1c0.9,0,1.8,0.4,2.4,1.1c0.6,0.9,1,2.1,0.9,3.2L108.9,77.8z M107.5,77.7c0-0.8-0.2-1.6-0.6-2.3
	c-0.4-0.5-1-0.9-1.7-0.8c-0.8,0-1.6,0.4-2,1.2v4c0.4,0.7,1.2,1.2,2,1.2c0.7,0,1.3-0.3,1.7-0.8C107.3,79.4,107.6,78.5,107.5,77.7z
	 M114.3,82.1c-1.1,0-2.1-0.4-2.8-1.1c-0.7-0.8-1.1-1.9-1.1-3v-0.3c0-0.8,0.2-1.5,0.5-2.2c0.3-0.6,0.8-1.2,1.3-1.5
	c0.6-0.4,1.2-0.6,1.9-0.6c1-0.1,1.9,0.3,2.6,1.1c0.7,0.9,1,2,0.9,3.1v0.6h-5.7c0,0.7,0.2,1.5,0.7,2c0.5,0.5,1.1,0.8,1.8,0.8
	c0.5,0,0.9-0.1,1.3-0.3c0.4-0.2,0.7-0.5,0.9-0.8l0.9,0.7C116.8,81.6,115.6,82.2,114.3,82.1z M114.1,74.5c-0.6,0-1.1,0.2-1.5,0.6
	c-0.4,0.5-0.7,1.1-0.7,1.8h4.2v-0.1c0-0.6-0.2-1.2-0.6-1.7C115.2,74.7,114.7,74.5,114.1,74.5L114.1,74.5z M121.2,71.5v2h1.6v1.1
	h-1.6v5.2c0,0.3,0.1,0.5,0.2,0.8c0.2,0.2,0.5,0.3,0.7,0.3c0.2,0,0.5,0,0.7-0.1V82c-0.4,0.1-0.7,0.2-1.1,0.2c-0.6,0-1.1-0.2-1.5-0.6
	c-0.4-0.5-0.5-1.1-0.5-1.7v-5.2h-1.5v-1.1h1.5v-2H121.2z M126.1,82h-1.4v-8.5h1.4V82z M124.5,71.3c0-0.2,0.1-0.4,0.2-0.6
	c0.2-0.2,0.4-0.3,0.6-0.2c0.2,0,0.5,0.1,0.6,0.2c0.1,0.2,0.2,0.4,0.2,0.6c0,0.2-0.1,0.4-0.2,0.6c-0.2,0.2-0.4,0.3-0.6,0.2
	c-0.2,0-0.5-0.1-0.6-0.2C124.6,71.7,124.5,71.5,124.5,71.3z M131.8,80.9c0.5,0,1-0.2,1.4-0.5c0.4-0.3,0.6-0.7,0.6-1.2h1.4
	c0,0.5-0.2,1-0.5,1.4c-0.3,0.4-0.7,0.8-1.2,1c-0.5,0.3-1.1,0.4-1.6,0.4c-1,0-2.1-0.4-2.7-1.2c-0.7-0.9-1.1-2-1-3.2v-0.2
	c0-0.8,0.1-1.5,0.5-2.2c0.3-0.6,0.7-1.1,1.3-1.5c0.6-0.4,1.3-0.5,2-0.5c0.9,0,1.7,0.3,2.4,0.9c0.6,0.6,1,1.4,1,2.2h-1.4
	c0-0.5-0.2-1-0.6-1.3c-0.4-0.4-0.9-0.5-1.4-0.5c-0.7,0-1.3,0.3-1.7,0.8c-0.4,0.7-0.7,1.5-0.6,2.3v0.3c-0.1,0.8,0.2,1.6,0.6,2.2
	C130.4,80.7,131.1,81,131.8,80.9L131.8,80.9z M138.3,82h-1.4v-8.5h1.4L138.3,82z M136.8,71.3c0-0.2,0.1-0.4,0.2-0.6
	c0.2-0.2,0.4-0.3,0.6-0.2c0.2,0,0.5,0.1,0.6,0.2c0.1,0.2,0.2,0.4,0.2,0.6c0,0.2-0.1,0.4-0.2,0.6c-0.2,0.2-0.4,0.3-0.6,0.2
	c-0.2,0-0.5-0.1-0.6-0.2C136.8,71.7,136.7,71.5,136.8,71.3z M140.2,77.7c0-0.8,0.2-1.5,0.5-2.2c0.3-0.6,0.8-1.2,1.4-1.5
	c0.6-0.4,1.3-0.6,2-0.5c1.1,0,2.1,0.4,2.8,1.2c0.7,0.9,1.1,2,1.1,3.2v0.1c0,0.8-0.1,1.5-0.5,2.2c-0.3,0.6-0.8,1.2-1.4,1.5
	c-0.6,0.4-1.3,0.6-2,0.5c-1.1,0-2.1-0.4-2.8-1.2c-0.7-0.9-1.1-2-1.1-3.2V77.7z M141.7,77.8c0,0.8,0.2,1.6,0.7,2.3
	c0.4,0.6,1.1,0.9,1.7,0.9c0.7,0,1.3-0.3,1.8-0.9c0.5-0.7,0.7-1.6,0.6-2.4c0-0.8-0.2-1.6-0.7-2.3c-0.4-0.6-1.1-0.9-1.8-0.9
	c-0.7,0-1.3,0.3-1.7,0.9C141.9,76.1,141.6,77,141.7,77.8L141.7,77.8z M144.7,70h1.8l-2.1,2.3h-1.2L144.7,70z M151.1,73.5l0,1.1
	c0.6-0.8,1.5-1.2,2.5-1.2c1.8,0,2.7,1,2.7,3V82H155v-5.6c0-0.5-0.1-1-0.4-1.4c-0.3-0.3-0.8-0.5-1.3-0.4c-0.4,0-0.9,0.1-1.2,0.4
	c-0.4,0.3-0.6,0.6-0.8,1v6h-1.4v-8.5H151.1z"/>
<path id="Trazado_160471" class="st1" d="M67,257.9h-4.9v4h5.7v1.2h-7.2v-11.4h7.1v1.2h-5.6v3.7H67V257.9z M71,263.1h-1.4v-12H71
	V263.1z M80.7,262.1c0.5,0,1-0.2,1.4-0.5c0.4-0.3,0.6-0.7,0.6-1.2H84c0,0.5-0.2,1-0.5,1.4c-0.3,0.4-0.7,0.8-1.2,1
	c-0.5,0.3-1.1,0.4-1.6,0.4c-1,0-2.1-0.4-2.7-1.2c-0.7-0.9-1.1-2-1-3.2v-0.2c0-0.8,0.1-1.5,0.5-2.2c0.3-0.6,0.7-1.1,1.3-1.5
	c0.6-0.4,1.3-0.5,2-0.5c0.9,0,1.7,0.3,2.4,0.9c0.6,0.6,1,1.4,1,2.2h-1.4c0-0.5-0.2-1-0.6-1.3c-0.4-0.4-0.9-0.5-1.4-0.5
	c-0.7,0-1.3,0.3-1.7,0.8c-0.4,0.7-0.7,1.5-0.6,2.3v0.3c-0.1,0.8,0.2,1.6,0.6,2.2C79.3,261.8,80,262.1,80.7,262.1z M85.3,258.8
	c0-0.8,0.2-1.5,0.5-2.2c0.3-0.6,0.8-1.2,1.4-1.5c0.6-0.4,1.3-0.6,2-0.5c1.1,0,2.1,0.4,2.8,1.2c0.7,0.9,1.1,2,1.1,3.2v0.1
	c0,0.8-0.1,1.5-0.5,2.2c-0.3,0.6-0.8,1.2-1.3,1.5c-0.6,0.4-1.3,0.6-2,0.5c-1.1,0-2.1-0.4-2.8-1.2c-0.7-0.9-1.1-2-1.1-3.2L85.3,258.8
	z M86.7,259c0,0.8,0.2,1.6,0.7,2.3c0.4,0.6,1.1,0.9,1.7,0.9c0.7,0,1.3-0.3,1.8-0.9c0.5-0.7,0.7-1.6,0.7-2.4c0-0.8-0.2-1.6-0.7-2.3
	c-0.4-0.6-1.1-0.9-1.8-0.9c-0.7,0-1.3,0.3-1.7,0.9C86.9,257.3,86.7,258.1,86.7,259L86.7,259z M96.1,254.7l0,1.1
	c0.6-0.8,1.5-1.2,2.5-1.2c1.8,0,2.7,1,2.7,3v5.6H100v-5.6c0-0.5-0.1-1-0.4-1.4c-0.3-0.3-0.8-0.5-1.3-0.4c-0.4,0-0.9,0.1-1.2,0.4
	c-0.4,0.3-0.6,0.6-0.8,1v6h-1.4v-8.5L96.1,254.7z M105.6,252.6v2h1.6v1.1h-1.6v5.2c0,0.3,0.1,0.5,0.2,0.8c0.2,0.2,0.5,0.3,0.7,0.3
	c0.2,0,0.5,0,0.7-0.1v1.2c-0.4,0.1-0.7,0.2-1.1,0.2c-0.6,0-1.1-0.2-1.5-0.6c-0.4-0.5-0.5-1.1-0.5-1.7v-5.2h-1.5v-1.1h1.5v-2
	L105.6,252.6z M112.3,263.3c-1.1,0-2.1-0.4-2.8-1.1c-0.7-0.8-1.1-1.9-1.1-3v-0.3c0-0.8,0.1-1.5,0.5-2.2c0.3-0.6,0.8-1.2,1.3-1.5
	c0.6-0.4,1.2-0.6,1.9-0.6c1-0.1,1.9,0.3,2.6,1.1c0.7,0.9,1,2,0.9,3.1v0.6h-5.7c0,0.7,0.2,1.5,0.7,2c0.5,0.5,1.1,0.8,1.8,0.8
	c0.5,0,0.9-0.1,1.3-0.3c0.4-0.2,0.7-0.5,0.9-0.8l0.9,0.7C114.8,262.7,113.6,263.4,112.3,263.3z M112.2,255.7c-0.6,0-1.1,0.2-1.5,0.6
	c-0.4,0.5-0.7,1.1-0.7,1.8h4.2V258c0-0.6-0.2-1.2-0.6-1.7C113.2,255.9,112.7,255.7,112.2,255.7L112.2,255.7z M118.7,254.7l0,1.1
	c0.6-0.8,1.5-1.2,2.5-1.2c1.8,0,2.7,1,2.7,3v5.6h-1.4v-5.6c0-0.5-0.1-1-0.4-1.4c-0.3-0.3-0.8-0.5-1.3-0.4c-0.4,0-0.9,0.1-1.2,0.4
	c-0.4,0.3-0.6,0.6-0.8,1v6h-1.4v-8.5H118.7z M129.6,263.3c-1.1,0-2.1-0.4-2.8-1.1c-0.7-0.8-1.1-1.9-1.1-3v-0.3
	c0-0.8,0.2-1.5,0.5-2.2c0.3-0.6,0.8-1.2,1.3-1.5c0.6-0.4,1.2-0.6,1.9-0.6c1-0.1,1.9,0.3,2.6,1.1c0.7,0.9,1,2,0.9,3.1v0.6h-5.7
	c0,0.7,0.2,1.5,0.7,2c0.5,0.5,1.1,0.8,1.8,0.8c0.5,0,0.9-0.1,1.3-0.3c0.4-0.2,0.7-0.5,0.9-0.8l0.9,0.7
	C132.1,262.7,130.9,263.4,129.6,263.3z M129.5,255.7c-0.6,0-1.1,0.2-1.5,0.6c-0.4,0.5-0.7,1.1-0.7,1.8h4.2V258
	c0-0.6-0.2-1.2-0.6-1.7C130.5,255.9,130,255.7,129.5,255.7L129.5,255.7z M134.3,258.8c-0.1-1.1,0.3-2.2,0.9-3.1
	c0.6-0.8,1.5-1.2,2.4-1.2c0.9,0,1.8,0.3,2.4,1v-4.4h1.4v12h-1.3l-0.1-0.9c-0.6,0.7-1.5,1.1-2.4,1.1c-0.9,0-1.8-0.4-2.4-1.2
	c-0.7-0.9-1-2-0.9-3.1L134.3,258.8z M135.7,259c0,0.8,0.2,1.6,0.6,2.2c0.4,0.5,1,0.8,1.6,0.8c0.9,0,1.6-0.5,2-1.2v-3.9
	c-0.4-0.8-1.1-1.2-2-1.2c-0.7,0-1.3,0.3-1.7,0.8C135.8,257.3,135.6,258.1,135.7,259L135.7,259z M143.2,258.8c0-0.8,0.2-1.5,0.5-2.2
	c0.3-0.6,0.8-1.2,1.4-1.5c0.6-0.4,1.3-0.6,2-0.5c1.1,0,2.1,0.4,2.8,1.2c0.7,0.9,1.1,2,1.1,3.2v0.1c0,0.8-0.1,1.5-0.5,2.2
	c-0.3,0.6-0.8,1.2-1.4,1.5c-0.6,0.4-1.3,0.6-2,0.5c-1.1,0-2.1-0.4-2.8-1.2c-0.7-0.9-1.1-2-1.1-3.2L143.2,258.8z M144.7,259
	c0,0.8,0.2,1.6,0.7,2.3c0.4,0.6,1.1,0.9,1.7,0.9c0.7,0,1.3-0.3,1.8-0.9c0.5-0.7,0.7-1.6,0.6-2.4c0-0.8-0.2-1.6-0.7-2.3
	c-0.4-0.6-1.1-0.9-1.8-0.9c-0.7,0-1.3,0.3-1.7,0.9C144.9,257.3,144.6,258.1,144.7,259L144.7,259z M156.8,256c-0.2,0-0.5-0.1-0.7-0.1
	c-0.8-0.1-1.6,0.4-1.9,1.2v6h-1.4v-8.5h1.4l0,1c0.4-0.7,1.2-1.2,2-1.1c0.2,0,0.4,0,0.6,0.1V256z"/>
<path id="Trazado_160473" class="st1" d="M58.1,282.3h-1.4v-12h1.4V282.3z M62,282.3h-1.4v-8.5H62V282.3z M60.5,271.6
	c0-0.2,0.1-0.4,0.2-0.6c0.2-0.2,0.4-0.3,0.6-0.2c0.2,0,0.5,0.1,0.6,0.2c0.1,0.2,0.2,0.4,0.2,0.6c0,0.2-0.1,0.4-0.2,0.6
	c-0.2,0.2-0.4,0.3-0.6,0.2c-0.2,0-0.5-0.1-0.6-0.2C60.5,272.1,60.5,271.8,60.5,271.6z M71.5,278.2c0.1,1.1-0.3,2.2-0.9,3.1
	c-0.6,0.8-1.4,1.2-2.4,1.2c-1,0-1.9-0.4-2.5-1.1l-0.1,1h-1.3v-12h1.4v4.5c0.6-0.7,1.5-1.1,2.4-1.1c0.9,0,1.9,0.4,2.4,1.2
	c0.6,0.9,0.9,2.1,0.9,3.2L71.5,278.2z M70,278c0-0.8-0.2-1.6-0.6-2.3c-0.4-0.5-1-0.8-1.6-0.8c-0.9,0-1.7,0.5-2.1,1.3v3.7
	c0.4,0.8,1.2,1.4,2.1,1.3c0.6,0,1.2-0.3,1.6-0.8C69.9,279.7,70.1,278.9,70,278z M76.8,282.5c-1.1,0-2.1-0.4-2.8-1.1
	c-0.7-0.8-1.1-1.9-1.1-3v-0.3c0-0.8,0.2-1.5,0.5-2.2c0.3-0.6,0.8-1.2,1.3-1.5c0.6-0.4,1.2-0.6,1.9-0.6c1-0.1,1.9,0.3,2.6,1.1
	c0.7,0.9,1,2,0.9,3.1v0.6h-5.7c0,0.7,0.2,1.5,0.7,2c0.5,0.5,1.1,0.8,1.8,0.8c0.5,0,0.9-0.1,1.3-0.3c0.4-0.2,0.7-0.5,0.9-0.8l0.9,0.7
	C79.3,281.9,78.1,282.6,76.8,282.5z M76.6,274.9c-0.6,0-1.1,0.2-1.5,0.6c-0.4,0.5-0.7,1.1-0.7,1.8h4.2v-0.1c0-0.6-0.2-1.2-0.6-1.7
	C77.7,275.1,77.2,274.9,76.6,274.9z"/>
<g class="st6">
	<path class="st1" d="M85.9,275.2c-0.2,0-0.5-0.1-0.7-0.1c-0.9,0-1.6,0.4-1.9,1.2v6h-1.4v-8.5h1.4l0,1c0.5-0.8,1.1-1.1,2-1.1
		c0.3,0,0.5,0,0.6,0.1V275.2z"/>
</g>
<g class="st6">
	<path class="st1" d="M92.1,282.3c-0.1-0.2-0.2-0.5-0.2-0.9c-0.7,0.7-1.5,1-2.4,1c-0.8,0-1.5-0.2-2.1-0.7c-0.5-0.5-0.8-1.1-0.8-1.8
		c0-0.9,0.3-1.6,1-2.1c0.7-0.5,1.6-0.7,2.8-0.7h1.4v-0.7c0-0.5-0.2-0.9-0.5-1.2c-0.3-0.3-0.7-0.4-1.3-0.4c-0.5,0-0.9,0.1-1.3,0.4
		c-0.3,0.3-0.5,0.6-0.5,0.9h-1.5c0-0.4,0.1-0.8,0.4-1.2c0.3-0.4,0.7-0.7,1.2-0.9c0.5-0.2,1.1-0.3,1.7-0.3c1,0,1.7,0.2,2.3,0.7
		c0.6,0.5,0.8,1.2,0.9,2v3.9c0,0.8,0.1,1.4,0.3,1.9v0.1H92.1z M89.7,281.2c0.5,0,0.9-0.1,1.3-0.4s0.7-0.5,0.9-0.9v-1.7h-1.1
		c-1.8,0-2.7,0.5-2.7,1.6c0,0.5,0.2,0.8,0.5,1.1C88.8,281.1,89.2,281.2,89.7,281.2z"/>
</g>
<g class="st6">
	<path class="st1" d="M103.6,275.2c-0.2,0-0.5-0.1-0.7-0.1c-0.9,0-1.6,0.4-1.9,1.2v6h-1.4v-8.5h1.4l0,1c0.5-0.8,1.1-1.1,2-1.1
		c0.3,0,0.5,0,0.6,0.1V275.2z"/>
</g>
<path id="Trazado_160472" class="st1" d="M108.3,282.5c-1.1,0-2.1-0.4-2.8-1.1c-0.7-0.8-1.1-1.9-1.1-3v-0.3c0-0.8,0.2-1.5,0.5-2.2
	c0.3-0.6,0.8-1.2,1.3-1.6c0.6-0.4,1.2-0.6,1.9-0.6c1-0.1,1.9,0.3,2.6,1.1c0.7,0.9,1,2,0.9,3.1v0.6h-5.7c0,0.7,0.2,1.5,0.7,2
	c0.5,0.5,1.1,0.8,1.8,0.8c0.5,0,0.9-0.1,1.3-0.3c0.4-0.2,0.7-0.5,0.9-0.8l0.9,0.7C110.8,281.9,109.6,282.6,108.3,282.5z
	 M108.1,274.9c-0.6,0-1.1,0.2-1.5,0.6c-0.4,0.5-0.7,1.1-0.7,1.8h4.2v-0.1c0-0.6-0.2-1.2-0.6-1.7
	C109.2,275.1,108.7,274.9,108.1,274.9L108.1,274.9z M116.7,281.3c0.5,0,1-0.2,1.4-0.5c0.4-0.3,0.6-0.7,0.6-1.2h1.4
	c0,0.5-0.2,1-0.5,1.4c-0.3,0.4-0.7,0.8-1.2,1c-0.5,0.3-1.1,0.4-1.6,0.4c-1,0-2.1-0.4-2.7-1.2c-0.7-0.9-1.1-2-1-3.1v-0.2
	c0-0.8,0.1-1.5,0.5-2.2c0.3-0.6,0.7-1.1,1.3-1.5c0.6-0.4,1.3-0.5,2-0.5c0.9,0,1.7,0.3,2.4,0.9c0.6,0.6,1,1.4,1,2.2h-1.4
	c0-0.5-0.2-1-0.6-1.3c-0.4-0.4-0.9-0.5-1.4-0.5c-0.7,0-1.3,0.3-1.7,0.8c-0.4,0.7-0.7,1.5-0.6,2.3v0.3c-0.1,0.8,0.2,1.6,0.6,2.2
	C115.4,281,116,281.3,116.7,281.3L116.7,281.3z M126.9,281.5c-0.6,0.7-1.5,1.1-2.5,1c-0.8,0.1-1.5-0.2-2.1-0.8
	c-0.5-0.7-0.8-1.5-0.7-2.3v-5.5h1.4v5.5c0,1.3,0.5,1.9,1.6,1.9c0.9,0.1,1.8-0.4,2.2-1.2v-6.2h1.5v8.5h-1.4L126.9,281.5z
	 M134.6,275.2c-0.2,0-0.5-0.1-0.7-0.1c-0.8-0.1-1.6,0.4-1.9,1.2v6h-1.4v-8.5h1.4l0,1c0.4-0.7,1.2-1.2,2-1.1c0.2,0,0.4,0,0.6,0.1
	L134.6,275.2z M140.8,280.1c0-0.4-0.2-0.7-0.4-0.9c-0.5-0.3-1-0.5-1.5-0.6c-0.6-0.1-1.2-0.3-1.7-0.6c-0.4-0.2-0.7-0.4-1-0.8
	c-0.2-0.3-0.3-0.7-0.3-1.1c0-0.7,0.3-1.3,0.9-1.8c0.6-0.5,1.4-0.8,2.2-0.7c0.8,0,1.7,0.2,2.3,0.7c0.6,0.5,0.9,1.2,0.9,1.9h-1.5
	c0-0.4-0.2-0.8-0.5-1c-0.4-0.3-0.8-0.4-1.3-0.4c-0.4,0-0.9,0.1-1.2,0.3c-0.3,0.2-0.5,0.5-0.4,0.9c0,0.3,0.1,0.6,0.4,0.8
	c0.5,0.2,1,0.4,1.5,0.5c0.6,0.1,1.2,0.3,1.8,0.6c0.4,0.2,0.7,0.5,1,0.8c0.2,0.3,0.3,0.7,0.3,1.2c0,0.7-0.3,1.4-0.9,1.8
	c-0.7,0.5-1.5,0.7-2.4,0.7c-0.6,0-1.2-0.1-1.8-0.4c-0.5-0.2-0.9-0.6-1.2-1c-0.3-0.4-0.4-0.9-0.4-1.4h1.4c0,0.5,0.2,0.9,0.6,1.2
	c0.4,0.3,0.9,0.5,1.4,0.4c0.5,0,0.9-0.1,1.3-0.3C140.6,280.8,140.8,280.4,140.8,280.1z M143.8,278c0-0.8,0.2-1.5,0.5-2.2
	c0.3-0.6,0.8-1.2,1.4-1.5c0.6-0.4,1.3-0.6,2-0.5c1.1,0,2.1,0.4,2.8,1.2c0.7,0.9,1.1,2,1.1,3.2v0.1c0,0.8-0.1,1.5-0.5,2.2
	c-0.3,0.6-0.8,1.2-1.4,1.5c-0.6,0.4-1.3,0.6-2,0.5c-1.1,0-2.1-0.4-2.8-1.2C144.1,280.4,143.7,279.3,143.8,278L143.8,278z
	 M145.2,278.2c0,0.8,0.2,1.6,0.7,2.3c0.4,0.6,1.1,0.9,1.7,0.9c0.7,0,1.3-0.3,1.8-0.9c0.5-0.7,0.7-1.6,0.7-2.4c0-0.8-0.2-1.6-0.7-2.3
	c-0.4-0.6-1.1-0.9-1.8-0.9c-0.7,0-1.3,0.3-1.7,0.9C145.4,276.5,145.2,277.3,145.2,278.2L145.2,278.2z M158.2,280.1
	c0-0.4-0.2-0.7-0.4-0.9c-0.5-0.3-1-0.5-1.5-0.6c-0.6-0.1-1.2-0.3-1.7-0.6c-0.4-0.2-0.7-0.4-1-0.8c-0.2-0.3-0.3-0.7-0.3-1.1
	c0-0.7,0.3-1.3,0.9-1.8c0.6-0.5,1.4-0.8,2.2-0.7c0.8,0,1.7,0.2,2.3,0.7c0.6,0.5,0.9,1.2,0.9,1.9h-1.5c0-0.4-0.2-0.8-0.5-1
	c-0.4-0.3-0.8-0.4-1.3-0.4c-0.4,0-0.9,0.1-1.2,0.3c-0.3,0.2-0.5,0.5-0.4,0.9c0,0.3,0.1,0.6,0.4,0.8c0.5,0.2,1,0.4,1.5,0.5
	c0.6,0.1,1.2,0.3,1.7,0.6c0.4,0.2,0.7,0.5,1,0.8c0.2,0.3,0.3,0.7,0.3,1.2c0,0.7-0.3,1.4-0.9,1.8c-0.7,0.5-1.5,0.7-2.4,0.7
	c-0.6,0-1.2-0.1-1.8-0.4c-0.5-0.2-0.9-0.6-1.2-1c-0.3-0.4-0.4-0.9-0.4-1.4h1.4c0,0.5,0.2,0.9,0.6,1.2c0.4,0.3,0.9,0.5,1.4,0.4
	c0.5,0,0.9-0.1,1.3-0.3C158,280.8,158.2,280.4,158.2,280.1z"/>
<path id="Trazado_160470" class="st1" d="M4,172.9c-1-0.2-2-0.7-2.8-1.4c-0.6-0.5-0.9-1.2-0.9-2c0-0.9,0.4-1.7,1.1-2.2
	c0.8-0.6,1.8-0.9,2.8-0.9c0.7,0,1.4,0.1,2.1,0.5c0.6,0.3,1.1,0.7,1.4,1.2c0.3,0.5,0.5,1.1,0.5,1.7H6.7c0-0.6-0.2-1.2-0.7-1.6
	c-0.5-0.4-1.2-0.6-1.8-0.6c-0.6,0-1.2,0.1-1.7,0.5c-0.4,0.3-0.6,0.8-0.6,1.4c0,0.5,0.2,0.9,0.6,1.2c0.6,0.4,1.3,0.7,2,0.9
	c0.8,0.2,1.5,0.5,2.2,0.9c0.5,0.3,0.9,0.7,1.2,1.1c0.3,0.5,0.4,1,0.4,1.5c0,0.9-0.4,1.7-1.1,2.2c-0.8,0.6-1.9,0.9-2.9,0.8
	c-0.8,0-1.5-0.1-2.2-0.4c-0.6-0.3-1.2-0.7-1.6-1.2c-0.4-0.5-0.6-1.1-0.6-1.8h1.5c0,0.6,0.3,1.2,0.8,1.6c0.6,0.4,1.3,0.6,2,0.6
	c0.6,0,1.3-0.1,1.8-0.5c0.4-0.3,0.7-0.8,0.6-1.3c0-0.5-0.2-1-0.6-1.3C5.5,173.4,4.8,173.1,4,172.9z M11.5,178h-1.4v-8.5h1.4V178z
	 M10,167.3c0-0.2,0.1-0.4,0.2-0.6c0.2-0.2,0.4-0.3,0.6-0.2c0.2,0,0.5,0.1,0.6,0.2c0.1,0.2,0.2,0.4,0.2,0.6c0,0.2-0.1,0.4-0.2,0.6
	c-0.2,0.2-0.4,0.3-0.6,0.2c-0.2,0-0.5-0.1-0.6-0.2C10,167.7,10,167.5,10,167.3z M13.5,173.7c-0.1-1.1,0.3-2.2,0.9-3.1
	c0.6-0.8,1.5-1.2,2.4-1.2c0.9,0,1.8,0.4,2.4,1.1l0.1-0.9h1.3v8.3c0.1,1-0.3,1.9-1,2.6c-0.7,0.7-1.7,1-2.6,0.9
	c-0.6,0-1.2-0.1-1.8-0.4c-0.5-0.2-1-0.6-1.3-1.1l0.7-0.9c0.5,0.7,1.4,1.1,2.3,1.1c0.6,0,1.2-0.2,1.6-0.6c0.4-0.5,0.6-1.1,0.6-1.7
	v-0.7c-0.6,0.7-1.5,1-2.4,1c-0.9,0-1.8-0.4-2.4-1.2C13.8,176,13.4,174.8,13.5,173.7z M15,173.8c0,0.8,0.2,1.6,0.6,2.2
	c0.4,0.5,1,0.8,1.6,0.8c0.9,0,1.7-0.5,2-1.2v-3.9c-0.4-0.8-1.1-1.2-2-1.2c-0.7,0-1.3,0.3-1.6,0.8C15.1,172.1,14.9,173,15,173.8
	L15,173.8z M28,177.1c-0.6,0.7-1.5,1.1-2.5,1c-0.8,0.1-1.5-0.2-2.1-0.8c-0.5-0.7-0.8-1.5-0.7-2.3v-5.5h1.4v5.5
	c0,1.3,0.5,1.9,1.6,1.9c0.9,0.1,1.8-0.4,2.2-1.2v-6.1h1.4v8.5h-1.4L28,177.1z M33.2,178h-1.4v-8.5h1.4V178z M31.6,167.3
	c0-0.2,0.1-0.4,0.2-0.6c0.2-0.2,0.4-0.3,0.6-0.2c0.2,0,0.5,0.1,0.6,0.2c0.1,0.2,0.2,0.4,0.2,0.6c0,0.2-0.1,0.4-0.2,0.6
	c-0.2,0.2-0.4,0.3-0.6,0.2c-0.2,0-0.5-0.1-0.6-0.2C31.7,167.7,31.6,167.5,31.6,167.3z M39,178.1c-1.1,0-2.1-0.4-2.8-1.1
	c-0.7-0.8-1.1-1.9-1.1-3v-0.3c0-0.8,0.2-1.5,0.5-2.2c0.3-0.6,0.8-1.2,1.3-1.5c0.6-0.4,1.2-0.6,1.9-0.6c1-0.1,1.9,0.3,2.6,1.1
	c0.7,0.9,1,2,0.9,3.1v0.6h-5.7c0,0.7,0.2,1.5,0.7,2c0.5,0.5,1.1,0.8,1.8,0.8c0.5,0,0.9-0.1,1.3-0.3c0.4-0.2,0.7-0.5,0.9-0.8l0.9,0.7
	C41.5,177.6,40.3,178.2,39,178.1z M38.9,170.5c-0.6,0-1.1,0.2-1.5,0.6c-0.4,0.5-0.7,1.1-0.7,1.8h4.2v-0.1c0-0.6-0.2-1.2-0.6-1.7
	C39.9,170.7,39.4,170.5,38.9,170.5L38.9,170.5z M45.4,169.5l0,1.1c0.6-0.8,1.5-1.2,2.5-1.2c1.8,0,2.7,1,2.7,3v5.6h-1.4v-5.6
	c0-0.5-0.1-1-0.4-1.4c-0.3-0.3-0.8-0.5-1.3-0.4c-0.4,0-0.9,0.1-1.2,0.4c-0.4,0.3-0.6,0.6-0.8,1v6H44v-8.5H45.4z M54.8,167.5v2h1.6
	v1.1h-1.6v5.2c0,0.3,0.1,0.5,0.2,0.8c0.2,0.2,0.5,0.3,0.7,0.3c0.2,0,0.5,0,0.7-0.1v1.2c-0.4,0.1-0.7,0.2-1.1,0.2
	c-0.6,0-1.1-0.2-1.5-0.6c-0.4-0.5-0.5-1.1-0.5-1.7v-5.2h-1.5v-1.1h1.5v-2H54.8z M61.6,178.1c-1.1,0-2.1-0.4-2.8-1.1
	c-0.7-0.8-1.1-1.9-1.1-3v-0.3c0-0.8,0.2-1.5,0.5-2.2c0.3-0.6,0.8-1.2,1.3-1.5c0.6-0.4,1.2-0.6,1.9-0.6c1-0.1,1.9,0.3,2.6,1.1
	c0.7,0.9,1,2,0.9,3.1v0.6h-5.7c0,0.7,0.2,1.5,0.7,2c0.5,0.5,1.1,0.8,1.8,0.8c0.5,0,0.9-0.1,1.3-0.3c0.4-0.2,0.7-0.5,0.9-0.8l0.9,0.7
	C64.1,177.6,62.8,178.2,61.6,178.1z M61.4,170.5c-0.6,0-1.1,0.2-1.5,0.6c-0.4,0.5-0.7,1.1-0.7,1.8h4.2v-0.1c0-0.6-0.2-1.2-0.6-1.7
	C62.5,170.7,61.9,170.5,61.4,170.5z M71.5,175.7c0-0.4-0.2-0.7-0.4-0.9c-0.5-0.3-1-0.5-1.5-0.6c-0.6-0.1-1.2-0.3-1.7-0.6
	c-0.4-0.2-0.7-0.4-1-0.8c-0.2-0.3-0.3-0.7-0.3-1.1c0-0.7,0.3-1.3,0.9-1.8c0.6-0.5,1.4-0.8,2.2-0.7c0.8,0,1.7,0.2,2.3,0.7
	c0.6,0.5,0.9,1.2,0.9,1.9h-1.5c0-0.4-0.2-0.8-0.5-1c-0.4-0.3-0.8-0.4-1.3-0.4c-0.4,0-0.9,0.1-1.2,0.3c-0.3,0.2-0.5,0.5-0.4,0.9
	c0,0.3,0.1,0.6,0.4,0.8c0.5,0.2,1,0.4,1.5,0.5c0.6,0.1,1.2,0.3,1.7,0.6c0.4,0.2,0.7,0.5,1,0.8c0.2,0.3,0.3,0.7,0.3,1.2
	c0,0.7-0.3,1.4-0.9,1.8c-0.7,0.5-1.5,0.7-2.4,0.7c-0.6,0-1.2-0.1-1.8-0.4c-0.5-0.2-0.9-0.6-1.2-1c-0.3-0.4-0.4-0.9-0.4-1.4h1.4
	c0,0.5,0.2,0.9,0.6,1.2c0.4,0.3,0.9,0.5,1.4,0.4c0.5,0,0.9-0.1,1.3-0.3C71.3,176.4,71.5,176.1,71.5,175.7z M85.9,173.8
	c0.1,1.1-0.3,2.2-0.9,3.1c-0.6,0.8-1.4,1.2-2.4,1.2c-0.9,0-1.8-0.3-2.4-1v4.1h-1.4v-11.7h1.3l0.1,0.9c0.6-0.7,1.5-1.1,2.5-1.1
	c0.9,0,1.8,0.4,2.4,1.1c0.6,0.9,1,2.1,0.9,3.2L85.9,173.8z M84.4,173.7c0-0.8-0.2-1.6-0.6-2.3c-0.4-0.5-1-0.9-1.7-0.8
	c-0.8,0-1.6,0.4-2,1.2v4c0.4,0.7,1.2,1.2,2,1.2c0.7,0,1.3-0.3,1.7-0.8C84.3,175.4,84.5,174.5,84.4,173.7z M91.2,178.1
	c-1.1,0-2.1-0.4-2.8-1.1c-0.7-0.8-1.1-1.9-1.1-3v-0.3c0-0.8,0.2-1.5,0.5-2.2c0.3-0.6,0.8-1.2,1.3-1.5c0.6-0.4,1.2-0.6,1.9-0.6
	c1-0.1,1.9,0.3,2.6,1.1c0.7,0.9,1,2,0.9,3.1v0.6h-5.7c0,0.7,0.2,1.5,0.7,2c0.5,0.5,1.1,0.8,1.8,0.8c0.5,0,0.9-0.1,1.3-0.3
	c0.4-0.2,0.7-0.5,0.9-0.8l0.9,0.7C93.7,177.6,92.5,178.2,91.2,178.1z M91,170.5c-0.6,0-1.1,0.2-1.5,0.6c-0.4,0.5-0.7,1.1-0.7,1.8
	h4.2v-0.1c0-0.6-0.2-1.2-0.6-1.7C92.1,170.7,91.6,170.5,91,170.5z M98.2,167.5v2h1.6v1.1h-1.6v5.2c0,0.3,0.1,0.5,0.2,0.8
	c0.2,0.2,0.5,0.3,0.7,0.3c0.2,0,0.5,0,0.7-0.1v1.2c-0.4,0.1-0.7,0.2-1.1,0.2c-0.6,0-1.1-0.2-1.5-0.6c-0.4-0.5-0.5-1.1-0.5-1.7v-5.2
	h-1.5v-1.1h1.5v-2H98.2z M103,178h-1.4v-8.5h1.4V178z M101.4,167.3c0-0.2,0.1-0.4,0.2-0.6c0.2-0.2,0.4-0.3,0.6-0.2
	c0.2,0,0.5,0.1,0.6,0.2c0.1,0.2,0.2,0.4,0.2,0.6c0,0.2-0.1,0.4-0.2,0.6c-0.2,0.2-0.4,0.3-0.6,0.2c-0.2,0-0.5-0.1-0.6-0.2
	C101.5,167.7,101.4,167.5,101.4,167.3z M108.7,176.9c0.5,0,1-0.2,1.4-0.5c0.4-0.3,0.6-0.7,0.6-1.2h1.4c0,0.5-0.2,1-0.5,1.4
	c-0.3,0.4-0.7,0.8-1.2,1c-0.5,0.3-1.1,0.4-1.6,0.4c-1,0-2.1-0.4-2.7-1.2c-0.7-0.9-1.1-2-1-3.2v-0.2c0-0.8,0.1-1.5,0.5-2.2
	c0.3-0.6,0.7-1.1,1.3-1.5c0.6-0.4,1.3-0.5,2-0.5c0.9,0,1.7,0.3,2.4,0.9c0.6,0.6,1,1.4,1,2.2h-1.4c0-0.5-0.2-1-0.6-1.3
	c-0.4-0.4-0.9-0.5-1.4-0.5c-0.7,0-1.3,0.3-1.7,0.8c-0.4,0.7-0.7,1.5-0.6,2.3v0.3c-0.1,0.8,0.2,1.6,0.6,2.2
	C107.4,176.7,108,177,108.7,176.9L108.7,176.9z M115.2,178h-1.4v-8.5h1.4V178z M113.7,167.3c0-0.2,0.1-0.4,0.2-0.6
	c0.2-0.2,0.4-0.3,0.6-0.2c0.2,0,0.5,0.1,0.6,0.2c0.1,0.2,0.2,0.4,0.2,0.6c0,0.2-0.1,0.4-0.2,0.6c-0.2,0.2-0.4,0.3-0.6,0.2
	c-0.2,0-0.5-0.1-0.6-0.2C113.8,167.7,113.7,167.5,113.7,167.3z M117.2,173.7c0-0.8,0.2-1.5,0.5-2.2c0.3-0.6,0.8-1.2,1.4-1.5
	c0.6-0.4,1.3-0.6,2-0.5c1.1,0,2.1,0.4,2.8,1.2c0.7,0.9,1.1,2,1.1,3.2v0.1c0,0.8-0.1,1.5-0.5,2.2c-0.3,0.6-0.8,1.2-1.4,1.5
	c-0.6,0.4-1.3,0.6-2,0.5c-1.1,0-2.1-0.4-2.8-1.2c-0.7-0.9-1.1-2-1.1-3.2V173.7z M118.6,173.8c0,0.8,0.2,1.6,0.7,2.3
	c0.4,0.6,1.1,0.9,1.7,0.9c0.7,0,1.3-0.3,1.8-0.9c0.5-0.7,0.7-1.6,0.6-2.4c0-0.8-0.2-1.6-0.7-2.3c-0.4-0.6-1.1-0.9-1.8-0.9
	c-0.7,0-1.3,0.3-1.7,0.9C118.8,172.1,118.6,173,118.6,173.8L118.6,173.8z M128.1,169.5l0,1.1c0.6-0.8,1.5-1.2,2.5-1.2
	c1.8,0,2.7,1,2.7,3v5.6h-1.4v-5.6c0-0.5-0.1-1-0.4-1.4c-0.3-0.3-0.8-0.5-1.3-0.4c-0.4,0-0.9,0.1-1.2,0.4c-0.4,0.3-0.6,0.6-0.8,1v6
	h-1.4v-8.5L128.1,169.5z M139,178.1c-1.1,0-2.1-0.4-2.8-1.1c-0.7-0.8-1.1-1.9-1.1-3v-0.3c0-0.8,0.2-1.5,0.5-2.2
	c0.3-0.6,0.8-1.2,1.4-1.5c0.6-0.4,1.2-0.6,1.9-0.6c1-0.1,1.9,0.3,2.6,1.1c0.7,0.9,1,2,0.9,3.1v0.6h-5.7c0,0.7,0.2,1.5,0.7,2
	c0.5,0.5,1.1,0.8,1.8,0.8c0.5,0,0.9-0.1,1.3-0.3c0.4-0.2,0.7-0.5,0.9-0.8l0.9,0.7C141.5,177.6,140.3,178.2,139,178.1z M138.8,170.5
	c-0.6,0-1.1,0.2-1.5,0.6c-0.4,0.5-0.7,1.1-0.7,1.8h4.2v-0.1c0-0.6-0.2-1.2-0.6-1.7C139.9,170.7,139.4,170.5,138.8,170.5L138.8,170.5
	z M148.9,175.7c0-0.4-0.2-0.7-0.4-0.9c-0.5-0.3-1-0.5-1.5-0.6c-0.6-0.1-1.2-0.3-1.7-0.6c-0.4-0.2-0.7-0.4-1-0.8
	c-0.2-0.3-0.3-0.7-0.3-1.1c0-0.7,0.3-1.3,0.9-1.8c0.6-0.5,1.4-0.8,2.2-0.7c0.8,0,1.7,0.2,2.3,0.7c0.6,0.5,0.9,1.2,0.9,1.9h-1.5
	c0-0.4-0.2-0.8-0.5-1c-0.4-0.3-0.8-0.4-1.3-0.4c-0.4,0-0.9,0.1-1.2,0.3c-0.3,0.2-0.5,0.5-0.4,0.9c0,0.3,0.1,0.6,0.4,0.8
	c0.5,0.2,1,0.4,1.5,0.5c0.6,0.1,1.2,0.3,1.8,0.6c0.4,0.2,0.7,0.5,1,0.8c0.2,0.3,0.3,0.7,0.3,1.2c0,0.7-0.3,1.4-0.9,1.8
	c-0.7,0.5-1.5,0.7-2.4,0.7c-0.6,0-1.2-0.1-1.8-0.4c-0.5-0.2-0.9-0.6-1.2-1c-0.3-0.4-0.4-0.9-0.4-1.4h1.4c0,0.5,0.2,0.9,0.6,1.2
	c0.4,0.3,0.9,0.5,1.4,0.4c0.5,0,0.9-0.1,1.3-0.3C148.7,176.4,148.9,176.1,148.9,175.7L148.9,175.7z"/>
<path id="Trazado_160474" class="st1" d="M234.9,6.9c-1-0.2-2-0.7-2.8-1.4c-0.6-0.5-0.9-1.2-0.9-2c0-0.9,0.4-1.7,1.1-2.2
	c0.8-0.6,1.8-0.9,2.8-0.9c0.7,0,1.4,0.1,2.1,0.5c0.6,0.3,1.1,0.7,1.4,1.2c0.3,0.5,0.5,1.1,0.5,1.7h-1.5c0-0.6-0.2-1.2-0.7-1.6
	c-0.5-0.4-1.2-0.6-1.8-0.6c-0.6,0-1.2,0.1-1.7,0.5c-0.4,0.3-0.6,0.8-0.6,1.4c0,0.5,0.2,0.9,0.6,1.2c0.6,0.4,1.3,0.7,2,0.9
	c0.8,0.2,1.5,0.5,2.2,0.9c0.5,0.3,0.9,0.7,1.2,1.1c0.3,0.5,0.4,1,0.4,1.5c0,0.9-0.4,1.7-1.1,2.2c-0.8,0.6-1.9,0.9-2.9,0.8
	c-0.8,0-1.5-0.1-2.2-0.4c-0.6-0.3-1.2-0.7-1.6-1.2c-0.4-0.5-0.6-1.1-0.6-1.8h1.5c0,0.6,0.3,1.2,0.8,1.6c0.6,0.4,1.3,0.6,2,0.6
	c0.6,0,1.3-0.1,1.8-0.5c0.4-0.3,0.7-0.8,0.6-1.3c0-0.5-0.2-1-0.6-1.3C236.3,7.4,235.6,7.1,234.9,6.9z M244.3,12.2
	c-1,0-2.1-0.4-2.8-1.1c-0.7-0.8-1.1-1.9-1.1-3V7.7c0-0.8,0.1-1.5,0.5-2.2c0.3-0.6,0.8-1.2,1.3-1.5c0.6-0.4,1.2-0.6,1.9-0.6
	c1-0.1,1.9,0.3,2.6,1.1c0.7,0.9,1,2,0.9,3.1v0.6h-5.7c0,0.7,0.2,1.5,0.7,2c0.5,0.5,1.1,0.8,1.8,0.8c0.5,0,0.9-0.1,1.3-0.3
	c0.4-0.2,0.7-0.5,0.9-0.8l0.9,0.7C246.8,11.6,245.6,12.2,244.3,12.2z M244.1,4.6c-0.6,0-1.1,0.2-1.5,0.6c-0.4,0.5-0.7,1.1-0.7,1.8
	h4.2V6.9c0-0.6-0.2-1.2-0.6-1.7C245.2,4.8,244.7,4.6,244.1,4.6z M254.8,12h-1.4V3.5h1.4L254.8,12z M253.2,1.3c0-0.2,0.1-0.4,0.2-0.6
	c0.2-0.2,0.4-0.3,0.6-0.2c0.2,0,0.5,0.1,0.6,0.2c0.1,0.2,0.2,0.4,0.2,0.6c0,0.2-0.1,0.4-0.2,0.6c-0.2,0.2-0.4,0.3-0.6,0.2
	c-0.2,0-0.5-0.1-0.6-0.2C253.3,1.7,253.2,1.5,253.2,1.3z M258.5,3.5l0,1.1c0.6-0.8,1.5-1.2,2.5-1.2c1.8,0,2.7,1,2.7,3V12h-1.4V6.4
	c0-0.5-0.1-1-0.4-1.4c-0.3-0.3-0.8-0.5-1.3-0.4c-0.4,0-0.9,0.1-1.2,0.4c-0.4,0.3-0.6,0.6-0.8,1v6h-1.4V3.5L258.5,3.5z M270.9,9.8
	c0-0.4-0.2-0.7-0.4-0.9c-0.5-0.3-1-0.5-1.5-0.6c-0.6-0.1-1.2-0.3-1.7-0.6c-0.4-0.2-0.7-0.4-1-0.8c-0.2-0.3-0.3-0.7-0.3-1.1
	c0-0.7,0.3-1.3,0.9-1.8c0.6-0.5,1.4-0.8,2.2-0.7c0.8,0,1.7,0.2,2.3,0.7c0.6,0.5,0.9,1.2,0.9,1.9h-1.5c0-0.4-0.2-0.8-0.5-1
	c-0.4-0.3-0.8-0.4-1.3-0.4c-0.4,0-0.9,0.1-1.2,0.3c-0.3,0.2-0.5,0.5-0.4,0.9c0,0.3,0.1,0.6,0.4,0.8c0.5,0.2,1,0.4,1.5,0.5
	c0.6,0.1,1.2,0.3,1.8,0.6c0.4,0.2,0.7,0.5,1,0.8c0.2,0.3,0.3,0.7,0.3,1.1c0,0.7-0.3,1.4-0.9,1.8c-0.7,0.5-1.5,0.7-2.4,0.7
	c-0.6,0-1.2-0.1-1.8-0.4c-0.5-0.2-0.9-0.6-1.2-1c-0.3-0.4-0.4-0.9-0.4-1.4h1.4c0,0.5,0.2,0.9,0.6,1.2c0.4,0.3,0.9,0.5,1.4,0.4
	c0.5,0,0.9-0.1,1.3-0.3C270.7,10.5,270.9,10.1,270.9,9.8z M276.1,1.5v2h1.6v1.1h-1.6v5.2c0,0.3,0.1,0.5,0.2,0.8
	c0.2,0.2,0.5,0.3,0.7,0.3c0.2,0,0.5,0,0.7-0.1V12c-0.4,0.1-0.7,0.2-1.1,0.2c-0.6,0-1.1-0.2-1.5-0.6c-0.4-0.5-0.5-1.1-0.5-1.7V4.7
	h-1.5V3.5h1.5v-2H276.1z M284.6,12c-0.1-0.3-0.2-0.6-0.2-0.9c-0.6,0.7-1.5,1.1-2.4,1c-0.7,0-1.5-0.2-2.1-0.7
	c-0.5-0.4-0.8-1.1-0.8-1.8c0-0.8,0.3-1.6,1-2.1c0.8-0.5,1.8-0.8,2.8-0.7h1.4V6.2c0-0.4-0.1-0.9-0.5-1.2c-0.4-0.3-0.8-0.5-1.3-0.4
	c-0.5,0-0.9,0.1-1.3,0.4c-0.3,0.2-0.5,0.6-0.5,0.9h-1.5c0-0.4,0.2-0.9,0.4-1.2c0.3-0.4,0.7-0.7,1.2-0.9c0.5-0.2,1.1-0.3,1.7-0.3
	c0.8,0,1.6,0.2,2.3,0.7c0.6,0.5,0.9,1.2,0.9,2V10c0,0.6,0.1,1.3,0.3,1.9V12H284.6z M282.2,10.9c0.5,0,0.9-0.1,1.3-0.4
	c0.4-0.2,0.7-0.5,0.9-0.9V7.9h-1.1c-1.8,0-2.7,0.5-2.7,1.6c0,0.4,0.1,0.8,0.5,1.1C281.4,10.8,281.8,10.9,282.2,10.9L282.2,10.9z
	 M289.5,3.5l0,1.1c0.6-0.8,1.5-1.2,2.5-1.2c1.8,0,2.7,1,2.7,3V12h-1.4V6.4c0-0.5-0.1-1-0.4-1.4c-0.3-0.3-0.8-0.5-1.3-0.4
	c-0.4,0-0.9,0.1-1.2,0.4c-0.4,0.3-0.6,0.6-0.8,1v6h-1.4V3.5L289.5,3.5z M300.3,11c0.5,0,1-0.2,1.4-0.5c0.4-0.3,0.6-0.7,0.6-1.2h1.4
	c0,0.5-0.2,1-0.5,1.4c-0.3,0.4-0.7,0.8-1.2,1c-0.5,0.3-1.1,0.4-1.6,0.4c-1,0-2.1-0.4-2.7-1.2c-0.7-0.9-1.1-2-1-3.2V7.6
	c0-0.8,0.1-1.5,0.5-2.2c0.3-0.6,0.7-1.1,1.3-1.5c0.6-0.4,1.3-0.5,2-0.5c0.9,0,1.7,0.3,2.4,0.9c0.6,0.6,1,1.4,1,2.2h-1.4
	c0-0.5-0.3-1-0.6-1.3c-0.4-0.4-0.9-0.5-1.4-0.5c-0.7,0-1.3,0.3-1.7,0.8C298.2,6,298,6.9,298,7.7v0.3c-0.1,0.8,0.2,1.6,0.6,2.2
	C299,10.7,299.7,11,300.3,11L300.3,11z M306.9,12h-1.4V3.5h1.4L306.9,12z M305.3,1.3c0-0.2,0.1-0.4,0.2-0.6c0.2-0.2,0.4-0.3,0.6-0.2
	c0.2,0,0.5,0.1,0.6,0.2c0.1,0.2,0.2,0.4,0.2,0.6c0,0.2-0.1,0.4-0.2,0.6c-0.2,0.2-0.4,0.3-0.6,0.2c-0.2,0-0.5-0.1-0.6-0.2
	C305.4,1.7,305.3,1.5,305.3,1.3z M314.4,12c-0.1-0.3-0.2-0.6-0.2-0.9c-0.6,0.7-1.5,1.1-2.4,1c-0.7,0-1.5-0.2-2.1-0.7
	c-0.5-0.4-0.8-1.1-0.8-1.8c0-0.8,0.3-1.6,1-2.1c0.8-0.5,1.8-0.8,2.8-0.7h1.4V6.2c0-0.4-0.1-0.9-0.4-1.2c-0.4-0.3-0.9-0.5-1.3-0.4
	c-0.5,0-0.9,0.1-1.3,0.4c-0.3,0.2-0.5,0.6-0.5,0.9h-1.4c0-0.4,0.2-0.9,0.4-1.2c0.3-0.4,0.7-0.7,1.2-0.9c0.5-0.2,1.1-0.4,1.7-0.3
	c0.8,0,1.6,0.2,2.3,0.7c0.6,0.5,0.9,1.2,0.9,2V10c0,0.6,0.1,1.3,0.3,1.9V12H314.4z M312,10.9c0.5,0,0.9-0.1,1.3-0.4
	c0.4-0.2,0.7-0.5,0.9-0.9V7.9h-1.1c-1.8,0-2.7,0.5-2.7,1.6c0,0.4,0.1,0.8,0.5,1.1C311.2,10.8,311.6,10.9,312,10.9L312,10.9z
	 M325.4,12.2c-1.1,0-2.1-0.4-2.8-1.1c-0.7-0.8-1.1-1.9-1.1-3V7.7c0-0.8,0.2-1.5,0.5-2.2c0.3-0.6,0.8-1.2,1.3-1.5
	c0.6-0.4,1.2-0.6,1.9-0.6c1-0.1,1.9,0.3,2.6,1.1c0.7,0.9,1,2,0.9,3.1v0.6h-5.7c0,0.7,0.2,1.5,0.7,2c0.5,0.5,1.1,0.8,1.8,0.8
	c0.5,0,0.9-0.1,1.3-0.3c0.4-0.2,0.7-0.5,0.9-0.8l0.9,0.7C327.9,11.6,326.6,12.2,325.4,12.2z M325.2,4.6c-0.6,0-1.1,0.2-1.5,0.6
	C323.3,5.7,323,6.3,323,7h4.2V6.9c0-0.6-0.2-1.2-0.6-1.7C326.3,4.8,325.7,4.6,325.2,4.6z M331.9,12h-1.4V0h1.4V12z M337.8,7.7
	c0-0.8,0.2-1.5,0.5-2.2c0.3-0.6,0.8-1.2,1.4-1.5c0.6-0.4,1.3-0.6,2-0.5c1.1,0,2.1,0.4,2.8,1.2c0.7,0.9,1.1,2,1.1,3.2v0.1
	c0,0.8-0.1,1.5-0.5,2.2c-0.3,0.6-0.8,1.2-1.4,1.5c-0.6,0.4-1.3,0.6-2,0.5c-1.1,0-2.1-0.4-2.8-1.2c-0.7-0.9-1.1-2-1.1-3.2V7.7z
	 M339.2,7.9c0,0.8,0.2,1.6,0.7,2.3c0.4,0.6,1.1,0.9,1.7,0.9c0.7,0,1.3-0.3,1.8-0.9c0.5-0.7,0.7-1.6,0.6-2.4c0-0.8-0.2-1.6-0.7-2.3
	c-0.4-0.6-1.1-0.9-1.8-0.9c-0.7,0-1.3,0.3-1.7,0.9C339.4,6.2,339.2,7,339.2,7.9L339.2,7.9z M354.5,7.9c0.1,1.1-0.3,2.2-0.9,3.1
	c-0.6,0.8-1.4,1.2-2.4,1.2c-1,0-1.9-0.4-2.5-1.1l-0.1,1h-1.3V0h1.4v4.5c0.6-0.7,1.5-1.1,2.4-1.1c0.9,0,1.9,0.4,2.4,1.2
	c0.6,0.9,0.9,2.1,0.9,3.2L354.5,7.9z M353,7.7c0-0.8-0.2-1.6-0.6-2.3c-0.4-0.5-1-0.8-1.6-0.8c-0.9,0-1.7,0.5-2.1,1.3v3.7
	c0.4,0.8,1.2,1.4,2.1,1.3c0.6,0,1.2-0.3,1.6-0.8C352.9,9.4,353.1,8.5,353,7.7z M357.8,3.5V13c0,1.6-0.7,2.4-2.2,2.4
	c-0.3,0-0.6,0-0.9-0.1v-1.1c0.2,0,0.4,0.1,0.7,0.1c0.3,0,0.5-0.1,0.7-0.3c0.2-0.3,0.3-0.6,0.3-0.9V3.5L357.8,3.5z M356.2,1.3
	c0-0.2,0.1-0.4,0.2-0.6c0.2-0.2,0.4-0.3,0.6-0.2c0.2,0,0.5,0.1,0.6,0.2c0.1,0.2,0.2,0.4,0.2,0.6c0,0.2-0.1,0.4-0.2,0.6
	c-0.2,0.2-0.4,0.3-0.6,0.2c-0.2,0-0.5-0.1-0.6-0.2C356.2,1.7,356.2,1.5,356.2,1.3z M363.6,12.2c-1.1,0-2.1-0.4-2.8-1.1
	c-0.7-0.8-1.1-1.9-1.1-3V7.7c0-0.8,0.2-1.5,0.5-2.2c0.3-0.6,0.8-1.2,1.3-1.5c0.6-0.4,1.2-0.6,1.9-0.6c1-0.1,1.9,0.3,2.6,1.1
	c0.7,0.9,1,2,0.9,3.1v0.6h-5.7c0,0.7,0.2,1.5,0.7,2c0.5,0.5,1.1,0.8,1.8,0.8c0.5,0,0.9-0.1,1.3-0.3c0.4-0.2,0.7-0.5,0.9-0.8l0.9,0.7
	C366.1,11.6,364.9,12.2,363.6,12.2z M363.4,4.6c-0.6,0-1.1,0.2-1.5,0.6c-0.4,0.5-0.7,1.1-0.7,1.8h4.2V6.9c0-0.6-0.2-1.2-0.6-1.7
	C364.5,4.8,364,4.6,363.4,4.6L363.4,4.6z M370.5,1.5v2h1.6v1.1h-1.6v5.2c0,0.3,0.1,0.5,0.2,0.8c0.2,0.2,0.5,0.3,0.7,0.3
	c0.2,0,0.5,0,0.7-0.1V12c-0.4,0.1-0.7,0.2-1.1,0.2c-0.6,0-1.1-0.2-1.5-0.6c-0.4-0.5-0.5-1.1-0.5-1.7V4.7h-1.5V3.5h1.5v-2H370.5z
	 M373.1,7.7c0-0.8,0.2-1.5,0.5-2.2c0.3-0.6,0.8-1.2,1.4-1.5c0.6-0.4,1.3-0.6,2-0.5c1.1,0,2.1,0.4,2.8,1.2c0.7,0.9,1.1,2,1.1,3.2v0.1
	c0,0.8-0.1,1.5-0.5,2.2c-0.3,0.6-0.8,1.2-1.4,1.5c-0.6,0.4-1.3,0.6-2,0.5c-1.1,0-2.1-0.4-2.8-1.2c-0.7-0.9-1.1-2-1.1-3.2V7.7z
	 M374.6,7.9c0,0.8,0.2,1.6,0.7,2.3c0.4,0.6,1.1,0.9,1.7,0.9c0.7,0,1.3-0.3,1.8-0.9c0.5-0.7,0.7-1.6,0.6-2.4c0-0.8-0.2-1.6-0.7-2.3
	c-0.4-0.6-1.1-0.9-1.8-0.9c-0.7,0-1.3,0.3-1.7,0.9C374.7,6.2,374.5,7,374.6,7.9L374.6,7.9z"/>
<path id="Trazado_160484" class="st1" d="M447.7,62.5h-5.1v3.4h5.9V68H440V55.2h8.6v2.1h-5.9v3.1h5.1V62.5z M452.6,58.5v10
	c0.1,0.9-0.2,1.8-0.8,2.4c-0.6,0.6-1.5,0.9-2.4,0.9c-0.4,0-0.8,0-1.3-0.2v-2c0.3,0,0.5,0.1,0.8,0.1c0.8,0,1.2-0.4,1.2-1.2v-10H452.6
	z M449.9,56c0-0.4,0.1-0.7,0.4-0.9c0.3-0.3,0.7-0.4,1-0.4c0.4,0,0.8,0.1,1,0.4c0.3,0.2,0.4,0.6,0.4,0.9c0,0.4-0.1,0.7-0.4,0.9
	c-0.3,0.3-0.7,0.4-1,0.4c-0.4,0-0.8-0.1-1-0.4C450,56.7,449.9,56.4,449.9,56z M459,68.2c-1.3,0.1-2.5-0.4-3.4-1.3
	c-0.9-0.9-1.4-2.1-1.3-3.4v-0.2c0-0.9,0.2-1.8,0.6-2.6c0.3-0.7,0.9-1.3,1.6-1.7c0.7-0.4,1.5-0.6,2.3-0.6c1.2-0.1,2.3,0.4,3.1,1.2
	c0.8,1,1.2,2.2,1.1,3.5v1h-6.1c0.1,0.6,0.3,1.1,0.7,1.5c0.4,0.4,1,0.6,1.6,0.6c0.9,0,1.7-0.4,2.3-1.1l1.2,1.4
	c-0.4,0.5-0.9,1-1.5,1.3C460.5,68,459.7,68.2,459,68.2z M458.7,60.4c-0.5,0-0.9,0.2-1.2,0.5c-0.3,0.4-0.6,0.9-0.6,1.5h3.5v-0.2
	c0-0.5-0.1-0.9-0.5-1.3C459.6,60.5,459.2,60.3,458.7,60.4L458.7,60.4z M468.3,66.1c0.4,0,0.8-0.1,1.1-0.4c0.3-0.3,0.5-0.6,0.5-1h2.4
	c0,0.6-0.2,1.2-0.5,1.8c-0.3,0.5-0.8,1-1.4,1.2c-0.6,0.3-1.3,0.5-2,0.4c-1.2,0.1-2.4-0.4-3.2-1.3c-0.8-1-1.2-2.3-1.2-3.6v-0.2
	c-0.1-1.3,0.4-2.5,1.2-3.5c0.8-0.9,2-1.4,3.2-1.3c1-0.1,2.1,0.3,2.9,1c0.7,0.7,1.1,1.7,1.1,2.7h-2.4c0-0.4-0.2-0.9-0.5-1.2
	c-0.3-0.3-0.7-0.5-1.2-0.5c-0.5,0-1,0.2-1.3,0.6c-0.4,0.6-0.5,1.4-0.5,2.1v0.3c-0.1,0.7,0.1,1.5,0.5,2.1
	C467.2,65.9,467.8,66.2,468.3,66.1L468.3,66.1z M479.4,67c-0.6,0.8-1.6,1.2-2.6,1.1c-0.9,0.1-1.7-0.3-2.3-0.9
	c-0.6-0.7-0.9-1.6-0.8-2.6v-6.2h2.5v6.2c0,1,0.5,1.5,1.4,1.5c0.7,0.1,1.4-0.3,1.8-0.9v-6.7h2.5V68h-2.4L479.4,67z M487.8,66.1
	c0.4,0,0.8-0.1,1.1-0.4c0.3-0.3,0.5-0.6,0.5-1h2.4c0,0.6-0.2,1.2-0.5,1.8c-0.3,0.5-0.8,1-1.4,1.2c-0.6,0.3-1.3,0.5-2,0.4
	c-1.2,0.1-2.4-0.4-3.2-1.3c-0.8-1-1.3-2.3-1.2-3.6v-0.2c-0.1-1.3,0.4-2.5,1.2-3.5c0.8-0.9,2-1.4,3.2-1.3c1-0.1,2.1,0.3,2.9,1
	c0.7,0.7,1.1,1.7,1.1,2.7h-2.4c0-0.4-0.2-0.9-0.5-1.2c-0.3-0.3-0.7-0.5-1.2-0.5c-0.5,0-1,0.2-1.3,0.6c-0.4,0.6-0.5,1.4-0.5,2.1v0.3
	c-0.1,0.7,0.1,1.5,0.4,2.1C486.7,65.9,487.2,66.2,487.8,66.1L487.8,66.1z M495.9,68h-2.5v-9.5h2.5V68z M493.2,56
	c0-0.4,0.1-0.7,0.4-0.9c0.3-0.3,0.7-0.4,1-0.4c0.4,0,0.8,0.1,1,0.4c0.3,0.2,0.4,0.6,0.4,0.9c0,0.4-0.1,0.7-0.4,0.9
	c-0.3,0.3-0.7,0.4-1,0.4c-0.4,0-0.8-0.1-1-0.4C493.3,56.7,493.2,56.4,493.2,56L493.2,56z M497.6,63.2c0-0.9,0.2-1.7,0.5-2.5
	c0.3-0.7,0.9-1.3,1.6-1.7c0.7-0.4,1.5-0.6,2.4-0.6c1.2,0,2.3,0.4,3.1,1.2c0.8,0.9,1.3,2,1.4,3.2l0,0.6c0.1,1.3-0.4,2.5-1.2,3.5
	c-0.8,0.9-2,1.4-3.3,1.3c-1.2,0.1-2.4-0.4-3.3-1.3c-0.9-1-1.3-2.3-1.2-3.6L497.6,63.2z M500.1,63.3c0,0.7,0.1,1.5,0.5,2.1
	c0.3,0.5,0.9,0.7,1.5,0.7c0.6,0,1.1-0.2,1.4-0.7c0.4-0.7,0.6-1.5,0.5-2.3c0-0.7-0.1-1.4-0.5-2.1c-0.3-0.5-0.9-0.8-1.5-0.7
	c-0.6,0-1.1,0.3-1.4,0.7C500.2,61.8,500,62.6,500.1,63.3L500.1,63.3z M502.6,54.5h2.8l-2.4,2.7h-2.1L502.6,54.5z M510.5,58.5
	l0.1,1.1c0.7-0.8,1.7-1.3,2.7-1.3c0.8-0.1,1.7,0.3,2.2,0.9c0.5,0.8,0.8,1.7,0.8,2.7V68h-2.5v-6.1c0-0.4-0.1-0.8-0.4-1.2
	c-0.3-0.3-0.7-0.4-1.2-0.4c-0.7,0-1.3,0.3-1.6,0.9V68h-2.5v-9.5H510.5z M527.1,68.2c-1.3,0.1-2.5-0.4-3.4-1.3
	c-0.9-0.9-1.4-2.1-1.3-3.4v-0.2c0-0.9,0.2-1.8,0.6-2.6c0.3-0.7,0.9-1.3,1.6-1.7c0.7-0.4,1.5-0.6,2.3-0.6c1.2-0.1,2.3,0.4,3.1,1.2
	c0.8,1,1.2,2.2,1.1,3.5v1h-6.1c0.1,0.6,0.3,1.1,0.7,1.5c0.4,0.4,1,0.6,1.6,0.6c0.9,0,1.7-0.4,2.3-1.1l1.2,1.4
	c-0.4,0.5-0.9,1-1.5,1.3C528.6,68,527.8,68.2,527.1,68.2z M526.8,60.4c-0.5,0-0.9,0.2-1.2,0.5c-0.3,0.4-0.6,0.9-0.6,1.5h3.5v-0.2
	c0-0.5-0.1-1-0.5-1.3C527.7,60.5,527.2,60.3,526.8,60.4L526.8,60.4z M534.8,58.5l0.1,1.1c0.7-0.8,1.7-1.3,2.7-1.3
	c0.8-0.1,1.7,0.3,2.3,0.9c0.5,0.8,0.8,1.7,0.8,2.7V68h-2.5v-6.1c0-0.4-0.1-0.8-0.4-1.2c-0.3-0.3-0.7-0.4-1.2-0.4
	c-0.7,0-1.3,0.3-1.6,0.9V68h-2.5v-9.5L534.8,58.5z M552.7,67c-0.6,0.8-1.6,1.2-2.6,1.1c-0.9,0.1-1.7-0.3-2.3-0.9
	c-0.6-0.7-0.9-1.6-0.8-2.6v-6.2h2.5v6.2c0,1,0.5,1.5,1.4,1.5c0.7,0.1,1.4-0.3,1.8-0.9v-6.7h2.5V68h-2.4L552.7,67z M559.4,58.5
	l0.1,1.1c0.7-0.8,1.7-1.3,2.7-1.3c0.8-0.1,1.7,0.3,2.2,0.9c0.5,0.8,0.8,1.7,0.8,2.7V68h-2.5v-6.1c0-0.4-0.1-0.8-0.4-1.2
	c-0.3-0.3-0.7-0.4-1.2-0.4c-0.7,0-1.3,0.3-1.6,0.9V68H557v-9.5H559.4z M582,57.3h-3.8L576.4,68h-2.6l1.8-10.7h-3.8l0.4-2.1h10.1
	L582,57.3z M585.3,59.5c0.6-0.8,1.6-1.2,2.6-1.2c0.8,0,1.6,0.3,2.1,1c0.5,0.8,0.7,1.8,0.5,2.7l-1,6H587l1-6c0-0.2,0-0.4,0-0.6
	c0-0.6-0.5-1-1-1c0,0-0.1,0-0.1,0c-0.7,0-1.3,0.3-1.8,0.9L584,68h-2.5l2.3-13.5h2.5L585.3,59.5z M597.9,60.9
	c-0.3-0.1-0.6-0.1-0.8-0.1c-0.8-0.1-1.6,0.3-2.1,1l-1.1,6.2h-2.5l1.7-9.5l2.3,0l-0.2,1.2c0.4-0.8,1.3-1.3,2.2-1.3
	c0.3,0,0.6,0,0.9,0.1L597.9,60.9z M602.4,68.2c-0.8,0-1.5-0.2-2.2-0.6c-0.6-0.4-1.1-1-1.4-1.7c-0.3-0.7-0.4-1.5-0.4-2.3l0-0.4
	c0.1-0.9,0.4-1.8,0.8-2.5c0.4-0.7,1-1.4,1.7-1.8c0.7-0.4,1.5-0.6,2.4-0.6c1.1,0,2.1,0.5,2.8,1.4c0.7,1,0.9,2.2,0.7,3.3l-0.1,1.1
	h-5.8c0,0.5,0.1,1.1,0.4,1.5c0.3,0.4,0.8,0.6,1.3,0.6c0.9,0,1.8-0.4,2.4-1.1l1.1,1.4c-0.4,0.6-0.9,1-1.5,1.3
	C603.9,68,603.2,68.2,602.4,68.2L602.4,68.2z M603.2,60.4c-0.4,0-0.9,0.1-1.2,0.4c-0.4,0.4-0.8,1-1,1.6h3.4l0.1-0.2
	c0-0.2,0-0.4,0-0.7c0-0.3-0.2-0.6-0.4-0.8C603.8,60.5,603.5,60.4,603.2,60.4L603.2,60.4z M612.9,68c-0.1-0.3-0.1-0.6-0.1-0.9
	c-0.6,0.7-1.5,1.1-2.4,1c-0.8,0-1.5-0.3-2.1-0.8c-0.5-0.5-0.8-1.2-0.8-2c0-1,0.5-1.9,1.3-2.4c1-0.6,2.2-0.9,3.3-0.8l1.2,0l0.1-0.6
	c0-0.2,0-0.4,0-0.6c0-0.2-0.1-0.5-0.3-0.6c-0.2-0.2-0.5-0.2-0.7-0.2c-0.4,0-0.7,0.1-1,0.3c-0.3,0.2-0.5,0.5-0.5,0.9l-2.5,0
	c0-0.9,0.5-1.7,1.3-2.2c0.9-0.6,1.9-0.9,2.9-0.8c0.9,0,1.9,0.3,2.5,1c0.6,0.6,0.9,1.5,0.8,2.4l-0.7,4.6l0,0.6c0,0.4,0,0.7,0.1,1.1
	l0,0.2H612.9z M611,66.3c0.7,0,1.4-0.3,1.9-0.9l0.3-1.6l-0.9,0c-0.8,0-1.5,0.3-2,0.8c-0.2,0.2-0.2,0.5-0.3,0.7
	c-0.1,0.3,0,0.5,0.2,0.8C610.5,66.2,610.7,66.3,611,66.3L611,66.3z M621.6,58.3c0.8,0,1.6,0.4,2.1,1.1l0.9-4.9h2.5L624.8,68h-2.2
	l0.1-1c-0.6,0.8-1.5,1.2-2.5,1.2c-0.6,0-1.1-0.2-1.6-0.5c-0.5-0.3-0.8-0.8-1-1.3c-0.3-0.6-0.4-1.3-0.4-1.9c0-0.4,0-0.7,0-1.1
	l0.1-0.4c0.1-0.9,0.4-1.8,0.8-2.6c0.3-0.7,0.8-1.2,1.5-1.6C620.2,58.5,620.9,58.3,621.6,58.3z M619.8,63.4c0,0.4-0.1,0.7,0,1.1
	c0.1,1,0.5,1.6,1.2,1.6c0.7,0,1.4-0.4,1.8-1l0.7-3.8c-0.2-0.6-0.7-1-1.4-1c-0.6,0-1.1,0.2-1.5,0.7C620.1,61.8,619.8,62.6,619.8,63.4
	L619.8,63.4z"/>
<line id="Línea_556" class="st7" x1="532.7" y1="72.1" x2="532.7" y2="140.5"/>
<line id="Línea_557" class="st7" x1="297.7" y1="24" x2="297.7" y2="45.1"/>
</svg>
