<svg xmlns="http://www.w3.org/2000/svg" width="493" height="400" viewBox="0 0 493 400">
  <g id="Grupo_23383" data-name="Grupo 23383" transform="translate(15364 8184)">
    <rect id="Rectángulo_2087" data-name="Rectángulo 2087" width="493" height="400" rx="10" transform="translate(-15364 -8184)" fill="#e1fcf8"/>
    <g id="Grupo_23122" data-name="Grupo 23122" transform="translate(-15691.724 -8511.275)">
      <path id="Trazado_4633" data-name="Trazado 4633" d="M393.811,655.544a1.86,1.86,0,0,0,2.912,1.322C406.691,649.933,442.7,625.1,447,625.1c5,0,31.777,12.786,37.446,12.786,6.663,0,70.333-56.205,77.959-57.665,11.533-2.206,52.512,26,70.08,26,13.048,0,126.865-95.464,133.24-94.8,4.752.492,5.859,4.472,9.306,16.372,3.906,13.484,12.68-42.689,9.705-47.823-3-5.17-55.895-9.868-52.665-4.425,2.954,4.978,25.3,8.856,11.653,18.153-12.737,8.68-102.523,81.856-112.655,82.472-12.165.738-55.6-26.669-69.981-25.973-11.448.554-68.308,56.378-78.289,56.378-6.134,0-30.1-13.058-37.084-13.11-8.216-.062-45.413,26.746-51.546,30.65C390.892,626.2,392.914,647.458,393.811,655.544Z" transform="translate(0 0)" fill="#419f81"/>
      <g id="Grupo_23121" data-name="Grupo 23121" transform="translate(447.306 505.509)">
        <g id="Grupo_23117" data-name="Grupo 23117" transform="translate(3.241 40.847)">
          <path id="Trazado_4634" data-name="Trazado 4634" d="M748.6,888.895l.13-1.169.077-.685c0-.039.007-.078.008-.116a1.436,1.436,0,0,0-.175-.773.738.738,0,0,0-.543-.394l-.569-.064-.087-.01-2.36-.263a.625.625,0,0,0-.333.055,1.28,1.28,0,0,0-.643,1.046l-.078.707-.127,1.139.593.066.128-1.143.018-.162a.962.962,0,0,1,.472-.778.475.475,0,0,1,.257-.045l2.08.232.175.02c.348.04.585.471.529.964l-.016.141-.129,1.158v.007Z" transform="translate(-736.867 -882.175)" fill="#201b2c"/>
          <path id="Trazado_4635" data-name="Trazado 4635" d="M751.193,868.287c.042.7.239.524.42,1.433s.847,2.2.377,2.308-.787-.458-1-.582.258.436-.046.847a1.791,1.791,0,0,1-1.98.2,2.293,2.293,0,0,1-.776-1.98,10.1,10.1,0,0,1,.677-2.448C748.977,867.676,751.193,868.287,751.193,868.287Z" transform="translate(-740.355 -867.933)" fill="#eeada5"/>
          <path id="Trazado_4636" data-name="Trazado 4636" d="M764.4,888.916l.077-.685c0-.039.007-.078.008-.116a1.436,1.436,0,0,0-.173-.778.738.738,0,0,0-.544-.395l-.57-.057-.017,0-.043,0,.038.211v0l.052.285.066.363c.348.039.584.471.53.964l-.017.148-.13,1.158.593.066Z" transform="translate(-752.535 -883.365)" fill="#201b2c"/>
          <g id="Grupo_23116" data-name="Grupo 23116" transform="translate(0 4.583)">
            <path id="Trazado_4637" data-name="Trazado 4637" d="M724.678,896.293l-.9,8.513a.919.919,0,0,1-1.01.817l-.028,0-15.193-1.415a1.489,1.489,0,0,1-1.519-1.893l.611-8.056a2.042,2.042,0,0,1,2.171-1.6l13.5,1.423.507.053A2,2,0,0,1,724.678,896.293Z" transform="translate(-705.998 -892.637)" fill="#603a3e"/>
            <path id="Trazado_4638" data-name="Trazado 4638" d="M796.3,902.606l-.9,8.513a.919.919,0,0,1-1.01.817l-.028,0a6.682,6.682,0,0,1,.067-2.578,25.371,25.371,0,0,0-.5-8.967l.507.053A1.994,1.994,0,0,1,796.3,902.606Z" transform="translate(-777.619 -898.951)" fill="#775155"/>
          </g>
        </g>
        <path id="Trazado_4639" data-name="Trazado 4639" d="M1091.542,966.831c-.944-.976-3.615-3.124-3.615-3.124l-2.425,2.646,4.041,3.189,2.783-.744Z" transform="translate(-1011.863 -905.094)" fill="#efaea6"/>
        <path id="Trazado_4640" data-name="Trazado 4640" d="M1106.857,964.369c.19-.337.346.022.857.306,1.17.65,4.409-2.795,4.98-3.238a1.117,1.117,0,0,1,.849,1.972c-1.081,1.157-4.531,4.877-5.722,6.136a.8.8,0,0,1-.962.153c-1.133-.624-2.5-2.011-2.206-2.393C1104.979,966.609,1106.067,965.773,1106.857,964.369Z" transform="translate(-1027.428 -903.215)" fill="#1f1f39"/>
        <g id="Grupo_23118" data-name="Grupo 23118" transform="translate(0 66.695)">
          <path id="Trazado_4641" data-name="Trazado 4641" d="M703.678,1012.569c1.281-.453,4.343-1.99,4.343-1.99l-1.4-3.306-4.579,2.351-.479,2.84Z" transform="translate(-699.145 -1007.273)" fill="#efaea6"/>
          <path id="Trazado_4642" data-name="Trazado 4642" d="M693.692,1021.153c.228.313-.164.306-.634.653-1.077.794.71,5.172.876,5.875a1.117,1.117,0,0,1-2.147-.047c-.6-1.464-2.554-6.147-3.2-7.754a.8.8,0,0,1,.26-.939c1.039-.771,2.869-1.442,3.094-1.012C692.435,1018.513,692.743,1019.851,693.692,1021.153Z" transform="translate(-688.525 -1015.842)" fill="#1f1f39"/>
        </g>
        <path id="Trazado_4643" data-name="Trazado 4643" d="M786.612,848.423q-.082.136-.162.267a28.933,28.933,0,0,1-2,2.922,8.132,8.132,0,0,1-.75.852c-2.087-1.4-12.428-9.446-16.681-11.065-2.639-1-10.482-3.645-16.062-5.506-3.418-1.141-5.985-1.988-5.985-1.988s0,0,0,0c-.607,1.862-1.176,3.449-1.715,4.845-1.951,5.059-1.374,5.809-5.638,12.14-1.735,2.576-20,9.211-20.994,9.229s-3.393-3.913-3.2-4.279,17.243-7.119,17.983-8.6c.945-1.9,1.493-5.966,2.2-10.9.338-2.349.643-4.812.842-7.168.015-.171.028-.342.042-.512a.006.006,0,0,0,0,0c.086-1.089.147-2.151.175-3.165.006-.2.673-.53,1.677-.912,1.225-.466,2.951-1.01,4.589-1.5,1.7-.509,3.312-.956,4.157-1.186.389-.107.617-.168.617-.168l2.159-.839a7.2,7.2,0,0,0,.838,1.275,15.657,15.657,0,0,0,1.614,1.7c5.463,5.024,17.118,10.808,19.148,12.246C771.913,837.832,785.981,847.647,786.612,848.423Z" transform="translate(-708.79 -788.763)" fill="#3b3b4c"/>
        <path id="Trazado_4644" data-name="Trazado 4644" d="M847.64,687.49l-3.124-.249c-.3-1.355-1.742-4.374-1.773-5.634-.034-1.383.1-1.335.1-1.335l2.3.821,1.081.387a3.628,3.628,0,0,0,.4,1.428,7.529,7.529,0,0,0,1.607,2.163C848.853,685.677,847.64,687.49,847.64,687.49Z" transform="translate(-814.131 -674.237)" fill="#efaea6"/>
        <path id="Trazado_4645" data-name="Trazado 4645" d="M851.559,685.087a5.029,5.029,0,0,0,.466,1.558c-1.667,1.207-3.033.023-2.675-.591a13.672,13.672,0,0,1,1.128-1.354Z" transform="translate(-819.47 -677.843)" fill="#1f1f39" opacity="0.14"/>
        <g id="Grupo_23119" data-name="Grupo 23119" transform="translate(25.345 0)">
          <path id="Trazado_4646" data-name="Trazado 4646" d="M838.52,659.165c.7.855,2.864,1.92,2.25,2.337s1.472,1.805.834,2.272c-1.545,1.131-4.046,1.374-4.772.751a18.128,18.128,0,0,1-2.073-2.828Z" transform="translate(-832.977 -657.045)" fill="#efaea6"/>
          <path id="Trazado_4647" data-name="Trazado 4647" d="M829.666,651.837c.538-.282.634-.175.868-.582s-.7-.476-.122-1.028,1-1.4.338-2.015c-1.074-1-1.436-.2-1.941.329-.325.34-.878-.306-1.613.248-.577.435.068.638-.43,1.048-.3.248-1.287.148-1.523.875-.438,1.349.937,1.7.688,2.989-.291,1.5,3.094,1.98,3.178,1.586.1-.46-.948-1.1-.811-1.51.207-.62.511-.29,1.1-.2.633.1,1.36-.365.424-.753S829.179,652.093,829.666,651.837Z" transform="translate(-825.156 -647.734)" fill="#1f1f39"/>
        </g>
        <path id="Trazado_4648" data-name="Trazado 4648" d="M1000.319,677.62a12.532,12.532,0,0,1,2.081-.94c.948-.306,1.672-.485,2.136-1.255.381-.633,2.309-2.92,2.556-2.791.855.447-.422,2.454-.815,2.865-2.1,2.192-.058,2.281-.231,2.956s-.757-.367-2.321.339a17.151,17.151,0,0,1-2.277,1.122C1001,679.959,1000.319,677.62,1000.319,677.62Z" transform="translate(-942.481 -668.011)" fill="#efaea6"/>
        <path id="Trazado_4649" data-name="Trazado 4649" d="M829.261,849c-.729,4.475-5.724,8.921-6.968,10.236.362-2.519.687-5.17.884-7.679a.01.01,0,0,0,0,0,11.791,11.791,0,0,0,.163-1.894Z" transform="translate(-797.479 -811.667)" fill="#1f1f39" opacity="0.42"/>
        <path id="Trazado_4650" data-name="Trazado 4650" d="M835.377,699.654c1.157-.559,1.983.841,2.981.7.606-.086.477-.623.692-.973.133-.215.484-.147.968-.207,1.269-.156,6.444,24.431,6.444,24.431a25.575,25.575,0,0,1-5.792,2.134c-2.536.454-6.76.352-6.843-.55s-.547-23.776-.547-23.776A7.058,7.058,0,0,1,835.377,699.654Z" transform="translate(-806.43 -689.631)" fill="#fff"/>
        <path id="Trazado_4651" data-name="Trazado 4651" d="M764.938,702.191c.409,1.407.116,7.75,2.327,12.2a8.411,8.411,0,0,1,.8,2.793,13.121,13.121,0,0,1,.063,2.112,32.949,32.949,0,0,0-.269,4.658,14.863,14.863,0,0,1,.522,4.452,2.649,2.649,0,0,1-.791,1.6c-1.507,1.4-5.219,2.064-5.892,2.551-.817.591-4.939,1.044-3.693-.455a17.383,17.383,0,0,0,3.357-8.621,12.949,12.949,0,0,0,.069-2.672c-.03-.314-.064-.6-.1-.854a5.035,5.035,0,0,0-.156-.7c-.1-.3-.2-.6-.317-.907-.508-1.365-1.122-2.7-1.27-3.3v-.005a.939.939,0,0,1-.031-.193c0-.007,0-.014,0-.019-.491.423-5.83,5.723-6.936,9.342a73.091,73.091,0,0,0-1.488,9.83.016.016,0,0,1-.017.013c-1.359-.032-3.482-.144-3.929-.5a.013.013,0,0,1-.006-.009c-.573-1.93.832-7.059,1.381-10.438.515-3.168,6.354-11.589,9.394-15.367,2.02-2.508,6.977-5.542,6.977-5.542S764.935,702.181,764.938,702.191Z" transform="translate(-736.187 -692.066)" fill="#0267a4"/>
        <path id="Trazado_4652" data-name="Trazado 4652" d="M814.486,763.216l.047.255v0c.17.629.762,1.918,1.255,3.241.112.3.22.608.317.907a8.033,8.033,0,0,1,.261,1.553c.052.549.245,1.146.294,1.8.053-.115-.035-.223.013-.369a41.463,41.463,0,0,0-.206-9.059A9.492,9.492,0,0,0,814.486,763.216Z" transform="translate(-791.12 -740.434)" fill="#1f1f39" opacity="0.28"/>
        <g id="Grupo_23120" data-name="Grupo 23120" transform="translate(0.323 10.438)">
          <path id="Trazado_4653" data-name="Trazado 4653" d="M808.755,707.095c-.155-.057-.858,2.9-2.458,4.2a4.379,4.379,0,0,1-1.491.823,63,63,0,0,1-7.671,1.025,15.568,15.568,0,0,1,1.618-2.1,20.64,20.64,0,0,0,5.472-.537,6.367,6.367,0,0,0,1.671-.921,10.611,10.611,0,0,0,2.194-2.342c.271-.382.212-.849.62-.965C809.253,706.126,808.953,707.167,808.755,707.095Z" transform="translate(-777.311 -705.845)" fill="#1f1f39" opacity="0.18"/>
          <path id="Trazado_4654" data-name="Trazado 4654" d="M722.411,704.516a.7.7,0,0,0-.9-.476c-.408.116-.4.292-.672.673a8.629,8.629,0,0,1-3.866,3.264c-1.778.642-6.527-.746-9.087.5s-2.795,3.865-6.545,5.433-8.345.937-9.448,1.414-1.739.9-1.6,1.347a2.325,2.325,0,0,0,1.782,1.191,51.924,51.924,0,0,0,9.946-1.826c2.97-1.157,4.937-4.568,6.873-5.223s6.373-.532,8.66-1.223c2.551-.771,3.925-4.293,4.123-4.221a.723.723,0,0,0,.694-.019C722.58,705.235,722.49,704.771,722.411,704.516Z" transform="translate(-690.269 -704.005)" fill="#f4ad00"/>
        </g>
        <path id="Trazado_4655" data-name="Trazado 4655" d="M896.3,690.927a10.254,10.254,0,0,1,.609,3.3c-1.541.987-8.84,5.561-12.459,5.295-3.057-.225-10.25-2.659-10.388-1.675a43.557,43.557,0,0,0,.863,7.306c.132.753.267,1.467.394,2.088a18.179,18.179,0,0,0,.463,1.9c.551,1.6,2.7,10.674.848,10.564-1.956-.115-4.32,2.138-4.973,1.319a5.579,5.579,0,0,1,.089-2.432c.4-2.839,1.3-7.5,1.151-10.615h0a9.507,9.507,0,0,0-.123-1.159q-.07-.4-.131-.758a64.262,64.262,0,0,0-1.821-9.006l-1.427-4.568.114-.018c4.607-.656,12.127,2.817,14.9,2.705S893.741,691.592,896.3,690.927Z" transform="translate(-835.847 -682.915)" fill="#0267a4"/>
        <path id="Trazado_4656" data-name="Trazado 4656" d="M889.534,885.9c-3.418-1.141-5.985-1.989-5.985-1.989l.508-1.634S887.554,884.5,889.534,885.9Z" transform="translate(-847.372 -838.769)" fill="#1f1f39" opacity="0.42"/>
      </g>
    </g>
    <g id="Grupo_23139" data-name="Grupo 23139" transform="translate(-16669.441 -8942.723)">
      <path id="Trazado_4657" data-name="Trazado 4657" d="M1808.72,1635.307c0,.929,15.467,2.006,33.287,2.006s32.267-.752,32.267-1.681-14.446-1.68-32.267-1.68S1808.72,1634.379,1808.72,1635.307Z" transform="translate(-242.142 -657.293)" fill="#32323f" opacity="0.23" style="isolation: isolate"/>
      <g id="Grupo_23123" data-name="Grupo 23123" transform="translate(1561.679 906.857)">
        <ellipse id="Elipse_1281" data-name="Elipse 1281" cx="31.098" cy="29.838" rx="31.098" ry="29.838" transform="translate(0 55.895) rotate(-63.986)" fill="#db9507"/>
      </g>
      <g id="Grupo_23124" data-name="Grupo 23124" transform="translate(1560.49 904.564)">
        <circle id="Elipse_1282" data-name="Elipse 1282" cx="29.838" cy="29.838" r="29.838" transform="translate(0 42.198) rotate(-45)" fill="#f4ad00"/>
      </g>
      <g id="Grupo_23127" data-name="Grupo 23127" transform="translate(1588.922 931.034)">
        <g id="Grupo_23125" data-name="Grupo 23125" transform="translate(0 2.223)">
          <path id="Trazado_4658" data-name="Trazado 4658" d="M2061.5,1208.068a8.418,8.418,0,0,1,1.451,4.645,8.893,8.893,0,0,1-1.5,4.873,14.694,14.694,0,0,1-4.474,4.35,13.753,13.753,0,0,1-6.739,2.509,9.3,9.3,0,0,1-4.353-.829,7.007,7.007,0,0,1-3.081-2.461,2.538,2.538,0,0,1,.765-3.573,2.217,2.217,0,0,1,1.625-.365,4.616,4.616,0,0,1,1.865.859,11.659,11.659,0,0,0,2.247,1.264,4.8,4.8,0,0,0,2.331.283,6.575,6.575,0,0,0,2.863-1.168,6.851,6.851,0,0,0,2.847-3.313,3.619,3.619,0,0,0-.3-3.4,3.177,3.177,0,0,0-2-1.46,5.613,5.613,0,0,0-2.629.1q-1.41.367-3.631,1.193a27,27,0,0,1-5.256,1.43,8.392,8.392,0,0,1-4.217-.389,6.859,6.859,0,0,1-3.308-2.8,7.13,7.13,0,0,1-1.233-4.227,8.169,8.169,0,0,1,1.57-4.42,15.339,15.339,0,0,1,4.267-3.989,14.26,14.26,0,0,1,4.18-1.963,9.641,9.641,0,0,1,3.633-.3,7.271,7.271,0,0,1,2.808.883,5.265,5.265,0,0,1,1.771,1.624,2.751,2.751,0,0,1,.413,1.965,2.341,2.341,0,0,1-1.073,1.7,2.108,2.108,0,0,1-1.543.417,6.7,6.7,0,0,1-1.838-.747,7.475,7.475,0,0,0-2.963-1.088,5.5,5.5,0,0,0-3.446,1.177,6.1,6.1,0,0,0-2.49,2.822,2.88,2.88,0,0,0,.153,2.745,2.4,2.4,0,0,0,1.21.984,3.951,3.951,0,0,0,1.672.19,8.6,8.6,0,0,0,1.778-.326q.842-.25,2.731-.9a43.613,43.613,0,0,1,4.36-1.368,13.442,13.442,0,0,1,3.713-.449,6.828,6.828,0,0,1,3.159.885A7.98,7.98,0,0,1,2061.5,1208.068Z" transform="translate(-2034.774 -1194.851)" fill="#e56e1f"/>
        </g>
        <g id="Grupo_23126" data-name="Grupo 23126" transform="translate(1.573 0)">
          <path id="Trazado_4659" data-name="Trazado 4659" d="M2074.3,1203.87l-2.563,1.686a.97.97,0,0,1-1.342-.277l-19.553-29.734a.97.97,0,0,1,.277-1.342l2.563-1.686a.97.97,0,0,1,1.343.277l19.553,29.734A.968.968,0,0,1,2074.3,1203.87Z" transform="translate(-2050.685 -1172.358)" fill="#e56e1f"/>
        </g>
      </g>
      <g id="Grupo_23128" data-name="Grupo 23128" transform="translate(1577.189 922.744)">
        <circle id="Elipse_1283" data-name="Elipse 1283" cx="25.123" cy="25.123" r="25.123" transform="translate(0 0)" fill="none" stroke="#e56e1f" stroke-miterlimit="10" stroke-width="3"/>
      </g>
      <path id="Trazado_4660" data-name="Trazado 4660" d="M2459.055,1235.84c-5.741-.8-6.562-3.1-7.627-10.226-.744,6.762-1.693,9.326-7.531,10.1,5.092,1.928,6.881,2.628,7.789,10.444C2452.94,1238.24,2454.059,1237.54,2459.055,1235.84Z" transform="translate(-814.536 -289.316)" fill="#fff"/>
      <path id="Trazado_4661" data-name="Trazado 4661" d="M2004.019,1419.34c-3.333-.464-3.81-1.8-4.428-5.937-.432,3.926-.983,5.415-4.373,5.863,2.956,1.12,4,1.526,4.523,6.064C2000.469,1420.734,2001.118,1420.327,2004.019,1419.34Z" transform="translate(-410.206 -458.543)" fill="#fff"/>
      <path id="Trazado_4662" data-name="Trazado 4662" d="M1903.238,987.814c-3.68-.513-4.206-1.986-4.888-6.554-.477,4.334-1.085,5.978-4.827,6.472,3.264,1.236,4.411,1.684,4.993,6.694C1899.319,989.352,1900.036,988.9,1903.238,987.814Z" transform="translate(-318.563 -69.115)" fill="#fff"/>
      <g id="Grupo_23131" data-name="Grupo 23131" transform="translate(1587.617 911.331)">
        <g id="Grupo_23129" data-name="Grupo 23129" transform="translate(4.188 2.584)">
          <path id="Trazado_4663" data-name="Trazado 4663" d="M2075.592,1000.5a.322.322,0,0,1-.3.053,13,13,0,0,0-10.863,1.018.323.323,0,0,1-.314-.564,13.619,13.619,0,0,1,11.376-1.068.323.323,0,0,1,.1.561Z" transform="translate(-2063.951 -999.168)" fill="#603a3e"/>
        </g>
        <g id="Grupo_23130" data-name="Grupo 23130" transform="translate(0 0)">
          <path id="Trazado_4664" data-name="Trazado 4664" d="M2032.686,973.618a.323.323,0,0,1-.212.068,14.916,14.916,0,0,0-5.546.709,15.83,15.83,0,0,0-4.828,2.773l0,0a.323.323,0,0,1-.4-.506,14.9,14.9,0,0,1,10.8-3.623.323.323,0,0,1,.186.577Z" transform="translate(-2021.577 -973.025)" fill="#603a3e"/>
        </g>
      </g>
      <g id="Grupo_23134" data-name="Grupo 23134" transform="translate(1623.914 964.802)">
        <g id="Grupo_23132" data-name="Grupo 23132" transform="translate(0 1.602)">
          <path id="Trazado_4665" data-name="Trazado 4665" d="M2388.8,1536.835a.277.277,0,0,1,.177-.19,11.125,11.125,0,0,0,6.9-6.29.276.276,0,1,1,.5.224,11.651,11.651,0,0,1-7.223,6.588.277.277,0,0,1-.357-.332Z" transform="translate(-2388.793 -1530.191)" fill="#603a3e"/>
        </g>
        <g id="Grupo_23133" data-name="Grupo 23133" transform="translate(4.936 0)">
          <path id="Trazado_4666" data-name="Trazado 4666" d="M2438.738,1522.072a.278.278,0,0,1,.109-.156,12.762,12.762,0,0,0,3.425-3.341,13.539,13.539,0,0,0,1.871-4.381v0a.276.276,0,0,1,.534.14,12.752,12.752,0,0,1-5.516,8.038.276.276,0,0,1-.424-.3Z" transform="translate(-2438.729 -1513.988)" fill="#603a3e"/>
        </g>
      </g>
      <g id="Grupo_23138" data-name="Grupo 23138" transform="translate(1540.018 942.737)" opacity="0.79">
        <g id="Grupo_23135" data-name="Grupo 23135" transform="translate(0 1.48)">
          <line id="Línea_70" data-name="Línea 70" x2="28.107" y2="0.509" transform="translate(0.269 0.222)" fill="none"/>
          <path id="Trazado_4667" data-name="Trazado 4667" d="M1568.658,1306.527a.173.173,0,0,0,0-.06.285.285,0,0,0-.29-.227l-28.106-.509c-.148,0-.259.094-.247.216a.285.285,0,0,0,.29.227l28.106.509A.231.231,0,0,0,1568.658,1306.527Z" transform="translate(-1540.018 -1305.731)" fill="#703b10"/>
        </g>
        <g id="Grupo_23136" data-name="Grupo 23136" transform="translate(11.102 0)">
          <line id="Línea_71" data-name="Línea 71" x2="11.213" y2="0.361" transform="translate(0.287 0.223)" fill="none"/>
          <path id="Trazado_4668" data-name="Trazado 4668" d="M1664.124,1291.406a.168.168,0,0,0,0-.06.313.313,0,0,0-.312-.232l-11.213-.36c-.157,0-.274.091-.259.213a.312.312,0,0,0,.312.232l11.213.36A.238.238,0,0,0,1664.124,1291.406Z" transform="translate(-1652.341 -1290.754)" fill="#703b10"/>
        </g>
        <g id="Grupo_23137" data-name="Grupo 23137" transform="translate(18.347 3.64)">
          <line id="Línea_72" data-name="Línea 72" x2="11.213" y2="0.36" transform="translate(0.287 0.222)" fill="none"/>
          <path id="Trazado_4669" data-name="Trazado 4669" d="M1737.414,1328.232a.159.159,0,0,0,0-.06.312.312,0,0,0-.312-.232l-11.213-.36c-.158-.005-.274.09-.259.213a.312.312,0,0,0,.312.232l11.213.36A.238.238,0,0,0,1737.414,1328.232Z" transform="translate(-1725.631 -1327.58)" fill="#703b10"/>
        </g>
      </g>
    </g>
    <g id="Grupo_23140" data-name="Grupo 23140" transform="translate(-16824 -8776.414)">
      <path id="Trazado_4657-2" data-name="Trazado 4657" d="M1808.72,1634.8c0,.584,9.729,1.262,20.938,1.262s20.3-.473,20.3-1.057-9.087-1.057-20.3-1.057S1808.72,1634.22,1808.72,1634.8Z" transform="translate(-251.995 -684.038)" fill="#32323f" opacity="0.23" style="isolation: isolate"/>
      <g id="Grupo_23123-2" data-name="Grupo 23123" transform="translate(1553.643 906.007)">
        <ellipse id="Elipse_1281-2" data-name="Elipse 1281" cx="19.561" cy="18.769" rx="19.561" ry="18.769" transform="translate(0 35.159) rotate(-63.986)" fill="#db9507"/>
      </g>
      <g id="Grupo_23124-2" data-name="Grupo 23124" transform="translate(1552.896 904.564)">
        <circle id="Elipse_1282-2" data-name="Elipse 1282" cx="18.769" cy="18.769" r="18.769" transform="translate(0 26.543) rotate(-45)" fill="#f4ad00"/>
      </g>
      <g id="Grupo_23127-2" data-name="Grupo 23127" transform="translate(1570.78 921.215)">
        <g id="Grupo_23125-2" data-name="Grupo 23125" transform="translate(0 1.399)">
          <path id="Trazado_4658-2" data-name="Trazado 4658" d="M2051.587,1203.165a5.294,5.294,0,0,1,.913,2.922,5.594,5.594,0,0,1-.941,3.065,9.243,9.243,0,0,1-2.814,2.736,8.651,8.651,0,0,1-4.239,1.578,5.848,5.848,0,0,1-2.738-.521,4.408,4.408,0,0,1-1.938-1.548,1.6,1.6,0,0,1,.481-2.248,1.4,1.4,0,0,1,1.022-.23,2.9,2.9,0,0,1,1.173.54,7.322,7.322,0,0,0,1.413.8,3.018,3.018,0,0,0,1.466.178,4.136,4.136,0,0,0,1.8-.735,4.31,4.31,0,0,0,1.791-2.084,2.277,2.277,0,0,0-.19-2.138,2,2,0,0,0-1.26-.918,3.529,3.529,0,0,0-1.654.063q-.887.231-2.284.75a16.977,16.977,0,0,1-3.306.9,5.278,5.278,0,0,1-2.652-.245,4.314,4.314,0,0,1-2.081-1.763,4.486,4.486,0,0,1-.775-2.659,5.139,5.139,0,0,1,.987-2.78,9.65,9.65,0,0,1,2.684-2.509,8.968,8.968,0,0,1,2.629-1.235,6.064,6.064,0,0,1,2.285-.19,4.574,4.574,0,0,1,1.766.556,3.31,3.31,0,0,1,1.114,1.021,1.731,1.731,0,0,1,.26,1.236,1.473,1.473,0,0,1-.675,1.07,1.325,1.325,0,0,1-.971.262,4.213,4.213,0,0,1-1.156-.47,4.7,4.7,0,0,0-1.864-.684,3.462,3.462,0,0,0-2.167.74,3.835,3.835,0,0,0-1.566,1.775,1.812,1.812,0,0,0,.1,1.726,1.508,1.508,0,0,0,.761.619,2.486,2.486,0,0,0,1.052.12,5.414,5.414,0,0,0,1.118-.2q.529-.157,1.718-.569a27.455,27.455,0,0,1,2.742-.86,8.451,8.451,0,0,1,2.336-.283,4.3,4.3,0,0,1,1.987.557A5.017,5.017,0,0,1,2051.587,1203.165Z" transform="translate(-2034.774 -1194.851)" fill="#e56e1f"/>
        </g>
        <g id="Grupo_23126-2" data-name="Grupo 23126" transform="translate(0.989 0)">
          <path id="Trazado_4659-2" data-name="Trazado 4659" d="M2065.541,1192.18l-1.612,1.06a.61.61,0,0,1-.844-.174l-12.3-18.7a.61.61,0,0,1,.174-.844l1.612-1.06a.61.61,0,0,1,.844.174l12.3,18.7A.609.609,0,0,1,2065.541,1192.18Z" transform="translate(-2050.685 -1172.358)" fill="#e56e1f"/>
        </g>
      </g>
      <g id="Grupo_23128-2" data-name="Grupo 23128" transform="translate(1563.4 916)">
        <circle id="Elipse_1283-2" data-name="Elipse 1283" cx="15.803" cy="15.803" r="15.803" transform="translate(0 0)" fill="none" stroke="#e56e1f" stroke-miterlimit="10" stroke-width="2"/>
      </g>
      <path id="Trazado_4660-2" data-name="Trazado 4660" d="M2453.432,1232.047c-3.611-.5-4.127-1.949-4.8-6.432-.468,4.254-1.065,5.867-4.737,6.352,3.2,1.213,4.329,1.653,4.9,6.569C2449.585,1233.556,2450.289,1233.116,2453.432,1232.047Z" transform="translate(-847.68 -301.088)" fill="#fff"/>
      <path id="Trazado_4661-2" data-name="Trazado 4661" d="M2000.754,1417.138c-2.1-.292-2.4-1.132-2.785-3.735-.272,2.47-.619,3.406-2.75,3.688,1.86.7,2.513.96,2.845,3.814C1998.521,1418.014,1998.929,1417.759,2000.754,1417.138Z" transform="translate(-426.897 -477.201)" fill="#fff"/>
      <path id="Trazado_4662-2" data-name="Trazado 4662" d="M1899.634,985.383c-2.315-.323-2.645-1.25-3.075-4.123-.3,2.726-.683,3.76-3.036,4.071,2.053.777,2.774,1.06,3.141,4.211C1897.169,986.35,1897.62,986.068,1899.634,985.383Z" transform="translate(-331.525 -71.927)" fill="#fff"/>
      <g id="Grupo_23131-2" data-name="Grupo 23131" transform="translate(1569.959 908.821)">
        <g id="Grupo_23129-2" data-name="Grupo 23129" transform="translate(2.635 1.625)">
          <path id="Trazado_4663-2" data-name="Trazado 4663" d="M2071.274,1000.006a.2.2,0,0,1-.188.033,8.179,8.179,0,0,0-6.833.64.2.2,0,0,1-.2-.355,8.568,8.568,0,0,1,7.156-.672.2.2,0,0,1,.063.353Z" transform="translate(-2063.951 -999.168)" fill="#603a3e"/>
        </g>
        <g id="Grupo_23130-2" data-name="Grupo 23130" transform="translate(0 0)">
          <path id="Trazado_4664-2" data-name="Trazado 4664" d="M2028.565,973.4a.2.2,0,0,1-.133.043,9.383,9.383,0,0,0-3.489.446,9.958,9.958,0,0,0-3.037,1.744h0a.2.2,0,0,1-.252-.318,9.373,9.373,0,0,1,6.795-2.279.2.2,0,0,1,.117.363Z" transform="translate(-2021.577 -973.025)" fill="#603a3e"/>
        </g>
      </g>
      <g id="Grupo_23134-2" data-name="Grupo 23134" transform="translate(1592.791 942.455)">
        <g id="Grupo_23132-2" data-name="Grupo 23132" transform="translate(0 1.007)">
          <path id="Trazado_4665-2" data-name="Trazado 4665" d="M2388.8,1534.37a.174.174,0,0,1,.112-.12,7,7,0,0,0,4.339-3.956.174.174,0,0,1,.318.141,7.33,7.33,0,0,1-4.543,4.144.174.174,0,0,1-.225-.209Z" transform="translate(-2388.793 -1530.191)" fill="#603a3e"/>
        </g>
        <g id="Grupo_23133-2" data-name="Grupo 23133" transform="translate(3.105 0)">
          <path id="Trazado_4666-2" data-name="Trazado 4666" d="M2438.735,1519.073a.175.175,0,0,1,.069-.1,8.026,8.026,0,0,0,2.154-2.1,8.517,8.517,0,0,0,1.177-2.755v0a.174.174,0,0,1,.336.088,8.021,8.021,0,0,1-3.469,5.056.174.174,0,0,1-.267-.187Z" transform="translate(-2438.729 -1513.988)" fill="#603a3e"/>
        </g>
      </g>
      <g id="Grupo_23138-2" data-name="Grupo 23138" transform="translate(1540.018 928.576)" opacity="0.79">
        <g id="Grupo_23135-2" data-name="Grupo 23135" transform="translate(0 0.931)">
          <line id="Línea_70-2" data-name="Línea 70" x2="17.68" y2="0.32" transform="translate(0.169 0.14)" fill="none"/>
          <path id="Trazado_4667-2" data-name="Trazado 4667" d="M1558.033,1306.232a.109.109,0,0,0,0-.037.18.18,0,0,0-.182-.143l-17.679-.32c-.093,0-.163.059-.155.136a.179.179,0,0,0,.182.143l17.679.32A.146.146,0,0,0,1558.033,1306.232Z" transform="translate(-1540.018 -1305.731)" fill="#703b10"/>
        </g>
        <g id="Grupo_23136-2" data-name="Grupo 23136" transform="translate(6.984 0)">
          <line id="Línea_71-2" data-name="Línea 71" x2="7.053" y2="0.227" transform="translate(0.18 0.14)" fill="none"/>
          <path id="Trazado_4668-2" data-name="Trazado 4668" d="M1659.753,1291.164a.108.108,0,0,0,0-.038.2.2,0,0,0-.2-.146l-7.053-.226c-.1,0-.172.057-.163.134a.2.2,0,0,0,.2.146l7.053.226A.15.15,0,0,0,1659.753,1291.164Z" transform="translate(-1652.341 -1290.754)" fill="#703b10"/>
        </g>
        <g id="Grupo_23137-2" data-name="Grupo 23137" transform="translate(11.541 2.29)">
          <line id="Línea_72-2" data-name="Línea 72" x2="7.054" y2="0.226" transform="translate(0.18 0.14)" fill="none"/>
          <path id="Trazado_4669-2" data-name="Trazado 4669" d="M1733.043,1327.99a.1.1,0,0,0,0-.038.2.2,0,0,0-.2-.146l-7.053-.226c-.1,0-.172.057-.163.134a.2.2,0,0,0,.2.146l7.053.226A.15.15,0,0,0,1733.043,1327.99Z" transform="translate(-1725.631 -1327.58)" fill="#703b10"/>
        </g>
      </g>
    </g>
  </g>
</svg>
