<?xml version="1.0" encoding="utf-8"?>
<!-- Generator: Adobe Illustrator 25.2.1, SVG Export Plug-In . SVG Version: 6.00 Build 0)  -->
<svg version="1.1" id="Layer_1" xmlns="http://www.w3.org/2000/svg" xmlns:xlink="http://www.w3.org/1999/xlink" x="0px" y="0px"
	 viewBox="0 0 703.3 406" style="enable-background:new 0 0 703.3 406;" xml:space="preserve">
<style type="text/css">
	.st0{fill:#E1FCF8;}
	.st1{opacity:0.85;}
	.st2{fill:#E56E1F;}
	.st3{fill:#DB9507;}
	.st4{fill:#F4AD00;}
	.st5{fill:#F4BB47;}
	.st6{fill:#F2B225;}
	.st7{fill:#FFFFFF;}
	.st8{fill:#EFAEA6;}
	.st9{fill:#8C4E30;}
	.st10{opacity:0.23;fill:#32323F;enable-background:new    ;}
	.st11{fill:#0267A5;}
	.st12{opacity:0.28;fill:#1F1F39;enable-background:new    ;}
	.st13{fill:#F9B232;}
	.st14{fill:#F5B1B4;}
	.st15{fill:#1F1F39;}
	.st16{opacity:0.14;fill:#1F1F39;enable-background:new    ;}
	.st17{opacity:0.14;fill:#32323F;enable-background:new    ;}
	.st18{fill:#E55845;}
	.st19{opacity:6.000000e-02;fill:#1F1F39;enable-background:new    ;}
	.st20{fill:#E8BC91;}
	.st21{fill:#C48653;}
	.st22{fill:#DDA66F;}
</style>
<path class="st0" d="M677,406H26.3C11.8,406,0,394.2,0,379.7V26.3C0,11.8,11.8,0,26.3,0H677c14.5,0,26.3,11.8,26.3,26.3v353.4
	C703.3,394.2,691.5,406,677,406z"/>
<g id="Grupo_23351" transform="translate(-10607.5 -11082)">
	<g id="Grupo_23350" transform="translate(123 222.227)">
		
			<image style="overflow:visible;opacity:0.17;enable-background:new    ;" width="1632" height="101" id="Rectángulo_5326" xlink:href="921662DC.png"  transform="matrix(0.2163 0 0 0.2163 10659.6689 11208.4746)">
		</image>
		<g id="Grupo_23301" transform="translate(780.352 612.04)" class="st1">
			<g id="Grupo_23300" transform="translate(5 0)">
				<path id="Trazado_4846" class="st2" d="M10042,10599.2c-1,0.3-1.9,0.7-2.8,1.3c-0.9,0.6-1.7,1.3-2.3,2.1
					c-0.3,0.4-0.6,0.9-0.8,1.4s-0.3,0.9-0.4,1.4c-0.1,0.5-0.1,1.1-0.1,1.6c0.1,0.7,0.3,1.3,0.6,1.8c0.7,1,1.7,1.8,2.8,2.1
					c1.5,0.5,3.1,0.6,4.6,0.5c1.7-0.1,3.3-0.4,4.8-1c1.2-0.5,2.4-1.3,3.3-2.2c0.7-0.7,1.3-1.5,1.8-2.3c0.2-0.3,0.4-0.7,0.6-1
					c0.4-0.7,0.9-1.5,1.4-2.2c0-0.1,0.1-0.1,0.1-0.2c0.5-0.6,1.1-1.1,1.8-1.5c0.8-0.4,1.8-0.7,2.7-0.7c0.4,0,0.8,0,1.2,0l0,0
					c0.7,0.1,1.4,0.3,2,0.8c0.4,0.3,0.7,0.6,0.8,1.1c0.2,0.5,0.2,1,0.1,1.5c-0.1,0.6-0.3,1.2-0.7,1.6c-0.1,0.1-0.2,0.2-0.3,0.3
					c-0.5,0.5-1.1,0.8-1.7,1.1l0,0c-0.1,0-0.1,0.1-0.2,0.1c-0.9,0.4-1.8,0.6-2.7,0.9c-0.7,0.2-1.4,0.4-2.1,0.8
					c-0.4,0.2-0.7,0.6-0.8,1c-0.1,0.5,0.2,0.9,0.7,1.1c0.6,0.3,1.3,0.4,2,0.3c1.3-0.1,2.5-0.4,3.8-0.8c0.2-0.1,0.4-0.1,0.6-0.2
					c1.4-0.5,2.7-1.2,3.8-2.2c0.1-0.1,0.3-0.2,0.4-0.3c1.1-1.1,1.9-2.5,2.1-4.1c0.1-0.5,0.1-0.9,0.1-1.4s-0.2-1.1-0.4-1.6l0,0
					c-0.1-0.2-0.2-0.5-0.4-0.7c-0.5-0.7-1.1-1.2-1.8-1.6l0,0c-0.5-0.3-0.9-0.5-1.4-0.6c-1.1-0.3-2.2-0.5-3.3-0.5l0,0
					c-0.6,0-1.2,0-1.8,0c-0.7,0-1.5,0.1-2.2,0.2c-0.1,0-0.3,0-0.4,0.1c-0.5,0.1-1.1,0.2-1.6,0.4c-1.1,0.3-2.1,0.8-3,1.5
					c-0.8,0.6-1.6,1.4-2.2,2.2c-0.4,0.6-0.9,1.2-1.3,1.8c-0.2,0.3-0.4,0.6-0.6,1c-0.5,0.8-0.9,1.4-1.1,1.8c-0.1,0.2-0.2,0.3-0.3,0.5
					c-0.2,0.2-0.4,0.4-0.6,0.6c-0.4,0.4-0.9,0.7-1.3,0.9c-0.5,0.2-1.1,0.4-1.7,0.4c-0.9,0.1-1.8-0.1-2.5-0.7
					c-0.3-0.2-0.5-0.5-0.6-0.8c-0.2-0.4-0.2-0.9-0.1-1.4c0.1-0.6,0.3-1.2,0.8-1.7c0.2-0.2,0.4-0.4,0.6-0.5c1-0.6,2-1,3-1.3
					c0.7-0.2,1.3-0.5,2-0.8c0.4-0.2,0.6-0.6,0.7-1c0.1-0.5-0.2-0.8-0.8-1.1s-1.3-0.4-2-0.3
					C10043.8,10598.8,10042.9,10599,10042,10599.2z"/>
			</g>
			<path id="Trazado_4847" class="st2" d="M10078.3,10602.4l-0.3,1.9c-0.1,0.3-0.6,0.6-1.2,0.7l-40.1,2.4c-0.6,0-1-0.2-1-0.5
				l0.3-1.9c0.1-0.3,0.6-0.6,1.2-0.7l40.1-2.4C10077.9,10601.9,10078.4,10602.1,10078.3,10602.4z"/>
		</g>
		<g id="Grupo_23304" transform="translate(766.9 597.065)">
			<g id="Grupo_23302" transform="translate(0 5.706)">
				<path id="Trazado_4848" class="st3" d="M10108.6,10613.8c-4.5,5.9-18.4,8-35.9,7.6c-1.1,0-2.1-0.1-3.2-0.1
					c-5.6-0.2-11.2-0.7-16.7-1.7c-0.2,0-0.4-0.1-0.6-0.1c-2.6-0.5-5.2-1.2-7.8-2.1c-3.6-1.3-6.4-3.1-7.8-5.3c-0.9-1.4-0.8-4.3-0.8-6
					c0-0.2,0-0.5,0.1-0.7c0-0.1,0-0.1,0.1-0.2c0.1-0.4,0.3-0.7,0.5-1s0.4-0.5,0.6-0.7c3.2-3,11.8-4.9,23-5.6h0.1
					c1.1-0.1,2.2-0.1,3.4-0.2c0.9,0,1.8-0.1,2.7-0.1c0.6,0,1.2,0,1.8,0c1.5,0,3.1,0,4.7,0c0.3,0,0.6,0,1,0c0.6,0,1.3,0,1.9,0.1
					c0.3,0,0.6,0,0.9,0c0.6,0,1.2,0.1,1.8,0.1c17.1,0.9,30.2,4.3,31,9.3c0,0.2,0,0.4,0,0.5
					C10109.5,10609.1,10109.7,10612.4,10108.6,10613.8z"/>
				
					<ellipse id="Elipse_1314" transform="matrix(2.184891e-02 -0.9998 0.9998 2.184891e-02 -751.1628 20445.5879)" class="st4" cx="10073.1" cy="10606.7" rx="9.2" ry="36.8"/>
				<path id="Trazado_4849" class="st5" d="M10052.9,10619.7c-2.8-0.5-5.6-1.2-8.3-2.2c0.1-1,0.3-2.5,0.3-5c2.7,0.8,5.4,1.5,8.2,1.9
					C10053.1,10616.2,10053,10617.9,10052.9,10619.7z"/>
				<path id="Trazado_4850" class="st6" d="M10069.6,10621.3c-5.6-0.2-11.2-0.7-16.7-1.7c-0.2,0-0.4-0.1-0.6-0.1
					c0-1.1,0.3-3.1,0.4-5.2c5.8,1,11.7,1.6,17.6,1.8C10070.2,10617.9,10069.9,10619.6,10069.6,10621.3z"/>
			</g>
			<g id="Grupo_23303" transform="translate(0.112)">
				<path id="Trazado_4851" class="st3" d="M10108.6,10613.8c-4.5,5.9-18.4,8-35.9,7.6c-1.1,0-2.1-0.1-3.2-0.1
					c-5.6-0.2-11.2-0.7-16.7-1.7c-0.2,0-0.4-0.1-0.6-0.1c-2.6-0.5-5.2-1.2-7.8-2.1c-3.6-1.3-6.4-3.1-7.8-5.3c-0.9-1.4-0.8-4.3-0.8-6
					c0-0.2,0-0.5,0.1-0.7c0-0.1,0-0.1,0.1-0.2c0.1-0.4,0.3-0.7,0.5-1s0.4-0.5,0.6-0.7c3.2-3,11.8-4.9,23-5.6h0.1
					c1.1-0.1,2.2-0.1,3.4-0.2c0.9,0,1.8-0.1,2.7-0.1c0.6,0,1.2,0,1.8,0c1.5,0,3.1,0,4.7,0c0.3,0,0.6,0,0.9,0c0.6,0,1.3,0,1.9,0.1
					c0.3,0,0.6,0,0.9,0c0.6,0,1.2,0.1,1.8,0.1c17.1,0.9,30.2,4.3,31,9.3c0,0.2,0,0.4,0,0.5
					C10109.5,10609.1,10109.7,10612.4,10108.6,10613.8z"/>
				
					<ellipse id="Elipse_1315" transform="matrix(2.199376e-02 -0.9998 0.9998 2.199376e-02 -752.5293 20444.0391)" class="st4" cx="10073.1" cy="10606.7" rx="9.2" ry="36.8"/>
				<path id="Trazado_4852" class="st5" d="M10052.9,10619.7c-2.8-0.5-5.6-1.2-8.3-2.2c0.1-1,0.3-2.5,0.3-5c2.7,0.8,5.4,1.5,8.2,1.9
					C10053.1,10616.2,10053,10617.9,10052.9,10619.7z"/>
				<path id="Trazado_4853" class="st6" d="M10069.6,10621.3c-5.6-0.2-11.2-0.7-16.7-1.7c-0.2,0-0.4-0.1-0.6-0.1
					c0-1.1,0.3-3.1,0.4-5.2c5.8,1,11.7,1.6,17.6,1.8C10070.2,10617.9,10070,10619.6,10069.6,10621.3z"/>
			</g>
		</g>
		<g id="Grupo_23307" transform="translate(767.163 585.06)">
			<g id="Grupo_23305" transform="translate(0 5.706)">
				<path id="Trazado_4854" class="st3" d="M10108.6,10613.8c-4.5,5.9-18.4,8-35.9,7.6c-1.1,0-2.1-0.1-3.2-0.1
					c-5.6-0.2-11.2-0.7-16.7-1.7c-0.2,0-0.4-0.1-0.6-0.1c-2.6-0.5-5.2-1.2-7.8-2.1c-3.6-1.3-6.4-3.1-7.8-5.3c-0.9-1.4-0.8-4.3-0.8-6
					c0-0.2,0-0.5,0.1-0.7c0-0.1,0-0.1,0.1-0.2c0.1-0.4,0.3-0.7,0.5-1s0.4-0.5,0.6-0.7c3.2-3,11.8-4.9,23-5.6h0.1
					c1.1-0.1,2.2-0.1,3.4-0.2c0.9,0,1.8-0.1,2.7-0.1c0.6,0,1.2,0,1.8,0c1.5,0,3.1,0,4.7,0c0.3,0,0.6,0,0.9,0c0.6,0,1.3,0,1.9,0.1
					c0.3,0,0.6,0,0.9,0c0.6,0,1.2,0.1,1.8,0.1c17.1,0.9,30.2,4.3,31,9.3c0,0.2,0,0.4,0,0.5
					C10109.5,10609.1,10109.7,10612.4,10108.6,10613.8z"/>
				
					<ellipse id="Elipse_1316" transform="matrix(2.199376e-02 -0.9998 0.9998 2.199376e-02 -752.5293 20444.0391)" class="st4" cx="10073.1" cy="10606.7" rx="9.2" ry="36.8"/>
				<path id="Trazado_4855" class="st5" d="M10052.9,10619.7c-2.8-0.5-5.6-1.2-8.3-2.2c0.1-1,0.3-2.5,0.3-5c2.7,0.8,5.4,1.5,8.2,1.9
					C10053.1,10616.2,10053,10617.9,10052.9,10619.7z"/>
				<path id="Trazado_4856" class="st6" d="M10069.6,10621.3c-5.6-0.2-11.2-0.7-16.7-1.7c-0.2,0-0.4-0.1-0.6-0.1
					c0-1.1,0.3-3.1,0.4-5.2c5.8,1,11.7,1.6,17.6,1.8C10070.2,10617.9,10069.9,10619.6,10069.6,10621.3z"/>
			</g>
			<g id="Grupo_23306" transform="translate(0.112 0)">
				<path id="Trazado_4857" class="st3" d="M10108.6,10613.8c-4.5,5.9-18.4,8-35.9,7.6c-1.1,0-2.1-0.1-3.2-0.1
					c-5.6-0.2-11.2-0.7-16.7-1.7c-0.2,0-0.4-0.1-0.6-0.1c-2.6-0.5-5.2-1.2-7.8-2.1c-3.6-1.3-6.4-3.1-7.8-5.3c-0.9-1.4-0.8-4.3-0.8-6
					c0-0.2,0-0.5,0.1-0.7c0-0.1,0-0.1,0.1-0.2c0.1-0.4,0.3-0.7,0.5-1s0.4-0.5,0.6-0.7c3.2-3,11.8-4.9,23-5.6h0.1
					c1.1-0.1,2.2-0.1,3.4-0.2c0.9,0,1.8-0.1,2.7-0.1c0.6,0,1.2,0,1.8,0c1.5,0,3.1,0,4.7,0c0.3,0,0.6,0,0.9,0c0.6,0,1.3,0,1.9,0.1
					c0.3,0,0.6,0,0.9,0c0.6,0,1.2,0.1,1.8,0.1c17.1,0.9,30.2,4.3,31,9.3c0,0.2,0,0.4,0,0.5
					C10109.5,10609.1,10109.7,10612.4,10108.6,10613.8z"/>
				
					<ellipse id="Elipse_1317" transform="matrix(2.199376e-02 -0.9998 0.9998 2.199376e-02 -752.5293 20444.0391)" class="st4" cx="10073.1" cy="10606.7" rx="9.2" ry="36.8"/>
				<path id="Trazado_4858" class="st5" d="M10052.9,10619.7c-2.8-0.5-5.6-1.2-8.3-2.2c0.1-1,0.3-2.5,0.3-5c2.7,0.8,5.4,1.5,8.2,1.9
					C10053.1,10616.2,10053,10617.9,10052.9,10619.7z"/>
				<path id="Trazado_4859" class="st6" d="M10069.6,10621.3c-5.6-0.2-11.2-0.7-16.7-1.7c-0.2,0-0.4-0.1-0.6-0.1
					c0-1.1,0.3-3.1,0.4-5.2c5.8,1,11.7,1.6,17.6,1.8C10070.2,10617.9,10069.9,10619.6,10069.6,10621.3z"/>
			</g>
		</g>
		<g id="Grupo_23314" transform="translate(769.719 557.255)">
			<g id="Grupo_23310" transform="translate(0.227 11.138)">
				<g id="Grupo_23308" transform="translate(0 5.006)">
					<path id="Trazado_4860" class="st3" d="M10100.1,10620.9c-4.7,4.6-17.1,4.7-32.5,2.2c-0.9-0.2-1.9-0.3-2.8-0.5
						c-4.9-0.8-9.7-2-14.5-3.5c-0.2-0.1-0.3-0.1-0.5-0.2c-2.3-0.8-4.5-1.7-6.6-2.8c-3-1.6-5.2-3.5-6.2-5.6c-0.6-1.3-0.2-3.9,0-5.3
						c0-0.2,0.1-0.4,0.2-0.6c0-0.1,0-0.1,0.1-0.2c0.2-0.3,0.4-0.6,0.6-0.8c0.2-0.2,0.4-0.4,0.6-0.5c3.2-2.3,11-2.9,20.9-2h0.1
						c1,0.1,2,0.2,3,0.3c0.8,0.1,1.6,0.2,2.4,0.3c0.5,0.1,1.1,0.1,1.6,0.2c1.4,0.2,2.7,0.4,4.1,0.6c0.3,0,0.6,0.1,0.8,0.1
						c0.6,0.1,1.1,0.2,1.6,0.3c0.3,0,0.5,0.1,0.8,0.1c0.5,0.1,1.1,0.2,1.6,0.3c14.9,2.9,26,7.5,26.1,12c0,0.2,0,0.3,0,0.5
						C10101.5,10616.8,10101.2,10619.8,10100.1,10620.9z"/>
					
						<ellipse id="Elipse_1318" transform="matrix(0.1621 -0.9868 0.9868 0.1621 -2032.3394 18826.0039)" class="st4" cx="10069.2" cy="10609.7" rx="8.2" ry="32.7"/>
					<path id="Trazado_4861" class="st5" d="M10050.3,10619c-2.4-0.8-4.8-1.8-7.1-3c0.2-0.8,0.5-2.1,0.9-4.3c2.3,1.1,4.6,2,7,2.7
						C10050.9,10616,10050.7,10617.5,10050.3,10619z"/>
					<path id="Trazado_4862" class="st6" d="M10064.8,10622.6c-4.9-0.8-9.7-2-14.5-3.5c-0.2-0.1-0.3-0.1-0.5-0.2
						c0.1-1,0.6-2.7,1-4.5c5,1.6,10.1,2.8,15.2,3.8C10065.7,10619.7,10065.3,10621.1,10064.8,10622.6z"/>
				</g>
				<g id="Grupo_23309" transform="translate(0.811)">
					<path id="Trazado_4863" class="st3" d="M10100.1,10620.9c-4.7,4.6-17.1,4.7-32.5,2.2c-0.9-0.2-1.9-0.3-2.8-0.5
						c-4.9-0.8-9.7-2-14.5-3.5c-0.2-0.1-0.3-0.1-0.5-0.2c-2.3-0.8-4.5-1.7-6.6-2.8c-3-1.6-5.2-3.5-6.2-5.6c-0.6-1.3-0.2-3.9,0-5.3
						c0-0.2,0.1-0.4,0.2-0.6c0-0.1,0-0.1,0.1-0.2c0.2-0.3,0.4-0.6,0.6-0.8c0.2-0.2,0.4-0.4,0.6-0.5c3.2-2.3,11-2.9,20.9-2h0.1
						c1,0.1,2,0.2,3,0.3c0.8,0.1,1.6,0.2,2.4,0.3c0.5,0.1,1.1,0.1,1.6,0.2c1.4,0.2,2.7,0.4,4.1,0.6c0.3,0,0.6,0.1,0.8,0.1
						c0.6,0.1,1.1,0.2,1.6,0.3c0.3,0,0.5,0.1,0.8,0.1c0.5,0.1,1.1,0.2,1.6,0.3c14.9,2.9,26,7.5,26.1,12c0,0.2,0,0.3,0,0.5
						C10101.5,10616.8,10101.2,10619.8,10100.1,10620.9z"/>
					
						<ellipse id="Elipse_1319" transform="matrix(0.1621 -0.9868 0.9868 0.1621 -2032.3394 18826.0039)" class="st4" cx="10069.2" cy="10609.7" rx="8.2" ry="32.7"/>
					<path id="Trazado_4864" class="st5" d="M10050.3,10619c-2.4-0.8-4.8-1.8-7.1-3c0.2-0.8,0.5-2.1,0.9-4.3c2.3,1.1,4.6,2,7,2.7
						C10050.9,10616,10050.7,10617.5,10050.3,10619z"/>
					<path id="Trazado_4865" class="st6" d="M10064.8,10622.6c-4.9-0.8-9.7-2-14.5-3.5c-0.2-0.1-0.3-0.1-0.5-0.2
						c0.1-1,0.6-2.7,1-4.5c5,1.6,10.1,2.8,15.2,3.8C10065.7,10619.7,10065.3,10621.1,10064.8,10622.6z"/>
				</g>
			</g>
			<g id="Grupo_23313" transform="translate(0 0)">
				<g id="Grupo_23311" transform="translate(0 5.006)">
					<path id="Trazado_4866" class="st3" d="M10100.1,10620.9c-4.7,4.6-17.1,4.7-32.5,2.2c-0.9-0.2-1.9-0.3-2.8-0.5
						c-4.9-0.8-9.7-2-14.5-3.5c-0.2-0.1-0.3-0.1-0.5-0.2c-2.3-0.8-4.5-1.7-6.6-2.8c-3-1.6-5.2-3.5-6.2-5.6c-0.6-1.3-0.2-3.9,0-5.3
						c0-0.2,0.1-0.4,0.2-0.6c0-0.1,0-0.1,0.1-0.2c0.2-0.3,0.4-0.6,0.6-0.8c0.2-0.2,0.4-0.4,0.6-0.5c3.2-2.3,11-2.9,20.9-2h0.1
						c1,0.1,2,0.2,3,0.3c0.8,0.1,1.6,0.2,2.4,0.3c0.5,0.1,1.1,0.1,1.6,0.2c1.4,0.2,2.7,0.4,4.1,0.6c0.3,0,0.6,0.1,0.8,0.1
						c0.6,0.1,1.1,0.2,1.6,0.3c0.3,0,0.5,0.1,0.8,0.1c0.5,0.1,1.1,0.2,1.6,0.3c14.9,2.9,26,7.5,26.1,12c0,0.2,0,0.3,0,0.5
						C10101.5,10616.8,10101.2,10619.8,10100.1,10620.9z"/>
					
						<ellipse id="Elipse_1320" transform="matrix(0.1621 -0.9868 0.9868 0.1621 -2032.3394 18826.0039)" class="st4" cx="10069.2" cy="10609.7" rx="8.2" ry="32.7"/>
					<path id="Trazado_4867" class="st5" d="M10050.3,10619c-2.4-0.8-4.8-1.8-7.1-3c0.2-0.8,0.5-2.1,0.9-4.3c2.3,1.1,4.6,2,7,2.7
						C10050.9,10616,10050.7,10617.5,10050.3,10619z"/>
					<path id="Trazado_4868" class="st6" d="M10064.8,10622.6c-4.9-0.8-9.7-2-14.5-3.5c-0.2-0.1-0.3-0.1-0.5-0.2
						c0.1-1,0.6-2.7,1-4.5c5,1.6,10.1,2.8,15.2,3.8C10065.7,10619.7,10065.3,10621.1,10064.8,10622.6z"/>
				</g>
				<g id="Grupo_23312" transform="translate(0.811)">
					<path id="Trazado_4869" class="st3" d="M10100.1,10620.9c-4.7,4.6-17.1,4.7-32.5,2.2c-0.9-0.2-1.9-0.3-2.8-0.5
						c-4.9-0.8-9.7-2-14.5-3.5c-0.2-0.1-0.3-0.1-0.5-0.2c-2.3-0.8-4.5-1.7-6.6-2.8c-3-1.6-5.2-3.5-6.2-5.6c-0.6-1.3-0.2-3.9,0-5.3
						c0-0.2,0.1-0.4,0.2-0.6c0-0.1,0-0.1,0.1-0.2c0.2-0.3,0.4-0.6,0.6-0.8c0.2-0.2,0.4-0.4,0.6-0.5c3.2-2.3,11-2.9,20.9-2h0.1
						c1,0.1,2,0.2,3,0.3c0.8,0.1,1.6,0.2,2.4,0.3c0.5,0.1,1.1,0.1,1.6,0.2c1.4,0.2,2.7,0.4,4.1,0.6c0.3,0,0.6,0.1,0.8,0.1
						c0.6,0.1,1.1,0.2,1.6,0.3c0.3,0,0.5,0.1,0.8,0.1c0.5,0.1,1.1,0.2,1.6,0.3c14.9,2.9,26,7.5,26.1,12c0,0.2,0,0.3,0,0.5
						C10101.5,10616.8,10101.2,10619.8,10100.1,10620.9z"/>
					
						<ellipse id="Elipse_1321" transform="matrix(0.1621 -0.9868 0.9868 0.1621 -2032.3394 18826.0039)" class="st4" cx="10069.2" cy="10609.7" rx="8.2" ry="32.7"/>
					<path id="Trazado_4870" class="st5" d="M10050.3,10619c-2.4-0.8-4.8-1.8-7.1-3c0.2-0.8,0.5-2.1,0.9-4.3c2.3,1.1,4.6,2,7,2.7
						C10050.9,10616,10050.7,10617.5,10050.3,10619z"/>
					<path id="Trazado_4871" class="st6" d="M10064.8,10622.6c-4.9-0.8-9.7-2-14.5-3.5c-0.2-0.1-0.3-0.1-0.5-0.2
						c0.1-1,0.6-2.7,1-4.5c5,1.6,10.1,2.8,15.2,3.8C10065.7,10619.7,10065.3,10621.1,10064.8,10622.6z"/>
				</g>
			</g>
		</g>
		<g id="Grupo_23318" transform="translate(784.526 542.044)">
			<g id="Grupo_23315" transform="translate(0.773 10.759)">
				<path id="Trazado_4872" class="st3" d="M10100.1,10620.9c-4.7,4.6-17.1,4.7-32.5,2.2c-0.9-0.2-1.9-0.3-2.8-0.5
					c-4.9-0.8-9.7-2-14.5-3.5c-0.2-0.1-0.3-0.1-0.5-0.2c-2.3-0.8-4.5-1.7-6.6-2.8c-3-1.6-5.2-3.5-6.2-5.6c-0.6-1.3-0.2-3.9,0-5.3
					c0-0.2,0.1-0.4,0.2-0.6c0-0.1,0-0.1,0.1-0.2c0.2-0.3,0.4-0.6,0.6-0.8c0.2-0.2,0.4-0.4,0.6-0.5c3.2-2.3,11-2.9,20.9-2h0.1
					c1,0.1,2,0.2,3,0.3c0.8,0.1,1.6,0.2,2.4,0.3c0.5,0.1,1.1,0.1,1.6,0.2c1.4,0.2,2.7,0.4,4.1,0.6c0.3,0,0.6,0.1,0.8,0.1
					c0.6,0.1,1.1,0.2,1.6,0.3c0.3,0,0.5,0.1,0.8,0.1c0.5,0.1,1.1,0.2,1.6,0.3c14.9,2.9,26,7.5,26.1,12c0,0.2,0,0.3,0,0.5
					C10101.5,10616.8,10101.2,10619.8,10100.1,10620.9z"/>
				
					<ellipse id="Elipse_1322" transform="matrix(0.1621 -0.9868 0.9868 0.1621 -2032.3394 18826.0039)" class="st4" cx="10069.2" cy="10609.7" rx="8.2" ry="32.7"/>
				<path id="Trazado_4873" class="st5" d="M10050.3,10619c-2.4-0.8-4.8-1.8-7.1-3c0.2-0.8,0.5-2.1,0.9-4.3c2.3,1.1,4.6,2,7,2.7
					C10050.9,10616,10050.7,10617.5,10050.3,10619z"/>
				<path id="Trazado_4874" class="st6" d="M10064.8,10622.6c-4.9-0.8-9.7-2-14.5-3.5c-0.2-0.1-0.3-0.1-0.5-0.2c0.1-1,0.6-2.7,1-4.5
					c5,1.6,10.1,2.8,15.2,3.8C10065.7,10619.7,10065.3,10621.1,10064.8,10622.6z"/>
			</g>
			<g id="Grupo_23316" transform="translate(1.584 5.753)">
				<path id="Trazado_4875" class="st3" d="M10100.1,10620.9c-4.7,4.6-17.1,4.7-32.5,2.2c-0.9-0.2-1.9-0.3-2.8-0.5
					c-4.9-0.8-9.7-2-14.5-3.5c-0.2-0.1-0.3-0.1-0.5-0.2c-2.3-0.8-4.5-1.7-6.6-2.8c-3-1.6-5.2-3.5-6.2-5.6c-0.6-1.3-0.2-3.9,0-5.3
					c0-0.2,0.1-0.4,0.2-0.6c0-0.1,0-0.1,0.1-0.2c0.2-0.3,0.4-0.6,0.6-0.8c0.2-0.2,0.4-0.4,0.6-0.5c3.2-2.3,11-2.9,20.9-2h0.1
					c1,0.1,2,0.2,3,0.3c0.8,0.1,1.6,0.2,2.4,0.3c0.5,0.1,1.1,0.1,1.6,0.2c1.4,0.2,2.7,0.4,4.1,0.6c0.3,0,0.6,0.1,0.8,0.1
					c0.6,0.1,1.1,0.2,1.6,0.3c0.3,0,0.5,0.1,0.8,0.1c0.5,0.1,1.1,0.2,1.6,0.3c14.9,2.9,26,7.5,26.1,12c0,0.2,0,0.3,0,0.5
					C10101.5,10616.8,10101.2,10619.8,10100.1,10620.9z"/>
				
					<ellipse id="Elipse_1323" transform="matrix(0.1621 -0.9868 0.9868 0.1621 -2032.3394 18826.0039)" class="st4" cx="10069.2" cy="10609.7" rx="8.2" ry="32.7"/>
				<path id="Trazado_4876" class="st5" d="M10050.3,10619c-2.4-0.8-4.8-1.8-7.1-3c0.2-0.8,0.5-2.1,0.9-4.3c2.3,1.1,4.6,2,7,2.7
					C10050.9,10616,10050.7,10617.5,10050.3,10619z"/>
				<path id="Trazado_4877" class="st6" d="M10064.8,10622.6c-4.9-0.8-9.7-2-14.5-3.5c-0.2-0.1-0.3-0.1-0.5-0.2c0.1-1,0.6-2.7,1-4.5
					c5,1.6,10.1,2.8,15.2,3.8C10065.7,10619.7,10065.3,10621.1,10064.8,10622.6z"/>
			</g>
			<g id="Grupo_23317" transform="translate(0 0)">
				<path id="Trazado_4878" class="st3" d="M10100.1,10620.9c-4.7,4.6-17.1,4.7-32.5,2.2c-0.9-0.2-1.9-0.3-2.8-0.5
					c-4.9-0.8-9.7-2-14.5-3.5c-0.2-0.1-0.3-0.1-0.5-0.2c-2.3-0.8-4.5-1.7-6.6-2.8c-3-1.6-5.2-3.5-6.2-5.6c-0.6-1.3-0.2-3.9,0-5.3
					c0-0.2,0.1-0.4,0.2-0.6c0-0.1,0-0.1,0.1-0.2c0.2-0.3,0.4-0.6,0.6-0.8c0.2-0.2,0.4-0.4,0.6-0.5c3.2-2.3,11-2.9,20.9-2h0.1
					c1,0.1,2,0.2,3,0.3c0.8,0.1,1.6,0.2,2.4,0.3c0.5,0.1,1.1,0.1,1.6,0.2c1.4,0.2,2.7,0.4,4.1,0.6c0.3,0,0.6,0.1,0.8,0.1
					c0.6,0.1,1.1,0.2,1.6,0.3c0.3,0,0.5,0.1,0.8,0.1c0.5,0.1,1.1,0.2,1.6,0.3c14.9,2.9,26,7.5,26.1,12c0,0.2,0,0.3,0,0.5
					C10101.5,10616.8,10101.2,10619.8,10100.1,10620.9z"/>
				
					<ellipse id="Elipse_1324" transform="matrix(0.1621 -0.9868 0.9868 0.1621 -2032.3394 18826.0039)" class="st4" cx="10069.2" cy="10609.7" rx="8.2" ry="32.7"/>
				<path id="Trazado_4879" class="st5" d="M10050.3,10619c-2.4-0.8-4.8-1.8-7.1-3c0.2-0.8,0.5-2.1,0.9-4.3c2.3,1.1,4.6,2,7,2.7
					C10050.9,10616,10050.7,10617.5,10050.3,10619z"/>
				<path id="Trazado_4880" class="st6" d="M10064.8,10622.6c-4.9-0.8-9.7-2-14.5-3.5c-0.2-0.1-0.3-0.1-0.5-0.2c0.1-1,0.6-2.7,1-4.5
					c5,1.6,10.1,2.8,15.2,3.8C10065.7,10619.7,10065.3,10621.1,10064.8,10622.6z"/>
			</g>
		</g>
		<g id="Grupo_23320" transform="translate(800.516 548.063)" class="st1">
			<g id="Grupo_23319" transform="translate(4.162)">
				<path id="Trazado_4881" class="st2" d="M10042.8,10597c-0.9,0-1.8,0-2.6,0.2c-0.8,0.1-1.7,0.4-2.4,0.9c-0.4,0.2-0.7,0.5-1,0.8
					s-0.5,0.6-0.7,0.9c-0.2,0.4-0.3,0.7-0.4,1.2c-0.1,0.5-0.1,1,0.1,1.5c0.4,0.9,1,1.7,1.9,2.3c1.2,0.7,2.4,1.3,3.8,1.6
					c1.4,0.4,2.8,0.6,4.3,0.6c1.1,0,2.2-0.3,3.3-0.7c0.7-0.3,1.4-0.7,2-1.1c0.3-0.2,0.5-0.4,0.8-0.6c0.5-0.4,1.1-0.8,1.6-1.2
					l0.2-0.1c0.6-0.3,1.2-0.5,1.8-0.6c0.8-0.1,1.6,0,2.4,0.2c0.3,0.1,0.7,0.2,1,0.3l0,0c0.6,0.2,1.1,0.6,1.5,1.1
					c0.2,0.3,0.4,0.6,0.5,1c0,0.4,0,0.7-0.2,1.1c-0.2,0.4-0.6,0.8-1,1c-0.1,0-0.2,0.1-0.3,0.1c-0.5,0.2-1.1,0.3-1.7,0.3l0,0
					c-0.1,0-0.1,0-0.2,0c-0.8,0-1.7,0-2.5-0.1c-0.6-0.1-1.3-0.1-1.9,0c-0.4,0-0.7,0.2-0.9,0.5s-0.1,0.6,0.3,1c0.5,0.4,1,0.6,1.6,0.8
					c1.1,0.3,2.2,0.4,3.3,0.5c0.2,0,0.4,0,0.6,0c1.2,0,2.5-0.2,3.7-0.5c0.1,0,0.3-0.1,0.4-0.1c0.7-0.3,1.4-0.7,1.9-1.2
					c0.3-0.3,0.6-0.7,0.8-1.1c0.2-0.3,0.3-0.6,0.4-1c0.1-0.4,0.1-0.8,0-1.2l0,0c0-0.2-0.1-0.4-0.2-0.6c-0.3-0.6-0.7-1.2-1.2-1.6l0,0
					c-0.3-0.3-0.7-0.6-1.1-0.8c-0.8-0.5-1.8-1-2.7-1.3l0,0c-0.5-0.2-1-0.3-1.5-0.5c-0.7-0.2-1.3-0.3-1.9-0.4c-0.1,0-0.2,0-0.4-0.1
					c-0.5-0.1-1-0.1-1.5-0.1c-1-0.1-1.9,0-2.9,0.2c-0.8,0.2-1.6,0.5-2.4,0.9c-0.5,0.3-1,0.6-1.5,1c-0.2,0.2-0.5,0.3-0.7,0.5
					c-0.6,0.4-1,0.8-1.3,1c-0.1,0.1-0.3,0.2-0.4,0.2c-0.2,0.1-0.4,0.2-0.7,0.3c-0.4,0.2-0.9,0.2-1.3,0.3c-0.5,0-1,0-1.5-0.2
					c-0.8-0.2-1.5-0.6-2-1.2c-0.2-0.2-0.3-0.5-0.3-0.7c-0.1-0.4,0-0.7,0.2-1c0.2-0.4,0.6-0.8,1-1c0.2-0.1,0.4-0.2,0.6-0.2
					c0.9-0.2,1.9-0.2,2.9-0.1c0.6,0,1.2,0,1.8,0c0.3,0,0.6-0.2,0.8-0.5s0-0.6-0.4-1c-0.5-0.4-1-0.6-1.6-0.8
					C10044.4,10597.2,10043.6,10597,10042.8,10597z"/>
			</g>
			<path id="Trazado_4882" class="st2" d="M10072.7,10607.8l-0.7,1.3c-0.1,0.2-0.6,0.3-1.2,0.1l-34.5-9.2c-0.5-0.1-0.8-0.4-0.7-0.6
				l0.7-1.3c0.1-0.2,0.6-0.3,1.2-0.1l34.5,9.2C10072.5,10607.3,10072.9,10607.5,10072.7,10607.8z"/>
		</g>
		<g id="Grupo_23323" transform="translate(773.504 531.224)">
			<g id="Grupo_23321" transform="translate(0.776 5.012)">
				<path id="Trazado_4883" class="st3" d="M10101.8,10610.5c-3.1,5.8-14.8,9.8-30.2,12.1c-0.9,0.1-1.9,0.3-2.8,0.4
					c-4.9,0.7-9.9,1.1-14.9,1.1c-0.2,0-0.3,0-0.5,0c-2.4,0-4.8-0.2-7.1-0.6c-3.4-0.6-6-1.7-7.7-3.4c-1-1-1.4-3.6-1.6-5.1
					c0-0.2,0-0.4,0-0.6c0-0.1,0-0.1,0-0.2c0.1-0.3,0.2-0.7,0.3-1s0.3-0.5,0.4-0.7c2.3-3.1,9.6-6.1,19.2-8.4h0.1c1-0.2,1.9-0.4,3-0.7
					c0.8-0.2,1.6-0.3,2.3-0.5c0.5-0.1,1.1-0.2,1.6-0.3c1.3-0.2,2.7-0.5,4.1-0.7c0.3,0,0.6-0.1,0.8-0.1c0.6-0.1,1.1-0.2,1.7-0.2
					c0.3,0,0.5-0.1,0.8-0.1c0.5-0.1,1.1-0.1,1.6-0.2c15.1-1.8,27.1-0.9,28.5,3.4c0.1,0.2,0.1,0.3,0.1,0.5
					C10101.8,10606.2,10102.5,10609.1,10101.8,10610.5z"/>
				
					<ellipse id="Elipse_1325" transform="matrix(0.9886 -0.1508 0.1508 0.9886 -1484.9453 1639.7189)" class="st4" cx="10069.2" cy="10611" rx="32.7" ry="8.2"/>
				<path id="Trazado_4884" class="st5" d="M10053.8,10624.2c-2.6,0-5.1-0.2-7.6-0.6c-0.1-0.8-0.1-2.2-0.5-4.4
					c2.5,0.3,5,0.4,7.5,0.4C10053.5,10621.1,10053.7,10622.6,10053.8,10624.2z"/>
				<path id="Trazado_4885" class="st6" d="M10068.7,10623c-4.9,0.7-9.9,1.1-14.9,1.1c-0.2,0-0.3,0-0.5,0c-0.2-1-0.2-2.7-0.5-4.6
					c5.2-0.1,10.5-0.4,15.7-1.1C10068.7,10620,10068.8,10621.5,10068.7,10623z"/>
			</g>
			<g id="Grupo_23322">
				<path id="Trazado_4886" class="st3" d="M10101.8,10610.5c-3.1,5.8-14.8,9.8-30.2,12.1c-0.9,0.1-1.9,0.3-2.8,0.4
					c-4.9,0.7-9.9,1.1-14.9,1.1c-0.2,0-0.3,0-0.5,0c-2.4,0-4.8-0.2-7.1-0.6c-3.4-0.6-6-1.7-7.7-3.4c-1-1-1.4-3.6-1.6-5.1
					c0-0.2,0-0.4,0-0.6c0-0.1,0-0.1,0-0.2c0.1-0.3,0.2-0.7,0.3-1s0.3-0.5,0.4-0.7c2.3-3.1,9.6-6.1,19.2-8.4h0.1c1-0.2,1.9-0.4,3-0.7
					c0.8-0.2,1.6-0.3,2.3-0.5c0.5-0.1,1.1-0.2,1.6-0.3c1.3-0.2,2.7-0.5,4.1-0.7c0.3,0,0.6-0.1,0.8-0.1c0.6-0.1,1.1-0.2,1.7-0.2
					c0.3,0,0.5-0.1,0.8-0.1c0.5-0.1,1.1-0.1,1.6-0.2c15.1-1.8,27.1-0.9,28.5,3.4c0.1,0.2,0.1,0.3,0.1,0.5
					C10101.8,10606.2,10102.5,10609.1,10101.8,10610.5z"/>
				
					<ellipse id="Elipse_1326" transform="matrix(0.9886 -0.1508 0.1508 0.9886 -1484.9453 1639.7189)" class="st4" cx="10069.2" cy="10611" rx="32.7" ry="8.2"/>
				<path id="Trazado_4887" class="st5" d="M10053.8,10624.2c-2.6,0-5.1-0.2-7.6-0.6c-0.1-0.8-0.1-2.2-0.5-4.4
					c2.5,0.3,5,0.4,7.5,0.4C10053.5,10621.1,10053.7,10622.6,10053.8,10624.2z"/>
				<path id="Trazado_4888" class="st6" d="M10068.7,10623c-4.9,0.7-9.9,1.1-14.9,1.1c-0.2,0-0.3,0-0.5,0c-0.2-1-0.2-2.7-0.5-4.6
					c5.2,0,10.5-0.4,15.7-1.1C10068.7,10620,10068.8,10621.5,10068.7,10623z"/>
			</g>
		</g>
		<g id="Grupo_23326" transform="translate(769.845 520.702)">
			<g id="Grupo_23324" transform="translate(0.776 5.012)">
				<path id="Trazado_4889" class="st3" d="M10101.8,10610.5c-3.1,5.8-14.8,9.8-30.2,12.1c-0.9,0.1-1.9,0.3-2.8,0.4
					c-4.9,0.7-9.9,1.1-14.9,1.1c-0.2,0-0.3,0-0.5,0c-2.4,0-4.8-0.2-7.1-0.6c-3.4-0.6-6-1.7-7.7-3.4c-1-1-1.4-3.6-1.6-5.1
					c0-0.2,0-0.4,0-0.6c0-0.1,0-0.1,0-0.2c0.1-0.3,0.2-0.7,0.3-1s0.3-0.5,0.4-0.7c2.3-3.1,9.6-6.1,19.2-8.4h0.1c1-0.2,1.9-0.4,3-0.7
					c0.8-0.2,1.6-0.3,2.3-0.5c0.5-0.1,1.1-0.2,1.6-0.3c1.3-0.2,2.7-0.5,4.1-0.7c0.3,0,0.6-0.1,0.8-0.1c0.6-0.1,1.1-0.2,1.7-0.2
					c0.3,0,0.5-0.1,0.8-0.1c0.5-0.1,1.1-0.1,1.6-0.2c15.1-1.8,27.1-0.9,28.5,3.4c0.1,0.2,0.1,0.3,0.1,0.5
					C10101.8,10606.2,10102.5,10609.1,10101.8,10610.5z"/>
				
					<ellipse id="Elipse_1327" transform="matrix(0.9886 -0.1508 0.1508 0.9886 -1484.9453 1639.7189)" class="st4" cx="10069.2" cy="10611" rx="32.7" ry="8.2"/>
				<path id="Trazado_4890" class="st5" d="M10053.8,10624.2c-2.6,0-5.1-0.2-7.6-0.6c-0.1-0.8-0.1-2.2-0.5-4.4
					c2.5,0.3,5,0.4,7.5,0.4C10053.5,10621.1,10053.7,10622.6,10053.8,10624.2z"/>
				<path id="Trazado_4891" class="st6" d="M10068.7,10623c-4.9,0.7-9.9,1.1-14.9,1.1c-0.2,0-0.3,0-0.5,0c-0.2-1-0.2-2.7-0.5-4.6
					c5.2-0.1,10.5-0.4,15.7-1.1C10068.7,10620,10068.8,10621.5,10068.7,10623z"/>
			</g>
			<g id="Grupo_23325" transform="translate(0 0)">
				<path id="Trazado_4892" class="st3" d="M10101.7,10610.5c-3.1,5.8-14.8,9.8-30.2,12.1c-0.9,0.1-1.9,0.3-2.8,0.4
					c-4.9,0.7-9.9,1.1-14.9,1.1c-0.2,0-0.3,0-0.5,0c-2.4,0-4.8-0.2-7.1-0.6c-3.4-0.6-6-1.7-7.7-3.4c-1-1-1.4-3.6-1.6-5.1
					c0-0.2,0-0.4,0-0.6c0-0.1,0-0.1,0-0.2c0.1-0.3,0.2-0.7,0.3-1s0.3-0.5,0.4-0.7c2.3-3.1,9.6-6.1,19.2-8.4h0.1c1-0.2,1.9-0.4,3-0.7
					c0.8-0.2,1.5-0.3,2.3-0.5c0.5-0.1,1.1-0.2,1.6-0.3c1.3-0.2,2.7-0.5,4.1-0.7c0.3,0,0.6-0.1,0.8-0.1c0.6-0.1,1.1-0.2,1.7-0.2
					c0.3,0,0.5-0.1,0.8-0.1c0.5-0.1,1.1-0.1,1.6-0.2c15.1-1.8,27.1-0.9,28.5,3.4c0.1,0.2,0.1,0.3,0.1,0.5
					C10101.8,10606.2,10102.5,10609.1,10101.7,10610.5z"/>
				
					<ellipse id="Elipse_1328" transform="matrix(0.9886 -0.1508 0.1508 0.9886 -1484.9453 1639.7189)" class="st4" cx="10069.2" cy="10611" rx="32.7" ry="8.2"/>
				<path id="Trazado_4893" class="st5" d="M10053.8,10624.2c-2.6,0-5.1-0.2-7.6-0.6c-0.1-0.8-0.1-2.2-0.5-4.4
					c2.5,0.3,5,0.4,7.5,0.4C10053.5,10621.1,10053.7,10622.6,10053.8,10624.2z"/>
				<path id="Trazado_4894" class="st6" d="M10068.7,10623c-4.9,0.7-9.9,1.1-14.9,1.1c-0.2,0-0.3,0-0.5,0c-0.2-1-0.2-2.7-0.5-4.6
					c5.2-0.1,10.5-0.4,15.7-1.1C10068.7,10620,10068.8,10621.5,10068.7,10623z"/>
			</g>
		</g>
		<g id="Grupo_23334" transform="translate(772.763 503.668)">
			<g id="Grupo_23329" transform="translate(0 11.007)">
				<g id="Grupo_23327" transform="translate(0.012 5.231)">
					<path id="Trazado_4895" class="st3" d="M10102.5,10611c-4,5.5-16.7,7.7-32.7,7.7c-1,0-2,0-2.9,0c-5.1,0-10.3-0.4-15.3-1.2
						c-0.2,0-0.3-0.1-0.5-0.1c-2.4-0.4-4.8-1-7.2-1.7c-3.4-1.2-5.9-2.7-7.3-4.7c-0.8-1.2-0.9-3.9-0.9-5.4c0-0.2,0-0.4,0.1-0.6
						c0-0.1,0-0.1,0-0.2c0.1-0.3,0.3-0.7,0.5-1c0.2-0.2,0.4-0.5,0.6-0.7c2.9-2.8,10.7-4.8,20.9-5.6h0.1c1-0.1,2.1-0.1,3.1-0.2
						c0.8,0,1.6-0.1,2.5-0.1c0.6,0,1.1,0,1.7-0.1c1.4,0,2.8-0.1,4.3-0.1c0.3,0,0.6,0,0.9,0c0.6,0,1.2,0,1.7,0c0.3,0,0.6,0,0.9,0
						c0.6,0,1.1,0,1.7,0c15.6,0.5,27.8,3.3,28.6,7.9c0,0.2,0,0.3,0,0.5C10103.2,10606.6,10103.5,10609.7,10102.5,10611z"/>
					<ellipse id="Elipse_1329" class="st4" cx="10069.5" cy="10605.5" rx="33.8" ry="8.5"/>
					<path id="Trazado_4896" class="st5" d="M10051.5,10617.4c-2.6-0.4-5.2-1-7.7-1.8c0.1-0.9,0.2-2.3,0.2-4.6
						c2.5,0.7,5,1.2,7.6,1.6C10051.7,10614.2,10051.6,10615.8,10051.5,10617.4z"/>
					<path id="Trazado_4897" class="st6" d="M10066.8,10618.6c-5.1,0-10.3-0.4-15.3-1.2c-0.2,0-0.3-0.1-0.5-0.1c0-1,0.2-2.8,0.2-4.8
						c5.4,0.8,10.7,1.2,16.2,1.3C10067.3,10615.5,10067.2,10617.1,10066.8,10618.6z"/>
				</g>
				<g id="Grupo_23328">
					<path id="Trazado_4898" class="st3" d="M10102.5,10611c-4,5.5-16.7,7.7-32.7,7.7c-1,0-2,0-2.9,0c-5.1,0-10.3-0.4-15.3-1.2
						c-0.2,0-0.3-0.1-0.5-0.1c-2.4-0.4-4.8-1-7.2-1.7c-3.4-1.2-5.9-2.7-7.3-4.7c-0.8-1.2-0.9-3.9-0.9-5.4c0-0.2,0-0.4,0.1-0.6
						c0-0.1,0-0.1,0-0.2c0.1-0.3,0.3-0.7,0.5-1c0.2-0.2,0.4-0.5,0.6-0.7c2.9-2.8,10.7-4.8,20.9-5.6h0.1c1-0.1,2.1-0.1,3.1-0.2
						c0.8,0,1.6-0.1,2.5-0.1c0.6,0,1.1,0,1.7-0.1c1.4,0,2.8-0.1,4.3-0.1c0.3,0,0.6,0,0.9,0c0.6,0,1.2,0,1.7,0c0.3,0,0.6,0,0.9,0
						c0.6,0,1.1,0,1.7,0c15.6,0.5,27.8,3.3,28.6,7.9c0,0.2,0,0.3,0,0.5C10103.2,10606.6,10103.5,10609.7,10102.5,10611z"/>
					<ellipse id="Elipse_1330" class="st4" cx="10069.5" cy="10605.5" rx="33.8" ry="8.5"/>
					<path id="Trazado_4899" class="st5" d="M10051.5,10617.4c-2.6-0.4-5.2-1-7.7-1.8c0.1-0.9,0.2-2.3,0.2-4.6
						c2.5,0.7,5,1.2,7.6,1.6C10051.7,10614.2,10051.6,10615.8,10051.5,10617.4z"/>
					<path id="Trazado_4900" class="st6" d="M10066.8,10618.6c-5.1,0-10.3-0.4-15.3-1.2c-0.2,0-0.3-0.1-0.5-0.1c0-1,0.2-2.8,0.2-4.8
						c5.4,0.8,10.7,1.2,16.2,1.3C10067.3,10615.5,10067.2,10617.1,10066.8,10618.6z"/>
				</g>
			</g>
			<g id="Grupo_23332" transform="translate(0)">
				<g id="Grupo_23330" transform="translate(0.012 5.231)">
					<path id="Trazado_4901" class="st3" d="M10102.5,10611c-4,5.5-16.7,7.7-32.7,7.7c-1,0-2,0-2.9,0c-5.1,0-10.3-0.4-15.3-1.2
						c-0.2,0-0.3-0.1-0.5-0.1c-2.4-0.4-4.8-1-7.2-1.7c-3.4-1.2-5.9-2.7-7.3-4.7c-0.8-1.2-0.9-3.9-0.9-5.4c0-0.2,0-0.4,0.1-0.6
						c0-0.1,0-0.1,0-0.2c0.1-0.3,0.3-0.7,0.5-1c0.2-0.2,0.4-0.5,0.6-0.7c2.9-2.8,10.7-4.8,20.9-5.6h0.1c1-0.1,2.1-0.1,3.1-0.2
						c0.8,0,1.6-0.1,2.5-0.1c0.6,0,1.1,0,1.7-0.1c1.4,0,2.8-0.1,4.3-0.1c0.3,0,0.6,0,0.9,0c0.6,0,1.2,0,1.7,0c0.3,0,0.6,0,0.9,0
						c0.6,0,1.1,0,1.7,0c15.6,0.5,27.8,3.3,28.6,7.9c0,0.2,0,0.3,0,0.5C10103.2,10606.6,10103.5,10609.7,10102.5,10611z"/>
					<ellipse id="Elipse_1331" class="st4" cx="10069.5" cy="10605.5" rx="33.8" ry="8.5"/>
					<path id="Trazado_4902" class="st5" d="M10051.5,10617.4c-2.6-0.4-5.2-1-7.7-1.8c0.1-0.9,0.2-2.3,0.2-4.6
						c2.5,0.7,5,1.2,7.6,1.6C10051.7,10614.2,10051.6,10615.8,10051.5,10617.4z"/>
					<path id="Trazado_4903" class="st6" d="M10066.8,10618.6c-5.1,0-10.3-0.4-15.3-1.2c-0.2,0-0.3-0.1-0.5-0.1c0-1,0.2-2.8,0.2-4.8
						c5.4,0.8,10.7,1.2,16.2,1.3C10067.3,10615.5,10067.2,10617.1,10066.8,10618.6z"/>
				</g>
				<g id="Grupo_23331">
					<path id="Trazado_4904" class="st3" d="M10102.5,10611c-4,5.5-16.7,7.7-32.7,7.7c-1,0-2,0-2.9,0c-5.1,0-10.3-0.4-15.3-1.2
						c-0.2,0-0.3-0.1-0.5-0.1c-2.4-0.4-4.8-1-7.2-1.7c-3.4-1.2-5.9-2.7-7.3-4.7c-0.8-1.2-0.9-3.9-0.9-5.4c0-0.2,0-0.4,0.1-0.6
						c0-0.1,0-0.1,0-0.2c0.1-0.3,0.3-0.7,0.5-1c0.2-0.2,0.4-0.5,0.6-0.7c2.9-2.8,10.7-4.8,20.9-5.6h0.1c1-0.1,2.1-0.1,3.1-0.2
						c0.8,0,1.6-0.1,2.5-0.1c0.6,0,1.1,0,1.7-0.1c1.4,0,2.8-0.1,4.3-0.1c0.3,0,0.6,0,0.9,0c0.6,0,1.2,0,1.7,0c0.3,0,0.6,0,0.9,0
						c0.6,0,1.1,0,1.7,0c15.6,0.5,27.8,3.3,28.6,7.9c0,0.2,0,0.3,0,0.5C10103.2,10606.6,10103.5,10609.7,10102.5,10611z"/>
					<ellipse id="Elipse_1332" class="st4" cx="10069.5" cy="10605.5" rx="33.8" ry="8.5"/>
					<path id="Trazado_4905" class="st5" d="M10051.5,10617.4c-2.6-0.4-5.2-1-7.7-1.8c0.1-0.9,0.2-2.3,0.2-4.6
						c2.5,0.7,5,1.2,7.6,1.6C10051.7,10614.2,10051.6,10615.8,10051.5,10617.4z"/>
					<path id="Trazado_4906" class="st6" d="M10066.8,10618.6c-5.1,0-10.3-0.4-15.3-1.2c-0.2,0-0.3-0.1-0.5-0.1c0-1,0.2-2.8,0.2-4.8
						c5.4,0.8,10.7,1.2,16.2,1.3C10067.3,10615.5,10067.2,10617.1,10066.8,10618.6z"/>
				</g>
			</g>
			<g id="Grupo_23333" transform="translate(17.176 2.566)">
				<path id="Trazado_4907" class="st2" d="M10042.5,10597.5c-1,0.2-1.9,0.5-2.9,0.9c-0.9,0.4-1.7,0.9-2.4,1.6
					c-0.4,0.3-0.7,0.7-0.9,1.1c-0.2,0.4-0.4,0.8-0.5,1.2c-0.1,0.5-0.2,0.9-0.2,1.4c0,0.6,0.2,1.1,0.5,1.6c0.7,1,1.6,1.7,2.7,2
					c1.5,0.5,3.1,0.8,4.6,0.8c1.7,0.1,3.3-0.1,4.9-0.5c1.2-0.3,2.4-0.9,3.5-1.6c0.7-0.5,1.4-1.1,2-1.8c0.2-0.3,0.5-0.5,0.7-0.8
					c0.5-0.6,1-1.2,1.5-1.7c0.1-0.1,0.1-0.1,0.2-0.1c0.5-0.5,1.2-0.9,1.9-1.1c0.9-0.3,1.8-0.4,2.8-0.4c0.4,0,0.8,0,1.2,0.1l0,0
					c0.7,0.1,1.4,0.4,2,0.8c0.3,0.2,0.6,0.6,0.8,1c0.1,0.4,0.2,0.8,0,1.2c-0.1,0.5-0.4,1-0.8,1.3c-0.1,0.1-0.2,0.2-0.3,0.2
					c-0.5,0.4-1.1,0.6-1.8,0.8l0,0c-0.1,0-0.1,0-0.2,0.1c-0.9,0.2-1.8,0.4-2.8,0.5c-0.7,0.1-1.5,0.3-2.1,0.5
					c-0.5,0.2-0.8,0.5-0.9,0.8c-0.1,0.4,0.1,0.7,0.6,1c0.6,0.3,1.3,0.4,2,0.4c1.3,0,2.6-0.1,3.8-0.4c0.2,0,0.4-0.1,0.6-0.1
					c1.4-0.3,2.7-0.8,4-1.6c0.1-0.1,0.3-0.2,0.4-0.3c0.7-0.5,1.3-1.1,1.8-1.9c0.3-0.4,0.5-0.9,0.6-1.4c0.1-0.4,0.2-0.8,0.2-1.2
					c0-0.5-0.1-0.9-0.3-1.4l0,0c-0.1-0.2-0.2-0.4-0.4-0.6c-0.5-0.6-1.1-1.1-1.7-1.5l0,0c-0.5-0.3-0.9-0.5-1.4-0.6
					c-1.1-0.4-2.2-0.6-3.3-0.7l0,0c-0.6-0.1-1.2-0.1-1.8-0.1c-0.8,0-1.5,0-2.2,0c-0.1,0-0.3,0-0.4,0c-0.6,0-1.1,0.1-1.7,0.2
					c-1.1,0.2-2.1,0.5-3.1,1c-0.9,0.4-1.7,1-2.4,1.7c-0.5,0.4-0.9,0.9-1.4,1.5c-0.2,0.2-0.4,0.5-0.6,0.8c-0.5,0.7-1,1.1-1.2,1.4
					c-0.1,0.1-0.2,0.2-0.4,0.4s-0.4,0.3-0.7,0.5c-0.4,0.3-0.9,0.5-1.4,0.6c-0.6,0.2-1.2,0.2-1.8,0.2c-0.9,0-1.8-0.3-2.5-0.8
					c-0.2-0.2-0.4-0.4-0.6-0.7c-0.2-0.4-0.2-0.8-0.1-1.2c0.1-0.5,0.4-1,0.9-1.4c0.2-0.2,0.4-0.3,0.7-0.4c1-0.4,2.1-0.7,3.2-0.9
					c0.7-0.1,1.4-0.3,2-0.5c0.4-0.1,0.7-0.4,0.8-0.8c0.1-0.4-0.1-0.7-0.7-1c-0.6-0.3-1.3-0.4-2-0.4
					C10044.4,10597.2,10043.4,10597.3,10042.5,10597.5z"/>
			</g>
			<path id="Trazado_4908" class="st2" d="M10091.2,10605.2l-0.4,1.6c-0.1,0.3-0.6,0.5-1.2,0.5l-40.7-1.1c-0.6,0-1-0.3-1-0.5
				l0.4-1.6c0.1-0.3,0.6-0.5,1.2-0.5l40.7,1.1C10090.8,10604.7,10091.2,10604.9,10091.2,10605.2z"/>
		</g>
		<path id="Trazado_4909" class="st7" d="M10793.4,11093.8c-10.1-1.2-11.5-4.7-13.4-15.5c-1.3,10.2-3,14.1-13.3,15.3
			c9,2.9,12.1,4,13.7,15.8C10782.6,11097.4,10784.6,11096.4,10793.4,11093.8z"/>
		<path id="Trazado_4910" class="st7" d="M10895.9,11171.8c-10.1-1.2-11.6-4.7-13.4-15.5c-1.3,10.2-3,14.1-13.3,15.3
			c9,2.9,12.1,4,13.7,15.8C10885.2,11175.4,10887.1,11174.3,10895.9,11171.8z"/>
		<path id="Trazado_4911" class="st8" d="M10760.3,11020.1l-7.9,5.2c-1.1-1.5-2.5-2.7-4.1-3.7c-8.4-5.4-22.9-6.3-22.3-8.9
			c0.5-2.2,11.2-2.9,17.7-1.4s8.9-3.1,10.3-2.3s0.7,2.2,0.7,3.8c0.1,0.8,0.4,1.6,0.9,2.2
			C10757,11016.8,10758.5,11018.6,10760.3,11020.1z"/>
		<path id="Trazado_4912" class="st8" d="M10921.6,11021.4c-1,0.8-1.9,1.7-2.6,2.7l-7.9-5.2c1.3-1.2,2.6-2.4,3.7-3.8
			c0.9-1,1.6-2.2,1.8-3.5c0.1-1.6-0.6-2.9,0.7-3.8s3.8,3.8,10.3,2.3s17.2-0.8,17.7,1.4C10946,11014.2,10929.7,11015,10921.6,11021.4
			z"/>
		<path id="Trazado_4913" class="st9" d="M10919,11131.8L10919,11131.8c-46.1,5.8-170.5-1.8-179.5-2.8c-11.2-1.3-1.7-7.5,14.1-36.6
			c1.9-3.6,4-7,6.5-10.2c3.5-4.4,155.7,3.2,155.7,3.2s9.9,17.9,17.8,34.2c0.6,1.2,1.2,2.5,1.7,3.7c0.2,0.4,0.4,0.8,0.5,1.2
			c0.1,0.3,0.2,0.6,0.2,0.9C10936.2,11128.4,10929.7,11130.4,10919,11131.8z"/>
		<path id="Trazado_4914" class="st10" d="M10926.7,11116.7c0,2.4-42.5,5.1-91.4,5.1s-88.6-1.9-88.6-4.3s39.7-4.3,88.6-4.3
			S10926.7,11114.4,10926.7,11116.7z"/>
		<g id="Grupo_23335" transform="translate(712.609 472.658)">
			<path id="Trazado_4915" class="st11" d="M10122.7,10603c27.6-1.3,42.6,1.4,54.9-1c12.3-2.4,31.6-6.9,36.3,2.4
				c6.2,12.3,3.6,19.6-16.3,29.2c-24.8,12-51.7,15.6-80,13.8s-38.9-1.2-60.2-9.8c-37.4-15.2-19-41.9,0.2-40.5
				C10075.9,10598.4,10098.9,10604.1,10122.7,10603z"/>
			<path id="Trazado_4916" class="st12" d="M10094.1,10625.9c6.9,2.2,9.7,2.3,15.1,3.1c29.4,9.7,44.1,8,40.1,4.2s-6.4-1-15.6-2.2
				C10122.8,10629.5,10096.5,10624.9,10094.1,10625.9z"/>
			<path id="Trazado_4917" class="st8" d="M10103.2,10628.1c14.8,1.6,29.7,7.2,35.2,6.3s6.3-5.9,16.4,2.5
				c11.7,9.8,20.8,11.3,16.2,14c-9.2,5.3-17.4-5.2-29.7-4.6s-33,0.2-39.7-0.1S10099.5,10627.7,10103.2,10628.1z"/>
			<path id="Trazado_4918" class="st12" d="M10098.9,10620.9c6.4,0.2,36.9,1.6,42.8,0.7s23.8-7.8,35.8-7.5
				c-11.3-7.9-19.9-1.7-24.9-0.2c-7.8,2.3-19.2,1.3-31.1,0.7c-11.1-0.5-29.5,0.5-37.8-1.5s-11.2-3-17.6,1.2
				c5.3,1.4,15.5,5.3,15.5,5.3L10098.9,10620.9z"/>
			<path id="Trazado_4919" class="st8" d="M10088.6,10623.7c2.8,1.2,4.2,1.6,5.5,2.2c1.8-3.8,7.9-4.8,0-5.5
				c-7.9-0.8-13.7-2-12.5-0.8C10082.9,10620.8,10088.6,10623.7,10088.6,10623.7z"/>
		</g>
		<path id="Trazado_4920" class="st13" d="M10922.6,11022.6c0,0-6.3,9-14,18.6c-8.8,10.9-19.4,22.5-25,22.5
			c-5.1,0-15.9-14.2-23.1-29.1c-2.2,4.4-5.4,8.6-5,17.4c0.5,10.5,10.1,18.5,6.8,24.9c-2,3.9-14.4,5.5-27.2,5.8
			c-12.8-0.3-25.3-3.1-27.3-7c-3.3-6.4,6.3-13.2,6.8-23.7c0.4-8.7-2.8-13-5-17.4c-7.2,14.9-17.9,29.1-23.1,29.1
			c-3,0-7.6-3.4-12.5-8.3c-12.1-12-26.5-32.8-26.5-32.8s0.3-0.4,0.9-1.1c1.6-1.8,5-5.4,7.2-6.5c0.9-0.4,1.6-0.5,2,0.1
			c2.1,3.3,10.6,16.1,17.8,24.4c4.6,5.3,8.7,8.8,10.1,6.6c12-18,10.5-33.6,24-47.4c3.4-3.5,15.5-7.3,25.7-7.3s21.9,4.4,25.3,7.9
			c12.1,12.5,11.9,28.8,24,46.8c2.2,3.2,9.9-5.7,16.7-14.9c5.1-6.8,9.7-13.8,11.2-16.1c0.4-0.7,1.3-0.5,2.4,0.1
			c2.2,1.3,5.2,4.5,6.8,6.2C10922.2,11022.1,10922.6,11022.6,10922.6,11022.6z"/>
		<path id="Trazado_4921" class="st14" d="M10827.2,10980.3c1.8,8,1.3,9.1,0,11.3s-5,1.1-4.9,3.7c0.1,2.1,4.3,8.1,12.3,8.1
			c8.3,0,11.4-12.1,11.4-12.1s-9-10.4-13-18.9S10827.2,10980.3,10827.2,10980.3z"/>
		<path id="Trazado_4922" class="st12" d="M10828.2,10989.2c0.2-1.8,0.1-3.7-0.3-5.5c0.4-0.4,0.8-0.6,1.3-0.8c1-0.1,1.9-0.5,2.6-1.1
			c0.7-0.8,1.9-1,2.7-0.3c0.4,0.4,0.7,0.9,0.7,1.5C10835.4,10983.8,10831.6,10989.4,10828.2,10989.2z"/>
		<path id="Trazado_4923" class="st14" d="M10821.4,10962.6c-2.2,6.9-5.8,10-3.3,10.6c1.9,0.5-2.3,14.7,4.8,12.8
			c7-1.9,12.9-5.5,13.4-13.1s0.9-12,0.9-12L10821.4,10962.6z"/>
		<path id="Trazado_4924" class="st15" d="M10820.2,10964c2.5,3.4,6,4.7,7.5,6c1.1,0.7,2.5,0.4,3.3-0.7c0.5-1.1,2.1-1.4,3.8-0.7
			c2,0.9,0.3,3.4-0.5,5c-0.6,1.2,1.4,2.9,0.7,4c-1.3,2.3-3.5,10,6,16.4c3.2,2.1-3.3,7-3.8,13s4.9,12.9,12.4,13.5
			c6.9,0.6-3.7-11,2.6-12.4c12.7-2.7,4.6-8,4.6-11.8c0-2.8,4-4.5,6-8.5c2.3-4.4,2.5-9.6,0.8-14.2c-2.6-7.5-6.2-6-9.9-7.3
			c-3.6-1.3-6.5-18.2-19.5-16.1c-9,1.5-12.5,6-13.8,8.7C10820,10960.1,10819.5,10963,10820.2,10964z"/>
		<path id="Trazado_4925" class="st16" d="M10824.6,11054c-2.3,4.9-14,14.4-16.5,14.8c1.9-4.6,6.2-9.9,6.5-16.8
			c0.4-8.7-2.8-13-5-17.4C10815.7,11041.6,10826.9,11049.1,10824.6,11054z"/>
		<path id="Trazado_4926" class="st16" d="M10855.5,11052c0.2,2.7,0.8,5.4,1.9,7.9c-0.6-0.4-1.3-0.7-1.9-1.2
			c-4-2.7-10.4-14.4-9.4-16.2c0.9-1.8,7.9,3.2,14.5-7.9C10858.3,11039,10855.1,11043.2,10855.5,11052z"/>
		<path id="Trazado_4927" class="st10" d="M10919,11131.8L10919,11131.8c0,0,12.8-14.1,14.5-12.2c0.8,1.1,1.3,2.4,1.7,3.7
			c0.3,0.7,0.5,1.4,0.8,2.1C10936.2,11128.4,10929.7,11130.4,10919,11131.8z"/>
		<path id="Trazado_4928" class="st16" d="M10861.3,11032.8c0.4-3.4-0.3-6.8-2.1-9.7c-2.5-3.9-2.4-5.7-2.3-6.1
			c1.4,3.6,7.1,12.8,7.2,16.6c0.1,2.6,0.1,5.2,0,7.8l-3.6-6.9C10860.8,11034,10861.1,11033.4,10861.3,11032.8z"/>
		<g id="Grupo_23340" transform="translate(865.843 581.15)">
			<path id="Trazado_4929" class="st17" d="M10104.5,10614.1c0,5.8-16.2,12.6-35,12.6s-33.9-4.7-33.9-10.5s15.2-10.5,33.9-10.5
				S10104.5,10608.3,10104.5,10614.1z"/>
			<g id="Grupo_23339" transform="translate(0.748)">
				<g id="Grupo_23336">
					<path id="Trazado_4930" class="st3" d="M10100.4,10614.2c-4,6.6-16.2,9.1-31.7,9c-1,0-1.9,0-2.8,0c-5-0.1-10-0.6-14.9-1.5
						c-0.2,0-0.3-0.1-0.5-0.1c-2.4-0.5-4.7-1.2-6.9-2.1c-3.2-1.4-5.7-3.3-7-5.7c-0.8-1.5-0.8-4.7-0.8-6.6c0-0.3,0-0.5,0.1-0.8
						c0-0.1,0-0.1,0-0.2c0.1-0.4,0.3-0.8,0.5-1.2c0.2-0.3,0.3-0.5,0.5-0.8c2.8-3.4,10.4-5.7,20.3-6.6h0.1c1-0.1,2-0.2,3-0.2
						c0.8,0,1.6-0.1,2.4-0.1c0.5,0,1.1,0,1.6-0.1c1.4,0,2.8-0.1,4.2,0c0.3,0,0.6,0,0.8,0c0.6,0,1.1,0,1.7,0c0.3,0,0.6,0,0.8,0
						c0.6,0,1.1,0,1.6,0.1c15.2,0.7,26.9,4.1,27.6,9.7c0,0.2,0,0.4,0,0.6C10101.2,10608.9,10101.4,10612.6,10100.4,10614.2z"/>
					
						<ellipse id="Elipse_1333" transform="matrix(5.999784e-03 -1 1 5.999784e-03 -598.7454 20612.0098)" class="st4" cx="10068.7" cy="10607.2" rx="10.2" ry="32.7"/>
					<path id="Trazado_4931" class="st5" d="M10051,10621.7c-2.5-0.5-5-1.2-7.4-2.2c0.1-1.1,0.2-2.7,0.2-5.5c2.4,0.8,4.8,1.5,7.3,2
						C10051.2,10617.8,10051.1,10619.8,10051,10621.7z"/>
					<path id="Trazado_4932" class="st6" d="M10065.8,10623.2c-5-0.1-10-0.6-14.9-1.5c-0.2,0-0.3-0.1-0.5-0.1c0-1.2,0.2-3.4,0.2-5.7
						c5.2,0.9,10.4,1.5,15.6,1.7C10066.4,10619.4,10066.2,10621.3,10065.8,10623.2z"/>
				</g>
				<g id="Grupo_23338" transform="translate(11.93 3.955)">
					<g id="Grupo_23337" transform="translate(2.636)">
						<path id="Trazado_4933" class="st18" d="M10050,10597.1c-1.2,0.1-2.4,0.3-3.6,0.7c-1.3,0.4-2.7,0.8-3.9,1.4
							c-0.7,0.3-1.4,0.7-2,1.1c-0.6,0.4-1.2,0.7-1.7,1.2c-0.6,0.4-1.1,0.9-1.6,1.4s-0.9,1-1.3,1.7c-0.5,0.7-0.3,1.7,0.3,2.2
							c1,0.7,2.2,1.1,3.4,1.2c1.7,0.2,3.4,0.2,5-0.1c1.7-0.3,3.3-0.7,4.9-1.3c1.2-0.5,2.4-1,3.7-1.6c0.5-0.2,1-0.5,1.5-0.8
							c1.2-0.7,2.3-1.2,3.2-1.6l0.3-0.1c0.9-0.4,1.9-0.7,2.9-1c1-0.2,2-0.3,2.9-0.2c0.3,0,0.7,0.1,1,0.2l0,0c0.6,0.2,0.9,0.5,1,1
							c0,0.4-0.1,0.7-0.3,1c-0.4,0.5-0.8,0.9-1.3,1.2c-0.7,0.5-1.4,0.9-2.2,1.3c-0.2,0.1-0.3,0.1-0.5,0.2c-0.8,0.3-1.6,0.5-2.5,0.7
							l0,0c-0.1,0-0.2,0-0.3,0c-0.9,0.1-1.9,0.2-3.1,0.3c-0.8,0-1.7,0.1-2.5,0.3c-0.6,0.1-1.1,0.4-1.6,0.7c-0.5,0.4-0.7,0.7-0.5,1
							s0.6,0.5,1.3,0.6c1.3,0.1,2.6,0.1,3.9-0.1c0.2,0,0.5-0.1,0.7-0.1c1.8-0.2,3.6-0.6,5.3-1.2c0.2-0.1,0.4-0.2,0.7-0.2
							c1.3-0.5,2.5-1,3.6-1.7c0.7-0.4,1.4-0.9,2.1-1.4c0.5-0.4,0.9-0.7,1.4-1.1c0.5-0.4,0.9-0.9,1.2-1.4l0,0
							c0.1-0.2,0.2-0.4,0.3-0.7c0.2-0.5,0.2-1.1,0-1.6l0,0c-0.2-0.3-0.4-0.5-0.6-0.7c-0.7-0.5-1.5-0.8-2.3-1l0,0
							c-0.5-0.1-1-0.2-1.5-0.3c-0.7-0.1-1.4-0.1-2.1-0.1c-0.1,0-0.3,0-0.4,0c-0.6,0-1.2,0-1.7,0.1c-1.3,0.1-2.7,0.4-4,0.8
							c-1.3,0.4-2.7,0.9-3.9,1.5c-0.9,0.4-1.8,0.9-2.8,1.3c-0.5,0.2-0.9,0.5-1.4,0.7c-1.2,0.6-2.1,1-2.6,1.3
							c-0.2,0.1-0.5,0.2-0.7,0.3c-0.3,0.1-0.7,0.3-1.1,0.4c-0.6,0.2-1.3,0.4-2,0.5c-0.6,0.1-1.2,0.1-1.8,0.1c-0.9-0.1-1.4-0.4-1.5-1
							c0-0.3,0.1-0.5,0.2-0.8c0.3-0.5,0.7-0.9,1.2-1.2c0.7-0.5,1.5-1,2.3-1.3c0.3-0.1,0.7-0.3,1-0.3c1.3-0.3,2.5-0.5,3.8-0.6
							c0.8-0.1,1.6-0.2,2.4-0.4c0.6-0.1,1.1-0.4,1.5-0.7c0.5-0.4,0.6-0.7,0.4-1c-0.4-0.4-0.9-0.6-1.4-0.6
							C10051.9,10597,10051,10597,10050,10597.1z"/>
					</g>
					<path id="Trazado_4934" class="st18" d="M10075.9,10604.8l-2.1,1.5c-0.5,0.3-1.1,0.4-1.6,0.4l-36-4.4c-0.5-0.1-0.7-0.3-0.3-0.6
						l2.1-1.5c0.5-0.3,1.1-0.4,1.6-0.4l36,4.4C10076.1,10604.3,10076.3,10604.5,10075.9,10604.8z"/>
				</g>
			</g>
		</g>
		<path id="Trazado_4935" class="st19" d="M10774,11055.4c-12.1-12-26.5-32.8-26.5-32.8s0.3-0.4,0.9-1.1c-8.4-5.4-22.9-6.3-22.3-8.9
			c0.5-2.2,11.2-2.9,17.7-1.4s8.9-3.1,10.3-2.3s0.7,2.2,0.7,3.8c0.1,0.8,0.4,1.6,0.9,2.2c0.9-0.4,1.6-0.5,2,0.1
			c2.1,3.3,10.6,16.1,17.8,24.4C10775.6,11044.8,10775.1,11050.2,10774,11055.4z"/>
		<g id="Grupo_23345" transform="translate(707.489 569.148)">
			<path id="Trazado_4936" class="st17" d="M10082.7,10608.7c0,4-11.1,8.6-23.9,8.6s-23.2-3.2-23.2-7.2s10.4-7.2,23.2-7.2
				S10082.7,10604.7,10082.7,10608.7z"/>
			<g id="Grupo_23344" transform="translate(0.511)">
				<g id="Grupo_23341">
					<path id="Trazado_4937" class="st3" d="M10079.9,10608.7c-2.7,4.5-11.1,6.2-21.7,6.2c-0.7,0-1.3,0-1.9,0
						c-3.4-0.1-6.8-0.4-10.2-1c-0.1,0-0.2,0-0.3-0.1c-1.6-0.3-3.2-0.8-4.7-1.5c-2-0.7-3.7-2.1-4.8-3.9c-0.6-1-0.5-3.2-0.5-4.5
						c0-0.2,0-0.4,0.1-0.5v-0.1c0.1-0.3,0.2-0.5,0.3-0.8c0.1-0.2,0.2-0.4,0.4-0.5c1.9-2.3,7.1-3.9,13.9-4.5c0,0,0,0,0.1,0
						c0.7-0.1,1.4-0.1,2.1-0.2c0.5,0,1.1-0.1,1.6-0.1c0.4,0,0.7,0,1.1,0c0.9,0,1.9,0,2.8,0c0.2,0,0.4,0,0.6,0c0.4,0,0.8,0,1.1,0
						c0.2,0,0.4,0,0.6,0c0.4,0,0.7,0,1.1,0c10.4,0.5,18.4,2.8,18.9,6.6c0,0.1,0,0.3,0,0.4
						C10080.5,10605.1,10080.6,10607.7,10079.9,10608.7z"/>
					
						<ellipse id="Elipse_1334" transform="matrix(5.864146e-03 -1 1 5.864146e-03 -604.4634 20599.8164)" class="st4" cx="10058.3" cy="10603.9" rx="7" ry="22.4"/>
					<path id="Trazado_4938" class="st5" d="M10046.1,10613.9c-1.7-0.3-3.4-0.8-5.1-1.5c0-0.7,0.1-1.9,0.2-3.8c1.6,0.6,3.3,1,5,1.4
						C10046.3,10611.2,10046.2,10612.6,10046.1,10613.9z"/>
					<path id="Trazado_4939" class="st6" d="M10056.3,10614.9c-3.4-0.1-6.8-0.4-10.2-1l-0.3-0.1c0-0.8,0.1-2.3,0.2-3.9
						c3.5,0.6,7.1,1,10.7,1.2C10056.6,10612.3,10056.5,10613.6,10056.3,10614.9z"/>
				</g>
				<g id="Grupo_23343" transform="translate(8.153 2.703)">
					<g id="Grupo_23342" transform="translate(1.802)">
						<path id="Trazado_4940" class="st18" d="M10045.5,10597.1c-0.8,0.1-1.6,0.2-2.4,0.4c-0.9,0.2-1.8,0.6-2.7,1
							c-0.5,0.2-0.9,0.5-1.4,0.7c-0.4,0.2-0.8,0.5-1.2,0.8s-0.8,0.6-1.1,0.9c-0.3,0.3-0.6,0.7-0.9,1.1c-0.3,0.5-0.2,1.2,0.2,1.5
							c0.7,0.5,1.5,0.8,2.3,0.8c1.1,0.1,2.3,0.1,3.4-0.1c1.1-0.2,2.3-0.5,3.3-0.9c0.8-0.3,1.6-0.7,2.5-1.1c0.3-0.2,0.7-0.3,1-0.5
							c0.9-0.5,1.6-0.8,2.2-1.1l0.2-0.1c0.6-0.3,1.3-0.5,2-0.7c0.7-0.1,1.3-0.2,2-0.1c0.2,0,0.5,0.1,0.7,0.1l0,0
							c0.4,0.1,0.6,0.4,0.7,0.7c0,0.3-0.1,0.5-0.2,0.7c-0.2,0.3-0.5,0.6-0.9,0.9c-0.5,0.3-1,0.6-1.5,0.9c-0.1,0-0.2,0.1-0.3,0.1
							c-0.5,0.2-1.1,0.4-1.7,0.5l0,0c-0.1,0-0.1,0-0.2,0c-0.6,0.1-1.3,0.2-2.1,0.2c-0.6,0-1.1,0.1-1.7,0.2c-0.4,0.1-0.8,0.2-1.1,0.5
							s-0.5,0.5-0.3,0.7c0.1,0.2,0.4,0.3,0.9,0.4c0.9,0.1,1.8,0.1,2.7,0c0.2,0,0.3,0,0.5-0.1c1.2-0.2,2.4-0.4,3.6-0.8
							c0.2-0.1,0.3-0.1,0.4-0.2c0.9-0.3,1.7-0.7,2.5-1.2c0.5-0.3,1-0.6,1.4-0.9c0.3-0.2,0.6-0.5,0.9-0.8c0.3-0.3,0.6-0.6,0.8-1l0,0
							c0.1-0.1,0.2-0.3,0.2-0.5c0.2-0.4,0.2-0.8,0-1.1l0,0c-0.1-0.2-0.3-0.4-0.4-0.5c-0.5-0.3-1-0.6-1.6-0.7l0,0
							c-0.3-0.1-0.7-0.1-1-0.2c-0.5-0.1-0.9-0.1-1.4-0.1c-0.1,0-0.2,0-0.3,0c-0.4,0-0.8,0-1.2,0.1c-0.9,0.1-1.8,0.3-2.7,0.5
							c-0.9,0.3-1.8,0.6-2.7,1c-0.6,0.3-1.3,0.6-1.9,0.9c-0.3,0.2-0.6,0.3-1,0.5c-0.8,0.4-1.4,0.7-1.8,0.9c-0.2,0.1-0.3,0.1-0.5,0.2
							c-0.2,0.1-0.5,0.2-0.8,0.3c-0.4,0.2-0.9,0.3-1.3,0.4c-0.4,0.1-0.8,0.1-1.2,0c-0.6-0.1-1-0.3-1-0.7c0-0.2,0-0.4,0.2-0.5
							c0.2-0.3,0.5-0.6,0.8-0.8c0.5-0.4,1-0.7,1.5-0.9c0.2-0.1,0.5-0.2,0.7-0.2c0.9-0.2,1.7-0.4,2.6-0.4c0.6-0.1,1.1-0.1,1.6-0.2
							c0.4-0.1,0.7-0.2,1-0.5s0.4-0.5,0.3-0.7c-0.2-0.3-0.6-0.4-1-0.4C10046.8,10597,10046.1,10597,10045.5,10597.1z"/>
					</g>
					<path id="Trazado_4941" class="st18" d="M10063.2,10602.3l-1.4,1.1c-0.3,0.2-0.7,0.3-1.1,0.3l-24.6-3c-0.4,0-0.5-0.2-0.2-0.4
						l1.4-1.1c0.3-0.2,0.7-0.3,1.1-0.3l24.6,3C10063.3,10602,10063.4,10602.1,10063.2,10602.3z"/>
				</g>
			</g>
		</g>
		<path id="Trazado_4942" class="st19" d="M10921.6,11021.4c0.6,0.7,1,1.2,1,1.2s-6.3,9-14,18.6c-2.8-3.1-5.3-6.4-7.4-10
			c5.1-6.8,9.7-13.8,11.2-16.1c0.4-0.7,1.3-0.5,2.4,0.1c0.9-1,1.6-2.2,1.8-3.5c0.1-1.6-0.6-2.9,0.7-3.8s3.8,3.8,10.3,2.3
			s17.2-0.8,17.7,1.4C10946,11014.2,10929.7,11015,10921.6,11021.4z"/>
		<g id="Grupo_23346" transform="translate(852.796 318.947)">
			<path id="Trazado_4943" class="st20" d="M10047.9,10625.2c-1.6-1.1-10.7-6.7-8.8-10.5s31.5-17.7,38.2-17.7
				c16.6,0.1,60.7,1.4,59.9,3.3c-0.8,1.9-19.6,13.3-21.8,17.6C10113.2,10622.2,10047.9,10625.2,10047.9,10625.2z"/>
			<path id="Trazado_4944" class="st21" d="M10099.8,10675.6c1.1,10.8,1.2,20.9,6.8,19.1c5.6-1.8,29.8-16.1,30.6-22.6
				c0.8-6.4,2.7-73.5,0-71.9s-26.3,13.8-28.2,17.6C10107.1,10621.7,10099.8,10675.6,10099.8,10675.6z"/>
			<path id="Trazado_4945" class="st22" d="M10038.2,10616.3c-0.8,54.7-7,76.5,3.8,76c10.7-0.5,65,5.2,66.6,1.6
				c3-6.3,3-76.1,0.3-76.1C10102.5,10617.9,10038.3,10608.3,10038.2,10616.3z"/>
		</g>
		<g id="Grupo_23347" transform="translate(654.822 318.774)">
			<path id="Trazado_4946" class="st20" d="M10047.9,10625.2c-1.6-1.1-10.7-6.7-8.8-10.5s31.5-17.7,38.2-17.7
				c16.6,0.1,60.7,1.4,59.9,3.3c-0.8,1.9-19.6,13.3-21.8,17.6C10113.2,10622.2,10047.9,10625.2,10047.9,10625.2z"/>
			<path id="Trazado_4947" class="st21" d="M10099.8,10675.6c1.1,10.8,1.2,20.9,6.8,19.1c5.6-1.8,29.8-16.1,30.6-22.6
				c0.8-6.4,2.7-73.5,0-71.9s-26.3,13.8-28.2,17.6S10099.8,10675.6,10099.8,10675.6z"/>
			<path id="Trazado_4948" class="st22" d="M10038.2,10616.3c-0.8,54.7-7,76.5,3.8,76c10.7-0.5,65,5.2,66.6,1.6
				c3-6.3,3-76.1,0.3-76.1C10102.5,10617.9,10038.3,10608.3,10038.2,10616.3z"/>
		</g>
		<path id="Trazado_4958" class="st7" d="M10792.2,11144.7c-13.8-1.7-15.7-6.4-18.3-21.1c-1.8,14-4.1,19.3-18.1,20.9
			c12.2,4,16.5,5.4,18.7,21.6C10777.5,11149.7,10780.2,11148.2,10792.2,11144.7z"/>
	</g>
	<path id="Trazado_4959" class="st7" d="M10825.5,11202h-2.7v-11.4h2.7V11202z M10829.7,11193.5l0.1,1c0.6-0.8,1.5-1.2,2.4-1.1
		c0.7-0.1,1.5,0.2,2,0.8c0.5,0.7,0.7,1.5,0.7,2.4v5.4h-2.6v-5.3c0-0.3-0.1-0.7-0.3-0.9c-0.3-0.2-0.6-0.3-0.9-0.3
		c-0.5,0-0.9,0.2-1.1,0.6v6h-2.6v-8.5h2.3V11193.5z M10836,11197.7c0-0.8,0.1-1.5,0.4-2.3c0.2-0.6,0.7-1.1,1.2-1.5s1.2-0.5,1.8-0.5
		c0.8,0,1.6,0.3,2.1,0.9l0.1-0.7h2.4v8.1c0,0.7-0.2,1.4-0.5,1.9c-0.4,0.6-0.9,1-1.5,1.3c-0.7,0.3-1.5,0.5-2.3,0.4
		c-0.6,0-1.2-0.1-1.8-0.4c-0.5-0.2-1-0.5-1.3-0.9l1.1-1.5c0.5,0.6,1.2,0.9,1.9,0.9c0.9,0.1,1.6-0.5,1.8-1.4c0-0.1,0-0.3,0-0.4v-0.3
		c-0.5,0.5-1.2,0.9-1.9,0.8c-1,0-1.9-0.4-2.5-1.2C10836.3,11200.1,10835.9,11198.9,10836,11197.7L10836,11197.7z M10838.6,11197.9
		c0,0.6,0.1,1.1,0.4,1.6c0.2,0.4,0.6,0.6,1.1,0.6s1-0.2,1.2-0.6v-3.6c-0.3-0.4-0.7-0.6-1.2-0.6s-0.9,0.2-1.1,0.6
		C10838.7,11196.6,10838.6,11197.2,10838.6,11197.9z M10850.6,11195.9l-0.9-0.1c-0.6-0.1-1.3,0.2-1.6,0.8v5.4h-2.6v-8.5h2.5l0.1,1.1
		c0.3-0.7,1-1.2,1.9-1.2c0.2,0,0.5,0,0.7,0.1L10850.6,11195.9z M10855.5,11202.2c-1.2,0.1-2.3-0.4-3.2-1.2c-0.8-0.8-1.2-1.9-1.2-3
		v-0.2c0-0.8,0.1-1.6,0.5-2.3c0.3-0.6,0.8-1.2,1.4-1.5c0.7-0.4,1.4-0.6,2.2-0.5c1.1-0.1,2.1,0.3,2.8,1.1c0.7,0.9,1.1,2,1,3.1v1h-5.2
		c0.1,0.4,0.3,0.8,0.6,1.1s0.8,0.4,1.2,0.4c0.8,0,1.5-0.3,2-0.9l1.2,1.4c-0.4,0.5-0.8,0.9-1.4,1.1
		C10856.8,11202,10856.2,11202.2,10855.5,11202.2z M10855.2,11195.4c-0.8,0-1.2,0.5-1.4,1.5h2.7v-0.2c0-0.4-0.1-0.7-0.3-1
		C10855.9,11195.5,10855.6,11195.4,10855.2,11195.4z M10864.5,11199.6c0-0.2-0.1-0.4-0.4-0.5c-0.4-0.2-0.9-0.3-1.3-0.4
		c-0.6-0.1-1.1-0.3-1.6-0.6c-0.4-0.2-0.7-0.5-1-0.9c-0.2-0.3-0.3-0.8-0.3-1.2c0-0.8,0.3-1.5,1-1.9c0.7-0.5,1.6-0.8,2.5-0.8
		c1,0,1.9,0.2,2.7,0.8c0.6,0.5,1,1.2,1,2h-2.6c0-0.7-0.4-1-1.1-1c-0.3,0-0.5,0.1-0.7,0.2c-0.2,0.1-0.3,0.3-0.3,0.6
		c0,0.2,0.1,0.5,0.3,0.6c0.3,0.2,0.7,0.3,1.1,0.4c0.4,0.1,0.9,0.2,1.3,0.3c1.1,0.2,1.9,1.2,1.9,2.4c0,0.8-0.4,1.5-1,1.9
		c-0.8,0.5-1.7,0.8-2.7,0.7c-0.7,0-1.3-0.1-1.9-0.4c-0.5-0.2-1-0.6-1.3-1.1c-0.3-0.4-0.5-0.9-0.5-1.4h2.5c0,0.3,0.1,0.7,0.4,0.9
		c0.3,0.2,0.6,0.3,1,0.3c0.3,0,0.6-0.1,0.8-0.2C10864.4,11200.1,10864.5,11199.8,10864.5,11199.6L10864.5,11199.6z M10868,11197.7
		c0-0.8,0.2-1.6,0.5-2.3c0.3-0.6,0.8-1.2,1.4-1.5c0.7-0.4,1.4-0.5,2.2-0.5c1.1-0.1,2.2,0.4,3,1.2c0.8,0.9,1.2,2,1.1,3.2v0.1
		c0.1,1.1-0.3,2.3-1.1,3.1s-1.9,1.2-3,1.2s-2.1-0.3-2.9-1.1c-0.8-0.8-1.2-1.8-1.2-2.9V11197.7z M10870.6,11197.9
		c0,0.6,0.1,1.2,0.4,1.7c0.2,0.4,0.7,0.6,1.1,0.5c0.9,0,1.4-0.7,1.4-2.2v-0.3c0-1.5-0.5-2.3-1.5-2.3c-0.9,0-1.4,0.7-1.4,2V11197.9z
		 M10881.7,11199.6c0-0.2-0.1-0.4-0.4-0.5c-0.4-0.2-0.9-0.3-1.3-0.4c-0.6-0.1-1.1-0.3-1.6-0.6c-0.4-0.2-0.7-0.5-1-0.9
		c-0.2-0.3-0.3-0.8-0.3-1.2c0-0.8,0.3-1.5,1-1.9c0.7-0.5,1.6-0.8,2.5-0.8c1,0,1.9,0.2,2.7,0.8c0.6,0.5,1,1.2,1,2h-2.6
		c0-0.7-0.4-1-1.1-1c-0.3,0-0.5,0.1-0.7,0.2c-0.2,0.1-0.3,0.3-0.3,0.6c0,0.2,0.1,0.5,0.3,0.6c0.3,0.2,0.7,0.3,1.1,0.4
		c0.4,0.1,0.9,0.2,1.3,0.3c1.1,0.2,1.9,1.2,1.9,2.4c0,0.8-0.4,1.5-1,1.9c-0.8,0.5-1.7,0.8-2.7,0.7c-0.7,0-1.3-0.1-1.9-0.4
		c-0.5-0.2-1-0.6-1.3-1.1c-0.3-0.4-0.5-0.9-0.5-1.4h2.5c0,0.3,0.1,0.7,0.4,0.9c0.3,0.2,0.6,0.3,1,0.3c0.3,0,0.6-0.1,0.8-0.2
		C10881.6,11200.1,10881.7,11199.8,10881.7,11199.6z"/>
	<path id="Trazado_4960" class="st7" d="M11027.6,11197.2h-4.3v2.7h5.1v2.1h-7.8v-11.4h7.9v2.1h-5.1v2.4h4.3v2.1H11027.6z
		 M11028.9,11197.7c0-0.8,0.1-1.5,0.4-2.3c0.2-0.6,0.7-1.1,1.2-1.5s1.2-0.5,1.8-0.5c0.8,0,1.6,0.3,2.1,0.9l0.1-0.7h2.4v8.1
		c0,0.7-0.2,1.4-0.5,1.9c-0.4,0.6-0.9,1-1.5,1.3c-0.7,0.3-1.5,0.5-2.3,0.4c-0.6,0-1.2-0.1-1.8-0.4c-0.5-0.2-1-0.5-1.3-0.9l1.1-1.5
		c0.5,0.6,1.2,0.9,1.9,0.9c0.9,0.1,1.6-0.5,1.8-1.4c0-0.1,0-0.3,0-0.4v-0.3c-0.5,0.5-1.2,0.9-1.9,0.8c-1,0-1.9-0.4-2.5-1.2
		C11029.2,11200.1,11028.9,11198.9,11028.9,11197.7L11028.9,11197.7z M11031.6,11197.9c0,0.6,0.1,1.1,0.4,1.6
		c0.2,0.4,0.6,0.6,1.1,0.6s1-0.2,1.2-0.6v-3.6c-0.3-0.4-0.7-0.6-1.2-0.6s-0.9,0.2-1.1,0.6
		C11031.7,11196.6,11031.5,11197.2,11031.6,11197.9z M11043.6,11195.9l-0.9-0.1c-0.6-0.1-1.3,0.2-1.6,0.8v5.4h-2.6v-8.5h2.5l0.1,1.1
		c0.3-0.7,1-1.2,1.9-1.2c0.2,0,0.5,0,0.7,0.1L11043.6,11195.9z M11048.5,11202.2c-1.2,0.1-2.3-0.4-3.2-1.2c-0.8-0.8-1.2-1.9-1.2-3
		v-0.2c0-0.8,0.1-1.6,0.5-2.3c0.3-0.6,0.8-1.2,1.4-1.5c0.7-0.4,1.4-0.6,2.2-0.5c1.1-0.1,2.1,0.3,2.8,1.1c0.7,0.9,1.1,2,1,3.1v1h-5.2
		c0.1,0.4,0.3,0.8,0.6,1.1s0.8,0.4,1.2,0.4c0.8,0,1.5-0.3,2-0.9l1.2,1.4c-0.4,0.5-0.8,0.9-1.4,1.1
		C11049.8,11202,11049.1,11202.2,11048.5,11202.2z M11048.2,11195.4c-0.8,0-1.2,0.5-1.4,1.5h2.7v-0.2c0-0.4-0.1-0.7-0.3-1
		C11048.9,11195.5,11048.5,11195.4,11048.2,11195.4L11048.2,11195.4z M11057.5,11199.6c0-0.2-0.1-0.4-0.4-0.5
		c-0.4-0.2-0.9-0.3-1.3-0.4c-0.6-0.1-1.1-0.3-1.6-0.6c-0.4-0.2-0.7-0.5-1-0.9c-0.2-0.3-0.3-0.8-0.3-1.2c0-0.8,0.3-1.5,1-1.9
		c0.7-0.5,1.6-0.8,2.5-0.8c1,0,1.9,0.2,2.7,0.8c0.7,0.5,1,1.2,1,2h-2.6c0-0.7-0.4-1-1.1-1c-0.3,0-0.5,0.1-0.7,0.2
		c-0.2,0.1-0.3,0.3-0.3,0.6c0,0.2,0.1,0.5,0.3,0.6c0.3,0.2,0.7,0.3,1.1,0.4c0.5,0.1,0.9,0.2,1.3,0.3c1.1,0.2,1.9,1.2,1.9,2.4
		c0,0.8-0.4,1.5-1,1.9c-0.8,0.5-1.7,0.8-2.7,0.7c-0.7,0-1.3-0.1-1.9-0.4c-0.5-0.2-1-0.6-1.3-1.1c-0.3-0.4-0.5-0.9-0.5-1.4h2.5
		c0,0.3,0.1,0.7,0.4,0.9c0.3,0.2,0.6,0.3,1,0.3c0.3,0,0.6-0.1,0.8-0.2C11057.4,11200.1,11057.5,11199.8,11057.5,11199.6
		L11057.5,11199.6z M11060.9,11197.7c0-0.8,0.2-1.6,0.5-2.3c0.3-0.6,0.8-1.2,1.4-1.5c0.7-0.4,1.4-0.6,2.2-0.5c1.1-0.1,2.2,0.4,3,1.2
		c0.8,0.9,1.2,2,1.1,3.2v0.1c0.1,1.2-0.3,2.3-1.1,3.1s-1.9,1.2-3,1.2s-2.1-0.3-2.9-1.1c-0.8-0.8-1.2-1.8-1.2-2.9V11197.7z
		 M11063.6,11197.9c0,0.6,0.1,1.2,0.4,1.7c0.2,0.4,0.7,0.6,1.1,0.5c0.9,0,1.4-0.7,1.4-2.2v-0.3c0-1.5-0.5-2.3-1.5-2.3
		c-0.9,0-1.4,0.7-1.4,2V11197.9z M11074.7,11199.6c0-0.2-0.1-0.4-0.4-0.5c-0.4-0.2-0.9-0.3-1.3-0.4c-0.6-0.1-1.1-0.3-1.6-0.6
		c-0.4-0.2-0.7-0.5-1-0.9c-0.2-0.3-0.3-0.8-0.3-1.2c0-0.8,0.3-1.5,1-1.9c0.7-0.5,1.6-0.8,2.5-0.8c1,0,1.9,0.2,2.7,0.8
		c0.7,0.5,1,1.2,1,2h-2.6c0-0.7-0.4-1-1.1-1c-0.3,0-0.5,0.1-0.7,0.2c-0.2,0.1-0.3,0.3-0.3,0.6c0,0.2,0.1,0.5,0.3,0.6
		c0.3,0.2,0.7,0.3,1.1,0.4c0.4,0.1,0.9,0.2,1.3,0.3c1.1,0.2,1.9,1.2,1.9,2.4c0,0.8-0.4,1.5-1,1.9c-0.8,0.5-1.7,0.8-2.7,0.7
		c-0.7,0-1.3-0.1-1.9-0.4c-0.5-0.2-1-0.6-1.3-1.1c-0.3-0.4-0.5-0.9-0.5-1.4h2.5c0,0.3,0.1,0.7,0.4,0.9c0.3,0.2,0.6,0.3,1,0.3
		c0.3,0,0.6-0.1,0.8-0.2C11074.6,11200.1,11074.7,11199.8,11074.7,11199.6z"/>
</g>
</svg>
