<svg xmlns="http://www.w3.org/2000/svg" width="493" height="400" viewBox="0 0 493 400">
  <g id="Grupo_23382" data-name="Grupo 23382" transform="translate(15380 8664)">
    <rect id="Rectángulo_2086" data-name="Rectángulo 2086" width="493" height="400" rx="10" transform="translate(-15380 -8664)" fill="#e1fcf8"/>
    <g id="Grupo_23115" data-name="Grupo 23115" transform="translate(-15378 -8765.561)">
      <g id="Grupo_23095" data-name="Grupo 23095" transform="translate(0 233.426)">
        <path id="Trazado_4573" data-name="Trazado 4573" d="M706.823,480.817c25.475-32.762,41.112-38.473,43.929-35.505s1.468,4.845-1.736,9.811A223.043,223.043,0,0,1,722.8,488.088c-13.909,14.427-8.416,29.572-8.282,30.554,4.115,17.356,1.4,35.684,1.4,35.684l-44.8,7.412S697.818,492.4,706.823,480.817Z" transform="translate(-561.278 -410.058)" fill="#dd9280"/>
        <path id="Trazado_4574" data-name="Trazado 4574" d="M700.017,355.259c22.326-34.985,38.773-49.347,41.853-46.654S743,319.1,740.275,324.341s-8.635,22.063-21.146,37.718-8.166,29.182-7.942,30.147,4.708,35.4,4.708,35.4l-43.922,11.537S692.125,367.625,700.017,355.259Z" transform="translate(-561.993 -296.035)" fill="#e89f89"/>
        <path id="Trazado_4575" data-name="Trazado 4575" d="M181.9,365.015c-7.856,10.124-30.751,46.529-50.043,50.7-2.817.609-5.475,1.116-8.033,1.548-14.971,2.538-26.483,2.548-45.688,5.517-1.35.208-2.831.4-4.43.578-5.692.632-12.892,1.07-21.21,1.357-14.727.512-32.954.561-52.5.4V359.683c23.383,2.578,41.735,4.527,56.219,5.286a169.676,169.676,0,0,0,21.337.025c7.072-.537,12.674-1.773,17.165-3.877,23.494-11.013,24.653-47.977,29.295-57.512s31.56-65.7,39.588-69.84c5.342-2.756,4.527,12,3.219,20.746v0c-.177,1.165-.36,2.223-.538,3.118-1.863,9.342-15.313,28.863-16.447,37.213a44.827,44.827,0,0,1-1.049,5.247v0c-2.881,11.129-9.223,20.7-8.82,30.154.463,10.9,1.818,25.98,9.424,28.237,1.065-.367,2.236-.835,3.476-1.393.774-.345,1.578-.727,2.4-1.142,6.6-3.309,14.453-8.624,19.39-14.352,6.532-7.584,19.823-14.3,23.869-9.863C204.058,337.8,194.233,355.606,181.9,365.015Z" transform="translate(0 -233.426)" fill="#eda994"/>
        <g id="Grupo_23094" data-name="Grupo 23094" transform="translate(0 118.86)">
          <path id="Trazado_4576" data-name="Trazado 4576" d="M75.671,1042.806a60.771,60.771,0,0,1-1.961,7.6c-1.083,3.152-2.3,5.111-3.6,5.293-1.676.234-8.746,1.018-18.885,2.079-13.473,1.412-32.365,3.314-51.229,5.072V983.19c20.136,1.268,40.111,2.663,55.912,3.489,7.229.378,13.586.638,18.684.709,1.3.02,2.277,1.753,2.961,4.658C79.984,1002.347,78.766,1027.375,75.671,1042.806Z" transform="translate(0 -979.339)" fill="#fff"/>
          <path id="Trazado_4577" data-name="Trazado 4577" d="M53.774,1022.893c-.386,3.365-.812,6.476-1.273,9.195-.4,2.322-.822,4.357-1.272,6.015a11.429,11.429,0,0,1-1.836,4.3c-1.638,1.777-22.959,3.743-49.393,5.416V959.66c22.149,1.841,42.1,3.673,55.125,4.535.339.021.6,1.031.787,2.805.146,1.362.247,3.178.308,5.342A429.552,429.552,0,0,1,53.774,1022.893Z" transform="translate(0 -959.66)" fill="#5dc2ae"/>
        </g>
      </g>
      <path id="Trazado_4578" data-name="Trazado 4578" d="M1733.828,1022.649c-22.24,5.134-59.078,12.617-62.235,13.125-5.809-13.047-28.4-29.606-38.493-24.487s2.043,7.439,3.935,9.076c9.952,3.83,18.657,24.573,18.657,24.573l19.815,19.337,50.084-13.111Z" transform="translate(-1362.501 -649.754)" fill="#d68778"/>
      <path id="Trazado_4579" data-name="Trazado 4579" d="M1624.277,1065.923l33.373-18.617-25.394-11.448c-6.295-1.317-22.626-4.526-29.364-3.63-1.176-7.092-7.866-31.772-24.9-29.566a1.646,1.646,0,0,0-1.386,2.278" transform="translate(-1318.422 -643.222)" fill="#dd9280"/>
      <path id="Trazado_4580" data-name="Trazado 4580" d="M1418.679,1117.424" transform="translate(-1186.489 -739.317)" fill="#e89f89"/>
      <path id="Trazado_4581" data-name="Trazado 4581" d="M1813.558,1252.9" transform="translate(-1516.739 -852.619)" fill="#0d1b3e"/>
      <path id="Trazado_4582" data-name="Trazado 4582" d="M1783.107,1279.371" transform="translate(-1491.272 -874.758)" fill="#78add3"/>
      <g id="Grupo_23113" data-name="Grupo 23113" transform="translate(224.389 321.558)">
        <g id="Grupo_23112" data-name="Grupo 23112">
          <path id="Trazado_4583" data-name="Trazado 4583" d="M1371.825,843.025c-1.46,18.027-1.455,25.847,4.319,31.518s33.941,36.221,47.242,29.845,138.049-41.778,143.036-54.353c2.369-5.972-2.323-23.492-2.323-23.492l-56.927-17.917Z" transform="translate(-1371.012 -802.617)" fill="#329b73"/>
          <path id="Trazado_4584" data-name="Trazado 4584" d="M1872.393,1020.7c9.5.766,19.075-.7,22.975-5.77s-.063-10.7-8.851-12.585-19.794-.064-25.712,7C1856.618,1014.345,1862.417,1019.895,1872.393,1020.7Z" transform="translate(-1779.491 -964.05)" fill="none" stroke="#1b5b44" stroke-miterlimit="10" stroke-width="10.563"/>
          <g id="Grupo_23097" data-name="Grupo 23097" transform="translate(90.266 40.332)">
            <g id="Grupo_23096" data-name="Grupo 23096" transform="translate(0.5)">
              <path id="Trazado_4585" data-name="Trazado 4585" d="M1935.694,1026.622s0,0,.007,0a15,15,0,0,1,2.833-1.069c.876-.183,1.526-.056,1.35.847,0,0,0,.005,0,.008-.16.716-.853,1.253-1.735,1.707-2,1.026-4.964,1.624-4.9,2.887,2.031,2.009,5.406.947,8.086-1.066a14.462,14.462,0,0,0,1.649-1.448c3.183-3.263,4.116-7.469-2.818-6.781-.962-.2-3.155.851-5.159,1.711a14.27,14.27,0,0,1-2.872,1c-.752.123-1.218-.043-1.171-.73v-.024a5.71,5.71,0,0,1,1.736-1.611s0,0,0,0a13.872,13.872,0,0,1,3.815-1.777c.817-2.413-3.231-2.445-5.627-.769-.486.221-.935.452-1.351.691a11.615,11.615,0,0,0-1.936,1.371h0C1922.737,1025.9,1927.18,1031.124,1935.694,1026.622Z" transform="translate(-1925.591 -1018.342)" fill="#1b5b44"/>
            </g>
            <path id="Trazado_4586" data-name="Trazado 4586" d="M1922.626,1020.985c-.544-1.525,1.624-1.761,2.031-1.27s18.66,10.527,17.4,11.5-1.748.506-4.667-1.105C1934.17,1028.329,1922.626,1020.985,1922.626,1020.985Z" transform="translate(-1922.539 -1019.297)" fill="#1b5b44"/>
          </g>
          <ellipse id="Elipse_1277" data-name="Elipse 1277" cx="5.174" cy="8.895" rx="5.174" ry="8.895" transform="matrix(0.106, -0.994, 0.994, 0.106, 58.949, 69.666)" fill="#1b5b44"/>
          <path id="Trazado_4587" data-name="Trazado 4587" d="M1856.079,996.622c9.158,1.36,18.687.45,23.178-4.468s1.393-10.893-6.917-13.344-19.285-1.273-26.013,5.555C1841.567,989.195,1846.465,995.195,1856.079,996.622Z" transform="translate(-1766.994 -943.966)" fill="none" stroke="#1b5b44" stroke-miterlimit="10" stroke-width="10.563"/>
          <g id="Grupo_23099" data-name="Grupo 23099" transform="translate(88.257 36.165)">
            <g id="Grupo_23098" data-name="Grupo 23098" transform="translate(0 0.296)">
              <path id="Trazado_4588" data-name="Trazado 4588" d="M1919.949,1003.194l.007,0a15.269,15.269,0,0,1,2.906-.915c.879-.133,1.5.036,1.2.944,0,0,0,.005,0,.008a3.269,3.269,0,0,1-1.923,1.631c-2.09.922-5.059,1.349-5.164,2.639,1.707,2.168,5.141,1.294,8.026-.591a15.977,15.977,0,0,0,1.8-1.373c3.546-3.126,5.027-7.348-1.825-7.071-.91-.264-3.191.673-5.261,1.426a14.445,14.445,0,0,1-2.935.845c-.749.079-1.181-.119-1.042-.814l0-.025a6.321,6.321,0,0,1,1.911-1.533s0,0,0,0a14.389,14.389,0,0,1,3.959-1.575c1.124-2.405-2.817-2.685-5.381-1.125q-.756.293-1.41.62a12.569,12.569,0,0,0-2.073,1.277h0C1907.418,1001.665,1911.038,1007.255,1919.949,1003.194Z" transform="translate(-1910.263 -994.69)" fill="#1b5b44"/>
            </g>
            <path id="Trazado_4589" data-name="Trazado 4589" d="M1912.13,994.331c-.323-1.584,1.822-1.693,2.152-1.168s16.757,11.85,15.4,12.762-1.773.408-4.4-1.409C1922.383,1002.509,1912.13,994.331,1912.13,994.331Z" transform="translate(-1911.797 -992.881)" fill="#1b5b44"/>
          </g>
          <ellipse id="Elipse_1278" data-name="Elipse 1278" cx="5.33" cy="8.633" rx="5.33" ry="8.633" transform="translate(54.662 64.212) rotate(-82.051)" fill="#1b5b44"/>
          <g id="Grupo_23101" data-name="Grupo 23101" transform="translate(16.421 53.078)">
            <g id="Grupo_23100" data-name="Grupo 23100" transform="translate(0 0.095)">
              <path id="Trazado_4590" data-name="Trazado 4590" d="M1475.644,1100.526a6.728,6.728,0,0,1,1.274-.415c.387-.062.661.009.54.409,0,0,0,0,0,0a1.409,1.409,0,0,1-.829.722c-.911.415-2.225.617-2.258,1.184.776.943,2.286.543,3.542-.3a6.816,6.816,0,0,0,.78-.609c1.537-1.386,2.149-3.246-.877-3.094a6.261,6.261,0,0,0-2.31.651,6.467,6.467,0,0,1-1.29.383c-.33.038-.523-.046-.467-.352v-.01a2.758,2.758,0,0,1,.829-.681,6.319,6.319,0,0,1,1.734-.709c.472-1.061-1.272-1.166-2.388-.47-.222.088-.427.182-.616.279a5.358,5.358,0,0,0-.9.571C1470.089,1099.914,1471.746,1102.351,1475.644,1100.526Z" transform="translate(-1471.344 -1096.798)" fill="#419f81"/>
            </g>
            <path id="Trazado_4591" data-name="Trazado 4591" d="M1471.789,1096.863c-.159-.694.788-.751.939-.522s7.527,5.121,6.936,5.528-.779.187-1.958-.6C1476.4,1100.4,1471.789,1096.863,1471.789,1096.863Z" transform="translate(-1471.701 -1096.22)" fill="#419f81"/>
          </g>
          <path id="Trazado_4592" data-name="Trazado 4592" d="M1510.949,771.912s23.437,11.533,41.46,18.677c6.393,2.535,12.1,4.528,15.848,5.249-6.3,4.93-17.193,10.532-31.429,16.636-27.183,11.668-66.593,25.177-109.734,39.459,0,0-15.057-2.238-39.866-27.362-3.563-3.593-7.314-7.66-11.252-12.25,91.848-24.462,44.173-11.116,50.294-12.743C1460.412,790.5,1493.264,780.818,1510.949,771.912Z" transform="translate(-1375.164 -771.912)" fill="#3eb58a"/>
          <path id="Trazado_4593" data-name="Trazado 4593" d="M1440.244,837.755c3.708,4.291,7.232,8.045,10.551,11.329a121.7,121.7,0,0,0,19.651,16.148c9.23,5.917,14.437,6.655,14.437,6.655q9.893-3.278,19.45-6.494c36.29-12.212,68.093-23.587,88.121-33.168,7.261-3.472,12.977-6.71,16.8-9.665a94.4,94.4,0,0,1-14.6-4.759c-8.443-3.3-18.1-7.612-25.229-10.885-6.108-2.8-10.347-4.85-10.347-4.85-3.412,1.709-7.989,3.618-13.372,5.643-22.522,8.47-59.15,18.95-83.7,25.133C1452.353,835.271,1444.57,837.036,1440.244,837.755Z" transform="translate(-1428.913 -797.13)" fill="none" stroke="#1b5b44" stroke-miterlimit="10" stroke-width="8.215"/>
          <path id="Trazado_4594" data-name="Trazado 4594" d="M2072.569,807.435c11.1,4.068,15.362,2.447,28.328-.947-7.295-3.349-12.358-5.793-12.358-5.793C2084.465,802.737,2079,805.017,2072.569,807.435Z" transform="translate(-1957.748 -795.985)" fill="#1b5b44"/>
          <path id="Trazado_4595" data-name="Trazado 4595" d="M2362.685,912.633c7.261-3.472,12.977-6.71,16.8-9.665a94.4,94.4,0,0,1-14.6-4.759C2361.149,903.861,2359.978,908.529,2362.685,912.633Z" transform="translate(-2199.145 -877.538)" fill="#1b5b44"/>
          <path id="Trazado_4596" data-name="Trazado 4596" d="M1624.778,1173.7c9.23,5.917,14.437,6.655,14.437,6.655q9.893-3.279,19.45-6.494C1650.1,1170.384,1639.654,1169.532,1624.778,1173.7Z" transform="translate(-1583.245 -1105.6)" fill="#1b5b44"/>
          <path id="Trazado_4597" data-name="Trazado 4597" d="M1865.252,960.106c8.438,2.309,17.735,2.331,23.116-2.26s3.757-11.02-3.629-14.362-18.121-3.233-26.064,3.089C1853.057,951.045,1856.4,957.682,1865.252,960.106Z" transform="translate(-1776.553 -913.58)" fill="none" stroke="#1b5b44" stroke-miterlimit="10" stroke-width="10.563"/>
          <g id="Grupo_23103" data-name="Grupo 23103" transform="translate(89.91 29.709)">
            <g id="Grupo_23102" data-name="Grupo 23102" transform="translate(0 1.055)">
              <path id="Trazado_4598" data-name="Trazado 4598" d="M1929.32,968.65l.008,0a15.309,15.309,0,0,1,2.978-.646c.869-.048,1.419.187.936,1.088,0,0,0,.005,0,.008a3.778,3.778,0,0,1-2.2,1.478c-2.2.735-5.129.876-5.516,2.187,1.146,2.392,4.618,1.839,7.792.2a18.208,18.208,0,0,0,2.027-1.226c4.08-2.848,6.434-7.025-.167-7.426-.81-.361-3.195.371-5.339.935a14.278,14.278,0,0,1-2.989.572c-.733.006-1.1-.24-.813-.938l.01-.025a7.278,7.278,0,0,1,2.165-1.379s0,0,0,0a14.825,14.825,0,0,1,4.13-1.218c1.609-2.352-2.09-3.033-4.885-1.691q-.787.225-1.484.495a13.875,13.875,0,0,0-2.263,1.1h0C1917.7,965.831,1919.911,971.919,1929.32,968.65Z" transform="translate(-1920.363 -959.882)" fill="#1b5b44"/>
            </g>
            <path id="Trazado_4599" data-name="Trazado 4599" d="M1930.552,954.795c.044-1.655,2.116-1.552,2.314-.981s13.353,13.815,11.854,14.614-1.783.241-3.884-1.884C1938.516,964.2,1930.552,954.795,1930.552,954.795Z" transform="translate(-1928.884 -953.436)" fill="#1b5b44"/>
          </g>
          <g id="Grupo_23105" data-name="Grupo 23105" transform="translate(126.127 6.488)">
            <g id="Grupo_23104" data-name="Grupo 23104" transform="translate(0.15)">
              <path id="Trazado_4600" data-name="Trazado 4600" d="M2146.709,814.991a6.275,6.275,0,0,1,1.177-.431c.364-.073.629-.016.547.357,0,0,0,0,0,0a1.243,1.243,0,0,1-.733.7c-.832.417-2.058.652-2.042,1.176.817.843,2.215.417,3.34-.407a5.793,5.793,0,0,0,.691-.593c1.342-1.338,1.767-3.079-1.092-2.824a5.833,5.833,0,0,0-2.141.688,6,6,0,0,1-1.189.4c-.311.048-.5-.022-.477-.308a.018.018,0,0,1,0-.009,2.4,2.4,0,0,1,.728-.66,5.8,5.8,0,0,1,1.589-.721c.361-1-1.305-1.027-2.309-.343-.2.09-.389.182-.561.279h0a4.876,4.876,0,0,0-.808.559C2141.38,814.635,2143.159,816.823,2146.709,814.991Z" transform="translate(-2142.562 -811.554)" fill="#419f81"/>
            </g>
            <path id="Trazado_4601" data-name="Trazado 4601" d="M2141.678,812.427c-.209-.635.686-.723.848-.518s7.577,4.447,7.05,4.845-.724.2-1.91-.479C2146.357,815.523,2141.678,812.427,2141.678,812.427Z" transform="translate(-2141.647 -811.768)" fill="#419f81"/>
          </g>
          <g id="Grupo_23107" data-name="Grupo 23107" transform="translate(166.992 23.527)">
            <g id="Grupo_23106" data-name="Grupo 23106" transform="translate(0 0.198)">
              <path id="Trazado_4602" data-name="Trazado 4602" d="M2395.261,920.416a0,0,0,0,0,0,0,6.273,6.273,0,0,1,1.209-.351c.363-.047.614.029.471.4v0a1.4,1.4,0,0,1-.825.66c-.872.364-2.1.513-2.172,1.049a1.676,1.676,0,0,0,1.939.448,5.317,5.317,0,0,0,1.361-.616c.2-.123.389-.254.573-.395l0,0c.064-.051.129-.1.192-.154,1.522-1.267,2.222-3.011-.59-2.962a5.865,5.865,0,0,0-2.184.541,5.905,5.905,0,0,1-1.223.322c-.307.027-.477-.06-.406-.348h0s0-.005,0-.009a2.732,2.732,0,0,1,.815-.62,5.992,5.992,0,0,1,1.656-.616c.513-.991-1.093-1.145-2.177-.522-.21.076-.406.158-.59.244a5.188,5.188,0,0,0-.879.513C2390.165,919.658,2391.527,922.019,2395.261,920.416Z" transform="translate(-2391.33 -916.873)" fill="#419f81"/>
            </g>
            <path id="Trazado_4603" data-name="Trazado 4603" d="M2392.9,916.251c-.1-.663.783-.687.907-.465s6.6,5.1,6.025,5.465-.735.153-1.77-.63C2396.917,919.756,2392.9,916.251,2392.9,916.251Z" transform="translate(-2392.635 -915.66)" fill="#419f81"/>
          </g>
          <ellipse id="Elipse_1279" data-name="Elipse 1279" cx="8.417" cy="12.262" rx="8.417" ry="12.262" transform="translate(49.45 57.696) rotate(-79.454)" fill="#1b5b44"/>
          <ellipse id="Elipse_1280" data-name="Elipse 1280" cx="7.77" cy="12.298" rx="7.77" ry="12.298" transform="translate(116.242 31.145) rotate(-81.405)" fill="#1b5b44"/>
          <path id="Trazado_4604" data-name="Trazado 4604" d="M1438.864,994.475c8.006-2.053,15.22-3.761,21.707-5.182-.634,7.271-4.325,11.465-11.42,15.651A98.115,98.115,0,0,0,1438.864,994.475Z" transform="translate(-1427.759 -953.715)" fill="#1b5b44"/>
          <g id="Grupo_23109" data-name="Grupo 23109" transform="translate(18.527 39.756)">
            <g id="Grupo_23108" data-name="Grupo 23108" transform="translate(0 0.431)">
              <path id="Trazado_4605" data-name="Trazado 4605" d="M1488.191,1021.3a6.752,6.752,0,0,1,1.309-.3c.383-.025.629.075.424.473,0,0,0,0,0,0a1.634,1.634,0,0,1-.952.657c-.962.334-2.261.409-2.419.987.53,1.044,2.061.785,3.447.049a7.822,7.822,0,0,0,.88-.546c1.776-1.266,2.775-3.111-.148-3.257a6.153,6.153,0,0,0-2.35.436,6.411,6.411,0,0,1-1.316.263c-.323.006-.489-.1-.367-.408l0-.01a3.178,3.178,0,0,1,.943-.615,6.537,6.537,0,0,1,1.813-.553c.687-1.04-.955-1.321-2.175-.72-.232.068-.448.144-.65.224a5.945,5.945,0,0,0-.99.495C1483.025,1020.12,1484.064,1022.782,1488.191,1021.3Z" transform="translate(-1484.21 -1017.451)" fill="#419f81"/>
            </g>
            <path id="Trazado_4606" data-name="Trazado 4606" d="M1488.3,1015.421c0-.727.919-.69,1.013-.441s6.043,6,5.389,6.357-.785.114-1.736-.808C1491.918,1019.509,1488.3,1015.421,1488.3,1015.421Z" transform="translate(-1487.632 -1014.818)" fill="#419f81"/>
          </g>
          <g id="Grupo_23111" data-name="Grupo 23111" transform="translate(53.574 67.331)">
            <g id="Grupo_23110" data-name="Grupo 23110" transform="translate(0 0.344)">
              <path id="Trazado_4607" data-name="Trazado 4607" d="M1701.531,1188.48a5.3,5.3,0,0,1,1.048-.237c.305-.02.5.06.337.377,0,0,0,0,0,0a1.309,1.309,0,0,1-.764.526c-.769.266-1.8.326-1.93.786.424.833,1.645.628,2.753.042a6.5,6.5,0,0,0,.706-.437c1.417-1.013,2.213-2.486-.121-2.6a4.881,4.881,0,0,0-1.876.347,4.949,4.949,0,0,1-1.049.21h0c-.259.005-.39-.079-.293-.327,0,0,0,0,0-.007a2.561,2.561,0,0,1,.754-.491,5.149,5.149,0,0,1,1.446-.44c.551-.831-.761-1.056-1.736-.576-.184.055-.357.115-.52.18a4.705,4.705,0,0,0-.789.394C1697.4,1187.536,1698.235,1189.662,1701.531,1188.48Z" transform="translate(-1698.351 -1185.405)" fill="#419f81"/>
            </g>
            <path id="Trazado_4608" data-name="Trazado 4608" d="M1701.623,1183.786c0-.58.734-.552.809-.352s4.826,4.792,4.3,5.077-.627.091-1.386-.646C1704.511,1187.051,1701.623,1183.786,1701.623,1183.786Z" transform="translate(-1701.088 -1183.304)" fill="#419f81"/>
          </g>
          <path id="Trazado_4609" data-name="Trazado 4609" d="M1732.707,771.912s23.437,11.533,41.46,18.677c-33.018-2.23-84.574,5.747-133.036,11.35C1675.291,792.928,1715.022,780.818,1732.707,771.912Z" transform="translate(-1596.922 -771.912)" fill="#1f1f39" opacity="0.1"/>
          <path id="Trazado_4610" data-name="Trazado 4610" d="M1717.548,1014.683c107.893-35.125,131.094-52.261,131.094-52.261C1836.055,972.581,1717.548,1014.683,1717.548,1014.683Z" transform="translate(-1660.832 -931.242)" fill="#1b5b44"/>
          <path id="Trazado_4611" data-name="Trazado 4611" d="M1742.448,1094.135c108.227-34.315,131.679-51.3,131.679-51.3C1861.388,1052.912,1742.448,1094.135,1742.448,1094.135Z" transform="translate(-1681.656 -998.49)" fill="#1b5b44"/>
          <path id="Trazado_4612" data-name="Trazado 4612" d="M1750.026,1023.737c108.227-34.315,131.679-51.3,131.679-51.3C1868.966,982.514,1750.026,1023.737,1750.026,1023.737Z" transform="translate(-1687.994 -939.614)" fill="#1b5b44"/>
          <path id="Trazado_4613" data-name="Trazado 4613" d="M1736.8,1179.856c59.276-16.949,72.483-25.854,72.483-25.854C1802.073,1159.306,1736.8,1179.856,1736.8,1179.856Z" transform="translate(-1676.929 -1091.467)" fill="#1b5b44"/>
          <path id="Trazado_4614" data-name="Trazado 4614" d="M1747.23,1191.183c59.276-16.949,72.483-25.854,72.483-25.854C1812.507,1170.633,1747.23,1191.183,1747.23,1191.183Z" transform="translate(-1685.656 -1100.94)" fill="#1b5b44"/>
          <path id="Trazado_4615" data-name="Trazado 4615" d="M2093.37,1070.477c57.915-20.326,70.08-29.844,70.08-29.844C2156.876,1046.26,2093.37,1070.477,2093.37,1070.477Z" transform="translate(-1975.144 -996.652)" fill="#1b5b44"/>
          <path id="Trazado_4616" data-name="Trazado 4616" d="M2082.966,1052.011c57.915-20.326,70.079-29.844,70.079-29.844C2146.472,1027.794,2082.966,1052.011,2082.966,1052.011Z" transform="translate(-1966.443 -981.209)" fill="#1b5b44"/>
          <path id="Trazado_4617" data-name="Trazado 4617" d="M1813.929,931.806c-.063,1.693-25.757,10.889-26.849,9.19s-.806-21.248-2.261-22.345-44.805-35.224-41.913-38.033c4.363-4.238,27.989-9.706,28.5-8.085s38.458,32.587,40,36.55S1813.991,930.112,1813.929,931.806Z" transform="translate(-1681.924 -855.819)" fill="#fff"/>
          <path id="Trazado_4618" data-name="Trazado 4618" d="M1391.257,1083.421c2.57,6.173,32.177,31.658,40.654,33.182C1409.861,1104.849,1391.257,1083.421,1391.257,1083.421Z" transform="translate(-1387.944 -1032.437)" fill="#1b5b44"/>
          <path id="Trazado_4619" data-name="Trazado 4619" d="M1389.908,1169.293c2.57,6.173,32.177,31.658,40.654,33.182C1408.512,1190.721,1389.908,1169.293,1389.908,1169.293Z" transform="translate(-1386.815 -1104.255)" fill="#1b5b44"/>
          <path id="Trazado_4620" data-name="Trazado 4620" d="M1401.441,1128.687c2.57,6.173,32.177,31.658,40.654,33.182C1420.474,1149.2,1401.441,1128.687,1401.441,1128.687Z" transform="translate(-1396.461 -1070.295)" fill="#1b5b44"/>
          <path id="Trazado_4621" data-name="Trazado 4621" d="M1396.954,1107.043c8.086,9.979,32.177,31.658,40.654,33.182C1415.558,1128.471,1396.954,1107.043,1396.954,1107.043Z" transform="translate(-1392.708 -1052.193)" fill="#1b5b44"/>
          <path id="Trazado_4622" data-name="Trazado 4622" d="M1383.8,1139.4c8.086,9.979,29.92,29.773,40.654,33.182C1402.393,1160.874,1383.8,1139.4,1383.8,1139.4Z" transform="translate(-1381.706 -1079.251)" fill="#1b5b44"/>
          <path id="Trazado_4623" data-name="Trazado 4623" d="M1399.688,1071.378c8.086,9.979,29.92,29.773,40.654,33.182C1418.282,1092.856,1399.688,1071.378,1399.688,1071.378Z" transform="translate(-1394.995 -1022.365)" fill="#1b5b44"/>
        </g>
        <path id="Trazado_4624" data-name="Trazado 4624" d="M2028.812,1120.069c-.062,1.693-25.757,10.889-26.849,9.19s-.806-21.248-2.261-22.345c7.9-3.159,22.071-7.885,26.587-9.568C2027.832,1101.309,2028.874,1118.375,2028.812,1120.069Z" transform="translate(-1896.807 -1044.082)" fill="#1f1f39" opacity="0.09"/>
      </g>
      <g id="Grupo_23114" data-name="Grupo 23114" transform="translate(280.922 335.331)">
        <path id="Trazado_4625" data-name="Trazado 4625" d="M1742.479,1356.213l.044-.015Z" transform="translate(-1738.216 -1274.342)" fill="#efa88f"/>
        <path id="Trazado_4626" data-name="Trazado 4626" d="M1750.059,1285.813l.044-.015Z" transform="translate(-1744.555 -1215.464)" fill="#efa88f"/>
        <path id="Trazado_4627" data-name="Trazado 4627" d="M1926.508,887.6v66.087c-12.8.889-25.8,1.352-38.578,1.56q-6.5.106-12.9.128h0q-3.646.015-7.245.01h-.1c-8.72-.013-17.21-.111-25.314-.232,0,0-48.252,14.64-73.447,23.429a21.4,21.4,0,0,1-12.584.457c-7.538-2.028-20.643-5.512-33.478-8.7-2.16-.537-4.316-1.065-6.434-1.578,8.781-3.236,27.452-9.1,48.342-15.889-.036-.2,2.864-1.787,6.859-4.183l0,0c10.174-6.1,27.434-17.488,21.3-24.82-7.247-6.566-18.125-6.406-27.118-9a31.531,31.531,0,0,1-15.923-9.359,37.479,37.479,0,0,1-4.44-6.123c-1.352-1.833-1.75-3.975.342-5.774,0,0,0,0,0,0,3.406-3.219,9.218-1.755,13.858-1.665,25.4,1.946,54.624,5.126,79.661,12.65a27.376,27.376,0,0,0,16.177.5c2.967-.728,5.92-1.453,8.933-2.195l15.337-3.771q6.319-1.556,12.725-3.134h0C1903.7,893.237,1915.079,890.427,1926.508,887.6Z" transform="translate(-1716.43 -882.438)" fill="#efa88f"/>
        <path id="Trazado_4628" data-name="Trazado 4628" d="M2676.632,967.946v14.527c-10.237.885-26.187,2.25-37.406,3.129-8.119.638-13.759,1.02-12.969.786l-1.1-5.419-.007-.036-1.2-5.923-9.407-46.545v0l-.692-3.429c-2.926.151,7.393-2.417,15.948-4.458,5.527-1.318,10.318-2.416,10.318-2.416l2.489,3.4v0h0l33.228,45.31Z" transform="translate(-2466.554 -907.996)" fill="#fff"/>
        <path id="Trazado_4629" data-name="Trazado 4629" d="M2760.494,856.06v79.891c-14.3,1.43-26.239,2.6-31.725,3.067-1.7.147-2.784.226-3.121.226-.269,0-.556-.286-.863-.822a23.143,23.143,0,0,1-1.7-4.756c-.376-1.376-.764-2.967-1.157-4.732,0-.021-.01-.043-.015-.065-.537-2.412-1.083-5.141-1.629-8.075-2.993-16.131-5.91-38.434-6.538-48.038a29,29,0,0,1-.082-4.115v0c.031-.327.089-.525.165-.579C2714.511,867.59,2735.385,862.306,2760.494,856.06Z" transform="translate(-2550.417 -856.06)" fill="#5dc2ae"/>
      </g>
      <path id="Trazado_4630" data-name="Trazado 4630" d="M2592.5,1215.17v21.116c-14.3,1.43-26.239,2.6-31.725,3.067l-3.983-.6a23.125,23.125,0,0,1-1.7-4.756c-8.12.638-13.76,1.02-12.969.786l-1.1-5.419c-2.524,0-4.946-.01-7.252-.026h-.1c-8.859-.064-16.036-.223-20.927-.257q13.871-3.17,27.072-5.676,6.324-1.21,12.468-2.28c13.925-2.431,27.126-4.35,39.416-5.863C2591.969,1215.234,2592.233,1215.2,2592.5,1215.17Z" transform="translate(-2101.497 -821.065)" fill="#1f1f39" opacity="0.12"/>
      <path id="Trazado_4631" data-name="Trazado 4631" d="M1771.63,1260.848c-10.089,10.722-34.3,17.82-48.768,21.65-2.16-.537-4.316-1.066-6.434-1.578,8.781-3.236,27.452-9.1,48.342-15.889C1764.735,1264.827,1767.635,1263.244,1771.63,1260.848Z" transform="translate(-1435.507 -859.267)" fill="#1f1f39" fill-rule="evenodd" opacity="0.16"/>
      <path id="Trazado_4632" data-name="Trazado 4632" d="M123.829,1347.377c-14.971,2.538-26.483,2.548-45.688,5.517-1.35.208-2.831.4-4.43.578-1.083,3.152-2.3,5.111-3.6,5.293-1.676.234-8.746,1.018-18.885,2.079a11.426,11.426,0,0,1-1.836,4.3c-1.638,1.777-22.959,3.743-49.393,5.416V1345.69c18.458-.151,36.761-.17,53.774-.056,7.588.051,14.921.129,21.9.234C95.3,1346.159,112.1,1346.662,123.829,1347.377Z" transform="translate(0 -930.115)" fill="#1f1f39" opacity="0.12"/>
    </g>
  </g>
</svg>
