<svg xmlns="http://www.w3.org/2000/svg" width="446.694" height="243.542" viewBox="0 0 446.694 243.542">
  <g id="Grupo_23276" data-name="Grupo 23276" transform="translate(-417.602 -488.963)">
    <path id="Trazado_4761" data-name="Trazado 4761" d="M842.723,1521.544c0,4.4,50.341,9.5,108.345,9.5s105.025-3.564,105.025-7.961-47.022-7.961-105.025-7.961S842.723,1517.147,842.723,1521.544Z" transform="translate(-339.157 -818.661)" fill="#32323f" opacity="0.19"/>
    <path id="Trazado_4762" data-name="Trazado 4762" d="M1066.171,697.55c-8.291,15.061-175.258,5.739-184.137,3.755-14.535-3.248-12.153-189.2-3.945-202.554,9.844-16.017,180.095-9.732,187.035.093,1.478,2.093,2.734,6.493,3.783,12.624,2.679,15.663,4.012,42.626,4.277,71.287C1073.655,633.3,1070.8,689.132,1066.171,697.55Z" transform="translate(-362.133 0)" fill="#4a4a5b"/>
    <g id="Grupo_23182" data-name="Grupo 23182" transform="translate(770.277 510.166)">
      <path id="Trazado_4763" data-name="Trazado 4763" d="M2277.775,737.118a1.263,1.263,0,0,0,.244,2.5c3.224.037,6.081-.639,6.014-2.218C2283.978,736.067,2280.834,736.438,2277.775,737.118Z" transform="translate(-2253.515 -707.651)" fill="#f4ad00"/>
      <path id="Trazado_4764" data-name="Trazado 4764" d="M2163.8,604.849a1.264,1.264,0,0,0,2.459-.37c.183-5.318-.983-10.931-3.527-10.648C2160.571,594.071,2162.252,600.277,2163.8,604.849Z" transform="translate(-2161.703 -593.821)" fill="#f4ad00"/>
      <path id="Trazado_4765" data-name="Trazado 4765" d="M2257.025,666.226a1.264,1.264,0,0,0,1.3,2.117c4.962-1.916,9.668-5.192,8.407-7.424C2265.666,659.025,2260.62,663.01,2257.025,666.226Z" transform="translate(-2237.407 -646.96)" fill="#f4ad00"/>
      <path id="Trazado_4766" data-name="Trazado 4766" d="M2236.893,635a1.263,1.263,0,0,0,2.1,1.4c1.192-1.673,1.742-3.232.885-3.922C2239.145,631.9,2238,633.212,2236.893,635Z" transform="translate(-2221.525 -624.551)" fill="#f4ad00"/>
    </g>
    <g id="Grupo_23183" data-name="Grupo 23183" transform="translate(518.934 513.791)">
      <path id="Trazado_4767" data-name="Trazado 4767" d="M926.271,621.972v.047c-.012,2.232-.057,4.722-.121,7.33-.018.744-.04,1.5-.061,2.259-.107,3.656-.251,7.466-.412,11.075q-.049,1.141-.1,2.249c-.1,2.131-.206,4.162-.313,6.014l-.018.334c-.289,5.017-.576,8.648-.766,9.281s-2.675.969-4.2.459a2.187,2.187,0,0,1-.827-.459c-.356-.34-.56-2.046-.655-4.633a.3.3,0,0,0,0-.04c-.036-1-.055-2.137-.061-3.375,0-.309,0-.625,0-.946.008-8.325.568-20.664,1.011-29.391.014-.326.03-.643.049-.958.079-1.567.154-3,.22-4.25,0-.055.006-.107.008-.16.119-2.23.206-3.858.236-4.6,0,0,.542-.148,1.3-.275,1.262-.212,3.126-.372,4.129.275C926.147,612.507,926.3,616.452,926.271,621.972Z" transform="translate(-918.724 -611.746)" fill="#1f1f39"/>
      <path id="Trazado_4768" data-name="Trazado 4768" d="M921.552,612.665c-.2,9.247-.93,40.881-1.282,49.087a2.188,2.188,0,0,1-.827-.459c-1.925-1.828.6-43.578.8-48.352C920.247,612.94,920.789,612.792,921.552,612.665Z" transform="translate(-918.723 -612.479)" fill="#fff" opacity="0.16"/>
    </g>
    <path id="Trazado_4769" data-name="Trazado 4769" d="M2147.145,1582.957c0,6.712-18.729,14.505-40.309,14.505s-39.074-5.441-39.074-12.154,17.494-12.154,39.074-12.154S2147.145,1576.244,2147.145,1582.957Z" transform="translate(-1316.481 -864.958)" fill="#32323f" opacity="0.14"/>
    <g id="Grupo_23187" data-name="Grupo 23187" transform="translate(752.144 698.262)">
      <g id="Grupo_23184" data-name="Grupo 23184" transform="translate(0 0)">
        <path id="Trazado_4770" data-name="Trazado 4770" d="M2146.936,1544.711c-4.564,7.567-18.679,10.536-36.606,10.431-1.1-.007-2.2-.024-3.281-.055a99.765,99.765,0,0,1-17.131-1.744c-.189-.041-.381-.077-.567-.118a42.117,42.117,0,0,1-7.993-2.468c-3.735-1.626-6.553-3.778-8.09-6.561-.938-1.7-.921-5.46-.906-7.563a4.707,4.707,0,0,1,.091-.9q.022-.123.053-.246a5.251,5.251,0,0,1,.548-1.337,5.916,5.916,0,0,1,.635-.909c3.218-3.921,12.037-6.536,23.427-7.6.043,0,.083-.006.126-.013q1.706-.156,3.482-.268c.9-.056,1.824-.1,2.751-.141.62-.025,1.244-.046,1.875-.064q2.361-.066,4.8-.05c.325,0,.649,0,.973.009.646.007,1.289.018,1.929.036.319.006.637.015.953.027.634.021,1.263.047,1.889.072,17.478.8,30.99,4.781,31.865,11.132a5.019,5.019,0,0,1,.045.688C2147.8,1538.637,2148.026,1542.9,2146.936,1544.711Z" transform="translate(-2072.29 -1524.889)" fill="#db9507"/>
        <ellipse id="Elipse_1295" data-name="Elipse 1295" cx="11.746" cy="37.725" rx="11.746" ry="37.725" transform="translate(0 23.491) rotate(-89.664)" fill="#f4ad00"/>
        <path id="Trazado_4771" data-name="Trazado 4771" d="M2125.424,1629.536a43.037,43.037,0,0,1-8.561-2.585c.073-1.215.231-3.14.284-6.337a58.957,58.957,0,0,0,8.451,2.292A65.094,65.094,0,0,1,2125.424,1629.536Z" transform="translate(-2107.797 -1601.082)" fill="#f4bb47"/>
        <path id="Trazado_4772" data-name="Trazado 4772" d="M2174.082,1639.891a99.752,99.752,0,0,1-17.131-1.744c-.189-.04-.382-.077-.568-.118-.032-1.426.23-3.935.283-6.622a123.2,123.2,0,0,0,18.037,1.953A40.884,40.884,0,0,1,2174.082,1639.891Z" transform="translate(-2139.323 -1609.693)" fill="#f2b225"/>
      </g>
      <g id="Grupo_23186" data-name="Grupo 23186" transform="translate(13.756 4.56)">
        <g id="Grupo_23185" data-name="Grupo 23185" transform="translate(3.04)">
          <path id="Trazado_4773" data-name="Trazado 4773" d="M2171.635,1546.66a26.14,26.14,0,0,0-4.107.756,27.61,27.61,0,0,0-4.516,1.611,22.672,22.672,0,0,0-2.343,1.236q-1.007.609-1.969,1.329a17.9,17.9,0,0,0-1.868,1.587,7.087,7.087,0,0,0-1.447,1.9,1.99,1.99,0,0,0,.4,2.581,7.313,7.313,0,0,0,3.911,1.355,20.476,20.476,0,0,0,5.8-.114,27.808,27.808,0,0,0,5.653-1.546q2-.782,4.267-1.895c.564-.275,1.138-.568,1.725-.875q2.162-1.138,3.69-1.847l.339-.156a16.8,16.8,0,0,1,3.336-1.115,9.931,9.931,0,0,1,3.384-.174,5.424,5.424,0,0,1,1.137.251.055.055,0,0,1,.016.006q.995.36,1.1,1.113a1.691,1.691,0,0,1-.359,1.175,6.731,6.731,0,0,1-1.492,1.441,12.2,12.2,0,0,1-2.494,1.458c-.187.081-.371.154-.559.223a16.3,16.3,0,0,1-2.849.773h0c-.1.019-.2.034-.306.05q-1.568.237-3.594.36a16.336,16.336,0,0,0-2.875.382,5.161,5.161,0,0,0-1.894.821q-.88.661-.569,1.2t1.542.687a19.728,19.728,0,0,0,4.5-.071q.4-.045.82-.1a32.415,32.415,0,0,0,6.067-1.409c.254-.087.505-.177.75-.271a26.4,26.4,0,0,0,4.2-2,25.715,25.715,0,0,0,2.366-1.579,17.953,17.953,0,0,0,1.589-1.323,8.669,8.669,0,0,0,1.389-1.613.31.31,0,0,0,.022-.038,4.262,4.262,0,0,0,.384-.759,2.274,2.274,0,0,0,0-1.872c0-.006-.005-.011-.009-.017a2.53,2.53,0,0,0-.734-.86,6.856,6.856,0,0,0-2.635-1.138l-.031-.007a16.092,16.092,0,0,0-1.755-.307,22.76,22.76,0,0,0-2.386-.173c-.162,0-.326-.006-.486-.006a20.125,20.125,0,0,0-2.011.1,24.265,24.265,0,0,0-4.561.9,37.031,37.031,0,0,0-4.54,1.708q-1.573.71-3.249,1.549-.8.4-1.623.83-2.074,1.057-3.027,1.51c-.266.127-.543.252-.835.374q-.6.253-1.279.494a13.268,13.268,0,0,1-2.259.6,7.278,7.278,0,0,1-2.1.06q-1.625-.2-1.707-1.144a1.4,1.4,0,0,1,.267-.876,5.609,5.609,0,0,1,1.4-1.378,12.088,12.088,0,0,1,2.61-1.517,9.392,9.392,0,0,1,1.187-.4,26.546,26.546,0,0,1,4.419-.73,24.167,24.167,0,0,0,2.782-.421,4.66,4.66,0,0,0,1.759-.81q.849-.637.448-1.185a2.27,2.27,0,0,0-1.611-.7A15.164,15.164,0,0,0,2171.635,1546.66Z" transform="translate(-2155.093 -1546.573)" fill="#e55845"/>
        </g>
        <path id="Trazado_4774" data-name="Trazado 4774" d="M2186.45,1568.051l-2.38,1.785a3,3,0,0,1-1.882.424l-41.525-5.1c-.624-.077-.793-.391-.379-.7l2.381-1.785a3,3,0,0,1,1.882-.424l41.525,5.1C2186.7,1567.426,2186.865,1567.74,2186.45,1568.051Z" transform="translate(-2140.058 -1559.062)" fill="#e55845"/>
      </g>
    </g>
    <path id="Trazado_4775" data-name="Trazado 4775" d="M2415.7,1418.777c0,4.521-12.616,9.771-27.152,9.771s-26.32-3.665-26.32-8.187,11.784-8.186,26.32-8.186S2415.7,1414.256,2415.7,1418.777Z" transform="translate(-1551.4 -736.529)" fill="#32323f" opacity="0.14"/>
    <g id="Grupo_23191" data-name="Grupo 23191" transform="translate(811.406 668.953)">
      <g id="Grupo_23188" data-name="Grupo 23188" transform="translate(0 0)">
        <path id="Trazado_4776" data-name="Trazado 4776" d="M2415.555,1393.015c-3.074,5.1-12.582,7.1-24.657,7.026-.742,0-1.481-.016-2.21-.037a67.185,67.185,0,0,1-11.54-1.175c-.127-.027-.257-.052-.382-.079a28.4,28.4,0,0,1-5.384-1.662,10.912,10.912,0,0,1-5.449-4.42c-.632-1.145-.62-3.678-.61-5.095a3.194,3.194,0,0,1,.062-.6c.01-.055.021-.11.036-.166a3.54,3.54,0,0,1,.368-.9,4,4,0,0,1,.428-.612c2.167-2.641,8.108-4.4,15.781-5.116.029,0,.056,0,.085-.009q1.149-.1,2.345-.181c.609-.037,1.229-.07,1.853-.095.418-.017.837-.031,1.263-.043q1.59-.045,3.236-.034c.219,0,.437,0,.656.006.435.005.868.012,1.3.024.214,0,.429.01.642.018q.641.022,1.272.048c11.773.54,20.875,3.22,21.464,7.5a3.418,3.418,0,0,1,.031.464C2416.135,1388.924,2416.289,1391.8,2415.555,1393.015Z" transform="translate(-2365.274 -1379.663)" fill="#db9507"/>
        <ellipse id="Elipse_1296" data-name="Elipse 1296" cx="7.912" cy="25.411" rx="7.912" ry="25.411" transform="translate(0 15.823) rotate(-89.664)" fill="#f4ad00"/>
        <path id="Trazado_4777" data-name="Trazado 4777" d="M2401.065,1450.152a29.011,29.011,0,0,1-5.767-1.741c.05-.819.156-2.115.191-4.269a39.682,39.682,0,0,0,5.693,1.544A43.78,43.78,0,0,1,2401.065,1450.152Z" transform="translate(-2389.191 -1430.985)" fill="#f4bb47"/>
        <path id="Trazado_4778" data-name="Trazado 4778" d="M2433.84,1457.127a67.185,67.185,0,0,1-11.54-1.174c-.127-.027-.257-.052-.382-.079-.021-.961.155-2.65.19-4.461a82.918,82.918,0,0,0,12.15,1.315A27.528,27.528,0,0,1,2433.84,1457.127Z" transform="translate(-2410.427 -1436.785)" fill="#f2b225"/>
      </g>
      <g id="Grupo_23190" data-name="Grupo 23190" transform="translate(9.266 3.072)" opacity="0.85">
        <g id="Grupo_23189" data-name="Grupo 23189" transform="translate(2.048)">
          <path id="Trazado_4779" data-name="Trazado 4779" d="M2432.192,1394.328a17.612,17.612,0,0,0-2.766.51,18.594,18.594,0,0,0-3.042,1.085,15.223,15.223,0,0,0-1.579.832q-.679.41-1.326.9a12.055,12.055,0,0,0-1.258,1.069,4.766,4.766,0,0,0-.974,1.283,1.34,1.34,0,0,0,.269,1.739,4.929,4.929,0,0,0,2.635.913,13.8,13.8,0,0,0,3.909-.077,18.764,18.764,0,0,0,3.807-1.042q1.348-.527,2.874-1.276c.38-.186.766-.382,1.162-.589q1.456-.767,2.486-1.244l.228-.105a11.324,11.324,0,0,1,2.247-.751,6.685,6.685,0,0,1,2.279-.117,3.648,3.648,0,0,1,.766.169.028.028,0,0,1,.011,0q.67.243.74.75a1.139,1.139,0,0,1-.242.791,4.537,4.537,0,0,1-1,.971,8.224,8.224,0,0,1-1.68.982c-.126.054-.25.1-.377.15a11,11,0,0,1-1.92.521h0c-.07.013-.137.023-.207.034q-1.056.159-2.421.243a11,11,0,0,0-1.937.257,3.481,3.481,0,0,0-1.276.553q-.593.446-.383.806t1.039.463a13.289,13.289,0,0,0,3.033-.048q.269-.03.552-.069a21.792,21.792,0,0,0,4.087-.949c.171-.059.34-.119.505-.182a17.8,17.8,0,0,0,2.826-1.345,17.4,17.4,0,0,0,1.594-1.064,12.226,12.226,0,0,0,1.071-.891,5.848,5.848,0,0,0,.935-1.086.148.148,0,0,0,.015-.025,2.839,2.839,0,0,0,.259-.511,1.533,1.533,0,0,0,0-1.261s0-.008-.006-.012a1.707,1.707,0,0,0-.494-.579,4.619,4.619,0,0,0-1.774-.767l-.021,0a10.842,10.842,0,0,0-1.182-.207,15.33,15.33,0,0,0-1.607-.116c-.109,0-.22,0-.327,0-.459,0-.912.024-1.355.068a16.337,16.337,0,0,0-3.072.605,24.967,24.967,0,0,0-3.058,1.15q-1.059.478-2.188,1.043-.541.269-1.093.558-1.4.712-2.039,1.018c-.179.085-.365.17-.562.252q-.406.171-.862.333a8.944,8.944,0,0,1-1.521.4,4.909,4.909,0,0,1-1.414.04q-1.094-.135-1.149-.771a.945.945,0,0,1,.18-.59,3.779,3.779,0,0,1,.941-.928,8.139,8.139,0,0,1,1.758-1.022,6.341,6.341,0,0,1,.8-.271,17.883,17.883,0,0,1,2.977-.492,16.352,16.352,0,0,0,1.874-.283,3.136,3.136,0,0,0,1.184-.546q.572-.429.3-.8a1.529,1.529,0,0,0-1.085-.468A10.232,10.232,0,0,0,2432.192,1394.328Z" transform="translate(-2421.049 -1394.27)" fill="#e55845"/>
        </g>
        <path id="Trazado_4780" data-name="Trazado 4780" d="M2442.171,1408.737l-1.6,1.2a2.018,2.018,0,0,1-1.267.286l-27.971-3.438c-.42-.052-.534-.264-.255-.473l1.6-1.2a2.017,2.017,0,0,1,1.267-.286l27.971,3.438C2442.337,1408.316,2442.451,1408.528,2442.171,1408.737Z" transform="translate(-2410.922 -1402.682)" fill="#e55845"/>
      </g>
    </g>
    <path id="Trazado_4781" data-name="Trazado 4781" d="M2322.4,1299.323c0,2.765-7.716,5.976-16.606,5.976s-16.1-2.242-16.1-5.007,7.207-5.007,16.1-5.007S2322.4,1296.558,2322.4,1299.323Z" transform="translate(-1493.539 -643.276)" fill="#32323f" opacity="0.14"/>
    <g id="Grupo_23195" data-name="Grupo 23195" transform="translate(796.515 647.916)">
      <g id="Grupo_23192" data-name="Grupo 23192" transform="translate(0 0)">
        <path id="Trazado_4782" data-name="Trazado 4782" d="M2322.315,1283.567c-1.88,3.117-7.695,4.34-15.08,4.3-.454,0-.906-.01-1.352-.023a41.1,41.1,0,0,1-7.057-.718l-.234-.049a17.345,17.345,0,0,1-3.293-1.016,6.672,6.672,0,0,1-3.332-2.7,8.075,8.075,0,0,1-.373-3.116,1.975,1.975,0,0,1,.037-.37c.006-.034.014-.068.022-.1a2.176,2.176,0,0,1,.226-.551,2.44,2.44,0,0,1,.261-.375c1.326-1.615,4.959-2.693,9.652-3.129l.052-.006q.7-.064,1.434-.111.559-.034,1.133-.058c.256-.01.512-.019.772-.026q.973-.028,1.979-.021l.4,0c.266,0,.531.007.795.015q.2,0,.393.011l.778.029c7.2.33,12.766,1.969,13.127,4.586a2.068,2.068,0,0,1,.018.284A7.825,7.825,0,0,1,2322.315,1283.567Z" transform="translate(-2291.564 -1275.401)" fill="#db9507"/>
        <ellipse id="Elipse_1297" data-name="Elipse 1297" cx="4.839" cy="15.541" rx="4.839" ry="15.541" transform="matrix(0.006, -1, 1, 0.006, 0, 9.677)" fill="#f4ad00"/>
        <path id="Trazado_4783" data-name="Trazado 4783" d="M2313.453,1318.512a17.734,17.734,0,0,1-3.527-1.065c.03-.5.1-1.293.117-2.611a24.284,24.284,0,0,0,3.481.944A26.91,26.91,0,0,1,2313.453,1318.512Z" transform="translate(-2306.191 -1306.79)" fill="#f4bb47"/>
        <path id="Trazado_4784" data-name="Trazado 4784" d="M2333.5,1322.777a41.051,41.051,0,0,1-7.057-.719l-.234-.048c-.013-.587.094-1.621.116-2.728a50.718,50.718,0,0,0,7.43.8A16.783,16.783,0,0,1,2333.5,1322.777Z" transform="translate(-2319.179 -1310.336)" fill="#f2b225"/>
      </g>
      <g id="Grupo_23194" data-name="Grupo 23194" transform="translate(5.667 1.879)" opacity="0.85">
        <g id="Grupo_23193" data-name="Grupo 23193" transform="translate(1.252)">
          <path id="Trazado_4785" data-name="Trazado 4785" d="M2332.491,1284.37a10.734,10.734,0,0,0-1.692.312,11.382,11.382,0,0,0-1.861.664,9.342,9.342,0,0,0-.965.509q-.415.251-.811.547a7.452,7.452,0,0,0-.77.654,2.934,2.934,0,0,0-.6.784.82.82,0,0,0,.164,1.064,3.015,3.015,0,0,0,1.611.558,8.438,8.438,0,0,0,2.391-.047,11.473,11.473,0,0,0,2.329-.637q.825-.322,1.758-.781c.233-.113.469-.234.711-.361q.891-.468,1.52-.761l.139-.064a6.92,6.92,0,0,1,1.375-.459,4.087,4.087,0,0,1,1.394-.072,2.23,2.23,0,0,1,.469.1l.007,0q.41.148.452.458a.7.7,0,0,1-.148.484,2.778,2.778,0,0,1-.615.593,5.009,5.009,0,0,1-1.027.6c-.077.033-.153.063-.231.092a6.709,6.709,0,0,1-1.173.318h0l-.126.021c-.431.065-.923.115-1.48.149a6.747,6.747,0,0,0-1.185.157,2.127,2.127,0,0,0-.78.338q-.363.272-.235.493t.635.283a8.134,8.134,0,0,0,1.855-.029q.164-.018.338-.042a13.307,13.307,0,0,0,2.5-.58c.1-.036.208-.073.309-.111a10.851,10.851,0,0,0,1.729-.823,10.549,10.549,0,0,0,.975-.65,7.465,7.465,0,0,0,.655-.545,3.571,3.571,0,0,0,.572-.665.091.091,0,0,0,.009-.016,1.753,1.753,0,0,0,.158-.313.936.936,0,0,0,0-.771s0-.005,0-.007a1.034,1.034,0,0,0-.3-.355,2.819,2.819,0,0,0-1.085-.469l-.013,0a6.553,6.553,0,0,0-.723-.126,9.385,9.385,0,0,0-.983-.071c-.067,0-.134,0-.2,0a8.271,8.271,0,0,0-.829.042,10.006,10.006,0,0,0-1.879.37,15.275,15.275,0,0,0-1.87.7q-.648.292-1.338.638-.33.164-.668.342-.854.436-1.247.622c-.109.052-.223.1-.344.154q-.249.1-.527.2a5.459,5.459,0,0,1-.93.246,3,3,0,0,1-.865.025q-.669-.082-.7-.471a.582.582,0,0,1,.11-.361,2.308,2.308,0,0,1,.576-.568,4.975,4.975,0,0,1,1.075-.625,3.849,3.849,0,0,1,.489-.166,10.956,10.956,0,0,1,1.82-.3,9.963,9.963,0,0,0,1.146-.173,1.921,1.921,0,0,0,.725-.334q.349-.262.185-.488a.934.934,0,0,0-.663-.286A6.246,6.246,0,0,0,2332.491,1284.37Z" transform="translate(-2325.676 -1284.334)" fill="#e55845"/>
        </g>
        <path id="Trazado_4786" data-name="Trazado 4786" d="M2338.594,1293.182l-.981.735a1.234,1.234,0,0,1-.775.175l-17.107-2.1c-.257-.032-.327-.161-.156-.289l.981-.735a1.233,1.233,0,0,1,.775-.175l17.107,2.1C2338.695,1292.925,2338.764,1293.055,2338.594,1293.182Z" transform="translate(-2319.481 -1289.479)" fill="#e55845"/>
      </g>
    </g>
    <path id="Trazado_4787" data-name="Trazado 4787" d="M1821.608,671.544c-.966-.21-1.986-.435-3-.665a55.909,55.909,0,0,1-8.084-2.214c-.212-.109-.38-.694-.51-1.67-.03-.239-.061-.5-.087-.787-.085-.89-.148-1.994-.194-3.276q-.015-.488-.028-1.007c-.046-1.765-.064-3.81-.056-6.05,0-1.064.01-2.174.02-3.32.008-.722.018-1.46.028-2.208.008-.629.018-1.268.03-1.913.014-.894.032-1.8.051-2.722.028-1.32.059-2.661.093-4.012.014-.594.03-1.193.044-1.792.049-1.81.1-3.63.15-5.437.048-1.674.1-3.334.15-4.966.042-1.419.085-2.813.127-4.172.045-1.446.087-2.849.127-4.2q.034-1.037.063-2.03c.03-1,.059-1.959.083-2.875.01-.338.018-.667.028-.993.04-1.549.073-2.95.095-4.166,0-.089,0-.176,0-.263.038-2.247.032-3.818-.034-4.453-.324-3.047-.861-4.388,4.742-5.7q.843-.2,1.883-.4c.552,3.227,1.047,6.934,1.486,11.037.01.083.018.164.028.247,0,.008,0,.016,0,.024.01.1.02.192.03.289q.24,2.275.457,4.7c0,.026,0,.053.008.079.03.362.063.726.1,1.092.267,3.094.507,6.355.724,9.761.156,2.459.3,4.995.431,7.591q.115,2.281.216,4.622c.14,3.183.259,6.448.364,9.779q.073,2.375.135,4.792.051,2.017.1,4.056c.008.429.018.859.026,1.29q.006.27.012.54c0,.188.008.374.01.562q.04,1.981.069,3.979c0,.026,0,.053,0,.079Q1821.576,668.139,1821.608,671.544Z" transform="translate(-1110.557 -88.789)" fill="#1f1f39"/>
    <g id="Grupo_23202" data-name="Grupo 23202" transform="translate(706.983 549.742)">
      <g id="Grupo_23196" data-name="Grupo 23196" transform="translate(0 1.316)">
        <ellipse id="Elipse_1298" data-name="Elipse 1298" cx="25.158" cy="24.139" rx="25.158" ry="24.139" transform="matrix(0.874, -0.485, 0.485, 0.874, 0, 24.411)" fill="#db9507"/>
      </g>
      <g id="Grupo_23197" data-name="Grupo 23197" transform="translate(0.464 0)">
        <circle id="Elipse_1299" data-name="Elipse 1299" cx="24.139" cy="24.139" r="24.139" transform="translate(0 34.138) rotate(-45)" fill="#f4ad00"/>
      </g>
      <g id="Grupo_23200" data-name="Grupo 23200" transform="translate(23.903 20.96)">
        <g id="Grupo_23198" data-name="Grupo 23198" transform="translate(0 1.79)">
          <path id="Trazado_4788" data-name="Trazado 4788" d="M1988.525,912.718a6.809,6.809,0,0,1,1.179,3.756,7.191,7.191,0,0,1-1.2,3.944,11.887,11.887,0,0,1-3.614,3.524,11.127,11.127,0,0,1-5.449,2.038,7.524,7.524,0,0,1-3.522-.665,5.667,5.667,0,0,1-2.5-1.987,2.053,2.053,0,0,1,.615-2.891,1.793,1.793,0,0,1,1.314-.3,3.738,3.738,0,0,1,1.51.693,9.423,9.423,0,0,0,1.819,1.02,3.886,3.886,0,0,0,1.886.226,5.32,5.32,0,0,0,2.314-.949,5.541,5.541,0,0,0,2.3-2.683,2.925,2.925,0,0,0-.248-2.749,2.568,2.568,0,0,0-1.622-1.178,4.54,4.54,0,0,0-2.126.085q-1.141.3-2.936.969a21.846,21.846,0,0,1-4.251,1.163,6.791,6.791,0,0,1-3.411-.31,5.551,5.551,0,0,1-2.68-2.264,5.768,5.768,0,0,1-1-3.418,6.609,6.609,0,0,1,1.264-3.577,12.408,12.408,0,0,1,3.447-3.233,11.542,11.542,0,0,1,3.379-1.593,7.8,7.8,0,0,1,2.938-.249,5.881,5.881,0,0,1,2.273.711,4.254,4.254,0,0,1,1.435,1.311,2.223,2.223,0,0,1,.336,1.589,1.894,1.894,0,0,1-.866,1.378,1.7,1.7,0,0,1-1.248.339,5.421,5.421,0,0,1-1.488-.6,6.047,6.047,0,0,0-2.4-.876,4.451,4.451,0,0,0-2.786.956,4.929,4.929,0,0,0-2.011,2.286,2.329,2.329,0,0,0,.127,2.22,1.938,1.938,0,0,0,.98.795,3.192,3.192,0,0,0,1.353.152,6.978,6.978,0,0,0,1.438-.266q.68-.2,2.209-.735a35.326,35.326,0,0,1,3.525-1.112,10.887,10.887,0,0,1,3-.368,5.524,5.524,0,0,1,2.557.712A6.456,6.456,0,0,1,1988.525,912.718Z" transform="translate(-1966.898 -902.042)" fill="#e55845"/>
        </g>
        <g id="Grupo_23199" data-name="Grupo 23199" transform="translate(1.26)">
          <path id="Trazado_4789" data-name="Trazado 4789" d="M1992.268,918.662l-2.071,1.367a.784.784,0,0,1-1.086-.223l-15.854-24.031a.785.785,0,0,1,.223-1.087l2.071-1.367a.785.785,0,0,1,1.087.223l15.854,24.031A.783.783,0,0,1,1992.268,918.662Z" transform="translate(-1973.127 -893.193)" fill="#e55845"/>
        </g>
      </g>
      <g id="Grupo_23201" data-name="Grupo 23201" transform="translate(13.516 14.372)">
        <circle id="Elipse_1300" data-name="Elipse 1300" cx="20.324" cy="20.324" r="20.324" fill="none" stroke="#e56e1f" stroke-miterlimit="10" stroke-width="4.312"/>
      </g>
    </g>
    <g id="Grupo_23209" data-name="Grupo 23209" transform="translate(722.588 605.375)">
      <g id="Grupo_23203" data-name="Grupo 23203" transform="translate(0 1.397)">
        <ellipse id="Elipse_1301" data-name="Elipse 1301" cx="26.704" cy="25.622" rx="26.704" ry="25.622" transform="matrix(0.874, -0.485, 0.485, 0.874, 0, 25.911)" fill="#db9507"/>
      </g>
      <g id="Grupo_23204" data-name="Grupo 23204" transform="translate(0.492 0)">
        <circle id="Elipse_1302" data-name="Elipse 1302" cx="25.622" cy="25.622" r="25.622" transform="translate(0 36.235) rotate(-45)" fill="#f4ad00"/>
      </g>
      <g id="Grupo_23207" data-name="Grupo 23207" transform="translate(25.371 22.247)">
        <g id="Grupo_23205" data-name="Grupo 23205" transform="translate(0 1.899)">
          <path id="Trazado_4790" data-name="Trazado 4790" d="M2074.287,1195.407a7.226,7.226,0,0,1,1.252,3.987,7.633,7.633,0,0,1-1.278,4.186,12.617,12.617,0,0,1-3.836,3.741,11.811,11.811,0,0,1-5.783,2.163,7.986,7.986,0,0,1-3.739-.706,6.016,6.016,0,0,1-2.649-2.109,2.179,2.179,0,0,1,.653-3.069,1.9,1.9,0,0,1,1.395-.316,3.966,3.966,0,0,1,1.6.735,10,10,0,0,0,1.931,1.083,4.124,4.124,0,0,0,2,.24,5.649,5.649,0,0,0,2.457-1.007,5.884,5.884,0,0,0,2.441-2.848,3.108,3.108,0,0,0-.263-2.918,2.73,2.73,0,0,0-1.721-1.251,4.819,4.819,0,0,0-2.257.09q-1.21.317-3.116,1.029a23.185,23.185,0,0,1-4.512,1.235,7.206,7.206,0,0,1-3.621-.329,5.89,5.89,0,0,1-2.844-2.4,6.121,6.121,0,0,1-1.064-3.628,7.01,7.01,0,0,1,1.342-3.8,13.169,13.169,0,0,1,3.659-3.431,12.244,12.244,0,0,1,3.587-1.691,8.277,8.277,0,0,1,3.119-.265,6.238,6.238,0,0,1,2.412.755,4.523,4.523,0,0,1,1.524,1.392,2.362,2.362,0,0,1,.357,1.687,2.011,2.011,0,0,1-.919,1.463,1.811,1.811,0,0,1-1.324.36,5.772,5.772,0,0,1-1.579-.639,6.418,6.418,0,0,0-2.545-.93,4.723,4.723,0,0,0-2.957,1.015,5.233,5.233,0,0,0-2.135,2.426,2.473,2.473,0,0,0,.135,2.357,2.061,2.061,0,0,0,1.04.844,3.39,3.39,0,0,0,1.436.161,7.4,7.4,0,0,0,1.527-.282c.481-.144,1.264-.4,2.344-.78a37.478,37.478,0,0,1,3.742-1.181,11.557,11.557,0,0,1,3.188-.39,5.867,5.867,0,0,1,2.714.756A6.855,6.855,0,0,1,2074.287,1195.407Z" transform="translate(-2051.332 -1184.076)" fill="#e55845"/>
        </g>
        <g id="Grupo_23206" data-name="Grupo 23206" transform="translate(1.337)">
          <path id="Trazado_4791" data-name="Trazado 4791" d="M2078.261,1201.716l-2.2,1.451a.833.833,0,0,1-1.153-.236l-16.828-25.507a.833.833,0,0,1,.237-1.153l2.2-1.451a.833.833,0,0,1,1.153.236l16.828,25.507A.831.831,0,0,1,2078.261,1201.716Z" transform="translate(-2057.944 -1174.682)" fill="#e55845"/>
        </g>
      </g>
      <g id="Grupo_23208" data-name="Grupo 23208" transform="translate(5.41 6.319)">
        <circle id="Elipse_1303" data-name="Elipse 1303" cx="21.573" cy="21.573" r="21.573" transform="translate(0 30.509) rotate(-45)" fill="none" stroke="#e56e1f" stroke-miterlimit="10" stroke-width="4.577"/>
      </g>
    </g>
    <g id="Grupo_23216" data-name="Grupo 23216" transform="translate(729.644 521.078)">
      <g id="Grupo_23210" data-name="Grupo 23210" transform="translate(0 1.397)">
        <ellipse id="Elipse_1304" data-name="Elipse 1304" cx="26.704" cy="25.622" rx="26.704" ry="25.622" transform="matrix(0.874, -0.485, 0.485, 0.874, 0, 25.911)" fill="#db9507"/>
      </g>
      <g id="Grupo_23211" data-name="Grupo 23211" transform="translate(0.492 0)">
        <circle id="Elipse_1305" data-name="Elipse 1305" cx="25.622" cy="25.622" r="25.622" transform="translate(0 36.235) rotate(-45)" fill="#f4ad00"/>
      </g>
      <g id="Grupo_23214" data-name="Grupo 23214" transform="translate(25.371 22.247)">
        <g id="Grupo_23212" data-name="Grupo 23212" transform="translate(0 1.9)">
          <path id="Trazado_4792" data-name="Trazado 4792" d="M2109.182,778.533a7.231,7.231,0,0,1,1.252,3.987,7.633,7.633,0,0,1-1.278,4.186,12.619,12.619,0,0,1-3.836,3.741,11.809,11.809,0,0,1-5.783,2.163,7.987,7.987,0,0,1-3.739-.706,6.016,6.016,0,0,1-2.649-2.109,2.179,2.179,0,0,1,.653-3.069,1.9,1.9,0,0,1,1.395-.316,3.964,3.964,0,0,1,1.6.735,10.009,10.009,0,0,0,1.931,1.083,4.124,4.124,0,0,0,2,.24,5.646,5.646,0,0,0,2.457-1.007,5.883,5.883,0,0,0,2.44-2.848,3.107,3.107,0,0,0-.263-2.918,2.729,2.729,0,0,0-1.722-1.251,4.822,4.822,0,0,0-2.257.09q-1.211.317-3.116,1.029a23.172,23.172,0,0,1-4.512,1.235,7.209,7.209,0,0,1-3.621-.329,5.894,5.894,0,0,1-2.844-2.4,6.123,6.123,0,0,1-1.064-3.628,7.013,7.013,0,0,1,1.342-3.8,13.16,13.16,0,0,1,3.659-3.431,12.235,12.235,0,0,1,3.587-1.691,8.281,8.281,0,0,1,3.119-.265,6.243,6.243,0,0,1,2.412.755,4.522,4.522,0,0,1,1.523,1.392,2.361,2.361,0,0,1,.357,1.687,2.009,2.009,0,0,1-.919,1.463,1.81,1.81,0,0,1-1.324.36,5.756,5.756,0,0,1-1.579-.639,6.422,6.422,0,0,0-2.546-.93,4.726,4.726,0,0,0-2.957,1.015,5.235,5.235,0,0,0-2.135,2.426,2.473,2.473,0,0,0,.135,2.357,2.06,2.06,0,0,0,1.04.844,3.391,3.391,0,0,0,1.436.161,7.394,7.394,0,0,0,1.526-.282q.722-.215,2.344-.78a37.488,37.488,0,0,1,3.742-1.18,11.544,11.544,0,0,1,3.188-.39,5.865,5.865,0,0,1,2.714.756A6.855,6.855,0,0,1,2109.182,778.533Z" transform="translate(-2086.227 -767.202)" fill="#e55845"/>
        </g>
        <g id="Grupo_23213" data-name="Grupo 23213" transform="translate(1.337)">
          <path id="Trazado_4793" data-name="Trazado 4793" d="M2113.156,784.841l-2.2,1.451a.833.833,0,0,1-1.154-.236l-16.828-25.507a.832.832,0,0,1,.236-1.153l2.2-1.451a.833.833,0,0,1,1.153.236l16.828,25.507A.831.831,0,0,1,2113.156,784.841Z" transform="translate(-2092.839 -757.807)" fill="#e55845"/>
        </g>
      </g>
      <g id="Grupo_23215" data-name="Grupo 23215" transform="translate(5.41 6.319)">
        <circle id="Elipse_1306" data-name="Elipse 1306" cx="21.573" cy="21.573" r="21.573" transform="translate(0 30.509) rotate(-45)" fill="none" stroke="#e56e1f" stroke-miterlimit="10" stroke-width="4.577"/>
      </g>
    </g>
    <g id="Grupo_23223" data-name="Grupo 23223" transform="translate(738.045 565.427)">
      <g id="Grupo_23217" data-name="Grupo 23217" transform="translate(0 0.069)">
        <ellipse id="Elipse_1307" data-name="Elipse 1307" cx="29.065" cy="27.888" rx="29.065" ry="27.888" transform="matrix(0.749, -0.663, 0.663, 0.749, 0, 38.536)" fill="#db9507"/>
      </g>
      <g id="Grupo_23218" data-name="Grupo 23218" transform="translate(1.691 0)">
        <circle id="Elipse_1308" data-name="Elipse 1308" cx="27.888" cy="27.888" r="27.888" transform="translate(0 39.439) rotate(-45)" fill="#f4ad00"/>
      </g>
      <g id="Grupo_23221" data-name="Grupo 23221" transform="translate(30.463 21.927)">
        <g id="Grupo_23219" data-name="Grupo 23219" transform="translate(0 3.964)">
          <path id="Trazado_4794" data-name="Trazado 4794" d="M2175.732,1012.311a7.863,7.863,0,0,1-.406,4.53,8.31,8.31,0,0,1-3.032,3.675,13.732,13.732,0,0,1-5.417,2.159,12.855,12.855,0,0,1-6.716-.239,8.693,8.693,0,0,1-3.464-2.27,6.545,6.545,0,0,1-1.782-3.226,2.372,2.372,0,0,1,1.937-2.813,2.07,2.07,0,0,1,1.534.264,4.316,4.316,0,0,1,1.3,1.408,10.914,10.914,0,0,0,1.49,1.894,4.491,4.491,0,0,0,1.912,1.077,6.144,6.144,0,0,0,2.89.013,6.4,6.4,0,0,0,3.642-1.844,3.382,3.382,0,0,0,.953-3.043,2.968,2.968,0,0,0-1.208-1.976,5.244,5.244,0,0,0-2.306-.852q-1.349-.187-3.562-.266a25.228,25.228,0,0,1-5.05-.642,7.841,7.841,0,0,1-3.5-1.842,6.411,6.411,0,0,1-1.856-3.6,6.667,6.667,0,0,1,.445-4.091,7.636,7.636,0,0,1,2.934-3.257,14.337,14.337,0,0,1,5.11-1.922,13.327,13.327,0,0,1,4.311-.2,9.006,9.006,0,0,1,3.245,1.036,6.8,6.8,0,0,1,2.111,1.765,4.926,4.926,0,0,1,.95,2.035,2.571,2.571,0,0,1-.345,1.845,2.188,2.188,0,0,1-1.535,1.087,1.971,1.971,0,0,1-1.481-.191,6.269,6.269,0,0,1-1.32-1.3,6.99,6.99,0,0,0-2.171-2,5.144,5.144,0,0,0-3.4-.214,5.7,5.7,0,0,0-3.158,1.548,2.691,2.691,0,0,0-.848,2.425,2.242,2.242,0,0,0,.693,1.282,3.693,3.693,0,0,0,1.376.761,8.054,8.054,0,0,0,1.652.354c.544.057,1.44.121,2.682.194a40.8,40.8,0,0,1,4.254.375,12.576,12.576,0,0,1,3.367.938,6.384,6.384,0,0,1,2.413,1.893A7.461,7.461,0,0,1,2175.732,1012.311Z" transform="translate(-2152.952 -995.148)" fill="#e55845"/>
        </g>
        <g id="Grupo_23220" data-name="Grupo 23220" transform="translate(5.548)">
          <path id="Trazado_4795" data-name="Trazado 4795" d="M2190.549,1010l-2.815.541a.906.906,0,0,1-1.06-.719l-6.27-32.664a.906.906,0,0,1,.719-1.061l2.815-.541a.907.907,0,0,1,1.061.719l6.27,32.664A.9.9,0,0,1,2190.549,1010Z" transform="translate(-2180.387 -975.544)" fill="#e55845"/>
        </g>
      </g>
      <g id="Grupo_23222" data-name="Grupo 23222" transform="translate(7.205 7.053)">
        <circle id="Elipse_1309" data-name="Elipse 1309" cx="23.48" cy="23.48" r="23.48" transform="translate(0 33.206) rotate(-45)" fill="none" stroke="#e56e1f" stroke-miterlimit="10" stroke-width="4.981"/>
      </g>
    </g>
    <g id="Grupo_23230" data-name="Grupo 23230" transform="translate(774.707 560.343)">
      <g id="Grupo_23224" data-name="Grupo 23224" transform="translate(0 0.064)">
        <ellipse id="Elipse_1310" data-name="Elipse 1310" cx="26.919" cy="25.828" rx="26.919" ry="25.828" transform="translate(0 35.69) rotate(-41.523)" fill="#db9507"/>
      </g>
      <g id="Grupo_23225" data-name="Grupo 23225" transform="translate(1.566 0)">
        <circle id="Elipse_1311" data-name="Elipse 1311" cx="25.828" cy="25.828" r="25.828" transform="translate(0 36.527) rotate(-45)" fill="#f4ad00"/>
      </g>
      <g id="Grupo_23228" data-name="Grupo 23228" transform="translate(25.792 23.604)">
        <g id="Grupo_23226" data-name="Grupo 23226" transform="translate(0 0.301)">
          <path id="Trazado_4796" data-name="Trazado 4796" d="M2327.17,983.383a7.284,7.284,0,0,1-3.708,2,7.7,7.7,0,0,1-4.387-.467,12.721,12.721,0,0,1-4.434-3.085,11.908,11.908,0,0,1-3.243-5.313,8.051,8.051,0,0,1-.013-3.836,6.065,6.065,0,0,1,1.583-3.024,2.2,2.2,0,0,1,3.162.061,1.92,1.92,0,0,1,.579,1.32,4,4,0,0,1-.423,1.726,10.07,10.07,0,0,0-.7,2.118,4.153,4.153,0,0,0,.144,2.027,5.689,5.689,0,0,0,1.465,2.24,5.929,5.929,0,0,0,3.285,1.873,3.132,3.132,0,0,0,2.838-.817,2.751,2.751,0,0,0,.91-1.943,4.863,4.863,0,0,0-.519-2.217q-.544-1.138-1.612-2.888a23.337,23.337,0,0,1-2.082-4.231,7.264,7.264,0,0,1-.365-3.647,5.94,5.94,0,0,1,1.837-3.274,6.175,6.175,0,0,1,3.389-1.744,7.071,7.071,0,0,1,4.015.605,13.28,13.28,0,0,1,4.094,2.968,12.352,12.352,0,0,1,2.357,3.229,8.347,8.347,0,0,1,.856,3.037,6.294,6.294,0,0,1-.288,2.532,4.559,4.559,0,0,1-1.087,1.773,2.381,2.381,0,0,1-1.6.675,2.026,2.026,0,0,1-1.623-.631,1.825,1.825,0,0,1-.609-1.243,5.811,5.811,0,0,1,.332-1.685,6.474,6.474,0,0,0,.436-2.7,4.764,4.764,0,0,0-1.568-2.734,5.278,5.278,0,0,0-2.809-1.651,2.493,2.493,0,0,0-2.307.583,2.077,2.077,0,0,0-.637,1.19,3.424,3.424,0,0,0,.114,1.452,7.494,7.494,0,0,0,.57,1.457q.351.674,1.219,2.172a37.749,37.749,0,0,1,1.881,3.479,11.64,11.64,0,0,1,.994,3.081,5.913,5.913,0,0,1-.231,2.831A6.908,6.908,0,0,1,2327.17,983.383Z" transform="translate(-2311.159 -960.183)" fill="#e55845"/>
        </g>
        <g id="Grupo_23227" data-name="Grupo 23227" transform="translate(0.005)">
          <path id="Trazado_4797" data-name="Trazado 4797" d="M2313.279,983.536l-1.855-1.9a.839.839,0,0,1,.014-1.186l22.043-21.518a.84.84,0,0,1,1.187.014l1.855,1.9a.84.84,0,0,1-.014,1.186l-22.043,21.518A.838.838,0,0,1,2313.279,983.536Z" transform="translate(-2311.185 -958.693)" fill="#e55845"/>
        </g>
      </g>
      <g id="Grupo_23229" data-name="Grupo 23229" transform="translate(6.673 6.532)">
        <circle id="Elipse_1312" data-name="Elipse 1312" cx="21.747" cy="21.747" r="21.747" transform="translate(0 30.755) rotate(-45)" fill="none" stroke="#e56e1f" stroke-miterlimit="10" stroke-width="4.614"/>
      </g>
    </g>
    <path id="Trazado_4798" data-name="Trazado 4798" d="M1844.486,671.544c-.966-.21-1.985-.435-3-.665-.693-16.379-2.645-62.038-2.981-66.665-.111-1.519-.2-2.655-.178-3.561q.843-.2,1.883-.4C1842.888,615.92,1844.221,642.883,1844.486,671.544Z" transform="translate(-1133.436 -88.789)" fill="#fff" opacity="0.25"/>
    <g id="Grupo_23242" data-name="Grupo 23242" transform="translate(699.088 521.978)">
      <g id="Grupo_23232" data-name="Grupo 23232" transform="translate(0 0.274)">
        <g id="Grupo_23231" data-name="Grupo 23231">
          <path id="Trazado_4799" data-name="Trazado 4799" d="M1823.078,706.646c-.125.061-.253.119-.38.178-.388.178-.78.346-1.173.505a29.718,29.718,0,0,1-11.512,2.216c-.03-.239-.061-.5-.087-.787-.085-.89-.148-1.994-.194-3.276q-.015-.488-.028-1.007c-.046-1.765-.064-3.81-.056-6.05,0-1.064.01-2.174.02-3.32.008-.722.018-1.46.028-2.208.008-.629.018-1.268.03-1.913.014-.894.032-1.8.051-2.722.028-1.32.059-2.661.093-4.012.014-.594.03-1.193.044-1.792.049-1.81.1-3.63.15-5.437.048-1.674.1-3.334.15-4.966.042-1.419.085-2.813.127-4.172.045-1.446.087-2.849.127-4.2q.034-1.037.063-2.03c.03-1,.059-1.959.083-2.875.01-.338.018-.667.028-.993.04-1.549.073-2.95.095-4.166a29.1,29.1,0,0,1,8.141.782,27.394,27.394,0,0,1,17.56,13.089c.06.109.121.218.182.33s.119.22.178.332c.073.138.143.277.214.417.14.275.273.554.4.833.022.047.044.091.065.138.042.1.087.192.129.287.012.032.026.063.04.095.047.1.091.206.135.311s.091.214.136.324c.054.129.105.261.156.392.044.109.085.218.125.33.049.127.1.257.142.386.034.1.067.188.1.283.055.158.109.318.16.475.018.053.034.1.05.156.04.121.077.243.113.364.014.038.026.079.036.117C1842.66,686.065,1836.155,700.454,1823.078,706.646Z" transform="translate(-1809.645 -653.593)" fill="#db9507" fill-rule="evenodd"/>
        </g>
      </g>
      <g id="Grupo_23234" data-name="Grupo 23234" transform="translate(0 0)">
        <g id="Grupo_23233" data-name="Grupo 23233">
          <path id="Trazado_4800" data-name="Trazado 4800" d="M1834.151,697.037a27.635,27.635,0,0,1-11.073,8.527q-.77.324-1.555.6a27.943,27.943,0,0,1-11.6,1.508c-.085-.89-.148-1.994-.194-3.276q-.015-.488-.028-1.007c-.046-1.765-.064-3.81-.056-6.05,0-1.064.01-2.174.02-3.32.008-.722.018-1.46.028-2.208.008-.629.018-1.268.03-1.913.014-.894.032-1.8.051-2.722.028-1.32.059-2.661.093-4.012.014-.594.03-1.193.044-1.792.049-1.81.1-3.63.15-5.437.048-1.674.1-3.334.15-4.966.042-1.419.085-2.813.127-4.172.045-1.446.087-2.849.127-4.2q.034-1.037.063-2.03c.03-1,.059-1.959.083-2.875.01-.338.018-.667.028-.993.04-1.549.073-2.95.095-4.166,0-.089,0-.176,0-.263a27.777,27.777,0,0,1,25.7,14.135c.06.109.121.218.182.33s.119.22.178.332c.073.138.143.277.214.417.14.275.273.554.4.833.022.047.044.091.065.138l.024.051c.034.079.069.158.105.237.012.032.026.063.04.1.047.1.091.206.135.311s.091.214.136.324c.054.129.105.261.156.392.044.109.085.218.125.33.049.127.1.257.142.386.034.1.067.188.1.283.055.158.109.317.16.475.018.053.034.1.05.156.04.121.077.243.113.364.014.038.026.079.036.117A27.719,27.719,0,0,1,1834.151,697.037Z" transform="translate(-1809.645 -652.237)" fill="#f4ad00" fill-rule="evenodd"/>
        </g>
      </g>
      <g id="Grupo_23239" data-name="Grupo 23239" transform="translate(0.002 10.342)">
        <g id="Grupo_23236" data-name="Grupo 23236" transform="translate(0.02 4.107)">
          <g id="Grupo_23235" data-name="Grupo 23235">
            <path id="Trazado_4801" data-name="Trazado 4801" d="M1822.795,780.481a7.841,7.841,0,0,1-1.535,3.984c-.055.071-.111.142-.168.212a8.253,8.253,0,0,1-3.953,2.619,12.179,12.179,0,0,1-3.7.584,17.356,17.356,0,0,1-2.091-.1c-.556-.059-1.088-.14-1.6-.239.008-.722.018-1.46.029-2.208.008-.629.018-1.268.03-1.913a7.61,7.61,0,0,0,1.816.392,7.887,7.887,0,0,0,2.255-.057,5.294,5.294,0,0,0,1.749-.641,3.367,3.367,0,0,0,1.791-2.621,2.962,2.962,0,0,0-.576-2.234,5.224,5.224,0,0,0-1.949-1.48l-.257-.117q-1.183-.525-3.057-1.171-.758-.264-1.444-.54c-.047-.018-.093-.036-.14-.057.048-1.81.1-3.63.15-5.437.18.115.36.222.544.319.206.111.417.21.629.3q.753.318,2.5.964.707.246,1.367.5,1.386.531,2.574,1.092a12.5,12.5,0,0,1,2.934,1.87c.069.061.133.121.2.182a6.341,6.341,0,0,1,1.549,2.321A7.41,7.41,0,0,1,1822.795,780.481Z" transform="translate(-1809.754 -760.203)" fill="#e56e1f"/>
            <path id="Trazado_4802" data-name="Trazado 4802" d="M1825.135,731.294a2.562,2.562,0,0,1-.863,1.658,2.182,2.182,0,0,1-1.438.6,2.4,2.4,0,0,1-.34-.012,1.969,1.969,0,0,1-1.357-.613,6.264,6.264,0,0,1-.878-1.624,6.965,6.965,0,0,0-1.488-2.532,2.986,2.986,0,0,0-.7-.524,6.67,6.67,0,0,0-2.467-.667,6.886,6.886,0,0,0-2.154.075,4.461,4.461,0,0,0-.993.323c.043-1.42.085-2.813.128-4.172.416-.055.845-.091,1.288-.105a17.411,17.411,0,0,1,2.5.1,15.958,15.958,0,0,1,2.134.364,10.961,10.961,0,0,1,2.03.7,10.218,10.218,0,0,1,1.868,1.1,7.754,7.754,0,0,1,.922.825,6.747,6.747,0,0,1,1.5,2.293A4.905,4.905,0,0,1,1825.135,731.294Z" transform="translate(-1811.908 -723.692)" fill="#e56e1f"/>
          </g>
        </g>
        <g id="Grupo_23238" data-name="Grupo 23238">
          <g id="Grupo_23237" data-name="Grupo 23237">
            <path id="Trazado_4803" data-name="Trazado 4803" d="M1816.62,704.681l-.35,3.278-.437,4.087-.724,6.782-.548,5.12-.758,7.094-.441,4.125-.261,2.443a.9.9,0,0,1-.993.8l-2.455-.263c0-1.064.01-2.174.02-3.32.008-.722.018-1.46.028-2.208.008-.629.018-1.268.03-1.913.014-.894.032-1.8.05-2.722.028-1.32.059-2.661.093-4.012l.184-1.735.554-5.175.6-5.609.423-3.953.354-3.312a.9.9,0,0,1,.993-.8l2.837.3A.9.9,0,0,1,1816.62,704.681Z" transform="translate(-1809.654 -703.382)" fill="#e55845"/>
          </g>
        </g>
      </g>
      <g id="Grupo_23241" data-name="Grupo 23241" transform="translate(0.058 4.46)">
        <g id="Grupo_23240" data-name="Grupo 23240">
          <path id="Trazado_4804" data-name="Trazado 4804" d="M1833.852,689.685a23.935,23.935,0,0,0-22.979-15.384c-.01.326-.018.655-.029.993q.349-.012.7-.012a22.713,22.713,0,0,1,8.127,1.508q.622.237,1.236.512a22.878,22.878,0,0,1,.758,41.38q-.973.482-2,.872a22.783,22.783,0,0,1-8.1,1.494c-.542,0-1.084-.02-1.622-.059q.012.519.029,1.007.794.055,1.6.055a23.769,23.769,0,0,0,8.459-1.559q.855-.325,1.668-.708A23.911,23.911,0,0,0,1833.852,689.685Z" transform="translate(-1809.934 -674.292)" fill="#e56e1f"/>
        </g>
      </g>
    </g>
    <g id="Grupo_23249" data-name="Grupo 23249" transform="translate(690.479 511.152)">
      <g id="Grupo_23243" data-name="Grupo 23243" transform="translate(8.667 4.996)">
        <path id="Trazado_4805" data-name="Trazado 4805" d="M1846.106,676.455c-.126.061-.253.119-.38.178a29.372,29.372,0,0,1-24.043.3,27.134,27.134,0,0,1-11.749-9.811c.02-1.5.049-3.053.081-4.635.172-8.2.469-17.212.692-24.577q.033-1.037.062-2.03a29.529,29.529,0,0,1,8.287-7.811,30.235,30.235,0,0,1,3.591-1.941c.156-.071.309-.14.465-.206,14.43-6.309,31.09-.366,37.395,13.433q.231.506.441,1.017C1866.5,653.979,1860.028,669.863,1846.106,676.455Z" transform="translate(-1809.934 -623.401)" fill="#db9507" fill-rule="evenodd"/>
      </g>
      <g id="Grupo_23244" data-name="Grupo 23244" transform="translate(8.748 4.722)">
        <path id="Trazado_4806" data-name="Trazado 4806" d="M1857.5,666.849a27.775,27.775,0,0,1-47.164-5.443c.172-8.2.469-17.212.692-24.577a27.982,27.982,0,0,1,8.377-9.595,27.414,27.414,0,0,1,4.028-2.394,27.775,27.775,0,0,1,37.33,13.3c.021.046.044.091.064.137l.023.052q.075.165.147.33c.093.211.184.423.271.635.1.24.192.481.282.722.049.129.095.258.141.387.034.094.067.188.1.282A27.736,27.736,0,0,1,1857.5,666.849Z" transform="translate(-1810.334 -622.05)" fill="#f4ad00" fill-rule="evenodd"/>
      </g>
      <g id="Grupo_23247" data-name="Grupo 23247" transform="translate(23.27 15.065)">
        <g id="Grupo_23245" data-name="Grupo 23245" transform="translate(0 4.106)">
          <path id="Trazado_4807" data-name="Trazado 4807" d="M1903.353,713.784a7.833,7.833,0,0,1-1.7,4.2,8.274,8.274,0,0,1-3.955,2.618,13.672,13.672,0,0,1-5.787.482,12.8,12.8,0,0,1-6.326-2.179,8.657,8.657,0,0,1-2.639-3.169,6.515,6.515,0,0,1-.76-3.589,2.361,2.361,0,0,1,2.661-2.116,2.063,2.063,0,0,1,1.384.7,4.3,4.3,0,0,1,.833,1.72,10.835,10.835,0,0,0,.868,2.237,4.47,4.47,0,0,0,1.508,1.581,6.12,6.12,0,0,0,2.749.852,6.374,6.374,0,0,0,4-.7,3.367,3.367,0,0,0,1.792-2.621c.093-.881.333-2.9-.147-3.5s-1.559.169-2.379-.211-1.926-.811-3.314-1.288a25.13,25.13,0,0,1-4.623-2.079,7.811,7.811,0,0,1-2.8-2.771,6.384,6.384,0,0,1-.721-3.97,6.637,6.637,0,0,1,1.612-3.767,7.6,7.6,0,0,1,3.74-2.249,14.272,14.272,0,0,1,5.425-.346,13.265,13.265,0,0,1,4.164,1.06,8.975,8.975,0,0,1,2.79,1.929,6.76,6.76,0,0,1,1.5,2.294,4.9,4.9,0,0,1,.314,2.214,2.559,2.559,0,0,1-.865,1.656,2.179,2.179,0,0,1-1.777.589,1.962,1.962,0,0,1-1.355-.612,6.256,6.256,0,0,1-.879-1.623,6.953,6.953,0,0,0-1.487-2.533,5.12,5.12,0,0,0-3.172-1.19,5.672,5.672,0,0,0-3.457.556,2.68,2.68,0,0,0-1.512,2.063,2.231,2.231,0,0,0,.288,1.422,3.672,3.672,0,0,0,1.089,1.125,7.99,7.99,0,0,0,1.47.817c.5.212,1.336.534,2.5.964a40.637,40.637,0,0,1,3.943,1.593,12.523,12.523,0,0,1,2.934,1.872,6.352,6.352,0,0,1,1.748,2.5A7.425,7.425,0,0,1,1903.353,713.784Z" transform="translate(-1882.155 -693.504)" fill="#e55845"/>
        </g>
        <g id="Grupo_23246" data-name="Grupo 23246" transform="translate(6.948)">
          <path id="Trazado_4808" data-name="Trazado 4808" d="M1920.159,708.226l-2.838-.3a.9.9,0,0,1-.8-.992L1920.039,674a.9.9,0,0,1,.992-.8l2.838.3a.9.9,0,0,1,.8.992l-3.519,32.927A.9.9,0,0,1,1920.159,708.226Z" transform="translate(-1916.515 -673.197)" fill="#e55845"/>
        </g>
      </g>
      <g id="Grupo_23248" data-name="Grupo 23248" transform="translate(0 0)">
        <circle id="Elipse_1313" data-name="Elipse 1313" cx="23.378" cy="23.378" r="23.378" transform="translate(0 33.061) rotate(-45)" fill="none" stroke="#e56e1f" stroke-miterlimit="10" stroke-width="4.96"/>
      </g>
    </g>
    <path id="Trazado_4809" data-name="Trazado 4809" d="M1963.719,1031.82c8.825-1.058,10.086-4.1,11.723-13.526,1.144,8.944,2.6,12.336,11.575,13.355-7.826,2.551-10.577,3.476-11.972,13.814C1973.117,1034.993,1971.4,1034.068,1963.719,1031.82Z" transform="translate(-1233.476 -422.295)" fill="#fff"/>
    <path id="Trazado_4810" data-name="Trazado 4810" d="M2286.165,777.538c13.52-1.621,15.451-6.28,17.96-20.722,1.752,13.7,3.988,18.9,17.734,20.461-11.991,3.908-16.2,5.326-18.343,21.163C2300.563,782.4,2297.929,780.982,2286.165,777.538Z" transform="translate(-1490.72 -213.69)" fill="#fff"/>
    <path id="Trazado_4811" data-name="Trazado 4811" d="M1918.6,553.68c10.918-1.309,12.478-5.072,14.5-16.735,1.415,11.066,3.22,15.262,14.321,16.524-9.683,3.156-13.086,4.3-14.813,17.091C1930.229,557.606,1928.1,556.461,1918.6,553.68Z" transform="translate(-1197.482 -38.28)" fill="#fff"/>
    <path id="Trazado_4812" data-name="Trazado 4812" d="M834.773,759.394c.517-1.83-.073-5.1.608-4.642s.723,1.193,1.505.168,2.147-3.67,3.165-2.611a3.377,3.377,0,0,1,.785,3.9c-.713,1.2-2.808,5.186-3.273,5.911s-3.312-.85-3.312-.85Z" transform="translate(-332.399 -209.899)" fill="#efaea6"/>
    <path id="Trazado_4813" data-name="Trazado 4813" d="M683.189,1519.484c.226-2.086.108-7.376.108-7.376l-5.767-.244.252,7.944,3.794,2.554Z" transform="translate(-207.368 -816.06)" fill="#fff"/>
    <path id="Trazado_4814" data-name="Trazado 4814" d="M681.732,1539.964c.489-.368,1.563.945,1.78,1.823.5,2.011,6.93,2.314,8.075,2.5a1.721,1.721,0,0,1-1.422,3.021c-2.547-.03-10.7-.1-13.49-.146a1.272,1.272,0,0,1-1.225-.938c-.487-1.942-.515-6.489.263-6.547C676.76,1539.923,679.868,1541.369,681.732,1539.964Z" transform="translate(-205.432 -838.252)" fill="#1f1f3b"/>
    <path id="Trazado_4815" data-name="Trazado 4815" d="M499.407,1488.574c1.047-1.818,3.07-6.708,3.07-6.708l-5.181-2.543-2.97,7.372,2.445,3.864Z" transform="translate(-61.21 -790.099)" fill="#fff"/>
    <path id="Trazado_4816" data-name="Trazado 4816" d="M492.663,1504c.551.287.214.772.056,1.663-.362,2.039,5.811,6.192,6.78,6.829a1.722,1.722,0,0,1-2.526,2.185c-2.316-1.059-9.746-4.425-12.273-5.6a1.271,1.271,0,0,1-.74-1.354c.343-1.972,2.333-6.923,3.068-6.66C487.887,1501.7,490.152,1502.687,492.663,1504Z" transform="translate(-52.927 -807.433)" fill="#1f1f3b"/>
    <path id="Trazado_4817" data-name="Trazado 4817" d="M516.077,1120.741c-.031.946-.046,1.978-.037,3.111a266.423,266.423,0,0,1-1.827,27.945c-1.239,8.911-10.767,25.236-12.069,28.184a15.205,15.205,0,0,0,8.556,4.556s12.116-19.66,14.012-31.586c1.09-6.855,2.014-10.947,5.987-26.317v0c.018.075.4,1.657.941,4.086a208.522,208.522,0,0,1,3.731,20.7c1.05,10.1.345,35.523,1.141,36.509,2.491,1.862,8.021,2.324,9.464.277,0,0,.505-31.238.106-36.321-.269-3.456-3.041-39.3-3.269-48.348,0,0-23.287-5.726-24.917,2.35a29.173,29.173,0,0,0-.45,3.027c-.121,1.269-.32,2.435-.53,3.714A57.256,57.256,0,0,0,516.077,1120.741Z" transform="translate(-67.446 -488.732)" fill="#3b3b4d"/>
    <path id="Trazado_4818" data-name="Trazado 4818" d="M635.406,1202.1s0,.005,0,.013a.7.7,0,0,0,.072-.037A.55.55,0,0,0,635.406,1202.1Z" transform="translate(-173.762 -568.914)" fill="#1f1f3b" opacity="0.46"/>
    <path id="Trazado_4819" data-name="Trazado 4819" d="M643.362,1204.313v0c.018.075.742,3.145,1.284,5.574l.593-10.951A51.678,51.678,0,0,1,643.362,1204.313Z" transform="translate(-180.109 -566.412)" fill="#1f1f3b" opacity="0.54"/>
    <path id="Trazado_4820" data-name="Trazado 4820" d="M417.6,1564.662c0,1.7,19.722,3.678,42.447,3.678s41.146-1.38,41.146-3.082-18.422-3.082-41.146-3.082S417.6,1562.96,417.6,1564.662Z" transform="translate(0 -856.199)" fill="#32323f" opacity="0.16"/>
    <g id="Grupo_23252" data-name="Grupo 23252" transform="translate(459.398 557.664)">
      <path id="Trazado_4821" data-name="Trazado 4821" d="M648.786,880.571c1.269-1.826,3.244-3.245,2.45-4.449a6.491,6.491,0,0,1-.57-1c-.243-.586-.016-.7-.191-1.47a7.625,7.625,0,0,1-.2-1.586,3.894,3.894,0,0,1,.064-.87l-1.61-1.015-3.42-2.157s-.2-.125-.642,2.125a17.626,17.626,0,0,0,.972,8.266S646.006,880.25,648.786,880.571Z" transform="translate(-640.429 -860.073)" fill="#efaea6"/>
      <path id="Trazado_4822" data-name="Trazado 4822" d="M658.011,887.565c-.243-.586-.016-.7-.191-1.47a7.618,7.618,0,0,1-.2-1.586l-1.411-.889a22.71,22.71,0,0,0-2.314,1.784C653.121,886.239,655.058,888.618,658.011,887.565Z" transform="translate(-647.774 -872.518)" fill="#1f1f39" opacity="0.14"/>
      <g id="Grupo_23251" data-name="Grupo 23251">
        <g id="Grupo_23250" data-name="Grupo 23250">
          <path id="Trazado_4823" data-name="Trazado 4823" d="M643.907,846.6c.644,1.722,3.5,4.559,2.31,4.89s1.364,3.636.108,4.035c-3.043.965-7.125.016-7.94-1.354a30.214,30.214,0,0,1-1.769-5.572Z" transform="translate(-634.125 -842.983)" fill="#efaea6"/>
          <path id="Trazado_4824" data-name="Trazado 4824" d="M631.394,834.915c1-.159,1.1.062,1.682-.457s-.851-1.124.356-1.69,2.574-1.034,2.3-2.519c-.4-2.149-2.165-1.3-3.244-.735-.695.364-1.33-1.189-2.787-.7-1.143.38-.817,1.017-1.821,1.4-.607.232-2.113-.452-2.873.571-1.411,1.9.576,3.183-.505,5.088-1.261,2.223,3.833,4.776,4.177,4.2.4-.675-.913-2.242-.477-2.818.657-.87.963-.186,1.85.277.948.495,2.342.148,1.07-.964S630.488,835.059,631.394,834.915Z" transform="translate(-624.299 -828.715)" fill="#1f1f39"/>
        </g>
      </g>
    </g>
    <path id="Trazado_4825" data-name="Trazado 4825" d="M596.846,906.632c2.047-.59,3.457,3.349,5.124,3.478,1.012.078.335-.8.679-1.326.9-1.4.666-1.7,1.222-1.113,9.526,10.035,1.584,37.694-.584,41.23-2.711,4.422-16.191,5.659-17.791,4.271-2.776-2.407.7-11.4.635-11.042.958-5.674,6.481-30.186,6.481-30.186A20.278,20.278,0,0,1,596.846,906.632Z" transform="translate(-133.085 -333.164)" fill="#fff"/>
    <path id="Trazado_4826" data-name="Trazado 4826" d="M667.172,811.785c12.205.668,16.046-5.581,19.925-8.618,4.205-3.293,9.662-16.58,11.2-16.427,1.193.118,3.719,0,4.632,3.235-2.073,3.287-7.923,16.242-10.752,18.324-5.132,3.778-15.319,13.511-16.991,15.074-1.822,1.7-1.016,11.873-.7,14.659s.823,19.578-1.949,22.221c-2.241,2.137-6.535-.949-7.8-2.141-2.165-2.044,2.4-9.19,2.98-21.583.329-7.071,2.454-11.208,1.7-17.032A26.245,26.245,0,0,0,667.172,811.785Z" transform="translate(-196.703 -237.563)" fill="#0267a4"/>
    <path id="Trazado_4827" data-name="Trazado 4827" d="M667.172,811.785c12.205.668,16.046-5.581,19.925-8.618,4.205-3.293,9.662-16.58,11.2-16.427,1.193.118,3.719,0,4.632,3.235-2.073,3.287-7.923,16.242-10.752,18.324-5.132,3.778-15.319,13.511-16.991,15.074-1.822,1.7-1.016,11.873-.7,14.659s.823,19.578-1.949,22.221c-2.241,2.137-6.535-.949-7.8-2.141-2.165-2.044,2.4-9.19,2.98-21.583.329-7.071,2.454-11.208,1.7-17.032A26.245,26.245,0,0,0,667.172,811.785Z" transform="translate(-196.703 -237.563)" fill="#1f1f39" opacity="0.12"/>
    <path id="Trazado_4828" data-name="Trazado 4828" d="M580.184,928.094a13.3,13.3,0,0,1-.438,2.411,65.517,65.517,0,0,1-2.824,7.526c-.444,1.078-.828,2.054-1.067,2.855-2.153,7.2-1.212,11.435-3.966,14.444-2.3,2.516-7.891,5.177-12.926,1.1-1.962-1.592.421-4.536,2.756-6.912,3.647-3.708,2.585-8.29,3.333-12.12.727-3.714.595-8.79.839-14.729.156-3.79,1.717-9.625,3.507-11.281,4.462-4.133,6.491-4.311,6.491-4.311.122,1.511,2.134,6.408,3.375,11.916.008.034.016.07.024.107.045.2.089.4.13.6a31.9,31.9,0,0,1,.795,7.858C580.207,927.735,580.2,927.915,580.184,928.094Z" transform="translate(-112.198 -333.564)" fill="#0267a4"/>
    <path id="Trazado_4829" data-name="Trazado 4829" d="M638.705,967.206a13.3,13.3,0,0,1-.438,2.411,65.52,65.52,0,0,1-2.824,7.526c.136-7.07-3.852-19.1-3.852-19.1L637.3,956.1a35.048,35.048,0,0,1,1.437,10.568C638.728,966.848,638.718,967.027,638.705,967.206Z" transform="translate(-170.719 -372.677)" fill="#1f1f39" opacity="0.18"/>
    <g id="Grupo_23264" data-name="Grupo 23264" transform="translate(485.98 516.108)">
      <g id="Grupo_23254" data-name="Grupo 23254" transform="translate(0 0.217)">
        <g id="Grupo_23253" data-name="Grupo 23253">
          <path id="Trazado_4830" data-name="Trazado 4830" d="M796.255,632.017c-.012,2.232-.057,4.722-.121,7.33-.018.744-.041,1.5-.061,2.259-.107,3.656-.251,7.466-.412,11.075q-.049,1.14-.1,2.249c-.1,2.131-.206,4.162-.313,6.014a23.392,23.392,0,0,1-4.778,3.969q-.819.519-1.694.973c-.287.15-.578.3-.874.433-.081.038-.162.077-.243.113-11.51,5.259-24.933.57-29.98-10.475s.194-24.261,11.7-29.521c.121-.055.243-.109.364-.162a23.174,23.174,0,0,1,20.245.69c.481.257.954.534,1.415.827A21.388,21.388,0,0,1,796.255,632.017Z" transform="translate(-755.754 -624.279)" fill="#db9507" fill-rule="evenodd"/>
        </g>
      </g>
      <g id="Grupo_23256" data-name="Grupo 23256" transform="translate(1.62)">
        <g id="Grupo_23255" data-name="Grupo 23255">
          <path id="Trazado_4831" data-name="Trazado 4831" d="M802.645,631.115v.047c-.012,2.232-.057,4.722-.121,7.33-.018.744-.041,1.5-.061,2.259-.107,3.656-.251,7.466-.413,11.075q-.049,1.141-.1,2.249c-.1,2.131-.206,4.161-.313,6.014l-.018.334a21.892,21.892,0,0,1-4.762,3.759q-.828.482-1.69.89c-.289.137-.582.269-.876.392a21.991,21.991,0,1,1,2.1-39.514c.479.263.948.548,1.411.851q.734.482,1.442,1.031A21.957,21.957,0,0,1,802.645,631.115Z" transform="translate(-763.764 -623.206)" fill="#f4ad00" fill-rule="evenodd"/>
        </g>
      </g>
      <g id="Grupo_23261" data-name="Grupo 23261" transform="translate(13.665 8.5)">
        <g id="Grupo_23258" data-name="Grupo 23258" transform="translate(0 3.251)">
          <g id="Grupo_23257" data-name="Grupo 23257">
            <path id="Trazado_4832" data-name="Trazado 4832" d="M840.117,697.382a6.2,6.2,0,0,1-1.348,3.323,6.552,6.552,0,0,1-3.131,2.073,10.83,10.83,0,0,1-4.582.382,10.136,10.136,0,0,1-5.01-1.726,6.852,6.852,0,0,1-2.09-2.509,5.163,5.163,0,0,1-.6-2.843,1.87,1.87,0,0,1,2.108-1.675,1.634,1.634,0,0,1,1.1.552,3.4,3.4,0,0,1,.659,1.361,8.6,8.6,0,0,0,.687,1.771,3.539,3.539,0,0,0,1.194,1.252,4.847,4.847,0,0,0,2.176.675,5.046,5.046,0,0,0,3.171-.553,2.666,2.666,0,0,0,1.419-2.075,2.34,2.34,0,0,0-.457-1.768,4.135,4.135,0,0,0-1.543-1.173q-.974-.451-2.625-1.02a19.909,19.909,0,0,1-3.661-1.646,6.186,6.186,0,0,1-2.218-2.195,5.057,5.057,0,0,1-.571-3.144,5.255,5.255,0,0,1,1.277-2.983,6.018,6.018,0,0,1,2.962-1.781,11.3,11.3,0,0,1,4.3-.274,10.512,10.512,0,0,1,3.3.839,7.1,7.1,0,0,1,2.209,1.528,5.359,5.359,0,0,1,1.185,1.817,3.881,3.881,0,0,1,.249,1.753,2.026,2.026,0,0,1-.685,1.312,1.725,1.725,0,0,1-1.407.466,1.556,1.556,0,0,1-1.073-.485,4.948,4.948,0,0,1-.7-1.285,5.512,5.512,0,0,0-1.177-2.006,4.056,4.056,0,0,0-2.512-.943,4.492,4.492,0,0,0-2.737.441,2.122,2.122,0,0,0-1.2,1.634,1.768,1.768,0,0,0,.228,1.127,2.91,2.91,0,0,0,.862.891,6.355,6.355,0,0,0,1.165.647q.6.252,1.978.763a32.109,32.109,0,0,1,3.122,1.262,9.906,9.906,0,0,1,2.323,1.482,5.031,5.031,0,0,1,1.384,1.982A5.88,5.88,0,0,1,840.117,697.382Z" transform="translate(-823.331 -681.323)" fill="#e55845"/>
          </g>
        </g>
        <g id="Grupo_23260" data-name="Grupo 23260" transform="translate(5.502)">
          <g id="Grupo_23259" data-name="Grupo 23259">
            <path id="Trazado_4833" data-name="Trazado 4833" d="M853.425,692.981l-2.248-.24a.715.715,0,0,1-.634-.786l2.786-26.074a.715.715,0,0,1,.786-.634l2.247.24a.715.715,0,0,1,.635.786l-2.786,26.074A.713.713,0,0,1,853.425,692.981Z" transform="translate(-850.539 -665.243)" fill="#e55845"/>
          </g>
        </g>
      </g>
      <g id="Grupo_23263" data-name="Grupo 23263" transform="translate(3.966 3.522)">
        <g id="Grupo_23262" data-name="Grupo 23262">
          <path id="Trazado_4834" data-name="Trazado 4834" d="M787.842,642.609a18.152,18.152,0,0,1,17.526,2.6,17.209,17.209,0,0,1,1.553,1.345,18.026,18.026,0,0,1,4.291,6.55c.194.51.362,1.023.51,1.539.02-.76.042-1.515.061-2.259A18.913,18.913,0,1,0,801,677.217a19.282,19.282,0,0,0,3.361-1.668,18.788,18.788,0,0,0,6.847-7.581q.055-1.107.1-2.249c-.152.419-.321.833-.506,1.244a18.036,18.036,0,0,1-4.55,6.183,17.266,17.266,0,0,1-1.9,1.456,18.315,18.315,0,0,1-3.642,1.872,18.115,18.115,0,1,1-12.873-33.866Z" transform="translate(-775.369 -640.622)" fill="#e56e1f"/>
        </g>
      </g>
    </g>
    <g id="Grupo_23265" data-name="Grupo 23265" transform="translate(457.887 538.372)">
      <path id="Trazado_4835" data-name="Trazado 4835" d="M772.443,745.8c-.342-3.914.292-4.495.7-6.315s3.686-8.9,5.831-5.035c.8,1.435.244,3.822-.265,5.6s-3.674,2.747-3.758,7.084C774.893,750.382,772.443,745.8,772.443,745.8Z" transform="translate(-740.898 -733.307)" fill="#efaea6"/>
      <path id="Trazado_4836" data-name="Trazado 4836" d="M618.335,797.069c16.106-7.779,16.43-10.311,17.917-12.254s10.781-19.846,11.592-20.277c2.018-1.071,3.921,2.787,4.143,3.817.833,3.872-5.854,14.212-8.647,19.737-2.2,4.347-15.523,15.423-15.523,15.423s-6.815,5.136-9.754,1.359S618.335,797.069,618.335,797.069Z" transform="translate(-616.824 -758.075)" fill="#0267a4"/>
    </g>
    <g id="Grupo_23268" data-name="Grupo 23268" transform="translate(750.869 522.533)" opacity="0.76">
      <g id="Grupo_23266" data-name="Grupo 23266" transform="translate(5.915 3.575)">
        <path id="Trazado_4837" data-name="Trazado 4837" d="M2111.247,674.285a.452.452,0,0,1-.416.09,18.241,18.241,0,0,0-15.172,2.01.453.453,0,1,1-.47-.773,19.1,19.1,0,0,1,15.889-2.108.453.453,0,0,1,.17.781Z" transform="translate(-2094.971 -672.658)" fill="#603a3e"/>
      </g>
      <g id="Grupo_23267" data-name="Grupo 23267" transform="translate(0 0)">
        <path id="Trazado_4838" data-name="Trazado 4838" d="M2081.116,655.778a.45.45,0,0,1-.293.107,20.925,20.925,0,0,0-7.737,1.292,22.208,22.208,0,0,0-6.618,4.146l0,0a.453.453,0,0,1-.588-.688,20.9,20.9,0,0,1,14.947-5.658.453.453,0,0,1,.292.8Z" transform="translate(-2065.72 -654.98)" fill="#603a3e"/>
      </g>
    </g>
    <g id="Grupo_23271" data-name="Grupo 23271" transform="translate(711.98 506.161)" opacity="0.76">
      <g id="Grupo_23269" data-name="Grupo 23269" transform="translate(3.369 2.277)">
        <path id="Trazado_4839" data-name="Trazado 4839" d="M1899.753,586.967a.268.268,0,0,1-.252.012,10.817,10.817,0,0,0-9.071-.316.269.269,0,0,1-.2-.5,11.329,11.329,0,0,1,9.5.329.268.268,0,0,1,.128.357A.265.265,0,0,1,1899.753,586.967Z" transform="translate(-1890.063 -585.278)" fill="#603a3e"/>
      </g>
      <g id="Grupo_23270" data-name="Grupo 23270">
        <path id="Trazado_4840" data-name="Trazado 4840" d="M1882.92,574.74a.269.269,0,0,1-.182.034,12.407,12.407,0,0,0-4.652-.005,13.171,13.171,0,0,0-4.278,1.774l0,0a.268.268,0,0,1-.276-.46,12.4,12.4,0,0,1,9.3-1.839.268.268,0,0,1,.092.5Z" transform="translate(-1873.401 -574.017)" fill="#603a3e"/>
      </g>
    </g>
    <g id="Grupo_23274" data-name="Grupo 23274" transform="translate(757.855 670.108)" opacity="0.76">
      <g id="Grupo_23272" data-name="Grupo 23272">
        <path id="Trazado_4841" data-name="Trazado 4841" d="M2100.4,1388.317a.452.452,0,0,1,.407-.126,18.242,18.242,0,0,0,14.941-3.313.453.453,0,1,1,.535.73,19.1,19.1,0,0,1-15.647,3.473.452.452,0,0,1-.237-.763Z" transform="translate(-2100.269 -1384.79)" fill="#603a3e"/>
      </g>
      <g id="Grupo_23273" data-name="Grupo 23273" transform="translate(7.149 0.4)">
        <path id="Trazado_4842" data-name="Trazado 4842" d="M2135.756,1393.695a.452.452,0,0,1,.283-.132,20.921,20.921,0,0,0,7.6-1.955,22.2,22.2,0,0,0,6.235-4.7l0,0a.452.452,0,0,1,.645.635,20.9,20.9,0,0,1-14.4,6.928.453.453,0,0,1-.36-.77Z" transform="translate(-2135.625 -1386.768)" fill="#603a3e"/>
      </g>
    </g>
  </g>
</svg>
