<svg xmlns="http://www.w3.org/2000/svg" width="369" height="104" viewBox="0 0 369 104">
  <g id="Grupo_23393" data-name="Grupo 23393" transform="translate(9522 7222)">
    <path id="Trazado_5062" data-name="Trazado 5062" d="M17,0H352a17,17,0,0,1,17,17V87a17,17,0,0,1-17,17H17A17,17,0,0,1,0,87V17A17,17,0,0,1,17,0Z" transform="translate(-9522 -7222)" fill="#f3f9ff"/>
    <path id="Trazado_5063" data-name="Trazado 5063" d="M7.012,0H4.639V-11.963H1.748v-1.748l5.264-.508Z" transform="translate(-9467 -7176)" fill="#111e61"/>
    <path id="Trazado_5055" data-name="Trazado 5055" d="M-11264.942-6901h54.438" transform="translate(1776.224 -269)" fill="none" stroke="#022644" stroke-width="1"/>
    <path id="Trazado_5064" data-name="Trazado 5064" d="M1.25-5.781a13.1,13.1,0,0,1,1.528-6.548,8.076,8.076,0,0,1,3.306-3.53l.059.01.439,1.309a7.681,7.681,0,0,0-2.241,3.193A14.274,14.274,0,0,0,3.408-5.8v.2A14.341,14.341,0,0,0,4.336-.059,8.19,8.19,0,0,0,6.582,3.2l-.439,1.25H6.084A8.1,8.1,0,0,1,2.773.918,13.107,13.107,0,0,1,1.25-5.625ZM18.779,0H16.406V-11.963H13.516v-1.748l5.264-.508ZM29.834-7.822h3.711v2.168H29.834v4.229h-2.3V-5.654H23.8V-7.822h3.73v-3.955h2.3ZM38.057,0H35.684V-10.566h2.373Zm0-13.154H35.684v-2.08h2.373ZM50.02-5.625A12.935,12.935,0,0,1,48.462.9a8.19,8.19,0,0,1-3.345,3.555h-.059L44.609,3.2A7.752,7.752,0,0,0,46.846-.02a14.461,14.461,0,0,0,.938-5.586v-.2a14.054,14.054,0,0,0-.962-5.552A8.387,8.387,0,0,0,44.609-14.6l.449-1.26h.059a8.164,8.164,0,0,1,3.34,3.555A12.936,12.936,0,0,1,50.02-5.781Zm3.242-7.538.08.889a2.2,2.2,0,0,1,.76-.738,2.029,2.029,0,0,1,1.034-.265,1.94,1.94,0,0,1,1.5.584,2.619,2.619,0,0,1,.538,1.82V-7H55.791v-3.862a1.384,1.384,0,0,0-.288-.988,1.175,1.175,0,0,0-.874-.293,1.45,1.45,0,0,0-.723.179,1.5,1.5,0,0,0-.524.493V-7H52v-6.163Z" transform="translate(-9489 -7147.5)" fill="#111e61"/>
    <path id="Trazado_5065" data-name="Trazado 5065" d="M9.834-7.715H1.416V-9.687H9.834Zm0,4.141H1.416V-5.537H9.834Zm16.689-2.49h-6.23V0H17.92V-14.219h9.6v1.9H20.293v4.346h6.23ZM35.088,0q-.127-.4-.21-.781a5.585,5.585,0,0,1-.112-.762A4.193,4.193,0,0,1,33.481-.3a3.267,3.267,0,0,1-1.782.5,3.513,3.513,0,0,1-2.534-.85,3.085,3.085,0,0,1-.884-2.334,2.757,2.757,0,0,1,1.211-2.388A5.847,5.847,0,0,1,32.9-6.221h1.846v-.928a1.715,1.715,0,0,0-.488-1.3,1.937,1.937,0,0,0-1.4-.469,1.978,1.978,0,0,0-1.289.391,1.24,1.24,0,0,0-.479,1.006H28.809l-.01-.059a2.617,2.617,0,0,1,1.118-2.217,4.738,4.738,0,0,1,3.091-.967,4.521,4.521,0,0,1,2.979.938,3.3,3.3,0,0,1,1.133,2.7v4.7a8.662,8.662,0,0,0,.088,1.255A6.664,6.664,0,0,0,37.49,0Zm-2.91-1.7a2.983,2.983,0,0,0,1.616-.449,2.262,2.262,0,0,0,.952-1.025V-4.736H32.861a2.379,2.379,0,0,0-1.621.513,1.558,1.558,0,0,0-.586,1.206,1.23,1.23,0,0,0,.4.962A1.628,1.628,0,0,0,32.178-1.7Zm11.8,0a2.175,2.175,0,0,0,1.465-.51,1.612,1.612,0,0,0,.6-1.277h2.148l.02.059A3.121,3.121,0,0,1,47-.869,4.492,4.492,0,0,1,43.975.205,4.382,4.382,0,0,1,40.4-1.3,5.772,5.772,0,0,1,39.15-5.107v-.342a5.777,5.777,0,0,1,1.245-3.8,4.376,4.376,0,0,1,3.579-1.509,4.346,4.346,0,0,1,3.091,1.108,3.568,3.568,0,0,1,1.147,2.817l-.02.059H46.035a2.069,2.069,0,0,0-.571-1.475,1.954,1.954,0,0,0-1.489-.605,2,2,0,0,0-1.895.97,4.833,4.833,0,0,0-.557,2.433v.341A4.843,4.843,0,0,0,42.08-2.66,2.01,2.01,0,0,0,43.975-1.7Zm9.082-11.436v2.568h1.895v1.758H53.057v5.84a1.273,1.273,0,0,0,.283.933,1.026,1.026,0,0,0,.752.278,2.1,2.1,0,0,0,.381-.034,2.315,2.315,0,0,0,.352-.093l.254,1.738a2.721,2.721,0,0,1-.723.259,4.017,4.017,0,0,1-.869.093,2.721,2.721,0,0,1-2.051-.767,3.357,3.357,0,0,1-.742-2.407v-5.84H49.082v-1.758h1.611v-2.568Zm3.564,7.754A5.756,5.756,0,0,1,57.91-9.248a4.445,4.445,0,0,1,3.545-1.514A4.431,4.431,0,0,1,65.02-9.248a5.705,5.705,0,0,1,1.3,3.867v.205a5.734,5.734,0,0,1-1.3,3.887A4.435,4.435,0,0,1,61.475.205,4.463,4.463,0,0,1,57.91-1.3a5.747,5.747,0,0,1-1.289-3.877Zm2.373.2A4.707,4.707,0,0,0,59.6-2.665a2.043,2.043,0,0,0,1.875.965,2.053,2.053,0,0,0,1.855-.965,4.591,4.591,0,0,0,.625-2.516v-.2a4.531,4.531,0,0,0-.625-2.487,2.06,2.06,0,0,0-1.875-.985,2.042,2.042,0,0,0-1.855.985,4.677,4.677,0,0,0-.605,2.487ZM73.652-8.428l-1.016-.039a2.128,2.128,0,0,0-1.157.293,1.929,1.929,0,0,0-.718.83V0H68.389V-10.566h2.168l.156,1.533a3.389,3.389,0,0,1,1.03-1.27,2.4,2.4,0,0,1,1.45-.459,2.211,2.211,0,0,1,.4.034,2.924,2.924,0,0,1,.342.083Zm6.2,3.291a6.968,6.968,0,0,1,1.084-4.077,3.506,3.506,0,0,1,3.047-1.548,3.333,3.333,0,0,1,1.538.347,3.481,3.481,0,0,1,1.177.991v-5.811h2.373V0H87.08l-.234-1.309A3.492,3.492,0,0,1,85.625-.181a3.435,3.435,0,0,1-1.66.386,3.6,3.6,0,0,1-3.027-1.416,5.958,5.958,0,0,1-1.084-3.721Zm2.373.205A4.255,4.255,0,0,0,82.788-2.6a1.966,1.966,0,0,0,1.782.869,2.383,2.383,0,0,0,1.274-.322,2.453,2.453,0,0,0,.854-.918V-7.578a2.5,2.5,0,0,0-.859-.913,2.323,2.323,0,0,0-1.25-.327A1.913,1.913,0,0,0,82.8-7.8a5.384,5.384,0,0,0-.576,2.661ZM96.152.205a4.594,4.594,0,0,1-3.579-1.47A5.4,5.4,0,0,1,91.24-5.039V-5.43a5.61,5.61,0,0,1,1.323-3.823,4.186,4.186,0,0,1,3.315-1.509,4.13,4.13,0,0,1,3.276,1.294A5.069,5.069,0,0,1,100.293-6v1.4H93.7l-.02.049A3.309,3.309,0,0,0,94.419-2.5a2.335,2.335,0,0,0,1.88.8,5.081,5.081,0,0,0,1.641-.234,5.375,5.375,0,0,0,1.318-.674l.762,1.556a4.909,4.909,0,0,1-1.582.893A6.6,6.6,0,0,1,96.152.205Zm-.273-9.062a1.78,1.78,0,0,0-1.445.7,3.438,3.438,0,0,0-.7,1.772l.02.049h4.189v-.244a2.529,2.529,0,0,0-.513-1.641A1.871,1.871,0,0,0,95.879-8.857ZM113.545,0q-.127-.4-.21-.781a5.585,5.585,0,0,1-.112-.762A4.193,4.193,0,0,1,111.938-.3a3.267,3.267,0,0,1-1.782.5,3.513,3.513,0,0,1-2.534-.85,3.085,3.085,0,0,1-.884-2.334,2.757,2.757,0,0,1,1.211-2.388,5.847,5.847,0,0,1,3.408-.854H113.2v-.928a1.715,1.715,0,0,0-.488-1.3,1.937,1.937,0,0,0-1.4-.469,1.978,1.978,0,0,0-1.289.391,1.24,1.24,0,0,0-.479,1.006h-2.285l-.01-.059a2.617,2.617,0,0,1,1.118-2.217,4.738,4.738,0,0,1,3.091-.967,4.521,4.521,0,0,1,2.979.938,3.3,3.3,0,0,1,1.133,2.7v4.7a8.662,8.662,0,0,0,.088,1.255A6.663,6.663,0,0,0,115.947,0Zm-2.91-1.7a2.983,2.983,0,0,0,1.616-.449,2.262,2.262,0,0,0,.952-1.025V-4.736h-1.885a2.379,2.379,0,0,0-1.621.513,1.558,1.558,0,0,0-.586,1.206,1.23,1.23,0,0,0,.4.962A1.628,1.628,0,0,0,110.635-1.7Zm11.8,0a2.175,2.175,0,0,0,1.465-.51,1.612,1.612,0,0,0,.6-1.277h2.148l.02.059a3.121,3.121,0,0,1-1.206,2.559A4.492,4.492,0,0,1,122.432.205a4.382,4.382,0,0,1-3.579-1.5,5.772,5.772,0,0,1-1.245-3.809v-.342a5.777,5.777,0,0,1,1.245-3.8,4.376,4.376,0,0,1,3.579-1.509,4.346,4.346,0,0,1,3.091,1.108,3.568,3.568,0,0,1,1.147,2.817l-.02.059h-2.158a2.069,2.069,0,0,0-.571-1.475,1.954,1.954,0,0,0-1.489-.605,2,2,0,0,0-1.895.97,4.833,4.833,0,0,0-.557,2.433v.341a4.843,4.843,0,0,0,.557,2.453A2.01,2.01,0,0,0,122.432-1.7Zm9.082-11.436v2.568h1.895v1.758h-1.895v5.84a1.273,1.273,0,0,0,.283.933,1.026,1.026,0,0,0,.752.278,2.1,2.1,0,0,0,.381-.034,2.315,2.315,0,0,0,.352-.093l.254,1.738a2.721,2.721,0,0,1-.723.259,4.017,4.017,0,0,1-.869.093,2.721,2.721,0,0,1-2.051-.767,3.357,3.357,0,0,1-.742-2.407v-5.84h-1.611v-1.758h1.611v-2.568ZM142.1-1.543a3.615,3.615,0,0,1-1.26,1.294,3.367,3.367,0,0,1-1.758.454,3.359,3.359,0,0,1-2.656-1.084,4.993,4.993,0,0,1-.957-3.369v-6.318h2.363v6.338a3.167,3.167,0,0,0,.449,1.943,1.64,1.64,0,0,0,1.357.557,3.052,3.052,0,0,0,1.44-.308,2.234,2.234,0,0,0,.913-.894v-7.637h2.373V0h-2.07ZM153.2,0q-.127-.4-.21-.781a5.584,5.584,0,0,1-.112-.762A4.193,4.193,0,0,1,151.6-.3a3.267,3.267,0,0,1-1.782.5,3.513,3.513,0,0,1-2.534-.85,3.085,3.085,0,0,1-.884-2.334,2.757,2.757,0,0,1,1.211-2.388,5.847,5.847,0,0,1,3.408-.854h1.846v-.928a1.715,1.715,0,0,0-.488-1.3,1.937,1.937,0,0,0-1.4-.469,1.978,1.978,0,0,0-1.289.391,1.24,1.24,0,0,0-.479,1.006h-2.285l-.01-.059a2.617,2.617,0,0,1,1.118-2.217,4.738,4.738,0,0,1,3.091-.967,4.521,4.521,0,0,1,2.979.938,3.3,3.3,0,0,1,1.133,2.7v4.7a8.662,8.662,0,0,0,.088,1.255A6.664,6.664,0,0,0,155.605,0Zm-2.91-1.7a2.983,2.983,0,0,0,1.616-.449,2.262,2.262,0,0,0,.952-1.025V-4.736h-1.885a2.379,2.379,0,0,0-1.621.513,1.558,1.558,0,0,0-.586,1.206,1.23,1.23,0,0,0,.4.962A1.628,1.628,0,0,0,150.293-1.7ZM160.254,0h-2.373V-15.234h2.373Zm5.186,0h-2.373V-10.566h2.373Zm0-13.154h-2.373v-2.08h2.373ZM170.615-1.9h5.645V0h-8.584V-1.561l5.332-7.1h-5.225v-1.9h8.223v1.5ZM184.59,0q-.127-.4-.21-.781a5.584,5.584,0,0,1-.112-.762A4.193,4.193,0,0,1,182.983-.3a3.267,3.267,0,0,1-1.782.5,3.513,3.513,0,0,1-2.534-.85,3.085,3.085,0,0,1-.884-2.334,2.757,2.757,0,0,1,1.211-2.388,5.847,5.847,0,0,1,3.408-.854h1.846v-.928a1.715,1.715,0,0,0-.488-1.3,1.937,1.937,0,0,0-1.4-.469,1.978,1.978,0,0,0-1.289.391A1.24,1.24,0,0,0,180.6-7.52h-2.285l-.01-.059a2.617,2.617,0,0,1,1.118-2.217,4.738,4.738,0,0,1,3.091-.967,4.521,4.521,0,0,1,2.979.938,3.3,3.3,0,0,1,1.133,2.7v4.7a8.662,8.662,0,0,0,.088,1.255A6.664,6.664,0,0,0,186.992,0Zm-2.91-1.7a2.983,2.983,0,0,0,1.616-.449,2.262,2.262,0,0,0,.952-1.025V-4.736h-1.885a2.379,2.379,0,0,0-1.621.513,1.558,1.558,0,0,0-.586,1.206,1.23,1.23,0,0,0,.4.962A1.628,1.628,0,0,0,181.68-1.7Zm11.8,0a2.175,2.175,0,0,0,1.465-.51,1.612,1.612,0,0,0,.6-1.277h2.148l.02.059A3.121,3.121,0,0,1,196.5-.869,4.492,4.492,0,0,1,193.477.205,4.382,4.382,0,0,1,189.9-1.3a5.772,5.772,0,0,1-1.245-3.809v-.342a5.777,5.777,0,0,1,1.245-3.8,4.376,4.376,0,0,1,3.579-1.509,4.346,4.346,0,0,1,3.091,1.108,3.568,3.568,0,0,1,1.147,2.817l-.02.059h-2.158a2.069,2.069,0,0,0-.571-1.475,1.954,1.954,0,0,0-1.489-.605,2,2,0,0,0-1.895.97,4.833,4.833,0,0,0-.557,2.433v.341a4.843,4.843,0,0,0,.557,2.453A2.01,2.01,0,0,0,193.477-1.7ZM202.139,0h-2.373V-10.566h2.373Zm0-13.154h-2.373v-2.08h2.373Zm2.217,7.773a5.756,5.756,0,0,1,1.289-3.867,4.445,4.445,0,0,1,3.545-1.514,4.431,4.431,0,0,1,3.564,1.514,5.705,5.705,0,0,1,1.3,3.867v.205a5.734,5.734,0,0,1-1.3,3.887A4.435,4.435,0,0,1,209.209.205a4.463,4.463,0,0,1-3.564-1.5,5.747,5.747,0,0,1-1.289-3.877Zm2.373.2a4.707,4.707,0,0,0,.605,2.516,2.043,2.043,0,0,0,1.875.965,2.053,2.053,0,0,0,1.855-.965,4.591,4.591,0,0,0,.625-2.516v-.2a4.531,4.531,0,0,0-.625-2.487,2.06,2.06,0,0,0-1.875-.985,2.042,2.042,0,0,0-1.855.985,4.677,4.677,0,0,0-.605,2.487Zm3.184-9.5h2.627l.02.059-2.666,2.539h-1.846Zm8.359,4.111.137,1.523a3.779,3.779,0,0,1,1.3-1.265,3.479,3.479,0,0,1,1.772-.454,3.326,3.326,0,0,1,2.573,1,4.49,4.49,0,0,1,.923,3.12V0h-2.373V-6.621a2.374,2.374,0,0,0-.493-1.694,2.014,2.014,0,0,0-1.5-.5,2.486,2.486,0,0,0-1.24.308,2.564,2.564,0,0,0-.9.845V0H216.1V-10.566Z" transform="translate(-9411 -7162.5)" fill="#111e61"/>
  </g>
</svg>
