<svg xmlns="http://www.w3.org/2000/svg" width="813" height="659" viewBox="0 0 813 659">
  <g id="Grupo_23390" data-name="Grupo 23390" transform="translate(9644 9460)">
    <path id="Trazado_5027" data-name="Trazado 5027" d="M329.5,0C511.478,0,659,147.522,659,329.5S511.478,659,329.5,659,0,511.478,0,329.5,147.522,0,329.5,0Z" transform="translate(-9644 -9460)" fill="#cefff7"/>
    <path id="Trazado_4962" data-name="Trazado 4962" d="M-11113.34-10092.905v508.878h541.93" transform="translate(1622 671.789)" fill="none" stroke="#022644" stroke-width="2"/>
    <path id="Trazado_4963" data-name="Trazado 4963" d="M-11113.339-9669.363h-36.587" transform="translate(1622 709)" fill="none" stroke="#022644" stroke-width="2"/>
    <path id="Trazado_4964" data-name="Trazado 4964" d="M-11113.339-9669.363h-36.587" transform="translate(1622 668)" fill="none" stroke="#022644" stroke-width="2"/>
    <path id="Trazado_4965" data-name="Trazado 4965" d="M-11149.926-9669.363h36.587l612.531-255.892" transform="translate(1622 627)" fill="none" stroke="#5dc2ae" stroke-width="2"/>
    <path id="Trazado_4966" data-name="Trazado 4966" d="M-11113.339-9669.363h-36.587" transform="translate(1622 586)" fill="none" stroke="#022644" stroke-width="2"/>
    <path id="Trazado_4967" data-name="Trazado 4967" d="M-11113.339-9669.363h-36.587" transform="translate(1622 545)" fill="none" stroke="#022644" stroke-width="2"/>
    <path id="Trazado_4968" data-name="Trazado 4968" d="M-11113.339-9669.363h-36.587" transform="translate(1622 504)" fill="none" stroke="#022644" stroke-width="2"/>
    <path id="Trazado_4969" data-name="Trazado 4969" d="M-11113.339-9669.363h-36.587" transform="translate(1622 463)" fill="none" stroke="#022644" stroke-width="2"/>
    <path id="Trazado_4970" data-name="Trazado 4970" d="M-11113.339-9669.363h-36.587" transform="translate(1622 422)" fill="none" stroke="#022644" stroke-width="2"/>
    <path id="Trazado_4971" data-name="Trazado 4971" d="M-11113.339-9669.363h-36.587" transform="translate(1622 381)" fill="none" stroke="#022644" stroke-width="2"/>
    <path id="Trazado_4972" data-name="Trazado 4972" d="M-11113.339-9669.363h-36.587" transform="translate(1622 340)" fill="none" stroke="#022644" stroke-width="2"/>
    <path id="Trazado_4974" data-name="Trazado 4974" d="M-11113.339-9669.363h-36.587" transform="translate(-19123.996 2237.688) rotate(90)" fill="none" stroke="#022644" stroke-width="2"/>
    <path id="Trazado_4976" data-name="Trazado 4976" d="M-11113.339-9669.363h-36.587" transform="translate(-19041.996 2237.688) rotate(90)" fill="none" stroke="#022644" stroke-width="2"/>
    <path id="Trazado_4978" data-name="Trazado 4978" d="M-11113.339-9669.363h-36.587" transform="translate(-18959.996 2237.688) rotate(90)" fill="none" stroke="#022644" stroke-width="2"/>
    <path id="Trazado_4980" data-name="Trazado 4980" d="M-11113.339-9669.363h-36.587" transform="translate(-18877.996 2237.688) rotate(90)" fill="none" stroke="#022644" stroke-width="2"/>
    <path id="Trazado_4982" data-name="Trazado 4982" d="M-11113.339-9669.363h-318.119" transform="translate(-18795.996 2237.688) rotate(90)" fill="none" stroke="#022644" stroke-width="2"/>
    <path id="Trazado_4984" data-name="Trazado 4984" d="M-11113.339-9669.363h-36.587" transform="translate(-18713.996 2237.688) rotate(90)" fill="none" stroke="#022644" stroke-width="2"/>
    <path id="Trazado_5028" data-name="Trazado 5028" d="M8.406,0H.852V-1.311l3.7-4.032A8.989,8.989,0,0,0,5.8-6.973a2.613,2.613,0,0,0,.344-1.246A1.891,1.891,0,0,0,5.7-9.5a1.508,1.508,0,0,0-1.2-.516,1.854,1.854,0,0,0-1.484.563,2.293,2.293,0,0,0-.484,1.547H.7L.68-7.953A3.343,3.343,0,0,1,1.672-10.5,3.813,3.813,0,0,1,4.5-11.539a3.61,3.61,0,0,1,2.594.906,3.117,3.117,0,0,1,.953,2.367A3.5,3.5,0,0,1,7.5-6.4,15.732,15.732,0,0,1,5.789-4.234L3.258-1.57l.023.047H8.406ZM11.93-.242,10.719,2.2h-1.2l.547-2.508V-1.859H11.93Zm3.82-6.3h1.32A1.7,1.7,0,0,0,18.4-7,1.882,1.882,0,0,0,18.8-8.3a1.744,1.744,0,0,0-.437-1.27,1.72,1.72,0,0,0-1.289-.449,1.809,1.809,0,0,0-1.262.441,1.489,1.489,0,0,0-.488,1.16H13.5l-.016-.047a2.655,2.655,0,0,1,.973-2.191,3.815,3.815,0,0,1,2.6-.887,3.963,3.963,0,0,1,2.656.844A2.975,2.975,0,0,1,20.7-8.3a2.533,2.533,0,0,1-.445,1.406,2.919,2.919,0,0,1-1.266,1.055,2.706,2.706,0,0,1,1.426,1.047,2.873,2.873,0,0,1,.457,1.6A3.026,3.026,0,0,1,19.8-.73a4.147,4.147,0,0,1-2.746.895A4.175,4.175,0,0,1,14.4-.676,2.67,2.67,0,0,1,13.375-3l.016-.047h1.828a1.58,1.58,0,0,0,.508,1.221,1.919,1.919,0,0,0,1.352.467,1.954,1.954,0,0,0,1.391-.476,1.758,1.758,0,0,0,.508-1.349A1.907,1.907,0,0,0,18.512-4.6a1.989,1.989,0,0,0-1.441-.456H15.75Zm11.359-4.992a5.281,5.281,0,0,1,1.172.128,4.955,4.955,0,0,1,1.008.336L28.93-9.617a5.8,5.8,0,0,0-.852-.293,3.916,3.916,0,0,0-.961-.105,2.21,2.21,0,0,0-1.832.885,3.765,3.765,0,0,0-.691,2.381V-6.7a3.34,3.34,0,0,1,1.09-.664,3.832,3.832,0,0,1,1.363-.234,2.969,2.969,0,0,1,2.41,1.066,4.1,4.1,0,0,1,.887,2.715A4.087,4.087,0,0,1,29.328-.953,3.43,3.43,0,0,1,26.664.164a3.685,3.685,0,0,1-2.848-1.219A4.866,4.866,0,0,1,22.7-4.461V-6.633A5.012,5.012,0,0,1,23.957-10.2,4.129,4.129,0,0,1,27.109-11.539Zm-.531,5.422a2.673,2.673,0,0,0-1.219.253,1.848,1.848,0,0,0-.766.69v.811a3.663,3.663,0,0,0,.582,2.223,1.782,1.782,0,0,0,1.488.78,1.492,1.492,0,0,0,1.3-.71,3.064,3.064,0,0,0,.477-1.747,2.619,2.619,0,0,0-.5-1.661A1.641,1.641,0,0,0,26.578-6.117ZM39.164-4.383a5.054,5.054,0,0,1-1,3.383A3.4,3.4,0,0,1,35.445.164,3.43,3.43,0,0,1,32.711-1,5.027,5.027,0,0,1,31.7-4.383v-2.6a5.072,5.072,0,0,1,1-3.383,3.4,3.4,0,0,1,2.727-1.172,3.411,3.411,0,0,1,2.727,1.172,5.045,5.045,0,0,1,1.008,3.383Zm-1.9-2.893A3.648,3.648,0,0,0,36.8-9.344a1.563,1.563,0,0,0-1.367-.671,1.553,1.553,0,0,0-1.363.671A3.673,3.673,0,0,0,33.6-7.276v3.161a3.661,3.661,0,0,0,.473,2.08,1.569,1.569,0,0,0,1.371.675A1.543,1.543,0,0,0,36.8-2.031a3.733,3.733,0,0,0,.461-2.084Z" transform="translate(-9577 -9037)" fill="#111e61"/>
    <path id="Trazado_5029" data-name="Trazado 5029" d="M5.609,0h-1.9V-9.57H1.4v-1.4l4.211-.406ZM16.352-4.055h1.438v1.523H16.352V0H14.461V-2.531H9.578L9.531-3.689,14.4-11.375h1.953Zm-4.945,0h3.055V-8.672l-.047-.016-.156.336ZM21.023-.242,19.813,2.2h-1.2l.547-2.508V-1.859h1.867ZM27.406,0h-1.9V-9.57H23.2v-1.4l4.211-.406Zm8.8-11.539a5.281,5.281,0,0,1,1.172.128,4.955,4.955,0,0,1,1.008.336l-.359,1.458a5.8,5.8,0,0,0-.852-.293,3.916,3.916,0,0,0-.961-.105,2.21,2.21,0,0,0-1.832.885,3.765,3.765,0,0,0-.691,2.381V-6.7a3.34,3.34,0,0,1,1.09-.664,3.832,3.832,0,0,1,1.363-.234,2.969,2.969,0,0,1,2.41,1.066,4.1,4.1,0,0,1,.887,2.715A4.087,4.087,0,0,1,38.422-.953,3.43,3.43,0,0,1,35.758.164,3.685,3.685,0,0,1,32.91-1.055,4.866,4.866,0,0,1,31.8-4.461V-6.633A5.012,5.012,0,0,1,33.051-10.2,4.129,4.129,0,0,1,36.2-11.539Zm-.531,5.422a2.673,2.673,0,0,0-1.219.253,1.848,1.848,0,0,0-.766.69v.811a3.664,3.664,0,0,0,.582,2.223,1.782,1.782,0,0,0,1.488.78,1.492,1.492,0,0,0,1.3-.71,3.064,3.064,0,0,0,.477-1.747,2.619,2.619,0,0,0-.5-1.661A1.641,1.641,0,0,0,35.672-6.117ZM48.258-4.383a5.054,5.054,0,0,1-1,3.383A3.4,3.4,0,0,1,44.539.164,3.43,3.43,0,0,1,41.8-1,5.027,5.027,0,0,1,40.8-4.383v-2.6a5.072,5.072,0,0,1,1-3.383,3.4,3.4,0,0,1,2.727-1.172,3.411,3.411,0,0,1,2.727,1.172,5.045,5.045,0,0,1,1.008,3.383Zm-1.9-2.893a3.648,3.648,0,0,0-.469-2.068,1.563,1.563,0,0,0-1.367-.671,1.553,1.553,0,0,0-1.363.671A3.673,3.673,0,0,0,42.7-7.276v3.161a3.661,3.661,0,0,0,.473,2.08,1.569,1.569,0,0,0,1.371.675A1.543,1.543,0,0,0,45.9-2.031a3.733,3.733,0,0,0,.461-2.084Z" transform="translate(-9586 -9161)" fill="#111e61"/>
    <path id="Trazado_5030" data-name="Trazado 5030" d="M3.7-11.375l3.273,8.75h.047l3.281-8.75h2.461V0h-1.9V-3.875l.188-4.93-.047-.008L7.633,0H6.359L3-8.789l-.047.008.188,4.906V0h-1.9V-11.375ZM17.039,0h-1.9V-8.453h1.9Zm0-10.523h-1.9v-1.664h1.9ZM21.188,0h-1.9V-12.187h1.9ZM32.7-2.964a1.506,1.506,0,0,0-.434-1.1,3.883,3.883,0,0,0-1.449-.8A6.643,6.643,0,0,1,28.34-6.223a2.857,2.857,0,0,1-.824-2.16,2.982,2.982,0,0,1,.789-2.133,3.362,3.362,0,0,1,2.141-.992v-1.7H31.7v1.719a3.175,3.175,0,0,1,2.09,1.145,3.876,3.876,0,0,1,.754,2.5H32.648a2.512,2.512,0,0,0-.437-1.558,1.429,1.429,0,0,0-1.2-.575,1.557,1.557,0,0,0-1.2.428,1.619,1.619,0,0,0-.4,1.15,1.5,1.5,0,0,0,.418,1.1,4.086,4.086,0,0,0,1.5.808,6.848,6.848,0,0,1,2.453,1.375,2.845,2.845,0,0,1,.8,2.141,2.883,2.883,0,0,1-.82,2.156,3.629,3.629,0,0,1-2.242.953V1.648H30.289V.133a3.8,3.8,0,0,1-2.3-1.012,3.269,3.269,0,0,1-.871-2.543l.016-.039h1.844a2.029,2.029,0,0,0,.543,1.592,1.976,1.976,0,0,0,1.355.478,1.957,1.957,0,0,0,1.344-.423A1.46,1.46,0,0,0,32.7-2.964Z" transform="translate(-9586 -9324)" fill="#111e61"/>
    <path id="Trazado_5031" data-name="Trazado 5031" d="M1.25-5.781a13.1,13.1,0,0,1,1.528-6.548,8.076,8.076,0,0,1,3.306-3.53l.059.01.439,1.309a7.681,7.681,0,0,0-2.241,3.193A14.274,14.274,0,0,0,3.408-5.8v.2A14.341,14.341,0,0,0,4.336-.059,8.19,8.19,0,0,0,6.582,3.2l-.439,1.25H6.084A8.1,8.1,0,0,1,2.773.918,13.107,13.107,0,0,1,1.25-5.625ZM13.2-7.3l3.438-6.914h2.646L14.355-4.99V0H11.992V-5.117l-4.854-9.1H9.785ZM25.2-5.625A12.935,12.935,0,0,1,23.638.9a8.19,8.19,0,0,1-3.345,3.555h-.059L19.785,3.2A7.752,7.752,0,0,0,22.021-.02a14.461,14.461,0,0,0,.938-5.586v-.2A14.054,14.054,0,0,0,22-11.353,8.387,8.387,0,0,0,19.785-14.6l.449-1.26h.059a8.164,8.164,0,0,1,3.34,3.555A12.936,12.936,0,0,1,25.2-5.781Z" transform="translate(-9528 -9358)" fill="#111e61"/>
    <path id="Trazado_5032" data-name="Trazado 5032" d="M4.023-1.359a2.03,2.03,0,0,0,1.641-.751A3.354,3.354,0,0,0,6.289-4.3v-.523a2.519,2.519,0,0,1-.934.793,2.709,2.709,0,0,1-1.207.27A3.308,3.308,0,0,1,1.582-4.793,4.01,4.01,0,0,1,.641-7.609,3.932,3.932,0,0,1,1.7-10.426,3.45,3.45,0,0,1,4.3-11.539a3.625,3.625,0,0,1,2.82,1.16A4.8,4.8,0,0,1,8.18-7.039v2.664A4.6,4.6,0,0,1,7.02-1.027a4,4,0,0,1-3,1.191A6.534,6.534,0,0,1,2.813.046,5.082,5.082,0,0,1,1.664-.307l.25-1.458a4.181,4.181,0,0,0,.977.313A6.183,6.183,0,0,0,4.023-1.359Zm.3-3.883a2.435,2.435,0,0,0,1.211-.281,1.9,1.9,0,0,0,.75-.727V-7.266a3.468,3.468,0,0,0-.508-2.051,1.68,1.68,0,0,0-1.445-.7,1.551,1.551,0,0,0-1.281.684,2.78,2.78,0,0,0-.516,1.723,2.857,2.857,0,0,0,.473,1.715A1.534,1.534,0,0,0,4.328-5.242Zm7.6,5L10.719,2.2h-1.2l.547-2.508V-1.859H11.93Zm9.047-4.141a5.054,5.054,0,0,1-1,3.383A3.4,3.4,0,0,1,17.258.164,3.43,3.43,0,0,1,14.523-1a5.027,5.027,0,0,1-1.008-3.383v-2.6a5.072,5.072,0,0,1,1-3.383,3.4,3.4,0,0,1,2.727-1.172,3.411,3.411,0,0,1,2.727,1.172,5.045,5.045,0,0,1,1.008,3.383Zm-1.9-2.893a3.648,3.648,0,0,0-.469-2.068,1.563,1.563,0,0,0-1.367-.671,1.553,1.553,0,0,0-1.363.671,3.673,3.673,0,0,0-.465,2.068v3.161a3.661,3.661,0,0,0,.473,2.08,1.569,1.569,0,0,0,1.371.675,1.543,1.543,0,0,0,1.359-.671,3.733,3.733,0,0,0,.461-2.084ZM30.07-4.383A5.054,5.054,0,0,1,29.07-1,3.4,3.4,0,0,1,26.352.164,3.43,3.43,0,0,1,23.617-1a5.027,5.027,0,0,1-1.008-3.383v-2.6a5.072,5.072,0,0,1,1-3.383,3.4,3.4,0,0,1,2.727-1.172,3.411,3.411,0,0,1,2.727,1.172A5.045,5.045,0,0,1,30.07-6.984Zm-1.9-2.893A3.648,3.648,0,0,0,27.7-9.344a1.563,1.563,0,0,0-1.367-.671,1.553,1.553,0,0,0-1.363.671,3.673,3.673,0,0,0-.465,2.068v3.161a3.661,3.661,0,0,0,.473,2.08,1.569,1.569,0,0,0,1.371.675,1.543,1.543,0,0,0,1.359-.671,3.733,3.733,0,0,0,.461-2.084Zm6.742,5.917a2.03,2.03,0,0,0,1.641-.751A3.354,3.354,0,0,0,37.18-4.3v-.523a2.519,2.519,0,0,1-.934.793,2.709,2.709,0,0,1-1.207.27,3.308,3.308,0,0,1-2.566-1.027,4.01,4.01,0,0,1-.941-2.816,3.932,3.932,0,0,1,1.055-2.816A3.45,3.45,0,0,1,35.2-11.539a3.625,3.625,0,0,1,2.82,1.16,4.8,4.8,0,0,1,1.055,3.34v2.664a4.6,4.6,0,0,1-1.16,3.348,4,4,0,0,1-3,1.191A6.534,6.534,0,0,1,33.7.046a5.082,5.082,0,0,1-1.148-.353l.25-1.458a4.181,4.181,0,0,0,.977.313A6.183,6.183,0,0,0,34.914-1.359Zm.3-3.883a2.435,2.435,0,0,0,1.211-.281,1.9,1.9,0,0,0,.75-.727V-7.266a3.468,3.468,0,0,0-.508-2.051,1.68,1.68,0,0,0-1.445-.7,1.551,1.551,0,0,0-1.281.684,2.78,2.78,0,0,0-.516,1.723A2.857,2.857,0,0,0,33.9-5.895,1.534,1.534,0,0,0,35.219-5.242Z" transform="translate(-9147 -8846)" fill="#111e61"/>
    <path id="Trazado_4985" data-name="Trazado 4985" d="M-11113.34-9621.238l611.621-473.351" transform="translate(1622 709)" fill="none" stroke="#e8397c" stroke-width="2"/>
    <path id="Trazado_5033" data-name="Trazado 5033" d="M10,0,20,18H0Z" transform="translate(-8871.299 -9403.871) rotate(51)" fill="#e8397c"/>
    <path id="Trazado_5034" data-name="Trazado 5034" d="M10,0,20,18H0Z" transform="translate(-8868.069 -9314.666) rotate(65)" fill="#5dc2ae"/>
    <path id="Trazado_5035" data-name="Trazado 5035" d="M7.406-2.656H2.953L2.047,0H.125L4.3-11.375H6.1L10.234,0H8.3ZM3.5-4.242H6.867L5.219-9.1H5.172ZM5.938-14.266h2.1l.016.047L5.922-12.187H4.445Zm9.586,7.523-.812-.031a1.7,1.7,0,0,0-.926.234,1.544,1.544,0,0,0-.574.664V0h-1.9V-8.453h1.734l.125,1.227A2.711,2.711,0,0,1,14-8.242a1.919,1.919,0,0,1,1.16-.367,1.769,1.769,0,0,1,.32.027,2.339,2.339,0,0,1,.273.066ZM20.477.164a3.675,3.675,0,0,1-2.863-1.176,4.322,4.322,0,0,1-1.066-3.02v-.312A4.488,4.488,0,0,1,17.605-7.4a3.348,3.348,0,0,1,2.652-1.207,3.3,3.3,0,0,1,2.621,1.035,4.056,4.056,0,0,1,.91,2.777V-3.68H18.516l-.016.039A2.647,2.647,0,0,0,19.09-2a1.868,1.868,0,0,0,1.5.638,4.065,4.065,0,0,0,1.313-.187,4.3,4.3,0,0,0,1.055-.539L23.57-.841A3.927,3.927,0,0,1,22.3-.126,5.278,5.278,0,0,1,20.477.164Zm-.219-7.25a1.424,1.424,0,0,0-1.156.559,2.75,2.75,0,0,0-.562,1.418l.016.039h3.352v-.2a2.023,2.023,0,0,0-.41-1.312A1.5,1.5,0,0,0,20.258-7.086ZM30.406,0q-.1-.32-.168-.625a4.468,4.468,0,0,1-.09-.609,3.354,3.354,0,0,1-1.027,1,2.614,2.614,0,0,1-1.426.4,2.81,2.81,0,0,1-2.027-.68,2.468,2.468,0,0,1-.707-1.867,2.206,2.206,0,0,1,.969-1.91,4.678,4.678,0,0,1,2.727-.684h1.477v-.742a1.372,1.372,0,0,0-.391-1.039,1.55,1.55,0,0,0-1.117-.375,1.582,1.582,0,0,0-1.031.313.992.992,0,0,0-.383.8H25.383l-.008-.047a2.094,2.094,0,0,1,.895-1.773,3.79,3.79,0,0,1,2.473-.773,3.616,3.616,0,0,1,2.383.75A2.64,2.64,0,0,1,32.031-5.7v3.758a6.93,6.93,0,0,0,.07,1A5.331,5.331,0,0,0,32.328,0ZM28.078-1.359a2.387,2.387,0,0,0,1.293-.359,1.81,1.81,0,0,0,.762-.82v-1.25H28.625a1.9,1.9,0,0,0-1.3.41,1.246,1.246,0,0,0-.469.965.984.984,0,0,0,.316.77A1.3,1.3,0,0,0,28.078-1.359Zm9.578-2.75a5.574,5.574,0,0,1,.867-3.262,2.8,2.8,0,0,1,2.438-1.238,2.666,2.666,0,0,1,1.23.277,2.785,2.785,0,0,1,.941.793v-4.648h1.9V0H43.438L43.25-1.047a2.794,2.794,0,0,1-.977.9,2.748,2.748,0,0,1-1.328.309A2.876,2.876,0,0,1,38.523-.969a4.766,4.766,0,0,1-.867-2.977Zm1.9.164A3.4,3.4,0,0,0,40-2.078a1.573,1.573,0,0,0,1.426.7,1.906,1.906,0,0,0,1.02-.258,1.963,1.963,0,0,0,.684-.734V-6.062a2,2,0,0,0-.687-.73,1.859,1.859,0,0,0-1-.262,1.531,1.531,0,0,0-1.43.816,4.308,4.308,0,0,0-.461,2.129ZM50.7.164a3.675,3.675,0,0,1-2.863-1.176,4.322,4.322,0,0,1-1.066-3.02v-.312A4.488,4.488,0,0,1,47.824-7.4a3.348,3.348,0,0,1,2.652-1.207A3.3,3.3,0,0,1,53.1-7.574a4.056,4.056,0,0,1,.91,2.777V-3.68H48.734l-.016.039A2.647,2.647,0,0,0,49.309-2a1.868,1.868,0,0,0,1.5.638,4.065,4.065,0,0,0,1.313-.187,4.3,4.3,0,0,0,1.055-.539l.609,1.245a3.927,3.927,0,0,1-1.266.715A5.278,5.278,0,0,1,50.7.164Zm-.219-7.25a1.424,1.424,0,0,0-1.156.559,2.75,2.75,0,0,0-.562,1.418l.016.039h3.352v-.2a2.023,2.023,0,0,0-.41-1.312A1.5,1.5,0,0,0,50.477-7.086ZM3.141,15.688V20h-1.9V8.625H5.688A4.214,4.214,0,0,1,8.637,9.6,3.3,3.3,0,0,1,9.7,12.156a3.293,3.293,0,0,1-1.066,2.566,4.236,4.236,0,0,1-2.949.965Zm0-1.523H5.688A2.081,2.081,0,0,0,7.273,13.6a2,2,0,0,0,.531-1.43,2.055,2.055,0,0,0-.531-1.445,2.049,2.049,0,0,0-1.586-.578H3.141Zm11.711,6a3.675,3.675,0,0,1-2.863-1.176,4.322,4.322,0,0,1-1.066-3.02v-.312A4.488,4.488,0,0,1,11.98,12.6a3.348,3.348,0,0,1,2.652-1.207,3.3,3.3,0,0,1,2.621,1.035,4.056,4.056,0,0,1,.91,2.777V16.32H12.891l-.016.039A2.647,2.647,0,0,0,13.465,18a1.868,1.868,0,0,0,1.5.638,4.065,4.065,0,0,0,1.313-.187,4.3,4.3,0,0,0,1.055-.539l.609,1.245a3.927,3.927,0,0,1-1.266.715A5.278,5.278,0,0,1,14.852,20.164Zm-.219-7.25a1.424,1.424,0,0,0-1.156.559,2.75,2.75,0,0,0-.562,1.418l.016.039h3.352v-.2a2.023,2.023,0,0,0-.41-1.312A1.5,1.5,0,0,0,14.633,12.914Zm.477-4.664h2.1l.016.047-2.133,2.031H13.617Zm8.8,5.008-.812-.031a1.7,1.7,0,0,0-.926.234,1.544,1.544,0,0,0-.574.664V20H19.7V11.547H21.43l.125,1.227a2.711,2.711,0,0,1,.824-1.016,1.919,1.919,0,0,1,1.16-.367,1.769,1.769,0,0,1,.32.027,2.339,2.339,0,0,1,.273.066Zm.977,2.633a5.574,5.574,0,0,1,.867-3.262,2.8,2.8,0,0,1,2.438-1.238,2.666,2.666,0,0,1,1.23.277,2.785,2.785,0,0,1,.941.793V7.813h1.9V20H30.664l-.187-1.047a2.794,2.794,0,0,1-.977.9,2.748,2.748,0,0,1-1.328.309,2.876,2.876,0,0,1-2.422-1.133,4.766,4.766,0,0,1-.867-2.977Zm1.9.164a3.4,3.4,0,0,0,.449,1.867,1.573,1.573,0,0,0,1.426.7,1.906,1.906,0,0,0,1.02-.258,1.963,1.963,0,0,0,.684-.734V13.938a2,2,0,0,0-.687-.73,1.859,1.859,0,0,0-1-.262,1.531,1.531,0,0,0-1.43.816,4.308,4.308,0,0,0-.461,2.129ZM36.32,20h-1.9V11.547h1.9Zm0-10.523h-1.9V7.813h1.9Zm1.773,6.414a5.574,5.574,0,0,1,.867-3.262A2.8,2.8,0,0,1,41.4,11.391a2.666,2.666,0,0,1,1.23.277,2.785,2.785,0,0,1,.941.793V7.813h1.9V20H43.875l-.187-1.047a2.794,2.794,0,0,1-.977.9,2.748,2.748,0,0,1-1.328.309,2.876,2.876,0,0,1-2.422-1.133,4.766,4.766,0,0,1-.867-2.977Zm1.9.164a3.4,3.4,0,0,0,.449,1.867,1.573,1.573,0,0,0,1.426.7,1.906,1.906,0,0,0,1.02-.258,1.963,1.963,0,0,0,.684-.734V13.938a2,2,0,0,0-.687-.73,1.859,1.859,0,0,0-1-.262,1.531,1.531,0,0,0-1.43.816,4.308,4.308,0,0,0-.461,2.129ZM52.594,20q-.1-.32-.168-.625a4.468,4.468,0,0,1-.09-.609,3.354,3.354,0,0,1-1.027,1,2.614,2.614,0,0,1-1.426.4,2.81,2.81,0,0,1-2.027-.68,2.468,2.468,0,0,1-.707-1.867,2.206,2.206,0,0,1,.969-1.91,4.678,4.678,0,0,1,2.727-.684H52.32v-.742a1.372,1.372,0,0,0-.391-1.039,1.55,1.55,0,0,0-1.117-.375,1.582,1.582,0,0,0-1.031.313.992.992,0,0,0-.383.8H47.57l-.008-.047a2.094,2.094,0,0,1,.895-1.773,3.79,3.79,0,0,1,2.473-.773,3.617,3.617,0,0,1,2.383.75,2.64,2.64,0,0,1,.906,2.156v3.758a6.93,6.93,0,0,0,.07,1,5.331,5.331,0,0,0,.227.941Zm-2.328-1.359a2.387,2.387,0,0,0,1.293-.359,1.81,1.81,0,0,0,.762-.82v-1.25H50.813a1.9,1.9,0,0,0-1.3.41,1.246,1.246,0,0,0-.469.965.984.984,0,0,0,.316.77A1.3,1.3,0,0,0,50.266,18.641Z" transform="translate(-9466 -9018)" fill="#111e61"/>
    <path id="Trazado_5036" data-name="Trazado 5036" d="M9.539-3.773l.016.047A3.582,3.582,0,0,1,8.434-.918,4.376,4.376,0,0,1,5.313.164a4.219,4.219,0,0,1-3.238-1.34A4.831,4.831,0,0,1,.828-4.6V-6.766a4.885,4.885,0,0,1,1.23-3.426,4.131,4.131,0,0,1,3.2-1.348A4.534,4.534,0,0,1,8.434-10.48,3.575,3.575,0,0,1,9.563-7.633l-.016.047H7.711A2.463,2.463,0,0,0,7.09-9.375a2.439,2.439,0,0,0-1.832-.641,2.182,2.182,0,0,0-1.848.921,3.771,3.771,0,0,0-.684,2.31v2.178a3.737,3.737,0,0,0,.7,2.326,2.246,2.246,0,0,0,1.887.921A2.376,2.376,0,0,0,7.1-1.99a2.462,2.462,0,0,0,.609-1.783ZM10.82-4.3A4.6,4.6,0,0,1,11.852-7.4a3.556,3.556,0,0,1,2.836-1.211A3.545,3.545,0,0,1,17.539-7.4,4.564,4.564,0,0,1,18.578-4.3v.164a4.587,4.587,0,0,1-1.039,3.109A3.548,3.548,0,0,1,14.7.164a3.57,3.57,0,0,1-2.852-1.2,4.6,4.6,0,0,1-1.031-3.1Zm1.9.16A3.766,3.766,0,0,0,13.2-2.132a1.634,1.634,0,0,0,1.5.772,1.642,1.642,0,0,0,1.484-.772,3.673,3.673,0,0,0,.5-2.013v-.164a3.625,3.625,0,0,0-.5-1.99,1.648,1.648,0,0,0-1.5-.788A1.633,1.633,0,0,0,13.2-6.3a3.741,3.741,0,0,0-.484,1.99ZM24.984-2.3a.883.883,0,0,0-.375-.727,3.74,3.74,0,0,0-1.4-.508,5.8,5.8,0,0,1-2.293-.91,1.908,1.908,0,0,1-.777-1.605,2.284,2.284,0,0,1,.9-1.812,3.573,3.573,0,0,1,2.367-.75,3.707,3.707,0,0,1,2.457.762,2.256,2.256,0,0,1,.871,1.887l-.016.047H24.9a1.191,1.191,0,0,0-.4-.9,1.532,1.532,0,0,0-1.094-.375,1.565,1.565,0,0,0-1.047.309A.958.958,0,0,0,22-6.125a.846.846,0,0,0,.34.707,3.649,3.649,0,0,0,1.379.465,5.809,5.809,0,0,1,2.363.926,1.952,1.952,0,0,1,.77,1.629A2.216,2.216,0,0,1,25.91-.547a4.011,4.011,0,0,1-2.48.711,3.786,3.786,0,0,1-2.6-.844,2.383,2.383,0,0,1-.906-1.937l.016-.047H21.7a1.266,1.266,0,0,0,.531,1.07,2.135,2.135,0,0,0,1.219.336,1.946,1.946,0,0,0,1.133-.281A.882.882,0,0,0,24.984-2.3Zm5.93-8.211v2.055H32.43v1.406H30.914v4.672a1.019,1.019,0,0,0,.227.746.821.821,0,0,0,.6.223,1.679,1.679,0,0,0,.3-.027,1.852,1.852,0,0,0,.281-.074l.2,1.391a2.177,2.177,0,0,1-.578.207,3.214,3.214,0,0,1-.7.074,2.177,2.177,0,0,1-1.641-.613,2.686,2.686,0,0,1-.594-1.926V-7.047H27.734V-8.453h1.289v-2.055Zm2.852,6.2A4.6,4.6,0,0,1,34.8-7.4a3.556,3.556,0,0,1,2.836-1.211A3.545,3.545,0,0,1,40.484-7.4,4.564,4.564,0,0,1,41.523-4.3v.164a4.587,4.587,0,0,1-1.039,3.109,3.548,3.548,0,0,1-2.836,1.2,3.57,3.57,0,0,1-2.852-1.2,4.6,4.6,0,0,1-1.031-3.1Zm1.9.16a3.766,3.766,0,0,0,.484,2.013,1.634,1.634,0,0,0,1.5.772,1.642,1.642,0,0,0,1.484-.772,3.673,3.673,0,0,0,.5-2.013v-.164a3.625,3.625,0,0,0-.5-1.99,1.648,1.648,0,0,0-1.5-.788,1.633,1.633,0,0,0-1.484.788,3.741,3.741,0,0,0-.484,1.99ZM47.93-2.3a.883.883,0,0,0-.375-.727,3.74,3.74,0,0,0-1.4-.508,5.8,5.8,0,0,1-2.293-.91,1.908,1.908,0,0,1-.777-1.605,2.284,2.284,0,0,1,.9-1.812,3.573,3.573,0,0,1,2.367-.75,3.707,3.707,0,0,1,2.457.762,2.256,2.256,0,0,1,.871,1.887l-.016.047h-1.82a1.191,1.191,0,0,0-.4-.9,1.532,1.532,0,0,0-1.094-.375,1.565,1.565,0,0,0-1.047.309.958.958,0,0,0-.359.754.846.846,0,0,0,.34.707,3.649,3.649,0,0,0,1.379.465,5.809,5.809,0,0,1,2.363.926A1.952,1.952,0,0,1,49.8-2.4a2.216,2.216,0,0,1-.941,1.852,4.011,4.011,0,0,1-2.48.711,3.786,3.786,0,0,1-2.6-.844,2.383,2.383,0,0,1-.906-1.937l.016-.047h1.766a1.266,1.266,0,0,0,.531,1.07,2.135,2.135,0,0,0,1.219.336,1.946,1.946,0,0,0,1.133-.281A.882.882,0,0,0,47.93-2.3ZM56.1,0V-7.047H54.813V-8.453H56.1v-.984a2.908,2.908,0,0,1,.762-2.156A2.9,2.9,0,0,1,59-12.352a3.669,3.669,0,0,1,.555.043q.281.043.633.121l-.2,1.469q-.156-.031-.348-.055a3.381,3.381,0,0,0-.41-.023,1.167,1.167,0,0,0-.926.352A1.481,1.481,0,0,0,58-9.437v.984h1.719v1.406H58V0Zm7.023,0h-1.9V-8.453h1.9Zm0-10.523h-1.9v-1.664h1.9Zm4.234,2.07V.492a3.006,3.006,0,0,1-.727,2.16,2.663,2.663,0,0,1-2.023.762,3.74,3.74,0,0,1-.508-.031,3.564,3.564,0,0,1-.477-.1l.109-1.516a2.331,2.331,0,0,0,.328.066,2.607,2.607,0,0,0,.359.027.939.939,0,0,0,.762-.332A1.6,1.6,0,0,0,65.461.492V-8.453Zm-.047-2.07h-1.9v-1.664h1.9ZM69.094-4.3A4.6,4.6,0,0,1,70.125-7.4a3.556,3.556,0,0,1,2.836-1.211A3.545,3.545,0,0,1,75.813-7.4,4.564,4.564,0,0,1,76.852-4.3v.164a4.587,4.587,0,0,1-1.039,3.109,3.548,3.548,0,0,1-2.836,1.2,3.57,3.57,0,0,1-2.852-1.2,4.6,4.6,0,0,1-1.031-3.1Zm1.9.16a3.766,3.766,0,0,0,.484,2.013,1.634,1.634,0,0,0,1.5.772,1.642,1.642,0,0,0,1.484-.772,3.673,3.673,0,0,0,.5-2.013v-.164a3.625,3.625,0,0,0-.5-1.99,1.648,1.648,0,0,0-1.5-.788,1.633,1.633,0,0,0-1.484.788,3.741,3.741,0,0,0-.484,1.99ZM83.258-2.3a.883.883,0,0,0-.375-.727,3.74,3.74,0,0,0-1.4-.508,5.8,5.8,0,0,1-2.293-.91,1.908,1.908,0,0,1-.777-1.605,2.284,2.284,0,0,1,.9-1.812,3.573,3.573,0,0,1,2.367-.75,3.707,3.707,0,0,1,2.457.762,2.256,2.256,0,0,1,.871,1.887l-.016.047h-1.82a1.191,1.191,0,0,0-.4-.9,1.532,1.532,0,0,0-1.094-.375,1.565,1.565,0,0,0-1.047.309.958.958,0,0,0-.359.754.846.846,0,0,0,.34.707,3.649,3.649,0,0,0,1.379.465,5.81,5.81,0,0,1,2.363.926,1.952,1.952,0,0,1,.77,1.629,2.216,2.216,0,0,1-.941,1.852A4.011,4.011,0,0,1,81.7.164,3.786,3.786,0,0,1,79.1-.68,2.383,2.383,0,0,1,78.2-2.617l.016-.047h1.766a1.266,1.266,0,0,0,.531,1.07,2.135,2.135,0,0,0,1.219.336,1.946,1.946,0,0,0,1.133-.281A.882.882,0,0,0,83.258-2.3Z" transform="translate(-9062 -8978)" fill="#111e61"/>
    <path id="Trazado_5037" data-name="Trazado 5037" d="M7.406-2.656H2.953L2.047,0H.125L4.3-11.375H6.1L10.234,0H8.3ZM3.5-4.242H6.867L5.219-9.1H5.172ZM5.938-14.266h2.1l.016.047L5.922-12.187H4.445Zm9.586,7.523-.812-.031a1.7,1.7,0,0,0-.926.234,1.544,1.544,0,0,0-.574.664V0h-1.9V-8.453h1.734l.125,1.227A2.711,2.711,0,0,1,14-8.242a1.919,1.919,0,0,1,1.16-.367,1.769,1.769,0,0,1,.32.027,2.339,2.339,0,0,1,.273.066ZM20.477.164a3.675,3.675,0,0,1-2.863-1.176,4.322,4.322,0,0,1-1.066-3.02v-.312A4.488,4.488,0,0,1,17.605-7.4a3.348,3.348,0,0,1,2.652-1.207,3.3,3.3,0,0,1,2.621,1.035,4.056,4.056,0,0,1,.91,2.777V-3.68H18.516l-.016.039A2.647,2.647,0,0,0,19.09-2a1.868,1.868,0,0,0,1.5.638,4.065,4.065,0,0,0,1.313-.187,4.3,4.3,0,0,0,1.055-.539L23.57-.841A3.927,3.927,0,0,1,22.3-.126,5.278,5.278,0,0,1,20.477.164Zm-.219-7.25a1.424,1.424,0,0,0-1.156.559,2.75,2.75,0,0,0-.562,1.418l.016.039h3.352v-.2a2.023,2.023,0,0,0-.41-1.312A1.5,1.5,0,0,0,20.258-7.086ZM30.406,0q-.1-.32-.168-.625a4.468,4.468,0,0,1-.09-.609,3.354,3.354,0,0,1-1.027,1,2.614,2.614,0,0,1-1.426.4,2.81,2.81,0,0,1-2.027-.68,2.468,2.468,0,0,1-.707-1.867,2.206,2.206,0,0,1,.969-1.91,4.678,4.678,0,0,1,2.727-.684h1.477v-.742a1.372,1.372,0,0,0-.391-1.039,1.55,1.55,0,0,0-1.117-.375,1.582,1.582,0,0,0-1.031.313.992.992,0,0,0-.383.8H25.383l-.008-.047a2.094,2.094,0,0,1,.895-1.773,3.79,3.79,0,0,1,2.473-.773,3.616,3.616,0,0,1,2.383.75A2.64,2.64,0,0,1,32.031-5.7v3.758a6.93,6.93,0,0,0,.07,1A5.331,5.331,0,0,0,32.328,0ZM28.078-1.359a2.387,2.387,0,0,0,1.293-.359,1.81,1.81,0,0,0,.762-.82v-1.25H28.625a1.9,1.9,0,0,0-1.3.41,1.246,1.246,0,0,0-.469.965.984.984,0,0,0,.316.77A1.3,1.3,0,0,0,28.078-1.359Zm9.578-2.75a5.574,5.574,0,0,1,.867-3.262,2.8,2.8,0,0,1,2.438-1.238,2.666,2.666,0,0,1,1.23.277,2.785,2.785,0,0,1,.941.793v-4.648h1.9V0H43.438L43.25-1.047a2.794,2.794,0,0,1-.977.9,2.748,2.748,0,0,1-1.328.309A2.876,2.876,0,0,1,38.523-.969a4.766,4.766,0,0,1-.867-2.977Zm1.9.164A3.4,3.4,0,0,0,40-2.078a1.573,1.573,0,0,0,1.426.7,1.906,1.906,0,0,0,1.02-.258,1.963,1.963,0,0,0,.684-.734V-6.062a2,2,0,0,0-.687-.73,1.859,1.859,0,0,0-1-.262,1.531,1.531,0,0,0-1.43.816,4.308,4.308,0,0,0-.461,2.129ZM50.7.164a3.675,3.675,0,0,1-2.863-1.176,4.322,4.322,0,0,1-1.066-3.02v-.312A4.488,4.488,0,0,1,47.824-7.4a3.348,3.348,0,0,1,2.652-1.207A3.3,3.3,0,0,1,53.1-7.574a4.056,4.056,0,0,1,.91,2.777V-3.68H48.734l-.016.039A2.647,2.647,0,0,0,49.309-2a1.868,1.868,0,0,0,1.5.638,4.065,4.065,0,0,0,1.313-.187,4.3,4.3,0,0,0,1.055-.539l.609,1.245a3.927,3.927,0,0,1-1.266.715A5.278,5.278,0,0,1,50.7.164Zm-.219-7.25a1.424,1.424,0,0,0-1.156.559,2.75,2.75,0,0,0-.562,1.418l.016.039h3.352v-.2a2.023,2.023,0,0,0-.41-1.312A1.5,1.5,0,0,0,50.477-7.086ZM9.719,18.461A3.964,3.964,0,0,1,8.23,19.637a5.854,5.854,0,0,1-2.66.527,4.634,4.634,0,0,1-3.383-1.3A4.5,4.5,0,0,1,.859,15.5V13.125A4.645,4.645,0,0,1,2.113,9.762a4.3,4.3,0,0,1,3.238-1.3,4.543,4.543,0,0,1,3.121.988,3.351,3.351,0,0,1,1.137,2.574l-.016.047H7.8a2.2,2.2,0,0,0-.668-1.512,2.454,2.454,0,0,0-1.754-.574,2.339,2.339,0,0,0-1.9.882,3.419,3.419,0,0,0-.723,2.24v2.388a3.28,3.28,0,0,0,.785,2.26,2.593,2.593,0,0,0,2.035.886,4.217,4.217,0,0,0,1.445-.206,2,2,0,0,0,.8-.487V15.641H5.563V14.219H9.719ZM16.891,20q-.1-.32-.168-.625a4.468,4.468,0,0,1-.09-.609,3.354,3.354,0,0,1-1.027,1,2.614,2.614,0,0,1-1.426.4,2.81,2.81,0,0,1-2.027-.68,2.468,2.468,0,0,1-.707-1.867,2.206,2.206,0,0,1,.969-1.91,4.678,4.678,0,0,1,2.727-.684h1.477v-.742a1.372,1.372,0,0,0-.391-1.039,1.55,1.55,0,0,0-1.117-.375,1.582,1.582,0,0,0-1.031.313.992.992,0,0,0-.383.8H11.867l-.008-.047a2.094,2.094,0,0,1,.895-1.773,3.79,3.79,0,0,1,2.473-.773,3.616,3.616,0,0,1,2.383.75,2.64,2.64,0,0,1,.906,2.156v3.758a6.93,6.93,0,0,0,.07,1,5.331,5.331,0,0,0,.227.941Zm-2.328-1.359a2.387,2.387,0,0,0,1.293-.359,1.81,1.81,0,0,0,.762-.82v-1.25H15.109a1.9,1.9,0,0,0-1.3.41,1.246,1.246,0,0,0-.469.965.984.984,0,0,0,.316.77A1.3,1.3,0,0,0,14.563,18.641Zm7.664-7.094.109,1.219a3.023,3.023,0,0,1,1.043-1.012,2.783,2.783,0,0,1,1.418-.363,2.66,2.66,0,0,1,2.059.8,3.592,3.592,0,0,1,.738,2.5V20H25.7V14.7a1.9,1.9,0,0,0-.395-1.355,1.611,1.611,0,0,0-1.2-.4,1.988,1.988,0,0,0-.992.246,2.051,2.051,0,0,0-.719.676V20h-1.9V11.547ZM34.656,20q-.1-.32-.168-.625a4.468,4.468,0,0,1-.09-.609,3.354,3.354,0,0,1-1.027,1,2.614,2.614,0,0,1-1.426.4,2.81,2.81,0,0,1-2.027-.68,2.468,2.468,0,0,1-.707-1.867,2.206,2.206,0,0,1,.969-1.91,4.678,4.678,0,0,1,2.727-.684h1.477v-.742a1.372,1.372,0,0,0-.391-1.039,1.55,1.55,0,0,0-1.117-.375,1.582,1.582,0,0,0-1.031.313.992.992,0,0,0-.383.8H29.633l-.008-.047a2.094,2.094,0,0,1,.895-1.773,3.79,3.79,0,0,1,2.473-.773,3.617,3.617,0,0,1,2.383.75,2.64,2.64,0,0,1,.906,2.156v3.758a6.93,6.93,0,0,0,.07,1,5.331,5.331,0,0,0,.227.941Zm-2.328-1.359a2.387,2.387,0,0,0,1.293-.359,1.81,1.81,0,0,0,.762-.82v-1.25H32.875a1.9,1.9,0,0,0-1.3.41,1.246,1.246,0,0,0-.469.965.984.984,0,0,0,.316.77A1.3,1.3,0,0,0,32.328,18.641Zm7.664-7.094.109,1.219a3.024,3.024,0,0,1,1.043-1.012,2.783,2.783,0,0,1,1.418-.363,2.66,2.66,0,0,1,2.059.8,3.592,3.592,0,0,1,.738,2.5V20h-1.9V14.7a1.9,1.9,0,0,0-.395-1.355,1.611,1.611,0,0,0-1.2-.4,1.988,1.988,0,0,0-.992.246,2.051,2.051,0,0,0-.719.676V20h-1.9V11.547Zm10.836,7.094A1.74,1.74,0,0,0,52,18.233a1.29,1.29,0,0,0,.477-1.022H54.2l.016.047a2.5,2.5,0,0,1-.965,2.047,3.594,3.594,0,0,1-2.418.859,3.506,3.506,0,0,1-2.863-1.2,4.618,4.618,0,0,1-1-3.047v-.273a4.622,4.622,0,0,1,1-3.043,3.95,3.95,0,0,1,5.336-.32,2.854,2.854,0,0,1,.918,2.254l-.016.047H52.477a1.656,1.656,0,0,0-.457-1.18,1.563,1.563,0,0,0-1.191-.484,1.6,1.6,0,0,0-1.516.776,3.866,3.866,0,0,0-.445,1.947v.273a3.874,3.874,0,0,0,.445,1.962A1.608,1.608,0,0,0,50.828,18.641ZM57.758,20h-1.9V11.547h1.9Zm0-10.523h-1.9V7.813h1.9ZM64.969,20q-.1-.32-.168-.625a4.467,4.467,0,0,1-.09-.609,3.354,3.354,0,0,1-1.027,1,2.614,2.614,0,0,1-1.426.4,2.81,2.81,0,0,1-2.027-.68,2.468,2.468,0,0,1-.707-1.867,2.206,2.206,0,0,1,.969-1.91,4.678,4.678,0,0,1,2.727-.684H64.7v-.742a1.372,1.372,0,0,0-.391-1.039,1.55,1.55,0,0,0-1.117-.375,1.582,1.582,0,0,0-1.031.313.992.992,0,0,0-.383.8H59.945l-.008-.047a2.094,2.094,0,0,1,.895-1.773,3.79,3.79,0,0,1,2.473-.773,3.616,3.616,0,0,1,2.383.75,2.64,2.64,0,0,1,.906,2.156v3.758a6.93,6.93,0,0,0,.07,1,5.331,5.331,0,0,0,.227.941Zm-2.328-1.359a2.387,2.387,0,0,0,1.293-.359,1.81,1.81,0,0,0,.762-.82v-1.25H63.188a1.9,1.9,0,0,0-1.3.41,1.246,1.246,0,0,0-.469.965.984.984,0,0,0,.316.77A1.3,1.3,0,0,0,62.641,18.641Zm10.7-.937a.883.883,0,0,0-.375-.727,3.74,3.74,0,0,0-1.4-.508,5.8,5.8,0,0,1-2.293-.91,1.908,1.908,0,0,1-.777-1.605,2.284,2.284,0,0,1,.9-1.812,3.573,3.573,0,0,1,2.367-.75,3.707,3.707,0,0,1,2.457.762,2.256,2.256,0,0,1,.871,1.887l-.016.047H73.25a1.191,1.191,0,0,0-.4-.9,1.532,1.532,0,0,0-1.094-.375,1.565,1.565,0,0,0-1.047.309.958.958,0,0,0-.359.754.846.846,0,0,0,.34.707,3.649,3.649,0,0,0,1.379.465,5.81,5.81,0,0,1,2.363.926A1.952,1.952,0,0,1,75.2,17.6a2.216,2.216,0,0,1-.941,1.852,4.011,4.011,0,0,1-2.48.711,3.786,3.786,0,0,1-2.6-.844,2.383,2.383,0,0,1-.906-1.937l.016-.047h1.766a1.266,1.266,0,0,0,.531,1.07,2.135,2.135,0,0,0,1.219.336,1.946,1.946,0,0,0,1.133-.281A.882.882,0,0,0,73.336,17.7Z" transform="translate(-8922 -9338)" fill="#111e61"/>
    <path id="Trazado_5038" data-name="Trazado 5038" d="M9.539-3.773l.016.047A3.582,3.582,0,0,1,8.434-.918,4.376,4.376,0,0,1,5.313.164a4.219,4.219,0,0,1-3.238-1.34A4.831,4.831,0,0,1,.828-4.6V-6.766a4.885,4.885,0,0,1,1.23-3.426,4.131,4.131,0,0,1,3.2-1.348A4.534,4.534,0,0,1,8.434-10.48,3.575,3.575,0,0,1,9.563-7.633l-.016.047H7.711A2.463,2.463,0,0,0,7.09-9.375a2.439,2.439,0,0,0-1.832-.641,2.182,2.182,0,0,0-1.848.921,3.771,3.771,0,0,0-.684,2.31v2.178a3.737,3.737,0,0,0,.7,2.326,2.246,2.246,0,0,0,1.887.921A2.376,2.376,0,0,0,7.1-1.99a2.462,2.462,0,0,0,.609-1.783ZM10.82-4.3A4.6,4.6,0,0,1,11.852-7.4a3.556,3.556,0,0,1,2.836-1.211A3.545,3.545,0,0,1,17.539-7.4,4.564,4.564,0,0,1,18.578-4.3v.164a4.587,4.587,0,0,1-1.039,3.109A3.548,3.548,0,0,1,14.7.164a3.57,3.57,0,0,1-2.852-1.2,4.6,4.6,0,0,1-1.031-3.1Zm1.9.16A3.766,3.766,0,0,0,13.2-2.132a1.634,1.634,0,0,0,1.5.772,1.642,1.642,0,0,0,1.484-.772,3.673,3.673,0,0,0,.5-2.013v-.164a3.625,3.625,0,0,0-.5-1.99,1.648,1.648,0,0,0-1.5-.788A1.633,1.633,0,0,0,13.2-6.3a3.741,3.741,0,0,0-.484,1.99ZM24.984-2.3a.883.883,0,0,0-.375-.727,3.74,3.74,0,0,0-1.4-.508,5.8,5.8,0,0,1-2.293-.91,1.908,1.908,0,0,1-.777-1.605,2.284,2.284,0,0,1,.9-1.812,3.573,3.573,0,0,1,2.367-.75,3.707,3.707,0,0,1,2.457.762,2.256,2.256,0,0,1,.871,1.887l-.016.047H24.9a1.191,1.191,0,0,0-.4-.9,1.532,1.532,0,0,0-1.094-.375,1.565,1.565,0,0,0-1.047.309A.958.958,0,0,0,22-6.125a.846.846,0,0,0,.34.707,3.649,3.649,0,0,0,1.379.465,5.809,5.809,0,0,1,2.363.926,1.952,1.952,0,0,1,.77,1.629A2.216,2.216,0,0,1,25.91-.547a4.011,4.011,0,0,1-2.48.711,3.786,3.786,0,0,1-2.6-.844,2.383,2.383,0,0,1-.906-1.937l.016-.047H21.7a1.266,1.266,0,0,0,.531,1.07,2.135,2.135,0,0,0,1.219.336,1.946,1.946,0,0,0,1.133-.281A.882.882,0,0,0,24.984-2.3Zm5.93-8.211v2.055H32.43v1.406H30.914v4.672a1.019,1.019,0,0,0,.227.746.821.821,0,0,0,.6.223,1.679,1.679,0,0,0,.3-.027,1.852,1.852,0,0,0,.281-.074l.2,1.391a2.177,2.177,0,0,1-.578.207,3.214,3.214,0,0,1-.7.074,2.177,2.177,0,0,1-1.641-.613,2.686,2.686,0,0,1-.594-1.926V-7.047H27.734V-8.453h1.289v-2.055Zm2.852,6.2A4.6,4.6,0,0,1,34.8-7.4a3.556,3.556,0,0,1,2.836-1.211A3.545,3.545,0,0,1,40.484-7.4,4.564,4.564,0,0,1,41.523-4.3v.164a4.587,4.587,0,0,1-1.039,3.109,3.548,3.548,0,0,1-2.836,1.2,3.57,3.57,0,0,1-2.852-1.2,4.6,4.6,0,0,1-1.031-3.1Zm1.9.16a3.766,3.766,0,0,0,.484,2.013,1.634,1.634,0,0,0,1.5.772,1.642,1.642,0,0,0,1.484-.772,3.673,3.673,0,0,0,.5-2.013v-.164a3.625,3.625,0,0,0-.5-1.99,1.648,1.648,0,0,0-1.5-.788,1.633,1.633,0,0,0-1.484.788,3.741,3.741,0,0,0-.484,1.99ZM47.93-2.3a.883.883,0,0,0-.375-.727,3.74,3.74,0,0,0-1.4-.508,5.8,5.8,0,0,1-2.293-.91,1.908,1.908,0,0,1-.777-1.605,2.284,2.284,0,0,1,.9-1.812,3.573,3.573,0,0,1,2.367-.75,3.707,3.707,0,0,1,2.457.762,2.256,2.256,0,0,1,.871,1.887l-.016.047h-1.82a1.191,1.191,0,0,0-.4-.9,1.532,1.532,0,0,0-1.094-.375,1.565,1.565,0,0,0-1.047.309.958.958,0,0,0-.359.754.846.846,0,0,0,.34.707,3.649,3.649,0,0,0,1.379.465,5.809,5.809,0,0,1,2.363.926A1.952,1.952,0,0,1,49.8-2.4a2.216,2.216,0,0,1-.941,1.852,4.011,4.011,0,0,1-2.48.711,3.786,3.786,0,0,1-2.6-.844,2.383,2.383,0,0,1-.906-1.937l.016-.047h1.766a1.266,1.266,0,0,0,.531,1.07,2.135,2.135,0,0,0,1.219.336,1.946,1.946,0,0,0,1.133-.281A.882.882,0,0,0,47.93-2.3Zm11.406-.68.2.789h.047l.2-.773L62.5-11.375h2.023L60.461,0h-1.8L54.6-11.375h2.023ZM70.344,0q-.1-.32-.168-.625a4.467,4.467,0,0,1-.09-.609,3.354,3.354,0,0,1-1.027,1,2.614,2.614,0,0,1-1.426.4,2.81,2.81,0,0,1-2.027-.68A2.468,2.468,0,0,1,64.9-2.383a2.206,2.206,0,0,1,.969-1.91,4.678,4.678,0,0,1,2.727-.684H70.07v-.742a1.372,1.372,0,0,0-.391-1.039,1.55,1.55,0,0,0-1.117-.375,1.582,1.582,0,0,0-1.031.313.992.992,0,0,0-.383.8H65.32l-.008-.047a2.094,2.094,0,0,1,.895-1.773,3.79,3.79,0,0,1,2.473-.773,3.616,3.616,0,0,1,2.383.75A2.64,2.64,0,0,1,71.969-5.7v3.758a6.93,6.93,0,0,0,.07,1A5.331,5.331,0,0,0,72.266,0ZM68.016-1.359a2.387,2.387,0,0,0,1.293-.359,1.81,1.81,0,0,0,.762-.82v-1.25H68.563a1.9,1.9,0,0,0-1.3.41,1.246,1.246,0,0,0-.469.965.984.984,0,0,0,.316.77A1.3,1.3,0,0,0,68.016-1.359ZM78.172-6.742l-.812-.031a1.7,1.7,0,0,0-.926.234,1.543,1.543,0,0,0-.574.664V0h-1.9V-8.453H75.7l.125,1.227a2.711,2.711,0,0,1,.824-1.016,1.919,1.919,0,0,1,1.16-.367,1.769,1.769,0,0,1,.32.027,2.339,2.339,0,0,1,.273.066ZM81.523,0h-1.9V-8.453h1.9Zm0-10.523h-1.9v-1.664h1.9ZM88.734,0q-.1-.32-.168-.625a4.467,4.467,0,0,1-.09-.609,3.354,3.354,0,0,1-1.027,1,2.614,2.614,0,0,1-1.426.4A2.81,2.81,0,0,1,84-.516a2.468,2.468,0,0,1-.707-1.867,2.206,2.206,0,0,1,.969-1.91,4.678,4.678,0,0,1,2.727-.684h1.477v-.742a1.372,1.372,0,0,0-.391-1.039,1.55,1.55,0,0,0-1.117-.375,1.582,1.582,0,0,0-1.031.313.992.992,0,0,0-.383.8H83.711L83.7-6.062A2.094,2.094,0,0,1,84.6-7.836a3.79,3.79,0,0,1,2.473-.773,3.616,3.616,0,0,1,2.383.75A2.64,2.64,0,0,1,90.359-5.7v3.758a6.93,6.93,0,0,0,.07,1A5.331,5.331,0,0,0,90.656,0ZM86.406-1.359A2.387,2.387,0,0,0,87.7-1.719a1.81,1.81,0,0,0,.762-.82v-1.25H86.953a1.9,1.9,0,0,0-1.3.41,1.246,1.246,0,0,0-.469.965.984.984,0,0,0,.316.77A1.3,1.3,0,0,0,86.406-1.359ZM99.773-3.945a4.778,4.778,0,0,1-.863,2.98A2.886,2.886,0,0,1,96.477.164a2.8,2.8,0,0,1-1.371-.32,2.674,2.674,0,0,1-.973-.937L93.945,0H92.352V-12.187h1.9v4.7a2.726,2.726,0,0,1,.938-.828,2.686,2.686,0,0,1,1.273-.289A2.813,2.813,0,0,1,98.91-7.375a5.59,5.59,0,0,1,.863,3.266Zm-1.9-.164a4.365,4.365,0,0,0-.453-2.133,1.528,1.528,0,0,0-1.437-.812,1.88,1.88,0,0,0-1.059.281,1.966,1.966,0,0,0-.676.781v3.547a1.862,1.862,0,0,0,.672.785A1.951,1.951,0,0,0,96-1.383a1.574,1.574,0,0,0,1.43-.691,3.424,3.424,0,0,0,.445-1.871ZM103.438,0h-1.9V-12.187h1.9Zm5.75.164a3.675,3.675,0,0,1-2.863-1.176,4.322,4.322,0,0,1-1.066-3.02v-.312A4.488,4.488,0,0,1,106.316-7.4a3.348,3.348,0,0,1,2.652-1.207,3.3,3.3,0,0,1,2.621,1.035A4.056,4.056,0,0,1,112.5-4.8V-3.68h-5.273l-.016.039A2.647,2.647,0,0,0,107.8-2a1.868,1.868,0,0,0,1.5.638,4.065,4.065,0,0,0,1.313-.187,4.3,4.3,0,0,0,1.055-.539l.609,1.245a3.927,3.927,0,0,1-1.266.715A5.278,5.278,0,0,1,109.188.164Zm-.219-7.25a1.424,1.424,0,0,0-1.156.559,2.75,2.75,0,0,0-.562,1.418l.016.039h3.352v-.2a2.023,2.023,0,0,0-.41-1.312A1.5,1.5,0,0,0,108.969-7.086ZM118.781-2.3a.883.883,0,0,0-.375-.727,3.74,3.74,0,0,0-1.4-.508,5.8,5.8,0,0,1-2.293-.91,1.908,1.908,0,0,1-.777-1.605,2.284,2.284,0,0,1,.9-1.812,3.573,3.573,0,0,1,2.367-.75,3.707,3.707,0,0,1,2.457.762,2.256,2.256,0,0,1,.871,1.887l-.016.047H118.7a1.191,1.191,0,0,0-.4-.9,1.532,1.532,0,0,0-1.094-.375,1.565,1.565,0,0,0-1.047.309.958.958,0,0,0-.359.754.846.846,0,0,0,.34.707,3.649,3.649,0,0,0,1.379.465,5.81,5.81,0,0,1,2.363.926,1.952,1.952,0,0,1,.77,1.629,2.216,2.216,0,0,1-.941,1.852,4.011,4.011,0,0,1-2.48.711,3.786,3.786,0,0,1-2.6-.844,2.383,2.383,0,0,1-.906-1.937l.016-.047H115.5a1.266,1.266,0,0,0,.531,1.07,2.135,2.135,0,0,0,1.219.336,1.946,1.946,0,0,0,1.133-.281A.882.882,0,0,0,118.781-2.3ZM.648,15.891a5.574,5.574,0,0,1,.867-3.262,2.8,2.8,0,0,1,2.438-1.238,2.666,2.666,0,0,1,1.23.277,2.785,2.785,0,0,1,.941.793V7.813h1.9V20H6.43l-.187-1.047a2.794,2.794,0,0,1-.977.9,2.748,2.748,0,0,1-1.328.309,2.876,2.876,0,0,1-2.422-1.133,4.766,4.766,0,0,1-.867-2.977Zm1.9.164A3.4,3.4,0,0,0,3,17.922a1.573,1.573,0,0,0,1.426.7,1.906,1.906,0,0,0,1.02-.258,1.963,1.963,0,0,0,.684-.734V13.938a2,2,0,0,0-.687-.73,1.859,1.859,0,0,0-1-.262,1.531,1.531,0,0,0-1.43.816,4.308,4.308,0,0,0-.461,2.129Zm11.141,4.109a3.675,3.675,0,0,1-2.863-1.176,4.322,4.322,0,0,1-1.066-3.02v-.312A4.488,4.488,0,0,1,10.816,12.6a3.348,3.348,0,0,1,2.652-1.207,3.3,3.3,0,0,1,2.621,1.035A4.056,4.056,0,0,1,17,15.2V16.32H11.727l-.016.039A2.647,2.647,0,0,0,12.3,18a1.868,1.868,0,0,0,1.5.638,4.065,4.065,0,0,0,1.313-.187,4.3,4.3,0,0,0,1.055-.539l.609,1.245a3.927,3.927,0,0,1-1.266.715A5.278,5.278,0,0,1,13.688,20.164Zm-.219-7.25a1.424,1.424,0,0,0-1.156.559,2.75,2.75,0,0,0-.562,1.418l.016.039h3.352v-.2a2.023,2.023,0,0,0-.41-1.312A1.5,1.5,0,0,0,13.469,12.914Zm8.7,2.781A4.6,4.6,0,0,1,23.2,12.6a3.556,3.556,0,0,1,2.836-1.211A3.545,3.545,0,0,1,28.883,12.6,4.564,4.564,0,0,1,29.922,15.7v.164a4.587,4.587,0,0,1-1.039,3.109,3.548,3.548,0,0,1-2.836,1.2,3.57,3.57,0,0,1-2.852-1.2,4.6,4.6,0,0,1-1.031-3.1Zm1.9.16a3.766,3.766,0,0,0,.484,2.013,1.828,1.828,0,0,0,2.984,0,3.673,3.673,0,0,0,.5-2.013v-.164a3.625,3.625,0,0,0-.5-1.99,1.807,1.807,0,0,0-2.984,0,3.741,3.741,0,0,0-.484,1.99Zm14.922.2a4.766,4.766,0,0,1-.867,2.977A2.868,2.868,0,0,1,35.7,20.164a2.99,2.99,0,0,1-1.273-.258,2.62,2.62,0,0,1-.953-.758v4.1h-1.9v-11.7h1.6l.188,1.063a2.819,2.819,0,0,1,.98-.906,2.743,2.743,0,0,1,1.332-.312,2.807,2.807,0,0,1,2.434,1.238,5.556,5.556,0,0,1,.871,3.262Zm-1.891-.168a4.108,4.108,0,0,0-.488-2.118,1.588,1.588,0,0,0-1.457-.823,1.9,1.9,0,0,0-1.008.254,1.868,1.868,0,0,0-.664.706V17.72a1.765,1.765,0,0,0,.664.683,2.026,2.026,0,0,0,1.023.238,1.629,1.629,0,0,0,1.449-.714,3.3,3.3,0,0,0,.48-1.876Zm7.172,4.277A3.675,3.675,0,0,1,41.4,18.988a4.322,4.322,0,0,1-1.066-3.02v-.312A4.488,4.488,0,0,1,41.395,12.6a3.348,3.348,0,0,1,2.652-1.207,3.3,3.3,0,0,1,2.621,1.035,4.056,4.056,0,0,1,.91,2.777V16.32H42.3l-.016.039A2.647,2.647,0,0,0,42.879,18a1.868,1.868,0,0,0,1.5.638,4.065,4.065,0,0,0,1.313-.187,4.3,4.3,0,0,0,1.055-.539l.609,1.245a3.927,3.927,0,0,1-1.266.715A5.278,5.278,0,0,1,44.266,20.164Zm-.219-7.25a1.424,1.424,0,0,0-1.156.559,2.75,2.75,0,0,0-.562,1.418l.016.039H45.7v-.2a2.023,2.023,0,0,0-.41-1.312A1.5,1.5,0,0,0,44.047,12.914Zm9.273.344-.812-.031a1.7,1.7,0,0,0-.926.234,1.544,1.544,0,0,0-.574.664V20h-1.9V11.547h1.734l.125,1.227a2.711,2.711,0,0,1,.824-1.016,1.919,1.919,0,0,1,1.16-.367,1.769,1.769,0,0,1,.32.027,2.339,2.339,0,0,1,.273.066ZM59.734,20q-.1-.32-.168-.625a4.468,4.468,0,0,1-.09-.609,3.354,3.354,0,0,1-1.027,1,2.614,2.614,0,0,1-1.426.4A2.81,2.81,0,0,1,55,19.484a2.468,2.468,0,0,1-.707-1.867,2.206,2.206,0,0,1,.969-1.91,4.678,4.678,0,0,1,2.727-.684h1.477v-.742a1.372,1.372,0,0,0-.391-1.039,1.55,1.55,0,0,0-1.117-.375,1.582,1.582,0,0,0-1.031.313.992.992,0,0,0-.383.8H54.711l-.008-.047a2.094,2.094,0,0,1,.895-1.773,3.79,3.79,0,0,1,2.473-.773,3.617,3.617,0,0,1,2.383.75,2.64,2.64,0,0,1,.906,2.156v3.758a6.93,6.93,0,0,0,.07,1,5.331,5.331,0,0,0,.227.941Zm-2.328-1.359a2.387,2.387,0,0,0,1.293-.359,1.81,1.81,0,0,0,.762-.82v-1.25H57.953a1.9,1.9,0,0,0-1.3.41,1.246,1.246,0,0,0-.469.965.984.984,0,0,0,.316.77A1.3,1.3,0,0,0,57.406,18.641Zm9.438,0a1.74,1.74,0,0,0,1.172-.408,1.29,1.29,0,0,0,.477-1.022h1.719l.016.047a2.5,2.5,0,0,1-.965,2.047,3.594,3.594,0,0,1-2.418.859,3.506,3.506,0,0,1-2.863-1.2,4.618,4.618,0,0,1-1-3.047v-.273a4.622,4.622,0,0,1,1-3.043,3.95,3.95,0,0,1,5.336-.32,2.854,2.854,0,0,1,.918,2.254l-.016.047H68.492a1.656,1.656,0,0,0-.457-1.18,1.563,1.563,0,0,0-1.191-.484,1.6,1.6,0,0,0-1.516.776,3.866,3.866,0,0,0-.445,1.947v.273a3.874,3.874,0,0,0,.445,1.962A1.608,1.608,0,0,0,66.844,18.641ZM73.773,20h-1.9V11.547h1.9Zm0-10.523h-1.9V7.813h1.9ZM75.547,15.7A4.6,4.6,0,0,1,76.578,12.6a3.945,3.945,0,0,1,5.688,0A4.564,4.564,0,0,1,83.3,15.7v.164a4.587,4.587,0,0,1-1.039,3.109,3.971,3.971,0,0,1-5.687-.008,4.6,4.6,0,0,1-1.031-3.1Zm1.9.16a3.766,3.766,0,0,0,.484,2.013,1.828,1.828,0,0,0,2.984,0,3.673,3.673,0,0,0,.5-2.013v-.164a3.625,3.625,0,0,0-.5-1.99,1.807,1.807,0,0,0-2.984,0,3.741,3.741,0,0,0-.484,1.99Zm2.547-7.6h2.1l.016.047-2.133,2.031H78.5Zm6.688,3.289.109,1.219a3.023,3.023,0,0,1,1.043-1.012,2.783,2.783,0,0,1,1.418-.363,2.66,2.66,0,0,1,2.059.8,3.592,3.592,0,0,1,.738,2.5V20h-1.9V14.7a1.9,1.9,0,0,0-.395-1.355,1.611,1.611,0,0,0-1.2-.4,1.988,1.988,0,0,0-.992.246,2.051,2.051,0,0,0-.719.676V20h-1.9V11.547Z" transform="translate(-9058 -9135)" fill="#111e61"/>
    <path id="Trazado_4986" data-name="Trazado 4986" d="M-11113.339-9751.363h570.905" transform="translate(1622 709)" fill="none" stroke="#5dc2ae" stroke-width="1"/>
    <path id="Trazado_5039" data-name="Trazado 5039" d="M5,0h99a5,5,0,0,1,5,5V60a5,5,0,0,1-5,5H5a5,5,0,0,1-5-5V5A5,5,0,0,1,5,0Z" transform="translate(-9231 -9284)" fill="#022644"/>
    <path id="Trazado_5040" data-name="Trazado 5040" d="M3.141-4.312V0h-1.9V-11.375H5.688a4.214,4.214,0,0,1,2.949.973A3.3,3.3,0,0,1,9.7-7.844,3.293,3.293,0,0,1,8.637-5.277a4.236,4.236,0,0,1-2.949.965Zm0-1.523H5.688A2.081,2.081,0,0,0,7.273-6.4,2,2,0,0,0,7.8-7.828a2.055,2.055,0,0,0-.531-1.445,2.049,2.049,0,0,0-1.586-.578H3.141ZM16.6-1.234A2.892,2.892,0,0,1,15.594-.2a2.693,2.693,0,0,1-1.406.363A2.687,2.687,0,0,1,12.063-.7,3.994,3.994,0,0,1,11.3-3.4V-8.453h1.891v5.07a2.534,2.534,0,0,0,.359,1.555,1.312,1.312,0,0,0,1.086.445,2.442,2.442,0,0,0,1.152-.246,1.787,1.787,0,0,0,.73-.715V-8.453h1.9V0H16.758Zm5.516-7.219.109,1.219A3.023,3.023,0,0,1,23.27-8.246a2.783,2.783,0,0,1,1.418-.363,2.66,2.66,0,0,1,2.059.8,3.592,3.592,0,0,1,.738,2.5V0h-1.9V-5.3a1.9,1.9,0,0,0-.395-1.355,1.611,1.611,0,0,0-1.2-.4A1.988,1.988,0,0,0,23-6.809a2.051,2.051,0,0,0-.719.676V0h-1.9V-8.453Zm9.7-2.055v2.055h1.516v1.406H31.82v4.672a1.019,1.019,0,0,0,.227.746.821.821,0,0,0,.6.223,1.678,1.678,0,0,0,.3-.027,1.852,1.852,0,0,0,.281-.074l.2,1.391a2.177,2.177,0,0,1-.578.207,3.214,3.214,0,0,1-.7.074,2.177,2.177,0,0,1-1.641-.613,2.686,2.686,0,0,1-.594-1.926V-7.047H28.641V-8.453H29.93v-2.055Zm2.852,6.2A4.6,4.6,0,0,1,35.7-7.4a3.556,3.556,0,0,1,2.836-1.211A3.545,3.545,0,0,1,41.391-7.4,4.564,4.564,0,0,1,42.43-4.3v.164a4.587,4.587,0,0,1-1.039,3.109,3.548,3.548,0,0,1-2.836,1.2,3.57,3.57,0,0,1-2.852-1.2,4.6,4.6,0,0,1-1.031-3.1Zm1.9.16a3.766,3.766,0,0,0,.484,2.013,1.634,1.634,0,0,0,1.5.772,1.642,1.642,0,0,0,1.484-.772,3.673,3.673,0,0,0,.5-2.013v-.164a3.625,3.625,0,0,0-.5-1.99,1.648,1.648,0,0,0-1.5-.788,1.633,1.633,0,0,0-1.484.788,3.741,3.741,0,0,0-.484,1.99Zm11.148.035a5.574,5.574,0,0,1,.867-3.262,2.8,2.8,0,0,1,2.438-1.238,2.666,2.666,0,0,1,1.23.277,2.785,2.785,0,0,1,.941.793v-4.648h1.9V0H53.5l-.187-1.047a2.794,2.794,0,0,1-.977.9,2.748,2.748,0,0,1-1.328.309A2.876,2.876,0,0,1,48.586-.969a4.766,4.766,0,0,1-.867-2.977Zm1.9.164a3.4,3.4,0,0,0,.449,1.867,1.573,1.573,0,0,0,1.426.7,1.906,1.906,0,0,0,1.02-.258,1.963,1.963,0,0,0,.684-.734V-6.062a2,2,0,0,0-.687-.73,1.859,1.859,0,0,0-1-.262,1.531,1.531,0,0,0-1.43.816,4.308,4.308,0,0,0-.461,2.129ZM60.758.164a3.675,3.675,0,0,1-2.863-1.176,4.322,4.322,0,0,1-1.066-3.02v-.312A4.488,4.488,0,0,1,57.887-7.4a3.348,3.348,0,0,1,2.652-1.207A3.3,3.3,0,0,1,63.16-7.574,4.056,4.056,0,0,1,64.07-4.8V-3.68H58.8l-.016.039A2.647,2.647,0,0,0,59.371-2a1.868,1.868,0,0,0,1.5.638,4.065,4.065,0,0,0,1.313-.187,4.3,4.3,0,0,0,1.055-.539l.609,1.245a3.927,3.927,0,0,1-1.266.715A5.278,5.278,0,0,1,60.758.164Zm-.219-7.25a1.424,1.424,0,0,0-1.156.559,2.75,2.75,0,0,0-.562,1.418l.016.039h3.352v-.2a2.023,2.023,0,0,0-.41-1.312A1.5,1.5,0,0,0,60.539-7.086ZM8.117,14.883H3.141v3.594H8.914V20H1.242V8.625H8.859v1.523H3.141v3.211H8.117ZM9.8,15.891a5.574,5.574,0,0,1,.867-3.262A2.8,2.8,0,0,1,13.1,11.391a2.68,2.68,0,0,1,1.3.3,2.789,2.789,0,0,1,.961.875l.219-1.023h1.539v11.7h-1.9V19.2a2.552,2.552,0,0,1-.922.719,2.889,2.889,0,0,1-1.211.242,2.876,2.876,0,0,1-2.422-1.133A4.766,4.766,0,0,1,9.8,16.055Zm1.9.16a3.478,3.478,0,0,0,.449,1.88,1.563,1.563,0,0,0,1.426.71,1.946,1.946,0,0,0,.98-.23,1.864,1.864,0,0,0,.668-.667V13.811a1.96,1.96,0,0,0-.672-.659,1.867,1.867,0,0,0-.961-.238,1.526,1.526,0,0,0-1.43.831,4.389,4.389,0,0,0-.461,2.142Zm12.781,2.715A2.892,2.892,0,0,1,23.469,19.8a2.985,2.985,0,0,1-3.531-.5,3.994,3.994,0,0,1-.766-2.7V11.547h1.891v5.07a2.534,2.534,0,0,0,.359,1.555,1.312,1.312,0,0,0,1.086.445,2.442,2.442,0,0,0,1.152-.246,1.787,1.787,0,0,0,.73-.715V11.547h1.9V20H24.633ZM30.3,20H28.4V11.547h1.9Zm0-10.523H28.4V7.813h1.9ZM34.445,20h-1.9V7.813h1.9Zm4.148,0H36.7V11.547h1.9Zm0-10.523H36.7V7.813h1.9Zm9.547,6.578a4.778,4.778,0,0,1-.863,2.98,2.886,2.886,0,0,1-2.434,1.129,2.8,2.8,0,0,1-1.371-.32,2.675,2.675,0,0,1-.973-.937L42.313,20H40.719V7.813h1.9v4.7a2.726,2.726,0,0,1,.938-.828,2.686,2.686,0,0,1,1.273-.289,2.813,2.813,0,0,1,2.449,1.234,5.59,5.59,0,0,1,.863,3.266Zm-1.9-.164a4.365,4.365,0,0,0-.453-2.133,1.528,1.528,0,0,0-1.437-.812,1.88,1.88,0,0,0-1.059.281,1.966,1.966,0,0,0-.676.781v3.547a1.862,1.862,0,0,0,.672.785,1.951,1.951,0,0,0,1.078.277,1.574,1.574,0,0,0,1.43-.691,3.424,3.424,0,0,0,.445-1.871Zm7.75-2.633-.812-.031a1.7,1.7,0,0,0-.926.234,1.544,1.544,0,0,0-.574.664V20h-1.9V11.547h1.734l.125,1.227a2.711,2.711,0,0,1,.824-1.016,1.919,1.919,0,0,1,1.16-.367,1.769,1.769,0,0,1,.32.027,2.339,2.339,0,0,1,.273.066ZM57.344,20h-1.9V11.547h1.9Zm0-10.523h-1.9V7.813h1.9ZM59.117,15.7A4.6,4.6,0,0,1,60.148,12.6a3.945,3.945,0,0,1,5.688,0A4.564,4.564,0,0,1,66.875,15.7v.164a4.587,4.587,0,0,1-1.039,3.109,3.971,3.971,0,0,1-5.687-.008,4.6,4.6,0,0,1-1.031-3.1Zm1.9.16a3.766,3.766,0,0,0,.484,2.013,1.828,1.828,0,0,0,2.984,0,3.673,3.673,0,0,0,.5-2.013v-.164a3.625,3.625,0,0,0-.5-1.99,1.807,1.807,0,0,0-2.984,0,3.741,3.741,0,0,0-.484,1.99Z" transform="translate(-9211 -9256)" fill="#93f5e5"/>
    <path id="Trazado_4987" data-name="Trazado 4987" d="M-10776-9956.363l21.466,37.605-28.344-28.222Z" transform="translate(1621.706 718.561)" fill="#022644"/>
    <path id="Trazado_5041" data-name="Trazado 5041" d="M5,0h99a5,5,0,0,1,5,5V58a5,5,0,0,1-5,5H5a5,5,0,0,1-5-5V5A5,5,0,0,1,5,0Z" transform="translate(-9039.5 -9434.738)" fill="#022644"/>
    <path id="Trazado_5042" data-name="Trazado 5042" d="M3.25,0h-1.9V-11.375h1.9ZM7.32-8.453,7.43-7.234A3.023,3.023,0,0,1,8.473-8.246a2.783,2.783,0,0,1,1.418-.363,2.66,2.66,0,0,1,2.059.8,3.592,3.592,0,0,1,.738,2.5V0h-1.9V-5.3a1.9,1.9,0,0,0-.395-1.355,1.611,1.611,0,0,0-1.2-.4,1.988,1.988,0,0,0-.992.246,2.051,2.051,0,0,0-.719.676V0h-1.9V-8.453Zm7,4.344A5.5,5.5,0,0,1,15.2-7.367a2.842,2.842,0,0,1,2.453-1.242,2.663,2.663,0,0,1,1.332.324,2.815,2.815,0,0,1,.973.934l.188-1.1h1.578V0a3.19,3.19,0,0,1-1.008,2.523,4.179,4.179,0,0,1-2.859.891,5.6,5.6,0,0,1-1.332-.176,6.188,6.188,0,0,1-1.293-.465l.406-1.492a4.6,4.6,0,0,0,1.035.379,4.96,4.96,0,0,0,1.168.137,2.169,2.169,0,0,0,1.508-.441A1.762,1.762,0,0,0,19.828,0V-.867a2.656,2.656,0,0,1-.941.77,2.836,2.836,0,0,1-1.246.262A2.919,2.919,0,0,1,15.2-.969a4.707,4.707,0,0,1-.883-2.977Zm1.9.164a3.318,3.318,0,0,0,.465,1.863,1.609,1.609,0,0,0,1.441.7,1.945,1.945,0,0,0,1.027-.254,1.874,1.874,0,0,0,.676-.73v-3.7a2.029,2.029,0,0,0-.684-.723,1.854,1.854,0,0,0-1-.262,1.561,1.561,0,0,0-1.449.82,4.224,4.224,0,0,0-.473,2.125Zm11.719-2.8-.812-.031a1.7,1.7,0,0,0-.926.234,1.544,1.544,0,0,0-.574.664V0h-1.9V-8.453h1.734l.125,1.227a2.711,2.711,0,0,1,.824-1.016,1.919,1.919,0,0,1,1.16-.367,1.769,1.769,0,0,1,.32.027,2.339,2.339,0,0,1,.273.066ZM32.891.164a3.675,3.675,0,0,1-2.863-1.176,4.322,4.322,0,0,1-1.066-3.02v-.312A4.488,4.488,0,0,1,30.02-7.4a3.348,3.348,0,0,1,2.652-1.207,3.3,3.3,0,0,1,2.621,1.035A4.056,4.056,0,0,1,36.2-4.8V-3.68H30.93l-.016.039A2.647,2.647,0,0,0,31.5-2a1.868,1.868,0,0,0,1.5.638,4.065,4.065,0,0,0,1.313-.187,4.3,4.3,0,0,0,1.055-.539l.609,1.245a3.927,3.927,0,0,1-1.266.715A5.278,5.278,0,0,1,32.891.164Zm-.219-7.25a1.424,1.424,0,0,0-1.156.559,2.75,2.75,0,0,0-.562,1.418l.016.039H34.32v-.2a2.023,2.023,0,0,0-.41-1.312A1.5,1.5,0,0,0,32.672-7.086ZM42.484-2.3a.883.883,0,0,0-.375-.727,3.74,3.74,0,0,0-1.4-.508,5.8,5.8,0,0,1-2.293-.91,1.908,1.908,0,0,1-.777-1.605,2.284,2.284,0,0,1,.9-1.812,3.573,3.573,0,0,1,2.367-.75,3.707,3.707,0,0,1,2.457.762,2.256,2.256,0,0,1,.871,1.887l-.016.047H42.4a1.191,1.191,0,0,0-.4-.9,1.532,1.532,0,0,0-1.094-.375,1.565,1.565,0,0,0-1.047.309.958.958,0,0,0-.359.754.846.846,0,0,0,.34.707,3.649,3.649,0,0,0,1.379.465,5.809,5.809,0,0,1,2.363.926,1.952,1.952,0,0,1,.77,1.629A2.216,2.216,0,0,1,43.41-.547a4.011,4.011,0,0,1-2.48.711,3.786,3.786,0,0,1-2.6-.844,2.383,2.383,0,0,1-.906-1.937l.016-.047H39.2a1.266,1.266,0,0,0,.531,1.07,2.135,2.135,0,0,0,1.219.336,1.946,1.946,0,0,0,1.133-.281A.882.882,0,0,0,42.484-2.3ZM45.7-4.3A4.6,4.6,0,0,1,46.734-7.4,3.556,3.556,0,0,1,49.57-8.609,3.545,3.545,0,0,1,52.422-7.4,4.564,4.564,0,0,1,53.461-4.3v.164a4.587,4.587,0,0,1-1.039,3.109,3.548,3.548,0,0,1-2.836,1.2,3.57,3.57,0,0,1-2.852-1.2,4.6,4.6,0,0,1-1.031-3.1Zm1.9.16a3.766,3.766,0,0,0,.484,2.013,1.634,1.634,0,0,0,1.5.772,1.642,1.642,0,0,0,1.484-.772,3.673,3.673,0,0,0,.5-2.013v-.164a3.625,3.625,0,0,0-.5-1.99,1.648,1.648,0,0,0-1.5-.788,1.633,1.633,0,0,0-1.484.788,3.741,3.741,0,0,0-.484,1.99ZM59.867-2.3a.883.883,0,0,0-.375-.727,3.74,3.74,0,0,0-1.4-.508,5.8,5.8,0,0,1-2.293-.91,1.908,1.908,0,0,1-.777-1.605,2.284,2.284,0,0,1,.9-1.812,3.573,3.573,0,0,1,2.367-.75,3.707,3.707,0,0,1,2.457.762,2.256,2.256,0,0,1,.871,1.887l-.016.047h-1.82a1.191,1.191,0,0,0-.4-.9,1.532,1.532,0,0,0-1.094-.375,1.565,1.565,0,0,0-1.047.309.958.958,0,0,0-.359.754.846.846,0,0,0,.34.707,3.649,3.649,0,0,0,1.379.465,5.809,5.809,0,0,1,2.363.926,1.952,1.952,0,0,1,.77,1.629,2.216,2.216,0,0,1-.941,1.852,4.011,4.011,0,0,1-2.48.711,3.786,3.786,0,0,1-2.6-.844A2.383,2.383,0,0,1,54.8-2.617l.016-.047h1.766a1.266,1.266,0,0,0,.531,1.07,2.135,2.135,0,0,0,1.219.336,1.946,1.946,0,0,0,1.133-.281A.882.882,0,0,0,59.867-2.3ZM74.828-3.945a4.766,4.766,0,0,1-.867,2.977A2.868,2.868,0,0,1,71.547.164a2.99,2.99,0,0,1-1.273-.258,2.62,2.62,0,0,1-.953-.758v4.1h-1.9v-11.7h1.6l.188,1.063a2.819,2.819,0,0,1,.98-.906,2.743,2.743,0,0,1,1.332-.312,2.807,2.807,0,0,1,2.434,1.238,5.556,5.556,0,0,1,.871,3.262Zm-1.891-.168a4.108,4.108,0,0,0-.488-2.118,1.588,1.588,0,0,0-1.457-.823,1.9,1.9,0,0,0-1.008.254,1.868,1.868,0,0,0-.664.706V-2.28a1.765,1.765,0,0,0,.664.683,2.026,2.026,0,0,0,1.023.238,1.629,1.629,0,0,0,1.449-.714,3.3,3.3,0,0,0,.48-1.876Zm3.2-.191A4.6,4.6,0,0,1,77.164-7.4,3.556,3.556,0,0,1,80-8.609,3.545,3.545,0,0,1,82.852-7.4,4.564,4.564,0,0,1,83.891-4.3v.164a4.587,4.587,0,0,1-1.039,3.109,3.548,3.548,0,0,1-2.836,1.2,3.57,3.57,0,0,1-2.852-1.2,4.6,4.6,0,0,1-1.031-3.1Zm1.9.16a3.766,3.766,0,0,0,.484,2.013,1.634,1.634,0,0,0,1.5.772A1.642,1.642,0,0,0,81.5-2.132,3.673,3.673,0,0,0,82-4.145v-.164a3.625,3.625,0,0,0-.5-1.99A1.648,1.648,0,0,0,80-7.086a1.633,1.633,0,0,0-1.484.788,3.741,3.741,0,0,0-.484,1.99Zm11.727-2.6-.812-.031a1.7,1.7,0,0,0-.926.234,1.543,1.543,0,0,0-.574.664V0h-1.9V-8.453h1.734l.125,1.227a2.711,2.711,0,0,1,.824-1.016,1.919,1.919,0,0,1,1.16-.367,1.769,1.769,0,0,1,.32.027,2.339,2.339,0,0,1,.273.066ZM4.852,17.023l.2.789H5.1l.2-.773L8.016,8.625h2.023L5.977,20h-1.8L.117,8.625H2.141Zm9.563,3.141a3.675,3.675,0,0,1-2.863-1.176,4.322,4.322,0,0,1-1.066-3.02v-.312A4.488,4.488,0,0,1,11.543,12.6,3.348,3.348,0,0,1,14.2,11.391a3.3,3.3,0,0,1,2.621,1.035,4.056,4.056,0,0,1,.91,2.777V16.32H12.453l-.016.039A2.647,2.647,0,0,0,13.027,18a1.868,1.868,0,0,0,1.5.638,4.065,4.065,0,0,0,1.313-.187,4.3,4.3,0,0,0,1.055-.539l.609,1.245a3.927,3.927,0,0,1-1.266.715A5.278,5.278,0,0,1,14.414,20.164Zm-.219-7.25a1.424,1.424,0,0,0-1.156.559,2.75,2.75,0,0,0-.562,1.418l.016.039h3.352v-.2a2.023,2.023,0,0,0-.41-1.312A1.5,1.5,0,0,0,14.2,12.914Zm6.781-1.367.109,1.219a3.023,3.023,0,0,1,1.043-1.012,2.783,2.783,0,0,1,1.418-.363,2.66,2.66,0,0,1,2.059.8,3.592,3.592,0,0,1,.738,2.5V20h-1.9V14.7a1.9,1.9,0,0,0-.395-1.355,1.611,1.611,0,0,0-1.2-.4,1.988,1.988,0,0,0-.992.246,2.051,2.051,0,0,0-.719.676V20h-1.9V11.547Zm9.7-2.055v2.055H32.2v1.406H30.68v4.672a1.019,1.019,0,0,0,.227.746.821.821,0,0,0,.6.223,1.679,1.679,0,0,0,.3-.027,1.852,1.852,0,0,0,.281-.074l.2,1.391a2.177,2.177,0,0,1-.578.207,3.214,3.214,0,0,1-.7.074,2.177,2.177,0,0,1-1.641-.613,2.686,2.686,0,0,1-.594-1.926V12.953H27.5V11.547h1.289V9.492ZM38.969,20q-.1-.32-.168-.625a4.468,4.468,0,0,1-.09-.609,3.354,3.354,0,0,1-1.027,1,2.614,2.614,0,0,1-1.426.4,2.81,2.81,0,0,1-2.027-.68,2.468,2.468,0,0,1-.707-1.867,2.206,2.206,0,0,1,.969-1.91,4.678,4.678,0,0,1,2.727-.684H38.7v-.742a1.372,1.372,0,0,0-.391-1.039,1.55,1.55,0,0,0-1.117-.375,1.582,1.582,0,0,0-1.031.313.992.992,0,0,0-.383.8H33.945l-.008-.047a2.094,2.094,0,0,1,.895-1.773,3.79,3.79,0,0,1,2.473-.773,3.617,3.617,0,0,1,2.383.75,2.64,2.64,0,0,1,.906,2.156v3.758a6.93,6.93,0,0,0,.07,1,5.331,5.331,0,0,0,.227.941Zm-2.328-1.359a2.387,2.387,0,0,0,1.293-.359,1.81,1.81,0,0,0,.762-.82v-1.25H37.188a1.9,1.9,0,0,0-1.3.41,1.246,1.246,0,0,0-.469.965.984.984,0,0,0,.316.77A1.3,1.3,0,0,0,36.641,18.641Zm10.7-.937a.883.883,0,0,0-.375-.727,3.74,3.74,0,0,0-1.4-.508,5.8,5.8,0,0,1-2.293-.91,1.908,1.908,0,0,1-.777-1.605,2.284,2.284,0,0,1,.9-1.812,3.573,3.573,0,0,1,2.367-.75,3.707,3.707,0,0,1,2.457.762,2.256,2.256,0,0,1,.871,1.887l-.016.047H47.25a1.191,1.191,0,0,0-.4-.9,1.532,1.532,0,0,0-1.094-.375,1.565,1.565,0,0,0-1.047.309.958.958,0,0,0-.359.754.846.846,0,0,0,.34.707,3.649,3.649,0,0,0,1.379.465,5.809,5.809,0,0,1,2.363.926A1.952,1.952,0,0,1,49.2,17.6a2.216,2.216,0,0,1-.941,1.852,4.011,4.011,0,0,1-2.48.711,3.786,3.786,0,0,1-2.6-.844,2.383,2.383,0,0,1-.906-1.937l.016-.047h1.766a1.266,1.266,0,0,0,.531,1.07,2.135,2.135,0,0,0,1.219.336,1.946,1.946,0,0,0,1.133-.281A.882.882,0,0,0,47.336,17.7Zm7.555-2.328a10.481,10.481,0,0,1,1.223-5.238,6.461,6.461,0,0,1,2.645-2.824l.047.008.352,1.047a6.144,6.144,0,0,0-1.793,2.555,11.419,11.419,0,0,0-.746,4.438v.156a11.473,11.473,0,0,0,.742,4.438,6.552,6.552,0,0,0,1.8,2.609l-.352,1h-.047a6.479,6.479,0,0,1-2.648-2.828A10.486,10.486,0,0,1,54.891,15.5Zm8.367,1.766.141.688h.047l.148-.687,1.68-5.594h1.961l-3,8.453H62.586L59.57,11.547h1.961ZM71.891,15.5a10.348,10.348,0,0,1-1.246,5.219,6.552,6.552,0,0,1-2.676,2.844h-.047l-.359-1a6.2,6.2,0,0,0,1.789-2.578,11.569,11.569,0,0,0,.75-4.469v-.156a11.243,11.243,0,0,0-.77-4.441,6.71,6.71,0,0,0-1.77-2.6l.359-1.008h.047a6.531,6.531,0,0,1,2.672,2.844,10.349,10.349,0,0,1,1.25,5.219Z" transform="translate(-9030.5 -9407.738)" fill="#93f5e5"/>
    <path id="Trazado_5043" data-name="Trazado 5043" d="M5,0h99a5,5,0,0,1,5,5V49a5,5,0,0,1-5,5H5a5,5,0,0,1-5-5V5A5,5,0,0,1,5,0Z" transform="translate(-8940 -9238)" fill="#022644"/>
    <path id="Trazado_5044" data-name="Trazado 5044" d="M9.539-3.773l.016.047A3.582,3.582,0,0,1,8.434-.918,4.376,4.376,0,0,1,5.313.164a4.219,4.219,0,0,1-3.238-1.34A4.831,4.831,0,0,1,.828-4.6V-6.766a4.885,4.885,0,0,1,1.23-3.426,4.131,4.131,0,0,1,3.2-1.348A4.534,4.534,0,0,1,8.434-10.48,3.575,3.575,0,0,1,9.563-7.633l-.016.047H7.711A2.463,2.463,0,0,0,7.09-9.375a2.439,2.439,0,0,0-1.832-.641,2.182,2.182,0,0,0-1.848.921,3.771,3.771,0,0,0-.684,2.31v2.178a3.737,3.737,0,0,0,.7,2.326,2.246,2.246,0,0,0,1.887.921A2.376,2.376,0,0,0,7.1-1.99a2.462,2.462,0,0,0,.609-1.783ZM10.82-4.3A4.6,4.6,0,0,1,11.852-7.4a3.556,3.556,0,0,1,2.836-1.211A3.545,3.545,0,0,1,17.539-7.4,4.564,4.564,0,0,1,18.578-4.3v.164a4.587,4.587,0,0,1-1.039,3.109A3.548,3.548,0,0,1,14.7.164a3.57,3.57,0,0,1-2.852-1.2,4.6,4.6,0,0,1-1.031-3.1Zm1.9.16A3.766,3.766,0,0,0,13.2-2.132a1.634,1.634,0,0,0,1.5.772,1.642,1.642,0,0,0,1.484-.772,3.673,3.673,0,0,0,.5-2.013v-.164a3.625,3.625,0,0,0-.5-1.99,1.648,1.648,0,0,0-1.5-.788A1.633,1.633,0,0,0,13.2-6.3a3.741,3.741,0,0,0-.484,1.99ZM24.984-2.3a.883.883,0,0,0-.375-.727,3.74,3.74,0,0,0-1.4-.508,5.8,5.8,0,0,1-2.293-.91,1.908,1.908,0,0,1-.777-1.605,2.284,2.284,0,0,1,.9-1.812,3.573,3.573,0,0,1,2.367-.75,3.707,3.707,0,0,1,2.457.762,2.256,2.256,0,0,1,.871,1.887l-.016.047H24.9a1.191,1.191,0,0,0-.4-.9,1.532,1.532,0,0,0-1.094-.375,1.565,1.565,0,0,0-1.047.309A.958.958,0,0,0,22-6.125a.846.846,0,0,0,.34.707,3.649,3.649,0,0,0,1.379.465,5.809,5.809,0,0,1,2.363.926,1.952,1.952,0,0,1,.77,1.629A2.216,2.216,0,0,1,25.91-.547a4.011,4.011,0,0,1-2.48.711,3.786,3.786,0,0,1-2.6-.844,2.383,2.383,0,0,1-.906-1.937l.016-.047H21.7a1.266,1.266,0,0,0,.531,1.07,2.135,2.135,0,0,0,1.219.336,1.946,1.946,0,0,0,1.133-.281A.882.882,0,0,0,24.984-2.3Zm5.93-8.211v2.055H32.43v1.406H30.914v4.672a1.019,1.019,0,0,0,.227.746.821.821,0,0,0,.6.223,1.679,1.679,0,0,0,.3-.027,1.852,1.852,0,0,0,.281-.074l.2,1.391a2.177,2.177,0,0,1-.578.207,3.214,3.214,0,0,1-.7.074,2.177,2.177,0,0,1-1.641-.613,2.686,2.686,0,0,1-.594-1.926V-7.047H27.734V-8.453h1.289v-2.055Zm2.852,6.2A4.6,4.6,0,0,1,34.8-7.4a3.556,3.556,0,0,1,2.836-1.211A3.545,3.545,0,0,1,40.484-7.4,4.564,4.564,0,0,1,41.523-4.3v.164a4.587,4.587,0,0,1-1.039,3.109,3.548,3.548,0,0,1-2.836,1.2,3.57,3.57,0,0,1-2.852-1.2,4.6,4.6,0,0,1-1.031-3.1Zm1.9.16a3.766,3.766,0,0,0,.484,2.013,1.634,1.634,0,0,0,1.5.772,1.642,1.642,0,0,0,1.484-.772,3.673,3.673,0,0,0,.5-2.013v-.164a3.625,3.625,0,0,0-.5-1.99,1.648,1.648,0,0,0-1.5-.788,1.633,1.633,0,0,0-1.484.788,3.741,3.741,0,0,0-.484,1.99ZM47.93-2.3a.883.883,0,0,0-.375-.727,3.74,3.74,0,0,0-1.4-.508,5.8,5.8,0,0,1-2.293-.91,1.908,1.908,0,0,1-.777-1.605,2.284,2.284,0,0,1,.9-1.812,3.573,3.573,0,0,1,2.367-.75,3.707,3.707,0,0,1,2.457.762,2.256,2.256,0,0,1,.871,1.887l-.016.047h-1.82a1.191,1.191,0,0,0-.4-.9,1.532,1.532,0,0,0-1.094-.375,1.565,1.565,0,0,0-1.047.309.958.958,0,0,0-.359.754.846.846,0,0,0,.34.707,3.649,3.649,0,0,0,1.379.465,5.809,5.809,0,0,1,2.363.926A1.952,1.952,0,0,1,49.8-2.4a2.216,2.216,0,0,1-.941,1.852,4.011,4.011,0,0,1-2.48.711,3.786,3.786,0,0,1-2.6-.844,2.383,2.383,0,0,1-.906-1.937l.016-.047h1.766a1.266,1.266,0,0,0,.531,1.07,2.135,2.135,0,0,0,1.219.336,1.946,1.946,0,0,0,1.133-.281A.882.882,0,0,0,47.93-2.3ZM9.016,10.148H5.578V20H3.68V10.148H.242V8.625H9.016ZM9.242,15.7A4.6,4.6,0,0,1,10.273,12.6a3.556,3.556,0,0,1,2.836-1.211A3.545,3.545,0,0,1,15.961,12.6,4.564,4.564,0,0,1,17,15.7v.164a4.587,4.587,0,0,1-1.039,3.109,3.548,3.548,0,0,1-2.836,1.2,3.57,3.57,0,0,1-2.852-1.2,4.6,4.6,0,0,1-1.031-3.1Zm1.9.16a3.766,3.766,0,0,0,.484,2.013,1.634,1.634,0,0,0,1.5.772,1.642,1.642,0,0,0,1.484-.772,3.673,3.673,0,0,0,.5-2.013v-.164a3.625,3.625,0,0,0-.5-1.99,1.648,1.648,0,0,0-1.5-.788,1.633,1.633,0,0,0-1.484.788,3.741,3.741,0,0,0-.484,1.99Zm9.875-6.363v2.055h1.516v1.406H21.016v4.672a1.019,1.019,0,0,0,.227.746.821.821,0,0,0,.6.223,1.679,1.679,0,0,0,.3-.027,1.852,1.852,0,0,0,.281-.074l.2,1.391a2.177,2.177,0,0,1-.578.207,3.214,3.214,0,0,1-.7.074,2.177,2.177,0,0,1-1.641-.613,2.686,2.686,0,0,1-.594-1.926V12.953H17.836V11.547h1.289V9.492ZM29.3,20q-.1-.32-.168-.625a4.468,4.468,0,0,1-.09-.609,3.354,3.354,0,0,1-1.027,1,2.614,2.614,0,0,1-1.426.4,2.81,2.81,0,0,1-2.027-.68,2.468,2.468,0,0,1-.707-1.867,2.206,2.206,0,0,1,.969-1.91,4.678,4.678,0,0,1,2.727-.684h1.477v-.742a1.372,1.372,0,0,0-.391-1.039,1.55,1.55,0,0,0-1.117-.375,1.582,1.582,0,0,0-1.031.313.992.992,0,0,0-.383.8H24.281l-.008-.047a2.094,2.094,0,0,1,.895-1.773,3.79,3.79,0,0,1,2.473-.773,3.616,3.616,0,0,1,2.383.75A2.64,2.64,0,0,1,30.93,14.3v3.758a6.93,6.93,0,0,0,.07,1,5.331,5.331,0,0,0,.227.941Zm-2.328-1.359a2.387,2.387,0,0,0,1.293-.359,1.81,1.81,0,0,0,.762-.82v-1.25H27.523a1.9,1.9,0,0,0-1.3.41,1.246,1.246,0,0,0-.469.965.984.984,0,0,0,.316.77A1.3,1.3,0,0,0,26.977,18.641ZM34.945,20h-1.9V7.813h1.9Zm5.75.164a3.675,3.675,0,0,1-2.863-1.176,4.322,4.322,0,0,1-1.066-3.02v-.312A4.488,4.488,0,0,1,37.824,12.6a3.348,3.348,0,0,1,2.652-1.207A3.3,3.3,0,0,1,43.1,12.426a4.056,4.056,0,0,1,.91,2.777V16.32H38.734l-.016.039A2.647,2.647,0,0,0,39.309,18a1.868,1.868,0,0,0,1.5.638,4.065,4.065,0,0,0,1.313-.187,4.3,4.3,0,0,0,1.055-.539l.609,1.245a3.927,3.927,0,0,1-1.266.715A5.278,5.278,0,0,1,40.7,20.164Zm-.219-7.25a1.424,1.424,0,0,0-1.156.559,2.75,2.75,0,0,0-.562,1.418l.016.039h3.352v-.2a2.023,2.023,0,0,0-.41-1.312A1.5,1.5,0,0,0,40.477,12.914ZM50.289,17.7a.883.883,0,0,0-.375-.727,3.74,3.74,0,0,0-1.4-.508,5.8,5.8,0,0,1-2.293-.91,1.908,1.908,0,0,1-.777-1.605,2.284,2.284,0,0,1,.9-1.812,3.573,3.573,0,0,1,2.367-.75,3.707,3.707,0,0,1,2.457.762,2.256,2.256,0,0,1,.871,1.887l-.016.047H50.2a1.191,1.191,0,0,0-.4-.9,1.532,1.532,0,0,0-1.094-.375,1.565,1.565,0,0,0-1.047.309.958.958,0,0,0-.359.754.846.846,0,0,0,.34.707,3.649,3.649,0,0,0,1.379.465,5.809,5.809,0,0,1,2.363.926,1.952,1.952,0,0,1,.77,1.629,2.216,2.216,0,0,1-.941,1.852,4.011,4.011,0,0,1-2.48.711,3.786,3.786,0,0,1-2.6-.844,2.383,2.383,0,0,1-.906-1.937l.016-.047h1.766a1.266,1.266,0,0,0,.531,1.07,2.135,2.135,0,0,0,1.219.336,1.946,1.946,0,0,0,1.133-.281A.882.882,0,0,0,50.289,17.7Z" transform="translate(-8917 -9215)" fill="#93f5e5"/>
    <path id="Trazado_4988" data-name="Trazado 4988" d="M-10776-9956.363l21.466,37.605-28.344-28.222Z" transform="translate(1809.878 572.625)" fill="#022644"/>
    <path id="Trazado_4989" data-name="Trazado 4989" d="M-10776-9956.363l21.466,37.605-28.344-28.222Z" transform="translate(-19691.533 -19184.924) rotate(180)" fill="#022644"/>
    <path id="Trazado_5045" data-name="Trazado 5045" d="M.439,15.816A16.135,16.135,0,0,0,9.57,8.949a22.314,22.314,0,0,0,2.93-11.8V-13.9a18.494,18.494,0,0,1,2.295-9.433,13.037,13.037,0,0,1,7.129-5.719,12.821,12.821,0,0,1-7.129-5.658A18.527,18.527,0,0,1,12.5-44.175V-55.3A23.319,23.319,0,0,0,9.644-67.223a15.474,15.474,0,0,0-9.058-6.9l1.27-3.854q8.887,2.686,12.7,8.521a25.39,25.39,0,0,1,3.809,14.185v11.133q0,5.957,2.734,9.253t8.545,3.3v4.98q-5.811,0-8.545,3.352t-2.734,9.321V-2.879a25.273,25.273,0,0,1-3.784,14.117q-3.784,5.8-12.72,8.489Z" transform="translate(-9111 -8949)" fill="#022644"/>
    <path id="Trazado_5046" data-name="Trazado 5046" d="M.3,3.483A3.662,3.662,0,0,0,2.506,1.706,6.69,6.69,0,0,0,3.172-1.43v-2.9a5.311,5.311,0,0,1,.637-2.648A4.155,4.155,0,0,1,5.777-8.723a4.01,4.01,0,0,1-1.968-1.713,5.371,5.371,0,0,1-.637-2.676v-2.917a6.777,6.777,0,0,0-.666-3.151A3.6,3.6,0,0,0,.3-20.957l.581-1.657a6.786,6.786,0,0,1,3.915,2.471,7.063,7.063,0,0,1,1.168,4.114v2.917a3.8,3.8,0,0,0,.715,2.471,2.737,2.737,0,0,0,2.244.871v2.082A2.715,2.715,0,0,0,6.677-6.8a3.832,3.832,0,0,0-.715,2.471v2.9A7.071,7.071,0,0,1,4.793,2.676,6.769,6.769,0,0,1,.878,5.154Z" transform="translate(-9111 -9173)" fill="#022644"/>
    <path id="Trazado_5047" data-name="Trazado 5047" d="M1.25-5.781a13.1,13.1,0,0,1,1.528-6.548,8.076,8.076,0,0,1,3.306-3.53l.059.01.439,1.309a7.681,7.681,0,0,0-2.241,3.193A14.274,14.274,0,0,0,3.408-5.8v.2A14.341,14.341,0,0,0,4.336-.059,8.19,8.19,0,0,0,6.582,3.2l-.439,1.25H6.084A8.1,8.1,0,0,1,2.773.918,13.107,13.107,0,0,1,1.25-5.625ZM13.135-8.965l3-5.254h2.813L14.57-7.168,19.111,0H16.26L13.174-5.342,10.088,0H7.275l4.473-7.168L7.373-14.219h2.793Zm11.924,3.34A12.935,12.935,0,0,1,23.5.9a8.19,8.19,0,0,1-3.345,3.555H20.1L19.648,3.2A7.752,7.752,0,0,0,21.885-.02a14.461,14.461,0,0,0,.938-5.586v-.2a14.054,14.054,0,0,0-.962-5.552A8.387,8.387,0,0,0,19.648-14.6l.449-1.26h.059A8.164,8.164,0,0,1,23.5-12.3a12.936,12.936,0,0,1,1.563,6.523Z" transform="translate(-8993 -8844)" fill="#111e61"/>
    <path id="Trazado_5048" data-name="Trazado 5048" d="M8.273-4.383A5.054,5.054,0,0,1,7.273-1,3.4,3.4,0,0,1,4.555.164,3.43,3.43,0,0,1,1.82-1,5.027,5.027,0,0,1,.813-4.383v-2.6a5.072,5.072,0,0,1,1-3.383,3.4,3.4,0,0,1,2.727-1.172,3.411,3.411,0,0,1,2.727,1.172A5.045,5.045,0,0,1,8.273-6.984Zm-1.9-2.893a3.648,3.648,0,0,0-.469-2.068,1.563,1.563,0,0,0-1.367-.671,1.553,1.553,0,0,0-1.363.671,3.673,3.673,0,0,0-.465,2.068v3.161a3.661,3.661,0,0,0,.473,2.08,1.569,1.569,0,0,0,1.371.675,1.543,1.543,0,0,0,1.359-.671,3.733,3.733,0,0,0,.461-2.084ZM11.93-.242,10.719,2.2h-1.2l.547-2.508V-1.859H11.93Zm9.047-4.141a5.054,5.054,0,0,1-1,3.383A3.4,3.4,0,0,1,17.258.164,3.43,3.43,0,0,1,14.523-1a5.027,5.027,0,0,1-1.008-3.383v-2.6a5.072,5.072,0,0,1,1-3.383,3.4,3.4,0,0,1,2.727-1.172,3.411,3.411,0,0,1,2.727,1.172,5.045,5.045,0,0,1,1.008,3.383Zm-1.9-2.893a3.648,3.648,0,0,0-.469-2.068,1.563,1.563,0,0,0-1.367-.671,1.553,1.553,0,0,0-1.363.671,3.673,3.673,0,0,0-.465,2.068v3.161a3.661,3.661,0,0,0,.473,2.08,1.569,1.569,0,0,0,1.371.675,1.543,1.543,0,0,0,1.359-.671,3.733,3.733,0,0,0,.461-2.084Z" transform="translate(-9528 -8892)" fill="#111e61"/>
  </g>
</svg>
