<?xml version="1.0" encoding="utf-8"?>
<!-- Generator: Adobe Illustrator 25.2.1, SVG Export Plug-In . SVG Version: 6.00 Build 0)  -->
<svg version="1.1" id="Layer_1" xmlns="http://www.w3.org/2000/svg" xmlns:xlink="http://www.w3.org/1999/xlink" x="0px" y="0px"
	 viewBox="0 0 369 104" style="enable-background:new 0 0 369 104;" xml:space="preserve">
<style type="text/css">
	.st0{fill:#F3F9FF;}
	.st1{fill:#111E61;}
	.st2{fill:none;stroke:#022644;}
</style>
<g id="Grupo_23394" transform="translate(9935 7222)">
	<path id="Trazado_5056" class="st0" d="M-9918-7222h335c9.4,0,17,7.6,17,17v70c0,9.4-7.6,17-17,17h-335c-9.4,0-17-7.6-17-17v-70
		C-9935-7214.4-9927.4-7222-9918-7222z"/>
	<path id="Trazado_5057" class="st1" d="M-9794.2-7197.9v1.9h1.4v1.3h-1.4v4.4c0,0.3,0.1,0.5,0.2,0.7c0.2,0.1,0.4,0.2,0.6,0.2
		c0.1,0,0.2,0,0.3,0c0.1,0,0.2,0,0.3-0.1l0.2,1.3c-0.2,0.1-0.4,0.2-0.5,0.2c-0.2,0-0.4,0.1-0.7,0.1c-0.6,0-1.1-0.2-1.5-0.6
		c-0.4-0.5-0.6-1.2-0.6-1.8v-4.4h-1.2v-1.3h1.2v-1.9H-9794.2z M-9787.8-7191.8h-3.8v-1.4h3.8V-7191.8z M-9784.7-7195.9l0.1,1.1
		c0.2-0.4,0.6-0.7,1-0.9c0.4-0.2,0.9-0.4,1.3-0.3c0.7,0,1.4,0.2,1.9,0.8c0.5,0.7,0.8,1.5,0.7,2.3v5h-1.8v-5c0-0.5-0.1-0.9-0.4-1.3
		c-0.3-0.3-0.7-0.4-1.1-0.4c-0.3,0-0.6,0.1-0.9,0.2c-0.3,0.2-0.5,0.4-0.7,0.6v5.7h-1.8v-7.9L-9784.7-7195.9z"/>
	<path id="Trazado_5058" class="st1" d="M-9794.2-7149.9v1.9h1.4v1.3h-1.4v4.4c0,0.3,0.1,0.5,0.2,0.7c0.2,0.1,0.4,0.2,0.6,0.2
		c0.1,0,0.2,0,0.3,0c0.1,0,0.2,0,0.3-0.1l0.2,1.3c-0.2,0.1-0.4,0.2-0.5,0.2c-0.2,0-0.4,0.1-0.7,0.1c-0.6,0-1.1-0.2-1.5-0.6
		c-0.4-0.5-0.6-1.2-0.6-1.8v-4.4h-1.2v-1.3h1.2v-1.9H-9794.2z M-9787.8-7143.8h-3.8v-1.4h3.8V-7143.8z M-9779.5-7144.1
		c0.1,1.1-0.3,2.3-0.9,3.2c-0.6,0.7-1.6,1.1-2.5,1.1c-1,0-1.9-0.4-2.6-1.1c-0.7-0.9-1-2-0.9-3.2v-2.4c-0.1-1.1,0.3-2.3,0.9-3.2
		c0.6-0.7,1.6-1.1,2.6-1.1c1,0,1.9,0.4,2.6,1.1c0.7,0.9,1,2,0.9,3.2L-9779.5-7144.1z M-9781.3-7146.8c0-0.7-0.1-1.4-0.4-1.9
		c-0.3-0.4-0.8-0.7-1.3-0.6c-0.5,0-1,0.2-1.3,0.6c-0.3,0.6-0.5,1.3-0.4,1.9v3c0,0.7,0.1,1.4,0.4,1.9c0.3,0.4,0.8,0.7,1.3,0.6
		c0.5,0,1-0.2,1.3-0.6c0.3-0.6,0.5-1.3,0.4-2V-7146.8z"/>
	<path id="Trazado_5059" class="st1" d="M-9661-7175.5h-2.4v-12h-2.9v-1.7l5.3-0.5V-7175.5z"/>
	<path id="Trazado_5054" class="st2" d="M-9689.7-7169.5h54.4"/>
	<path id="Trazado_5060" class="st1" d="M-9862.9-7165.7l0.3,1h0.1l0.2-1l3.4-10.5h2.5l-5.1,14.2h-2.3l-5.1-14.2h2.5L-9862.9-7165.7
		z M-9848.1-7165.3h-5.6l-1.1,3.3h-2.4l5.2-14.2h2.2l5.2,14.2h-2.4L-9848.1-7165.3z M-9853-7167.3h4.2l-2.1-6.1h-0.1L-9853-7167.3z
		 M-9831.8-7162h-2.4l-6.3-10.4l-0.1,0v10.4h-2.4v-14.2h2.4l6.3,10.4l0.1,0v-10.4h2.4V-7162z M-9815.4-7169.7h-8.4v-2h8.4V-7169.7z
		 M-9815.4-7165.6h-8.4v-2h8.4V-7165.6z M-9767.8-7167.8c-0.1-2.3,0.5-4.5,1.5-6.5c0.7-1.5,1.9-2.7,3.3-3.5l0.1,0l0.4,1.3
		c-1,0.9-1.8,2-2.2,3.2c-0.7,1.8-1,3.7-0.9,5.5v0.2c-0.1,1.9,0.3,3.8,0.9,5.5c0.5,1.3,1.2,2.4,2.2,3.3l-0.4,1.2h-0.1
		c-1.4-0.8-2.6-2-3.3-3.5c-1.1-2-1.6-4.3-1.5-6.5V-7167.8z M-9753.5-7162h-2.4v-15.2h2.4V-7162z M-9747.9-7175.1v2.6h1.9v1.8h-1.9
		v5.8c0,0.3,0.1,0.7,0.3,0.9c0.2,0.2,0.5,0.3,0.8,0.3c0.1,0,0.3,0,0.4,0c0.1,0,0.2-0.1,0.4-0.1l0.3,1.7c-0.2,0.1-0.5,0.2-0.7,0.3
		c-0.3,0.1-0.6,0.1-0.9,0.1c-0.8,0-1.5-0.2-2.1-0.8c-0.6-0.7-0.8-1.5-0.7-2.4v-5.8h-1.6v-1.8h1.6v-2.6H-9747.9z M-9734.3-7167.1
		h-5.1v-1.9h5.1V-7167.1z M-9718.5-7168.4h-6.2v4.5h7.2v1.9h-9.6v-14.2h9.5v1.9h-7.1v4h6.2V-7168.4z M-9712.8-7175.1v2.6h1.9v1.8
		h-1.9v5.8c0,0.3,0.1,0.7,0.3,0.9c0.2,0.2,0.5,0.3,0.8,0.3c0.1,0,0.3,0,0.4,0c0.1,0,0.2-0.1,0.4-0.1l0.3,1.7
		c-0.2,0.1-0.5,0.2-0.7,0.3c-0.3,0.1-0.6,0.1-0.9,0.1c-0.8,0-1.5-0.2-2.1-0.8c-0.6-0.7-0.8-1.5-0.7-2.4v-5.8h-1.6v-1.8h1.6v-2.6
		H-9712.8z M-9699.5-7167.6c0.1,2.3-0.5,4.5-1.6,6.5c-0.7,1.5-1.9,2.7-3.3,3.6h-0.1l-0.4-1.2c1-0.9,1.8-2,2.2-3.2
		c0.7-1.8,1-3.7,0.9-5.6v-0.2c0.1-1.9-0.3-3.8-1-5.6c-0.5-1.2-1.2-2.4-2.2-3.2l0.4-1.3h0.1c1.5,0.8,2.6,2.1,3.3,3.6
		c1.1,2,1.6,4.3,1.6,6.5V-7167.6z"/>
	<path id="Trazado_5061" class="st1" d="M-9688.8-7152.8c-0.1-2.3,0.5-4.5,1.5-6.5c0.7-1.5,1.9-2.7,3.3-3.5l0.1,0l0.4,1.3
		c-1,0.9-1.8,2-2.2,3.2c-0.7,1.8-1,3.7-0.9,5.5v0.2c-0.1,1.9,0.3,3.8,0.9,5.5c0.5,1.3,1.2,2.4,2.2,3.3l-0.4,1.2h-0.1
		c-1.4-0.8-2.6-2-3.3-3.5c-1.1-2-1.6-4.3-1.5-6.5V-7152.8z M-9671.2-7147h-2.4v-12h-2.9v-1.7l5.3-0.5L-9671.2-7147z M-9660.2-7154.8
		h3.7v2.2h-3.7v4.2h-2.3v-4.2h-3.7v-2.2h3.7v-4h2.3L-9660.2-7154.8z M-9651.9-7147h-2.4v-10.6h2.4V-7147z M-9651.9-7160.2h-2.4v-2.1
		h2.4V-7160.2z M-9640-7152.6c0.1,2.3-0.5,4.5-1.6,6.5c-0.7,1.5-1.9,2.7-3.3,3.6h-0.1l-0.4-1.3c1-0.9,1.8-2,2.2-3.2
		c0.7-1.8,1-3.7,0.9-5.6v-0.2c0.1-1.9-0.3-3.8-1-5.6c-0.5-1.2-1.2-2.4-2.2-3.2l0.4-1.3h0.1c1.4,0.8,2.6,2.1,3.3,3.6
		c1.1,2,1.6,4.2,1.6,6.5V-7152.6z M-9636.7-7160.2l0.1,0.9c0.2-0.3,0.5-0.6,0.8-0.7c0.3-0.2,0.7-0.3,1-0.3c0.6,0,1.1,0.2,1.5,0.6
		c0.4,0.5,0.6,1.2,0.5,1.8v3.9h-1.4v-3.9c0-0.4-0.1-0.7-0.3-1c-0.2-0.2-0.6-0.3-0.9-0.3c-0.3,0-0.5,0.1-0.7,0.2
		c-0.2,0.1-0.4,0.3-0.5,0.5v4.5h-1.4v-6.2H-9636.7z"/>
</g>
<g>
	<path class="st1" d="M149.5,61.6h12.6V64h-16.3v-1.7l7.7-9.3l-7.3-9.2v-1.9H161v2.4h-11.2v0.1l6.8,8.5L149.5,61.6L149.5,61.6z"/>
</g>
</svg>
