<svg xmlns="http://www.w3.org/2000/svg" width="274" height="121" viewBox="0 0 274 121">
  <g id="Grupo_23395" data-name="Grupo 23395" transform="translate(9942 7070)">
    <path id="Trazado_5049" data-name="Trazado 5049" d="M21,0H253a21,21,0,0,1,21,21v79a21,21,0,0,1-21,21H21A21,21,0,0,1,0,100V21A21,21,0,0,1,21,0Z" transform="translate(-9942 -7070)" fill="#f3f9ff"/>
    <g id="Grupo_23391" data-name="Grupo 23391" transform="translate(21 1320)">
      <path id="Trazado_5050" data-name="Trazado 5050" d="M4.724,0H1.758V-13.208H4.724Zm0-16.443H1.758v-2.6H4.724Zm14.05,6.8H8.252v-2.466H18.774Zm0,5.176H8.252V-6.921H18.774ZM45.346-7.593H29.038v-2.38H45.346Zm20.325,0H49.363v-2.38H65.671ZM86-7.593H69.687v-2.38H86Zm20.325,0H90.012v-2.38h16.308ZM126.99-8.679l2.441-4.529h3.406l-4.15,6.531L132.959,0H129.59l-2.551-4.639L124.487,0h-3.394l4.272-6.677-4.15-6.531h3.369ZM148.352,0h-2.966V-14.954h-3.613v-2.185l6.58-.635Zm18.372-6.848a7.9,7.9,0,0,1-1.562,5.286A5.309,5.309,0,0,1,160.913.256a5.36,5.36,0,0,1-4.272-1.819,7.854,7.854,0,0,1-1.575-5.286v-4.065a7.926,7.926,0,0,1,1.563-5.286,5.307,5.307,0,0,1,4.26-1.831,5.33,5.33,0,0,1,4.26,1.831,7.884,7.884,0,0,1,1.575,5.286Zm-2.966-4.52a5.7,5.7,0,0,0-.732-3.232,2.441,2.441,0,0,0-2.136-1.049,2.426,2.426,0,0,0-2.13,1.049,5.739,5.739,0,0,0-.726,3.232v4.939a5.721,5.721,0,0,0,.739,3.25,2.452,2.452,0,0,0,2.142,1.055,2.411,2.411,0,0,0,2.124-1.049,5.832,5.832,0,0,0,.72-3.256Zm17.175,4.52a7.9,7.9,0,0,1-1.562,5.286A5.309,5.309,0,0,1,175.122.256a5.36,5.36,0,0,1-4.272-1.819,7.854,7.854,0,0,1-1.575-5.286v-4.065a7.926,7.926,0,0,1,1.563-5.286,5.307,5.307,0,0,1,4.26-1.831,5.33,5.33,0,0,1,4.26,1.831,7.884,7.884,0,0,1,1.575,5.286Zm-2.966-4.52a5.7,5.7,0,0,0-.732-3.232,2.441,2.441,0,0,0-2.136-1.049,2.426,2.426,0,0,0-2.13,1.049,5.739,5.739,0,0,0-.726,3.232v4.939a5.721,5.721,0,0,0,.739,3.25,2.452,2.452,0,0,0,2.142,1.055,2.411,2.411,0,0,0,2.124-1.049,5.832,5.832,0,0,0,.72-3.256Z" transform="translate(-9921 -8321)" fill="#1f2754"/>
      <path id="Trazado_5051" data-name="Trazado 5051" d="M4.724,0H1.758V-13.208H4.724Zm0-16.443H1.758v-2.6H4.724Z" transform="translate(-9856 -8350)" fill="#1f2754"/>
      <path id="Trazado_5052" data-name="Trazado 5052" d="M13.135-6.165A7.447,7.447,0,0,1,11.78-1.514,4.481,4.481,0,0,1,8.008.256a4.671,4.671,0,0,1-1.99-.4A4.094,4.094,0,0,1,4.529-1.331V5.078H1.563V-13.208h2.5l.293,1.66A4.4,4.4,0,0,1,5.89-12.964a4.286,4.286,0,0,1,2.081-.488,4.387,4.387,0,0,1,3.8,1.935,8.681,8.681,0,0,1,1.361,5.1Zm-2.954-.263a6.419,6.419,0,0,0-.763-3.31,2.482,2.482,0,0,0-2.277-1.286,2.961,2.961,0,0,0-1.575.4,2.918,2.918,0,0,0-1.038,1.1v5.961A2.758,2.758,0,0,0,5.566-2.5a3.166,3.166,0,0,0,1.6.372A2.546,2.546,0,0,0,9.43-3.239a5.162,5.162,0,0,0,.751-2.932Z" transform="translate(-9856 -8292)" fill="#1f2754"/>
    </g>
  </g>
</svg>
