<svg xmlns="http://www.w3.org/2000/svg" xmlns:xlink="http://www.w3.org/1999/xlink" width="306.717" height="300.769" viewBox="0 0 306.717 300.769">
  <defs>
    <linearGradient id="linear-gradient" x1="1.061" y1="1.13" x2="0.324" y2="0.337" gradientUnits="objectBoundingBox">
      <stop offset="0" stop-color="#daf5fe"/>
      <stop offset="1" stop-color="#e9f9fd"/>
    </linearGradient>
    <linearGradient id="linear-gradient-2" x1="0.496" y1="-0.343" x2="0.491" y2="-1.183" gradientUnits="objectBoundingBox">
      <stop offset="0" stop-color="#e1be3d"/>
      <stop offset="1" stop-color="#e9a63d"/>
    </linearGradient>
    <linearGradient id="linear-gradient-3" x1="0.326" y1="-7.215" x2="0.436" y2="-2.343" gradientUnits="objectBoundingBox">
      <stop offset="0" stop-color="#ffe08e"/>
      <stop offset="1" stop-color="#fec943"/>
    </linearGradient>
    <linearGradient id="linear-gradient-4" x1="0.821" y1="-28.497" x2="0.582" y2="-6.661" gradientUnits="objectBoundingBox">
      <stop offset="0" stop-color="#fed9ba"/>
      <stop offset="1" stop-color="#ffe08e"/>
    </linearGradient>
    <linearGradient id="linear-gradient-5" x1="0.779" y1="-28.251" x2="0.574" y2="-7.387" xlink:href="#linear-gradient-4"/>
    <linearGradient id="linear-gradient-6" x1="0.3" y1="-8.31" x2="0.41" y2="-3.49" xlink:href="#linear-gradient-3"/>
    <linearGradient id="linear-gradient-7" x1="0.603" y1="-8.197" x2="0.461" y2="4.248" xlink:href="#linear-gradient-4"/>
    <linearGradient id="linear-gradient-8" x1="0.823" y1="-25.467" x2="0.46" y2="3.344" xlink:href="#linear-gradient-4"/>
    <linearGradient id="linear-gradient-9" x1="0.272" y1="-9.612" x2="0.382" y2="-4.738" xlink:href="#linear-gradient-3"/>
    <linearGradient id="linear-gradient-10" x1="0.818" y1="-34.933" x2="0.414" y2="10.614" xlink:href="#linear-gradient-4"/>
    <linearGradient id="linear-gradient-11" x1="0.796" y1="-27.098" x2="0.548" y2="-4.333" xlink:href="#linear-gradient-4"/>
    <linearGradient id="linear-gradient-12" x1="0.245" y1="-10.775" x2="0.355" y2="-5.918" xlink:href="#linear-gradient-3"/>
    <linearGradient id="linear-gradient-13" x1="0.785" y1="-26.342" x2="0.532" y2="-2.226" xlink:href="#linear-gradient-4"/>
    <linearGradient id="linear-gradient-14" x1="0.813" y1="-28.154" x2="0.514" y2="-1.175" xlink:href="#linear-gradient-4"/>
    <linearGradient id="linear-gradient-15" x1="31.93" y1="0.932" x2="32.153" y2="-0.163" gradientUnits="objectBoundingBox">
      <stop offset="0" stop-color="#00115d"/>
      <stop offset="1" stop-color="#0f2991"/>
    </linearGradient>
    <linearGradient id="linear-gradient-16" y1="0.5" x2="1" y2="0.5" gradientUnits="objectBoundingBox">
      <stop offset="0" stop-color="#4f8bff"/>
      <stop offset="1" stop-color="#4075e2"/>
    </linearGradient>
    <linearGradient id="linear-gradient-17" x1="29.203" y1="-1.642" x2="28.318" y2="3.385" xlink:href="#linear-gradient-15"/>
    <linearGradient id="linear-gradient-18" x1="382.366" y1="0.5" x2="383.366" y2="0.5" xlink:href="#linear-gradient-16"/>
    <linearGradient id="linear-gradient-19" x1="382.761" y1="-6.692" x2="382.488" y2="0.843" xlink:href="#linear-gradient-15"/>
    <linearGradient id="linear-gradient-20" x1="1410.986" y1="0.5" x2="1411.986" y2="0.5" xlink:href="#linear-gradient-4"/>
    <linearGradient id="linear-gradient-21" x1="477.243" y1="0.5" x2="478.243" y2="0.5" xlink:href="#linear-gradient-16"/>
    <linearGradient id="linear-gradient-22" x1="437.864" y1="-1.867" x2="437.553" y2="1.1" xlink:href="#linear-gradient-15"/>
    <linearGradient id="linear-gradient-23" x1="178.746" y1="0.055" x2="177.657" y2="0.92" xlink:href="#linear-gradient-15"/>
    <linearGradient id="linear-gradient-24" x1="1189.86" y1="0.5" x2="1190.86" y2="0.5" xlink:href="#linear-gradient-4"/>
    <linearGradient id="linear-gradient-25" x1="104.989" y1="-0.52" x2="104.819" y2="-0.148" xlink:href="#linear-gradient-15"/>
    <linearGradient id="linear-gradient-26" x1="558.747" y1="0.85" x2="558.98" y2="0.282" xlink:href="#linear-gradient-4"/>
    <linearGradient id="linear-gradient-27" x1="124.297" y1="-2.514" x2="124.201" y2="-0.785" xlink:href="#linear-gradient-3"/>
    <linearGradient id="linear-gradient-28" x1="1643.691" y1="0.5" x2="1644.691" y2="0.5" xlink:href="#linear-gradient-2"/>
    <linearGradient id="linear-gradient-29" x1="514.53" y1="0.5" x2="515.53" y2="0.5" xlink:href="#linear-gradient-4"/>
    <linearGradient id="linear-gradient-30" x1="668.79" y1="69.504" x2="667.75" y2="70.255" xlink:href="#linear-gradient-4"/>
    <linearGradient id="linear-gradient-31" x1="545.168" y1="54.199" x2="545.937" y2="55.092" xlink:href="#linear-gradient-15"/>
    <linearGradient id="linear-gradient-32" x1="2744.901" y1="239.526" x2="2740.624" y2="242.136" xlink:href="#linear-gradient-4"/>
    <linearGradient id="linear-gradient-33" x1="-106.018" y1="-1026.241" x2="-107.247" y2="-1011.908" xlink:href="#linear-gradient-15"/>
    <linearGradient id="linear-gradient-34" x1="-216.182" y1="-108.505" x2="-218.808" y2="-107.206" xlink:href="#linear-gradient-15"/>
    <linearGradient id="linear-gradient-35" x1="0.585" y1="-10.381" x2="0.556" y2="-6.783" xlink:href="#linear-gradient-3"/>
    <linearGradient id="linear-gradient-36" x1="-98.424" y1="-15.515" x2="-97.352" y2="-15.515" xlink:href="#linear-gradient-4"/>
    <linearGradient id="linear-gradient-37" x1="0.526" y1="-1.231" x2="0.515" y2="-0.513" xlink:href="#linear-gradient-3"/>
    <linearGradient id="linear-gradient-38" x1="0.5" y1="-0.119" x2="0.5" y2="1.943" xlink:href="#linear-gradient-16"/>
    <linearGradient id="linear-gradient-39" x1="115.73" y1="-1015.481" x2="115.861" y2="-1029.024" xlink:href="#linear-gradient-16"/>
    <linearGradient id="linear-gradient-40" x1="12.721" y1="-2.77" x2="6.088" y2="-0.995" xlink:href="#linear-gradient-16"/>
    <linearGradient id="linear-gradient-41" x1="12.059" y1="-2.592" x2="5.425" y2="-0.818" xlink:href="#linear-gradient-16"/>
    <linearGradient id="linear-gradient-42" x1="411.367" y1="-54.361" x2="412.131" y2="-55.375" xlink:href="#linear-gradient-15"/>
    <linearGradient id="linear-gradient-43" x1="538.716" y1="319.783" x2="539.384" y2="321.397" xlink:href="#linear-gradient-15"/>
    <linearGradient id="linear-gradient-44" x1="550.36" y1="298.217" x2="549.569" y2="299.731" xlink:href="#linear-gradient-15"/>
    <linearGradient id="linear-gradient-45" x1="301.842" y1="135.902" x2="301.408" y2="136.78" xlink:href="#linear-gradient-15"/>
    <linearGradient id="linear-gradient-46" x1="-24.941" y1="-16.192" x2="-24.958" y2="-14.894" xlink:href="#linear-gradient-3"/>
    <linearGradient id="linear-gradient-47" x1="-97.19" y1="-34.668" x2="-99.518" y2="-31.76" xlink:href="#linear-gradient-4"/>
    <linearGradient id="linear-gradient-48" x1="-78.28" y1="-77.339" x2="-80.147" y2="-70.73" xlink:href="#linear-gradient-4"/>
    <linearGradient id="linear-gradient-49" x1="1.459" y1="-1.878" x2="0.201" y2="1.589" xlink:href="#linear-gradient-4"/>
    <linearGradient id="linear-gradient-50" x1="621.221" y1="-1.676" x2="620.188" y2="-0.926" xlink:href="#linear-gradient-4"/>
    <linearGradient id="linear-gradient-51" x1="514.826" y1="-1.425" x2="515.624" y2="-0.512" xlink:href="#linear-gradient-15"/>
    <linearGradient id="linear-gradient-52" x1="2554.699" y1="-8.118" x2="2550.451" y2="-5.486" xlink:href="#linear-gradient-4"/>
    <linearGradient id="linear-gradient-53" x1="0.94" y1="-0.484" x2="-1.895" y2="6.012" xlink:href="#linear-gradient-15"/>
    <linearGradient id="linear-gradient-54" x1="0" y1="0.5" x2="1" y2="0.5" xlink:href="#linear-gradient-4"/>
    <linearGradient id="linear-gradient-55" x1="2.09" y1="0.031" x2="-0.807" y2="0.887" xlink:href="#linear-gradient-15"/>
    <linearGradient id="linear-gradient-56" x1="3.08" y1="-2.223" x2="-3.938" y2="5.383" xlink:href="#linear-gradient-15"/>
    <linearGradient id="linear-gradient-57" x1="0" y1="0.5" x2="1" y2="0.5" xlink:href="#linear-gradient-4"/>
    <linearGradient id="linear-gradient-58" x1="1.562" y1="-0.009" x2="-0.552" y2="0.806" xlink:href="#linear-gradient-15"/>
  </defs>
  <g id="Grupo_91083" data-name="Grupo 91083" transform="translate(1966.853 -1335.595)">
    <g id="Grupo_91119" data-name="Grupo 91119" transform="translate(-1960.374 1335.594)">
      <path id="Trazado_143713" data-name="Trazado 143713" d="M-1675.314,1538.849c-30.271,70.753-110.173,101.143-172.78,95.962-17.094-1.415-51.487-4.262-78.341-29.657-51.573-48.77-43.629-150.714,5.74-210.732,6.357-7.73,50.365-59.513,118.942-58.82,50.209.507,85.45,28.869,89.734,32.4a138.273,138.273,0,0,1,28.115,31.9C-1658.622,1439.44-1656.4,1494.636-1675.314,1538.849Z" transform="translate(1963.025 -1335.594)" fill="url(#linear-gradient)"/>
      <g id="Grupo_91092" data-name="Grupo 91092" transform="translate(107.526 52.668)">
        <rect id="Rectángulo_49859" data-name="Rectángulo 49859" width="169.99" height="142.444" transform="translate(11.039 18.481)" fill="url(#linear-gradient-2)"/>
        <g id="Grupo_91085" data-name="Grupo 91085" transform="translate(0.524)">
          <path id="Trazado_143714" data-name="Trazado 143714" d="M-1704.295,1370.617l-181.9,1.145a4.32,4.32,0,0,0-4.5,4.032v27.14a4.123,4.123,0,0,0,4.295,3.883l182.1,1.146c2.7.017,4.976-1.815,4.976-4.09v-29.164C-1699.318,1372.431-1701.595,1370.6-1704.295,1370.617Z" transform="translate(1890.698 -1370.617)" fill="url(#linear-gradient-3)"/>
          <g id="Grupo_91084" data-name="Grupo 91084">
            <path id="Trazado_143715" data-name="Trazado 143715" d="M-1704.377,1370.617l-182.021,1.146a4.125,4.125,0,0,0-4.3,3.883l191.212-.938C-1699.484,1372.431-1701.676,1370.6-1704.377,1370.617Z" transform="translate(1890.696 -1370.617)" fill="url(#linear-gradient-4)"/>
            <path id="Trazado_143716" data-name="Trazado 143716" d="M-1886.4,1395.989l182.021,1.146c2.7.017,4.893-1.815,4.893-4.09l-191.212-.938A4.125,4.125,0,0,0-1886.4,1395.989Z" transform="translate(1890.696 -1359.79)" fill="url(#linear-gradient-5)"/>
          </g>
        </g>
        <g id="Grupo_91087" data-name="Grupo 91087" transform="translate(0 44.878)">
          <path id="Trazado_143717" data-name="Trazado 143717" d="M-1703.975,1400.836l-182.036-.377a4.458,4.458,0,0,0-4.678,4.115l-.348,28.014a4.215,4.215,0,0,0,4.393,4.027l182.66,1.6c2.627.024,4.839-1.808,4.839-4.088v-29.164C-1699.145,1402.686-1701.354,1400.841-1703.975,1400.836Z" transform="translate(1891.048 -1400.459)" fill="url(#linear-gradient-6)"/>
          <g id="Grupo_91086" data-name="Grupo 91086">
            <path id="Trazado_143718" data-name="Trazado 143718" d="M-1704.17,1400.836l-182.164-.377a4.273,4.273,0,0,0-4.484,3.963l191.4.537C-1699.422,1402.686-1701.549,1400.841-1704.17,1400.836Z" transform="translate(1891.158 -1400.459)" fill="url(#linear-gradient-7)"/>
            <path id="Trazado_143719" data-name="Trazado 143719" d="M-1886.647,1425.85l182.58,1.6c2.627.024,4.758-1.808,4.758-4.088l-191.736-1.535A4.219,4.219,0,0,0-1886.647,1425.85Z" transform="translate(1891.044 -1389.695)" fill="url(#linear-gradient-8)"/>
          </g>
        </g>
        <g id="Grupo_91089" data-name="Grupo 91089" transform="translate(0.524 90.61)">
          <path id="Trazado_143720" data-name="Trazado 143720" d="M-1704.07,1430.869h-181.865a4.554,4.554,0,0,0-4.758,4.3v29.006c0,2.276,2.048,4.024,4.582,4.024h182.04c2.532,0,4.752-1.749,4.752-4.024v-29.165C-1699.318,1432.737-1701.538,1430.869-1704.07,1430.869Z" transform="translate(1890.698 -1430.869)" fill="url(#linear-gradient-9)"/>
          <g id="Grupo_91088" data-name="Grupo 91088">
            <path id="Trazado_143721" data-name="Trazado 143721" d="M-1704.069,1430.869h-182.04c-2.534,0-4.587,1.812-4.587,3.987h191.212C-1699.484,1432.681-1701.536,1430.869-1704.069,1430.869Z" transform="translate(1890.696 -1430.869)" fill="url(#linear-gradient-10)"/>
            <path id="Trazado_143722" data-name="Trazado 143722" d="M-1886.109,1457.03h182.04c2.532,0,4.585-1.814,4.585-3.988H-1890.7C-1890.7,1455.217-1888.643,1457.03-1886.109,1457.03Z" transform="translate(1890.696 -1419.697)" fill="url(#linear-gradient-11)"/>
          </g>
        </g>
        <g id="Grupo_91091" data-name="Grupo 91091" transform="translate(0.524 135.985)">
          <path id="Trazado_143723" data-name="Trazado 143723" d="M-1703.878,1461.755l-181.967-.713a4.57,4.57,0,0,0-4.848,4.263v29a4.421,4.421,0,0,0,4.666,4.122l182.048.069a4.306,4.306,0,0,0,4.518-4.042l.08-28.638A4.3,4.3,0,0,0-1703.878,1461.755Z" transform="translate(1890.698 -1461.042)" fill="url(#linear-gradient-12)"/>
          <g id="Grupo_91090" data-name="Grupo 91090">
            <path id="Trazado_143724" data-name="Trazado 143724" d="M-1703.876,1461.755l-182.149-.713a4.4,4.4,0,0,0-4.671,4.1l191.316.675A4.3,4.3,0,0,0-1703.876,1461.755Z" transform="translate(1890.696 -1461.042)" fill="url(#linear-gradient-13)"/>
            <path id="Trazado_143725" data-name="Trazado 143725" d="M-1886.026,1487.286l182.049.069a4.3,4.3,0,0,0,4.516-4.042l-191.235-.149A4.423,4.423,0,0,0-1886.026,1487.286Z" transform="translate(1890.696 -1449.896)" fill="url(#linear-gradient-14)"/>
          </g>
        </g>
      </g>
      <g id="Grupo_91103" data-name="Grupo 91103" transform="translate(154.056 9.388)">
        <g id="Grupo_91097" data-name="Grupo 91097" transform="translate(46.583)">
          <g id="Grupo_91093" data-name="Grupo 91093" opacity="0.3">
            <path id="Trazado_143726" data-name="Trazado 143726" d="M-1828.11,1388.876a1.228,1.228,0,0,1-1.015-1.292c.092-1.383.247-2.785.457-4.162a1.229,1.229,0,0,1,1.4-1.029l.024,0a1.228,1.228,0,0,1,1,1.4c-.2,1.31-.347,2.641-.436,3.955a1.226,1.226,0,0,1-1.307,1.143A.884.884,0,0,1-1828.11,1388.876Zm1.9-10.53a.953.953,0,0,1-.141-.033,1.227,1.227,0,0,1-.827-1.526c.4-1.335.854-2.668,1.361-3.958a1.228,1.228,0,0,1,1.593-.695,1.228,1.228,0,0,1,.695,1.591c-.481,1.227-.917,2.492-1.295,3.761A1.226,1.226,0,0,1-1826.211,1378.346Zm4.172-9.849a1.2,1.2,0,0,1-.393-.14,1.23,1.23,0,0,1-.468-1.674c.683-1.211,1.427-2.408,2.212-3.557a1.229,1.229,0,0,1,1.707-.32,1.227,1.227,0,0,1,.32,1.707c-.744,1.09-1.451,2.226-2.1,3.376A1.23,1.23,0,0,1-1822.039,1368.5Zm6.271-8.67a1.233,1.233,0,0,1-.617-.3,1.23,1.23,0,0,1-.081-1.736c.938-1.029,1.931-2.029,2.952-2.973a1.229,1.229,0,0,1,1.735.068,1.228,1.228,0,0,1-.068,1.735c-.97.9-1.913,1.847-2.8,2.824A1.229,1.229,0,0,1-1815.768,1359.827Zm8.047-7.054a1.223,1.223,0,0,1-.8-.508,1.227,1.227,0,0,1,.305-1.71c1.14-.793,2.329-1.549,3.536-2.246a1.228,1.228,0,0,1,1.677.45,1.228,1.228,0,0,1-.449,1.678c-1.146.662-2.277,1.379-3.36,2.132A1.221,1.221,0,0,1-1807.721,1352.773Zm9.4-5.1a1.225,1.225,0,0,1-.929-.749,1.227,1.227,0,0,1,.677-1.6c1.289-.522,2.615-1,3.943-1.408a1.229,1.229,0,0,1,1.537.811,1.23,1.23,0,0,1-.811,1.537c-1.261.389-2.522.839-3.746,1.335A1.206,1.206,0,0,1-1798.316,1347.673Zm44.845,4.785a1.239,1.239,0,0,1-.481-.194c-1.09-.743-2.229-1.448-3.382-2.095a1.228,1.228,0,0,1-.469-1.672,1.23,1.23,0,0,1,1.672-.471c1.215.683,2.414,1.424,3.561,2.206a1.228,1.228,0,0,1,.325,1.707A1.228,1.228,0,0,1-1753.471,1352.458Zm-34.549-7.669a1.229,1.229,0,0,1-1-1.014,1.227,1.227,0,0,1,1.015-1.409c1.372-.222,2.77-.389,4.157-.493a1.231,1.231,0,0,1,1.317,1.132,1.229,1.229,0,0,1-1.132,1.317c-1.317.1-2.645.256-3.949.468A1.231,1.231,0,0,1-1788.021,1344.789Zm25.083,2.684a1.238,1.238,0,0,1-.238-.065c-1.23-.481-2.5-.913-3.766-1.287a1.229,1.229,0,0,1-.83-1.527,1.226,1.226,0,0,1,1.525-.83c1.335.394,2.67.85,3.963,1.355a1.227,1.227,0,0,1,.7,1.59A1.23,1.23,0,0,1-1762.938,1347.473Zm-14.4-3.2a1.228,1.228,0,0,1-1.013-1.29,1.227,1.227,0,0,1,1.3-1.146c1.386.09,2.786.241,4.164.45l.026,0a1.229,1.229,0,0,1,1,1.394,1.228,1.228,0,0,1-1.4,1.03c-1.307-.2-2.638-.341-3.955-.427A1.252,1.252,0,0,1-1777.339,1344.276Z" transform="translate(1829.128 -1341.837)" fill="#91e8fa"/>
            <path id="Trazado_143727" data-name="Trazado 143727" d="M-1773.572,1353.813a1.209,1.209,0,0,1-.651-.336c-.451-.445-.919-.887-1.39-1.317a1.227,1.227,0,0,1-.083-1.734,1.226,1.226,0,0,1,1.735-.081c.5.45.986.916,1.462,1.383a1.23,1.23,0,0,1,.012,1.737A1.229,1.229,0,0,1-1773.572,1353.813Z" transform="translate(1855.889 -1337.713)" fill="#91e8fa"/>
          </g>
          <g id="Grupo_91094" data-name="Grupo 91094" transform="translate(12.619 46.317)" opacity="0.3">
            <path id="Trazado_143728" data-name="Trazado 143728" d="M-1764.558,1377.041a1.229,1.229,0,0,1-1.018-1.226c.008-.633,0-1.277-.017-1.914a1.229,1.229,0,0,1,1.193-1.263,1.228,1.228,0,0,1,1.263,1.193c.019.671.026,1.349.017,2.015a1.228,1.228,0,0,1-1.242,1.214A1.349,1.349,0,0,1-1764.558,1377.041Z" transform="translate(1848.521 -1372.637)" fill="#91e8fa"/>
            <path id="Trazado_143729" data-name="Trazado 143729" d="M-1794.82,1420.792q-.837-.145-1.672-.319a1.229,1.229,0,0,1-.953-1.451,1.229,1.229,0,0,1,1.453-.953c1.287.268,2.582.481,3.863.639a1.228,1.228,0,0,1,1.069,1.369,1.226,1.226,0,0,1-1.368,1.069C-1793.222,1421.049-1794.026,1420.929-1794.82,1420.792Zm-7.916-2.068a1.377,1.377,0,0,1-.2-.053c-1.292-.459-2.579-.976-3.824-1.538a1.228,1.228,0,0,1-.614-1.624,1.226,1.226,0,0,1,1.624-.614c1.184.534,2.406,1.026,3.633,1.46a1.229,1.229,0,0,1,.747,1.569A1.231,1.231,0,0,1-1802.736,1418.724Zm16.762,2.762a1.23,1.23,0,0,1-1.018-1.193,1.23,1.23,0,0,1,1.21-1.247c1.3-.018,2.611-.093,3.907-.223a1.227,1.227,0,0,1,1.343,1.1,1.228,1.228,0,0,1-1.1,1.345c-1.364.137-2.748.215-4.115.236A1.242,1.242,0,0,1-1785.974,1421.487Zm-26.241-7.351a1.259,1.259,0,0,1-.445-.172c-1.158-.729-2.3-1.517-3.391-2.341a1.228,1.228,0,0,1-.241-1.72,1.228,1.228,0,0,1,1.72-.241c1.036.782,2.12,1.531,3.22,2.224a1.226,1.226,0,0,1,.385,1.693A1.231,1.231,0,0,1-1812.215,1414.136Zm36.681,6.029a1.224,1.224,0,0,1-.985-.922,1.228,1.228,0,0,1,.905-1.483c1.26-.3,2.526-.666,3.761-1.077a1.228,1.228,0,0,1,1.553.779,1.227,1.227,0,0,1-.779,1.552c-1.3.432-2.632.814-3.959,1.134A1.2,1.2,0,0,1-1775.535,1420.165Zm9.9-3.579a1.23,1.23,0,0,1-.895-.668,1.229,1.229,0,0,1,.561-1.645c1.167-.575,2.323-1.2,3.438-1.872a1.226,1.226,0,0,1,1.684.421,1.229,1.229,0,0,1-.421,1.686c-1.172.7-2.39,1.366-3.617,1.97A1.229,1.229,0,0,1-1765.638,1416.586Zm8.88-5.653a1.214,1.214,0,0,1-.747-.44,1.23,1.23,0,0,1,.188-1.727c1.017-.815,2.008-1.681,2.949-2.576a1.227,1.227,0,0,1,1.735.044,1.228,1.228,0,0,1-.044,1.737c-.991.94-2.035,1.853-3.1,2.712A1.227,1.227,0,0,1-1756.758,1410.933Zm7.436-7.453a1.234,1.234,0,0,1-.556-.251,1.227,1.227,0,0,1-.192-1.725c.812-1.017,1.59-2.08,2.311-3.16a1.228,1.228,0,0,1,1.7-.338,1.227,1.227,0,0,1,.338,1.7c-.761,1.138-1.579,2.257-2.435,3.328A1.229,1.229,0,0,1-1749.321,1403.48Zm5.621-8.909a1.2,1.2,0,0,1-.328-.105,1.228,1.228,0,0,1-.568-1.641c.566-1.168,1.09-2.376,1.556-3.59a1.231,1.231,0,0,1,1.588-.705,1.229,1.229,0,0,1,.705,1.588c-.492,1.278-1.044,2.549-1.639,3.778A1.228,1.228,0,0,1-1743.7,1394.571Zm3.524-9.918-.074-.015a1.228,1.228,0,0,1-.913-1.478c.219-.932.414-1.881.577-2.823.059-.342.113-.681.164-1.023a1.23,1.23,0,0,1,1.4-1.032,1.216,1.216,0,0,1,1.032,1.4c-.054.359-.113.717-.174,1.075-.172.991-.376,1.99-.608,2.97A1.228,1.228,0,0,1-1740.176,1384.653Z" transform="translate(1822.851 -1369.799)" fill="#91e8fa"/>
            <path id="Trazado_143730" data-name="Trazado 143730" d="M-1818.357,1399.031a1.229,1.229,0,0,1-.657-.34c-.471-.469-.942-.958-1.4-1.451a1.228,1.228,0,0,1,.069-1.735,1.227,1.227,0,0,1,1.735.069c.433.468.88.932,1.326,1.378a1.229,1.229,0,0,1,0,1.737A1.224,1.224,0,0,1-1818.357,1399.031Z" transform="translate(1820.737 -1361.279)" fill="#91e8fa"/>
          </g>
          <g id="Grupo_91096" data-name="Grupo 91096" transform="translate(12.466 12.011)">
            <path id="Trazado_143731" data-name="Trazado 143731" d="M-1814.246,1408.128a.575.575,0,0,0,.6.283l6.871-1.259a30.442,30.442,0,0,0,7.759,6.085l.418,6.969a.574.574,0,0,0,.418.519l8.073,2.253a.572.572,0,0,0,.626-.227l3.967-5.745a30.475,30.475,0,0,0,9.787-1.189l5.227,4.635a.574.574,0,0,0,.663.071l7.3-4.114a.574.574,0,0,0,.283-.6l-1.259-6.872a30.4,30.4,0,0,0,6.085-7.758l6.97-.418a.573.573,0,0,0,.519-.418l2.251-8.071a.573.573,0,0,0-.226-.627l-5.746-3.967a30.429,30.429,0,0,0-1.189-9.787l4.636-5.227a.572.572,0,0,0,.069-.661l-4.115-7.3a.574.574,0,0,0-.6-.283l-6.873,1.259a30.4,30.4,0,0,0-7.757-6.085l-.418-6.97a.573.573,0,0,0-.42-.517l-8.071-2.253a.574.574,0,0,0-.627.227l-3.966,5.745a30.435,30.435,0,0,0-9.788,1.189l-5.226-4.635a.575.575,0,0,0-.663-.071l-7.3,4.115a.576.576,0,0,0-.283.6l1.26,6.873a30.412,30.412,0,0,0-6.086,7.757l-6.969.418a.576.576,0,0,0-.519.419l-2.253,8.071a.574.574,0,0,0,.227.627l5.746,3.966a30.429,30.429,0,0,0,1.188,9.789l-4.635,5.227a.573.573,0,0,0-.071.662Z" transform="translate(1820.838 -1349.824)" fill="#91e8fa"/>
            <g id="Grupo_91095" data-name="Grupo 91095" transform="translate(28.165 28.163)">
              <path id="Trazado_143732" data-name="Trazado 143732" d="M-1795.128,1385.275a8.435,8.435,0,0,1-6.979-8.509,8.434,8.434,0,0,1,8.63-8.213,8.366,8.366,0,0,1,5.892,2.615,8.363,8.363,0,0,1,2.319,6.015,8.432,8.432,0,0,1-8.63,8.211A8.519,8.519,0,0,1-1795.128,1385.275Zm2.555-14.662a6.423,6.423,0,0,0-.953-.093,6.465,6.465,0,0,0-6.617,6.3,6.465,6.465,0,0,0,6.3,6.617,6.466,6.466,0,0,0,6.617-6.3,6.424,6.424,0,0,0-1.777-4.612A6.413,6.413,0,0,0-1792.573,1370.613Z" transform="translate(1802.11 -1368.551)" fill="#bdeffb"/>
            </g>
            <path id="Trazado_143733" data-name="Trazado 143733" d="M-1792.962,1401.443a20.717,20.717,0,0,1-2.077-.468h0c-.216-.06-.432-.123-.646-.191a20.808,20.808,0,0,1-3.075-1.242l-.041-.021-.114-.057-.221-.115a.5.5,0,0,1-.256-.519.53.53,0,0,1,.05-.146.493.493,0,0,1,.663-.206,19.86,19.86,0,0,0,3.906,1.551,19.729,19.729,0,0,0,18.5-4.342,19.615,19.615,0,0,0,5.809-9.358,19.972,19.972,0,0,0,.447-1.981,19.579,19.579,0,0,0-2.263-13.01,19.6,19.6,0,0,0-11.883-9.316,19.749,19.749,0,0,0-24.307,13.7,19.572,19.572,0,0,0-.441,1.955,19.654,19.654,0,0,0,.411,8.554.5.5,0,0,1,.01.215.491.491,0,0,1-.355.389.491.491,0,0,1-.6-.344,20.658,20.658,0,0,1-.432-8.981q.178-1.033.462-2.051a20.737,20.737,0,0,1,25.517-14.383,20.565,20.565,0,0,1,12.476,9.779,20.553,20.553,0,0,1,2.376,13.658,21.084,21.084,0,0,1-.469,2.078,20.572,20.572,0,0,1-9.779,12.476A20.55,20.55,0,0,1-1792.962,1401.443Z" transform="translate(1826.206 -1344.539)" fill="#bdeffb"/>
          </g>
        </g>
        <g id="Grupo_91102" data-name="Grupo 91102" transform="translate(0 34.626)">
          <g id="Grupo_91098" data-name="Grupo 91098" opacity="0.3">
            <path id="Trazado_143734" data-name="Trazado 143734" d="M-1859.316,1390.714a.757.757,0,0,1-.623-.662c-.074-.639-.129-1.29-.164-1.934a.759.759,0,0,1,.716-.8.758.758,0,0,1,.8.716c.033.614.086,1.233.156,1.843a.759.759,0,0,1-.668.841A.737.737,0,0,1-1859.316,1390.714Z" transform="translate(1860.104 -1353.548)" fill="#91e8fa"/>
            <path id="Trazado_143735" data-name="Trazado 143735" d="M-1859.456,1396.195a.76.76,0,0,1-.627-.8,33.2,33.2,0,0,1,.4-3.313c.041-.23.083-.46.128-.692a.785.785,0,0,1,.889-.6.759.759,0,0,1,.6.89q-.063.329-.122.659c-.179,1.042-.308,2.105-.382,3.161a.758.758,0,0,1-.809.7Zm1.506-7.731a.839.839,0,0,1-.107-.026.76.76,0,0,1-.487-.957,32.673,32.673,0,0,1,1.481-3.756.76.76,0,0,1,1.008-.367.759.759,0,0,1,.367,1.009,31.3,31.3,0,0,0-1.412,3.583A.76.76,0,0,1-1857.95,1388.463Zm3.335-7.136a.77.77,0,0,1-.275-.105.757.757,0,0,1-.238-1.045,32.461,32.461,0,0,1,2.36-3.28.758.758,0,0,1,1.068-.107.76.76,0,0,1,.107,1.068,30.935,30.935,0,0,0-2.25,3.126A.76.76,0,0,1-1854.615,1381.328Zm4.987-6.1a.77.77,0,0,1-.42-.222.761.761,0,0,1,.026-1.074,33.045,33.045,0,0,1,3.091-2.6.759.759,0,0,1,1.06.158.758.758,0,0,1-.156,1.062,31.3,31.3,0,0,0-2.946,2.48A.755.755,0,0,1-1849.628,1375.231Zm6.325-4.693a.756.756,0,0,1-.531-.373.76.76,0,0,1,.285-1.035,33.063,33.063,0,0,1,3.627-1.772.757.757,0,0,1,.991.409.76.76,0,0,1-.409.993,31.563,31.563,0,0,0-3.461,1.69A.757.757,0,0,1-1843.3,1370.537Zm7.272-3.015a.76.76,0,0,1-.6-.546.76.76,0,0,1,.53-.934,32.873,32.873,0,0,1,3.948-.833.76.76,0,0,1,.862.641.759.759,0,0,1-.641.86,31.229,31.229,0,0,0-3.764.8A.774.774,0,0,1-1836.03,1367.522Zm7.785-1.146a.761.761,0,0,1-.628-.731.761.761,0,0,1,.743-.776,33.259,33.259,0,0,1,4.035.161.763.763,0,0,1,.677.833.757.757,0,0,1-.832.677,31.339,31.339,0,0,0-3.847-.153A.8.8,0,0,1-1828.245,1366.376Zm11.622,1.911a.788.788,0,0,1-.13-.035,31.433,31.433,0,0,0-3.208-.968c-.164-.041-.326-.08-.489-.116a.759.759,0,0,1-.572-.908.75.75,0,0,1,.908-.571c.171.039.344.08.517.123a32.958,32.958,0,0,1,3.358,1.014.76.76,0,0,1,.456.971A.76.76,0,0,1-1816.623,1368.288Z" transform="translate(1860.114 -1364.862)" fill="#91e8fa"/>
          </g>
          <g id="Grupo_91099" data-name="Grupo 91099" transform="translate(8.467 51.033)" opacity="0.3">
            <path id="Trazado_143736" data-name="Trazado 143736" d="M-1836.8,1412.891a.758.758,0,0,1-.62-.867.758.758,0,0,1,.868-.63,31.167,31.167,0,0,0,3.77.37.763.763,0,0,1,.729.787.759.759,0,0,1-.786.731,33.3,33.3,0,0,1-3.952-.388Zm-3.79-.84a.773.773,0,0,1-.08-.02,33.085,33.085,0,0,1-3.748-1.318.758.758,0,0,1-.4-.992.76.76,0,0,1,.993-.406,31.931,31.931,0,0,0,3.576,1.259.756.756,0,0,1,.52.937A.759.759,0,0,1-1840.595,1412.051Zm11.528,1.126a.762.762,0,0,1-.625-.683.76.76,0,0,1,.69-.821,31.362,31.362,0,0,0,3.749-.553.76.76,0,0,1,.9.587.76.76,0,0,1-.587.9,33.175,33.175,0,0,1-3.929.579A.777.777,0,0,1-1829.066,1413.177Zm-18.669-4.137a.724.724,0,0,1-.248-.09,32.479,32.479,0,0,1-3.321-2.184.76.76,0,0,1-.152-1.063.761.761,0,0,1,1.062-.152,30.824,30.824,0,0,0,3.166,2.083.76.76,0,0,1,.28,1.036A.757.757,0,0,1-1847.735,1409.04Zm26.248,2.543a.76.76,0,0,1-.589-.5.758.758,0,0,1,.474-.962,31.146,31.146,0,0,0,3.5-1.438.76.76,0,0,1,1.013.354.759.759,0,0,1-.354,1.013,32.793,32.793,0,0,1-3.675,1.507A.754.754,0,0,1-1821.487,1411.583Zm6.975-3.365a.759.759,0,0,1-.508-.338.757.757,0,0,1,.229-1.048,31.516,31.516,0,0,0,3.06-2.235.758.758,0,0,1,1.068.1.757.757,0,0,1-.1,1.066,33.089,33.089,0,0,1-3.208,2.343A.765.765,0,0,1-1814.512,1408.217Zm5.97-4.94a.763.763,0,0,1-.392-.2.758.758,0,0,1-.029-1.072,31.281,31.281,0,0,0,2.435-2.9.76.76,0,0,1,1.06-.159.759.759,0,0,1,.159,1.062,32.743,32.743,0,0,1-2.553,3.045A.758.758,0,0,1-1808.542,1403.277Z" transform="translate(1855.918 -1398.797)" fill="#91e8fa"/>
            <path id="Trazado_143737" data-name="Trazado 143737" d="M-1852.518,1403.459a.755.755,0,0,1-.4-.2c-.468-.451-.923-.917-1.358-1.385a.76.76,0,0,1,.043-1.072.762.762,0,0,1,1.072.042c.412.447.848.892,1.295,1.322a.758.758,0,0,1,.021,1.072A.758.758,0,0,1-1852.518,1403.459Z" transform="translate(1854.473 -1397.888)" fill="#91e8fa"/>
          </g>
          <g id="Grupo_91101" data-name="Grupo 91101" transform="translate(8.302 8.042)">
            <path id="Trazado_143738" data-name="Trazado 143738" d="M-1850.172,1409.224a.383.383,0,0,0,.4.188l4.6-.842a20.373,20.373,0,0,0,5.191,4.072l.28,4.663a.386.386,0,0,0,.28.348l5.4,1.507a.385.385,0,0,0,.419-.152l2.654-3.844a20.392,20.392,0,0,0,6.549-.8l3.5,3.1a.384.384,0,0,0,.444.046l4.885-2.753a.385.385,0,0,0,.189-.4l-.842-4.6a20.363,20.363,0,0,0,4.071-5.191l4.663-.28a.382.382,0,0,0,.347-.28l1.507-5.4a.379.379,0,0,0-.152-.418l-3.844-2.654a20.39,20.39,0,0,0-.8-6.551l3.1-3.5a.382.382,0,0,0,.048-.442l-2.754-4.886a.384.384,0,0,0-.4-.188l-4.6.842a20.352,20.352,0,0,0-5.19-4.072l-.28-4.663a.385.385,0,0,0-.281-.348l-5.4-1.507a.385.385,0,0,0-.42.152l-2.654,3.844a20.39,20.39,0,0,0-6.549.8l-3.5-3.1a.384.384,0,0,0-.444-.047l-4.885,2.753a.382.382,0,0,0-.189.4l.842,4.6a20.333,20.333,0,0,0-4.073,5.191l-4.663.28a.381.381,0,0,0-.346.279l-1.508,5.4a.38.38,0,0,0,.152.418l3.845,2.654a20.346,20.346,0,0,0,.8,6.551l-3.1,3.5a.384.384,0,0,0-.047.444Z" transform="translate(1854.583 -1370.21)" fill="#91e8fa"/>
            <g id="Grupo_91100" data-name="Grupo 91100" transform="translate(18.746 18.744)">
              <path id="Trazado_143739" data-name="Trazado 143739" d="M-1837.37,1394.064a5.689,5.689,0,0,1-3.167-1.7,5.691,5.691,0,0,1-1.579-4.1,5.743,5.743,0,0,1,5.877-5.593,5.746,5.746,0,0,1,5.594,5.879,5.7,5.7,0,0,1-1.78,4.015,5.705,5.705,0,0,1-4.1,1.579A5.86,5.86,0,0,1-1837.37,1394.064Zm1.711-9.811a4.182,4.182,0,0,0-.618-.06,4.226,4.226,0,0,0-4.324,4.115,4.2,4.2,0,0,0,1.161,3.013,4.2,4.2,0,0,0,2.954,1.31h0a4.194,4.194,0,0,0,3.014-1.161,4.192,4.192,0,0,0,1.312-2.953A4.228,4.228,0,0,0-1835.659,1384.253Z" transform="translate(1842.118 -1382.674)" fill="#bdeffb"/>
            </g>
            <path id="Trazado_143740" data-name="Trazado 143740" d="M-1835.873,1405.319q-.71-.124-1.418-.32a14.394,14.394,0,0,1-2.71-1.062l-.116-.06a.759.759,0,0,1-.4-.8.8.8,0,0,1,.077-.226.761.761,0,0,1,1.024-.317,12.765,12.765,0,0,0,2.528,1h0l.144.039a12.646,12.646,0,0,0,6.255.089,12.865,12.865,0,0,0,3.206-1.247l.024-.013.077-.042a12.692,12.692,0,0,0,6.031-7.694,12.781,12.781,0,0,0,.289-1.283,12.668,12.668,0,0,0-1.465-8.422,12.682,12.682,0,0,0-7.693-6.03,12.7,12.7,0,0,0-9.7,1.174,12.692,12.692,0,0,0-6.03,7.694,12.715,12.715,0,0,0-.286,1.266,12.73,12.73,0,0,0,.266,5.537.763.763,0,0,1,.017.329.759.759,0,0,1-.547.6.76.76,0,0,1-.932-.531,14.28,14.28,0,0,1-.3-6.2,14.38,14.38,0,0,1,.319-1.417,14.2,14.2,0,0,1,6.748-8.608,14.182,14.182,0,0,1,10.856-1.314,14.19,14.19,0,0,1,8.608,6.748,14.178,14.178,0,0,1,1.639,9.422,14.619,14.619,0,0,1-.323,1.435A14.312,14.312,0,0,1-1835.873,1405.319Z" transform="translate(1858.031 -1366.82)" fill="#bdeffb"/>
          </g>
        </g>
      </g>
      <g id="Grupo_91107" data-name="Grupo 91107" transform="translate(0 119.26)">
        <path id="Trazado_143741" data-name="Trazado 143741" d="M-1949.6,1553.792a4.1,4.1,0,0,0,4.086,4.083h221a4.1,4.1,0,0,0,4.088-4.083l1.839-127a7.117,7.117,0,0,0-7.5-6.3l-215.982-5.588a10.3,10.3,0,0,0-7.545,3,10.292,10.292,0,0,0-3.024,7.53Z" transform="translate(1967.534 -1414.898)" fill="url(#linear-gradient-15)"/>
        <path id="Trazado_143742" data-name="Trazado 143742" d="M-1946.907,1548.252a3.878,3.878,0,0,0,3.866,3.866h211.854a3.878,3.878,0,0,0,3.866-3.866l1.734-115.294c-.2-6.937-6.286-9.431-9.973-9.283l-207-5.554a7.225,7.225,0,0,0-5.3,2.11,7.232,7.232,0,0,0-2.126,5.3Z" transform="translate(1968.871 -1413.275)" fill="url(#linear-gradient-16)"/>
        <g id="Grupo_91104" data-name="Grupo 91104" transform="translate(164.662 10.823)">
          <path id="Trazado_143743" data-name="Trazado 143743" d="M-1803.256,1471.742h-.007a.567.567,0,0,1-.56-.574l.139-9.351a.566.566,0,0,1,.565-.558h.006a.567.567,0,0,1,.561.576l-.137,9.349A.567.567,0,0,1-1803.256,1471.742Z" transform="translate(1877.855 -1402.362)" fill="#7dd0f4"/>
          <path id="Trazado_143744" data-name="Trazado 143744" d="M-1778.116,1468.563h-.009a.566.566,0,0,1-.558-.574l.526-35.811a6.73,6.73,0,0,0-1.919-5.036c-2.359-2.26-6.105-2.144-6.262-2.137l-66.163-1.775a.566.566,0,0,1-.55-.582.542.542,0,0,1,.582-.551l66.123,1.775c.41-.024,4.4-.093,7.054,2.451a7.819,7.819,0,0,1,2.268,5.861l-.525,35.822A.568.568,0,0,1-1778.116,1468.563Z" transform="translate(1853.051 -1422.095)" fill="#7dd0f4"/>
        </g>
        <rect id="Rectángulo_49860" data-name="Rectángulo 49860" width="260.548" height="11.159" rx="3.71" transform="translate(260.548 153.519) rotate(-180)" fill="url(#linear-gradient-17)"/>
        <g id="Grupo_91105" data-name="Grupo 91105" transform="translate(39.15 13.308)">
          <rect id="Rectángulo_49861" data-name="Rectángulo 49861" width="4.686" height="68.412" transform="translate(0.324 36.004) rotate(-89.998)" fill="#7dd0f4"/>
          <rect id="Rectángulo_49862" data-name="Rectángulo 49862" width="4.686" height="68.412" transform="translate(0.002 4.686) rotate(-89.998)" fill="#7dd0f4"/>
          <rect id="Rectángulo_49863" data-name="Rectángulo 49863" width="4.686" height="49.33" transform="translate(19.289 12.704) rotate(-89.998)" fill="#7dd0f4"/>
          <rect id="Rectángulo_49864" data-name="Rectángulo 49864" width="4.686" height="7.1" transform="translate(8.848 12.33) rotate(-89.998)" fill="#7dd0f4"/>
          <rect id="Rectángulo_49865" data-name="Rectángulo 49865" width="4.686" height="49.33" transform="translate(19.24 20.537) rotate(-89.998)" fill="#7dd0f4"/>
          <rect id="Rectángulo_49866" data-name="Rectángulo 49866" width="4.686" height="7.1" transform="translate(8.813 20.162) rotate(-89.998)" fill="#7dd0f4"/>
          <rect id="Rectángulo_49867" data-name="Rectángulo 49867" width="4.686" height="49.33" transform="translate(19.059 28.357) rotate(-89.998)" fill="#7dd0f4"/>
          <rect id="Rectángulo_49868" data-name="Rectángulo 49868" width="4.686" height="7.1" transform="translate(8.391 27.982) rotate(-89.998)" fill="#7dd0f4"/>
          <rect id="Rectángulo_49869" data-name="Rectángulo 49869" width="4.686" height="68.412" transform="translate(0 68.612) rotate(-89.998)" fill="#7dd0f4"/>
          <rect id="Rectángulo_49870" data-name="Rectángulo 49870" width="4.686" height="49.33" transform="translate(18.965 45.312) rotate(-89.998)" fill="#7dd0f4"/>
          <rect id="Rectángulo_49871" data-name="Rectángulo 49871" width="4.686" height="7.1" transform="translate(8.524 44.937) rotate(-89.998)" fill="#7dd0f4"/>
          <rect id="Rectángulo_49872" data-name="Rectángulo 49872" width="4.686" height="49.33" transform="translate(18.916 53.145) rotate(-89.998)" fill="#7dd0f4"/>
          <rect id="Rectángulo_49873" data-name="Rectángulo 49873" width="4.686" height="7.1" transform="translate(8.488 52.77) rotate(-89.998)" fill="#7dd0f4"/>
          <rect id="Rectángulo_49874" data-name="Rectángulo 49874" width="4.686" height="49.33" transform="translate(18.735 60.964) rotate(-89.998)" fill="#7dd0f4"/>
          <rect id="Rectángulo_49875" data-name="Rectángulo 49875" width="4.686" height="7.1" transform="translate(8.066 60.59) rotate(-89.998)" fill="#7dd0f4"/>
          <rect id="Rectángulo_49876" data-name="Rectángulo 49876" width="4.686" height="68.412" transform="translate(0 101.178) rotate(-89.998)" fill="#7dd0f4"/>
          <rect id="Rectángulo_49877" data-name="Rectángulo 49877" width="4.686" height="49.33" transform="translate(18.965 77.877) rotate(-89.998)" fill="#7dd0f4"/>
          <rect id="Rectángulo_49878" data-name="Rectángulo 49878" width="4.686" height="7.1" transform="translate(8.524 77.503) rotate(-89.998)" fill="#7dd0f4"/>
          <rect id="Rectángulo_49879" data-name="Rectángulo 49879" width="4.686" height="49.33" transform="translate(18.916 85.71) rotate(-89.998)" fill="#7dd0f4"/>
          <rect id="Rectángulo_49880" data-name="Rectángulo 49880" width="4.686" height="7.1" transform="translate(8.488 85.336) rotate(-89.998)" fill="#7dd0f4"/>
          <rect id="Rectángulo_49881" data-name="Rectángulo 49881" width="4.686" height="49.33" transform="translate(18.735 93.53) rotate(-89.998)" fill="#7dd0f4"/>
          <rect id="Rectángulo_49882" data-name="Rectángulo 49882" width="4.686" height="7.1" transform="translate(8.066 93.156) rotate(-89.998)" fill="#7dd0f4"/>
          <rect id="Rectángulo_49883" data-name="Rectángulo 49883" width="4.686" height="49.33" transform="translate(19.289 109.673) rotate(-89.998)" fill="#7dd0f4"/>
          <rect id="Rectángulo_49884" data-name="Rectángulo 49884" width="4.686" height="7.1" transform="translate(8.848 109.299) rotate(-89.998)" fill="#7dd0f4"/>
          <rect id="Rectángulo_49885" data-name="Rectángulo 49885" width="4.686" height="49.33" transform="translate(18.899 117.506) rotate(-89.998)" fill="#7dd0f4"/>
          <rect id="Rectángulo_49886" data-name="Rectángulo 49886" width="4.686" height="7.1" transform="translate(8.472 117.132) rotate(-89.998)" fill="#7dd0f4"/>
        </g>
        <g id="Grupo_91106" data-name="Grupo 91106" transform="translate(120.602 15.654)">
          <rect id="Rectángulo_49887" data-name="Rectángulo 49887" width="4.75" height="49.242" transform="translate(39.271 92.051) rotate(-89.997)" fill="#7dd0f4"/>
          <rect id="Rectángulo_49888" data-name="Rectángulo 49888" width="4.75" height="79.894" transform="translate(19.24 84.113) rotate(-89.997)" fill="#7dd0f4"/>
          <rect id="Rectángulo_49889" data-name="Rectángulo 49889" width="4.75" height="64.042" transform="translate(44.791 76.184) rotate(-89.997)" fill="#7dd0f4"/>
          <rect id="Rectángulo_49890" data-name="Rectángulo 49890" width="4.75" height="36.519" transform="translate(44.791 68.251) rotate(-89.997)" fill="#7dd0f4"/>
          <rect id="Rectángulo_49891" data-name="Rectángulo 49891" width="4.75" height="63.963" transform="translate(45.64 60.305) rotate(-89.997)" fill="#7dd0f4"/>
          <rect id="Rectángulo_49892" data-name="Rectángulo 49892" width="4.75" height="54.049" transform="translate(39.914 52.377) rotate(-89.998)" fill="#7dd0f4"/>
          <rect id="Rectángulo_49893" data-name="Rectángulo 49893" width="4.75" height="57.708" transform="translate(19.241 44.428) rotate(-89.997)" fill="#7dd0f4"/>
          <rect id="Rectángulo_49894" data-name="Rectángulo 49894" width="4.75" height="65.84" transform="translate(45.002 36.496) rotate(-89.997)" fill="#7dd0f4"/>
          <rect id="Rectángulo_49895" data-name="Rectángulo 49895" width="4.75" height="66.656" transform="translate(45.002 28.559) rotate(-89.997)" fill="#7dd0f4"/>
          <rect id="Rectángulo_49896" data-name="Rectángulo 49896" width="4.75" height="65.665" transform="translate(45.64 20.623) rotate(-89.997)" fill="#7dd0f4"/>
          <rect id="Rectángulo_49897" data-name="Rectángulo 49897" width="4.75" height="53.794" transform="translate(33.752 12.686) rotate(-89.997)" fill="#7dd0f4"/>
          <rect id="Rectángulo_49898" data-name="Rectángulo 49898" width="4.75" height="13.949" transform="translate(0 36.297) rotate(-89.997)" fill="#7dd0f4"/>
          <rect id="Rectángulo_49899" data-name="Rectángulo 49899" width="4.75" height="13.949" transform="translate(0 44.46) rotate(-89.997)" fill="#7dd0f4"/>
          <rect id="Rectángulo_49900" data-name="Rectángulo 49900" width="4.75" height="13.949" transform="translate(0 52.29) rotate(-89.997)" fill="#7dd0f4"/>
          <rect id="Rectángulo_49901" data-name="Rectángulo 49901" width="4.75" height="13.949" transform="translate(0 60.255) rotate(-89.997)" fill="#7dd0f4"/>
          <rect id="Rectángulo_49902" data-name="Rectángulo 49902" width="4.75" height="13.949" transform="translate(0 68.418) rotate(-89.997)" fill="#7dd0f4"/>
          <rect id="Rectángulo_49903" data-name="Rectángulo 49903" width="4.75" height="13.949" transform="translate(0 76.248) rotate(-89.997)" fill="#7dd0f4"/>
          <rect id="Rectángulo_49904" data-name="Rectángulo 49904" width="4.75" height="13.949" transform="translate(0.708 84.053) rotate(-89.997)" fill="#7dd0f4"/>
          <rect id="Rectángulo_49905" data-name="Rectángulo 49905" width="4.75" height="13.949" transform="translate(0.708 92.216) rotate(-89.997)" fill="#7dd0f4"/>
          <rect id="Rectángulo_49906" data-name="Rectángulo 49906" width="4.75" height="13.949" transform="translate(0.708 100.046) rotate(-89.997)" fill="#7dd0f4"/>
          <rect id="Rectángulo_49907" data-name="Rectángulo 49907" width="4.75" height="13.949" transform="translate(0.708 108.033) rotate(-89.997)" fill="#7dd0f4"/>
          <rect id="Rectángulo_49908" data-name="Rectángulo 49908" width="4.75" height="13.949" transform="translate(0.708 116.196) rotate(-89.997)" fill="#7dd0f4"/>
          <rect id="Rectángulo_49909" data-name="Rectángulo 49909" width="4.75" height="13.949" transform="translate(0 28.558) rotate(-89.997)" fill="#7dd0f4"/>
          <rect id="Rectángulo_49910" data-name="Rectángulo 49910" width="4.75" height="13.949" transform="translate(0 20.627) rotate(-89.997)" fill="#7dd0f4"/>
          <rect id="Rectángulo_49911" data-name="Rectángulo 49911" width="4.75" height="13.949" transform="translate(0 12.686) rotate(-89.997)" fill="#7dd0f4"/>
          <rect id="Rectángulo_49912" data-name="Rectángulo 49912" width="4.75" height="13.949" transform="translate(0 4.75) rotate(-89.997)" fill="#7dd0f4"/>
          <path id="Trazado_143745" data-name="Trazado 143745" d="M-1869.553,1425.307v4.749l66.894,0a4.782,4.782,0,0,0-4.814-4.751Z" transform="translate(1888.797 -1425.307)" fill="#7dd0f4"/>
          <rect id="Rectángulo_49913" data-name="Rectángulo 49913" width="4.75" height="67.456" transform="translate(45.427 116.507) rotate(-89.997)" fill="#7dd0f4"/>
          <rect id="Rectángulo_49914" data-name="Rectángulo 49914" width="4.75" height="66.231" transform="translate(45.427 108.329) rotate(-89.997)" fill="#7dd0f4"/>
          <path id="Trazado_143746" data-name="Trazado 143746" d="M-1852.141,1488.991l0,4.751h42.12c0-2.624-1.356-4.751-3.032-4.751Z" transform="translate(1897.569 -1393.22)" fill="#7dd0f4"/>
        </g>
        <rect id="Rectángulo_49915" data-name="Rectángulo 49915" width="1.364" height="122.953" rx="0.428" transform="translate(113.562 12.399)" fill="#7dd0f4"/>
      </g>
      <g id="Grupo_91108" data-name="Grupo 91108" transform="translate(4.616 28.769)">
        <path id="Trazado_143747" data-name="Trazado 143747" d="M-1856.726,1388.282a.826.826,0,0,1-.8-.815c-.081-4.561-1.487-27.212-21.189-31.945-21.935-5.27-31.973,17.314-31.973,17.314s-27.14-10.539-32.346,17.691c-17.016,4.134-21.437,26.635-10.369,37.629a9.451,9.451,0,0,0,6.579,2.756l106.573.971a7.027,7.027,0,0,0,6.79-5.08C-1830.135,1415.429-1825.771,1389.016-1856.726,1388.282Z" transform="translate(1959.476 -1354.725)" fill="#91e8fa"/>
        <path id="Trazado_143748" data-name="Trazado 143748" d="M-1860.206,1387.861a.826.826,0,0,1-.8-.814c-.087-4.375-1.48-25.378-20.036-29.781-20.741-4.921-30.233,16.17-30.233,16.17s-25.663-9.843-30.584,16.52c-15.938,3.824-20.191,24.472-10.1,34.843a9.464,9.464,0,0,0,6.7,2.874l100.323.9a7.029,7.029,0,0,0,6.8-5.1C-1835.018,1412.672-1831.3,1388.56-1860.206,1387.861Z" transform="translate(1960.519 -1353.819)" fill="#bdeffb"/>
      </g>
      <g id="Grupo_91118" data-name="Grupo 91118" transform="translate(140.17 157.043)">
        <g id="Grupo_91109" data-name="Grupo 91109" transform="translate(73.203 90.645)">
          <path id="Trazado_143749" data-name="Trazado 143749" d="M-1796.293,1504.757c.911,1.347,4.528,31.844,5.095,43.108a1.333,1.333,0,0,1-1.334,1.4h0a1.335,1.335,0,0,1-1.319-1.129l-6.617-42.405Z" transform="translate(1830.833 -1498.051)" fill="#7dd0f4"/>
          <path id="Trazado_143750" data-name="Trazado 143750" d="M-1815.327,1504.757c-.91,1.347-4.528,31.844-5.094,43.108a1.332,1.332,0,0,0,1.334,1.4h0a1.336,1.336,0,0,0,1.319-1.129l6.617-42.405Z" transform="translate(1820.779 -1498.051)" fill="#7dd0f4"/>
          <path id="Trazado_143751" data-name="Trazado 143751" d="M-1780.647,1504.623l0,.332a4.535,4.535,0,0,1-4.62,4.4l-30.585.52a4.575,4.575,0,0,1-4.788-4.151l-.017-.305a4.518,4.518,0,0,1,4.611-4.573l30.6-.549A4.556,4.556,0,0,1-1780.647,1504.623Z" transform="translate(1820.66 -1500.297)" fill="#7dd0f4"/>
        </g>
        <g id="Grupo_91113" data-name="Grupo 91113" transform="translate(9.939)">
          <g id="Grupo_91110" data-name="Grupo 91110" transform="translate(30.515 133.795)">
            <path id="Trazado_143752" data-name="Trazado 143752" d="M-1829.178,1532.984c5.438,0,7.844-.466,8.919-.892a2.063,2.063,0,0,1-2.009,1.6H-1841.5a.936.936,0,0,1-.9-1.182C-1840.213,1532.685-1835.555,1532.984-1829.178,1532.984Z" transform="translate(1842.437 -1527.428)" fill="url(#linear-gradient-18)"/>
            <path id="Trazado_143753" data-name="Trazado 143753" d="M-1842.415,1534.071a.91.91,0,0,1,.156-.328c1.466-1.871,4.409-4.808,8.413-4.752,5.865.083,7.91.719,12.468.036l1.075,3.564a2.045,2.045,0,0,1,.033,1.063c-1.075.426-3.481.892-8.919.892C-1835.567,1534.547-1840.224,1534.247-1842.415,1534.071Z" transform="translate(1842.448 -1528.991)" fill="url(#linear-gradient-19)"/>
          </g>
          <path id="Trazado_143754" data-name="Trazado 143754" d="M-1827.736,1526.461l1.32,4.489a7.765,7.765,0,0,1-5.5.263l-.5-3.889Z" transform="translate(1878.001 -1396.47)" fill="url(#linear-gradient-20)"/>
          <g id="Grupo_91111" data-name="Grupo 91111" transform="translate(0 127.307)">
            <path id="Trazado_143755" data-name="Trazado 143755" d="M-1852.329,1533.7c4.238,3.406,6.4,4.551,7.507,4.895a2.061,2.061,0,0,1-2.562-.02l-14.993-12.047a.932.932,0,0,1,.033-1.481C-1860.746,1526.561-1857.3,1529.71-1852.329,1533.7Z" transform="translate(1862.728 -1524.487)" fill="url(#linear-gradient-21)"/>
            <path id="Trazado_143756" data-name="Trazado 143756" d="M-1862.473,1525.24a.9.9,0,0,1,.326-.156c2.308-.532,6.435-.969,9.521,1.583,4.521,3.737,5.718,5.512,9.7,7.837l-1.383,3.439a2.026,2.026,0,0,1-.638.845c-1.1-.344-3.269-1.489-7.507-4.9C-1857.431,1529.9-1860.874,1526.75-1862.473,1525.24Z" transform="translate(1862.856 -1524.676)" fill="url(#linear-gradient-22)"/>
          </g>
          <path id="Trazado_143757" data-name="Trazado 143757" d="M-1796.712,1492.452s-32.552,2.657-39.231,5.8,5.45,47.2,5.45,47.2,1.818.875,5.863-.384c0,0-4.149-32.513-1.062-39.563l35.246-5.766Z" transform="translate(1875.213 -1413.605)" fill="url(#linear-gradient-23)"/>
          <path id="Trazado_143758" data-name="Trazado 143758" d="M-1844.926,1527.739c-.3.275-3.235,6.188-3.235,6.188s-3.263-.707-3.93-2.771l2.937-5.337Z" transform="translate(1868.088 -1396.793)" fill="url(#linear-gradient-24)"/>
          <path id="Trazado_143759" data-name="Trazado 143759" d="M-1770.629,1492.271a16.488,16.488,0,0,1,1.017,5.945,8.924,8.924,0,0,1-8.516,8.732l-38.482,1.755a1.846,1.846,0,0,0-1.7,1.387c-.9,3.5-5.325,14.24-26.931,35.672a1.741,1.741,0,0,1-2.155.235l-3.075-1.943a.708.708,0,0,1-.233-.957l22.406-38.262a8.677,8.677,0,0,1,5.269-3.907l32.8-8.384Z" transform="translate(1868.735 -1413.696)" fill="url(#linear-gradient-25)"/>
          <path id="Trazado_143760" data-name="Trazado 143760" d="M-1820.433,1452.527s4.122,7.289,8.325,10.82l-8.688,4.847s-1.958-7.716-6.431-9.975Z" transform="translate(1880.616 -1433.721)" fill="url(#linear-gradient-26)"/>
          <path id="Trazado_143761" data-name="Trazado 143761" d="M-1774.167,1509.352s-10.389,2.532-20.3,0c0,0-13.876-18.652-19.245-23.729,0,0-8.563,13.512-27.621,15.427l-1.063-2.375s15.174-6.994,19.845-17.743,6.546-15.33,10.8-18.133c2.647-1.748,4.232-2.94,5.05-3.591a1.36,1.36,0,0,1,1.556-.1C-1800.642,1461.857-1779.421,1476.391-1774.167,1509.352Z" transform="translate(1872.971 -1430.505)" fill="url(#linear-gradient-27)"/>
          <path id="Trazado_143762" data-name="Trazado 143762" d="M-1817.816,1470a41.211,41.211,0,0,1-5.134,9.1Z" transform="translate(1882.77 -1424.916)" fill="url(#linear-gradient-28)"/>
          <path id="Trazado_143763" data-name="Trazado 143763" d="M-1835.386,1485.25l-2.144-.571-6.515-1.508a3.015,3.015,0,0,0-2.289.385l-5.6,3.524,15.465-.026Z" transform="translate(1868.167 -1418.321)" fill="url(#linear-gradient-29)"/>
          <g id="Grupo_91112" data-name="Grupo 91112" transform="translate(48.261)">
            <path id="Trazado_143764" data-name="Trazado 143764" d="M-1825.261,1445.26s-4.006,6.659-4.7,10.341-1.811,5.982,2.379,7.294a9.194,9.194,0,0,0,10.525-3.785s3.815-5.287,3.435-7.708S-1825.261,1445.26-1825.261,1445.26Z" transform="translate(1830.637 -1437.383)" fill="url(#linear-gradient-30)"/>
            <path id="Trazado_143765" data-name="Trazado 143765" d="M-1818.764,1458.9l-.541-.072s2.836-4.286.98-5.349-9.42-3.672-10.734-6.651a5.175,5.175,0,0,1,2.911-6.794.294.294,0,0,1,.35.185l.134.361a.294.294,0,0,0,.545.017h0a.292.292,0,0,1,.532-.012c.4.893,1.618,2.417,5.256,3.6,5.161,1.672,8.376,4.274,7.981,7.942a.293.293,0,0,0,.419.3c.422-.187,1.062-.215,1.8.6,1.292,1.414.28,4.5-3.248,6.689a.294.294,0,0,0-.048.469c.528.453,1.271,1.46-1.116,2.358-2.442.919-3.775.608-4.266.411a.3.3,0,0,1-.18-.331l.627-3.214a.3.3,0,0,0-.25-.347Z" transform="translate(1831.227 -1440.022)" fill="url(#linear-gradient-31)"/>
            <path id="Trazado_143766" data-name="Trazado 143766" d="M-1822.5,1454.07s1.768-4.358,3.626-2.826-1.717,4.918-3.365,4.873Z" transform="translate(1834.738 -1434.532)" fill="url(#linear-gradient-32)"/>
          </g>
        </g>
        <g id="Grupo_91116" data-name="Grupo 91116" transform="translate(0 38.646)">
          <g id="Grupo_91114" data-name="Grupo 91114" transform="translate(14.101 30.163)">
            <path id="Trazado_143767" data-name="Trazado 143767" d="M-1825.367,1488.761h-.075l-33.041-.033a1.476,1.476,0,0,1-1.477-1.478,1.47,1.47,0,0,1,1.481-1.474l33.039.033a1.478,1.478,0,0,1,1.478,1.477A1.48,1.48,0,0,1-1825.367,1488.761Z" transform="translate(1859.96 -1485.777)" fill="url(#linear-gradient-33)"/>
          </g>
          <g id="Grupo_91115" data-name="Grupo 91115">
            <path id="Trazado_143768" data-name="Trazado 143768" d="M-1866.554,1466.51a.729.729,0,0,1,.033.068l13.9,29.973a1.476,1.476,0,0,1-.716,1.963,1.472,1.472,0,0,1-1.963-.72l-13.9-29.975a1.475,1.475,0,0,1,.718-1.961A1.477,1.477,0,0,1-1866.554,1466.51Z" transform="translate(1869.337 -1465.72)" fill="url(#linear-gradient-34)"/>
          </g>
        </g>
        <g id="Grupo_91117" data-name="Grupo 91117" transform="translate(5.475 70.928)">
          <path id="Trazado_143769" data-name="Trazado 143769" d="M-1845.926,1489.412c.144.6,13.93,52.3,17.425,65.411a2.369,2.369,0,0,1-2.268,2.994h0a2.353,2.353,0,0,1-2.278-1.8l-15.3-62.049Z" transform="translate(1874.435 -1486.065)" fill="#bdeffb"/>
          <path id="Trazado_143770" data-name="Trazado 143770" d="M-1845.893,1489.412c-.144.6-13.931,52.3-17.427,65.411a2.369,2.369,0,0,0,2.268,2.994h0a2.355,2.355,0,0,0,2.28-1.8l15.3-62.049Z" transform="translate(1866.853 -1486.065)" fill="#bdeffb"/>
          <path id="Trazado_143771" data-name="Trazado 143771" d="M-1852.141,1488.288h8.585v6.9a1.784,1.784,0,0,1-1.773,1.794h-1.177v15.488a1.35,1.35,0,0,1-1.343,1.358h0a1.349,1.349,0,0,1-1.341-1.358v-15.488h-.6a2.367,2.367,0,0,1-2.352-2.382Z" transform="translate(1872.526 -1486.631)" fill="#bdeffb"/>
          <path id="Trazado_143772" data-name="Trazado 143772" d="M-1815.613,1487.186h-47.944a1.473,1.473,0,0,0-1.422,1.116l-.669,2.624a1.483,1.483,0,0,0,1.432,1.859l49.194-.286a1.483,1.483,0,0,0,1.417-1.85l-.582-2.339A1.472,1.472,0,0,0-1815.613,1487.186Z" transform="translate(1865.697 -1487.186)" fill="#bdeffb"/>
        </g>
      </g>
    </g>
    <g id="Grupo_91128" data-name="Grupo 91128" transform="translate(-1966.853 1404.663)">
      <g id="Grupo_91120" data-name="Grupo 91120" transform="translate(17.479 56.818)">
        <path id="Trazado_143773" data-name="Trazado 143773" d="M-1933.491,1439.662c-17.592.517-21.74,4.638-21.74,4.638l9.865,12.279s17.088-2.269,28.293-13.11a30.166,30.166,0,0,1-5.741-6.781A23.253,23.253,0,0,1-1933.491,1439.662Z" transform="translate(1955.23 -1410.546)" fill="url(#linear-gradient-35)"/>
        <path id="Trazado_143774" data-name="Trazado 143774" d="M-1919.942,1419.76a.538.538,0,0,0-1.041-.09l-1.689,5a4.986,4.986,0,0,0-.063,2.987l1.092,2.674a4.8,4.8,0,0,1-.544,3.905,33.382,33.382,0,0,1-11.486,11.214,30.169,30.169,0,0,0,5.741,6.781,30.26,30.26,0,0,0,8.823-15.708,2.346,2.346,0,0,0,1.385-2.5Z" transform="translate(1966.091 -1419.304)" fill="url(#linear-gradient-36)"/>
      </g>
      <g id="Grupo_91125" data-name="Grupo 91125" transform="translate(44.744)">
        <circle id="Elipse_4573" data-name="Elipse 4573" cx="49.816" cy="49.816" r="49.816" fill="url(#linear-gradient-37)"/>
        <circle id="Elipse_4574" data-name="Elipse 4574" cx="44.841" cy="44.841" r="44.841" transform="translate(5.238 5.207)" fill="#fff"/>
        <g id="Grupo_91123" data-name="Grupo 91123" transform="translate(21.614 19.319)">
          <path id="Trazado_143775" data-name="Trazado 143775" d="M-1912.932,1397.245l-5.582-2.734a1.387,1.387,0,0,0-1.538.215l-.606.546-.98.883-.629.565a1.387,1.387,0,0,0-.375,1.507l2.137,5.838a2.734,2.734,0,0,0,1.984,1.756l3.773.826,24.5,27.208,1.412-1.272.98-.883,1.332-1.2-24.5-27.208-.4-3.865A2.74,2.74,0,0,0-1912.932,1397.245Z" transform="translate(1922.727 -1394.369)" fill="#91e8fa"/>
          <path id="Trazado_143776" data-name="Trazado 143776" d="M-1913.5,1397.383l-5.061-2.5a1.3,1.3,0,0,0-1.417.158l-.546.493-.883.8-.567.51a1.29,1.29,0,0,0-.305,1.391l1.94,5.275a2.489,2.489,0,0,0,1.8,1.583l3.415.743,22.1,24.535,1.254-1.129.884-.8,1.38-1.244-22.1-24.535-.448-3.4A2.457,2.457,0,0,0-1913.5,1397.383Z" transform="translate(1922.913 -1394.178)" fill="#7dd0f4"/>
          <g id="Grupo_91122" data-name="Grupo 91122" transform="translate(23.91 27.58)">
            <path id="Trazado_143777" data-name="Trazado 143777" d="M-1879.028,1429.718l-17.419-15.548-8.8,7.951,13.405,18.518a11.728,11.728,0,0,0,4.977,3.946l5.345,2.278a2.625,2.625,0,0,0,2.735-.387l3.657-3.295a2.627,2.627,0,0,0,.731-2.438l-.9-4.484A11.873,11.873,0,0,0-1879.028,1429.718Z" transform="translate(1907.626 -1411.972)" fill="url(#linear-gradient-38)"/>
            <path id="Rectángulo_49916" data-name="Rectángulo 49916" d="M.966,0H13.8a.966.966,0,0,1,.966.966V2.1a.965.965,0,0,1-.965.965H.965A.965.965,0,0,1,0,2.1V.966A.966.966,0,0,1,.966,0Z" transform="matrix(0.743, -0.669, 0.669, 0.743, 0, 9.879)" fill="url(#linear-gradient-39)"/>
            <g id="Grupo_91121" data-name="Grupo 91121" transform="translate(5.842 5.776)">
              <path id="Rectángulo_49917" data-name="Rectángulo 49917" d="M.825,0h.856a.826.826,0,0,1,.826.826V26.471a.826.826,0,0,1-.826.826H.825A.825.825,0,0,1,0,26.472V.825A.825.825,0,0,1,.825,0Z" transform="matrix(0.743, -0.669, 0.669, 0.743, 0, 5.588)" fill="url(#linear-gradient-40)"/>
              <rect id="Rectángulo_49918" data-name="Rectángulo 49918" width="2.507" height="27.297" rx="0.825" transform="matrix(0.743, -0.669, 0.669, 0.743, 4.343, 1.678)" fill="url(#linear-gradient-41)"/>
            </g>
          </g>
        </g>
        <g id="Grupo_91124" data-name="Grupo 91124" transform="translate(16.352 16.791)">
          <path id="Trazado_143778" data-name="Trazado 143778" d="M-1923.032,1434.359l-1.175,1.1c-2.018,1.88-2.626,4.505-1.358,5.865l1.507,1.617c1.268,1.361,3.929.938,5.948-.941l1.174-1.095c.078-.072.155-.147.229-.222l33.441-33.981-3.283-3.522-36.246,30.972C-1922.874,1434.216-1922.954,1434.287-1923.032,1434.359Zm1.618,1.552c1.519-1.415,3.432-1.832,4.272-.93s.292,2.781-1.227,4.2-3.432,1.831-4.273.929S-1922.933,1437.326-1921.414,1435.911Z" transform="translate(1926.226 -1387.403)" fill="url(#linear-gradient-42)"/>
          <path id="Trazado_143779" data-name="Trazado 143779" d="M-1888.278,1395.585l-6.82,6.357a2.135,2.135,0,0,0-.671,1.766l.319,3.388a2.139,2.139,0,0,0,1.781,1.91l3.357.555a2.133,2.133,0,0,0,1.807-.544l6.82-6.357a1.644,1.644,0,0,1,2.767,1.135,12.3,12.3,0,0,1-3.958,9.327c-4.9,4.57-11.841,3.891-16.238-.827s-4.587-11.685.317-16.257a12.307,12.307,0,0,1,9.581-3.293A1.645,1.645,0,0,1-1888.278,1395.585Z" transform="translate(1938.209 -1392.688)" fill="url(#linear-gradient-43)"/>
          <path id="Trazado_143780" data-name="Trazado 143780" d="M-1887.88,1396.011l-6.82,6.357a2.136,2.136,0,0,0-.671,1.766l.319,3.388a2.141,2.141,0,0,0,1.781,1.91l3.357.556a2.142,2.142,0,0,0,1.809-.546l6.818-6.357a1.646,1.646,0,0,1,2.769,1.137,12.311,12.311,0,0,1-3.958,9.325c-4.9,4.572-11.843,3.892-16.24-.826s-4.587-11.686.317-16.257a12.3,12.3,0,0,1,9.581-3.293A1.643,1.643,0,0,1-1887.88,1396.011Z" transform="translate(1938.409 -1392.472)" fill="url(#linear-gradient-44)"/>
          <path id="Trazado_143781" data-name="Trazado 143781" d="M-1922.714,1434.7l-1.176,1.1c-2.016,1.88-2.624,4.506-1.357,5.865l1.507,1.617c1.268,1.361,3.93.938,5.946-.942l1.176-1.095c.078-.072.153-.147.229-.223l33.441-33.981-3.283-3.522-36.245,30.972C-1922.557,1434.557-1922.636,1434.628-1922.714,1434.7Zm1.618,1.552c1.517-1.417,3.43-1.832,4.271-.929s.292,2.781-1.225,4.2-3.432,1.832-4.273.929S-1922.615,1437.667-1921.1,1436.252Z" transform="translate(1926.386 -1387.232)" fill="url(#linear-gradient-45)"/>
        </g>
      </g>
      <g id="Grupo_91127" data-name="Grupo 91127" transform="translate(0 51.011)">
        <path id="Trazado_143782" data-name="Trazado 143782" d="M-1922.038,1446.035c-6.882-5.919-18.9-7.588-25.809-8.053a6.247,6.247,0,0,0-6.494,4.718c-2.122,8.53-7.272,30.632-8.465,34.473-.977,3.15-1.277,6.366-1.944,8.3a2.929,2.929,0,0,0,1.5,3.348,101.432,101.432,0,0,0,15.637,4.287c.944.164,4.018-.558,3.911-1.51a6.121,6.121,0,0,1,0-2.787l14.533-27.65c11.029,9.764,19.726,9.792,26.053,6.668a50,50,0,0,1-3.344-10.055C-1916.386,1457.2-1922.038,1446.035-1922.038,1446.035Z" transform="translate(1967.858 -1404.094)" fill="url(#linear-gradient-46)"/>
        <path id="Trazado_143783" data-name="Trazado 143783" d="M-1910.125,1449.436l-2.022-2.146c-5.251,4.551-9.906,6.014-13.876,5.785a49.991,49.991,0,0,0,3.344,10.055C-1914.344,1459.017-1910.125,1449.436-1910.125,1449.436Z" transform="translate(1987.425 -1399.396)" fill="url(#linear-gradient-47)"/>
        <path id="Trazado_143784" data-name="Trazado 143784" d="M-1915.828,1451.172l9.949-.731,8.545-6.122c-1.4-.672-8.615,1.839-8.615,1.839s-7.871-.3-9.966-.065c-1.74.194-1.209,2.668-.979,3.5.047.17.081.271.081.271Z" transform="translate(1991.894 -1400.951)" fill="url(#linear-gradient-48)"/>
        <path id="Trazado_143785" data-name="Trazado 143785" d="M-1947,1429.2l-3.788,13.344s6.474,3.48,11.261,2.538l1.314-11.761Z" transform="translate(1974.948 -1408.508)" fill="url(#linear-gradient-49)"/>
        <g id="Grupo_91126" data-name="Grupo 91126" transform="translate(17.628)">
          <path id="Trazado_143786" data-name="Trazado 143786" d="M-1938.222,1421.241s4.561,7.3,5.4,11.356,2.119,6.587-2.493,8.119-8.954-.231-11.724-3.988c0,0-4.323-5.781-3.949-8.468S-1938.222,1421.241-1938.222,1421.241Z" transform="translate(1957.207 -1412.521)" fill="url(#linear-gradient-50)"/>
          <path id="Trazado_143787" data-name="Trazado 143787" d="M-1943.783,1436.474l.253-.159a.656.656,0,0,0,.183-.94c-.86-1.191-2.6-3.954-1.024-4.894,2.034-1.212,10.357-4.245,11.754-7.567a5.729,5.729,0,0,0-3.329-7.458.329.329,0,0,0-.406.2l-.141.4a.326.326,0,0,1-.6.027.323.323,0,0,0-.591,0c-.433,1-1.751,2.7-5.748,4.077-5.68,1.949-9.19,4.89-8.683,8.942a.326.326,0,0,1-.458.34c-.471-.2-1.179-.22-1.985.695-1.4,1.588-.224,4.99,3.722,7.343a.322.322,0,0,1,.062.517c-.575.51-1.378,1.639,1.281,2.588a8.384,8.384,0,0,0,5.351.357.323.323,0,0,0,.2-.426l-1.311-3.432a.326.326,0,0,1,.255-.438Z" transform="translate(1955.131 -1415.443)" fill="url(#linear-gradient-51)"/>
          <path id="Trazado_143788" data-name="Trazado 143788" d="M-1945.865,1431.062s-2.039-4.791-4.065-3.059,1.993,5.411,3.817,5.33Z" transform="translate(1957.471 -1409.304)" fill="url(#linear-gradient-52)"/>
        </g>
        <path id="Trazado_143789" data-name="Trazado 143789" d="M-1950.065,1528.4s-.645,3.656-.963,7.276a2.494,2.494,0,0,0,2.387,2.7c4.82.2,15.132.591,18.831.427a.812.812,0,0,0,.714-1.113,1.813,1.813,0,0,0-.929-.978l-17.032-7.829Z" transform="translate(1974.822 -1358.532)" fill="url(#linear-gradient-53)"/>
        <path id="Trazado_143790" data-name="Trazado 143790" d="M-1950.743,1527.192l.52,4.375s2.983,1.388,5.02-.176l-1.235-4.874Z" transform="translate(1974.97 -1359.478)" fill="url(#linear-gradient-54)"/>
        <path id="Trazado_143791" data-name="Trazado 143791" d="M-1945.951,1472.285c-.224,1.143-1.2,57,4.767,82.033a.848.848,0,0,1-.5.988,14.817,14.817,0,0,1-4.864.99,1.466,1.466,0,0,1-1.451-1.051c-1.707-5.808-9.886-34.907-10.953-62.7-1.192-31.06,0-1.057,0-1.057l.7-19.2Z" transform="translate(1970.569 -1386.804)" fill="url(#linear-gradient-55)"/>
        <path id="Trazado_143792" data-name="Trazado 143792" d="M-1962.73,1529.663a26.31,26.31,0,0,0-2.024,6.752,1.523,1.523,0,0,0,1.339,1.823c1.593.156,4.042.358,6,.344a1.517,1.517,0,0,0,1.5-1.693,12.789,12.789,0,0,0-2.987-7.017Z" transform="translate(1967.895 -1357.893)" fill="url(#linear-gradient-56)"/>
        <path id="Trazado_143793" data-name="Trazado 143793" d="M-1964.02,1526.008l1.214,6.616a4.275,4.275,0,0,0,3.57.245l-.579-7.118Z" transform="translate(1968.28 -1359.865)" fill="url(#linear-gradient-57)"/>
        <path id="Trazado_143794" data-name="Trazado 143794" d="M-1963.745,1469.555c-6.524,19.779-1.065,78.66.94,87.148a1.323,1.323,0,0,0,1.07,1.006,8.891,8.891,0,0,0,3.819-.153,1.214,1.214,0,0,0,.873-1.118c.268-6.862-.215-48.992,4.334-65.643a3.787,3.787,0,0,1,1.459-2.086l8.832-6.278.677-10.149Z" transform="translate(1966.853 -1388.178)" fill="url(#linear-gradient-58)"/>
      </g>
    </g>
  </g>
</svg>
