<svg xmlns="http://www.w3.org/2000/svg" width="400" height="202.371" viewBox="0 0 400 202.371">
  <g id="Grupo_89376" data-name="Grupo 89376" transform="translate(-234.873 -310.248)">
    <path id="Trazado_142205" data-name="Trazado 142205" d="M775.879,1250.719s14.988,3.143,14.231,5.9-16.449-4.706-16.449-4.706-11.569,10.347-13.179,15.621c0,0,16.9-2.39,15.486.091s-18.879,5.786-18.879,5.786-7.943,12.233-.972,17.612,12.319,3.571,13.623,1.811,6.358-14.422,7.859-13.417.593,10.595-2.844,14.729c0,0,15.091.119,17.283-7.022s-1.18-11.03.255-15.418,3.867-7.022,4.131-4.421-3.488,9.479-1.99,14.124,2.145,8.171,6.1,2.334,7.877-17.626,3.919-21.949l-.5-.541a2.8,2.8,0,0,1,.5.541c1.174-.892,5.179-1.3,8.2-1.485.5,0,1.206-.029,2.179-.106h0c.432-.016.784-.026,1.03-.032,6.558.082,15.781,5.3,15.781,5.3l.931-1.211a24.523,24.523,0,0,0-18.78-5.112,28.245,28.245,0,0,1-13.3-1.676s-1.787-15.114-13.483-13.252C787.007,1244.214,779.384,1246.422,775.879,1250.719Z" transform="translate(-436.964 -787.146)" fill="#d2e3fc"/>
    <path id="Trazado_142206" data-name="Trazado 142206" d="M1627.54,417.585c-3.993-14.743-28.871-10.136-28.871-10.136s-16.893,25.8-21.807,26.414S1587,408.985,1587,408.985c-9.521-.921-33.785,10.75-33.785,10.75s1.536,30.1-3.379,29.485,0-26.721,0-26.721c-9.214,2.764-17.814,13.514-17.814,13.514-10.75,17.507,12.285,30.407,12.285,30.407s.307,10.442-6.142,22.421h0a35.567,35.567,0,0,0-2.935,5.971h2.512q.308-1.011.682-1.95a.015.015,0,0,1,.005-.011l.011-.027c.172-.388.419-.94.728-1.613v0s0,0,0,0c.767-1.5,1.286-2.612,1.614-3.413a.034.034,0,0,0,0-.008c2.3-4.716,5.613-10.861,7.822-12.15a4.871,4.871,0,0,1-.537-1.152l.537,1.152c4.3,9.214,25.8,10.75,37.778,8.293s6.757-5.836.307-11.319-19.964-4.038-23.957-6.188,1.843-4.3,9.828-3.686,11.978,8.6,24.878,9.828,22.728-23.035,22.728-23.035c-8.907,2.764-24.878-2.15-25.492-5.221s23.035-2.764,26.721-3.685S1631.533,432.327,1627.54,417.585Z" transform="translate(-1091.013 -81.361)" fill="#dfebfd"/>
    <path id="Trazado_142207" data-name="Trazado 142207" d="M619.6,460.2c5.5-8.8,20.773-.908,20.773-.908s5.907,20.106,8.983,21.473-1.694-18.176-1.694-18.176c6.374,1.275,19.858,13.644,19.858,13.644s-6.925,19.274-3.608,19.842,5.261-17.379,5.261-17.379c5.449,3.612,8.925,12.3,8.925,12.3,3.545,13.5-13.977,17.358-13.977,17.358a33.3,33.3,0,0,0-.419,15.792h0a24.142,24.142,0,0,1,.734,4.461l-1.634-.495c0-.479-.02-.947-.06-1.4a.011.011,0,0,0,0-.008c0-.007,0-.013,0-.02-.035-.286-.088-.694-.156-1.193v0s0,0,0,0c-.2-1.128-.322-1.952-.378-2.538a.02.02,0,0,1,0-.005c-.567-3.52-1.512-8.169-2.7-9.442a3.31,3.31,0,0,0,.577-.643l-.577.643c-4.611,5.146-18.9,1.912-26.2-2.044s-3.246-5.126,2.029-7.422,13.78,1.3,16.8.692-.352-3.16-5.667-4.332-9.484,3.235-18.116,1.494S618.1,482.43,618.1,482.43c5.249,3.552,16.6,3.5,17.608,1.623s-14.438-6.333-16.654-7.658S614.1,469.005,619.6,460.2Z" transform="translate(-321.588 -122.895)" fill="#d2e3fc"/>
    <path id="Trazado_142208" data-name="Trazado 142208" d="M1228.914,459.15c-3.849-6.411-14.952-.919-14.952-.919s-4.512,14.407-6.745,15.353,1.452-13.071,1.452-13.071c-4.608.837-14.478,9.574-14.478,9.574s4.742,13.972,2.346,14.339-3.568-12.586-3.568-12.586c-3.971,2.532-6.586,8.744-6.586,8.744-2.726,9.681,9.846,12.682,9.846,12.682a23.989,23.989,0,0,1,.1,11.381h0a17.414,17.414,0,0,0-.585,3.2l1.183-.335c.007-.345.026-.682.061-1.009a.007.007,0,0,1,0-.006s0-.01,0-.014c.029-.206.072-.5.127-.857h0s0,0,0,0c.161-.81.257-1.4.3-1.823a.016.016,0,0,0,0,0c.453-2.528,1.193-5.865,2.062-6.767a2.381,2.381,0,0,1-.407-.471l.407.471c3.256,3.766,13.587,1.618,18.9-1.138s2.4-3.651-1.367-5.372-9.943.764-12.11.284.294-2.271,4.137-3.048,6.79,2.451,13.03,1.308,7.63-13.885,7.63-13.885c-3.826,2.491-12.005,2.309-12.7.944s10.481-4.377,12.094-5.3S1232.764,465.561,1228.914,459.15Z" transform="translate(-801.743 -122.895)" fill="#dfebfd"/>
    <path id="Trazado_142209" data-name="Trazado 142209" d="M263.227,1554.776c-.123.035-.28.069-.478.1C262.908,1554.842,263.066,1554.807,263.227,1554.776Z" transform="translate(-23.498 -1049.066)" fill="#95c38b"/>
    <g id="Grupo_89405" data-name="Grupo 89405" transform="translate(314.636 367.948)">
      <g id="Grupo_89376-2" data-name="Grupo 89376">
        <path id="Trazado_142210" data-name="Trazado 142210" d="M1224.138,984.27l-7.554,89.82s-.792,5.445,3.258,5.454c6.659.016,33.144,0,33.144,0s-5.012-1.134-4.951-3.684c.071-3.006,8.829-92.44,8.829-92.44Z" transform="translate(-1142.11 -935.393)" fill="#f7b208"/>
        <path id="Trazado_142211" data-name="Trazado 142211" d="M1266.818,1069.167c-1.31,0-26.606.083-33.091,0-2.826-.035-3.322-2.513-3.345-4.116a8.044,8.044,0,0,1,.086-1.337l.2-2.334.5-5.95.442-5.257.568-6.755.479-5.7,5.368-63.823,32.726-.849s-3.688,37.428-6.3,64.672c-.292,3.035-.569,5.946-.824,8.663q-.125,1.3-.24,2.541c-.242,2.578-.463,4.945-.656,7.035-.1,1.1-.195,2.125-.279,3.063-.333,3.674-.528,6.02-.531,6.467a3.756,3.756,0,0,0,.064.727C1262.521,1069.074,1266.326,1069.167,1266.818,1069.167Z" transform="translate(-1153.793 -926.646)" fill="#ffb600"/>
        <path id="Trazado_142212" data-name="Trazado 142212" d="M758.975,677.629l18.4,73.911,2.519,10.122,8.57,34.425H947.681L916.093,677.629Z" transform="translate(-756.424 -677.629)" fill="#ffb600"/>
        <path id="Trazado_142213" data-name="Trazado 142213" d="M745.286,677.629l-2.55.85,28.65,120.18,3.391-2.571Z" transform="translate(-742.736 -677.629)" fill="#ffb600"/>
        <path id="Trazado_142214" data-name="Trazado 142214" d="M925.153,1434.44H1083.39l4.37-2.571H928.544Z" transform="translate(-896.503 -1313.411)" fill="#f7b208"/>
        <rect id="Rectángulo_24147" data-name="Rectángulo 24147" width="34.261" height="1.628" transform="translate(118.479 144.185) rotate(180)" fill="#f1a34f"/>
        <path id="Trazado_142215" data-name="Trazado 142215" d="M939.968,774.259,914.133,679.2H759.364l-.39-1.566H916.093l25.749,96.419Z" transform="translate(-756.424 -677.629)" fill="#f1a34f"/>
        <path id="Trazado_142216" data-name="Trazado 142216" d="M1267.77,1448.235l-.177,1.244-32.22,6.509.442-5.257.211-2.5Z" transform="translate(-1158.001 -1327.206)" fill="#f7b208"/>
        <path id="Trazado_142217" data-name="Trazado 142217" d="M1266.823,1530.6c-1.31,0-26.606.083-33.09,0-2.826-.035-3.322-2.513-3.345-4.116l32.068-6.033c-.333,3.674-.528,6.02-.531,6.467a3.767,3.767,0,0,0,.064.727C1262.526,1530.509,1266.331,1530.6,1266.823,1530.6Z" transform="translate(-1153.798 -1388.081)" fill="#f7b208" opacity="0.4"/>
        <path id="Trazado_142218" data-name="Trazado 142218" d="M970.685,1223.122,900.743,1247.1l-8.57-34.426Z" transform="translate(-868.703 -1128.644)" fill="#feca2e"/>
        <path id="Trazado_142219" data-name="Trazado 142219" d="M758.973,677.629H916.092l25.493,95.2H782.674Z" transform="translate(-756.423 -677.629)" fill="#699dee"/>
      </g>
      <ellipse id="Elipse_4555" data-name="Elipse 4555" cx="3.837" cy="4.658" rx="3.837" ry="4.658" transform="translate(105.614 106.949) rotate(-47.777)" fill="#f7b208"/>
      <path id="Trazado_142220" data-name="Trazado 142220" d="M969.106,796.077H822l-16.66-66.368-1.277-5.09-1.09-4.341L800.413,710.1H945.4l2.806,10.179,1.2,4.341,1.4,5.09Z" transform="translate(-791.355 -704.999)" fill="#e4edf9"/>
      <path id="Trazado_142221" data-name="Trazado 142221" d="M948.21,720.278H802.968L800.413,710.1H945.4Z" transform="translate(-791.355 -704.999)" fill="#afcdfb"/>
      <g id="Grupo_89377" data-name="Grupo 89377" transform="translate(15.017 8.427)">
        <path id="Trazado_142222" data-name="Trazado 142222" d="M838.393,732.56a.962.962,0,0,1,.955-1.273,1.739,1.739,0,0,1,1.59,1.273.961.961,0,0,1-.955,1.272A1.738,1.738,0,0,1,838.393,732.56Z" transform="translate(-838.353 -731.287)" fill="#e9f3fe"/>
        <path id="Trazado_142223" data-name="Trazado 142223" d="M865.313,732.56a.961.961,0,0,1,.955-1.273,1.738,1.738,0,0,1,1.59,1.273.961.961,0,0,1-.955,1.272A1.738,1.738,0,0,1,865.313,732.56Z" transform="translate(-861.046 -731.287)" fill="#e9f3fe"/>
        <path id="Trazado_142224" data-name="Trazado 142224" d="M894.3,732.56a.961.961,0,0,1,.955-1.273,1.738,1.738,0,0,1,1.59,1.273.961.961,0,0,1-.955,1.272A1.738,1.738,0,0,1,894.3,732.56Z" transform="translate(-885.481 -731.287)" fill="#e9f3fe"/>
      </g>
      <path id="Trazado_142225" data-name="Trazado 142225" d="M994.308,870.765H885.339l-16.583-65.077H976.188Z" transform="translate(-848.963 -785.575)" fill="#cae0ff"/>
      <path id="Trazado_142226" data-name="Trazado 142226" d="M1601.1,820.83h-24.7l-4.516-15.142h25Z" transform="translate(-1441.663 -785.575)" fill="#d2e3fc"/>
      <path id="Trazado_142227" data-name="Trazado 142227" d="M1254.684,834.348h-14.131l-.582-2.179H1254.1Z" transform="translate(-1161.877 -807.897)" fill="#1c468a"/>
      <path id="Trazado_142228" data-name="Trazado 142228" d="M1365.974,834.348h-23.118l-.582-2.179h23.118Z" transform="translate(-1248.114 -807.897)" fill="#78acea"/>
      <path id="Trazado_142229" data-name="Trazado 142229" d="M1211.144,871.724h-25.061l-.581-2.179h25.061Z" transform="translate(-1115.962 -839.404)" fill="#78acea"/>
      <path id="Trazado_142230" data-name="Trazado 142230" d="M1372.993,871.724H1360l-.582-2.179h12.99Z" transform="translate(-1262.567 -839.404)" fill="#f1a34f"/>
      <path id="Trazado_142231" data-name="Trazado 142231" d="M1281.835,936.073H1267.7l-.582-2.179h14.131Z" transform="translate(-1184.764 -893.646)" fill="#699dee"/>
      <path id="Trazado_142232" data-name="Trazado 142232" d="M1393.125,936.073h-23.118l-.582-2.179h23.118Z" transform="translate(-1271 -893.646)" fill="#78acea"/>
      <path id="Trazado_142233" data-name="Trazado 142233" d="M1238.3,973.45h-25.061l-.582-2.179h25.061Z" transform="translate(-1138.849 -925.152)" fill="#fff"/>
      <path id="Trazado_142234" data-name="Trazado 142234" d="M1400.144,973.45h-12.989l-.582-2.179h12.99Z" transform="translate(-1285.454 -925.152)" fill="#fff"/>
      <path id="Trazado_142235" data-name="Trazado 142235" d="M1019.586,1031.3H971.777l-.581-2.179H1019Z" transform="translate(-935.314 -973.919)" fill="#1c468a"/>
      <path id="Trazado_142236" data-name="Trazado 142236" d="M1309.773,1031.3h-14.131l-.582-2.179h14.131Z" transform="translate(-1208.314 -973.919)" fill="#699dee"/>
      <path id="Trazado_142237" data-name="Trazado 142237" d="M1421.063,1031.3h-23.118l-.581-2.179h23.118Z" transform="translate(-1294.551 -973.919)" fill="#78acea"/>
      <path id="Trazado_142238" data-name="Trazado 142238" d="M995.883,1068.679H981.752l-.582-2.179H995.3Z" transform="translate(-943.723 -1005.425)" fill="#fff"/>
      <path id="Trazado_142239" data-name="Trazado 142239" d="M1266.233,1068.679h-25.061l-.581-2.179h25.061Z" transform="translate(-1162.399 -1005.425)" fill="#f1a34f"/>
      <path id="Trazado_142240" data-name="Trazado 142240" d="M1107.174,1068.679h-23.118l-.582-2.179h23.118Z" transform="translate(-1029.959 -1005.425)" fill="#78acea"/>
      <path id="Trazado_142241" data-name="Trazado 142241" d="M1428.082,1068.679h-12.99l-.582-2.179h12.99Z" transform="translate(-1309.005 -1005.425)" fill="#78acea"/>
      <path id="Trazado_142242" data-name="Trazado 142242" d="M1054.144,1134.487h-47.809l-.581-2.178h47.809Z" transform="translate(-964.444 -1060.898)" fill="#1c468a"/>
      <path id="Trazado_142243" data-name="Trazado 142243" d="M1344.331,1134.487H1330.2l-.582-2.178h14.131Z" transform="translate(-1237.445 -1060.898)" fill="#699dee"/>
      <path id="Trazado_142244" data-name="Trazado 142244" d="M1030.442,1171.864h-14.131l-.581-2.178h14.131Z" transform="translate(-972.854 -1092.405)" fill="#fff"/>
      <path id="Trazado_142245" data-name="Trazado 142245" d="M1300.792,1171.864h-25.061l-.582-2.178h25.061Z" transform="translate(-1191.53 -1092.405)" fill="#f1a34f"/>
      <path id="Trazado_142246" data-name="Trazado 142246" d="M1141.733,1171.864h-23.118l-.581-2.178h23.118Z" transform="translate(-1059.09 -1092.405)" fill="#78acea"/>
      <path id="Trazado_142247" data-name="Trazado 142247" d="M1462.641,1171.864h-12.989l-.582-2.178h12.99Z" transform="translate(-1338.135 -1092.405)" fill="#78acea"/>
      <g id="Grupo_89378" data-name="Grupo 89378" transform="translate(136.032 38.909)">
        <path id="Trazado_142248" data-name="Trazado 142248" d="M1619.978,926.629l-10.869.033-.241-.987,10.869-.033Z" transform="translate(-1608.868 -925.599)" fill="#78acea"/>
        <path id="Trazado_142249" data-name="Trazado 142249" d="M1692.874,926.516l-4.087.013-.241-.987,4.087-.013Z" transform="translate(-1676.033 -925.504)" fill="#78acea"/>
        <path id="Trazado_142250" data-name="Trazado 142250" d="M1728.786,926.354l-7.223.022-.241-.987,7.223-.022Z" transform="translate(-1703.661 -925.367)" fill="#78acea"/>
        <path id="Trazado_142251" data-name="Trazado 142251" d="M1618.942,942.617l-5.959.018-.241-.987,5.959-.018Z" transform="translate(-1612.134 -939.076)" fill="#78acea"/>
        <path id="Trazado_142252" data-name="Trazado 142252" d="M1664.942,942.447l-7.695.024-.241-.987,7.7-.024Z" transform="translate(-1649.446 -938.932)" fill="#78acea"/>
        <path id="Trazado_142253" data-name="Trazado 142253" d="M1724.095,942.246l-8.819.027-.241-.987,8.819-.027Z" transform="translate(-1698.361 -938.763)" fill="#78acea"/>
      </g>
      <g id="Grupo_89379" data-name="Grupo 89379" transform="translate(137.332 44.242)">
        <path id="Trazado_142254" data-name="Trazado 142254" d="M1628.254,960.583l-10.869.034-.241-.987,10.869-.033Z" transform="translate(-1617.145 -959.553)" fill="#78acea"/>
        <path id="Trazado_142255" data-name="Trazado 142255" d="M1701.151,960.47l-4.087.013-.241-.987,4.087-.013Z" transform="translate(-1684.309 -959.458)" fill="#78acea"/>
        <path id="Trazado_142256" data-name="Trazado 142256" d="M1737.063,960.309l-7.223.022-.241-.987,7.223-.022Z" transform="translate(-1711.938 -959.321)" fill="#78acea"/>
        <path id="Trazado_142257" data-name="Trazado 142257" d="M1627.218,976.572l-5.959.018-.241-.987,5.959-.018Z" transform="translate(-1620.41 -973.03)" fill="#78acea"/>
        <path id="Trazado_142258" data-name="Trazado 142258" d="M1673.217,976.4l-7.695.024-.241-.987,7.7-.024Z" transform="translate(-1657.721 -972.886)" fill="#78acea"/>
        <path id="Trazado_142259" data-name="Trazado 142259" d="M1732.372,976.2l-8.819.027-.24-.987,8.819-.027Z" transform="translate(-1706.638 -972.717)" fill="#78acea"/>
      </g>
      <g id="Grupo_89380" data-name="Grupo 89380" transform="translate(133.228 21.594)">
        <path id="Trazado_142260" data-name="Trazado 142260" d="M1597.7,815.881l-6.545.02-.145-.594,6.545-.02Z" transform="translate(-1591.014 -815.261)" fill="#fff"/>
        <path id="Trazado_142261" data-name="Trazado 142261" d="M1641.6,815.813l-2.461.008-.145-.594,2.461-.008Z" transform="translate(-1631.459 -815.203)" fill="#fff"/>
        <path id="Trazado_142262" data-name="Trazado 142262" d="M1663.227,815.715l-4.35.013-.145-.594,4.349-.013Z" transform="translate(-1648.097 -815.121)" fill="#fff"/>
        <path id="Trazado_142263" data-name="Trazado 142263" d="M1597.079,825.509l-3.588.011-.145-.594,3.588-.011Z" transform="translate(-1592.979 -823.376)" fill="#fff"/>
        <path id="Trazado_142264" data-name="Trazado 142264" d="M1624.78,825.406l-4.634.014-.145-.594,4.634-.014Z" transform="translate(-1615.448 -823.29)" fill="#fff"/>
        <path id="Trazado_142265" data-name="Trazado 142265" d="M1660.4,825.285l-5.311.016-.145-.594,5.311-.016Z" transform="translate(-1644.905 -823.187)" fill="#fff"/>
      </g>
      <g id="Grupo_89381" data-name="Grupo 89381" transform="translate(134.01 24.805)">
        <path id="Trazado_142266" data-name="Trazado 142266" d="M1602.687,836.328l-6.545.02-.145-.594,6.545-.02Z" transform="translate(-1595.997 -835.707)" fill="#fff"/>
        <path id="Trazado_142267" data-name="Trazado 142267" d="M1646.585,836.26l-2.461.008-.145-.594,2.461-.008Z" transform="translate(-1636.443 -835.65)" fill="#fff"/>
        <path id="Trazado_142268" data-name="Trazado 142268" d="M1668.211,836.162l-4.35.013-.145-.594,4.35-.013Z" transform="translate(-1653.081 -835.568)" fill="#fff"/>
        <path id="Trazado_142269" data-name="Trazado 142269" d="M1602.063,845.956l-3.589.011-.144-.594,3.588-.011Z" transform="translate(-1597.964 -843.823)" fill="#fff"/>
        <path id="Trazado_142270" data-name="Trazado 142270" d="M1629.764,845.853l-4.634.014-.145-.595,4.634-.014Z" transform="translate(-1620.433 -843.737)" fill="#fff"/>
        <path id="Trazado_142271" data-name="Trazado 142271" d="M1665.386,845.732l-5.311.016-.145-.594,5.311-.016Z" transform="translate(-1649.889 -843.635)" fill="#fff"/>
      </g>
      <g id="Grupo_89382" data-name="Grupo 89382" transform="translate(139.553 53.353)">
        <path id="Trazado_142272" data-name="Trazado 142272" d="M1642.395,1018.6l-10.869.033-.241-.987,10.869-.033Z" transform="translate(-1631.285 -1017.568)" fill="#78acea"/>
        <path id="Trazado_142273" data-name="Trazado 142273" d="M1715.291,1018.486l-4.087.013-.241-.987,4.087-.013Z" transform="translate(-1698.45 -1017.473)" fill="#78acea"/>
        <path id="Trazado_142274" data-name="Trazado 142274" d="M1751.2,1018.323l-7.223.022-.241-.987,7.223-.022Z" transform="translate(-1726.078 -1017.336)" fill="#78acea"/>
        <path id="Trazado_142275" data-name="Trazado 142275" d="M1641.359,1034.587l-5.959.018-.241-.987,5.959-.018Z" transform="translate(-1634.551 -1031.045)" fill="#78acea"/>
        <path id="Trazado_142276" data-name="Trazado 142276" d="M1687.359,1034.416l-7.7.024-.241-.987,7.7-.024Z" transform="translate(-1671.862 -1030.901)" fill="#78acea"/>
        <path id="Trazado_142277" data-name="Trazado 142277" d="M1746.513,1034.216l-8.819.027-.241-.987,8.819-.027Z" transform="translate(-1720.779 -1030.733)" fill="#78acea"/>
      </g>
      <g id="Grupo_89383" data-name="Grupo 89383" transform="translate(141.73 62.284)">
        <path id="Trazado_142278" data-name="Trazado 142278" d="M1656.255,1075.46l-10.869.033-.241-.987,10.869-.033Z" transform="translate(-1645.146 -1074.43)" fill="#78acea"/>
        <path id="Trazado_142279" data-name="Trazado 142279" d="M1729.152,1075.347l-4.087.012-.24-.987,4.087-.012Z" transform="translate(-1712.31 -1074.334)" fill="#78acea"/>
        <path id="Trazado_142280" data-name="Trazado 142280" d="M1765.064,1075.184l-7.223.022-.241-.987,7.223-.022Z" transform="translate(-1739.938 -1074.197)" fill="#78acea"/>
        <path id="Trazado_142281" data-name="Trazado 142281" d="M1655.219,1091.448l-5.959.018-.24-.987,5.959-.018Z" transform="translate(-1648.411 -1087.906)" fill="#78acea"/>
        <path id="Trazado_142282" data-name="Trazado 142282" d="M1701.219,1091.277l-7.7.024-.241-.987,7.7-.024Z" transform="translate(-1685.723 -1087.763)" fill="#78acea"/>
        <path id="Trazado_142283" data-name="Trazado 142283" d="M1760.372,1091.076l-8.819.027-.241-.987,8.819-.027Z" transform="translate(-1734.638 -1087.593)" fill="#78acea"/>
      </g>
      <g id="Grupo_89384" data-name="Grupo 89384" transform="translate(143.691 70.33)">
        <path id="Trazado_142284" data-name="Trazado 142284" d="M1668.742,1126.688l-10.869.033-.241-.987,10.869-.034Z" transform="translate(-1657.633 -1125.658)" fill="#78acea"/>
        <path id="Trazado_142285" data-name="Trazado 142285" d="M1741.638,1126.576l-4.087.013-.241-.987,4.087-.012Z" transform="translate(-1724.797 -1125.563)" fill="#78acea"/>
        <path id="Trazado_142286" data-name="Trazado 142286" d="M1777.551,1126.413l-7.223.022-.241-.987,7.223-.022Z" transform="translate(-1752.425 -1125.426)" fill="#78acea"/>
        <path id="Trazado_142287" data-name="Trazado 142287" d="M1667.705,1142.676l-5.959.019-.241-.987,5.959-.018Z" transform="translate(-1660.897 -1139.135)" fill="#78acea"/>
        <path id="Trazado_142288" data-name="Trazado 142288" d="M1713.706,1142.505l-7.7.024-.241-.987,7.7-.024Z" transform="translate(-1698.209 -1138.991)" fill="#78acea"/>
        <path id="Trazado_142289" data-name="Trazado 142289" d="M1772.859,1142.3l-8.819.027-.241-.987,8.819-.027Z" transform="translate(-1747.125 -1138.822)" fill="#78acea"/>
      </g>
      <g id="Grupo_89391" data-name="Grupo 89391" transform="translate(155.696 76.992)">
        <g id="Grupo_89387" data-name="Grupo 89387">
          <g id="Grupo_89385" data-name="Grupo 89385">
            <path id="Trazado_142290" data-name="Trazado 142290" d="M1738.3,1174.179a4.576,4.576,0,0,1-4.093-3.168,2.3,2.3,0,0,1,2.243-3.168,4.576,4.576,0,0,1,4.093,3.168A2.3,2.3,0,0,1,1738.3,1174.179Zm-1.68-5.757a1.876,1.876,0,0,0-1.834,2.589,3.74,3.74,0,0,0,3.345,2.589,1.876,1.876,0,0,0,1.833-2.589A3.74,3.74,0,0,0,1736.615,1168.422Z" transform="translate(-1734.07 -1167.844)" fill="#a8d29f"/>
          </g>
          <g id="Grupo_89386" data-name="Grupo 89386" transform="translate(1.323 1.86)">
            <path id="Trazado_142291" data-name="Trazado 142291" d="M1744.877,1182.6a.66.66,0,0,1-.356-.148l-1.777-1.423a.52.52,0,0,1-.184-.681.485.485,0,0,1,.686.015l1.256,1.006.644-1.489c.093-.215.38-.263.642-.107a.585.585,0,0,1,.3.673l-.846,1.957a.338.338,0,0,1-.3.2A.5.5,0,0,1,1744.877,1182.6Z" transform="translate(-1742.493 -1179.686)" fill="#a8d29f"/>
          </g>
        </g>
        <g id="Grupo_89390" data-name="Grupo 89390" transform="translate(8.745)">
          <g id="Grupo_89388" data-name="Grupo 89388">
            <path id="Trazado_142292" data-name="Trazado 142292" d="M1793.973,1174.179a4.575,4.575,0,0,1-4.092-3.168,2.3,2.3,0,0,1,2.243-3.168,4.576,4.576,0,0,1,4.093,3.168A2.3,2.3,0,0,1,1793.973,1174.179Zm-1.68-5.757a1.876,1.876,0,0,0-1.834,2.589,3.74,3.74,0,0,0,3.345,2.589,1.876,1.876,0,0,0,1.833-2.589A3.739,3.739,0,0,0,1792.293,1168.422Z" transform="translate(-1789.748 -1167.844)" fill="#f1a34f"/>
          </g>
          <g id="Grupo_89389" data-name="Grupo 89389" transform="translate(2.461 1.444)">
            <path id="Trazado_142293" data-name="Trazado 142293" d="M1806.41,1179.281h0a.649.649,0,0,1-.579-.448l-.393-1.346a.325.325,0,0,1,.317-.448h0a.648.648,0,0,1,.579.448l.393,1.346A.325.325,0,0,1,1806.41,1179.281Z" transform="translate(-1805.42 -1177.039)" fill="#f1a34f"/>
            <path id="Trazado_142294" data-name="Trazado 142294" d="M1810.617,1193.748h-.1a.578.578,0,0,1-.516-.4h0a.29.29,0,0,1,.283-.4h.1a.579.579,0,0,1,.516.4h0A.29.29,0,0,1,1810.617,1193.748Z" transform="translate(-1809.27 -1190.45)" fill="#f1a34f"/>
          </g>
        </g>
      </g>
      <g id="Grupo_89404" data-name="Grupo 89404" transform="translate(137.743 30.323)">
        <g id="Grupo_89394" data-name="Grupo 89394" transform="translate(10.117)">
          <g id="Grupo_89392" data-name="Grupo 89392">
            <path id="Trazado_142295" data-name="Trazado 142295" d="M1686.5,874.171a2.508,2.508,0,0,1-2.244-1.737,1.258,1.258,0,0,1,1.229-1.737,2.509,2.509,0,0,1,2.244,1.737A1.259,1.259,0,0,1,1686.5,874.171Zm-.921-3.156a1.029,1.029,0,0,0-1.005,1.419,2.05,2.05,0,0,0,1.834,1.42,1.029,1.029,0,0,0,1.005-1.42A2.05,2.05,0,0,0,1685.575,871.014Z" transform="translate(-1684.18 -870.697)" fill="#a8d29f"/>
          </g>
          <g id="Grupo_89393" data-name="Grupo 89393" transform="translate(0.725 1.02)">
            <path id="Trazado_142296" data-name="Trazado 142296" d="M1690.1,878.791a.36.36,0,0,1-.195-.081l-.974-.78a.285.285,0,0,1-.1-.374.266.266,0,0,1,.376.008l.688.551.353-.816c.051-.118.209-.144.352-.059a.321.321,0,0,1,.167.369l-.464,1.073a.184.184,0,0,1-.164.108Z" transform="translate(-1688.798 -877.19)" fill="#a8d29f"/>
          </g>
        </g>
        <g id="Grupo_89397" data-name="Grupo 89397" transform="translate(5.147)">
          <g id="Grupo_89395" data-name="Grupo 89395">
            <path id="Trazado_142297" data-name="Trazado 142297" d="M1654.856,874.171a2.509,2.509,0,0,1-2.244-1.737,1.259,1.259,0,0,1,1.23-1.737,2.508,2.508,0,0,1,2.244,1.737A1.258,1.258,0,0,1,1654.856,874.171Zm-.921-3.156a1.028,1.028,0,0,0-1,1.419,2.05,2.05,0,0,0,1.833,1.42,1.028,1.028,0,0,0,1.005-1.42A2.05,2.05,0,0,0,1653.934,871.014Z" transform="translate(-1652.539 -870.697)" fill="#a8d29f"/>
          </g>
          <g id="Grupo_89396" data-name="Grupo 89396" transform="translate(0.725 1.02)">
            <path id="Trazado_142298" data-name="Trazado 142298" d="M1658.464,878.791a.36.36,0,0,1-.195-.081l-.974-.78a.285.285,0,0,1-.1-.374.266.266,0,0,1,.376.008l.688.551.353-.816c.051-.118.209-.144.352-.059a.321.321,0,0,1,.167.369l-.464,1.073a.185.185,0,0,1-.164.108Z" transform="translate(-1657.157 -877.19)" fill="#a8d29f"/>
          </g>
        </g>
        <g id="Grupo_89400" data-name="Grupo 89400">
          <g id="Grupo_89398" data-name="Grupo 89398">
            <path id="Trazado_142299" data-name="Trazado 142299" d="M1622.081,874.171a2.509,2.509,0,0,1-2.244-1.737,1.259,1.259,0,0,1,1.23-1.737,2.509,2.509,0,0,1,2.244,1.737A1.259,1.259,0,0,1,1622.081,874.171Zm-.921-3.156a1.029,1.029,0,0,0-1.005,1.419,2.05,2.05,0,0,0,1.834,1.42,1.029,1.029,0,0,0,1.005-1.42A2.05,2.05,0,0,0,1621.16,871.014Z" transform="translate(-1619.765 -870.697)" fill="#a8d29f"/>
          </g>
          <g id="Grupo_89399" data-name="Grupo 89399" transform="translate(0.725 1.02)">
            <path id="Trazado_142300" data-name="Trazado 142300" d="M1625.69,878.791a.362.362,0,0,1-.195-.081l-.974-.78a.285.285,0,0,1-.1-.374.266.266,0,0,1,.376.008l.688.551.353-.816c.051-.118.209-.144.352-.059a.321.321,0,0,1,.167.369l-.464,1.073a.185.185,0,0,1-.164.108Z" transform="translate(-1624.383 -877.19)" fill="#a8d29f"/>
          </g>
        </g>
        <g id="Grupo_89403" data-name="Grupo 89403" transform="translate(14.911)">
          <g id="Grupo_89401" data-name="Grupo 89401">
            <path id="Trazado_142301" data-name="Trazado 142301" d="M1717.023,874.171a2.509,2.509,0,0,1-2.244-1.737,1.259,1.259,0,0,1,1.23-1.737,2.508,2.508,0,0,1,2.244,1.737A1.259,1.259,0,0,1,1717.023,874.171Zm-.921-3.156a1.029,1.029,0,0,0-1.005,1.419,2.05,2.05,0,0,0,1.834,1.42,1.029,1.029,0,0,0,1.005-1.42A2.05,2.05,0,0,0,1716.1,871.014Z" transform="translate(-1714.706 -870.697)" fill="#f1a34f"/>
          </g>
          <g id="Grupo_89402" data-name="Grupo 89402" transform="translate(1.349 0.792)">
            <path id="Trazado_142302" data-name="Trazado 142302" d="M1723.842,876.968h0a.356.356,0,0,1-.318-.246l-.215-.738a.178.178,0,0,1,.174-.246h0a.355.355,0,0,1,.317.246l.216.738A.178.178,0,0,1,1723.842,876.968Z" transform="translate(-1723.299 -875.739)" fill="#f1a34f"/>
            <path id="Trazado_142303" data-name="Trazado 142303" d="M1726.148,884.9h-.053a.318.318,0,0,1-.283-.219h0a.159.159,0,0,1,.155-.219h.053a.317.317,0,0,1,.283.219h0A.159.159,0,0,1,1726.148,884.9Z" transform="translate(-1725.409 -883.092)" fill="#f1a34f"/>
          </g>
        </g>
      </g>
    </g>
    <g id="Grupo_89409" data-name="Grupo 89409" transform="translate(264.106 406.096)">
      <g id="Grupo_89406" data-name="Grupo 89406" transform="translate(15.604 18.097)">
        <path id="Trazado_142304" data-name="Trazado 142304" d="M657.283,1199.137a10.027,10.027,0,0,0,4.282.171c1.664-.5,4.529.322,4.99.929s.292.848-.531,1.057-3.739,1.453-5.656.734a15.269,15.269,0,0,0-4.416-.746Z" transform="translate(-634.656 -1173.476)" fill="#e49963"/>
        <path id="Trazado_142305" data-name="Trazado 142305" d="M520.36,1038.671s2.941,20.9,7.811,22.775a107.352,107.352,0,0,0,16.164,3.228s.77-.624.582-3.166c0,0-11.127-4.085-12.707-6.306-2.352-3.306,1.461-13.506-1.491-16.612S522.8,1034.151,520.36,1038.671Z" transform="translate(-520.36 -1035.752)" fill="#4a75cb"/>
      </g>
      <rect id="Rectángulo_24148" data-name="Rectángulo 24148" width="4.067" height="35.596" rx="2.034" transform="translate(20.047 103.894) rotate(180)" fill="#2b478b"/>
      <path id="Trazado_142306" data-name="Trazado 142306" d="M455.785,1571.412c1.316-2.723,6.436-4.754,12.551-4.754s11.236,2.031,12.551,4.754Z" transform="translate(-450.323 -1465.178)" fill="#2b478b"/>
      <path id="Rectángulo_24149" data-name="Rectángulo 24149" d="M.717,0H18.4a.717.717,0,0,1,.717.717v0a.717.717,0,0,1-.717.717H.717A.717.717,0,0,1,0,.717v0A.717.717,0,0,1,.717,0Z" transform="translate(27.574 97) rotate(180)" fill="#2b478b"/>
      <path id="Trazado_142307" data-name="Trazado 142307" d="M506.517,1268.86a36.674,36.674,0,0,0,2.873,4.111c3.161,3.99,6.6,7.281,7.2,10.391a14.11,14.11,0,0,0,.556,1.991c.251.713.56,1.462.917,2.236a68.9,68.9,0,0,0,5.35,9.146c3.462,5.13,6.718,9.411,6.718,9.411l5.971-.255c-.239-.6-2.843-7.682-6.327-16.339l-4.37-10.857-.578-1.436c-.444-1.1-.88-2.189-1.307-3.247-3.271-8.128-5.876-14.6-5.876-14.6s-13.073-4.952-14.431-1.743C502.094,1260.315,503.006,1262.907,506.517,1268.86Z" transform="translate(-489.922 -1203.806)" fill="#163560"/>
      <path id="Trazado_142308" data-name="Trazado 142308" d="M678.219,1556.716s.306,4.927,1.259,5c.127.01,4.835.01,4.835.01l6.01-.035a1.95,1.95,0,0,0-1.8-1.754c-1.757-.306-4.7-1.541-5.761-3.862C681.645,1553.629,678.219,1556.716,678.219,1556.716Z" transform="translate(-637.822 -1455.462)" fill="#163560"/>
      <path id="Trazado_142309" data-name="Trazado 142309" d="M569.917,1475.6s-4.153,2.668-3.75,3.535c.054.115,2.349,4.226,2.349,4.226l2.96,5.23a1.95,1.95,0,0,0,.656-2.423c-.589-1.683-.944-4.852.564-6.913C574.283,1477.092,569.917,1475.6,569.917,1475.6Z" transform="translate(-543.345 -1388.426)" fill="#163560"/>
      <path id="Trazado_142310" data-name="Trazado 142310" d="M522.207,1260.543s16.181,10.075,18.013,16.944-21.829,21.524-21.829,21.524-2.6-2.29-3.053-3.969c0,0,10.7-12.813,13.015-15.686,1.425-1.764-21.067-6.106-23.815-10.381a10.454,10.454,0,0,1-1.764-7.87Z" transform="translate(-489.787 -1207.141)" fill="#1c468a"/>
      <rect id="Rectángulo_24150" data-name="Rectángulo 24150" width="36.027" height="9.159" rx="4.58" transform="translate(36.027 75.541) rotate(180)" fill="#feca2e"/>
      <path id="Trazado_142311" data-name="Trazado 142311" d="M534.992,986.316a9.265,9.265,0,0,1,2.5,2.265c-3.931,1.017-10.448-2.626-10.448-2.626a9.643,9.643,0,0,0,3.468-5.436q.072-.283.129-.58a11.781,11.781,0,0,0,.213-2.046l1.806,1.618,3,2.69a25.844,25.844,0,0,1-.444,3.036Q535.121,985.741,534.992,986.316Z" transform="translate(-510.39 -968.884)" fill="#e49963"/>
      <path id="Trazado_142312" data-name="Trazado 142312" d="M499.974,1039.793c.563,7.574-.178,19.093.461,21.087.551,1.721,6.833.7,9.34.123.928-.212,2.052-.516,3.213-.875,3.238-1,6.767-2.435,7.145-3.5a.9.9,0,0,0,.035-.122.972.972,0,0,0-.007-.446,7.586,7.586,0,0,1-.67-2.47c-.064-1.5-.054-3.262-.111-5.158,0-.214-.006-.447-.029-.659v-.078c0-.041,0-.08,0-.121-.054-2.115-.165-4.339-.293-6.545-.082-1.385-.176-2.757-.284-4.071a54.429,54.429,0,0,0-1.167-8.317,13.356,13.356,0,0,0-4.29-6.623l-1.2-1.025a6.91,6.91,0,0,1-4.336-.578c-1.543-.733-2.076-1.258-2.345-1.06C501.873,1022.108,499.309,1030.535,499.974,1039.793Z" transform="translate(-487.483 -1003.8)" fill="#739af0"/>
      <path id="Trazado_142313" data-name="Trazado 142313" d="M551.771,1182.034c3.238-1,6.767-2.435,7.145-3.5a.929.929,0,0,0,.035-.122c0-.149,0-.3-.007-.446a7.575,7.575,0,0,1-.67-2.47c-.064-1.5-.054-3.262-.111-5.158,0-.214-.006-.446-.029-.659v-.078c0-.041,0-.08,0-.121l-12.232-5.548A28.525,28.525,0,0,0,551.771,1182.034Z" transform="translate(-526.265 -1125.706)" fill="#4a75cb"/>
      <path id="Trazado_142314" data-name="Trazado 142314" d="M553.3,990.884a25.8,25.8,0,0,1-.444,3.036,7.964,7.964,0,0,1-4.707-4.719c-.126-.317-.181-.514-.181-.514l.31-.066,2.019-.428Z" transform="translate(-528.031 -977.566)" fill="#d68d5d"/>
      <path id="Trazado_142315" data-name="Trazado 142315" d="M550.5,947.65s-6.442.727-6.833-3.292-1.485-6.632,2.611-7.266,5.046.822,5.5,2.131S552.164,947.357,550.5,947.65Z" transform="translate(-524.039 -934.361)" fill="#e49963"/>
      <path id="Trazado_142316" data-name="Trazado 142316" d="M534.62,930.8a6.619,6.619,0,0,1,6.273-5.887c4.017-.379,1.777-3.836,1.349-4.387,0,0-3.077.422-6.232.943C529.389,922.561,533.97,929.968,534.62,930.8Z" transform="translate(-514.965 -920.524)" fill="#2b478b"/>
      <g id="Grupo_89407" data-name="Grupo 89407" transform="translate(35.113 34.23)">
        <rect id="Rectángulo_24151" data-name="Rectángulo 24151" width="0.593" height="15.526" transform="translate(16.29 14.95) rotate(-162.008)" fill="#4a75cb"/>
        <rect id="Rectángulo_24152" data-name="Rectángulo 24152" width="16.293" height="0.975" transform="translate(16.289 14.95) rotate(-178.777)" fill="#4a75cb"/>
      </g>
      <g id="Grupo_89408" data-name="Grupo 89408" transform="translate(16.902 19.439)">
        <path id="Trazado_142317" data-name="Trazado 142317" d="M647.48,1219.6a10.024,10.024,0,0,0,4.237.642c1.709-.315,4.466.819,4.857,1.473s.2.875-.645.993-3.877,1.032-5.7.105a15.271,15.271,0,0,0-4.307-1.229Z" transform="translate(-627.498 -1192.067)" fill="#e49963"/>
        <path id="Trazado_142318" data-name="Trazado 142318" d="M528.624,1046.731s.619,21.1,5.253,23.5a107.354,107.354,0,0,0,15.71,4.991s.834-.536.927-3.082c0,0-10.608-5.287-11.934-7.669-1.974-3.545,2.941-13.263.349-16.675S531.543,1042.507,528.624,1046.731Z" transform="translate(-528.624 -1044.297)" fill="#739af0"/>
      </g>
    </g>
    <g id="Grupo_89410" data-name="Grupo 89410" transform="translate(434.084 410.627)">
      <path id="Trazado_142319" data-name="Trazado 142319" d="M1649.545,1573.691a11.465,11.465,0,0,1,.784-2.938c.548-1.1,4.035-.4,4.035-.4s.7.6.847,3.387Z" transform="translate(-1626.572 -1472.641)" fill="#233862"/>
      <path id="Trazado_142320" data-name="Trazado 142320" d="M1514.368,1561.34c.819-.5.353-4.23.353-4.23s-3.818-3.054-4.342-.716-3.626,3.388-5.392,3.674a1.9,1.9,0,0,0-1.713,1.272Z" transform="translate(-1503.274 -1460.315)" fill="#233862"/>
      <path id="Trazado_142321" data-name="Trazado 142321" d="M1554.457,1267.054a17.65,17.65,0,0,0-.28,2.063c-.355,6.922-5.827,22.748-6.805,23.117-1.515.572-3.9-.643-5.147-1.041a1.07,1.07,0,0,1-.75-1.216c2.71-12.457,3.705-30.395,4.068-41.015a48.2,48.2,0,0,1,1.1-9.044s13.346-3.561,13.425.944C1560.138,1244.847,1555.647,1260.479,1554.457,1267.054Z" transform="translate(-1535.456 -1193.16)" fill="#213f7a"/>
      <path id="Trazado_142322" data-name="Trazado 142322" d="M1576.408,1267.054l-8.915-18.092a48.181,48.181,0,0,1,1.1-9.044s13.345-3.561,13.424.944C1582.09,1244.847,1577.6,1260.479,1576.408,1267.054Z" transform="translate(-1557.407 -1193.16)" fill="#233862"/>
      <path id="Trazado_142323" data-name="Trazado 142323" d="M1605.352,1244.467l7.055,51.132a13.8,13.8,0,0,0,5.508.15s2.066-27.195,1.894-33.769,1.482-17.592-.378-18.807S1605.352,1244.467,1605.352,1244.467Z" transform="translate(-1589.32 -1196.749)" fill="#213f7a"/>
      <path id="Trazado_142324" data-name="Trazado 142324" d="M1591.462,1067.533l.88,12.276a.98.98,0,0,1-.706,1.011c-.984.285-2.119.484-4.307.938a41.782,41.782,0,0,1-8.218.826c-5.4.034-7.45-1.828-7.45-1.828-.233,0,.123-1.127.444-6.5.109-1.822.214-4.131.289-7.049.068-2.626.114-5.745.118-9.446.006-4.452,6.9-9.242,7.024-9.242v0a2.676,2.676,0,0,0,2.566,1.926c1.847.121,4.113-.8,4.113-1.862a38.909,38.909,0,0,1,4.524,11.043c.151.723.267,1.486.36,2.288,0,.012,0,.024,0,.037.017.146.033.294.048.442,0,.026,0,.053.008.078.014.135.027.272.04.409,0,.039.007.079.01.118.011.126.022.251.032.378,0,.012,0,.023,0,.035.008.094.015.189.022.284.005.067.01.135.015.2.008.112.015.222.023.335,0,.056.007.112.011.169q.01.16.02.322c0,.047.006.1.009.144.008.155.017.312.025.47,0,.013,0,.025,0,.038.008.152.015.3.022.458,0,.038,0,.076,0,.114q.011.217.02.436c0,.021,0,.043,0,.065.015.357.028.719.042,1.087,0,.009,0,.019,0,.028Z" transform="translate(-1560.856 -1032.944)" fill="#2b478b"/>
      <path id="Trazado_142325" data-name="Trazado 142325" d="M1559.911,1048.517s-6.408-.054-7.95,2.108-4.923,13.8-3.159,17.669,5.066-1.6,6.9-3.973S1559.911,1048.517,1559.911,1048.517Z" transform="translate(-1541.233 -1032.946)" fill="#2b478b"/>
      <path id="Trazado_142326" data-name="Trazado 142326" d="M1621.684,1021.782l0,.662s-.181,2.072,2.37,2.374,4.483-.808,4.414-2.406a18.781,18.781,0,0,1-.5-3.112,7.213,7.213,0,0,1,.091-1.24l-4.943-.1-1.456.238Z" transform="translate(-1603.071 -1007.189)" fill="#ffb27d"/>
      <path id="Trazado_142327" data-name="Trazado 142327" d="M1621.665,1018.2l.019,3.583a4.183,4.183,0,0,0,1.782.393,5.52,5.52,0,0,0,4.507-2.875,7.213,7.213,0,0,1,.091-1.24l-4.943-.1Z" transform="translate(-1603.071 -1007.189)" fill="#e2915a"/>
      <path id="Trazado_142328" data-name="Trazado 142328" d="M1621.024,971.8c-.573,3.087-4.556,2.985-6.277,2.791-.484-.054-.789-.116-.789-.116-.546-.146-.851-1.006-.992-2.133a17.546,17.546,0,0,1,.45-6.34c.567-1.26,1.635-2.622,5.646-1.639S1621.76,967.85,1621.024,971.8Z" transform="translate(-1595.652 -961.729)" fill="#ffb27d"/>
      <path id="Trazado_142329" data-name="Trazado 142329" d="M1567.558,1103.726s-2.478,5.473-2.406,7.114a8.548,8.548,0,0,1,2.406.309C1569.5,1111.726,1567.558,1103.726,1567.558,1103.726Z" transform="translate(-1555.432 -1079.484)" fill="#233862"/>
      <path id="Trazado_142330" data-name="Trazado 142330" d="M1608.326,950.715a13.269,13.269,0,0,0,3.847-1.041,5.868,5.868,0,0,1,4.515.439,1.031,1.031,0,0,0-.169-.416.929.929,0,0,1,.357.528c.032.024.047.04.038.045a1.191,1.191,0,0,1,.578.037s-.158-.023-.215.079a.1.1,0,0,1-.025.028c2.636,1.274,2.88,5.44,2.031,6.4a21.163,21.163,0,0,0-2.245,3.772,2.239,2.239,0,0,1-.261-1.638c.186-1.021-.7-1.021-1.809-1.484s-.186-1.763-1.16-2.552-4.547-.325-4.5-.928C1607.982,953.505,1608.326,950.85,1608.326,950.715Z" transform="translate(-1591.793 -949.375)" fill="#233862"/>
      <path id="Trazado_142331" data-name="Trazado 142331" d="M1589.818,1167.74c-1.046,4.2-12.361,6.372-14.932,6.813.108-1.822.213-4.131.289-7.049Z" transform="translate(-1563.638 -1133.246)" fill="#233862"/>
      <path id="Trazado_142332" data-name="Trazado 142332" d="M1650.39,1153.937a19.89,19.89,0,0,0,2.946-.575c.431-.215,2.4-3.018,1.112-3.737s-4.758,2.156-4.758,2.156Z" transform="translate(-1626.694 -1118.077)" fill="#ffb27d"/>
      <path id="Trazado_142333" data-name="Trazado 142333" d="M1560.45,1156s9.311.505,15.559-.833a2.685,2.685,0,0,0-1.806-2.607s-9.739-2.064-12.078-1.489S1560.45,1156,1560.45,1156Z" transform="translate(-1551.397 -1119.311)" fill="#2b478b"/>
      <path id="Trazado_142334" data-name="Trazado 142334" d="M1654.383,1062.684c-1.932,2.33-4.458,4.232-7.243,4.678h0a5.193,5.193,0,0,1-.689-3.109,6.226,6.226,0,0,1,1.014-2.854,6.326,6.326,0,0,0,.548-1.1c1.52-3.88,1.294-11.358,1.294-11.358s6.458.676,8.47,3.551C1659.008,1054.247,1657.436,1059,1654.383,1062.684Z" transform="translate(-1623.947 -1033.298)" fill="#2b478b"/>
      <path id="Trazado_142335" data-name="Trazado 142335" d="M1615.289,1019.228c-.484-.054-.789-.116-.789-.116-.546-.146-.851-1.006-.992-2.133a2.7,2.7,0,0,1,1.688,1.381A1.976,1.976,0,0,1,1615.289,1019.228Z" transform="translate(-1596.195 -1006.361)" fill="#e2915a"/>
      <path id="Trazado_142336" data-name="Trazado 142336" d="M1602.079,1021.721s-2.23-3.68-.5-3.84a2.623,2.623,0,0,1,2.682,1.445,7.1,7.1,0,0,1-.065,2.376Z" transform="translate(-1585.587 -1007.109)" fill="#ffb27d"/>
      <path id="Trazado_142337" data-name="Trazado 142337" d="M1614.122,1055.113a4.8,4.8,0,0,1-.38,1.278,6.116,6.116,0,0,1-1.42,1.956h0c-5.792-2.615-6.964-11.593-7.16-16.525-.079-1.983,0-3.312,0-3.312,2.613-.865,3.347.638,3.347.638s3.086,7.336,4.686,12.131A13.222,13.222,0,0,1,1614.122,1055.113Z" transform="translate(-1589.129 -1024.283)" fill="#2b478b"/>
      <path id="Trazado_142338" data-name="Trazado 142338" d="M1619.754,1072.886c-1.932,2.33-4.458,4.232-7.243,4.677h0c-5.792-2.615-6.964-11.592-7.16-16.525,0,0,2.741,9.941,6.471,13.415a4.069,4.069,0,0,0,2.11,1.154s4.7-1.329,5.691-2.581A.528.528,0,0,1,1619.754,1072.886Z" transform="translate(-1589.319 -1043.501)" fill="#233862"/>
    </g>
    <rect id="Rectángulo_24153" data-name="Rectángulo 24153" width="400" height="1.061" rx="0.531" transform="translate(234.873 511.558)" fill="#2e3552"/>
    <g id="Grupo_89415" data-name="Grupo 89415" transform="translate(553.125 433.179)">
      <path id="Trazado_142339" data-name="Trazado 142339" d="M2303.532,1257.449c1.129,4.222,9.475,6.706,18.6,8.164H2356.2c8.212-4.021,8.2-8.816,8.859-22.056,1.361-27.347-13.025-40.549-19.44-38.37-.266.09-.538.189-.814.3a12.4,12.4,0,0,0-5.984,5.227s-6.376,10.627-11.623,16.966a18.939,18.939,0,0,1-4.465,4.292.3.3,0,0,1-.043.022c-.064.034-.126.064-.189.093a42.347,42.347,0,0,0-10.277,7.305h0C2306.673,1244.61,2301.939,1251.5,2303.532,1257.449Z" transform="translate(-2296.624 -1187.365)" fill="#ffb600"/>
      <path id="Trazado_142340" data-name="Trazado 142340" d="M2360.563,1259.282c4.777,1.468,29.36,8.564,35.146,1.039,4.189-5.449,1.58-19.41-.733-28.443a4.272,4.272,0,0,0-7.754-1.368l-.061.094s-6.376,10.627-11.623,16.966a14.872,14.872,0,0,1-4.465,4.292.255.255,0,0,1-.043.022c-.062.034-.126.064-.188.093A42.356,42.356,0,0,0,2360.563,1259.282Z" transform="translate(-2344.961 -1207.254)" fill="#feca2e"/>
      <g id="Grupo_89414" data-name="Grupo 89414">
        <path id="Trazado_142341" data-name="Trazado 142341" d="M2404.125,1204.574a22.163,22.163,0,0,0-2.675,7.82c-.851,4.641-1.6,6.355-2.826,7.307s-8.076,3.762-8.076,3.762l.512,1.2s10.036-1.367,11.163-3.044,5.425-11.587,5.091-13.869S2404.125,1204.574,2404.125,1204.574Z" transform="translate(-2370.237 -1187.045)" fill="#f4a269"/>
        <g id="Grupo_89411" data-name="Grupo 89411" transform="translate(0 65.955)">
          <path id="Trazado_142342" data-name="Trazado 142342" d="M2270.538,1519.843c.091.979-1.272,1.217-2.85,1.3s-1.1.4-3.264.793-3.03-.2-3.186-.492c-.14-.259.866-.665,1.938-1.123.135-.057.27-.116.4-.175,1.206-.53,1.883-1.612,2.823-2.615.89-.95,1.736-3.991,1.736-3.991l2.939-.628s-.825,2.737-1.112,3.906a3.62,3.62,0,0,0,.3,2.041A3.841,3.841,0,0,1,2270.538,1519.843Z" transform="translate(-2261.224 -1512.908)" fill="#ffb27d"/>
          <path id="Trazado_142343" data-name="Trazado 142343" d="M2267.687,1553.054c-1.578.079-1.1.4-3.264.793s-3.03-.2-3.186-.492c-.14-.259.866-.665,1.938-1.123l.016.019a6.161,6.161,0,0,0,3.276.039c1.431-.388,2.814-1.243,3.8-1.519a3.839,3.839,0,0,1,.27.989C2270.628,1552.738,2269.265,1552.976,2267.687,1553.054Z" transform="translate(-2261.224 -1544.824)" fill="#c65447"/>
        </g>
        <path id="Trazado_142344" data-name="Trazado 142344" d="M2330.935,1323.345s-19.53-1.47-23.207.851-9.573,29.349-9.573,29.349a2.393,2.393,0,0,0,1.177.38,9.845,9.845,0,0,0,2.421-.362s8.475-12.093,9.071-15.14.451-5.765,1.811-5.838,18.3,2.06,20.866-2.455a10.4,10.4,0,0,0,.445-8.985Z" transform="translate(-2292.355 -1285.306)" fill="#163560"/>
        <g id="Grupo_89412" data-name="Grupo 89412" transform="translate(7.473 69.092)">
          <path id="Trazado_142345" data-name="Trazado 142345" d="M2318.119,1539.816c.09.979-1.272,1.217-2.85,1.3s-1.1.4-3.264.794-3.03-.2-3.186-.492c-.14-.259.866-.665,1.938-1.123.135-.057.27-.116.4-.175,1.206-.531,1.883-1.612,2.823-2.615.89-.95,1.736-3.991,1.736-3.991l2.939-.628s-.825,2.737-1.112,3.906a3.619,3.619,0,0,0,.3,2.04A3.837,3.837,0,0,1,2318.119,1539.816Z" transform="translate(-2308.806 -1532.881)" fill="#ffb27d"/>
          <path id="Trazado_142346" data-name="Trazado 142346" d="M2315.268,1573.026c-1.578.078-1.1.4-3.264.793s-3.03-.2-3.186-.492c-.14-.259.866-.665,1.938-1.123l.017.018a6.158,6.158,0,0,0,3.276.039c1.431-.388,2.814-1.243,3.8-1.52a3.834,3.834,0,0,1,.27.989C2318.209,1572.71,2316.846,1572.948,2315.268,1573.026Z" transform="translate(-2308.806 -1564.796)" fill="#c65447"/>
        </g>
        <path id="Trazado_142347" data-name="Trazado 142347" d="M2373.663,1342.867s-17.349.821-20.933,3.283-8.424,29.7-8.424,29.7a2.4,2.4,0,0,0,1.191.334,9.868,9.868,0,0,0,2.4-.456s8-12.414,8.475-15.482.226-5.778,1.582-5.9,18.37,1.346,20.755-3.266S2373.663,1342.867,2373.663,1342.867Z" transform="translate(-2331.258 -1303.618)" fill="#1c468a"/>
        <path id="Trazado_142348" data-name="Trazado 142348" d="M2481.6,1109.1a10.552,10.552,0,0,1-1.03-3.574,11.156,11.156,0,0,0,1.563,3.923c4.018,2.271,11.96,10.219,11.921,11.828,0,0,2.305-4.582,2.348-4.611,0,0,4.388-6.417-1.527-9.53-3.007-1.582-3.144-3.862-3.155-5.848s-1.488-10.445-7.125-7.83a3.773,3.773,0,0,0-1.367-.261,1.136,1.136,0,0,1,.528.209,4.5,4.5,0,0,0-2.4.627C2479.321,1095.381,2478.145,1106.321,2481.6,1109.1Z" transform="translate(-2445.139 -1092.963)" fill="#b5453c"/>
        <path id="Trazado_142349" data-name="Trazado 142349" d="M2498.442,1185.72a19.531,19.531,0,0,0-3.231,0,10.392,10.392,0,0,0-2.8.7c-1.529.639-1.369,3.346,1.84,2.845S2498.667,1186.523,2498.442,1185.72Z" transform="translate(-2455.308 -1171.095)" fill="#ffb27d"/>
        <path id="Trazado_142350" data-name="Trazado 142350" d="M2497.685,1166.369c-.019.01-.457,2.329,1.643,2.236,1.379-.061,4.353-1.729,4.091-2.911a14.607,14.607,0,0,1-1.377-5.341l-.251.067-4.221,1.132s.187,1.34.274,2.608C2497.918,1165.225,2497.921,1166.239,2497.685,1166.369Z" transform="translate(-2460.451 -1149.769)" fill="#ffb27d"/>
        <path id="Trazado_142351" data-name="Trazado 142351" d="M2497.57,1161.911s.187,1.34.274,2.608c2.389-.227,3.509-2.495,3.947-3.74Z" transform="translate(-2460.451 -1150.128)" fill="#f4a269"/>
        <path id="Trazado_142352" data-name="Trazado 142352" d="M2485.484,1111.289a12.606,12.606,0,0,0,1.311-3.78c.135-1.224-.781-5.668-5.245-4.722a6.134,6.134,0,0,0-2.475,1.13c-.934.726-2.252,2.247-.411,6.055l.5,1.295Z" transform="translate(-2443.732 -1101.133)" fill="#b5453c"/>
        <path id="Trazado_142353" data-name="Trazado 142353" d="M2480.5,1123.8s5.669-.284,5.438-3.812.345-5.941-3.285-5.909-4.244,1.424-4.453,2.621S2479.02,1123.782,2480.5,1123.8Z" transform="translate(-2444.101 -1110.762)" fill="#ffb27d"/>
        <path id="Trazado_142354" data-name="Trazado 142354" d="M2490.24,1110.242s1.827,4.035,4.247,4.489,3.41-.253,3.41-.253a6.753,6.753,0,0,1-2.469-3.834S2491.279,1108.194,2490.24,1110.242Z" transform="translate(-2454.272 -1106.84)" fill="#b5453c"/>
        <path id="Trazado_142355" data-name="Trazado 142355" d="M2478.137,1113.327a5.015,5.015,0,0,0-1.319,1.918c-.222.917-.226,2.775-.77,2.748,0,0-1.355-2.735-.149-4.414C2477.18,1111.8,2478.137,1113.327,2478.137,1113.327Z" transform="translate(-2441.762 -1109.614)" fill="#b5453c"/>
        <path id="Trazado_142356" data-name="Trazado 142356" d="M2456.283,1209.8c.459.549,1.891.717,3.423.969a10.277,10.277,0,0,1,3.37.977c2.044,1.2,8.721,5.255,10.678,5.071.759-.071.617-1.52.157-3.442-.723-3.035-2.238-7.25-2.238-9.083a53.177,53.177,0,0,0-.777-6.074q-.054-.327-.11-.66c-.879-5.262-2.1-11.466-2.1-11.466s-1.358,2.963-4,2.963-2.031-2.26-2.031-2.26-2.414.284-2.984.9a23.609,23.609,0,0,0-2.3,3.995s-.059.922,2.223,1.36a29.945,29.945,0,0,0-.621,4.169c-.049,1.232.84,5.088,1.1,7.486a4.419,4.419,0,0,1-.036,1.818,3.527,3.527,0,0,1-1.4,1.152C2457.342,1208.421,2455.739,1209.144,2456.283,1209.8Z" transform="translate(-2425.556 -1171.462)" fill="#1c468a"/>
        <path id="Trazado_142357" data-name="Trazado 142357" d="M2470.487,1260.614c-1.465,2.5,3.971,3.248,4.872,3.776,2.044,1.2,8.294,5.551,10.251,5.366.759-.071.617-1.52.157-3.442-.723-3.035-2.238-7.25-2.238-9.083a53.189,53.189,0,0,0-.777-6.074l-2.356-2.262s-2.524,6.524-4.931,7.594a20.259,20.259,0,0,1-3.546,1.154,4.429,4.429,0,0,1-.035,1.818A3.535,3.535,0,0,1,2470.487,1260.614Z" transform="translate(-2437.411 -1224.405)" fill="#163560"/>
        <path id="Trazado_142358" data-name="Trazado 142358" d="M2471.922,1196.793s2.015-1.223,3.962,1.1-1.384,18.908-4.27,19.76c-3.206.947-12.465-.152-12.465-.152l.178-1.447s9.857-1.89,10.267-2.417S2470.9,1197.061,2471.922,1196.793Z" transform="translate(-2428.064 -1180.214)" fill="#ffb27d"/>
        <path id="Trazado_142359" data-name="Trazado 142359" d="M2529.739,1186.086s4.137.373,5.338,1.734,1.553,5.047,1.553,5.047-3.643,2.941-8.032,1.8Z" transform="translate(-2486.605 -1171.461)" fill="#1c468a"/>
        <g id="Grupo_89413" data-name="Grupo 89413" transform="translate(9.736 30.6)">
          <rect id="Rectángulo_24154" data-name="Rectángulo 24154" width="5.464" height="0.646" transform="translate(20.383 8.105) rotate(180)" fill="#9e332e"/>
          <path id="Trazado_142360" data-name="Trazado 142360" d="M2339.292,1295.814c-.054-.214-5.022-8.017-5.022-8.017h-11.057l5.545,7.807Z" transform="translate(-2323.213 -1287.797)" fill="#9e332e"/>
          <path id="Trazado_142361" data-name="Trazado 142361" d="M2338.827,1295.9c-.053-.214-5.039-8.1-5.039-8.1h-10.576l5.277,8.1Z" transform="translate(-2323.213 -1287.797)" fill="#b5453c"/>
          <path id="Trazado_142362" data-name="Trazado 142362" d="M2363.093,1310.695a.883.883,0,0,0,.77.572.394.394,0,0,0,.375-.572.882.882,0,0,0-.77-.573A.4.4,0,0,0,2363.093,1310.695Z" transform="translate(-2356.802 -1306.616)" fill="#9e332e"/>
        </g>
        <path id="Trazado_142363" data-name="Trazado 142363" d="M2434.487,1317.962a21.477,21.477,0,0,0-3.572-.466c-.363.155-2.381,1.967-2.174,2.33a1.772,1.772,0,0,0,1.967.311c.931-.311,2.95-.466,3.313-.932A3.045,3.045,0,0,0,2434.487,1317.962Z" transform="translate(-2402.419 -1282.21)" fill="#ffb27d"/>
      </g>
    </g>
    <g id="Grupo_89420" data-name="Grupo 89420" transform="translate(408.03 353.629)">
      <path id="Trazado_142364" data-name="Trazado 142364" d="M1446.115,611.808H1345.122l-7.74-25.346h100.993Z" transform="translate(-1337.382 -586.462)" fill="#fafdff"/>
      <g id="Grupo_89418" data-name="Grupo 89418" transform="translate(8.518 6.145)">
        <path id="Trazado_142365" data-name="Trazado 142365" d="M1480.247,628.013l.926,3.031a1.737,1.737,0,0,1-1.685,2.425h-83.671a3.571,3.571,0,0,1-3.166-2.425l-.926-3.031a1.737,1.737,0,0,1,1.685-2.425h83.671A3.572,3.572,0,0,1,1480.247,628.013Z" transform="translate(-1391.615 -625.588)" fill="#b7d5f9"/>
        <g id="Grupo_89416" data-name="Grupo 89416" transform="translate(70.472 2.621)">
          <path id="Trazado_142366" data-name="Trazado 142366" d="M1841.724,642.947h-1.284l-.12-.394h1.795l.1.339-.476,2.214h-.5Z" transform="translate(-1840.32 -642.509)" fill="#699dee"/>
          <path id="Trazado_142367" data-name="Trazado 142367" d="M1855.818,643.6c-.223-.729.042-1.32.713-1.32a1.742,1.742,0,0,1,1.512,1.32c.223.73-.042,1.32-.713,1.32A1.738,1.738,0,0,1,1855.818,643.6Zm1.761,0c-.153-.5-.538-.915-.932-.915s-.523.4-.366.915.534.915.932.915S1857.735,644.106,1857.579,643.6Z" transform="translate(-1853.319 -642.275)" fill="#699dee"/>
          <path id="Trazado_142368" data-name="Trazado 142368" d="M1871.395,643.021c-.108-.354.045-.653.406-.653a.9.9,0,0,1,.8.653c.108.354-.045.653-.406.653A.9.9,0,0,1,1871.395,643.021Zm1.935-.623h.361l-1.088,2.553h-.361Zm-1.057.623a.487.487,0,0,0-.394-.372c-.172,0-.222.168-.16.372a.483.483,0,0,0,.394.372C1872.285,643.393,1872.335,643.225,1872.273,643.021Zm1.062,1.306c-.108-.354.045-.653.406-.653a.9.9,0,0,1,.8.653c.108.354-.045.653-.406.653A.9.9,0,0,1,1873.335,644.326Zm.879,0a.486.486,0,0,0-.394-.372c-.172,0-.222.168-.16.372a.483.483,0,0,0,.394.372C1874.226,644.7,1874.277,644.531,1874.215,644.326Z" transform="translate(-1866.485 -642.353)" fill="#699dee"/>
        </g>
        <g id="Grupo_89417" data-name="Grupo 89417">
          <path id="Trazado_142369" data-name="Trazado 142369" d="M1449.987,625.588l2.407,7.882h-56.577a3.561,3.561,0,0,1-2.88-1.78,2.977,2.977,0,0,1-.286-.645l-.926-3.031a1.737,1.737,0,0,1,1.685-2.425Z" transform="translate(-1391.615 -625.588)" fill="#ffb600"/>
          <path id="Trazado_142370" data-name="Trazado 142370" d="M1410.518,625.588l-2.385,7.882h-5.222a3.561,3.561,0,0,1-2.88-1.78l1.845-6.1Z" transform="translate(-1398.708 -625.588)" fill="#feca2e"/>
          <path id="Trazado_142371" data-name="Trazado 142371" d="M1501.905,625.588l-2.385,7.882h-8.64l2.385-7.882Z" transform="translate(-1475.29 -625.588)" fill="#feca2e"/>
          <path id="Trazado_142372" data-name="Trazado 142372" d="M1596.18,625.588l-2.385,7.882h-8.642l2.385-7.882Z" transform="translate(-1554.756 -625.588)" fill="#feca2e"/>
          <path id="Trazado_142373" data-name="Trazado 142373" d="M1690.466,625.588l-2.385,7.882h-8.642l2.385-7.882Z" transform="translate(-1634.234 -625.588)" fill="#feca2e"/>
        </g>
      </g>
      <g id="Grupo_89419" data-name="Grupo 89419" transform="translate(12.636 17.654)">
        <path id="Trazado_142374" data-name="Trazado 142374" d="M1433.264,699.908h-15.111l-.318-1.042h15.111Z" transform="translate(-1417.834 -698.866)" fill="#afcdfb"/>
        <path id="Trazado_142375" data-name="Trazado 142375" d="M1434.8,718.468h-10.98l-.318-1.042h10.98Z" transform="translate(-1422.612 -714.511)" fill="#afcdfb"/>
        <path id="Trazado_142376" data-name="Trazado 142376" d="M1504.6,718.468h-6.563l-.318-1.042h6.563Z" transform="translate(-1485.175 -714.511)" fill="#afcdfb"/>
        <path id="Trazado_142377" data-name="Trazado 142377" d="M1557.081,718.468h-10.026l-.318-1.042h10.026Z" transform="translate(-1526.492 -714.511)" fill="#afcdfb"/>
        <path id="Trazado_142378" data-name="Trazado 142378" d="M1526.177,699.908H1521.6l-.318-1.042h4.575Z" transform="translate(-1505.036 -698.866)" fill="#afcdfb"/>
        <path id="Trazado_142379" data-name="Trazado 142379" d="M1577.34,699.908H1560.7l-.318-1.042h16.637Z" transform="translate(-1537.996 -698.866)" fill="#afcdfb"/>
      </g>
    </g>
    <g id="Grupo_89436" data-name="Grupo 89436" transform="translate(298.354 381.066)">
      <path id="Trazado_142380" data-name="Trazado 142380" d="M721.155,797.319H650.108l-11.043-36.164h71.047Z" transform="translate(-639.065 -761.155)" fill="#fafdff"/>
      <path id="Trazado_142381" data-name="Trazado 142381" d="M739.758,793.795H677.723l-4.693-15.369h62.035Z" transform="translate(-667.695 -775.713)" fill="#4a75cb"/>
      <g id="Grupo_89421" data-name="Grupo 89421" transform="translate(9.469 5.016)">
        <path id="Trazado_142382" data-name="Trazado 142382" d="M710.115,793.915H699.607l-.25-.82h10.508Z" transform="translate(-699.356 -793.095)" fill="#cae0ff"/>
        <path id="Trazado_142383" data-name="Trazado 142383" d="M791.173,793.915h-8.74l-.25-.82h8.739Z" transform="translate(-769.175 -793.095)" fill="#cae0ff"/>
        <path id="Trazado_142384" data-name="Trazado 142384" d="M870.642,793.915H852.578l-.25-.82h18.064Z" transform="translate(-828.303 -793.095)" fill="#cae0ff"/>
        <path id="Trazado_142385" data-name="Trazado 142385" d="M715.827,812.62H705.319l-.25-.82h10.508Z" transform="translate(-704.171 -808.862)" fill="#cae0ff"/>
        <path id="Trazado_142386" data-name="Trazado 142386" d="M796.885,812.62h-8.74l-.25-.82h8.739Z" transform="translate(-773.99 -808.862)" fill="#cae0ff"/>
        <path id="Trazado_142387" data-name="Trazado 142387" d="M862.6,812.62h-8.74l-.25-.82h8.74Z" transform="translate(-829.387 -808.862)" fill="#cae0ff"/>
        <path id="Trazado_142388" data-name="Trazado 142388" d="M944.431,814.795H926.367l-.25-.82h18.064Z" transform="translate(-890.503 -810.695)" fill="#cae0ff"/>
      </g>
      <g id="Grupo_89422" data-name="Grupo 89422" transform="translate(11.504 11.679)">
        <path id="Trazado_142389" data-name="Trazado 142389" d="M723.069,836.335H712.56l-.25-.82h10.508Z" transform="translate(-712.31 -835.515)" fill="#cae0ff"/>
        <path id="Trazado_142390" data-name="Trazado 142390" d="M804.127,836.335h-8.74l-.25-.82h8.74Z" transform="translate(-782.129 -835.515)" fill="#cae0ff"/>
        <path id="Trazado_142391" data-name="Trazado 142391" d="M883.6,836.335H865.532l-.25-.82h18.064Z" transform="translate(-841.256 -835.515)" fill="#cae0ff"/>
        <path id="Trazado_142392" data-name="Trazado 142392" d="M728.781,855.04H718.272l-.25-.82H728.53Z" transform="translate(-717.125 -851.282)" fill="#cae0ff"/>
        <path id="Trazado_142393" data-name="Trazado 142393" d="M809.84,855.04H801.1l-.25-.82h8.74Z" transform="translate(-786.944 -851.282)" fill="#cae0ff"/>
        <path id="Trazado_142394" data-name="Trazado 142394" d="M875.558,855.04h-8.74l-.25-.82h8.74Z" transform="translate(-842.341 -851.282)" fill="#cae0ff"/>
        <path id="Trazado_142395" data-name="Trazado 142395" d="M957.385,857.215H939.322l-.25-.82h18.064Z" transform="translate(-903.457 -853.116)" fill="#cae0ff"/>
      </g>
      <g id="Grupo_89435" data-name="Grupo 89435" transform="translate(20.287 22.08)">
        <g id="Grupo_89425" data-name="Grupo 89425" transform="translate(25.438)">
          <g id="Grupo_89423" data-name="Grupo 89423">
            <path id="Trazado_142396" data-name="Trazado 142396" d="M936.1,910.478a6.417,6.417,0,0,1-5.7-4.367c-.735-2.408.626-4.367,3.033-4.367a6.417,6.417,0,0,1,5.7,4.367C939.869,908.519,938.508,910.478,936.1,910.478Zm-2.423-7.936a2.553,2.553,0,0,0-2.479,3.569,5.245,5.245,0,0,0,4.659,3.57,2.553,2.553,0,0,0,2.479-3.57A5.245,5.245,0,0,0,933.676,902.542Z" transform="translate(-930.2 -901.744)" fill="#a8d29f"/>
          </g>
          <g id="Grupo_89424" data-name="Grupo 89424" transform="translate(1.833 2.564)">
            <path id="Trazado_142397" data-name="Trazado 142397" d="M945.192,922.094a.918.918,0,0,1-.493-.2l-2.476-1.962a.723.723,0,0,1-.266-.939.669.669,0,0,1,.946.021l1.75,1.386.86-2.052c.125-.3.52-.363.883-.148a.817.817,0,0,1,.432.928l-1.13,2.7a.458.458,0,0,1-.409.273A.666.666,0,0,1,945.192,922.094Z" transform="translate(-941.868 -918.07)" fill="#a8d29f"/>
          </g>
        </g>
        <g id="Grupo_89428" data-name="Grupo 89428" transform="translate(12.943)">
          <g id="Grupo_89426" data-name="Grupo 89426">
            <path id="Trazado_142398" data-name="Trazado 142398" d="M856.542,910.478a6.417,6.417,0,0,1-5.7-4.367c-.735-2.408.625-4.367,3.033-4.367a6.417,6.417,0,0,1,5.7,4.367C860.311,908.519,858.95,910.478,856.542,910.478Zm-2.424-7.936a2.553,2.553,0,0,0-2.479,3.569,5.245,5.245,0,0,0,4.659,3.57,2.553,2.553,0,0,0,2.479-3.57A5.245,5.245,0,0,0,854.119,902.542Z" transform="translate(-850.642 -901.744)" fill="#a8d29f"/>
          </g>
          <g id="Grupo_89427" data-name="Grupo 89427" transform="translate(1.832 2.564)">
            <path id="Trazado_142399" data-name="Trazado 142399" d="M865.634,922.094a.918.918,0,0,1-.493-.2l-2.477-1.962a.723.723,0,0,1-.266-.939.669.669,0,0,1,.946.021l1.75,1.386.86-2.052c.125-.3.52-.363.883-.148a.817.817,0,0,1,.432.928l-1.131,2.7a.458.458,0,0,1-.409.273A.668.668,0,0,1,865.634,922.094Z" transform="translate(-862.31 -918.07)" fill="#a8d29f"/>
          </g>
        </g>
        <g id="Grupo_89431" data-name="Grupo 89431">
          <g id="Grupo_89429" data-name="Grupo 89429">
            <path id="Trazado_142400" data-name="Trazado 142400" d="M774.134,910.478a6.417,6.417,0,0,1-5.7-4.367c-.735-2.408.625-4.367,3.033-4.367a6.417,6.417,0,0,1,5.7,4.367C777.9,908.519,776.542,910.478,774.134,910.478Zm-2.423-7.936a2.553,2.553,0,0,0-2.48,3.569,5.245,5.245,0,0,0,4.659,3.57,2.553,2.553,0,0,0,2.479-3.57A5.245,5.245,0,0,0,771.711,902.542Z" transform="translate(-768.235 -901.744)" fill="#a8d29f"/>
          </g>
          <g id="Grupo_89430" data-name="Grupo 89430" transform="translate(1.832 2.564)">
            <path id="Trazado_142401" data-name="Trazado 142401" d="M783.226,922.094a.918.918,0,0,1-.492-.2l-2.477-1.962a.723.723,0,0,1-.266-.939.669.669,0,0,1,.946.021l1.75,1.386.86-2.052c.125-.3.52-.363.883-.148a.817.817,0,0,1,.432.928l-1.131,2.7a.458.458,0,0,1-.409.273A.668.668,0,0,1,783.226,922.094Z" transform="translate(-779.902 -918.07)" fill="#a8d29f"/>
          </g>
        </g>
        <g id="Grupo_89434" data-name="Grupo 89434" transform="translate(37.493)">
          <g id="Grupo_89432" data-name="Grupo 89432">
            <path id="Trazado_142402" data-name="Trazado 142402" d="M1012.855,910.478a6.417,6.417,0,0,1-5.7-4.367c-.735-2.408.626-4.367,3.034-4.367a6.418,6.418,0,0,1,5.7,4.367C1016.624,908.519,1015.263,910.478,1012.855,910.478Zm-2.424-7.936a2.553,2.553,0,0,0-2.479,3.569,5.245,5.245,0,0,0,4.659,3.57,2.553,2.553,0,0,0,2.479-3.57A5.245,5.245,0,0,0,1010.432,902.542Z" transform="translate(-1006.956 -901.744)" fill="#f1a34f"/>
          </g>
          <g id="Grupo_89433" data-name="Grupo 89433" transform="translate(3.384 1.991)">
            <path id="Trazado_142403" data-name="Trazado 142403" d="M1029.9,917.512h0a.91.91,0,0,1-.806-.617l-.566-1.855a.442.442,0,0,1,.429-.617h0a.909.909,0,0,1,.806.617l.567,1.855A.442.442,0,0,1,1029.9,917.512Z" transform="translate(-1028.501 -914.422)" fill="#f1a34f"/>
            <path id="Trazado_142404" data-name="Trazado 142404" d="M1035.966,937.457h-.133a.812.812,0,0,1-.719-.551h0a.4.4,0,0,1,.383-.551h.134a.811.811,0,0,1,.719.551h0A.4.4,0,0,1,1035.966,937.457Z" transform="translate(-1034.054 -932.91)" fill="#f1a34f"/>
          </g>
        </g>
      </g>
    </g>
    <g id="Grupo_89437" data-name="Grupo 89437" transform="translate(511.189 391.349)">
      <path id="Trazado_142405" data-name="Trazado 142405" d="M2125.531,945.563s8.987,9.317,9.411,12.824-4.3,8.981-4.3,8.981Z" transform="translate(-2104.906 -926.883)" fill="#feca2e"/>
      <path id="Trazado_142406" data-name="Trazado 142406" d="M2034.455,1551.788s-.317,4.942-1.273,5.011c-.127.009-4.85,0-4.85,0l-6.029-.048a1.956,1.956,0,0,1,1.805-1.756c1.763-.3,4.716-1.536,5.788-3.862C2031.025,1548.684,2034.455,1551.788,2034.455,1551.788Z" transform="translate(-2017.891 -1436.55)" fill="#163560"/>
      <path id="Trazado_142407" data-name="Trazado 142407" d="M2119.956,1551.973s-.317,4.942-1.274,5.011c-.128.009-4.85,0-4.85,0l-6.029-.048a1.956,1.956,0,0,1,1.805-1.756c1.763-.3,4.715-1.535,5.788-3.862C2116.525,1548.869,2119.956,1551.973,2119.956,1551.973Z" transform="translate(-2089.963 -1436.706)" fill="#163560"/>
      <path id="Trazado_142408" data-name="Trazado 142408" d="M2057.9,1181.686s1.555,10.088,7.4,28,6.628,25.669,6.628,25.669l6.311-.163s.1-19.565-2.595-28.573-.515-32.456-.515-32.456Z" transform="translate(-2047.897 -1119.582)" fill="#163560"/>
      <path id="Trazado_142409" data-name="Trazado 142409" d="M2038.409,1177.4a244.8,244.8,0,0,0,2.333,33.862c2.589,18.665,1.68,26.584,1.68,26.584l6.3.223s3.8-18.658,2.745-28,5.223-32.036,5.223-32.036Z" transform="translate(-2031.461 -1122.311)" fill="#1c468a"/>
      <path id="Trazado_142410" data-name="Trazado 142410" d="M2072.51,910.8,2069.15,913l-4.847-.914c.068-.391.391-2.013.687-3.482l.052-.258c.252-1.25.47-2.323.47-2.323l4.533-1.988,1.69-.741c0,.026-.134,1.387-.152,1.586A11.541,11.541,0,0,0,2072.51,910.8Z" transform="translate(-2053.295 -891.249)" fill="#ffb27d"/>
      <path id="Trazado_142411" data-name="Trazado 142411" d="M2061.808,935.748c.094-.039,5.843-1.722,6.467-1.515s.99,1.416.99,1.416l-9.4,2.1A4.667,4.667,0,0,1,2061.808,935.748Z" transform="translate(-2049.552 -917.318)" fill="#feca2e"/>
      <path id="Trazado_142412" data-name="Trazado 142412" d="M2053.331,981.752c-.983,4.44-17.193,4.932-21.362.891-.474-.461-.493-2.6-.307-5.483.363-5.633,1.507-14.1,1.56-18.435a34.318,34.318,0,0,1,.7-6.17,50.079,50.079,0,0,1,2.072-7.382s7.922-2.542,9.4-2.1C2052.533,945.182,2054.314,977.311,2053.331,981.752Z" transform="translate(-2025.688 -924.739)" fill="#ffb600"/>
      <path id="Trazado_142413" data-name="Trazado 142413" d="M2032.248,1023.888c.363-5.633,1.507-14.1,1.56-18.435a34.274,34.274,0,0,1,.7-6.17l4.764-.83S2043.892,1017.481,2032.248,1023.888Z" transform="translate(-2026.274 -971.467)" fill="#feca2e"/>
      <path id="Trazado_142414" data-name="Trazado 142414" d="M2041.463,1106.472a1.121,1.121,0,0,1-.36,1.3,2.171,2.171,0,0,0-.971,1.979c.154.617,1.647,1.627,2.166,1.465s1.575-.971,1.462-1.3.716-2.854-.546-3.83A1.02,1.02,0,0,0,2041.463,1106.472Z" transform="translate(-2032.893 -1061.898)" fill="#ffb27d"/>
      <path id="Trazado_142415" data-name="Trazado 142415" d="M2008.16,949.53s-4.646.859-8.358,6.3-6.156,9.495-5.479,11.462,6.876,8.8,7.948,8.8a2.873,2.873,0,0,0,2.9-2.526s-4.361-6.567-3.5-7.547c.369-.419,5.69-4.719,6.444-2.77C2009.369,966.479,2008.16,949.53,2008.16,949.53Z" transform="translate(-1994.211 -930.227)" fill="#ffb600"/>
      <path id="Trazado_142416" data-name="Trazado 142416" d="M2074.927,908.913c-1,1.682-4.707,3.131-6.254,3.663.018-.087.035-.173.052-.258.252-1.25.47-2.323.47-2.323l4.534-1.989C2074.73,908,2075.339,908.221,2074.927,908.913Z" transform="translate(-2056.979 -895.225)" fill="#feca2e"/>
      <path id="Trazado_142417" data-name="Trazado 142417" d="M2056.274,854.491s7.291,2.292,8.648-2.271,3.212-7.339-1.385-8.995-6.024-.185-6.847,1.227S2054.413,853.777,2056.274,854.491Z" transform="translate(-2045.763 -840)" fill="#ffb27d"/>
      <path id="Trazado_142418" data-name="Trazado 142418" d="M2061.949,830.64s.454,5.313,1.553,5.085,2.1-.4,1.932,1.2-1.692,3.447,1.694,3.737,8.271-8.43,7.344-10.086C2071.8,825.8,2058.083,824.812,2061.949,830.64Z" transform="translate(-2050.736 -826.626)" fill="#163560"/>
    </g>
    <g id="Grupo_89443" data-name="Grupo 89443" transform="translate(354.527 310.248)">
      <g id="Grupo_89438" data-name="Grupo 89438" transform="translate(16.34)" opacity="0.5">
        <path id="Trazado_142419" data-name="Trazado 142419" d="M1100.761,594.9v-1.295h1.334V594.9Z" transform="translate(-1100.761 -549.103)" fill="#afcdfb"/>
        <path id="Trazado_142420" data-name="Trazado 142420" d="M1100.761,578.233v-1.295h1.334v1.295Z" transform="translate(-1100.761 -535.053)" fill="#afcdfb"/>
        <path id="Trazado_142421" data-name="Trazado 142421" d="M1100.761,561.564V560.27h1.334v1.294Z" transform="translate(-1100.761 -521.002)" fill="#afcdfb"/>
        <path id="Trazado_142422" data-name="Trazado 142422" d="M1100.761,544.9V543.6h1.334V544.9Z" transform="translate(-1100.761 -506.952)" fill="#afcdfb"/>
        <path id="Trazado_142423" data-name="Trazado 142423" d="M1100.761,528.228v-1.294h1.334v1.294Z" transform="translate(-1100.761 -492.902)" fill="#afcdfb"/>
        <path id="Trazado_142424" data-name="Trazado 142424" d="M1100.761,511.56v-1.294h1.334v1.294Z" transform="translate(-1100.761 -478.852)" fill="#afcdfb"/>
        <path id="Trazado_142425" data-name="Trazado 142425" d="M1100.761,494.892V493.6h1.334v1.295Z" transform="translate(-1100.761 -464.801)" fill="#afcdfb"/>
        <path id="Trazado_142426" data-name="Trazado 142426" d="M1100.761,478.223v-1.294h1.334v1.294Z" transform="translate(-1100.761 -450.751)" fill="#afcdfb"/>
        <path id="Trazado_142427" data-name="Trazado 142427" d="M1100.761,461.555v-1.294h1.334v1.294Z" transform="translate(-1100.761 -436.7)" fill="#afcdfb"/>
        <path id="Trazado_142428" data-name="Trazado 142428" d="M1100.761,444.887v-1.294h1.334v1.294Z" transform="translate(-1100.761 -422.65)" fill="#afcdfb"/>
        <path id="Trazado_142429" data-name="Trazado 142429" d="M1100.761,428.219v-1.294h1.334v1.294Z" transform="translate(-1100.761 -408.6)" fill="#afcdfb"/>
        <path id="Trazado_142430" data-name="Trazado 142430" d="M1100.761,411.551v-1.294h1.334v1.294Z" transform="translate(-1100.761 -394.55)" fill="#afcdfb"/>
        <path id="Trazado_142431" data-name="Trazado 142431" d="M1100.761,394.883v-1.295h1.334v1.295Z" transform="translate(-1100.761 -380.499)" fill="#afcdfb"/>
        <path id="Trazado_142432" data-name="Trazado 142432" d="M1100.761,378.215V376.92h1.334v1.295Z" transform="translate(-1100.761 -366.449)" fill="#afcdfb"/>
        <path id="Trazado_142433" data-name="Trazado 142433" d="M1100.761,361.547v-1.295h1.334v1.295Z" transform="translate(-1100.761 -352.399)" fill="#afcdfb"/>
        <path id="Trazado_142434" data-name="Trazado 142434" d="M1100.761,344.879v-1.295h1.334v1.295Z" transform="translate(-1100.761 -338.348)" fill="#afcdfb"/>
        <path id="Trazado_142435" data-name="Trazado 142435" d="M1100.761,328.211v-1.294h1.334v1.294Z" transform="translate(-1100.761 -324.298)" fill="#afcdfb"/>
        <path id="Trazado_142436" data-name="Trazado 142436" d="M1100.761,311.542v-1.294h1.334v1.294Z" transform="translate(-1100.761 -310.248)" fill="#afcdfb"/>
      </g>
      <g id="Grupo_89439" data-name="Grupo 89439" transform="translate(12.264)" opacity="0.5">
        <path id="Trazado_142437" data-name="Trazado 142437" d="M1074.807,494.892V493.6h1.333v1.295Z" transform="translate(-1074.807 -464.801)" fill="#afcdfb"/>
        <path id="Trazado_142438" data-name="Trazado 142438" d="M1074.807,478.223v-1.294h1.333v1.294Z" transform="translate(-1074.807 -450.751)" fill="#afcdfb"/>
        <path id="Trazado_142439" data-name="Trazado 142439" d="M1074.807,461.555v-1.294h1.333v1.294Z" transform="translate(-1074.807 -436.7)" fill="#afcdfb"/>
        <path id="Trazado_142440" data-name="Trazado 142440" d="M1074.807,444.887v-1.294h1.333v1.294Z" transform="translate(-1074.807 -422.65)" fill="#afcdfb"/>
        <path id="Trazado_142441" data-name="Trazado 142441" d="M1074.807,428.219v-1.294h1.333v1.294Z" transform="translate(-1074.807 -408.6)" fill="#afcdfb"/>
        <path id="Trazado_142442" data-name="Trazado 142442" d="M1074.807,411.551v-1.294h1.333v1.294Z" transform="translate(-1074.807 -394.55)" fill="#afcdfb"/>
        <path id="Trazado_142443" data-name="Trazado 142443" d="M1074.807,394.883v-1.295h1.333v1.295Z" transform="translate(-1074.807 -380.499)" fill="#afcdfb"/>
        <path id="Trazado_142444" data-name="Trazado 142444" d="M1074.807,378.215V376.92h1.333v1.295Z" transform="translate(-1074.807 -366.449)" fill="#afcdfb"/>
        <path id="Trazado_142445" data-name="Trazado 142445" d="M1074.807,361.547v-1.295h1.333v1.295Z" transform="translate(-1074.807 -352.399)" fill="#afcdfb"/>
        <path id="Trazado_142446" data-name="Trazado 142446" d="M1074.807,344.879v-1.295h1.333v1.295Z" transform="translate(-1074.807 -338.348)" fill="#afcdfb"/>
        <path id="Trazado_142447" data-name="Trazado 142447" d="M1074.807,328.211v-1.294h1.333v1.294Z" transform="translate(-1074.807 -324.298)" fill="#afcdfb"/>
        <path id="Trazado_142448" data-name="Trazado 142448" d="M1074.807,311.542v-1.294h1.333v1.294Z" transform="translate(-1074.807 -310.248)" fill="#afcdfb"/>
      </g>
      <g id="Grupo_89440" data-name="Grupo 89440" transform="translate(8.111)" opacity="0.5">
        <path id="Trazado_142449" data-name="Trazado 142449" d="M1048.366,594.9v-1.295h1.333V594.9Z" transform="translate(-1048.366 -549.103)" fill="#afcdfb"/>
        <path id="Trazado_142450" data-name="Trazado 142450" d="M1048.366,578.233v-1.295h1.333v1.295Z" transform="translate(-1048.366 -535.053)" fill="#afcdfb"/>
        <path id="Trazado_142451" data-name="Trazado 142451" d="M1048.366,561.564V560.27h1.333v1.294Z" transform="translate(-1048.366 -521.002)" fill="#afcdfb"/>
        <path id="Trazado_142452" data-name="Trazado 142452" d="M1048.366,544.9V543.6h1.333V544.9Z" transform="translate(-1048.366 -506.952)" fill="#afcdfb"/>
        <path id="Trazado_142453" data-name="Trazado 142453" d="M1048.366,528.228v-1.294h1.333v1.294Z" transform="translate(-1048.366 -492.902)" fill="#afcdfb"/>
        <path id="Trazado_142454" data-name="Trazado 142454" d="M1048.366,511.56v-1.294h1.333v1.294Z" transform="translate(-1048.366 -478.852)" fill="#afcdfb"/>
        <path id="Trazado_142455" data-name="Trazado 142455" d="M1048.366,494.892V493.6h1.333v1.295Z" transform="translate(-1048.366 -464.801)" fill="#afcdfb"/>
        <path id="Trazado_142456" data-name="Trazado 142456" d="M1048.366,478.223v-1.294h1.333v1.294Z" transform="translate(-1048.366 -450.751)" fill="#afcdfb"/>
        <path id="Trazado_142457" data-name="Trazado 142457" d="M1048.366,461.555v-1.294h1.333v1.294Z" transform="translate(-1048.366 -436.7)" fill="#afcdfb"/>
        <path id="Trazado_142458" data-name="Trazado 142458" d="M1048.366,444.887v-1.294h1.333v1.294Z" transform="translate(-1048.366 -422.65)" fill="#afcdfb"/>
        <path id="Trazado_142459" data-name="Trazado 142459" d="M1048.366,428.219v-1.294h1.333v1.294Z" transform="translate(-1048.366 -408.6)" fill="#afcdfb"/>
        <path id="Trazado_142460" data-name="Trazado 142460" d="M1048.366,411.551v-1.294h1.333v1.294Z" transform="translate(-1048.366 -394.55)" fill="#afcdfb"/>
        <path id="Trazado_142461" data-name="Trazado 142461" d="M1048.366,394.883v-1.295h1.333v1.295Z" transform="translate(-1048.366 -380.499)" fill="#afcdfb"/>
        <path id="Trazado_142462" data-name="Trazado 142462" d="M1048.366,378.215V376.92h1.333v1.295Z" transform="translate(-1048.366 -366.449)" fill="#afcdfb"/>
        <path id="Trazado_142463" data-name="Trazado 142463" d="M1048.366,361.547v-1.295h1.333v1.295Z" transform="translate(-1048.366 -352.399)" fill="#afcdfb"/>
        <path id="Trazado_142464" data-name="Trazado 142464" d="M1048.366,344.879v-1.295h1.333v1.295Z" transform="translate(-1048.366 -338.348)" fill="#afcdfb"/>
        <path id="Trazado_142465" data-name="Trazado 142465" d="M1048.366,328.211v-1.294h1.333v1.294Z" transform="translate(-1048.366 -324.298)" fill="#afcdfb"/>
        <path id="Trazado_142466" data-name="Trazado 142466" d="M1048.366,311.542v-1.294h1.333v1.294Z" transform="translate(-1048.366 -310.248)" fill="#afcdfb"/>
      </g>
      <g id="Grupo_89441" data-name="Grupo 89441" transform="translate(4.614)" opacity="0.5">
        <path id="Trazado_142467" data-name="Trazado 142467" d="M1026.1,628.237v-1.295h1.333v1.295Z" transform="translate(-1026.101 -577.203)" fill="#afcdfb"/>
        <path id="Trazado_142468" data-name="Trazado 142468" d="M1026.1,611.569v-1.295h1.333v1.295Z" transform="translate(-1026.101 -563.153)" fill="#afcdfb"/>
        <path id="Trazado_142469" data-name="Trazado 142469" d="M1026.1,594.9v-1.295h1.333V594.9Z" transform="translate(-1026.101 -549.103)" fill="#afcdfb"/>
        <path id="Trazado_142470" data-name="Trazado 142470" d="M1026.1,578.233v-1.295h1.333v1.295Z" transform="translate(-1026.101 -535.053)" fill="#afcdfb"/>
        <path id="Trazado_142471" data-name="Trazado 142471" d="M1026.1,561.564V560.27h1.333v1.294Z" transform="translate(-1026.101 -521.002)" fill="#afcdfb"/>
        <path id="Trazado_142472" data-name="Trazado 142472" d="M1026.1,544.9V543.6h1.333V544.9Z" transform="translate(-1026.101 -506.952)" fill="#afcdfb"/>
        <path id="Trazado_142473" data-name="Trazado 142473" d="M1026.1,528.228v-1.294h1.333v1.294Z" transform="translate(-1026.101 -492.902)" fill="#afcdfb"/>
        <path id="Trazado_142474" data-name="Trazado 142474" d="M1026.1,511.56v-1.294h1.333v1.294Z" transform="translate(-1026.101 -478.852)" fill="#afcdfb"/>
        <path id="Trazado_142475" data-name="Trazado 142475" d="M1026.1,494.892V493.6h1.333v1.295Z" transform="translate(-1026.101 -464.801)" fill="#afcdfb"/>
        <path id="Trazado_142476" data-name="Trazado 142476" d="M1026.1,478.223v-1.294h1.333v1.294Z" transform="translate(-1026.101 -450.751)" fill="#afcdfb"/>
        <path id="Trazado_142477" data-name="Trazado 142477" d="M1026.1,461.555v-1.294h1.333v1.294Z" transform="translate(-1026.101 -436.7)" fill="#afcdfb"/>
        <path id="Trazado_142478" data-name="Trazado 142478" d="M1026.1,444.887v-1.294h1.333v1.294Z" transform="translate(-1026.101 -422.65)" fill="#afcdfb"/>
        <path id="Trazado_142479" data-name="Trazado 142479" d="M1026.1,428.219v-1.294h1.333v1.294Z" transform="translate(-1026.101 -408.6)" fill="#afcdfb"/>
        <path id="Trazado_142480" data-name="Trazado 142480" d="M1026.1,411.551v-1.294h1.333v1.294Z" transform="translate(-1026.101 -394.55)" fill="#afcdfb"/>
        <path id="Trazado_142481" data-name="Trazado 142481" d="M1026.1,394.883v-1.295h1.333v1.295Z" transform="translate(-1026.101 -380.499)" fill="#afcdfb"/>
        <path id="Trazado_142482" data-name="Trazado 142482" d="M1026.1,378.215V376.92h1.333v1.295Z" transform="translate(-1026.101 -366.449)" fill="#afcdfb"/>
        <path id="Trazado_142483" data-name="Trazado 142483" d="M1026.1,361.547v-1.295h1.333v1.295Z" transform="translate(-1026.101 -352.399)" fill="#afcdfb"/>
        <path id="Trazado_142484" data-name="Trazado 142484" d="M1026.1,344.879v-1.295h1.333v1.295Z" transform="translate(-1026.101 -338.348)" fill="#afcdfb"/>
        <path id="Trazado_142485" data-name="Trazado 142485" d="M1026.1,328.211v-1.294h1.333v1.294Z" transform="translate(-1026.101 -324.298)" fill="#afcdfb"/>
        <path id="Trazado_142486" data-name="Trazado 142486" d="M1026.1,311.542v-1.294h1.333v1.294Z" transform="translate(-1026.101 -310.248)" fill="#afcdfb"/>
      </g>
      <g id="Grupo_89442" data-name="Grupo 89442" opacity="0.5">
        <path id="Trazado_142487" data-name="Trazado 142487" d="M996.722,478.223v-1.294h1.333v1.294Z" transform="translate(-996.722 -450.751)" fill="#afcdfb"/>
        <path id="Trazado_142488" data-name="Trazado 142488" d="M996.722,461.555v-1.294h1.333v1.294Z" transform="translate(-996.722 -436.7)" fill="#afcdfb"/>
        <path id="Trazado_142489" data-name="Trazado 142489" d="M996.722,444.887v-1.294h1.333v1.294Z" transform="translate(-996.722 -422.65)" fill="#afcdfb"/>
        <path id="Trazado_142490" data-name="Trazado 142490" d="M996.722,428.219v-1.294h1.333v1.294Z" transform="translate(-996.722 -408.6)" fill="#afcdfb"/>
        <path id="Trazado_142491" data-name="Trazado 142491" d="M996.722,411.551v-1.294h1.333v1.294Z" transform="translate(-996.722 -394.55)" fill="#afcdfb"/>
        <path id="Trazado_142492" data-name="Trazado 142492" d="M996.722,394.883v-1.295h1.333v1.295Z" transform="translate(-996.722 -380.499)" fill="#afcdfb"/>
        <path id="Trazado_142493" data-name="Trazado 142493" d="M996.722,378.215V376.92h1.333v1.295Z" transform="translate(-996.722 -366.449)" fill="#afcdfb"/>
        <path id="Trazado_142494" data-name="Trazado 142494" d="M996.722,361.547v-1.295h1.333v1.295Z" transform="translate(-996.722 -352.399)" fill="#afcdfb"/>
        <path id="Trazado_142495" data-name="Trazado 142495" d="M996.722,344.879v-1.295h1.333v1.295Z" transform="translate(-996.722 -338.348)" fill="#afcdfb"/>
        <path id="Trazado_142496" data-name="Trazado 142496" d="M996.722,328.211v-1.294h1.333v1.294Z" transform="translate(-996.722 -324.298)" fill="#afcdfb"/>
        <path id="Trazado_142497" data-name="Trazado 142497" d="M996.722,311.542v-1.294h1.333v1.294Z" transform="translate(-996.722 -310.248)" fill="#afcdfb"/>
      </g>
    </g>
    <g id="Grupo_89449" data-name="Grupo 89449" transform="translate(554.421 399.294)">
      <g id="Grupo_89444" data-name="Grupo 89444" transform="translate(0 5.236)" opacity="0.5">
        <path id="Trazado_142498" data-name="Trazado 142498" d="M2270.806,910.554v1.294h-1.333v-1.294Z" transform="translate(-2269.473 -910.554)" fill="#afcdfb"/>
        <path id="Trazado_142499" data-name="Trazado 142499" d="M2270.806,927.222v1.294h-1.333v-1.294Z" transform="translate(-2269.473 -924.604)" fill="#afcdfb"/>
        <path id="Trazado_142500" data-name="Trazado 142500" d="M2270.806,943.891v1.294h-1.333v-1.294Z" transform="translate(-2269.473 -938.655)" fill="#afcdfb"/>
        <path id="Trazado_142501" data-name="Trazado 142501" d="M2270.806,960.559v1.294h-1.333v-1.294Z" transform="translate(-2269.473 -952.705)" fill="#afcdfb"/>
        <path id="Trazado_142502" data-name="Trazado 142502" d="M2270.806,977.227v1.295h-1.333v-1.295Z" transform="translate(-2269.473 -966.755)" fill="#afcdfb"/>
        <path id="Trazado_142503" data-name="Trazado 142503" d="M2270.806,993.9v1.294h-1.333V993.9Z" transform="translate(-2269.473 -980.806)" fill="#afcdfb"/>
        <path id="Trazado_142504" data-name="Trazado 142504" d="M2270.806,1010.563v1.294h-1.333v-1.294Z" transform="translate(-2269.473 -994.856)" fill="#afcdfb"/>
        <path id="Trazado_142505" data-name="Trazado 142505" d="M2270.806,1027.231v1.295h-1.333v-1.295Z" transform="translate(-2269.473 -1008.906)" fill="#afcdfb"/>
        <path id="Trazado_142506" data-name="Trazado 142506" d="M2270.806,1043.9v1.294h-1.333V1043.9Z" transform="translate(-2269.473 -1022.957)" fill="#afcdfb"/>
        <path id="Trazado_142507" data-name="Trazado 142507" d="M2270.806,1060.567v1.295h-1.333v-1.295Z" transform="translate(-2269.473 -1037.007)" fill="#afcdfb"/>
        <path id="Trazado_142508" data-name="Trazado 142508" d="M2270.806,1077.235v1.295h-1.333v-1.295Z" transform="translate(-2269.473 -1051.057)" fill="#afcdfb"/>
        <path id="Trazado_142509" data-name="Trazado 142509" d="M2270.806,1093.9v1.294h-1.333V1093.9Z" transform="translate(-2269.473 -1065.107)" fill="#afcdfb"/>
        <path id="Trazado_142510" data-name="Trazado 142510" d="M2270.806,1110.571v1.295h-1.333v-1.295Z" transform="translate(-2269.473 -1079.157)" fill="#afcdfb"/>
        <path id="Trazado_142511" data-name="Trazado 142511" d="M2270.806,1127.24v1.295h-1.333v-1.295Z" transform="translate(-2269.473 -1093.208)" fill="#afcdfb"/>
        <path id="Trazado_142512" data-name="Trazado 142512" d="M2270.806,1143.908v1.294h-1.333v-1.294Z" transform="translate(-2269.473 -1107.258)" fill="#afcdfb"/>
        <path id="Trazado_142513" data-name="Trazado 142513" d="M2270.806,1160.576v1.294h-1.333v-1.294Z" transform="translate(-2269.473 -1121.308)" fill="#afcdfb"/>
        <path id="Trazado_142514" data-name="Trazado 142514" d="M2270.806,1177.244v1.294h-1.333v-1.294Z" transform="translate(-2269.473 -1135.359)" fill="#afcdfb"/>
        <path id="Trazado_142515" data-name="Trazado 142515" d="M2270.806,1193.912v1.295h-1.333v-1.295Z" transform="translate(-2269.473 -1149.409)" fill="#afcdfb"/>
      </g>
      <g id="Grupo_89445" data-name="Grupo 89445" transform="translate(4.076 20.943)" opacity="0.5">
        <path id="Trazado_142516" data-name="Trazado 142516" d="M2296.759,1010.563v1.294h-1.333v-1.294Z" transform="translate(-2295.426 -1010.563)" fill="#afcdfb"/>
        <path id="Trazado_142517" data-name="Trazado 142517" d="M2296.759,1027.231v1.295h-1.333v-1.295Z" transform="translate(-2295.426 -1024.613)" fill="#afcdfb"/>
        <path id="Trazado_142518" data-name="Trazado 142518" d="M2296.759,1043.9v1.294h-1.333V1043.9Z" transform="translate(-2295.426 -1038.663)" fill="#afcdfb"/>
        <path id="Trazado_142519" data-name="Trazado 142519" d="M2296.759,1060.567v1.295h-1.333v-1.295Z" transform="translate(-2295.426 -1052.714)" fill="#afcdfb"/>
        <path id="Trazado_142520" data-name="Trazado 142520" d="M2296.759,1077.235v1.295h-1.333v-1.295Z" transform="translate(-2295.426 -1066.764)" fill="#afcdfb"/>
        <path id="Trazado_142521" data-name="Trazado 142521" d="M2296.759,1093.9v1.294h-1.333V1093.9Z" transform="translate(-2295.426 -1080.814)" fill="#afcdfb"/>
        <path id="Trazado_142522" data-name="Trazado 142522" d="M2296.759,1110.571v1.295h-1.333v-1.295Z" transform="translate(-2295.426 -1094.864)" fill="#afcdfb"/>
        <path id="Trazado_142523" data-name="Trazado 142523" d="M2296.759,1127.24v1.295h-1.333v-1.295Z" transform="translate(-2295.426 -1108.915)" fill="#afcdfb"/>
        <path id="Trazado_142524" data-name="Trazado 142524" d="M2296.759,1143.908v1.294h-1.333v-1.294Z" transform="translate(-2295.426 -1122.965)" fill="#afcdfb"/>
        <path id="Trazado_142525" data-name="Trazado 142525" d="M2296.759,1160.576v1.294h-1.333v-1.294Z" transform="translate(-2295.426 -1137.016)" fill="#afcdfb"/>
        <path id="Trazado_142526" data-name="Trazado 142526" d="M2296.759,1177.244v1.294h-1.333v-1.294Z" transform="translate(-2295.426 -1151.066)" fill="#afcdfb"/>
        <path id="Trazado_142527" data-name="Trazado 142527" d="M2296.759,1193.912v1.295h-1.333v-1.295Z" transform="translate(-2295.426 -1165.116)" fill="#afcdfb"/>
      </g>
      <g id="Grupo_89446" data-name="Grupo 89446" transform="translate(8.229 5.236)" opacity="0.5">
        <path id="Trazado_142528" data-name="Trazado 142528" d="M2323.2,910.554v1.294h-1.333v-1.294Z" transform="translate(-2321.867 -910.554)" fill="#afcdfb"/>
        <path id="Trazado_142529" data-name="Trazado 142529" d="M2323.2,927.222v1.294h-1.333v-1.294Z" transform="translate(-2321.867 -924.604)" fill="#afcdfb"/>
        <path id="Trazado_142530" data-name="Trazado 142530" d="M2323.2,943.891v1.294h-1.333v-1.294Z" transform="translate(-2321.867 -938.655)" fill="#afcdfb"/>
        <path id="Trazado_142531" data-name="Trazado 142531" d="M2323.2,960.559v1.294h-1.333v-1.294Z" transform="translate(-2321.867 -952.705)" fill="#afcdfb"/>
        <path id="Trazado_142532" data-name="Trazado 142532" d="M2323.2,977.227v1.295h-1.333v-1.295Z" transform="translate(-2321.867 -966.755)" fill="#afcdfb"/>
        <path id="Trazado_142533" data-name="Trazado 142533" d="M2323.2,993.9v1.294h-1.333V993.9Z" transform="translate(-2321.867 -980.806)" fill="#afcdfb"/>
        <path id="Trazado_142534" data-name="Trazado 142534" d="M2323.2,1010.563v1.294h-1.333v-1.294Z" transform="translate(-2321.867 -994.856)" fill="#afcdfb"/>
        <path id="Trazado_142535" data-name="Trazado 142535" d="M2323.2,1027.231v1.295h-1.333v-1.295Z" transform="translate(-2321.867 -1008.906)" fill="#afcdfb"/>
        <path id="Trazado_142536" data-name="Trazado 142536" d="M2323.2,1043.9v1.294h-1.333V1043.9Z" transform="translate(-2321.867 -1022.957)" fill="#afcdfb"/>
        <path id="Trazado_142537" data-name="Trazado 142537" d="M2323.2,1060.567v1.295h-1.333v-1.295Z" transform="translate(-2321.867 -1037.007)" fill="#afcdfb"/>
        <path id="Trazado_142538" data-name="Trazado 142538" d="M2323.2,1077.235v1.295h-1.333v-1.295Z" transform="translate(-2321.867 -1051.057)" fill="#afcdfb"/>
        <path id="Trazado_142539" data-name="Trazado 142539" d="M2323.2,1093.9v1.294h-1.333V1093.9Z" transform="translate(-2321.867 -1065.107)" fill="#afcdfb"/>
        <path id="Trazado_142540" data-name="Trazado 142540" d="M2323.2,1110.571v1.295h-1.333v-1.295Z" transform="translate(-2321.867 -1079.157)" fill="#afcdfb"/>
        <path id="Trazado_142541" data-name="Trazado 142541" d="M2323.2,1127.24v1.295h-1.333v-1.295Z" transform="translate(-2321.867 -1093.208)" fill="#afcdfb"/>
        <path id="Trazado_142542" data-name="Trazado 142542" d="M2323.2,1143.908v1.294h-1.333v-1.294Z" transform="translate(-2321.867 -1107.258)" fill="#afcdfb"/>
        <path id="Trazado_142543" data-name="Trazado 142543" d="M2323.2,1160.576v1.294h-1.333v-1.294Z" transform="translate(-2321.867 -1121.308)" fill="#afcdfb"/>
        <path id="Trazado_142544" data-name="Trazado 142544" d="M2323.2,1177.244v1.294h-1.333v-1.294Z" transform="translate(-2321.867 -1135.359)" fill="#afcdfb"/>
        <path id="Trazado_142545" data-name="Trazado 142545" d="M2323.2,1193.912v1.295h-1.333v-1.295Z" transform="translate(-2321.867 -1149.409)" fill="#afcdfb"/>
      </g>
      <g id="Grupo_89447" data-name="Grupo 89447" transform="translate(11.726 0)" opacity="0.5">
        <path id="Trazado_142546" data-name="Trazado 142546" d="M2345.466,877.218v1.294h-1.333v-1.294Z" transform="translate(-2344.133 -877.218)" fill="#afcdfb"/>
        <path id="Trazado_142547" data-name="Trazado 142547" d="M2345.466,893.886v1.294h-1.333v-1.294Z" transform="translate(-2344.133 -891.268)" fill="#afcdfb"/>
        <path id="Trazado_142548" data-name="Trazado 142548" d="M2345.466,910.554v1.294h-1.333v-1.294Z" transform="translate(-2344.133 -905.318)" fill="#afcdfb"/>
        <path id="Trazado_142549" data-name="Trazado 142549" d="M2345.466,927.222v1.294h-1.333v-1.294Z" transform="translate(-2344.133 -919.369)" fill="#afcdfb"/>
        <path id="Trazado_142550" data-name="Trazado 142550" d="M2345.466,943.891v1.294h-1.333v-1.294Z" transform="translate(-2344.133 -933.42)" fill="#afcdfb"/>
        <path id="Trazado_142551" data-name="Trazado 142551" d="M2345.466,960.559v1.294h-1.333v-1.294Z" transform="translate(-2344.133 -947.47)" fill="#afcdfb"/>
        <path id="Trazado_142552" data-name="Trazado 142552" d="M2345.466,977.227v1.295h-1.333v-1.295Z" transform="translate(-2344.133 -961.52)" fill="#afcdfb"/>
        <path id="Trazado_142553" data-name="Trazado 142553" d="M2345.466,993.9v1.294h-1.333V993.9Z" transform="translate(-2344.133 -975.57)" fill="#afcdfb"/>
        <path id="Trazado_142554" data-name="Trazado 142554" d="M2345.466,1010.563v1.294h-1.333v-1.294Z" transform="translate(-2344.133 -989.62)" fill="#afcdfb"/>
        <path id="Trazado_142555" data-name="Trazado 142555" d="M2345.466,1027.231v1.295h-1.333v-1.295Z" transform="translate(-2344.133 -1003.67)" fill="#afcdfb"/>
        <path id="Trazado_142556" data-name="Trazado 142556" d="M2345.466,1043.9v1.294h-1.333V1043.9Z" transform="translate(-2344.133 -1017.721)" fill="#afcdfb"/>
        <path id="Trazado_142557" data-name="Trazado 142557" d="M2345.466,1060.567v1.295h-1.333v-1.295Z" transform="translate(-2344.133 -1031.771)" fill="#afcdfb"/>
        <path id="Trazado_142558" data-name="Trazado 142558" d="M2345.466,1077.235v1.295h-1.333v-1.295Z" transform="translate(-2344.133 -1045.821)" fill="#afcdfb"/>
        <path id="Trazado_142559" data-name="Trazado 142559" d="M2345.466,1093.9v1.294h-1.333V1093.9Z" transform="translate(-2344.133 -1059.871)" fill="#afcdfb"/>
        <path id="Trazado_142560" data-name="Trazado 142560" d="M2345.466,1110.571v1.295h-1.333v-1.295Z" transform="translate(-2344.133 -1073.921)" fill="#afcdfb"/>
        <path id="Trazado_142561" data-name="Trazado 142561" d="M2345.466,1127.24v1.295h-1.333v-1.295Z" transform="translate(-2344.133 -1087.972)" fill="#afcdfb"/>
        <path id="Trazado_142562" data-name="Trazado 142562" d="M2345.466,1143.908v1.294h-1.333v-1.294Z" transform="translate(-2344.133 -1102.023)" fill="#afcdfb"/>
        <path id="Trazado_142563" data-name="Trazado 142563" d="M2345.466,1160.576v1.294h-1.333v-1.294Z" transform="translate(-2344.133 -1116.073)" fill="#afcdfb"/>
        <path id="Trazado_142564" data-name="Trazado 142564" d="M2345.466,1177.244v1.294h-1.333v-1.294Z" transform="translate(-2344.133 -1130.123)" fill="#afcdfb"/>
        <path id="Trazado_142565" data-name="Trazado 142565" d="M2345.466,1193.912v1.295h-1.333v-1.295Z" transform="translate(-2344.133 -1144.173)" fill="#afcdfb"/>
      </g>
      <g id="Grupo_89448" data-name="Grupo 89448" transform="translate(16.34 23.561)" opacity="0.5">
        <path id="Trazado_142566" data-name="Trazado 142566" d="M2374.845,1027.231v1.295h-1.333v-1.295Z" transform="translate(-2373.512 -1027.231)" fill="#afcdfb"/>
        <path id="Trazado_142567" data-name="Trazado 142567" d="M2374.845,1043.9v1.294h-1.333V1043.9Z" transform="translate(-2373.512 -1041.281)" fill="#afcdfb"/>
        <path id="Trazado_142568" data-name="Trazado 142568" d="M2374.845,1060.567v1.295h-1.333v-1.295Z" transform="translate(-2373.512 -1055.331)" fill="#afcdfb"/>
        <path id="Trazado_142569" data-name="Trazado 142569" d="M2374.845,1077.235v1.295h-1.333v-1.295Z" transform="translate(-2373.512 -1069.382)" fill="#afcdfb"/>
        <path id="Trazado_142570" data-name="Trazado 142570" d="M2374.845,1093.9v1.294h-1.333V1093.9Z" transform="translate(-2373.512 -1083.432)" fill="#afcdfb"/>
        <path id="Trazado_142571" data-name="Trazado 142571" d="M2374.845,1110.571v1.295h-1.333v-1.295Z" transform="translate(-2373.512 -1097.482)" fill="#afcdfb"/>
        <path id="Trazado_142572" data-name="Trazado 142572" d="M2374.845,1127.24v1.295h-1.333v-1.295Z" transform="translate(-2373.512 -1111.533)" fill="#afcdfb"/>
        <path id="Trazado_142573" data-name="Trazado 142573" d="M2374.845,1143.908v1.294h-1.333v-1.294Z" transform="translate(-2373.512 -1125.583)" fill="#afcdfb"/>
        <path id="Trazado_142574" data-name="Trazado 142574" d="M2374.845,1160.576v1.294h-1.333v-1.294Z" transform="translate(-2373.512 -1139.634)" fill="#afcdfb"/>
        <path id="Trazado_142575" data-name="Trazado 142575" d="M2374.845,1177.244v1.294h-1.333v-1.294Z" transform="translate(-2373.512 -1153.684)" fill="#afcdfb"/>
        <path id="Trazado_142576" data-name="Trazado 142576" d="M2374.845,1193.912v1.295h-1.333v-1.295Z" transform="translate(-2373.512 -1167.734)" fill="#afcdfb"/>
      </g>
    </g>
  </g>
</svg>
