<svg xmlns="http://www.w3.org/2000/svg" width="46.897" height="48.521" viewBox="0 0 46.897 48.521">
  <g id="Grupo_90758" data-name="Grupo 90758" transform="translate(-8.572)">
    <g id="Grupo_90759" data-name="Grupo 90759" transform="translate(11.894 2.295)">
      <g id="Grupo_90758-2" data-name="Grupo 90758" transform="translate(0)">
        <path id="Trazado_143436" data-name="Trazado 143436" d="M45.936,24.215a2.308,2.308,0,1,0,2.308,2.308A2.311,2.311,0,0,0,45.936,24.215Zm0,3.174a.866.866,0,1,1,.866-.866A.867.867,0,0,1,45.936,27.389Z" transform="translate(-43.628 -24.215)" fill="#feca2e"/>
      </g>
    </g>
    <g id="Grupo_90761" data-name="Grupo 90761" transform="translate(17.237 2.295)">
      <g id="Grupo_90760" data-name="Grupo 90760">
        <path id="Trazado_143437" data-name="Trazado 143437" d="M102.315,24.215a2.308,2.308,0,1,0,2.308,2.308A2.311,2.311,0,0,0,102.315,24.215Zm0,3.174a.866.866,0,1,1,.866-.866A.867.867,0,0,1,102.315,27.389Z" transform="translate(-100.007 -24.215)" fill="#feca2e"/>
      </g>
    </g>
    <g id="Grupo_90763" data-name="Grupo 90763" transform="translate(22.58 2.295)">
      <g id="Grupo_90762" data-name="Grupo 90762">
        <path id="Trazado_143438" data-name="Trazado 143438" d="M158.7,24.215A2.308,2.308,0,1,0,161,26.523,2.311,2.311,0,0,0,158.7,24.215Zm0,3.174a.866.866,0,1,1,.866-.866A.867.867,0,0,1,158.7,27.389Z" transform="translate(-156.388 -24.215)" fill="#feca2e"/>
      </g>
    </g>
    <g id="Grupo_90765" data-name="Grupo 90765" transform="translate(35.76 5.445)">
      <g id="Grupo_90764" data-name="Grupo 90764">
        <path id="Trazado_143439" data-name="Trazado 143439" d="M313.353,61.607a.721.721,0,0,0-1.175.836,8.414,8.414,0,1,1-1.636-1.725.721.721,0,1,0,.9-1.13,9.751,9.751,0,0,0-6.12-2.13,9.852,9.852,0,1,0,8.036,4.149Z" transform="translate(-295.463 -57.458)" fill="#feca2e"/>
      </g>
    </g>
    <g id="Grupo_90767" data-name="Grupo 90767" transform="translate(8.572)">
      <g id="Grupo_90766" data-name="Grupo 90766" transform="translate(0)">
        <path id="Trazado_143440" data-name="Trazado 143440" d="M45.736,26.7a.721.721,0,0,0-.721.721v17.3a2.363,2.363,0,0,1-2.361,2.36H12.374a2.363,2.363,0,0,1-2.36-2.36V9.362H36.385a.721.721,0,0,0,0-1.442H10.014V3.8a2.363,2.363,0,0,1,2.36-2.36h30.28A2.363,2.363,0,0,1,45.015,3.8a.721.721,0,0,0,1.442,0,3.807,3.807,0,0,0-3.8-3.8H12.374a3.807,3.807,0,0,0-3.8,3.8V44.719a3.807,3.807,0,0,0,3.8,3.8h30.28a3.807,3.807,0,0,0,3.8-3.8v-17.3A.721.721,0,0,0,45.736,26.7Z" transform="translate(-8.572)" fill="#feca2e"/>
      </g>
    </g>
    <g id="Grupo_90769" data-name="Grupo 90769" transform="translate(16.199 13.58)">
      <g id="Grupo_90768" data-name="Grupo 90768" transform="translate(0)">
        <path id="Trazado_143441" data-name="Trazado 143441" d="M105.78,143.293H89.773a.721.721,0,1,0,0,1.442H105.78a.721.721,0,1,0,0-1.442Z" transform="translate(-89.052 -143.293)" fill="#feca2e"/>
      </g>
    </g>
    <g id="Grupo_90771" data-name="Grupo 90771" transform="translate(12.981 13.588)">
      <g id="Grupo_90770" data-name="Grupo 90770">
        <path id="Trazado_143442" data-name="Trazado 143442" d="M56.518,143.957a.721.721,0,1,0-.473.822A.726.726,0,0,0,56.518,143.957Z" transform="translate(-55.092 -143.385)" fill="#feca2e"/>
      </g>
    </g>
    <g id="Grupo_90773" data-name="Grupo 90773" transform="translate(16.199 21.637)">
      <g id="Grupo_90772" data-name="Grupo 90772" transform="translate(0)">
        <path id="Trazado_143443" data-name="Trazado 143443" d="M105.78,228.31H89.773a.721.721,0,1,0,0,1.442H105.78a.721.721,0,0,0,0-1.442Z" transform="translate(-89.052 -228.31)" fill="#feca2e"/>
      </g>
    </g>
    <g id="Grupo_90775" data-name="Grupo 90775" transform="translate(12.978 21.645)">
      <g id="Grupo_90774" data-name="Grupo 90774">
        <path id="Trazado_143444" data-name="Trazado 143444" d="M56.294,228.6a.721.721,0,1,0,.069.94A.728.728,0,0,0,56.294,228.6Z" transform="translate(-55.062 -228.397)" fill="#feca2e"/>
      </g>
    </g>
    <g id="Grupo_90777" data-name="Grupo 90777" transform="translate(34.177 25.665)">
      <g id="Grupo_90776" data-name="Grupo 90776">
        <path id="Trazado_143445" data-name="Trazado 143445" d="M283.994,270.819h-4.518a.721.721,0,0,0,0,1.442h4.518a.721.721,0,1,0,0-1.442Z" transform="translate(-278.755 -270.819)" fill="#feca2e"/>
      </g>
    </g>
    <g id="Grupo_90779" data-name="Grupo 90779" transform="translate(23.361 25.665)">
      <g id="Grupo_90778" data-name="Grupo 90778">
        <path id="Trazado_143446" data-name="Trazado 143446" d="M173.763,270.819h-8.412a.721.721,0,1,0,0,1.442h8.412a.721.721,0,0,0,0-1.442Z" transform="translate(-164.63 -270.819)" fill="#feca2e"/>
      </g>
    </g>
    <g id="Grupo_90781" data-name="Grupo 90781" transform="translate(16.199 25.665)">
      <g id="Grupo_90780" data-name="Grupo 90780" transform="translate(0)">
        <path id="Trazado_143447" data-name="Trazado 143447" d="M94.532,270.819H89.773a.721.721,0,1,0,0,1.442h4.759a.721.721,0,1,0,0-1.442Z" transform="translate(-89.052 -270.819)" fill="#feca2e"/>
      </g>
    </g>
    <g id="Grupo_90783" data-name="Grupo 90783" transform="translate(12.978 25.671)">
      <g id="Grupo_90782" data-name="Grupo 90782" transform="translate(0)">
        <path id="Trazado_143448" data-name="Trazado 143448" d="M56.3,271.087a.721.721,0,1,0,.093.9A.727.727,0,0,0,56.3,271.087Z" transform="translate(-55.065 -270.882)" fill="#feca2e"/>
      </g>
    </g>
    <g id="Grupo_90785" data-name="Grupo 90785" transform="translate(16.199 29.694)">
      <g id="Grupo_90784" data-name="Grupo 90784" transform="translate(0)">
        <path id="Trazado_143449" data-name="Trazado 143449" d="M101.454,313.328H89.773a.721.721,0,1,0,0,1.442h11.681a.721.721,0,0,0,0-1.442Z" transform="translate(-89.052 -313.328)" fill="#feca2e"/>
      </g>
    </g>
    <g id="Grupo_90787" data-name="Grupo 90787" transform="translate(12.98 29.703)">
      <g id="Grupo_90786" data-name="Grupo 90786" transform="translate(0)">
        <path id="Trazado_143450" data-name="Trazado 143450" d="M56.516,313.993a.721.721,0,1,0-.393.789A.726.726,0,0,0,56.516,313.993Z" transform="translate(-55.09 -313.422)" fill="#feca2e"/>
      </g>
    </g>
    <g id="Grupo_90789" data-name="Grupo 90789" transform="translate(32.879 33.722)">
      <g id="Grupo_90788" data-name="Grupo 90788">
        <path id="Trazado_143451" data-name="Trazado 143451" d="M267.992,355.836h-2.211a.721.721,0,0,0,0,1.442h2.211a.721.721,0,1,0,0-1.442Z" transform="translate(-265.06 -355.836)" fill="#feca2e"/>
      </g>
    </g>
    <g id="Grupo_90791" data-name="Grupo 90791" transform="translate(24.082 33.722)">
      <g id="Grupo_90790" data-name="Grupo 90790">
        <path id="Trazado_143452" data-name="Trazado 143452" d="M179.352,355.836h-6.393a.721.721,0,0,0,0,1.442h6.393a.721.721,0,0,0,0-1.442Z" transform="translate(-172.238 -355.836)" fill="#feca2e"/>
      </g>
    </g>
    <g id="Grupo_90793" data-name="Grupo 90793" transform="translate(16.199 33.722)">
      <g id="Grupo_90792" data-name="Grupo 90792" transform="translate(0)">
        <path id="Trazado_143453" data-name="Trazado 143453" d="M95.253,355.836h-5.48a.721.721,0,1,0,0,1.442h5.48a.721.721,0,0,0,0-1.442Z" transform="translate(-89.052 -355.836)" fill="#feca2e"/>
      </g>
    </g>
    <g id="Grupo_90795" data-name="Grupo 90795" transform="translate(12.978 33.728)">
      <g id="Grupo_90794" data-name="Grupo 90794" transform="translate(0)">
        <path id="Trazado_143454" data-name="Trazado 143454" d="M56.3,356.1a.721.721,0,1,0,.093.9A.727.727,0,0,0,56.3,356.1Z" transform="translate(-55.065 -355.899)" fill="#feca2e"/>
      </g>
    </g>
    <g id="Grupo_90797" data-name="Grupo 90797" transform="translate(28.12 37.751)">
      <g id="Grupo_90796" data-name="Grupo 90796">
        <path id="Trazado_143455" data-name="Trazado 143455" d="M225.853,398.346H215.566a.721.721,0,0,0,0,1.442h10.286a.721.721,0,0,0,0-1.442Z" transform="translate(-214.845 -398.346)" fill="#feca2e"/>
      </g>
    </g>
    <g id="Grupo_90799" data-name="Grupo 90799" transform="translate(16.199 37.751)">
      <g id="Grupo_90798" data-name="Grupo 90798" transform="translate(0)">
        <path id="Trazado_143456" data-name="Trazado 143456" d="M99.291,398.346H89.773a.721.721,0,1,0,0,1.442h9.518a.721.721,0,1,0,0-1.442Z" transform="translate(-89.052 -398.346)" fill="#feca2e"/>
      </g>
    </g>
    <g id="Grupo_90801" data-name="Grupo 90801" transform="translate(12.981 37.759)">
      <g id="Grupo_90800" data-name="Grupo 90800" transform="translate(0)">
        <path id="Trazado_143457" data-name="Trazado 143457" d="M56.524,399a.721.721,0,1,0-.5.831A.727.727,0,0,0,56.524,399Z" transform="translate(-55.099 -398.431)" fill="#feca2e"/>
      </g>
    </g>
    <g id="Grupo_90803" data-name="Grupo 90803" transform="translate(16.199 41.779)">
      <g id="Grupo_90802" data-name="Grupo 90802" transform="translate(0)">
        <path id="Trazado_143458" data-name="Trazado 143458" d="M94.532,440.855H89.773a.721.721,0,1,0,0,1.442h4.759a.721.721,0,1,0,0-1.442Z" transform="translate(-89.052 -440.855)" fill="#feca2e"/>
      </g>
    </g>
    <g id="Grupo_90805" data-name="Grupo 90805" transform="translate(12.979 41.789)">
      <g id="Grupo_90804" data-name="Grupo 90804" transform="translate(0)">
        <path id="Trazado_143459" data-name="Trazado 143459" d="M56.465,441.393a.721.721,0,1,0-.323.91A.727.727,0,0,0,56.465,441.393Z" transform="translate(-55.079 -440.957)" fill="#feca2e"/>
      </g>
    </g>
    <g id="Grupo_90807" data-name="Grupo 90807" transform="translate(16.199 17.608)">
      <g id="Grupo_90806" data-name="Grupo 90806" transform="translate(0)">
        <path id="Trazado_143460" data-name="Trazado 143460" d="M93.378,185.8H89.773a.721.721,0,1,0,0,1.442h3.605a.721.721,0,0,0,0-1.442Z" transform="translate(-89.052 -185.801)" fill="#feca2e"/>
      </g>
    </g>
    <g id="Grupo_90809" data-name="Grupo 90809" transform="translate(22.4 17.608)">
      <g id="Grupo_90808" data-name="Grupo 90808" transform="translate(0)">
        <path id="Trazado_143461" data-name="Trazado 143461" d="M162.126,185.8H155.2a.721.721,0,0,0,0,1.442h6.922a.721.721,0,0,0,0-1.442Z" transform="translate(-154.483 -185.801)" fill="#feca2e"/>
      </g>
    </g>
    <g id="Grupo_90811" data-name="Grupo 90811" transform="translate(12.981 17.616)">
      <g id="Grupo_90810" data-name="Grupo 90810" transform="translate(0)">
        <path id="Trazado_143462" data-name="Trazado 143462" d="M56.521,186.461a.721.721,0,1,0-.473.823A.726.726,0,0,0,56.521,186.461Z" transform="translate(-55.095 -185.889)" fill="#feca2e"/>
      </g>
    </g>
    <g id="Grupo_90813" data-name="Grupo 90813" transform="translate(41 10.469)">
      <g id="Grupo_90812" data-name="Grupo 90812" transform="translate(0)">
        <path id="Trazado_143463" data-name="Trazado 143463" d="M359.6,110.547a.721.721,0,0,0-.974.3l-3.86,7.335-2.768-2.884a.721.721,0,1,0-1.04,1l3.461,3.605a.721.721,0,0,0,.52.222.71.71,0,0,0,.1-.007.721.721,0,0,0,.537-.378l4.326-8.22A.721.721,0,0,0,359.6,110.547Z" transform="translate(-350.753 -110.464)" fill="#feca2e"/>
      </g>
    </g>
  </g>
</svg>
