<svg xmlns="http://www.w3.org/2000/svg" width="348.806" height="203.302" viewBox="0 0 348.806 203.302">
  <g id="Grupo_29550" data-name="Grupo 29550" transform="translate(-532 -5665.5)">
    <g id="Grupo_29543" data-name="Grupo 29543" transform="translate(-1411.272 4665.53)">
      <g id="Grupo_29538" data-name="Grupo 29538" transform="translate(1943.272 1030.47)">
        <g id="Grupo_29537" data-name="Grupo 29537" transform="translate(0)">
          <rect id="Rectángulo_6092" data-name="Rectángulo 6092" width="46.317" height="172.591" transform="translate(67.942 172.591) rotate(180)" fill="#82b479"/>
          <rect id="Rectángulo_6093" data-name="Rectángulo 6093" width="34.033" height="172.591" transform="translate(34.033 172.591) rotate(180)" fill="#a8d29f"/>
        </g>
      </g>
      <circle id="Elipse_1401" data-name="Elipse 1401" cx="7.597" cy="7.597" r="7.597" transform="translate(1953.263 1177.18)" fill="#82b479"/>
      <g id="Grupo_29540" data-name="Grupo 29540" transform="translate(2011.214 1030.47)">
        <g id="Grupo_29539" data-name="Grupo 29539" transform="translate(0)">
          <rect id="Rectángulo_6094" data-name="Rectángulo 6094" width="46.317" height="172.591" transform="translate(67.942 172.591) rotate(180)" fill="#699dee"/>
          <rect id="Rectángulo_6095" data-name="Rectángulo 6095" width="34.033" height="172.591" transform="translate(34.033 172.591) rotate(180)" fill="#afcdfb"/>
        </g>
      </g>
      <circle id="Elipse_1402" data-name="Elipse 1402" cx="7.597" cy="7.597" r="7.597" transform="translate(2021.205 1177.18)" fill="#699dee"/>
      <rect id="Rectángulo_6096" data-name="Rectángulo 6096" width="15.194" height="90.589" transform="translate(2021.205 1048.035)" fill="#fff"/>
      <g id="Grupo_29542" data-name="Grupo 29542" transform="translate(2078.36 1030.47)">
        <g id="Grupo_29541" data-name="Grupo 29541" transform="translate(0)">
          <rect id="Rectángulo_6097" data-name="Rectángulo 6097" width="46.317" height="172.591" transform="translate(67.942 172.591) rotate(180)" fill="#d86713"/>
          <rect id="Rectángulo_6098" data-name="Rectángulo 6098" width="34.033" height="172.591" transform="translate(34.033 172.591) rotate(180)" fill="#f1a34f"/>
        </g>
      </g>
      <circle id="Elipse_1403" data-name="Elipse 1403" cx="7.597" cy="7.597" r="7.597" transform="translate(2088.351 1177.18)" fill="#d86713"/>
      <rect id="Rectángulo_6099" data-name="Rectángulo 6099" width="15.194" height="90.589" transform="translate(2088.351 1048.035)" fill="#fff"/>
      <rect id="Rectángulo_6100" data-name="Rectángulo 6100" width="15.194" height="90.589" transform="translate(1952.692 1049.193)" fill="#fff"/>
    </g>
    <g id="girl_2" data-name="girl 2" transform="translate(94.515 4428.885)">
      <path id="Trazado_58689" data-name="Trazado 58689" d="M803.048,1422.333s38.7,16.862,45.729,16.556,50.316-13.186,50.316-13.186l-1.1,7.447s-33.409,19.214-45.089,20.3c-11.5,1.073-50.819-10.32-54.615-12.726S792.016,1424.768,803.048,1422.333Z" transform="translate(-116.933 -122.978)" fill="#ed985f"/>
      <path id="Trazado_58690" data-name="Trazado 58690" d="M680.3,1237.323s-14.278-2.712-21.389,2.481c-12.881,9.407-13.573,41.838-18.4,46.669s-16.465,2.77-17.5,27.768,4.633,27.088-2.118,38.246,2.857,22.328,2.857,22.328-3.936-6.16-2.249-10.606c0,0,1.638,9.812,7.872,12.113s7.156,3.986,8.152,7.359c0,0,53.182-27.251,53.24-46.58s10.465-38.476,5.355-46.852a18.533,18.533,0,0,1,2.555,7.57,9.966,9.966,0,0,0-2.249-11.345c-5.315-5.47,6.235-16.789,4.525-29.9C699.773,1247.574,693.458,1237.715,680.3,1237.323Z" fill="#233862"/>
      <path id="Trazado_58691" data-name="Trazado 58691" d="M747.06,1397.271a37.221,37.221,0,0,1-13.012,5.538c-20.057,4.634-27.743-12.318-30.63-23.954a17.239,17.239,0,0,1,6.8-2.087c1.45-.171,2.974-.285,4.237-.347,2.252-1.725,5.608-8.785,6.35-19.746l.943.253,15.807,4.326s-.724,5.025-1.079,9.774c-.274,3.716-.318,7.268.386,8.137,1.233.268,1.974.443,1.974.443a.047.047,0,0,0,.008.015A101.747,101.747,0,0,1,747.06,1397.271Z" transform="translate(-56.241 -79.5)" fill="#ffb27d"/>
      <path id="Trazado_58692" data-name="Trazado 58692" d="M773.473,1361.759s-.727,5.021-1.079,9.774c-8.955-.9-13.111-9.423-14.729-14.1Z" transform="translate(-92.162 -80.004)" fill="#ed985f"/>
      <path id="Trazado_58693" data-name="Trazado 58693" d="M772.48,1312.661s-21.256-1.173-20.322-14.4-1.18-22.285,12.431-22.095,15.889,5.422,16.651,9.913S778.034,1312.625,772.48,1312.661Z" transform="translate(-88.496 -26.189)" fill="#ffb27d"/>
      <path id="Trazado_58694" data-name="Trazado 58694" d="M768.117,1273.339c-3-4.213-5.539-3.518-7.015-2.422-11.147-7.212-19.3,1.684-19.3,1.684a25.326,25.326,0,0,1-9.334,14.332s3.7,2.668,12.784,1.014a15.2,15.2,0,0,0,7.584-4.468,49.669,49.669,0,0,1-9.271,9.8c11.01-4.161,16.352-18.675,16.891-20.212,1.213,1.257,3.586,3.969,4.187,6.5.817,3.444,4.341,8.827,6.378,8.736C771.02,1288.306,772.611,1279.658,768.117,1273.339Z" transform="translate(-75.477 -20.847)" fill="#233862"/>
      <path id="Trazado_58695" data-name="Trazado 58695" d="M662.459,1474.83c-1.919-9.813-8.178-49.018-1.919-61.633,2.248-4.532,11.068-4.941,20.745-4.543,3.011,1.944,14.485,9.291,19.2,8.374.051-.01.142-.032.264-.062,2.219-.555,3.057-2.114,1.206-3.458a42.284,42.284,0,0,1,10.745.658c3.362.633,12.43,5.325,12.43,5.325s-4.566,8.25-11.3,11.1c1.145,10.242-.558,14.76-11.183,38.417-8.979,20,1.211,38,1.211,38s-52.854,42.5-53.149,20.859C650.487,1511.573,664.912,1487.372,662.459,1474.83Z" transform="translate(-21.336 -113.843)" fill="#f9ddbf"/>
      <path id="Trazado_58696" data-name="Trazado 58696" d="M752.251,1608.921a9.827,9.827,0,0,0,7.069-4.3q.383-.573.817-1.231c6.016-9.108,8.357-37,21.89-66.714,3.3-7.234,15.128-8.535,18.354-16.714,0,0,7.941-26.506-15.2-27.288s-61.972,73.751-62.585,81.568C722,1581.812,707.3,1613.993,752.251,1608.921Z" transform="translate(-67.11 -169.551)" fill="#dd6d22"/>
      <path id="Trazado_58697" data-name="Trazado 58697" d="M1022.8,1801.5H989.866s-1.231-5.253.931-8.828c1.914-3.163,1.18-4.965-.237-7.581a12.8,12.8,0,0,0,5.547,1.044,11.6,11.6,0,0,0,4.9-1.723c1.417,1.616,7.487,8.5,9.384,9.858C1012.541,1795.817,1022.138,1795.266,1022.8,1801.5Z" transform="translate(-245.689 -362.739)" fill="#233862"/>
      <path id="Trazado_58698" data-name="Trazado 58698" d="M904.561,1498.282c1.983,14.868,9.728,61.8,23.389,84.69,4.4,7.381-11.1,11.519-11.18,11.5-2.079-.544-5.543-3.859-7.139-5.3-11.091-10-33.606-38.3-33.606-60.992,0-11.065-.194-32.2,7.852-37.567C888.831,1487.306,903.773,1492.377,904.561,1498.282Z" transform="translate(-170.536 -167.499)" fill="#ed7d2b"/>
      <path id="Trazado_58699" data-name="Trazado 58699" d="M683.38,1605s1.221-1.7,3.349-4.925c2.533-3.836,5.336-11.386,8.736-21.064,3.572-10.16,7.81-22.659,13.106-35.664,1.634-4.014,3.37-8.077,5.216-12.134,3.3-7.234,12.364-6.234,15.59-14.412,0,0,12.588-28.35-10.552-29.132s-67.11,75.838-69.637,83.259C646.423,1579.049,632.927,1612.78,683.38,1605Z" transform="translate(-17.878 -166.237)" fill="#f99746"/>
      <path id="Trazado_58700" data-name="Trazado 58700" d="M951.235,1801.5H918.3s-1.231-5.253.931-8.828c1.914-3.163,1.18-4.965-.237-7.581a12.794,12.794,0,0,0,5.547,1.044,11.6,11.6,0,0,0,4.9-1.723c1.417,1.616,7.487,8.5,9.384,9.858C940.974,1795.817,950.572,1795.266,951.235,1801.5Z" transform="translate(-198.299 -362.739)" fill="#2b478b"/>
      <path id="Trazado_58701" data-name="Trazado 58701" d="M787.585,1645.14c3.572-10.16,7.81-22.659,13.106-35.664-1.383-9.853-4.367-18.472-9.383-21.947C791.308,1587.529,779.137,1625.235,787.585,1645.14Z" transform="translate(-109.998 -232.367)" fill="#ed7d2b"/>
      <path id="Trazado_58702" data-name="Trazado 58702" d="M837.946,1498.384c1.983,14.868,4.776,62.849,18.438,85.745,4.4,7.381-11.1,11.519-11.181,11.5-2.079-.544-5.543-3.859-7.139-5.3-11.091-10-33.606-38.3-33.606-60.992,0-11.065,12.985-31.309,21.03-36.679A8.093,8.093,0,0,1,837.946,1498.384Z" transform="translate(-123.147 -168.655)" fill="#f99746"/>
      <path id="Trazado_58703" data-name="Trazado 58703" d="M809.13,1360.747s-2.009-.794-7.664-.336c0,0,.3,2.206,4.471,2.424A3.326,3.326,0,0,0,809.13,1360.747Z" transform="translate(-121.166 -81.88)" fill="#fff"/>
      <g id="Grupo_29545" data-name="Grupo 29545" transform="translate(736.907 1274.826)">
        <g id="Grupo_29544" data-name="Grupo 29544" transform="translate(0)">
          <path id="Trazado_58704" data-name="Trazado 58704" d="M1072.876,1362.044l-6.828-12.32-14.771,41.218,8.714,9.355Z" transform="translate(-1023.492 -1349.725)" fill="#163560"/>
          <path id="Trazado_58705" data-name="Trazado 58705" d="M982.762,1393.408l-13.731,39.226,36.5-8.187,12.885-38.254Z" transform="translate(-969.031 -1373.873)" fill="#1c468a"/>
          <path id="Trazado_58706" data-name="Trazado 58706" d="M969.931,1442.854l-.64-1.119,12.993-37.121.65.992Z" transform="translate(-969.203 -1386.071)" fill="#efdece"/>
          <path id="Trazado_58707" data-name="Trazado 58707" d="M1007.752,1391.415l34.6-6.734,1.7.511-35.653,7.215Z" transform="translate(-994.671 -1372.872)" fill="#fcecdb"/>
        </g>
        <path id="Trazado_58708" data-name="Trazado 58708" d="M1091.515,1363.218l-7.383-11.721-4.708,13.232,10.391-2.022Z" transform="translate(-1042.131 -1350.898)" fill="#efdece"/>
      </g>
      <path id="Trazado_58709" data-name="Trazado 58709" d="M801.787,1413.362c-1.187-.228-3.734-1.188-6.312-1.9a5.289,5.289,0,0,0,1.865-2.085c.46-1.453.766-1.92-.767-1.46s-6.9,2.921-6.9,2.921l.014.007c-3.048.891-5.856,5.2-5.856,5.2s-37.736,13.265-42.276,13.493c-7.023.353-53.77-16.863-53.77-16.863-11.032,2.435-8.557,15.99-4.761,18.4s37.433,14.642,57.368,14.872c10.1.117,46.826-23.49,46.826-23.49s4.293-1.962,7.667-1.349,11.193,0,12.879-2.76S803.78,1413.746,801.787,1413.362Z" transform="translate(-40.61 -113.321)" fill="#ffb27d"/>
      <path id="Trazado_58710" data-name="Trazado 58710" d="M708.575,1428.7s-4.181,13.235-18.54,16.247c0,0-23.711-7.305-11.905-23.459C678.13,1421.484,689.8,1412.81,708.575,1428.7Z" transform="translate(-37.314 -120.851)" fill="#f9ddbf"/>
      <path id="Trazado_58711" data-name="Trazado 58711" d="M1098.387,1414.164l0,0a3.627,3.627,0,0,0-.126-1.076s-3.383-5.35-4.49-5.569c-3.374-.666-3.374,3.776-2.659,6.642a11.648,11.648,0,0,0,2.793,4.947h0l-.134,4.186A8.954,8.954,0,0,0,1098.387,1414.164Z" transform="translate(-312.71 -113.127)" fill="#ffb27d"/>
    </g>
  </g>
</svg>
