<svg xmlns="http://www.w3.org/2000/svg" width="930.457" height="424" viewBox="0 0 930.457 424">
  <g id="Grupo_28754" data-name="Grupo 28754" transform="translate(-494.771 -3505)">
    <g id="Grupo_21012" data-name="Grupo 21012" transform="translate(157.771 2268)">
      <path id="Trazado_50054" data-name="Trazado 50054" d="M0,0H930.457V52H0Z" transform="translate(337 1300)" fill="#283593"/>
      <path id="Trazado_50030" data-name="Trazado 50030" d="M0,0H741.457V74H0Z" transform="translate(526 1416)" fill="#c6d738"/>
      <path id="Trazado_50033" data-name="Trazado 50033" d="M0,0H741.457V63.833H0Z" transform="translate(526 1544)" fill="#c6d738"/>
      <path id="Trazado_50058" data-name="Trazado 50058" d="M0,0H175V42H0Z" transform="translate(337 1491)" fill="#7cb342"/>
      <path id="Trazado_50060" data-name="Trazado 50060" d="M0,0H175V42H0Z" transform="translate(337 1619)" fill="#7cb342"/>
      <path id="Trazado_57254" data-name="Trazado 57254" d="M0,0H930.457V52H0Z" transform="translate(337 1237)" fill="#283593"/>
      <path id="Trazado_57255" data-name="Trazado 57255" d="M0,0H175V63.833H0Z" transform="translate(337.229 1416)" fill="#7cb342"/>
      <path id="Trazado_57256" data-name="Trazado 57256" d="M0,0H175V63.833H0Z" transform="translate(337.229 1544)" fill="#7cb342"/>
      <path id="Trazado_57257" data-name="Trazado 57257" d="M0,0H175V42H0Z" transform="translate(337 1363)" fill="#7cb342"/>
    </g>
    <path id="Trazado_57552" data-name="Trazado 57552" d="M164.841,21.215a8.664,8.664,0,0,1-3.164-.569,7.439,7.439,0,0,1-2.519-1.59,7.167,7.167,0,0,1-1.654-2.524,8.8,8.8,0,0,1-.6-3.3,8.408,8.408,0,0,1,1.031-4.216,7.021,7.021,0,0,1,2.831-2.788,8.476,8.476,0,0,1,4.077-.967A8.237,8.237,0,0,1,169.4,6.52a6.88,6.88,0,0,1,2.782,3.459l-3.008,1.1A4.252,4.252,0,0,0,167.5,8.979a4.756,4.756,0,0,0-2.664-.752,4.559,4.559,0,0,0-3.395,1.354,4.98,4.98,0,0,0-1.332,3.652,4.988,4.988,0,0,0,1.337,3.658,4.554,4.554,0,0,0,3.389,1.359,4.738,4.738,0,0,0,2.659-.757,4.271,4.271,0,0,0,1.67-2.1l3.008,1.1a6.908,6.908,0,0,1-2.782,3.464A8.211,8.211,0,0,1,164.841,21.215Zm14.717,0a6.944,6.944,0,0,1-3.126-.677,5.058,5.058,0,0,1-2.143-1.987,5.922,5.922,0,0,1-.779-3.083,5.4,5.4,0,0,1,1.676-4.189,7.005,7.005,0,0,1,8.755,0,5.4,5.4,0,0,1,1.676,4.189,5.432,5.432,0,0,1-1.676,4.206A6.219,6.219,0,0,1,179.558,21.215Zm-.032-2.46a2.835,2.835,0,0,0,2.186-.9,3.378,3.378,0,0,0,.833-2.385,3.378,3.378,0,0,0-.833-2.385,2.835,2.835,0,0,0-2.186-.9,2.731,2.731,0,0,0-2.122.908,3.409,3.409,0,0,0-.822,2.379,3.409,3.409,0,0,0,.822,2.379A2.731,2.731,0,0,0,179.525,18.755ZM201,9.742a4.219,4.219,0,0,1,2.847.9,3.209,3.209,0,0,1,1.042,2.573V21h-3.094V14.093a1.845,1.845,0,0,0-.494-1.4,1.731,1.731,0,0,0-1.246-.473,2,2,0,0,0-1.5.6,2.732,2.732,0,0,0-.58,1.944V21h-3.126V14.125a1.894,1.894,0,0,0-.494-1.423,1.762,1.762,0,0,0-1.278-.478,1.932,1.932,0,0,0-1.493.634,3.027,3.027,0,0,0-.58,2.073V21h-3.083V9.957H191v1.3a3.755,3.755,0,0,1,3.2-1.515,4.722,4.722,0,0,1,2.079.424,2.829,2.829,0,0,1,1.305,1.23A3.9,3.9,0,0,1,201,9.742Zm13.374,0a5.371,5.371,0,0,1,2.063.4,5.161,5.161,0,0,1,1.692,1.117,5.054,5.054,0,0,1,1.144,1.821,6.76,6.76,0,0,1,.419,2.422,6.76,6.76,0,0,1-.419,2.422,5.054,5.054,0,0,1-1.144,1.821,5.161,5.161,0,0,1-1.692,1.117,5.371,5.371,0,0,1-2.062.4,4.792,4.792,0,0,1-2-.408,3.131,3.131,0,0,1-1.386-1.16v6.682H207.9V9.957h2.933l.086,1.482a3.025,3.025,0,0,1,1.38-1.251A4.744,4.744,0,0,1,214.373,9.742Zm-.7,8.948a2.779,2.779,0,0,0,2.089-.865A3.212,3.212,0,0,0,216.6,15.5a3.212,3.212,0,0,0-.833-2.326,2.957,2.957,0,0,0-4.195.016,3.213,3.213,0,0,0-.838,2.31,3.213,3.213,0,0,0,.838,2.31A2.784,2.784,0,0,0,213.675,18.69Zm18.734-3.373-.032.741h-8.186a2.859,2.859,0,0,0,.881,2.02,2.817,2.817,0,0,0,1.944.7,2.715,2.715,0,0,0,1.456-.381,2.344,2.344,0,0,0,.929-1.112l2.836.419a4.821,4.821,0,0,1-1.934,2.589,5.749,5.749,0,0,1-3.266.924,5.978,5.978,0,0,1-4.3-1.52,5.546,5.546,0,0,1-1.6-4.216,5.579,5.579,0,0,1,1.6-4.216,5.8,5.8,0,0,1,4.2-1.542,5.543,5.543,0,0,1,3.964,1.407A5.52,5.52,0,0,1,232.409,15.317Zm-5.446-3.405a2.445,2.445,0,0,0-2.686,2.127h5.07a2.326,2.326,0,0,0-.763-1.579A2.417,2.417,0,0,0,226.963,11.912ZM238.876,21a3.335,3.335,0,0,1-2.492-.9,3.489,3.489,0,0,1-.881-2.551V12.331h-2.17V9.957h.7a1.822,1.822,0,0,0,1.375-.462,2.378,2.378,0,0,0,.44-1.644V6.391h2.793V9.957h2.277v2.374H238.64v4.888q0,1.429,1.278,1.429h1V21Zm14.781-5.683-.032.741h-8.186a2.859,2.859,0,0,0,.881,2.02,2.817,2.817,0,0,0,1.944.7,2.715,2.715,0,0,0,1.456-.381,2.344,2.344,0,0,0,.929-1.112l2.836.419a4.821,4.821,0,0,1-1.934,2.589,5.749,5.749,0,0,1-3.266.924,5.978,5.978,0,0,1-4.3-1.52,5.546,5.546,0,0,1-1.6-4.216,5.579,5.579,0,0,1,1.6-4.216,5.8,5.8,0,0,1,4.2-1.542,5.543,5.543,0,0,1,3.964,1.407A5.52,5.52,0,0,1,253.657,15.317Zm-5.446-3.405a2.445,2.445,0,0,0-2.686,2.127h5.07a2.326,2.326,0,0,0-.763-1.579A2.417,2.417,0,0,0,248.211,11.912Zm14.319-2.17a4.3,4.3,0,0,1,3.051.994,3.684,3.684,0,0,1,1.063,2.831V21h-3.1V14.232a1.924,1.924,0,0,0-.553-1.525,2.084,2.084,0,0,0-1.423-.483,2.908,2.908,0,0,0-.924.14,2.373,2.373,0,0,0-.773.435,1.923,1.923,0,0,0-.553.833,3.851,3.851,0,0,0-.209,1.278V21H256.01V9.957H259.1v1.225A4.255,4.255,0,0,1,262.53,9.742ZM274.637,21.2a5.9,5.9,0,0,1-4.265-1.59,5.491,5.491,0,0,1-1.654-4.146,5.479,5.479,0,0,1,1.649-4.146,6.556,6.556,0,0,1,7.847-.516,4.748,4.748,0,0,1,1.848,3l-2.857.312a2.448,2.448,0,0,0-.924-1.45,2.809,2.809,0,0,0-1.676-.483,2.533,2.533,0,0,0-2.02.9,3.538,3.538,0,0,0-.773,2.385,3.542,3.542,0,0,0,.773,2.379,2.527,2.527,0,0,0,2.02.908,2.785,2.785,0,0,0,1.67-.483,2.505,2.505,0,0,0,.929-1.45l2.857.312a4.761,4.761,0,0,1-1.864,3A5.86,5.86,0,0,1,274.637,21.2Zm9.206-12.9a1.737,1.737,0,0,1-1.268-.521,1.71,1.71,0,0,1-.526-1.262,1.69,1.69,0,0,1,.532-1.251,1.742,1.742,0,0,1,1.262-.521,1.788,1.788,0,0,1,1.772,1.772A1.788,1.788,0,0,1,283.843,8.3ZM282.264,21V9.957h3.115V21Zm15.372-3a10.33,10.33,0,0,0,.269,2.7V21h-2.89l-.247-1.2a3.591,3.591,0,0,1-1.547,1.063,5.7,5.7,0,0,1-2,.354,5.254,5.254,0,0,1-1.031-.1,3.506,3.506,0,0,1-.929-.328,2.82,2.82,0,0,1-.768-.575,2.52,2.52,0,0,1-.516-.875,3.488,3.488,0,0,1-.193-1.2,3.321,3.321,0,0,1,.2-1.2,2.807,2.807,0,0,1,.537-.9,3.258,3.258,0,0,1,.87-.655,6.657,6.657,0,0,1,1.1-.473,13.092,13.092,0,0,1,1.311-.344l1.815-.408a2,2,0,0,0,.822-.349.7.7,0,0,0,.242-.553,1.14,1.14,0,0,0-.542-1.063,2.533,2.533,0,0,0-1.316-.322,1.894,1.894,0,0,0-2.159,1.687l-2.739-.494a3.708,3.708,0,0,1,1.6-2.519A6.362,6.362,0,0,1,293,9.742q4.641,0,4.641,3.985Zm-5.446,1.117a2.488,2.488,0,0,0,1.912-.8,3.372,3.372,0,0,0,.741-2.369l-2.621.741a3.1,3.1,0,0,0-1.1.451.927.927,0,0,0-.381.795,1.029,1.029,0,0,0,.408.875A1.689,1.689,0,0,0,292.189,19.12Z" transform="translate(732.5 3515.416)" fill="#fff"/>
    <path id="Trazado_57555" data-name="Trazado 57555" d="M27.028,21V5.478h5.618a8.759,8.759,0,0,1,3.239.559,5.966,5.966,0,0,1,2.32,1.584,6.893,6.893,0,0,1,1.375,2.444,10.09,10.09,0,0,1,.467,3.169,10.127,10.127,0,0,1-.467,3.18,6.893,6.893,0,0,1-1.375,2.444,5.966,5.966,0,0,1-2.32,1.584A8.759,8.759,0,0,1,32.646,21Zm3.223-2.847h2.234a3.813,3.813,0,0,0,3.137-1.262,5.657,5.657,0,0,0,1.031-3.658,5.657,5.657,0,0,0-1.031-3.658,3.813,3.813,0,0,0-3.137-1.262H30.25Zm22.795-2.836-.032.741H44.828a2.859,2.859,0,0,0,.881,2.02,2.817,2.817,0,0,0,1.944.7,2.715,2.715,0,0,0,1.456-.381,2.344,2.344,0,0,0,.929-1.112l2.836.419a4.821,4.821,0,0,1-1.934,2.589,5.749,5.749,0,0,1-3.266.924,5.978,5.978,0,0,1-4.3-1.52,5.546,5.546,0,0,1-1.6-4.216,5.579,5.579,0,0,1,1.6-4.216,5.8,5.8,0,0,1,4.2-1.542,5.544,5.544,0,0,1,3.964,1.407A5.52,5.52,0,0,1,53.045,15.317ZM47.6,11.912a2.445,2.445,0,0,0-2.686,2.127h5.07a2.326,2.326,0,0,0-.763-1.579A2.417,2.417,0,0,0,47.6,11.912Zm11.688,9.3a6.171,6.171,0,0,1-3.223-.773,3.269,3.269,0,0,1-1.579-2.3l2.589-.73a2.08,2.08,0,0,0,2.213,1.644,2.285,2.285,0,0,0,1.128-.252.879.879,0,0,0,.44-.854.9.9,0,0,0-.183-.569,1.446,1.446,0,0,0-.564-.408,7.026,7.026,0,0,0-.752-.29q-.371-.118-.983-.285t-1.021-.317a6.836,6.836,0,0,1-.972-.414,4.147,4.147,0,0,1-.806-.569,2.3,2.3,0,0,1-.6-.865,3.12,3.12,0,0,1-.209-1.182,2.821,2.821,0,0,1,1.2-2.471,5.352,5.352,0,0,1,3.131-.838,5.487,5.487,0,0,1,2.89.709,3.209,3.209,0,0,1,1.482,2.213l-2.4.537A1.876,1.876,0,0,0,59.1,11.8a2.153,2.153,0,0,0-1.085.247.794.794,0,0,0-.43.73.837.837,0,0,0,.064.333.659.659,0,0,0,.226.269,3.29,3.29,0,0,0,.312.2,2.35,2.35,0,0,0,.44.177q.29.091.483.14l.564.145.575.15q.591.161,1.037.322a6.071,6.071,0,0,1,.951.451,3.412,3.412,0,0,1,.833.65,2.9,2.9,0,0,1,.542.913,3.372,3.372,0,0,1,.215,1.23,3.322,3.322,0,0,1-.371,1.6,2.782,2.782,0,0,1-1.015,1.08,4.941,4.941,0,0,1-1.434.58A7.439,7.439,0,0,1,59.287,21.215ZM71.049,21.2a5.9,5.9,0,0,1-4.265-1.59,5.491,5.491,0,0,1-1.654-4.146,5.479,5.479,0,0,1,1.649-4.146,6.556,6.556,0,0,1,7.847-.516,4.748,4.748,0,0,1,1.848,3l-2.857.312a2.448,2.448,0,0,0-.924-1.45,2.809,2.809,0,0,0-1.676-.483,2.533,2.533,0,0,0-2.02.9,3.538,3.538,0,0,0-.773,2.385A3.542,3.542,0,0,0,69,17.847a2.526,2.526,0,0,0,2.02.908,2.785,2.785,0,0,0,1.67-.483,2.505,2.505,0,0,0,.929-1.45l2.857.312a4.761,4.761,0,0,1-1.864,3A5.86,5.86,0,0,1,71.049,21.2Zm10.592-9.5a3.585,3.585,0,0,1,1.45-1.327,4.425,4.425,0,0,1,2.159-.553v2.761a4.183,4.183,0,0,0-2.643.666,2.908,2.908,0,0,0-.816,2.363V21H78.676V9.957h2.965Zm7-3.405a1.737,1.737,0,0,1-1.268-.521,1.71,1.71,0,0,1-.526-1.262,1.69,1.69,0,0,1,.532-1.251,1.742,1.742,0,0,1,1.262-.521A1.788,1.788,0,0,1,90.417,6.52,1.788,1.788,0,0,1,88.645,8.3ZM87.066,21V9.957h3.115V21ZM99.86,9.742a5.371,5.371,0,0,1,2.063.4,5.161,5.161,0,0,1,1.692,1.117,5.054,5.054,0,0,1,1.144,1.821,6.76,6.76,0,0,1,.419,2.422,6.76,6.76,0,0,1-.419,2.422,5.054,5.054,0,0,1-1.144,1.821,5.161,5.161,0,0,1-1.692,1.117,5.371,5.371,0,0,1-2.062.4,4.792,4.792,0,0,1-2-.408,3.131,3.131,0,0,1-1.386-1.16v6.682H93.382V9.957h2.933l.086,1.482a3.025,3.025,0,0,1,1.38-1.251A4.744,4.744,0,0,1,99.86,9.742Zm-.7,8.948a2.779,2.779,0,0,0,2.089-.865,3.212,3.212,0,0,0,.833-2.326,3.212,3.212,0,0,0-.833-2.326,2.957,2.957,0,0,0-4.195.016,3.213,3.213,0,0,0-.838,2.31,3.213,3.213,0,0,0,.838,2.31A2.784,2.784,0,0,0,99.162,18.69ZM112.5,21.2a5.9,5.9,0,0,1-4.265-1.59,5.491,5.491,0,0,1-1.654-4.146,5.479,5.479,0,0,1,1.649-4.146,6.556,6.556,0,0,1,7.847-.516,4.748,4.748,0,0,1,1.848,3l-2.857.312a2.448,2.448,0,0,0-.924-1.45,2.809,2.809,0,0,0-1.676-.483,2.533,2.533,0,0,0-2.02.9,3.538,3.538,0,0,0-.773,2.385,3.542,3.542,0,0,0,.773,2.379,2.526,2.526,0,0,0,2.02.908,2.785,2.785,0,0,0,1.67-.483,2.505,2.505,0,0,0,.929-1.45l2.857.312a4.761,4.761,0,0,1-1.864,3A5.86,5.86,0,0,1,112.5,21.2Zm9.206-12.9a1.737,1.737,0,0,1-1.268-.521,1.71,1.71,0,0,1-.526-1.262,1.69,1.69,0,0,1,.532-1.251,1.742,1.742,0,0,1,1.262-.521,1.788,1.788,0,0,1,1.772,1.772A1.788,1.788,0,0,1,121.709,8.3ZM120.13,21V9.957h3.115V21ZM130.636,8.453,133.451,4.5l1.525,1.074-2.438,2.879Zm.956,12.762a6.944,6.944,0,0,1-3.126-.677,5.058,5.058,0,0,1-2.143-1.987,5.922,5.922,0,0,1-.779-3.083,5.4,5.4,0,0,1,1.676-4.189,7.005,7.005,0,0,1,8.755,0,5.4,5.4,0,0,1,1.676,4.189,5.432,5.432,0,0,1-1.676,4.206A6.219,6.219,0,0,1,131.592,21.215Zm-.032-2.46a2.835,2.835,0,0,0,2.186-.9,3.378,3.378,0,0,0,.833-2.385,3.378,3.378,0,0,0-.833-2.385,2.835,2.835,0,0,0-2.186-.9,2.731,2.731,0,0,0-2.122.908,3.409,3.409,0,0,0-.822,2.379,3.409,3.409,0,0,0,.822,2.379A2.731,2.731,0,0,0,131.56,18.755Zm14.91-9.013a4.3,4.3,0,0,1,3.051.994,3.684,3.684,0,0,1,1.063,2.831V21h-3.1V14.232a1.923,1.923,0,0,0-.553-1.525,2.084,2.084,0,0,0-1.423-.483,2.908,2.908,0,0,0-.924.14,2.373,2.373,0,0,0-.773.435,1.923,1.923,0,0,0-.553.833,3.85,3.85,0,0,0-.209,1.278V21H139.95V9.957h3.094v1.225A4.255,4.255,0,0,1,146.47,9.742Z" transform="translate(495 3581.416)" fill="#fff"/>
    <path id="Trazado_57553" data-name="Trazado 57553" d="M23.913,21.215a8.664,8.664,0,0,1-3.164-.569,7.439,7.439,0,0,1-2.519-1.59,7.167,7.167,0,0,1-1.654-2.524,8.8,8.8,0,0,1-.6-3.3,8.408,8.408,0,0,1,1.031-4.216,7.021,7.021,0,0,1,2.831-2.788,8.476,8.476,0,0,1,4.077-.967A8.237,8.237,0,0,1,28.467,6.52,6.88,6.88,0,0,1,31.25,9.979l-3.008,1.1a4.252,4.252,0,0,0-1.665-2.095,4.756,4.756,0,0,0-2.664-.752,4.559,4.559,0,0,0-3.395,1.354,4.98,4.98,0,0,0-1.332,3.652,4.988,4.988,0,0,0,1.337,3.658,4.554,4.554,0,0,0,3.389,1.359,4.738,4.738,0,0,0,2.659-.757,4.271,4.271,0,0,0,1.67-2.1l3.008,1.1a6.908,6.908,0,0,1-2.782,3.464A8.211,8.211,0,0,1,23.913,21.215Zm14.717,0a6.944,6.944,0,0,1-3.126-.677,5.058,5.058,0,0,1-2.143-1.987,5.922,5.922,0,0,1-.779-3.083,5.4,5.4,0,0,1,1.676-4.189,6.217,6.217,0,0,1,4.372-1.536,6.232,6.232,0,0,1,4.383,1.536,5.4,5.4,0,0,1,1.676,4.189,5.432,5.432,0,0,1-1.676,4.206A6.219,6.219,0,0,1,38.629,21.215Zm-.032-2.46a2.835,2.835,0,0,0,2.186-.9,3.378,3.378,0,0,0,.833-2.385,3.378,3.378,0,0,0-.833-2.385,2.835,2.835,0,0,0-2.186-.9,2.731,2.731,0,0,0-2.122.908,3.409,3.409,0,0,0-.822,2.379,3.409,3.409,0,0,0,.822,2.379A2.731,2.731,0,0,0,38.6,18.755ZM60.071,9.742a4.219,4.219,0,0,1,2.847.9,3.209,3.209,0,0,1,1.042,2.573V21H60.866V14.093a1.845,1.845,0,0,0-.494-1.4,1.731,1.731,0,0,0-1.246-.473,2,2,0,0,0-1.5.6,2.732,2.732,0,0,0-.58,1.944V21H53.916V14.125a1.894,1.894,0,0,0-.494-1.423,1.762,1.762,0,0,0-1.278-.478,1.932,1.932,0,0,0-1.493.634,3.027,3.027,0,0,0-.58,2.073V21H46.987V9.957H50.07v1.3a3.755,3.755,0,0,1,3.2-1.515,4.722,4.722,0,0,1,2.079.424,2.829,2.829,0,0,1,1.305,1.23A3.9,3.9,0,0,1,60.071,9.742Zm13.374,0a5.371,5.371,0,0,1,2.063.4A5.161,5.161,0,0,1,77.2,11.257a5.054,5.054,0,0,1,1.144,1.821,6.76,6.76,0,0,1,.419,2.422,6.76,6.76,0,0,1-.419,2.422A5.054,5.054,0,0,1,77.2,19.743a5.161,5.161,0,0,1-1.692,1.117,5.371,5.371,0,0,1-2.062.4,4.792,4.792,0,0,1-2-.408,3.131,3.131,0,0,1-1.386-1.16v6.682H66.967V9.957H69.9l.086,1.482a3.025,3.025,0,0,1,1.38-1.251A4.744,4.744,0,0,1,73.445,9.742Zm-.7,8.948a2.779,2.779,0,0,0,2.089-.865,3.212,3.212,0,0,0,.833-2.326,3.212,3.212,0,0,0-.833-2.326,2.957,2.957,0,0,0-4.195.016A3.213,3.213,0,0,0,69.8,15.5a3.213,3.213,0,0,0,.838,2.31A2.784,2.784,0,0,0,72.747,18.69Zm18.734-3.373-.032.741H83.263a2.859,2.859,0,0,0,.881,2.02,2.817,2.817,0,0,0,1.944.7,2.715,2.715,0,0,0,1.456-.381,2.344,2.344,0,0,0,.929-1.112l2.836.419a4.821,4.821,0,0,1-1.934,2.589,5.749,5.749,0,0,1-3.266.924,5.978,5.978,0,0,1-4.3-1.52,5.546,5.546,0,0,1-1.6-4.216,5.579,5.579,0,0,1,1.6-4.216,5.8,5.8,0,0,1,4.2-1.542,5.544,5.544,0,0,1,3.964,1.407A5.52,5.52,0,0,1,91.481,15.317Zm-5.446-3.405a2.445,2.445,0,0,0-2.686,2.127h5.07a2.326,2.326,0,0,0-.763-1.579A2.417,2.417,0,0,0,86.035,11.912ZM97.948,21a3.335,3.335,0,0,1-2.492-.9,3.489,3.489,0,0,1-.881-2.551V12.331H92.4V9.957h.7A1.822,1.822,0,0,0,94.478,9.5a2.378,2.378,0,0,0,.44-1.644V6.391h2.793V9.957h2.277v2.374H97.711v4.888q0,1.429,1.278,1.429h1V21Zm6.016-12.7a1.737,1.737,0,0,1-1.268-.521,1.71,1.71,0,0,1-.526-1.262,1.69,1.69,0,0,1,.532-1.251,1.742,1.742,0,0,1,1.262-.521,1.788,1.788,0,0,1,1.772,1.772A1.788,1.788,0,0,1,103.963,8.3ZM102.384,21V9.957H105.5V21ZM116.532,4.5h3.094V21h-2.933l-.075-1.439a3.154,3.154,0,0,1-1.4,1.251,4.719,4.719,0,0,1-2.068.446,5.371,5.371,0,0,1-2.062-.4,4.967,4.967,0,0,1-2.836-2.943,6.717,6.717,0,0,1-.419-2.417,6.278,6.278,0,0,1,.73-3.078,5.005,5.005,0,0,1,1.928-2,5.31,5.31,0,0,1,2.659-.677,4.837,4.837,0,0,1,2,.4,3.128,3.128,0,0,1,1.38,1.144Zm-2.675,14.19a2.754,2.754,0,0,0,2.089-.881,3.225,3.225,0,0,0,.833-2.31,3.232,3.232,0,0,0-.838-2.315,2.751,2.751,0,0,0-2.084-.886,2.783,2.783,0,0,0-2.1.87,3.231,3.231,0,0,0-.833,2.331,3.216,3.216,0,0,0,.833,2.32A2.783,2.783,0,0,0,113.857,18.69Zm14.115,2.524a6.944,6.944,0,0,1-3.126-.677,5.058,5.058,0,0,1-2.143-1.987,5.922,5.922,0,0,1-.779-3.083,5.4,5.4,0,0,1,1.676-4.189,7.005,7.005,0,0,1,8.755,0,5.4,5.4,0,0,1,1.676,4.189,5.432,5.432,0,0,1-1.676,4.206A6.219,6.219,0,0,1,127.972,21.215Zm-.032-2.46a2.835,2.835,0,0,0,2.186-.9,3.378,3.378,0,0,0,.833-2.385,3.378,3.378,0,0,0-.833-2.385,2.835,2.835,0,0,0-2.186-.9,2.731,2.731,0,0,0-2.122.908A3.409,3.409,0,0,0,125,15.468a3.409,3.409,0,0,0,.822,2.379A2.731,2.731,0,0,0,127.94,18.755Zm11.354-7.047a3.585,3.585,0,0,1,1.45-1.327,4.425,4.425,0,0,1,2.159-.553v2.761a4.183,4.183,0,0,0-2.643.666,2.908,2.908,0,0,0-.816,2.363V21H136.33V9.957h2.965Zm15.684-6.23h2.943V21h-3.083V8.657l-3.566,3.319V8.8Z" transform="translate(682 3581.416)" fill="#fff"/>
    <path id="Trazado_57554" data-name="Trazado 57554" d="M23.913,21.215a8.664,8.664,0,0,1-3.164-.569,7.439,7.439,0,0,1-2.519-1.59,7.167,7.167,0,0,1-1.654-2.524,8.8,8.8,0,0,1-.6-3.3,8.408,8.408,0,0,1,1.031-4.216,7.021,7.021,0,0,1,2.831-2.788,8.476,8.476,0,0,1,4.077-.967A8.237,8.237,0,0,1,28.467,6.52,6.88,6.88,0,0,1,31.25,9.979l-3.008,1.1a4.252,4.252,0,0,0-1.665-2.095,4.756,4.756,0,0,0-2.664-.752,4.559,4.559,0,0,0-3.395,1.354,4.98,4.98,0,0,0-1.332,3.652,4.988,4.988,0,0,0,1.337,3.658,4.554,4.554,0,0,0,3.389,1.359,4.738,4.738,0,0,0,2.659-.757,4.271,4.271,0,0,0,1.67-2.1l3.008,1.1a6.908,6.908,0,0,1-2.782,3.464A8.211,8.211,0,0,1,23.913,21.215Zm14.717,0a6.944,6.944,0,0,1-3.126-.677,5.058,5.058,0,0,1-2.143-1.987,5.922,5.922,0,0,1-.779-3.083,5.4,5.4,0,0,1,1.676-4.189,6.217,6.217,0,0,1,4.372-1.536,6.232,6.232,0,0,1,4.383,1.536,5.4,5.4,0,0,1,1.676,4.189,5.432,5.432,0,0,1-1.676,4.206A6.219,6.219,0,0,1,38.629,21.215Zm-.032-2.46a2.835,2.835,0,0,0,2.186-.9,3.378,3.378,0,0,0,.833-2.385,3.378,3.378,0,0,0-.833-2.385,2.835,2.835,0,0,0-2.186-.9,2.731,2.731,0,0,0-2.122.908,3.409,3.409,0,0,0-.822,2.379,3.409,3.409,0,0,0,.822,2.379A2.731,2.731,0,0,0,38.6,18.755ZM60.071,9.742a4.219,4.219,0,0,1,2.847.9,3.209,3.209,0,0,1,1.042,2.573V21H60.866V14.093a1.845,1.845,0,0,0-.494-1.4,1.731,1.731,0,0,0-1.246-.473,2,2,0,0,0-1.5.6,2.732,2.732,0,0,0-.58,1.944V21H53.916V14.125a1.894,1.894,0,0,0-.494-1.423,1.762,1.762,0,0,0-1.278-.478,1.932,1.932,0,0,0-1.493.634,3.027,3.027,0,0,0-.58,2.073V21H46.987V9.957H50.07v1.3a3.755,3.755,0,0,1,3.2-1.515,4.722,4.722,0,0,1,2.079.424,2.829,2.829,0,0,1,1.305,1.23A3.9,3.9,0,0,1,60.071,9.742Zm13.374,0a5.371,5.371,0,0,1,2.063.4A5.161,5.161,0,0,1,77.2,11.257a5.054,5.054,0,0,1,1.144,1.821,6.76,6.76,0,0,1,.419,2.422,6.76,6.76,0,0,1-.419,2.422A5.054,5.054,0,0,1,77.2,19.743a5.161,5.161,0,0,1-1.692,1.117,5.371,5.371,0,0,1-2.062.4,4.792,4.792,0,0,1-2-.408,3.131,3.131,0,0,1-1.386-1.16v6.682H66.967V9.957H69.9l.086,1.482a3.025,3.025,0,0,1,1.38-1.251A4.744,4.744,0,0,1,73.445,9.742Zm-.7,8.948a2.779,2.779,0,0,0,2.089-.865,3.212,3.212,0,0,0,.833-2.326,3.212,3.212,0,0,0-.833-2.326,2.957,2.957,0,0,0-4.195.016A3.213,3.213,0,0,0,69.8,15.5a3.213,3.213,0,0,0,.838,2.31A2.784,2.784,0,0,0,72.747,18.69Zm18.734-3.373-.032.741H83.263a2.859,2.859,0,0,0,.881,2.02,2.817,2.817,0,0,0,1.944.7,2.715,2.715,0,0,0,1.456-.381,2.344,2.344,0,0,0,.929-1.112l2.836.419a4.821,4.821,0,0,1-1.934,2.589,5.749,5.749,0,0,1-3.266.924,5.978,5.978,0,0,1-4.3-1.52,5.546,5.546,0,0,1-1.6-4.216,5.579,5.579,0,0,1,1.6-4.216,5.8,5.8,0,0,1,4.2-1.542,5.544,5.544,0,0,1,3.964,1.407A5.52,5.52,0,0,1,91.481,15.317Zm-5.446-3.405a2.445,2.445,0,0,0-2.686,2.127h5.07a2.326,2.326,0,0,0-.763-1.579A2.417,2.417,0,0,0,86.035,11.912ZM97.948,21a3.335,3.335,0,0,1-2.492-.9,3.489,3.489,0,0,1-.881-2.551V12.331H92.4V9.957h.7A1.822,1.822,0,0,0,94.478,9.5a2.378,2.378,0,0,0,.44-1.644V6.391h2.793V9.957h2.277v2.374H97.711v4.888q0,1.429,1.278,1.429h1V21Zm6.016-12.7a1.737,1.737,0,0,1-1.268-.521,1.71,1.71,0,0,1-.526-1.262,1.69,1.69,0,0,1,.532-1.251,1.742,1.742,0,0,1,1.262-.521,1.788,1.788,0,0,1,1.772,1.772A1.788,1.788,0,0,1,103.963,8.3ZM102.384,21V9.957H105.5V21ZM116.532,4.5h3.094V21h-2.933l-.075-1.439a3.154,3.154,0,0,1-1.4,1.251,4.719,4.719,0,0,1-2.068.446,5.371,5.371,0,0,1-2.062-.4,4.967,4.967,0,0,1-2.836-2.943,6.717,6.717,0,0,1-.419-2.417,6.278,6.278,0,0,1,.73-3.078,5.005,5.005,0,0,1,1.928-2,5.31,5.31,0,0,1,2.659-.677,4.837,4.837,0,0,1,2,.4,3.128,3.128,0,0,1,1.38,1.144Zm-2.675,14.19a2.754,2.754,0,0,0,2.089-.881,3.225,3.225,0,0,0,.833-2.31,3.232,3.232,0,0,0-.838-2.315,2.751,2.751,0,0,0-2.084-.886,2.783,2.783,0,0,0-2.1.87,3.231,3.231,0,0,0-.833,2.331,3.216,3.216,0,0,0,.833,2.32A2.783,2.783,0,0,0,113.857,18.69Zm14.115,2.524a6.944,6.944,0,0,1-3.126-.677,5.058,5.058,0,0,1-2.143-1.987,5.922,5.922,0,0,1-.779-3.083,5.4,5.4,0,0,1,1.676-4.189,7.005,7.005,0,0,1,8.755,0,5.4,5.4,0,0,1,1.676,4.189,5.432,5.432,0,0,1-1.676,4.206A6.219,6.219,0,0,1,127.972,21.215Zm-.032-2.46a2.835,2.835,0,0,0,2.186-.9,3.378,3.378,0,0,0,.833-2.385,3.378,3.378,0,0,0-.833-2.385,2.835,2.835,0,0,0-2.186-.9,2.731,2.731,0,0,0-2.122.908A3.409,3.409,0,0,0,125,15.468a3.409,3.409,0,0,0,.822,2.379A2.731,2.731,0,0,0,127.94,18.755Zm11.354-7.047a3.585,3.585,0,0,1,1.45-1.327,4.425,4.425,0,0,1,2.159-.553v2.761a4.183,4.183,0,0,0-2.643.666,2.908,2.908,0,0,0-.816,2.363V21H136.33V9.957h2.965Zm14.942,6.531h6.617V21H149.908V18.669l6.177-6.306a3.887,3.887,0,0,0,1.343-2.675,1.892,1.892,0,0,0-.553-1.439,2.178,2.178,0,0,0-1.563-.526q-2.2,0-2.2,2.5v1.149l-3.083-.312V10.29a4.841,4.841,0,0,1,1.418-3.733,5.431,5.431,0,0,1,3.846-1.316,5.689,5.689,0,0,1,3.744,1.192,4.019,4.019,0,0,1,1.445,3.276,4.646,4.646,0,0,1-.489,2.127,8.89,8.89,0,0,1-1.552,2.073Z" transform="translate(872 3581.416)" fill="#fff"/>
    <path id="Trazado_57551" data-name="Trazado 57551" d="M23.913,21.215a8.664,8.664,0,0,1-3.164-.569,7.439,7.439,0,0,1-2.519-1.59,7.167,7.167,0,0,1-1.654-2.524,8.8,8.8,0,0,1-.6-3.3,8.408,8.408,0,0,1,1.031-4.216,7.021,7.021,0,0,1,2.831-2.788,8.476,8.476,0,0,1,4.077-.967A8.237,8.237,0,0,1,28.467,6.52,6.88,6.88,0,0,1,31.25,9.979l-3.008,1.1a4.252,4.252,0,0,0-1.665-2.095,4.756,4.756,0,0,0-2.664-.752,4.559,4.559,0,0,0-3.395,1.354,4.98,4.98,0,0,0-1.332,3.652,4.988,4.988,0,0,0,1.337,3.658,4.554,4.554,0,0,0,3.389,1.359,4.738,4.738,0,0,0,2.659-.757,4.271,4.271,0,0,0,1.67-2.1l3.008,1.1a6.908,6.908,0,0,1-2.782,3.464A8.211,8.211,0,0,1,23.913,21.215Zm14.717,0a6.944,6.944,0,0,1-3.126-.677,5.058,5.058,0,0,1-2.143-1.987,5.922,5.922,0,0,1-.779-3.083,5.4,5.4,0,0,1,1.676-4.189,6.217,6.217,0,0,1,4.372-1.536,6.232,6.232,0,0,1,4.383,1.536,5.4,5.4,0,0,1,1.676,4.189,5.432,5.432,0,0,1-1.676,4.206A6.219,6.219,0,0,1,38.629,21.215Zm-.032-2.46a2.835,2.835,0,0,0,2.186-.9,3.378,3.378,0,0,0,.833-2.385,3.378,3.378,0,0,0-.833-2.385,2.835,2.835,0,0,0-2.186-.9,2.731,2.731,0,0,0-2.122.908,3.409,3.409,0,0,0-.822,2.379,3.409,3.409,0,0,0,.822,2.379A2.731,2.731,0,0,0,38.6,18.755ZM60.071,9.742a4.219,4.219,0,0,1,2.847.9,3.209,3.209,0,0,1,1.042,2.573V21H60.866V14.093a1.845,1.845,0,0,0-.494-1.4,1.731,1.731,0,0,0-1.246-.473,2,2,0,0,0-1.5.6,2.732,2.732,0,0,0-.58,1.944V21H53.916V14.125a1.894,1.894,0,0,0-.494-1.423,1.762,1.762,0,0,0-1.278-.478,1.932,1.932,0,0,0-1.493.634,3.027,3.027,0,0,0-.58,2.073V21H46.987V9.957H50.07v1.3a3.755,3.755,0,0,1,3.2-1.515,4.722,4.722,0,0,1,2.079.424,2.829,2.829,0,0,1,1.305,1.23A3.9,3.9,0,0,1,60.071,9.742Zm13.374,0a5.371,5.371,0,0,1,2.063.4A5.161,5.161,0,0,1,77.2,11.257a5.054,5.054,0,0,1,1.144,1.821,6.76,6.76,0,0,1,.419,2.422,6.76,6.76,0,0,1-.419,2.422A5.054,5.054,0,0,1,77.2,19.743a5.161,5.161,0,0,1-1.692,1.117,5.371,5.371,0,0,1-2.062.4,4.792,4.792,0,0,1-2-.408,3.131,3.131,0,0,1-1.386-1.16v6.682H66.967V9.957H69.9l.086,1.482a3.025,3.025,0,0,1,1.38-1.251A4.744,4.744,0,0,1,73.445,9.742Zm-.7,8.948a2.779,2.779,0,0,0,2.089-.865,3.212,3.212,0,0,0,.833-2.326,3.212,3.212,0,0,0-.833-2.326,2.957,2.957,0,0,0-4.195.016A3.213,3.213,0,0,0,69.8,15.5a3.213,3.213,0,0,0,.838,2.31A2.784,2.784,0,0,0,72.747,18.69Zm18.734-3.373-.032.741H83.263a2.859,2.859,0,0,0,.881,2.02,2.817,2.817,0,0,0,1.944.7,2.715,2.715,0,0,0,1.456-.381,2.344,2.344,0,0,0,.929-1.112l2.836.419a4.821,4.821,0,0,1-1.934,2.589,5.749,5.749,0,0,1-3.266.924,5.978,5.978,0,0,1-4.3-1.52,5.546,5.546,0,0,1-1.6-4.216,5.579,5.579,0,0,1,1.6-4.216,5.8,5.8,0,0,1,4.2-1.542,5.544,5.544,0,0,1,3.964,1.407A5.52,5.52,0,0,1,91.481,15.317Zm-5.446-3.405a2.445,2.445,0,0,0-2.686,2.127h5.07a2.326,2.326,0,0,0-.763-1.579A2.417,2.417,0,0,0,86.035,11.912ZM97.948,21a3.335,3.335,0,0,1-2.492-.9,3.489,3.489,0,0,1-.881-2.551V12.331H92.4V9.957h.7A1.822,1.822,0,0,0,94.478,9.5a2.378,2.378,0,0,0,.44-1.644V6.391h2.793V9.957h2.277v2.374H97.711v4.888q0,1.429,1.278,1.429h1V21Zm6.016-12.7a1.737,1.737,0,0,1-1.268-.521,1.71,1.71,0,0,1-.526-1.262,1.69,1.69,0,0,1,.532-1.251,1.742,1.742,0,0,1,1.262-.521,1.788,1.788,0,0,1,1.772,1.772A1.788,1.788,0,0,1,103.963,8.3ZM102.384,21V9.957H105.5V21ZM116.532,4.5h3.094V21h-2.933l-.075-1.439a3.154,3.154,0,0,1-1.4,1.251,4.719,4.719,0,0,1-2.068.446,5.371,5.371,0,0,1-2.062-.4,4.967,4.967,0,0,1-2.836-2.943,6.717,6.717,0,0,1-.419-2.417,6.278,6.278,0,0,1,.73-3.078,5.005,5.005,0,0,1,1.928-2,5.31,5.31,0,0,1,2.659-.677,4.837,4.837,0,0,1,2,.4,3.128,3.128,0,0,1,1.38,1.144Zm-2.675,14.19a2.754,2.754,0,0,0,2.089-.881,3.225,3.225,0,0,0,.833-2.31,3.232,3.232,0,0,0-.838-2.315,2.751,2.751,0,0,0-2.084-.886,2.783,2.783,0,0,0-2.1.87,3.231,3.231,0,0,0-.833,2.331,3.216,3.216,0,0,0,.833,2.32A2.783,2.783,0,0,0,113.857,18.69Zm14.115,2.524a6.944,6.944,0,0,1-3.126-.677,5.058,5.058,0,0,1-2.143-1.987,5.922,5.922,0,0,1-.779-3.083,5.4,5.4,0,0,1,1.676-4.189,7.005,7.005,0,0,1,8.755,0,5.4,5.4,0,0,1,1.676,4.189,5.432,5.432,0,0,1-1.676,4.206A6.219,6.219,0,0,1,127.972,21.215Zm-.032-2.46a2.835,2.835,0,0,0,2.186-.9,3.378,3.378,0,0,0,.833-2.385,3.378,3.378,0,0,0-.833-2.385,2.835,2.835,0,0,0-2.186-.9,2.731,2.731,0,0,0-2.122.908A3.409,3.409,0,0,0,125,15.468a3.409,3.409,0,0,0,.822,2.379A2.731,2.731,0,0,0,127.94,18.755Zm11.354-7.047a3.585,3.585,0,0,1,1.45-1.327,4.425,4.425,0,0,1,2.159-.553v2.761a4.183,4.183,0,0,0-2.643.666,2.908,2.908,0,0,0-.816,2.363V21H136.33V9.957h2.965Zm16.081,9.507a5.57,5.57,0,0,1-4.232-1.418,6.149,6.149,0,0,1-1.332-4.34l3.169-.14a11.222,11.222,0,0,0,.048,1.139,3.936,3.936,0,0,0,.193.881,1.576,1.576,0,0,0,.408.661,1.855,1.855,0,0,0,.7.381,3.45,3.45,0,0,0,1.047.14,2.517,2.517,0,0,0,1.832-.623,2.178,2.178,0,0,0,.639-1.633,2.2,2.2,0,0,0-.612-1.681,2.3,2.3,0,0,0-1.644-.575h-.6V11.6h.559a1.68,1.68,0,0,0,1.284-.548,1.954,1.954,0,0,0,.51-1.386,1.561,1.561,0,0,0-.559-1.289,2.271,2.271,0,0,0-1.472-.451,2.206,2.206,0,0,0-.838.145,1.563,1.563,0,0,0-.564.371,1.639,1.639,0,0,0-.333.569,2.993,2.993,0,0,0-.161.677,6.757,6.757,0,0,0-.038.752l-3.126-.15a4.969,4.969,0,0,1,1.332-3.733,5.079,5.079,0,0,1,3.7-1.294,5.283,5.283,0,0,1,3.545,1.187,3.717,3.717,0,0,1,1.4,2.949,3.356,3.356,0,0,1-.6,2,3.413,3.413,0,0,1-1.359,1.182,3.825,3.825,0,0,1,.988.44,4.051,4.051,0,0,1,.865.741,3.307,3.307,0,0,1,.639,1.128,4.538,4.538,0,0,1,.236,1.5,4.387,4.387,0,0,1-1.536,3.507A6.059,6.059,0,0,1,155.375,21.215Z" transform="translate(1061 3581.416)" fill="#fff"/>
    <path id="Trazado_57550" data-name="Trazado 57550" d="M23.666,21.215a8.664,8.664,0,0,1-3.164-.569,7.439,7.439,0,0,1-2.519-1.59,7.167,7.167,0,0,1-1.654-2.524,8.8,8.8,0,0,1-.6-3.3,8.408,8.408,0,0,1,1.031-4.216,7.021,7.021,0,0,1,2.831-2.788,8.476,8.476,0,0,1,4.077-.967A8.237,8.237,0,0,1,28.22,6.52,6.88,6.88,0,0,1,31,9.979l-3.008,1.1A4.252,4.252,0,0,0,26.33,8.979a4.756,4.756,0,0,0-2.664-.752,4.559,4.559,0,0,0-3.395,1.354,4.98,4.98,0,0,0-1.332,3.652,4.988,4.988,0,0,0,1.337,3.658,4.554,4.554,0,0,0,3.389,1.359,4.738,4.738,0,0,0,2.659-.757,4.271,4.271,0,0,0,1.67-2.1L31,16.488a6.908,6.908,0,0,1-2.782,3.464A8.211,8.211,0,0,1,23.666,21.215Zm14.717,0a6.944,6.944,0,0,1-3.126-.677,5.058,5.058,0,0,1-2.143-1.987,5.922,5.922,0,0,1-.779-3.083,5.4,5.4,0,0,1,1.676-4.189,6.217,6.217,0,0,1,4.372-1.536,6.232,6.232,0,0,1,4.383,1.536,5.4,5.4,0,0,1,1.676,4.189,5.432,5.432,0,0,1-1.676,4.206A6.219,6.219,0,0,1,38.382,21.215Zm-.032-2.46a2.835,2.835,0,0,0,2.186-.9,3.378,3.378,0,0,0,.833-2.385,3.378,3.378,0,0,0-.833-2.385,2.835,2.835,0,0,0-2.186-.9,2.731,2.731,0,0,0-2.122.908,3.409,3.409,0,0,0-.822,2.379,3.409,3.409,0,0,0,.822,2.379A2.731,2.731,0,0,0,38.35,18.755ZM59.824,9.742a4.219,4.219,0,0,1,2.847.9,3.209,3.209,0,0,1,1.042,2.573V21H60.619V14.093a1.845,1.845,0,0,0-.494-1.4,1.731,1.731,0,0,0-1.246-.473,2,2,0,0,0-1.5.6,2.732,2.732,0,0,0-.58,1.944V21H53.668V14.125a1.894,1.894,0,0,0-.494-1.423,1.762,1.762,0,0,0-1.278-.478,1.932,1.932,0,0,0-1.493.634,3.027,3.027,0,0,0-.58,2.073V21H46.74V9.957h3.083v1.3a3.755,3.755,0,0,1,3.2-1.515,4.722,4.722,0,0,1,2.079.424,2.829,2.829,0,0,1,1.305,1.23A3.9,3.9,0,0,1,59.824,9.742Zm13.374,0a5.371,5.371,0,0,1,2.063.4,5.161,5.161,0,0,1,1.692,1.117A5.054,5.054,0,0,1,78.1,13.078a6.76,6.76,0,0,1,.419,2.422,6.76,6.76,0,0,1-.419,2.422,5.054,5.054,0,0,1-1.144,1.821A5.161,5.161,0,0,1,75.26,20.86a5.371,5.371,0,0,1-2.062.4,4.792,4.792,0,0,1-2-.408,3.131,3.131,0,0,1-1.386-1.16v6.682H66.72V9.957h2.933l.086,1.482a3.025,3.025,0,0,1,1.38-1.251A4.744,4.744,0,0,1,73.2,9.742Zm-.7,8.948a2.779,2.779,0,0,0,2.089-.865,3.212,3.212,0,0,0,.833-2.326,3.212,3.212,0,0,0-.833-2.326,2.957,2.957,0,0,0-4.195.016,3.213,3.213,0,0,0-.838,2.31,3.213,3.213,0,0,0,.838,2.31A2.784,2.784,0,0,0,72.5,18.69Zm18.734-3.373-.032.741H83.016a2.859,2.859,0,0,0,.881,2.02,2.817,2.817,0,0,0,1.944.7A2.715,2.715,0,0,0,87.3,18.4a2.344,2.344,0,0,0,.929-1.112l2.836.419a4.821,4.821,0,0,1-1.934,2.589,5.749,5.749,0,0,1-3.266.924,5.978,5.978,0,0,1-4.3-1.52,5.546,5.546,0,0,1-1.6-4.216,5.579,5.579,0,0,1,1.6-4.216,5.8,5.8,0,0,1,4.2-1.542,5.544,5.544,0,0,1,3.964,1.407A5.52,5.52,0,0,1,91.234,15.317Zm-5.446-3.405A2.445,2.445,0,0,0,83.1,14.039h5.07a2.326,2.326,0,0,0-.763-1.579A2.417,2.417,0,0,0,85.788,11.912ZM97.7,21a3.335,3.335,0,0,1-2.492-.9,3.489,3.489,0,0,1-.881-2.551V12.331h-2.17V9.957h.7A1.822,1.822,0,0,0,94.231,9.5a2.378,2.378,0,0,0,.44-1.644V6.391h2.793V9.957h2.277v2.374H97.464v4.888q0,1.429,1.278,1.429h1V21Zm6.016-12.7a1.737,1.737,0,0,1-1.268-.521,1.71,1.71,0,0,1-.526-1.262,1.69,1.69,0,0,1,.532-1.251,1.742,1.742,0,0,1,1.262-.521,1.788,1.788,0,0,1,1.772,1.772A1.788,1.788,0,0,1,103.716,8.3ZM102.137,21V9.957h3.115V21ZM116.285,4.5h3.094V21h-2.933l-.075-1.439a3.154,3.154,0,0,1-1.4,1.251,4.719,4.719,0,0,1-2.068.446,5.371,5.371,0,0,1-2.062-.4A4.967,4.967,0,0,1,108,17.917a6.717,6.717,0,0,1-.419-2.417,6.278,6.278,0,0,1,.73-3.078,5.005,5.005,0,0,1,1.928-2,5.31,5.31,0,0,1,2.659-.677,4.837,4.837,0,0,1,2,.4,3.128,3.128,0,0,1,1.38,1.144ZM113.61,18.69a2.754,2.754,0,0,0,2.089-.881,3.225,3.225,0,0,0,.833-2.31,3.232,3.232,0,0,0-.838-2.315,2.751,2.751,0,0,0-2.084-.886,2.783,2.783,0,0,0-2.1.87,3.231,3.231,0,0,0-.833,2.331,3.216,3.216,0,0,0,.833,2.32A2.783,2.783,0,0,0,113.61,18.69Zm14.115,2.524a6.944,6.944,0,0,1-3.126-.677,5.058,5.058,0,0,1-2.143-1.987,5.922,5.922,0,0,1-.779-3.083,5.4,5.4,0,0,1,1.676-4.189,7.005,7.005,0,0,1,8.755,0,5.4,5.4,0,0,1,1.676,4.189,5.432,5.432,0,0,1-1.676,4.206A6.219,6.219,0,0,1,127.725,21.215Zm-.032-2.46a2.835,2.835,0,0,0,2.186-.9,3.378,3.378,0,0,0,.833-2.385,3.378,3.378,0,0,0-.833-2.385,2.835,2.835,0,0,0-2.186-.9,2.731,2.731,0,0,0-2.122.908,3.409,3.409,0,0,0-.822,2.379,3.409,3.409,0,0,0,.822,2.379A2.731,2.731,0,0,0,127.693,18.755Zm11.354-7.047a3.585,3.585,0,0,1,1.45-1.327,4.425,4.425,0,0,1,2.159-.553v2.761a4.183,4.183,0,0,0-2.643.666,2.908,2.908,0,0,0-.816,2.363V21h-3.115V9.957h2.965Zm17.66-1.966a4.3,4.3,0,0,1,3.051.994,3.684,3.684,0,0,1,1.063,2.831V21h-3.1V14.232a1.923,1.923,0,0,0-.553-1.525,2.084,2.084,0,0,0-1.423-.483,2.908,2.908,0,0,0-.924.14,2.373,2.373,0,0,0-.773.435,1.923,1.923,0,0,0-.553.833,3.85,3.85,0,0,0-.209,1.278V21h-3.094V9.957h3.094v1.225A4.255,4.255,0,0,1,156.708,9.742Z" transform="translate(1248 3581.416)" fill="#fff"/>
    <path id="Trazado_57556" data-name="Trazado 57556" d="M3.516,15.567h4.3V17H1.942V4.625H3.516Zm9.984,1.6a4.554,4.554,0,0,1-2.215-.536,3.9,3.9,0,0,1-1.56-1.569,4.819,4.819,0,0,1-.576-2.386,4.4,4.4,0,0,1,1.226-3.256A4.232,4.232,0,0,1,13.5,8.193a4.228,4.228,0,0,1,3.129,1.226,4.41,4.41,0,0,1,1.222,3.256,4.413,4.413,0,0,1-1.226,3.265A4.232,4.232,0,0,1,13.5,17.167ZM13.491,15.9a2.654,2.654,0,0,0,2.043-.888,3.326,3.326,0,0,0,.813-2.338,3.314,3.314,0,0,0-.813-2.329,2.654,2.654,0,0,0-2.043-.888,2.617,2.617,0,0,0-2.026.888,3.336,3.336,0,0,0-.8,2.329,3.348,3.348,0,0,0,.8,2.338A2.617,2.617,0,0,0,13.491,15.9Zm10.327,1.257a4.161,4.161,0,0,1-3.094-1.239A4.421,4.421,0,0,1,19.5,12.676,4.43,4.43,0,0,1,20.72,9.433a4.5,4.5,0,0,1,5.6-.483,3.815,3.815,0,0,1,1.455,2.1l-1.424.229a2.63,2.63,0,0,0-.976-1.345,2.656,2.656,0,0,0-1.564-.475,2.554,2.554,0,0,0-2,.888,3.382,3.382,0,0,0-.787,2.329A3.365,3.365,0,0,0,21.81,15a2.56,2.56,0,0,0,2,.883,2.656,2.656,0,0,0,1.564-.475,2.63,2.63,0,0,0,.976-1.345l1.424.237a3.819,3.819,0,0,1-1.463,2.1A4.185,4.185,0,0,1,23.818,17.158Zm8.191.009a2.94,2.94,0,0,1-1.894-.593,2.13,2.13,0,0,1-.743-1.771,2.517,2.517,0,0,1,.237-1.129,1.991,1.991,0,0,1,.7-.787,4.218,4.218,0,0,1,1.015-.488,9.384,9.384,0,0,1,1.314-.312l1.4-.229q.765-.141.765-.8a1.51,1.51,0,0,0-.541-1.288A2.2,2.2,0,0,0,32.9,9.362a2.243,2.243,0,0,0-1.354.4,1.655,1.655,0,0,0-.642,1.213l-1.371-.29a2.639,2.639,0,0,1,1.081-1.85,4.039,4.039,0,0,1,2.355-.62,4.777,4.777,0,0,1,1.252.154,3.4,3.4,0,0,1,1.046.483,2.168,2.168,0,0,1,.747.932,3.466,3.466,0,0,1,.268,1.419v3.568a1.46,1.46,0,0,0,.2.9.854.854,0,0,0,.681.233H37.3V17h-.756a1.442,1.442,0,0,1-1.635-1.169h-.07A3.3,3.3,0,0,1,32.01,17.167Zm.352-1.23a2.305,2.305,0,0,0,1.854-.835,3.438,3.438,0,0,0,.7-2.285l-2.285.439a3.076,3.076,0,0,0-1.34.479,1.114,1.114,0,0,0-.435.945,1.1,1.1,0,0,0,.417.949A1.785,1.785,0,0,0,32.361,15.937ZM39.445,17V3.5h1.538V17ZM44.851,6.33A1.035,1.035,0,0,1,43.822,5.3a.975.975,0,0,1,.3-.721,1,1,0,0,1,.725-.3.987.987,0,0,1,.716.3.975.975,0,0,1,.3.721.989.989,0,0,1-.3.725A.979.979,0,0,1,44.851,6.33ZM44.077,17V8.36h1.529V17ZM49.9,15.77H54.5V17H47.61l4.553-7.4H47.874V8.36h6.618Zm8.4,1.4a2.94,2.94,0,0,1-1.894-.593,2.13,2.13,0,0,1-.743-1.771,2.517,2.517,0,0,1,.237-1.129,1.991,1.991,0,0,1,.7-.787,4.218,4.218,0,0,1,1.015-.488,9.384,9.384,0,0,1,1.314-.312l1.4-.229q.765-.141.765-.8a1.51,1.51,0,0,0-.541-1.288,2.2,2.2,0,0,0-1.367-.409,2.243,2.243,0,0,0-1.354.4,1.655,1.655,0,0,0-.642,1.213l-1.371-.29A2.639,2.639,0,0,1,56.9,8.831a4.039,4.039,0,0,1,2.355-.62,4.777,4.777,0,0,1,1.252.154,3.4,3.4,0,0,1,1.046.483,2.168,2.168,0,0,1,.747.932,3.466,3.466,0,0,1,.268,1.419v3.568a1.46,1.46,0,0,0,.2.9.854.854,0,0,0,.681.233h.141V17h-.756A1.442,1.442,0,0,1,61.2,15.831h-.07A3.3,3.3,0,0,1,58.3,17.167Zm.352-1.23A2.305,2.305,0,0,0,60.5,15.1a3.438,3.438,0,0,0,.7-2.285l-2.285.439a3.076,3.076,0,0,0-1.34.479,1.114,1.114,0,0,0-.435.945,1.1,1.1,0,0,0,.417.949A1.785,1.785,0,0,0,58.649,15.937Zm10.494,1.222a4.161,4.161,0,0,1-3.094-1.239,4.421,4.421,0,0,1-1.222-3.243,4.43,4.43,0,0,1,1.217-3.243,4.5,4.5,0,0,1,5.6-.483,3.815,3.815,0,0,1,1.455,2.1l-1.424.229A2.63,2.63,0,0,0,70.7,9.934a2.656,2.656,0,0,0-1.564-.475,2.554,2.554,0,0,0-2,.888,3.382,3.382,0,0,0-.787,2.329A3.365,3.365,0,0,0,67.135,15a2.56,2.56,0,0,0,2,.883,2.656,2.656,0,0,0,1.564-.475,2.63,2.63,0,0,0,.976-1.345L73.1,14.3a3.819,3.819,0,0,1-1.463,2.1A4.185,4.185,0,0,1,69.144,17.158ZM76.113,6.33A1.035,1.035,0,0,1,75.085,5.3a.975.975,0,0,1,.3-.721,1,1,0,0,1,.725-.3.987.987,0,0,1,.716.3.975.975,0,0,1,.3.721.989.989,0,0,1-.3.725A.979.979,0,0,1,76.113,6.33ZM75.34,17V8.36h1.529V17ZM83.021,6.875,85.228,4.01l.809.589L84.067,6.875Zm.58,10.292a4.554,4.554,0,0,1-2.215-.536,3.9,3.9,0,0,1-1.56-1.569,4.819,4.819,0,0,1-.576-2.386,4.4,4.4,0,0,1,1.226-3.256,4.6,4.6,0,0,1,6.253,0,4.41,4.41,0,0,1,1.222,3.256,4.413,4.413,0,0,1-1.226,3.265A4.232,4.232,0,0,1,83.6,17.167ZM83.593,15.9a2.654,2.654,0,0,0,2.043-.888,3.326,3.326,0,0,0,.813-2.338,3.314,3.314,0,0,0-.813-2.329,2.654,2.654,0,0,0-2.043-.888,2.617,2.617,0,0,0-2.026.888,3.336,3.336,0,0,0-.8,2.329,3.348,3.348,0,0,0,.8,2.338A2.617,2.617,0,0,0,83.593,15.9ZM94.412,8.193a3.005,3.005,0,0,1,2.175.782,2.918,2.918,0,0,1,.813,2.206V17H95.88V11.524a2.043,2.043,0,0,0-.527-1.547A1.885,1.885,0,0,0,94,9.477a2.09,2.09,0,0,0-1.538.593,2.407,2.407,0,0,0-.606,1.762V17H90.334V8.36h1.521V9.468A2.885,2.885,0,0,1,94.412,8.193Z" transform="translate(534 3641.239)" fill="#f3f7fa"/>
    <path id="Trazado_57557" data-name="Trazado 57557" d="M10.639,4.625a3.664,3.664,0,0,1,1.938.514,3.473,3.473,0,0,1,1.3,1.375,4.036,4.036,0,0,1,.453,1.907,3.755,3.755,0,0,1-1.024,2.694,3.514,3.514,0,0,1-2.667,1.077H7.528V17H5.955V4.625Zm-.229,6.2a2.25,2.25,0,0,0,1.723-.664A2.455,2.455,0,0,0,12.757,8.4a2.463,2.463,0,0,0-.624-1.745,2.234,2.234,0,0,0-1.723-.672H7.528v4.834Zm7.77-.94a2.612,2.612,0,0,1,1.072-1.16,3.229,3.229,0,0,1,1.661-.457V9.7a2.846,2.846,0,0,0-2.008.642,2.68,2.68,0,0,0-.69,2.048V17H16.695V8.36H18.18Zm8.051,7.286a4.554,4.554,0,0,1-2.215-.536,3.9,3.9,0,0,1-1.56-1.569,4.819,4.819,0,0,1-.576-2.386,4.4,4.4,0,0,1,1.226-3.256,4.232,4.232,0,0,1,3.125-1.226A4.228,4.228,0,0,1,29.36,9.419a4.41,4.41,0,0,1,1.222,3.256,4.413,4.413,0,0,1-1.226,3.265A4.232,4.232,0,0,1,26.231,17.167ZM26.222,15.9a2.654,2.654,0,0,0,2.043-.888,3.326,3.326,0,0,0,.813-2.338,3.314,3.314,0,0,0-.813-2.329,2.654,2.654,0,0,0-2.043-.888,2.617,2.617,0,0,0-2.026.888,3.336,3.336,0,0,0-.8,2.329,3.348,3.348,0,0,0,.8,2.338A2.617,2.617,0,0,0,26.222,15.9ZM39.344,3.5h1.521V17H39.4l-.035-1.679a3.179,3.179,0,0,1-1.23,1.362,3.429,3.429,0,0,1-1.828.5,3.926,3.926,0,0,1-2.852-1.217,4.16,4.16,0,0,1-.87-1.428,5.225,5.225,0,0,1-.321-1.854,4.543,4.543,0,0,1,1.173-3.243A3.788,3.788,0,0,1,36.3,8.193a3.443,3.443,0,0,1,1.806.488A3.2,3.2,0,0,1,39.344,10ZM36.62,15.866a2.587,2.587,0,0,0,2.008-.91,3.283,3.283,0,0,0,.813-2.272,3.277,3.277,0,0,0-.817-2.268,2.586,2.586,0,0,0-2-.914,2.644,2.644,0,0,0-2.021.883,3.25,3.25,0,0,0-.817,2.3,3.25,3.25,0,0,0,.817,2.3A2.644,2.644,0,0,0,36.62,15.866ZM49.337,8.36h1.521V17H49.4l-.035-1.143a2.7,2.7,0,0,1-1.072.971,3.3,3.3,0,0,1-1.512.338,3.005,3.005,0,0,1-2.175-.782,2.918,2.918,0,0,1-.813-2.206V8.36h1.521v5.476a2.05,2.05,0,0,0,.532,1.547,1.882,1.882,0,0,0,1.358.51,2.067,2.067,0,0,0,1.534-.6,2.434,2.434,0,0,0,.6-1.767Zm8.2,8.8a4.161,4.161,0,0,1-3.094-1.239,4.421,4.421,0,0,1-1.222-3.243,4.43,4.43,0,0,1,1.217-3.243,4.5,4.5,0,0,1,5.6-.483,3.815,3.815,0,0,1,1.455,2.1l-1.424.229a2.63,2.63,0,0,0-.976-1.345,2.656,2.656,0,0,0-1.564-.475,2.554,2.554,0,0,0-2,.888,3.382,3.382,0,0,0-.787,2.329A3.365,3.365,0,0,0,55.529,15a2.56,2.56,0,0,0,2,.883,2.656,2.656,0,0,0,1.564-.475,2.63,2.63,0,0,0,.976-1.345l1.424.237a3.819,3.819,0,0,1-1.463,2.1A4.185,4.185,0,0,1,57.538,17.158ZM66.494,17a2.271,2.271,0,0,1-1.687-.62,2.344,2.344,0,0,1-.615-1.727V9.573H62.424V8.36h.65a1.249,1.249,0,0,0,.954-.3,1.492,1.492,0,0,0,.277-1.015V5.478H65.72V8.36h1.986V9.573H65.72V14.5a1.31,1.31,0,0,0,.33.954,1.154,1.154,0,0,0,.866.338h.791V17Zm6.943.167a4.554,4.554,0,0,1-2.215-.536,3.9,3.9,0,0,1-1.56-1.569,4.819,4.819,0,0,1-.576-2.386,4.4,4.4,0,0,1,1.226-3.256,4.6,4.6,0,0,1,6.253,0,4.41,4.41,0,0,1,1.222,3.256,4.413,4.413,0,0,1-1.226,3.265A4.232,4.232,0,0,1,73.437,17.167ZM73.428,15.9a2.654,2.654,0,0,0,2.043-.888,3.326,3.326,0,0,0,.813-2.338,3.314,3.314,0,0,0-.813-2.329,2.654,2.654,0,0,0-2.043-.888,2.617,2.617,0,0,0-2.026.888,3.336,3.336,0,0,0-.8,2.329,3.348,3.348,0,0,0,.8,2.338A2.617,2.617,0,0,0,73.428,15.9ZM82.9,17.167a4.1,4.1,0,0,1-2.329-.624,2.581,2.581,0,0,1-1.134-1.775l1.327-.378a1.851,1.851,0,0,0,.708,1.2,2.3,2.3,0,0,0,1.419.426,2.832,2.832,0,0,0,.831-.114,1.331,1.331,0,0,0,.637-.426,1.189,1.189,0,0,0,.185-1.143,1.526,1.526,0,0,0-.141-.286.87.87,0,0,0-.246-.237,3.245,3.245,0,0,0-.3-.185,3.067,3.067,0,0,0-.391-.163q-.259-.092-.417-.141t-.483-.141q-.325-.092-.5-.145a9.372,9.372,0,0,1-.9-.316,3.932,3.932,0,0,1-.729-.417,1.679,1.679,0,0,1-.567-.681,2.3,2.3,0,0,1-.189-.967,2.234,2.234,0,0,1,.422-1.38A2.374,2.374,0,0,1,81.2,8.461a4.374,4.374,0,0,1,1.534-.25,3.754,3.754,0,0,1,2.1.563,2.4,2.4,0,0,1,1.05,1.688l-1.248.316a1.655,1.655,0,0,0-.659-1.094,2.1,2.1,0,0,0-1.239-.365,2.139,2.139,0,0,0-1.16.3,1.019,1.019,0,0,0-.483.927.923.923,0,0,0,.127.479,1.521,1.521,0,0,0,.259.338,1.594,1.594,0,0,0,.475.259q.343.136.51.185t.633.163q.088.026.132.035.51.132.831.233a5.105,5.105,0,0,1,.747.316,2.484,2.484,0,0,1,.672.47,2.178,2.178,0,0,1,.422.668,2.358,2.358,0,0,1,.176.932,2.516,2.516,0,0,1-.259,1.165,2.028,2.028,0,0,1-.708.8,3.422,3.422,0,0,1-1.006.435A4.8,4.8,0,0,1,82.9,17.167ZM98.477,8.36h1.608l-5,12.709H93.511l1.731-4.28L91.885,8.36h1.688l2.435,6.724Zm10.846,8.807a4.1,4.1,0,0,1-2.329-.624,2.581,2.581,0,0,1-1.134-1.775l1.327-.378a1.851,1.851,0,0,0,.708,1.2,2.3,2.3,0,0,0,1.419.426,2.832,2.832,0,0,0,.831-.114,1.331,1.331,0,0,0,.637-.426,1.189,1.189,0,0,0,.185-1.143,1.526,1.526,0,0,0-.141-.286.87.87,0,0,0-.246-.237,3.245,3.245,0,0,0-.3-.185,3.067,3.067,0,0,0-.391-.163q-.259-.092-.417-.141t-.483-.141q-.325-.092-.5-.145a9.372,9.372,0,0,1-.9-.316,3.932,3.932,0,0,1-.729-.417,1.679,1.679,0,0,1-.567-.681,2.3,2.3,0,0,1-.189-.967,2.234,2.234,0,0,1,.422-1.38,2.374,2.374,0,0,1,1.094-.813,4.374,4.374,0,0,1,1.534-.25,3.754,3.754,0,0,1,2.1.563,2.4,2.4,0,0,1,1.05,1.688l-1.248.316a1.655,1.655,0,0,0-.659-1.094,2.1,2.1,0,0,0-1.239-.365,2.139,2.139,0,0,0-1.16.3,1.019,1.019,0,0,0-.483.927.923.923,0,0,0,.127.479,1.521,1.521,0,0,0,.259.338,1.594,1.594,0,0,0,.475.259q.343.136.51.185t.633.163q.088.026.132.035.51.132.831.233a5.105,5.105,0,0,1,.747.316,2.484,2.484,0,0,1,.672.47,2.178,2.178,0,0,1,.422.668,2.358,2.358,0,0,1,.176.932,2.516,2.516,0,0,1-.259,1.165,2.028,2.028,0,0,1-.708.8,3.422,3.422,0,0,1-1.006.435A4.8,4.8,0,0,1,109.323,17.167Zm13.131-4.658-.018.413h-6.75a3.053,3.053,0,0,0,.826,2.21,2.713,2.713,0,0,0,1.969.769,2.59,2.59,0,0,0,1.433-.413,2.68,2.68,0,0,0,.984-1.143l1.371.29a3.9,3.9,0,0,1-1.477,1.854,4.028,4.028,0,0,1-2.294.677,4.174,4.174,0,0,1-3.111-1.2,4.479,4.479,0,0,1-1.187-3.287A4.458,4.458,0,0,1,115.392,9.4a4.122,4.122,0,0,1,3.063-1.2,3.9,3.9,0,0,1,2.9,1.107A4.376,4.376,0,0,1,122.454,12.509Zm-4-3.146a2.694,2.694,0,0,0-1.8.611,2.8,2.8,0,0,0-.91,1.78h5.177a2.567,2.567,0,0,0-.756-1.78A2.441,2.441,0,0,0,118.455,9.362Zm7.866.519a2.612,2.612,0,0,1,1.072-1.16,3.229,3.229,0,0,1,1.661-.457V9.7a2.846,2.846,0,0,0-2.008.642,2.68,2.68,0,0,0-.69,2.048V17h-1.521V8.36h1.485ZM136.4,8.36h1.626L134.512,17H133.22l-3.5-8.64h1.617l2.531,6.873Zm4.2-2.03A1.035,1.035,0,0,1,139.575,5.3a.975.975,0,0,1,.3-.721,1,1,0,0,1,.725-.3.987.987,0,0,1,.716.3.975.975,0,0,1,.3.721.989.989,0,0,1-.3.725A.979.979,0,0,1,140.6,6.33ZM139.83,17V8.36h1.529V17Zm8.209.158a4.161,4.161,0,0,1-3.094-1.239,4.421,4.421,0,0,1-1.222-3.243,4.43,4.43,0,0,1,1.217-3.243,4.5,4.5,0,0,1,5.6-.483,3.815,3.815,0,0,1,1.455,2.1l-1.424.229a2.63,2.63,0,0,0-.976-1.345,2.656,2.656,0,0,0-1.564-.475,2.554,2.554,0,0,0-2,.888,3.382,3.382,0,0,0-.787,2.329A3.365,3.365,0,0,0,146.03,15a2.56,2.56,0,0,0,2,.883,2.656,2.656,0,0,0,1.564-.475,2.63,2.63,0,0,0,.976-1.345l1.424.237a3.819,3.819,0,0,1-1.463,2.1A4.185,4.185,0,0,1,148.039,17.158Zm6.97-10.828A1.035,1.035,0,0,1,153.98,5.3a.975.975,0,0,1,.3-.721,1,1,0,0,1,.725-.3.987.987,0,0,1,.716.3.975.975,0,0,1,.3.721.989.989,0,0,1-.3.725A.979.979,0,0,1,155.008,6.33ZM154.235,17V8.36h1.529V17Zm8.262.167a4.554,4.554,0,0,1-2.215-.536,3.9,3.9,0,0,1-1.56-1.569,4.819,4.819,0,0,1-.576-2.386,4.4,4.4,0,0,1,1.226-3.256,4.6,4.6,0,0,1,6.253,0,4.41,4.41,0,0,1,1.222,3.256,4.413,4.413,0,0,1-1.226,3.265A4.232,4.232,0,0,1,162.5,17.167Zm-.009-1.266a2.654,2.654,0,0,0,2.043-.888,3.326,3.326,0,0,0,.813-2.338,3.314,3.314,0,0,0-.813-2.329,2.654,2.654,0,0,0-2.043-.888,2.617,2.617,0,0,0-2.026.888,3.336,3.336,0,0,0-.8,2.329,3.348,3.348,0,0,0,.8,2.338A2.617,2.617,0,0,0,162.488,15.9Zm9.475,1.266a4.1,4.1,0,0,1-2.329-.624,2.581,2.581,0,0,1-1.134-1.775l1.327-.378a1.851,1.851,0,0,0,.708,1.2,2.3,2.3,0,0,0,1.419.426,2.832,2.832,0,0,0,.831-.114,1.331,1.331,0,0,0,.637-.426,1.189,1.189,0,0,0,.185-1.143,1.526,1.526,0,0,0-.141-.286.87.87,0,0,0-.246-.237,3.245,3.245,0,0,0-.3-.185,3.067,3.067,0,0,0-.391-.163q-.259-.092-.417-.141t-.483-.141q-.325-.092-.5-.145a9.372,9.372,0,0,1-.9-.316,3.932,3.932,0,0,1-.729-.417,1.679,1.679,0,0,1-.567-.681,2.3,2.3,0,0,1-.189-.967,2.234,2.234,0,0,1,.422-1.38,2.374,2.374,0,0,1,1.094-.813,4.374,4.374,0,0,1,1.534-.25,3.754,3.754,0,0,1,2.1.563,2.4,2.4,0,0,1,1.05,1.688l-1.248.316a1.655,1.655,0,0,0-.659-1.094,2.1,2.1,0,0,0-1.239-.365,2.139,2.139,0,0,0-1.16.3,1.019,1.019,0,0,0-.483.927.923.923,0,0,0,.127.479,1.521,1.521,0,0,0,.259.338,1.594,1.594,0,0,0,.475.259q.343.136.51.185t.633.163q.088.026.132.035.51.132.831.233a5.105,5.105,0,0,1,.747.316,2.484,2.484,0,0,1,.672.47,2.178,2.178,0,0,1,.422.668,2.358,2.358,0,0,1,.176.932,2.516,2.516,0,0,1-.259,1.165,2.028,2.028,0,0,1-.708.8,3.422,3.422,0,0,1-1.006.435A4.8,4.8,0,0,1,171.962,17.167ZM52.862,51.386a7.3,7.3,0,0,1-2.711-3.573,15.468,15.468,0,0,1-.989-5.779,15.519,15.519,0,0,1,.989-5.774,7.3,7.3,0,0,1,2.711-3.586l.809,1a6.166,6.166,0,0,0-2.312,3.133,14.5,14.5,0,0,0-.853,5.225,14.48,14.48,0,0,0,.848,5.225,6.122,6.122,0,0,0,2.316,3.116Zm4.729-4.219a2.94,2.94,0,0,1-1.894-.593,2.13,2.13,0,0,1-.743-1.771,2.517,2.517,0,0,1,.237-1.129,1.991,1.991,0,0,1,.7-.787,4.218,4.218,0,0,1,1.015-.488,9.384,9.384,0,0,1,1.314-.312l1.4-.229q.765-.141.765-.8a1.51,1.51,0,0,0-.541-1.288,2.2,2.2,0,0,0-1.367-.409,2.243,2.243,0,0,0-1.354.4,1.655,1.655,0,0,0-.642,1.213l-1.371-.29a2.639,2.639,0,0,1,1.081-1.85,4.039,4.039,0,0,1,2.355-.62,4.777,4.777,0,0,1,1.252.154,3.4,3.4,0,0,1,1.046.483,2.168,2.168,0,0,1,.747.932,3.466,3.466,0,0,1,.268,1.419v3.568a1.46,1.46,0,0,0,.2.9.854.854,0,0,0,.681.233h.141V47h-.756a1.442,1.442,0,0,1-1.635-1.169h-.07A3.3,3.3,0,0,1,57.59,47.167Zm.352-1.23A2.305,2.305,0,0,0,59.8,45.1a3.438,3.438,0,0,0,.7-2.285l-2.285.439a3.076,3.076,0,0,0-1.34.479,1.114,1.114,0,0,0-.435.945,1.1,1.1,0,0,0,.417.949A1.785,1.785,0,0,0,57.942,45.937ZM67.733,47a2.271,2.271,0,0,1-1.687-.62,2.344,2.344,0,0,1-.615-1.727v-5.08H63.664V38.36h.65a1.249,1.249,0,0,0,.954-.3,1.492,1.492,0,0,0,.277-1.015V35.478h1.415V38.36h1.986v1.213H66.959V44.5a1.31,1.31,0,0,0,.33.954,1.154,1.154,0,0,0,.866.338h.791V47Zm4.9-7.119a2.612,2.612,0,0,1,1.072-1.16,3.229,3.229,0,0,1,1.661-.457V39.7a2.846,2.846,0,0,0-2.008.642,2.68,2.68,0,0,0-.69,2.048V47H71.143V38.36h1.485Zm5.291-3.551A1.035,1.035,0,0,1,76.891,35.3a.975.975,0,0,1,.3-.721,1,1,0,0,1,.725-.3.987.987,0,0,1,.716.3.975.975,0,0,1,.3.721.989.989,0,0,1-.3.725A.979.979,0,0,1,77.919,36.33ZM77.146,47V38.36h1.529V47Zm9.2-8.807A3.764,3.764,0,0,1,89.2,39.441a5.11,5.11,0,0,1,.009,6.5,3.756,3.756,0,0,1-2.865,1.248,3.467,3.467,0,0,1-1.841-.5,3.171,3.171,0,0,1-1.235-1.362L83.237,47H81.769V33.5h1.512l.009,6.513a3.184,3.184,0,0,1,1.235-1.332A3.476,3.476,0,0,1,86.348,38.193Zm-.334,7.673a2.644,2.644,0,0,0,2.021-.883,3.64,3.64,0,0,0,0-4.6,2.644,2.644,0,0,0-2.021-.883,2.586,2.586,0,0,0-2,.914,3.568,3.568,0,0,0,0,4.54A2.587,2.587,0,0,0,86.014,45.866ZM98.143,38.36h1.521V47H98.2l-.035-1.143a2.7,2.7,0,0,1-1.072.971,3.3,3.3,0,0,1-1.512.338,3.005,3.005,0,0,1-2.175-.782,2.918,2.918,0,0,1-.813-2.206V38.36h1.521v5.476a2.05,2.05,0,0,0,.532,1.547,1.882,1.882,0,0,0,1.358.51,2.067,2.067,0,0,0,1.534-.6,2.434,2.434,0,0,0,.6-1.767ZM105.517,47a2.271,2.271,0,0,1-1.687-.62,2.344,2.344,0,0,1-.615-1.727v-5.08h-1.767V38.36h.65a1.249,1.249,0,0,0,.954-.3,1.492,1.492,0,0,0,.277-1.015V35.478h1.415V38.36h1.986v1.213h-1.986V44.5a1.31,1.31,0,0,0,.33.954,1.154,1.154,0,0,0,.866.338h.791V47Zm6.943.167a4.554,4.554,0,0,1-2.215-.536,3.9,3.9,0,0,1-1.56-1.569,4.819,4.819,0,0,1-.576-2.386,4.4,4.4,0,0,1,1.226-3.256,4.6,4.6,0,0,1,6.253,0,4.956,4.956,0,0,1,0,6.521A4.232,4.232,0,0,1,112.46,47.167Zm-.009-1.266a2.654,2.654,0,0,0,2.043-.888,3.755,3.755,0,0,0,0-4.667,2.654,2.654,0,0,0-2.043-.888,2.617,2.617,0,0,0-2.026.888,3.788,3.788,0,0,0,0,4.667A2.617,2.617,0,0,0,112.452,45.9Zm9.475,1.266a4.1,4.1,0,0,1-2.329-.624,2.581,2.581,0,0,1-1.134-1.775l1.327-.378a1.851,1.851,0,0,0,.708,1.2,2.3,2.3,0,0,0,1.419.426,2.832,2.832,0,0,0,.831-.114,1.331,1.331,0,0,0,.637-.426,1.189,1.189,0,0,0,.185-1.143,1.526,1.526,0,0,0-.141-.286.87.87,0,0,0-.246-.237,3.245,3.245,0,0,0-.3-.185,3.067,3.067,0,0,0-.391-.163q-.259-.092-.417-.141t-.483-.141q-.325-.092-.5-.145a9.372,9.372,0,0,1-.9-.316,3.932,3.932,0,0,1-.729-.417,1.679,1.679,0,0,1-.567-.681,2.3,2.3,0,0,1-.189-.967,2.234,2.234,0,0,1,.422-1.38,2.374,2.374,0,0,1,1.094-.813,4.374,4.374,0,0,1,1.534-.25,3.754,3.754,0,0,1,2.1.563,2.4,2.4,0,0,1,1.05,1.688l-1.248.316a1.655,1.655,0,0,0-.659-1.094,2.1,2.1,0,0,0-1.239-.365,2.139,2.139,0,0,0-1.16.3,1.019,1.019,0,0,0-.483.927.923.923,0,0,0,.127.479,1.521,1.521,0,0,0,.259.338,1.594,1.594,0,0,0,.475.259q.343.136.51.185t.633.163q.088.026.132.035.51.132.831.233a5.105,5.105,0,0,1,.747.316,2.484,2.484,0,0,1,.672.47,2.178,2.178,0,0,1,.422.668,2.358,2.358,0,0,1,.176.932,2.516,2.516,0,0,1-.259,1.165,2.028,2.028,0,0,1-.708.8,3.422,3.422,0,0,1-1.006.435A4.8,4.8,0,0,1,121.926,47.167Zm5.212,4.219-.809-1.011a6.122,6.122,0,0,0,2.316-3.116,14.48,14.48,0,0,0,.848-5.225,14.5,14.5,0,0,0-.853-5.225,6.166,6.166,0,0,0-2.312-3.133l.809-1a7.3,7.3,0,0,1,2.711,3.586,15.519,15.519,0,0,1,.989,5.774,15.468,15.468,0,0,1-.989,5.779A7.3,7.3,0,0,1,127.138,51.386Z" transform="translate(492 3690.239)" fill="#f3f7fa"/>
    <path id="Trazado_57558" data-name="Trazado 57558" d="M26.6,4.625a3.664,3.664,0,0,1,1.938.514,3.473,3.473,0,0,1,1.3,1.375,4.036,4.036,0,0,1,.453,1.907,3.755,3.755,0,0,1-1.024,2.694A3.514,3.514,0,0,1,26.6,12.192H23.488V17H21.915V4.625Zm-.229,6.2a2.25,2.25,0,0,0,1.723-.664A2.455,2.455,0,0,0,28.717,8.4a2.463,2.463,0,0,0-.624-1.745,2.234,2.234,0,0,0-1.723-.672H23.488v4.834Zm7.77-.94a2.612,2.612,0,0,1,1.072-1.16,3.229,3.229,0,0,1,1.661-.457V9.7a2.846,2.846,0,0,0-2.008.642,2.68,2.68,0,0,0-.69,2.048V17H32.655V8.36H34.14Zm11.971,2.628-.018.413h-6.75a3.053,3.053,0,0,0,.826,2.21,2.713,2.713,0,0,0,1.969.769,2.59,2.59,0,0,0,1.433-.413,2.68,2.68,0,0,0,.984-1.143l1.371.29A3.9,3.9,0,0,1,44.45,16.49a4.028,4.028,0,0,1-2.294.677,4.174,4.174,0,0,1-3.111-1.2,4.479,4.479,0,0,1-1.187-3.287A4.458,4.458,0,0,1,39.049,9.4a4.122,4.122,0,0,1,3.063-1.2,3.9,3.9,0,0,1,2.9,1.107A4.376,4.376,0,0,1,46.111,12.509Zm-4-3.146a2.694,2.694,0,0,0-1.8.611,2.8,2.8,0,0,0-.91,1.78h5.177a2.567,2.567,0,0,0-.756-1.78A2.441,2.441,0,0,0,42.112,9.362Zm9.967,7.8a4.161,4.161,0,0,1-3.094-1.239,4.421,4.421,0,0,1-1.222-3.243A4.43,4.43,0,0,1,48.98,9.433a4.5,4.5,0,0,1,5.6-.483,3.815,3.815,0,0,1,1.455,2.1l-1.424.229a2.63,2.63,0,0,0-.976-1.345,2.656,2.656,0,0,0-1.564-.475,2.554,2.554,0,0,0-2,.888,3.382,3.382,0,0,0-.787,2.329A3.365,3.365,0,0,0,50.07,15a2.56,2.56,0,0,0,2,.883,2.656,2.656,0,0,0,1.564-.475,2.63,2.63,0,0,0,.976-1.345l1.424.237a3.819,3.819,0,0,1-1.463,2.1A4.185,4.185,0,0,1,52.079,17.158ZM59.048,6.33A1.035,1.035,0,0,1,58.02,5.3a.975.975,0,0,1,.3-.721,1,1,0,0,1,.725-.3.987.987,0,0,1,.716.3.975.975,0,0,1,.3.721.989.989,0,0,1-.3.725A.979.979,0,0,1,59.048,6.33ZM58.275,17V8.36H59.8V17Zm8.262.167a4.554,4.554,0,0,1-2.215-.536,3.9,3.9,0,0,1-1.56-1.569,4.819,4.819,0,0,1-.576-2.386,4.4,4.4,0,0,1,1.226-3.256,4.6,4.6,0,0,1,6.253,0,4.41,4.41,0,0,1,1.222,3.256,4.413,4.413,0,0,1-1.226,3.265A4.232,4.232,0,0,1,66.537,17.167ZM66.528,15.9a2.654,2.654,0,0,0,2.043-.888,3.326,3.326,0,0,0,.813-2.338,3.314,3.314,0,0,0-.813-2.329,2.654,2.654,0,0,0-2.043-.888,2.617,2.617,0,0,0-2.026.888,3.336,3.336,0,0,0-.8,2.329,3.348,3.348,0,0,0,.8,2.338A2.617,2.617,0,0,0,66.528,15.9ZM76,17.167a4.1,4.1,0,0,1-2.329-.624,2.581,2.581,0,0,1-1.134-1.775l1.327-.378a1.851,1.851,0,0,0,.708,1.2,2.3,2.3,0,0,0,1.419.426,2.832,2.832,0,0,0,.831-.114,1.331,1.331,0,0,0,.637-.426,1.189,1.189,0,0,0,.185-1.143,1.526,1.526,0,0,0-.141-.286.87.87,0,0,0-.246-.237,3.245,3.245,0,0,0-.3-.185,3.067,3.067,0,0,0-.391-.163q-.259-.092-.417-.141t-.483-.141q-.325-.092-.5-.145a9.372,9.372,0,0,1-.9-.316,3.932,3.932,0,0,1-.729-.417,1.679,1.679,0,0,1-.567-.681,2.3,2.3,0,0,1-.189-.967,2.234,2.234,0,0,1,.422-1.38A2.374,2.374,0,0,1,74.3,8.461a4.374,4.374,0,0,1,1.534-.25,3.754,3.754,0,0,1,2.1.563,2.4,2.4,0,0,1,1.05,1.688l-1.248.316a1.655,1.655,0,0,0-.659-1.094,2.1,2.1,0,0,0-1.239-.365,2.139,2.139,0,0,0-1.16.3,1.019,1.019,0,0,0-.483.927.923.923,0,0,0,.127.479,1.521,1.521,0,0,0,.259.338,1.594,1.594,0,0,0,.475.259q.343.136.51.185t.633.163q.088.026.132.035.51.132.831.233a5.105,5.105,0,0,1,.747.316,2.484,2.484,0,0,1,.672.47,2.178,2.178,0,0,1,.422.668,2.358,2.358,0,0,1,.176.932,2.516,2.516,0,0,1-.259,1.165,2.028,2.028,0,0,1-.708.8,3.422,3.422,0,0,1-1.006.435A4.8,4.8,0,0,1,76,17.167Z" transform="translate(534 3768.239)" fill="#f3f7fa"/>
    <path id="Trazado_57559" data-name="Trazado 57559" d="M4.486,15.567h4.3V17H2.913V4.625H4.486Zm9.984,1.6a4.554,4.554,0,0,1-2.215-.536,3.9,3.9,0,0,1-1.56-1.569,4.819,4.819,0,0,1-.576-2.386,4.4,4.4,0,0,1,1.226-3.256A4.232,4.232,0,0,1,14.47,8.193,4.228,4.228,0,0,1,17.6,9.419a4.41,4.41,0,0,1,1.222,3.256,4.413,4.413,0,0,1-1.226,3.265A4.232,4.232,0,0,1,14.47,17.167ZM14.461,15.9a2.654,2.654,0,0,0,2.043-.888,3.326,3.326,0,0,0,.813-2.338,3.314,3.314,0,0,0-.813-2.329,2.654,2.654,0,0,0-2.043-.888,2.617,2.617,0,0,0-2.026.888,3.336,3.336,0,0,0-.8,2.329,3.348,3.348,0,0,0,.8,2.338A2.617,2.617,0,0,0,14.461,15.9Zm13-7.541h1.477v8.2a4.706,4.706,0,0,1-1.116,3.366A4.058,4.058,0,0,1,24.727,21.1a4.084,4.084,0,0,1-4.192-2.646l1.257-.615a2.856,2.856,0,0,0,2.892,2A2.48,2.48,0,0,0,26.709,19a3.591,3.591,0,0,0,.7-2.355v-1.6a3.045,3.045,0,0,1-1.23,1.244,3.58,3.58,0,0,1-1.8.47,3.7,3.7,0,0,1-2.795-1.217,4.293,4.293,0,0,1-1.151-3.072A4.253,4.253,0,0,1,21.585,9.4a3.74,3.74,0,0,1,2.808-1.208,3.49,3.49,0,0,1,1.811.483,3.112,3.112,0,0,1,1.222,1.274Zm-2.742,7.1a2.614,2.614,0,0,0,1.991-.888,3.136,3.136,0,0,0,0-4.228,2.708,2.708,0,0,0-3.986-.026,3,3,0,0,0-.813,2.145,2.978,2.978,0,0,0,.822,2.131A2.634,2.634,0,0,0,24.718,15.462Zm7.506-8.6L34.43,4l.809.589L33.27,6.866ZM32.031,17V8.36H33.56V17Zm7.356.167a4.1,4.1,0,0,1-2.329-.624,2.581,2.581,0,0,1-1.134-1.775l1.327-.378a1.851,1.851,0,0,0,.708,1.2,2.3,2.3,0,0,0,1.419.426,2.832,2.832,0,0,0,.831-.114,1.331,1.331,0,0,0,.637-.426,1.189,1.189,0,0,0,.185-1.143,1.526,1.526,0,0,0-.141-.286.87.87,0,0,0-.246-.237,3.245,3.245,0,0,0-.3-.185,3.067,3.067,0,0,0-.391-.163q-.259-.092-.417-.141t-.483-.141q-.325-.092-.5-.145a9.372,9.372,0,0,1-.9-.316,3.932,3.932,0,0,1-.729-.417,1.679,1.679,0,0,1-.567-.681,2.3,2.3,0,0,1-.189-.967,2.234,2.234,0,0,1,.422-1.38,2.374,2.374,0,0,1,1.094-.813,4.374,4.374,0,0,1,1.534-.25,3.754,3.754,0,0,1,2.1.563,2.4,2.4,0,0,1,1.05,1.688l-1.248.316a1.655,1.655,0,0,0-.659-1.094,2.1,2.1,0,0,0-1.239-.365,2.139,2.139,0,0,0-1.16.3,1.019,1.019,0,0,0-.483.927.923.923,0,0,0,.127.479,1.521,1.521,0,0,0,.259.338,1.594,1.594,0,0,0,.475.259q.343.136.51.185t.633.163q.088.026.132.035.51.132.831.233a5.105,5.105,0,0,1,.747.316,2.484,2.484,0,0,1,.672.47,2.178,2.178,0,0,1,.422.668,2.358,2.358,0,0,1,.176.932,2.516,2.516,0,0,1-.259,1.165,2.028,2.028,0,0,1-.708.8,3.422,3.422,0,0,1-1.006.435A4.8,4.8,0,0,1,39.387,17.167ZM47.719,17a2.271,2.271,0,0,1-1.687-.62,2.344,2.344,0,0,1-.615-1.727V9.573H43.65V8.36h.65a1.249,1.249,0,0,0,.954-.3,1.492,1.492,0,0,0,.277-1.015V5.478h1.415V8.36h1.986V9.573H46.946V14.5a1.31,1.31,0,0,0,.33.954,1.154,1.154,0,0,0,.866.338h.791V17ZM51.9,6.33A1.035,1.035,0,0,1,50.875,5.3a.975.975,0,0,1,.3-.721,1,1,0,0,1,.725-.3.987.987,0,0,1,.716.3.975.975,0,0,1,.3.721.989.989,0,0,1-.3.725A.979.979,0,0,1,51.9,6.33ZM51.129,17V8.36h1.529V17Zm8.209.158a4.161,4.161,0,0,1-3.094-1.239,4.421,4.421,0,0,1-1.222-3.243A4.43,4.43,0,0,1,56.24,9.433a4.5,4.5,0,0,1,5.6-.483,3.815,3.815,0,0,1,1.455,2.1l-1.424.229a2.63,2.63,0,0,0-.976-1.345,2.656,2.656,0,0,0-1.564-.475,2.554,2.554,0,0,0-2,.888,3.382,3.382,0,0,0-.787,2.329A3.365,3.365,0,0,0,57.33,15a2.56,2.56,0,0,0,2,.883,2.656,2.656,0,0,0,1.564-.475,2.63,2.63,0,0,0,.976-1.345l1.424.237a3.819,3.819,0,0,1-1.463,2.1A4.185,4.185,0,0,1,59.338,17.158Zm8.191.009a2.94,2.94,0,0,1-1.894-.593,2.13,2.13,0,0,1-.743-1.771,2.517,2.517,0,0,1,.237-1.129,1.991,1.991,0,0,1,.7-.787,4.218,4.218,0,0,1,1.015-.488,9.384,9.384,0,0,1,1.314-.312l1.4-.229q.765-.141.765-.8a1.51,1.51,0,0,0-.541-1.288,2.2,2.2,0,0,0-1.367-.409,2.243,2.243,0,0,0-1.354.4,1.655,1.655,0,0,0-.642,1.213l-1.371-.29a2.639,2.639,0,0,1,1.081-1.85,4.039,4.039,0,0,1,2.355-.62,4.777,4.777,0,0,1,1.252.154,3.4,3.4,0,0,1,1.046.483,2.168,2.168,0,0,1,.747.932A3.466,3.466,0,0,1,71.8,11.2v3.568a1.46,1.46,0,0,0,.2.9.854.854,0,0,0,.681.233h.141V17h-.756a1.442,1.442,0,0,1-1.635-1.169h-.07A3.3,3.3,0,0,1,67.53,17.167Zm.352-1.23a2.305,2.305,0,0,0,1.854-.835,3.438,3.438,0,0,0,.7-2.285l-2.285.439a3.076,3.076,0,0,0-1.34.479,1.114,1.114,0,0,0-.435.945,1.1,1.1,0,0,0,.417.949A1.785,1.785,0,0,0,67.881,15.937ZM86.022,3.5h1.521V17H86.075l-.035-1.679a3.179,3.179,0,0,1-1.23,1.362,3.429,3.429,0,0,1-1.828.5,3.926,3.926,0,0,1-2.852-1.217,4.16,4.16,0,0,1-.87-1.428,5.225,5.225,0,0,1-.321-1.854,4.543,4.543,0,0,1,1.173-3.243,3.788,3.788,0,0,1,2.87-1.248,3.443,3.443,0,0,1,1.806.488A3.2,3.2,0,0,1,86.022,10ZM83.3,15.866a2.587,2.587,0,0,0,2.008-.91,3.283,3.283,0,0,0,.813-2.272,3.277,3.277,0,0,0-.817-2.268,2.586,2.586,0,0,0-2-.914,2.644,2.644,0,0,0-2.021.883,3.25,3.25,0,0,0-.817,2.3,3.25,3.25,0,0,0,.817,2.3A2.644,2.644,0,0,0,83.3,15.866Zm14.9-3.357-.018.413h-6.75a3.053,3.053,0,0,0,.826,2.21,2.713,2.713,0,0,0,1.969.769,2.59,2.59,0,0,0,1.433-.413,2.68,2.68,0,0,0,.984-1.143l1.371.29a3.9,3.9,0,0,1-1.477,1.854,4.028,4.028,0,0,1-2.294.677,4.174,4.174,0,0,1-3.111-1.2,4.479,4.479,0,0,1-1.187-3.287A4.458,4.458,0,0,1,91.133,9.4a4.122,4.122,0,0,1,3.063-1.2A3.9,3.9,0,0,1,97.1,9.3,4.376,4.376,0,0,1,98.195,12.509Zm-4-3.146a2.694,2.694,0,0,0-1.8.611,2.8,2.8,0,0,0-.91,1.78h5.177a2.567,2.567,0,0,0-.756-1.78A2.441,2.441,0,0,0,94.2,9.362ZM9.685,33.5h1.521V47H9.737L9.7,45.321a3.179,3.179,0,0,1-1.23,1.362,3.429,3.429,0,0,1-1.828.5,3.926,3.926,0,0,1-2.852-1.217,4.16,4.16,0,0,1-.87-1.428A5.225,5.225,0,0,1,2.6,42.685a4.543,4.543,0,0,1,1.173-3.243,3.788,3.788,0,0,1,2.87-1.248,3.443,3.443,0,0,1,1.806.488A3.2,3.2,0,0,1,9.685,40ZM6.96,45.866a2.587,2.587,0,0,0,2.008-.91,3.568,3.568,0,0,0,0-4.54,2.586,2.586,0,0,0-2-.914,2.644,2.644,0,0,0-2.021.883,3.64,3.64,0,0,0,0,4.6A2.644,2.644,0,0,0,6.96,45.866Zm8.112-9.536A1.035,1.035,0,0,1,14.044,35.3a.975.975,0,0,1,.3-.721,1,1,0,0,1,.725-.3.987.987,0,0,1,.716.3.975.975,0,0,1,.3.721.989.989,0,0,1-.3.725A.979.979,0,0,1,15.072,36.33ZM14.3,47V38.36h1.529V47Zm7.356.167a4.1,4.1,0,0,1-2.329-.624,2.581,2.581,0,0,1-1.134-1.775l1.327-.378a1.851,1.851,0,0,0,.708,1.2,2.3,2.3,0,0,0,1.419.426,2.832,2.832,0,0,0,.831-.114,1.331,1.331,0,0,0,.637-.426,1.189,1.189,0,0,0,.185-1.143,1.526,1.526,0,0,0-.141-.286.87.87,0,0,0-.246-.237,3.245,3.245,0,0,0-.3-.185,3.067,3.067,0,0,0-.391-.163q-.259-.092-.417-.141t-.483-.141q-.325-.092-.5-.145a9.372,9.372,0,0,1-.9-.316,3.932,3.932,0,0,1-.729-.417,1.679,1.679,0,0,1-.567-.681,2.3,2.3,0,0,1-.189-.967,2.234,2.234,0,0,1,.422-1.38,2.374,2.374,0,0,1,1.094-.813,4.374,4.374,0,0,1,1.534-.25,3.754,3.754,0,0,1,2.1.563,2.4,2.4,0,0,1,1.05,1.688l-1.248.316a1.655,1.655,0,0,0-.659-1.094,2.1,2.1,0,0,0-1.239-.365,2.139,2.139,0,0,0-1.16.3,1.019,1.019,0,0,0-.483.927.923.923,0,0,0,.127.479,1.521,1.521,0,0,0,.259.338,1.594,1.594,0,0,0,.475.259q.343.136.51.185t.633.163q.088.026.132.035.51.132.831.233a5.105,5.105,0,0,1,.747.316,2.484,2.484,0,0,1,.672.47,2.178,2.178,0,0,1,.422.668,2.358,2.358,0,0,1,.176.932,2.516,2.516,0,0,1-.259,1.165,2.028,2.028,0,0,1-.708.8,3.422,3.422,0,0,1-1.006.435A4.8,4.8,0,0,1,21.655,47.167ZM29.987,47a2.271,2.271,0,0,1-1.687-.62,2.344,2.344,0,0,1-.615-1.727v-5.08H25.918V38.36h.65a1.249,1.249,0,0,0,.954-.3,1.492,1.492,0,0,0,.277-1.015V35.478h1.415V38.36H31.2v1.213H29.214V44.5a1.31,1.31,0,0,0,.33.954,1.154,1.154,0,0,0,.866.338H31.2V47Zm4.9-7.119a2.612,2.612,0,0,1,1.072-1.16,3.229,3.229,0,0,1,1.661-.457V39.7a2.846,2.846,0,0,0-2.008.642,2.68,2.68,0,0,0-.69,2.048V47H33.4V38.36h1.485Zm5.291-3.551A1.035,1.035,0,0,1,39.146,35.3a.975.975,0,0,1,.3-.721,1,1,0,0,1,.725-.3.987.987,0,0,1,.716.3.975.975,0,0,1,.3.721.989.989,0,0,1-.3.725A.979.979,0,0,1,40.174,36.33ZM39.4,47V38.36H40.93V47Zm9.2-8.807a3.764,3.764,0,0,1,2.856,1.248,5.11,5.11,0,0,1,.009,6.5A3.756,3.756,0,0,1,48.6,47.185a3.467,3.467,0,0,1-1.841-.5,3.171,3.171,0,0,1-1.235-1.362L45.491,47H44.023V33.5h1.512l.009,6.513a3.184,3.184,0,0,1,1.235-1.332A3.476,3.476,0,0,1,48.6,38.193Zm-.334,7.673a2.644,2.644,0,0,0,2.021-.883,3.64,3.64,0,0,0,0-4.6,2.644,2.644,0,0,0-2.021-.883,2.586,2.586,0,0,0-2,.914,3.568,3.568,0,0,0,0,4.54A2.587,2.587,0,0,0,48.269,45.866ZM60.4,38.36h1.521V47H60.459l-.035-1.143a2.7,2.7,0,0,1-1.072.971,3.3,3.3,0,0,1-1.512.338,3.005,3.005,0,0,1-2.175-.782,2.918,2.918,0,0,1-.813-2.206V38.36h1.521v5.476a2.05,2.05,0,0,0,.532,1.547,1.882,1.882,0,0,0,1.358.51,2.067,2.067,0,0,0,1.534-.6,2.434,2.434,0,0,0,.6-1.767Zm8.2,8.8A4.161,4.161,0,0,1,65.5,45.919a4.922,4.922,0,0,1,0-6.486,4.5,4.5,0,0,1,5.6-.483,3.815,3.815,0,0,1,1.455,2.1l-1.424.229a2.63,2.63,0,0,0-.976-1.345,2.656,2.656,0,0,0-1.564-.475,2.554,2.554,0,0,0-2,.888,3.835,3.835,0,0,0,0,4.654,2.56,2.56,0,0,0,2,.883,2.656,2.656,0,0,0,1.564-.475,2.63,2.63,0,0,0,.976-1.345l1.424.237a3.819,3.819,0,0,1-1.463,2.1A4.185,4.185,0,0,1,68.6,47.158Zm6.97-10.828A1.035,1.035,0,0,1,74.539,35.3a.975.975,0,0,1,.3-.721,1,1,0,0,1,.725-.3.987.987,0,0,1,.716.3.975.975,0,0,1,.3.721.989.989,0,0,1-.3.725A.979.979,0,0,1,75.567,36.33ZM74.794,47V38.36h1.529V47Zm7.682-10.125,2.206-2.865.809.589-1.969,2.276Zm.58,10.292a4.554,4.554,0,0,1-2.215-.536,3.9,3.9,0,0,1-1.56-1.569,4.819,4.819,0,0,1-.576-2.386,4.4,4.4,0,0,1,1.226-3.256,4.6,4.6,0,0,1,6.253,0,4.956,4.956,0,0,1,0,6.521A4.232,4.232,0,0,1,83.056,47.167ZM83.047,45.9a2.654,2.654,0,0,0,2.043-.888,3.755,3.755,0,0,0,0-4.667,2.654,2.654,0,0,0-2.043-.888,2.617,2.617,0,0,0-2.026.888,3.788,3.788,0,0,0,0,4.667A2.617,2.617,0,0,0,83.047,45.9Zm10.819-7.708a3.005,3.005,0,0,1,2.175.782,2.918,2.918,0,0,1,.813,2.206V47H95.334V41.524a2.043,2.043,0,0,0-.527-1.547,1.885,1.885,0,0,0-1.354-.5,2.09,2.09,0,0,0-1.538.593,2.407,2.407,0,0,0-.606,1.762V47H89.788V38.36h1.521v1.107A2.885,2.885,0,0,1,93.866,38.193Z" transform="translate(534 3818.239)" fill="#f3f7fa"/>
    <path id="Trazado_57560" data-name="Trazado 57560" d="M9.572,17.167a6.574,6.574,0,0,1-2.435-.444,5.879,5.879,0,0,1-1.956-1.248,5.567,5.567,0,0,1-1.3-2.008,7.263,7.263,0,0,1-.47-2.663,7.144,7.144,0,0,1,.475-2.65A5.556,5.556,0,0,1,7.138,4.9a6.633,6.633,0,0,1,2.435-.439,6.526,6.526,0,0,1,2.417.444A5.831,5.831,0,0,1,13.94,6.15a5.652,5.652,0,0,1,1.3,2,7.144,7.144,0,0,1,.475,2.65,7.213,7.213,0,0,1-.475,2.659,5.638,5.638,0,0,1-1.3,2.013,5.831,5.831,0,0,1-1.951,1.248A6.526,6.526,0,0,1,9.572,17.167Zm0-1.485a4.422,4.422,0,0,0,3.274-1.305,4.847,4.847,0,0,0,1.3-3.573,5.674,5.674,0,0,0-.356-2.057,4.236,4.236,0,0,0-.976-1.529,4.28,4.28,0,0,0-1.45-.932,4.862,4.862,0,0,0-1.789-.325,4.921,4.921,0,0,0-1.8.325,4.317,4.317,0,0,0-1.459.932,4.206,4.206,0,0,0-.98,1.529A5.674,5.674,0,0,0,4.976,10.8a5.771,5.771,0,0,0,.356,2.074,4.194,4.194,0,0,0,.98,1.538,4.374,4.374,0,0,0,1.459.936A4.863,4.863,0,0,0,9.572,15.682ZM21.1,17a2.271,2.271,0,0,1-1.687-.62,2.344,2.344,0,0,1-.615-1.727V9.573H17.034V8.36h.65a1.249,1.249,0,0,0,.954-.3,1.492,1.492,0,0,0,.277-1.015V5.478H20.33V8.36h1.986V9.573H20.33V14.5a1.31,1.31,0,0,0,.33.954,1.154,1.154,0,0,0,.866.338h.791V17ZM26,9.881a2.612,2.612,0,0,1,1.072-1.16,3.229,3.229,0,0,1,1.661-.457V9.7a2.846,2.846,0,0,0-2.008.642,2.68,2.68,0,0,0-.69,2.048V17H24.514V8.36H26Zm8.051,7.286a4.554,4.554,0,0,1-2.215-.536,3.9,3.9,0,0,1-1.56-1.569,4.819,4.819,0,0,1-.576-2.386,4.4,4.4,0,0,1,1.226-3.256,4.6,4.6,0,0,1,6.253,0A4.41,4.41,0,0,1,38.4,12.676a4.413,4.413,0,0,1-1.226,3.265A4.232,4.232,0,0,1,34.05,17.167ZM34.041,15.9a2.654,2.654,0,0,0,2.043-.888,3.326,3.326,0,0,0,.813-2.338,3.314,3.314,0,0,0-.813-2.329,2.654,2.654,0,0,0-2.043-.888,2.617,2.617,0,0,0-2.026.888,3.336,3.336,0,0,0-.8,2.329,3.348,3.348,0,0,0,.8,2.338A2.617,2.617,0,0,0,34.041,15.9Zm9.475,1.266a4.1,4.1,0,0,1-2.329-.624,2.581,2.581,0,0,1-1.134-1.775l1.327-.378a1.851,1.851,0,0,0,.708,1.2,2.3,2.3,0,0,0,1.419.426,2.832,2.832,0,0,0,.831-.114,1.331,1.331,0,0,0,.637-.426,1.189,1.189,0,0,0,.185-1.143,1.526,1.526,0,0,0-.141-.286.87.87,0,0,0-.246-.237,3.245,3.245,0,0,0-.3-.185,3.067,3.067,0,0,0-.391-.163q-.259-.092-.417-.141t-.483-.141q-.325-.092-.5-.145a9.372,9.372,0,0,1-.9-.316,3.932,3.932,0,0,1-.729-.417,1.679,1.679,0,0,1-.567-.681,2.3,2.3,0,0,1-.189-.967,2.234,2.234,0,0,1,.422-1.38,2.374,2.374,0,0,1,1.094-.813,4.374,4.374,0,0,1,1.534-.25,3.754,3.754,0,0,1,2.1.563,2.4,2.4,0,0,1,1.05,1.688l-1.248.316A1.655,1.655,0,0,0,44.6,9.683a2.1,2.1,0,0,0-1.239-.365,2.139,2.139,0,0,0-1.16.3,1.019,1.019,0,0,0-.483.927.923.923,0,0,0,.127.479,1.521,1.521,0,0,0,.259.338,1.594,1.594,0,0,0,.475.259q.343.136.51.185t.633.163q.088.026.132.035.51.132.831.233a5.105,5.105,0,0,1,.747.316,2.484,2.484,0,0,1,.672.47,2.178,2.178,0,0,1,.422.668,2.358,2.358,0,0,1,.176.932,2.516,2.516,0,0,1-.259,1.165,2.028,2.028,0,0,1-.708.8,3.422,3.422,0,0,1-1.006.435A4.8,4.8,0,0,1,43.516,17.167Zm6.759,3.006H49.167l1.072-5.449H51.83ZM61.656,8.483a1,1,0,0,1,1.424,0,1.008,1.008,0,0,1,0,1.437.982.982,0,0,1-1.419,0,1.013,1.013,0,0,1,0-1.437Zm1.415,3.34v1.1a1.829,1.829,0,0,1-.413,1.279,4.458,4.458,0,0,1-1.336.9,2.161,2.161,0,0,0-1.151,2.136,2.4,2.4,0,0,0,.633,1.745,2.173,2.173,0,0,0,1.635.655,2.094,2.094,0,0,0,1.613-.694,2.5,2.5,0,0,0,.637-1.758,4.148,4.148,0,0,0-.07-.721l1.336.132a4.487,4.487,0,0,1,.062.756,3.417,3.417,0,0,1-3.56,3.56,3.479,3.479,0,0,1-3.63-3.647,4.233,4.233,0,0,1,.163-1.213,2.94,2.94,0,0,1,.444-.923,3.229,3.229,0,0,1,.611-.633,3.059,3.059,0,0,1,.716-.413,2.037,2.037,0,0,0,.76-.5,1.148,1.148,0,0,0,.242-.773v-.984Zm11.206,5.344a6.574,6.574,0,0,1-2.435-.444,5.879,5.879,0,0,1-1.956-1.248,5.567,5.567,0,0,1-1.3-2.008,7.263,7.263,0,0,1-.47-2.663,7.144,7.144,0,0,1,.475-2.65A5.556,5.556,0,0,1,71.843,4.9a6.633,6.633,0,0,1,2.435-.439,6.287,6.287,0,0,1,3.292.87,5.421,5.421,0,0,1,2.175,2.417l-1.45.6a4.075,4.075,0,0,0-1.622-1.762,4.654,4.654,0,0,0-2.4-.62,4.921,4.921,0,0,0-1.8.325,4.317,4.317,0,0,0-1.459.932,4.206,4.206,0,0,0-.98,1.529,5.674,5.674,0,0,0-.356,2.057,5.71,5.71,0,0,0,.356,2.061,4.2,4.2,0,0,0,.98,1.534,4.374,4.374,0,0,0,1.459.936,4.863,4.863,0,0,0,1.8.33,4.654,4.654,0,0,0,2.4-.62,4.085,4.085,0,0,0,1.622-1.753l1.45.589A5.394,5.394,0,0,1,77.573,16.3,6.305,6.305,0,0,1,74.277,17.167ZM87.426,8.36h1.521V17H87.487l-.035-1.143a2.7,2.7,0,0,1-1.072.971,3.3,3.3,0,0,1-1.512.338,3.005,3.005,0,0,1-2.175-.782,2.918,2.918,0,0,1-.813-2.206V8.36H83.4v5.476a2.05,2.05,0,0,0,.532,1.547,1.882,1.882,0,0,0,1.358.51,2.067,2.067,0,0,0,1.534-.6,2.434,2.434,0,0,0,.6-1.767Zm7.233-1.494L96.865,4l.809.589L95.705,6.866Zm-.624,10.3a2.94,2.94,0,0,1-1.894-.593A2.13,2.13,0,0,1,91.4,14.8a2.517,2.517,0,0,1,.237-1.129,1.991,1.991,0,0,1,.7-.787,4.218,4.218,0,0,1,1.015-.488,9.384,9.384,0,0,1,1.314-.312l1.4-.229q.765-.141.765-.8a1.51,1.51,0,0,0-.541-1.288,2.2,2.2,0,0,0-1.367-.409,2.243,2.243,0,0,0-1.354.4,1.655,1.655,0,0,0-.642,1.213l-1.371-.29a2.639,2.639,0,0,1,1.081-1.85,4.039,4.039,0,0,1,2.355-.62,4.777,4.777,0,0,1,1.252.154,3.4,3.4,0,0,1,1.046.483,2.168,2.168,0,0,1,.747.932,3.466,3.466,0,0,1,.268,1.419v3.568a1.46,1.46,0,0,0,.2.9.854.854,0,0,0,.681.233h.141V17H98.57a1.442,1.442,0,0,1-1.635-1.169h-.07A3.3,3.3,0,0,1,94.035,17.167Zm.352-1.23a2.305,2.305,0,0,0,1.854-.835,3.438,3.438,0,0,0,.7-2.285l-2.285.439a3.076,3.076,0,0,0-1.34.479,1.114,1.114,0,0,0-.435.945,1.1,1.1,0,0,0,.417.949A1.785,1.785,0,0,0,94.387,15.937ZM101.471,17V3.5h1.538V17Zm6.935-3.463v-1.1a1.829,1.829,0,0,1,.413-1.279,4.458,4.458,0,0,1,1.336-.9,2.161,2.161,0,0,0,1.151-2.136,2.4,2.4,0,0,0-.633-1.745,2.173,2.173,0,0,0-1.635-.655,2.094,2.094,0,0,0-1.613.694,2.5,2.5,0,0,0-.637,1.758,4.148,4.148,0,0,0,.07.721l-1.336-.132a4.487,4.487,0,0,1-.062-.756,3.417,3.417,0,0,1,3.56-3.56A3.479,3.479,0,0,1,112.65,8.1a4.233,4.233,0,0,1-.163,1.213,2.94,2.94,0,0,1-.444.923,3.229,3.229,0,0,1-.611.633,3.059,3.059,0,0,1-.716.413,2.037,2.037,0,0,0-.76.5,1.148,1.148,0,0,0-.242.773v.984Zm1.415,3.34a1,1,0,0,1-1.424,0,1.008,1.008,0,0,1,0-1.437.982.982,0,0,1,1.419,0,1.013,1.013,0,0,1,0,1.437Z" transform="translate(524 3898.239)" fill="#f3f7fa"/>
  </g>
</svg>
