<svg xmlns="http://www.w3.org/2000/svg" viewBox="0 0 859.78 474.68"><defs><style>.cls-1{fill:#cddc39;}.cls-2{fill:#7cb342;}.cls-3{fill:#283593;}.cls-4{fill:#4db6ac;}.cls-5{fill:#fff;}.cls-6{fill:#00223d;}.cls-7{opacity:0.53;}.cls-8{fill:#93b3f4;}.cls-9{fill:#bed2fa;}.cls-10{fill:#3662c1;}.cls-11{fill:#fa7269;}.cls-12{fill:#ed6966;}.cls-13{fill:#fc9290;}.cls-14{fill:#e75755;}.cls-15{fill:#120e59;}.cls-16{fill:#9e332e;}.cls-17{fill:#eb8d8d;}.cls-18{fill:#6d89cf;}.cls-19{fill:#0b0754;}.cls-20{fill:#030231;}.cls-21{fill:#d0defb;}.cls-22{fill:#ea8888;}</style></defs><g id="Capa_2" data-name="Capa 2"><g id="Capa_1-2" data-name="Capa 1"><g id="Grupo_29551" data-name="Grupo 29551"><g id="Grupo_29182" data-name="Grupo 29182"><g id="Grupo_21343" data-name="Grupo 21343"><g id="Grupo_21339" data-name="Grupo 21339"><g id="Grupo_21338" data-name="Grupo 21338"><g id="Grupo_21337" data-name="Grupo 21337"><path id="Trazado_19639" data-name="Trazado 19639" class="cls-1" d="M138.87,164.91c2.21-6.47.08-15.72-4.74-20.56L9.66,19.29C4.84,14.45.89,16.07.87,22.9L0,390.55c0,6.83,3.93,8.47,8.77,3.65L133.83,269.74c4.85-4.82,7-14.06,4.85-20.53Z"/><path id="Trazado_19640" data-name="Trazado 19640" class="cls-2" d="M249.53,138.88c6.46,2.21,15.71.07,20.55-4.75L395.15,9.67C400,4.85,398.36.89,391.53.88L23.89,0c-6.83,0-8.48,3.93-3.66,8.77L144.7,133.84c4.82,4.84,14.05,7,20.53,4.84Z"/><path id="Trazado_19641" data-name="Trazado 19641" class="cls-3" d="M164.9,275.56c-6.46-2.21-15.71-.08-20.55,4.74L19.28,404.77c-4.84,4.82-3.21,8.77,3.62,8.79l367.64.88c6.83,0,8.48-3.94,3.67-8.78L269.73,280.6c-4.81-4.84-14.05-7-20.53-4.84Z"/><path id="Trazado_19642" data-name="Trazado 19642" class="cls-4" d="M275.55,249.53c-2.21,6.46-.07,15.71,4.75,20.55L404.76,395.15c4.82,4.84,8.78,3.21,8.8-3.62l.87-367.64c0-6.83-3.93-8.48-8.77-3.66L280.6,144.7c-4.85,4.82-7,14.05-4.84,20.53Z"/></g></g></g><path id="Trazado_19643" data-name="Trazado 19643" class="cls-5" d="M293.05,207.22a85.84,85.84,0,1,1-85.84-85.84,85.84,85.84,0,0,1,85.84,85.84Z"/></g><path id="Trazado_57626" data-name="Trazado 57626" class="cls-6" d="M168.23,201.26h-5.76v3.53h5.1v2.8h-5.1v3.51h5.76V214h-9V198.43h9Zm4.5,0a1.72,1.72,0,0,1-1.27-.52,1.69,1.69,0,0,1-.53-1.26,1.79,1.79,0,0,1,1.8-1.77,1.78,1.78,0,0,1,0,3.55Zm-3.85,17.88v-2.42a3.54,3.54,0,0,0,1.16-.16,1.25,1.25,0,0,0,.69-.55,2.62,2.62,0,0,0,.33-.95,12.12,12.12,0,0,0,.08-1.48V202.91h3.13v10.66A6,6,0,0,1,173,217.8,5.5,5.5,0,0,1,168.88,219.13Zm19-10.86,0,.74h-8.19a2.88,2.88,0,0,0,.89,2,2.81,2.81,0,0,0,1.94.7,2.77,2.77,0,0,0,1.46-.38,2.43,2.43,0,0,0,.92-1.11l2.84.41a4.83,4.83,0,0,1-1.93,2.59,5.82,5.82,0,0,1-3.27.93,6,6,0,0,1-4.3-1.52,6.35,6.35,0,0,1,0-8.43,5.78,5.78,0,0,1,4.2-1.55,5.07,5.07,0,0,1,5.47,5.6Zm-5.44-3.41a2.45,2.45,0,0,0-2.69,2.13h5.07a2.29,2.29,0,0,0-.76-1.58,2.4,2.4,0,0,0-1.62-.55Zm20.88-2.17a4.3,4.3,0,0,1,2.85.9,3.22,3.22,0,0,1,1,2.58V214h-3.1V207a1.86,1.86,0,0,0-.49-1.4,1.7,1.7,0,0,0-1.25-.47,2,2,0,0,0-1.5.6,2.76,2.76,0,0,0-.58,1.94V214h-3.13v-6.88a1.91,1.91,0,0,0-.49-1.42,1.8,1.8,0,0,0-1.28-.48,2,2,0,0,0-1.49.64,3,3,0,0,0-.58,2.07V214h-3.08v-11h3.08v1.3a3.75,3.75,0,0,1,3.2-1.52,4.68,4.68,0,0,1,2.08.43,2.77,2.77,0,0,1,1.3,1.23,3.9,3.9,0,0,1,3.42-1.66Zm13.37,0a5.45,5.45,0,0,1,2.07.4,5.3,5.3,0,0,1,1.69,1.12,5,5,0,0,1,1.14,1.82,6.71,6.71,0,0,1,.42,2.42,6.63,6.63,0,0,1-.42,2.42,4.92,4.92,0,0,1-1.14,1.83,5.11,5.11,0,0,1-1.69,1.11,5.26,5.26,0,0,1-2.07.4,4.78,4.78,0,0,1-2-.41,3.11,3.11,0,0,1-1.38-1.16v6.69h-3.09V202.91h2.93l.08,1.48a3,3,0,0,1,1.38-1.25,4.7,4.7,0,0,1,2.08-.45Zm-.7,8.95a2.78,2.78,0,0,0,2.09-.86,3.65,3.65,0,0,0,0-4.66,3,3,0,0,0-4.18,0h0a3.6,3.6,0,0,0,0,4.62,2.79,2.79,0,0,0,2.11.88Zm8.35,2.31v-16.5h3.13V214Zm11.47.21a7,7,0,0,1-3.12-.67,5,5,0,0,1-2.14-2,5.84,5.84,0,0,1-.78-3.08,5.39,5.39,0,0,1,1.67-4.19,7,7,0,0,1,8.76,0,6.1,6.1,0,0,1,0,8.39A6.2,6.2,0,0,1,235.8,214.16Zm0-2.46a2.79,2.79,0,0,0,2.19-.9,3.39,3.39,0,0,0,.83-2.38A3.43,3.43,0,0,0,238,206a2.86,2.86,0,0,0-2.19-.9,2.77,2.77,0,0,0-2.12.91,3.86,3.86,0,0,0,0,4.76A2.72,2.72,0,0,0,235.77,211.7Zm12.28,2.46a6,6,0,0,1-3.22-.77,3.22,3.22,0,0,1-1.58-2.3l2.59-.73a2.08,2.08,0,0,0,2.21,1.65,2.34,2.34,0,0,0,1.13-.26.88.88,0,0,0,.44-.85.94.94,0,0,0-.18-.57,1.54,1.54,0,0,0-.57-.41,6.13,6.13,0,0,0-.75-.29l-1-.28c-.41-.11-.75-.22-1-.32a7.41,7.41,0,0,1-1-.41,4.14,4.14,0,0,1-.8-.57,2.27,2.27,0,0,1-.6-.87,3,3,0,0,1-.21-1.18,2.81,2.81,0,0,1,1.2-2.47,5.32,5.32,0,0,1,3.13-.84,5.51,5.51,0,0,1,2.89.71,3.2,3.2,0,0,1,1.48,2.21l-2.4.54a1.89,1.89,0,0,0-2-1.4,2.15,2.15,0,0,0-1.08.25.79.79,0,0,0-.43.73,1,1,0,0,0,.06.33.67.67,0,0,0,.23.27,3.28,3.28,0,0,0,.31.2,3.38,3.38,0,0,0,.44.18l.48.14.57.14.57.15c.4.11.74.21,1,.32a6.36,6.36,0,0,1,.95.45,3.51,3.51,0,0,1,.83.65,3,3,0,0,1,.55.92,3.42,3.42,0,0,1,.21,1.23,3.33,3.33,0,0,1-.37,1.6,2.91,2.91,0,0,1-1,1.08,5.3,5.3,0,0,1-1.44.58A7.09,7.09,0,0,1,248.05,214.16Z"/><path id="Trazado_57627" data-name="Trazado 57627" class="cls-5" d="M180.71,71.1h4.86V74h-8.08V58.43h3.22Zm8.5-9.85a1.72,1.72,0,0,1-1.27-.52,1.76,1.76,0,0,1-.53-1.26,1.81,1.81,0,0,1,1.8-1.77,1.78,1.78,0,0,1,0,3.55ZM187.63,74v-11h3.11V74Zm12.8-11.26a5.35,5.35,0,0,1,2,.4A5,5,0,0,1,205.31,66a7.18,7.18,0,0,1,0,4.84,5,5,0,0,1-2.83,2.94,5.35,5.35,0,0,1-2,.4,4.71,4.71,0,0,1-2.09-.45A3.06,3.06,0,0,1,197,72.51L196.88,74h-2.94V57.45H197v6.8a3.07,3.07,0,0,1,1.37-1.15,4.87,4.87,0,0,1,2-.41Zm-.72,9a2.79,2.79,0,0,0,2.1-.87,3.64,3.64,0,0,0,0-4.65,2.93,2.93,0,0,0-4.18,0,3.31,3.31,0,0,0-.84,2.32,3.18,3.18,0,0,0,.84,2.31A2.72,2.72,0,0,0,199.71,71.64Zm11.33-7a3.58,3.58,0,0,1,1.45-1.33,4.29,4.29,0,0,1,2.16-.55v2.76a4.18,4.18,0,0,0-2.65.66,2.93,2.93,0,0,0-.81,2.37V74h-3.12v-11h3Zm10.5,9.5a7,7,0,0,1-3.12-.67,5.1,5.1,0,0,1-2.15-2,6,6,0,0,1-.78-3.08,5.4,5.4,0,0,1,1.68-4.19,7,7,0,0,1,8.76,0,6.1,6.1,0,0,1,0,8.39,6.2,6.2,0,0,1-4.39,1.54Zm0-2.46a2.8,2.8,0,0,0,2.19-.9,3.39,3.39,0,0,0,.83-2.38A3.43,3.43,0,0,0,223.7,66a2.87,2.87,0,0,0-2.19-.9,2.75,2.75,0,0,0-2.12.91,3.86,3.86,0,0,0,0,4.76,2.71,2.71,0,0,0,2.12.9Zm12.28,2.46a6,6,0,0,1-3.22-.77,3.22,3.22,0,0,1-1.58-2.3l2.59-.73A2.08,2.08,0,0,0,233.79,72a2.28,2.28,0,0,0,1.12-.26.86.86,0,0,0,.44-.85.83.83,0,0,0-.18-.57,1.43,1.43,0,0,0-.56-.41,7.71,7.71,0,0,0-.75-.29c-.25-.08-.58-.18-1-.29s-.75-.21-1-.31a6.93,6.93,0,0,1-1-.42,4.09,4.09,0,0,1-.81-.57,2.27,2.27,0,0,1-.6-.86,3.41,3.41,0,0,1-.21-1.18,2.83,2.83,0,0,1,1.2-2.47,6.26,6.26,0,0,1,6-.13A3.18,3.18,0,0,1,238,65.61l-2.4.54a1.87,1.87,0,0,0-2-1.4,2.11,2.11,0,0,0-1.08.24.87.87,0,0,0-.37,1.07.74.74,0,0,0,.23.27l.31.2a2.35,2.35,0,0,0,.44.17l.48.14.57.15.57.15c.39.1.74.21,1,.32a5.88,5.88,0,0,1,1,.45,3.27,3.27,0,0,1,.83.65,2.81,2.81,0,0,1,.54.91,3.47,3.47,0,0,1,.22,1.23,3.39,3.39,0,0,1-.37,1.6,2.79,2.79,0,0,1-1,1.08,4.68,4.68,0,0,1-1.43.58,7.15,7.15,0,0,1-1.72.2Z"/><path id="Trazado_57628" data-name="Trazado 57628" class="cls-5" d="M323.27,214l-4-6.83h-.94V214h-3.22V198.43h5.63a6.45,6.45,0,0,1,2.26.36,3.81,3.81,0,0,1,1.56,1,4.2,4.2,0,0,1,.88,1.46,5.33,5.33,0,0,1,.3,1.81,3.78,3.78,0,0,1-.85,2.56,4.28,4.28,0,0,1-2.44,1.33l4.67,7Zm-5-12.85v3.71h1.9c1.62,0,2.42-.62,2.42-1.85a1.65,1.65,0,0,0-.59-1.36,2.77,2.77,0,0,0-1.83-.5Zm20.48,7.17,0,.74h-8.19a2.7,2.7,0,0,0,2.83,2.72,2.74,2.74,0,0,0,1.45-.38,2.37,2.37,0,0,0,.93-1.12l2.84.42a4.79,4.79,0,0,1-1.94,2.59,5.81,5.81,0,0,1-3.26.93,6,6,0,0,1-4.3-1.52,6.37,6.37,0,0,1,0-8.44,5.8,5.8,0,0,1,4.2-1.54,5.07,5.07,0,0,1,5.47,5.6Zm-5.45-3.41a2.44,2.44,0,0,0-2.68,2.13h5.07a2.34,2.34,0,0,0-.77-1.58,2.38,2.38,0,0,0-1.62-.55Zm14.55-2h3.27l-4.7,11h-2.69l-4.65-11h3.26l2.75,7.55Zm6.48-1.66a1.72,1.72,0,0,1-1.27-.52,1.69,1.69,0,0,1-.53-1.26,1.71,1.71,0,0,1,.53-1.25,1.77,1.77,0,1,1,1.27,3ZM352.77,214v-11h3.11v11Zm10.2.21a6,6,0,0,1-3.22-.77,3.25,3.25,0,0,1-1.58-2.3l2.59-.73A2.08,2.08,0,0,0,363,212a2.34,2.34,0,0,0,1.13-.26.88.88,0,0,0,.44-.85.94.94,0,0,0-.18-.57,1.54,1.54,0,0,0-.57-.41,6.13,6.13,0,0,0-.75-.29l-1-.28c-.41-.11-.75-.22-1-.32a7,7,0,0,1-1-.41,4.14,4.14,0,0,1-.8-.57,2.27,2.27,0,0,1-.6-.87,3,3,0,0,1-.21-1.18,2.81,2.81,0,0,1,1.2-2.47,5.32,5.32,0,0,1,3.13-.84,5.51,5.51,0,0,1,2.89.71,3.22,3.22,0,0,1,1.48,2.21l-2.4.54a1.88,1.88,0,0,0-2-1.4,2.16,2.16,0,0,0-1.09.25.83.83,0,0,0-.36,1.06.58.58,0,0,0,.22.27l.31.2a3.38,3.38,0,0,0,.44.18l.49.14.56.14.58.15c.39.11.73.22,1,.32a7.53,7.53,0,0,1,.95.45,4.1,4.1,0,0,1,.84.65,2.94,2.94,0,0,1,.54.92,3.67,3.67,0,0,1-.16,2.83,2.76,2.76,0,0,1-1,1.08,5.3,5.3,0,0,1-1.44.58A7.09,7.09,0,0,1,363,214.16Zm10.88-.21a3.32,3.32,0,0,1-2.49-.9,3.51,3.51,0,0,1-.88-2.55v-5.22h-2.17v-2.37h.7a1.85,1.85,0,0,0,1.37-.46,2.36,2.36,0,0,0,.44-1.64v-1.47h2.79v3.57h2.28v2.37h-2.28v4.89c0,1,.43,1.43,1.28,1.43h1V214Zm13.45-3a10.24,10.24,0,0,0,.27,2.7v.3h-2.89l-.25-1.2a3.59,3.59,0,0,1-1.54,1.06,5.7,5.7,0,0,1-2,.36,5.89,5.89,0,0,1-1-.1,3.67,3.67,0,0,1-.93-.33,2.74,2.74,0,0,1-.77-.58,2.49,2.49,0,0,1-.52-.87,3.51,3.51,0,0,1-.19-1.2,3.26,3.26,0,0,1,.2-1.2,2.67,2.67,0,0,1,.54-.9,3.13,3.13,0,0,1,.87-.66,6.28,6.28,0,0,1,1.1-.47,12,12,0,0,1,1.31-.34l1.81-.41a2,2,0,0,0,.83-.35.72.72,0,0,0,.24-.55,1.17,1.17,0,0,0-.54-1.07,2.66,2.66,0,0,0-1.32-.32,1.9,1.9,0,0,0-2.15,1.6s0,.06,0,.09l-2.74-.5a3.71,3.71,0,0,1,1.6-2.51,6.39,6.39,0,0,1,3.47-.82c3.1,0,4.64,1.33,4.64,4Zm-5.44,1.12a2.51,2.51,0,0,0,1.91-.8,3.38,3.38,0,0,0,.74-2.37l-2.62.74a3.12,3.12,0,0,0-1.1.45.93.93,0,0,0-.38.8,1,1,0,0,0,.41.87A1.66,1.66,0,0,0,381.86,212.07Zm12.34,2.09a6,6,0,0,1-3.22-.77,3.22,3.22,0,0,1-1.58-2.3l2.59-.73A2.08,2.08,0,0,0,394.2,212a2.34,2.34,0,0,0,1.13-.26,1,1,0,0,0,.25-1.42,1.43,1.43,0,0,0-.56-.41,6.83,6.83,0,0,0-.75-.29l-1-.28c-.41-.11-.75-.22-1-.32a7.41,7.41,0,0,1-1-.41,4.14,4.14,0,0,1-.8-.57,2.27,2.27,0,0,1-.6-.87,3,3,0,0,1-.21-1.18,2.81,2.81,0,0,1,1.2-2.47,5.32,5.32,0,0,1,3.13-.84,5.51,5.51,0,0,1,2.89.71,3.22,3.22,0,0,1,1.48,2.21l-2.4.54a1.89,1.89,0,0,0-2-1.4,2.15,2.15,0,0,0-1.08.25.79.79,0,0,0-.43.73,1,1,0,0,0,.06.33.67.67,0,0,0,.23.27,3.28,3.28,0,0,0,.31.2,3.38,3.38,0,0,0,.44.18l.48.14.57.14.57.15c.4.11.74.21,1,.32a6.36,6.36,0,0,1,.95.45,3.51,3.51,0,0,1,.83.65,3,3,0,0,1,.55.92,3.42,3.42,0,0,1,.21,1.23,3.33,3.33,0,0,1-.37,1.6,2.91,2.91,0,0,1-1,1.08,5.3,5.3,0,0,1-1.44.58,7.09,7.09,0,0,1-1.72.19Z"/><path id="Trazado_57629" data-name="Trazado 57629" class="cls-5" d="M160.92,347.26h-5.76v3.53h5.1v2.8h-5.1v3.51h5.76V360h-9V344.43h9Zm6.8,12.9a6.14,6.14,0,0,1-3.22-.77,3.24,3.24,0,0,1-1.58-2.3l2.59-.73a2.07,2.07,0,0,0,2.21,1.64,2.23,2.23,0,0,0,1.13-.25.89.89,0,0,0,.44-.85.94.94,0,0,0-.18-.57,1.54,1.54,0,0,0-.57-.41,6.13,6.13,0,0,0-.75-.29l-1-.28c-.41-.12-.75-.22-1-.32a6,6,0,0,1-1-.42,3.71,3.71,0,0,1-.8-.56,2.27,2.27,0,0,1-.6-.87,3,3,0,0,1-.21-1.18,2.81,2.81,0,0,1,1.2-2.47,5.32,5.32,0,0,1,3.13-.84,5.42,5.42,0,0,1,2.89.71,3.2,3.2,0,0,1,1.48,2.21l-2.4.54a1.88,1.88,0,0,0-2-1.4,2.06,2.06,0,0,0-1.09.25.79.79,0,0,0-.43.73,1,1,0,0,0,.06.33.67.67,0,0,0,.23.27,3.28,3.28,0,0,0,.31.2,2.35,2.35,0,0,0,.44.17l.49.14.56.15.57.15c.4.11.74.21,1,.32a5.5,5.5,0,0,1,.95.45,3.51,3.51,0,0,1,.84.65,3.14,3.14,0,0,1,.54.92,3.42,3.42,0,0,1,.21,1.23,3.33,3.33,0,0,1-.37,1.6,2.83,2.83,0,0,1-1,1.08,5.3,5.3,0,0,1-1.44.58,7.09,7.09,0,0,1-1.72.19ZM178.6,360a3.32,3.32,0,0,1-2.49-.9,3.51,3.51,0,0,1-.88-2.55v-5.22h-2.17v-2.37h.7a1.85,1.85,0,0,0,1.37-.46,2.36,2.36,0,0,0,.44-1.64v-1.47h2.8v3.57h2.27v2.37h-2.27v4.89c0,.95.42,1.43,1.27,1.43h1V360Zm13.45-3a10.24,10.24,0,0,0,.27,2.7v.3h-2.89l-.25-1.2a3.59,3.59,0,0,1-1.54,1.06,5.7,5.7,0,0,1-2,.36,5.8,5.8,0,0,1-1-.1,3.67,3.67,0,0,1-.93-.33,2.74,2.74,0,0,1-.77-.58,2.49,2.49,0,0,1-.52-.87,3.51,3.51,0,0,1-.19-1.2,3.26,3.26,0,0,1,.2-1.2,2.67,2.67,0,0,1,.54-.9,3.13,3.13,0,0,1,.87-.66,6.28,6.28,0,0,1,1.1-.47,11.44,11.44,0,0,1,1.31-.34l1.81-.41a1.88,1.88,0,0,0,.82-.35.73.73,0,0,0,.25-.55,1.14,1.14,0,0,0-.55-1.06,2.41,2.41,0,0,0-1.31-.32,1.89,1.89,0,0,0-2.15,1.6s0,.06,0,.08l-2.74-.49a3.73,3.73,0,0,1,1.6-2.52,6.38,6.38,0,0,1,3.47-.81q4.64,0,4.64,4Zm-5.44,1.12a2.51,2.51,0,0,0,1.91-.8,3.38,3.38,0,0,0,.74-2.37l-2.62.74a3,3,0,0,0-1.1.45.9.9,0,0,0-.38.8,1,1,0,0,0,.4.87A1.71,1.71,0,0,0,186.61,358.07Zm16-14.62h3.1V360H202.8l-.07-1.44a3.14,3.14,0,0,1-1.4,1.25,4.77,4.77,0,0,1-2.07.45,5.55,5.55,0,0,1-2.06-.4,5,5,0,0,1-2.84-2.95,6.83,6.83,0,0,1-.42-2.41,6.36,6.36,0,0,1,.73-3.08,5,5,0,0,1,1.93-2,5.27,5.27,0,0,1,2.66-.68,4.9,4.9,0,0,1,2,.4,3.15,3.15,0,0,1,1.38,1.15ZM200,357.64a2.76,2.76,0,0,0,2.09-.88,3.63,3.63,0,0,0,0-4.63,2.72,2.72,0,0,0-2.08-.88,2.77,2.77,0,0,0-2.1.87,3.67,3.67,0,0,0,0,4.65A2.81,2.81,0,0,0,200,357.64Zm9.58-10.25,2.81-3.95,1.53,1.07-2.44,2.88ZM208.94,360v-11h3.11v11Zm10.2.21a6,6,0,0,1-3.22-.77,3.27,3.27,0,0,1-1.58-2.3l2.59-.73a2.1,2.1,0,0,0,2.21,1.65,2.34,2.34,0,0,0,1.13-.26.87.87,0,0,0,.44-.85.88.88,0,0,0-.18-.57,1.46,1.46,0,0,0-.57-.41,6.13,6.13,0,0,0-.75-.29l-1-.28c-.41-.11-.75-.22-1-.32a7.41,7.41,0,0,1-1-.41,4.14,4.14,0,0,1-.8-.57,2.27,2.27,0,0,1-.6-.87,3,3,0,0,1-.21-1.18,2.81,2.81,0,0,1,1.2-2.47,5.32,5.32,0,0,1,3.13-.84,5.51,5.51,0,0,1,2.89.71,3.2,3.2,0,0,1,1.48,2.21l-2.4.54a1.89,1.89,0,0,0-2-1.4,2.15,2.15,0,0,0-1.08.25.79.79,0,0,0-.43.73,1,1,0,0,0,.06.33.67.67,0,0,0,.23.27,3.28,3.28,0,0,0,.31.2,3.38,3.38,0,0,0,.44.18l.48.14.57.14.57.15c.4.11.74.21,1,.32a6.36,6.36,0,0,1,.95.45,3.51,3.51,0,0,1,.83.65,3,3,0,0,1,.55.92,3.42,3.42,0,0,1,.21,1.23,3.33,3.33,0,0,1-.37,1.6,2.91,2.91,0,0,1-1,1.08,5.3,5.3,0,0,1-1.44.58A7.23,7.23,0,0,1,219.14,360.16ZM230,360a3.34,3.34,0,0,1-2.5-.9,3.51,3.51,0,0,1-.88-2.55v-5.22h-2.17v-2.37h.7a1.89,1.89,0,0,0,1.38-.46,2.41,2.41,0,0,0,.44-1.64v-1.47h2.79v3.57h2.28v2.37h-2.28v4.89c0,.95.42,1.43,1.28,1.43h1V360Zm6-12.7a1.74,1.74,0,0,1-1.27-.52,1.71,1.71,0,0,1-.52-1.26,1.63,1.63,0,0,1,.53-1.25,1.76,1.76,0,0,1,1.26-.53,1.78,1.78,0,0,1,0,3.56ZM234.46,360v-11h3.12v11Zm11.31.2a5.9,5.9,0,0,1-4.26-1.59,6,6,0,0,1,0-8.29,6.55,6.55,0,0,1,7.85-.52,4.76,4.76,0,0,1,1.85,3l-2.86.31a2.46,2.46,0,0,0-.92-1.45,2.86,2.86,0,0,0-1.68-.48,2.54,2.54,0,0,0-2,.9,3.54,3.54,0,0,0-.77,2.39,3.51,3.51,0,0,0,.77,2.37,2.5,2.5,0,0,0,2,.91,2.81,2.81,0,0,0,1.67-.48,2.52,2.52,0,0,0,.93-1.45l2.86.31a4.76,4.76,0,0,1-1.87,3A5.88,5.88,0,0,1,245.77,360.15Zm16.69-3.2a10.67,10.67,0,0,0,.26,2.7v.3h-2.89l-.24-1.2a3.68,3.68,0,0,1-1.55,1.06,5.7,5.7,0,0,1-2,.36,5.89,5.89,0,0,1-1-.1,3.82,3.82,0,0,1-.93-.33,2.74,2.74,0,0,1-.77-.58,2.47,2.47,0,0,1-.51-.87,3.52,3.52,0,0,1-.2-1.2,3.48,3.48,0,0,1,.2-1.2,2.84,2.84,0,0,1,.54-.9,3.28,3.28,0,0,1,.87-.66,6.28,6.28,0,0,1,1.1-.47,12,12,0,0,1,1.31-.34l1.82-.41a2,2,0,0,0,.82-.35.69.69,0,0,0,.24-.55,1.17,1.17,0,0,0-.54-1.07,2.63,2.63,0,0,0-1.32-.32,1.91,1.91,0,0,0-2.15,1.6.28.28,0,0,1,0,.09l-2.74-.5a3.71,3.71,0,0,1,1.6-2.51,6.39,6.39,0,0,1,3.47-.82q4.65,0,4.65,4ZM257,358.07a2.51,2.51,0,0,0,1.91-.8,3.35,3.35,0,0,0,.74-2.37l-2.62.74a3.2,3.2,0,0,0-1.1.45.91.91,0,0,0-.38.79,1,1,0,0,0,.41.88,1.74,1.74,0,0,0,1,.31Zm12.34,2.09a6.24,6.24,0,0,1-3.22-.77,3.29,3.29,0,0,1-1.58-2.3l2.59-.73a2.08,2.08,0,0,0,2.21,1.64,2.23,2.23,0,0,0,1.13-.25,1,1,0,0,0,.26-1.42,1.46,1.46,0,0,0-.57-.41,6.13,6.13,0,0,0-.75-.29l-1-.29c-.41-.11-.75-.21-1-.31a7.41,7.41,0,0,1-1-.41,4.14,4.14,0,0,1-.8-.57,2.27,2.27,0,0,1-.6-.87,3,3,0,0,1-.21-1.18,2.81,2.81,0,0,1,1.2-2.47,5.32,5.32,0,0,1,3.13-.84,5.51,5.51,0,0,1,2.89.71,3.2,3.2,0,0,1,1.48,2.21l-2.4.54a1.89,1.89,0,0,0-2-1.4,2.15,2.15,0,0,0-1.08.25.79.79,0,0,0-.43.73,1,1,0,0,0,.06.33.67.67,0,0,0,.23.27,3.28,3.28,0,0,0,.31.2,3.38,3.38,0,0,0,.44.18l.48.14.57.14.57.15c.4.11.74.21,1,.32a6.36,6.36,0,0,1,.95.45,3.51,3.51,0,0,1,.83.65,3,3,0,0,1,.55.92,3.42,3.42,0,0,1,.21,1.23,3.33,3.33,0,0,1-.37,1.6,2.91,2.91,0,0,1-1,1.08,5.3,5.3,0,0,1-1.44.58,7.09,7.09,0,0,1-1.72.19Z"/><path id="Trazado_57630" data-name="Trazado 57630" class="cls-5" d="M17.51,214V198.43h3.23V214Zm13.34-11.26a4.32,4.32,0,0,1,3.06,1A3.66,3.66,0,0,1,35,206.52V214h-3.1v-6.77a1.91,1.91,0,0,0-.55-1.52,2.08,2.08,0,0,0-1.43-.49,3.21,3.21,0,0,0-.92.14,2.45,2.45,0,0,0-.77.44,1.89,1.89,0,0,0-.56.83,4,4,0,0,0-.21,1.28V214h-3.1v-11h3.1v1.22A4.25,4.25,0,0,1,30.85,202.69ZM42.08,214a3.32,3.32,0,0,1-2.49-.9,3.47,3.47,0,0,1-.88-2.55v-5.22H36.54v-2.37h.7a1.81,1.81,0,0,0,1.37-.46,2.31,2.31,0,0,0,.44-1.64v-1.47h2.8v3.57h2.27v2.37H41.84v4.89c0,1,.43,1.43,1.28,1.43h1V214Zm14.78-5.68,0,.74H48.64a2.91,2.91,0,0,0,.88,2,2.84,2.84,0,0,0,1.95.7,2.74,2.74,0,0,0,1.45-.38,2.37,2.37,0,0,0,.93-1.12l2.84.42a4.83,4.83,0,0,1-1.93,2.59,5.84,5.84,0,0,1-3.27.93,6,6,0,0,1-4.3-1.52,5.54,5.54,0,0,1-1.6-4.22,5.61,5.61,0,0,1,1.6-4.22,5.82,5.82,0,0,1,4.2-1.54,5.07,5.07,0,0,1,5.47,5.6Zm-5.45-3.41A2.44,2.44,0,0,0,48.73,207H53.8a2.33,2.33,0,0,0-.76-1.58A2.42,2.42,0,0,0,51.41,204.86Zm10.77-.2a3.58,3.58,0,0,1,1.45-1.33,4.5,4.5,0,0,1,2.16-.55v2.76a4.22,4.22,0,0,0-2.65.67,2.9,2.9,0,0,0-.81,2.36V214H59.21v-11h3Zm11.94-2a4.29,4.29,0,0,1,3,1,3.67,3.67,0,0,1,1.07,2.83V214h-3.1v-6.77a1.92,1.92,0,0,0-.56-1.52,2,2,0,0,0-1.42-.49,3.21,3.21,0,0,0-.92.14,2.5,2.5,0,0,0-.78.44,2,2,0,0,0-.55.83,4,4,0,0,0-.21,1.28V214H67.6v-11h3.1v1.22A4.25,4.25,0,0,1,74.12,202.69Zm17.5,5.58,0,.74H83.4a2.88,2.88,0,0,0,.89,2,2.81,2.81,0,0,0,1.94.7,2.77,2.77,0,0,0,1.46-.38,2.4,2.4,0,0,0,.92-1.12l2.84.42a4.79,4.79,0,0,1-1.94,2.59,5.7,5.7,0,0,1-3.26.92,5.91,5.91,0,0,1-4.3-1.52,5.5,5.5,0,0,1-1.6-4.21,5.58,5.58,0,0,1,1.6-4.22,5.82,5.82,0,0,1,4.2-1.54,5.07,5.07,0,0,1,5.47,5.6Zm-5.44-3.41A2.45,2.45,0,0,0,83.49,207h5.07a2.33,2.33,0,0,0-.76-1.58,2.4,2.4,0,0,0-1.62-.55ZM98.09,214a3.32,3.32,0,0,1-2.49-.9,3.47,3.47,0,0,1-.88-2.55v-5.22H92.55v-2.37h.7a1.86,1.86,0,0,0,1.37-.46,2.41,2.41,0,0,0,.44-1.64v-1.47h2.79v3.57h2.28v2.37H97.85v4.89c0,1,.43,1.43,1.28,1.43h1V214Z"/></g><g id="Grupo_29474" data-name="Grupo 29474" class="cls-7"><g id="Grupo_29466" data-name="Grupo 29466"><rect id="Rectángulo_6025" data-name="Rectángulo 6025" class="cls-8" x="462.78" y="22.94" width="254.74" height="219.9"/><g id="Grupo_29465" data-name="Grupo 29465"><rect id="Rectángulo_6026" data-name="Rectángulo 6026" class="cls-9" x="467.63" y="26.61" width="244.93" height="211.85"/><g id="Grupo_29446" data-name="Grupo 29446"><path id="Trazado_58425" data-name="Trazado 58425" class="cls-5" d="M553.24,118.78H499.57v-67l9.1-8.2h44.57Z"/><path id="Trazado_58426" data-name="Trazado 58426" class="cls-10" d="M499.57,51.76h8.81l.29-8.2Z"/><rect id="Rectángulo_6027" data-name="Rectángulo 6027" class="cls-10" x="517.81" y="50.08" width="17.18" height="0.82"/><rect id="Rectángulo_6028" data-name="Rectángulo 6028" class="cls-10" x="513.76" y="52.54" width="25.28" height="0.82"/><rect id="Rectángulo_6029" data-name="Rectángulo 6029" class="cls-10" x="505.92" y="68.3" width="41.97" height="1.05"/><rect id="Rectángulo_6030" data-name="Rectángulo 6030" class="cls-10" x="505.92" y="71.5" width="41.97" height="1.05"/><rect id="Rectángulo_6031" data-name="Rectángulo 6031" class="cls-10" x="505.92" y="74.69" width="41.97" height="1.05"/><rect id="Rectángulo_6032" data-name="Rectángulo 6032" class="cls-10" x="505.92" y="77.89" width="41.97" height="1.05"/><rect id="Rectángulo_6033" data-name="Rectángulo 6033" class="cls-10" x="505.92" y="112.08" width="41.97" height="1.05"/></g><g id="Grupo_29447" data-name="Grupo 29447"><path id="Trazado_58427" data-name="Trazado 58427" class="cls-5" d="M615.21,211.77H561.54v-67l9.1-8.2h44.57Z"/><path id="Trazado_58428" data-name="Trazado 58428" class="cls-10" d="M561.54,144.74h8.81l.29-8.2Z"/><rect id="Rectángulo_6034" data-name="Rectángulo 6034" class="cls-10" x="579.78" y="143.06" width="17.18" height="0.82"/><rect id="Rectángulo_6035" data-name="Rectángulo 6035" class="cls-10" x="575.74" y="145.52" width="25.28" height="0.82"/><rect id="Rectángulo_6036" data-name="Rectángulo 6036" class="cls-10" x="567.89" y="161.29" width="41.97" height="1.05"/><rect id="Rectángulo_6037" data-name="Rectángulo 6037" class="cls-10" x="567.89" y="164.48" width="41.97" height="1.05"/><rect id="Rectángulo_6038" data-name="Rectángulo 6038" class="cls-10" x="567.89" y="167.68" width="41.97" height="1.05"/><rect id="Rectángulo_6039" data-name="Rectángulo 6039" class="cls-10" x="567.89" y="170.87" width="41.97" height="1.05"/><rect id="Rectángulo_6040" data-name="Rectángulo 6040" class="cls-10" x="567.89" y="180.7" width="41.97" height="1.05"/><rect id="Rectángulo_6041" data-name="Rectángulo 6041" class="cls-10" x="567.89" y="183.9" width="41.97" height="1.05"/><rect id="Rectángulo_6042" data-name="Rectángulo 6042" class="cls-10" x="567.89" y="187.61" width="41.97" height="1.05"/></g><g id="Grupo_29448" data-name="Grupo 29448"><rect id="Rectángulo_6043" data-name="Rectángulo 6043" class="cls-10" x="615.86" y="43.56" width="29.64" height="26.13"/><path id="Trazado_58429" data-name="Trazado 58429" class="cls-11" d="M629.38,46.67a1.3,1.3,0,1,1,1.3,1.3,1.3,1.3,0,0,1-1.3-1.3Z"/></g><g id="Grupo_29449" data-name="Grupo 29449"><rect id="Rectángulo_6044" data-name="Rectángulo 6044" class="cls-5" x="615.86" y="78.89" width="29.64" height="26.13" transform="translate(-4.87 44.15) rotate(-3.99)"/><path id="Trazado_58430" data-name="Trazado 58430" class="cls-10" d="M628.8,83.74a1.3,1.3,0,1,1,1.4,1.2h0A1.31,1.31,0,0,1,628.8,83.74Z"/></g><g id="Grupo_29450" data-name="Grupo 29450"><rect id="Rectángulo_6045" data-name="Rectángulo 6045" class="cls-5" x="517.38" y="175.15" width="29.64" height="26.13" transform="translate(-11.82 37.53) rotate(-3.99)"/><path id="Trazado_58431" data-name="Trazado 58431" class="cls-10" d="M530.32,180a1.3,1.3,0,1,1,1.39,1.2h0A1.29,1.29,0,0,1,530.32,180Z"/></g><g id="Grupo_29451" data-name="Grupo 29451"><rect id="Rectángulo_6046" data-name="Rectángulo 6046" class="cls-5" x="479.36" y="193.06" width="29.64" height="26.13" transform="translate(-2.04 4.95) rotate(-0.57)"/><path id="Trazado_58432" data-name="Trazado 58432" class="cls-10" d="M492.8,197.8a1.3,1.3,0,1,1,2.6,0,1.28,1.28,0,0,1-1.28,1.31h0A1.3,1.3,0,0,1,492.8,197.8Z"/></g><g id="Grupo_29452" data-name="Grupo 29452"><rect id="Rectángulo_6047" data-name="Rectángulo 6047" class="cls-5" x="659.47" y="94.32" width="26.13" height="29.64" transform="translate(446.78 751.99) rotate(-79.87)"/><path id="Trazado_58433" data-name="Trazado 58433" class="cls-10" d="M673.1,99.57a1.13,1.13,0,1,1,.91,1.31A1.13,1.13,0,0,1,673.1,99.57Z"/></g><g id="Grupo_29453" data-name="Grupo 29453"><rect id="Rectángulo_6048" data-name="Rectángulo 6048" class="cls-5" x="570.24" y="78.89" width="29.63" height="26.12" transform="translate(-6.51 63.73) rotate(-6.2)"/><path id="Trazado_58434" data-name="Trazado 58434" class="cls-10" d="M582.91,82.61a1.13,1.13,0,1,1,1.24,1h0A1.12,1.12,0,0,1,582.91,82.61Z"/></g><g id="Grupo_29454" data-name="Grupo 29454"><rect id="Rectángulo_6049" data-name="Rectángulo 6049" class="cls-12" x="494.87" y="141.93" width="29.64" height="26.13" transform="translate(-21.14 109.94) rotate(-12.06)"/><path id="Trazado_58435" data-name="Trazado 58435" class="cls-13" d="M507.08,146.63a1.13,1.13,0,1,1,1.56-.33,1.13,1.13,0,0,1-1.56.33Z"/></g><g id="Grupo_29456" data-name="Grupo 29456"><g id="Grupo_29455" data-name="Grupo 29455"><path id="Trazado_58436" data-name="Trazado 58436" class="cls-5" d="M599.16,69.69H571v-19l7.81-7.17h20.4Z"/><path id="Trazado_58437" data-name="Trazado 58437" class="cls-10" d="M570.8,50.73h7.7l.26-7.17Z"/></g><path id="Trazado_58438" data-name="Trazado 58438" class="cls-10" d="M585.16,46a.93.93,0,1,1,.92.93A.92.92,0,0,1,585.16,46Z"/></g><g id="Grupo_29458" data-name="Grupo 29458"><g id="Grupo_29457" data-name="Grupo 29457"><path id="Trazado_58439" data-name="Trazado 58439" class="cls-5" d="M681.58,224.83H653.37v-19l7.81-7.18h20.4Z"/><path id="Trazado_58440" data-name="Trazado 58440" class="cls-10" d="M653.22,205.88h7.7l.25-7.18Z"/></g><path id="Trazado_58441" data-name="Trazado 58441" class="cls-10" d="M667.58,201.12a.93.93,0,1,1,.92.93A.93.93,0,0,1,667.58,201.12Z"/></g><g id="Grupo_29460" data-name="Grupo 29460"><g id="Grupo_29459" data-name="Grupo 29459"><path id="Trazado_58442" data-name="Trazado 58442" class="cls-5" d="M694.44,187.22H666.23v-19l7.81-7.17h20.4Z"/><path id="Trazado_58443" data-name="Trazado 58443" class="cls-10" d="M666.08,168.26h7.7l.26-7.17Z"/></g><circle id="Elipse_1399" data-name="Elipse 1399" class="cls-10" cx="681.37" cy="163.51" r="0.93"/></g><g id="Grupo_29462" data-name="Grupo 29462"><g id="Grupo_29461" data-name="Grupo 29461"><path id="Trazado_58444" data-name="Trazado 58444" class="cls-12" d="M657.22,187.22H629v-19l7.81-7.17h20.4Z"/><path id="Trazado_58445" data-name="Trazado 58445" class="cls-14" d="M628.86,168.26h7.7l.26-7.17Z"/></g><path id="Trazado_58446" data-name="Trazado 58446" class="cls-13" d="M643.22,163.51a.93.93,0,1,1,.92.92.92.92,0,0,1-.92-.92Z"/></g><g id="Grupo_29464" data-name="Grupo 29464"><g id="Grupo_29463" data-name="Grupo 29463"><path id="Trazado_58447" data-name="Trazado 58447" class="cls-12" d="M702.4,63.14H674.2v-19L682,37h20.4Z"/><path id="Trazado_58448" data-name="Trazado 58448" class="cls-14" d="M674.05,44.19h7.7L682,37Z"/></g><path id="Trazado_58449" data-name="Trazado 58449" class="cls-13" d="M688.4,39.43a.93.93,0,1,1,.93.93h0a.93.93,0,0,1-.93-.93Z"/></g></g></g><g id="Grupo_29473" data-name="Grupo 29473"><path id="Rectángulo_6050" data-name="Rectángulo 6050" class="cls-8" d="M809.1,22.88h38.75a11.93,11.93,0,0,1,11.93,11.93h0V71.7a11.93,11.93,0,0,1-11.93,11.93H809.1A11.93,11.93,0,0,1,797.17,71.7h0V34.81A11.93,11.93,0,0,1,809.1,22.88Z"/><rect id="Rectángulo_6051" data-name="Rectángulo 6051" class="cls-9" x="799.88" y="25.51" width="57.19" height="55.48" rx="10.9"/><g id="Grupo_29469" data-name="Grupo 29469"><g id="Grupo_29467" data-name="Grupo 29467"><path id="Trazado_58450" data-name="Trazado 58450" class="cls-8" d="M827.18,31.06a1.3,1.3,0,1,1,1.3,1.3,1.3,1.3,0,0,1-1.3-1.3Z"/><path id="Trazado_58451" data-name="Trazado 58451" class="cls-8" d="M837.64,32.89a1.3,1.3,0,1,1,.51,1.77h0A1.3,1.3,0,0,1,837.64,32.89Z"/><path id="Trazado_58452" data-name="Trazado 58452" class="cls-8" d="M846.61,40a1.3,1.3,0,1,1-.39,1.8h0A1.31,1.31,0,0,1,846.61,40Z"/><path id="Trazado_58453" data-name="Trazado 58453" class="cls-8" d="M851.05,51a1.3,1.3,0,1,1-1.3,1.3,1.3,1.3,0,0,1,1.3-1.3Z"/><path id="Trazado_58454" data-name="Trazado 58454" class="cls-8" d="M848.78,63.83a1.3,1.3,0,1,1-1.84,0h0A1.3,1.3,0,0,1,848.78,63.83Z"/><path id="Trazado_58455" data-name="Trazado 58455" class="cls-8" d="M840.64,72a1.3,1.3,0,1,1-1.84,0h0A1.3,1.3,0,0,1,840.64,72Z"/><path id="Trazado_58456" data-name="Trazado 58456" class="cls-8" d="M827.18,76.21a1.3,1.3,0,1,1,1.3,1.3,1.3,1.3,0,0,1-1.3-1.3Z"/></g><g id="Grupo_29468" data-name="Grupo 29468"><path id="Trazado_58457" data-name="Trazado 58457" class="cls-8" d="M819.26,32.89a1.3,1.3,0,1,0-.5,1.77h0A1.29,1.29,0,0,0,819.26,32.89Z"/><path id="Trazado_58458" data-name="Trazado 58458" class="cls-8" d="M810.3,40a1.3,1.3,0,1,0,.38,1.8h0A1.3,1.3,0,0,0,810.3,40Z"/><path id="Trazado_58459" data-name="Trazado 58459" class="cls-8" d="M805.85,51a1.3,1.3,0,1,0,1.3,1.3,1.3,1.3,0,0,0-1.3-1.3Z"/><path id="Trazado_58460" data-name="Trazado 58460" class="cls-8" d="M808.12,63.83a1.3,1.3,0,1,0,1.84,0h0A1.32,1.32,0,0,0,808.12,63.83Z"/><path id="Trazado_58461" data-name="Trazado 58461" class="cls-8" d="M816.27,72a1.3,1.3,0,1,0,1.84,0h0A1.29,1.29,0,0,0,816.27,72Z"/></g></g><g id="Grupo_29472" data-name="Grupo 29472"><path id="Trazado_58462" data-name="Trazado 58462" class="cls-8" d="M828.12,52.34a1.3,1.3,0,1,1,1.3,1.3,1.3,1.3,0,0,1-1.3-1.3Z"/><g id="Grupo_29470" data-name="Grupo 29470"><rect id="Rectángulo_6052" data-name="Rectángulo 6052" class="cls-8" x="829.24" y="36.13" width="0.35" height="16.2"/></g><g id="Grupo_29471" data-name="Grupo 29471"><rect id="Rectángulo_6053" data-name="Rectángulo 6053" class="cls-8" x="828.09" y="48.41" width="10.92" height="1.06" transform="translate(147.86 525.42) rotate(-38.15)"/></g></g></g></g><g id="Grupo_29445" data-name="Grupo 29445"><g id="Grupo_29443" data-name="Grupo 29443"><g id="Grupo_29440" data-name="Grupo 29440"><path id="Trazado_58378" data-name="Trazado 58378" class="cls-13" d="M537.25,469.12c-.31,4.31-6.39,4.36-13.28,3.56s-5.06.94-14.72,1.08-13-3.06-13.44-4.44c-.42-1.22,4.23-2.25,9.2-3.47l1.88-.46c5.61-1.43,9.33-5.63,14.13-9.29,4.54-3.47,10.4-16,10.4-16l13.19-.6s-5.55,11.27-7.64,16.12c-1.23,2.86-.7,6.37-.17,9.06A16.93,16.93,0,0,1,537.25,469.12Z"/><path id="Trazado_58379" data-name="Trazado 58379" class="cls-15" d="M524,472.68c-6.9-.8-5.06.94-14.72,1.08s-13-3.06-13.44-4.44c-.42-1.22,4.23-2.25,9.2-3.47l.06.1a27,27,0,0,0,14.17,2.53c6.48-.65,13.09-3.35,17.56-3.83a17.24,17.24,0,0,1,.46,4.47C536.94,473.43,530.86,473.48,524,472.68Z"/></g><g id="Grupo_29441" data-name="Grupo 29441"><path id="Trazado_58380" data-name="Trazado 58380" class="cls-13" d="M628.33,470c-.31,4.3-6.39,4.36-13.28,3.56s-5.06.95-14.72,1.1-13-3.05-13.45-4.43c-.42-1.22,4.23-2.25,9.2-3.47l1.88-.47c5.61-1.43,9.32-5.63,14.11-9.3,4.55-3.48,0-24.06,0-24.06l14.5-1.41s-.7,17.33-.68,25.21c0,3.11,1.43,6.1,2,8.79A17.28,17.28,0,0,1,628.33,470Z"/><path id="Trazado_58381" data-name="Trazado 58381" class="cls-15" d="M615.05,473.58c-6.9-.79-5.06.95-14.72,1.1s-13-3.05-13.45-4.43c-.42-1.22,4.23-2.25,9.2-3.47l.06.09a26.94,26.94,0,0,0,14.17,2.52c6.48-.65,13.08-3.36,17.55-3.85a16.86,16.86,0,0,1,.47,4.48C628,474.32,621.94,474.38,615.05,473.58Z"/></g><path id="Trazado_58382" data-name="Trazado 58382" class="cls-16" d="M586,114.3c-2.5-10.27,1.12-15,4.39-17.6,1.55-3.78,3.32-6.5,5.12-7.53a18.44,18.44,0,0,1,10-1.91,4.59,4.59,0,0,0-2.11-1C605.13,86,609,87.7,609,87.7c23.83-9.18,27.58,25.91,27.08,34.06s-.43,17.76,12,24.18c23.66,12.26-7.87,58.44-7.87,58.44.6-6.58-29.8-41.35-45.65-51.76-3.86-5.69-5.24-15.73-5.34-16.52.67,8,2,12.43,3.25,14.94C585.16,144.39,584.09,128.41,586,114.3Z"/><path id="Trazado_58383" data-name="Trazado 58383" class="cls-13" d="M595.42,153.13c-.08,0,7.65,4.05,13.47,2.46,5.48-1.49,9.05-8.59,9-8.61-2.32-.46-3-3.64-2.94-17.33l-1,.2-17.62,3.49s.4,5.55.41,10.77C596.69,148.5,596.42,152.66,595.42,153.13Z"/><path id="Trazado_58384" data-name="Trazado 58384" class="cls-17" d="M596.26,133.35s.4,5.54.42,10.77c9.86-.28,15.07-9.28,17.21-14.26Z"/><path id="Trazado_58385" data-name="Trazado 58385" class="cls-8" d="M524.57,447.05a4.32,4.32,0,0,0,2.8,5.43,4.71,4.71,0,0,0,1.11.2l6.89.32,7.28.22a5.85,5.85,0,0,0,4.72-2.15c5.81-7.13,23.71-30.9,34.56-65.44.31-1,.63-1.95,1-2.95,7.17-20.9,22-47.14,29.86-70.9,1.25-3.78,2.37-7.34,3.37-10.71.33-1.08.64-2.14.94-3.18,5.77-20.06,7.44-33.23,9-47.3l-56.55.46S557.59,343.59,524.57,447.05Z"/><path id="Trazado_58386" data-name="Trazado 58386" class="cls-5" d="M577.41,218.55c.15,26.92-3.95,38.46-3.95,38.46s24.22,12.3,53,3.25c.34-.11,23.83-5.47,23.83-5.47-.48-1.09-4.76-19.23-5.23-20.22-6.08-13-10.69-18.77-11.41-22.79a85.09,85.09,0,0,1-.7-22.54,180.89,180.89,0,0,1,7-35.41c-7.84-1.79-15.19-4.92-23.35-8-1.88,2.34-7.62,4.78-12.59,4.67-5.74-.13-7.6-2.58-7.3-5.26-6.11,3.4-11,6.61-11,6.61-5.2,9-15.73,17.78-16.49,31.61C569,186.88,577.41,217.8,577.41,218.55Z"/><path id="Trazado_58387" data-name="Trazado 58387" class="cls-18" d="M626.05,221.55c2.47,3.5,7.21,24.77,19,27.44-6.08-15.15-10.69-21.8-11.41-26.46a114.73,114.73,0,0,1-.7-26.19c-4-6.92-6.9-11.66-6.9-11.66-.31-1.12-6.27-19.56-8.18-3.08S623.29,217.64,626.05,221.55Z"/><path id="Trazado_58388" data-name="Trazado 58388" class="cls-13" d="M593,138.29s23.33.39,23.34-14.14,3-24.27-11.85-25.13-17.8,4.68-19,9.53S586.9,137.82,593,138.29Z"/><path id="Trazado_58389" data-name="Trazado 58389" class="cls-16" d="M593.83,98.66s6.39,17,16.19,19.57,14.06-.11,14.06-.11a27.71,27.71,0,0,1-9.08-16.4S598.65,90.54,593.83,98.66Z"/><path id="Trazado_58390" data-name="Trazado 58390" class="cls-16" d="M595.41,100s-4.77,3.81-5.93,7.51-1.69,11.32-3.91,11.06c0,0-4.81-11.59.6-18.14C591.91,93.51,595.41,100,595.41,100Z"/><path id="Trazado_58391" data-name="Trazado 58391" class="cls-13" d="M556.26,237.23l-11,33.6,6.28,2.53,18.22-29.69Z"/><path id="Trazado_58392" data-name="Trazado 58392" class="cls-12" d="M586,149.89s-13,5.16-16.76,13.2-9.45,61.95-11.72,67.49-4,9.92-4,9.92,6.55,5.52,13.14,5.93S586,149.89,586,149.89Z"/><path id="Trazado_58393" data-name="Trazado 58393" class="cls-12" d="M596.69,145.26s-13.5,33.34-13.9,40.1-1.59,110.36-1.59,110.36.79,4.76-8.34,2.77-11.51-4-11.51-4,8.73-63.92,6.35-86.15S586,149.9,586,149.9Z"/><path id="Trazado_58394" data-name="Trazado 58394" class="cls-18" d="M535.37,453l7.9.24a4.57,4.57,0,0,0,3.67-1.65c5.32-6.44,23.86-30.54,35-66,.31-1,.63-1.95,1-2.95,7.17-20.9,22-47.14,29.86-70.9,1.25-3.78,2.37-7.34,3.37-10.71.33-1.08.64-2.14.94-3.18l-8.33-6.32s-25,40.49-32.75,78.6C569.27,403.27,542.34,443.1,535.37,453Z"/><path id="Trazado_58395" data-name="Trazado 58395" class="cls-8" d="M607.87,373.72c-.14,17.53.7,56.6,2.83,75.7a3.44,3.44,0,0,0,3.43,3.06H620c2.49,0,4.35,0,5.59,0a2.27,2.27,0,0,0,2.19-1.84c5.86-29.86,10.06-54.67,13.14-76.1,2.57-17.95,4.86-33.33,6.62-46.57s3-24.49,3.44-33.91c.06-1.49.11-2.93.14-4.34s0-2.77,0-4.1l-48.87-4.77C602.93,313.29,608,363,607.87,373.72Z"/><path id="Trazado_58396" data-name="Trazado 58396" class="cls-18" d="M620,452.49c2.23,0,4,0,5.18,0a2.77,2.77,0,0,0,2.67-2.23c5.82-29.69,10-54.38,13.06-75.72,2.58-17.94,4.86-33.33,6.62-46.57s3-24.48,3.44-33.91l-17.93,10.55s11.44,4,7.08,34.6S626.11,448.16,620,452.49Z"/><path id="Trazado_58397" data-name="Trazado 58397" class="cls-12" d="M617.73,293.73s3.44,12.44,15.35,10.85,28.84-8.74,28.84-8.74-5.09-16.08-11.42-37.2c-7.66-25.58-17.14-58.55-21.61-79.35a126.13,126.13,0,0,1-2.43-14.18l-9.88-19.17s-14.73,33.06-15.53,41.4S617.73,293.73,617.73,293.73Z"/><path id="Trazado_58398" data-name="Trazado 58398" class="cls-13" d="M629.62,186.1l-13-40.16s16.47,4.89,24.73,9.07c0,0,5.17,6.66,8.37,22,0,0,3.37,36.9-4.17,50.4,0,0-23.82,4.76-61.93-8.34v-8.73s41.69,2.18,50.22,3.17Z"/><path id="Trazado_58399" data-name="Trazado 58399" class="cls-14" d="M618.25,204.81c.54,13.5,3.71,39.7,32,53.72l.22.11c-7.66-25.58-17.14-58.55-21.61-79.35C623.69,187.06,618,197.38,618.25,204.81Z"/><path id="Trazado_58400" data-name="Trazado 58400" class="cls-12" d="M616.58,145.94s24.17,1.7,30,14.67,7.67,56.1.26,68.81c0,0-10.2,2.9-28.25-.47l-.66-.13c-.34-.06-5.76-14.09-.6-16.87,0,0,15.21.8,13.63-4.23S616.58,145.94,616.58,145.94Z"/><g id="Grupo_29442" data-name="Grupo 29442"><path id="Trazado_58401" data-name="Trazado 58401" class="cls-16" d="M556,215.76l.71,2.29,39.67-12.34a1.54,1.54,0,0,0,.26-1.4,1.12,1.12,0,0,0-1-.89Z"/><path id="Trazado_58402" data-name="Trazado 58402" class="cls-16" d="M553.1,217.92l2.87-2.16.71,2.29Z"/></g><path id="Trazado_58403" data-name="Trazado 58403" class="cls-13" d="M546.8,269.91s-10.06,5.56-11.38,9.8-.42,13.11,1.18,13,4-9.54,5.3-10.2,3.18-2.64,3.18-1.19-1.32,4.1-.66,4.5,2.78-3.7,4.23-4.5,2.07-7.34,3.49-9.1S546.8,269.91,546.8,269.91Z"/><path id="Trazado_58404" data-name="Trazado 58404" class="cls-13" d="M583.59,210.36s-9-5.54-12.78-4.69-13.4,7.82-8.77,9.33,8.38-.07,10.16,1,3.09,3.09,11.39,3.07S583.59,210.36,583.59,210.36Z"/></g><g id="Grupo_29444" data-name="Grupo 29444"><path id="Trazado_58405" data-name="Trazado 58405" class="cls-15" d="M741.09,474.23s1-7.47,3.18-11.92,16.35-1.61,16.35-1.61,2.83,2.42,3.43,13.73Z"/><path id="Trazado_58406" data-name="Trazado 58406" class="cls-15" d="M692.94,474.12c3.32-2,1.43-17.14,1.43-17.14s-15.47-12.38-17.6-2.9-14.7,13.73-21.86,14.89c-4.94.8-6.47,3.54-6.94,5.15Z"/><path id="Trazado_58407" data-name="Trazado 58407" class="cls-19" d="M725,364.15a73.34,73.34,0,0,0-1.14,8.36c-1.43,28.06-23.61,92.21-27.58,93.7-6.14,2.32-15.8-2.61-20.86-4.22a4.32,4.32,0,0,1-3-4.92c11-50.5,15-123.2,16.48-166.25a195.72,195.72,0,0,1,4.47-36.66s54.09-14.44,54.41,3.82C748,274.14,729.81,337.5,725,364.15Z"/><path id="Trazado_58408" data-name="Trazado 58408" class="cls-20" d="M725,364.15l-36.14-73.33a195.82,195.82,0,0,1,4.47-36.66s54.09-14.43,54.41,3.82C748,274.14,729.81,337.5,725,364.15Z"/><path id="Trazado_58409" data-name="Trazado 58409" class="cls-19" d="M713,258.05l28.6,207.25s12.56,3,22.32.61c0,0,8.38-110.23,7.68-136.88s6-71.31-1.53-76.23S713,258.05,713,258.05Z"/><path id="Trazado_58410" data-name="Trazado 58410" class="cls-21" d="M775.59,254.59a4,4,0,0,1-2.86,4.1c-4,1.16-8.59,2-17.46,3.8A168.63,168.63,0,0,1,722,265.84c-21.9.14-30.2-7.41-30.2-7.41-.94,0,.5-4.57,1.8-26.36.44-7.39.86-16.75,1.17-28.57.28-10.65.46-23.29.48-38.29,0-18.05,28-37.46,28.47-37.46h0c0,2.6,4.1,7.4,10.4,7.81,7.48.49,16.67-3.23,16.67-7.55,0,0,13.53,21.65,18.34,44.77C771.53,184.41,770.54,184.1,775.59,254.59Z"/><path id="Trazado_58411" data-name="Trazado 58411" class="cls-21" d="M723.68,127.75s-26-.22-32.22,8.54-20,55.93-12.8,71.62,20.53-6.49,28-16.1S723.68,127.75,723.68,127.75Z"/><path id="Trazado_58412" data-name="Trazado 58412" class="cls-13" d="M723.42,123.78v2.69s-.73,8.4,9.61,9.62,18-1.57,17.73-8.05a93.22,93.22,0,0,1-1.86-14.32,29.29,29.29,0,0,1,.36-5l-20-.4-5.9,1Z"/><path id="Trazado_58413" data-name="Trazado 58413" class="cls-22" d="M723.34,109.26l.08,14.52a17,17,0,0,0,7.22,1.6c9.21,0,15.16-6.76,18.27-11.66a29.3,29.3,0,0,1,.37-5l-20-.4Z"/><path id="Trazado_58414" data-name="Trazado 58414" class="cls-13" d="M750.81,105.47c-2.32,12.51-18.47,12.1-25.44,11.31-2-.21-3.2-.46-3.2-.46-2.22-.6-3.45-4.08-4-8.65-1.14-9,.3-22.31,1.82-25.7,2.3-5.11,6.63-10.63,22.88-6.64S753.79,89.44,750.81,105.47Z"/><path id="Trazado_58415" data-name="Trazado 58415" class="cls-5" d="M697.12,162.89s-10,22.19-9.75,28.84a34.52,34.52,0,0,1,9.75,1.25C705,195.32,697.12,162.89,697.12,162.89Z"/><path id="Trazado_58416" data-name="Trazado 58416" class="cls-15" d="M715,70.06a53.39,53.39,0,0,0,15.6-4.22c6.85-3,15.5.3,18.3,1.78a4.12,4.12,0,0,0-.68-1.68,3.73,3.73,0,0,1,1.44,2.14c.13.1.19.16.16.18a4.88,4.88,0,0,1,2.34.15s-.64-.09-.87.32a.29.29,0,0,1-.1.12c10.69,5.16,11.68,22.05,8.24,26C755.27,99.5,749,110.14,749,110.14a19.47,19.47,0,0,1,.23-6.68c.75-4.14-2.82-4.14-7.33-6s-.75-7.15-4.7-10.35S718.79,85.78,719,83.33C713.59,81.37,715,70.61,715,70.06Z"/><path id="Trazado_58417" data-name="Trazado 58417" class="cls-5" d="M754.09,204.45c-4.25,17-50.1,25.83-60.53,27.62.44-7.39.86-16.75,1.17-28.58Z"/><path id="Trazado_58418" data-name="Trazado 58418" class="cls-13" d="M744,210c.44,0,10.2-1.45,11.94-2.33s9.74-12.23,4.51-15.14-19.29,8.74-19.29,8.74Z"/><path id="Trazado_58419" data-name="Trazado 58419" class="cls-21" d="M684.67,213.36s37.74,2,63.06-3.38c0,0,.64-7.31-7.32-10.56,0,0-39.47-8.37-48.95-6S684.67,213.36,684.67,213.36Z"/><path id="Trazado_58420" data-name="Trazado 58420" class="cls-21" d="M771.34,183.74c-7.83,9.45-18.07,17.16-29.36,19h0a21,21,0,0,1-2.79-12.6,25.09,25.09,0,0,1,4.11-11.57,26.21,26.21,0,0,0,2.22-4.47c6.16-15.73,5.24-46,5.24-46s26.18,2.74,34.33,14.39C790.09,149.54,783.72,168.81,771.34,183.74Z"/><path id="Trazado_58421" data-name="Trazado 58421" class="cls-22" d="M725.37,116.78c-2-.21-3.2-.46-3.2-.46-2.22-.6-3.45-4.08-4-8.65a10.94,10.94,0,0,1,6.84,5.6A8.05,8.05,0,0,1,725.37,116.78Z"/><path id="Trazado_58422" data-name="Trazado 58422" class="cls-13" d="M714.82,123.86s-9-14.92-2-15.56a10.63,10.63,0,0,1,10.87,5.85c1,1.75-.26,9.63-.26,9.63Z"/><path id="Trazado_58423" data-name="Trazado 58423" class="cls-21" d="M749.28,189.59a19.45,19.45,0,0,1-1.54,5.18A24.84,24.84,0,0,1,742,202.7h0c-23.48-10.6-28.23-47-29-67-.32-8,0-13.43,0-13.43,10.59-3.5,13.56,2.59,13.56,2.59s12.51,29.74,19,49.17C748,181.49,749.59,187.42,749.28,189.59Z"/><path id="Trazado_58424" data-name="Trazado 58424" class="cls-5" d="M771.34,183.74c-7.83,9.45-18.07,17.16-29.36,19h0c-23.48-10.6-28.23-47-29-67,0,0,11.11,40.29,26.23,54.38,2.73,2.55,5.6,4.24,8.55,4.68,0,0,19.07-5.39,23.07-10.47A2.21,2.21,0,0,1,771.34,183.74Z"/></g></g></g></g></g></svg>