<svg xmlns="http://www.w3.org/2000/svg" xmlns:xlink="http://www.w3.org/1999/xlink" width="948" height="537" viewBox="0 0 948 537">
  <defs>
    <filter id="Rect치ngulo_3709" x="0" y="7" width="948" height="530" filterUnits="userSpaceOnUse">
      <feOffset dy="3" input="SourceAlpha"/>
      <feGaussianBlur stdDeviation="3" result="blur"/>
      <feFlood flood-opacity="0.161"/>
      <feComposite operator="in" in2="blur"/>
      <feComposite in="SourceGraphic"/>
    </filter>
  </defs>
  <g id="Grupo_29377" data-name="Grupo 29377" transform="translate(-483.5 -2183)">
    <g id="Grupo_29186" data-name="Grupo 29186" transform="translate(277.5 1136)">
      <g transform="matrix(1, 0, 0, 1, 206, 1047)" filter="url(#Rect치ngulo_3709)">
        <rect id="Rect치ngulo_3709-2" data-name="Rect치ngulo 3709" width="930" height="512" rx="22" transform="translate(9 13)" fill="#f2f2f0"/>
      </g>
    </g>
    <g id="Grupo_28176" data-name="Grupo 28176" transform="translate(-2.5 958)">
      <g id="Grupo_12457" data-name="Grupo 12457" transform="translate(153 -34)">
        <path id="Trazado_49549" data-name="Trazado 49549" d="M0,0H930V52H0Z" transform="translate(342 1259)" fill="#283593"/>
        <path id="Trazado_56404" data-name="Trazado 56404" d="M0,0H930V52H0Z" transform="translate(342 1363)" fill="#7cb342"/>
        <path id="Trazado_56410" data-name="Trazado 56410" d="M0,0H930V52H0Z" transform="translate(342 1570)" fill="#4db6ac"/>
      </g>
      <path id="Trazado_57640" data-name="Trazado 57640" d="M9.009,4.3V6.62H5.994V17H3.384V6.62H.352V4.3Zm2.953,2.312a1.421,1.421,0,0,1-1.037-.426,1.4,1.4,0,0,1-.431-1.033,1.382,1.382,0,0,1,.435-1.024A1.425,1.425,0,0,1,11.962,3.7a1.463,1.463,0,0,1,1.45,1.45,1.463,1.463,0,0,1-1.45,1.459ZM10.67,17V7.965h2.549V17ZM21.138,7.789a4.394,4.394,0,0,1,1.688.325,4.223,4.223,0,0,1,1.384.914,4.135,4.135,0,0,1,.936,1.49,5.531,5.531,0,0,1,.343,1.982,5.531,5.531,0,0,1-.343,1.982,4.135,4.135,0,0,1-.936,1.49,4.223,4.223,0,0,1-1.384.914,4.394,4.394,0,0,1-1.687.325,3.921,3.921,0,0,1-1.635-.334,2.562,2.562,0,0,1-1.134-.949v5.467H15.838V7.965h2.4l.07,1.213a2.475,2.475,0,0,1,1.129-1.024A3.881,3.881,0,0,1,21.138,7.789Zm-.571,7.321a2.274,2.274,0,0,0,1.709-.708,2.628,2.628,0,0,0,.681-1.9,2.628,2.628,0,0,0-.681-1.9,2.419,2.419,0,0,0-3.432.013,2.629,2.629,0,0,0-.686,1.89,2.629,2.629,0,0,0,.686,1.89A2.278,2.278,0,0,0,20.566,15.11Zm11.039,2.065a5.681,5.681,0,0,1-2.558-.554A4.138,4.138,0,0,1,27.294,15a4.846,4.846,0,0,1-.637-2.522,4.42,4.42,0,0,1,1.371-3.428,5.086,5.086,0,0,1,3.577-1.257,5.1,5.1,0,0,1,3.586,1.257,4.42,4.42,0,0,1,1.371,3.428,4.444,4.444,0,0,1-1.371,3.441A5.088,5.088,0,0,1,31.605,17.176Zm-.026-2.013a2.319,2.319,0,0,0,1.789-.738,2.764,2.764,0,0,0,.681-1.951,2.764,2.764,0,0,0-.681-1.951,2.319,2.319,0,0,0-1.789-.738,2.234,2.234,0,0,0-1.736.743,2.789,2.789,0,0,0-.672,1.947,2.789,2.789,0,0,0,.672,1.947A2.234,2.234,0,0,0,31.579,15.163Zm10.046,2.013a5.049,5.049,0,0,1-2.637-.633A2.675,2.675,0,0,1,37.7,14.662l2.118-.6a1.7,1.7,0,0,0,1.811,1.345,1.87,1.87,0,0,0,.923-.207.719.719,0,0,0,.36-.7.739.739,0,0,0-.149-.466A1.183,1.183,0,0,0,42.3,13.7a5.749,5.749,0,0,0-.615-.237q-.3-.1-.8-.233t-.835-.259a5.593,5.593,0,0,1-.8-.338,3.393,3.393,0,0,1-.659-.466,1.878,1.878,0,0,1-.492-.708,2.552,2.552,0,0,1-.171-.967,2.308,2.308,0,0,1,.98-2.021,4.379,4.379,0,0,1,2.562-.686,4.489,4.489,0,0,1,2.364.58,2.625,2.625,0,0,1,1.213,1.811l-1.96.439a1.535,1.535,0,0,0-1.608-1.143,1.761,1.761,0,0,0-.888.2.649.649,0,0,0-.352.6.685.685,0,0,0,.053.272.539.539,0,0,0,.185.22,2.692,2.692,0,0,0,.255.167,1.923,1.923,0,0,0,.36.145q.237.075.4.114l.461.119.47.123q.483.132.848.264a4.967,4.967,0,0,1,.778.369,2.792,2.792,0,0,1,.681.532,2.372,2.372,0,0,1,.444.747,2.759,2.759,0,0,1,.176,1.006,2.718,2.718,0,0,1-.3,1.31,2.276,2.276,0,0,1-.831.883,4.043,4.043,0,0,1-1.173.475A6.087,6.087,0,0,1,41.625,17.176ZM58.245,3.5h2.531V17h-2.4l-.062-1.178a2.58,2.58,0,0,1-1.147,1.024,3.861,3.861,0,0,1-1.692.365,4.394,4.394,0,0,1-1.687-.325,4.064,4.064,0,0,1-2.32-2.408,5.5,5.5,0,0,1-.343-1.978,5.137,5.137,0,0,1,.6-2.518A4.1,4.1,0,0,1,53.3,8.343a4.345,4.345,0,0,1,2.175-.554,3.957,3.957,0,0,1,1.639.33,2.559,2.559,0,0,1,1.129.936ZM56.057,15.11a2.253,2.253,0,0,0,1.709-.721,2.638,2.638,0,0,0,.681-1.89,2.644,2.644,0,0,0-.686-1.894,2.251,2.251,0,0,0-1.705-.725,2.277,2.277,0,0,0-1.718.712,2.644,2.644,0,0,0-.681,1.907,2.631,2.631,0,0,0,.681,1.9A2.277,2.277,0,0,0,56.057,15.11Zm15.838-2.76-.026.606h-6.7a2.339,2.339,0,0,0,.721,1.652,2.3,2.3,0,0,0,1.591.571,2.221,2.221,0,0,0,1.191-.312,1.918,1.918,0,0,0,.76-.91l2.32.343a3.945,3.945,0,0,1-1.582,2.118,4.7,4.7,0,0,1-2.672.756,4.891,4.891,0,0,1-3.52-1.244,4.538,4.538,0,0,1-1.305-3.45,4.565,4.565,0,0,1,1.31-3.45,4.746,4.746,0,0,1,3.437-1.261,4.536,4.536,0,0,1,3.243,1.151A4.517,4.517,0,0,1,71.895,12.351ZM67.438,9.564a2,2,0,0,0-2.2,1.74H69.39a1.9,1.9,0,0,0-.624-1.292A1.978,1.978,0,0,0,67.438,9.564ZM86.906,4.3h2.8L85.017,17h-2.9L77.449,4.3h2.795l3.331,9.624ZM97.8,14.548a8.453,8.453,0,0,0,.22,2.206V17H95.651l-.2-.984a2.938,2.938,0,0,1-1.266.87,4.664,4.664,0,0,1-1.635.29,4.3,4.3,0,0,1-.844-.079,2.868,2.868,0,0,1-.76-.268,2.307,2.307,0,0,1-.628-.47,2.062,2.062,0,0,1-.422-.716,2.853,2.853,0,0,1-.158-.98,2.718,2.718,0,0,1,.167-.98,2.3,2.3,0,0,1,.439-.734,2.666,2.666,0,0,1,.712-.536,5.447,5.447,0,0,1,.9-.387,10.712,10.712,0,0,1,1.072-.281l1.485-.334a1.638,1.638,0,0,0,.672-.286.57.57,0,0,0,.2-.453.932.932,0,0,0-.444-.87,2.073,2.073,0,0,0-1.077-.264,1.549,1.549,0,0,0-1.767,1.38l-2.241-.4a3.034,3.034,0,0,1,1.31-2.061A5.2,5.2,0,0,1,94,7.789q3.8,0,3.8,3.261Zm-4.456.914a2.036,2.036,0,0,0,1.564-.655,2.759,2.759,0,0,0,.606-1.938l-2.145.606a2.534,2.534,0,0,0-.9.369.758.758,0,0,0-.312.65.842.842,0,0,0,.334.716A1.382,1.382,0,0,0,93.34,15.462ZM102.683,9.4a2.933,2.933,0,0,1,1.187-1.085,3.62,3.62,0,0,1,1.767-.453v2.259a3.423,3.423,0,0,0-2.162.545,2.379,2.379,0,0,0-.668,1.934V17h-2.549V7.965h2.426Zm5.73-2.786a1.421,1.421,0,0,1-1.037-.426,1.4,1.4,0,0,1-.431-1.033,1.382,1.382,0,0,1,.435-1.024,1.425,1.425,0,0,1,1.033-.426,1.463,1.463,0,0,1,1.45,1.45,1.463,1.463,0,0,1-1.45,1.459ZM107.121,17V7.965h2.549V17ZM119.7,14.548a8.453,8.453,0,0,0,.22,2.206V17h-2.364l-.2-.984a2.938,2.938,0,0,1-1.266.87,4.664,4.664,0,0,1-1.635.29,4.3,4.3,0,0,1-.844-.079,2.868,2.868,0,0,1-.76-.268,2.307,2.307,0,0,1-.628-.47,2.062,2.062,0,0,1-.422-.716,2.853,2.853,0,0,1-.158-.98,2.718,2.718,0,0,1,.167-.98,2.3,2.3,0,0,1,.439-.734,2.666,2.666,0,0,1,.712-.536,5.447,5.447,0,0,1,.9-.387,10.712,10.712,0,0,1,1.072-.281l1.485-.334a1.638,1.638,0,0,0,.672-.286.57.57,0,0,0,.2-.453.932.932,0,0,0-.444-.87,2.073,2.073,0,0,0-1.077-.264,1.549,1.549,0,0,0-1.767,1.38l-2.241-.4a3.034,3.034,0,0,1,1.31-2.061,5.2,5.2,0,0,1,2.839-.664q3.8,0,3.8,3.261Zm-4.456.914a2.036,2.036,0,0,0,1.564-.655,2.759,2.759,0,0,0,.606-1.938l-2.145.606a2.534,2.534,0,0,0-.9.369.758.758,0,0,0-.312.65.842.842,0,0,0,.334.716A1.382,1.382,0,0,0,115.242,15.462Zm12.226-7.673a4.372,4.372,0,0,1,1.679.325,4.064,4.064,0,0,1,2.32,2.408,5.5,5.5,0,0,1,.343,1.978,5.5,5.5,0,0,1-.343,1.978,4.064,4.064,0,0,1-2.32,2.408,4.372,4.372,0,0,1-1.679.325,3.9,3.9,0,0,1-1.709-.365,2.527,2.527,0,0,1-1.138-1.024L124.559,17h-2.4V3.5h2.531V9.063a2.522,2.522,0,0,1,1.129-.94A3.973,3.973,0,0,1,127.468,7.789Zm-.589,7.321A2.277,2.277,0,0,0,128.6,14.4a2.631,2.631,0,0,0,.681-1.9,2.644,2.644,0,0,0-.681-1.907,2.277,2.277,0,0,0-1.718-.712,2.251,2.251,0,0,0-1.705.725,2.644,2.644,0,0,0-.686,1.894,2.638,2.638,0,0,0,.681,1.89A2.253,2.253,0,0,0,126.879,15.11ZM133.717,17V3.5h2.558V17Zm13.676-4.649-.026.606h-6.7a2.339,2.339,0,0,0,.721,1.652,2.3,2.3,0,0,0,1.591.571,2.221,2.221,0,0,0,1.191-.312,1.918,1.918,0,0,0,.76-.91l2.32.343a3.945,3.945,0,0,1-1.582,2.118,4.7,4.7,0,0,1-2.672.756,4.891,4.891,0,0,1-3.52-1.244,4.538,4.538,0,0,1-1.305-3.45,4.565,4.565,0,0,1,1.31-3.45,4.746,4.746,0,0,1,3.437-1.261,4.536,4.536,0,0,1,3.243,1.151A4.517,4.517,0,0,1,147.393,12.351Zm-4.456-2.786a2,2,0,0,0-2.2,1.74h4.148a1.9,1.9,0,0,0-.624-1.292A1.978,1.978,0,0,0,142.937,9.564Zm9.563,7.611a5.049,5.049,0,0,1-2.637-.633,2.675,2.675,0,0,1-1.292-1.881l2.118-.6a1.7,1.7,0,0,0,1.811,1.345,1.87,1.87,0,0,0,.923-.207.719.719,0,0,0,.36-.7.739.739,0,0,0-.149-.466,1.183,1.183,0,0,0-.461-.334,5.749,5.749,0,0,0-.615-.237q-.3-.1-.8-.233t-.835-.259a5.593,5.593,0,0,1-.8-.338,3.393,3.393,0,0,1-.659-.466,1.878,1.878,0,0,1-.492-.708,2.552,2.552,0,0,1-.171-.967,2.308,2.308,0,0,1,.98-2.021,4.379,4.379,0,0,1,2.562-.686,4.489,4.489,0,0,1,2.364.58,2.625,2.625,0,0,1,1.213,1.811l-1.96.439a1.535,1.535,0,0,0-1.608-1.143,1.761,1.761,0,0,0-.888.2.649.649,0,0,0-.352.6.685.685,0,0,0,.053.272.539.539,0,0,0,.185.22,2.692,2.692,0,0,0,.255.167,1.923,1.923,0,0,0,.36.145q.237.075.4.114l.461.119.47.123q.483.132.848.264a4.967,4.967,0,0,1,.778.369,2.792,2.792,0,0,1,.681.532,2.372,2.372,0,0,1,.444.747,2.759,2.759,0,0,1,.176,1.006,2.718,2.718,0,0,1-.3,1.31,2.276,2.276,0,0,1-.831.883,4.043,4.043,0,0,1-1.173.475A6.087,6.087,0,0,1,152.5,17.176ZM170.411,6.62H165.7V9.5h4.175V11.8H165.7v2.874h4.711V17h-7.365V4.3h7.365Zm5.563,10.556a5.049,5.049,0,0,1-2.637-.633,2.675,2.675,0,0,1-1.292-1.881l2.118-.6a1.7,1.7,0,0,0,1.811,1.345,1.87,1.87,0,0,0,.923-.207.719.719,0,0,0,.36-.7.739.739,0,0,0-.149-.466,1.183,1.183,0,0,0-.461-.334,5.749,5.749,0,0,0-.615-.237q-.3-.1-.8-.233t-.835-.259a5.593,5.593,0,0,1-.8-.338,3.393,3.393,0,0,1-.659-.466,1.878,1.878,0,0,1-.492-.708,2.552,2.552,0,0,1-.171-.967,2.308,2.308,0,0,1,.98-2.021,4.379,4.379,0,0,1,2.562-.686,4.489,4.489,0,0,1,2.364.58,2.625,2.625,0,0,1,1.213,1.811l-1.96.439a1.535,1.535,0,0,0-1.608-1.143,1.761,1.761,0,0,0-.888.2.649.649,0,0,0-.352.6.685.685,0,0,0,.053.272.539.539,0,0,0,.185.22,2.692,2.692,0,0,0,.255.167,1.923,1.923,0,0,0,.36.145q.237.075.4.114l.461.119.47.123q.483.132.848.264a4.967,4.967,0,0,1,.778.369,2.792,2.792,0,0,1,.681.532,2.372,2.372,0,0,1,.444.747,2.759,2.759,0,0,1,.176,1.006,2.718,2.718,0,0,1-.3,1.31,2.276,2.276,0,0,1-.831.883,4.043,4.043,0,0,1-1.173.475A6.087,6.087,0,0,1,175.975,17.176Zm8.9-.176a2.729,2.729,0,0,1-2.039-.734,2.854,2.854,0,0,1-.721-2.087V9.907h-1.775V7.965h.571a1.491,1.491,0,0,0,1.125-.378,1.946,1.946,0,0,0,.36-1.345v-1.2h2.285V7.965h1.863V9.907h-1.863v4q0,1.169,1.046,1.169h.817V17Zm11-2.452a8.453,8.453,0,0,0,.22,2.206V17h-2.364l-.2-.984a2.938,2.938,0,0,1-1.266.87,4.664,4.664,0,0,1-1.635.29,4.3,4.3,0,0,1-.844-.079,2.868,2.868,0,0,1-.76-.268,2.307,2.307,0,0,1-.628-.47,2.062,2.062,0,0,1-.422-.716,2.853,2.853,0,0,1-.158-.98,2.718,2.718,0,0,1,.167-.98,2.3,2.3,0,0,1,.439-.734,2.666,2.666,0,0,1,.712-.536,5.447,5.447,0,0,1,.9-.387,10.712,10.712,0,0,1,1.072-.281l1.485-.334a1.638,1.638,0,0,0,.672-.286.57.57,0,0,0,.2-.453.932.932,0,0,0-.444-.87,2.073,2.073,0,0,0-1.077-.264,1.549,1.549,0,0,0-1.767,1.38l-2.241-.4a3.034,3.034,0,0,1,1.31-2.061,5.2,5.2,0,0,1,2.839-.664q3.8,0,3.8,3.261Zm-4.456.914a2.036,2.036,0,0,0,1.564-.655,2.759,2.759,0,0,0,.606-1.938l-2.145.606a2.534,2.534,0,0,0-.9.369.758.758,0,0,0-.312.65.842.842,0,0,0,.334.716A1.382,1.382,0,0,0,191.426,15.462ZM204.548,3.5h2.531V17h-2.4l-.062-1.178a2.58,2.58,0,0,1-1.147,1.024,3.861,3.861,0,0,1-1.692.365,4.394,4.394,0,0,1-1.687-.325,4.064,4.064,0,0,1-2.32-2.408,5.5,5.5,0,0,1-.343-1.978,5.137,5.137,0,0,1,.6-2.518A4.1,4.1,0,0,1,199.6,8.343a4.345,4.345,0,0,1,2.175-.554,3.957,3.957,0,0,1,1.639.33,2.559,2.559,0,0,1,1.129.936Zm-2.188,11.61a2.253,2.253,0,0,0,1.709-.721,2.638,2.638,0,0,0,.681-1.89,2.644,2.644,0,0,0-.686-1.894,2.251,2.251,0,0,0-1.705-.725,2.277,2.277,0,0,0-1.718.712,2.644,2.644,0,0,0-.681,1.907,2.631,2.631,0,0,0,.681,1.9A2.277,2.277,0,0,0,202.359,15.11Zm7.84-8.385,2.3-3.234,1.248.879-2,2.355ZM209.7,17V7.965h2.549V17Zm8.35.176a5.049,5.049,0,0,1-2.637-.633,2.675,2.675,0,0,1-1.292-1.881l2.118-.6a1.7,1.7,0,0,0,1.811,1.345,1.87,1.87,0,0,0,.923-.207.719.719,0,0,0,.36-.7.739.739,0,0,0-.149-.466,1.183,1.183,0,0,0-.461-.334,5.749,5.749,0,0,0-.615-.237q-.3-.1-.8-.233t-.835-.259a5.593,5.593,0,0,1-.8-.338,3.393,3.393,0,0,1-.659-.466,1.878,1.878,0,0,1-.492-.708,2.552,2.552,0,0,1-.171-.967,2.308,2.308,0,0,1,.98-2.021,4.379,4.379,0,0,1,2.562-.686,4.489,4.489,0,0,1,2.364.58,2.625,2.625,0,0,1,1.213,1.811l-1.96.439A1.535,1.535,0,0,0,217.9,9.477a1.761,1.761,0,0,0-.888.2.649.649,0,0,0-.352.6.685.685,0,0,0,.053.272.539.539,0,0,0,.185.22,2.692,2.692,0,0,0,.255.167,1.923,1.923,0,0,0,.36.145q.237.075.4.114l.461.119.47.123q.483.132.848.264a4.967,4.967,0,0,1,.778.369,2.792,2.792,0,0,1,.681.532,2.372,2.372,0,0,1,.444.747,2.759,2.759,0,0,1,.176,1.006,2.718,2.718,0,0,1-.3,1.31,2.276,2.276,0,0,1-.831.883,4.043,4.043,0,0,1-1.173.475A6.087,6.087,0,0,1,218.048,17.176Zm8.9-.176a2.729,2.729,0,0,1-2.039-.734,2.854,2.854,0,0,1-.721-2.087V9.907h-1.775V7.965h.571a1.491,1.491,0,0,0,1.125-.378,1.946,1.946,0,0,0,.36-1.345v-1.2h2.285V7.965h1.863V9.907h-1.863v4q0,1.169,1.046,1.169h.817V17Zm4.922-10.389a1.421,1.421,0,0,1-1.037-.426,1.4,1.4,0,0,1-.431-1.033,1.382,1.382,0,0,1,.435-1.024,1.425,1.425,0,0,1,1.033-.426,1.463,1.463,0,0,1,1.45,1.45,1.463,1.463,0,0,1-1.45,1.459ZM230.581,17V7.965h2.549V17Zm9.255.167a4.827,4.827,0,0,1-3.489-1.3,4.493,4.493,0,0,1-1.354-3.393,4.483,4.483,0,0,1,1.349-3.393,5.364,5.364,0,0,1,6.42-.422,3.885,3.885,0,0,1,1.512,2.452l-2.338.255a2,2,0,0,0-.756-1.187,2.3,2.3,0,0,0-1.371-.4,2.072,2.072,0,0,0-1.652.738,2.894,2.894,0,0,0-.633,1.951,2.9,2.9,0,0,0,.633,1.947,2.067,2.067,0,0,0,1.652.743,2.278,2.278,0,0,0,1.367-.4,2.05,2.05,0,0,0,.76-1.187l2.338.255a3.9,3.9,0,0,1-1.525,2.452A4.8,4.8,0,0,1,239.836,17.167Zm13.649-2.619a8.453,8.453,0,0,0,.22,2.206V17h-2.364l-.2-.984a2.938,2.938,0,0,1-1.266.87,4.664,4.664,0,0,1-1.635.29,4.3,4.3,0,0,1-.844-.079,2.868,2.868,0,0,1-.76-.268,2.307,2.307,0,0,1-.628-.47,2.062,2.062,0,0,1-.422-.716,2.853,2.853,0,0,1-.158-.98,2.718,2.718,0,0,1,.167-.98,2.3,2.3,0,0,1,.439-.734,2.666,2.666,0,0,1,.712-.536,5.447,5.447,0,0,1,.9-.387,10.712,10.712,0,0,1,1.072-.281l1.485-.334a1.638,1.638,0,0,0,.672-.286.57.57,0,0,0,.2-.453.932.932,0,0,0-.444-.87,2.073,2.073,0,0,0-1.077-.264,1.549,1.549,0,0,0-1.767,1.38l-2.241-.4a3.034,3.034,0,0,1,1.31-2.061,5.2,5.2,0,0,1,2.839-.664q3.8,0,3.8,3.261Zm-4.456.914a2.036,2.036,0,0,0,1.564-.655,2.759,2.759,0,0,0,.606-1.938l-2.145.606a2.534,2.534,0,0,0-.9.369.758.758,0,0,0-.312.65.842.842,0,0,0,.334.716A1.382,1.382,0,0,0,249.029,15.462Zm10.1,1.714a5.049,5.049,0,0,1-2.637-.633,2.675,2.675,0,0,1-1.292-1.881l2.118-.6a1.7,1.7,0,0,0,1.811,1.345,1.87,1.87,0,0,0,.923-.207.719.719,0,0,0,.36-.7.739.739,0,0,0-.149-.466,1.183,1.183,0,0,0-.461-.334,5.749,5.749,0,0,0-.615-.237q-.3-.1-.8-.233t-.835-.259a5.593,5.593,0,0,1-.8-.338,3.393,3.393,0,0,1-.659-.466,1.878,1.878,0,0,1-.492-.708,2.552,2.552,0,0,1-.171-.967,2.308,2.308,0,0,1,.98-2.021,4.379,4.379,0,0,1,2.562-.686,4.489,4.489,0,0,1,2.364.58,2.625,2.625,0,0,1,1.213,1.811l-1.96.439a1.535,1.535,0,0,0-1.608-1.143,1.761,1.761,0,0,0-.888.2.649.649,0,0,0-.352.6.685.685,0,0,0,.053.272.539.539,0,0,0,.185.22,2.692,2.692,0,0,0,.255.167,1.923,1.923,0,0,0,.36.145q.237.075.4.114l.461.119.47.123q.483.132.848.264a4.967,4.967,0,0,1,.778.369,2.792,2.792,0,0,1,.681.532,2.372,2.372,0,0,1,.444.747,2.759,2.759,0,0,1,.176,1.006,2.718,2.718,0,0,1-.3,1.31,2.276,2.276,0,0,1-.831.883,4.043,4.043,0,0,1-1.173.475A6.087,6.087,0,0,1,259.128,17.176Z" transform="translate(830 1241.731)" fill="#fff"/>
      <path id="Trazado_57644" data-name="Trazado 57644" d="M96.7,17.176a7.089,7.089,0,0,1-2.588-.466,6.087,6.087,0,0,1-2.061-1.3A5.864,5.864,0,0,1,90.7,13.344a7.2,7.2,0,0,1-.492-2.7,6.879,6.879,0,0,1,.844-3.45,5.744,5.744,0,0,1,2.316-2.281A6.935,6.935,0,0,1,96.7,4.124a6.739,6.739,0,0,1,3.727,1.028,5.629,5.629,0,0,1,2.276,2.83l-2.461.9a3.479,3.479,0,0,0-1.362-1.714A3.891,3.891,0,0,0,96.7,6.55a3.73,3.73,0,0,0-2.777,1.107,4.075,4.075,0,0,0-1.09,2.988,4.081,4.081,0,0,0,1.094,2.993A3.726,3.726,0,0,0,96.7,14.75a3.876,3.876,0,0,0,2.175-.62,3.5,3.5,0,0,0,1.367-1.718l2.461.9a5.652,5.652,0,0,1-2.276,2.834A6.718,6.718,0,0,1,96.7,17.176Zm13.816-9.211h2.531V17h-2.4l-.062-1.09a3.45,3.45,0,0,1-2.874,1.266,3.522,3.522,0,0,1-2.5-.813,3.014,3.014,0,0,1-.87-2.316V7.965h2.54V13.5a1.562,1.562,0,0,0,.453,1.239,1.718,1.718,0,0,0,1.173.4,2.038,2.038,0,0,0,1.437-.514,2.209,2.209,0,0,0,.567-1.674Zm12.56,6.583a8.453,8.453,0,0,0,.22,2.206V17h-2.364l-.2-.984a2.938,2.938,0,0,1-1.266.87,4.664,4.664,0,0,1-1.635.29,4.3,4.3,0,0,1-.844-.079,2.868,2.868,0,0,1-.76-.268,2.307,2.307,0,0,1-.628-.47,2.062,2.062,0,0,1-.422-.716,2.853,2.853,0,0,1-.158-.98,2.718,2.718,0,0,1,.167-.98,2.3,2.3,0,0,1,.439-.734,2.666,2.666,0,0,1,.712-.536,5.447,5.447,0,0,1,.9-.387,10.712,10.712,0,0,1,1.072-.281l1.485-.334a1.638,1.638,0,0,0,.672-.286.57.57,0,0,0,.2-.453.932.932,0,0,0-.444-.87,2.073,2.073,0,0,0-1.077-.264,1.549,1.549,0,0,0-1.767,1.38l-2.241-.4a3.034,3.034,0,0,1,1.31-2.061,5.2,5.2,0,0,1,2.839-.664q3.8,0,3.8,3.261Zm-4.456.914a2.036,2.036,0,0,0,1.564-.655,2.759,2.759,0,0,0,.606-1.938l-2.145.606a2.534,2.534,0,0,0-.9.369.758.758,0,0,0-.312.65.842.842,0,0,0,.334.716A1.382,1.382,0,0,0,118.624,15.462ZM125.541,17V3.5H128.1V17ZM132.01,6.611a1.421,1.421,0,0,1-1.037-.426,1.4,1.4,0,0,1-.431-1.033,1.382,1.382,0,0,1,.435-1.024A1.425,1.425,0,0,1,132.01,3.7a1.463,1.463,0,0,1,1.45,1.45,1.463,1.463,0,0,1-1.45,1.459ZM130.718,17V7.965h2.549V17Zm8.534,0a2.729,2.729,0,0,1-2.039-.734,2.854,2.854,0,0,1-.721-2.087V9.907h-1.775V7.965h.571a1.491,1.491,0,0,0,1.125-.378,1.946,1.946,0,0,0,.36-1.345v-1.2h2.285V7.965h1.863V9.907h-1.863v4q0,1.169,1.046,1.169h.817V17Zm11-2.452a8.453,8.453,0,0,0,.22,2.206V17h-2.364l-.2-.984a2.938,2.938,0,0,1-1.266.87,4.664,4.664,0,0,1-1.635.29,4.3,4.3,0,0,1-.844-.079,2.868,2.868,0,0,1-.76-.268,2.307,2.307,0,0,1-.628-.47,2.062,2.062,0,0,1-.422-.716,2.853,2.853,0,0,1-.158-.98,2.718,2.718,0,0,1,.167-.98,2.3,2.3,0,0,1,.439-.734,2.666,2.666,0,0,1,.712-.536,5.447,5.447,0,0,1,.9-.387,10.712,10.712,0,0,1,1.072-.281l1.485-.334a1.638,1.638,0,0,0,.672-.286.57.57,0,0,0,.2-.453.932.932,0,0,0-.444-.87,2.073,2.073,0,0,0-1.077-.264,1.549,1.549,0,0,0-1.767,1.38l-2.241-.4a3.034,3.034,0,0,1,1.31-2.061,5.2,5.2,0,0,1,2.839-.664q3.8,0,3.8,3.261Zm-4.456.914a2.036,2.036,0,0,0,1.564-.655,2.759,2.759,0,0,0,.606-1.938l-2.145.606a2.534,2.534,0,0,0-.9.369.758.758,0,0,0-.312.65.842.842,0,0,0,.334.716A1.382,1.382,0,0,0,145.8,15.462ZM155.96,17a2.729,2.729,0,0,1-2.039-.734,2.854,2.854,0,0,1-.721-2.087V9.907h-1.775V7.965H152a1.491,1.491,0,0,0,1.125-.378,1.946,1.946,0,0,0,.36-1.345v-1.2h2.285V7.965h1.863V9.907h-1.863v4q0,1.169,1.046,1.169h.817V17Zm4.922-10.389a1.421,1.421,0,0,1-1.037-.426,1.4,1.4,0,0,1-.431-1.033,1.382,1.382,0,0,1,.435-1.024,1.425,1.425,0,0,1,1.033-.426,1.463,1.463,0,0,1,1.45,1.45,1.463,1.463,0,0,1-1.45,1.459ZM159.59,17V7.965h2.549V17Zm11.048-9.035h2.681L169.469,17h-2.2l-3.806-9.035h2.663l2.25,6.179Zm11.057,6.583a8.453,8.453,0,0,0,.22,2.206V17H179.55l-.2-.984a2.938,2.938,0,0,1-1.266.87,4.664,4.664,0,0,1-1.635.29,4.3,4.3,0,0,1-.844-.079,2.868,2.868,0,0,1-.76-.268,2.307,2.307,0,0,1-.628-.47,2.062,2.062,0,0,1-.422-.716,2.853,2.853,0,0,1-.158-.98,2.718,2.718,0,0,1,.167-.98,2.3,2.3,0,0,1,.439-.734,2.666,2.666,0,0,1,.712-.536,5.447,5.447,0,0,1,.9-.387,10.712,10.712,0,0,1,1.072-.281l1.485-.334a1.638,1.638,0,0,0,.672-.286.57.57,0,0,0,.2-.453.932.932,0,0,0-.444-.87,2.073,2.073,0,0,0-1.077-.264,1.549,1.549,0,0,0-1.767,1.38l-2.241-.4a3.034,3.034,0,0,1,1.31-2.061,5.2,5.2,0,0,1,2.839-.664q3.8,0,3.8,3.261Zm-4.456.914a2.036,2.036,0,0,0,1.564-.655,2.759,2.759,0,0,0,.606-1.938l-2.145.606a2.534,2.534,0,0,0-.9.369.758.758,0,0,0-.312.65.842.842,0,0,0,.334.716A1.382,1.382,0,0,0,177.238,15.462Zm10.1,1.714a5.049,5.049,0,0,1-2.637-.633,2.675,2.675,0,0,1-1.292-1.881l2.118-.6a1.7,1.7,0,0,0,1.811,1.345,1.87,1.87,0,0,0,.923-.207.719.719,0,0,0,.36-.7.739.739,0,0,0-.149-.466,1.183,1.183,0,0,0-.461-.334,5.749,5.749,0,0,0-.615-.237q-.3-.1-.8-.233t-.835-.259a5.593,5.593,0,0,1-.8-.338,3.393,3.393,0,0,1-.659-.466,1.878,1.878,0,0,1-.492-.708,2.552,2.552,0,0,1-.171-.967,2.308,2.308,0,0,1,.98-2.021,4.379,4.379,0,0,1,2.562-.686,4.489,4.489,0,0,1,2.364.58,2.625,2.625,0,0,1,1.213,1.811l-1.96.439a1.535,1.535,0,0,0-1.608-1.143,1.761,1.761,0,0,0-.888.2.649.649,0,0,0-.352.6.685.685,0,0,0,.053.272.539.539,0,0,0,.185.22,2.692,2.692,0,0,0,.255.167,1.923,1.923,0,0,0,.36.145q.237.075.4.114l.461.119.47.123q.483.132.848.264a4.967,4.967,0,0,1,.778.369,2.792,2.792,0,0,1,.681.532,2.372,2.372,0,0,1,.444.747,2.759,2.759,0,0,1,.176,1.006,2.718,2.718,0,0,1-.3,1.31,2.276,2.276,0,0,1-.831.883,4.043,4.043,0,0,1-1.173.475A6.087,6.087,0,0,1,187.337,17.176Z" transform="translate(579 1343.731)" fill="#fff"/>
      <path id="Trazado_57641" data-name="Trazado 57641" d="M90.218,17.176a7.089,7.089,0,0,1-2.588-.466,6.087,6.087,0,0,1-2.061-1.3,5.864,5.864,0,0,1-1.354-2.065,7.2,7.2,0,0,1-.492-2.7,6.879,6.879,0,0,1,.844-3.45,5.744,5.744,0,0,1,2.316-2.281,6.935,6.935,0,0,1,3.335-.791,6.739,6.739,0,0,1,3.727,1.028,5.629,5.629,0,0,1,2.276,2.83l-2.461.9A3.479,3.479,0,0,0,92.4,7.165a3.891,3.891,0,0,0-2.18-.615A3.73,3.73,0,0,0,87.44,7.657a4.075,4.075,0,0,0-1.09,2.988,4.081,4.081,0,0,0,1.094,2.993,3.726,3.726,0,0,0,2.773,1.112,3.876,3.876,0,0,0,2.175-.62,3.5,3.5,0,0,0,1.367-1.718l2.461.9a5.652,5.652,0,0,1-2.276,2.834A6.718,6.718,0,0,1,90.218,17.176Zm13.816-9.211h2.531V17h-2.4l-.062-1.09a3.45,3.45,0,0,1-2.874,1.266,3.522,3.522,0,0,1-2.5-.813,3.014,3.014,0,0,1-.87-2.316V7.965h2.54V13.5a1.562,1.562,0,0,0,.453,1.239,1.718,1.718,0,0,0,1.173.4,2.038,2.038,0,0,0,1.437-.514,2.209,2.209,0,0,0,.567-1.674Zm12.56,6.583a8.453,8.453,0,0,0,.22,2.206V17h-2.364l-.2-.984a2.938,2.938,0,0,1-1.266.87,4.664,4.664,0,0,1-1.635.29,4.3,4.3,0,0,1-.844-.079,2.868,2.868,0,0,1-.76-.268,2.307,2.307,0,0,1-.628-.47,2.062,2.062,0,0,1-.422-.716,2.853,2.853,0,0,1-.158-.98,2.718,2.718,0,0,1,.167-.98,2.3,2.3,0,0,1,.439-.734,2.666,2.666,0,0,1,.712-.536,5.447,5.447,0,0,1,.9-.387,10.712,10.712,0,0,1,1.072-.281l1.485-.334a1.638,1.638,0,0,0,.672-.286.57.57,0,0,0,.2-.453.932.932,0,0,0-.444-.87,2.073,2.073,0,0,0-1.077-.264,1.549,1.549,0,0,0-1.767,1.38l-2.241-.4a3.034,3.034,0,0,1,1.31-2.061,5.2,5.2,0,0,1,2.839-.664q3.8,0,3.8,3.261Zm-4.456.914a2.036,2.036,0,0,0,1.564-.655,2.759,2.759,0,0,0,.606-1.938l-2.145.606a2.534,2.534,0,0,0-.9.369.758.758,0,0,0-.312.65.842.842,0,0,0,.334.716A1.382,1.382,0,0,0,112.138,15.462ZM124.39,7.789a3.522,3.522,0,0,1,2.5.813,3.014,3.014,0,0,1,.87,2.316V17h-2.54V11.463a1.574,1.574,0,0,0-.453-1.248,1.705,1.705,0,0,0-1.165-.4,2.379,2.379,0,0,0-.756.114,1.942,1.942,0,0,0-.633.356,1.573,1.573,0,0,0-.453.681,3.15,3.15,0,0,0-.171,1.046V17h-2.531V7.965h2.531v1A3.481,3.481,0,0,1,124.39,7.789ZM133.574,17a2.729,2.729,0,0,1-2.039-.734,2.854,2.854,0,0,1-.721-2.087V9.907h-1.775V7.965h.571a1.491,1.491,0,0,0,1.125-.378,1.946,1.946,0,0,0,.36-1.345v-1.2h2.285V7.965h1.863V9.907h-1.863v4q0,1.169,1.046,1.169h.817V17ZM138.5,6.611a1.421,1.421,0,0,1-1.037-.426,1.4,1.4,0,0,1-.431-1.033,1.382,1.382,0,0,1,.435-1.024A1.425,1.425,0,0,1,138.5,3.7a1.463,1.463,0,0,1,1.45,1.45,1.463,1.463,0,0,1-1.45,1.459ZM137.2,17V7.965h2.549V17Zm8.534,0a2.729,2.729,0,0,1-2.039-.734,2.854,2.854,0,0,1-.721-2.087V9.907H141.2V7.965h.571a1.491,1.491,0,0,0,1.125-.378,1.946,1.946,0,0,0,.36-1.345v-1.2h2.285V7.965h1.863V9.907h-1.863v4q0,1.169,1.046,1.169h.817V17Zm11-2.452a8.453,8.453,0,0,0,.22,2.206V17H154.6l-.2-.984a2.938,2.938,0,0,1-1.266.87,4.664,4.664,0,0,1-1.635.29,4.3,4.3,0,0,1-.844-.079,2.868,2.868,0,0,1-.76-.268,2.307,2.307,0,0,1-.628-.47,2.062,2.062,0,0,1-.422-.716,2.853,2.853,0,0,1-.158-.98,2.718,2.718,0,0,1,.167-.98,2.3,2.3,0,0,1,.439-.734,2.666,2.666,0,0,1,.712-.536,5.447,5.447,0,0,1,.9-.387,10.712,10.712,0,0,1,1.072-.281l1.485-.334a1.638,1.638,0,0,0,.672-.286.57.57,0,0,0,.2-.453.932.932,0,0,0-.444-.87,2.073,2.073,0,0,0-1.077-.264,1.549,1.549,0,0,0-1.767,1.38l-2.241-.4a3.034,3.034,0,0,1,1.31-2.061,5.2,5.2,0,0,1,2.839-.664q3.8,0,3.8,3.261Zm-4.456.914a2.036,2.036,0,0,0,1.564-.655,2.759,2.759,0,0,0,.606-1.938l-2.145.606a2.534,2.534,0,0,0-.9.369.758.758,0,0,0-.312.65.842.842,0,0,0,.334.716A1.382,1.382,0,0,0,152.286,15.462ZM162.446,17a2.729,2.729,0,0,1-2.039-.734,2.854,2.854,0,0,1-.721-2.087V9.907h-1.775V7.965h.571a1.491,1.491,0,0,0,1.125-.378,1.946,1.946,0,0,0,.36-1.345v-1.2h2.285V7.965h1.863V9.907h-1.863v4q0,1.169,1.046,1.169h.817V17Zm4.922-10.389a1.421,1.421,0,0,1-1.037-.426,1.4,1.4,0,0,1-.431-1.033,1.382,1.382,0,0,1,.435-1.024,1.425,1.425,0,0,1,1.033-.426,1.463,1.463,0,0,1,1.45,1.45,1.463,1.463,0,0,1-1.45,1.459ZM166.076,17V7.965h2.549V17Zm11.048-9.035H179.8L175.955,17h-2.2l-3.806-9.035h2.663l2.25,6.179Zm11.057,6.583a8.453,8.453,0,0,0,.22,2.206V17h-2.364l-.2-.984a2.938,2.938,0,0,1-1.266.87,4.664,4.664,0,0,1-1.635.29,4.3,4.3,0,0,1-.844-.079,2.868,2.868,0,0,1-.76-.268,2.307,2.307,0,0,1-.628-.47,2.062,2.062,0,0,1-.422-.716,2.853,2.853,0,0,1-.158-.98,2.718,2.718,0,0,1,.167-.98,2.3,2.3,0,0,1,.439-.734,2.666,2.666,0,0,1,.712-.536,5.447,5.447,0,0,1,.9-.387,10.712,10.712,0,0,1,1.072-.281l1.485-.334a1.638,1.638,0,0,0,.672-.286.57.57,0,0,0,.2-.453.932.932,0,0,0-.444-.87,2.073,2.073,0,0,0-1.077-.264,1.549,1.549,0,0,0-1.767,1.38l-2.241-.4a3.034,3.034,0,0,1,1.31-2.061,5.2,5.2,0,0,1,2.839-.664q3.8,0,3.8,3.261Zm-4.456.914a2.036,2.036,0,0,0,1.564-.655,2.759,2.759,0,0,0,.606-1.938l-2.145.606a2.534,2.534,0,0,0-.9.369.758.758,0,0,0-.312.65.842.842,0,0,0,.334.716A1.382,1.382,0,0,0,183.725,15.462Zm10.1,1.714a5.049,5.049,0,0,1-2.637-.633,2.675,2.675,0,0,1-1.292-1.881l2.118-.6a1.7,1.7,0,0,0,1.811,1.345,1.87,1.87,0,0,0,.923-.207.719.719,0,0,0,.36-.7.739.739,0,0,0-.149-.466,1.183,1.183,0,0,0-.461-.334,5.749,5.749,0,0,0-.615-.237q-.3-.1-.8-.233t-.835-.259a5.593,5.593,0,0,1-.8-.338,3.393,3.393,0,0,1-.659-.466,1.878,1.878,0,0,1-.492-.708,2.552,2.552,0,0,1-.171-.967,2.308,2.308,0,0,1,.98-2.021,4.379,4.379,0,0,1,2.562-.686,4.489,4.489,0,0,1,2.364.58,2.625,2.625,0,0,1,1.213,1.811l-1.96.439a1.535,1.535,0,0,0-1.608-1.143,1.761,1.761,0,0,0-.888.2.649.649,0,0,0-.352.6.685.685,0,0,0,.053.272.539.539,0,0,0,.185.22,2.692,2.692,0,0,0,.255.167,1.923,1.923,0,0,0,.36.145q.237.075.4.114l.461.119.47.123q.483.132.848.264a4.967,4.967,0,0,1,.778.369,2.792,2.792,0,0,1,.681.532,2.372,2.372,0,0,1,.444.747,2.759,2.759,0,0,1,.176,1.006,2.718,2.718,0,0,1-.3,1.31,2.276,2.276,0,0,1-.831.883,4.043,4.043,0,0,1-1.173.475A6.087,6.087,0,0,1,193.823,17.176Z" transform="translate(1056 1343.731)" fill="#fff"/>
      <path id="Trazado_57645" data-name="Trazado 57645" d="M104.6,4.3h2.628V17h-3.05L98.55,7.921V17H95.922V4.3h3.015l5.66,9.026Zm9.738,12.876a5.681,5.681,0,0,1-2.558-.554A4.138,4.138,0,0,1,110.024,15a4.846,4.846,0,0,1-.637-2.522,4.42,4.42,0,0,1,1.371-3.428,5.731,5.731,0,0,1,7.163,0,4.42,4.42,0,0,1,1.371,3.428,4.444,4.444,0,0,1-1.371,3.441A5.088,5.088,0,0,1,114.335,17.176Zm-.026-2.013a2.319,2.319,0,0,0,1.789-.738,2.764,2.764,0,0,0,.681-1.951,2.764,2.764,0,0,0-.681-1.951,2.319,2.319,0,0,0-1.789-.738,2.234,2.234,0,0,0-1.736.743,2.789,2.789,0,0,0-.672,1.947,2.789,2.789,0,0,0,.672,1.947A2.234,2.234,0,0,0,114.309,15.163Zm17.569-7.374a3.452,3.452,0,0,1,2.329.734,2.626,2.626,0,0,1,.853,2.1V17h-2.531V11.349a1.509,1.509,0,0,0-.4-1.143,1.416,1.416,0,0,0-1.02-.387,1.633,1.633,0,0,0-1.23.492A2.235,2.235,0,0,0,129.4,11.9V17h-2.558V11.375a1.549,1.549,0,0,0-.4-1.165,1.441,1.441,0,0,0-1.046-.391,1.581,1.581,0,0,0-1.222.519,2.476,2.476,0,0,0-.475,1.7V17h-2.522V7.965H123.7V9.028a3.072,3.072,0,0,1,2.619-1.239,3.863,3.863,0,0,1,1.7.347,2.315,2.315,0,0,1,1.068,1.006A3.2,3.2,0,0,1,131.878,7.789Zm6.935-1.178a1.421,1.421,0,0,1-1.037-.426,1.4,1.4,0,0,1-.431-1.033,1.382,1.382,0,0,1,.435-1.024,1.425,1.425,0,0,1,1.033-.426,1.463,1.463,0,0,1,1.45,1.45,1.463,1.463,0,0,1-1.45,1.459ZM137.521,17V7.965h2.549V17Zm10.5-9.211a3.522,3.522,0,0,1,2.5.813,3.014,3.014,0,0,1,.87,2.316V17h-2.54V11.463a1.574,1.574,0,0,0-.453-1.248,1.705,1.705,0,0,0-1.165-.4,2.379,2.379,0,0,0-.756.114,1.942,1.942,0,0,0-.633.356,1.573,1.573,0,0,0-.453.681,3.15,3.15,0,0,0-.171,1.046V17h-2.531V7.965h2.531v1A3.481,3.481,0,0,1,148.023,7.789Zm13.228,6.759a8.453,8.453,0,0,0,.22,2.206V17h-2.364l-.2-.984a2.938,2.938,0,0,1-1.266.87,4.664,4.664,0,0,1-1.635.29,4.3,4.3,0,0,1-.844-.079,2.868,2.868,0,0,1-.76-.268,2.307,2.307,0,0,1-.628-.47,2.062,2.062,0,0,1-.422-.716,2.853,2.853,0,0,1-.158-.98,2.718,2.718,0,0,1,.167-.98,2.3,2.3,0,0,1,.439-.734,2.666,2.666,0,0,1,.712-.536,5.447,5.447,0,0,1,.9-.387,10.712,10.712,0,0,1,1.072-.281l1.485-.334a1.638,1.638,0,0,0,.672-.286.57.57,0,0,0,.2-.453.932.932,0,0,0-.444-.87,2.073,2.073,0,0,0-1.077-.264,1.549,1.549,0,0,0-1.767,1.38l-2.241-.4a3.034,3.034,0,0,1,1.31-2.061,5.2,5.2,0,0,1,2.839-.664q3.8,0,3.8,3.261Zm-4.456.914a2.036,2.036,0,0,0,1.564-.655,2.759,2.759,0,0,0,.606-1.938l-2.145.606a2.534,2.534,0,0,0-.9.369.758.758,0,0,0-.312.65.842.842,0,0,0,.334.716A1.382,1.382,0,0,0,156.795,15.462ZM163.712,17V3.5h2.558V17Zm13.676-4.649-.026.606h-6.7a2.339,2.339,0,0,0,.721,1.652,2.3,2.3,0,0,0,1.591.571,2.221,2.221,0,0,0,1.191-.312,1.918,1.918,0,0,0,.76-.91l2.32.343a3.945,3.945,0,0,1-1.582,2.118,4.7,4.7,0,0,1-2.672.756,4.891,4.891,0,0,1-3.52-1.244,4.538,4.538,0,0,1-1.305-3.45,4.565,4.565,0,0,1,1.31-3.45,4.746,4.746,0,0,1,3.437-1.261,4.536,4.536,0,0,1,3.243,1.151A4.517,4.517,0,0,1,177.388,12.351Zm-4.456-2.786a2,2,0,0,0-2.2,1.74h4.148a1.9,1.9,0,0,0-.624-1.292A1.978,1.978,0,0,0,172.932,9.564Zm9.563,7.611a5.049,5.049,0,0,1-2.637-.633,2.675,2.675,0,0,1-1.292-1.881l2.118-.6a1.7,1.7,0,0,0,1.811,1.345,1.87,1.87,0,0,0,.923-.207.719.719,0,0,0,.36-.7.739.739,0,0,0-.149-.466,1.183,1.183,0,0,0-.461-.334,5.749,5.749,0,0,0-.615-.237q-.3-.1-.8-.233t-.835-.259a5.593,5.593,0,0,1-.8-.338,3.393,3.393,0,0,1-.659-.466,1.878,1.878,0,0,1-.492-.708,2.552,2.552,0,0,1-.171-.967,2.308,2.308,0,0,1,.98-2.021,4.379,4.379,0,0,1,2.562-.686,4.489,4.489,0,0,1,2.364.58,2.625,2.625,0,0,1,1.213,1.811l-1.96.439a1.535,1.535,0,0,0-1.608-1.143,1.761,1.761,0,0,0-.888.2.649.649,0,0,0-.352.6.685.685,0,0,0,.053.272.539.539,0,0,0,.185.22,2.692,2.692,0,0,0,.255.167,1.923,1.923,0,0,0,.36.145q.237.075.4.114l.461.119.47.123q.483.132.848.264a4.967,4.967,0,0,1,.778.369,2.792,2.792,0,0,1,.681.532,2.372,2.372,0,0,1,.444.747,2.759,2.759,0,0,1,.176,1.006,2.718,2.718,0,0,1-.3,1.31,2.276,2.276,0,0,1-.831.883,4.043,4.043,0,0,1-1.173.475A6.087,6.087,0,0,1,182.494,17.176Z" transform="translate(464 1551.731)" fill="#fff"/>
      <path id="Trazado_57646" data-name="Trazado 57646" d="M106.06,17.176a6.9,6.9,0,0,1-3.335-.8,5.766,5.766,0,0,1-2.316-2.29,6.886,6.886,0,0,1-.844-3.445,6.879,6.879,0,0,1,.844-3.45,5.744,5.744,0,0,1,2.316-2.281,7.418,7.418,0,0,1,6.667,0A5.752,5.752,0,0,1,111.7,7.2a6.879,6.879,0,0,1,.844,3.45,6.886,6.886,0,0,1-.844,3.445,5.766,5.766,0,0,1-2.316,2.29A6.885,6.885,0,0,1,106.06,17.176Zm-2.777-3.529a4.025,4.025,0,0,0,5.555,0,4.1,4.1,0,0,0,1.09-3,4.075,4.075,0,0,0-1.09-2.988,4.036,4.036,0,0,0-5.555,0,4.075,4.075,0,0,0-1.09,2.988A4.1,4.1,0,0,0,103.283,13.647ZM117.064,9.4a2.933,2.933,0,0,1,1.187-1.085,3.62,3.62,0,0,1,1.767-.453v2.259a3.423,3.423,0,0,0-2.162.545,2.379,2.379,0,0,0-.668,1.934V17h-2.549V7.965h2.426Zm10.793-5.9h2.531V17h-2.4l-.062-1.178a2.58,2.58,0,0,1-1.147,1.024,3.861,3.861,0,0,1-1.692.365,4.394,4.394,0,0,1-1.687-.325,4.064,4.064,0,0,1-2.32-2.408,5.5,5.5,0,0,1-.343-1.978,5.137,5.137,0,0,1,.6-2.518,4.1,4.1,0,0,1,1.578-1.639,4.345,4.345,0,0,1,2.175-.554,3.957,3.957,0,0,1,1.639.33,2.559,2.559,0,0,1,1.129.936Zm-2.188,11.61a2.253,2.253,0,0,0,1.709-.721,2.638,2.638,0,0,0,.681-1.89,2.644,2.644,0,0,0-.686-1.894,2.251,2.251,0,0,0-1.705-.725,2.277,2.277,0,0,0-1.718.712,2.644,2.644,0,0,0-.681,1.907,2.631,2.631,0,0,0,.681,1.9A2.277,2.277,0,0,0,125.668,15.11Zm8.631-8.5a1.421,1.421,0,0,1-1.037-.426,1.4,1.4,0,0,1-.431-1.033,1.382,1.382,0,0,1,.435-1.024A1.425,1.425,0,0,1,134.3,3.7a1.463,1.463,0,0,1,1.45,1.45,1.463,1.463,0,0,1-1.45,1.459ZM133.007,17V7.965h2.549V17Zm10.5-9.211a3.522,3.522,0,0,1,2.5.813,3.014,3.014,0,0,1,.87,2.316V17h-2.54V11.463a1.574,1.574,0,0,0-.453-1.248,1.705,1.705,0,0,0-1.165-.4,2.379,2.379,0,0,0-.756.114,1.942,1.942,0,0,0-.633.356,1.573,1.573,0,0,0-.453.681,3.15,3.15,0,0,0-.171,1.046V17h-2.531V7.965h2.531v1A3.481,3.481,0,0,1,143.51,7.789Zm13.228,6.759a8.453,8.453,0,0,0,.22,2.206V17h-2.364l-.2-.984a2.938,2.938,0,0,1-1.266.87,4.664,4.664,0,0,1-1.635.29,4.3,4.3,0,0,1-.844-.079,2.868,2.868,0,0,1-.76-.268,2.307,2.307,0,0,1-.628-.47,2.062,2.062,0,0,1-.422-.716,2.853,2.853,0,0,1-.158-.98,2.718,2.718,0,0,1,.167-.98,2.3,2.3,0,0,1,.439-.734,2.666,2.666,0,0,1,.712-.536,5.447,5.447,0,0,1,.9-.387,10.712,10.712,0,0,1,1.072-.281l1.485-.334a1.638,1.638,0,0,0,.672-.286.57.57,0,0,0,.2-.453.932.932,0,0,0-.444-.87,2.073,2.073,0,0,0-1.077-.264,1.549,1.549,0,0,0-1.767,1.38l-2.241-.4a3.034,3.034,0,0,1,1.31-2.061,5.2,5.2,0,0,1,2.839-.664q3.8,0,3.8,3.261Zm-4.456.914a2.036,2.036,0,0,0,1.564-.655,2.759,2.759,0,0,0,.606-1.938l-2.145.606a2.534,2.534,0,0,0-.9.369.758.758,0,0,0-.312.65.842.842,0,0,0,.334.716A1.382,1.382,0,0,0,152.282,15.462ZM159.2,17V3.5h2.558V17Zm13.676-4.649-.026.606h-6.7a2.339,2.339,0,0,0,.721,1.652,2.3,2.3,0,0,0,1.591.571,2.221,2.221,0,0,0,1.191-.312,1.918,1.918,0,0,0,.76-.91l2.32.343a3.945,3.945,0,0,1-1.582,2.118,4.7,4.7,0,0,1-2.672.756,4.891,4.891,0,0,1-3.52-1.244,4.538,4.538,0,0,1-1.305-3.45,4.565,4.565,0,0,1,1.31-3.45A4.746,4.746,0,0,1,168.4,7.771a4.536,4.536,0,0,1,3.243,1.151A4.517,4.517,0,0,1,172.875,12.351Zm-4.456-2.786a2,2,0,0,0-2.2,1.74h4.148a1.9,1.9,0,0,0-.624-1.292A1.978,1.978,0,0,0,168.418,9.564Zm9.563,7.611a5.049,5.049,0,0,1-2.637-.633,2.675,2.675,0,0,1-1.292-1.881l2.118-.6a1.7,1.7,0,0,0,1.811,1.345,1.87,1.87,0,0,0,.923-.207.719.719,0,0,0,.36-.7.739.739,0,0,0-.149-.466,1.183,1.183,0,0,0-.461-.334,5.749,5.749,0,0,0-.615-.237q-.3-.1-.8-.233t-.835-.259a5.593,5.593,0,0,1-.8-.338,3.393,3.393,0,0,1-.659-.466,1.878,1.878,0,0,1-.492-.708,2.552,2.552,0,0,1-.171-.967,2.308,2.308,0,0,1,.98-2.021,4.379,4.379,0,0,1,2.562-.686,4.489,4.489,0,0,1,2.364.58A2.625,2.625,0,0,1,181.4,10.18l-1.96.439a1.535,1.535,0,0,0-1.608-1.143,1.761,1.761,0,0,0-.888.2.649.649,0,0,0-.352.6.685.685,0,0,0,.053.272.539.539,0,0,0,.185.22,2.692,2.692,0,0,0,.255.167,1.923,1.923,0,0,0,.36.145q.237.075.4.114l.461.119.47.123q.483.132.848.264a4.967,4.967,0,0,1,.778.369,2.792,2.792,0,0,1,.681.532,2.372,2.372,0,0,1,.444.747,2.759,2.759,0,0,1,.176,1.006,2.718,2.718,0,0,1-.3,1.31,2.276,2.276,0,0,1-.831.883,4.043,4.043,0,0,1-1.173.475A6.087,6.087,0,0,1,177.981,17.176Z" transform="translate(704 1551.731)" fill="#fff"/>
      <path id="Trazado_57642" data-name="Trazado 57642" d="M102.083,17V4.3h4.6a7.166,7.166,0,0,1,2.65.457,4.881,4.881,0,0,1,1.9,1.3,5.64,5.64,0,0,1,1.125,2,8.255,8.255,0,0,1,.382,2.593,8.286,8.286,0,0,1-.382,2.6,5.64,5.64,0,0,1-1.125,2,4.881,4.881,0,0,1-1.9,1.3,7.166,7.166,0,0,1-2.65.457Zm2.637-2.329h1.828a3.12,3.12,0,0,0,2.566-1.033,4.629,4.629,0,0,0,.844-2.993,4.629,4.629,0,0,0-.844-2.993,3.12,3.12,0,0,0-2.566-1.033H104.72Zm11.443-8.06a1.421,1.421,0,0,1-1.037-.426,1.4,1.4,0,0,1-.431-1.033,1.382,1.382,0,0,1,.435-1.024,1.425,1.425,0,0,1,1.033-.426,1.463,1.463,0,0,1,1.45,1.45,1.463,1.463,0,0,1-1.45,1.459ZM114.871,17V7.965h2.549V17Zm8.35.176a5.049,5.049,0,0,1-2.637-.633,2.675,2.675,0,0,1-1.292-1.881l2.118-.6a1.7,1.7,0,0,0,1.811,1.345,1.87,1.87,0,0,0,.923-.207.719.719,0,0,0,.36-.7.739.739,0,0,0-.149-.466,1.183,1.183,0,0,0-.461-.334,5.749,5.749,0,0,0-.615-.237q-.3-.1-.8-.233t-.835-.259a5.593,5.593,0,0,1-.8-.338,3.393,3.393,0,0,1-.659-.466,1.878,1.878,0,0,1-.492-.708,2.552,2.552,0,0,1-.171-.967,2.308,2.308,0,0,1,.98-2.021,4.379,4.379,0,0,1,2.562-.686,4.489,4.489,0,0,1,2.364.58,2.625,2.625,0,0,1,1.213,1.811l-1.96.439a1.535,1.535,0,0,0-1.608-1.143,1.761,1.761,0,0,0-.888.2.649.649,0,0,0-.352.6.685.685,0,0,0,.053.272.539.539,0,0,0,.185.22,2.692,2.692,0,0,0,.255.167,1.923,1.923,0,0,0,.36.145q.237.075.4.114l.461.119.47.123q.483.132.848.264a4.967,4.967,0,0,1,.778.369,2.792,2.792,0,0,1,.681.532,2.372,2.372,0,0,1,.444.747,2.759,2.759,0,0,1,.176,1.006,2.718,2.718,0,0,1-.3,1.31,2.276,2.276,0,0,1-.831.883,4.043,4.043,0,0,1-1.173.475A6.087,6.087,0,0,1,123.221,17.176Zm9.624-.009a4.827,4.827,0,0,1-3.489-1.3A4.493,4.493,0,0,1,128,12.474a4.483,4.483,0,0,1,1.349-3.393,5.364,5.364,0,0,1,6.42-.422,3.885,3.885,0,0,1,1.512,2.452l-2.338.255a2,2,0,0,0-.756-1.187,2.3,2.3,0,0,0-1.371-.4,2.072,2.072,0,0,0-1.652.738,2.894,2.894,0,0,0-.633,1.951,2.9,2.9,0,0,0,.633,1.947,2.067,2.067,0,0,0,1.652.743,2.278,2.278,0,0,0,1.367-.4,2.05,2.05,0,0,0,.76-1.187l2.338.255a3.9,3.9,0,0,1-1.525,2.452A4.8,4.8,0,0,1,132.845,17.167Zm8.666-7.77A2.933,2.933,0,0,1,142.7,8.312a3.62,3.62,0,0,1,1.767-.453v2.259a3.423,3.423,0,0,0-2.162.545,2.379,2.379,0,0,0-.668,1.934V17h-2.549V7.965h2.426ZM154.4,12.351l-.026.606h-6.7a2.339,2.339,0,0,0,.721,1.652,2.3,2.3,0,0,0,1.591.571,2.221,2.221,0,0,0,1.191-.312,1.918,1.918,0,0,0,.76-.91l2.32.343a3.945,3.945,0,0,1-1.582,2.118,4.7,4.7,0,0,1-2.672.756,4.891,4.891,0,0,1-3.52-1.244,4.538,4.538,0,0,1-1.305-3.45,4.565,4.565,0,0,1,1.31-3.45,4.746,4.746,0,0,1,3.437-1.261,4.536,4.536,0,0,1,3.243,1.151A4.517,4.517,0,0,1,154.4,12.351Zm-4.456-2.786a2,2,0,0,0-2.2,1.74h4.148a1.9,1.9,0,0,0-.624-1.292A1.978,1.978,0,0,0,149.939,9.564ZM159.687,17a2.729,2.729,0,0,1-2.039-.734,2.854,2.854,0,0,1-.721-2.087V9.907h-1.775V7.965h.571a1.491,1.491,0,0,0,1.125-.378,1.946,1.946,0,0,0,.36-1.345v-1.2h2.285V7.965h1.863V9.907h-1.863v4q0,1.169,1.046,1.169h.817V17Zm11-2.452a8.453,8.453,0,0,0,.22,2.206V17h-2.364l-.2-.984a2.938,2.938,0,0,1-1.266.87,4.664,4.664,0,0,1-1.635.29,4.3,4.3,0,0,1-.844-.079,2.868,2.868,0,0,1-.76-.268,2.307,2.307,0,0,1-.628-.47,2.062,2.062,0,0,1-.422-.716,2.853,2.853,0,0,1-.158-.98,2.718,2.718,0,0,1,.167-.98,2.3,2.3,0,0,1,.439-.734,2.666,2.666,0,0,1,.712-.536,5.447,5.447,0,0,1,.9-.387,10.712,10.712,0,0,1,1.072-.281l1.485-.334a1.638,1.638,0,0,0,.672-.286.57.57,0,0,0,.2-.453.932.932,0,0,0-.444-.87,2.073,2.073,0,0,0-1.077-.264,1.549,1.549,0,0,0-1.767,1.38l-2.241-.4a3.034,3.034,0,0,1,1.31-2.061,5.2,5.2,0,0,1,2.839-.664q3.8,0,3.8,3.261Zm-4.456.914a2.036,2.036,0,0,0,1.564-.655,2.759,2.759,0,0,0,.606-1.938l-2.145.606a2.534,2.534,0,0,0-.9.369.758.758,0,0,0-.312.65.842.842,0,0,0,.334.716A1.382,1.382,0,0,0,166.234,15.462Zm10.1,1.714a5.049,5.049,0,0,1-2.637-.633,2.675,2.675,0,0,1-1.292-1.881l2.118-.6a1.7,1.7,0,0,0,1.811,1.345,1.87,1.87,0,0,0,.923-.207.719.719,0,0,0,.36-.7.739.739,0,0,0-.149-.466,1.183,1.183,0,0,0-.461-.334,5.749,5.749,0,0,0-.615-.237q-.3-.1-.8-.233t-.835-.259a5.593,5.593,0,0,1-.8-.338,3.393,3.393,0,0,1-.659-.466,1.878,1.878,0,0,1-.492-.708,2.552,2.552,0,0,1-.171-.967,2.308,2.308,0,0,1,.98-2.021,4.379,4.379,0,0,1,2.562-.686,4.489,4.489,0,0,1,2.364.58,2.625,2.625,0,0,1,1.213,1.811l-1.96.439a1.535,1.535,0,0,0-1.608-1.143,1.761,1.761,0,0,0-.888.2.649.649,0,0,0-.352.6.685.685,0,0,0,.053.272.539.539,0,0,0,.185.22,2.692,2.692,0,0,0,.255.167,1.923,1.923,0,0,0,.36.145q.237.075.4.114l.461.119.47.123q.483.132.848.264a4.967,4.967,0,0,1,.778.369,2.792,2.792,0,0,1,.681.532,2.372,2.372,0,0,1,.444.747,2.759,2.759,0,0,1,.176,1.006,2.718,2.718,0,0,1-.3,1.31,2.276,2.276,0,0,1-.831.883,4.043,4.043,0,0,1-1.173.475A6.087,6.087,0,0,1,176.333,17.176Z" transform="translate(936 1551.731)" fill="#fff"/>
      <path id="Trazado_57643" data-name="Trazado 57643" d="M103.252,17.176a7.089,7.089,0,0,1-2.588-.466,6.087,6.087,0,0,1-2.061-1.3,5.864,5.864,0,0,1-1.354-2.065,7.2,7.2,0,0,1-.492-2.7A6.879,6.879,0,0,1,97.6,7.2a5.744,5.744,0,0,1,2.316-2.281,6.935,6.935,0,0,1,3.335-.791,6.739,6.739,0,0,1,3.727,1.028,5.629,5.629,0,0,1,2.276,2.83l-2.461.9a3.479,3.479,0,0,0-1.362-1.714,3.891,3.891,0,0,0-2.18-.615,3.73,3.73,0,0,0-2.777,1.107,4.075,4.075,0,0,0-1.09,2.988,4.081,4.081,0,0,0,1.094,2.993,3.726,3.726,0,0,0,2.773,1.112,3.876,3.876,0,0,0,2.175-.62,3.5,3.5,0,0,0,1.367-1.718l2.461.9a5.652,5.652,0,0,1-2.276,2.834A6.718,6.718,0,0,1,103.252,17.176Zm12.041,0a5.681,5.681,0,0,1-2.558-.554A4.138,4.138,0,0,1,110.982,15a4.846,4.846,0,0,1-.637-2.522,4.42,4.42,0,0,1,1.371-3.428,5.731,5.731,0,0,1,7.163,0,4.42,4.42,0,0,1,1.371,3.428,4.444,4.444,0,0,1-1.371,3.441A5.088,5.088,0,0,1,115.293,17.176Zm-.026-2.013a2.319,2.319,0,0,0,1.789-.738,2.764,2.764,0,0,0,.681-1.951,2.764,2.764,0,0,0-.681-1.951,2.319,2.319,0,0,0-1.789-.738,2.234,2.234,0,0,0-1.736.743,2.789,2.789,0,0,0-.672,1.947,2.789,2.789,0,0,0,.672,1.947A2.234,2.234,0,0,0,115.267,15.163Zm12.2-7.374a3.522,3.522,0,0,1,2.5.813,3.014,3.014,0,0,1,.87,2.316V17h-2.54V11.463a1.574,1.574,0,0,0-.453-1.248,1.705,1.705,0,0,0-1.165-.4,2.379,2.379,0,0,0-.756.114,1.942,1.942,0,0,0-.633.356,1.573,1.573,0,0,0-.453.681,3.15,3.15,0,0,0-.171,1.046V17h-2.531V7.965h2.531v1A3.481,3.481,0,0,1,127.466,7.789ZM136.65,17a2.729,2.729,0,0,1-2.039-.734,2.854,2.854,0,0,1-.721-2.087V9.907h-1.775V7.965h.571a1.491,1.491,0,0,0,1.125-.378,1.946,1.946,0,0,0,.36-1.345v-1.2h2.285V7.965h1.863V9.907h-1.863v4q0,1.169,1.046,1.169h.817V17Zm4.922-10.389a1.421,1.421,0,0,1-1.037-.426,1.4,1.4,0,0,1-.431-1.033,1.382,1.382,0,0,1,.435-1.024,1.425,1.425,0,0,1,1.033-.426,1.463,1.463,0,0,1,1.45,1.45,1.463,1.463,0,0,1-1.45,1.459ZM140.28,17V7.965h2.549V17Zm10.5-9.211a3.522,3.522,0,0,1,2.5.813,3.014,3.014,0,0,1,.87,2.316V17h-2.54V11.463a1.574,1.574,0,0,0-.453-1.248,1.705,1.705,0,0,0-1.165-.4,2.379,2.379,0,0,0-.756.114,1.942,1.942,0,0,0-.633.356,1.573,1.573,0,0,0-.453.681,3.15,3.15,0,0,0-.171,1.046V17h-2.531V7.965h2.531v1A3.481,3.481,0,0,1,150.783,7.789Zm11.8.176h2.531V17h-2.4l-.062-1.09a3.45,3.45,0,0,1-2.874,1.266,3.522,3.522,0,0,1-2.5-.813,3.014,3.014,0,0,1-.87-2.316V7.965h2.54V13.5a1.562,1.562,0,0,0,.453,1.239,1.718,1.718,0,0,0,1.173.4,2.038,2.038,0,0,0,1.437-.514,2.209,2.209,0,0,0,.567-1.674Zm12.56,6.583a8.453,8.453,0,0,0,.22,2.206V17H173l-.2-.984a2.938,2.938,0,0,1-1.266.87,4.664,4.664,0,0,1-1.635.29,4.3,4.3,0,0,1-.844-.079,2.868,2.868,0,0,1-.76-.268,2.307,2.307,0,0,1-.628-.47,2.062,2.062,0,0,1-.422-.716,2.853,2.853,0,0,1-.158-.98,2.718,2.718,0,0,1,.167-.98,2.3,2.3,0,0,1,.439-.734,2.666,2.666,0,0,1,.712-.536,5.447,5.447,0,0,1,.9-.387,10.712,10.712,0,0,1,1.072-.281l1.485-.334a1.638,1.638,0,0,0,.672-.286.57.57,0,0,0,.2-.453.932.932,0,0,0-.444-.87,2.073,2.073,0,0,0-1.077-.264,1.549,1.549,0,0,0-1.767,1.38l-2.241-.4a3.034,3.034,0,0,1,1.31-2.061,5.2,5.2,0,0,1,2.839-.664q3.8,0,3.8,3.261Zm-4.456.914a2.036,2.036,0,0,0,1.564-.655,2.759,2.759,0,0,0,.606-1.938l-2.145.606a2.534,2.534,0,0,0-.9.369.758.758,0,0,0-.312.65.842.842,0,0,0,.334.716A1.382,1.382,0,0,0,170.69,15.462Zm10.1,1.714a5.049,5.049,0,0,1-2.637-.633,2.675,2.675,0,0,1-1.292-1.881l2.118-.6a1.7,1.7,0,0,0,1.811,1.345,1.87,1.87,0,0,0,.923-.207.719.719,0,0,0,.36-.7.739.739,0,0,0-.149-.466,1.183,1.183,0,0,0-.461-.334,5.749,5.749,0,0,0-.615-.237q-.3-.1-.8-.233t-.835-.259a5.593,5.593,0,0,1-.8-.338,3.393,3.393,0,0,1-.659-.466,1.878,1.878,0,0,1-.492-.708,2.552,2.552,0,0,1-.171-.967,2.308,2.308,0,0,1,.98-2.021,4.379,4.379,0,0,1,2.562-.686,4.489,4.489,0,0,1,2.364.58,2.625,2.625,0,0,1,1.213,1.811l-1.96.439a1.535,1.535,0,0,0-1.608-1.143,1.761,1.761,0,0,0-.888.2.649.649,0,0,0-.352.6.685.685,0,0,0,.053.272.539.539,0,0,0,.185.22,2.692,2.692,0,0,0,.255.167,1.923,1.923,0,0,0,.36.145q.237.075.4.114l.461.119.47.123q.483.132.848.264a4.967,4.967,0,0,1,.778.369,2.792,2.792,0,0,1,.681.532,2.372,2.372,0,0,1,.444.747,2.759,2.759,0,0,1,.176,1.006,2.718,2.718,0,0,1-.3,1.31,2.276,2.276,0,0,1-.831.883,4.043,4.043,0,0,1-1.173.475A6.087,6.087,0,0,1,180.789,17.176Z" transform="translate(1176 1551.731)" fill="#fff"/>
      <path id="asientos-para-perros" d="M118.23,35.5l-1.069-6.444a1.726,1.726,0,0,0-2.1-1.4l-3.161.755h0l-5.443,1.3a14.788,14.788,0,0,0-4.508-5.283,11.9,11.9,0,0,0-1.422-.864,13.371,13.371,0,0,0,7.583-3.412,14.3,14.3,0,0,0,4.445-8.881,1.726,1.726,0,0,0-1.651-1.93l-8.288-.3a6.518,6.518,0,0,0-5.59-3.189q-.32,0-.637.031L94.362,1.518a1.725,1.725,0,0,0-3.162.07L90.063,4.359,87.434.716a1.726,1.726,0,0,0-3.125,1.01V70.732c-6.589-.28-9.425-3.1-9.425-9.258a1.726,1.726,0,0,0-3.451,0c0,8.45,4.714,12.735,14.012,12.735l23.549.005a1.726,1.726,0,0,0,1.726-1.726c0-4.851-4.04-6.945-7.406-7.635,3.166-8.056,4.986-15.2,5.415-21.249a33.323,33.323,0,0,0-.236-7.4l3.974-1.711,1.215,2.58a1.725,1.725,0,0,0,2.251.846l1.286-.561A1.726,1.726,0,0,0,118.23,35.5Z" transform="translate(664.67 1409.452)" fill="#283593"/>
      <g id="hombre-y-mujer" transform="translate(534 1410.036)">
        <g id="Grupo_28130" data-name="Grupo 28130" transform="translate(4.597)">
          <g id="Grupo_28129" data-name="Grupo 28129">
            <ellipse id="Elipse_1287" data-name="Elipse 1287" cx="9.199" cy="9.199" rx="9.199" ry="9.199" fill="#283593"/>
          </g>
        </g>
        <g id="Grupo_28132" data-name="Grupo 28132" transform="translate(0 22.998)">
          <g id="Grupo_28131" data-name="Grupo 28131">
            <path id="Trazado_56414" data-name="Trazado 56414" d="M75.595,185.068l-2.1-20.923A4.583,4.583,0,0,0,68.921,160H66.4a2.316,2.316,0,0,0-1.628.672l-2.971,2.971-2.971-2.971A2.316,2.316,0,0,0,57.206,160H54.69a4.583,4.583,0,0,0-4.577,4.14L48.02,185.068a2.3,2.3,0,0,0,2.286,2.53h2.516l1.886,18.858a4.591,4.591,0,0,0,4.581,4.14h5.037a4.587,4.587,0,0,0,4.577-4.14L70.788,187.6H73.3a2.3,2.3,0,0,0,2.291-2.53Z" transform="translate(-48.009 -160)" fill="#283593"/>
          </g>
        </g>
        <g id="Grupo_28134" data-name="Grupo 28134" transform="translate(36.794)">
          <g id="Grupo_28133" data-name="Grupo 28133">
            <ellipse id="Elipse_1288" data-name="Elipse 1288" cx="9.199" cy="9.199" rx="9.199" ry="9.199" fill="#283593"/>
          </g>
        </g>
        <g id="Grupo_28136" data-name="Grupo 28136" transform="translate(32.195 22.998)">
          <g id="Grupo_28135" data-name="Grupo 28135">
            <path id="Trazado_56415" data-name="Trazado 56415" d="M295.879,183h1.412a2.3,2.3,0,0,0,2.281-2.59L297.507,164.1a4.632,4.632,0,0,0-4.586-4.1H278.663a4.616,4.616,0,0,0-4.581,4.08l-2.07,16.328a2.3,2.3,0,0,0,2.281,2.59H275.7l-3.588,10.772a2.3,2.3,0,0,0,2.18,3.027h2.649l1.66,9.953a4.591,4.591,0,0,0,4.54,3.845h5.3a4.583,4.583,0,0,0,4.535-3.845l1.665-9.953h2.649a2.3,2.3,0,0,0,2.18-3.027Z" transform="translate(-271.993 -160)" fill="#283593"/>
          </g>
        </g>
      </g>
      <g id="emociones" transform="translate(626.374 1406)">
        <path id="Trazado_56468" data-name="Trazado 56468" d="M425.3,39.424l4.547-4.548a2.274,2.274,0,0,0-3.215-3.215l-4.548,4.547a2.274,2.274,0,1,0,3.216,3.216Zm0,0" transform="translate(-357.601 -26.296)" fill="#283593"/>
        <path id="Trazado_56469" data-name="Trazado 56469" d="M393.7,125.525h9.1a2.274,2.274,0,0,0,0-4.548h-9.1a2.274,2.274,0,1,0,0,4.548Zm0,0" transform="translate(-332.154 -102.635)" fill="#283593"/>
        <path id="Trazado_56470" data-name="Trazado 56470" d="M363.708,13.643a2.274,2.274,0,0,0,2.274-2.274v-9.1a2.274,2.274,0,1,0-4.547,0v9.1A2.274,2.274,0,0,0,363.708,13.643Zm0,0" transform="translate(-306.71 0)" fill="#283593"/>
        <path id="Trazado_56471" data-name="Trazado 56471" d="M274.014,300.3l-25.641,9.332a2.274,2.274,0,0,0-1.359,2.914,15.917,15.917,0,1,0,29.914-10.888,2.273,2.273,0,0,0-2.914-1.359Zm-8.154,17.486a11.386,11.386,0,0,1-13.581-4.736l20.94-7.621a11.386,11.386,0,0,1-7.359,12.357Zm0,0" transform="translate(-209.522 -254.648)" fill="#283593"/>
        <path id="Trazado_56472" data-name="Trazado 56472" d="M257.6,290.788l4.274-1.556a2.274,2.274,0,1,0-1.556-4.273l-4.273,1.555a2.274,2.274,0,1,0,1.555,4.274Zm0,0" transform="translate(-216.027 -241.637)" fill="#283593"/>
        <path id="Trazado_56473" data-name="Trazado 56473" d="M341.374,260.15c.532,0,.407,0,5.051-1.693a2.274,2.274,0,0,0-1.555-4.274l-4.274,1.556a2.274,2.274,0,0,0,.778,4.411Zm0,0" transform="translate(-287.761 -215.527)" fill="#283593"/>
        <path id="Trazado_56474" data-name="Trazado 56474" d="M76.6,43.895A25.162,25.162,0,0,0,50.561,27.543c.075-.789.114-1.584.114-2.379A25.088,25.088,0,1,0,25.663,50.176c.8,0,1.595-.04,2.387-.115A25.1,25.1,0,1,0,76.6,43.895ZM25.663,45.628a20.456,20.456,0,1,1,20.2-17.165,24.831,24.831,0,0,0-15.583,13.5,25.607,25.607,0,0,0-1.29,3.4,20.637,20.637,0,0,1-3.325.271ZM60.1,71.832A20.562,20.562,0,1,1,72.331,45.45,20.584,20.584,0,0,1,60.1,71.832Zm0,0" transform="translate(-0.499 0)" fill="#283593"/>
        <path id="Trazado_56475" data-name="Trazado 56475" d="M93.758,95.532H98.3a2.274,2.274,0,1,0,0-4.547H93.758a2.274,2.274,0,1,0,0,4.547Zm0,0" transform="translate(-77.689 -77.19)" fill="#283593"/>
        <path id="Trazado_56476" data-name="Trazado 56476" d="M183.739,95.532h4.547a2.274,2.274,0,1,0,0-4.547h-4.547a2.274,2.274,0,1,0,0,4.547Zm0,0" transform="translate(-154.027 -77.19)" fill="#283593"/>
        <path id="Trazado_56477" data-name="Trazado 56477" d="M114.222,153.247a2.274,2.274,0,1,0-4.547,0,6.822,6.822,0,0,1-13.643,0,2.274,2.274,0,1,0-4.547,0,11.369,11.369,0,0,0,22.738,0Zm0,0" transform="translate(-77.689 -128.083)" fill="#283593"/>
      </g>
      <g id="libro-abierto" transform="translate(810 1408.7)">
        <path id="Trazado_56478" data-name="Trazado 56478" d="M97.35,7.1H92.4V2.15A1.65,1.65,0,0,0,90.75.5H56.1a8.22,8.22,0,0,0-6.6,3.351A8.22,8.22,0,0,0,42.9.5H8.25A1.65,1.65,0,0,0,6.6,2.15V7.1H1.65A1.65,1.65,0,0,0,0,8.75v66A1.65,1.65,0,0,0,1.65,76.4H66v8.25a1.65,1.65,0,0,0,2.817,1.167L72.6,82.033l3.783,3.783a1.65,1.65,0,0,0,1.167.483,1.619,1.619,0,0,0,.632-.126A1.65,1.65,0,0,0,79.2,84.65V76.4H97.35A1.65,1.65,0,0,0,99,74.75v-66A1.65,1.65,0,0,0,97.35,7.1ZM56.1,3.8h33V59.9h-33a8.168,8.168,0,0,0-4.95,1.693V8.75A4.95,4.95,0,0,1,56.1,3.8ZM9.9,3.8h33a4.95,4.95,0,0,1,4.95,4.95V61.593A8.168,8.168,0,0,0,42.9,59.9H9.9ZM3.3,10.4H6.6V73.1H3.3ZM9.9,63.2h33a4.951,4.951,0,0,1,4.646,3.3H16.5v3.3H47.85v3.3H9.9Zm41.25,9.9V69.8H66v3.3ZM75.9,80.667l-2.133-2.133a1.651,1.651,0,0,0-2.333,0L69.3,80.667V69.8h6.6ZM79.2,69.8h3.3V66.5H51.454A4.951,4.951,0,0,1,56.1,63.2h33v9.9H79.2Zm16.5,3.3H92.4V10.4h3.3Zm0,0" fill="#283593"/>
        <path id="Trazado_56479" data-name="Trazado 56479" d="M80,72.5h23.1v3.3H80Zm0,0" transform="translate(-63.5 -57.15)" fill="#283593"/>
        <path id="Trazado_56480" data-name="Trazado 56480" d="M80,120.5h23.1v3.3H80Zm0,0" transform="translate(-63.5 -95.25)" fill="#283593"/>
        <path id="Trazado_56481" data-name="Trazado 56481" d="M80,168.5h23.1v3.3H80Zm0,0" transform="translate(-63.5 -133.35)" fill="#283593"/>
        <path id="Trazado_56482" data-name="Trazado 56482" d="M80,216.5h23.1v3.3H80Zm0,0" transform="translate(-63.5 -171.45)" fill="#283593"/>
        <path id="Trazado_56483" data-name="Trazado 56483" d="M288,72.5h23.1v3.3H288Zm0,0" transform="translate(-228.6 -57.15)" fill="#283593"/>
        <path id="Trazado_56484" data-name="Trazado 56484" d="M288,120.5h23.1v3.3H288Zm0,0" transform="translate(-228.6 -95.25)" fill="#283593"/>
        <path id="Trazado_56485" data-name="Trazado 56485" d="M288,168.5h23.1v3.3H288Zm0,0" transform="translate(-228.6 -133.35)" fill="#283593"/>
        <path id="Trazado_56486" data-name="Trazado 56486" d="M288,216.5h23.1v3.3H288Zm0,0" transform="translate(-228.6 -171.45)" fill="#283593"/>
      </g>
      <g id="hombre-y-mujer-2" data-name="hombre-y-mujer" transform="translate(534 1618.036)">
        <g id="Grupo_28130-2" data-name="Grupo 28130" transform="translate(4.597)">
          <g id="Grupo_28129-2" data-name="Grupo 28129">
            <ellipse id="Elipse_1287-2" data-name="Elipse 1287" cx="9.199" cy="9.199" rx="9.199" ry="9.199" fill="#283593"/>
          </g>
        </g>
        <g id="Grupo_28132-2" data-name="Grupo 28132" transform="translate(0 22.998)">
          <g id="Grupo_28131-2" data-name="Grupo 28131">
            <path id="Trazado_56414-2" data-name="Trazado 56414" d="M75.595,185.068l-2.1-20.923A4.583,4.583,0,0,0,68.921,160H66.4a2.316,2.316,0,0,0-1.628.672l-2.971,2.971-2.971-2.971A2.316,2.316,0,0,0,57.206,160H54.69a4.583,4.583,0,0,0-4.577,4.14L48.02,185.068a2.3,2.3,0,0,0,2.286,2.53h2.516l1.886,18.858a4.591,4.591,0,0,0,4.581,4.14h5.037a4.587,4.587,0,0,0,4.577-4.14L70.788,187.6H73.3a2.3,2.3,0,0,0,2.291-2.53Z" transform="translate(-48.009 -160)" fill="#283593"/>
          </g>
        </g>
        <g id="Grupo_28134-2" data-name="Grupo 28134" transform="translate(36.794)">
          <g id="Grupo_28133-2" data-name="Grupo 28133">
            <ellipse id="Elipse_1288-2" data-name="Elipse 1288" cx="9.199" cy="9.199" rx="9.199" ry="9.199" fill="#283593"/>
          </g>
        </g>
        <g id="Grupo_28136-2" data-name="Grupo 28136" transform="translate(32.195 22.998)">
          <g id="Grupo_28135-2" data-name="Grupo 28135">
            <path id="Trazado_56415-2" data-name="Trazado 56415" d="M295.879,183h1.412a2.3,2.3,0,0,0,2.281-2.59L297.507,164.1a4.632,4.632,0,0,0-4.586-4.1H278.663a4.616,4.616,0,0,0-4.581,4.08l-2.07,16.328a2.3,2.3,0,0,0,2.281,2.59H275.7l-3.588,10.772a2.3,2.3,0,0,0,2.18,3.027h2.649l1.66,9.953a4.591,4.591,0,0,0,4.54,3.845h5.3a4.583,4.583,0,0,0,4.535-3.845l1.665-9.953h2.649a2.3,2.3,0,0,0,2.18-3.027Z" transform="translate(-271.993 -160)" fill="#283593"/>
          </g>
        </g>
      </g>
      <path id="asientos-para-perros-2" data-name="asientos-para-perros" d="M118.23,35.5l-1.069-6.444a1.726,1.726,0,0,0-2.1-1.4l-3.161.755h0l-5.443,1.3a14.788,14.788,0,0,0-4.508-5.283,11.9,11.9,0,0,0-1.422-.864,13.371,13.371,0,0,0,7.583-3.412,14.3,14.3,0,0,0,4.445-8.881,1.726,1.726,0,0,0-1.651-1.93l-8.288-.3a6.518,6.518,0,0,0-5.59-3.189q-.32,0-.637.031L94.362,1.518a1.725,1.725,0,0,0-3.162.07L90.063,4.359,87.434.716a1.726,1.726,0,0,0-3.125,1.01V70.732c-6.589-.28-9.425-3.1-9.425-9.258a1.726,1.726,0,0,0-3.451,0c0,8.45,4.714,12.735,14.012,12.735l23.549.005a1.726,1.726,0,0,0,1.726-1.726c0-4.851-4.04-6.945-7.406-7.635,3.166-8.056,4.986-15.2,5.415-21.249a33.323,33.323,0,0,0-.236-7.4l3.974-1.711,1.215,2.58a1.725,1.725,0,0,0,2.251.846l1.286-.561A1.726,1.726,0,0,0,118.23,35.5Z" transform="translate(553.747 1614.452)" fill="#283593"/>
      <g id="emociones-2" data-name="emociones" transform="translate(753.333 1624.002)">
        <path id="Trazado_56468-2" data-name="Trazado 56468" d="M424.254,37.149l3.32-3.32a1.66,1.66,0,1,0-2.347-2.347l-3.32,3.32a1.66,1.66,0,1,0,2.348,2.348Zm0,0" transform="translate(-374.831 -27.564)" fill="#283593"/>
        <path id="Trazado_56469-2" data-name="Trazado 56469" d="M393.086,124.3h6.64a1.66,1.66,0,0,0,0-3.32h-6.64a1.66,1.66,0,1,0,0,3.32Zm0,0" transform="translate(-348.157 -107.587)" fill="#283593"/>
        <path id="Trazado_56470-2" data-name="Trazado 56470" d="M363.094,9.96a1.66,1.66,0,0,0,1.66-1.66V1.66a1.66,1.66,0,1,0-3.32,0V8.3A1.66,1.66,0,0,0,363.094,9.96Zm0,0" transform="translate(-321.484 0)" fill="#283593"/>
        <path id="Trazado_56471-2" data-name="Trazado 56471" d="M266.688,300.258l-18.718,6.813a1.66,1.66,0,0,0-.992,2.128,11.62,11.62,0,1,0,21.838-7.949,1.66,1.66,0,0,0-2.127-.992Zm-5.953,12.765a8.312,8.312,0,0,1-9.914-3.458L266.107,304a8.312,8.312,0,0,1-5.372,9.021Zm0,0" transform="translate(-219.607 -266.935)" fill="#283593"/>
        <path id="Trazado_56472-2" data-name="Trazado 56472" d="M256.773,289.177l3.12-1.136a1.66,1.66,0,0,0-1.136-3.119l-3.119,1.135a1.66,1.66,0,0,0,1.135,3.12Zm0,0" transform="translate(-226.426 -253.296)" fill="#283593"/>
        <path id="Trazado_56473-2" data-name="Trazado 56473" d="M340.76,258.5c.388,0,.3,0,3.687-1.236a1.66,1.66,0,0,0-1.135-3.12l-3.12,1.136a1.66,1.66,0,0,0,.568,3.22Zm0,0" transform="translate(-301.622 -225.926)" fill="#283593"/>
        <path id="Trazado_56474-2" data-name="Trazado 56474" d="M56.057,32.044A18.369,18.369,0,0,0,37.045,20.106c.054-.576.083-1.156.083-1.737A18.315,18.315,0,1,0,18.869,36.629c.583,0,1.164-.029,1.743-.084a18.326,18.326,0,1,0,35.445-4.5ZM18.869,33.309A14.933,14.933,0,1,1,33.614,20.779a18.127,18.127,0,0,0-11.376,9.853,18.694,18.694,0,0,0-.942,2.48,15.065,15.065,0,0,1-2.427.2ZM44.009,52.438a15.01,15.01,0,1,1,8.929-19.259,15.027,15.027,0,0,1-8.929,19.259Zm0,0" transform="translate(-0.499 0)" fill="#283593"/>
        <path id="Trazado_56475-2" data-name="Trazado 56475" d="M93.144,94.3h3.32a1.66,1.66,0,1,0,0-3.32h-3.32a1.66,1.66,0,1,0,0,3.32Zm0,0" transform="translate(-81.413 -80.914)" fill="#283593"/>
        <path id="Trazado_56476-2" data-name="Trazado 56476" d="M183.125,94.3h3.32a1.66,1.66,0,1,0,0-3.32h-3.32a1.66,1.66,0,1,0,0,3.32Zm0,0" transform="translate(-161.435 -80.914)" fill="#283593"/>
        <path id="Trazado_56477-2" data-name="Trazado 56477" d="M108.083,152.633a1.66,1.66,0,1,0-3.32,0,4.98,4.98,0,0,1-9.96,0,1.66,1.66,0,1,0-3.32,0,8.3,8.3,0,0,0,16.6,0Zm0,0" transform="translate(-81.414 -134.263)" fill="#283593"/>
      </g>
      <g id="libro-abierto-2" data-name="libro-abierto" transform="translate(830 1616.7)">
        <path id="Trazado_56478-2" data-name="Trazado 56478" d="M97.35,7.1H92.4V2.15A1.65,1.65,0,0,0,90.75.5H56.1a8.22,8.22,0,0,0-6.6,3.351A8.22,8.22,0,0,0,42.9.5H8.25A1.65,1.65,0,0,0,6.6,2.15V7.1H1.65A1.65,1.65,0,0,0,0,8.75v66A1.65,1.65,0,0,0,1.65,76.4H66v8.25a1.65,1.65,0,0,0,2.817,1.167L72.6,82.033l3.783,3.783a1.65,1.65,0,0,0,1.167.483,1.619,1.619,0,0,0,.632-.126A1.65,1.65,0,0,0,79.2,84.65V76.4H97.35A1.65,1.65,0,0,0,99,74.75v-66A1.65,1.65,0,0,0,97.35,7.1ZM56.1,3.8h33V59.9h-33a8.168,8.168,0,0,0-4.95,1.693V8.75A4.95,4.95,0,0,1,56.1,3.8ZM9.9,3.8h33a4.95,4.95,0,0,1,4.95,4.95V61.593A8.168,8.168,0,0,0,42.9,59.9H9.9ZM3.3,10.4H6.6V73.1H3.3ZM9.9,63.2h33a4.951,4.951,0,0,1,4.646,3.3H16.5v3.3H47.85v3.3H9.9Zm41.25,9.9V69.8H66v3.3ZM75.9,80.667l-2.133-2.133a1.651,1.651,0,0,0-2.333,0L69.3,80.667V69.8h6.6ZM79.2,69.8h3.3V66.5H51.454A4.951,4.951,0,0,1,56.1,63.2h33v9.9H79.2Zm16.5,3.3H92.4V10.4h3.3Zm0,0" fill="#283593"/>
        <path id="Trazado_56479-2" data-name="Trazado 56479" d="M80,72.5h23.1v3.3H80Zm0,0" transform="translate(-63.5 -57.15)" fill="#283593"/>
        <path id="Trazado_56480-2" data-name="Trazado 56480" d="M80,120.5h23.1v3.3H80Zm0,0" transform="translate(-63.5 -95.25)" fill="#283593"/>
        <path id="Trazado_56481-2" data-name="Trazado 56481" d="M80,168.5h23.1v3.3H80Zm0,0" transform="translate(-63.5 -133.35)" fill="#283593"/>
        <path id="Trazado_56482-2" data-name="Trazado 56482" d="M80,216.5h23.1v3.3H80Zm0,0" transform="translate(-63.5 -171.45)" fill="#283593"/>
        <path id="Trazado_56483-2" data-name="Trazado 56483" d="M288,72.5h23.1v3.3H288Zm0,0" transform="translate(-228.6 -57.15)" fill="#283593"/>
        <path id="Trazado_56484-2" data-name="Trazado 56484" d="M288,120.5h23.1v3.3H288Zm0,0" transform="translate(-228.6 -95.25)" fill="#283593"/>
        <path id="Trazado_56485-2" data-name="Trazado 56485" d="M288,168.5h23.1v3.3H288Zm0,0" transform="translate(-228.6 -133.35)" fill="#283593"/>
        <path id="Trazado_56486-2" data-name="Trazado 56486" d="M288,216.5h23.1v3.3H288Zm0,0" transform="translate(-228.6 -171.45)" fill="#283593"/>
      </g>
      <g id="gobernante" transform="translate(1067.451 1404.453)">
        <g id="Grupo_28149" data-name="Grupo 28149" transform="translate(-0.001 -0.001)">
          <g id="Grupo_28148" data-name="Grupo 28148" transform="translate(0 0)">
            <path id="Trazado_56487" data-name="Trazado 56487" d="M87.122,17.938,69.611.427a1.458,1.458,0,0,0-2.063,0L.427,67.547a1.458,1.458,0,0,0,0,2.063L17.938,87.122a1.458,1.458,0,0,0,2.063,0L87.121,20a1.459,1.459,0,0,0,0-2.063ZM18.97,84.027,3.522,68.579,68.579,3.522,84.026,18.97Z" transform="translate(0.001 0.001)" fill="#283593"/>
          </g>
        </g>
        <g id="Grupo_28151" data-name="Grupo 28151" transform="translate(65.667 13.131)">
          <g id="Grupo_28150" data-name="Grupo 28150">
            <path id="Trazado_56488" data-name="Trazado 56488" d="M388.408,76.8a4.378,4.378,0,1,0,4.378,4.378A4.383,4.383,0,0,0,388.408,76.8Zm0,5.837a1.459,1.459,0,1,1,1.459-1.459A1.461,1.461,0,0,1,388.408,82.634Z" transform="translate(-384.03 -76.797)" fill="#283593"/>
          </g>
        </g>
        <g id="Grupo_28153" data-name="Grupo 28153" transform="translate(54.419 13.56)">
          <g id="Grupo_28152" data-name="Grupo 28152" transform="translate(0 0)">
            <rect id="Rect치ngulo_5540" data-name="Rect치ngulo 5540" width="2.918" height="6.191" transform="translate(0 2.064) rotate(-45)" fill="#283593"/>
          </g>
        </g>
        <g id="Grupo_28155" data-name="Grupo 28155" transform="translate(50.041 17.938)">
          <g id="Grupo_28154" data-name="Grupo 28154" transform="translate(0 0)">
            <rect id="Rect치ngulo_5541" data-name="Rect치ngulo 5541" width="2.918" height="8.255" transform="translate(0 2.064) rotate(-45)" fill="#283593"/>
          </g>
        </g>
        <g id="Grupo_28157" data-name="Grupo 28157" transform="translate(45.664 22.314)">
          <g id="Grupo_28156" data-name="Grupo 28156" transform="translate(0 0)">
            <rect id="Rect치ngulo_5542" data-name="Rect치ngulo 5542" width="2.918" height="6.191" transform="translate(0 2.064) rotate(-45)" fill="#283593"/>
          </g>
        </g>
        <g id="Grupo_28159" data-name="Grupo 28159" transform="translate(41.285 26.69)">
          <g id="Grupo_28158" data-name="Grupo 28158" transform="translate(0 0)">
            <rect id="Rect치ngulo_5543" data-name="Rect치ngulo 5543" width="2.918" height="8.255" transform="translate(0 2.064) rotate(-45)" fill="#283593"/>
          </g>
        </g>
        <g id="Grupo_28161" data-name="Grupo 28161" transform="translate(36.908 31.068)">
          <g id="Grupo_28160" data-name="Grupo 28160" transform="translate(0 0)">
            <rect id="Rect치ngulo_5544" data-name="Rect치ngulo 5544" width="2.918" height="6.191" transform="translate(0 2.064) rotate(-45)" fill="#283593"/>
          </g>
        </g>
        <g id="Grupo_28163" data-name="Grupo 28163" transform="translate(32.53 35.444)">
          <g id="Grupo_28162" data-name="Grupo 28162" transform="translate(0 0)">
            <rect id="Rect치ngulo_5545" data-name="Rect치ngulo 5545" width="2.918" height="8.255" transform="translate(0 2.064) rotate(-45)" fill="#283593"/>
          </g>
        </g>
        <g id="Grupo_28165" data-name="Grupo 28165" transform="translate(28.152 39.82)">
          <g id="Grupo_28164" data-name="Grupo 28164" transform="translate(0 0)">
            <rect id="Rect치ngulo_5546" data-name="Rect치ngulo 5546" width="2.918" height="6.19" transform="matrix(0.707, -0.707, 0.707, 0.707, 0, 2.064)" fill="#283593"/>
          </g>
        </g>
        <g id="Grupo_28167" data-name="Grupo 28167" transform="translate(23.775 44.202)">
          <g id="Grupo_28166" data-name="Grupo 28166" transform="translate(0 0)">
            <rect id="Rect치ngulo_5547" data-name="Rect치ngulo 5547" width="2.918" height="8.255" transform="translate(0 2.064) rotate(-45)" fill="#283593"/>
          </g>
        </g>
        <g id="Grupo_28169" data-name="Grupo 28169" transform="translate(19.398 48.579)">
          <g id="Grupo_28168" data-name="Grupo 28168" transform="translate(0 0)">
            <rect id="Rect치ngulo_5548" data-name="Rect치ngulo 5548" width="2.918" height="6.191" transform="translate(0 2.064) rotate(-45)" fill="#283593"/>
          </g>
        </g>
        <g id="Grupo_28171" data-name="Grupo 28171" transform="translate(15.019 52.957)">
          <g id="Grupo_28170" data-name="Grupo 28170" transform="translate(0 0)">
            <rect id="Rect치ngulo_5549" data-name="Rect치ngulo 5549" width="2.918" height="8.255" transform="translate(0 2.064) rotate(-45)" fill="#283593"/>
          </g>
        </g>
        <g id="Grupo_28173" data-name="Grupo 28173" transform="translate(10.645 57.336)">
          <g id="Grupo_28172" data-name="Grupo 28172" transform="translate(0 0)">
            <rect id="Rect치ngulo_5550" data-name="Rect치ngulo 5550" width="2.918" height="6.191" transform="translate(0 2.064) rotate(-45)" fill="#283593"/>
          </g>
        </g>
        <g id="Grupo_28175" data-name="Grupo 28175" transform="translate(6.264 61.713)">
          <g id="Grupo_28174" data-name="Grupo 28174" transform="translate(0 0)">
            <rect id="Rect치ngulo_5551" data-name="Rect치ngulo 5551" width="2.918" height="8.255" transform="translate(0 2.064) rotate(-45)" fill="#283593"/>
          </g>
        </g>
      </g>
      <g id="gobernante-2" data-name="gobernante" transform="translate(1274.451 1607.453)">
        <g id="Grupo_28149-2" data-name="Grupo 28149" transform="translate(-0.001 -0.001)">
          <g id="Grupo_28148-2" data-name="Grupo 28148" transform="translate(0 0)">
            <path id="Trazado_56487-2" data-name="Trazado 56487" d="M87.122,17.938,69.611.427a1.458,1.458,0,0,0-2.063,0L.427,67.547a1.458,1.458,0,0,0,0,2.063L17.938,87.122a1.458,1.458,0,0,0,2.063,0L87.121,20a1.459,1.459,0,0,0,0-2.063ZM18.97,84.027,3.522,68.579,68.579,3.522,84.026,18.97Z" transform="translate(0.001 0.001)" fill="#283593"/>
          </g>
        </g>
        <g id="Grupo_28151-2" data-name="Grupo 28151" transform="translate(65.667 13.131)">
          <g id="Grupo_28150-2" data-name="Grupo 28150">
            <path id="Trazado_56488-2" data-name="Trazado 56488" d="M388.408,76.8a4.378,4.378,0,1,0,4.378,4.378A4.383,4.383,0,0,0,388.408,76.8Zm0,5.837a1.459,1.459,0,1,1,1.459-1.459A1.461,1.461,0,0,1,388.408,82.634Z" transform="translate(-384.03 -76.797)" fill="#283593"/>
          </g>
        </g>
        <g id="Grupo_28153-2" data-name="Grupo 28153" transform="translate(54.419 13.56)">
          <g id="Grupo_28152-2" data-name="Grupo 28152" transform="translate(0 0)">
            <rect id="Rect치ngulo_5540-2" data-name="Rect치ngulo 5540" width="2.918" height="6.191" transform="translate(0 2.064) rotate(-45)" fill="#283593"/>
          </g>
        </g>
        <g id="Grupo_28155-2" data-name="Grupo 28155" transform="translate(50.041 17.938)">
          <g id="Grupo_28154-2" data-name="Grupo 28154" transform="translate(0 0)">
            <rect id="Rect치ngulo_5541-2" data-name="Rect치ngulo 5541" width="2.918" height="8.255" transform="translate(0 2.064) rotate(-45)" fill="#283593"/>
          </g>
        </g>
        <g id="Grupo_28157-2" data-name="Grupo 28157" transform="translate(45.664 22.314)">
          <g id="Grupo_28156-2" data-name="Grupo 28156" transform="translate(0 0)">
            <rect id="Rect치ngulo_5542-2" data-name="Rect치ngulo 5542" width="2.918" height="6.191" transform="translate(0 2.064) rotate(-45)" fill="#283593"/>
          </g>
        </g>
        <g id="Grupo_28159-2" data-name="Grupo 28159" transform="translate(41.285 26.69)">
          <g id="Grupo_28158-2" data-name="Grupo 28158" transform="translate(0 0)">
            <rect id="Rect치ngulo_5543-2" data-name="Rect치ngulo 5543" width="2.918" height="8.255" transform="translate(0 2.064) rotate(-45)" fill="#283593"/>
          </g>
        </g>
        <g id="Grupo_28161-2" data-name="Grupo 28161" transform="translate(36.908 31.068)">
          <g id="Grupo_28160-2" data-name="Grupo 28160" transform="translate(0 0)">
            <rect id="Rect치ngulo_5544-2" data-name="Rect치ngulo 5544" width="2.918" height="6.191" transform="translate(0 2.064) rotate(-45)" fill="#283593"/>
          </g>
        </g>
        <g id="Grupo_28163-2" data-name="Grupo 28163" transform="translate(32.53 35.444)">
          <g id="Grupo_28162-2" data-name="Grupo 28162" transform="translate(0 0)">
            <rect id="Rect치ngulo_5545-2" data-name="Rect치ngulo 5545" width="2.918" height="8.255" transform="translate(0 2.064) rotate(-45)" fill="#283593"/>
          </g>
        </g>
        <g id="Grupo_28165-2" data-name="Grupo 28165" transform="translate(28.152 39.82)">
          <g id="Grupo_28164-2" data-name="Grupo 28164" transform="translate(0 0)">
            <rect id="Rect치ngulo_5546-2" data-name="Rect치ngulo 5546" width="2.918" height="6.19" transform="matrix(0.707, -0.707, 0.707, 0.707, 0, 2.064)" fill="#283593"/>
          </g>
        </g>
        <g id="Grupo_28167-2" data-name="Grupo 28167" transform="translate(23.775 44.202)">
          <g id="Grupo_28166-2" data-name="Grupo 28166" transform="translate(0 0)">
            <rect id="Rect치ngulo_5547-2" data-name="Rect치ngulo 5547" width="2.918" height="8.255" transform="translate(0 2.064) rotate(-45)" fill="#283593"/>
          </g>
        </g>
        <g id="Grupo_28169-2" data-name="Grupo 28169" transform="translate(19.398 48.579)">
          <g id="Grupo_28168-2" data-name="Grupo 28168" transform="translate(0 0)">
            <rect id="Rect치ngulo_5548-2" data-name="Rect치ngulo 5548" width="2.918" height="6.191" transform="translate(0 2.064) rotate(-45)" fill="#283593"/>
          </g>
        </g>
        <g id="Grupo_28171-2" data-name="Grupo 28171" transform="translate(15.019 52.957)">
          <g id="Grupo_28170-2" data-name="Grupo 28170" transform="translate(0 0)">
            <rect id="Rect치ngulo_5549-2" data-name="Rect치ngulo 5549" width="2.918" height="8.255" transform="translate(0 2.064) rotate(-45)" fill="#283593"/>
          </g>
        </g>
        <g id="Grupo_28173-2" data-name="Grupo 28173" transform="translate(10.645 57.336)">
          <g id="Grupo_28172-2" data-name="Grupo 28172" transform="translate(0 0)">
            <rect id="Rect치ngulo_5550-2" data-name="Rect치ngulo 5550" width="2.918" height="6.191" transform="translate(0 2.064) rotate(-45)" fill="#283593"/>
          </g>
        </g>
        <g id="Grupo_28175-2" data-name="Grupo 28175" transform="translate(6.264 61.713)">
          <g id="Grupo_28174-2" data-name="Grupo 28174" transform="translate(0 0)">
            <rect id="Rect치ngulo_5551-2" data-name="Rect치ngulo 5551" width="2.918" height="8.255" transform="translate(0 2.064) rotate(-45)" fill="#283593"/>
          </g>
        </g>
      </g>
      <g id="hombre-y-mujer-3" data-name="hombre-y-mujer" transform="translate(1048.708 1618.036)">
        <g id="Grupo_28130-3" data-name="Grupo 28130" transform="translate(4.597)">
          <g id="Grupo_28129-3" data-name="Grupo 28129">
            <ellipse id="Elipse_1287-3" data-name="Elipse 1287" cx="9.199" cy="9.199" rx="9.199" ry="9.199" fill="#283593"/>
          </g>
        </g>
        <g id="Grupo_28132-3" data-name="Grupo 28132" transform="translate(0 22.998)">
          <g id="Grupo_28131-3" data-name="Grupo 28131">
            <path id="Trazado_56414-3" data-name="Trazado 56414" d="M75.595,185.068l-2.1-20.923A4.583,4.583,0,0,0,68.921,160H66.4a2.316,2.316,0,0,0-1.628.672l-2.971,2.971-2.971-2.971A2.316,2.316,0,0,0,57.206,160H54.69a4.583,4.583,0,0,0-4.577,4.14L48.02,185.068a2.3,2.3,0,0,0,2.286,2.53h2.516l1.886,18.858a4.591,4.591,0,0,0,4.581,4.14h5.037a4.587,4.587,0,0,0,4.577-4.14L70.788,187.6H73.3a2.3,2.3,0,0,0,2.291-2.53Z" transform="translate(-48.009 -160)" fill="#283593"/>
          </g>
        </g>
        <g id="Grupo_29438" data-name="Grupo 29438" transform="translate(35.355 22.998)">
          <g id="Grupo_28129-4" data-name="Grupo 28129">
            <ellipse id="Elipse_1287-4" data-name="Elipse 1287" cx="6.324" cy="6.324" rx="6.324" ry="6.324" fill="#283593"/>
          </g>
        </g>
        <g id="Grupo_29439" data-name="Grupo 29439" transform="translate(32.195 38.808)">
          <g id="Grupo_28131-4" data-name="Grupo 28131">
            <path id="Trazado_56414-4" data-name="Trazado 56414" d="M66.974,177.234l-1.442-14.385A3.151,3.151,0,0,0,62.386,160h-1.73a1.592,1.592,0,0,0-1.119.462L57.494,162.5l-2.043-2.043A1.592,1.592,0,0,0,54.332,160H52.6a3.151,3.151,0,0,0-3.146,2.846l-1.439,14.388a1.58,1.58,0,0,0,1.572,1.739h1.73l1.3,12.965a3.156,3.156,0,0,0,3.15,2.846h3.463a3.153,3.153,0,0,0,3.146-2.846l1.3-12.965H65.4a1.58,1.58,0,0,0,1.575-1.739Z" transform="translate(-48.009 -160)" fill="#283593"/>
          </g>
        </g>
      </g>
      <g id="hombre-y-mujer-4" data-name="hombre-y-mujer" transform="translate(1226.5 1410.036)">
        <g id="Grupo_28130-4" data-name="Grupo 28130" transform="translate(4.597)">
          <g id="Grupo_28129-5" data-name="Grupo 28129">
            <ellipse id="Elipse_1287-5" data-name="Elipse 1287" cx="9.199" cy="9.199" rx="9.199" ry="9.199" fill="#283593"/>
          </g>
        </g>
        <g id="Grupo_28132-4" data-name="Grupo 28132" transform="translate(0 22.998)">
          <g id="Grupo_28131-5" data-name="Grupo 28131">
            <path id="Trazado_56414-5" data-name="Trazado 56414" d="M75.595,185.068l-2.1-20.923A4.583,4.583,0,0,0,68.921,160H66.4a2.316,2.316,0,0,0-1.628.672l-2.971,2.971-2.971-2.971A2.316,2.316,0,0,0,57.206,160H54.69a4.583,4.583,0,0,0-4.577,4.14L48.02,185.068a2.3,2.3,0,0,0,2.286,2.53h2.516l1.886,18.858a4.591,4.591,0,0,0,4.581,4.14h5.037a4.587,4.587,0,0,0,4.577-4.14L70.788,187.6H73.3a2.3,2.3,0,0,0,2.291-2.53Z" transform="translate(-48.009 -160)" fill="#283593"/>
          </g>
        </g>
        <g id="Grupo_29438-2" data-name="Grupo 29438" transform="translate(35.355 22.998)">
          <g id="Grupo_28129-6" data-name="Grupo 28129">
            <ellipse id="Elipse_1287-6" data-name="Elipse 1287" cx="6.324" cy="6.324" rx="6.324" ry="6.324" fill="#283593"/>
          </g>
        </g>
        <g id="Grupo_29439-2" data-name="Grupo 29439" transform="translate(32.195 38.808)">
          <g id="Grupo_28131-6" data-name="Grupo 28131">
            <path id="Trazado_56414-6" data-name="Trazado 56414" d="M66.974,177.234l-1.442-14.385A3.151,3.151,0,0,0,62.386,160h-1.73a1.592,1.592,0,0,0-1.119.462L57.494,162.5l-2.043-2.043A1.592,1.592,0,0,0,54.332,160H52.6a3.151,3.151,0,0,0-3.146,2.846l-1.439,14.388a1.58,1.58,0,0,0,1.572,1.739h1.73l1.3,12.965a3.156,3.156,0,0,0,3.15,2.846h3.463a3.153,3.153,0,0,0,3.146-2.846l1.3-12.965H65.4a1.58,1.58,0,0,0,1.575-1.739Z" transform="translate(-48.009 -160)" fill="#283593"/>
          </g>
        </g>
      </g>
    </g>
  </g>
</svg>
