<svg xmlns="http://www.w3.org/2000/svg" width="423.628" height="767.967" viewBox="0 0 423.628 767.967">
  <g id="Grupo_29370" data-name="Grupo 29370" transform="translate(-1460.742 -927.287)">
    <g id="Grupo_29365" data-name="Grupo 29365" transform="translate(1472.98 1323.579)">
      <g id="Grupo_29362" data-name="Grupo 29362" transform="translate(79.621 179.663)">
        <path id="Trazado_58255" data-name="Trazado 58255" d="M1556.6,1698.728h-.271a2.854,2.854,0,0,1-2.854-2.919L1557.8,1508.2l12.75-1.487-10.872,189.1A3.084,3.084,0,0,1,1556.6,1698.728Z" transform="translate(-1553.469 -1506.716)" fill="#3662c1"/>
      </g>
      <g id="Grupo_29363" data-name="Grupo 29363" transform="translate(5.321 179.663)">
        <path id="Trazado_58256" data-name="Trazado 58256" d="M1481.6,1698.728h-.272a2.855,2.855,0,0,1-2.855-2.919L1482.8,1508.2l12.75-1.487-10.872,189.1A3.084,3.084,0,0,1,1481.6,1698.728Z" transform="translate(-1478.467 -1506.716)" fill="#bed2fa"/>
      </g>
      <g id="Grupo_29364" data-name="Grupo 29364" transform="translate(199.52 179.663)">
        <path id="Trazado_58257" data-name="Trazado 58257" d="M1688.453,1698.728h.271a2.854,2.854,0,0,0,2.854-2.919l-4.328-187.606-12.75-1.487,10.873,189.1A3.084,3.084,0,0,0,1688.453,1698.728Z" transform="translate(-1674.5 -1506.716)" fill="#3662c1"/>
      </g>
      <path id="Trazado_58258" data-name="Trazado 58258" d="M1473.1,1494.873V1366.315a40.959,40.959,0,0,1,40.958-40.958h92.62a40.959,40.959,0,0,1,40.958,40.958v133.469Z" transform="translate(-1473.096 -1325.357)" fill="#3662c1"/>
      <path id="Rectángulo_5992" data-name="Rectángulo 5992" d="M0,0H191.131a0,0,0,0,1,0,0V20.295a0,0,0,0,1,0,0H15.628A15.628,15.628,0,0,1,0,4.666V0A0,0,0,0,1,0,0Z" transform="translate(0 169.515)" fill="#bed2fa"/>
      <rect id="Rectángulo_5993" data-name="Rectángulo 5993" width="153.482" height="20.295" rx="9.455" transform="translate(68.174 169.515)" fill="#3662c1"/>
    </g>
    <g id="Grupo_29369" data-name="Grupo 29369" transform="translate(1460.742 1135.287)">
      <path id="Trazado_58259" data-name="Trazado 58259" d="M1681.425,1464.1c-13.269,23.094-29.957,32.008-29.957,32.008h-69.43S1691.547,1446.484,1681.425,1464.1Z" transform="translate(-1461.877 -1138.327)" fill="#120e59"/>
      <g id="Grupo_29366" data-name="Grupo 29366">
        <path id="Trazado_58260" data-name="Trazado 58260" d="M1628.52,1643.96a6.421,6.421,0,0,0-1.144,6.865.059.059,0,0,0,.017.034c1.656,4.576,7.128,9.686,13.483,14.789.811.656,1.534,1.251,2.162,1.8.166.145.331.289.488.435.127.113.251.231.373.338,5.926,5.463,3.695,6.714,14.342,17.8,12.139,12.631,20.5,12.858,22.875,11.707,2.011-.981-2.076-7.679-6.6-15.208-.22-.363-.435-.732-.66-1.1-.6-1-1.2-2.018-1.8-3.022-5.307-9.062-3.945-13.314-2.686-26.8,1.022-10.96,17.048-61.223,17.048-61.223l-23.263-4.008s-7.006,40.025-14.724,46.19c-4.128,3.286-8.748,3.327-12.715,5.763-.28.168-.557.343-.826.522A30.508,30.508,0,0,0,1628.52,1643.96Z" transform="translate(-1462.296 -1139.506)" fill="#fc9290"/>
        <path id="Trazado_58261" data-name="Trazado 58261" d="M1628.52,1644.451a6.421,6.421,0,0,0-1.144,6.865.059.059,0,0,0,.017.034c2.028,4.572,7.362,9.656,13.5,14.743.8.666,1.511,1.279,2.141,1.85.166.145.331.289.488.435.127.113.251.231.373.338,5.926,5.463,3.695,6.714,14.342,17.8,12.139,12.631,20.5,12.858,22.875,11.707,2.011-.981-2.076-7.679-6.6-15.208a51.716,51.716,0,0,1-21.64-15.945c-7.31-9.328-12.184-21.313-17.161-28.254-.28.168-.557.343-.826.522A30.508,30.508,0,0,0,1628.52,1644.451Z" transform="translate(-1462.296 -1139.997)" fill="#120e59"/>
        <path id="Trazado_58262" data-name="Trazado 58262" d="M1817.713,1629.364c1.436,7.181,11.672,5.984,23.108,3.189s8.719.527,24.993-1.274,21.207-7.871,21.7-10.29c.445-2.149-7.6-2.906-16.224-3.9-1.085-.122-2.174-.255-3.264-.39-9.738-1.222-16.872-7.506-25.717-12.667-8.379-4.889-20.884-24.807-20.884-24.807l-22.321,1.768s11.713,17.79,16.244,25.524c2.665,4.549,2.523,10.566,2.191,15.211A28.618,28.618,0,0,0,1817.713,1629.364Z" transform="translate(-1463.907 -1139.44)" fill="#fc9290"/>
        <path id="Trazado_58263" data-name="Trazado 58263" d="M1840.994,1632.91c11.436-2.8,8.719.527,24.993-1.274s21.207-7.871,21.7-10.29c.445-2.149-7.6-2.906-16.224-3.9l-.08.165a45.876,45.876,0,0,1-23.309,7.246c-11.042.268-22.737-2.9-30.362-2.772a28.618,28.618,0,0,0,.172,7.635C1819.322,1636.9,1829.558,1635.7,1840.994,1632.91Z" transform="translate(-1464.08 -1139.797)" fill="#120e59"/>
        <path id="Trazado_58264" data-name="Trazado 58264" d="M1730.82,1485.43l-20.866,56.146-27.241,73.312a44.141,44.141,0,0,1-14.471-1.323c-6.518-1.884-14-6.813-14-6.813s7.565-78.717,21.674-123.9c3.616-11.6,7.669-20.98,12.141-26.261C1709.935,1430.739,1730.82,1485.43,1730.82,1485.43Z" transform="translate(-1462.552 -1138.228)" fill="#030231"/>
        <path id="Trazado_58265" data-name="Trazado 58265" d="M1708.223,1395.651c-13.669-4.409-52.657,1.252-91.822,8.919l-8.2-13.526-84.6-6.606s-27.914,61.9-12.632,101.348c2.246,5.8,6.709,9.517,14.317,9.639h1.235s50.35-.031,66.7-.031c42.071,0,89.035-28.918,95.111-30.134,9.944-1.989,13.922,17.9,23.867,38.783s93.476,92.482,93.476,92.482,12.839.128,18.142-1.861c5.7-2.139,7.79-4.917,7.79-4.917S1739.05,1405.6,1708.223,1395.651Z" transform="translate(-1461.169 -1137.618)" fill="#120e59"/>
        <path id="Trazado_58266" data-name="Trazado 58266" d="M1604.447,1142.388c-10.837-5.69-27.326-6.46-30-6.821-32.056-4.307-51.349,42.273-52.483,56.388-2.092,26.016-15.854,29.982-35.226,46.274-38.841,32.669-27.452,70.63-6.213,84.735,12.744,8.463,35.205,0,35.205,0,.317.223,61.429-34.162,91.553-50.749C1652.438,1265.794,1632.063,1156.889,1604.447,1142.388Z" transform="translate(-1460.745 -1135.287)" fill="#120e59"/>
        <path id="Trazado_58267" data-name="Trazado 58267" d="M1582.782,1258.808c.134.086-14.821,5.191-24.82.763-9.407-4.158-16.534-19.634-16.394-19.642,4.28-.2,8.977-3.938,12.6-28.487l1.823.655,30.637,11.024s-2.219,9.83-3.655,19.191C1581.758,1250.168,1581.109,1257.7,1582.782,1258.808Z" transform="translate(-1461.498 -1136)" fill="#fc9290"/>
        <path id="Trazado_58268" data-name="Trazado 58268" d="M1586.759,1223.126s-2.219,9.83-3.655,19.191c-17.6-3.168-24.5-20.7-26.981-30.215Z" transform="translate(-1461.635 -1136.006)" fill="#eb8d8d"/>
        <path id="Trazado_58269" data-name="Trazado 58269" d="M1591.293,1232.384s-41.917-5.628-38.012-31.678,1.125-44.321,28.054-41.83,30.627,13.209,31.438,22.221S1602.3,1233.175,1591.293,1232.384Z" transform="translate(-1461.605 -1135.506)" fill="#fc9290"/>
        <path id="Trazado_58270" data-name="Trazado 58270" d="M1611.132,1166.8s-26.835,23.123-45.086,24.987-25.162-3.993-25.162-3.993a71.287,71.287,0,0,0,17.232-23.349,12.832,12.832,0,0,1,10.581-7.566C1581.729,1155.751,1606.436,1155.238,1611.132,1166.8Z" transform="translate(-1461.492 -1135.484)" fill="#120e59"/>
        <path id="Trazado_58271" data-name="Trazado 58271" d="M1594.862,1164.758s8.977,8.679,11.8,15.117c2.728,6.212,3.547,21.07,1.374,26.972,0,0,13.987-27.2,6.069-40.409C1605.712,1152.426,1594.862,1164.758,1594.862,1164.758Z" transform="translate(-1461.997 -1135.516)" fill="#120e59"/>
        <path id="Trazado_58272" data-name="Trazado 58272" d="M1617.74,1320.817c-1.268,84.852-.348,67.121-9.63,75.173-2.236,1.938-8.524,3.094-16.8,3.641-26.018,1.727-71.755-2.561-73.5-7.368-6-16.638-1.765-21.806-6.772-47.279-.522-2.708-1.168-5.641-1.926-8.834-4.175-17.5-8.238-23.447,6.573-51.553,13.431-25.46,27.385-46.122,28.641-45.376,35.437,21.035,38.295,3.353,38.295,3.353S1618.362,1279.428,1617.74,1320.817Z" transform="translate(-1461.159 -1136.259)" fill="#fff"/>
        <path id="Trazado_58273" data-name="Trazado 58273" d="M1709.954,1541.89l-27.241,73.312a44.139,44.139,0,0,1-14.471-1.322c-6.518-1.884-14-6.813-14-6.813s7.565-78.717,21.674-123.9Z" transform="translate(-1462.552 -1138.541)" fill="#120e59"/>
        <path id="Trazado_58274" data-name="Trazado 58274" d="M1583.358,1242.6s36.464,6.182,40.745,21.881,29.479,107.993,29.479,107.993-18.537,3.33-27.1-5.233-29.8-79.449-29.8-79.449Z" transform="translate(-1461.889 -1136.291)" fill="#fff"/>
        <path id="Trazado_58275" data-name="Trazado 58275" d="M1591.366,1400.3c-26.018,1.727-71.756-2.561-73.5-7.368-6-16.638-1.765-21.806-6.772-47.279l12.549-35.337s-2.075,39.35,9.53,49.7,47.514,19.979,53.155,28.627A31.665,31.665,0,0,1,1591.366,1400.3Z" transform="translate(-1461.214 -1136.924)" fill="#dde8fd"/>
        <path id="Trazado_58276" data-name="Trazado 58276" d="M1562.032,1384.4s25.669-5.716,29.811-3.437,14.263,10.574,15.532,13.461-9.222-2.191-12.634-3.107c-2.209-.593-8.024,1.427-10.9,2.387-12.115,4.039-19.538,1.962-19.538,1.962Z" transform="translate(-1461.69 -1137.58)" fill="#fc9290"/>
        <path id="Trazado_58277" data-name="Trazado 58277" d="M1543.894,1239.2s-34.467,2.123-46.4,18.765c-16.8,23.426-50.115,123.259-31.019,136.576,21.5,14.995,97.87,3.922,97.87,3.922s2.542-11.878-.995-17.624-60.994-15.027-63.647-17.68,33.15-51.713,33.15-59.668S1543.894,1239.2,1543.894,1239.2Z" transform="translate(-1460.742 -1136.259)" fill="#fff"/>
        <path id="Trazado_58278" data-name="Trazado 58278" d="M1593.378,1388.18s5.379,6.937,7.142,7.766a5.262,5.262,0,0,0,2.9.621l-3.625-6.523Z" transform="translate(-1461.983 -1137.653)" fill="#fc9290"/>
        <path id="Trazado_58279" data-name="Trazado 58279" d="M1592.124,1380.968l15.637,7.593a2.79,2.79,0,0,1-2.591,1c-1.926-.088-6.783-1.863-6.783-1.863Z" transform="translate(-1461.971 -1137.585)" fill="#fc9290"/>
      </g>
      <g id="Grupo_29368" data-name="Grupo 29368" transform="translate(100.343 176.391)">
        <g id="Grupo_29367" data-name="Grupo 29367">
          <path id="Trazado_58280" data-name="Trazado 58280" d="M1600.587,1405.874h123.694l37.21-92.53h-123.5Z" transform="translate(-1562.393 -1313.344)" fill="#ed6966"/>
          <path id="Trazado_58281" data-name="Trazado 58281" d="M1725.371,1403.108H1562.032v3.606h161.888Z" transform="translate(-1562.032 -1314.183)" fill="#e75755"/>
        </g>
        <path id="Trazado_58282" data-name="Trazado 58282" d="M1693.817,1359.989c.932-3.252-.948-5.889-4.2-5.889a8.439,8.439,0,0,0-7.578,5.889c-.932,3.252.948,5.889,4.2,5.889A8.439,8.439,0,0,0,1693.817,1359.989Z" transform="translate(-1563.152 -1313.725)" fill="#fff"/>
      </g>
    </g>
    <g id="Grupo_29376" data-name="Grupo 29376" transform="translate(-319.917 -126.033)">
      <g id="Grupo_29372" data-name="Grupo 29372">
        <path id="Trazado_58283" data-name="Trazado 58283" d="M2070.287,1212.486H1956.725V1070.679l19.258-17.358h94.3Z" fill="#fff"/>
        <path id="Trazado_58284" data-name="Trazado 58284" d="M1956.725,1070.679h18.639l.619-17.358Z" fill="#3662c1"/>
        <rect id="Rectángulo_5994" data-name="Rectángulo 5994" width="36.361" height="1.732" transform="translate(1995.325 1067.123)" fill="#3662c1"/>
        <rect id="Rectángulo_5995" data-name="Rectángulo 5995" width="53.48" height="1.731" transform="translate(1986.766 1072.317)" fill="#3662c1"/>
        <rect id="Rectángulo_5996" data-name="Rectángulo 5996" width="88.801" height="2.227" transform="translate(1970.168 1105.68)" fill="#3662c1"/>
        <rect id="Rectángulo_5997" data-name="Rectángulo 5997" width="88.801" height="2.227" transform="translate(1970.168 1112.44)" fill="#3662c1"/>
        <rect id="Rectángulo_5998" data-name="Rectángulo 5998" width="88.801" height="2.227" transform="translate(1970.168 1119.202)" fill="#3662c1"/>
        <rect id="Rectángulo_5999" data-name="Rectángulo 5999" width="88.801" height="2.227" transform="translate(1970.168 1125.963)" fill="#3662c1"/>
        <rect id="Rectángulo_6000" data-name="Rectángulo 6000" width="88.801" height="2.226" transform="translate(1970.168 1146.767)" fill="#3662c1"/>
        <rect id="Rectángulo_6001" data-name="Rectángulo 6001" width="88.801" height="2.227" transform="translate(1970.168 1153.527)" fill="#3662c1"/>
        <rect id="Rectángulo_6002" data-name="Rectángulo 6002" width="88.801" height="2.227" transform="translate(1970.168 1161.367)" fill="#3662c1"/>
      </g>
      <g id="Grupo_29373" data-name="Grupo 29373">
        <rect id="Rectángulo_6003" data-name="Rectángulo 6003" width="62.708" height="55.284" transform="translate(1861.435 1137.271) rotate(-3.994)" fill="#fff"/>
        <path id="Trazado_58285" data-name="Trazado 58285" d="M1890.672,1145.264a2.745,2.745,0,1,1,2.93,2.547A2.745,2.745,0,0,1,1890.672,1145.264Z" fill="#3662c1"/>
      </g>
      <g id="Grupo_29374" data-name="Grupo 29374">
        <rect id="Rectángulo_6004" data-name="Rectángulo 6004" width="62.708" height="55.284" transform="matrix(1, -0.01, 0.01, 1, 1782.58, 1173.222)" fill="#fff"/>
        <path id="Trazado_58286" data-name="Trazado 58286" d="M1811.289,1182.939a2.745,2.745,0,1,1,2.774,2.716A2.745,2.745,0,0,1,1811.289,1182.939Z" fill="#3662c1"/>
      </g>
      <g id="Grupo_29375" data-name="Grupo 29375">
        <rect id="Rectángulo_6005" data-name="Rectángulo 6005" width="62.708" height="55.283" transform="matrix(0.978, -0.209, 0.209, 0.978, 1810.582, 1071.896)" fill="#ed6966"/>
        <path id="Trazado_58287" data-name="Trazado 58287" d="M1841.506,1074.664a2.387,2.387,0,1,1,3.3-.7A2.387,2.387,0,0,1,1841.506,1074.664Z" fill="#fc9290"/>
      </g>
    </g>
  </g>
</svg>
