<svg xmlns="http://www.w3.org/2000/svg" xmlns:xlink="http://www.w3.org/1999/xlink" width="784" height="395.814" viewBox="0 0 784 395.814">
  <defs>
    <clipPath id="clip-path">
      <rect id="Rectángulo_6024" data-name="Rectángulo 6024" width="285.429" height="338.395" transform="translate(33 95.082)" fill="none"/>
    </clipPath>
  </defs>
  <g id="Grupo_29551" data-name="Grupo 29551" transform="translate(-583 -1287.462)">
    <g id="Grupo_29437" data-name="Grupo 29437" transform="translate(581 1248.157)">
      <g id="Grupo_29408" data-name="Grupo 29408">
        <g id="Grupo_29406" data-name="Grupo 29406">
          <rect id="Rectángulo_6006" data-name="Rectángulo 6006" width="482.505" height="311.255" rx="13.162" transform="translate(141.952 70.403)" fill="#2f36ac" opacity="0.3"/>
          <rect id="Rectángulo_6007" data-name="Rectángulo 6007" width="300.494" height="471.744" rx="8.162" transform="translate(619.076 75.784) rotate(90)" fill="#fff"/>
          <g id="Grupo_29396" data-name="Grupo 29396">
            <g id="Grupo_29380" data-name="Grupo 29380">
              <g id="Grupo_29379" data-name="Grupo 29379">
                <g id="Grupo_29378" data-name="Grupo 29378">
                  <rect id="Rectángulo_6008" data-name="Rectángulo 6008" width="12.39" height="31.104" transform="translate(222.347 204.386)" fill="#e0ebf7"/>
                </g>
              </g>
            </g>
            <g id="Grupo_29383" data-name="Grupo 29383">
              <g id="Grupo_29382" data-name="Grupo 29382">
                <g id="Grupo_29381" data-name="Grupo 29381">
                  <rect id="Rectángulo_6009" data-name="Rectángulo 6009" width="12.39" height="58.41" transform="translate(250.266 177.081)" fill="#e0ebf7"/>
                </g>
              </g>
            </g>
            <g id="Grupo_29386" data-name="Grupo 29386">
              <g id="Grupo_29385" data-name="Grupo 29385">
                <g id="Grupo_29384" data-name="Grupo 29384">
                  <rect id="Rectángulo_6010" data-name="Rectángulo 6010" width="12.39" height="52.37" transform="translate(278.185 183.12)" fill="#e0ebf7"/>
                </g>
              </g>
            </g>
            <g id="Grupo_29389" data-name="Grupo 29389">
              <g id="Grupo_29388" data-name="Grupo 29388">
                <g id="Grupo_29387" data-name="Grupo 29387">
                  <rect id="Rectángulo_6011" data-name="Rectángulo 6011" width="12.39" height="81.938" transform="translate(306.104 153.552)" fill="#e0ebf7"/>
                </g>
              </g>
            </g>
            <g id="Grupo_29392" data-name="Grupo 29392">
              <g id="Grupo_29391" data-name="Grupo 29391">
                <g id="Grupo_29390" data-name="Grupo 29390">
                  <path id="Trazado_58288" data-name="Trazado 58288" d="M349.576,244.052H214.165V131.329h1.692V242.361H349.576Z" fill="#ced1e1"/>
                </g>
              </g>
            </g>
            <g id="Grupo_29395" data-name="Grupo 29395">
              <g id="Grupo_29394" data-name="Grupo 29394">
                <g id="Grupo_29393" data-name="Grupo 29393">
                  <path id="Trazado_58289" data-name="Trazado 58289" d="M227.832,187.542l-1.13-1.259,29.006-26.046,26.867,5.837,29.093-32.388,1.259,1.131-29.75,33.119L256.2,162.074Z" fill="#ced1e1"/>
                </g>
              </g>
            </g>
          </g>
          <g id="Grupo_29400" data-name="Grupo 29400">
            <rect id="Rectángulo_6012" data-name="Rectángulo 6012" width="13.518" height="1.95" transform="translate(267.76 374.327)" fill="#03036d"/>
            <rect id="Rectángulo_6013" data-name="Rectángulo 6013" width="5.515" height="1.95" transform="matrix(0.928, 0.372, -0.372, 0.928, 281.452, 372.397)" fill="#03036d"/>
            <g id="Grupo_29399" data-name="Grupo 29399">
              <path id="Rectángulo_6014" data-name="Rectángulo 6014" d="M2.542,0H24.206a2.542,2.542,0,0,1,2.542,2.542v7.84a0,0,0,0,1,0,0H0a0,0,0,0,1,0,0V2.542A2.542,2.542,0,0,1,2.542,0Z" transform="translate(234.691 365.896)" fill="#ffc746"/>
              <g id="Grupo_29398" data-name="Grupo 29398" opacity="0.5" style="mix-blend-mode: multiply;isolation: isolate">
                <g id="Grupo_29397" data-name="Grupo 29397">
                  <circle id="Elipse_1393" data-name="Elipse 1393" cx="1.199" cy="1.199" r="1.199" transform="translate(239.535 368.429)" fill="#ffc746"/>
                  <path id="Trazado_58290" data-name="Trazado 58290" d="M249.489,368.53a.437.437,0,1,1-.437-.437A.437.437,0,0,1,249.489,368.53Z" fill="#ffc746"/>
                  <path id="Trazado_58291" data-name="Trazado 58291" d="M247.068,372.431a.908.908,0,1,1-.908-.908A.909.909,0,0,1,247.068,372.431Z" fill="#ffc746"/>
                  <circle id="Elipse_1394" data-name="Elipse 1394" cx="0.403" cy="0.403" r="0.403" transform="translate(255.139 368.676)" fill="#ffc746"/>
                  <path id="Trazado_58292" data-name="Trazado 58292" d="M257.986,374.852a.93.93,0,1,1-.931-.93A.93.93,0,0,1,257.986,374.852Z" fill="#ffc746"/>
                  <path id="Trazado_58293" data-name="Trazado 58293" d="M252.146,372.425a.252.252,0,1,1-.253-.252A.252.252,0,0,1,252.146,372.425Z" fill="#ffc746"/>
                  <path id="Trazado_58294" data-name="Trazado 58294" d="M239.222,373.44a.527.527,0,1,1-.527-.527A.526.526,0,0,1,239.222,373.44Z" fill="#ffc746"/>
                  <path id="Trazado_58295" data-name="Trazado 58295" d="M236.307,371.422a.482.482,0,1,1-.482-.482A.482.482,0,0,1,236.307,371.422Z" fill="#ffc746"/>
                  <path id="Trazado_58296" data-name="Trazado 58296" d="M259.533,367.7a.572.572,0,1,1-.572-.571A.572.572,0,0,1,259.533,367.7Z" fill="#ffc746"/>
                </g>
              </g>
            </g>
          </g>
          <g id="Grupo_29401" data-name="Grupo 29401">
            <rect id="Rectángulo_6015" data-name="Rectángulo 6015" width="33.905" height="33.905" transform="matrix(0.922, -0.387, 0.387, 0.922, 310.994, 91.415)" fill="#6674ff"/>
            <path id="Trazado_58297" data-name="Trazado 58297" d="M334.233,79.427l-1.122,2,1.8-.386.013.031-1.238,1.274,2.078.73.026.061-1.446,1.227,1.822-.332.006.015-16.386,6.87,1.561-1.1-1.949.178.971-2.062-1.84-.011,1.586-1.043-2.283-.617,16.386-6.87Z" fill="#2f36ac" opacity="0.3"/>
          </g>
          <g id="Grupo_29402" data-name="Grupo 29402">
            <rect id="Rectángulo_6016" data-name="Rectángulo 6016" width="33.905" height="33.905" transform="translate(563.591 95.333) rotate(12.437)" fill="#6674ff"/>
            <path id="Trazado_58298" data-name="Trazado 58298" d="M589.491,98.926l-2.07.988,1.693.722-.007.032-1.746.328,1.278,1.794-.014.065-1.889.17,1.68.778,0,.016-17.351-3.826,1.912,0-1.7-.977,1.981-1.126-1.5-1.069,1.9.062-1.51-1.819L589.5,98.885Z" fill="#2f36ac" opacity="0.3"/>
          </g>
          <g id="Grupo_29403" data-name="Grupo 29403">
            <rect id="Rectángulo_6017" data-name="Rectángulo 6017" width="33.905" height="33.905" transform="translate(261.232 83.541)" fill="#ffc746"/>
            <path id="Trazado_58299" data-name="Trazado 58299" d="M287.3,81.472l-1.808,1.41,1.808.34v.033l-1.634.7,1.634,1.476v.066l-1.808.572,1.808.4v.017H269.531l1.866-.415-1.866-.589,1.692-1.526-1.692-.722,1.866-.349-1.866-1.452H287.3Z" fill="#2f36ac" opacity="0.3"/>
          </g>
          <g id="Grupo_29405" data-name="Grupo 29405">
            <g id="Grupo_29404" data-name="Grupo 29404">
              <circle id="Elipse_1395" data-name="Elipse 1395" cx="42.181" cy="42.181" r="42.181" transform="translate(457.831 213.044) rotate(-86.815)" fill="#e0ebf7"/>
              <path id="Trazado_58300" data-name="Trazado 58300" d="M502.291,131.09v42.181l39.327-22.344-6.661-19.837Z" fill="#fff"/>
              <path id="Trazado_58301" data-name="Trazado 58301" d="M542.909,144.732a42.157,42.157,0,0,0-36.671-21.346v42.182Z" fill="#ced1e1"/>
            </g>
            <rect id="Rectángulo_6018" data-name="Rectángulo 6018" width="10.466" height="10.467" transform="translate(464.771 220.309)" fill="#e0ebf7"/>
            <rect id="Rectángulo_6019" data-name="Rectángulo 6019" width="19.798" height="5.89" transform="translate(479.061 224.886)" fill="#e0ebf7" opacity="0.75"/>
            <rect id="Rectángulo_6020" data-name="Rectángulo 6020" width="10.467" height="10.467" transform="translate(521.954 220.309)" fill="#ced1e1"/>
            <rect id="Rectángulo_6021" data-name="Rectángulo 6021" width="19.798" height="5.89" transform="translate(536.244 224.886)" fill="#e0ebf7" opacity="0.75"/>
          </g>
        </g>
        <g id="Grupo_29407" data-name="Grupo 29407">
          <path id="Trazado_58302" data-name="Trazado 58302" d="M190.8,48.452a4.3,4.3,0,1,1-4.3-4.305A4.3,4.3,0,0,1,190.8,48.452Z" fill="none" stroke="#fff" stroke-miterlimit="10" stroke-width="1.076"/>
          <circle id="Elipse_1396" data-name="Elipse 1396" cx="4.304" cy="4.304" r="4.304" transform="translate(59.625 228.396)" fill="none" stroke="#fff" stroke-miterlimit="10" stroke-width="1.076"/>
          <circle id="Elipse_1397" data-name="Elipse 1397" cx="4.304" cy="4.304" r="4.304" transform="translate(506.238 39.843)" fill="none" stroke="#fff" stroke-miterlimit="10" stroke-width="1.076"/>
          <path id="Trazado_58303" data-name="Trazado 58303" d="M717,246.042a4.3,4.3,0,1,1-4.3-4.3A4.3,4.3,0,0,1,717,246.042Z" fill="none" stroke="#fff" stroke-miterlimit="10" stroke-width="1.076"/>
          <path id="Trazado_58304" data-name="Trazado 58304" d="M112.372,119.082a2.235,2.235,0,1,1-2.235-2.235A2.235,2.235,0,0,1,112.372,119.082Z" fill="none" stroke="#fff" stroke-miterlimit="10" stroke-width="1.076"/>
          <path id="Trazado_58305" data-name="Trazado 58305" d="M694.357,367.129a2.234,2.234,0,1,1-2.234-2.235A2.234,2.234,0,0,1,694.357,367.129Z" fill="none" stroke="#fff" stroke-miterlimit="10" stroke-width="1.076"/>
          <path id="Trazado_58306" data-name="Trazado 58306" d="M314.533,50.681a2.234,2.234,0,1,1-2.235-2.234A2.235,2.235,0,0,1,314.533,50.681Z" fill="none" stroke="#fff" stroke-miterlimit="10" stroke-width="1.076"/>
          <path id="Trazado_58307" data-name="Trazado 58307" d="M662.372,103.818a2.234,2.234,0,1,1-2.235-2.234A2.235,2.235,0,0,1,662.372,103.818Z" fill="none" stroke="#fff" stroke-miterlimit="10" stroke-width="1.076"/>
        </g>
      </g>
      <g id="Grupo_29436" data-name="Grupo 29436">
        <g id="Grupo_29417" data-name="Grupo 29417">
          <g id="Grupo_29410" data-name="Grupo 29410">
            <path id="Trazado_58308" data-name="Trazado 58308" d="M391.382,247.674l-11.237,6.9-.061-11.8s-19.453-15.936-7.591-36.8c10-17.6,37.067-21.872,51.147-6.41,14.641,16.078,8.326,41.093-12,48.063C405.209,249.835,397.767,250.307,391.382,247.674Z" fill="#2f36ac" opacity="0.3"/>
            <g id="Grupo_29409" data-name="Grupo 29409">
              <path id="Trazado_58309" data-name="Trazado 58309" d="M401.237,201A13.051,13.051,0,0,0,388.2,214.036a12.87,12.87,0,0,0,2.788,8.037c.36.458.738.9,1.138,1.361l.022.026a12.7,12.7,0,0,1,2.965,4.622,8.1,8.1,0,0,1,.116,1.744v1a1.65,1.65,0,0,0,1.65,1.65h8.641a1.65,1.65,0,0,0,1.65-1.65v-1.008a7.039,7.039,0,0,1,.114-1.613,14.247,14.247,0,0,1,3.129-4.841l.054-.063c.361-.424.7-.825,1.012-1.219a12.873,12.873,0,0,0,2.791-8.042A13.05,13.05,0,0,0,401.237,201Zm7.65,19.037c-.272.345-.593.722-.932,1.12l-.066.078a16.594,16.594,0,0,0-3.785,6.088,7.377,7.377,0,0,0-.227,1.848h-5.35a7.784,7.784,0,0,0-.228-1.953,15.635,15.635,0,0,0-3.65-5.913l-.022-.026c-.375-.435-.729-.846-1.044-1.246a9.608,9.608,0,0,1-2.082-6,9.735,9.735,0,1,1,19.47,0A9.611,9.611,0,0,1,408.887,220.037Z" fill="#e0ebf7"/>
              <path id="Trazado_58310" data-name="Trazado 58310" d="M405.521,234.1H396.88a1.65,1.65,0,1,0,0,3.3h8.641a1.65,1.65,0,0,0,0-3.3Z" fill="#e0ebf7"/>
              <path id="Trazado_58311" data-name="Trazado 58311" d="M403.361,236.994H399.04a1.65,1.65,0,0,0,0,3.3h4.321a1.65,1.65,0,0,0,0-3.3Z" fill="#e0ebf7"/>
            </g>
          </g>
          <g id="Grupo_29416" data-name="Grupo 29416">
            <path id="Trazado_58312" data-name="Trazado 58312" d="M355.535,251.43s-9.587-15.323-23.128-9.425c-24.385,10.621-13.722,80.526-13.722,80.526l28.346,1.625,6.757-6.139s1.584-33.4,1.747-34.846S355.535,251.43,355.535,251.43Z" fill="#03036d"/>
            <path id="Trazado_58313" data-name="Trazado 58313" d="M401.443,434.965H301.287l5.171-54.773s10.371-45.875,10.6-46.337c.231-.491,25.479-17.824,25.479-17.824h28.022l21.117,33.106,6.645,35.851.317,5.2.752,11.93Z" fill="#ff9400"/>
            <path id="Trazado_58314" data-name="Trazado 58314" d="M346.326,299.059s1.986,13.722-3.791,16.972c3.25,5.056,7.583,9.389,16.61,8.125s12.4-7.764,12.4-7.764-9.153-3.069-6.625-16.069Z" fill="#6674ff"/>
            <g id="Grupo_29411" data-name="Grupo 29411">
              <path id="Trazado_58315" data-name="Trazado 58315" d="M372.7,293.17s9.18-10.782,5.569-23.541-11.375-18.51-17.514-18.258c-6.876-.749-36.288-2.023-29.158,32.161,28.8,6.259,41.075,8.426,41.075,8.426" fill="#010089"/>
              <path id="Trazado_58316" data-name="Trazado 58316" d="M374.179,280.973S376,305.61,356.842,304.7c-8.212-.912-14.9-5.474-17.946-14.9a6.726,6.726,0,0,1-7.2-5.171c-.811-3.346,2.737-8.213,9.124-3.65,4.766-1.115,11.559-4.157,15.817-14.5C360.391,274.687,367.893,280.365,374.179,280.973Z" fill="#6674ff"/>
            </g>
            <path id="Trazado_58317" data-name="Trazado 58317" d="M344.9,279.6s-5.817,7-2.522,13.568c-1.218-1.513-3.521-8.329-1.264-14.288S344.9,279.6,344.9,279.6Z" fill="#010089"/>
            <path id="Trazado_58318" data-name="Trazado 58318" d="M364.527,303.371s-9.385,3.716-18.01-2.491c3.313,5.762,9.09,9.464,18.635,8.351A37.8,37.8,0,0,1,364.527,303.371Z" fill="#4d5fe2"/>
            <path id="Trazado_58319" data-name="Trazado 58319" d="M387.131,362.253s1.2,16.37,1.685,26.721a66.587,66.587,0,0,0,33.7-1.685s-8.425-54.166-18.536-59.943-33.42-11.315-33.42-11.315" fill="#ff9400"/>
            <path id="Trazado_58320" data-name="Trazado 58320" d="M395.664,354.128s2.445,27.693,3.784,49.072" fill="none" stroke="#ff4800" stroke-miterlimit="10" stroke-width="1.076"/>
            <path id="Trazado_58321" data-name="Trazado 58321" d="M439.037,353.184c-4.6,31.424-7.377,58.67-23.266,59.132-8.291.26-13.375-5.055-16.379-10.2l-.752-11.93a109.031,109.031,0,0,0,16.178-.954,283.949,283.949,0,0,1,13.816-39.79C429.972,346.433,430.832,349.082,439.037,353.184Z" fill="#6674ff"/>
            <path id="Trazado_58322" data-name="Trazado 58322" d="M414.818,389.234a41.5,41.5,0,0,1-1.223,5.157" fill="none" stroke="#4d5fe2" stroke-miterlimit="10" stroke-width="0.722"/>
            <path id="Trazado_58323" data-name="Trazado 58323" d="M429.375,345.654s-2.087-5.839-1.815-8.213,1.291-8.469.971-11.467,3.443-1.562,3.911,3.888c.367,2.614.614,4.4,1.254,3.531s3.138-12.918,4.438-15.493,3.158-.538,2.314,4.992-.538,4.3-.5,4.921,9.115,7.355,8.775,10.913-2.5,7.92-7.229,11.188c-2.388,1.809-2.457,3.27-2.457,3.27l-10.4-3.74A17.464,17.464,0,0,0,429.375,345.654Z" fill="#6674ff"/>
            <path id="Trazado_58324" data-name="Trazado 58324" d="M441.641,332.221c-2.227,1.264-6.62,3.791-6.681,2.287s3.34-4.913,3.34-4.913c1.114-1.046,1.624-1.734,1.858-1.487" fill="none" stroke="#4d5fe2" stroke-miterlimit="10" stroke-width="0.722"/>
            <path id="Trazado_58325" data-name="Trazado 58325" d="M444.981,335.073c-2.226,1.264-6.62,3.791-6.68,2.287s3.34-4.913,3.34-4.913c1.114-1.045,1.623-1.734,1.857-1.487" fill="none" stroke="#4d5fe2" stroke-miterlimit="10" stroke-width="0.722"/>
            <path id="Trazado_58326" data-name="Trazado 58326" d="M447.97,338.53c-2.226,1.264-6.62,3.792-6.68,2.287s3.34-4.913,3.34-4.913c1.114-1.045,1.623-1.734,1.857-1.487" fill="none" stroke="#4d5fe2" stroke-miterlimit="10" stroke-width="0.722"/>
            <g id="Grupo_29413" data-name="Grupo 29413">
              <path id="Trazado_58327" data-name="Trazado 58327" d="M521.088,431.932h-99.73a5.983,5.983,0,0,1-5.894-7.009l11.263-64.7a5.984,5.984,0,0,1,5.894-4.957H532.35a5.983,5.983,0,0,1,5.9,7.009l-11.263,64.7A5.984,5.984,0,0,1,521.088,431.932Z" fill="#010089"/>
              <g id="Grupo_29412" data-name="Grupo 29412">
                <path id="Trazado_58328" data-name="Trazado 58328" d="M489.3,398.009A10.326,10.326,0,1,1,480.85,386.1,10.326,10.326,0,0,1,489.3,398.009Z" fill="#fff"/>
                <path id="Trazado_58329" data-name="Trazado 58329" d="M493.913,398.8a15.011,15.011,0,1,1-12.277-17.319A15.011,15.011,0,0,1,493.913,398.8Z" fill="none" stroke="#fff" stroke-miterlimit="10" stroke-width="1.195"/>
              </g>
            </g>
            <path id="Trazado_58330" data-name="Trazado 58330" d="M516.859,431.932H361.428a2.18,2.18,0,0,1-2.179-2.179h0a2.179,2.179,0,0,1,2.179-2.179H516.859a2.178,2.178,0,0,1,2.178,2.179h0A2.179,2.179,0,0,1,516.859,431.932Z" fill="#010089"/>
            <g id="Grupo_29415" data-name="Grupo 29415">
              <g id="Grupo_29414" data-name="Grupo 29414">
                <path id="Trazado_58331" data-name="Trazado 58331" d="M292.867,388.01s-4.214,31.538,2.767,39.482,69.518,4.574,69.518,4.574,3.374,1.128,10.527.71c7.1-.414,19.665.012,19.665.012s2-2.166-4.017-5.055c-4.454-2.287-10.231-8.426-13.6-8.546a74.269,74.269,0,0,0-11.676,1.083c-3.37-1.444-39.841-7.463-46.823-9.028.963-11.194,2.9-25.284,2.9-25.284Z" fill="#6674ff"/>
                <path id="Trazado_58332" data-name="Trazado 58332" d="M372.85,427.191a51.458,51.458,0,0,1,5.959,1.324c2.226.722,3.43.722,4.333,1.2s2.645,2.528-1.564,2.7" fill="none" stroke="#4d5fe2" stroke-miterlimit="10" stroke-width="0.722"/>
                <path id="Trazado_58333" data-name="Trazado 58333" d="M378.564,424.6s10.6,5.116,12.281,6.2.663,1.986.663,1.986" fill="none" stroke="#4d5fe2" stroke-miterlimit="10" stroke-width="0.722"/>
                <path id="Trazado_58334" data-name="Trazado 58334" d="M379.591,422.106a23.986,23.986,0,0,1,2.964,1.309c.993.586,10.4,6.71,11.119,7.387a2.125,2.125,0,0,1,.342,1.946" fill="none" stroke="#4d5fe2" stroke-miterlimit="10" stroke-width="0.722"/>
              </g>
              <path id="Trazado_58335" data-name="Trazado 58335" d="M325.967,362.253s-1.2,16.37-1.685,26.721a66.587,66.587,0,0,1-33.7-1.685s8.426-54.166,18.536-59.943,33.42-11.315,33.42-11.315" fill="#ff9400"/>
              <path id="Trazado_58336" data-name="Trazado 58336" d="M325.967,362.253s-1.2,16.37-1.685,26.721l-2.622.477" fill="none" stroke="#ff4800" stroke-miterlimit="10" stroke-width="1.076"/>
            </g>
          </g>
        </g>
        <g id="Grupo_29427" data-name="Grupo 29427">
          <g id="Grupo_29418" data-name="Grupo 29418">
            <path id="Trazado_58337" data-name="Trazado 58337" d="M100.28,397.565l2.728,35.8h23.455l2.5-35.8Z" fill="#010089"/>
            <circle id="Elipse_1398" data-name="Elipse 1398" cx="6.643" cy="6.643" r="6.643" transform="translate(108.447 407.963)" fill="#fff"/>
            <path id="Rectángulo_6022" data-name="Rectángulo 6022" d="M2.813,0H24.239a2.813,2.813,0,0,1,2.813,2.813v1.52a0,0,0,0,1,0,0H0a0,0,0,0,1,0,0V2.813A2.813,2.813,0,0,1,2.813,0Z" transform="translate(101.097 389.19)" fill="#010089"/>
            <rect id="Rectángulo_6023" data-name="Rectángulo 6023" width="33.341" height="6.273" transform="translate(98.066 393.522)" fill="#010089"/>
            <line id="Línea_152" data-name="Línea 152" x2="27.052" transform="translate(101.097 406.134)" fill="none" stroke="#fff" stroke-miterlimit="10" stroke-width="0.385"/>
            <line id="Línea_153" data-name="Línea 153" x2="27.052" transform="translate(101.097 423.077)" fill="none" stroke="#fff" stroke-miterlimit="10" stroke-width="0.385"/>
            <line id="Línea_154" data-name="Línea 154" x2="28.36" transform="translate(100.45 399.795)" fill="none" stroke="#fff" stroke-miterlimit="10" stroke-width="0.231"/>
            <line id="Línea_155" data-name="Línea 155" x2="28.36" transform="translate(100.45 393.522)" fill="none" stroke="#fff" stroke-miterlimit="10" stroke-width="0.231"/>
          </g>
          <g id="Grupo_29426" data-name="Grupo 29426">
            <g id="Grupo_29424" data-name="Grupo 29424">
              <path id="Trazado_58338" data-name="Trazado 58338" d="M182.642,191.66s-31.752-10.85-42.684,32.033c-2.87,12.913-10.761,33-34.794,43.76s-36.511,52.756,9.506,70.856" fill="none" stroke="#070707" stroke-miterlimit="10" stroke-width="1.076"/>
              <g id="Grupo_29423" data-name="Grupo 29423">
                <g id="Grupo_29422" data-name="Grupo 29422" clip-path="url(#clip-path)">
                  <g id="Grupo_29421" data-name="Grupo 29421">
                    <g id="Grupo_29419" data-name="Grupo 29419">
                      <path id="Trazado_58339" data-name="Trazado 58339" d="M310.4,232.221a14.007,14.007,0,0,1-3.876,4.417c-1.444,1.249-5.793,3.428-6.021,3.1s-1.055-4.138.378-6.4,2.3-5.367.513-4.247-10.987,8.417-12.081,20.185c2.616,2.5,5.494,6.7,8.229,8.994,0,0,2.706-3.792,5.415-5.023a10.473,10.473,0,0,0,5.956-7.888c.493-2.347,4.412-12.272,4.942-15.082S311.943,229.625,310.4,232.221Z" fill="#6674ff"/>
                      <path id="Trazado_58340" data-name="Trazado 58340" d="M312.742,234.053s-3.187,5.393-3.962,6.3a32.915,32.915,0,0,1-4.395,3.133" fill="none" stroke="#4d5fe2" stroke-miterlimit="10" stroke-width="0.308"/>
                      <path id="Trazado_58341" data-name="Trazado 58341" d="M310.234,241.21s-1.678,2.546-2.306,3.225-3.149,2.577-3.149,2.577" fill="none" stroke="#4d5fe2" stroke-miterlimit="10" stroke-width="0.308"/>
                    </g>
                    <path id="Trazado_58342" data-name="Trazado 58342" d="M131.268,344.416l23.391,23.962s-7.031,14.588-7.369,16.617c-.5,2.995,1.854,7.345,1.854,7.345l16.165-24.532L150.856,342.99Z" fill="#6674ff"/>
                    <g id="Grupo_29420" data-name="Grupo 29420">
                      <path id="Trazado_58343" data-name="Trazado 58343" d="M217.037,368.378s34.991,117.338,36.893,128.368-1.521,137.305,1.141,150.617c-13.692.761-16.735,0-16.735,0s-25.1-76.45-21.3-130.079c0-14.833-7.227-30.427-19.018-52.107s-15.594-25.1-15.594-25.1-34.231-25.1-15.594-53.629" fill="#ff9400"/>
                      <path id="Trazado_58344" data-name="Trazado 58344" d="M164.263,368.378s-20.539,16.26-19.968,35.658c.856,11.981,7.7,28.526,7.7,28.526s6.276,58.478,4.564,67.607-18.256,29.667-14.833,85.958c0,9.889.211,55.911-.465,57.052,5.409,1.141,17.58,0,17.58,0s30.428-120.253,33.851-137.147,8.368-62.915,8.368-62.915l14.549-79.493Z" fill="#ff9400"/>
                      <path id="Trazado_58345" data-name="Trazado 58345" d="M198.019,465.177c-11.791-21.68-15.594-25.1-15.594-25.1s-34.231-25.1-15.594-53.629" fill="none" stroke="#ff4800" stroke-miterlimit="10" stroke-width="1.076"/>
                    </g>
                    <path id="Trazado_58346" data-name="Trazado 58346" d="M217.037,368.378c-4.7,3.994-9.562,2.145-16.979,2.853s-21.817.137-29.941,0-11-1.415-6.983-6.413c3.97-5-4.724-24.395-4.724-24.395l-4.7-52.488,11.411-21.589,23.391,1.621h7.6l20.927,43.656a20.126,20.126,0,0,1-.5,2.008,26.523,26.523,0,0,1-8.01,12.483l-.045.046c3.993,22.821,5.568,31.378,6.983,32.793C216.9,360.391,221.738,364.385,217.037,368.378Z" fill="#010089"/>
                    <path id="Trazado_58347" data-name="Trazado 58347" d="M188.307,246.206s.584,19.478,7.81,21.761c-2.852,4.754-10.079,6.723-21.87,1.555a182.068,182.068,0,0,1-1.711-30.082l12.431.951Z" fill="#6674ff"/>
                    <path id="Trazado_58348" data-name="Trazado 58348" d="M289.315,249.275c-.024.206-31.387,27.107-40.952,35-5.585,0-30.052-7.47-30.052-7.47l-3.991,29.809s31.142,4.231,40.451,1.185c9.11-2.982,34.582-37.19,44.3-51.789A106.33,106.33,0,0,1,289.315,249.275Z" fill="#6674ff"/>
                    <path id="Trazado_58349" data-name="Trazado 58349" d="M196.117,267.967s17.068,5.277,26.054,7.131c0,9.128-1.711,36.228-2.282,39.081-7.132-.856-21.164-3.711-31.379-10.555" fill="#010089"/>
                    <path id="Trazado_58350" data-name="Trazado 58350" d="M219.889,314.179c-7.132-.856-21.164-3.711-31.379-10.555" fill="none" stroke="#00101e" stroke-miterlimit="10" stroke-width="1.141"/>
                    <path id="Trazado_58351" data-name="Trazado 58351" d="M188.307,246.206s-4.5-.812-6.572-2.238c1.958,3.626,6.775,5.307,6.775,5.307Z" fill="#4d5fe2"/>
                    <path id="Trazado_58352" data-name="Trazado 58352" d="M194.387,203.741a12.791,12.791,0,0,0-1.733-6.1c-2.252-3.7-7.481-8.821-18.977-7.832-17.686,1.522-27.005,13.693-31.379,32.52s-7.7,31.949-29.1,42.5S56.72,329.012,139.16,348.41c27.385,5.7,39.937-15.119,39.366-38.51s-.285-23.106,3.138-30.808,11.981-26.529-7.7-44.216C189.05,223.56,194.977,217.588,194.387,203.741Z" fill="#03036d"/>
                    <path id="Trazado_58353" data-name="Trazado 58353" d="M194.216,201.216s17.115,29.667,1.711,44.5c-2.282.856-15.689,3.138-21.965-10.84-2.567-.285-9.984-7.987-4.279-12.551,2.242-1.121,5.481-1.185,7.135,1.053a2.96,2.96,0,0,0,4.105.875C186.065,220.562,194.064,210.646,194.216,201.216Z" fill="#6674ff"/>
                    <path id="Trazado_58354" data-name="Trazado 58354" d="M289.631,247.012a9.329,9.329,0,0,1-1.471,3.31c.057,1.463,1.155,1.406,1.155,1.406Z" fill="#6674ff"/>
                  </g>
                </g>
              </g>
            </g>
            <g id="Grupo_29425" data-name="Grupo 29425">
              <path id="Trazado_58355" data-name="Trazado 58355" d="M115.588,190.765l10.9,2.521-3.137-9.509s11.348-18.07-3.827-31.654c-12.8-11.455-35.721-7.589-42.874,8.65A24.958,24.958,0,0,0,99.278,196.2C105.049,196.235,111.162,194.607,115.588,190.765Z" fill="#2f36ac" opacity="0.3"/>
              <path id="Trazado_58356" data-name="Trazado 58356" d="M110.861,167.675l2.331-1.31a13.32,13.32,0,0,0-3.535-4.583l-1.859,1.923a10.482,10.482,0,0,0-2.8-1.61l.724-2.577a13.008,13.008,0,0,0-5.742-.741l.046,2.677a10.5,10.5,0,0,0-3.119.845l-1.31-2.331a13.3,13.3,0,0,0-4.582,3.536l1.922,1.858a10.509,10.509,0,0,0-1.61,2.8l-2.577-.723a13.005,13.005,0,0,0-.741,5.741l2.677-.045a10.51,10.51,0,0,0,.845,3.119l-2.33,1.309a13.287,13.287,0,0,0,3.535,4.583l1.858-1.923a10.5,10.5,0,0,0,2.8,1.61l-.723,2.577a13.007,13.007,0,0,0,5.742.741l-.046-2.677a10.51,10.51,0,0,0,3.119-.845l1.309,2.331a13.292,13.292,0,0,0,4.583-3.536l-1.922-1.858a10.494,10.494,0,0,0,1.609-2.8l2.577.723a12.967,12.967,0,0,0,.741-5.741l-2.677.045A10.5,10.5,0,0,0,110.861,167.675Zm-10.416,10.1a5.863,5.863,0,1,1,6.565-5.065A5.864,5.864,0,0,1,100.445,177.78Z" fill="#e0ebf7"/>
            </g>
          </g>
        </g>
        <g id="Grupo_29435" data-name="Grupo 29435">
          <g id="Grupo_29433" data-name="Grupo 29433">
            <path id="Trazado_58357" data-name="Trazado 58357" d="M648.785,370.222s8.413,28.644,6.173,42.6-2.844,20.652-2.844,20.652h-107l20.209-74.11Z" fill="#ff9400"/>
            <path id="Trazado_58358" data-name="Trazado 58358" d="M562.57,352.25l-.234,4.485a26.547,26.547,0,0,0-1.713,5.843c-.089,1.883-2.7,9.864,36.221,7.174a354.664,354.664,0,0,1,43.177.548c10.814.8,12.565-.548,12.093-5.122s.095-5.811.095-5.811Z" fill="#010089"/>
            <g id="Grupo_29432" data-name="Grupo 29432">
              <g id="Grupo_29428" data-name="Grupo 29428">
                <path id="Trazado_58359" data-name="Trazado 58359" d="M555.731,255.876l-26.455,22.855-35.887-17.188s-5.533-9.857-8.354-11.257-15.384-7.535-18.976-8.632-1.127,2.4,2.04,4.792a18.4,18.4,0,0,1,5.206,5.7c1.423,2.066,3.639,8.059,3.17,8.308s-5.554.78-8.3-1.417-6.675-3.772-5.47-1.284,6.984,9.872,18.739,12.226c3.2.613,11.653,9.341,21.633,17.64s19.341,16.857,27.7,17.688,38.17-26.464,38.17-26.464Z" fill="#6674ff"/>
                <path id="Trazado_58360" data-name="Trazado 58360" d="M471.086,243.684s6.323,4.912,7.393,6.055,3.455,6.191,3.455,6.191" fill="none" stroke="#4d5fe2" stroke-miterlimit="10" stroke-width="0.589"/>
                <path id="Trazado_58361" data-name="Trazado 58361" d="M478.468,247.1s4.423,3.423,5.22,4.341,2.909,4.484,2.909,4.484" fill="none" stroke="#4d5fe2" stroke-miterlimit="10" stroke-width="0.589"/>
              </g>
              <path id="Trazado_58362" data-name="Trazado 58362" d="M622.441,276.532" fill="#010089"/>
              <path id="Trazado_58363" data-name="Trazado 58363" d="M596.844,234.345s-19.94,1.755-25.505,4.125c-4.218,2.839-30.238,26.686-30.238,26.686s14.03,26.355,25.976,33.37c9.48,2.275,18.77-8.722,20.287-11.187S596.844,234.345,596.844,234.345Z" fill="#010089"/>
              <path id="Trazado_58364" data-name="Trazado 58364" d="M567.14,263.576c0,1.137-4.8,93.159-4.8,93.159l89.873,2.632L648.8,273.6,627.56,237l-30.716-2.654Z" fill="#010089"/>
              <g id="Grupo_29430" data-name="Grupo 29430">
                <g id="Grupo_29429" data-name="Grupo 29429">
                  <path id="Trazado_58365" data-name="Trazado 58365" d="M585.941,204.084s-9.807.26-9.887-13.4,13.019-13.163,13.019-13.163c-1.439-4.639,10.685-12.176,18.847-6.011,4.02-3.081,11.533.857,11.424,4.592,4.132-3.171,22.213,3.145,16.608,20.362,5.5.592,7.363,18.122-7.093,17.806a121.992,121.992,0,0,1-27.625-4.415Z" fill="#010089"/>
                  <path id="Trazado_58366" data-name="Trazado 58366" d="M585.82,206.15s-2.364,25.788,24.314,23.286a9.452,9.452,0,0,0,1.505-.259c8.4-2.234,11.725-9.824,12.63-13.529,1.934.868,9.358-2.015,4.641-9.082-2.564-3.517-6.58.537-7.978,6.24-.986-4.473-.037-8.07-2.106-10.592-1.956,1.4-8.042,4.175-11.392-.726-4.442,2.018-11.865,4.9-15.432-3.3a11.063,11.063,0,0,1-5.384,2.51A19.135,19.135,0,0,0,585.82,206.15Z" fill="#6674ff"/>
                </g>
                <path id="Trazado_58367" data-name="Trazado 58367" d="M623.987,216.656s-4.39,15.7,3.573,20.343c-3.887,5.689-12.608,12.42-22.468,8.912s-8.248-11.566-8.248-11.566,5.594-2.18,5.4-6.257C606.988,224.012,623.987,216.656,623.987,216.656Z" fill="#6674ff"/>
              </g>
              <line id="Línea_156" data-name="Línea 156" x1="1.802" y2="35.665" transform="translate(565.319 264.208)" fill="none" stroke="#00101e" stroke-miterlimit="10" stroke-width="0.758"/>
              <path id="Trazado_58368" data-name="Trazado 58368" d="M598.551,288.667s28.2-1.872,40.765-5.689c11,47.022,15.642,60.611,15.642,60.611l-46.028,6.32Z" fill="#eaeaea"/>
              <path id="Trazado_58369" data-name="Trazado 58369" d="M582.552,299.15s32.383-6.215,44.2-11.93c18.144,44.753,20.028,57.458,20.028,57.458l-44.495,13.37Z" fill="#fff"/>
              <path id="Trazado_58370" data-name="Trazado 58370" d="M654.5,258.382s20.61,34.66,14,82.028c-1.307,9.376-24.26,10.621-57.378-4.926-4.993-2.149-.838-10.947,1.272-10.792,24.816,1.821,34.407,1.327,34.407,1.327s-3.784-24.238-4.517-29S654.5,258.382,654.5,258.382Z" fill="#6674ff"/>
              <g id="Grupo_29431" data-name="Grupo 29431">
                <path id="Trazado_58371" data-name="Trazado 58371" d="M633.248,314.263c34.319,5.688,43.42-8.857,43.42-8.857s-12.135-49.088-20.478-55.42c-3.7-2.81-28.63-12.987-28.63-12.987l7.774,13.557-5.214,27.818,3.128,35.889" fill="#010089"/>
                <path id="Trazado_58372" data-name="Trazado 58372" d="M676.668,305.406s-9.1,14.545-43.42,8.857l-2.59-32.223" fill="none" stroke="#00101e" stroke-miterlimit="10" stroke-width="0.758"/>
              </g>
              <path id="Trazado_58373" data-name="Trazado 58373" d="M602.875,319.232c-5.125-.426-8.273-4.684-9.6-4.34-4.329,1.126,2.471,7.906,3.511,9.146-1.942-.725-6.65-3.265-7.606-5.259s-5.1,4.113.174,9.933c0,0,5.421,6.043,10.8,5.617a35.9,35.9,0,0,1,10.966,1.155l1.851-6.128-.579-4.664S606.864,319.564,602.875,319.232Z" fill="#6674ff"/>
            </g>
            <line id="Línea_157" data-name="Línea 157" x2="2.641" y2="38.858" transform="translate(596.844 394.064)" fill="none" stroke="#ff4800" stroke-miterlimit="10" stroke-width="1.076"/>
          </g>
          <g id="Grupo_29434" data-name="Grupo 29434">
            <path id="Trazado_58374" data-name="Trazado 58374" d="M657.883,180.528l-11.1,1.412,4.076-9.145s-9.473-19.119,6.989-31.109c13.884-10.111,36.3-3.96,41.788,12.915a24.958,24.958,0,0,1-26.07,32.971C667.819,187.03,661.9,184.8,657.883,180.528Z" fill="#2f36ac" opacity="0.3"/>
            <path id="Trazado_58375" data-name="Trazado 58375" d="M664.187,158.188l4.166,14.161,21.726-9.66" fill="none" stroke="#e0ebf7" stroke-linecap="round" stroke-linejoin="round" stroke-width="5"/>
          </g>
          <path id="Trazado_58376" data-name="Trazado 58376" d="M602.135,229.285s12.352,1.591,18.837-6.491c-1.115,3.823-2.729,12-21.393,10.032C601.037,231.488,602.023,230.47,602.135,229.285Z" fill="#4d5fe2"/>
        </g>
        <path id="Trazado_58377" data-name="Trazado 58377" d="M692.476,433.477H74.353" fill="none" stroke="#010089" stroke-linecap="round" stroke-linejoin="round" stroke-width="3"/>
      </g>
    </g>
    <rect id="Rectángulo_568" data-name="Rectángulo 568" width="784" height="3.138" transform="translate(583 1680.138)" fill="#7cb342"/>
  </g>
</svg>
