<svg xmlns="http://www.w3.org/2000/svg" width="774.021" height="391.605" viewBox="0 0 774.021 391.605">
  <g id="Grupo_29509" data-name="Grupo 29509" transform="translate(-216.758 -1108.137)">
    <path id="Trazado_58495" data-name="Trazado 58495" d="M1107.126,1767.665l-76.693.139a2.659,2.659,0,0,1-.234-5.123l76.386-6.86c6.2-.557,11.851,1.844,12.012,5.385S1113.353,1767.653,1107.126,1767.665Z" transform="translate(-317.723 -278.607)" fill="#75a1de"/>
    <g id="Grupo_29488" data-name="Grupo 29488" transform="translate(585.996 1432.226)">
      <path id="Trazado_58496" data-name="Trazado 58496" d="M927.642,1727.916c2.643-.661,7.491-15.128,7.491-15.128s-55.384-18.674-78.874-30.845l-32.724,37.852C865.571,1730.266,925.681,1728.406,927.642,1727.916Z" transform="translate(-823.535 -1681.943)" fill="#f09959"/>
      <path id="Trazado_58497" data-name="Trazado 58497" d="M978.16,1720.343c13.63,3.525,35.314-5.288,39.366-4.406s21,9.693,25.049,14.1,18.418,18.066,15.84,18.947-20.629-12.337-22.839-12.778-3.315,2.644-21.365,6.169-39.87-5.581-39.87-5.581Z" transform="translate(-882.572 -1695.226)" fill="#f09959"/>
      <path id="Trazado_58498" data-name="Trazado 58498" d="M1016.252,1742.766s21-5.287,23.575-4.406,18.234,4.406,29.1,16.744c-10.314-3.085-25.049-3.966-29.1-3.966S1016.252,1742.766,1016.252,1742.766Z" transform="translate(-898.979 -1703.99)" fill="#e38540"/>
      <path id="Trazado_58499" data-name="Trazado 58499" d="M1002.312,1731.183c8.967,11.457,31.728,14.981,35.176,18.946s-8.292,2.282-14.485,1.763c-15.764-1.322-26.776,5.067-39.536,1.1s-15.643-13.439-15.643-13.439Z" transform="translate(-880.021 -1701.219)" fill="#f09959"/>
    </g>
    <path id="Trazado_58500" data-name="Trazado 58500" d="M695.431,1395.921c-40.444,19.873-58.949,34.413-71.507,88.608s-13.218,105.746-6.609,144.078c44.891,1.3,173.556,6.151,173.556,6.151s-2.451-78.7-15.6-140.977c-12.557-59.482-30.4-82.614-45.6-93.189S695.431,1395.921,695.431,1395.921Z" transform="translate(-155.186 -137.103)" fill="#a2dff2"/>
    <path id="Trazado_58501" data-name="Trazado 58501" d="M705.221,1598.88c-14.5-14.538-10.574-113.016-34.368-157.3L626.572,1524.2l-13.386,68.739a311.645,311.645,0,0,0,4.133,54.19,1.76,1.76,0,0,0,1.893,1.445c36.555-3.2,38.592-19.088,155.359-36.713C777.327,1611.442,715.086,1608.773,705.221,1598.88Z" transform="translate(-155.19 -155.622)" fill="#96cfe0"/>
    <path id="Trazado_58502" data-name="Trazado 58502" d="M741.181,1395.867c-5.124,11.956,5.287,27.613,21.738,39.95s26.438,5.581,25.557-4.112-1.762-19.975-5.581-26.145-34.369-11.456-34.369-11.456S742.062,1393.811,741.181,1395.867Z" transform="translate(-204.785 -137.029)" fill="#fff"/>
    <path id="Trazado_58503" data-name="Trazado 58503" d="M763.448,1298.525l-15.685,59.911a13.728,13.728,0,0,0,1.142,12.159c6.388,10.317,20.129,30.141,29.965,27.518,13.219-3.525,4.406-28.2,4.406-28.2l17.625-62.135Z" transform="translate(-207.518 -99.618)" fill="#f09959"/>
    <path id="Trazado_58504" data-name="Trazado 58504" d="M800.519,1300.527l-15.66-6.338-4.7,12.23c2.158,52.072,8.791,73.325,18.976,79.249.548-8.032-2.816-17.452-2.816-17.452l12.778-46.272Z" transform="translate(-220.557 -97.92)" fill="#e38540"/>
    <path id="Trazado_58505" data-name="Trazado 58505" d="M844.368,1312.719c-3.054,20.68-11.2,38.4-25.974,36.218s-40.133-19.488-37.078-40.168,36.211-45.444,50.983-43.263S847.422,1292.039,844.368,1312.719Z" transform="translate(-220.912 -86.639)" fill="#f09959"/>
    <path id="Trazado_58506" data-name="Trazado 58506" d="M644.126,1467.385c1.178-4.7-17.634-7.5-20.627-3.7-29.594,37.638-75.627,139.316-65.292,157.69,11.9,21.15,140.066-6.625,142.71-7.286s-4.627-20.49-4.627-20.49-71.823,1.322-83.94-6.829C650.022,1516.055,635.2,1502.975,644.126,1467.385Z" transform="translate(-133.089 -163.579)" fill="#f09959"/>
    <path id="Trazado_58507" data-name="Trazado 58507" d="M646.738,1435.408c-31.087,13.936-64.769,104.425-64.769,104.425s7.931,1.983,33.707,10.574c10.714,3.571,21.1,6.884,21.1,6.884s24.675-32.019,32.436-57.114C679.207,1467.853,665.905,1426.816,646.738,1435.408Z" transform="translate(-142.971 -152.752)" fill="#a2dff2"/>
    <g id="Grupo_29489" data-name="Grupo 29489" transform="translate(442.331 1362.831)">
      <path id="Trazado_58508" data-name="Trazado 58508" d="M587.447,1589.386c29.076,3.75,46.451,13.874,55.279,20.79,1.327-1.846,2.932-4.125,4.707-6.733a72.1,72.1,0,0,0-38.773-18.656c-7.857-1.1-13.839-1.807-18.38-2.261C589.208,1585.073,588.259,1587.38,587.447,1589.386Z" transform="translate(-587.447 -1573.628)" fill="#fff"/>
      <path id="Trazado_58509" data-name="Trazado 58509" d="M597.479,1567.9q-.748,1.694-1.448,3.307c25.54-1.022,50.046,11.42,56.234,19.015l1.938,2.378q.961-1.472,1.951-3.028c-4.19-4.126-11.632-10.751-19.164-14.038C621.571,1568.81,599.464,1567.968,597.479,1567.9Z" transform="translate(-590.807 -1567.904)" fill="#fff"/>
    </g>
    <path id="Trazado_58510" data-name="Trazado 58510" d="M855.751,1681.759H823.145l-4.847-60.882h42.741Z" transform="translate(-235.489 -225.811)" fill="#75a1de"/>
    <path id="Trazado_58511" data-name="Trazado 58511" d="M770.913,1665.671c9.033-.22,23.794-10.575,28.861-13.439s33.708-9.033,35.03-5.948-24.015,9.473-24.015,9.473l18.948.882s5.508,8.372,5.948,13.879-1.763,13.439-1.763,13.439l-8.372-7.49s-6.83,3.745-15.422,8.813-24.014,1.983-30.623.661-22.032-6.169-22.032-6.169Z" transform="translate(-211.678 -235.427)" fill="#f09959"/>
    <path id="Trazado_58512" data-name="Trazado 58512" d="M585.5,1664.95s14.614-8.445,29.3-6.389c8.417,1.179,9.329,2.551,8.812,2.2q2.729-5.123,5.1-9.848C621.058,1651.272,601.441,1653.341,585.5,1664.95Z" transform="translate(-144.354 -237.571)" fill="#e38540"/>
    <path id="Trazado_58513" data-name="Trazado 58513" d="M1310.287,1503.453v150.036c0,4.988-4.7,9.032-10.5,9.032h-31.5c-5.375,0-9.733,3.748-9.733,8.372h45.334c9.76,0,17.672-6.806,17.672-15.2V1503.453Z" transform="translate(-407.837 -179.842)" fill="#6791c9"/>
    <path id="Trazado_58514" data-name="Trazado 58514" d="M1299.39,1609.3l-5-.952c-3.3-.629-5.4-3.466-4.672-6.3l39.2-152.3c.731-2.839,4.03-4.649,7.33-4.019l5,.953c3.3.628,5.4,3.466,4.673,6.3l-39.2,152.295C1305.99,1608.119,1302.691,1609.928,1299.39,1609.3Z" transform="translate(-419.981 -157.195)" fill="#95bef5"/>
    <path id="Trazado_58515" data-name="Trazado 58515" d="M1305.18,1610.285l-.589-.111c-2.549-.486-4.173-2.677-3.609-4.87l39.809-154.646c.564-2.193,3.112-3.59,5.661-3.1l.589.113c2.549.486,4.173,2.677,3.609,4.87l-39.809,154.645C1310.277,1609.374,1307.729,1610.771,1305.18,1610.285Z" transform="translate(-424.405 -157.921)" fill="#75a1de"/>
    <path id="Trazado_58516" data-name="Trazado 58516" d="M1042.61,1785.636H369.2a5.641,5.641,0,0,1,0-11.283H1042.61a5.641,5.641,0,0,1,0,11.283Z" transform="translate(-57.471 -285.893)" fill="#2e5b9a"/>
    <path id="Trazado_58517" data-name="Trazado 58517" d="M772.863,1256.072c-30.513,18.926-11.2,39.4-19.312,74.543,4.984,1.706,10.428-8.111,13.9-15.835s6.566-18.926,7.725-18.54,3.089,17.767,3.089,17.767l4.635,2.317s6.566-11.588,6.18-14.291-5.794-15.836.773-22.016c4.218-3.971,21.629,4.635,21.629,4.635l-16.994-24.333Z" transform="translate(-210.142 -82.999)" fill="#f09959"/>
    <path id="Trazado_58518" data-name="Trazado 58518" d="M772.863,1256.072c-30.513,18.926-11.2,39.4-19.312,74.543,4.984,1.706,10.428-8.111,13.9-15.835s6.566-18.926,7.725-18.54,3.089,17.767,3.089,17.767l4.635,2.317s6.566-11.588,6.18-14.291-5.794-15.836.773-22.016c4.218-3.971,21.629,4.635,21.629,4.635l-16.994-24.333Z" transform="translate(-210.142 -82.999)" fill="#2e5b9a" opacity="0.5"/>
    <path id="Trazado_58519" data-name="Trazado 58519" d="M838.842,1264.8c-1.545,18.539-30.283,12.738-43.645-3.862-12.746-15.836-23.232-4.921-35.92.386-21.243,8.883,2.7-42.486,45.576-34.375C837.019,1233.035,839.87,1252.46,838.842,1264.8Z" transform="translate(-209.302 -71.256)" fill="#2e5b9a"/>
    <path id="Trazado_58520" data-name="Trazado 58520" d="M779.406,1314.948c1.318,6.915-1.266,13.217-5.771,14.076s-9.226-4.051-10.544-10.966,1.266-13.217,5.771-14.075S778.087,1308.034,779.406,1314.948Z" transform="translate(-213.742 -101.717)" fill="#f09959"/>
    <g id="Grupo_29507" data-name="Grupo 29507" transform="translate(738.391 1161.702)">
      <path id="Rectángulo_6058" data-name="Rectángulo 6058" d="M5.074,0H150.241a5.074,5.074,0,0,1,5.074,5.074V87.455a5.074,5.074,0,0,1-5.074,5.074H5.073A5.073,5.073,0,0,1,0,87.456V5.074A5.074,5.074,0,0,1,5.074,0Z" transform="translate(0 0)" fill="#9ec8ff"/>
      <rect id="Rectángulo_6059" data-name="Rectángulo 6059" width="145.795" height="74.812" rx="4.42" transform="translate(4.76 14.88)" fill="#fff"/>
      <g id="Grupo_29490" data-name="Grupo 29490" transform="translate(6.416 5.225)">
        <path id="Rectángulo_6060" data-name="Rectángulo 6060" d="M2.062,0H3.728A2.061,2.061,0,0,1,5.79,2.061V3.149A2.061,2.061,0,0,1,3.728,5.21H2.062A2.062,2.062,0,0,1,0,3.149V2.062A2.062,2.062,0,0,1,2.062,0Z" fill="#fff"/>
        <path id="Rectángulo_6061" data-name="Rectángulo 6061" d="M2.062,0H3.728A2.061,2.061,0,0,1,5.79,2.061V3.149A2.062,2.062,0,0,1,3.728,5.21H2.062A2.062,2.062,0,0,1,0,3.149V2.062A2.062,2.062,0,0,1,2.062,0Z" transform="translate(10.526)" fill="#fff"/>
        <path id="Rectángulo_6062" data-name="Rectángulo 6062" d="M2.062,0H3.728A2.061,2.061,0,0,1,5.79,2.061V3.149A2.061,2.061,0,0,1,3.728,5.21H2.061A2.061,2.061,0,0,1,0,3.149V2.062A2.062,2.062,0,0,1,2.062,0Z" transform="translate(21.053)" fill="#fff"/>
      </g>
      <g id="Grupo_29502" data-name="Grupo 29502" transform="translate(9.704 19.29)">
        <g id="Grupo_29491" data-name="Grupo 29491">
          <path id="Trazado_58521" data-name="Trazado 58521" d="M1225.824,1335.078H1089.916v-65.994h135.908Zm-135.421-.487h134.934v-65.02H1090.4Z" transform="translate(-1089.916 -1269.084)" fill="#9ec8ff"/>
        </g>
        <g id="Grupo_29492" data-name="Grupo 29492" transform="translate(0.244 52.405)">
          <rect id="Rectángulo_6063" data-name="Rectángulo 6063" width="135.421" height="0.487" fill="#9ec8ff"/>
        </g>
        <g id="Grupo_29493" data-name="Grupo 29493" transform="translate(0.244 39.304)">
          <rect id="Rectángulo_6064" data-name="Rectángulo 6064" width="135.421" height="0.487" fill="#9ec8ff"/>
        </g>
        <g id="Grupo_29494" data-name="Grupo 29494" transform="translate(0.244 26.202)">
          <rect id="Rectángulo_6065" data-name="Rectángulo 6065" width="135.421" height="0.487" fill="#9ec8ff"/>
        </g>
        <g id="Grupo_29495" data-name="Grupo 29495" transform="translate(0.244 13.101)">
          <rect id="Rectángulo_6066" data-name="Rectángulo 6066" width="135.421" height="0.487" fill="#9ec8ff"/>
        </g>
        <g id="Grupo_29496" data-name="Grupo 29496" transform="translate(116.075 0.243)">
          <rect id="Rectángulo_6067" data-name="Rectángulo 6067" width="0.487" height="65.507" fill="#9ec8ff"/>
        </g>
        <g id="Grupo_29497" data-name="Grupo 29497" transform="translate(96.729 0.243)">
          <rect id="Rectángulo_6068" data-name="Rectángulo 6068" width="0.487" height="65.507" fill="#9ec8ff"/>
        </g>
        <g id="Grupo_29498" data-name="Grupo 29498" transform="translate(77.383 0.243)">
          <rect id="Rectángulo_6069" data-name="Rectángulo 6069" width="0.487" height="65.507" fill="#9ec8ff"/>
        </g>
        <g id="Grupo_29499" data-name="Grupo 29499" transform="translate(58.038 0.243)">
          <rect id="Rectángulo_6070" data-name="Rectángulo 6070" width="0.487" height="65.507" fill="#9ec8ff"/>
        </g>
        <g id="Grupo_29500" data-name="Grupo 29500" transform="translate(38.692 0.243)">
          <rect id="Rectángulo_6071" data-name="Rectángulo 6071" width="0.487" height="65.507" fill="#9ec8ff"/>
        </g>
        <g id="Grupo_29501" data-name="Grupo 29501" transform="translate(19.346 0.243)">
          <rect id="Rectángulo_6072" data-name="Rectángulo 6072" width="0.487" height="65.507" fill="#9ec8ff"/>
        </g>
      </g>
      <path id="Trazado_58522" data-name="Trazado 58522" d="M1299.569,1279.015h-4.553a3.158,3.158,0,1,1,0-6.316h4.553a3.158,3.158,0,1,1,0,6.316Z" transform="translate(-1159.268 -1251.209)" fill="#f39892"/>
      <path id="Rectángulo_6073" data-name="Rectángulo 6073" d="M2.474,0H8.394a2.475,2.475,0,0,1,2.475,2.475V3.842A2.474,2.474,0,0,1,8.4,6.315H2.474A2.474,2.474,0,0,1,0,3.841V2.474A2.474,2.474,0,0,1,2.474,0Z" transform="translate(132.59 47.928)" fill="#f39892"/>
      <path id="Rectángulo_6074" data-name="Rectángulo 6074" d="M3.529,0h7.922a3.53,3.53,0,0,1,3.53,3.53V5.8a3.529,3.529,0,0,1-3.529,3.529H3.53A3.53,3.53,0,0,1,0,5.8V3.529A3.529,3.529,0,0,1,3.529,0Z" transform="translate(31.245 34.489)" fill="#9ec8ff"/>
      <rect id="Rectángulo_6075" data-name="Rectángulo 6075" width="10.761" height="6.7" rx="2.535" transform="translate(33.356 35.802)" fill="#fff"/>
      <path id="Rectángulo_6076" data-name="Rectángulo 6076" d="M3.529,0h7.923a3.529,3.529,0,0,1,3.529,3.529V5.8a3.529,3.529,0,0,1-3.529,3.529H3.53A3.53,3.53,0,0,1,0,5.8V3.529A3.529,3.529,0,0,1,3.529,0Z" transform="translate(108.796 73.704)" fill="#9ec8ff"/>
      <path id="Rectángulo_6077" data-name="Rectángulo 6077" d="M2.535,0H8.226a2.535,2.535,0,0,1,2.535,2.535V4.164A2.536,2.536,0,0,1,8.225,6.7H2.535A2.535,2.535,0,0,1,0,4.165V2.535A2.535,2.535,0,0,1,2.535,0Z" transform="translate(110.907 75.018)" fill="#fff"/>
      <path id="Trazado_58523" data-name="Trazado 58523" d="M1206.16,1297.2h-8.372a1.028,1.028,0,1,1,0-2.056h8.372a1.028,1.028,0,0,1,0,2.056Z" transform="translate(-1122.039 -1259.997)" fill="#9ec8ff"/>
      <path id="Trazado_58524" data-name="Trazado 58524" d="M1206.16,1302.512h-8.372a1.028,1.028,0,1,1,0-2.056h8.372a1.028,1.028,0,0,1,0,2.056Z" transform="translate(-1122.039 -1262.076)" fill="#9ec8ff"/>
      <path id="Trazado_58525" data-name="Trazado 58525" d="M1175.748,1361.284h-8.372a1.028,1.028,0,1,1,0-2.056h8.372a1.028,1.028,0,0,1,0,2.056Z" transform="translate(-1110.134 -1285.084)" fill="#9ec8ff"/>
      <path id="Trazado_58526" data-name="Trazado 58526" d="M1175.748,1366.6h-8.372a1.028,1.028,0,1,1,0-2.056h8.372a1.028,1.028,0,0,1,0,2.056Z" transform="translate(-1110.134 -1287.163)" fill="#9ec8ff"/>
      <path id="Trazado_58527" data-name="Trazado 58527" d="M1104.425,1321.1h-8.372a1.028,1.028,0,1,1,0-2.056h8.372a1.028,1.028,0,0,1,0,2.056Z" transform="translate(-1082.212 -1269.351)" fill="#9ec8ff"/>
      <path id="Trazado_58528" data-name="Trazado 58528" d="M1104.425,1326.408h-8.372a1.028,1.028,0,1,1,0-2.056h8.372a1.028,1.028,0,0,1,0,2.056Z" transform="translate(-1082.212 -1271.43)" fill="#9ec8ff"/>
      <path id="Trazado_58529" data-name="Trazado 58529" d="M1237.3,1297.2h-8.372a1.028,1.028,0,1,1,0-2.056h8.372a1.028,1.028,0,1,1,0,2.056Z" transform="translate(-1134.228 -1259.997)" fill="#9ec8ff"/>
      <path id="Trazado_58530" data-name="Trazado 58530" d="M1237.3,1302.512h-8.372a1.028,1.028,0,1,1,0-2.056h8.372a1.028,1.028,0,1,1,0,2.056Z" transform="translate(-1134.228 -1262.076)" fill="#9ec8ff"/>
      <g id="Grupo_29504" data-name="Grupo 29504" transform="translate(31.025 61.001)">
        <path id="Rectángulo_6078" data-name="Rectángulo 6078" d="M3.206,0H13.1A3.205,3.205,0,0,1,16.3,3.205v3.06A3.205,3.205,0,0,1,13.1,9.47H3.205A3.205,3.205,0,0,1,0,6.265V3.206A3.206,3.206,0,0,1,3.206,0Z" fill="#9cd499"/>
        <g id="Grupo_29503" data-name="Grupo 29503" transform="translate(3.981 1.11)">
          <path id="Trazado_58531" data-name="Trazado 58531" d="M1134.79,1346.253h-.036a.978.978,0,0,1-.695-.33l-2.32-2.636A.974.974,0,1,1,1133.2,1342l1.641,1.865,4.222-4.132a.974.974,0,1,1,1.363,1.392l-4.956,4.851A.973.973,0,0,1,1134.79,1346.253Z" transform="translate(-1131.496 -1339.454)" fill="#fff"/>
        </g>
      </g>
      <g id="Grupo_29506" data-name="Grupo 29506" transform="translate(88.968 21.124)">
        <path id="Rectángulo_6079" data-name="Rectángulo 6079" d="M3.206,0H13.1A3.205,3.205,0,0,1,16.3,3.205v3.06A3.205,3.205,0,0,1,13.1,9.47H3.205A3.205,3.205,0,0,1,0,6.265V3.206A3.206,3.206,0,0,1,3.206,0Z" fill="#9cd499"/>
        <g id="Grupo_29505" data-name="Grupo 29505" transform="translate(3.981 1.111)">
          <path id="Trazado_58532" data-name="Trazado 58532" d="M1230.009,1280.722h-.036a.976.976,0,0,1-.695-.33l-2.32-2.636a.974.974,0,0,1,1.462-1.287l1.642,1.866,4.222-4.132a.974.974,0,1,1,1.362,1.392l-4.956,4.851A.972.972,0,0,1,1230.009,1280.722Z" transform="translate(-1226.715 -1273.924)" fill="#fff"/>
        </g>
      </g>
      <path id="Trazado_58533" data-name="Trazado 58533" d="M1234.416,1342.033a4.406,4.406,0,1,1-4.406-4.406A4.405,4.405,0,0,1,1234.416,1342.033Z" transform="translate(-1133.331 -1276.627)" fill="#9ec8ff"/>
      <path id="Trazado_58534" data-name="Trazado 58534" d="M1140.646,1364.118a4.406,4.406,0,1,1-4.406-4.406A4.406,4.406,0,0,1,1140.646,1364.118Z" transform="translate(-1096.622 -1285.273)" fill="#9ec8ff"/>
    </g>
    <g id="Grupo_29508" data-name="Grupo 29508" transform="translate(716.492 1240.838)">
      <path id="Rectángulo_6080" data-name="Rectángulo 6080" d="M2.509,0H90.494A2.508,2.508,0,0,1,93,2.508V50.673a2.509,2.509,0,0,1-2.509,2.509H2.509A2.509,2.509,0,0,1,0,50.673V2.509A2.509,2.509,0,0,1,2.509,0Z" transform="translate(0 0)" fill="#9ec8ff"/>
      <path id="Rectángulo_6081" data-name="Rectángulo 6081" d="M2.342,0H86.581a2.342,2.342,0,0,1,2.342,2.342V46.154A2.343,2.343,0,0,1,86.58,48.5H2.342A2.342,2.342,0,0,1,0,46.154V2.342A2.342,2.342,0,0,1,2.342,0Z" transform="translate(2.04 2.343)" fill="#fff"/>
      <rect id="Rectángulo_6082" data-name="Rectángulo 6082" width="84.009" height="42.552" rx="2.634" transform="translate(4.497 5.315)" fill="#9ec8ff"/>
      <circle id="Elipse_1400" data-name="Elipse 1400" cx="14.764" cy="14.764" r="14.764" transform="translate(31.737 11.827)" fill="#fff"/>
      <path id="Trazado_58535" data-name="Trazado 58535" d="M1118.932,1402.949a12.713,12.713,0,1,1-12.713-12.713A12.714,12.714,0,0,1,1118.932,1402.949Z" transform="translate(-1059.718 -1376.358)" fill="#9ec8ff"/>
      <path id="Trazado_58536" data-name="Trazado 58536" d="M1118.715,1406.56l-4.647,2.683-4.647,2.683v-10.732l4.647,2.684Z" transform="translate(-1065.948 -1380.648)" fill="#fff"/>
    </g>
    <path id="Trazado_58537" data-name="Trazado 58537" d="M989.168,1154.648H931.005a2.644,2.644,0,1,1,0-5.287h58.163a2.644,2.644,0,0,1,0,5.287Z" transform="translate(-278.576 -41.224)" fill="#9ec8ff"/>
    <path id="Trazado_58538" data-name="Trazado 58538" d="M1238.982,1521.767h-58.164a2.644,2.644,0,0,1,0-5.288h58.164a2.644,2.644,0,0,1,0,5.288Z" transform="translate(-376.372 -184.942)" fill="#9ec8ff"/>
    <path id="Trazado_58539" data-name="Trazado 58539" d="M1238.982,1537.7h-58.164a2.644,2.644,0,0,1,0-5.288h58.164a2.644,2.644,0,0,1,0,5.288Z" transform="translate(-376.372 -191.178)" fill="#9ec8ff"/>
    <path id="Trazado_58540" data-name="Trazado 58540" d="M1238.982,1555.075h-58.164a2.644,2.644,0,0,1,0-5.288h58.164a2.644,2.644,0,0,1,0,5.288Z" transform="translate(-376.372 -197.981)" fill="#9ec8ff"/>
    <path id="Trazado_58541" data-name="Trazado 58541" d="M1026.622,1171.3H931.005a2.644,2.644,0,1,1,0-5.287h95.617a2.644,2.644,0,1,1,0,5.287Z" transform="translate(-278.576 -47.744)" fill="#9ec8ff"/>
    <path id="Trazado_58542" data-name="Trazado 58542" d="M388.608,1415.5c-15.2,13.879-8.592,27.759,2.643,53.534s13.219,120.947,13.219,120.947l-9.253-1.322s1.321-97.815-11.236-124.251-17.845-39.655-29.08-31.063S388.608,1415.5,388.608,1415.5Z" transform="translate(-53.374 -145.413)" fill="#74b570"/>
    <path id="Trazado_58543" data-name="Trazado 58543" d="M343.585,1358.382c-1.846-8.226-12.81-17.125-27.47-24.674,2.18,12.131,9.169,31.966,1.936,36.035-9.755,5.487-.951-22.208-4.715-37.429a181.146,181.146,0,0,0-45.576-14.951c.022.057.039.11.061.167,8.592,21.811,19.827,30.4,15.2,33.707-3.481,2.486-14.818-22.707-29.788-35.622-11.237-.6-20.743.925-26.367,5.377-8.692,6.881-14.527,12.986-5.784,33.941a39.281,39.281,0,0,0,18.979,6.879c19.828,1.983,29.08,2.643,15.2,9.253-6.8,3.237-18.189-.183-27.425-2.265,3,5.521,6.679,11.77,11.155,18.889a70.171,70.171,0,0,0,9.29,11.821c6.39,1.224,11.961,1.239,14.911-.026,9.253-3.965,33.046-16.523,38.994-11.235,5.822,5.176-44.064,8.452-40.607,21.6,24.18,13.931,51.85,7.3,56.741-5.49C324.89,1387.182,349.143,1383.14,343.585,1358.382Z" transform="translate(0 -106.259)" fill="#9cd499"/>
    <path id="Trazado_58544" data-name="Trazado 58544" d="M343.028,1534.964c26.437-19.828,53.534-1.322,67.413,19.828s3.966,68.735,3.966,68.735-5.287,0-5.287-1.982,14.54-56.178-19.828-80.632c-21.5-15.3-37.012-7.932-38.994-.661s8.592,20.489,8.592,20.489Z" transform="translate(-49.432 -188.867)" fill="#74b570"/>
    <path id="Trazado_58545" data-name="Trazado 58545" d="M423.5,1473.429c-26.437,0-35.028,40.977-27.758,64.769s17.184,68.074,17.184,68.074l6.609-6.609s-25.115-62.126-19.167-89.885,20.488-32.385,23.132-32.385S423.5,1473.429,423.5,1473.429Z" transform="translate(-69.098 -168.089)" fill="#9cd499"/>
    <path id="Trazado_58546" data-name="Trazado 58546" d="M402.035,1576.408a19.135,19.135,0,0,0-6.959-5.848,52.16,52.16,0,0,0,1.373,5.663c3.312,10.842,7.173,25.933,10.4,39.154.293-1.694.744-4.3,1.441-8.327.164-.951.293-1.982.383-3.076A256.254,256.254,0,0,1,402.035,1576.408Z" transform="translate(-69.807 -206.113)" fill="#74b570"/>
    <path id="Trazado_58547" data-name="Trazado 58547" d="M332.309,1556.523c-50.229-21.15-23.766-50.171-68.047-31-3.119,1.35-6.92,4.754-10.726,9.448a32.987,32.987,0,0,0,14.031,1.126c13.218-1.983,8.592,8.591-13.218,11.235a48.95,48.95,0,0,0-10.22,2.157c-10.391,19.957-15.073,46.215,6.915,55.343a49.842,49.842,0,0,0,15.649,3.211c6.786-5.393-1.656-36.6,8.8-32.292,10.043,4.135-3.147,26.751-1.339,32.449a144.837,144.837,0,0,0,31.377-4.4c4.151-2.326,7.319-5.446,8.3-9.546,3.3-13.879-18.506-22.47-19.167-34.367-.607-10.936,7.994,24.06,30.782,29.211C346.052,1579.472,355.788,1566.409,332.309,1556.523Z" transform="translate(-7.309 -186.03)" fill="#9cd499"/>
    <path id="Trazado_58548" data-name="Trazado 58548" d="M439.19,1488.222c-5.287-11.235,8.592-13.879,7.931-5.287-.585,7.613-.651,26.119,7.158,31.158,13.466-1.459,31.787-6.885,45.637-15.156a5.617,5.617,0,0,0-.583-3.445c-5.948-11.9-44.281-21.81-32.385-25.775,9.475-3.159,26.076,15.483,39.455,24.873,8.036-6.1,13.419-13.364,13.419-21.476,0-10.98-13.341-23.409-30.595-29.35-7.765.783-14.978,5.028-26.244,11.412-16.643,9.431-12.794-5.816,2.942-14.866-13.584.7-27.128,6.508-37.117,20.373,0,0,.945,5.927-5.328,15.1-17.113,25.01,2.636,39.611,26.244,38.663C448.389,1507.849,442.843,1495.986,439.19,1488.222Z" transform="translate(-78.4 -155.123)" fill="#9cd499"/>
    <path id="Trazado_58549" data-name="Trazado 58549" d="M307.5,1538.457c-12.925,9.988-27.283,21.664-44.907,29.6s-14.1,33.782-14.1,33.782-2.643-22.326,12.044-29.963,24.382-16.744,35.544-18.506a161.9,161.9,0,0,0,17.331-3.525s-3.525-7.05-1.469-9.694S307.5,1538.457,307.5,1538.457Z" transform="translate(-12.309 -193.48)" fill="#74b570"/>
    <path id="Trazado_58550" data-name="Trazado 58550" d="M240.95,1345.833c47.294,12.632,81.957,42.889,88.42,50.232s6.462,9.4,6.462,9.4l-4.994,9.4-2.35-1.174s3.818-7.932-6.169-18.213c-17.224-17.731-38.188-31.726-52.582-37.894S240.95,1345.833,240.95,1345.833Z" transform="translate(-9.47 -118.138)" fill="#74b570"/>
    <path id="Rectángulo_6083" data-name="Rectángulo 6083" d="M0,0H64.6a0,0,0,0,1,0,0V32.48a32.3,32.3,0,0,1-32.3,32.3h0A32.3,32.3,0,0,1,0,32.48V0A0,0,0,0,1,0,0Z" transform="translate(320.694 1424.7)" fill="#f39892"/>
  </g>
</svg>
