<svg xmlns="http://www.w3.org/2000/svg" width="217.151" height="272.387" viewBox="0 0 217.151 272.387">
  <g id="Grupo_28296" data-name="Grupo 28296" transform="translate(-871 -1133.372)">
    <path id="Rectángulo_5566" data-name="Rectángulo 5566" d="M8.061,0H57.219A8.061,8.061,0,0,1,65.28,8.061v87.4a0,0,0,0,1,0,0H0a0,0,0,0,1,0,0V8.061A8.061,8.061,0,0,1,8.061,0Z" transform="translate(1022.871 1308.597)" fill="#19365a"/>
    <path id="Trazado_56558" data-name="Trazado 56558" d="M440.123,322.8a11.511,11.511,0,0,0-16.275-.16L394.527,351.4l-34.533-28.411c-6.857,12.568-14.432,16.593-14.432,16.593l41.952,36.163a11.505,11.505,0,0,0,15.571-.5l36.878-36.163A11.506,11.506,0,0,0,440.123,322.8Z" transform="translate(575.018 990.616)" fill="#eeb399"/>
    <path id="Trazado_56559" data-name="Trazado 56559" d="M414.244,322.8a11.511,11.511,0,0,0-16.275-.16l-27.713,27.177c2.185,5.511,6.482,14.7,12.5,19.978l31.326-30.721A11.506,11.506,0,0,0,414.244,322.8Z" transform="translate(600.896 990.616)" fill="#638dce"/>
    <path id="Trazado_56560" data-name="Trazado 56560" d="M352.179,317.728a5.35,5.35,0,0,0-2.558-1.126,1.957,1.957,0,0,0-2.126,1.446c-.2,1.434,1.642,2.261,2.206,3.594a3.234,3.234,0,0,1-.588,3.058,23.2,23.2,0,0,1-2.275,2.324,11.191,11.191,0,0,0-.717,14.283,3.853,3.853,0,0,0,2.373,1.612c1.229.154,2.343-.674,3.306-1.456a44.1,44.1,0,0,0,7.237-6.844c1.841-2.367,4.577-6.57,2.353-9.267C358.968,322.416,355.3,319.86,352.179,317.728Z" transform="translate(573.261 987.726)" fill="#eeb399"/>
    <path id="Trazado_56561" data-name="Trazado 56561" d="M348.826,334.667a3.442,3.442,0,0,1-.657-.068.383.383,0,0,1-.305-.448.378.378,0,0,1,.451-.3,1.513,1.513,0,0,0,1.417-.272,3.15,3.15,0,0,0,.463-2.384.375.375,0,0,1,.074-.3.387.387,0,0,1,.268-.147,1.545,1.545,0,0,0,1.591-2.4.383.383,0,0,1,.416-.551,1.743,1.743,0,0,0,1.415-.16,1,1,0,0,0,.375-.659c.463-3.826-7.506-5.966-7.586-5.988a.383.383,0,1,1,.195-.741c.356.092,8.7,2.337,8.153,6.8a1.774,1.774,0,0,1-.661,1.188,2.088,2.088,0,0,1-1.395.387,2.345,2.345,0,0,1-.139,1.7,2.478,2.478,0,0,1-1.9,1.135,3.528,3.528,0,0,1-.725,2.662A1.988,1.988,0,0,1,348.826,334.667Z" transform="translate(575.959 991.543)" fill="#b57359"/>
    <path id="Trazado_56562" data-name="Trazado 56562" d="M353.941,327.126a.384.384,0,0,1-.211-.064c-.061-.041-6.22-4.116-8.393-4.7a.383.383,0,1,1,.2-.739c2.294.614,8.36,4.628,8.618,4.8a.384.384,0,0,1-.213.7Z" transform="translate(574.485 992.978)" fill="#b57359"/>
    <path id="Trazado_56563" data-name="Trazado 56563" d="M352.964,328.42a.375.375,0,0,1-.2-.059c-.062-.039-6.246-3.942-8.286-4.415a.384.384,0,1,1,.174-.747c2.165.5,8.266,4.352,8.521,4.516a.383.383,0,0,1-.2.706Z" transform="translate(573.565 994.634)" fill="#b57359"/>
    <path id="Trazado_56564" data-name="Trazado 56564" d="M350.938,329.678a.378.378,0,0,1-.252-.094,22.938,22.938,0,0,0-6.537-3.893.385.385,0,0,1-.244-.485.392.392,0,0,1,.485-.246,23.358,23.358,0,0,1,6.8,4.045.384.384,0,0,1-.252.674Z" transform="translate(573.26 996.473)" fill="#b57359"/>
    <path id="Trazado_56565" data-name="Trazado 56565" d="M353.48,327.123a.382.382,0,0,1-.326-.18,1.881,1.881,0,0,1-.174-1.577,16.814,16.814,0,0,1-2.914-1.268,6.188,6.188,0,0,1-2.4-2.347,2.337,2.337,0,0,1-.34-1.356,2.087,2.087,0,0,1,1.317-1.632,4.343,4.343,0,0,1,1.933-.235,11.734,11.734,0,0,1,4.956,1.4.38.38,0,0,1,.149.52.385.385,0,0,1-.522.149,10.935,10.935,0,0,0-4.628-1.307,3.539,3.539,0,0,0-1.591.176,1.306,1.306,0,0,0-.85,1,1.606,1.606,0,0,0,.25.915,5.462,5.462,0,0,0,2.109,2.054,16.413,16.413,0,0,0,2.859,1.229.618.618,0,0,1,.41.9,1.116,1.116,0,0,0,.086.973.385.385,0,0,1-.125.528A.4.4,0,0,1,353.48,327.123Z" transform="translate(576.862 989.733)" fill="#b57359"/>
    <path id="Trazado_56566" data-name="Trazado 56566" d="M379.459,342.176l5.607,72.559s13.708,5.689,36.836,3,30.872-1.674,30.872-1.674-4-79.2-4.669-79.9-3.408-24.1-36.872-19.322S379.459,342.176,379.459,342.176Z" transform="translate(610.526 987.303)" fill="#7298e2"/>
    <path id="Trazado_56568" data-name="Trazado 56568" d="M436.875,331.276s5.118,61.271-9.9,62.473-40.337,0-40.337,0,30.562-5.851,33.912-22.855S436.875,331.276,436.875,331.276Z" transform="translate(618.069 1003.11)" fill="#3f649e"/>
    <path id="Trazado_56569" data-name="Trazado 56569" d="M402.853,334.5c11.686-1.643,13.334-12.136,13.324-18.032a53.359,53.359,0,0,0-13.564.367,59.836,59.836,0,0,0-14.942,3.944C388.029,325.748,390.26,336.273,402.853,334.5Z" transform="translate(619.146 987.303)" fill="#eeb399"/>
    <g id="Grupo_28203" data-name="Grupo 28203" transform="translate(1011.206 1283.767)">
      <path id="Trazado_56570" data-name="Trazado 56570" d="M408.1,306.559v20.132l-9.276,8.447-9.01-5.491V317.54Z" transform="translate(-389.814 -306.559)" fill="#eeb399"/>
    </g>
    <path id="Trazado_56571" data-name="Trazado 56571" d="M405.587,311.516l-15.773,5.226v6.445C398.616,322.012,405.587,311.516,405.587,311.516Z" transform="translate(621.392 982.401)" fill="#cc957f"/>
    <rect id="Rectángulo_5569" data-name="Rectángulo 5569" width="34.175" height="48.863" rx="6.313" transform="translate(995.317 1253.255)" fill="#eeb399"/>
    <path id="Trazado_56572" data-name="Trazado 56572" d="M381.593,299.161c-.879,1-1.569,2.41-1.022,3.621a3.346,3.346,0,0,0,1.452,1.425,7.827,7.827,0,0,0,6.977.366,2.044,2.044,0,0,0-.025,2.626,3.872,3.872,0,0,0,2.494,1.284c2.963.473,5.964-.967,8.137-3.037a3.71,3.71,0,0,0,3.453,3.723c1.7.055,3.34-1.1,5-.737.487.821-.285,2.163.5,2.709a1.367,1.367,0,0,0,.661.193c1.577.151,3.459-.131,4.477,1.081.981,1.171.455,2.918.049,4.391a5.179,5.179,0,0,0,.16,4.065c.733,1.188,2.746,1.567,3.477.377.2-.338.281-.743.5-1.073s.688-.561,1.008-.328a.912.912,0,0,1,.262.8c-.08,1.761-1.165,3.291-1.778,4.944s-.545,3.891,1,4.733a4.332,4.332,0,0,0,1.518.407c1.642.215,3.459.262,4.788-.727,1.268-.946,1.761-2.587,2.177-4.112a4.432,4.432,0,0,0,.235-1.819,1.528,1.528,0,0,0-1.112-1.327c-.727-2.032,1.475-4.555.17-6.271a6.781,6.781,0,0,0-1.065-.942,5.855,5.855,0,0,1-1.772-3.658,26.707,26.707,0,0,1-.057-4.149,33.534,33.534,0,0,0-.821-8.008,7.922,7.922,0,0,0-1.223-3.068,3.186,3.186,0,0,0-2.855-1.376,8.207,8.207,0,0,0-3.285-5.077,4.964,4.964,0,0,0-5.775.16,2.6,2.6,0,0,1-1.128.76,1.985,1.985,0,0,1-1.061-.217c-3.176-1.292-6.854-2.382-9.931-.868a4.676,4.676,0,0,1-1.423.577,4.191,4.191,0,0,1-1.536-.244,4.239,4.239,0,0,0-3.594.4c-1.116.836-.629,1.753-.721,2.857-.1,1.255-.8,1.178-1.991,1.624A15.342,15.342,0,0,0,381.593,299.161Z" transform="translate(611.501 959.118)" fill="#171e26"/>
    <path id="Trazado_56573" data-name="Trazado 56573" d="M405.745,307.57a4.188,4.188,0,1,1-4.188-4.188A4.188,4.188,0,0,1,405.745,307.57Z" transform="translate(629.31 973.878)" fill="#eeb399"/>
    <g id="Grupo_28205" data-name="Grupo 28205" transform="translate(970.202 1309.204)">
      <g id="Grupo_28204" data-name="Grupo 28204" transform="translate(0 0.601)">
        <path id="Trazado_56574" data-name="Trazado 56574" d="M439.089,319.318A11.634,11.634,0,0,0,426.5,329.865l-4.4,49.845-46.749,3s-1.534,12.323,1.487,23.173l56.7-3.643a11.609,11.609,0,0,0,10.821-10.567l5.276-59.772A11.612,11.612,0,0,0,439.089,319.318Z" transform="translate(-364.371 -319.273)" fill="#eeb399"/>
        <path id="Trazado_56575" data-name="Trazado 56575" d="M376.077,373.809a8.758,8.758,0,0,1-4.043-1.135,3.053,3.053,0,0,1-1.284-3.668c.33-.655.993-1.186,1.02-1.919.033-.926-.93-1.52-1.47-2.269a3.546,3.546,0,0,1,.852-4.553c.426-.365.952-.694,1.1-1.237.317-1.2-1.474-2.224-1.137-3.42.262-.915,1.6-1.163,1.886-2.07a6.584,6.584,0,0,0-.027-1.54,2.2,2.2,0,0,1,1.645-1.8,6.458,6.458,0,0,1,2.578-.068l4.063.442a6.349,6.349,0,0,1,2.329.559c1.528.813,2.116,2.673,2.488,4.362a27.542,27.542,0,0,1,.67,9.861,13.733,13.733,0,0,1-3.347,7.475C381.66,374.63,378.369,374.059,376.077,373.809Z" transform="translate(-369.792 -287.041)" fill="#eeb399"/>
      </g>
      <path id="Trazado_56576" data-name="Trazado 56576" d="M414.768,319.025a11.871,11.871,0,0,0-12.847,10.766l-3.695,41.838c4.151,1.847,13.813,5.7,23.24,6.322l4.067-46.079A11.852,11.852,0,0,0,414.768,319.025Z" transform="translate(-339.994 -318.98)" fill="#7298e2"/>
      <path id="Trazado_56577" data-name="Trazado 56577" d="M401.629,325.882l-3.4,38.514s14.248,6.111,23.24,6.322l3.836-39.653" transform="translate(-339.994 -311.747)" fill="none" stroke="#3c62a0" stroke-linecap="round" stroke-linejoin="round" stroke-width="0.283"/>
    </g>
    <g id="Grupo_28208" data-name="Grupo 28208" transform="translate(871 1339.832)">
      <g id="Grupo_28206" data-name="Grupo 28206">
        <rect id="Rectángulo_5570" data-name="Rectángulo 5570" width="102.227" height="4.979" rx="0.5" transform="translate(49.644 52.901)" fill="#0d2638"/>
        <path id="Trazado_56578" data-name="Trazado 56578" d="M419.205,391.739H335.783a7.537,7.537,0,0,1-7.154-6.175l-7.2-45.453a5.155,5.155,0,0,1,5.2-6.177h83.42a7.541,7.541,0,0,1,7.156,6.177l7.2,45.453A5.154,5.154,0,0,1,419.205,391.739Z" transform="translate(-321.353 -333.935)" fill="#173658"/>
      </g>
      <g id="Grupo_28207" data-name="Grupo 28207" transform="translate(43.768 18.745)">
        <path id="Trazado_56579" data-name="Trazado 56579" d="M344.116,352.322a17.8,17.8,0,0,0-1.2,2.288,2.527,2.527,0,0,0,.27,2.454,2.5,2.5,0,0,0,1,.661,5.44,5.44,0,0,0,5.775-1.559,8.7,8.7,0,0,0,2.068-5.857c.016-1.7-.428-3.574-1.827-4.538a3.989,3.989,0,0,0-1.454-.6,3.378,3.378,0,0,0-2.437.313c-1.042.635-1.118,1.825-1.223,2.912A10.065,10.065,0,0,1,344.116,352.322Z" transform="translate(-342.724 -340.998)" fill="#fff"/>
        <path id="Trazado_56580" data-name="Trazado 56580" d="M345.156,345.347a3.005,3.005,0,0,1,.072-1.3,1.374,1.374,0,0,1,.87-.909,1.706,1.706,0,0,1,.457-.053,1.382,1.382,0,0,1,.973.283,1.011,1.011,0,0,1,.283.776,1.946,1.946,0,0,1-.25.807,2.828,2.828,0,0,1-1.364,1.3C345.356,346.6,345.25,346.115,345.156,345.347Z" transform="translate(-340.215 -343.088)" fill="#fff"/>
      </g>
    </g>
    <g id="Grupo_28211" data-name="Grupo 28211" transform="translate(998 1134)">
      <path id="Trazado_56583" data-name="Trazado 56583" d="M478.364,296.636a44.478,44.478,0,1,0-61.15,20.6l-.809,17.094,14.285-12.54A44.486,44.486,0,0,0,478.364,296.636Z" transform="translate(-393.527 -233.43)" fill="#fff" stroke="#1f74c2" stroke-linecap="round" stroke-linejoin="round" stroke-width="1"/>
      <path id="Trazado_56584" data-name="Trazado 56584" d="M448.453,256.564a7.839,7.839,0,0,0-1.933.268V246.1H436.053a7.867,7.867,0,0,1-15.735,0H409.851v10.467a7.867,7.867,0,0,0,0,15.735v10.467h10.682a7.867,7.867,0,0,1,15.734,0H446.52V272.03a7.856,7.856,0,1,0,1.933-15.466Z" transform="translate(-384.664 -220.155)" fill="#5f87df"/>
    </g>
  </g>
</svg>
