<svg xmlns="http://www.w3.org/2000/svg" width="57.144" height="65.307" viewBox="0 0 57.144 65.307">
  <g id="Grupo_867" data-name="Grupo 867" transform="translate(0 0)">
    <path id="Trazado_1157" data-name="Trazado 1157" d="M818.183,2604.383a4.094,4.094,0,0,0-4.082,4.081v57.144a4.1,4.1,0,0,0,4.082,4.082H859a4.094,4.094,0,0,0,4.082-4.082v-44.9l-16.327-16.327Z" transform="translate(-805.938 -2604.383)" fill="#f2f2f2"/>
    <path id="Trazado_1160" data-name="Trazado 1160" d="M854.919,2657.445a2.041,2.041,0,0,1-2.041,2.041h-44.9a2.041,2.041,0,0,1-2.041-2.041v-20.409a2.04,2.04,0,0,1,2.041-2.04h44.9a2.04,2.04,0,0,1,2.041,2.04Z" transform="translate(-805.938 -2604.383)" fill="#f15642"/>
    <g id="Grupo_855" data-name="Grupo 855" transform="translate(8.896 37.541)">
      <path id="Trazado_1161" data-name="Trazado 1161" d="M814.834,2643.051a1.123,1.123,0,0,1,1.108-1.127h3.77a4.082,4.082,0,0,1,0,8.164h-2.723v2.155a1.019,1.019,0,0,1-.91,1.119.892.892,0,0,1-.135,0,1.1,1.1,0,0,1-1.108-1.091v-.033Zm2.153.928v4.066h2.725a2.041,2.041,0,0,0,0-4.066Z" transform="translate(-814.834 -2641.924)" fill="#fff"/>
      <path id="Trazado_1162" data-name="Trazado 1162" d="M826.94,2653.363a1.021,1.021,0,0,1-1.121-.908c0-.038,0-.075,0-.112v-9.27a1.109,1.109,0,0,1,1.126-1.02h3.737c7.458,0,7.294,11.292.147,11.292Zm1.021-9.3v7.311h2.708c4.406,0,4.6-7.311,0-7.311Z" transform="translate(-814.834 -2641.924)" fill="#fff"/>
      <path id="Trazado_1163" data-name="Trazado 1163" d="M840.616,2644.2v2.594h4.161a1.261,1.261,0,0,1,1.176,1.157,1.136,1.136,0,0,1-1.176.98h-4.161v3.426a.966.966,0,0,1-.923,1.009.5.5,0,0,1-.054,0,1.037,1.037,0,0,1-1.151-.909c0-.033-.006-.067-.007-.1v-9.269a1.031,1.031,0,0,1,1.033-1.029,1.073,1.073,0,0,1,.125.008h5.728a1.021,1.021,0,0,1,1.136.891,1.115,1.115,0,0,1-1.135,1.24h-4.752Z" transform="translate(-814.834 -2641.924)" fill="#fff"/>
    </g>
    <path id="Trazado_1164" data-name="Trazado 1164" d="M852.878,2659.486H814.1v2.041h38.777a2.041,2.041,0,0,0,2.041-2.041v-2.041A2.041,2.041,0,0,1,852.878,2659.486Z" transform="translate(-805.938 -2604.383)" fill="#e6e6e6"/>
    <path id="Trazado_1158" data-name="Trazado 1158" d="M850.837,2620.71h12.245l-16.327-16.327v12.245A4.1,4.1,0,0,0,850.837,2620.71Z" transform="translate(-805.938 -2604.383)" fill="#b3b3b3"/>
  </g>
</svg>
