<svg xmlns="http://www.w3.org/2000/svg" width="78.596" height="78.595" viewBox="0 0 78.596 78.595">
  <g id="Grupo_24001" data-name="Grupo 24001" transform="translate(-699 -3970)">
    <g id="Grupo_15903" data-name="Grupo 15903" transform="translate(-2388.952 -4240.533)">
      <g id="Grupo_15901" data-name="Grupo 15901" transform="translate(3087.952 8210.533)">
        <g id="Grupo_15894" data-name="Grupo 15894">
          <circle id="Elipse_1187" data-name="Elipse 1187" cx="37.896" cy="37.896" r="37.896" transform="translate(0.604 2.138)" fill="#fff"/>
          <path id="Trazado_41393" data-name="Trazado 41393" d="M3127.25,8289.128a39.3,39.3,0,1,1,39.3-39.3A39.343,39.343,0,0,1,3127.25,8289.128Zm0-75.793a36.5,36.5,0,1,0,36.5,36.5A36.537,36.537,0,0,0,3127.25,8213.335Z" transform="translate(-3087.952 -8210.533)" fill="#0e2571"/>
          <circle id="Elipse_1188" data-name="Elipse 1188" cx="30.973" cy="30.973" r="30.973" transform="translate(8.325 8.324)" fill="#0f3384"/>
        </g>
      </g>
      <g id="Grupo_17827" data-name="Grupo 17827" transform="translate(2089.2 9009.761)">
        <path id="Trazado_46335" data-name="Trazado 46335" d="M1052.256-771.233h-29.007a5.5,5.5,0,0,1-5.5-5.5,5.5,5.5,0,0,1,5.5-5.5h29.007a.737.737,0,0,1,.737.737.737.737,0,0,1-.737.737,4.027,4.027,0,0,0-4.022,4.023,4.026,4.026,0,0,0,4.022,4.022.737.737,0,0,1,.737.738A.737.737,0,0,1,1052.256-771.233Zm-29.007-9.519a4.027,4.027,0,0,0-4.022,4.023,4.026,4.026,0,0,0,4.022,4.022h25.264a5.481,5.481,0,0,1-1.754-4.022,5.483,5.483,0,0,1,1.754-4.023Z" transform="translate(0 -0.001)" fill="#fff"/>
        <path id="Trazado_46336" data-name="Trazado 46336" d="M1063.006-739.133h-31.482a.737.737,0,0,1-.737-.737v-7.617a.737.737,0,0,1,.737-.737.737.737,0,0,1,.737.737v6.88h30.008v-35.919a4.166,4.166,0,0,0-3.625-4.208,4,4,0,0,0-3.1,1.026,4.034,4.034,0,0,0-1.317,2.977,4.026,4.026,0,0,0,4.022,4.021.737.737,0,0,1,.737.738.737.737,0,0,1-.737.737h-25.986v2.806a.737.737,0,0,1-.737.737.737.737,0,0,1-.737-.737v-3.543a.737.737,0,0,1,.737-.738h22.98a5.481,5.481,0,0,1-1.754-4.021,5.511,5.511,0,0,1,1.8-4.069,5.446,5.446,0,0,1,4.234-1.4,5.651,5.651,0,0,1,4.958,5.676v36.656A.737.737,0,0,1,1063.006-739.133Z" transform="translate(-5.991)" fill="#fff"/>
        <path id="Trazado_46337" data-name="Trazado 46337" d="M1047.014-738.153a.733.733,0,0,1-.521-.216l-2.271-2.271a.74.74,0,0,1-.216-.521.737.737,0,0,1,.216-.521l3.873-3.873a.737.737,0,0,1,1.042,0l2.271,2.271a.737.737,0,0,1,.216.521.737.737,0,0,1-.216.521l-3.874,3.873A.732.732,0,0,1,1047.014-738.153Zm-1.229-3.008,1.229,1.229,2.83-2.831-1.228-1.229Z" transform="translate(-12.067 -16.756)" fill="#fff"/>
        <path id="Trazado_46338" data-name="Trazado 46338" d="M1030.761-740.392a.735.735,0,0,1-.521-.216l-3.563-3.563a.737.737,0,0,1,0-1.043.737.737,0,0,1,1.042,0l3.563,3.563a.737.737,0,0,1,0,1.042A.736.736,0,0,1,1030.761-740.392Z" transform="translate(-4.003 -16.913)" fill="#fff"/>
        <path id="Trazado_46339" data-name="Trazado 46339" d="M1048.647-758.278a.735.735,0,0,1-.521-.216l-3.563-3.563a.737.737,0,0,1,0-1.042.738.738,0,0,1,1.043,0l3.563,3.563a.737.737,0,0,1,0,1.042A.735.735,0,0,1,1048.647-758.278Z" transform="translate(-12.224 -8.693)" fill="#fff"/>
        <path id="Trazado_46340" data-name="Trazado 46340" d="M1071.692-715.444a2.627,2.627,0,0,1-1.869-.773l-.748-.748a.738.738,0,0,1-.216-.521.738.738,0,0,1,.216-.521l2.694-2.693a.738.738,0,0,1,.521-.216.736.736,0,0,1,.521.216l.749.748a2.646,2.646,0,0,1,0,3.736A2.623,2.623,0,0,1,1071.692-715.444Zm-1.053-2.043.227.227a1.2,1.2,0,0,0,1.651,0,1.169,1.169,0,0,0,0-1.651l-.227-.227Z" transform="translate(-23.49 -28.179)" fill="#fff"/>
        <path id="Trazado_46341" data-name="Trazado 46341" d="M1058.442-727.905a.74.74,0,0,1-.521-.216l-8.4-8.4a.739.739,0,0,1-.216-.521.739.739,0,0,1,.216-.521l2.694-2.694a.737.737,0,0,1,1.043,0l8.4,8.4a.737.737,0,0,1,0,1.042l-2.693,2.694A.739.739,0,0,1,1058.442-727.905Zm-7.362-9.142,7.362,7.362,1.651-1.651-7.361-7.362Z" transform="translate(-14.5 -19.189)" fill="#fff"/>
        <path id="Trazado_46342" data-name="Trazado 46342" d="M1066.342-718.514a1.845,1.845,0,0,1-1.314-.544l-.581-.581a1.846,1.846,0,0,1-.544-1.314,1.846,1.846,0,0,1,.544-1.314l3.063-3.063a1.861,1.861,0,0,1,2.627,0l.581.581a1.86,1.86,0,0,1,0,2.627l-3.063,3.063A1.843,1.843,0,0,1,1066.342-718.514Zm2.211-5.773-3.063,3.063a.38.38,0,0,0-.112.271.38.38,0,0,0,.112.271l.581.581a.393.393,0,0,0,.542,0l3.064-3.063a.384.384,0,0,0,0-.542l-.581-.581a.383.383,0,0,0-.542,0Z" transform="translate(-21.212 -25.902)" fill="#fff"/>
        <path id="Trazado_46343" data-name="Trazado 46343" d="M1027.489-731.994a8.614,8.614,0,0,1-6.088-2.513,8.626,8.626,0,0,1-2.394-7.515.736.736,0,0,1,.5-.58.739.739,0,0,1,.746.18l9.06,9.06a.736.736,0,0,1,.18.746.736.736,0,0,1-.58.5A8.654,8.654,0,0,1,1027.489-731.994Zm-7.117-8.225a7.138,7.138,0,0,0,2.072,4.669,7.137,7.137,0,0,0,4.669,2.071Z" transform="translate(-0.522 -18.197)" fill="#fff"/>
        <path id="Trazado_46344" data-name="Trazado 46344" d="M1059.729-757.361a.736.736,0,0,1-.521-.216l-5.777-5.776a.738.738,0,0,1-.16-.8.738.738,0,0,1,.681-.455h4.484a.738.738,0,0,1,.606.318,8.561,8.561,0,0,1,1.413,6.318.738.738,0,0,1-.5.58A.731.731,0,0,1,1059.729-757.361Zm-4-5.776,3.359,3.358a7.083,7.083,0,0,0-1.053-3.358Z" transform="translate(-16.3 -8.097)" fill="#fff"/>
        <path id="Trazado_46345" data-name="Trazado 46345" d="M1029.726-741.974a2.661,2.661,0,0,1-1.894-.785l-8.38-8.38a2.682,2.682,0,0,1,0-3.789,2.683,2.683,0,0,1,3.789,0l.376.377,8.623-8.622-.179-.179a.738.738,0,0,1-.16-.8.738.738,0,0,1,.681-.455h5.493a.738.738,0,0,1,.521.216l5.436,5.436a2.661,2.661,0,0,1,.785,1.895,2.661,2.661,0,0,1-.785,1.895,2.664,2.664,0,0,1-1.894.785,2.662,2.662,0,0,1-1.895-.785l-.377-.377-8.623,8.622.377.377a2.661,2.661,0,0,1,.785,1.895,2.661,2.661,0,0,1-.785,1.895A2.661,2.661,0,0,1,1029.726-741.974Zm-8.38-12.263a1.2,1.2,0,0,0-.852.352,1.206,1.206,0,0,0,0,1.7l8.38,8.38a1.233,1.233,0,0,0,1.7,0,1.2,1.2,0,0,0,.353-.852,1.2,1.2,0,0,0-.353-.852l-.9-.9a.737.737,0,0,1-.216-.521.736.736,0,0,1,.216-.521l9.665-9.665a.737.737,0,0,1,1.042,0l.9.9a1.234,1.234,0,0,0,1.7,0,1.2,1.2,0,0,0,.353-.852,1.2,1.2,0,0,0-.353-.852l-5.221-5.221h-3.751a.734.734,0,0,1-.214.485l-9.666,9.665a.738.738,0,0,1-.521.216.738.738,0,0,1-.521-.216l-.9-.9A1.2,1.2,0,0,0,1021.346-754.238Z" transform="translate(-0.421 -8.097)" fill="#fff"/>
      </g>
    </g>
  </g>
</svg>
