<svg id="Grupo_8438" data-name="Grupo 8438" xmlns="http://www.w3.org/2000/svg" xmlns:xlink="http://www.w3.org/1999/xlink" width="66.333" height="66.333" viewBox="0 0 66.333 66.333">
  <defs>
    <clipPath id="clip-path">
      <rect id="Rectángulo_5283" data-name="Rectángulo 5283" width="66.333" height="66.333" fill="none"/>
    </clipPath>
  </defs>
  <g id="Grupo_8437" data-name="Grupo 8437" transform="translate(0 0)" clip-path="url(#clip-path)">
    <path id="Trazado_5459" data-name="Trazado 5459" d="M0,33.167A33.167,33.167,0,1,1,33.166,66.334,33.167,33.167,0,0,1,0,33.167" transform="translate(0 0)" fill="#67c1e3"/>
    <path id="Trazado_5460" data-name="Trazado 5460" d="M38.99,66.7a25.927,25.927,0,0,0,2.622,1.157c3.256,1.222,6.913,1.71,10.009-.076a12.921,12.921,0,0,0,3.533-2.994,8.144,8.144,0,0,0,3.763-.367c.086-.038.166-.075.244-.112l.006.015a4.425,4.425,0,0,1,.461.5,4.605,4.605,0,0,1-2.713,7.406,4.136,4.136,0,0,1-3.369-.855.294.294,0,0,0-.323-.037,7.815,7.815,0,0,1-5.5.6c-2.476-.664-3.841-2.469-6.348-2.833a5.972,5.972,0,0,0-.8-.061,23.485,23.485,0,0,1-4.37-.159,4.978,4.978,0,0,1-2.357-1.155,6.882,6.882,0,0,0,2.016-2.943A24.652,24.652,0,0,0,38.99,66.7" transform="translate(-10.307 -19.577)" fill="#571b23"/>
    <path id="Trazado_5461" data-name="Trazado 5461" d="M67.477,55.166c.424.305.869.584,1.293.889a3.886,3.886,0,0,1,1.617,2.036,3.2,3.2,0,0,1-1.9,3.433c-.079.037-.159.074-.245.112A8.134,8.134,0,0,1,64.475,62,13.428,13.428,0,0,0,67.4,55.708c.031-.18.056-.361.081-.542" transform="translate(-19.628 -16.794)" fill="#4e1824"/>
    <path id="Trazado_5462" data-name="Trazado 5462" d="M69.8,56.982A3.2,3.2,0,0,0,71.7,53.549a3.889,3.889,0,0,0-1.618-2.035c-.424-.305-.869-.584-1.293-.89.271-1.974.224-4.036.34-6.012.087-1.473.228-2.922.209-4.367,1.113,1.558,2.536,2.973,3.3,4.651.248.547.5,1.066.735,1.564.964,2.074,1.637,3.844.894,6.358a7.411,7.411,0,0,1-4,4.683,4.356,4.356,0,0,0-.46-.5Z" transform="translate(-20.942 -12.252)" fill="#7e322e"/>
    <path id="Trazado_5463" data-name="Trazado 5463" d="M23.33,31.884c.47-8,8.028-14.055,16.879-13.533a17.234,17.234,0,0,1,3.882.68A16.455,16.455,0,0,1,53.266,25.8a14.6,14.6,0,0,1,1.988,5.193,27.709,27.709,0,0,1,.025,6.94,60.734,60.734,0,0,1-.421,6.553A13.442,13.442,0,0,1,48.4,53.782c-3.954,2.28-8.837.846-12.63-1.085a24.4,24.4,0,0,1-9.194-8.244,20.98,20.98,0,0,1-3.27-12.171c.006-.132.013-.265.021-.4" transform="translate(-7.091 -5.577)" fill="#ffa898"/>
    <path id="Trazado_5464" data-name="Trazado 5464" d="M28.137,40.8c1.372-.163,2.813,1.636,3.217,4.017s-.383,4.445-1.755,4.608-2.814-1.635-3.218-4.018.383-4.445,1.756-4.607" transform="translate(-7.999 -12.419)" fill="#f48989"/>
    <path id="Trazado_5465" data-name="Trazado 5465" d="M44.351,50.678a1.43,1.43,0,0,1,1.436,2.474c-.145.085-.679.5-.74.877a1.43,1.43,0,0,1-1.494,1.2c-.048,0-.1-.008-.147-.016a1.43,1.43,0,0,1-1.182-1.641,4.53,4.53,0,0,1,2.127-2.894" transform="translate(-12.848 -15.369)" fill="#f8918c"/>
    <path id="Trazado_5466" data-name="Trazado 5466" d="M62.3,51.7a4.522,4.522,0,0,1,1.773,3.125,1.43,1.43,0,0,1-1.369,1.489,1.277,1.277,0,0,1-.146,0,1.431,1.431,0,0,1-1.343-1.367,1.7,1.7,0,0,0-.641-.963A1.43,1.43,0,0,1,62.3,51.7" transform="translate(-18.27 -15.651)" fill="#f8918c"/>
    <path id="Trazado_5467" data-name="Trazado 5467" d="M41.823,39.724c1.559-1.474,4.257-.874,4.37-.848a.455.455,0,0,1,.341.544.45.45,0,0,1-.545.342c-.024,0-2.339-.516-3.542.623a.451.451,0,0,1-.339.124.455.455,0,0,1-.286-.785" transform="translate(-12.689 -11.792)" fill="#551f2c"/>
    <path id="Trazado_5468" data-name="Trazado 5468" d="M61.756,40.637a.448.448,0,0,1-.5-.4.454.454,0,0,1,.4-.5c.115-.014,2.866-.294,4.24,1.354a.455.455,0,1,1-.7.583c-1.061-1.271-3.419-1.036-3.444-1.034" transform="translate(-18.647 -12.088)" fill="#551f2c"/>
    <path id="Trazado_5469" data-name="Trazado 5469" d="M49.207,55.145l6.281.37a.661.661,0,0,1,.509.314.973.973,0,0,1,.136.673c-.355,2.287-2.087,3.957-4.034,3.842l-.093-.006c-1.947-.115-3.471-1.975-3.556-4.288a.972.972,0,0,1,.214-.652.661.661,0,0,1,.543-.254" transform="translate(-14.75 -16.787)" fill="#c74038"/>
    <path id="Trazado_5470" data-name="Trazado 5470" d="M64.04,47.908a.858.858,0,0,0-1.7-.1.524.524,0,0,1-1.047-.061,1.9,1.9,0,0,1,3.794.223.525.525,0,1,1-1.048-.062" transform="translate(-18.659 -14.021)" fill="#53344d"/>
    <path id="Trazado_5471" data-name="Trazado 5471" d="M44.23,44.937a1.853,1.853,0,0,1,1.791,1.908.525.525,0,0,1-1.048-.062.858.858,0,0,0-1.7-.1.524.524,0,1,1-1.047-.062,1.853,1.853,0,0,1,2-1.685" transform="translate(-12.855 -13.679)" fill="#53344d"/>
    <path id="Trazado_5472" data-name="Trazado 5472" d="M13.752,37.229c1.29-1.564,1.559-3.86,2.033-5.73a51.022,51.022,0,0,1,1.85-6.778c1.412-3.484,5.509-9.249,9.947-9.966a2.208,2.208,0,0,0,.923-.376c2.212-1.561,6.226-1.842,8.265-1.683A17.719,17.719,0,0,1,47.2,17.669,20.958,20.958,0,0,1,52.9,27.708c.476,1.906.5,3.806,1.016,5.708.433,1.573,1.541,4.644,1.541,4.644-.236-.5-.486-1.017-.735-1.564-.763-1.678-2.186-3.093-3.3-4.65a7.858,7.858,0,0,1-1.45-3.1c-.447-2.4-1.142-4.873-3.181-6.416a7.121,7.121,0,0,0-5.606-1.29,9.723,9.723,0,0,1-1.982.346,2.138,2.138,0,0,1-.564-.081.3.3,0,0,0-.324.117c-1.048,1.527-3.622,2.638-4.617,4.1-1.679,2.459-1.819,5.666-3.036,8.369-.895,1.987-4.372,4.044-4.12,6.308.2,1.806,1.834,3.009,2.215,4.741a7.5,7.5,0,0,1-.165,4.109v.007A6.874,6.874,0,0,1,26.572,52,11.186,11.186,0,0,1,20.7,54.523a9.647,9.647,0,0,1-10.009-5.4,9.943,9.943,0,0,1,.6-8.764,20.864,20.864,0,0,1,2.462-3.134" transform="translate(-3.022 -3.853)" fill="#682728"/>
  </g>
</svg>
