<svg xmlns="http://www.w3.org/2000/svg" width="183.363" height="239.982" viewBox="0 0 183.363 239.982">
  <g id="Grupo_29027" data-name="Grupo 29027" transform="translate(-1341.782 -430.467)">
    <path id="Trazado_61016" data-name="Trazado 61016" d="M2138.825,1576.68l-2.378,10.014-3.561-.021-.131-9.993Z" transform="translate(-637.435 -923.717)" fill="#e49963"/>
    <path id="Trazado_61017" data-name="Trazado 61017" d="M1970.668,1573.407l-6.765,9.587-2.637-3.385,4.072-7.52Z" transform="translate(-499.234 -920.017)" fill="#e49963"/>
    <path id="Trazado_61018" data-name="Trazado 61018" d="M2084.281,894.157a6.9,6.9,0,0,1,3.733-.714,1.746,1.746,0,0,0-.787-.374,5.781,5.781,0,0,1,2.065.539c8.889-3.425,10.287,9.663,10.1,12.7s2.987,4.033,7.612,6.429c8.823,4.571,9.6,10.692,9.6,10.692-.069.041-.141.087-.217.14-.437-.742-1.339-2.134-2.1-2.345a31.4,31.4,0,0,1,1.222,2.978c-2.6,1.98-7.472,6.368-10.866,9.479a5,5,0,0,0-.231-1.927l-.419,2.525c-1.816,1.67-3.069,2.844-3.069,2.844.224-2.457-11.113-15.424-17.028-19.308-1.44-2.12-1.952-5.865-1.99-6.16a16.168,16.168,0,0,0,1.21,5.573C2078.106,912.622,2081.022,896.009,2084.281,894.157Z" transform="translate(-595.259 -372.782)" fill="#163560"/>
    <path id="Trazado_61019" data-name="Trazado 61019" d="M2100.118,985.324c-.029.013,2.856,1.512,5.027.918,2.042-.557,3.375-3.2,3.347-3.21-.865-.172-1.114-1.36-1.1-6.466l-.391.077-6.572,1.3s.149,2.068.154,4.017C2100.592,983.6,2100.492,985.149,2100.118,985.324Z" transform="translate(-611.132 -440.094)" fill="#e49963"/>
    <path id="Trazado_61020" data-name="Trazado 61020" d="M2101.744,978.264s.149,2.068.154,4.017c3.677-.1,5.622-3.459,6.418-5.318Z" transform="translate(-612.443 -440.414)" fill="#d68d5d"/>
    <path id="Trazado_61021" data-name="Trazado 61021" d="M2091.811,917.214a19.322,19.322,0,0,0,2.39-5.649c.33-1.859-.617-8.75-7.542-7.758a9.4,9.4,0,0,0-3.9,1.475c-1.5,1.015-3.673,3.208-1.247,9.221l.631,2.031Z" transform="translate(-595.259 -381.38)" fill="#163560"/>
    <path id="Trazado_61022" data-name="Trazado 61022" d="M1966.8,1284.334l3.484.107,3.771.115a74.436,74.436,0,0,0,13.6-25.244q.171-.542.361-1.1c2.674-7.8,8.217-17.583,11.138-26.442.465-1.411.883-2.739,1.257-4q.18-.6.348-1.187a93.958,93.958,0,0,0,3.35-17.638l-21.094.169A393.2,393.2,0,0,1,1966.8,1284.334Z" transform="translate(-503.691 -627.371)" fill="#2b478b"/>
    <path id="Trazado_61023" data-name="Trazado 61023" d="M2052.835,1033.891c.053,10.037-1.473,14.344-1.473,14.344a28.345,28.345,0,0,0,19.766,1.211c.126-.04,8.073-1.634,8.073-1.634-.179-.406-2.371-7.35-2.546-7.723a29.852,29.852,0,0,1-2.846-8.723,31.806,31.806,0,0,1-.261-8.41,67.493,67.493,0,0,1,2.6-13.206,68.561,68.561,0,0,1-8.708-2.976,6.8,6.8,0,0,1-4.7,1.743c-2.138-.047-2.832-.962-2.721-1.962-2.279,1.268-4.1,2.466-4.1,2.466-1.936,3.364-5.864,6.63-6.148,11.79C2049.708,1022.08,2052.833,1033.61,2052.835,1033.891Z" transform="translate(-570.564 -464.261)" fill="#e7f1fd"/>
    <path id="Trazado_61024" data-name="Trazado 61024" d="M1928.236,1018.979c3.1-3.617,11.119-11.462,19.4-12.424l-7.144,13.917a6.158,6.158,0,0,1-2.517,3.775,41.456,41.456,0,0,1-11.771,4.911,61.836,61.836,0,0,1-10.561-6.416c-1.914-1.4-5.279-6.754-5.279-6.754l.907-3.036s5.712,3.193,7.752,4.114c1.163.525,3.84,1.778,5.726,2.664A2.944,2.944,0,0,0,1928.236,1018.979Z" transform="translate(-458.212 -464.261)" fill="#699dee"/>
    <path id="Trazado_61025" data-name="Trazado 61025" d="M2083.385,932.215s8.7.143,8.708-5.277,1.133-9.052-4.422-9.373-6.637,1.746-7.079,3.555S2081.122,932.038,2083.385,932.215Z" transform="translate(-595.312 -392.519)" fill="#e49963"/>
    <path id="Trazado_61026" data-name="Trazado 61026" d="M2097.076,912.446s2.383,6.359,6.039,7.3,5.242-.039,5.242-.039a10.355,10.355,0,0,1-3.386-6.117S2098.873,909.419,2097.076,912.446Z" transform="translate(-608.681 -387.532)" fill="#163560"/>
    <path id="Trazado_61027" data-name="Trazado 61027" d="M2081.826,915.374a7.686,7.686,0,0,0-2.213,2.8c-.434,1.38-.629,4.222-1.457,4.125,0,0-1.8-4.322.222-6.767C2080.518,912.939,2081.826,915.374,2081.826,915.374Z" transform="translate(-592.841 -389.944)" fill="#163560"/>
    <path id="Trazado_61028" data-name="Trazado 61028" d="M1883.6,1023.5a5.431,5.431,0,0,0-6.087-3.8c-.558.175-2.187.825-1.146,2.57.768,1.286,1.1.622,2.308,2.351a3.849,3.849,0,0,0,4.017,1.912Z" transform="translate(-430.538 -474.812)" fill="#e49963"/>
    <path id="Trazado_61029" data-name="Trazado 61029" d="M2133.265,1625.383a9.65,9.65,0,0,0,.454,4.105s.583,2.656-2.033,2.705-3.257-.2-2.961-1.826.86-4.445.86-4.445Z" transform="translate(-634.133 -962.967)" fill="#e49963"/>
    <path id="Trazado_61030" data-name="Trazado 61030" d="M2127.72,1650.09s.056.035.164.087H2133a1.247,1.247,0,0,0,.145-.087,12.857,12.857,0,0,0-.187-3.84c-2.962,2.715-4.816-.067-4.816-.067A13.889,13.889,0,0,0,2127.72,1650.09Z" transform="translate(-633.375 -979.729)" fill="#d86713"/>
    <path id="Trazado_61031" data-name="Trazado 61031" d="M1928.787,1618.9s4.822-5.353,6.3-8.076l3.586,1.837-8.016,7.528-1.875-.247Z" transform="translate(-473.058 -951.236)" fill="#e49963"/>
    <path id="Trazado_61032" data-name="Trazado 61032" d="M1913.383,1629.31h6.6a9.374,9.374,0,0,0,1.967-3.05,3.234,3.234,0,0,1,2.184-1.459v4.458h1.369l1.3-4.739c.853-1.569.068-2.992-.534-4.231-.7,0-2.578.477-6.141,4.491a4.668,4.668,0,0,1-3.748,1.749.315.315,0,0,1-.052.028C1914.173,1627.522,1913.559,1628.723,1913.383,1629.31Z" transform="translate(-460.645 -958.861)" fill="#d86713"/>
    <path id="Trazado_61033" data-name="Trazado 61033" d="M2047.854,1006.555s-5.034,12.437-5.183,14.954-.592,41.159-.592,41.159.3,1.777-3.109,1.036-4.294-1.48-4.294-1.48,3.257-23.837,2.369-32.128,6.811-21.814,6.811-21.814Z" transform="translate(-558.394 -464.261)" fill="#699dee"/>
    <path id="Trazado_61034" data-name="Trazado 61034" d="M1984.744,1347.881l3.771.116a74.433,74.433,0,0,0,13.6-25.244q.171-.542.361-1.1c2.674-7.8,8.217-17.583,11.138-26.441.465-1.411.883-2.739,1.257-4,.12-.4.237-.8.348-1.187l-3.106-2.357s-9.326,15.1-12.213,29.314C1997.388,1329.333,1987.344,1344.187,1984.744,1347.881Z" transform="translate(-518.154 -690.811)" fill="#233862"/>
    <path id="Trazado_61035" data-name="Trazado 61035" d="M2115.443,1301.672c-.053,6.911.3,22.8,1.2,29.379h3.34c1.846,0,2.767-.027,2.767-.027,2.258-11.437,3.864-20.9,5.034-29.056.959-6.692,1.813-12.429,2.468-17.368.66-4.971,1.119-9.132,1.284-12.648.025-.554.044-1.093.055-1.615s.013-1.036.009-1.532l-18.226-1.777C2113.6,1279.136,2115.473,1297.655,2115.443,1301.672Z" transform="translate(-621.812 -674.172)" fill="#2b478b"/>
    <path id="Trazado_61036" data-name="Trazado 61036" d="M2147.418,1351.5c1.846,0,2.767-.027,2.767-.027,2.258-11.438,3.864-20.9,5.034-29.056.959-6.692,1.812-12.429,2.468-17.368.66-4.97,1.119-9.132,1.283-12.648l-6.687,3.934s4.268,1.506,2.64,12.906S2149.685,1349.882,2147.418,1351.5Z" transform="translate(-649.251 -694.617)" fill="#233862"/>
    <path id="Trazado_61037" data-name="Trazado 61037" d="M2117.127,1062.981s1.283,4.639,5.725,4.046,10.758-3.257,10.758-3.257-1.9-6-4.258-13.877c-2.858-9.539-6.395-21.837-8.062-29.593a47.972,47.972,0,0,1-.906-5.289l-3.685-7.15s-5.494,12.332-5.791,15.441S2117.127,1062.981,2117.127,1062.981Z" transform="translate(-619.821 -465.314)" fill="#699dee"/>
    <path id="Trazado_61038" data-name="Trazado 61038" d="M2143.983,1081.455c.2,5.034,1.383,14.805,11.944,20.036.028.013.056.028.084.04-2.858-9.539-6.395-21.837-8.062-29.593C2146.01,1074.837,2143.875,1078.683,2143.983,1081.455Z" transform="translate(-646.479 -516.953)" fill="#4a75cb"/>
    <g id="Grupo_29026" data-name="Grupo 29026" transform="translate(1341.782 430.467)">
      <rect id="Rect치ngulo_5730" data-name="Rect치ngulo 5730" width="4.71" height="18.732" transform="translate(92.999 96.33) rotate(-45)" fill="#2b478b"/>
      <rect id="Rect치ngulo_5731" data-name="Rect치ngulo 5731" width="13.35" height="103.372" rx="6.675" transform="translate(100.828 110.267) rotate(-45)" fill="#c65447"/>
      <path id="Trazado_61039" data-name="Trazado 61039" d="M1358.008,446.692a55.4,55.4,0,1,0,78.342,0A55.4,55.4,0,0,0,1358.008,446.692Zm74.027,74.027a49.294,49.294,0,1,1,0-69.712A49.294,49.294,0,0,1,1432.035,520.719Z" transform="translate(-1341.782 -430.467)" fill="#c65447"/>
    </g>
    <path id="Trazado_61040" data-name="Trazado 61040" d="M2094.557,1022.839l-4.863-14.978a75.1,75.1,0,0,1,9.226,3.382s1.927,2.485,3.119,8.217c0,0,1.26,13.762-1.553,18.8,0,0-8.884,1.777-23.1-3.109v-3.257s15.546.814,18.729,1.185Z" transform="translate(-592.816 -465.314)" fill="#e49963"/>
    <path id="Trazado_61041" data-name="Trazado 61041" d="M2138.614,1007.861s9.016.635,11.187,5.472,2.863,20.925.1,25.663c0,0-3.8,1.084-10.535-.175l-.248-.047s-2.147-5.256-.222-6.292c0,0,5.675.3,5.083-1.579S2138.614,1007.861,2138.614,1007.861Z" transform="translate(-641.736 -465.314)" fill="#699dee"/>
    <path id="Trazado_61042" data-name="Trazado 61042" d="M2053.321,1110.466a7.769,7.769,0,0,1-1.5-3.033,3.3,3.3,0,0,0-3.222-2.95c-2.137-.281-3.057-.311-3.051.291a15.95,15.95,0,0,0,4.814,7.322C2053.427,1114.608,2053.321,1110.466,2053.321,1110.466Z" transform="translate(-567.154 -543.025)" fill="#e49963"/>
  </g>
</svg>
