<svg xmlns="http://www.w3.org/2000/svg" width="764.737" height="467.806" viewBox="0 0 764.737 467.806">
  <g id="Grupo_31070" data-name="Grupo 31070" transform="translate(-189.991 -181.313)">
    <path id="Trazado_64990" data-name="Trazado 64990" d="M244.819,648.806s-95.256-86.258-34.655-187.743,141.993-50.449,138.055-168.569S535.4,164.226,596.241,198.476s60.471,75.5,186.061,61.852S931.884,360.451,899.211,418.435c-46.358,82.269,128.664,68.7,18.38,230.371Z" transform="translate(0 0)" fill="#ebf3fa"/>
    <path id="Trazado_64991" data-name="Trazado 64991" d="M588.157,1080.364s43.094,27.384,37.5,35.088-45.819-33.976-45.819-33.976-48.242,18.729-59.452,33.3c0,0,55.541,12.353,48.226,18.443s-65.707-4.079-65.707-4.079-39.135,28.866-23.686,53.829,34.263,25.59,40.4,21.627,36.757-37.558,40.261-32.663-10.571,33.764-26.147,42.635c0,0,46.96,18.068,62.175-1.65s9.25-35.808,18.874-47.822,20.3-17.381,18.079-8.954-22,25.5-22.774,41.748-2.888,28.017,16.289,14.432,45.254-45.776,37.969-63.91l-.911-2.268a9.345,9.345,0,0,1,.911,2.268c4.711-1.409,17.69,2.012,27.329,4.978,1.556.594,3.8,1.325,6.924,2.224h0c1.367.457,2.478.839,3.25,1.108,20.372,7.947,43.04,35.043,43.04,35.043l4.325-2.689c-18.359-32.1-52.62-37.977-52.62-37.977-25.281-6.677-39.534-20.821-39.534-20.821s12.143-49.269-26.543-57.17C630.515,1073.108,604.135,1071.062,588.157,1080.364Z" transform="translate(-201.417 -628.75)" fill="#d2e2f9"/>
    <path id="Trazado_64992" data-name="Trazado 64992" d="M1305.623,307.2s4.708-8.43,15.967-7.494c0,0,16.346-14.051,33.776-1.873,0,0,18.529-3.017,32.25,2.613,9.149,3.754,12.171,7.691,12.171,7.691Z" transform="translate(-786.733 -78.667)" fill="#f8fcff"/>
    <path id="Trazado_64993" data-name="Trazado 64993" d="M810.062,598.895s7.521-13.467,25.507-11.97c0,0,26.111-22.445,53.956-2.993,0,0,29.6-4.82,51.518,4.173,14.615,6,19.442,12.286,19.442,12.286Z" transform="translate(-437.268 -278.329)" fill="#f8fcff"/>
    <path id="Trazado_64994" data-name="Trazado 64994" d="M2126.854,719.029s6.15-12.981,20.857-11.539c0,0,21.351-21.636,44.119-2.885,0,0,24.2-4.646,42.126,4.023,11.951,5.78,15.9,11.843,15.9,11.843Z" transform="translate(-1365.857 -363.628)" fill="#f8fcff"/>
    <g id="Grupo_31030" data-name="Grupo 31030" transform="translate(664.156 296.152)">
      <path id="Trazado_64995" data-name="Trazado 64995" d="M1798.367,695s28.746-59.6,80.328-55.447c0,0,10,.958,10.874,12.4s-18.509,7.235-31.432,8.9S1813.268,674.634,1798.367,695Z" transform="translate(-1798.367 -619.152)" fill="#aec3ff" opacity="0.3"/>
      <path id="Trazado_64996" data-name="Trazado 64996" d="M1803.34,634.676s6.318-53.24,46.933-63.648c0,0,7.916-1.9,11.6,6.634s-12.274,10.421-21.735,15.1S1809.389,615.145,1803.34,634.676Z" transform="translate(-1801.874 -570.847)" fill="#aec3ff" opacity="0.3"/>
    </g>
    <g id="Grupo_31031" data-name="Grupo 31031" transform="translate(344.078 382.586)">
      <path id="Trazado_64997" data-name="Trazado 64997" d="M814.765,968.007s-53.156-39.413-96.9-11.756c0,0-8.411,5.5-3.865,16.032s19.751-2.2,31.967-6.728S792.105,956.9,814.765,968.007Z" transform="translate(-712.657 -922.124)" fill="#aec3ff" opacity="0.3"/>
      <path id="Trazado_64998" data-name="Trazado 64998" d="M848.2,899.956s-30.34-44.2-71.138-34.54c0,0-7.893,2-7.186,11.265s15.711,3.522,26.265,3.269S833.761,885.476,848.2,899.956Z" transform="translate(-752.972 -864.035)" fill="#aec3ff" opacity="0.3"/>
    </g>
    <path id="Trazado_64999" data-name="Trazado 64999" d="M1873.757,1019.32c29.853-23.842-5.5-76.417-5.5-76.417s-76.032-13.141-82.337-23.82,67.186-1.467,67.186-1.467c-7.371-22.792-58.326-66.927-58.326-66.927s-67.54,33.477-71.026,21.576,61.317-26.587,61.317-26.587c-15.523-18.419-48.758-27.482-48.758-27.482-50.883-7.279-57.536,58.481-57.536,58.481s-23.657,11.1-57.569,8.2h0a88.856,88.856,0,0,0-16.626-.8l2.5,5.772c1.75-.2,3.47-.327,5.154-.374a.035.035,0,0,1,.03,0h.073c1.062.009,2.576.028,4.428.066h.007s.005,0,.009,0c4.212.268,7.275.355,9.441.311l.019,0c13.113.591,30.514,2.088,35.673,5.882a12.152,12.152,0,0,1,2.108-2.382l-2.108,2.382c-16.861,19.047,1.034,69.972,18.606,95.048s20.123,9.718,26.28-10.557-10.622-49.886-9.667-61.2,11.7-.044,18.249,18.915-7.8,36.077,2.231,66.938,75.5,29.3,75.5,29.3c-15.217-17.714-19.851-59.3-13.415-63.766s29.291,50.175,35.078,57.726S1843.9,1043.163,1873.757,1019.32Z" transform="translate(-997.553 -448.726)" fill="#aec3ff" opacity="0.3"/>
    <path id="Trazado_65000" data-name="Trazado 65000" d="M1256.008,675.354a178.585,178.585,0,0,1-2.866,31.945,177.406,177.406,0,0,1-336.7,39.854,174.383,174.383,0,0,1-9.032-25.5,178.61,178.61,0,0,1-2.088-84.035c.026-.141.062-.274.088-.416a177.835,177.835,0,0,1,69.226-105.506q5.468-3.968,11.253-7.52A176.4,176.4,0,0,1,1078.657,498q6.768,0,13.4.5a176.155,176.155,0,0,1,87.839,31.22h.009a178.028,178.028,0,0,1,48.648,50.8q4.074,6.436,7.608,13.226a176.554,176.554,0,0,1,19.843,81.611Z" transform="translate(-501.606 -223.321)" fill="#aec3ff"/>
    <g id="Grupo_31032" data-name="Grupo 31032" transform="translate(403.717 288.777)">
      <path id="Trazado_65001" data-name="Trazado 65001" d="M1028.031,658.58c-7.077,11.209,2.955,30.672-18.277,25.364s-34.21-7.67-35.387,4.123,15.924,11.8,15.924,24.187-7.67,16.482-19.463,10.6-15.19-14.438-28.9-9.13-21.674,1.769-24.771-8.847a15.536,15.536,0,0,0-2.2-4.644c.026-.142.062-.274.088-.416a177.833,177.833,0,0,1,69.226-105.506q5.467-3.968,11.253-7.52c5.529.2,12.138,2.3,17.773,9.271,12.385,15.34,20.639,7.67,17.694,25.363s1.769,20.056,11.793,19.463,21.825-.593,23,7.077S1035.108,647.371,1028.031,658.58Z" transform="translate(-914.952 -574.715)" fill="#7e91ed"/>
      <path id="Trazado_65002" data-name="Trazado 65002" d="M1106.134,1085.653s-10.7,12.443-19.927,5.3-6.434-11.621-19.945-7.142-19.449-2.948-26.375,2.682-1.3,6.334-6.1,18.266-14.685,13.847-7.035,25.76,21.879,5.783,29.374,12.083,5.051,12.469,14.407,15.034,18.3-6.549,18.481,4.753-3.427,22.337,8.206,32.846,28.626,2.683,28.321-5.431,7.894-7.435,4.607-17.872,5.89-16.063,2.79-22.811-20.773-9.055-18.714-15.852,18.046-1.034,18.919-15.405-8.836-19.488-7.4-33.511S1107.77,1077.04,1106.134,1085.653Z" transform="translate(-991.816 -919.885)" fill="#7e91ed"/>
      <path id="Trazado_65003" data-name="Trazado 65003" d="M1777.133,920.773a178.584,178.584,0,0,1-2.866,31.945,176.387,176.387,0,0,1-27.991,68.04,20.245,20.245,0,0,1-14.181-.381c-22.117-8.847-5.75-32.733,3.1-44.676s-13.713-6.635-30.079-17.694,1.769-40.7-15.04-35.829-37.156,11.059-46.888-5.308,8.847-19.02.443-32.733,4.866-21.674,21.675-23,14.6-13.27,35.387-15.04,20.348,24.771,43.349,23S1766,872.638,1766,872.638a10.718,10.718,0,0,1,4.8,1.009A177.668,177.668,0,0,1,1777.133,920.773Z" transform="translate(-1426.449 -757.517)" fill="#7e91ed"/>
      <path id="Trazado_65004" data-name="Trazado 65004" d="M1780.008,669.618c-19.127,9.307-26.806-16-43.155-8.4-16.481,7.67-13.6-7.077-26.566-16.517s-38.926,7.67-37.749-7.078,20.639-10.616,24.771-22.409,23-8.847,23-8.847a12.766,12.766,0,0,1,3.432-.779s0-.009.009,0a178.03,178.03,0,0,1,48.648,50.8Q1776.474,662.828,1780.008,669.618Z" transform="translate(-1449.167 -587.973)" fill="#7e91ed"/>
      <path id="Trazado_65005" data-name="Trazado 65005" d="M1440.508,561.9s7.906-11.408-4.651-14.773-12.325,1.04-22.093,0-13.6,6.518-6.279,14.773,13.255,24.1,19.883,15.654S1432.718,562.71,1440.508,561.9Z" transform="translate(-1259.591 -545.833)" fill="#7e91ed"/>
    </g>
    <g id="Grupo_31033" data-name="Grupo 31033" transform="translate(472.59 459.424)">
      <path id="Trazado_65006" data-name="Trazado 65006" d="M1150.679,1187.344a26.659,26.659,0,0,1-.807,4.855h.255a19.21,19.21,0,0,0,.664-3.866C1150.772,1187.391,1150.679,1187.344,1150.679,1187.344Z" transform="translate(-1149.489 -1168.867)" fill="#f78248"/>
      <path id="Trazado_65007" data-name="Trazado 65007" d="M1148.572,1203.527a1,1,0,0,0,.2-.664c-.013-.422.447-.549.588-.179S1148.827,1203.476,1148.572,1203.527Z" transform="translate(-1148.572 -1179.531)" fill="#f78248"/>
      <path id="Trazado_65008" data-name="Trazado 65008" d="M1167.6,1125.485c-1.039-.051-1.209.613-1.209.613h0s-.285-1.294-.515-1.333.051.669-.192.666-.319-.245-.319-.564-.256-.216-.345.051a8.479,8.479,0,0,0-.184.935,1.518,1.518,0,0,0-.09.124,1.136,1.136,0,0,0-1.157-.493,1.305,1.305,0,0,0,.889,1.133.726.726,0,0,0-.012.23,3.62,3.62,0,0,0,.153.526h0l-.172.335-.289.557-.078.148c-.2.386-.438.837-.7,1.329-.027.051-.054.1-.081.153-.146.275-.3.563-.457.859-.133.248-.269.5-.408.758l-.163.3h0q-.221.406-.447.818-.188.342-.377.684l-.034.062c-.274.493-.548.979-.816,1.447l-.084.147c-.265.46-.523.9-.769,1.3a14.128,14.128,0,0,1-1.512,2.187c-1.465,1.465-4.905,2.384-5.348,3.713h0a1.722,1.722,0,0,0-.369.969s0,.008,0,.025c-.011.088-.019.179-.025.273a.044.044,0,0,1,0,.008,9.423,9.423,0,0,0,.076,1.639h0c.18,1.518.585,3.1.627,3.523a4.94,4.94,0,0,1-.362,1.941,45.373,45.373,0,0,0,.531,4.523h.8a16.686,16.686,0,0,1-.323-3.33,22.479,22.479,0,0,1,.612-3.493h0c0,.823,0,1.535-.007,1.663-.025.332,0,.919,0,1.073,0,.118,1.018,2.849,1.483,4.088h.787a18.47,18.47,0,0,1-1.375-4.421,15.585,15.585,0,0,1,1.169-4.594h0a2.816,2.816,0,0,0,.88.188q.125.008.253.008a5.132,5.132,0,0,0,.843-.076h0l-.009.275-.275,8.62h.625c.041-.974.135-2.889.283-3.927.083-.575.43-2.013.816-3.524l-.239,7.451h.625c.041-.974.135-2.889.283-3.927.173-1.2,1.382-5.766,1.759-7.175l.02-.073.066-.246.016-.058.011-.04h0a4.36,4.36,0,0,0,.13-.762,4.964,4.964,0,0,0-.1-1.575,9.387,9.387,0,0,1,.136-2.249,2.964,2.964,0,0,1,.057-.4c.07-.365.2-.914.367-1.575.083-.328.175-.685.274-1.06.066-.25.135-.509.207-.773.091-.339.186-.688.283-1.041.127-.464.257-.933.386-1.4.052-.185.1-.368.154-.549l.141-.5h0c.012-.04.023-.081.034-.121.105-.373.207-.733.3-1.073h0c.024-.084.047-.167.071-.249h0c.082-.288.159-.559.23-.807.023-.079.044-.156.066-.23l.048-.166a.8.8,0,0,0,.512.045c.562-.085.375-.7.426-.834s.637-1.358.494-1.618h0A1.3,1.3,0,0,0,1167.6,1125.485Z" transform="translate(-1151.327 -1124.67)" fill="#f78248"/>
    </g>
    <g id="Grupo_31034" data-name="Grupo 31034" transform="translate(456.389 442.503)">
      <path id="Trazado_65009" data-name="Trazado 65009" d="M1096.519,1153.568a36.722,36.722,0,0,1-1.111,6.686h.352a26.435,26.435,0,0,0,.915-5.323C1096.647,1153.633,1096.519,1153.568,1096.519,1153.568Z" transform="translate(-1094.88 -1128.128)" fill="#f78248"/>
      <path id="Trazado_65010" data-name="Trazado 65010" d="M1093.618,1175.852a1.375,1.375,0,0,0,.281-.914c-.018-.581.616-.756.809-.246S1093.97,1175.781,1093.618,1175.852Z" transform="translate(-1093.618 -1142.812)" fill="#f78248"/>
      <path id="Trazado_65011" data-name="Trazado 65011" d="M1119.82,1068.4c-1.431-.07-1.665.844-1.665.844h0s-.393-1.782-.709-1.835.07.92-.264.917-.44-.337-.44-.777-.352-.3-.475.07a11.654,11.654,0,0,0-.254,1.287,2.036,2.036,0,0,0-.124.171,1.561,1.561,0,0,0-1.592-.679,1.8,1.8,0,0,0,1.224,1.559,1.007,1.007,0,0,0-.016.317,5.022,5.022,0,0,0,.21.725h0c-.067.13-.146.285-.238.461l-.4.766c-.035.067-.07.134-.107.2-.277.532-.6,1.153-.962,1.83l-.112.211c-.2.379-.411.775-.629,1.182q-.275.512-.562,1.044c-.074.138-.149.277-.224.417h0q-.3.56-.615,1.127-.259.471-.519.941l-.047.085c-.377.678-.754,1.349-1.124,1.992l-.116.2c-.365.633-.72,1.238-1.058,1.794a19.452,19.452,0,0,1-2.083,3.011c-2.016,2.016-6.754,3.283-7.363,5.112h0a2.369,2.369,0,0,0-.507,1.334s0,.012,0,.035c-.015.122-.026.246-.035.376a.031.031,0,0,1,0,.011,13.065,13.065,0,0,0,.1,2.256h0c.248,2.09.805,4.27.863,4.851a6.8,6.8,0,0,1-.5,2.673,62.444,62.444,0,0,0,.731,6.227h1.1a23,23,0,0,1-.445-4.586,30.808,30.808,0,0,1,.843-4.809v0c0,1.134,0,2.113-.01,2.291-.035.458,0,1.266,0,1.477,0,.163,1.4,3.922,2.042,5.63h1.083a25.413,25.413,0,0,1-1.893-6.087c-.094-1.452.913-4.449,1.61-6.326h0a3.882,3.882,0,0,0,1.211.259c.115.007.231.01.348.01a7.1,7.1,0,0,0,1.16-.1h0l-.012.378-.38,11.869h.861c.056-1.342.186-3.978.39-5.407.114-.792.592-2.771,1.123-4.853l-.329,10.26h.861c.056-1.342.186-3.978.39-5.407.238-1.658,1.9-7.939,2.422-9.879l.027-.1c.038-.142.069-.259.091-.339l.022-.081.015-.055h0a6.007,6.007,0,0,0,.179-1.05,6.857,6.857,0,0,0-.14-2.169c-.235-.844.141-1.642.187-3.1a4.108,4.108,0,0,1,.078-.545c.1-.5.275-1.259.506-2.169.114-.452.241-.943.377-1.459.091-.344.187-.7.284-1.065.126-.467.257-.948.39-1.433.175-.639.354-1.285.532-1.923q.107-.381.212-.756l.2-.692h0l.047-.167c.145-.514.286-1.01.419-1.477h0c.033-.116.065-.231.1-.343h0c.112-.4.219-.769.317-1.111.031-.109.061-.214.091-.316l.066-.229a1.1,1.1,0,0,0,.7.063c.774-.117.516-.962.586-1.149s.876-1.871.68-2.228h0C1119.7,1069.734,1119.82,1068.4,1119.82,1068.4Z" transform="translate(-1097.412 -1067.275)" fill="#f78248"/>
    </g>
    <path id="Trazado_65012" data-name="Trazado 65012" d="M1073.279,737.758s-15.153-40.688-20.511-40.848-12.5,23.577-17.815,22.918-5.63-8.172-8.642-8.529-20.387,26.455-20.387,26.455l67.355,0Z" transform="translate(-575.388 -363.593)" fill="#4e67d1"/>
    <path id="Trazado_65013" data-name="Trazado 65013" d="M1145.531,703.756c1.419-.172.736,2.879,1.787,2.884s2.367-3.753,3.395-4.1c.786-.269,1.2.64,2.848,1.478-2.323-4.2-4.422-7.074-5.838-7.116-2.17-.065-4.631,3.791-7.146,8.357,1.9-.134,3.75-1.353,4.954-1.5Z" transform="translate(-670.344 -363.584)" fill="#fff"/>
    <path id="Trazado_65014" data-name="Trazado 65014" d="M1168.611,805.4s-10.121-27.176-13.7-27.282-8.346,15.747-11.9,15.307-3.76-5.458-5.772-5.7-13.616,17.669-13.616,17.669l44.986,0Z" transform="translate(-658.389 -420.861)" fill="#8f9fff"/>
    <path id="Trazado_65015" data-name="Trazado 65015" d="M1216.868,782.691c.948-.115.491,1.923,1.194,1.926s1.581-2.507,2.267-2.741c.525-.18.8.427,1.9.987-1.551-2.807-2.953-4.724-3.9-4.753-1.449-.043-3.093,2.532-4.773,5.582,1.268-.09,2.505-.9,3.309-1Z" transform="translate(-721.81 -420.855)" fill="#fff"/>
    <path id="Trazado_65016" data-name="Trazado 65016" d="M1388.358,879.2c2.892,1.306,10.629,6.393,10.629,6.393a112.989,112.989,0,0,1,19.442-2.964c-.423-1.158-1.147-3.43-.308-3.43.8,0,3.746,2.065,5.387,3.261a70.624,70.624,0,0,1,14.88,1.407c3.39.717,8.23,5.126-.106,6.615-7.313,1.307-19.568,1.472-39.3-2.487h0l-6.894,3.284s1.085-2.157,1.925-4.333S1388.358,879.2,1388.358,879.2Z" transform="translate(-845.076 -492.14)" fill="#7e91ed"/>
    <path id="Trazado_65017" data-name="Trazado 65017" d="M1305.944,962.1c2.892,1.305,10.629,6.393,10.629,6.393a113.047,113.047,0,0,1,19.442-2.964c-.423-1.157-1.146-3.429-.308-3.429.8,0,3.747,2.065,5.387,3.261a70.62,70.62,0,0,1,14.88,1.407c3.391.717,8.23,5.126-.105,6.616-7.314,1.307-19.568,1.472-39.295-2.487h0l-6.894,3.284s1.085-2.157,1.925-4.333S1305.944,962.1,1305.944,962.1Z" transform="translate(-786.959 -550.603)" fill="#7e91ed"/>
    <path id="Trazado_65018" data-name="Trazado 65018" d="M1829.134,899.37c1.34-7.565,3.607-16.549-7.814-16.634-12.057-.09-13.187,7.937-12.169,12.727,1.507,7.085-5.416,11.777-4.466,19.648,1.117,9.244,23.079,8.215,26.124,4.465C1837.172,911.741,1828.457,903.191,1829.134,899.37Z" transform="translate(-1138.603 -494.636)" fill="#4e67d1"/>
    <g id="Grupo_31035" data-name="Grupo 31035" transform="translate(680.032 395.203)">
      <rect id="Rectángulo_6218" data-name="Rectángulo 6218" width="0.67" height="43.804" fill="#163560"/>
    </g>
    <g id="Grupo_31036" data-name="Grupo 31036" transform="translate(674.786 413.375)">
      <rect id="Rectángulo_6219" data-name="Rectángulo 6219" width="0.67" height="9.908" transform="matrix(0.845, -0.535, 0.535, 0.845, 0, 0.358)" fill="#163560"/>
    </g>
    <g id="Grupo_31037" data-name="Grupo 31037" transform="translate(680.086 401.147)">
      <rect id="Rectángulo_6220" data-name="Rectángulo 6220" width="7.81" height="0.67" transform="translate(0 6.554) rotate(-57.056)" fill="#163560"/>
    </g>
    <path id="Trazado_65019" data-name="Trazado 65019" d="M1342.906,1063c1.234-6.97,3.323-15.247-7.2-15.325-11.108-.083-12.15,7.312-11.211,11.725,1.389,6.527-4.99,10.85-4.114,18.1,1.028,8.517,21.262,7.569,24.068,4.115C1350.311,1074.4,1342.282,1066.522,1342.906,1063Z" transform="translate(-797.081 -610.95)" fill="#4e67d1"/>
    <g id="Grupo_31038" data-name="Grupo 31038" transform="translate(536.152 443.27)">
      <rect id="Rectángulo_6221" data-name="Rectángulo 6221" width="0.617" height="40.357" transform="translate(0)" fill="#163560"/>
    </g>
    <g id="Grupo_31039" data-name="Grupo 31039" transform="translate(531.319 460.012)">
      <rect id="Rectángulo_6222" data-name="Rectángulo 6222" width="0.617" height="9.128" transform="matrix(0.845, -0.535, 0.535, 0.845, 0, 0.33)" fill="#163560"/>
    </g>
    <g id="Grupo_31040" data-name="Grupo 31040" transform="translate(536.201 448.747)">
      <rect id="Rectángulo_6223" data-name="Rectángulo 6223" width="7.196" height="0.617" transform="translate(0 6.038) rotate(-57.052)" fill="#163560"/>
    </g>
    <path id="Trazado_65020" data-name="Trazado 65020" d="M1254.644,1165.6c1.193-6.739,3.213-14.741-6.961-14.817-10.74-.08-11.747,7.07-10.839,11.336,1.343,6.311-4.824,10.49-3.978,17.5.994,8.234,20.557,7.318,23.269,3.978C1261.8,1176.621,1254.041,1169,1254.644,1165.6Z" transform="translate(-735.369 -683.661)" fill="#627ddd"/>
    <g id="Grupo_31041" data-name="Grupo 31041" transform="translate(509.923 473.45)">
      <rect id="Rectángulo_6224" data-name="Rectángulo 6224" width="0.597" height="39.018" fill="#163560"/>
    </g>
    <g id="Grupo_31042" data-name="Grupo 31042" transform="translate(505.251 489.636)">
      <rect id="Rectángulo_6225" data-name="Rectángulo 6225" width="0.596" height="8.826" transform="translate(0 0.319) rotate(-32.324)" fill="#163560"/>
    </g>
    <g id="Grupo_31043" data-name="Grupo 31043" transform="translate(509.971 478.745)">
      <rect id="Rectángulo_6226" data-name="Rectángulo 6226" width="6.957" height="0.597" transform="translate(0 5.838) rotate(-57.054)" fill="#163560"/>
    </g>
    <path id="Trazado_65021" data-name="Trazado 65021" d="M1938.054,856.358c1.34-7.566,3.607-16.549-7.815-16.634-12.057-.09-13.187,7.937-12.168,12.727,1.507,7.085-5.416,11.777-4.466,19.648,1.117,9.244,23.079,8.215,26.124,4.466C1946.092,868.729,1937.377,860.179,1938.054,856.358Z" transform="translate(-1215.412 -464.304)" fill="#627ddd"/>
    <g id="Grupo_31044" data-name="Grupo 31044" transform="translate(711.709 382.797)">
      <rect id="Rectángulo_6227" data-name="Rectángulo 6227" width="0.67" height="43.804" fill="#163560"/>
    </g>
    <g id="Grupo_31045" data-name="Grupo 31045" transform="translate(706.463 400.968)">
      <rect id="Rectángulo_6228" data-name="Rectángulo 6228" width="0.67" height="9.908" transform="matrix(0.845, -0.535, 0.535, 0.845, 0, 0.358)" fill="#163560"/>
    </g>
    <g id="Grupo_31046" data-name="Grupo 31046" transform="translate(711.763 388.741)">
      <rect id="Rectángulo_6229" data-name="Rectángulo 6229" width="7.81" height="0.67" transform="translate(0 6.554) rotate(-57.054)" fill="#163560"/>
    </g>
    <path id="Trazado_65022" data-name="Trazado 65022" d="M1719.148,838.675c1.34-7.565,3.607-16.549-7.815-16.634-12.057-.09-13.187,7.937-12.169,12.727,1.507,7.085-5.416,11.777-4.465,19.649,1.116,9.244,23.078,8.215,26.123,4.465C1727.185,851.046,1718.471,842.5,1719.148,838.675Z" transform="translate(-1061.042 -451.835)" fill="#627ddd"/>
    <g id="Grupo_31047" data-name="Grupo 31047" transform="translate(647.607 377.31)">
      <rect id="Rectángulo_6230" data-name="Rectángulo 6230" width="0.67" height="43.804" fill="#163560"/>
    </g>
    <g id="Grupo_31048" data-name="Grupo 31048" transform="translate(642.361 395.481)">
      <rect id="Rectángulo_6231" data-name="Rectángulo 6231" width="0.67" height="9.908" transform="matrix(0.845, -0.535, 0.535, 0.845, 0, 0.358)" fill="#163560"/>
    </g>
    <g id="Grupo_31049" data-name="Grupo 31049" transform="translate(647.661 383.254)">
      <rect id="Rectángulo_6232" data-name="Rectángulo 6232" width="7.81" height="0.67" transform="matrix(0.544, -0.839, 0.839, 0.544, 0, 6.554)" fill="#163560"/>
    </g>
    <g id="Grupo_31050" data-name="Grupo 31050" transform="translate(670.904 493.447)">
      <path id="Trazado_65023" data-name="Trazado 65023" d="M1831.37,1284.953c1.266-1.844,2.886-8.991.479-11.1s-10.834,3.553-10.589,5.273S1830.02,1286.918,1831.37,1284.953Z" transform="translate(-1821.255 -1263.564)" fill="#2b478b"/>
      <path id="Trazado_65024" data-name="Trazado 65024" d="M1827.792,1250.563s-.266-3.8-3.6-4.032-2.965,4.074-1.47,5.745S1828.128,1253.625,1827.792,1250.563Z" transform="translate(-1821.513 -1244.622)" fill="#2b478b"/>
      <path id="Trazado_65025" data-name="Trazado 65025" d="M1852.009,1245.623s1.359-3.556-1.566-5.174-4.407,2.445-3.754,4.59S1851.023,1248.543,1852.009,1245.623Z" transform="translate(-1839.083 -1240.078)" fill="#2b478b"/>
      <path id="Trazado_65026" data-name="Trazado 65026" d="M1870.59,1263.321s3.8-.25,4.047-3.583-4.061-2.983-5.738-1.494S1867.525,1263.644,1870.59,1263.321Z" transform="translate(-1854.139 -1252.121)" fill="#2b478b"/>
    </g>
    <path id="Trazado_65027" data-name="Trazado 65027" d="M1872.38,1287.254s3.558,1.354,5.172-1.574-2.451-4.4-4.6-3.748S1869.459,1286.272,1872.38,1287.254Z" transform="translate(-1185.221 -776.037)" fill="#2b478b"/>
    <g id="Grupo_31051" data-name="Grupo 31051" transform="translate(664.848 462.819)">
      <path id="Trazado_65028" data-name="Trazado 65028" d="M1830.42,1177.17c.271-2.22-1.593-9.308-4.7-10.07s-7.967,8.156-6.955,9.568S1830.131,1179.536,1830.42,1177.17Z" transform="translate(-1813.344 -1157.953)" fill="#2b478b"/>
      <path id="Trazado_65029" data-name="Trazado 65029" d="M1807.252,1155.562s-1.99-3.245-5.056-1.912-.748,4.984,1.351,5.774S1808.966,1158.123,1807.252,1155.562Z" transform="translate(-1800.715 -1148.274)" fill="#2b478b"/>
      <path id="Trazado_65030" data-name="Trazado 65030" d="M1827.354,1140.052s-.437-3.781-3.78-3.865-2.778,4.2-1.208,5.805S1827.829,1143.1,1827.354,1140.052Z" transform="translate(-1815.105 -1136.186)" fill="#2b478b"/>
      <path id="Trazado_65031" data-name="Trazado 65031" d="M1852.116,1145.149s3.254-1.976,1.934-5.048-4.98-.769-5.78,1.326S1849.548,1146.852,1852.116,1145.149Z" transform="translate(-1834.128 -1137.896)" fill="#2b478b"/>
    </g>
    <path id="Trazado_65032" data-name="Trazado 65032" d="M1864.649,1165.939s3.781-.443,3.86-3.785-4.208-2.773-5.807-1.2S1861.605,1166.418,1864.649,1165.939Z" transform="translate(-1178.952 -689.951)" fill="#2b478b"/>
    <g id="Grupo_31052" data-name="Grupo 31052" transform="translate(699.53 448.458)">
      <path id="Trazado_65033" data-name="Trazado 65033" d="M1948.06,1128.458c.271-2.22-1.593-9.308-4.7-10.07s-7.967,8.156-6.955,9.568S1947.771,1130.824,1948.06,1128.458Z" transform="translate(-1930.985 -1109.242)" fill="#2b478b"/>
      <path id="Trazado_65034" data-name="Trazado 65034" d="M1924.893,1106.85s-1.99-3.245-5.056-1.912-.748,4.983,1.35,5.774S1926.607,1109.411,1924.893,1106.85Z" transform="translate(-1918.356 -1099.563)" fill="#2b478b"/>
      <path id="Trazado_65035" data-name="Trazado 65035" d="M1944.995,1091.34s-.437-3.781-3.779-3.865-2.779,4.2-1.209,5.805S1945.47,1094.385,1944.995,1091.34Z" transform="translate(-1932.746 -1087.474)" fill="#2b478b"/>
      <path id="Trazado_65036" data-name="Trazado 65036" d="M1969.757,1096.437s3.253-1.976,1.934-5.048-4.98-.769-5.78,1.325S1967.189,1098.14,1969.757,1096.437Z" transform="translate(-1951.769 -1089.184)" fill="#2b478b"/>
    </g>
    <path id="Trazado_65037" data-name="Trazado 65037" d="M1982.29,1117.227s3.781-.443,3.86-3.785-4.208-2.773-5.807-1.2S1979.246,1117.707,1982.29,1117.227Z" transform="translate(-1261.911 -655.6)" fill="#2b478b"/>
    <path id="Trazado_65038" data-name="Trazado 65038" d="M1536.958,1264.674c.123-.068,13.747-9.68,21.772-8.506s8.794,17.829,8.794,17.829Z" transform="translate(-949.868 -757.907)" fill="#2b478b"/>
    <path id="Trazado_65039" data-name="Trazado 65039" d="M1558.673,1349.72s10.82,8.092,16.544,6.551,9.271-13.675,8.709-15.387-10.03,0-10.03,0Z" transform="translate(-965.181 -817.181)" fill="#2b478b"/>
    <path id="Trazado_65040" data-name="Trazado 65040" d="M1543.549,1286.848s-8.807,4.4-10.862,3.229-4.892-13.993-18.592-14.091-17.515,5.577-18.788,8.219-.881,6.262-5.48,7.926-5.871,4.012-2.348,4.991,8.806.685,11.742,3.914,16.439,6.067,21.918,3.327,7.633-9.491,11.155-8.709,6.458,8.709,9.491,7.437S1548.344,1286.358,1543.549,1286.848Z" transform="translate(-913.551 -771.952)" fill="#f78248"/>
    <path id="Trazado_65041" data-name="Trazado 65041" d="M1527.01,1307.942a1.522,1.522,0,1,1,2.153,0A1.522,1.522,0,0,1,1527.01,1307.942Z" transform="translate(-942.538 -792.656)" fill="#0b0755"/>
    <path id="Trazado_65042" data-name="Trazado 65042" d="M1687.215,1403.343c.111-.061,12.433-8.755,19.69-7.693s7.954,16.125,7.954,16.125Z" transform="translate(-1055.827 -856.275)" fill="#2b478b"/>
    <path id="Trazado_65043" data-name="Trazado 65043" d="M1706.854,1480.259s9.785,7.319,14.962,5.925,8.385-12.368,7.876-13.916-9.071,0-9.071,0Z" transform="translate(-1069.677 -909.883)" fill="#2b478b"/>
    <path id="Trazado_65044" data-name="Trazado 65044" d="M1693.175,1423.4s-7.965,3.982-9.824,2.92-4.424-12.655-16.815-12.744-15.841,5.044-16.991,7.434-.8,5.664-4.956,7.168-5.31,3.629-2.124,4.514,7.965.619,10.62,3.54,14.868,5.487,19.824,3.009,6.9-8.584,10.089-7.876,5.841,7.876,8.584,6.726S1697.512,1422.954,1693.175,1423.4Z" transform="translate(-1022.982 -868.977)" fill="#f78248"/>
    <path id="Trazado_65045" data-name="Trazado 65045" d="M1678.218,1442.476a1.377,1.377,0,1,1,1.947,0A1.376,1.376,0,0,1,1678.218,1442.476Z" transform="translate(-1049.198 -887.702)" fill="#0b0755"/>
    <path id="Trazado_65046" data-name="Trazado 65046" d="M1242.975,698.182s6.351-15.357,21.538-13.651c0,0,22.049-25.6,45.561-3.413,0,0,24.993-5.5,43.5,4.759,12.341,6.838,16.417,14.01,16.417,14.01Z" transform="translate(-742.554 -346.079)" fill="#d2e0ff"/>
    <path id="Trazado_65047" data-name="Trazado 65047" d="M1317.619,745.962s4.661-10.47,15.806-9.307c0,0,16.181-17.45,33.436-2.326,0,0,18.341-3.747,31.925,3.244,9.056,4.662,12.048,9.552,12.048,9.552Z" transform="translate(-795.192 -385.633)" fill="#f8fcff"/>
    <path id="Trazado_65048" data-name="Trazado 65048" d="M1065.6,1391.376s4.7-11.376,15.955-10.112c0,0,16.333-18.961,33.751-2.528,0,0,18.515-4.072,32.226,3.525,9.142,5.065,12.161,10.379,12.161,10.379Z" transform="translate(-617.469 -839.685)" fill="#d2e0ff"/>
    <path id="Trazado_65049" data-name="Trazado 65049" d="M1213.418,1426.77s3.452-7.756,11.708-6.894c0,0,11.986-12.927,24.768-1.723,0,0,13.587-2.776,23.649,2.4,6.709,3.453,8.925,7.076,8.925,7.076Z" transform="translate(-721.711 -868.986)" fill="#f8fcff"/>
    <path id="Trazado_65050" data-name="Trazado 65050" d="M1526.86,605.607s4.132-11.069,14.011-9.839c0,0,14.343-18.448,29.639-2.46,0,0,16.259-3.962,28.3,3.43,8.028,4.928,10.68,10.1,10.68,10.1Z" transform="translate(-942.747 -285.938)" fill="#d2e0ff"/>
    <path id="Trazado_65051" data-name="Trazado 65051" d="M1656.673,640.046s3.032-7.546,10.282-6.708c0,0,10.526-12.578,21.75-1.677,0,0,11.932-2.7,20.768,2.338,5.892,3.36,7.838,6.885,7.838,6.885Z" transform="translate(-1034.29 -314.446)" fill="#f8fcff"/>
    <g id="Grupo_31055" data-name="Grupo 31055" transform="translate(760.813 379.827)">
      <path id="Trazado_65052" data-name="Trazado 65052" d="M2296.2,856.174a11.62,11.62,0,0,0-9.187-.983c-15.605-1.833-20.158,16.367-19.946,22.629s.926,12.988-6.043,21.123c-20.131,23.5,22.029,24.536,22.029,24.536.357-18.775,22.863-11.924,21.876-10.022C2333.782,920.38,2307.8,862.191,2296.2,856.174Z" transform="translate(-2217.445 -854.675)" fill="#163560"/>
      <path id="Trazado_65053" data-name="Trazado 65053" d="M2145.785,1108.059s-3.251-4.949-5.871-5.046-7.472-1.456-7.084-.485,3.4,1.068,3.688,1.65-4.464,1.456-5.823,1.553-4.562,0-4.464.679,5.772,3.494,9.776,3.105a27.166,27.166,0,0,1,8.954,1.165Z" transform="translate(-2126.229 -1029.213)" fill="#ffb27d"/>
      <path id="Trazado_65054" data-name="Trazado 65054" d="M2224.884,1043.1a41.1,41.1,0,0,1-4.2,6.348c-3.261,4.084-8.289,8.8-14.6,9.734a15.67,15.67,0,0,1-8.675-1.408l-.01,0c-7.667-3.4-13.433-11.231-13.433-11.231a6.3,6.3,0,0,1,.86-6.185s15.482,3.483,16.957,2.745,10.076-25.517,12.123-28.63,9.029-4.731,9.029-4.731Z" transform="translate(-2166.636 -964.021)" fill="#739af0"/>
      <path id="Trazado_65055" data-name="Trazado 65055" d="M2253.886,1124.8c-3.261,4.084-8.289,8.8-14.6,9.734a15.67,15.67,0,0,1-8.675-1.408c.3.04,7.958.986,11.01-4.475,3.114-5.571,6.48-14.418,11.105-11.469C2254.72,1118.455,2254.631,1121.618,2253.886,1124.8Z" transform="translate(-2199.836 -1039.379)" fill="#5a8ae0"/>
      <path id="Trazado_65056" data-name="Trazado 65056" d="M2478.8,1684.9s4.724,4.311,3.8,7.375-5.185,5.105-5.761,8.849-2.881,5.786-4.955,5.786h-9.888s-1.526-2.635,2.161-3.429,5.077-5.194,4.847-9.279a71.9,71.9,0,0,1,.345-9.53l7.836-1.816Z" transform="translate(-2362.786 -1438.699)" fill="#1b3051"/>
      <path id="Trazado_65057" data-name="Trazado 65057" d="M2318.713,1695.991s1.7,18.264-.375,19.286l-26.962.221s.418-3.339,4.682-4.02,11.753-3.177,13.021-8.736S2318.713,1695.991,2318.713,1695.991Z" transform="translate(-2242.69 -1447.963)" fill="#1b3051"/>
      <path id="Trazado_65058" data-name="Trazado 65058" d="M2335.024,1026.8s-.059,7.387-.455,14.079c-.263,4.436-.671,8.567-1.307,10.037-1.6,3.686-3.4,4.286-3.4,4.286l-13.937,3.416-4.9,1.2-15.453-4.616s-7.038-19.645-4.212-30.7a85,85,0,0,1,7.144-18.739,96.258,96.258,0,0,1,29.028-1.047Z" transform="translate(-2242.207 -960.049)" fill="#739af0"/>
      <path id="Trazado_65059" data-name="Trazado 65059" d="M2380.453,1103.356c-.263,4.436-.671,8.567-1.307,10.037-1.6,3.686-3.4,4.286-3.4,4.286l-13.936,3.416-6.053-1.779s21.607-9.238,19.368-26.623Z" transform="translate(-2288.09 -1022.522)" fill="#5a8ae0"/>
      <path id="Trazado_65060" data-name="Trazado 65060" d="M2291.075,1187.56s-7.652,23.82-8.144,31.93,14.629,115.207,15.237,118.944c.574,3.523,4.948,5.768,4.948,5.768a6.618,6.618,0,0,0,4.883.376c3.983-1.125,5.243-2.472,5.243-2.472s5.956-76.381,2.27-103.666a432.183,432.183,0,0,1-3.729-50.88Z" transform="translate(-2236.726 -1089.422)" fill="#ed7d2b"/>
      <path id="Trazado_65061" data-name="Trazado 65061" d="M2349.033,1185.151s11.673,15.663,12.761,26.25,1.707,47.778,4.026,58.1,10.837,30.185,10.837,62.378a6.422,6.422,0,0,1-3.619,2.828,29.838,29.838,0,0,1-3.183.88,5,5,0,0,1-5.6-2.657c-5.759-11.6-24.1-48.993-25.044-56.756-.666-5.494-6.458-41.853-19.093-63.189-3.033-5.122,1.862-25.491,1.862-25.491Z" transform="translate(-2262.26 -1087.723)" fill="#f99746"/>
      <path id="Trazado_65062" data-name="Trazado 65062" d="M2305.4,1175.088s3.072,2.43,9.175,2.553c7.29.146,25.354-1.859,25.354-1.859a14.945,14.945,0,0,1,.77,4.611s-22.062,5.565-34.844.812A8.077,8.077,0,0,1,2305.4,1175.088Z" transform="translate(-2252.272 -1080.627)" fill="#233862"/>
      <g id="Grupo_31053" data-name="Grupo 31053" transform="translate(57.227 95.766)">
        <path id="Trazado_65063" data-name="Trazado 65063" d="M2323.671,1187.046a3.794,3.794,0,1,1,3.326-3.765A3.57,3.57,0,0,1,2323.671,1187.046Zm0-6.427a2.705,2.705,0,1,0,2.224,2.662A2.475,2.475,0,0,0,2323.671,1180.618Z" transform="translate(-2320.344 -1179.516)" fill="#fff"/>
      </g>
      <path id="Trazado_65064" data-name="Trazado 65064" d="M2390.769,1244.4s-1.323,3.083-3,3.538-2.938,1.983-3.546,2.432-1.7.578-1.4,1.057,3.323-.382,3.73-.535-2.421,2.844-3.346,3.773-3,2.258-2.5,2.878,6.387-.07,8.815-1.664,4.624-8.014,4.624-8.014Z" transform="translate(-2305.638 -1129.502)" fill="#ffb27d"/>
      <path id="Trazado_65065" data-name="Trazado 65065" d="M2411.529,1006.184s9.038,1.317,12.526,7.734,11.8,35.832,10.013,40.97-19.438,26.9-19.438,26.9-4.826-1.235-4.826-3.694c0,0,10.676-25.05,10.5-27.01s-10.012-16.979-9.655-23.773S2411.529,1006.184,2411.529,1006.184Z" transform="translate(-2326.202 -961.518)" fill="#739af0"/>
      <g id="Grupo_31054" data-name="Grupo 31054" transform="translate(55.235 8.016)">
        <path id="Trazado_65066" data-name="Trazado 65066" d="M2355.453,974.491c1.772-.816,1.689-2.325.917-4.486a33.97,33.97,0,0,1-1.652-11.266l-.7.138-11.765,2.33s.268,3.7.276,7.19c0,.029,0,.058,0,.087.014,3.029-1.111,5.6,1.559,7C2346.833,976.923,2352.958,975.639,2355.453,974.491Z" transform="translate(-2333.802 -936.076)" fill="#ffb27d"/>
        <path id="Trazado_65067" data-name="Trazado 65067" d="M2342.254,961.537s.268,3.7.276,7.19c6.583-.185,10.063-6.191,11.489-9.52Z" transform="translate(-2333.802 -936.406)" fill="#e8945b"/>
        <path id="Trazado_65068" data-name="Trazado 65068" d="M2322.387,915.442s15.576.257,15.586-9.445,2.029-16.2-7.916-16.778-11.881,3.126-12.673,6.363S2318.336,915.125,2322.387,915.442Z" transform="translate(-2316.134 -887.009)" fill="#ffb27d"/>
        <path id="Trazado_65069" data-name="Trazado 65069" d="M2336.752,883.837s4.265,11.383,10.809,13.066,9.384-.07,9.384-.07a18.535,18.535,0,0,1-6.062-10.95S2339.969,878.42,2336.752,883.837Z" transform="translate(-2329.923 -881.865)" fill="#163560"/>
        <path id="Trazado_65070" data-name="Trazado 65070" d="M2321.472,887.249s-3.163,1.182-4.464,3.489a15.678,15.678,0,0,0-2.106,8.907s-3.213-7.737.4-12.113C2319.129,882.891,2321.472,887.249,2321.472,887.249Z" transform="translate(-2313.585 -884.353)" fill="#163560"/>
        <path id="Trazado_65071" data-name="Trazado 65071" d="M2332.128,957.026s-.269,1.143-3.114.967c0,0-2.388-.147-2.315-1.4A7.683,7.683,0,0,1,2332.128,957.026Z" transform="translate(-2322.832 -934.353)" fill="#fff"/>
      </g>
    </g>
    <g id="Grupo_31064" data-name="Grupo 31064" transform="translate(459.115 576.807)">
      <g id="Grupo_31057" data-name="Grupo 31057" transform="translate(25.156 25.461)">
        <path id="Trazado_65072" data-name="Trazado 65072" d="M1191.241,1618.6c2.5,1.012,11.418.193,11.707-.519s-5.546-7.51-8.043-8.522a4.878,4.878,0,0,0-3.664,9.042Z" transform="translate(-1188.194 -1609.198)" fill="#75ad68"/>
        <path id="Trazado_65073" data-name="Trazado 65073" d="M1270.948,1649.929c-1.4,2.3-2.035,11.237-1.378,11.637s8.308-4.26,9.71-6.561a4.878,4.878,0,0,0-8.331-5.076Z" transform="translate(-1245.396 -1636.271)" fill="#75ad68"/>
        <path id="Trazado_65074" data-name="Trazado 65074" d="M1225.959,1692.059c2.567.819,11.4-.676,11.634-1.409s-6.1-7.067-8.668-7.886a4.878,4.878,0,0,0-2.966,9.294Z" transform="translate(-1212.43 -1660.913)" fill="#75ad68"/>
        <g id="Grupo_31056" data-name="Grupo 31056" transform="translate(14.452 8.675)">
          <path id="Trazado_65075" data-name="Trazado 65075" d="M1249.284,1669.743c-.008-.2-1-20.428-12.069-30.87l.235-.25c11.176,10.539,12.168,30.9,12.177,31.105Z" transform="translate(-1237.215 -1638.623)" fill="#75ad68"/>
        </g>
      </g>
      <g id="Grupo_31059" data-name="Grupo 31059" transform="translate(68.095 29.101)">
        <path id="Trazado_65076" data-name="Trazado 65076" d="M1384.308,1627.741c-1.556,1.032-7.726,1.711-8.02,1.267s2.726-5.867,4.281-6.9a3.38,3.38,0,0,1,3.739,5.632Z" transform="translate(-1363.76 -1621.545)" fill="#75ad68"/>
        <path id="Trazado_65077" data-name="Trazado 65077" d="M1339.7,1660.35c1.27,1.368,2.937,7.348,2.546,7.71s-6.23-1.743-7.5-3.111a3.38,3.38,0,1,1,4.954-4.6Z" transform="translate(-1333.843 -1648.148)" fill="#75ad68"/>
        <path id="Trazado_65078" data-name="Trazado 65078" d="M1370.217,1682.421c-1.629.911-7.833,1.119-8.093.653s3.164-5.642,4.793-6.554a3.38,3.38,0,0,1,3.3,5.9Z" transform="translate(-1353.776 -1660.01)" fill="#75ad68"/>
        <g id="Grupo_31058" data-name="Grupo 31058" transform="translate(8.2 7.314)">
          <path id="Trazado_65079" data-name="Trazado 65079" d="M1362.273,1669.122c-.022-.139-2.151-14.007,3.922-22.63l-.194-.137c-6.13,8.7-3.986,22.664-3.963,22.8Z" transform="translate(-1361.657 -1646.355)" fill="#75ad68"/>
        </g>
      </g>
      <g id="Grupo_31061" data-name="Grupo 31061" transform="translate(41.68 1.997)">
        <g id="Grupo_31060" data-name="Grupo 31060" transform="translate(8.027 8.72)">
          <path id="Trazado_65080" data-name="Trazado 65080" d="M1290.342,1607.688l-.579-.009c-6.361-28.508-18.13-47.934-18.294-48.2l.483-.3C1272.116,1559.453,1283.969,1579.005,1290.342,1607.688Z" transform="translate(-1271.469 -1559.186)" fill="#75ad68"/>
        </g>
        <path id="Trazado_65081" data-name="Trazado 65081" d="M1247.274,1540.612c1.262,1.074,6.629,2.324,6.936,1.964s-1.784-5.459-3.045-6.533a3,3,0,1,0-3.89,4.57Z" transform="translate(-1245.636 -1533.64)" fill="#fff"/>
        <path id="Trazado_65082" data-name="Trazado 65082" d="M1272.393,1531.174c-.792,1.456-.911,6.965-.495,7.191s4.975-2.868,5.767-4.324a3,3,0,0,0-5.272-2.867Z" transform="translate(-1263.579 -1529.606)" fill="#fff"/>
        <path id="Trazado_65083" data-name="Trazado 65083" d="M1280.312,1551.452c-1.645-.2-6.816,1.7-6.874,2.17s4.489,3.581,6.134,3.786a3,3,0,0,0,.74-5.956Z" transform="translate(-1264.83 -1545.001)" fill="#fff"/>
        <path id="Trazado_65084" data-name="Trazado 65084" d="M1273.879,1563.9c-.392-1.61-4.006-5.77-4.465-5.658s-1.757,5.467-1.365,7.077a3,3,0,1,0,5.831-1.419Z" transform="translate(-1260.979 -1549.8)" fill="#fff"/>
        <path id="Trazado_65085" data-name="Trazado 65085" d="M1249,1564.957c1.343-.971,3.831-5.888,3.554-6.271s-5.726.437-7.069,1.407a3,3,0,0,0,3.516,4.864Z" transform="translate(-1244.242 -1550.044)" fill="#fff"/>
        <path id="Trazado_65086" data-name="Trazado 65086" d="M1269.087,1556.537a.988.988,0,1,1,.973,1A.988.988,0,0,1,1269.087,1556.537Z" transform="translate(-1261.762 -1547.912)" fill="#f77d48"/>
        <path id="Trazado_65087" data-name="Trazado 65087" d="M1317,1618.372c-1.329,2.216-1.878,10.793-1.245,11.172s7.941-4.142,9.271-6.358a4.68,4.68,0,0,0-8.026-4.814Z" transform="translate(-1294.485 -1590.6)" fill="#75ad68"/>
      </g>
      <g id="Grupo_31062" data-name="Grupo 31062" transform="translate(8.744 34.212)">
        <path id="Trazado_65088" data-name="Trazado 65088" d="M1133.022,1638.88c.142.213,6.57,11.079,12.607,28.551-.248-.072-.461-.107-.71-.178-5.966-17.188-12.251-27.841-12.393-28.054Z" transform="translate(-1132.525 -1638.88)" fill="#75ad68"/>
      </g>
      <path id="Trazado_65089" data-name="Trazado 65089" d="M1106.432,1618.522c1.353,1.178,7.149,2.594,7.485,2.208s-1.866-5.931-3.22-7.108a3.248,3.248,0,0,0-4.265,4.9Z" transform="translate(-1104.593 -1586.293)" fill="#fff"/>
      <path id="Trazado_65090" data-name="Trazado 65090" d="M1133.625,1608.612c-.874,1.567-1.068,7.529-.621,7.779s5.42-3.046,6.294-4.613a3.248,3.248,0,0,0-5.673-3.166Z" transform="translate(-1123.955 -1582.149)" fill="#fff"/>
      <path id="Trazado_65091" data-name="Trazado 65091" d="M1142.091,1630.748c-1.778-.24-7.4,1.76-7.467,2.267s4.818,3.93,6.6,4.171a3.249,3.249,0,0,0,.871-6.438Z" transform="translate(-1125.26 -1598.92)" fill="#fff"/>
      <path id="Trazado_65092" data-name="Trazado 65092" d="M1134.864,1644c-.405-1.748-4.268-6.294-4.767-6.178s-1.967,5.9-1.562,7.646a3.248,3.248,0,1,0,6.329-1.468Z" transform="translate(-1120.918 -1603.924)" fill="#fff"/>
      <path id="Trazado_65093" data-name="Trazado 65093" d="M1107.987,1645.029c1.465-1.035,4.217-6.328,3.921-6.747s-6.2.405-7.67,1.44a3.248,3.248,0,0,0,3.748,5.307Z" transform="translate(-1102.865 -1604.169)" fill="#fff"/>
      <path id="Trazado_65094" data-name="Trazado 65094" d="M1129.914,1635.961a1.07,1.07,0,1,1,1.041,1.1A1.07,1.07,0,0,1,1129.914,1635.961Z" transform="translate(-1121.939 -1601.876)" fill="#f77d48"/>
      <path id="Trazado_65095" data-name="Trazado 65095" d="M1167.5,1674.156c-1.128,1.834-1.662,8.976-1.139,9.3s6.655-3.379,7.782-5.213a3.9,3.9,0,1,0-6.643-4.084Z" transform="translate(-1147.501 -1628.235)" fill="#75ad68"/>
      <g id="Grupo_31063" data-name="Grupo 31063" transform="translate(102.126 9.053)">
        <path id="Trazado_65096" data-name="Trazado 65096" d="M1449.276,1609.12l.628-.1c2.472-31.975,12.235-54.921,12.372-55.233l-.571-.247C1461.568,1553.856,1451.733,1576.953,1449.276,1609.12Z" transform="translate(-1449.276 -1553.541)" fill="#75ad68"/>
      </g>
      <path id="Trazado_65097" data-name="Trazado 65097" d="M1498.391,1530.367c-1.2,1.364-6.843,3.558-7.232,3.214s1.088-6.211,2.292-7.575a3.294,3.294,0,0,1,4.94,4.36Z" transform="translate(-1376.641 -1524.285)" fill="#fff"/>
      <path id="Trazado_65098" data-name="Trazado 65098" d="M1472.333,1524.16c1.087,1.459,2.075,7.428,1.658,7.738s-5.854-2.342-6.941-3.8a3.295,3.295,0,1,1,5.283-3.938Z" transform="translate(-1359.224 -1522.834)" fill="#fff"/>
      <path id="Trazado_65099" data-name="Trazado 65099" d="M1458.723,1548.605c1.755-.478,7.672.785,7.809,1.287s-4.321,4.592-6.076,5.07a3.295,3.295,0,0,1-1.733-6.357Z" transform="translate(-1352.099 -1540.933)" fill="#fff"/>
      <path id="Trazado_65100" data-name="Trazado 65100" d="M1478.055,1559.327c.175-1.811,3.455-6.9,3.972-6.846s2.762,5.669,2.587,7.48a3.295,3.295,0,0,1-6.559-.634Z" transform="translate(-1367.434 -1543.74)" fill="#fff"/>
      <path id="Trazado_65101" data-name="Trazado 65101" d="M1496.93,1558.706c-1.611-.846-5.081-5.8-4.84-6.262s6.292-.418,7.9.428a3.295,3.295,0,0,1-3.063,5.834Z" transform="translate(-1377.334 -1543.509)" fill="#fff"/>
      <path id="Trazado_65102" data-name="Trazado 65102" d="M1490.594,1550.375a1.085,1.085,0,1,0-.9,1.242A1.085,1.085,0,0,0,1490.594,1550.375Z" transform="translate(-1374.767 -1541.611)" fill="#f77d48"/>
      <path id="Trazado_65103" data-name="Trazado 65103" d="M1422.509,1655.68c1.79,2.2,3.723,11.438,3.094,11.948s-9.277-3.264-11.067-5.465a5.138,5.138,0,1,1,7.972-6.483Z" transform="translate(-1321.84 -1615.178)" fill="#75ad68"/>
      <path id="Trazado_65104" data-name="Trazado 65104" d="M1105.2,1726.763s3.547-9.324,16.425-9.91,21.746,7.024,32.386,3.512,28.25-11.443,44.909-6.16,19.468,12.558,19.468,12.558Z" transform="translate(-1104.51 -1656.543)" fill="#a8d29f"/>
    </g>
    <path id="Trazado_65105" data-name="Trazado 65105" d="M624.044,1679.286h30.439c1.631-1.384-1.129-4.526-4.012-4.737a17.8,17.8,0,0,0-4.646.55c-.419-5.563-2.811-30.573-11.826-29.568-10.136,1.125,0,11.014,2.866,16.869a139.131,139.131,0,0,1,5.385,13.49c-.823.179-1.675.353-2.545.513-1.343-4.125-6.342-18-12.7-17.193-7.464.947-4.464,6.51.827,9.813,3.881,2.428,8.647,5.88,10.912,7.548a32.343,32.343,0,0,1-5.953.477C627.576,1676.922,625.03,1678.459,624.044,1679.286Z" transform="translate(-305.022 -1032.53)" fill="#a8d29f"/>
    <path id="Trazado_65106" data-name="Trazado 65106" d="M2036.629,1698.881h-22.935c-1.229-1.042.851-3.41,3.023-3.569a13.4,13.4,0,0,1,3.5.414c.316-4.191,2.118-23.036,8.91-22.279,7.638.848,0,8.3-2.159,12.71a104.8,104.8,0,0,0-4.057,10.164c.62.135,1.262.266,1.917.387,1.012-3.108,4.779-13.563,9.569-12.954,5.624.713,3.363,4.9-.623,7.393-2.924,1.83-6.516,4.43-8.222,5.687a24.347,24.347,0,0,0,4.486.36C2033.968,1697.1,2035.885,1698.258,2036.629,1698.881Z" transform="translate(-1285.799 -1052.222)" fill="#a8d29f"/>
    <g id="Grupo_31065" data-name="Grupo 31065" transform="translate(611.744 602.845)">
      <path id="Trazado_65107" data-name="Trazado 65107" d="M1630.305,1652.714l-.469-.074a143.108,143.108,0,0,0-9.251-41.3l.427-.184A143.583,143.583,0,0,1,1630.305,1652.714Z" transform="translate(-1620.585 -1611.158)" fill="#75ad68"/>
    </g>
    <g id="Grupo_31066" data-name="Grupo 31066" transform="translate(604.793 596.077)">
      <path id="Trazado_65108" data-name="Trazado 65108" d="M1602.31,1593.831c.9,1.02,5.116,2.661,5.407,2.4s-.813-4.644-1.714-5.663a2.463,2.463,0,0,0-3.694,3.26Z" transform="translate(-1600.312 -1589.284)" fill="#fff"/>
      <path id="Trazado_65109" data-name="Trazado 65109" d="M1622.558,1589.19c-.813,1.091-1.551,5.554-1.24,5.786s4.377-1.751,5.19-2.842a2.463,2.463,0,0,0-3.95-2.944Z" transform="translate(-1614.099 -1588.199)" fill="#fff"/>
      <path id="Trazado_65110" data-name="Trazado 65110" d="M1628.176,1607.468c-1.313-.358-5.736.587-5.838.962s3.231,3.433,4.543,3.791a2.463,2.463,0,0,0,1.3-4.753Z" transform="translate(-1614.868 -1601.731)" fill="#fff"/>
      <path id="Trazado_65111" data-name="Trazado 65111" d="M1620.263,1615.485c-.131-1.354-2.583-5.156-2.97-5.118s-2.064,4.238-1.934,5.592a2.463,2.463,0,1,0,4.9-.474Z" transform="translate(-1609.943 -1603.831)" fill="#fff"/>
      <path id="Trazado_65112" data-name="Trazado 65112" d="M1600.616,1615.02c1.2-.632,3.8-4.338,3.618-4.682s-4.7-.312-5.909.32a2.463,2.463,0,0,0,2.29,4.362Z" transform="translate(-1597.007 -1603.657)" fill="#fff"/>
      <path id="Trazado_65113" data-name="Trazado 65113" d="M1618.781,1608.792a.811.811,0,1,1,.673.928A.811.811,0,0,1,1618.781,1608.792Z" transform="translate(-1612.354 -1602.239)" fill="#f78248"/>
    </g>
    <path id="Trazado_65114" data-name="Trazado 65114" d="M1640.312,1630.882c-1.339,1.646-2.783,8.551-2.314,8.934s6.936-2.44,8.275-4.086a3.842,3.842,0,0,0-5.961-4.848Z" transform="translate(-1021.056 -1021.222)" fill="#75ad68"/>
    <path id="Trazado_65115" data-name="Trazado 65115" d="M1625.261,1700.87c1.389.678,4.463,4.8,4.27,5.2s-5.334.514-6.724-.164a2.8,2.8,0,0,1,2.455-5.034Z" transform="translate(-1009.298 -1071.376)" fill="#75ad68"/>
    <g id="Grupo_31067" data-name="Grupo 31067" transform="translate(634.861 596.69)">
      <path id="Trazado_65116" data-name="Trazado 65116" d="M1699,1637.99l.539-.086c2.122-27.448,10.5-47.146,10.621-47.414l-.491-.212C1709.549,1590.55,1701.106,1610.377,1699,1637.99Z" transform="translate(-1698.997 -1590.279)" fill="#75ad68"/>
    </g>
    <g id="Grupo_31068" data-name="Grupo 31068" transform="translate(636.637 588.919)">
      <path id="Trazado_65117" data-name="Trazado 65117" d="M1741.16,1570.386c-1.034,1.171-5.874,3.054-6.208,2.76s.934-5.332,1.967-6.5a2.828,2.828,0,1,1,4.241,3.743Z" transform="translate(-1726.089 -1565.165)" fill="#fff"/>
      <path id="Trazado_65118" data-name="Trazado 65118" d="M1718.79,1565.057c.934,1.252,1.782,6.376,1.424,6.643s-5.026-2.011-5.959-3.263a2.828,2.828,0,0,1,4.535-3.38Z" transform="translate(-1711.137 -1563.919)" fill="#fff"/>
      <path id="Trazado_65119" data-name="Trazado 65119" d="M1707.107,1586.043c1.507-.411,6.586.674,6.7,1.1s-3.709,3.942-5.216,4.353a2.828,2.828,0,1,1-1.487-5.457Z" transform="translate(-1705.021 -1579.456)" fill="#fff"/>
      <path id="Trazado_65120" data-name="Trazado 65120" d="M1723.7,1595.247c.15-1.555,2.965-5.919,3.409-5.876s2.371,4.866,2.221,6.42a2.828,2.828,0,1,1-5.63-.544Z" transform="translate(-1718.186 -1581.867)" fill="#fff"/>
      <path id="Trazado_65121" data-name="Trazado 65121" d="M1739.9,1594.713c-1.383-.726-4.362-4.981-4.155-5.376s5.4-.358,6.784.368a2.828,2.828,0,0,1-2.63,5.008Z" transform="translate(-1726.683 -1581.668)" fill="#fff"/>
      <path id="Trazado_65122" data-name="Trazado 65122" d="M1734.467,1587.562a.931.931,0,1,0-.773,1.066A.932.932,0,0,0,1734.467,1587.562Z" transform="translate(-1724.48 -1580.038)" fill="#f78248"/>
    </g>
    <path id="Trazado_65123" data-name="Trazado 65123" d="M1680.784,1653.028c1.537,1.89,3.2,9.818,2.656,10.257s-7.963-2.8-9.5-4.692a4.411,4.411,0,1,1,6.844-5.565Z" transform="translate(-1045.769 -1036.691)" fill="#75ad68"/>
    <path id="Trazado_65124" data-name="Trazado 65124" d="M1708.669,1693.28c-1.6.778-5.125,5.511-4.9,5.967s6.124.591,7.72-.188a3.215,3.215,0,0,0-2.818-5.779Z" transform="translate(-1067.493 -1065.995)" fill="#75ad68"/>
    <path id="Trazado_65125" data-name="Trazado 65125" d="M1612.89,1754.041s4.539-4.944,14.3-3.155,15.13-3.454,16.918,3.155Z" transform="translate(-1003.414 -1106.572)" fill="#a8d29f"/>
    <g id="Grupo_31069" data-name="Grupo 31069" transform="translate(386.934 232.986)">
      <path id="Trazado_65126" data-name="Trazado 65126" d="M1187.449,541.288a64.565,64.565,0,0,0-36.714-9.4s24.29,2.15,36.133,19.649c0,0,12.375-13.709,29.4-14.614C1216.268,536.922,1204.224,533.523,1187.449,541.288Z" transform="translate(-1064.441 -480.162)" fill="#f78248"/>
      <path id="Trazado_65127" data-name="Trazado 65127" d="M1055.95,496.563a49.935,49.935,0,0,0-28.352-7.437s18.776,1.772,27.856,15.36c0,0,9.633-10.547,22.8-11.169C1078.258,493.317,1068.959,490.633,1055.95,496.563Z" transform="translate(-977.606 -450.026)" fill="#f78248"/>
      <path id="Trazado_65128" data-name="Trazado 65128" d="M927.168,459.957a45.459,45.459,0,0,0-26.075-5.672s17.146.889,25.929,12.9c0,0,8.356-9.964,20.312-11.039C947.334,456.145,938.772,454.063,927.168,459.957Z" transform="translate(-888.396 -425.378)" fill="#f78248"/>
      <path id="Trazado_65129" data-name="Trazado 65129" d="M875.965,412.727a30.791,30.791,0,0,0-17.941-2.18s11.618-.482,18.3,7.062c0,0,5.006-7.246,13-8.725C889.323,408.884,883.418,408.02,875.965,412.727Z" transform="translate(-858.024 -393.423)" fill="#f78248"/>
      <path id="Trazado_65130" data-name="Trazado 65130" d="M1167.057,359.932a30.789,30.789,0,0,0-17.8-3.113s11.627.124,17.905,8.006c0,0,5.377-6.975,13.438-8.035C1180.6,356.791,1174.745,355.62,1167.057,359.932Z" transform="translate(-1063.396 -356.59)" fill="#f78248"/>
      <path id="Trazado_65131" data-name="Trazado 65131" d="M1268.193,466.246a44.857,44.857,0,0,0-25.378-7.018s16.843,1.816,24.838,14.129c0,0,8.778-9.358,20.616-9.76C1288.269,463.6,1279.948,461.076,1268.193,466.246Z" transform="translate(-1129.375 -428.959)" fill="#f78248"/>
      <path id="Trazado_65132" data-name="Trazado 65132" d="M1228.68,401.733a41.471,41.471,0,0,0-23.69-5.6s15.624,1.091,23.439,12.187c0,0,7.783-8.952,18.706-9.737C1247.136,398.585,1239.36,396.546,1228.68,401.733Z" transform="translate(-1102.701 -384.417)" fill="#f78248"/>
    </g>
    <rect id="Rectángulo_6233" data-name="Rectángulo 6233" width="722.419" height="1.984" rx="0.992" transform="translate(215.837 647.135)" fill="#2e3552"/>
  </g>
</svg>
