<svg id="Grupo_28931" data-name="Grupo 28931" xmlns="http://www.w3.org/2000/svg" width="158.316" height="183.785" viewBox="0 0 158.316 183.785">
  <g id="Grupo_28930" data-name="Grupo 28930">
    <path id="Trazado_60717" data-name="Trazado 60717" d="M179.072,171.045v33.784l-30.289,30.753q18.872,4.664,29.008,16.893t10.133,29.47a50.25,50.25,0,0,1-8.038,27.377q-8.037,12.7-24.813,20.62t-41.7,7.922A161.253,161.253,0,0,1,79,334.134a106.9,106.9,0,0,1-29.936-10.95l18.638-40.538a86.047,86.047,0,0,0,21.55,8.853,87.529,87.529,0,0,0,22.251,3.031q9.551,0,15.375-3.263t5.827-9.321q0-11.183-19.339-11.182H91.7V236.98l24-24.465H57.455V171.045H179.072m8.484-8.484H48.969V221H95.494l-9.848,10.038-2.427,2.476v45.734h30.152c8.92,0,10.755,2.014,10.781,2.047h0a1.973,1.973,0,0,1,.072.65c0,.631,0,1.086-1.485,1.917-2.583,1.448-6.36,2.181-11.231,2.181a79.379,79.379,0,0,1-20.1-2.752,77.928,77.928,0,0,1-19.438-7.98l-8.075-4.7L60,279.1,41.36,319.64l-3.265,7.1,6.806,3.836a115.878,115.878,0,0,0,32.3,11.851,170.424,170.424,0,0,0,36.169,3.922c17.8,0,33.046-2.938,45.326-8.732,12.609-5.954,22.151-13.946,28.361-23.755a58.833,58.833,0,0,0,9.354-31.916c0-13.468-4.068-25.2-12.087-34.883a55.82,55.82,0,0,0-20.074-15.09l20.868-21.188,2.439-2.478V162.561Z" transform="translate(-38.095 -162.561)" fill="#104a71"/>
  </g>
</svg>
