<svg xmlns="http://www.w3.org/2000/svg" width="400.21" height="251.506" viewBox="0 0 400.21 251.506">
  <g id="Grupo_29998" data-name="Grupo 29998" transform="translate(-204.534 -111.376)">
    <g id="Grupo_29977" data-name="Grupo 29977" transform="translate(496.238 245.298)">
      <rect id="Rectángulo_6116" data-name="Rectángulo 6116" width="1.544" height="109.203" fill="#421800"/>
    </g>
    <g id="Grupo_29985" data-name="Grupo 29985" transform="translate(479.323 179.036)">
      <path id="Trazado_63455" data-name="Trazado 63455" d="M289.867,178.744c1.678,1.111,6.454-6.062,8.6-9.895s8.257-18.787,8.257-18.787,4.914-17.1,2.536-18.588c0,0-2.9.095-6.545,6.555s-13.731,29.344-13.64,29.965S287.348,175.762,289.867,178.744Z" transform="translate(-279.663 -131.258)" fill="#edc78a"/>
      <path id="Trazado_63456" data-name="Trazado 63456" d="M347.453,183.212c1.321,1.786,1.3,7.392.76,8.419s-7.588,2.053-10.408,1.334-3.576-2.361-6.72-2.462a42.241,42.241,0,0,1-13.981-3.394c-4.228-2.047-6.288-5.437-5.424-7.6s5.677-2.259,8.422-1.641a30.12,30.12,0,0,0,6.943.317Z" transform="translate(-225.088 -21.746)" fill="#917e54"/>
      <path id="Trazado_63457" data-name="Trazado 63457" d="M340.893,183.875c.8,1.722.517,8.328,0,9.648S330.018,196.5,329.029,196s-4.11-2.972-5.755-1.651-11.178,2.148-17.264.165-4.437-7.43,0-8.088,14.8-3.066,17.1-5.248S340.893,183.875,340.893,183.875Z" transform="translate(-247.537 -14.446)" fill="#917e54"/>
      <path id="Trazado_63458" data-name="Trazado 63458" d="M344.226,151.444c-3.053,4.242-5.39,49.025-4.6,52.784s8.747,40.083,7.139,41.586-11.361,6.93-22.826-1.83l-4.755-20.215s-6.8-24.052-6.8-25.051S335.4,152.943,335.4,152.943Z" transform="translate(-222.946 -83.79)" fill="#4d572c"/>
      <path id="Trazado_63459" data-name="Trazado 63459" d="M335.4,152.943l8.828-1.5c-1.182,1.648-2.263,9.405-3.09,18.5-4.285,9.939-13.86,35.125-13.255,41.461.449,4.748,4.495,26.352,6.568,37.263a22.607,22.607,0,0,1-10.506-4.681l-4.755-20.215s-6.8-24.052-6.8-25.051S335.4,152.943,335.4,152.943Z" transform="translate(-222.946 -83.79)" fill="#5b682c" opacity="0.5"/>
      <path id="Trazado_63460" data-name="Trazado 63460" d="M353.6,142.818c3.928,3.256,7.869,10.871,7.625,16.511-.179,4.167-2.908,12.249-8.726,19.763s-21.424,42.089-20.9,43.342.767,46.847-.01,49.353-11.229,5.7-23.5.247c0,0-.824-34.318-1.087-42.335s.726-14.028,5.123-24.8,15.771-41.086,15.771-41.086Z" transform="translate(-235.82 -104.295)" fill="#4d572c"/>
      <g id="Grupo_29983" data-name="Grupo 29983" transform="translate(2.727 5.274)">
        <g id="Grupo_29978" data-name="Grupo 29978" transform="translate(0.8 1.062)">
          <path id="Trazado_63461" data-name="Trazado 63461" d="M301.655,165.724c-.709-1.064-2.074-2.968-3.823-2.685-1.054.179-.834.446-3.333-1.091-4.552-2.752-4.92-8.034-5.569-9.142l1.108-.209c-1.935-1.925-3.3-4.042-3.066-6.231.513-4.877,6.866-10.449,10.84-12.576s9.189,2.83,14.552,7.994c3.823,3.708,8.4,2.523,9.736,2.4.068,1.145,7.1,13.968,7.1,13.968a46.835,46.835,0,0,1-5.282.686c-.615.03-.848.547-1.668.753-.76.216-2.34-.358-3.11-.118-.145.04-.284.1-.432.152a8.757,8.757,0,0,0-.993,2.6c-.368,1.523-.615,4.583-1.753,5.427s-3.259-.483-3.873-.591c-.608-.132-.767.628-1.57,1.081-.81.473-1.466-.8-1.466-.8-.334.2-1.483.807-1.773.206-.372-.8-.81-1.888-2.506-.138C303.26,168.956,302.78,167.365,301.655,165.724Z" transform="translate(-286.947 -133.287)" fill="#f0bb8f"/>
        </g>
        <g id="Grupo_29982" data-name="Grupo 29982">
          <g id="Grupo_29981" data-name="Grupo 29981">
            <g id="Grupo_29980" data-name="Grupo 29980">
              <g id="Grupo_29979" data-name="Grupo 29979">
                <path id="Trazado_63462" data-name="Trazado 63462" d="M302.026,132.981c-6.886.3-12.31,4.069-14.572,11.364s.942,18.354,5.366,16.463c1.01-.469,1.675-3.124,2.695-8.169.939-4.62,8.206-2.226,10.364-2.378,2.378-.169-5.339-1.82-2.705-5.711,1.952-2.874,6.579.192,8.784,1.854,1.668,1.256,5.917-1.128,5.917-1.128l1.645.578-3.431-5.336S308.922,132.677,302.026,132.981Z" transform="translate(-286.71 -132.972)" fill="#785a2e"/>
              </g>
            </g>
          </g>
        </g>
        <path id="Trazado_63463" data-name="Trazado 63463" d="M308.737,140.519s-7.166-7.842-14.062-7.538a28.911,28.911,0,0,0-4.873.628c.132.037,3.58,1.067,4.36,3.249.79,2.222,1.385,5.775-3.657,13.228l.054.041c2.6-.817,6.484.24,7.97.135,2.378-.169-5.339-1.82-2.705-5.711,1.952-2.874,6.579.192,8.784,1.854,1.668,1.256,5.917-1.128,5.917-1.128l1.645.578Z" transform="translate(-279.359 -132.972)" fill="#785a2e" opacity="0.3" style="mix-blend-mode: multiply;isolation: isolate"/>
      </g>
      <g id="Grupo_29984" data-name="Grupo 29984" transform="translate(28.779 20.435)">
        <path id="Trazado_63464" data-name="Trazado 63464" d="M294.424,137.462s6.464.493,7.933,12.073a2.678,2.678,0,0,0-1,.017c-.145.04-.284.1-.432.152a8.757,8.757,0,0,0-.993,2.6S300.324,139.843,294.424,137.462Z" transform="translate(-294.424 -137.462)" fill="#e8ac86"/>
      </g>
      <path id="Trazado_63465" data-name="Trazado 63465" d="M308.1,271.376s-.824-34.318-1.087-42.335.726-14.028,5.123-24.8,15.771-41.086,15.771-41.086l24.383-19.918c1.172-.084,1.884-.142,1.884-.142-1.739,7.041-6.163,11.668-14.407,17.9s-20.307,46.641-22.117,53.176c-1.536,5.559-.459,47.506-.1,59.923A34.7,34.7,0,0,1,308.1,271.376Z" transform="translate(-235.82 -103.639)" fill="#5b682c" opacity="0.5"/>
      <path id="Trazado_63466" data-name="Trazado 63466" d="M314.73,154.124a65.562,65.562,0,0,1-7.5.513c-.726.01-6.7-1.114-8.909.456s-5.647,1.841-6.6,3.377,3.489,1.716,4.309,1.344,3.782-1.631,3.732-1.351-7.3,7.835-6.487,8.8a3.834,3.834,0,0,0,4.589.463,5.623,5.623,0,0,0,2.914.885c1.817.071,3.965.841,4.458.7a18.628,18.628,0,0,0,2.121-.483c.78-.294,3.742-4.741,5.126-5.012s4.721-.905,4.721-.905Z" transform="translate(-272.368 -77.419)" fill="#e8ac86"/>
      <path id="Trazado_63467" data-name="Trazado 63467" d="M328.6,155.844c-1.462,2.182-24.862,19.118-25.818,18.9s-6.079-4.434-6.734-7.44,27.513-16.274,27.513-16.274Z" transform="translate(-261.819 -84.769)" fill="#5f6edf"/>
      <path id="Trazado_63468" data-name="Trazado 63468" d="M302.255,135.676l1.65,21.282-4.913,1.515L295.9,135.81Z" transform="translate(-262.134 -121.272)" fill="#717ee7"/>
      <path id="Trazado_63469" data-name="Trazado 63469" d="M297.783,139.12c2.2-1.955,12.735-5,19.385-4.89s23.565,2.209,35.9,9.763,19.759,15.045,23.687,20.155a29.374,29.374,0,0,1,4.3,7.251,2.129,2.129,0,0,1-.2,1.9,20.968,20.968,0,0,1-10.783,8.649c-2.425.78-16.3,2.036-23.633,11.053a9.26,9.26,0,0,1-2.2-7.21c.615-4.252-11.887-5.623-11.887-5.623s-20.506-2.533-25.774-7.946a31.808,31.808,0,0,1-7.143-11.82Z" transform="translate(-257.661 -124.716)" fill="#717ee7"/>
      <path id="Trazado_63470" data-name="Trazado 63470" d="M363.417,163.24a20.968,20.968,0,0,1-10.783,8.649c-2.425.777-16.3,2.036-23.633,11.053a9.26,9.26,0,0,1-2.2-7.21c.615-4.252-11.887-5.623-11.887-5.623s-.942-.115-2.475-.351l-7.328-31.3s12.762,19.577,29.87,24.224,24.4,3.877,28.634-1.344A2.129,2.129,0,0,1,363.417,163.24Z" transform="translate(-240.232 -114.657)" fill="#5f6edf"/>
      <path id="Trazado_63471" data-name="Trazado 63471" d="M311.713,161.072c-3.377-1.118-6.349-2.489-7.94-4.12a30.9,30.9,0,0,1-4.792-6.518l-.02-.037s3.171-5.62,1.675-9.746C300.636,140.651,308.589,155.48,311.713,161.072Z" transform="translate(-254.86 -109.446)" fill="#5f6edf"/>
      <path id="Trazado_63472" data-name="Trazado 63472" d="M311.9,152.655a70.855,70.855,0,0,1-7.676,2.779c-.756.23-7.335.841-9.169,3.141s-5.349,3.61-5.88,5.5,4.157.746,4.9.111,3.462-2.833,3.492-2.523-5.278,10.364-4.147,11.124a4.16,4.16,0,0,0,4.931-.885,6.113,6.113,0,0,0,3.31.047c1.918-.469,4.4-.3,4.866-.6a19.57,19.57,0,0,0,2.07-1.138c.726-.54,2.489-6.072,3.857-6.764s4.66-2.361,4.66-2.361Z" transform="translate(-278.228 -80.911)" fill="#f0bb8f"/>
      <path id="Trazado_63473" data-name="Trazado 63473" d="M319.271,135.746c5.91-.321,10.628,3.475,12.846,12.239s7.041,31.873,7.1,33.592c.091,2.614-2.009,7.274-3.647,8.3s-29.516,15.41-30.3,15.758-7.791-5.116-10.341-11.668c0,0,16.757-9.534,17.78-10.179s8.061-6.069,8.061-6.069-12.016-22.063-12.968-27.9S309.312,136.286,319.271,135.746Z" transform="translate(-264.438 -121.15)" fill="#717ee7"/>
      <path id="Trazado_63474" data-name="Trazado 63474" d="M294.108,164.236l-7.089-5.268s-3.2-6,1.229-15.518,8.271-11.124,8.271-11.124l11.367,2.881-4.792,13.569Z" transform="translate(-285.902 -129.235)" fill="#ffe7ad"/>
      <path id="Trazado_63475" data-name="Trazado 63475" d="M290.568,142.966l-1.476,7.906c.108.071.192.159.307.23,2.5,1.537,2.279,1.27,3.333,1.091,1.749-.284,2.577.871,3.286,1.932.2.294,1.682-14.782.959-16.274Z" transform="translate(-278.32 -116.104)" fill="#e8ac86" opacity="0.5"/>
      <path id="Trazado_63476" data-name="Trazado 63476" d="M287.782,161.418l1.857,1.378,6.47-11.134,7.308-17.9-3.3-.834h0c-3.343,7.1-5.461,10.371-6.957,16.622C292.108,153.978,289.332,158.892,287.782,161.418Z" transform="translate(-281.434 -127.795)" fill="#a67c4b"/>
      <path id="Trazado_63477" data-name="Trazado 63477" d="M290.681,178.9s-3.833-2.151-2-12.485c0,0,5.809-11,7.173-15.835s6.606-13.194,6.606-13.194,5.153-7.308,7.619-5.755a8.876,8.876,0,0,0-4.137,4.444c-1.148,3.046-2.5,11.229-8.341,20.678S288.624,173.608,290.681,178.9Z" transform="translate(-280.476 -131.411)" fill="#f7d49c"/>
    </g>
    <g id="Grupo_29990" data-name="Grupo 29990" transform="translate(322.483 265.653)">
      <g id="Grupo_29986" data-name="Grupo 29986" transform="translate(39.59 32.785)">
        <path id="Trazado_63478" data-name="Trazado 63478" d="M265.845,217.613a194.4,194.4,0,0,0-1.486-26.537c-.875-6.579-2.384-13.13-4.508-17.666a18.407,18.407,0,0,0-3.239-5.042c-1.084-.959-1.705-1.506-1.705-1.506s.591.574,1.621,1.584a18.2,18.2,0,0,1,2.945,5.13c1.864,4.569,3.033,11.1,3.57,17.645a192.237,192.237,0,0,1,.155,26.274Z" transform="translate(-242.331 -166.542)" fill="#7f8e29"/>
        <path id="Trazado_63479" data-name="Trazado 63479" d="M255.19,191.966h-2.577c.878-3.644,13.059-8.291,15.845-10.2s7.041,3.816,10.564,3.323,5.869,5.532,8.669,6.876h-32.5Z" transform="translate(-247.784 -132.04)" fill="#6b360a"/>
        <path id="Trazado_63480" data-name="Trazado 63480" d="M286.451,184.513H252.613v0h35.08v0Z" transform="translate(-247.785 -124.587)" fill="#6b360a"/>
        <path id="Trazado_63481" data-name="Trazado 63481" d="M257.65,189.24c-.868-7.6,5.5-19.52,18.4-20.33,0,0-4.934,3.529-7.153,11.374S257.65,189.24,257.65,189.24Z" transform="translate(-235.996 -161.673)" fill="#9aad31"/>
        <path id="Trazado_63482" data-name="Trazado 63482" d="M271.77,187.223s-3.85-14.653-20.587-14.437C251.183,172.786,255.678,188.341,271.77,187.223Z" transform="translate(-251.183 -152.466)" fill="#9aad31"/>
        <path id="Trazado_63483" data-name="Trazado 63483" d="M266.995,174.409s-1.682-8.97-15.812-7.474C251.183,166.935,259.73,179.8,266.995,174.409Z" transform="translate(-251.183 -166.767)" fill="#9aad31"/>
        <path id="Trazado_63484" data-name="Trazado 63484" d="M258.582,187.121c-.186.125-.037-4.931,2.823-9.088a31.429,31.429,0,0,1,6.575-7.335,31.546,31.546,0,0,0-7.021,7.045c-3.144,4.063-3.647,9.422-3.434,9.456Z" transform="translate(-236.209 -157.423)" fill="#7f8e29"/>
        <path id="Trazado_63485" data-name="Trazado 63485" d="M267.327,185.535a34.764,34.764,0,0,0-4.41-11.226,15.4,15.4,0,0,0-5.94-5.68,13.932,13.932,0,0,0-3.583-1.081,13.8,13.8,0,0,1,3.505,1.226,15.061,15.061,0,0,1,5.565,5.812,33.826,33.826,0,0,1,3.819,11.124Z" transform="translate(-245.93 -164.909)" fill="#7f8e29"/>
        <path id="Trazado_63486" data-name="Trazado 63486" d="M270.677,190.212a14.414,14.414,0,0,0-1.3-3.894,21.254,21.254,0,0,0-5.484-6.9,27.94,27.94,0,0,0-7.538-4.437c-2.215-.895-3.742-1.331-3.742-1.331a31,31,0,0,1,10.932,6.167c4.954,4.184,6.322,10.634,6.082,10.53Z" transform="translate(-247.784 -150.413)" fill="#7f8e29"/>
      </g>
      <g id="Grupo_29987" data-name="Grupo 29987" transform="translate(84.442 11.803)">
        <path id="Trazado_63487" data-name="Trazado 63487" d="M273.681,200.226s7.193-.138,11.566-8.213-1.516-24.464-1.516-24.464-4.35,9.753-8.821,14.221C268.254,188.419,273.681,200.226,273.681,200.226Z" transform="translate(-247.512 -143.926)" fill="#9aad31"/>
        <path id="Trazado_63488" data-name="Trazado 63488" d="M281.437,186.051c2.337-6.8-2.016-15-9.956-19.351s-6.98-6.146-6.98-6.146S265.524,185.416,281.437,186.051Z" transform="translate(-264.464 -160.554)" fill="#9aad31"/>
        <path id="Trazado_63489" data-name="Trazado 63489" d="M272.946,229.377c-.807-6.94-1.992-18.6-2.432-30.336-.348-9.206-.223-18.469.858-25.321a37.8,37.8,0,0,1,2.182-8.061l1.7-2.675-1.587,2.722a37.585,37.585,0,0,0-1.851,8.075c-.807,6.835-.567,16.041.135,25.18.881,11.492,2.482,22.883,3.549,29.779l-.027.01A8.379,8.379,0,0,1,272.946,229.377Z" transform="translate(-250.493 -154.78)" fill="#7f8e29"/>
        <path id="Trazado_63490" data-name="Trazado 63490" d="M271.87,182.821c3.884-1.932,9.017,2.256,12.738.537s7.467,4.394,11.854,6.413h-24C272.3,188.758,272.1,184.273,271.87,182.821Z" transform="translate(-246.86 -108.862)" fill="#6b360a"/>
        <path id="Trazado_63491" data-name="Trazado 63491" d="M270.729,188.955H266.2c2.783-3.536,11.506-5.64,16.578-6.312.132,1.162.257,5.437.365,6.312Z" transform="translate(-260.329 -108.046)" fill="#6b360a"/>
        <path id="Trazado_63492" data-name="Trazado 63492" d="M271.478,189.4c-.108-.875-.233-5.15-.365-6.312a8.379,8.379,0,0,0,2.529-.628l.027-.01c.226,1.452.429,5.937.594,6.95Z" transform="translate(-248.66 -108.496)" fill="#6b360a"/>
        <path id="Trazado_63493" data-name="Trazado 63493" d="M272.084,200.094a20.455,20.455,0,0,1,1.834-4.4c1.347-2.587,3.245-6.045,4.728-9.689a50.483,50.483,0,0,0,3.651-15.187,50.3,50.3,0,0,1-4.181,14.961c-1.6,3.553-3.6,6.9-5.052,9.456a21.569,21.569,0,0,0-2.084,4.532Z" transform="translate(-248.976 -136.148)" fill="#7f8e29"/>
        <path id="Trazado_63494" data-name="Trazado 63494" d="M279.452,200.487a113.236,113.236,0,0,0-3.38-19.334,54.008,54.008,0,0,0-4.9-12.543,13.923,13.923,0,0,0-3.948-4.643,13.81,13.81,0,0,1,3.789,4.735,53.6,53.6,0,0,1,4.5,12.6,112.479,112.479,0,0,1,2.79,19.27Z" transform="translate(-257.904 -152.441)" fill="#7f8e29"/>
      </g>
      <g id="Grupo_29988" data-name="Grupo 29988" transform="translate(0 46.06)">
        <path id="Trazado_63495" data-name="Trazado 63495" d="M253.431,191.393s5.326-15.876-13.971-17.051a19.562,19.562,0,0,1,3.671,7.362C245.623,190.647,253.431,191.393,253.431,191.393Z" transform="translate(-239.46 -162.036)" fill="#9aad31"/>
        <path id="Trazado_63496" data-name="Trazado 63496" d="M254.438,170.7c-2.725,11.732-8.916,14.954-8.916,14.954S241.106,175.122,254.438,170.7Z" transform="translate(-226.716 -170.698)" fill="#9aad31"/>
        <path id="Trazado_63497" data-name="Trazado 63497" d="M244.754,194.758a71.363,71.363,0,0,1,3.661-15.683,26.794,26.794,0,0,1,3.33-6.494,26.712,26.712,0,0,0-2.928,6.633,70.466,70.466,0,0,0-2.705,15.687c-.3,4.059-.365,8.105-.284,11.668-.713-.223-1.385-.459-2.023-.675C243.947,202.431,244.251,198.6,244.754,194.758Z" transform="translate(-229.132 -166.222)" fill="#7f8e29"/>
        <path id="Trazado_63498" data-name="Trazado 63498" d="M244.094,189.775h-4.11c.925-1.645,7.585-5.572,9.456-7.078.848-.682,2.043-.382,3.448.1-.054,1.381-.084,5.758-.084,6.98Z" transform="translate(-238.214 -143.124)" fill="#6b360a"/>
        <path id="Trazado_63499" data-name="Trazado 63499" d="M253.55,185.3h-6.592C251.419,182.781,253.55,185.3,253.55,185.3Z" transform="translate(-221.637 -138.649)" fill="#6b360a"/>
        <path id="Trazado_63500" data-name="Trazado 63500" d="M244.4,182.645a9.347,9.347,0,0,0,3.813.513c3.887-.436,8.909,5.792,8.909,5.792h-12.59C244.475,187.93,244.431,183.79,244.4,182.645Z" transform="translate(-227.708 -142.299)" fill="#6b360a"/>
        <path id="Trazado_63501" data-name="Trazado 63501" d="M243.78,189.425c0-1.223.03-5.6.084-6.98.638.216,1.31.452,2.023.675.027,1.145.071,5.285.132,6.3Z" transform="translate(-229.191 -142.774)" fill="#6b360a"/>
        <path id="Trazado_63502" data-name="Trazado 63502" d="M251.1,195.379a55.984,55.984,0,0,0-3.259-10.574,25.988,25.988,0,0,0-3.857-6.528,12.582,12.582,0,0,0-2.543-2.313,12.576,12.576,0,0,1,2.411,2.421,25.634,25.634,0,0,1,3.482,6.622,55.217,55.217,0,0,1,2.695,10.55Z" transform="translate(-234.741 -158.18)" fill="#7f8e29"/>
      </g>
      <g id="Grupo_29989" data-name="Grupo 29989" transform="translate(137.076)">
        <path id="Trazado_63503" data-name="Trazado 63503" d="M303.827,187.2s-.223-19.138-20.982-15.443C282.845,171.753,287.131,191.016,303.827,187.2Z" transform="translate(-273.406 -123.255)" fill="#9aad31"/>
        <path id="Trazado_63504" data-name="Trazado 63504" d="M308.276,162.518s-.723,25.365-18.1,23.045C290.171,185.563,287.075,164.791,308.276,162.518Z" transform="translate(-256.367 -144.082)" fill="#9aad31"/>
        <path id="Trazado_63505" data-name="Trazado 63505" d="M294.947,177.929s6.1-15.379-9.2-20.87c0,0,2.246,3.158,1.756,10.364A10.633,10.633,0,0,0,294.947,177.929Z" transform="translate(-266.515 -157.059)" fill="#9aad31"/>
        <path id="Trazado_63506" data-name="Trazado 63506" d="M289.368,232.475a38.349,38.349,0,0,0,2.584-8.027,39.37,39.37,0,0,0,.459-11.962c-.409-4.461-1.705-8.987-2.867-13.768-2.03-9.8-.213-19.6,1.479-26.615a88.843,88.843,0,0,1,3.647-11.539,88.056,88.056,0,0,0-3.151,11.651c-1.4,7.018-2.735,16.892-.4,26.1,1.31,4.559,2.891,9.311,3.5,13.89a41.946,41.946,0,0,1,.037,12.725,41.349,41.349,0,0,1-2.411,8.737c-.189.453-.351.844-.5,1.2a21.508,21.508,0,0,1-3.009-1.03C288.929,233.417,289.094,233.063,289.368,232.475Z" transform="translate(-259.616 -148.73)" fill="#7f8e29"/>
        <path id="Trazado_63507" data-name="Trazado 63507" d="M280.05,191.5c.689-2.408,6.747-5.8,9.773-5.8s7.575-4.944,13.633-3.874a24.95,24.95,0,0,1,5.707,1.83c-.439.929-.75,1.594-.75,1.594l2.955,1.354s.287-.692.8-1.918a19.627,19.627,0,0,0,6.839.348,10.886,10.886,0,0,1,11.239,6.467h-50.2Z" transform="translate(-280.05 -98.547)" fill="#6b360a"/>
        <path id="Trazado_63508" data-name="Trazado 63508" d="M288.449,183.855s.311-.665.75-1.594a21.508,21.508,0,0,0,3.009,1.03c-.517,1.226-.8,1.918-.8,1.918Z" transform="translate(-260.085 -97.151)" fill="#6b360a"/>
        <path id="Trazado_63509" data-name="Trazado 63509" d="M302.744,164.82a49.542,49.542,0,0,0-9.094,11.61,38.4,38.4,0,0,0-4.529,14.15l1.3.088a37,37,0,0,1,3.809-13.934A49.275,49.275,0,0,1,302.744,164.82Z" transform="translate(-258.487 -138.61)" fill="#7f8e29"/>
        <path id="Trazado_63510" data-name="Trazado 63510" d="M301.059,196.281s.125-7.926-4.262-14.207a24.4,24.4,0,0,0-7.22-7.1,25.81,25.81,0,0,0-4.032-2.222s7.034,3.161,10.705,9.672a24.921,24.921,0,0,1,3.293,9.314,19.592,19.592,0,0,1,.223,4.434Z" transform="translate(-266.988 -119.762)" fill="#7f8e29"/>
        <path id="Trazado_63511" data-name="Trazado 63511" d="M293.781,193.85a137.764,137.764,0,0,0-.838-17.824,46.488,46.488,0,0,0-2.779-11.918,10.529,10.529,0,0,0-3.12-4.549,10.52,10.52,0,0,1,2.935,4.623A46.225,46.225,0,0,1,292.3,176.1a136.4,136.4,0,0,1,.182,17.7Z" transform="translate(-263.425 -151.116)" fill="#7f8e29"/>
      </g>
    </g>
    <g id="Grupo_29997" data-name="Grupo 29997" transform="translate(204.534 111.376)">
      <path id="Trazado_63512" data-name="Trazado 63512" d="M218.295,111.752c2.908-1.591,10.81,1.969,13.573,8.767s3.364,33.791,4.806,38.492c0,0-10.749,1.081-16.3-3.171-1.8-1.381-4.407-3.759-4.407-3.759l.891-12.066Z" transform="translate(-177.354 -111.376)" fill="#694329"/>
      <path id="Trazado_63513" data-name="Trazado 63513" d="M237.147,156.745c2.948,14.137,4.508,23.7,4.313,27.034s-5.147,34.679-5.147,34.679l-11.486-.7s-1.212-14.8.074-22.3,1.081-13.934.7-15.953-7.062-22.13-7.062-22.13Z" transform="translate(-171.25 -3.529)" fill="#5b682c"/>
      <path id="Trazado_63514" data-name="Trazado 63514" d="M228.921,158.321c0,12.195.338,19.648,0,25.065s-1.162,23.035-1.935,24.727-10.935,2.712-12.8,0c0,0-.848-18.142-1.016-24.058s-.848-24.21-.848-24.21Z" transform="translate(-186.019 0.218)" fill="#5b682c"/>
      <path id="Trazado_63515" data-name="Trazado 63515" d="M221.227,158.321l-5.43.5c.99,18.118.142,41.913-.236,50.724,1.915-.29,3.448-.814,3.732-1.432.773-1.692,1.6-19.307,1.935-24.727S221.227,170.516,221.227,158.321Z" transform="translate(-178.324 0.218)" fill="#4d572c"/>
      <path id="Trazado_63516" data-name="Trazado 63516" d="M224.06,218.13l3.86-1.635c1.084-6.906,4.677-29.891,4.839-32.717.2-3.33-1.364-12.9-4.313-27.034l-6.251.213c4.441,16.821,5.089,25.21,4.356,30.843C225.772,193.788,224.06,218.13,224.06,218.13Z" transform="translate(-162.55 -3.529)" fill="#4d572c"/>
      <g id="Grupo_29991" data-name="Grupo 29991" transform="translate(112.343 126.621)">
        <path id="Trazado_63517" data-name="Trazado 63517" d="M241.758,149.583c3.853-1.709,8.845-.061,10.317,1.938.706.959.577,1.712-.125,2-1,.409-2.4-.79-3.718-1.493a11.432,11.432,0,0,0-9.3-.956C235.247,152.275,241.758,149.583,241.758,149.583Z" transform="translate(-237.8 -148.87)" fill="#717ee7"/>
        <path id="Trazado_63518" data-name="Trazado 63518" d="M239.8,149.5c2.7.841,3.283,2.678,2.357,2.979C241.2,152.789,241.433,150.148,239.8,149.5Z" transform="translate(-233.034 -147.381)" fill="#717ee7"/>
        <path id="Trazado_63519" data-name="Trazado 63519" d="M240.86,150.074c1.233.807,1.165,4.819,2.492,4.829S244.764,152.158,240.86,150.074Z" transform="translate(-230.527 -146.007)" fill="#717ee7"/>
        <path id="Trazado_63520" data-name="Trazado 63520" d="M241.135,150.468c.095,1.067-1.047,2.2-.013,2.445C241.892,153.1,241.551,151.208,241.135,150.468Z" transform="translate(-230.94 -145.071)" fill="#717ee7"/>
      </g>
      <g id="Grupo_29992" data-name="Grupo 29992" transform="translate(96.291 126.83)">
        <path id="Trazado_63521" data-name="Trazado 63521" d="M234.975,154.816l17-5.812a.81.81,0,0,1,1.084.432l.628,1.564a.8.8,0,0,1-.247.935l-20.391,14.353Z" transform="translate(-233.047 -148.932)" fill="#f9bd4b"/>
      </g>
      <g id="Grupo_29993" data-name="Grupo 29993" transform="translate(97.183 128.25)" opacity="0.5">
        <path id="Trazado_63522" data-name="Trazado 63522" d="M233.311,164.586l19.5-13.65a.8.8,0,0,0,.247-.935l-.26-.648-17.142,7.943Z" transform="translate(-233.311 -149.352)" fill="#f2ae41"/>
      </g>
      <g id="Grupo_29994" data-name="Grupo 29994" transform="translate(70.843 116.084)">
        <path id="Trazado_63523" data-name="Trazado 63523" d="M233.966,146.062l-8.341,22.765a1.931,1.931,0,0,0,.706,2.229c3.3,2.317,14.457,8.713,25.038,7.717a1.913,1.913,0,0,0,1.668-1.57l3.83-25.234a.467.467,0,0,0-.341-.54l-22-5.663A.467.467,0,0,0,233.966,146.062Z" transform="translate(-225.511 -145.75)" fill="#f9bd4b"/>
      </g>
      <g id="Grupo_29995" data-name="Grupo 29995" transform="translate(81.628 106.236)">
        <path id="Trazado_63524" data-name="Trazado 63524" d="M246.333,158.8l-1.969-.429c1.736-7.967,1.537-11.985-4.306-13.3-5.015-1.114-7.122,2.29-9.436,9.432l-1.918-.625c1.712-5.278,4.053-12.529,11.8-10.773C248.653,144.935,247.911,151.571,246.333,158.8Z" transform="translate(-228.705 -142.834)" fill="#f9bd4b"/>
      </g>
      <g id="Grupo_29996" data-name="Grupo 29996" transform="translate(70.843 121.34)" opacity="0.5">
        <path id="Trazado_63525" data-name="Trazado 63525" d="M256.525,147.728l-1.641-.422-6.44,23.6s-14.056-1.168-22.654-6.251l-.165.469a1.931,1.931,0,0,0,.706,2.229c3.3,2.317,14.457,8.713,25.038,7.717a1.913,1.913,0,0,0,1.668-1.57l3.83-25.234A.467.467,0,0,0,256.525,147.728Z" transform="translate(-225.511 -147.306)" fill="#f2ae41"/>
      </g>
      <path id="Trazado_63526" data-name="Trazado 63526" d="M228.633,127.034a3.869,3.869,0,0,0,2.246,5.616l-1.368,14.8-14.923-16.852s1.874-9.176,1.31-11.425S228.633,127.034,228.633,127.034Z" transform="translate(-180.635 -93.624)" fill="#f0bb8f"/>
      <path id="Trazado_63527" data-name="Trazado 63527" d="M232.761,138.3c5.41,3.377,14.424,8.581,19.52,11.361s5.782,4.117,6.484,7.909.388,4.13-.675,5.684-11.32.9-7.582-1.229c1.07-.611,1.422-1.543.561-2.381-1.01-.99-1.263-3.613-1.881-3.809-1.1-.341-24.153-6.943-26.726-10.05l5.38-9.864Z" transform="translate(-161.92 -53.024)" fill="#f0bb8f"/>
      <path id="Trazado_63528" data-name="Trazado 63528" d="M222.519,122.932c4.866,2.249,13.107,3,15.916,11.61s4.681,34.642,4.681,34.642-6.167,1.712-6.582,10.027L218.1,147.342l1.337-16.467Z" transform="translate(-172.274 -83.905)" fill="#5b682c"/>
      <path id="Trazado_63529" data-name="Trazado 63529" d="M238.487,122.323c-7.666,3.522-14.515,2.219-21.688,13.633s-7.862,27.061-9.821,31.623-2.445,6.362-2.445,7.994c0,0,4.215-5.38,13.181-2.283l6.91-15.673L258.405,142.3l-6.7-9.973Z" transform="translate(-204.534 -85.353)" fill="#5b682c"/>
      <path id="Trazado_63530" data-name="Trazado 63530" d="M250.783,128.208c1.945,5.218,4.167,28.449,4.492,48.12s6.069,57.181,6.069,57.181-19.439,10.111-49.444,6.2c0,0,.064-32.657-1.239-43.419s3.593-30.279,2.617-37.128-2.685-15.531-2.685-15.531l9.493-14.488S235.89,131.16,250.783,128.208Z" transform="translate(-190.502 -71.364)" fill="#dfcd9c"/>
      <path id="Trazado_63531" data-name="Trazado 63531" d="M235.393,173.883s-.476,19.131-.476,23.028,5.94,5.609,8.092,5.95,6.92.618,7.457,4.066c.442,2.833.713,3.85-2.269,4.866s-12.2.442-13.86-.405-4.964-1.017-6.126-.169-6.065.959-6.727-.226-.969-8.625.29-12.887c1.037-3.5-1.844-21.029-1.844-24.224C219.929,173.883,229.763,171.172,235.393,173.883Z" transform="translate(-167.939 34.346)" fill="#f9bd4b"/>
      <path id="Trazado_63532" data-name="Trazado 63532" d="M229.372,202.84c-.243-1.668-.932-16.4-.8-22.394s-.027-7.463-.027-7.463a22.829,22.829,0,0,0-9.969,0c-5.731,1.2-6.4,2.09-6.4,2.09s5.741,22.816,6.264,27.1c.54,4.451.091,4.617-.233,6.231a13.015,13.015,0,0,0-.466,4.9c.53,2.479.672,3.971,3.874,4.235s11.884.226,12.286-.307a6.611,6.611,0,0,0,.459-5.066C233.566,210.3,229.6,204.454,229.372,202.84Z" transform="translate(-186.361 33.804)" fill="#f9bd4b"/>
      <path id="Trazado_63533" data-name="Trazado 63533" d="M217.515,187.937c3.195.267,11.884.226,12.286-.307a6.6,6.6,0,0,0,.763-2.712c-1.212.976-15.886,1.868-16.659-.013C214.317,186.657,214.874,187.717,217.515,187.937Z" transform="translate(-182.258 63.408)" fill="#f2ae41"/>
      <path id="Trazado_63534" data-name="Trazado 63534" d="M247.378,186.89c2.54-.865,2.715-1.743,2.438-3.735-.594,2.364-15.146,2.844-16.916,1.56s-5.728-.385-6.251.135-5.714.209-6.376-.53a6.109,6.109,0,0,0,.392,1.77c.662,1.185,5.569,1.074,6.727.226s4.471-.679,6.126.169S244.4,187.907,247.378,186.89Z" transform="translate(-167.121 59.251)" fill="#f2ae41"/>
      <path id="Trazado_63535" data-name="Trazado 63535" d="M254.389,161.636c-1.807.172-8.3-2.1-7.764-2.719s2.047.895,4.272,1.077,2.009-1.027,2.009-1.027-2.121-1.1-5.015-2.513-4.505-.453-8.041-2.03-11.536-5.819-14.63-8.48-7.507-7.021-7.507-7.021c-7.936-5.2-12.752.682-12.752.682-1.108,2.556-.5,5.336,7.173,9.4s21.414,7.747,23.272,8.72,4.076,4.08,4.9,4.792,8.939,4.505,10.692,3.056S256.2,161.461,254.389,161.636Z" transform="translate(-204.533 -50.988)" fill="#f0bb8f"/>
      <path id="Trazado_63536" data-name="Trazado 63536" d="M214.822,143.167s-.486-14.5-2.6-19.618l1.922-.591s3.917,16.065,3.691,19.317S214.822,143.167,214.822,143.167Z" transform="translate(-186.252 -83.844)" fill="#dfcd9c"/>
      <path id="Trazado_63537" data-name="Trazado 63537" d="M225.7,139.361l-3.064-15.2-1.65-.641,2.589,16.233Z" transform="translate(-165.422 -82.518)" fill="#c3ae81"/>
      <path id="Trazado_63538" data-name="Trazado 63538" d="M260.333,233.509s-5.744-37.509-6.069-57.181-2.546-42.9-4.492-48.12c-2.114.419-4.235.726-6.339.966,2.34,26.834,4.91,64.763,4.394,78.055-.5,12.86-9.77,24.045-36.966,24.275.034,4.873.027,8.2.027,8.2C240.895,243.62,260.333,233.509,260.333,233.509Z" transform="translate(-189.492 -71.364)" fill="#c3ae81" opacity="0.5"/>
      <path id="Trazado_63539" data-name="Trazado 63539" d="M216.657,129.787s4.438,2.587,10.661,0h0a4.669,4.669,0,0,1,.425-2.752s-13.3-10.111-12.735-7.865a12.848,12.848,0,0,1-.047,3.576Z" transform="translate(-179.746 -93.624)" fill="#e8ac86"/>
      <path id="Trazado_63540" data-name="Trazado 63540" d="M223.684,137.727c.794,2.857,5.248,24.548,5.248,24.548s-13.941.912-16.1-2.526c0,0-.77-16.531-1.216-21.884-.753-9.078.486-26.409,17.416-26.378l8.764,7.967-6.416,11.9Z" transform="translate(-188.09 -111.111)" fill="#7a553c"/>
      <path id="Trazado_63541" data-name="Trazado 63541" d="M236.907,118.07l-6.6-6c4.154,5.687-10.678,10.287-12.37,14.91s3.252,19.219,2.155,22.3c-.834,2.337-5.873,5.3-8.264,6.6.074,1.52.118,2.489.118,2.489,2.161,3.438,16.1,2.526,16.1,2.526s-4.454-21.691-5.248-24.548l7.693-6.373Z" transform="translate(-187.203 -109.728)" fill="#694329"/>
      <path id="Trazado_63542" data-name="Trazado 63542" d="M216.735,132.226c-.358,4.839,3.57,7.818,9.311,8.831s7.859-7.416,8.078-10.108-.446-4.505.449-6.261-.581-9.53-3.728-10.736-11.732,5.066-12.323,9.827c0,0-2.867-1.935-3.971,1.949C213.949,127.849,214.955,132.286,216.735,132.226Z" transform="translate(-181.14 -105.61)" fill="#f0bb8f"/>
      <path id="Trazado_63543" data-name="Trazado 63543" d="M218.9,113.713s4.775,5.265,7.781,4.076c1.07-.419.888-1.287.219-2.226-3.478-3.424-8.088-4.951-10.162-3.816l-.115,2.307C217.872,113.872,218.9,113.713,218.9,113.713Z" transform="translate(-175.797 -111.372)" fill="#7a553c"/>
    </g>
  </g>
</svg>
