<svg xmlns="http://www.w3.org/2000/svg" width="160.325" height="183.788" viewBox="0 0 160.325 183.788">
  <g id="Grupo_28929" data-name="Grupo 28929" transform="translate(-398 135)">
    <g id="Grupo_28928" data-name="Grupo 28928" transform="translate(398 -135)">
      <path id="Trazado_60714" data-name="Trazado 60714" d="M315.837,63.992q19.335,0,34.248,6.288t23.3,17.942a44.68,44.68,0,0,1,8.389,26.792,57.168,57.168,0,0,1-5.708,25.279q-5.715,11.768-22.251,26.676l-23.3,21.2H385.5v42.636H254.8V197.024l58.944-54.517q7.689-7.219,10.252-12.347a22.324,22.324,0,0,0,2.564-10.02q0-6.056-4.077-9.435t-11.767-3.379a26.458,26.458,0,0,0-13.979,3.961,25.976,25.976,0,0,0-10.017,11.182l-41.471-20.736A68.037,68.037,0,0,1,272.5,74.125q17.939-10.132,43.335-10.133m0-8.486c-18.332,0-34.315,3.78-47.509,11.233a76.714,76.714,0,0,0-30.572,31l-4.1,7.685,7.792,3.894,41.469,20.736,7.688,3.845,3.745-7.736a17.532,17.532,0,0,1,6.787-7.63,17.99,17.99,0,0,1,9.572-2.727c2.984,0,5.242.508,6.356,1.429.371.309,1,.833,1,2.9a14.076,14.076,0,0,1-1.666,6.226c-.708,1.409-2.75,4.585-8.47,9.955l-58.9,54.475-2.724,2.52v45.978H393.983V179.685H352.447l7.077-6.439C371.447,162.5,379.364,152.924,383.7,144a65.845,65.845,0,0,0,6.56-28.985,53.212,53.212,0,0,0-9.985-31.749c-6.49-9.013-15.538-16.011-26.887-20.8-10.948-4.618-23.581-6.959-37.547-6.959Z" transform="translate(-233.658 -55.506)" fill="#8aeafe"/>
    </g>
  </g>
</svg>
