<svg xmlns="http://www.w3.org/2000/svg" width="254.933" height="305.566" viewBox="0 0 254.933 305.566">
  <g id="Grupo_31552" data-name="Grupo 31552" transform="translate(-5175.405 -3256.931)">
    <g id="Grupo_31418" data-name="Grupo 31418" transform="translate(5318.833 3294.066)">
      <path id="Trazado_65991" data-name="Trazado 65991" d="M5501.155,3334.374c-.766-1.518,5.95-3.142,4.324-3.64-16.946-5.188-50.42,5.737-50.42,5.737l2.181,17.995,25.948-8.924c13.186-3.817,17.3-3.673,18.446-7.735a3.953,3.953,0,0,0,.117-.579A4.91,4.91,0,0,0,5501.155,3334.374Z" transform="translate(-5455.059 -3329.336)" fill="#ff9985"/>
    </g>
    <g id="Grupo_31419" data-name="Grupo 31419" transform="translate(5383.41 3417.868)">
      <path id="Trazado_65992" data-name="Trazado 65992" d="M5604.355,3587.227h-22.448a.939.939,0,0,1-.938-.938v-10.951a4.62,4.62,0,0,1,4.615-4.614h15.1a4.62,4.62,0,0,1,4.614,4.614v10.951A.939.939,0,0,1,5604.355,3587.227Zm-21.509-1.878h20.57v-10.011a2.74,2.74,0,0,0-2.737-2.737h-15.1a2.74,2.74,0,0,0-2.738,2.737Z" transform="translate(-5580.969 -3570.724)" fill="#000543"/>
    </g>
    <g id="Grupo_31420" data-name="Grupo 31420" transform="translate(5363.147 3429.6)">
      <rect id="Rectángulo_6414" data-name="Rectángulo 6414" width="63.932" height="3.925" transform="translate(1.06 7.038)" fill="#ffdb8a"/>
      <path id="Trazado_65993" data-name="Trazado 65993" d="M5608.652,3601.762v-4.369a3.8,3.8,0,0,0-3.794-3.794h-59.6a3.794,3.794,0,0,0-3.793,3.794v4.369Z" transform="translate(-5541.462 -3593.599)" fill="#fff688"/>
      <path id="Trazado_65994" data-name="Trazado 65994" d="M5541.462,3612.577v44.713a3.8,3.8,0,0,0,3.793,3.794h59.6a3.8,3.8,0,0,0,3.794-3.794v-44.713Z" transform="translate(-5541.462 -3602.843)" fill="#fff688"/>
    </g>
    <g id="Grupo_31435" data-name="Grupo 31435" transform="translate(5371.626 3330.422)">
      <g id="Grupo_31421" data-name="Grupo 31421" transform="translate(0 0)">
        <path id="Trazado_65995" data-name="Trazado 65995" d="M5583.917,3445.6c1.4-.967,3.928,5.463,4.2,3.784,2.815-17.5-12.6-49.157-12.6-49.157l-17.526,4.627,12.458,24.156c5.588,12.538,5.949,16.957,10.131,17.534a3.908,3.908,0,0,0,.589.037A4.905,4.905,0,0,0,5583.917,3445.6Z" transform="translate(-5557.993 -3400.222)" fill="#ff9985"/>
      </g>
      <g id="Grupo_31422" data-name="Grupo 31422" transform="translate(18.117 34.701)">
        <path id="Trazado_65996" data-name="Trazado 65996" d="M5597.374,3518.455l.51-1.824c-.484-30.316-9.7-44.669-.5-48.64.938-.4,4.754.418,5.625.986,1.506.982,2.141,2.848,2.422,4.809,2.132,14.745.388,27.34-1.149,38.453-.279,2.014-.553,3.995-.8,5.949-.057.443-.118.889-.179,1.333Z" transform="translate(-5593.318 -3467.882)" fill="#ff9985"/>
      </g>
      <g id="Grupo_31434" data-name="Grupo 31434" transform="translate(16.003 76.19)">
        <g id="Grupo_31424" data-name="Grupo 31424" transform="translate(0 6.301)">
          <g id="Grupo_31423" data-name="Grupo 31423">
            <path id="Trazado_65997" data-name="Trazado 65997" d="M5589.588,3568.774a1.152,1.152,0,0,0,1.606-.427l3.7-5.368a1.287,1.287,0,0,0-.116-1.735,1.153,1.153,0,0,0-1.606.428l-3.7,5.369A1.287,1.287,0,0,0,5589.588,3568.774Z" transform="translate(-5589.196 -3561.063)" fill="#ff9985"/>
          </g>
        </g>
        <g id="Grupo_31425" data-name="Grupo 31425" transform="translate(3.231)">
          <path id="Trazado_65998" data-name="Trazado 65998" d="M5606.091,3559.625a6.416,6.416,0,0,1-1.237,2.69,3.18,3.18,0,0,1-1.552.836,12.556,12.556,0,0,1-4.2.462,3.372,3.372,0,0,1-3.319-2.342,8.016,8.016,0,0,1,.45-5.385c1.33-3.129,1.828-4.236,3.976-5.89,2.689-2.07,5.06-1.739,5.608,2.822C5606.1,3555.167,5606.688,3557.38,5606.091,3559.625Z" transform="translate(-5595.496 -3548.777)" fill="#ff9985"/>
        </g>
        <g id="Grupo_31427" data-name="Grupo 31427" transform="translate(3.371 11.033)">
          <g id="Grupo_31426" data-name="Grupo 31426">
            <path id="Trazado_65999" data-name="Trazado 65999" d="M5597.827,3571.124l1.188,8.855a1.3,1.3,0,0,1-.879,1.383.912.912,0,0,1-1.17-.8l-1.187-8.854a1.293,1.293,0,0,1,.878-1.383A.912.912,0,0,1,5597.827,3571.124Z" transform="translate(-5595.769 -3570.287)" fill="#ff9985"/>
          </g>
        </g>
        <g id="Grupo_31429" data-name="Grupo 31429" transform="translate(6.262 11.123)">
          <g id="Grupo_31428" data-name="Grupo 31428">
            <path id="Trazado_66000" data-name="Trazado 66000" d="M5603.464,3571.3l1.189,8.855a1.3,1.3,0,0,1-.879,1.383.911.911,0,0,1-1.17-.8l-1.187-8.855a1.293,1.293,0,0,1,.877-1.383A.911.911,0,0,1,5603.464,3571.3Z" transform="translate(-5601.406 -3570.464)" fill="#ff9985"/>
          </g>
        </g>
        <g id="Grupo_31431" data-name="Grupo 31431" transform="translate(8.966 9.159)">
          <g id="Grupo_31430" data-name="Grupo 31430">
            <path id="Trazado_66001" data-name="Trazado 66001" d="M5608.736,3567.471l1.188,8.855a1.294,1.294,0,0,1-.877,1.383.913.913,0,0,1-1.171-.8l-1.187-8.855a1.294,1.294,0,0,1,.877-1.384A.912.912,0,0,1,5608.736,3567.471Z" transform="translate(-5606.678 -3566.635)" fill="#ff9985"/>
          </g>
        </g>
        <g id="Grupo_31433" data-name="Grupo 31433" transform="translate(11.269 6.115)">
          <g id="Grupo_31432" data-name="Grupo 31432">
            <path id="Trazado_66002" data-name="Trazado 66002" d="M5613.226,3561.537l1.189,8.854a1.3,1.3,0,0,1-.877,1.383.912.912,0,0,1-1.171-.8l-1.187-8.855a1.292,1.292,0,0,1,.877-1.383A.912.912,0,0,1,5613.226,3561.537Z" transform="translate(-5611.168 -3560.7)" fill="#ff9985"/>
          </g>
        </g>
      </g>
    </g>
    <g id="Grupo_31436" data-name="Grupo 31436" transform="translate(5363.426 3314.495)">
      <path id="Trazado_66003" data-name="Trazado 66003" d="M5565.691,3374.652c-7.032-11.872-28.85-2.514-22.562,9.534,2.731,5.236,5.624,12.548,9.1,20.283l22.8-11.487A168.972,168.972,0,0,0,5565.691,3374.652Z" transform="translate(-5542.005 -3369.168)" fill="#000543"/>
      <path id="Trazado_66004" data-name="Trazado 66004" d="M5561.932,3427.089q.377.839.762,1.684l22.792-11.436c-.245-.574-.5-1.155-.754-1.735Z" transform="translate(-5551.712 -3391.787)" fill="#fff688"/>
      <path id="Trazado_66005" data-name="Trazado 66005" d="M5563.417,3430.421q.512,1.12,1.039,2.246l22.748-11.309c-.322-.783-.656-1.576-1-2.373Z" transform="translate(-5552.437 -3393.435)" fill="#000543"/>
      <path id="Trazado_66006" data-name="Trazado 66006" d="M5565.442,3434.92c.908,1.935,1.854,3.878,2.85,5.806l22.229-11.17c-.718-1.923-1.5-3.913-2.331-5.945Z" transform="translate(-5553.423 -3395.689)" fill="#fff688"/>
      <path id="Trazado_66007" data-name="Trazado 66007" d="M5571,3446.373c.072.14.142.282.216.423a3.153,3.153,0,0,0,4.239,1.42l16.175-7.953a3.727,3.727,0,0,0,1.775-4.588c-.059-.156-.119-.315-.178-.472Z" transform="translate(-5556.129 -3401.335)" fill="#000543"/>
      <path id="Trazado_66008" data-name="Trazado 66008" d="M5590.433,3388.832l-2.9,5.393,2.768,5.479,5.686.1a36.486,36.486,0,0,0-5.545-10.969Z" transform="translate(-5564.183 -3378.746)" fill="#24306b"/>
    </g>
    <g id="Grupo_31438" data-name="Grupo 31438" transform="translate(5268.533 3536.242)">
      <g id="Grupo_31437" data-name="Grupo 31437">
        <path id="Trazado_66009" data-name="Trazado 66009" d="M5363.684,3801.528l-6.7,21.09,8.521.381,4.551-4.614-2.929-.872,6.1-15.481Z" transform="translate(-5356.983 -3801.528)" fill="#ff9985"/>
      </g>
    </g>
    <g id="Grupo_31439" data-name="Grupo 31439" transform="translate(5267.015 3381.715)">
      <path id="Trazado_66010" data-name="Trazado 66010" d="M5354.22,3812.408c-.131,1.463-.425,2.649.13,3.572,1.38,2.289,9.865,3.207,14.938,3.207,1.719-.005,3.646-3.312,4.625-5.625l-19.315-3.485A17.333,17.333,0,0,0,5354.22,3812.408Z" transform="translate(-5354.024 -3651.165)" fill="#24306b"/>
      <path id="Trazado_66011" data-name="Trazado 66011" d="M5355.146,3798.928l19.314,3.485c.165-.386.3-.749.409-1.06a96.809,96.809,0,0,1,4.316-10.219l-19.491-3.944C5358.051,3791.081,5356.019,3795.1,5355.146,3798.928Z" transform="translate(-5354.571 -3640.016)" fill="#fff688"/>
      <path id="Trazado_66012" data-name="Trazado 66012" d="M5426.336,3500.232l-31.3.106-.892.034-1.336,1.444-.031.884c-.083,2.368-.206,4.855-.36,7.434a10.723,10.723,0,0,0-1.908,2.47c-3.977,6.609-6.138,24.159-7.079,31.924-.756,6.239-1.008,12.438-2.057,18.684-1.9,11.344-6.319,22.188-8.75,33.478-3.257,15.127-2.842,30.517-6.747,45.493a39.1,39.1,0,0,1-1.864,5.224l19.49,3.944a99.983,99.983,0,0,0,4.181-9.835c6.461-18.674,14.859-35.692,18.308-48.5,8.976-33.342,16.776-66.906,20.867-89.788l.069-.386.246-.326.4-.53Z" transform="translate(-5358.892 -3500.232)" fill="#24306b"/>
    </g>
    <g id="Grupo_31441" data-name="Grupo 31441" transform="translate(5338.612 3536.451)">
      <g id="Grupo_31440" data-name="Grupo 31440" transform="translate(0 0)">
        <path id="Trazado_66013" data-name="Trazado 66013" d="M5500.325,3801.935l-6.7,21.09,8.521.38,4.551-4.614-2.929-.872,6.1-15.481Z" transform="translate(-5493.624 -3801.935)" fill="#ff9985"/>
      </g>
    </g>
    <g id="Grupo_31446" data-name="Grupo 31446" transform="translate(5337.62 3551.645)">
      <g id="Grupo_31444" data-name="Grupo 31444" transform="translate(0)">
        <g id="Grupo_31442" data-name="Grupo 31442" transform="translate(0.307)">
          <path id="Trazado_66014" data-name="Trazado 66014" d="M5504.523,3831.585l10.862,3.727c2.658.911,3.157,2.775,2.095,4.156l-25.192-.657,1.026-5.546a2.088,2.088,0,0,1,2.057-1.706Z" transform="translate(-5492.288 -3831.56)" fill="#354684"/>
        </g>
        <g id="Grupo_31443" data-name="Grupo 31443" transform="translate(0 7.252)">
          <path id="Trazado_66015" data-name="Trazado 66015" d="M5492,3845.7l-.28.94c-.176.584.528,1.132,1.467,1.145l19.577.264a5.384,5.384,0,0,0,4.429-1.693Z" transform="translate(-5491.688 -3845.698)" fill="#000543"/>
        </g>
      </g>
      <g id="Grupo_31445" data-name="Grupo 31445" transform="translate(2.836 4.9)">
        <rect id="Rectángulo_6415" data-name="Rectángulo 6415" width="4.901" height="1.768" rx="0.479" transform="matrix(-1, -0.003, 0.003, -1, 4.901, 1.781)" fill="#000543"/>
      </g>
    </g>
    <path id="Trazado_66016" data-name="Trazado 66016" d="M5491.739,3551.2l-38.875,7.328c2.447,5.419,4.7,10.312,6.276,13.442,1.478,2.929,7.813,9.664,9.056,12.694,3.074,7.49,2.366,11.151,5.36,18.668,1.451,3.642,3.725,9,6.113,14.594,4.7,11,15.024,17.47,23.237,14.552,7.725-2.745,10.993-12.908,7.541-23.537C5504.095,3589.392,5498.162,3569.106,5491.739,3551.2Z" transform="translate(-135.157 -143.347)" fill="#24306b"/>
    <path id="Trazado_66017" data-name="Trazado 66017" d="M5492.92,3813.049c.833,2.138,1.806,3.309,3.909,3.7l10.163,1.883c2.585.482,5.22-1.865,5.872-4.571.052-.222.125-.5.211-.823l-20.12-4.1A7.949,7.949,0,0,0,5492.92,3813.049Z" transform="translate(-154.551 -268.993)" fill="#24306b"/>
    <path id="Trazado_66018" data-name="Trazado 66018" d="M5533.2,3674.053c.158-.773.429-2.223.759-4.024,1.663-9.1-3.935-18.3-12.039-19.779-6.788-1.236-13.075,3.433-14.723,10.975-1.286,5.89-7.241,40.17-10.34,58.759l21.621,4.259C5523.5,3707.547,5531.98,3679.99,5533.2,3674.053Z" transform="translate(-156.587 -191.499)" fill="#24306b"/>
    <path id="Trazado_66019" data-name="Trazado 66019" d="M5495.085,3786.4c-.94,5.629-1.615,9.822-1.821,11.347-.013.1-.03.208-.045.313l20.121,4.1c.56-2.1,1.793-6.267,3.367-11.5Z" transform="translate(-154.814 -257.918)" fill="#fff688"/>
    <g id="Grupo_31447" data-name="Grupo 31447" transform="translate(5291.681 3304.425)">
      <path id="Trazado_66020" data-name="Trazado 66020" d="M5464.886,3464.853h-62.566a3.694,3.694,0,0,1-.2-1.108c-.008-.5,0-.94.021-1.3.409-1.458.857-3.094,1.321-4.8.573-2.122,1.17-4.363,1.758-6.611,1.005-3.851,1.977-7.681,2.713-10.769q.654-2.641,1.194-5.287c2.6-12.132,7.37-23.658,7.424-36.8,0-1.046-1.063-15.806,1.032-22.136a25.226,25.226,0,0,1,5.3-9c-1.063-.8-5.823-1.74-5.823-1.74,42.2-32.223,75.655-5.086,75.655-5.086,7.39,5.041.777,13.172.6,14.912-9.927,25.349-12.706,49.167-21.914,75.906-.766,2.23.835,5.866.366,8.239C5471.371,3461.263,5470.9,3464.853,5464.886,3464.853Z" transform="translate(-5402.118 -3349.534)" fill="#000543"/>
    </g>
    <g id="Grupo_31448" data-name="Grupo 31448" transform="translate(5281.705 3269.575)">
      <path id="Trazado_66021" data-name="Trazado 66021" d="M5415.284,3284.921c-.269-.438-.552-.921-.783-1.382-.383-.764-.761-1.108-.6-1.955l-31.2,4.774a3.85,3.85,0,0,1-.017.619c-.107.9.564,1.876.532,2.213a4.444,4.444,0,0,0,.389,2.178,47.736,47.736,0,0,0,.39,7.381,13.214,13.214,0,0,0,1.527,4.96c.008.012.689,1.034.695,1.022.247-.612.768-1.922,1.1-2.677a10.93,10.93,0,0,1-.258-3.943c-1.819-.394-2.865-2.424-2.4-4.541a3.672,3.672,0,0,1,3.844-3.149l1.738-.429c7.742.33,7.688-6.567,14.742-6.384,4.584.118,7.114,1.466,8.331,2.4a12.671,12.671,0,0,1,.309,6.038c.078-.064,1.1-.664,1.171-1.428.024.03.047.061.072.09C5416.326,3289.915,5416.382,3286.721,5415.284,3284.921Z" transform="translate(-5382.667 -3281.584)" fill="#000543"/>
    </g>
    <g id="Grupo_31453" data-name="Grupo 31453" transform="translate(5266.967 3551.749)">
      <g id="Grupo_31451" data-name="Grupo 31451" transform="translate(0)">
        <g id="Grupo_31449" data-name="Grupo 31449" transform="translate(0.307)">
          <path id="Trazado_66022" data-name="Trazado 66022" d="M5366.766,3831.789l10.861,3.726c2.659.912,3.156,2.776,2.095,4.156l-25.191-.657,1.025-5.545a2.086,2.086,0,0,1,2.057-1.707Z" transform="translate(-5354.53 -3831.763)" fill="#354684"/>
        </g>
        <g id="Grupo_31450" data-name="Grupo 31450" transform="translate(0 7.252)">
          <path id="Trazado_66023" data-name="Trazado 66023" d="M5354.239,3845.9l-.281.94c-.175.583.528,1.133,1.467,1.145l19.576.264a5.381,5.381,0,0,0,4.429-1.693Z" transform="translate(-5353.931 -3845.902)" fill="#000543"/>
        </g>
      </g>
      <g id="Grupo_31452" data-name="Grupo 31452" transform="translate(2.836 4.9)">
        <rect id="Rectángulo_6416" data-name="Rectángulo 6416" width="4.901" height="1.768" rx="0.479" transform="matrix(-1, -0.003, 0.003, -1, 4.901, 1.781)" fill="#000543"/>
      </g>
    </g>
    <g id="Grupo_31455" data-name="Grupo 31455" transform="translate(5234.374 3537.385)">
      <g id="Grupo_31454" data-name="Grupo 31454">
        <path id="Trazado_66024" data-name="Trazado 66024" d="M5300.458,3803.757l-10.078,16.418,6.312,4.8,5.585-3.287-2.606-1.6,9.881-13.389Z" transform="translate(-5290.38 -3803.757)" fill="#ff9985"/>
      </g>
    </g>
    <g id="Grupo_31460" data-name="Grupo 31460" transform="translate(5232.553 3552.896)">
      <g id="Grupo_31458" data-name="Grupo 31458">
        <g id="Grupo_31456" data-name="Grupo 31456" transform="translate(0.308)">
          <path id="Trazado_66025" data-name="Trazado 66025" d="M5299.666,3834.025l10.862,3.727c2.657.911,3.155,2.774,2.094,4.156l-25.191-.657,1.025-5.545a2.087,2.087,0,0,1,2.057-1.707Z" transform="translate(-5287.431 -3834)" fill="#f9d8c5"/>
        </g>
        <g id="Grupo_31457" data-name="Grupo 31457" transform="translate(0 7.252)">
          <path id="Trazado_66026" data-name="Trazado 66026" d="M5287.139,3848.138l-.28.94c-.176.584.527,1.132,1.467,1.145l19.576.264a5.38,5.38,0,0,0,4.429-1.692Z" transform="translate(-5286.832 -3848.138)" fill="#000543"/>
        </g>
      </g>
      <g id="Grupo_31459" data-name="Grupo 31459" transform="translate(2.837 4.9)">
        <rect id="Rectángulo_6417" data-name="Rectángulo 6417" width="4.901" height="1.768" rx="0.479" transform="matrix(-1, -0.003, 0.003, -1, 4.901, 1.781)" fill="#000543"/>
      </g>
    </g>
    <g id="Grupo_31462" data-name="Grupo 31462" transform="translate(5177.225 3537.02)">
      <g id="Grupo_31461" data-name="Grupo 31461">
        <path id="Trazado_66027" data-name="Trazado 66027" d="M5189.032,3803.045l-10.079,16.418,6.312,4.8,5.584-3.287-2.605-1.6,9.88-13.389Z" transform="translate(-5178.954 -3803.045)" fill="#ff9985"/>
      </g>
    </g>
    <g id="Grupo_31467" data-name="Grupo 31467" transform="translate(5175.405 3552.531)">
      <g id="Grupo_31465" data-name="Grupo 31465" transform="translate(0 0)">
        <g id="Grupo_31463" data-name="Grupo 31463" transform="translate(0.307)">
          <path id="Trazado_66028" data-name="Trazado 66028" d="M5188.238,3833.313l10.862,3.727c2.659.912,3.157,2.776,2.095,4.156l-25.192-.657,1.026-5.545a2.087,2.087,0,0,1,2.056-1.707Z" transform="translate(-5176.002 -3833.287)" fill="#f9d8c5"/>
        </g>
        <g id="Grupo_31464" data-name="Grupo 31464" transform="translate(0 7.252)">
          <path id="Trazado_66029" data-name="Trazado 66029" d="M5175.711,3847.426l-.28.94c-.175.584.528,1.133,1.467,1.146l19.577.264a5.384,5.384,0,0,0,4.429-1.692Z" transform="translate(-5175.404 -3847.426)" fill="#000543"/>
        </g>
      </g>
      <g id="Grupo_31466" data-name="Grupo 31466" transform="translate(2.837 4.9)">
        <path id="Rectángulo_6418" data-name="Rectángulo 6418" d="M.479,0H4.422A.48.48,0,0,1,4.9.48v.809a.479.479,0,0,1-.479.479H.479A.479.479,0,0,1,0,1.289V.479A.479.479,0,0,1,.479,0Z" transform="matrix(-1, -0.003, 0.003, -1, 4.901, 1.781)" fill="#000543"/>
      </g>
    </g>
    <g id="Grupo_31468" data-name="Grupo 31468" transform="translate(5361.944 3295.429)">
      <path id="Trazado_66030" data-name="Trazado 66030" d="M5557.65,3380.687l-.111-1.89c-10.312-28.513-23.694-39.09-16.283-45.837.756-.687,4.632-1.15,5.642-.9,1.742.439,2.949,2,3.854,3.761,6.809,13.25,9.255,25.728,11.413,36.737.39,2,.774,3.958,1.177,5.885.091.438.177.879.264,1.319Z" transform="translate(-5539.114 -3331.993)" fill="#ff9985"/>
    </g>
    <g id="Grupo_31470" data-name="Grupo 31470" transform="translate(5282.068 3295.938)">
      <g id="Grupo_31469" data-name="Grupo 31469" transform="translate(0 0)">
        <path id="Trazado_66031" data-name="Trazado 66031" d="M5432.315,3336.347a5.048,5.048,0,0,0-5.872-3.26c-11.235,2.153-26.9,5.716-35.713,7.689-17.2,3.853-1.1,23.169,16.244,19.283,6.988-1.565,15.582-2.609,22.613-3.9a4.9,4.9,0,0,0,4.13-4.149A39.428,39.428,0,0,0,5432.315,3336.347Z" transform="translate(-5383.375 -3332.987)" fill="#6d72a0"/>
      </g>
    </g>
    <path id="Trazado_66032" data-name="Trazado 66032" d="M5374.313,3563.3h-38.536c1.345,5.792,2.6,11.029,3.538,14.407.879,3.161,5.781,11,6.41,14.216,1.557,7.945.149,11.4,1.621,19.354.713,3.854,1.9,9.556,3.152,15.506,2.466,11.7,11.334,20.062,19.958,18.8,8.112-1.188,13.3-10.519,11.98-21.617C5380.015,3603.551,5377.125,3582.112,5374.313,3563.3Z" transform="translate(-78.12 -149.24)" fill="#6d527f"/>
    <path id="Trazado_66033" data-name="Trazado 66033" d="M5303,3738.349c.047-1.367,1.032-2.745,1.708-3.935,3.339-5.865,33.627-55.094,38.11-61.737,4.4-6.53,11.88-8.829,17.523-5.423,6.734,4.065,8.217,14.551,3.195,22.537-.994,1.581-1.8,2.851-2.243,3.523-4.628,7.034-14.825,22.1-26.258,38.578-3.92,5.649-7.83,11.275-11.6,16.632-1.636,2.323-4.427,3.076-6.571,1.768l-11.77-7.179C5303.345,3742.05,5302.922,3740.63,5303,3738.349Z" transform="translate(-62.149 -199.115)" fill="#6d527f"/>
    <path id="Trazado_66034" data-name="Trazado 66034" d="M5309.913,3562.364l-35.919-14.261c-1.566,5.736-2.951,10.94-3.728,14.358-.728,3.2-.137,12.427-1.109,15.555-2.4,7.73-5.281,10.1-7.763,17.8-1.2,3.732-2.865,9.313-4.587,15.142-3.388,11.471.448,23.039,8.637,26.022,7.7,2.807,16.7-2.944,20.809-13.337C5293.815,3604.531,5303.457,3580.254,5309.913,3562.364Z" transform="translate(-39.053 -141.837)" fill="#6d527f"/>
    <path id="Trazado_66035" data-name="Trazado 66035" d="M5184.306,3737.289c.048-1.419,1.07-2.848,1.772-4.082,3.464-6.087,34.891-57.164,39.541-64.056,4.57-6.774,12.326-9.16,18.181-5.626,6.988,4.219,10.433,12.113,5.221,20.4-1.031,1.639-3.773,5.943-4.233,6.639-4.8,7.3-15.38,22.934-27.243,40.026-4.067,5.862-8.123,11.7-12.039,17.257-1.7,2.41-4.593,3.191-6.816,1.835l-12.213-7.449C5184.666,3741.129,5184.228,3739.656,5184.306,3737.289Z" transform="translate(-4.331 -197.269)" fill="#6d527f"/>
    <path id="Trazado_66036" data-name="Trazado 66036" d="M5530.778,3422.616l-6.077-.275-3.277,5.126,2.8,5.4,6.08.275,3.276-5.126Z" transform="translate(-168.554 -80.576)" fill="#fff688"/>
    <g id="Grupo_31471" data-name="Grupo 31471" transform="translate(5231.567 3303.523)">
      <path id="Trazado_66037" data-name="Trazado 66037" d="M5376.449,3354.031c-27.93-13.667-55.212-.679-55.212-.679a32.185,32.185,0,0,0-12.379,10.833,14.3,14.3,0,0,0-2.238,5.13c-5.029,25.047-13.241,50.237-19.443,76.648-.535,2.274-.842,4.513-1.307,6.742-.177.854-.3,1.706-.467,2.554-.833,4.182-1.063,7.094,3.029,7.094h57.182a6.8,6.8,0,0,0,5.448-3.429c.3-.506.547-.958.732-1.322.442-1.487.948-3.156,1.482-4.9.663-2.163,1.374-4.448,2.1-6.742,1.24-3.926,2.5-7.831,3.566-10.98q.888-2.695,1.89-5.391c4.478-12.372,2.8-23.054,8.423-37.4C5375.719,3375.72,5376.449,3354.031,5376.449,3354.031Z" transform="translate(-5284.909 -3347.776)" fill="#6d72a0"/>
    </g>
    <g id="Grupo_31494" data-name="Grupo 31494" transform="translate(5316.8 3256.931)">
      <g id="Grupo_31493" data-name="Grupo 31493" transform="translate(0)">
        <g id="Grupo_31492" data-name="Grupo 31492">
          <g id="Grupo_31472" data-name="Grupo 31472" transform="translate(23.126 8.515)">
            <path id="Trazado_66038" data-name="Trazado 66038" d="M5504.391,3278.1c1.267,1.195,2.515,2.711,2.413,4.457a19.554,19.554,0,0,0-.277,2.128,5.878,5.878,0,0,0,1.649,3.06c.722.93,1.371,2.151.935,3.245-.415,1.043-1.655,1.52-2.174,2.513-.769,1.473.2,3.717-1.106,4.728-.54.419-1.328.452-1.8.951-.657.7-.367,1.936-.965,2.686a1.765,1.765,0,0,1-2.028.387,4.247,4.247,0,0,1-1.657-1.456,5.816,5.816,0,0,1-1.431-3.909c.158-1.661,1.411-2.96,2.178-4.434,1.22-2.341-.243-5.2-1.987-7.192-.574-.655.057-1.431-.547-2.059a3.381,3.381,0,0,1-1.091-2.305,6.364,6.364,0,0,1,.752-2.225,2.3,2.3,0,0,0-.037-2.258c-.23-.292-.574-.478-.793-.779a1.327,1.327,0,0,1,.849-2.012c.806-.267,1.279.076,1.946.5A34.371,34.371,0,0,1,5504.391,3278.1Z" transform="translate(-5496.186 -3273.532)" fill="#000543"/>
          </g>
          <g id="Grupo_31473" data-name="Grupo 31473">
            <path id="Trazado_66039" data-name="Trazado 66039" d="M5451.1,3270.706c0-1.606.233-3.4,1.461-4.406a17.3,17.3,0,0,0,1.59-1.124,5.375,5.375,0,0,0,1.009-3.02c.167-1.069.577-2.267,1.575-2.644.955-.36,2.048.194,3.033-.064,1.462-.383,2.353-2.431,3.841-2.162.617.111,1.131.631,1.757.644.876.021,1.518-.943,2.395-1a1.65,1.65,0,0,1,1.524,1.149,3.96,3.96,0,0,1,.066,2.033,5.263,5.263,0,0,1-1.709,3.395c-1.206.919-2.854.862-4.315,1.246a6.11,6.11,0,0,0-4.568,5.046c-.076.8.03,1.6-.011,2.4a3.072,3.072,0,0,1-.854,2.171,5.679,5.679,0,0,1-1.951.86,2.05,2.05,0,0,0-1.482,1.419c-.051.338.039.688-.023,1.024a1.19,1.19,0,0,1-1.871.661c-.681-.387-.749-.922-.884-1.641A32.116,32.116,0,0,1,5451.1,3270.706Z" transform="translate(-5451.096 -3256.931)" fill="#000543"/>
          </g>
          <g id="Grupo_31476" data-name="Grupo 31476" transform="translate(24.408 22.274)">
            <g id="Grupo_31475" data-name="Grupo 31475">
              <g id="Grupo_31474" data-name="Grupo 31474">
                <path id="Trazado_66040" data-name="Trazado 66040" d="M5501.268,3300.393c1.733-.278,3.414,1.215,3.756,3.335s-.788,4.062-2.521,4.34-3.415-1.216-3.756-3.334S5499.533,3300.67,5501.268,3300.393Z" transform="translate(-5498.687 -3300.36)" fill="#ff9985"/>
              </g>
            </g>
          </g>
          <g id="Grupo_31479" data-name="Grupo 31479" transform="translate(2.225 12.293)">
            <g id="Grupo_31478" data-name="Grupo 31478">
              <g id="Grupo_31477" data-name="Grupo 31477">
                <path id="Trazado_66041" data-name="Trazado 66041" d="M5458.609,3280.9a12.752,12.752,0,0,0-3.011,10.458l2.717,10.048c1.1,6.847,7.383,11.287,11.646,10.205,6.428-1.632,12.162-7.2,11.06-14.047l-1.561-9.692Z" transform="translate(-5455.434 -3280.9)" fill="#ff9985"/>
              </g>
            </g>
          </g>
          <g id="Grupo_31482" data-name="Grupo 31482" transform="translate(18.3 27.252)">
            <g id="Grupo_31481" data-name="Grupo 31481">
              <g id="Grupo_31480" data-name="Grupo 31480">
                <path id="Trazado_66042" data-name="Trazado 66042" d="M5505.654,3336.875a3.494,3.494,0,0,0,1.378-4.437l-8.459-20.8a2.267,2.267,0,0,0-2.843-1.435l-7.729,3.18a2.281,2.281,0,0,0-1.022,3.025l7.967,22.708c.549,1.564,1.119,0,2.44-.718Z" transform="translate(-5486.776 -3310.065)" fill="#ff9985"/>
              </g>
            </g>
          </g>
          <g id="Grupo_31483" data-name="Grupo 31483" transform="translate(12.83 20.678)">
            <path id="Trazado_66043" data-name="Trazado 66043" d="M5476.724,3297.675l2.7-.419a.737.737,0,0,1,.227,1.456l-2.7.419a.737.737,0,0,1-.227-1.456Z" transform="translate(-5476.111 -3297.247)" fill="#000543"/>
          </g>
          <g id="Grupo_31484" data-name="Grupo 31484" transform="translate(1.756 21.704)">
            <path id="Trazado_66044" data-name="Trazado 66044" d="M5455.131,3299.676l2.7-.419a.737.737,0,0,1,.228,1.457l-2.7.419a.737.737,0,0,1-.228-1.457Z" transform="translate(-5454.52 -3299.249)" fill="#000543"/>
          </g>
          <g id="Grupo_31485" data-name="Grupo 31485" transform="translate(4.707 23.783)">
            <path id="Trazado_66045" data-name="Trazado 66045" d="M5460.3,3304.729c.111.714.572,1.236,1.03,1.165s.737-.707.626-1.422-.572-1.236-1.03-1.165S5460.188,3304.015,5460.3,3304.729Z" transform="translate(-5460.274 -3303.301)" fill="#000543"/>
          </g>
          <g id="Grupo_31486" data-name="Grupo 31486" transform="translate(14.867 22.407)">
            <path id="Trazado_66046" data-name="Trazado 66046" d="M5480.108,3302.047c.111.714.572,1.236,1.029,1.165s.739-.708.627-1.422-.572-1.235-1.03-1.165S5480,3301.333,5480.108,3302.047Z" transform="translate(-5480.083 -3300.619)" fill="#000543"/>
          </g>
          <g id="Grupo_31487" data-name="Grupo 31487" transform="translate(8.684 28.564)">
            <path id="Trazado_66047" data-name="Trazado 66047" d="M5468.073,3312.883l.065-.26a1.456,1.456,0,0,0,1.207,1.055l1.466.18a1.087,1.087,0,0,0,1.112-.634l.052.134a1.138,1.138,0,0,1-1.187,1.546l-1.468-.18A1.488,1.488,0,0,1,5468.073,3312.883Z" transform="translate(-5468.028 -3312.624)" fill="#fa694f"/>
          </g>
          <g id="Grupo_31488" data-name="Grupo 31488" transform="translate(6.025 8.72)">
            <path id="Trazado_66048" data-name="Trazado 66048" d="M5462.844,3277.232s4.869-4.079,13.1-3.166l-2.6,3.072Z" transform="translate(-5462.844 -3273.933)" fill="#ffb288"/>
          </g>
          <g id="Grupo_31489" data-name="Grupo 31489" transform="translate(2.713 9.011)">
            <path id="Trazado_66049" data-name="Trazado 66049" d="M5456.386,3279.633s12.377,7.893,26.732,5.044l-1.444-8.405-21.1-1.772Z" transform="translate(-5456.386 -3274.5)" fill="#000543"/>
          </g>
          <g id="Grupo_31490" data-name="Grupo 31490" transform="translate(5.191 15.563)">
            <path id="Trazado_66050" data-name="Trazado 66050" d="M5482.558,3291.265l1.764,9.328c.7,2.954.609,6.367-.966,8.936a28.585,28.585,0,0,1-3.889,4.6c-2.091,1.894-8.015,2.383-10.5,2.731-2.314.325-5.117-1.709-5.934-3.936l-1.82-7.808s8-.529,12.678-2.617c3.823-1.705,4.043-2.617,4.493-6.833l.9-8.388Z" transform="translate(-5461.217 -3287.274)" fill="#000543"/>
          </g>
          <g id="Grupo_31491" data-name="Grupo 31491" transform="translate(6.621 0.127)">
            <path id="Trazado_66051" data-name="Trazado 66051" d="M5489.274,3267.833a11.975,11.975,0,0,0,.562,1.831c.348.694.959,1.2,1.339,1.878,1.709,3.031-1.956,7.4.189,10.1-1.266.066-2.3-1.15-2.887-2.366a11.084,11.084,0,0,0-1.976-3.5c-1.463-1.35-3.648-1.134-5.408-1.973-1.524-.727-2.7-2.237-4.3-2.719-1.792-.54-3.73.331-5.518-.228-1.2-.373-2.275-1.371-3.508-1.272a15.654,15.654,0,0,1-1.7.32c-4.188-.129-.884-6.848.259-8.322,1.669-2.154,4.525-4.5,7.316-4.4,3.322.119,5.081,3.386,7.836,4.827C5484.347,3263.51,5488.1,3264.082,5489.274,3267.833Z" transform="translate(-5464.004 -3257.179)" fill="#000543"/>
          </g>
        </g>
      </g>
    </g>
    <g id="Grupo_31511" data-name="Grupo 31511" transform="translate(5244.469 3309.033)">
      <g id="Grupo_31506" data-name="Grupo 31506" transform="translate(53.674 62.313)">
        <g id="Grupo_31496" data-name="Grupo 31496" transform="translate(6.219)">
          <g id="Grupo_31495" data-name="Grupo 31495">
            <path id="Trazado_66052" data-name="Trazado 66052" d="M5434.489,3480.4a1.152,1.152,0,0,1-.405,1.612l-5.316,3.775a1.285,1.285,0,0,1-1.735-.092,1.152,1.152,0,0,1,.4-1.611l5.315-3.775A1.287,1.287,0,0,1,5434.489,3480.4Z" transform="translate(-5426.844 -3480.016)" fill="#ff9985"/>
          </g>
        </g>
        <g id="Grupo_31497" data-name="Grupo 31497" transform="translate(0 3.266)">
          <path id="Trazado_66053" data-name="Trazado 66053" d="M5425.609,3496.976a6.413,6.413,0,0,0,2.67-1.276,3.174,3.174,0,0,0,.814-1.564,12.562,12.562,0,0,0,.4-4.209,3.374,3.374,0,0,0-2.39-3.286,8.009,8.009,0,0,0-5.377.528c-3.11,1.373-4.209,1.888-5.832,4.059-2.032,2.719-1.667,5.084,2.9,5.568C5421.15,3497.045,5423.374,3497.6,5425.609,3496.976Z" transform="translate(-5414.718 -3486.385)" fill="#ff9985"/>
        </g>
        <g id="Grupo_31499" data-name="Grupo 31499" transform="translate(10.943 3.382)">
          <g id="Grupo_31498" data-name="Grupo 31498">
            <path id="Trazado_66054" data-name="Trazado 66054" d="M5436.9,3488.676l8.871,1.062a1.3,1.3,0,0,0,1.371-.9.913.913,0,0,0-.816-1.159l-8.871-1.062a1.3,1.3,0,0,0-1.371.9A.912.912,0,0,0,5436.9,3488.676Z" transform="translate(-5436.053 -3486.611)" fill="#ff9985"/>
          </g>
        </g>
        <g id="Grupo_31501" data-name="Grupo 31501" transform="translate(11.074 6.272)">
          <g id="Grupo_31500" data-name="Grupo 31500">
            <path id="Trazado_66055" data-name="Trazado 66055" d="M5437.16,3494.311l8.871,1.062a1.3,1.3,0,0,0,1.371-.9.912.912,0,0,0-.816-1.159l-8.87-1.062a1.3,1.3,0,0,0-1.371.9A.912.912,0,0,0,5437.16,3494.311Z" transform="translate(-5436.31 -3492.246)" fill="#ff9985"/>
          </g>
        </g>
        <g id="Grupo_31503" data-name="Grupo 31503" transform="translate(9.149 9.004)">
          <g id="Grupo_31502" data-name="Grupo 31502">
            <path id="Trazado_66056" data-name="Trazado 66056" d="M5433.406,3499.636l8.873,1.062a1.3,1.3,0,0,0,1.37-.9.912.912,0,0,0-.815-1.158l-8.871-1.062a1.3,1.3,0,0,0-1.372.9A.913.913,0,0,0,5433.406,3499.636Z" transform="translate(-5432.557 -3497.572)" fill="#ff9985"/>
          </g>
        </g>
        <g id="Grupo_31505" data-name="Grupo 31505" transform="translate(6.138 11.35)">
          <g id="Grupo_31504" data-name="Grupo 31504">
            <path id="Trazado_66057" data-name="Trazado 66057" d="M5427.536,3504.211l8.872,1.062a1.291,1.291,0,0,0,1.369-.9.911.911,0,0,0-.813-1.159l-8.872-1.061a1.294,1.294,0,0,0-1.37.9A.911.911,0,0,0,5427.536,3504.211Z" transform="translate(-5426.687 -3502.146)" fill="#ff9985"/>
          </g>
        </g>
      </g>
      <g id="Grupo_31507" data-name="Grupo 31507" transform="translate(4.034 19.431)">
        <path id="Trazado_66058" data-name="Trazado 66058" d="M5325.086,3449.094a10,10,0,0,1-4.843-4.053c-4.87-8.329-.539-48.063-.539-48.063l20.573-.572-4.79,30.4c-2.072,15.449-2.1,20.278-6.466,22.248a4.581,4.581,0,0,1-.631.229A5.588,5.588,0,0,1,5325.086,3449.094Z" transform="translate(-5317.93 -3396.405)" fill="#ff9985"/>
      </g>
      <g id="Grupo_31508" data-name="Grupo 31508" transform="translate(5.849 58.735)">
        <path id="Trazado_66059" data-name="Trazado 66059" d="M5423.2,3491.168l-2.12.363c-2.853-.341-5.563-.741-8.156-1.176l-.146,7.98,2.6-.088c2.308-.08,4.577-.158,6.812-.209.507-.012,1.019-.03,1.526-.047Z" transform="translate(-5365.946 -3481.474)" fill="#ff9985"/>
        <path id="Trazado_66060" data-name="Trazado 66060" d="M5354.567,3476.544l-.152,12.355a2,2,0,0,0,1.774,1.989,168.821,168.821,0,0,0,26.2.881c1.1-.032,1.979-.175,1.992-1.234l.092-8.478a2,2,0,0,0-1.705-1.977c-10.616-1.783-19.032-3.774-25.64-5.43A2.033,2.033,0,0,0,5354.567,3476.544Z" transform="translate(-5337.518 -3473.792)" fill="#f9d8c5"/>
        <path id="Trazado_66061" data-name="Trazado 66061" d="M5321.722,3476.861c-.565,1.012-.083,5.418.458,6.468.934,1.816,2.968,2.749,5.15,3.3a109.1,109.1,0,0,0,11.015,2.164l.206-14.033C5329.725,3472.44,5324.514,3471.874,5321.722,3476.861Z" transform="translate(-5321.468 -3473.039)" fill="#ff9985"/>
      </g>
      <g id="Grupo_31510" data-name="Grupo 31510" transform="translate(0)">
        <g id="Grupo_31509" data-name="Grupo 31509">
          <path id="Trazado_66062" data-name="Trazado 66062" d="M5314.239,3406.433a5.732,5.732,0,0,1-4.125-6.414c1.617-12.886.422-8.768,2.013-18.895,3.105-19.772,32.674-32.519,29.543-12.58-1.26,8.033-4.234,25.286-5.184,33.346a5.563,5.563,0,0,1-4.4,4.985A44.739,44.739,0,0,1,5314.239,3406.433Z" transform="translate(-5310.064 -3358.519)" fill="#6d72a0"/>
        </g>
      </g>
    </g>
    <g id="Grupo_31523" data-name="Grupo 31523" transform="translate(5375.886 3333.918)">
      <g id="Grupo_31513" data-name="Grupo 31513" transform="translate(0 7.892)">
        <g id="Grupo_31512" data-name="Grupo 31512">
          <path id="Trazado_66063" data-name="Trazado 66063" d="M5567.033,3431.28a1.153,1.153,0,0,0,1.38-.927l1.751-6.279a1.287,1.287,0,0,0-.673-1.6,1.153,1.153,0,0,0-1.38.926l-1.752,6.28A1.287,1.287,0,0,0,5567.033,3431.28Z" transform="translate(-5566.3 -3422.427)" fill="#ff9985"/>
        </g>
      </g>
      <g id="Grupo_31514" data-name="Grupo 31514" transform="translate(1.843 0)">
        <path id="Trazado_66064" data-name="Trazado 66064" d="M5580.458,3416.424a6.421,6.421,0,0,1-.3,2.947,3.193,3.193,0,0,1-1.2,1.294,12.565,12.565,0,0,1-3.825,1.8,3.372,3.372,0,0,1-3.9-1.136,8.018,8.018,0,0,1-1.324-5.239c.24-3.391.351-4.6,1.845-6.863,1.871-2.832,4.221-3.289,6.221.846C5579.015,3412.205,5580.293,3414.107,5580.458,3416.424Z" transform="translate(-5569.894 -3407.04)" fill="#ff9985"/>
      </g>
      <g id="Grupo_31516" data-name="Grupo 31516" transform="translate(2.923 12.533)">
        <g id="Grupo_31515" data-name="Grupo 31515">
          <path id="Trazado_66065" data-name="Trazado 66065" d="M5573.875,3432.022l4,7.988a1.293,1.293,0,0,1-.379,1.593.91.91,0,0,1-1.366-.375l-4-7.987a1.294,1.294,0,0,1,.38-1.593A.912.912,0,0,1,5573.875,3432.022Z" transform="translate(-5572 -3431.476)" fill="#ff9985"/>
        </g>
      </g>
      <g id="Grupo_31518" data-name="Grupo 31518" transform="translate(5.687 11.678)">
        <g id="Grupo_31517" data-name="Grupo 31517">
          <path id="Trazado_66066" data-name="Trazado 66066" d="M5579.264,3430.357l4,7.987a1.3,1.3,0,0,1-.381,1.593.912.912,0,0,1-1.367-.375l-4-7.988a1.292,1.292,0,0,1,.38-1.593A.911.911,0,0,1,5579.264,3430.357Z" transform="translate(-5577.389 -3429.81)" fill="#ff9985"/>
        </g>
      </g>
      <g id="Grupo_31520" data-name="Grupo 31520" transform="translate(7.605 8.942)">
        <g id="Grupo_31519" data-name="Grupo 31519">
          <path id="Trazado_66067" data-name="Trazado 66067" d="M5583,3425.021l4,7.988a1.3,1.3,0,0,1-.381,1.593.912.912,0,0,1-1.366-.375l-4-7.988a1.3,1.3,0,0,1,.381-1.593A.91.91,0,0,1,5583,3425.021Z" transform="translate(-5581.129 -3424.474)" fill="#ff9985"/>
        </g>
      </g>
      <g id="Grupo_31522" data-name="Grupo 31522" transform="translate(8.794 5.315)">
        <g id="Grupo_31521" data-name="Grupo 31521">
          <path id="Trazado_66068" data-name="Trazado 66068" d="M5585.322,3417.95l4,7.987a1.294,1.294,0,0,1-.38,1.594.913.913,0,0,1-1.367-.375l-4-7.987a1.3,1.3,0,0,1,.38-1.594A.912.912,0,0,1,5585.322,3417.95Z" transform="translate(-5583.446 -3417.403)" fill="#ff9985"/>
        </g>
      </g>
    </g>
    <g id="Grupo_31535" data-name="Grupo 31535" transform="translate(5231.849 3378.156)">
      <g id="Grupo_31525" data-name="Grupo 31525" transform="translate(2.927)">
        <g id="Grupo_31524" data-name="Grupo 31524">
          <path id="Trazado_66069" data-name="Trazado 66069" d="M5295.707,3493.371a1.134,1.134,0,0,1,.4,1.585l-2.841,5.755a1.267,1.267,0,0,1-1.547.733,1.135,1.135,0,0,1-.4-1.585l2.841-5.756A1.267,1.267,0,0,1,5295.707,3493.371Z" transform="translate(-5291.164 -3493.295)" fill="#ff9985"/>
        </g>
      </g>
      <g id="Grupo_31526" data-name="Grupo 31526" transform="translate(0 3.412)">
        <path id="Trazado_66070" data-name="Trazado 66070" d="M5296.65,3509.678a6.3,6.3,0,0,0,1.718-2.354,3.117,3.117,0,0,0-.025-1.735,12.323,12.323,0,0,0-1.619-3.834,3.318,3.318,0,0,0-3.605-1.73,7.887,7.887,0,0,0-4.413,2.971c-2.05,2.644-2.764,3.6-3.155,6.244-.49,3.3.934,5.183,5.116,3.466C5292.82,3511.821,5295.008,3511.268,5296.65,3509.678Z" transform="translate(-5285.458 -3499.949)" fill="#ff9985"/>
      </g>
      <g id="Grupo_31528" data-name="Grupo 31528" transform="translate(6.766 0.092)">
        <g id="Grupo_31527" data-name="Grupo 31527">
          <path id="Trazado_66071" data-name="Trazado 66071" d="M5299.926,3498.816l8.182-3.227a1.273,1.273,0,0,0,.768-1.418.9.9,0,0,0-1.248-.623l-8.182,3.227a1.274,1.274,0,0,0-.768,1.417A.9.9,0,0,0,5299.926,3498.816Z" transform="translate(-5298.65 -3493.474)" fill="#ff9985"/>
        </g>
      </g>
      <g id="Grupo_31530" data-name="Grupo 31530" transform="translate(8.231 2.534)">
        <g id="Grupo_31529" data-name="Grupo 31529">
          <path id="Trazado_66072" data-name="Trazado 66072" d="M5302.783,3503.578l8.181-3.227a1.273,1.273,0,0,0,.768-1.418.9.9,0,0,0-1.248-.623l-8.181,3.227a1.276,1.276,0,0,0-.769,1.418A.9.9,0,0,0,5302.783,3503.578Z" transform="translate(-5301.506 -3498.236)" fill="#ff9985"/>
        </g>
      </g>
      <g id="Grupo_31532" data-name="Grupo 31532" transform="translate(7.839 5.8)">
        <g id="Grupo_31531" data-name="Grupo 31531">
          <path id="Trazado_66073" data-name="Trazado 66073" d="M5302.019,3509.946l8.181-3.227a1.275,1.275,0,0,0,.769-1.418.9.9,0,0,0-1.248-.623l-8.182,3.227a1.274,1.274,0,0,0-.768,1.418A.9.9,0,0,0,5302.019,3509.946Z" transform="translate(-5300.743 -3504.604)" fill="#ff9985"/>
        </g>
      </g>
      <g id="Grupo_31534" data-name="Grupo 31534" transform="translate(6.328 9.24)">
        <g id="Grupo_31533" data-name="Grupo 31533">
          <path id="Trazado_66074" data-name="Trazado 66074" d="M5299.072,3516.653l8.181-3.227a1.275,1.275,0,0,0,.768-1.418.9.9,0,0,0-1.248-.623l-8.182,3.227a1.276,1.276,0,0,0-.769,1.418A.9.9,0,0,0,5299.072,3516.653Z" transform="translate(-5297.795 -3511.311)" fill="#ff9985"/>
        </g>
      </g>
    </g>
    <g id="Grupo_31537" data-name="Grupo 31537" transform="translate(5277.327 3284.751)">
      <g id="Grupo_31536" data-name="Grupo 31536" transform="translate(0 0)">
        <path id="Trazado_66075" data-name="Trazado 66075" d="M5375.573,3339.362l6.217,4.6a3.159,3.159,0,0,0,5.034-2.436,2.4,2.4,0,0,1,.095-.673l8.413-23.509a2.341,2.341,0,0,0-1.292-3.032l-8.424-3.015a2.341,2.341,0,0,0-2.922,1.525l-8.413,23.508A2.342,2.342,0,0,0,5375.573,3339.362Z" transform="translate(-5374.13 -3311.174)" fill="#ff9985"/>
      </g>
    </g>
    <g id="Grupo_31538" data-name="Grupo 31538" transform="translate(5283.586 3271.595)">
      <path id="Trazado_66076" data-name="Trazado 66076" d="M5406.771,3285.526c-7.055-.182-6.962,6.832-14.7,6.5l-1.777.312a3.672,3.672,0,0,0-3.843,3.15c-.467,2.117.579,4.148,2.336,4.535a12.567,12.567,0,0,0,.32,3.95,13.967,13.967,0,0,0,10.437,9.884c6.638,1.462,12.1-2.7,13.606-9.535l2.207-10.011c.026-.117.035-.234.057-.351a12.691,12.691,0,0,0-.309-6.038C5413.884,3286.992,5411.354,3285.645,5406.771,3285.526Z" transform="translate(-5386.335 -3285.523)" fill="#ff9985"/>
    </g>
    <g id="Grupo_31540" data-name="Grupo 31540" transform="translate(5298.488 3276.47)">
      <g id="Grupo_31539" data-name="Grupo 31539" transform="translate(0 0)">
        <path id="Trazado_66077" data-name="Trazado 66077" d="M5419.031,3295.634l-2.739-.59a.744.744,0,1,0-.314,1.455l2.74.59a.744.744,0,0,0,.313-1.456Z" transform="translate(-5415.391 -3295.028)" fill="#000543"/>
      </g>
    </g>
    <g id="Grupo_31542" data-name="Grupo 31542" transform="translate(5309.317 3278.638)">
      <g id="Grupo_31541" data-name="Grupo 31541">
        <path id="Trazado_66078" data-name="Trazado 66078" d="M5440.145,3299.86l-2.74-.589a.744.744,0,1,0-.314,1.454l2.74.59a.744.744,0,0,0,.314-1.455Z" transform="translate(-5436.504 -3299.254)" fill="#000543"/>
      </g>
    </g>
    <g id="Grupo_31544" data-name="Grupo 31544" transform="translate(5308.602 3281.248)">
      <g id="Grupo_31543" data-name="Grupo 31543" transform="translate(0 0)">
        <path id="Trazado_66079" data-name="Trazado 66079" d="M5436.833,3305.829c-.153.714-.653,1.211-1.118,1.112s-.715-.759-.562-1.473.654-1.211,1.118-1.112S5436.987,3305.116,5436.833,3305.829Z" transform="translate(-5435.109 -3304.343)" fill="#000543"/>
      </g>
    </g>
    <g id="Grupo_31546" data-name="Grupo 31546" transform="translate(5298.288 3279.233)">
      <g id="Grupo_31545" data-name="Grupo 31545">
        <path id="Trazado_66080" data-name="Trazado 66080" d="M5416.723,3301.9c-.153.714-.654,1.211-1.118,1.112s-.714-.76-.561-1.473.653-1.211,1.117-1.112S5416.876,3301.187,5416.723,3301.9Z" transform="translate(-5414.999 -3300.415)" fill="#000543"/>
      </g>
    </g>
    <g id="Grupo_31547" data-name="Grupo 31547" transform="translate(5301.917 3285.866)">
      <path id="Trazado_66081" data-name="Trazado 66081" d="M5426.2,3313.614l-.051-.265a1.478,1.478,0,0,1-1.293.99l-1.51.091a1.123,1.123,0,0,1-1.1-.708l-.06.133a1.159,1.159,0,0,0,1.128,1.632l1.509-.091A1.5,1.5,0,0,0,5426.2,3313.614Z" transform="translate(-5422.077 -3313.349)" fill="#fa694f"/>
    </g>
    <path id="Trazado_66082" data-name="Trazado 66082" d="M5419.029,3321.936l-1.951-.3a.564.564,0,1,1,.17-1.115l1.95.3a.564.564,0,0,1-.169,1.114Z" transform="translate(-117.491 -30.975)" fill="#fff"/>
    <path id="Trazado_66083" data-name="Trazado 66083" d="M5476.972,3322.971l-1.937.386a.564.564,0,1,1-.22-1.105l1.936-.385a.563.563,0,0,1,.221,1.1Z" transform="translate(-145.628 -31.626)" fill="#fff"/>
    <path id="Trazado_66084" data-name="Trazado 66084" d="M5380.717,3292.239s4.014-17.1,31.232-15.069c0,0-.6-18.98-25.863-14.131C5386.087,3263.039,5364.058,3268.931,5380.717,3292.239Z" transform="translate(-96.977 -2.589)" fill="#f9d8c5"/>
    <g id="Grupo_31548" data-name="Grupo 31548" transform="translate(5269.191 3305.188)">
      <path id="Trazado_66085" data-name="Trazado 66085" d="M5358.894,3420.059a.446.446,0,0,1-.051,0,.626.626,0,0,1-.573-.674l5.527-67.785a.626.626,0,0,1,1.248.1l-5.527,67.785A.626.626,0,0,1,5358.894,3420.059Z" transform="translate(-5358.268 -3351.022)" fill="#f9d8c5"/>
    </g>
    <g id="Grupo_31549" data-name="Grupo 31549" transform="translate(5294.898 3300.808)">
      <path id="Trazado_66086" data-name="Trazado 66086" d="M5409.016,3417.568a.626.626,0,0,1-.626-.626v-73.834a.626.626,0,0,1,1.252,0v73.834A.626.626,0,0,1,5409.016,3417.568Z" transform="translate(-5408.39 -3342.483)" fill="#f9d8c5"/>
    </g>
    <g id="Grupo_31550" data-name="Grupo 31550" transform="translate(5346.589 3285.645)">
      <rect id="Rectángulo_6419" data-name="Rectángulo 6419" width="0.626" height="23.875" transform="translate(0 0.232) rotate(-21.737)" fill="#fa694f"/>
    </g>
    <g id="Grupo_31551" data-name="Grupo 31551" transform="translate(5338.456 3300.026)">
      <rect id="Rectángulo_6420" data-name="Rectángulo 6420" width="0.625" height="11.96" transform="translate(0 0.209) rotate(-19.482)" fill="#fa694f"/>
    </g>
    <path id="Trazado_66087" data-name="Trazado 66087" d="M5515.011,3346.168s-4.292,8.441-8.994,9.816l4.185,6.921s9.985-8.825,8.172-14.313Z" transform="translate(-161.049 -43.469)" fill="#24306b"/>
    <path id="Trazado_66088" data-name="Trazado 66088" d="M5493.951,3349.208s.458,6.073,5.344,8.347l-3.262,6.755s-5.892-5.656-5.8-13.69Z" transform="translate(-153.359 -44.95)" fill="#24306b"/>
  </g>
</svg>
