<svg id="Grupo_11242" data-name="Grupo 11242" xmlns="http://www.w3.org/2000/svg" width="57" height="57" viewBox="0 0 57 57">
  <rect id="Rectángulo_3196" data-name="Rectángulo 3196" width="57" height="57" rx="28.5" fill="#fff"/>
  <g id="Grupo_11237" data-name="Grupo 11237" transform="translate(16 15.241)">
    <path id="Trazado_26420" data-name="Trazado 26420" d="M13.99,9.532A1.576,1.576,0,1,1,11.76,7.3l4.458-4.457a6.3,6.3,0,1,1,8.915,8.913l-4.458,4.458a1.576,1.576,0,0,1-2.228-2.228L22.9,9.532a3.152,3.152,0,0,0-4.458-4.457Zm0,8.915a1.576,1.576,0,0,1,2.228,2.228L11.76,25.133a6.3,6.3,0,0,1-8.913-8.915L7.3,11.762A1.576,1.576,0,0,1,9.532,13.99L5.075,18.446A3.152,3.152,0,0,0,9.532,22.9Zm4.457-8.915a1.574,1.574,0,0,1,0,2.228l-6.685,6.686a1.576,1.576,0,1,1-2.23-2.228l6.686-6.686A1.577,1.577,0,0,1,18.446,9.532Z" transform="translate(-1 -1)" fill="#fdac29"/>
  </g>
</svg>
