<svg xmlns="http://www.w3.org/2000/svg" width="36" height="36" viewBox="0 0 36 36"><g transform="translate(-271.408 -7325.218)"><circle cx="18" cy="18" r="18" transform="translate(271.408 7325.218)" fill="#a3bd31"/><path d="M277,7338.894a13.14,13.14,0,0,0,0,8.649.831.831,0,0,0,.042.118,13.144,13.144,0,0,0,24.741,0,.835.835,0,0,0,.042-.118,13.14,13.14,0,0,0,0-8.649.805.805,0,0,0-.042-.119,13.144,13.144,0,0,0-24.741,0,.8.8,0,0,0-.042.119Zm12.412-6.936c.5,0,1.308.906,1.983,2.93a20.67,20.67,0,0,1,.776,3.32H286.65a20.6,20.6,0,0,1,.776-3.32c.675-2.024,1.482-2.93,1.982-2.93Zm2.987,8.135c.091,1,.139,2.053.139,3.125s-.048,2.121-.139,3.125h-5.974c-.09-1-.138-2.052-.138-3.125s.048-2.121.138-3.125Zm8.274,3.125a11.192,11.192,0,0,1-.442,3.125h-5.942c.089-1.025.133-2.076.133-3.125s-.044-2.1-.133-3.125h5.942a11.2,11.2,0,0,1,.442,3.125Zm-11.261,11.261c-.5,0-1.307-.906-1.982-2.93a20.616,20.616,0,0,1-.776-3.321h5.517a20.7,20.7,0,0,1-.776,3.321c-.675,2.024-1.482,2.93-1.983,2.93Zm-4.876-8.136H278.59a11.268,11.268,0,0,1,0-6.25h5.942c-.089,1.025-.133,2.076-.133,3.125s.044,2.1.133,3.125Zm-5.206,1.885h5.421a18.117,18.117,0,0,0,1.717,5.859,11.311,11.311,0,0,1-7.138-5.859Zm13.027,5.859a18.093,18.093,0,0,0,1.716-5.859h5.422a11.311,11.311,0,0,1-7.138,5.859Zm7.138-15.879h-5.422a18.093,18.093,0,0,0-1.716-5.859,11.309,11.309,0,0,1,7.138,5.859Zm-13.027-5.859a18.117,18.117,0,0,0-1.717,5.859h-5.421a11.31,11.31,0,0,1,7.138-5.859Zm0,0" fill="#fff"/></g></svg>