<svg xmlns="http://www.w3.org/2000/svg" width="72.185" height="85.369" viewBox="0 0 72.185 85.369"><g transform="translate(-217.343 -7442.92)"><path d="M254.642,7528.289c-2.089-3.879-4.045-7.509-6-11.14-.685-1.273-1.409-2.527-2.036-3.828a2.517,2.517,0,0,0-2.749-1.606c-3.336.261-6.683.376-10.019.636-4.756.37-8.128-1.89-9.049-6.549-1.4-7.084-2.544-14.22-3.862-21.322-1-5.389-2.087-10.761-3.164-16.135a13.57,13.57,0,0,1,.138-7.22,10.823,10.823,0,0,1,8.369-7.63q24.787-5.213,49.589-10.353c6.311-1.3,11.652,3.28,11.927,10.14.246,6.111.456,12.223.683,18.334.348,9.367.716,18.734,1.029,28.1a21.351,21.351,0,0,1-.24,4.806,8.675,8.675,0,0,1-8.609,6.984c-4.918.018-9.836.038-14.753-.015a3.184,3.184,0,0,0-3.153,1.9C260.118,7518.311,257.424,7523.189,254.642,7528.289Zm.024-10.63c1.36-2.476,2.629-4.74,3.855-7.027a7.251,7.251,0,0,1,6.929-4.129c4.71.038,9.42,0,14.131,0,3.534,0,5.071-1.61,4.931-5.114q-.342-8.591-.651-17.184c-.272-7.473-.522-14.947-.8-22.42-.112-3.054-.181-6.115-.426-9.16a4.771,4.771,0,0,0-6.086-4.459q-6.792,1.4-13.581,2.82-17.76,3.7-35.516,7.423a6.324,6.324,0,0,0-5,7.41q1.7,9.754,3.471,19.493c.495,2.712,1.115,5.4,1.635,8.11.7,3.649,1.347,7.308,2.043,10.958.429,2.253,1.414,3.04,3.683,2.921q5.259-.275,10.515-.627a6.81,6.81,0,0,1,6.964,3.75c.357.651.7,1.309,1.056,1.963Z" fill="#f7ec45"/><path d="M282.131,7500.774c-.193-5.647-.374-11.295-.586-16.942q-.573-15.3-1.181-30.591c-.092-2.314-1.358-3.257-3.6-2.79-15.963,3.331-31.915,6.716-47.9,9.939-3.549.716-4.514,3.132-4,5.87q3.534,18.681,6.954,37.384c.195,1.064.6,1.418,1.724,1.324,3.374-.281,6.761-.415,10.14-.645,4.331-.3,7.382,1.593,9.36,5.376.512.981,1.045,1.95,1.635,3.048.482-.865.927-1.562,1.275-2.306,2.135-4.576,5.724-6.541,10.746-6.362,4.415.158,8.841.027,13.262.017,1.767,0,2.175-.423,2.186-2.206C282.154,7501.517,282.145,7501.146,282.131,7500.774ZM256.806,7460.6l.746,25.427-6.823.586-3.6-25.182Zm1.923,37.5a5.124,5.124,0,0,1-3.478,1.486,5.279,5.279,0,0,1-3.733-.841,4.856,4.856,0,0,1-.591-6.537,5.4,5.4,0,0,1,3.568-1.428,5.226,5.226,0,0,1,3.691.831,4.769,4.769,0,0,1,.543,6.489Z" fill="#f7ec45"/></g></svg>