<svg xmlns="http://www.w3.org/2000/svg" width="61.98" height="57" viewBox="0 0 61.98 57">
  <g id="Grupo_15507" data-name="Grupo 15507" transform="translate(-2.7 -6.5)">
    <path id="Trazado_31210" data-name="Trazado 31210" d="M64.679,13.379A6.879,6.879,0,0,0,57.8,6.5H18.293a6.552,6.552,0,0,0-6.552,6.486l-.262,35.641H2.7v6.093A8.714,8.714,0,0,0,11.086,63.5H44.893a8.714,8.714,0,0,0,8.714-8.714h0V23.4H64.679Zm-53.266,47.5a6.093,6.093,0,0,1-6.093-6.093h0V51.248H36.114v3.472a8.712,8.712,0,0,0,2.49,6.093Zm39.572-47.5V54.786a6.126,6.126,0,1,1-12.252,0h0V48.628H14.1l.262-35.641a3.931,3.931,0,0,1,3.931-3.866H52.427A6.813,6.813,0,0,0,50.986,13.379Zm11.072,7.4H53.607v-7.4a4.259,4.259,0,1,1,8.452,0Z" transform="translate(0)" fill="#1a64a1"/>
    <rect id="Rectángulo_3730" data-name="Rectángulo 3730" width="12.776" height="2.621" transform="translate(19.865 17.441)" fill="#8eb761"/>
    <rect id="Rectángulo_3731" data-name="Rectángulo 3731" width="24.569" height="2.621" transform="translate(19.865 25.303)" fill="#8eb761"/>
    <rect id="Rectángulo_3732" data-name="Rectángulo 3732" width="24.569" height="2.621" transform="translate(19.865 33.166)" fill="#8eb761"/>
    <rect id="Rectángulo_3733" data-name="Rectángulo 3733" width="24.569" height="2.621" transform="translate(19.865 41.028)" fill="#8eb761"/>
  </g>
</svg>
