<svg xmlns="http://www.w3.org/2000/svg" width="192.708" height="258.246" viewBox="0 0 192.708 258.246">
  <g id="Grupo_31128" data-name="Grupo 31128" transform="translate(-307.478 -251.594)">
    <g id="Grupo_31108" data-name="Grupo 31108" transform="translate(401.606 304.547)">
      <path id="Trazado_65202" data-name="Trazado 65202" d="M323.492,258.206s.16.3.448.873a21.555,21.555,0,0,1,1.049,3.107,84.37,84.37,0,0,1,1.994,13.735c.993,11.8,1.145,27.862,3.075,42.374.464,3.62,1.161,6.968,1.594,11.268a100.4,100.4,0,0,1,.545,12.3c-.12,8.153-1.258,15.08-1.7,20.31a30.672,30.672,0,0,0,.673,11.132,28.006,28.006,0,0,0,1.185,3.58l-1.826,4.9-.425-1.137a36.523,36.523,0,0,1-1.121-3.548,40.412,40.412,0,0,1-1.153-6.9,55.764,55.764,0,0,1,.1-9.442c.544-6.359,1.618-12.413,1.762-19.229a85.948,85.948,0,0,0-.376-10.4c-.28-3.308-.993-7.088-1.409-11.068-1.754-15.921-1.666-32.019-2.17-43.639a112.642,112.642,0,0,0-1.137-13.679,33.92,33.92,0,0,0-.761-3.436Z" transform="translate(-289.369 -258.206)" fill="#668c25"/>
      <path id="Trazado_65203" data-name="Trazado 65203" d="M323.985,294.887a18.692,18.692,0,0,1,15.337,2.291s-3.484-6.479-.3-7.921,6.431,2.018,6.431,2.018-4.125-6.135.689-7.616c4.8-1.5,6.839-.264,6.839-.264s-3.676-5.822.905-7.744c0,0-1.57-3.668,4.469-7.464,0,0-6.287,4.341-10.107,1.057,0,0-2.715,4.885-6.239,2.667,0,0-4.268,6.815-8.874,2.314,0,0-1.105,10.171-5.774,7.344C327.365,281.568,329.663,288.136,323.985,294.887Z" transform="translate(-285.914 -188.259)" fill="#668c25"/>
      <path id="Trazado_65204" data-name="Trazado 65204" d="M324.186,290.765a39.707,39.707,0,0,1,3.3-4.445,81.675,81.675,0,0,1,8.674-8.569,77.756,77.756,0,0,1,10.163-6.727,41.742,41.742,0,0,1,5.029-2.331s-1.882,1.161-4.693,2.9a76.664,76.664,0,0,0-9.73,7.1,83.505,83.505,0,0,0-8.954,8.065C325.644,289.1,324.186,290.765,324.186,290.765Z" transform="translate(-284.505 -184.706)" fill="#9aad31"/>
      <path id="Trazado_65205" data-name="Trazado 65205" d="M325.316,293.3a14.83,14.83,0,0,1,12.061-2.411s-4.341-3.892-2.354-5.838c2-1.938,5.342-.216,5.342-.216s-4.725-3.476-1.537-5.878,5.037-2.034,5.037-2.034-4.309-3.356-1.41-6.015c0,0-2.154-2.33,1.322-6.783,0,0-3.516,4.933-7.256,3.508,0,0-.713,4.373-3.932,3.668,0,0-1.354,6.239-6.007,4.116,0,0,1.914,7.888-2.33,7.04C324.251,282.454,327.735,286.73,325.316,293.3Z" transform="translate(-284.05 -216.743)" fill="#668c25"/>
      <path id="Trazado_65206" data-name="Trazado 65206" d="M324.514,288.482a31.594,31.594,0,0,1,1.273-4.213,65.412,65.412,0,0,1,4.164-8.729,60.74,60.74,0,0,1,5.782-7.752,31.1,31.1,0,0,1,3.115-3.1s-1.089,1.377-2.723,3.428a63.234,63.234,0,0,0-5.35,7.921,66.223,66.223,0,0,0-4.517,8.441C325.155,286.84,324.514,288.482,324.514,288.482Z" transform="translate(-282.206 -212.776)" fill="#9aad31"/>
      <g id="Grupo_31103" data-name="Grupo 31103" transform="translate(33.022 6.01)">
        <path id="Trazado_65207" data-name="Trazado 65207" d="M332.186,260.793a5.558,5.558,0,0,0-.833.064,5.623,5.623,0,0,0-1.89.737,8.37,8.37,0,0,0-3.628,5.021,12.688,12.688,0,0,0,.216,6.311,12.964,12.964,0,0,0,.689,2.01c.184.489.3.761.3.761l-2.066.833s-.1-.312-.272-.857a17.1,17.1,0,0,1-.6-2.291,14.311,14.311,0,0,1,.288-7.2,9.662,9.662,0,0,1,4.589-5.486,5.815,5.815,0,0,1,3.211-.7Z" transform="translate(-320.434 -251.771)" fill="#668c25"/>
        <g id="Grupo_31099" data-name="Grupo 31099" transform="translate(8.444 5.731)">
          <path id="Trazado_65208" data-name="Trazado 65208" d="M330.1,275.5a8.094,8.094,0,1,0-5.326-10.139A8.088,8.088,0,0,0,330.1,275.5Z" transform="translate(-324.409 -259.672)" fill="#e85b38"/>
          <path id="Trazado_65209" data-name="Trazado 65209" d="M324.421,268.262a7.043,7.043,0,0,0,3.876,3.091,7.059,7.059,0,0,0,7.28-11.6,8.076,8.076,0,1,1-11.156,8.505Z" transform="translate(-324.325 -259.076)" fill="#d14d2c"/>
          <path id="Trazado_65210" data-name="Trazado 65210" d="M324.732,265.492c.617.721,2.523.1,4.253-1.385s2.659-3.276,2.042-3.989-2.515-.088-4.253,1.385C325.036,262.993,324.123,264.771,324.732,265.492Z" transform="translate(-323.466 -258.612)" fill="#f5795b"/>
        </g>
        <path id="Trazado_65211" data-name="Trazado 65211" d="M325.939,268.367s-.016-.257.008-.777a7.649,7.649,0,0,1,.593-2.25,11.205,11.205,0,0,1,4.1-4.99,8.778,8.778,0,0,1,3.267-1.241,8.517,8.517,0,0,1,3.027.192,12.166,12.166,0,0,1,2.675,1.113l-.392.7a12.336,12.336,0,0,0-2.49-.881,6.6,6.6,0,0,0-5.366,1.177,9.833,9.833,0,0,0-3.316,4.5,6.431,6.431,0,0,0-.376,1.65c0,.44.024.737.024.737Z" transform="translate(-305.274 -258.279)" fill="#668c25"/>
        <g id="Grupo_31100" data-name="Grupo 31100" transform="translate(29.23)">
          <path id="Trazado_65212" data-name="Trazado 65212" d="M331.478,274.3a8.1,8.1,0,1,0-3.62-10.868A8.105,8.105,0,0,0,331.478,274.3Z" transform="translate(-327.004 -258.956)" fill="#e85b38"/>
          <path id="Trazado_65213" data-name="Trazado 65213" d="M327.01,265.716a7.031,7.031,0,0,0,3.324,3.676,7.14,7.14,0,0,0,9.578-3.2,7.041,7.041,0,0,0-.536-7.072,8.076,8.076,0,1,1-12.365,6.6Z" transform="translate(-326.982 -257.831)" fill="#d14d2c"/>
          <path id="Trazado_65214" data-name="Trazado 65214" d="M327.291,263.829c.5.809,2.475.5,4.429-.689s3.147-2.8,2.659-3.6-2.467-.489-4.429.689S326.81,263.028,327.291,263.829Z" transform="translate(-325.748 -258.033)" fill="#f5795b"/>
        </g>
        <path id="Trazado_65215" data-name="Trazado 65215" d="M323.958,294.458a7.74,7.74,0,0,0,.16-1.354c-.016-.465-.793-1.986-.737-2.955a15.286,15.286,0,0,1,.569-5.59A38.293,38.293,0,0,1,335.2,266.292a28.843,28.843,0,0,1,4.845-3.372,26.465,26.465,0,0,1,5.254-2.138,19.673,19.673,0,0,1,5.31-.777,18.459,18.459,0,0,1,4.749.577,20.027,20.027,0,0,1,6.463,2.915,15.687,15.687,0,0,1,2.114,1.714l-.657.657a13.419,13.419,0,0,0-2.026-1.522,18.707,18.707,0,0,0-6.175-2.587,18.025,18.025,0,0,0-9.306.448A21.809,21.809,0,0,0,340.9,264.4a27.063,27.063,0,0,0-4.365,3.355c-5.382,5.142-9.41,12.189-10.572,17.523a30.577,30.577,0,0,0-.5,7.384c-.032.7.777.48.809.905l.072.681Z" transform="translate(-323.355 -251.607)" fill="#668c25"/>
        <path id="Trazado_65216" data-name="Trazado 65216" d="M324.978,266.9a9.825,9.825,0,0,1,1.233-2.947,8.619,8.619,0,0,1,5.662-4.06,4.549,4.549,0,0,1,1.041-.056,3.562,3.562,0,0,1,1.041.192,5.534,5.534,0,0,1,1.7.985,11.364,11.364,0,0,1,2.122,2.411,17.482,17.482,0,0,1,1.514,2.667l-1.105.513a17.817,17.817,0,0,0-1.474-2.435,10.025,10.025,0,0,0-1.93-2.058,4.24,4.24,0,0,0-1.249-.7,2.437,2.437,0,0,0-.689-.1,3.1,3.1,0,0,0-.713.072,7.033,7.033,0,0,0-4.469,3.459,8.139,8.139,0,0,0-.953,2.507Z" transform="translate(-311.977 -252.868)" fill="#668c25"/>
        <g id="Grupo_31101" data-name="Grupo 31101" transform="translate(20.139 11.23)">
          <path id="Trazado_65217" data-name="Trazado 65217" d="M330.288,276.019a8.312,8.312,0,1,0-3.452-11.236A8.312,8.312,0,0,0,330.288,276.019Z" transform="translate(-325.869 -260.358)" fill="#e85b38"/>
          <path id="Trazado_65218" data-name="Trazado 65218" d="M325.882,267.008a7.232,7.232,0,0,0,3.332,3.852,7.343,7.343,0,0,0,9.915-3.051,7.236,7.236,0,0,0-.376-7.272,8.293,8.293,0,1,1-12.87,6.471Z" transform="translate(-325.852 -259.108)" fill="#d14d2c"/>
          <path id="Trazado_65219" data-name="Trazado 65219" d="M326.313,265.933c.577.777,2.579.256,4.453-1.153s2.931-3.179,2.354-3.948-2.579-.256-4.453,1.145C326.786,263.395,325.737,265.164,326.313,265.933Z" transform="translate(-323.865 -259.571)" fill="#f5795b"/>
        </g>
        <g id="Grupo_31102" data-name="Grupo 31102" transform="translate(35.464 12.53)">
          <path id="Trazado_65220" data-name="Trazado 65220" d="M331.693,275.882a8.311,8.311,0,1,0-2.643-11.46A8.314,8.314,0,0,0,331.693,275.882Z" transform="translate(-327.783 -260.521)" fill="#e85b38"/>
          <path id="Trazado_65221" data-name="Trazado 65221" d="M327.849,266.276a7.225,7.225,0,0,0,3.035,4.084,7.32,7.32,0,0,0,10.107-2.331,7.24,7.24,0,0,0,.152-7.288,8.293,8.293,0,1,1-13.294,5.534Z" transform="translate(-327.759 -258.972)" fill="#d14d2c"/>
          <path id="Trazado_65222" data-name="Trazado 65222" d="M328.078,264.934c.425.873,2.483.745,4.6-.272s3.484-2.555,3.067-3.428-2.475-.753-4.589.272S327.662,264.061,328.078,264.934Z" transform="translate(-326.234 -259.608)" fill="#f5795b"/>
        </g>
        <path id="Trazado_65223" data-name="Trazado 65223" d="M328.236,261.291a11.094,11.094,0,0,1-1.986,2.042,3.123,3.123,0,0,0,1.858-1.081,2.486,2.486,0,0,1-.977,1.722s1.722-.513,1.674-1.578c0,0,.713.665,2.162-.208a3.475,3.475,0,0,1-1.313-.545,3.588,3.588,0,0,0,1.922-1.345,4.028,4.028,0,0,1-2.25.521Z" transform="translate(-303.062 -249.553)" fill="#668c25"/>
        <path id="Trazado_65224" data-name="Trazado 65224" d="M329.548,261.936a7.705,7.705,0,0,1-1.466,2.13,2.458,2.458,0,0,0,1.594-1.185,2.019,2.019,0,0,1-.521,1.762s1.594-.625,1.273-1.666a2.376,2.376,0,0,0,2.123-.633,2.48,2.48,0,0,1-1.466-.168,2.2,2.2,0,0,0,1.161-1.69,2.331,2.331,0,0,1-1.906.9Z" transform="translate(-290.222 -248.236)" fill="#668c25"/>
        <path id="Trazado_65225" data-name="Trazado 65225" d="M328.616,260.48a8.02,8.02,0,0,1-1.473,2.13,2.482,2.482,0,0,0,1.6-1.185,2.02,2.02,0,0,1-.537,1.762s1.61-.625,1.273-1.666a2.391,2.391,0,0,0,2.13-.633,2.483,2.483,0,0,1-1.465-.168,2.2,2.2,0,0,0,1.161-1.69,2.352,2.352,0,0,1-1.906.905Z" transform="translate(-296.803 -258.433)" fill="#668c25"/>
        <path id="Trazado_65226" data-name="Trazado 65226" d="M324.973,262.234a7.973,7.973,0,0,1-.448,2.555,2.46,2.46,0,0,0,.953-1.746,2.024,2.024,0,0,1,.256,1.818s1.2-1.233.465-2.042c0,0,.945-.08,1.674-1.449a2.55,2.55,0,0,1-1.41.448,2.2,2.2,0,0,0,.361-2.018,2.347,2.347,0,0,1-1.362,1.61Z" transform="translate(-315.151 -253.051)" fill="#668c25"/>
        <path id="Trazado_65227" data-name="Trazado 65227" d="M329.9,260.648a4.756,4.756,0,0,1-1.866.649,4.031,4.031,0,0,0,2.387-.176C331.145,260.608,329.9,260.648,329.9,260.648Z" transform="translate(-290.586 -247.108)" fill="#668c25"/>
        <path id="Trazado_65228" data-name="Trazado 65228" d="M324.883,260.587a2.262,2.262,0,0,1-.417,1,3.1,3.1,0,0,0,1.153-.961c.328-.545-.2-.561-.2-.561Z" transform="translate(-315.565 -251.179)" fill="#668c25"/>
        <path id="Trazado_65229" data-name="Trazado 65229" d="M324.6,260.9c.321-.1.641-1.017.641-1.017s.489.905.168,1.065A1.171,1.171,0,0,1,324.6,260.9Z" transform="translate(-314.612 -252.441)" fill="#668c25"/>
        <path id="Trazado_65230" data-name="Trazado 65230" d="M327.381,259.917s.761-.368.937-.921c0,0,.617.817.184,1.177a.8.8,0,0,1-.873.136Z" transform="translate(-295.135 -258.679)" fill="#668c25"/>
      </g>
      <g id="Grupo_31107" data-name="Grupo 31107" transform="translate(0 71.897)">
        <path id="Trazado_65231" data-name="Trazado 65231" d="M335.477,275.923s-.008-.264-.072-.785a7.219,7.219,0,0,0-.745-2.2,11.2,11.2,0,0,0-4.429-4.7,8.562,8.562,0,0,0-3.348-1.009,8.215,8.215,0,0,0-3,.393,12.5,12.5,0,0,0-2.6,1.289l.448.689a10.957,10.957,0,0,1,2.427-1.057,7.245,7.245,0,0,1,2.619-.208,7.415,7.415,0,0,1,2.8,1.017,9.742,9.742,0,0,1,3.62,4.269,6.1,6.1,0,0,1,.481,1.61,7.191,7.191,0,0,1,.032.745Z" transform="translate(-304.83 -266.964)" fill="#668c25"/>
        <g id="Grupo_31104" data-name="Grupo 31104" transform="translate(5.787)">
          <path id="Trazado_65232" data-name="Trazado 65232" d="M332.152,282.26a8.1,8.1,0,1,1,2.875-11.084A8.1,8.1,0,0,1,332.152,282.26Z" transform="translate(-319.954 -267.183)" fill="#e85b38"/>
          <path id="Trazado_65233" data-name="Trazado 65233" d="M336.085,273.117a7.056,7.056,0,0,1-3.067,3.892,7.13,7.13,0,0,1-9.779-2.531,7.046,7.046,0,0,1,.048-7.1,8.074,8.074,0,1,0,12.8,5.734Z" transform="translate(-319.947 -265.785)" fill="#d14d2c"/>
          <path id="Trazado_65234" data-name="Trazado 65234" d="M328.276,271.64c-.432.841-2.435.665-4.469-.384s-3.324-2.579-2.891-3.412,2.427-.665,4.453.384S328.7,270.807,328.276,271.64Z" transform="translate(-313.795 -266.285)" fill="#f5795b"/>
        </g>
        <path id="Trazado_65235" data-name="Trazado 65235" d="M322.6,272.417a20.019,20.019,0,0,1,6.254-3.348,18.568,18.568,0,0,1,4.693-.9,19.841,19.841,0,0,1,5.342.408,26.414,26.414,0,0,1,5.4,1.778,29.006,29.006,0,0,1,5.053,3.027,31.538,31.538,0,0,1,2.755,2.37c-.32.673-.641,1.354-.953,2.034a39.1,39.1,0,0,0-3.027-2.851,26.881,26.881,0,0,0-4.573-3.043,21.581,21.581,0,0,0-5.021-1.858,18,18,0,0,0-9.314.184,18.9,18.9,0,0,0-5.99,3,13.7,13.7,0,0,0-1.906,1.658l-.7-.609A16.39,16.39,0,0,1,322.6,272.417Z" transform="translate(-309.596 -260.455)" fill="#668c25"/>
        <path id="Trazado_65236" data-name="Trazado 65236" d="M336.584,274.457a10.044,10.044,0,0,0-1.434-2.859,8.548,8.548,0,0,0-5.926-3.66,4.586,4.586,0,0,0-1.049.008,3.7,3.7,0,0,0-1.025.264,5.473,5.473,0,0,0-1.626,1.1,11.56,11.56,0,0,0-1.946,2.555,16.624,16.624,0,0,0-1.322,2.763l1.129.425a16.675,16.675,0,0,1,1.305-2.515,10.245,10.245,0,0,1,1.778-2.195,4.334,4.334,0,0,1,1.2-.777,1.9,1.9,0,0,1,.681-.152,3.112,3.112,0,0,1,.721.008,7.021,7.021,0,0,1,4.685,3.147,8.143,8.143,0,0,1,1.129,2.451Z" transform="translate(-298.025 -262.087)" fill="#668c25"/>
        <g id="Grupo_31105" data-name="Grupo 31105" transform="translate(15.201 10.6)">
          <path id="Trazado_65237" data-name="Trazado 65237" d="M333.828,283.884a8.312,8.312,0,1,1,2.675-11.452A8.318,8.318,0,0,1,333.828,283.884Z" transform="translate(-321.129 -268.507)" fill="#e85b38"/>
          <path id="Trazado_65238" data-name="Trazado 65238" d="M337.669,274.308a7.257,7.257,0,0,1-3.052,4.068,7.339,7.339,0,0,1-10.107-2.363,7.217,7.217,0,0,1-.12-7.288,8.293,8.293,0,1,0,13.279,5.582Z" transform="translate(-321.119 -266.972)" fill="#d14d2c"/>
          <path id="Trazado_65239" data-name="Trazado 65239" d="M329.242,273.676c-.528.817-2.555.44-4.525-.841s-3.139-2.971-2.619-3.788c.537-.809,2.555-.433,4.525.849S329.762,272.867,329.242,273.676Z" transform="translate(-315.206 -267.709)" fill="#f5795b"/>
        </g>
        <g id="Grupo_31106" data-name="Grupo 31106" transform="translate(0 12.942)">
          <path id="Trazado_65240" data-name="Trazado 65240" d="M332.427,283.845a8.318,8.318,0,1,1,1.85-11.6A8.322,8.322,0,0,1,332.427,283.845Z" transform="translate(-319.231 -268.799)" fill="#e85b38"/>
          <path id="Trazado_65241" data-name="Trazado 65241" d="M335.677,273.679a7.231,7.231,0,0,1-2.755,4.277,7.331,7.331,0,0,1-10.243-1.634,7.224,7.224,0,0,1-.641-7.256,8.292,8.292,0,1,0,13.639,4.613Z" transform="translate(-319.222 -266.93)" fill="#d14d2c"/>
          <path id="Trazado_65242" data-name="Trazado 65242" d="M328,272.78c-.352.9-2.411.913-4.589.04s-3.66-2.306-3.3-3.2,2.418-.921,4.6-.04C326.887,270.441,328.36,271.883,328,272.78Z" transform="translate(-313.443 -267.889)" fill="#f5795b"/>
        </g>
        <path id="Trazado_65243" data-name="Trazado 65243" d="M325.489,269.218a10.833,10.833,0,0,0,2.122,1.9,3.1,3.1,0,0,1-1.93-.953,2.484,2.484,0,0,0,1.089,1.658s-1.754-.4-1.778-1.466c0,0-.673.713-2.17-.048a3.449,3.449,0,0,0,1.273-.649,3.6,3.6,0,0,1-2.01-1.209,4.066,4.066,0,0,0,2.282.376Z" transform="translate(-299.231 -258.313)" fill="#668c25"/>
        <path id="Trazado_65244" data-name="Trazado 65244" d="M323.356,270.009a7.87,7.87,0,0,0,1.61,2.026,2.488,2.488,0,0,1-1.674-1.065,2.012,2.012,0,0,0,.649,1.722s-1.642-.512-1.385-1.578a2.4,2.4,0,0,1-2.162-.48,2.577,2.577,0,0,0,1.45-.272,2.216,2.216,0,0,1-1.273-1.61,2.344,2.344,0,0,0,1.962.769Z" transform="translate(-311.089 -256.189)" fill="#668c25"/>
        <path id="Trazado_65245" data-name="Trazado 65245" d="M324.194,268.494a7.847,7.847,0,0,0,1.61,2.026,2.5,2.5,0,0,1-1.682-1.073,2.049,2.049,0,0,0,.657,1.722s-1.642-.512-1.386-1.578a2.37,2.37,0,0,1-2.162-.48,2.5,2.5,0,0,0,1.449-.272,2.232,2.232,0,0,1-1.281-1.6,2.373,2.373,0,0,0,1.97.761Z" transform="translate(-305.216 -266.808)" fill="#668c25"/>
        <path id="Trazado_65246" data-name="Trazado 65246" d="M321.4,268.889a4.585,4.585,0,0,0,1.906.521,3.971,3.971,0,0,1-2.387-.008C320.154,268.937,321.4,268.889,321.4,268.889Z" transform="translate(-309.128 -255.229)" fill="#668c25"/>
        <path id="Trazado_65247" data-name="Trazado 65247" d="M322.662,268.048a2,2,0,0,1-.993-.857s-.568.857-.112,1.185a.817.817,0,0,0,.873.08Z" transform="translate(-304.173 -267.13)" fill="#668c25"/>
      </g>
      <path id="Trazado_65248" data-name="Trazado 65248" d="M345.942,286.741a15.409,15.409,0,0,0-12.781.28s3.524-4.941,1.057-6.455-5.47.985-5.47.985,4.02-4.589.24-6.311-5.574-.937-5.574-.937,3.62-4.373.072-6.423c0,0,1.666-2.843-2.875-6.583,0,0,4.693,4.213,8.161,1.93,0,0,1.714,4.277,4.821,2.835,0,0,2.779,6.023,7.032,2.819,0,0-.168,8.441,3.948,6.615C344.573,275.5,342,280.63,345.942,286.741Z" transform="translate(-309.561 -236.542)" fill="#668c25"/>
      <path id="Trazado_65249" data-name="Trazado 65249" d="M341.048,282.7a32.858,32.858,0,0,0-2.227-3.989,68.883,68.883,0,0,0-6.207-7.92A63.673,63.673,0,0,0,325,264.219a35.081,35.081,0,0,0-3.868-2.435s1.41,1.145,3.54,2.867a64.088,64.088,0,0,1,7.216,6.831,68.3,68.3,0,0,1,6.487,7.544C340.03,281.182,341.048,282.7,341.048,282.7Z" transform="translate(-305.924 -233.122)" fill="#9aad31"/>
    </g>
    <path id="Trazado_65250" data-name="Trazado 65250" d="M310.462,289.183c14.063-1.217,32.819-10.892,47.531-9.074s20.6,4.084,34.573-.224,20.6-7.952,32.371-6.135,32.178,8.321,36.872,11.877v58.2h-149Z" transform="translate(20.914 151.928)" fill="#553b1c"/>
    <path id="Trazado_65251" data-name="Trazado 65251" d="M310.6,307.25l1.2,28.158h149V277.218a27.51,27.51,0,0,0-5.253-2.747c-3.115,6.831-26.685,38.329-53.57,32.115C375.379,300.427,346.74,328.8,310.6,307.25Z" transform="translate(21.916 160.337)" fill="#4a3112"/>
    <g id="Grupo_31126" data-name="Grupo 31126" transform="translate(307.478 251.594)">
      <path id="Trazado_65252" data-name="Trazado 65252" d="M331.181,263.579a7.576,7.576,0,0,0-1-.1,7.135,7.135,0,0,0-2.395.521,10.179,10.179,0,0,0-5.27,5.294,15.194,15.194,0,0,0-.945,7.544,17.619,17.619,0,0,0,.432,2.531c.136.608.216.953.216.953l-2.627.6s-.056-.385-.16-1.073a19.469,19.469,0,0,1-.272-2.843,17.365,17.365,0,0,1,1.714-8.521,11.634,11.634,0,0,1,6.5-5.646,7.123,7.123,0,0,1,3.956-.216Z" transform="translate(-225.739 -175.524)" fill="#9aad31"/>
      <g id="Grupo_31109" data-name="Grupo 31109" transform="translate(100.47 84.922)">
        <path id="Trazado_65253" data-name="Trazado 65253" d="M325.436,280.691a9.756,9.756,0,1,0-4.389-13.07A9.762,9.762,0,0,0,325.436,280.691Z" transform="translate(-320.023 -262.198)" fill="#e85b38"/>
        <path id="Trazado_65254" data-name="Trazado 65254" d="M320.03,270.374a8.484,8.484,0,0,0,4.02,4.429,8.605,8.605,0,0,0,11.532-3.892,8.485,8.485,0,0,0-.657-8.521,9.732,9.732,0,1,1-14.9,7.984Z" transform="translate(-319.999 -260.85)" fill="#d14d2c"/>
        <path id="Trazado_65255" data-name="Trazado 65255" d="M320.372,268.092c.593.969,2.979.593,5.334-.841s3.78-3.387,3.2-4.356-2.987-.593-5.334.849S319.779,267.123,320.372,268.092Z" transform="translate(-318.515 -261.083)" fill="#f5795b"/>
      </g>
      <path id="Trazado_65256" data-name="Trazado 65256" d="M321.943,271.271s.032-.3.16-.929a9.414,9.414,0,0,1,1.137-2.571,13.523,13.523,0,0,1,5.83-5.149,10.455,10.455,0,0,1,4.132-.849,10.246,10.246,0,0,1,3.556.8,14.653,14.653,0,0,1,2.971,1.834l-.609.769a14.169,14.169,0,0,0-2.795-1.522,8.709,8.709,0,0,0-3.124-.536,8.83,8.83,0,0,0-3.476.913,11.761,11.761,0,0,0-4.805,4.725,8.188,8.188,0,0,0-.769,1.89c-.08.521-.1.881-.1.881Z" transform="translate(-206.098 -180.253)" fill="#9aad31"/>
      <g id="Grupo_31110" data-name="Grupo 31110" transform="translate(126.294 82.062)">
        <path id="Trazado_65257" data-name="Trazado 65257" d="M327.319,279.527a9.757,9.757,0,1,0-2.242-13.615A9.761,9.761,0,0,0,327.319,279.527Z" transform="translate(-323.248 -261.841)" fill="#e85b38"/>
        <path id="Trazado_65258" data-name="Trazado 65258" d="M323.414,267.644A8.505,8.505,0,1,0,339.4,262.15a9.73,9.73,0,1,1-15.985,5.494Z" transform="translate(-323.227 -259.672)" fill="#d14d2c"/>
        <path id="Trazado_65259" data-name="Trazado 65259" d="M323.6,266.549c.433,1.049,2.843,1.057,5.406.024s4.277-2.739,3.852-3.788-2.851-1.057-5.406-.016S323.179,265.5,323.6,266.549Z" transform="translate(-321.206 -260.771)" fill="#f5795b"/>
      </g>
      <path id="Trazado_65260" data-name="Trazado 65260" d="M313.286,261.468a3.2,3.2,0,0,0,1.866.376,3.222,3.222,0,0,1-1.986.521c-.913-.192-.36-1.137-.36-1.137Z" transform="translate(-271.297 -184.072)" fill="#9aad31"/>
      <path id="Trazado_65261" data-name="Trazado 65261" d="M315.451,261.487a8.309,8.309,0,0,1,2.843.417A7.391,7.391,0,0,1,323,266.044a12.983,12.983,0,0,1,.793,6.207c-.192,1.666-.409,2.763-.409,2.763l-1.834-.433s.248-1.009.5-2.531a11.284,11.284,0,0,0-.408-5.43,6.067,6.067,0,0,0-3.732-3.58,7.32,7.32,0,0,0-2.443-.48Z" transform="translate(-251.598 -182.305)" fill="#9aad31"/>
      <g id="Grupo_31111" data-name="Grupo 31111" transform="translate(50.518 76.158)">
        <path id="Trazado_65262" data-name="Trazado 65262" d="M330.677,272.665a8.686,8.686,0,1,1-5.342-11.076A8.692,8.692,0,0,1,330.677,272.665Z" transform="translate(-313.786 -261.103)" fill="#e85b38"/>
        <path id="Trazado_65263" data-name="Trazado 65263" d="M328.483,261.415a7.51,7.51,0,0,1,.192,5.31,7.669,7.669,0,0,1-9.762,4.717,7.55,7.55,0,0,1-4.877-5.846,8.663,8.663,0,1,0,14.448-4.181Z" transform="translate(-313.746 -258.919)" fill="#d14d2c"/>
        <path id="Trazado_65264" data-name="Trazado 65264" d="M322.879,262.274c.224.977-1.53,2.227-3.924,2.771s-4.509.2-4.733-.785,1.529-2.219,3.916-2.771S322.647,261.281,322.879,262.274Z" transform="translate(-310.873 -260.243)" fill="#f5795b"/>
      </g>
      <path id="Trazado_65265" data-name="Trazado 65265" d="M312.313,264.063s.224-.208.609-.585a10.536,10.536,0,0,1,1.962-1.37,8.671,8.671,0,0,1,7.1-.5,13.552,13.552,0,0,1,5.59,4.453,30.1,30.1,0,0,1,1.858,2.675l-1.914.961-.328-.745a10.339,10.339,0,0,0-1.017-1.9,10.052,10.052,0,0,0-4.661-4.229,7.405,7.405,0,0,0-6.119.264,7.753,7.753,0,0,0-2.394,1.706Z" transform="translate(-273.591 -185.242)" fill="#9aad31"/>
      <g id="Grupo_31112" data-name="Grupo 31112" transform="translate(25.909 76.072)">
        <path id="Trazado_65266" data-name="Trazado 65266" d="M329.165,275.1a9.721,9.721,0,1,1-4.445-13.014A9.719,9.719,0,0,1,329.165,275.1Z" transform="translate(-310.713 -261.093)" fill="#e85b38"/>
        <path id="Trazado_65267" data-name="Trazado 65267" d="M327.956,261.548a8.459,8.459,0,0,1-.5,5.934,8.578,8.578,0,0,1-11.477,3.916,8.45,8.45,0,0,1-4.645-7.144,9.7,9.7,0,1,0,16.626-2.707Z" transform="translate(-310.674 -257.902)" fill="#d14d2c"/>
        <path id="Trazado_65268" data-name="Trazado 65268" d="M321.152,262.821c.12,1.121-1.994,2.267-4.725,2.555s-5.037-.384-5.157-1.505,1.986-2.275,4.725-2.563S321.032,261.692,321.152,262.821Z" transform="translate(-306.849 -260.056)" fill="#f5795b"/>
      </g>
      <path id="Trazado_65269" data-name="Trazado 65269" d="M309.352,266.358a8.012,8.012,0,0,1,1.642-2.243,7.452,7.452,0,0,1,5.742-2.13,11.75,11.75,0,0,1,5.7,2.315c1.354.985,2.195,1.73,2.195,1.73l-1.578,1.466a12.728,12.728,0,0,0-1.682-1.858,8.393,8.393,0,0,0-4.749-2.346,6.206,6.206,0,0,0-4.885,1.626,6.628,6.628,0,0,0-1.538,1.946Z" transform="translate(-294.344 -178.999)" fill="#9aad31"/>
      <g id="Grupo_31113" data-name="Grupo 31113" transform="translate(2.514 85.796)">
        <path id="Trazado_65270" data-name="Trazado 65270" d="M328.951,274.3a10.623,10.623,0,1,1-9.17-11.9A10.639,10.639,0,0,1,328.951,274.3Z" transform="translate(-307.792 -262.307)" fill="#e85b38"/>
        <path id="Trazado_65271" data-name="Trazado 65271" d="M324.046,262.517a9.227,9.227,0,0,1,1.562,6.311,9.374,9.374,0,0,1-10.491,8.089,9.209,9.209,0,0,1-7.312-5.766,10.593,10.593,0,1,0,16.242-8.633Z" transform="translate(-307.739 -260.834)" fill="#d14d2c"/>
        <path id="Trazado_65272" data-name="Trazado 65272" d="M318.111,263.209c.521,1.121-1.273,3.051-3.988,4.309s-5.358,1.377-5.87.256,1.265-3.059,3.988-4.309C314.964,262.2,317.591,262.088,318.111,263.209Z" transform="translate(-305.193 -261.398)" fill="#f5795b"/>
      </g>
      <path id="Trazado_65273" data-name="Trazado 65273" d="M322.143,417.083l.761-1.754c.48-1.161,1.153-2.9,1.954-5.15.777-2.258,1.634-5.037,2.507-8.249.841-3.236,1.65-6.911,2.346-10.956A121.939,121.939,0,0,0,331.08,377.8a101.543,101.543,0,0,0-.433-14.768,85.038,85.038,0,0,0-3.027-15.489c-1.345-5.3-3.708-10.019-5.782-15.417a54.37,54.37,0,0,1-2.819-7.984l-1.177-4.125c-.288-1.385-.489-2.779-.737-4.165a67,67,0,0,1-.825-16.37c.152-2.667.673-5.238.993-7.777.649-2.475,1.089-4.949,1.874-7.256a63.681,63.681,0,0,1,5.4-12.55,52.236,52.236,0,0,1,6.575-9.466,42.568,42.568,0,0,1,6.439-6.111,21.3,21.3,0,0,1,4.9-2.907c1.209-.489,1.866-.761,1.866-.761l.024.08-1.8.881a23.282,23.282,0,0,0-4.645,3.147,43,43,0,0,0-6.046,6.287,58.6,58.6,0,0,0-6.078,9.514,62.118,62.118,0,0,0-4.9,12.4c-.7,2.266-1.049,4.685-1.61,7.1-.232,2.475-.665,4.981-.729,7.552a63.6,63.6,0,0,0,1.273,15.753l.817,3.964,1.225,3.852a52.247,52.247,0,0,0,2.979,7.688c2.074,4.973,4.805,10.259,6.295,15.617a88.405,88.405,0,0,1,3.524,16.082,103.7,103.7,0,0,1,.825,15.368,126.867,126.867,0,0,1-1.105,13.751c-.625,4.229-1.385,8.073-2.171,11.452-.833,3.38-1.666,6.295-2.418,8.673-.777,2.387-1.449,4.237-1.938,5.51-.521,1.273-2.034.184-2.547.312C322.623,418.324,322.143,417.083,322.143,417.083Z" transform="translate(-246.845 -244.144)" fill="#9aad31"/>
      <path id="Trazado_65274" data-name="Trazado 65274" d="M376.611,283.208s-.889-.969-2.442-2.675c-1.554-1.658-3.748-4.068-6.6-6.679a39.1,39.1,0,0,0-10.723-7.256c-4.293-1.946-9.442-2.531-14.592-2.346a74.789,74.789,0,0,0-7.664.753A35.034,35.034,0,0,0,327.438,267a29.1,29.1,0,0,0-10.748,7.272,22.153,22.153,0,0,0-4.861,7.7,6.7,6.7,0,0,0-.6,3.083l-2.034.208a9.327,9.327,0,0,1,.817-3.957,27.331,27.331,0,0,1,5.358-8.273,31.214,31.214,0,0,1,11.372-7.777,36.97,36.97,0,0,1,7.464-2.122,79.574,79.574,0,0,1,7.928-1.065c5.326-.392,10.932.016,15.753,1.978a42.282,42.282,0,0,1,11.8,7.352c3.115,2.563,5.958,5.814,7.664,7.416,1.65,1.6,1.706,2.018,1.706,2.018Z" transform="translate(-295.491 -179.095)" fill="#9aad31"/>
      <g id="Grupo_31114" data-name="Grupo 31114" transform="translate(0 103.512)">
        <path id="Trazado_65275" data-name="Trazado 65275" d="M329.8,275.675a11.16,11.16,0,1,1-11.164-11.156A11.163,11.163,0,0,1,329.8,275.675Z" transform="translate(-307.478 -264.519)" fill="#e85b38"/>
        <path id="Trazado_65276" data-name="Trazado 65276" d="M323.253,264.654a9.69,9.69,0,0,1,2.483,6.359,9.847,9.847,0,0,1-9.85,9.843,9.69,9.69,0,0,1-8.393-5.013,11.131,11.131,0,1,0,15.761-11.188Z" transform="translate(-307.38 -263.573)" fill="#d14d2c"/>
        <path id="Trazado_65277" data-name="Trazado 65277" d="M317.616,265.242c.689,1.1-.913,3.347-3.58,5.037s-5.382,2.146-6.079,1.049.913-3.348,3.572-5.03C314.2,264.617,316.927,264.153,317.616,265.242Z" transform="translate(-305.258 -263.576)" fill="#f5795b"/>
      </g>
      <path id="Trazado_65278" data-name="Trazado 65278" d="M310.661,273.135a16.937,16.937,0,0,1-.3-2.843,9.236,9.236,0,0,1,1.754-6.183,5.781,5.781,0,0,1,3.2-1.834,9.891,9.891,0,0,1,3.083,0,19.863,19.863,0,0,1,2.851.649l-.617,1.786a17.753,17.753,0,0,0-2.507-.7,8.448,8.448,0,0,0-2.539-.136,4.187,4.187,0,0,0-2.379,1.217c-1.313,1.377-1.618,3.644-1.658,5.2a16.112,16.112,0,0,0,.152,2.651Z" transform="translate(-287.252 -177.575)" fill="#9aad31"/>
      <path id="Trazado_65279" data-name="Trazado 65279" d="M314.36,266.406a13.16,13.16,0,0,1,1.394-2.042,8.763,8.763,0,0,1,1.9-1.794,5.1,5.1,0,0,1,1.417-.7,3.593,3.593,0,0,1,1.754-.072,3.9,3.9,0,0,1,1.554.745,5,5,0,0,1,1.113,1.1,12.373,12.373,0,0,1,1.4,2.226c.609,1.361.969,2.283.969,2.283l-1.786.592s-.3-.865-.777-2.138c-.537-1.177-1.434-2.931-2.811-3.364-1.385-.4-2.971.929-3.828,1.9a12.8,12.8,0,0,0-1.377,1.81Z" transform="translate(-259.244 -180.585)" fill="#9aad31"/>
      <path id="Trazado_65280" data-name="Trazado 65280" d="M315.866,268.532a21.844,21.844,0,0,1,1.049-1.994c.769-1.121,1.514-2.827,3.612-3.78a2.4,2.4,0,0,1,1.874.168,3.415,3.415,0,0,1,1.145,1.153,9.866,9.866,0,0,1,1.017,2.267c.361,1.337.553,2.226.553,2.226l-1.858.312s-.128-.833-.384-2.058a9.077,9.077,0,0,0-.7-1.874,1.88,1.88,0,0,0-.561-.681.848.848,0,0,0-.657-.1c-1.209.417-2.346,2-3.035,3-.7,1.073-1.1,1.834-1.1,1.834Z" transform="translate(-248.689 -174.158)" fill="#9aad31"/>
      <g id="Grupo_31115" data-name="Grupo 31115" transform="translate(19.975 91.293)">
        <path id="Trazado_65281" data-name="Trazado 65281" d="M330.817,270.719a10.622,10.622,0,1,1-13.126-7.32A10.619,10.619,0,0,1,330.817,270.719Z" transform="translate(-309.972 -262.993)" fill="#e85b38"/>
        <path id="Trazado_65282" data-name="Trazado 65282" d="M321.6,263.014a9.258,9.258,0,1,1-11.524,14.343A10.594,10.594,0,1,0,321.6,263.014Z" transform="translate(-309.279 -262.848)" fill="#d14d2c"/>
        <path id="Trazado_65283" data-name="Trazado 65283" d="M317.8,263.431c.913.825.04,3.308-1.97,5.534s-4.373,3.372-5.294,2.547-.032-3.3,1.97-5.534S316.882,262.606,317.8,263.431Z" transform="translate(-308.546 -261.807)" fill="#f5795b"/>
      </g>
      <path id="Trazado_65284" data-name="Trazado 65284" d="M312.8,265.224c-.544,1.786-2.779,3.179-2.779,3.179a2.894,2.894,0,0,0,2.947-1.5,1.624,1.624,0,0,1-.24,1.914s1.946-1.137,1.354-2.419c0,0,1.258.609,2.675-.873a5.341,5.341,0,0,1-1.954-.3,3.764,3.764,0,0,0,1.786-2.194,4.688,4.688,0,0,1-2.619,1.3Z" transform="translate(-289.676 -171.443)" fill="#9aad31"/>
      <path id="Trazado_65285" data-name="Trazado 65285" d="M313.529,263.273c.865,1.1,2.987.953,2.987.953s-1.7,1.6-2.915.272a4.711,4.711,0,0,0,1.2,1.89s-2.643-.224-2.418-1.618c0,0-1.041.921-2.819-.12a5.344,5.344,0,0,0,1.81-.809,3.8,3.8,0,0,1-2.323-1.634,6.642,6.642,0,0,0,3.46.769Z" transform="translate(-296.446 -177.204)" fill="#9aad31"/>
      <path id="Trazado_65286" data-name="Trazado 65286" d="M317.753,269.12s-2.979-1.426-3.019-2.315l-1.73-.745-.04-.064a5.814,5.814,0,0,1-2.563-1.77,3.44,3.44,0,0,0,.769,1.938,8.96,8.96,0,0,1-2.443-.544s.04,1.69,2.643,2.034a2.537,2.537,0,0,1-1.129,1.706,2.943,2.943,0,0,0,2.483-.929s.152,1.041,2.122,1.61a5.25,5.25,0,0,1-.689-1.882A6.031,6.031,0,0,0,317.753,269.12Z" transform="translate(-298.724 -163.054)" fill="#9aad31"/>
      <g id="Grupo_31116" data-name="Grupo 31116" transform="translate(41.991 84.309)">
        <path id="Trazado_65287" data-name="Trazado 65287" d="M332.156,272.178a9.72,9.72,0,1,1-9.37-10.051A9.72,9.72,0,0,1,332.156,272.178Z" transform="translate(-312.721 -262.121)" fill="#e85b38"/>
        <path id="Trazado_65288" data-name="Trazado 65288" d="M326.793,262.257a8.445,8.445,0,0,1,1.97,5.614,8.58,8.58,0,0,1-8.874,8.273,8.458,8.458,0,0,1-7.16-4.621,9.7,9.7,0,1,0,14.063-9.266Z" transform="translate(-312.66 -261.17)" fill="#d14d2c"/>
        <path id="Trazado_65289" data-name="Trazado 65289" d="M321.73,262.8c.569.977-.9,2.883-3.267,4.269s-4.757,1.714-5.326.737.889-2.891,3.268-4.269S321.161,261.823,321.73,262.8Z" transform="translate(-310.672 -261.304)" fill="#f5795b"/>
      </g>
      <g id="Grupo_31117" data-name="Grupo 31117" transform="translate(57.137 93.008)">
        <path id="Trazado_65290" data-name="Trazado 65290" d="M331.147,271.766a8.27,8.27,0,1,1-7.977-8.553A8.269,8.269,0,0,1,331.147,271.766Z" transform="translate(-314.612 -263.207)" fill="#e85b38"/>
        <path id="Trazado_65291" data-name="Trazado 65291" d="M326.585,263.323a7.19,7.19,0,0,1,1.674,4.773,7.307,7.307,0,0,1-7.552,7.04,7.193,7.193,0,0,1-6.087-3.932,8.248,8.248,0,1,0,11.965-7.881Z" transform="translate(-314.559 -262.397)" fill="#d14d2c"/>
        <path id="Trazado_65292" data-name="Trazado 65292" d="M322.279,263.785c.48.825-.761,2.459-2.779,3.628s-4.052,1.458-4.533.625.761-2.451,2.779-3.628S321.8,262.953,322.279,263.785Z" transform="translate(-312.871 -262.515)" fill="#f5795b"/>
      </g>
      <path id="Trazado_65293" data-name="Trazado 65293" d="M317.4,262.546a11.008,11.008,0,0,1-3.4-.393,3.32,3.32,0,0,0,2.379,1.1,2.705,2.705,0,0,1-2.379.457s1.73,1.442,2.731.448c0,0-.136,1.377,1.746,2.219a5.4,5.4,0,0,1-.392-1.946,3.814,3.814,0,0,0,2.683.937,4.8,4.8,0,0,1-2.13-2.026Z" transform="translate(-261.76 -177.582)" fill="#9aad31"/>
      <path id="Trazado_65294" data-name="Trazado 65294" d="M315.672,262.063a10.825,10.825,0,0,1-3.283-.977,3.374,3.374,0,0,0,2.154,1.506,2.719,2.719,0,0,1-2.419.024s1.449,1.722,2.611.921c0,0-.376,1.337,1.329,2.483a5.445,5.445,0,0,1-.048-1.986,3.8,3.8,0,0,0,2.483,1.386,4.761,4.761,0,0,1-1.746-2.363Z" transform="translate(-274.916 -185.068)" fill="#9aad31"/>
      <path id="Trazado_65295" data-name="Trazado 65295" d="M318.658,263.225a9.484,9.484,0,0,1-3.107.328,3.014,3.014,0,0,0,2.339.537,2.426,2.426,0,0,1-2.026.9s1.834.969,2.523-.144a2.909,2.909,0,0,0,2.25,1.45,3.064,3.064,0,0,1-1-1.474,2.658,2.658,0,0,0,2.458-.264,2.83,2.83,0,0,1-2.314-1.041Z" transform="translate(-250.897 -170.076)" fill="#9aad31"/>
      <path id="Trazado_65296" data-name="Trazado 65296" d="M312.52,262.217a1.386,1.386,0,0,1,.248-1.145s.032,1.177.945,1.145l-.3.376h-.8Z" transform="translate(-272.373 -185.166)" fill="#9aad31"/>
      <path id="Trazado_65297" data-name="Trazado 65297" d="M319.377,265s-1.666-2.05-1.626-3.868c0,0-.833,2.154-.312,3.308,0,0-1.578.112-2.123-.385a2.746,2.746,0,0,0,2.723,1.433,2.129,2.129,0,0,0,.649,2.034,1.994,1.994,0,0,1,.392-1.553,1.852,1.852,0,0,0,1.474,1.553s-.649-1.289-.36-1.906S319.377,265,319.377,265Z" transform="translate(-252.537 -184.724)" fill="#9aad31"/>
      <path id="Trazado_65298" data-name="Trazado 65298" d="M316.7,261.311s-1.081.833-1.009,1.682,1.594.689,1.594.689A2.017,2.017,0,0,1,316.7,261.311Z" transform="translate(-249.968 -183.491)" fill="#9aad31"/>
      <path id="Trazado_65299" data-name="Trazado 65299" d="M317,282.042a12.328,12.328,0,0,1,10.163-1.161s-3.332-3.531-1.546-5,4.445.192,4.445.192-3.668-3.2-.865-4.973,4.317-1.338,4.317-1.338-3.34-3.075-.745-5.085c0,0-1.625-2.066,1.57-5.518,0,0-3.268,3.836-6.255,2.395,0,0-.9,3.58-3.516,2.763,0,0-1.562,5.077-5.27,3,0,0,1.033,6.671-2.419,5.662C316.876,272.976,319.463,276.764,317,282.042Z" transform="translate(-241.61 -198.559)" fill="#9aad31"/>
      <path id="Trazado_65300" data-name="Trazado 65300" d="M339.711,273.962a13.119,13.119,0,0,0-10.387,3.212s1.738-4.854-.633-5.518-4.237,2.074-4.237,2.074,2.21-4.685-1.281-5.214-4.773.545-4.773.545,1.938-4.429-1.441-5.27c0,0,.7-2.707-3.876-4.7,0,0,4.813,2.347,7.112-.328,0,0,2.395,3.092,4.605,1.185,0,0,3.676,4.269,6.391.673,0,0,1.842,6.928,4.773,4.477C335.963,265.1,335.066,269.886,339.711,273.962Z" transform="translate(-268.201 -201.356)" fill="#9aad31"/>
      <path id="Trazado_65301" data-name="Trazado 65301" d="M318.025,298.919s.032-.28.08-.817a22.175,22.175,0,0,1,.328-2.427,34.707,34.707,0,0,1,2.731-8.433,46.175,46.175,0,0,1,16.874-19.6,34.585,34.585,0,0,1,6.407-3.075,31.656,31.656,0,0,1,6.663-1.554,23.784,23.784,0,0,1,6.463.1,22.361,22.361,0,0,1,5.534,1.586,24.155,24.155,0,0,1,7.136,4.709,18.259,18.259,0,0,1,2.194,2.435l-.905.657a16.7,16.7,0,0,0-2.122-2.2,22.8,22.8,0,0,0-6.856-4.252,21.789,21.789,0,0,0-11.156-1.241,27.013,27.013,0,0,0-6.231,1.682,32.83,32.83,0,0,0-5.822,3.163A43.167,43.167,0,0,0,324.48,288.66a30.516,30.516,0,0,0-2.074,7.52,16.337,16.337,0,0,0-.192,2.227c-.024.536-.048.825-.048.825Z" transform="translate(-233.558 -172.839)" fill="#9aad31"/>
      <path id="Trazado_65302" data-name="Trazado 65302" d="M318.737,273.177a13.3,13.3,0,0,1,1.073-2.787,13.458,13.458,0,0,1,4.116-5.045,6.116,6.116,0,0,1,3.628-1.081,5.68,5.68,0,0,1,1.7.433,5.876,5.876,0,0,1,1.321.737,13.892,13.892,0,0,1,2.13,2.026l-1.153.993a10.91,10.91,0,0,0-1.914-1.6,3.649,3.649,0,0,0-4.493.2,11.454,11.454,0,0,0-3.067,4.4,9.9,9.9,0,0,0-.721,2.331Z" transform="translate(-228.575 -162.85)" fill="#9aad31"/>
      <path id="Trazado_65303" data-name="Trazado 65303" d="M320.71,269.51a12.311,12.311,0,0,1,2.034-3.275,10.346,10.346,0,0,1,7.512-3.748,5.959,5.959,0,0,1,1.249.128,4.692,4.692,0,0,1,1.2.432,6.517,6.517,0,0,1,1.834,1.49,14.147,14.147,0,0,1,2.066,3.276,21.81,21.81,0,0,1,1.289,3.468l-1.418.392A19.926,19.926,0,0,0,335.2,268.5a12.449,12.449,0,0,0-1.906-2.827,4.789,4.789,0,0,0-1.354-1.065,2.7,2.7,0,0,0-.793-.256,3.9,3.9,0,0,0-.865-.056,8.44,8.44,0,0,0-5.975,3.268,9.773,9.773,0,0,0-1.618,2.795Z" transform="translate(-214.739 -175.256)" fill="#9aad31"/>
      <g id="Grupo_31118" data-name="Grupo 31118" transform="translate(113.292 93.731)">
        <path id="Trazado_65304" data-name="Trazado 65304" d="M325.611,281.311a10.018,10.018,0,1,0-1.97-14.031A10.014,10.014,0,0,0,325.611,281.311Z" transform="translate(-321.624 -263.298)" fill="#e85b38"/>
        <path id="Trazado_65305" data-name="Trazado 65305" d="M321.845,268.881a8.687,8.687,0,0,0,3.219,5.221,8.836,8.836,0,0,0,12.373-1.729,8.725,8.725,0,0,0,.945-8.738,9.99,9.99,0,1,1-16.538,5.246Z" transform="translate(-321.599 -260.934)" fill="#d14d2c"/>
        <path id="Trazado_65306" data-name="Trazado 65306" d="M322.143,268.863c.545,1.025,3.011.793,5.518-.521s4.1-3.228,3.556-4.26-3.019-.793-5.518.528S321.6,267.83,322.143,268.863Z" transform="translate(-318.733 -262.278)" fill="#f5795b"/>
      </g>
      <g id="Grupo_31119" data-name="Grupo 31119" transform="translate(97.597 103.546)">
        <path id="Trazado_65307" data-name="Trazado 65307" d="M324.154,281.307a9,9,0,1,0-3.283-12.285A9,9,0,0,0,324.154,281.307Z" transform="translate(-319.664 -264.523)" fill="#e85b38"/>
        <path id="Trazado_65308" data-name="Trazado 65308" d="M319.7,271.227a7.848,7.848,0,0,0,3.444,4.293,7.942,7.942,0,0,0,10.844-2.9,7.829,7.829,0,0,0-.12-7.881,8.971,8.971,0,1,1-14.167,6.487Z" transform="translate(-319.646 -263.004)" fill="#d14d2c"/>
        <path id="Trazado_65309" data-name="Trazado 65309" d="M319.984,269.535c.489.921,2.707.7,4.949-.472s3.676-2.9,3.2-3.82c-.5-.921-2.715-.721-4.957.472C320.921,266.892,319.5,268.6,319.984,269.535Z" transform="translate(-318.097 -263.522)" fill="#f5795b"/>
      </g>
      <g id="Grupo_31120" data-name="Grupo 31120" transform="translate(131.285 98.206)">
        <path id="Trazado_65310" data-name="Trazado 65310" d="M327.3,281.424a10.021,10.021,0,1,0-.961-14.143A10.023,10.023,0,0,0,327.3,281.424Z" transform="translate(-323.871 -263.856)" fill="#e85b38"/>
        <path id="Trazado_65311" data-name="Trazado 65311" d="M324.268,268.308a8.7,8.7,0,0,0,2.835,5.43,8.829,8.829,0,0,0,12.469-.841,8.7,8.7,0,0,0,1.57-8.641,9.994,9.994,0,1,1-16.874,4.052Z" transform="translate(-323.85 -261.056)" fill="#d14d2c"/>
        <path id="Trazado_65312" data-name="Trazado 65312" d="M324.265,267.981c.336,1.113,2.8,1.361,5.518.552s4.629-2.378,4.3-3.492-2.8-1.362-5.51-.553S323.929,266.868,324.265,267.981Z" transform="translate(-321.373 -262.755)" fill="#f5795b"/>
      </g>
      <path id="Trazado_65313" data-name="Trazado 65313" d="M324.984,263.787a12.623,12.623,0,0,1-2.755,2.042,3.726,3.726,0,0,0,2.427-.929,3,3,0,0,1-1.49,1.866s2.146-.281,2.291-1.562c0,0,.729.929,2.619.176a4.181,4.181,0,0,1-1.466-.913,4.337,4.337,0,0,0,2.547-1.225,4.861,4.861,0,0,1-2.779.192Z" transform="translate(-204.093 -169.95)" fill="#9aad31"/>
      <path id="Trazado_65314" data-name="Trazado 65314" d="M326.508,265a9.617,9.617,0,0,1-2.146,2.25,2.989,2.989,0,0,0,2.122-1.105,2.463,2.463,0,0,1-.961,2s2.026-.44,1.834-1.746a2.869,2.869,0,0,0,2.651-.344,3.045,3.045,0,0,1-1.714-.48A2.671,2.671,0,0,0,330,263.789a2.841,2.841,0,0,1-2.443.7Z" transform="translate(-189.144 -166.123)" fill="#9aad31"/>
      <path id="Trazado_65315" data-name="Trazado 65315" d="M325.676,263.079a9.445,9.445,0,0,1-2.155,2.266,2.988,2.988,0,0,0,2.13-1.105,2.415,2.415,0,0,1-.969,1.986s2.034-.424,1.834-1.73a2.887,2.887,0,0,0,2.659-.344,3.006,3.006,0,0,1-1.714-.489,2.646,2.646,0,0,0,1.706-1.786,2.841,2.841,0,0,1-2.443.7Z" transform="translate(-195.038 -179.517)" fill="#9aad31"/>
      <path id="Trazado_65316" data-name="Trazado 65316" d="M322.13,265.677a9.672,9.672,0,0,1-2.163,2.25,2.989,2.989,0,0,0,2.131-1.105,2.455,2.455,0,0,1-.969,2s2.034-.44,1.834-1.746a2.872,2.872,0,0,0,2.651-.344,2.945,2.945,0,0,1-1.706-.48,2.636,2.636,0,0,0,1.7-1.786,2.818,2.818,0,0,1-2.435.705Z" transform="translate(-219.94 -161.364)" fill="#9aad31"/>
      <path id="Trazado_65317" data-name="Trazado 65317" d="M321.243,264.8a9.485,9.485,0,0,1-1.017,2.947,2.984,2.984,0,0,0,1.474-1.9,2.448,2.448,0,0,1-.048,2.218s1.658-1.241.945-2.338a2.9,2.9,0,0,0,2.266-1.417,3.021,3.021,0,0,1-1.762.272,2.654,2.654,0,0,0,.809-2.331,2.823,2.823,0,0,1-1.922,1.65Z" transform="translate(-218.131 -176.917)" fill="#9aad31"/>
      <path id="Trazado_65318" data-name="Trazado 65318" d="M326.686,263.915a5.65,5.65,0,0,1-2.347.417s1.906.721,2.867.248S326.686,263.915,326.686,263.915Z" transform="translate(-189.305 -165.24)" fill="#9aad31"/>
      <path id="Trazado_65319" data-name="Trazado 65319" d="M320.876,263.036a2.618,2.618,0,0,1-.689,1.121,3.923,3.923,0,0,0,1.57-.921c.489-.593-.144-.713-.144-.713Z" transform="translate(-218.405 -174.996)" fill="#9aad31"/>
      <path id="Trazado_65320" data-name="Trazado 65320" d="M320.4,263.416c.4-.064.953-1.089.953-1.089s.416,1.186,0,1.305A1.406,1.406,0,0,1,320.4,263.416Z" transform="translate(-216.94 -176.37)" fill="#9aad31"/>
      <path id="Trazado_65321" data-name="Trazado 65321" d="M323.874,262.726a2.464,2.464,0,0,0,1.289-.921s.585,1.089,0,1.434a.982.982,0,0,1-1.065,0Z" transform="translate(-192.564 -180.029)" fill="#9aad31"/>
      <path id="Trazado_65322" data-name="Trazado 65322" d="M317.006,278.3a26.359,26.359,0,0,1,1.353-3.4,53.974,53.974,0,0,1,4.052-6.936,51.239,51.239,0,0,1,5.334-6.023,28.2,28.2,0,0,1,2.8-2.346s-.993,1.065-2.491,2.651a51.034,51.034,0,0,0-4.989,6.191,54.1,54.1,0,0,0-4.333,6.663C317.655,277,317.006,278.3,317.006,278.3Z" transform="translate(-240.699 -195.462)" fill="#abbf3c"/>
      <path id="Trazado_65323" data-name="Trazado 65323" d="M324.436,276.333a10.782,10.782,0,0,0-7.424-4.99s4-1.4,3.2-3.26-3.516-1.642-3.516-1.642,4.14-1.009,2.667-3.508c-1.466-2.515-2.8-2.779-2.8-2.779s3.828-1.041,2.619-3.644c0,0,2.1-.953,1-4.917,0,0,.993,4.293,3.9,4.381,0,0-.745,3.131,1.618,3.564,0,0-.833,4.565,2.875,4.445,0,0-3.492,4.749-.392,5.374A8.247,8.247,0,0,0,324.436,276.333Z" transform="translate(-243.797 -251.594)" fill="#9aad31"/>
      <path id="Trazado_65324" data-name="Trazado 65324" d="M320.089,272.047a23.089,23.089,0,0,0,.328-3.171,47.757,47.757,0,0,0-.361-7.024,43.874,43.874,0,0,0-1.714-6.831,24.694,24.694,0,0,0-1.225-2.939s.344,1.225.865,3.051a44.364,44.364,0,0,1,1.377,6.815,47.068,47.068,0,0,1,.673,6.928C320.113,270.774,320.089,272.047,320.089,272.047Z" transform="translate(-239.914 -248.174)" fill="#abbf3c"/>
      <path id="Trazado_65325" data-name="Trazado 65325" d="M338.576,292.641a15.316,15.316,0,0,0-12.686-.713s3.868-4.621,1.545-6.311-5.494.553-5.494.553,4.333-4.237.721-6.231-5.446-1.345-5.446-1.345,3.916-4.061.561-6.359c0,0,1.874-2.691-2.347-6.735,0,0,4.325,4.533,7.937,2.531,0,0,1.369,4.365,4.557,3.171,0,0,2.3,6.175,6.743,3.34,0,0-.809,8.345,3.4,6.847C338.071,281.389,335.14,286.274,338.576,292.641Z" transform="translate(-251.738 -154.132)" fill="#9aad31"/>
      <path id="Trazado_65326" data-name="Trazado 65326" d="M334.031,288.247a32.6,32.6,0,0,0-1.906-4.116,68.356,68.356,0,0,0-5.534-8.313,63.326,63.326,0,0,0-7.04-7.088,33.956,33.956,0,0,0-3.644-2.707s1.313,1.241,3.276,3.1a63.994,63.994,0,0,1,6.631,7.32,65.794,65.794,0,0,1,5.846,7.969C333.143,286.669,334.031,288.247,334.031,288.247Z" transform="translate(-248.395 -150.466)" fill="#abbf3c"/>
      <g id="Grupo_31125" data-name="Grupo 31125" transform="translate(13.307 7.72)">
        <path id="Trazado_65327" data-name="Trazado 65327" d="M314.6,254.276a7.757,7.757,0,0,1,.929-.048,6.421,6.421,0,0,1,2.194.553,9.381,9.381,0,0,1,4.685,5.062,13.936,13.936,0,0,1,.625,6.992,14.849,14.849,0,0,1-.488,2.322c-.144.553-.224.873-.224.873l2.395.641s.072-.352.184-.985a16.874,16.874,0,0,0,.353-2.619,15.835,15.835,0,0,0-1.305-7.9,10.67,10.67,0,0,0-5.806-5.43,6.452,6.452,0,0,0-3.644-.336Z" transform="translate(-271.595 -247.533)" fill="#9aad31"/>
        <g id="Grupo_31121" data-name="Grupo 31121" transform="translate(29.369 3.69)">
          <path id="Trazado_65328" data-name="Trazado 65328" d="M325.526,270.24a9.009,9.009,0,1,1,4.5-11.917A9,9,0,0,1,325.526,270.24Z" transform="translate(-312.807 -253.019)" fill="#e85b38"/>
          <path id="Trazado_65329" data-name="Trazado 65329" d="M330.8,261.041a7.861,7.861,0,0,1-3.86,3.94,7.941,7.941,0,0,1-10.515-3.964,7.832,7.832,0,0,1,.9-7.84,8.983,8.983,0,1,0,13.479,7.865Z" transform="translate(-312.802 -251.917)" fill="#d14d2c"/>
          <path id="Trazado_65330" data-name="Trazado 65330" d="M321.7,258.7c-.577.873-2.771.44-4.885-.961s-3.38-3.244-2.8-4.125c.576-.865,2.763-.441,4.885.969S322.28,257.829,321.7,258.7Z" transform="translate(-305.316 -251.964)" fill="#f5795b"/>
        </g>
        <path id="Trazado_65331" data-name="Trazado 65331" d="M327.457,261.7a8.074,8.074,0,0,0-.12-.865,8.436,8.436,0,0,0-.953-2.4,12.52,12.52,0,0,0-5.214-4.949,9.571,9.571,0,0,0-3.78-.921,9.294,9.294,0,0,0-3.308.617,13.261,13.261,0,0,0-2.8,1.594l.529.729a12.879,12.879,0,0,1,2.635-1.313,8.2,8.2,0,0,1,2.9-.392,8.337,8.337,0,0,1,3.179.961,10.871,10.871,0,0,1,4.277,4.517,7.629,7.629,0,0,1,.641,1.77c.064.488.072.825.072.825Z" transform="translate(-294.145 -252.558)" fill="#9aad31"/>
        <g id="Grupo_31122" data-name="Grupo 31122" transform="translate(5.636 0.195)">
          <path id="Trazado_65332" data-name="Trazado 65332" d="M323.832,269.094a9.007,9.007,0,1,1,2.531-12.485A9.006,9.006,0,0,1,323.832,269.094Z" transform="translate(-309.843 -252.582)" fill="#e85b38"/>
          <path id="Trazado_65333" data-name="Trazado 65333" d="M327.733,258.432a7.855,7.855,0,0,1-3.171,4.517,7.943,7.943,0,0,1-11.02-2.226,7.817,7.817,0,0,1-.376-7.881,8.982,8.982,0,1,0,14.568,5.59Z" transform="translate(-309.836 -250.762)" fill="#d14d2c"/>
          <path id="Trazado_65334" data-name="Trazado 65334" d="M319.253,257.174c-.425.953-2.659.889-4.982-.16s-3.852-2.659-3.427-3.62,2.667-.881,4.981.16S319.685,256.221,319.253,257.174Z" transform="translate(-303.326 -251.594)" fill="#f5795b"/>
        </g>
        <path id="Trazado_65335" data-name="Trazado 65335" d="M358.753,288.107a8.142,8.142,0,0,1-.36-1.473c-.048-.512.6-2.3.408-3.364a16.952,16.952,0,0,0-1.385-6.086,42.776,42.776,0,0,0-14.928-18.652,32.93,32.93,0,0,0-5.806-3.051,29.39,29.39,0,0,0-6.095-1.65,22.066,22.066,0,0,0-5.967-.128,20.674,20.674,0,0,0-5.166,1.281,22.066,22.066,0,0,0-6.735,4.108,16.075,16.075,0,0,0-2.106,2.17l.817.641a15.415,15.415,0,0,1,2.026-1.97,20.865,20.865,0,0,1,6.463-3.684,19.891,19.891,0,0,1,10.339-.777,24.189,24.189,0,0,1,5.686,1.754,29.221,29.221,0,0,1,5.27,3.115c6.655,4.941,12.061,12.173,14.071,17.907a34,34,0,0,1,1.562,8.089c.128.769-.793.632-.777,1.1l.016.769Z" transform="translate(-298.812 -245.533)" fill="#9aad31"/>
        <path id="Trazado_65336" data-name="Trazado 65336" d="M328.357,260.055a11.072,11.072,0,0,0-1.77-3.083,9.524,9.524,0,0,0-6.808-3.708,5.661,5.661,0,0,0-1.161.072,4.46,4.46,0,0,0-1.113.352,6,6,0,0,0-1.746,1.321,12.723,12.723,0,0,0-2.01,2.955,19.192,19.192,0,0,0-1.313,3.147l1.3.417a17.873,17.873,0,0,1,1.3-2.883,11.348,11.348,0,0,1,1.834-2.547,4.487,4.487,0,0,1,1.289-.929,1.977,1.977,0,0,1,.745-.216,2.978,2.978,0,0,1,.8-.024,7.79,7.79,0,0,1,5.406,3.2,8.9,8.9,0,0,1,1.393,2.643Z" transform="translate(-286.036 -247.61)" fill="#9aad31"/>
        <g id="Grupo_31123" data-name="Grupo 31123" transform="translate(16.755 11.382)">
          <path id="Trazado_65337" data-name="Trazado 65337" d="M325.778,270.812a9.248,9.248,0,1,1,2.282-12.886A9.247,9.247,0,0,1,325.778,270.812Z" transform="translate(-311.232 -253.979)" fill="#e85b38"/>
          <path id="Trazado_65338" data-name="Trazado 65338" d="M329.557,259.654a8.057,8.057,0,0,1-3.139,4.709,8.167,8.167,0,0,1-11.365-2.018,8.017,8.017,0,0,1-.584-8.081,9.223,9.223,0,1,0,15.088,5.39Z" transform="translate(-311.223 -251.983)" fill="#d14d2c"/>
          <path id="Trazado_65339" data-name="Trazado 65339" d="M320.444,259.363c-.537.937-2.8.633-5.077-.665s-3.66-3.115-3.132-4.044,2.811-.641,5.07.665C319.579,256.624,320.98,258.433,320.444,259.363Z" transform="translate(-304.985 -253.062)" fill="#f5795b"/>
        </g>
        <g id="Grupo_31124" data-name="Grupo 31124" transform="translate(0 14.914)">
          <path id="Trazado_65340" data-name="Trazado 65340" d="M324.223,270.852a9.252,9.252,0,1,1,1.353-13.014A9.256,9.256,0,0,1,324.223,270.852Z" transform="translate(-309.139 -254.42)" fill="#e85b38"/>
          <path id="Trazado_65341" data-name="Trazado 65341" d="M327.33,259.061a8.065,8.065,0,0,1-2.8,4.917,8.154,8.154,0,0,1-11.476-1.193,8.04,8.04,0,0,1-1.161-8.025,9.227,9.227,0,1,0,15.441,4.3Z" transform="translate(-309.123 -252.039)" fill="#d14d2c"/>
          <path id="Trazado_65342" data-name="Trazado 65342" d="M319.017,258.477c-.344,1.017-2.627,1.161-5.11.32s-4.2-2.339-3.852-3.364,2.635-1.161,5.1-.328C317.639,255.954,319.361,257.46,319.017,258.477Z" transform="translate(-303.028 -253.41)" fill="#f5795b"/>
        </g>
        <path id="Trazado_65343" data-name="Trazado 65343" d="M316.056,254.556a11.705,11.705,0,0,0,2.475,1.978,3.417,3.417,0,0,1-2.2-.937,2.76,2.76,0,0,0,1.313,1.778s-1.97-.344-2.066-1.522c0,0-.7.833-2.418.072a3.7,3.7,0,0,0,1.377-.793,3.97,3.97,0,0,1-2.306-1.209,4.545,4.545,0,0,0,2.563.272Z" transform="translate(-287.494 -242.991)" fill="#9aad31"/>
        <path id="Trazado_65344" data-name="Trazado 65344" d="M313.632,255.593a8.791,8.791,0,0,0,1.914,2.154,2.757,2.757,0,0,1-1.93-1.089,2.252,2.252,0,0,0,.825,1.866s-1.85-.465-1.626-1.658a2.665,2.665,0,0,1-2.435-.409,2.8,2.8,0,0,0,1.594-.384,2.467,2.467,0,0,1-1.514-1.714,2.611,2.611,0,0,0,2.227.737Z" transform="translate(-300.438 -239.928)" fill="#9aad31"/>
        <path id="Trazado_65345" data-name="Trazado 65345" d="M314.479,253.851a8.792,8.792,0,0,0,1.914,2.154,2.757,2.757,0,0,1-1.93-1.089,2.272,2.272,0,0,0,.825,1.874s-1.858-.473-1.634-1.666a2.664,2.664,0,0,1-2.435-.409,2.835,2.835,0,0,0,1.6-.384,2.465,2.465,0,0,1-1.514-1.706,2.618,2.618,0,0,0,2.226.729Z" transform="translate(-294.565 -252.081)" fill="#9aad31"/>
        <path id="Trazado_65346" data-name="Trazado 65346" d="M317.688,255.527a8.668,8.668,0,0,0,.841,2.763,2.775,2.775,0,0,1-1.3-1.794,2.217,2.217,0,0,0-.032,2.034s-1.49-1.193-.793-2.186a2.647,2.647,0,0,1-2.042-1.385,2.826,2.826,0,0,0,1.61.312,2.48,2.48,0,0,1-.665-2.186,2.614,2.614,0,0,0,1.722,1.594Z" transform="translate(-272.516 -248.871)" fill="#9aad31"/>
        <path id="Trazado_65347" data-name="Trazado 65347" d="M311.482,254.492a5.187,5.187,0,0,0,2.155.456s-1.786.6-2.659.136S311.482,254.492,311.482,254.492Z" transform="translate(-298.288 -239.003)" fill="#9aad31"/>
        <path id="Trazado_65348" data-name="Trazado 65348" d="M315.7,253.845a2.435,2.435,0,0,0,.6,1.049,3.473,3.473,0,0,1-1.409-.9c-.433-.561.152-.649.152-.649Z" transform="translate(-269.95 -247.014)" fill="#9aad31"/>
        <path id="Trazado_65349" data-name="Trazado 65349" d="M315.66,254.2c-.368-.072-.849-1.041-.849-1.041s-.417,1.081-.04,1.209A1.288,1.288,0,0,0,315.66,254.2Z" transform="translate(-270.776 -248.325)" fill="#9aad31"/>
        <path id="Trazado_65350" data-name="Trazado 65350" d="M312.8,253.454a2.219,2.219,0,0,1-1.161-.889s-.569.977-.048,1.313a.908.908,0,0,0,.985.048Z" transform="translate(-293.482 -252.509)" fill="#9aad31"/>
      </g>
      <path id="Trazado_65351" data-name="Trazado 65351" d="M313.5,258.993a79.155,79.155,0,0,1,11.573,5.029,54.449,54.449,0,0,1,7.088,5.03c1.786,1.562,2.851,2.723,2.851,2.723s-1.241-.953-3.124-2.387a55.457,55.457,0,0,0-7.216-4.669,78.188,78.188,0,0,0-7.648-3.964C314.9,259.729,313.5,258.993,313.5,258.993Z" transform="translate(-265.237 -199.737)" fill="#abbf3c"/>
      <path id="Trazado_65352" data-name="Trazado 65352" d="M318.807,278.123a13.635,13.635,0,0,1,9.338-3.516s-4.229-1.994-2.971-3.628,4.292-.969,4.292-.969-4.469-1.642-2.323-3.78,3.716-2.17,3.716-2.17-4.116-1.626-2.242-3.892c0,0-2.178-1.257-.168-4.845,0,0-1.962,3.916-5.246,3.524,0,0,.216,3.1-2.515,3.115,0,0,.04,4.469-4.124,3.732,0,0,3,5.1-.6,5.174A7.431,7.431,0,0,1,318.807,278.123Z" transform="translate(-248.002 -225.466)" fill="#9aad31"/>
      <path id="Trazado_65353" data-name="Trazado 65353" d="M316.406,274.245a18.376,18.376,0,0,1,.264-3.075,31.1,31.1,0,0,1,5.053-12.806,22.479,22.479,0,0,1,1.962-2.595l-1.578,2.763a38.522,38.522,0,0,0-2.891,6.247,39.828,39.828,0,0,0-2.122,6.455C316.63,273.02,316.406,274.245,316.406,274.245Z" transform="translate(-244.912 -222.333)" fill="#abbf3c"/>
    </g>
    <g id="Grupo_31127" data-name="Grupo 31127" transform="translate(316.263 408.535)">
      <rect id="Rectngulo_6288" data-name="Rectngulo 6288" width="148.996" height="15.246" transform="translate(17.464 76.881)" fill="#debc7a"/>
      <rect id="Rectngulo_6289" data-name="Rectngulo 6289" width="148.996" height="15.246" transform="translate(17.464 54.272)" fill="#debc7a"/>
      <rect id="Rectngulo_6290" data-name="Rectngulo 6290" width="148.996" height="15.246" transform="translate(17.464 31.655)" fill="#debc7a"/>
      <rect id="Rectngulo_6291" data-name="Rectngulo 6291" width="148.996" height="15.246" transform="translate(17.464 9.044)" fill="#debc7a"/>
      <rect id="Rectngulo_6292" data-name="Rectngulo 6292" width="148.996" height="4.914" transform="translate(17.464 19.376)" fill="#cba065"/>
      <rect id="Rectngulo_6293" data-name="Rectngulo 6293" width="148.996" height="4.908" transform="translate(17.464 41.993)" fill="#cba065"/>
      <rect id="Rectngulo_6294" data-name="Rectngulo 6294" width="148.996" height="4.913" transform="translate(17.464 64.604)" fill="#cba065"/>
      <rect id="Rectngulo_6295" data-name="Rectngulo 6295" width="148.996" height="4.907" transform="translate(17.464 87.221)" fill="#cba065"/>
      <rect id="Rectngulo_6296" data-name="Rectngulo 6296" width="17.464" height="101.305" transform="translate(166.459)" fill="#a67c4b"/>
      <path id="Trazado_65354" data-name="Trazado 65354" d="M344.474,271.19v95.1H329.36v6.2h17.465V271.19Z" transform="translate(-162.9 -271.19)" fill="#904a19" opacity="0.3"/>
      <rect id="Rectngulo_6297" data-name="Rectngulo 6297" width="17.464" height="101.305" fill="#a67c4b"/>
      <path id="Trazado_65355" data-name="Trazado 65355" d="M323.688,271.19v95.1H308.575v6.2h17.464V271.19Z" transform="translate(-308.575 -271.19)" fill="#904a19" opacity="0.3"/>
    </g>
  </g>
</svg>
