<svg id="Grupo_30678" data-name="Grupo 30678" xmlns="http://www.w3.org/2000/svg" width="85.001" height="98.676" viewBox="0 0 85.001 98.676">
  <path id="Trazado_60717" data-name="Trazado 60717" d="M113.787,167.116v18.139L97.525,201.766q10.133,2.5,15.575,9.07a24,24,0,0,1,5.441,15.823,26.98,26.98,0,0,1-4.316,14.7q-4.315,6.819-13.322,11.071t-22.391,4.253a86.578,86.578,0,0,1-18.451-2A57.394,57.394,0,0,1,43.987,248.8l10.007-21.766a46.2,46.2,0,0,0,11.57,4.753,47,47,0,0,0,11.947,1.627,16.841,16.841,0,0,0,8.255-1.752,5.479,5.479,0,0,0,3.128-5q0-6-10.383-6H66.877V202.518l12.885-13.135H48.489V167.116h65.3m4.555-4.555H43.933v31.376h24.98l-5.287,5.39-1.3,1.329v24.555H78.511c4.789,0,5.775,1.081,5.788,1.1h0a1.059,1.059,0,0,1,.039.349c0,.339,0,.583-.8,1.029a12.594,12.594,0,0,1-6.03,1.171,42.619,42.619,0,0,1-10.789-1.478A41.841,41.841,0,0,1,56.285,223.1l-4.336-2.522-2.094,4.557L39.848,246.9,38.1,250.709l3.654,2.059a62.216,62.216,0,0,0,17.343,6.363,91.5,91.5,0,0,0,19.419,2.106c9.556,0,17.743-1.577,24.336-4.688,6.77-3.2,11.893-7.488,15.227-12.754a31.588,31.588,0,0,0,5.022-17.136,28.54,28.54,0,0,0-6.49-18.729,29.97,29.97,0,0,0-10.778-8.1l11.2-11.376,1.309-1.331v-24.56Z" transform="translate(-38.095 -162.561)" fill="#fff"/>
</svg>
