<svg xmlns="http://www.w3.org/2000/svg" xmlns:xlink="http://www.w3.org/1999/xlink" width="462.594" height="500.912" viewBox="0 0 462.594 500.912">
  <defs>
    <radialGradient id="radial-gradient" cx="0.431" cy="0.26" r="0.526" gradientTransform="translate(-0.209) scale(1.418 1)" gradientUnits="objectBoundingBox">
      <stop offset="0" stop-color="#ffd970"/>
      <stop offset="1" stop-color="#ffae70"/>
    </radialGradient>
    <linearGradient id="linear-gradient" x1="-0.024" y1="-0.043" x2="1.2" y2="1.089" gradientUnits="objectBoundingBox">
      <stop offset="0" stop-color="#40d5e6"/>
      <stop offset="1" stop-color="#57f"/>
    </linearGradient>
    <radialGradient id="radial-gradient-2" cx="0.361" cy="0.205" r="0.535" gradientUnits="objectBoundingBox">
      <stop offset="0.16" stop-color="#69beff"/>
      <stop offset="0.581" stop-color="#1c9cff"/>
      <stop offset="1" stop-color="#476cff"/>
    </radialGradient>
    <radialGradient id="radial-gradient-3" cx="0.5" cy="0.5" r="0.976" gradientTransform="translate(0.306) scale(0.389 1)" xlink:href="#radial-gradient"/>
  </defs>
  <g id="Grupo_31029" data-name="Grupo 31029" transform="translate(-1454.834 -987.792)">
    <g id="Grupo_30767" data-name="Grupo 30767" transform="translate(1712.967 996.574)">
      <g id="Grupo_30734" data-name="Grupo 30734" transform="translate(78.33 0.407)">
        <path id="Trazado_64901" data-name="Trazado 64901" d="M2037.811,1142.744a106.962,106.962,0,0,1,7.606-24.046,127.361,127.361,0,0,1,35-46.74c21.876-18.139,34.494-35.729,41.226-47.289,7.295-12.526,9.443-20.871,9.464-20.954l.753.189c-.021.084-2.187,8.508-9.526,21.121-6.765,11.624-19.442,29.305-41.422,47.531a126.572,126.572,0,0,0-34.784,46.453c-5.976,13.658-7.535,23.751-7.55,23.851Z" transform="translate(-2037.811 -1003.715)" fill="#97a43c"/>
      </g>
      <g id="Grupo_30735" data-name="Grupo 30735" transform="translate(5.36 7.926)">
        <path id="Trazado_64902" data-name="Trazado 64902" d="M1938.993,1130.677a97.237,97.237,0,0,1-6.312-16.126c-2.7-8.987-5.577-22.812-3.965-37.628,1.6-14.672-3.2-30.135-7.506-40.524a131.111,131.111,0,0,0-9.831-19.232l.65-.424a131.946,131.946,0,0,1,9.9,19.359c4.341,10.472,9.176,26.07,7.561,40.9-1.6,14.681,1.258,28.389,3.932,37.3a96.716,96.716,0,0,0,6.258,16Z" transform="translate(-1911.379 -1016.742)" fill="#ffa271"/>
      </g>
      <g id="Grupo_30739" data-name="Grupo 30739" transform="translate(0 7.278)">
        <g id="Grupo_30738" data-name="Grupo 30738">
          <g id="Grupo_30737" data-name="Grupo 30737">
            <g id="Grupo_30736" data-name="Grupo 30736">
              <path id="Trazado_64903" data-name="Trazado 64903" d="M1935.093,1140.219c-11.983-3.014-33.074-31.269-33-54.569.04-12.876,2.062-24.121,3.845-34.041,2.325-12.931,4.333-24.1,1.464-35.032l-.25-.958.834.532a99.43,99.43,0,0,1,27.791,29.95,95,95,0,0,1,13.15,37.538c2.1,16.616-.085,34.326-6.512,52.637l-.366-.127.366.127c-1.132,3.225-3.421,4.64-6.618,4.09C1935.566,1140.329,1935.331,1140.277,1935.093,1140.219ZM1908.4,1017.371c2.544,10.779.574,21.742-1.7,34.375-1.778,9.891-3.794,21.1-3.834,33.907-.032,10.523,4.435,23.3,12.258,35.059,6.622,9.953,14.616,17.358,20.164,18.755.217.054.429.1.639.136,2.813.483,4.749-.72,5.754-3.582,14.452-41.181,4.414-71.394-6.552-89.487A100.525,100.525,0,0,0,1908.4,1017.371Z" transform="translate(-1902.092 -1015.62)" fill="#ffa271"/>
            </g>
          </g>
        </g>
      </g>
      <g id="Grupo_30740" data-name="Grupo 30740" transform="translate(20.118 28.866)">
        <rect id="Rectángulo_6210" data-name="Rectángulo 6210" width="14.348" height="0.776" transform="translate(0 12.631) rotate(-61.685)" fill="#ffa271"/>
      </g>
      <g id="Grupo_30741" data-name="Grupo 30741" transform="translate(3.829 44.454)">
        <rect id="Rectángulo_6211" data-name="Rectángulo 6211" width="0.776" height="19.778" transform="translate(0 0.73) rotate(-70.115)" fill="#ffa271"/>
      </g>
      <g id="Grupo_30742" data-name="Grupo 30742" transform="translate(22.877 56.116)">
        <rect id="Rectángulo_6212" data-name="Rectángulo 6212" width="22.284" height="0.777" transform="translate(0 11.697) rotate(-31.66)" fill="#ffa271"/>
      </g>
      <g id="Grupo_30745" data-name="Grupo 30745" transform="translate(49.571 14.133)">
        <g id="Grupo_30744" data-name="Grupo 30744">
          <g id="Grupo_30743" data-name="Grupo 30743">
            <path id="Trazado_64904" data-name="Trazado 64904" d="M2020.251,1027.5s38.078,55.857,7.158,86.32-35.136-2.951-35.136-2.951-16.774,1.366,16.011-37.341C2023.737,1055.281,2020.251,1027.5,2020.251,1027.5Z" transform="translate(-1987.982 -1027.497)" fill="#97a43c"/>
          </g>
        </g>
      </g>
      <g id="Grupo_30749" data-name="Grupo 30749" transform="translate(78.543)">
        <g id="Grupo_30748" data-name="Grupo 30748">
          <g id="Grupo_30747" data-name="Grupo 30747">
            <g id="Grupo_30746" data-name="Grupo 30746">
              <path id="Trazado_64905" data-name="Trazado 64905" d="M2045.459,1171.189l-.8-2.075a103.266,103.266,0,0,1-4.525-17.766,132.131,132.131,0,0,1-.291-43.4,119.554,119.554,0,0,1,23.84-54.333c15.672-20.214,38.484-37.191,67.8-50.456l.33-.148.171.318c.062.117,6.255,11.852,5.458,28.892a69.76,69.76,0,0,1-8.158,29.287c-6.174,11.774-15.817,22.914-28.656,33.114-28.932,22.979-42.41,42-48.622,53.917-6.7,12.854-6.6,20.353-6.6,20.427Zm86-167.17c-65.824,29.9-85.741,73.054-90.852,104.017a131.338,131.338,0,0,0,.278,43.145,112.946,112.946,0,0,0,3.867,15.869c.356-3.027,1.678-9.514,6.56-18.874,6.248-11.98,19.789-31.1,48.828-54.165,28.871-22.929,35.8-46.278,36.524-61.829A60.641,60.641,0,0,0,2131.463,1004.019Z" transform="translate(-2038.181 -1003.009)" fill="#97a43c"/>
            </g>
          </g>
        </g>
      </g>
      <g id="Grupo_30752" data-name="Grupo 30752" transform="translate(70.877 57.781)">
        <g id="Grupo_30751" data-name="Grupo 30751">
          <g id="Grupo_30750" data-name="Grupo 30750">
            <path id="Trazado_64906" data-name="Trazado 64906" d="M2031.967,1190.441c-21.268-.262,9.031-54.73,43.48-66.226s62.172-7.373,83.034-21.092C2158.481,1103.123,2136.7,1191.73,2031.967,1190.441Z" transform="translate(-2024.898 -1103.123)" fill="#48753a"/>
          </g>
        </g>
      </g>
      <g id="Grupo_30755" data-name="Grupo 30755" transform="translate(51.499 130.714)">
        <g id="Grupo_30754" data-name="Grupo 30754">
          <g id="Grupo_30753" data-name="Grupo 30753">
            <path id="Trazado_64907" data-name="Trazado 64907" d="M1993.812,1254.033c-12.678-8.123,25.923-29.492,50.922-23.5s40.106,18.857,57.778,18.432C2102.512,1248.97,2056.239,1294.034,1993.812,1254.033Z" transform="translate(-1991.322 -1229.491)" fill="#97a43c"/>
          </g>
        </g>
      </g>
      <g id="Grupo_30760" data-name="Grupo 30760" transform="translate(32.021 140.373)">
        <g id="Grupo_30756" data-name="Grupo 30756">
          <path id="Trazado_64908" data-name="Trazado 64908" d="M2044.641,1315.067q-2.492-.629-4.876-1.46a53.067,53.067,0,0,1-14.721-7.889,43.919,43.919,0,0,1-10.9-11.663c-14.295-20.99-56.154-47.069-56.576-47.33l.308-.5c.106.066,10.7,6.645,22.922,15.745,11.292,8.4,26.328,20.735,33.836,31.764l.014.022a43.191,43.191,0,0,0,10.769,11.513c6.845,5.216,18.685,11.373,36.214,11.082l.009.587A65.267,65.267,0,0,1,2044.641,1315.067Z" transform="translate(-1957.573 -1246.227)" fill="#97a43c"/>
        </g>
        <g id="Grupo_30757" data-name="Grupo 30757" transform="translate(43.067 31.043)">
          <path id="Trazado_64909" data-name="Trazado 64909" d="M2052.894,1345.276a36.7,36.7,0,0,1-10.5-4.411,20.756,20.756,0,0,1-9.832-14.08,24.234,24.234,0,0,1,2.622-15.772c4.37-8.138,13.6-14.144,24.372-9.216,10.652,4.873,13.4,11.769,16.052,18.439,2.89,7.262,5.621,14.12,17.691,18.882l.607.24-.582.293a75.42,75.42,0,0,1-17.29,5.685,58.127,58.127,0,0,1-16.478,1.057A43.327,43.327,0,0,1,2052.894,1345.276Zm3.021-44.151c-8.946-2.249-16.439,3.142-20.211,10.166-4.945,9.208-4.126,22.153,7,29.077,11.082,6.894,24.173,6.2,33.2,4.4a76.585,76.585,0,0,0,16.56-5.352c-11.787-4.851-14.64-12.022-17.4-18.959-2.612-6.562-5.313-13.347-15.75-18.122A19.8,19.8,0,0,0,2055.914,1301.125Z" transform="translate(-2032.194 -1300.014)" fill="#97a43c"/>
        </g>
        <g id="Grupo_30758" data-name="Grupo 30758" transform="translate(52.187 41.988)">
          <rect id="Rectángulo_6213" data-name="Rectángulo 6213" width="0.585" height="33.025" transform="translate(0 0.114) rotate(-11.276)" fill="#97a43c"/>
        </g>
        <g id="Grupo_30759" data-name="Grupo 30759" transform="translate(58.471 49.553)">
          <rect id="Rectángulo_6214" data-name="Rectángulo 6214" width="27.127" height="0.586" transform="translate(0 0.262) rotate(-0.553)" fill="#97a43c"/>
        </g>
      </g>
      <g id="Grupo_30763" data-name="Grupo 30763" transform="translate(38.166 58.417)">
        <g id="Grupo_30762" data-name="Grupo 30762">
          <g id="Grupo_30761" data-name="Grupo 30761">
            <path id="Trazado_64910" data-name="Trazado 64910" d="M1973.823,1150.29c-5.3,4.058-8.381-15.253-2.11-24.766s13.909-13.871,16.4-21.3C1988.109,1104.226,1999.91,1130.306,1973.823,1150.29Z" transform="translate(-1968.221 -1104.226)" fill="#bbd070"/>
          </g>
        </g>
      </g>
      <g id="Grupo_30764" data-name="Grupo 30764" transform="translate(108.936 44.753)">
        <rect id="Rectángulo_6215" data-name="Rectángulo 6215" width="0.777" height="31.085" transform="translate(0 0.113) rotate(-8.338)" fill="#97a43c"/>
      </g>
      <g id="Grupo_30765" data-name="Grupo 30765" transform="translate(128.27 54.104)">
        <rect id="Rectángulo_6216" data-name="Rectángulo 6216" width="43.617" height="0.776" transform="matrix(0.982, -0.19, 0.19, 0.982, 0, 8.288)" fill="#97a43c"/>
      </g>
      <g id="Grupo_30766" data-name="Grupo 30766" transform="translate(147.508 13.067)">
        <rect id="Rectángulo_6217" data-name="Rectángulo 6217" width="0.777" height="25.183" transform="translate(0 0.106) rotate(-7.845)" fill="#97a43c"/>
      </g>
    </g>
    <g id="Grupo_30777" data-name="Grupo 30777" transform="translate(1454.834 1089.162)">
      <g id="Grupo_30770" data-name="Grupo 30770" transform="translate(37.262 91.7)">
        <g id="Grupo_30769" data-name="Grupo 30769">
          <g id="Grupo_30768" data-name="Grupo 30768">
            <path id="Trazado_64911" data-name="Trazado 64911" d="M1519.4,1345.559s40.377-37.984,69.007-16.833,2.1,28.838,2.1,28.838,3.25,13.414-32.295-8.195C1541.456,1339.183,1519.4,1345.559,1519.4,1345.559Z" transform="translate(-1519.397 -1322.318)" fill="#bbd070"/>
          </g>
        </g>
      </g>
      <g id="Grupo_30773" data-name="Grupo 30773" transform="translate(0 29.3)">
        <g id="Grupo_30772" data-name="Grupo 30772">
          <g id="Grupo_30771" data-name="Grupo 30771">
            <path id="Trazado_64912" data-name="Trazado 64912" d="M1454.834,1223.41s37.692-28.636,85.273,15.077,74.28,38.821,74.28,38.821S1524.566,1329.517,1454.834,1223.41Z" transform="translate(-1454.834 -1214.2)" fill="#97a43c"/>
          </g>
        </g>
      </g>
      <g id="Grupo_30776" data-name="Grupo 30776" transform="translate(45.998 0)">
        <g id="Grupo_30775" data-name="Grupo 30775">
          <g id="Grupo_30774" data-name="Grupo 30774">
            <path id="Trazado_64913" data-name="Trazado 64913" d="M1631.553,1265.38c2.8,19.272-50.783-.356-66.1-29.869s-15.541-55.172-30.924-72.079C1534.533,1163.432,1617.771,1170.486,1631.553,1265.38Z" transform="translate(-1534.533 -1163.432)" fill="#48753a"/>
          </g>
        </g>
      </g>
    </g>
    <g id="Grupo_30778" data-name="Grupo 30778" transform="translate(1454.834 1149.04)">
      <path id="Trazado_64914" data-name="Trazado 64914" d="M1490.184,1273.214a13.287,13.287,0,0,0-3.893.573,11.119,11.119,0,0,0-20.818,1.335,8.1,8.1,0,0,0-2.876-.523,7.579,7.579,0,0,0-7.763,7.38h46.286C1501.12,1277.139,1496.225,1273.214,1490.184,1273.214Z" transform="translate(-1454.834 -1267.18)" fill="#fff"/>
    </g>
    <g id="Grupo_30788" data-name="Grupo 30788" transform="translate(1788.697 1299.55)">
      <g id="Grupo_30781" data-name="Grupo 30781" transform="translate(0 2.349)">
        <g id="Grupo_30780" data-name="Grupo 30780">
          <g id="Grupo_30779" data-name="Grupo 30779">
            <path id="Trazado_64915" data-name="Trazado 64915" d="M2076.505,1542.078l-43.2-3.976,11.545-6.07Z" transform="translate(-2033.306 -1532.032)" fill="#d6d6d6"/>
          </g>
        </g>
      </g>
      <g id="Grupo_30784" data-name="Grupo 30784" transform="translate(15.902 0)">
        <g id="Grupo_30783" data-name="Grupo 30783">
          <g id="Grupo_30782" data-name="Grupo 30782">
            <path id="Trazado_64916" data-name="Trazado 64916" d="M2088.156,1540.357l-18.258-12.394-9.04,3.732Z" transform="translate(-2060.858 -1527.963)" fill="#e8e8e8"/>
          </g>
        </g>
      </g>
      <g id="Grupo_30787" data-name="Grupo 30787" transform="translate(9.934 9.333)">
        <g id="Grupo_30786" data-name="Grupo 30786">
          <g id="Grupo_30785" data-name="Grupo 30785">
            <path id="Trazado_64917" data-name="Trazado 64917" d="M2050.519,1544.134l1.245,4.667,32.021-1.606Z" transform="translate(-2050.519 -1544.134)" fill="#c2c2c2"/>
          </g>
        </g>
      </g>
    </g>
    <path id="Trazado_64918" data-name="Trazado 64918" d="M1862.323,1187.314c-.3-61.166-59-110.464-131.1-110.108s-130.3,50.231-130,111.4a96.375,96.375,0,0,0,11.559,45.148c.042.081,40.254,77.739,46.258,151.567.171,34.532,33.307,62.364,74.013,62.163s73.565-28.359,73.395-62.891c5.279-73.922,44.76-152.016,44.76-152.016h0A96.4,96.4,0,0,0,1862.323,1187.314Z" transform="translate(-61.901 -37.808)" fill="url(#radial-gradient)"/>
    <path id="Trazado_64919" data-name="Trazado 64919" d="M1828.464,1750.312l-83.572.413a16.8,16.8,0,0,1-16.876-16.711l-.162-32.888,117.158-.578.163,32.887A16.794,16.794,0,0,1,1828.464,1750.312Z" transform="translate(-115.447 -301.392)" fill="#518afa"/>
    <path id="Trazado_64920" data-name="Trazado 64920" d="M1824.783,1692.549l-104.385.517a25.226,25.226,0,0,1-25.351-25.1l-.27-54.752,154.837-.764.27,54.751A25.227,25.227,0,0,1,1824.783,1692.549Z" transform="translate(-101.461 -264.138)" fill="url(#linear-gradient)"/>
    <g id="Grupo_30790" data-name="Grupo 30790" transform="translate(1580.03 1079.397)">
      <path id="Trazado_64921" data-name="Trazado 64921" d="M1851.437,1236.351a89.84,89.84,0,1,1-89.841-89.839A89.841,89.841,0,0,1,1851.437,1236.351Z" transform="translate(-1671.757 -1146.512)" fill="url(#radial-gradient-2)"/>
      <path id="Trazado_64922" data-name="Trazado 64922" d="M1872.8,1198.3s-2.5.43-2.5,2.084a22.529,22.529,0,0,0,.833,4.565l.831,3.118,2.428,2.077.9-1.232a4.29,4.29,0,0,1,1.871-.984c3.094-.372,3.118-1.281,3.118-1.281l2.7-1.492s1.038-2.074,0-2.7-4.041-2.495-4.3-2.495-1.721-3.948-1.721-3.948l-3.048-4.158s-2.148,1.723-1.732,2.839,1.04,1.526.831,2.565Z" transform="translate(-1755.713 -1165.685)" fill="#fff"/>
      <g id="Grupo_30789" data-name="Grupo 30789" transform="translate(0 0.231)">
        <path id="Trazado_64923" data-name="Trazado 64923" d="M1927.384,1283.3a21.178,21.178,0,0,1-5.112,2.127c-6.268,1.916-8.009,2.611-14.974,3.83s-14.624-1.914-20.718,1.916-7.2,3.947-7.2,3.947l-2.961.581s-7.983-1.27-9.283-.06c-1.132,1.057.291.06-4.933,6.328s-3.454,3.667-5.224,6.267c-3.857,5.673-4.874,3.135-3.483,8.358s7.314,10.1,7.314,10.1,9.052.7,10.795,1.394,14.624,1.568,14.624,1.568,9.222,13.232,10.962,16.016,1.873,5.731,3.141,10.8c.208.832.376,1.533.511,2.118a89.551,89.551,0,0,0,27.193-64.39A90.579,90.579,0,0,0,1927.384,1283.3Z" transform="translate(-1748.356 -1204.584)" fill="#fff"/>
        <path id="Trazado_64924" data-name="Trazado 64924" d="M1899.6,1225c.833,1.875,1.458-4.58,3.957-4.788s.209-1.874-2.5-3.4-4.581-7.844-6.244-9.93,2.5-6.663,6.663-8.465,3.332,2.223,5.2,4.093-.415,3.54,1.25,6.766,1.876,3.853,3.722,2.812-.8-2.2-1.084-5.828c-.137-1.738-.137-3.538,2.568-1.292,2.65,2.2,3.9,9.9,3.366.6a89.9,89.9,0,0,0-77.932-58.653l13.539,6.816,7.441,3.022s10.934,1.395,12.1,2.325,1.163,3.724,2.327,4.33,5.813,4.975,12.093,6.6c3.677.954,5.042,4.869,5.542,7.944a4.075,4.075,0,0,0-1.79,3.11c0,.835,1.042,1.879.834,2.966s-2.914.786-4.789.252-.833-.092-1.875,0-2.7,1.363-4.163,3.274-4.581,1.841-7.08,2.268-1.873-1.053-5.2,0-4.79,8.314-3.539,11.438.622,5-.212,8.015-2,4.329-2.287,13.435c-.482,15.194,6.246,8.945,10.412,9.574s3.539-1.457,4.37-3.125-1.875-6.035-2.081-9.992-.419-4.79,0-5.856,2.288-3.1,3.953-4.974,6.04-2.078,7.5-2.078,9.994,8.329,12.7,12.075S1898.764,1223.125,1899.6,1225Z" transform="translate(-1742.293 -1146.912)" fill="#fff"/>
        <path id="Trazado_64925" data-name="Trazado 64925" d="M1681.323,1208.428a1.984,1.984,0,0,0-.048.295c-.219,3.166-1.549,6.636-3.351,10.5-1.474,3.173-1.772,4.183-2.7,5.259a1.821,1.821,0,0,0-.225.335,89.931,89.931,0,0,0-3.241,23.977c0,1.779.058,3.545.159,5.3a1.755,1.755,0,0,0,.338.664l.974,1.188a1.732,1.732,0,0,0,1.282.637c1.014.024,2.684.312,2.481,1.948-.286,2.338,1.322,4.809,1.244,5.815s2.458,1.262,2.3,5.219a20.765,20.765,0,0,0,.479,5.83,1.754,1.754,0,0,1,.052.571c-.07.941-.292,3.894-.482,6.385a9.192,9.192,0,0,0,1.887,6.2c.85,1.325,1.174,1.722,1.2,4.707a1.823,1.823,0,0,0,.05.364A90.02,90.02,0,0,0,1739.1,1335.8a4.962,4.962,0,0,0,.554-1.683v-.016c.067-.877.608-4.961.72-5.806a1.485,1.485,0,0,0,.014-.307c-.039-.878-.218-5.33.2-6.816.458-1.644-.829-2.406-3.806-7.676s.024-4.707.6-8.027.333-4.348,1.153-6.307,0,0-.548-1.724-8.781-9.864-10.775-13.255-3.628-.945-6.616-1.509,0,0-6.742-.943c-3.377-.47-3.517.473-4.644.264-1.479-.271-2.715.293-5.06-.38s-5.624,2.823-7.565,1.726a11.221,11.221,0,0,1-3.07-2.524c-.884-.816-3.749-1.069-4.911-4.472s.063-2.861-.821-5.864-.575-3.5-.886-3.852-2.453-2.034-1.155-5.893c.606-1.8-.53-.8-.226-4.809s3.2-1.219,4.679-2.946,3.433-.933,5.306-3.48,5.556-2.277,8.736-5.377,6.232-3.319,6.518-3.977l9.919-7.4c.048-.038.092-.074.136-.116a4.062,4.062,0,0,0,.374-5.9c-2.783-3.234,1.268-3.436-2.783-3.234a9.991,9.991,0,0,0-5.108,1.772,1.741,1.741,0,0,1-2.5-.567c-.4-.694-.859-1.46-1.283-2.046-.829-1.151-2.783-3.814-3.5-4.8a1.741,1.741,0,0,0-.695-.555c-.711-.32-2.145-.941-3.03-1.236a1.765,1.765,0,0,1-1.112-1.072c-.253-.712-.5-1.423-.712-2.114a1.744,1.744,0,0,1,.842-2.068l7.916-4.221a1.738,1.738,0,0,1,2.328.661,11.807,11.807,0,0,0,3.1,3.675c1.961,1.385,5.444,1.966,6.646,2.13a1.719,1.719,0,0,0,.777-.078c.636-.206,1.936-.518,2.155.319a12.047,12.047,0,0,0,4.415,6.245,1.743,1.743,0,0,0,2.735-.892l2.649-9.006a1.759,1.759,0,0,1,.274-.548l5.472-7.4a4.719,4.719,0,0,0,.51-4.734l-.982-2.176a3.755,3.755,0,0,0-3.132-2.195l-2.8-.209-10.691-.241a1.748,1.748,0,0,1-1.333-.671c-.533-.676-1.584-1.409-3.077.391l-1.64,1.98a1.738,1.738,0,0,1-1.492.627l-7.412-.641a1.7,1.7,0,0,1-.387-.076c-.525-.171-2.044-.66-3.038-.915a1.743,1.743,0,0,1-1.062-.81c-.3-.491-.839-1.076-.853-1.625-.12-6.936,5.193-12.94,6.652-14.455A90.23,90.23,0,0,0,1681.323,1208.428Z" transform="translate(-1671.757 -1159.189)" fill="#fff"/>
      </g>
    </g>
    <g id="Grupo_30791" data-name="Grupo 30791" transform="translate(1553.371 1017.992)">
      <path id="Trazado_64926" data-name="Trazado 64926" d="M1629.435,1090.321l-3.87-2.847c.44-.6,11.039-14.817,32.327-27.634,19.608-11.8,52.334-24.5,96.887-17.923l-.7,4.755C1671.575,1034.5,1629.846,1089.763,1629.435,1090.321Z" transform="translate(-1625.565 -1040.118)" fill="url(#radial-gradient-3)"/>
    </g>
    <path id="Trazado_64927" data-name="Trazado 64927" d="M2083.842,1181.225a11.484,11.484,0,0,0-7.188,2.509,20.361,20.361,0,0,0-35.643-1.508,10.96,10.96,0,0,0-8.773,1.274,17.222,17.222,0,0,0-31.729,9.284H2095.4A11.559,11.559,0,0,0,2083.842,1181.225Z" transform="translate(-230.74 -78.074)" fill="#f3f3f3"/>
    <g id="Grupo_30792" data-name="Grupo 30792" transform="translate(1525.768 987.792)">
      <path id="Trazado_64928" data-name="Trazado 64928" d="M1819.108,1310.084l-.011-1.2c1.729-.017,3.331-.055,4.79-.1l.041,1.2C1822.46,1310.03,1820.848,1310.067,1819.108,1310.084Zm-4.824-.01q-2.312-.031-4.825-.119l.044-1.2c1.664.061,3.266.1,4.8.118Zm14.46-.322-.073-1.2c3.011-.183,4.744-.377,4.761-.38l.134,1.194C1833.55,1309.371,1831.79,1309.568,1828.744,1309.753Zm-24.107-.028q-2.345-.137-4.812-.34l.1-1.2q2.449.2,4.786.338Zm-9.617-.794q-2.358-.253-4.792-.571l.157-1.192q2.416.32,4.761.569Zm-9.567-1.265q-2.356-.372-4.756-.82l.221-1.18q2.381.443,4.723.815Zm-9.487-1.773q-2.342-.506-4.7-1.09l.289-1.165q2.342.579,4.667,1.082Zm-9.368-2.325c-1.557-.44-3.113-.907-4.625-1.39l.366-1.143c1.5.477,3.042.941,4.585,1.377Zm-9.2-2.938c-1.522-.548-3.04-1.125-4.514-1.719l.449-1.114c1.459.587,2.963,1.161,4.471,1.7Zm-8.955-3.614c-1.473-.662-2.937-1.36-4.352-2.073l.54-1.072c1.4.7,2.848,1.394,4.3,2.051Zm-8.607-4.338c-1.408-.79-2.8-1.618-4.146-2.46l.638-1.018c1.327.832,2.706,1.651,4.1,2.433Zm-8.175-5.131c-1.323-.927-2.63-1.895-3.884-2.877l.74-.945c1.238.967,2.527,1.922,3.833,2.838Zm-7.606-5.963c-1.211-1.063-2.4-2.171-3.54-3.292l.843-.855c1.122,1.105,2.3,2.2,3.49,3.245Zm-6.883-6.787c-1.074-1.194-2.127-2.434-3.126-3.688l.94-.749c.983,1.235,2.02,2.459,3.079,3.634Zm-6.022-7.558c-.922-1.314-1.814-2.674-2.654-4.041l1.023-.627c.827,1.345,1.706,2.683,2.615,3.978Zm-5.059-8.234c-.751-1.407-1.475-2.862-2.15-4.329l1.092-.5c.665,1.444,1.378,2.878,2.118,4.264Zm-4.045-8.771c-.582-1.48-1.135-3.009-1.643-4.543l1.14-.377c.5,1.513,1.046,3.021,1.621,4.48Zm-3.04-9.165c-.419-1.532-.81-3.111-1.159-4.692l1.173-.259c.345,1.561.731,3.121,1.145,4.633Zm-2.064-9.448c-.248-1.591-.444-3.209-.583-4.81l1.2-.1c.136,1.575.33,3.165.574,4.729Zm-.833-9.65q-.011-.6-.01-1.21c0-1.2.031-2.421.093-3.627l1.2.063c-.06,1.184-.091,2.385-.091,3.566,0,.4,0,.792.01,1.191Zm1.684-9.522-1.193-.141c.186-1.58.428-3.186.719-4.778l1.182.216C1698.216,1209.311,1697.978,1210.893,1697.795,1212.448Zm1.7-9.347-1.166-.287c.376-1.535.807-3.1,1.281-4.66l1.15.351C1700.293,1200.041,1699.868,1201.587,1699.5,1203.1Zm2.774-9.12-1.13-.41c.538-1.485,1.127-3,1.752-4.5l1.109.462C1703.384,1191.015,1702.8,1192.514,1702.27,1193.982Zm3.66-8.822-1.088-.507c.664-1.424,1.378-2.883,2.124-4.334l1.07.548C1707.3,1182.3,1706.588,1183.751,1705.93,1185.16Zm4.365-8.51-1.049-.585q1.169-2.1,2.415-4.176l1.03.616Q1711.458,1174.569,1710.3,1176.651Zm4.913-8.223-1.015-.643q1.287-2.027,2.635-4.037l1,.667Q1716.49,1166.415,1715.209,1168.428Zm5.326-7.97-.984-.688q1.377-1.968,2.8-3.923l.971.705Q1721.907,1158.5,1720.535,1160.458Zm5.626-7.755-.961-.721q1.439-1.92,2.908-3.827l.952.732Q1727.6,1150.788,1726.161,1152.7Zm5.845-7.6-.944-.742q1.486-1.892,2.991-3.775l.938.75Q1733.492,1143.21,1732.007,1145.1Zm6-7.52-.935-.755q1.518-1.879,3.04-3.747l.931.757Q1739.523,1135.7,1738.007,1137.579Zm6.122-7.531-.979-.7,3.037-3.727.932.758Zm6.02-7.408-.934-.754q1.515-1.877,3.008-3.745l.939.747Q1751.668,1120.763,1750.148,1122.641Zm6-7.528-.945-.741q1.49-1.9,2.94-3.8l.954.731Q1757.641,1113.206,1756.146,1115.114Zm5.846-7.654-.965-.716q1.44-1.943,2.823-3.879l.978.7Q1763.441,1105.508,1761.992,1107.46Zm5.591-7.853-.993-.675q1.359-2,2.641-4l1.011.648Q1768.955,1097.595,1767.583,1099.607Zm5.2-8.127-1.032-.614c.834-1.4,1.633-2.8,2.371-4.152l1.055.576C1774.429,1088.658,1773.623,1090.068,1772.781,1091.48Zm4.613-8.481-1.08-.528c.713-1.462,1.379-2.922,1.979-4.338l1.106.468C1778.792,1080.037,1778.116,1081.517,1777.395,1083Zm3.757-8.9-1.134-.4c.537-1.522,1.015-3.049,1.421-4.535l1.158.318C1782.185,1070.989,1781.7,1072.543,1781.152,1074.094Zm2.534-9.335-1.18-.222c.294-1.57.516-3.146.661-4.687l1.2.112C1784.215,1061.538,1783.987,1063.152,1783.686,1064.759Zm-204.838-5.145-1.11-.458a33.1,33.1,0,0,1,1.955-3.9l1.04.6A31.908,31.908,0,0,0,1578.848,1059.613Zm204.531-4.5a45.806,45.806,0,0,0-.273-4.73l1.2-.131a47.121,47.121,0,0,1,.279,4.856Zm-200.07-3.254-.982-.693c.88-1.249,1.862-2.55,2.919-3.869l.937.75C1585.142,1049.348,1584.175,1050.631,1583.309,1051.86Zm199.031-6.152a46.291,46.291,0,0,0-1.248-4.573l1.141-.375a47.879,47.879,0,0,1,1.281,4.692Zm-193.075-1.315-.9-.8c1.033-1.169,2.133-2.366,3.271-3.558l.869.829C1591.377,1042.048,1590.287,1043.233,1589.265,1044.393Zm6.607-6.931-.84-.859q1.685-1.65,3.5-3.323l.814.885Q1597.546,1035.822,1595.871,1037.462Zm183.523-.757c-.622-1.419-1.327-2.852-2.1-4.262l1.054-.576c.787,1.439,1.508,2.9,2.144,4.355Zm-176.475-5.736-.788-.906q1.79-1.558,3.683-3.119l.764.927Q1604.7,1029.419,1602.92,1030.969Zm171.932-2.6c-.844-1.292-1.768-2.6-2.742-3.892l.959-.726c.991,1.314,1.929,2.647,2.789,3.962Zm-164.536-3.494-.739-.947q1.878-1.469,3.837-2.924l.716.964Q1612.184,1023.41,1610.316,1024.871Zm158.8-4.112c-1.007-1.177-2.084-2.366-3.2-3.54l.87-.828c1.131,1.186,2.221,2.394,3.242,3.586Zm-151.106-1.606-.693-.982q1.956-1.377,3.975-2.732l.669,1Q1619.956,1017.782,1618.012,1019.154Zm144.537-5.318c-1.152-1.106-2.337-2.191-3.521-3.224l.79-.906c1.2,1.045,2.4,2.145,3.563,3.263Zm-136.571-.017-.644-1.015q2.023-1.283,4.1-2.534l.619,1.028Q1627.989,1012.54,1625.978,1013.818Zm8.217-4.937-.593-1.045q2.087-1.184,4.225-2.326l.565,1.061Q1636.272,1007.7,1634.2,1008.882Zm121.16-1.319c-1.251-.987-2.536-1.95-3.822-2.858l.694-.981c1.3.922,2.6,1.9,3.871,2.9Zm-112.706-3.193-.538-1.075q2.152-1.076,4.344-2.1l.509,1.087Q1644.787,1003.3,1642.649,1004.37Zm104.918-2.317c-1.343-.847-2.725-1.666-4.1-2.432l.584-1.05c1.4.777,2.8,1.6,4.16,2.464Zm-96.224-1.737-.478-1.1q2.217-.957,4.465-1.853l.443,1.116Q1653.543,999.362,1651.344,1000.316Zm87.887-2.892c-1.426-.691-2.89-1.347-4.35-1.953l.46-1.11c1.481.615,2.966,1.282,4.413,1.981Zm-78.975-.652-.41-1.129q2.268-.823,4.564-1.574l.374,1.143Q1662.506,995.955,1660.256,996.771Zm9.1-2.969-.334-1.153c1.551-.449,3.118-.874,4.657-1.261l.293,1.166C1672.448,992.938,1670.895,993.356,1669.357,993.8Zm61.067-.031c-1.494-.521-3.024-1.007-4.549-1.442l.329-1.155c1.546.441,3.1.934,4.614,1.462Zm-51.8-2.3-.249-1.175c1.578-.335,3.172-.641,4.737-.908l.2,1.184C1681.769,990.842,1680.192,991.144,1678.628,991.475Zm42.624-.326c-1.54-.347-3.115-.657-4.681-.918l.2-1.185c1.588.266,3.185.579,4.746.93Zm-33.212-1.282-.153-1.191c1.6-.206,3.215-.377,4.8-.511l.1,1.2C1691.221,989.493,1689.624,989.664,1688.04,989.867Zm23.805-.3c-1.563-.176-3.164-.313-4.755-.408l.072-1.2c1.612.1,3.233.236,4.817.414Zm-14.3-.5-.047-1.2q1.944-.075,3.889-.074l.94,0-.011,1.2-.929,0Q1699.469,988.993,1697.549,989.067Z" transform="translate(-1577.738 -987.792)" fill="#e6e6e6"/>
    </g>
    <g id="Grupo_31028" data-name="Grupo 31028" transform="translate(1503.681 1260.552)">
      <g id="Grupo_30793" data-name="Grupo 30793" transform="translate(203.16 204.603)">
        <path id="Trazado_64929" data-name="Trazado 64929" d="M1904.81,1814.9s7.847,7.011,12.4,7.324,25.994,3.072,26.935,3.386.609,7.061.609,7.061-28.018,7.167-38.687,2.617l-.68,1.987s-12.4,1.935-13.024.838-1.535-12.8-.178-16.676S1904.81,1814.9,1904.81,1814.9Z" transform="translate(-1891.478 -1814.9)" fill="#452a20"/>
      </g>
      <g id="Grupo_30794" data-name="Grupo 30794" transform="translate(200.358 199.734)">
        <path id="Trazado_64930" data-name="Trazado 64930" d="M1900.152,1806.465l2.6,4.869-12.627,6.536-3.508-4.657Z" transform="translate(-1886.623 -1806.465)" fill="#0f151f"/>
      </g>
      <g id="Grupo_30795" data-name="Grupo 30795" transform="translate(272.978 157.855)">
        <path id="Trazado_64931" data-name="Trazado 64931" d="M2014.314,1762.19s9.6-2.168,12.215-5.907,16.456-21.661,17.209-22.307,6.368,3.113,6.368,3.113-8.274,27.709-17.666,34.516l1.355,1.607s-4.72,11.624-5.985,11.6-11.767-5.272-14.39-8.428S2014.314,1762.19,2014.314,1762.19Z" transform="translate(-2012.449 -1733.902)" fill="#452a20"/>
      </g>
      <g id="Grupo_30796" data-name="Grupo 30796" transform="translate(268.153 185.873)">
        <path id="Trazado_64932" data-name="Trazado 64932" d="M2005.262,1782.447l5.516.271-.893,14.191-5.8.611Z" transform="translate(-2004.088 -1782.447)" fill="#0f151f"/>
      </g>
      <g id="Grupo_30797" data-name="Grupo 30797" transform="translate(60.733 162.515)">
        <path id="Trazado_64933" data-name="Trazado 64933" d="M1856.9,1763.472l-1.886,20.09s-59.446-4.64-70.934-5.341-26.579-2.817-37.454-2.192c-6.948.4-44.595.676-71.43.739-4.743.012-9.153.012-12.99.012h-.013c-8.464,0-14.163-.051-14.635-.127-1.887-.305-18.357-28.862,55.635-34.676,0,0,46.786,8.937,55.366,10.2s47.246,7.892,56.947,8.185S1856.9,1763.472,1856.9,1763.472Z" transform="translate(-1644.699 -1741.977)" fill="#c4b5af"/>
      </g>
      <g id="Grupo_30798" data-name="Grupo 30798" transform="translate(10.05 115.569)">
        <path id="Trazado_64934" data-name="Trazado 64934" d="M1606.827,1668.447h-49.944c1.556-3.724,2.489-6.007,2.489-6.007q.229-.92.489-1.8h46.722Z" transform="translate(-1556.883 -1660.635)" fill="#3c6399"/>
      </g>
      <g id="Grupo_30799" data-name="Grupo 30799" transform="translate(37.189 55.567)">
        <path id="Trazado_64935" data-name="Trazado 64935" d="M1656.107,1562.745s16.633,5.752,20.085,10.147-2.406,42.784-2.406,42.784l.42,38.289s-39.334,20.085-60.465,21.34c0,0-5.858-29.5-5.649-42.681s-2.093-40.379-2.093-40.379,2.093-20.924-2.092-27.409c0,0,23.014-7.95,31.174-8.159S1656.107,1562.745,1656.107,1562.745Z" transform="translate(-1603.906 -1556.672)" fill="#285173"/>
      </g>
      <g id="Grupo_30800" data-name="Grupo 30800" transform="translate(0.914 63.732)">
        <path id="Trazado_64936" data-name="Trazado 64936" d="M1577.328,1570.818s-9.908,9.622-12.834,13.995c-3.281,4.9-24.054,36.809-23.427,40.417s3.609,6.59,13.181,9.257,41.58,11.769,41.58,11.769l5.806-12.71s-33.265-9.185-36.875-11.575,14.829-21.683,14.829-21.683S1587.072,1576.346,1577.328,1570.818Z" transform="translate(-1541.053 -1570.818)" fill="#285173"/>
      </g>
      <g id="Grupo_30801" data-name="Grupo 30801" transform="translate(102.754 71.777)">
        <path id="Trazado_64937" data-name="Trazado 64937" d="M1724.229,1584.769s20.9,30.194,23.57,33.019-16.318,8.472-16.318,8.472-9.729-19.368-12.238-20.745S1715.881,1584.23,1724.229,1584.769Z" transform="translate(-1717.508 -1584.758)" fill="#285173"/>
      </g>
      <g id="Grupo_30802" data-name="Grupo 30802" transform="translate(47.115 129.702)">
        <path id="Trazado_64938" data-name="Trazado 64938" d="M1621.146,1734.6s-1.389,18.037,12.21,19.5,28.577-2.721,48.182-13.183,45.81-22.176,50.283-20.294,39.83,45.935,39.83,45.935l20.5-9.322s-38.079-51.832-39.752-56.148-9.206-16.674-16.948-15.935-114.351,40.106-114.351,40.106Z" transform="translate(-1621.105 -1685.123)" fill="#c4b5af"/>
      </g>
      <g id="Grupo_30803" data-name="Grupo 30803" transform="translate(67.531 1.125)">
        <path id="Trazado_64939" data-name="Trazado 64939" d="M1682,1462.6c7.791.718,15.588,10.88,12.135,28.141s-12.24,27.085-20.295,26.044-10.338-8.05-14.375-17.988-3.968-27.2.13-30.233S1667.249,1461.241,1682,1462.6Z" transform="translate(-1656.478 -1462.342)" fill="#eea886"/>
      </g>
      <g id="Grupo_30804" data-name="Grupo 30804" transform="translate(68.569 31.522)">
        <path id="Trazado_64940" data-name="Trazado 64940" d="M1680.042,1536.24s-.226.842-.528,2.139v.012c-.276,1.249-.612,2.918-.841,4.637a21.823,21.823,0,0,0-.2,5.235s-11.928,5.238-20.193-5.021c0,0,3.147-16.253.637-26.174S1680.042,1536.24,1680.042,1536.24Z" transform="translate(-1658.276 -1515.009)" fill="#eea886"/>
      </g>
      <g id="Grupo_30805" data-name="Grupo 30805" transform="translate(65.648)">
        <path id="Trazado_64941" data-name="Trazado 64941" d="M1693.6,1488.936s-10.652-5.311-16.2-6.251-10.693,1.478-9.437,6.813l-3.348,1.361s-6.124,3.132-7.194,6.693c0,0-3.865-16.426-4.191-22.251-.355-6.367,6.259-16.139,26.03-14.779S1693.495,1486.594,1693.6,1488.936Z" transform="translate(-1653.216 -1460.393)" fill="#283b54"/>
      </g>
      <g id="Grupo_30806" data-name="Grupo 30806" transform="translate(71.475 22.853)">
        <path id="Trazado_64942" data-name="Trazado 64942" d="M1669.929,1503.835c-.437-2.261-3.975-5.962-6.067-2.3s2.3,9.834,4.6,9.834S1670.557,1507.079,1669.929,1503.835Z" transform="translate(-1663.313 -1499.989)" fill="#eea886"/>
      </g>
      <g id="Grupo_30810" data-name="Grupo 30810" transform="translate(11.69 87.492)">
        <g id="Grupo_30809" data-name="Grupo 30809">
          <g id="Grupo_30808" data-name="Grupo 30808">
            <g id="Grupo_30807" data-name="Grupo 30807">
              <path id="Trazado_64943" data-name="Trazado 64943" d="M1674.513,1625.588c-4.588-8.493-14.814-20.91-31.623-8.079-23.9,18.24-26.458-3.4-56.364,8.379-21.144,8.327-32.843,30.595-23.611,53.448l.33.855a43.883,43.883,0,0,0,4.169,7.938c11.018,16.528,31.407,21.218,49.873,13.946,29.907-11.778,22.865-30.663,46.114-33.794,26.276-3.539-3.942-23.376-3.942-23.376l17.92-12.85A42.934,42.934,0,0,0,1674.513,1625.588Z" transform="translate(-1559.725 -1611.986)" fill="#fcbc79"/>
            </g>
          </g>
        </g>
      </g>
      <g id="Grupo_30814" data-name="Grupo 30814" transform="translate(10.203 86.086)">
        <g id="Grupo_30813" data-name="Grupo 30813">
          <g id="Grupo_30812" data-name="Grupo 30812">
            <g id="Grupo_30811" data-name="Grupo 30811">
              <path id="Trazado_64944" data-name="Trazado 64944" d="M1674.775,1623.873c-3.068-5.68-8.405-12.735-16.4-14.092-5.489-.932-11.37.962-17.484,5.628-12.057,9.2-18.175,7.794-25.922,6.011-7.276-1.674-15.524-3.571-30.049,2.148a43.892,43.892,0,0,0-24.05,22.064c-4.794,10.28-4.955,22.083-.458,33.211l.336.874q.245.6.505,1.2a44.751,44.751,0,0,0,3.786,6.97c10.99,16.489,31.761,22.3,51.683,14.45,15.429-6.075,21.454-14.2,26.3-20.729,4.763-6.423,8.526-11.5,19.433-12.965,6.854-.923,10.843-3.1,11.856-6.457,2-6.642-9.02-15.253-13.432-18.379l17.162-12.308-.3-.944c-.015-.044-.153-.467-.421-1.169A47.158,47.158,0,0,0,1674.775,1623.873Zm-18.943,20.1,1.629,1.071c6.108,4.014,15.3,12.048,13.949,16.517-.8,2.636-5.463,3.8-9.237,4.3-12.275,1.652-16.6,7.48-21.6,14.229-4.841,6.529-10.33,13.929-24.895,19.665-18.526,7.294-37.841,1.893-48.064-13.443a42.77,42.77,0,0,1-3.84-7.207c-.066-.16-.132-.319-.2-.479l-.337-.875c-8.474-20.979,1.292-43.162,22.72-51.6,13.582-5.349,21.319-3.567,28.145-2,7.887,1.814,15.335,3.53,28.614-6.605,5.362-4.094,10.4-5.777,14.965-5,6.856,1.163,11.61,7.546,14.392,12.695a45.651,45.651,0,0,1,2.125,4.52c.123.306.23.578.317.81l-6.983,5.007Z" transform="translate(-1557.149 -1609.55)" fill="#e0a76c"/>
            </g>
          </g>
        </g>
      </g>
      <g id="Grupo_30817" data-name="Grupo 30817" transform="translate(31.86 126.389)">
        <g id="Grupo_30816" data-name="Grupo 30816">
          <g id="Grupo_30815" data-name="Grupo 30815">
            <path id="Trazado_64945" data-name="Trazado 64945" d="M1610.616,1706.457l-10.936-27.074-5.008,1.972,1.639,4.057-1.287.507,8.161,20.2h0l2.358,5.837,1.287-.507,1.639,4.055,5.007-1.971Z" transform="translate(-1594.672 -1679.383)" fill="#56361b"/>
          </g>
        </g>
      </g>
      <g id="Grupo_30827" data-name="Grupo 30827" transform="translate(215.195 58.659)">
        <g id="Grupo_30820" data-name="Grupo 30820" transform="translate(11.336)">
          <g id="Grupo_30819" data-name="Grupo 30819">
            <g id="Grupo_30818" data-name="Grupo 30818">
              <path id="Trazado_64946" data-name="Trazado 64946" d="M1936.131,1567.289l-.743-1.839h0l1.587-1.244-.88-2.178-2.309.2-1.815,1.42.879,2.178,2.019-.177.743,1.841h0l.259-.1h0Z" transform="translate(-1931.971 -1562.028)" fill="#c9954a"/>
            </g>
          </g>
        </g>
        <g id="Grupo_30823" data-name="Grupo 30823" transform="translate(5.667 2.536)">
          <g id="Grupo_30822" data-name="Grupo 30822">
            <g id="Grupo_30821" data-name="Grupo 30821">
              <path id="Trazado_64947" data-name="Trazado 64947" d="M1927.152,1568.6l-.879-2.177-2.308.2-.019.015-1.8,1.406.879,2.178,2.018-.177.685,1.693.12-.046.4-.157-.683-1.693Z" transform="translate(-1922.148 -1566.422)" fill="#c9954a"/>
            </g>
          </g>
        </g>
        <g id="Grupo_30826" data-name="Grupo 30826" transform="translate(0 5.071)">
          <g id="Grupo_30825" data-name="Grupo 30825">
            <g id="Grupo_30824" data-name="Grupo 30824">
              <path id="Trazado_64948" data-name="Trazado 64948" d="M1917.334,1572.992l-.88-2.177-2.31.2-.019.015-1.8,1.407.879,2.177,2.018-.175.625,1.545.52-.205-.625-1.545Z" transform="translate(-1912.33 -1570.814)" fill="#c9954a"/>
            </g>
          </g>
        </g>
      </g>
      <g id="Grupo_30832" data-name="Grupo 30832" transform="translate(71.979 117.374)">
        <g id="Grupo_30831" data-name="Grupo 30831">
          <g id="Grupo_30830" data-name="Grupo 30830">
            <g id="Grupo_30829" data-name="Grupo 30829">
              <g id="Grupo_30828" data-name="Grupo 30828">
                <path id="Trazado_64949" data-name="Trazado 64949" d="M1685.784,1670.489a11.278,11.278,0,1,0-6.445,14.268A11.278,11.278,0,0,0,1685.784,1670.489Z" transform="translate(-1664.186 -1663.762)" fill="#392412"/>
              </g>
            </g>
          </g>
        </g>
      </g>
      <g id="Grupo_30837" data-name="Grupo 30837" transform="translate(87.913 62.242)">
        <g id="Grupo_30836" data-name="Grupo 30836">
          <g id="Grupo_30835" data-name="Grupo 30835">
            <g id="Grupo_30834" data-name="Grupo 30834">
              <g id="Grupo_30833" data-name="Grupo 30833">
                <path id="Trazado_64950" data-name="Trazado 64950" d="M1842.277,1578.984l-20.017,7.341a1.345,1.345,0,0,1-.473.088l-.659,0-.843.01-.287,0a1.3,1.3,0,0,0-.188.014,1.351,1.351,0,0,0-.166.037,1.116,1.116,0,0,0-.171.055l-5.351,2.219-.57.235-4.045,1.678-.567.237-2.183.9-.567.236-5.855,2.427-.567.237-.082.032-.569.237-6.506,2.7-.567.236-6.5,2.7-.57.234-6.5,2.7-.567.234-6.506,2.7-.567.236-6.776,2.81-.569.236-6.776,2.809-.567.236-7.758,3.218-.569.235-7.757,3.217-.569.236-5.592,2.318-.569.237-5.593,2.319-.568.234-4.064,1.684-.57.236-3.844,1.6-.57.236-3.984,1.652-.567.237-3.676,1.523-.567.235-3.678,1.522-.566.236-3.676,1.526-.57.236-3.888,1.61-.069.032-5.085-12.586.072-.028,3.944-1.472.576-.216,3.731-1.391.576-.215,3.728-1.393.577-.215,3.728-1.387.577-.218,4.043-1.509.577-.216,3.9-1.456.577-.215,4.124-1.539.576-.215,5.675-2.117.577-.215,5.672-2.119.576-.215,7.874-2.937.574-.215,7.871-2.939.577-.213,6.875-2.567.577-.215,6.875-2.567.577-.215,6.6-2.463.577-.215,6.6-2.462.576-.215,6.6-2.464.577-.215,6.6-2.462.577-.215.08-.03.576-.215,5.94-2.22.577-.212,2.213-.827.577-.216,4.106-1.531.574-.215,5.432-2.026a1.734,1.734,0,0,0,.162-.074,1.112,1.112,0,0,0,.146-.088,1.269,1.269,0,0,0,.146-.115l.211-.2.618-.564.481-.445a1.409,1.409,0,0,1,.4-.259l19.639-8.275a2.055,2.055,0,0,1,2.5,1.426l2.617,6.478A2.012,2.012,0,0,1,1842.277,1578.984Z" transform="translate(-1691.793 -1568.237)" fill="#63402a"/>
              </g>
            </g>
          </g>
        </g>
      </g>
      <g id="Grupo_30843" data-name="Grupo 30843" transform="translate(184.464 82.537)">
        <g id="Grupo_30842" data-name="Grupo 30842">
          <g id="Grupo_30841" data-name="Grupo 30841">
            <g id="Grupo_30840" data-name="Grupo 30840">
              <g id="Grupo_30839" data-name="Grupo 30839">
                <g id="Grupo_30838" data-name="Grupo 30838">
                  <path id="Trazado_64951" data-name="Trazado 64951" d="M1859.084,1603.618l3.7,9.161.569-.236-3.692-9.14Z" transform="translate(-1859.084 -1603.402)" fill="#cebfae"/>
                </g>
              </g>
            </g>
          </g>
        </g>
      </g>
      <g id="Grupo_30849" data-name="Grupo 30849" transform="translate(192.299 79.615)">
        <g id="Grupo_30848" data-name="Grupo 30848">
          <g id="Grupo_30847" data-name="Grupo 30847">
            <g id="Grupo_30846" data-name="Grupo 30846">
              <g id="Grupo_30845" data-name="Grupo 30845">
                <g id="Grupo_30844" data-name="Grupo 30844">
                  <path id="Trazado_64952" data-name="Trazado 64952" d="M1876.816,1607.2l-.567.236-3.59-8.882.576-.215Z" transform="translate(-1872.659 -1598.338)" fill="#cebfae"/>
                </g>
              </g>
            </g>
          </g>
        </g>
      </g>
      <g id="Grupo_30855" data-name="Grupo 30855" transform="translate(201.605 76.139)">
        <g id="Grupo_30854" data-name="Grupo 30854">
          <g id="Grupo_30853" data-name="Grupo 30853">
            <g id="Grupo_30852" data-name="Grupo 30852">
              <g id="Grupo_30851" data-name="Grupo 30851">
                <g id="Grupo_30850" data-name="Grupo 30850">
                  <path id="Trazado_64953" data-name="Trazado 64953" d="M1892.806,1600.848l-.568.237-3.455-8.553.577-.215Z" transform="translate(-1888.783 -1592.316)" fill="#cebfae"/>
                </g>
              </g>
            </g>
          </g>
        </g>
      </g>
      <g id="Grupo_30861" data-name="Grupo 30861" transform="translate(212.455 71.893)">
        <g id="Grupo_30860" data-name="Grupo 30860">
          <g id="Grupo_30859" data-name="Grupo 30859">
            <g id="Grupo_30858" data-name="Grupo 30858">
              <g id="Grupo_30857" data-name="Grupo 30857">
                <g id="Grupo_30856" data-name="Grupo 30856">
                  <path id="Trazado_64954" data-name="Trazado 64954" d="M1911.533,1593.5l-.287,0a1.3,1.3,0,0,0-.188.014,1.351,1.351,0,0,0-.166.037l-3.309-8.193a1.112,1.112,0,0,0,.146-.088,1.269,1.269,0,0,0,.146-.115l.211-.2Z" transform="translate(-1907.582 -1584.959)" fill="#cebfae"/>
                </g>
              </g>
            </g>
          </g>
        </g>
      </g>
      <g id="Grupo_30867" data-name="Grupo 30867" transform="translate(177.29 85.214)">
        <g id="Grupo_30866" data-name="Grupo 30866">
          <g id="Grupo_30865" data-name="Grupo 30865">
            <g id="Grupo_30864" data-name="Grupo 30864">
              <g id="Grupo_30863" data-name="Grupo 30863">
                <g id="Grupo_30862" data-name="Grupo 30862">
                  <path id="Trazado_64955" data-name="Trazado 64955" d="M1846.654,1608.257l3.8,9.414.569-.234-3.8-9.4Z" transform="translate(-1846.654 -1608.04)" fill="#cebfae"/>
                </g>
              </g>
            </g>
          </g>
        </g>
      </g>
      <g id="Grupo_30873" data-name="Grupo 30873" transform="translate(170.116 87.892)">
        <g id="Grupo_30872" data-name="Grupo 30872">
          <g id="Grupo_30871" data-name="Grupo 30871">
            <g id="Grupo_30870" data-name="Grupo 30870">
              <g id="Grupo_30869" data-name="Grupo 30869">
                <g id="Grupo_30868" data-name="Grupo 30868">
                  <path id="Trazado_64956" data-name="Trazado 64956" d="M1834.223,1612.9l3.906,9.671.568-.236-3.9-9.65Z" transform="translate(-1834.223 -1612.681)" fill="#cebfae"/>
                </g>
              </g>
            </g>
          </g>
        </g>
      </g>
      <g id="Grupo_30879" data-name="Grupo 30879" transform="translate(162.941 90.571)">
        <g id="Grupo_30878" data-name="Grupo 30878">
          <g id="Grupo_30877" data-name="Grupo 30877">
            <g id="Grupo_30876" data-name="Grupo 30876">
              <g id="Grupo_30875" data-name="Grupo 30875">
                <g id="Grupo_30874" data-name="Grupo 30874">
                  <path id="Trazado_64957" data-name="Trazado 64957" d="M1821.791,1617.538l4.009,9.923.568-.235-4-9.9Z" transform="translate(-1821.791 -1617.322)" fill="#cebfae"/>
                </g>
              </g>
            </g>
          </g>
        </g>
      </g>
      <g id="Grupo_30885" data-name="Grupo 30885" transform="translate(155.489 93.352)">
        <g id="Grupo_30884" data-name="Grupo 30884">
          <g id="Grupo_30883" data-name="Grupo 30883">
            <g id="Grupo_30882" data-name="Grupo 30882">
              <g id="Grupo_30881" data-name="Grupo 30881">
                <g id="Grupo_30880" data-name="Grupo 30880">
                  <path id="Trazado_64958" data-name="Trazado 64958" d="M1808.88,1622.356l4.116,10.189.568-.236-4.107-10.168Z" transform="translate(-1808.88 -1622.141)" fill="#cebfae"/>
                </g>
              </g>
            </g>
          </g>
        </g>
      </g>
      <g id="Grupo_30891" data-name="Grupo 30891" transform="translate(148.037 96.133)">
        <g id="Grupo_30890" data-name="Grupo 30890">
          <g id="Grupo_30889" data-name="Grupo 30889">
            <g id="Grupo_30888" data-name="Grupo 30888">
              <g id="Grupo_30887" data-name="Grupo 30887">
                <g id="Grupo_30886" data-name="Grupo 30886">
                  <path id="Trazado_64959" data-name="Trazado 64959" d="M1795.969,1627.174l4.223,10.452.568-.236-4.214-10.432Z" transform="translate(-1795.969 -1626.959)" fill="#cebfae"/>
                </g>
              </g>
            </g>
          </g>
        </g>
      </g>
      <g id="Grupo_30897" data-name="Grupo 30897" transform="translate(139.59 99.284)">
        <g id="Grupo_30896" data-name="Grupo 30896">
          <g id="Grupo_30895" data-name="Grupo 30895">
            <g id="Grupo_30894" data-name="Grupo 30894">
              <g id="Grupo_30893" data-name="Grupo 30893">
                <g id="Grupo_30892" data-name="Grupo 30892">
                  <path id="Trazado_64960" data-name="Trazado 64960" d="M1781.333,1632.635l4.344,10.751.568-.234-4.336-10.734Z" transform="translate(-1781.333 -1632.418)" fill="#cebfae"/>
                </g>
              </g>
            </g>
          </g>
        </g>
      </g>
      <g id="Grupo_30903" data-name="Grupo 30903" transform="translate(131.142 102.44)">
        <g id="Grupo_30902" data-name="Grupo 30902">
          <g id="Grupo_30901" data-name="Grupo 30901">
            <g id="Grupo_30900" data-name="Grupo 30900">
              <g id="Grupo_30899" data-name="Grupo 30899">
                <g id="Grupo_30898" data-name="Grupo 30898">
                  <path id="Trazado_64961" data-name="Trazado 64961" d="M1766.694,1638.1l4.465,11.053.568-.236-4.456-11.031Z" transform="translate(-1766.694 -1637.887)" fill="#cebfae"/>
                </g>
              </g>
            </g>
          </g>
        </g>
      </g>
      <g id="Grupo_30909" data-name="Grupo 30909" transform="translate(124.892 104.772)">
        <g id="Grupo_30908" data-name="Grupo 30908">
          <g id="Grupo_30907" data-name="Grupo 30907">
            <g id="Grupo_30906" data-name="Grupo 30906">
              <g id="Grupo_30905" data-name="Grupo 30905">
                <g id="Grupo_30904" data-name="Grupo 30904">
                  <path id="Trazado_64962" data-name="Trazado 64962" d="M1755.865,1642.141l4.555,11.275.568-.236-4.546-11.253Z" transform="translate(-1755.865 -1641.927)" fill="#cebfae"/>
                </g>
              </g>
            </g>
          </g>
        </g>
      </g>
      <g id="Grupo_30915" data-name="Grupo 30915" transform="translate(118.641 107.104)">
        <g id="Grupo_30914" data-name="Grupo 30914">
          <g id="Grupo_30913" data-name="Grupo 30913">
            <g id="Grupo_30912" data-name="Grupo 30912">
              <g id="Grupo_30911" data-name="Grupo 30911">
                <g id="Grupo_30910" data-name="Grupo 30910">
                  <path id="Trazado_64963" data-name="Trazado 64963" d="M1745.612,1645.968l-.577.216,4.644,11.495.568-.235Z" transform="translate(-1745.035 -1645.968)" fill="#cebfae"/>
                </g>
              </g>
            </g>
          </g>
        </g>
      </g>
      <g id="Grupo_30921" data-name="Grupo 30921" transform="translate(113.941 108.86)">
        <g id="Grupo_30920" data-name="Grupo 30920">
          <g id="Grupo_30919" data-name="Grupo 30919">
            <g id="Grupo_30918" data-name="Grupo 30918">
              <g id="Grupo_30917" data-name="Grupo 30917">
                <g id="Grupo_30916" data-name="Grupo 30916">
                  <path id="Trazado_64964" data-name="Trazado 64964" d="M1736.891,1649.224l4.711,11.662.568-.236-4.7-11.641Z" transform="translate(-1736.891 -1649.01)" fill="#cebfae"/>
                </g>
              </g>
            </g>
          </g>
        </g>
      </g>
      <g id="Grupo_30927" data-name="Grupo 30927" transform="translate(109.464 110.53)">
        <g id="Grupo_30926" data-name="Grupo 30926">
          <g id="Grupo_30925" data-name="Grupo 30925">
            <g id="Grupo_30924" data-name="Grupo 30924">
              <g id="Grupo_30923" data-name="Grupo 30923">
                <g id="Grupo_30922" data-name="Grupo 30922">
                  <path id="Trazado_64965" data-name="Trazado 64965" d="M1729.134,1652.12l4.775,11.822.568-.236-4.766-11.8Z" transform="translate(-1729.134 -1651.904)" fill="#cebfae"/>
                </g>
              </g>
            </g>
          </g>
        </g>
      </g>
      <g id="Grupo_30933" data-name="Grupo 30933" transform="translate(104.844 112.254)">
        <g id="Grupo_30932" data-name="Grupo 30932">
          <g id="Grupo_30931" data-name="Grupo 30931">
            <g id="Grupo_30930" data-name="Grupo 30930">
              <g id="Grupo_30929" data-name="Grupo 30929">
                <g id="Grupo_30928" data-name="Grupo 30928">
                  <path id="Trazado_64966" data-name="Trazado 64966" d="M1721.13,1655.106l4.841,11.985.569-.234-4.835-11.966Z" transform="translate(-1721.13 -1654.891)" fill="#cebfae"/>
                </g>
              </g>
            </g>
          </g>
        </g>
      </g>
      <g id="Grupo_30939" data-name="Grupo 30939" transform="translate(100.54 113.861)">
        <g id="Grupo_30938" data-name="Grupo 30938">
          <g id="Grupo_30937" data-name="Grupo 30937">
            <g id="Grupo_30936" data-name="Grupo 30936">
              <g id="Grupo_30935" data-name="Grupo 30935">
                <g id="Grupo_30934" data-name="Grupo 30934">
                  <path id="Trazado_64967" data-name="Trazado 64967" d="M1713.671,1657.89l4.9,12.138.569-.235-4.9-12.117Z" transform="translate(-1713.671 -1657.675)" fill="#cebfae"/>
                </g>
              </g>
            </g>
          </g>
        </g>
      </g>
      <g id="Grupo_30945" data-name="Grupo 30945" transform="translate(96.234 115.468)">
        <g id="Grupo_30944" data-name="Grupo 30944">
          <g id="Grupo_30943" data-name="Grupo 30943">
            <g id="Grupo_30942" data-name="Grupo 30942">
              <g id="Grupo_30941" data-name="Grupo 30941">
                <g id="Grupo_30940" data-name="Grupo 30940">
                  <path id="Trazado_64968" data-name="Trazado 64968" d="M1706.788,1660.459l-.577.215,4.964,12.291.569-.235Z" transform="translate(-1706.211 -1660.459)" fill="#cebfae"/>
                </g>
              </g>
            </g>
          </g>
        </g>
      </g>
      <g id="Grupo_30951" data-name="Grupo 30951" transform="translate(91.928 117.075)">
        <g id="Grupo_30950" data-name="Grupo 30950">
          <g id="Grupo_30949" data-name="Grupo 30949">
            <g id="Grupo_30948" data-name="Grupo 30948">
              <g id="Grupo_30947" data-name="Grupo 30947">
                <g id="Grupo_30946" data-name="Grupo 30946">
                  <path id="Trazado_64969" data-name="Trazado 64969" d="M1698.75,1663.458l5.028,12.445.568-.236-5.019-12.423Z" transform="translate(-1698.75 -1663.244)" fill="#cebfae"/>
                </g>
              </g>
            </g>
          </g>
        </g>
      </g>
      <g id="Grupo_30957" data-name="Grupo 30957" transform="translate(87.841 118.76)">
        <g id="Grupo_30956" data-name="Grupo 30956">
          <g id="Grupo_30955" data-name="Grupo 30955">
            <g id="Grupo_30954" data-name="Grupo 30954">
              <g id="Grupo_30953" data-name="Grupo 30953">
                <g id="Grupo_30952" data-name="Grupo 30952">
                  <path id="Trazado_64970" data-name="Trazado 64970" d="M1691.668,1666.221l5.084,12.586.143-.055-5.084-12.587Z" transform="translate(-1691.668 -1666.164)" fill="#cebfae"/>
                </g>
              </g>
            </g>
          </g>
        </g>
      </g>
      <g id="Grupo_30983" data-name="Grupo 30983" transform="translate(38.557 66.753)">
        <g id="Grupo_30962" data-name="Grupo 30962">
          <g id="Grupo_30961" data-name="Grupo 30961">
            <g id="Grupo_30960" data-name="Grupo 30960">
              <g id="Grupo_30959" data-name="Grupo 30959">
                <g id="Grupo_30958" data-name="Grupo 30958">
                  <path id="Trazado_64971" data-name="Trazado 64971" d="M1788.052,1581.605l11.286-5.094-.217-.458-11.2,5.054-7.384.823L1606.276,1648.9l.185.47,174.188-66.938Z" transform="translate(-1606.276 -1576.054)" fill="#ccbea9"/>
                </g>
              </g>
            </g>
          </g>
        </g>
        <g id="Grupo_30967" data-name="Grupo 30967" transform="translate(0.995 5.067)">
          <g id="Grupo_30966" data-name="Grupo 30966">
            <g id="Grupo_30965" data-name="Grupo 30965">
              <g id="Grupo_30964" data-name="Grupo 30964">
                <g id="Grupo_30963" data-name="Grupo 30963">
                  <path id="Trazado_64972" data-name="Trazado 64972" d="M1788.809,1585.3l-.186-.472-6.685,2.578L1608,1655.076l.188.471,173.935-67.665Z" transform="translate(-1608.001 -1584.833)" fill="#ccbea9"/>
                </g>
              </g>
            </g>
          </g>
        </g>
        <g id="Grupo_30972" data-name="Grupo 30972" transform="translate(1.991 0.01)">
          <g id="Grupo_30971" data-name="Grupo 30971">
            <g id="Grupo_30970" data-name="Grupo 30970">
              <g id="Grupo_30969" data-name="Grupo 30969">
                <g id="Grupo_30968" data-name="Grupo 30968">
                  <path id="Trazado_64973" data-name="Trazado 64973" d="M1800.817,1576.508l-.257-.437-17.2,9.4-173.629,68.374.189.47,173.647-68.381Z" transform="translate(-1609.727 -1576.07)" fill="#ccbea9"/>
                </g>
              </g>
            </g>
          </g>
        </g>
        <g id="Grupo_30977" data-name="Grupo 30977" transform="translate(2.987 5.586)">
          <g id="Grupo_30976" data-name="Grupo 30976">
            <g id="Grupo_30975" data-name="Grupo 30975">
              <g id="Grupo_30974" data-name="Grupo 30974">
                <g id="Grupo_30973" data-name="Grupo 30973">
                  <path id="Trazado_64974" data-name="Trazado 64974" d="M1799.884,1586.206l-.18-.474-14.894,5.565-173.359,69.1.192.467L1785,1591.769Z" transform="translate(-1611.451 -1585.732)" fill="#ccbea9"/>
                </g>
              </g>
            </g>
          </g>
        </g>
        <g id="Grupo_30982" data-name="Grupo 30982" transform="translate(3.982 8.049)">
          <g id="Grupo_30981" data-name="Grupo 30981">
            <g id="Grupo_30980" data-name="Grupo 30980">
              <g id="Grupo_30979" data-name="Grupo 30979">
                <g id="Grupo_30978" data-name="Grupo 30978">
                  <path id="Trazado_64975" data-name="Trazado 64975" d="M1795.028,1590.365l-.254-.365-8.553,4.865-173.046,69.8.195.468,173.07-69.809Z" transform="translate(-1613.176 -1590)" fill="#ccbea9"/>
                </g>
              </g>
            </g>
          </g>
        </g>
      </g>
      <g id="Grupo_30993" data-name="Grupo 30993" transform="translate(218.491 67.239)">
        <g id="Grupo_30986" data-name="Grupo 30986" transform="translate(4.607 7.159)">
          <g id="Grupo_30985" data-name="Grupo 30985">
            <g id="Grupo_30984" data-name="Grupo 30984">
              <path id="Trazado_64976" data-name="Trazado 64976" d="M1928.611,1590.054a1.307,1.307,0,0,0-1.715-.652l-.021.007a1.4,1.4,0,0,0-.3.169,1.424,1.424,0,0,0-.2.176,1.3,1.3,0,0,0-.108.128,1.267,1.267,0,0,0-.125.212,1.21,1.21,0,0,0-.117.466c0,.041,0,.08,0,.12a1.12,1.12,0,0,0,.082.359,1.307,1.307,0,0,0,1.693.66l.021-.008A1.28,1.28,0,0,0,1928.611,1590.054Z" transform="translate(-1926.024 -1589.3)" fill="#e6aa54"/>
            </g>
          </g>
        </g>
        <g id="Grupo_30989" data-name="Grupo 30989" transform="translate(5.716)">
          <g id="Grupo_30988" data-name="Grupo 30988">
            <g id="Grupo_30987" data-name="Grupo 30987">
              <path id="Trazado_64977" data-name="Trazado 64977" d="M1929.722,1579.3h0l.021-.008a1.282,1.282,0,0,0,.79-1.638,1.308,1.308,0,0,0-1.715-.653l-.021.009h0a1.326,1.326,0,0,0-.156.077,1.3,1.3,0,0,0-.693,1.194.056.056,0,0,0,0,.014,1.027,1.027,0,0,0,.031.194c.007.028.015.056.025.084s.014.045.023.067a1.258,1.258,0,0,0,.073.148,1.141,1.141,0,0,0,.118.166,1.114,1.114,0,0,0,.175.168,1.365,1.365,0,0,0,1.216.214C1929.649,1579.322,1929.685,1579.31,1929.722,1579.3Z" transform="translate(-1927.946 -1576.895)" fill="#e6aa54"/>
            </g>
          </g>
        </g>
        <g id="Grupo_30992" data-name="Grupo 30992" transform="translate(0 2.416)">
          <g id="Grupo_30991" data-name="Grupo 30991">
            <g id="Grupo_30990" data-name="Grupo 30990">
              <path id="Trazado_64978" data-name="Trazado 64978" d="M1918.914,1581.184l-.021.008a1.281,1.281,0,0,0-.768,1.631,1.306,1.306,0,0,0,1.692.66l.022-.008a1.28,1.28,0,0,0,.79-1.638A1.306,1.306,0,0,0,1918.914,1581.184Z" transform="translate(-1918.042 -1581.082)" fill="#e6aa54"/>
            </g>
          </g>
        </g>
      </g>
      <g id="Grupo_30998" data-name="Grupo 30998" transform="translate(37.683 138.929)">
        <g id="Grupo_30997" data-name="Grupo 30997">
          <g id="Grupo_30996" data-name="Grupo 30996">
            <g id="Grupo_30995" data-name="Grupo 30995">
              <g id="Grupo_30994" data-name="Grupo 30994">
                <path id="Trazado_64979" data-name="Trazado 64979" d="M1604.823,1702.369a.944.944,0,0,0,1.241.471.926.926,0,0,0,.571-1.185.947.947,0,0,0-1.241-.473A.926.926,0,0,0,1604.823,1702.369Z" transform="translate(-1604.762 -1701.11)" fill="#fac478"/>
              </g>
            </g>
          </g>
        </g>
      </g>
      <g id="Grupo_31003" data-name="Grupo 31003" transform="translate(38.68 141.397)">
        <g id="Grupo_31002" data-name="Grupo 31002">
          <g id="Grupo_31001" data-name="Grupo 31001">
            <g id="Grupo_31000" data-name="Grupo 31000">
              <g id="Grupo_30999" data-name="Grupo 30999">
                <path id="Trazado_64980" data-name="Trazado 64980" d="M1606.55,1706.645a.945.945,0,0,0,1.24.472.926.926,0,0,0,.572-1.186.946.946,0,0,0-1.241-.47A.924.924,0,0,0,1606.55,1706.645Z" transform="translate(-1606.49 -1705.386)" fill="#fac478"/>
              </g>
            </g>
          </g>
        </g>
      </g>
      <g id="Grupo_31008" data-name="Grupo 31008" transform="translate(39.676 143.864)">
        <g id="Grupo_31007" data-name="Grupo 31007">
          <g id="Grupo_31006" data-name="Grupo 31006">
            <g id="Grupo_31005" data-name="Grupo 31005">
              <g id="Grupo_31004" data-name="Grupo 31004">
                <path id="Trazado_64981" data-name="Trazado 64981" d="M1608.276,1710.919a.948.948,0,0,0,1.241.473.928.928,0,0,0,.571-1.187.946.946,0,0,0-1.241-.472A.927.927,0,0,0,1608.276,1710.919Z" transform="translate(-1608.216 -1709.66)" fill="#fac478"/>
              </g>
            </g>
          </g>
        </g>
      </g>
      <g id="Grupo_31013" data-name="Grupo 31013" transform="translate(40.673 146.331)">
        <g id="Grupo_31012" data-name="Grupo 31012">
          <g id="Grupo_31011" data-name="Grupo 31011">
            <g id="Grupo_31010" data-name="Grupo 31010">
              <g id="Grupo_31009" data-name="Grupo 31009">
                <path id="Trazado_64982" data-name="Trazado 64982" d="M1610,1715.195a.946.946,0,0,0,1.24.472.924.924,0,0,0,.571-1.184.945.945,0,0,0-1.24-.473A.925.925,0,0,0,1610,1715.195Z" transform="translate(-1609.943 -1713.936)" fill="#fac478"/>
              </g>
            </g>
          </g>
        </g>
      </g>
      <g id="Grupo_31018" data-name="Grupo 31018" transform="translate(41.67 148.799)">
        <g id="Grupo_31017" data-name="Grupo 31017">
          <g id="Grupo_31016" data-name="Grupo 31016">
            <g id="Grupo_31015" data-name="Grupo 31015">
              <g id="Grupo_31014" data-name="Grupo 31014">
                <path id="Trazado_64983" data-name="Trazado 64983" d="M1611.729,1719.47a.946.946,0,0,0,1.241.472.926.926,0,0,0,.571-1.185.946.946,0,0,0-1.24-.472A.928.928,0,0,0,1611.729,1719.47Z" transform="translate(-1611.67 -1718.211)" fill="#fac478"/>
              </g>
            </g>
          </g>
        </g>
      </g>
      <g id="Grupo_31021" data-name="Grupo 31021" transform="translate(48.236 125.024)">
        <g id="Grupo_31020" data-name="Grupo 31020">
          <g id="Grupo_31019" data-name="Grupo 31019">
            <path id="Trazado_64984" data-name="Trazado 64984" d="M1630.271,1680.923a8.834,8.834,0,0,0,4.942-.688c2.215-1.158,5.625-4.018,7.226-3a23.112,23.112,0,0,0,7.246,2.154c1.024-.016.385.974-.94,1.873s7.408,2.3,7.556,4.845-.223,5.53-3.12,7.625-12.068.377-14.072-.649-11.4-5.79-15.211-5.49S1630.271,1680.923,1630.271,1680.923Z" transform="translate(-1623.046 -1677.017)" fill="#eea886"/>
          </g>
        </g>
      </g>
      <g id="Grupo_31022" data-name="Grupo 31022" transform="translate(0 93.201)">
        <path id="Trazado_64985" data-name="Trazado 64985" d="M1600.965,1655.136s-36.231-11.272-36.546-14.089,14.5-19.169,14.5-19.169l-26.511,2.724s-12.938,18.529-12.938,24.087c0,6.129,55.689,19.157,55.689,19.157Z" transform="translate(-1539.47 -1621.878)" fill="#285173"/>
      </g>
      <g id="Grupo_31025" data-name="Grupo 31025" transform="translate(118.959 90.161)">
        <g id="Grupo_31024" data-name="Grupo 31024">
          <g id="Grupo_31023" data-name="Grupo 31023">
            <path id="Trazado_64986" data-name="Trazado 64986" d="M1745.585,1647.032s15.958-2.473,29.549-7.7,24.022-5.973,29.557-9.69,7.192-11.291,5.275-12.7-13.8,2.039-16.259,4.963-.125,4.954-4.413,6.757Z" transform="translate(-1745.585 -1616.611)" fill="#eea886"/>
          </g>
        </g>
      </g>
      <g id="Grupo_31027" data-name="Grupo 31027" transform="translate(118.959 102.889)">
        <g id="Grupo_31026" data-name="Grupo 31026">
          <path id="Trazado_64987" data-name="Trazado 64987" d="M1787.679,1638.664s.183,6.156,1.607,9.277c0,0-39.641,8.612-43.7,8.417Z" transform="translate(-1745.585 -1638.664)" fill="#285173"/>
        </g>
      </g>
      <path id="Trazado_64988" data-name="Trazado 64988" d="M1718.031,1769.72c-.624.472-20.538,15.58-30.01,18.779-4.743.012-9.153.012-12.99.012C1675.553,1788.4,1687.04,1785.695,1718.031,1769.72Z" transform="translate(-1596.792 -1591.193)" fill="#998c88"/>
      <path id="Trazado_64989" data-name="Trazado 64989" d="M1683.615,1549.172v.012c-.276,1.249-.612,2.918-.841,4.637,0,0-12.334,2.7-14.8-13.287C1668.251,1541.184,1673.5,1553.076,1683.615,1549.172Z" transform="translate(-1593.809 -1494.281)" fill="#a77860"/>
    </g>
  </g>
</svg>
