<svg xmlns="http://www.w3.org/2000/svg" width="35.635" height="51.926" viewBox="0 0 35.635 51.926">
  <path id="Trazado_185398" data-name="Trazado 185398" d="M1110.441,22.779a17.066,17.066,0,0,1,8.4,5.345,13.761,13.761,0,0,1,3.237,9.2q0,7.855-5.272,12.291a19.374,19.374,0,0,1-12.909,4.436,20.8,20.8,0,0,1-10.655-2.727,15.68,15.68,0,0,1-6.8-8.037l8.581-4.944q1.89,5.89,8.873,5.89a8.884,8.884,0,0,0,6-1.855,6.337,6.337,0,0,0,2.145-5.055,6.366,6.366,0,0,0-2.145-5.018,8.774,8.774,0,0,0-6-1.89h-2.182l-3.855-5.818L1107.9,11.506h-19.926V2.125h32v8.291Z" transform="translate(-1086.442 -2.125)" fill="#039be5"/>
</svg>
