<svg xmlns="http://www.w3.org/2000/svg" xmlns:xlink="http://www.w3.org/1999/xlink" width="112" height="112" viewBox="0 0 112 112">
  <defs>
    <clipPath id="clip-path">
      <rect id="Rectángulo_37233" data-name="Rectángulo 37233" width="83" height="52" transform="translate(0 -0.41)" fill="#fff"/>
    </clipPath>
  </defs>
  <g id="Grupo_143935" data-name="Grupo 143935" transform="translate(-432 -565)">
    <circle id="Elipse_498" data-name="Elipse 498" cx="56" cy="56" r="56" transform="translate(432 565)" fill="#039be5"/>
    <g id="Grupo_143869" data-name="Grupo 143869" transform="translate(447 594.91)">
      <g id="Grupo_143868" data-name="Grupo 143868" transform="translate(0 0.5)" clip-path="url(#clip-path)">
        <path id="Trazado_183997" data-name="Trazado 183997" d="M50.3,46.431H19.346a2.582,2.582,0,0,1-2.579-2.579V8.807l7.2,7.2a2.58,2.58,0,0,0,3.649-3.648L16.012.756h0a2.58,2.58,0,0,0-3.65,0h0L.755,12.363A2.579,2.579,0,0,0,4.4,16.012l7.2-7.2V43.851a7.747,7.747,0,0,0,7.739,7.738H50.3a2.58,2.58,0,1,0,0-5.159" transform="translate(0 -0.43)" fill="#fff"/>
        <path id="Trazado_183998" data-name="Trazado 183998" d="M986.5,35.579a2.579,2.579,0,0,0-3.648,0l-7.2,7.2V7.738A7.747,7.747,0,0,0,967.908,0H936.955a2.58,2.58,0,1,0,0,5.159h30.954a2.582,2.582,0,0,1,2.579,2.579V42.783l-7.2-7.2a2.579,2.579,0,0,0-3.648,3.648l11.606,11.606a2.579,2.579,0,0,0,3.651,0L986.5,39.226a2.578,2.578,0,0,0,0-3.648" transform="translate(-904.711 -0.43)" fill="#fff"/>
      </g>
    </g>
  </g>
</svg>
