<svg xmlns="http://www.w3.org/2000/svg" xmlns:xlink="http://www.w3.org/1999/xlink" width="112" height="112" viewBox="0 0 112 112">
  <defs>
    <clipPath id="clip-path">
      <rect id="Rectángulo_37237" data-name="Rectángulo 37237" width="44.02" height="72.033" fill="none"/>
    </clipPath>
  </defs>
  <g id="Grupo_143939" data-name="Grupo 143939" transform="translate(5814 11135)">
    <circle id="Elipse_541" data-name="Elipse 541" cx="56" cy="56" r="56" transform="translate(-5814 -11135)" fill="#039be5"/>
    <g id="Grupo_143877" data-name="Grupo 143877" transform="translate(-5780.01 -11115.017)">
      <g id="Grupo_143876" data-name="Grupo 143876" transform="translate(0 0)" clip-path="url(#clip-path)">
        <path id="Trazado_184007" data-name="Trazado 184007" d="M32.245,27.561c3.444-3.32,7.724-7.452,7.771-19.557h4V0H0V8H4c.047,12.105,4.327,16.237,7.772,19.557,2.456,2.368,4.232,4.079,4.232,8.456s-1.783,6.093-4.25,8.453C8.3,47.78,4,51.9,4,64.029H0v8H44.02v-8h-4c0-12.13-4.3-16.249-7.757-19.558C29.8,42.11,28.014,40.4,28.014,36.017s1.775-6.087,4.231-8.456" transform="translate(0 0)" fill="#fff"/>
        <path id="Trazado_184008" data-name="Trazado 184008" d="M32.244,27.561c3.444-3.32,7.724-7.452,7.772-19.557h4V0H0V8H4c.046,12.105,4.326,16.237,7.771,19.557,2.457,2.368,4.232,4.08,4.232,8.457s-1.782,6.092-4.249,8.452C8.3,47.78,4,51.9,4,64.029H0v8H44.019v-8h-4c0-12.129-4.3-16.249-7.757-19.558-2.466-2.361-4.247-4.067-4.247-8.452s1.775-6.088,4.231-8.457m-2.778-2.88c-2.683,2.585-5.455,5.26-5.455,11.337,0,6.093,2.787,8.762,5.48,11.343,3.208,3.07,6.524,6.247,6.524,16.668H8c0-10.421,3.315-13.6,6.523-16.668,2.694-2.581,5.481-5.25,5.481-11.343,0-6.077-2.773-8.752-5.456-11.337C11.354,21.6,8.051,18.4,8.008,8h28c-.044,10.4-3.347,13.592-6.545,16.677" transform="translate(0 0)" fill="#fff"/>
        <path id="Trazado_184009" data-name="Trazado 184009" d="M10.741,54.97H30.749c0-4.4-5-8.47-10-12.007-5.045,3.6-10,7.67-10,12.007" transform="translate(1.265 5.058)" fill="#039be5"/>
        <path id="Trazado_184010" data-name="Trazado 184010" d="M10.741,12.173c0,4.336,4.958,8.405,10,12.006,5-3.535,10-7.6,10-12.006-6.8,3.735-12.8,3.852-20.008,0" transform="translate(1.265 1.433)" fill="#039be5"/>
      </g>
    </g>
  </g>
</svg>
