<svg xmlns="http://www.w3.org/2000/svg" xmlns:xlink="http://www.w3.org/1999/xlink" width="112" height="112" viewBox="0 0 112 112">
  <defs>
    <clipPath id="clip-path">
      <rect id="Rectángulo_37236" data-name="Rectángulo 37236" width="76.211" height="76.211" fill="#fff"/>
    </clipPath>
  </defs>
  <g id="Grupo_143938" data-name="Grupo 143938" transform="translate(6182 11135)">
    <circle id="Elipse_540" data-name="Elipse 540" cx="56" cy="56" r="56" transform="translate(-6182 -11135)" fill="#039be5"/>
    <g id="Grupo_143875" data-name="Grupo 143875" transform="translate(-6164.105 -11117.105)">
      <g id="Grupo_143874" data-name="Grupo 143874" clip-path="url(#clip-path)">
        <path id="Trazado_184004" data-name="Trazado 184004" d="M65.051,11.162a38.106,38.106,0,0,0-53.89,53.89,38.106,38.106,0,0,0,53.89-53.89" transform="translate(0 -0.001)" fill="#fff"/>
        <path id="Trazado_184005" data-name="Trazado 184005" d="M218.132,230.657a1.191,1.191,0,0,0-1.29.506c-1.479,2.178-3.751,2.914-5.016,2.345-.987-.444-.932-1.546-.712-2.391l5.611-21.532c0-.007,0-.014,0-.02.008-.033.015-.067.02-.1,0-.012,0-.025.005-.037,0-.033.006-.066.007-.1,0-.012,0-.024,0-.035a1.194,1.194,0,0,0-.006-.12s0-.009,0-.014v0a1.171,1.171,0,0,0-.023-.129c0-.009,0-.017-.007-.026-.009-.035-.019-.069-.031-.1l-.013-.032c-.012-.032-.026-.062-.04-.092l-.015-.031q-.026-.049-.056-.1l-.012-.019a1.169,1.169,0,0,0-.083-.108v0l-.007-.007a1.182,1.182,0,0,0-.085-.086l-.028-.024c-.025-.022-.051-.042-.077-.061l-.029-.021a1.154,1.154,0,0,0-.1-.062l-.009-.005a1.177,1.177,0,0,0-.124-.057l-.012,0q-.056-.021-.113-.036l-.03-.007q-.05-.012-.1-.019l-.035,0c-.034,0-.068-.006-.1-.007h-.032a1.18,1.18,0,0,0-.133.007l-12.588,1.451a1.2,1.2,0,0,0-1.082,1.219,1.173,1.173,0,0,0,1.308,1.119l2.142-.247a1.373,1.373,0,0,1,1.486,1.71l-4.687,17.994a8.748,8.748,0,0,0,.116,5.6,5.477,5.477,0,0,0,3.292,3.122,7.059,7.059,0,0,0,2.4.4,10.217,10.217,0,0,0,4.8-1.307,14.953,14.953,0,0,0,6.255-6.893,1.176,1.176,0,0,0-.765-1.633" transform="translate(-172.547 -178.091)" fill="#039be5"/>
        <path id="Trazado_184006" data-name="Trazado 184006" d="M253.609,107.086a5.674,5.674,0,1,0-5.676-5.676,5.683,5.683,0,0,0,5.676,5.676" transform="translate(-212.164 -81.926)" fill="#039be5"/>
      </g>
    </g>
  </g>
</svg>
