<svg xmlns="http://www.w3.org/2000/svg" xmlns:xlink="http://www.w3.org/1999/xlink" width="112" height="112" viewBox="0 0 112 112">
  <defs>
    <clipPath id="clip-path">
      <rect id="Rectángulo_37234" data-name="Rectángulo 37234" width="78.959" height="78.961" fill="#fff"/>
    </clipPath>
  </defs>
  <g id="Grupo_143936" data-name="Grupo 143936" transform="translate(-747 -565)">
    <circle id="Elipse_501" data-name="Elipse 501" cx="56" cy="56" r="56" transform="translate(747 565)" fill="#039be5"/>
    <g id="Grupo_143871" data-name="Grupo 143871" transform="translate(763.521 581.544)">
      <g id="Grupo_143870" data-name="Grupo 143870" clip-path="url(#clip-path)">
        <path id="Trazado_183999" data-name="Trazado 183999" d="M76.761,52.469a39.474,39.474,0,0,0,0-25.977,2.57,2.57,0,0,0-.126-.356,39.479,39.479,0,0,0-74.312,0,2.492,2.492,0,0,0-.126.356,39.474,39.474,0,0,0,0,25.977,2.723,2.723,0,0,0,.126.356,39.48,39.48,0,0,0,74.312,0,2.55,2.55,0,0,0,.126-.356M39.48,73.3c-1.5,0-3.928-2.721-5.954-8.8a61.972,61.972,0,0,1-2.33-9.974H47.764a61.886,61.886,0,0,1-2.33,9.974c-2.027,6.08-4.451,8.8-5.954,8.8M30.508,48.867c-.273-3.018-.417-6.166-.417-9.388s.144-6.369.417-9.386H48.451c.271,3.018.415,6.164.415,9.386s-.144,6.37-.415,9.388ZM5.659,39.48a33.683,33.683,0,0,1,1.326-9.386H24.832c-.265,3.08-.4,6.236-.4,9.386s.134,6.307.4,9.388H6.986A33.7,33.7,0,0,1,5.659,39.48M39.48,5.659c1.5,0,3.928,2.721,5.954,8.8a61.862,61.862,0,0,1,2.33,9.974H31.2a61.748,61.748,0,0,1,2.33-9.974c2.027-6.079,4.451-8.8,5.954-8.8M54.127,30.093H71.973a33.868,33.868,0,0,1,0,18.774H54.127c.265-3.08.4-6.236.4-9.388s-.133-6.307-.4-9.386m15.635-5.659H53.479c-1.008-6.942-2.734-13.168-5.157-17.6a33.97,33.97,0,0,1,21.44,17.6M30.637,6.835c-2.423,4.43-4.149,10.657-5.157,17.6H9.2a33.97,33.97,0,0,1,21.44-17.6M9.2,54.526H25.48c1.008,6.943,2.734,13.169,5.157,17.6A33.974,33.974,0,0,1,9.2,54.526m39.126,17.6c2.423-4.431,4.149-10.657,5.157-17.6H69.763a33.974,33.974,0,0,1-21.44,17.6" fill="#fff"/>
      </g>
    </g>
  </g>
</svg>
