<svg xmlns="http://www.w3.org/2000/svg" xmlns:xlink="http://www.w3.org/1999/xlink" width="528" height="508" viewBox="0 0 528 508">
  <defs>
    <clipPath id="clip-path">
      <rect id="Rectángulo_4825" data-name="Rectángulo 4825" width="73.677" height="37.99" transform="translate(0 0)" fill="#fff" stroke="#707070" stroke-width="1"/>
    </clipPath>
  </defs>
  <g id="Grupo_23007" data-name="Grupo 23007" transform="translate(-730 -87)">
    <g id="Grupo_23006" data-name="Grupo 23006">
      <g id="Grupo_23000" data-name="Grupo 23000" transform="translate(810.453 46.475)">
        <path id="Trazado_4035" data-name="Trazado 4035" d="M250.694,324.673v53.274c0,.954.669,1.341,1.495.864l63.686-36.766a3.309,3.309,0,0,0,1.5-2.592V286.177c0-.954-.671-1.34-1.5-.864l-63.686,36.768A3.308,3.308,0,0,0,250.694,324.673Z" transform="translate(0 0)" fill="#27debf" opacity="0.232"/>
        <g id="Grupo_22984" data-name="Grupo 22984" transform="translate(257.165 325.611)">
          <g id="Grupo_22982" data-name="Grupo 22982">
            <path id="Trazado_4036" data-name="Trazado 4036" d="M255.122,352.574V312.051l2.417-1.393V351.18Z" transform="translate(-254.574 -310.658)" fill="#27debf"/>
            <path id="Trazado_4037" data-name="Trazado 4037" d="M254.777,339.819l3.509-2.027v1.242l-3.509,2.026Z" transform="translate(-254.776 -294.776)" fill="#455a64"/>
          </g>
          <g id="Grupo_22983" data-name="Grupo 22983" transform="translate(4.602 5.445)">
            <path id="Trazado_4038" data-name="Trazado 4038" d="M258.025,347.907V315.486l2.417-1.393v32.421Z" transform="translate(-257.478 -314.093)" fill="#fff"/>
            <path id="Trazado_4039" data-name="Trazado 4039" d="M257.68,338.143l3.509-2.026v1.242l-3.509,2.026Z" transform="translate(-257.679 -301.202)" fill="#455a64"/>
          </g>
        </g>
        <g id="Grupo_22987" data-name="Grupo 22987" transform="translate(268.796 324.212)">
          <g id="Grupo_22985" data-name="Grupo 22985">
            <path id="Trazado_4040" data-name="Trazado 4040" d="M262.453,346.379V311.168l2.417-1.393v35.21Z" transform="translate(-261.915 -309.775)" fill="#27debf"/>
            <path id="Trazado_4041" data-name="Trazado 4041" d="M262.113,335.577l3.509-2.026v1.242l-3.51,2.026Z" transform="translate(-262.113 -295.86)" fill="#455a64"/>
          </g>
          <g id="Grupo_22986" data-name="Grupo 22986" transform="translate(4.602 3.419)">
            <path id="Trazado_4042" data-name="Trazado 4042" d="M265.356,342.461V313.325l2.417-1.393v29.135Z" transform="translate(-264.818 -311.932)" fill="#fff"/>
            <path id="Trazado_4043" data-name="Trazado 4043" d="M265.016,333.9l3.509-2.026v1.242l-3.509,2.026Z" transform="translate(-265.016 -300.26)" fill="#455a64"/>
          </g>
        </g>
        <g id="Grupo_22990" data-name="Grupo 22990" transform="translate(280.402 331.622)">
          <g id="Grupo_22988" data-name="Grupo 22988" transform="translate(0 4.854)">
            <path id="Trazado_4044" data-name="Trazado 4044" d="M269.784,335.15V318.9l2.417-1.393v16.244Z" transform="translate(-269.229 -317.512)" fill="#27debf"/>
            <path id="Trazado_4045" data-name="Trazado 4045" d="M269.434,331.354l3.509-2.027v1.242l-3.51,2.026Z" transform="translate(-269.434 -310.596)" fill="#455a64"/>
          </g>
          <g id="Grupo_22989" data-name="Grupo 22989" transform="translate(4.602)">
            <path id="Trazado_4046" data-name="Trazado 4046" d="M272.687,334.286V315.843l2.417-1.393v18.442Z" transform="translate(-272.133 -314.449)" fill="#e6e6e6"/>
            <path id="Trazado_4047" data-name="Trazado 4047" d="M272.337,329.677l3.509-2.026v1.242l-3.509,2.026Z" transform="translate(-272.337 -306.723)" fill="#455a64"/>
          </g>
        </g>
        <g id="Grupo_22993" data-name="Grupo 22993" transform="translate(292.062 323.783)">
          <g id="Grupo_22991" data-name="Grupo 22991">
            <path id="Trazado_4048" data-name="Trazado 4048" d="M277.114,333.119V310.9l2.417-1.393v22.22Z" transform="translate(-276.599 -309.505)" fill="#27debf"/>
            <path id="Trazado_4049" data-name="Trazado 4049" d="M276.789,327.114l3.509-2.027v1.242l-3.509,2.026Z" transform="translate(-276.789 -300.384)" fill="#455a64"/>
          </g>
          <g id="Grupo_22992" data-name="Grupo 22992" transform="translate(4.602 5.105)">
            <path id="Trazado_4050" data-name="Trazado 4050" d="M280.017,328.578v-14.46l2.417-1.393v14.459Z" transform="translate(-279.502 -312.725)" fill="#d5d5d5"/>
            <path id="Trazado_4051" data-name="Trazado 4051" d="M279.692,325.437l3.509-2.026v1.242l-3.509,2.026Z" transform="translate(-279.692 -306.471)" fill="#d5d5d5"/>
          </g>
        </g>
        <g id="Grupo_22996" data-name="Grupo 22996" transform="translate(257.712 323.783)">
          <g id="Grupo_22994" data-name="Grupo 22994">
            <path id="Trazado_4052" data-name="Trazado 4052" d="M284.445,323.016V316.7l2.417-1.393v6.317Z" transform="translate(-237.957 -306.11)" fill="#27debf"/>
            <path id="Trazado_4053" data-name="Trazado 4053" d="M255.122,352.574V312.051l2.417-1.393V351.18Z" transform="translate(-255.121 -308.83)" fill="#27debf"/>
            <path id="Trazado_4054" data-name="Trazado 4054" d="M262.453,346.379V311.168l2.417-1.393v35.21Z" transform="translate(-250.83 -309.346)" fill="#27debf"/>
            <path id="Trazado_4055" data-name="Trazado 4055" d="M269.784,335.15V318.9l2.417-1.393v16.244Z" transform="translate(-246.539 -304.818)" fill="#27debf"/>
            <path id="Trazado_4056" data-name="Trazado 4056" d="M277.114,333.119V310.9l2.417-1.393v22.22Z" transform="translate(-242.248 -309.505)" fill="#27debf"/>
            <path id="Trazado_4057" data-name="Trazado 4057" d="M284.445,323.016V316.7l2.417-1.393v6.317Z" transform="translate(-237.957 -306.11)" fill="#27debf"/>
            <path id="Trazado_4058" data-name="Trazado 4058" d="M284.122,322.875l3.509-2.027v1.242l-3.51,2.026Z" transform="translate(-238.147 -302.866)" fill="#455a64"/>
          </g>
          <g id="Grupo_22995" data-name="Grupo 22995" transform="translate(50.577 9.715)">
            <path id="Trazado_4059" data-name="Trazado 4059" d="M287.348,320.169v-3.143l2.417-1.393v3.142Z" transform="translate(-286.835 -315.633)" fill="#022644"/>
            <path id="Trazado_4060" data-name="Trazado 4060" d="M287.025,321.2l3.509-2.026v1.242l-3.51,2.026Z" transform="translate(-287.024 -313.562)" fill="#455a64"/>
          </g>
        </g>
        <g id="Grupo_22999" data-name="Grupo 22999" transform="translate(290.173 293.886)">
          <g id="Grupo_22997" data-name="Grupo 22997">
            <path id="Trazado_4061" data-name="Trazado 4061" d="M278.229,297.854l-2.632,1.519,0,3.041,2.63-1.521Z" transform="translate(-275.597 -286.427)" fill="#022644"/>
            <path id="Trazado_4062" data-name="Trazado 4062" d="M278.229,297.854l-2.632,1.519,0,3.041,2.63-1.521Z" transform="translate(-275.597 -286.427)" fill="#022644" opacity="0.25"/>
            <path id="Trazado_4063" data-name="Trazado 4063" d="M297.306,290.74,278.494,301.6a1.512,1.512,0,0,0-.686,1.189l0,.591c0,.437.308.615.686.4l18.81-10.861a1.516,1.516,0,0,0,.686-1.189v-.59C297.992,290.7,297.685,290.521,297.306,290.74Z" transform="translate(-274.303 -290.646)" fill="#022644"/>
          </g>
          <g id="Grupo_22998" data-name="Grupo 22998" transform="translate(0 5.067)">
            <path id="Trazado_4064" data-name="Trazado 4064" d="M278.23,301.05l-2.632,1.52,0,3.041,2.63-1.521Z" transform="translate(-275.597 -289.623)" fill="#27debf"/>
            <path id="Trazado_4065" data-name="Trazado 4065" d="M297.306,293.936l-18.811,10.859a1.516,1.516,0,0,0-.686,1.189l0,.591c0,.438.308.615.686.4l18.81-10.861a1.516,1.516,0,0,0,.686-1.189v-.59C297.992,293.894,297.685,293.717,297.306,293.936Z" transform="translate(-274.303 -293.842)" fill="#022644"/>
          </g>
        </g>
        <path id="Trazado_4066" data-name="Trazado 4066" d="M255.122,352.574V312.051l2.417-1.393V351.18Z" transform="translate(2.591 14.953)" fill="#27debf"/>
        <path id="Trazado_4067" data-name="Trazado 4067" d="M262.453,346.379V311.168l2.417-1.393v35.21Z" transform="translate(6.882 14.437)" fill="#27debf"/>
        <path id="Trazado_4068" data-name="Trazado 4068" d="M269.784,335.15V318.9l2.417-1.393v16.244Z" transform="translate(11.173 18.965)" fill="#27debf"/>
        <path id="Trazado_4069" data-name="Trazado 4069" d="M277.114,333.119V310.9l2.417-1.393v22.22Z" transform="translate(15.463 14.279)" fill="#27debf"/>
        <path id="Trazado_4070" data-name="Trazado 4070" d="M255.122,352.574V312.051l2.417-1.393V351.18Z" transform="translate(2.591 14.953)" fill="#27debf"/>
        <path id="Trazado_4071" data-name="Trazado 4071" d="M262.453,346.379V311.168l2.417-1.393v35.21Z" transform="translate(6.882 14.437)" fill="#27debf"/>
        <path id="Trazado_4072" data-name="Trazado 4072" d="M269.784,335.15V318.9l2.417-1.393v16.244Z" transform="translate(11.173 18.965)" fill="#27debf"/>
        <path id="Trazado_4073" data-name="Trazado 4073" d="M277.114,333.119V310.9l2.417-1.393v22.22Z" transform="translate(15.463 14.279)" fill="#27debf"/>
        <path id="Trazado_4074" data-name="Trazado 4074" d="M284.445,323.016V316.7l2.417-1.393v6.317Z" transform="translate(19.754 17.674)" fill="#27debf"/>
        <path id="Trazado_4075" data-name="Trazado 4075" d="M255.122,352.574V312.051l2.417-1.393V351.18Z" transform="translate(2.591 14.953)" opacity="0.25"/>
        <path id="Trazado_4076" data-name="Trazado 4076" d="M262.453,346.379V311.168l2.417-1.393v35.21Z" transform="translate(6.882 14.437)" opacity="0.25"/>
        <path id="Trazado_4077" data-name="Trazado 4077" d="M269.784,335.15V318.9l2.417-1.393v16.244Z" transform="translate(11.173 18.965)" opacity="0.25"/>
        <path id="Trazado_4078" data-name="Trazado 4078" d="M277.114,333.119V310.9l2.417-1.393v22.22Z" transform="translate(15.463 14.279)" opacity="0.25"/>
        <path id="Trazado_4079" data-name="Trazado 4079" d="M284.445,323.016V316.7l2.417-1.393v6.317Z" transform="translate(19.754 17.674)" opacity="0.25"/>
      </g>
      <g id="Grupo_22981" data-name="Grupo 22981" transform="translate(177.234 25.376)">
        <g id="Grupo_20539" data-name="Grupo 20539" transform="translate(752.956 101.043)">
          <g id="Enmascarar_grupo_41" data-name="Enmascarar grupo 41" transform="translate(35.172 80.466)" clip-path="url(#clip-path)">
            <g id="Grupo_20533" data-name="Grupo 20533" transform="translate(48.543 13.064)">
              <rect id="Rectángulo_4818" data-name="Rectángulo 4818" width="8.361" height="149.012" transform="matrix(-0.74, 0.673, -0.673, -0.74, 111.52, 114.818)" fill="#f8f8a6"/>
              <rect id="Rectángulo_4819" data-name="Rectángulo 4819" width="3.74" height="149.012" transform="matrix(-0.74, 0.673, -0.673, -0.74, 103.047, 122.527)" fill="#f8f8a6"/>
              <rect id="Rectángulo_4820" data-name="Rectángulo 4820" width="3.74" height="149.012" transform="matrix(-0.74, 0.673, -0.673, -0.74, 116.575, 110.219)" fill="#f8f8a6"/>
            </g>
          </g>
          <g id="Grupo_20534" data-name="Grupo 20534">
            <g id="Grupo_20526" data-name="Grupo 20526" transform="translate(66.728 75.014)">
              <path id="Trazado_2110" data-name="Trazado 2110" d="M348.813,400.718a51.051,51.051,0,0,1,2.947-5.622c1.135-1.873,2.433-3.892,2.662-5.992l4.6,3.8a.736.736,0,0,1,.147.121c1.217,1.338-2.862,7.031-9.111,12.716q-.864.786-1.719,1.515a6.192,6.192,0,0,1-.607-2.187A9.271,9.271,0,0,1,348.813,400.718Z" transform="translate(-323.335 -378.036)" fill="#93f5e5"/>
              <path id="Trazado_2111" data-name="Trazado 2111" d="M376.776,389.38a.728.728,0,0,1-.107-.158l-13.1-19.343,17.67-16.076,13.417,11.069c-.229,2.1-1.527,4.119-2.662,5.992a51.048,51.048,0,0,0-2.947,5.622,9.27,9.27,0,0,0-1.076,4.35,6.192,6.192,0,0,0,.607,2.187C382.97,387.8,377.88,390.594,376.776,389.38Z" transform="translate(-363.565 -353.803)" fill="#5dc2ae"/>
            </g>
            <g id="Grupo_20527" data-name="Grupo 20527" transform="translate(56.066 32.816)">
              <path id="Trazado_2112" data-name="Trazado 2112" d="M290.911,234.106c7.957,9.777,16.34,19.252,26.568,26.55a46.239,46.239,0,0,0,13.314,6.939,26.6,26.6,0,0,0,10.4,1.083l6.419,7.51h0c-5.354,4.871-12.954,5.726-18.4,2.032L279.5,244.489Z" transform="translate(-279.499 -229.438)" fill="#164377"/>
              <path id="Trazado_2113" data-name="Trazado 2113" d="M339.852,257.374a46.239,46.239,0,0,1-13.314-6.939c-10.228-7.3-18.611-16.772-26.568-26.55l.838-.763c5.977-5.438,14.836-5.152,19.735.58l29.7,34.755A26.6,26.6,0,0,1,339.852,257.374Z" transform="translate(-288.558 -219.217)" fill="#105697"/>
            </g>
            <g id="Grupo_20528" data-name="Grupo 20528" transform="translate(25.246 60.326)">
              <path id="Trazado_2114" data-name="Trazado 2114" d="M466.831,341.032,451.4,326.468a14.757,14.757,0,0,1,4.668-8.364l12.251-11.146,27.9,50.857a30.636,30.636,0,0,1-12.719-3.662C477.234,350.834,471.991,345.9,466.831,341.032Z" transform="translate(-451.196 -306.958)" fill="#105697"/>
              <path id="Trazado_2115" data-name="Trazado 2115" d="M443.259,369.181l15.429,14.564c5.16,4.871,10.4,9.8,16.674,13.121a30.636,30.636,0,0,0,12.719,3.662l.993,1.81c3.165,5.768,1.6,13.254-3.756,18.126l-38.673-39.945A12.941,12.941,0,0,1,443.259,369.181Z" transform="translate(-443.053 -349.671)" fill="#164377"/>
            </g>
            <path id="Trazado_2116" data-name="Trazado 2116" d="M453.639,430.94a18.825,18.825,0,0,1-2.7,1.016A18.825,18.825,0,0,0,453.639,430.94Z" transform="translate(-383.22 -331.74)" fill="none"/>
            <path id="Trazado_2117" data-name="Trazado 2117" d="M436.395,421.362q-1.116.751-2.187,1.386Q435.276,422.114,436.395,421.362Z" transform="translate(-360.729 -325.165)" fill="none"/>
            <path id="Trazado_2118" data-name="Trazado 2118" d="M443.257,425.781c-.712.422-1.406.8-2.075,1.142C441.851,426.585,442.545,426.2,443.257,425.781Z" transform="translate(-369.778 -328.198)" fill="none"/>
            <path id="Trazado_2119" data-name="Trazado 2119" d="M365.578,366.056c3.866-4.248,6.448-8.346,7.044-11.155l2.918,3.877c1.1,1.4-.033,4.534-2.664,8.239a14.846,14.846,0,0,0-3.594-.856A33.608,33.608,0,0,0,365.578,366.056Z" transform="translate(-278.773 -279.542)" fill="#93f5e5"/>
            <path id="Trazado_2120" data-name="Trazado 2120" d="M379.642,403.153q.483-.221.985-.475c.669-.339,1.363-.72,2.075-1.143s1.443-.885,2.187-1.386a60.931,60.931,0,0,0,6.9-5.452c1.538-1.4,2.961-2.824,4.242-4.232a33.631,33.631,0,0,1,3.7.105,14.848,14.848,0,0,1,3.594.856,51.538,51.538,0,0,1-7.236,8c-7.3,6.637-14.931,10.385-17.1,8.326l-3.585-3.27a9.965,9.965,0,0,0,1.541-.316A18.812,18.812,0,0,0,379.642,403.153Z" transform="translate(-309.223 -303.953)" fill="#5dc2ae"/>
            <path id="Trazado_2121" data-name="Trazado 2121" d="M432.391,237c-3.383-.758-6.212-3-8.878-5.221a378.617,378.617,0,0,1-47.3-46.993q1.5-1.2,2.98-2.538a51.344,51.344,0,0,0,11.56-14.842,110.938,110.938,0,0,1,29.626,26.787l24.083,32c-.6,2.809-3.178,6.907-7.044,11.155A22.17,22.17,0,0,1,432.391,237Z" transform="translate(-350.616 -150.834)" fill="#fff"/>
            <path id="Trazado_2122" data-name="Trazado 2122" d="M398.682,230.406a48.6,48.6,0,0,0,12.885-7.573,378.608,378.608,0,0,0,47.3,46.993c2.666,2.217,5.495,4.463,8.878,5.221a22.169,22.169,0,0,0,5.029.35c-1.281,1.408-2.7,2.833-4.242,4.232a60.942,60.942,0,0,1-6.9,5.452q-1.116.751-2.187,1.386c-.712.422-1.406.8-2.075,1.143q-.5.254-.985.475a18.8,18.8,0,0,1-2.7,1.016,9.963,9.963,0,0,1-1.541.316l-29.589-26.992A110.936,110.936,0,0,1,398.682,230.406Z" transform="translate(-385.968 -188.884)" fill="#d2d3d3"/>
            <path id="Trazado_2123" data-name="Trazado 2123" d="M573.016,148.557a378.4,378.4,0,0,1-25.5-33.926,129.933,129.933,0,0,1,40.044,16.547A51.342,51.342,0,0,1,576,146.019Q574.521,147.361,573.016,148.557Z" transform="translate(-547.416 -114.608)" fill="#93f5e5"/>
            <path id="Trazado_2124" data-name="Trazado 2124" d="M606.6,156.08a129.932,129.932,0,0,1-12.714-41.522h0l.1.023a378.393,378.393,0,0,0,25.5,33.926A48.6,48.6,0,0,1,606.6,156.08Z" transform="translate(-593.885 -114.558)" fill="#5dc2ae"/>
            <path id="Trazado_2125" data-name="Trazado 2125" d="M473.67,254.555a16.116,16.116,0,1,1,4.109,12.5A16.054,16.054,0,0,1,473.67,254.555Z" transform="translate(-442.5 -200.728)" opacity="0.21" style="mix-blend-mode: multiply;isolation: isolate"/>
            <g id="Grupo_20529" data-name="Grupo 20529" transform="translate(30.488 35.104)">
              <path id="Trazado_2126" data-name="Trazado 2126" d="M490.236,249.3a24.389,24.389,0,0,1-14.217-8.311A16.118,16.118,0,0,1,508,240.321a20.889,20.889,0,0,1-2.112,3.363C502.279,248.234,495.976,250.188,490.236,249.3Z" transform="translate(-475.934 -226.517)" fill="#93f5e5"/>
              <path id="Trazado_2127" data-name="Trazado 2127" d="M475.576,271.207a24.388,24.388,0,0,0,14.217,8.311c5.74.892,12.043-1.062,15.654-5.612a20.875,20.875,0,0,0,2.112-3.363,16.118,16.118,0,1,1-31.983.664Z" transform="translate(-475.492 -256.739)" fill="#5dc2ae"/>
            </g>
            <g id="Grupo_20530" data-name="Grupo 20530" transform="translate(34.037 38.654)">
              <path id="Trazado_2128" data-name="Trazado 2128" d="M490.85,255.845l21-.062a12.465,12.465,0,0,1,1.191,2.273l-23.368.069A12.482,12.482,0,0,1,490.85,255.845Z" transform="translate(-488.804 -250.156)" fill="#fff"/>
              <path id="Trazado_2129" data-name="Trazado 2129" d="M487.854,263.1l23.368-.069a12.529,12.529,0,0,1,.823,3.314l-24.995.073A12.6,12.6,0,0,1,487.854,263.1Z" transform="translate(-486.985 -255.133)" fill="#182b3a"/>
              <path id="Trazado_2130" data-name="Trazado 2130" d="M495.537,241.11a12.579,12.579,0,0,1,18.937,2.355l-21,.062A12.6,12.6,0,0,1,495.537,241.11Z" transform="translate(-491.429 -237.838)" fill="#182b3a"/>
              <path id="Trazado_2131" data-name="Trazado 2131" d="M504.316,311.078l14.1-.041A12.576,12.576,0,0,1,504.316,311.078Z" transform="translate(-498.771 -288.086)" fill="#fff"/>
              <path id="Trazado_2132" data-name="Trazado 2132" d="M492.29,297.242a12.544,12.544,0,0,1-2.222-3.43l23.066-.068a12.52,12.52,0,0,1-3.089,4.336,12.652,12.652,0,0,1-1.378,1.086l-14.1.041A12.6,12.6,0,0,1,492.29,297.242Z" transform="translate(-489.02 -276.216)" fill="#182b3a"/>
              <path id="Trazado_2133" data-name="Trazado 2133" d="M486.885,273.675l24.995-.073a12.614,12.614,0,0,1-.946,6.316l-23.066.068A12.579,12.579,0,0,1,486.885,273.675Z" transform="translate(-486.819 -262.388)" fill="#fff"/>
            </g>
          </g>
        </g>
        <rect id="Rectángulo_4827" data-name="Rectángulo 4827" width="148.504" height="134.69" transform="translate(736.325 97.471)" fill="none"/>
      </g>
      <g id="Grupo_22980" data-name="Grupo 22980" transform="translate(796.912 4.455)">
        <g id="Character_1" data-name="Character 1" transform="translate(116.648 109.165)">
          <g id="Character">
            <g id="Glass" transform="translate(30.049)">
              <g id="Magnifying_glass" data-name="Magnifying glass">
                <g id="Grupo_22949" data-name="Grupo 22949" transform="translate(0 187.297)">
                  <path id="Trazado_3992" data-name="Trazado 3992" d="M203.931,306.135h0c.639-1.5,2.27-2.579,4.741-2.879a17.252,17.252,0,0,1,14.363,6.119c1.5,1.99,1.849,3.913,1.208,5.413h0L183.26,422.163l-.011,0c-.794,2.261-3.11,3.9-6.734,4.344-6.907.84-15.9-2.99-20.076-8.553-2.194-2.919-2.613-5.727-1.533-7.866l-.025-.011Z" transform="translate(-154.335 -274.862)" fill="#e2e2e2"/>
                  <path id="Trazado_3993" data-name="Trazado 3993" d="M215.023,309.373c2.99,3.98,1.409,7.693-3.534,8.294a17.255,17.255,0,0,1-14.364-6.12c-2.991-3.979-1.41-7.692,3.532-8.292A17.256,17.256,0,0,1,215.023,309.373Z" transform="translate(-146.32 -274.862)" fill="#37474f"/>
                  <path id="Trazado_3994" data-name="Trazado 3994" d="M215.415,279.515a10.435,10.435,0,0,1,8.685,3.7,3.319,3.319,0,0,1,.731,3.273h0l-13.288,31.192h0a3.318,3.318,0,0,1-2.867,1.741,10.433,10.433,0,0,1-8.685-3.7,3.321,3.321,0,0,1-.731-3.274l13.288-31.191h0A3.318,3.318,0,0,1,215.415,279.515Z" transform="translate(-145.647 -279.465)" fill="#27debf"/>
                  <path id="Trazado_3995" data-name="Trazado 3995" d="M215.415,279.515a10.435,10.435,0,0,1,8.685,3.7,3.319,3.319,0,0,1,.731,3.273h0l-13.288,31.192h0a3.318,3.318,0,0,1-2.867,1.741,10.433,10.433,0,0,1-8.685-3.7,3.321,3.321,0,0,1-.731-3.274l13.288-31.191h0A3.318,3.318,0,0,1,215.415,279.515Z" transform="translate(-145.647 -279.465)" opacity="0.2"/>
                  <path id="Trazado_3996" data-name="Trazado 3996" d="M205.228,295.231l.926.542c0,.021,0,.021.022.021l.14.086v-.021c.066.032.13.064.183.1s.129.075.195.107c.591.344,1.182.657,1.807.947.752.376,1.527.709,2.3,1.01a20.408,20.408,0,0,0,2.1.775,8.822,8.822,0,0,0,1.118.333,7.935,7.935,0,0,0,1.216.355c.42.129.818.226,1.237.313a7.277,7.277,0,0,0,.915.193c.1.02.2.039.307.061l5.948-13.965h0a3.32,3.32,0,0,0-.731-3.273,7.778,7.778,0,0,0-1.255-1.271,45.186,45.186,0,0,1-11.426,1.961Z" transform="translate(-144.453 -279.062)" opacity="0.2"/>
                  <path id="Trazado_3997" data-name="Trazado 3997" d="M211.887,315.434,168.641,424.457a18.907,18.907,0,0,0,5.1.154c3.62-.442,5.942-2.079,6.732-4.352l.016.007L221.468,312.9c-.644,1.513-2.273,2.57-4.743,2.875A14.406,14.406,0,0,1,211.887,315.434Z" transform="translate(-151.557 -272.972)" opacity="0.15"/>
                </g>
                <g id="Grupo_22950" data-name="Grupo 22950" transform="translate(30.602)">
                  <path id="Trazado_3998" data-name="Trazado 3998" d="M344.819,180.876c-.022-.9-.064-1.785-.14-2.668-.043-.881-.107-1.742-.193-2.6-.043-.582-.107-1.151-.183-1.732-.151-1.5-.367-2.979-.614-4.389-.107-.646-.226-1.3-.355-1.948-.107-.623-.247-1.214-.376-1.807-.376-1.635-.774-3.227-1.237-4.754-.237-.731-.462-1.452-.709-2.161a2.123,2.123,0,0,1-.109-.333c-.258-.711-.505-1.388-.774-2.055-.3-.774-.613-1.549-.969-2.28-.247-.548-.484-1.076-.774-1.6a8.176,8.176,0,0,0-.57-1.151c-.227-.462-.463-.935-.732-1.377a2.034,2.034,0,0,0-.183-.3c-.215-.4-.462-.8-.7-1.194-.162-.269-.334-.505-.485-.752a38.729,38.729,0,0,0-3.807-5.055c-.236-.27-.484-.539-.7-.8-.2-.226-.4-.419-.6-.623-.236-.259-.505-.506-.774-.775a25.5,25.5,0,0,0-2.292-2.054c-.376-.322-.775-.634-1.173-.925-.4-.312-.8-.591-1.216-.881a21.526,21.526,0,0,0-1.968-1.28c-.172-.107-.355-.226-.527-.333l-.107-.086h-.032L310.175,127.7h-.043l-.172-.107a39.265,39.265,0,0,0-19.662-4.969c-10.25,0-21.823,3.356-34.085,10.422-42.1,24.319-76.248,83.455-76.248,132.092,0,24.255,8.487,41.314,22.2,49.3l.129.064v.021l12.369,7.238c0,.022,0,.022.021.022l.14.086v-.022c.064.032.129.065.183.1s.129.075.193.107c.591.345,1.183.657,1.807.947.754.376,1.527.711,2.3,1.012a20.406,20.406,0,0,0,2.1.774,8.772,8.772,0,0,0,1.119.333,7.735,7.735,0,0,0,1.214.356c.42.129.818.226,1.237.312a6.924,6.924,0,0,0,.915.193c.527.108,1.1.226,1.656.29a1.106,1.106,0,0,0,.376.064c.656.108,1.323.2,1.979.27,11.359,1.193,24.566-2.012,38.7-10.165,42.13-24.319,76.28-83.476,76.28-132.092C344.884,183.178,344.862,182.027,344.819,180.876ZM205.856,295.629a74.318,74.318,0,0,1-2.577-19.957c0-46.084,33.72-104.5,73.634-127.542a71.234,71.234,0,0,1,18.674-7.731,41.279,41.279,0,0,1,9.614-1.213,30.716,30.716,0,0,1,4.872.375l.132.053c8.169,9.661,9.372,25.146,9.372,33.42,0,46.084-33.686,104.5-73.611,127.53-10.159,5.86-19.924,8.956-28.3,8.956a19.462,19.462,0,0,1-5.146-.66h0A36.458,36.458,0,0,1,205.856,295.629Z" transform="translate(-179.96 -122.623)" fill="#01070d"/>
                  <path id="Trazado_3999" data-name="Trazado 3999" d="M328.624,178.323c0,24.484-9.514,52.434-24.421,76.73-.7,1.155-1.415,2.283-2.15,3.421-.619.977-1.254,1.954-1.917,2.921-1.4,2.078-2.813,4.129-4.3,6.137-.7.958-1.407,1.907-2.133,2.84q-1.17,1.544-2.382,3.063c-1.532,1.936-3.118,3.817-4.73,5.653-1.058,1.228-2.141,2.428-3.234,3.592A124.1,124.1,0,0,1,255,305.847c-1.908,1.1-3.789,2.105-5.662,3.011a56.639,56.639,0,0,1-19.412,5.8c-1.094.108-2.169.153-3.208.153-.555,0-1.084-.01-1.612-.045-.027,0-.036-.008-.063,0a24.979,24.979,0,0,1-3.028-.313c-.492-.072-.976-.153-1.441-.26a14.024,14.024,0,0,1-1.389-.34,22.318,22.318,0,0,1-11.96-7.739,19.528,19.528,0,0,0,5.142.653c8.376,0,18.141-3.091,28.3-8.949,39.928-23.032,73.612-81.451,73.612-127.533,0-8.278-1.2-23.758-9.371-33.425l-.135-.044c10.411,1.666,16.331,8.744,19.664,16.923a47.941,47.941,0,0,1,2.276,7.14c.026.134.062.269.088.4.107.439.216.887.3,1.327s.171.86.251,1.29a2.957,2.957,0,0,1,.063.331q.134.7.241,1.371c.26,1.711.475,3.377.619,4.973.036.466.08.9.107,1.343.036.332.054.672.072.995.008.134.018.277.018.412.026.358.044.707.062,1.057a2.936,2.936,0,0,1,.01.295c.026.439.036.879.044,1.3C328.615,176.791,328.624,177.58,328.624,178.323Z" transform="translate(-174.667 -119.868)" opacity="0.25"/>
                  <path id="Trazado_4000" data-name="Trazado 4000" d="M213.608,308.93,202.161,302.2c-13.717-8.019-22.2-25.072-22.2-49.281,0-21.692,6.8-45.46,18.046-67.283l13.043,7.5c-11.266,21.823-18.723,45.34-18.723,67.032C192.327,283.888,200.4,300.713,213.608,308.93Z" transform="translate(-179.961 -110.388)" fill="#d3d3d3"/>
                  <path id="Trazado_4001" data-name="Trazado 4001" d="M319.732,135.049l-.108-.09h-.036L307.243,127.7H307.2l-.171-.107a39.268,39.268,0,0,0-19.663-4.971c-10.248,0-21.823,3.35-34.088,10.418-23.337,13.483-44.227,37.662-58.2,64.824l12.972,7.632c-.09.179-.189.358-.278.537,14.02-26.857,34.813-51.18,57.9-65.728,20.9-13.168,40.734-13.347,54.584-4.927C320.082,135.273,319.9,135.157,319.732,135.049Z" transform="translate(-177.026 -122.623)" fill="#f2f2f2"/>
                </g>
              </g>
              <g id="Grupo_22951" data-name="Grupo 22951" transform="translate(53.921 16.562)">
                <path id="Trazado_4002" data-name="Trazado 4002" d="M323.494,174.476c0,46.085-33.72,104.5-73.634,127.542a71.233,71.233,0,0,1-18.674,7.731,41.225,41.225,0,0,1-9.615,1.213,27.463,27.463,0,0,1-9.764-1.664c-4.958-4.16-7.951-10.18-9.742-16.364a74.317,74.317,0,0,1-2.577-19.957c0-46.084,33.72-104.5,73.634-127.542a71.234,71.234,0,0,1,18.674-7.731,41.279,41.279,0,0,1,9.614-1.213,27.466,27.466,0,0,1,9.765,1.663c4.958,4.149,7.951,10.182,9.742,16.364A74.319,74.319,0,0,1,323.494,174.476Z" transform="translate(-199.488 -136.492)" fill="#fff" opacity="0.3"/>
              </g>
            </g>
            <g id="Boy" transform="translate(0 182.762)">
              <g id="Grupo_22954" data-name="Grupo 22954" transform="translate(0 36.268)">
                <path id="Trazado_4003" data-name="Trazado 4003" d="M172.143,344.907c2.252.5,6.563.958,6.563.958l3.1-6.56-6.935-3.2Z" transform="translate(-120.828 -300.2)" fill="#ffa8a7"/>
                <g id="Grupo_22952" data-name="Grupo 22952" transform="translate(34.38 26.562)">
                  <path id="Trazado_4004" data-name="Trazado 4004" d="M157.962,341.533a45.72,45.72,0,0,0,17.51,4.98l3.735-5.615-18.722-12.616Z" transform="translate(-157.962 -328.281)" fill="#27debf"/>
                  <path id="Trazado_4005" data-name="Trazado 4005" d="M157.962,341.533a45.72,45.72,0,0,0,17.51,4.98l3.735-5.615-18.722-12.616Z" transform="translate(-157.962 -328.281)" opacity="0.3"/>
                  <path id="Trazado_4006" data-name="Trazado 4006" d="M171.69,344.794l3.156.463,2.422-7.161s-3.1-1.487-3.172-1.431S171.69,344.794,171.69,344.794Z" transform="translate(-155.296 -326.653)" fill="#27debf"/>
                  <path id="Trazado_4007" data-name="Trazado 4007" d="M171.69,344.794l3.156.463,2.422-7.161s-3.1-1.487-3.172-1.431S171.69,344.794,171.69,344.794Z" transform="translate(-155.296 -326.653)" opacity="0.4"/>
                </g>
                <g id="Grupo_22953" data-name="Grupo 22953">
                  <path id="Trazado_4008" data-name="Trazado 4008" d="M138.166,306.086a7.55,7.55,0,0,0-7.673,3.966c-1.041,1.813-1.527,5.57-1.241,8.082.721,6.326,5.462,20.113,5.462,20.113Z" transform="translate(-129.172 -306.038)" fill="#27debf"/>
                  <path id="Trazado_4009" data-name="Trazado 4009" d="M138.166,306.086a7.55,7.55,0,0,0-7.673,3.966c-1.041,1.813-1.527,5.57-1.241,8.082.721,6.326,5.462,20.113,5.462,20.113Z" transform="translate(-129.172 -306.038)" opacity="0.4"/>
                </g>
              </g>
              <g id="Grupo_22961" data-name="Grupo 22961" transform="translate(0.456 81.243)">
                <g id="Grupo_22960" data-name="Grupo 22960">
                  <g id="Grupo_22955" data-name="Grupo 22955" transform="translate(0.522 95.541)">
                    <path id="Trazado_4010" data-name="Trazado 4010" d="M131.242,431.565c-.543.2-.855,1.228-1.1,3.729-.149,1.55-.678,3.6,1.685,4.858a5.975,5.975,0,0,0,5.589-.058c2.046-1.269,3.082-3.617,5.484-5.5,2.105-1.651,4.73-2.87,6.458-5.875,1.79-3.113,1.427-5.008-2.067-5.012-5.615-.006-7.3,3.094-10.184,3.159C135.5,426.9,131.786,431.362,131.242,431.565Z" transform="translate(-129.991 -423.707)" fill="#93f5e5"/>
                  </g>
                  <g id="Grupo_22956" data-name="Grupo 22956" transform="translate(1.766 101.243)">
                    <path id="Trazado_4011" data-name="Trazado 4011" d="M131.046,429.4l-.013,2.525c0,1.235,5.247,3.073,6.717.254.112-.242.682-3.7.682-3.7Z" transform="translate(-131.033 -428.482)" fill="#ffa8a7"/>
                  </g>
                  <g id="Grupo_22957" data-name="Grupo 22957" transform="translate(24.445 118.093)">
                    <path id="Trazado_4012" data-name="Trazado 4012" d="M151.68,442.592s-1,0-1.39,4.072c-.149,1.55-.519,4.73.008,5.881s3.4,1.659,6.617,1.949c2.4.215,4.57,1.377,6.8,2.634a14.746,14.746,0,0,0,6.888,1.9c3.042.024,5.617-.3,7.787-2.019,1.155-.914,2.616-2.836,1.545-4.287a3.18,3.18,0,0,0-1.624-.856c-1.353-.505-2.723-.968-4.1-1.4a42.2,42.2,0,0,1-6.025-2.311c-2.84-1.4-6.005-2.968-8.151-5.361Z" transform="translate(-150.024 -442.592)" fill="#93f5e5"/>
                  </g>
                  <g id="Grupo_22958" data-name="Grupo 22958" transform="translate(26.101 115.987)">
                    <path id="Trazado_4013" data-name="Trazado 4013" d="M151.425,440.828s0,1.874-.014,2.944,1.241,2.671,4.513,2.571c2.3-.071,3.906-.68,3.825-2.573l.014-2.728Z" transform="translate(-151.411 -440.828)" fill="#ffa8a7"/>
                  </g>
                  <g id="Grupo_22959" data-name="Grupo 22959">
                    <path id="Trazado_4014" data-name="Trazado 4014" d="M129.863,412.366a68.564,68.564,0,0,1,3.046-13.129s-.843-11.345-1.221-22.1a285.272,285.272,0,0,1,.92-33.037s36.545-3.465,37.146,9.963-.27,47.592-.743,53.487-.948,11.423-2.2,22.393c-1.074,9.451-2.809,29.956-2.809,29.956a8.852,8.852,0,0,1-8.338-.214s-2.754-27.535-3.068-34.338c-.408-8.818,1.647-13.685,1.647-13.685s-.782-5.549-2.138-16.957c-.959-8.061-2.241-17.24-2.241-17.24s-1.247,11.364-2.006,17.7c-.7,5.872-1.9,10.514-3.657,21.46-1.529,9.495-5.7,29.6-5.7,29.6-4.293,2.293-7.171-.355-7.171-.355S128.666,420.606,129.863,412.366Z" transform="translate(-129.554 -343.701)" fill="#5dc2ae"/>
                  </g>
                </g>
                <path id="Trazado_4015" data-name="Trazado 4015" d="M148.591,374.856l-1.728-11.218s-7.111-2.262-10.728-6.5c0,0,1.93,4.928,8.559,7.579l2.655,9.447.454,7.794Z" transform="translate(-128.276 -341.091)"/>
              </g>
              <g id="Grupo_22972" data-name="Grupo 22972" transform="translate(3.262)">
                <path id="Trazado_4016" data-name="Trazado 4016" d="M153.624,303.7l-1.707,11.992-10.788-.373,1.037-14.012Z" transform="translate(-130.113 -270.689)" fill="#ffa8a7"/>
                <g id="Grupo_22962" data-name="Grupo 22962" transform="translate(31.256 18.209)">
                  <path id="Trazado_4017" data-name="Trazado 4017" d="M158.078,290.916s2.895,4.244,2.579,4.67-2.39.84-2.39.84Z" transform="translate(-158.078 -290.916)" fill="#f28f8f"/>
                </g>
                <g id="Grupo_22963" data-name="Grupo 22963" transform="translate(26.726 13.931)">
                  <path id="Trazado_4018" data-name="Trazado 4018" d="M154.285,290.914a3.524,3.524,0,1,1,3.58,3.469A3.529,3.529,0,0,1,154.285,290.914Zm.783-.013a2.741,2.741,0,1,0,2.7-2.784A2.744,2.744,0,0,0,155.068,290.9Z" transform="translate(-154.285 -287.334)" fill="#263238"/>
                </g>
                <g id="Grupo_22964" data-name="Grupo 22964" transform="translate(5.732 5.984)">
                  <path id="Trazado_4019" data-name="Trazado 4019" d="M154.191,281.161c5.74,1.115,7.431,3.6,8.113,12.683.713,9.487-.209,12.486-1.435,13.784-.829.877-5.506,1.106-7.877.493-2.968-.768-9.682-3.03-12.885-7.756-3.766-5.561-4.853-13.162-.965-16.348C144.615,279.534,151.856,280.706,154.191,281.161Z" transform="translate(-136.704 -280.679)" fill="#ffa8a7"/>
                </g>
                <path id="Trazado_4020" data-name="Trazado 4020" d="M151.517,304.178c2.47.272,5.789-.008,6.476-.734a16.889,16.889,0,0,1-6.139-1.208Z" transform="translate(-128.096 -270.509)" fill="#f28f8f"/>
                <g id="Grupo_22966" data-name="Grupo 22966">
                  <g id="Grupo_22965" data-name="Grupo 22965">
                    <path id="Trazado_4021" data-name="Trazado 4021" d="M164.126,284.424q-.086.091-.176.179c-1.134,1.109-2.6,1.827-3.786,2.88a8.9,8.9,0,0,0-2.65,4.371c-.376,1.383-.505,3.017-1.991,3.679,0,0-1-3.658-4.092-3.148-3.108.515-3.465,4.492-1.465,6.874s3.818,1.428,3.818,1.428-.013,5.251-2.292,8.259c0,0-2.634.9-7.517-.062-3-.59-7.292-4.263-9.133-8.2-3.894-8.317-4.276-15.851,1.035-18.2.518-3.869,3.53-5.647,6.982-6.5,5.162-1.272,10.057,1.728,15.164.5,1.07-.257,2.108-.658,3.2-.811a.653.653,0,0,1,.371.025c.263.127.251.5.18.786a6.713,6.713,0,0,1-1.463,2.791,15.943,15.943,0,0,0,5.8-.825A7.477,7.477,0,0,1,164.126,284.424Z" transform="translate(-131.904 -275.668)" fill="#263238"/>
                  </g>
                </g>
                <g id="Grupo_22971" data-name="Grupo 22971" transform="translate(1.286 5.724)">
                  <g id="Grupo_22968" data-name="Grupo 22968">
                    <g id="Grupo_22967" data-name="Grupo 22967">
                      <path id="Trazado_4022" data-name="Trazado 4022" d="M136.436,283.43l-3.455-1.963a1.987,1.987,0,0,1,3.455,1.963Z" transform="translate(-132.981 -280.461)" fill="#263238"/>
                    </g>
                  </g>
                  <g id="Grupo_22970" data-name="Grupo 22970" transform="translate(22.225 12.224)">
                    <g id="Grupo_22969" data-name="Grupo 22969">
                      <path id="Trazado_4023" data-name="Trazado 4023" d="M151.76,294.67l-.168-3.971a1.987,1.987,0,1,1,.168,3.971Z" transform="translate(-151.592 -290.697)" fill="#263238"/>
                    </g>
                  </g>
                </g>
                <path id="Trazado_4024" data-name="Trazado 4024" d="M161.628,289.626l-10.62,1.545.441.741,10.192-1.486Z" transform="translate(-128.194 -272.957)" fill="#263238"/>
              </g>
              <g id="Grupo_22976" data-name="Grupo 22976" transform="translate(1.59 33.974)">
                <g id="Grupo_22973" data-name="Grupo 22973" transform="translate(0 2.307)">
                  <path id="Trazado_4025" data-name="Trazado 4025" d="M131.282,312.693c1.26-4.921,3.037-6.529,7.32-6.643a54.851,54.851,0,0,1,6.587.841c.45,2.079,5.825,3.494,11.266,2.37,1.618.473,5.9,1.637,7.245,2.126,3.85,1.4,5.714,5.393,5.968,18.082,0,0,.737,30.092-.01,35.287-9.705,3.783-19.778,3.614-25.339,2.369-11.577-2.591-12.951-7.406-12.951-7.406s.607-12.077,1-21.261c-.58-5.849-1.453-10.247-1.769-14.912A39.293,39.293,0,0,1,131.282,312.693Z" transform="translate(-130.503 -306.049)" fill="#27debf"/>
                </g>
                <g id="Grupo_22974" data-name="Grupo 22974" transform="translate(0 2.307)" opacity="0.6">
                  <path id="Trazado_4026" data-name="Trazado 4026" d="M131.282,312.693c1.26-4.921,3.037-6.529,7.32-6.643a54.851,54.851,0,0,1,6.587.841c.45,2.079,5.825,3.494,11.266,2.37,1.618.473,5.9,1.637,7.245,2.126,3.85,1.4,5.714,5.393,5.968,18.082,0,0,.737,30.092-.01,35.287-9.705,3.783-19.778,3.614-25.339,2.369-11.577-2.591-12.951-7.406-12.951-7.406s.607-12.077,1-21.261c-.58-5.849-1.453-10.247-1.769-14.912A39.293,39.293,0,0,1,131.282,312.693Z" transform="translate(-130.503 -306.049)" fill="#fff"/>
                </g>
                <g id="Grupo_22975" data-name="Grupo 22975" transform="translate(10.874)">
                  <path id="Trazado_4027" data-name="Trazado 4027" d="M142.211,304.154l-.085,1.154s.567,1.63,3.84,2.237c5.5,1.022,7.425-.687,7.425-.687l.142-.99s.527-.217,1.42.469a48.149,48.149,0,0,1,3.807,4.459s-1.047-.307-4.486,1.156a16.412,16.412,0,0,1-10.736.4,5.915,5.915,0,0,1-3.922-4.4C139.48,306.947,141.265,303.741,142.211,304.154Z" transform="translate(-139.61 -304.117)" fill="#27debf"/>
                  <path id="Trazado_4028" data-name="Trazado 4028" d="M142.211,304.154l-.085,1.154s.567,1.63,3.84,2.237c5.5,1.022,7.425-.687,7.425-.687l.142-.99s.527-.217,1.42.469a48.149,48.149,0,0,1,3.807,4.459s-1.047-.307-4.486,1.156a16.412,16.412,0,0,1-10.736.4,5.915,5.915,0,0,1-3.922-4.4C139.48,306.947,141.265,303.741,142.211,304.154Z" transform="translate(-139.61 -304.117)" opacity="0.25"/>
                </g>
              </g>
              <g id="Grupo_22979" data-name="Grupo 22979" transform="translate(32.513 41.246)">
                <path id="Trazado_4029" data-name="Trazado 4029" d="M158.129,310.316c4.9.615,8.77,1.638,10.9,6.3,3.621,7.913,7.539,14.405,10.389,17.46,3.046,3.262,15.527,9,18.34,8.545s5.621-3.7,7.071-2.859-1.232,3.975-1.06,4.681,5.279.332,7.692-1.372,3.3,1.815.185,5.47-8.98,3.941-15.344,2.663-19.332-4.31-24.213-8.329c-5.921-4.876-6.979-8.887-9.5-13.256C153.469,320.22,158.129,310.316,158.129,310.316Z" transform="translate(-156.294 -310.186)" fill="#ffa8a7"/>
                <g id="Grupo_22977" data-name="Grupo 22977">
                  <path id="Trazado_4030" data-name="Trazado 4030" d="M157.526,310.207s5.245-.011,7.989,1.679,4.475,5.26,6.746,10.209a65.366,65.366,0,0,0,7.452,11.721c1.2,1.487,9.906,6.33,9.906,6.33a37.331,37.331,0,0,1-2.565,9.045s-8.77-2.2-14.045-5.026S159.706,330,159.706,330,154.055,322.5,157.526,310.207Z" transform="translate(-156.399 -310.207)" fill="#27debf"/>
                  <path id="Trazado_4031" data-name="Trazado 4031" d="M157.526,310.207s5.245-.011,7.989,1.679,4.475,5.26,6.746,10.209a65.366,65.366,0,0,0,7.452,11.721c1.2,1.487,9.906,6.33,9.906,6.33a37.331,37.331,0,0,1-2.565,9.045s-8.77-2.2-14.045-5.026S159.706,330,159.706,330,154.055,322.5,157.526,310.207Z" transform="translate(-156.399 -310.207)" opacity="0.15"/>
                </g>
                <g id="Grupo_22978" data-name="Grupo 22978" transform="translate(29.949 29.641)">
                  <path id="Trazado_4032" data-name="Trazado 4032" d="M184.215,335.028a20.529,20.529,0,0,1-2.737,9.16,46.917,46.917,0,0,0,4.693,1.014s2.754-2.754,2.6-8.264Z" transform="translate(-181.478 -335.028)" fill="#27debf"/>
                  <path id="Trazado_4033" data-name="Trazado 4033" d="M184.215,335.028a20.529,20.529,0,0,1-2.737,9.16,46.917,46.917,0,0,0,4.693,1.014s2.754-2.754,2.6-8.264Z" transform="translate(-181.478 -335.028)" opacity="0.3"/>
                  <path id="Trazado_4034" data-name="Trazado 4034" d="M186.186,337.214a.55.55,0,1,1-.551-.549A.55.55,0,0,1,186.186,337.214Z" transform="translate(-180.777 -334.71)" fill="#455a64"/>
                </g>
              </g>
            </g>
          </g>
        </g>
      </g>
      <g id="Grupo_23005" data-name="Grupo 23005" transform="translate(496.818 -67.191)">
        <path id="Trazado_4080" data-name="Trazado 4080" d="M300.181,299.982v41.907c0,.751.527,1.055,1.177.68l37.47-21.634a2.6,2.6,0,0,0,1.177-2.039V276.988c0-.751-.527-1.055-1.177-.68l-37.47,21.634A2.6,2.6,0,0,0,300.181,299.982Z" transform="translate(0 0)" fill="#27debf" opacity="0.1"/>
        <g id="Grupo_23001" data-name="Grupo 23001" transform="translate(302.941 295.183)">
          <path id="Trazado_4081" data-name="Trazado 4081" d="M304.465,294.494l-2.071,1.2,0,2.392,2.069-1.2Z" transform="translate(-302.395 -290.651)" fill="#27debf"/>
          <path id="Trazado_4082" data-name="Trazado 4082" d="M311.6,291.457l-6.834,3.941a.713.713,0,0,0-.323.561v.651c0,.207.146.291.326.187l6.831-3.942a.718.718,0,0,0,.324-.561v-.65C311.923,291.437,311.777,291.353,311.6,291.457Z" transform="translate(-301.889 -291.412)" fill="#455a64"/>
        </g>
        <g id="Grupo_23002" data-name="Grupo 23002" transform="translate(314.673 288.469)">
          <path id="Trazado_4083" data-name="Trazado 4083" d="M313.873,289.058l-2.07,1.2,0,2.392,2.068-1.2Z" transform="translate(-311.803 -285.28)" fill="#27debf"/>
          <path id="Trazado_4084" data-name="Trazado 4084" d="M313.873,289.058l-2.07,1.2,0,2.392,2.068-1.2Z" transform="translate(-311.803 -285.28)" opacity="0.25"/>
          <path id="Trazado_4085" data-name="Trazado 4085" d="M321.041,286.073l-6.834,3.941a.714.714,0,0,0-.324.561v.651c0,.207.146.29.325.187l6.831-3.942a.716.716,0,0,0,.323-.561v-.65C321.364,286.053,321.219,285.969,321.041,286.073Z" transform="translate(-311.289 -286.028)" fill="#455a64"/>
        </g>
        <g id="Grupo_23003" data-name="Grupo 23003" transform="translate(326.405 281.755)">
          <path id="Trazado_4086" data-name="Trazado 4086" d="M323.282,283.621l-2.071,1.2,0,2.392,2.069-1.2Z" transform="translate(-321.211 -279.909)" fill="#27debf"/>
          <path id="Trazado_4087" data-name="Trazado 4087" d="M323.282,283.621l-2.071,1.2,0,2.392,2.069-1.2Z" transform="translate(-321.211 -279.909)" opacity="0.4"/>
          <path id="Trazado_4088" data-name="Trazado 4088" d="M330.482,280.689l-6.832,3.941a.714.714,0,0,0-.324.561v.651c0,.207.146.291.324.187l6.832-3.942a.716.716,0,0,0,.323-.561v-.65C330.806,280.669,330.661,280.585,330.482,280.689Z" transform="translate(-320.689 -280.644)" fill="#455a64"/>
        </g>
        <g id="Grupo_23004" data-name="Grupo 23004" transform="translate(309.709 298.106)">
          <path id="Trazado_4089" data-name="Trazado 4089" d="M318.864,295.265c-6.1,3.522-11.042,12.083-11.042,19.125s4.943,9.9,11.042,6.376,11.042-12.083,11.041-19.125S324.962,291.744,318.864,295.265Zm-1.7,22.558a6.606,6.606,0,0,1-3.232,1.052c-2.361,0-2.712-2.811-2.712-4.485,0-5.847,4.278-13.258,9.343-16.182a6.6,6.6,0,0,1,3.232-1.052c2.361,0,2.713,2.809,2.713,4.485C326.508,307.488,322.229,314.9,317.165,317.823Z" transform="translate(-307.822 -293.757)" fill="#27debf"/>
          <path id="Trazado_4090" data-name="Trazado 4090" d="M318.375,298.207a6.6,6.6,0,0,1,3.232-1.052c1.469,0,2.159,1.087,2.472,2.312l2.465-2.846c-1.813-3.131-5.545-3.852-9.868-1.357v4.119A13.675,13.675,0,0,1,318.375,298.207Z" transform="translate(-305.635 -293.756)" opacity="0.25"/>
          <path id="Trazado_4091" data-name="Trazado 4091" d="M325.078,296.054l-2.465,2.846a9.008,9.008,0,0,1,.242,2.174,13.828,13.828,0,0,1-.17,2.059l3.566-2.059a9.954,9.954,0,0,0-1.173-5.019Z" transform="translate(-304.169 -293.19)" opacity="0.4"/>
        </g>
      </g>
    </g>
    <rect id="Rectángulo_4827-2" data-name="Rectángulo 4827" width="528" height="508" transform="translate(730 87)" fill="none"/>
  </g>
</svg>
