<?xml version="1.0" encoding="utf-8"?>
<!-- Generator: Adobe Illustrator 25.2.1, SVG Export Plug-In . SVG Version: 6.00 Build 0)  -->
<svg version="1.1" id="Capa_1" xmlns="http://www.w3.org/2000/svg" xmlns:xlink="http://www.w3.org/1999/xlink" x="0px" y="0px"
	 viewBox="0 0 55.4 49.9" style="enable-background:new 0 0 55.4 49.9;" xml:space="preserve">
<style type="text/css">
	.st0{fill:url(#Trazado_4247_1_);}
	.st1{fill:#8C7100;}
	.st2{opacity:0.14;fill:url(#Trazado_4251_1_);}
</style>
<linearGradient id="Trazado_4247_1_" gradientUnits="userSpaceOnUse" x1="-263.6417" y1="436.9508" x2="-263.6417" y2="437.9508" gradientTransform="matrix(55.3687 0 0 -49.879 14625.1836 21844.5488)">
	<stop  offset="0" style="stop-color:#F5BF00"/>
	<stop  offset="0.512" style="stop-color:#FFD028"/>
	<stop  offset="1" style="stop-color:#FFF3C4"/>
</linearGradient>
<path id="Trazado_4247" class="st0" d="M7.5,49.9c-3.1,0-5.5-1.2-6.8-3.3s-1-4.8,0.5-7.5L21.5,4.2C23,1.5,25.3,0,27.7,0
	s4.7,1.5,6.2,4.2l20.1,34.9c1.5,2.7,1.7,5.4,0.5,7.5s-3.7,3.3-6.8,3.3H7.5z"/>
<g id="Grupo_23107" transform="translate(215.665 34.089)">
	<g id="Grupo_23106" transform="translate(0 0)">
		<path id="Trazado_4248" class="st1" d="M-188-33.9c2.3,0,4.5,1.5,6,4.1l20.1,34.9c1.5,2.6,1.7,5.3,0.5,7.3s-3.6,3.2-6.6,3.2h-40.3
			c-3,0-5.4-1.2-6.6-3.2s-1-4.7,0.5-7.3l20.1-34.9C-192.5-32.4-190.3-33.9-188-33.9L-188-33.9z M-188-34.1c-2.4,0-4.7,1.5-6.2,4.2
			L-214.4,5c-1.5,2.7-1.7,5.4-0.5,7.5s3.7,3.3,6.8,3.3h40.3c3.1,0,5.5-1.2,6.8-3.3s1-4.8-0.5-7.5l-20.1-34.9
			C-183.3-32.6-185.6-34.1-188-34.1L-188-34.1z"/>
	</g>
</g>
<g id="Grupo_23109" transform="translate(217.846 36.276)">
	<g id="Grupo_23108" transform="translate(0 0)">
		<path id="Trazado_4249" d="M-190.2-32.8c1.2,0,2.3,0.9,3.2,2.5l10.1,17.4l10.1,17.4c0.9,1.6,1.1,3,0.5,4s-1.9,1.6-3.8,1.6h-40.3
			c-1.8,0-3.2-0.6-3.8-1.6s-0.4-2.4,0.5-4l10.1-17.4l10.1-17.4C-192.5-31.9-191.3-32.8-190.2-32.8L-190.2-32.8z M-190.2-34.1
			c-1.6,0-3.1,1-4.3,3.1l-10.1,17.4l-10.1,17.4c-2.4,4.1-0.5,7.5,4.3,7.5h40.3c4.8,0,6.7-3.4,4.3-7.5l-10.1-17.4L-185.8-31
			C-187-33.1-188.6-34.1-190.2-34.1L-190.2-34.1z"/>
	</g>
</g>
<path id="Trazado_4250" d="M27.6,42.1c-1.3,0-2.4-1.1-2.4-2.5c0-1.3,1.1-2.4,2.5-2.4s2.4,1.1,2.4,2.5C30.1,41,29,42,27.6,42.1
	L27.6,42.1z M26.2,34.2l-0.9-18.4c-0.1-0.8,0.4-1.5,1.1-1.9c0.4-0.1,0.8-0.2,1.2-0.2c0.4,0,0.9,0.1,1.3,0.2c0.7,0.3,1.2,1.1,1.1,1.9
	l-0.9,18.4c0,0.7-0.7,1.3-1.4,1.3h-0.2C26.9,35.5,26.3,34.9,26.2,34.2L26.2,34.2z"/>
<linearGradient id="Trazado_4251_1_" gradientUnits="userSpaceOnUse" x1="-262.021" y1="434.951" x2="-262.021" y2="435.951" gradientTransform="matrix(41.519 0 0 -39.843 10901.2373 17370.6914)">
	<stop  offset="0" style="stop-color:#FFFFFF"/>
	<stop  offset="1" style="stop-color:#FFFFFF"/>
</linearGradient>
<path id="Trazado_4251" class="st2" d="M43.1,22.4L33,4.8c-1.3-2.3-3.3-3.7-5.3-3.7s-3.9,1.3-5.3,3.7L2.3,39.6
	c-0.2,0.4-0.5,0.9-0.6,1.3L43.1,22.4z"/>
</svg>
