<?xml version="1.0" encoding="utf-8"?>
<!-- Generator: Adobe Illustrator 25.2.1, SVG Export Plug-In . SVG Version: 6.00 Build 0)  -->
<svg version="1.1" id="Capa_1" xmlns="http://www.w3.org/2000/svg" xmlns:xlink="http://www.w3.org/1999/xlink" x="0px" y="0px"
	 viewBox="0 0 300 267" style="enable-background:new 0 0 300 267;" xml:space="preserve">
<style type="text/css">
	.st0{fill:#EBFCF9;}
	.st1{fill:none;stroke:#5DC2AE;}
	.st2{fill:none;stroke:#49495E;stroke-width:2;stroke-miterlimit:10;}
	.st3{opacity:0.17;fill:#32323F;enable-background:new    ;}
	.st4{fill:#603A3E;}
	.st5{fill:#EFAEA6;}
	.st6{fill:#1F1F39;}
	.st7{fill:#022644;}
	.st8{opacity:0.14;fill:#1F1F39;enable-background:new    ;}
	.st9{fill:#201B2C;}
	.st10{fill:#EEADA5;}
	.st11{fill:#775155;}
	.st12{opacity:0.71;fill:#1F1F39;enable-background:new    ;}
	.st13{fill:#FFFFFF;}
	.st14{fill:#5DC2AE;}
	.st15{opacity:0.28;fill:#1F1F39;enable-background:new    ;}
	.st16{opacity:0.18;fill:#1F1F39;enable-background:new    ;}
	.st17{fill:#F4AD00;}
	.st18{opacity:0.12;fill:#1F1F39;enable-background:new    ;}
</style>
<g id="Grupo_23413" transform="translate(-788 -1104)">
	<g id="Rectángulo_5159" transform="translate(788 1104)">
		<path class="st0" d="M10,0h280c5.5,0,10,4.5,10,10v247c0,5.5-4.5,10-10,10H10c-5.5,0-10-4.5-10-10V10C0,4.5,4.5,0,10,0z"/>
		<path class="st1" d="M10,0.5h280c5.2,0,9.5,4.3,9.5,9.5v247c0,5.2-4.3,9.5-9.5,9.5H10c-5.2,0-9.5-4.3-9.5-9.5V10
			C0.5,4.8,4.8,0.5,10,0.5z"/>
	</g>
	<g id="Grupo_23105" transform="translate(77.593 802.218)">
		<path id="Trazado_4217" class="st2" d="M943.7,518.7c0,14.8-44.7,26-98.6,26s-92.3-14.3-92.3-29.2s38.3-28.4,92.3-28.4
			C901.6,487.2,943.7,503.8,943.7,518.7z"/>
		<path id="Trazado_4218" class="st3" d="M924.8,516.6c0,2.3-26.4,4.9-56.8,4.9s-55.1-1.8-55.1-4.1s24.7-4.1,55.1-4.1
			S924.8,514.3,924.8,516.6z"/>
		<g id="Grupo_23098" transform="translate(921.056 468.183)">
			<g id="Grupo_23096" transform="translate(0 4.426)">
				<path id="Trazado_4219" class="st4" d="M0.5,9.9c0.1,0,0.2-0.1,0.3-0.2c1.9-4.3,5.5-7.5,10-8.9c0.2-0.1,0.3-0.3,0.2-0.5
					C10.9,0.1,10.7,0,10.5,0C5.8,1.4,2,4.8,0,9.3C0,9.5,0,9.7,0.2,9.8C0.3,9.9,0.4,9.9,0.5,9.9L0.5,9.9z"/>
			</g>
			<g id="Grupo_23097" transform="translate(0.968 0)">
				<path id="Trazado_4220" class="st4" d="M0.5,7.3c0.1,0,0.2-0.1,0.2-0.1C2.2,5.4,3.9,3.9,6,2.8c2-1,4.2-1.7,6.5-2l0,0
					c0.2,0,0.4-0.2,0.3-0.5c0-0.2-0.2-0.4-0.4-0.3C7.5,0.5,3.1,2.9,0.1,6.7C0,6.8,0,7.1,0.1,7.2C0.2,7.3,0.3,7.3,0.5,7.3L0.5,7.3z"
					/>
			</g>
		</g>
		<path id="Trazado_4221" class="st5" d="M923,329.8c1.1-1,1.6-2.5,1.4-4c0-0.8-0.9-3.3,0.5-3.7c0.8-0.2,0.5,2.5,1.7,2
			c1.1-0.6,2.6-4.9,3.9-4.7c5.7,1.1,1.9,6.2,1.3,7.1c-1.6,2.5-3.3,3.2-5,6.7s-5.2,0.9-5.2,0.9L923,329.8z"/>
		<path id="Trazado_4222" class="st5" d="M954.9,475.7c-1.1-2.5-4.8-8.4-4.8-8.4l-6.4,3.4l5.6,8.8l5.8,0.4L954.9,475.7z"/>
		<path id="Trazado_4223" class="st6" d="M955.5,475.4c0.7-0.4,0.6,0.4,1.2,1.4c1.5,2.3,10.4,6,11.9,6.2c1.7,0.2,3.2,4.3-0.5,4
			c-3.4-0.2-12.3-1.7-15.8-1.4c-0.7,0.2-1.4-0.1-1.9-0.6c-1.4-2.2-2.6-6-1.7-6.4C950,477.7,952.7,477.2,955.5,475.4z"/>
		<g id="Grupo_23099" transform="translate(872.11 496.52)">
			<path id="Trazado_4224" class="st5" d="M8.9,11.4c1-2.6,2.5-9.3,2.5-9.3L4.5,0L2.2,10.1L6,14.6L8.9,11.4z"/>
			<path id="Trazado_4225" class="st6" d="M9.7,10.5c0.8,0.1,0.3,0.7,0.2,1.8c-0.2,2.7,8.9,5.6,10.2,6.2c0.7,0.3,0.7,4.4-2.9,3.3
				c-3.1-1-12.8-4-16.2-5.1C0.4,16.5,0,15.8,0,15.1C0.2,12.5,1.5,8.8,2.4,9C4,9,6.5,10.2,9.7,10.5z"/>
		</g>
		<path id="Trazado_4226" class="st7" d="M954.2,471.6c-5.7,4.5-8.3,5.6-8.3,5.6c-3-4.1-21.9-31.7-25.5-32.7
			c-5.1-1.5-15.3-6.4-23.1-10.2c-5.5-2.8-9.8-5-9.9-5.1l0,0c2.4,11,4.9,21.2,5.7,33.5c0,16.5-9.8,42.2-9.8,42.2
			c-6.1-0.8-10.3-2.2-9.6-2.8c1.5-6.7,10.2-32.9,8.2-39.2c-1.6-5.2-11.6-23-17.4-37.7c-1.1-2.9-2.1-5.7-2.8-8.2
			c-0.1-0.4,1.1-1.5,3-3c5.3-4.2,16-10.9,16-10.9l5.7,0.9c9.5,8,37.8,27.2,42.5,31.1S953.5,469.7,954.2,471.6z"/>
		<path id="Trazado_4227" class="st5" d="M877.2,365.4l-5.3-4.1c1.1-2.8,2-9.9,3.5-12.2c1.6-2.5,1.8-2.3,1.8-2.3l3.1,4.2l1.5,2
			c-0.5,0.9-0.9,2-1,3c-0.2,1.9-0.1,3.9,0.3,5.8C881.5,363.6,877.2,365.4,877.2,365.4z"/>
		<path id="Trazado_4228" class="st8" d="M881.7,353c-0.5,1.1-0.8,2.2-1,3.3c-4.4,0.2-5.5-3.5-4.1-4.2c1.2-0.4,2.4-0.8,3.6-1.1
			L881.7,353z"/>
		<g id="Grupo_23100" transform="translate(874.641 338.18)">
			<path id="Trazado_4229" class="st5" d="M12.5,8.6c-0.8,2-0.6,6.7-1.9,6.1s-1.7,4.2-3.1,3.6c-3.4-1.6-6.2-5.7-5.8-7.5
				s2.9-6.2,2.9-6.2L12.5,8.6z"/>
			<path id="Trazado_4230" class="st6" d="M8.1,8.7c1,0.7,0.9,0.9,1.8,0.9s0.2-1.6,1.7-1.2s3,1.2,4-0.3c1.4-2.2-0.8-2.8-2.2-3.2
				c-0.9-0.2-0.2-2.1-1.8-2.8C10.2,1.5,10,2.3,8.8,1.8C8.1,1.5,7.3-0.3,5.9,0c-2.7,0.5-2,3.2-4.5,4c-2.9,0.9-0.5,7.2,0.3,6.9
				c0.9-0.3,1-2.7,1.8-2.8c1.3-0.2,1,0.6,1.4,1.7c0.4,1.2,1.9,2,1.7,0S7.2,8.1,8.1,8.7z"/>
		</g>
		<g id="Grupo_23102" transform="translate(794.384 406.182)">
			<path id="Trazado_4231" class="st9" d="M29.2,14.9l1.4-1.9l0.8-1.1c0-0.1,0.1-0.1,0.1-0.2c0.3-0.5,0.5-1,0.5-1.5
				c0-0.5-0.2-0.9-0.5-1.3l-0.9-0.7l-0.1-0.1l-3.8-2.9c-0.2-0.1-0.4-0.2-0.6-0.3c-0.9,0-1.7,0.4-2.2,1.1L23,7.2l-1.4,1.8l1,0.7
				L24,7.9l0.2-0.3c0.4-0.5,1-0.9,1.6-0.9c0.2,0,0.3,0.1,0.5,0.2l3.4,2.6l0.3,0.2c0.6,0.6,0.5,1.6-0.1,2.2l-0.2,0.2l-1.4,1.9l0,0
				L29.2,14.9z"/>
			<path id="Trazado_4232" class="st10" d="M34.3,2.9c-0.7,1.3-0.1,1.2-0.8,2.9s-0.8,4.7-1.8,4.4s-0.9-1.6-1.1-2.1s0,1-1,1.4
				S26.5,9,26,7.9c-0.5-1.5-0.2-3,0.7-4.3c1.1-1.3,2.3-2.5,3.7-3.5C31.1-0.5,34.3,2.9,34.3,2.9z"/>
			<path id="Trazado_4233" class="st9" d="M30.6,13l0.8-1.1c0-0.1,0.1-0.1,0.1-0.2c0.3-0.5,0.5-1,0.5-1.5c0-0.5-0.2-0.9-0.5-1.3
				l-0.9-0.7l0,0l-0.1-0.1l-0.2,0.4l0,0l-0.2,0.5L30,9.8c0.6,0.7,0.5,1.6-0.1,2.2l-0.2,0.2l-1.4,1.9l1,0.7L30.6,13z"/>
			<g id="Grupo_23101" transform="translate(0 1.056)">
				<path id="Trazado_4234" class="st4" d="M39.7,23.8L29.2,37.6c-0.6,0.8-1.8,1-2.6,0.4l0,0L1.6,19.6c-2.8-2.1-1.3-4.1-0.7-4.9
					l9.5-13.4c1.4-1.5,3.8-1.7,5.5-0.5l22,16.6l0.8,0.6C40.6,19.3,41,21.8,39.7,23.8C39.7,23.7,39.7,23.7,39.7,23.8z"/>
				<path id="Trazado_4235" class="st11" d="M39.7,23.8L29.2,37.6c-0.6,0.8-1.8,1-2.6,0.4l0,0c0.6-1.6,1.6-3.1,2.8-4.4
					c4.1-4.7,6.9-11.4,8.5-16.1l0.8,0.6C40.6,19.3,41,21.8,39.7,23.8C39.7,23.7,39.7,23.7,39.7,23.8z"/>
			</g>
		</g>
		<path id="Trazado_4236" class="st12" d="M864.4,425.3c-1.1-2.9-2.1-5.7-2.8-8.2c-0.1-0.4,1.1-1.5,3-3l12-4.2
			C877.5,416.7,869.3,421.8,864.4,425.3z"/>
		<path id="Trazado_4237" class="st13" d="M872.6,357.4c2.4-1,3.9,1.9,5.9,1.7c1.2-0.1,1-1.2,1.5-1.9c0.3-0.4,1-0.2,2-0.3
			c2.6-0.2,10.4,50,10.4,50s-6.7,3-11.9,3.7s-13.7,0-13.7-1.8s1.4-48,1.4-48C869.4,359.3,870.9,358.2,872.6,357.4z"/>
		<path id="Trazado_4238" class="st14" d="M875.6,382.4c3.2,7.4-0.3,15.4,0.2,19.4c0.5,3.9,2,9.5-1.2,12.2s-10.7,3.6-12.2,4.5
			c-1.7,1.1-5.7,0.5-4.9-3.3c0.6-3.1,5.9-14.7,5.6-20.4c0-1.1-0.1-2.1-0.4-3.2c-0.2-0.6-0.3-1.2-0.5-1.9c-0.9-2.8-2-5.6-2.2-6.8v0
			c0-0.1,0-0.3,0-0.4c0,0,0,0,0,0c-1,0.8-13.4,4.3-18.5,10c-6.6,8.4-10,16.8-11.9,17.6c-2.5-0.7-4.7-2.2-6.3-4.3
			c0,0,8.6-13.7,12.5-19.4c3.7-5.3,14.1-12.6,21.7-18.5c5.1-4,14.7-10.4,14.7-10.4C872.9,360.3,871.6,373.1,875.6,382.4z"/>
		<path id="Trazado_4239" class="st15" d="M860,382.5l0.1,0.5l0,0c0.3,1.3,1.3,3.9,2.2,6.7c0.2,0.6,0.4,1.2,0.5,1.9
			c0.2,1,0.3,2.1,0.4,3.2c0,1.1,0.4,2.3,0.4,3.7c0.1-0.2,0-0.5,0.1-0.7c0.6-1.5,2.1-13.7,1.4-16.5
			C863.3,381.3,861.6,381.8,860,382.5z"/>
		<g id="Grupo_23103" transform="translate(812.295 356.609)">
			<path id="Trazado_4240" class="st16" d="M65.4,3.6c-0.2-0.2-3.6,4.7-7.4,6c-1.1,0.4-2.2,0.5-3.3,0.5c-0.7,0-5.3-0.8-6.5-1
				c4-2.8,2.1-1.9,4-2.8c2.9,1.3,1.3,1.4,3,1.4c1.3,0,2.1-1.1,3.2-1.4c2-0.6,3.9-1.6,5.6-2.8c0.8-0.5,1-1.4,1.8-1.3
				C67,2.2,65.7,3.9,65.4,3.6z"/>
			<path id="Trazado_4241" class="st17" d="M67.2,2.7c0.1-0.8-0.5-1.4-1.2-1.5c0,0-0.1,0-0.1,0C65,1.2,64.9,1.5,64.2,2
				c-2.3,1.5-5.6,3.4-9.3,3.3S43.4-0.5,37.8,0s-7.8,5.2-15.7,5.5S6.2,1.5,3.9,1.6S0.1,2.1,0,3c0.2,1.5,1.1,2.7,2.5,3.4
				C4,7.3,18.1,9.9,21.9,9.9c6.2-0.1,12.2-5,16.2-4.9s12,3.4,16.7,3.7C60,9,64.9,3.5,65.2,3.8c0.3,0.4,0.8,0.5,1.3,0.4
				C67,4.2,67.1,3.2,67.2,2.7z"/>
		</g>
		<path id="Trazado_4242" class="st14" d="M927.9,333c-0.7,1.6-10.2,19.9-14,22.3c-3.1,2-10.5,5.4-16.1,8.4
			c-3.7,1.9-6.6,3.6-6.9,4.5c0,0,0,0.1,0,0.1c0,0.2-0.1,0.4-0.1,0.5c-0.3,4,1.4,19.3,2.3,22.4c0.9,3.3,4.3,21.8,0.6,21.4
			c-3.9-0.4-8.9,3.9-10.2,2.1c-1.1-1.6,4.8-20,3.8-28.5s-0.8-10.5-2.9-19.9l-2.4-9.4c9.3-1,22.5-7.4,26.9-9
			c2.2-2.1,13.9-20.7,14.5-20.6S928.6,331.4,927.9,333z"/>
		<path id="Trazado_4243" class="st18" d="M897.7,363.7c-3.7,1.9-6.6,3.6-6.9,4.5C891.1,365.9,892,361.8,897.7,363.7z"/>
		<path id="Trazado_4244" class="st12" d="M897.2,434.3c-5.5-2.8-9.8-5-9.9-5.1l0,0l-0.8-3.8L897.2,434.3z"/>
	</g>
</g>
</svg>
