<svg xmlns="http://www.w3.org/2000/svg" width="195" height="25" viewBox="0 0 195 25">
  <g id="Grupo_23435" data-name="Grupo 23435" transform="translate(-781.943 -831)">
    <path id="Trazado_4793" data-name="Trazado 4793" d="M12.5,0A12.5,12.5,0,1,1,0,12.5,12.5,12.5,0,0,1,12.5,0Z" transform="translate(781.943 831)" fill="#f26d65"/>
    <path id="Trazado_4795" data-name="Trazado 4795" d="M12.5,0A12.5,12.5,0,1,1,0,12.5,12.5,12.5,0,0,1,12.5,0Z" transform="translate(815.943 831)" fill="#f88423"/>
    <path id="Trazado_4796" data-name="Trazado 4796" d="M12.5,0A12.5,12.5,0,1,1,0,12.5,12.5,12.5,0,0,1,12.5,0Z" transform="translate(849.943 831)" fill="#8cc73f"/>
    <path id="Trazado_4799" data-name="Trazado 4799" d="M12.5,0A12.5,12.5,0,1,1,0,12.5,12.5,12.5,0,0,1,12.5,0Z" transform="translate(883.943 831)" fill="#546e7b"/>
    <path id="Trazado_4800" data-name="Trazado 4800" d="M12.5,0A12.5,12.5,0,1,1,0,12.5,12.5,12.5,0,0,1,12.5,0Z" transform="translate(917.943 831)" fill="#5ec6d3"/>
    <path id="Trazado_4801" data-name="Trazado 4801" d="M12.5,0A12.5,12.5,0,1,1,0,12.5,12.5,12.5,0,0,1,12.5,0Z" transform="translate(951.943 831)" fill="#29abe2"/>
  </g>
</svg>
