<svg xmlns="http://www.w3.org/2000/svg" width="79.916" height="79.916" viewBox="0 0 79.916 79.916">
  <g id="Grupo_23194" data-name="Grupo 23194" transform="translate(-498.324 -58.257)">
    <g id="Grupo_23182" data-name="Grupo 23182" transform="translate(498.324 58.257)">
      <path id="Trazado_4360" data-name="Trazado 4360" d="M514.968,106.579l-4.275-5.171,1.119-17.627,4.265-1.25,2.188-1.837.609-1.857,4.1-7.605,55.264,26.618A39.919,39.919,0,1,0,544.427,137.7l-29.458-14.622Z" transform="translate(-498.324 -58.257)" fill="#e5c438"/>
      <path id="Trazado_4361" data-name="Trazado 4361" d="M622.31,144.446c0-.122,0-.243,0-.364l-55.264-26.618-4.1,7.605-.609,1.857-2.188,1.837-4.265,1.25-1.119,17.627,4.275,5.171v16.5L588.5,183.934A39.968,39.968,0,0,0,622.31,144.446Z" transform="translate(-542.394 -104.488)" fill="#ccae2e"/>
    </g>
    <g id="Grupo_23185" data-name="Grupo 23185" transform="translate(509.324 70.425)">
      <path id="Trazado_4362" data-name="Trazado 4362" d="M763.264,330.393c-3.42,0-6.189-1.109-6.189-2.474v2.474c0,1.367,2.769,2.476,6.189,2.476s6.189-1.109,6.189-2.476v-2.474C769.453,329.285,766.681,330.393,763.264,330.393Z" transform="translate(-711.368 -280.988)" fill="#fff"/>
      <g id="Grupo_23184" data-name="Grupo 23184" transform="translate(0)">
        <path id="Trazado_4363" data-name="Trazado 4363" d="M552.392,166.037V165.3h.878v.857q0,16.19,0,32.378a7.277,7.277,0,0,0,.107,1.417,2.613,2.613,0,0,0,1.755,1.817h1.3a2.885,2.885,0,0,0,1.987-3.161c-.041-6.1-.017-12.2-.017-18.3v-.8h.885v.785c0,6.078.03,12.156-.021,18.233-.012,1.562.448,2.684,1.969,3.24h1.3c1.508-.545,1.948-1.682,1.944-3.2q-.038-16.184-.014-32.369v-.886c.144-.339.329-2.169.448-2.72.426.234.7.382.7.38l.675.376q4.787,2.669,9.576,5.335a6.61,6.61,0,0,0,.817.391,1.9,1.9,0,0,0,1.635-3.415c-2.637-1.487-5.285-2.953-7.929-4.427-1.265-.707-2.527-1.418-3.8-2.115a6.177,6.177,0,0,0-3.628-.786q-1.441-.019-2.88-.025v.506l-.685,1.393-.108.287.663,11.311-1.166,1.306-.017-.018-.017.018-1.166-1.306.663-11.311-.108-.287-.685-1.393v-.508q-1.521,0-3.044.018a5.653,5.653,0,0,0-5.79,4.66,1.215,1.215,0,0,1-.106.228v15.058a2.263,2.263,0,0,0,1.369,1.257,1.909,1.909,0,0,0,2.488-1.751,8.841,8.841,0,0,0,.018-.907Q552.393,171.456,552.392,166.037Z" transform="translate(-548.517 -148.547)" fill="#fff"/>
        <path id="Trazado_4364" data-name="Trazado 4364" d="M583.288,122.582a4.438,4.438,0,0,0,4.529-2.68,4.3,4.3,0,0,0-1.32-5.127,11.478,11.478,0,0,0-1.928-1h-1.688a6.248,6.248,0,0,1-.572.255,4.444,4.444,0,0,0-2.887,5.049A4.491,4.491,0,0,0,583.288,122.582Z" transform="translate(-572.576 -113.777)" fill="#fff"/>
        <g id="Grupo_23183" data-name="Grupo 23183" transform="translate(18.444 31.971)">
          <path id="Trazado_4365" data-name="Trazado 4365" d="M638.865,288.047c-3.419,0-6.189-1.107-6.189-2.474v2.474c0,1.368,2.77,2.476,6.189,2.476s6.189-1.107,6.189-2.476v-2.474C645.054,286.94,642.282,288.047,638.865,288.047Z" transform="translate(-632.676 -279.893)" fill="#fff"/>
          <path id="Trazado_4366" data-name="Trazado 4366" d="M638.865,302.745c-3.419,0-6.189-1.109-6.189-2.476v2.476c0,1.367,2.77,2.476,6.189,2.476s6.189-1.109,6.189-2.476v-2.476C645.054,301.636,642.282,302.745,638.865,302.745Z" transform="translate(-632.676 -291.368)" fill="#fff"/>
          <path id="Trazado_4367" data-name="Trazado 4367" d="M638.865,317.447c-3.419,0-6.189-1.109-6.189-2.476v2.476c0,1.368,2.77,2.476,6.189,2.476s6.189-1.107,6.189-2.476v-2.476C645.054,316.338,642.282,317.447,638.865,317.447Z" transform="translate(-632.676 -302.848)" fill="#fff"/>
          <path id="Trazado_4368" data-name="Trazado 4368" d="M638.865,332.143c-3.419,0-6.189-1.107-6.189-2.476v2.476c0,1.368,2.77,2.476,6.189,2.476s6.189-1.109,6.189-2.476v-2.476C645.054,331.035,642.282,332.143,638.865,332.143Z" transform="translate(-632.676 -314.323)" fill="#fff"/>
          <path id="Trazado_4369" data-name="Trazado 4369" d="M638.865,259.656c-3.419,0-6.189,1.108-6.189,2.476v2.476c0,1.368,2.77,2.476,6.189,2.476s6.189-1.107,6.189-2.476v-2.476C645.054,260.764,642.282,259.656,638.865,259.656Zm0,4.331c-3.4,0-5.571-1.1-5.571-1.857s2.169-1.857,5.571-1.857,5.569,1.1,5.569,1.857S642.267,263.987,638.865,263.987Z" transform="translate(-632.676 -259.656)" fill="#fff"/>
          <path id="Trazado_4370" data-name="Trazado 4370" d="M654.686,265.286c-.715-.116-1.011-.19-1.011-.309,0-.1.176-.2.724-.2a5.942,5.942,0,0,1,1.211.123l.243-.405a6.255,6.255,0,0,0-1.22-.119v-.317h-.825v.34c-.9.076-1.422.323-1.422.64,0,.347.615.527,1.514.656.623.091.892.177.892.313s-.328.223-.809.223a6.26,6.26,0,0,1-1.4-.159l-.253.42a7.219,7.219,0,0,0,1.429.154v.34h.825v-.365c.968-.071,1.5-.344,1.5-.665S655.688,265.435,654.686,265.286Z" transform="translate(-648.027 -263.093)" fill="#fff"/>
          <path id="Trazado_4371" data-name="Trazado 4371" d="M701.278,302.736c-3.419,0-6.189-1.109-6.189-2.475v2.475c0,1.367,2.77,2.475,6.189,2.475s6.189-1.108,6.189-2.475v-2.475C707.467,301.627,704.695,302.736,701.278,302.736Z" transform="translate(-681.411 -291.362)" fill="#fff"/>
          <path id="Trazado_4372" data-name="Trazado 4372" d="M701.278,317.434c-3.419,0-6.189-1.109-6.189-2.476v2.476c0,1.367,2.77,2.476,6.189,2.476s6.189-1.109,6.189-2.476v-2.476C707.467,316.325,704.695,317.434,701.278,317.434Z" transform="translate(-681.411 -302.838)" fill="#fff"/>
          <path id="Trazado_4373" data-name="Trazado 4373" d="M701.278,332.143c-3.419,0-6.189-1.109-6.189-2.476v2.476c0,1.367,2.77,2.476,6.189,2.476s6.189-1.109,6.189-2.476v-2.476C707.467,331.034,704.695,332.143,701.278,332.143Z" transform="translate(-681.411 -314.323)" fill="#fff"/>
          <path id="Trazado_4374" data-name="Trazado 4374" d="M701.278,274.351c-3.419,0-6.189,1.107-6.189,2.476V279.3c0,1.368,2.77,2.476,6.189,2.476s6.189-1.107,6.189-2.476v-2.476C707.467,275.458,704.695,274.351,701.278,274.351Zm0,4.331c-3.4,0-5.571-1.1-5.571-1.857s2.17-1.857,5.571-1.857,5.569,1.1,5.569,1.857S704.68,278.682,701.278,278.682Z" transform="translate(-681.411 -271.13)" fill="#fff"/>
          <path id="Trazado_4375" data-name="Trazado 4375" d="M717.1,279.974c-.716-.116-1.011-.19-1.011-.309,0-.1.177-.2.724-.2a5.919,5.919,0,0,1,1.211.124l.243-.407a6.611,6.611,0,0,0-1.22-.119v-.316h-.825v.34c-.9.077-1.422.325-1.422.641,0,.347.615.527,1.514.656.623.089.892.177.892.313s-.328.221-.809.221a6.26,6.26,0,0,1-1.4-.157l-.252.419a7.1,7.1,0,0,0,1.429.156v.34H717v-.365c.968-.071,1.5-.346,1.5-.666S718.1,280.126,717.1,279.974Z" transform="translate(-696.761 -274.563)" fill="#fff"/>
        </g>
        <path id="Trazado_4376" data-name="Trazado 4376" d="M763.264,302.009c-3.42,0-6.189,1.107-6.189,2.476v2.476c0,1.368,2.769,2.476,6.189,2.476s6.189-1.107,6.189-2.476v-2.476C769.453,303.116,766.681,302.009,763.264,302.009Zm0,4.331c-3.4,0-5.571-1.1-5.571-1.857s2.17-1.857,5.571-1.857,5.569,1.1,5.569,1.857S766.666,306.34,763.264,306.34Z" transform="translate(-711.368 -260.756)" fill="#fff"/>
        <path id="Trazado_4377" data-name="Trazado 4377" d="M779.085,307.632c-.715-.116-1.011-.19-1.011-.309,0-.1.177-.2.724-.2a5.918,5.918,0,0,1,1.211.124l.243-.407a6.631,6.631,0,0,0-1.22-.119V306.4h-.825v.34c-.9.077-1.422.325-1.422.641,0,.347.615.527,1.514.656.623.089.892.177.892.313s-.328.221-.809.221a6.27,6.27,0,0,1-1.4-.157l-.252.419a7.117,7.117,0,0,0,1.429.156v.34h.826v-.365c.967-.071,1.5-.346,1.5-.666S780.087,307.783,779.085,307.632Z" transform="translate(-726.718 -264.188)" fill="#fff"/>
      </g>
    </g>
  </g>
</svg>
