<svg xmlns="http://www.w3.org/2000/svg" xmlns:xlink="http://www.w3.org/1999/xlink" width="405.328" height="234.113" viewBox="0 0 405.328 234.113">
  <defs>
    <linearGradient id="linear-gradient" x1="0.422" y1="1.655" x2="-0.071" y2="9.001" gradientUnits="objectBoundingBox">
      <stop offset="0" stop-color="#022644"/>
      <stop offset="1" stop-color="#022644"/>
    </linearGradient>
    <linearGradient id="linear-gradient-2" x1="-977.969" y1="-9.72" x2="-988.89" y2="-8.972" gradientUnits="objectBoundingBox">
      <stop offset="0" stop-color="#09005d"/>
      <stop offset="1" stop-color="#1a0f91"/>
    </linearGradient>
    <linearGradient id="linear-gradient-3" x1="-551.466" y1="-20.08" x2="-557.613" y2="-18.617" xlink:href="#linear-gradient-2"/>
    <linearGradient id="linear-gradient-4" x1="-542.033" y1="-18.832" x2="-548.18" y2="-17.369" xlink:href="#linear-gradient-2"/>
    <linearGradient id="linear-gradient-5" x1="27.01" y1="0.5" x2="28.01" y2="0.5" xlink:href="#linear-gradient-2"/>
    <linearGradient id="linear-gradient-6" x1="6.204" y1="-5.347" x2="3.18" y2="-2.237" gradientUnits="objectBoundingBox">
      <stop offset="0" stop-color="#ff928e"/>
      <stop offset="1" stop-color="#feb3b1"/>
    </linearGradient>
    <linearGradient id="linear-gradient-7" x1="73.516" y1="-0.307" x2="72.151" y2="1.929" gradientUnits="objectBoundingBox">
      <stop offset="0" stop-color="#09005d"/>
      <stop offset="1" stop-color="#022644"/>
    </linearGradient>
    <linearGradient id="linear-gradient-9" x1="10.706" y1="-9.976" x2="7.681" y2="-6.866" xlink:href="#linear-gradient-6"/>
    <linearGradient id="linear-gradient-12" x1="8.046" y1="-7.242" x2="5.022" y2="-4.132" xlink:href="#linear-gradient-6"/>
    <linearGradient id="linear-gradient-15" x1="11.785" y1="-11.086" x2="8.76" y2="-7.976" xlink:href="#linear-gradient-6"/>
    <linearGradient id="linear-gradient-17" x1="-3.108" y1="2.938" x2="-2.097" y2="2.938" gradientUnits="objectBoundingBox">
      <stop offset="0" stop-color="#fe7062"/>
      <stop offset="1" stop-color="#71d6c6"/>
    </linearGradient>
    <linearGradient id="linear-gradient-19" x1="-10.096" y1="-0.287" x2="-10.133" y2="2.271" gradientUnits="objectBoundingBox">
      <stop offset="0" stop-color="#5dc2ae"/>
      <stop offset="1" stop-color="#5dc2ae"/>
    </linearGradient>
    <linearGradient id="linear-gradient-20" x1="-6.723" y1="20.684" x2="-3.076" y2="14.155" gradientUnits="objectBoundingBox">
      <stop offset="0" stop-color="#09005d"/>
      <stop offset="1" stop-color="#93f5e5"/>
    </linearGradient>
  </defs>
  <g id="Grupo_23822" data-name="Grupo 23822" transform="translate(12581.037 4754.46)">
    <path id="Trazado_4393" data-name="Trazado 4393" d="M144.452,388.657c.1-1.666-39.116-51.682,6.547-97.861,20.614-20.846,55.482-9.551,49.967-70.448-4.762-52.579,77.492-83.474,128.612-36.53,33.027,30.33,66.463-10.131,118.86,12.826S466.331,282,487.832,287.879c42.353,11.582,63.389,62.549,29.622,100.213Z" transform="translate(-12709.918 -4915.18)" fill="#d1f8f2"/>
    <g id="Grupo_23820" data-name="Grupo 23820" transform="translate(-12692.895 -4918.585)">
      <g id="Grupo_23817" data-name="Grupo 23817" transform="translate(157.915 341.371)">
        <path id="Trazado_5878" data-name="Trazado 5878" d="M176.917,951.748c3.464,8.985,25.562,60.417,73.126,47.5,0,0-6.631-37.759-72.34-48.613A.787.787,0,0,0,176.917,951.748Z" transform="translate(-176.856 -950.625)" fill="#a8fff1"/>
        <path id="Trazado_5879" data-name="Trazado 5879" d="M217.287,981.66c1.985,2.282,4.064,4.5,6.172,6.674s4.271,4.305,6.471,6.39,4.45,4.117,6.742,6.1,4.626,3.915,7.02,5.769,4.824,3.662,7.331,5.355,5.049,3.333,7.683,4.811c.65.385,1.316.74,1.982,1.094s1.323.727,2.006,1.048l2.03,1,2.064.92a61.978,61.978,0,0,0,8.5,2.971l.008,0a.611.611,0,0,1-.313,1.182l-.006,0a71.075,71.075,0,0,1-16.8-7.305c-2.648-1.52-5.2-3.2-7.705-4.929s-4.938-3.571-7.325-5.46-4.716-3.85-7-5.864-4.517-4.076-6.707-6.187-4.333-4.269-6.428-6.472-4.152-4.44-6.13-6.759a.259.259,0,0,1,.392-.338Z" transform="translate(-209.253 -975.703)" fill="#5dc2ae"/>
      </g>
      <g id="Grupo_23818" data-name="Grupo 23818" transform="translate(200.619 198.886)">
        <path id="Trazado_5880" data-name="Trazado 5880" d="M408.2,199.789c-4.256,14.28-25.627,98.394,49.7,132.627,0,0,28.325-51.753-47.573-133.13A1.261,1.261,0,0,0,408.2,199.789Z" transform="translate(-402.16 -198.886)" fill="#93f5e5"/>
        <path id="Trazado_5881" data-name="Trazado 5881" d="M461.314,276.606c.555,4.719,1.207,9.433,1.9,14.137s1.445,9.4,2.249,14.088c1.608,9.374,3.426,18.712,5.529,27.983s4.49,18.48,7.366,27.531q2.135,6.795,4.764,13.411a119.239,119.239,0,0,0,5.958,12.882v0a.611.611,0,0,1-1.073.586l0,0a120.321,120.321,0,0,1-5.939-13.05q-2.608-6.67-4.707-13.514c-2.832-9.107-5.16-18.355-7.217-27.655s-3.812-18.664-5.365-28.058q-1.164-7.045-2.164-14.117c-.665-4.714-1.288-9.432-1.815-14.168a.259.259,0,0,1,.515-.059Z" transform="translate(-449.683 -261.687)" fill="#5dc2ae"/>
      </g>
      <g id="Grupo_23819" data-name="Grupo 23819" transform="translate(153.485 237.56)">
        <path id="Trazado_5882" data-name="Trazado 5882" d="M153.486,404.578c.607,18.858,8.619,128.457,112.815,139.412,0,0,13.3-73.511-110.46-140.87A1.6,1.6,0,0,0,153.486,404.578Z" transform="translate(-153.485 -402.925)" fill="#d6fff8"/>
        <path id="Trazado_5883" data-name="Trazado 5883" d="M216.091,488.171c2.387,5.866,5.024,11.641,7.77,17.355s5.641,11.359,8.669,16.929a336.561,336.561,0,0,0,19.922,32.37,219.34,219.34,0,0,0,24.2,29.226c2.23,2.243,4.545,4.4,6.912,6.494s4.808,4.1,7.323,6.013a101.881,101.881,0,0,0,15.988,10.078l0,0a.611.611,0,1,1-.551,1.092h0a103.063,103.063,0,0,1-16.128-10.269q-3.8-2.908-7.358-6.1c-2.375-2.122-4.7-4.3-6.929-6.572a220.269,220.269,0,0,1-24.169-29.467,337.364,337.364,0,0,1-19.819-32.539q-4.511-8.392-8.6-17c-2.725-5.738-5.335-11.526-7.705-17.427a.259.259,0,1,1,.481-.193Z" transform="translate(-203.819 -471.878)" fill="#7cd8c6"/>
      </g>
    </g>
    <g id="Grupo_23816" data-name="Grupo 23816" transform="translate(-12657.822 -4781.57)">
      <g id="Grupo_23770" data-name="Grupo 23770" transform="translate(195.198 86.013)">
        <ellipse id="Elipse_1244" data-name="Elipse 1244" cx="83.722" cy="90.37" rx="83.722" ry="90.37" transform="matrix(0.044, -0.999, 0.999, 0.044, 0, 167.283)" fill="#93f5e5"/>
        <g id="Grupo_23768" data-name="Grupo 23768" transform="translate(18.151 14.575)">
          <ellipse id="Elipse_1245" data-name="Elipse 1245" cx="70.912" cy="66.989" rx="70.912" ry="66.989" fill="#befff4"/>
        </g>
        <g id="Grupo_23769" data-name="Grupo 23769" transform="translate(11.806 6.182)" opacity="0.68">
          <path id="Trazado_5645" data-name="Trazado 5645" d="M1071.632,265.658c0,7.378-.271,14.758-.841,22.115s-1.457,14.692-2.747,21.96c-.65,3.633-1.4,7.248-2.3,10.828a104.239,104.239,0,0,1-3.226,10.592c-.642,1.732-1.343,3.443-2.132,5.115a39.642,39.642,0,0,1-2.685,4.853,24.406,24.406,0,0,1-1.652,2.236,16.094,16.094,0,0,1-1.952,1.987,10.226,10.226,0,0,1-2.344,1.518,6.982,6.982,0,0,1-2.722.648,6.821,6.821,0,0,1-2.75-.51,9.6,9.6,0,0,1-2.4-1.434,15.216,15.216,0,0,1-2-1.944,23.405,23.405,0,0,1-1.685-2.212,38.329,38.329,0,0,1-2.728-4.829c-.8-1.667-1.511-3.374-2.159-5.1a101.9,101.9,0,0,1-3.262-10.581c-.91-3.578-1.672-7.191-2.328-10.823-1.308-7.265-2.2-14.6-2.789-21.954s-.877-14.735-.9-22.114c-.01-3.69.065-7.379.19-11.066s.319-7.372.579-11.052c.523-7.359,1.316-14.7,2.505-21.987.6-3.641,1.295-7.267,2.136-10.86a104.343,104.343,0,0,1,3.046-10.641c.614-1.741,1.285-3.463,2.051-5.144a37.49,37.49,0,0,1,2.627-4.877,22.673,22.673,0,0,1,1.642-2.236,14.714,14.714,0,0,1,1.966-1.962,9.209,9.209,0,0,1,2.379-1.435,7.142,7.142,0,0,1,1.339-.39,6.631,6.631,0,0,1,1.392-.1,7.2,7.2,0,0,1,2.7.64,10.6,10.6,0,0,1,2.352,1.478,20.194,20.194,0,0,1,3.689,4.129,39.513,39.513,0,0,1,2.8,4.777c.832,1.649,1.573,3.343,2.257,5.057a100.839,100.839,0,0,1,3.461,10.513c.973,3.56,1.8,7.16,2.506,10.781a210.458,210.458,0,0,1,3.028,21.921C1071.32,250.9,1071.623,258.279,1071.632,265.658Zm-.482,0c0-7.366-.284-14.733-.9-22.073a211.61,211.61,0,0,0-2.936-21.891c-.691-3.617-1.495-7.213-2.448-10.77a100.565,100.565,0,0,0-3.4-10.5c-.673-1.712-1.4-3.4-2.224-5.049a39.294,39.294,0,0,0-2.766-4.766,20.022,20.022,0,0,0-3.635-4.11,10.431,10.431,0,0,0-2.309-1.467,6.973,6.973,0,0,0-2.643-.637,6.377,6.377,0,0,0-1.36.106,6.99,6.99,0,0,0-1.308.388,9.046,9.046,0,0,0-2.33,1.422,14.537,14.537,0,0,0-1.933,1.948,22.491,22.491,0,0,0-1.618,2.226,37.273,37.273,0,0,0-2.589,4.863c-.754,1.677-1.415,3.4-2.018,5.135a104.029,104.029,0,0,0-2.987,10.627c-.822,3.589-1.5,7.211-2.079,10.848-1.152,7.276-1.909,14.612-2.4,21.962s-.686,14.719-.676,22.086.258,14.733.822,22.077,1.429,14.668,2.709,21.921c.642,3.626,1.39,7.233,2.285,10.8a101.6,101.6,0,0,0,3.215,10.556c.639,1.724,1.342,3.426,2.131,5.085a38.009,38.009,0,0,0,2.69,4.8,23.109,23.109,0,0,0,1.656,2.19,14.937,14.937,0,0,0,1.953,1.916,9.333,9.333,0,0,0,2.326,1.4,6.5,6.5,0,0,0,2.646.5,6.724,6.724,0,0,0,2.619-.633,9.954,9.954,0,0,0,2.276-1.487,15.8,15.8,0,0,0,1.911-1.96,24.107,24.107,0,0,0,1.624-2.215,39.358,39.358,0,0,0,2.647-4.825c.779-1.665,1.471-3.37,2.1-5.1a103.812,103.812,0,0,0,3.178-10.567c.885-3.573,1.625-7.182,2.261-10.809,1.269-7.255,2.12-14.58,2.683-21.924S1071.15,273.025,1071.15,265.658Z" transform="translate(-966.702 -183.831)" fill="#fff" style="mix-blend-mode: soft-light;isolation: isolate"/>
          <path id="Trazado_5646" data-name="Trazado 5646" d="M826.307,262.844a109.281,109.281,0,0,1-.942,14.181,103.672,103.672,0,0,1-2.839,13.925,95.192,95.192,0,0,1-4.825,13.366,85.439,85.439,0,0,1-6.857,12.441,74,74,0,0,1-8.957,11.019,62.733,62.733,0,0,1-11.041,8.917,53.328,53.328,0,0,1-12.884,5.929,48.427,48.427,0,0,1-28.045.005,53.335,53.335,0,0,1-12.888-5.924,62.766,62.766,0,0,1-11.048-8.914,74.016,74.016,0,0,1-8.965-11.018,85.469,85.469,0,0,1-6.864-12.443,95.1,95.1,0,0,1-4.831-13.369,103.689,103.689,0,0,1-2.841-13.93,107.218,107.218,0,0,1,0-28.372,103.207,103.207,0,0,1,2.851-13.927,95.287,95.287,0,0,1,4.836-13.365,85.449,85.449,0,0,1,6.867-12.438A74,74,0,0,1,726,197.915a62.666,62.666,0,0,1,11.046-8.907,53.434,53.434,0,0,1,12.884-5.915,48.351,48.351,0,0,1,28.028,0,53.3,53.3,0,0,1,12.878,5.925,62.755,62.755,0,0,1,11.039,8.911,73.98,73.98,0,0,1,8.957,11.014,85.418,85.418,0,0,1,6.861,12.437,95.161,95.161,0,0,1,4.829,13.362,103.634,103.634,0,0,1,2.843,13.924A109.27,109.27,0,0,1,826.307,262.844Zm-.552,0a108.762,108.762,0,0,0-.913-14.112,103.115,103.115,0,0,0-2.8-13.86,90.212,90.212,0,0,0-11.518-25.729,73.648,73.648,0,0,0-8.867-11.005,61.9,61.9,0,0,0-10.955-8.917,53.07,53.07,0,0,0-12.812-5.919,47.668,47.668,0,0,0-27.9,0,52.95,52.95,0,0,0-12.806,5.928,61.976,61.976,0,0,0-10.947,8.921,73.635,73.635,0,0,0-8.859,11.006,90.155,90.155,0,0,0-11.5,25.725,103.548,103.548,0,0,0-2.792,13.856,109.051,109.051,0,0,0,0,28.213,103.074,103.074,0,0,0,2.8,13.854,95.944,95.944,0,0,0,4.746,13.312,84.98,84.98,0,0,0,6.766,12.4,73.615,73.615,0,0,0,8.86,11,61.888,61.888,0,0,0,10.946,8.914,53.037,53.037,0,0,0,12.8,5.919,47.592,47.592,0,0,0,27.883.005,53.043,53.043,0,0,0,12.807-5.914,61.911,61.911,0,0,0,10.953-8.911,73.623,73.623,0,0,0,8.868-11,90.193,90.193,0,0,0,11.525-25.721,103.133,103.133,0,0,0,2.8-13.859A108.774,108.774,0,0,0,825.754,262.844Z" transform="translate(-684.171 -181.017)" fill="#fff" style="mix-blend-mode: soft-light;isolation: isolate"/>
          <path id="Trazado_5647" data-name="Trazado 5647" d="M617.93,562.206l18.835-.067L655.6,562.1l37.67-.031,37.67.034,18.835.042,18.835.072a.024.024,0,0,1,0,.049l-18.835.072-18.835.042-37.67.034-37.67-.031-18.835-.038-18.835-.067a.036.036,0,0,1,0-.073Z" transform="translate(-611.349 -512.787)" fill="#fff" style="mix-blend-mode: soft-light;isolation: isolate"/>
          <path id="Trazado_5648" data-name="Trazado 5648" d="M786.878,318.289l13.372-.067,13.372-.038,26.744-.031,26.744.034,13.372.042,13.372.072a.024.024,0,0,1,0,.049l-13.372.072-13.372.041-26.744.034-26.744-.031-13.372-.038-13.372-.067a.036.036,0,0,1,0-.073Z" transform="translate(-758.446 -300.417)" fill="#fff" style="mix-blend-mode: soft-light;isolation: isolate"/>
          <path id="Trazado_5649" data-name="Trazado 5649" d="M567.322,806.123l20.471-.067,20.471-.038,40.942-.031,40.943.034,20.471.042,20.471.072a.024.024,0,0,1,0,.049l-20.471.072-20.471.042-40.943.034-40.942-.031-20.471-.038-20.471-.067a.036.036,0,0,1,0-.073Z" transform="translate(-567.286 -725.157)" fill="#fff" style="mix-blend-mode: soft-light;isolation: isolate"/>
          <path id="Trazado_5650" data-name="Trazado 5650" d="M617.93,1050.04l18.835-.067,18.835-.038,37.67-.031,37.67.034,18.835.042,18.835.072a.024.024,0,0,1,0,.049l-18.835.072-18.835.042-37.67.034-37.67-.031-18.835-.038-18.835-.067a.036.036,0,0,1,0-.073Z" transform="translate(-611.349 -937.527)" fill="#fff" style="mix-blend-mode: soft-light;isolation: isolate"/>
          <path id="Trazado_5651" data-name="Trazado 5651" d="M914.081,1294.423H807.1a.127.127,0,1,1,0-.255H914.081a.127.127,0,1,1,0,.255Z" transform="translate(-775.976 -1150.199)" fill="#fff" style="mix-blend-mode: soft-light;isolation: isolate"/>
        </g>
      </g>
      <g id="Grupo_23788" data-name="Grupo 23788" transform="translate(236.687 113.506)">
        <path id="Trazado_5685" data-name="Trazado 5685" d="M883.835,592.249c.957-.141,1.981-.126,2.588-.837a5.193,5.193,0,0,0,.587-1.1,3.9,3.9,0,0,1,5.529-1.349,5.451,5.451,0,0,0,.77.539,2.526,2.526,0,0,0,1.038.209,6.6,6.6,0,0,0,3.423-.757c.942-.651.885-1.956,1.29-2.961a4.531,4.531,0,0,1,6.972-1.513c1.64,1.559,2.4,3.2,4.734,3.85,2.3.644,5.119.643,7.156-.73.665-.449,1.237-1.034,1.94-1.42a6.66,6.66,0,0,1,4.833-.224,26.36,26.36,0,0,0,4.811,1.155c1.547.1,3.106-.284,4.641-.072a6.128,6.128,0,0,1,3.87,2.174,1.2,1.2,0,0,1,.3.566c.076.535-.477.925-.955,1.179l-2.519,1.333a6.516,6.516,0,0,0-1.761,1.2,2.208,2.208,0,0,0-.64,1.95c.176.747.838,1.26,1.3,1.872a4,4,0,0,1,.765,2.948c-.124.869-.518,1.823-.048,2.564a.833.833,0,0,1,.169.341.6.6,0,0,1-.215.437,9.093,9.093,0,0,1-5.644,2.488c-2.084.249-4.195.1-6.291.209a21.339,21.339,0,0,1-4.117.068c-1.382-.2-2.73-.778-4.121-.651a18.985,18.985,0,0,0-4.489,1.008,4.94,4.94,0,0,0-2.616,2.692,12.517,12.517,0,0,0-.433,2.522,3.315,3.315,0,0,1-1.106,2.241,1.513,1.513,0,0,1-2.211-.365c-.155-.335-.139-.73-.3-1.065a2.234,2.234,0,0,0-1.719-.961,7.784,7.784,0,0,1-3.149-1.075,2.454,2.454,0,0,1-.969-2.925c.294-.577.907-1,1.008-1.639a1.869,1.869,0,0,0-.462-1.354,5.344,5.344,0,0,0-4.3-2.076c-.568.011-3.61,1.239-3.887.19-.4-1.518,2.441-2.7,1.709-4.091a1.69,1.69,0,0,0-.62-.6c-1.37-.875-3.348-.692-4.9-.835-.64-.059-1.951-.027-2.45-.488-.65-.6-.859-2.345-.963-3.173a1.335,1.335,0,0,1,.121-.921,1.158,1.158,0,0,1,.646-.408A4.759,4.759,0,0,1,883.835,592.249Z" transform="translate(-871.292 -552.692)" fill="#fff" opacity="0.35"/>
        <circle id="Elipse_1246" data-name="Elipse 1246" cx="4.718" cy="4.718" r="4.718" transform="translate(26.548 52.611) rotate(-77.306)" fill="url(#linear-gradient)"/>
        <circle id="Elipse_1247" data-name="Elipse 1247" cx="3.628" cy="3.628" r="3.628" transform="matrix(0.238, -0.971, 0.971, 0.238, 62.644, 23.031)" fill="#fff"/>
        <circle id="Elipse_1248" data-name="Elipse 1248" cx="3.628" cy="3.628" r="3.628" transform="translate(89.072 44.004) rotate(-80.783)" fill="#fff"/>
        <circle id="Elipse_1249" data-name="Elipse 1249" cx="3.628" cy="3.628" r="3.628" transform="translate(21.302 77.393)" fill="#fff"/>
        <circle id="Elipse_1250" data-name="Elipse 1250" cx="3.628" cy="3.628" r="3.628" transform="translate(0 37.368) rotate(-80.863)" fill="#fff"/>
        <circle id="Elipse_1251" data-name="Elipse 1251" cx="3.628" cy="3.628" r="3.628" transform="translate(8.055 5.131) rotate(-45)" fill="#fff"/>
        <g id="Grupo_23779" data-name="Grupo 23779" transform="translate(37.852 40.089)">
          <g id="Grupo_23778" data-name="Grupo 23778" transform="translate(2.388)">
            <path id="Trazado_5686" data-name="Trazado 5686" d="M1478.292,660.784l-.756-.09h0a.253.253,0,0,1,.059-.5l.761.087a.255.255,0,1,1-.058.506h0Z" transform="translate(-1429.536 -659.616)" fill="#fff"/>
            <path id="Trazado_5687" data-name="Trazado 5687" d="M1466.577,659.565l-.757-.078h0a.25.25,0,0,1,.05-.5l.762.075a.251.251,0,1,1-.049.5h0Z" transform="translate(-1419.334 -658.571)" fill="#fff"/>
            <path id="Trazado_5688" data-name="Trazado 5688" d="M1454.841,658.54l-.759-.065h0a.246.246,0,0,1,.041-.491l.763.062a.248.248,0,1,1-.04.494h0Z" transform="translate(-1409.114 -657.696)" fill="#fff"/>
            <path id="Trazado_5689" data-name="Trazado 5689" d="M1443.089,657.707l-.76-.053h0a.243.243,0,0,1,.033-.485l.764.05a.245.245,0,0,1-.032.489h0Z" transform="translate(-1398.88 -656.987)" fill="#fff"/>
            <path id="Trazado_5690" data-name="Trazado 5690" d="M1431.325,657.061l-.761-.041h0a.24.24,0,0,1,.025-.479l.764.038a.241.241,0,1,1-.024.482h0Z" transform="translate(-1388.636 -656.44)" fill="#fff"/>
            <path id="Trazado_5691" data-name="Trazado 5691" d="M1419.551,656.6l-.761-.029h0a.237.237,0,0,1,.017-.473l.765.026a.238.238,0,1,1-.016.476h0Z" transform="translate(-1378.384 -656.055)" fill="#fff"/>
            <path id="Trazado_5692" data-name="Trazado 5692" d="M1407.773,656.323l-.761-.017h0a.233.233,0,0,1,.01-.466l.765.014a.235.235,0,0,1-.008.47h0Z" transform="translate(-1368.129 -655.83)" fill="#fff"/>
            <path id="Trazado_5693" data-name="Trazado 5693" d="M1396,656.227l-.762-.005h0a.23.23,0,0,1,0-.46l.765,0a.232.232,0,0,1,0,.463h0Z" transform="translate(-1357.875 -655.762)" fill="#fff"/>
            <path id="Trazado_5694" data-name="Trazado 5694" d="M1384.216,656.247l-.762.006h0a.227.227,0,0,1,0-.453l.765-.01a.228.228,0,0,1,.006.457h0Z" transform="translate(-1347.618 -655.786)" fill="#fff"/>
            <path id="Trazado_5695" data-name="Trazado 5695" d="M1372.438,656.432l-.762.018h0a.223.223,0,0,1-.011-.447l.765-.021a.225.225,0,0,1,.012.45h0Z" transform="translate(-1337.363 -655.954)" fill="#fff"/>
            <path id="Trazado_5696" data-name="Trazado 5696" d="M1360.663,656.8l-.761.029h0a.22.22,0,0,1-.018-.44l.765-.033a.222.222,0,0,1,.019.443h0Z" transform="translate(-1327.112 -656.277)" fill="#fff"/>
            <path id="Trazado_5697" data-name="Trazado 5697" d="M1348.9,657.34l-.761.041h0a.217.217,0,0,1-.024-.433l.764-.044a.218.218,0,1,1,.025.436h0Z" transform="translate(-1316.866 -656.756)" fill="#fff"/>
            <path id="Trazado_5698" data-name="Trazado 5698" d="M1337.137,658.061l-.76.052h0a.214.214,0,0,1-.03-.426l.763-.056a.215.215,0,1,1,.031.429h0Z" transform="translate(-1306.63 -657.39)" fill="#fff"/>
            <path id="Trazado_5699" data-name="Trazado 5699" d="M1325.391,658.962l-.759.064h0a.21.21,0,0,1-.036-.419l.762-.068a.212.212,0,1,1,.037.422h0Z" transform="translate(-1296.404 -658.179)" fill="#fff"/>
            <path id="Trazado_5700" data-name="Trazado 5700" d="M1313.661,660.041l-.759.075h0a.207.207,0,0,1-.042-.412l.761-.079a.209.209,0,0,1,.043.415h0Z" transform="translate(-1286.192 -659.125)" fill="#fff"/>
            <path id="Trazado_5701" data-name="Trazado 5701" d="M1301.949,661.3l-.757.087h0a.2.2,0,0,1-.047-.4l.76-.091a.205.205,0,1,1,.049.408h0Z" transform="translate(-1275.997 -660.227)" fill="#fff"/>
            <path id="Trazado_5702" data-name="Trazado 5702" d="M1290.259,662.738l-.756.1h0a.2.2,0,0,1-.053-.4l.758-.1a.2.2,0,1,1,.054.4h0Z" transform="translate(-1265.82 -661.485)" fill="#fff"/>
            <path id="Trazado_5703" data-name="Trazado 5703" d="M1278.593,664.357l-.754.111h0a.2.2,0,0,1-.058-.39l.757-.114a.2.2,0,0,1,.059.393h0Z" transform="translate(-1255.665 -662.901)" fill="#fff"/>
            <path id="Trazado_5704" data-name="Trazado 5704" d="M1266.954,666.158l-.752.122h0a.194.194,0,0,1-.063-.382l.755-.126a.2.2,0,1,1,.064.385h0Z" transform="translate(-1245.533 -664.475)" fill="#fff"/>
            <path id="Trazado_5705" data-name="Trazado 5705" d="M1255.345,668.141l-.75.134h0a.19.19,0,0,1-.068-.375l.753-.138a.192.192,0,0,1,.069.378h0Z" transform="translate(-1235.429 -666.208)" fill="#fff"/>
            <path id="Trazado_5706" data-name="Trazado 5706" d="M1243.779,670.306l-.748.146h0a.187.187,0,0,1-.072-.367l.75-.15a.189.189,0,0,1,.074.371Z" transform="translate(-1225.362 -668.099)" fill="#fff"/>
            <path id="Trazado_5707" data-name="Trazado 5707" d="M1232.248,672.656l-.745.158h0a.184.184,0,0,1-.077-.36l.748-.162a.186.186,0,1,1,.078.363Z" transform="translate(-1215.325 -670.151)" fill="#fff"/>
            <path id="Trazado_5708" data-name="Trazado 5708" d="M1220.757,675.191l-.743.17h0a.181.181,0,0,1-.081-.352l.745-.174a.182.182,0,1,1,.083.355Z" transform="translate(-1205.323 -672.365)" fill="#fff"/>
            <path id="Trazado_5709" data-name="Trazado 5709" d="M1209.307,677.913l-.74.182h0a.177.177,0,0,1-.085-.344l.742-.186a.179.179,0,1,1,.087.347Z" transform="translate(-1195.357 -674.741)" fill="#fff"/>
            <path id="Trazado_5710" data-name="Trazado 5710" d="M1197.9,680.823l-.737.194h0a.174.174,0,0,1-.09-.336l.739-.2a.176.176,0,0,1,.091.339Z" transform="translate(-1185.433 -677.281)" fill="#fff"/>
            <path id="Trazado_5711" data-name="Trazado 5711" d="M1186.551,683.924l-.734.207h0a.171.171,0,0,1-.093-.329l.735-.211a.172.172,0,1,1,.095.331Z" transform="translate(-1175.553 -679.987)" fill="#fff"/>
            <path id="Trazado_5712" data-name="Trazado 5712" d="M1175.253,687.215l-.73.219h0a.167.167,0,0,1-.1-.321l.732-.223a.169.169,0,0,1,.1.324Z" transform="translate(-1165.72 -682.858)" fill="#fff"/>
            <path id="Trazado_5713" data-name="Trazado 5713" d="M1164.012,690.7l-.726.232h0a.164.164,0,0,1-.1-.313l.728-.235a.166.166,0,1,1,.1.316Z" transform="translate(-1155.938 -685.897)" fill="#fff"/>
            <path id="Trazado_5714" data-name="Trazado 5714" d="M1152.834,694.374l-.722.244h0a.161.161,0,0,1-.1-.3l.724-.248a.163.163,0,0,1,.105.308Z" transform="translate(-1146.21 -689.104)" fill="#fff"/>
            <path id="Trazado_5715" data-name="Trazado 5715" d="M1141.722,698.245l-.718.257h0a.158.158,0,0,1-.107-.3l.719-.261a.159.159,0,1,1,.109.3Z" transform="translate(-1136.541 -692.48)" fill="#fff"/>
            <path id="Trazado_5716" data-name="Trazado 5716" d="M1130.682,702.311l-.713.269h0a.154.154,0,0,1-.11-.289l.715-.273a.156.156,0,1,1,.112.291Z" transform="translate(-1126.934 -696.027)" fill="#fff"/>
            <path id="Trazado_5717" data-name="Trazado 5717" d="M1119.716,706.573l-.708.282h0a.151.151,0,0,1-.112-.28l.709-.286a.153.153,0,0,1,.114.283Z" transform="translate(-1117.393 -699.745)" fill="#fff"/>
            <path id="Trazado_5718" data-name="Trazado 5718" d="M1108.831,711.033l-.7.295h0a.148.148,0,0,1-.115-.272l.7-.3a.149.149,0,1,1,.117.275Z" transform="translate(-1107.922 -703.634)" fill="#fff"/>
          </g>
          <path id="Trazado_5719" data-name="Trazado 5719" d="M1092.673,707.471a.2.2,0,0,1-.044-.005l-3.02-.711a.191.191,0,0,1-.054-.35l2.536-1.508a.191.191,0,0,1,.2.328l-2.129,1.266,2.56.6a.191.191,0,0,1-.044.377Z" transform="translate(-1089.462 -698.519)" fill="#fff"/>
        </g>
        <g id="Grupo_23781" data-name="Grupo 23781" transform="translate(35.515 22.597)">
          <g id="Grupo_23780" data-name="Grupo 23780" transform="translate(0.703)">
            <path id="Trazado_5720" data-name="Trazado 5720" d="M1076.834,674.135l.289-.712a.134.134,0,1,1,.249.1h0l0,0-.291.7v0a.132.132,0,0,1-.244-.1Z" transform="translate(-1076.825 -653.574)" fill="#fff"/>
            <path id="Trazado_5721" data-name="Trazado 5721" d="M1081.436,663.35l.33-.693a.14.14,0,0,1,.252.12h0l0,0-.331.684,0,0a.137.137,0,0,1-.247-.119Z" transform="translate(-1080.828 -644.203)" fill="#fff"/>
            <path id="Trazado_5722" data-name="Trazado 5722" d="M1086.662,652.865l.369-.674a.145.145,0,0,1,.255.139h0l0,0-.37.664,0,0a.142.142,0,0,1-.249-.138Z" transform="translate(-1085.375 -635.095)" fill="#fff"/>
            <path id="Trazado_5723" data-name="Trazado 5723" d="M1092.477,642.7l.405-.652a.151.151,0,0,1,.256.159h0l0,0-.406.643,0,0a.148.148,0,0,1-.25-.157Z" transform="translate(-1090.434 -626.27)" fill="#fff"/>
            <path id="Trazado_5724" data-name="Trazado 5724" d="M1098.842,632.882l.439-.63a.156.156,0,1,1,.256.178h0l0,0-.439.62,0,0a.153.153,0,0,1-.251-.176Z" transform="translate(-1095.97 -617.742)" fill="#fff"/>
            <path id="Trazado_5725" data-name="Trazado 5725" d="M1105.717,623.413l.471-.607a.161.161,0,0,1,.255.2h0l0,0-.47.6,0,0a.159.159,0,0,1-.25-.2Z" transform="translate(-1101.951 -609.522)" fill="#fff"/>
            <path id="Trazado_5726" data-name="Trazado 5726" d="M1113.063,614.306l.5-.583a.167.167,0,1,1,.253.217h0l0,0-.5.574,0,0a.164.164,0,0,1-.248-.214Z" transform="translate(-1108.342 -601.617)" fill="#fff"/>
            <path id="Trazado_5727" data-name="Trazado 5727" d="M1120.845,605.566l.526-.559a.172.172,0,1,1,.251.236h0l0,0-.524.55,0,0a.169.169,0,0,1-.246-.233Z" transform="translate(-1115.112 -594.032)" fill="#fff"/>
            <path id="Trazado_5728" data-name="Trazado 5728" d="M1129.026,597.2l.55-.535a.177.177,0,0,1,.248.254h0l0,0-.548.526,0,0a.175.175,0,0,1-.243-.251Z" transform="translate(-1122.228 -586.769)" fill="#fff"/>
            <path id="Trazado_5729" data-name="Trazado 5729" d="M1137.574,589.2l.573-.511a.183.183,0,1,1,.244.273h0l0,0-.571.5,0,0a.18.18,0,0,1-.239-.27Z" transform="translate(-1129.665 -579.829)" fill="#fff"/>
            <path id="Trazado_5730" data-name="Trazado 5730" d="M1146.46,581.571l.593-.487a.188.188,0,0,1,.239.291h0l0,0-.591.478,0,0a.185.185,0,0,1-.234-.287Z" transform="translate(-1137.394 -573.213)" fill="#fff"/>
            <path id="Trazado_5731" data-name="Trazado 5731" d="M1155.655,574.316l.612-.463a.194.194,0,0,1,.234.309h0l0,0-.609.454,0,0a.191.191,0,0,1-.229-.305Z" transform="translate(-1145.394 -566.92)" fill="#fff"/>
            <path id="Trazado_5732" data-name="Trazado 5732" d="M1165.137,567.432l.63-.439a.2.2,0,0,1,.227.327h0l0,0-.627.43,0,0a.2.2,0,0,1-.224-.323Z" transform="translate(-1153.642 -560.951)" fill="#fff"/>
            <path id="Trazado_5733" data-name="Trazado 5733" d="M1174.883,560.922l.646-.415a.2.2,0,1,1,.221.344h0l0,0-.643.406,0,0a.2.2,0,0,1-.217-.34Z" transform="translate(-1162.12 -555.307)" fill="#fff"/>
            <path id="Trazado_5734" data-name="Trazado 5734" d="M1184.873,554.789l.661-.39a.21.21,0,0,1,.213.361h0l0,0-.657.382,0,0a.207.207,0,0,1-.209-.357Z" transform="translate(-1170.81 -549.991)" fill="#fff"/>
            <path id="Trazado_5735" data-name="Trazado 5735" d="M1195.091,549.036l.675-.366a.215.215,0,0,1,.2.378h0l0,0-.671.357,0,0a.212.212,0,0,1-.2-.374Z" transform="translate(-1179.698 -545.006)" fill="#fff"/>
            <path id="Trazado_5736" data-name="Trazado 5736" d="M1205.521,543.671l.689-.34a.22.22,0,1,1,.2.4h0l0,0-.684.332,0,0a.218.218,0,0,1-.192-.391Z" transform="translate(-1188.77 -540.36)" fill="#fff"/>
            <path id="Trazado_5737" data-name="Trazado 5737" d="M1216.149,538.706l.7-.314a.226.226,0,0,1,.185.412h0l0,0-.7.306,0,0a.223.223,0,0,1-.181-.408Z" transform="translate(-1198.014 -536.062)" fill="#fff"/>
            <path id="Trazado_5738" data-name="Trazado 5738" d="M1226.964,534.155l.713-.287a.231.231,0,0,1,.173.429h0l0,0-.707.279,0,0a.229.229,0,0,1-.169-.425Z" transform="translate(-1207.421 -532.126)" fill="#fff"/>
            <path id="Trazado_5739" data-name="Trazado 5739" d="M1237.954,530.041l.724-.258a.237.237,0,1,1,.159.446h0l0,0-.717.25,0,0a.234.234,0,0,1-.156-.441Z" transform="translate(-1216.979 -528.572)" fill="#fff"/>
            <path id="Trazado_5740" data-name="Trazado 5740" d="M1249.108,526.393l.735-.227a.242.242,0,1,1,.143.463h0l-.005,0-.726.219h0a.239.239,0,0,1-.14-.458Z" transform="translate(-1226.679 -525.426)" fill="#fff"/>
            <path id="Trazado_5741" data-name="Trazado 5741" d="M1260.417,523.253l.745-.193a.248.248,0,0,1,.125.479h0l-.006,0-.735.185h-.006a.245.245,0,0,1-.121-.474Z" transform="translate(-1236.512 -522.723)" fill="#fff"/>
            <path id="Trazado_5742" data-name="Trazado 5742" d="M1271.869,520.676l.755-.156a.253.253,0,1,1,.1.5h-.008l-.743.148h-.006a.25.25,0,0,1-.1-.49Z" transform="translate(-1246.469 -520.515)" fill="#fff"/>
          </g>
          <path id="Trazado_5743" data-name="Trazado 5743" d="M1071.589,671.893a.191.191,0,0,1-.191-.191l-.007-2.95a.191.191,0,0,1,.191-.191h0a.191.191,0,0,1,.191.191l.006,2.477,1.823-1.9a.191.191,0,0,1,.275.265l-2.15,2.237A.191.191,0,0,1,1071.589,671.893Z" transform="translate(-1071.391 -649.414)" fill="#fff"/>
        </g>
        <g id="Grupo_23783" data-name="Grupo 23783" transform="translate(14.89 8.653)">
          <g id="Grupo_23782" data-name="Grupo 23782">
            <path id="Trazado_5744" data-name="Trazado 5744" d="M1020.517,662.843l-.235-.727a.166.166,0,0,1,.316-.1h0l.231.729a.164.164,0,0,1-.313.1Z" transform="translate(-1006.261 -629.668)" fill="#fff"/>
            <path id="Trazado_5745" data-name="Trazado 5745" d="M1016.865,651.572l-.237-.726a.17.17,0,1,1,.323-.106h0l.233.728a.168.168,0,0,1-.32.1Z" transform="translate(-1003.079 -619.85)" fill="#fff"/>
            <path id="Trazado_5746" data-name="Trazado 5746" d="M1013.178,640.312l-.239-.725a.174.174,0,0,1,.33-.109h0l.236.727a.172.172,0,0,1-.327.107Z" transform="translate(-999.867 -610.043)" fill="#fff"/>
            <path id="Trazado_5747" data-name="Trazado 5747" d="M1009.448,629.068l-.242-.724a.178.178,0,0,1,.337-.113h0l.239.726a.176.176,0,0,1-.334.11Z" transform="translate(-996.616 -600.249)" fill="#fff"/>
            <path id="Trazado_5748" data-name="Trazado 5748" d="M1005.666,617.842l-.245-.723a.182.182,0,0,1,.344-.118h0l.242.725a.18.18,0,0,1-.341.114Z" transform="translate(-993.32 -590.47)" fill="#fff"/>
            <path id="Trazado_5749" data-name="Trazado 5749" d="M1001.826,606.635l-.249-.722a.185.185,0,1,1,.35-.122h0l.246.724a.184.184,0,0,1-.347.119Z" transform="translate(-989.973 -580.709)" fill="#fff"/>
            <path id="Trazado_5750" data-name="Trazado 5750" d="M997.918,595.453l-.254-.72a.189.189,0,0,1,.357-.127h0l.251.722a.187.187,0,0,1-.354.123Z" transform="translate(-986.565 -570.969)" fill="#fff"/>
            <path id="Trazado_5751" data-name="Trazado 5751" d="M993.934,584.3l-.259-.719a.193.193,0,1,1,.363-.132h0l.256.721a.191.191,0,0,1-.36.129Z" transform="translate(-983.091 -561.253)" fill="#fff"/>
            <path id="Trazado_5752" data-name="Trazado 5752" d="M989.863,573.176l-.265-.716a.2.2,0,1,1,.369-.138h0l.262.719a.2.2,0,0,1-.366.135Z" transform="translate(-979.541 -551.566)" fill="#fff"/>
            <path id="Trazado_5753" data-name="Trazado 5753" d="M985.693,562.088l-.271-.713h0a.2.2,0,0,1,.375-.143h0l.268.716a.2.2,0,0,1-.372.14Z" transform="translate(-975.905 -541.908)" fill="#fff"/>
            <path id="Trazado_5754" data-name="Trazado 5754" d="M981.42,551.042l-.278-.71h0a.2.2,0,1,1,.381-.149h0l.275.714a.2.2,0,0,1-.378.147Z" transform="translate(-972.177 -532.286)" fill="#fff"/>
            <path id="Trazado_5755" data-name="Trazado 5755" d="M977.032,540.041l-.286-.707h0a.208.208,0,0,1,.387-.156h0l.283.711a.207.207,0,0,1-.383.154Z" transform="translate(-968.349 -522.705)" fill="#fff"/>
            <path id="Trazado_5756" data-name="Trazado 5756" d="M972.519,529.09l-.294-.7h0a.212.212,0,0,1,.392-.164h0l.291.707a.21.21,0,0,1-.389.161Z" transform="translate(-964.412 -513.167)" fill="#fff"/>
            <path id="Trazado_5757" data-name="Trazado 5757" d="M967.872,518.2l-.3-.7h0a.216.216,0,1,1,.4-.172h0l.3.7a.214.214,0,0,1-.394.169Z" transform="translate(-960.357 -503.679)" fill="#fff"/>
            <path id="Trazado_5758" data-name="Trazado 5758" d="M963.083,507.365l-.312-.7h0a.22.22,0,0,1,.4-.18h0l.31.7a.218.218,0,0,1-.4.177Z" transform="translate(-956.177 -494.245)" fill="#fff"/>
            <path id="Trazado_5759" data-name="Trazado 5759" d="M958.14,496.6l-.322-.691h0a.224.224,0,1,1,.406-.189h0l.32.7a.222.222,0,0,1-.4.186Z" transform="translate(-951.863 -484.867)" fill="#fff"/>
            <path id="Trazado_5760" data-name="Trazado 5760" d="M953.038,485.911l-.332-.686v0a.228.228,0,0,1,.409-.2h0l.331.691a.226.226,0,0,1-.407.2Z" transform="translate(-947.411 -475.559)" fill="#fff"/>
            <path id="Trazado_5761" data-name="Trazado 5761" d="M947.771,475.3l-.343-.68v0a.231.231,0,1,1,.413-.208h0l.341.685a.229.229,0,0,1-.41.206Z" transform="translate(-942.813 -466.321)" fill="#fff"/>
            <path id="Trazado_5762" data-name="Trazado 5762" d="M942.33,464.786l-.354-.674v0a.235.235,0,1,1,.416-.219h0l.353.68a.233.233,0,0,1-.413.216Z" transform="translate(-938.064 -457.16)" fill="#fff"/>
            <path id="Trazado_5763" data-name="Trazado 5763" d="M936.71,454.361l-.366-.668v0a.239.239,0,1,1,.419-.23h0l.365.674a.237.237,0,0,1-.416.227Z" transform="translate(-933.159 -448.081)" fill="#fff"/>
            <path id="Trazado_5764" data-name="Trazado 5764" d="M930.908,444.038l-.378-.661v0a.243.243,0,1,1,.422-.241h0l.377.667a.241.241,0,0,1-.419.238Z" transform="translate(-928.095 -439.091)" fill="#fff"/>
            <path id="Trazado_5765" data-name="Trazado 5765" d="M924.92,433.821l-.39-.654v0a.247.247,0,0,1,.424-.252h0l.389.66a.245.245,0,0,1-.421.25Z" transform="translate(-922.869 -430.193)" fill="#fff"/>
            <path id="Trazado_5766" data-name="Trazado 5766" d="M918.744,423.716l-.4-.647v0a.251.251,0,0,1,.426-.264h0l.4.653a.249.249,0,0,1-.423.261Z" transform="translate(-917.479 -421.393)" fill="#fff"/>
            <path id="Trazado_5767" data-name="Trazado 5767" d="M912.381,413.731l-.414-.639v0a.254.254,0,0,1,.427-.277h0l.413.645a.252.252,0,0,1-.424.273Z" transform="translate(-911.925 -412.697)" fill="#fff"/>
          </g>
          <path id="Trazado_5768" data-name="Trazado 5768" d="M1014.936,662.424a.191.191,0,0,1-.128-.049l-2.125-1.913a.191.191,0,1,1,.255-.284l1.79,1.611-.1-2.649a.191.191,0,1,1,.382-.015l.118,3.1a.191.191,0,0,1-.191.2Z" transform="translate(-999.597 -627.094)" fill="#fff"/>
        </g>
        <g id="Grupo_23785" data-name="Grupo 23785" transform="translate(7.908 35.88)">
          <g id="Grupo_23784" data-name="Grupo 23784">
            <path id="Trazado_5769" data-name="Trazado 5769" d="M993.272,687.027l-.6-.469h0a.134.134,0,1,1,.165-.211h0l.6.479a.129.129,0,0,1-.16.2Z" transform="translate(-975.2 -678.156)" fill="#fff"/>
            <path id="Trazado_5770" data-name="Trazado 5770" d="M983.774,679.866l-.616-.448h0a.144.144,0,0,1,.169-.232h0l.614.458a.139.139,0,0,1-.164.223Z" transform="translate(-966.91 -671.922)" fill="#fff"/>
            <path id="Trazado_5771" data-name="Trazado 5771" d="M974.029,673.045l-.631-.425,0,0a.153.153,0,0,1,.171-.254h0l.63.436a.148.148,0,0,1-.167.245Z" transform="translate(-958.404 -665.985)" fill="#fff"/>
            <path id="Trazado_5772" data-name="Trazado 5772" d="M964.043,666.582l-.646-.4,0,0a.163.163,0,1,1,.172-.276h0l.646.413a.158.158,0,0,1-.168.267Z" transform="translate(-949.689 -660.36)" fill="#fff"/>
            <path id="Trazado_5773" data-name="Trazado 5773" d="M953.828,660.491l-.661-.377,0,0a.172.172,0,1,1,.171-.3h0l.661.388a.167.167,0,0,1-.168.29Z" transform="translate(-940.773 -655.06)" fill="#fff"/>
            <path id="Trazado_5774" data-name="Trazado 5774" d="M943.4,654.785l-.674-.352,0,0a.182.182,0,1,1,.168-.322h0l.675.363a.177.177,0,0,1-.166.313Z" transform="translate(-931.672 -650.095)" fill="#fff"/>
            <path id="Trazado_5775" data-name="Trazado 5775" d="M932.771,649.467l-.686-.327,0,0a.191.191,0,1,1,.165-.346h0l.688.338a.187.187,0,0,1-.163.336Z" transform="translate(-922.397 -645.468)" fill="#fff"/>
            <path id="Trazado_5776" data-name="Trazado 5776" d="M921.956,644.537l-.7-.3h0a.2.2,0,0,1,.16-.369h0l.7.313a.2.2,0,0,1-.158.359Z" transform="translate(-912.961 -641.179)" fill="#fff"/>
            <path id="Trazado_5777" data-name="Trazado 5777" d="M910.973,639.993l-.708-.277h0a.211.211,0,0,1,.154-.392h0l.711.288a.206.206,0,0,1-.152.382Z" transform="translate(-903.378 -637.227)" fill="#fff"/>
            <path id="Trazado_5778" data-name="Trazado 5778" d="M899.84,635.832l-.717-.252h0a.22.22,0,0,1,.146-.416h0l.721.264a.215.215,0,0,1-.145.405Z" transform="translate(-893.665 -633.606)" fill="#fff"/>
            <path id="Trazado_5779" data-name="Trazado 5779" d="M888.574,632.043l-.725-.228h0a.23.23,0,1,1,.138-.438h0l.729.24a.225.225,0,0,1-.138.428Z" transform="translate(-883.837 -630.31)" fill="#fff"/>
            <path id="Trazado_5780" data-name="Trazado 5780" d="M877.2,628.62l-.732-.205h0a.239.239,0,1,1,.129-.461h0l.736.216a.235.235,0,0,1-.129.451Z" transform="translate(-873.917 -627.332)" fill="#fff"/>
            <path id="Trazado_5781" data-name="Trazado 5781" d="M865.724,625.547l-.738-.183h0a.249.249,0,1,1,.12-.483h0l.743.194a.244.244,0,0,1-.12.473Z" transform="translate(-863.907 -624.658)" fill="#fff"/>
            <path id="Trazado_5782" data-name="Trazado 5782" d="M858.278,623.748l-.139-.031a.255.255,0,1,1,.11-.5h0l.14.033a.254.254,0,0,1-.113.495Z" transform="translate(-857.939 -623.213)" fill="#fff"/>
          </g>
          <path id="Trazado_5783" data-name="Trazado 5783" d="M990.168,681.343h-.019l-3.088-.305a.191.191,0,1,1,.037-.38l2.617.259-1.6-1.888a.191.191,0,0,1,.291-.247l1.911,2.248a.191.191,0,0,1-.145.315Z" transform="translate(-970.211 -671.535)" fill="#fff"/>
        </g>
        <g id="Grupo_23787" data-name="Grupo 23787" transform="translate(24.124 53.88)">
          <g id="Grupo_23786" data-name="Grupo 23786" transform="translate(0 1.586)">
            <path id="Trazado_5784" data-name="Trazado 5784" d="M1023.162,774.868l-.179.336h0a.146.146,0,1,1-.257-.137h0l.184-.336a.144.144,0,0,1,.253.137Z" transform="translate(-1017.613 -774.655)" fill="#fff"/>
            <path id="Trazado_5785" data-name="Trazado 5785" d="M1017.753,782.829l-.346.706v0a.154.154,0,1,1-.276-.135h0l.355-.708a.15.15,0,0,1,.268.133Z" transform="translate(-1012.744 -781.582)" fill="#fff"/>
            <path id="Trazado_5786" data-name="Trazado 5786" d="M1012.589,793.753l-.317.719v0a.162.162,0,1,1-.3-.131v0l.327-.721a.158.158,0,0,1,.288.129Z" transform="translate(-1008.257 -791.088)" fill="#fff"/>
            <path id="Trazado_5787" data-name="Trazado 5787" d="M1007.863,804.878l-.289.73v0a.17.17,0,0,1-.316-.125v0l.3-.734a.166.166,0,0,1,.308.123Z" transform="translate(-1004.151 -800.769)" fill="#fff"/>
            <path id="Trazado_5788" data-name="Trazado 5788" d="M1003.575,816.183l-.261.741v0a.178.178,0,1,1-.335-.118v0l.271-.745a.174.174,0,0,1,.327.117Z" transform="translate(-1000.427 -810.608)" fill="#fff"/>
            <path id="Trazado_5789" data-name="Trazado 5789" d="M999.721,827.649l-.233.75v0a.185.185,0,0,1-.354-.11v0l.242-.754a.181.181,0,0,1,.346.109Z" transform="translate(-997.08 -820.587)" fill="#fff"/>
            <path id="Trazado_5790" data-name="Trazado 5790" d="M996.3,839.255l-.205.758v0a.193.193,0,0,1-.373-.1v0l.215-.763a.189.189,0,0,1,.365.1Z" transform="translate(-994.109 -830.689)" fill="#fff"/>
            <path id="Trazado_5791" data-name="Trazado 5791" d="M993.3,850.984l-.178.766v0a.2.2,0,1,1-.392-.091v0l.187-.771a.2.2,0,0,1,.384.091Z" transform="translate(-991.509 -840.898)" fill="#fff"/>
            <path id="Trazado_5792" data-name="Trazado 5792" d="M990.727,862.826l-.151.771v0a.209.209,0,0,1-.411-.08v0l.16-.777a.205.205,0,0,1,.4.081Z" transform="translate(-989.276 -851.207)" fill="#fff"/>
            <path id="Trazado_5793" data-name="Trazado 5793" d="M988.569,874.755l-.124.776v0a.217.217,0,0,1-.429-.068v0l.133-.782a.213.213,0,0,1,.421.069Z" transform="translate(-987.406 -861.591)" fill="#fff"/>
            <path id="Trazado_5794" data-name="Trazado 5794" d="M986.822,886.754l-.1.78v0a.225.225,0,1,1-.447-.056v0l.106-.786a.221.221,0,0,1,.438.057Z" transform="translate(-985.893 -872.036)" fill="#fff"/>
            <path id="Trazado_5795" data-name="Trazado 5795" d="M985.48,898.808l-.071.782v0a.233.233,0,0,1-.464-.042v0l.08-.789a.229.229,0,0,1,.456.044Z" transform="translate(-984.734 -882.53)" fill="#fff"/>
            <path id="Trazado_5796" data-name="Trazado 5796" d="M984.538,910.9l-.046.784v0a.241.241,0,0,1-.481-.028v0l.054-.791a.237.237,0,0,1,.473.03Z" transform="translate(-983.922 -893.061)" fill="#fff"/>
            <path id="Trazado_5797" data-name="Trazado 5797" d="M983.989,923.027l-.021.785v0a.249.249,0,1,1-.5-.013v0l.029-.792a.245.245,0,0,1,.489.015Z" transform="translate(-983.451 -903.615)" fill="#fff"/>
            <path id="Trazado_5798" data-name="Trazado 5798" d="M983.829,935.129v.382a.255.255,0,0,1-.509,0v0l0-.384a.253.253,0,0,1,.505,0Z" transform="translate(-983.32 -914.153)" fill="#fff"/>
          </g>
          <path id="Trazado_5799" data-name="Trazado 5799" d="M1014.056,765.851l-.024,0a.191.191,0,0,1-.166-.213l.328-2.61-1.929,1.554a.191.191,0,0,1-.24-.3l2.3-1.851a.191.191,0,0,1,.309.173l-.386,3.078A.191.191,0,0,1,1014.056,765.851Z" transform="translate(-1008.251 -762.39)" fill="#fff"/>
        </g>
      </g>
      <g id="Grupo_23804" data-name="Grupo 23804" transform="translate(302.08 158.088)">
        <path id="Trazado_5824" data-name="Trazado 5824" d="M1331.286,280h32.7V260.811a1.9,1.9,0,0,0-1.9-1.9h-28.005a2.8,2.8,0,0,0-2.8,2.8Z" transform="translate(-1263.608 -230.801)" fill="#022644"/>
        <path id="Trazado_5825" data-name="Trazado 5825" d="M1340.172,278.6h30.253V257.5h-27.457a2.8,2.8,0,0,0-2.8,2.8Z" transform="translate(-1270.043 -229.783)" fill="#5dc2ae"/>
        <rect id="Rectángulo_5760" data-name="Rectángulo 5760" width="1.345" height="12.419" transform="translate(32.394 12.419) rotate(180)" fill="url(#linear-gradient-2)"/>
        <path id="Rectángulo_5761" data-name="Rectángulo 5761" d="M0,0H3.667a0,0,0,0,1,0,0V0a.861.861,0,0,1-.861.861H.861A.861.861,0,0,1,0,0V0A0,0,0,0,1,0,0Z" transform="translate(33.678 0.861) rotate(180)" fill="#5dc2ae"/>
        <rect id="Rectángulo_5762" data-name="Rectángulo 5762" width="2.39" height="6.348" transform="translate(37.325 15.468) rotate(180)" fill="url(#linear-gradient-3)"/>
        <rect id="Rectángulo_5763" data-name="Rectángulo 5763" width="2.39" height="6.348" transform="translate(19.79 15.468) rotate(180)" fill="url(#linear-gradient-4)"/>
        <rect id="Rectángulo_5764" data-name="Rectángulo 5764" width="31.082" height="17.713" transform="translate(13.368 29.335)" fill="#5dc2ae"/>
        <path id="Trazado_5826" data-name="Trazado 5826" d="M1143.688,217.32h23.631V200.091a.484.484,0,0,0-.483-.484h-23.148Z" transform="translate(-1127.752 -187.855)" fill="#5dc2ae"/>
        <rect id="Rectángulo_5765" data-name="Rectángulo 5765" width="32.801" height="2.583" rx="1.292" transform="translate(12.327 28.173)" fill="#022644"/>
        <rect id="Rectángulo_5766" data-name="Rectángulo 5766" width="2.69" height="5.255" transform="translate(21.286 19.649) rotate(180)" fill="#93f5e5"/>
        <rect id="Rectángulo_5767" data-name="Rectángulo 5767" width="2.69" height="5.255" transform="translate(25.923 19.649) rotate(180)" fill="#93f5e5"/>
        <rect id="Rectángulo_5768" data-name="Rectángulo 5768" width="2.69" height="5.255" transform="translate(31.418 19.649) rotate(180)" fill="#93f5e5"/>
        <rect id="Rectángulo_5769" data-name="Rectángulo 5769" width="2.69" height="5.255" transform="translate(36.055 19.649) rotate(180)" fill="#93f5e5"/>
        <rect id="Rectángulo_5770" data-name="Rectángulo 5770" width="2.69" height="5.255" transform="translate(22.869 38.929) rotate(180)" fill="#93f5e5"/>
        <rect id="Rectángulo_5771" data-name="Rectángulo 5771" width="2.69" height="5.255" transform="translate(27.507 38.929) rotate(180)" fill="#93f5e5"/>
        <rect id="Rectángulo_5772" data-name="Rectángulo 5772" width="2.69" height="5.255" transform="translate(33.001 38.929) rotate(180)" fill="#93f5e5"/>
        <rect id="Rectángulo_5773" data-name="Rectángulo 5773" width="2.69" height="5.255" transform="translate(37.639 38.929) rotate(180)" fill="#93f5e5"/>
        <path id="Trazado_5827" data-name="Trazado 5827" d="M1191.379,311.676c-5.921,2.847-11.38,5.911-13.052,10.135l-69.855.383-2.57-10.029a8.216,8.216,0,0,0-5.153-5.367c-8.555-3.4-15.227-5.955-14.824-11.229l45.554-.412a.725.725,0,0,1,.7.5l.662,2.015c.8,2.437,3.5,4.154,6.628,4.212l40.25.752,1.539-2.73a.7.7,0,0,1,.616-.358l15.989.064a.428.428,0,0,1,.365.647Z" transform="translate(-1085.908 -257.051)" fill="#00deba"/>
        <path id="Trazado_5828" data-name="Trazado 5828" d="M1191.425,316.919c-5.922,2.847-11.38,5.911-13.052,10.135l-69.855.383-2.57-10.029a8.217,8.217,0,0,0-5.153-5.367c-8.555-3.4-14.353-7.128-14.824-11.229l44.606-.623a.7.7,0,0,1,.651.418l1.167,2.651c1.148,2.542,3.991,3.81,7.116,3.868l40.25.752,1.479-2.624a.928.928,0,0,1,.8-.472l15.878-.166Z" transform="translate(-1085.953 -260.695)" fill="#022644"/>
        <g id="Grupo_23798" data-name="Grupo 23798" transform="translate(89.76 50.182)">
          <path id="Trazado_5829" data-name="Trazado 5829" d="M1413.671,343.591a2.323,2.323,0,1,1,2.323-2.323A2.326,2.326,0,0,1,1413.671,343.591Zm0-4.032a1.708,1.708,0,1,0,1.708,1.709A1.71,1.71,0,0,0,1413.671,339.559Z" transform="translate(-1411.348 -338.944)" fill="#93f5e5"/>
        </g>
        <g id="Grupo_23799" data-name="Grupo 23799" transform="translate(82.497 50.182)">
          <path id="Trazado_5830" data-name="Trazado 5830" d="M1387.336,343.591a2.323,2.323,0,1,1,2.323-2.323A2.326,2.326,0,0,1,1387.336,343.591Zm0-4.032a1.708,1.708,0,1,0,1.708,1.709A1.711,1.711,0,0,0,1387.336,339.559Z" transform="translate(-1385.013 -338.944)" fill="#93f5e5"/>
        </g>
        <g id="Grupo_23800" data-name="Grupo 23800" transform="translate(75.978 50.008)">
          <path id="Trazado_5831" data-name="Trazado 5831" d="M1363.7,342.96a2.323,2.323,0,1,1,2.323-2.323A2.326,2.326,0,0,1,1363.7,342.96Zm0-4.032a1.708,1.708,0,1,0,1.709,1.708A1.71,1.71,0,0,0,1363.7,338.928Z" transform="translate(-1361.379 -338.313)" fill="#93f5e5"/>
        </g>
        <g id="Grupo_23801" data-name="Grupo 23801" transform="translate(35.315 41.577)">
          <path id="Trazado_5832" data-name="Trazado 5832" d="M1216.274,312.392a2.323,2.323,0,1,1,2.323-2.323A2.326,2.326,0,0,1,1216.274,312.392Zm0-4.032a1.709,1.709,0,1,0,1.708,1.709A1.71,1.71,0,0,0,1216.274,308.36Z" transform="translate(-1213.95 -307.745)" fill="#93f5e5"/>
        </g>
        <g id="Grupo_23802" data-name="Grupo 23802" transform="translate(27.988 41.577)">
          <path id="Trazado_5833" data-name="Trazado 5833" d="M1189.705,312.392a2.323,2.323,0,1,1,2.324-2.323A2.326,2.326,0,0,1,1189.705,312.392Zm0-4.032a1.709,1.709,0,1,0,1.709,1.709A1.71,1.71,0,0,0,1189.705,308.36Z" transform="translate(-1187.382 -307.745)" fill="#93f5e5"/>
        </g>
        <g id="Grupo_23803" data-name="Grupo 23803" transform="translate(22.255 41.577)">
          <path id="Trazado_5834" data-name="Trazado 5834" d="M1168.92,312.392a2.323,2.323,0,1,1,2.324-2.323A2.326,2.326,0,0,1,1168.92,312.392Zm0-4.032a1.709,1.709,0,1,0,1.709,1.709A1.71,1.71,0,0,0,1168.92,308.36Z" transform="translate(-1166.597 -307.745)" fill="#93f5e5"/>
        </g>
        <path id="Trazado_5835" data-name="Trazado 5835" d="M1324.728,333.235h-.005l-39.246-.692a.307.307,0,0,1-.3-.312.318.318,0,0,1,.313-.3l39.246.692a.307.307,0,0,1-.006.615Z" transform="translate(-1230.215 -283.682)" fill="#93f5e5"/>
        <path id="Trazado_5836" data-name="Trazado 5836" d="M1106.429,303.974a.307.307,0,0,1-.006-.615l33.973-.7a.3.3,0,0,1,.314.3.308.308,0,0,1-.3.314l-33.973.7Z" transform="translate(-1100.547 -262.484)" fill="#93f5e5"/>
      </g>
      <g id="Grupo_23812" data-name="Grupo 23812" transform="translate(188.755 204.808)">
        <rect id="Rectángulo_5779" data-name="Rectángulo 5779" width="94.494" height="5.733" transform="translate(1.911 37.267)" fill="#358877"/>
        <path id="Trazado_5845" data-name="Trazado 5845" d="M521,1123.92c0-1.432-1.426-2.6-3.732-2.6H430.4c-2.306,0-4.212,1.172-4.212,2.6v32.568c0,1.432,1.906,2.627,4.212,2.627h86.868c2.306,0,3.732-1.2,3.732-2.627Z" transform="translate(-426.186 -1121.317)" fill="#358877"/>
        <path id="Trazado_5846" data-name="Trazado 5846" d="M537.458,1136.669c0-1.31-1.8-2.217-3.978-2.217H451.531c-2.175,0-4,.907-4,2.217v29.77c0,1.31,1.826,2.307,4,2.307H533.48c2.175,0,3.978-1,3.978-2.307Z" transform="translate(-444.77 -1132.753)" fill="#fecc2f"/>
        <path id="Trazado_5847" data-name="Trazado 5847" d="M1188.228,1228.36l-4.283-13.071c-.107-.332-.417-.389-.766-.389h-17.348v30.9h23.411Z" transform="translate(-1070.17 -1202.797)" fill="#7bafa6"/>
        <path id="Trazado_5848" data-name="Trazado 5848" d="M1221.253,1417.289a1.757,1.757,0,0,0-.924-.227l-17.989.345-.1,5.1,18.1.44c.657,0,1.4-.317,1.4-.761v-4.319C1221.736,1417.649,1221.483,1417.44,1221.253,1417.289Z" transform="translate(-1101.867 -1378.812)" fill="#5dc2ae"/>
        <g id="Grupo_23809" data-name="Grupo 23809" transform="translate(100.416 13.783)">
          <path id="Trazado_5849" data-name="Trazado 5849" d="M1216.888,1239.731l-2.589-10.247a.824.824,0,0,0-.78-.628h-10.125a.84.84,0,0,0-.8.859l.243,8.216a.807.807,0,0,0,.676.773l12.471,2.016a.8.8,0,0,0,.908-.99Z" transform="translate(-1202.589 -1228.731)" fill="#022644"/>
          <path id="Trazado_5850" data-name="Trazado 5850" d="M1303.726,1227.882l-.132.022a.8.8,0,0,0-.645,1l2.822,10.494a.8.8,0,0,0,.925.582l.891-.167Z" transform="translate(-1289.944 -1227.882)" fill="#022644"/>
        </g>
        <rect id="Rectángulo_5780" data-name="Rectángulo 5780" width="4.672" height="1.593" rx="0.796" transform="translate(100.545 26.543)" fill="#022644"/>
        <path id="Trazado_5851" data-name="Trazado 5851" d="M1167.161,1142.823a1.3,1.3,0,0,0-.876.213c-.2.184-.454.4-.454.668v8.438h10.63S1175.9,1143.46,1167.161,1142.823Z" transform="translate(-1070.17 -1140.038)" fill="#022644"/>
        <circle id="Elipse_1257" data-name="Elipse 1257" cx="8.159" cy="8.159" r="8.159" transform="translate(97.839 51.398) rotate(-85.935)" fill="url(#linear-gradient-5)"/>
        <circle id="Elipse_1258" data-name="Elipse 1258" cx="6.626" cy="6.626" r="6.626" transform="translate(99.17 38.072) rotate(-7.018)" fill="#93f5e5"/>
        <path id="Trazado_5852" data-name="Trazado 5852" d="M1236.584,1422.34a.123.123,0,0,1-.049-.01.126.126,0,0,1-.067-.165,5.743,5.743,0,0,0-8.092-7.246.126.126,0,0,1-.123-.219,6,6,0,0,1,8.447,7.563A.126.126,0,0,1,1236.584,1422.34Z" transform="translate(-1124.463 -1376.092)" fill="url(#linear-gradient-6)"/>
        <circle id="Elipse_1259" data-name="Elipse 1259" cx="3.039" cy="3.039" r="3.039" transform="translate(102.901 46.098) rotate(-76.718)" fill="url(#linear-gradient-7)"/>
        <circle id="Elipse_1260" data-name="Elipse 1260" cx="8.159" cy="8.159" r="8.159" transform="matrix(0.23, -0.973, 0.973, 0.23, 19.123, 50.132)" fill="url(#linear-gradient-5)"/>
        <circle id="Elipse_1261" data-name="Elipse 1261" cx="6.626" cy="6.626" r="6.626" transform="translate(21.179 38.813) rotate(-10.901)" fill="#93f5e5"/>
        <path id="Trazado_5853" data-name="Trazado 5853" d="M636.454,1424.1a.124.124,0,0,1-.049-.01.126.126,0,0,1-.067-.165,5.743,5.743,0,0,0-8.092-7.246.126.126,0,1,1-.123-.219,6,6,0,0,1,8.447,7.563A.126.126,0,0,1,636.454,1424.1Z" transform="translate(-601.95 -1377.624)" fill="url(#linear-gradient-9)"/>
        <circle id="Elipse_1262" data-name="Elipse 1262" cx="3.039" cy="3.039" r="3.039" transform="translate(25.283 46.325) rotate(-76.718)" fill="url(#linear-gradient-7)"/>
        <circle id="Elipse_1263" data-name="Elipse 1263" cx="8.159" cy="8.159" r="8.159" transform="matrix(0.122, -0.993, 0.993, 0.122, 65.823, 51.167)" fill="url(#linear-gradient-5)"/>
        <circle id="Elipse_1264" data-name="Elipse 1264" cx="6.626" cy="6.626" r="6.626" transform="translate(67.531 38.299) rotate(-7.018)" fill="#93f5e5"/>
        <path id="Trazado_5854" data-name="Trazado 5854" d="M991.956,1424.1a.124.124,0,0,1-.049-.01.126.126,0,0,1-.067-.165,5.743,5.743,0,0,0-8.092-7.246.126.126,0,1,1-.123-.219,6,6,0,0,1,8.447,7.563A.126.126,0,0,1,991.956,1424.1Z" transform="translate(-911.473 -1377.624)" fill="url(#linear-gradient-12)"/>
        <circle id="Elipse_1265" data-name="Elipse 1265" cx="3.039" cy="3.039" r="3.039" transform="translate(71.262 46.325) rotate(-76.718)" fill="url(#linear-gradient-7)"/>
        <circle id="Elipse_1266" data-name="Elipse 1266" cx="8.159" cy="8.159" r="8.159" transform="translate(0.101 49.511) rotate(-73.155)" fill="url(#linear-gradient-5)"/>
        <circle id="Elipse_1267" data-name="Elipse 1267" cx="6.626" cy="6.626" r="6.626" transform="translate(2.888 38.299) rotate(-7.018)" fill="#93f5e5"/>
        <path id="Trazado_5855" data-name="Trazado 5855" d="M492.142,1424.1a.124.124,0,0,1-.049-.01.126.126,0,0,1-.067-.165,5.743,5.743,0,0,0-8.092-7.246.126.126,0,1,1-.123-.219,6,6,0,0,1,8.447,7.563A.126.126,0,0,1,492.142,1424.1Z" transform="translate(-476.302 -1377.624)" fill="url(#linear-gradient-15)"/>
        <circle id="Elipse_1268" data-name="Elipse 1268" cx="3.039" cy="3.039" r="3.039" transform="translate(6.619 46.325) rotate(-76.718)" fill="url(#linear-gradient-7)"/>
        <g id="Grupo_23810" data-name="Grupo 23810" transform="translate(115.197 33.126)">
          <rect id="Rectángulo_5781" data-name="Rectángulo 5781" width="3.822" height="4.035" rx="1.911" transform="translate(0.318)" fill="#022644"/>
          <path id="Trazado_5856" data-name="Trazado 5856" d="M1318.685,1377.443v4.672h-.573c-.444,0-1.232-.473-1.232-.917v-2.65c0-.444.787-1.1,1.232-1.1Z" transform="translate(-1316.88 -1377.443)" fill="#fff" opacity="0.8"/>
        </g>
        <path id="Trazado_5857" data-name="Trazado 5857" d="M1174.835,1246.928a.126.126,0,0,1-.126-.126V1228.01a.126.126,0,0,1,.252,0V1246.8A.126.126,0,0,1,1174.835,1246.928Z" transform="translate(-1077.899 -1214.101)" fill="#022644"/>
        <path id="Trazado_5858" data-name="Trazado 5858" d="M1181.056,1160.838a.126.126,0,0,1-.119-.085c-1.267-3.67-3.231-5.244-4.657-5.918a5.731,5.731,0,0,0-2.818-.591.126.126,0,0,1-.03-.25,5.855,5.855,0,0,1,2.94.607c1.474.693,3.5,2.309,4.8,6.07a.126.126,0,0,1-.078.16A.127.127,0,0,1,1181.056,1160.838Z" transform="translate(-1076.692 -1149.755)" fill="#fff" opacity="0.8"/>
        <g id="Grupo_23811" data-name="Grupo 23811" transform="translate(20.109 12.506)">
          <path id="Trazado_5859" data-name="Trazado 5859" d="M581.668,1233.513v-13.82h2.42v13.82Z" transform="translate(-581.668 -1219.476)" fill="#fff"/>
          <path id="Trazado_5860" data-name="Trazado 5860" d="M627.9,1233.513l-2.628-11.769h-.1a19.227,19.227,0,0,1,.18,2.5v9.273h-2.382v-13.82h3.951l2.363,10.861h.076l2.344-10.861H635.7v13.82h-2.439v-9.368a22.052,22.052,0,0,1,.132-2.382h-.076l-2.618,11.75Z" transform="translate(-617.621 -1219.476)" fill="#fff"/>
          <path id="Trazado_5861" data-name="Trazado 5861" d="M747.873,1223.947a4.739,4.739,0,0,1-1.111,3.379,4.2,4.2,0,0,1-3.209,1.177h-.643v5.01h-2.571v-13.82h3.507Q747.873,1219.693,747.873,1223.947Zm-4.963,2.325h.491a1.79,1.79,0,0,0,1.409-.52,3.312,3.312,0,0,0,.038-3.313,1.592,1.592,0,0,0-1.314-.524h-.624Z" transform="translate(-719.817 -1219.476)" fill="#fff"/>
          <path id="Trazado_5862" data-name="Trazado 5862" d="M818.684,1225.12a9.159,9.159,0,0,1-1.286,5.275,4.6,4.6,0,0,1-7.364,0,9.193,9.193,0,0,1-1.286-5.3,9.089,9.089,0,0,1,1.286-5.26,4.251,4.251,0,0,1,3.705-1.829,4.193,4.193,0,0,1,3.668,1.839A9.189,9.189,0,0,1,818.684,1225.12Zm-7.307,0a8.573,8.573,0,0,0,.6,3.6,1.884,1.884,0,0,0,1.749,1.238q2.325,0,2.325-4.84t-2.306-4.84a1.9,1.9,0,0,0-1.768,1.234A8.567,8.567,0,0,0,811.377,1225.12Z" transform="translate(-779.38 -1218.012)" fill="#fff"/>
          <path id="Trazado_5863" data-name="Trazado 5863" d="M903.7,1228.134v5.379h-2.571v-13.82H904.5a4.311,4.311,0,0,1,3.152,1.011,4.2,4.2,0,0,1,1.016,3.091,3.888,3.888,0,0,1-1.768,3.658l2.656,6.059H906.8l-2.184-5.379Zm0-2.212h.662a1.545,1.545,0,0,0,1.3-.515,2.491,2.491,0,0,0,.4-1.536,2.18,2.18,0,0,0-.421-1.508,1.7,1.7,0,0,0-1.3-.449H903.7Z" transform="translate(-859.813 -1219.476)" fill="#fff"/>
          <path id="Trazado_5864" data-name="Trazado 5864" d="M973.726,1233.513h-2.562v-11.561h-2.647v-2.259h7.855v2.259h-2.647Z" transform="translate(-918.484 -1219.476)" fill="#fff"/>
        </g>
      </g>
      <g id="Grupo_23815" data-name="Grupo 23815" transform="translate(141.721 130.414)">
        <path id="Trazado_5865" data-name="Trazado 5865" d="M548.872,508.241,539,504.5a.851.851,0,0,0-.629.011l-11,4.59a.851.851,0,0,0-.109,1.515l8.073,4.83Z" transform="translate(-464.283 -493.819)" fill="#71d6c6"/>
        <path id="Trazado_5866" data-name="Trazado 5866" d="M298.955,500.563s103.063-40.012,107.491-39.492,12.742,3.484,14.94,3.063,10.142-.575,9.216,5.3-86.211,39.974-97.213,38.436-38.418-3.124-38.418-3.124S291.838,501.47,298.955,500.563Z" transform="translate(-288.7 -461.066)" fill="#022644"/>
        <path id="Trazado_5867" data-name="Trazado 5867" d="M311.654,520.371l-17.034-5.545a6,6,0,0,1-2.739-1.848l-8.405-10.014a2.36,2.36,0,0,0-2.727-.656c-3.054,1.295-9.372,4.069-9.257,4.826.151,1,8.219,25.175,8.219,25.175Z" transform="translate(-271.49 -492.062)" fill="#69c2b1"/>
        <path id="Trazado_5868" data-name="Trazado 5868" d="M319.447,614.872l-.258,5.48a2.946,2.946,0,0,0,1.032,2.39,2.988,2.988,0,0,0,2.541.65l5.432-1.04a2.988,2.988,0,0,0,2.049-1.411l7.542-12.922Z" transform="translate(-307.5 -572.016)" fill="#95ddcf"/>
        <path id="Trazado_5869" data-name="Trazado 5869" d="M551.3,611.094a12.25,12.25,0,0,0,9.427,2.381c5.357-1.026,11.666-3.772,12.539-5.9s.829-16.639-9.664-12.541S541.631,607.9,551.3,611.094Z" transform="translate(-479.996 -561.662)" fill="url(#linear-gradient-17)"/>
        <path id="Trazado_5870" data-name="Trazado 5870" d="M496.032,579.748l24.523-9.356-16.039,31.494a1.775,1.775,0,0,1-1.1.9l-14.96,4.2a1.774,1.774,0,0,1-2.132-2.353Z" transform="translate(-433.597 -543.608)" fill="url(#linear-gradient-17)"/>
        <path id="Trazado_5871" data-name="Trazado 5871" d="M627.747,612.751a.571.571,0,0,0,.192-.029c.331-.11.6-.528.81-1.242a12.1,12.1,0,0,0-2.011-9.942,3.362,3.362,0,0,0-3.024-1.215,2.247,2.247,0,0,0-2.143,2.392c-.081,2.768,3.645,8.389,5.391,9.687A1.449,1.449,0,0,0,627.747,612.751Zm-3.581-11.979a2.93,2.93,0,0,1,2.208,1.066,11.758,11.758,0,0,1,1.923,9.512c-.179.618-.384.885-.506.925-.016.006-.158.04-.547-.25-1.816-1.35-5.273-6.851-5.2-9.3a1.78,1.78,0,0,1,1.729-1.938A2.822,2.822,0,0,1,624.166,600.771Z" transform="translate(-535.802 -566.187)" fill="url(#linear-gradient-19)"/>
        <path id="Trazado_5872" data-name="Trazado 5872" d="M278.633,544.569l2.637-.505,5.7,16.362-2.648,1.179Z" transform="translate(-276.883 -523.73)" fill="#95ddcf"/>
        <g id="Grupo_23814" data-name="Grupo 23814" transform="translate(48.675 1.879)">
          <g id="Grupo_23813" data-name="Grupo 23813" transform="translate(0 8.104)">
            <path id="Rectángulo_5782" data-name="Rectángulo 5782" d="M1.65,0h0A1.65,1.65,0,0,1,3.3,1.65v.943a1.65,1.65,0,0,1-1.65,1.65h0A1.65,1.65,0,0,1,0,2.593V1.65A1.65,1.65,0,0,1,1.65,0Z" transform="translate(0 21.233) rotate(-10.844)" fill="#93f5e5"/>
            <path id="Trazado_5873" data-name="Trazado 5873" d="M495.519,582.379a1.6,1.6,0,0,1,1.27-1.871l.1-.019a1.6,1.6,0,0,1,1.872,1.27l.2,1.026a1.6,1.6,0,0,1-1.27,1.871l-.1.019a1.6,1.6,0,0,1-1.872-1.27Z" transform="translate(-489.286 -561.191)" fill="#93f5e5"/>
            <path id="Trazado_5874" data-name="Trazado 5874" d="M519.005,572a1.6,1.6,0,0,1,1.27-1.872l.1-.019a1.6,1.6,0,0,1,1.871,1.27l.2,1.026a1.6,1.6,0,0,1-1.27,1.872l-.1.019a1.6,1.6,0,0,1-1.872-1.27Z" transform="translate(-507.019 -553.357)" fill="#93f5e5"/>
            <path id="Rectángulo_5783" data-name="Rectángulo 5783" d="M1.65,0h0A1.651,1.651,0,0,1,3.3,1.651v.942A1.651,1.651,0,0,1,1.65,4.244h0A1.65,1.65,0,0,1,0,2.594V1.65A1.65,1.65,0,0,1,1.65,0Z" transform="translate(17.066 15.084) rotate(-10.831)" fill="#93f5e5"/>
            <path id="Rectángulo_5784" data-name="Rectángulo 5784" d="M1.65,0h0A1.65,1.65,0,0,1,3.3,1.65v.943a1.65,1.65,0,0,1-1.65,1.65h0A1.65,1.65,0,0,1,0,2.593V1.65A1.65,1.65,0,0,1,1.65,0Z" transform="translate(23.372 12.917) rotate(-10.828)" fill="#93f5e5"/>
            <path id="Rectángulo_5785" data-name="Rectángulo 5785" d="M1.65,0h0A1.65,1.65,0,0,1,3.3,1.65v.943A1.651,1.651,0,0,1,1.65,4.243h0A1.65,1.65,0,0,1,0,2.594V1.65A1.65,1.65,0,0,1,1.65,0Z" transform="translate(29.214 10.838) rotate(-10.845)" fill="#93f5e5"/>
            <path id="Trazado_5875" data-name="Trazado 5875" d="M614.037,536.17a1.6,1.6,0,0,1,1.27-1.872l.1-.019a1.6,1.6,0,0,1,1.871,1.27l.2,1.026a1.6,1.6,0,0,1-1.27,1.872l-.1.019a1.6,1.6,0,0,1-1.872-1.27Z" transform="translate(-578.768 -526.303)" fill="#93f5e5"/>
            <path id="Rectángulo_5786" data-name="Rectángulo 5786" d="M1.65,0h0A1.65,1.65,0,0,1,3.3,1.65v.944a1.65,1.65,0,0,1-1.65,1.65h0A1.651,1.651,0,0,1,0,2.593V1.65A1.65,1.65,0,0,1,1.65,0Z" transform="matrix(0.982, -0.188, 0.188, 0.982, 40.436, 6.769)" fill="#93f5e5"/>
            <path id="Trazado_5876" data-name="Trazado 5876" d="M660.206,521.451a1.6,1.6,0,0,1,1.27-1.872l.1-.019a1.6,1.6,0,0,1,1.872,1.27l.2,1.026a1.6,1.6,0,0,1-1.27,1.872l-.1.019a1.6,1.6,0,0,1-1.872-1.27Z" transform="translate(-613.626 -515.19)" fill="#93f5e5"/>
            <path id="Rectángulo_5787" data-name="Rectángulo 5787" d="M1.65,0h0A1.65,1.65,0,0,1,3.3,1.65v.943a1.65,1.65,0,0,1-1.65,1.65h0A1.65,1.65,0,0,1,0,2.593V1.65A1.65,1.65,0,0,1,1.65,0Z" transform="translate(52.033 2.148) rotate(-10.842)" fill="#93f5e5"/>
            <path id="Rectángulo_5788" data-name="Rectángulo 5788" d="M1.65,0h0A1.65,1.65,0,0,1,3.3,1.65v.943a1.65,1.65,0,0,1-1.65,1.65h0A1.65,1.65,0,0,1,0,2.593V1.65A1.65,1.65,0,0,1,1.65,0Z" transform="matrix(0.982, -0.188, 0.188, 0.982, 57.501, 0.621)" fill="#93f5e5"/>
          </g>
          <path id="Trazado_5877" data-name="Trazado 5877" d="M751.329,468.735l-10,4.956a1.741,1.741,0,0,0-.9,2.035c.274.958.632,2.032.832,1.9.353-.238,16.107-7.615,16.107-7.615Z" transform="translate(-674.165 -468.735)" fill="url(#linear-gradient-20)"/>
        </g>
      </g>
    </g>
  </g>
</svg>
