<svg xmlns="http://www.w3.org/2000/svg" width="79.916" height="79.916" viewBox="0 0 79.916 79.916">
  <g id="Grupo_23196" data-name="Grupo 23196" transform="translate(-934.883 -898.249)">
    <g id="Grupo_23150" data-name="Grupo 23150" transform="translate(934.883 898.249)">
      <path id="Trazado_4322" data-name="Trazado 4322" d="M957.563,948.18l-3.979-2.429,1.379-16.451L961,925.022l.649-.809,2.289-8.126,18.5,8.012-.657-4.085.627-12.678,4.666,2.4,6.783.791.488-4.6,11.5,7.066a39.958,39.958,0,1,0-31,65.172q.536,0,1.069-.015l-17.83-10.776Z" transform="translate(-934.883 -898.249)" fill="#acacac"/>
      <path id="Trazado_4323" data-name="Trazado 4323" d="M1081.427,965.565a39.792,39.792,0,0,0-8.961-25.214l-11.5-7.066-.488,4.6-6.783-.791-4.666-2.4-.627,12.678.657,4.085-18.5-8.012-2.289,8.126-.649.809-6.038,4.278-1.379,16.451,3.979,2.429.517,19.194,17.83,10.776A39.958,39.958,0,0,0,1081.427,965.565Z" transform="translate(-1001.511 -925.607)" fill="#9a9a9a"/>
    </g>
    <g id="Grupo_23152" data-name="Grupo 23152" transform="translate(952.252 905.927)">
      <g id="Grupo_23151" data-name="Grupo 23151" transform="translate(0 9.797)">
        <path id="Trazado_4324" data-name="Trazado 4324" d="M1044.559,986.509a4.3,4.3,0,0,0,4.384-2.593,4.168,4.168,0,0,0-1.278-4.962,11.206,11.206,0,0,0-1.865-.967h-1.633a6.03,6.03,0,0,1-.553.247,4.3,4.3,0,0,0-2.8,4.887A4.346,4.346,0,0,0,1044.559,986.509Z" transform="translate(-1034.899 -977.987)" fill="#fff"/>
        <path id="Trazado_4325" data-name="Trazado 4325" d="M1045.8,998.944a2.116,2.116,0,0,0-2.7-1.284l-13.934,4.959c-.2-.022-.408-.036-.618-.039-1.037-.016-2.074-.024-3.111-.029v.095h-.043v.485l-.621,1.259-.012.033-.035.07-.1.279.638,10.9-1.078,1.209-.016-.018-.016.018-1.129-1.264.642-10.946-.1-.278-.664-1.348v-.492q-1.472,0-2.946.018a5.506,5.506,0,0,0-4.341,1.892,6.253,6.253,0,0,0-1.358,2.734,1.189,1.189,0,0,1-.1.221v14.641c.15.955.659,1.061,1.332,1.223a1.856,1.856,0,0,0,2.419-1.7c.03-.292.1-1.038.1-1.061q0-5.243,0-10.487v-.586h.777v.833q0,15.741,0,31.483a7.146,7.146,0,0,0,.1,1.378,2.538,2.538,0,0,0,1.706,1.766h1.263a2.807,2.807,0,0,0,1.932-3.073c-.04-5.931-.016-11.861-.016-17.791v-.778h.86v.764c0,5.909.029,11.819-.019,17.728-.013,1.518.434,2.609,1.913,3.15h1.262c1.467-.529,1.894-1.635,1.891-3.109q-.027-10.6-.016-21.209h.029q0-3.72,0-7.439v-6.214l3.827-1.362,11.016-3.921A2.118,2.118,0,0,0,1045.8,998.944Z" transform="translate(-1014.135 -993.252)" fill="#fff"/>
      </g>
      <path id="Trazado_4326" data-name="Trazado 4326" d="M1157.688,940.034a17.613,17.613,0,0,0,.609-3.567c-.007-1.362-.648-2.1-1.2-3.183-.036,3.263-2.519,3.585-5.307,3.429a28.71,28.71,0,0,1-3.883-1.157,4.933,4.933,0,0,0-2.747-.233v-.63l-1.842,0V965.27h1.842V943.9a5.993,5.993,0,0,1,3.072.031c1.565.378,2.547,1.284,3.926,2,2.416,1.245,4.684.891,7.108-.034A6.214,6.214,0,0,1,1157.688,940.034Z" transform="translate(-1115.006 -933.285)" fill="#fff"/>
    </g>
  </g>
</svg>
