<svg xmlns="http://www.w3.org/2000/svg" width="79.916" height="79.916" viewBox="0 0 79.916 79.916">
  <g id="Grupo_23193" data-name="Grupo 23193" transform="translate(-57.238 -1329.564)">
    <g id="Grupo_23163" data-name="Grupo 23163" transform="translate(57.238 1329.564)">
      <path id="Trazado_4340" data-name="Trazado 4340" d="M81.973,1395.344l-2.036-1.745v-2.948l-5.255-2.46v-11.246l4.642-.124,6.6.124,8.121-.124,2.346-.988-1.315-1.462-.523-14.343-3.842-2.517,1.729-12.177,4.2-2.593,1.227-1.635,2.059-5.86,29.861,11.151a39.96,39.96,0,1,0-37.864,62.735l-9.639-5.591Z" transform="translate(-57.238 -1329.564)" fill="#f2bafe"/>
      <path id="Trazado_4341" data-name="Trazado 4341" d="M199.3,1389.77a39.776,39.776,0,0,0-7.367-23.124l-29.861-11.151-2.059,5.86-1.227,1.635-4.2,2.593-1.729,12.177,3.842,2.517.523,14.343,1.315,1.462-2.346.988-8.121.124-6.6-.124-4.642.124v11.246l5.255,2.46v2.948l2.036,1.745.312,8.2,9.639,5.591A39.977,39.977,0,0,0,199.3,1389.77Z" transform="translate(-119.387 -1349.812)" fill="#f0a5fd"/>
    </g>
    <g id="Grupo_23169" data-name="Grupo 23169" transform="translate(73.433 1334.498)">
      <g id="Grupo_23167" data-name="Grupo 23167" transform="translate(5.891 45.247)">
        <g id="Grupo_23164" data-name="Grupo 23164">
          <path id="Trazado_4342" data-name="Trazado 4342" d="M159.747,1581.9v-.328h.393v.383q0,7.239,0,14.477a3.223,3.223,0,0,0,.048.634,1.166,1.166,0,0,0,.785.812h.58a1.29,1.29,0,0,0,.888-1.413c-.018-2.727-.008-5.455-.008-8.182v-.358h.4v.352c0,2.717.014,5.435-.009,8.152a1.322,1.322,0,0,0,.88,1.449h.58a1.312,1.312,0,0,0,.869-1.429q-.016-7.238-.006-14.475v-.4h.377v.345q0,2.452,0,4.9a2.921,2.921,0,0,0,.025.4.849.849,0,0,0,1.69-.1c.006-1.354,0-2.707,0-4.061,0-.648,0-1.3,0-1.943a2.571,2.571,0,0,0-2.617-2.663c-.479-.007-.958-.01-1.437-.013v.226l-.306.623-.048.128.3,5.057-.521.584-.007-.008-.007.008-.522-.584.3-5.057-.048-.128-.307-.623v-.227q-.681,0-1.362.009a2.527,2.527,0,0,0-2.589,2.083.523.523,0,0,1-.048.1v6.733a1.014,1.014,0,0,0,.612.563.853.853,0,0,0,1.112-.783,3.746,3.746,0,0,0,.008-.406Q159.748,1584.327,159.747,1581.9Z" transform="translate(-158.014 -1574.083)" fill="#fff"/>
          <path id="Trazado_4343" data-name="Trazado 4343" d="M171.869,1562.467a1.987,1.987,0,0,0,2.025-1.2,1.925,1.925,0,0,0-.591-2.292,5.189,5.189,0,0,0-.862-.447h-.754a2.739,2.739,0,0,1-.256.114,1.97,1.97,0,0,0,.437,3.824Z" transform="translate(-167.45 -1558.53)" fill="#fff"/>
        </g>
        <g id="Grupo_23165" data-name="Grupo 23165" transform="translate(13.911)">
          <path id="Trazado_4344" data-name="Trazado 4344" d="M223.222,1581.9v-.328h.393v.383q0,7.239,0,14.477a3.309,3.309,0,0,0,.048.634,1.169,1.169,0,0,0,.785.812h.58a1.291,1.291,0,0,0,.888-1.413c-.018-2.727-.008-5.455-.008-8.182v-.358h.4v.352c0,2.717.014,5.435-.009,8.152a1.322,1.322,0,0,0,.88,1.449h.58a1.312,1.312,0,0,0,.869-1.429q-.017-7.238-.006-14.475v-.4H229v.345q0,2.452,0,4.9a2.926,2.926,0,0,0,.025.4.849.849,0,0,0,1.69-.1c.007-1.354,0-2.707,0-4.061,0-.648,0-1.3,0-1.943a2.57,2.57,0,0,0-2.617-2.663c-.479-.007-.958-.01-1.438-.013v.226l-.306.623-.048.128.3,5.057-.521.584-.008-.008-.007.008-.522-.584.3-5.057-.049-.128-.306-.623v-.227q-.681,0-1.361.009a2.527,2.527,0,0,0-2.588,2.083.557.557,0,0,1-.048.1v6.733a1.014,1.014,0,0,0,.613.563.853.853,0,0,0,1.112-.783,3.917,3.917,0,0,0,.008-.406Q223.222,1584.327,223.222,1581.9Z" transform="translate(-221.489 -1574.083)" fill="#fff"/>
          <path id="Trazado_4345" data-name="Trazado 4345" d="M235.343,1562.467a1.987,1.987,0,0,0,2.025-1.2,1.925,1.925,0,0,0-.591-2.292,5.193,5.193,0,0,0-.862-.447h-.754a2.659,2.659,0,0,1-.256.114,1.989,1.989,0,0,0-1.292,2.259A2.009,2.009,0,0,0,235.343,1562.467Z" transform="translate(-230.924 -1558.53)" fill="#fff"/>
        </g>
        <g id="Grupo_23166" data-name="Grupo 23166" transform="translate(27.822)">
          <path id="Trazado_4346" data-name="Trazado 4346" d="M286.7,1581.9v-.328h.393v.383q0,7.239,0,14.477a3.242,3.242,0,0,0,.048.634,1.167,1.167,0,0,0,.784.812h.581a1.291,1.291,0,0,0,.888-1.413c-.018-2.727-.007-5.455-.007-8.182v-.358h.4v.352c0,2.717.013,5.435-.009,8.152a1.322,1.322,0,0,0,.88,1.449h.58a1.312,1.312,0,0,0,.869-1.429q-.016-7.238-.006-14.475v-.4h.377v.345q0,2.452,0,4.9a2.83,2.83,0,0,0,.025.4.849.849,0,0,0,1.69-.1c.006-1.354,0-2.707,0-4.061,0-.648,0-1.3,0-1.943a2.571,2.571,0,0,0-2.617-2.663c-.479-.007-.958-.01-1.438-.013v.226l-.306.623-.048.128.3,5.057-.521.584-.008-.008-.007.008-.522-.584.3-5.057-.049-.128-.306-.623v-.227c-.454,0-.907,0-1.361.009a2.527,2.527,0,0,0-2.589,2.083.489.489,0,0,1-.048.1v6.733a1.014,1.014,0,0,0,.613.563.853.853,0,0,0,1.112-.783,3.859,3.859,0,0,0,.009-.406Z" transform="translate(-284.964 -1574.083)" fill="#fff"/>
          <path id="Trazado_4347" data-name="Trazado 4347" d="M298.821,1562.467a1.987,1.987,0,0,0,2.025-1.2,1.925,1.925,0,0,0-.591-2.292,5.159,5.159,0,0,0-.862-.447h-.754a2.754,2.754,0,0,1-.257.114,1.97,1.97,0,0,0,.438,3.824Z" transform="translate(-294.401 -1558.53)" fill="#fff"/>
        </g>
      </g>
      <g id="Grupo_23168" data-name="Grupo 23168" transform="translate(16.686 0)">
        <path id="Trazado_4348" data-name="Trazado 4348" d="M210.171,1391.239v-.55h.658v.641q0,12.129,0,24.258a5.4,5.4,0,0,0,.081,1.061,1.956,1.956,0,0,0,1.314,1.361h.973a2.163,2.163,0,0,0,1.488-2.369c-.03-4.569-.013-9.138-.013-13.708v-.6h.664v.588c0,4.554.022,9.107-.015,13.66a2.215,2.215,0,0,0,1.475,2.428h.973a2.2,2.2,0,0,0,1.457-2.4q-.028-12.125-.01-24.25v-.664h.631v.579q0,4.107,0,8.213a4.956,4.956,0,0,0,.041.678,1.423,1.423,0,0,0,2.832-.176c.011-2.268,0-4.535,0-6.8,0-1.085.005-2.171,0-3.256a4.307,4.307,0,0,0-4.385-4.461c-.8-.012-1.606-.018-2.408-.022v.38l-.514,1.043-.081.215.5,8.474-.873.978-.013-.013-.012.013-.874-.978.5-8.474-.081-.215-.513-1.043v-.381c-.76,0-1.52.006-2.281.014a4.235,4.235,0,0,0-4.338,3.491.876.876,0,0,1-.08.171v11.281a1.691,1.691,0,0,0,1.026.941,1.428,1.428,0,0,0,1.863-1.31,6.461,6.461,0,0,0,.014-.68Q210.172,1395.3,210.171,1391.239Z" transform="translate(-207.267 -1378.135)" fill="#fff"/>
        <path id="Trazado_4349" data-name="Trazado 4349" d="M230.479,1358.672a3.327,3.327,0,0,0,3.393-2.008,3.224,3.224,0,0,0-.989-3.84,8.644,8.644,0,0,0-1.444-.75h-1.264a4.448,4.448,0,0,1-.428.192,3.331,3.331,0,0,0-2.164,3.783A3.366,3.366,0,0,0,230.479,1358.672Z" transform="translate(-223.075 -1352.075)" fill="#fff"/>
      </g>
      <path id="Trazado_4350" data-name="Trazado 4350" d="M178.719,1550.941a1.249,1.249,0,0,1-1.249-1.249v-9.2H133.63v9.2a1.249,1.249,0,1,1-2.5,0v-10.449a1.249,1.249,0,0,1,1.249-1.249h46.337a1.249,1.249,0,0,1,1.249,1.249v10.449A1.249,1.249,0,0,1,178.719,1550.941Z" transform="translate(-131.133 -1497.248)" fill="#fff"/>
    </g>
  </g>
</svg>
