<svg xmlns="http://www.w3.org/2000/svg" width="352" height="317" viewBox="0 0 352 317">
  <g id="Grupo_23093" data-name="Grupo 23093" transform="translate(-599 -1928)">
    <rect id="Rectángulo_5155" data-name="Rectángulo 5155" width="352" height="317" rx="7" transform="translate(599 1928)" fill="#e0fdf9"/>
    <g id="Grupo_23092" data-name="Grupo 23092" transform="translate(599.609 1994.193)">
      <rect id="Rectángulo_5153" data-name="Rectángulo 5153" width="62.01" height="96.645" transform="translate(86.075 153.278)" fill="#f80"/>
      <path id="Rectángulo_5154" data-name="Rectángulo 5154" d="M0,0H62.01a0,0,0,0,1,0,0V198.283a0,0,0,0,1,0,0H7a7,7,0,0,1-7-7V0A0,0,0,0,1,0,0Z" transform="translate(0 52.02)" fill="#ffae00"/>
      <path id="Trazado_4196" data-name="Trazado 4196" d="M186.829,169.593l-.8-47.777L172.72,135.128l-8.74-8.74A156.183,156.183,0,0,0,53.543,80.643H41.093v26.7h0a156.181,156.181,0,0,1,110.436,45.744l1.616,1.616L139.051,168.8Z" transform="translate(-41.093 -80.643)" fill="#022644"/>
      <g id="Grupo_23091" data-name="Grupo 23091" transform="translate(172.149 98.391)">
        <path id="Trazado_4197" data-name="Trazado 4197" d="M312.787,379.472c.532,0,31.505-2.719,52.409,3.34,20.306,5.885,2.976,20.409,2.444,20.409s-37.475,4.613-37.475,4.613-29.608,1.82-34.31-.233S312.787,379.472,312.787,379.472Z" transform="translate(-261.143 -257.999)" fill="#022644"/>
        <g id="Grupo_23090" data-name="Grupo 23090">
          <path id="Trazado_4198" data-name="Trazado 4198" d="M312.559,345.993c3.239-4.555,7.558-9.476,10.083-14.691,3.3-6.807,6.083-14.333,9.874-20.77,1.98-3.362,4.316-8.185,6.591-11.321C322.455,307.516,316.171,328.328,312.559,345.993Z" transform="translate(-266.193 -234.845)" fill="#d0f6ff"/>
          <path id="Trazado_4199" data-name="Trazado 4199" d="M367.726,259.464c-5.843-.169-11.8,2.119-16.5,5.477-.181-2.623.081-4.681-.746-7.393-.729-2.392-2.235-7.832-4.573-8.9.349,1.023,3.848-1.177,4.624-1.532,5.238-2.4,11.708-7.08,17.56-7.37a3.281,3.281,0,0,1-.541.013Z" transform="translate(-275.886 -217.56)" fill="#5dc2ae"/>
          <path id="Trazado_4200" data-name="Trazado 4200" d="M395.384,234.029c-.328.572-.738,1.113-1.07,1.675q-1.927,3.261-4.1,6.363c-3.149,4.474-7.108,10.284-12.351,12.478-7.232,3.026-17.41-6.963-15.832-15.538,1.5-8.133,4.775-23.053,15.142-23.585,3.4-.175,6.47,1.826,9.539,3.3a27.118,27.118,0,0,1,3.573,1.852,12.31,12.31,0,0,1,4.379,5.837,15.4,15.4,0,0,1,1.293,5.948A3.879,3.879,0,0,1,395.384,234.029Z" transform="translate(-280.525 -210.486)" fill="#efe7ab"/>
          <path id="Trazado_4201" data-name="Trazado 4201" d="M416.668,383.969c-.466.636-4.062,5.368-4.084,5.351,2.535,2,5.976,4.714,7.559,7.573,2.532,4.573-1.41,7.935-.773,12.373a1.685,1.685,0,0,0,.412.975,1.89,1.89,0,0,0,.915.427c4.93,1.191,9.974-1.708,15.038-1.429,2.556.14,4.991,1.085,7.5,1.594a29.669,29.669,0,0,0,3.176.472C434.239,405.581,424.038,396.02,416.668,383.969Z" transform="translate(-295.269 -259.483)" fill="#93f5e5"/>
          <path id="Trazado_4202" data-name="Trazado 4202" d="M456.082,408.394c2.163-1.862,2.749-4.95-.58-5.343a58.089,58.089,0,0,1-7.214-.946c-6.748-1.674-12.548-6.589-16.777-11.854-2.113-2.631-5.212-8.568-8.225-10.037-2.847-1.389-3.422.382-4.9,2.463l-.041.057c7.37,12.051,17.571,21.611,29.743,27.335C450.943,410.33,454.089,410.109,456.082,408.394Z" transform="translate(-296.942 -258.248)" fill="#5dc2ae"/>
          <path id="Trazado_4203" data-name="Trazado 4203" d="M356.5,334.515c-5.532-6.4-10.243-12.007-19.714-12.5-10.277-.531-16.9,3.572-24.652,9.7q-10.3,8.139-20.266,16.686-4.873,4.154-9.692,8.371c-2.352,2.055-4.435,5.191-7.355,6.262q-11.513,4.221-23.109,8.215c.8,5.559,4.655,10.307,9.288,13.484,7.5,5.14,16.358,8.141,25.306,5.706,8.464-2.3,15.745-7.86,22.356-13.412,2.028-1.7,26.433-26.306,27.59-25.079,7.758,8.227,7.758,8.227,13.225,12.049,1.56,1.09,16.653,12.58,17.255,12.063l15.219-12.883L358.5,336.81Q357.473,335.654,356.5,334.515Z" transform="translate(-248.505 -241.462)" fill="#022644"/>
          <path id="Trazado_4204" data-name="Trazado 4204" d="M383.388,213.525a3.5,3.5,0,0,1-1.661-1.483c-.7-1.138-1.507-2.739-3.078-2.447-1.623.3-2.206,2.064-3.354,2.818a1.327,1.327,0,0,1-1.121-.053,7.7,7.7,0,0,0-5.275.183c-2.526,1.033-4.3,3.32-5.775,5.616s-2.827,4.752-4.942,6.478l2.175-.576c-1.139,1.825-3.021,3.087-4.183,4.9-1.24,1.931-1.814,5.252-.517,7.322,1.267,2.022,4.141,2.729,6.323,3.106,2.819.487,5.736-.169,7.07-2.939a2.787,2.787,0,0,1-.656-2.466,4.509,4.509,0,0,1,1.3-2.268,3.818,3.818,0,0,1,2.934-1.27,1.862,1.862,0,0,1,1.528,2.918q-.851,1.5-1.7,3a6.906,6.906,0,0,0,2.391-.8,35.526,35.526,0,0,0,2.746-3.169,4.258,4.258,0,0,1,1.248-1.1c1.13-.56,2.481-.023,3.579.6s2.268,1.356,3.516,1.18,2.288-1.24,3.539-1.166a5.907,5.907,0,0,1,1.361.355c5.26,1.619,9.191-3.637,8.959-8.4-.057-1.168-.448-2.6-1.6-2.815-.451-.083-.952.036-1.395,0a2.766,2.766,0,0,1-.64-2.007,8.167,8.167,0,0,1,2.232-3.969c-1.639.062-2.505,1.9-3.962,1.906-1.922.013-.662-2.116-.877-3.254a3.147,3.147,0,0,0-1.5-2.112,7.789,7.789,0,0,1-.548,2.946c-.148.309-1.436,2-.964,2.363a4.546,4.546,0,0,1-.366-.3,1.892,1.892,0,0,1-.172-.494q-.389-1.723-.779-3.444c-.313-1.383.142-2.6-.7-3.9a3.763,3.763,0,0,1-.738,1.473,2.141,2.141,0,0,0-1.055-1.777,19.066,19.066,0,0,1-.455,4c-1.218-.233-1.813,1.863-3.2,1.036-1.264-.755-.724-3.09-.017-4.022a9.659,9.659,0,0,0-4.673.476,5.739,5.739,0,0,0-3.315,3.2A3.7,3.7,0,0,0,372.17,212a5.1,5.1,0,0,0-2.046.24,2.3,2.3,0,0,0-1.427,1.406" transform="translate(-278.507 -208.468)" fill="#022644"/>
          <path id="Trazado_4205" data-name="Trazado 4205" d="M400.578,231.626c-1.775,2.232-2.976,3.593-5.831,3.927a9.34,9.34,0,0,1-2.526.066,6.265,6.265,0,0,1-3.682-2.264c-2.022-2.383-3.014-5.592-4.635-8.258a10.426,10.426,0,0,0-2.7-2.505,2.694,2.694,0,0,1-.7-.706c-.643-1.1.553-1.522,1.422-1.7a5.636,5.636,0,0,1,4.8,2.075c.445.57.751,1.243,1.243,1.773a1.83,1.83,0,0,0,1.938.62c.2-.335-.074-.716.018-1.094a40.134,40.134,0,0,0,1.13-8.42c.013-.454-.67-.158-.958-.51a1.438,1.438,0,0,1-.4-1.246,1.545,1.545,0,0,1,.5-.68,3.113,3.113,0,0,1,2.179-.944c2.561.163,2.637,4.371,2.863,6.191.232-.9.564-1.729.8-2.627a4.741,4.741,0,0,1,.887-2.039,1.625,1.625,0,0,1,2.013-.427,2.213,2.213,0,0,1,.767,1.451,15.021,15.021,0,0,1,.073,5.916c.384-.878,1.267-5.131,2.863-3.572a2.528,2.528,0,0,1,.588,1.657,11.793,11.793,0,0,1-.858,5.387,15.12,15.12,0,0,0,3.11-4.835c.239-.6.729-1.356,1.324-1.107a1.07,1.07,0,0,1,.518.771,6.9,6.9,0,0,1-.578,4.574,20.5,20.5,0,0,1-2.59,3.915Z" transform="translate(-285.891 -209.424)" fill="#efe7ab"/>
          <path id="Trazado_4206" data-name="Trazado 4206" d="M390,238.3s-2.6,15.5-2.249,15.386,10.179,1.894,10.179,1.421,1.578-10.276,3.275-14.015S390,238.3,390,238.3Z" transform="translate(-288.041 -217.109)" fill="#efe7ab"/>
          <path id="Trazado_4207" data-name="Trazado 4207" d="M330.067,263.436a36.809,36.809,0,0,1-3.476,10.421c-.248.532-.511,1.042-.794,1.532-2.419,4.362-5.816,7.349-9.611,10.753-20.038,18-26.245,48.219-17,73.1a38.385,38.385,0,0,1-22.8.043c-4.972-1.546-9.6-4.1-14.619-5.462a64.258,64.258,0,0,0-13.747-1.653c-1.972-9.477.035-21.117,1.539-30.607,3.7-23.294,17.016-45.78,32.749-63.356,6.731-7.519,14.995-14.506,24.975-15.981,5.143-.766,14.945-.681,18.8,3.135C330.11,249.371,330.84,258.23,330.067,263.436Z" transform="translate(-247.192 -218.171)" fill="#5dc2ae"/>
          <path id="Trazado_4208" data-name="Trazado 4208" d="M351.473,243.068a6.337,6.337,0,0,1,4.637.114,34.051,34.051,0,0,1,4.506,14.962c.282,8.151-1.772,12.239-1.772,12.239Z" transform="translate(-277.505 -218.415)" fill="#fff"/>
          <path id="Trazado_4209" data-name="Trazado 4209" d="M339.607,281.289c-2.419,4.362-5.816,7.349-9.611,10.753-20.038,18-26.245,48.219-17,73.1a38.126,38.126,0,0,1-12.307,1.745,18.052,18.052,0,0,1-5.639-12.477c-.674-19.258-2.263-57.093,16.889-92.268C311.937,262.145,327.513,273,339.607,281.289Z" transform="translate(-261.002 -224.071)" fill="#93f5e5"/>
          <path id="Trazado_4210" data-name="Trazado 4210" d="M380.7,255.793s-9.682,43.6-17.513,45.681c-3.029.809-6.093.255-9.292-1.22-8.058-3.724-17.017-13.321-28.706-21.947a33.879,33.879,0,0,1-10.945-13.029c-3.809-8.561-1.255-16.257,8.817-15.733,10.8.567,32.664,25.215,32.664,25.215l8.675-21.109,7.363.964,1.88.249Z" transform="translate(-266.194 -220.401)" fill="#5dc2ae"/>
          <path id="Trazado_4211" data-name="Trazado 4211" d="M397.635,257.881s-9.682,43.6-17.513,45.681c-3.029.809-6.093.255-9.292-1.22,7.3-5.774,14.328-27.5,17.868-45.638l1.88.249Z" transform="translate(-283.132 -222.489)" fill="#93f5e5"/>
        </g>
        <path id="Trazado_4212" data-name="Trazado 4212" d="M347.1,406.138c1.447-5.153,8.125-5.094,12.275-4.594,5.3.64,7.971-1.44,12.741-3.152,5.282-1.9,14.006-3.422,16.938,2.482,2.841,5.719-2.239,9-6.682,11.276-3.186,1.635-6.683,3-10.223,2.456-3.15-.48-6.133-2.442-9.291-2.227-3.871.263-7.612,3.413-11.56,2.16a7,7,0,0,1-4.421-7.283A7.44,7.44,0,0,1,347.1,406.138Z" transform="translate(-276.158 -263.183)" fill="#5dc2ae"/>
        <path id="Trazado_4213" data-name="Trazado 4213" d="M335.792,288.782c-3.266-2.757-6.758-5.646-10.538-8.435-8.149-6-12.5-13.962-12.486-19.826a10,10,0,0,1,.374-2.8l-.681-.2a10.72,10.72,0,0,0-.4,2.994c.01,6.2,4.491,14.278,12.774,20.4,3.76,2.775,7.241,5.653,10.5,8.407l.458-.542Z" transform="translate(-266.047 -222.729)" fill="#379180"/>
        <path id="Trazado_4214" data-name="Trazado 4214" d="M300.535,408.182c8.555-2.33,15.871-7.924,22.492-13.482.255-.214.789-.719,1.561-1.462,2.31-2.224,6.692-6.541,11.215-10.887l-.491-.511c-3.018,2.9-5.973,5.785-8.29,8.045-1.159,1.129-2.158,2.1-2.926,2.842s-1.309,1.248-1.525,1.429c-6.6,5.546-13.849,11.065-22.221,13.341l.186.684Z" transform="translate(-262.644 -258.864)" fill="#002a75"/>
        <path id="Trazado_4215" data-name="Trazado 4215" d="M312.379,353.632A71.01,71.01,0,0,0,310.9,368.06a68.468,68.468,0,0,0,4.213,23.8l.333-.123-.107-.338a37.689,37.689,0,0,1-11.345,1.738c-.282,0-.564,0-.846-.009l-.016.709q.431.01.862.009a38.4,38.4,0,0,0,11.559-1.77l.355-.113-.129-.349a67.756,67.756,0,0,1-4.169-23.555,70.3,70.3,0,0,1,1.467-14.284l-.694-.144Z" transform="translate(-263.452 -250.665)" fill="#002a75"/>
      </g>
    </g>
  </g>
</svg>
