<svg xmlns="http://www.w3.org/2000/svg" width="383.532" height="277.89" viewBox="0 0 383.532 277.89">
  <g id="Grupo_23421" data-name="Grupo 23421" transform="translate(-727.91 -1293.271)">
    <g id="Grupo_23420" data-name="Grupo 23420" transform="translate(757.951 1295.858)">
      <path id="Trazado_4872" data-name="Trazado 4872" d="M571.765,1541.776c-6.4-.127-13.065,1.292-19.329-.212-2.285-.77-4.381-2.573-4.791-4.948s1.463-5.092,3.871-4.973c1.313.065,2.708.873,3.853.227,1.6-.906.858-3.454,1.778-5.052,2.1-3.34,7.527-.028,10.03-2.684.746-.8.978-1.946,1.576-2.861,2.916-5.6,11.066-4.371,13.563-1.526,1.818,1.954,1.636,5.523,4.005,6.752,2.5,1.307,6.1-1.186,8.328,1.045,1.589,1.589.654,3.221,1.6,4.537,1.029,1.431,3.11,1.45,4.871,1.358s3.865.018,4.79,1.518C609.116,1545.948,575.965,1541.188,571.765,1541.776Z" transform="translate(-547.589 -1314.606)" fill="#b5fcf0"/>
      <g id="Grupo_23416" data-name="Grupo 23416" transform="translate(37.501 30.604)">
        <path id="Trazado_4873" data-name="Trazado 4873" d="M934.48,580.81c3.578-9.477,17.758-29.241,20.914-31.483,3.464-2.46,13.241-2.322,12.28.79s-11.984.006-12.067,6.387c-.038,2.892,9.39,3.281,6.958,8.07-4.6,9.065-9.074,2.534-12.281,14.313-2.561,9.406-8.3,8.63-8.3,8.63Z" transform="translate(-914.26 -520.16)" fill="#efaea6"/>
        <path id="Trazado_4874" data-name="Trazado 4874" d="M1300.566,505.175l14.856-4.152c.138-6.779-7.111-21.016-8.185-27.087-1.178-6.661-9.4-12.8-9.4-12.8l-4.991,13.974.316,1.173s1.141,11.686-.92,17.013c-1.178,3.047-.471,7.552-3.716,12.217C1286.1,509.008,1300.566,505.175,1300.566,505.175Z" transform="translate(-1215.254 -446.584)" fill="#efaea6"/>
        <path id="Trazado_4875" data-name="Trazado 4875" d="M1319.958,566.07s.611,7.52-.339,11.949c9.227,4.21,14.125-6.267,11.8-8.869a67.5,67.5,0,0,0-6.765-5.424Z" transform="translate(-1241.94 -533.865)" fill="#1f1f3b" opacity="0.14"/>
        <g id="Grupo_23414" data-name="Grupo 23414" transform="translate(65.739)">
          <path id="Trazado_4876" data-name="Trazado 4876" d="M1247.628,430.919c-1.861,4.843-10,12.734-6.643,13.731s-3.942,10.228-.408,11.417c8.562,2.881,20.1.395,22.438-3.445s5.134-15.687,5.134-15.687Z" transform="translate(-1239.584 -420.871)" fill="#efaea6"/>
          <path id="Trazado_4877" data-name="Trazado 4877" d="M1274.146,381.069c-2.819-.5-3.091.121-4.732-1.377s2.43-3.142-.96-4.8-7.237-3.052-6.42-7.243c1.183-6.065,6.141-3.574,9.172-1.922,1.95,1.064,3.783-3.3,7.88-1.859,3.214,1.131,2.278,2.92,5.1,4.056,1.705.686,5.972-1.175,8.091,1.758,3.931,5.441-1.706,8.983,1.295,14.431,3.5,6.354-10.937,13.335-11.891,11.68-1.115-1.931,2.633-6.3,1.419-7.955-1.832-2.494-2.711-.575-5.227.693-2.687,1.353-6.612.305-3-2.781S1276.7,381.52,1274.146,381.069Z" transform="translate(-1258.59 -363.571)" fill="#1f1f3b"/>
        </g>
        <path id="Trazado_4878" data-name="Trazado 4878" d="M1222.021,1441.409c-.232,2.983-.54,6.228-.958,9.782-.5,4.272-1.185,11.794-1.854,20.982H1177.1c-.718-4.809-1.528-10.294-2.447-16.662l0,.008a.068.068,0,0,0-.005.015c0,.005,0,.011-.008.02a.107.107,0,0,1-.01.028c-.015.045-.038.109-.068.193l-.062.176c-.021.059-.045.123-.069.194-.347.966-1.072,3-2.064,5.846-.033.1-.069.2-.1.3s-.078.224-.117.338c-.077.221-.155.443-.234.667-.031.089-.063.178-.094.268l-.089.255c-.443,1.284-.927,2.691-1.446,4.209-.446,1.306-.919,2.692-1.409,4.147h-39.29c5.431-33.487,11.524-71.95,13.623-87.419,0,0,75.913-16.552,78.241,9.379a92.228,92.228,0,0,1,.367,9.663c-.059,4.027.163,7.757.382,11.85A181.092,181.092,0,0,1,1222.021,1441.409Z" transform="translate(-1080.253 -1227.975)" fill="#3b3b4d"/>
        <path id="Trazado_4879" data-name="Trazado 4879" d="M1475.223,1792.584a.336.336,0,0,0-.011.041,2.074,2.074,0,0,1-.211-.142A1.813,1.813,0,0,1,1475.223,1792.584Z" transform="translate(-1374.14 -1579.302)" fill="#1f1f3b" opacity="0.46"/>
        <path id="Trazado_4880" data-name="Trazado 4880" d="M1397.908,1814.95l0,.008a.078.078,0,0,0,0,.015l-.008.02a.116.116,0,0,1-.01.028c-.015.044-.038.109-.068.193-.018.051-.04.11-.063.176s-.044.124-.069.194c-.361,1.019-1.128,3.187-2.065,5.846-.033.1-.069.2-.1.3s-.078.224-.117.338q-.116.331-.234.667l-.094.268c-.03.084-.059.17-.089.255-.932,2.661-1.961,5.624-2.9,8.356h-.1l2.942-29.6S1394.82,1803.812,1397.908,1814.95Z" transform="translate(-1303.509 -1587.414)" fill="#1f1f3b" opacity="0.54"/>
        <path id="Trazado_4881" data-name="Trazado 4881" d="M1559.145,1622.046c-.629-.14-29.89-6.377-33.846-21.028,0,0,25.437,2.185,33.575,3.056C1559.229,1610.759,1559.4,1618.262,1559.145,1622.046Z" transform="translate(-1416.934 -1416.402)" fill="#1f1f3b" opacity="0.35"/>
        <path id="Trazado_4882" data-name="Trazado 4882" d="M1240.416,638.109c-6.576-1.784-7.218,9.081-13.848,9.606-3.5.277-2.726-1.248-4.38-2.861-1.018-.993-1.972-2.107-3.581-.456-32.72,33.574,1.351,118.223-2.814,124.131-3.406,4.832,24.284,15.375,41.675,11.134,23.85-5.817,22.4-31.718,21.71-36.665s-16.055-89.031-16.055-89.031A130.444,130.444,0,0,1,1240.416,638.109Z" transform="translate(-1143.792 -596.982)" fill="#fff"/>
        <path id="Trazado_4883" data-name="Trazado 4883" d="M838.762,687.69c2.865,2.1-13.907,33.833-13.907,33.833,14.611-14.611,22.426-32.3,48.909-40.132,0,0,.813,5.62-1.083,20.272-2.5,19.365,8.4,33.142,6.187,56.574-2.859,30.307,4.6,61.258-2.859,68.091-4.347,3.981-10.375,4.746-17.653-2.81-11.45-11.891-3.924-50.908-2.88-60.173.406-3.608,1.3-8.468,2.067-13.506.948-6.264,2.747-23.38-1.017-22.375-6.616,1.768-34.692,34.034-49.419,32.63-24.286-2.315,13.172-74.481,15.3-75.521C826.661,682.5,835.9,685.6,838.762,687.69Z" transform="translate(-798.948 -633.975)" fill="#5dc2ae"/>
        <path id="Trazado_4884" data-name="Trazado 4884" d="M1616.753,1692.855c-.635,1.185-2.6,1.185-1.617,1.984s12.94,6.074,12.94,6.074,1.155,1.254,2.557-.811a8.109,8.109,0,0,0,1.4-4.137Z" transform="translate(-1493.139 -1494.538)" fill="#e79e9c"/>
        <path id="Trazado_4885" data-name="Trazado 4885" d="M1487.713,790.041c-10.426,6.52-24.3,6.716-33.475-2.947-7.607-8.014.091-18.388-5.539-37.079-3.128-10.374-7.974-28.969-9.009-41.878-2.2-27.472-.519-61.148.095-68.907a47.2,47.2,0,0,1,30.174,14.586c5.72,5.958,9.317,23.187,9.927,35.781.194,4.133.309,7.455.367,10.262.115,5.734-.021,9.312-.206,13.233-.074,1.561-.152,3.179-.231,5v0c-.083,2.06-.165,4.392-.219,7.215-.086,4.616,1.475,12.2,3.412,20.588l0,0C1487.26,764.286,1493.3,786.547,1487.713,790.041Z" transform="translate(-1343.161 -598.104)" fill="#5dc2ae"/>
        <path id="Trazado_4886" data-name="Trazado 4886" d="M1489.453,728.634c36.561,59.947,38.565,52,39.478,61.809s-24.18,62.9-24.18,62.9,15.065,8.406,16.736,5.829,33.935-61.958,32.653-74.727c-1.413-14.065-40.728-68.675-45.356-74.04s-24.611-7.672-24.4,1.928A31.39,31.39,0,0,0,1489.453,728.634Z" transform="translate(-1382.124 -654.701)" fill="#5dc2ae"/>
        <path id="Trazado_4887" data-name="Trazado 4887" d="M1652.506,1106.963c-13.735-12.278-14.7-43.36-14.7-43.36l11.506,15.553v0c-.082,2.06-.165,4.392-.219,7.215C1649.007,1090.991,1650.569,1098.573,1652.506,1106.963Z" transform="translate(-1512.656 -959.165)" fill="#1f1f3b" opacity="0.18"/>
        <path id="Trazado_4888" data-name="Trazado 4888" d="M1648.592,1383.062c-.941,4.349-17.971,38.587-17.971,38.587l16.569-44.6Z" transform="translate(-1506.542 -1225.85)" fill="#1f1f3b" opacity="0.18"/>
        <g id="Grupo_23415" data-name="Grupo 23415" transform="translate(78.68 48.551)">
          <path id="Trazado_4889" data-name="Trazado 4889" d="M1339.974,724.971c.653-.362,5.957,12.1,14.1,16.676a20.163,20.163,0,0,0,7.3,2.537c7.619.973,28.691.921,38.4.421a77.874,77.874,0,0,0-7.283-9.215c-7.143,1.655-25.715,2.015-29.68,1.3a29.346,29.346,0,0,1-8.181-2.837,47.953,47.953,0,0,1-11.563-8.7c-1.495-1.48-1.569-3.577-3.488-3.79C1337.03,721.073,1339.134,725.433,1339.974,724.971Z" transform="translate(-1336.563 -716.52)" fill="#1f1f39" opacity="0.28"/>
          <path id="Trazado_4890" data-name="Trazado 4890" d="M1326.438,692.106a3.565,3.565,0,0,1,4.163-3.075c2.146.239,2.254,1.109,3.928,2.766,5.028,4.979,12.631,11.2,22.1,12.915s32.226-8.973,46.112-4.94,17.2,16.744,37.336,21.409,42.737-2.171,48.672-.721,9.476,3,9.14,5.326-3.64,5.961-8,7.307-41.783,1.109-51.51-.9c-15.879-3.281-28.545-18.46-38.812-20.111s-32.485,2.562-44.552,1.019c-13.457-1.721-23.23-17.931-24.167-17.412a3.754,3.754,0,0,1-3.508.471C1326.169,695.778,1326.247,693.425,1326.438,692.106Z" transform="translate(-1326.327 -688.998)" fill="#f4ad00"/>
        </g>
      </g>
      <path id="Trazado_4891" data-name="Trazado 4891" d="M2055.023,1111.625a114.3,114.3,0,0,1-30.428-2.288,7.519,7.519,0,0,1-4.27-1.941c-1.6-1.8-1.119-4.84.607-6.524a8.442,8.442,0,0,1,6.728-1.954c1.537.15,3.113.563,4.6.135,1.853-.535,3.081-2.23,4.323-3.706s2.925-2.934,4.84-2.7c1.435.173,2.566,1.253,3.843,1.93s3.132.748,3.864-.5c1.567-2.666-.632-9.977,7.439-9.977,11.65,0,9.747,7.359,11.149,8.92,2.126,2.367,5.911,1.846,8.99,1.045s6.746-1.561,9.122.555c2.06,1.835,2.272,5.2,4.463,6.878,2.332,1.786,5.644.833,8.469.031s6.468-1.1,8.108,1.34c1.375,2.043.35,5.009-1.605,6.506s-4.534,1.863-6.991,2.011C2082.312,1112.353,2067.824,1110.849,2055.023,1111.625Z" transform="translate(-1799.775 -945.999)" fill="#b5fcf0"/>
      <g id="Grupo_23417" data-name="Grupo 23417" transform="translate(146.709 1.572)">
        <path id="Trazado_4892" data-name="Trazado 4892" d="M1570.2,210.377c13.062-7.138,18.159,4.314,17.026,9.972-1.467,7.328-13.9,8.074-14.913,12.956-.679,3.259-1.372,7.063-1.372,7.063" transform="translate(-1563.374 -208.104)" fill="none" stroke="#5dc2ae" stroke-linecap="round" stroke-linejoin="round" stroke-width="7"/>
        <path id="Trazado_4896" data-name="Trazado 4896" d="M4.111,0A4.111,4.111,0,1,1,0,4.111,4.111,4.111,0,0,1,4.111,0Z" transform="translate(0 50.89) rotate(-82.371)" fill="#5dc2ae" stroke="#5dc2ae" stroke-width="1"/>
      </g>
      <g id="Grupo_23418" data-name="Grupo 23418" transform="translate(89.661)">
        <path id="Trazado_4893" data-name="Trazado 4893" d="M1154.457,205.928c7.356-5.021,11.067,1.5,10.726,4.932-.441,4.45-7.8,5.628-8.115,8.595-.212,1.98-.4,4.287-.4,4.287" transform="translate(-1151.998 -204.094)" fill="none" stroke="#5dc2ae" stroke-linecap="round" stroke-linejoin="round" stroke-width="5"/>
        <path id="Trazado_4894" data-name="Trazado 4894" d="M1153.476,359.721a2.46,2.46,0,1,1-2.221-2.677A2.459,2.459,0,0,1,1153.476,359.721Z" transform="translate(-1148.567 -327.405)" fill="#5dc2ae" stroke="#5dc2ae" stroke-width="1"/>
      </g>
      <g id="Grupo_23419" data-name="Grupo 23419" transform="translate(163.552 32.582)">
        <path id="Trazado_4895" data-name="Trazado 4895" d="M1683.4,417.122c9.363-4.172,12.223,3.972,11.131,7.793-1.415,4.948-9.987,4.768-10.958,8.062-.648,2.2-1.335,4.772-1.335,4.772" transform="translate(-1674.529 -415.963)" fill="none" stroke="#5dc2ae" stroke-linecap="round" stroke-linejoin="round" stroke-width="5"/>
        <path id="Trazado_4897" data-name="Trazado 4897" d="M2.831,0A2.831,2.831,0,1,1,0,2.831,2.831,2.831,0,0,1,2.831,0Z" transform="translate(0 32.792) rotate(-29.389)" fill="#5dc2ae" stroke="#5dc2ae" stroke-width="1"/>
      </g>
    </g>
    <path id="Trazado_4898" data-name="Trazado 4898" d="M-12343.09-10074.572h383.532" transform="translate(13071 11645.233)" fill="none" stroke="#5dc2ae" stroke-width="1"/>
  </g>
</svg>
