<svg xmlns="http://www.w3.org/2000/svg" width="412.698" height="412.698" viewBox="0 0 412.698 412.698">
  <g id="Grupo_23434" data-name="Grupo 23434" transform="translate(-281.057 -755.697)">
    <g id="Grupo_23381" data-name="Grupo 23381" transform="translate(-336.979 568.938)">
      <path id="Trazado_4700" data-name="Trazado 4700" d="M980.577,756.079l.3.3.361-.361C981.023,756.043,980.8,756.061,980.577,756.079Z" transform="translate(-144.28 -226.548)" fill="#ccc"/>
      <path id="Trazado_4701" data-name="Trazado 4701" d="M725.439,574.279l-34.791-3.721a11.318,11.318,0,0,0-12.456,10.048L674.2,617.992l-.3,2.811a206.74,206.74,0,0,1-52.449-178.755l3.7-3.7,32.859-32.865a4.578,4.578,0,0,1,6.478,0l30.174,30.174a137.125,137.125,0,0,0,30.776,138.624Z" transform="translate(0 -86.51)" fill="#5ec6d3"/>
      <path id="Trazado_4702" data-name="Trazado 4702" d="M934.614,788.476a206.621,206.621,0,0,1-213.637-47.007l4.883-45.724a4.578,4.578,0,0,1,5.039-4.064l43.4,4.636.006.006a136.424,136.424,0,0,0,91.045,34.653q6.023,0,11.914-.512l.3.3.361-.361a136.165,136.165,0,0,0,32.684-7.092l-15.43,35.905a11.317,11.317,0,0,0,5.93,14.864Z" transform="translate(-40.967 -200.932)" fill="#546e7b"/>
      <path id="Trazado_4703" data-name="Trazado 4703" d="M1176.9,631.833a207,207,0,0,1-114.259,116.644l-39.867-17.128a4.582,4.582,0,0,1-2.4-6.014l18.037-41.992a137.3,137.3,0,0,0,76.205-83.514l10.548,35.279a11.705,11.705,0,0,0,14.557,7.85Z" transform="translate(-159.971 -164.389)" fill="#8cc73f"/>
      <path id="Trazado_4704" data-name="Trazado 4704" d="M1243.127,452.948a206.115,206.115,0,0,1-10.849,66.193l-42.124,12.6a4.731,4.731,0,0,1-5.894-3.179l-13.756-46v-.006a138.392,138.392,0,0,0,1.4-51.913c-.12-.741-.253-1.481-.385-2.215a136.073,136.073,0,0,0-19.795-49.932l34.31,4.485a12.007,12.007,0,0,0,12.992-9.012l8.013-34.532.536-2.306A205.37,205.37,0,0,1,1243.127,452.948Z" transform="translate(-212.392 -59.843)" fill="#f88423"/>
      <path id="Trazado_4705" data-name="Trazado 4705" d="M1108.344,270.4l-.048.211-9.9,42.69a4.874,4.874,0,0,1-5.262,3.648l-40.613-5.31a137.125,137.125,0,0,0-129.81-54.056l22.474-22.468a11.33,11.33,0,0,0,0-16.008l-26.592-26.58-3.913-3.913A206.641,206.641,0,0,1,1108.344,270.4Z" transform="translate(-118.053 0)" fill="#f26d65"/>
      <path id="Trazado_4706" data-name="Trazado 4706" d="M827.691,229.183a4.55,4.55,0,0,1-1.343,3.233L796.9,261.873a137.2,137.2,0,0,0-95.675,82.382l-27.982-27.982a11.322,11.322,0,0,0-16,0l-26.58,26.592-2.6,2.6A206.591,206.591,0,0,1,792.363,191.959l1.12,1.12,32.865,32.859A4.589,4.589,0,0,1,827.691,229.183Z" transform="translate(-3.988 -2.069)" fill="#29abe2"/>
      <path id="Trazado_4707" data-name="Trazado 4707" d="M1078.01,519.962A128.088,128.088,0,0,1,961.5,647.526l-25.905-25.905a7.093,7.093,0,0,1,0-10.03l22.961-22.967a69.266,69.266,0,0,0,59.758-79.378l18.494,18.494a12.877,12.877,0,0,0,18.181,0l22.215-22.221A128.518,128.518,0,0,1,1078.01,519.962Z" transform="translate(-125.551 -126.857)" fill="#1b1464"/>
      <path id="Trazado_4708" data-name="Trazado 4708" d="M879.643,628.975c-1.168.03-2.342.048-3.516.048a128.073,128.073,0,0,1-128.07-128.076q0-6.4.62-12.649l29.355-29.361a4.091,4.091,0,0,1,5.786,0L809,484.12a69.231,69.231,0,0,0,66.711,86.012L857.53,588.32a13.11,13.11,0,0,0,0,18.543Z" transform="translate(-51.744 -107.842)" fill="#932790"/>
      <path id="Trazado_4709" data-name="Trazado 4709" d="M1003.642,422.953l-25.412,25.418a6.853,6.853,0,0,1-9.669,0l-25.49-25.49a69.223,69.223,0,0,0-130.785-1.391l-22.907-22.907a10.108,10.108,0,0,0-14.3,0l-23.744,23.75a128.1,128.1,0,0,1,252.305.62Z" transform="translate(-53.049 -51.744)" fill="#662d91"/>
      <path id="Trazado_4710" data-name="Trazado 4710" d="M981.239,756.019l-.361.361-.3-.3C980.8,756.061,981.023,756.043,981.239,756.019Z" transform="translate(-144.28 -226.548)" fill="#fff"/>
      <g id="Grupo_23372" data-name="Grupo 23372" transform="translate(836.025 422.048)">
        <path id="Trazado_4711" data-name="Trazado 4711" d="M991.888,682.57a5.125,5.125,0,0,1-1.087,3.77,5.719,5.719,0,0,1-3.639,1.882,5.538,5.538,0,0,1-3.081-.314,5.294,5.294,0,0,1-2.337-1.938,8.27,8.27,0,0,1-1.275-3.282l-.213-1.31a8.315,8.315,0,0,1,.134-3.61,5.369,5.369,0,0,1,1.638-2.659,5.716,5.716,0,0,1,2.905-1.313,5.5,5.5,0,0,1,3.942.65,5.32,5.32,0,0,1,2.225,3.291l-2.427.395a3.508,3.508,0,0,0-1.236-2.038,2.958,2.958,0,0,0-2.185-.332A2.884,2.884,0,0,0,983,677.319a5.884,5.884,0,0,0-.317,3.549l.2,1.244a6.24,6.24,0,0,0,1.377,3.338,2.739,2.739,0,0,0,2.578.808,3.191,3.191,0,0,0,2.052-1,3.409,3.409,0,0,0,.567-2.3Z" transform="translate(-980.124 -615.833)" fill="#fff"/>
        <path id="Trazado_4712" data-name="Trazado 4712" d="M1000.669,682.327a6.248,6.248,0,0,1-.2-2.855,4.487,4.487,0,0,1,1.12-2.321,4.865,4.865,0,0,1,2.264-1.362,4.61,4.61,0,0,1,3.716.346,5.406,5.406,0,0,1,2.408,3.1l.166.531a6.276,6.276,0,0,1,.209,2.847,4.438,4.438,0,0,1-1.112,2.308,4.9,4.9,0,0,1-2.288,1.373,4.581,4.581,0,0,1-3.851-.421,5.7,5.7,0,0,1-2.4-3.429Zm2.333-.471a4.256,4.256,0,0,0,1.364,2.259,2.187,2.187,0,0,0,2.057.358,2.16,2.16,0,0,0,1.529-1.424,4.688,4.688,0,0,0-.129-2.819,4.19,4.19,0,0,0-1.374-2.24,2.319,2.319,0,0,0-3.567,1.03A4.613,4.613,0,0,0,1003,681.856Z" transform="translate(-988.189 -616.574)" fill="#fff"/>
        <path id="Trazado_4713" data-name="Trazado 4713" d="M1016.981,669.452l.524.972a3.8,3.8,0,0,1,2.221-2.454,2.916,2.916,0,0,1,3.309.256,3.745,3.745,0,0,1,2.263-2.828,3.291,3.291,0,0,1,2.766-.213,4.254,4.254,0,0,1,1.986,2.221l2.907,6.3-2.152.994-2.878-6.237a2.1,2.1,0,0,0-1.016-1.154,1.924,1.924,0,0,0-1.516.184,1.98,1.98,0,0,0-1.019.949,2.291,2.291,0,0,0-.175,1.332l3.043,6.57-2.153.993-2.911-6.308a1.692,1.692,0,0,0-2.509-.895,2.086,2.086,0,0,0-1.347,1.9l3.206,6.946-2.153.994-4.424-9.586Z" transform="translate(-993.985 -612.362)" fill="#fff"/>
        <path id="Trazado_4714" data-name="Trazado 4714" d="M1049.331,659.544a6.28,6.28,0,0,1,1.208,3.879,3.862,3.862,0,0,1-4.653,3.421l2.74,4.19-1.984,1.3-8-12.232,1.829-1.2.669.845a3.483,3.483,0,0,1,1.682-2.616,3.6,3.6,0,0,1,3.323-.454,6.458,6.458,0,0,1,3.106,2.743Zm-2.088,1.12a4.4,4.4,0,0,0-1.9-1.754,2.044,2.044,0,0,0-2.014.21,2.184,2.184,0,0,0-1.092,2.147l2.563,3.92a2.2,2.2,0,0,0,2.437-.125,2.045,2.045,0,0,0,.983-1.733A4.85,4.85,0,0,0,1047.244,660.665Z" transform="translate(-1003.413 -608.974)" fill="#fff"/>
        <path id="Trazado_4715" data-name="Trazado 4715" d="M1064.066,655.846a4.906,4.906,0,0,1-3.721,1.236,5.151,5.151,0,0,1-3.49-2.02l-.186-.226a6.317,6.317,0,0,1-1.331-2.565,4.636,4.636,0,0,1,.084-2.584,4.535,4.535,0,0,1,1.452-2.1,4.144,4.144,0,0,1,3.445-1.064,5.81,5.81,0,0,1,3.388,2.25l.611.737-5.315,4.4a3.173,3.173,0,0,0,1.992,1.037,2.625,2.625,0,0,0,1.97-.642,3.213,3.213,0,0,0,1.2-2.707l1.762.125a4.266,4.266,0,0,1-.369,2.211A5.293,5.293,0,0,1,1064.066,655.846Zm-5.985-6.788a2,2,0,0,0-.778,1.53,3.55,3.55,0,0,0,.622,1.955l3.481-2.881-.112-.135a2.89,2.89,0,0,0-1.637-.983A1.981,1.981,0,0,0,1058.082,649.058Z" transform="translate(-1010 -604.997)" fill="#fff"/>
        <path id="Trazado_4716" data-name="Trazado 4716" d="M1064.367,636.139l1.8,1.827,1.327-1.309,1.233,1.25-1.327,1.309,4.139,4.195a1.3,1.3,0,0,0,.783.454,1.107,1.107,0,0,0,.8-.409,3.633,3.633,0,0,0,.522-.651l1.288,1.306a5.873,5.873,0,0,1-.953,1.256q-1.946,1.919-4.063-.228l-4.2-4.257-1.237,1.22-1.234-1.251,1.237-1.22-1.8-1.827Z" transform="translate(-1012.979 -600.888)" fill="#fff"/>
        <path id="Trazado_4717" data-name="Trazado 4717" d="M1084.032,636.012a4.9,4.9,0,0,1-3.45,1.863,5.148,5.148,0,0,1-3.787-1.385l-.222-.188a6.336,6.336,0,0,1-1.756-2.3,4.643,4.643,0,0,1-.365-2.559,4.522,4.522,0,0,1,1.066-2.321,4.146,4.146,0,0,1,3.208-1.647,5.821,5.821,0,0,1,3.726,1.628l.728.62-4.471,5.253a3.174,3.174,0,0,0,2.141.676,2.623,2.623,0,0,0,1.828-.975,3.211,3.211,0,0,0,.718-2.874l1.757-.184a4.275,4.275,0,0,1,.022,2.242A5.3,5.3,0,0,1,1084.032,636.012Zm-7.072-5.647a2,2,0,0,0-.5,1.644,3.545,3.545,0,0,0,.952,1.816l2.929-3.44-.134-.114a2.89,2.89,0,0,0-1.782-.685A1.989,1.989,0,0,0,1076.96,630.365Z" transform="translate(-1017.645 -597.441)" fill="#fff"/>
        <path id="Trazado_4718" data-name="Trazado 4718" d="M1083.227,617.954l1.049.626a3.8,3.8,0,0,1,.549-3.338q1.846-2.733,5.007-.667l5.781,3.906-1.328,1.965-5.668-3.83a2.176,2.176,0,0,0-1.476-.474,1.832,1.832,0,0,0-1.195.906,2.285,2.285,0,0,0-.122,2.5l6.226,4.206-1.328,1.965-8.748-5.911Z" transform="translate(-1020.658 -591.952)" fill="#fff"/>
        <path id="Trazado_4719" data-name="Trazado 4719" d="M1101.827,606.073a2.144,2.144,0,0,0,.227-1.545,1.765,1.765,0,0,0-.84-1.147l1.039-1.979a3.487,3.487,0,0,1,1.343,1.4,4.03,4.03,0,0,1,.471,2.011,4.664,4.664,0,0,1-.549,2.114,4.5,4.5,0,0,1-2.9,2.443,5.689,5.689,0,0,1-4.111-.694l-.216-.114a5.6,5.6,0,0,1-2.818-2.936,4.461,4.461,0,0,1,.352-3.783,4.335,4.335,0,0,1,2.4-2.206,3.929,3.929,0,0,1,3.131.24l-1.039,1.978a2.166,2.166,0,0,0-1.609-.145,1.987,1.987,0,0,0-1.206,1.036,2.086,2.086,0,0,0-.088,1.96,4.257,4.257,0,0,0,1.947,1.739l.337.177a4.328,4.328,0,0,0,2.555.642A2.085,2.085,0,0,0,1101.827,606.073Z" transform="translate(-1025.123 -586.274)" fill="#fff"/>
        <path id="Trazado_4720" data-name="Trazado 4720" d="M1093.625,592.236a1.256,1.256,0,0,1-.7-.675,1.311,1.311,0,0,1,.057-1.053,1.329,1.329,0,0,1,.724-.773,1.248,1.248,0,0,1,.973.034,1.219,1.219,0,0,1,.682.674,1.561,1.561,0,0,1-.78,1.826A1.229,1.229,0,0,1,1093.625,592.236Zm13.218,2.913-.932,2.18-9.707-4.149.932-2.18Z" transform="translate(-1024.982 -582.387)" fill="#fff"/>
        <path id="Trazado_4721" data-name="Trazado 4721" d="M1113.757,581.987a1.539,1.539,0,1,0-.78,2.95,3.724,3.724,0,0,1-1.683,2.173,2.9,2.9,0,0,1-2.447.243,3,3,0,0,1-2.059-2.01,6.08,6.08,0,0,1,.281-3.687l.461-1.379-.657-.22a1.846,1.846,0,0,0-1.39.02,1.817,1.817,0,0,0-.911,1.166,2.1,2.1,0,0,0-.036,1.387,1.252,1.252,0,0,0,.813.816l-.751,2.25a2.636,2.636,0,0,1-1.359-1.061,3.837,3.837,0,0,1-.628-1.861,5.513,5.513,0,0,1,.293-2.232,4.431,4.431,0,0,1,1.821-2.509,3.321,3.321,0,0,1,2.843-.243l4.517,1.509a5.392,5.392,0,0,0,2.283.341l.157.052Zm-2.446,1.93a2.7,2.7,0,0,0,.1-1.362,2.279,2.279,0,0,0-.575-1.175l-1.887-.63-.4,1.212a3.491,3.491,0,0,0-.193,2.024,1.488,1.488,0,0,0,1.02,1.041,1.384,1.384,0,0,0,1.176-.085A1.755,1.755,0,0,0,1111.311,583.917Z" transform="translate(-1028.862 -577.585)" fill="#fff"/>
      </g>
      <g id="Grupo_23373" data-name="Grupo 23373" transform="translate(784.823 288.962)">
        <path id="Trazado_4722" data-name="Trazado 4722" d="M898.143,360.7l7.034,9.266.812-11.6,3.058-.91,4.053,13.616-2.356.7-1.336-4.489-1.554-6.073-.9,11.69-1.692.5-7.133-9.289,2.019,5.925,1.336,4.489-2.356.7-4.054-13.617Z" transform="translate(-895.076 -356.892)" fill="#fff"/>
        <path id="Trazado_4723" data-name="Trazado 4723" d="M933.944,371.2a4.9,4.9,0,0,1-3.83-.834,5.149,5.149,0,0,1-1.972-3.517l-.046-.289a6.346,6.346,0,0,1,.164-2.886,4.635,4.635,0,0,1,1.39-2.179,4.53,4.53,0,0,1,2.322-1.067,4.145,4.145,0,0,1,3.505.84,5.821,5.821,0,0,1,1.767,3.663l.149.944-6.816,1.073a3.173,3.173,0,0,0,1.185,1.908,2.624,2.624,0,0,0,2.022.452,3.211,3.211,0,0,0,2.417-1.715l1.453,1.006a4.274,4.274,0,0,1-1.445,1.714A5.29,5.29,0,0,1,933.944,371.2Zm-1.686-8.891a2,2,0,0,0-1.45.92,3.538,3.538,0,0,0-.461,2l4.463-.7-.028-.173a2.874,2.874,0,0,0-.907-1.68A1.981,1.981,0,0,0,932.258,362.306Z" transform="translate(-908.181 -358.046)" fill="#fff"/>
        <path id="Trazado_4724" data-name="Trazado 4724" d="M952.672,360.635a5.9,5.9,0,0,0-.969-.008,2.176,2.176,0,0,0-2.1,1.4l.52,7.2-2.364.172L947,358.873l2.258-.163.143,1.173a2.673,2.673,0,0,1,2.276-1.544,2.235,2.235,0,0,1,.847.076Z" transform="translate(-915.739 -357.242)" fill="#fff"/>
        <path id="Trazado_4725" data-name="Trazado 4725" d="M964.15,367.185a2.142,2.142,0,0,0,1.479-.5,1.769,1.769,0,0,0,.636-1.272l2.234.021a3.494,3.494,0,0,1-.632,1.834,4.04,4.04,0,0,1-1.574,1.337,4.652,4.652,0,0,1-2.132.478,4.5,4.5,0,0,1-3.5-1.467,5.69,5.69,0,0,1-1.261-3.973l0-.244a5.6,5.6,0,0,1,1.323-3.847,4.464,4.464,0,0,1,3.527-1.417,4.338,4.338,0,0,1,3.058,1.126,3.931,3.931,0,0,1,1.217,2.9l-2.234-.021a2.179,2.179,0,0,0-.606-1.5,1.993,1.993,0,0,0-1.473-.6,2.082,2.082,0,0,0-1.783.817,4.253,4.253,0,0,0-.658,2.526l0,.381a4.326,4.326,0,0,0,.6,2.566A2.082,2.082,0,0,0,964.15,367.185Z" transform="translate(-920.675 -357.162)" fill="#fff"/>
        <path id="Trazado_4726" data-name="Trazado 4726" d="M984.209,370.217a3.622,3.622,0,0,1-.162-1.01,3.989,3.989,0,0,1-5.365-.319,2.9,2.9,0,0,1-.752-2.341,3,3,0,0,1,1.532-2.437,6.078,6.078,0,0,1,3.663-.5l1.446.16.076-.688a1.856,1.856,0,0,0-.311-1.355,1.821,1.821,0,0,0-1.333-.644,2.1,2.1,0,0,0-1.364.256,1.253,1.253,0,0,0-.627.966l-2.356-.261a2.631,2.631,0,0,1,.751-1.551,3.833,3.833,0,0,1,1.686-1.006,5.509,5.509,0,0,1,2.244-.184,4.436,4.436,0,0,1,2.836,1.252,3.324,3.324,0,0,1,.836,2.728l-.524,4.733a5.389,5.389,0,0,0,.147,2.3l-.018.165Zm-2.4-1.984a2.691,2.691,0,0,0,1.352-.194,2.277,2.277,0,0,0,1.027-.809l.219-1.978-1.27-.141a3.492,3.492,0,0,0-2.019.238,1.483,1.483,0,0,0-.8,1.216,1.385,1.385,0,0,0,.332,1.131A1.755,1.755,0,0,0,981.808,368.233Z" transform="translate(-928.041 -357.612)" fill="#fff"/>
        <path id="Trazado_4727" data-name="Trazado 4727" d="M997.375,364.464a6.283,6.283,0,0,1,1.942-3.586,3.625,3.625,0,0,1,3.28-.8,3.449,3.449,0,0,1,2.4,1.722l1.152-5.282,2.315.506-3.2,14.643-2.1-.458.12-1.093a3.5,3.5,0,0,1-3.049.653,3.609,3.609,0,0,1-2.613-2.1A6.51,6.51,0,0,1,997.375,364.464Zm2.273.706a4.4,4.4,0,0,0,.069,2.586,2.012,2.012,0,0,0,1.529,1.258,2.24,2.24,0,0,0,2.355-.815l.961-4.4a2.206,2.206,0,0,0-1.789-1.689,2.026,2.026,0,0,0-1.93.512A4.891,4.891,0,0,0,999.648,365.17Z" transform="translate(-935.7 -356.522)" fill="#fff"/>
        <path id="Trazado_4728" data-name="Trazado 4728" d="M1017,371.68a6.224,6.224,0,0,1,1.466-2.459,4.5,4.5,0,0,1,2.242-1.27,4.868,4.868,0,0,1,2.637.173,4.61,4.61,0,0,1,2.857,2.4,5.409,5.409,0,0,1,.214,3.917l-.166.531a6.26,6.26,0,0,1-1.451,2.458,4.43,4.43,0,0,1-2.23,1.264,4.9,4.9,0,0,1-2.661-.176,4.58,4.58,0,0,1-2.923-2.541,5.693,5.693,0,0,1-.021-4.187Zm2.186.943a4.244,4.244,0,0,0-.167,2.634,2.348,2.348,0,0,0,3.555,1.167,4.708,4.708,0,0,0,1.5-2.391,4.2,4.2,0,0,0,.148-2.624,2.318,2.318,0,0,0-3.518-1.186A4.6,4.6,0,0,0,1019.19,372.623Z" transform="translate(-943.431 -361.028)" fill="#fff"/>
      </g>
      <g id="Grupo_23374" data-name="Grupo 23374" transform="translate(683.114 226.589)">
        <path id="Trazado_4729" data-name="Trazado 4729" d="M737.628,343.735l-3.63,4.7,3.518,2.719,4.243-5.489,1.587,1.227-5.779,7.475-11.434-8.837,5.736-7.422,1.6,1.238-4.2,5.435,3.157,2.44,3.63-4.7Z" transform="translate(-726.133 -286.82)" fill="#fff"/>
        <path id="Trazado_4730" data-name="Trazado 4730" d="M754.043,337.862a2.18,2.18,0,0,0,.6-1.47,1.8,1.8,0,0,0-.551-1.338l1.508-1.7a3.543,3.543,0,0,1,.985,1.709,4.108,4.108,0,0,1-.025,2.1,4.726,4.726,0,0,1-1.057,1.955,4.579,4.579,0,0,1-3.463,1.706,5.789,5.789,0,0,1-3.891-1.687l-.185-.165a5.684,5.684,0,0,1-2.067-3.585,4.537,4.537,0,0,1,1.268-3.651,4.414,4.414,0,0,1,2.907-1.594,4,4,0,0,1,3.034,1l-1.508,1.7a2.206,2.206,0,0,0-1.554-.536,2.029,2.029,0,0,0-1.444.729,2.123,2.123,0,0,0-.563,1.915,4.324,4.324,0,0,0,1.5,2.191l.29.257a4.4,4.4,0,0,0,2.368,1.258A2.121,2.121,0,0,0,754.043,337.862Z" transform="translate(-733.986 -283.643)" fill="#fff"/>
        <path id="Trazado_4731" data-name="Trazado 4731" d="M760.739,325.107a6.329,6.329,0,0,1-1.545-2.467,4.565,4.565,0,0,1-.108-2.619,4.955,4.955,0,0,1,1.38-2.307,4.693,4.693,0,0,1,3.5-1.473,5.511,5.511,0,0,1,3.645,1.625l.4.4a6.4,6.4,0,0,1,1.552,2.454,4.516,4.516,0,0,1,.109,2.6,4.986,4.986,0,0,1-1.4,2.328,4.653,4.653,0,0,1-3.656,1.467,5.794,5.794,0,0,1-3.8-1.924Zm1.867-1.54a4.332,4.332,0,0,0,2.307,1.373,2.227,2.227,0,0,0,2.017-.665,2.2,2.2,0,0,0,.689-2.011,4.787,4.787,0,0,0-1.468-2.468,4.278,4.278,0,0,0-2.307-1.352,2.237,2.237,0,0,0-2.024.651,2.213,2.213,0,0,0-.682,1.984A4.687,4.687,0,0,0,762.605,323.567Z" transform="translate(-739.19 -278.118)" fill="#fff"/>
        <path id="Trazado_4732" data-name="Trazado 4732" d="M773.094,305.214l.856.9a3.866,3.866,0,0,1,1.451-3.122q2.557-2.172,5.089.717l4.6,5.409-1.838,1.561-4.505-5.3a2.218,2.218,0,0,0-1.317-.867,1.858,1.858,0,0,0-1.419.561,2.322,2.322,0,0,0-.8,2.413l4.949,5.825-1.839,1.561-6.954-8.183Z" transform="translate(-744.132 -272.476)" fill="#fff"/>
        <path id="Trazado_4733" data-name="Trazado 4733" d="M790.869,295.617a6.327,6.327,0,0,1-1.176-2.663,4.565,4.565,0,0,1,.267-2.607,4.946,4.946,0,0,1,1.7-2.086,4.692,4.692,0,0,1,3.672-.958,5.509,5.509,0,0,1,3.376,2.128l.343.45a6.4,6.4,0,0,1,1.186,2.65,4.522,4.522,0,0,1-.264,2.594,5,5,0,0,1-1.713,2.1,4.657,4.657,0,0,1-3.829.93,5.8,5.8,0,0,1-3.486-2.447Zm-1.225-11.224,2.217-1.625-.439,4.051-1.563,1.14Zm3.294,9.965a4.324,4.324,0,0,0,2.087,1.689,2.224,2.224,0,0,0,2.091-.371,2.2,2.2,0,0,0,.969-1.892,4.773,4.773,0,0,0-1.1-2.651,4.266,4.266,0,0,0-2.09-1.667,2.358,2.358,0,0,0-3.055,2.221A4.683,4.683,0,0,0,792.938,294.359Z" transform="translate(-751.396 -264.798)" fill="#fff"/>
        <path id="Trazado_4734" data-name="Trazado 4734" d="M806.335,278.337l.637.926a3.865,3.865,0,0,1,1.974-2.727,2.967,2.967,0,0,1,3.376-.106,3.808,3.808,0,0,1,1.976-3.109,3.347,3.347,0,0,1,2.774-.52,4.326,4.326,0,0,1,2.254,2.027l3.634,6.049-2.067,1.242-3.6-5.99a2.137,2.137,0,0,0-1.155-1.055,1.958,1.958,0,0,0-1.513.353,2.013,2.013,0,0,0-.926,1.071,2.334,2.334,0,0,0-.029,1.367l3.8,6.307-2.067,1.243-3.639-6.058a1.722,1.722,0,0,0-2.636-.629,2.124,2.124,0,0,0-1.152,2.071l4.007,6.67-2.067,1.242-5.531-9.206Z" transform="translate(-757.276 -260.784)" fill="#fff"/>
        <path id="Trazado_4735" data-name="Trazado 4735" d="M829.087,263.106a1.278,1.278,0,0,1-.1-.983,1.332,1.332,0,0,1,.732-.784,1.346,1.346,0,0,1,1.07-.13,1.267,1.267,0,0,1,.736.662,1.239,1.239,0,0,1,.093.971,1.358,1.358,0,0,1-.739.781,1.344,1.344,0,0,1-1.063.132A1.251,1.251,0,0,1,829.087,263.106Zm8.406,10.905-2.15,1.091-4.861-9.577,2.15-1.091Z" transform="translate(-767.043 -256.194)" fill="#fff"/>
        <path id="Trazado_4736" data-name="Trazado 4736" d="M848.451,268.918a2.178,2.178,0,0,0,1.153-1.092,1.793,1.793,0,0,0,.049-1.445l2.075-.928a3.532,3.532,0,0,1,.193,1.963,4.094,4.094,0,0,1-.889,1.9,4.715,4.715,0,0,1-1.768,1.346,4.578,4.578,0,0,1-3.858.126,5.785,5.785,0,0,1-2.849-3.14l-.1-.226a5.694,5.694,0,0,1-.406-4.119,4.538,4.538,0,0,1,2.661-2.8,4.41,4.41,0,0,1,3.305-.255,4,4,0,0,1,2.353,2.161l-2.076.927a2.205,2.205,0,0,0-1.194-1.129,2.033,2.033,0,0,0-1.617.07,2.126,2.126,0,0,0-1.3,1.512,4.328,4.328,0,0,0,.463,2.615l.158.353a4.406,4.406,0,0,0,1.638,2.122A2.124,2.124,0,0,0,848.451,268.918Z" transform="translate(-772.176 -255.751)" fill="#fff"/>
        <path id="Trazado_4737" data-name="Trazado 4737" d="M859.714,260.122a6.335,6.335,0,0,1-.394-2.884,4.567,4.567,0,0,1,.978-2.432,4.936,4.936,0,0,1,2.206-1.536,4.7,4.7,0,0,1,3.8.1,5.506,5.506,0,0,1,2.654,2.98l.2.527a6.384,6.384,0,0,1,.405,2.875,4.508,4.508,0,0,1-.972,2.418,4.985,4.985,0,0,1-2.229,1.549,4.659,4.659,0,0,1-3.937-.167,5.8,5.8,0,0,1-2.672-3.317Zm2.336-.636a4.322,4.322,0,0,0,1.538,2.2,2.227,2.227,0,0,0,2.112.224,2.2,2.2,0,0,0,1.456-1.55,4.771,4.771,0,0,0-.324-2.852,4.264,4.264,0,0,0-1.546-2.181,2.234,2.234,0,0,0-2.113-.24,2.211,2.211,0,0,0-1.436,1.527A4.682,4.682,0,0,0,862.05,259.486Z" transform="translate(-779.125 -252.919)" fill="#fff"/>
      </g>
      <g id="Grupo_23375" data-name="Grupo 23375" transform="translate(978.739 341.813)">
        <path id="Trazado_4738" data-name="Trazado 4738" d="M1222.667,596.445l-1.4,4.283,11.811,3.863-.774,2.367-11.811-3.863-1.389,4.245-1.924-.63,3.563-10.9Z" transform="translate(-1217.179 -504.605)" fill="#fff"/>
        <path id="Trazado_4739" data-name="Trazado 4739" d="M1241.139,590.589a4.989,4.989,0,0,1-2.306,3.253,5.237,5.237,0,0,1-4.078.444l-.289-.073a6.423,6.423,0,0,1-2.636-1.3,4.718,4.718,0,0,1-1.486-2.169,4.6,4.6,0,0,1-.074-2.6,4.215,4.215,0,0,1,2.184-2.946,5.911,5.911,0,0,1,4.132-.194l.944.237-1.71,6.805a3.221,3.221,0,0,0,2.258-.349,2.665,2.665,0,0,0,1.229-1.713,3.267,3.267,0,0,0-.642-2.945l1.52-.958a4.342,4.342,0,0,1,1.029,2.034A5.4,5.4,0,0,1,1241.139,590.589Zm-8.994-1.962a2.032,2.032,0,0,0,.284,1.724,3.606,3.606,0,0,0,1.687,1.227l1.12-4.457-.173-.043a2.935,2.935,0,0,0-1.934.179A2.018,2.018,0,0,0,1232.145,588.627Z" transform="translate(-1222.329 -500.195)" fill="#fff"/>
        <path id="Trazado_4740" data-name="Trazado 4740" d="M1242.857,573.172a2.181,2.181,0,0,0-.256-1.568,1.8,1.8,0,0,0-1.169-.853l.4-2.238a3.54,3.54,0,0,1,1.733.943,4.094,4.094,0,0,1,1.075,1.8,4.734,4.734,0,0,1,.12,2.22,4.58,4.58,0,0,1-2.061,3.263,5.791,5.791,0,0,1-4.2.6l-.244-.044a5.689,5.689,0,0,1-3.636-1.976,4.537,4.537,0,0,1-.827-3.775,4.412,4.412,0,0,1,1.645-2.878,4,4,0,0,1,3.109-.733l-.4,2.238a2.213,2.213,0,0,0-1.606.355,2.028,2.028,0,0,0-.849,1.377,2.12,2.12,0,0,0,.52,1.926,4.327,4.327,0,0,0,2.423,1.086l.381.067a4.4,4.4,0,0,0,2.675-.165A2.121,2.121,0,0,0,1242.857,573.172Z" transform="translate(-1223.752 -493.486)" fill="#fff"/>
        <path id="Trazado_4741" data-name="Trazado 4741" d="M1235.91,557.291l1.241.059a3.864,3.864,0,0,1-1.107-3.258q.348-3.338,4.175-3l7.058.735-.25,2.4-6.92-.72a2.21,2.21,0,0,0-1.551.283,1.854,1.854,0,0,0-.638,1.385,2.325,2.325,0,0,0,1.088,2.3l7.6.791-.25,2.4-10.682-1.113Z" transform="translate(-1224.54 -486.795)" fill="#fff"/>
        <path id="Trazado_4742" data-name="Trazado 4742" d="M1242.6,542.161a6.333,6.333,0,0,1-2.824-.707,4.562,4.562,0,0,1-1.895-1.812,4.95,4.95,0,0,1-.606-2.619,4.689,4.689,0,0,1,1.5-3.487,5.5,5.5,0,0,1,3.752-1.358l.565.006a6.393,6.393,0,0,1,2.82.692,4.51,4.51,0,0,1,1.885,1.8,4.992,4.992,0,0,1,.61,2.643,4.658,4.658,0,0,1-1.618,3.592,5.79,5.79,0,0,1-4.072,1.249Zm.277-2.406a4.318,4.318,0,0,0,2.614-.61,2.226,2.226,0,0,0,.992-1.877,2.2,2.2,0,0,0-.9-1.928,4.78,4.78,0,0,0-2.768-.759,4.266,4.266,0,0,0-2.6.625,2.359,2.359,0,0,0-.123,3.775A4.69,4.69,0,0,0,1242.877,539.755Z" transform="translate(-1225.176 -479.28)" fill="#fff"/>
        <path id="Trazado_4743" data-name="Trazado 4743" d="M1245.326,524.8l.064,2.412-15.241.4-.064-2.411Z" transform="translate(-1222.316 -476.341)" fill="#fff"/>
        <path id="Trazado_4744" data-name="Trazado 4744" d="M1229.228,510.5l-.225-2.741,3.221,2.5.153,1.93Zm10.2,4.831a6.334,6.334,0,0,1-2.885-.391,4.568,4.568,0,0,1-2.083-1.592,4.951,4.951,0,0,1-.889-2.536,4.687,4.687,0,0,1,1.107-3.631,5.5,5.5,0,0,1,3.58-1.762l.562-.056a6.387,6.387,0,0,1,2.88.377,4.509,4.509,0,0,1,2.071,1.583,5,5,0,0,1,.9,2.561,4.661,4.661,0,0,1-1.212,3.749,5.8,5.8,0,0,1-3.911,1.689Zm.011-2.421a4.333,4.333,0,0,0,2.531-.895,2.226,2.226,0,0,0,.78-1.975,2.2,2.2,0,0,0-1.105-1.818,4.783,4.783,0,0,0-2.835-.45,4.268,4.268,0,0,0-2.515.908,2.359,2.359,0,0,0,.293,3.765A4.69,4.69,0,0,0,1239.443,512.906Z" transform="translate(-1221.885 -468.595)" fill="#fff"/>
        <path id="Trazado_4745" data-name="Trazado 4745" d="M1240.328,496.642a6.284,6.284,0,0,1-4.131-.535,3.779,3.779,0,0,1-1.964-2.849,3.534,3.534,0,0,1,.812-3.053l-1.085.061-.342-2.147,10.283-1.632a4.328,4.328,0,0,1,3.5.775,5.006,5.006,0,0,1,1.762,3.313,5.709,5.709,0,0,1-.123,2.356,4.1,4.1,0,0,1-1,1.892l-1.61-.9a3.446,3.446,0,0,0,.875-2.913,2.664,2.664,0,0,0-.94-1.771,2.492,2.492,0,0,0-2-.386l-.716.113a3.552,3.552,0,0,1,1.583,2.563,3.766,3.766,0,0,1-1,3.279A6.484,6.484,0,0,1,1240.328,496.642Zm-.171-2.4a4.326,4.326,0,0,0,2.411-1.051,2.121,2.121,0,0,0,.63-1.954,2.32,2.32,0,0,0-1.575-1.941l-4.666.74a2.29,2.29,0,0,0-.869,2.309,2.13,2.13,0,0,0,1.221,1.68A4.848,4.848,0,0,0,1240.157,494.237Z" transform="translate(-1223.721 -461.066)" fill="#fff"/>
        <path id="Trazado_4746" data-name="Trazado 4746" d="M1227.316,483.615a1.281,1.281,0,0,1-.976-.15,1.332,1.332,0,0,1-.571-.908,1.347,1.347,0,0,1,.146-1.067,1.269,1.269,0,0,1,.827-.544,1.24,1.24,0,0,1,.963.158,1.361,1.361,0,0,1,.568.914,1.344,1.344,0,0,1-.142,1.061A1.253,1.253,0,0,1,1227.316,483.615ZM1240,478.264l.508,2.359-10.5,2.261-.507-2.359Z" transform="translate(-1220.58 -457.823)" fill="#fff"/>
        <path id="Trazado_4747" data-name="Trazado 4747" d="M1237.845,465.119a2.179,2.179,0,0,0-.9-1.31,1.8,1.8,0,0,0-1.42-.275l-.592-2.194a3.538,3.538,0,0,1,1.969.116,4.118,4.118,0,0,1,1.741,1.176,4.737,4.737,0,0,1,1.052,1.957,4.58,4.58,0,0,1-.479,3.83,5.789,5.789,0,0,1-3.547,2.325l-.239.064a5.7,5.7,0,0,1-4.132-.243,4.536,4.536,0,0,1-2.353-3.066,4.415,4.415,0,0,1,.265-3.305,4,4,0,0,1,2.5-1.985l.592,2.195a2.214,2.214,0,0,0-1.3,1,2.03,2.03,0,0,0-.184,1.607,2.125,2.125,0,0,0,1.291,1.524,4.325,4.325,0,0,0,2.654-.049l.373-.1a4.4,4.4,0,0,0,2.352-1.287A2.121,2.121,0,0,0,1237.845,465.119Z" transform="translate(-1221.783 -451.053)" fill="#fff"/>
        <path id="Trazado_4748" data-name="Trazado 4748" d="M1230.826,454.2a6.335,6.335,0,0,1-2.89.355,4.557,4.557,0,0,1-2.418-1.01,4.958,4.958,0,0,1-1.505-2.227,4.688,4.688,0,0,1,.147-3.793,5.5,5.5,0,0,1,3.014-2.615l.53-.2a6.392,6.392,0,0,1,2.881-.368,4.516,4.516,0,0,1,2.406,1,4.992,4.992,0,0,1,1.518,2.247,4.658,4.658,0,0,1-.219,3.935,5.8,5.8,0,0,1-3.351,2.628Zm-.6-2.344a4.33,4.33,0,0,0,2.22-1.509,2.223,2.223,0,0,0,.251-2.109,2.2,2.2,0,0,0-1.53-1.476,4.776,4.776,0,0,0-2.857.285,4.27,4.27,0,0,0-2.2,1.518,2.234,2.234,0,0,0-.267,2.11,2.211,2.211,0,0,0,1.508,1.457A4.684,4.684,0,0,0,1230.221,451.859Z" transform="translate(-1219.768 -444.311)" fill="#fff"/>
      </g>
      <g id="Grupo_23376" data-name="Grupo 23376" transform="translate(891.39 497.072)">
        <path id="Trazado_4749" data-name="Trazado 4749" d="M1083.245,782.977l-5.289,2.695,2.019,3.961,6.182-3.149.91,1.786-8.419,4.289-6.56-12.877,8.358-4.258.918,1.8-6.12,3.118,1.811,3.554,5.289-2.694Z" transform="translate(-1072.088 -731.344)" fill="#fff"/>
        <path id="Trazado_4750" data-name="Trazado 4750" d="M1099.384,783.453a2.181,2.181,0,0,0,1.013-1.224,1.8,1.8,0,0,0-.127-1.442l1.947-1.172a3.541,3.541,0,0,1,.43,1.925,4.1,4.1,0,0,1-.651,2,4.727,4.727,0,0,1-1.593,1.551,4.577,4.577,0,0,1-3.814.592,5.788,5.788,0,0,1-3.21-2.77l-.128-.213a5.687,5.687,0,0,1-.9-4.038,4.539,4.539,0,0,1,2.3-3.106,4.417,4.417,0,0,1,3.25-.655,4,4,0,0,1,2.6,1.86l-1.948,1.172a2.211,2.211,0,0,0-1.323-.975,2.024,2.024,0,0,0-1.595.266,2.118,2.118,0,0,0-1.11,1.657,4.332,4.332,0,0,0,.776,2.54l.2.332a4.4,4.4,0,0,0,1.884,1.907A2.124,2.124,0,0,0,1099.384,783.453Z" transform="translate(-1080.119 -731.1)" fill="#fff"/>
        <path id="Trazado_4751" data-name="Trazado 4751" d="M1107.719,773.7a6.319,6.319,0,0,1-1.129-2.683,4.564,4.564,0,0,1,.313-2.6,4.957,4.957,0,0,1,1.732-2.055,4.7,4.7,0,0,1,3.69-.892,5.511,5.511,0,0,1,3.337,2.188l.335.456a6.392,6.392,0,0,1,1.138,2.672,4.5,4.5,0,0,1-.311,2.589,4.993,4.993,0,0,1-1.748,2.073,4.666,4.666,0,0,1-3.845.862,5.8,5.8,0,0,1-3.442-2.509Zm2.09-1.22a4.336,4.336,0,0,0,2.057,1.725,2.225,2.225,0,0,0,2.1-.333,2.2,2.2,0,0,0,1-1.874,4.776,4.776,0,0,0-1.053-2.67,4.271,4.271,0,0,0-2.06-1.705,2.358,2.358,0,0,0-3.094,2.166A4.687,4.687,0,0,0,1109.81,772.481Z" transform="translate(-1085.793 -727.348)" fill="#fff"/>
        <path id="Trazado_4752" data-name="Trazado 4752" d="M1125.766,764.327l-1.89,1.5-9.466-11.95,1.891-1.5Z" transform="translate(-1088.931 -722.17)" fill="#fff"/>
        <path id="Trazado_4753" data-name="Trazado 4753" d="M1126.379,743.664l2.058-1.824-.064,4.074-1.452,1.281Zm2.255,11.063a6.337,6.337,0,0,1-1.417-2.544,4.555,4.555,0,0,1,.025-2.621,4.93,4.93,0,0,1,1.5-2.233,4.685,4.685,0,0,1,3.569-1.292,5.508,5.508,0,0,1,3.558,1.808l.382.417a6.4,6.4,0,0,1,1.426,2.529,4.512,4.512,0,0,1-.024,2.608,4.99,4.99,0,0,1-1.511,2.253,4.659,4.659,0,0,1-3.727,1.279,5.8,5.8,0,0,1-3.7-2.115Zm1.944-1.444a4.333,4.333,0,0,0,2.234,1.488,2.226,2.226,0,0,0,2.049-.562,2.2,2.2,0,0,0,.791-1.974,4.78,4.78,0,0,0-1.34-2.538,4.271,4.271,0,0,0-2.235-1.468,2.358,2.358,0,0,0-2.837,2.493A4.684,4.684,0,0,0,1130.578,753.283Z" transform="translate(-1093.694 -717.977)" fill="#fff"/>
        <path id="Trazado_4754" data-name="Trazado 4754" d="M1142.628,743.956a6.284,6.284,0,0,1-2.05-3.627,3.776,3.776,0,0,1,1.1-3.279,3.538,3.538,0,0,1,2.93-1.184l-.7-.83,1.513-1.561,7.475,7.247a4.33,4.33,0,0,1,1.48,3.267,5.011,5.011,0,0,1-1.593,3.4,5.712,5.712,0,0,1-1.959,1.315,4.1,4.1,0,0,1-2.115.335l-.246-1.828a3.444,3.444,0,0,0,2.855-1.047,2.665,2.665,0,0,0,.852-1.813,2.491,2.491,0,0,0-.888-1.83l-.52-.5a3.555,3.555,0,0,1-1.1,2.8,3.761,3.761,0,0,1-3.22,1.169A6.478,6.478,0,0,1,1142.628,743.956Zm1.821-1.58a4.315,4.315,0,0,0,2.288,1.3,2.124,2.124,0,0,0,1.941-.668,2.321,2.321,0,0,0,.608-2.425l-3.392-3.289a2.288,2.288,0,0,0-2.369.691,2.129,2.129,0,0,0-.611,1.985A4.84,4.84,0,0,0,1144.45,742.376Z" transform="translate(-1099.329 -714.648)" fill="#fff"/>
        <path id="Trazado_4755" data-name="Trazado 4755" d="M1146.85,726.445a1.279,1.279,0,0,1-.465-.871,1.332,1.332,0,0,1,.382-1,1.355,1.355,0,0,1,.942-.524,1.272,1.272,0,0,1,.931.336,1.243,1.243,0,0,1,.452.866,1.361,1.361,0,0,1-.39,1,1.338,1.338,0,0,1-.933.522A1.245,1.245,0,0,1,1146.85,726.445Zm11.9,6.934-1.581,1.821-8.111-7.04,1.582-1.822Z" transform="translate(-1101.654 -710.896)" fill="#fff"/>
        <path id="Trazado_4756" data-name="Trazado 4756" d="M1166.507,723.764a2.189,2.189,0,0,0,.508-1.506,1.8,1.8,0,0,0-.634-1.3l1.4-1.792a3.542,3.542,0,0,1,1.089,1.645,4.111,4.111,0,0,1,.107,2.1,4.729,4.729,0,0,1-.933,2.016,4.579,4.579,0,0,1-3.35,1.919,5.788,5.788,0,0,1-3.989-1.441l-.2-.152a5.691,5.691,0,0,1-2.287-3.45,4.536,4.536,0,0,1,1.037-3.723,4.412,4.412,0,0,1,2.8-1.773,4,4,0,0,1,3.09.808l-1.4,1.79a2.214,2.214,0,0,0-1.585-.437,2.027,2.027,0,0,0-1.395.819,2.12,2.12,0,0,0-.443,1.945,4.328,4.328,0,0,0,1.633,2.094l.305.238a4.406,4.406,0,0,0,2.441,1.107A2.118,2.118,0,0,0,1166.507,723.764Z" transform="translate(-1106.338 -707.795)" fill="#fff"/>
        <path id="Trazado_4757" data-name="Trazado 4757" d="M1170.837,711.616a6.323,6.323,0,0,1-2.014-2.1,4.567,4.567,0,0,1-.638-2.544,4.952,4.952,0,0,1,.883-2.539,4.688,4.688,0,0,1,3.127-2.152,5.505,5.505,0,0,1,3.9.851l.475.307a6.379,6.379,0,0,1,2.019,2.087,4.512,4.512,0,0,1,.634,2.528,4.973,4.973,0,0,1-.893,2.562,4.651,4.651,0,0,1-3.283,2.179,5.79,5.79,0,0,1-4.111-1.113Zm1.516-1.887a4.324,4.324,0,0,0,2.538.877,2.23,2.23,0,0,0,1.84-1.062,2.2,2.2,0,0,0,.267-2.109,4.78,4.78,0,0,0-1.939-2.117,4.265,4.265,0,0,0-2.533-.856,2.358,2.358,0,0,0-2.115,3.128A4.677,4.677,0,0,0,1172.353,709.728Z" transform="translate(-1110.329 -702.203)" fill="#fff"/>
      </g>
      <g id="Grupo_23377" data-name="Grupo 23377" transform="translate(743.019 535.811)">
        <path id="Trazado_4758" data-name="Trazado 4758" d="M828.828,778.461l5.584,3.443-1.052,1.707-7.722-4.763,7.584-12.3,2.138,1.317Z" transform="translate(-825.638 -766.549)" fill="#fff"/>
        <path id="Trazado_4759" data-name="Trazado 4759" d="M845.821,793.173a5,5,0,0,1-2.634-2.993,5.244,5.244,0,0,1,.508-4.071l.137-.264a6.447,6.447,0,0,1,1.876-2.265,4.725,4.725,0,0,1,2.453-.945,4.584,4.584,0,0,1,2.544.527,4.212,4.212,0,0,1,2.363,2.8,5.918,5.918,0,0,1-.762,4.066l-.448.861-6.228-3.232a3.231,3.231,0,0,0-.182,2.276,2.67,2.67,0,0,0,1.384,1.591,3.263,3.263,0,0,0,3.014.054l.582,1.7a4.35,4.35,0,0,1-2.217.533A5.4,5.4,0,0,1,845.821,793.173Zm3.984-8.3a2.028,2.028,0,0,0-1.743-.121,3.6,3.6,0,0,0-1.583,1.358l4.078,2.118.083-.159a2.933,2.933,0,0,0,.27-1.923A2.017,2.017,0,0,0,849.805,784.874Z" transform="translate(-832.539 -772.944)" fill="#fff"/>
        <path id="Trazado_4760" data-name="Trazado 4760" d="M858.19,793.471a6.277,6.277,0,0,1,2.672-3.194,3.777,3.777,0,0,1,3.459-.125,3.533,3.533,0,0,1,2.137,2.327l.532-.949,1.994.866-4.154,9.548a4.328,4.328,0,0,1-2.536,2.534,5.009,5.009,0,0,1-3.74-.3,5.716,5.716,0,0,1-1.921-1.371,4.093,4.093,0,0,1-1.057-1.862l1.624-.875a3.45,3.45,0,0,0,1.986,2.3,2.661,2.661,0,0,0,2,.161,2.493,2.493,0,0,0,1.4-1.476l.289-.665a3.55,3.55,0,0,1-3.011-.043,3.765,3.765,0,0,1-2.229-2.6A6.485,6.485,0,0,1,858.19,793.471Zm2.12,1.149a4.325,4.325,0,0,0-.411,2.6,2.126,2.126,0,0,0,1.309,1.582,2.325,2.325,0,0,0,2.483-.285l1.884-4.332a2.287,2.287,0,0,0-1.479-1.975,2.134,2.134,0,0,0-2.073.126A4.845,4.845,0,0,0,860.309,794.62Z" transform="translate(-837.552 -775.799)" fill="#fff"/>
        <path id="Trazado_4761" data-name="Trazado 4761" d="M880.94,807.975a3.681,3.681,0,0,1,.07-1.038,4.058,4.058,0,0,1-5.244-1.543,2.954,2.954,0,0,1-.21-2.492,3.052,3.052,0,0,1,2.075-2.066,6.194,6.194,0,0,1,3.746.341l1.4.488.233-.666a1.885,1.885,0,0,0,0-1.413,1.852,1.852,0,0,0-1.175-.943,2.125,2.125,0,0,0-1.41-.056,1.274,1.274,0,0,0-.843.813l-2.276-.8a2.681,2.681,0,0,1,1.1-1.367,3.924,3.924,0,0,1,1.9-.611,5.58,5.58,0,0,1,2.266.332,4.507,4.507,0,0,1,2.526,1.888,3.385,3.385,0,0,1,.206,2.9l-1.6,4.571a5.5,5.5,0,0,0-.38,2.317l-.056.16Zm-1.927-2.515a2.757,2.757,0,0,0,1.384.116,2.332,2.332,0,0,0,1.2-.567l.67-1.912-1.228-.43a3.559,3.559,0,0,0-2.055-.226,1.512,1.512,0,0,0-1.073,1.023,1.4,1.4,0,0,0,.069,1.2A1.8,1.8,0,0,0,879.014,805.46Z" transform="translate(-845.431 -778.513)" fill="#fff"/>
        <path id="Trazado_4762" data-name="Trazado 4762" d="M894.444,808.852l-2.315-.675,4.27-14.636,2.315.675Z" transform="translate(-852.099 -777.291)" fill="#fff"/>
      </g>
      <g id="Grupo_23378" data-name="Grupo 23378" transform="translate(728.419 414.455)">
        <path id="Trazado_4763" data-name="Trazado 4763" d="M848.762,635.79a1.714,1.714,0,0,0-.593,1.471,7.894,7.894,0,0,0,.893,2.428,11.451,11.451,0,0,1,1.047,2.775,3.646,3.646,0,0,1-.969,3.6,3.461,3.461,0,0,1-3.016.934,5.659,5.659,0,0,1-3.309-1.869,6.13,6.13,0,0,1-1.425-2.293,4.336,4.336,0,0,1-.129-2.394,4,4,0,0,1,1.166-2.024l1.694,1.783a2.226,2.226,0,0,0-.783,1.7,2.88,2.88,0,0,0,.919,1.88,3,3,0,0,0,1.668,1.006,1.721,1.721,0,0,0,1.507-.51,1.555,1.555,0,0,0,.447-1.421,8.31,8.31,0,0,0-.9-2.424,10.951,10.951,0,0,1-1.021-2.7,4.237,4.237,0,0,1,.032-2.063,3.755,3.755,0,0,1,1.06-1.654,3.38,3.38,0,0,1,2.985-.959,5.907,5.907,0,0,1,3.3,1.955,6.953,6.953,0,0,1,1.538,2.448,4.766,4.766,0,0,1,.242,2.542,3.926,3.926,0,0,1-1.2,2.133l-1.7-1.79a2.3,2.3,0,0,0,.807-1.87,3.5,3.5,0,0,0-1.1-2.119,3.037,3.037,0,0,0-1.712-1.045A1.682,1.682,0,0,0,848.762,635.79Z" transform="translate(-817.211 -592.048)" fill="#fff"/>
        <path id="Trazado_4764" data-name="Trazado 4764" d="M842.24,619.827a4.905,4.905,0,0,1,1.09,3.766A5.148,5.148,0,0,1,841.176,627l-.233.178a6.327,6.327,0,0,1-2.614,1.23,4.627,4.627,0,0,1-2.579-.184,4.526,4.526,0,0,1-2.043-1.533,4.143,4.143,0,0,1-.93-3.483,5.822,5.822,0,0,1,2.38-3.3l.76-.58,4.188,5.482a3.165,3.165,0,0,0,1.113-1.95,2.62,2.62,0,0,0-.565-1.994,3.209,3.209,0,0,0-2.658-1.308l.193-1.757a4.256,4.256,0,0,1,2.2.454A5.3,5.3,0,0,1,842.24,619.827Zm-7.016,5.716a2,2,0,0,0,1.5.838,3.545,3.545,0,0,0,1.977-.547l-2.743-3.589-.139.106a2.89,2.89,0,0,0-1.046,1.6A1.979,1.979,0,0,0,835.225,625.543Z" transform="translate(-813.845 -585.993)" fill="#fff"/>
        <path id="Trazado_4765" data-name="Trazado 4765" d="M830.256,606.021a2.142,2.142,0,0,0-1.213-.983,1.77,1.77,0,0,0-1.416.139l-1.173-1.9a3.487,3.487,0,0,1,1.889-.442,4.025,4.025,0,0,1,1.969.62,4.655,4.655,0,0,1,1.54,1.549,4.5,4.5,0,0,1,.622,3.743,5.689,5.689,0,0,1-2.692,3.183l-.208.128a5.59,5.59,0,0,1-3.961.928,4.461,4.461,0,0,1-3.077-2.229,4.34,4.34,0,0,1-.675-3.19,3.935,3.935,0,0,1,1.8-2.571l1.173,1.9a2.166,2.166,0,0,0-.946,1.311,2,2,0,0,0,.278,1.565,2.085,2.085,0,0,0,1.642,1.073,4.262,4.262,0,0,0,2.488-.788l.324-.2a4.322,4.322,0,0,0,1.855-1.871A2.085,2.085,0,0,0,830.256,606.021Z" transform="translate(-809.505 -580.038)" fill="#fff"/>
        <path id="Trazado_4766" data-name="Trazado 4766" d="M811.287,597.889l2.286-1.164-.846-1.661,1.565-.8.847,1.66,5.251-2.675a1.3,1.3,0,0,0,.67-.61,1.108,1.108,0,0,0-.149-.882,3.623,3.623,0,0,0-.463-.7l1.635-.832a5.844,5.844,0,0,1,.909,1.29q1.24,2.434-1.447,3.8l-5.329,2.715.788,1.548-1.565.8-.789-1.548L812.363,600Z" transform="translate(-805.327 -575.025)" fill="#fff"/>
        <path id="Trazado_4767" data-name="Trazado 4767" d="M815.191,585.335a6.22,6.22,0,0,1-2.819.49,4.488,4.488,0,0,1-2.424-.875,4.869,4.869,0,0,1-1.586-2.112,4.613,4.613,0,0,1-.041-3.732,5.412,5.412,0,0,1,2.833-2.714l.512-.219a6.281,6.281,0,0,1,2.81-.5,4.434,4.434,0,0,1,2.411.869,4.9,4.9,0,0,1,1.6,2.134,4.578,4.578,0,0,1-.023,3.873,5.7,5.7,0,0,1-3.163,2.743Zm-.707-2.272a4.25,4.25,0,0,0,2.106-1.59,2.189,2.189,0,0,0,.144-2.082,2.166,2.166,0,0,0-1.574-1.374,4.7,4.7,0,0,0-2.791.42,4.2,4.2,0,0,0-2.088,1.6,2.319,2.319,0,0,0,1.392,3.442A4.61,4.61,0,0,0,814.484,583.063Z" transform="translate(-803.997 -569.225)" fill="#fff"/>
        <path id="Trazado_4768" data-name="Trazado 4768" d="M803.521,564.972a5.853,5.853,0,0,0,.211.945,2.173,2.173,0,0,0,1.844,1.727l6.9-2.14.7,2.265L803.091,570.9l-.671-2.161,1.11-.406a2.671,2.671,0,0,1-2.019-1.866,2.233,2.233,0,0,1-.119-.842Z" transform="translate(-801.387 -564.972)" fill="#fff"/>
      </g>
      <g id="Grupo_23379" data-name="Grupo 23379" transform="translate(853.766 215.601)">
        <path id="Trazado_4769" data-name="Trazado 4769" d="M1017.691,246.063a1.748,1.748,0,0,0-.376-1.57,8.065,8.065,0,0,0-2.172-1.486,11.67,11.67,0,0,1-2.5-1.683,3.712,3.712,0,0,1-1.318-3.555,3.52,3.52,0,0,1,1.95-2.551,5.765,5.765,0,0,1,3.846-.4,6.253,6.253,0,0,1,2.533,1.061,4.413,4.413,0,0,1,1.518,1.91,4.054,4.054,0,0,1,.226,2.365l-2.455-.479a2.264,2.264,0,0,0-.356-1.875,2.93,2.93,0,0,0-1.869-1.018,3.061,3.061,0,0,0-1.976.15,1.752,1.752,0,0,0-.949,1.311,1.585,1.585,0,0,0,.466,1.442,8.465,8.465,0,0,0,2.179,1.477,11.143,11.143,0,0,1,2.441,1.641,4.316,4.316,0,0,1,1.189,1.728,3.833,3.833,0,0,1,.1,2,3.442,3.442,0,0,1-1.91,2.554,6,6,0,0,1-3.892.327,7.067,7.067,0,0,1-2.718-1.122,4.847,4.847,0,0,1-1.7-1.966,4,4,0,0,1-.26-2.478l2.465.482a2.336,2.336,0,0,0,.433,2.026,3.566,3.566,0,0,0,2.159,1.11,3.1,3.1,0,0,0,2.036-.143A1.714,1.714,0,0,0,1017.691,246.063Z" transform="translate(-1009.594 -234.668)" fill="#fff"/>
        <path id="Trazado_4770" data-name="Trazado 4770" d="M1031.008,249.647a6.342,6.342,0,0,1,1.354-2.578,4.563,4.563,0,0,1,2.208-1.412,4.95,4.95,0,0,1,2.688.029,4.7,4.7,0,0,1,3.034,2.281,5.511,5.511,0,0,1,.433,3.967l-.14.548a6.4,6.4,0,0,1-1.338,2.578,4.509,4.509,0,0,1-2.2,1.406,4.991,4.991,0,0,1-2.713-.033,4.657,4.657,0,0,1-3.109-2.421,5.8,5.8,0,0,1-.252-4.251Zm2.271.837a4.327,4.327,0,0,0-.025,2.684,2.229,2.229,0,0,0,1.591,1.408,2.2,2.2,0,0,0,2.085-.417,4.776,4.776,0,0,0,1.391-2.511,4.264,4.264,0,0,0,.006-2.674,2.358,2.358,0,0,0-3.638-1.011A4.682,4.682,0,0,0,1033.28,250.484Z" transform="translate(-1017.992 -238.972)" fill="#fff"/>
        <path id="Trazado_4771" data-name="Trazado 4771" d="M1053.713,260.454a2.177,2.177,0,0,0,1.588,0,1.793,1.793,0,0,0,1.028-1.019l2.147.75a3.553,3.553,0,0,1-1.208,1.56,4.1,4.1,0,0,1-1.952.774,4.736,4.736,0,0,1-2.21-.235,4.58,4.58,0,0,1-2.893-2.556,5.787,5.787,0,0,1,.083-4.24l.082-.234a5.688,5.688,0,0,1,2.531-3.274,4.535,4.535,0,0,1,3.86-.214,4.413,4.413,0,0,1,2.578,2.083,4,4,0,0,1,.228,3.187l-2.146-.749a2.207,2.207,0,0,0-.094-1.641,2.032,2.032,0,0,0-1.223-1.059,2.125,2.125,0,0,0-1.985.207,4.333,4.333,0,0,0-1.459,2.218l-.127.366a4.4,4.4,0,0,0-.264,2.667A2.119,2.119,0,0,0,1053.713,260.454Z" transform="translate(-1025.614 -241.342)" fill="#fff"/>
        <path id="Trazado_4772" data-name="Trazado 4772" d="M1067.749,264.967l-2.235-.906,4.033-9.953,2.235.906Zm2.707-13.5a1.279,1.279,0,0,1,.674-.723,1.331,1.331,0,0,1,1.071.038,1.351,1.351,0,0,1,.8.721,1.273,1.273,0,0,1-.015.99,1.246,1.246,0,0,1-.672.707,1.361,1.361,0,0,1-1.075-.045,1.342,1.342,0,0,1-.8-.714A1.251,1.251,0,0,1,1070.456,251.466Z" transform="translate(-1031.848 -241.027)" fill="#fff"/>
        <path id="Trazado_4773" data-name="Trazado 4773" d="M1076.225,265.387a6.32,6.32,0,0,1,1.769-2.312,4.579,4.579,0,0,1,2.415-1.02,4.954,4.954,0,0,1,2.645.484,4.692,4.692,0,0,1,2.605,2.761,5.5,5.5,0,0,1-.244,3.982l-.231.518a6.387,6.387,0,0,1-1.753,2.314,4.512,4.512,0,0,1-2.4,1.014,4.973,4.973,0,0,1-2.667-.49,4.655,4.655,0,0,1-2.656-2.91,5.794,5.794,0,0,1,.47-4.233Zm2.1,1.209a4.325,4.325,0,0,0-.477,2.642,2.389,2.389,0,0,0,3.456,1.6,4.784,4.784,0,0,0,1.8-2.24,4.269,4.269,0,0,0,.458-2.634,2.236,2.236,0,0,0-1.32-1.668,2.213,2.213,0,0,0-2.1.057A4.686,4.686,0,0,0,1078.322,266.6Z" transform="translate(-1035.819 -245.557)" fill="#fff"/>
        <path id="Trazado_4774" data-name="Trazado 4774" d="M1100.712,278.383a6.4,6.4,0,0,1-2.922,2.923,3.931,3.931,0,0,1-5.283-2.571l-2.476,4.449-2.108-1.173,7.232-12.991,1.942,1.081-.444,1a3.544,3.544,0,0,1,3.151.278,3.66,3.66,0,0,1,1.981,2.778,6.563,6.563,0,0,1-1,4.094Zm-2-1.351a4.477,4.477,0,0,0,.681-2.54,2.083,2.083,0,0,0-1.141-1.715,2.219,2.219,0,0,0-2.45.034l-2.317,4.162a2.239,2.239,0,0,0,1.265,2.136,2.078,2.078,0,0,0,2.025.066A4.931,4.931,0,0,0,1098.715,277.032Z" transform="translate(-1040.766 -248.339)" fill="#fff"/>
        <path id="Trazado_4775" data-name="Trazado 4775" d="M1111.679,284.364a6.332,6.332,0,0,1,2.079-2.038,4.575,4.575,0,0,1,2.535-.667,4.953,4.953,0,0,1,2.548.854,4.692,4.692,0,0,1,2.188,3.1,5.505,5.505,0,0,1-.806,3.909l-.3.479a6.392,6.392,0,0,1-2.064,2.043,4.532,4.532,0,0,1-2.521.664,4.99,4.99,0,0,1-2.572-.864,4.66,4.66,0,0,1-2.217-3.257,5.8,5.8,0,0,1,1.066-4.125Zm1.9,1.494a4.32,4.32,0,0,0-.847,2.547,2.225,2.225,0,0,0,1.081,1.828,2.2,2.2,0,0,0,2.112.243,4.78,4.78,0,0,0,2.1-1.963,4.278,4.278,0,0,0,.827-2.544,2.233,2.233,0,0,0-1.07-1.837,2.21,2.21,0,0,0-2.083-.241A4.686,4.686,0,0,0,1113.584,285.859Z" transform="translate(-1049.747 -253.367)" fill="#fff"/>
        <path id="Trazado_4776" data-name="Trazado 4776" d="M1126.488,298.505l-1.948-1.423,8.994-12.309,1.948,1.423Z" transform="translate(-1055.339 -254.608)" fill="#fff"/>
        <path id="Trazado_4777" data-name="Trazado 4777" d="M1133.537,304.881l-1.9-1.487,6.616-8.459,1.9,1.486Zm8.989-12.236,2.165,1.694-4.019.675-1.521-1.2Z" transform="translate(-1058.163 -257.741)" fill="#fff"/>
        <path id="Trazado_4778" data-name="Trazado 4778" d="M1150.344,301.23l-1.685,1.995,1.449,1.223-1.153,1.364-1.448-1.223-3.868,4.581a1.314,1.314,0,0,0-.388.835,1.126,1.126,0,0,0,.487.769,3.766,3.766,0,0,0,.709.468l-1.2,1.425a5.949,5.949,0,0,1-1.361-.85q-2.123-1.793-.144-4.135l3.925-4.65-1.35-1.14,1.153-1.365,1.35,1.14,1.684-1.994Z" transform="translate(-1061.803 -260.538)" fill="#fff"/>
        <path id="Trazado_4779" data-name="Trazado 4779" d="M1149.144,318.221l-1.783-1.624,7.229-7.943,1.784,1.624Zm7.213-11.729a1.279,1.279,0,0,1,.883-.445,1.329,1.329,0,0,1,.991.406,1.349,1.349,0,0,1,.5.953,1.272,1.272,0,0,1-.357.923,1.241,1.241,0,0,1-.876.43,1.588,1.588,0,0,1-1.494-1.359A1.246,1.246,0,0,1,1156.357,306.492Z" transform="translate(-1064.421 -263.073)" fill="#fff"/>
        <path id="Trazado_4780" data-name="Trazado 4780" d="M1159.092,327.291a2.189,2.189,0,0,0,1.431.691,1.8,1.8,0,0,0,1.369-.468l1.6,1.612a3.542,3.542,0,0,1-1.767.877,4.1,4.1,0,0,1-2.1-.156,4.745,4.745,0,0,1-1.885-1.177,4.578,4.578,0,0,1-1.485-3.562,5.783,5.783,0,0,1,1.925-3.778l.176-.175a5.688,5.688,0,0,1,3.707-1.841,4.537,4.537,0,0,1,3.565,1.492,4.417,4.417,0,0,1,1.411,3,4,4,0,0,1-1.187,2.966l-1.6-1.612a2.207,2.207,0,0,0,.632-1.518,2.029,2.029,0,0,0-.639-1.486,2.122,2.122,0,0,0-1.875-.681,4.328,4.328,0,0,0-2.281,1.359l-.274.273a4.4,4.4,0,0,0-1.4,2.284A2.122,2.122,0,0,0,1159.092,327.291Z" transform="translate(-1067.961 -268.351)" fill="#fff"/>
        <path id="Trazado_4781" data-name="Trazado 4781" d="M1171.277,334.744a6.332,6.332,0,0,1,2.559-1.389,4.568,4.568,0,0,1,2.621.054,4.96,4.96,0,0,1,2.217,1.521,4.693,4.693,0,0,1,1.251,3.584,5.5,5.5,0,0,1-1.848,3.536l-.421.378a6.381,6.381,0,0,1-2.546,1.4,4.515,4.515,0,0,1-2.607-.054,4.99,4.99,0,0,1-2.236-1.537,4.654,4.654,0,0,1-1.236-3.74,5.787,5.787,0,0,1,2.156-3.672Zm1.421,1.96a4.33,4.33,0,0,0-1.514,2.217,2.227,2.227,0,0,0,.538,2.055,2.2,2.2,0,0,0,1.964.813,4.775,4.775,0,0,0,2.554-1.311,4.274,4.274,0,0,0,1.493-2.218,2.359,2.359,0,0,0-2.461-2.865A4.691,4.691,0,0,0,1172.7,336.7Z" transform="translate(-1073.03 -273.876)" fill="#fff"/>
      </g>
      <g id="Grupo_23380" data-name="Grupo 23380" transform="translate(643.434 376.928)">
        <path id="Trazado_4782" data-name="Trazado 4782" d="M679.595,609.049l5.186-1.355.635,2.429-13.983,3.651-1.4-5.348a5.594,5.594,0,0,1,.25-4.04,4.244,4.244,0,0,1,2.871-2.221,4.1,4.1,0,0,1,3.554.513,5.866,5.866,0,0,1,2.13,3.48Zm-1.959.511-.762-2.919a2.97,2.97,0,0,0-1.127-1.819,2.311,2.311,0,0,0-1.94-.222,2.5,2.5,0,0,0-1.63,1.164,2.753,2.753,0,0,0-.2,2.084l.78,2.987Z" transform="translate(-664.026 -542.174)" fill="#fff"/>
        <path id="Trazado_4783" data-name="Trazado 4783" d="M677.53,590.523a6.332,6.332,0,0,1-2.909-.106,4.559,4.559,0,0,1-2.229-1.379,4.947,4.947,0,0,1-1.135-2.438,4.692,4.692,0,0,1,.746-3.721,5.5,5.5,0,0,1,3.388-2.106l.555-.112a6.408,6.408,0,0,1,2.9.093,4.513,4.513,0,0,1,2.217,1.373,4.981,4.981,0,0,1,1.144,2.46,4.655,4.655,0,0,1-.837,3.849,5.8,5.8,0,0,1-3.725,2.066Zm-.227-2.411a4.329,4.329,0,0,0,2.432-1.138,2.231,2.231,0,0,0,.581-2.044,2.2,2.2,0,0,0-1.278-1.7,4.788,4.788,0,0,0-2.866-.17,4.277,4.277,0,0,0-2.413,1.152,2.358,2.358,0,0,0,.661,3.718A4.677,4.677,0,0,0,677.3,588.113Z" transform="translate(-664.574 -533.64)" fill="#fff"/>
        <path id="Trazado_4784" data-name="Trazado 4784" d="M676.756,571.275l.308,2.392-15.122,1.947-.308-2.392Z" transform="translate(-660.784 -529.953)" fill="#fff"/>
        <path id="Trazado_4785" data-name="Trazado 4785" d="M660.635,563.833l-.262-2.737,3.256,2.45.179,1.927Zm15.064-1.9.229,2.4-10.691,1.023-.229-2.4Z" transform="translate(-660.282 -525.902)" fill="#fff"/>
        <path id="Trazado_4786" data-name="Trazado 4786" d="M663.006,552.2l2.606-.151-.109-1.893,1.784-.1.109,1.892,5.985-.346a1.318,1.318,0,0,0,.874-.294,1.13,1.13,0,0,0,.223-.883,3.76,3.76,0,0,0-.148-.836l1.862-.108a5.9,5.9,0,0,1,.32,1.573q.16,2.772-2.9,2.951l-6.075.35.1,1.764-1.784.1-.1-1.764-2.606.151Z" transform="translate(-661.33 -521.277)" fill="#fff"/>
        <path id="Trazado_4787" data-name="Trazado 4787" d="M661.54,544.882a1.283,1.283,0,0,1-.93-.334,1.322,1.322,0,0,1-.388-1,1.346,1.346,0,0,1,.346-1.02,1.27,1.27,0,0,1,.916-.376,1.238,1.238,0,0,1,.916.34,1.358,1.358,0,0,1,.383,1,1.343,1.343,0,0,1-.341,1.015A1.256,1.256,0,0,1,661.54,544.882Zm13.473-2.839.049,2.412-10.737.22-.049-2.412Z" transform="translate(-660.222 -518.32)" fill="#fff"/>
        <path id="Trazado_4788" data-name="Trazado 4788" d="M675.949,526.989a2.18,2.18,0,0,0-.482-1.513,1.8,1.8,0,0,0-1.281-.673l.066-2.272a3.54,3.54,0,0,1,1.852.679,4.105,4.105,0,0,1,1.328,1.628,4.734,4.734,0,0,1,.444,2.177,4.576,4.576,0,0,1-1.562,3.53,5.787,5.787,0,0,1-4.066,1.2l-.247-.007a5.689,5.689,0,0,1-3.887-1.423,4.539,4.539,0,0,1-1.37-3.615,4.42,4.42,0,0,1,1.207-3.088,4.007,4.007,0,0,1,2.969-1.18l-.066,2.273a2.208,2.208,0,0,0-1.536.586,2.031,2.031,0,0,0-.639,1.486,2.125,2.125,0,0,0,.8,1.83,4.331,4.331,0,0,0,2.556.72l.387.011a4.4,4.4,0,0,0,2.622-.555A2.121,2.121,0,0,0,675.949,526.989Z" transform="translate(-662.816 -510.515)" fill="#fff"/>
        <path id="Trazado_4789" data-name="Trazado 4789" d="M672.939,512.61a6.346,6.346,0,0,1-2.769-.9,4.57,4.57,0,0,1-1.763-1.94,4.944,4.944,0,0,1-.421-2.654,4.69,4.69,0,0,1,1.74-3.374,5.508,5.508,0,0,1,3.838-1.091l.564.046a6.393,6.393,0,0,1,2.765.886,4.514,4.514,0,0,1,1.754,1.929,4.981,4.981,0,0,1,.424,2.68,4.658,4.658,0,0,1-1.865,3.471,5.794,5.794,0,0,1-4.15.961Zm.445-2.38a4.328,4.328,0,0,0,2.65-.426,2.227,2.227,0,0,0,1.12-1.8,2.2,2.2,0,0,0-.761-1.984,4.775,4.775,0,0,0-2.708-.952,4.279,4.279,0,0,0-2.637.443,2.234,2.234,0,0,0-1.135,1.8,2.209,2.209,0,0,0,.749,1.958A4.69,4.69,0,0,0,673.384,510.231Z" transform="translate(-663.3 -502.637)" fill="#fff"/>
      </g>
    </g>
    <g id="Grupo_22566" data-name="Grupo 22566" transform="translate(-134.057 -3915.999)">
      <g id="Grupo_22559" data-name="Grupo 22559" transform="translate(587 4819)">
        <g id="Grupo_21994" data-name="Grupo 21994">
          <g id="Grupo_21993" data-name="Grupo 21993">
            <path id="Trazado_2916" data-name="Trazado 2916" d="M524.649,223.043a29.623,29.623,0,0,1,7.225-3.14l1.488-7.152,12.083-.211,1.739,7.094a29.594,29.594,0,0,1,7.332,2.884l6.106-4,8.694,8.394-3.785,6.242a29.564,29.564,0,0,1,3.139,7.227l7.151,1.488.212,12.082-7.094,1.74a29.632,29.632,0,0,1-2.884,7.33l4,6.107-8.394,8.694-6.243-3.785a29.583,29.583,0,0,1-7.226,3.139l-1.488,7.152-12.082.212-1.74-7.095a29.65,29.65,0,0,1-7.331-2.884l-6.107,4-8.693-8.394,3.785-6.243a29.575,29.575,0,0,1-3.14-7.226l-7.151-1.489-.212-12.082,7.095-1.739a29.618,29.618,0,0,1,2.884-7.331l-4-6.106,8.394-8.694,6.244,3.785Z" transform="translate(-504.035 -212.54)" fill="#5dc2ae"/>
          </g>
        </g>
      </g>
      <circle id="Elipse_1239" data-name="Elipse 1239" cx="15.239" cy="15.239" r="15.239" transform="translate(607.318 4839.318)" fill="#fff"/>
    </g>
    <path id="Trazado_4790" data-name="Trazado 4790" d="M-26.6-5.546h-5.062v3.428h5.941V0h-8.578V-12.8h8.561v2.136h-5.924v3.05H-26.6Zm4.641-3.964.079,1.063a3.342,3.342,0,0,1,2.733-1.239,2.536,2.536,0,0,1,2.522,1.45,3.265,3.265,0,0,1,2.856-1.45,2.836,2.836,0,0,1,2.3.9,4.141,4.141,0,0,1,.756,2.711V0h-2.549V-6.064a1.811,1.811,0,0,0-.316-1.182,1.4,1.4,0,0,0-1.116-.374,1.585,1.585,0,0,0-1.582,1.09L-16.26,0H-18.8V-6.056a1.789,1.789,0,0,0-.325-1.2,1.416,1.416,0,0,0-1.107-.369,1.646,1.646,0,0,0-1.564.9V0h-2.54V-9.51ZM-.193-4.667a5.7,5.7,0,0,1-1,3.52A3.2,3.2,0,0,1-3.885.176a2.963,2.963,0,0,1-2.329-1V3.656h-2.54V-9.51H-6.4l.088.932A2.985,2.985,0,0,1-3.9-9.686a3.22,3.22,0,0,1,2.733,1.3A5.858,5.858,0,0,1-.193-4.8Zm-2.54-.185A3.743,3.743,0,0,0-3.2-6.9,1.532,1.532,0,0,0-4.57-7.62a1.663,1.663,0,0,0-1.644.914v3.894a1.692,1.692,0,0,0,1.661.94Q-2.733-1.872-2.733-4.852ZM6.724-7.128A6.9,6.9,0,0,0,5.81-7.2a1.86,1.86,0,0,0-1.89.976V0H1.38V-9.51h2.4l.07,1.134a2.354,2.354,0,0,1,2.118-1.31,2.662,2.662,0,0,1,.791.114Zm5.432,7.3A4.668,4.668,0,0,1,8.75-1.107,4.561,4.561,0,0,1,7.436-4.526v-.246a5.745,5.745,0,0,1,.554-2.562,4.064,4.064,0,0,1,1.569-1.74,4.4,4.4,0,0,1,2.316-.611,3.947,3.947,0,0,1,3.072,1.23,5,5,0,0,1,1.121,3.489v1.037H10.011a2.36,2.36,0,0,0,.743,1.494,2.245,2.245,0,0,0,1.569.563,2.742,2.742,0,0,0,2.294-1.063l1.248,1.4A3.813,3.813,0,0,1,14.317-.277,5.075,5.075,0,0,1,12.155.176Zm-.29-7.8a1.591,1.591,0,0,0-1.226.51,2.634,2.634,0,0,0-.6,1.459H13.57v-.2a1.878,1.878,0,0,0-.457-1.305A1.642,1.642,0,0,0,11.865-7.629Zm10.793,5a.818.818,0,0,0-.461-.734,5.241,5.241,0,0,0-1.481-.479q-3.393-.712-3.393-2.883a2.613,2.613,0,0,1,1.05-2.114,4.237,4.237,0,0,1,2.747-.848,4.56,4.56,0,0,1,2.9.853A2.687,2.687,0,0,1,25.1-6.618h-2.54a1.229,1.229,0,0,0-.352-.9,1.488,1.488,0,0,0-1.1-.356,1.52,1.52,0,0,0-.993.29.916.916,0,0,0-.352.738.783.783,0,0,0,.4.681,4.114,4.114,0,0,0,1.349.448,11.019,11.019,0,0,1,1.6.426,2.628,2.628,0,0,1,2.013,2.558,2.481,2.481,0,0,1-1.116,2.1,4.815,4.815,0,0,1-2.883.8A5.029,5.029,0,0,1,19.006-.25a3.561,3.561,0,0,1-1.455-1.169,2.716,2.716,0,0,1-.527-1.6h2.408a1.326,1.326,0,0,0,.5,1.037,1.987,1.987,0,0,0,1.248.36,1.839,1.839,0,0,0,1.1-.277A.861.861,0,0,0,22.658-2.628ZM32.273,0a2.821,2.821,0,0,1-.255-.853,3.073,3.073,0,0,1-2.4,1.028A3.376,3.376,0,0,1,27.3-.633a2.6,2.6,0,0,1-.918-2.039,2.687,2.687,0,0,1,1.121-2.32,5.529,5.529,0,0,1,3.239-.817h1.169v-.545a1.567,1.567,0,0,0-.338-1.055,1.331,1.331,0,0,0-1.068-.4A1.513,1.513,0,0,0,29.5-7.5a1.045,1.045,0,0,0-.365.844H26.6a2.551,2.551,0,0,1,.51-1.529,3.37,3.37,0,0,1,1.441-1.1,5.253,5.253,0,0,1,2.092-.4,4.15,4.15,0,0,1,2.791.883,3.09,3.09,0,0,1,1.033,2.483V-2.2A4.546,4.546,0,0,0,34.84-.149V0Zm-2.1-1.767a2.188,2.188,0,0,0,1.037-.25,1.645,1.645,0,0,0,.7-.672V-4.324h-.949q-1.907,0-2.03,1.318l-.009.149a1.017,1.017,0,0,0,.334.782A1.3,1.3,0,0,0,30.173-1.767Z" transform="translate(489.943 993)" fill="#022644"/>
  </g>
</svg>
