<svg xmlns="http://www.w3.org/2000/svg" xmlns:xlink="http://www.w3.org/1999/xlink" width="352" height="395" viewBox="0 0 352 395">
  <defs>
    <clipPath id="clip-path">
      <rect id="Rectángulo_4825" data-name="Rectángulo 4825" width="73.677" height="37.99" transform="translate(0 0)" fill="#fff" stroke="#707070" stroke-width="1"/>
    </clipPath>
  </defs>
  <g id="Grupo_23427" data-name="Grupo 23427" transform="translate(-691 -2310)">
    <rect id="Rectángulo_5156" data-name="Rectángulo 5156" width="352" height="395" rx="7" transform="translate(691 2310)" fill="#e0fdf9"/>
    <g id="Grupo_23094" data-name="Grupo 23094" transform="translate(56.422 2249.184)">
      <g id="Grupo_20539" data-name="Grupo 20539" transform="translate(752.956 101.043)">
        <g id="Enmascarar_grupo_41" data-name="Enmascarar grupo 41" transform="translate(35.172 80.466)" clip-path="url(#clip-path)">
          <g id="Grupo_20533" data-name="Grupo 20533" transform="translate(48.543 13.064)">
            <rect id="Rectángulo_4818" data-name="Rectángulo 4818" width="8.361" height="149.012" transform="matrix(-0.74, 0.673, -0.673, -0.74, 111.52, 114.818)" fill="#f8f8a6"/>
            <rect id="Rectángulo_4819" data-name="Rectángulo 4819" width="3.74" height="149.012" transform="matrix(-0.74, 0.673, -0.673, -0.74, 103.047, 122.527)" fill="#f8f8a6"/>
            <rect id="Rectángulo_4820" data-name="Rectángulo 4820" width="3.74" height="149.012" transform="matrix(-0.74, 0.673, -0.673, -0.74, 116.575, 110.219)" fill="#f8f8a6"/>
          </g>
        </g>
        <g id="Grupo_20534" data-name="Grupo 20534">
          <g id="Grupo_20526" data-name="Grupo 20526" transform="translate(66.728 75.014)">
            <path id="Trazado_2110" data-name="Trazado 2110" d="M348.813,400.718a51.051,51.051,0,0,1,2.947-5.622c1.135-1.873,2.433-3.892,2.662-5.992l4.6,3.8a.736.736,0,0,1,.147.121c1.217,1.338-2.862,7.031-9.111,12.716q-.864.786-1.719,1.515a6.192,6.192,0,0,1-.607-2.187A9.271,9.271,0,0,1,348.813,400.718Z" transform="translate(-323.335 -378.036)" fill="#93f5e5"/>
            <path id="Trazado_2111" data-name="Trazado 2111" d="M376.776,389.38a.728.728,0,0,1-.107-.158l-13.1-19.343,17.67-16.076,13.417,11.069c-.229,2.1-1.527,4.119-2.662,5.992a51.048,51.048,0,0,0-2.947,5.622,9.27,9.27,0,0,0-1.076,4.35,6.192,6.192,0,0,0,.607,2.187C382.97,387.8,377.88,390.594,376.776,389.38Z" transform="translate(-363.565 -353.803)" fill="#5dc2ae"/>
          </g>
          <g id="Grupo_20527" data-name="Grupo 20527" transform="translate(56.066 32.816)">
            <path id="Trazado_2112" data-name="Trazado 2112" d="M290.911,234.106c7.957,9.777,16.34,19.252,26.568,26.55a46.239,46.239,0,0,0,13.314,6.939,26.6,26.6,0,0,0,10.4,1.083l6.419,7.51h0c-5.354,4.871-12.954,5.726-18.4,2.032L279.5,244.489Z" transform="translate(-279.499 -229.438)" fill="#164377"/>
            <path id="Trazado_2113" data-name="Trazado 2113" d="M339.852,257.374a46.239,46.239,0,0,1-13.314-6.939c-10.228-7.3-18.611-16.772-26.568-26.55l.838-.763c5.977-5.438,14.836-5.152,19.735.58l29.7,34.755A26.6,26.6,0,0,1,339.852,257.374Z" transform="translate(-288.558 -219.217)" fill="#105697"/>
          </g>
          <g id="Grupo_20528" data-name="Grupo 20528" transform="translate(25.246 60.326)">
            <path id="Trazado_2114" data-name="Trazado 2114" d="M466.831,341.032,451.4,326.468a14.757,14.757,0,0,1,4.668-8.364l12.251-11.146,27.9,50.857a30.636,30.636,0,0,1-12.719-3.662C477.234,350.834,471.991,345.9,466.831,341.032Z" transform="translate(-451.196 -306.958)" fill="#105697"/>
            <path id="Trazado_2115" data-name="Trazado 2115" d="M443.259,369.181l15.429,14.564c5.16,4.871,10.4,9.8,16.674,13.121a30.636,30.636,0,0,0,12.719,3.662l.993,1.81c3.165,5.768,1.6,13.254-3.756,18.126l-38.673-39.945A12.941,12.941,0,0,1,443.259,369.181Z" transform="translate(-443.053 -349.671)" fill="#164377"/>
          </g>
          <path id="Trazado_2116" data-name="Trazado 2116" d="M453.639,430.94a18.825,18.825,0,0,1-2.7,1.016A18.825,18.825,0,0,0,453.639,430.94Z" transform="translate(-383.22 -331.74)" fill="none"/>
          <path id="Trazado_2117" data-name="Trazado 2117" d="M436.395,421.362q-1.116.751-2.187,1.386Q435.276,422.114,436.395,421.362Z" transform="translate(-360.729 -325.165)" fill="none"/>
          <path id="Trazado_2118" data-name="Trazado 2118" d="M443.257,425.781c-.712.422-1.406.8-2.075,1.142C441.851,426.585,442.545,426.2,443.257,425.781Z" transform="translate(-369.778 -328.198)" fill="none"/>
          <path id="Trazado_2119" data-name="Trazado 2119" d="M365.578,366.056c3.866-4.248,6.448-8.346,7.044-11.155l2.918,3.877c1.1,1.4-.033,4.534-2.664,8.239a14.846,14.846,0,0,0-3.594-.856A33.608,33.608,0,0,0,365.578,366.056Z" transform="translate(-278.773 -279.542)" fill="#93f5e5"/>
          <path id="Trazado_2120" data-name="Trazado 2120" d="M379.642,403.153q.483-.221.985-.475c.669-.339,1.363-.72,2.075-1.143s1.443-.885,2.187-1.386a60.931,60.931,0,0,0,6.9-5.452c1.538-1.4,2.961-2.824,4.242-4.232a33.631,33.631,0,0,1,3.7.105,14.848,14.848,0,0,1,3.594.856,51.538,51.538,0,0,1-7.236,8c-7.3,6.637-14.931,10.385-17.1,8.326l-3.585-3.27a9.965,9.965,0,0,0,1.541-.316A18.812,18.812,0,0,0,379.642,403.153Z" transform="translate(-309.223 -303.953)" fill="#5dc2ae"/>
          <path id="Trazado_2121" data-name="Trazado 2121" d="M432.391,237c-3.383-.758-6.212-3-8.878-5.221a378.617,378.617,0,0,1-47.3-46.993q1.5-1.2,2.98-2.538a51.344,51.344,0,0,0,11.56-14.842,110.938,110.938,0,0,1,29.626,26.787l24.083,32c-.6,2.809-3.178,6.907-7.044,11.155A22.17,22.17,0,0,1,432.391,237Z" transform="translate(-350.616 -150.834)" fill="#fff"/>
          <path id="Trazado_2122" data-name="Trazado 2122" d="M398.682,230.406a48.6,48.6,0,0,0,12.885-7.573,378.608,378.608,0,0,0,47.3,46.993c2.666,2.217,5.495,4.463,8.878,5.221a22.169,22.169,0,0,0,5.029.35c-1.281,1.408-2.7,2.833-4.242,4.232a60.942,60.942,0,0,1-6.9,5.452q-1.116.751-2.187,1.386c-.712.422-1.406.8-2.075,1.143q-.5.254-.985.475a18.8,18.8,0,0,1-2.7,1.016,9.963,9.963,0,0,1-1.541.316l-29.589-26.992A110.936,110.936,0,0,1,398.682,230.406Z" transform="translate(-385.968 -188.884)" fill="#d2d3d3"/>
          <path id="Trazado_2123" data-name="Trazado 2123" d="M573.016,148.557a378.4,378.4,0,0,1-25.5-33.926,129.933,129.933,0,0,1,40.044,16.547A51.342,51.342,0,0,1,576,146.019Q574.521,147.361,573.016,148.557Z" transform="translate(-547.416 -114.608)" fill="#93f5e5"/>
          <path id="Trazado_2124" data-name="Trazado 2124" d="M606.6,156.08a129.932,129.932,0,0,1-12.714-41.522h0l.1.023a378.393,378.393,0,0,0,25.5,33.926A48.6,48.6,0,0,1,606.6,156.08Z" transform="translate(-593.885 -114.558)" fill="#5dc2ae"/>
          <path id="Trazado_2125" data-name="Trazado 2125" d="M473.67,254.555a16.116,16.116,0,1,1,4.109,12.5A16.054,16.054,0,0,1,473.67,254.555Z" transform="translate(-442.5 -200.728)" opacity="0.21" style="mix-blend-mode: multiply;isolation: isolate"/>
          <g id="Grupo_20529" data-name="Grupo 20529" transform="translate(30.488 35.104)">
            <path id="Trazado_2126" data-name="Trazado 2126" d="M490.236,249.3a24.389,24.389,0,0,1-14.217-8.311A16.118,16.118,0,0,1,508,240.321a20.889,20.889,0,0,1-2.112,3.363C502.279,248.234,495.976,250.188,490.236,249.3Z" transform="translate(-475.934 -226.517)" fill="#93f5e5"/>
            <path id="Trazado_2127" data-name="Trazado 2127" d="M475.576,271.207a24.388,24.388,0,0,0,14.217,8.311c5.74.892,12.043-1.062,15.654-5.612a20.875,20.875,0,0,0,2.112-3.363,16.118,16.118,0,1,1-31.983.664Z" transform="translate(-475.492 -256.739)" fill="#5dc2ae"/>
          </g>
          <g id="Grupo_20530" data-name="Grupo 20530" transform="translate(34.037 38.654)">
            <path id="Trazado_2128" data-name="Trazado 2128" d="M490.85,255.845l21-.062a12.465,12.465,0,0,1,1.191,2.273l-23.368.069A12.482,12.482,0,0,1,490.85,255.845Z" transform="translate(-488.804 -250.156)" fill="#fff"/>
            <path id="Trazado_2129" data-name="Trazado 2129" d="M487.854,263.1l23.368-.069a12.529,12.529,0,0,1,.823,3.314l-24.995.073A12.6,12.6,0,0,1,487.854,263.1Z" transform="translate(-486.985 -255.133)" fill="#182b3a"/>
            <path id="Trazado_2130" data-name="Trazado 2130" d="M495.537,241.11a12.579,12.579,0,0,1,18.937,2.355l-21,.062A12.6,12.6,0,0,1,495.537,241.11Z" transform="translate(-491.429 -237.838)" fill="#182b3a"/>
            <path id="Trazado_2131" data-name="Trazado 2131" d="M504.316,311.078l14.1-.041A12.576,12.576,0,0,1,504.316,311.078Z" transform="translate(-498.771 -288.086)" fill="#fff"/>
            <path id="Trazado_2132" data-name="Trazado 2132" d="M492.29,297.242a12.544,12.544,0,0,1-2.222-3.43l23.066-.068a12.52,12.52,0,0,1-3.089,4.336,12.652,12.652,0,0,1-1.378,1.086l-14.1.041A12.6,12.6,0,0,1,492.29,297.242Z" transform="translate(-489.02 -276.216)" fill="#182b3a"/>
            <path id="Trazado_2133" data-name="Trazado 2133" d="M486.885,273.675l24.995-.073a12.614,12.614,0,0,1-.946,6.316l-23.066.068A12.579,12.579,0,0,1,486.885,273.675Z" transform="translate(-486.819 -262.388)" fill="#fff"/>
          </g>
        </g>
      </g>
      <rect id="Rectángulo_4827" data-name="Rectángulo 4827" width="148.504" height="134.69" transform="translate(736.325 97.471)" fill="none"/>
    </g>
    <g id="Grupo_23095" data-name="Grupo 23095" transform="translate(696.873 2247.835)">
      <g id="Character_1" data-name="Character 1" transform="translate(116.648 109.165)">
        <g id="Character">
          <g id="Glass" transform="translate(23.852)">
            <g id="Magnifying_glass" data-name="Magnifying glass">
              <g id="Grupo_22949" data-name="Grupo 22949" transform="translate(0 148.67)">
                <path id="Trazado_3992" data-name="Trazado 3992" d="M193.7,305.524h0c.507-1.192,1.8-2.048,3.763-2.285a13.694,13.694,0,0,1,11.4,4.857c1.188,1.579,1.467,3.106.959,4.3h0l-32.533,85.231-.009,0c-.63,1.794-2.468,3.1-5.345,3.448-5.483.666-12.618-2.374-15.936-6.789-1.741-2.317-2.074-4.546-1.217-6.244l-.02-.009Z" transform="translate(-154.335 -280.7)" fill="#e2e2e2"/>
                <path id="Trazado_3993" data-name="Trazado 3993" d="M211.02,308.094c2.374,3.159,1.118,6.106-2.8,6.583a13.7,13.7,0,0,1-11.4-4.858c-2.374-3.158-1.119-6.105,2.8-6.582A13.7,13.7,0,0,1,211.02,308.094Z" transform="translate(-156.486 -280.7)" fill="#37474f"/>
                <path id="Trazado_3994" data-name="Trazado 3994" d="M212.045,279.5a8.283,8.283,0,0,1,6.894,2.937,2.635,2.635,0,0,1,.58,2.6h0L208.974,309.8h0a2.634,2.634,0,0,1-2.276,1.382,8.282,8.282,0,0,1-6.894-2.937,2.637,2.637,0,0,1-.58-2.6l10.547-24.758h0A2.634,2.634,0,0,1,212.045,279.5Z" transform="translate(-156.666 -279.465)" fill="#27debf"/>
                <path id="Trazado_3995" data-name="Trazado 3995" d="M212.045,279.5a8.283,8.283,0,0,1,6.894,2.937,2.635,2.635,0,0,1,.58,2.6h0L208.974,309.8h0a2.634,2.634,0,0,1-2.276,1.382,8.282,8.282,0,0,1-6.894-2.937,2.637,2.637,0,0,1-.58-2.6l10.547-24.758h0A2.634,2.634,0,0,1,212.045,279.5Z" transform="translate(-156.666 -279.465)" opacity="0.2"/>
                <path id="Trazado_3996" data-name="Trazado 3996" d="M205.228,292.408l.735.43c0,.017,0,.017.017.017l.111.068v-.017c.052.026.1.051.145.077s.1.06.155.085c.469.273.938.521,1.434.752.6.3,1.212.563,1.827.8a16.2,16.2,0,0,0,1.665.615,7.005,7.005,0,0,0,.887.264,6.3,6.3,0,0,0,.965.282c.334.1.649.179.982.248a5.766,5.766,0,0,0,.726.154l.244.048,4.721-11.085h0a2.635,2.635,0,0,0-.58-2.6,6.172,6.172,0,0,0-1-1.009,35.868,35.868,0,0,1-9.069,1.556Z" transform="translate(-156.987 -279.573)" opacity="0.2"/>
                <path id="Trazado_3997" data-name="Trazado 3997" d="M202.968,314.913l-34.327,86.539a15.008,15.008,0,0,0,4.047.122c2.873-.351,4.717-1.65,5.343-3.454l.012.006,32.53-85.221c-.511,1.2-1.8,2.04-3.765,2.282A11.435,11.435,0,0,1,202.968,314.913Z" transform="translate(-155.08 -281.207)" opacity="0.15"/>
              </g>
              <g id="Grupo_22950" data-name="Grupo 22950" transform="translate(24.291)">
                <path id="Trazado_3998" data-name="Trazado 3998" d="M310.821,168.862c-.017-.717-.051-1.417-.111-2.118-.034-.7-.085-1.383-.154-2.065-.034-.462-.085-.914-.145-1.374-.12-1.187-.291-2.365-.487-3.484-.085-.513-.179-1.033-.282-1.546-.085-.495-.2-.964-.3-1.434-.3-1.3-.614-2.561-.982-3.774-.188-.58-.367-1.153-.563-1.716a1.687,1.687,0,0,1-.086-.264c-.2-.564-.4-1.1-.614-1.631-.239-.614-.486-1.229-.769-1.81-.2-.435-.384-.854-.614-1.272a6.49,6.49,0,0,0-.452-.914c-.18-.367-.368-.742-.581-1.093a1.613,1.613,0,0,0-.145-.239c-.171-.316-.367-.631-.555-.948-.129-.213-.265-.4-.385-.6a30.74,30.74,0,0,0-3.022-4.012c-.188-.214-.384-.428-.555-.632-.162-.179-.316-.333-.478-.495-.188-.206-.4-.4-.614-.615a20.24,20.24,0,0,0-1.819-1.63c-.3-.256-.615-.5-.931-.735-.316-.247-.631-.469-.965-.7a17.09,17.09,0,0,0-1.562-1.016c-.136-.085-.282-.179-.418-.264l-.085-.068h-.026l-9.8-5.763h-.034l-.137-.085a31.167,31.167,0,0,0-15.607-3.944c-8.136,0-17.323,2.664-27.056,8.272-33.416,19.3-60.523,66.244-60.523,104.851,0,19.253,6.737,32.793,17.622,39.137l.1.051v.017l9.818,5.745c0,.017,0,.017.017.017l.111.068v-.017c.051.026.1.051.145.077s.1.06.154.085c.469.274.939.521,1.434.752.6.3,1.212.564,1.828.8a16.19,16.19,0,0,0,1.665.614,6.962,6.962,0,0,0,.888.264,6.139,6.139,0,0,0,.964.283c.334.1.649.179.982.247a5.5,5.5,0,0,0,.726.154c.418.085.87.179,1.315.23a.877.877,0,0,0,.3.051c.52.085,1.05.162,1.571.214,9.016.947,19.5-1.6,30.718-8.069,33.442-19.3,60.549-66.261,60.549-104.851C310.872,170.69,310.855,169.776,310.821,168.862Zm-110.3,91.087a58.991,58.991,0,0,1-2.046-15.841c0-36.58,26.766-82.949,58.448-101.239a56.543,56.543,0,0,1,14.823-6.137,32.765,32.765,0,0,1,7.632-.963,24.381,24.381,0,0,1,3.867.3l.105.042c6.485,7.669,7.439,19.96,7.439,26.528,0,36.58-26.739,82.949-58.43,101.23-8.064,4.651-15.815,7.109-22.465,7.109a15.448,15.448,0,0,1-4.085-.524h0A28.939,28.939,0,0,1,200.516,259.95Z" transform="translate(-179.961 -122.623)" fill="#01070d"/>
                <path id="Trazado_3999" data-name="Trazado 3999" d="M303.588,169.762c0,19.435-7.552,41.62-19.384,60.906-.555.917-1.123,1.812-1.706,2.716-.491.775-1,1.551-1.521,2.319-1.11,1.649-2.233,3.278-3.413,4.871-.555.76-1.117,1.514-1.693,2.254q-.928,1.226-1.891,2.431c-1.216,1.537-2.475,3.03-3.755,4.487-.84.974-1.7,1.927-2.567,2.851a98.509,98.509,0,0,1-22.507,18.389c-1.515.875-3.008,1.671-4.494,2.39a44.958,44.958,0,0,1-15.409,4.6c-.868.085-1.721.121-2.546.121-.441,0-.861-.008-1.28-.036-.022,0-.028-.007-.05,0a19.828,19.828,0,0,1-2.4-.248c-.391-.057-.774-.121-1.144-.207a11.125,11.125,0,0,1-1.1-.27,17.715,17.715,0,0,1-9.493-6.143,15.5,15.5,0,0,0,4.082.518c6.649,0,14.4-2.453,22.463-7.1,31.694-18.282,58.431-64.653,58.431-101.232,0-6.571-.953-18.858-7.438-26.532l-.107-.035c8.264,1.322,12.963,6.941,15.609,13.433a38.05,38.05,0,0,1,1.807,5.667c.021.106.049.213.07.319.085.349.172.7.235,1.053s.136.682.2,1.024a2.349,2.349,0,0,1,.05.263q.107.555.192,1.088c.207,1.358.377,2.681.491,3.947.028.37.064.718.085,1.066.028.264.043.534.057.79.007.106.014.22.014.327.021.284.035.561.049.839a2.332,2.332,0,0,1,.008.234c.021.349.028.7.035,1.031C303.582,168.546,303.588,169.172,303.588,169.762Z" transform="translate(-181.382 -123.362)" opacity="0.25"/>
                <path id="Trazado_4000" data-name="Trazado 4000" d="M206.669,283.5l-9.087-5.345c-10.889-6.365-17.621-19.9-17.621-39.118,0-17.219,5.4-36.085,14.325-53.407l10.353,5.954c-8.942,17.323-14.862,35.99-14.862,53.208C189.776,263.625,196.184,276.98,206.669,283.5Z" transform="translate(-179.961 -125.906)" fill="#d3d3d3"/>
                <path id="Trazado_4001" data-name="Trazado 4001" d="M294.024,132.487l-.085-.071h-.028l-9.8-5.76h-.035l-.136-.085a31.169,31.169,0,0,0-15.608-3.946c-8.135,0-17.323,2.659-27.058,8.269-18.524,10.7-35.106,29.895-46.2,51.456l10.3,6.058c-.071.142-.15.284-.221.427,11.128-21.318,27.633-40.625,45.958-52.173,16.59-10.452,32.334-10.595,43.327-3.911Z" transform="translate(-180.748 -122.623)" fill="#f2f2f2"/>
              </g>
            </g>
            <g id="Grupo_22951" data-name="Grupo 22951" transform="translate(42.801 13.146)">
              <path id="Trazado_4002" data-name="Trazado 4002" d="M297.92,166.643c0,36.581-26.766,82.95-58.448,101.239a56.543,56.543,0,0,1-14.823,6.137,32.722,32.722,0,0,1-7.632.963,21.8,21.8,0,0,1-7.75-1.32c-3.936-3.3-6.311-8.081-7.733-12.989a58.991,58.991,0,0,1-2.046-15.841c0-36.58,26.766-82.949,58.448-101.239a56.544,56.544,0,0,1,14.823-6.137,32.765,32.765,0,0,1,7.632-.963,21.8,21.8,0,0,1,7.751,1.32c3.936,3.293,6.311,8.082,7.733,12.989A58.993,58.993,0,0,1,297.92,166.643Z" transform="translate(-199.488 -136.492)" fill="#fff" opacity="0.3"/>
            </g>
          </g>
          <g id="Boy" transform="translate(0 145.071)">
            <g id="Grupo_22954" data-name="Grupo 22954" transform="translate(0 28.788)">
              <path id="Trazado_4003" data-name="Trazado 4003" d="M172.143,343.092c1.788.4,5.21.76,5.21.76l2.457-5.207-5.5-2.54Z" transform="translate(-131.411 -307.605)" fill="#ffa8a7"/>
              <g id="Grupo_22952" data-name="Grupo 22952" transform="translate(27.29 21.084)">
                <path id="Trazado_4004" data-name="Trazado 4004" d="M157.962,338.8a36.291,36.291,0,0,0,13.9,3.953l2.965-4.457-14.861-10.014Z" transform="translate(-157.962 -328.281)" fill="#27debf"/>
                <path id="Trazado_4005" data-name="Trazado 4005" d="M157.962,338.8a36.291,36.291,0,0,0,13.9,3.953l2.965-4.457-14.861-10.014Z" transform="translate(-157.962 -328.281)" opacity="0.3"/>
                <path id="Trazado_4006" data-name="Trazado 4006" d="M171.69,343.117l2.505.368,1.922-5.684s-2.461-1.18-2.518-1.136S171.69,343.117,171.69,343.117Z" transform="translate(-158.677 -328.718)" fill="#27debf"/>
                <path id="Trazado_4007" data-name="Trazado 4007" d="M171.69,343.117l2.505.368,1.922-5.684s-2.461-1.18-2.518-1.136S171.69,343.117,171.69,343.117Z" transform="translate(-158.677 -328.718)" opacity="0.4"/>
              </g>
              <g id="Grupo_22953" data-name="Grupo 22953">
                <path id="Trazado_4008" data-name="Trazado 4008" d="M136.312,306.076a5.993,5.993,0,0,0-6.09,3.148,12.656,12.656,0,0,0-.985,6.415c.573,5.021,4.336,15.965,4.336,15.965Z" transform="translate(-129.172 -306.038)" fill="#27debf"/>
                <path id="Trazado_4009" data-name="Trazado 4009" d="M136.312,306.076a5.993,5.993,0,0,0-6.09,3.148,12.656,12.656,0,0,0-.985,6.415c.573,5.021,4.336,15.965,4.336,15.965Z" transform="translate(-129.172 -306.038)" opacity="0.4"/>
              </g>
            </g>
            <g id="Grupo_22961" data-name="Grupo 22961" transform="translate(0.362 64.488)">
              <g id="Grupo_22960" data-name="Grupo 22960">
                <g id="Grupo_22955" data-name="Grupo 22955" transform="translate(0.414 75.838)">
                  <path id="Trazado_4010" data-name="Trazado 4010" d="M130.984,429.944c-.431.161-.679.974-.869,2.96-.118,1.23-.538,2.857,1.337,3.856a4.743,4.743,0,0,0,4.436-.046c1.624-1.008,2.447-2.871,4.353-4.365,1.671-1.311,3.755-2.278,5.126-4.664,1.421-2.471,1.133-3.975-1.641-3.978-4.457,0-5.792,2.456-8.084,2.507C134.363,426.244,131.416,429.783,130.984,429.944Z" transform="translate(-129.991 -423.707)" fill="#93f5e5"/>
                </g>
                <g id="Grupo_22956" data-name="Grupo 22956" transform="translate(1.402 80.364)">
                  <path id="Trazado_4011" data-name="Trazado 4011" d="M131.043,429.213l-.01,2c0,.98,4.165,2.439,5.332.2.089-.192.541-2.937.541-2.937Z" transform="translate(-131.033 -428.482)" fill="#ffa8a7"/>
                </g>
                <g id="Grupo_22957" data-name="Grupo 22957" transform="translate(19.404 93.739)">
                  <path id="Trazado_4012" data-name="Trazado 4012" d="M151.339,442.592s-.791,0-1.1,3.232c-.118,1.23-.412,3.755.007,4.668s2.7,1.317,5.252,1.547a13.733,13.733,0,0,1,5.4,2.091,11.705,11.705,0,0,0,5.467,1.506c2.414.019,4.459-.241,6.181-1.6.917-.725,2.077-2.251,1.227-3.4a2.525,2.525,0,0,0-1.289-.68c-1.074-.4-2.161-.769-3.255-1.113A33.5,33.5,0,0,1,164.439,447c-2.254-1.111-4.767-2.356-6.47-4.255Z" transform="translate(-150.024 -442.592)" fill="#93f5e5"/>
                </g>
                <g id="Grupo_22958" data-name="Grupo 22958" transform="translate(20.718 92.067)">
                  <path id="Trazado_4013" data-name="Trazado 4013" d="M151.422,440.828s0,1.487-.011,2.337.985,2.121,3.582,2.041c1.825-.056,3.1-.539,3.036-2.043l.011-2.165Z" transform="translate(-151.411 -440.828)" fill="#ffa8a7"/>
                </g>
                <g id="Grupo_22959" data-name="Grupo 22959">
                  <path id="Trazado_4014" data-name="Trazado 4014" d="M129.8,398.205a54.424,54.424,0,0,1,2.418-10.421s-.669-9.005-.969-17.541a226.444,226.444,0,0,1,.73-26.224s29.009-2.751,29.485,7.908-.214,37.778-.59,42.456-.753,9.068-1.743,17.775c-.852,7.5-2.229,23.778-2.229,23.778a7.027,7.027,0,0,1-6.618-.17s-2.186-21.857-2.435-27.257c-.324-7,1.307-10.863,1.307-10.863s-.621-4.4-1.7-13.46c-.761-6.4-1.779-13.685-1.779-13.685s-.99,9.02-1.592,14.047c-.559,4.661-1.5,8.345-2.9,17.035-1.213,7.537-4.526,23.493-4.526,23.493a4.946,4.946,0,0,1-5.692-.281S128.849,404.746,129.8,398.205Z" transform="translate(-129.554 -343.701)" fill="#5dc2ae"/>
                </g>
              </g>
              <path id="Trazado_4015" data-name="Trazado 4015" d="M146.022,371.2l-1.372-8.9s-5.645-1.8-8.516-5.156a12.085,12.085,0,0,0,6.794,6.016l2.107,7.5.36,6.187Z" transform="translate(-129.897 -344.401)"/>
            </g>
            <g id="Grupo_22972" data-name="Grupo 22972" transform="translate(2.59)">
              <path id="Trazado_4016" data-name="Trazado 4016" d="M151.048,303.207l-1.355,9.519-8.563-.3.823-11.122Z" transform="translate(-132.385 -277.004)" fill="#ffa8a7"/>
              <g id="Grupo_22962" data-name="Grupo 22962" transform="translate(24.81 14.454)">
                <path id="Trazado_4017" data-name="Trazado 4017" d="M158.078,290.916s2.3,3.369,2.047,3.707-1.9.666-1.9.666Z" transform="translate(-158.078 -290.916)" fill="#f28f8f"/>
              </g>
              <g id="Grupo_22963" data-name="Grupo 22963" transform="translate(21.215 11.058)">
                <path id="Trazado_4018" data-name="Trazado 4018" d="M154.285,290.176a2.8,2.8,0,1,1,2.842,2.754A2.8,2.8,0,0,1,154.285,290.176Zm.622-.01a2.176,2.176,0,1,0,2.141-2.21A2.178,2.178,0,0,0,154.907,290.165Z" transform="translate(-154.285 -287.334)" fill="#263238"/>
              </g>
              <g id="Grupo_22964" data-name="Grupo 22964" transform="translate(4.55 4.75)">
                <path id="Trazado_4019" data-name="Trazado 4019" d="M150.585,281.062c4.557.885,5.9,2.861,6.44,10.068.566,7.53-.166,9.911-1.139,10.942-.658.7-4.371.878-6.252.392-2.356-.61-7.686-2.4-10.228-6.157-2.99-4.414-3.852-10.448-.766-12.977C142.984,279.77,148.731,280.7,150.585,281.062Z" transform="translate(-136.704 -280.679)" fill="#ffa8a7"/>
              </g>
              <path id="Trazado_4020" data-name="Trazado 4020" d="M151.517,303.777c1.96.216,4.6-.007,5.14-.583a13.406,13.406,0,0,1-4.873-.959Z" transform="translate(-132.926 -277.052)" fill="#f28f8f"/>
              <g id="Grupo_22966" data-name="Grupo 22966">
                <g id="Grupo_22965" data-name="Grupo 22965">
                  <path id="Trazado_4021" data-name="Trazado 4021" d="M157.481,282.618q-.068.073-.139.142c-.9.881-2.063,1.45-3,2.286a7.065,7.065,0,0,0-2.1,3.469c-.3,1.1-.4,2.394-1.58,2.92,0,0-.8-2.9-3.248-2.5-2.467.408-2.751,3.566-1.163,5.456s3.03,1.134,3.03,1.134-.01,4.168-1.819,6.556a12.593,12.593,0,0,1-5.967-.049c-2.383-.468-5.788-3.384-7.249-6.505-3.091-6.6-3.394-12.582.822-14.443.411-3.071,2.8-4.483,5.542-5.158,4.1-1.01,7.983,1.372,12.036.4.849-.2,1.673-.522,2.538-.644a.518.518,0,0,1,.295.02c.209.1.2.4.143.624a5.329,5.329,0,0,1-1.161,2.215,12.656,12.656,0,0,0,4.6-.655A5.935,5.935,0,0,1,157.481,282.618Z" transform="translate(-131.904 -275.668)" fill="#263238"/>
                </g>
              </g>
              <g id="Grupo_22971" data-name="Grupo 22971" transform="translate(1.021 4.543)">
                <g id="Grupo_22968" data-name="Grupo 22968">
                  <g id="Grupo_22967" data-name="Grupo 22967">
                    <path id="Trazado_4022" data-name="Trazado 4022" d="M135.723,282.817l-2.742-1.558a1.577,1.577,0,0,1,2.742,1.558Z" transform="translate(-132.981 -280.461)" fill="#263238"/>
                  </g>
                </g>
                <g id="Grupo_22970" data-name="Grupo 22970" transform="translate(17.641 9.703)">
                  <g id="Grupo_22969" data-name="Grupo 22969">
                    <path id="Trazado_4023" data-name="Trazado 4023" d="M151.726,293.851l-.134-3.152a1.577,1.577,0,1,1,.134,3.152Z" transform="translate(-151.592 -290.698)" fill="#263238"/>
                  </g>
                </g>
              </g>
              <path id="Trazado_4024" data-name="Trazado 4024" d="M159.438,289.626l-8.43,1.226.35.588,8.09-1.18Z" transform="translate(-132.899 -276.395)" fill="#263238"/>
            </g>
            <g id="Grupo_22976" data-name="Grupo 22976" transform="translate(1.262 26.967)">
              <g id="Grupo_22973" data-name="Grupo 22973" transform="translate(0 1.831)">
                <path id="Trazado_4025" data-name="Trazado 4025" d="M131.121,311.323c1-3.906,2.41-5.182,5.811-5.273a43.535,43.535,0,0,1,5.229.667c.357,1.65,4.624,2.774,8.942,1.882,1.284.375,4.684,1.3,5.751,1.687,3.056,1.109,4.536,4.281,4.738,14.353,0,0,.585,23.886-.008,28.009a37.127,37.127,0,0,1-20.113,1.881c-9.19-2.057-10.28-5.879-10.28-5.879s.482-9.586.794-16.876c-.461-4.643-1.154-8.134-1.4-11.836A31.19,31.19,0,0,1,131.121,311.323Z" transform="translate(-130.503 -306.049)" fill="#27debf"/>
              </g>
              <g id="Grupo_22974" data-name="Grupo 22974" transform="translate(0 1.831)" opacity="0.6">
                <path id="Trazado_4026" data-name="Trazado 4026" d="M131.121,311.323c1-3.906,2.41-5.182,5.811-5.273a43.535,43.535,0,0,1,5.229.667c.357,1.65,4.624,2.774,8.942,1.882,1.284.375,4.684,1.3,5.751,1.687,3.056,1.109,4.536,4.281,4.738,14.353,0,0,.585,23.886-.008,28.009a37.127,37.127,0,0,1-20.113,1.881c-9.19-2.057-10.28-5.879-10.28-5.879s.482-9.586.794-16.876c-.461-4.643-1.154-8.134-1.4-11.836A31.19,31.19,0,0,1,131.121,311.323Z" transform="translate(-130.503 -306.049)" fill="#fff"/>
              </g>
              <g id="Grupo_22975" data-name="Grupo 22975" transform="translate(8.632)">
                <path id="Trazado_4027" data-name="Trazado 4027" d="M141.674,304.146l-.067.916s.45,1.294,3.048,1.775c4.368.811,5.894-.545,5.894-.545l.113-.786s.418-.172,1.127.373a38.221,38.221,0,0,1,3.022,3.539s-.831-.244-3.561.918a13.027,13.027,0,0,1-8.522.321,4.7,4.7,0,0,1-3.113-3.494C139.507,306.363,140.924,303.818,141.674,304.146Z" transform="translate(-139.61 -304.117)" fill="#27debf"/>
                <path id="Trazado_4028" data-name="Trazado 4028" d="M141.674,304.146l-.067.916s.45,1.294,3.048,1.775c4.368.811,5.894-.545,5.894-.545l.113-.786s.418-.172,1.127.373a38.221,38.221,0,0,1,3.022,3.539s-.831-.244-3.561.918a13.027,13.027,0,0,1-8.522.321,4.7,4.7,0,0,1-3.113-3.494C139.507,306.363,140.924,303.818,141.674,304.146Z" transform="translate(-139.61 -304.117)" opacity="0.25"/>
              </g>
            </g>
            <g id="Grupo_22979" data-name="Grupo 22979" transform="translate(25.808 32.74)">
              <path id="Trazado_4029" data-name="Trazado 4029" d="M157.884,310.316c3.887.488,6.961,1.3,8.655,5,2.874,6.281,5.984,11.434,8.247,13.859,2.418,2.59,12.325,7.144,14.558,6.783s4.462-2.934,5.613-2.269-.978,3.156-.842,3.716,4.191.263,6.105-1.089,2.623,1.441.147,4.342-7.128,3.128-12.18,2.114-15.346-3.421-19.22-6.612c-4.7-3.87-5.539-7.054-7.539-10.523C154.184,318.178,157.884,310.316,157.884,310.316Z" transform="translate(-156.427 -310.213)" fill="#ffa8a7"/>
              <g id="Grupo_22977" data-name="Grupo 22977">
                <path id="Trazado_4030" data-name="Trazado 4030" d="M157.294,310.207s4.163-.009,6.341,1.333,3.552,4.176,5.355,8.1a51.884,51.884,0,0,0,5.915,9.3c.952,1.18,7.863,5.025,7.863,5.025a29.633,29.633,0,0,1-2.036,7.179,60.783,60.783,0,0,1-11.148-3.99c-4.188-2.245-10.56-11.244-10.56-11.244S154.538,319.967,157.294,310.207Z" transform="translate(-156.399 -310.207)" fill="#27debf"/>
                <path id="Trazado_4031" data-name="Trazado 4031" d="M157.294,310.207s4.163-.009,6.341,1.333,3.552,4.176,5.355,8.1a51.884,51.884,0,0,0,5.915,9.3c.952,1.18,7.863,5.025,7.863,5.025a29.633,29.633,0,0,1-2.036,7.179,60.783,60.783,0,0,1-11.148-3.99c-4.188-2.245-10.56-11.244-10.56-11.244S154.538,319.967,157.294,310.207Z" transform="translate(-156.399 -310.207)" opacity="0.15"/>
              </g>
              <g id="Grupo_22978" data-name="Grupo 22978" transform="translate(23.773 23.528)">
                <path id="Trazado_4032" data-name="Trazado 4032" d="M183.651,335.028a16.3,16.3,0,0,1-2.173,7.271,37.24,37.24,0,0,0,3.725.8,9.182,9.182,0,0,0,2.063-6.559Z" transform="translate(-181.478 -335.028)" fill="#27debf"/>
                <path id="Trazado_4033" data-name="Trazado 4033" d="M183.651,335.028a16.3,16.3,0,0,1-2.173,7.271,37.24,37.24,0,0,0,3.725.8,9.182,9.182,0,0,0,2.063-6.559Z" transform="translate(-181.478 -335.028)" opacity="0.3"/>
                <path id="Trazado_4034" data-name="Trazado 4034" d="M185.959,337.1a.436.436,0,1,1-.437-.436A.436.436,0,0,1,185.959,337.1Z" transform="translate(-181.666 -335.113)" fill="#455a64"/>
              </g>
            </g>
          </g>
        </g>
      </g>
    </g>
  </g>
</svg>
