<svg xmlns="http://www.w3.org/2000/svg" width="239.259" height="154" viewBox="0 0 239.259 154">
  <g id="Grupo_23433" data-name="Grupo 23433" transform="translate(-563 -4400)">
    <rect id="Rectángulo_5342" data-name="Rectángulo 5342" width="93" height="112" transform="translate(564 4401)" fill="#e0fffa"/>
    <rect id="Rectángulo_5343" data-name="Rectángulo 5343" width="49" height="112" transform="translate(657 4401)" fill="#e6e6e6"/>
    <rect id="Rectángulo_5344" data-name="Rectángulo 5344" width="95" height="112" transform="translate(706 4401)" fill="#fbeaff"/>
    <rect id="Rectángulo_5345" data-name="Rectángulo 5345" width="236" height="40" transform="translate(565 4513)" fill="#fff3c9"/>
    <g id="Grupo_23422" data-name="Grupo 23422" transform="translate(13474 11488)">
      <g id="Grupo_23115" data-name="Grupo 23115" transform="translate(-13323 -11198.563)">
        <g id="Rectángulo_5165" data-name="Rectángulo 5165" transform="translate(412 4110.563)" fill="none" stroke="#022644" stroke-width="2">
          <rect width="239" height="154" stroke="none"/>
          <rect x="1" y="1" width="237" height="152" fill="none"/>
        </g>
        <path id="Trazado_4253" data-name="Trazado 4253" d="M-14044.93-7220v111.492" transform="translate(14504.565 11331.001)" fill="none" stroke="#022644" stroke-width="2"/>
        <path id="Trazado_4254" data-name="Trazado 4254" d="M-14044.93-7220v111.492" transform="translate(14552.477 11331.001)" fill="none" stroke="#022644" stroke-width="2"/>
        <path id="Trazado_4255" data-name="Trazado 4255" d="M-14044.93-7220v111.492" transform="translate(14600.388 11331.001)" fill="none" stroke="#022644" stroke-width="2"/>
        <path id="Trazado_4256" data-name="Trazado 4256" d="M-14044.93-7220v111.492" transform="translate(14648.299 11331.001)" fill="none" stroke="#022644" stroke-width="2"/>
        <path id="Trazado_4257" data-name="Trazado 4257" d="M-14044.931-7031.508h48.081" transform="translate(14504.566 11198.254)" fill="none" stroke="#022644" stroke-width="2"/>
        <path id="Trazado_4258" data-name="Trazado 4258" d="M-14044.931-7031.508h48.081" transform="translate(14600.22 11198.254)" fill="none" stroke="#022644" stroke-width="2"/>
        <path id="Trazado_4259" data-name="Trazado 4259" d="M-14044.931-7031.508h239.259" transform="translate(14456.931 11254)" fill="none" stroke="#022644" stroke-width="2"/>
        <path id="Trazado_4260" data-name="Trazado 4260" d="M-14044.93-7220v40.733" transform="translate(14574.954 11442.493)" fill="none" stroke="#022644" stroke-width="2"/>
      </g>
    </g>
  </g>
</svg>
