<svg xmlns="http://www.w3.org/2000/svg" width="79.916" height="79.915" viewBox="0 0 79.916 79.915">
  <g id="Grupo_23138" data-name="Grupo 23138" transform="translate(-1365.843 -1335.76)">
    <g id="Grupo_23128" data-name="Grupo 23128" transform="translate(1365.843 1335.76)">
      <path id="Trazado_4288" data-name="Trazado 4288" d="M1390.174,1392.719l-4.005-1.521,2.224-12.508,2.854-1.908,1.767-3.255.972-6.307-5.592-2.7s-7.874-10.8-.883-14.812,11.185-1.557,11.185-1.557l9.057,4.081,1.827-3.4,4,1.364,1.482-3.884,2.559,2.3,3.357-1.119,20.347,9.915a39.96,39.96,0,1,0-35.743,58.265l-15.408-7.514Z" transform="translate(-1365.843 -1335.76)" fill="#5dc2ae"/>
      <path id="Trazado_4289" data-name="Trazado 4289" d="M1512.645,1413.3a39.786,39.786,0,0,0-4.434-18.31l-20.347-9.915-3.357,1.119-2.559-2.3-1.481,3.884-4-1.364-1.827,3.4-9.057-4.081s-4.194-2.46-11.185,1.557.883,14.812.883,14.812l5.592,2.7-.972,6.307-1.767,3.255-2.854,1.908-2.224,12.508,4.005,1.521v15.44l15.408,7.514.219,0A39.958,39.958,0,0,0,1512.645,1413.3Z" transform="translate(-1432.729 -1373.347)" fill="#52af9c"/>
    </g>
    <g id="Grupo_23137" data-name="Grupo 23137" transform="translate(1383.243 1346.309)">
      <g id="Grupo_23136" data-name="Grupo 23136" transform="translate(0 0)">
        <g id="Grupo_23129" data-name="Grupo 23129" transform="translate(1.882 20.911)">
          <path id="Trazado_4290" data-name="Trazado 4290" d="M1476.593,1486.734a3.712,3.712,0,1,0-3.712-3.712A3.712,3.712,0,0,0,1476.593,1486.734Z" transform="translate(-1468.704 -1479.31)" fill="#fff"/>
          <path id="Trazado_4291" data-name="Trazado 4291" d="M1468.974,1531.433h-.335v-.55a1.952,1.952,0,0,0,.836-.887c0-3.828-.067-11.6-.081-11.659a4.267,4.267,0,0,0-3.51-3.471.087.087,0,0,0-.033-.007h0c-.771,0-7.019.009-7.529.014a5.655,5.655,0,0,0-.872.076,4.268,4.268,0,0,0-3.545,3.479c-.015.061-.081,7.83-.081,11.658a1.728,1.728,0,0,0,1.044.959,1.456,1.456,0,0,0,1.9-1.335,6.778,6.778,0,0,0,.013-.692q0-4.131,0-8.265v-.56h.671v.653q0,12.348,0,24.695a5.589,5.589,0,0,0,.081,1.08,1.993,1.993,0,0,0,1.339,1.386h.99a2.2,2.2,0,0,0,1.516-2.411c-.032-4.651-.014-9.3-.014-13.955v-.61h.676v.6c0,4.635.023,9.27-.016,13.9a2.258,2.258,0,0,0,1.5,2.472h.99a2.238,2.238,0,0,0,1.482-2.439q-.012-5.435-.011-10.872V1520.1h.535v.561q0,4.133,0,8.265a6.733,6.733,0,0,0,.013.692,1.445,1.445,0,0,0,1.106,1.35v.464h-.335a1.106,1.106,0,0,0-1.046,1.157v7.666a1.107,1.107,0,0,0,1.046,1.157h1.669a1.106,1.106,0,0,0,1.047-1.157v-7.666A1.106,1.106,0,0,0,1468.974,1531.433Zm-7.295-16.164h.906l-.518,1.338h-.712l-.518-1.338Zm.032,8.772-.954-.775.606-6.06h.7l.606,6.06Z" transform="translate(-1453.824 -1507.068)" fill="#fff"/>
        </g>
        <g id="Grupo_23132" data-name="Grupo 23132" transform="translate(23.384)">
          <g id="Grupo_23131" data-name="Grupo 23131">
            <g id="Grupo_23130" data-name="Grupo 23130">
              <path id="Trazado_4292" data-name="Trazado 4292" d="M1571.083,1395.506v-3.829h-2.189a7.176,7.176,0,0,0-.286-.875l1.772-1.288-2.252-3.1-1.772,1.287a7.383,7.383,0,0,0-.745-.538l.677-2.085-3.642-1.183-.677,2.084c-.151-.009-.305-.015-.459-.015s-.308.005-.459.015l-.679-2.084-3.641,1.183.678,2.085a7.517,7.517,0,0,0-.746.538l-1.773-1.287-2.25,3.1,1.772,1.288a7.645,7.645,0,0,0-.286.875h-2.189v3.829h2.189a7.636,7.636,0,0,0,.286.875l-1.772,1.288,2.25,3.1,1.773-1.288a7.776,7.776,0,0,0,.746.54l-.678,2.085,3.641,1.183.679-2.085q.227.015.459.015c.154,0,.308-.005.459-.015l.677,2.085,3.642-1.183-.677-2.085a7.716,7.716,0,0,0,.746-.54l1.771,1.288,2.252-3.1-1.772-1.289a7.107,7.107,0,0,0,.286-.874Zm-9.573.384a2.3,2.3,0,1,1,2.3-2.3A2.3,2.3,0,0,1,1561.51,1395.89Z" transform="translate(-1551.938 -1383.896)" fill="#fff"/>
            </g>
          </g>
        </g>
        <g id="Grupo_23134" data-name="Grupo 23134" transform="translate(0 0.014)">
          <path id="Trazado_4293" data-name="Trazado 4293" d="M1476.457,1418.427h0a1.088,1.088,0,0,0,.218-.024c.02,0,.041-.012.062-.018a.961.961,0,0,0,.145-.049l.072-.037a1.1,1.1,0,0,0,.12-.076.592.592,0,0,0,.07-.056.364.364,0,0,0,.046-.037c.021-.02.037-.044.057-.065s.03-.027.04-.042l3.12-4a1.052,1.052,0,1,0-1.658-1.295l-2.378,3.052-1.1-1.135a1.052,1.052,0,1,0-1.51,1.465l1.946,2c.017.017.037.03.054.046s.035.035.055.051.022.014.034.021l.064.042c.036.021.071.041.108.059a.7.7,0,0,0,.068.028,1.141,1.141,0,0,0,.126.039c.019,0,.038.01.058.013A1.189,1.189,0,0,0,1476.457,1418.427Z" transform="translate(-1467.275 -1406.104)" fill="#fff"/>
          <g id="Grupo_23133" data-name="Grupo 23133">
            <path id="Trazado_4294" data-name="Trazado 4294" d="M1487.966,1400.3a.882.882,0,1,0-.881.882A.883.883,0,0,0,1487.966,1400.3Z" transform="translate(-1477.225 -1396.027)" fill="#fff"/>
            <path id="Trazado_4295" data-name="Trazado 4295" d="M1460.679,1424.877a.883.883,0,1,0,.882-.882A.882.882,0,0,0,1460.679,1424.877Z" transform="translate(-1457.295 -1415.221)" fill="#fff"/>
            <path id="Trazado_4296" data-name="Trazado 4296" d="M1510.462,1425.735a.882.882,0,1,0-.882-.883A.882.882,0,0,0,1510.462,1425.735Z" transform="translate(-1495.479 -1415.202)" fill="#fff"/>
            <path id="Trazado_4297" data-name="Trazado 4297" d="M1461.387,1386.339a9.562,9.562,0,1,0,3.391,7.3A9.725,9.725,0,0,0,1461.387,1386.339Zm-6.379,14.58a7.277,7.277,0,1,1,7.365-7.276A7.374,7.374,0,0,1,1455.008,1400.918Z" transform="translate(-1445.238 -1383.96)" fill="#fff"/>
            <path id="Trazado_4298" data-name="Trazado 4298" d="M1487.1,1450.327a.882.882,0,1,0-.882-.882A.882.882,0,0,0,1487.1,1450.327Z" transform="translate(-1477.235 -1434.405)" fill="#fff"/>
          </g>
        </g>
        <g id="Grupo_23135" data-name="Grupo 23135" transform="translate(24.857 20.911)">
          <path id="Trazado_4299" data-name="Trazado 4299" d="M1581.431,1486.734a3.712,3.712,0,1,0-3.712-3.712A3.712,3.712,0,0,0,1581.431,1486.734Z" transform="translate(-1573.542 -1479.31)" fill="#fff"/>
          <path id="Trazado_4300" data-name="Trazado 4300" d="M1573.811,1531.433h-.335v-.55a1.956,1.956,0,0,0,.836-.887c0-3.828-.066-11.6-.081-11.659a4.267,4.267,0,0,0-3.509-3.471.09.09,0,0,0-.035-.007h0c-.772,0-7.019.009-7.529.014a5.658,5.658,0,0,0-.871.076,4.268,4.268,0,0,0-3.545,3.479c-.014.061-.081,7.83-.081,11.658a1.727,1.727,0,0,0,1.045.959,1.455,1.455,0,0,0,1.9-1.335,6.607,6.607,0,0,0,.014-.692q0-4.131,0-8.265v-.56h.67v.653q0,12.348,0,24.695a5.687,5.687,0,0,0,.082,1.08,1.994,1.994,0,0,0,1.339,1.386h.991a2.2,2.2,0,0,0,1.515-2.411c-.032-4.651-.013-9.3-.013-13.955v-.61h.675v.6c0,4.635.023,9.27-.016,13.9a2.258,2.258,0,0,0,1.5,2.472h.99a2.24,2.24,0,0,0,1.483-2.439q-.013-5.435-.012-10.872V1520.1h.534v.561q0,4.133,0,8.265c0,.231-.01.463.013.692a1.445,1.445,0,0,0,1.107,1.35v.464h-.335a1.106,1.106,0,0,0-1.047,1.157v7.666a1.106,1.106,0,0,0,1.047,1.157h1.669a1.107,1.107,0,0,0,1.047-1.157v-7.666A1.107,1.107,0,0,0,1573.811,1531.433Zm-7.294-16.164h.906l-.518,1.338h-.712l-.518-1.338Zm.032,8.772-.955-.775.607-6.06h.7l.605,6.06Z" transform="translate(-1558.66 -1507.068)" fill="#fff"/>
        </g>
      </g>
    </g>
  </g>
</svg>
