<svg xmlns="http://www.w3.org/2000/svg" width="79.916" height="79.916" viewBox="0 0 79.916 79.916">
  <g id="Grupo_23162" data-name="Grupo 23162" transform="translate(-498.324 -467.226)">
    <g id="Grupo_23154" data-name="Grupo 23154" transform="translate(498.324 467.226)">
      <path id="Trazado_4327" data-name="Trazado 4327" d="M511.544,515.949,508,512.623l.866-14.706,5.014-2.7,1.415-2.962.8-1.184,3.177-8.313,2.8,1.954,2.095-.977L546.5,493.1l6.261-6.6,1.023-3.976,3,1.5,6.524-1.119L573.871,489a39.963,39.963,0,1,0-41.77,57.668l-19.436-12.3Z" transform="translate(-498.324 -467.226)" fill="#f2baff"/>
      <path id="Trazado_4328" data-name="Trazado 4328" d="M612.7,561.7a39.79,39.79,0,0,0-4.369-18.187l-10.563-6.084-6.524,1.119-3-1.5-1.023,3.976-6.261,6.6-22.334-9.365-2.095.977-2.8-1.954-3.177,8.313-.8,1.184-1.415,2.962-5.014,2.7-.866,14.706L546,570.465l1.121,18.413,19.436,12.3A39.986,39.986,0,0,0,612.7,561.7Z" transform="translate(-532.782 -521.743)" fill="#f0a5ff"/>
    </g>
    <g id="Grupo_23161" data-name="Grupo 23161" transform="translate(506.174 481.732)">
      <g id="Grupo_23157" data-name="Grupo 23157" transform="translate(0 0)">
        <path id="Trazado_4329" data-name="Trazado 4329" d="M563.416,542.957a4.772,4.772,0,1,0-4.772-4.772A4.773,4.773,0,0,0,563.416,542.957Z" transform="translate(-553.274 -533.413)" fill="#fff"/>
        <g id="Grupo_23155" data-name="Grupo 23155" transform="translate(9.015 10.524)">
          <path id="Trazado_4330" data-name="Trazado 4330" d="M576.481,592.588h-.44l-.765,7.651,1.2.979,1.2-.979-.765-7.651Z" transform="translate(-575.277 -590.143)" fill="none"/>
          <path id="Trazado_4331" data-name="Trazado 4331" d="M576.8,583.121h.491l.654-1.69h-2.207l.654,1.69Z" transform="translate(-575.638 -581.431)" fill="none"/>
        </g>
        <path id="Trazado_4332" data-name="Trazado 4332" d="M558.588,556.395l-4.781-8.643a1.837,1.837,0,1,0-3.215,1.778l2.884,5.213-3.694-.707v-.075a5.587,5.587,0,0,0-1.472-.048c-.562-.008-1.125-.011-1.686-.015l-4.683-.006c-.672,0-1.344.006-2.016.012-.145,0-.286.01-.426.019a5.508,5.508,0,0,0-5.251,4.55c-.019.079-.1,10.067-.1,14.987a2.218,2.218,0,0,0,1.343,1.233,1.847,1.847,0,0,0,2.279-1.063,2.366,2.366,0,0,0,.161-.653,8.589,8.589,0,0,0,.017-.89q0-5.311,0-10.624v-.721h.862v.84q0,15.873,0,31.746a7.183,7.183,0,0,0,.1,1.389,2.561,2.561,0,0,0,1.72,1.782h1.273a2.73,2.73,0,0,0,1.941-2.775c0-.107.007-.214.007-.325-.041-5.98-.018-11.96-.018-17.94v-.785h.869v.77c0,5.959.03,11.918-.02,17.876-.013,1.532.44,2.632,1.931,3.178h1.272c1.478-.534,1.91-1.649,1.906-3.136q-.037-15.664-.013-31.328v-4.259l6.854,1.312a1.817,1.817,0,0,0,.346.033,1.837,1.837,0,0,0,1.607-2.726Zm-14.267-2h1.144l-.654,1.69h-.9l-.654-1.69Zm.041,11.075-1.2-.979.765-7.651h.879l.765,7.651Z" transform="translate(-534.143 -543.869)" fill="#fff"/>
        <g id="Grupo_23156" data-name="Grupo 23156" transform="translate(14.057 0.779)">
          <path id="Trazado_4333" data-name="Trazado 4333" d="M600.162,544.556a1.427,1.427,0,0,0,.854-.94l1.27-4.464a1.431,1.431,0,0,0-.94-1.755.444.444,0,0,0-.313-.332l-.285-.081a.445.445,0,0,0-.549.306l-.379,1.33a.445.445,0,0,0,.306.549l.285.081a.444.444,0,0,0,.375-.062l-1,3.524a.441.441,0,0,0-.27-.217l-.285-.081a.445.445,0,0,0-.549.306l-.378,1.329a.444.444,0,0,0,.306.549l.285.081a.443.443,0,0,0,.384-.069,1.4,1.4,0,0,0,.162.032h0a1.527,1.527,0,0,0,.73-.089Z" transform="translate(-598.285 -536.967)" fill="#fff"/>
        </g>
      </g>
      <g id="Grupo_23160" data-name="Grupo 23160" transform="translate(39.459 0)">
        <path id="Trazado_4334" data-name="Trazado 4334" d="M763.5,542.957a4.772,4.772,0,1,1,4.772-4.772A4.773,4.773,0,0,1,763.5,542.957Z" transform="translate(-748.97 -533.413)" fill="#fff"/>
        <g id="Grupo_23158" data-name="Grupo 23158" transform="translate(13.251 10.524)">
          <path id="Trazado_4335" data-name="Trazado 4335" d="M775.857,592.588h.44l.765,7.651-1.2.979-1.2-.979.765-7.651Z" transform="translate(-774.652 -590.143)" fill="none"/>
          <path id="Trazado_4336" data-name="Trazado 4336" d="M776.256,583.121h-.49l-.654-1.69h2.207l-.654,1.69Z" transform="translate(-775.011 -581.431)" fill="none"/>
        </g>
        <path id="Trazado_4337" data-name="Trazado 4337" d="M714.54,558.362a1.837,1.837,0,0,0,1.487.759,1.813,1.813,0,0,0,.345-.033l6.854-1.312v4.259q0,15.665-.012,31.328c0,1.487.428,2.6,1.906,3.136h1.272c1.491-.545,1.944-1.646,1.931-3.178-.05-5.959-.02-11.917-.02-17.876v-.77h.869v.785c0,5.98.023,11.96-.018,17.94,0,.11,0,.218.007.325A2.73,2.73,0,0,0,731.1,596.5h1.273a2.562,2.562,0,0,0,1.72-1.782,7.183,7.183,0,0,0,.1-1.389q.009-15.873,0-31.746v-.84h.862v.721q0,5.312,0,10.624a8.657,8.657,0,0,0,.017.89,2.366,2.366,0,0,0,.161.653,1.848,1.848,0,0,0,2.279,1.063,2.219,2.219,0,0,0,1.342-1.233c0-4.921-.085-14.908-.1-14.987a5.509,5.509,0,0,0-5.251-4.55c-.14-.009-.281-.018-.426-.019-.672-.006-1.344-.009-2.016-.012l-4.683.006c-.562,0-1.125.007-1.686.015a5.589,5.589,0,0,0-1.473.048v.075l-3.694.707,2.884-5.213a1.837,1.837,0,1,0-3.214-1.778l-4.781,8.643A1.837,1.837,0,0,0,714.54,558.362Zm15.209-3.97-.654,1.69h-.9l-.654-1.69h2.207Zm-2.308,10.1.765-7.651h.879l.765,7.651-1.2.979Z" transform="translate(-714.19 -543.869)" fill="#fff"/>
        <g id="Grupo_23159" data-name="Grupo 23159" transform="translate(6.562 0.779)">
          <path id="Trazado_4338" data-name="Trazado 4338" d="M746.309,544.556a1.427,1.427,0,0,1-.854-.94l-1.271-4.464a1.432,1.432,0,0,1,.94-1.755.444.444,0,0,1,.313-.332l.285-.081a.445.445,0,0,1,.549.306l.379,1.33a.445.445,0,0,1-.306.549l-.285.081a.444.444,0,0,1-.375-.062l1,3.524a.44.44,0,0,1,.27-.217l.285-.081a.444.444,0,0,1,.549.306l.379,1.329a.445.445,0,0,1-.306.549l-.285.081a.444.444,0,0,1-.384-.069,1.39,1.39,0,0,1-.162.032h0a1.528,1.528,0,0,1-.73-.089Z" transform="translate(-744.13 -536.967)" fill="#fff"/>
        </g>
      </g>
      <path id="Trazado_4339" data-name="Trazado 4339" d="M619.5,588.24c-7.276,0-11.535-4.461-13.826-8.2a26.992,26.992,0,0,1-3.249-8.17l.493-.09a26.463,26.463,0,0,0,3.191,8.011c3.235,5.277,7.74,7.952,13.391,7.952s10.174-2.68,13.427-7.965a26.512,26.512,0,0,0,3.211-8l.492.092a27.1,27.1,0,0,1-3.277,8.17C631.048,583.779,626.775,588.24,619.5,588.24Z" transform="translate(-587.46 -563.368)" fill="#fff"/>
    </g>
  </g>
</svg>
