<svg xmlns="http://www.w3.org/2000/svg" width="79.916" height="79.916" viewBox="0 0 79.916 79.916">
  <g id="Grupo_23192" data-name="Grupo 23192" transform="translate(-934.883 -58.257)">
    <g id="Grupo_23187" data-name="Grupo 23187" transform="translate(934.883 58.257)">
      <path id="Trazado_4378" data-name="Trazado 4378" d="M956,112.192c0-.678-2.12-3.412-2.12-3.412l-.7-11.4-2.018-1.72.872-11.223,3.566-.849.9-2.252,1.652-3.549,10.394,4.665,1.585-8.943,3.066-.958.136-1.617,2.473-5.223L1012.8,85.7a39.962,39.962,0,1,0-37.955,52.477c.935,0,1.862-.035,2.781-.1l-28.791-15.607S956,112.869,956,112.192Z" transform="translate(-934.883 -58.257)" fill="#e5c438"/>
      <path id="Trazado_4379" data-name="Trazado 4379" d="M1064.495,124.779a39.917,39.917,0,0,0-2-12.519L1025.5,92.276l-2.473,5.223-.136,1.617-3.066.958-1.585,8.943-10.394-4.665L1006.2,107.9l-.9,2.252-3.566.849-.872,11.223,2.018,1.72.7,11.4s2.12,2.734,2.12,3.412-7.168,10.277-7.168,10.277l28.791,15.607A39.959,39.959,0,0,0,1064.495,124.779Z" transform="translate(-984.579 -84.82)" fill="#ccae2e"/>
    </g>
    <g id="Grupo_23191" data-name="Grupo 23191" transform="translate(948.831 65.117)">
      <g id="Grupo_23188" data-name="Grupo 23188" transform="translate(1.517 12.076)">
        <path id="Trazado_4380" data-name="Trazado 4380" d="M1007.761,175.818v-.438h.524v.51q0,9.65,0,19.3a4.31,4.31,0,0,0,.064.845,1.554,1.554,0,0,0,1.046,1.082h.774a1.719,1.719,0,0,0,1.184-1.883c-.025-3.636-.01-7.272-.01-10.907v-.477h.527v.468c0,3.623.018,7.246-.012,10.868a1.762,1.762,0,0,0,1.174,1.931h.773a1.75,1.75,0,0,0,1.159-1.906q-.023-9.647-.008-19.295v-.528h.5v.46q0,3.267,0,6.535a3.95,3.95,0,0,0,.032.539,1.132,1.132,0,0,0,2.254-.14c.009-1.8,0-3.609,0-5.413,0-.863,0-1.727,0-2.59a3.427,3.427,0,0,0-3.489-3.549q-.958-.014-1.917-.017v.3l-.408.83-.065.171.395,6.742-.695.779-.01-.011-.01.011-.695-.779.4-6.742-.065-.171-.408-.83v-.3q-.907,0-1.815.011a3.369,3.369,0,0,0-3.451,2.778.735.735,0,0,1-.063.136v8.976a1.35,1.35,0,0,0,.816.749,1.137,1.137,0,0,0,1.483-1.043,5.193,5.193,0,0,0,.01-.541Q1007.761,179.049,1007.761,175.818Z" transform="translate(-1005.451 -165.393)" fill="#fff"/>
        <path id="Trazado_4381" data-name="Trazado 4381" d="M1023.919,149.91a2.647,2.647,0,0,0,2.7-1.6,2.565,2.565,0,0,0-.786-3.056,6.9,6.9,0,0,0-1.149-.6h-1.006c-.114.051-.224.113-.341.152a2.649,2.649,0,0,0-1.721,3.01A2.677,2.677,0,0,0,1023.919,149.91Z" transform="translate(-1018.029 -144.661)" fill="#fff"/>
      </g>
      <path id="Trazado_4382" data-name="Trazado 4382" d="M1033.865,251.73V239.59h-20.03v12.14H998.527v12.331h50.645V251.73Z" transform="translate(-998.527 -206.71)" fill="#fff"/>
      <g id="Grupo_23189" data-name="Grupo 23189" transform="translate(37.037 12.076)">
        <path id="Trazado_4383" data-name="Trazado 4383" d="M1169.832,175.818v-.438h.524v.51q0,9.65,0,19.3a4.3,4.3,0,0,0,.065.845,1.553,1.553,0,0,0,1.045,1.082h.774a1.72,1.72,0,0,0,1.184-1.883c-.024-3.636-.01-7.272-.01-10.907v-.477h.528v.468c0,3.623.018,7.246-.012,10.868a1.763,1.763,0,0,0,1.174,1.931h.773a1.75,1.75,0,0,0,1.16-1.906q-.023-9.647-.008-19.295v-.528h.5v.46q0,3.267,0,6.535a3.95,3.95,0,0,0,.032.539,1.132,1.132,0,0,0,2.254-.14c.008-1.8,0-3.609,0-5.413,0-.863,0-1.727,0-2.59a3.428,3.428,0,0,0-3.489-3.549q-.959-.014-1.917-.017v.3l-.408.83-.064.171.4,6.742-.7.779-.01-.011-.01.011-.695-.779.395-6.742-.064-.171-.409-.83v-.3q-.908,0-1.815.011a3.37,3.37,0,0,0-3.451,2.778.759.759,0,0,1-.063.136v8.976a1.349,1.349,0,0,0,.816.749,1.138,1.138,0,0,0,1.483-1.043,5.3,5.3,0,0,0,.01-.541Q1169.832,179.049,1169.832,175.818Z" transform="translate(-1167.522 -165.393)" fill="#fff"/>
        <path id="Trazado_4384" data-name="Trazado 4384" d="M1185.989,149.91a2.647,2.647,0,0,0,2.7-1.6,2.565,2.565,0,0,0-.787-3.056,6.878,6.878,0,0,0-1.149-.6h-1.006c-.114.051-.224.113-.341.152a2.65,2.65,0,0,0-1.721,3.01A2.678,2.678,0,0,0,1185.989,149.91Z" transform="translate(-1180.099 -144.661)" fill="#fff"/>
      </g>
      <g id="Grupo_23190" data-name="Grupo 23190" transform="translate(19.17)">
        <path id="Trazado_4385" data-name="Trazado 4385" d="M1088.31,120.716v-.438h.524v.51q0,9.65,0,19.3a4.319,4.319,0,0,0,.064.845,1.554,1.554,0,0,0,1.046,1.082h.774a1.719,1.719,0,0,0,1.184-1.884c-.025-3.636-.01-7.271-.01-10.907v-.477h.527v.468c0,3.623.018,7.246-.012,10.868a1.762,1.762,0,0,0,1.173,1.931h.774a1.75,1.75,0,0,0,1.159-1.906q-.023-9.647-.008-19.295v-.528h.5v.46q0,3.267,0,6.535a3.949,3.949,0,0,0,.032.539,1.132,1.132,0,0,0,2.254-.14c.009-1.8,0-3.609,0-5.413,0-.863,0-1.727,0-2.59a3.427,3.427,0,0,0-3.489-3.549q-.957-.014-1.916-.018v.3l-.409.83-.065.171.4,6.742-.695.779-.01-.011-.01.011-.695-.779.4-6.742-.064-.171-.408-.83v-.3q-.908,0-1.816.011a3.369,3.369,0,0,0-3.451,2.778.723.723,0,0,1-.064.136v8.976a1.35,1.35,0,0,0,.817.749,1.137,1.137,0,0,0,1.482-1.043,5.093,5.093,0,0,0,.011-.541Q1088.31,123.946,1088.31,120.716Z" transform="translate(-1086 -110.291)" fill="#fff"/>
        <path id="Trazado_4386" data-name="Trazado 4386" d="M1104.469,94.808a2.647,2.647,0,0,0,2.7-1.6,2.565,2.565,0,0,0-.787-3.056,6.876,6.876,0,0,0-1.149-.6h-1.006c-.113.051-.224.113-.34.152a2.65,2.65,0,0,0-1.722,3.01A2.677,2.677,0,0,0,1104.469,94.808Z" transform="translate(-1098.578 -89.559)" fill="#fff"/>
      </g>
      <path id="Trazado_4387" data-name="Trazado 4387" d="M1103.033,271.629c-1.413-.532-1.992-.883-1.992-1.425,0-.467.352-.929,1.428-.929a5.506,5.506,0,0,1,2.383.563l.479-1.871a6.031,6.031,0,0,0-2.4-.551v-1.457h-1.62v1.577a3.057,3.057,0,0,0-2.8,2.945c0,1.61,1.208,2.436,2.983,3.032,1.227.416,1.753.816,1.753,1.444,0,.661-.643,1.027-1.588,1.027a5.865,5.865,0,0,1-2.748-.729l-.5,1.938a6.71,6.71,0,0,0,2.816.71v1.575h1.624v-1.694a3.169,3.169,0,0,0,2.947-3.063C1105.8,273.234,1105,272.323,1103.033,271.629Z" transform="translate(-1076.522 -227.299)" fill="#a58721"/>
    </g>
  </g>
</svg>
