<svg xmlns="http://www.w3.org/2000/svg" width="405.328" height="228.893" viewBox="0 0 405.328 228.893">
  <g id="Grupo_23821" data-name="Grupo 23821" transform="translate(-128.881 -160.72)">
    <path id="Trazado_4393" data-name="Trazado 4393" d="M144.452,388.657c.1-1.666-39.116-51.682,6.547-97.861,20.614-20.846,55.482-9.551,49.967-70.448-4.762-52.579,77.492-83.474,128.612-36.53,33.027,30.33,66.463-10.131,118.86,12.826S466.331,282,487.832,287.879c42.353,11.582,63.389,62.549,29.622,100.213Z" fill="#d1f8f2"/>
    <g id="Grupo_23207" data-name="Grupo 23207" transform="translate(208.532 206.889)">
      <path id="Trazado_4394" data-name="Trazado 4394" d="M743.384,511.925c-.222-.458-.467-.924-.728-1.382l.738-.419c.27.474.524.956.754,1.431Zm-1.543-2.718c-.281-.431-.581-.864-.892-1.288l.684-.5c.32.436.63.883.919,1.327Zm-84.274,9.353c-.537.058-1.076.1-1.6.134l-.05-.847c.514-.03,1.04-.074,1.563-.131Zm1.6-.21-.13-.838c.51-.079,1.031-.172,1.547-.275l.167.832C660.218,518.174,659.685,518.269,659.162,518.35Zm-4.809.4c-.54,0-1.082-.006-1.611-.03l.039-.848c.514.024,1.041.034,1.566.03Zm7.962-1.028-.2-.824c.5-.123,1.014-.259,1.52-.4l.234.815C663.351,517.455,662.829,517.594,662.315,517.72Zm-11.182.878c-.536-.055-1.075-.126-1.6-.212l.136-.837c.509.083,1.03.152,1.55.205Zm14.269-1.763-.265-.806c.492-.162.992-.336,1.486-.518l.293.8C666.414,516.492,665.9,516.67,665.4,516.835Zm3.01-1.11-.321-.785c.48-.2.968-.4,1.448-.62l.346.774C669.4,515.313,668.9,515.525,668.412,515.725Zm-20.464,2.354c-.528-.12-1.054-.257-1.564-.407l.241-.814c.492.145,1,.278,1.511.394Zm92.039-11.4c-.328-.4-.673-.8-1.025-1.187l.628-.571c.361.4.716.808,1.054,1.22Zm-68.648,7.735-.37-.763c.467-.227.941-.465,1.408-.71l.393.752C672.3,513.944,671.814,514.186,671.339,514.417Zm-26.49,2.745c-.507-.187-1.011-.394-1.5-.613l.349-.773c.469.211.954.41,1.443.591Zm29.329-4.228-.414-.74c.454-.254.913-.52,1.367-.789l.434.729C675.106,512.407,674.639,512.676,674.179,512.934Zm63.7-8.573c-.369-.367-.752-.73-1.139-1.08l.569-.63c.4.359.79.732,1.169,1.108ZM641.9,515.831c-.475-.257-.945-.533-1.4-.822l.457-.714c.434.278.885.544,1.342.79ZM676.93,511.3l-.453-.718c.439-.277.884-.566,1.325-.86l.47.706C677.826,510.722,677.374,511.015,676.93,511.3Zm2.662-1.775-.487-.695c.426-.3.857-.609,1.283-.922l.5.683C680.46,508.905,680.023,509.219,679.592,509.522Zm-40.418,4.562c-.431-.325-.854-.67-1.257-1.025l.561-.636c.386.341.792.672,1.206.983Zm96.375-11.827c-.4-.33-.818-.654-1.237-.965l.506-.681c.43.319.857.652,1.269.99Zm-53.382,5.369-.518-.672.126-.1q.572-.443,1.143-.87l.508.679q-.564.423-1.133.862Zm50.862-7.24c-.432-.29-.877-.574-1.323-.844l.439-.726c.458.276.915.568,1.358.865ZM636.746,511.94c-.375-.387-.738-.794-1.08-1.209l.655-.539c.328.4.676.788,1.035,1.159Zm47.957-6.21-.5-.688c.433-.311.873-.621,1.306-.92l.482.7C685.566,505.115,685.131,505.422,684.7,505.73Zm45.642-6.967c-.458-.248-.928-.488-1.4-.714l.368-.764c.482.232.964.478,1.433.733Zm-43.039,5.172-.467-.708c.447-.3.9-.587,1.343-.866l.452.718C688.195,503.355,687.748,503.643,687.305,503.935Zm-52.62,5.5c-.308-.441-.6-.9-.875-1.367l.732-.428c.261.447.543.887.838,1.31Zm55.3-7.187-.436-.728c.457-.274.922-.545,1.381-.806l.419.738C690.89,501.713,690.431,501.981,689.98,502.251Zm37.538-4.85c-.48-.2-.971-.4-1.459-.578l.294-.8c.5.185,1,.384,1.5.593Zm-34.791,3.291-.4-.748c.47-.252.947-.5,1.42-.738l.381.758C693.661,500.2,693.19,500.444,692.727,500.692Zm31.847-4.377c-.5-.157-1-.3-1.507-.437l.217-.82c.517.137,1.037.288,1.545.448Zm-29.027,2.959-.361-.768c.484-.228.975-.45,1.459-.661l.339.778C696.508,498.831,696.024,499.05,695.547,499.275Zm-62.5,7.364c-.234-.484-.452-.984-.647-1.487l.79-.308c.188.482.4.962.621,1.426Zm88.495-11.125c-.508-.109-1.026-.208-1.542-.294l.139-.837c.528.088,1.06.189,1.58.3Zm-23.1,2.5-.316-.787c.5-.2,1-.393,1.5-.575l.292.8C699.423,497.628,698.927,497.818,698.438,498.014ZM718.446,495c-.517-.062-1.043-.112-1.563-.151l.062-.846c.532.039,1.071.091,1.6.154ZM701.4,496.93l-.266-.806c.509-.168,1.024-.329,1.531-.478l.24.814C702.4,496.607,701.9,496.765,701.4,496.93Zm13.918-2.163c-.518-.015-1.046-.019-1.57-.011l-.013-.848c.537-.008,1.078,0,1.607.011Zm-10.9,1.275-.211-.822c.517-.133,1.043-.258,1.561-.371l.181.829C705.443,495.789,704.927,495.912,704.42,496.042Zm7.756-1.229c-.519.03-1.046.071-1.567.123l-.084-.844c.532-.053,1.071-.1,1.6-.125Zm-4.681.558-.15-.835c.528-.1,1.062-.18,1.586-.254l.117.84C708.534,495.194,708.012,495.278,707.495,495.37Zm-75.625,8.249c-.155-.512-.294-1.039-.412-1.568l.828-.185c.113.508.246,1.014.4,1.506Zm-.706-3.16q-.043-.292-.078-.586c-.041-.339-.075-.683-.1-1.023l.846-.064c.025.327.057.659.1.986q.034.283.076.564Zm.6-3.233-.848.007c0-.533.01-1.077.042-1.617l.847.049C631.776,496.187,631.763,496.712,631.767,497.226Zm.18-3.119-.842-.1c.063-.521.143-1.051.239-1.575l.839.128-.006.033C632.085,493.09,632.008,493.6,631.947,494.108Zm.549-3.087-.828-.187c.118-.522.248-1.047.388-1.56l.819.222C632.738,490,632.611,490.511,632.5,491.021Zm29.023-4.293a11.694,11.694,0,0,1-1.648.042l.04-.847a10.873,10.873,0,0,0,1.528-.039Zm1.62-.256-.182-.829a14.307,14.307,0,0,0,1.487-.414l.271.8A15.2,15.2,0,0,1,663.139,486.472Zm-4.914.086a8.435,8.435,0,0,1-1.59-.512l.341-.777a7.616,7.616,0,0,0,1.43.461Zm8.007-1.124-.35-.773c.466-.211.93-.448,1.379-.705l.422.736C667.211,484.963,666.723,485.212,666.232,485.434Zm2.825-1.616-.488-.694c.423-.3.835-.617,1.224-.949l.551.645C669.935,483.17,669.5,483.506,669.057,483.819Zm-35.738,4.172-.808-.258c.163-.51.339-1.021.523-1.52l.8.294C633.65,486.994,633.478,487.493,633.319,487.991Zm21.861-2.787a7.24,7.24,0,0,1-1.226-1.154l.649-.546a6.422,6.422,0,0,0,1.082,1.019Zm16.352-3.5-.61-.59a15.426,15.426,0,0,0,1.018-1.164l.666.526C672.274,480.9,671.912,481.312,671.532,481.7Zm-37.125,3.342-.782-.33c.208-.493.43-.987.659-1.467l.766.365C634.827,484.085,634.611,484.566,634.408,485.047Zm18.616-2.391a9.149,9.149,0,0,1-.631-1.538l.81-.252a8.328,8.328,0,0,0,.572,1.4Zm20.526-3.513-.718-.452a13.788,13.788,0,0,0,.747-1.347l.764.369A14.6,14.6,0,0,1,673.549,479.143Zm-37.79,3.073-.748-.4c.252-.471.518-.942.791-1.4l.729.434C636.264,481.3,636,481.756,635.759,482.215Zm16.264-2.705q-.034-.222-.062-.45c-.046-.379-.077-.776-.093-1.18l.848-.033c.015.381.044.755.087,1.111q.026.214.058.421Zm22.944-3.312-.8-.276a12.634,12.634,0,0,0,.411-1.48l.83.177A13.431,13.431,0,0,1,674.967,476.2Zm-37.6,3.322-.708-.468c.293-.444.6-.889.917-1.321l.686.5C637.953,478.653,637.652,479.086,637.366,479.52Zm15.356-3.229-.848-.033c.021-.542.061-1.085.119-1.613l.843.092C652.781,475.245,652.742,475.768,652.722,476.291ZM675.648,473l-.845-.073a12.707,12.707,0,0,0,.038-1.535l.848-.031A13.5,13.5,0,0,1,675.648,473Zm-36.433,3.987-.661-.531c.333-.416.681-.83,1.034-1.232l.637.56C639.88,476.173,639.54,476.577,639.215,476.983Zm2.073-2.357-.611-.589c.371-.385.755-.766,1.142-1.133l.584.615C642.025,473.878,641.65,474.251,641.288,474.626Zm11.773-1.427-.834-.154c.1-.532.218-1.063.356-1.579l.82.219C653.271,472.179,653.156,472.689,653.061,473.2Zm21.591-3.3a6.421,6.421,0,0,0-.5-1.4l.759-.378a7.245,7.245,0,0,1,.567,1.583Zm-31.086,2.568-.556-.641c.4-.349.819-.695,1.238-1.027l.527.664C644.365,471.786,643.959,472.123,643.566,472.464Zm10.3-2.261-.8-.284c.181-.508.384-1.014.6-1.5l.774.348C654.23,469.232,654.035,469.716,653.862,470.2Zm19.474-2.944a6.959,6.959,0,0,0-1.083-1.029l.517-.673a7.833,7.833,0,0,1,1.215,1.155Zm-27.31,3.253-.5-.687c.433-.314.878-.621,1.323-.915l.467.708C646.885,469.9,646.45,470.205,646.026,470.512Zm2.622-1.731-.436-.728c.458-.275.928-.542,1.4-.8l.4.746C649.556,468.251,649.1,468.512,648.649,468.781Zm6.486-1.405-.743-.41c.229-.415.477-.829.738-1.232-.279.1-.559.2-.835.3l-.3-.793c.5-.19,1.012-.371,1.518-.536l.264.806q-.213.069-.426.143l.589.389C655.653,466.48,655.382,466.927,655.135,467.375Zm15.841-1.951a10.591,10.591,0,0,0-1.406-.595l.275-.8a11.443,11.443,0,0,1,1.519.643Zm-19.563,1.86-.371-.763c.481-.234.973-.46,1.462-.671l.337.779C652.362,466.835,651.881,467.056,651.412,467.284Zm16.674-2.864c-.487-.105-1-.189-1.527-.25l.1-.843c.554.064,1.1.152,1.609.263Zm-10.807.642-.168-.612q-.135.166-.265.333l-.67-.521c.327-.42.676-.837,1.04-1.24l.63.568q-.255.283-.5.575c.425-.112.851-.216,1.273-.309l.183.828C658.3,464.8,657.786,464.924,657.279,465.063Zm7.73-1c-.506-.016-1.031-.014-1.559.008l-.034-.848c.549-.022,1.094-.025,1.62-.008Zm-4.668.331-.138-.837c.539-.088,1.076-.161,1.6-.216l.088.844C661.383,464.233,660.862,464.3,660.34,464.389Zm-1.41-1.919-.589-.61c.38-.368.783-.733,1.2-1.083l.55.646C659.687,461.763,659.3,462.115,658.931,462.47Zm2.375-2.024-.511-.677c.421-.317.862-.632,1.312-.934l.474.7C662.143,459.833,661.714,460.138,661.306,460.447Zm2.6-1.748-.438-.727c.451-.272.921-.541,1.4-.8l.4.746C664.8,458.171,664.341,458.433,663.9,458.7Zm2.764-1.5-.372-.762c.473-.231.964-.458,1.459-.676l.342.776C667.609,456.751,667.128,456.974,666.665,457.2Zm2.883-1.271-.313-.788c.489-.194.995-.385,1.5-.568l.286.8C670.525,455.551,670.028,455.739,669.548,455.929Zm2.97-1.066-.26-.807c.5-.162,1.02-.32,1.535-.47l.236.815C673.522,454.548,673.014,454.7,672.518,454.863Zm3.035-.88-.212-.821c.513-.133,1.038-.26,1.56-.38l.189.827C676.575,453.727,676.058,453.852,675.553,453.983Zm3.083-.706-.166-.832c.528-.105,1.059-.2,1.58-.292l.142.836C679.68,453.076,679.156,453.174,678.636,453.277Zm4.678-.713s-.582.048-1.558.183l-.116-.84c1.007-.14,1.589-.187,1.607-.188Z" transform="translate(-630.918 -451.719)" fill="#8c9df4"/>
    </g>
    <rect id="Rectángulo_5178" data-name="Rectángulo 5178" width="33.749" height="86.665" transform="translate(231.304 301.171)" fill="#7adbcb"/>
    <rect id="Rectángulo_5179" data-name="Rectángulo 5179" width="33.749" height="114.993" transform="translate(283.807 272.843)" fill="#7adbcb"/>
    <rect id="Rectángulo_5180" data-name="Rectángulo 5180" width="36.954" height="145.565" transform="translate(331.545 242.271)" fill="#7adbcb"/>
    <rect id="Rectángulo_5181" data-name="Rectángulo 5181" width="33.749" height="165.716" transform="translate(381.665 222.119)" fill="#7adbcb"/>
    <g id="Grupo_23208" data-name="Grupo 23208" transform="translate(368.499 256.444)">
      <path id="Trazado_4395" data-name="Trazado 4395" d="M1639.182,798.4l70.932-34.338-31.634,67.43-5.349-30.593Z" transform="translate(-1639.182 -764.06)" fill="#fecc2f"/>
    </g>
    <g id="Grupo_23220" data-name="Grupo 23220" transform="translate(363.711 195.461)">
      <circle id="Elipse_507" data-name="Elipse 507" cx="21.786" cy="21.786" r="21.786" transform="translate(0 2.954) rotate(-3.888)" fill="#93f5e5"/>
      <g id="Grupo_23218" data-name="Grupo 23218" transform="translate(3.435 3.598)">
        <path id="Trazado_4404" data-name="Trazado 4404" d="M1656.747,441.07a19.849,19.849,0,1,1,11.5-9.931A19.719,19.719,0,0,1,1656.747,441.07Zm-12.107-36.563a18.666,18.666,0,1,0,23.587,11.852A18.687,18.687,0,0,0,1644.641,404.508Z" transform="translate(-1630.648 -402.367)" fill="#d6fff8"/>
      </g>
      <g id="Grupo_23219" data-name="Grupo 23219" transform="translate(15.003 8.691)">
        <path id="Trazado_4405" data-name="Trazado 4405" d="M1716.258,453.844a3.269,3.269,0,0,0-.407-1.079,2.394,2.394,0,0,0-.763-.756,4.522,4.522,0,0,0-1.2-.51,11.965,11.965,0,0,0-1.7-.328,31.223,31.223,0,0,1-3.129-.578,9.889,9.889,0,0,1-2.513-.955,5.808,5.808,0,0,1-1.819-1.577,6.558,6.558,0,0,1-1.056-4.875,5.521,5.521,0,0,1,.923-2.106,6.883,6.883,0,0,1,1.761-1.688,9.182,9.182,0,0,1,2.511-1.165l-.66-3.228,2.6-.531.669,3.273a8.24,8.24,0,0,1,2.684.221,6.228,6.228,0,0,1,3.885,2.907,8.288,8.288,0,0,1,.987,2.635l-4.693.959a4.034,4.034,0,0,0-1.357-2.543,2.8,2.8,0,0,0-2.335-.458,3.565,3.565,0,0,0-1.217.461,2.411,2.411,0,0,0-.755.736,2.255,2.255,0,0,0-.332.94,3.321,3.321,0,0,0,.05,1.074,3.036,3.036,0,0,0,.369.977,2.24,2.24,0,0,0,.731.723,4.527,4.527,0,0,0,1.2.508,15.342,15.342,0,0,0,1.775.368q1.7.267,3.113.621a9.991,9.991,0,0,1,2.508.973,5.609,5.609,0,0,1,2.85,4.014,6,6,0,0,1,.024,2.478,5.451,5.451,0,0,1-.934,2.092,6.659,6.659,0,0,1-1.785,1.654,9.929,9.929,0,0,1-2.532,1.146l.614,3-2.582.528-.61-2.987a11.126,11.126,0,0,1-2.727-.055,7.05,7.05,0,0,1-2.5-.849,6.308,6.308,0,0,1-2-1.831,7.679,7.679,0,0,1-1.22-2.988l4.693-.959a4.729,4.729,0,0,0,.666,1.726,3.06,3.06,0,0,0,1.038.982,2.968,2.968,0,0,0,1.268.37,5.091,5.091,0,0,0,1.343-.094,4.245,4.245,0,0,0,1.3-.47,2.834,2.834,0,0,0,.855-.741,2.256,2.256,0,0,0,.417-.942A2.746,2.746,0,0,0,1716.258,453.844Z" transform="translate(-1703.561 -434.467)" fill="#5dc2ae"/>
      </g>
    </g>
    <g id="Grupo_23222" data-name="Grupo 23222" transform="translate(270.221 190.241)">
      <path id="Trazado_4406" data-name="Trazado 4406" d="M1117.824,380.4c-1.958.489-3.828.956-5.576,1.255-5.662.968-10.037.17-11.922-7.379s1.6-10.311,7.052-12.119c1.684-.558,3.554-1.025,5.512-1.514a23.355,23.355,0,0,1,12.507.627c3.629,1.193,6.345,3.111,6.826,5.039.548,2.195-.946,5.167-3.6,7.859A23.853,23.853,0,0,1,1117.824,380.4Z" transform="translate(-1087.105 -357.957)" fill="#5dc2ae"/>
      <path id="Trazado_4407" data-name="Trazado 4407" d="M1059.565,350.992l-6.432-4.2-10.153,2.163,10.546,7.409Z" transform="translate(-1039.293 -346.792)" fill="#022644"/>
      <path id="Trazado_4408" data-name="Trazado 4408" d="M1105.572,485.683l-3.7,6.731-9.978,2.865,5.824-11.5Z" transform="translate(-1080.445 -462.047)" fill="#022644"/>
      <path id="Trazado_4409" data-name="Trazado 4409" d="M1112.248,392.763c-5.662.968-10.037.17-11.922-7.379s1.6-10.311,7.052-12.119Z" transform="translate(-1087.105 -369.065)" fill="#022644"/>
      <path id="Trazado_4410" data-name="Trazado 4410" d="M1019.737,440.352s2.827-6.586,7.774-5.571c5.047,1.034,4.411,6.473.624,6.972S1021.947,439.8,1019.737,440.352Z" transform="translate(-1019.737 -420.732)" fill="#5dc2ae"/>
      <path id="Trazado_4411" data-name="Trazado 4411" d="M1189.836,388.644a4.88,4.88,0,1,1-3.552,5.918A4.88,4.88,0,0,1,1189.836,388.644Z" transform="translate(-1159.737 -381.88)" fill="#163560"/>
      <g id="Grupo_23221" data-name="Grupo 23221" transform="translate(26.076 6.292)">
        <path id="Trazado_4412" data-name="Trazado 4412" d="M1189.3,396.862a5.209,5.209,0,1,1,1.261-.156A5.215,5.215,0,0,1,1189.3,396.862Zm0-9.761a4.555,4.555,0,1,0,4.42,3.452A4.542,4.542,0,0,0,1189.3,387.1Z" transform="translate(-1184.09 -386.45)" fill="#bdd1f9"/>
      </g>
      <path id="Trazado_4413" data-name="Trazado 4413" d="M1264.308,380.573l-3.221-12.9c3.629,1.193,6.345,3.111,6.826,5.039C1268.461,374.909,1266.967,377.882,1264.308,380.573Z" transform="translate(-1222.795 -364.363)" fill="#93f5e5"/>
    </g>
    <g id="Grupo_23223" data-name="Grupo 23223" transform="translate(435.039 256.775)">
      <path id="Trazado_4414" data-name="Trazado 4414" d="M2201.231,895.353s9.861,10.224,10.327,14.072-4.723,9.855-4.723,9.855Z" transform="translate(-2178.598 -874.854)" fill="#ed7d2b"/>
      <path id="Trazado_4415" data-name="Trazado 4415" d="M2102.428,1553.923s-.348,5.423-1.4,5.5c-.14.01-5.322,0-5.322,0l-6.616-.053a2.147,2.147,0,0,1,1.981-1.927c1.935-.333,5.175-1.685,6.352-4.238C2098.663,1550.517,2102.428,1553.923,2102.428,1553.923Z" transform="translate(-2084.25 -1427.464)" fill="#2e5a99"/>
      <path id="Trazado_4416" data-name="Trazado 4416" d="M2195.309,1554.125s-.348,5.423-1.4,5.5c-.139.01-5.323,0-5.323,0l-6.616-.053a2.147,2.147,0,0,1,1.981-1.927c1.934-.333,5.175-1.685,6.352-4.239C2191.544,1550.719,2195.309,1554.125,2195.309,1554.125Z" transform="translate(-2162.395 -1427.634)" fill="#18417c"/>
      <path id="Trazado_4417" data-name="Trazado 4417" d="M2127.763,1151.94s1.707,11.071,8.118,30.73,7.273,28.168,7.273,28.168l6.925-.179s.106-21.47-2.847-31.355-.565-35.616-.565-35.616Z" transform="translate(-2116.786 -1083.789)" fill="#163560"/>
      <path id="Trazado_4418" data-name="Trazado 4418" d="M2106.588,1147.2a268.569,268.569,0,0,0,2.56,37.159c2.841,20.482,1.844,29.172,1.844,29.172l6.91.245s4.174-20.475,3.013-30.726,5.732-35.156,5.732-35.156Z" transform="translate(-2098.964 -1086.747)" fill="#1c468a"/>
      <path id="Trazado_4419" data-name="Trazado 4419" d="M2143.724,857.677l-3.687,2.406-5.319-1c.074-.429.43-2.209.753-3.821.02-.1.039-.19.057-.283.277-1.372.516-2.55.516-2.55l4.975-2.182,1.855-.813c0,.029-.147,1.522-.167,1.74A12.67,12.67,0,0,0,2143.724,857.677Z" transform="translate(-2122.637 -836.217)" fill="#ffb27d"/>
      <path id="Trazado_4420" data-name="Trazado 4420" d="M2132.029,884.707c.1-.043,6.412-1.89,7.1-1.662s1.087,1.554,1.087,1.554l-10.317,2.309A5.12,5.12,0,0,1,2132.029,884.707Z" transform="translate(-2118.58 -864.482)" fill="#ed7d2b"/>
      <path id="Trazado_4421" data-name="Trazado 4421" d="M2123.039,935.093c-1.079,4.873-18.866,5.412-23.441.977-.521-.505-.541-2.852-.337-6.016.4-6.181,1.654-15.478,1.712-20.229a37.614,37.614,0,0,1,.774-6.771,55,55,0,0,1,2.273-8.1s8.693-2.789,10.318-2.308C2122.163,894.962,2124.118,930.22,2123.039,935.093Z" transform="translate(-2092.704 -872.528)" fill="#f99746"/>
      <path id="Trazado_4422" data-name="Trazado 4422" d="M2099.9,980.72c.4-6.181,1.654-15.478,1.712-20.229a37.592,37.592,0,0,1,.774-6.771l5.228-.911S2112.674,973.689,2099.9,980.72Z" transform="translate(-2093.341 -923.194)" fill="#ed7d2b"/>
      <path id="Trazado_4423" data-name="Trazado 4423" d="M2109.921,1070.159a1.23,1.23,0,0,1-.395,1.422,2.383,2.383,0,0,0-1.067,2.172c.169.677,1.808,1.785,2.377,1.608s1.729-1.066,1.6-1.423.786-3.131-.6-4.2A1.119,1.119,0,0,0,2109.921,1070.159Z" transform="translate(-2100.516 -1021.244)" fill="#ffb27d"/>
      <path id="Trazado_4424" data-name="Trazado 4424" d="M2073.883,899.661s-5.1.943-9.172,6.919-6.756,10.419-6.012,12.578,7.546,9.654,8.721,9.657a3.152,3.152,0,0,0,3.186-2.772s-4.785-7.206-3.837-8.281c.405-.459,6.244-5.179,7.072-3.04C2075.209,918.261,2073.883,899.661,2073.883,899.661Z" transform="translate(-2058.575 -878.478)" fill="#f99746"/>
      <path id="Trazado_4425" data-name="Trazado 4425" d="M2146.328,855.548c-1.095,1.847-5.166,3.436-6.863,4.02.019-.1.039-.19.057-.283.277-1.372.516-2.55.516-2.55l4.975-2.182C2146.112,854.541,2146.78,854.788,2146.328,855.548Z" transform="translate(-2126.631 -840.527)" fill="#fca56b"/>
      <path id="Trazado_4426" data-name="Trazado 4426" d="M2126.005,796.552s8,2.515,9.49-2.492,3.525-8.054-1.52-9.871-6.611-.2-7.515,1.346S2123.962,795.769,2126.005,796.552Z" transform="translate(-2114.471 -780.65)" fill="#ffb27d"/>
      <path id="Trazado_4427" data-name="Trazado 4427" d="M2132.169,770.554s.5,5.831,1.7,5.58,2.3-.436,2.12,1.321-1.857,3.783,1.858,4.1,9.077-9.251,8.06-11.068C2142.978,765.247,2127.927,764.159,2132.169,770.554Z" transform="translate(-2119.863 -766.149)" fill="#163560"/>
    </g>
    <g id="Grupo_23259" data-name="Grupo 23259" transform="translate(469.999 336.112)" opacity="0.7">
      <g id="Grupo_23254" data-name="Grupo 23254" transform="translate(4.497 21.457)">
        <path id="Trazado_4483" data-name="Trazado 4483" d="M2328.063,1410.546s3.76-4.386.232-7.172a10.008,10.008,0,0,0-4.679-1.434s2.978,4.993,2.014,5.49-2.917-5.8-2.917-5.8-5.865-.569-7.751.338c0,0,5.013,4.1,3.957,4.347s-6.471-3.783-6.471-3.783-5.458.929-5.167,4.259,2.172,4.358,3,4.269,5.662-1.934,5.767-1.257-2.805,2.891-4.843,2.994c0,0,3.848,4.244,6.406,3.019s2.776-3.166,4.37-3.894,2.955-.726,2.3.016-3.544,1.464-4.456,3.077-1.729,2.7.916,2.3,6.948-2.334,7.136-4.551Z" transform="translate(-2307.271 -1401.45)" fill="#77a4e5"/>
        <g id="Grupo_23253" data-name="Grupo 23253" transform="translate(2.693 5.401)">
          <path id="Trazado_4484" data-name="Trazado 4484" d="M2324.246,1435.519s14.825-.571,18.1,3.669a10.726,10.726,0,0,0,2.952,4.143l.347.946s-2.569-2.708-3.488-2.872C2342.156,1441.405,2343.594,1436.153,2324.246,1435.519Z" transform="translate(-2324.246 -1435.494)" fill="#77a4e5"/>
          <path id="Trazado_4485" data-name="Trazado 4485" d="M2452.492,1482.914a9.309,9.309,0,0,1,3.4,6.558l-.577.052s-1.016-4.348-2.853-6.048S2452.492,1482.914,2452.492,1482.914Z" transform="translate(-2431.441 -1475.077)" fill="#77a4e5"/>
        </g>
      </g>
      <g id="Grupo_23256" data-name="Grupo 23256" transform="translate(33.417 13.31)">
        <path id="Trazado_4486" data-name="Trazado 4486" d="M2493.018,1363.752s-5.272-2.953-2.812-6.96c0,0,1.968-2.461,4.077-3.093,0,0-1.125,5.975,0,6.116s.773-6.749.773-6.749,5.554-2.672,7.733-2.461c0,0-3.445,5.835-2.32,5.694s4.991-6.046,4.991-6.046,5.694-1.054,6.608,2.32-.562,5.062-1.406,5.273-6.257.14-6.116.843,3.8,1.828,5.835,1.2c0,0-2.25,5.554-5.2,5.273s-3.867-2.109-5.695-2.25-3.163.352-2.25.844,4.007.161,5.483,1.416,2.672,2.028-.07,2.591-7.663.211-8.647-1.9Z" transform="translate(-2489.552 -1350.099)" fill="#77a4e5"/>
        <g id="Grupo_23255" data-name="Grupo 23255" transform="translate(0.682 3.53)">
          <path id="Trazado_4487" data-name="Trazado 4487" d="M2520.394,1372.351s-14.764,4.78-16.451,10.123a11.209,11.209,0,0,1-1.406,5.132v1.055s1.546-3.585,2.39-4.077C2504.927,1384.583,2501.624,1379.943,2520.394,1372.351Z" transform="translate(-2501.158 -1372.351)" fill="#77a4e5"/>
          <path id="Trazado_4488" data-name="Trazado 4488" d="M2495.227,1465.023a9.738,9.738,0,0,0-.979,7.666l.586-.157s-.568-4.635.622-6.967S2495.227,1465.023,2495.227,1465.023Z" transform="translate(-2493.848 -1449.768)" fill="#77a4e5"/>
        </g>
      </g>
      <g id="Grupo_23258" data-name="Grupo 23258">
        <path id="Trazado_4489" data-name="Trazado 4489" d="M2307.848,1286.624s7.884-4.415,4.205-10.407c0,0-2.944-3.679-6.1-4.625,0,0,1.682,8.935,0,9.146s-1.156-10.092-1.156-10.092-8.3-3.995-11.563-3.679c0,0,5.151,8.725,3.469,8.515s-7.464-9.041-7.464-9.041-8.515-1.577-9.882,3.469.841,7.569,2.1,7.884,9.356.21,9.146,1.262-5.677,2.733-8.726,1.787c0,0,3.364,8.3,7.779,7.884s5.782-3.154,8.515-3.364,4.73.526,3.364,1.262-5.992.241-8.2,2.118-4,3.033.1,3.874,11.459.315,12.931-2.838Z" transform="translate(-2278.928 -1266.207)" fill="#9fc1f4"/>
        <g id="Grupo_23257" data-name="Grupo 23257" transform="translate(4.321 5.279)">
          <path id="Trazado_4490" data-name="Trazado 4490" d="M2306.162,1299.481s22.076,7.148,24.6,15.138a16.769,16.769,0,0,0,2.1,7.674v1.577s-2.313-5.361-3.574-6.1C2329.289,1317.772,2334.23,1310.834,2306.162,1299.481Z" transform="translate(-2306.162 -1299.481)" fill="#9fc1f4"/>
          <path id="Trazado_4491" data-name="Trazado 4491" d="M2468.864,1438.058a14.559,14.559,0,0,1,1.464,11.463l-.876-.235s.851-6.931-.931-10.418S2468.864,1438.058,2468.864,1438.058Z" transform="translate(-2442.163 -1415.246)" fill="#9fc1f4"/>
        </g>
      </g>
      <path id="Trazado_4492" data-name="Trazado 4492" d="M2387.81,1520.45a13.614,13.614,0,0,1-13.615-13.614h27.229A13.614,13.614,0,0,1,2387.81,1520.45Z" transform="translate(-2359.081 -1468.659)" fill="#9fc1f4"/>
      <rect id="Rectángulo_5303" data-name="Rectángulo 5303" width="27.986" height="0.418" transform="translate(42.791 38.595) rotate(180)" fill="#77a4e5"/>
      <path id="Trazado_4493" data-name="Trazado 4493" d="M2429.056,1586.857h-12.747a1.092,1.092,0,0,1,1.092-1.092h10.563a1.092,1.092,0,0,1,1.092,1.092Z" transform="translate(-2394.513 -1535.065)" fill="#77a4e5"/>
    </g>
    <g id="Grupo_23260" data-name="Grupo 23260" transform="translate(238.873 281.793)">
      <path id="Trazado_4494" data-name="Trazado 4494" d="M999.03,938.541c-17.518,14.263-38.5,25.227-62.379,32.587a266.4,266.4,0,0,1-63.861,10.887c-6.268.341-12.372.489-18.248.489-11.882,0-22.838-.6-32.386-1.445l3.864-18.278a340.811,340.811,0,0,0,45.878.714,249.749,249.749,0,0,0,59.869-10.172c21.775-6.714,40.82-16.632,56.6-29.485Z" transform="translate(-822.156 -923.837)" fill="#fecc2f"/>
    </g>
    <g id="Grupo_23262" data-name="Grupo 23262" transform="translate(248.501 259.334)">
      <path id="Trazado_4495" data-name="Trazado 4495" d="M1010.865,782.993a5.55,5.55,0,0,0-4.388-.469c-7.453-.875-9.628,7.817-9.526,10.808s.442,6.2-2.886,10.089c-9.615,11.223,10.522,11.719,10.522,11.719.17-8.967,10.92-5.7,10.448-4.787C1028.814,813.659,1016.4,785.867,1010.865,782.993Z" transform="translate(-974.229 -782.277)" fill="#163560"/>
      <path id="Trazado_4496" data-name="Trazado 4496" d="M890.723,1009.849s-1.311-2-2.367-2.034-3.013-.587-2.856-.2,1.37.431,1.487.665-1.8.587-2.347.626-1.839,0-1.8.274a6.217,6.217,0,0,0,3.941,1.252,10.951,10.951,0,0,1,3.61.469Z" transform="translate(-882.839 -971.749)" fill="#ffb27d"/>
      <path id="Trazado_4497" data-name="Trazado 4497" d="M947.271,941.993a19.665,19.665,0,0,1-2,3.032c-1.558,1.951-3.959,4.2-6.974,4.649a7.485,7.485,0,0,1-4.143-.673h0a18.9,18.9,0,0,1-6.416-5.364,3.011,3.011,0,0,1,.411-2.954s7.395,1.663,8.1,1.311,4.813-12.187,5.79-13.674,4.312-2.259,4.312-2.259Z" transform="translate(-920.43 -903.247)" fill="#f99746"/>
      <path id="Trazado_4498" data-name="Trazado 4498" d="M980.421,1024.815c-1.558,1.951-3.959,4.2-6.975,4.649a7.486,7.486,0,0,1-4.143-.672c.143.019,3.8.47,5.259-2.137,1.487-2.661,3.1-6.886,5.3-5.478C980.819,1021.785,980.776,1023.3,980.421,1024.815Z" transform="translate(-955.585 -983.038)" fill="#ed7d2b"/>
      <path id="Trazado_4499" data-name="Trazado 4499" d="M1182.552,1524.424s2.256,2.059,1.816,3.522-2.476,2.438-2.752,4.227-1.376,2.764-2.366,2.764h-4.723s-.729-1.258,1.032-1.638,2.425-2.481,2.315-4.431a34.406,34.406,0,0,1,.165-4.552l3.742-.867Z" transform="translate(-1128.123 -1405.857)" fill="#36599e"/>
      <path id="Trazado_4500" data-name="Trazado 4500" d="M1037.35,1535.107s.812,8.724-.179,9.211l-12.677-.026s0-1.463,2.036-1.788,5.614-1.517,6.219-4.172S1037.35,1535.107,1037.35,1535.107Z" transform="translate(-1002.02 -1415.666)" fill="#2b478b"/>
      <path id="Trazado_4501" data-name="Trazado 4501" d="M1049.348,916.839c-2.609-5.85-4.2-7.53-3.9-9.346.227-1.351-.691-25.2-.691-25.2-.309-.1-.93-.182-1.269-.257a3.182,3.182,0,0,1-2.324-2.021,16.226,16.226,0,0,1-.789-5.381l-.334.066-5.619,1.112s.128,1.769.132,3.434v.041a3.232,3.232,0,0,1-2.332,3.125c-.71.2-1.327.38-1.327.38a51.536,51.536,0,0,0-2.458,11.942c-.394,6.052,3.752,8.68-.031,20.774C1024.543,927.861,1050.79,920.072,1049.348,916.839Z" transform="translate(-1004.983 -859.982)" fill="#ffb27d"/>
      <path id="Trazado_4502" data-name="Trazado 4502" d="M1068.387,876.161s.128,1.769.131,3.434c3.144-.089,4.807-2.957,5.487-4.547Z" transform="translate(-1038.949 -860.33)" fill="#e8945b"/>
      <path id="Trazado_4503" data-name="Trazado 4503" d="M1048.629,825.435s7.44.122,7.445-4.512.969-7.739-3.781-8.014-5.674,1.493-6.052,3.039S1046.694,825.283,1048.629,825.435Z" transform="translate(-1020.24 -808.026)" fill="#ffb27d"/>
      <path id="Trazado_4504" data-name="Trazado 4504" d="M1063.5,807.351s2.037,5.436,5.163,6.241,4.482-.034,4.482-.034a8.852,8.852,0,0,1-2.9-5.23S1065.041,804.763,1063.5,807.351Z" transform="translate(-1034.84 -802.58)" fill="#163560"/>
      <path id="Trazado_4505" data-name="Trazado 4505" d="M1046.71,810.427a4.614,4.614,0,0,0-2.132,1.666,7.49,7.49,0,0,0-1.006,4.254s-1.535-3.7.19-5.786C1045.591,808.345,1046.71,810.427,1046.71,810.427Z" transform="translate(-1017.541 -805.215)" fill="#163560"/>
      <path id="Trazado_4506" data-name="Trazado 4506" d="M1057.724,872.507a1.869,1.869,0,0,1-1.54.627,1.368,1.368,0,0,1-1.146-.757A5,5,0,0,1,1057.724,872.507Z" transform="translate(-1027.717 -857.973)" fill="#ebf3fa"/>
      <path id="Trazado_4507" data-name="Trazado 4507" d="M1045.531,933.457a50.518,50.518,0,0,1,0,5.86c-.126,2.119-2.269,4.956-2.573,5.658-.763,1.76-1.623,2.047-1.623,2.047l-6.656,1.631-2.34.573-7.381-2.2s-3.361-9.383-2.012-14.665a40.6,40.6,0,0,1,3.412-8.95s6.022,5.9,13.864-.5Z" transform="translate(-1000.448 -900.595)" fill="#f99746"/>
      <path id="Trazado_4508" data-name="Trazado 4508" d="M1019.623,1083.878s-3.655,11.377-3.89,15.25,6.987,55.025,7.277,56.81c.274,1.682,2.363,2.755,2.363,2.755a3.162,3.162,0,0,0,2.332.179,5.764,5.764,0,0,0,2.5-1.18s2.845-36.481,1.085-49.513a206.393,206.393,0,0,1-1.781-24.3Z" transform="translate(-994.644 -1036.027)" fill="#233862"/>
      <path id="Trazado_4509" data-name="Trazado 4509" d="M1062.147,1081.74s5.575,7.481,6.095,12.537.815,22.82,1.923,27.75,5.176,14.417,5.176,29.793a3.066,3.066,0,0,1-1.729,1.351,14.186,14.186,0,0,1-1.52.42,2.389,2.389,0,0,1-2.673-1.269c-2.751-5.538-11.512-23.4-11.962-27.108-.318-2.624-3.084-19.99-9.119-30.18-1.449-2.446.889-12.175.889-12.175Z" transform="translate(-1021.682 -1034.228)" fill="#2b478b"/>
      <path id="Trazado_4510" data-name="Trazado 4510" d="M1057.175,872.814s-.129.546-1.487.462c0,0-1.141-.071-1.106-.671A3.669,3.669,0,0,1,1057.175,872.814Z" transform="translate(-1027.333 -858.156)" fill="#fff"/>
      <path id="Trazado_4511" data-name="Trazado 4511" d="M1035.5,1072.809a7.663,7.663,0,0,0,4.382,1.219c3.482.07,12.109-.888,12.109-.888a7.14,7.14,0,0,1,.368,2.2s-10.537,2.658-16.642.388A3.858,3.858,0,0,1,1035.5,1072.809Z" transform="translate(-1011.105 -1026.714)" fill="#233862"/>
      <g id="Grupo_23261" data-name="Grupo 23261" transform="translate(26.353 46.718)">
        <path id="Trazado_4512" data-name="Trazado 4512" d="M1050.531,1080.334a1.812,1.812,0,1,1,1.589-1.8A1.705,1.705,0,0,1,1050.531,1080.334Zm0-3.07a1.292,1.292,0,1,0,1.062,1.271A1.182,1.182,0,0,0,1050.531,1077.265Z" transform="translate(-1048.942 -1076.738)" fill="#fff"/>
      </g>
      <rect id="Rectángulo_5304" data-name="Rectángulo 5304" width="14.315" height="19.594" transform="matrix(0.754, -0.657, 0.657, 0.754, 28.567, 42.776)" fill="#b5453c"/>
      <path id="Trazado_4513" data-name="Trazado 4513" d="M1104.289,1086s-3.955.463-3.943,1.4.985,2.868,1.474,2.953,3.219-2.608,3.219-2.608Z" transform="translate(-1065.837 -1037.81)" fill="#ffb27d"/>
      <path id="Trazado_4514" data-name="Trazado 4514" d="M1120.825,922.907s5.281.37,7.305,5.291S1134,941.381,1134,942.771s-2.146,5.675-13.668,8.138c0,0-1.192-1.254-1.119-2.245,0,0,7.193-6.178,7.173-6.9-.037-1.366-1.179-3.169-7.494-9.486C1117.171,930.561,1120.825,922.907,1120.825,922.907Z" transform="translate(-1081.051 -900.595)" fill="#f99746"/>
    </g>
    <g id="Grupo_23274" data-name="Grupo 23274" transform="translate(170.074 280.968)">
      <g id="Grupo_23270" data-name="Grupo 23270">
        <g id="Grupo_23265" data-name="Grupo 23265" transform="translate(2.348 36.125)">
          <g id="Grupo_23263" data-name="Grupo 23263" transform="translate(1.021 34.469)">
            <path id="Trazado_4515" data-name="Trazado 4515" d="M410.353,1400.428H410.3a.548.548,0,0,1-.548-.56l.83-35.993,2.446-.285-2.086,36.281A.592.592,0,0,1,410.353,1400.428Z" transform="translate(-409.753 -1363.589)" fill="#95c0f4"/>
          </g>
          <g id="Grupo_23264" data-name="Grupo 23264" transform="translate(38.279 34.469)">
            <path id="Trazado_4516" data-name="Trazado 4516" d="M647.268,1400.428h.052a.548.548,0,0,0,.547-.56l-.83-35.993-2.446-.285,2.086,36.281A.592.592,0,0,0,647.268,1400.428Z" transform="translate(-644.591 -1363.589)" fill="#b0d4ff"/>
          </g>
          <path id="Trazado_4517" data-name="Trazado 4517" d="M403.318,1178.852v-24.664a7.858,7.858,0,0,1,7.858-7.858h17.77a7.858,7.858,0,0,1,7.858,7.858v25.607Z" transform="translate(-403.318 -1146.33)" fill="#b0d4ff"/>
          <path id="Rectángulo_5305" data-name="Rectángulo 5305" d="M0,0H36.67a0,0,0,0,1,0,0V3.894a0,0,0,0,1,0,0H3.894A3.894,3.894,0,0,1,0,0V0A0,0,0,0,1,0,0Z" transform="translate(0 32.523)" fill="#95c0f4"/>
          <path id="Rectángulo_5306" data-name="Rectángulo 5306" d="M1.947,0H27.5a1.947,1.947,0,0,1,1.947,1.947v0A1.947,1.947,0,0,1,27.5,3.894H1.947A1.947,1.947,0,0,1,0,1.947v0A1.947,1.947,0,0,1,1.947,0Z" transform="translate(13.08 32.523)" fill="#b0d4ff"/>
        </g>
        <g id="Grupo_23269" data-name="Grupo 23269">
          <path id="Trazado_4518" data-name="Trazado 4518" d="M552.892,1308.732a16.529,16.529,0,0,1-5.748,6.141H533.824S554.834,1305.352,552.892,1308.732Z" transform="translate(-510.77 -1246.23)" fill="#233862"/>
          <g id="Grupo_23266" data-name="Grupo 23266">
            <path id="Trazado_4519" data-name="Trazado 4519" d="M587.845,1470.062a1.231,1.231,0,0,0-.219,1.317.01.01,0,0,0,0,.007,8.186,8.186,0,0,0,2.587,2.837c.156.126.294.24.415.346.032.028.064.056.093.084l.072.065c1.137,1.048.709,1.288,2.752,3.415,2.329,2.423,3.932,2.467,4.389,2.246.386-.188-.4-1.474-1.267-2.918-.042-.07-.083-.14-.127-.211-.116-.192-.231-.387-.346-.58-1.018-1.739-.757-2.555-.515-5.142.2-2.1,3.271-11.746,3.271-11.746l-4.463-.769s-1.344,7.679-2.825,8.862c-.792.63-1.678.639-2.439,1.106-.054.032-.107.066-.159.1A5.856,5.856,0,0,0,587.845,1470.062Z" transform="translate(-555.954 -1373.279)" fill="#ffb27d"/>
            <path id="Trazado_4520" data-name="Trazado 4520" d="M587.845,1522.917a1.231,1.231,0,0,0-.219,1.317.009.009,0,0,0,0,.007,9.476,9.476,0,0,0,2.591,2.828c.154.128.29.245.411.355.032.028.064.056.093.084l.072.065c1.137,1.048.709,1.288,2.752,3.415,2.329,2.423,3.932,2.467,4.389,2.246.386-.189-.4-1.474-1.267-2.918a9.925,9.925,0,0,1-4.152-3.059c-1.4-1.79-2.338-4.089-3.292-5.421-.054.033-.107.066-.159.1A5.852,5.852,0,0,0,587.845,1522.917Z" transform="translate(-555.954 -1426.134)" fill="#233862"/>
            <path id="Trazado_4521" data-name="Trazado 4521" d="M797.435,1460.072c.276,1.378,2.239,1.148,4.433.612s1.673.1,4.8-.245,4.068-1.51,4.164-1.974c.086-.412-1.458-.557-3.113-.748-.208-.023-.417-.049-.626-.075-1.868-.234-3.237-1.44-4.934-2.43-1.608-.938-4.007-4.759-4.007-4.759l-4.282.339s2.247,3.413,3.117,4.9a5.174,5.174,0,0,1,.42,2.918A5.491,5.491,0,0,0,797.435,1460.072Z" transform="translate(-729.554 -1366.076)" fill="#ffb27d"/>
            <path id="Trazado_4522" data-name="Trazado 4522" d="M820.451,1499.207c2.194-.536,1.672.1,4.795-.245s4.069-1.51,4.164-1.974c.085-.412-1.458-.557-3.113-.748l-.015.032a8.8,8.8,0,0,1-4.472,1.39c-2.119.051-4.362-.556-5.825-.532a5.5,5.5,0,0,0,.033,1.465C816.293,1499.973,818.256,1499.743,820.451,1499.207Z" transform="translate(-748.137 -1404.599)" fill="#233862"/>
            <path id="Trazado_4523" data-name="Trazado 4523" d="M635.018,1302.09l-4,10.772-5.226,14.065a8.472,8.472,0,0,1-2.776-.254,12.033,12.033,0,0,1-2.685-1.307s1.451-15.1,4.158-23.771a15.436,15.436,0,0,1,2.33-5.038C631.012,1291.6,635.018,1302.09,635.018,1302.09Z" transform="translate(-583.549 -1235.477)" fill="#233862"/>
            <path id="Trazado_4524" data-name="Trazado 4524" d="M481.934,1219.255c-2.623-.846-10.1.24-17.617,1.711l-1.573-2.595-16.23-1.268s-5.356,11.877-2.424,19.445a2.744,2.744,0,0,0,2.747,1.849h.237s9.66-.006,12.8-.006c8.071,0,17.082-5.548,18.247-5.781,1.908-.382,2.671,3.434,4.579,7.441s17.934,17.744,17.934,17.744a14.111,14.111,0,0,0,3.481-.357,3.429,3.429,0,0,0,1.494-.943S487.849,1221.163,481.934,1219.255Z" transform="translate(-434.535 -1169.75)" fill="#2b478b"/>
            <path id="Trazado_4525" data-name="Trazado 4525" d="M416.4,920a17.116,17.116,0,0,0-5.757-1.309c-6.15-.827-9.852,8.11-10.069,10.818-.4,4.991-3.042,5.752-6.758,8.878-7.452,6.268-5.267,13.551-1.192,16.257,2.445,1.624,6.754,0,6.754,0,.061.043,11.786-6.554,17.565-9.737C425.612,943.673,421.7,922.779,416.4,920Z" transform="translate(-388.834 -918.634)" fill="#b5453c"/>
            <path id="Trazado_4526" data-name="Trazado 4526" d="M493.25,1018.951c.026.016-2.843,1-4.762.146-1.8-.8-3.172-3.767-3.145-3.769.821-.038,1.722-.755,2.416-5.465l.35.125,5.878,2.115s-.426,1.886-.7,3.682C493.054,1017.293,492.929,1018.738,493.25,1018.951Z" transform="translate(-469.981 -995.389)" fill="#ffb27d"/>
            <path id="Trazado_4527" data-name="Trazado 4527" d="M508.657,1012.769s-.426,1.886-.7,3.682c-3.376-.608-4.7-3.971-5.177-5.8Z" transform="translate(-484.651 -996.054)" fill="#ed975d"/>
            <path id="Trazado_4528" data-name="Trazado 4528" d="M506.411,960.767s-8.042-1.08-7.293-6.078.216-8.5,5.382-8.025,5.876,2.534,6.031,4.263S508.522,960.919,506.411,960.767Z" transform="translate(-481.529 -942.18)" fill="#ffb27d"/>
            <path id="Trazado_4529" data-name="Trazado 4529" d="M498,945.844s-5.148,4.437-8.65,4.794-4.828-.766-4.828-.766a13.675,13.675,0,0,0,3.306-4.48,2.462,2.462,0,0,1,2.03-1.452C492.36,943.726,497.1,943.627,498,945.844Z" transform="translate(-469.291 -939.837)" fill="#b5453c"/>
            <path id="Trazado_4530" data-name="Trazado 4530" d="M549.187,948.892a12.672,12.672,0,0,1,2.265,2.9,9.734,9.734,0,0,1,.264,5.175s2.683-5.218,1.164-7.753C551.269,946.527,549.187,948.892,549.187,948.892Z" transform="translate(-523.696 -943.282)" fill="#b5453c"/>
            <path id="Trazado_4531" data-name="Trazado 4531" d="M463.423,1058.776c-.243,16.279-.067,12.878-1.848,14.422a6.84,6.84,0,0,1-3.223.7c-4.992.332-13.767-.491-14.1-1.414-1.152-3.192-.339-4.184-1.3-9.07-.1-.52-.224-1.083-.37-1.7-.8-3.357-1.581-4.5,1.261-9.891,2.577-4.885,5.254-8.849,5.495-8.706,6.8,4.036,7.347.644,7.347.644S463.542,1050.835,463.423,1058.776Z" transform="translate(-433.381 -1023.367)" fill="#8c9df4"/>
            <path id="Trazado_4532" data-name="Trazado 4532" d="M631.015,1346.642l-5.226,14.065a8.47,8.47,0,0,1-2.776-.254,12.042,12.042,0,0,1-2.685-1.307s1.451-15.1,4.158-23.771Z" transform="translate(-583.549 -1269.256)" fill="#2b478b"/>
            <path id="Trazado_4533" data-name="Trazado 4533" d="M535.407,1047.191s7,1.186,7.817,4.2,5.656,20.719,5.656,20.719-3.556.639-5.2-1-5.717-15.243-5.717-15.243Z" transform="translate(-512.102 -1026.795)" fill="#8c9df4"/>
            <path id="Trazado_4534" data-name="Trazado 4534" d="M464.244,1145.569c-4.992.331-13.767-.491-14.1-1.414-1.152-3.192-.339-4.184-1.3-9.071l2.408-6.78s-.4,7.55,1.829,9.535,9.116,3.833,10.2,5.493A6.07,6.07,0,0,1,464.244,1145.569Z" transform="translate(-439.273 -1095.04)" fill="#6980e2"/>
            <path id="Trazado_4535" data-name="Trazado 4535" d="M509.859,1213.061s4.925-1.1,5.719-.659a11.561,11.561,0,0,1,2.98,2.583c.243.554-1.769-.421-2.423-.6a5.829,5.829,0,0,0-2.092.458,6.951,6.951,0,0,1-3.748.376Z" transform="translate(-490.608 -1165.707)" fill="#ffb27d"/>
            <path id="Trazado_4536" data-name="Trazado 4536" d="M404.472,1043.118s-6.612.407-8.9,3.6c-3.222,4.494-9.615,23.648-5.951,26.2,4.126,2.877,18.777.752,18.777.752s.488-2.279-.191-3.381-11.7-2.883-12.211-3.392,6.36-9.922,6.36-11.448S404.472,1043.118,404.472,1043.118Z" transform="translate(-388.519 -1023.368)" fill="#8c9df4"/>
            <path id="Trazado_4537" data-name="Trazado 4537" d="M547.411,1221.588a9.514,9.514,0,0,0,1.37,1.49,1.009,1.009,0,0,0,.557.119l-.7-1.252Z" transform="translate(-522.202 -1173.522)" fill="#ffb27d"/>
            <path id="Trazado_4538" data-name="Trazado 4538" d="M545.908,1212.948l3,1.457a.535.535,0,0,1-.5.192,7.163,7.163,0,0,1-1.3-.358Z" transform="translate(-520.937 -1166.253)" fill="#ffb27d"/>
          </g>
          <g id="Grupo_23268" data-name="Grupo 23268" transform="translate(17.678 33.842)">
            <g id="Grupo_23267" data-name="Grupo 23267">
              <path id="Trazado_4539" data-name="Trazado 4539" d="M549.207,1149.689h25.311l7.614-17.753H556.86Z" transform="translate(-541.391 -1131.937)" fill="#f77d48"/>
              <path id="Trazado_4540" data-name="Trazado 4540" d="M533.368,1236.58H499.944v1.121h33.127Z" transform="translate(-499.944 -1219.978)" fill="#f77d48"/>
            </g>
            <path id="Trazado_4541" data-name="Trazado 4541" d="M655.428,1181.892a.833.833,0,0,0-.859-1.13,1.712,1.712,0,0,0-1.551,1.13.833.833,0,0,0,.86,1.13A1.712,1.712,0,0,0,655.428,1181.892Z" transform="translate(-628.691 -1173.016)" fill="#ebf3fa"/>
          </g>
        </g>
      </g>
      <g id="Grupo_23273" data-name="Grupo 23273" transform="translate(14.632 51.594)">
        <g id="Grupo_23271" data-name="Grupo 23271" transform="translate(70.058 2.583)">
          <path id="Trazado_4542" data-name="Trazado 4542" d="M925.855,1313.861h.069a.767.767,0,0,0,.724-.818l-1.1-52.517-3.235-.417,2.759,52.938A.82.82,0,0,0,925.855,1313.861Z" transform="translate(-922.315 -1260.11)" fill="#233862"/>
        </g>
        <g id="Grupo_23272" data-name="Grupo 23272" transform="translate(4.612 2.583)">
          <path id="Trazado_4543" data-name="Trazado 4543" d="M510.608,1313.861h-.069a.767.767,0,0,1-.724-.818l1.1-52.517,3.235-.417-2.759,52.938A.82.82,0,0,1,510.608,1313.861Z" transform="translate(-509.815 -1260.11)" fill="#233862"/>
        </g>
        <path id="Rectángulo_5307" data-name="Rectángulo 5307" d="M1.879,0H74.171A1.879,1.879,0,0,1,76.05,1.879v0a1.879,1.879,0,0,1-1.879,1.879H1.879A1.879,1.879,0,0,1,0,1.879v0A1.879,1.879,0,0,1,1.879,0Z" fill="#233862"/>
      </g>
    </g>
    <rect id="Rectángulo_5308" data-name="Rectángulo 5308" width="400.615" height="1.709" rx="0.854" transform="translate(128.93 387.904)" fill="#2e3552"/>
    <g id="Grupo_23305" data-name="Grupo 23305" transform="translate(338.506 244.276)">
      <circle id="Elipse_507-2" data-name="Elipse 507" cx="16.082" cy="16.082" r="16.082" transform="translate(0 2.181) rotate(-3.888)" fill="#93f5e5"/>
      <g id="Grupo_23218-2" data-name="Grupo 23218" transform="translate(2.535 2.656)">
        <path id="Trazado_4404-2" data-name="Trazado 4404" d="M1649.914,430.937a14.652,14.652,0,1,1,8.487-7.331A14.557,14.557,0,0,1,1649.914,430.937Zm-8.937-26.99a13.778,13.778,0,1,0,17.411,8.749A13.794,13.794,0,0,0,1640.977,403.947Z" transform="translate(-1630.648 -402.367)" fill="#d6fff8"/>
      </g>
      <g id="Grupo_23219-2" data-name="Grupo 23219" transform="translate(11.075 6.415)">
        <path id="Trazado_4405-2" data-name="Trazado 4405" d="M1712.933,448.771a2.411,2.411,0,0,0-.3-.8,1.767,1.767,0,0,0-.563-.558,3.339,3.339,0,0,0-.882-.376,8.828,8.828,0,0,0-1.255-.242,23.053,23.053,0,0,1-2.31-.427,7.3,7.3,0,0,1-1.855-.705,4.289,4.289,0,0,1-1.343-1.164,4.841,4.841,0,0,1-.78-3.6,4.076,4.076,0,0,1,.681-1.554,5.08,5.08,0,0,1,1.3-1.246,6.776,6.776,0,0,1,1.854-.86l-.487-2.383,1.918-.392.494,2.416a6.083,6.083,0,0,1,1.981.163,4.6,4.6,0,0,1,2.867,2.146,6.117,6.117,0,0,1,.728,1.945l-3.464.708a2.978,2.978,0,0,0-1-1.877,2.069,2.069,0,0,0-1.723-.338,2.63,2.63,0,0,0-.9.34,1.778,1.778,0,0,0-.557.543,1.665,1.665,0,0,0-.245.694,2.45,2.45,0,0,0,.037.793,2.24,2.24,0,0,0,.273.721,1.653,1.653,0,0,0,.54.533,3.34,3.34,0,0,0,.888.375,11.321,11.321,0,0,0,1.31.272q1.251.2,2.3.458a7.377,7.377,0,0,1,1.851.718,4.141,4.141,0,0,1,2.1,2.963,4.426,4.426,0,0,1,.018,1.829,4.025,4.025,0,0,1-.689,1.544,4.918,4.918,0,0,1-1.318,1.221,7.328,7.328,0,0,1-1.869.846l.453,2.215-1.906.39-.451-2.2a8.212,8.212,0,0,1-2.013-.041,5.2,5.2,0,0,1-1.845-.626,4.657,4.657,0,0,1-1.475-1.351,5.669,5.669,0,0,1-.9-2.206l3.464-.708a3.49,3.49,0,0,0,.491,1.274,2.26,2.26,0,0,0,.766.725,2.191,2.191,0,0,0,.936.273,3.757,3.757,0,0,0,.991-.069,3.135,3.135,0,0,0,.959-.347,2.093,2.093,0,0,0,.631-.547,1.665,1.665,0,0,0,.307-.7A2.026,2.026,0,0,0,1712.933,448.771Z" transform="translate(-1703.561 -434.467)" fill="#5dc2ae"/>
      </g>
    </g>
    <g id="Grupo_23306" data-name="Grupo 23306" transform="translate(422.296 218.674)">
      <circle id="Elipse_507-3" data-name="Elipse 507" cx="16.082" cy="16.082" r="16.082" transform="translate(0 2.181) rotate(-3.888)" fill="#93f5e5"/>
      <g id="Grupo_23218-3" data-name="Grupo 23218" transform="translate(2.535 2.656)">
        <path id="Trazado_4404-3" data-name="Trazado 4404" d="M1649.914,430.937a14.652,14.652,0,1,1,8.487-7.331A14.557,14.557,0,0,1,1649.914,430.937Zm-8.937-26.99a13.778,13.778,0,1,0,17.411,8.749A13.794,13.794,0,0,0,1640.977,403.947Z" transform="translate(-1630.648 -402.367)" fill="#d6fff8"/>
      </g>
      <g id="Grupo_23219-3" data-name="Grupo 23219" transform="translate(11.075 6.415)">
        <path id="Trazado_4405-3" data-name="Trazado 4405" d="M1712.933,448.771a2.411,2.411,0,0,0-.3-.8,1.767,1.767,0,0,0-.563-.558,3.339,3.339,0,0,0-.882-.376,8.828,8.828,0,0,0-1.255-.242,23.053,23.053,0,0,1-2.31-.427,7.3,7.3,0,0,1-1.855-.705,4.289,4.289,0,0,1-1.343-1.164,4.841,4.841,0,0,1-.78-3.6,4.076,4.076,0,0,1,.681-1.554,5.08,5.08,0,0,1,1.3-1.246,6.776,6.776,0,0,1,1.854-.86l-.487-2.383,1.918-.392.494,2.416a6.083,6.083,0,0,1,1.981.163,4.6,4.6,0,0,1,2.867,2.146,6.117,6.117,0,0,1,.728,1.945l-3.464.708a2.978,2.978,0,0,0-1-1.877,2.069,2.069,0,0,0-1.723-.338,2.63,2.63,0,0,0-.9.34,1.778,1.778,0,0,0-.557.543,1.665,1.665,0,0,0-.245.694,2.45,2.45,0,0,0,.037.793,2.24,2.24,0,0,0,.273.721,1.653,1.653,0,0,0,.54.533,3.34,3.34,0,0,0,.888.375,11.321,11.321,0,0,0,1.31.272q1.251.2,2.3.458a7.377,7.377,0,0,1,1.851.718,4.141,4.141,0,0,1,2.1,2.963,4.426,4.426,0,0,1,.018,1.829,4.025,4.025,0,0,1-.689,1.544,4.918,4.918,0,0,1-1.318,1.221,7.328,7.328,0,0,1-1.869.846l.453,2.215-1.906.39-.451-2.2a8.212,8.212,0,0,1-2.013-.041,5.2,5.2,0,0,1-1.845-.626,4.657,4.657,0,0,1-1.475-1.351,5.669,5.669,0,0,1-.9-2.206l3.464-.708a3.49,3.49,0,0,0,.491,1.274,2.26,2.26,0,0,0,.766.725,2.191,2.191,0,0,0,.936.273,3.757,3.757,0,0,0,.991-.069,3.135,3.135,0,0,0,.959-.347,2.093,2.093,0,0,0,.631-.547,1.665,1.665,0,0,0,.307-.7A2.026,2.026,0,0,0,1712.933,448.771Z" transform="translate(-1703.561 -434.467)" fill="#5dc2ae"/>
      </g>
    </g>
  </g>
</svg>
