<svg xmlns="http://www.w3.org/2000/svg" width="79.916" height="79.915" viewBox="0 0 79.916 79.915">
  <g id="Grupo_23181" data-name="Grupo 23181" transform="translate(-1365.843 -906.108)">
    <g id="Grupo_23171" data-name="Grupo 23171" transform="translate(1365.843 906.108)">
      <path id="Trazado_4351" data-name="Trazado 4351" d="M1397.918,973.219l-12.467-7.145V955.519l4.454,3.087L1396.4,958l4.944,2.9-.651-23.426-14.611-6.064,2.734-2.8-3.823-3.279-.033-1.293,4.127-7.3.648,1.493.873-.634,9.252,4.737,3.647-1.471.876-1.365,2.2-7.744,13.868,6.49,2.96-1.828,2.3-2.777,8.959,4.8a39.958,39.958,0,1,0-28.868,67.584,40.288,40.288,0,0,0,6.066-.458l-7.1-4.079Z" transform="translate(-1365.843 -906.108)" fill="#f2bafe"/>
      <path id="Trazado_4352" data-name="Trazado 4352" d="M1513.865,966.194a39.82,39.82,0,0,0-11.09-27.626l-8.959-4.8-2.3,2.777-2.96,1.828-13.868-6.49-2.2,7.744-.876,1.365-3.647,1.471-9.251-4.737-.873.634-.648-1.493-4.127,7.3.033,1.293,3.823,3.279-2.734,2.8L1468.8,957.6l.651,23.426-4.944-2.9-6.494.605-4.454-3.087V986.2l12.467,7.145,6.845,8.268,7.1,4.079A39.968,39.968,0,0,0,1513.865,966.194Z" transform="translate(-1433.95 -926.236)" fill="#f0a5fd"/>
    </g>
    <g id="Grupo_23180" data-name="Grupo 23180" transform="translate(1374.882 911.294)">
      <g id="Grupo_23173" data-name="Grupo 23173" transform="translate(0 44.225)">
        <g id="Grupo_23172" data-name="Grupo 23172">
          <path id="Trazado_4353" data-name="Trazado 4353" d="M1512.2,1181.823l6.845,8.268,6.955-8.268h-3.244v-8.562h-7.312v8.562Z" transform="translate(-1489.164 -1164.123)" fill="#fff"/>
          <path id="Trazado_4354" data-name="Trazado 4354" d="M1417.656,1131.566l-10.57,5.236,10.57,5.32v-2.481H1428.6v-5.593h-10.947Z" transform="translate(-1407.087 -1131.566)" fill="#fff"/>
          <path id="Trazado_4355" data-name="Trazado 4355" d="M1593.051,1142.122l10.57-5.236-10.57-5.32v2.481H1582.1v5.593h10.947Z" transform="translate(-1543.748 -1131.566)" fill="#fff"/>
        </g>
      </g>
      <g id="Grupo_23179" data-name="Grupo 23179" transform="translate(7.748)">
        <g id="Grupo_23174" data-name="Grupo 23174" transform="translate(34.978 1.989)">
          <path id="Trazado_4356" data-name="Trazado 4356" d="M1602.041,947.02a4.7,4.7,0,1,0,9.4,0,6.347,6.347,0,0,0-3.6-5.039l.609-.446,1.582-1.6s.663-2.133-1.217-.426-5.3-.861-5.43-.446,1.853,2.7,1.853,2.7l.494.508A5.223,5.223,0,0,0,1602.041,947.02Zm4.741-.493c-.843-.238-1.418-.571-1.418-1.216,0-.584.49-1.043,1.332-1.182V943.5h.772v.583a3.268,3.268,0,0,1,1.141.22l-.228.752a2.987,2.987,0,0,0-1.134-.226c-.512,0-.677.185-.677.372,0,.218.275.359.944.571.937.279,1.315.644,1.315,1.243s-.5,1.1-1.4,1.23v.677h-.772v-.632a3.643,3.643,0,0,1-1.34-.285l.236-.779a3.186,3.186,0,0,0,1.309.292c.448,0,.756-.145.756-.411C1607.616,946.854,1607.364,946.693,1606.782,946.527Z" transform="translate(-1602.041 -938.845)" fill="#fff"/>
        </g>
        <g id="Grupo_23175" data-name="Grupo 23175" transform="translate(1.474)">
          <path id="Trazado_4357" data-name="Trazado 4357" d="M1528.544,937.977a4.14,4.14,0,0,0,4.222-2.5,4.013,4.013,0,0,0-1.23-4.778,10.832,10.832,0,0,0-1.8-.931h-1.573a5.807,5.807,0,0,1-.533.238,4.143,4.143,0,0,0-2.692,4.706A4.187,4.187,0,0,0,1528.544,937.977Z" transform="translate(-1508.267 -929.77)" fill="#fff"/>
          <path id="Trazado_4358" data-name="Trazado 4358" d="M1488.947,978.4l-7.476-.575-5.879-5.941a1.982,1.982,0,0,0-1.629-.572q-1.473-.023-2.946-.027v.473l-.639,1.3-.1.267.618,10.541-1.086,1.218-.016-.017-.015.017-1.087-1.218.618-10.541-.1-.267-.638-1.3v-.474q-1.187,0-2.375.014l-.463,0q-.272,0-.531.026a1.984,1.984,0,0,0-.53.244,2.022,2.022,0,0,0-.322.263l-5.878,5.94-7.476.575a1.978,1.978,0,0,0,.15,3.951c.051,0,.1,0,.154-.006l8.211-.631a1.979,1.979,0,0,0,1.254-.581l3.907-3.948v31.643a6.89,6.89,0,0,0,.1,1.32,2.434,2.434,0,0,0,1.636,1.693h1.21a2.691,2.691,0,0,0,1.851-2.946c-.038-5.684-.016-11.369-.016-17.054v-.745h.824v.732c0,5.665.029,11.329-.018,16.994a2.756,2.756,0,0,0,1.835,3.02h1.209a2.737,2.737,0,0,0,1.813-2.981q-.037-15.084-.013-30.169v-1.626l4.077,4.119a1.975,1.975,0,0,0,1.254.581l8.211.631c.052,0,.1.006.154.006a1.979,1.979,0,0,0,.15-3.951Z" transform="translate(-1449.167 -962.189)" fill="#fff"/>
        </g>
        <g id="Grupo_23178" data-name="Grupo 23178" transform="translate(0 5.065)">
          <g id="Grupo_23177" data-name="Grupo 23177">
            <g id="Grupo_23176" data-name="Grupo 23176">
              <path id="Trazado_4359" data-name="Trazado 4359" d="M1451.873,958.6v-1.886h-1.078a3.644,3.644,0,0,0-.141-.432l.873-.634-1.11-1.526-.873.634a3.556,3.556,0,0,0-.367-.266l.334-1.028-1.794-.583-.334,1.027c-.075,0-.15-.007-.227-.007s-.15,0-.226.007l-.334-1.027-1.794.583.334,1.028a3.673,3.673,0,0,0-.368.266l-.874-.634-1.109,1.526.874.634a3.737,3.737,0,0,0-.141.432h-1.078V958.6h1.078a3.731,3.731,0,0,0,.141.431l-.874.634,1.109,1.527.874-.634a3.815,3.815,0,0,0,.368.266l-.334,1.028,1.794.583.334-1.027c.075,0,.149.007.226.007s.152,0,.227-.007l.334,1.027,1.794-.583-.334-1.028a3.8,3.8,0,0,0,.368-.266l.872.634,1.11-1.527-.873-.635a3.6,3.6,0,0,0,.141-.431Zm-4.718.189a1.132,1.132,0,1,1,1.133-1.132A1.133,1.133,0,0,1,1447.156,958.79Z" transform="translate(-1442.44 -952.88)" fill="#fff"/>
            </g>
          </g>
        </g>
      </g>
    </g>
  </g>
</svg>
