<svg xmlns="http://www.w3.org/2000/svg" xmlns:xlink="http://www.w3.org/1999/xlink" width="849" height="538.75" viewBox="0 0 849 538.75">
  <defs>
    <linearGradient id="linear-gradient" x1="0.5" x2="0.5" y2="1" gradientUnits="objectBoundingBox">
      <stop offset="0" stop-color="#4dd0e1"/>
      <stop offset="1" stop-color="#039be5"/>
    </linearGradient>
    <filter id="Rectángulo_42667" x="0" y="86.75" width="263" height="114" filterUnits="userSpaceOnUse">
      <feOffset dy="3" input="SourceAlpha"/>
      <feGaussianBlur stdDeviation="3" result="blur"/>
      <feFlood flood-opacity="0.161"/>
      <feComposite operator="in" in2="blur"/>
      <feComposite in="SourceGraphic"/>
    </filter>
    <filter id="Rectángulo_42670" x="586" y="20.75" width="263" height="114" filterUnits="userSpaceOnUse">
      <feOffset dy="3" input="SourceAlpha"/>
      <feGaussianBlur stdDeviation="3" result="blur-2"/>
      <feFlood flood-opacity="0.161"/>
      <feComposite operator="in" in2="blur-2"/>
      <feComposite in="SourceGraphic"/>
    </filter>
    <filter id="Rectángulo_42673" x="586" y="291.75" width="263" height="114" filterUnits="userSpaceOnUse">
      <feOffset dy="3" input="SourceAlpha"/>
      <feGaussianBlur stdDeviation="3" result="blur-3"/>
      <feFlood flood-opacity="0.161"/>
      <feComposite operator="in" in2="blur-3"/>
      <feComposite in="SourceGraphic"/>
    </filter>
    <filter id="Rectángulo_42671" x="586" y="153.75" width="263" height="114" filterUnits="userSpaceOnUse">
      <feOffset dy="3" input="SourceAlpha"/>
      <feGaussianBlur stdDeviation="3" result="blur-4"/>
      <feFlood flood-opacity="0.161"/>
      <feComposite operator="in" in2="blur-4"/>
      <feComposite in="SourceGraphic"/>
    </filter>
    <filter id="Rectángulo_42672" x="586" y="424.75" width="263" height="114" filterUnits="userSpaceOnUse">
      <feOffset dy="3" input="SourceAlpha"/>
      <feGaussianBlur stdDeviation="3" result="blur-5"/>
      <feFlood flood-opacity="0.161"/>
      <feComposite operator="in" in2="blur-5"/>
      <feComposite in="SourceGraphic"/>
    </filter>
    <filter id="Rectángulo_42669" x="0" y="356.75" width="263" height="114" filterUnits="userSpaceOnUse">
      <feOffset dy="3" input="SourceAlpha"/>
      <feGaussianBlur stdDeviation="3" result="blur-6"/>
      <feFlood flood-opacity="0.161"/>
      <feComposite operator="in" in2="blur-6"/>
      <feComposite in="SourceGraphic"/>
    </filter>
  </defs>
  <g id="Grupo_145852" data-name="Grupo 145852" transform="translate(-326 -4069.25)">
    <g transform="matrix(1, 0, 0, 1, 326, 4069.25)" filter="url(#Rectángulo_42667)">
      <rect id="Rectángulo_42667-2" data-name="Rectángulo 42667" width="245" height="96" rx="10" transform="translate(9 92.75)" fill="url(#linear-gradient)"/>
    </g>
    <g transform="matrix(1, 0, 0, 1, 326, 4069.25)" filter="url(#Rectángulo_42670)">
      <rect id="Rectángulo_42670-2" data-name="Rectángulo 42670" width="245" height="96" rx="10" transform="translate(595 26.75)" fill="url(#linear-gradient)"/>
    </g>
    <g transform="matrix(1, 0, 0, 1, 326, 4069.25)" filter="url(#Rectángulo_42673)">
      <rect id="Rectángulo_42673-2" data-name="Rectángulo 42673" width="245" height="96" rx="10" transform="translate(595 297.75)" fill="url(#linear-gradient)"/>
    </g>
    <g transform="matrix(1, 0, 0, 1, 326, 4069.25)" filter="url(#Rectángulo_42671)">
      <rect id="Rectángulo_42671-2" data-name="Rectángulo 42671" width="245" height="96" rx="10" transform="translate(595 159.75)" fill="url(#linear-gradient)"/>
    </g>
    <g transform="matrix(1, 0, 0, 1, 326, 4069.25)" filter="url(#Rectángulo_42672)">
      <rect id="Rectángulo_42672-2" data-name="Rectángulo 42672" width="245" height="96" rx="10" transform="translate(595 430.75)" fill="url(#linear-gradient)"/>
    </g>
    <g transform="matrix(1, 0, 0, 1, 326, 4069.25)" filter="url(#Rectángulo_42669)">
      <rect id="Rectángulo_42669-2" data-name="Rectángulo 42669" width="245" height="96" rx="10" transform="translate(9 362.75)" fill="url(#linear-gradient)"/>
    </g>
    <path id="Trazado_189591" data-name="Trazado 189591" d="M15.54-5.92A6.289,6.289,0,0,1,13.422-1.4,7.438,7.438,0,0,1,8.386.244a6.688,6.688,0,0,1-5.377-2.3A9.435,9.435,0,0,1,1.05-8.374V-9.46a10.654,10.654,0,0,1,.9-4.517,6.769,6.769,0,0,1,2.582-3,7.232,7.232,0,0,1,3.9-1.044,7.246,7.246,0,0,1,4.956,1.648,6.759,6.759,0,0,1,2.173,4.626H11.9a3.712,3.712,0,0,0-.958-2.5,3.548,3.548,0,0,0-2.509-.775A3.112,3.112,0,0,0,5.695-13.7a7.354,7.354,0,0,0-.934,4.071v1.343a7.871,7.871,0,0,0,.873,4.211A3.054,3.054,0,0,0,8.386-2.747a3.615,3.615,0,0,0,2.533-.775,3.5,3.5,0,0,0,.958-2.4Zm6.067,2.979h7.776V0H17.944V-17.773h3.662Zm20.142-.72H35.327L34.106,0H30.212l6.616-17.773h3.394L46.875,0H42.981ZM36.316-6.628h4.443l-2.234-6.653ZM57.751-4.663a1.879,1.879,0,0,0-.732-1.593,9.607,9.607,0,0,0-2.637-1.172,18.691,18.691,0,0,1-3.015-1.215q-3.027-1.636-3.027-4.407a4.292,4.292,0,0,1,.812-2.57,5.3,5.3,0,0,1,2.332-1.764,8.776,8.776,0,0,1,3.412-.635,7.988,7.988,0,0,1,3.394.69A5.4,5.4,0,0,1,60.6-15.381a5.1,5.1,0,0,1,.824,2.856H57.764a2.4,2.4,0,0,0-.769-1.9,3.161,3.161,0,0,0-2.161-.677,3.377,3.377,0,0,0-2.087.568,1.79,1.79,0,0,0-.745,1.5,1.715,1.715,0,0,0,.873,1.453,9.861,9.861,0,0,0,2.57,1.1A11.1,11.1,0,0,1,60-8.154a4.643,4.643,0,0,1,1.428,3.467A4.277,4.277,0,0,1,59.68-1.068,7.642,7.642,0,0,1,54.98.244a9.075,9.075,0,0,1-3.735-.751,5.911,5.911,0,0,1-2.57-2.057,5.268,5.268,0,0,1-.885-3.027h3.674q0,2.942,3.516,2.942a3.42,3.42,0,0,0,2.039-.531A1.728,1.728,0,0,0,57.751-4.663Zm15.369,0a1.879,1.879,0,0,0-.732-1.593,9.607,9.607,0,0,0-2.637-1.172,18.691,18.691,0,0,1-3.015-1.215q-3.027-1.636-3.027-4.407a4.292,4.292,0,0,1,.812-2.57,5.3,5.3,0,0,1,2.332-1.764,8.776,8.776,0,0,1,3.412-.635,7.988,7.988,0,0,1,3.394.69,5.4,5.4,0,0,1,2.313,1.947,5.1,5.1,0,0,1,.824,2.856H73.132a2.4,2.4,0,0,0-.769-1.9A3.161,3.161,0,0,0,70.2-15.1a3.377,3.377,0,0,0-2.087.568,1.79,1.79,0,0,0-.745,1.5,1.715,1.715,0,0,0,.873,1.453,9.861,9.861,0,0,0,2.57,1.1,11.1,11.1,0,0,1,4.553,2.332,4.643,4.643,0,0,1,1.428,3.467,4.277,4.277,0,0,1-1.746,3.619,7.642,7.642,0,0,1-4.7,1.312,9.075,9.075,0,0,1-3.735-.751,5.911,5.911,0,0,1-2.57-2.057,5.268,5.268,0,0,1-.885-3.027h3.674q0,2.942,3.516,2.942a3.42,3.42,0,0,0,2.039-.531A1.728,1.728,0,0,0,73.12-4.663Zm22.412,1H89.111L87.891,0H84l6.616-17.773h3.394L100.659,0H96.765ZM90.1-6.628h4.443L92.31-13.281Z" transform="translate(405.5 4220.5)" fill="#fff"/>
    <path id="Trazado_189595" data-name="Trazado 189595" d="M15.54-5.92A6.289,6.289,0,0,1,13.422-1.4,7.438,7.438,0,0,1,8.386.244a6.688,6.688,0,0,1-5.377-2.3A9.435,9.435,0,0,1,1.05-8.374V-9.46a10.654,10.654,0,0,1,.9-4.517,6.769,6.769,0,0,1,2.582-3,7.232,7.232,0,0,1,3.9-1.044,7.246,7.246,0,0,1,4.956,1.648,6.759,6.759,0,0,1,2.173,4.626H11.9a3.712,3.712,0,0,0-.958-2.5,3.548,3.548,0,0,0-2.509-.775A3.112,3.112,0,0,0,5.695-13.7a7.354,7.354,0,0,0-.934,4.071v1.343a7.871,7.871,0,0,0,.873,4.211A3.054,3.054,0,0,0,8.386-2.747a3.615,3.615,0,0,0,2.533-.775,3.5,3.5,0,0,0,.958-2.4Zm6.067,2.979h7.776V0H17.944V-17.773h3.662Zm20.142-.72H35.327L34.106,0H30.212l6.616-17.773h3.394L46.875,0H42.981ZM36.316-6.628h4.443l-2.234-6.653ZM57.751-4.663a1.879,1.879,0,0,0-.732-1.593,9.607,9.607,0,0,0-2.637-1.172,18.691,18.691,0,0,1-3.015-1.215q-3.027-1.636-3.027-4.407a4.292,4.292,0,0,1,.812-2.57,5.3,5.3,0,0,1,2.332-1.764,8.776,8.776,0,0,1,3.412-.635,7.988,7.988,0,0,1,3.394.69A5.4,5.4,0,0,1,60.6-15.381a5.1,5.1,0,0,1,.824,2.856H57.764a2.4,2.4,0,0,0-.769-1.9,3.161,3.161,0,0,0-2.161-.677,3.377,3.377,0,0,0-2.087.568,1.79,1.79,0,0,0-.745,1.5,1.715,1.715,0,0,0,.873,1.453,9.861,9.861,0,0,0,2.57,1.1A11.1,11.1,0,0,1,60-8.154a4.643,4.643,0,0,1,1.428,3.467A4.277,4.277,0,0,1,59.68-1.068,7.642,7.642,0,0,1,54.98.244a9.075,9.075,0,0,1-3.735-.751,5.911,5.911,0,0,1-2.57-2.057,5.268,5.268,0,0,1-.885-3.027h3.674q0,2.942,3.516,2.942a3.42,3.42,0,0,0,2.039-.531A1.728,1.728,0,0,0,57.751-4.663Zm15.369,0a1.879,1.879,0,0,0-.732-1.593,9.607,9.607,0,0,0-2.637-1.172,18.691,18.691,0,0,1-3.015-1.215q-3.027-1.636-3.027-4.407a4.292,4.292,0,0,1,.812-2.57,5.3,5.3,0,0,1,2.332-1.764,8.776,8.776,0,0,1,3.412-.635,7.988,7.988,0,0,1,3.394.69,5.4,5.4,0,0,1,2.313,1.947,5.1,5.1,0,0,1,.824,2.856H73.132a2.4,2.4,0,0,0-.769-1.9A3.161,3.161,0,0,0,70.2-15.1a3.377,3.377,0,0,0-2.087.568,1.79,1.79,0,0,0-.745,1.5,1.715,1.715,0,0,0,.873,1.453,9.861,9.861,0,0,0,2.57,1.1,11.1,11.1,0,0,1,4.553,2.332,4.643,4.643,0,0,1,1.428,3.467,4.277,4.277,0,0,1-1.746,3.619,7.642,7.642,0,0,1-4.7,1.312,9.075,9.075,0,0,1-3.735-.751,5.911,5.911,0,0,1-2.57-2.057,5.268,5.268,0,0,1-.885-3.027h3.674q0,2.942,3.516,2.942a3.42,3.42,0,0,0,2.039-.531A1.728,1.728,0,0,0,73.12-4.663ZM85.5,0V-17.773h6.226a8.174,8.174,0,0,1,4.907,1.239A4.237,4.237,0,0,1,98.3-12.9a4.016,4.016,0,0,1-.671,2.3,3.878,3.878,0,0,1-1.868,1.459,3.752,3.752,0,0,1,2.155,1.379,4.078,4.078,0,0,1,.787,2.539A4.691,4.691,0,0,1,97.07-1.343,7.364,7.364,0,0,1,92.407,0ZM89.16-7.739v4.8H92.3a3.027,3.027,0,0,0,2.02-.616,2.114,2.114,0,0,0,.726-1.7,2.232,2.232,0,0,0-2.527-2.478Zm0-2.588h2.71q2.771-.049,2.771-2.209a2.042,2.042,0,0,0-.7-1.74,3.692,3.692,0,0,0-2.216-.531H89.16Z" transform="translate(991.5 4154.5)" fill="#fff"/>
    <path id="Trazado_189599" data-name="Trazado 189599" d="M15.54-5.92A6.289,6.289,0,0,1,13.422-1.4,7.438,7.438,0,0,1,8.386.244a6.688,6.688,0,0,1-5.377-2.3A9.435,9.435,0,0,1,1.05-8.374V-9.46a10.654,10.654,0,0,1,.9-4.517,6.769,6.769,0,0,1,2.582-3,7.232,7.232,0,0,1,3.9-1.044,7.246,7.246,0,0,1,4.956,1.648,6.759,6.759,0,0,1,2.173,4.626H11.9a3.712,3.712,0,0,0-.958-2.5,3.548,3.548,0,0,0-2.509-.775A3.112,3.112,0,0,0,5.695-13.7a7.354,7.354,0,0,0-.934,4.071v1.343a7.871,7.871,0,0,0,.873,4.211A3.054,3.054,0,0,0,8.386-2.747a3.615,3.615,0,0,0,2.533-.775,3.5,3.5,0,0,0,.958-2.4Zm6.067,2.979h7.776V0H17.944V-17.773h3.662Zm20.142-.72H35.327L34.106,0H30.212l6.616-17.773h3.394L46.875,0H42.981ZM36.316-6.628h4.443l-2.234-6.653ZM57.751-4.663a1.879,1.879,0,0,0-.732-1.593,9.607,9.607,0,0,0-2.637-1.172,18.691,18.691,0,0,1-3.015-1.215q-3.027-1.636-3.027-4.407a4.292,4.292,0,0,1,.812-2.57,5.3,5.3,0,0,1,2.332-1.764,8.776,8.776,0,0,1,3.412-.635,7.988,7.988,0,0,1,3.394.69A5.4,5.4,0,0,1,60.6-15.381a5.1,5.1,0,0,1,.824,2.856H57.764a2.4,2.4,0,0,0-.769-1.9,3.161,3.161,0,0,0-2.161-.677,3.377,3.377,0,0,0-2.087.568,1.79,1.79,0,0,0-.745,1.5,1.715,1.715,0,0,0,.873,1.453,9.861,9.861,0,0,0,2.57,1.1A11.1,11.1,0,0,1,60-8.154a4.643,4.643,0,0,1,1.428,3.467A4.277,4.277,0,0,1,59.68-1.068,7.642,7.642,0,0,1,54.98.244a9.075,9.075,0,0,1-3.735-.751,5.911,5.911,0,0,1-2.57-2.057,5.268,5.268,0,0,1-.885-3.027h3.674q0,2.942,3.516,2.942a3.42,3.42,0,0,0,2.039-.531A1.728,1.728,0,0,0,57.751-4.663Zm15.369,0a1.879,1.879,0,0,0-.732-1.593,9.607,9.607,0,0,0-2.637-1.172,18.691,18.691,0,0,1-3.015-1.215q-3.027-1.636-3.027-4.407a4.292,4.292,0,0,1,.812-2.57,5.3,5.3,0,0,1,2.332-1.764,8.776,8.776,0,0,1,3.412-.635,7.988,7.988,0,0,1,3.394.69,5.4,5.4,0,0,1,2.313,1.947,5.1,5.1,0,0,1,.824,2.856H73.132a2.4,2.4,0,0,0-.769-1.9A3.161,3.161,0,0,0,70.2-15.1a3.377,3.377,0,0,0-2.087.568,1.79,1.79,0,0,0-.745,1.5,1.715,1.715,0,0,0,.873,1.453,9.861,9.861,0,0,0,2.57,1.1,11.1,11.1,0,0,1,4.553,2.332,4.643,4.643,0,0,1,1.428,3.467,4.277,4.277,0,0,1-1.746,3.619,7.642,7.642,0,0,1-4.7,1.312,9.075,9.075,0,0,1-3.735-.751,5.911,5.911,0,0,1-2.57-2.057,5.268,5.268,0,0,1-.885-3.027h3.674q0,2.942,3.516,2.942a3.42,3.42,0,0,0,2.039-.531A1.728,1.728,0,0,0,73.12-4.663ZM85.5,0V-17.773h6.226a8.174,8.174,0,0,1,4.907,1.239A4.237,4.237,0,0,1,98.3-12.9a4.016,4.016,0,0,1-.671,2.3,3.878,3.878,0,0,1-1.868,1.459,3.752,3.752,0,0,1,2.155,1.379,4.078,4.078,0,0,1,.787,2.539A4.691,4.691,0,0,1,97.07-1.343,7.364,7.364,0,0,1,92.407,0ZM89.16-7.739v4.8H92.3a3.027,3.027,0,0,0,2.02-.616,2.114,2.114,0,0,0,.726-1.7,2.232,2.232,0,0,0-2.527-2.478Zm0-2.588h2.71q2.771-.049,2.771-2.209a2.042,2.042,0,0,0-.7-1.74,3.692,3.692,0,0,0-2.216-.531H89.16Z" transform="translate(991.5 4425.5)" fill="#fff"/>
    <path id="Trazado_189597" data-name="Trazado 189597" d="M15.54-5.92A6.289,6.289,0,0,1,13.422-1.4,7.438,7.438,0,0,1,8.386.244a6.688,6.688,0,0,1-5.377-2.3A9.435,9.435,0,0,1,1.05-8.374V-9.46a10.654,10.654,0,0,1,.9-4.517,6.769,6.769,0,0,1,2.582-3,7.232,7.232,0,0,1,3.9-1.044,7.246,7.246,0,0,1,4.956,1.648,6.759,6.759,0,0,1,2.173,4.626H11.9a3.712,3.712,0,0,0-.958-2.5,3.548,3.548,0,0,0-2.509-.775A3.112,3.112,0,0,0,5.695-13.7a7.354,7.354,0,0,0-.934,4.071v1.343a7.871,7.871,0,0,0,.873,4.211A3.054,3.054,0,0,0,8.386-2.747a3.615,3.615,0,0,0,2.533-.775,3.5,3.5,0,0,0,.958-2.4Zm6.067,2.979h7.776V0H17.944V-17.773h3.662Zm20.142-.72H35.327L34.106,0H30.212l6.616-17.773h3.394L46.875,0H42.981ZM36.316-6.628h4.443l-2.234-6.653ZM57.751-4.663a1.879,1.879,0,0,0-.732-1.593,9.607,9.607,0,0,0-2.637-1.172,18.691,18.691,0,0,1-3.015-1.215q-3.027-1.636-3.027-4.407a4.292,4.292,0,0,1,.812-2.57,5.3,5.3,0,0,1,2.332-1.764,8.776,8.776,0,0,1,3.412-.635,7.988,7.988,0,0,1,3.394.69A5.4,5.4,0,0,1,60.6-15.381a5.1,5.1,0,0,1,.824,2.856H57.764a2.4,2.4,0,0,0-.769-1.9,3.161,3.161,0,0,0-2.161-.677,3.377,3.377,0,0,0-2.087.568,1.79,1.79,0,0,0-.745,1.5,1.715,1.715,0,0,0,.873,1.453,9.861,9.861,0,0,0,2.57,1.1A11.1,11.1,0,0,1,60-8.154a4.643,4.643,0,0,1,1.428,3.467A4.277,4.277,0,0,1,59.68-1.068,7.642,7.642,0,0,1,54.98.244a9.075,9.075,0,0,1-3.735-.751,5.911,5.911,0,0,1-2.57-2.057,5.268,5.268,0,0,1-.885-3.027h3.674q0,2.942,3.516,2.942a3.42,3.42,0,0,0,2.039-.531A1.728,1.728,0,0,0,57.751-4.663Zm15.369,0a1.879,1.879,0,0,0-.732-1.593,9.607,9.607,0,0,0-2.637-1.172,18.691,18.691,0,0,1-3.015-1.215q-3.027-1.636-3.027-4.407a4.292,4.292,0,0,1,.812-2.57,5.3,5.3,0,0,1,2.332-1.764,8.776,8.776,0,0,1,3.412-.635,7.988,7.988,0,0,1,3.394.69,5.4,5.4,0,0,1,2.313,1.947,5.1,5.1,0,0,1,.824,2.856H73.132a2.4,2.4,0,0,0-.769-1.9A3.161,3.161,0,0,0,70.2-15.1a3.377,3.377,0,0,0-2.087.568,1.79,1.79,0,0,0-.745,1.5,1.715,1.715,0,0,0,.873,1.453,9.861,9.861,0,0,0,2.57,1.1,11.1,11.1,0,0,1,4.553,2.332,4.643,4.643,0,0,1,1.428,3.467,4.277,4.277,0,0,1-1.746,3.619,7.642,7.642,0,0,1-4.7,1.312,9.075,9.075,0,0,1-3.735-.751,5.911,5.911,0,0,1-2.57-2.057,5.268,5.268,0,0,1-.885-3.027h3.674q0,2.942,3.516,2.942a3.42,3.42,0,0,0,2.039-.531A1.728,1.728,0,0,0,73.12-4.663ZM99.451-5.92A6.289,6.289,0,0,1,97.333-1.4,7.438,7.438,0,0,1,92.3.244a6.688,6.688,0,0,1-5.377-2.3,9.435,9.435,0,0,1-1.959-6.317V-9.46a10.654,10.654,0,0,1,.9-4.517,6.769,6.769,0,0,1,2.582-3,7.232,7.232,0,0,1,3.9-1.044A7.246,7.246,0,0,1,97.3-16.37a6.759,6.759,0,0,1,2.173,4.626H95.813a3.712,3.712,0,0,0-.958-2.5,3.548,3.548,0,0,0-2.509-.775,3.112,3.112,0,0,0-2.74,1.312,7.354,7.354,0,0,0-.934,4.071v1.343a7.871,7.871,0,0,0,.873,4.211A3.054,3.054,0,0,0,92.3-2.747a3.615,3.615,0,0,0,2.533-.775,3.5,3.5,0,0,0,.958-2.4Z" transform="translate(991.5 4287.5)" fill="#fff"/>
    <path id="Trazado_189601" data-name="Trazado 189601" d="M15.54-5.92A6.289,6.289,0,0,1,13.422-1.4,7.438,7.438,0,0,1,8.386.244a6.688,6.688,0,0,1-5.377-2.3A9.435,9.435,0,0,1,1.05-8.374V-9.46a10.654,10.654,0,0,1,.9-4.517,6.769,6.769,0,0,1,2.582-3,7.232,7.232,0,0,1,3.9-1.044,7.246,7.246,0,0,1,4.956,1.648,6.759,6.759,0,0,1,2.173,4.626H11.9a3.712,3.712,0,0,0-.958-2.5,3.548,3.548,0,0,0-2.509-.775A3.112,3.112,0,0,0,5.695-13.7a7.354,7.354,0,0,0-.934,4.071v1.343a7.871,7.871,0,0,0,.873,4.211A3.054,3.054,0,0,0,8.386-2.747a3.615,3.615,0,0,0,2.533-.775,3.5,3.5,0,0,0,.958-2.4Zm6.067,2.979h7.776V0H17.944V-17.773h3.662Zm20.142-.72H35.327L34.106,0H30.212l6.616-17.773h3.394L46.875,0H42.981ZM36.316-6.628h4.443l-2.234-6.653ZM57.751-4.663a1.879,1.879,0,0,0-.732-1.593,9.607,9.607,0,0,0-2.637-1.172,18.691,18.691,0,0,1-3.015-1.215q-3.027-1.636-3.027-4.407a4.292,4.292,0,0,1,.812-2.57,5.3,5.3,0,0,1,2.332-1.764,8.776,8.776,0,0,1,3.412-.635,7.988,7.988,0,0,1,3.394.69A5.4,5.4,0,0,1,60.6-15.381a5.1,5.1,0,0,1,.824,2.856H57.764a2.4,2.4,0,0,0-.769-1.9,3.161,3.161,0,0,0-2.161-.677,3.377,3.377,0,0,0-2.087.568,1.79,1.79,0,0,0-.745,1.5,1.715,1.715,0,0,0,.873,1.453,9.861,9.861,0,0,0,2.57,1.1A11.1,11.1,0,0,1,60-8.154a4.643,4.643,0,0,1,1.428,3.467A4.277,4.277,0,0,1,59.68-1.068,7.642,7.642,0,0,1,54.98.244a9.075,9.075,0,0,1-3.735-.751,5.911,5.911,0,0,1-2.57-2.057,5.268,5.268,0,0,1-.885-3.027h3.674q0,2.942,3.516,2.942a3.42,3.42,0,0,0,2.039-.531A1.728,1.728,0,0,0,57.751-4.663Zm15.369,0a1.879,1.879,0,0,0-.732-1.593,9.607,9.607,0,0,0-2.637-1.172,18.691,18.691,0,0,1-3.015-1.215q-3.027-1.636-3.027-4.407a4.292,4.292,0,0,1,.812-2.57,5.3,5.3,0,0,1,2.332-1.764,8.776,8.776,0,0,1,3.412-.635,7.988,7.988,0,0,1,3.394.69,5.4,5.4,0,0,1,2.313,1.947,5.1,5.1,0,0,1,.824,2.856H73.132a2.4,2.4,0,0,0-.769-1.9A3.161,3.161,0,0,0,70.2-15.1a3.377,3.377,0,0,0-2.087.568,1.79,1.79,0,0,0-.745,1.5,1.715,1.715,0,0,0,.873,1.453,9.861,9.861,0,0,0,2.57,1.1,11.1,11.1,0,0,1,4.553,2.332,4.643,4.643,0,0,1,1.428,3.467,4.277,4.277,0,0,1-1.746,3.619,7.642,7.642,0,0,1-4.7,1.312,9.075,9.075,0,0,1-3.735-.751,5.911,5.911,0,0,1-2.57-2.057,5.268,5.268,0,0,1-.885-3.027h3.674q0,2.942,3.516,2.942a3.42,3.42,0,0,0,2.039-.531A1.728,1.728,0,0,0,73.12-4.663ZM99.451-5.92A6.289,6.289,0,0,1,97.333-1.4,7.438,7.438,0,0,1,92.3.244a6.688,6.688,0,0,1-5.377-2.3,9.435,9.435,0,0,1-1.959-6.317V-9.46a10.654,10.654,0,0,1,.9-4.517,6.769,6.769,0,0,1,2.582-3,7.232,7.232,0,0,1,3.9-1.044A7.246,7.246,0,0,1,97.3-16.37a6.759,6.759,0,0,1,2.173,4.626H95.813a3.712,3.712,0,0,0-.958-2.5,3.548,3.548,0,0,0-2.509-.775,3.112,3.112,0,0,0-2.74,1.312,7.354,7.354,0,0,0-.934,4.071v1.343a7.871,7.871,0,0,0,.873,4.211A3.054,3.054,0,0,0,92.3-2.747a3.615,3.615,0,0,0,2.533-.775,3.5,3.5,0,0,0,.958-2.4Z" transform="translate(991.5 4558.5)" fill="#fff"/>
    <path id="Trazado_189592" data-name="Trazado 189592" d="M15.54-5.92A6.289,6.289,0,0,1,13.422-1.4,7.438,7.438,0,0,1,8.386.244a6.688,6.688,0,0,1-5.377-2.3A9.435,9.435,0,0,1,1.05-8.374V-9.46a10.654,10.654,0,0,1,.9-4.517,6.769,6.769,0,0,1,2.582-3,7.232,7.232,0,0,1,3.9-1.044,7.246,7.246,0,0,1,4.956,1.648,6.759,6.759,0,0,1,2.173,4.626H11.9a3.712,3.712,0,0,0-.958-2.5,3.548,3.548,0,0,0-2.509-.775A3.112,3.112,0,0,0,5.695-13.7a7.354,7.354,0,0,0-.934,4.071v1.343a7.871,7.871,0,0,0,.873,4.211A3.054,3.054,0,0,0,8.386-2.747a3.615,3.615,0,0,0,2.533-.775,3.5,3.5,0,0,0,.958-2.4Zm6.067,2.979h7.776V0H17.944V-17.773h3.662Zm20.142-.72H35.327L34.106,0H30.212l6.616-17.773h3.394L46.875,0H42.981ZM36.316-6.628h4.443l-2.234-6.653ZM57.751-4.663a1.879,1.879,0,0,0-.732-1.593,9.607,9.607,0,0,0-2.637-1.172,18.691,18.691,0,0,1-3.015-1.215q-3.027-1.636-3.027-4.407a4.292,4.292,0,0,1,.812-2.57,5.3,5.3,0,0,1,2.332-1.764,8.776,8.776,0,0,1,3.412-.635,7.988,7.988,0,0,1,3.394.69A5.4,5.4,0,0,1,60.6-15.381a5.1,5.1,0,0,1,.824,2.856H57.764a2.4,2.4,0,0,0-.769-1.9,3.161,3.161,0,0,0-2.161-.677,3.377,3.377,0,0,0-2.087.568,1.79,1.79,0,0,0-.745,1.5,1.715,1.715,0,0,0,.873,1.453,9.861,9.861,0,0,0,2.57,1.1A11.1,11.1,0,0,1,60-8.154a4.643,4.643,0,0,1,1.428,3.467A4.277,4.277,0,0,1,59.68-1.068,7.642,7.642,0,0,1,54.98.244a9.075,9.075,0,0,1-3.735-.751,5.911,5.911,0,0,1-2.57-2.057,5.268,5.268,0,0,1-.885-3.027h3.674q0,2.942,3.516,2.942a3.42,3.42,0,0,0,2.039-.531A1.728,1.728,0,0,0,57.751-4.663Zm15.369,0a1.879,1.879,0,0,0-.732-1.593,9.607,9.607,0,0,0-2.637-1.172,18.691,18.691,0,0,1-3.015-1.215q-3.027-1.636-3.027-4.407a4.292,4.292,0,0,1,.812-2.57,5.3,5.3,0,0,1,2.332-1.764,8.776,8.776,0,0,1,3.412-.635,7.988,7.988,0,0,1,3.394.69,5.4,5.4,0,0,1,2.313,1.947,5.1,5.1,0,0,1,.824,2.856H73.132a2.4,2.4,0,0,0-.769-1.9A3.161,3.161,0,0,0,70.2-15.1a3.377,3.377,0,0,0-2.087.568,1.79,1.79,0,0,0-.745,1.5,1.715,1.715,0,0,0,.873,1.453,9.861,9.861,0,0,0,2.57,1.1,11.1,11.1,0,0,1,4.553,2.332,4.643,4.643,0,0,1,1.428,3.467,4.277,4.277,0,0,1-1.746,3.619,7.642,7.642,0,0,1-4.7,1.312,9.075,9.075,0,0,1-3.735-.751,5.911,5.911,0,0,1-2.57-2.057,5.268,5.268,0,0,1-.885-3.027h3.674q0,2.942,3.516,2.942a3.42,3.42,0,0,0,2.039-.531A1.728,1.728,0,0,0,73.12-4.663Zm22.412,1H89.111L87.891,0H84l6.616-17.773h3.394L100.659,0H96.765ZM90.1-6.628h4.443L92.31-13.281Z" transform="translate(405.5 4490.5)" fill="#fff"/>
    <g id="Grupo_145851" data-name="Grupo 145851" transform="translate(474.73 4250.161) rotate(90)">
      <path id="Unión_54" data-name="Unión 54" d="M0,0H122.487V13.438H0Z" transform="translate(143.326 23.948) rotate(180)" fill="red"/>
      <path id="Unión_55" data-name="Unión 55" d="M24.129,17.229,0,34.461V0Z" transform="translate(143.326 0)" fill="red"/>
    </g>
    <path id="Trazado_189593" data-name="Trazado 189593" d="M4.163,0H1.9V-18.75H4.163ZM7.178-6.726a7.8,7.8,0,0,1,.763-3.491,5.691,5.691,0,0,1,2.124-2.393,5.782,5.782,0,0,1,3.107-.842,5.57,5.57,0,0,1,4.364,1.868A7.186,7.186,0,0,1,19.2-6.616v.159A7.869,7.869,0,0,1,18.463-3,5.608,5.608,0,0,1,16.351-.61,5.848,5.848,0,0,1,13.2.244,5.556,5.556,0,0,1,8.844-1.624,7.149,7.149,0,0,1,7.178-6.567Zm2.271.269A5.651,5.651,0,0,0,10.468-2.93,3.262,3.262,0,0,0,13.2-1.6,3.242,3.242,0,0,0,15.93-2.948a6.179,6.179,0,0,0,1.013-3.778,5.641,5.641,0,0,0-1.031-3.522,3.279,3.279,0,0,0-2.74-1.349,3.243,3.243,0,0,0-2.7,1.331A6.133,6.133,0,0,0,9.448-6.458Zm26.013.818A6.539,6.539,0,0,1,33.38-1.288,6.821,6.821,0,0,1,28.723.244a6.263,6.263,0,0,1-5.048-2.258,9.086,9.086,0,0,1-1.9-6.042V-9.766a10.127,10.127,0,0,1,.885-4.358,6.611,6.611,0,0,1,2.509-2.887,6.985,6.985,0,0,1,3.76-1.007,6.422,6.422,0,0,1,4.541,1.581,6.618,6.618,0,0,1,1.99,4.376H33.105a5.107,5.107,0,0,0-1.324-3.086,4.007,4.007,0,0,0-2.85-.955,4.193,4.193,0,0,0-3.522,1.662,7.628,7.628,0,0,0-1.276,4.728v1.723a7.841,7.841,0,0,0,1.208,4.606,3.9,3.9,0,0,0,3.381,1.71,4.51,4.51,0,0,0,3-.885A4.911,4.911,0,0,0,33.105-5.64Z" transform="translate(480 4414)" fill="#12263f"/>
    <path id="Trazado_189594" data-name="Trazado 189594" d="M2.063,0V-17.773H7.08a8.076,8.076,0,0,1,4.1,1.025,6.935,6.935,0,0,1,2.753,2.917,9.5,9.5,0,0,1,.983,4.346V-8.35a9.529,9.529,0,0,1-.97,4.407,6.826,6.826,0,0,1-2.771,2.905A8.591,8.591,0,0,1,6.982,0ZM4.407-15.857v13.94H6.873A5.365,5.365,0,0,0,11.09-3.6,6.966,6.966,0,0,0,12.6-8.4V-9.443a7.076,7.076,0,0,0-1.422-4.71,5.061,5.061,0,0,0-4.034-1.7ZM23.584.244a5.771,5.771,0,0,1-4.37-1.764,6.547,6.547,0,0,1-1.685-4.718v-.415a7.926,7.926,0,0,1,.751-3.51,5.856,5.856,0,0,1,2.1-2.417,5.279,5.279,0,0,1,2.924-.873,4.947,4.947,0,0,1,4,1.7A7.346,7.346,0,0,1,28.735-6.9v.94H19.788A4.7,4.7,0,0,0,20.929-2.8a3.588,3.588,0,0,0,2.777,1.2,3.933,3.933,0,0,0,2.026-.488,5.091,5.091,0,0,0,1.453-1.294l1.379,1.074A5.546,5.546,0,0,1,23.584.244ZM23.3-11.6a3.012,3.012,0,0,0-2.295.995,4.836,4.836,0,0,0-1.147,2.789h6.616v-.171a4.3,4.3,0,0,0-.928-2.667A2.836,2.836,0,0,0,23.3-11.6ZM42.5-6.458A7.909,7.909,0,0,1,41.125-1.6,4.421,4.421,0,0,1,37.39.244a4.844,4.844,0,0,1-3.784-1.526v6.36H31.348V-13.208h2.063l.11,1.465a4.652,4.652,0,0,1,3.833-1.709,4.5,4.5,0,0,1,3.766,1.794A8,8,0,0,1,42.5-6.665Zm-2.258-.256a5.836,5.836,0,0,0-.952-3.528,3.067,3.067,0,0,0-2.612-1.294,3.32,3.32,0,0,0-3.076,1.819v6.311a3.326,3.326,0,0,0,3.1,1.807,3.053,3.053,0,0,0,2.582-1.288A6.37,6.37,0,0,0,40.247-6.714ZM50.854.244a5.771,5.771,0,0,1-4.37-1.764A6.547,6.547,0,0,1,44.8-6.238v-.415a7.926,7.926,0,0,1,.751-3.51,5.856,5.856,0,0,1,2.1-2.417,5.279,5.279,0,0,1,2.924-.873,4.947,4.947,0,0,1,4,1.7A7.346,7.346,0,0,1,56.006-6.9v.94H47.058A4.7,4.7,0,0,0,48.2-2.8a3.588,3.588,0,0,0,2.777,1.2A3.933,3.933,0,0,0,53-2.087a5.091,5.091,0,0,0,1.453-1.294l1.379,1.074A5.546,5.546,0,0,1,50.854.244ZM50.574-11.6a3.012,3.012,0,0,0-2.295.995,4.836,4.836,0,0,0-1.147,2.789h6.616v-.171a4.3,4.3,0,0,0-.928-2.667A2.836,2.836,0,0,0,50.574-11.6Zm10.181-1.611.073,1.66a4.813,4.813,0,0,1,3.955-1.9q4.187,0,4.224,4.724V0H66.748V-8.74a3.041,3.041,0,0,0-.653-2.112,2.617,2.617,0,0,0-2-.684,3.259,3.259,0,0,0-1.929.586,3.979,3.979,0,0,0-1.294,1.538V0H58.618V-13.208ZM71.863-6.714A7.737,7.737,0,0,1,73.3-11.6a4.555,4.555,0,0,1,3.772-1.849,4.581,4.581,0,0,1,3.674,1.587V-18.75h2.258V0H80.933l-.11-1.416A4.6,4.6,0,0,1,77.051.244a4.511,4.511,0,0,1-3.741-1.88,7.825,7.825,0,0,1-1.447-4.907Zm2.258.256a5.858,5.858,0,0,0,.928,3.516,3,3,0,0,0,2.563,1.27A3.3,3.3,0,0,0,80.75-3.6V-9.668a3.32,3.32,0,0,0-3.113-1.868,3.013,3.013,0,0,0-2.588,1.282A6.45,6.45,0,0,0,74.121-6.458ZM91.992.244a5.771,5.771,0,0,1-4.37-1.764,6.547,6.547,0,0,1-1.685-4.718v-.415a7.926,7.926,0,0,1,.751-3.51,5.856,5.856,0,0,1,2.1-2.417,5.279,5.279,0,0,1,2.924-.873,4.947,4.947,0,0,1,4,1.7A7.346,7.346,0,0,1,97.144-6.9v.94H88.2A4.7,4.7,0,0,0,89.337-2.8a3.588,3.588,0,0,0,2.777,1.2,3.933,3.933,0,0,0,2.026-.488,5.091,5.091,0,0,0,1.453-1.294l1.379,1.074A5.546,5.546,0,0,1,91.992.244ZM91.711-11.6a3.012,3.012,0,0,0-2.295.995,4.836,4.836,0,0,0-1.147,2.789h6.616v-.171a4.3,4.3,0,0,0-.928-2.667A2.836,2.836,0,0,0,91.711-11.6Zm10.181-1.611.073,1.66a4.813,4.813,0,0,1,3.955-1.9q4.187,0,4.224,4.724V0h-2.258V-8.74a3.041,3.041,0,0,0-.653-2.112,2.617,2.617,0,0,0-2-.684,3.259,3.259,0,0,0-1.929.586,3.979,3.979,0,0,0-1.294,1.538V0H99.756V-13.208ZM118.848-1.6a3.253,3.253,0,0,0,2.112-.732,2.577,2.577,0,0,0,1-1.831H124.1A4.1,4.1,0,0,1,123.315-2a5.145,5.145,0,0,1-1.923,1.636,5.548,5.548,0,0,1-2.545.61,5.441,5.441,0,0,1-4.291-1.8,7.171,7.171,0,0,1-1.593-4.926V-6.86a7.952,7.952,0,0,1,.708-3.43,5.393,5.393,0,0,1,2.032-2.332,5.774,5.774,0,0,1,3.131-.83,5.3,5.3,0,0,1,3.693,1.331A4.755,4.755,0,0,1,124.1-8.667H121.96a3.112,3.112,0,0,0-.97-2.106,3.019,3.019,0,0,0-2.155-.824,3.161,3.161,0,0,0-2.667,1.239,5.819,5.819,0,0,0-.946,3.583v.427a5.7,5.7,0,0,0,.94,3.516A3.176,3.176,0,0,0,118.848-1.6ZM129.089,0h-2.258V-13.208h2.258Zm-2.441-16.711a1.348,1.348,0,0,1,.336-.928,1.26,1.26,0,0,1,.995-.378,1.28,1.28,0,0,1,1,.378,1.334,1.334,0,0,1,.342.928,1.29,1.29,0,0,1-.342.916,1.3,1.3,0,0,1-1,.366,1.283,1.283,0,0,1-.995-.366A1.3,1.3,0,0,1,126.648-16.711ZM140.857,0a4.744,4.744,0,0,1-.317-1.392A5.039,5.039,0,0,1,136.78.244a4.662,4.662,0,0,1-3.2-1.1,3.574,3.574,0,0,1-1.251-2.8,3.734,3.734,0,0,1,1.569-3.2,7.4,7.4,0,0,1,4.413-1.141h2.2V-9.045a2.536,2.536,0,0,0-.708-1.886,2.845,2.845,0,0,0-2.087-.7,3.293,3.293,0,0,0-2.026.61,1.8,1.8,0,0,0-.818,1.477h-2.271a3.117,3.117,0,0,1,.7-1.91,4.791,4.791,0,0,1,1.9-1.459,6.406,6.406,0,0,1,2.643-.537,5.221,5.221,0,0,1,3.577,1.141,4.117,4.117,0,0,1,1.343,3.143v6.079A7.432,7.432,0,0,0,143.225-.2V0Zm-3.748-1.721a3.969,3.969,0,0,0,2.014-.549A3.323,3.323,0,0,0,140.5-3.7v-2.71h-1.77q-4.15,0-4.15,2.429a2.056,2.056,0,0,0,.708,1.66A2.721,2.721,0,0,0,137.109-1.721Z" transform="translate(931 4088)" fill="#12263f"/>
    <path id="Trazado_189598" data-name="Trazado 189598" d="M4.578,0H2.234V-17.773H4.578Zm6.067-13.208.073,1.66a4.813,4.813,0,0,1,3.955-1.9q4.187,0,4.224,4.724V0H16.638V-8.74a3.041,3.041,0,0,0-.653-2.112,2.617,2.617,0,0,0-2-.684,3.259,3.259,0,0,0-1.929.586,3.979,3.979,0,0,0-1.294,1.538V0H8.508V-13.208Zm15.979,9.9,3.076-9.9h2.417L26.807,2.039q-1.233,3.3-3.918,3.3L22.461,5.3l-.842-.159V3.308l.61.049a3.005,3.005,0,0,0,1.788-.464,3.357,3.357,0,0,0,1.056-1.7l.5-1.343L20.862-13.208h2.466ZM39.453.244a5.771,5.771,0,0,1-4.37-1.764A6.547,6.547,0,0,1,33.4-6.238v-.415a7.926,7.926,0,0,1,.751-3.51,5.856,5.856,0,0,1,2.1-2.417,5.279,5.279,0,0,1,2.924-.873,4.947,4.947,0,0,1,4,1.7A7.346,7.346,0,0,1,44.6-6.9v.94H35.657A4.7,4.7,0,0,0,36.8-2.8a3.588,3.588,0,0,0,2.777,1.2A3.933,3.933,0,0,0,41.6-2.087a5.091,5.091,0,0,0,1.453-1.294l1.379,1.074A5.546,5.546,0,0,1,39.453.244ZM39.172-11.6a3.012,3.012,0,0,0-2.295.995A4.836,4.836,0,0,0,35.73-7.812h6.616v-.171a4.3,4.3,0,0,0-.928-2.667A2.836,2.836,0,0,0,39.172-11.6Zm13.342,10a3.253,3.253,0,0,0,2.112-.732,2.577,2.577,0,0,0,1-1.831h2.136A4.1,4.1,0,0,1,56.982-2,5.146,5.146,0,0,1,55.06-.366a5.548,5.548,0,0,1-2.545.61,5.441,5.441,0,0,1-4.291-1.8,7.171,7.171,0,0,1-1.593-4.926V-6.86a7.952,7.952,0,0,1,.708-3.43,5.393,5.393,0,0,1,2.032-2.332,5.774,5.774,0,0,1,3.131-.83A5.3,5.3,0,0,1,56.2-12.122a4.755,4.755,0,0,1,1.569,3.455H55.627a3.112,3.112,0,0,0-.97-2.106A3.019,3.019,0,0,0,52.5-11.6a3.161,3.161,0,0,0-2.667,1.239,5.819,5.819,0,0,0-.946,3.583v.427a5.7,5.7,0,0,0,.94,3.516A3.176,3.176,0,0,0,52.515-1.6ZM65.6-1.6a3.253,3.253,0,0,0,2.112-.732,2.577,2.577,0,0,0,1-1.831H70.85A4.1,4.1,0,0,1,70.068-2,5.145,5.145,0,0,1,68.146-.366,5.548,5.548,0,0,1,65.6.244a5.441,5.441,0,0,1-4.291-1.8,7.171,7.171,0,0,1-1.593-4.926V-6.86a7.952,7.952,0,0,1,.708-3.43,5.393,5.393,0,0,1,2.032-2.332,5.774,5.774,0,0,1,3.131-.83,5.3,5.3,0,0,1,3.693,1.331A4.755,4.755,0,0,1,70.85-8.667H68.713a3.112,3.112,0,0,0-.97-2.106,3.019,3.019,0,0,0-2.155-.824,3.161,3.161,0,0,0-2.667,1.239,5.819,5.819,0,0,0-.946,3.583v.427a5.7,5.7,0,0,0,.94,3.516A3.176,3.176,0,0,0,65.6-1.6ZM75.842,0H73.584V-13.208h2.258ZM73.4-16.711a1.348,1.348,0,0,1,.336-.928,1.26,1.26,0,0,1,.995-.378,1.28,1.28,0,0,1,1,.378,1.334,1.334,0,0,1,.342.928,1.29,1.29,0,0,1-.342.916,1.3,1.3,0,0,1-1,.366,1.283,1.283,0,0,1-.995-.366A1.3,1.3,0,0,1,73.4-16.711Zm5.457,9.985a7.8,7.8,0,0,1,.763-3.491,5.691,5.691,0,0,1,2.124-2.393,5.782,5.782,0,0,1,3.107-.842,5.57,5.57,0,0,1,4.364,1.868,7.186,7.186,0,0,1,1.666,4.968v.159A7.869,7.869,0,0,1,90.143-3,5.608,5.608,0,0,1,88.031-.61a5.848,5.848,0,0,1-3.156.854,5.556,5.556,0,0,1-4.352-1.868,7.149,7.149,0,0,1-1.666-4.944Zm2.271.269A5.65,5.65,0,0,0,82.147-2.93,3.262,3.262,0,0,0,84.875-1.6,3.242,3.242,0,0,0,87.61-2.948a6.179,6.179,0,0,0,1.013-3.778,5.641,5.641,0,0,0-1.031-3.522,3.279,3.279,0,0,0-2.74-1.349,3.243,3.243,0,0,0-2.7,1.331A6.133,6.133,0,0,0,81.128-6.458Zm4.749-12.268h2.734l-3.271,3.589-1.819-.006Zm9.973,5.518.073,1.66a4.813,4.813,0,0,1,3.955-1.9q4.187,0,4.224,4.724V0h-2.258V-8.74a3.041,3.041,0,0,0-.653-2.112,2.617,2.617,0,0,0-2-.684,3.259,3.259,0,0,0-1.929.586,3.979,3.979,0,0,0-1.294,1.538V0H93.713V-13.208Z" transform="translate(931 4361)" fill="#12263f"/>
    <path id="Trazado_189596" data-name="Trazado 189596" d="M2.063,0V-17.773H7.08a8.076,8.076,0,0,1,4.1,1.025,6.935,6.935,0,0,1,2.753,2.917,9.5,9.5,0,0,1,.983,4.346V-8.35a9.529,9.529,0,0,1-.97,4.407,6.826,6.826,0,0,1-2.771,2.905A8.591,8.591,0,0,1,6.982,0ZM4.407-15.857v13.94H6.873A5.365,5.365,0,0,0,11.09-3.6,6.966,6.966,0,0,0,12.6-8.4V-9.443a7.076,7.076,0,0,0-1.422-4.71,5.061,5.061,0,0,0-4.034-1.7ZM23.584.244a5.771,5.771,0,0,1-4.37-1.764,6.547,6.547,0,0,1-1.685-4.718v-.415a7.926,7.926,0,0,1,.751-3.51,5.856,5.856,0,0,1,2.1-2.417,5.279,5.279,0,0,1,2.924-.873,4.947,4.947,0,0,1,4,1.7A7.346,7.346,0,0,1,28.735-6.9v.94H19.788A4.7,4.7,0,0,0,20.929-2.8a3.588,3.588,0,0,0,2.777,1.2,3.933,3.933,0,0,0,2.026-.488,5.091,5.091,0,0,0,1.453-1.294l1.379,1.074A5.546,5.546,0,0,1,23.584.244ZM23.3-11.6a3.012,3.012,0,0,0-2.295.995,4.836,4.836,0,0,0-1.147,2.789h6.616v-.171a4.3,4.3,0,0,0-.928-2.667A2.836,2.836,0,0,0,23.3-11.6ZM42.5-6.458A7.909,7.909,0,0,1,41.125-1.6,4.421,4.421,0,0,1,37.39.244a4.844,4.844,0,0,1-3.784-1.526v6.36H31.348V-13.208h2.063l.11,1.465a4.652,4.652,0,0,1,3.833-1.709,4.5,4.5,0,0,1,3.766,1.794A8,8,0,0,1,42.5-6.665Zm-2.258-.256a5.836,5.836,0,0,0-.952-3.528,3.067,3.067,0,0,0-2.612-1.294,3.32,3.32,0,0,0-3.076,1.819v6.311a3.326,3.326,0,0,0,3.1,1.807,3.053,3.053,0,0,0,2.582-1.288A6.37,6.37,0,0,0,40.247-6.714ZM50.854.244a5.771,5.771,0,0,1-4.37-1.764A6.547,6.547,0,0,1,44.8-6.238v-.415a7.926,7.926,0,0,1,.751-3.51,5.856,5.856,0,0,1,2.1-2.417,5.279,5.279,0,0,1,2.924-.873,4.947,4.947,0,0,1,4,1.7A7.346,7.346,0,0,1,56.006-6.9v.94H47.058A4.7,4.7,0,0,0,48.2-2.8a3.588,3.588,0,0,0,2.777,1.2A3.933,3.933,0,0,0,53-2.087a5.091,5.091,0,0,0,1.453-1.294l1.379,1.074A5.546,5.546,0,0,1,50.854.244ZM50.574-11.6a3.012,3.012,0,0,0-2.295.995,4.836,4.836,0,0,0-1.147,2.789h6.616v-.171a4.3,4.3,0,0,0-.928-2.667A2.836,2.836,0,0,0,50.574-11.6Zm10.181-1.611.073,1.66a4.813,4.813,0,0,1,3.955-1.9q4.187,0,4.224,4.724V0H66.748V-8.74a3.041,3.041,0,0,0-.653-2.112,2.617,2.617,0,0,0-2-.684,3.259,3.259,0,0,0-1.929.586,3.979,3.979,0,0,0-1.294,1.538V0H58.618V-13.208ZM71.863-6.714A7.737,7.737,0,0,1,73.3-11.6a4.555,4.555,0,0,1,3.772-1.849,4.581,4.581,0,0,1,3.674,1.587V-18.75h2.258V0H80.933l-.11-1.416A4.6,4.6,0,0,1,77.051.244a4.511,4.511,0,0,1-3.741-1.88,7.825,7.825,0,0,1-1.447-4.907Zm2.258.256a5.858,5.858,0,0,0,.928,3.516,3,3,0,0,0,2.563,1.27A3.3,3.3,0,0,0,80.75-3.6V-9.668a3.32,3.32,0,0,0-3.113-1.868,3.013,3.013,0,0,0-2.588,1.282A6.45,6.45,0,0,0,74.121-6.458ZM91.992.244a5.771,5.771,0,0,1-4.37-1.764,6.547,6.547,0,0,1-1.685-4.718v-.415a7.926,7.926,0,0,1,.751-3.51,5.856,5.856,0,0,1,2.1-2.417,5.279,5.279,0,0,1,2.924-.873,4.947,4.947,0,0,1,4,1.7A7.346,7.346,0,0,1,97.144-6.9v.94H88.2A4.7,4.7,0,0,0,89.337-2.8a3.588,3.588,0,0,0,2.777,1.2,3.933,3.933,0,0,0,2.026-.488,5.091,5.091,0,0,0,1.453-1.294l1.379,1.074A5.546,5.546,0,0,1,91.992.244ZM91.711-11.6a3.012,3.012,0,0,0-2.295.995,4.836,4.836,0,0,0-1.147,2.789h6.616v-.171a4.3,4.3,0,0,0-.928-2.667A2.836,2.836,0,0,0,91.711-11.6Zm10.181-1.611.073,1.66a4.813,4.813,0,0,1,3.955-1.9q4.187,0,4.224,4.724V0h-2.258V-8.74a3.041,3.041,0,0,0-.653-2.112,2.617,2.617,0,0,0-2-.684,3.259,3.259,0,0,0-1.929.586,3.979,3.979,0,0,0-1.294,1.538V0H99.756V-13.208ZM118.848-1.6a3.253,3.253,0,0,0,2.112-.732,2.577,2.577,0,0,0,1-1.831H124.1A4.1,4.1,0,0,1,123.315-2a5.145,5.145,0,0,1-1.923,1.636,5.548,5.548,0,0,1-2.545.61,5.441,5.441,0,0,1-4.291-1.8,7.171,7.171,0,0,1-1.593-4.926V-6.86a7.952,7.952,0,0,1,.708-3.43,5.393,5.393,0,0,1,2.032-2.332,5.774,5.774,0,0,1,3.131-.83,5.3,5.3,0,0,1,3.693,1.331A4.755,4.755,0,0,1,124.1-8.667H121.96a3.112,3.112,0,0,0-.97-2.106,3.019,3.019,0,0,0-2.155-.824,3.161,3.161,0,0,0-2.667,1.239,5.819,5.819,0,0,0-.946,3.583v.427a5.7,5.7,0,0,0,.94,3.516A3.176,3.176,0,0,0,118.848-1.6ZM129.089,0h-2.258V-13.208h2.258Zm-2.441-16.711a1.348,1.348,0,0,1,.336-.928,1.26,1.26,0,0,1,.995-.378,1.28,1.28,0,0,1,1,.378,1.334,1.334,0,0,1,.342.928,1.29,1.29,0,0,1-.342.916,1.3,1.3,0,0,1-1,.366,1.283,1.283,0,0,1-.995-.366A1.3,1.3,0,0,1,126.648-16.711ZM140.857,0a4.744,4.744,0,0,1-.317-1.392A5.039,5.039,0,0,1,136.78.244a4.662,4.662,0,0,1-3.2-1.1,3.574,3.574,0,0,1-1.251-2.8,3.734,3.734,0,0,1,1.569-3.2,7.4,7.4,0,0,1,4.413-1.141h2.2V-9.045a2.536,2.536,0,0,0-.708-1.886,2.845,2.845,0,0,0-2.087-.7,3.293,3.293,0,0,0-2.026.61,1.8,1.8,0,0,0-.818,1.477h-2.271a3.117,3.117,0,0,1,.7-1.91,4.791,4.791,0,0,1,1.9-1.459,6.406,6.406,0,0,1,2.643-.537,5.221,5.221,0,0,1,3.577,1.141,4.117,4.117,0,0,1,1.343,3.143v6.079A7.432,7.432,0,0,0,143.225-.2V0Zm-3.748-1.721a3.969,3.969,0,0,0,2.014-.549A3.323,3.323,0,0,0,140.5-3.7v-2.71h-1.77q-4.15,0-4.15,2.429a2.056,2.056,0,0,0,.708,1.66A2.721,2.721,0,0,0,137.109-1.721Z" transform="translate(931 4221)" fill="#12263f"/>
    <path id="Trazado_189600" data-name="Trazado 189600" d="M4.578,0H2.234V-17.773H4.578Zm6.067-13.208.073,1.66a4.813,4.813,0,0,1,3.955-1.9q4.187,0,4.224,4.724V0H16.638V-8.74a3.041,3.041,0,0,0-.653-2.112,2.617,2.617,0,0,0-2-.684,3.259,3.259,0,0,0-1.929.586,3.979,3.979,0,0,0-1.294,1.538V0H8.508V-13.208Zm15.979,9.9,3.076-9.9h2.417L26.807,2.039q-1.233,3.3-3.918,3.3L22.461,5.3l-.842-.159V3.308l.61.049a3.005,3.005,0,0,0,1.788-.464,3.357,3.357,0,0,0,1.056-1.7l.5-1.343L20.862-13.208h2.466ZM39.453.244a5.771,5.771,0,0,1-4.37-1.764A6.547,6.547,0,0,1,33.4-6.238v-.415a7.926,7.926,0,0,1,.751-3.51,5.856,5.856,0,0,1,2.1-2.417,5.279,5.279,0,0,1,2.924-.873,4.947,4.947,0,0,1,4,1.7A7.346,7.346,0,0,1,44.6-6.9v.94H35.657A4.7,4.7,0,0,0,36.8-2.8a3.588,3.588,0,0,0,2.777,1.2A3.933,3.933,0,0,0,41.6-2.087a5.091,5.091,0,0,0,1.453-1.294l1.379,1.074A5.546,5.546,0,0,1,39.453.244ZM39.172-11.6a3.012,3.012,0,0,0-2.295.995A4.836,4.836,0,0,0,35.73-7.812h6.616v-.171a4.3,4.3,0,0,0-.928-2.667A2.836,2.836,0,0,0,39.172-11.6Zm13.342,10a3.253,3.253,0,0,0,2.112-.732,2.577,2.577,0,0,0,1-1.831h2.136A4.1,4.1,0,0,1,56.982-2,5.146,5.146,0,0,1,55.06-.366a5.548,5.548,0,0,1-2.545.61,5.441,5.441,0,0,1-4.291-1.8,7.171,7.171,0,0,1-1.593-4.926V-6.86a7.952,7.952,0,0,1,.708-3.43,5.393,5.393,0,0,1,2.032-2.332,5.774,5.774,0,0,1,3.131-.83A5.3,5.3,0,0,1,56.2-12.122a4.755,4.755,0,0,1,1.569,3.455H55.627a3.112,3.112,0,0,0-.97-2.106A3.019,3.019,0,0,0,52.5-11.6a3.161,3.161,0,0,0-2.667,1.239,5.819,5.819,0,0,0-.946,3.583v.427a5.7,5.7,0,0,0,.94,3.516A3.176,3.176,0,0,0,52.515-1.6ZM65.6-1.6a3.253,3.253,0,0,0,2.112-.732,2.577,2.577,0,0,0,1-1.831H70.85A4.1,4.1,0,0,1,70.068-2,5.145,5.145,0,0,1,68.146-.366,5.548,5.548,0,0,1,65.6.244a5.441,5.441,0,0,1-4.291-1.8,7.171,7.171,0,0,1-1.593-4.926V-6.86a7.952,7.952,0,0,1,.708-3.43,5.393,5.393,0,0,1,2.032-2.332,5.774,5.774,0,0,1,3.131-.83,5.3,5.3,0,0,1,3.693,1.331A4.755,4.755,0,0,1,70.85-8.667H68.713a3.112,3.112,0,0,0-.97-2.106,3.019,3.019,0,0,0-2.155-.824,3.161,3.161,0,0,0-2.667,1.239,5.819,5.819,0,0,0-.946,3.583v.427a5.7,5.7,0,0,0,.94,3.516A3.176,3.176,0,0,0,65.6-1.6ZM75.842,0H73.584V-13.208h2.258ZM73.4-16.711a1.348,1.348,0,0,1,.336-.928,1.26,1.26,0,0,1,.995-.378,1.28,1.28,0,0,1,1,.378,1.334,1.334,0,0,1,.342.928,1.29,1.29,0,0,1-.342.916,1.3,1.3,0,0,1-1,.366,1.283,1.283,0,0,1-.995-.366A1.3,1.3,0,0,1,73.4-16.711Zm5.457,9.985a7.8,7.8,0,0,1,.763-3.491,5.691,5.691,0,0,1,2.124-2.393,5.782,5.782,0,0,1,3.107-.842,5.57,5.57,0,0,1,4.364,1.868,7.186,7.186,0,0,1,1.666,4.968v.159A7.869,7.869,0,0,1,90.143-3,5.608,5.608,0,0,1,88.031-.61a5.848,5.848,0,0,1-3.156.854,5.556,5.556,0,0,1-4.352-1.868,7.149,7.149,0,0,1-1.666-4.944Zm2.271.269A5.65,5.65,0,0,0,82.147-2.93,3.262,3.262,0,0,0,84.875-1.6,3.242,3.242,0,0,0,87.61-2.948a6.179,6.179,0,0,0,1.013-3.778,5.641,5.641,0,0,0-1.031-3.522,3.279,3.279,0,0,0-2.74-1.349,3.243,3.243,0,0,0-2.7,1.331A6.133,6.133,0,0,0,81.128-6.458Zm4.749-12.268h2.734l-3.271,3.589-1.819-.006Zm9.973,5.518.073,1.66a4.813,4.813,0,0,1,3.955-1.9q4.187,0,4.224,4.724V0h-2.258V-8.74a3.041,3.041,0,0,0-.653-2.112,2.617,2.617,0,0,0-2-.684,3.259,3.259,0,0,0-1.929.586,3.979,3.979,0,0,0-1.294,1.538V0H93.713V-13.208Z" transform="translate(931 4494)" fill="#12263f"/>
    <path id="Trazado_189390" data-name="Trazado 189390" d="M-4720-7490l322.039-70.953" transform="translate(5300 11700)" fill="none" stroke="#12263f" stroke-width="3"/>
    <path id="Trazado_189393" data-name="Trazado 189393" d="M-4720-7490l322.039-70.953" transform="translate(5300 11966.33)" fill="none" stroke="#12263f" stroke-width="3"/>
    <path id="Trazado_189391" data-name="Trazado 189391" d="M-4720-7473.5l320.055,45.68" transform="translate(5300 11700)" fill="none" stroke="#12263f" stroke-width="3"/>
    <path id="Trazado_189392" data-name="Trazado 189392" d="M-4720-7473.5l320.055,45.68" transform="translate(5300 11966.33)" fill="none" stroke="#12263f" stroke-width="3"/>
    <path id="Polígono_71" data-name="Polígono 71" d="M6.01,0l6.01,13.129H0Z" transform="translate(910.346 4129.587) rotate(73)" fill="#12263f"/>
    <path id="Polígono_74" data-name="Polígono 74" d="M6.01,0l6.01,13.129H0Z" transform="translate(910.346 4395.917) rotate(73)" fill="#12263f"/>
    <path id="Polígono_72" data-name="Polígono 72" d="M6.01,0l6.01,13.129H0Z" transform="translate(905.614 4268.09) rotate(104)" fill="#12263f"/>
    <path id="Polígono_73" data-name="Polígono 73" d="M6.01,0l6.01,13.129H0Z" transform="translate(905.614 4534.42) rotate(104)" fill="#12263f"/>
  </g>
</svg>
