<svg xmlns="http://www.w3.org/2000/svg" xmlns:xlink="http://www.w3.org/1999/xlink" width="87.339" height="87.34" viewBox="0 0 87.339 87.34">
  <defs>
    <radialGradient id="radial-gradient" cx="0.076" cy="0.019" r="1.465" gradientTransform="translate(0.001)" gradientUnits="objectBoundingBox">
      <stop offset="0" stop-color="#f6f6f7"/>
      <stop offset="0.477" stop-color="#f9f9fa"/>
      <stop offset="0.715" stop-color="#fff"/>
    </radialGradient>
  </defs>
  <g id="Grupo_145712" data-name="Grupo 145712" transform="translate(0 0.001)">
    <g id="Grupo_18423" data-name="Grupo 18423" transform="translate(0 0)">
      <g id="Grupo_18421" data-name="Grupo 18421">
        <g id="Grupo_18420" data-name="Grupo 18420">
          <g id="Grupo_18419" data-name="Grupo 18419">
            <path id="Trazado_40936" data-name="Trazado 40936" d="M281.962,2189.389a43.669,43.669,0,1,1-43.669-43.668A43.669,43.669,0,0,1,281.962,2189.389Z" transform="translate(-194.623 -2145.721)" fill="#fff"/>
          </g>
        </g>
      </g>
      <path id="Trazado_40937" data-name="Trazado 40937" d="M281.7,2189.1a43.669,43.669,0,1,0-43.669,43.67A43.5,43.5,0,0,0,281.7,2189.1Z" transform="translate(-194.361 -2145.436)" fill="url(#radial-gradient)"/>
      <path id="Trazado_40938" data-name="Trazado 40938" d="M269.1,2186.859a33.332,33.332,0,1,0-33.333,33.333A33.209,33.209,0,0,0,269.1,2186.859Z" transform="translate(-191.968 -2143.046)" fill="none" stroke="#1565c0" stroke-miterlimit="10" stroke-width="4"/>
      <g id="Grupo_18422" data-name="Grupo 18422" transform="translate(7.736 24.517)">
        <path id="Trazado_40939" data-name="Trazado 40939" d="M275.732,2164.488a43.675,43.675,0,0,1-75.187,43.488,43.536,43.536,0,0,0,75.187-43.488Z" transform="translate(-200.545 -2164.488)" fill="#eceef0"/>
      </g>
    </g>
    <g id="JFsKjU.tif" transform="translate(-30.864 39.488)">
      <g id="Grupo_53947" data-name="Grupo 53947" transform="translate(56.604 -16.446)">
        <path id="Trazado_115819" data-name="Trazado 115819" d="M66.492,22.809c-.607-.5-.7-1.065-.193-1.449a1.266,1.266,0,0,1,.667-.222,4.026,4.026,0,0,0,3.822-3.451c.027-.175.052-.35.088-.6h-.544q-5.557,0-11.115,0a2.608,2.608,0,0,1-2.566-2.006,2.127,2.127,0,0,1-.047-.493q0-11.4,0-22.809a2.541,2.541,0,0,1,2.3-2.487c1.083-.053,2.171-.016,3.257-.017a.769.769,0,0,1,.161.039V-9.1c-.115.005-.236.016-.358.016-.92,0-1.84,0-2.759,0-.749,0-.959.2-.959.956q0,7.188,0,14.375,0,4.025,0,8.05c0,.1,0,.2,0,.307.025.627.244.847.875.849,1.661,0,3.322,0,4.982,0H88.867l-2.344-2.337a20.124,20.124,0,0,1-2.529.853,8.839,8.839,0,0,1-8.471-2.684,8.537,8.537,0,0,1-1.86-2.831.5.5,0,0,0-.551-.373c-3.424.013-6.848.009-10.272.01h-.49V6.461h1.612V6.033q0-7.9-.007-15.794a1.126,1.126,0,0,1,.348-.853c1.854-1.851,3.7-3.709,5.565-5.547a1.055,1.055,0,0,1,.672-.273q8.509-.022,17.017-.011c.639,0,.931.3.931.94q0,6.8.008,13.609a.847.847,0,0,0,.188.538A8.941,8.941,0,0,1,90.211,9.278c-.024.045-.044.092-.05.1L94.19,13.42c.007-.122.02-.253.02-.384q0-10.561,0-21.122c0-.819-.191-1-1.026-1H90.136v-1.641h3.026a2.614,2.614,0,0,1,2.616,1.9.732.732,0,0,0,.075.128V16.676c-.051.128-.1.255-.152.384a2.461,2.461,0,0,1-3.267,1.47A4.029,4.029,0,0,1,91.011,17.4a.924.924,0,0,0-.736-.31c-2.413.01-4.826.006-7.239.007H81.627a.632.632,0,0,0-.029.144,4.031,4.031,0,0,0,3.929,3.9.882.882,0,0,1,.933.737c.083.437-.2.7-.5.94ZM86.829-14.775H71.322v.373q0,2.223,0,4.446a.776.776,0,0,1-.658.852c-.863.03-1.728.009-2.6.009v-1.638h1.585V-13.6c-1.336,1.339-2.62,2.617-3.888,3.912a.749.749,0,0,0-.145.484Q65.6-1.591,65.6,6.017c0,.134.015.269.023.407h7.434a9.077,9.077,0,0,1,.28-4.064H68.067V.727h.607c1.673,0,3.347-.005,5.02.009a.58.58,0,0,0,.537-.307c.462-.64.961-1.253,1.446-1.875.064-.082.136-.159.259-.3H68.065V-3.368h.447q4.752,0,9.5-.006a2.055,2.055,0,0,0,.74-.143,8.646,8.646,0,0,1,6.1-.225c.669.221,1.305.543,1.974.826ZM82.145-2.536a7.4,7.4,0,0,0-7.537,7.387A7.429,7.429,0,0,0,82,12.544a7.494,7.494,0,0,0,7.66-7.439A7.412,7.412,0,0,0,82.145-2.536ZM70.791,21.136h10.87a6.618,6.618,0,0,1-1.709-3.825c-.01-.082-.183-.208-.28-.208q-3.445-.019-6.891,0a.407.407,0,0,0-.284.248c-.079.266-.089.552-.15.825A6.275,6.275,0,0,1,70.791,21.136Zm19.634-6.631c.786.781,1.568,1.569,2.362,2.345a.813.813,0,0,0,1.141.008.829.829,0,0,0,.11-1.138c-.8-.825-1.618-1.626-2.412-2.418Zm-2.3-2.449,1.1,1.134L90.356,12.1l-1.13-1.14Z" transform="translate(-56.605 16.446)" fill="#12263f"/>
        <path id="Trazado_115821" data-name="Trazado 115821" d="M103.279,326.9v1.665c-1.124,0-2.23.016-3.334-.008a.73.73,0,0,1-.718-.719c-.022-1.107-.008-2.215-.008-3.355h1.609V326.9Z" transform="translate(-95.942 -298.299)" fill="#12263f"/>
        <path id="Trazado_115822" data-name="Trazado 115822" d="M173.821,356.316h1.61v1.617h-1.61Z" transform="translate(-164.818 -327.686)" fill="#12263f"/>
        <path id="Trazado_115823" data-name="Trazado 115823" d="M222.094,100.928v1.61H205.756v-1.61Z" transform="translate(-194.301 -91.913)" fill="#12263f"/>
        <path id="Trazado_115824" data-name="Trazado 115824" d="M337.114,190.224,336,189.065a5.891,5.891,0,0,1,8.128-.038l-1.153,1.151a4.125,4.125,0,0,0-2.913-1.222A4.2,4.2,0,0,0,337.114,190.224Z" transform="translate(-314.539 -171.762)" fill="#12263f"/>
      </g>
    </g>
  </g>
</svg>
