<svg xmlns="http://www.w3.org/2000/svg" xmlns:xlink="http://www.w3.org/1999/xlink" width="313" height="341" viewBox="0 0 313 341">
  <defs>
    <filter id="Rect치ngulo_42655" x="0" y="0" width="313" height="341" filterUnits="userSpaceOnUse">
      <feOffset dy="3" input="SourceAlpha"/>
      <feGaussianBlur stdDeviation="3" result="blur"/>
      <feFlood flood-opacity="0.161"/>
      <feComposite operator="in" in2="blur"/>
      <feComposite in="SourceGraphic"/>
    </filter>
  </defs>
  <g id="Grupo_146127" data-name="Grupo 146127" transform="translate(-644 -2661)">
    <g transform="matrix(1, 0, 0, 1, 644, 2661)" filter="url(#Rect치ngulo_42655)">
      <rect id="Rect치ngulo_42655-2" data-name="Rect치ngulo 42655" width="295" height="323" rx="35" transform="translate(9 6)" fill="#fff"/>
    </g>
    <circle id="Elipse_5154" data-name="Elipse 5154" cx="56" cy="56" r="56" transform="translate(742 2741)" fill="#039be5"/>
    <path id="Trazado_189649" data-name="Trazado 189649" d="M90.724,15.27A1.5,1.5,0,0,0,90.138,14a7.685,7.685,0,0,0-2.109-.937,14.953,14.953,0,0,1-2.412-.972,3.941,3.941,0,0,1-2.422-3.525A3.434,3.434,0,0,1,83.844,6.5a4.236,4.236,0,0,1,1.865-1.411,7.02,7.02,0,0,1,2.729-.508,6.39,6.39,0,0,1,2.715.552A4.323,4.323,0,0,1,93,6.7a4.076,4.076,0,0,1,.659,2.285h-2.93a1.917,1.917,0,0,0-.615-1.519A2.529,2.529,0,0,0,88.39,6.92a2.7,2.7,0,0,0-1.67.454,1.432,1.432,0,0,0-.6,1.2,1.372,1.372,0,0,0,.7,1.162,7.889,7.889,0,0,0,2.056.879,8.882,8.882,0,0,1,3.643,1.865,3.715,3.715,0,0,1,1.143,2.773,3.422,3.422,0,0,1-1.4,2.9,6.113,6.113,0,0,1-3.76,1.05,7.26,7.26,0,0,1-2.988-.6,4.729,4.729,0,0,1-2.056-1.646,4.214,4.214,0,0,1-.708-2.422h2.939q0,2.354,2.813,2.354a2.736,2.736,0,0,0,1.631-.425A1.382,1.382,0,0,0,90.724,15.27Zm9.6,3.926a5.187,5.187,0,0,1-3.784-1.426,5.068,5.068,0,0,1-1.46-3.8V13.7a6.383,6.383,0,0,1,.615-2.847,4.515,4.515,0,0,1,1.743-1.934,4.893,4.893,0,0,1,2.573-.679,4.385,4.385,0,0,1,3.413,1.367,5.555,5.555,0,0,1,1.245,3.877v1.152H97.94a2.622,2.622,0,0,0,.825,1.66,2.5,2.5,0,0,0,1.743.625,3.046,3.046,0,0,0,2.549-1.182l1.387,1.553a4.237,4.237,0,0,1-1.719,1.4A5.639,5.639,0,0,1,100.323,19.2ZM100,10.514a1.764,1.764,0,0,0-1.362.569,2.946,2.946,0,0,0-.669,1.628H101.9v-.226a2.1,2.1,0,0,0-.508-1.457A1.819,1.819,0,0,0,100,10.514Zm12.207.566A7.667,7.667,0,0,0,111.192,11a2.067,2.067,0,0,0-2.1,1.084V19h-2.822V8.434h2.666l.078,1.26a2.615,2.615,0,0,1,2.354-1.455,2.957,2.957,0,0,1,.879.127Zm5.488,4.473,1.963-7.119h2.949L119.044,19h-2.7L112.784,8.434h2.949ZM126.827,19H124V4h2.832Zm7.188.2a5.187,5.187,0,0,1-3.784-1.426,5.068,5.068,0,0,1-1.46-3.8V13.7a6.383,6.383,0,0,1,.615-2.847,4.515,4.515,0,0,1,1.743-1.934,4.893,4.893,0,0,1,2.573-.679,4.385,4.385,0,0,1,3.413,1.367,5.555,5.555,0,0,1,1.245,3.877v1.152h-6.729a2.622,2.622,0,0,0,.825,1.66,2.5,2.5,0,0,0,1.743.625,3.046,3.046,0,0,0,2.549-1.182l1.387,1.553a4.237,4.237,0,0,1-1.719,1.4A5.639,5.639,0,0,1,134.015,19.2Zm-.322-8.682a1.764,1.764,0,0,0-1.362.569,2.946,2.946,0,0,0-.669,1.628h3.926v-.226a2.1,2.1,0,0,0-.508-1.457A1.819,1.819,0,0,0,133.692,10.514Zm9.648-4.678v2.6h1.807V10.5h-1.807v5.273a1.259,1.259,0,0,0,.225.84,1.128,1.128,0,0,0,.859.254,4.5,4.5,0,0,0,.83-.068v2.139a5.81,5.81,0,0,1-1.709.254q-2.969,0-3.027-3V10.5h-1.543V8.434h1.543v-2.6Zm9.1,10.244a.909.909,0,0,0-.513-.815,5.824,5.824,0,0,0-1.646-.532q-3.77-.791-3.77-3.2a2.9,2.9,0,0,1,1.167-2.349,4.708,4.708,0,0,1,3.052-.942,5.067,5.067,0,0,1,3.218.947,2.985,2.985,0,0,1,1.206,2.461h-2.822a1.366,1.366,0,0,0-.391-1,1.653,1.653,0,0,0-1.221-.4,1.689,1.689,0,0,0-1.1.322,1.017,1.017,0,0,0-.391.82.87.87,0,0,0,.444.757,4.571,4.571,0,0,0,1.5.5,12.244,12.244,0,0,1,1.777.474,2.92,2.92,0,0,1,2.236,2.842,2.756,2.756,0,0,1-1.24,2.339,5.35,5.35,0,0,1-3.2.894,5.588,5.588,0,0,1-2.358-.474,3.957,3.957,0,0,1-1.616-1.3,3.018,3.018,0,0,1-.586-1.782h2.676a1.473,1.473,0,0,0,.557,1.152,2.208,2.208,0,0,0,1.387.4,2.044,2.044,0,0,0,1.226-.308A.957.957,0,0,0,152.442,16.08Z" transform="translate(682 2878)" fill="#12263f"/>
    <g id="IomEB8" transform="translate(-4589.019 2648.824)">
      <g id="Grupo_143112" data-name="Grupo 143112" transform="translate(5361.175 119.921)">
        <path id="Trazado_184268" data-name="Trazado 184268" d="M5408.466,162.624h-21.925v2.06h21.925Zm-11.4,6.71h16.07v-2.088h-16.07Zm-10.683,28.147h10.288v-2.06h-10.288Zm8.018-14.1v-2.075h-7.983v2.075Zm-7.86-14.043h7.927v-2.109h-7.927Zm7.963,2.634h-7.937v2.134h7.937Zm-7.948,16.093h7.855V186h-7.855Zm-.01,4.724h7.908v-2.1h-7.908Zm.019,9.323h7.914v-2.1h-7.914Zm-5.933-23.31h6.773v-2.091h-6.773Zm16.092-2.085h-6.751V178.8h6.751Zm.382-4.761V174.1h4.439v-2.144Zm-16.479-7.272h3.311v-2.126h-3.311Zm3.341,21.286h-3.281v2.1h3.281Zm-.08,9.446H5380.7v2.065h3.191Z" transform="translate(-5375.767 -151.905)" fill="#fff"/>
        <path id="Trazado_184269" data-name="Trazado 184269" d="M5410.9,119.921a6.736,6.736,0,0,1,.547,1.828c.039,6.993.027,13.986.022,20.98,0,.806.039,1.712-1.128,1.682-1.12-.028-1.127-.911-1.128-1.724q-.007-7.118,0-14.237V127h-45.675v46.873h38.269a3.363,3.363,0,0,1,.994.018,15.36,15.36,0,0,1,1.577.7q-.362.779-.723,1.557h-42.48V119.921Zm-47.352,2.333v2.313h45.563v-2.313Z" transform="translate(-5361.175 -119.921)" fill="#fff"/>
        <path id="Trazado_184270" data-name="Trazado 184270" d="M5480.02,238.767l-9.612-9.107a14.383,14.383,0,0,1-13.164,2.254,13.954,13.954,0,0,1-8.095-6.281,14.6,14.6,0,1,1,23.313,2.149c.4.427.808.88,1.238,1.3q4.03,3.97,8.068,7.931v1.749Zm-18.509-8.447a12.337,12.337,0,1,0-12.258-12.462A12.37,12.37,0,0,0,5461.511,230.321Z" transform="translate(-5425.545 -182.544)" fill="#fff"/>
        <path id="Trazado_184271" data-name="Trazado 184271" d="M5426.218,162.818v2.06h-21.925v-2.06Z" transform="translate(-5393.519 -152.099)" fill="#fff"/>
        <path id="Trazado_184272" data-name="Trazado 184272" d="M5446.422,183.4v-2.088h16.069V183.4Z" transform="translate(-5425.12 -165.974)" fill="#fff"/>
        <path id="Trazado_184273" data-name="Trazado 184273" d="M5403.669,296.129v-2.06h10.288v2.06Z" transform="translate(-5393.05 -250.552)" fill="#fff"/>
        <path id="Trazado_184274" data-name="Trazado 184274" d="M5411.787,239.657H5403.8v-2.075h7.983Z" transform="translate(-5393.151 -208.181)" fill="#fff"/>
        <path id="Trazado_184275" data-name="Trazado 184275" d="M5404.3,183.357v-2.108h7.927v2.108Z" transform="translate(-5393.522 -165.924)" fill="#fff"/>
        <path id="Trazado_184276" data-name="Trazado 184276" d="M5412.34,200.229v2.134H5404.4v-2.134Z" transform="translate(-5393.602 -180.161)" fill="#fff"/>
        <path id="Trazado_184277" data-name="Trazado 184277" d="M5404.355,258.426v-2.067h7.856v2.067Z" transform="translate(-5393.565 -222.266)" fill="#fff"/>
        <path id="Trazado_184278" data-name="Trazado 184278" d="M5404.316,277.248v-2.095h7.908v2.095Z" transform="translate(-5393.536 -236.363)" fill="#fff"/>
        <path id="Trazado_184279" data-name="Trazado 184279" d="M5404.389,314.542v-2.1h7.914v2.1Z" transform="translate(-5393.591 -264.334)" fill="#fff"/>
        <path id="Trazado_184280" data-name="Trazado 184280" d="M5380.646,221.286v-2.091h6.773v2.091Z" transform="translate(-5375.78 -194.388)" fill="#fff"/>
        <path id="Trazado_184281" data-name="Trazado 184281" d="M5424.779,219.22V221.3h-6.751V219.22Z" transform="translate(-5403.821 -194.407)" fill="#fff"/>
        <path id="Trazado_184282" data-name="Trazado 184282" d="M5446.576,200.168h4.439v2.144h-4.439Z" transform="translate(-5425.236 -180.116)" fill="#fff"/>
        <path id="Trazado_184283" data-name="Trazado 184283" d="M5380.628,164.685v-2.126h3.311v2.126Z" transform="translate(-5375.767 -151.905)" fill="#fff"/>
        <path id="Trazado_184284" data-name="Trazado 184284" d="M5384.151,256.252v2.1h-3.281v-2.1Z" transform="translate(-5375.949 -222.185)" fill="#fff"/>
        <path id="Trazado_184285" data-name="Trazado 184285" d="M5384.1,294.055v2.065h-3.19v-2.065Z" transform="translate(-5375.978 -250.542)" fill="#fff"/>
        <path id="Trazado_184286" data-name="Trazado 184286" d="M5526.826,247.733a26.141,26.141,0,0,1-2.168-2.69,1.757,1.757,0,0,1,.008-1.6c.486-.662,1.172-.412,1.673.182a42.167,42.167,0,0,1,2.673,3.268,1.792,1.792,0,0,1,.031,1.629,40.772,40.772,0,0,1-2.664,3.274,1.133,1.133,0,0,1-1.738.252c-.647-.542-.45-1.159.042-1.738C5525.38,249.5,5526.057,248.662,5526.826,247.733Z" transform="translate(-5483.487 -212.285)" fill="#fff"/>
        <path id="Trazado_184287" data-name="Trazado 184287" d="M5470.744,247.715c.768.928,1.448,1.762,2.142,2.585.493.586.654,1.227.023,1.752a1.129,1.129,0,0,1-1.734-.275c-.871-1.061-1.745-2.118-2.633-3.164a1.251,1.251,0,0,1,0-1.8c.9-1.088,1.8-2.177,2.722-3.252.472-.553,1.161-.758,1.6-.174a1.767,1.767,0,0,1,.073,1.611A25.185,25.185,0,0,1,5470.744,247.715Z" transform="translate(-5441.427 -212.273)" fill="#fff"/>
        <path id="Trazado_184288" data-name="Trazado 184288" d="M5502.345,244.623c-.458,1.38-.836,2.522-1.217,3.662a32.806,32.806,0,0,1-1.271,3.635c-.189.4-.93.547-1.418.81-.227-.467-.743-1.017-.635-1.386q1.023-3.52,2.32-6.956a1.6,1.6,0,0,1,1.315-.723C5501.785,243.688,5502.089,244.331,5502.345,244.623Z" transform="translate(-5463.652 -212.742)" fill="#fff"/>
      </g>
    </g>
  </g>
</svg>
