<svg xmlns="http://www.w3.org/2000/svg" xmlns:xlink="http://www.w3.org/1999/xlink" width="1191.109" height="535.954" viewBox="0 0 1191.109 535.954">
  <defs>
    <filter id="Trazado_183947" x="0" y="98.877" width="802.07" height="437.077" filterUnits="userSpaceOnUse">
      <feOffset dy="3" input="SourceAlpha"/>
      <feGaussianBlur stdDeviation="3" result="blur"/>
      <feFlood flood-opacity="0.161"/>
      <feComposite operator="in" in2="blur"/>
      <feComposite in="SourceGraphic"/>
    </filter>
    <linearGradient id="linear-gradient" x1="0.5" x2="0.5" y2="1" gradientUnits="objectBoundingBox">
      <stop offset="0" stop-color="#4dd0e1"/>
      <stop offset="1" stop-color="#039be5"/>
    </linearGradient>
    <filter id="Rectángulo_42529" x="438.867" y="216.918" width="269.784" height="63.792" filterUnits="userSpaceOnUse">
      <feOffset dy="3" input="SourceAlpha"/>
      <feGaussianBlur stdDeviation="3" result="blur-2"/>
      <feFlood flood-opacity="0.161"/>
      <feComposite operator="in" in2="blur-2"/>
      <feComposite in="SourceGraphic"/>
    </filter>
    <filter id="Rectángulo_42531" x="438.686" y="267.936" width="269.784" height="110.005" filterUnits="userSpaceOnUse">
      <feOffset dy="3" input="SourceAlpha"/>
      <feGaussianBlur stdDeviation="3" result="blur-3"/>
      <feFlood flood-opacity="0.161"/>
      <feComposite operator="in" in2="blur-3"/>
      <feComposite in="SourceGraphic"/>
    </filter>
    <filter id="Rectángulo_42532" x="438.867" y="365.167" width="269.784" height="63.792" filterUnits="userSpaceOnUse">
      <feOffset dy="3" input="SourceAlpha"/>
      <feGaussianBlur stdDeviation="3" result="blur-4"/>
      <feFlood flood-opacity="0.161"/>
      <feComposite operator="in" in2="blur-4"/>
      <feComposite in="SourceGraphic"/>
    </filter>
    <linearGradient id="linear-gradient-4" x1="0.5" x2="0.5" y2="1" gradientUnits="objectBoundingBox">
      <stop offset="0" stop-color="#f5f5f5"/>
      <stop offset="0.25" stop-color="#f5f5f5"/>
      <stop offset="1" stop-color="#a7b3cf"/>
    </linearGradient>
    <filter id="Rectángulo_42530" x="870.156" y="215.918" width="320.952" height="63.792" filterUnits="userSpaceOnUse">
      <feOffset dy="3" input="SourceAlpha"/>
      <feGaussianBlur stdDeviation="3" result="blur-5"/>
      <feFlood flood-opacity="0.161"/>
      <feComposite operator="in" in2="blur-5"/>
      <feComposite in="SourceGraphic"/>
    </filter>
    <filter id="Rectángulo_42526" x="869.975" y="266.936" width="320.952" height="110.005" filterUnits="userSpaceOnUse">
      <feOffset dy="3" input="SourceAlpha"/>
      <feGaussianBlur stdDeviation="3" result="blur-6"/>
      <feFlood flood-opacity="0.161"/>
      <feComposite operator="in" in2="blur-6"/>
      <feComposite in="SourceGraphic"/>
    </filter>
    <filter id="Rectángulo_42525" x="870.156" y="364.167" width="320.952" height="63.792" filterUnits="userSpaceOnUse">
      <feOffset dy="3" input="SourceAlpha"/>
      <feGaussianBlur stdDeviation="3" result="blur-7"/>
      <feFlood flood-opacity="0.161"/>
      <feComposite operator="in" in2="blur-7"/>
      <feComposite in="SourceGraphic"/>
    </filter>
  </defs>
  <g id="Grupo_145693" data-name="Grupo 145693" transform="translate(-231.086 -6056.413)">
    <g id="Grupo_145684" data-name="Grupo 145684" transform="translate(0 2488.558)">
      <g id="Grupo_145674" data-name="Grupo 145674" transform="translate(240.086 3568.219)">
        <g transform="matrix(1, 0, 0, 1, -9, -0.36)" filter="url(#Trazado_183947)">
          <path id="Trazado_183947-2" data-name="Trazado 183947" d="M333.659,184.776V590.024c0,7.047-1.882,13.828,5.01,13.828l773.881-.924c6.89,0,4.567-5.857,4.567-12.9V184.776Z" transform="translate(-324.42 -79.9)"/>
        </g>
        <g id="Grupo_145763" data-name="Grupo 145763" transform="translate(-153 -6151.229)">
          <path id="Trazado_189308" data-name="Trazado 189308" d="M6.065,0H779.81c3.35,0,6.065.179,6.065.4V60.053c0,.22-2.715.4-6.065.4H6.065c-3.35,0-6.065-.179-6.065-.4V.4C0,.179,2.715,0,6.065,0Z" transform="translate(153 6196)" fill="#ffa726"/>
          <rect id="Rectángulo_42596" data-name="Rectángulo 42596" width="14.448" height="735.016" rx="5.408" transform="translate(913.445 6221.245) rotate(90)" fill="#fff"/>
          <path id="Trazado_189309" data-name="Trazado 189309" d="M364.274,158.385a3.925,3.925,0,1,1-3.924-3.926A3.924,3.924,0,0,1,364.274,158.385Z" transform="translate(-163.286 6050.822)" fill="#fff"/>
          <path id="Trazado_189310" data-name="Trazado 189310" d="M364.274,158.385a3.925,3.925,0,1,1-3.924-3.926A3.924,3.924,0,0,1,364.274,158.385Z" transform="translate(-178.953 6050.822)" fill="#12263f"/>
          <path id="Trazado_189311" data-name="Trazado 189311" d="M374.09,158.385a3.926,3.926,0,1,1-3.926-3.926A3.926,3.926,0,0,1,374.09,158.385Z" transform="translate(-157.432 6050.822)" fill="#26a69a"/>
        </g>
      </g>
      <g id="Rectángulo_42524" data-name="Rectángulo 42524" transform="translate(278 3749.442)" fill="#fff" stroke="#707070" stroke-width="1">
        <rect width="367" height="265" stroke="none"/>
        <rect x="0.5" y="0.5" width="366" height="264" fill="none"/>
      </g>
      <rect id="Rectángulo_42533" data-name="Rectángulo 42533" width="108" height="30" transform="translate(303 3773.442)" fill="#ffca28"/>
      <rect id="Rectángulo_42535" data-name="Rectángulo 42535" width="66" height="30" transform="translate(303 3870.442)" fill="#ffca28"/>
      <rect id="Rectángulo_42537" data-name="Rectángulo 42537" width="209" height="30" transform="translate(303 3935.442)" fill="#ffca28"/>
      <rect id="Rectángulo_42538" data-name="Rectángulo 42538" width="41" height="30" transform="translate(303 3968.442)" fill="#ffca28"/>
      <rect id="Rectángulo_42536" data-name="Rectángulo 42536" width="312" height="30" transform="translate(303 3902.442)" fill="#ffca28"/>
      <rect id="Rectángulo_42534" data-name="Rectángulo 42534" width="304" height="30" transform="translate(303 3807.442)" fill="#ffca28"/>
      <path id="Trazado_189609" data-name="Trazado 189609" d="M20.578-6.445A8.3,8.3,0,0,1,19.055-1.57,4.5,4.5,0,0,1,15.3.246a3.4,3.4,0,0,1-1.7-.416,2.9,2.9,0,0,1-1.148-1.178A3.644,3.644,0,0,1,9.375.2,3.1,3.1,0,0,1,7.406-.463,3.787,3.787,0,0,1,6.17-2.344a6.8,6.8,0,0,1-.24-2.766A8.6,8.6,0,0,1,7.816-9.82,4.782,4.782,0,0,1,11.578-11.6a5.373,5.373,0,0,1,2.965.8l.738.492-.6,6.879Q14.484-1.8,15.809-1.8a1.953,1.953,0,0,0,1.67-1.271,7.5,7.5,0,0,0,.744-3.252A8.352,8.352,0,0,0,16.6-12.375a6.632,6.632,0,0,0-5.338-2.133,7.085,7.085,0,0,0-3.979,1.143,7.861,7.861,0,0,0-2.754,3.234A12.16,12.16,0,0,0,3.387-5.367Q3.2-1.266,5.027.908a6.761,6.761,0,0,0,5.484,2.174A10.284,10.284,0,0,0,12.6,2.854a9.145,9.145,0,0,0,1.793-.533l.434,1.945a6.1,6.1,0,0,1-1.928.756,10.524,10.524,0,0,1-2.432.287A11.015,11.015,0,0,1,5.057,4.084,7.558,7.558,0,0,1,1.77.457,13.059,13.059,0,0,1,.809-5.367,13.493,13.493,0,0,1,2.3-11.162a9.86,9.86,0,0,1,3.7-3.961,10.157,10.157,0,0,1,5.3-1.4,10.112,10.112,0,0,1,5.1,1.225,7.731,7.731,0,0,1,3.223,3.521A11.27,11.27,0,0,1,20.578-6.445ZM8.859-5.1A4.623,4.623,0,0,0,9.1-2.8a1.237,1.237,0,0,0,1.189.777A1.377,1.377,0,0,0,11.3-2.518a3.76,3.76,0,0,0,.768-1.4l.469-5.327a2.818,2.818,0,0,0-.727-.093A2.314,2.314,0,0,0,9.791-8.318,7.021,7.021,0,0,0,8.859-5.1Zm24.5-2.143H26.895v4.078h7.641V0H22.781V-17.062H34.559v3.176H26.895v3.6h6.469Zm6.293-5.437.129,1.488a4.3,4.3,0,0,1,3.621-1.723,3.618,3.618,0,0,1,2.959,1.184,5.635,5.635,0,0,1,1.014,3.563V0H43.418V-8a2.14,2.14,0,0,0-.387-1.412,1.789,1.789,0,0,0-1.406-.451,1.883,1.883,0,0,0-1.723.914V0H35.953V-12.68Zm14.508-3.152v3.152H56.25v2.742H54.164v5.8a1.481,1.481,0,0,0,.258,1,1.383,1.383,0,0,0,1.02.281,5.793,5.793,0,0,0,.984-.07V-.105A7.288,7.288,0,0,1,54.2.234a4.137,4.137,0,0,1-3.012-.961,3.939,3.939,0,0,1-.973-2.918V-9.937H48.6V-12.68h1.617v-3.152ZM61.969,0H58.008V-12.68h3.961Zm-4.2-15.961a1.778,1.778,0,0,1,.609-1.391,2.29,2.29,0,0,1,1.582-.542,2.29,2.29,0,0,1,1.582.542,1.778,1.778,0,0,1,.609,1.391,1.778,1.778,0,0,1-.609,1.391,2.29,2.29,0,0,1-1.582.542,2.29,2.29,0,0,1-1.582-.542A1.778,1.778,0,0,1,57.773-15.961ZM69-15.832v3.152h2.086v2.742H69v5.8a1.481,1.481,0,0,0,.258,1,1.383,1.383,0,0,0,1.02.281,5.793,5.793,0,0,0,.984-.07V-.105a7.288,7.288,0,0,1-2.227.34,4.137,4.137,0,0,1-3.012-.961,3.939,3.939,0,0,1-.973-2.918V-9.937H63.434V-12.68h1.617v-3.152Zm8.707,10.3,2.109-7.148h4.23l-5.168,14.8-.223.539a3.926,3.926,0,0,1-3.891,2.461,6.189,6.189,0,0,1-1.629-.233V2.074h.516a2.7,2.7,0,0,0,1.271-.24,1.459,1.459,0,0,0,.65-.862s1.339,2.569.316-.844S71.484-12.68,71.484-12.68H75.7ZM20.578,25.555a8.3,8.3,0,0,1-1.523,4.875,4.5,4.5,0,0,1-3.75,1.816,3.4,3.4,0,0,1-1.7-.416,2.9,2.9,0,0,1-1.148-1.178A3.644,3.644,0,0,1,9.375,32.2a3.1,3.1,0,0,1-1.969-.662A3.787,3.787,0,0,1,6.17,29.656a6.8,6.8,0,0,1-.24-2.766A8.6,8.6,0,0,1,7.816,22.18,4.782,4.782,0,0,1,11.578,20.4a5.373,5.373,0,0,1,2.965.8l.738.492-.6,6.879q-.2,1.629,1.125,1.629a1.953,1.953,0,0,0,1.67-1.271,7.5,7.5,0,0,0,.744-3.252A8.352,8.352,0,0,0,16.6,19.625a6.632,6.632,0,0,0-5.338-2.133,7.085,7.085,0,0,0-3.979,1.143,7.861,7.861,0,0,0-2.754,3.234,12.16,12.16,0,0,0-1.143,4.764q-.188,4.1,1.641,6.275a6.761,6.761,0,0,0,5.484,2.174,10.284,10.284,0,0,0,2.086-.229,9.145,9.145,0,0,0,1.793-.533l.434,1.945a6.1,6.1,0,0,1-1.928.756,10.523,10.523,0,0,1-2.432.287,11.015,11.015,0,0,1-5.408-1.225A7.558,7.558,0,0,1,1.77,32.457a13.059,13.059,0,0,1-.961-5.824A13.493,13.493,0,0,1,2.3,20.838a9.86,9.86,0,0,1,3.7-3.961,10.157,10.157,0,0,1,5.3-1.4,10.112,10.112,0,0,1,5.1,1.225,7.731,7.731,0,0,1,3.223,3.521A11.27,11.27,0,0,1,20.578,25.555ZM8.859,26.9a4.623,4.623,0,0,0,.24,2.3,1.237,1.237,0,0,0,1.189.777,1.377,1.377,0,0,0,1.014-.491,3.76,3.76,0,0,0,.768-1.4l.469-5.327a2.818,2.818,0,0,0-.727-.093,2.314,2.314,0,0,0-2.021,1.022A7.021,7.021,0,0,0,8.859,26.9Zm27.316-8.787H31.055V32H26.941V18.113H21.914V14.938H36.176ZM42.9,32a4.459,4.459,0,0,1-.375-1.137,3.672,3.672,0,0,1-3.047,1.371,4.5,4.5,0,0,1-3.047-1.084,3.45,3.45,0,0,1-1.254-2.725A3.546,3.546,0,0,1,36.7,25.309a7.761,7.761,0,0,1,4.43-1.055h1.219v-.671q0-1.755-1.512-1.755a1.236,1.236,0,0,0-1.406,1.39H35.484a3.54,3.54,0,0,1,1.564-2.985,6.575,6.575,0,0,1,3.99-1.147,5.764,5.764,0,0,1,3.832,1.184,4.115,4.115,0,0,1,1.441,3.246v5.613a5.748,5.748,0,0,0,.539,2.672V32ZM40.43,29.422a2.2,2.2,0,0,0,1.225-.316,1.983,1.983,0,0,0,.7-.715V26.363H41.2q-2.062,0-2.062,1.852a1.131,1.131,0,0,0,.363.873A1.315,1.315,0,0,0,40.43,29.422Zm19.84-3.656a7.728,7.728,0,0,1-1.289,4.793,4.318,4.318,0,0,1-3.633,1.676A3.747,3.747,0,0,1,52.23,30.7L52.066,32H48.527V14h3.949v6.34a3.615,3.615,0,0,1,2.848-1.254,4.319,4.319,0,0,1,3.656,1.7,7.768,7.768,0,0,1,1.289,4.781Zm-3.961-.252a5.155,5.155,0,0,0-.486-2.6,1.639,1.639,0,0,0-1.494-.778,1.891,1.891,0,0,0-1.852,1.018v5.031a1.9,1.9,0,0,0,1.875,1.006,1.677,1.677,0,0,0,1.77-1.357A9.745,9.745,0,0,0,56.309,25.514ZM66.176,32H62.215V14h3.961Zm8.566.234a6.518,6.518,0,0,1-4.723-1.74,6.009,6.009,0,0,1-1.8-4.529v-.328a7.787,7.787,0,0,1,.721-3.434,5.274,5.274,0,0,1,2.1-2.3,6.35,6.35,0,0,1,3.281-.814,5.489,5.489,0,0,1,4.219,1.658,6.516,6.516,0,0,1,1.547,4.623V26.9H72.234a2.846,2.846,0,0,0,.926,1.676,2.755,2.755,0,0,0,1.852.609,3.549,3.549,0,0,0,2.93-1.312l1.8,2.133a5.045,5.045,0,0,1-2.092,1.623A7.069,7.069,0,0,1,74.742,32.234Zm-.445-10.1q-1.734,0-2.062,2.3h3.984v-.3a1.956,1.956,0,0,0-.48-1.471A1.912,1.912,0,0,0,74.3,22.133Zm7.676,2.93a17.909,17.909,0,0,1,.762-5.32,12.839,12.839,0,0,1,2.1-4.172A7.47,7.47,0,0,1,87.82,13.18l.75,1.945a7.64,7.64,0,0,0-2.537,3.768,18.376,18.376,0,0,0-.908,6.006v.516a18.734,18.734,0,0,0,.9,6.117,7.608,7.608,0,0,0,2.549,3.8l-.75,1.945a7.4,7.4,0,0,1-2.982-2.4,12.646,12.646,0,0,1-2.1-4.154,18,18,0,0,1-.762-5.133Zm11.8-5.742.129,1.488a4.3,4.3,0,0,1,3.621-1.723,3.618,3.618,0,0,1,2.959,1.184,5.635,5.635,0,0,1,1.014,3.563V32H97.535V24a2.14,2.14,0,0,0-.387-1.412,1.789,1.789,0,0,0-1.406-.451,1.883,1.883,0,0,0-1.723.914V32H90.07V19.32ZM110.824,32a4.459,4.459,0,0,1-.375-1.137,3.672,3.672,0,0,1-3.047,1.371,4.5,4.5,0,0,1-3.047-1.084,3.45,3.45,0,0,1-1.254-2.725,3.546,3.546,0,0,1,1.523-3.117,7.761,7.761,0,0,1,4.43-1.055h1.219v-.671q0-1.755-1.512-1.755a1.236,1.236,0,0,0-1.406,1.39h-3.949a3.54,3.54,0,0,1,1.564-2.985,6.575,6.575,0,0,1,3.99-1.147,5.764,5.764,0,0,1,3.832,1.184,4.115,4.115,0,0,1,1.441,3.246v5.613a5.748,5.748,0,0,0,.539,2.672V32Zm-2.473-2.578a2.2,2.2,0,0,0,1.225-.316,1.983,1.983,0,0,0,.7-.715V26.363h-1.148q-2.062,0-2.062,1.852a1.131,1.131,0,0,0,.363.873A1.315,1.315,0,0,0,108.352,29.422Zm11.8-10.1.129,1.488a4.36,4.36,0,0,1,3.621-1.723A3.21,3.21,0,0,1,127.148,21a4.22,4.22,0,0,1,3.727-1.91q3.855,0,3.961,4.664V32h-3.961V24a2.417,2.417,0,0,0-.328-1.418,1.4,1.4,0,0,0-1.2-.445,1.871,1.871,0,0,0-1.746,1.043l.012.164V32h-3.961V24.02a2.541,2.541,0,0,0-.316-1.441,1.393,1.393,0,0,0-1.207-.445,1.894,1.894,0,0,0-1.734,1.043V32h-3.949V19.32Zm23.074,12.914a6.518,6.518,0,0,1-4.723-1.74,6.009,6.009,0,0,1-1.8-4.529v-.328a7.787,7.787,0,0,1,.721-3.434,5.274,5.274,0,0,1,2.1-2.3,6.35,6.35,0,0,1,3.281-.814,5.489,5.489,0,0,1,4.219,1.658,6.516,6.516,0,0,1,1.547,4.623V26.9h-7.852a2.846,2.846,0,0,0,.926,1.676,2.755,2.755,0,0,0,1.852.609,3.549,3.549,0,0,0,2.93-1.312l1.8,2.133a5.045,5.045,0,0,1-2.092,1.623A7.069,7.069,0,0,1,143.227,32.234Zm-.445-10.1q-1.734,0-2.062,2.3H144.7v-.3a1.956,1.956,0,0,0-.48-1.471A1.912,1.912,0,0,0,142.781,22.133Zm24.6,1.406H156.527V20.492h10.852Zm0,5.145H156.527V25.637h10.852Zm11.168-15.152,1.734.938a7.1,7.1,0,0,0-1,3.246v2.074H176.4V17.855a5.226,5.226,0,0,1,.633-2.291A6.96,6.96,0,0,1,178.547,13.531Zm4.113,0,1.734.938a7.1,7.1,0,0,0-1,3.246v2.074h-2.883V17.855a5.226,5.226,0,0,1,.633-2.291A6.96,6.96,0,0,1,182.66,13.531Zm11.309,17.1a4.072,4.072,0,0,1-3.387,1.605,3.993,3.993,0,0,1-3.158-1.213,5.1,5.1,0,0,1-1.072-3.486V19.32H190.3v8.238a1.419,1.419,0,0,0,1.582,1.629,2.064,2.064,0,0,0,1.934-.973V19.32h3.973V32h-3.7Zm12.621-2.191a.912.912,0,0,0-.527-.809,8.021,8.021,0,0,0-2-.633,9.138,9.138,0,0,1-2.437-.861,4.083,4.083,0,0,1-1.465-1.295,3.092,3.092,0,0,1-.5-1.746,3.5,3.5,0,0,1,1.441-2.877,5.938,5.938,0,0,1,3.773-1.131,6.579,6.579,0,0,1,4.031,1.137,3.555,3.555,0,0,1,1.523,2.988h-3.961q0-1.523-1.605-1.523a1.591,1.591,0,0,0-1.043.346,1.07,1.07,0,0,0-.422.861.982.982,0,0,0,.516.855,4.872,4.872,0,0,0,1.646.539,14.228,14.228,0,0,1,1.986.5q2.859.984,2.859,3.527a3.321,3.321,0,0,1-1.541,2.824,6.758,6.758,0,0,1-3.99,1.09,6.9,6.9,0,0,1-2.906-.586,4.86,4.86,0,0,1-1.992-1.594,3.609,3.609,0,0,1-.715-2.121h3.691a1.526,1.526,0,0,0,.586,1.283,2.41,2.41,0,0,0,1.441.4,1.9,1.9,0,0,0,1.213-.328A1.05,1.05,0,0,0,206.59,28.438ZM219.8,30.629a4.072,4.072,0,0,1-3.387,1.605,3.993,3.993,0,0,1-3.158-1.213,5.1,5.1,0,0,1-1.072-3.486V19.32h3.949v8.238a1.419,1.419,0,0,0,1.582,1.629,2.064,2.064,0,0,0,1.934-.973V19.32h3.973V32h-3.7ZM232.922,32a4.459,4.459,0,0,1-.375-1.137,3.672,3.672,0,0,1-3.047,1.371,4.5,4.5,0,0,1-3.047-1.084,3.45,3.45,0,0,1-1.254-2.725,3.546,3.546,0,0,1,1.523-3.117,7.761,7.761,0,0,1,4.43-1.055h1.219v-.671q0-1.755-1.512-1.755a1.236,1.236,0,0,0-1.406,1.39H225.5a3.54,3.54,0,0,1,1.564-2.985,6.575,6.575,0,0,1,3.99-1.147,5.764,5.764,0,0,1,3.832,1.184,4.115,4.115,0,0,1,1.441,3.246v5.613a5.748,5.748,0,0,0,.539,2.672V32Zm-2.473-2.578a2.2,2.2,0,0,0,1.225-.316,1.983,1.983,0,0,0,.7-.715V26.363h-1.148q-2.062,0-2.062,1.852a1.131,1.131,0,0,0,.363.873A1.315,1.315,0,0,0,230.449,29.422Zm15.738-6.527-1.3-.094a2.336,2.336,0,0,0-2.391,1.172V32h-3.949V19.32h3.7l.129,1.629a3.058,3.058,0,0,1,2.777-1.863,3.851,3.851,0,0,1,1.1.141ZM251.777,32h-3.961V19.32h3.961Zm-4.2-15.961a1.778,1.778,0,0,1,.609-1.391,2.579,2.579,0,0,1,3.164,0,1.893,1.893,0,0,1,0,2.782,2.579,2.579,0,0,1-3.164,0A1.778,1.778,0,0,1,247.582,16.039Zm6.129,9.5a7.484,7.484,0,0,1,.738-3.381,5.28,5.28,0,0,1,2.121-2.279,6.388,6.388,0,0,1,3.246-.8A5.83,5.83,0,0,1,264.3,20.85a6.768,6.768,0,0,1,1.641,4.8v.141a6.566,6.566,0,0,1-1.646,4.705,5.846,5.846,0,0,1-4.459,1.74,5.912,5.912,0,0,1-4.348-1.623,6.348,6.348,0,0,1-1.77-4.4Zm3.949.246a4.718,4.718,0,0,0,.551,2.578,1.835,1.835,0,0,0,1.629.82q2.109,0,2.156-3.246v-.4q0-3.41-2.18-3.41-1.98,0-2.145,2.941Zm10.559-5.508-1.734-.937a6.8,6.8,0,0,0,1-3.3V14h2.883v1.91a5.167,5.167,0,0,1-.627,2.326A7,7,0,0,1,268.219,20.281Zm4.242,0-1.734-.937a6.8,6.8,0,0,0,1-3.3V14h2.883v1.91a5.167,5.167,0,0,1-.627,2.326A7,7,0,0,1,272.461,20.281Zm10.746,5.109a16.71,16.71,0,0,1-.809,5.227,13.344,13.344,0,0,1-2.232,4.248,7.432,7.432,0,0,1-3.076,2.408l-.75-1.945a7.716,7.716,0,0,0,2.52-3.75,18.1,18.1,0,0,0,.926-5.824v-.715a18.734,18.734,0,0,0-.9-6.117,7.608,7.608,0,0,0-2.549-3.8l.75-1.945a7.568,7.568,0,0,1,3.053,2.385,13.18,13.18,0,0,1,2.227,4.184,16.568,16.568,0,0,1,.838,5.127ZM12.879,57.754a7.646,7.646,0,0,1-1.33,4.717,4.264,4.264,0,0,1-3.592,1.764,3.655,3.655,0,0,1-2.871-1.277v5.918H1.137V51.32H4.828l.117,1.172a3.656,3.656,0,0,1,2.988-1.406,4.3,4.3,0,0,1,3.645,1.729,7.741,7.741,0,0,1,1.3,4.752ZM8.93,57.508q0-3.375-1.969-3.375a1.859,1.859,0,0,0-1.875,1.008v4.992a1.919,1.919,0,0,0,1.9,1.055q1.887,0,1.945-3.258Zm13.242,5.121a4.072,4.072,0,0,1-3.387,1.605,3.993,3.993,0,0,1-3.158-1.213,5.1,5.1,0,0,1-1.072-3.486V51.32H18.5v8.238a1.419,1.419,0,0,0,1.582,1.629,2.064,2.064,0,0,0,1.934-.973V51.32h3.973V64h-3.7Zm17.754-4.863a7.728,7.728,0,0,1-1.289,4.793A4.318,4.318,0,0,1,35,64.234,3.747,3.747,0,0,1,31.887,62.7L31.723,64H28.184V46h3.949v6.34a3.615,3.615,0,0,1,2.848-1.254,4.319,4.319,0,0,1,3.656,1.7,7.768,7.768,0,0,1,1.289,4.781Zm-3.961-.252a5.155,5.155,0,0,0-.486-2.6,1.639,1.639,0,0,0-1.494-.778,1.891,1.891,0,0,0-1.852,1.018v5.031a1.9,1.9,0,0,0,1.875,1.006,1.677,1.677,0,0,0,1.77-1.357A9.745,9.745,0,0,0,35.965,57.514ZM45.832,64H41.871V46h3.961Zm6.6,0H48.469V51.32H52.43Zm-4.2-15.961a1.778,1.778,0,0,1,.609-1.391,2.579,2.579,0,0,1,3.164,0,1.893,1.893,0,0,1,0,2.782,2.579,2.579,0,0,1-3.164,0A1.778,1.778,0,0,1,48.234,48.039ZM60.223,61.188a1.756,1.756,0,0,0,1.289-.451,1.654,1.654,0,0,0,.445-1.26h3.7A4.384,4.384,0,0,1,64.166,62.9a5.558,5.558,0,0,1-3.85,1.336A5.627,5.627,0,0,1,55.957,62.5a6.834,6.834,0,0,1-1.594-4.8v-.164a7.723,7.723,0,0,1,.709-3.393,5.162,5.162,0,0,1,2.045-2.262,6.1,6.1,0,0,1,3.164-.791,5.488,5.488,0,0,1,3.926,1.371,4.863,4.863,0,0,1,1.453,3.715h-3.7a2.168,2.168,0,0,0-.48-1.512,1.658,1.658,0,0,0-1.289-.527q-1.535,0-1.793,1.957a13.809,13.809,0,0,0-.082,1.711,5.424,5.424,0,0,0,.457,2.648A1.582,1.582,0,0,0,60.223,61.188Zm18.445,0a1.756,1.756,0,0,0,1.289-.451,1.654,1.654,0,0,0,.445-1.26h3.7A4.384,4.384,0,0,1,82.611,62.9a5.558,5.558,0,0,1-3.85,1.336A5.627,5.627,0,0,1,74.4,62.5a6.834,6.834,0,0,1-1.594-4.8v-.164a7.723,7.723,0,0,1,.709-3.393,5.162,5.162,0,0,1,2.045-2.262,6.1,6.1,0,0,1,3.164-.791,5.488,5.488,0,0,1,3.926,1.371,4.863,4.863,0,0,1,1.453,3.715H80.4a2.168,2.168,0,0,0-.48-1.512,1.658,1.658,0,0,0-1.289-.527q-1.535,0-1.793,1.957a13.809,13.809,0,0,0-.082,1.711,5.424,5.424,0,0,0,.457,2.648A1.582,1.582,0,0,0,78.668,61.188ZM89.941,64H85.98V46h3.961Zm9.574,0a4.459,4.459,0,0,1-.375-1.137,3.672,3.672,0,0,1-3.047,1.371,4.5,4.5,0,0,1-3.047-1.084,3.45,3.45,0,0,1-1.254-2.725,3.546,3.546,0,0,1,1.523-3.117,7.761,7.761,0,0,1,4.43-1.055h1.219v-.671q0-1.755-1.512-1.755a1.236,1.236,0,0,0-1.406,1.39H92.1a3.54,3.54,0,0,1,1.564-2.985,6.575,6.575,0,0,1,3.99-1.147,5.764,5.764,0,0,1,3.832,1.184,4.115,4.115,0,0,1,1.441,3.246v5.613a5.748,5.748,0,0,0,.539,2.672V64Zm-2.473-2.578a2.2,2.2,0,0,0,1.225-.316,1.983,1.983,0,0,0,.7-.715V58.363H97.816q-2.062,0-2.062,1.852a1.131,1.131,0,0,0,.363.873A1.315,1.315,0,0,0,97.043,61.422Zm14.707-.984a.912.912,0,0,0-.527-.809,8.021,8.021,0,0,0-2-.633,9.138,9.138,0,0,1-2.437-.861,4.083,4.083,0,0,1-1.465-1.295,3.092,3.092,0,0,1-.5-1.746,3.5,3.5,0,0,1,1.441-2.877,5.938,5.938,0,0,1,3.773-1.131,6.579,6.579,0,0,1,4.031,1.137,3.555,3.555,0,0,1,1.523,2.988h-3.961q0-1.523-1.605-1.523a1.591,1.591,0,0,0-1.043.346,1.07,1.07,0,0,0-.422.861.982.982,0,0,0,.516.855,4.872,4.872,0,0,0,1.646.539,14.228,14.228,0,0,1,1.986.5q2.859.984,2.859,3.527a3.321,3.321,0,0,1-1.541,2.824,6.758,6.758,0,0,1-3.99,1.09,6.9,6.9,0,0,1-2.906-.586,4.86,4.86,0,0,1-1.992-1.594,3.609,3.609,0,0,1-.715-2.121h3.691a1.526,1.526,0,0,0,.586,1.283,2.41,2.41,0,0,0,1.441.4,1.9,1.9,0,0,0,1.213-.328A1.05,1.05,0,0,0,111.75,60.438Zm12.293,0a.912.912,0,0,0-.527-.809,8.021,8.021,0,0,0-2-.633,9.138,9.138,0,0,1-2.437-.861,4.083,4.083,0,0,1-1.465-1.295,3.092,3.092,0,0,1-.5-1.746,3.5,3.5,0,0,1,1.441-2.877,5.938,5.938,0,0,1,3.773-1.131,6.579,6.579,0,0,1,4.031,1.137,3.555,3.555,0,0,1,1.523,2.988h-3.961q0-1.523-1.605-1.523a1.591,1.591,0,0,0-1.043.346,1.07,1.07,0,0,0-.422.861.982.982,0,0,0,.516.855,4.872,4.872,0,0,0,1.646.539,14.228,14.228,0,0,1,1.986.5q2.859.984,2.859,3.527a3.321,3.321,0,0,1-1.541,2.824,6.758,6.758,0,0,1-3.99,1.09,6.9,6.9,0,0,1-2.906-.586,4.86,4.86,0,0,1-1.992-1.594,3.609,3.609,0,0,1-.715-2.121H120.4a1.526,1.526,0,0,0,.586,1.283,2.41,2.41,0,0,0,1.441.4,1.9,1.9,0,0,0,1.213-.328A1.05,1.05,0,0,0,124.043,60.438Zm25.2-13.5V58.105a6.419,6.419,0,0,1-.809,3.287,5.238,5.238,0,0,1-2.32,2.115,8.174,8.174,0,0,1-3.574.727,7.062,7.062,0,0,1-4.91-1.617,5.768,5.768,0,0,1-1.828-4.43V46.938h4.137V58.27q.07,2.8,2.6,2.8a2.518,2.518,0,0,0,1.934-.7,3.286,3.286,0,0,0,.656-2.285V46.938Zm9.023,13.5a.912.912,0,0,0-.527-.809,8.021,8.021,0,0,0-2-.633,9.138,9.138,0,0,1-2.437-.861,4.083,4.083,0,0,1-1.465-1.295,3.092,3.092,0,0,1-.5-1.746,3.5,3.5,0,0,1,1.441-2.877,5.938,5.938,0,0,1,3.773-1.131,6.579,6.579,0,0,1,4.031,1.137,3.555,3.555,0,0,1,1.523,2.988h-3.961q0-1.523-1.605-1.523a1.591,1.591,0,0,0-1.043.346,1.07,1.07,0,0,0-.422.861.982.982,0,0,0,.516.855,4.872,4.872,0,0,0,1.646.539,14.228,14.228,0,0,1,1.986.5q2.859.984,2.859,3.527a3.321,3.321,0,0,1-1.541,2.824,6.758,6.758,0,0,1-3.99,1.09,6.9,6.9,0,0,1-2.906-.586,4.86,4.86,0,0,1-1.992-1.594,3.609,3.609,0,0,1-.715-2.121h3.691a1.526,1.526,0,0,0,.586,1.283,2.41,2.41,0,0,0,1.441.4,1.9,1.9,0,0,0,1.213-.328A1.05,1.05,0,0,0,158.262,60.438Zm13.207,2.191a4.072,4.072,0,0,1-3.387,1.605,3.993,3.993,0,0,1-3.158-1.213,5.1,5.1,0,0,1-1.072-3.486V51.32H167.8v8.238a1.419,1.419,0,0,0,1.582,1.629,2.064,2.064,0,0,0,1.934-.973V51.32h3.973V64h-3.7ZM184.594,64a4.459,4.459,0,0,1-.375-1.137,3.672,3.672,0,0,1-3.047,1.371,4.5,4.5,0,0,1-3.047-1.084,3.45,3.45,0,0,1-1.254-2.725,3.546,3.546,0,0,1,1.523-3.117,7.761,7.761,0,0,1,4.43-1.055h1.219v-.671q0-1.755-1.512-1.755a1.236,1.236,0,0,0-1.406,1.39h-3.949a3.54,3.54,0,0,1,1.564-2.985,6.575,6.575,0,0,1,3.99-1.147,5.764,5.764,0,0,1,3.832,1.184A4.115,4.115,0,0,1,188,55.516v5.613a5.748,5.748,0,0,0,.539,2.672V64Zm-2.473-2.578a2.2,2.2,0,0,0,1.225-.316,1.983,1.983,0,0,0,.7-.715V58.363h-1.148q-2.062,0-2.062,1.852a1.131,1.131,0,0,0,.363.873A1.315,1.315,0,0,0,182.121,61.422Zm15.738-6.527-1.3-.094a2.336,2.336,0,0,0-2.391,1.172V64h-3.949V51.32h3.7l.129,1.629a3.058,3.058,0,0,1,2.777-1.863,3.851,3.851,0,0,1,1.1.141ZM203.449,64h-3.961V51.32h3.961Zm-4.2-15.961a1.778,1.778,0,0,1,.609-1.391,2.579,2.579,0,0,1,3.164,0,1.893,1.893,0,0,1,0,2.782,2.579,2.579,0,0,1-3.164,0A1.778,1.778,0,0,1,199.254,48.039Zm6.129,9.5a7.484,7.484,0,0,1,.738-3.381,5.28,5.28,0,0,1,2.121-2.279,6.388,6.388,0,0,1,3.246-.8,5.83,5.83,0,0,1,4.488,1.764,6.768,6.768,0,0,1,1.641,4.8v.141a6.566,6.566,0,0,1-1.646,4.705,5.846,5.846,0,0,1-4.459,1.74,5.912,5.912,0,0,1-4.348-1.623,6.348,6.348,0,0,1-1.77-4.4Zm3.949.246a4.718,4.718,0,0,0,.551,2.578,1.835,1.835,0,0,0,1.629.82q2.109,0,2.156-3.246v-.4q0-3.41-2.18-3.41-1.98,0-2.145,2.941Zm15.5,10.43a5.2,5.2,0,0,1-4.219-5.449v-2.32q0-2.367-1.9-2.367v-2.66q1.9,0,1.9-2.379V50.582a5.376,5.376,0,0,1,1.1-3.41,6.007,6.007,0,0,1,3.123-1.887l.738,2.063q-1.477.563-1.535,3.152v2.543a3.8,3.8,0,0,1-2.168,3.7,3.81,3.81,0,0,1,2.168,3.715v2.531q.059,2.59,1.535,3.152ZM20.578,89.555a8.3,8.3,0,0,1-1.523,4.875,4.5,4.5,0,0,1-3.75,1.816,3.4,3.4,0,0,1-1.7-.416,2.9,2.9,0,0,1-1.148-1.178A3.644,3.644,0,0,1,9.375,96.2a3.1,3.1,0,0,1-1.969-.662A3.787,3.787,0,0,1,6.17,93.656a6.8,6.8,0,0,1-.24-2.766A8.6,8.6,0,0,1,7.816,86.18,4.782,4.782,0,0,1,11.578,84.4a5.373,5.373,0,0,1,2.965.8l.738.492-.6,6.879q-.2,1.629,1.125,1.629a1.953,1.953,0,0,0,1.67-1.271,7.5,7.5,0,0,0,.744-3.252A8.352,8.352,0,0,0,16.6,83.625a6.632,6.632,0,0,0-5.338-2.133,7.085,7.085,0,0,0-3.979,1.143,7.861,7.861,0,0,0-2.754,3.234,12.16,12.16,0,0,0-1.143,4.764q-.188,4.1,1.641,6.275a6.761,6.761,0,0,0,5.484,2.174,10.284,10.284,0,0,0,2.086-.229,9.145,9.145,0,0,0,1.793-.533l.434,1.945a6.1,6.1,0,0,1-1.928.756,10.523,10.523,0,0,1-2.432.287,11.015,11.015,0,0,1-5.408-1.225A7.558,7.558,0,0,1,1.77,96.457a13.059,13.059,0,0,1-.961-5.824A13.493,13.493,0,0,1,2.3,84.838a9.86,9.86,0,0,1,3.7-3.961,10.157,10.157,0,0,1,5.3-1.4,10.112,10.112,0,0,1,5.1,1.225,7.731,7.731,0,0,1,3.223,3.521A11.27,11.27,0,0,1,20.578,89.555ZM8.859,90.9a4.623,4.623,0,0,0,.24,2.3,1.237,1.237,0,0,0,1.189.777,1.377,1.377,0,0,0,1.014-.491,3.76,3.76,0,0,0,.768-1.4l.469-5.327a2.818,2.818,0,0,0-.727-.093,2.314,2.314,0,0,0-2.021,1.022A7.021,7.021,0,0,0,8.859,90.9ZM26.766,96H22.8V83.32h3.961Zm-4.2-15.961a1.778,1.778,0,0,1,.609-1.391,2.579,2.579,0,0,1,3.164,0,1.893,1.893,0,0,1,0,2.782,2.579,2.579,0,0,1-3.164,0A1.778,1.778,0,0,1,22.57,80.039ZM28.7,89.566A7.746,7.746,0,0,1,30,84.82a4.282,4.282,0,0,1,3.633-1.734,3.641,3.641,0,0,1,2.859,1.336V78h3.961V96H36.9l-.2-1.359a3.739,3.739,0,0,1-3.094,1.594A4.274,4.274,0,0,1,30.023,94.5,7.991,7.991,0,0,1,28.7,89.566Zm3.949.246q0,3.375,1.969,3.375a1.944,1.944,0,0,0,1.875-1.1V87.258a1.892,1.892,0,0,0-1.852-1.125q-1.828,0-1.98,2.953Zm-12.07,31.742a8.3,8.3,0,0,1-1.523,4.875,4.5,4.5,0,0,1-3.75,1.816,3.4,3.4,0,0,1-1.7-.416,2.9,2.9,0,0,1-1.148-1.178A3.644,3.644,0,0,1,9.375,128.2a3.1,3.1,0,0,1-1.969-.662,3.787,3.787,0,0,1-1.236-1.881,6.8,6.8,0,0,1-.24-2.766,8.6,8.6,0,0,1,1.887-4.711,4.782,4.782,0,0,1,3.762-1.781,5.373,5.373,0,0,1,2.965.8l.738.492-.6,6.879q-.2,1.629,1.125,1.629a1.953,1.953,0,0,0,1.67-1.271,7.5,7.5,0,0,0,.744-3.252,8.352,8.352,0,0,0-1.623-6.047,6.632,6.632,0,0,0-5.338-2.133,7.085,7.085,0,0,0-3.979,1.143,7.861,7.861,0,0,0-2.754,3.234,12.16,12.16,0,0,0-1.143,4.764q-.188,4.1,1.641,6.275a6.761,6.761,0,0,0,5.484,2.174,10.284,10.284,0,0,0,2.086-.229,9.145,9.145,0,0,0,1.793-.533l.434,1.945a6.1,6.1,0,0,1-1.928.756,10.523,10.523,0,0,1-2.432.287,11.015,11.015,0,0,1-5.408-1.225,7.558,7.558,0,0,1-3.287-3.627,13.059,13.059,0,0,1-.961-5.824A13.493,13.493,0,0,1,2.3,116.838a9.86,9.86,0,0,1,3.7-3.961,10.157,10.157,0,0,1,5.3-1.4,10.112,10.112,0,0,1,5.1,1.225,7.731,7.731,0,0,1,3.223,3.521A11.27,11.27,0,0,1,20.578,121.555ZM8.859,122.9a4.623,4.623,0,0,0,.24,2.3,1.237,1.237,0,0,0,1.189.777,1.377,1.377,0,0,0,1.014-.491,3.76,3.76,0,0,0,.768-1.4l.469-5.327a2.818,2.818,0,0,0-.727-.093,2.314,2.314,0,0,0-2.021,1.022A7.021,7.021,0,0,0,8.859,122.9Zm19.1,2.287a1.756,1.756,0,0,0,1.289-.451,1.654,1.654,0,0,0,.445-1.26h3.7A4.384,4.384,0,0,1,31.9,126.9a5.558,5.558,0,0,1-3.85,1.336A5.627,5.627,0,0,1,23.7,126.5a6.834,6.834,0,0,1-1.594-4.8v-.164a7.723,7.723,0,0,1,.709-3.393,5.162,5.162,0,0,1,2.045-2.262,6.1,6.1,0,0,1,3.164-.791,5.488,5.488,0,0,1,3.926,1.371,4.863,4.863,0,0,1,1.453,3.715H29.7a2.168,2.168,0,0,0-.48-1.512,1.658,1.658,0,0,0-1.289-.527q-1.535,0-1.793,1.957a13.809,13.809,0,0,0-.082,1.711,5.424,5.424,0,0,0,.457,2.648A1.582,1.582,0,0,0,27.961,125.188Zm6.609-3.645a7.484,7.484,0,0,1,.738-3.381,5.28,5.28,0,0,1,2.121-2.279,6.388,6.388,0,0,1,3.246-.8,5.83,5.83,0,0,1,4.488,1.764,6.768,6.768,0,0,1,1.641,4.8v.141a6.566,6.566,0,0,1-1.646,4.705,5.846,5.846,0,0,1-4.459,1.74,5.912,5.912,0,0,1-4.348-1.623,6.348,6.348,0,0,1-1.77-4.4Zm3.949.246a4.718,4.718,0,0,0,.551,2.578,1.835,1.835,0,0,0,1.629.82q2.109,0,2.156-3.246v-.4q0-3.41-2.18-3.41-1.98,0-2.145,2.941ZM52.711,128H48.75V110h3.961Zm9.984-1.371a4.072,4.072,0,0,1-3.387,1.605,3.993,3.993,0,0,1-3.158-1.213,5.1,5.1,0,0,1-1.072-3.486V115.32h3.949v8.238a1.419,1.419,0,0,0,1.582,1.629,2.064,2.064,0,0,0,1.934-.973V115.32h3.973V128h-3.7ZM72.41,115.32l.129,1.488a4.36,4.36,0,0,1,3.621-1.723A3.21,3.21,0,0,1,79.406,117a4.22,4.22,0,0,1,3.727-1.91q3.855,0,3.961,4.664V128H83.133v-8a2.417,2.417,0,0,0-.328-1.418,1.4,1.4,0,0,0-1.2-.445,1.871,1.871,0,0,0-1.746,1.043l.012.164V128H75.914v-7.98a2.541,2.541,0,0,0-.316-1.441,1.393,1.393,0,0,0-1.207-.445,1.894,1.894,0,0,0-1.734,1.043V128H68.707V115.32Zm20.566,0,.129,1.488a4.3,4.3,0,0,1,3.621-1.723,3.618,3.618,0,0,1,2.959,1.184,5.635,5.635,0,0,1,1.014,3.563V128H96.738v-8a2.14,2.14,0,0,0-.387-1.412,1.789,1.789,0,0,0-1.406-.451,1.883,1.883,0,0,0-1.723.914V128H89.273V115.32Zm10.207,5.742a17.909,17.909,0,0,1,.762-5.32,12.839,12.839,0,0,1,2.1-4.172,7.47,7.47,0,0,1,2.982-2.391l.75,1.945a7.64,7.64,0,0,0-2.537,3.768,18.376,18.376,0,0,0-.908,6.006v.516a18.734,18.734,0,0,0,.9,6.117,7.608,7.608,0,0,0,2.549,3.8l-.75,1.945a7.4,7.4,0,0,1-2.982-2.4,12.646,12.646,0,0,1-2.1-4.154,18,18,0,0,1-.762-5.133Zm11.8-5.742.129,1.488a4.3,4.3,0,0,1,3.621-1.723,3.618,3.618,0,0,1,2.959,1.184,5.635,5.635,0,0,1,1.014,3.563V128h-3.961v-8a2.14,2.14,0,0,0-.387-1.412,1.789,1.789,0,0,0-1.406-.451,1.883,1.883,0,0,0-1.723.914V128h-3.949V115.32ZM132.035,128a4.459,4.459,0,0,1-.375-1.137,3.672,3.672,0,0,1-3.047,1.371,4.5,4.5,0,0,1-3.047-1.084,3.45,3.45,0,0,1-1.254-2.725,3.546,3.546,0,0,1,1.523-3.117,7.761,7.761,0,0,1,4.43-1.055h1.219v-.671q0-1.755-1.512-1.755a1.236,1.236,0,0,0-1.406,1.39h-3.949a3.54,3.54,0,0,1,1.564-2.985,6.575,6.575,0,0,1,3.99-1.147A5.764,5.764,0,0,1,134,116.27a4.115,4.115,0,0,1,1.441,3.246v5.613a5.748,5.748,0,0,0,.539,2.672v.2Zm-2.473-2.578a2.2,2.2,0,0,0,1.225-.316,1.983,1.983,0,0,0,.7-.715v-2.027h-1.148q-2.062,0-2.062,1.852a1.131,1.131,0,0,0,.363.873A1.315,1.315,0,0,0,129.563,125.422Zm11.8-10.1.129,1.488a4.36,4.36,0,0,1,3.621-1.723,3.21,3.21,0,0,1,3.246,1.91,4.22,4.22,0,0,1,3.727-1.91q3.855,0,3.961,4.664V128h-3.961v-8a2.417,2.417,0,0,0-.328-1.418,1.4,1.4,0,0,0-1.2-.445,1.871,1.871,0,0,0-1.746,1.043l.012.164V128h-3.961v-7.98a2.541,2.541,0,0,0-.316-1.441,1.393,1.393,0,0,0-1.207-.445,1.894,1.894,0,0,0-1.734,1.043V128H137.66V115.32Zm23.074,12.914a6.518,6.518,0,0,1-4.723-1.74,6.009,6.009,0,0,1-1.8-4.529v-.328a7.787,7.787,0,0,1,.721-3.434,5.274,5.274,0,0,1,2.1-2.3,6.35,6.35,0,0,1,3.281-.814,5.489,5.489,0,0,1,4.219,1.658,6.516,6.516,0,0,1,1.547,4.623V122.9H161.93a2.846,2.846,0,0,0,.926,1.676,2.755,2.755,0,0,0,1.852.609,3.549,3.549,0,0,0,2.93-1.312l1.8,2.133a5.045,5.045,0,0,1-2.092,1.623A7.069,7.069,0,0,1,164.438,128.234Zm-.445-10.1q-1.734,0-2.062,2.3h3.984v-.3a1.956,1.956,0,0,0-.48-1.471A1.912,1.912,0,0,0,163.992,118.133Zm24.6,1.406H177.738v-3.047H188.59Zm0,5.145H177.738v-3.047H188.59Zm11.168-15.152,1.734.938a7.1,7.1,0,0,0-1,3.246v2.074h-2.883v-1.934a5.226,5.226,0,0,1,.633-2.291A6.96,6.96,0,0,1,199.758,109.531Zm4.113,0,1.734.938a7.1,7.1,0,0,0-1,3.246v2.074h-2.883v-1.934a5.226,5.226,0,0,1,.633-2.291A6.96,6.96,0,0,1,203.871,109.531Zm11.309,17.1a4.072,4.072,0,0,1-3.387,1.605,3.993,3.993,0,0,1-3.158-1.213,5.1,5.1,0,0,1-1.072-3.486V115.32h3.949v8.238a1.419,1.419,0,0,0,1.582,1.629,2.064,2.064,0,0,0,1.934-.973V115.32H219V128h-3.7Zm12.621-2.191a.912.912,0,0,0-.527-.809,8.021,8.021,0,0,0-2-.633,9.138,9.138,0,0,1-2.437-.861,4.083,4.083,0,0,1-1.465-1.295,3.092,3.092,0,0,1-.5-1.746,3.5,3.5,0,0,1,1.441-2.877,5.938,5.938,0,0,1,3.773-1.131,6.579,6.579,0,0,1,4.031,1.137,3.555,3.555,0,0,1,1.523,2.988h-3.961q0-1.523-1.605-1.523a1.591,1.591,0,0,0-1.043.346,1.07,1.07,0,0,0-.422.861.982.982,0,0,0,.516.855,4.872,4.872,0,0,0,1.646.539,14.228,14.228,0,0,1,1.986.5q2.859.984,2.859,3.527a3.321,3.321,0,0,1-1.541,2.824,6.758,6.758,0,0,1-3.99,1.09,6.9,6.9,0,0,1-2.906-.586,4.86,4.86,0,0,1-1.992-1.594,3.609,3.609,0,0,1-.715-2.121h3.691a1.526,1.526,0,0,0,.586,1.283,2.41,2.41,0,0,0,1.441.4,1.9,1.9,0,0,0,1.213-.328A1.05,1.05,0,0,0,227.8,124.438Zm11.789,3.8a6.518,6.518,0,0,1-4.723-1.74,6.009,6.009,0,0,1-1.8-4.529v-.328a7.787,7.787,0,0,1,.721-3.434,5.274,5.274,0,0,1,2.1-2.3,6.35,6.35,0,0,1,3.281-.814,5.489,5.489,0,0,1,4.219,1.658,6.516,6.516,0,0,1,1.547,4.623V122.9h-7.852a2.846,2.846,0,0,0,.926,1.676,2.755,2.755,0,0,0,1.852.609,3.549,3.549,0,0,0,2.93-1.312l1.8,2.133a5.045,5.045,0,0,1-2.092,1.623A7.069,7.069,0,0,1,239.59,128.234Zm-.445-10.1q-1.734,0-2.062,2.3h3.984v-.3a1.956,1.956,0,0,0-.48-1.471A1.912,1.912,0,0,0,239.145,118.133Zm15.047.762-1.3-.094a2.336,2.336,0,0,0-2.391,1.172V128h-3.949V115.32h3.7l.129,1.629a3.058,3.058,0,0,1,2.777-1.863,3.851,3.851,0,0,1,1.1.141Zm5.59,9.105H255.82V115.32h3.961Zm-4.2-15.961a1.778,1.778,0,0,1,.609-1.391,2.579,2.579,0,0,1,3.164,0,1.893,1.893,0,0,1,0,2.782,2.579,2.579,0,0,1-3.164,0A1.778,1.778,0,0,1,255.586,112.039Zm6.129,9.527a7.746,7.746,0,0,1,1.3-4.746,4.282,4.282,0,0,1,3.633-1.734,3.641,3.641,0,0,1,2.859,1.336V110h3.961v18h-3.551l-.2-1.359a3.739,3.739,0,0,1-3.094,1.594,4.274,4.274,0,0,1-3.586-1.734A7.991,7.991,0,0,1,261.715,121.566Zm3.949.246q0,3.375,1.969,3.375a1.944,1.944,0,0,0,1.875-1.1v-4.828a1.892,1.892,0,0,0-1.852-1.125q-1.828,0-1.98,2.953Zm11.613-5.531-1.734-.937a6.8,6.8,0,0,0,1-3.3V110h2.883v1.91a5.167,5.167,0,0,1-.627,2.326A7,7,0,0,1,277.277,116.281Zm4.242,0-1.734-.937a6.8,6.8,0,0,0,1-3.3V110h2.883v1.91a5.167,5.167,0,0,1-.627,2.326A7,7,0,0,1,281.52,116.281Zm10.746,5.109a16.71,16.71,0,0,1-.809,5.227,13.344,13.344,0,0,1-2.232,4.248,7.432,7.432,0,0,1-3.076,2.408l-.75-1.945a7.716,7.716,0,0,0,2.52-3.75,18.1,18.1,0,0,0,.926-5.824v-.715a18.734,18.734,0,0,0-.9-6.117,7.608,7.608,0,0,0-2.549-3.8l.75-1.945a7.568,7.568,0,0,1,3.053,2.385,13.18,13.18,0,0,1,2.227,4.184,16.568,16.568,0,0,1,.838,5.127ZM12.879,153.754a7.646,7.646,0,0,1-1.33,4.717,4.264,4.264,0,0,1-3.592,1.764,3.655,3.655,0,0,1-2.871-1.277v5.918H1.137V147.32H4.828l.117,1.172a3.656,3.656,0,0,1,2.988-1.406,4.3,4.3,0,0,1,3.645,1.729,7.741,7.741,0,0,1,1.3,4.752Zm-3.949-.246q0-3.375-1.969-3.375a1.859,1.859,0,0,0-1.875,1.008v4.992a1.919,1.919,0,0,0,1.9,1.055q1.887,0,1.945-3.258Zm13.359-2.613-1.3-.094a2.336,2.336,0,0,0-2.391,1.172V160H14.648V147.32h3.7l.129,1.629a3.058,3.058,0,0,1,2.777-1.863,3.851,3.851,0,0,1,1.1.141ZM27.879,160H23.918V147.32h3.961Zm-4.2-15.961a1.778,1.778,0,0,1,.609-1.391,2.579,2.579,0,0,1,3.164,0,1.893,1.893,0,0,1,0,2.782,2.579,2.579,0,0,1-3.164,0A1.778,1.778,0,0,1,23.684,144.039ZM35.367,155.3l2-7.98h4.16L37.395,160H33.363l-4.137-12.68H33.4ZM49.676,160a4.459,4.459,0,0,1-.375-1.137,3.672,3.672,0,0,1-3.047,1.371,4.5,4.5,0,0,1-3.047-1.084,3.45,3.45,0,0,1-1.254-2.725,3.546,3.546,0,0,1,1.523-3.117,7.761,7.761,0,0,1,4.43-1.055h1.219v-.671q0-1.755-1.512-1.755a1.236,1.236,0,0,0-1.406,1.39H42.258a3.54,3.54,0,0,1,1.564-2.985,6.575,6.575,0,0,1,3.99-1.147,5.764,5.764,0,0,1,3.832,1.184,4.115,4.115,0,0,1,1.441,3.246v5.613a5.748,5.748,0,0,0,.539,2.672v.2ZM47.2,157.422a2.2,2.2,0,0,0,1.225-.316,1.983,1.983,0,0,0,.7-.715v-2.027H47.977q-2.062,0-2.062,1.852a1.131,1.131,0,0,0,.363.873A1.315,1.315,0,0,0,47.2,157.422Zm12.668-13.254v3.152h2.086v2.742H59.871v5.8a1.481,1.481,0,0,0,.258,1,1.383,1.383,0,0,0,1.02.281,5.793,5.793,0,0,0,.984-.07v2.824a7.288,7.288,0,0,1-2.227.34,4.137,4.137,0,0,1-3.012-.961,3.939,3.939,0,0,1-.973-2.918v-6.293H54.3V147.32h1.617v-3.152Zm9.773,16.066a6.518,6.518,0,0,1-4.723-1.74,6.009,6.009,0,0,1-1.8-4.529v-.328a7.787,7.787,0,0,1,.721-3.434,5.274,5.274,0,0,1,2.1-2.3,6.35,6.35,0,0,1,3.281-.814,5.489,5.489,0,0,1,4.219,1.658,6.516,6.516,0,0,1,1.547,4.623V154.9H67.137a2.846,2.846,0,0,0,.926,1.676,2.755,2.755,0,0,0,1.852.609,3.549,3.549,0,0,0,2.93-1.312l1.8,2.133a5.045,5.045,0,0,1-2.092,1.623A7.069,7.069,0,0,1,69.645,160.234Zm-.445-10.1q-1.734,0-2.062,2.3h3.984v-.3a1.956,1.956,0,0,0-.48-1.471A1.912,1.912,0,0,0,69.2,150.133ZM86.719,160H82.758V147.32h3.961Zm-4.2-15.961a1.778,1.778,0,0,1,.609-1.391,2.579,2.579,0,0,1,3.164,0,1.893,1.893,0,0,1,0,2.782,2.579,2.579,0,0,1-3.164,0A1.778,1.778,0,0,1,82.523,144.039Zm10.254,3.281.129,1.488a4.3,4.3,0,0,1,3.621-1.723,3.618,3.618,0,0,1,2.959,1.184,5.635,5.635,0,0,1,1.014,3.563V160H96.539v-8a2.14,2.14,0,0,0-.387-1.412,1.789,1.789,0,0,0-1.406-.451,1.883,1.883,0,0,0-1.723.914V160H89.074V147.32Zm14.508-3.152v3.152h2.086v2.742h-2.086v5.8a1.481,1.481,0,0,0,.258,1,1.383,1.383,0,0,0,1.02.281,5.793,5.793,0,0,0,.984-.07v2.824a7.288,7.288,0,0,1-2.227.34,4.137,4.137,0,0,1-3.012-.961,3.939,3.939,0,0,1-.973-2.918v-6.293h-1.617V147.32h1.617v-3.152Zm17.168,14.461a4.072,4.072,0,0,1-3.387,1.605,3.993,3.993,0,0,1-3.158-1.213,5.1,5.1,0,0,1-1.072-3.486V147.32h3.949v8.238a1.419,1.419,0,0,0,1.582,1.629,2.064,2.064,0,0,0,1.934-.973V147.32h3.973V160h-3.7Zm12.621-2.191a.912.912,0,0,0-.527-.809,8.021,8.021,0,0,0-2-.633,9.138,9.138,0,0,1-2.437-.861,4.083,4.083,0,0,1-1.465-1.295,3.092,3.092,0,0,1-.5-1.746,3.5,3.5,0,0,1,1.441-2.877,5.938,5.938,0,0,1,3.773-1.131,6.579,6.579,0,0,1,4.031,1.137,3.555,3.555,0,0,1,1.523,2.988h-3.961q0-1.523-1.605-1.523a1.591,1.591,0,0,0-1.043.346,1.07,1.07,0,0,0-.422.861.982.982,0,0,0,.516.855,4.872,4.872,0,0,0,1.646.539,14.228,14.228,0,0,1,1.986.5q2.859.984,2.859,3.527a3.321,3.321,0,0,1-1.541,2.824,6.758,6.758,0,0,1-3.99,1.09,6.9,6.9,0,0,1-2.906-.586,4.86,4.86,0,0,1-1.992-1.594,3.609,3.609,0,0,1-.715-2.121h3.691a1.526,1.526,0,0,0,.586,1.283,2.41,2.41,0,0,0,1.441.4,1.9,1.9,0,0,0,1.213-.328A1.05,1.05,0,0,0,137.074,156.438Zm11.789,3.8a6.518,6.518,0,0,1-4.723-1.74,6.009,6.009,0,0,1-1.8-4.529v-.328a7.787,7.787,0,0,1,.721-3.434,5.274,5.274,0,0,1,2.1-2.3,6.35,6.35,0,0,1,3.281-.814,5.489,5.489,0,0,1,4.219,1.658,6.516,6.516,0,0,1,1.547,4.623V154.9h-7.852a2.846,2.846,0,0,0,.926,1.676,2.755,2.755,0,0,0,1.852.609,3.549,3.549,0,0,0,2.93-1.312l1.8,2.133a5.045,5.045,0,0,1-2.092,1.623A7.069,7.069,0,0,1,148.863,160.234Zm-.445-10.1q-1.734,0-2.062,2.3h3.984v-.3a1.956,1.956,0,0,0-.48-1.471A1.912,1.912,0,0,0,148.418,150.133Zm15.047.762-1.3-.094a2.336,2.336,0,0,0-2.391,1.172V160h-3.949V147.32h3.7l.129,1.629a3.058,3.058,0,0,1,2.777-1.863,3.851,3.851,0,0,1,1.1.141ZM169.453,160h-4.1V142.938h4.1Zm2.18-6.434a7.746,7.746,0,0,1,1.3-4.746,4.282,4.282,0,0,1,3.633-1.734,3.641,3.641,0,0,1,2.859,1.336V142h3.961v18h-3.551l-.2-1.359a3.739,3.739,0,0,1-3.094,1.594,4.274,4.274,0,0,1-3.586-1.734A7.991,7.991,0,0,1,171.633,153.566Zm3.949.246q0,3.375,1.969,3.375a1.944,1.944,0,0,0,1.875-1.1v-4.828a1.892,1.892,0,0,0-1.852-1.125q-1.828,0-1.98,2.953Zm12.387-7a2.248,2.248,0,0,1,1.559.557,1.943,1.943,0,0,1,0,2.848,2.459,2.459,0,0,1-3.123-.006,1.942,1.942,0,0,1,0-2.836A2.229,2.229,0,0,1,187.969,146.816Zm-.656,17.777-1.992-.937.4-.8a6.5,6.5,0,0,0,.855-2.906v-2.93h3.164l-.012,2.543a6.356,6.356,0,0,1-.691,2.742A6.967,6.967,0,0,1,187.313,164.594ZM3.68,188.168a2.248,2.248,0,0,1,1.559.557,1.943,1.943,0,0,1,0,2.848,2.248,2.248,0,0,1-1.559.557,2.229,2.229,0,0,1-1.564-.562,1.942,1.942,0,0,1,0-2.836A2.229,2.229,0,0,1,3.68,188.168Zm5.73,0a2.248,2.248,0,0,1,1.559.557,1.943,1.943,0,0,1,0,2.848,2.248,2.248,0,0,1-1.559.557,2.229,2.229,0,0,1-1.564-.562,1.942,1.942,0,0,1,0-2.836A2.229,2.229,0,0,1,9.41,188.168Zm5.719,0a2.248,2.248,0,0,1,1.559.557,1.943,1.943,0,0,1,0,2.848,2.248,2.248,0,0,1-1.559.557,2.229,2.229,0,0,1-1.564-.562,1.942,1.942,0,0,1,0-2.836A2.229,2.229,0,0,1,15.129,188.168Z" transform="translate(315 3797.442)" fill="#5d3b3b"/>
    </g>
    <g id="Grupo_145689" data-name="Grupo 145689" transform="translate(678.772 6279.331)">
      <g transform="matrix(1, 0, 0, 1, -447.69, -222.92)" filter="url(#Rectángulo_42529)">
        <rect id="Rectángulo_42529-2" data-name="Rectángulo 42529" width="251.785" height="45.792" transform="translate(447.87 222.92)" fill="url(#linear-gradient)"/>
      </g>
      <g transform="matrix(1, 0, 0, 1, -447.69, -222.92)" filter="url(#Rectángulo_42531)">
        <rect id="Rectángulo_42531-2" data-name="Rectángulo 42531" width="251.785" height="92.005" transform="translate(447.69 273.94)" fill="url(#linear-gradient)"/>
      </g>
      <g transform="matrix(1, 0, 0, 1, -447.69, -222.92)" filter="url(#Rectángulo_42532)">
        <rect id="Rectángulo_42532-2" data-name="Rectángulo 42532" width="251.785" height="45.792" transform="translate(447.87 371.17)" fill="url(#linear-gradient)"/>
      </g>
      <path id="Trazado_189612" data-name="Trazado 189612" d="M1.234-1.317a1.35,1.35,0,0,1,.431-1.039,1.531,1.531,0,0,1,1.081-.4,1.543,1.543,0,0,1,1.09.4,1.35,1.35,0,0,1,.431,1.039A1.331,1.331,0,0,1,3.841-.292,1.55,1.55,0,0,1,2.746.1,1.537,1.537,0,0,1,1.661-.292,1.331,1.331,0,0,1,1.234-1.317Zm4.388,0a1.35,1.35,0,0,1,.431-1.039,1.531,1.531,0,0,1,1.081-.4,1.543,1.543,0,0,1,1.09.4,1.35,1.35,0,0,1,.431,1.039A1.331,1.331,0,0,1,8.229-.292,1.55,1.55,0,0,1,7.134.1,1.537,1.537,0,0,1,6.049-.292,1.331,1.331,0,0,1,5.622-1.317Zm4.3,0a1.35,1.35,0,0,1,.431-1.039,1.531,1.531,0,0,1,1.081-.4,1.543,1.543,0,0,1,1.09.4,1.35,1.35,0,0,1,.431,1.039,1.331,1.331,0,0,1-.427,1.025A1.55,1.55,0,0,1,11.439.1a1.537,1.537,0,0,1-1.085-.394A1.331,1.331,0,0,1,9.927-1.317Zm5.362,0a1.35,1.35,0,0,1,.431-1.039,1.531,1.531,0,0,1,1.081-.4,1.543,1.543,0,0,1,1.09.4,1.35,1.35,0,0,1,.431,1.039A1.331,1.331,0,0,1,17.9-.292,1.55,1.55,0,0,1,16.8.1a1.537,1.537,0,0,1-1.085-.394A1.331,1.331,0,0,1,15.289-1.317Zm4.388,0a1.35,1.35,0,0,1,.431-1.039,1.531,1.531,0,0,1,1.081-.4,1.543,1.543,0,0,1,1.09.4,1.35,1.35,0,0,1,.431,1.039,1.331,1.331,0,0,1-.427,1.025A1.55,1.55,0,0,1,21.189.1,1.537,1.537,0,0,1,20.1-.292,1.331,1.331,0,0,1,19.677-1.317Zm4.3,0a1.35,1.35,0,0,1,.431-1.039,1.531,1.531,0,0,1,1.081-.4,1.543,1.543,0,0,1,1.09.4,1.35,1.35,0,0,1,.431,1.039,1.331,1.331,0,0,1-.427,1.025A1.55,1.55,0,0,1,25.494.1a1.537,1.537,0,0,1-1.085-.394A1.331,1.331,0,0,1,23.982-1.317Zm5.3,0a1.35,1.35,0,0,1,.431-1.039,1.531,1.531,0,0,1,1.081-.4,1.543,1.543,0,0,1,1.09.4,1.35,1.35,0,0,1,.431,1.039,1.331,1.331,0,0,1-.427,1.025A1.55,1.55,0,0,1,30.792.1a1.537,1.537,0,0,1-1.085-.394A1.331,1.331,0,0,1,29.279-1.317Zm5.52,0a1.35,1.35,0,0,1,.431-1.039,1.531,1.531,0,0,1,1.081-.4,1.543,1.543,0,0,1,1.09.4,1.35,1.35,0,0,1,.431,1.039,1.331,1.331,0,0,1-.427,1.025A1.55,1.55,0,0,1,36.312.1a1.537,1.537,0,0,1-1.085-.394A1.331,1.331,0,0,1,34.8-1.317Z" transform="translate(105.357 174.948)" fill="#fff"/>
      <path id="Trazado_189611" data-name="Trazado 189611" d="M7.042-1.021A3.362,3.362,0,0,1,4.3.186,3.171,3.171,0,0,1,1.832-.742,3.96,3.96,0,0,1,.965-3.46v-6.578H3.646v6.492q0,1.57,1.429,1.57a1.936,1.936,0,0,0,1.874-.947v-7.115h2.69V0H7.116ZM17.1-2.774a.864.864,0,0,0-.487-.775,5.533,5.533,0,0,0-1.563-.506Q11.467-4.806,11.467-7.1a2.758,2.758,0,0,1,1.109-2.231,4.472,4.472,0,0,1,2.9-.9,4.813,4.813,0,0,1,3.057.9,2.836,2.836,0,0,1,1.146,2.338H17a1.3,1.3,0,0,0-.371-.951,1.57,1.57,0,0,0-1.16-.376,1.6,1.6,0,0,0-1.048.306.966.966,0,0,0-.371.779.826.826,0,0,0,.422.719,4.342,4.342,0,0,0,1.424.473,11.632,11.632,0,0,1,1.688.45,2.774,2.774,0,0,1,2.125,2.7A2.618,2.618,0,0,1,18.527-.663a5.083,5.083,0,0,1-3.043.849,5.309,5.309,0,0,1-2.24-.45A3.759,3.759,0,0,1,11.708-1.5a2.867,2.867,0,0,1-.557-1.693h2.542A1.4,1.4,0,0,0,14.222-2.1a2.1,2.1,0,0,0,1.317.38A1.941,1.941,0,0,0,16.7-2.009.909.909,0,0,0,17.1-2.774ZM26.051.186a4.928,4.928,0,0,1-3.595-1.354,4.815,4.815,0,0,1-1.387-3.609v-.26a6.064,6.064,0,0,1,.584-2.7,4.289,4.289,0,0,1,1.656-1.837,4.648,4.648,0,0,1,2.445-.645A4.166,4.166,0,0,1,29-8.925a5.278,5.278,0,0,1,1.183,3.683v1.095H23.787a2.491,2.491,0,0,0,.784,1.577,2.37,2.37,0,0,0,1.656.594A2.894,2.894,0,0,0,28.648-3.1l1.317,1.475A4.025,4.025,0,0,1,28.333-.292,5.357,5.357,0,0,1,26.051.186Zm-.306-8.248a1.675,1.675,0,0,0-1.294.54,2.8,2.8,0,0,0-.635,1.547h3.729v-.214a2,2,0,0,0-.482-1.384A1.729,1.729,0,0,0,25.745-8.062Zm11.6.538a7.284,7.284,0,0,0-.965-.074,1.964,1.964,0,0,0-1.995,1.03V0H31.7V-10.038h2.533l.074,1.2a2.484,2.484,0,0,1,2.236-1.382,2.809,2.809,0,0,1,.835.121ZM41.767,0H38.983V-13.508h2.783Zm1.985-5.093A6.049,6.049,0,0,1,44.8-8.832a3.417,3.417,0,0,1,2.881-1.392,3.074,3.074,0,0,1,2.421,1.095V-14.25H52.8V0H50.376l-.13-1.067A3.155,3.155,0,0,1,47.667.186a3.407,3.407,0,0,1-2.844-1.4A6.244,6.244,0,0,1,43.752-5.093Zm2.681.191a3.984,3.984,0,0,0,.492,2.171,1.6,1.6,0,0,0,1.429.755,1.793,1.793,0,0,0,1.753-1.053v-3.98a1.768,1.768,0,0,0-1.735-1.053Q46.433-8.062,46.433-4.9Zm13.3,3.585a1.35,1.35,0,0,1,.431-1.039,1.531,1.531,0,0,1,1.081-.4,1.543,1.543,0,0,1,1.09.4,1.35,1.35,0,0,1,.431,1.039,1.331,1.331,0,0,1-.427,1.025A1.55,1.55,0,0,1,61.249.1a1.537,1.537,0,0,1-1.085-.394A1.331,1.331,0,0,1,59.737-1.317Zm0-7.6a1.35,1.35,0,0,1,.431-1.039,1.531,1.531,0,0,1,1.081-.4,1.543,1.543,0,0,1,1.09.4,1.35,1.35,0,0,1,.431,1.039,1.331,1.331,0,0,1-.427,1.025,1.55,1.55,0,0,1-1.095.394,1.537,1.537,0,0,1-1.085-.394A1.331,1.331,0,0,1,59.737-8.916ZM72.836,0H70.053V-13.508h2.783Zm4.871-10.038.083,1.16a3.5,3.5,0,0,1,2.885-1.345,2.913,2.913,0,0,1,2.375.937,4.372,4.372,0,0,1,.8,2.8V0H81.167V-6.435A1.746,1.746,0,0,0,80.8-7.676a1.659,1.659,0,0,0-1.234-.386,1.844,1.844,0,0,0-1.7.967V0H75.184V-10.038ZM89.09-12.506v2.468h1.716v1.967H89.09v5.01a1.2,1.2,0,0,0,.213.8,1.072,1.072,0,0,0,.816.241,4.276,4.276,0,0,0,.789-.065V-.056a5.52,5.52,0,0,1-1.624.241,2.56,2.56,0,0,1-2.876-2.848V-8.071H84.943v-1.967h1.466v-2.468ZM7.042,20.979A3.362,3.362,0,0,1,4.3,22.186a3.171,3.171,0,0,1-2.463-.928A3.96,3.96,0,0,1,.965,18.54V11.962H3.646v6.492q0,1.57,1.429,1.57a1.936,1.936,0,0,0,1.874-.947V11.962h2.69V22H7.116ZM17.1,19.226a.864.864,0,0,0-.487-.775,5.533,5.533,0,0,0-1.563-.506q-3.581-.751-3.581-3.043a2.758,2.758,0,0,1,1.109-2.231,4.472,4.472,0,0,1,2.9-.9,4.813,4.813,0,0,1,3.057.9,2.836,2.836,0,0,1,1.146,2.338H17a1.3,1.3,0,0,0-.371-.951,1.57,1.57,0,0,0-1.16-.376,1.6,1.6,0,0,0-1.048.306.966.966,0,0,0-.371.779.826.826,0,0,0,.422.719,4.342,4.342,0,0,0,1.424.473,11.631,11.631,0,0,1,1.688.45,2.774,2.774,0,0,1,2.125,2.7,2.618,2.618,0,0,1-1.178,2.222,5.083,5.083,0,0,1-3.043.849,5.309,5.309,0,0,1-2.24-.45A3.759,3.759,0,0,1,11.708,20.5a2.867,2.867,0,0,1-.557-1.693h2.542a1.4,1.4,0,0,0,.529,1.095,2.1,2.1,0,0,0,1.317.38,1.941,1.941,0,0,0,1.164-.292A.909.909,0,0,0,17.1,19.226Zm8.953,2.959a4.928,4.928,0,0,1-3.595-1.354,4.815,4.815,0,0,1-1.387-3.609v-.26a6.064,6.064,0,0,1,.584-2.7,4.289,4.289,0,0,1,1.656-1.837,4.648,4.648,0,0,1,2.445-.645A4.166,4.166,0,0,1,29,13.075a5.278,5.278,0,0,1,1.183,3.683v1.095H23.787a2.491,2.491,0,0,0,.784,1.577,2.37,2.37,0,0,0,1.656.594A2.894,2.894,0,0,0,28.648,18.9l1.317,1.475a4.025,4.025,0,0,1-1.633,1.331A5.357,5.357,0,0,1,26.051,22.186Zm-.306-8.248a1.675,1.675,0,0,0-1.294.54,2.8,2.8,0,0,0-.635,1.547h3.729v-.214a2,2,0,0,0-.482-1.384A1.729,1.729,0,0,0,25.745,13.938Zm11.6.538a7.284,7.284,0,0,0-.965-.074,1.964,1.964,0,0,0-1.995,1.03V22H31.7V11.962h2.533l.074,1.2a2.484,2.484,0,0,1,2.236-1.382,2.809,2.809,0,0,1,.835.121ZM41.1,11.962l.083,1.16a3.5,3.5,0,0,1,2.885-1.345,2.913,2.913,0,0,1,2.375.937,4.372,4.372,0,0,1,.8,2.8V22H44.559V15.565a1.746,1.746,0,0,0-.371-1.241,1.659,1.659,0,0,0-1.234-.386,1.844,1.844,0,0,0-1.7.967V22H38.575V11.962ZM60.433,22H57.649l-5.418-8.888V22H49.448V8.492h2.783L57.659,17.4V8.492h2.774ZM68.5,22a2.977,2.977,0,0,1-.269-.9A3.244,3.244,0,0,1,65.7,22.186a3.564,3.564,0,0,1-2.445-.854,2.745,2.745,0,0,1-.969-2.152,2.837,2.837,0,0,1,1.183-2.449,5.837,5.837,0,0,1,3.419-.863h1.234v-.575a1.654,1.654,0,0,0-.357-1.113,1.405,1.405,0,0,0-1.127-.417,1.6,1.6,0,0,0-1.062.325,1.1,1.1,0,0,0-.385.891H62.511a2.693,2.693,0,0,1,.538-1.614A3.557,3.557,0,0,1,64.57,12.2a5.545,5.545,0,0,1,2.208-.422,4.381,4.381,0,0,1,2.946.932,3.262,3.262,0,0,1,1.09,2.621v4.351a4.8,4.8,0,0,0,.4,2.162V22Zm-2.217-1.865a2.309,2.309,0,0,0,1.095-.264,1.737,1.737,0,0,0,.742-.71V17.436h-1q-2.013,0-2.143,1.392l-.009.158a1.073,1.073,0,0,0,.353.826A1.369,1.369,0,0,0,66.287,20.135Zm9.1-8.173.083,1.123a3.528,3.528,0,0,1,2.885-1.308,2.677,2.677,0,0,1,2.663,1.531,3.447,3.447,0,0,1,3.015-1.531,2.994,2.994,0,0,1,2.431.951,4.371,4.371,0,0,1,.8,2.862V22h-2.69V15.584a1.919,1.919,0,0,0-.334-1.251,1.478,1.478,0,0,0-1.178-.4,1.674,1.674,0,0,0-1.67,1.153L81.4,22H78.718V15.593a1.9,1.9,0,0,0-.343-1.265,1.493,1.493,0,0,0-1.169-.391,1.737,1.737,0,0,0-1.651.948V22H72.874V11.962ZM93.942,22.186a4.928,4.928,0,0,1-3.595-1.354,4.815,4.815,0,0,1-1.387-3.609v-.26a6.064,6.064,0,0,1,.584-2.7A4.289,4.289,0,0,1,91.2,12.421a4.648,4.648,0,0,1,2.445-.645,4.166,4.166,0,0,1,3.242,1.3,5.278,5.278,0,0,1,1.183,3.683v1.095H91.679a2.491,2.491,0,0,0,.784,1.577,2.37,2.37,0,0,0,1.656.594A2.894,2.894,0,0,0,96.54,18.9l1.317,1.475a4.025,4.025,0,0,1-1.633,1.331A5.357,5.357,0,0,1,93.942,22.186Zm-.306-8.248a1.675,1.675,0,0,0-1.294.54,2.8,2.8,0,0,0-.635,1.547h3.729v-.214a2,2,0,0,0-.482-1.384A1.729,1.729,0,0,0,93.636,13.938Zm10.817,6.745a1.35,1.35,0,0,1,.431-1.039,1.676,1.676,0,0,1,2.171,0,1.35,1.35,0,0,1,.431,1.039,1.331,1.331,0,0,1-.427,1.025,1.7,1.7,0,0,1-2.18,0A1.331,1.331,0,0,1,104.454,20.683Zm0-7.6a1.35,1.35,0,0,1,.431-1.039,1.676,1.676,0,0,1,2.171,0,1.35,1.35,0,0,1,.431,1.039,1.331,1.331,0,0,1-.427,1.025,1.7,1.7,0,0,1-2.18,0A1.331,1.331,0,0,1,104.454,13.084ZM121.6,18.456a1.428,1.428,0,0,0-.557-1.211,7.3,7.3,0,0,0-2-.891,14.206,14.206,0,0,1-2.292-.923,3.744,3.744,0,0,1-2.3-3.349,3.262,3.262,0,0,1,.617-1.953,4.024,4.024,0,0,1,1.772-1.341,6.669,6.669,0,0,1,2.593-.482,6.071,6.071,0,0,1,2.579.524,4.107,4.107,0,0,1,1.758,1.48,3.872,3.872,0,0,1,.626,2.171h-2.783a1.821,1.821,0,0,0-.584-1.443,2.4,2.4,0,0,0-1.642-.515,2.567,2.567,0,0,0-1.586.431,1.361,1.361,0,0,0-.566,1.136,1.3,1.3,0,0,0,.663,1.1,7.494,7.494,0,0,0,1.953.835,8.438,8.438,0,0,1,3.46,1.772,3.529,3.529,0,0,1,1.085,2.635,3.251,3.251,0,0,1-1.327,2.751,5.808,5.808,0,0,1-3.572,1,6.9,6.9,0,0,1-2.839-.571,4.492,4.492,0,0,1-1.953-1.563,4,4,0,0,1-.673-2.3h2.792q0,2.236,2.672,2.236a2.6,2.6,0,0,0,1.549-.4A1.313,1.313,0,0,0,121.6,18.456Zm7.709-8.962v2.468h1.716v1.967h-1.716v5.01a1.2,1.2,0,0,0,.213.8,1.072,1.072,0,0,0,.816.241,4.276,4.276,0,0,0,.789-.065v2.032a5.52,5.52,0,0,1-1.624.241,2.56,2.56,0,0,1-2.876-2.848V13.929h-1.466V11.962h1.466V9.494Zm8.851,4.982a7.284,7.284,0,0,0-.965-.074,1.964,1.964,0,0,0-1.995,1.03V22h-2.681V11.962h2.533l.074,1.2a2.484,2.484,0,0,1,2.236-1.382,2.809,2.809,0,0,1,.835.121ZM142.277,22h-2.69V11.962h2.69ZM139.429,9.364a1.32,1.32,0,0,1,.4-.993,1.739,1.739,0,0,1,2.194,0,1.417,1.417,0,0,1,0,1.995,1.72,1.72,0,0,1-2.18,0A1.316,1.316,0,0,1,139.429,9.364Zm7.524,2.6.083,1.16a3.5,3.5,0,0,1,2.885-1.345,2.913,2.913,0,0,1,2.375.937,4.372,4.372,0,0,1,.8,2.8V22h-2.681V15.565a1.746,1.746,0,0,0-.371-1.241,1.659,1.659,0,0,0-1.234-.386,1.844,1.844,0,0,0-1.7.967V22H144.43V11.962Zm7.784,4.945a5.883,5.883,0,0,1,1.1-3.72,3.562,3.562,0,0,1,2.964-1.41,3.124,3.124,0,0,1,2.57,1.132l.111-.946h2.431v9.7a4.29,4.29,0,0,1-.6,2.292,3.843,3.843,0,0,1-1.684,1.484,5.919,5.919,0,0,1-2.542.51,5.5,5.5,0,0,1-2.152-.441,3.82,3.82,0,0,1-1.586-1.136l1.188-1.633a3.141,3.141,0,0,0,2.431,1.123,2.3,2.3,0,0,0,1.661-.571,2.14,2.14,0,0,0,.594-1.619v-.538a3.1,3.1,0,0,1-2.44,1.048,3.553,3.553,0,0,1-2.927-1.415,5.881,5.881,0,0,1-1.118-3.753Zm2.681.191a3.683,3.683,0,0,0,.547,2.148,1.74,1.74,0,0,0,1.5.778,1.86,1.86,0,0,0,1.753-.923V14.861a1.856,1.856,0,0,0-1.735-.923,1.751,1.751,0,0,0-1.517.792A4.152,4.152,0,0,0,157.418,17.1ZM7.042,42.979A3.362,3.362,0,0,1,4.3,44.186a3.171,3.171,0,0,1-2.463-.928A3.96,3.96,0,0,1,.965,40.54V33.962H3.646v6.492q0,1.57,1.429,1.57a1.936,1.936,0,0,0,1.874-.947V33.962h2.69V44H7.116ZM17.1,41.226a.864.864,0,0,0-.487-.775,5.533,5.533,0,0,0-1.563-.506q-3.581-.751-3.581-3.043a2.758,2.758,0,0,1,1.109-2.231,4.472,4.472,0,0,1,2.9-.9,4.813,4.813,0,0,1,3.057.9,2.836,2.836,0,0,1,1.146,2.338H17a1.3,1.3,0,0,0-.371-.951,1.57,1.57,0,0,0-1.16-.376,1.6,1.6,0,0,0-1.048.306.966.966,0,0,0-.371.779.826.826,0,0,0,.422.719,4.343,4.343,0,0,0,1.424.473,11.632,11.632,0,0,1,1.688.45,2.774,2.774,0,0,1,2.125,2.7,2.618,2.618,0,0,1-1.178,2.222,5.083,5.083,0,0,1-3.043.849,5.309,5.309,0,0,1-2.24-.45A3.759,3.759,0,0,1,11.708,42.5a2.867,2.867,0,0,1-.557-1.693h2.542a1.4,1.4,0,0,0,.529,1.095,2.1,2.1,0,0,0,1.317.38,1.941,1.941,0,0,0,1.164-.292A.909.909,0,0,0,17.1,41.226Zm8.953,2.959a4.928,4.928,0,0,1-3.595-1.354,4.815,4.815,0,0,1-1.387-3.609v-.26a6.064,6.064,0,0,1,.584-2.7,4.289,4.289,0,0,1,1.656-1.837,4.648,4.648,0,0,1,2.445-.645A4.166,4.166,0,0,1,29,35.075a5.278,5.278,0,0,1,1.183,3.683v1.095H23.787a2.491,2.491,0,0,0,.784,1.577,2.37,2.37,0,0,0,1.656.594A2.894,2.894,0,0,0,28.648,40.9l1.317,1.475a4.025,4.025,0,0,1-1.633,1.331A5.357,5.357,0,0,1,26.051,44.186Zm-.306-8.248a1.675,1.675,0,0,0-1.294.54,2.8,2.8,0,0,0-.635,1.547h3.729v-.214a2,2,0,0,0-.482-1.384A1.729,1.729,0,0,0,25.745,35.938Zm11.6.538a7.284,7.284,0,0,0-.965-.074,1.964,1.964,0,0,0-1.995,1.03V44H31.7V33.962h2.533l.074,1.2a2.484,2.484,0,0,1,2.236-1.382,2.809,2.809,0,0,1,.835.121Zm4.249,2.765V44H38.807V30.492h5.27a6.1,6.1,0,0,1,2.677.557,4.1,4.1,0,0,1,1.777,1.582,4.411,4.411,0,0,1,.622,2.333,3.879,3.879,0,0,1-1.359,3.131,5.661,5.661,0,0,1-3.762,1.146Zm0-2.254h2.486a2.445,2.445,0,0,0,1.684-.52,1.89,1.89,0,0,0,.58-1.484,2.228,2.228,0,0,0-.584-1.6,2.183,2.183,0,0,0-1.614-.631H41.59ZM56.6,44a2.977,2.977,0,0,1-.269-.9A3.244,3.244,0,0,1,53.8,44.186a3.564,3.564,0,0,1-2.445-.854,2.745,2.745,0,0,1-.969-2.152,2.837,2.837,0,0,1,1.183-2.449,5.837,5.837,0,0,1,3.419-.863h1.234v-.575a1.654,1.654,0,0,0-.357-1.113,1.405,1.405,0,0,0-1.127-.417,1.6,1.6,0,0,0-1.062.325,1.1,1.1,0,0,0-.385.891H50.608a2.693,2.693,0,0,1,.538-1.614A3.557,3.557,0,0,1,52.667,34.2a5.545,5.545,0,0,1,2.208-.422,4.381,4.381,0,0,1,2.946.932,3.262,3.262,0,0,1,1.09,2.621v4.351a4.8,4.8,0,0,0,.4,2.162V44Zm-2.217-1.865a2.309,2.309,0,0,0,1.095-.264,1.737,1.737,0,0,0,.742-.71V39.436h-1q-2.013,0-2.143,1.392l-.009.158a1.073,1.073,0,0,0,.353.826A1.369,1.369,0,0,0,54.384,42.135Zm12.023-.909a.864.864,0,0,0-.487-.775,5.533,5.533,0,0,0-1.563-.506q-3.581-.751-3.581-3.043a2.758,2.758,0,0,1,1.109-2.231,4.472,4.472,0,0,1,2.9-.9,4.813,4.813,0,0,1,3.057.9,2.836,2.836,0,0,1,1.146,2.338H66.305a1.3,1.3,0,0,0-.371-.951,1.57,1.57,0,0,0-1.16-.376,1.6,1.6,0,0,0-1.048.306.966.966,0,0,0-.371.779.826.826,0,0,0,.422.719,4.343,4.343,0,0,0,1.424.473,11.632,11.632,0,0,1,1.688.45,2.774,2.774,0,0,1,2.125,2.7,2.618,2.618,0,0,1-1.178,2.222,5.083,5.083,0,0,1-3.043.849,5.309,5.309,0,0,1-2.24-.45A3.759,3.759,0,0,1,61.017,42.5a2.867,2.867,0,0,1-.557-1.693H63a1.4,1.4,0,0,0,.529,1.095,2.1,2.1,0,0,0,1.317.38,1.941,1.941,0,0,0,1.164-.292A.909.909,0,0,0,66.407,41.226Zm9.769,0a.864.864,0,0,0-.487-.775,5.533,5.533,0,0,0-1.563-.506q-3.581-.751-3.581-3.043a2.758,2.758,0,0,1,1.109-2.231,4.472,4.472,0,0,1,2.9-.9,4.813,4.813,0,0,1,3.057.9,2.836,2.836,0,0,1,1.146,2.338H76.074a1.3,1.3,0,0,0-.371-.951,1.57,1.57,0,0,0-1.16-.376,1.6,1.6,0,0,0-1.048.306.966.966,0,0,0-.371.779.826.826,0,0,0,.422.719,4.343,4.343,0,0,0,1.424.473,11.632,11.632,0,0,1,1.688.45,2.774,2.774,0,0,1,2.125,2.7A2.618,2.618,0,0,1,77.6,43.337a5.083,5.083,0,0,1-3.043.849,5.309,5.309,0,0,1-2.24-.45A3.759,3.759,0,0,1,70.786,42.5a2.867,2.867,0,0,1-.557-1.693h2.542A1.4,1.4,0,0,0,73.3,41.9a2.1,2.1,0,0,0,1.317.38,1.941,1.941,0,0,0,1.164-.292A.909.909,0,0,0,76.176,41.226Zm13.063-.872,1.317-6.392h2.588L90.584,44H88.339l-1.9-6.318L84.535,44H82.3L79.739,33.962h2.588l1.308,6.383,1.837-6.383h1.939Zm4.815-1.466a5.953,5.953,0,0,1,.575-2.663,4.211,4.211,0,0,1,1.656-1.809,4.831,4.831,0,0,1,2.51-.64,4.571,4.571,0,0,1,3.317,1.243,4.989,4.989,0,0,1,1.433,3.377l.019.687a5.247,5.247,0,0,1-1.29,3.706,5,5,0,0,1-6.926,0,5.339,5.339,0,0,1-1.294-3.785Zm2.681.19a3.752,3.752,0,0,0,.538,2.188,1.933,1.933,0,0,0,3.062.009,4.106,4.106,0,0,0,.547-2.393,3.715,3.715,0,0,0-.547-2.174,1.779,1.779,0,0,0-1.54-.771,1.75,1.75,0,0,0-1.521.767A4.175,4.175,0,0,0,96.735,39.079Zm14.12-2.6a7.284,7.284,0,0,0-.965-.074,1.964,1.964,0,0,0-1.995,1.03V44h-2.681V33.962h2.533l.074,1.2a2.484,2.484,0,0,1,2.236-1.382,2.809,2.809,0,0,1,.835.121Zm.7,2.431a6.049,6.049,0,0,1,1.053-3.739,3.417,3.417,0,0,1,2.881-1.392,3.074,3.074,0,0,1,2.421,1.095V29.75h2.69V44h-2.421l-.13-1.067a3.155,3.155,0,0,1-2.579,1.252,3.407,3.407,0,0,1-2.844-1.4A6.244,6.244,0,0,1,111.551,38.907Zm2.681.191a3.984,3.984,0,0,0,.492,2.171,1.6,1.6,0,0,0,1.429.755,1.793,1.793,0,0,0,1.753-1.053v-3.98a1.768,1.768,0,0,0-1.735-1.053Q114.232,35.938,114.232,39.1Zm25.086,1.359a1.428,1.428,0,0,0-.557-1.211,7.3,7.3,0,0,0-2-.891,14.205,14.205,0,0,1-2.292-.923,3.744,3.744,0,0,1-2.3-3.349,3.262,3.262,0,0,1,.617-1.953,4.024,4.024,0,0,1,1.772-1.341,6.669,6.669,0,0,1,2.593-.482,6.071,6.071,0,0,1,2.579.524,4.107,4.107,0,0,1,1.758,1.48,3.872,3.872,0,0,1,.626,2.171h-2.783a1.821,1.821,0,0,0-.584-1.443,2.4,2.4,0,0,0-1.642-.515,2.567,2.567,0,0,0-1.586.431,1.361,1.361,0,0,0-.566,1.136,1.3,1.3,0,0,0,.663,1.1,7.494,7.494,0,0,0,1.953.835,8.438,8.438,0,0,1,3.46,1.772,3.529,3.529,0,0,1,1.085,2.635,3.251,3.251,0,0,1-1.327,2.751,5.808,5.808,0,0,1-3.572,1,6.9,6.9,0,0,1-2.839-.571,4.492,4.492,0,0,1-1.953-1.563,4,4,0,0,1-.673-2.3h2.792q0,2.236,2.672,2.236a2.6,2.6,0,0,0,1.549-.4A1.313,1.313,0,0,0,139.318,40.456Zm7.709-8.962v2.468h1.716v1.967h-1.716v5.01a1.2,1.2,0,0,0,.213.8,1.072,1.072,0,0,0,.816.241,4.276,4.276,0,0,0,.789-.065v2.032a5.519,5.519,0,0,1-1.624.241,2.56,2.56,0,0,1-2.876-2.848V35.929H142.88V33.962h1.466V31.494Zm8.851,4.982a7.284,7.284,0,0,0-.965-.074,1.964,1.964,0,0,0-1.995,1.03V44h-2.681V33.962h2.533l.074,1.2a2.484,2.484,0,0,1,2.236-1.382,2.809,2.809,0,0,1,.835.121ZM160,44h-2.69V33.962H160Zm-2.848-12.636a1.32,1.32,0,0,1,.4-.993,1.739,1.739,0,0,1,2.194,0,1.417,1.417,0,0,1,0,1.995,1.72,1.72,0,0,1-2.18,0A1.316,1.316,0,0,1,157.149,31.364Zm7.524,2.6.083,1.16a3.5,3.5,0,0,1,2.885-1.345,2.913,2.913,0,0,1,2.375.937,4.372,4.372,0,0,1,.8,2.8V44h-2.681V37.565a1.746,1.746,0,0,0-.371-1.241,1.659,1.659,0,0,0-1.234-.386,1.844,1.844,0,0,0-1.7.967V44h-2.681V33.962Zm7.784,4.945a5.883,5.883,0,0,1,1.1-3.72,3.562,3.562,0,0,1,2.964-1.41,3.124,3.124,0,0,1,2.57,1.132l.111-.946h2.431v9.7a4.29,4.29,0,0,1-.6,2.292,3.843,3.843,0,0,1-1.684,1.484,5.919,5.919,0,0,1-2.542.51,5.5,5.5,0,0,1-2.152-.441,3.82,3.82,0,0,1-1.586-1.136l1.188-1.633a3.141,3.141,0,0,0,2.431,1.123,2.3,2.3,0,0,0,1.661-.571,2.14,2.14,0,0,0,.594-1.619v-.538a3.1,3.1,0,0,1-2.44,1.048,3.553,3.553,0,0,1-2.927-1.415,5.881,5.881,0,0,1-1.118-3.753Zm2.681.191a3.683,3.683,0,0,0,.547,2.148,1.74,1.74,0,0,0,1.5.778,1.86,1.86,0,0,0,1.753-.923V36.861a1.856,1.856,0,0,0-1.735-.923,1.751,1.751,0,0,0-1.517.792A4.152,4.152,0,0,0,175.138,39.1Z" transform="translate(37.449 76.564)" fill="#fff"/>
      <path id="Trazado_189610" data-name="Trazado 189610" d="M11.43-13.508v8.9A4.555,4.555,0,0,1,10.043-1.1,5.347,5.347,0,0,1,6.253.186,5.407,5.407,0,0,1,2.5-1.067,4.477,4.477,0,0,1,1.076-4.509v-9H3.859v8.916a2.574,2.574,0,0,0,.635,1.934,2.44,2.44,0,0,0,1.758.608q2.347,0,2.384-2.468v-8.99ZM18.972-2.774a.864.864,0,0,0-.487-.775,5.533,5.533,0,0,0-1.563-.506Q13.341-4.806,13.341-7.1a2.758,2.758,0,0,1,1.109-2.231,4.472,4.472,0,0,1,2.9-.9,4.813,4.813,0,0,1,3.057.9,2.836,2.836,0,0,1,1.146,2.338H18.87a1.3,1.3,0,0,0-.371-.951,1.57,1.57,0,0,0-1.16-.376,1.6,1.6,0,0,0-1.048.306.966.966,0,0,0-.371.779.826.826,0,0,0,.422.719,4.342,4.342,0,0,0,1.424.473,11.632,11.632,0,0,1,1.688.45,2.774,2.774,0,0,1,2.125,2.7A2.618,2.618,0,0,1,20.4-.663a5.083,5.083,0,0,1-3.043.849,5.309,5.309,0,0,1-2.24-.45A3.759,3.759,0,0,1,13.582-1.5a2.867,2.867,0,0,1-.557-1.693h2.542A1.4,1.4,0,0,0,16.1-2.1a2.1,2.1,0,0,0,1.317.38,1.941,1.941,0,0,0,1.164-.292A.909.909,0,0,0,18.972-2.774ZM29.316-1.021A3.362,3.362,0,0,1,26.57.186a3.171,3.171,0,0,1-2.463-.928A3.96,3.96,0,0,1,23.24-3.46v-6.578h2.681v6.492q0,1.57,1.429,1.57a1.936,1.936,0,0,0,1.874-.947v-7.115h2.69V0H29.391ZM39.753,0a2.977,2.977,0,0,1-.269-.9A3.244,3.244,0,0,1,36.952.186a3.564,3.564,0,0,1-2.445-.854,2.745,2.745,0,0,1-.969-2.152A2.837,2.837,0,0,1,34.72-5.27a5.837,5.837,0,0,1,3.419-.863h1.234v-.575a1.654,1.654,0,0,0-.357-1.113,1.405,1.405,0,0,0-1.127-.417,1.6,1.6,0,0,0-1.062.325,1.1,1.1,0,0,0-.385.891H33.76A2.693,2.693,0,0,1,34.3-8.637,3.557,3.557,0,0,1,35.82-9.8a5.545,5.545,0,0,1,2.208-.422,4.381,4.381,0,0,1,2.946.932,3.262,3.262,0,0,1,1.09,2.621v4.351a4.8,4.8,0,0,0,.4,2.162V0ZM37.536-1.865a2.309,2.309,0,0,0,1.095-.264,1.737,1.737,0,0,0,.742-.71V-4.564h-1q-2.013,0-2.143,1.392l-.009.158a1.073,1.073,0,0,0,.353.826A1.369,1.369,0,0,0,37.536-1.865ZM49.764-7.524A7.284,7.284,0,0,0,48.8-7.6,1.964,1.964,0,0,0,46.8-6.568V0H44.123V-10.038h2.533l.074,1.2a2.484,2.484,0,0,1,2.236-1.382,2.809,2.809,0,0,1,.835.121ZM53.883,0h-2.69V-10.038h2.69ZM51.035-12.636a1.32,1.32,0,0,1,.4-.993,1.516,1.516,0,0,1,1.1-.39,1.52,1.52,0,0,1,1.095.39,1.313,1.313,0,0,1,.408.993,1.316,1.316,0,0,1-.413,1,1.523,1.523,0,0,1-1.09.39,1.523,1.523,0,0,1-1.09-.39A1.316,1.316,0,0,1,51.035-12.636Zm4.639,7.524a5.953,5.953,0,0,1,.575-2.663A4.211,4.211,0,0,1,57.9-9.583a4.831,4.831,0,0,1,2.51-.64A4.571,4.571,0,0,1,63.731-8.98,4.989,4.989,0,0,1,65.164-5.6l.019.687a5.247,5.247,0,0,1-1.29,3.706,4.482,4.482,0,0,1-3.46,1.4,4.5,4.5,0,0,1-3.465-1.392,5.339,5.339,0,0,1-1.294-3.785Zm2.681.19a3.752,3.752,0,0,0,.538,2.188,1.775,1.775,0,0,0,1.54.757,1.779,1.779,0,0,0,1.521-.748A4.106,4.106,0,0,0,62.5-5.117a3.715,3.715,0,0,0-.547-2.174,1.779,1.779,0,0,0-1.54-.771,1.75,1.75,0,0,0-1.521.767A4.175,4.175,0,0,0,58.354-4.921Z" transform="translate(91.015 29.136)" fill="#fff"/>
    </g>
    <g id="Grupo_145692" data-name="Grupo 145692" transform="translate(1110.062 6278.331)">
      <g transform="matrix(1, 0, 0, 1, -878.98, -221.92)" filter="url(#Rectángulo_42530)">
        <g id="Rectángulo_42530-2" data-name="Rectángulo 42530" transform="translate(879.16 221.92)" stroke="#12263f" stroke-width="1" fill="url(#linear-gradient-4)">
          <rect width="302.952" height="45.792" stroke="none"/>
          <rect x="0.5" y="0.5" width="301.952" height="44.792" fill="none"/>
        </g>
      </g>
      <g transform="matrix(1, 0, 0, 1, -878.98, -221.92)" filter="url(#Rectángulo_42526)">
        <g id="Rectángulo_42526-2" data-name="Rectángulo 42526" transform="translate(878.98 272.94)" fill="#fff" stroke="#12263f" stroke-width="1">
          <rect width="302.952" height="92.005" stroke="none"/>
          <rect x="0.5" y="0.5" width="301.952" height="91.005" fill="none"/>
        </g>
      </g>
      <g transform="matrix(1, 0, 0, 1, -878.98, -221.92)" filter="url(#Rectángulo_42525)">
        <g id="Rectángulo_42525-2" data-name="Rectángulo 42525" transform="translate(879.16 370.17)" stroke="#12263f" stroke-width="1" fill="url(#linear-gradient-4)">
          <rect width="302.952" height="45.792" stroke="none"/>
          <rect x="0.5" y="0.5" width="301.952" height="44.792" fill="none"/>
        </g>
      </g>
      <path id="Trazado_189615" data-name="Trazado 189615" d="M4.166,0H1.382V-13.508H4.166ZM9.036-10.038l.083,1.16A3.5,3.5,0,0,1,12-10.224a2.913,2.913,0,0,1,2.375.937,4.372,4.372,0,0,1,.8,2.8V0H12.5V-6.435a1.746,1.746,0,0,0-.371-1.241,1.659,1.659,0,0,0-1.234-.386,1.844,1.844,0,0,0-1.7.967V0H6.513V-10.038Zm7.756,4.945a6.049,6.049,0,0,1,1.053-3.739,3.417,3.417,0,0,1,2.881-1.392,3.074,3.074,0,0,1,2.421,1.095V-14.25h2.69V0H23.416l-.13-1.067A3.155,3.155,0,0,1,20.707.186a3.407,3.407,0,0,1-2.844-1.4A6.244,6.244,0,0,1,16.792-5.093Zm2.681.191a3.984,3.984,0,0,0,.492,2.171,1.6,1.6,0,0,0,1.429.755,1.793,1.793,0,0,0,1.753-1.053v-3.98a1.768,1.768,0,0,0-1.735-1.053Q19.473-8.062,19.473-4.9ZM32.536.186a4.928,4.928,0,0,1-3.595-1.354,4.815,4.815,0,0,1-1.387-3.609v-.26a6.064,6.064,0,0,1,.584-2.7,4.289,4.289,0,0,1,1.656-1.837,4.648,4.648,0,0,1,2.445-.645,4.166,4.166,0,0,1,3.242,1.3,5.278,5.278,0,0,1,1.183,3.683v1.095H30.272a2.491,2.491,0,0,0,.784,1.577,2.37,2.37,0,0,0,1.656.594A2.894,2.894,0,0,0,35.133-3.1l1.317,1.475A4.025,4.025,0,0,1,34.818-.292,5.357,5.357,0,0,1,32.536.186Zm-.306-8.248a1.675,1.675,0,0,0-1.294.54A2.8,2.8,0,0,0,30.3-5.975h3.729v-.214a2,2,0,0,0-.482-1.384A1.729,1.729,0,0,0,32.229-8.062Zm9.778,1.021,1.688-3h2.867L43.706-5.121,46.684,0H43.808L42.017-3.154,40.236,0H37.351l2.978-5.121L37.48-10.038h2.876ZM52.287.186a4.928,4.928,0,0,1-3.595-1.354,4.815,4.815,0,0,1-1.387-3.609v-.26a6.064,6.064,0,0,1,.584-2.7,4.289,4.289,0,0,1,1.656-1.837,4.648,4.648,0,0,1,2.445-.645,4.166,4.166,0,0,1,3.242,1.3,5.278,5.278,0,0,1,1.183,3.683v1.095H50.023a2.491,2.491,0,0,0,.784,1.577,2.37,2.37,0,0,0,1.656.594A2.894,2.894,0,0,0,54.885-3.1L56.2-1.624A4.025,4.025,0,0,1,54.569-.292,5.357,5.357,0,0,1,52.287.186Zm-.306-8.248a1.675,1.675,0,0,0-1.294.54,2.8,2.8,0,0,0-.635,1.547h3.729v-.214A2,2,0,0,0,53.3-7.573,1.729,1.729,0,0,0,51.981-8.062ZM63.374-2.774a.864.864,0,0,0-.487-.775,5.533,5.533,0,0,0-1.563-.506Q57.742-4.806,57.742-7.1a2.758,2.758,0,0,1,1.109-2.231,4.472,4.472,0,0,1,2.9-.9,4.813,4.813,0,0,1,3.057.9,2.836,2.836,0,0,1,1.146,2.338H63.271a1.3,1.3,0,0,0-.371-.951,1.57,1.57,0,0,0-1.16-.376,1.6,1.6,0,0,0-1.048.306.966.966,0,0,0-.371.779.826.826,0,0,0,.422.719,4.342,4.342,0,0,0,1.424.473,11.632,11.632,0,0,1,1.688.45,2.774,2.774,0,0,1,2.125,2.7A2.618,2.618,0,0,1,64.8-.663a5.083,5.083,0,0,1-3.043.849,5.309,5.309,0,0,1-2.24-.45A3.759,3.759,0,0,1,57.983-1.5a2.867,2.867,0,0,1-.557-1.693h2.542A1.4,1.4,0,0,0,60.5-2.1a2.1,2.1,0,0,0,1.317.38,1.941,1.941,0,0,0,1.164-.292A.909.909,0,0,0,63.374-2.774Z" transform="translate(24.072 174.948)" fill="#12263f"/>
      <path id="Trazado_189614" data-name="Trazado 189614" d="M7.042-1.021A3.362,3.362,0,0,1,4.3.186,3.171,3.171,0,0,1,1.832-.742,3.96,3.96,0,0,1,.965-3.46v-6.578H3.646v6.492q0,1.57,1.429,1.57a1.936,1.936,0,0,0,1.874-.947v-7.115h2.69V0H7.116ZM17.1-2.774a.864.864,0,0,0-.487-.775,5.533,5.533,0,0,0-1.563-.506Q11.467-4.806,11.467-7.1a2.758,2.758,0,0,1,1.109-2.231,4.472,4.472,0,0,1,2.9-.9,4.813,4.813,0,0,1,3.057.9,2.836,2.836,0,0,1,1.146,2.338H17a1.3,1.3,0,0,0-.371-.951,1.57,1.57,0,0,0-1.16-.376,1.6,1.6,0,0,0-1.048.306.966.966,0,0,0-.371.779.826.826,0,0,0,.422.719,4.342,4.342,0,0,0,1.424.473,11.632,11.632,0,0,1,1.688.45,2.774,2.774,0,0,1,2.125,2.7A2.618,2.618,0,0,1,18.527-.663a5.083,5.083,0,0,1-3.043.849,5.309,5.309,0,0,1-2.24-.45A3.759,3.759,0,0,1,11.708-1.5a2.867,2.867,0,0,1-.557-1.693h2.542A1.4,1.4,0,0,0,14.222-2.1a2.1,2.1,0,0,0,1.317.38A1.941,1.941,0,0,0,16.7-2.009.909.909,0,0,0,17.1-2.774ZM26.051.186a4.928,4.928,0,0,1-3.595-1.354,4.815,4.815,0,0,1-1.387-3.609v-.26a6.064,6.064,0,0,1,.584-2.7,4.289,4.289,0,0,1,1.656-1.837,4.648,4.648,0,0,1,2.445-.645A4.166,4.166,0,0,1,29-8.925a5.278,5.278,0,0,1,1.183,3.683v1.095H23.787a2.491,2.491,0,0,0,.784,1.577,2.37,2.37,0,0,0,1.656.594A2.894,2.894,0,0,0,28.648-3.1l1.317,1.475A4.025,4.025,0,0,1,28.333-.292,5.357,5.357,0,0,1,26.051.186Zm-.306-8.248a1.675,1.675,0,0,0-1.294.54,2.8,2.8,0,0,0-.635,1.547h3.729v-.214a2,2,0,0,0-.482-1.384A1.729,1.729,0,0,0,25.745-8.062Zm11.6.538a7.284,7.284,0,0,0-.965-.074,1.964,1.964,0,0,0-1.995,1.03V0H31.7V-10.038h2.533l.074,1.2a2.484,2.484,0,0,1,2.236-1.382,2.809,2.809,0,0,1,.835.121ZM41.46,0H38.77V-10.038h2.69ZM38.612-12.636a1.32,1.32,0,0,1,.4-.993,1.516,1.516,0,0,1,1.1-.39,1.52,1.52,0,0,1,1.095.39,1.313,1.313,0,0,1,.408.993,1.316,1.316,0,0,1-.413,1,1.523,1.523,0,0,1-1.09.39,1.523,1.523,0,0,1-1.09-.39A1.316,1.316,0,0,1,38.612-12.636Zm4.639,7.542A6.049,6.049,0,0,1,44.3-8.832a3.417,3.417,0,0,1,2.881-1.392,3.074,3.074,0,0,1,2.421,1.095V-14.25H52.3V0H49.875l-.13-1.067A3.155,3.155,0,0,1,47.166.186a3.407,3.407,0,0,1-2.844-1.4A6.244,6.244,0,0,1,43.251-5.093Zm2.681.191a3.984,3.984,0,0,0,.492,2.171,1.6,1.6,0,0,0,1.429.755,1.793,1.793,0,0,0,1.753-1.053v-3.98a1.768,1.768,0,0,0-1.735-1.053Q45.932-8.062,45.932-4.9ZM62.242,0H59.458V-13.508h2.783ZM75.805,0H73.022L67.6-8.888V0H64.821V-13.508H67.6L73.031-4.6v-8.906h2.774Zm12.33-11.253H84V0H81.214V-11.253H77.132v-2.254h11ZM7.042,20.979A3.362,3.362,0,0,1,4.3,22.186a3.171,3.171,0,0,1-2.463-.928A3.96,3.96,0,0,1,.965,18.54V11.962H3.646v6.492q0,1.57,1.429,1.57a1.936,1.936,0,0,0,1.874-.947V11.962h2.69V22H7.116ZM17.1,19.226a.864.864,0,0,0-.487-.775,5.533,5.533,0,0,0-1.563-.506q-3.581-.751-3.581-3.043a2.758,2.758,0,0,1,1.109-2.231,4.472,4.472,0,0,1,2.9-.9,4.813,4.813,0,0,1,3.057.9,2.836,2.836,0,0,1,1.146,2.338H17a1.3,1.3,0,0,0-.371-.951,1.57,1.57,0,0,0-1.16-.376,1.6,1.6,0,0,0-1.048.306.966.966,0,0,0-.371.779.826.826,0,0,0,.422.719,4.342,4.342,0,0,0,1.424.473,11.631,11.631,0,0,1,1.688.45,2.774,2.774,0,0,1,2.125,2.7,2.618,2.618,0,0,1-1.178,2.222,5.083,5.083,0,0,1-3.043.849,5.309,5.309,0,0,1-2.24-.45A3.759,3.759,0,0,1,11.708,20.5a2.867,2.867,0,0,1-.557-1.693h2.542a1.4,1.4,0,0,0,.529,1.095,2.1,2.1,0,0,0,1.317.38,1.941,1.941,0,0,0,1.164-.292A.909.909,0,0,0,17.1,19.226Zm8.953,2.959a4.928,4.928,0,0,1-3.595-1.354,4.815,4.815,0,0,1-1.387-3.609v-.26a6.064,6.064,0,0,1,.584-2.7,4.289,4.289,0,0,1,1.656-1.837,4.648,4.648,0,0,1,2.445-.645A4.166,4.166,0,0,1,29,13.075a5.278,5.278,0,0,1,1.183,3.683v1.095H23.787a2.491,2.491,0,0,0,.784,1.577,2.37,2.37,0,0,0,1.656.594A2.894,2.894,0,0,0,28.648,18.9l1.317,1.475a4.025,4.025,0,0,1-1.633,1.331A5.357,5.357,0,0,1,26.051,22.186Zm-.306-8.248a1.675,1.675,0,0,0-1.294.54,2.8,2.8,0,0,0-.635,1.547h3.729v-.214a2,2,0,0,0-.482-1.384A1.729,1.729,0,0,0,25.745,13.938Zm11.6.538a7.284,7.284,0,0,0-.965-.074,1.964,1.964,0,0,0-1.995,1.03V22H31.7V11.962h2.533l.074,1.2a2.484,2.484,0,0,1,2.236-1.382,2.809,2.809,0,0,1,.835.121ZM41.1,11.962l.083,1.16a3.5,3.5,0,0,1,2.885-1.345,2.913,2.913,0,0,1,2.375.937,4.372,4.372,0,0,1,.8,2.8V22H44.559V15.565a1.746,1.746,0,0,0-.371-1.241,1.659,1.659,0,0,0-1.234-.386,1.844,1.844,0,0,0-1.7.967V22H38.575V11.962Zm10.641,0,.083,1.16a3.5,3.5,0,0,1,2.885-1.345,2.913,2.913,0,0,1,2.375.937,4.372,4.372,0,0,1,.8,2.8V22H55.2V15.565a1.746,1.746,0,0,0-.371-1.241,1.659,1.659,0,0,0-1.234-.386,1.844,1.844,0,0,0-1.7.967V22H49.216V11.962ZM65.73,22a2.977,2.977,0,0,1-.269-.9,3.244,3.244,0,0,1-2.533,1.085,3.564,3.564,0,0,1-2.445-.854,2.745,2.745,0,0,1-.969-2.152A2.837,2.837,0,0,1,60.7,16.73a5.837,5.837,0,0,1,3.419-.863H65.35v-.575a1.654,1.654,0,0,0-.357-1.113,1.405,1.405,0,0,0-1.127-.417,1.6,1.6,0,0,0-1.062.325,1.1,1.1,0,0,0-.385.891H59.737a2.693,2.693,0,0,1,.538-1.614A3.557,3.557,0,0,1,61.8,12.2,5.545,5.545,0,0,1,64,11.776a4.381,4.381,0,0,1,2.946.932,3.262,3.262,0,0,1,1.09,2.621v4.351a4.8,4.8,0,0,0,.4,2.162V22Zm-2.217-1.865a2.309,2.309,0,0,0,1.095-.264,1.737,1.737,0,0,0,.742-.71V17.436h-1q-2.013,0-2.143,1.392l-.009.158a1.073,1.073,0,0,0,.353.826A1.369,1.369,0,0,0,63.513,20.135Zm9.1-8.173.083,1.123a3.528,3.528,0,0,1,2.885-1.308,2.677,2.677,0,0,1,2.663,1.531,3.447,3.447,0,0,1,3.015-1.531,2.994,2.994,0,0,1,2.431.951,4.371,4.371,0,0,1,.8,2.862V22H81.8V15.584a1.919,1.919,0,0,0-.334-1.251,1.478,1.478,0,0,0-1.178-.4,1.674,1.674,0,0,0-1.67,1.153L78.625,22H75.944V15.593a1.9,1.9,0,0,0-.343-1.265,1.493,1.493,0,0,0-1.169-.391,1.737,1.737,0,0,0-1.651.948V22H70.1V11.962ZM91.168,22.186a4.928,4.928,0,0,1-3.595-1.354,4.815,4.815,0,0,1-1.387-3.609v-.26a6.064,6.064,0,0,1,.584-2.7,4.289,4.289,0,0,1,1.656-1.837,4.648,4.648,0,0,1,2.445-.645,4.166,4.166,0,0,1,3.242,1.3A5.278,5.278,0,0,1,95.3,16.758v1.095H88.9a2.491,2.491,0,0,0,.784,1.577,2.37,2.37,0,0,0,1.656.594A2.894,2.894,0,0,0,93.766,18.9l1.317,1.475a4.025,4.025,0,0,1-1.633,1.331A5.357,5.357,0,0,1,91.168,22.186Zm-.306-8.248a1.675,1.675,0,0,0-1.294.54,2.8,2.8,0,0,0-.635,1.547h3.729v-.214a2,2,0,0,0-.482-1.384A1.729,1.729,0,0,0,90.862,13.938Zm15.855,4.713,3.062-10.159h3.1L108.174,22h-2.9L100.585,8.492h3.089Zm14.361.566H116.2L115.271,22h-2.959L117.34,8.492h2.579L124.975,22h-2.959Zm-4.128-2.254h3.377l-1.7-5.056Zm14.287.093H129.02V22h-2.783V8.492h5.019a5.674,5.674,0,0,1,3.692,1.067,3.682,3.682,0,0,1,1.3,3.015,4.156,4.156,0,0,1-.6,2.305,4.081,4.081,0,0,1-1.814,1.47l2.922,5.52V22H133.77ZM129.02,14.8h2.245a2.3,2.3,0,0,0,1.624-.533,1.907,1.907,0,0,0,.575-1.47,2.041,2.041,0,0,0-.543-1.5,2.255,2.255,0,0,0-1.665-.547H129.02Zm19.946,2.7a4.78,4.78,0,0,1-1.61,3.433,5.653,5.653,0,0,1-3.827,1.252,5.083,5.083,0,0,1-4.087-1.749,7.171,7.171,0,0,1-1.489-4.8V14.81a8.1,8.1,0,0,1,.687-3.433A5.145,5.145,0,0,1,140.6,9.1a6.132,6.132,0,0,1,6.731.459,5.137,5.137,0,0,1,1.651,3.516H146.2a2.821,2.821,0,0,0-.728-1.9,2.7,2.7,0,0,0-1.906-.589,2.365,2.365,0,0,0-2.083,1,5.589,5.589,0,0,0-.71,3.094V15.7a5.982,5.982,0,0,0,.663,3.2,2.321,2.321,0,0,0,2.092,1.011,2.748,2.748,0,0,0,1.925-.589,2.661,2.661,0,0,0,.728-1.823ZM161.788,22H159V16.211h-5.427V22h-2.783V8.492h2.783v5.474H159V8.492h2.783Zm10.224-2.783h-4.88L166.2,22h-2.959l5.028-13.508h2.579L175.908,22h-2.959Zm-4.128-2.254h3.377l-1.7-5.056Zm14.287.093h-2.217V22h-2.783V8.492h5.019a5.674,5.674,0,0,1,3.692,1.067,3.682,3.682,0,0,1,1.3,3.015,4.156,4.156,0,0,1-.6,2.305,4.081,4.081,0,0,1-1.814,1.47l2.922,5.52V22H184.7ZM179.953,14.8H182.2a2.3,2.3,0,0,0,1.624-.533,1.907,1.907,0,0,0,.575-1.47,2.041,2.041,0,0,0-.543-1.5,2.255,2.255,0,0,0-1.665-.547h-2.236Zm14.018,1.707a14.238,14.238,0,0,1,.566-4.045,10.674,10.674,0,0,1,1.67-3.4A6.235,6.235,0,0,1,198.6,7.008l.52,1.447a6.458,6.458,0,0,0-2.115,3.1,14.347,14.347,0,0,0-.761,4.9v.288A14.622,14.622,0,0,0,197,21.657,6.583,6.583,0,0,0,199.12,24.8l-.52,1.419a6.238,6.238,0,0,1-2.352-2,10.5,10.5,0,0,1-1.665-3.307A14.153,14.153,0,0,1,193.971,17Zm6.837-1.15.779-6.865h7.57v2.236h-5.372l-.334,2.9a4.251,4.251,0,0,1,2.032-.51,3.893,3.893,0,0,1,3.024,1.2,4.78,4.78,0,0,1,1.095,3.349,4.9,4.9,0,0,1-.552,2.343,3.9,3.9,0,0,1-1.582,1.6,4.938,4.938,0,0,1-2.431.571,5.244,5.244,0,0,1-2.273-.5,4.032,4.032,0,0,1-1.656-1.4,3.805,3.805,0,0,1-.645-2.05h2.653a1.982,1.982,0,0,0,.589,1.313,1.868,1.868,0,0,0,1.322.469,1.648,1.648,0,0,0,1.4-.654,3.03,3.03,0,0,0,.492-1.851,2.505,2.505,0,0,0-.566-1.763,2.077,2.077,0,0,0-1.6-.612,2.321,2.321,0,0,0-1.549.5l-.26.241ZM220.4,16.415a6.843,6.843,0,0,1-1.16,4.286,4.634,4.634,0,0,1-6.772.028,6.643,6.643,0,0,1-1.2-4.175V14.068a6.753,6.753,0,0,1,1.174-4.3,4.643,4.643,0,0,1,6.759-.014,6.622,6.622,0,0,1,1.2,4.17Zm-2.681-2.734a4.946,4.946,0,0,0-.459-2.447,1.552,1.552,0,0,0-1.433-.766,1.524,1.524,0,0,0-1.4.729,4.629,4.629,0,0,0-.478,2.28v3.287a5.192,5.192,0,0,0,.45,2.456,1.531,1.531,0,0,0,1.443.8,1.506,1.506,0,0,0,1.419-.771,5.068,5.068,0,0,0,.455-2.359Zm9.222,3.04a13.51,13.51,0,0,1-.6,4.036A10.955,10.955,0,0,1,224.6,24.18a6.25,6.25,0,0,1-2.421,2.041l-.52-1.419a6.524,6.524,0,0,0,2.078-3.062,14.177,14.177,0,0,0,.789-4.759v-.492a14.5,14.5,0,0,0-.756-4.889,6.8,6.8,0,0,0-2.111-3.173l.52-1.419a6.252,6.252,0,0,1,2.38,1.985,10.814,10.814,0,0,1,1.735,3.349,13.414,13.414,0,0,1,.645,3.961ZM7.042,42.979A3.362,3.362,0,0,1,4.3,44.186a3.171,3.171,0,0,1-2.463-.928A3.96,3.96,0,0,1,.965,40.54V33.962H3.646v6.492q0,1.57,1.429,1.57a1.936,1.936,0,0,0,1.874-.947V33.962h2.69V44H7.116ZM17.1,41.226a.864.864,0,0,0-.487-.775,5.533,5.533,0,0,0-1.563-.506q-3.581-.751-3.581-3.043a2.758,2.758,0,0,1,1.109-2.231,4.472,4.472,0,0,1,2.9-.9,4.813,4.813,0,0,1,3.057.9,2.836,2.836,0,0,1,1.146,2.338H17a1.3,1.3,0,0,0-.371-.951,1.57,1.57,0,0,0-1.16-.376,1.6,1.6,0,0,0-1.048.306.966.966,0,0,0-.371.779.826.826,0,0,0,.422.719,4.343,4.343,0,0,0,1.424.473,11.632,11.632,0,0,1,1.688.45,2.774,2.774,0,0,1,2.125,2.7,2.618,2.618,0,0,1-1.178,2.222,5.083,5.083,0,0,1-3.043.849,5.309,5.309,0,0,1-2.24-.45A3.759,3.759,0,0,1,11.708,42.5a2.867,2.867,0,0,1-.557-1.693h2.542a1.4,1.4,0,0,0,.529,1.095,2.1,2.1,0,0,0,1.317.38,1.941,1.941,0,0,0,1.164-.292A.909.909,0,0,0,17.1,41.226Zm8.953,2.959a4.928,4.928,0,0,1-3.595-1.354,4.815,4.815,0,0,1-1.387-3.609v-.26a6.064,6.064,0,0,1,.584-2.7,4.289,4.289,0,0,1,1.656-1.837,4.648,4.648,0,0,1,2.445-.645A4.166,4.166,0,0,1,29,35.075a5.278,5.278,0,0,1,1.183,3.683v1.095H23.787a2.491,2.491,0,0,0,.784,1.577,2.37,2.37,0,0,0,1.656.594A2.894,2.894,0,0,0,28.648,40.9l1.317,1.475a4.025,4.025,0,0,1-1.633,1.331A5.357,5.357,0,0,1,26.051,44.186Zm-.306-8.248a1.675,1.675,0,0,0-1.294.54,2.8,2.8,0,0,0-.635,1.547h3.729v-.214a2,2,0,0,0-.482-1.384A1.729,1.729,0,0,0,25.745,35.938Zm11.6.538a7.284,7.284,0,0,0-.965-.074,1.964,1.964,0,0,0-1.995,1.03V44H31.7V33.962h2.533l.074,1.2a2.484,2.484,0,0,1,2.236-1.382,2.809,2.809,0,0,1,.835.121Zm10.326,2.6a6.02,6.02,0,0,1-1.053,3.716,3.376,3.376,0,0,1-2.844,1.4,3.127,3.127,0,0,1-2.458-1.058v4.731H38.631v-13.9h2.486l.093.983a3.151,3.151,0,0,1,2.542-1.169,3.4,3.4,0,0,1,2.885,1.373,6.183,6.183,0,0,1,1.03,3.785Zm-2.681-.2a3.973,3.973,0,0,0-.5-2.168,1.615,1.615,0,0,0-1.443-.763,1.755,1.755,0,0,0-1.735.968v4.122a1.785,1.785,0,0,0,1.753,1Q44.986,42.024,44.986,38.869ZM55.145,44a2.977,2.977,0,0,1-.269-.9,3.244,3.244,0,0,1-2.533,1.085,3.564,3.564,0,0,1-2.445-.854,2.745,2.745,0,0,1-.969-2.152,2.837,2.837,0,0,1,1.183-2.449,5.837,5.837,0,0,1,3.419-.863h1.234v-.575a1.654,1.654,0,0,0-.357-1.113,1.405,1.405,0,0,0-1.127-.417,1.6,1.6,0,0,0-1.062.325,1.1,1.1,0,0,0-.385.891H49.151a2.693,2.693,0,0,1,.538-1.614A3.557,3.557,0,0,1,51.211,34.2a5.545,5.545,0,0,1,2.208-.422,4.381,4.381,0,0,1,2.946.932,3.262,3.262,0,0,1,1.09,2.621v4.351a4.8,4.8,0,0,0,.4,2.162V44Zm-2.217-1.865a2.309,2.309,0,0,0,1.095-.264,1.737,1.737,0,0,0,.742-.71V39.436h-1q-2.013,0-2.143,1.392l-.009.158a1.073,1.073,0,0,0,.353.826A1.369,1.369,0,0,0,52.927,42.135Zm12.023-.909a.864.864,0,0,0-.487-.775,5.533,5.533,0,0,0-1.563-.506q-3.581-.751-3.581-3.043a2.758,2.758,0,0,1,1.109-2.231,4.472,4.472,0,0,1,2.9-.9,4.813,4.813,0,0,1,3.057.9,2.836,2.836,0,0,1,1.146,2.338H64.849a1.3,1.3,0,0,0-.371-.951,1.57,1.57,0,0,0-1.16-.376,1.6,1.6,0,0,0-1.048.306.966.966,0,0,0-.371.779.826.826,0,0,0,.422.719,4.343,4.343,0,0,0,1.424.473,11.632,11.632,0,0,1,1.688.45,2.774,2.774,0,0,1,2.125,2.7,2.618,2.618,0,0,1-1.178,2.222,5.083,5.083,0,0,1-3.043.849,5.309,5.309,0,0,1-2.24-.45A3.759,3.759,0,0,1,59.561,42.5,2.867,2.867,0,0,1,59,40.809h2.542a1.4,1.4,0,0,0,.529,1.095,2.1,2.1,0,0,0,1.317.38,1.941,1.941,0,0,0,1.164-.292A.909.909,0,0,0,64.951,41.226Zm9.769,0a.864.864,0,0,0-.487-.775,5.533,5.533,0,0,0-1.563-.506q-3.581-.751-3.581-3.043A2.758,2.758,0,0,1,70.2,34.672a4.472,4.472,0,0,1,2.9-.9,4.813,4.813,0,0,1,3.057.9A2.836,2.836,0,0,1,77.3,37.014H74.618a1.3,1.3,0,0,0-.371-.951,1.57,1.57,0,0,0-1.16-.376,1.6,1.6,0,0,0-1.048.306.966.966,0,0,0-.371.779.826.826,0,0,0,.422.719,4.343,4.343,0,0,0,1.424.473,11.632,11.632,0,0,1,1.688.45,2.774,2.774,0,0,1,2.125,2.7,2.618,2.618,0,0,1-1.178,2.222,5.083,5.083,0,0,1-3.043.849,5.309,5.309,0,0,1-2.24-.45A3.759,3.759,0,0,1,69.33,42.5a2.867,2.867,0,0,1-.557-1.693h2.542a1.4,1.4,0,0,0,.529,1.095,2.1,2.1,0,0,0,1.317.38,1.941,1.941,0,0,0,1.164-.292A.909.909,0,0,0,74.72,41.226Zm13.063-.872L89.1,33.962h2.588L89.127,44H86.882l-1.9-6.318L83.079,44H80.843L78.282,33.962h2.588l1.308,6.383,1.837-6.383h1.939ZM92.6,38.888a5.953,5.953,0,0,1,.575-2.663,4.211,4.211,0,0,1,1.656-1.809,4.831,4.831,0,0,1,2.51-.64,4.571,4.571,0,0,1,3.317,1.243,4.989,4.989,0,0,1,1.433,3.377l.019.687a5.247,5.247,0,0,1-1.29,3.706,5,5,0,0,1-6.926,0A5.339,5.339,0,0,1,92.6,39.009Zm2.681.19a3.752,3.752,0,0,0,.538,2.188,1.933,1.933,0,0,0,3.062.009,4.106,4.106,0,0,0,.547-2.393,3.715,3.715,0,0,0-.547-2.174,1.779,1.779,0,0,0-1.54-.771,1.75,1.75,0,0,0-1.521.767A4.175,4.175,0,0,0,95.278,39.079Zm14.12-2.6a7.284,7.284,0,0,0-.965-.074,1.964,1.964,0,0,0-1.995,1.03V44h-2.681V33.962h2.533l.074,1.2a2.484,2.484,0,0,1,2.236-1.382,2.809,2.809,0,0,1,.835.121Zm.7,2.431a6.049,6.049,0,0,1,1.053-3.739,3.417,3.417,0,0,1,2.881-1.392,3.074,3.074,0,0,1,2.421,1.095V29.75h2.69V44h-2.421l-.13-1.067a3.155,3.155,0,0,1-2.579,1.252,3.407,3.407,0,0,1-2.844-1.4A6.244,6.244,0,0,1,110.094,38.907Zm2.681.191a3.984,3.984,0,0,0,.492,2.171,1.6,1.6,0,0,0,1.429.755,1.793,1.793,0,0,0,1.753-1.053v-3.98a1.768,1.768,0,0,0-1.735-1.053Q112.775,35.938,112.775,39.1Zm23.073,1.553,3.062-10.159h3.1L137.3,44h-2.9l-4.685-13.508h3.089Zm14.361.566h-4.88L144.4,44h-2.959l5.028-13.508h2.579L154.106,44h-2.959Zm-4.128-2.254h3.377l-1.7-5.056Zm14.287.093h-2.217V44h-2.783V30.492h5.019a5.674,5.674,0,0,1,3.692,1.067,3.682,3.682,0,0,1,1.3,3.015,4.156,4.156,0,0,1-.6,2.305,4.081,4.081,0,0,1-1.814,1.47l2.922,5.52V44H162.9ZM158.151,36.8H160.4a2.3,2.3,0,0,0,1.624-.533,1.907,1.907,0,0,0,.575-1.47,2.041,2.041,0,0,0-.543-1.5,2.255,2.255,0,0,0-1.665-.547h-2.236ZM178.1,39.5a4.78,4.78,0,0,1-1.61,3.433,5.653,5.653,0,0,1-3.827,1.252,5.083,5.083,0,0,1-4.087-1.749,7.171,7.171,0,0,1-1.489-4.8V36.81a8.1,8.1,0,0,1,.687-3.433,5.145,5.145,0,0,1,1.962-2.278,6.132,6.132,0,0,1,6.731.459,5.137,5.137,0,0,1,1.651,3.516h-2.783a2.821,2.821,0,0,0-.728-1.9,2.7,2.7,0,0,0-1.906-.589,2.365,2.365,0,0,0-2.083,1,5.589,5.589,0,0,0-.71,3.094V37.7a5.982,5.982,0,0,0,.663,3.2,2.321,2.321,0,0,0,2.092,1.011,2.748,2.748,0,0,0,1.925-.589,2.661,2.661,0,0,0,.728-1.823ZM190.918,44h-2.783V38.211h-5.427V44h-2.783V30.492h2.783v5.474h5.427V30.492h2.783Zm10.224-2.783h-4.88L195.334,44h-2.959L197.4,30.492h2.579L205.039,44h-2.959Zm-4.128-2.254h3.377l-1.7-5.056Zm14.287.093h-2.217V44H206.3V30.492h5.019a5.674,5.674,0,0,1,3.692,1.067,3.682,3.682,0,0,1,1.3,3.015,4.156,4.156,0,0,1-.6,2.305,4.081,4.081,0,0,1-1.814,1.47l2.922,5.52V44h-2.987ZM209.083,36.8h2.245a2.3,2.3,0,0,0,1.624-.533,1.907,1.907,0,0,0,.575-1.47,2.041,2.041,0,0,0-.543-1.5,2.255,2.255,0,0,0-1.665-.547h-2.236ZM223.1,38.508a14.238,14.238,0,0,1,.566-4.045,10.674,10.674,0,0,1,1.67-3.4,6.235,6.235,0,0,1,2.394-2.055l.52,1.447a6.458,6.458,0,0,0-2.115,3.1,14.347,14.347,0,0,0-.761,4.9v.288a14.622,14.622,0,0,0,.751,4.917A6.583,6.583,0,0,0,228.25,46.8l-.52,1.419a6.238,6.238,0,0,1-2.352-2,10.5,10.5,0,0,1-1.665-3.307A14.153,14.153,0,0,1,223.1,39Zm6.837-1.15.779-6.865h7.57v2.236h-5.372l-.334,2.9a4.251,4.251,0,0,1,2.032-.51,3.893,3.893,0,0,1,3.024,1.2,4.781,4.781,0,0,1,1.095,3.349,4.9,4.9,0,0,1-.552,2.343,3.9,3.9,0,0,1-1.582,1.6,4.938,4.938,0,0,1-2.431.571,5.244,5.244,0,0,1-2.273-.5,4.032,4.032,0,0,1-1.656-1.4,3.805,3.805,0,0,1-.645-2.05h2.653a1.982,1.982,0,0,0,.589,1.313,1.868,1.868,0,0,0,1.322.469,1.648,1.648,0,0,0,1.4-.654,3.03,3.03,0,0,0,.492-1.851,2.505,2.505,0,0,0-.566-1.763,2.077,2.077,0,0,0-1.6-.612,2.321,2.321,0,0,0-1.549.5l-.26.241Zm19.594,1.058a6.843,6.843,0,0,1-1.16,4.286,4.634,4.634,0,0,1-6.772.028,6.643,6.643,0,0,1-1.2-4.175V36.068a6.753,6.753,0,0,1,1.174-4.3,4.643,4.643,0,0,1,6.759-.014,6.622,6.622,0,0,1,1.2,4.17Zm-2.681-2.734a4.946,4.946,0,0,0-.459-2.447,1.552,1.552,0,0,0-1.433-.766,1.524,1.524,0,0,0-1.4.729,4.629,4.629,0,0,0-.478,2.28v3.287a5.192,5.192,0,0,0,.45,2.456,1.531,1.531,0,0,0,1.443.8,1.506,1.506,0,0,0,1.419-.771,5.068,5.068,0,0,0,.455-2.359Zm9.222,3.04a13.51,13.51,0,0,1-.6,4.036,10.955,10.955,0,0,1-1.735,3.423,6.251,6.251,0,0,1-2.421,2.041l-.52-1.419a6.524,6.524,0,0,0,2.078-3.062,14.177,14.177,0,0,0,.789-4.759v-.492a14.5,14.5,0,0,0-.756-4.889,6.8,6.8,0,0,0-2.111-3.173l.52-1.419a6.252,6.252,0,0,1,2.38,1.985,10.814,10.814,0,0,1,1.735,3.349,13.414,13.414,0,0,1,.645,3.961Z" transform="translate(24.072 80.36)" fill="#12263f"/>
      <path id="Trazado_189613" data-name="Trazado 189613" d="M11.43-13.508v8.9A4.555,4.555,0,0,1,10.043-1.1,5.347,5.347,0,0,1,6.253.186,5.407,5.407,0,0,1,2.5-1.067,4.477,4.477,0,0,1,1.076-4.509v-9H3.859v8.916a2.574,2.574,0,0,0,.635,1.934,2.44,2.44,0,0,0,1.758.608q2.347,0,2.384-2.468v-8.99ZM18.972-2.774a.864.864,0,0,0-.487-.775,5.533,5.533,0,0,0-1.563-.506Q13.341-4.806,13.341-7.1a2.758,2.758,0,0,1,1.109-2.231,4.472,4.472,0,0,1,2.9-.9,4.813,4.813,0,0,1,3.057.9,2.836,2.836,0,0,1,1.146,2.338H18.87a1.3,1.3,0,0,0-.371-.951,1.57,1.57,0,0,0-1.16-.376,1.6,1.6,0,0,0-1.048.306.966.966,0,0,0-.371.779.826.826,0,0,0,.422.719,4.342,4.342,0,0,0,1.424.473,11.632,11.632,0,0,1,1.688.45,2.774,2.774,0,0,1,2.125,2.7A2.618,2.618,0,0,1,20.4-.663a5.083,5.083,0,0,1-3.043.849,5.309,5.309,0,0,1-2.24-.45A3.759,3.759,0,0,1,13.582-1.5a2.867,2.867,0,0,1-.557-1.693h2.542A1.4,1.4,0,0,0,16.1-2.1a2.1,2.1,0,0,0,1.317.38,1.941,1.941,0,0,0,1.164-.292A.909.909,0,0,0,18.972-2.774ZM29.316-1.021A3.362,3.362,0,0,1,26.57.186a3.171,3.171,0,0,1-2.463-.928A3.96,3.96,0,0,1,23.24-3.46v-6.578h2.681v6.492q0,1.57,1.429,1.57a1.936,1.936,0,0,0,1.874-.947v-7.115h2.69V0H29.391ZM39.753,0a2.977,2.977,0,0,1-.269-.9A3.244,3.244,0,0,1,36.952.186a3.564,3.564,0,0,1-2.445-.854,2.745,2.745,0,0,1-.969-2.152A2.837,2.837,0,0,1,34.72-5.27a5.837,5.837,0,0,1,3.419-.863h1.234v-.575a1.654,1.654,0,0,0-.357-1.113,1.405,1.405,0,0,0-1.127-.417,1.6,1.6,0,0,0-1.062.325,1.1,1.1,0,0,0-.385.891H33.76A2.693,2.693,0,0,1,34.3-8.637,3.557,3.557,0,0,1,35.82-9.8a5.545,5.545,0,0,1,2.208-.422,4.381,4.381,0,0,1,2.946.932,3.262,3.262,0,0,1,1.09,2.621v4.351a4.8,4.8,0,0,0,.4,2.162V0ZM37.536-1.865a2.309,2.309,0,0,0,1.095-.264,1.737,1.737,0,0,0,.742-.71V-4.564h-1q-2.013,0-2.143,1.392l-.009.158a1.073,1.073,0,0,0,.353.826A1.369,1.369,0,0,0,37.536-1.865ZM49.764-7.524A7.284,7.284,0,0,0,48.8-7.6,1.964,1.964,0,0,0,46.8-6.568V0H44.123V-10.038h2.533l.074,1.2a2.484,2.484,0,0,1,2.236-1.382,2.809,2.809,0,0,1,.835.121ZM53.883,0h-2.69V-10.038h2.69ZM51.035-12.636a1.32,1.32,0,0,1,.4-.993,1.516,1.516,0,0,1,1.1-.39,1.52,1.52,0,0,1,1.095.39,1.313,1.313,0,0,1,.408.993,1.316,1.316,0,0,1-.413,1,1.523,1.523,0,0,1-1.09.39,1.523,1.523,0,0,1-1.09-.39A1.316,1.316,0,0,1,51.035-12.636Zm4.639,7.524a5.953,5.953,0,0,1,.575-2.663A4.211,4.211,0,0,1,57.9-9.583a4.831,4.831,0,0,1,2.51-.64A4.571,4.571,0,0,1,63.731-8.98,4.989,4.989,0,0,1,65.164-5.6l.019.687a5.247,5.247,0,0,1-1.29,3.706,4.482,4.482,0,0,1-3.46,1.4,4.5,4.5,0,0,1-3.465-1.392,5.339,5.339,0,0,1-1.294-3.785Zm2.681.19a3.752,3.752,0,0,0,.538,2.188,1.775,1.775,0,0,0,1.54.757,1.779,1.779,0,0,0,1.521-.748A4.106,4.106,0,0,0,62.5-5.117a3.715,3.715,0,0,0-.547-2.174,1.779,1.779,0,0,0-1.54-.771,1.75,1.75,0,0,0-1.521.767A4.175,4.175,0,0,0,58.354-4.921Z" transform="translate(65.967 29.343)" fill="#12263f"/>
      <g id="_3zWyRC" data-name="3zWyRC" transform="translate(24.072 9.261)">
        <g id="Grupo_145680" data-name="Grupo 145680" transform="translate(0 0)">
          <path id="Trazado_189262" data-name="Trazado 189262" d="M114.955,358.4H104.8a1.014,1.014,0,0,1-.986-.982q0-9.17,0-18.339a1.043,1.043,0,0,1,.967-.976l16.55,0,3.91,0a1.063,1.063,0,0,1,.916.916q0,9.222,0,18.445a1.043,1.043,0,0,1-.937.933Zm-9.08-14.185v12.125H124.1V344.217Zm-.012-2.068H124.1v-1.987H105.864Z" transform="translate(-103.813 -329.98)" fill="#12263f"/>
          <path id="Trazado_189263" data-name="Trazado 189263" d="M208.521,243.227v-2.021H210.5V229.04H190.285a1.322,1.322,0,0,1-.051-.25c.008-1.586.028-3.171.024-4.757a1.25,1.25,0,0,1,.523-1.021.54.54,0,0,1,.32-.09q10.291-.006,20.583,0a1.123,1.123,0,0,1,.876.883q0,9.272,0,18.545a.954.954,0,0,1-.775.82,9.92,9.92,0,0,1-1.194.059C209.912,243.233,209.233,243.227,208.521,243.227Zm1.989-18.247H192.281v1.978H210.51Z" transform="translate(-184.139 -222.918)" fill="#12263f"/>
        </g>
      </g>
      <g id="aBAlcI" transform="translate(11.135 67.795)">
        <g id="Grupo_145681" data-name="Grupo 145681" transform="translate(0 0)">
          <path id="Trazado_189264" data-name="Trazado 189264" d="M-76.5,114.5c0,.572.007,1.125,0,1.677q-.036,2.236-.084,4.473a.358.358,0,0,1-.046.17c-.131.219-.267.435-.405.649-.088.136-.143.152-.286.063-.189-.118-.373-.243-.553-.375-.217-.159-.43-.324-.641-.491a1.118,1.118,0,0,1-.376-.974.533.533,0,0,1,.123-.273c.121-.164.257-.316.394-.481a4.883,4.883,0,0,0-.465-.459,1.215,1.215,0,0,1-.388-1.082h.84c-.013-.2-.023-.375-.04-.552,0-.025-.042-.046-.063-.07q-.256-.3-.512-.606a.3.3,0,0,1-.02-.363.871.871,0,0,1,.138-.208.8.8,0,0,0,.208-.679c-.016-.34-.013-.338-.348-.344-.139,0-.278-.011-.416-.025a.31.31,0,0,1-.293-.43c.068-.215.167-.421.255-.63.028-.067.063-.132.1-.206a3.731,3.731,0,0,1-1.015-.742,3.277,3.277,0,0,1,.377-4.891,3.579,3.579,0,0,1,5.54,1.525,3.318,3.318,0,0,1-1.509,3.981l-.132.076c.157.173.316.329.452.5a.42.42,0,0,1-.29.725C-76.126,114.488-76.293,114.487-76.5,114.5Zm-.736,6.815c.136-.219.256-.406.368-.6a.313.313,0,0,0,.03-.146c.011-.474.019-.947.028-1.421q.045-2.306.09-4.612c0-.206.037-.253.239-.289.113-.02.233,0,.345-.023s.262-.045.317-.123c.078-.111-.044-.221-.124-.31a1.637,1.637,0,0,0-.774-.561c.2-.1.386-.178.559-.273a3.045,3.045,0,0,0,.98-4.535,3.353,3.353,0,0,0-4.312-.823,3.025,3.025,0,0,0-1.493,3.328,3.065,3.065,0,0,0,1.816,2.17l.132.062c-.149.32-.3.624-.432.933-.071.163-.047.2.124.209.241.013.482.019.723.015.1,0,.135.033.142.122.017.194.039.388.05.582a.85.85,0,0,1-.226.691.563.563,0,0,0-.124.183.187.187,0,0,0,.007.158c.178.206.366.4.55.6a.131.131,0,0,1,.041.065c.017.3.031.6.046.92h-.821a.66.66,0,0,0,.21.571c.183.157.351.332.518.506.148.154.15.245.019.415-.085.11-.186.208-.271.318-.064.084-.159.177-.161.268a.833.833,0,0,0,.266.731C-78.007,120.742-77.63,121.02-77.241,121.315Z" transform="translate(81.324 -106.893)" fill="#ffa726" stroke="#ffa726" stroke-width="0.8"/>
          <path id="Trazado_189266" data-name="Trazado 189266" d="M19.646,146.16a.856.856,0,1,1-.024,1.71.856.856,0,1,1,.024-1.71Zm0,1.517a.673.673,0,0,0,.689-.668.68.68,0,0,0-.7-.661.665.665,0,1,0,.01,1.329Z" transform="translate(-15.955 -145.065)" fill="#ffa726" stroke="#ffa726" stroke-width="0.8"/>
        </g>
      </g>
      <g id="Rectángulo_42527" data-name="Rectángulo 42527" transform="translate(11.135 98.43) rotate(-45)" fill="#039be5" stroke="#12263f" stroke-width="1">
        <rect width="6.374" height="6.374" stroke="none"/>
        <rect x="0.5" y="0.5" width="5.374" height="5.374" fill="none"/>
      </g>
      <g id="Rectángulo_42528" data-name="Rectángulo 42528" transform="translate(11.135 121.537) rotate(-45)" fill="#039be5" stroke="#12263f" stroke-width="1">
        <rect width="6.374" height="6.374" stroke="none"/>
        <rect x="0.5" y="0.5" width="5.374" height="5.374" fill="none"/>
      </g>
    </g>
    <g id="Grupo_145690" data-name="Grupo 145690" transform="translate(1122.157 6319.116) rotate(180)">
      <path id="Unión_54" data-name="Unión 54" d="M0,0H248.333V10.707H0Z" transform="translate(264.938 19.081) rotate(180)" fill="#bec1c7"/>
      <path id="Unión_56" data-name="Unión 56" d="M19.226,13.728,0,27.458V0Z" transform="translate(19.226 27.458) rotate(180)" fill="#bec1c7"/>
    </g>
    <g id="Grupo_145691" data-name="Grupo 145691" transform="translate(1122.157 6360.549) rotate(180)">
      <path id="Unión_54-2" data-name="Unión 54" d="M0,0H281.667V10.707H0Z" transform="translate(298.271 19.081) rotate(180)" fill="#bec1c7"/>
      <path id="Unión_56-2" data-name="Unión 56" d="M19.226,13.728,0,27.458V0Z" transform="translate(19.226 27.458) rotate(180)" fill="#bec1c7"/>
    </g>
    <path id="Trazado_189607" data-name="Trazado 189607" d="M81.67,21.9a7.547,7.547,0,0,1-2.542,5.42,8.926,8.926,0,0,1-6.042,1.978,8.026,8.026,0,0,1-6.453-2.761,11.322,11.322,0,0,1-2.351-7.581v-1.3a12.785,12.785,0,0,1,1.084-5.42,8.123,8.123,0,0,1,3.1-3.6,9.682,9.682,0,0,1,10.627.725A8.111,8.111,0,0,1,81.7,14.908H77.305a4.454,4.454,0,0,0-1.15-3,4.258,4.258,0,0,0-3.01-.93,3.734,3.734,0,0,0-3.289,1.575,8.825,8.825,0,0,0-1.121,4.885v1.611a9.445,9.445,0,0,0,1.047,5.054,3.665,3.665,0,0,0,3.3,1.6,4.338,4.338,0,0,0,3.04-.93,4.2,4.2,0,0,0,1.15-2.878ZM88.746,29H84.5V6.5h4.248Zm12.671,0a4.7,4.7,0,0,1-.425-1.421,5.122,5.122,0,0,1-4,1.714,5.627,5.627,0,0,1-3.86-1.348,4.334,4.334,0,0,1-1.531-3.4A4.479,4.479,0,0,1,93.47,20.68a9.216,9.216,0,0,1,5.4-1.362h1.948v-.908a2.612,2.612,0,0,0-.564-1.758,2.219,2.219,0,0,0-1.78-.659,2.522,2.522,0,0,0-1.677.513,1.742,1.742,0,0,0-.608,1.406H91.954a4.252,4.252,0,0,1,.85-2.549,5.616,5.616,0,0,1,2.4-1.838,8.755,8.755,0,0,1,3.486-.667,6.917,6.917,0,0,1,4.651,1.472,5.15,5.15,0,0,1,1.721,4.138v6.87a7.577,7.577,0,0,0,.63,3.413V29Zm-3.5-2.944a3.646,3.646,0,0,0,1.729-.417,2.742,2.742,0,0,0,1.172-1.121V21.793H99.234q-3.179,0-3.384,2.2l-.015.249a1.7,1.7,0,0,0,.557,1.3A2.162,2.162,0,0,0,97.916,26.056ZM116.9,24.62a1.364,1.364,0,0,0-.769-1.223,8.736,8.736,0,0,0-2.468-.8q-5.654-1.187-5.654-4.8a4.355,4.355,0,0,1,1.75-3.523,7.061,7.061,0,0,1,4.578-1.414,7.6,7.6,0,0,1,4.827,1.421,4.478,4.478,0,0,1,1.809,3.691h-4.233a2.048,2.048,0,0,0-.586-1.5,2.48,2.48,0,0,0-1.831-.593,2.534,2.534,0,0,0-1.655.483,1.526,1.526,0,0,0-.586,1.23,1.3,1.3,0,0,0,.667,1.135,6.857,6.857,0,0,0,2.249.747,18.366,18.366,0,0,1,2.666.71q3.354,1.23,3.354,4.263a4.134,4.134,0,0,1-1.86,3.508,8.025,8.025,0,0,1-4.8,1.34,8.382,8.382,0,0,1-3.538-.71,5.936,5.936,0,0,1-2.424-1.948,4.527,4.527,0,0,1-.879-2.673h4.014a2.21,2.21,0,0,0,.835,1.729,3.312,3.312,0,0,0,2.08.6,3.065,3.065,0,0,0,1.838-.461A1.436,1.436,0,0,0,116.9,24.62Zm15.425,0a1.364,1.364,0,0,0-.769-1.223,8.736,8.736,0,0,0-2.468-.8q-5.654-1.187-5.654-4.8a4.355,4.355,0,0,1,1.75-3.523,7.061,7.061,0,0,1,4.578-1.414,7.6,7.6,0,0,1,4.827,1.421A4.478,4.478,0,0,1,136.4,17.97h-4.233a2.048,2.048,0,0,0-.586-1.5,2.48,2.48,0,0,0-1.831-.593,2.534,2.534,0,0,0-1.655.483,1.526,1.526,0,0,0-.586,1.23,1.3,1.3,0,0,0,.667,1.135,6.857,6.857,0,0,0,2.249.747,18.366,18.366,0,0,1,2.666.71q3.354,1.23,3.354,4.263a4.134,4.134,0,0,1-1.86,3.508,8.025,8.025,0,0,1-4.8,1.34,8.382,8.382,0,0,1-3.538-.71,5.936,5.936,0,0,1-2.424-1.948,4.527,4.527,0,0,1-.879-2.673h4.014a2.21,2.21,0,0,0,.835,1.729,3.312,3.312,0,0,0,2.08.6,3.065,3.065,0,0,0,1.838-.461A1.436,1.436,0,0,0,132.325,24.62ZM155.513,7.672h4.395V22.438a7.061,7.061,0,0,1-.9,3.6,6.114,6.114,0,0,1-2.542,2.41,7.94,7.94,0,0,1-3.706.85,7.546,7.546,0,0,1-5.273-1.721A6.254,6.254,0,0,1,145.6,22.7h4.424a3.429,3.429,0,0,0,.659,2.314,2.637,2.637,0,0,0,2.08.747,2.518,2.518,0,0,0,2.007-.864,3.652,3.652,0,0,0,.747-2.461Zm19.878,16.934h-7.705L166.221,29h-4.673l7.939-21.328h4.072L181.543,29h-4.673Zm-6.519-3.56H174.2l-2.681-7.983Zm21.416,2.666,4.834-16.04h4.893L192.588,29H188l-7.4-21.328h4.878Zm22.676.894h-7.705L203.794,29h-4.673l7.939-21.328h4.072L219.117,29h-4.673Zm-6.519-3.56h5.332L209.1,13.063Z" transform="translate(491.122 6049.913)" fill="#12263f"/>
    <path id="Trazado_189608" data-name="Trazado 189608" d="M99.461,11.231H92.928V29H88.533V11.231H82.088V7.672H99.461ZM108.411,29a4.7,4.7,0,0,1-.425-1.421,5.122,5.122,0,0,1-4,1.714,5.627,5.627,0,0,1-3.86-1.348,4.334,4.334,0,0,1-1.531-3.4,4.479,4.479,0,0,1,1.868-3.867,9.216,9.216,0,0,1,5.4-1.362h1.948v-.908a2.612,2.612,0,0,0-.564-1.758,2.219,2.219,0,0,0-1.78-.659,2.522,2.522,0,0,0-1.677.513,1.742,1.742,0,0,0-.608,1.406H98.948a4.252,4.252,0,0,1,.85-2.549,5.616,5.616,0,0,1,2.4-1.838,8.755,8.755,0,0,1,3.486-.667,6.917,6.917,0,0,1,4.651,1.472,5.15,5.15,0,0,1,1.721,4.138v6.87a7.577,7.577,0,0,0,.63,3.413V29Zm-3.5-2.944a3.646,3.646,0,0,0,1.729-.417,2.742,2.742,0,0,0,1.172-1.121V21.793h-1.582q-3.179,0-3.384,2.2l-.015.249a1.7,1.7,0,0,0,.557,1.3A2.162,2.162,0,0,0,104.91,26.056Zm24.683-4.834a9.6,9.6,0,0,1-1.626,5.94,5.386,5.386,0,0,1-4.541,2.131,4.948,4.948,0,0,1-4.116-1.978L119.119,29h-3.809V6.5h4.233v8.071a4.821,4.821,0,0,1,3.853-1.714,5.43,5.43,0,0,1,4.548,2.131,9.611,9.611,0,0,1,1.648,6Zm-4.233-.323a6.34,6.34,0,0,0-.762-3.519,2.573,2.573,0,0,0-2.271-1.109,2.792,2.792,0,0,0-2.783,1.66V24.2a2.829,2.829,0,0,0,2.813,1.675,2.615,2.615,0,0,0,2.7-2.028A10.49,10.49,0,0,0,125.359,20.9ZM136.668,29H132.42V6.5h4.248Zm12.671,0a4.7,4.7,0,0,1-.425-1.421,5.122,5.122,0,0,1-4,1.714,5.627,5.627,0,0,1-3.86-1.348,4.334,4.334,0,0,1-1.531-3.4,4.479,4.479,0,0,1,1.868-3.867,9.216,9.216,0,0,1,5.4-1.362h1.948v-.908a2.612,2.612,0,0,0-.564-1.758,2.219,2.219,0,0,0-1.78-.659,2.522,2.522,0,0,0-1.677.513,1.742,1.742,0,0,0-.608,1.406h-4.233a4.252,4.252,0,0,1,.85-2.549,5.616,5.616,0,0,1,2.4-1.838,8.755,8.755,0,0,1,3.486-.667,6.917,6.917,0,0,1,4.651,1.472,5.15,5.15,0,0,1,1.721,4.138v6.87a7.577,7.577,0,0,0,.63,3.413V29Zm-3.5-2.944a3.646,3.646,0,0,0,1.729-.417,2.742,2.742,0,0,0,1.172-1.121V21.793h-1.582q-3.179,0-3.384,2.2l-.015.249a1.7,1.7,0,0,0,.557,1.3A2.162,2.162,0,0,0,145.838,26.056ZM163.987,29V7.672h7.471a9.809,9.809,0,0,1,5.889,1.487,5.084,5.084,0,0,1,2.007,4.358,4.819,4.819,0,0,1-.806,2.761,4.654,4.654,0,0,1-2.241,1.75,4.5,4.5,0,0,1,2.585,1.655,4.894,4.894,0,0,1,.945,3.047,5.629,5.629,0,0,1-1.963,4.658,8.837,8.837,0,0,1-5.6,1.611Zm4.395-9.287V25.47h3.765a3.633,3.633,0,0,0,2.424-.74,2.537,2.537,0,0,0,.872-2.043q0-2.93-3.032-2.974Zm0-3.105h3.252q3.325-.059,3.325-2.651a2.45,2.45,0,0,0-.842-2.087,4.43,4.43,0,0,0-2.659-.637h-3.076ZM183.133,29V7.672H189.7a9.966,9.966,0,0,1,5.032,1.267,8.836,8.836,0,0,1,3.464,3.6,11.115,11.115,0,0,1,1.245,5.31v.981a11.146,11.146,0,0,1-1.223,5.288,8.76,8.76,0,0,1-3.45,3.589A10.041,10.041,0,0,1,189.739,29Zm4.395-17.769V25.47h2.124a4.772,4.772,0,0,0,3.94-1.685,7.612,7.612,0,0,0,1.392-4.819V17.838a7.733,7.733,0,0,0-1.348-4.929,4.756,4.756,0,0,0-3.94-1.677Z" transform="translate(1110.062 6220.913)" fill="#12263f"/>
  </g>
</svg>
