<svg xmlns="http://www.w3.org/2000/svg" xmlns:xlink="http://www.w3.org/1999/xlink" width="460.339" height="595.998" viewBox="0 0 460.339 595.998">
  <defs>
    <linearGradient id="linear-gradient" x1="0.5" x2="0.5" y2="1" gradientUnits="objectBoundingBox">
      <stop offset="0" stop-color="#4dd0e1"/>
      <stop offset="1" stop-color="#039be5"/>
    </linearGradient>
    <linearGradient id="linear-gradient-2" x1="0.5" x2="0.5" y2="1" gradientUnits="objectBoundingBox">
      <stop offset="0" stop-color="#fff"/>
      <stop offset="1" stop-color="#d2e6ee"/>
    </linearGradient>
    <linearGradient id="linear-gradient-3" x1="0.5" x2="0.5" y2="1" gradientUnits="objectBoundingBox">
      <stop offset="0" stop-color="#039be5"/>
      <stop offset="1" stop-color="#027fbc"/>
    </linearGradient>
  </defs>
  <g id="Grupo_41974" data-name="Grupo 41974" transform="translate(-1692.938 -220.718)">
    <g id="Grupo_33123" data-name="Grupo 33123" transform="translate(1692.938 292.718)">
      <g id="Grupo_33119" data-name="Grupo 33119" transform="translate(83.376 455.216)">
        <path id="Trazado_81544" data-name="Trazado 81544" d="M1809.115,925.77l-3.133-49.419,17.857-.94-2.51,51.81Z" transform="translate(-1803.633 -875.412)" fill="#fac5c2"/>
        <g id="Grupo_33118" data-name="Grupo 33118" transform="translate(0 43.268)">
          <path id="Trazado_81545" data-name="Trazado 81545" d="M1808.49,931.764s-6.892,12.4-4.869,22.042l53.88,1.07s3.527-10.267-8.6-13.092-28.868-11.514-28.868-11.514S1813.1,936.289,1808.49,931.764Z" transform="translate(-1803.101 -929.362)" fill="#1565c0"/>
          <path id="Trazado_81546" data-name="Trazado 81546" d="M1803.571,958.184l53.878,1.07a11.34,11.34,0,0,0,.26-5.409l-54.645-1.085A26.225,26.225,0,0,0,1803.571,958.184Z" transform="translate(-1803.065 -933.741)" fill="#f7ead5"/>
          <path id="Trazado_81547" data-name="Trazado 81547" d="M1823.336,933.092a7.479,7.479,0,0,1,1.805-2.412,7.73,7.73,0,0,1,4.07-1.345,32.941,32.941,0,0,1,3.778-.192,8.137,8.137,0,0,1,4.719,1.132,1.312,1.312,0,0,1,.688,1.235,1.219,1.219,0,0,1-.766.759,6.139,6.139,0,0,1-3.511.094q-4.243-.746-8.407-1.883a17.3,17.3,0,0,1,.442,4.625,9.346,9.346,0,0,1-1.024,4.214,3.473,3.473,0,0,1-1.253,1.37,1.838,1.838,0,0,1-1.793.066,1.939,1.939,0,0,1-.864-1.57,4.992,4.992,0,0,1,.32-1.827A26.078,26.078,0,0,1,1823.336,933.092Z" transform="translate(-1806.599 -929.142)" fill="none" stroke="#fff" stroke-linecap="round" stroke-linejoin="round" stroke-width="0.917"/>
        </g>
      </g>
      <g id="Grupo_33121" data-name="Grupo 33121" transform="translate(19.588 454.153)">
        <path id="Trazado_81548" data-name="Trazado 81548" d="M1729.9,924.45l-3.132-49.419,17.856-.94-2.51,51.81Z" transform="translate(-1724.421 -874.092)" fill="#fac5c2"/>
        <g id="Grupo_33120" data-name="Grupo 33120" transform="translate(0 43.268)">
          <path id="Trazado_81549" data-name="Trazado 81549" d="M1729.278,930.444s-6.891,12.4-4.869,22.041l53.88,1.071s3.527-10.267-8.6-13.092-28.868-11.515-28.868-11.515S1733.89,934.969,1729.278,930.444Z" transform="translate(-1723.889 -928.042)" fill="#1565c0"/>
          <path id="Trazado_81550" data-name="Trazado 81550" d="M1724.359,956.865l53.879,1.07a11.344,11.344,0,0,0,.26-5.409l-54.644-1.085A26.194,26.194,0,0,0,1724.359,956.865Z" transform="translate(-1723.853 -932.421)" fill="#f7ead5"/>
          <path id="Trazado_81551" data-name="Trazado 81551" d="M1744.124,931.772a7.471,7.471,0,0,1,1.806-2.412,7.728,7.728,0,0,1,4.07-1.345,32.908,32.908,0,0,1,3.778-.192,8.135,8.135,0,0,1,4.719,1.132,1.314,1.314,0,0,1,.689,1.235,1.224,1.224,0,0,1-.767.759,6.139,6.139,0,0,1-3.511.094q-4.243-.748-8.407-1.883a17.326,17.326,0,0,1,.442,4.625,9.326,9.326,0,0,1-1.024,4.214,3.474,3.474,0,0,1-1.253,1.37,1.84,1.84,0,0,1-1.793.066,1.942,1.942,0,0,1-.864-1.57,5,5,0,0,1,.32-1.828A26.152,26.152,0,0,1,1744.124,931.772Z" transform="translate(-1727.387 -927.822)" fill="none" stroke="#fff" stroke-linecap="round" stroke-linejoin="round" stroke-width="0.917"/>
        </g>
      </g>
      <path id="Trazado_81552" data-name="Trazado 81552" d="M1840.03,464.074l7.8,53.157,34.951,54.973-9.436,5.271-41.817-41.462-11.34-48.2Z" transform="translate(-1723.022 -340.103)" fill="#fac5c2"/>
      <path id="Trazado_81553" data-name="Trazado 81553" d="M1812.35,610.938l1.714,20.946-.31,226.835-28.859.931-8.688-205.114-4.655-.31-21.411,205.114h-30.41l4.655-116.366-1.241-125.054,19.239-13.343Z" transform="translate(-1703.462 -367.461)" fill="#00223d"/>
      <path id="Trazado_81554" data-name="Trazado 81554" d="M1726.281,638.265l23.583-24.825,25.756.31" transform="translate(-1704.738 -369.186)" fill="none" stroke="#356493" stroke-linecap="round" stroke-linejoin="round" stroke-width="1.156"/>
      <path id="Trazado_81555" data-name="Trazado 81555" d="M1789.862,656.338l1.862-3.724.31-38.789,23.273.621,12.412,19.239" transform="translate(-1717.118 -369.261)" fill="none" stroke="#356493" stroke-linecap="round" stroke-linejoin="round" stroke-width="1.156"/>
      <path id="Trazado_81556" data-name="Trazado 81556" d="M1792.263,544.269a2.4,2.4,0,1,0-2.4,2.4A2.4,2.4,0,0,0,1792.263,544.269Z" transform="translate(-1716.649 -355.25)" fill="none" stroke="#356493" stroke-linecap="round" stroke-linejoin="round" stroke-width="1.156"/>
      <path id="Trazado_81557" data-name="Trazado 81557" d="M1750.445,405.1s-22.961,8.752-26.109,10.277c-22.68,10.986-24.807,64.143-24.807,64.143h19.136l-2.524,102.947s54.592,11.34,96.055-.709l-5.271-94s15.761-.266,27.508-6.644c0,0-18.782-53.866-27.074-60.244s-40.08-12.049-40.08-12.049Z" transform="translate(-1699.529 -328.621)" fill="url(#linear-gradient)"/>
      <path id="Trazado_81558" data-name="Trazado 81558" d="M1771.321,373.729l-8.319,28.4s-1.438,15.07,15.414,18.251c16.34,3.083,15.932-12.314,15.932-12.314l-1.073-5.107,1.564-16.988Z" transform="translate(-1711.882 -322.511)" fill="#fac5c2"/>
      <path id="Trazado_81559" data-name="Trazado 81559" d="M1771.553,378.85l1.19-4.065,7.332,2.838L1787,381.23l9.091,9.462-.852,9.259C1790.446,399.26,1773.839,395.656,1771.553,378.85Z" transform="translate(-1713.553 -322.717)" fill="#d88080"/>
      <g id="Grupo_33122" data-name="Grupo 33122" transform="translate(52.338 0)">
        <path id="Trazado_81560" data-name="Trazado 81560" d="M1813.688,347.15c-1.632,13.011-8.116,38.581-21.2,37.769-13.77-.854-20.263-8.717-21.715-21.657,0,0-7.008,2.245-6.181-7.1.365-4.123,4.888-1.76,4.888-1.76s-6.64-34.2,14.891-36.2S1815.923,329.34,1813.688,347.15Z" transform="translate(-1764.522 -311.659)" fill="#fac5c2"/>
        <path id="Trazado_81561" data-name="Trazado 81561" d="M1794.184,353.417a3.9,3.9,0,0,0,1.163.6,1.063,1.063,0,0,0,1.155-.44,2.081,2.081,0,0,0-.221-2.106,5.015,5.015,0,0,0-3.26-1.867,10.706,10.706,0,0,0-3.721-.42,4.761,4.761,0,0,0-3.36,1.892.9.9,0,0,0-.208.487.572.572,0,0,0,.385.552,1.216,1.216,0,0,0,.627-.037A9.818,9.818,0,0,1,1794.184,353.417Z" transform="translate(-1768.652 -317.723)" fill="#242638"/>
        <path id="Trazado_81562" data-name="Trazado 81562" d="M1811.658,356.144a3.339,3.339,0,0,1-1.156.279.9.9,0,0,1-.86-.714,2.305,2.305,0,0,1,.775-1.967,4.338,4.338,0,0,1,3.295-.974,8.439,8.439,0,0,1,3.281.531,4.155,4.155,0,0,1,2.329,2.661.962.962,0,0,1,.041.52.571.571,0,0,1-.482.433.96.96,0,0,1-.522-.193A7.872,7.872,0,0,0,1811.658,356.144Z" transform="translate(-1773.301 -318.43)" fill="#242638"/>
        <path id="Trazado_81563" data-name="Trazado 81563" d="M1803.585,365.251c-.651,2.971.208,6.04,1.03,8.969a1.162,1.162,0,0,1,.007.885,1,1,0,0,1-.273.28,3.645,3.645,0,0,1-1.929.725c-.993.07-2.148-.222-2.874.46" transform="translate(-1771.341 -320.861)" fill="none" stroke="#242638" stroke-miterlimit="10" stroke-width="0.679"/>
        <path id="Trazado_81564" data-name="Trazado 81564" d="M1814.85,365.434c.3-2.2-.371-4.1-1.5-4.258s-2.286,1.5-2.586,3.7.371,4.1,1.5,4.258S1814.549,367.632,1814.85,365.434Z" transform="translate(-1773.512 -320.065)" fill="#242638"/>
        <path id="Trazado_81565" data-name="Trazado 81565" d="M1793.342,362.179c.3-2.2-.371-4.1-1.5-4.258s-2.286,1.5-2.586,3.7.371,4.1,1.5,4.257S1793.041,364.377,1793.342,362.179Z" transform="translate(-1769.324 -319.432)" fill="#242638"/>
        <path id="Trazado_81566" data-name="Trazado 81566" d="M1805.732,383.818s-8.7,1.284-16.621-1.833c0,0,2.526,6.727,7.945,7.038S1805.732,383.818,1805.732,383.818Z" transform="translate(-1769.31 -324.119)" fill="#fff"/>
        <path id="Trazado_81567" data-name="Trazado 81567" d="M1819.422,335.283c1.189-.68,2.674-1.362,2.866-2.718.185-1.309-1.007-2.4-2.188-2.991s-2.545-1.018-3.307-2.1c2.753-.193,4.191-3.741,3.322-6.362a9.046,9.046,0,0,0-4.884-5.075,22.141,22.141,0,0,0-7.01-1.681,84.022,84.022,0,0,0-13.591-.417c-3.8.192-8.021.523-11.007-1.841a8.525,8.525,0,0,0-2.635-1.869c-1.665-.489-3.434.795-4.1,2.395a10.764,10.764,0,0,0-.372,5.138c-1.765-.709-3.862-1.107-5.5-.146s-2.123,3.754-.466,4.688c.538.3,1.268.43,1.506,1,.268.638-.291,1.295-.778,1.785a21.024,21.024,0,0,0,.064,29.726c1.817-4.605,4.36-8.89,6.347-13.425s3.43-9.479,2.857-14.4c8.256,6.409,19.283,8.309,29.707,7.547a3.193,3.193,0,0,1,2.281.4,3.129,3.129,0,0,1,.814,2.317l.607,9.328A11.408,11.408,0,0,1,1819.422,335.283Z" transform="translate(-1764.644 -310.127)" fill="#242638"/>
        <path id="Trazado_81568" data-name="Trazado 81568" d="M1771.9,355.739a101.6,101.6,0,0,0,8.578-29.168c-.122,1.032,3.831,2.644,4.535,3a39.094,39.094,0,0,0,8.177,3.091c7.51,1.892,15.047,1.414,22.694,1.618a5.191,5.191,0,0,1,3.018.725,1.852,1.852,0,0,1,.385,2.724" transform="translate(-1765.958 -313.329)" fill="none" stroke="#fff" stroke-linecap="round" stroke-linejoin="round" stroke-width="0.69"/>
        <path id="Trazado_81569" data-name="Trazado 81569" d="M1820.543,329.576c-3.847-2.292-8.641-1.949-13.111-1.7-6.572.366-13.414.322-19.39-2.438" transform="translate(-1769.102 -313.109)" fill="none" stroke="#fff" stroke-linecap="round" stroke-linejoin="round" stroke-width="0.69"/>
      </g>
      <rect id="Rectángulo_26606" data-name="Rectángulo 26606" width="12.824" height="11.362" rx="1.976" transform="translate(80.045 49.114) rotate(-169.629)" fill="none" stroke="#242638" stroke-miterlimit="10" stroke-width="0.855"/>
      <rect id="Rectángulo_26607" data-name="Rectángulo 26607" width="11.894" height="11.362" rx="1.903" transform="translate(97.104 52.237) rotate(-169.629)" fill="none" stroke="#242638" stroke-miterlimit="10" stroke-width="0.823"/>
      <line id="Línea_268" data-name="Línea 268" x2="8.478" y2="0.921" transform="translate(59.55 41.513)" fill="none" stroke="#242638" stroke-miterlimit="10" stroke-width="0.66"/>
      <path id="Trazado_81570" data-name="Trazado 81570" d="M1799.912,365.425s4.266-1.347,5.448,1.233" transform="translate(-1719.075 -320.826)" fill="none" stroke="#242638" stroke-miterlimit="10" stroke-width="0.66"/>
      <line id="Línea_269" data-name="Línea 269" x2="1.109" y2="0.338" transform="translate(98.054 47.659)" fill="none" stroke="#242638" stroke-miterlimit="10" stroke-width="0.66"/>
      <line id="Línea_270" data-name="Línea 270" x1="2.082" y1="29.148" transform="translate(105.313 129.996)" fill="none" stroke="#242638" stroke-linecap="round" stroke-linejoin="round" stroke-width="1.32"/>
      <path id="Trazado_81571" data-name="Trazado 81571" d="M1736.864,497.079l5.316,30.476,50.322,38.982,24.1,1.417,11.694,4.607-5.316,5.67H1784l-66.229-31.913a4.658,4.658,0,0,1-2.57-3.414l-7.747-45.471Z" transform="translate(-1701.071 -346.529)" fill="#fac5c2"/>
      <path id="Trazado_81572" data-name="Trazado 81572" d="M1743.976,490.567l3.9.709.709-27.642" transform="translate(-1708.183 -340.017)" fill="none" stroke="#242638" stroke-linecap="round" stroke-linejoin="round" stroke-width="1.32"/>
    </g>
    <g id="Grupo_33139" data-name="Grupo 33139" transform="translate(1919.386 220.717)">
      <rect id="Rectángulo_26608" data-name="Rectángulo 26608" width="233.89" height="595.357" fill="url(#linear-gradient-2)"/>
      <rect id="Rectángulo_26609" data-name="Rectángulo 26609" width="209.902" height="485.5" transform="translate(11.994 14.884)" fill="none" stroke="#242638" stroke-miterlimit="10" stroke-width="2.25"/>
      <g id="Grupo_33124" data-name="Grupo 33124" transform="translate(17.392 23.035)">
        <rect id="Rectángulo_26610" data-name="Rectángulo 26610" width="197.308" height="20.2" fill="#242638"/>
        <rect id="Rectángulo_26611" data-name="Rectángulo 26611" width="5.329" height="15.061" transform="translate(187.78 2.126)" fill="url(#linear-gradient-3)"/>
        <rect id="Rectángulo_26612" data-name="Rectángulo 26612" width="5.329" height="15.061" transform="translate(181.119 2.126)" fill="url(#linear-gradient-3)"/>
        <rect id="Rectángulo_26613" data-name="Rectángulo 26613" width="5.329" height="15.061" transform="translate(174.368 2.126)" fill="url(#linear-gradient-3)"/>
        <rect id="Rectángulo_26614" data-name="Rectángulo 26614" width="5.329" height="15.061" transform="translate(167.622 2.126)" fill="url(#linear-gradient-3)"/>
        <rect id="Rectángulo_26615" data-name="Rectángulo 26615" width="5.329" height="15.061" transform="translate(160.728 2.126)" fill="url(#linear-gradient-3)"/>
        <rect id="Rectángulo_26616" data-name="Rectángulo 26616" width="5.329" height="15.061" transform="translate(153.978 2.126)" fill="url(#linear-gradient-3)"/>
        <rect id="Rectángulo_26617" data-name="Rectángulo 26617" width="5.329" height="15.061" transform="translate(147.231 2.126)" fill="url(#linear-gradient-3)"/>
        <rect id="Rectángulo_26618" data-name="Rectángulo 26618" width="42.055" height="5.582" rx="2.791" transform="translate(75.864 4.253)" fill="#fff"/>
        <path id="Trazado_81573" data-name="Trazado 81573" d="M2055.1,261.1c0-2.74-1.879-4.961-4.2-4.961s-4.2,2.221-4.2,4.961,1.88,4.961,4.2,4.961S2055.1,263.844,2055.1,261.1Z" transform="translate(-2010.97 -250.65)" fill="#21587b"/>
        <path id="Trazado_81574" data-name="Trazado 81574" d="M2040.083,261.1c0-2.74-1.88-4.961-4.2-4.961s-4.2,2.221-4.2,4.961,1.88,4.961,4.2,4.961S2040.083,263.844,2040.083,261.1Z" transform="translate(-2008.045 -250.65)" fill="#21587b"/>
        <path id="Trazado_81575" data-name="Trazado 81575" d="M2025.061,261.1c0-2.74-1.88-4.961-4.2-4.961s-4.2,2.221-4.2,4.961,1.88,4.961,4.2,4.961S2025.061,263.844,2025.061,261.1Z" transform="translate(-2005.12 -250.65)" fill="#21587b"/>
      </g>
      <g id="Grupo_33125" data-name="Grupo 33125" transform="translate(17.392 49.082)">
        <rect id="Rectángulo_26619" data-name="Rectángulo 26619" width="197.308" height="20.2" fill="#242638"/>
        <rect id="Rectángulo_26620" data-name="Rectángulo 26620" width="5.329" height="15.061" transform="translate(187.78 2.126)" fill="#fff"/>
        <rect id="Rectángulo_26621" data-name="Rectángulo 26621" width="5.329" height="15.061" transform="translate(181.119 2.126)" fill="#fff"/>
        <rect id="Rectángulo_26622" data-name="Rectángulo 26622" width="5.329" height="15.061" transform="translate(174.368 2.126)" fill="#fff"/>
        <rect id="Rectángulo_26623" data-name="Rectángulo 26623" width="5.329" height="15.061" transform="translate(167.622 2.126)" fill="#fff"/>
        <rect id="Rectángulo_26624" data-name="Rectángulo 26624" width="5.329" height="15.061" transform="translate(160.728 2.126)" fill="#fff"/>
        <rect id="Rectángulo_26625" data-name="Rectángulo 26625" width="42.055" height="5.581" rx="2.791" transform="translate(75.864 4.253)" fill="#fff"/>
        <ellipse id="Elipse_3406" data-name="Elipse 3406" cx="4.198" cy="4.961" rx="4.198" ry="4.961" transform="translate(35.739 5.493)" fill="#21587b"/>
        <ellipse id="Elipse_3407" data-name="Elipse 3407" cx="4.198" cy="4.961" rx="4.198" ry="4.961" transform="translate(23.642 5.493)" fill="#21587b"/>
        <ellipse id="Elipse_3408" data-name="Elipse 3408" cx="4.198" cy="4.961" rx="4.198" ry="4.961" transform="translate(11.545 5.493)" fill="#21587b"/>
      </g>
      <g id="Grupo_33126" data-name="Grupo 33126" transform="translate(17.392 74.331)">
        <rect id="Rectángulo_26626" data-name="Rectángulo 26626" width="197.308" height="20.2" fill="#242638"/>
        <rect id="Rectángulo_26627" data-name="Rectángulo 26627" width="5.329" height="15.061" transform="translate(187.78 2.126)" fill="#ffca28"/>
        <rect id="Rectángulo_26628" data-name="Rectángulo 26628" width="5.329" height="15.061" transform="translate(181.119 2.126)" fill="#ffca28"/>
        <rect id="Rectángulo_26629" data-name="Rectángulo 26629" width="5.329" height="15.061" transform="translate(174.368 2.126)" fill="#ffca28"/>
        <rect id="Rectángulo_26630" data-name="Rectángulo 26630" width="42.055" height="5.581" rx="2.791" transform="translate(75.864 4.253)" fill="#fff"/>
        <ellipse id="Elipse_3409" data-name="Elipse 3409" cx="4.198" cy="4.961" rx="4.198" ry="4.961" transform="translate(35.739 5.493)" fill="#21587b"/>
        <ellipse id="Elipse_3410" data-name="Elipse 3410" cx="4.198" cy="4.961" rx="4.198" ry="4.961" transform="translate(23.642 5.493)" fill="#21587b"/>
        <ellipse id="Elipse_3411" data-name="Elipse 3411" cx="4.198" cy="4.961" rx="4.198" ry="4.961" transform="translate(11.545 5.493)" fill="#21587b"/>
      </g>
      <g id="Grupo_33127" data-name="Grupo 33127" transform="translate(17.392 190.302)">
        <rect id="Rectángulo_26631" data-name="Rectángulo 26631" width="197.308" height="20.2" fill="#242638"/>
        <rect id="Rectángulo_26632" data-name="Rectángulo 26632" width="5.329" height="15.061" transform="translate(187.78 2.126)" fill="url(#linear-gradient-3)"/>
        <rect id="Rectángulo_26633" data-name="Rectángulo 26633" width="5.329" height="15.061" transform="translate(181.119 2.126)" fill="url(#linear-gradient-3)"/>
        <rect id="Rectángulo_26634" data-name="Rectángulo 26634" width="5.329" height="15.061" transform="translate(174.368 2.126)" fill="url(#linear-gradient-3)"/>
        <rect id="Rectángulo_26635" data-name="Rectángulo 26635" width="5.329" height="15.061" transform="translate(167.622 2.126)" fill="url(#linear-gradient-3)"/>
        <rect id="Rectángulo_26636" data-name="Rectángulo 26636" width="5.329" height="15.061" transform="translate(160.728 2.126)" fill="url(#linear-gradient-3)"/>
        <rect id="Rectángulo_26637" data-name="Rectángulo 26637" width="5.329" height="15.061" transform="translate(153.978 2.126)" fill="url(#linear-gradient-3)"/>
        <rect id="Rectángulo_26638" data-name="Rectángulo 26638" width="5.329" height="15.061" transform="translate(147.231 2.126)" fill="url(#linear-gradient-3)"/>
        <rect id="Rectángulo_26639" data-name="Rectángulo 26639" width="42.055" height="5.581" rx="2.791" transform="translate(75.864 4.253)" fill="#fff"/>
        <ellipse id="Elipse_3412" data-name="Elipse 3412" cx="4.198" cy="4.961" rx="4.198" ry="4.961" transform="translate(35.739 5.493)" fill="#21587b"/>
        <ellipse id="Elipse_3413" data-name="Elipse 3413" cx="4.198" cy="4.961" rx="4.198" ry="4.961" transform="translate(23.642 5.493)" fill="#356493"/>
        <ellipse id="Elipse_3414" data-name="Elipse 3414" cx="4.198" cy="4.961" rx="4.198" ry="4.961" transform="translate(11.545 5.493)" fill="#21587b"/>
      </g>
      <g id="Grupo_33128" data-name="Grupo 33128" transform="translate(17.392 216.349)">
        <rect id="Rectángulo_26640" data-name="Rectángulo 26640" width="197.308" height="20.2" fill="#242638"/>
        <rect id="Rectángulo_26641" data-name="Rectángulo 26641" width="5.329" height="15.061" transform="translate(187.78 2.126)" fill="#ffa726"/>
        <rect id="Rectángulo_26642" data-name="Rectángulo 26642" width="5.329" height="15.061" transform="translate(181.119 2.126)" fill="#ffa726"/>
        <rect id="Rectángulo_26643" data-name="Rectángulo 26643" width="5.329" height="15.061" transform="translate(174.368 2.126)" fill="#ffa726"/>
        <rect id="Rectángulo_26644" data-name="Rectángulo 26644" width="5.329" height="15.061" transform="translate(167.622 2.126)" fill="#ffa726"/>
        <rect id="Rectángulo_26645" data-name="Rectángulo 26645" width="5.329" height="15.061" transform="translate(160.728 2.126)" fill="#ffa726"/>
        <rect id="Rectángulo_26646" data-name="Rectángulo 26646" width="42.055" height="5.581" rx="2.791" transform="translate(75.864 4.253)" fill="#fff"/>
        <ellipse id="Elipse_3415" data-name="Elipse 3415" cx="4.198" cy="4.961" rx="4.198" ry="4.961" transform="translate(35.739 5.493)" fill="#21587b"/>
        <ellipse id="Elipse_3416" data-name="Elipse 3416" cx="4.198" cy="4.961" rx="4.198" ry="4.961" transform="translate(23.642 5.493)" fill="#356493"/>
        <ellipse id="Elipse_3417" data-name="Elipse 3417" cx="4.198" cy="4.961" rx="4.198" ry="4.961" transform="translate(11.545 5.493)" fill="#21587b"/>
      </g>
      <g id="Grupo_33129" data-name="Grupo 33129" transform="translate(17.392 241.598)">
        <rect id="Rectángulo_26647" data-name="Rectángulo 26647" width="197.308" height="20.2" fill="#242638"/>
        <rect id="Rectángulo_26648" data-name="Rectángulo 26648" width="5.329" height="15.061" transform="translate(187.78 2.126)" fill="#26a69a"/>
        <rect id="Rectángulo_26649" data-name="Rectángulo 26649" width="5.329" height="15.061" transform="translate(181.119 2.126)" fill="#26a69a"/>
        <rect id="Rectángulo_26650" data-name="Rectángulo 26650" width="5.329" height="15.061" transform="translate(174.368 2.126)" fill="#26a69a"/>
        <rect id="Rectángulo_26651" data-name="Rectángulo 26651" width="42.055" height="5.582" rx="2.791" transform="translate(75.864 4.253)" fill="#fff"/>
        <path id="Trazado_81576" data-name="Trazado 81576" d="M2055.1,532.514c0-2.74-1.879-4.961-4.2-4.961s-4.2,2.222-4.2,4.961,1.88,4.961,4.2,4.961S2055.1,535.255,2055.1,532.514Z" transform="translate(-2010.97 -522.06)" fill="#21587b"/>
        <path id="Trazado_81577" data-name="Trazado 81577" d="M2040.083,532.514c0-2.74-1.88-4.961-4.2-4.961s-4.2,2.222-4.2,4.961,1.88,4.961,4.2,4.961S2040.083,535.255,2040.083,532.514Z" transform="translate(-2008.045 -522.06)" fill="#21587b"/>
        <path id="Trazado_81578" data-name="Trazado 81578" d="M2025.061,532.514c0-2.74-1.88-4.961-4.2-4.961s-4.2,2.222-4.2,4.961,1.88,4.961,4.2,4.961S2025.061,535.255,2025.061,532.514Z" transform="translate(-2005.12 -522.06)" fill="#21587b"/>
      </g>
      <g id="Grupo_33130" data-name="Grupo 33130" transform="translate(17.392 333.471)">
        <rect id="Rectángulo_26652" data-name="Rectángulo 26652" width="197.308" height="20.2" fill="#242638"/>
        <rect id="Rectángulo_26653" data-name="Rectángulo 26653" width="5.329" height="15.061" transform="translate(187.78 2.126)" fill="#ffa726"/>
        <rect id="Rectángulo_26654" data-name="Rectángulo 26654" width="5.329" height="15.061" transform="translate(181.119 2.126)" fill="#ffa726"/>
        <rect id="Rectángulo_26655" data-name="Rectángulo 26655" width="5.329" height="15.061" transform="translate(174.368 2.126)" fill="#ffa726"/>
        <rect id="Rectángulo_26656" data-name="Rectángulo 26656" width="5.329" height="15.061" transform="translate(167.622 2.126)" fill="#ffa726"/>
        <rect id="Rectángulo_26657" data-name="Rectángulo 26657" width="5.329" height="15.061" transform="translate(160.728 2.126)" fill="#ffa726"/>
        <rect id="Rectángulo_26658" data-name="Rectángulo 26658" width="5.329" height="15.061" transform="translate(153.978 2.126)" fill="#ffa726"/>
        <rect id="Rectángulo_26659" data-name="Rectángulo 26659" width="5.329" height="15.061" transform="translate(147.231 2.126)" fill="#ffa726"/>
        <rect id="Rectángulo_26660" data-name="Rectángulo 26660" width="42.055" height="5.582" rx="2.791" transform="translate(75.864 4.253)" fill="#fff"/>
        <ellipse id="Elipse_3418" data-name="Elipse 3418" cx="4.198" cy="4.961" rx="4.198" ry="4.961" transform="translate(35.739 5.493)" fill="#21587b"/>
        <ellipse id="Elipse_3419" data-name="Elipse 3419" cx="4.198" cy="4.961" rx="4.198" ry="4.961" transform="translate(23.642 5.493)" fill="#21587b"/>
        <ellipse id="Elipse_3420" data-name="Elipse 3420" cx="4.198" cy="4.961" rx="4.198" ry="4.961" transform="translate(11.545 5.493)" fill="#21587b"/>
      </g>
      <g id="Grupo_33131" data-name="Grupo 33131" transform="translate(17.392 359.518)">
        <rect id="Rectángulo_26661" data-name="Rectángulo 26661" width="197.308" height="20.2" fill="#242638"/>
        <rect id="Rectángulo_26662" data-name="Rectángulo 26662" width="5.329" height="15.061" transform="translate(187.78 2.126)" fill="url(#linear-gradient-3)"/>
        <rect id="Rectángulo_26663" data-name="Rectángulo 26663" width="5.329" height="15.061" transform="translate(181.119 2.126)" fill="url(#linear-gradient-3)"/>
        <rect id="Rectángulo_26664" data-name="Rectángulo 26664" width="5.329" height="15.061" transform="translate(174.368 2.126)" fill="url(#linear-gradient-3)"/>
        <rect id="Rectángulo_26665" data-name="Rectángulo 26665" width="5.329" height="15.061" transform="translate(167.622 2.126)" fill="url(#linear-gradient-3)"/>
        <rect id="Rectángulo_26666" data-name="Rectángulo 26666" width="5.329" height="15.061" transform="translate(160.728 2.126)" fill="url(#linear-gradient-3)"/>
        <rect id="Rectángulo_26667" data-name="Rectángulo 26667" width="42.055" height="5.581" rx="2.791" transform="translate(75.864 4.253)" fill="#fff"/>
        <path id="Trazado_81579" data-name="Trazado 81579" d="M2055.1,678.946c0-2.74-1.879-4.961-4.2-4.961s-4.2,2.222-4.2,4.961,1.88,4.961,4.2,4.961S2055.1,681.687,2055.1,678.946Z" transform="translate(-2010.97 -668.492)" fill="#21587b"/>
        <path id="Trazado_81580" data-name="Trazado 81580" d="M2040.083,678.946c0-2.74-1.88-4.961-4.2-4.961s-4.2,2.222-4.2,4.961,1.88,4.961,4.2,4.961S2040.083,681.687,2040.083,678.946Z" transform="translate(-2008.045 -668.492)" fill="#21587b"/>
        <path id="Trazado_81581" data-name="Trazado 81581" d="M2025.061,678.946c0-2.74-1.88-4.961-4.2-4.961s-4.2,2.222-4.2,4.961,1.88,4.961,4.2,4.961S2025.061,681.687,2025.061,678.946Z" transform="translate(-2005.12 -668.492)" fill="#21587b"/>
      </g>
      <g id="Grupo_33132" data-name="Grupo 33132" transform="translate(17.392 384.767)">
        <rect id="Rectángulo_26668" data-name="Rectángulo 26668" width="197.308" height="20.2" fill="#242638"/>
        <rect id="Rectángulo_26669" data-name="Rectángulo 26669" width="5.329" height="15.061" transform="translate(187.78 2.126)" fill="#fff"/>
        <rect id="Rectángulo_26670" data-name="Rectángulo 26670" width="5.329" height="15.061" transform="translate(181.119 2.126)" fill="#fff"/>
        <rect id="Rectángulo_26671" data-name="Rectángulo 26671" width="5.329" height="15.061" transform="translate(174.368 2.126)" fill="#fff"/>
        <rect id="Rectángulo_26672" data-name="Rectángulo 26672" width="42.055" height="5.581" rx="2.791" transform="translate(75.864 4.253)" fill="#fff"/>
        <path id="Trazado_81582" data-name="Trazado 81582" d="M2055.1,710.3c0-2.74-1.879-4.961-4.2-4.961s-4.2,2.221-4.2,4.961,1.88,4.961,4.2,4.961S2055.1,713.041,2055.1,710.3Z" transform="translate(-2010.97 -699.847)" fill="#21587b"/>
        <path id="Trazado_81583" data-name="Trazado 81583" d="M2040.083,710.3c0-2.74-1.88-4.961-4.2-4.961s-4.2,2.221-4.2,4.961,1.88,4.961,4.2,4.961S2040.083,713.041,2040.083,710.3Z" transform="translate(-2008.045 -699.847)" fill="#21587b"/>
        <path id="Trazado_81584" data-name="Trazado 81584" d="M2025.061,710.3c0-2.74-1.88-4.961-4.2-4.961s-4.2,2.221-4.2,4.961,1.88,4.961,4.2,4.961S2025.061,713.041,2025.061,710.3Z" transform="translate(-2005.12 -699.847)" fill="#13d3c1"/>
      </g>
      <g id="Grupo_33133" data-name="Grupo 33133" transform="translate(17.392 115.173)">
        <rect id="Rectángulo_26673" data-name="Rectángulo 26673" width="197.308" height="43.943" fill="#242638"/>
      </g>
      <g id="Grupo_33134" data-name="Grupo 33134" transform="translate(17.392 275.353)">
        <rect id="Rectángulo_26674" data-name="Rectángulo 26674" width="197.308" height="43.943" fill="#242638"/>
      </g>
      <g id="Grupo_33135" data-name="Grupo 33135" transform="translate(17.392 423.483)">
        <rect id="Rectángulo_26675" data-name="Rectángulo 26675" width="197.308" height="43.943" fill="#242638"/>
      </g>
      <g id="Grupo_33136" data-name="Grupo 33136" transform="translate(178.266 519.52)">
        <rect id="Rectángulo_26676" data-name="Rectángulo 26676" width="38.682" height="4.784" rx="2.392" fill="#242638"/>
        <rect id="Rectángulo_26677" data-name="Rectángulo 26677" width="38.682" height="4.784" rx="2.392" transform="translate(0 9.834)" fill="#242638"/>
        <rect id="Rectángulo_26678" data-name="Rectángulo 26678" width="38.682" height="4.784" rx="2.392" transform="translate(0 24.718)" fill="#242638"/>
        <rect id="Rectángulo_26679" data-name="Rectángulo 26679" width="38.682" height="4.784" rx="2.392" transform="translate(0 34.552)" fill="#242638"/>
        <rect id="Rectángulo_26680" data-name="Rectángulo 26680" width="38.682" height="4.784" rx="2.392" transform="translate(0 50.233)" fill="#242638"/>
        <rect id="Rectángulo_26681" data-name="Rectángulo 26681" width="38.682" height="4.784" rx="2.392" transform="translate(0 60.067)" fill="#242638"/>
      </g>
      <g id="Grupo_33137" data-name="Grupo 33137" transform="translate(97.979 519.52)">
        <path id="Rectángulo_26682" data-name="Rectángulo 26682" d="M2.392,0h33.9a2.392,2.392,0,0,1,2.392,2.392v0A2.392,2.392,0,0,1,36.29,4.784H2.392A2.392,2.392,0,0,1,0,2.392v0A2.392,2.392,0,0,1,2.392,0Z" fill="#242638"/>
        <path id="Rectángulo_26683" data-name="Rectángulo 26683" d="M2.392,0h33.9a2.392,2.392,0,0,1,2.392,2.392v0A2.392,2.392,0,0,1,36.29,4.784H2.392A2.392,2.392,0,0,1,0,2.392v0A2.392,2.392,0,0,1,2.392,0Z" transform="translate(0 9.834)" fill="#242638"/>
        <path id="Rectángulo_26684" data-name="Rectángulo 26684" d="M2.392,0h33.9a2.392,2.392,0,0,1,2.392,2.392v0A2.392,2.392,0,0,1,36.29,4.784H2.392A2.392,2.392,0,0,1,0,2.392v0A2.392,2.392,0,0,1,2.392,0Z" transform="translate(0 24.718)" fill="#242638"/>
        <path id="Rectángulo_26685" data-name="Rectángulo 26685" d="M2.392,0h33.9a2.392,2.392,0,0,1,2.392,2.392v0A2.392,2.392,0,0,1,36.29,4.784H2.392A2.392,2.392,0,0,1,0,2.392v0A2.392,2.392,0,0,1,2.392,0Z" transform="translate(0 34.552)" fill="#242638"/>
        <path id="Rectángulo_26686" data-name="Rectángulo 26686" d="M2.392,0h33.9a2.392,2.392,0,0,1,2.392,2.392v0A2.392,2.392,0,0,1,36.29,4.784H2.392A2.392,2.392,0,0,1,0,2.392v0A2.392,2.392,0,0,1,2.392,0Z" transform="translate(0 50.233)" fill="#242638"/>
        <path id="Rectángulo_26687" data-name="Rectángulo 26687" d="M2.392,0h33.9a2.392,2.392,0,0,1,2.392,2.392v0A2.392,2.392,0,0,1,36.29,4.784H2.392A2.392,2.392,0,0,1,0,2.392v0A2.392,2.392,0,0,1,2.392,0Z" transform="translate(0 60.067)" fill="#242638"/>
      </g>
      <g id="Grupo_33138" data-name="Grupo 33138" transform="translate(18.141 519.52)">
        <path id="Rectángulo_26688" data-name="Rectángulo 26688" d="M2.392,0h33.9a2.392,2.392,0,0,1,2.392,2.392v0A2.392,2.392,0,0,1,36.29,4.784H2.392A2.392,2.392,0,0,1,0,2.392v0A2.392,2.392,0,0,1,2.392,0Z" fill="#242638"/>
        <path id="Rectángulo_26689" data-name="Rectángulo 26689" d="M2.392,0h33.9a2.392,2.392,0,0,1,2.392,2.392v0A2.392,2.392,0,0,1,36.29,4.784H2.392A2.392,2.392,0,0,1,0,2.392v0A2.392,2.392,0,0,1,2.392,0Z" transform="translate(0 9.834)" fill="#242638"/>
        <path id="Rectángulo_26690" data-name="Rectángulo 26690" d="M2.392,0h33.9a2.392,2.392,0,0,1,2.392,2.392v0A2.392,2.392,0,0,1,36.29,4.784H2.392A2.392,2.392,0,0,1,0,2.392v0A2.392,2.392,0,0,1,2.392,0Z" transform="translate(0 24.718)" fill="#242638"/>
        <path id="Rectángulo_26691" data-name="Rectángulo 26691" d="M2.392,0h33.9a2.392,2.392,0,0,1,2.392,2.392v0A2.392,2.392,0,0,1,36.29,4.784H2.392A2.392,2.392,0,0,1,0,2.392v0A2.392,2.392,0,0,1,2.392,0Z" transform="translate(0 34.552)" fill="#242638"/>
        <path id="Rectángulo_26692" data-name="Rectángulo 26692" d="M2.392,0h33.9a2.392,2.392,0,0,1,2.392,2.392v0A2.392,2.392,0,0,1,36.29,4.784H2.392A2.392,2.392,0,0,1,0,2.392v0A2.392,2.392,0,0,1,2.392,0Z" transform="translate(0 50.233)" fill="#242638"/>
        <path id="Rectángulo_26693" data-name="Rectángulo 26693" d="M2.392,0h33.9a2.392,2.392,0,0,1,2.392,2.392v0A2.392,2.392,0,0,1,36.29,4.784H2.392A2.392,2.392,0,0,1,0,2.392v0A2.392,2.392,0,0,1,2.392,0Z" transform="translate(0 60.067)" fill="#242638"/>
      </g>
    </g>
    <path id="Trazado_81585" data-name="Trazado 81585" d="M1936.725,725.478c10.277,0,29.767-1.418,29.767,25.16s-3.189,71.585,13.822,71.585,16.3-24.453,16.3-68.75,1.417-42.526,7.087-42.526" transform="translate(-52.776 -95.453)" fill="none" stroke="#13d3c1" stroke-miterlimit="10" stroke-width="2.64"/>
    <rect id="Rectángulo_26694" data-name="Rectángulo 26694" width="12.758" height="287.756" transform="translate(1895.288 527.964)" fill="#d4dee8"/>
    <path id="Trazado_81586" data-name="Trazado 81586" d="M1936.725,733.985c8.15,0,21.972.354,21.972,15.593s-12.049,138.562,19.845,138.562,32.248-38.273,32.248-84.343-3.544-92.847,5.316-92.847" transform="translate(-52.776 -95.455)" fill="none" stroke="#21587b" stroke-miterlimit="10" stroke-width="2.64"/>
    <rect id="Rectángulo_26695" data-name="Rectángulo 26695" width="12.758" height="287.756" transform="translate(1765.94 527.964)" fill="#d4dee8"/>
    <rect id="Rectángulo_26696" data-name="Rectángulo 26696" width="24.807" height="151.674" transform="translate(1911.59 524.42) rotate(90)" fill="#d4dee8"/>
    <path id="Trazado_81587" data-name="Trazado 81587" d="M1956.453,591.913c15.415,0,12.758,13.289,12.758,46.778s-7.619,45.98-34.907,45.98" transform="translate(-52.305 -72.277)" fill="none" stroke="#12263f" stroke-miterlimit="10" stroke-width="2.64"/>
    <rect id="Rectángulo_26697" data-name="Rectángulo 26697" width="13.112" height="136.082" transform="translate(1904.148 650.934) rotate(90)" fill="#d4dee8"/>
    <g id="Grupo_33141" data-name="Grupo 33141" transform="translate(1759.953 444.937)">
      <g id="Grupo_33140" data-name="Grupo 33140" transform="translate(0)">
        <path id="Trazado_81588" data-name="Trazado 81588" d="M1957.117,499.152l-107.78,1.479L1835.482,579.4l107.062-.42Z" transform="translate(-1793.017 -499.152)" fill="#242638"/>
        <rect id="Rectángulo_26698" data-name="Rectángulo 26698" width="68.667" height="6.818" transform="translate(0 73.524) rotate(-0.786)" fill="#242638"/>
      </g>
      <path id="Trazado_81589" data-name="Trazado 81589" d="M1923.973,539.676a9.253,9.253,0,1,0-9.125,9.379A9.254,9.254,0,0,0,1923.973,539.676Z" transform="translate(-1806.644 -505.265)" fill="#fff"/>
    </g>
    <g id="Grupo_33142" data-name="Grupo 33142" transform="translate(1788.797 624.887)">
      <rect id="Rectángulo_26699" data-name="Rectángulo 26699" width="99.403" height="26.047" fill="#a9bdd2"/>
      <path id="Trazado_81590" data-name="Trazado 81590" d="M1907.919,743.494h-78.141a5.065,5.065,0,0,1-5.05-5.05h0a5.065,5.065,0,0,1,5.05-5.05h78.141a5.064,5.064,0,0,1,5.049,5.05h0A5.064,5.064,0,0,1,1907.919,743.494Z" transform="translate(-1819.767 -724.712)" fill="#242638"/>
      <circle id="Elipse_3421" data-name="Elipse 3421" cx="3.367" cy="3.367" r="3.367" transform="translate(82.881 10.454)" fill="#21587b"/>
      <circle id="Elipse_3422" data-name="Elipse 3422" cx="3.367" cy="3.367" r="3.367" transform="translate(74.242 10.454)" fill="#21587b"/>
      <path id="Trazado_81591" data-name="Trazado 81591" d="M1906.438,738.961a3.367,3.367,0,1,0-3.367,3.367A3.367,3.367,0,0,0,1906.438,738.961Z" transform="translate(-1834.365 -725.14)" fill="#21587b"/>
      <path id="Trazado_81592" data-name="Trazado 81592" d="M1895.711,738.961a3.367,3.367,0,1,0-3.367,3.367A3.366,3.366,0,0,0,1895.711,738.961Z" transform="translate(-1832.277 -725.14)" fill="#21587b"/>
      <circle id="Elipse_3423" data-name="Elipse 3423" cx="3.367" cy="3.367" r="3.367" transform="translate(47.93 10.454)" fill="#21587b"/>
      <circle id="Elipse_3424" data-name="Elipse 3424" cx="3.367" cy="3.367" r="3.367" transform="translate(39.292 10.454)" fill="#21587b"/>
    </g>
    <g id="Grupo_33143" data-name="Grupo 33143" transform="translate(1788.936 597.6)">
      <rect id="Rectángulo_26700" data-name="Rectángulo 26700" width="99.403" height="26.047" fill="#a9bdd2"/>
      <path id="Trazado_81593" data-name="Trazado 81593" d="M1908.09,709.609h-78.14a5.065,5.065,0,0,1-5.05-5.05h0a5.065,5.065,0,0,1,5.05-5.05h78.14a5.065,5.065,0,0,1,5.05,5.05h0A5.064,5.064,0,0,1,1908.09,709.609Z" transform="translate(-1819.938 -690.827)" fill="#242638"/>
      <path id="Trazado_81594" data-name="Trazado 81594" d="M1928.393,705.076a3.367,3.367,0,1,0-3.367,3.367A3.367,3.367,0,0,0,1928.393,705.076Z" transform="translate(-1838.779 -691.255)" fill="#ffa726"/>
      <circle id="Elipse_3425" data-name="Elipse 3425" cx="3.367" cy="3.367" r="3.367" transform="translate(74.242 10.454)" fill="#ffa726"/>
      <path id="Trazado_81595" data-name="Trazado 81595" d="M1906.609,705.076a3.367,3.367,0,1,0-3.366,3.367A3.366,3.366,0,0,0,1906.609,705.076Z" transform="translate(-1834.537 -691.255)" fill="#ffa726"/>
      <path id="Trazado_81596" data-name="Trazado 81596" d="M1895.883,705.076a3.367,3.367,0,1,0-3.367,3.367A3.367,3.367,0,0,0,1895.883,705.076Z" transform="translate(-1832.449 -691.255)" fill="#ffa726"/>
      <circle id="Elipse_3426" data-name="Elipse 3426" cx="3.367" cy="3.367" r="3.367" transform="translate(47.93 10.454)" fill="#ffa726"/>
      <circle id="Elipse_3427" data-name="Elipse 3427" cx="3.367" cy="3.367" r="3.367" transform="translate(39.292 10.454)" fill="#ffa726"/>
    </g>
    <line id="Línea_271" data-name="Línea 271" x2="99.403" transform="translate(1788.797 624.71)" fill="none" stroke="#242638" stroke-miterlimit="10" stroke-width="2.64"/>
  </g>
</svg>
