<svg id="Grupo_145652" data-name="Grupo 145652" xmlns="http://www.w3.org/2000/svg" width="62.734" height="69.641" viewBox="0 0 62.734 69.641">
  <path id="Trazado_113152" data-name="Trazado 113152" d="M0,0H62.734V69.641l-30.95-9.571L0,69.641Z" fill="#ffa726"/>
  <path id="Icon_awesome-quote-right" data-name="Icon awesome-quote-right" d="M35.269,0H25.54a3.65,3.65,0,0,0-3.649,3.649v9.73a3.65,3.65,0,0,0,3.649,3.649h6.081v4.865a4.869,4.869,0,0,1-4.865,4.865h-.608a1.82,1.82,0,0,0-1.824,1.824v3.649a1.82,1.82,0,0,0,1.824,1.824h.608A12.159,12.159,0,0,0,38.918,21.891V3.649A3.65,3.65,0,0,0,35.269,0ZM13.378,0H3.649A3.65,3.65,0,0,0,0,3.649v9.73a3.65,3.65,0,0,0,3.649,3.649H9.73v4.865a4.869,4.869,0,0,1-4.865,4.865H4.257A1.82,1.82,0,0,0,2.432,28.58v3.649a1.82,1.82,0,0,0,1.824,1.824h.608A12.159,12.159,0,0,0,17.027,21.891V3.649A3.65,3.65,0,0,0,13.378,0Z" transform="translate(51.116 52.061) rotate(180)" fill="#fff"/>
</svg>
