<svg id="Grupo_145749" data-name="Grupo 145749" xmlns="http://www.w3.org/2000/svg" xmlns:xlink="http://www.w3.org/1999/xlink" width="87.339" height="87.34" viewBox="0 0 87.339 87.34">
  <defs>
    <radialGradient id="radial-gradient" cx="0.076" cy="0.019" r="1.465" gradientTransform="translate(0.001)" gradientUnits="objectBoundingBox">
      <stop offset="0" stop-color="#f6f6f7"/>
      <stop offset="0.477" stop-color="#f9f9fa"/>
      <stop offset="0.715" stop-color="#fff"/>
    </radialGradient>
  </defs>
  <g id="Grupo_18423" data-name="Grupo 18423" transform="translate(0 0)">
    <g id="Grupo_18421" data-name="Grupo 18421">
      <g id="Grupo_18420" data-name="Grupo 18420">
        <g id="Grupo_18419" data-name="Grupo 18419">
          <path id="Trazado_40936" data-name="Trazado 40936" d="M281.962,2189.389a43.669,43.669,0,1,1-43.669-43.668A43.669,43.669,0,0,1,281.962,2189.389Z" transform="translate(-194.623 -2145.721)" fill="#fff"/>
        </g>
      </g>
    </g>
    <path id="Trazado_40937" data-name="Trazado 40937" d="M281.7,2189.1a43.669,43.669,0,1,0-43.669,43.67A43.5,43.5,0,0,0,281.7,2189.1Z" transform="translate(-194.361 -2145.436)" fill="url(#radial-gradient)"/>
    <path id="Trazado_40938" data-name="Trazado 40938" d="M269.1,2186.859a33.332,33.332,0,1,0-33.333,33.333A33.209,33.209,0,0,0,269.1,2186.859Z" transform="translate(-191.968 -2143.046)" fill="none" stroke="#1565c0" stroke-miterlimit="10" stroke-width="4"/>
    <g id="Grupo_18422" data-name="Grupo 18422" transform="translate(7.736 24.517)">
      <path id="Trazado_40939" data-name="Trazado 40939" d="M275.732,2164.488a43.675,43.675,0,0,1-75.187,43.488,43.536,43.536,0,0,0,75.187-43.488Z" transform="translate(-200.545 -2164.488)" fill="#eceef0"/>
    </g>
  </g>
  <g id="Grupo_42276" data-name="Grupo 42276" transform="translate(-321.255 2.493)">
    <path id="Trazado_40970" data-name="Trazado 40970" d="M349.216,33.759a3.55,3.55,0,1,1,3.55-3.55A3.554,3.554,0,0,1,349.216,33.759Zm0-5.716a2.165,2.165,0,1,0,2.164,2.165A2.168,2.168,0,0,0,349.216,28.043Z" transform="translate(-0.634 -0.38)" fill="#00223d"/>
    <path id="Trazado_40971" data-name="Trazado 40971" d="M345.2,49.375a.692.692,0,0,1-.693-.693V41.358a.693.693,0,0,1,1.385,0v7.325A.692.692,0,0,1,345.2,49.375Z" transform="translate(-0.464 -2.441)" fill="#00223d"/>
    <path id="Trazado_40972" data-name="Trazado 40972" d="M352.425,64.843h-2.891a.692.692,0,0,1-.693-.693V52.294a.258.258,0,0,0-.092-.2.262.262,0,0,0-.217-.058.3.3,0,0,0-.211.307V64.15a.693.693,0,0,1-.693.693h-2.892a.692.692,0,0,1-.693-.693V49.9a2.037,2.037,0,0,1-2.688-1.979V40.56a4.645,4.645,0,0,1,4.117-4.616,26.807,26.807,0,0,1,3.115-.1.693.693,0,0,1-.007,1.386,25.15,25.15,0,0,0-2.951.094,3.259,3.259,0,0,0-2.889,3.239v7.363a.685.685,0,0,0,.515.687.653.653,0,0,0,.787-.638.693.693,0,1,1,1.385,0V63.458h1.507V52.344a1.686,1.686,0,0,1,1.374-1.674,1.647,1.647,0,0,1,1.916,1.624V63.458h1.506V47.972a.693.693,0,1,1,1.385,0V64.15A.692.692,0,0,1,352.425,64.843Z" transform="translate(0 -1.731)" fill="#00223d"/>
    <path id="Trazado_40973" data-name="Trazado 40973" d="M349.484,47.874a.694.694,0,0,1-.617-.378l-1.3-2.546a.693.693,0,0,1-.072-.39l.41-3.8a.693.693,0,1,1,1.377.148l-.388,3.6.588,1.153.588-1.153-.385-3.572a.693.693,0,0,1,1.377-.148l.407,3.776a.694.694,0,0,1-.072.39L350.1,47.5A.691.691,0,0,1,349.484,47.874Z" transform="translate(-0.903 -2.363)" fill="#00223d"/>
    <path id="Trazado_40974" data-name="Trazado 40974" d="M352.889,51.622H345.2a.693.693,0,1,1,0-1.385h7.688a.693.693,0,1,1,0,1.385Z" transform="translate(-0.464 -3.849)" fill="#00223d"/>
    <path id="Trazado_40975" data-name="Trazado 40975" d="M353.552,48.666a.692.692,0,0,1-.693-.693V39.456a.693.693,0,0,1,.693-.693h7.829a.768.768,0,1,0,0-1.536H349.709a.693.693,0,0,1,0-1.386h11.673a2.153,2.153,0,1,1,0,4.307h-7.137v7.824A.692.692,0,0,1,353.552,48.666Z" transform="translate(-1.127 -1.731)" fill="#00223d"/>
    <path id="Trazado_40976" data-name="Trazado 40976" d="M390.949,48.031H362.16a.692.692,0,0,1-.693-.693V37.725a.692.692,0,0,1,.693-.693h1.054a.768.768,0,1,0,0-1.536H362.16a.693.693,0,0,1-.693-.693V24.77a.693.693,0,0,1,.693-.693h28.79a.693.693,0,0,1,.693.693V47.339A.693.693,0,0,1,390.949,48.031Zm-28.1-1.385h27.4V25.463h-27.4v8.648h.362a2.153,2.153,0,0,1,0,4.307h-.362Z" transform="translate(-2.959)" fill="#00223d"/>
    <path id="Trazado_40977" data-name="Trazado 40977" d="M383.074,35.549a.683.683,0,0,1-.264-.053.693.693,0,0,1-.428-.64V27.428a.693.693,0,0,1,.693-.693,8.066,8.066,0,0,1,5.742,2.379.693.693,0,0,1,0,.98l-5.253,5.253A.69.69,0,0,1,383.074,35.549Zm.693-7.394v5.029l3.555-3.556A6.677,6.677,0,0,0,383.768,28.155Z" transform="translate(-6.037 -0.391)" fill="#00223d"/>
    <path id="Trazado_40978" data-name="Trazado 40978" d="M379.39,44.84a8.122,8.122,0,1,1,0-16.243.693.693,0,0,1,.693.693v7.143l5.05,5.051a.692.692,0,0,1,0,.979A8.065,8.065,0,0,1,379.39,44.84ZM378.7,30.018a6.737,6.737,0,1,0,4.941,11.93L378.9,37.209a.691.691,0,0,1-.2-.49Z" transform="translate(-4.401 -0.665)" fill="#00223d"/>
    <path id="Trazado_40979" data-name="Trazado 40979" d="M389.8,43.04a.692.692,0,0,1-.49-.2l-5.253-5.253a.693.693,0,0,1,0-.98l5.253-5.253a.693.693,0,0,1,.911-.061,7.378,7.378,0,0,1,2.448,5.8,8.07,8.07,0,0,1-2.379,5.742A.69.69,0,0,1,389.8,43.04ZM385.527,37.1l4.25,4.249a6.691,6.691,0,0,0,1.508-4.249,6.407,6.407,0,0,0-1.478-4.28Z" transform="translate(-6.254 -1.041)" fill="#00223d"/>
    <path id="Trazado_40980" data-name="Trazado 40980" d="M391.238,54.346H361.246a1.9,1.9,0,1,1,0-3.806h29.992a1.9,1.9,0,0,1,0,3.806Zm-29.992-2.421a.518.518,0,0,0,0,1.036h29.992a.518.518,0,0,0,0-1.036Z" transform="translate(-2.647 -3.894)" fill="#00223d"/>
  </g>
</svg>
