<svg xmlns="http://www.w3.org/2000/svg" xmlns:xlink="http://www.w3.org/1999/xlink" width="444" height="263" viewBox="0 0 444 263">
  <defs>
    <linearGradient id="linear-gradient" x1="0.5" x2="0.5" y2="1" gradientUnits="objectBoundingBox">
      <stop offset="0" stop-color="#4dd0e1"/>
      <stop offset="1" stop-color="#039be5"/>
    </linearGradient>
    <filter id="Rectángulo_34285" x="0" y="0" width="444" height="263" filterUnits="userSpaceOnUse">
      <feOffset dy="3" input="SourceAlpha"/>
      <feGaussianBlur stdDeviation="8" result="blur"/>
      <feFlood flood-opacity="0.161"/>
      <feComposite operator="in" in2="blur"/>
      <feComposite in="SourceGraphic"/>
    </filter>
    <radialGradient id="radial-gradient" cx="0.076" cy="0.019" r="1.465" gradientTransform="translate(0.001)" gradientUnits="objectBoundingBox">
      <stop offset="0" stop-color="#f6f6f7"/>
      <stop offset="0.477" stop-color="#f9f9fa"/>
      <stop offset="0.715" stop-color="#fff"/>
    </radialGradient>
  </defs>
  <g id="Grupo_146112" data-name="Grupo 146112" transform="translate(-578 -21881)">
    <g id="Grupo_111594" data-name="Grupo 111594" transform="translate(387.918 17092.473)">
      <rect id="Rectángulo_34284" data-name="Rectángulo 34284" width="396" height="6" transform="translate(214.082 5024.528)" fill="url(#linear-gradient)"/>
      <g transform="matrix(1, 0, 0, 1, 190.08, 4788.53)" filter="url(#Rectángulo_34285)">
        <path id="Rectángulo_34285-2" data-name="Rectángulo 34285" d="M10,0H386a10,10,0,0,1,10,10V215a0,0,0,0,1,0,0H0a0,0,0,0,1,0,0V10A10,10,0,0,1,10,0Z" transform="translate(24 21)" fill="#fff"/>
      </g>
      <g id="Grupo_20710" data-name="Grupo 20710" transform="translate(254.945 4965.693)">
        <g id="Grupo_20708" data-name="Grupo 20708">
          <path id="Trazado_189600" data-name="Trazado 189600" d="M67.1,12.474h-1.67V17H62.346V4.2h5.036a5.621,5.621,0,0,1,3.56,1.01,3.421,3.421,0,0,1,1.283,2.853,4.155,4.155,0,0,1-.541,2.213A3.837,3.837,0,0,1,69.992,11.7l2.672,5.167V17h-3.3ZM65.431,10.1h1.951A1.751,1.751,0,0,0,68.7,9.638a1.788,1.788,0,0,0,.444-1.291,1.809,1.809,0,0,0-.448-1.3,1.735,1.735,0,0,0-1.318-.471H65.431Zm13.122,7.075a4.889,4.889,0,0,1-3.542-1.305,4.507,4.507,0,0,1-1.354-3.4v-.246A5.84,5.84,0,0,1,74.2,9.652a3.955,3.955,0,0,1,1.578-1.727,4.763,4.763,0,0,1,2.461-.611A4.117,4.117,0,0,1,81.4,8.558a4.887,4.887,0,0,1,1.16,3.467v1.151H76.672a2.135,2.135,0,0,0,.694,1.257,2.066,2.066,0,0,0,1.389.457,2.662,2.662,0,0,0,2.2-.984l1.354,1.6a3.784,3.784,0,0,1-1.569,1.217A5.3,5.3,0,0,1,78.553,17.176ZM78.219,9.6q-1.3,0-1.547,1.723H79.66v-.229a1.467,1.467,0,0,0-.36-1.1A1.434,1.434,0,0,0,78.219,9.6ZM86.876,17H83.905V3.5h2.971Zm7.181,0a3.344,3.344,0,0,1-.281-.853,2.754,2.754,0,0,1-2.285,1.028,3.374,3.374,0,0,1-2.285-.813,2.588,2.588,0,0,1-.94-2.043,2.66,2.66,0,0,1,1.143-2.338,5.821,5.821,0,0,1,3.322-.791h.914v-.5q0-1.316-1.134-1.316a.927.927,0,0,0-1.055,1.042H88.493a2.655,2.655,0,0,1,1.173-2.239,4.931,4.931,0,0,1,2.993-.86,4.323,4.323,0,0,1,2.874.888,3.086,3.086,0,0,1,1.081,2.435v4.21a4.311,4.311,0,0,0,.4,2V17ZM92.2,15.066a1.652,1.652,0,0,0,.918-.237,1.487,1.487,0,0,0,.523-.536V12.772h-.861q-1.547,0-1.547,1.389a.848.848,0,0,0,.272.655A.986.986,0,0,0,92.2,15.066Zm10.072-.176a1.317,1.317,0,0,0,.967-.338,1.241,1.241,0,0,0,.334-.945h2.777a3.288,3.288,0,0,1-1.121,2.566,4.168,4.168,0,0,1-2.887,1,4.22,4.22,0,0,1-3.27-1.3,5.125,5.125,0,0,1-1.2-3.6v-.123A5.792,5.792,0,0,1,98.412,9.6a3.872,3.872,0,0,1,1.534-1.7,4.573,4.573,0,0,1,2.373-.593,4.116,4.116,0,0,1,2.944,1.028,3.647,3.647,0,0,1,1.09,2.786h-2.777a1.626,1.626,0,0,0-.36-1.134,1.244,1.244,0,0,0-.967-.4q-1.151,0-1.345,1.468a10.357,10.357,0,0,0-.062,1.283,4.068,4.068,0,0,0,.343,1.986A1.187,1.187,0,0,0,102.274,14.891ZM110.729,17h-2.971V7.49h2.971ZM107.583,5.029a1.334,1.334,0,0,1,.457-1.043,1.934,1.934,0,0,1,2.373,0,1.334,1.334,0,0,1,.457,1.043,1.334,1.334,0,0,1-.457,1.043,1.934,1.934,0,0,1-2.373,0A1.334,1.334,0,0,1,107.583,5.029Zm4.6,7.128a5.613,5.613,0,0,1,.554-2.536,3.96,3.96,0,0,1,1.591-1.709,4.791,4.791,0,0,1,2.435-.6,4.373,4.373,0,0,1,3.366,1.323,5.076,5.076,0,0,1,1.23,3.6v.105a4.925,4.925,0,0,1-1.235,3.529,4.384,4.384,0,0,1-3.344,1.305,4.434,4.434,0,0,1-3.261-1.217,4.761,4.761,0,0,1-1.327-3.3Zm2.962.185a3.538,3.538,0,0,0,.413,1.934,1.376,1.376,0,0,0,1.222.615q1.582,0,1.617-2.435v-.3q0-2.558-1.635-2.558-1.485,0-1.608,2.206ZM125.381,7.49l.1,1.116a3.225,3.225,0,0,1,2.716-1.292,2.713,2.713,0,0,1,2.219.888,4.226,4.226,0,0,1,.76,2.672V17H128.2V11a1.6,1.6,0,0,0-.29-1.059,1.342,1.342,0,0,0-1.055-.338,1.413,1.413,0,0,0-1.292.686V17H122.6V7.49Zm12.032,9.686a4.889,4.889,0,0,1-3.542-1.305,4.507,4.507,0,0,1-1.354-3.4v-.246a5.84,5.84,0,0,1,.541-2.575,3.955,3.955,0,0,1,1.578-1.727,4.763,4.763,0,0,1,2.461-.611,4.117,4.117,0,0,1,3.164,1.244,4.887,4.887,0,0,1,1.16,3.467v1.151h-5.889a2.135,2.135,0,0,0,.694,1.257,2.066,2.066,0,0,0,1.389.457,2.662,2.662,0,0,0,2.2-.984l1.354,1.6a3.784,3.784,0,0,1-1.569,1.217A5.3,5.3,0,0,1,137.413,17.176ZM137.079,9.6q-1.3,0-1.547,1.723h2.988v-.229a1.467,1.467,0,0,0-.36-1.1A1.434,1.434,0,0,0,137.079,9.6Zm10.512,4.729a.684.684,0,0,0-.4-.606,6.016,6.016,0,0,0-1.5-.475,6.853,6.853,0,0,1-1.828-.646,3.062,3.062,0,0,1-1.1-.971,2.319,2.319,0,0,1-.378-1.31,2.628,2.628,0,0,1,1.081-2.158,4.453,4.453,0,0,1,2.83-.848,4.934,4.934,0,0,1,3.023.853,2.666,2.666,0,0,1,1.143,2.241h-2.971q0-1.143-1.2-1.143a1.194,1.194,0,0,0-.782.259.8.8,0,0,0-.316.646.737.737,0,0,0,.387.642,3.654,3.654,0,0,0,1.235.4,10.671,10.671,0,0,1,1.49.378,2.706,2.706,0,0,1,2.145,2.646,2.491,2.491,0,0,1-1.156,2.118,5.068,5.068,0,0,1-2.993.817,5.172,5.172,0,0,1-2.18-.439,3.645,3.645,0,0,1-1.494-1.2,2.707,2.707,0,0,1-.536-1.591h2.769a1.145,1.145,0,0,0,.439.962,1.808,1.808,0,0,0,1.081.3,1.422,1.422,0,0,0,.91-.246A.787.787,0,0,0,147.591,14.328Zm19.7-3.463a7.546,7.546,0,0,1-.694,3.313A5.132,5.132,0,0,1,164.62,16.4a5.494,5.494,0,0,1-2.914.778,5.572,5.572,0,0,1-2.9-.751,5.123,5.123,0,0,1-1.973-2.149,7.329,7.329,0,0,1-.743-3.208v-.721a7.58,7.58,0,0,1,.69-3.318,5.119,5.119,0,0,1,1.978-2.219,5.854,5.854,0,0,1,5.832-.009A5.211,5.211,0,0,1,166.571,7a7.362,7.362,0,0,1,.716,3.274Zm-3.138-.536a5.381,5.381,0,0,0-.637-2.9,2.044,2.044,0,0,0-1.824-.989q-2.32,0-2.452,3.48l-.009.94a5.535,5.535,0,0,0,.624,2.892,2.041,2.041,0,0,0,1.854,1.011,2.016,2.016,0,0,0,1.8-.993,5.383,5.383,0,0,0,.642-2.856Zm7.313-2.839.1,1.116a3.225,3.225,0,0,1,2.716-1.292,2.713,2.713,0,0,1,2.219.888,4.226,4.226,0,0,1,.76,2.672V17h-2.971V11a1.6,1.6,0,0,0-.29-1.059,1.342,1.342,0,0,0-1.055-.338,1.413,1.413,0,0,0-1.292.686V17h-2.962V7.49Zm12.032,9.686a4.889,4.889,0,0,1-3.542-1.305,4.507,4.507,0,0,1-1.354-3.4v-.246a5.84,5.84,0,0,1,.541-2.575,3.955,3.955,0,0,1,1.578-1.727,4.763,4.763,0,0,1,2.461-.611,4.117,4.117,0,0,1,3.164,1.244,4.887,4.887,0,0,1,1.16,3.467v1.151h-5.889a2.135,2.135,0,0,0,.694,1.257,2.066,2.066,0,0,0,1.389.457,2.662,2.662,0,0,0,2.2-.984l1.354,1.6a3.784,3.784,0,0,1-1.569,1.217A5.3,5.3,0,0,1,183.494,17.176ZM183.16,9.6q-1.3,0-1.547,1.723H184.6v-.229a1.467,1.467,0,0,0-.36-1.1A1.434,1.434,0,0,0,183.16,9.6Zm15.715-3.015h-3.841V17h-3.085V6.585h-3.771V4.2h10.7Zm-1.037,5.572a5.613,5.613,0,0,1,.554-2.536,3.96,3.96,0,0,1,1.591-1.709,4.791,4.791,0,0,1,2.435-.6,4.373,4.373,0,0,1,3.366,1.323,5.076,5.076,0,0,1,1.23,3.6v.105a4.925,4.925,0,0,1-1.235,3.529,4.384,4.384,0,0,1-3.344,1.305,4.434,4.434,0,0,1-3.261-1.217,4.761,4.761,0,0,1-1.327-3.3Zm2.962.185a3.538,3.538,0,0,0,.413,1.934,1.376,1.376,0,0,0,1.222.615q1.582,0,1.617-2.435v-.3q0-2.558-1.635-2.558-1.485,0-1.608,2.206ZM212.507,4.2l2.856,8.9,2.848-8.9h4.061V17h-3.094V14.012l.3-6.117L216.383,17h-2.039l-3.1-9.114.3,6.126V17h-3.085V4.2ZM229.452,17a3.344,3.344,0,0,1-.281-.853,2.754,2.754,0,0,1-2.285,1.028,3.374,3.374,0,0,1-2.285-.813,2.588,2.588,0,0,1-.94-2.043,2.66,2.66,0,0,1,1.143-2.338,5.821,5.821,0,0,1,3.322-.791h.914v-.5q0-1.316-1.134-1.316a.927.927,0,0,0-1.055,1.042h-2.962a2.655,2.655,0,0,1,1.173-2.239,4.931,4.931,0,0,1,2.993-.86,4.323,4.323,0,0,1,2.874.888,3.086,3.086,0,0,1,1.081,2.435v4.21a4.311,4.311,0,0,0,.4,2V17ZM227.6,15.066a1.652,1.652,0,0,0,.918-.237,1.487,1.487,0,0,0,.523-.536V12.772h-.861q-1.547,0-1.547,1.389a.848.848,0,0,0,.272.655A.986.986,0,0,0,227.6,15.066Zm8.771-7.576.1,1.116a3.225,3.225,0,0,1,2.716-1.292A2.713,2.713,0,0,1,241.4,8.2a4.226,4.226,0,0,1,.76,2.672V17H239.19V11a1.6,1.6,0,0,0-.29-1.059,1.342,1.342,0,0,0-1.055-.338,1.413,1.413,0,0,0-1.292.686V17h-2.962V7.49ZM247.6,12.852l1.582-5.361h3.173l-3.876,11.1-.167.4a2.944,2.944,0,0,1-2.918,1.846,4.642,4.642,0,0,1-1.222-.175v-2.11h.387a2.026,2.026,0,0,0,.954-.18,1.094,1.094,0,0,0,.488-.647l.237-.633-3.3-9.605H246.1Z" transform="translate(0 -3)" fill="#12263f"/>
        </g>
      </g>
    </g>
    <g id="Grupo_111595" data-name="Grupo 111595" transform="translate(742.903 21918)">
      <g id="Grupo_18423" data-name="Grupo 18423" transform="translate(0 0)">
        <g id="Grupo_18421" data-name="Grupo 18421">
          <g id="Grupo_18420" data-name="Grupo 18420">
            <g id="Grupo_18419" data-name="Grupo 18419">
              <path id="Trazado_40936" data-name="Trazado 40936" d="M309.259,2203.037a57.318,57.318,0,1,1-57.317-57.316A57.317,57.317,0,0,1,309.259,2203.037Z" transform="translate(-194.623 -2145.721)" fill="#fff"/>
            </g>
          </g>
        </g>
        <path id="Trazado_40937" data-name="Trazado 40937" d="M308.648,2202.372a57.316,57.316,0,1,0-57.317,57.319A57.091,57.091,0,0,0,308.648,2202.372Z" transform="translate(-194.013 -2145.056)" fill="url(#radial-gradient)"/>
        <path id="Trazado_40938" data-name="Trazado 40938" d="M289.672,2196.986a43.75,43.75,0,1,0-43.75,43.75A43.587,43.587,0,0,0,289.672,2196.986Z" transform="translate(-188.43 -2139.479)" fill="none" stroke="#00223d" stroke-miterlimit="10" stroke-width="4"/>
        <g id="Grupo_18422" data-name="Grupo 18422" transform="translate(10.154 32.18)">
          <path id="Trazado_40939" data-name="Trazado 40939" d="M299.231,2164.488a57.325,57.325,0,0,1-98.686,57.081,57.143,57.143,0,0,0,98.686-57.081Z" transform="translate(-200.545 -2164.488)" fill="#eceef0"/>
        </g>
      </g>
      <g id="_83oj6T" data-name="83oj6T" transform="translate(-2839.68 2146.729)">
        <g id="Grupo_143141" data-name="Grupo 143141" transform="translate(2875.463 -2112.042)">
          <path id="Trazado_184357" data-name="Trazado 184357" d="M2875.463-2070.551c1.261-3.108,2.384-3.857,5.788-3.857,2.2,0,4.409,0,6.613,0,.684,0,1.324.1,1.323.961,0,.842-.622,1-1.31,1-2.484,0-4.969-.005-7.453,0a2.775,2.775,0,0,0-3.02,3q-.022,14.644,0,29.288a2.957,2.957,0,0,0,3.065,3.162c8.993.026,17.985.011,26.978.008a4.846,4.846,0,0,0,.547-.079v-1.12c0-2.274-.018-4.549.005-6.823a4.8,4.8,0,0,1,4.738-4.763c.944-.016,1.89.015,2.834-.009.7-.018,1.232.235,1.211.969-.02.711-.555.979-1.248.966q-1.312-.025-2.625,0a2.9,2.9,0,0,0-2.985,2.985c-.023,2.061-.005,4.122-.005,6.331a7.035,7.035,0,0,0,.627-.486c3.22-3.213,6.448-6.418,9.632-9.666a2.284,2.284,0,0,0,.584-1.448c.039-6.3.014-12.6.05-18.9a1.64,1.64,0,0,1,.568-1.277c.315-.15.884.236,1.342.387v21.426l-13.444,13.443h-29.618a5.34,5.34,0,0,1-4.2-4.2Z" transform="translate(-2875.463 2082.314)" fill="#12263f"/>
          <path id="Trazado_184358" data-name="Trazado 184358" d="M2964.692-2112.042a2.443,2.443,0,0,1,1.481,2.609c-.061,1.639,0,3.282-.019,4.923a2.063,2.063,0,0,1-2.318,2.329q-5.552.024-11.1,0a2.064,2.064,0,0,1-2.317-2.331c-.014-1.641.044-3.284-.019-4.923a2.437,2.437,0,0,1,1.482-2.607Zm-12.3,7.838h11.755v-5.84h-11.755Z" transform="translate(-2934.653 2112.042)" fill="#12263f"/>
          <path id="Trazado_184359" data-name="Trazado 184359" d="M2958.321-2045.935c-1.853,0-3.705.009-5.558,0-1.578-.01-2.291-.73-2.3-2.321-.012-1.748-.015-3.5,0-5.243a2,2,0,0,1,2.268-2.25q5.61-.021,11.221,0a2,2,0,0,1,2.248,2.271c.015,1.782.019,3.565,0,5.348a1.976,1.976,0,0,1-2.215,2.194C2962.1-2045.922,2960.208-2045.935,2958.321-2045.935Zm5.9-1.988v-5.819h-11.786v5.819Z" transform="translate(-2934.699 2067.585)" fill="#12263f"/>
          <path id="Trazado_184360" data-name="Trazado 184360" d="M2958.257-1989.571c-1.887,0-3.774.014-5.661,0a1.926,1.926,0,0,1-2.142-2.141q-.034-2.725,0-5.451a1.906,1.906,0,0,1,2.112-2.16q5.766-.023,11.531,0a1.889,1.889,0,0,1,2.089,2.076q.04,2.777,0,5.555a1.931,1.931,0,0,1-2.164,2.12C2962.1-1989.559,2960.178-1989.571,2958.257-1989.571Zm-5.82-7.783v5.771h11.747v-5.771Z" transform="translate(-2934.689 2023.013)" fill="#12263f"/>
          <path id="Trazado_184361" data-name="Trazado 184361" d="M3038.252-2079.113a11.189,11.189,0,0,1,1.169.827c.481.436.62,1.061.058,1.429a1.451,1.451,0,0,1-1.361-.068,37.246,37.246,0,0,1-2.837-2.793.973.973,0,0,1,.029-1.489c.934-.945,1.835-1.931,2.846-2.786.281-.237.9-.074,1.365-.095a3.491,3.491,0,0,1-.05,1.388c-.2.4-.705.647-1.077.96l.131.293c1.162,0,2.329.063,3.481-.043a1.229,1.229,0,0,0,.776-.9c.064-2.621.047-5.245.033-7.867,0-.814-.53-1.051-1.264-1.045-1.783.013-3.567,0-5.35.007-.739,0-1.322-.262-1.179-1.062a1.324,1.324,0,0,1,.967-.819q3.091-.111,6.188-.013a2.643,2.643,0,0,1,2.541,2.593q.074,4.247,0,8.5a2.668,2.668,0,0,1-2.656,2.584c-1.152.037-2.306.028-3.459.043-.02,0-.038.052-.057.08Z" transform="translate(-3001.447 2097.188)" fill="#12263f"/>
          <path id="Trazado_184362" data-name="Trazado 184362" d="M2900.563-2023.293c-1,0-2,.006-3,0-2.175-.014-3.231-1.052-3.239-3.2q-.014-3.724,0-7.448a2.84,2.84,0,0,1,3.055-3.091c1.783-.02,3.567,0,5.35-.008.689,0,1.333.116,1.35.949.019.923-.669.988-1.395.979-1.678-.019-3.357.012-5.035-.013-.946-.014-1.43.336-1.418,1.348q.043,3.619,0,7.238c-.011.937.375,1.348,1.313,1.317.976-.031,1.953-.007,3.2-.007-.472-.491-.8-.82-1.113-1.158-.439-.469-.616-1.071-.057-1.445a1.448,1.448,0,0,1,1.362.053,36.879,36.879,0,0,1,2.843,2.788,1.029,1.029,0,0,1-.071,1.577c-.882.9-1.769,1.791-2.667,2.672-.485.475-1.056.636-1.561.083a.948.948,0,0,1,.2-1.469c.341-.3.732-.534,1.1-.8Z" transform="translate(-2890.359 2052.795)" fill="#12263f"/>
          <path id="Trazado_184363" data-name="Trazado 184363" d="M2906.876-1938.508c1.85,0,3.7-.015,5.552,0,1.621.017,2.249.677,2.262,2.309.026,3.321-.2,3.546-3.549,3.546-3.213,0-6.425.005-9.637,0-1.875,0-2.483-.629-2.5-2.525,0-.314,0-.628,0-.943.023-1.738.659-2.375,2.42-2.387C2903.244-1938.517,2905.06-1938.508,2906.876-1938.508Zm-5.853,3.82H2912.7v-1.817h-11.679Z" transform="translate(-2894.06 1974.964)" fill="#12263f"/>
          <path id="Trazado_184364" data-name="Trazado 184364" d="M2986.818-1936.545c-.733,0-1.467.007-2.2,0-.628-.008-1.127-.248-1.151-.943s.453-.979,1.093-.984q2.305-.018,4.611,0c.644,0,1.1.267,1.086.982s-.5.944-1.132.948C2988.355-1936.54,2987.586-1936.545,2986.818-1936.545Z" transform="translate(-2960.779 1974.94)" fill="#12263f"/>
          <path id="Trazado_184365" data-name="Trazado 184365" d="M2985.069-1917.988c-.813,0-1.555-.027-1.56-.95,0-.887.692-1.007,1.412-1.016s1.421.117,1.444.987C2986.389-1918.051,2985.663-1917.973,2985.069-1917.988Z" transform="translate(-2960.813 1960.303)" fill="#12263f"/>
          <path id="Trazado_184366" data-name="Trazado 184366" d="M3003.715-1917.971c-.7,0-1.407-.07-1.368-1.009.038-.915.753-.953,1.445-.955.717,0,1.4.121,1.371,1.029C3005.137-1917.967,3004.4-1917.978,3003.715-1917.971Z" transform="translate(-2975.693 1960.288)" fill="#12263f"/>
        </g>
      </g>
    </g>
  </g>
</svg>
