<svg xmlns="http://www.w3.org/2000/svg" xmlns:xlink="http://www.w3.org/1999/xlink" width="313" height="341" viewBox="0 0 313 341">
  <defs>
    <filter id="Rect치ngulo_42651" x="0" y="0" width="313" height="341" filterUnits="userSpaceOnUse">
      <feOffset dy="3" input="SourceAlpha"/>
      <feGaussianBlur stdDeviation="3" result="blur"/>
      <feFlood flood-opacity="0.161"/>
      <feComposite operator="in" in2="blur"/>
      <feComposite in="SourceGraphic"/>
    </filter>
  </defs>
  <g id="Grupo_146122" data-name="Grupo 146122" transform="translate(-320 -2302)">
    <g transform="matrix(1, 0, 0, 1, 320, 2302)" filter="url(#Rect치ngulo_42651)">
      <rect id="Rect치ngulo_42651-2" data-name="Rect치ngulo 42651" width="295" height="323" rx="35" transform="translate(9 6)" fill="#fff"/>
    </g>
    <circle id="Elipse_5150" data-name="Elipse 5150" cx="56" cy="56" r="56" transform="translate(418 2392)" fill="#039be5"/>
    <path id="Trazado_189645" data-name="Trazado 189645" d="M57.7,4.781l3.652,10.313L64.981,4.781h3.848V19H65.89V15.113L66.183,8.4,62.345,19H60.333L56.5,8.414l.293,6.7V19h-2.93V4.781ZM74.181,19H71.349V8.434h2.832Zm-3-13.3a1.39,1.39,0,0,1,.425-1.045,1.831,1.831,0,0,1,2.31,0,1.382,1.382,0,0,1,.43,1.045,1.386,1.386,0,0,1-.435,1.055,1.81,1.81,0,0,1-2.295,0A1.386,1.386,0,0,1,71.183,5.7ZM80.9,16.92a1.851,1.851,0,0,0,1.27-.43,1.506,1.506,0,0,0,.508-1.143h2.646a3.62,3.62,0,0,1-.586,1.968A3.866,3.866,0,0,1,83.16,18.7a4.936,4.936,0,0,1-2.212.493,4.587,4.587,0,0,1-3.574-1.44,5.7,5.7,0,0,1-1.309-3.979V13.59a5.635,5.635,0,0,1,1.3-3.9,4.534,4.534,0,0,1,3.564-1.455,4.444,4.444,0,0,1,3.179,1.128,3.994,3.994,0,0,1,1.216,3H82.677a1.939,1.939,0,0,0-.508-1.34,1.887,1.887,0,0,0-2.778.2,4.166,4.166,0,0,0-.5,2.333v.293a4.219,4.219,0,0,0,.5,2.347A1.721,1.721,0,0,0,80.9,16.92Zm11.973-5.84A7.667,7.667,0,0,0,91.856,11a2.067,2.067,0,0,0-2.1,1.084V19H86.935V8.434H89.6l.078,1.26a2.615,2.615,0,0,1,2.354-1.455,2.957,2.957,0,0,1,.879.127Zm.566,2.539a6.266,6.266,0,0,1,.605-2.8,4.432,4.432,0,0,1,1.743-1.9,5.086,5.086,0,0,1,2.642-.674,4.812,4.812,0,0,1,3.491,1.309,5.252,5.252,0,0,1,1.509,3.555l.02.723a5.523,5.523,0,0,1-1.357,3.9,5.261,5.261,0,0,1-7.29,0,5.62,5.62,0,0,1-1.362-3.984Zm2.822.2a3.95,3.95,0,0,0,.566,2.3,2.035,2.035,0,0,0,3.223.01,4.322,4.322,0,0,0,.576-2.518,3.91,3.91,0,0,0-.576-2.289,1.873,1.873,0,0,0-1.621-.812,1.842,1.842,0,0,0-1.6.807A4.395,4.395,0,0,0,96.261,13.819Zm14.648,2.261a.909.909,0,0,0-.513-.815,5.824,5.824,0,0,0-1.646-.532q-3.77-.791-3.77-3.2a2.9,2.9,0,0,1,1.167-2.349,4.708,4.708,0,0,1,3.052-.942,5.067,5.067,0,0,1,3.218.947,2.985,2.985,0,0,1,1.206,2.461H110.8a1.366,1.366,0,0,0-.391-1,1.653,1.653,0,0,0-1.221-.4,1.689,1.689,0,0,0-1.1.322,1.017,1.017,0,0,0-.391.82.87.87,0,0,0,.444.757,4.571,4.571,0,0,0,1.5.5,12.244,12.244,0,0,1,1.777.474,2.92,2.92,0,0,1,2.236,2.842,2.756,2.756,0,0,1-1.24,2.339,5.35,5.35,0,0,1-3.2.894,5.588,5.588,0,0,1-2.358-.474,3.957,3.957,0,0,1-1.616-1.3,3.018,3.018,0,0,1-.586-1.782h2.676a1.473,1.473,0,0,0,.557,1.152,2.208,2.208,0,0,0,1.387.4,2.044,2.044,0,0,0,1.226-.308A.957.957,0,0,0,110.909,16.08Zm9.424,3.115a5.187,5.187,0,0,1-3.784-1.426,5.068,5.068,0,0,1-1.46-3.8V13.7a6.383,6.383,0,0,1,.615-2.847,4.515,4.515,0,0,1,1.743-1.934,4.893,4.893,0,0,1,2.573-.679,4.385,4.385,0,0,1,3.413,1.367,5.555,5.555,0,0,1,1.245,3.877v1.152H117.95a2.622,2.622,0,0,0,.825,1.66,2.5,2.5,0,0,0,1.743.625,3.046,3.046,0,0,0,2.549-1.182l1.387,1.553a4.237,4.237,0,0,1-1.719,1.4A5.639,5.639,0,0,1,120.333,19.2Zm-.322-8.682a1.764,1.764,0,0,0-1.362.569,2.946,2.946,0,0,0-.669,1.628h3.926v-.226a2.1,2.1,0,0,0-.508-1.457A1.819,1.819,0,0,0,120.011,10.514Zm12.207.566A7.667,7.667,0,0,0,131.2,11a2.067,2.067,0,0,0-2.1,1.084V19H126.28V8.434h2.666l.078,1.26a2.615,2.615,0,0,1,2.354-1.455,2.957,2.957,0,0,1,.879.127Zm5.488,4.473,1.963-7.119h2.949L139.054,19h-2.7L132.794,8.434h2.949ZM146.837,19H144V8.434h2.832Zm-3-13.3a1.39,1.39,0,0,1,.425-1.045,1.831,1.831,0,0,1,2.31,0A1.382,1.382,0,0,1,147,5.7a1.386,1.386,0,0,1-.435,1.055,1.81,1.81,0,0,1-2.295,0A1.386,1.386,0,0,1,143.839,5.7Zm9.717,11.221a1.851,1.851,0,0,0,1.27-.43,1.506,1.506,0,0,0,.508-1.143h2.646a3.62,3.62,0,0,1-.586,1.968,3.866,3.866,0,0,1-1.577,1.387,4.936,4.936,0,0,1-2.212.493,4.587,4.587,0,0,1-3.574-1.44,5.7,5.7,0,0,1-1.309-3.979V13.59a5.635,5.635,0,0,1,1.3-3.9,4.534,4.534,0,0,1,3.564-1.455,4.444,4.444,0,0,1,3.179,1.128,3.994,3.994,0,0,1,1.216,3h-2.646a1.939,1.939,0,0,0-.508-1.34,1.887,1.887,0,0,0-2.778.2,4.166,4.166,0,0,0-.5,2.333v.293a4.219,4.219,0,0,0,.5,2.347A1.721,1.721,0,0,0,153.556,16.92ZM162.569,19h-2.832V8.434h2.832Zm-3-13.3A1.39,1.39,0,0,1,160,4.654a1.831,1.831,0,0,1,2.31,0,1.382,1.382,0,0,1,.43,1.045,1.386,1.386,0,0,1-.435,1.055,1.81,1.81,0,0,1-2.295,0A1.386,1.386,0,0,1,159.571,5.7Zm4.883,7.92a6.267,6.267,0,0,1,.605-2.8,4.432,4.432,0,0,1,1.743-1.9,5.086,5.086,0,0,1,2.642-.674,4.812,4.812,0,0,1,3.491,1.309,5.252,5.252,0,0,1,1.509,3.555l.02.723a5.523,5.523,0,0,1-1.357,3.9,5.261,5.261,0,0,1-7.29,0,5.62,5.62,0,0,1-1.362-3.984Zm2.822.2a3.95,3.95,0,0,0,.566,2.3,2.035,2.035,0,0,0,3.223.01,4.322,4.322,0,0,0,.576-2.518,3.91,3.91,0,0,0-.576-2.289,1.873,1.873,0,0,0-1.621-.812,1.842,1.842,0,0,0-1.6.807A4.395,4.395,0,0,0,167.276,13.819Zm14.648,2.261a.909.909,0,0,0-.513-.815,5.824,5.824,0,0,0-1.646-.532q-3.77-.791-3.77-3.2a2.9,2.9,0,0,1,1.167-2.349,4.708,4.708,0,0,1,3.052-.942,5.067,5.067,0,0,1,3.218.947,2.985,2.985,0,0,1,1.206,2.461h-2.822a1.366,1.366,0,0,0-.391-1,1.653,1.653,0,0,0-1.221-.4,1.689,1.689,0,0,0-1.1.322,1.017,1.017,0,0,0-.391.82.87.87,0,0,0,.444.757,4.571,4.571,0,0,0,1.5.5,12.244,12.244,0,0,1,1.777.474,2.92,2.92,0,0,1,2.236,2.842,2.756,2.756,0,0,1-1.24,2.339,5.35,5.35,0,0,1-3.2.894,5.588,5.588,0,0,1-2.358-.474,3.957,3.957,0,0,1-1.616-1.3,3.018,3.018,0,0,1-.586-1.782h2.676a1.473,1.473,0,0,0,.557,1.152,2.208,2.208,0,0,0,1.387.4,2.044,2.044,0,0,0,1.226-.308A.957.957,0,0,0,181.925,16.08Z" transform="translate(358 2529)" fill="#12263f"/>
    <g id="NfefVv" transform="translate(278.502 2448.994)">
      <g id="Grupo_145853" data-name="Grupo 145853" transform="translate(167.901 -41.551)">
        <path id="Trazado_189394" data-name="Trazado 189394" d="M216.409,370.191c0,1.08.013,2.16-.008,3.239a.7.7,0,0,0,.411.718c1.892,1.072,3.767,2.172,5.657,3.247a1.117,1.117,0,0,1,.622,1.065q-.008,3.688,0,7.376a1.076,1.076,0,0,1-.63,1c-1.831,1.043-3.643,2.118-5.481,3.147a.96.96,0,0,0-.585.977c.029,2.091,0,4.184.019,6.275a1.2,1.2,0,0,1-.663,1.19c-2.14,1.211-4.263,2.452-6.393,3.68a.865.865,0,0,1-.949.011c-1.951-1.132-3.916-2.24-5.866-3.372a.633.633,0,0,0-.734,0c-1.877,1.1-3.769,2.167-5.642,3.271a1.194,1.194,0,0,1-1.359-.008c-1.857-1.1-3.736-2.156-5.6-3.245a.669.669,0,0,0-.78-.009c-1.873,1.1-3.763,2.172-5.636,3.272a1.135,1.135,0,0,1-1.273.025c-2.079-1.216-4.161-2.427-6.258-3.612a1.2,1.2,0,0,1-.681-1.179c.016-2.142,0-4.285.017-6.427a.748.748,0,0,0-.434-.757c-1.89-1.075-3.763-2.179-5.654-3.252a1.1,1.1,0,0,1-.6-1.067c.009-2.37.018-4.74-.007-7.109a1.339,1.339,0,0,1,.761-1.34c1.8-1,3.557-2.065,5.356-3.061a1,1,0,0,0,.58-1.034c-.025-2.075,0-4.15-.015-6.225a1.241,1.241,0,0,1,.706-1.221c1.939-1.081,3.862-2.19,5.791-3.289a2.061,2.061,0,0,0,.342-.215,1,1,0,0,1,1.3-.071c1.864,1.08,3.748,2.127,5.606,3.217a.853.853,0,0,0,1-.01c1.784-1.055,3.594-2.068,5.374-3.131a1.387,1.387,0,0,1,1.591,0c1.825,1.086,3.677,2.127,5.509,3.2a.633.633,0,0,0,.733.012c1.779-1.028,3.584-2.013,5.345-3.069a1.624,1.624,0,0,1,1.966-.009c1.883,1.177,3.836,2.243,5.781,3.316a1.355,1.355,0,0,1,.792,1.379c-.036,1.028-.01,2.058-.01,3.087ZM183.019,399.86c.232-.122.394-.2.55-.291,1.328-.766,2.649-1.544,3.987-2.293a.705.705,0,0,0,.413-.717c-.017-1.534-.007-3.069-.009-4.6,0-.177-.019-.355-.029-.549a1.078,1.078,0,0,0-.2.056c-1.489.857-2.981,1.71-4.457,2.588a.66.66,0,0,0-.238.487c-.022.994-.011,1.989-.011,2.984Zm4.941-31.668c-1.658.958-3.205,1.843-4.736,2.755a.685.685,0,0,0-.2.51c-.016,1.365-.009,2.731-.009,4.1v1.112a.976.976,0,0,0,.211-.046c1.49-.856,2.983-1.706,4.459-2.585a.726.726,0,0,0,.258-.53c.028-.791.012-1.584.012-2.377Zm-.11,20.073c.059-.086.094-.113.094-.14.02-1.749.043-3.5.042-5.248a.6.6,0,0,0-.272-.418c-1.118-.655-2.249-1.288-3.376-1.926-.416-.235-.833-.468-1.316-.739,0,1.883,0,3.667.009,5.451a.491.491,0,0,0,.215.35C184.768,386.49,186.3,387.37,187.849,388.266ZM183.9,378.253c1.527.9,2.967,1.734,4.39,2.6a.994.994,0,0,0,1.156-.053c1.3-.782,2.608-1.538,3.913-2.306.109-.064.208-.145.359-.252-1.6-.922-3.139-1.818-4.689-2.7a.493.493,0,0,0-.413,0C187.063,376.419,185.521,377.315,183.9,378.253Zm23.154.045a1.053,1.053,0,0,0-.15-.155c-1.486-.86-2.969-1.726-4.467-2.564a.715.715,0,0,0-.582.034c-.742.4-1.465.829-2.193,1.25-.78.451-1.559.9-2.4,1.39.221.138.372.238.528.328,1.338.776,2.687,1.533,4.008,2.337a.631.631,0,0,0,.768.021c1.007-.612,2.023-1.208,3.037-1.807C206.078,378.853,206.557,378.582,207.052,378.3Zm-12.377,1.419c-1.717,1-3.285,1.91-4.838,2.841a.622.622,0,0,0-.186.469c0,1.5.026,3,.042,4.494,0,.231,0,.462,0,.758.185-.09.306-.139.418-.2,1.359-.781,2.707-1.582,4.08-2.336a.83.83,0,0,0,.471-.849c-.007-.74.009-1.481.011-2.221C194.677,381.731,194.675,380.8,194.675,379.716Zm9.262-13.03c.219.134.369.231.523.321,1.02.591,2.093,1.106,3.047,1.789a2.025,2.025,0,0,0,2.685.009c1.109-.779,2.34-1.386,3.529-2.074-.058-.072-.082-.124-.122-.147-1.526-.885-3.052-1.77-4.586-2.641a.483.483,0,0,0-.4.022c-.544.3-1.073.627-1.61.94C206.007,365.488,205.005,366.067,203.937,366.686Zm-26.727.008c1.631.945,3.17,1.846,4.725,2.72a.681.681,0,0,0,.544-.076c1.38-.779,2.749-1.575,4.12-2.369.134-.078.258-.172.444-.3-1.615-.931-3.154-1.825-4.7-2.7a.567.567,0,0,0-.458.03c-.534.28-1.053.588-1.575.891C179.3,365.473,178.3,366.057,177.21,366.694Zm13.355,23.137c1.632.944,3.159,1.836,4.7,2.7a.652.652,0,0,0,.537-.042c1.454-.818,2.9-1.655,4.342-2.491a1.542,1.542,0,0,0,.227-.21c-1.528-.881-3.022-1.73-4.5-2.607a.646.646,0,0,0-.775.016c-.733.448-1.484.866-2.228,1.3Zm-13.359,0c1.655.958,3.21,1.864,4.777,2.75a.57.57,0,0,0,.448-.076c1.348-.765,2.689-1.543,4.031-2.318.181-.1.357-.217.6-.365-1.64-.946-3.2-1.848-4.762-2.739a.38.38,0,0,0-.319,0C180.416,387.973,178.859,388.875,177.205,389.83Zm3.116-11.531c-.063-.076-.086-.125-.124-.147-1.5-.869-3-1.743-4.511-2.592a.674.674,0,0,0-.54.044c-.552.287-1.085.612-1.624.924l-2.931,1.7c.063.075.087.125.126.148,1.5.87,3,1.744,4.51,2.592a.665.665,0,0,0,.541-.044c.8-.435,1.58-.9,2.367-1.354C178.859,379.149,179.583,378.728,180.322,378.3Zm40.151-.037c-1.64-.948-3.18-1.847-4.735-2.719a.678.678,0,0,0-.542.073c-1.16.65-2.309,1.32-3.46,1.988-.353.2-.7.419-1.117.669,1.483.855,2.9,1.633,4.269,2.482a1.069,1.069,0,0,0,1.31-.008C217.572,379.9,218.984,379.121,220.473,378.261Zm-16.548,11.57c1.641.949,3.183,1.848,4.737,2.725a.605.605,0,0,0,.491-.057c1.422-.806,2.834-1.628,4.248-2.448.107-.062.2-.143.346-.244-1.236-.716-2.468-1.325-3.579-2.107a2,2,0,0,0-2.639.01C206.415,388.484,205.19,389.1,203.925,389.832Zm-3.571-23.1c-.045-.068-.056-.106-.082-.121-1.514-.879-3.025-1.763-4.55-2.62a.678.678,0,0,0-.545.048c-.581.305-1.142.648-1.71.977l-2.844,1.646c.071.078.1.126.138.149,1.487.859,2.969,1.726,4.47,2.56a.77.77,0,0,0,.629-.044c.945-.517,1.871-1.069,2.8-1.609Q199.509,367.226,200.354,366.731Zm.9,21.557a3.314,3.314,0,0,0,.046-.349c.015-1.66.038-3.321.025-4.981a.761.761,0,0,0-.326-.538c-.872-.538-1.763-1.043-2.655-1.547-.624-.353-1.259-.686-1.98-1.078,0,1.57.065,3.059-.024,4.539a1.558,1.558,0,0,0,1.119,1.774,6.136,6.136,0,0,1,.831.476Zm6.723-8.514c-1.653.954-3.2,1.836-4.727,2.747a.727.727,0,0,0-.236.547c0,1.4.024,2.792.039,4.188,0,.313,0,.626,0,1.04.279-.15.468-.246.651-.351a29.006,29.006,0,0,1,2.809-1.589,2.123,2.123,0,0,0,1.478-2.593,8.675,8.675,0,0,1-.014-1.513ZM189.7,391.348c0,1.906-.008,3.691.016,5.475,0,.145.2.333.348.423,1.2.713,2.416,1.407,3.627,2.106.285.165.573.325.914.519.011-.216.024-.347.024-.478,0-1.231-.086-2.47.03-3.689a1.991,1.991,0,0,0-1.316-2.29C192.111,392.844,190.972,392.081,189.7,391.348Zm-13.363,0c0,1.9-.007,3.686.013,5.468a.622.622,0,0,0,.3.4c.777.47,1.567.918,2.355,1.371q1.085.624,2.174,1.244c.044-.083.073-.112.073-.141.005-1.751.015-3.5,0-5.254a.62.62,0,0,0-.283-.414c-.511-.324-1.043-.616-1.568-.917Zm-6.628-11.541a1.937,1.937,0,0,0-.046.26c0,1.7-.012,3.4.011,5.106a.71.71,0,0,0,.322.49c1.171.7,2.359,1.369,3.541,2.049l1.048.6c0-1.892.008-3.675-.015-5.458,0-.148-.192-.339-.343-.431-.762-.465-1.539-.9-2.312-1.35C171.193,380.658,170.468,380.244,169.708,379.806Zm11.557-.008c-.193.1-.311.154-.424.219-1.371.79-2.737,1.591-4.117,2.366a.659.659,0,0,0-.4.67c.018,1.6.007,3.2.009,4.8,0,.123.027.245.048.432,1.6-.925,3.148-1.809,4.678-2.721a.7.7,0,0,0,.192-.517c.015-1.449.008-2.9.008-4.348Zm8.483-11.527a.9.9,0,0,0-.048.18c0,1.719-.014,3.438.008,5.156a.71.71,0,0,0,.33.483c1.419.842,2.851,1.66,4.281,2.483a1.958,1.958,0,0,0,.307.106c0-1.836.008-3.619-.015-5.4,0-.147-.2-.339-.348-.429-1.363-.8-2.737-1.589-4.109-2.378C190.029,368.4,189.894,368.342,189.748,368.271Zm-8.544,8.434a1.806,1.806,0,0,0,.058-.292c0-1.687.013-3.374-.011-5.061a.717.717,0,0,0-.329-.492c-1.406-.834-2.826-1.644-4.243-2.458a2.353,2.353,0,0,0-.342-.125c0,1.826-.008,3.6.014,5.366a.668.668,0,0,0,.317.441c.894.541,1.8,1.058,2.708,1.579C179.97,376.006,180.567,376.343,181.2,376.706Zm33.454,14.663c-.2.1-.309.152-.408.209-1.369.791-2.73,1.6-4.112,2.366a.7.7,0,0,0-.415.714c.013,1.583.006,3.166.009,4.749,0,.127.022.254.039.433.161-.082.28-.136.392-.2,1.064-.613,2.089-1.312,3.2-1.817a1.987,1.987,0,0,0,1.32-2.284C214.568,394.187,214.658,392.818,214.658,391.369Zm-4.924-14.7a1.245,1.245,0,0,0,.223-.059c1.476-.849,2.956-1.69,4.417-2.563a.765.765,0,0,0,.272-.568c.021-1.6.013-3.2.01-4.807,0-.125-.024-.25-.043-.445-1.6.924-3.143,1.812-4.68,2.712a.443.443,0,0,0-.19.318C209.73,373.048,209.733,374.834,209.733,376.673Zm-6.677-8.462c0,1.9-.007,3.689.014,5.475,0,.136.172.315.31.4,1.38.812,2.769,1.608,4.157,2.406.121.07.251.124.44.217,0-1.4-.1-2.724.029-4.025a2.144,2.144,0,0,0-1.435-2.483C205.385,369.658,204.29,368.919,203.056,368.211Zm-6.686,8.538c1.662-.958,3.208-1.84,4.738-2.749.124-.074.183-.342.184-.521.014-1.582.01-3.165.008-4.748,0-.142-.021-.284-.034-.445a.881.881,0,0,0-.182.048c-1.488.855-2.979,1.7-4.453,2.581a.718.718,0,0,0-.249.53c-.024,1.01-.012,2.02-.012,3.03C196.37,375.195,196.371,375.914,196.371,376.749ZM214.6,388.282a1.513,1.513,0,0,0,.053-.248c0-1.7.009-3.4-.015-5.1a.706.706,0,0,0-.313-.492c-.993-.6-2.005-1.169-3.011-1.749l-1.588-.919c0,1.9-.007,3.68.013,5.461a.625.625,0,0,0,.3.408c.586.364,1.189.7,1.787,1.042Zm-18.194,11.5c.064,0,.1.012.127,0,1.5-.862,3.01-1.719,4.5-2.6a.712.712,0,0,0,.255-.53c.018-1.633.01-3.267.005-4.9a2.74,2.74,0,0,0-.057-.37c-1.6.922-3.142,1.807-4.675,2.712a.556.556,0,0,0-.187.417c-.013,1.667-.009,3.335-.007,5A1.907,1.907,0,0,0,196.411,399.782Zm11.5.056a.913.913,0,0,0,.062-.2c0-1.72.016-3.441-.006-5.161a.713.713,0,0,0-.333-.482c-1.317-.785-2.648-1.547-3.977-2.313-.17-.1-.347-.184-.535-.283a.75.75,0,0,0-.062.18c0,1.721-.012,3.441.011,5.161a.72.72,0,0,0,.33.484c.745.461,1.509.89,2.269,1.327C206.408,398.981,207.15,399.4,207.909,399.837Zm8.5-11.564c.176-.079.284-.118.382-.174,1.415-.812,2.835-1.615,4.233-2.454a.818.818,0,0,0,.3-.6c.024-1.6.014-3.2.012-4.8a3.739,3.739,0,0,0-.042-.39.97.97,0,0,0-.18.052c-1.472.847-2.949,1.686-4.407,2.557a.768.768,0,0,0-.283.565c-.025,1.313-.013,2.626-.013,3.939Z" transform="translate(-167.901 -321.143)" fill="#fff"/>
        <path id="Trazado_189395" data-name="Trazado 189395" d="M337.77-6.93c.8-.731,1.619-1.51,2.478-2.238a1.325,1.325,0,0,1,.884-.317.876.876,0,0,1,.616.544,1.162,1.162,0,0,1-.226.9c-.877.979-1.81,1.908-2.723,2.856-.386.4-.769.8-1.158,1.2a.916.916,0,0,1-1.489.018q-1.958-2.013-3.9-4.042a.875.875,0,0,1-.044-1.3.928.928,0,0,1,1.306.109c.836.779,1.683,1.548,2.49,2.288,0-.009.016-.167.016-.324,0-2.531-.007-5.061.005-7.591a.663.663,0,0,0-.388-.672c-3.2-1.832-6.383-3.694-9.59-5.513a1.453,1.453,0,0,1-.833-1.451c.029-3.9.022-7.794,0-11.691a1.245,1.245,0,0,1,.692-1.225q5.2-2.975,10.379-5.989a1.066,1.066,0,0,1,1.182,0q5.226,3.032,10.466,6.041a1.135,1.135,0,0,1,.607,1.117c-.012,3.964-.018,7.929,0,11.893a1.277,1.277,0,0,1-.733,1.252q-4.848,2.771-9.67,5.585a.758.758,0,0,0-.363.51c-.022,2.682-.015,5.364-.013,8.047C337.771-6.883,337.8-6.836,337.77-6.93Zm8.111-27.514a1.405,1.405,0,0,0-.181-.162c-2.842-1.645-5.683-3.293-8.536-4.918a.752.752,0,0,0-.626.037c-2.749,1.57-5.488,3.16-8.228,4.745-.133.077-.261.161-.438.271.148.095.216.142.287.183,2.8,1.619,5.6,3.231,8.395,4.863a.63.63,0,0,0,.733-.043q2.533-1.474,5.074-2.934C343.525-33.076,344.687-33.752,345.881-34.444ZM327.044-32.9c-.043.078-.071.1-.071.132q-.007,5.005,0,10.011a.5.5,0,0,0,.2.358q1.2.743,2.427,1.45c1.454.839,2.915,1.666,4.374,2.5.651.371,1.3.739,2,1.136a3,3,0,0,0,.043-.309c.015-1.31.041-2.62.039-3.93,0-1.9-.036-3.807-.034-5.71a.713.713,0,0,0-.417-.712c-2.456-1.4-4.9-2.825-7.352-4.24C327.856-32.452,327.449-32.674,327.044-32.9Zm19.76-.023c-.2.1-.316.149-.428.214q-4.138,2.384-8.277,4.766a.6.6,0,0,0-.346.6c0,2.607-.012,5.214-.02,7.821,0,.71,0,1.42,0,2.171a1.721,1.721,0,0,0,.265-.074q4.26-2.458,8.512-4.931a.7.7,0,0,0,.281-.509c.025-1.129.013-2.259.013-3.389Z" transform="translate(-309.29 41.551)" fill="#fff"/>
      </g>
    </g>
  </g>
</svg>
