<svg xmlns="http://www.w3.org/2000/svg" width="451.606" height="296.883" viewBox="0 0 451.606 296.883">
  <g id="Grupo_146140" data-name="Grupo 146140" transform="translate(-174.638 -11939.195)">
    <g id="Grupo_142549" data-name="Grupo 142549" transform="translate(174.638 11941.289)">
      <rect id="Rectángulo_33957" data-name="Rectángulo 33957" width="451.606" height="294.789" transform="translate(0 0)" fill="#e8e8e8"/>
    </g>
    <g id="Grupo_66316" data-name="Grupo 66316" transform="translate(183 11939.195)">
      <g id="Background_Complete" data-name="Background Complete" transform="translate(0 0)">
        <g id="Grupo_66249" data-name="Grupo 66249">
          <rect id="Rectángulo_30170" data-name="Rectángulo 30170" width="392.89" height="0.196" transform="translate(0 257.3)" fill="#ebebeb"/>
          <rect id="Rectángulo_30171" data-name="Rectángulo 30171" width="26.027" height="0.196" transform="translate(327.497 269.948)" fill="#ebebeb"/>
          <rect id="Rectángulo_30172" data-name="Rectángulo 30172" width="6.831" height="0.196" transform="translate(253.435 272.081)" fill="#ebebeb"/>
          <rect id="Rectángulo_30173" data-name="Rectángulo 30173" width="15.081" height="0.196" transform="translate(311.63 262.651)" fill="#ebebeb"/>
          <rect id="Rectángulo_30174" data-name="Rectángulo 30174" width="33.941" height="0.196" transform="translate(41.221 263.972)" fill="#ebebeb"/>
          <rect id="Rectángulo_30175" data-name="Rectángulo 30175" width="4.976" height="0.196" transform="translate(82.158 263.972)" fill="#ebebeb"/>
          <rect id="Rectángulo_30176" data-name="Rectángulo 30176" width="73.609" height="0.196" transform="translate(103.308 267.289)" fill="#ebebeb"/>
          <path id="Trazado_132629" data-name="Trazado 132629" d="M194.426,277.209H42.692a4.491,4.491,0,0,1-4.485-4.485V59.437a4.49,4.49,0,0,1,4.485-4.484H194.426a4.49,4.49,0,0,1,4.484,4.484V272.724A4.491,4.491,0,0,1,194.426,277.209ZM42.692,55.149A4.293,4.293,0,0,0,38.4,59.437V272.724a4.293,4.293,0,0,0,4.289,4.289H194.426a4.293,4.293,0,0,0,4.288-4.289V59.437a4.293,4.293,0,0,0-4.288-4.288Z" transform="translate(-8.185 -54.953)" fill="#ebebeb"/>
          <path id="Trazado_132630" data-name="Trazado 132630" d="M410.722,277.209H258.989a4.49,4.49,0,0,1-4.484-4.485V59.437a4.489,4.489,0,0,1,4.484-4.484H410.722a4.49,4.49,0,0,1,4.486,4.484V272.724A4.491,4.491,0,0,1,410.722,277.209ZM258.989,55.149a4.293,4.293,0,0,0-4.288,4.288V272.724a4.293,4.293,0,0,0,4.288,4.289H410.722a4.294,4.294,0,0,0,4.29-4.289V59.437a4.294,4.294,0,0,0-4.29-4.288Z" transform="translate(-54.52 -54.953)" fill="#ebebeb"/>
        </g>
        <g id="Grupo_66269" data-name="Grupo 66269" transform="translate(37.57 10.702)">
          <g id="Grupo_66250" data-name="Grupo 66250" transform="translate(206.183 6.957)">
            <path id="Trazado_132631" data-name="Trazado 132631" d="M344.561,93.7a3.84,3.84,0,0,0-4.946-3.68,8.238,8.238,0,0,0,.086-1.179,8.133,8.133,0,0,0-9.635-8,7.111,7.111,0,0,0-13.187,3.6c-.04,0-.079-.006-.119-.006a6.555,6.555,0,1,0,0,13.109h24.072l-.005-.006A3.84,3.84,0,0,0,344.561,93.7Z" transform="translate(-310.205 -77.425)" fill="#f0f0f0"/>
            <path id="Trazado_132632" data-name="Trazado 132632" d="M332.932,103.411V95.92h-6.11v7.491h-4.975l8.03,6.785,8.03-6.785Z" transform="translate(-312.699 -81.387)" fill="#e0e0e0"/>
          </g>
          <g id="Grupo_66251" data-name="Grupo 66251" transform="translate(47.157)">
            <path id="Trazado_132633" data-name="Trazado 132633" d="M180.789,103.134a8.154,8.154,0,0,0-10.5-7.815,17.46,17.46,0,0,0,.183-2.506A17.271,17.271,0,0,0,150,75.83,15.1,15.1,0,0,0,122,83.466c-.085,0-.167-.013-.251-.013a13.92,13.92,0,1,0,0,27.841h51.123l-.01-.011A8.155,8.155,0,0,0,180.789,103.134Z" transform="translate(-107.825 -68.572)" fill="#f0f0f0"/>
            <path id="Trazado_132634" data-name="Trazado 132634" d="M143.115,109.434v15.909h12.976V109.434h10.566L149.6,95.023l-17.054,14.411Z" transform="translate(-113.121 -74.238)" fill="#e0e0e0"/>
          </g>
          <g id="Grupo_66256" data-name="Grupo 66256" transform="translate(114.558 24.593)">
            <path id="Trazado_132635" data-name="Trazado 132635" d="M208.97,157.3V135.9h65.521v21.179" transform="translate(-196.894 -107.589)" fill="none" stroke="#e6e6e6" stroke-miterlimit="10" stroke-width="1"/>
            <line id="Línea_1769" data-name="Línea 1769" y2="41.5" transform="translate(45.805 8.151)" fill="none" stroke="#e6e6e6" stroke-miterlimit="10" stroke-width="1"/>
            <g id="Grupo_66252" data-name="Grupo 66252" transform="translate(33.729)">
              <rect id="Rectángulo_30177" data-name="Rectángulo 30177" width="24.153" height="15.13" rx="1.187" fill="#f0f0f0"/>
              <rect id="Rectángulo_30178" data-name="Rectángulo 30178" width="22.485" height="12.748" rx="0.421" transform="translate(0.834 1.777)" fill="#e0e0e0"/>
            </g>
            <g id="Grupo_66253" data-name="Grupo 66253" transform="translate(0 47.77)">
              <rect id="Rectángulo_30179" data-name="Rectángulo 30179" width="24.153" height="15.13" rx="1.187" fill="#f0f0f0"/>
              <rect id="Rectángulo_30180" data-name="Rectángulo 30180" width="22.485" height="12.748" rx="0.421" transform="translate(0.834 1.777)" fill="#e0e0e0"/>
            </g>
            <g id="Grupo_66254" data-name="Grupo 66254" transform="translate(33.729 47.77)">
              <rect id="Rectángulo_30181" data-name="Rectángulo 30181" width="24.153" height="15.13" rx="1.187" fill="#f0f0f0"/>
              <rect id="Rectángulo_30182" data-name="Rectángulo 30182" width="22.485" height="12.748" rx="0.421" transform="translate(0.834 1.777)" fill="#e0e0e0"/>
            </g>
            <g id="Grupo_66255" data-name="Grupo 66255" transform="translate(65.573 47.77)">
              <rect id="Rectángulo_30183" data-name="Rectángulo 30183" width="24.153" height="15.13" rx="1.187" fill="#f0f0f0"/>
              <rect id="Rectángulo_30184" data-name="Rectángulo 30184" width="22.485" height="12.748" rx="0.421" transform="translate(0.834 1.777)" fill="#e0e0e0"/>
            </g>
            <path id="Rectángulo_30185" data-name="Rectángulo 30185" d="M.806,0H9a.805.805,0,0,1,.805.805V9A.806.806,0,0,1,9,9.808H.805A.805.805,0,0,1,0,9V.806A.806.806,0,0,1,.806,0Z" transform="translate(38.87 28.315) rotate(-45)" fill="#e0e0e0" style="isolation: isolate"/>
          </g>
          <g id="Grupo_66259" data-name="Grupo 66259" transform="translate(0.624 42.493)">
            <rect id="Rectángulo_30186" data-name="Rectángulo 30186" width="17.091" height="10.242" rx="0.871" transform="translate(15.401)" fill="#e0e0e0" opacity="0.8"/>
            <rect id="Rectángulo_30187" data-name="Rectángulo 30187" width="13.822" height="7.819" rx="0.871" transform="translate(6.676 22.029)" fill="#e0e0e0"/>
            <rect id="Rectángulo_30188" data-name="Rectángulo 30188" width="13.822" height="7.819" rx="0.871" transform="translate(27.648 22.029)" fill="#e0e0e0"/>
            <g id="Grupo_66257" data-name="Grupo 66257" transform="translate(21.32 38.573)">
              <rect id="Rectángulo_30189" data-name="Rectángulo 30189" width="7.255" height="6.678" rx="0.871" fill="#e0e0e0"/>
              <rect id="Rectángulo_30190" data-name="Rectángulo 30190" width="7.255" height="6.678" rx="0.871" transform="translate(9.214)" fill="#e0e0e0"/>
              <rect id="Rectángulo_30191" data-name="Rectángulo 30191" width="7.255" height="6.678" rx="0.871" transform="translate(18.428)" fill="#e0e0e0"/>
            </g>
            <rect id="Rectángulo_30192" data-name="Rectángulo 30192" width="7.255" height="6.678" rx="0.871" transform="translate(0 38.573)" fill="#e0e0e0"/>
            <rect id="Rectángulo_30193" data-name="Rectángulo 30193" width="7.255" height="6.678" rx="0.871" transform="translate(10 38.573)" fill="#e0e0e0"/>
            <g id="Grupo_66258" data-name="Grupo 66258" transform="translate(3.123 10.242)">
              <path id="Trazado_132636" data-name="Trazado 132636" d="M86.011,147.471H86.8v-5.5H76.581v-6.286H75.8v6.286H65.58v5.5h.786v-4.715H86.011Z" transform="translate(-55.365 -135.684)" fill="#e0e0e0"/>
              <path id="Trazado_132637" data-name="Trazado 132637" d="M62.8,165.4H52.58v3.929h.786v-3.143H62.8v3.143h.786v-8.644H62.8Z" transform="translate(-52.58 -141.04)" fill="#e0e0e0"/>
              <path id="Trazado_132638" data-name="Trazado 132638" d="M89.8,166.185v-5.5H89.01v5.5H79.58v3.143h.786V166.97H89.01v2.357H89.8V166.97h8.644v2.357h.786v-3.143Z" transform="translate(-58.364 -141.04)" fill="#e0e0e0"/>
            </g>
          </g>
          <g id="Grupo_66260" data-name="Grupo 66260" transform="translate(238.422 30.011)">
            <path id="Trazado_132639" data-name="Trazado 132639" d="M380.993,121.706v5.645l2.907.274a15.073,15.073,0,0,0,2.167,5.214l-1.867,2.255,3.992,3.992,2.255-1.867a15.09,15.09,0,0,0,5.214,2.168l.274,2.907h5.645l.273-2.907a15.077,15.077,0,0,0,5.214-2.167l2.255,1.867,3.992-3.992-1.867-2.255a15.074,15.074,0,0,0,2.167-5.214l2.907-.274v-5.645l-2.907-.273a15.068,15.068,0,0,0-2.167-5.214l1.867-2.255-3.992-3.992-2.255,1.866a15.092,15.092,0,0,0-5.214-2.167l-.273-2.907h-5.645l-.274,2.907a15.089,15.089,0,0,0-5.214,2.167l-2.255-1.866-3.992,3.992,1.867,2.254a15.077,15.077,0,0,0-2.167,5.214Zm17.764-4.819a7.642,7.642,0,1,1-7.642,7.642A7.642,7.642,0,0,1,398.757,116.886Z" transform="translate(-357.608 -106.764)" fill="#f5f5f5"/>
            <path id="Trazado_132640" data-name="Trazado 132640" d="M381.177,171.227a11.812,11.812,0,0,0,4.086-1.7l1.767,1.463,3.128-3.127-1.463-1.767a11.8,11.8,0,0,0,1.7-4.086l2.278-.214v-4.423l-2.278-.214a11.8,11.8,0,0,0-1.7-4.086l1.463-1.767-3.128-3.127-1.767,1.462a11.825,11.825,0,0,0-4.086-1.7l-.215-2.278h-4.424l-.215,2.278a11.815,11.815,0,0,0-4.085,1.7l-1.767-1.462-3.128,3.127,1.463,1.767a11.832,11.832,0,0,0-1.7,4.086l-2.277.214V161.8l2.277.214a11.838,11.838,0,0,0,1.7,4.086l-1.463,1.767,3.128,3.127,1.767-1.463a11.8,11.8,0,0,0,4.085,1.7l.215,2.278h4.424Zm-8.414-11.643a5.988,5.988,0,1,1,5.988,5.988A5.988,5.988,0,0,1,372.762,159.584Z" transform="translate(-354.146 -115.097)" fill="#f5f5f5"/>
            <path id="Trazado_132641" data-name="Trazado 132641" d="M368.4,142.263l1.484,1.229,2.628-2.627-1.229-1.484a9.933,9.933,0,0,0,1.427-3.432l1.913-.18v-3.715l-1.913-.18a9.926,9.926,0,0,0-1.427-3.432l1.229-1.484-2.628-2.628-1.484,1.23a9.932,9.932,0,0,0-3.432-1.427l-.18-1.913h-3.715l-.18,1.913a9.91,9.91,0,0,0-3.432,1.427l-1.484-1.23-2.627,2.628,1.228,1.484a9.926,9.926,0,0,0-1.427,3.432l-1.913.18v3.715l1.913.18a9.948,9.948,0,0,0,1.427,3.432l-1.228,1.484,2.627,2.627,1.484-1.229a9.925,9.925,0,0,0,3.432,1.427l.18,1.913h3.715l.18-1.913A9.932,9.932,0,0,0,368.4,142.263Zm-10.5-8.352a5.03,5.03,0,1,1,5.03,5.03A5.03,5.03,0,0,1,357.9,133.911Z" transform="translate(-351.233 -110.075)" fill="#f5f5f5"/>
          </g>
          <g id="Grupo_66263" data-name="Grupo 66263" transform="translate(254.926 200.735)">
            <g id="Grupo_66261" data-name="Grupo 66261" transform="translate(0)">
              <rect id="Rectángulo_30194" data-name="Rectángulo 30194" width="52.764" height="34.318" fill="#f5f5f5"/>
            </g>
            <rect id="Rectángulo_30195" data-name="Rectángulo 30195" width="48.903" height="26.167" transform="translate(1.93 6.435)" fill="#e0e0e0"/>
            <g id="Grupo_66262" data-name="Grupo 66262" transform="translate(5.915 10.344)">
              <rect id="Rectángulo_30196" data-name="Rectángulo 30196" width="36.175" height="1.126" fill="#f5f5f5"/>
              <rect id="Rectángulo_30197" data-name="Rectángulo 30197" width="17.356" height="1.126" transform="translate(0 3.448)" fill="#f5f5f5"/>
              <rect id="Rectángulo_30198" data-name="Rectángulo 30198" width="21.861" height="1.126" transform="translate(0 6.895)" fill="#f5f5f5"/>
              <rect id="Rectángulo_30199" data-name="Rectángulo 30199" width="7.705" height="1.126" transform="translate(0 10.343)" fill="#f5f5f5"/>
              <rect id="Rectángulo_30200" data-name="Rectángulo 30200" width="4.989" height="1.126" transform="translate(0 13.79)" fill="#f5f5f5"/>
            </g>
          </g>
          <g id="Grupo_66268" data-name="Grupo 66268" transform="translate(0 200.541)">
            <rect id="Rectángulo_30201" data-name="Rectángulo 30201" width="37.545" height="23.158" transform="matrix(1, -0.005, 0.005, 1, 0, 0.171)" fill="#ebebeb"/>
            <g id="Grupo_66267" data-name="Grupo 66267" transform="translate(6.768 5.822)">
              <g id="Grupo_66264" data-name="Grupo 66264" transform="translate(0 0.041)">
                <path id="Trazado_132642" data-name="Trazado 132642" d="M64.06,342.889a.782.782,0,0,1-.463-.152l-6.85-5a.785.785,0,0,1-.006-1.264l6.8-5.067a.786.786,0,1,1,.938,1.26l-5.95,4.43,5.99,4.377a.786.786,0,0,1-.464,1.421Z" transform="translate(-56.425 -331.246)" fill="#fafafa"/>
              </g>
              <g id="Grupo_66265" data-name="Grupo 66265" transform="translate(15.693)">
                <path id="Trazado_132643" data-name="Trazado 132643" d="M77.229,342.837a.786.786,0,0,1-.471-1.416l5.95-4.431-5.99-4.375a.786.786,0,1,1,.927-1.269l6.85,5a.785.785,0,0,1,.006,1.264l-6.8,5.068A.786.786,0,0,1,77.229,342.837Z" transform="translate(-76.396 -331.194)" fill="#fafafa"/>
              </g>
              <g id="Grupo_66266" data-name="Grupo 66266" transform="translate(9.507 0.012)">
                <path id="Trazado_132644" data-name="Trazado 132644" d="M69.31,342.868a.786.786,0,0,1-.742-1.045L72.1,331.735a.786.786,0,1,1,1.484.519l-3.529,10.088A.786.786,0,0,1,69.31,342.868Z" transform="translate(-68.523 -331.208)" fill="#fafafa"/>
              </g>
            </g>
          </g>
        </g>
      </g>
      <g id="Ladder" transform="translate(239.18 238.413)">
        <g id="Grupo_66275" data-name="Grupo 66275">
          <g id="Grupo_66270" data-name="Grupo 66270" transform="translate(23.573 2.071)">
            <path id="Trazado_132645" data-name="Trazado 132645" d="M334.385,404.406h5.768L348.011,361h-5.768Z" transform="translate(-334.385 -360.998)" fill="#263238"/>
            <path id="Trazado_132646" data-name="Trazado 132646" d="M334.385,404.406h5.768L348.011,361h-5.768Z" transform="translate(-334.385 -360.998)" fill="#fff" opacity="0.2"/>
            <path id="Trazado_132647" data-name="Trazado 132647" d="M334.385,404.406h4.2L346.439,361h-4.2Z" transform="translate(-334.385 -360.998)" fill="#fff" opacity="0.2"/>
          </g>
          <path id="Trazado_132648" data-name="Trazado 132648" d="M313.34,376.737h23.1a1.275,1.275,0,0,0,1.275-1.275h0a1.274,1.274,0,0,0-1.275-1.275h-23.1a1.274,1.274,0,0,0-1.275,1.275h0A1.275,1.275,0,0,0,313.34,376.737Z" transform="translate(-306.03 -361.752)" fill="#263238"/>
          <path id="Trazado_132649" data-name="Trazado 132649" d="M310.077,395.231h23.1a1.275,1.275,0,0,0,1.275-1.275h0a1.276,1.276,0,0,0-1.275-1.275h-23.1a1.276,1.276,0,0,0-1.275,1.275h0A1.275,1.275,0,0,0,310.077,395.231Z" transform="translate(-305.331 -365.714)" fill="#263238"/>
          <g id="Grupo_66271" data-name="Grupo 66271" transform="translate(0 2.071)">
            <path id="Trazado_132650" data-name="Trazado 132650" d="M304.385,404.406h5.768L318.011,361h-5.768Z" transform="translate(-304.385 -360.998)" fill="#263238"/>
            <path id="Trazado_132651" data-name="Trazado 132651" d="M304.385,404.406h5.768L318.011,361h-5.768Z" transform="translate(-304.385 -360.998)" fill="#fff" opacity="0.2"/>
            <path id="Trazado_132652" data-name="Trazado 132652" d="M304.385,404.406h4.2L316.439,361h-4.2Z" transform="translate(-304.385 -360.998)" fill="#fff" opacity="0.2"/>
          </g>
          <g id="Grupo_66272" data-name="Grupo 66272" transform="translate(40.075 2.071)">
            <path id="Trazado_132653" data-name="Trazado 132653" d="M369.011,404.406h-5.768L355.385,361h5.768Z" transform="translate(-355.385 -360.998)" fill="#263238"/>
            <path id="Trazado_132654" data-name="Trazado 132654" d="M369.011,404.406h-5.768L355.385,361h5.768Z" transform="translate(-355.385 -360.998)" fill="#fff" opacity="0.4"/>
            <path id="Trazado_132655" data-name="Trazado 132655" d="M367.439,404.406h-4.2L355.385,361h4.2Z" transform="translate(-355.385 -360.998)" fill="#fff" opacity="0.2"/>
          </g>
          <path id="Trazado_132656" data-name="Trazado 132656" d="M353.173,376.737h-23.1a1.276,1.276,0,0,1-1.275-1.275h0a1.275,1.275,0,0,1,1.275-1.275h23.1a1.275,1.275,0,0,1,1.275,1.275h0A1.276,1.276,0,0,1,353.173,376.737Z" transform="translate(-309.615 -361.752)" fill="#263238"/>
          <path id="Trazado_132657" data-name="Trazado 132657" d="M356.437,395.231h-23.1a1.274,1.274,0,0,1-1.275-1.275h0a1.275,1.275,0,0,1,1.275-1.275h23.1a1.275,1.275,0,0,1,1.275,1.275h0A1.274,1.274,0,0,1,356.437,395.231Z" transform="translate(-310.315 -365.714)" fill="#263238"/>
          <path id="Trazado_132658" data-name="Trazado 132658" d="M353.173,376.737h-23.1a1.276,1.276,0,0,1-1.275-1.275h0a1.275,1.275,0,0,1,1.275-1.275h23.1a1.275,1.275,0,0,1,1.275,1.275h0A1.276,1.276,0,0,1,353.173,376.737Z" transform="translate(-309.615 -361.752)" fill="#fff" opacity="0.2"/>
          <path id="Trazado_132659" data-name="Trazado 132659" d="M356.437,395.231h-23.1a1.274,1.274,0,0,1-1.275-1.275h0a1.275,1.275,0,0,1,1.275-1.275h23.1a1.275,1.275,0,0,1,1.275,1.275h0A1.274,1.274,0,0,1,356.437,395.231Z" transform="translate(-310.315 -365.714)" fill="#fff" opacity="0.2"/>
          <g id="Grupo_66273" data-name="Grupo 66273" transform="translate(16.501 2.071)">
            <path id="Trazado_132660" data-name="Trazado 132660" d="M339.011,404.406h-5.768L325.385,361h5.768Z" transform="translate(-325.385 -360.998)" fill="#263238"/>
            <path id="Trazado_132661" data-name="Trazado 132661" d="M339.011,404.406h-5.768L325.385,361h5.768Z" transform="translate(-325.385 -360.998)" fill="#fff" opacity="0.4"/>
            <path id="Trazado_132662" data-name="Trazado 132662" d="M337.439,404.406h-4.2L325.385,361h4.2Z" transform="translate(-325.385 -360.998)" fill="#fff" opacity="0.2"/>
          </g>
          <g id="Grupo_66274" data-name="Grupo 66274" transform="translate(5.44)">
            <rect id="Rectángulo_30202" data-name="Rectángulo 30202" width="43.589" height="4.141" rx="1.187" fill="#263238"/>
            <rect id="Rectángulo_30203" data-name="Rectángulo 30203" width="17.727" height="4.141" rx="1.187" fill="#fff" opacity="0.2"/>
          </g>
        </g>
      </g>
      <g id="interface" transform="translate(99.954 249.01)">
        <g id="Grupo_66278" data-name="Grupo 66278" transform="translate(0 0)">
          <g id="Grupo_66276" data-name="Grupo 66276">
            <rect id="Rectángulo_30204" data-name="Rectángulo 30204" width="52.764" height="34.318" fill="#12263f"/>
          </g>
          <rect id="Rectángulo_30206" data-name="Rectángulo 30206" width="48.903" height="26.167" transform="translate(1.93 6.435)" fill="#d2e1f1"/>
          <g id="Grupo_66277" data-name="Grupo 66277" transform="translate(5.915 10.344)">
            <rect id="Rectángulo_30207" data-name="Rectángulo 30207" width="36.175" height="1.126" fill="#fff"/>
            <rect id="Rectángulo_30208" data-name="Rectángulo 30208" width="17.356" height="1.126" transform="translate(0 3.448)" fill="#fff"/>
            <rect id="Rectángulo_30209" data-name="Rectángulo 30209" width="21.861" height="1.126" transform="translate(0 6.895)" fill="#fff"/>
            <rect id="Rectángulo_30210" data-name="Rectángulo 30210" width="7.705" height="1.126" transform="translate(0 10.343)" fill="#fff"/>
            <rect id="Rectángulo_30211" data-name="Rectángulo 30211" width="4.989" height="1.126" transform="translate(0 13.79)" fill="#fff"/>
          </g>
        </g>
      </g>
      <g id="Monitor" transform="translate(90.002 85.987)">
        <g id="Grupo_66296" data-name="Grupo 66296">
          <g id="Grupo_66279" data-name="Grupo 66279" transform="translate(84.966 140.802)">
            <path id="Trazado_132663" data-name="Trazado 132663" d="M265.623,400.671H222.667l7.274-57.1h28.408Z" transform="translate(-222.667 -343.57)" fill="#12263f"/>
            <path id="Trazado_132665" data-name="Trazado 132665" d="M263.094,370.178,229,361.606l2.3-18.036h28.4Z" transform="translate(-224.024 -343.57)" opacity="0.1" style="isolation: isolate"/>
          </g>
          <g id="Grupo_66280" data-name="Grupo 66280">
            <path id="Trazado_132666" data-name="Trazado 132666" d="M322.243,164.382H119.72a5.183,5.183,0,0,0-5.182,5.182v137.1a5.182,5.182,0,0,0,5.182,5.182H322.243a5.183,5.183,0,0,0,5.182-5.182v-137.1A5.183,5.183,0,0,0,322.243,164.382Z" transform="translate(-114.538 -164.382)" fill="#12263f"/>
          </g>
          <rect id="Rectángulo_30212" data-name="Rectángulo 30212" width="199.251" height="132.208" transform="translate(6.819 5.075)" fill="#d2e1f1"/>
          <g id="Grupo_66281" data-name="Grupo 66281" transform="translate(69.555 193.613)">
            <rect id="Rectángulo_30213" data-name="Rectángulo 30213" width="73.777" height="4.221" rx="1.037" fill="#12263f"/>
          </g>
          <g id="Grupo_66291" data-name="Grupo 66291" transform="translate(6.819 5.201)">
            <rect id="Rectángulo_30215" data-name="Rectángulo 30215" width="199.251" height="19.706" opacity="0.2" style="isolation: isolate"/>
            <rect id="Rectángulo_30216" data-name="Rectángulo 30216" width="85.385" height="112.142" transform="translate(0 19.939)" fill="#fff" opacity="0.4"/>
            <g id="Grupo_66285" data-name="Grupo 66285" transform="translate(92.83 6.185)">
              <rect id="Rectángulo_30217" data-name="Rectángulo 30217" width="74.51" height="43.079" transform="translate(1.246 1.245)" fill="none" stroke="#fff" stroke-miterlimit="10" stroke-width="1" stroke-dasharray="5"/>
              <g id="Grupo_66282" data-name="Grupo 66282">
                <rect id="Rectángulo_30218" data-name="Rectángulo 30218" width="2.491" height="2.491" transform="translate(74.51)" fill="#407bff" stroke="#fff" stroke-miterlimit="10" stroke-width="1"/>
                <rect id="Rectángulo_30219" data-name="Rectángulo 30219" width="2.491" height="2.491" transform="translate(74.51 43.079)" fill="#407bff" stroke="#fff" stroke-miterlimit="10" stroke-width="1"/>
                <rect id="Rectángulo_30220" data-name="Rectángulo 30220" width="2.491" height="2.491" fill="#407bff" stroke="#fff" stroke-miterlimit="10" stroke-width="1"/>
                <rect id="Rectángulo_30221" data-name="Rectángulo 30221" width="2.491" height="2.491" transform="translate(0 43.079)" fill="#407bff" stroke="#fff" stroke-miterlimit="10" stroke-width="1"/>
              </g>
              <g id="Grupo_66283" data-name="Grupo 66283" transform="translate(37.255)">
                <rect id="Rectángulo_30222" data-name="Rectángulo 30222" width="2.491" height="2.491" fill="#407bff" stroke="#fff" stroke-miterlimit="10" stroke-width="1"/>
                <rect id="Rectángulo_30223" data-name="Rectángulo 30223" width="2.491" height="2.491" transform="translate(0 43.079)" fill="#407bff" stroke="#fff" stroke-miterlimit="10" stroke-width="1"/>
              </g>
              <g id="Grupo_66284" data-name="Grupo 66284" transform="translate(0 21.54)">
                <rect id="Rectángulo_30224" data-name="Rectángulo 30224" width="2.491" height="2.491" transform="translate(74.51)" fill="#407bff" stroke="#fff" stroke-miterlimit="10" stroke-width="1"/>
                <rect id="Rectángulo_30225" data-name="Rectángulo 30225" width="2.491" height="2.491" fill="#407bff" stroke="#fff" stroke-miterlimit="10" stroke-width="1"/>
              </g>
            </g>
            <path id="Rectángulo_30226" data-name="Rectángulo 30226" d="M1.893,0h17.42a1.894,1.894,0,0,1,1.894,1.894V5.953a1.894,1.894,0,0,1-1.894,1.894H1.893A1.893,1.893,0,0,1,0,5.953V1.893A1.893,1.893,0,0,1,1.893,0Z" transform="translate(142.099 21.901)" fill="#fff" opacity="0.7"/>
            <path id="Rectángulo_30227" data-name="Rectángulo 30227" d="M1.893,0h17.42a1.894,1.894,0,0,1,1.894,1.894v4.06a1.893,1.893,0,0,1-1.893,1.893H1.894A1.894,1.894,0,0,1,0,5.953V1.893A1.893,1.893,0,0,1,1.893,0Z" transform="translate(110.668 21.901)" fill="#fff" opacity="0.7"/>
            <path id="Rectángulo_30228" data-name="Rectángulo 30228" d="M1.894,0h17.42a1.894,1.894,0,0,1,1.894,1.894v4.06a1.893,1.893,0,0,1-1.893,1.893H1.894A1.894,1.894,0,0,1,0,5.953V1.894A1.894,1.894,0,0,1,1.894,0Z" transform="translate(70.202 117.443)" fill="#fff" opacity="0.7"/>
            <g id="Grupo_66286" data-name="Grupo 66286" transform="translate(186.103 7.007)">
              <line id="Línea_1770" data-name="Línea 1770" x2="6.632" fill="none" stroke="#fff" stroke-linecap="round" stroke-linejoin="round" stroke-width="1.5"/>
              <line id="Línea_1771" data-name="Línea 1771" x2="6.632" transform="translate(0 3.143)" fill="none" stroke="#fff" stroke-linecap="round" stroke-linejoin="round" stroke-width="1.5"/>
              <line id="Línea_1772" data-name="Línea 1772" x2="6.632" transform="translate(0 6.286)" fill="none" stroke="#fff" stroke-linecap="round" stroke-linejoin="round" stroke-width="1.5"/>
            </g>
            <path id="Trazado_188482" data-name="Trazado 188482" d="M0,0H66.833V66.833H0Z" transform="translate(13.508 37.322)" fill="#fff" opacity="0.5"/>
            <path id="Trazado_132671" data-name="Trazado 132671" d="M309.819,318.481H289.588a5.846,5.846,0,0,1-5.846-5.846h0a5.846,5.846,0,0,1,5.846-5.846h20.231a5.846,5.846,0,0,1,5.846,5.846h0A5.846,5.846,0,0,1,309.819,318.481Z" transform="translate(-157.604 -200.089)" fill="#fff" opacity="0.7"/>
            <g id="Grupo_66288" data-name="Grupo 66288" transform="translate(6.293 5.463)">
              <rect id="Rectángulo_30233" data-name="Rectángulo 30233" width="4.415" height="4.415" opacity="0.4" style="isolation: isolate"/>
              <path id="Rectángulo_30234" data-name="Rectángulo 30234" d="M1.439,0H2.976a1.44,1.44,0,0,1,1.44,1.44V2.976A1.439,1.439,0,0,1,2.976,4.415H1.44A1.44,1.44,0,0,1,0,2.976V1.439A1.439,1.439,0,0,1,1.439,0Z" transform="translate(8.585)" opacity="0.4" style="isolation: isolate"/>
              <path id="Rectángulo_30235" data-name="Rectángulo 30235" d="M2.208,0h0A2.207,2.207,0,0,1,4.415,2.207v0A2.207,2.207,0,0,1,2.208,4.415h0A2.208,2.208,0,0,1,0,2.208v0A2.208,2.208,0,0,1,2.208,0Z" transform="translate(17.17)" opacity="0.4" style="isolation: isolate"/>
            </g>
            <g id="Grupo_66290" data-name="Grupo 66290" transform="translate(9.002 108.057)">
              <g id="Grupo_66289" data-name="Grupo 66289">
                <path id="Trazado_132675" data-name="Trazado 132675" d="M145.5,314.791V313.07l-.886-.083a4.589,4.589,0,0,0-.661-1.59l.57-.688-1.217-1.216-.688.569a4.587,4.587,0,0,0-1.589-.661l-.083-.886h-1.721l-.083.886a4.584,4.584,0,0,0-1.59.661l-.688-.569-1.216,1.216.569.688a4.592,4.592,0,0,0-.661,1.59l-.886.083v1.721l.886.083a4.588,4.588,0,0,0,.661,1.589l-.569.688,1.216,1.217.688-.57a4.584,4.584,0,0,0,1.59.661l.083.886h1.721l.083-.886a4.587,4.587,0,0,0,1.589-.661l.688.57,1.217-1.217-.57-.688a4.585,4.585,0,0,0,.661-1.589Zm-5.415,1.469a2.329,2.329,0,1,1,2.329-2.329A2.329,2.329,0,0,1,140.088,316.26Z" transform="translate(-134.673 -308.516)" fill="#fff" opacity="0.9"/>
                <path id="Trazado_132676" data-name="Trazado 132676" d="M155.016,321.342v-1.348l-.695-.066a3.591,3.591,0,0,0-.518-1.245l.446-.539-.953-.953-.539.446a3.606,3.606,0,0,0-1.245-.518l-.065-.694H150.1l-.065.694a3.607,3.607,0,0,0-1.245.518l-.539-.446-.953.953.446.539a3.592,3.592,0,0,0-.518,1.245l-.695.066v1.348l.695.065a3.6,3.6,0,0,0,.518,1.245l-.446.538.953.954.539-.446a3.594,3.594,0,0,0,1.245.518l.065.695h1.348l.065-.695a3.594,3.594,0,0,0,1.245-.518l.539.446.953-.954-.446-.538a3.594,3.594,0,0,0,.518-1.245Zm-4.243,1.151a1.825,1.825,0,1,1,1.825-1.825A1.825,1.825,0,0,1,150.773,322.494Z" transform="translate(-137.213 -310.21)" fill="#fff" opacity="0.6"/>
                <path id="Trazado_132677" data-name="Trazado 132677" d="M146.512,326.428V325.3l-.583-.055a3.02,3.02,0,0,0-.435-1.046l.375-.453-.8-.8-.453.375a3.02,3.02,0,0,0-1.046-.435l-.055-.583h-1.132l-.055.583a3.024,3.024,0,0,0-1.047.435l-.452-.375-.8.8.375.453a3.019,3.019,0,0,0-.435,1.046l-.584.055v1.132l.583.055a3.019,3.019,0,0,0,.435,1.046l-.375.453.8.8.452-.374a3.038,3.038,0,0,0,1.047.435l.055.583h1.132l.055-.583a3.034,3.034,0,0,0,1.046-.435l.453.374.8-.8-.375-.453a3.02,3.02,0,0,0,.435-1.046Zm-3.564.967a1.533,1.533,0,1,1,1.533-1.533A1.534,1.534,0,0,1,142.947,327.4Z" transform="translate(-135.682 -311.468)" fill="#fff" opacity="0.4"/>
              </g>
            </g>
          </g>
          <g id="Grupo_66293" data-name="Grupo 66293" transform="translate(174.945 12.187)">
            <g id="Grupo_66292" data-name="Grupo 66292" transform="translate(0 0)">
              <path id="Trazado_132678" data-name="Trazado 132678" d="M337.177,179.892l3.334,8.909,5.576-5.576Z" transform="translate(-337.177 -179.892)" fill="#12263f"/>
              <rect id="Rectángulo_30236" data-name="Rectángulo 30236" width="1.757" height="3.904" transform="translate(4.12 5.363) rotate(-45)" fill="#12263f"/>
            </g>
          </g>
        </g>
      </g>
      <g id="Character_2" data-name="Character 2" transform="translate(273.522 83.369)">
        <g id="Grupo_66305" data-name="Grupo 66305">
          <g id="Grupo_66298" data-name="Grupo 66298" transform="translate(61.558 36.859)">
            <path id="Trazado_132686" data-name="Trazado 132686" d="M438.588,207.958c2.787,3.219,16.978,30.556,14.235,36.938s-25.481-.975-25.481-.975l1.359-9.006s8.836.31,9.682-.527-11.953-13.62-11.953-13.62Z" transform="translate(-426.429 -207.958)" fill="#1565c0"/>
          </g>
          <path id="Trazado_132688" data-name="Trazado 132688" d="M451.415,248.526c-.008,0-.016.008-.024.016-.141.071-.3.141-.456.2a.542.542,0,0,1-.063.024,3.5,3.5,0,0,1-.432.149,9.535,9.535,0,0,1-1.964.409c-.189.024-.377.039-.574.055-.283.024-.566.039-.856.047-.244.008-.5.016-.747.016-7.622.008-18.709-3.575-18.709-3.575l1.359-9.013s9.948.841,10.8,0a.1.1,0,0,0,.024-.039c.157-.33-.943-1.446-2.569-2.868l-.016-.016c-2.5-3.072-7.5-8.188-9.571-10.278l5.752-6.145,4.377-.472S447.407,232.685,451.415,248.526Z" transform="translate(-365.12 -173.044)" opacity="0.2" style="isolation: isolate"/>
          <g id="Grupo_66299" data-name="Grupo 66299" transform="translate(43.101 34.927)">
            <path id="Trazado_132689" data-name="Trazado 132689" d="M404.885,206.535c-1.576,1.143-2.35,2.761-1.731,3.615L444.677,267.4c.619.854,2.4.62,3.973-.522s2.35-2.761,1.73-3.615l-41.522-57.247C408.239,205.159,406.46,205.393,404.885,206.535Z" transform="translate(-402.94 -205.499)" fill="#263238"/>
            <path id="Trazado_132690" data-name="Trazado 132690" d="M408.857,206.014l41.522,57.247c.618.853-.158,2.473-1.729,3.612s-3.352,1.374-3.97.521l-41.522-57.247a1.787,1.787,0,0,1,.152-1.906,4.6,4.6,0,0,1,.788-1.028,6.17,6.17,0,0,1,.789-.679C406.458,205.4,408.239,205.162,408.857,206.014Z" transform="translate(-402.942 -205.499)" fill="#fff" opacity="0.7"/>
            <path id="Trazado_132691" data-name="Trazado 132691" d="M450.479,263.728c.618.853-.158,2.473-1.729,3.612s-3.352,1.374-3.971.521c-.342-.471.516-1.181,1.013-2.214l-42.383-56.939a4.6,4.6,0,0,1,.788-1.028l41.527,57.254a6.206,6.206,0,0,1,.784-.685C448.079,263.11,449.86,262.876,450.479,263.728Z" transform="translate(-403.041 -205.966)" opacity="0.3" style="isolation: isolate"/>
          </g>
          <g id="Grupo_66300" data-name="Grupo 66300" transform="translate(38.514 32.795)">
            <path id="Trazado_132692" data-name="Trazado 132692" d="M398.492,204.366c-1.33,1.421-1.783,3.156-1.013,3.877L449.1,256.576c.77.721,2.473.155,3.8-1.266s1.784-3.156,1.013-3.878L402.294,203.1C401.524,202.378,399.822,202.945,398.492,204.366Z" transform="translate(-397.104 -202.786)" fill="#407bff"/>
            <path id="Trazado_132693" data-name="Trazado 132693" d="M402.293,203.1l51.626,48.333c.769.72.314,2.459-1.012,3.875s-3.031,1.984-3.8,1.264L397.481,208.24a1.786,1.786,0,0,1-.212-1.9,4.609,4.609,0,0,1,.578-1.159,6.329,6.329,0,0,1,.646-.816C399.82,202.948,401.525,202.381,402.293,203.1Z" transform="translate(-397.104 -202.787)" fill="#fff" opacity="0.7"/>
            <path id="Trazado_132694" data-name="Trazado 132694" d="M453.963,252.086c.769.72.314,2.459-1.012,3.875s-3.031,1.984-3.8,1.264c-.425-.4.282-1.257.574-2.366l-52.413-47.867a4.614,4.614,0,0,1,.578-1.159l51.632,48.339a6.236,6.236,0,0,1,.64-.822C451.49,251.934,453.195,251.367,453.963,252.086Z" transform="translate(-397.148 -203.439)" opacity="0.3" style="isolation: isolate"/>
          </g>
          <path id="Trazado_132695" data-name="Trazado 132695" d="M410.633,377.767l-3.937.063c-4-18.788-6.828-42.039-8.589-59.578-.275-2.75-.526-5.351-.746-7.779-.1-1.155-.2-2.263-.3-3.332-.471-5.273-.794-9.453-.99-12.038-.141-1.886-.212-2.923-.212-2.923h14.223l-.134,3.622-.44,11.96-.047,1.367-.3,7.9-.495,13.445C413.548,349.4,410.633,377.767,410.633,377.767Z" transform="translate(-358.323 -189.141)" fill="#ebb376"/>
          <path id="Trazado_132696" data-name="Trazado 132696" d="M447.321,376.851l-3.874.731c-7.756-19.385-15.04-44.208-19.778-61.55-.731-2.687-1.407-5.2-2.012-7.481-.031-.118-.055-.228-.086-.338-1.194-4.526-2.114-8.133-2.687-10.419-.44-1.792-.684-2.774-.684-2.774l14.018-2.42.794,5.893,1.171,8.659.228,1.7.794,5.9,2.129,15.826C445.364,348.4,447.321,376.851,447.321,376.851Z" transform="translate(-363.108 -189.231)" fill="#ebb376"/>
          <path id="Trazado_132697" data-name="Trazado 132697" d="M434.369,308.569l-12.525,1.4c-.031-.118-.055-.228-.086-.338-1.194-4.526-2.114-8.133-2.687-10.419l14.128.7Z" transform="translate(-363.295 -190.647)" opacity="0.2" style="isolation: isolate"/>
          <path id="Trazado_132698" data-name="Trazado 132698" d="M410.007,296.6l-.44,11.96-.047,1.367-12.1,1.344c-.1-1.155-.2-2.263-.3-3.332-.471-5.273-.794-9.453-.99-12.038Z" transform="translate(-358.381 -189.938)" opacity="0.2" style="isolation: isolate"/>
          <path id="Trazado_132699" data-name="Trazado 132699" d="M399.775,414.176a7.728,7.728,0,0,1,2.463-1.34h0s2.68-2.658,3.969-10.661l3.508-.915a2.988,2.988,0,0,1,3.191,1.246,1.688,1.688,0,0,1,.223.461,20.437,20.437,0,0,1,.375,2.6,72.3,72.3,0,0,1,.05,8.787h-.634l-.251-5.518c-.094-1.872-1.528.325-1.938,2.341s-1.282,4.164-5.388,4.264C400.553,415.537,398.565,415.35,399.775,414.176Z" transform="translate(-359.087 -212.49)" fill="#1565c0"/>
          <path id="Trazado_132700" data-name="Trazado 132700" d="M414.694,401.554c.23-1.872.3-5.129.3-5.129l-7.793.864a15.034,15.034,0,0,1,.165,6.483C411.294,402.743,414.694,401.554,414.694,401.554Z" transform="translate(-360.753 -211.472)" fill="#1565c0"/>
          <path id="Trazado_132701" data-name="Trazado 132701" d="M440.134,414.176a7.719,7.719,0,0,1,2.463-1.34h0s2.679-2.658,3.969-10.661l3.508-.915a2.989,2.989,0,0,1,3.191,1.246,1.71,1.71,0,0,1,.223.461,20.431,20.431,0,0,1,.375,2.6,72.308,72.308,0,0,1,.05,8.787h-.634l-.252-5.518c-.094-1.872-1.527.325-1.937,2.341s-1.282,4.164-5.388,4.264C440.912,415.537,438.924,415.35,440.134,414.176Z" transform="translate(-367.733 -212.49)" fill="#1565c0"/>
          <path id="Trazado_132702" data-name="Trazado 132702" d="M455.053,401.554c.23-1.872.3-5.129.3-5.129l-7.794.864a15.029,15.029,0,0,1,.166,6.483C451.652,402.743,455.053,401.554,455.053,401.554Z" transform="translate(-369.398 -211.472)" fill="#1565c0"/>
          <path id="Trazado_132703" data-name="Trazado 132703" d="M430.074,292.736l-14.828,1.894-.574.071-3.049-11.174-.8,11.975-15.888-.833c-7.08-41.544,5.021-51.359,5.021-51.359l21.554,4.338c9.762,16.592,7.439,35.88,7.439,35.88Z" transform="translate(-357.648 -178.672)" fill="#ffd947"/>
          <g id="Grupo_66301" data-name="Grupo 66301" transform="translate(48.782)">
            <path id="Trazado_132704" data-name="Trazado 132704" d="M413.4,176.635c0,1.631-.724,2.953-1.616,2.953s-1.616-1.322-1.616-2.953.724-2.954,1.616-2.954S413.4,175,413.4,176.635Z" transform="translate(-410.17 -163.756)" fill="none" stroke="#263238" stroke-linecap="round" stroke-linejoin="round" stroke-width="0.5"/>
            <path id="Trazado_132705" data-name="Trazado 132705" d="M424.487,184.591a1.112,1.112,0,0,1-.187.138,8.591,8.591,0,0,1-3.011,1.473c-3.184.735-5.359.3-6.778-1.142H414.5c-1.988-2.161-2.485-5.989-2.2-10.606a17.345,17.345,0,0,1,1.008-5.393c.008-.015.008-.068.015-.082.028-.058.05-.138.079-.2a6.3,6.3,0,0,1,4.632-3.846,12.776,12.776,0,0,1,2.73-.307C429.766,164.534,431.387,179.449,424.487,184.591Z" transform="translate(-410.611 -161.817)" fill="#ebb376"/>
            <path id="Trazado_132706" data-name="Trazado 132706" d="M424.922,190.016a8.377,8.377,0,0,1-3.011,1.347c-3.184.735-5.359.194-6.778-1.267a8.984,8.984,0,0,0,5.712-.468A4.682,4.682,0,0,1,424.922,190.016Z" transform="translate(-411.233 -167.104)" opacity="0.2" style="isolation: isolate"/>
            <path id="Trazado_132707" data-name="Trazado 132707" d="M426.245,197.655c.555,2.564-2.766,3.608-2.766,3.608-5.431-2.319-6.439-5.207-6.439-5.207,4.531-2.363,3.219-9.047,3.219-9.047l.923.454,6.47,1.266s-1.8,3.445-2.034,4.23c0,.007-.007.015-.007.022C424.394,197.086,426.245,197.655,426.245,197.655Z" transform="translate(-411.642 -166.611)" fill="#ebb376"/>
            <path id="Trazado_132708" data-name="Trazado 132708" d="M413.6,168.363a9.466,9.466,0,0,0,5.487,9.026s2.569,6.559,6.351,6.652c5.157.126,9.7-7.212,7.915-14.685C431.032,159.664,416.35,158.876,413.6,168.363Z" transform="translate(-410.902 -161.179)" fill="#263238"/>
            <path id="Trazado_132709" data-name="Trazado 132709" d="M416.725,178.708c0-.985.794-2.639,2.324-2.415,1.585.233,2.464,4.139-1.431,5.012C417.06,181.43,416.72,180.763,416.725,178.708Z" transform="translate(-411.574 -164.311)" fill="#ebb376"/>
            <path id="Trazado_132710" data-name="Trazado 132710" d="M424.055,161.523s-6.024-1.524-9.353.9c-3.889,2.828-5.363,5.754-.759,10.3,0,0,10.114-3.278,13.476-2.584a36.4,36.4,0,0,1,5.766,1.675C433.893,165.129,427.419,160.157,424.055,161.523Z" transform="translate(-410.366 -161.05)" fill="#263238"/>
            <path id="Trazado_132711" data-name="Trazado 132711" d="M416.48,173.987s1.609,7.282-.9,13.483c0,0,14.3,4.961,19.274,2.267s.414-11.742.207-16.958-2.474-12.925-10.045-11.2S416.48,173.987,416.48,173.987Z" transform="translate(-411.33 -161.111)" fill="#263238"/>
            <line id="Línea_1774" data-name="Línea 1774" x2="6.042" transform="translate(0 12.412)" fill="none" stroke="#263238" stroke-linecap="round" stroke-linejoin="round" stroke-width="0.5"/>
          </g>
          <path id="Trazado_132712" data-name="Trazado 132712" d="M420.4,300.964l-.574.071-3.049-11.174s6.538-11.166,4.495-16.981C421.565,273.289,428.606,283.732,420.4,300.964Z" transform="translate(-362.804 -185.006)" opacity="0.2" style="isolation: isolate"/>
          <g id="Grupo_66302" data-name="Grupo 66302" transform="translate(37.904 29.49)">
            <path id="Trazado_132713" data-name="Trazado 132713" d="M403.779,199.569s7.19-2.565,18.03.564,11.238,7.745,11.238,7.745a109.32,109.32,0,0,0-7.948,33.187l-28.243-1.056S393.486,215.14,403.779,199.569Z" transform="translate(-396.327 -198.58)" fill="#1565c0"/>
          </g>
          <path id="Trazado_132715" data-name="Trazado 132715" d="M403.387,225.321a19.954,19.954,0,0,1-7.049,11.582,84.268,84.268,0,0,1,.786-12.643Z" transform="translate(-358.424 -174.591)" opacity="0.2" style="isolation: isolate"/>
          <path id="Trazado_132716" data-name="Trazado 132716" d="M361.852,196.074l-3.56-5.282s-.548-2.294-1.232-2.818-7.533-3.427-8.354-3.413-.822,5.328,0,6.231,5.135,2.839,6.265,3.035.582,0,.582,0l3.15,6.279Z" transform="translate(-348.09 -166.087)" fill="#ebb376"/>
          <g id="Grupo_66303" data-name="Grupo 66303" transform="translate(7.6 26.163)">
            <path id="Trazado_132717" data-name="Trazado 132717" d="M395.517,198.662a155.219,155.219,0,0,0-22.02,11.361l-11.49-15.677s-3.1.963-4.246,6.351c0,0,5.9,22.485,13.571,24.713s23.791-6.494,23.791-6.494S399.807,207.2,395.517,198.662Z" transform="translate(-357.762 -194.346)" fill="#1565c0"/>
          </g>
          <g id="Grupo_66304" data-name="Grupo 66304" transform="translate(52.624 29.489)">
            <path id="Trazado_132719" data-name="Trazado 132719" d="M415.06,198.582s2.507,17.943,10.453,18.669,11.5-12.531,10.155-14.141S424.088,198.462,415.06,198.582Z" transform="translate(-415.06 -198.579)" fill="#263238"/>
            <path id="Trazado_132720" data-name="Trazado 132720" d="M415.06,198.582s2.507,17.943,10.453,18.669,11.5-12.531,10.155-14.141S424.088,198.462,415.06,198.582Z" transform="translate(-415.06 -198.579)" fill="#7d6eb2" opacity="0.3" style="isolation: isolate"/>
          </g>
        </g>
      </g>
      <g id="Character_1" data-name="Character 1" transform="translate(16.74 66.515)">
        <g id="_Group_" data-name="&lt;Group&gt;" transform="translate(0 0)">
          <path id="Trazado_132721" data-name="Trazado 132721" d="M55.362,404.992H61.18l.481-13.479H55.836Z" transform="translate(-28.599 -193.566)" fill="#b97964"/>
          <path id="Trazado_132722" data-name="Trazado 132722" d="M61.413,407.809H54.344a.511.511,0,0,0-.5.4L52.7,413.39a.858.858,0,0,0,.662,1.018.848.848,0,0,0,.189.019c2.287-.038,3.953-.178,6.825-.178,1.769,0,7.106.185,9.548.185s2.761-2.413,1.762-2.635c-4.485-.977-7.861-2.332-9.3-3.62A1.4,1.4,0,0,0,61.413,407.809Z" transform="translate(-28.025 -197.057)" fill="#ffd947"/>
          <path id="Trazado_132723" data-name="Trazado 132723" d="M64.273,408.491a.14.14,0,0,1-.1-.119.126.126,0,0,1,.067-.133c.207-.134,2.087-1.288,2.731-.955a.415.415,0,0,1,.237.385.812.812,0,0,1-.288.74,1.74,1.74,0,0,1-1.117.3A6.985,6.985,0,0,1,64.273,408.491Zm.4-.193a2.825,2.825,0,0,0,2.072-.1.569.569,0,0,0,.185-.5c-.008-.112-.052-.163-.089-.163a.311.311,0,0,0-.178-.037A5.644,5.644,0,0,0,64.673,408.3Z" transform="translate(-30.485 -196.931)" fill="#407bff"/>
          <path id="Trazado_132724" data-name="Trazado 132724" d="M64.237,408.161a.146.146,0,0,1-.067-.126c.008-.081.149-1.754.822-2.3a.738.738,0,0,1,.585-.178.45.45,0,0,1,.444.362c.119.615-1.044,1.9-1.643,2.221h-.067A.122.122,0,0,1,64.237,408.161Zm.933-2.265a3.26,3.26,0,0,0-.688,1.821c.6-.451,1.34-1.421,1.266-1.8-.008-.037-.023-.141-.2-.141H65.48A.476.476,0,0,0,65.17,405.9Z" transform="translate(-30.486 -196.573)" fill="#407bff"/>
          <path id="Trazado_132725" data-name="Trazado 132725" d="M55.9,391.522h5.825l-.252,6.951H55.645Z" transform="translate(-28.66 -193.568)" opacity="0.2" style="isolation: isolate"/>
          <path id="Trazado_132726" data-name="Trazado 132726" d="M93.494,405.692l6.005.634,1.127-12.951-6-.634Z" transform="translate(-36.768 -193.829)" fill="#b97964"/>
          <path id="Trazado_132727" data-name="Trazado 132727" d="M99.564,407.574H92.495a.51.51,0,0,0-.5.4l-1.147,5.181a.858.858,0,0,0,.662,1.018.842.842,0,0,0,.189.019c2.287-.037,3.953-.178,6.825-.178,1.769,0,7.106.185,9.548.185s2.761-2.412,1.762-2.635c-4.485-.977-7.861-2.331-9.3-3.619A1.4,1.4,0,0,0,99.564,407.574Z" transform="translate(-36.198 -197.006)" fill="#ffd947"/>
          <path id="Trazado_132728" data-name="Trazado 132728" d="M102.424,408.255a.139.139,0,0,1-.1-.118.127.127,0,0,1,.067-.134c.207-.133,2.087-1.288,2.731-.955a.413.413,0,0,1,.237.385.813.813,0,0,1-.288.74,1.735,1.735,0,0,1-1.117.3A6.941,6.941,0,0,1,102.424,408.255Zm.4-.192a2.829,2.829,0,0,0,2.072-.1.569.569,0,0,0,.185-.5c-.008-.111-.052-.163-.089-.163a.324.324,0,0,0-.178-.037A5.658,5.658,0,0,0,102.824,408.062Z" transform="translate(-38.658 -196.881)" fill="#407bff"/>
          <path id="Trazado_132729" data-name="Trazado 132729" d="M102.388,407.926a.148.148,0,0,1-.067-.126c.008-.082.149-1.755.822-2.3a.741.741,0,0,1,.585-.178.452.452,0,0,1,.444.363c.119.615-1.044,1.894-1.643,2.221h-.067A.124.124,0,0,1,102.388,407.926Zm.933-2.265a3.258,3.258,0,0,0-.688,1.821c.6-.452,1.34-1.421,1.266-1.8-.008-.037-.023-.141-.2-.141h-.067A.468.468,0,0,0,103.321,405.661Z" transform="translate(-38.659 -196.522)" fill="#407bff"/>
          <path id="Trazado_132730" data-name="Trazado 132730" d="M94.768,392.741l6,.634-.586,6.68-6.005-.634Z" transform="translate(-36.915 -193.829)" opacity="0.2" style="isolation: isolate"/>
          <path id="Trazado_132731" data-name="Trazado 132731" d="M57.714,241.05H88.6c2.937,16.035,12.129,72.78,5.534,123.339l-10.456-1.3s.968-67.12-8.263-91.933c-1.062,13.28-2.323,27.41-3.417,34.928-2.687,18.506-8.439,58.948-8.439,58.948H52.913s2.177-38.711,3.183-56.9C57.2,288.393,57.672,245.1,57.714,241.05Z" transform="translate(-28.074 -161.334)" fill="#12263f"/>
          <g id="Grupo_66306" data-name="Grupo 66306" transform="translate(54.312 199.982)">
            <path id="Trazado_132732" data-name="Trazado 132732" d="M103.363,399.611l-12.941-1.925.4-3.584,13.462,1.767Z" transform="translate(-90.422 -394.102)" fill="#727997"/>
          </g>
          <g id="Grupo_66307" data-name="Grupo 66307" transform="translate(24.209 199.79)">
            <path id="Trazado_132733" data-name="Trazado 132733" d="M64.666,397.855H52.112V394.1l13.028-.244Z" transform="translate(-52.112 -393.858)" fill="#727997"/>
          </g>
          <path id="Trazado_132734" data-name="Trazado 132734" d="M81.55,276.374A82.784,82.784,0,0,1,85,289.735c.864-11.816-2.591-24.35-2.591-24.35Z" transform="translate(-34.209 -166.547)" opacity="0.2" style="isolation: isolate"/>
          <path id="Trazado_132735" data-name="Trazado 132735" d="M57.72,247.89l-.7,3.73s21.61,2.8,35.054,2.72l-.466-2.565Z" transform="translate(-28.953 -162.799)" fill="#7d6eb2"/>
          <path id="Trazado_132736" data-name="Trazado 132736" d="M113.737,206.017s7.477,23.566,12.588,25.107,18.111-17.907,18.111-17.907,11.65-.112,12.172-.908-3.028-9-3.879-9.014-10.995,3.816-11.388,4.456-12.033,11.771-12.6,11.457-4.968-14.337-4.968-14.337Z" transform="translate(-41.104 -153.246)" fill="#b97964"/>
          <path id="Trazado_132737" data-name="Trazado 132737" d="M154.7,214.307a2.5,2.5,0,0,0,.28-.072c-.05-.029-.094-.057-.137-.086A.96.96,0,0,1,154.7,214.307Z" transform="translate(-49.879 -155.571)" fill="#b97964"/>
          <g id="Grupo_66308" data-name="Grupo 66308" transform="translate(68.39 36.645)">
            <path id="Trazado_132738" data-name="Trazado 132738" d="M108.338,199.642l.912,1.679,4.256,7.866.882,1.622,11.934-4.148s-4.959-18.529-6.682-20.424Z" transform="translate(-108.338 -186.237)" fill="#ffd947"/>
          </g>
          <path id="Trazado_132740" data-name="Trazado 132740" d="M109.5,204.242l4.256,7.866c2.626-5.167,1.865-12.236,1.865-12.236Z" transform="translate(-40.196 -152.513)" opacity="0.2" style="isolation: isolate"/>
          <g id="Grupo_66309" data-name="Grupo 66309" transform="translate(28.062 27.791)">
            <path id="Trazado_132741" data-name="Trazado 132741" d="M108.645,183.821A25.321,25.321,0,0,0,90.67,175.1c-11.7-.549-15.373.614-19.649,4.431-6.246,5.576-14.006,53.627-14.006,53.627a108.5,108.5,0,0,0,35.06,3.813s.141-13.337,4.36-22.328A249.693,249.693,0,0,0,108.645,183.821Z" transform="translate(-57.015 -174.969)" fill="#ffd947"/>
            <path id="Trazado_132744" data-name="Trazado 132744" d="M107.066,200.615l2.331.233-1.71,1.321Z" transform="translate(-67.737 -180.463)" fill="#fff" opacity="0.4" style="isolation: isolate"/>
          </g>
          <path id="Trazado_132745" data-name="Trazado 132745" d="M95.468,173.481c1.264,3.615,5.972,5.265,8.442,5.474a4.2,4.2,0,0,0,4.475-2.426s-2.815-1.4-2.538-2.985a7.435,7.435,0,0,1,1.162-2.687,15.506,15.506,0,0,1,.965-1.329l-4.517-9.682C102.445,164.071,99.358,172.129,95.468,173.481Z" transform="translate(-37.191 -143.938)" fill="#b97964"/>
          <path id="Trazado_132746" data-name="Trazado 132746" d="M105.2,165.57c-2.156,4.691.889,7.958,2.573,9.2a7.436,7.436,0,0,1,1.162-2.687Z" transform="translate(-39.116 -145.165)" opacity="0.2" style="isolation: isolate"/>
          <g id="Grupo_66312" data-name="Grupo 66312" transform="translate(59.618)">
            <g id="Grupo_66310" data-name="Grupo 66310" transform="translate(14.306 7.291)">
              <path id="Trazado_132747" data-name="Trazado 132747" d="M122.692,149.414s1.445,7.981-2.722,11.185-4.59-11.718-4.59-11.718Z" transform="translate(-115.38 -148.88)" fill="#b97964"/>
              <path id="Trazado_132748" data-name="Trazado 132748" d="M122.692,149.414s1.445,7.981-2.722,11.185-4.59-11.718-4.59-11.718Z" transform="translate(-115.38 -148.88)" opacity="0.4" style="isolation: isolate"/>
            </g>
            <path id="Trazado_132749" data-name="Trazado 132749" d="M105.224,167.243a7.279,7.279,0,0,0,8.433,2.583,8.226,8.226,0,0,0,4.881-4.678c1.956-4.957,2.4-17.061-2.891-16.609-4.332.37-8.581-.971-10.792,2.779a7.832,7.832,0,0,0-1.086,3.5C103.3,160.566,102.745,163.921,105.224,167.243Z" transform="translate(-98.5 -141.514)" fill="#b97964"/>
            <path id="Trazado_132750" data-name="Trazado 132750" d="M114.609,159.921c-.1.456.123.874.432.917s.6-.3.67-.765-.13-.875-.432-.917S114.679,159.452,114.609,159.921Z" transform="translate(-100.904 -143.79)" fill="#263238"/>
            <path id="Trazado_132751" data-name="Trazado 132751" d="M121.294,160.869c-.1.456.13.876.432.918s.6-.3.67-.765-.13-.875-.432-.917S121.357,160.428,121.294,160.869Z" transform="translate(-102.336 -143.993)" fill="#263238"/>
            <path id="Trazado_132752" data-name="Trazado 132752" d="M118.961,161.068a16.691,16.691,0,0,0,1.656,4.29,2.715,2.715,0,0,1-2.292.1Z" transform="translate(-101.705 -144.2)" fill="#a24e3f"/>
            <path id="Trazado_132753" data-name="Trazado 132753" d="M112.8,157.317a.289.289,0,0,0,.28-.069,2.223,2.223,0,0,1,1.876-.666.274.274,0,1,0,.115-.535h0a2.732,2.732,0,0,0-2.376.809.275.275,0,0,0-.013.387l0,0A.424.424,0,0,0,112.8,157.317Z" transform="translate(-100.48 -143.118)" fill="#263238"/>
            <path id="Trazado_132754" data-name="Trazado 132754" d="M124.021,158.6a.268.268,0,0,0,.16.034.274.274,0,0,0,.181-.342l0-.006a2.731,2.731,0,0,0-1.747-1.812.273.273,0,0,0-.336.193h0a.281.281,0,0,0,.193.337h0a2.22,2.22,0,0,1,1.361,1.457A.283.283,0,0,0,124.021,158.6Z" transform="translate(-102.55 -143.214)" fill="#263238"/>
            <path id="Trazado_132755" data-name="Trazado 132755" d="M113.684,166.918s.967,2.076,2.934,2" transform="translate(-100.711 -145.453)" fill="none" stroke="#263238" stroke-linecap="round" stroke-linejoin="round" stroke-width="0.5"/>
            <g id="Grupo_66311" data-name="Grupo 66311" transform="translate(2.098 6.782)">
              <path id="Trazado_132756" data-name="Trazado 132756" d="M108.212,148.233l.072,2.559a1.894,1.894,0,0,0-1.169,2.286c.618,2.2-.9,5.391-2.654,6.554,0,0,.036-.926-.762-.78s-1.032,4.965.271,7.4a13.928,13.928,0,0,1-3.607-7.716c-.762-4.773-.631-7.8.046-10.078Z" transform="translate(-99.845 -148.233)" fill="#b97964"/>
              <path id="Trazado_132757" data-name="Trazado 132757" d="M108.212,148.233l.072,2.559a1.894,1.894,0,0,0-1.169,2.286c.618,2.2-.9,5.391-2.654,6.554,0,0,.036-.926-.762-.78s-1.032,4.965.271,7.4a13.928,13.928,0,0,1-3.607-7.716c-.762-4.773-.631-7.8.046-10.078Z" transform="translate(-99.845 -148.233)" opacity="0.4" style="isolation: isolate"/>
            </g>
            <path id="Trazado_132758" data-name="Trazado 132758" d="M99.331,149.456a26.556,26.556,0,0,0,8.381-.514c7.921-1.575,11.287,1.338,11.287,1.338a4.986,4.986,0,0,0,1.646-3.9c-.233-2.281-3.4-2.67-3.4-2.67a6.174,6.174,0,0,0-3.053-3.342c-2.1-.777-4.2,1.166-4.2,1.166s-2.62-2.525-5.665-1.808a4.574,4.574,0,0,0-3.656,4.451s-3.575.365-3.5,2.2S99.331,149.456,99.331,149.456Z" transform="translate(-97.174 -139.602)" fill="#263238"/>
            <ellipse id="Elipse_4103" data-name="Elipse 4103" cx="2.567" cy="2.959" rx="2.567" ry="2.959" transform="translate(11.745 13.554)" fill="none" stroke="#263238" stroke-linecap="round" stroke-linejoin="round" stroke-width="0.5"/>
            <path id="Trazado_132759" data-name="Trazado 132759" d="M125.476,160.368a2.592,2.592,0,1,1-2.566-2.958A2.784,2.784,0,0,1,125.476,160.368Z" transform="translate(-102.138 -143.417)" fill="none" stroke="#263238" stroke-linecap="round" stroke-linejoin="round" stroke-width="0.5"/>
            <path id="Trazado_132760" data-name="Trazado 132760" d="M118.654,161.011s.827-.521,1.327.084" transform="translate(-101.776 -144.143)" fill="none" stroke="#263238" stroke-linecap="round" stroke-linejoin="round" stroke-width="0.5"/>
            <path id="Trazado_132761" data-name="Trazado 132761" d="M110.389,160.448l-4.507-.6a2.214,2.214,0,0,0-1.653.448l-.2.153" transform="translate(-98.644 -143.934)" fill="none" stroke="#263238" stroke-linecap="round" stroke-linejoin="round" stroke-width="0.5"/>
            <path id="Trazado_132762" data-name="Trazado 132762" d="M99.825,161.125a5.484,5.484,0,0,0,2.724,3.186c1.718.862,2.944-.589,2.779-2.4-.163-1.612-1.238-4.055-3.118-4.143A2.449,2.449,0,0,0,99.825,161.125Z" transform="translate(-97.713 -143.492)" fill="#b97964"/>
          </g>
          <path id="Trazado_132763" data-name="Trazado 132763" d="M63.322,210.788c7.413-3.079,13.277-15.8,13.277-15.8l-4.213-2.548-5.72,4.6c-.172.625-.345,1.264-.517,1.909-.768,2.914-1.521,6.021-2.232,9.164C63.716,209,63.515,209.9,63.322,210.788Z" transform="translate(-30.304 -150.92)" opacity="0.2" style="isolation: isolate"/>
          <path id="Trazado_132764" data-name="Trazado 132764" d="M115.308,216.227l12.8-4.7.363,1.088-12.8,4.559Z" transform="translate(-41.441 -155.01)" fill="#7d6eb2"/>
          <g id="Grupo_66314" data-name="Grupo 66314" transform="translate(0 87.676)">
            <rect id="Rectángulo_30237" data-name="Rectángulo 30237" width="37.545" height="23.158" transform="translate(3.628 0) rotate(9.013)" fill="#727997"/>
            <g id="Grupo_66313" data-name="Grupo 66313" transform="translate(9.222 8.707)">
              <path id="Trazado_132765" data-name="Trazado 132765" d="M40.571,262.261l-7.532,3.9,5.954,6.043" transform="translate(-33.04 -262.261)" fill="none" stroke="#fff" stroke-linecap="round" stroke-linejoin="round" stroke-width="2"/>
              <path id="Trazado_132766" data-name="Trazado 132766" d="M51.789,273.98l7.532-3.9-5.954-6.043" transform="translate(-37.056 -262.641)" fill="none" stroke="#fff" stroke-linecap="round" stroke-linejoin="round" stroke-width="2"/>
              <line id="Línea_1775" data-name="Línea 1775" y1="9.387" x2="5.109" transform="translate(8.578 0.976)" fill="none" stroke="#fff" stroke-linecap="round" stroke-linejoin="round" stroke-width="2"/>
            </g>
          </g>
          <path id="Trazado_132767" data-name="Trazado 132767" d="M63.115,183.375S49.142,197.4,47.233,200.133s-5.551,32.953-5.551,32.953-.768.266-.834.919-.123,9.142,0,9.535,6.557,4.363,7.5,3.419S50.623,236.4,50.623,236.4l-3.391-3.316s3.949-22.262,6.414-25.865S66.3,195.9,66.3,195.9Z" transform="translate(-25.474 -148.979)" fill="#b97964"/>
          <g id="Grupo_66315" data-name="Grupo 66315" transform="translate(25.69 28.749)">
            <path id="Trazado_132768" data-name="Trazado 132768" d="M76.691,176.188c2.037,4.313.488,13.4-3.265,16.6A110.146,110.146,0,0,1,60.863,201.8L54,192.827s7.292-7.12,11.708-11.222A19.986,19.986,0,0,1,76.691,176.188Z" transform="translate(-53.997 -176.188)" fill="#ffd947"/>
          </g>
          <path id="Trazado_132770" data-name="Trazado 132770" d="M53.766,196.626l-.849,1.157,7.163,9.361,1.013-.725Z" transform="translate(-28.075 -151.817)" fill="#7d6eb2"/>
        </g>
      </g>
    </g>
  </g>
</svg>
