<svg xmlns="http://www.w3.org/2000/svg" xmlns:xlink="http://www.w3.org/1999/xlink" width="151.001" height="151.002" viewBox="0 0 151.001 151.002">
  <defs>
    <radialGradient id="radial-gradient" cx="0.076" cy="0.019" r="1.465" gradientTransform="translate(0.001)" gradientUnits="objectBoundingBox">
      <stop offset="0" stop-color="#f6f6f7"/>
      <stop offset="0.477" stop-color="#f9f9fa"/>
      <stop offset="0.715" stop-color="#fff"/>
    </radialGradient>
  </defs>
  <g id="Grupo_49868" data-name="Grupo 49868" transform="translate(0 0.001)">
    <g id="Grupo_18531" data-name="Grupo 18531">
      <g id="Grupo_18423" data-name="Grupo 18423" transform="translate(0 0)">
        <g id="Grupo_18421" data-name="Grupo 18421">
          <g id="Grupo_18420" data-name="Grupo 18420">
            <g id="Grupo_18419" data-name="Grupo 18419">
              <path id="Trazado_40936" data-name="Trazado 40936" d="M345.623,2221.219a75.5,75.5,0,1,1-75.5-75.5A75.5,75.5,0,0,1,345.623,2221.219Z" transform="translate(-194.623 -2145.721)" fill="#fff"/>
            </g>
          </g>
        </g>
        <path id="Trazado_40937" data-name="Trazado 40937" d="M344.548,2220.047a75.5,75.5,0,1,0-75.5,75.5A75.2,75.2,0,0,0,344.548,2220.047Z" transform="translate(-193.548 -2144.549)" fill="url(#radial-gradient)"/>
        <path id="Trazado_40938" data-name="Trazado 40938" d="M317.075,2210.479a57.629,57.629,0,1,0-57.629,57.629A57.415,57.415,0,0,0,317.075,2210.479Z" transform="translate(-183.717 -2134.729)" fill="none" stroke="#00223d" stroke-miterlimit="10" stroke-width="4"/>
        <g id="Grupo_18422" data-name="Grupo 18422" transform="translate(13.376 42.388)">
          <path id="Trazado_40939" data-name="Trazado 40939" d="M330.536,2164.488a75.509,75.509,0,0,1-129.991,75.188,75.269,75.269,0,0,0,129.991-75.187Z" transform="translate(-200.545 -2164.488)" fill="#eceef0"/>
        </g>
      </g>
    </g>
    <g id="Grupo_52998" data-name="Grupo 52998" transform="translate(45.05 39.185)">
      <path id="Trazado_114962" data-name="Trazado 114962" d="M-1029.063,1401.188a16.907,16.907,0,0,1-1.808.207q-21.823.018-43.645.012c-.252,0-.505,0-.757-.018a1.205,1.205,0,0,1-1.279-1.344c-.021-1.233-.038-2.468.006-3.7.024-.677-.231-.884-.88-.861-1.036.038-2.074.019-3.111,0-1-.021-1.428-.452-1.442-1.449-.016-1.233-.006-2.466-.006-3.7q0-28.087,0-56.175c0-1.751.307-2.056,2.044-2.056h43.561c1.663,0,1.991.334,1.992,2.025,0,1.065.014,2.13-.008,3.2-.01.493.143.7.672.685,1.008-.034,2.018-.01,3.027,0,1.3.01,1.714.424,1.714,1.706,0,4.177.009,8.353-.011,12.53a1.386,1.386,0,0,0,.578,1.2,32.625,32.625,0,0,1,10.15,13.57,21.95,21.95,0,0,1,.97,10.844c-.3,2.329-.632,4.665-.722,7.006a14.628,14.628,0,0,0,1.562,7.072,23.612,23.612,0,0,0,1.576,2.472c.957,1.449,1.93,2.887,2.882,4.339.711,1.084.583,1.668-.508,2.37q-5.018,3.227-10.044,6.443c-1.287.823-1.791.721-2.62-.525-1.132-1.7-2.253-3.412-3.382-5.117C-1028.73,1401.642-1028.93,1401.375-1029.063,1401.188Zm-9.586-20.695a4.416,4.416,0,0,0-.577-.706c-.5-.41-1.026-.781-.493-1.38l-.823-.2a3.583,3.583,0,0,1,.667-.586,4.378,4.378,0,0,1,.919-.257l-.066-.288-2,.437a2.588,2.588,0,0,1-.308-.591c-.243-1.074-.967-1.178-1.932-1.173-7.176.038-14.353.021-21.529.021-1.45,0-2.037-.373-2.033-1.285,0-.865.6-1.23,1.989-1.23q10.933,0,21.865.011c.629,0,1.013-.114,1.242-.794a2.644,2.644,0,0,1,2.284-1.86,20.5,20.5,0,0,1,2.417-.018v-35.849h-42.419v1.229q0,27.962,0,55.925c0,1.087,0,1.085,1.109,1.085q19.931,0,39.862,0c1.807,0,1.493.164,1.515-1.512a37.852,37.852,0,0,1,.077-4.953c.326-2.221.229-4.2-1.564-5.794a3.3,3.3,0,0,1-.226-.244c.406-.441.837-.907.46-1.542a4.15,4.15,0,0,0-.8-.775l-.266.183C-1038.092,1378.824-1038.511,1379.692-1038.649,1380.493Zm10.018-24.05-.295.167c-.015.211-.044.423-.045.634-.006,1.738-.048,3.477.018,5.212a2.544,2.544,0,0,0,.567,1.478,9.995,9.995,0,0,1,2.313,4.418,26.224,26.224,0,0,1,.7,4.3,14.964,14.964,0,0,1-2.186,9.56,1.932,1.932,0,0,1-1.755.938,2.76,2.76,0,0,1-2.228-1.317c-.991-1.453-1.877-2.977-2.779-4.489-.516-.864-.927-1.794-1.481-2.632a3.337,3.337,0,0,0-2.766-1.663c-.6-.018-.916.264-.933.825-.051,1.683.963,2.9,1.911,4.117s1.971,2.33,2.923,3.523c.089.111-.109.451-.187.731l.822.134c0,1.793-.069,3.581.017,5.361.111,2.278.308,4.648,1.9,6.4a64.27,64.27,0,0,0,5.2,4.651c2.366-1.512,5.175-3.3,7.963-5.114a.724.724,0,0,0,.13-.674c-2-4.443-2.067-9.047-1.252-13.75a23.824,23.824,0,0,0,.324-7.94,22.752,22.752,0,0,0-4.877-10.378C-1025.861,1359.358-1027.29,1357.935-1028.63,1356.442Zm-5.963,38.853c-.677.071-1.277.189-1.878.189q-17.612.017-35.225.01c-2.383,0-2.349,0-2.372,2.388-.008.826.277,1.012,1.057,1.011q20.26-.033,40.521-.017h.88l.139-.261Zm2.851-18.587.173-.056v-36.019h-2.814v1.123c0,9.552.018,19.1-.022,28.656a5.013,5.013,0,0,0,.993,3.327A22.291,22.291,0,0,1-1031.742,1376.709Zm17.137,22.725-2.487-3.737-8.861,5.508,2.566,3.863Zm-14.336-20.311c1.534-2.336,1.232-9.513,0-10.753Z" transform="translate(1081.987 -1332.103)" fill="#12263f"/>
      <path id="Trazado_114965" data-name="Trazado 114965" d="M-995.433,1707.767l3.123,3.321-.14.261h-.88q-20.261,0-40.521.017c-.78,0-1.065-.185-1.057-1.011.023-2.388-.011-2.388,2.372-2.388q17.612,0,35.225-.01C-996.711,1707.956-996.11,1707.838-995.433,1707.767Z" transform="translate(1042.828 -1644.575)" fill="#fff"/>
      <path id="Trazado_114968" data-name="Trazado 114968" d="M-766.642,1558.452V1547.7C-765.41,1548.939-765.108,1556.116-766.642,1558.452Z" transform="translate(819.688 -1511.432)" fill="#fff"/>
      <path id="Trazado_114969" data-name="Trazado 114969" d="M-827.524,1608.182l.026.022c.138-.8.557-1.668-.637-2.156l.266-.183a4.141,4.141,0,0,1,.8.775C-826.687,1607.275-827.118,1607.74-827.524,1608.182Z" transform="translate(870.837 -1559.814)" fill="#fff"/>
      <path id="Trazado_114970" data-name="Trazado 114970" d="M-1028.12,1383.735a13.308,13.308,0,0,0,1.382.893,4.558,4.558,0,0,1,2.51,3.639c.125.745.289,1.483.392,2.23a1.254,1.254,0,0,1-1.017,1.491,1.3,1.3,0,0,1-1.468-1.075,22.459,22.459,0,0,0-.54-2.537,4.439,4.439,0,0,0-1.015-1.429,4.748,4.748,0,0,0-.982-.638c-.959-.608-1.881-1.337-3.145-.859a1.033,1.033,0,0,1-.583,0c-2.046-.526-3.28,1.007-4.611,2.01-.572.431-.577,1.626-.815,2.481-.1.349-.108.72-.194,1.073a1.174,1.174,0,0,1-1.361.976,1.077,1.077,0,0,1-1.083-1.247,23.977,23.977,0,0,1,1.147-4.522c.274-.686,1.181-1.133,1.834-1.647a15.423,15.423,0,0,1,1.366-.86,5.631,5.631,0,0,1-1.079-5.287,5.147,5.147,0,0,1,2.056-2.781,5.476,5.476,0,0,1,6.69.413C-1026.521,1377.977-1026.346,1380.4-1028.12,1383.735Zm-4.128-6.514a2.893,2.893,0,0,0-2.861,2.828,2.9,2.9,0,0,0,2.9,2.876,2.9,2.9,0,0,0,2.82-2.869A2.914,2.914,0,0,0-1032.247,1377.221Z" transform="translate(1047.619 -1367.533)" fill="#00223d"/>
      <path id="Trazado_114971" data-name="Trazado 114971" d="M-1019.366,1501.676q-7.523,0-15.046,0a4.965,4.965,0,0,1-.837-.032,1.311,1.311,0,0,1-1.145-1.34,1.34,1.34,0,0,1,1.3-1.194c.2-.015.392-.006.588-.006h30.092c1.372,0,1.968.388,1.971,1.273s-.637,1.3-1.957,1.3Z" transform="translate(1044.067 -1471.009)" fill="#00223d"/>
      <path id="Trazado_114973" data-name="Trazado 114973" d="M-1019.416,1656.518h-15.134c-1.221-.01-1.809-.422-1.8-1.261s.6-1.266,1.833-1.264c5.4.008,10.808.036,16.213.038q7.139,0,14.278-.039c.732,0,1.357.142,1.567.945.246.943-.389,1.626-1.488,1.623q-5.884-.017-11.769-.041C-1016.95,1656.515-1018.183,1656.518-1019.416,1656.518Z" transform="translate(1044.027 -1599.845)" fill="#00223d"/>
      <path id="Trazado_114981" data-name="Trazado 114981" d="M-1019.416,1656.518h-15.134c-1.221-.01-1.809-.422-1.8-1.261s.6-1.266,1.833-1.264c5.4.008,10.808.036,16.213.038q7.139,0,14.278-.039c.732,0,1.357.142,1.567.945.246.943-.389,1.626-1.488,1.623q-5.884-.017-11.769-.041C-1016.95,1656.515-1018.183,1656.518-1019.416,1656.518Z" transform="translate(1044.027 -1605.067)" fill="#00223d"/>
      <path id="Trazado_114974" data-name="Trazado 114974" d="M-978.708,1540.425h-11.1c-.308,0-.618.011-.924-.016a1.226,1.226,0,0,1-1.195-1.264,1.216,1.216,0,0,1,1.16-1.219,6.652,6.652,0,0,1,.924-.014l22.7,0a4.949,4.949,0,0,1,.5.012,1.2,1.2,0,0,1,1.174,1.274,1.152,1.152,0,0,1-1.223,1.211c-1.653.031-3.307.019-4.96.02Q-975.176,1540.428-978.708,1540.425Z" transform="translate(1007.077 -1503.284)" fill="#00223d"/>
      <path id="Trazado_114975" data-name="Trazado 114975" d="M-915.132,1383.072q2.9,0,5.795,0c1.049,0,1.648.463,1.648,1.255,0,.809-.558,1.3-1.626,1.3q-5.92.009-11.84-.037c-.932-.006-1.436-.5-1.424-1.29.011-.765.542-1.22,1.485-1.225C-919.107,1383.066-917.119,1383.074-915.132,1383.072Z" transform="translate(949.394 -1374.497)" fill="#00223d"/>
      <path id="Trazado_114976" data-name="Trazado 114976" d="M-915.152,1463.043c-1.959,0-3.919,0-5.878,0-.991,0-1.514-.462-1.507-1.286.007-.785.507-1.24,1.465-1.243q5.962-.019,11.924,0a1.332,1.332,0,0,1,1.5,1.241c0,.771-.594,1.285-1.541,1.29C-911.177,1463.05-913.164,1463.044-915.152,1463.043Z" transform="translate(949.359 -1438.903)" fill="#00223d"/>
      <path id="Trazado_114977" data-name="Trazado 114977" d="M-915.17,1424.371c-1.959,0-3.917,0-5.876,0-1.007,0-1.541-.444-1.547-1.246s.547-1.256,1.54-1.257q5.876-.007,11.752,0c1.008,0,1.583.447,1.6,1.207.02.818-.554,1.293-1.595,1.3C-911.253,1424.376-913.211,1424.372-915.17,1424.371Z" transform="translate(949.406 -1406.763)" fill="#00223d"/>
      <path id="Trazado_114978" data-name="Trazado 114978" d="M-1025.726,1540.852a1.294,1.294,0,0,1-1.352-1.3,1.316,1.316,0,0,1,1.4-1.263,1.273,1.273,0,0,1,1.34,1.307A1.277,1.277,0,0,1-1025.726,1540.852Z" transform="translate(1036.315 -1503.603)" fill="#00223d"/>
      <path id="Trazado_114979" data-name="Trazado 114979" d="M-1024.447,1577.567a1.261,1.261,0,0,1-1.324,1.312,1.341,1.341,0,0,1-1.428-1.244,1.386,1.386,0,0,1,1.36-1.33A1.3,1.3,0,0,1-1024.447,1577.567Z" transform="translate(1036.416 -1535.226)" fill="#00223d"/>
      <path id="Trazado_114980" data-name="Trazado 114980" d="M-925.661,1628.495l1.554-.071.01.211c-.83.245-1.3.2-1.541-.166Z" transform="translate(951.958 -1578.578)"/>
    </g>
  </g>
</svg>
