<svg xmlns="http://www.w3.org/2000/svg" xmlns:xlink="http://www.w3.org/1999/xlink" width="151.001" height="151.002" viewBox="0 0 151.001 151.002">
  <defs>
    <radialGradient id="radial-gradient" cx="0.076" cy="0.019" r="1.465" gradientTransform="translate(0.001)" gradientUnits="objectBoundingBox">
      <stop offset="0" stop-color="#f6f6f7"/>
      <stop offset="0.477" stop-color="#f9f9fa"/>
      <stop offset="0.715" stop-color="#fff"/>
    </radialGradient>
  </defs>
  <g id="Grupo_49869" data-name="Grupo 49869" transform="translate(0 0.001)">
    <g id="Grupo_18531" data-name="Grupo 18531">
      <g id="Grupo_18423" data-name="Grupo 18423" transform="translate(0 0)">
        <g id="Grupo_18421" data-name="Grupo 18421">
          <g id="Grupo_18420" data-name="Grupo 18420">
            <g id="Grupo_18419" data-name="Grupo 18419">
              <path id="Trazado_40936" data-name="Trazado 40936" d="M345.623,2221.219a75.5,75.5,0,1,1-75.5-75.5A75.5,75.5,0,0,1,345.623,2221.219Z" transform="translate(-194.623 -2145.721)" fill="#fff"/>
            </g>
          </g>
        </g>
        <path id="Trazado_40937" data-name="Trazado 40937" d="M344.548,2220.047a75.5,75.5,0,1,0-75.5,75.5A75.2,75.2,0,0,0,344.548,2220.047Z" transform="translate(-193.548 -2144.549)" fill="url(#radial-gradient)"/>
        <path id="Trazado_40938" data-name="Trazado 40938" d="M317.075,2210.479a57.629,57.629,0,1,0-57.629,57.629A57.415,57.415,0,0,0,317.075,2210.479Z" transform="translate(-183.717 -2134.729)" fill="none" stroke="#00223d" stroke-miterlimit="10" stroke-width="4"/>
        <g id="Grupo_18422" data-name="Grupo 18422" transform="translate(13.376 42.388)">
          <path id="Trazado_40939" data-name="Trazado 40939" d="M330.536,2164.488a75.509,75.509,0,0,1-129.991,75.188,75.269,75.269,0,0,0,129.991-75.187Z" transform="translate(-200.545 -2164.488)" fill="#eceef0"/>
        </g>
      </g>
    </g>
    <g id="Grupo_50705" data-name="Grupo 50705" transform="translate(43.59 42.035)">
      <g id="Grupo_50690" data-name="Grupo 50690" transform="translate(38.039)">
        <g id="Grupo_50689" data-name="Grupo 50689">
          <g id="Grupo_50688" data-name="Grupo 50688">
            <path id="Trazado_112694" data-name="Trazado 112694" d="M332.51,2251.67a5.4,5.4,0,0,1-4.13-1.927,5.554,5.554,0,0,1-1.3-4.015H318.5a1.346,1.346,0,0,1-1.347-1.346V2235.3a1.347,1.347,0,0,1,1.59-1.325l.08.015a2.767,2.767,0,1,0,0-5.444l-.081.015a1.347,1.347,0,0,1-1.589-1.324v-9.947a1.346,1.346,0,0,1,1.346-1.346h22.334a6.107,6.107,0,0,1,6.1,6.1v22.334a1.346,1.346,0,0,1-1.346,1.346h-7.647a5.46,5.46,0,0,1-5.357,5.941Zm-12.659-8.634h8.81a1.347,1.347,0,0,1,1.324,1.588l-.183,1a2.868,2.868,0,0,0,.635,2.376,2.684,2.684,0,0,0,2.113.974,2.767,2.767,0,0,0,2.679-3.265l-.2-1.088a1.347,1.347,0,0,1,1.324-1.588h7.892v-20.988a3.412,3.412,0,0,0-3.408-3.408H319.85v7.2a5.461,5.461,0,0,1,0,10.871Z" transform="translate(-317.157 -2215.948)" fill="#12263f"/>
          </g>
        </g>
      </g>
      <g id="Grupo_50704" data-name="Grupo 50704">
        <g id="Grupo_50698" data-name="Grupo 50698" transform="translate(1.111 12.061)">
          <path id="Trazado_112698" data-name="Trazado 112698" d="M308.152,2271.678a1.346,1.346,0,0,0,1.347-1.346v-4.875a1.346,1.346,0,0,0-1.347-1.346h-9.238a1.346,1.346,0,0,0-1.324,1.589l.2,1.088a2.767,2.767,0,0,1-2.679,3.265,2.688,2.688,0,0,1-2.113-.973,2.869,2.869,0,0,1-.635-2.376l.183-1a1.346,1.346,0,0,0-1.324-1.589h-8.81v-6.329a5.461,5.461,0,0,0,0-10.871v-8.542a1.347,1.347,0,0,0-1.347-1.346H258.731a6.107,6.107,0,0,0-6.1,6.1v44.668a6.107,6.107,0,0,0,6.1,6.1H303.4a6.107,6.107,0,0,0,6.1-6.1v-3.907a1.346,1.346,0,1,0-2.693,0v3.907a3.412,3.412,0,0,1-3.408,3.408H282.411v-8.684a1.347,1.347,0,0,0-1.588-1.325l-.082.015a2.767,2.767,0,1,1,0-5.443l.081.015a1.347,1.347,0,0,0,1.588-1.324V2266.8h7.226a5.549,5.549,0,0,0,1.3,4.014,5.442,5.442,0,0,0,9.565-4.014h6.3v3.528a1.346,1.346,0,0,0,1.346,1.346Zm-52.83-28.555a3.412,3.412,0,0,1,3.408-3.408h20.988v8.6a1.346,1.346,0,0,0,1.588,1.324l.081-.014h0a2.767,2.767,0,1,1,0,5.443l-.081-.014a1.346,1.346,0,0,0-1.588,1.325v7.732h-5.777a5.466,5.466,0,0,0-10.49,0h-8.129Zm21.425,31.167a5.461,5.461,0,0,0,2.971,9.629v7.28H258.731a3.412,3.412,0,0,1-3.408-3.408V2266.8h9.264a1.346,1.346,0,0,0,1.345-1.288,2.768,2.768,0,0,1,5.531,0,1.346,1.346,0,0,0,1.345,1.288h6.911v6.245a5.448,5.448,0,0,0-2.971,1.241Z" transform="translate(-252.63 -2237.023)" fill="#12263f"/>
        </g>
        <g id="Grupo_50703" data-name="Grupo 50703">
          <g id="Grupo_50700" data-name="Grupo 50700">
            <g id="Grupo_50699" data-name="Grupo 50699">
              <path id="Trazado_112699" data-name="Trazado 112699" d="M250.689,2215.948" transform="translate(-250.689 -2215.948)" fill="#12263f"/>
            </g>
          </g>
          <g id="Grupo_50702" data-name="Grupo 50702" transform="translate(55.289 50.734)">
            <g id="Grupo_50701" data-name="Grupo 50701">
              <path id="Trazado_112700" data-name="Trazado 112700" d="M348.645,2307.288a1.346,1.346,0,1,1,1.321-1.082,1.356,1.356,0,0,1-1.321,1.082Z" transform="translate(-347.301 -2304.6)" fill="#12263f"/>
            </g>
          </g>
        </g>
      </g>
    </g>
  </g>
</svg>
