<svg xmlns="http://www.w3.org/2000/svg" width="460.506" height="365.196" viewBox="0 0 460.506 365.196">
  <g id="Grupo_145944" data-name="Grupo 145944" transform="translate(-181 -15958.564)">
    <rect id="Rectángulo_37371" data-name="Rectángulo 37371" width="460.506" height="365.197" transform="translate(181 15958.564)" fill="#fafafa"/>
    <g id="Grupo_142629" data-name="Grupo 142629" transform="translate(181 15958.828)">
      <g id="Grupo_55534" data-name="Grupo 55534" transform="translate(0)">
        <g id="Grupo_55533" data-name="Grupo 55533">
          <path id="Trazado_117354" data-name="Trazado 117354" d="M686.809,451.269c0-3.5-.139-141.849-.356-363.636l.356.429-459.665.112h-.038l.449-.541c-.014,129.319-.026,252.386-.038,363.636l-.411-.5c270.484.29,456.018.492,459.7.5l-459.7.5H226.7v-.5c-.01-111.25-.022-234.317-.036-363.636v-.539h.485c173.531.041,333.511.081,459.665.11h.356v.429C686.947,309.42,686.813,447.771,686.809,451.269Z" transform="translate(-226.659 -87.094)" fill="#263238"/>
        </g>
      </g>
    </g>
    <path id="Trazado_189684" data-name="Trazado 189684" d="M11.032-3.187a4.233,4.233,0,0,1-.762,2.425A2.2,2.2,0,0,1,8.436.127,1.44,1.44,0,0,1,6.913-.939a2.417,2.417,0,0,1-.784.8,1.754,1.754,0,0,1-.911.263A1.511,1.511,0,0,1,3.853-.609,3.234,3.234,0,0,1,3.51-2.647,5.581,5.581,0,0,1,3.99-4.516a3.433,3.433,0,0,1,.99-1.292,2.049,2.049,0,0,1,1.273-.47,2.883,2.883,0,0,1,.92.136,3.182,3.182,0,0,1,.914.536l-.33,3.517Q7.636-.622,8.569-.622a1.329,1.329,0,0,0,1.162-.711,3.693,3.693,0,0,0,.482-1.854A5.46,5.46,0,0,0,9.3-6.951,3.8,3.8,0,0,0,6.138-8.246a4.123,4.123,0,0,0-2.266.632A4.3,4.3,0,0,0,2.311-5.789a7.054,7.054,0,0,0-.641,2.755A6.55,6.55,0,0,0,2.05-.3,3.641,3.641,0,0,0,3.444,1.469a4.042,4.042,0,0,0,2.263.613,4.836,4.836,0,0,0,1.146-.14,3.579,3.579,0,0,0,.955-.362l.235.73A3.558,3.558,0,0,1,7,2.717a5.539,5.539,0,0,1-1.317.159,5.046,5.046,0,0,1-2.729-.714A4.345,4.345,0,0,1,1.241.1,7.209,7.209,0,0,1,.749-3.034,7.609,7.609,0,0,1,1.53-6.173,5.3,5.3,0,0,1,3.44-8.325a5.008,5.008,0,0,1,2.723-.759,4.986,4.986,0,0,1,2.71.711,4.265,4.265,0,0,1,1.682,2.05A7.354,7.354,0,0,1,11.032-3.187Zm-6.513.54a2.473,2.473,0,0,0,.168,1.384A.861.861,0,0,0,5.5-.781,1.078,1.078,0,0,0,6.237-1.1a2.38,2.38,0,0,0,.581-.927l.006-.057.292-3.193a1.633,1.633,0,0,0-.762-.184,1.429,1.429,0,0,0-1.228.755A4.589,4.589,0,0,0,4.52-2.647ZM17.97-4.272H13.965V-1h4.653V0H12.746V-9.242h5.808v1H13.965v2.977H17.97Zm3.091-2.6L21.1-6A2.5,2.5,0,0,1,23.156-7q2.177,0,2.2,2.457V0H24.178V-4.545a1.581,1.581,0,0,0-.34-1.1A1.361,1.361,0,0,0,22.8-6a1.7,1.7,0,0,0-1,.3,2.069,2.069,0,0,0-.673.8V0H19.951V-6.868Zm7.655-1.663v1.663H30v.908H28.717V-1.7a.953.953,0,0,0,.171.62.721.721,0,0,0,.584.207,2.843,2.843,0,0,0,.559-.076V0a3.424,3.424,0,0,1-.9.126,1.462,1.462,0,0,1-1.187-.476,2.045,2.045,0,0,1-.4-1.352V-5.96h-1.25v-.908h1.25V-8.531ZM32.646,0H31.472V-6.868h1.174Zm-1.27-8.69a.7.7,0,0,1,.175-.482.655.655,0,0,1,.517-.2.666.666,0,0,1,.521.2.694.694,0,0,1,.178.482.671.671,0,0,1-.178.476.678.678,0,0,1-.521.19.667.667,0,0,1-.517-.19A.678.678,0,0,1,31.376-8.69Zm4.742.159v1.663H37.4v.908H36.118V-1.7a.953.953,0,0,0,.171.62.721.721,0,0,0,.584.207,2.843,2.843,0,0,0,.559-.076V0a3.424,3.424,0,0,1-.9.126,1.462,1.462,0,0,1-1.187-.476,2.045,2.045,0,0,1-.4-1.352V-5.96h-1.25v-.908h1.25V-8.531Zm4.9,6.811,1.6-5.148h1.257L41.114,1.06q-.641,1.714-2.038,1.714l-.222-.019-.438-.083V1.72l.317.025a1.563,1.563,0,0,0,.93-.241,1.746,1.746,0,0,0,.549-.882l.26-.7-2.45-6.792H39.3Zm3.859-2.031a9.814,9.814,0,0,1,.384-2.755,8,8,0,0,1,1.146-2.4,4.874,4.874,0,0,1,1.581-1.523l.241.774a5.056,5.056,0,0,0-1.52,2.171,9.411,9.411,0,0,0-.651,3.269l-.006.54a9.46,9.46,0,0,0,.9,4.253,5.079,5.079,0,0,0,1.282,1.688l-.241.717a5.031,5.031,0,0,1-1.612-1.574A8.823,8.823,0,0,1,44.878-3.751Zm5.6-3.117L50.515-6A2.5,2.5,0,0,1,52.571-7q2.177,0,2.2,2.457V0H53.593V-4.545a1.581,1.581,0,0,0-.34-1.1A1.361,1.361,0,0,0,52.216-6a1.7,1.7,0,0,0-1,.3,2.069,2.069,0,0,0-.673.8V0H49.366V-6.868ZM60.779,0a2.467,2.467,0,0,1-.165-.724,2.62,2.62,0,0,1-1.955.851,2.424,2.424,0,0,1-1.666-.574A1.859,1.859,0,0,1,56.342-1.9a1.942,1.942,0,0,1,.816-1.666,3.846,3.846,0,0,1,2.295-.594h1.143V-4.7a1.319,1.319,0,0,0-.368-.981,1.48,1.48,0,0,0-1.085-.365,1.712,1.712,0,0,0-1.054.317.935.935,0,0,0-.425.768H56.481a1.621,1.621,0,0,1,.365-.993,2.491,2.491,0,0,1,.99-.759A3.331,3.331,0,0,1,59.211-7a2.715,2.715,0,0,1,1.86.594,2.141,2.141,0,0,1,.7,1.635v3.161A3.865,3.865,0,0,0,62.01-.1V0ZM58.83-.9a2.064,2.064,0,0,0,1.047-.286,1.728,1.728,0,0,0,.717-.743V-3.333h-.92q-2.158,0-2.158,1.263a1.069,1.069,0,0,0,.368.863A1.415,1.415,0,0,0,58.83-.9Zm5.884-5.973.032.762A2.536,2.536,0,0,1,66.784-7a1.964,1.964,0,0,1,1.961,1.1,2.6,2.6,0,0,1,.892-.8,2.634,2.634,0,0,1,1.3-.3q2.26,0,2.3,2.393V0H72.059V-4.532a1.577,1.577,0,0,0-.336-1.1A1.482,1.482,0,0,0,70.592-6a1.557,1.557,0,0,0-1.085.39,1.584,1.584,0,0,0-.5,1.051V0H67.825V-4.5A1.31,1.31,0,0,0,66.358-6a1.571,1.571,0,0,0-1.581.984V0H63.6V-6.868Zm13.14,7A3,3,0,0,1,75.582-.79a3.4,3.4,0,0,1-.876-2.453v-.216a4.121,4.121,0,0,1,.39-1.825,3.045,3.045,0,0,1,1.092-1.257A2.745,2.745,0,0,1,77.708-7a2.572,2.572,0,0,1,2.082.882,3.82,3.82,0,0,1,.743,2.526V-3.1H75.88a2.441,2.441,0,0,0,.594,1.641,1.866,1.866,0,0,0,1.444.625,2.045,2.045,0,0,0,1.054-.254,2.648,2.648,0,0,0,.755-.673l.717.559A2.884,2.884,0,0,1,77.854.127ZM77.708-6.03a1.566,1.566,0,0,0-1.193.517,2.515,2.515,0,0,0-.6,1.45h3.44v-.089a2.237,2.237,0,0,0-.482-1.387A1.475,1.475,0,0,0,77.708-6.03Zm12.771.863H85.186V-6.189h5.294Zm0,2.634H85.186V-3.548h5.294Zm5.96-7.433.863.5a3.386,3.386,0,0,0-.565,1.752v1.06H95.285V-7.6a2.89,2.89,0,0,1,.333-1.273A3.319,3.319,0,0,1,96.44-9.966Zm2.177,0,.863.5a3.386,3.386,0,0,0-.565,1.752v1.06H97.462V-7.6A2.89,2.89,0,0,1,97.8-8.877,3.319,3.319,0,0,1,98.617-9.966Zm7.992,6.6a4.119,4.119,0,0,1-.72,2.542,2.31,2.31,0,0,1-1.946.955A2.14,2.14,0,0,1,102.261-.6V2.641h-1.834V-6.868h1.7l.063.673A2.156,2.156,0,0,1,103.93-7a2.326,2.326,0,0,1,1.974.939,4.231,4.231,0,0,1,.7,2.59Zm-1.834-.14a2.718,2.718,0,0,0-.34-1.484,1.105,1.105,0,0,0-.987-.522,1.2,1.2,0,0,0-1.187.662v2.821a1.221,1.221,0,0,0,1.2.681Q104.774-1.352,104.774-3.51ZM110.906.127a3.372,3.372,0,0,1-2.46-.927,3.294,3.294,0,0,1-.949-2.469v-.178a4.149,4.149,0,0,1,.4-1.85,2.935,2.935,0,0,1,1.133-1.257A3.18,3.18,0,0,1,110.7-7a2.85,2.85,0,0,1,2.219.889,3.611,3.611,0,0,1,.809,2.52v.749h-4.374a1.7,1.7,0,0,0,.536,1.079,1.621,1.621,0,0,0,1.133.406,1.98,1.98,0,0,0,1.657-.768l.9,1.009a2.754,2.754,0,0,1-1.117.911A3.665,3.665,0,0,1,110.906.127ZM110.7-5.516a1.146,1.146,0,0,0-.885.37,1.915,1.915,0,0,0-.435,1.058h2.552v-.147a1.366,1.366,0,0,0-.33-.947A1.183,1.183,0,0,0,110.7-5.516Zm7.935.368a4.984,4.984,0,0,0-.66-.051,1.344,1.344,0,0,0-1.365.7V0h-1.834V-6.868H116.5l.051.819A1.7,1.7,0,0,1,118.085-7a1.922,1.922,0,0,1,.571.083Zm4.6,3.25a.591.591,0,0,0-.333-.53,3.785,3.785,0,0,0-1.07-.346q-2.45-.514-2.45-2.082a1.887,1.887,0,0,1,.759-1.527A3.06,3.06,0,0,1,122.123-7a3.293,3.293,0,0,1,2.092.616A1.94,1.94,0,0,1,125-4.78h-1.834a.888.888,0,0,0-.254-.651,1.075,1.075,0,0,0-.793-.257,1.1,1.1,0,0,0-.717.209.661.661,0,0,0-.254.533.565.565,0,0,0,.289.492,2.971,2.971,0,0,0,.974.324,7.958,7.958,0,0,1,1.155.308,1.9,1.9,0,0,1,1.454,1.847,1.792,1.792,0,0,1-.806,1.52,3.478,3.478,0,0,1-2.082.581A3.632,3.632,0,0,1,120.6-.181a2.572,2.572,0,0,1-1.051-.844,1.962,1.962,0,0,1-.381-1.158H120.9a.958.958,0,0,0,.362.749,1.435,1.435,0,0,0,.9.26,1.328,1.328,0,0,0,.8-.2A.622.622,0,0,0,123.233-1.9Zm2.679-1.6a4.073,4.073,0,0,1,.394-1.822,2.881,2.881,0,0,1,1.133-1.238A3.306,3.306,0,0,1,129.156-7a3.128,3.128,0,0,1,2.269.851,3.414,3.414,0,0,1,.981,2.311l.013.47a3.59,3.59,0,0,1-.882,2.536,3.067,3.067,0,0,1-2.368.955A3.082,3.082,0,0,1,126.8-.825a3.653,3.653,0,0,1-.885-2.59Zm1.834.13a2.567,2.567,0,0,0,.368,1.5,1.215,1.215,0,0,0,1.054.518,1.217,1.217,0,0,0,1.041-.512,2.809,2.809,0,0,0,.375-1.637,2.542,2.542,0,0,0-.375-1.488,1.217,1.217,0,0,0-1.054-.528,1.2,1.2,0,0,0-1.041.524A2.857,2.857,0,0,0,127.747-3.367Zm7.49-3.5.057.793A2.4,2.4,0,0,1,137.268-7a1.993,1.993,0,0,1,1.625.641,2.991,2.991,0,0,1,.546,1.917V0H137.6V-4.4a1.2,1.2,0,0,0-.254-.849,1.135,1.135,0,0,0-.844-.264,1.261,1.261,0,0,0-1.162.662V0H133.51V-6.868ZM144.809,0a2.037,2.037,0,0,1-.184-.616,2.22,2.22,0,0,1-1.733.743,2.439,2.439,0,0,1-1.673-.584,1.878,1.878,0,0,1-.663-1.473,1.941,1.941,0,0,1,.809-1.676A3.994,3.994,0,0,1,143.7-4.2h.844v-.394a1.132,1.132,0,0,0-.244-.762.961.961,0,0,0-.771-.286,1.093,1.093,0,0,0-.727.222.755.755,0,0,0-.263.609h-1.834a1.843,1.843,0,0,1,.368-1.1,2.434,2.434,0,0,1,1.041-.8A3.794,3.794,0,0,1,143.628-7a3,3,0,0,1,2.015.638,2.232,2.232,0,0,1,.746,1.793v2.977a3.283,3.283,0,0,0,.273,1.479V0Zm-1.517-1.276a1.58,1.58,0,0,0,.749-.181,1.188,1.188,0,0,0,.508-.486V-3.123h-.686q-1.377,0-1.466.952l-.006.108a.734.734,0,0,0,.241.565A.937.937,0,0,0,143.292-1.276ZM148.307-6.4l-.863-.5a3.389,3.389,0,0,0,.565-1.771V-9.75h1.46v.984a2.9,2.9,0,0,1-.317,1.238A3.4,3.4,0,0,1,148.307-6.4Zm2.2,0-.863-.5a3.389,3.389,0,0,0,.565-1.771V-9.75h1.46v.984a2.9,2.9,0,0,1-.317,1.238A3.4,3.4,0,0,1,150.509-6.4ZM155.9-3.688a9.819,9.819,0,0,1-.371,2.714,8.024,8.024,0,0,1-1.136,2.4,4.978,4.978,0,0,1-1.6,1.562l-.248-.717A5.1,5.1,0,0,0,154.112-.06a10.065,10.065,0,0,0,.606-3.5v-.2a10.449,10.449,0,0,0-.279-2.479,8.366,8.366,0,0,0-.778-2.053,4.743,4.743,0,0,0-1.12-1.416l.248-.717a4.959,4.959,0,0,1,1.6,1.549,8.041,8.041,0,0,1,1.136,2.393A10.045,10.045,0,0,1,155.9-3.688ZM6.69,16.642a4.113,4.113,0,0,1-.717,2.526,2.3,2.3,0,0,1-1.942.958,2.519,2.519,0,0,1-1.968-.793v3.307H.889V13.132H1.961l.057.762A2.419,2.419,0,0,1,4.012,13a2.342,2.342,0,0,1,1.958.933,4.157,4.157,0,0,1,.72,2.6Zm-1.174-.133a3.035,3.035,0,0,0-.5-1.834A1.6,1.6,0,0,0,3.663,14a1.726,1.726,0,0,0-1.6.946v3.282a1.73,1.73,0,0,0,1.612.939,1.587,1.587,0,0,0,1.343-.67A3.312,3.312,0,0,0,5.516,16.509Zm6.906,2.812a2.494,2.494,0,0,1-2.012.806,2.135,2.135,0,0,1-1.673-.638A2.761,2.761,0,0,1,8.157,17.6V13.132H9.331v4.437q0,1.562,1.27,1.562a1.758,1.758,0,0,0,1.79-1v-5h1.174V20H12.448Zm8.741-2.679a4.084,4.084,0,0,1-.724,2.53,2.312,2.312,0,0,1-1.942.955,2.394,2.394,0,0,1-2.012-.92L16.428,20H15.349V10.25h1.174v3.637A2.381,2.381,0,0,1,18.484,13a2.326,2.326,0,0,1,1.965.946,4.206,4.206,0,0,1,.714,2.59Zm-1.174-.133a3.173,3.173,0,0,0-.463-1.854A1.534,1.534,0,0,0,18.192,14a1.724,1.724,0,0,0-1.669,1.079v2.971a1.772,1.772,0,0,0,1.682,1.079,1.526,1.526,0,0,0,1.314-.654A3.375,3.375,0,0,0,19.989,16.509ZM23.918,20H22.744V10.25h1.174Zm3.155,0H25.9V13.132h1.174ZM25.8,11.31a.7.7,0,0,1,.175-.482.655.655,0,0,1,.517-.2.666.666,0,0,1,.521.2.694.694,0,0,1,.178.482.671.671,0,0,1-.178.476.678.678,0,0,1-.521.19.667.667,0,0,1-.517-.19A.678.678,0,0,1,25.8,11.31Zm5.9,7.858a1.692,1.692,0,0,0,1.1-.381,1.34,1.34,0,0,0,.521-.952h1.111a2.13,2.13,0,0,1-.406,1.124,2.676,2.676,0,0,1-1,.851,2.885,2.885,0,0,1-1.323.317,2.829,2.829,0,0,1-2.231-.936,3.729,3.729,0,0,1-.828-2.561v-.2a4.135,4.135,0,0,1,.368-1.784,2.8,2.8,0,0,1,1.057-1.212A3,3,0,0,1,31.7,13a2.755,2.755,0,0,1,1.92.692,2.473,2.473,0,0,1,.816,1.8H33.325a1.618,1.618,0,0,0-.5-1.095,1.57,1.57,0,0,0-1.12-.428,1.644,1.644,0,0,0-1.387.644,3.026,3.026,0,0,0-.492,1.863V16.7a2.965,2.965,0,0,0,.489,1.828A1.651,1.651,0,0,0,31.707,19.168Zm10.023,0a1.692,1.692,0,0,0,1.1-.381,1.34,1.34,0,0,0,.521-.952h1.111a2.13,2.13,0,0,1-.406,1.124,2.676,2.676,0,0,1-1,.851,2.885,2.885,0,0,1-1.323.317,2.829,2.829,0,0,1-2.231-.936,3.729,3.729,0,0,1-.828-2.561v-.2a4.135,4.135,0,0,1,.368-1.784,2.8,2.8,0,0,1,1.057-1.212A3,3,0,0,1,41.723,13a2.755,2.755,0,0,1,1.92.692,2.473,2.473,0,0,1,.816,1.8H43.348a1.618,1.618,0,0,0-.5-1.095,1.57,1.57,0,0,0-1.12-.428,1.644,1.644,0,0,0-1.387.644,3.026,3.026,0,0,0-.492,1.863V16.7a2.965,2.965,0,0,0,.489,1.828A1.651,1.651,0,0,0,41.729,19.168ZM47.055,20H45.881V10.25h1.174Zm6.119,0a2.467,2.467,0,0,1-.165-.724,2.62,2.62,0,0,1-1.955.851,2.424,2.424,0,0,1-1.666-.574,1.859,1.859,0,0,1-.651-1.457,1.942,1.942,0,0,1,.816-1.666,3.846,3.846,0,0,1,2.295-.594H52.99V15.3a1.319,1.319,0,0,0-.368-.981,1.48,1.48,0,0,0-1.085-.365,1.712,1.712,0,0,0-1.054.317.935.935,0,0,0-.425.768H48.877a1.621,1.621,0,0,1,.365-.993,2.491,2.491,0,0,1,.99-.759A3.331,3.331,0,0,1,51.606,13a2.715,2.715,0,0,1,1.86.594,2.141,2.141,0,0,1,.7,1.635v3.161a3.865,3.865,0,0,0,.241,1.5V20Zm-1.949-.9a2.064,2.064,0,0,0,1.047-.286,1.728,1.728,0,0,0,.717-.743V16.667h-.92q-2.158,0-2.158,1.263a1.069,1.069,0,0,0,.368.863A1.415,1.415,0,0,0,51.226,19.1ZM60,18.178a.865.865,0,0,0-.359-.74,3.452,3.452,0,0,0-1.25-.454,5.912,5.912,0,0,1-1.416-.457,2.014,2.014,0,0,1-.774-.635,1.518,1.518,0,0,1-.251-.876,1.782,1.782,0,0,1,.714-1.428A2.789,2.789,0,0,1,58.494,13a2.87,2.87,0,0,1,1.895.6,1.915,1.915,0,0,1,.727,1.542H59.935a1.06,1.06,0,0,0-.409-.832,1.534,1.534,0,0,0-1.031-.349,1.605,1.605,0,0,0-1,.279.879.879,0,0,0-.362.73.712.712,0,0,0,.336.641,4.139,4.139,0,0,0,1.216.413,6.334,6.334,0,0,1,1.425.47,2.079,2.079,0,0,1,.809.657,1.615,1.615,0,0,1,.263.936,1.758,1.758,0,0,1-.736,1.476,3.089,3.089,0,0,1-1.911.555,3.459,3.459,0,0,1-1.46-.292,2.375,2.375,0,0,1-.993-.816,1.966,1.966,0,0,1-.359-1.133h1.174a1.216,1.216,0,0,0,.473.936,1.835,1.835,0,0,0,1.165.346,1.894,1.894,0,0,0,1.07-.27A.829.829,0,0,0,60,18.178Zm6.7,0a.864.864,0,0,0-.359-.74,3.452,3.452,0,0,0-1.25-.454,5.912,5.912,0,0,1-1.416-.457,2.014,2.014,0,0,1-.774-.635,1.518,1.518,0,0,1-.251-.876,1.782,1.782,0,0,1,.714-1.428A2.789,2.789,0,0,1,65.2,13a2.87,2.87,0,0,1,1.895.6,1.915,1.915,0,0,1,.727,1.542H66.638a1.06,1.06,0,0,0-.409-.832A1.534,1.534,0,0,0,65.2,13.97a1.606,1.606,0,0,0-1,.279.879.879,0,0,0-.362.73.712.712,0,0,0,.336.641,4.139,4.139,0,0,0,1.216.413,6.334,6.334,0,0,1,1.425.47,2.079,2.079,0,0,1,.809.657,1.615,1.615,0,0,1,.263.936,1.758,1.758,0,0,1-.736,1.476,3.089,3.089,0,0,1-1.911.555,3.459,3.459,0,0,1-1.46-.292,2.375,2.375,0,0,1-.993-.816,1.966,1.966,0,0,1-.359-1.133H63.6a1.216,1.216,0,0,0,.473.936,1.835,1.835,0,0,0,1.165.346,1.894,1.894,0,0,0,1.07-.27A.829.829,0,0,0,66.708,18.178Zm7.325-1.8V20H72.814V10.758h3.409a3.425,3.425,0,0,1,2.377.774,2.625,2.625,0,0,1,.86,2.05,2.591,2.591,0,0,1-.841,2.073,3.578,3.578,0,0,1-2.409.727Zm0-1h2.19a2.19,2.19,0,0,0,1.5-.461,1.686,1.686,0,0,0,.521-1.332,1.742,1.742,0,0,0-.521-1.323,2.051,2.051,0,0,0-1.428-.515h-2.26ZM83.6,20.127a3,3,0,0,1-2.272-.917,3.4,3.4,0,0,1-.876-2.453v-.216a4.121,4.121,0,0,1,.39-1.825,3.045,3.045,0,0,1,1.092-1.257A2.745,2.745,0,0,1,83.453,13a2.572,2.572,0,0,1,2.082.882,3.82,3.82,0,0,1,.743,2.526V16.9H81.625a2.441,2.441,0,0,0,.594,1.641,1.866,1.866,0,0,0,1.444.625,2.045,2.045,0,0,0,1.054-.254,2.648,2.648,0,0,0,.755-.673l.717.559A2.884,2.884,0,0,1,83.6,20.127Zm-.146-6.157a1.566,1.566,0,0,0-1.193.517,2.515,2.515,0,0,0-.6,1.45H85.1v-.089a2.237,2.237,0,0,0-.482-1.387A1.475,1.475,0,0,0,83.453,13.97Zm7.5.216a3.519,3.519,0,0,0-.578-.044,1.547,1.547,0,0,0-1.568.984V20H87.636V13.132h1.143l.019.793A1.829,1.829,0,0,1,90.435,13a1.2,1.2,0,0,1,.521.089Zm5.078,3.993a.864.864,0,0,0-.359-.74,3.452,3.452,0,0,0-1.25-.454,5.912,5.912,0,0,1-1.416-.457,2.014,2.014,0,0,1-.774-.635,1.518,1.518,0,0,1-.251-.876,1.782,1.782,0,0,1,.714-1.428A2.789,2.789,0,0,1,94.523,13a2.87,2.87,0,0,1,1.895.6,1.915,1.915,0,0,1,.727,1.542H95.964a1.06,1.06,0,0,0-.409-.832,1.534,1.534,0,0,0-1.031-.349,1.606,1.606,0,0,0-1,.279.879.879,0,0,0-.362.73.712.712,0,0,0,.336.641,4.139,4.139,0,0,0,1.216.413,6.334,6.334,0,0,1,1.425.47,2.079,2.079,0,0,1,.809.657,1.615,1.615,0,0,1,.263.936,1.758,1.758,0,0,1-.736,1.476,3.089,3.089,0,0,1-1.911.555,3.459,3.459,0,0,1-1.46-.292,2.375,2.375,0,0,1-.993-.816,1.966,1.966,0,0,1-.359-1.133h1.174a1.216,1.216,0,0,0,.473.936,1.835,1.835,0,0,0,1.165.346,1.894,1.894,0,0,0,1.07-.27A.829.829,0,0,0,96.034,18.178ZM98.427,16.5a4.057,4.057,0,0,1,.4-1.815,2.96,2.96,0,0,1,1.1-1.244A3.007,3.007,0,0,1,101.543,13a2.9,2.9,0,0,1,2.269.971,3.736,3.736,0,0,1,.866,2.583v.083a4.092,4.092,0,0,1-.384,1.8,2.916,2.916,0,0,1-1.1,1.241,3.041,3.041,0,0,1-1.641.444,2.889,2.889,0,0,1-2.263-.971,3.718,3.718,0,0,1-.866-2.571Zm1.181.14a2.938,2.938,0,0,0,.53,1.834,1.8,1.8,0,0,0,2.841-.01A3.213,3.213,0,0,0,103.5,16.5a2.933,2.933,0,0,0-.536-1.831,1.705,1.705,0,0,0-1.425-.7,1.686,1.686,0,0,0-1.4.692A3.189,3.189,0,0,0,99.607,16.642Zm7.655-3.51L107.3,14a2.5,2.5,0,0,1,2.057-.99q2.177,0,2.2,2.457V20h-1.174V15.455a1.581,1.581,0,0,0-.34-1.1A1.361,1.361,0,0,0,109,14a1.7,1.7,0,0,0-1,.3,2.069,2.069,0,0,0-.673.8V20h-1.174V13.132ZM117.565,20a2.467,2.467,0,0,1-.165-.724,2.62,2.62,0,0,1-1.955.851,2.424,2.424,0,0,1-1.666-.574,1.859,1.859,0,0,1-.651-1.457,1.942,1.942,0,0,1,.816-1.666,3.846,3.846,0,0,1,2.295-.594h1.143V15.3a1.319,1.319,0,0,0-.368-.981,1.48,1.48,0,0,0-1.085-.365,1.712,1.712,0,0,0-1.054.317.935.935,0,0,0-.425.768h-1.181a1.621,1.621,0,0,1,.365-.993,2.491,2.491,0,0,1,.99-.759A3.331,3.331,0,0,1,116,13a2.715,2.715,0,0,1,1.86.594,2.141,2.141,0,0,1,.7,1.635v3.161a3.865,3.865,0,0,0,.241,1.5V20Zm-1.949-.9a2.064,2.064,0,0,0,1.047-.286,1.728,1.728,0,0,0,.717-.743V16.667h-.92q-2.158,0-2.158,1.263a1.069,1.069,0,0,0,.368.863A1.415,1.415,0,0,0,115.616,19.1Zm14.339,3.218a3.155,3.155,0,0,1-1.692-1.044,3.031,3.031,0,0,1-.568-1.92V18.1q0-1.542-1.346-1.542v-.92q1.346,0,1.346-1.536v-1.32a3.026,3.026,0,0,1,.568-1.876,3.158,3.158,0,0,1,1.692-1.038l.241.73a2.03,2.03,0,0,0-1.327,2.215V14.09a2.074,2.074,0,0,1-1.06,2.006,2.1,2.1,0,0,1,1.06,2.025v1.308a2.011,2.011,0,0,0,1.327,2.165Z" transform="translate(278.949 15996.987)" fill="#12263f"/>
    <path id="Trazado_189685" data-name="Trazado 189685" d="M11.032-3.187a4.233,4.233,0,0,1-.762,2.425A2.2,2.2,0,0,1,8.436.127,1.44,1.44,0,0,1,6.913-.939a2.417,2.417,0,0,1-.784.8,1.754,1.754,0,0,1-.911.263A1.511,1.511,0,0,1,3.853-.609,3.234,3.234,0,0,1,3.51-2.647,5.581,5.581,0,0,1,3.99-4.516a3.433,3.433,0,0,1,.99-1.292,2.049,2.049,0,0,1,1.273-.47,2.883,2.883,0,0,1,.92.136,3.182,3.182,0,0,1,.914.536l-.33,3.517Q7.636-.622,8.569-.622a1.329,1.329,0,0,0,1.162-.711,3.693,3.693,0,0,0,.482-1.854A5.46,5.46,0,0,0,9.3-6.951,3.8,3.8,0,0,0,6.138-8.246a4.123,4.123,0,0,0-2.266.632A4.3,4.3,0,0,0,2.311-5.789a7.054,7.054,0,0,0-.641,2.755A6.55,6.55,0,0,0,2.05-.3,3.641,3.641,0,0,0,3.444,1.469a4.042,4.042,0,0,0,2.263.613,4.836,4.836,0,0,0,1.146-.14,3.579,3.579,0,0,0,.955-.362l.235.73A3.558,3.558,0,0,1,7,2.717a5.539,5.539,0,0,1-1.317.159,5.046,5.046,0,0,1-2.729-.714A4.345,4.345,0,0,1,1.241.1,7.209,7.209,0,0,1,.749-3.034,7.609,7.609,0,0,1,1.53-6.173,5.3,5.3,0,0,1,3.44-8.325a5.008,5.008,0,0,1,2.723-.759,4.986,4.986,0,0,1,2.71.711,4.265,4.265,0,0,1,1.682,2.05A7.354,7.354,0,0,1,11.032-3.187Zm-6.513.54a2.473,2.473,0,0,0,.168,1.384A.861.861,0,0,0,5.5-.781,1.078,1.078,0,0,0,6.237-1.1a2.38,2.38,0,0,0,.581-.927l.006-.057.292-3.193a1.633,1.633,0,0,0-.762-.184,1.429,1.429,0,0,0-1.228.755A4.589,4.589,0,0,0,4.52-2.647Zm15.025-.286A3.4,3.4,0,0,1,18.462-.67a3.547,3.547,0,0,1-2.422.8,3.257,3.257,0,0,1-2.625-1.174,4.724,4.724,0,0,1-.987-3.142v-.889a5.266,5.266,0,0,1,.46-2.266,3.438,3.438,0,0,1,1.3-1.5,3.632,3.632,0,0,1,1.955-.524,3.34,3.34,0,0,1,2.361.822,3.441,3.441,0,0,1,1.035,2.276H18.319a2.655,2.655,0,0,0-.689-1.6,2.084,2.084,0,0,0-1.482-.5,2.181,2.181,0,0,0-1.831.864,3.966,3.966,0,0,0-.663,2.459v.9a4.077,4.077,0,0,0,.628,2.4,2.031,2.031,0,0,0,1.758.889A2.345,2.345,0,0,0,17.6-1.33a2.554,2.554,0,0,0,.72-1.6ZM20.712-3.5a4.057,4.057,0,0,1,.4-1.815,2.96,2.96,0,0,1,1.1-1.244A3.007,3.007,0,0,1,23.829-7a2.9,2.9,0,0,1,2.269.971,3.736,3.736,0,0,1,.866,2.583v.083a4.092,4.092,0,0,1-.384,1.8,2.916,2.916,0,0,1-1.1,1.241,3.041,3.041,0,0,1-1.641.444,2.889,2.889,0,0,1-2.263-.971,3.718,3.718,0,0,1-.866-2.571Zm1.181.14a2.938,2.938,0,0,0,.53,1.834,1.7,1.7,0,0,0,1.419.692,1.686,1.686,0,0,0,1.422-.7A3.213,3.213,0,0,0,25.791-3.5a2.933,2.933,0,0,0-.536-1.831,1.705,1.705,0,0,0-1.425-.7,1.686,1.686,0,0,0-1.4.692A3.189,3.189,0,0,0,21.893-3.358ZM29.713,0H28.539V-9.75h1.174Zm6.119-.679A2.494,2.494,0,0,1,33.82.127a2.135,2.135,0,0,1-1.673-.638A2.761,2.761,0,0,1,31.567-2.4V-6.868h1.174v4.437q0,1.562,1.27,1.562a1.758,1.758,0,0,0,1.79-1v-5h1.174V0H35.858Zm4.031-6.189.032.762A2.536,2.536,0,0,1,41.933-7a1.964,1.964,0,0,1,1.961,1.1,2.6,2.6,0,0,1,.892-.8,2.634,2.634,0,0,1,1.3-.3q2.26,0,2.3,2.393V0H47.208V-4.532a1.577,1.577,0,0,0-.336-1.1A1.482,1.482,0,0,0,45.741-6a1.557,1.557,0,0,0-1.085.39,1.584,1.584,0,0,0-.5,1.051V0H42.974V-4.5A1.31,1.31,0,0,0,41.507-6a1.571,1.571,0,0,0-1.581.984V0H38.752V-6.868Zm11.4,0L51.3-6A2.5,2.5,0,0,1,53.358-7q2.177,0,2.2,2.457V0H54.38V-4.545a1.581,1.581,0,0,0-.34-1.1A1.361,1.361,0,0,0,53-6a1.7,1.7,0,0,0-1,.3,2.069,2.069,0,0,0-.673.8V0H50.153V-6.868Zm6.018,3.117a9.814,9.814,0,0,1,.384-2.755,8,8,0,0,1,1.146-2.4,4.874,4.874,0,0,1,1.581-1.523l.241.774a5.056,5.056,0,0,0-1.52,2.171,9.411,9.411,0,0,0-.651,3.269l-.006.54a9.46,9.46,0,0,0,.9,4.253,5.079,5.079,0,0,0,1.282,1.688l-.241.717a5.031,5.031,0,0,1-1.612-1.574A8.823,8.823,0,0,1,57.281-3.751Zm5.6-3.117L62.918-6A2.5,2.5,0,0,1,64.975-7q2.177,0,2.2,2.457V0H66V-4.545a1.581,1.581,0,0,0-.34-1.1A1.361,1.361,0,0,0,64.619-6a1.7,1.7,0,0,0-1,.3,2.069,2.069,0,0,0-.673.8V0H61.769V-6.868ZM73.182,0a2.467,2.467,0,0,1-.165-.724,2.62,2.62,0,0,1-1.955.851A2.424,2.424,0,0,1,69.4-.448,1.859,1.859,0,0,1,68.745-1.9a1.942,1.942,0,0,1,.816-1.666,3.846,3.846,0,0,1,2.295-.594H73V-4.7a1.319,1.319,0,0,0-.368-.981,1.48,1.48,0,0,0-1.085-.365,1.712,1.712,0,0,0-1.054.317.935.935,0,0,0-.425.768H68.885a1.621,1.621,0,0,1,.365-.993,2.491,2.491,0,0,1,.99-.759A3.331,3.331,0,0,1,71.614-7a2.715,2.715,0,0,1,1.86.594,2.141,2.141,0,0,1,.7,1.635v3.161a3.865,3.865,0,0,0,.241,1.5V0ZM71.233-.9a2.064,2.064,0,0,0,1.047-.286A1.728,1.728,0,0,0,73-1.923V-3.333h-.92q-2.158,0-2.158,1.263a1.069,1.069,0,0,0,.368.863A1.415,1.415,0,0,0,71.233-.9Zm5.884-5.973.032.762A2.536,2.536,0,0,1,79.187-7a1.964,1.964,0,0,1,1.961,1.1,2.6,2.6,0,0,1,.892-.8,2.634,2.634,0,0,1,1.3-.3q2.26,0,2.3,2.393V0H84.462V-4.532a1.577,1.577,0,0,0-.336-1.1A1.482,1.482,0,0,0,83-6a1.557,1.557,0,0,0-1.085.39,1.584,1.584,0,0,0-.5,1.051V0H80.228V-4.5A1.31,1.31,0,0,0,78.762-6a1.571,1.571,0,0,0-1.581.984V0H76.007V-6.868Zm13.14,7A3,3,0,0,1,87.985-.79a3.4,3.4,0,0,1-.876-2.453v-.216a4.121,4.121,0,0,1,.39-1.825,3.045,3.045,0,0,1,1.092-1.257A2.745,2.745,0,0,1,90.111-7a2.572,2.572,0,0,1,2.082.882,3.82,3.82,0,0,1,.743,2.526V-3.1H88.283a2.441,2.441,0,0,0,.594,1.641,1.866,1.866,0,0,0,1.444.625,2.045,2.045,0,0,0,1.054-.254,2.648,2.648,0,0,0,.755-.673l.717.559A2.884,2.884,0,0,1,90.257.127ZM90.111-6.03a1.566,1.566,0,0,0-1.193.517,2.515,2.515,0,0,0-.6,1.45h3.44v-.089a2.237,2.237,0,0,0-.482-1.387A1.475,1.475,0,0,0,90.111-6.03Zm12.771.863H97.589V-6.189h5.294Zm0,2.634H97.589V-3.548h5.294Zm5.979-7.433.863.5a3.386,3.386,0,0,0-.565,1.752v1.06h-1.454V-7.6a2.89,2.89,0,0,1,.333-1.273A3.319,3.319,0,0,1,108.862-9.966Zm2.177,0,.863.5a3.386,3.386,0,0,0-.565,1.752v1.06h-1.454V-7.6a2.89,2.89,0,0,1,.333-1.273A3.319,3.319,0,0,1,111.04-9.966ZM114.912,0h-1.841V-6.868h1.841Zm-1.949-8.646a.9.9,0,0,1,.276-.679,1.037,1.037,0,0,1,.752-.267,1.04,1.04,0,0,1,.749.267.9.9,0,0,1,.279.679.9.9,0,0,1-.282.686,1.042,1.042,0,0,1-.746.267,1.042,1.042,0,0,1-.746-.267A.9.9,0,0,1,112.963-8.646Zm3.174,5.161a4.139,4.139,0,0,1,.72-2.558A2.338,2.338,0,0,1,118.828-7a2.1,2.1,0,0,1,1.657.749v-3.5h1.841V0h-1.657l-.089-.73a2.159,2.159,0,0,1-1.765.857,2.331,2.331,0,0,1-1.946-.955A4.272,4.272,0,0,1,116.137-3.485Zm1.834.131a2.726,2.726,0,0,0,.336,1.486,1.1,1.1,0,0,0,.978.517,1.227,1.227,0,0,0,1.2-.721V-4.8a1.21,1.21,0,0,0-1.187-.721Q117.971-5.516,117.971-3.354Zm6.392-3.05-.863-.5a3.39,3.39,0,0,0,.565-1.771V-9.75h1.46v.984a2.9,2.9,0,0,1-.317,1.238A3.4,3.4,0,0,1,124.363-6.4Zm2.2,0-.863-.5a3.39,3.39,0,0,0,.565-1.771V-9.75h1.46v.984a2.9,2.9,0,0,1-.317,1.238A3.4,3.4,0,0,1,126.566-6.4Zm5.389,2.717a9.819,9.819,0,0,1-.371,2.714,8.024,8.024,0,0,1-1.136,2.4,4.978,4.978,0,0,1-1.6,1.562l-.248-.717A5.1,5.1,0,0,0,130.168-.06a10.065,10.065,0,0,0,.606-3.5v-.2a10.449,10.449,0,0,0-.279-2.479,8.366,8.366,0,0,0-.778-2.053,4.743,4.743,0,0,0-1.12-1.416l.248-.717a4.959,4.959,0,0,1,1.6,1.549,8.041,8.041,0,0,1,1.136,2.393A10.045,10.045,0,0,1,131.955-3.688ZM6.69,16.642a4.113,4.113,0,0,1-.717,2.526,2.3,2.3,0,0,1-1.942.958,2.519,2.519,0,0,1-1.968-.793v3.307H.889V13.132H1.961l.057.762A2.419,2.419,0,0,1,4.012,13a2.342,2.342,0,0,1,1.958.933,4.157,4.157,0,0,1,.72,2.6Zm-1.174-.133a3.035,3.035,0,0,0-.5-1.834A1.6,1.6,0,0,0,3.663,14a1.726,1.726,0,0,0-1.6.946v3.282a1.73,1.73,0,0,0,1.612.939,1.587,1.587,0,0,0,1.343-.67A3.312,3.312,0,0,0,5.516,16.509ZM11.5,14.186a3.519,3.519,0,0,0-.578-.044,1.547,1.547,0,0,0-1.568.984V20H8.182V13.132H9.325l.019.793A1.829,1.829,0,0,1,10.981,13a1.2,1.2,0,0,1,.521.089ZM13.857,20H12.683V13.132h1.174Zm-1.27-8.69a.7.7,0,0,1,.175-.482.655.655,0,0,1,.517-.2.666.666,0,0,1,.521.2.694.694,0,0,1,.178.482.671.671,0,0,1-.178.476.678.678,0,0,1-.521.19.667.667,0,0,1-.517-.19A.678.678,0,0,1,12.587,11.31ZM18,18.407l1.7-5.275h1.2L18.44,20h-.9l-2.488-6.868h1.2ZM26.178,20a2.467,2.467,0,0,1-.165-.724,2.62,2.62,0,0,1-1.955.851,2.424,2.424,0,0,1-1.666-.574,1.859,1.859,0,0,1-.651-1.457,1.942,1.942,0,0,1,.816-1.666,3.846,3.846,0,0,1,2.295-.594h1.143V15.3a1.319,1.319,0,0,0-.368-.981,1.48,1.48,0,0,0-1.085-.365,1.712,1.712,0,0,0-1.054.317.935.935,0,0,0-.425.768H21.88a1.621,1.621,0,0,1,.365-.993,2.491,2.491,0,0,1,.99-.759A3.331,3.331,0,0,1,24.61,13a2.715,2.715,0,0,1,1.86.594,2.141,2.141,0,0,1,.7,1.635v3.161a3.865,3.865,0,0,0,.241,1.5V20Zm-1.949-.9a2.064,2.064,0,0,0,1.047-.286,1.728,1.728,0,0,0,.717-.743V16.667h-.92q-2.158,0-2.158,1.263a1.069,1.069,0,0,0,.368.863A1.415,1.415,0,0,0,24.229,19.1ZM30.6,11.469v1.663h1.282v.908H30.6V18.3a.953.953,0,0,0,.171.62.721.721,0,0,0,.584.207,2.843,2.843,0,0,0,.559-.076V20a3.424,3.424,0,0,1-.9.126,1.462,1.462,0,0,1-1.187-.476,2.045,2.045,0,0,1-.4-1.352V14.04h-1.25v-.908h1.25V11.469Zm5.5,8.658a3,3,0,0,1-2.272-.917,3.4,3.4,0,0,1-.876-2.453v-.216a4.121,4.121,0,0,1,.39-1.825,3.045,3.045,0,0,1,1.092-1.257A2.745,2.745,0,0,1,35.959,13a2.572,2.572,0,0,1,2.082.882,3.82,3.82,0,0,1,.743,2.526V16.9H34.131a2.441,2.441,0,0,0,.594,1.641,1.866,1.866,0,0,0,1.444.625,2.045,2.045,0,0,0,1.054-.254,2.648,2.648,0,0,0,.755-.673l.717.559A2.884,2.884,0,0,1,36.105,20.127Zm-.146-6.157a1.566,1.566,0,0,0-1.193.517,2.515,2.515,0,0,0-.6,1.45h3.44v-.089a2.237,2.237,0,0,0-.482-1.387A1.475,1.475,0,0,0,35.959,13.97ZM44.77,19h4.38v1h-5.6V10.758H44.77Zm5.275-2.5a4.057,4.057,0,0,1,.4-1.815,2.96,2.96,0,0,1,1.1-1.244A3.007,3.007,0,0,1,53.162,13a2.9,2.9,0,0,1,2.269.971A3.736,3.736,0,0,1,56.3,16.56v.083a4.092,4.092,0,0,1-.384,1.8,2.916,2.916,0,0,1-1.1,1.241,3.041,3.041,0,0,1-1.641.444,2.889,2.889,0,0,1-2.263-.971,3.718,3.718,0,0,1-.866-2.571Zm1.181.14a2.938,2.938,0,0,0,.53,1.834,1.8,1.8,0,0,0,2.841-.01,3.213,3.213,0,0,0,.527-1.965,2.933,2.933,0,0,0-.536-1.831,1.705,1.705,0,0,0-1.425-.7,1.686,1.686,0,0,0-1.4.692A3.189,3.189,0,0,0,51.226,16.642Zm7.655-3.51.038.863A2.5,2.5,0,0,1,60.976,13q2.177,0,2.2,2.457V20H62V15.455a1.581,1.581,0,0,0-.34-1.1A1.361,1.361,0,0,0,60.62,14a1.7,1.7,0,0,0-1,.3,2.069,2.069,0,0,0-.673.8V20H57.77V13.132Zm5.783,3.377a4.037,4.037,0,0,1,.743-2.555,2.56,2.56,0,0,1,3.929-.06l.057-.762h1.073v6.7a2.794,2.794,0,0,1-.79,2.1,2.916,2.916,0,0,1-2.123.768,3.532,3.532,0,0,1-1.454-.317,2.5,2.5,0,0,1-1.085-.87l.609-.7a2.3,2.3,0,0,0,1.847.933,1.8,1.8,0,0,0,1.336-.482,1.844,1.844,0,0,0,.479-1.358v-.59a2.414,2.414,0,0,1-1.923.813,2.346,2.346,0,0,1-1.952-.971A4.244,4.244,0,0,1,64.664,16.509Zm1.181.133a3.08,3.08,0,0,0,.476,1.825,1.547,1.547,0,0,0,1.333.663,1.72,1.72,0,0,0,1.631-1.009V14.985A1.74,1.74,0,0,0,67.666,14a1.561,1.561,0,0,0-1.339.667A3.354,3.354,0,0,0,65.844,16.642ZM77.207,20H75.366V13.132h1.841Zm-1.949-8.646a.9.9,0,0,1,.276-.679,1.19,1.19,0,0,1,1.5,0,.969.969,0,0,1,0,1.365,1.177,1.177,0,0,1-1.492,0A.9.9,0,0,1,75.258,11.354Zm3.174,5.161a4.139,4.139,0,0,1,.72-2.558A2.338,2.338,0,0,1,81.123,13a2.1,2.1,0,0,1,1.657.749v-3.5h1.841V20H82.964l-.089-.73a2.159,2.159,0,0,1-1.765.857,2.331,2.331,0,0,1-1.946-.955A4.272,4.272,0,0,1,78.432,16.515Zm1.834.131a2.726,2.726,0,0,0,.336,1.486,1.1,1.1,0,0,0,.978.517,1.227,1.227,0,0,0,1.2-.721V15.2a1.21,1.21,0,0,0-1.187-.721Q80.266,14.484,80.266,16.646Zm5.776-2.866a.735.735,0,0,1,.181-.508.689.689,0,0,1,.543-.2.71.71,0,0,1,.549.2.721.721,0,0,1,.187.508.681.681,0,0,1-.187.489.723.723,0,0,1-.549.2.653.653,0,0,1-.724-.686Zm.222,8.062-.667-.457a3.063,3.063,0,0,0,.622-1.714V18.61h1.149v.92a2.891,2.891,0,0,1-.314,1.282A3,3,0,0,1,86.265,21.841ZM11.032,56.813a4.233,4.233,0,0,1-.762,2.425,2.2,2.2,0,0,1-1.834.889,1.44,1.44,0,0,1-1.523-1.066,2.417,2.417,0,0,1-.784.8,1.754,1.754,0,0,1-.911.263,1.511,1.511,0,0,1-1.365-.736,3.234,3.234,0,0,1-.343-2.038,5.581,5.581,0,0,1,.479-1.869,3.433,3.433,0,0,1,.99-1.292,2.049,2.049,0,0,1,1.273-.47,2.883,2.883,0,0,1,.92.136,3.182,3.182,0,0,1,.914.536l-.33,3.517q-.121,1.466.813,1.466a1.329,1.329,0,0,0,1.162-.711,3.693,3.693,0,0,0,.482-1.854A5.46,5.46,0,0,0,9.3,53.049a3.8,3.8,0,0,0-3.158-1.295,4.123,4.123,0,0,0-2.266.632,4.3,4.3,0,0,0-1.562,1.825,7.054,7.054,0,0,0-.641,2.755A6.55,6.55,0,0,0,2.05,59.7a3.641,3.641,0,0,0,1.393,1.771,4.042,4.042,0,0,0,2.263.613,4.836,4.836,0,0,0,1.146-.14,3.579,3.579,0,0,0,.955-.362l.235.73A3.558,3.558,0,0,1,7,62.717a5.539,5.539,0,0,1-1.317.159,5.046,5.046,0,0,1-2.729-.714A4.345,4.345,0,0,1,1.241,60.1a7.209,7.209,0,0,1-.492-3.139,7.609,7.609,0,0,1,.781-3.139A5.3,5.3,0,0,1,3.44,51.675a5.008,5.008,0,0,1,2.723-.759,4.986,4.986,0,0,1,2.71.711,4.265,4.265,0,0,1,1.682,2.05A7.354,7.354,0,0,1,11.032,56.813Zm-6.513.54a2.473,2.473,0,0,0,.168,1.384.861.861,0,0,0,.816.482,1.078,1.078,0,0,0,.733-.324,2.38,2.38,0,0,0,.581-.927l.006-.057.292-3.193a1.633,1.633,0,0,0-.762-.184,1.429,1.429,0,0,0-1.228.755A4.589,4.589,0,0,0,4.52,57.353Zm15.025-.286a3.4,3.4,0,0,1-1.082,2.263,3.547,3.547,0,0,1-2.422.8,3.257,3.257,0,0,1-2.625-1.174,4.724,4.724,0,0,1-.987-3.142v-.889a5.266,5.266,0,0,1,.46-2.266,3.438,3.438,0,0,1,1.3-1.5,3.632,3.632,0,0,1,1.955-.524,3.34,3.34,0,0,1,2.361.822,3.441,3.441,0,0,1,1.035,2.276H18.319a2.655,2.655,0,0,0-.689-1.6,2.084,2.084,0,0,0-1.482-.5,2.181,2.181,0,0,0-1.831.864,3.966,3.966,0,0,0-.663,2.459v.9a4.077,4.077,0,0,0,.628,2.4,2.031,2.031,0,0,0,1.758.889,2.345,2.345,0,0,0,1.558-.46,2.554,2.554,0,0,0,.72-1.6Zm1.168-.565a4.057,4.057,0,0,1,.4-1.815,2.96,2.96,0,0,1,1.1-1.244A3.007,3.007,0,0,1,23.829,53a2.9,2.9,0,0,1,2.269.971,3.736,3.736,0,0,1,.866,2.583v.083a4.092,4.092,0,0,1-.384,1.8,2.916,2.916,0,0,1-1.1,1.241,3.041,3.041,0,0,1-1.641.444,2.889,2.889,0,0,1-2.263-.971,3.718,3.718,0,0,1-.866-2.571Zm1.181.14a2.938,2.938,0,0,0,.53,1.834,1.8,1.8,0,0,0,2.841-.01,3.213,3.213,0,0,0,.527-1.965,2.933,2.933,0,0,0-.536-1.831,1.705,1.705,0,0,0-1.425-.7,1.686,1.686,0,0,0-1.4.692A3.189,3.189,0,0,0,21.893,56.642ZM29.713,60H28.539V50.25h1.174Zm6.119-.679a2.494,2.494,0,0,1-2.012.806,2.135,2.135,0,0,1-1.673-.638,2.761,2.761,0,0,1-.581-1.888V53.132h1.174v4.437q0,1.562,1.27,1.562a1.758,1.758,0,0,0,1.79-1v-5h1.174V60H35.858Zm4.031-6.189.032.762A2.536,2.536,0,0,1,41.933,53a1.964,1.964,0,0,1,1.961,1.1,2.6,2.6,0,0,1,.892-.8,2.634,2.634,0,0,1,1.3-.3q2.26,0,2.3,2.393V60H47.208V55.468a1.577,1.577,0,0,0-.336-1.1A1.482,1.482,0,0,0,45.741,54a1.557,1.557,0,0,0-1.085.39,1.584,1.584,0,0,0-.5,1.051V60H42.974V55.5A1.31,1.31,0,0,0,41.507,54a1.571,1.571,0,0,0-1.581.984V60H38.752V53.132Zm11.4,0L51.3,54A2.5,2.5,0,0,1,53.358,53q2.177,0,2.2,2.457V60H54.38V55.455a1.581,1.581,0,0,0-.34-1.1A1.361,1.361,0,0,0,53,54a1.7,1.7,0,0,0-1,.3,2.069,2.069,0,0,0-.673.8V60H50.153V53.132Zm6.018,3.117a9.814,9.814,0,0,1,.384-2.755,8,8,0,0,1,1.146-2.4,4.874,4.874,0,0,1,1.581-1.523l.241.774a5.056,5.056,0,0,0-1.52,2.171,9.411,9.411,0,0,0-.651,3.269l-.006.54a9.46,9.46,0,0,0,.9,4.253,5.079,5.079,0,0,0,1.282,1.688l-.241.717a5.031,5.031,0,0,1-1.612-1.574A8.823,8.823,0,0,1,57.281,56.249Zm5.6-3.117.038.863A2.5,2.5,0,0,1,64.975,53q2.177,0,2.2,2.457V60H66V55.455a1.581,1.581,0,0,0-.34-1.1A1.361,1.361,0,0,0,64.619,54a1.7,1.7,0,0,0-1,.3,2.069,2.069,0,0,0-.673.8V60H61.769V53.132ZM73.182,60a2.467,2.467,0,0,1-.165-.724,2.62,2.62,0,0,1-1.955.851,2.424,2.424,0,0,1-1.666-.574,1.859,1.859,0,0,1-.651-1.457,1.942,1.942,0,0,1,.816-1.666,3.846,3.846,0,0,1,2.295-.594H73V55.3a1.319,1.319,0,0,0-.368-.981,1.48,1.48,0,0,0-1.085-.365,1.712,1.712,0,0,0-1.054.317.935.935,0,0,0-.425.768H68.885a1.621,1.621,0,0,1,.365-.993,2.491,2.491,0,0,1,.99-.759A3.331,3.331,0,0,1,71.614,53a2.715,2.715,0,0,1,1.86.594,2.141,2.141,0,0,1,.7,1.635v3.161a3.865,3.865,0,0,0,.241,1.5V60Zm-1.949-.9a2.064,2.064,0,0,0,1.047-.286A1.728,1.728,0,0,0,73,58.077V56.667h-.92q-2.158,0-2.158,1.263a1.069,1.069,0,0,0,.368.863A1.415,1.415,0,0,0,71.233,59.1Zm5.884-5.973.032.762A2.536,2.536,0,0,1,79.187,53a1.964,1.964,0,0,1,1.961,1.1,2.6,2.6,0,0,1,.892-.8,2.634,2.634,0,0,1,1.3-.3q2.26,0,2.3,2.393V60H84.462V55.468a1.577,1.577,0,0,0-.336-1.1A1.482,1.482,0,0,0,83,54a1.557,1.557,0,0,0-1.085.39,1.584,1.584,0,0,0-.5,1.051V60H80.228V55.5A1.31,1.31,0,0,0,78.762,54a1.571,1.571,0,0,0-1.581.984V60H76.007V53.132Zm13.14,7a3,3,0,0,1-2.272-.917,3.4,3.4,0,0,1-.876-2.453v-.216a4.121,4.121,0,0,1,.39-1.825,3.045,3.045,0,0,1,1.092-1.257A2.745,2.745,0,0,1,90.111,53a2.572,2.572,0,0,1,2.082.882,3.82,3.82,0,0,1,.743,2.526V56.9H88.283a2.441,2.441,0,0,0,.594,1.641,1.866,1.866,0,0,0,1.444.625,2.045,2.045,0,0,0,1.054-.254,2.648,2.648,0,0,0,.755-.673l.717.559A2.884,2.884,0,0,1,90.257,60.127Zm-.146-6.157a1.566,1.566,0,0,0-1.193.517,2.515,2.515,0,0,0-.6,1.45h3.44v-.089a2.237,2.237,0,0,0-.482-1.387A1.475,1.475,0,0,0,90.111,53.97Zm12.771.863H97.589V53.811h5.294Zm0,2.634H97.589V56.452h5.294Zm5.96-7.433.863.5a3.386,3.386,0,0,0-.565,1.752v1.06h-1.454V52.4a2.89,2.89,0,0,1,.333-1.273A3.319,3.319,0,0,1,108.843,50.034Zm2.177,0,.863.5a3.386,3.386,0,0,0-.565,1.752v1.06h-1.454V52.4a2.89,2.89,0,0,1,.333-1.273A3.319,3.319,0,0,1,111.021,50.034Zm7.992,6.6a4.119,4.119,0,0,1-.72,2.542,2.31,2.31,0,0,1-1.946.955,2.14,2.14,0,0,1-1.682-.724v3.237H112.83V53.132h1.7l.063.673a2.156,2.156,0,0,1,1.739-.8,2.326,2.326,0,0,1,1.974.939,4.231,4.231,0,0,1,.7,2.59Zm-1.834-.14a2.718,2.718,0,0,0-.34-1.484,1.105,1.105,0,0,0-.987-.522,1.2,1.2,0,0,0-1.187.662v2.821a1.221,1.221,0,0,0,1.2.681Q117.178,58.648,117.178,56.49Zm6.132,3.637a3.372,3.372,0,0,1-2.46-.927,3.294,3.294,0,0,1-.949-2.469v-.178a4.149,4.149,0,0,1,.4-1.85,2.935,2.935,0,0,1,1.133-1.257A3.18,3.18,0,0,1,123.106,53a2.85,2.85,0,0,1,2.219.889,3.611,3.611,0,0,1,.809,2.52v.749h-4.374a1.7,1.7,0,0,0,.536,1.079,1.621,1.621,0,0,0,1.133.406,1.98,1.98,0,0,0,1.657-.768l.9,1.009a2.754,2.754,0,0,1-1.117.911A3.665,3.665,0,0,1,123.31,60.127Zm-.209-5.643a1.146,1.146,0,0,0-.885.37,1.915,1.915,0,0,0-.435,1.058h2.552v-.147a1.366,1.366,0,0,0-.33-.947A1.183,1.183,0,0,0,123.1,54.484Zm7.935.368a4.984,4.984,0,0,0-.66-.051,1.344,1.344,0,0,0-1.365.7V60h-1.834V53.132h1.733l.051.819a1.7,1.7,0,0,1,1.53-.946,1.922,1.922,0,0,1,.571.083Zm4.6,3.25a.591.591,0,0,0-.333-.53,3.785,3.785,0,0,0-1.07-.346q-2.45-.514-2.45-2.082a1.887,1.887,0,0,1,.759-1.527A3.06,3.06,0,0,1,134.526,53a3.293,3.293,0,0,1,2.092.616,1.94,1.94,0,0,1,.784,1.6h-1.834a.888.888,0,0,0-.254-.651,1.075,1.075,0,0,0-.793-.257,1.1,1.1,0,0,0-.717.209.661.661,0,0,0-.254.533.565.565,0,0,0,.289.492,2.971,2.971,0,0,0,.974.324,7.959,7.959,0,0,1,1.155.308,1.9,1.9,0,0,1,1.454,1.847,1.792,1.792,0,0,1-.806,1.52,3.478,3.478,0,0,1-2.082.581A3.632,3.632,0,0,1,133,59.819a2.572,2.572,0,0,1-1.051-.844,1.962,1.962,0,0,1-.381-1.158h1.739a.958.958,0,0,0,.362.749,1.435,1.435,0,0,0,.9.26,1.328,1.328,0,0,0,.8-.2A.622.622,0,0,0,135.637,58.1Zm2.679-1.6a4.073,4.073,0,0,1,.394-1.822,2.881,2.881,0,0,1,1.133-1.238A3.306,3.306,0,0,1,141.559,53a3.128,3.128,0,0,1,2.269.851,3.414,3.414,0,0,1,.981,2.311l.013.47a3.59,3.59,0,0,1-.882,2.536,3.42,3.42,0,0,1-4.739,0,3.653,3.653,0,0,1-.885-2.59Zm1.834.13a2.567,2.567,0,0,0,.368,1.5,1.323,1.323,0,0,0,2.095.006,2.809,2.809,0,0,0,.375-1.637,2.542,2.542,0,0,0-.375-1.488,1.217,1.217,0,0,0-1.054-.528,1.2,1.2,0,0,0-1.041.524A2.857,2.857,0,0,0,140.15,56.633Zm7.49-3.5.057.793a2.4,2.4,0,0,1,1.974-.92,1.993,1.993,0,0,1,1.625.641,2.991,2.991,0,0,1,.546,1.917V60h-1.834V55.6a1.2,1.2,0,0,0-.254-.849,1.135,1.135,0,0,0-.844-.264,1.261,1.261,0,0,0-1.162.662V60h-1.834V53.132ZM157.212,60a2.037,2.037,0,0,1-.184-.616,2.22,2.22,0,0,1-1.733.743,2.439,2.439,0,0,1-1.673-.584,1.878,1.878,0,0,1-.663-1.473,1.941,1.941,0,0,1,.809-1.676,3.994,3.994,0,0,1,2.339-.59h.844v-.394a1.132,1.132,0,0,0-.244-.762.961.961,0,0,0-.771-.286,1.093,1.093,0,0,0-.727.222.755.755,0,0,0-.263.609h-1.834a1.843,1.843,0,0,1,.368-1.1,2.434,2.434,0,0,1,1.041-.8A3.794,3.794,0,0,1,156.032,53a3,3,0,0,1,2.015.638,2.232,2.232,0,0,1,.746,1.793v2.977a3.283,3.283,0,0,0,.273,1.479V60ZM155.7,58.724a1.58,1.58,0,0,0,.749-.181,1.188,1.188,0,0,0,.508-.486V56.877h-.686q-1.377,0-1.466.952l-.006.108a.734.734,0,0,0,.241.565A.937.937,0,0,0,155.7,58.724Zm9.591,2.71H159.5V60h5.783Zm2.406-8.3.057.793a2.4,2.4,0,0,1,1.974-.92,1.993,1.993,0,0,1,1.625.641,2.991,2.991,0,0,1,.546,1.917V60H170.06V55.6a1.2,1.2,0,0,0-.254-.849,1.135,1.135,0,0,0-.844-.264,1.261,1.261,0,0,0-1.162.662V60h-1.834V53.132ZM173,56.5a4.073,4.073,0,0,1,.394-1.822,2.881,2.881,0,0,1,1.133-1.238A3.306,3.306,0,0,1,176.243,53a3.128,3.128,0,0,1,2.269.851,3.414,3.414,0,0,1,.981,2.311l.013.47a3.59,3.59,0,0,1-.882,2.536,3.42,3.42,0,0,1-4.739,0,3.653,3.653,0,0,1-.885-2.59Zm1.834.13a2.567,2.567,0,0,0,.368,1.5,1.323,1.323,0,0,0,2.095.006,2.809,2.809,0,0,0,.375-1.637,2.542,2.542,0,0,0-.375-1.488,1.217,1.217,0,0,0-1.054-.528,1.2,1.2,0,0,0-1.041.524A2.857,2.857,0,0,0,174.833,56.633Zm7.522-3.5.057.768a2.414,2.414,0,0,1,1.974-.9,1.832,1.832,0,0,1,1.822,1.047A2.358,2.358,0,0,1,188.271,53a2.049,2.049,0,0,1,1.663.651,2.991,2.991,0,0,1,.546,1.958V60H188.64V55.61a1.313,1.313,0,0,0-.229-.856,1.011,1.011,0,0,0-.806-.27,1.145,1.145,0,0,0-1.143.789L186.469,60h-1.834V55.616a1.3,1.3,0,0,0-.235-.865,1.021,1.021,0,0,0-.8-.267,1.188,1.188,0,0,0-1.13.649V60h-1.834V53.132Zm15.723,3.5a4.159,4.159,0,0,1-.7,2.574,2.334,2.334,0,0,1-1.968.924,2.144,2.144,0,0,1-1.784-.857l-.083.73h-1.65V50.25h1.834v3.5A2.089,2.089,0,0,1,195.394,53a2.353,2.353,0,0,1,1.971.924,4.165,4.165,0,0,1,.714,2.6Zm-1.834-.14a2.747,2.747,0,0,0-.33-1.525,1.115,1.115,0,0,0-.984-.481,1.21,1.21,0,0,0-1.206.719v2.719a1.226,1.226,0,0,0,1.219.726,1.133,1.133,0,0,0,1.168-.879A4.546,4.546,0,0,0,196.244,56.49Zm6.824-1.637a4.984,4.984,0,0,0-.66-.051,1.344,1.344,0,0,0-1.365.7V60h-1.834V53.132h1.733l.051.819a1.7,1.7,0,0,1,1.53-.946,1.922,1.922,0,0,1,.571.083Zm3.923,5.275a3.372,3.372,0,0,1-2.46-.927,3.294,3.294,0,0,1-.949-2.469v-.178a4.149,4.149,0,0,1,.4-1.85,2.935,2.935,0,0,1,1.133-1.257A3.18,3.18,0,0,1,206.788,53a2.85,2.85,0,0,1,2.219.889,3.611,3.611,0,0,1,.809,2.52v.749h-4.374a1.7,1.7,0,0,0,.536,1.079,1.621,1.621,0,0,0,1.133.406,1.98,1.98,0,0,0,1.657-.768l.9,1.009a2.754,2.754,0,0,1-1.117.911A3.665,3.665,0,0,1,206.991,60.127Zm-.209-5.643a1.146,1.146,0,0,0-.885.37,1.915,1.915,0,0,0-.435,1.058h2.552v-.147a1.366,1.366,0,0,0-.33-.947A1.183,1.183,0,0,0,206.781,54.484Zm4.6-.889-.863-.5a3.389,3.389,0,0,0,.565-1.771V50.25h1.46v.984a2.9,2.9,0,0,1-.317,1.238A3.4,3.4,0,0,1,211.383,53.6Zm2.2,0-.863-.5a3.389,3.389,0,0,0,.565-1.771V50.25h1.46v.984a2.9,2.9,0,0,1-.317,1.238A3.4,3.4,0,0,1,213.586,53.6Zm5.389,2.717a9.819,9.819,0,0,1-.371,2.714,8.024,8.024,0,0,1-1.136,2.4,4.978,4.978,0,0,1-1.6,1.562l-.248-.717a5.1,5.1,0,0,0,1.571-2.326,10.065,10.065,0,0,0,.606-3.5v-.2a10.449,10.449,0,0,0-.279-2.479,8.366,8.366,0,0,0-.778-2.053,4.743,4.743,0,0,0-1.12-1.416l.248-.717a4.959,4.959,0,0,1,1.6,1.549,8.041,8.041,0,0,1,1.136,2.393A10.046,10.046,0,0,1,218.975,56.312ZM6.69,76.642a4.113,4.113,0,0,1-.717,2.526,2.3,2.3,0,0,1-1.942.958,2.519,2.519,0,0,1-1.968-.793v3.307H.889V73.132H1.961l.057.762A2.419,2.419,0,0,1,4.012,73a2.342,2.342,0,0,1,1.958.933,4.157,4.157,0,0,1,.72,2.6Zm-1.174-.133a3.035,3.035,0,0,0-.5-1.834A1.6,1.6,0,0,0,3.663,74a1.726,1.726,0,0,0-1.6.946v3.282a1.73,1.73,0,0,0,1.612.939,1.587,1.587,0,0,0,1.343-.67A3.312,3.312,0,0,0,5.516,76.509ZM11.5,74.186a3.519,3.519,0,0,0-.578-.044,1.547,1.547,0,0,0-1.568.984V80H8.182V73.132H9.325l.019.793A1.829,1.829,0,0,1,10.981,73a1.2,1.2,0,0,1,.521.089ZM13.857,80H12.683V73.132h1.174Zm-1.27-8.69a.7.7,0,0,1,.175-.482.655.655,0,0,1,.517-.2.666.666,0,0,1,.521.2.694.694,0,0,1,.178.482.671.671,0,0,1-.178.476.678.678,0,0,1-.521.19.667.667,0,0,1-.517-.19A.678.678,0,0,1,12.587,71.31ZM18,78.407l1.7-5.275h1.2L18.44,80h-.9l-2.488-6.868h1.2ZM26.178,80a2.467,2.467,0,0,1-.165-.724,2.62,2.62,0,0,1-1.955.851,2.424,2.424,0,0,1-1.666-.574,1.859,1.859,0,0,1-.651-1.457,1.942,1.942,0,0,1,.816-1.666,3.846,3.846,0,0,1,2.295-.594h1.143V75.3a1.319,1.319,0,0,0-.368-.981,1.48,1.48,0,0,0-1.085-.365,1.712,1.712,0,0,0-1.054.317.935.935,0,0,0-.425.768H21.88a1.621,1.621,0,0,1,.365-.993,2.491,2.491,0,0,1,.99-.759A3.331,3.331,0,0,1,24.61,73a2.715,2.715,0,0,1,1.86.594,2.141,2.141,0,0,1,.7,1.635v3.161a3.865,3.865,0,0,0,.241,1.5V80Zm-1.949-.9a2.064,2.064,0,0,0,1.047-.286,1.728,1.728,0,0,0,.717-.743V76.667h-.92q-2.158,0-2.158,1.263a1.069,1.069,0,0,0,.368.863A1.415,1.415,0,0,0,24.229,79.1ZM30.6,71.469v1.663h1.282v.908H30.6V78.3a.953.953,0,0,0,.171.62.721.721,0,0,0,.584.207,2.843,2.843,0,0,0,.559-.076V80a3.424,3.424,0,0,1-.9.126,1.462,1.462,0,0,1-1.187-.476,2.045,2.045,0,0,1-.4-1.352V74.04h-1.25v-.908h1.25V71.469Zm5.5,8.658a3,3,0,0,1-2.272-.917,3.4,3.4,0,0,1-.876-2.453v-.216a4.121,4.121,0,0,1,.39-1.825,3.045,3.045,0,0,1,1.092-1.257A2.745,2.745,0,0,1,35.959,73a2.572,2.572,0,0,1,2.082.882,3.82,3.82,0,0,1,.743,2.526V76.9H34.131a2.441,2.441,0,0,0,.594,1.641,1.866,1.866,0,0,0,1.444.625,2.045,2.045,0,0,0,1.054-.254,2.648,2.648,0,0,0,.755-.673l.717.559A2.884,2.884,0,0,1,36.105,80.127Zm-.146-6.157a1.566,1.566,0,0,0-1.193.517,2.515,2.515,0,0,0-.6,1.45h3.44v-.089a2.237,2.237,0,0,0-.482-1.387A1.475,1.475,0,0,0,35.959,73.97ZM46.268,75.88a5.731,5.731,0,0,1-2.282-1.108,2.116,2.116,0,0,1-.714-1.622,2.236,2.236,0,0,1,.873-1.806,3.469,3.469,0,0,1,2.269-.714,3.786,3.786,0,0,1,1.7.368,2.792,2.792,0,0,1,1.155,1.016,2.6,2.6,0,0,1,.409,1.416H48.452a1.69,1.69,0,0,0-.533-1.322,2.168,2.168,0,0,0-1.5-.481,2.22,2.22,0,0,0-1.406.4,1.326,1.326,0,0,0-.5,1.1,1.193,1.193,0,0,0,.479.957,4.7,4.7,0,0,0,1.631.715,7.569,7.569,0,0,1,1.8.715,2.736,2.736,0,0,1,.965.911,2.325,2.325,0,0,1,.314,1.225,2.159,2.159,0,0,1-.876,1.8,3.735,3.735,0,0,1-2.342.676,4.344,4.344,0,0,1-1.777-.365,2.991,2.991,0,0,1-1.273-1,2.44,2.44,0,0,1-.448-1.441h1.225a1.592,1.592,0,0,0,.619,1.323,2.606,2.606,0,0,0,1.654.486,2.4,2.4,0,0,0,1.479-.394,1.278,1.278,0,0,0,.514-1.073,1.255,1.255,0,0,0-.476-1.051A5.489,5.489,0,0,0,46.268,75.88Zm6.4-4.412v1.663h1.282v.908H52.667V78.3a.953.953,0,0,0,.171.62.721.721,0,0,0,.584.207,2.843,2.843,0,0,0,.559-.076V80a3.424,3.424,0,0,1-.9.126,1.462,1.462,0,0,1-1.187-.476,2.045,2.045,0,0,1-.4-1.352V74.04h-1.25v-.908h1.25V71.469Zm5.973,2.717a3.519,3.519,0,0,0-.578-.044,1.547,1.547,0,0,0-1.568.984V80H55.32V73.132h1.143l.019.793A1.829,1.829,0,0,1,58.119,73a1.2,1.2,0,0,1,.521.089ZM60.995,80H59.82V73.132h1.174Zm-1.27-8.69a.7.7,0,0,1,.175-.482.655.655,0,0,1,.517-.2.666.666,0,0,1,.521.2.694.694,0,0,1,.178.482.671.671,0,0,1-.178.476.678.678,0,0,1-.521.19.667.667,0,0,1-.517-.19A.678.678,0,0,1,59.725,71.31Zm4.259,1.822.038.863A2.5,2.5,0,0,1,66.079,73q2.177,0,2.2,2.457V80H67.1V75.455a1.581,1.581,0,0,0-.34-1.1A1.361,1.361,0,0,0,65.724,74a1.7,1.7,0,0,0-1,.3,2.069,2.069,0,0,0-.673.8V80H62.874V73.132Zm5.783,3.377a4.037,4.037,0,0,1,.743-2.555,2.56,2.56,0,0,1,3.929-.06l.057-.762h1.073v6.7a2.794,2.794,0,0,1-.79,2.1,2.916,2.916,0,0,1-2.123.768,3.532,3.532,0,0,1-1.454-.317,2.5,2.5,0,0,1-1.085-.87l.609-.7a2.3,2.3,0,0,0,1.847.933,1.8,1.8,0,0,0,1.336-.482,1.844,1.844,0,0,0,.479-1.358v-.59a2.414,2.414,0,0,1-1.923.813,2.346,2.346,0,0,1-1.952-.971A4.244,4.244,0,0,1,69.767,76.509Zm1.181.133a3.08,3.08,0,0,0,.476,1.825,1.547,1.547,0,0,0,1.333.663,1.72,1.72,0,0,0,1.631-1.009V74.985A1.74,1.74,0,0,0,72.77,74a1.561,1.561,0,0,0-1.339.667A3.354,3.354,0,0,0,70.948,76.642Zm11.134-3.51.057.793A2.4,2.4,0,0,1,84.113,73a1.993,1.993,0,0,1,1.625.641,2.991,2.991,0,0,1,.546,1.917V80H84.449V75.6a1.2,1.2,0,0,0-.254-.849,1.135,1.135,0,0,0-.844-.264,1.261,1.261,0,0,0-1.162.662V80H80.355V73.132ZM87.388,76.5a4.073,4.073,0,0,1,.394-1.822,2.881,2.881,0,0,1,1.133-1.238A3.306,3.306,0,0,1,90.632,73a3.128,3.128,0,0,1,2.269.851,3.414,3.414,0,0,1,.981,2.311l.013.47a3.59,3.59,0,0,1-.882,2.536,3.42,3.42,0,0,1-4.739,0,3.653,3.653,0,0,1-.885-2.59Zm1.834.13a2.567,2.567,0,0,0,.368,1.5,1.323,1.323,0,0,0,2.095.006A2.809,2.809,0,0,0,92.06,76.5a2.542,2.542,0,0,0-.375-1.488,1.217,1.217,0,0,0-1.054-.528,1.2,1.2,0,0,0-1.041.524A2.857,2.857,0,0,0,89.223,76.633Zm7.522-3.5.057.768a2.414,2.414,0,0,1,1.974-.9,1.832,1.832,0,0,1,1.822,1.047A2.358,2.358,0,0,1,102.661,73a2.049,2.049,0,0,1,1.663.651,2.991,2.991,0,0,1,.546,1.958V80h-1.841V75.61a1.313,1.313,0,0,0-.229-.856,1.011,1.011,0,0,0-.806-.27,1.145,1.145,0,0,0-1.143.789L100.858,80H99.023V75.616a1.3,1.3,0,0,0-.235-.865,1.021,1.021,0,0,0-.8-.267,1.188,1.188,0,0,0-1.13.649V80H95.024V73.132Zm15.723,3.5a4.159,4.159,0,0,1-.7,2.574,2.334,2.334,0,0,1-1.968.924,2.144,2.144,0,0,1-1.784-.857l-.083.73h-1.65V70.25h1.834v3.5A2.089,2.089,0,0,1,109.783,73a2.353,2.353,0,0,1,1.971.924,4.165,4.165,0,0,1,.714,2.6Zm-1.834-.14a2.747,2.747,0,0,0-.33-1.525,1.115,1.115,0,0,0-.984-.481,1.21,1.21,0,0,0-1.206.719v2.719a1.226,1.226,0,0,0,1.219.726,1.133,1.133,0,0,0,1.168-.879A4.546,4.546,0,0,0,110.633,76.49Zm6.824-1.637a4.984,4.984,0,0,0-.66-.051,1.344,1.344,0,0,0-1.365.7V80H113.6V73.132h1.733l.051.819a1.7,1.7,0,0,1,1.53-.946,1.922,1.922,0,0,1,.571.083Zm3.923,5.275a3.372,3.372,0,0,1-2.46-.927,3.294,3.294,0,0,1-.949-2.469v-.178a4.149,4.149,0,0,1,.4-1.85,2.935,2.935,0,0,1,1.133-1.257A3.18,3.18,0,0,1,121.177,73a2.85,2.85,0,0,1,2.219.889,3.611,3.611,0,0,1,.809,2.52v.749h-4.374a1.7,1.7,0,0,0,.536,1.079,1.621,1.621,0,0,0,1.133.406,1.98,1.98,0,0,0,1.657-.768l.9,1.009a2.754,2.754,0,0,1-1.117.911A3.665,3.665,0,0,1,121.38,80.127Zm-.209-5.643a1.146,1.146,0,0,0-.885.37,1.915,1.915,0,0,0-.435,1.058H122.4v-.147a1.366,1.366,0,0,0-.33-.947A1.183,1.183,0,0,0,121.17,74.484Zm4.075-.7a.735.735,0,0,1,.181-.508.689.689,0,0,1,.543-.2.71.71,0,0,1,.549.2.721.721,0,0,1,.187.508.681.681,0,0,1-.187.489.723.723,0,0,1-.549.2.653.653,0,0,1-.724-.686Zm.222,8.062-.667-.457a3.063,3.063,0,0,0,.622-1.714V78.61h1.149v.92a2.891,2.891,0,0,1-.314,1.282A3,3,0,0,1,125.468,81.841ZM11.032,116.813a4.233,4.233,0,0,1-.762,2.425,2.2,2.2,0,0,1-1.834.889,1.44,1.44,0,0,1-1.523-1.066,2.417,2.417,0,0,1-.784.8,1.754,1.754,0,0,1-.911.263,1.511,1.511,0,0,1-1.365-.736,3.234,3.234,0,0,1-.343-2.038,5.581,5.581,0,0,1,.479-1.869,3.433,3.433,0,0,1,.99-1.292,2.049,2.049,0,0,1,1.273-.47,2.883,2.883,0,0,1,.92.136,3.182,3.182,0,0,1,.914.536l-.33,3.517q-.121,1.466.813,1.466a1.329,1.329,0,0,0,1.162-.711,3.693,3.693,0,0,0,.482-1.854,5.46,5.46,0,0,0-.917-3.764,3.8,3.8,0,0,0-3.158-1.295,4.123,4.123,0,0,0-2.266.632,4.3,4.3,0,0,0-1.562,1.825,7.054,7.054,0,0,0-.641,2.755A6.55,6.55,0,0,0,2.05,119.7a3.641,3.641,0,0,0,1.393,1.771,4.042,4.042,0,0,0,2.263.613,4.835,4.835,0,0,0,1.146-.14,3.579,3.579,0,0,0,.955-.362l.235.73A3.558,3.558,0,0,1,7,122.717a5.539,5.539,0,0,1-1.317.159,5.046,5.046,0,0,1-2.729-.714A4.345,4.345,0,0,1,1.241,120.1a7.209,7.209,0,0,1-.492-3.139,7.609,7.609,0,0,1,.781-3.139,5.3,5.3,0,0,1,1.911-2.152,5.008,5.008,0,0,1,2.723-.759,4.986,4.986,0,0,1,2.71.711,4.265,4.265,0,0,1,1.682,2.05A7.354,7.354,0,0,1,11.032,116.813Zm-6.513.54a2.473,2.473,0,0,0,.168,1.384.861.861,0,0,0,.816.482,1.078,1.078,0,0,0,.733-.324,2.38,2.38,0,0,0,.581-.927l.006-.057.292-3.193a1.633,1.633,0,0,0-.762-.184,1.429,1.429,0,0,0-1.228.755A4.589,4.589,0,0,0,4.52,117.353Zm15.025-.286a3.4,3.4,0,0,1-1.082,2.263,3.547,3.547,0,0,1-2.422.8,3.257,3.257,0,0,1-2.625-1.174,4.724,4.724,0,0,1-.987-3.142v-.889a5.266,5.266,0,0,1,.46-2.266,3.438,3.438,0,0,1,1.3-1.5,3.632,3.632,0,0,1,1.955-.524,3.34,3.34,0,0,1,2.361.822,3.441,3.441,0,0,1,1.035,2.276H18.319a2.655,2.655,0,0,0-.689-1.6,2.084,2.084,0,0,0-1.482-.5,2.181,2.181,0,0,0-1.831.864,3.966,3.966,0,0,0-.663,2.459v.9a4.077,4.077,0,0,0,.628,2.4,2.031,2.031,0,0,0,1.758.889,2.345,2.345,0,0,0,1.558-.46,2.554,2.554,0,0,0,.72-1.6Zm1.168-.565a4.057,4.057,0,0,1,.4-1.815,2.96,2.96,0,0,1,1.1-1.244A3.007,3.007,0,0,1,23.829,113a2.9,2.9,0,0,1,2.269.971,3.736,3.736,0,0,1,.866,2.583v.083a4.092,4.092,0,0,1-.384,1.8,2.916,2.916,0,0,1-1.1,1.241,3.041,3.041,0,0,1-1.641.444,2.889,2.889,0,0,1-2.263-.971,3.718,3.718,0,0,1-.866-2.571Zm1.181.14a2.938,2.938,0,0,0,.53,1.834,1.8,1.8,0,0,0,2.841-.01,3.213,3.213,0,0,0,.527-1.965,2.933,2.933,0,0,0-.536-1.831,1.705,1.705,0,0,0-1.425-.7,1.686,1.686,0,0,0-1.4.692A3.189,3.189,0,0,0,21.893,116.642ZM29.713,120H28.539v-9.75h1.174Zm6.119-.679a2.494,2.494,0,0,1-2.012.806,2.135,2.135,0,0,1-1.673-.638,2.761,2.761,0,0,1-.581-1.888v-4.469h1.174v4.437q0,1.562,1.27,1.562a1.758,1.758,0,0,0,1.79-1v-5h1.174V120H35.858Zm4.031-6.189.032.762A2.536,2.536,0,0,1,41.933,113a1.964,1.964,0,0,1,1.961,1.1,2.6,2.6,0,0,1,.892-.8,2.634,2.634,0,0,1,1.3-.3q2.26,0,2.3,2.393V120H47.208v-4.532a1.577,1.577,0,0,0-.336-1.1,1.482,1.482,0,0,0-1.13-.365,1.557,1.557,0,0,0-1.085.39,1.584,1.584,0,0,0-.5,1.051V120H42.974v-4.5a1.31,1.31,0,0,0-1.466-1.5,1.571,1.571,0,0,0-1.581.984V120H38.752v-6.868Zm11.4,0L51.3,114a2.5,2.5,0,0,1,2.057-.99q2.177,0,2.2,2.457V120H54.38v-4.545a1.581,1.581,0,0,0-.34-1.1A1.361,1.361,0,0,0,53,114a1.7,1.7,0,0,0-1,.3,2.069,2.069,0,0,0-.673.8V120H50.153v-6.868Zm6.018,3.117a9.814,9.814,0,0,1,.384-2.755,8,8,0,0,1,1.146-2.4,4.874,4.874,0,0,1,1.581-1.523l.241.774a5.056,5.056,0,0,0-1.52,2.171,9.411,9.411,0,0,0-.651,3.269l-.006.54a9.46,9.46,0,0,0,.9,4.253,5.079,5.079,0,0,0,1.282,1.688l-.241.717a5.031,5.031,0,0,1-1.612-1.574A8.823,8.823,0,0,1,57.281,116.249Zm5.6-3.117.038.863a2.5,2.5,0,0,1,2.057-.99q2.177,0,2.2,2.457V120H66v-4.545a1.581,1.581,0,0,0-.34-1.1A1.361,1.361,0,0,0,64.619,114a1.7,1.7,0,0,0-1,.3,2.069,2.069,0,0,0-.673.8V120H61.769v-6.868ZM73.182,120a2.467,2.467,0,0,1-.165-.724,2.62,2.62,0,0,1-1.955.851,2.424,2.424,0,0,1-1.666-.574,1.859,1.859,0,0,1-.651-1.457,1.942,1.942,0,0,1,.816-1.666,3.846,3.846,0,0,1,2.295-.594H73v-.54a1.319,1.319,0,0,0-.368-.981,1.48,1.48,0,0,0-1.085-.365,1.712,1.712,0,0,0-1.054.317.935.935,0,0,0-.425.768H68.885a1.621,1.621,0,0,1,.365-.993,2.491,2.491,0,0,1,.99-.759A3.331,3.331,0,0,1,71.614,113a2.715,2.715,0,0,1,1.86.594,2.141,2.141,0,0,1,.7,1.635v3.161a3.865,3.865,0,0,0,.241,1.5v.1Zm-1.949-.9a2.064,2.064,0,0,0,1.047-.286,1.728,1.728,0,0,0,.717-.743v-1.409h-.92q-2.158,0-2.158,1.263a1.069,1.069,0,0,0,.368.863A1.415,1.415,0,0,0,71.233,119.1Zm5.884-5.973.032.762A2.536,2.536,0,0,1,79.187,113a1.964,1.964,0,0,1,1.961,1.1,2.6,2.6,0,0,1,.892-.8,2.634,2.634,0,0,1,1.3-.3q2.26,0,2.3,2.393V120H84.462v-4.532a1.577,1.577,0,0,0-.336-1.1A1.482,1.482,0,0,0,83,114a1.557,1.557,0,0,0-1.085.39,1.584,1.584,0,0,0-.5,1.051V120H80.228v-4.5a1.31,1.31,0,0,0-1.466-1.5,1.571,1.571,0,0,0-1.581.984V120H76.007v-6.868Zm13.14,7a3,3,0,0,1-2.272-.917,3.4,3.4,0,0,1-.876-2.453v-.216a4.121,4.121,0,0,1,.39-1.825,3.045,3.045,0,0,1,1.092-1.257,2.745,2.745,0,0,1,1.52-.454,2.572,2.572,0,0,1,2.082.882,3.82,3.82,0,0,1,.743,2.526v.489H88.283a2.441,2.441,0,0,0,.594,1.641,1.866,1.866,0,0,0,1.444.625,2.045,2.045,0,0,0,1.054-.254,2.648,2.648,0,0,0,.755-.673l.717.559A2.884,2.884,0,0,1,90.257,120.127Zm-.146-6.157a1.566,1.566,0,0,0-1.193.517,2.514,2.514,0,0,0-.6,1.45h3.44v-.089a2.237,2.237,0,0,0-.482-1.387A1.475,1.475,0,0,0,90.111,113.97Zm12.771.863H97.589v-1.022h5.294Zm0,2.634H97.589v-1.016h5.294Zm5.96-7.433.863.5a3.386,3.386,0,0,0-.565,1.752v1.06h-1.454V112.4a2.89,2.89,0,0,1,.333-1.273A3.319,3.319,0,0,1,108.843,110.034Zm2.177,0,.863.5a3.386,3.386,0,0,0-.565,1.752v1.06h-1.454V112.4a2.89,2.89,0,0,1,.333-1.273A3.319,3.319,0,0,1,111.021,110.034Zm7.992,6.6a4.119,4.119,0,0,1-.72,2.542,2.31,2.31,0,0,1-1.946.955,2.14,2.14,0,0,1-1.682-.724v3.237H112.83v-9.509h1.7l.063.673a2.156,2.156,0,0,1,1.739-.8,2.326,2.326,0,0,1,1.974.939,4.231,4.231,0,0,1,.7,2.59Zm-1.834-.14a2.718,2.718,0,0,0-.34-1.484,1.105,1.105,0,0,0-.987-.522,1.2,1.2,0,0,0-1.187.662v2.821a1.221,1.221,0,0,0,1.2.681Q117.178,118.648,117.178,116.49Zm6.132,3.637a3.372,3.372,0,0,1-2.46-.927,3.294,3.294,0,0,1-.949-2.469v-.178a4.149,4.149,0,0,1,.4-1.85,2.935,2.935,0,0,1,1.133-1.257,3.18,3.18,0,0,1,1.673-.441,2.85,2.85,0,0,1,2.219.889,3.611,3.611,0,0,1,.809,2.52v.749h-4.374a1.7,1.7,0,0,0,.536,1.079,1.621,1.621,0,0,0,1.133.406,1.98,1.98,0,0,0,1.657-.768l.9,1.009a2.754,2.754,0,0,1-1.117.911A3.665,3.665,0,0,1,123.31,120.127Zm-.209-5.643a1.146,1.146,0,0,0-.885.37,1.915,1.915,0,0,0-.435,1.058h2.552v-.147a1.366,1.366,0,0,0-.33-.947A1.183,1.183,0,0,0,123.1,114.484Zm7.935.368a4.984,4.984,0,0,0-.66-.051,1.344,1.344,0,0,0-1.365.7V120h-1.834v-6.868h1.733l.051.819a1.7,1.7,0,0,1,1.53-.946,1.922,1.922,0,0,1,.571.083Zm4.6,3.25a.591.591,0,0,0-.333-.53,3.785,3.785,0,0,0-1.07-.346q-2.45-.514-2.45-2.082a1.887,1.887,0,0,1,.759-1.527,3.06,3.06,0,0,1,1.984-.613,3.293,3.293,0,0,1,2.092.616,1.94,1.94,0,0,1,.784,1.6h-1.834a.888.888,0,0,0-.254-.651,1.075,1.075,0,0,0-.793-.257,1.1,1.1,0,0,0-.717.209.661.661,0,0,0-.254.533.565.565,0,0,0,.289.492,2.971,2.971,0,0,0,.974.324,7.958,7.958,0,0,1,1.155.308,1.9,1.9,0,0,1,1.454,1.847,1.792,1.792,0,0,1-.806,1.52,3.478,3.478,0,0,1-2.082.581,3.632,3.632,0,0,1-1.533-.308,2.572,2.572,0,0,1-1.051-.844,1.962,1.962,0,0,1-.381-1.158h1.739a.958.958,0,0,0,.362.749,1.435,1.435,0,0,0,.9.26,1.328,1.328,0,0,0,.8-.2A.622.622,0,0,0,135.637,118.1Zm2.679-1.6a4.073,4.073,0,0,1,.394-1.822,2.881,2.881,0,0,1,1.133-1.238,3.306,3.306,0,0,1,1.717-.438,3.128,3.128,0,0,1,2.269.851,3.414,3.414,0,0,1,.981,2.311l.013.47a3.59,3.59,0,0,1-.882,2.536,3.42,3.42,0,0,1-4.739,0,3.653,3.653,0,0,1-.885-2.59Zm1.834.13a2.567,2.567,0,0,0,.368,1.5,1.323,1.323,0,0,0,2.095.006,2.809,2.809,0,0,0,.375-1.637,2.542,2.542,0,0,0-.375-1.488,1.217,1.217,0,0,0-1.054-.528,1.2,1.2,0,0,0-1.041.524A2.857,2.857,0,0,0,140.15,116.633Zm7.49-3.5.057.793a2.4,2.4,0,0,1,1.974-.92,1.993,1.993,0,0,1,1.625.641,2.991,2.991,0,0,1,.546,1.917V120h-1.834v-4.4a1.2,1.2,0,0,0-.254-.849,1.135,1.135,0,0,0-.844-.264,1.261,1.261,0,0,0-1.162.662V120h-1.834v-6.868ZM157.212,120a2.037,2.037,0,0,1-.184-.616,2.22,2.22,0,0,1-1.733.743,2.439,2.439,0,0,1-1.673-.584,1.878,1.878,0,0,1-.663-1.473,1.941,1.941,0,0,1,.809-1.676,3.994,3.994,0,0,1,2.339-.59h.844v-.394a1.132,1.132,0,0,0-.244-.762.961.961,0,0,0-.771-.286,1.093,1.093,0,0,0-.727.222.755.755,0,0,0-.263.609h-1.834a1.843,1.843,0,0,1,.368-1.1,2.434,2.434,0,0,1,1.041-.8,3.794,3.794,0,0,1,1.511-.289,3,3,0,0,1,2.015.638,2.232,2.232,0,0,1,.746,1.793v2.977a3.283,3.283,0,0,0,.273,1.479V120Zm-1.517-1.276a1.58,1.58,0,0,0,.749-.181,1.188,1.188,0,0,0,.508-.486v-1.181h-.686q-1.377,0-1.466.952l-.006.108a.734.734,0,0,0,.241.565A.937.937,0,0,0,155.7,118.724Zm9.591,2.71H159.5V120h5.783Zm4.7-1.435a2.037,2.037,0,0,1-.184-.616,2.22,2.22,0,0,1-1.733.743,2.439,2.439,0,0,1-1.673-.584,1.878,1.878,0,0,1-.663-1.473,1.941,1.941,0,0,1,.809-1.676,3.994,3.994,0,0,1,2.339-.59h.844v-.394a1.132,1.132,0,0,0-.244-.762.961.961,0,0,0-.771-.286,1.093,1.093,0,0,0-.727.222.755.755,0,0,0-.263.609h-1.834a1.843,1.843,0,0,1,.368-1.1,2.434,2.434,0,0,1,1.041-.8A3.794,3.794,0,0,1,168.8,113a3,3,0,0,1,2.015.638,2.232,2.232,0,0,1,.746,1.793v2.977a3.283,3.283,0,0,0,.273,1.479V120Zm-1.517-1.276a1.58,1.58,0,0,0,.749-.181,1.188,1.188,0,0,0,.508-.486v-1.181h-.686q-1.377,0-1.466.952l-.006.108a.734.734,0,0,0,.241.565A.937.937,0,0,0,168.467,118.724Zm10.689-2.095a4.119,4.119,0,0,1-.72,2.542,2.31,2.31,0,0,1-1.946.955,2.14,2.14,0,0,1-1.682-.724v3.237h-1.834v-9.509h1.7l.063.673a2.156,2.156,0,0,1,1.739-.8,2.326,2.326,0,0,1,1.974.939,4.231,4.231,0,0,1,.7,2.59Zm-1.834-.14a2.718,2.718,0,0,0-.34-1.484,1.105,1.105,0,0,0-.987-.522,1.2,1.2,0,0,0-1.187.662v2.821a1.221,1.221,0,0,0,1.2.681Q177.322,118.648,177.322,116.49Zm6.132,3.637a3.372,3.372,0,0,1-2.46-.927,3.294,3.294,0,0,1-.949-2.469v-.178a4.149,4.149,0,0,1,.4-1.85,2.935,2.935,0,0,1,1.133-1.257A3.18,3.18,0,0,1,183.25,113a2.85,2.85,0,0,1,2.219.889,3.611,3.611,0,0,1,.809,2.52v.749H181.9a1.7,1.7,0,0,0,.536,1.079,1.621,1.621,0,0,0,1.133.406,1.98,1.98,0,0,0,1.657-.768l.9,1.009a2.754,2.754,0,0,1-1.117.911A3.665,3.665,0,0,1,183.454,120.127Zm-.209-5.643a1.146,1.146,0,0,0-.885.37,1.915,1.915,0,0,0-.435,1.058h2.552v-.147a1.366,1.366,0,0,0-.33-.947A1.183,1.183,0,0,0,183.244,114.484ZM189.255,120h-1.841v-9.75h1.841Zm3.447,0h-1.841v-9.75H192.7Zm3.447,0h-1.841v-6.868h1.841Zm-1.949-8.646a.9.9,0,0,1,.276-.679,1.19,1.19,0,0,1,1.5,0,.969.969,0,0,1,0,1.365,1.177,1.177,0,0,1-1.492,0A.9.9,0,0,1,194.2,111.354Zm3.174,5.161a4.139,4.139,0,0,1,.72-2.558,2.338,2.338,0,0,1,1.971-.952,2.1,2.1,0,0,1,1.657.749v-3.5h1.841V120h-1.657l-.089-.73a2.159,2.159,0,0,1-1.765.857,2.331,2.331,0,0,1-1.946-.955A4.272,4.272,0,0,1,197.374,116.515Zm1.834.131a2.726,2.726,0,0,0,.336,1.486,1.1,1.1,0,0,0,.978.517,1.227,1.227,0,0,0,1.2-.721V115.2a1.21,1.21,0,0,0-1.187-.721Q199.208,114.484,199.208,116.646Zm5.491-.143a4.073,4.073,0,0,1,.394-1.822,2.881,2.881,0,0,1,1.133-1.238,3.306,3.306,0,0,1,1.717-.438,3.128,3.128,0,0,1,2.269.851,3.414,3.414,0,0,1,.981,2.311l.013.47a3.59,3.59,0,0,1-.882,2.536,3.42,3.42,0,0,1-4.739,0,3.653,3.653,0,0,1-.885-2.59Zm1.834.13a2.567,2.567,0,0,0,.368,1.5,1.323,1.323,0,0,0,2.095.006,2.809,2.809,0,0,0,.375-1.637,2.542,2.542,0,0,0-.375-1.488,1.217,1.217,0,0,0-1.054-.528,1.2,1.2,0,0,0-1.041.524A2.857,2.857,0,0,0,206.534,116.633Zm5.859-3.037-.863-.5a3.389,3.389,0,0,0,.565-1.771V110.25h1.46v.984a2.9,2.9,0,0,1-.317,1.238A3.4,3.4,0,0,1,212.393,113.6Zm2.2,0-.863-.5a3.389,3.389,0,0,0,.565-1.771V110.25h1.46v.984a2.9,2.9,0,0,1-.317,1.238A3.4,3.4,0,0,1,214.6,113.6Zm5.389,2.717a9.819,9.819,0,0,1-.371,2.714,8.024,8.024,0,0,1-1.136,2.4,4.978,4.978,0,0,1-1.6,1.562l-.248-.717a5.1,5.1,0,0,0,1.571-2.326,10.065,10.065,0,0,0,.606-3.5v-.2a10.449,10.449,0,0,0-.279-2.479,8.366,8.366,0,0,0-.778-2.053,4.743,4.743,0,0,0-1.12-1.416l.248-.717a4.959,4.959,0,0,1,1.6,1.549,8.041,8.041,0,0,1,1.136,2.393A10.045,10.045,0,0,1,219.984,116.312ZM6.69,136.642a4.113,4.113,0,0,1-.717,2.526,2.3,2.3,0,0,1-1.942.958,2.519,2.519,0,0,1-1.968-.793v3.307H.889v-9.509H1.961l.057.762A2.419,2.419,0,0,1,4.012,133a2.342,2.342,0,0,1,1.958.933,4.157,4.157,0,0,1,.72,2.6Zm-1.174-.133a3.035,3.035,0,0,0-.5-1.834A1.6,1.6,0,0,0,3.663,134a1.726,1.726,0,0,0-1.6.946v3.282a1.73,1.73,0,0,0,1.612.939,1.587,1.587,0,0,0,1.343-.67A3.313,3.313,0,0,0,5.516,136.509Zm5.986-2.323a3.52,3.52,0,0,0-.578-.044,1.547,1.547,0,0,0-1.568.984V140H8.182v-6.868H9.325l.019.793a1.829,1.829,0,0,1,1.638-.92,1.2,1.2,0,0,1,.521.089ZM13.857,140H12.683v-6.868h1.174Zm-1.27-8.69a.7.7,0,0,1,.175-.482.655.655,0,0,1,.517-.2.666.666,0,0,1,.521.2.694.694,0,0,1,.178.482.671.671,0,0,1-.178.476.678.678,0,0,1-.521.19.667.667,0,0,1-.517-.19A.678.678,0,0,1,12.587,131.31Zm5.415,7.1,1.7-5.275h1.2L18.44,140h-.9l-2.488-6.868h1.2ZM26.178,140a2.467,2.467,0,0,1-.165-.724,2.62,2.62,0,0,1-1.955.851,2.424,2.424,0,0,1-1.666-.574,1.859,1.859,0,0,1-.651-1.457,1.942,1.942,0,0,1,.816-1.666,3.846,3.846,0,0,1,2.295-.594h1.143v-.54a1.319,1.319,0,0,0-.368-.981,1.48,1.48,0,0,0-1.085-.365,1.712,1.712,0,0,0-1.054.317.935.935,0,0,0-.425.768H21.88a1.621,1.621,0,0,1,.365-.993,2.491,2.491,0,0,1,.99-.759A3.331,3.331,0,0,1,24.61,133a2.715,2.715,0,0,1,1.86.594,2.141,2.141,0,0,1,.7,1.635v3.161a3.865,3.865,0,0,0,.241,1.5v.1Zm-1.949-.9a2.064,2.064,0,0,0,1.047-.286,1.728,1.728,0,0,0,.717-.743v-1.409h-.92q-2.158,0-2.158,1.263a1.069,1.069,0,0,0,.368.863A1.415,1.415,0,0,0,24.229,139.1Zm6.373-7.636v1.663h1.282v.908H30.6V138.3a.953.953,0,0,0,.171.62.721.721,0,0,0,.584.207,2.843,2.843,0,0,0,.559-.076V140a3.424,3.424,0,0,1-.9.126,1.462,1.462,0,0,1-1.187-.476,2.045,2.045,0,0,1-.4-1.352V134.04h-1.25v-.908h1.25v-1.663Zm5.5,8.658a3,3,0,0,1-2.272-.917,3.4,3.4,0,0,1-.876-2.453v-.216a4.121,4.121,0,0,1,.39-1.825,3.045,3.045,0,0,1,1.092-1.257,2.745,2.745,0,0,1,1.52-.454,2.572,2.572,0,0,1,2.082.882,3.82,3.82,0,0,1,.743,2.526v.489H34.131a2.441,2.441,0,0,0,.594,1.641,1.866,1.866,0,0,0,1.444.625,2.045,2.045,0,0,0,1.054-.254,2.647,2.647,0,0,0,.755-.673l.717.559A2.884,2.884,0,0,1,36.105,140.127Zm-.146-6.157a1.566,1.566,0,0,0-1.193.517,2.515,2.515,0,0,0-.6,1.45h3.44v-.089a2.237,2.237,0,0,0-.482-1.387A1.475,1.475,0,0,0,35.959,133.97Zm10.309,1.911a5.731,5.731,0,0,1-2.282-1.108,2.116,2.116,0,0,1-.714-1.622,2.236,2.236,0,0,1,.873-1.806,3.469,3.469,0,0,1,2.269-.714,3.786,3.786,0,0,1,1.7.368,2.792,2.792,0,0,1,1.155,1.016,2.6,2.6,0,0,1,.409,1.416H48.452a1.69,1.69,0,0,0-.533-1.322,2.168,2.168,0,0,0-1.5-.481,2.22,2.22,0,0,0-1.406.4,1.326,1.326,0,0,0-.5,1.1,1.193,1.193,0,0,0,.479.957,4.7,4.7,0,0,0,1.631.715,7.569,7.569,0,0,1,1.8.715,2.736,2.736,0,0,1,.965.911,2.325,2.325,0,0,1,.314,1.225,2.159,2.159,0,0,1-.876,1.8,3.735,3.735,0,0,1-2.342.676,4.344,4.344,0,0,1-1.777-.365,2.991,2.991,0,0,1-1.273-1,2.44,2.44,0,0,1-.448-1.441h1.225a1.592,1.592,0,0,0,.619,1.323,2.606,2.606,0,0,0,1.654.486,2.4,2.4,0,0,0,1.479-.394,1.278,1.278,0,0,0,.514-1.073,1.255,1.255,0,0,0-.476-1.051A5.489,5.489,0,0,0,46.268,135.88Zm6.4-4.412v1.663h1.282v.908H52.667V138.3a.953.953,0,0,0,.171.62.721.721,0,0,0,.584.207,2.843,2.843,0,0,0,.559-.076V140a3.424,3.424,0,0,1-.9.126,1.462,1.462,0,0,1-1.187-.476,2.045,2.045,0,0,1-.4-1.352V134.04h-1.25v-.908h1.25v-1.663Zm5.973,2.717a3.52,3.52,0,0,0-.578-.044,1.547,1.547,0,0,0-1.568.984V140H55.32v-6.868h1.143l.019.793a1.829,1.829,0,0,1,1.638-.92,1.2,1.2,0,0,1,.521.089ZM60.995,140H59.82v-6.868h1.174Zm-1.27-8.69a.7.7,0,0,1,.175-.482.655.655,0,0,1,.517-.2.666.666,0,0,1,.521.2.694.694,0,0,1,.178.482.671.671,0,0,1-.178.476.678.678,0,0,1-.521.19.667.667,0,0,1-.517-.19A.678.678,0,0,1,59.725,131.31Zm4.259,1.822.038.863a2.5,2.5,0,0,1,2.057-.99q2.177,0,2.2,2.457V140H67.1v-4.545a1.581,1.581,0,0,0-.34-1.1A1.361,1.361,0,0,0,65.724,134a1.7,1.7,0,0,0-1,.3,2.069,2.069,0,0,0-.673.8V140H62.874v-6.868Zm5.783,3.377a4.037,4.037,0,0,1,.743-2.555,2.56,2.56,0,0,1,3.929-.06l.057-.762h1.073v6.7a2.794,2.794,0,0,1-.79,2.1,2.916,2.916,0,0,1-2.123.768,3.532,3.532,0,0,1-1.454-.317,2.5,2.5,0,0,1-1.085-.87l.609-.7a2.3,2.3,0,0,0,1.847.933,1.8,1.8,0,0,0,1.336-.482,1.844,1.844,0,0,0,.479-1.358v-.59a2.414,2.414,0,0,1-1.923.813,2.346,2.346,0,0,1-1.952-.971A4.244,4.244,0,0,1,69.767,136.509Zm1.181.133a3.079,3.079,0,0,0,.476,1.825,1.547,1.547,0,0,0,1.333.663,1.72,1.72,0,0,0,1.631-1.009v-3.136A1.74,1.74,0,0,0,72.77,134a1.561,1.561,0,0,0-1.339.667A3.354,3.354,0,0,0,70.948,136.642ZM84.354,140a2.037,2.037,0,0,1-.184-.616,2.22,2.22,0,0,1-1.733.743,2.439,2.439,0,0,1-1.673-.584,1.878,1.878,0,0,1-.663-1.473,1.941,1.941,0,0,1,.809-1.676,3.993,3.993,0,0,1,2.339-.59h.844v-.394a1.132,1.132,0,0,0-.244-.762.961.961,0,0,0-.771-.286,1.093,1.093,0,0,0-.727.222.755.755,0,0,0-.263.609H80.253a1.843,1.843,0,0,1,.368-1.1,2.434,2.434,0,0,1,1.041-.8A3.794,3.794,0,0,1,83.173,133a3,3,0,0,1,2.015.638,2.232,2.232,0,0,1,.746,1.793v2.977a3.284,3.284,0,0,0,.273,1.479V140Zm-1.517-1.276a1.58,1.58,0,0,0,.749-.181,1.188,1.188,0,0,0,.508-.486v-1.181h-.686q-1.377,0-1.466.952l-.006.108a.734.734,0,0,0,.241.565A.937.937,0,0,0,82.837,138.724Zm10.689-2.095a4.119,4.119,0,0,1-.72,2.542,2.31,2.31,0,0,1-1.946.955,2.14,2.14,0,0,1-1.682-.724v3.237H87.344v-9.509h1.7l.063.673a2.156,2.156,0,0,1,1.739-.8,2.326,2.326,0,0,1,1.974.939,4.231,4.231,0,0,1,.7,2.59Zm-1.834-.14a2.718,2.718,0,0,0-.34-1.484,1.105,1.105,0,0,0-.987-.522,1.2,1.2,0,0,0-1.187.662v2.821a1.221,1.221,0,0,0,1.2.681Q91.692,138.648,91.692,136.49Zm6.132,3.637a3.372,3.372,0,0,1-2.46-.927,3.294,3.294,0,0,1-.949-2.469v-.178a4.149,4.149,0,0,1,.4-1.85,2.935,2.935,0,0,1,1.133-1.257A3.18,3.18,0,0,1,97.621,133a2.85,2.85,0,0,1,2.219.889,3.611,3.611,0,0,1,.809,2.52v.749H96.275a1.7,1.7,0,0,0,.536,1.079,1.621,1.621,0,0,0,1.133.406,1.98,1.98,0,0,0,1.657-.768l.9,1.009a2.754,2.754,0,0,1-1.117.911A3.665,3.665,0,0,1,97.824,140.127Zm-.209-5.643a1.146,1.146,0,0,0-.885.37,1.915,1.915,0,0,0-.435,1.058h2.552v-.147a1.366,1.366,0,0,0-.33-.947A1.183,1.183,0,0,0,97.614,134.484ZM103.625,140h-1.841v-9.75h1.841Zm3.447,0h-1.841v-9.75h1.841Zm3.447,0h-1.841v-6.868h1.841Zm-1.949-8.646a.9.9,0,0,1,.276-.679,1.19,1.19,0,0,1,1.5,0,.969.969,0,0,1,0,1.365,1.177,1.177,0,0,1-1.492,0A.9.9,0,0,1,108.57,131.354Zm3.174,5.161a4.139,4.139,0,0,1,.72-2.558,2.338,2.338,0,0,1,1.971-.952,2.1,2.1,0,0,1,1.657.749v-3.5h1.841V140h-1.657l-.089-.73a2.159,2.159,0,0,1-1.765.857,2.331,2.331,0,0,1-1.946-.955A4.272,4.272,0,0,1,111.744,136.515Zm1.834.131a2.726,2.726,0,0,0,.336,1.486,1.1,1.1,0,0,0,.978.517,1.227,1.227,0,0,0,1.2-.721V135.2a1.21,1.21,0,0,0-1.187-.721Q113.579,134.484,113.579,136.646Zm5.491-.143a4.073,4.073,0,0,1,.394-1.822,2.881,2.881,0,0,1,1.133-1.238,3.306,3.306,0,0,1,1.717-.438,3.127,3.127,0,0,1,2.269.851,3.414,3.414,0,0,1,.981,2.311l.013.47a3.59,3.59,0,0,1-.882,2.536,3.42,3.42,0,0,1-4.739,0,3.653,3.653,0,0,1-.885-2.59Zm1.834.13a2.567,2.567,0,0,0,.368,1.5,1.323,1.323,0,0,0,2.095.006,2.809,2.809,0,0,0,.375-1.637,2.542,2.542,0,0,0-.375-1.488,1.217,1.217,0,0,0-1.054-.528,1.2,1.2,0,0,0-1.041.524A2.857,2.857,0,0,0,120.9,136.633Zm5.8-2.853a.735.735,0,0,1,.181-.508.689.689,0,0,1,.543-.2.71.71,0,0,1,.549.2.721.721,0,0,1,.187.508.682.682,0,0,1-.187.489.723.723,0,0,1-.549.2.653.653,0,0,1-.724-.686Zm.222,8.062-.667-.457a3.063,3.063,0,0,0,.622-1.714v-1.06h1.149v.92a2.891,2.891,0,0,1-.314,1.282A3,3,0,0,1,126.928,141.841Zm-115.9,34.973a4.233,4.233,0,0,1-.762,2.425,2.2,2.2,0,0,1-1.834.889,1.44,1.44,0,0,1-1.523-1.066,2.417,2.417,0,0,1-.784.8,1.754,1.754,0,0,1-.911.263,1.511,1.511,0,0,1-1.365-.736,3.234,3.234,0,0,1-.343-2.038,5.581,5.581,0,0,1,.479-1.869,3.433,3.433,0,0,1,.99-1.292,2.049,2.049,0,0,1,1.273-.47,2.883,2.883,0,0,1,.92.136,3.182,3.182,0,0,1,.914.536l-.33,3.517q-.121,1.466.813,1.466a1.329,1.329,0,0,0,1.162-.711,3.693,3.693,0,0,0,.482-1.854,5.46,5.46,0,0,0-.917-3.764,3.8,3.8,0,0,0-3.158-1.295,4.123,4.123,0,0,0-2.266.632,4.3,4.3,0,0,0-1.562,1.825,7.054,7.054,0,0,0-.641,2.755A6.55,6.55,0,0,0,2.05,179.7a3.641,3.641,0,0,0,1.393,1.771,4.042,4.042,0,0,0,2.263.613,4.836,4.836,0,0,0,1.146-.14,3.578,3.578,0,0,0,.955-.362l.235.73A3.557,3.557,0,0,1,7,182.717a5.539,5.539,0,0,1-1.317.159,5.046,5.046,0,0,1-2.729-.714A4.345,4.345,0,0,1,1.241,180.1a7.209,7.209,0,0,1-.492-3.139,7.609,7.609,0,0,1,.781-3.139,5.3,5.3,0,0,1,1.911-2.152,5.008,5.008,0,0,1,2.723-.759,4.986,4.986,0,0,1,2.71.711,4.265,4.265,0,0,1,1.682,2.05A7.354,7.354,0,0,1,11.032,176.813Zm-6.513.54a2.473,2.473,0,0,0,.168,1.384.861.861,0,0,0,.816.482,1.078,1.078,0,0,0,.733-.324,2.38,2.38,0,0,0,.581-.927l.006-.057.292-3.193a1.633,1.633,0,0,0-.762-.184,1.429,1.429,0,0,0-1.228.755A4.589,4.589,0,0,0,4.52,177.353Zm15.025-.286a3.4,3.4,0,0,1-1.082,2.263,3.547,3.547,0,0,1-2.422.8,3.257,3.257,0,0,1-2.625-1.174,4.725,4.725,0,0,1-.987-3.142v-.889a5.266,5.266,0,0,1,.46-2.266,3.438,3.438,0,0,1,1.3-1.5,3.632,3.632,0,0,1,1.955-.524,3.34,3.34,0,0,1,2.361.822,3.441,3.441,0,0,1,1.035,2.276H18.319a2.655,2.655,0,0,0-.689-1.6,2.084,2.084,0,0,0-1.482-.5,2.181,2.181,0,0,0-1.831.864,3.966,3.966,0,0,0-.663,2.459v.9a4.077,4.077,0,0,0,.628,2.4,2.031,2.031,0,0,0,1.758.889,2.345,2.345,0,0,0,1.558-.46,2.554,2.554,0,0,0,.72-1.6Zm1.168-.565a4.057,4.057,0,0,1,.4-1.815,2.96,2.96,0,0,1,1.1-1.244A3.007,3.007,0,0,1,23.829,173a2.9,2.9,0,0,1,2.269.971,3.736,3.736,0,0,1,.866,2.583v.083a4.092,4.092,0,0,1-.384,1.8,2.916,2.916,0,0,1-1.1,1.241,3.041,3.041,0,0,1-1.641.444,2.889,2.889,0,0,1-2.263-.971,3.718,3.718,0,0,1-.866-2.571Zm1.181.14a2.938,2.938,0,0,0,.53,1.834,1.8,1.8,0,0,0,2.841-.01,3.213,3.213,0,0,0,.527-1.965,2.933,2.933,0,0,0-.536-1.831,1.705,1.705,0,0,0-1.425-.7,1.686,1.686,0,0,0-1.4.692A3.189,3.189,0,0,0,21.893,176.642ZM29.713,180H28.539v-9.75h1.174Zm6.119-.679a2.494,2.494,0,0,1-2.012.806,2.135,2.135,0,0,1-1.673-.638,2.761,2.761,0,0,1-.581-1.888v-4.469h1.174v4.437q0,1.562,1.27,1.562a1.758,1.758,0,0,0,1.79-1v-5h1.174V180H35.858Zm4.031-6.189.032.762A2.536,2.536,0,0,1,41.933,173a1.964,1.964,0,0,1,1.961,1.1,2.6,2.6,0,0,1,.892-.8,2.634,2.634,0,0,1,1.3-.3q2.26,0,2.3,2.393V180H47.208v-4.532a1.577,1.577,0,0,0-.336-1.1,1.482,1.482,0,0,0-1.13-.365,1.557,1.557,0,0,0-1.085.39,1.584,1.584,0,0,0-.5,1.051V180H42.974v-4.5a1.31,1.31,0,0,0-1.466-1.5,1.571,1.571,0,0,0-1.581.984V180H38.752v-6.868Zm11.4,0L51.3,174a2.5,2.5,0,0,1,2.057-.99q2.177,0,2.2,2.457V180H54.38v-4.545a1.581,1.581,0,0,0-.34-1.1A1.361,1.361,0,0,0,53,174a1.7,1.7,0,0,0-1,.3,2.069,2.069,0,0,0-.673.8V180H50.153v-6.868Zm6.018,3.117a9.814,9.814,0,0,1,.384-2.755,8,8,0,0,1,1.146-2.4,4.874,4.874,0,0,1,1.581-1.523l.241.774a5.055,5.055,0,0,0-1.52,2.171,9.411,9.411,0,0,0-.651,3.269l-.006.54a9.46,9.46,0,0,0,.9,4.253,5.079,5.079,0,0,0,1.282,1.688l-.241.717a5.031,5.031,0,0,1-1.612-1.574A8.823,8.823,0,0,1,57.281,176.249Zm5.6-3.117.038.863a2.5,2.5,0,0,1,2.057-.99q2.177,0,2.2,2.457V180H66v-4.545a1.581,1.581,0,0,0-.34-1.1A1.361,1.361,0,0,0,64.619,174a1.7,1.7,0,0,0-1,.3,2.069,2.069,0,0,0-.673.8V180H61.769v-6.868ZM73.182,180a2.467,2.467,0,0,1-.165-.724,2.62,2.62,0,0,1-1.955.851,2.424,2.424,0,0,1-1.666-.574,1.859,1.859,0,0,1-.651-1.457,1.942,1.942,0,0,1,.816-1.666,3.846,3.846,0,0,1,2.295-.594H73v-.54a1.319,1.319,0,0,0-.368-.981,1.48,1.48,0,0,0-1.085-.365,1.712,1.712,0,0,0-1.054.317.935.935,0,0,0-.425.768H68.885a1.621,1.621,0,0,1,.365-.993,2.491,2.491,0,0,1,.99-.759A3.331,3.331,0,0,1,71.614,173a2.715,2.715,0,0,1,1.86.594,2.141,2.141,0,0,1,.7,1.635v3.161a3.865,3.865,0,0,0,.241,1.5v.1Zm-1.949-.9a2.064,2.064,0,0,0,1.047-.286,1.728,1.728,0,0,0,.717-.743v-1.409h-.92q-2.158,0-2.158,1.263a1.069,1.069,0,0,0,.368.863A1.415,1.415,0,0,0,71.233,179.1Zm5.884-5.973.032.762A2.536,2.536,0,0,1,79.187,173a1.964,1.964,0,0,1,1.961,1.1,2.6,2.6,0,0,1,.892-.8,2.634,2.634,0,0,1,1.3-.3q2.26,0,2.3,2.393V180H84.462v-4.532a1.577,1.577,0,0,0-.336-1.1A1.482,1.482,0,0,0,83,174a1.557,1.557,0,0,0-1.085.39,1.584,1.584,0,0,0-.5,1.051V180H80.228v-4.5a1.31,1.31,0,0,0-1.466-1.5,1.571,1.571,0,0,0-1.581.984V180H76.007v-6.868Zm13.14,7a3,3,0,0,1-2.272-.917,3.4,3.4,0,0,1-.876-2.453v-.216a4.121,4.121,0,0,1,.39-1.825,3.045,3.045,0,0,1,1.092-1.257,2.745,2.745,0,0,1,1.52-.454,2.572,2.572,0,0,1,2.082.882,3.82,3.82,0,0,1,.743,2.526v.489H88.283a2.441,2.441,0,0,0,.594,1.641,1.866,1.866,0,0,0,1.444.625,2.045,2.045,0,0,0,1.054-.254,2.648,2.648,0,0,0,.755-.673l.717.559A2.884,2.884,0,0,1,90.257,180.127Zm-.146-6.157a1.566,1.566,0,0,0-1.193.517,2.515,2.515,0,0,0-.6,1.45h3.44v-.089a2.237,2.237,0,0,0-.482-1.387A1.475,1.475,0,0,0,90.111,173.97Zm12.771.863H97.589v-1.022h5.294Zm0,2.634H97.589v-1.016h5.294Zm5.96-7.433.863.5a3.386,3.386,0,0,0-.565,1.752v1.06h-1.454V172.4a2.89,2.89,0,0,1,.333-1.273A3.319,3.319,0,0,1,108.843,170.034Zm2.177,0,.863.5a3.386,3.386,0,0,0-.565,1.752v1.06h-1.454V172.4a2.89,2.89,0,0,1,.333-1.273A3.319,3.319,0,0,1,111.021,170.034Zm7.992,6.6a4.119,4.119,0,0,1-.72,2.542,2.31,2.31,0,0,1-1.946.955,2.14,2.14,0,0,1-1.682-.724v3.237H112.83v-9.509h1.7l.063.673a2.156,2.156,0,0,1,1.739-.8,2.326,2.326,0,0,1,1.974.939,4.231,4.231,0,0,1,.7,2.59Zm-1.834-.14a2.718,2.718,0,0,0-.34-1.484,1.105,1.105,0,0,0-.987-.522,1.2,1.2,0,0,0-1.187.662v2.821a1.221,1.221,0,0,0,1.2.681Q117.178,178.648,117.178,176.49Zm6.132,3.637a3.372,3.372,0,0,1-2.46-.927,3.294,3.294,0,0,1-.949-2.469v-.178a4.149,4.149,0,0,1,.4-1.85,2.935,2.935,0,0,1,1.133-1.257,3.18,3.18,0,0,1,1.673-.441,2.85,2.85,0,0,1,2.219.889,3.611,3.611,0,0,1,.809,2.52v.749h-4.374a1.7,1.7,0,0,0,.536,1.079,1.621,1.621,0,0,0,1.133.406,1.98,1.98,0,0,0,1.657-.768l.9,1.009a2.754,2.754,0,0,1-1.117.911A3.665,3.665,0,0,1,123.31,180.127Zm-.209-5.643a1.146,1.146,0,0,0-.885.37,1.915,1.915,0,0,0-.435,1.058h2.552v-.147a1.366,1.366,0,0,0-.33-.947A1.183,1.183,0,0,0,123.1,174.484Zm7.935.368a4.983,4.983,0,0,0-.66-.051,1.344,1.344,0,0,0-1.365.7V180h-1.834v-6.868h1.733l.051.819a1.7,1.7,0,0,1,1.53-.946,1.922,1.922,0,0,1,.571.083Zm4.6,3.25a.591.591,0,0,0-.333-.53,3.785,3.785,0,0,0-1.07-.346q-2.45-.514-2.45-2.082a1.887,1.887,0,0,1,.759-1.527,3.06,3.06,0,0,1,1.984-.613,3.293,3.293,0,0,1,2.092.616,1.94,1.94,0,0,1,.784,1.6h-1.834a.888.888,0,0,0-.254-.651,1.075,1.075,0,0,0-.793-.257,1.1,1.1,0,0,0-.717.209.661.661,0,0,0-.254.533.565.565,0,0,0,.289.492,2.971,2.971,0,0,0,.974.324,7.959,7.959,0,0,1,1.155.308,1.9,1.9,0,0,1,1.454,1.847,1.792,1.792,0,0,1-.806,1.52,3.478,3.478,0,0,1-2.082.581,3.632,3.632,0,0,1-1.533-.308,2.572,2.572,0,0,1-1.051-.844,1.962,1.962,0,0,1-.381-1.158h1.739a.958.958,0,0,0,.362.749,1.435,1.435,0,0,0,.9.26,1.328,1.328,0,0,0,.8-.2A.622.622,0,0,0,135.637,178.1Zm2.679-1.6a4.073,4.073,0,0,1,.394-1.822,2.881,2.881,0,0,1,1.133-1.238,3.306,3.306,0,0,1,1.717-.438,3.127,3.127,0,0,1,2.269.851,3.414,3.414,0,0,1,.981,2.311l.013.47a3.59,3.59,0,0,1-.882,2.536,3.42,3.42,0,0,1-4.739,0,3.653,3.653,0,0,1-.885-2.59Zm1.834.13a2.567,2.567,0,0,0,.368,1.5,1.323,1.323,0,0,0,2.095.006,2.809,2.809,0,0,0,.375-1.637,2.542,2.542,0,0,0-.375-1.488,1.217,1.217,0,0,0-1.054-.528,1.2,1.2,0,0,0-1.041.524A2.857,2.857,0,0,0,140.15,176.633Zm7.49-3.5.057.793a2.4,2.4,0,0,1,1.974-.92,1.993,1.993,0,0,1,1.625.641,2.991,2.991,0,0,1,.546,1.917V180h-1.834v-4.4a1.2,1.2,0,0,0-.254-.849,1.135,1.135,0,0,0-.844-.264,1.261,1.261,0,0,0-1.162.662V180h-1.834v-6.868ZM157.212,180a2.037,2.037,0,0,1-.184-.616,2.22,2.22,0,0,1-1.733.743,2.439,2.439,0,0,1-1.673-.584,1.878,1.878,0,0,1-.663-1.473,1.941,1.941,0,0,1,.809-1.676,3.993,3.993,0,0,1,2.339-.59h.844v-.394a1.132,1.132,0,0,0-.244-.762.961.961,0,0,0-.771-.286,1.093,1.093,0,0,0-.727.222.755.755,0,0,0-.263.609h-1.834a1.843,1.843,0,0,1,.368-1.1,2.434,2.434,0,0,1,1.041-.8,3.794,3.794,0,0,1,1.511-.289,3,3,0,0,1,2.015.638,2.232,2.232,0,0,1,.746,1.793v2.977a3.283,3.283,0,0,0,.273,1.479V180Zm-1.517-1.276a1.58,1.58,0,0,0,.749-.181,1.188,1.188,0,0,0,.508-.486v-1.181h-.686q-1.377,0-1.466.952l-.006.108a.734.734,0,0,0,.241.565A.937.937,0,0,0,155.7,178.724Zm9.591,2.71H159.5V180h5.783Zm2.914-9.991v1.688h1.174v1.346H168.2v3.428a.818.818,0,0,0,.146.546.733.733,0,0,0,.559.165,2.926,2.926,0,0,0,.54-.044v1.39a3.776,3.776,0,0,1-1.111.165,1.752,1.752,0,0,1-1.968-1.949v-3.7h-1v-1.346h1v-1.688Zm5.357,8.684a3.372,3.372,0,0,1-2.46-.927,3.294,3.294,0,0,1-.949-2.469v-.178a4.149,4.149,0,0,1,.4-1.85,2.935,2.935,0,0,1,1.133-1.257,3.18,3.18,0,0,1,1.673-.441,2.85,2.85,0,0,1,2.219.889,3.611,3.611,0,0,1,.809,2.52v.749h-4.374a1.7,1.7,0,0,0,.536,1.079,1.621,1.621,0,0,0,1.133.406,1.98,1.98,0,0,0,1.657-.768l.9,1.009a2.754,2.754,0,0,1-1.117.911A3.665,3.665,0,0,1,173.558,180.127Zm-.209-5.643a1.146,1.146,0,0,0-.885.37,1.915,1.915,0,0,0-.435,1.058h2.552v-.147a1.366,1.366,0,0,0-.33-.947A1.183,1.183,0,0,0,173.348,174.484ZM179.359,180h-1.841v-9.75h1.841Zm4.672.127a3.372,3.372,0,0,1-2.46-.927,3.294,3.294,0,0,1-.949-2.469v-.178a4.149,4.149,0,0,1,.4-1.85,2.935,2.935,0,0,1,1.133-1.257,3.18,3.18,0,0,1,1.673-.441,2.85,2.85,0,0,1,2.219.889,3.611,3.611,0,0,1,.809,2.52v.749h-4.374a1.7,1.7,0,0,0,.536,1.079,1.621,1.621,0,0,0,1.133.406,1.98,1.98,0,0,0,1.657-.768l.9,1.009a2.754,2.754,0,0,1-1.117.911A3.665,3.665,0,0,1,184.031,180.127Zm-.209-5.643a1.146,1.146,0,0,0-.885.37,1.915,1.915,0,0,0-.435,1.058h2.552v-.147a1.366,1.366,0,0,0-.33-.947A1.183,1.183,0,0,0,183.822,174.484ZM188.4,180v-5.522h-1.022v-1.346H188.4v-.584a2.371,2.371,0,0,1,.663-1.793,2.569,2.569,0,0,1,1.857-.638,4.323,4.323,0,0,1,.933.126l-.019,1.41a2.339,2.339,0,0,0-.559-.057q-1.035,0-1.035.979v.557H191.6v1.346h-1.365V180Zm3.872-3.5a4.073,4.073,0,0,1,.394-1.822,2.881,2.881,0,0,1,1.133-1.238,3.306,3.306,0,0,1,1.717-.438,3.127,3.127,0,0,1,2.269.851,3.414,3.414,0,0,1,.981,2.311l.013.47a3.59,3.59,0,0,1-.882,2.536,3.42,3.42,0,0,1-4.739,0,3.653,3.653,0,0,1-.885-2.59Zm1.834.13a2.567,2.567,0,0,0,.368,1.5,1.323,1.323,0,0,0,2.095.006,2.809,2.809,0,0,0,.375-1.637,2.542,2.542,0,0,0-.375-1.488,1.217,1.217,0,0,0-1.054-.528,1.2,1.2,0,0,0-1.041.524A2.857,2.857,0,0,0,194.1,176.633Zm7.49-3.5.057.793a2.4,2.4,0,0,1,1.974-.92,1.993,1.993,0,0,1,1.625.641,2.991,2.991,0,0,1,.546,1.917V180h-1.834v-4.4a1.2,1.2,0,0,0-.254-.849,1.135,1.135,0,0,0-.844-.264,1.261,1.261,0,0,0-1.162.662V180h-1.834v-6.868ZM206.9,176.5a4.073,4.073,0,0,1,.394-1.822,2.881,2.881,0,0,1,1.133-1.238,3.306,3.306,0,0,1,1.717-.438,3.127,3.127,0,0,1,2.269.851,3.414,3.414,0,0,1,.981,2.311l.013.47a3.59,3.59,0,0,1-.882,2.536,3.42,3.42,0,0,1-4.739,0,3.653,3.653,0,0,1-.885-2.59Zm1.834.13a2.567,2.567,0,0,0,.368,1.5,1.323,1.323,0,0,0,2.095.006,2.809,2.809,0,0,0,.375-1.637,2.542,2.542,0,0,0-.375-1.488,1.217,1.217,0,0,0-1.054-.528,1.2,1.2,0,0,0-1.041.524A2.857,2.857,0,0,0,208.736,176.633ZM214.6,173.6l-.863-.5a3.389,3.389,0,0,0,.565-1.771V170.25h1.46v.984a2.9,2.9,0,0,1-.317,1.238A3.4,3.4,0,0,1,214.6,173.6Zm2.2,0-.863-.5a3.389,3.389,0,0,0,.565-1.771V170.25h1.46v.984a2.9,2.9,0,0,1-.317,1.238A3.4,3.4,0,0,1,216.8,173.6Zm5.389,2.717a9.819,9.819,0,0,1-.371,2.714,8.024,8.024,0,0,1-1.136,2.4,4.978,4.978,0,0,1-1.6,1.562l-.248-.717a5.1,5.1,0,0,0,1.571-2.326,10.064,10.064,0,0,0,.606-3.5v-.2a10.449,10.449,0,0,0-.279-2.479,8.366,8.366,0,0,0-.778-2.053,4.743,4.743,0,0,0-1.12-1.416l.248-.717a4.959,4.959,0,0,1,1.6,1.549,8.041,8.041,0,0,1,1.136,2.393A10.046,10.046,0,0,1,222.187,176.312ZM6.69,196.642a4.113,4.113,0,0,1-.717,2.526,2.3,2.3,0,0,1-1.942.958,2.519,2.519,0,0,1-1.968-.793v3.307H.889v-9.509H1.961l.057.762A2.419,2.419,0,0,1,4.012,193a2.342,2.342,0,0,1,1.958.933,4.157,4.157,0,0,1,.72,2.6Zm-1.174-.133a3.035,3.035,0,0,0-.5-1.834A1.6,1.6,0,0,0,3.663,194a1.726,1.726,0,0,0-1.6.946v3.282a1.73,1.73,0,0,0,1.612.939,1.587,1.587,0,0,0,1.343-.67A3.313,3.313,0,0,0,5.516,196.509Zm5.986-2.323a3.52,3.52,0,0,0-.578-.044,1.547,1.547,0,0,0-1.568.984V200H8.182v-6.868H9.325l.019.793a1.829,1.829,0,0,1,1.638-.92,1.2,1.2,0,0,1,.521.089ZM13.857,200H12.683v-6.868h1.174Zm-1.27-8.69a.7.7,0,0,1,.175-.482.655.655,0,0,1,.517-.2.666.666,0,0,1,.521.2.694.694,0,0,1,.178.482.671.671,0,0,1-.178.476.678.678,0,0,1-.521.19.667.667,0,0,1-.517-.19A.678.678,0,0,1,12.587,191.31Zm5.415,7.1,1.7-5.275h1.2L18.44,200h-.9l-2.488-6.868h1.2ZM26.178,200a2.467,2.467,0,0,1-.165-.724,2.62,2.62,0,0,1-1.955.851,2.424,2.424,0,0,1-1.666-.574,1.859,1.859,0,0,1-.651-1.457,1.942,1.942,0,0,1,.816-1.666,3.846,3.846,0,0,1,2.295-.594h1.143v-.54a1.319,1.319,0,0,0-.368-.981,1.48,1.48,0,0,0-1.085-.365,1.712,1.712,0,0,0-1.054.317.935.935,0,0,0-.425.768H21.88a1.621,1.621,0,0,1,.365-.993,2.491,2.491,0,0,1,.99-.759A3.331,3.331,0,0,1,24.61,193a2.715,2.715,0,0,1,1.86.594,2.141,2.141,0,0,1,.7,1.635v3.161a3.865,3.865,0,0,0,.241,1.5v.1Zm-1.949-.9a2.064,2.064,0,0,0,1.047-.286,1.728,1.728,0,0,0,.717-.743v-1.409h-.92q-2.158,0-2.158,1.263a1.069,1.069,0,0,0,.368.863A1.415,1.415,0,0,0,24.229,199.1Zm6.373-7.636v1.663h1.282v.908H30.6V198.3a.953.953,0,0,0,.171.62.721.721,0,0,0,.584.207,2.843,2.843,0,0,0,.559-.076V200a3.424,3.424,0,0,1-.9.126,1.462,1.462,0,0,1-1.187-.476,2.045,2.045,0,0,1-.4-1.352V194.04h-1.25v-.908h1.25v-1.663Zm5.5,8.658a3,3,0,0,1-2.272-.917,3.4,3.4,0,0,1-.876-2.453v-.216a4.121,4.121,0,0,1,.39-1.825,3.045,3.045,0,0,1,1.092-1.257,2.745,2.745,0,0,1,1.52-.454,2.572,2.572,0,0,1,2.082.882,3.82,3.82,0,0,1,.743,2.526v.489H34.131a2.441,2.441,0,0,0,.594,1.641,1.866,1.866,0,0,0,1.444.625,2.045,2.045,0,0,0,1.054-.254,2.647,2.647,0,0,0,.755-.673l.717.559A2.884,2.884,0,0,1,36.105,200.127Zm-.146-6.157a1.566,1.566,0,0,0-1.193.517,2.515,2.515,0,0,0-.6,1.45h3.44v-.089a2.237,2.237,0,0,0-.482-1.387A1.475,1.475,0,0,0,35.959,193.97Zm10.309,1.911a5.731,5.731,0,0,1-2.282-1.108,2.116,2.116,0,0,1-.714-1.622,2.236,2.236,0,0,1,.873-1.806,3.469,3.469,0,0,1,2.269-.714,3.786,3.786,0,0,1,1.7.368,2.792,2.792,0,0,1,1.155,1.016,2.6,2.6,0,0,1,.409,1.416H48.452a1.69,1.69,0,0,0-.533-1.322,2.168,2.168,0,0,0-1.5-.481,2.22,2.22,0,0,0-1.406.4,1.326,1.326,0,0,0-.5,1.1,1.193,1.193,0,0,0,.479.957,4.7,4.7,0,0,0,1.631.715,7.569,7.569,0,0,1,1.8.715,2.736,2.736,0,0,1,.965.911,2.325,2.325,0,0,1,.314,1.225,2.159,2.159,0,0,1-.876,1.8,3.735,3.735,0,0,1-2.342.676,4.344,4.344,0,0,1-1.777-.365,2.991,2.991,0,0,1-1.273-1,2.44,2.44,0,0,1-.448-1.441h1.225a1.592,1.592,0,0,0,.619,1.323,2.606,2.606,0,0,0,1.654.486,2.4,2.4,0,0,0,1.479-.394,1.278,1.278,0,0,0,.514-1.073,1.255,1.255,0,0,0-.476-1.051A5.489,5.489,0,0,0,46.268,195.88Zm6.4-4.412v1.663h1.282v.908H52.667V198.3a.953.953,0,0,0,.171.62.721.721,0,0,0,.584.207,2.843,2.843,0,0,0,.559-.076V200a3.424,3.424,0,0,1-.9.126,1.462,1.462,0,0,1-1.187-.476,2.045,2.045,0,0,1-.4-1.352V194.04h-1.25v-.908h1.25v-1.663Zm5.973,2.717a3.52,3.52,0,0,0-.578-.044,1.547,1.547,0,0,0-1.568.984V200H55.32v-6.868h1.143l.019.793a1.829,1.829,0,0,1,1.638-.92,1.2,1.2,0,0,1,.521.089ZM60.995,200H59.82v-6.868h1.174Zm-1.27-8.69a.7.7,0,0,1,.175-.482.655.655,0,0,1,.517-.2.666.666,0,0,1,.521.2.694.694,0,0,1,.178.482.671.671,0,0,1-.178.476.678.678,0,0,1-.521.19.667.667,0,0,1-.517-.19A.678.678,0,0,1,59.725,191.31Zm4.259,1.822.038.863a2.5,2.5,0,0,1,2.057-.99q2.177,0,2.2,2.457V200H67.1v-4.545a1.581,1.581,0,0,0-.34-1.1A1.361,1.361,0,0,0,65.724,194a1.7,1.7,0,0,0-1,.3,2.069,2.069,0,0,0-.673.8V200H62.874v-6.868Zm5.783,3.377a4.037,4.037,0,0,1,.743-2.555,2.56,2.56,0,0,1,3.929-.06l.057-.762h1.073v6.7a2.794,2.794,0,0,1-.79,2.1,2.916,2.916,0,0,1-2.123.768,3.532,3.532,0,0,1-1.454-.317,2.5,2.5,0,0,1-1.085-.87l.609-.7a2.3,2.3,0,0,0,1.847.933,1.8,1.8,0,0,0,1.336-.482,1.844,1.844,0,0,0,.479-1.358v-.59a2.414,2.414,0,0,1-1.923.813,2.346,2.346,0,0,1-1.952-.971A4.244,4.244,0,0,1,69.767,196.509Zm1.181.133a3.079,3.079,0,0,0,.476,1.825,1.547,1.547,0,0,0,1.333.663,1.72,1.72,0,0,0,1.631-1.009v-3.136A1.74,1.74,0,0,0,72.77,194a1.561,1.561,0,0,0-1.339.667A3.354,3.354,0,0,0,70.948,196.642Zm11.623-5.2v1.688h1.174v1.346H82.57v3.428a.818.818,0,0,0,.146.546.733.733,0,0,0,.559.165,2.926,2.926,0,0,0,.54-.044v1.39a3.776,3.776,0,0,1-1.111.165,1.752,1.752,0,0,1-1.968-1.949v-3.7h-1v-1.346h1v-1.688Zm5.357,8.684a3.372,3.372,0,0,1-2.46-.927,3.294,3.294,0,0,1-.949-2.469v-.178a4.149,4.149,0,0,1,.4-1.85,2.935,2.935,0,0,1,1.133-1.257A3.18,3.18,0,0,1,87.725,193a2.85,2.85,0,0,1,2.219.889,3.611,3.611,0,0,1,.809,2.52v.749H86.379a1.7,1.7,0,0,0,.536,1.079,1.621,1.621,0,0,0,1.133.406,1.98,1.98,0,0,0,1.657-.768l.9,1.009a2.754,2.754,0,0,1-1.117.911A3.665,3.665,0,0,1,87.928,200.127Zm-.209-5.643a1.146,1.146,0,0,0-.885.37,1.915,1.915,0,0,0-.435,1.058H88.95v-.147a1.366,1.366,0,0,0-.33-.947A1.183,1.183,0,0,0,87.718,194.484ZM93.729,200H91.889v-9.75h1.841Zm4.672.127a3.372,3.372,0,0,1-2.46-.927,3.294,3.294,0,0,1-.949-2.469v-.178a4.149,4.149,0,0,1,.4-1.85,2.935,2.935,0,0,1,1.133-1.257A3.18,3.18,0,0,1,98.2,193a2.85,2.85,0,0,1,2.219.889,3.611,3.611,0,0,1,.809,2.52v.749H96.853a1.7,1.7,0,0,0,.536,1.079,1.621,1.621,0,0,0,1.133.406,1.98,1.98,0,0,0,1.657-.768l.9,1.009a2.754,2.754,0,0,1-1.117.911A3.665,3.665,0,0,1,98.4,200.127Zm-.209-5.643a1.146,1.146,0,0,0-.885.37,1.915,1.915,0,0,0-.435,1.058h2.552v-.147a1.366,1.366,0,0,0-.33-.947A1.183,1.183,0,0,0,98.192,194.484ZM102.769,200v-5.522h-1.022v-1.346h1.022v-.584a2.371,2.371,0,0,1,.663-1.793,2.569,2.569,0,0,1,1.857-.638,4.323,4.323,0,0,1,.933.126l-.019,1.41a2.339,2.339,0,0,0-.559-.057q-1.035,0-1.035.979v.557h1.365v1.346h-1.365V200Zm3.872-3.5a4.073,4.073,0,0,1,.394-1.822,2.881,2.881,0,0,1,1.133-1.238,3.306,3.306,0,0,1,1.717-.438,3.127,3.127,0,0,1,2.269.851,3.414,3.414,0,0,1,.981,2.311l.013.47a3.59,3.59,0,0,1-.882,2.536,3.42,3.42,0,0,1-4.739,0,3.653,3.653,0,0,1-.885-2.59Zm1.834.13a2.567,2.567,0,0,0,.368,1.5,1.323,1.323,0,0,0,2.095.006,2.809,2.809,0,0,0,.375-1.637,2.542,2.542,0,0,0-.375-1.488,1.217,1.217,0,0,0-1.054-.528,1.2,1.2,0,0,0-1.041.524A2.857,2.857,0,0,0,108.475,196.633Zm7.49-3.5.057.793A2.4,2.4,0,0,1,118,193a1.993,1.993,0,0,1,1.625.641,2.991,2.991,0,0,1,.546,1.917V200h-1.834v-4.4a1.2,1.2,0,0,0-.254-.849,1.135,1.135,0,0,0-.844-.264,1.261,1.261,0,0,0-1.162.662V200h-1.834v-6.868Zm5.307,3.371a4.073,4.073,0,0,1,.394-1.822,2.881,2.881,0,0,1,1.133-1.238,3.306,3.306,0,0,1,1.717-.438,3.127,3.127,0,0,1,2.269.851,3.414,3.414,0,0,1,.981,2.311l.013.47a3.59,3.59,0,0,1-.882,2.536,3.42,3.42,0,0,1-4.739,0,3.653,3.653,0,0,1-.885-2.59Zm1.834.13a2.567,2.567,0,0,0,.368,1.5,1.323,1.323,0,0,0,2.095.006,2.809,2.809,0,0,0,.375-1.637,2.542,2.542,0,0,0-.375-1.488,1.217,1.217,0,0,0-1.054-.528,1.2,1.2,0,0,0-1.041.524A2.857,2.857,0,0,0,123.106,196.633Zm5.8-2.853a.735.735,0,0,1,.181-.508.689.689,0,0,1,.543-.2.71.71,0,0,1,.549.2.721.721,0,0,1,.187.508.682.682,0,0,1-.187.489.723.723,0,0,1-.549.2.653.653,0,0,1-.724-.686Zm.222,8.062-.667-.457a3.063,3.063,0,0,0,.622-1.714v-1.06h1.149v.92a2.891,2.891,0,0,1-.314,1.282A3,3,0,0,1,129.13,201.841Z" transform="translate(297.822 16059.269)" fill="#12263f"/>
    <path id="Trazado_189490" data-name="Trazado 189490" d="M-4665.594,4845.993v330.384" transform="translate(4930.771 11133.494)" fill="none" stroke="#12263f" stroke-width="1"/>
    <g id="Rectángulo_42748" data-name="Rectángulo 42748" transform="translate(256.493 15978.381)" fill="none" stroke="red" stroke-width="2">
      <rect width="251.013" height="51.901" stroke="none"/>
      <rect x="1" y="1" width="249.013" height="49.901" fill="none"/>
    </g>
    <g id="Rectángulo_42749" data-name="Rectángulo 42749" transform="translate(256.493 16042.55)" fill="none" stroke="red" stroke-width="2">
      <rect width="251.013" height="51.901" stroke="none"/>
      <rect x="1" y="1" width="249.013" height="49.901" fill="none"/>
    </g>
  </g>
</svg>
