<svg xmlns="http://www.w3.org/2000/svg" width="112" height="112" viewBox="0 0 112 112">
  <g id="Grupo_146118" data-name="Grupo 146118" transform="translate(-1101 -26207)">
    <circle id="Elipse_4775" data-name="Elipse 4775" cx="56" cy="56" r="56" transform="translate(1101 26207)" fill="#039be5"/>
    <g id="IomEB8" transform="translate(-4230.019 26114.824)">
      <g id="Grupo_143112" data-name="Grupo 143112" transform="translate(5361.175 119.921)">
        <path id="Trazado_184268" data-name="Trazado 184268" d="M5408.466,162.624h-21.925v2.06h21.925Zm-11.4,6.71h16.07v-2.088h-16.07Zm-10.683,28.147h10.288v-2.06h-10.288Zm8.018-14.1v-2.075h-7.983v2.075Zm-7.86-14.043h7.927v-2.109h-7.927Zm7.963,2.634h-7.937v2.134h7.937Zm-7.948,16.093h7.855V186h-7.855Zm-.01,4.724h7.908v-2.1h-7.908Zm.019,9.323h7.914v-2.1h-7.914Zm-5.933-23.31h6.773v-2.091h-6.773Zm16.092-2.085h-6.751V178.8h6.751Zm.382-4.761V174.1h4.439v-2.144Zm-16.479-7.272h3.311v-2.126h-3.311Zm3.341,21.286h-3.281v2.1h3.281Zm-.08,9.446H5380.7v2.065h3.191Z" transform="translate(-5375.767 -151.905)" fill="#fff"/>
        <path id="Trazado_184269" data-name="Trazado 184269" d="M5410.9,119.921a6.736,6.736,0,0,1,.547,1.828c.039,6.993.027,13.986.022,20.98,0,.806.039,1.712-1.128,1.682-1.12-.028-1.127-.911-1.128-1.724q-.007-7.118,0-14.237V127h-45.675v46.873h38.269a3.363,3.363,0,0,1,.994.018,15.36,15.36,0,0,1,1.577.7q-.362.779-.723,1.557h-42.48V119.921Zm-47.352,2.333v2.313h45.563v-2.313Z" transform="translate(-5361.175 -119.921)" fill="#fff"/>
        <path id="Trazado_184270" data-name="Trazado 184270" d="M5480.02,238.767l-9.612-9.107a14.383,14.383,0,0,1-13.164,2.254,13.954,13.954,0,0,1-8.095-6.281,14.6,14.6,0,1,1,23.313,2.149c.4.427.808.88,1.238,1.3q4.03,3.97,8.068,7.931v1.749Zm-18.509-8.447a12.337,12.337,0,1,0-12.258-12.462A12.37,12.37,0,0,0,5461.511,230.321Z" transform="translate(-5425.545 -182.544)" fill="#fff"/>
        <path id="Trazado_184271" data-name="Trazado 184271" d="M5426.218,162.818v2.06h-21.925v-2.06Z" transform="translate(-5393.519 -152.099)" fill="#fff"/>
        <path id="Trazado_184272" data-name="Trazado 184272" d="M5446.422,183.4v-2.088h16.069V183.4Z" transform="translate(-5425.12 -165.974)" fill="#fff"/>
        <path id="Trazado_184273" data-name="Trazado 184273" d="M5403.669,296.129v-2.06h10.288v2.06Z" transform="translate(-5393.05 -250.552)" fill="#fff"/>
        <path id="Trazado_184274" data-name="Trazado 184274" d="M5411.787,239.657H5403.8v-2.075h7.983Z" transform="translate(-5393.151 -208.181)" fill="#fff"/>
        <path id="Trazado_184275" data-name="Trazado 184275" d="M5404.3,183.357v-2.108h7.927v2.108Z" transform="translate(-5393.522 -165.924)" fill="#fff"/>
        <path id="Trazado_184276" data-name="Trazado 184276" d="M5412.34,200.229v2.134H5404.4v-2.134Z" transform="translate(-5393.602 -180.161)" fill="#fff"/>
        <path id="Trazado_184277" data-name="Trazado 184277" d="M5404.355,258.426v-2.067h7.856v2.067Z" transform="translate(-5393.565 -222.266)" fill="#fff"/>
        <path id="Trazado_184278" data-name="Trazado 184278" d="M5404.316,277.248v-2.095h7.908v2.095Z" transform="translate(-5393.536 -236.363)" fill="#fff"/>
        <path id="Trazado_184279" data-name="Trazado 184279" d="M5404.389,314.542v-2.1h7.914v2.1Z" transform="translate(-5393.591 -264.334)" fill="#fff"/>
        <path id="Trazado_184280" data-name="Trazado 184280" d="M5380.646,221.286v-2.091h6.773v2.091Z" transform="translate(-5375.78 -194.388)" fill="#fff"/>
        <path id="Trazado_184281" data-name="Trazado 184281" d="M5424.779,219.22V221.3h-6.751V219.22Z" transform="translate(-5403.821 -194.407)" fill="#fff"/>
        <path id="Trazado_184282" data-name="Trazado 184282" d="M5446.576,200.168h4.439v2.144h-4.439Z" transform="translate(-5425.236 -180.116)" fill="#fff"/>
        <path id="Trazado_184283" data-name="Trazado 184283" d="M5380.628,164.685v-2.126h3.311v2.126Z" transform="translate(-5375.767 -151.905)" fill="#fff"/>
        <path id="Trazado_184284" data-name="Trazado 184284" d="M5384.151,256.252v2.1h-3.281v-2.1Z" transform="translate(-5375.949 -222.185)" fill="#fff"/>
        <path id="Trazado_184285" data-name="Trazado 184285" d="M5384.1,294.055v2.065h-3.19v-2.065Z" transform="translate(-5375.978 -250.542)" fill="#fff"/>
        <path id="Trazado_184286" data-name="Trazado 184286" d="M5526.826,247.733a26.141,26.141,0,0,1-2.168-2.69,1.757,1.757,0,0,1,.008-1.6c.486-.662,1.172-.412,1.673.182a42.167,42.167,0,0,1,2.673,3.268,1.792,1.792,0,0,1,.031,1.629,40.772,40.772,0,0,1-2.664,3.274,1.133,1.133,0,0,1-1.738.252c-.647-.542-.45-1.159.042-1.738C5525.38,249.5,5526.057,248.662,5526.826,247.733Z" transform="translate(-5483.487 -212.285)" fill="#fff"/>
        <path id="Trazado_184287" data-name="Trazado 184287" d="M5470.744,247.715c.768.928,1.448,1.762,2.142,2.585.493.586.654,1.227.023,1.752a1.129,1.129,0,0,1-1.734-.275c-.871-1.061-1.745-2.118-2.633-3.164a1.251,1.251,0,0,1,0-1.8c.9-1.088,1.8-2.177,2.722-3.252.472-.553,1.161-.758,1.6-.174a1.767,1.767,0,0,1,.073,1.611A25.185,25.185,0,0,1,5470.744,247.715Z" transform="translate(-5441.427 -212.273)" fill="#fff"/>
        <path id="Trazado_184288" data-name="Trazado 184288" d="M5502.345,244.623c-.458,1.38-.836,2.522-1.217,3.662a32.806,32.806,0,0,1-1.271,3.635c-.189.4-.93.547-1.418.81-.227-.467-.743-1.017-.635-1.386q1.023-3.52,2.32-6.956a1.6,1.6,0,0,1,1.315-.723C5501.785,243.688,5502.089,244.331,5502.345,244.623Z" transform="translate(-5463.652 -212.742)" fill="#fff"/>
      </g>
    </g>
  </g>
</svg>
