<svg xmlns="http://www.w3.org/2000/svg" width="112" height="112" viewBox="0 0 112 112">
  <g id="Grupo_146120" data-name="Grupo 146120" transform="translate(5900 -14507)">
    <circle id="Elipse_5134" data-name="Elipse 5134" cx="56" cy="56" r="56" transform="translate(-5900 14507)" fill="#039be5"/>
    <g id="cBpRW6" transform="translate(-10824.158 13681.379)">
      <g id="Grupo_143032" data-name="Grupo 143032" transform="translate(4955.523 852.734)">
        <path id="Trazado_184068" data-name="Trazado 184068" d="M4964.369,865.242a13.216,13.216,0,0,1,3.208-8.056,12.907,12.907,0,0,1,20.167.83,1.461,1.461,0,0,0,1.345.687,11.221,11.221,0,0,1,10.288,5.973,1.841,1.841,0,0,0,1.036.81,9.79,9.79,0,0,1,7.6,9.823,9.681,9.681,0,0,1-8.643,9.321c-.408.048-.814.108-1.359.181,0,.655-.026,1.3.006,1.942.044.863-.31,1.355-1.2,1.254-.783-.089-1.12.223-1.258.969a5.1,5.1,0,0,1-.522,1.343c-.472.925-1.039,1.8.183,2.652.15.1.065.893-.159,1.137-1.144,1.246-2.366,2.419-3.567,3.613a.939.939,0,0,1-1.583-.119c-.474-.619-.913-.578-1.568-.229-.935.5-1.955.831-2.956,1.242-.254,1.978-.254,1.978-2.716,2.173v4.606c.052.036.1.1.159.105,2.141.042,2.1-.137,2.092,2.236,0,1-.021,2,.007,3.005.022.785-.329,1.158-1.1,1.159-1.348,0-2.694-.007-4.042,0-.812.006-1.2-.344-1.18-1.19.032-1.278,0-2.557.011-3.835.009-1.216.134-1.328,1.4-1.348.27,0,.539-.023.862-.038V900.8c-.738-.066-1.605.1-2.108-.259-.456-.322-.516-1.207-.8-1.977-.956-.418-2.1-.959-3.283-1.4a1.187,1.187,0,0,0-.914.334c-.9.793-1.125.816-1.973-.024-.982-.972-1.956-1.952-2.933-2.93-1.043-1.045-1.041-1.15.01-2.247.117-.123.225-.255.3-.338-.465-1.2-.874-2.37-1.383-3.491a1.114,1.114,0,0,0-.885-.426c-1.025.031-1.471-.384-1.385-1.417.047-.579.008-1.165.008-1.854a10.018,10.018,0,0,1-8.027-3.918,9.38,9.38,0,0,1-1.976-5.979C4955.586,870.72,4958.312,866.208,4964.369,865.242Zm33.637,17.782a16.939,16.939,0,0,0,1.992-.211,7.935,7.935,0,0,0,6.278-8.026,7.829,7.829,0,0,0-6.668-7.673,1.91,1.91,0,0,1-1.577-1.226,9.325,9.325,0,0,0-9.605-5.406,1.4,1.4,0,0,1-1.543-.7,11.212,11.212,0,0,0-20.772,5.771c-.032.988-.3,1.391-1.356,1.444a8,8,0,0,0-1.417,15.756,17.427,17.427,0,0,0,2.077.266c.226-1.738.229-1.728,1.939-2.171a.831.831,0,0,0,.463-.452c.47-1.136.905-2.286,1.367-3.472-.109-.118-.248-.269-.392-.417-.952-.978-.952-1.11.022-2.088.828-.832,1.667-1.655,2.489-2.493,1.357-1.38,1.423-1.605,2.93-.082.042.043.123.047.069.028,1.072-.441,2.038-.908,3.05-1.229.664-.211.989-.477.886-1.213-.089-.642.072-1.209.883-1.216,1.761-.014,3.524-.042,5.282.031.31.013.883.542.849.756-.2,1.253.531,1.553,1.508,1.838a20.5,20.5,0,0,1,2.475,1.074c.142-.131.294-.267.441-.409.986-.954,1.18-.95,2.179.048q1.244,1.245,2.491,2.491c1.374,1.374,1.374,1.374.054,2.835a.335.335,0,0,0-.057.136,28.713,28.713,0,0,1,1.232,2.99c.208.712.517.95,1.22.873.811-.088,1.239.3,1.212,1.143C4998,882.291,4998.006,882.561,4998.006,883.025Zm-27.707-7.5c1.051,1.258,1,1.234.231,2.805a19.879,19.879,0,0,0-1.205,3.17c-.219.745-.543,1.153-1.354,1.078a3.13,3.13,0,0,0-.682.085v3.657c1.451-.344,1.922.43,2.188,1.655a10.969,10.969,0,0,0,1.034,2.576c.792,1.555.822,1.54-.225,2.832l2.5,2.575c1.309-1.1,1.295-1.071,2.809-.288a11.6,11.6,0,0,0,2.471,1.028c1.209.3,2.259.605,1.78,2.248h3.7c.205-1.727.223-1.682.931-1.962,1.434-.568,2.831-1.229,4.276-1.761a2.109,2.109,0,0,1,1.273.151c.265.091.454.4.691.624l2.545-2.6c-1.074-1.284-1.048-1.27-.243-2.848a11.684,11.684,0,0,0,1-2.479c.293-1.192.65-2.155,2.2-1.748v-3.791c-1.593.432-1.885-.562-2.218-1.729a14.774,14.774,0,0,0-1.373-3.1,1.185,1.185,0,0,1,.223-1.721,2.735,2.735,0,0,0,.364-.441l-2.486-2.62c-.651.44-1.036,1.323-2.121.741-1.32-.708-2.791-1.132-4.155-1.765a2.116,2.116,0,0,1-.8-1.006,2.5,2.5,0,0,1-.022-.953h-3.818c.555,1.679-.514,1.964-1.732,2.254a7.778,7.778,0,0,0-2.371.992c-1.08.694-2.032,1.124-2.858-.328Zm10.09,31.692V910.1h2.754v-2.884Z" transform="translate(-4955.523 -852.734)" fill="#fff"/>
        <path id="Trazado_184069" data-name="Trazado 184069" d="M5158.852,1060.045c-1.768,0-3.484-.01-5.2.005-.635.006-1.273-.056-1.268-.841s.631-.855,1.272-.85c1.9.015,3.8.03,5.7-.005.951-.017,1.275.406,1.268,1.316-.027,2.9-.01,5.793-.01,8.651.1.083.147.164.2.164,2.439-.05,2.085.257,2.1,2.325.009.966-.025,1.934.011,2.9.031.856-.382,1.186-1.186,1.18-1.312-.008-2.624-.018-3.936,0-.882.014-1.249-.4-1.235-1.262.021-1.208,0-2.417.006-3.624,0-1.318.159-1.469,1.485-1.488.24,0,.479-.021.8-.035Zm2.306,13.053v-2.863h-2.777v2.863Z" transform="translate(-5111.569 -1015.723)" fill="#fff"/>
        <path id="Trazado_184070" data-name="Trazado 184070" d="M4968.76,1060.066c0,2.656,0,5.169,0,7.683,0,.235.021.469.032.687,2.28.317,2.28.317,2.28,2.673,0,.9-.019,1.795.006,2.691a.936.936,0,0,1-1.043,1.1q-2.122.018-4.243,0c-.726-.005-1.048-.394-1.041-1.115.014-1.277,0-2.553,0-3.83s.137-1.4,1.435-1.419c.267,0,.534-.03.9-.051v-8.309c0-1.795,0-1.795,1.783-1.795,1.76,0,3.519.01,5.278,0,.64-.005,1.135.188,1.122.9-.012.666-.512.8-1.1.795C4972.421,1060.057,4970.667,1060.066,4968.76,1060.066Zm-2.213,10.195v2.852h2.757v-2.852Z" transform="translate(-4962.838 -1015.744)" fill="#fff"/>
        <path id="Trazado_184071" data-name="Trazado 184071" d="M5027.172,872.632a11.368,11.368,0,0,1,5.417,1.53c.569.333,1,.75.583,1.4-.391.616-.952.369-1.456.068a8.542,8.542,0,0,0-6.273-1.1c-3.262.679-5.083,2.982-5.541,6.851-.072.608-.084,1.281-.9,1.227-.842-.056-.863-.741-.817-1.4A8.8,8.8,0,0,1,5027.172,872.632Z" transform="translate(-5005.184 -868.507)" fill="#fff"/>
        <path id="Trazado_184072" data-name="Trazado 184072" d="M5043.132,975.226a8.478,8.478,0,0,0,8.4-8.163c.033-.66.2-1.255.944-1.2.775.053.784.719.76,1.342a10.22,10.22,0,0,1-20.423-.824c.175-5.407,4.72-9.986,9.861-9.89a1.521,1.521,0,0,1,1.1.522c.361.541-.125,1.062-.979,1.123a8.44,8.44,0,0,0-7.431,4.83A8.526,8.526,0,0,0,5043.132,975.226Z" transform="translate(-5016.783 -934.976)" fill="#fff"/>
        <path id="Trazado_184073" data-name="Trazado 184073" d="M5067.406,985.644a5.159,5.159,0,0,1-4.729,5.222c-.591.059-1.177.043-1.279-.686-.112-.8.468-.95,1.111-1.026a3.469,3.469,0,0,0,3.223-3.428,3.524,3.524,0,0,0-7.03-.409c-.075.654-.166,1.227-.963,1.155-.843-.076-.751-.761-.715-1.35a5.2,5.2,0,0,1,10.382.52Z" transform="translate(-5035.963 -953.96)" fill="#fff"/>
      </g>
    </g>
  </g>
</svg>
