<svg xmlns="http://www.w3.org/2000/svg" width="112" height="112" viewBox="0 0 112 112">
  <g id="Grupo_146119" data-name="Grupo 146119" transform="translate(6209 -14507)">
    <circle id="Elipse_5133" data-name="Elipse 5133" cx="56" cy="56" r="56" transform="translate(-6209 14507)" fill="#039be5"/>
    <g id="Hi6H32.tif" transform="translate(-10416.592 14029.781)">
      <g id="Grupo_143033" data-name="Grupo 143033" transform="translate(4236.086 503.735)">
        <path id="Trazado_184074" data-name="Trazado 184074" d="M4488.9,514.468c-.661.637-1.313,1.284-1.987,1.908a1.884,1.884,0,0,0-.056,2.453c.477.454.944.917,1.43,1.36a1.063,1.063,0,0,1,.286,1.333c-.417.938-.837,1.873-1.249,2.813a1,1,0,0,1-1.073.652,10.824,10.824,0,0,1-1.412-.109,1.937,1.937,0,0,0-2.063.7,1.249,1.249,0,0,0-.39.966c.054.655.057,1.314.078,1.971a1.071,1.071,0,0,1-.756,1.138q-1.44.539-2.871,1.1a1.032,1.032,0,0,1-1.265-.34,15.236,15.236,0,0,1-1.032-1.225,1.707,1.707,0,0,0-1.609-.778,1.431,1.431,0,0,0-1.228.51c-.4.493-.872.927-1.309,1.39a1.019,1.019,0,0,1-1.237.247c-.96-.415-1.912-.851-2.868-1.274a1,1,0,0,1-.635-1.083c.054-.738.117-1.475.153-2.214a2.04,2.04,0,0,0-1.608-1.627c-.657.017-1.314.039-1.971.072a1.146,1.146,0,0,1-1.273-.83c-.332-.927-.7-1.842-1.062-2.757a1.056,1.056,0,0,1,.34-1.318,8.787,8.787,0,0,1,1.039-.869,1.9,1.9,0,0,0,.931-2.084,1.313,1.313,0,0,0-.293-.684c-.478-.509-.993-.984-1.509-1.454a1.087,1.087,0,0,1-.294-1.383c.416-.915.826-1.834,1.224-2.757a1.02,1.02,0,0,1,1.117-.677c.7.054,1.393.111,2.09.15a1.936,1.936,0,0,0,1.735-1.68c-.018-.637-.037-1.274-.07-1.91a1.145,1.145,0,0,1,.841-1.264c1-.367,1.975-.787,2.961-1.185h.493c.649.676,1.308,1.345,1.944,2.032a1.947,1.947,0,0,0,2.367.062c.47-.489.946-.971,1.4-1.473a1.084,1.084,0,0,1,1.385-.275c.9.405,1.794.808,2.7,1.193a1.077,1.077,0,0,1,.716,1.215c-.062.654-.082,1.312-.153,1.964a1.288,1.288,0,0,0,.353.985,1.848,1.848,0,0,0,1.958.792,7.951,7.951,0,0,1,1.228-.055c.8-.016,1.048.156,1.344.9l1.162,2.9Zm-24-2.833c-.2.453-.363.877-.575,1.274-.174.325-.167.576.153.782a3.738,3.738,0,0,1,1.663,4.246c-.02.1.018.218-.021.305a3.421,3.421,0,0,1-.477.946,8.724,8.724,0,0,1-1.3,1.129.593.593,0,0,0-.2.883,1.538,1.538,0,0,1,.182.456c.118.687.522.8,1.174.777,2.362-.1,1.7-.262,3.348,1.328a2.841,2.841,0,0,1,.951,2.614c-.173,1.421-.112,1.44,1.24,1.958a.715.715,0,0,0,.612-.116c.47-.428.871-.931,1.34-1.359a1.454,1.454,0,0,1,.793-.4c1.8-.122,3.564-.118,4.558,1.808a.813.813,0,0,0,.2.233c.073.062.189.16.249.139a7.522,7.522,0,0,0,1.58-.655c.158-.1.117-.618.061-.925a2.907,2.907,0,0,1,1.305-3.186c.252-.171.421-.474.683-.617a2.788,2.788,0,0,1,1.152-.412,21,21,0,0,1,2.2.128,6.658,6.658,0,0,1,.407-.873c.395-.6.249-1-.277-1.492-1.71-1.607-1.388-.917-1.411-3.376a2.716,2.716,0,0,1,1.167-2.4c1.2-.917,1.17-.967.51-2.33a.674.674,0,0,0-.491-.312c-.594-.021-1.2.09-1.783.02a2.379,2.379,0,0,1-1.181-.5,9.437,9.437,0,0,1-1.44-1.517,2.069,2.069,0,0,1-.4-1.095c-.032-.61.1-1.228.1-1.842a.72.72,0,0,0-.319-.539c-1.319-.673-1.324-.662-2.36.417a4.878,4.878,0,0,1-.429.442c-.251.2-.521.537-.786.54-1.638.019-3.431.438-4.463-1.449a2.477,2.477,0,0,0-.441-.512c-.082-.082-.22-.208-.288-.185a7.277,7.277,0,0,0-1.58.655c-.159.1-.109.612-.065.923a2.815,2.815,0,0,1-1.168,3.061c-.321.21-.54.58-.863.784a2.2,2.2,0,0,1-1.046.376C4466.429,511.789,4465.692,511.69,4464.9,511.634Z" transform="translate(-4433.892 -503.735)" fill="#fff"/>
        <path id="Trazado_184075" data-name="Trazado 184075" d="M4251.243,610.952l2.091-4.892h-2.8q-4.625,0-9.25,0a4.939,4.939,0,0,1-5.192-5.187q0-15.048,0-30.1a4.927,4.927,0,0,1,5.14-5.176q10.452-.008,20.9,0h.567v1.974h-21.307a3,3,0,0,0-3.331,3.305q0,12.3,0,24.607v.66h47.349V584.382h1.988v.637q0,7.894,0,15.788a4.949,4.949,0,0,1-5.252,5.252q-5.611,0-11.223,0h-.771l2.109,4.935c1.377,0,2.732,0,4.087,0a2.965,2.965,0,1,1,.01,5.919q-14.615,0-29.229,0a2.965,2.965,0,1,1,.007-5.919c1.315,0,2.63,0,3.946-.008A.991.991,0,0,0,4251.243,610.952Zm-13.182-12.764c0,.908,0,1.749,0,2.59a3,3,0,0,0,3.33,3.308h21.214q9.837,0,19.673,0a2.871,2.871,0,0,0,3.073-2.45,29.137,29.137,0,0,0,.027-3.447Zm15.332,12.765h16.7c-.677-1.585-1.322-3.113-1.995-4.628a.606.606,0,0,0-.468-.254q-5.887-.021-11.773,0a.607.607,0,0,0-.469.253C4254.715,607.839,4254.07,609.367,4253.393,610.953Zm8.289,3.989h14.368a3.417,3.417,0,0,0,.615-.016.979.979,0,0,0,0-1.942,3.1,3.1,0,0,0-.554-.015h-28.737a3.067,3.067,0,0,0-.554.015.979.979,0,0,0,0,1.942,3.452,3.452,0,0,0,.616.016Z" transform="translate(-4236.086 -557.949)" fill="#fff"/>
        <path id="Trazado_184076" data-name="Trazado 184076" d="M4308.172,783.3v-1.9H4337.7v1.9Z" transform="translate(-4299.261 -747.078)" fill="#fff"/>
        <path id="Trazado_184077" data-name="Trazado 184077" d="M4332.923,749.558v1.9h-24.59v-1.9Z" transform="translate(-4299.402 -719.169)" fill="#fff"/>
        <path id="Trazado_184078" data-name="Trazado 184078" d="M4329.968,717.632v1.9h-21.629v-1.9Z" transform="translate(-4299.407 -691.19)" fill="#fff"/>
        <path id="Trazado_184079" data-name="Trazado 184079" d="M4326.917,685.591v1.9h-18.686v-1.9Z" transform="translate(-4299.313 -663.11)" fill="#fff"/>
        <path id="Trazado_184080" data-name="Trazado 184080" d="M4278.125,611.676l2.388,2.2-1.426,1.409c-1-.988-2-1.954-2.971-2.957a.893.893,0,0,1,.025-1.332c.955-.988,1.938-1.95,2.938-2.952l1.307,1.446Z" transform="translate(-4270.917 -595.152)" fill="#fff"/>
        <path id="Trazado_184081" data-name="Trazado 184081" d="M4368.227,612.538l-2.384-2.193L4367.33,609c.942.919,1.968,1.891,2.956,2.9a.841.841,0,0,1,0,1.233c-.987,1.01-2.013,1.982-3.042,2.988l-1.328-1.4Z" transform="translate(-4349.803 -595.988)" fill="#fff"/>
        <path id="Trazado_184082" data-name="Trazado 184082" d="M4326.122,612.093l-1.907-.493c.661-2.641,1.31-5.232,1.971-7.875l1.914.474Z" transform="translate(-4313.32 -591.364)" fill="#fff"/>
        <path id="Trazado_184083" data-name="Trazado 184083" d="M4276.209,687.532v-1.893h1.918v1.893Z" transform="translate(-4271.249 -663.152)" fill="#fff"/>
        <path id="Trazado_184084" data-name="Trazado 184084" d="M4276.243,717.482h1.9V719.4h-1.9Z" transform="translate(-4271.279 -691.059)" fill="#fff"/>
        <path id="Trazado_184085" data-name="Trazado 184085" d="M4278.257,751.441h-1.9v-1.908h1.9Z" transform="translate(-4271.382 -719.148)" fill="#fff"/>
        <path id="Trazado_184086" data-name="Trazado 184086" d="M4525.705,751.476h-1.875v-1.919h1.875Z" transform="translate(-4488.259 -719.169)" fill="#fff"/>
        <path id="Trazado_184087" data-name="Trazado 184087" d="M4557.633,751.476h-1.875v-1.919h1.875Z" transform="translate(-4516.24 -719.169)" fill="#fff"/>
        <path id="Trazado_184088" data-name="Trazado 184088" d="M4278.182,783.313h-1.893v-1.919h1.893Z" transform="translate(-4271.319 -747.07)" fill="#fff"/>
        <path id="Trazado_184089" data-name="Trazado 184089" d="M4563.452,783.438v-1.887h1.919v1.887Z" transform="translate(-4522.983 -747.207)" fill="#fff"/>
        <path id="Trazado_184090" data-name="Trazado 184090" d="M4597.551,783.383h-1.894v-1.9h1.894Z" transform="translate(-4551.207 -747.144)" fill="#fff"/>
        <path id="Trazado_184091" data-name="Trazado 184091" d="M4528.572,563.753a7.024,7.024,0,1,1-7-7.052A7.039,7.039,0,0,1,4528.572,563.753Zm-1.975-.039a5.051,5.051,0,1,0-5.06,5.061A5.066,5.066,0,0,0,4526.6,563.714Z" transform="translate(-4480.104 -550.153)" fill="#fff"/>
        <path id="Trazado_184092" data-name="Trazado 184092" d="M4437.91,847.249h-1.894v-1.9h1.894Z" transform="translate(-4411.301 -803.115)" fill="#fff"/>
      </g>
    </g>
  </g>
</svg>
