<svg xmlns="http://www.w3.org/2000/svg" xmlns:xlink="http://www.w3.org/1999/xlink" width="1158.455" height="235.023" viewBox="0 0 1158.455 235.023">
  <defs>
    <linearGradient id="linear-gradient" x1="0.5" y1="-0.435" x2="0.5" y2="1" gradientUnits="objectBoundingBox">
      <stop offset="0" stop-color="#4dd0e1" stop-opacity="0.502"/>
      <stop offset="1" stop-color="#039be5" stop-opacity="0"/>
    </linearGradient>
    <linearGradient id="linear-gradient-2" x1="0.5" x2="0.5" y2="1" gradientUnits="objectBoundingBox">
      <stop offset="0" stop-color="#4dd0e1"/>
      <stop offset="1" stop-color="#039be5"/>
    </linearGradient>
    <filter id="Rectángulo_42490" x="0" y="3.023" width="232" height="232" filterUnits="userSpaceOnUse">
      <feOffset dy="3" input="SourceAlpha"/>
      <feGaussianBlur stdDeviation="3" result="blur"/>
      <feFlood flood-opacity="0.161"/>
      <feComposite operator="in" in2="blur"/>
      <feComposite in="SourceGraphic"/>
    </filter>
    <linearGradient id="linear-gradient-3" x1="0.5" x2="0.5" y2="1" gradientUnits="objectBoundingBox">
      <stop offset="0" stop-color="#f5f5f5"/>
      <stop offset="0.25" stop-color="#f5f5f5"/>
      <stop offset="1" stop-color="#afafaf"/>
    </linearGradient>
    <filter id="Rectángulo_42491" x="385" y="3.023" width="232" height="232" filterUnits="userSpaceOnUse">
      <feOffset dy="3" input="SourceAlpha"/>
      <feGaussianBlur stdDeviation="3" result="blur-2"/>
      <feFlood flood-opacity="0.161"/>
      <feComposite operator="in" in2="blur-2"/>
      <feComposite in="SourceGraphic"/>
    </filter>
    <linearGradient id="linear-gradient-4" x1="0.5" x2="0.5" y2="1" gradientUnits="objectBoundingBox">
      <stop offset="0" stop-color="#535366"/>
      <stop offset="1" stop-color="#26263d"/>
    </linearGradient>
    <filter id="Rectángulo_42492" x="624" y="3.023" width="125" height="232" filterUnits="userSpaceOnUse">
      <feOffset dy="3" input="SourceAlpha"/>
      <feGaussianBlur stdDeviation="3" result="blur-3"/>
      <feFlood flood-opacity="0.161"/>
      <feComposite operator="in" in2="blur-3"/>
      <feComposite in="SourceGraphic"/>
    </filter>
    <clipPath id="clip-path">
      <path id="Trazado_189258" data-name="Trazado 189258" d="M0,64.078H235.455V-170H0Z" transform="translate(0 170)" fill="url(#linear-gradient)"/>
    </clipPath>
    <linearGradient id="linear-gradient-5" x1="0.5" x2="0.5" y2="1" gradientUnits="objectBoundingBox">
      <stop offset="0" stop-color="#13d3c1"/>
      <stop offset="1" stop-color="#1d8379"/>
    </linearGradient>
  </defs>
  <g id="Grupo_146109" data-name="Grupo 146109" transform="translate(-218 -980.977)">
    <g transform="matrix(1, 0, 0, 1, 218, 980.98)" filter="url(#Rectángulo_42490)">
      <rect id="Rectángulo_42490-2" data-name="Rectángulo 42490" width="214" height="214" rx="10" transform="translate(9 9.02)" fill="url(#linear-gradient-2)"/>
    </g>
    <g transform="matrix(1, 0, 0, 1, 218, 980.98)" filter="url(#Rectángulo_42491)">
      <rect id="Rectángulo_42491-2" data-name="Rectángulo 42491" width="214" height="214" rx="10" transform="translate(394 9.02)" fill="url(#linear-gradient-3)"/>
    </g>
    <g transform="matrix(1, 0, 0, 1, 218, 980.98)" filter="url(#Rectángulo_42492)">
      <rect id="Rectángulo_42492-2" data-name="Rectángulo 42492" width="107" height="214" rx="10" transform="translate(633 9.02)" fill="url(#linear-gradient-4)"/>
    </g>
    <g id="Grupo_145656" data-name="Grupo 145656" transform="translate(467.971 1047.471)">
      <path id="Unión_54" data-name="Unión 54" d="M0,0H107.01V13.438H0Z" transform="translate(127.849 23.948) rotate(180)" fill="#bec1c7"/>
      <path id="Unión_56" data-name="Unión 56" d="M24.129,17.229,0,34.461V0Z" transform="translate(24.129 34.461) rotate(180)" fill="#bec1c7"/>
    </g>
    <path id="Trazado_189591" data-name="Trazado 189591" d="M-50.4-3.662h-6.421L-58.038,0h-3.894l6.616-17.773h3.394L-45.27,0h-3.894Zm-5.432-2.966h4.443l-2.234-6.653Zm23.291.146a7.921,7.921,0,0,1-1.385,4.889A4.442,4.442,0,0,1-37.665.244,4.115,4.115,0,0,1-40.9-1.147V5.078h-3.528V-13.208h3.271l.122,1.294a4.146,4.146,0,0,1,3.345-1.538,4.472,4.472,0,0,1,3.8,1.807,8.136,8.136,0,0,1,1.355,4.98Zm-3.528-.269A5.227,5.227,0,0,0-36.719-9.6a2.125,2.125,0,0,0-1.9-1A2.309,2.309,0,0,0-40.9-9.335V-3.91A2.348,2.348,0,0,0-38.593-2.6Q-36.066-2.6-36.066-6.751ZM-26.63,0h-3.54V-18.75h3.54ZM-20,0h-3.54V-13.208H-20Zm-3.748-16.626a1.737,1.737,0,0,1,.531-1.306,2,2,0,0,1,1.447-.513,2,2,0,0,1,1.44.513,1.727,1.727,0,0,1,.537,1.306,1.732,1.732,0,0,1-.543,1.318,2,2,0,0,1-1.434.513,2,2,0,0,1-1.434-.513A1.732,1.732,0,0,1-23.749-16.626ZM-11.6-2.6a2.314,2.314,0,0,0,1.587-.537,1.882,1.882,0,0,0,.635-1.428h3.308a4.525,4.525,0,0,1-.732,2.46A4.833,4.833,0,0,1-8.777-.372a6.17,6.17,0,0,1-2.765.616,5.734,5.734,0,0,1-4.468-1.8,7.125,7.125,0,0,1-1.636-4.974v-.232a7.044,7.044,0,0,1,1.624-4.871,5.667,5.667,0,0,1,4.456-1.819,5.555,5.555,0,0,1,3.973,1.41,4.992,4.992,0,0,1,1.52,3.754H-9.381a2.424,2.424,0,0,0-.635-1.675,2.116,2.116,0,0,0-1.611-.644,2.125,2.125,0,0,0-1.862.9,5.208,5.208,0,0,0-.629,2.916v.367a5.274,5.274,0,0,0,.623,2.934A2.151,2.151,0,0,0-11.6-2.6ZM3.595,0a3.918,3.918,0,0,1-.354-1.184A4.269,4.269,0,0,1-.092.244,4.69,4.69,0,0,1-3.308-.879,3.612,3.612,0,0,1-4.584-3.711,3.733,3.733,0,0,1-3.027-6.934a7.68,7.68,0,0,1,4.5-1.135H3.094v-.757a2.177,2.177,0,0,0-.47-1.465,1.849,1.849,0,0,0-1.483-.549,2.1,2.1,0,0,0-1.4.427A1.451,1.451,0,0,0-.763-9.241H-4.291a3.544,3.544,0,0,1,.708-2.124,4.68,4.68,0,0,1,2-1.532,7.3,7.3,0,0,1,2.905-.555A5.764,5.764,0,0,1,5.2-12.225,4.292,4.292,0,0,1,6.635-8.777v5.725A6.314,6.314,0,0,0,7.159-.208V0ZM.677-2.454A3.038,3.038,0,0,0,2.118-2.8a2.285,2.285,0,0,0,.977-.934V-6.006H1.776q-2.649,0-2.82,1.831l-.012.208A1.412,1.412,0,0,0-.592-2.881,1.8,1.8,0,0,0,.677-2.454ZM14.838-2.6a2.314,2.314,0,0,0,1.587-.537,1.882,1.882,0,0,0,.635-1.428h3.308a4.525,4.525,0,0,1-.732,2.46A4.833,4.833,0,0,1,17.664-.372,6.17,6.17,0,0,1,14.9.244a5.734,5.734,0,0,1-4.468-1.8A7.125,7.125,0,0,1,8.8-6.531v-.232a7.044,7.044,0,0,1,1.624-4.871,5.667,5.667,0,0,1,4.456-1.819,5.555,5.555,0,0,1,3.973,1.41,4.992,4.992,0,0,1,1.52,3.754H17.059a2.424,2.424,0,0,0-.635-1.675,2.116,2.116,0,0,0-1.611-.644,2.125,2.125,0,0,0-1.862.9,5.208,5.208,0,0,0-.629,2.916v.367a5.274,5.274,0,0,0,.623,2.934A2.151,2.151,0,0,0,14.838-2.6ZM26.1,0h-3.54V-13.208H26.1ZM22.357-16.626a1.737,1.737,0,0,1,.531-1.306,2,2,0,0,1,1.447-.513,2,2,0,0,1,1.44.513,1.727,1.727,0,0,1,.537,1.306,1.732,1.732,0,0,1-.543,1.318,2,2,0,0,1-1.434.513,2,2,0,0,1-1.434-.513A1.732,1.732,0,0,1,22.357-16.626Zm6.1,9.9a7.833,7.833,0,0,1,.757-3.5A5.54,5.54,0,0,1,31.4-12.61a6.357,6.357,0,0,1,3.3-.842,6.014,6.014,0,0,1,4.364,1.636,6.565,6.565,0,0,1,1.886,4.443l.024.9a6.9,6.9,0,0,1-1.7,4.877A5.9,5.9,0,0,1,34.723.244a5.927,5.927,0,0,1-4.559-1.831,7.025,7.025,0,0,1-1.7-4.98Zm3.528.25A4.937,4.937,0,0,0,32.7-3.6a2.336,2.336,0,0,0,2.026,1,2.341,2.341,0,0,0,2-.984,5.4,5.4,0,0,0,.72-3.148,4.888,4.888,0,0,0-.72-2.861A2.341,2.341,0,0,0,34.7-10.608a2.3,2.3,0,0,0-2,1.009A5.493,5.493,0,0,0,31.989-6.476ZM35.394-18.75H39.24l-3.381,3.784H32.99Zm11,5.542.11,1.526a4.611,4.611,0,0,1,3.8-1.77,3.832,3.832,0,0,1,3.125,1.233,5.752,5.752,0,0,1,1.05,3.687V0H50.946V-8.467a2.3,2.3,0,0,0-.488-1.633,2.183,2.183,0,0,0-1.624-.508A2.426,2.426,0,0,0,46.6-9.336V0H43.073V-13.208ZM-22.162,11.227H-18.5v12.3a5.884,5.884,0,0,1-.751,3,5.1,5.1,0,0,1-2.118,2.008,6.616,6.616,0,0,1-3.088.708,6.288,6.288,0,0,1-4.395-1.434,5.211,5.211,0,0,1-1.575-4.059h3.687a2.858,2.858,0,0,0,.549,1.929,2.2,2.2,0,0,0,1.733.623,2.1,2.1,0,0,0,1.672-.72,3.043,3.043,0,0,0,.623-2.051ZM-5.6,25.338h-6.421L-13.239,29h-3.894l6.616-17.773h3.394L-.47,29H-4.364Zm-5.432-2.966h4.443L-8.82,15.719ZM6.818,24.593l4.028-13.367h4.077L8.734,29H4.913L-1.251,11.227H2.814Zm18.9.745H19.293L18.073,29H14.178l6.616-17.773h3.394L30.841,29H26.947Zm-5.432-2.966h4.443l-2.234-6.653Z" transform="translate(335 1095.5)" fill="#fff"/>
    <path id="Trazado_189592" data-name="Trazado 189592" d="M-39.13,0h-3.662V-7.617h-7.141V0h-3.662V-17.773h3.662v7.2h7.141v-7.2h3.662Zm6.689,0h-3.54V-13.208h3.54Zm-3.748-16.626a1.737,1.737,0,0,1,.531-1.306,2,2,0,0,1,1.447-.513,2,2,0,0,1,1.44.513,1.727,1.727,0,0,1,.537,1.306,1.732,1.732,0,0,1-.543,1.318,2,2,0,0,1-1.434.513,2,2,0,0,1-1.434-.513A1.732,1.732,0,0,1-36.188-16.626ZM-17.633-6.482a8,8,0,0,1-1.355,4.95A4.488,4.488,0,0,1-22.772.244,4.124,4.124,0,0,1-26.2-1.4L-26.361,0h-3.174V-18.75h3.528v6.726a4.018,4.018,0,0,1,3.21-1.428,4.525,4.525,0,0,1,3.79,1.776,8.009,8.009,0,0,1,1.373,5Zm-3.528-.269A5.283,5.283,0,0,0-21.8-9.683a2.144,2.144,0,0,0-1.892-.924,2.326,2.326,0,0,0-2.319,1.384V-4a2.358,2.358,0,0,0,2.344,1.4,2.179,2.179,0,0,0,2.246-1.69A8.742,8.742,0,0,0-21.161-6.751Zm11.78,7a6.484,6.484,0,0,1-4.73-1.782,6.335,6.335,0,0,1-1.825-4.749v-.342a7.979,7.979,0,0,1,.769-3.558A5.644,5.644,0,0,1-12.988-12.6a6.116,6.116,0,0,1,3.217-.848,5.482,5.482,0,0,1,4.266,1.709A6.944,6.944,0,0,1-3.949-6.9v1.44H-12.36a3.277,3.277,0,0,0,1.031,2.075A3.118,3.118,0,0,0-9.149-2.6,3.808,3.808,0,0,0-5.963-4.077L-4.23-2.136A5.3,5.3,0,0,1-6.378-.385,7.049,7.049,0,0,1-9.381.244Zm-.4-10.852a2.2,2.2,0,0,0-1.7.711,3.682,3.682,0,0,0-.836,2.035h4.907v-.282a2.626,2.626,0,0,0-.635-1.821A2.274,2.274,0,0,0-9.784-10.608ZM5.475-9.9a9.584,9.584,0,0,0-1.27-.1A2.584,2.584,0,0,0,1.581-8.643V0H-1.947V-13.208H1.385l.1,1.575a3.269,3.269,0,0,1,2.942-1.819,3.7,3.7,0,0,1,1.1.159Zm4.944-3.308.11,1.526a4.611,4.611,0,0,1,3.8-1.77,3.832,3.832,0,0,1,3.125,1.233A5.752,5.752,0,0,1,18.5-8.533V0H14.972V-8.467a2.3,2.3,0,0,0-.488-1.633,2.183,2.183,0,0,0-1.624-.508,2.426,2.426,0,0,0-2.234,1.272V0H7.1V-13.208ZM28.827,0a3.918,3.918,0,0,1-.354-1.184A4.269,4.269,0,0,1,25.14.244,4.69,4.69,0,0,1,21.924-.879a3.612,3.612,0,0,1-1.276-2.832A3.733,3.733,0,0,1,22.2-6.934a7.68,7.68,0,0,1,4.5-1.135h1.624v-.757a2.177,2.177,0,0,0-.47-1.465,1.849,1.849,0,0,0-1.483-.549,2.1,2.1,0,0,0-1.4.427,1.451,1.451,0,0,0-.507,1.172H20.941a3.544,3.544,0,0,1,.708-2.124,4.68,4.68,0,0,1,2-1.532,7.3,7.3,0,0,1,2.905-.555,5.764,5.764,0,0,1,3.876,1.227,4.292,4.292,0,0,1,1.434,3.448v5.725a6.314,6.314,0,0,0,.525,2.844V0ZM25.909-2.454A3.038,3.038,0,0,0,27.35-2.8a2.285,2.285,0,0,0,.977-.934V-6.006H27.008q-2.649,0-2.82,1.831l-.012.208a1.412,1.412,0,0,0,.464,1.086A1.8,1.8,0,0,0,25.909-2.454Zm12.891-14v3.247h2.258v2.588H38.8v6.592a1.574,1.574,0,0,0,.281,1.05,1.41,1.41,0,0,0,1.074.317,5.626,5.626,0,0,0,1.038-.085V-.073a7.263,7.263,0,0,1-2.136.317q-3.711,0-3.784-3.748V-10.62H33.344v-2.588h1.929v-3.247ZM49.1.244a6.484,6.484,0,0,1-4.73-1.782,6.335,6.335,0,0,1-1.825-4.749v-.342a7.979,7.979,0,0,1,.769-3.558A5.644,5.644,0,0,1,45.5-12.6a6.116,6.116,0,0,1,3.217-.848,5.482,5.482,0,0,1,4.266,1.709A6.944,6.944,0,0,1,54.535-6.9v1.44H46.124a3.277,3.277,0,0,0,1.031,2.075,3.118,3.118,0,0,0,2.179.781,3.808,3.808,0,0,0,3.186-1.477l1.733,1.941A5.3,5.3,0,0,1,52.106-.385,7.049,7.049,0,0,1,49.1.244Zm-.4-10.852A2.2,2.2,0,0,0,47-9.9a3.682,3.682,0,0,0-.836,2.035h4.907v-.282a2.626,2.626,0,0,0-.635-1.821A2.274,2.274,0,0,0,48.7-10.608Z" transform="translate(719 1105.5)" fill="#12263f"/>
    <path id="Trazado_189593" data-name="Trazado 189593" d="M-22.51-17.773h3.662v12.3a5.884,5.884,0,0,1-.751,3A5.1,5.1,0,0,1-21.716-.464,6.616,6.616,0,0,1-24.8.244,6.288,6.288,0,0,1-29.2-1.19a5.211,5.211,0,0,1-1.575-4.059h3.687a2.858,2.858,0,0,0,.549,1.929A2.2,2.2,0,0,0-24.8-2.7a2.1,2.1,0,0,0,1.672-.72,3.043,3.043,0,0,0,.623-2.051ZM-15.71,0V-17.773h5.469a8.3,8.3,0,0,1,4.193,1.056,7.363,7.363,0,0,1,2.887,3A9.262,9.262,0,0,1-2.124-9.29v.818A9.288,9.288,0,0,1-3.143-4.065,7.3,7.3,0,0,1-6.018-1.074,8.368,8.368,0,0,1-10.205,0Zm3.662-14.807V-2.942h1.77a3.977,3.977,0,0,0,3.284-1.4,6.344,6.344,0,0,0,1.16-4.016V-9.3a6.444,6.444,0,0,0-1.123-4.108,3.963,3.963,0,0,0-3.284-1.4ZM.537,0V-17.773H6.763a8.175,8.175,0,0,1,4.907,1.239A4.237,4.237,0,0,1,13.342-12.9a4.016,4.016,0,0,1-.671,2.3A3.878,3.878,0,0,1,10.8-9.143a3.752,3.752,0,0,1,2.155,1.379,4.078,4.078,0,0,1,.787,2.539,4.691,4.691,0,0,1-1.636,3.882A7.364,7.364,0,0,1,7.446,0ZM4.2-7.739v4.8H7.336a3.027,3.027,0,0,0,2.02-.616,2.114,2.114,0,0,0,.726-1.7A2.232,2.232,0,0,0,7.556-7.739Zm0-2.588h2.71q2.771-.049,2.771-2.209a2.042,2.042,0,0,0-.7-1.74,3.692,3.692,0,0,0-2.216-.531H4.2ZM30.444-5.92A6.289,6.289,0,0,1,28.326-1.4,7.438,7.438,0,0,1,23.291.244a6.688,6.688,0,0,1-5.377-2.3,9.435,9.435,0,0,1-1.959-6.317V-9.46a10.654,10.654,0,0,1,.9-4.517,6.769,6.769,0,0,1,2.582-3,7.232,7.232,0,0,1,3.9-1.044A7.246,7.246,0,0,1,28.3-16.37a6.759,6.759,0,0,1,2.173,4.626H26.807a3.712,3.712,0,0,0-.958-2.5,3.548,3.548,0,0,0-2.509-.775A3.112,3.112,0,0,0,20.6-13.7a7.354,7.354,0,0,0-.934,4.071v1.343a7.871,7.871,0,0,0,.873,4.211,3.054,3.054,0,0,0,2.753,1.331,3.615,3.615,0,0,0,2.533-.775,3.5,3.5,0,0,0,.958-2.4Z" transform="translate(902 1105.5)" fill="#f5fbfe"/>
    <g id="Grupo_145661" data-name="Grupo 145661" transform="translate(1141 1150.977)">
      <g id="Grupo_145660" data-name="Grupo 145660" transform="translate(0 -170)" clip-path="url(#clip-path)">
        <path id="Trazado_189254" data-name="Trazado 189254" d="M0-170H235.455V64.078H0Z" transform="translate(0 170)" fill="rgba(255,255,255,0)"/>
        <path id="Trazado_189255" data-name="Trazado 189255" d="M1-148c0,15.97,52.092,28.916,116.351,28.916S233.7-132.03,233.7-148V25.493c0,15.97-52.092,28.916-116.351,28.916S1,41.463,1,25.493Z" transform="translate(0.377 178.292)" fill="url(#linear-gradient-5)"/>
        <path id="Trazado_189256" data-name="Trazado 189256" d="M1-140.084C1-156.054,53.092-169,117.351-169S233.7-156.054,233.7-140.084s-52.092,28.916-116.351,28.916S1-124.115,1-140.084Z" transform="translate(0.377 170.377)" fill="#1fb8a9"/>
        <g id="Grupo_145658" data-name="Grupo 145658" transform="translate(1.377 1.377)">
          <path id="Trazado_189257" data-name="Trazado 189257" d="M232.7,28.916c0,15.97-52.092,28.916-116.351,28.916S0,44.885,0,28.916,52.092,0,116.351,0,232.7,12.946,232.7,28.916Zm0,0V202.409c0,15.97-52.092,28.916-116.351,28.916S0,218.378,0,202.409V28.916" fill="none"/>
        </g>
      </g>
    </g>
    <path id="Trazado_189594" data-name="Trazado 189594" d="M-26.276,0V-17.773h6.226a8.175,8.175,0,0,1,4.907,1.239A4.237,4.237,0,0,1-13.47-12.9a4.016,4.016,0,0,1-.671,2.3A3.878,3.878,0,0,1-16.01-9.143a3.752,3.752,0,0,1,2.155,1.379,4.078,4.078,0,0,1,.787,2.539A4.691,4.691,0,0,1-14.7-1.343,7.364,7.364,0,0,1-19.366,0Zm3.662-7.739v4.8h3.137a3.027,3.027,0,0,0,2.02-.616,2.114,2.114,0,0,0,.726-1.7,2.232,2.232,0,0,0-2.527-2.478Zm0-2.588h2.71q2.771-.049,2.771-2.209a2.042,2.042,0,0,0-.7-1.74,3.692,3.692,0,0,0-2.216-.531h-2.563ZM-2.9,0a3.918,3.918,0,0,1-.354-1.184A4.269,4.269,0,0,1-6.586.244,4.69,4.69,0,0,1-9.8-.879a3.612,3.612,0,0,1-1.276-2.832A3.733,3.733,0,0,1-9.521-6.934a7.68,7.68,0,0,1,4.5-1.135H-3.4v-.757a2.177,2.177,0,0,0-.47-1.465,1.849,1.849,0,0,0-1.483-.549,2.1,2.1,0,0,0-1.4.427,1.451,1.451,0,0,0-.507,1.172h-3.528a3.544,3.544,0,0,1,.708-2.124,4.68,4.68,0,0,1,2-1.532,7.3,7.3,0,0,1,2.905-.555,5.764,5.764,0,0,1,3.876,1.227A4.292,4.292,0,0,1,.14-8.777v5.725A6.314,6.314,0,0,0,.665-.208V0ZM-5.817-2.454A3.038,3.038,0,0,0-4.376-2.8,2.285,2.285,0,0,0-3.4-3.735V-6.006H-4.718q-2.649,0-2.82,1.831l-.012.208a1.412,1.412,0,0,0,.464,1.086A1.8,1.8,0,0,0-5.817-2.454ZM10-3.65a1.137,1.137,0,0,0-.641-1.019,7.28,7.28,0,0,0-2.057-.665q-4.712-.989-4.712-4a3.629,3.629,0,0,1,1.459-2.936,5.884,5.884,0,0,1,3.815-1.178,6.333,6.333,0,0,1,4.022,1.184A3.732,3.732,0,0,1,13.4-9.192H9.869a1.707,1.707,0,0,0-.488-1.251,2.066,2.066,0,0,0-1.526-.494,2.111,2.111,0,0,0-1.379.4,1.272,1.272,0,0,0-.488,1.025,1.087,1.087,0,0,0,.555.946,5.714,5.714,0,0,0,1.874.623,15.3,15.3,0,0,1,2.222.592q2.8,1.025,2.8,3.552a3.445,3.445,0,0,1-1.55,2.924,6.688,6.688,0,0,1-4,1.117A6.985,6.985,0,0,1,4.932-.348a4.946,4.946,0,0,1-2.02-1.624A3.772,3.772,0,0,1,2.179-4.2H5.524a1.842,1.842,0,0,0,.7,1.44,2.76,2.76,0,0,0,1.733.5,2.554,2.554,0,0,0,1.532-.385A1.2,1.2,0,0,0,10-3.65ZM21.783.244a6.484,6.484,0,0,1-4.73-1.782,6.335,6.335,0,0,1-1.825-4.749v-.342A7.979,7.979,0,0,1,16-10.187,5.644,5.644,0,0,1,18.176-12.6a6.116,6.116,0,0,1,3.217-.848,5.482,5.482,0,0,1,4.266,1.709A6.944,6.944,0,0,1,27.216-6.9v1.44H18.8a3.277,3.277,0,0,0,1.031,2.075,3.118,3.118,0,0,0,2.179.781A3.808,3.808,0,0,0,25.2-4.077l1.733,1.941A5.3,5.3,0,0,1,24.786-.385,7.049,7.049,0,0,1,21.783.244Zm-.4-10.852a2.2,2.2,0,0,0-1.7.711,3.682,3.682,0,0,0-.836,2.035h4.907v-.282a2.626,2.626,0,0,0-.635-1.821A2.274,2.274,0,0,0,21.381-10.608ZM-47.388,22.3A7.96,7.96,0,0,1-46,17.379a4.5,4.5,0,0,1,3.79-1.831,4.045,4.045,0,0,1,3.186,1.44V10.25h3.54V29h-3.186l-.171-1.4a4.151,4.151,0,0,1-3.394,1.648,4.483,4.483,0,0,1-3.741-1.837A8.216,8.216,0,0,1-47.388,22.3Zm3.528.251a5.243,5.243,0,0,0,.647,2.857,2.106,2.106,0,0,0,1.88.993,2.36,2.36,0,0,0,2.307-1.386V19.778a2.326,2.326,0,0,0-2.283-1.386Q-43.86,18.392-43.86,22.549Zm17.188,6.695a6.484,6.484,0,0,1-4.73-1.782,6.335,6.335,0,0,1-1.825-4.749v-.342a7.979,7.979,0,0,1,.769-3.558A5.644,5.644,0,0,1-30.28,16.4a6.116,6.116,0,0,1,3.217-.848A5.482,5.482,0,0,1-22.8,17.257,6.944,6.944,0,0,1-21.24,22.1v1.44h-8.411a3.277,3.277,0,0,0,1.031,2.075,3.118,3.118,0,0,0,2.179.781,3.808,3.808,0,0,0,3.186-1.477l1.733,1.941a5.3,5.3,0,0,1-2.148,1.752A7.049,7.049,0,0,1-26.672,29.244Zm-.4-10.852a2.2,2.2,0,0,0-1.7.711,3.682,3.682,0,0,0-.836,2.035h4.907v-.282a2.626,2.626,0,0,0-.635-1.821A2.274,2.274,0,0,0-27.075,18.392ZM-13.562,22.3a7.96,7.96,0,0,1,1.385-4.919,4.5,4.5,0,0,1,3.79-1.831A4.045,4.045,0,0,1-5.2,16.988V10.25h3.54V29H-4.846l-.171-1.4a4.151,4.151,0,0,1-3.394,1.648,4.483,4.483,0,0,1-3.741-1.837A8.216,8.216,0,0,1-13.562,22.3Zm3.528.251a5.243,5.243,0,0,0,.647,2.857,2.106,2.106,0,0,0,1.88.993A2.36,2.36,0,0,0-5.2,25.014V19.778a2.326,2.326,0,0,0-2.283-1.386Q-10.034,18.392-10.034,22.549ZM8.728,29a3.918,3.918,0,0,1-.354-1.184,4.269,4.269,0,0,1-3.333,1.428,4.69,4.69,0,0,1-3.217-1.123A3.612,3.612,0,0,1,.549,25.289a3.733,3.733,0,0,1,1.556-3.223,7.68,7.68,0,0,1,4.5-1.135H8.228v-.757a2.177,2.177,0,0,0-.47-1.465,1.849,1.849,0,0,0-1.483-.549,2.1,2.1,0,0,0-1.4.427,1.451,1.451,0,0,0-.507,1.172H.842a3.544,3.544,0,0,1,.708-2.124,4.68,4.68,0,0,1,2-1.532,7.3,7.3,0,0,1,2.905-.555,5.764,5.764,0,0,1,3.876,1.227,4.292,4.292,0,0,1,1.434,3.448v5.725a6.314,6.314,0,0,0,.525,2.844V29ZM5.811,26.546a3.038,3.038,0,0,0,1.44-.348,2.285,2.285,0,0,0,.977-.934V22.994H6.909q-2.649,0-2.82,1.831l-.012.208a1.412,1.412,0,0,0,.464,1.086A1.8,1.8,0,0,0,5.811,26.546Zm12.891-14v3.247h2.258V18.38H18.7v6.592a1.574,1.574,0,0,0,.281,1.05,1.41,1.41,0,0,0,1.074.317,5.626,5.626,0,0,0,1.038-.085v2.673a7.263,7.263,0,0,1-2.136.317q-3.711,0-3.784-3.748V18.38H13.245V15.792h1.929V12.545Zm3.308,9.729a7.833,7.833,0,0,1,.757-3.5,5.54,5.54,0,0,1,2.179-2.38,6.357,6.357,0,0,1,3.3-.842,6.014,6.014,0,0,1,4.364,1.636A6.565,6.565,0,0,1,34.5,21.627l.024.9a6.9,6.9,0,0,1-1.7,4.877,5.9,5.9,0,0,1-4.553,1.837,5.927,5.927,0,0,1-4.559-1.831,7.025,7.025,0,0,1-1.7-4.98Zm3.528.25a4.937,4.937,0,0,0,.708,2.879,2.543,2.543,0,0,0,4.028.012,5.4,5.4,0,0,0,.72-3.148,4.888,4.888,0,0,0-.72-2.861,2.341,2.341,0,0,0-2.026-1.015,2.3,2.3,0,0,0-2,1.009A5.493,5.493,0,0,0,25.537,22.524ZM43.848,25.35a1.137,1.137,0,0,0-.641-1.019,7.28,7.28,0,0,0-2.057-.665q-4.712-.989-4.712-4A3.629,3.629,0,0,1,37.9,16.726a5.884,5.884,0,0,1,3.815-1.178,6.333,6.333,0,0,1,4.022,1.184,3.732,3.732,0,0,1,1.508,3.076H43.713a1.707,1.707,0,0,0-.488-1.251,2.066,2.066,0,0,0-1.526-.494,2.111,2.111,0,0,0-1.379.4,1.272,1.272,0,0,0-.488,1.025,1.087,1.087,0,0,0,.555.946,5.714,5.714,0,0,0,1.874.623,15.3,15.3,0,0,1,2.222.592q2.8,1.025,2.8,3.552a3.445,3.445,0,0,1-1.55,2.924,6.688,6.688,0,0,1-4,1.117,6.985,6.985,0,0,1-2.948-.592,4.946,4.946,0,0,1-2.02-1.624,3.772,3.772,0,0,1-.732-2.228h3.345a1.842,1.842,0,0,0,.7,1.44,2.76,2.76,0,0,0,1.733.5,2.554,2.554,0,0,0,1.532-.385A1.2,1.2,0,0,0,43.848,25.35Z" transform="translate(1258 1095.5)" fill="#fff"/>
    <g id="Grupo_145662" data-name="Grupo 145662" transform="translate(595.82 1141.932) rotate(180)">
      <path id="Unión_54-2" data-name="Unión 54" d="M0,0H107.01V13.438H0Z" transform="translate(127.849 23.948) rotate(180)" fill="#bec1c7"/>
      <path id="Unión_56-2" data-name="Unión 56" d="M24.129,17.229,0,34.461V0Z" transform="translate(24.129 34.461) rotate(180)" fill="#bec1c7"/>
    </g>
    <g id="Grupo_145663" data-name="Grupo 145663" transform="translate(987.971 1047.471)">
      <path id="Unión_54-3" data-name="Unión 54" d="M0,0H107.01V13.438H0Z" transform="translate(127.849 23.948) rotate(180)" fill="#bec1c7"/>
      <path id="Unión_56-3" data-name="Unión 56" d="M24.129,17.229,0,34.461V0Z" transform="translate(24.129 34.461) rotate(180)" fill="#bec1c7"/>
    </g>
    <g id="Grupo_145664" data-name="Grupo 145664" transform="translate(1115.82 1141.932) rotate(180)">
      <path id="Unión_54-4" data-name="Unión 54" d="M0,0H107.01V13.438H0Z" transform="translate(127.849 23.948) rotate(180)" fill="#bec1c7"/>
      <path id="Unión_56-4" data-name="Unión 56" d="M24.129,17.229,0,34.461V0Z" transform="translate(24.129 34.461) rotate(180)" fill="#bec1c7"/>
    </g>
  </g>
</svg>
