<svg xmlns="http://www.w3.org/2000/svg" width="112" height="112" viewBox="0 0 112 112">
  <g id="Grupo_146129" data-name="Grupo 146129" transform="translate(3205 9360)">
    <circle id="Elipse_5158" data-name="Elipse 5158" cx="56" cy="56" r="56" transform="translate(-3205 -9360)" fill="#fff"/>
    <g id="B4NpuQ.tif" transform="translate(-4126.448 -9475.814)">
      <g id="Grupo_145854" data-name="Grupo 145854" transform="translate(949.533 142.836)">
        <path id="Trazado_189396" data-name="Trazado 189396" d="M949.533,170.575c.229.846.4,1.713.7,2.533a10.062,10.062,0,0,0,8.809,6.455,9.073,9.073,0,0,0,1.148.03.955.955,0,0,0,.956-.951.967.967,0,0,0-1.048-.92,9.5,9.5,0,0,1-3.379-.573,8.259,8.259,0,0,1,.847-15.678c.76-.211.944-.384.99-1.2a16.307,16.307,0,0,1,.952-5,15.58,15.58,0,0,1,11.41-10.129,15.762,15.762,0,0,1,17.059,7.07c.112.178.214.363.326.542a1.037,1.037,0,0,0,1.492.531,6.131,6.131,0,0,1,7,1.736,5.686,5.686,0,0,1,1.428,3.023,1.265,1.265,0,0,0,1.071,1.1,9.047,9.047,0,0,1,7.171,7.78,9.261,9.261,0,0,1-7.971,10.654,38.407,38.407,0,0,1-4.136.129c-.911.018-1.252.329-1.254,1.25q-.011,6.074,0,12.148c0,.943.337,1.259,1.295,1.27.652.007,1.306.028,1.957-.008a.709.709,0,0,1,.833.547,4.035,4.035,0,0,0,4.586,2.513,4.09,4.09,0,0,0-.041-8.017,4.034,4.034,0,0,0-4.537,2.516.723.723,0,0,1-.869.569c-.415-.032-.835-.007-1.284-.007V179.562c.956,0,1.91.059,2.854-.01a10.784,10.784,0,0,0,9.313-6.094,11.221,11.221,0,0,0-6.716-15.96.764.764,0,0,1-.578-.605,8.118,8.118,0,0,0-7.681-5.931,11.182,11.182,0,0,0-2.1.258.633.633,0,0,1-.755-.3,17.067,17.067,0,0,0-11.668-7.774c-6.973-1.186-12.766,1.054-17.262,6.526a16.018,16.018,0,0,0-3.588,8.454,2.414,2.414,0,0,1-1.619,2.254,9.682,9.682,0,0,0-5.612,7.7.716.716,0,0,1-.1.2ZM998.8,191.444a2.167,2.167,0,1,1,2.2,2.168A2.162,2.162,0,0,1,998.8,191.444Z" transform="translate(-949.533 -142.836)"/>
        <path id="Trazado_189397" data-name="Trazado 189397" d="M1104.073,469.257a5.093,5.093,0,0,0,2.433-1.526,4.074,4.074,0,0,0-1.743-6.364c-.3-.11-.483-.188-.481-.573.016-4.449.01-8.9.011-13.348,0-.093.013-.185.026-.356h1.955c1.036,0,2.071.01,3.106-.005.664-.01,1.045-.283,1.132-.758a.9.9,0,0,0-.857-1.121q-3.192-.037-6.385,0a.89.89,0,0,0-.874.842,3.648,3.648,0,0,0-.03.63q0,6.933.007,13.866c0,.449-.074.7-.562.877a4.027,4.027,0,0,0-2.565,3.863,4.089,4.089,0,0,0,2.864,3.774c.159.052.309.133.463.2Zm-2.9-4.049a2.164,2.164,0,1,1,2.163,2.14A2.129,2.129,0,0,1,1101.17,465.208Z" transform="translate(-1068.839 -410.309)"/>
        <path id="Trazado_189398" data-name="Trazado 189398" d="M1190.937,469.259a5.178,5.178,0,0,0,2.39-1.494,4.067,4.067,0,0,0-1.737-6.4c-.32-.119-.454-.24-.453-.6q.019-6.621.009-13.242c0-.113.012-.226.024-.432h.735c1.4,0,2.8.011,4.2-.009a1.945,1.945,0,0,0,.875-.2.81.81,0,0,0,.365-1,.892.892,0,0,0-.9-.68c-.844-.012-1.688-.005-2.533-.006-1.151,0-2.3,0-3.454,0-.906,0-1.243.339-1.243,1.258q0,7.053.008,14.106a.753.753,0,0,1-.574.866,4,4,0,0,0-2.546,3.928,4.057,4.057,0,0,0,2.809,3.693c.178.057.348.142.522.214Zm-.773-6.241a2.166,2.166,0,1,1-2.149,2.151A2.131,2.131,0,0,1,1190.164,463.018Z" transform="translate(-1165.721 -410.311)"/>
        <path id="Trazado_189399" data-name="Trazado 189399" d="M1285.063,447.082c1.636,0,3.169,0,4.7,0a4.616,4.616,0,0,0,.687-.036.929.929,0,0,0-.1-1.855c-1.17-.018-2.34-.007-3.511-.008-.825,0-1.65,0-2.475,0-.881,0-1.215.334-1.216,1.216q0,5.44,0,10.88v.683c-.6,0-1.154.031-1.7-.02-.15-.014-.334-.253-.405-.428a3.987,3.987,0,0,0-3.166-2.628,4.065,4.065,0,1,0-1.171,8.043,4.009,4.009,0,0,0,4.3-2.624.566.566,0,0,1,.654-.462c.651.025,1.3.009,1.957.007,1.144,0,1.434-.288,1.435-1.42q0-5.3,0-10.592Zm-5.7,11.809a2.167,2.167,0,1,1-4.335.017,2.167,2.167,0,1,1,4.335-.017Z" transform="translate(-1269.676 -410.301)"/>
        <path id="Trazado_189400" data-name="Trazado 189400" d="M1245.665,186.3a12.638,12.638,0,0,0-8.964,4.41c-.5.559-.522,1.117-.073,1.515a.978.978,0,0,0,1.461-.224,10.776,10.776,0,0,1,5.777-3.532,17.981,17.981,0,0,1,2.327-.314c.722-.068,1.181-.452,1.133-1.02-.051-.59-.524-.915-1.26-.866C1245.932,186.275,1245.8,186.287,1245.665,186.3Z" transform="translate(-1221.448 -181.251)"/>
        <path id="Trazado_189401" data-name="Trazado 189401" d="M1332.428,256.243c-.017.19-.049.381-.048.571a1,1,0,0,0,.9,1.071c.539.033.941-.394,1.014-1.02.1-.851.208-1.7.354-2.546.071-.41.247-.8.359-1.2a.923.923,0,0,0-.6-1.232.883.883,0,0,0-1.167.633c-.357,1.219-.644,2.458-.959,3.689Z" transform="translate(-1320.248 -239.257)"/>
      </g>
    </g>
  </g>
</svg>
