<svg xmlns="http://www.w3.org/2000/svg" xmlns:xlink="http://www.w3.org/1999/xlink" width="313" height="341" viewBox="0 0 313 341">
  <defs>
    <filter id="Rect치ngulo_42653" x="0" y="0" width="313" height="341" filterUnits="userSpaceOnUse">
      <feOffset dy="3" input="SourceAlpha"/>
      <feGaussianBlur stdDeviation="3" result="blur"/>
      <feFlood flood-opacity="0.161"/>
      <feComposite operator="in" in2="blur"/>
      <feComposite in="SourceGraphic"/>
    </filter>
  </defs>
  <g id="Grupo_146125" data-name="Grupo 146125" transform="translate(-968 -2302)">
    <g transform="matrix(1, 0, 0, 1, 968, 2302)" filter="url(#Rect치ngulo_42653)">
      <rect id="Rect치ngulo_42653-2" data-name="Rect치ngulo 42653" width="295" height="323" rx="35" transform="translate(9 6)" fill="#fff"/>
    </g>
    <circle id="Elipse_5152" data-name="Elipse 5152" cx="56" cy="56" r="56" transform="translate(1066 2392)" fill="#039be5"/>
    <path id="Trazado_189647" data-name="Trazado 189647" d="M49.752,16.07H44.615L43.639,19H40.523L45.816,4.781h2.715L53.854,19H50.738ZM45.406,13.7h3.555L47.174,8.375Zm18.633.117a6.337,6.337,0,0,1-1.108,3.911,3.554,3.554,0,0,1-2.993,1.47,3.292,3.292,0,0,1-2.588-1.113v4.98H54.527V8.434h2.617l.1,1.035a3.317,3.317,0,0,1,2.676-1.23,3.578,3.578,0,0,1,3.037,1.445,6.509,6.509,0,0,1,1.084,3.984ZM61.217,13.6a4.182,4.182,0,0,0-.522-2.282,1.7,1.7,0,0,0-1.519-.8,1.847,1.847,0,0,0-1.826,1.019v4.339A1.879,1.879,0,0,0,59.2,16.92Q61.217,16.92,61.217,13.6ZM68.766,19H65.934V4h2.832Zm5.3,0H71.236V8.434h2.832Zm-3-13.3A1.39,1.39,0,0,1,71.5,4.654a1.831,1.831,0,0,1,2.31,0,1.382,1.382,0,0,1,.43,1.045A1.386,1.386,0,0,1,73.8,6.754a1.81,1.81,0,0,1-2.295,0A1.386,1.386,0,0,1,71.07,5.7ZM80.787,16.92a1.851,1.851,0,0,0,1.27-.43,1.506,1.506,0,0,0,.508-1.143h2.646a3.62,3.62,0,0,1-.586,1.968A3.866,3.866,0,0,1,83.048,18.7a4.936,4.936,0,0,1-2.212.493,4.587,4.587,0,0,1-3.574-1.44,5.7,5.7,0,0,1-1.309-3.979V13.59a5.635,5.635,0,0,1,1.3-3.9,4.534,4.534,0,0,1,3.564-1.455A4.444,4.444,0,0,1,84,9.366a3.994,3.994,0,0,1,1.216,3H82.564a1.939,1.939,0,0,0-.508-1.34,1.887,1.887,0,0,0-2.778.2,4.166,4.166,0,0,0-.5,2.333v.293a4.219,4.219,0,0,0,.5,2.347A1.721,1.721,0,0,0,80.787,16.92ZM92.945,19a3.134,3.134,0,0,1-.283-.947A3.415,3.415,0,0,1,90,19.2a3.752,3.752,0,0,1-2.573-.9A2.89,2.89,0,0,1,86.4,16.031a2.986,2.986,0,0,1,1.245-2.578,6.144,6.144,0,0,1,3.6-.908h1.3v-.605a1.741,1.741,0,0,0-.376-1.172,1.479,1.479,0,0,0-1.187-.439,1.682,1.682,0,0,0-1.118.342,1.161,1.161,0,0,0-.405.938H86.637a2.835,2.835,0,0,1,.566-1.7,3.744,3.744,0,0,1,1.6-1.226,5.837,5.837,0,0,1,2.324-.444,4.611,4.611,0,0,1,3.1.981,3.433,3.433,0,0,1,1.147,2.759v4.58a5.052,5.052,0,0,0,.42,2.275V19Zm-2.334-1.963a2.431,2.431,0,0,0,1.152-.278,1.828,1.828,0,0,0,.781-.747V14.2H91.49q-2.119,0-2.256,1.465l-.01.166a1.13,1.13,0,0,0,.371.869A1.441,1.441,0,0,0,90.611,17.037Zm11.328-.117a1.851,1.851,0,0,0,1.27-.43,1.506,1.506,0,0,0,.508-1.143h2.646a3.62,3.62,0,0,1-.586,1.968A3.866,3.866,0,0,1,104.2,18.7a4.936,4.936,0,0,1-2.212.493,4.587,4.587,0,0,1-3.574-1.44,5.7,5.7,0,0,1-1.309-3.979V13.59a5.635,5.635,0,0,1,1.3-3.9,4.534,4.534,0,0,1,3.564-1.455,4.444,4.444,0,0,1,3.179,1.128,3.994,3.994,0,0,1,1.216,3h-2.646a1.939,1.939,0,0,0-.508-1.34,1.887,1.887,0,0,0-2.778.2,4.166,4.166,0,0,0-.5,2.333v.293a4.219,4.219,0,0,0,.5,2.347A1.721,1.721,0,0,0,101.939,16.92ZM110.953,19h-2.832V8.434h2.832Zm-3-13.3a1.39,1.39,0,0,1,.425-1.045,1.831,1.831,0,0,1,2.31,0,1.382,1.382,0,0,1,.43,1.045,1.386,1.386,0,0,1-.435,1.055,1.81,1.81,0,0,1-2.295,0A1.386,1.386,0,0,1,107.955,5.7Zm4.883,7.92a6.266,6.266,0,0,1,.605-2.8,4.432,4.432,0,0,1,1.743-1.9,5.086,5.086,0,0,1,2.642-.674,4.812,4.812,0,0,1,3.491,1.309,5.252,5.252,0,0,1,1.509,3.555l.02.723a5.523,5.523,0,0,1-1.357,3.9,5.261,5.261,0,0,1-7.29,0,5.62,5.62,0,0,1-1.362-3.984Zm2.822.2a3.95,3.95,0,0,0,.566,2.3,2.035,2.035,0,0,0,3.223.01,4.322,4.322,0,0,0,.576-2.518,3.91,3.91,0,0,0-.576-2.289,1.873,1.873,0,0,0-1.621-.812,1.842,1.842,0,0,0-1.6.807A4.395,4.395,0,0,0,115.66,13.819Zm11.523-5.386.088,1.221a3.689,3.689,0,0,1,3.037-1.416,3.066,3.066,0,0,1,2.5.986,4.6,4.6,0,0,1,.84,2.949V19h-2.822V12.227a1.838,1.838,0,0,0-.391-1.307,1.746,1.746,0,0,0-1.3-.406,1.941,1.941,0,0,0-1.787,1.018V19h-2.822V8.434ZM140.65,19.2a5.187,5.187,0,0,1-3.784-1.426,5.068,5.068,0,0,1-1.46-3.8V13.7a6.383,6.383,0,0,1,.615-2.847,4.515,4.515,0,0,1,1.743-1.934,4.893,4.893,0,0,1,2.573-.679,4.385,4.385,0,0,1,3.413,1.367A5.555,5.555,0,0,1,145,13.482v1.152h-6.729a2.622,2.622,0,0,0,.825,1.66,2.5,2.5,0,0,0,1.743.625,3.046,3.046,0,0,0,2.549-1.182l1.387,1.553a4.237,4.237,0,0,1-1.719,1.4A5.639,5.639,0,0,1,140.65,19.2Zm-.322-8.682a1.764,1.764,0,0,0-1.362.569,2.946,2.946,0,0,0-.669,1.628h3.926v-.226a2.1,2.1,0,0,0-.508-1.457A1.819,1.819,0,0,0,140.328,10.514ZM152.32,16.08a.909.909,0,0,0-.513-.815,5.824,5.824,0,0,0-1.646-.532q-3.77-.791-3.77-3.2a2.9,2.9,0,0,1,1.167-2.349,4.708,4.708,0,0,1,3.052-.942,5.067,5.067,0,0,1,3.218.947,2.985,2.985,0,0,1,1.206,2.461h-2.822a1.366,1.366,0,0,0-.391-1,1.653,1.653,0,0,0-1.221-.4,1.689,1.689,0,0,0-1.1.322,1.017,1.017,0,0,0-.391.82.87.87,0,0,0,.444.757,4.571,4.571,0,0,0,1.5.5,12.244,12.244,0,0,1,1.777.474,2.92,2.92,0,0,1,2.236,2.842,2.756,2.756,0,0,1-1.24,2.339,5.35,5.35,0,0,1-3.2.894,5.588,5.588,0,0,1-2.358-.474,3.957,3.957,0,0,1-1.616-1.3,3.018,3.018,0,0,1-.586-1.782h2.676a1.473,1.473,0,0,0,.557,1.152,2.208,2.208,0,0,0,1.387.4,2.044,2.044,0,0,0,1.226-.308A.957.957,0,0,0,152.32,16.08Zm18.73-.918,1.387-6.729h2.725L172.467,19H170.1l-2-6.65-2,6.65h-2.354l-2.7-10.566h2.725l1.377,6.719,1.934-6.719h2.041ZM181.422,19.2a5.187,5.187,0,0,1-3.784-1.426,5.068,5.068,0,0,1-1.46-3.8V13.7a6.383,6.383,0,0,1,.615-2.847,4.515,4.515,0,0,1,1.743-1.934,4.893,4.893,0,0,1,2.573-.679,4.385,4.385,0,0,1,3.413,1.367,5.555,5.555,0,0,1,1.245,3.877v1.152h-6.729a2.622,2.622,0,0,0,.825,1.66,2.5,2.5,0,0,0,1.743.625,3.046,3.046,0,0,0,2.549-1.182l1.387,1.553a4.237,4.237,0,0,1-1.719,1.4A5.639,5.639,0,0,1,181.422,19.2Zm-.322-8.682a1.764,1.764,0,0,0-1.362.569,2.946,2.946,0,0,0-.669,1.628h3.926v-.226a2.1,2.1,0,0,0-.508-1.457A1.819,1.819,0,0,0,181.1,10.514Zm15.791,3.3a6.4,6.4,0,0,1-1.084,3.96,3.591,3.591,0,0,1-3.027,1.421,3.3,3.3,0,0,1-2.744-1.318L189.908,19h-2.539V4h2.822V9.381a3.214,3.214,0,0,1,2.568-1.143,3.62,3.62,0,0,1,3.032,1.421,6.408,6.408,0,0,1,1.1,4Zm-2.822-.215a4.227,4.227,0,0,0-.508-2.346,1.715,1.715,0,0,0-1.514-.74,1.861,1.861,0,0,0-1.855,1.107V15.8a1.886,1.886,0,0,0,1.875,1.117,1.743,1.743,0,0,0,1.8-1.352A6.993,6.993,0,0,0,194.068,13.6Z" transform="translate(1006 2529)" fill="#12263f"/>
    <g id="yi6Y5K.tif" transform="translate(454.006 2838.809)">
      <g id="Grupo_145855" data-name="Grupo 145855" transform="translate(637.93 -419.787)">
        <path id="Trazado_189402" data-name="Trazado 189402" d="M637.93-416.136a14.1,14.1,0,0,1,.916-1.612,4.855,4.855,0,0,1,3.987-2.029c1.34-.02,2.68-.005,4.021,0,.725,0,1.139.365,1.124.964-.014.574-.415.91-1.113.913-1.235.005-2.471-.007-3.706,0a3.265,3.265,0,0,0-3.468,3.464q-.009,16.9,0,33.8c0,.1.016.206.028.352h2.239v-.823q0-16.556,0-33.113c0-1.15.259-1.415,1.385-1.415l53.211-.006c1.169,0,1.429.262,1.429,1.439q0,16.525,0,33.05v.862h2.27v-.742q0-16.557,0-33.113c0-2.483-1.269-3.761-3.737-3.761H651.284c-.1,0-.209,0-.314,0-.69-.012-1.092-.351-1.1-.927s.4-.945,1.073-.951c1.089-.008,2.178-.006,3.267-.006q21.328,0,42.657,0a5.06,5.06,0,0,1,5.265,5.254q0,18.536,0,37.072a5.152,5.152,0,0,1-5.416,5.391q-8.858-.007-17.716-.007h-.73v6.413h3.284c.921,0,1.843-.008,2.764,0,.829.01,1.168.32,1.181,1.124q.031,1.916.006,3.833a1,1,0,0,1-1.144,1.1q-14.387,0-28.773,0c-.789,0-1.146-.351-1.156-1.154q-.023-1.885,0-3.77c.011-.806.349-1.127,1.172-1.132,1.78-.01,3.56,0,5.34,0h.722v-6.414h-.786c-5.612,0-11.225-.065-16.836.027-2.921.048-5.033-.946-6.118-3.755Zm5.954,35.864h52.16v-33.416h-52.16Zm56.435,1.995H639.614a13.55,13.55,0,0,0,.271,2.087,3.15,3.15,0,0,0,3.355,2.175q18.313.005,36.625.008,8.481,0,16.962,0a3.132,3.132,0,0,0,3.251-2.238A13.965,13.965,0,0,0,700.319-378.277ZM656.4-361.526H683.54V-363.7H656.4Zm19.844-10.494H663.691v6.325h3.258c0-1,0-1.958,0-2.917,0-.9.3-1.21,1.2-1.22,1.13-.012,2.26,0,3.39-.006,1.2,0,1.45.232,1.449,1.409,0,.91,0,1.82,0,2.739h3.256Zm-7.39,6.317h2.2v-2.152h-2.2Z" transform="translate(-637.93 419.787)" fill="#fff"/>
        <path id="Trazado_189403" data-name="Trazado 189403" d="M784.581-339.292c-2.1-2.1-4.161-4.155-6.228-6.2a3.006,3.006,0,0,1-.831-3.324,3.508,3.508,0,0,1,.783-1.19c.891-.944,1.822-1.85,2.746-2.762a3.008,3.008,0,0,1,4.512.009c1.906,1.885,3.795,3.787,5.686,5.686a7.332,7.332,0,0,1,.475.594c.245-.227.412-.373.568-.529q3.111-3.108,6.221-6.219c.731-.73,1.127-.737,1.846-.021q2.692,2.683,5.375,5.376c.753.754.759,1.15.014,1.9q-3.084,3.091-6.177,6.173a5.781,5.781,0,0,1-.621.463c1.8,1.788,3.478,3.484,5.2,5.137a2.091,2.091,0,0,1,.711,1.713c-.045,1.255.029,2.515-.034,3.769a1.989,1.989,0,0,0,.789,1.9,2.334,2.334,0,0,1,.437.449.944.944,0,0,1-.058,1.306.9.9,0,0,1-1.253.051.746.746,0,0,1-.185-.169,2.719,2.719,0,0,0-2.771-1.107c-1.145.088-2.3,0-3.454.035a1.654,1.654,0,0,1-1.322-.566c-1.586-1.613-3.193-3.2-4.794-4.8-.116-.116-.243-.223-.406-.372-.177.165-.345.312-.5.469q-3.089,3.086-6.176,6.175c-.761.76-1.144.762-1.888.018q-2.667-2.664-5.33-5.332c-.8-.809-.8-1.16.03-1.985Zm5.733,5.957-4.34-4.422-2.705,2.714c1.021,1.1,1.2,1.558.658,2.012-1.037.868-1.471-.284-2.068-.67l-2.05,2.061,4.382,4.414ZM799.5-351.32l-3.095,3.092a6.583,6.583,0,0,1,.773.637.916.916,0,0,1-.024,1.345.944.944,0,0,1-1.307,0c-.283-.239-.54-.509-.736-.7l-1.808,1.734,4.431,4.424,6.122-6.112Zm-11.766,3.473-1.478,1.446,14.661,14.663,1.539-1.381Zm-4.373,4.371,14.656,14.664,1.408-1.27-14.7-14.7Zm-1.677-1.335,4.574-4.579c-.688-.679-1.418-1.427-2.179-2.141a1.093,1.093,0,0,0-1.626.058q-1.442,1.4-2.842,2.844a1.1,1.1,0,0,0,.031,1.716C780.337-346.188,781.043-345.473,781.687-344.811Zm21.195,14.383-2.215,2.223h2.215Z" transform="translate(-759.769 362.093)" fill="#fff"/>
      </g>
    </g>
  </g>
</svg>
