<svg xmlns="http://www.w3.org/2000/svg" xmlns:xlink="http://www.w3.org/1999/xlink" width="313" height="341" viewBox="0 0 313 341">
  <defs>
    <filter id="Rect치ngulo_42654" x="0" y="0" width="313" height="341" filterUnits="userSpaceOnUse">
      <feOffset dy="3" input="SourceAlpha"/>
      <feGaussianBlur stdDeviation="3" result="blur"/>
      <feFlood flood-opacity="0.161"/>
      <feComposite operator="in" in2="blur"/>
      <feComposite in="SourceGraphic"/>
    </filter>
  </defs>
  <g id="Grupo_146126" data-name="Grupo 146126" transform="translate(-320 -2661)">
    <g transform="matrix(1, 0, 0, 1, 320, 2661)" filter="url(#Rect치ngulo_42654)">
      <rect id="Rect치ngulo_42654-2" data-name="Rect치ngulo 42654" width="295" height="323" rx="35" transform="translate(9 6)" fill="#fff"/>
    </g>
    <circle id="Elipse_5153" data-name="Elipse 5153" cx="56" cy="56" r="56" transform="translate(418 2741)" fill="#039be5"/>
    <path id="Trazado_189648" data-name="Trazado 189648" d="M86.744,13.795H84.41V19H81.48V4.781h5.283A5.972,5.972,0,0,1,90.65,5.9a3.876,3.876,0,0,1,1.367,3.174,4.374,4.374,0,0,1-.63,2.427,4.3,4.3,0,0,1-1.909,1.548l3.076,5.811V19H89.41ZM84.41,11.422h2.363a2.42,2.42,0,0,0,1.709-.562,2.007,2.007,0,0,0,.605-1.548,2.148,2.148,0,0,0-.571-1.582,2.374,2.374,0,0,0-1.753-.576H84.41ZM98.922,19.2a5.187,5.187,0,0,1-3.784-1.426,5.068,5.068,0,0,1-1.46-3.8V13.7a6.383,6.383,0,0,1,.615-2.847,4.515,4.515,0,0,1,1.743-1.934,4.893,4.893,0,0,1,2.573-.679,4.385,4.385,0,0,1,3.413,1.367,5.555,5.555,0,0,1,1.245,3.877v1.152H96.539a2.622,2.622,0,0,0,.825,1.66,2.5,2.5,0,0,0,1.743.625,3.046,3.046,0,0,0,2.549-1.182l1.387,1.553a4.237,4.237,0,0,1-1.719,1.4A5.639,5.639,0,0,1,98.922,19.2ZM98.6,10.514a1.764,1.764,0,0,0-1.362.569,2.946,2.946,0,0,0-.669,1.628h3.926v-.226a2.1,2.1,0,0,0-.508-1.457A1.819,1.819,0,0,0,98.6,10.514ZM110.992,19a3.134,3.134,0,0,1-.283-.947,3.415,3.415,0,0,1-2.666,1.143,3.752,3.752,0,0,1-2.573-.9,2.89,2.89,0,0,1-1.021-2.266,2.986,2.986,0,0,1,1.245-2.578,6.144,6.144,0,0,1,3.6-.908h1.3v-.605a1.741,1.741,0,0,0-.376-1.172,1.479,1.479,0,0,0-1.187-.439,1.682,1.682,0,0,0-1.118.342,1.161,1.161,0,0,0-.405.938h-2.822a2.835,2.835,0,0,1,.566-1.7,3.744,3.744,0,0,1,1.6-1.226,5.837,5.837,0,0,1,2.324-.444,4.611,4.611,0,0,1,3.1.981,3.433,3.433,0,0,1,1.147,2.759v4.58a5.052,5.052,0,0,0,.42,2.275V19Zm-2.334-1.963a2.431,2.431,0,0,0,1.152-.278,1.828,1.828,0,0,0,.781-.747V14.2h-1.055q-2.119,0-2.256,1.465l-.01.166a1.13,1.13,0,0,0,.371.869A1.441,1.441,0,0,0,108.658,17.037Zm11.328-.117a1.851,1.851,0,0,0,1.27-.43,1.506,1.506,0,0,0,.508-1.143h2.646a3.62,3.62,0,0,1-.586,1.968,3.866,3.866,0,0,1-1.577,1.387,4.936,4.936,0,0,1-2.212.493,4.587,4.587,0,0,1-3.574-1.44,5.7,5.7,0,0,1-1.309-3.979V13.59a5.635,5.635,0,0,1,1.3-3.9,4.534,4.534,0,0,1,3.564-1.455,4.444,4.444,0,0,1,3.179,1.128,3.994,3.994,0,0,1,1.216,3h-2.646a1.939,1.939,0,0,0-.508-1.34,1.887,1.887,0,0,0-2.778.2,4.166,4.166,0,0,0-.5,2.333v.293a4.219,4.219,0,0,0,.5,2.347A1.721,1.721,0,0,0,119.986,16.92ZM129.4,5.836v2.6h1.807V10.5H129.4v5.273a1.259,1.259,0,0,0,.225.84,1.128,1.128,0,0,0,.859.254,4.5,4.5,0,0,0,.83-.068v2.139a5.81,5.81,0,0,1-1.709.254q-2.969,0-3.027-3V10.5h-1.543V8.434h1.543v-2.6ZM135.758,19h-2.832V8.434h2.832Zm-3-13.3a1.39,1.39,0,0,1,.425-1.045,1.831,1.831,0,0,1,2.31,0,1.382,1.382,0,0,1,.43,1.045,1.386,1.386,0,0,1-.435,1.055,1.81,1.81,0,0,1-2.295,0A1.386,1.386,0,0,1,132.76,5.7Zm9.277,9.854L144,8.434h2.949L143.385,19h-2.7L137.125,8.434h2.949ZM152.926,19.2a5.187,5.187,0,0,1-3.784-1.426,5.068,5.068,0,0,1-1.46-3.8V13.7a6.383,6.383,0,0,1,.615-2.847,4.515,4.515,0,0,1,1.743-1.934,4.893,4.893,0,0,1,2.573-.679,4.385,4.385,0,0,1,3.413,1.367,5.555,5.555,0,0,1,1.245,3.877v1.152h-6.729a2.622,2.622,0,0,0,.825,1.66,2.5,2.5,0,0,0,1.743.625,3.046,3.046,0,0,0,2.549-1.182l1.387,1.553a4.237,4.237,0,0,1-1.719,1.4A5.639,5.639,0,0,1,152.926,19.2Zm-.322-8.682a1.764,1.764,0,0,0-1.362.569,2.946,2.946,0,0,0-.669,1.628H154.5v-.226a2.1,2.1,0,0,0-.508-1.457A1.819,1.819,0,0,0,152.6,10.514Z" transform="translate(358 2878)" fill="#12263f"/>
    <g id="GclSsv.tif" transform="translate(-1039.631 3013.429)">
      <g id="Grupo_145856" data-name="Grupo 145856" transform="translate(1480.217 -248.218)">
        <path id="Trazado_189404" data-name="Trazado 189404" d="M1645.293,44.741l2.63-2.763,1.9,2.156-6.262,6.044-6.18-6.077,1.989-2.045,2.547,2.716.208-.092V32.093h2.934V44.649Z" transform="translate(-1610.913 15.11)" fill="#fff"/>
        <path id="Trazado_189405" data-name="Trazado 189405" d="M1642.475-242.756l-2.545,2.665-1.887-2.055,6.23-6.072,6.24,6.107-1.969,2.024-2.587-2.758-.264.12c-.014.281-.04.562-.041.844,0,3.529-.021,7.058.014,10.587.007.708-.21.9-.9.889-2.056-.027-2.058,0-2.059-2.066q0-4.663,0-9.327v-.885Z" transform="translate(-1611.466 248.218)" fill="#fff"/>
        <path id="Trazado_189406" data-name="Trazado 189406" d="M1737.644-194.351h2.788v4.131l8.732-8.868,2.168,2.174-8.74,8.736h4.02v2.809h-8.968Z" transform="translate(-1694.294 207.361)" fill="#fff"/>
        <path id="Trazado_189407" data-name="Trazado 189407" d="M1540.891-189.4v-4.1h2.821v8.952h-8.961v-2.813h3.924l-8.653-8.595,2.2-2.158Z" transform="translate(-1521.635 206.545)" fill="#fff"/>
        <path id="Trazado_189408" data-name="Trazado 189408" d="M1539.75,11.67h-3.831V8.851h8.963V17.8h-2.8v-3.85l-8.664,8.671-2.009-2.2,8.516-8.506Z" transform="translate(-1522.786 34.438)" fill="#fff"/>
        <path id="Trazado_189409" data-name="Trazado 189409" d="M1751.381,20.348l-2.054,2.06-8.567-8.651-.2.089v3.9h-2.84V8.774h8.961v2.808h-4.144Z" transform="translate(-1694.355 34.502)" fill="#fff"/>
        <path id="Trazado_189410" data-name="Trazado 189410" d="M1497.579-84.228h-11.917l2.816,2.644-2.175,2.142-6.087-6.273,6.177-6.352,2.031,1.983-2.759,2.584.135.266h11.778Z" transform="translate(-1480.217 118.361)" fill="#fff"/>
        <path id="Trazado_189411" data-name="Trazado 189411" d="M1778.063-86.754l-2.6-2.515,2.079-2.026,6.068,6.247-6.193,6.326-2.069-2.089,2.818-2.51-.157-.266h-11.656v-2.943h11.643Z" transform="translate(-1718.165 117.72)" fill="#fff"/>
      </g>
    </g>
  </g>
</svg>
