<svg xmlns="http://www.w3.org/2000/svg" width="1130.992" height="86.999" viewBox="0 0 1130.992 86.999">
  <g id="Grupo_146110" data-name="Grupo 146110" transform="translate(-333.338 -200.958)">
    <path id="Trazado_189271" data-name="Trazado 189271" d="M8.728,0H1122.264c4.82,0,8.728.257,8.728.575v85.85c0,.317-3.908.575-8.728.575H8.728C3.908,87,0,86.742,0,86.425V.575C0,.257,3.908,0,8.728,0Z" transform="translate(333.338 200.958)" fill="#ffa726"/>
    <rect id="Rectángulo_42585" data-name="Rectángulo 42585" width="20.793" height="1057.799" rx="5.408" transform="translate(1427.733 237.288) rotate(90)" fill="#fff"/>
    <path id="Trazado_189272" data-name="Trazado 189272" d="M367.722,160.108a5.648,5.648,0,1,1-5.647-5.649A5.648,5.648,0,0,1,367.722,160.108Z" transform="translate(34.679 59.854)" fill="#fff"/>
    <path id="Trazado_189273" data-name="Trazado 189273" d="M367.722,160.108a5.648,5.648,0,1,1-5.647-5.649A5.648,5.648,0,0,1,367.722,160.108Z" transform="translate(12.132 59.854)" fill="#12263f"/>
    <path id="Trazado_189274" data-name="Trazado 189274" d="M377.538,160.108a5.649,5.649,0,1,1-5.649-5.649A5.65,5.65,0,0,1,377.538,160.108Z" transform="translate(47.413 59.854)" fill="#26a69a"/>
  </g>
</svg>
