<svg xmlns="http://www.w3.org/2000/svg" width="112" height="112" viewBox="0 0 112 112">
  <g id="Grupo_146131" data-name="Grupo 146131" transform="translate(3529 9001)">
    <circle id="Elipse_5157" data-name="Elipse 5157" cx="56" cy="56" r="56" transform="translate(-3529 -9001)" fill="#fff"/>
    <g id="GclSsv.tif" transform="translate(-4986.631 -8729.571)">
      <g id="Grupo_145856" data-name="Grupo 145856" transform="translate(1480.217 -248.218)">
        <path id="Trazado_189404" data-name="Trazado 189404" d="M1645.293,44.741l2.63-2.763,1.9,2.156-6.262,6.044-6.18-6.077,1.989-2.045,2.547,2.716.208-.092V32.093h2.934V44.649Z" transform="translate(-1610.913 15.11)"/>
        <path id="Trazado_189405" data-name="Trazado 189405" d="M1642.475-242.756l-2.545,2.665-1.887-2.055,6.23-6.072,6.24,6.107-1.969,2.024-2.587-2.758-.264.12c-.014.281-.04.562-.041.844,0,3.529-.021,7.058.014,10.587.007.708-.21.9-.9.889-2.056-.027-2.058,0-2.059-2.066q0-4.663,0-9.327v-.885Z" transform="translate(-1611.466 248.218)"/>
        <path id="Trazado_189406" data-name="Trazado 189406" d="M1737.644-194.351h2.788v4.131l8.732-8.868,2.168,2.174-8.74,8.736h4.02v2.809h-8.968Z" transform="translate(-1694.294 207.361)"/>
        <path id="Trazado_189407" data-name="Trazado 189407" d="M1540.891-189.4v-4.1h2.821v8.952h-8.961v-2.813h3.924l-8.653-8.595,2.2-2.158Z" transform="translate(-1521.635 206.545)"/>
        <path id="Trazado_189408" data-name="Trazado 189408" d="M1539.75,11.67h-3.831V8.851h8.963V17.8h-2.8v-3.85l-8.664,8.671-2.009-2.2,8.516-8.506Z" transform="translate(-1522.786 34.438)"/>
        <path id="Trazado_189409" data-name="Trazado 189409" d="M1751.381,20.348l-2.054,2.06-8.567-8.651-.2.089v3.9h-2.84V8.774h8.961v2.808h-4.144Z" transform="translate(-1694.355 34.502)"/>
        <path id="Trazado_189410" data-name="Trazado 189410" d="M1497.579-84.228h-11.917l2.816,2.644-2.175,2.142-6.087-6.273,6.177-6.352,2.031,1.983-2.759,2.584.135.266h11.778Z" transform="translate(-1480.217 118.361)"/>
        <path id="Trazado_189411" data-name="Trazado 189411" d="M1778.063-86.754l-2.6-2.515,2.079-2.026,6.068,6.247-6.193,6.326-2.069-2.089,2.818-2.51-.157-.266h-11.656v-2.943h11.643Z" transform="translate(-1718.165 117.72)"/>
      </g>
    </g>
  </g>
</svg>
