<svg xmlns="http://www.w3.org/2000/svg" width="682.619" height="403.582" viewBox="0 0 682.619 403.582">
  <g id="Grupo_143448" data-name="Grupo 143448" transform="translate(-430.262 -3053.994)">
    <path id="Trazado_188766" data-name="Trazado 188766" d="M0,0H31.974V11.793H0Z" transform="translate(520.63 3264.652) rotate(180)" fill="#bec1c7"/>
    <path id="Trazado_188767" data-name="Trazado 188767" d="M0,0H346.38V11.793H0Z" transform="translate(526.526 3085.565) rotate(90)" fill="#bec1c7"/>
    <path id="Trazado_188768" data-name="Trazado 188768" d="M0,0H31.974V11.793H0Z" transform="translate(546.584 3091.462) rotate(180)" fill="#bec1c7"/>
    <path id="Trazado_188769" data-name="Trazado 188769" d="M21.175,15.12,0,30.242V0Z" transform="translate(540.655 3070.445)" fill="#bec1c7"/>
    <path id="Trazado_188770" data-name="Trazado 188770" d="M0,0H31.974V11.793H0Z" transform="translate(546.584 3349.709) rotate(180)" fill="#bec1c7"/>
    <path id="Trazado_188771" data-name="Trazado 188771" d="M21.175,15.12,0,30.242V0Z" transform="translate(540.655 3328.693)" fill="#bec1c7"/>
    <path id="Trazado_188772" data-name="Trazado 188772" d="M0,0H31.974V11.793H0Z" transform="translate(847.93 3349.709) rotate(180)" fill="#bec1c7"/>
    <path id="Trazado_188773" data-name="Trazado 188773" d="M21.175,15.12,0,30.242V0Z" transform="translate(842 3328.693)" fill="#bec1c7"/>
    <path id="Trazado_188774" data-name="Trazado 188774" d="M0,0H31.974V11.793H0Z" transform="translate(830.464 3171.307) rotate(180)" fill="#bec1c7"/>
    <path id="Trazado_188775" data-name="Trazado 188775" d="M0,0H31.974V11.793H0Z" transform="translate(546.584 3173.802) rotate(180)" fill="#bec1c7"/>
    <path id="Trazado_188776" data-name="Trazado 188776" d="M21.175,15.12,0,30.242V0Z" transform="translate(540.655 3152.785)" fill="#bec1c7"/>
    <path id="Trazado_188777" data-name="Trazado 188777" d="M0,0H31.974V11.793H0Z" transform="translate(852.826 3135.661) rotate(180)" fill="#bec1c7"/>
    <path id="Trazado_188778" data-name="Trazado 188778" d="M21.175,15.12,0,30.242V0Z" transform="translate(846.896 3114.645)" fill="#bec1c7"/>
    <path id="Trazado_188779" data-name="Trazado 188779" d="M0,0H31.974V11.793H0Z" transform="translate(852.826 3206.95) rotate(180)" fill="#bec1c7"/>
    <path id="Trazado_188780" data-name="Trazado 188780" d="M21.175,15.12,0,30.242V0Z" transform="translate(846.896 3185.934)" fill="#bec1c7"/>
    <path id="Trazado_188781" data-name="Trazado 188781" d="M0,0H31.974V11.793H0Z" transform="translate(546.584 3432.049) rotate(180)" fill="#bec1c7"/>
    <path id="Trazado_188782" data-name="Trazado 188782" d="M21.175,15.12,0,30.242V0Z" transform="translate(540.655 3411.033)" fill="#bec1c7"/>
    <path id="Trazado_188783" data-name="Trazado 188783" d="M0,0H31.974V11.793H0Z" transform="translate(847.93 3432.049) rotate(180)" fill="#bec1c7"/>
    <path id="Trazado_188784" data-name="Trazado 188784" d="M21.175,15.12,0,30.242V0Z" transform="translate(842 3411.033)" fill="#bec1c7"/>
    <path id="Trazado_188785" data-name="Trazado 188785" d="M5,0H232.8a5,5,0,0,1,5,5V58.145a5,5,0,0,1-5,5H5a5,5,0,0,1-5-5V5A5,5,0,0,1,5,0Z" transform="translate(430.262 3374.01) rotate(-90)" fill="#12263f"/>
    <path id="Trazado_188786" data-name="Trazado 188786" d="M7.559-4.236h11.2V0H2.285V-25.594H7.559ZM26.807,0h-5.1V-19.02h5.1Zm-5.4-23.941a2.5,2.5,0,0,1,.765-1.881,2.873,2.873,0,0,1,2.083-.738,2.879,2.879,0,0,1,2.074.738,2.487,2.487,0,0,1,.773,1.881,2.494,2.494,0,0,1-.782,1.9,2.886,2.886,0,0,1-2.065.738,2.886,2.886,0,0,1-2.065-.738A2.494,2.494,0,0,1,21.41-23.941ZM48.129-9.334a11.517,11.517,0,0,1-1.951,7.128A6.463,6.463,0,0,1,40.729.352a5.938,5.938,0,0,1-4.939-2.373L35.561,0H30.99V-27h5.08v9.686a5.786,5.786,0,0,1,4.623-2.057,6.517,6.517,0,0,1,5.458,2.558q1.978,2.558,1.978,7.2Zm-5.08-.387a7.608,7.608,0,0,0-.914-4.223,3.088,3.088,0,0,0-2.725-1.331,3.35,3.35,0,0,0-3.34,1.992v7.529a3.4,3.4,0,0,0,3.375,2.01A3.138,3.138,0,0,0,42.68-6.177,12.588,12.588,0,0,0,43.049-9.721Zm18.9-4.535a13.8,13.8,0,0,0-1.828-.141q-2.883,0-3.779,1.951V0h-5.08V-19.02h4.8l.141,2.268a4.707,4.707,0,0,1,4.236-2.619,5.323,5.323,0,0,1,1.582.229Zm1.02,4.57a11.28,11.28,0,0,1,1.09-5.045,7.978,7.978,0,0,1,3.138-3.428,9.154,9.154,0,0,1,4.755-1.213,8.661,8.661,0,0,1,6.284,2.355,9.453,9.453,0,0,1,2.716,6.4l.035,1.3a9.941,9.941,0,0,1-2.443,7.022A8.493,8.493,0,0,1,71.982.352a8.535,8.535,0,0,1-6.565-2.637,10.116,10.116,0,0,1-2.452-7.172Zm5.08.361a7.109,7.109,0,0,0,1.02,4.146,3.363,3.363,0,0,0,2.918,1.435,3.371,3.371,0,0,0,2.883-1.417A7.779,7.779,0,0,0,75.9-9.695a7.038,7.038,0,0,0-1.037-4.12,3.371,3.371,0,0,0-2.918-1.461,3.316,3.316,0,0,0-2.883,1.452A7.91,7.91,0,0,0,68.045-9.325Z" transform="translate(472.677 3298.394) rotate(-90)" fill="#fff"/>
    <path id="Trazado_188787" data-name="Trazado 188787" d="M5,0H232.8a5,5,0,0,1,5,5V58.146a5,5,0,0,1-5,5H5a5,5,0,0,1-5-5V5A5,5,0,0,1,5,0Z" transform="translate(569.993 3053.994)" fill="#26a69a"/>
    <path id="Trazado_188788" data-name="Trazado 188788" d="M21.551-21.322h-7.84V0H8.438V-21.322H.7v-4.271H21.551ZM29.707,0h-5.08V-19.02h5.08ZM28.213-26.736H33.75l-4.869,5.449H24.75ZM40.166-23.7v4.676h3.252v3.727H40.166V-5.8a2.267,2.267,0,0,0,.4,1.512,2.031,2.031,0,0,0,1.547.457,8.1,8.1,0,0,0,1.494-.123v3.85a10.458,10.458,0,0,1-3.076.457q-5.344,0-5.449-5.4V-15.293H32.309V-19.02h2.777V-23.7ZM57.639-1.934a6.371,6.371,0,0,1-5.2,2.285,6.008,6.008,0,0,1-4.667-1.758,7.5,7.5,0,0,1-1.644-5.15V-19.02h5.08v12.3q0,2.974,2.707,2.974a3.668,3.668,0,0,0,3.551-1.8V-19.02h5.1V0H57.779ZM71.754,0h-5.1V-27h5.1Zm3.393-9.686a11.28,11.28,0,0,1,1.09-5.045,7.978,7.978,0,0,1,3.138-3.428,9.154,9.154,0,0,1,4.755-1.213,8.661,8.661,0,0,1,6.284,2.355,9.453,9.453,0,0,1,2.716,6.4l.035,1.3a9.941,9.941,0,0,1-2.443,7.022A8.493,8.493,0,0,1,84.164.352,8.535,8.535,0,0,1,77.6-2.285a10.116,10.116,0,0,1-2.452-7.172Zm5.08.361a7.109,7.109,0,0,0,1.02,4.146,3.363,3.363,0,0,0,2.918,1.435,3.371,3.371,0,0,0,2.883-1.417,7.779,7.779,0,0,0,1.037-4.533,7.038,7.038,0,0,0-1.037-4.12,3.371,3.371,0,0,0-2.918-1.461,3.316,3.316,0,0,0-2.883,1.452A7.91,7.91,0,0,0,80.227-9.325Z" transform="translate(643.113 3096.409)" fill="#fff"/>
    <path id="Trazado_188789" data-name="Trazado 188789" d="M5,0H232.8a5,5,0,0,1,5,5V58.146a5,5,0,0,1-5,5H5a5,5,0,0,1-5-5V5A5,5,0,0,1,5,0Z" transform="translate(569.993 3314.736)" fill="#26a69a"/>
    <path id="Trazado_188790" data-name="Trazado 188790" d="M7.769-9.268V0H2.349V-26.3H12.61a11.872,11.872,0,0,1,5.212,1.084,7.988,7.988,0,0,1,3.46,3.08,8.589,8.589,0,0,1,1.21,4.544,7.553,7.553,0,0,1-2.647,6.1A11.024,11.024,0,0,1,12.52-9.268Zm0-4.39H12.61a4.761,4.761,0,0,0,3.279-1.012,3.68,3.68,0,0,0,1.129-2.891,4.339,4.339,0,0,0-1.138-3.125,4.252,4.252,0,0,0-3.144-1.229H7.769Zm29.087-.994a14.185,14.185,0,0,0-1.879-.145q-2.963,0-3.884,2.005V0H25.871V-19.548H30.8l.145,2.331A4.838,4.838,0,0,1,35.3-19.909a5.471,5.471,0,0,1,1.626.235ZM48.021.361a9.6,9.6,0,0,1-7-2.638,9.376,9.376,0,0,1-2.7-7.028V-9.81a11.809,11.809,0,0,1,1.138-5.266,8.353,8.353,0,0,1,3.225-3.577,9.051,9.051,0,0,1,4.76-1.256,8.113,8.113,0,0,1,6.314,2.529q2.3,2.529,2.3,7.172v2.132H43.612A4.85,4.85,0,0,0,45.139-5a4.615,4.615,0,0,0,3.225,1.156,5.636,5.636,0,0,0,4.715-2.186l2.565,2.873a7.838,7.838,0,0,1-3.18,2.593A10.432,10.432,0,0,1,48.021.361Zm-.6-16.061a3.263,3.263,0,0,0-2.52,1.053,5.45,5.45,0,0,0-1.238,3.012h7.263v-.418a3.887,3.887,0,0,0-.939-2.695A3.366,3.366,0,0,0,47.424-15.7ZM67.153-3.848A3.424,3.424,0,0,0,69.5-4.643a2.785,2.785,0,0,0,.939-2.114h4.9a6.7,6.7,0,0,1-1.084,3.64A7.153,7.153,0,0,1,71.335-.551a9.132,9.132,0,0,1-4.092.912A8.486,8.486,0,0,1,60.631-2.3,10.545,10.545,0,0,1,58.21-9.666v-.343a10.425,10.425,0,0,1,2.4-7.208,8.388,8.388,0,0,1,6.594-2.692,8.222,8.222,0,0,1,5.881,2.087,7.388,7.388,0,0,1,2.249,5.555h-4.9a3.588,3.588,0,0,0-.939-2.479,3.132,3.132,0,0,0-2.385-.954,3.145,3.145,0,0,0-2.755,1.33,7.707,7.707,0,0,0-.93,4.315v.543a7.805,7.805,0,0,0,.921,4.343A3.184,3.184,0,0,0,67.153-3.848ZM83.828,0H78.589V-19.548h5.239ZM78.282-24.606a2.571,2.571,0,0,1,.786-1.933,2.952,2.952,0,0,1,2.141-.759,2.959,2.959,0,0,1,2.132.759,2.556,2.556,0,0,1,.795,1.933,2.563,2.563,0,0,1-.8,1.951,2.966,2.966,0,0,1-2.123.759,2.966,2.966,0,0,1-2.123-.759A2.563,2.563,0,0,1,78.282-24.606ZM87.315-9.955a11.593,11.593,0,0,1,1.12-5.185,8.2,8.2,0,0,1,3.225-3.523,9.408,9.408,0,0,1,4.887-1.247,8.9,8.9,0,0,1,6.459,2.421,9.716,9.716,0,0,1,2.791,6.576l.036,1.337a10.217,10.217,0,0,1-2.511,7.218A8.729,8.729,0,0,1,96.583.361a8.772,8.772,0,0,1-6.748-2.71,10.4,10.4,0,0,1-2.52-7.371Zm5.221.371a7.307,7.307,0,0,0,1.048,4.261,3.457,3.457,0,0,0,3,1.475A3.465,3.465,0,0,0,99.546-5.3a8,8,0,0,0,1.066-4.659A7.234,7.234,0,0,0,99.546-14.2a3.465,3.465,0,0,0-3-1.5,3.408,3.408,0,0,0-2.963,1.493A8.13,8.13,0,0,0,92.536-9.584Z" transform="translate(639.37 3358.151)" fill="#fff"/>
    <path id="Trazado_188791" data-name="Trazado 188791" d="M5,0H232.8a5,5,0,0,1,5,5V58.146a5,5,0,0,1-5,5H5a5,5,0,0,1-5-5V5A5,5,0,0,1,5,0Z" transform="translate(871.338 3314.736)" fill="#ffa726"/>
    <path id="Trazado_188792" data-name="Trazado 188792" d="M9.176-25.594,15.75-7.031l6.539-18.562h6.926V0H23.924V-7l.527-12.076L17.543,0H13.922L7.031-19.055,7.559-7V0H2.285V-25.594ZM32.7-9.686a11.28,11.28,0,0,1,1.09-5.045,7.978,7.978,0,0,1,3.138-3.428,9.154,9.154,0,0,1,4.755-1.213,8.661,8.661,0,0,1,6.284,2.355,9.453,9.453,0,0,1,2.716,6.4l.035,1.3A9.941,9.941,0,0,1,48.27-2.294,8.493,8.493,0,0,1,41.713.352a8.535,8.535,0,0,1-6.565-2.637A10.116,10.116,0,0,1,32.7-9.457Zm5.08.361a7.109,7.109,0,0,0,1.02,4.146,3.363,3.363,0,0,0,2.918,1.435A3.371,3.371,0,0,0,44.6-5.161a7.779,7.779,0,0,0,1.037-4.533,7.038,7.038,0,0,0-1.037-4.12,3.371,3.371,0,0,0-2.918-1.461,3.316,3.316,0,0,0-2.883,1.452A7.91,7.91,0,0,0,37.775-9.325ZM58.518-19.02l.158,2.2a6.64,6.64,0,0,1,5.467-2.549,5.519,5.519,0,0,1,4.5,1.775,8.283,8.283,0,0,1,1.512,5.309V0h-5.08V-12.192a3.308,3.308,0,0,0-.7-2.352,3.143,3.143,0,0,0-2.338-.731,3.493,3.493,0,0,0-3.217,1.832V0h-5.08V-19.02ZM82.758.352a9.337,9.337,0,0,1-6.812-2.566,9.122,9.122,0,0,1-2.628-6.838v-.492a11.49,11.49,0,0,1,1.107-5.124,8.127,8.127,0,0,1,3.138-3.48A8.807,8.807,0,0,1,82.2-19.371a7.893,7.893,0,0,1,6.144,2.461q2.241,2.461,2.241,6.979v2.074H78.469a4.719,4.719,0,0,0,1.485,2.988,4.49,4.49,0,0,0,3.138,1.125A5.483,5.483,0,0,0,87.68-5.871l2.5,2.795A7.626,7.626,0,0,1,87.082-.554,10.15,10.15,0,0,1,82.758.352Zm-.58-15.627a3.174,3.174,0,0,0-2.452,1.024,5.3,5.3,0,0,0-1.2,2.931h7.066v-.406a3.782,3.782,0,0,0-.914-2.622A3.275,3.275,0,0,0,82.178-15.275ZM92.672-9.65a11.462,11.462,0,0,1,2-7.084,6.473,6.473,0,0,1,5.458-2.637,5.825,5.825,0,0,1,4.588,2.074V-27h5.1V0h-4.588l-.246-2.021A5.978,5.978,0,0,1,100.09.352,6.456,6.456,0,0,1,94.7-2.294Q92.672-4.939,92.672-9.65Zm5.08.361a7.549,7.549,0,0,0,.932,4.114,3.032,3.032,0,0,0,2.707,1.43,3.4,3.4,0,0,0,3.322-2v-7.54a3.349,3.349,0,0,0-3.287-2Q97.752-15.275,97.752-9.289ZM124.77,0a5.641,5.641,0,0,1-.51-1.705,6.147,6.147,0,0,1-4.8,2.057,6.753,6.753,0,0,1-4.632-1.617,5.2,5.2,0,0,1-1.837-4.078,5.375,5.375,0,0,1,2.241-4.641,11.059,11.059,0,0,1,6.478-1.635h2.338v-1.09a3.134,3.134,0,0,0-.677-2.109,2.662,2.662,0,0,0-2.136-.791,3.027,3.027,0,0,0-2.013.615,2.09,2.09,0,0,0-.729,1.688h-5.08a5.1,5.1,0,0,1,1.02-3.059,6.739,6.739,0,0,1,2.883-2.206,10.506,10.506,0,0,1,4.184-.8,8.3,8.3,0,0,1,5.581,1.767,6.18,6.18,0,0,1,2.065,4.966v8.244A9.093,9.093,0,0,0,129.9-.3V0Zm-4.2-3.533a4.375,4.375,0,0,0,2.074-.5,3.29,3.29,0,0,0,1.406-1.345v-3.27h-1.9q-3.814,0-4.061,2.637l-.018.3a2.034,2.034,0,0,0,.668,1.564A2.6,2.6,0,0,0,120.568-3.533Z" transform="translate(925.745 3359.197)" fill="#fff"/>
    <path id="Trazado_188793" data-name="Trazado 188793" d="M5,0H232.8a5,5,0,0,1,5,5V58.146a5,5,0,0,1-5,5H5a5,5,0,0,1-5-5V5A5,5,0,0,1,5,0Z" transform="translate(875.081 3093.991)" fill="#ffa726"/>
    <path id="Trazado_188794" data-name="Trazado 188794" d="M16.734-5.273H7.488L5.73,0H.123L9.65-25.594h4.887L24.117,0H18.51ZM8.912-9.545h6.4l-3.217-9.58ZM37.371-1.934a6.371,6.371,0,0,1-5.2,2.285A6.008,6.008,0,0,1,27.5-1.406a7.5,7.5,0,0,1-1.644-5.15V-19.02h5.08v12.3q0,2.974,2.707,2.974a3.668,3.668,0,0,0,3.551-1.8V-19.02h5.1V0H37.512ZM52.207-23.7v4.676h3.252v3.727H52.207V-5.8a2.267,2.267,0,0,0,.4,1.512,2.031,2.031,0,0,0,1.547.457,8.1,8.1,0,0,0,1.494-.123v3.85a10.458,10.458,0,0,1-3.076.457q-5.344,0-5.449-5.4V-15.293H44.35V-19.02h2.777V-23.7Zm4.764,14.01a11.28,11.28,0,0,1,1.09-5.045A7.978,7.978,0,0,1,61.2-18.158a9.154,9.154,0,0,1,4.755-1.213,8.661,8.661,0,0,1,6.284,2.355,9.453,9.453,0,0,1,2.716,6.4l.035,1.3a9.941,9.941,0,0,1-2.443,7.022A8.493,8.493,0,0,1,65.988.352a8.535,8.535,0,0,1-6.565-2.637,10.116,10.116,0,0,1-2.452-7.172Zm5.08.361a7.109,7.109,0,0,0,1.02,4.146,3.363,3.363,0,0,0,2.918,1.435,3.371,3.371,0,0,0,2.883-1.417,7.779,7.779,0,0,0,1.037-4.533,7.038,7.038,0,0,0-1.037-4.12,3.371,3.371,0,0,0-2.918-1.461,3.316,3.316,0,0,0-2.883,1.452A7.91,7.91,0,0,0,62.051-9.325ZM88.8-14.256a13.8,13.8,0,0,0-1.828-.141q-2.883,0-3.779,1.951V0h-5.08V-19.02h4.8l.141,2.268a4.707,4.707,0,0,1,4.236-2.619,5.323,5.323,0,0,1,1.582.229ZM112.342,0h-5.08V-19.609L101.2-17.736v-4.1l10.6-3.8h.545Z" transform="translate(934.479 3136.406)" fill="#fff"/>
    <path id="Trazado_188795" data-name="Trazado 188795" d="M5,0H232.8a5,5,0,0,1,5,5V58.146a5,5,0,0,1-5,5H5a5,5,0,0,1-5-5V5A5,5,0,0,1,5,0Z" transform="translate(569.993 3133.688)" fill="#26a69a"/>
    <path id="Trazado_188796" data-name="Trazado 188796" d="M17.2-5.42H7.7L5.89,0H.126L9.918-26.3h5.022L24.787,0H19.024ZM9.16-9.81h6.576L12.43-19.656Zm29.25,7.823A6.548,6.548,0,0,1,33.062.361a6.175,6.175,0,0,1-4.8-1.807,7.712,7.712,0,0,1-1.689-5.293V-19.548H31.8V-6.9q0,3.057,2.782,3.057a3.77,3.77,0,0,0,3.649-1.845V-19.548h5.239V0H38.554ZM53.657-24.354v4.806H57v3.83H53.657v9.756a2.329,2.329,0,0,0,.416,1.554,2.087,2.087,0,0,0,1.59.47A8.326,8.326,0,0,0,57.2-4.065V-.108a10.749,10.749,0,0,1-3.162.47q-5.492,0-5.6-5.546V-15.718H45.582v-3.83h2.854v-4.806Zm4.9,14.4a11.593,11.593,0,0,1,1.12-5.185A8.2,8.2,0,0,1,62.9-18.663a9.408,9.408,0,0,1,4.887-1.247,8.9,8.9,0,0,1,6.459,2.421,9.716,9.716,0,0,1,2.791,6.576l.036,1.337A10.217,10.217,0,0,1,74.56-2.358,8.729,8.729,0,0,1,67.821.361a8.772,8.772,0,0,1-6.748-2.71,10.4,10.4,0,0,1-2.52-7.371Zm5.221.371a7.307,7.307,0,0,0,1.048,4.261,3.457,3.457,0,0,0,3,1.475A3.465,3.465,0,0,0,70.784-5.3,8,8,0,0,0,71.85-9.964,7.234,7.234,0,0,0,70.784-14.2a3.465,3.465,0,0,0-3-1.5,3.408,3.408,0,0,0-2.963,1.493A8.13,8.13,0,0,0,63.774-9.584Zm27.5-5.068a14.185,14.185,0,0,0-1.879-.145q-2.963,0-3.884,2.005V0H80.287V-19.548h4.932l.145,2.331a4.838,4.838,0,0,1,4.354-2.692,5.471,5.471,0,0,1,1.626.235Z" transform="translate(645.608 3177.104)" fill="#fff"/>
    <path id="Trazado_188797" data-name="Trazado 188797" d="M5,0H232.8a5,5,0,0,1,5,5V58.146a5,5,0,0,1-5,5H5a5,5,0,0,1-5-5V5A5,5,0,0,1,5,0Z" transform="translate(569.993 3394.431)" fill="#26a69a"/>
    <path id="Trazado_188798" data-name="Trazado 188798" d="M2.285,0V-25.594H10.16A11.959,11.959,0,0,1,16.2-24.073a10.6,10.6,0,0,1,4.157,4.324,13.337,13.337,0,0,1,1.494,6.372V-12.2a13.375,13.375,0,0,1-1.468,6.346,10.512,10.512,0,0,1-4.14,4.307A12.049,12.049,0,0,1,10.213,0ZM7.559-21.322V-4.236h2.549a5.727,5.727,0,0,0,4.729-2.021,9.135,9.135,0,0,0,1.67-5.783v-1.354a9.28,9.28,0,0,0-1.617-5.915,5.707,5.707,0,0,0-4.729-2.013ZM34.1.352A9.337,9.337,0,0,1,27.29-2.215a9.122,9.122,0,0,1-2.628-6.838v-.492a11.49,11.49,0,0,1,1.107-5.124,8.127,8.127,0,0,1,3.138-3.48,8.807,8.807,0,0,1,4.632-1.222,7.893,7.893,0,0,1,6.144,2.461q2.241,2.461,2.241,6.979v2.074H29.813A4.719,4.719,0,0,0,31.3-4.869a4.49,4.49,0,0,0,3.138,1.125,5.483,5.483,0,0,0,4.588-2.127l2.5,2.795A7.626,7.626,0,0,1,38.426-.554,10.15,10.15,0,0,1,34.1.352Zm-.58-15.627a3.174,3.174,0,0,0-2.452,1.024,5.3,5.3,0,0,0-1.2,2.931h7.066v-.406a3.782,3.782,0,0,0-.914-2.622A3.275,3.275,0,0,0,33.521-15.275ZM55.107-5.256a1.637,1.637,0,0,0-.923-1.468,10.483,10.483,0,0,0-2.962-.958q-6.785-1.424-6.785-5.766a5.226,5.226,0,0,1,2.1-4.228,8.474,8.474,0,0,1,5.493-1.7,9.12,9.12,0,0,1,5.792,1.705,5.374,5.374,0,0,1,2.171,4.43h-5.08a2.458,2.458,0,0,0-.7-1.8,2.976,2.976,0,0,0-2.2-.712,3.04,3.04,0,0,0-1.986.58,1.831,1.831,0,0,0-.7,1.477,1.565,1.565,0,0,0,.8,1.362,8.228,8.228,0,0,0,2.7.9,22.039,22.039,0,0,1,3.2.853q4.025,1.477,4.025,5.115a4.961,4.961,0,0,1-2.232,4.21A9.63,9.63,0,0,1,52.049.352,10.058,10.058,0,0,1,47.8-.5a7.123,7.123,0,0,1-2.909-2.338A5.432,5.432,0,0,1,43.84-6.047h4.816a2.652,2.652,0,0,0,1,2.074,3.974,3.974,0,0,0,2.5.721,3.678,3.678,0,0,0,2.206-.554A1.723,1.723,0,0,0,55.107-5.256ZM71.227-3.744a3.332,3.332,0,0,0,2.285-.773,2.71,2.71,0,0,0,.914-2.057h4.764a6.516,6.516,0,0,1-1.055,3.542A6.959,6.959,0,0,1,75.3-.536a8.885,8.885,0,0,1-3.981.888,8.257,8.257,0,0,1-6.434-2.593A10.26,10.26,0,0,1,62.525-9.4v-.334a10.143,10.143,0,0,1,2.338-7.014,8.161,8.161,0,0,1,6.416-2.619A8,8,0,0,1,77-17.341a7.189,7.189,0,0,1,2.188,5.405H74.426a3.491,3.491,0,0,0-.914-2.412,3.048,3.048,0,0,0-2.32-.928,3.06,3.06,0,0,0-2.681,1.294,7.5,7.5,0,0,0-.905,4.2v.528a7.594,7.594,0,0,0,.9,4.225A3.1,3.1,0,0,0,71.227-3.744ZM92.777-14.256a13.8,13.8,0,0,0-1.828-.141q-2.883,0-3.779,1.951V0H82.09V-19.02h4.8l.141,2.268a4.707,4.707,0,0,1,4.236-2.619,5.323,5.323,0,0,1,1.582.229ZM100.582,0h-5.1V-19.02h5.1Zm-5.4-23.941a2.5,2.5,0,0,1,.765-1.881,2.873,2.873,0,0,1,2.083-.738,2.879,2.879,0,0,1,2.074.738,2.487,2.487,0,0,1,.773,1.881,2.494,2.494,0,0,1-.782,1.9,2.886,2.886,0,0,1-2.065.738,2.886,2.886,0,0,1-2.065-.738A2.494,2.494,0,0,1,95.186-23.941Zm26.7,14.607a11.407,11.407,0,0,1-2,7.04A6.4,6.4,0,0,1,114.5.352a5.925,5.925,0,0,1-4.658-2V7.313h-5.08V-19.02h4.711l.176,1.863a5.971,5.971,0,0,1,4.816-2.215,6.44,6.44,0,0,1,5.467,2.6A11.716,11.716,0,0,1,121.887-9.6Zm-5.08-.387a7.527,7.527,0,0,0-.94-4.108,3.061,3.061,0,0,0-2.733-1.446,3.325,3.325,0,0,0-3.287,1.834v7.811a3.381,3.381,0,0,0,3.322,1.887Q116.807-3.744,116.807-9.721ZM131.115-23.7v4.676h3.252v3.727h-3.252V-5.8a2.267,2.267,0,0,0,.4,1.512,2.031,2.031,0,0,0,1.547.457,8.1,8.1,0,0,0,1.494-.123v3.85a10.458,10.458,0,0,1-3.076.457q-5.344,0-5.449-5.4V-15.293h-2.777V-19.02h2.777V-23.7Zm4.764,14.01a11.28,11.28,0,0,1,1.09-5.045,7.978,7.978,0,0,1,3.138-3.428,9.154,9.154,0,0,1,4.755-1.213,8.661,8.661,0,0,1,6.284,2.355,9.453,9.453,0,0,1,2.716,6.4l.035,1.3a9.941,9.941,0,0,1-2.443,7.022A8.493,8.493,0,0,1,144.9.352a8.535,8.535,0,0,1-6.565-2.637,10.116,10.116,0,0,1-2.452-7.172Zm5.08.361a7.109,7.109,0,0,0,1.02,4.146A3.363,3.363,0,0,0,144.9-3.744a3.371,3.371,0,0,0,2.883-1.417,7.779,7.779,0,0,0,1.037-4.533,7.038,7.038,0,0,0-1.037-4.12,3.371,3.371,0,0,0-2.918-1.461,3.316,3.316,0,0,0-2.883,1.452A7.91,7.91,0,0,0,140.959-9.325Zm26.754-4.931a13.8,13.8,0,0,0-1.828-.141q-2.883,0-3.779,1.951V0h-5.08V-19.02h4.8l.141,2.268a4.707,4.707,0,0,1,4.236-2.619,5.323,5.323,0,0,1,1.582.229ZM178.576.352a9.337,9.337,0,0,1-6.812-2.566,9.122,9.122,0,0,1-2.628-6.838v-.492a11.49,11.49,0,0,1,1.107-5.124,8.127,8.127,0,0,1,3.138-3.48,8.807,8.807,0,0,1,4.632-1.222,7.893,7.893,0,0,1,6.144,2.461q2.241,2.461,2.241,6.979v2.074H174.287a4.719,4.719,0,0,0,1.485,2.988,4.49,4.49,0,0,0,3.138,1.125A5.483,5.483,0,0,0,183.5-5.871l2.5,2.795A7.626,7.626,0,0,1,182.9-.554,10.15,10.15,0,0,1,178.576.352ZM178-15.275a3.174,3.174,0,0,0-2.452,1.024,5.3,5.3,0,0,0-1.2,2.931h7.066v-.406a3.782,3.782,0,0,0-.914-2.622A3.275,3.275,0,0,0,178-15.275Zm21.586,10.02a1.637,1.637,0,0,0-.923-1.468,10.483,10.483,0,0,0-2.962-.958q-6.785-1.424-6.785-5.766a5.226,5.226,0,0,1,2.1-4.228,8.474,8.474,0,0,1,5.493-1.7,9.12,9.12,0,0,1,5.792,1.705,5.374,5.374,0,0,1,2.171,4.43h-5.08a2.458,2.458,0,0,0-.7-1.8,2.976,2.976,0,0,0-2.2-.712,3.04,3.04,0,0,0-1.986.58,1.831,1.831,0,0,0-.7,1.477,1.565,1.565,0,0,0,.8,1.362,8.228,8.228,0,0,0,2.7.9,22.039,22.039,0,0,1,3.2.853q4.025,1.477,4.025,5.115a4.961,4.961,0,0,1-2.232,4.21A9.63,9.63,0,0,1,196.523.352,10.058,10.058,0,0,1,192.278-.5a7.123,7.123,0,0,1-2.909-2.338,5.432,5.432,0,0,1-1.055-3.208h4.816a2.652,2.652,0,0,0,1,2.074,3.974,3.974,0,0,0,2.5.721,3.678,3.678,0,0,0,2.206-.554A1.723,1.723,0,0,0,199.582-5.256Z" transform="translate(584.478 3436.846)" fill="#fff"/>
    <path id="Trazado_188799" data-name="Trazado 188799" d="M5,0H232.8a5,5,0,0,1,5,5V58.146a5,5,0,0,1-5,5H5a5,5,0,0,1-5-5V5A5,5,0,0,1,5,0Z" transform="translate(871.338 3394.431)" fill="#ffa726"/>
    <path id="Trazado_188800" data-name="Trazado 188800" d="M5,0H232.8a5,5,0,0,1,5,5V58.146a5,5,0,0,1-5,5H5a5,5,0,0,1-5-5V5A5,5,0,0,1,5,0Z" transform="translate(875.081 3173.686)" fill="#ffa726"/>
    <path id="Trazado_188801" data-name="Trazado 188801" d="M0,0H78.153V11.793H0Z" transform="translate(832.849 3126.334) rotate(90)" fill="#bec1c7"/>
    <path id="Trazado_188764" data-name="Trazado 188764" d="M16.734-5.273H7.488L5.73,0H.123L9.65-25.594h4.887L24.117,0H18.51ZM8.912-9.545h6.4l-3.217-9.58ZM37.371-1.934a6.371,6.371,0,0,1-5.2,2.285A6.008,6.008,0,0,1,27.5-1.406a7.5,7.5,0,0,1-1.644-5.15V-19.02h5.08v12.3q0,2.974,2.707,2.974a3.668,3.668,0,0,0,3.551-1.8V-19.02h5.1V0H37.512ZM52.207-23.7v4.676h3.252v3.727H52.207V-5.8a2.267,2.267,0,0,0,.4,1.512,2.031,2.031,0,0,0,1.547.457,8.1,8.1,0,0,0,1.494-.123v3.85a10.458,10.458,0,0,1-3.076.457q-5.344,0-5.449-5.4V-15.293H44.35V-19.02h2.777V-23.7Zm4.764,14.01a11.28,11.28,0,0,1,1.09-5.045A7.978,7.978,0,0,1,61.2-18.158a9.154,9.154,0,0,1,4.755-1.213,8.661,8.661,0,0,1,6.284,2.355,9.453,9.453,0,0,1,2.716,6.4l.035,1.3a9.941,9.941,0,0,1-2.443,7.022A8.493,8.493,0,0,1,65.988.352a8.535,8.535,0,0,1-6.565-2.637,10.116,10.116,0,0,1-2.452-7.172Zm5.08.361a7.109,7.109,0,0,0,1.02,4.146,3.363,3.363,0,0,0,2.918,1.435,3.371,3.371,0,0,0,2.883-1.417,7.779,7.779,0,0,0,1.037-4.533,7.038,7.038,0,0,0-1.037-4.12,3.371,3.371,0,0,0-2.918-1.461,3.316,3.316,0,0,0-2.883,1.452A7.91,7.91,0,0,0,62.051-9.325ZM88.8-14.256a13.8,13.8,0,0,0-1.828-.141q-2.883,0-3.779,1.951V0h-5.08V-19.02h4.8l.141,2.268a4.707,4.707,0,0,1,4.236-2.619,5.323,5.323,0,0,1,1.582.229ZM117.545,0H100V-3.48l8.279-8.824a20.425,20.425,0,0,0,2.522-3.252,5.225,5.225,0,0,0,.817-2.637,3.909,3.909,0,0,0-.861-2.681,3.109,3.109,0,0,0-2.461-.976,3.353,3.353,0,0,0-2.716,1.187,4.7,4.7,0,0,0-.993,3.12h-5.1a8.391,8.391,0,0,1,1.116-4.271,7.867,7.867,0,0,1,3.155-3.032,9.59,9.59,0,0,1,4.623-1.1,9.081,9.081,0,0,1,6.144,1.9,6.716,6.716,0,0,1,2.188,5.361,8.605,8.605,0,0,1-.984,3.867,21.491,21.491,0,0,1-3.375,4.588L106.541-4.1h11Z" transform="translate(934.478 3217.499)" fill="#fff"/>
    <path id="Trazado_188765" data-name="Trazado 188765" d="M7.559-4.236h11.2V0H2.285V-25.594H7.559ZM30.2.352a9.337,9.337,0,0,1-6.812-2.566A9.122,9.122,0,0,1,20.76-9.053v-.492a11.49,11.49,0,0,1,1.107-5.124A8.127,8.127,0,0,1,25-18.149a8.807,8.807,0,0,1,4.632-1.222A7.893,7.893,0,0,1,35.78-16.91q2.241,2.461,2.241,6.979v2.074H25.91A4.719,4.719,0,0,0,27.4-4.869a4.49,4.49,0,0,0,3.138,1.125,5.483,5.483,0,0,0,4.588-2.127l2.5,2.795A7.626,7.626,0,0,1,34.523-.554,10.15,10.15,0,0,1,30.2.352Zm-.58-15.627a3.174,3.174,0,0,0-2.452,1.024,5.3,5.3,0,0,0-1.2,2.931h7.066v-.406a3.782,3.782,0,0,0-.914-2.622A3.275,3.275,0,0,0,29.619-15.275ZM45.58-19.02l.158,2.2a6.64,6.64,0,0,1,5.467-2.549,5.519,5.519,0,0,1,4.5,1.775,8.283,8.283,0,0,1,1.512,5.309V0h-5.08V-12.192a3.308,3.308,0,0,0-.7-2.352,3.143,3.143,0,0,0-2.338-.731,3.493,3.493,0,0,0-3.217,1.832V0H40.8V-19.02ZM60.328-9.65A11.147,11.147,0,0,1,62.411-16.7a6.749,6.749,0,0,1,5.616-2.672A5.919,5.919,0,0,1,72.9-17.227l.211-1.793h4.605V-.633a8.129,8.129,0,0,1-1.134,4.342,7.282,7.282,0,0,1-3.19,2.813,11.216,11.216,0,0,1-4.816.967,10.429,10.429,0,0,1-4.078-.835A7.238,7.238,0,0,1,61.488,4.5l2.25-3.094a5.951,5.951,0,0,0,4.605,2.127A4.355,4.355,0,0,0,71.49,2.452,4.055,4.055,0,0,0,72.615-.615v-1.02A5.876,5.876,0,0,1,67.992.352a6.732,6.732,0,0,1-5.546-2.681,11.144,11.144,0,0,1-2.118-7.11Zm5.08.361a6.978,6.978,0,0,0,1.037,4.07,3.3,3.3,0,0,0,2.848,1.475,3.525,3.525,0,0,0,3.322-1.748v-8.035a3.517,3.517,0,0,0-3.287-1.748,3.317,3.317,0,0,0-2.874,1.5A7.866,7.866,0,0,0,65.408-9.289Zm27.6,7.355A6.371,6.371,0,0,1,87.8.352a6.008,6.008,0,0,1-4.667-1.758,7.5,7.5,0,0,1-1.644-5.15V-19.02h5.08v12.3q0,2.974,2.707,2.974a3.668,3.668,0,0,0,3.551-1.8V-19.02h5.1V0H93.146ZM112.781,0a5.641,5.641,0,0,1-.51-1.705,6.147,6.147,0,0,1-4.8,2.057,6.753,6.753,0,0,1-4.632-1.617A5.2,5.2,0,0,1,101-5.344a5.375,5.375,0,0,1,2.241-4.641,11.059,11.059,0,0,1,6.478-1.635h2.338v-1.09a3.134,3.134,0,0,0-.677-2.109,2.662,2.662,0,0,0-2.136-.791,3.027,3.027,0,0,0-2.013.615,2.09,2.09,0,0,0-.729,1.688h-5.08a5.1,5.1,0,0,1,1.02-3.059,6.739,6.739,0,0,1,2.883-2.206,10.506,10.506,0,0,1,4.184-.8,8.3,8.3,0,0,1,5.581,1.767,6.18,6.18,0,0,1,2.065,4.966v8.244a9.093,9.093,0,0,0,.756,4.1V0Zm-4.2-3.533a4.375,4.375,0,0,0,2.074-.5,3.29,3.29,0,0,0,1.406-1.345v-3.27h-1.9q-3.814,0-4.061,2.637l-.018.3a2.034,2.034,0,0,0,.668,1.564A2.6,2.6,0,0,0,108.58-3.533ZM126.439-19.02V1.037a6.8,6.8,0,0,1-1.67,4.9,6.347,6.347,0,0,1-4.816,1.749,10.329,10.329,0,0,1-2.514-.3V3.357a9.536,9.536,0,0,0,1.6.158q2.3,0,2.3-2.443V-19.02Zm-5.5-4.922a2.5,2.5,0,0,1,.765-1.881,2.873,2.873,0,0,1,2.083-.738,2.873,2.873,0,0,1,2.083.738,2.5,2.5,0,0,1,.765,1.881,2.494,2.494,0,0,1-.782,1.9,2.886,2.886,0,0,1-2.065.738,2.886,2.886,0,0,1-2.065-.738A2.494,2.494,0,0,1,120.938-23.941ZM139.166.352a9.337,9.337,0,0,1-6.812-2.566,9.122,9.122,0,0,1-2.628-6.838v-.492a11.49,11.49,0,0,1,1.107-5.124,8.127,8.127,0,0,1,3.138-3.48,8.807,8.807,0,0,1,4.632-1.222,7.893,7.893,0,0,1,6.144,2.461q2.241,2.461,2.241,6.979v2.074H134.877a4.719,4.719,0,0,0,1.485,2.988A4.49,4.49,0,0,0,139.5-3.744a5.483,5.483,0,0,0,4.588-2.127l2.5,2.795A7.626,7.626,0,0,1,143.49-.554,10.15,10.15,0,0,1,139.166.352Zm-.58-15.627a3.174,3.174,0,0,0-2.452,1.024,5.3,5.3,0,0,0-1.2,2.931H142v-.406a3.782,3.782,0,0,0-.914-2.622A3.275,3.275,0,0,0,138.586-15.275Zm21.586,10.02a1.637,1.637,0,0,0-.923-1.468,10.483,10.483,0,0,0-2.962-.958Q149.5-9.105,149.5-13.447a5.226,5.226,0,0,1,2.1-4.228,8.474,8.474,0,0,1,5.493-1.7,9.12,9.12,0,0,1,5.792,1.705,5.374,5.374,0,0,1,2.171,4.43h-5.08a2.458,2.458,0,0,0-.7-1.8,2.976,2.976,0,0,0-2.2-.712,3.04,3.04,0,0,0-1.986.58,1.831,1.831,0,0,0-.7,1.477,1.565,1.565,0,0,0,.8,1.362,8.228,8.228,0,0,0,2.7.9,22.039,22.039,0,0,1,3.2.853q4.025,1.477,4.025,5.115a4.961,4.961,0,0,1-2.232,4.21A9.63,9.63,0,0,1,157.113.352,10.058,10.058,0,0,1,152.868-.5a7.123,7.123,0,0,1-2.909-2.338A5.432,5.432,0,0,1,148.9-6.047h4.816a2.652,2.652,0,0,0,1,2.074,3.974,3.974,0,0,0,2.5.721,3.678,3.678,0,0,0,2.206-.554A1.723,1.723,0,0,0,160.172-5.256Z" transform="translate(909.527 3437.172)" fill="#fff"/>
  </g>
</svg>
