<svg id="Grupo_49901" data-name="Grupo 49901" xmlns="http://www.w3.org/2000/svg" xmlns:xlink="http://www.w3.org/1999/xlink" width="127.154" height="127.153" viewBox="0 0 127.154 127.153">
  <defs>
    <radialGradient id="radial-gradient" cx="0.076" cy="0.019" r="1.465" gradientTransform="translate(0.001)" gradientUnits="objectBoundingBox">
      <stop offset="0" stop-color="#f6f6f7"/>
      <stop offset="0.477" stop-color="#f9f9fa"/>
      <stop offset="0.715" stop-color="#fff"/>
    </radialGradient>
  </defs>
  <g id="Grupo_18423" data-name="Grupo 18423" transform="translate(0 0)">
    <g id="Grupo_18421" data-name="Grupo 18421">
      <g id="Grupo_18420" data-name="Grupo 18420">
        <g id="Grupo_18419" data-name="Grupo 18419">
          <path id="Trazado_40936" data-name="Trazado 40936" d="M321.776,2209.3a63.577,63.577,0,1,1-63.576-63.574A63.576,63.576,0,0,1,321.776,2209.3Z" transform="translate(-194.623 -2145.721)" fill="#fff"/>
        </g>
      </g>
    </g>
    <path id="Trazado_40937" data-name="Trazado 40937" d="M321.006,2208.456a63.575,63.575,0,1,0-63.576,63.578A63.325,63.325,0,0,0,321.006,2208.456Z" transform="translate(-193.853 -2144.881)" fill="url(#radial-gradient)"/>
    <path id="Trazado_40938" data-name="Trazado 40938" d="M299.105,2201.631a48.527,48.527,0,1,0-48.528,48.528A48.347,48.347,0,0,0,299.105,2201.631Z" transform="translate(-186.808 -2137.845)" fill="none" stroke="#ffca45" stroke-miterlimit="10" stroke-width="4"/>
    <g id="Grupo_18422" data-name="Grupo 18422" transform="translate(11.263 35.694)">
      <path id="Trazado_40939" data-name="Trazado 40939" d="M310.007,2164.488A63.584,63.584,0,0,1,200.545,2227.8a63.382,63.382,0,0,0,109.462-63.313Z" transform="translate(-200.545 -2164.488)" fill="#eceef0"/>
    </g>
  </g>
  <g id="Grupo_28520" data-name="Grupo 28520" transform="translate(36.372 32.318)">
    <path id="Trazado_67883" data-name="Trazado 67883" d="M229.94,216.429a6.436,6.436,0,1,1,6.436-6.436A6.443,6.443,0,0,1,229.94,216.429Zm0-11.154a4.718,4.718,0,1,0,4.718,4.718A4.723,4.723,0,0,0,229.94,205.275Z" transform="translate(-211.078 -195.876)" fill="#00223d"/>
    <path id="Trazado_67884" data-name="Trazado 67884" d="M229.94,250.687a6.436,6.436,0,1,1,6.436-6.436A6.443,6.443,0,0,1,229.94,250.687Zm0-11.154a4.718,4.718,0,1,0,4.718,4.718A4.723,4.723,0,0,0,229.94,239.533Z" transform="translate(-211.078 -212.236)" fill="#00223d"/>
    <path id="Trazado_67885" data-name="Trazado 67885" d="M229.94,284.945a6.436,6.436,0,1,1,6.436-6.436A6.443,6.443,0,0,1,229.94,284.945Zm0-11.153a4.717,4.717,0,1,0,4.718,4.717A4.722,4.722,0,0,0,229.94,273.792Z" transform="translate(-211.078 -228.596)" fill="#00223d"/>
    <path id="Trazado_67886" data-name="Trazado 67886" d="M207.7,200.446h-5.637a2.344,2.344,0,1,1,0-4.688H207.7a2.344,2.344,0,1,1,0,4.688Zm-5.637-2.97a.626.626,0,1,0,0,1.251H207.7a.626.626,0,1,0,0-1.251Z" transform="translate(-199.72 -192.152)" fill="#00223d"/>
    <path id="Trazado_67887" data-name="Trazado 67887" d="M207.7,220.4h-5.637a2.344,2.344,0,0,1,0-4.688H207.7a2.344,2.344,0,0,1,0,4.688Zm-5.637-2.97a.626.626,0,1,0,0,1.252H207.7a.626.626,0,0,0,0-1.252Z" transform="translate(-199.72 -201.681)" fill="#00223d"/>
    <path id="Trazado_67888" data-name="Trazado 67888" d="M207.7,240.356h-5.637a2.344,2.344,0,0,1,0-4.688H207.7a2.344,2.344,0,0,1,0,4.688Zm-5.637-2.97a.626.626,0,0,0,0,1.252H207.7a.626.626,0,0,0,0-1.252Z" transform="translate(-199.72 -211.211)" fill="#00223d"/>
    <path id="Trazado_67889" data-name="Trazado 67889" d="M207.7,260.312h-5.637a2.344,2.344,0,0,1,0-4.688H207.7a2.344,2.344,0,0,1,0,4.688Zm-5.637-2.97a.626.626,0,0,0,0,1.252H207.7a.626.626,0,0,0,0-1.252Z" transform="translate(-199.72 -220.741)" fill="#00223d"/>
    <path id="Trazado_67890" data-name="Trazado 67890" d="M207.7,280.268h-5.637a2.344,2.344,0,0,1,0-4.689H207.7a2.344,2.344,0,0,1,0,4.689Zm-5.637-2.97a.626.626,0,1,0,0,1.252H207.7a.626.626,0,1,0,0-1.252Z" transform="translate(-199.72 -230.271)" fill="#00223d"/>
    <path id="Trazado_67891" data-name="Trazado 67891" d="M207.7,300.224h-5.637a2.344,2.344,0,1,1,0-4.688H207.7a2.344,2.344,0,1,1,0,4.688Zm-5.637-2.97a.626.626,0,1,0,0,1.252H207.7a.626.626,0,0,0,0-1.252Z" transform="translate(-199.72 -239.801)" fill="#00223d"/>
    <path id="Trazado_67892" data-name="Trazado 67892" d="M255.475,252.885H210.89a2.007,2.007,0,0,1-2-2v-2.462a.859.859,0,0,1,.859-.859h2.334a.625.625,0,0,0,.625-.66.69.69,0,0,0-.709-.591h-2.25a.859.859,0,0,1-.859-.859v-7.455a.859.859,0,0,1,.859-.859h2.334a.625.625,0,0,0,.625-.66.69.69,0,0,0-.709-.591h-2.25a.859.859,0,0,1-.859-.859v-7.455a.859.859,0,0,1,.859-.859h2.334a.626.626,0,0,0,.625-.661.69.69,0,0,0-.709-.591h-2.25a.859.859,0,0,1-.859-.859v-7.455a.859.859,0,0,1,.859-.859h2.334a.626.626,0,0,0,.625-.66.69.69,0,0,0-.709-.592h-2.25a.859.859,0,0,1-.859-.859v-7.456a.859.859,0,0,1,.859-.859h2.334a.626.626,0,0,0,.625-.661.69.69,0,0,0-.709-.591h-2.25a.859.859,0,0,1-.859-.859v-7.455a.859.859,0,0,1,.859-.859h2.334a.625.625,0,0,0,.625-.661.69.69,0,0,0-.709-.591h-2.25a.859.859,0,0,1-.859-.859v-2.461a2.006,2.006,0,0,1,2-2h44.585a2.007,2.007,0,0,1,2,2v60.021A2.007,2.007,0,0,1,255.475,252.885ZM210.6,249.278v1.6a.287.287,0,0,0,.286.286h44.585a.286.286,0,0,0,.286-.286V190.859a.286.286,0,0,0-.286-.286H210.89a.287.287,0,0,0-.286.286v1.6h1.391a2.388,2.388,0,0,1,2.425,2.22,2.324,2.324,0,0,1-.641,1.738,2.354,2.354,0,0,1-1.7.731H210.6v5.738h1.391a2.388,2.388,0,0,1,2.425,2.219,2.325,2.325,0,0,1-.641,1.738,2.354,2.354,0,0,1-1.7.731H210.6v5.737h1.391a2.388,2.388,0,0,1,2.425,2.22,2.323,2.323,0,0,1-.641,1.738,2.352,2.352,0,0,1-1.7.731H210.6v5.738h1.391a2.388,2.388,0,0,1,2.425,2.22,2.324,2.324,0,0,1-.641,1.738,2.352,2.352,0,0,1-1.7.731H210.6v5.738h1.391a2.388,2.388,0,0,1,2.425,2.22,2.324,2.324,0,0,1-.641,1.738,2.352,2.352,0,0,1-1.7.731H210.6v5.738h1.391a2.387,2.387,0,0,1,2.425,2.219,2.325,2.325,0,0,1-.641,1.738,2.353,2.353,0,0,1-1.7.731Z" transform="translate(-204.097 -188.855)" fill="#00223d"/>
    <path id="Trazado_67893" data-name="Trazado 67893" d="M235.037,233.368a.859.859,0,0,1-.859-.859v-6.744a.859.859,0,1,1,1.718,0v6.744A.859.859,0,0,1,235.037,233.368Z" transform="translate(-216.175 -206.071)" fill="#00223d"/>
    <path id="Trazado_67894" data-name="Trazado 67894" d="M235.037,267.626a.859.859,0,0,1-.859-.859v-6.745a.859.859,0,1,1,1.718,0v6.745A.859.859,0,0,1,235.037,267.626Z" transform="translate(-216.175 -222.431)" fill="#00223d"/>
    <path id="Trazado_67895" data-name="Trazado 67895" d="M255.946,208.649h-2.577a.859.859,0,0,1,0-1.718h2.577a.859.859,0,0,1,0,1.718Z" transform="translate(-224.93 -197.487)" fill="#00223d"/>
    <path id="Trazado_67896" data-name="Trazado 67896" d="M272.843,208.649h-4.99a.859.859,0,0,1,0-1.718h4.99a.859.859,0,0,1,0,1.718Z" transform="translate(-231.847 -197.487)" fill="#00223d"/>
    <path id="Trazado_67897" data-name="Trazado 67897" d="M289.532,208.649h-2.577a.859.859,0,0,1,0-1.718h2.577a.859.859,0,0,1,0,1.718Z" transform="translate(-240.969 -197.487)" fill="#00223d"/>
    <path id="Trazado_67898" data-name="Trazado 67898" d="M273.493,223.249H253.369a.859.859,0,1,1,0-1.718h20.124a.859.859,0,0,1,0,1.718Z" transform="translate(-224.93 -204.459)" fill="#00223d"/>
    <path id="Trazado_67899" data-name="Trazado 67899" d="M273.493,242.907H253.369a.859.859,0,0,1,0-1.718h20.124a.859.859,0,0,1,0,1.718Z" transform="translate(-224.93 -213.847)" fill="#00223d"/>
    <path id="Trazado_67900" data-name="Trazado 67900" d="M273.493,257.507H253.369a.859.859,0,0,1,0-1.718h20.124a.859.859,0,0,1,0,1.718Z" transform="translate(-224.93 -220.819)" fill="#00223d"/>
    <path id="Trazado_67901" data-name="Trazado 67901" d="M273.493,277.166H253.369a.859.859,0,0,1,0-1.718h20.124a.859.859,0,0,1,0,1.718Z" transform="translate(-224.93 -230.208)" fill="#00223d"/>
    <path id="Trazado_67902" data-name="Trazado 67902" d="M273.493,291.765H253.369a.859.859,0,0,1,0-1.718h20.124a.859.859,0,0,1,0,1.718Z" transform="translate(-224.93 -237.179)" fill="#00223d"/>
  </g>
</svg>
