<svg xmlns="http://www.w3.org/2000/svg" xmlns:xlink="http://www.w3.org/1999/xlink" width="1130.906" height="729.34" viewBox="0 0 1130.906 729.34">
  <defs>
    <linearGradient id="linear-gradient" x1="0.353" y1="1.35" x2="0.702" y2="-0.696" gradientUnits="objectBoundingBox">
      <stop offset="0" stop-color="#f5f5f5"/>
      <stop offset="0.25" stop-color="#f5f5f5"/>
      <stop offset="1" stop-color="#afafaf"/>
    </linearGradient>
    <linearGradient id="linear-gradient-2" x1="0.5" y1="0" x2="0.5" y2="1" xlink:href="#linear-gradient"/>
  </defs>
  <g id="Grupo_143430" data-name="Grupo 143430" transform="translate(-234.626 -3603.591)">
    <g id="Grupo_142571" data-name="Grupo 142571" transform="translate(-98.798 3456.27)">
      <rect id="Rect치ngulo_37342" data-name="Rect치ngulo 37342" width="1130.022" height="727.838" rx="4.872" transform="translate(333.763 147.321)" fill="#12263f"/>
      <path id="Trazado_183947" data-name="Trazado 183947" d="M333.763,184.776V756.247c0,9.938-2.715,19.5,7.227,19.5l1116.21-1.3c9.938,0,6.587-8.259,6.587-18.2V184.776Z" transform="translate(0 100.914)" fill="url(#linear-gradient)"/>
      <rect id="Rect치ngulo_37343" data-name="Rect치ngulo 37343" width="39.958" height="1031.381" rx="5.408" transform="translate(1414.465 215.715) rotate(90)" fill="url(#linear-gradient-2)"/>
      <path id="Trazado_183948" data-name="Trazado 183948" d="M374.59,163.543a9.083,9.083,0,1,1-9.081-9.084A9.082,9.082,0,0,1,374.59,163.543Z" transform="translate(61.058 19.231)" fill="#fff"/>
      <path id="Trazado_183951" data-name="Trazado 183951" d="M374.59,163.543a9.083,9.083,0,1,1-9.081-9.084A9.082,9.082,0,0,1,374.59,163.543Z" transform="translate(24.802 19.231)" fill="#ffa726"/>
      <path id="Trazado_183949" data-name="Trazado 183949" d="M384.408,163.543a9.084,9.084,0,1,1-9.084-9.084A9.085,9.085,0,0,1,384.408,163.543Z" transform="translate(87.5 19.231)" fill="#26a69a"/>
    </g>
    <path id="Trazado_188669" data-name="Trazado 188669" d="M-125.433-8.49a2.964,2.964,0,0,1,2.426-1.2,2.956,2.956,0,0,1,2.373.932A4.186,4.186,0,0,1-119.817-6V0h-2.971V-5.933a1.674,1.674,0,0,0-.308-1.112,1.322,1.322,0,0,0-1.046-.356,1.424,1.424,0,0,0-1.292.58V0H-128.4V-13.5h2.962Zm10.714-3.384V-9.51h1.564v2.057h-1.564V-3.1a1.111,1.111,0,0,0,.193.747,1.037,1.037,0,0,0,.765.211,4.345,4.345,0,0,0,.738-.053V-.079a5.466,5.466,0,0,1-1.67.255,3.1,3.1,0,0,1-2.259-.721,2.954,2.954,0,0,1-.729-2.188v-4.72h-1.213V-9.51h1.213v-2.364Zm6.179,0V-9.51h1.564v2.057h-1.564V-3.1a1.111,1.111,0,0,0,.193.747,1.037,1.037,0,0,0,.765.211,4.345,4.345,0,0,0,.738-.053V-.079a5.466,5.466,0,0,1-1.67.255,3.1,3.1,0,0,1-2.259-.721,2.954,2.954,0,0,1-.729-2.188v-4.72h-1.213V-9.51h1.213v-2.364Zm11.558,7.189a5.735,5.735,0,0,1-1,3.538A3.2,3.2,0,0,1-100.674.176a2.742,2.742,0,0,1-2.153-.958V3.656h-2.962V-9.51h2.769l.088.879a2.742,2.742,0,0,1,2.241-1.055,3.224,3.224,0,0,1,2.733,1.3,5.805,5.805,0,0,1,.976,3.564Zm-2.962-.185q0-2.531-1.477-2.531a1.394,1.394,0,0,0-1.406.756V-2.9a1.439,1.439,0,0,0,1.424.791q1.415,0,1.459-2.443Zm6.108,2a1.686,1.686,0,0,1,1.169.417A1.37,1.37,0,0,1-92.2-1.389a1.37,1.37,0,0,1-.466,1.068A1.686,1.686,0,0,1-93.836.1,1.672,1.672,0,0,1-95.01-.325a1.379,1.379,0,0,1-.461-1.063,1.379,1.379,0,0,1,.461-1.063A1.672,1.672,0,0,1-93.836-2.874Zm0-7.014a1.686,1.686,0,0,1,1.169.417A1.37,1.37,0,0,1-92.2-8.4a1.37,1.37,0,0,1-.466,1.068,1.686,1.686,0,0,1-1.169.417,1.672,1.672,0,0,1-1.173-.422A1.379,1.379,0,0,1-95.471-8.4a1.379,1.379,0,0,1,.461-1.063A1.672,1.672,0,0,1-93.836-9.888ZM-89.257,1.1h-2.1l4.368-13.9h2.109Zm4.14,0h-2.1l4.368-13.9h2.109ZM-76.689,0H-79.66V-13.5h2.971Zm1.45-4.843a5.613,5.613,0,0,1,.554-2.536,3.96,3.96,0,0,1,1.591-1.709,4.791,4.791,0,0,1,2.435-.6,4.373,4.373,0,0,1,3.366,1.323,5.076,5.076,0,0,1,1.23,3.6v.105A4.925,4.925,0,0,1-67.3-1.129,4.384,4.384,0,0,1-70.642.176,4.434,4.434,0,0,1-73.9-1.042a4.761,4.761,0,0,1-1.327-3.3Zm2.962.185a3.538,3.538,0,0,0,.413,1.934,1.376,1.376,0,0,0,1.222.615q1.582,0,1.617-2.435v-.3q0-2.558-1.635-2.558-1.485,0-1.608,2.206Zm11.54,2.549a1.317,1.317,0,0,0,.967-.338,1.241,1.241,0,0,0,.334-.945h2.777A3.288,3.288,0,0,1-57.779-.826a4.168,4.168,0,0,1-2.887,1,4.22,4.22,0,0,1-3.27-1.3,5.125,5.125,0,0,1-1.2-3.6v-.123A5.792,5.792,0,0,1-64.6-7.4a3.872,3.872,0,0,1,1.534-1.7,4.573,4.573,0,0,1,2.373-.593,4.116,4.116,0,0,1,2.944,1.028,3.647,3.647,0,0,1,1.09,2.786h-2.777A1.626,1.626,0,0,0-59.8-7a1.244,1.244,0,0,0-.967-.4q-1.151,0-1.345,1.468a10.357,10.357,0,0,0-.062,1.283,4.068,4.068,0,0,0,.343,1.986A1.187,1.187,0,0,0-60.737-2.109ZM-50.049,0a3.344,3.344,0,0,1-.281-.853A2.754,2.754,0,0,1-52.616.176,3.374,3.374,0,0,1-54.9-.637a2.588,2.588,0,0,1-.94-2.043A2.66,2.66,0,0,1-54.7-5.019a5.821,5.821,0,0,1,3.322-.791h.914v-.5q0-1.316-1.134-1.316a.927.927,0,0,0-1.055,1.042h-2.962a2.655,2.655,0,0,1,1.173-2.239,4.931,4.931,0,0,1,2.993-.86,4.323,4.323,0,0,1,2.874.888,3.086,3.086,0,0,1,1.081,2.435v4.21a4.311,4.311,0,0,0,.4,2V0ZM-51.9-1.934a1.652,1.652,0,0,0,.918-.237,1.487,1.487,0,0,0,.523-.536V-4.228h-.861q-1.547,0-1.547,1.389a.848.848,0,0,0,.272.655A.986.986,0,0,0-51.9-1.934ZM-42.728,0H-45.7V-13.5h2.971Zm4.72-8.49a2.964,2.964,0,0,1,2.426-1.2,2.956,2.956,0,0,1,2.373.932A4.186,4.186,0,0,1-32.392-6V0h-2.971V-5.933a1.674,1.674,0,0,0-.308-1.112A1.322,1.322,0,0,0-36.716-7.4a1.424,1.424,0,0,0-1.292.58V0H-40.97V-13.5h2.962Zm6.891,3.647a5.613,5.613,0,0,1,.554-2.536,3.96,3.96,0,0,1,1.591-1.709,4.791,4.791,0,0,1,2.435-.6,4.373,4.373,0,0,1,3.366,1.323,5.076,5.076,0,0,1,1.23,3.6v.105a4.925,4.925,0,0,1-1.235,3.529A4.384,4.384,0,0,1-26.521.176a4.434,4.434,0,0,1-3.261-1.217,4.761,4.761,0,0,1-1.327-3.3Zm2.962.185a3.538,3.538,0,0,0,.413,1.934,1.376,1.376,0,0,0,1.222.615q1.582,0,1.617-2.435v-.3q0-2.558-1.635-2.558-1.485,0-1.608,2.206Zm12.5,1.986a.684.684,0,0,0-.4-.606,6.016,6.016,0,0,0-1.5-.475A6.853,6.853,0,0,1-19.384-4.4a3.062,3.062,0,0,1-1.1-.971,2.319,2.319,0,0,1-.378-1.31A2.628,2.628,0,0,1-19.78-8.837a4.453,4.453,0,0,1,2.83-.848,4.934,4.934,0,0,1,3.023.853,2.666,2.666,0,0,1,1.143,2.241h-2.971q0-1.143-1.2-1.143a1.194,1.194,0,0,0-.782.259.8.8,0,0,0-.316.646.737.737,0,0,0,.387.642,3.654,3.654,0,0,0,1.235.4,10.671,10.671,0,0,1,1.49.378A2.706,2.706,0,0,1-12.8-2.76,2.491,2.491,0,0,1-13.957-.642,5.068,5.068,0,0,1-16.95.176a5.172,5.172,0,0,1-2.18-.439,3.645,3.645,0,0,1-1.494-1.2A2.707,2.707,0,0,1-21.16-3.05h2.769a1.145,1.145,0,0,0,.439.962,1.808,1.808,0,0,0,1.081.3,1.422,1.422,0,0,0,.91-.246A.787.787,0,0,0-15.658-2.672Zm7.69-9.2V-9.51H-6.4v2.057H-7.967V-3.1a1.111,1.111,0,0,0,.193.747,1.037,1.037,0,0,0,.765.211A4.345,4.345,0,0,0-6.271-2.2V-.079a5.466,5.466,0,0,1-1.67.255A3.1,3.1,0,0,1-10.2-.545a2.954,2.954,0,0,1-.729-2.188v-4.72h-1.213V-9.51h1.213v-2.364ZM-4.223,1.1h-2.1l4.368-13.9H.154ZM4.3-4.342V0H1.217V-12.8H6.324a5.948,5.948,0,0,1,2.6.541,4.074,4.074,0,0,1,1.749,1.538,4.2,4.2,0,0,1,.62,2.263,3.7,3.7,0,0,1-1.34,2.993A5.561,5.561,0,0,1,6.271-4.342Zm0-2.382H6.324A1.906,1.906,0,0,0,7.69-7.172a1.665,1.665,0,0,0,.47-1.266A2.059,2.059,0,0,0,7.677-9.87a1.712,1.712,0,0,0-1.318-.545H4.3ZM15.693-8.49a2.964,2.964,0,0,1,2.426-1.2,2.956,2.956,0,0,1,2.373.932A4.186,4.186,0,0,1,21.309-6V0H18.338V-5.933a1.674,1.674,0,0,0-.308-1.112A1.322,1.322,0,0,0,16.985-7.4a1.424,1.424,0,0,0-1.292.58V0H12.731V-13.5h2.962ZM31.786-4.685a5.735,5.735,0,0,1-1,3.538A3.2,3.2,0,0,1,28.094.176a2.742,2.742,0,0,1-2.153-.958V3.656H22.979V-9.51h2.769l.088.879a2.742,2.742,0,0,1,2.241-1.055,3.224,3.224,0,0,1,2.733,1.3,5.805,5.805,0,0,1,.976,3.564Zm-2.962-.185q0-2.531-1.477-2.531a1.394,1.394,0,0,0-1.406.756V-2.9a1.439,1.439,0,0,0,1.424.791q1.415,0,1.459-2.443ZM39.608,0H36.637V-9.457L33.719-8.6v-2.25L39.335-12.8h.272ZM44.53,1.1h-2.1L46.8-12.8h2.109ZM52.958,0H49.988V-9.51h2.971ZM49.812-11.971a1.334,1.334,0,0,1,.457-1.043,1.718,1.718,0,0,1,1.187-.407,1.718,1.718,0,0,1,1.187.407,1.334,1.334,0,0,1,.457,1.043,1.334,1.334,0,0,1-.457,1.043,1.718,1.718,0,0,1-1.187.407,1.718,1.718,0,0,1-1.187-.407A1.334,1.334,0,0,1,49.812-11.971ZM57.5-9.51l.1,1.116a3.225,3.225,0,0,1,2.716-1.292,2.713,2.713,0,0,1,2.219.888,4.226,4.226,0,0,1,.76,2.672V0H60.324V-6a1.6,1.6,0,0,0-.29-1.059A1.342,1.342,0,0,0,58.979-7.4a1.413,1.413,0,0,0-1.292.686V0H54.725V-9.51ZM64.56-4.825a5.809,5.809,0,0,1,.976-3.56,3.211,3.211,0,0,1,2.725-1.3,2.731,2.731,0,0,1,2.145,1V-13.5h2.971V0H70.712l-.149-1.02a2.8,2.8,0,0,1-2.32,1.2,3.205,3.205,0,0,1-2.689-1.3A5.993,5.993,0,0,1,64.56-4.825Zm2.962.185q0,2.531,1.477,2.531A1.458,1.458,0,0,0,70.4-2.936V-6.557A1.419,1.419,0,0,0,69.016-7.4q-1.371,0-1.485,2.215ZM79.66.176a4.889,4.889,0,0,1-3.542-1.305,4.507,4.507,0,0,1-1.354-3.4v-.246A5.84,5.84,0,0,1,75.3-7.348a3.955,3.955,0,0,1,1.578-1.727,4.763,4.763,0,0,1,2.461-.611,4.117,4.117,0,0,1,3.164,1.244,4.887,4.887,0,0,1,1.16,3.467v1.151H77.779a2.135,2.135,0,0,0,.694,1.257,2.066,2.066,0,0,0,1.389.457,2.662,2.662,0,0,0,2.2-.984l1.354,1.6A3.784,3.784,0,0,1,81.844-.277,5.3,5.3,0,0,1,79.66.176ZM79.326-7.4q-1.3,0-1.547,1.723h2.988v-.229a1.467,1.467,0,0,0-.36-1.1A1.434,1.434,0,0,0,79.326-7.4Zm9.387.51,1.38-2.619h3.076l-2.5,4.632L93.292,0H90.2L88.7-2.812,87.236,0H84.125l2.637-4.878-2.5-4.632h3.111Zm7.242,4.017a1.686,1.686,0,0,1,1.169.417,1.37,1.37,0,0,1,.466,1.068,1.37,1.37,0,0,1-.466,1.068A1.686,1.686,0,0,1,95.955.1a1.672,1.672,0,0,1-1.173-.422,1.379,1.379,0,0,1-.461-1.063,1.379,1.379,0,0,1,.461-1.063A1.672,1.672,0,0,1,95.955-2.874Zm12.437-1.811a5.735,5.735,0,0,1-1,3.538A3.2,3.2,0,0,1,104.7.176a2.742,2.742,0,0,1-2.153-.958V3.656H99.584V-9.51h2.769l.088.879a2.742,2.742,0,0,1,2.241-1.055,3.224,3.224,0,0,1,2.733,1.3,5.805,5.805,0,0,1,.976,3.564Zm-2.962-.185q0-2.531-1.477-2.531a1.394,1.394,0,0,0-1.406.756V-2.9a1.439,1.439,0,0,0,1.424.791q1.415,0,1.459-2.443Zm7.163-3.621a2.964,2.964,0,0,1,2.426-1.2,2.956,2.956,0,0,1,2.373.932A4.186,4.186,0,0,1,118.208-6V0h-2.971V-5.933a1.674,1.674,0,0,0-.308-1.112,1.322,1.322,0,0,0-1.046-.356,1.424,1.424,0,0,0-1.292.58V0H109.63V-13.5h2.962Zm16.093,3.806a5.735,5.735,0,0,1-1,3.538A3.2,3.2,0,0,1,124.994.176a2.742,2.742,0,0,1-2.153-.958V3.656h-2.962V-9.51h2.769l.088.879a2.742,2.742,0,0,1,2.241-1.055,3.224,3.224,0,0,1,2.733,1.3,5.805,5.805,0,0,1,.976,3.564Zm-2.962-.185q0-2.531-1.477-2.531a1.394,1.394,0,0,0-1.406.756V-2.9a1.439,1.439,0,0,0,1.424.791q1.415,0,1.459-2.443Z" transform="translate(457.035 3698)" fill="#12263f"/>
    <g id="XphvSP" transform="translate(152.453 3499.031)">
      <g id="Grupo_142580" data-name="Grupo 142580" transform="translate(138.137 179.237)">
        <path id="Trazado_183952" data-name="Trazado 183952" d="M164.582,192.493a13.223,13.223,0,1,1-13.215-13.256A13.239,13.239,0,0,1,164.582,192.493Zm-24.952.718a11.249,11.249,0,0,0,.871,3.82,12.054,12.054,0,0,0,1.625,2.739.368.368,0,0,0,.505.13c.859-.312,1.72-.618,2.581-.927.066-.024.129-.054.19-.079-.078-.34-.144-.663-.227-.982a20.1,20.1,0,0,1-.659-4.431c-.008-.228-.084-.29-.309-.289-1.433.009-2.866,0-4.3,0C139.828,193.2,139.747,193.205,139.63,193.211Zm20.65,6.921a11.619,11.619,0,0,0,2.813-6.887c-.056-.024-.081-.043-.105-.043q-2.273,0-4.545-.006c-.146,0-.187.066-.192.2-.008.257-.027.513-.047.77a19.869,19.869,0,0,1-.773,4.319,2.663,2.663,0,0,0-.063.342Zm.058-15.258a13.3,13.3,0,0,1-2.78,1.331.533.533,0,0,0,0,.106,22.2,22.2,0,0,1,.7,5.2c0,.215.109.231.276.23,1.434,0,2.867,0,4.3,0,.078,0,.156-.013.255-.022A11.744,11.744,0,0,0,160.338,184.874Zm-15.861,6.85a24.051,24.051,0,0,1,.751-5.536l-.215-.075c-.853-.311-1.71-.614-2.558-.939-.187-.072-.283-.061-.407.1a11.894,11.894,0,0,0-2.319,5.441c-.051.329-.073.664-.109,1.006Zm2.338,6.822.269-.041c1.091-.151,2.182-.31,3.275-.445.21-.026.277-.076.276-.292q-.014-2.151,0-4.3c0-.2-.046-.274-.26-.272q-2.082.013-4.164,0c-.219,0-.269.075-.244.275.111.921.183,1.848.332,2.762C146.425,197.005,146.638,197.766,146.815,198.545Zm9.12-.1a20.349,20.349,0,0,0,.856-5.235c-.082-.008-.126-.015-.17-.015-1.433,0-2.866,0-4.3-.005-.237,0-.24.117-.239.291,0,1.415,0,2.829,0,4.244,0,.087.012.175.017.258.66.055,1.293.09,1.92.166S155.272,198.344,155.935,198.448Zm-10.011-6.735a1.463,1.463,0,0,0,.167.027c1.443,0,2.886,0,4.329.006.207,0,.212-.11.212-.263,0-.965,0-1.93,0-2.9,0-.485,0-.969,0-1.481-.449-.038-.871-.053-1.286-.114q-1.222-.179-2.437-.4c-.2-.038-.285,0-.319.2-.173,1.013-.374,2.022-.521,3.039C145.979,190.445,145.971,191.072,145.925,191.713Zm10.871.011a18.707,18.707,0,0,0-.687-5.031l-4.024.5c0,1.4.005,2.835-.005,4.267,0,.232.07.295.3.293,1.388-.009,2.776,0,4.165-.005C156.621,191.742,156.7,191.731,156.8,191.724Zm-4.681-10.946a1.553,1.553,0,0,0-.029.184c0,1.5,0,3-.005,4.494,0,.21.107.216.261.2.65-.052,1.3-.078,1.949-.157.458-.056.908-.182,1.393-.283a11.122,11.122,0,0,0-1.379-2.7,4.806,4.806,0,0,0-1.6-1.489C152.525,180.936,152.328,180.869,152.115,180.778Zm-1.5.058c-1.414.277-2.836,2.342-3.484,4.3a15.963,15.963,0,0,0,3.484.5Zm1.488,22.756c1.063-.068,2.953-2.214,3.28-3.709a11,11,0,0,0-3.28-.353Zm-1.489.052V199.47l-3.268.439C148.1,201.5,148.878,202.947,150.61,203.644Zm-7.228-2.524a11.417,11.417,0,0,0,4.7,2.626,11.349,11.349,0,0,1-2.172-3.471Zm13.487-.907a11.55,11.55,0,0,1-2.172,3.513,11.305,11.305,0,0,0,4.513-2.5Zm-9.4-18.854a11.69,11.69,0,0,0-4.235,2.606c.774.262,1.48.493,2.179.743.208.074.285.017.359-.179a11.767,11.767,0,0,1,1.609-3A1.554,1.554,0,0,0,147.471,181.358Zm7.873.076a13.913,13.913,0,0,1,1.769,3.408l2.232-1A11.136,11.136,0,0,0,155.344,181.434Z" transform="translate(-138.137 -179.237)" fill="#12263f"/>
      </g>
    </g>
    <g id="Trazado_188665" data-name="Trazado 188665" transform="translate(235.035 3742)" fill="#fff">
      <path d="M 564.5 41.5 L 0.5 41.5 L 0.5 0.5 L 564.5 0.5 L 564.5 41.5 Z" stroke="none"/>
      <path d="M 1 1 L 1 41 L 564 41 L 564 1 L 1 1 M 0 0 L 565 0 L 565 42 L 0 42 L 0 0 Z" stroke="none" fill="#707070"/>
    </g>
    <g id="Trazado_188666" data-name="Trazado 188666" transform="translate(800.035 3742)" fill="#fff">
      <path d="M 564.5 41.5 L 0.5 41.5 L 0.5 0.5 L 564.5 0.5 L 564.5 41.5 Z" stroke="none"/>
      <path d="M 1 1 L 1 41 L 564 41 L 564 1 L 1 1 M 0 0 L 565 0 L 565 42 L 0 42 L 0 0 Z" stroke="none" fill="#707070"/>
    </g>
    <path id="Trazado_188667" data-name="Trazado 188667" d="M11.8-6.135a7.546,7.546,0,0,1-.694,3.313A5.132,5.132,0,0,1,9.136-.6,5.494,5.494,0,0,1,6.223.176a5.572,5.572,0,0,1-2.9-.751A5.123,5.123,0,0,1,1.349-2.725,7.329,7.329,0,0,1,.606-5.933v-.721A7.58,7.58,0,0,1,1.3-9.971,5.119,5.119,0,0,1,3.274-12.19a5.533,5.533,0,0,1,2.931-.782,5.479,5.479,0,0,1,2.9.773A5.211,5.211,0,0,1,11.087-10,7.362,7.362,0,0,1,11.8-6.724ZM8.666-6.671a5.381,5.381,0,0,0-.637-2.9,2.044,2.044,0,0,0-1.824-.989q-2.32,0-2.452,3.48l-.009.94a5.535,5.535,0,0,0,.624,2.892A2.041,2.041,0,0,0,6.223-2.232a2.016,2.016,0,0,0,1.8-.993,5.383,5.383,0,0,0,.642-2.856Zm13.421,2a5.8,5.8,0,0,1-.967,3.595A3.238,3.238,0,0,1,18.4.176,2.81,2.81,0,0,1,16.058-.976L15.935,0H13.28V-13.5h2.962v4.755a2.711,2.711,0,0,1,2.136-.94A3.239,3.239,0,0,1,21.12-8.411a5.826,5.826,0,0,1,.967,3.586Zm-2.971-.189a3.866,3.866,0,0,0-.365-1.952A1.229,1.229,0,0,0,17.631-7.4a1.418,1.418,0,0,0-1.389.763v3.773a1.426,1.426,0,0,0,1.406.755,1.258,1.258,0,0,0,1.327-1.018A7.309,7.309,0,0,0,19.116-4.865ZM26.578-9.51V.325a3.452,3.452,0,0,1-.967,2.6,3.714,3.714,0,0,1-2.672.914,6.308,6.308,0,0,1-1.4-.149V1.45a5.667,5.667,0,0,0,.835.079A1.084,1.084,0,0,0,23.607.308V-9.51Zm-3.19-2.461a1.334,1.334,0,0,1,.457-1.043,1.718,1.718,0,0,1,1.187-.407,1.718,1.718,0,0,1,1.187.407,1.334,1.334,0,0,1,.457,1.043,1.334,1.334,0,0,1-.457,1.043,1.718,1.718,0,0,1-1.187.407,1.718,1.718,0,0,1-1.187-.407A1.334,1.334,0,0,1,23.388-11.971ZM32.854.176a4.889,4.889,0,0,1-3.542-1.305,4.507,4.507,0,0,1-1.354-3.4v-.246A5.84,5.84,0,0,1,28.5-7.348a3.955,3.955,0,0,1,1.578-1.727,4.763,4.763,0,0,1,2.461-.611A4.117,4.117,0,0,1,35.7-8.442a4.887,4.887,0,0,1,1.16,3.467v1.151H30.973a2.135,2.135,0,0,0,.694,1.257,2.066,2.066,0,0,0,1.389.457,2.662,2.662,0,0,0,2.2-.984l1.354,1.6A3.784,3.784,0,0,1,35.038-.277,5.3,5.3,0,0,1,32.854.176ZM32.52-7.4q-1.3,0-1.547,1.723h2.988v-.229a1.467,1.467,0,0,0-.36-1.1A1.434,1.434,0,0,0,32.52-7.4ZM41.5-11.874V-9.51h1.564v2.057H41.5V-3.1a1.111,1.111,0,0,0,.193.747,1.037,1.037,0,0,0,.765.211A4.345,4.345,0,0,0,43.2-2.2V-.079a5.466,5.466,0,0,1-1.67.255A3.1,3.1,0,0,1,39.27-.545a2.954,2.954,0,0,1-.729-2.188v-4.72H37.327V-9.51H38.54v-2.364Zm2.092,7.031a5.613,5.613,0,0,1,.554-2.536,3.96,3.96,0,0,1,1.591-1.709,4.791,4.791,0,0,1,2.435-.6,4.373,4.373,0,0,1,3.366,1.323,5.076,5.076,0,0,1,1.23,3.6v.105a4.925,4.925,0,0,1-1.235,3.529A4.384,4.384,0,0,1,48.19.176,4.434,4.434,0,0,1,44.93-1.042a4.761,4.761,0,0,1-1.327-3.3Zm2.962.185a3.538,3.538,0,0,0,.413,1.934,1.376,1.376,0,0,0,1.222.615q1.582,0,1.617-2.435v-.3q0-2.558-1.635-2.558-1.485,0-1.608,2.206Zm12.5,1.986a.684.684,0,0,0-.4-.606,6.016,6.016,0,0,0-1.5-.475A6.853,6.853,0,0,1,55.327-4.4a3.062,3.062,0,0,1-1.1-.971,2.319,2.319,0,0,1-.378-1.31,2.628,2.628,0,0,1,1.081-2.158,4.453,4.453,0,0,1,2.83-.848,4.934,4.934,0,0,1,3.023.853,2.666,2.666,0,0,1,1.143,2.241H58.957q0-1.143-1.2-1.143a1.194,1.194,0,0,0-.782.259.8.8,0,0,0-.316.646.737.737,0,0,0,.387.642,3.654,3.654,0,0,0,1.235.4,10.671,10.671,0,0,1,1.49.378A2.706,2.706,0,0,1,61.91-2.76,2.491,2.491,0,0,1,60.754-.642a5.068,5.068,0,0,1-2.993.817,5.172,5.172,0,0,1-2.18-.439,3.645,3.645,0,0,1-1.494-1.2,2.707,2.707,0,0,1-.536-1.591H56.32a1.145,1.145,0,0,0,.439.962,1.808,1.808,0,0,0,1.081.3,1.422,1.422,0,0,0,.91-.246A.787.787,0,0,0,59.054-2.672ZM72.378.176a4.889,4.889,0,0,1-3.542-1.305,4.507,4.507,0,0,1-1.354-3.4v-.246a5.84,5.84,0,0,1,.541-2.575A3.955,3.955,0,0,1,69.6-9.075a4.763,4.763,0,0,1,2.461-.611,4.117,4.117,0,0,1,3.164,1.244,4.887,4.887,0,0,1,1.16,3.467v1.151H70.5a2.135,2.135,0,0,0,.694,1.257,2.066,2.066,0,0,0,1.389.457,2.662,2.662,0,0,0,2.2-.984l1.354,1.6A3.784,3.784,0,0,1,74.562-.277,5.3,5.3,0,0,1,72.378.176ZM72.044-7.4q-1.3,0-1.547,1.723h2.988v-.229a1.467,1.467,0,0,0-.36-1.1A1.434,1.434,0,0,0,72.044-7.4ZM80.3-9.51l.1,1.116a3.225,3.225,0,0,1,2.716-1.292,2.713,2.713,0,0,1,2.219.888,4.226,4.226,0,0,1,.76,2.672V0H83.118V-6a1.6,1.6,0,0,0-.29-1.059A1.342,1.342,0,0,0,81.773-7.4a1.413,1.413,0,0,0-1.292.686V0H77.52V-9.51ZM95.432-4.342V0H92.347V-12.8h5.106a5.948,5.948,0,0,1,2.6.541,4.074,4.074,0,0,1,1.749,1.538,4.2,4.2,0,0,1,.62,2.263,3.7,3.7,0,0,1-1.34,2.993A5.561,5.561,0,0,1,97.4-4.342Zm0-2.382h2.021a1.906,1.906,0,0,0,1.367-.448,1.665,1.665,0,0,0,.47-1.266,2.059,2.059,0,0,0-.483-1.433,1.712,1.712,0,0,0-1.318-.545H95.432ZM114.759,0h-3.067V-5.344h-4.544V0h-3.085V-12.8h3.085v5.08h4.544V-12.8h3.067Zm5.036-4.342V0H116.71V-12.8h5.106a5.948,5.948,0,0,1,2.6.541,4.074,4.074,0,0,1,1.749,1.538,4.2,4.2,0,0,1,.62,2.263,3.7,3.7,0,0,1-1.34,2.993,5.561,5.561,0,0,1-3.678,1.121Zm0-2.382h2.021a1.906,1.906,0,0,0,1.367-.448,1.665,1.665,0,0,0,.47-1.266,2.059,2.059,0,0,0-.483-1.433,1.712,1.712,0,0,0-1.318-.545h-2.057Z" transform="translate(279.035 3769.5)" fill="#12263f"/>
    <path id="Trazado_188663" data-name="Trazado 188663" d="M57.707-29.992a36.893,36.893,0,0,1-3.395,16.2,25.088,25.088,0,0,1-9.646,10.85A26.861,26.861,0,0,1,30.422.859a27.24,27.24,0,0,1-14.18-3.674A25.046,25.046,0,0,1,6.6-13.32,35.832,35.832,0,0,1,2.965-29v-3.523A37.056,37.056,0,0,1,6.338-48.748,25.026,25.026,0,0,1,16.006-59.6a27.048,27.048,0,0,1,14.33-3.824,26.785,26.785,0,0,1,14.18,3.781,25.477,25.477,0,0,1,9.689,10.764,35.992,35.992,0,0,1,3.5,16.006Zm-15.34-2.621q0-9.324-3.115-14.158a9.992,9.992,0,0,0-8.916-4.834q-11.344,0-11.988,17.016l-.043,4.6q0,9.2,3.051,14.137a9.977,9.977,0,0,0,9.066,4.941A9.857,9.857,0,0,0,39.23-15.77q3.094-4.855,3.137-13.965Zm65.613,9.754q0,11.43-4.727,17.574T89.934.859A13.738,13.738,0,0,1,78.5-4.77L77.9,0H64.926V-66h14.48v23.246a13.255,13.255,0,0,1,10.441-4.6q8.68,0,13.406,6.23T107.98-23.59Zm-14.523-.923q0-6.692-1.783-9.544A6.011,6.011,0,0,0,86.2-36.18q-4.9,0-6.789,3.732V-14q1.848,3.689,6.875,3.689a6.149,6.149,0,0,0,6.488-4.976A35.733,35.733,0,0,0,93.457-23.783Zm36.48-22.71V1.59q-.043,8.25-4.727,12.719t-13.062,4.469a30.839,30.839,0,0,1-6.832-.73V7.09a27.705,27.705,0,0,0,4.082.387q6.016,0,6.016-5.973v-48Zm-15.6-12.031a6.52,6.52,0,0,1,2.234-5.1,8.4,8.4,0,0,1,5.8-1.989,8.4,8.4,0,0,1,5.8,1.989,6.52,6.52,0,0,1,2.234,5.1,6.52,6.52,0,0,1-2.234,5.1,8.4,8.4,0,0,1-5.8,1.989,8.4,8.4,0,0,1-5.8-1.989A6.52,6.52,0,0,1,114.34-58.523ZM160.617.859q-10.7,0-17.316-6.381t-6.617-16.607v-1.2a28.552,28.552,0,0,1,2.643-12.59,19.336,19.336,0,0,1,7.713-8.443,23.284,23.284,0,0,1,12.031-2.986q9.8,0,15.469,6.08t5.672,16.951v5.629H151.422a10.437,10.437,0,0,0,3.395,6.145,10.1,10.1,0,0,0,6.789,2.234q6.875,0,10.742-4.812l6.617,7.82a18.5,18.5,0,0,1-7.67,5.951A25.919,25.919,0,0,1,160.617.859ZM158.984-36.18q-6.359,0-7.562,8.422h14.609v-1.117a7.173,7.173,0,0,0-1.762-5.393A7.01,7.01,0,0,0,158.984-36.18ZM202.9-58.051v11.559h7.648v10.055H202.9v21.27a5.431,5.431,0,0,0,.945,3.652q.945,1.031,3.738,1.031a21.243,21.243,0,0,0,3.609-.258V-.387A26.724,26.724,0,0,1,203.027.859q-7.477,0-11.043-3.523t-3.566-10.7V-36.437h-5.93V-46.492h5.93V-58.051Zm10.227,34.375a27.44,27.44,0,0,1,2.707-12.4,19.359,19.359,0,0,1,7.777-8.357,23.423,23.423,0,0,1,11.9-2.922q10.441,0,16.457,6.467t6.016,17.6v.516q0,10.871-6.037,17.252T235.6.859q-9.926,0-15.941-5.951t-6.488-16.135Zm14.48.9q0,6.445,2.02,9.453a6.728,6.728,0,0,0,5.973,3.008q7.734,0,7.906-11.9v-1.461q0-12.5-7.992-12.5-7.262,0-7.863,10.785Zm61.1,9.711a3.345,3.345,0,0,0-1.934-2.965,29.412,29.412,0,0,0-7.348-2.32,33.505,33.505,0,0,1-8.937-3.158,14.971,14.971,0,0,1-5.371-4.748,11.338,11.338,0,0,1-1.848-6.4,12.85,12.85,0,0,1,5.285-10.549q5.285-4.146,13.836-4.146,9.2,0,14.781,4.168a13.034,13.034,0,0,1,5.586,10.957H288.234q0-5.586-5.887-5.586a5.835,5.835,0,0,0-3.824,1.268,3.925,3.925,0,0,0-1.547,3.158,3.6,3.6,0,0,0,1.891,3.137,17.864,17.864,0,0,0,6.037,1.977,52.171,52.171,0,0,1,7.283,1.848q10.484,3.609,10.484,12.934,0,6.359-5.65,10.355t-14.631,4a25.286,25.286,0,0,1-10.656-2.148,17.819,17.819,0,0,1-7.3-5.844,13.233,13.233,0,0,1-2.621-7.777h13.535a5.6,5.6,0,0,0,2.148,4.705,8.837,8.837,0,0,0,5.285,1.482,6.952,6.952,0,0,0,4.447-1.2A3.849,3.849,0,0,0,288.707-13.062ZM353.848.859q-10.7,0-17.316-6.381t-6.617-16.607v-1.2a28.552,28.552,0,0,1,2.643-12.59,19.336,19.336,0,0,1,7.713-8.443A23.284,23.284,0,0,1,352.3-47.352q9.8,0,15.469,6.08t5.672,16.951v5.629H344.652a10.437,10.437,0,0,0,3.395,6.145,10.1,10.1,0,0,0,6.789,2.234q6.875,0,10.742-4.812L372.2-7.3a18.5,18.5,0,0,1-7.67,5.951A25.919,25.919,0,0,1,353.848.859ZM352.215-36.18q-6.359,0-7.562,8.422h14.609v-1.117a7.173,7.173,0,0,0-1.762-5.393A7.01,7.01,0,0,0,352.215-36.18Zm40.348-10.312.473,5.457q4.813-6.316,13.277-6.316,7.262,0,10.85,4.34t3.717,13.063V0H406.355V-29.348q0-3.523-1.418-5.178t-5.156-1.654a6.906,6.906,0,0,0-6.316,3.352V0h-14.48V-46.492Zm73.992,25.266V0H451.473V-62.562h24.965a29.077,29.077,0,0,1,12.7,2.643,19.915,19.915,0,0,1,8.551,7.52,20.536,20.536,0,0,1,3.029,11.064q0,9.152-6.553,14.631T476.18-21.227Zm0-11.645h9.883q4.383,0,6.682-2.191a8.142,8.142,0,0,0,2.3-6.187,10.064,10.064,0,0,0-2.363-7,8.368,8.368,0,0,0-6.445-2.664H466.555ZM561.043,0h-15V-26.125H523.832V0H508.75V-62.562h15.082v24.836h22.215V-62.562h15Zm24.621-21.227V0H570.582V-62.562h24.965a29.077,29.077,0,0,1,12.7,2.643,19.915,19.915,0,0,1,8.551,7.52,20.536,20.536,0,0,1,3.029,11.064q0,9.152-6.553,14.631t-17.982,5.479Zm0-11.645h9.883q4.383,0,6.682-2.191a8.142,8.142,0,0,0,2.3-6.187,10.064,10.064,0,0,0-2.363-7,8.368,8.368,0,0,0-6.445-2.664H585.664Z" transform="translate(280.035 3929)" fill="#12263f"/>
    <path id="Trazado_188664" data-name="Trazado 188664" d="M14.531-9.858H5.288V-2.3H16.025V0H2.476V-21.328h13.4v2.3H5.288v6.87h9.243ZM22.046,0h-2.71V-22.5h2.71ZM33.091-8.071a9.362,9.362,0,0,1,.916-4.189,6.83,6.83,0,0,1,2.549-2.871,6.938,6.938,0,0,1,3.728-1.011A6.684,6.684,0,0,1,45.52-13.9a8.623,8.623,0,0,1,2,5.962v.19A9.443,9.443,0,0,1,46.633-3.6,6.729,6.729,0,0,1,44.1-.732,7.018,7.018,0,0,1,40.313.293,6.667,6.667,0,0,1,35.09-1.948a8.579,8.579,0,0,1-2-5.933Zm2.725.322a6.781,6.781,0,0,0,1.223,4.233,3.914,3.914,0,0,0,3.274,1.6,3.891,3.891,0,0,0,3.281-1.619A7.415,7.415,0,0,0,44.81-8.071,6.769,6.769,0,0,0,43.572-12.3a3.935,3.935,0,0,0-3.289-1.619,3.891,3.891,0,0,0-3.237,1.6A7.36,7.36,0,0,0,35.815-7.749Zm28.521,0a9.424,9.424,0,0,1-1.67,5.837,5.336,5.336,0,0,1-4.482,2.2A5.525,5.525,0,0,1,53.54-1.831L53.408,0h-2.49V-22.5h2.71v8.394a5.494,5.494,0,0,1,4.526-2.036,5.368,5.368,0,0,1,4.534,2.183,9.707,9.707,0,0,1,1.648,5.977Zm-2.71-.308a7.323,7.323,0,0,0-1.069-4.277,3.54,3.54,0,0,0-3.076-1.509,3.979,3.979,0,0,0-3.853,2.49V-4.5a4.09,4.09,0,0,0,3.882,2.49,3.52,3.52,0,0,0,3.032-1.509A7.787,7.787,0,0,0,61.626-8.057Zm8.921-7.793V1.831q0,4.57-4.146,4.57a5.056,5.056,0,0,1-1.655-.262V3.984a5.239,5.239,0,0,0,1.23.117,1.841,1.841,0,0,0,1.384-.491A2.429,2.429,0,0,0,67.837,1.9V-15.85Zm-2.988-4.2a1.625,1.625,0,0,1,.4-1.106,1.481,1.481,0,0,1,1.179-.461,1.536,1.536,0,0,1,1.2.454,1.6,1.6,0,0,1,.41,1.113,1.548,1.548,0,0,1-.41,1.1,1.564,1.564,0,0,1-1.2.439,1.516,1.516,0,0,1-1.187-.439A1.581,1.581,0,0,1,67.559-20.054ZM81.489.293a6.925,6.925,0,0,1-5.244-2.117,7.856,7.856,0,0,1-2.021-5.662v-.5a9.511,9.511,0,0,1,.9-4.211,7.028,7.028,0,0,1,2.52-2.9,6.335,6.335,0,0,1,3.508-1.047,5.936,5.936,0,0,1,4.8,2.036,8.816,8.816,0,0,1,1.714,5.83v1.128H76.934A5.634,5.634,0,0,0,78.3-3.362a4.305,4.305,0,0,0,3.333,1.443A4.72,4.72,0,0,0,84.067-2.5a6.11,6.11,0,0,0,1.743-1.553l1.655,1.289A6.656,6.656,0,0,1,81.489.293Zm-.337-14.209A3.615,3.615,0,0,0,78.4-12.722a5.8,5.8,0,0,0-1.377,3.347h7.939V-9.58a5.162,5.162,0,0,0-1.113-3.2A3.4,3.4,0,0,0,81.152-13.916Zm13.33-5.771v3.838h2.959v2.095H94.482v9.841a2.2,2.2,0,0,0,.4,1.43,1.665,1.665,0,0,0,1.348.477,6.561,6.561,0,0,0,1.289-.176V0a7.9,7.9,0,0,1-2.08.291A3.375,3.375,0,0,1,92.7-.806a4.72,4.72,0,0,1-.923-3.12v-9.829H88.887V-15.85h2.886v-3.838ZM99.595-8.071a9.362,9.362,0,0,1,.916-4.189,6.83,6.83,0,0,1,2.549-2.871,6.938,6.938,0,0,1,3.728-1.011,6.684,6.684,0,0,1,5.237,2.241,8.623,8.623,0,0,1,2,5.962v.19a9.443,9.443,0,0,1-.886,4.153A6.729,6.729,0,0,1,110.6-.732,7.018,7.018,0,0,1,106.816.293a6.667,6.667,0,0,1-5.222-2.241,8.579,8.579,0,0,1-2-5.933Zm2.725.322a6.781,6.781,0,0,0,1.223,4.233,3.914,3.914,0,0,0,3.274,1.6A3.891,3.891,0,0,0,110.1-3.538a7.415,7.415,0,0,0,1.216-4.534,6.769,6.769,0,0,0-1.238-4.226,3.935,3.935,0,0,0-3.289-1.619,3.891,3.891,0,0,0-3.237,1.6A7.36,7.36,0,0,0,102.319-7.749Zm29.238-.322a9.362,9.362,0,0,1,.916-4.189,6.83,6.83,0,0,1,2.549-2.871,6.938,6.938,0,0,1,3.728-1.011,6.684,6.684,0,0,1,5.237,2.241,8.623,8.623,0,0,1,2,5.962v.19A9.443,9.443,0,0,1,145.1-3.6a6.729,6.729,0,0,1-2.534,2.864A7.018,7.018,0,0,1,138.779.293a6.667,6.667,0,0,1-5.222-2.241,8.579,8.579,0,0,1-2-5.933Zm2.725.322a6.781,6.781,0,0,0,1.223,4.233,3.914,3.914,0,0,0,3.274,1.6,3.891,3.891,0,0,0,3.281-1.619,7.415,7.415,0,0,0,1.216-4.534,6.769,6.769,0,0,0-1.238-4.226,3.935,3.935,0,0,0-3.289-1.619,3.891,3.891,0,0,0-3.237,1.6A7.36,7.36,0,0,0,134.282-7.749Zm28.521,0a9.424,9.424,0,0,1-1.67,5.837,5.336,5.336,0,0,1-4.482,2.2,5.525,5.525,0,0,1-4.644-2.124L151.875,0h-2.49V-22.5h2.71v8.394a5.494,5.494,0,0,1,4.526-2.036,5.368,5.368,0,0,1,4.534,2.183A9.707,9.707,0,0,1,162.8-7.983Zm-2.71-.308a7.323,7.323,0,0,0-1.069-4.277,3.54,3.54,0,0,0-3.076-1.509,3.979,3.979,0,0,0-3.853,2.49V-4.5a4.09,4.09,0,0,0,3.882,2.49,3.52,3.52,0,0,0,3.032-1.509A7.787,7.787,0,0,0,160.093-8.057Zm8.921-7.793V1.831q0,4.57-4.146,4.57a5.056,5.056,0,0,1-1.655-.262V3.984a5.239,5.239,0,0,0,1.23.117,1.841,1.841,0,0,0,1.384-.491A2.429,2.429,0,0,0,166.3,1.9V-15.85Zm-2.988-4.2a1.625,1.625,0,0,1,.4-1.106,1.481,1.481,0,0,1,1.179-.461,1.536,1.536,0,0,1,1.2.454,1.6,1.6,0,0,1,.41,1.113,1.548,1.548,0,0,1-.41,1.1,1.564,1.564,0,0,1-1.2.439,1.516,1.516,0,0,1-1.187-.439A1.581,1.581,0,0,1,166.025-20.054Zm10.591,11.7V0H173.8V-21.328h7.866a7.9,7.9,0,0,1,5.486,1.787,6.059,6.059,0,0,1,1.985,4.731,5.978,5.978,0,0,1-1.941,4.783,8.256,8.256,0,0,1-5.559,1.677Zm0-2.3h5.054a5.053,5.053,0,0,0,3.457-1.064,3.89,3.89,0,0,0,1.2-3.074,4.019,4.019,0,0,0-1.2-3.052,4.734,4.734,0,0,0-3.3-1.189h-5.215ZM198.691.293a6.925,6.925,0,0,1-5.244-2.117,7.856,7.856,0,0,1-2.021-5.662v-.5a9.511,9.511,0,0,1,.9-4.211,7.028,7.028,0,0,1,2.52-2.9,6.335,6.335,0,0,1,3.508-1.047,5.936,5.936,0,0,1,4.8,2.036,8.816,8.816,0,0,1,1.714,5.83v1.128H194.136a5.634,5.634,0,0,0,1.37,3.787,4.305,4.305,0,0,0,3.333,1.443A4.72,4.72,0,0,0,201.27-2.5a6.11,6.11,0,0,0,1.743-1.553l1.655,1.289A6.656,6.656,0,0,1,198.691.293Zm-.337-14.209a3.615,3.615,0,0,0-2.754,1.194,5.8,5.8,0,0,0-1.377,3.347h7.939V-9.58a5.162,5.162,0,0,0-1.113-3.2A3.4,3.4,0,0,0,198.354-13.916Zm17.314.5a8.121,8.121,0,0,0-1.333-.1,3.571,3.571,0,0,0-3.618,2.271V0h-2.71V-15.85h2.637l.044,1.831a4.22,4.22,0,0,1,3.779-2.124,2.769,2.769,0,0,1,1.2.205ZM227.388-4.2a2,2,0,0,0-.828-1.707,7.966,7.966,0,0,0-2.886-1.047,13.644,13.644,0,0,1-3.267-1.055,4.647,4.647,0,0,1-1.787-1.465,3.5,3.5,0,0,1-.579-2.021,4.111,4.111,0,0,1,1.648-3.3,6.436,6.436,0,0,1,4.211-1.348,6.623,6.623,0,0,1,4.373,1.392,4.42,4.42,0,0,1,1.677,3.56h-2.725a2.446,2.446,0,0,0-.945-1.919,3.54,3.54,0,0,0-2.38-.806,3.7,3.7,0,0,0-2.314.645,2.029,2.029,0,0,0-.835,1.685,1.644,1.644,0,0,0,.776,1.479,9.552,9.552,0,0,0,2.805.952,14.616,14.616,0,0,1,3.289,1.084,4.8,4.8,0,0,1,1.868,1.516,3.728,3.728,0,0,1,.608,2.161,4.056,4.056,0,0,1-1.7,3.406A7.128,7.128,0,0,1,223.989.293a7.981,7.981,0,0,1-3.369-.674,5.48,5.48,0,0,1-2.292-1.882,4.537,4.537,0,0,1-.828-2.615h2.71A2.806,2.806,0,0,0,221.3-2.717a4.234,4.234,0,0,0,2.688.8,4.37,4.37,0,0,0,2.468-.623A1.913,1.913,0,0,0,227.388-4.2Zm5.522-3.867a9.362,9.362,0,0,1,.916-4.189,6.83,6.83,0,0,1,2.549-2.871,6.938,6.938,0,0,1,3.728-1.011,6.684,6.684,0,0,1,5.237,2.241,8.623,8.623,0,0,1,2,5.962v.19a9.443,9.443,0,0,1-.886,4.153,6.729,6.729,0,0,1-2.534,2.864A7.018,7.018,0,0,1,240.132.293a6.667,6.667,0,0,1-5.222-2.241,8.579,8.579,0,0,1-2-5.933Zm2.725.322a6.781,6.781,0,0,0,1.223,4.233,3.914,3.914,0,0,0,3.274,1.6,3.891,3.891,0,0,0,3.281-1.619,7.415,7.415,0,0,0,1.216-4.534,6.769,6.769,0,0,0-1.238-4.226,3.935,3.935,0,0,0-3.289-1.619,3.891,3.891,0,0,0-3.237,1.6A7.36,7.36,0,0,0,235.635-7.749Zm17.666-8.1.088,1.992a5.776,5.776,0,0,1,4.746-2.285q5.024,0,5.068,5.669V0h-2.71V-10.488a3.649,3.649,0,0,0-.784-2.534,3.141,3.141,0,0,0-2.4-.82,3.911,3.911,0,0,0-2.314.7,4.775,4.775,0,0,0-1.553,1.846V0h-2.71V-15.85ZM277.075,0a5.693,5.693,0,0,1-.381-1.67A6.046,6.046,0,0,1,272.183.293a5.6,5.6,0,0,1-3.845-1.326,4.289,4.289,0,0,1-1.5-3.362,4.481,4.481,0,0,1,1.882-3.845,8.875,8.875,0,0,1,5.3-1.37h2.637v-1.245a3.044,3.044,0,0,0-.85-2.263,3.415,3.415,0,0,0-2.5-.842,3.952,3.952,0,0,0-2.432.732,2.158,2.158,0,0,0-.981,1.772h-2.725A3.74,3.74,0,0,1,268-13.748a5.749,5.749,0,0,1,2.285-1.75,7.688,7.688,0,0,1,3.171-.645,6.266,6.266,0,0,1,4.292,1.37A4.941,4.941,0,0,1,279.36-11v7.295a8.919,8.919,0,0,0,.557,3.472V0Zm-4.5-2.065A4.763,4.763,0,0,0,275-2.725a3.987,3.987,0,0,0,1.655-1.714V-7.69h-2.124q-4.98,0-4.98,2.915a2.467,2.467,0,0,0,.85,1.992A3.266,3.266,0,0,0,272.578-2.065ZM300.264-4.2a2,2,0,0,0-.828-1.707,7.966,7.966,0,0,0-2.886-1.047,13.644,13.644,0,0,1-3.267-1.055A4.647,4.647,0,0,1,291.5-9.478a3.5,3.5,0,0,1-.579-2.021,4.111,4.111,0,0,1,1.648-3.3,6.436,6.436,0,0,1,4.211-1.348,6.623,6.623,0,0,1,4.373,1.392,4.42,4.42,0,0,1,1.677,3.56H300.1a2.446,2.446,0,0,0-.945-1.919,3.54,3.54,0,0,0-2.38-.806,3.7,3.7,0,0,0-2.314.645,2.029,2.029,0,0,0-.835,1.685,1.644,1.644,0,0,0,.776,1.479,9.552,9.552,0,0,0,2.805.952A14.616,14.616,0,0,1,300.5-8.071a4.8,4.8,0,0,1,1.868,1.516,3.728,3.728,0,0,1,.608,2.161,4.056,4.056,0,0,1-1.7,3.406A7.128,7.128,0,0,1,296.865.293,7.981,7.981,0,0,1,293.5-.381,5.48,5.48,0,0,1,291.2-2.263a4.537,4.537,0,0,1-.828-2.615h2.71a2.806,2.806,0,0,0,1.091,2.161,4.234,4.234,0,0,0,2.688.8,4.37,4.37,0,0,0,2.468-.623A1.913,1.913,0,0,0,300.264-4.2Zm12.817,4.5a6.925,6.925,0,0,1-5.244-2.117,7.856,7.856,0,0,1-2.021-5.662v-.5a9.511,9.511,0,0,1,.9-4.211,7.028,7.028,0,0,1,2.52-2.9,6.335,6.335,0,0,1,3.508-1.047,5.936,5.936,0,0,1,4.8,2.036,8.816,8.816,0,0,1,1.714,5.83v1.128H308.525a5.634,5.634,0,0,0,1.37,3.787,4.305,4.305,0,0,0,3.333,1.443,4.72,4.72,0,0,0,2.432-.586A6.11,6.11,0,0,0,317.4-4.058l1.655,1.289A6.656,6.656,0,0,1,313.081.293Zm-.337-14.209a3.615,3.615,0,0,0-2.754,1.194,5.8,5.8,0,0,0-1.377,3.347h7.939V-9.58a5.162,5.162,0,0,0-1.113-3.2A3.4,3.4,0,0,0,312.744-13.916ZM332.769,0h-2.71V-22.5h2.71Zm7.28,0h-2.71V-22.5h2.71ZM354.17,0a5.693,5.693,0,0,1-.381-1.67A6.046,6.046,0,0,1,349.277.293a5.6,5.6,0,0,1-3.845-1.326,4.289,4.289,0,0,1-1.5-3.362,4.481,4.481,0,0,1,1.882-3.845,8.875,8.875,0,0,1,5.3-1.37h2.637v-1.245a3.044,3.044,0,0,0-.85-2.263,3.415,3.415,0,0,0-2.5-.842,3.952,3.952,0,0,0-2.432.732,2.158,2.158,0,0,0-.981,1.772h-2.725a3.74,3.74,0,0,1,.842-2.292,5.749,5.749,0,0,1,2.285-1.75,7.688,7.688,0,0,1,3.171-.645,6.266,6.266,0,0,1,4.292,1.37A4.941,4.941,0,0,1,356.455-11v7.295a8.919,8.919,0,0,0,.557,3.472V0Zm-4.5-2.065a4.763,4.763,0,0,0,2.417-.659,3.987,3.987,0,0,0,1.655-1.714V-7.69h-2.124q-4.98,0-4.98,2.915a2.467,2.467,0,0,0,.85,1.992A3.266,3.266,0,0,0,349.673-2.065ZM363.252-15.85l.073,1.758a5.853,5.853,0,0,1,4.7-2.051q3.325,0,4.526,2.549a6,6,0,0,1,2.058-1.846,6.079,6.079,0,0,1,3-.7q5.215,0,5.3,5.522V0H380.2V-10.459A3.639,3.639,0,0,0,379.424-13a3.419,3.419,0,0,0-2.607-.842,3.593,3.593,0,0,0-2.5.9,3.655,3.655,0,0,0-1.157,2.424V0H370.43V-10.386q0-3.457-3.384-3.457a3.626,3.626,0,0,0-3.647,2.271V0h-2.71V-15.85ZM396.782,0a5.693,5.693,0,0,1-.381-1.67A6.046,6.046,0,0,1,391.89.293a5.6,5.6,0,0,1-3.845-1.326,4.289,4.289,0,0,1-1.5-3.362,4.481,4.481,0,0,1,1.882-3.845,8.875,8.875,0,0,1,5.3-1.37h2.637v-1.245a3.044,3.044,0,0,0-.85-2.263,3.415,3.415,0,0,0-2.5-.842,3.952,3.952,0,0,0-2.432.732,2.158,2.158,0,0,0-.981,1.772h-2.725a3.74,3.74,0,0,1,.842-2.292,5.749,5.749,0,0,1,2.285-1.75,7.688,7.688,0,0,1,3.171-.645,6.266,6.266,0,0,1,4.292,1.37A4.941,4.941,0,0,1,399.067-11v7.295a8.919,8.919,0,0,0,.557,3.472V0Zm-4.5-2.065a4.763,4.763,0,0,0,2.417-.659,3.987,3.987,0,0,0,1.655-1.714V-7.69h-2.124q-4.98,0-4.98,2.915a2.467,2.467,0,0,0,.85,1.992A3.266,3.266,0,0,0,392.285-2.065ZM414.8-21.328l6.973,17.4,6.973-17.4h3.647V0H429.58V-8.306l.264-8.965L422.842,0h-2.153L413.7-17.227l.278,8.921V0h-2.812V-21.328ZM446.719,0a5.693,5.693,0,0,1-.381-1.67A6.046,6.046,0,0,1,441.826.293a5.6,5.6,0,0,1-3.845-1.326,4.289,4.289,0,0,1-1.5-3.362,4.481,4.481,0,0,1,1.882-3.845,8.875,8.875,0,0,1,5.3-1.37h2.637v-1.245a3.044,3.044,0,0,0-.85-2.263,3.415,3.415,0,0,0-2.5-.842,3.952,3.952,0,0,0-2.432.732,2.158,2.158,0,0,0-.981,1.772H436.8a3.74,3.74,0,0,1,.842-2.292,5.749,5.749,0,0,1,2.285-1.75,7.688,7.688,0,0,1,3.171-.645,6.266,6.266,0,0,1,4.292,1.37A4.941,4.941,0,0,1,449-11v7.295a8.919,8.919,0,0,0,.557,3.472V0Zm-4.5-2.065a4.763,4.763,0,0,0,2.417-.659,3.987,3.987,0,0,0,1.655-1.714V-7.69H444.17q-4.98,0-4.98,2.915a2.467,2.467,0,0,0,.85,1.992A3.266,3.266,0,0,0,442.222-2.065Zm18.691-11.353a8.121,8.121,0,0,0-1.333-.1,3.571,3.571,0,0,0-3.618,2.271V0h-2.71V-15.85h2.637l.044,1.831a4.22,4.22,0,0,1,3.779-2.124,2.769,2.769,0,0,1,1.2.205ZM466.348,0h-2.71V-15.85h2.71Zm-2.93-20.054a1.618,1.618,0,0,1,.4-1.113,1.512,1.512,0,0,1,1.194-.454,1.536,1.536,0,0,1,1.2.454,1.6,1.6,0,0,1,.41,1.113,1.548,1.548,0,0,1-.41,1.1,1.564,1.564,0,0,1-1.2.439,1.54,1.54,0,0,1-1.194-.439A1.564,1.564,0,0,1,463.418-20.054Zm6.548,11.982a9.362,9.362,0,0,1,.916-4.189,6.83,6.83,0,0,1,2.549-2.871,6.938,6.938,0,0,1,3.728-1.011A6.684,6.684,0,0,1,482.4-13.9a8.623,8.623,0,0,1,2,5.962v.19a9.443,9.443,0,0,1-.886,4.153,6.729,6.729,0,0,1-2.534,2.864A7.018,7.018,0,0,1,477.188.293a6.667,6.667,0,0,1-5.222-2.241,8.579,8.579,0,0,1-2-5.933Zm2.725.322a6.781,6.781,0,0,0,1.223,4.233,3.914,3.914,0,0,0,3.274,1.6,3.891,3.891,0,0,0,3.281-1.619,7.415,7.415,0,0,0,1.216-4.534,6.769,6.769,0,0,0-1.238-4.226,3.935,3.935,0,0,0-3.289-1.619,3.891,3.891,0,0,0-3.237,1.6A7.36,7.36,0,0,0,472.69-7.749Zm26.587-13.579,6.973,17.4,6.973-17.4h3.647V0h-2.812V-8.306l.264-8.965L507.319,0h-2.153l-6.987-17.227.278,8.921V0h-2.812V-21.328ZM527.988.293a6.925,6.925,0,0,1-5.244-2.117,7.856,7.856,0,0,1-2.021-5.662v-.5a9.511,9.511,0,0,1,.9-4.211,7.028,7.028,0,0,1,2.52-2.9,6.335,6.335,0,0,1,3.508-1.047,5.936,5.936,0,0,1,4.8,2.036,8.816,8.816,0,0,1,1.714,5.83v1.128H523.433a5.634,5.634,0,0,0,1.37,3.787,4.305,4.305,0,0,0,3.333,1.443,4.72,4.72,0,0,0,2.432-.586,6.11,6.11,0,0,0,1.743-1.553l1.655,1.289A6.656,6.656,0,0,1,527.988.293Zm-.337-14.209a3.615,3.615,0,0,0-2.754,1.194,5.8,5.8,0,0,0-1.377,3.347h7.939V-9.58a5.162,5.162,0,0,0-1.113-3.2A3.4,3.4,0,0,0,527.651-13.916Zm12.217-1.934.088,1.992a5.776,5.776,0,0,1,4.746-2.285q5.024,0,5.068,5.669V0h-2.71V-10.488a3.649,3.649,0,0,0-.784-2.534,3.141,3.141,0,0,0-2.4-.82,3.911,3.911,0,0,0-2.314.7,4.775,4.775,0,0,0-1.553,1.846V0H537.3V-15.85ZM560.435.293a6.925,6.925,0,0,1-5.244-2.117,7.856,7.856,0,0,1-2.021-5.662v-.5a9.511,9.511,0,0,1,.9-4.211,7.028,7.028,0,0,1,2.52-2.9,6.335,6.335,0,0,1,3.508-1.047,5.936,5.936,0,0,1,4.8,2.036,8.816,8.816,0,0,1,1.714,5.83v1.128H555.879a5.634,5.634,0,0,0,1.37,3.787,4.305,4.305,0,0,0,3.333,1.443,4.72,4.72,0,0,0,2.432-.586,6.11,6.11,0,0,0,1.743-1.553l1.655,1.289A6.656,6.656,0,0,1,560.435.293ZM560.1-13.916a3.615,3.615,0,0,0-2.754,1.194,5.8,5.8,0,0,0-1.377,3.347h7.939V-9.58a5.162,5.162,0,0,0-1.113-3.2A3.4,3.4,0,0,0,560.1-13.916ZM578.979-4.2a2,2,0,0,0-.828-1.707,7.966,7.966,0,0,0-2.886-1.047A13.644,13.644,0,0,1,572-8.013a4.647,4.647,0,0,1-1.787-1.465,3.5,3.5,0,0,1-.579-2.021,4.111,4.111,0,0,1,1.648-3.3,6.436,6.436,0,0,1,4.211-1.348,6.623,6.623,0,0,1,4.373,1.392,4.42,4.42,0,0,1,1.677,3.56h-2.725a2.446,2.446,0,0,0-.945-1.919,3.54,3.54,0,0,0-2.38-.806,3.7,3.7,0,0,0-2.314.645,2.029,2.029,0,0,0-.835,1.685,1.644,1.644,0,0,0,.776,1.479,9.552,9.552,0,0,0,2.805.952,14.616,14.616,0,0,1,3.289,1.084,4.8,4.8,0,0,1,1.868,1.516,3.728,3.728,0,0,1,.608,2.161,4.056,4.056,0,0,1-1.7,3.406A7.128,7.128,0,0,1,575.581.293a7.981,7.981,0,0,1-3.369-.674,5.48,5.48,0,0,1-2.292-1.882,4.537,4.537,0,0,1-.828-2.615h2.71a2.806,2.806,0,0,0,1.091,2.161,4.234,4.234,0,0,0,2.688.8,4.37,4.37,0,0,0,2.468-.623A1.913,1.913,0,0,0,578.979-4.2ZM591.8.293a6.925,6.925,0,0,1-5.244-2.117,7.856,7.856,0,0,1-2.021-5.662v-.5a9.511,9.511,0,0,1,.9-4.211,7.028,7.028,0,0,1,2.52-2.9,6.335,6.335,0,0,1,3.508-1.047,5.936,5.936,0,0,1,4.8,2.036,8.816,8.816,0,0,1,1.714,5.83v1.128H587.241a5.634,5.634,0,0,0,1.37,3.787,4.305,4.305,0,0,0,3.333,1.443,4.72,4.72,0,0,0,2.432-.586,6.11,6.11,0,0,0,1.743-1.553l1.655,1.289A6.656,6.656,0,0,1,591.8.293Zm-.337-14.209a3.615,3.615,0,0,0-2.754,1.194,5.8,5.8,0,0,0-1.377,3.347h7.939V-9.58a5.162,5.162,0,0,0-1.113-3.2A3.4,3.4,0,0,0,591.46-13.916ZM610.342-4.2a2,2,0,0,0-.828-1.707,7.966,7.966,0,0,0-2.886-1.047,13.644,13.644,0,0,1-3.267-1.055,4.647,4.647,0,0,1-1.787-1.465A3.5,3.5,0,0,1,601-11.5a4.111,4.111,0,0,1,1.648-3.3,6.436,6.436,0,0,1,4.211-1.348,6.623,6.623,0,0,1,4.373,1.392,4.42,4.42,0,0,1,1.677,3.56h-2.725a2.446,2.446,0,0,0-.945-1.919,3.54,3.54,0,0,0-2.38-.806,3.7,3.7,0,0,0-2.314.645,2.029,2.029,0,0,0-.835,1.685,1.644,1.644,0,0,0,.776,1.479,9.552,9.552,0,0,0,2.805.952,14.616,14.616,0,0,1,3.289,1.084,4.8,4.8,0,0,1,1.868,1.516,3.728,3.728,0,0,1,.608,2.161,4.056,4.056,0,0,1-1.7,3.406A7.128,7.128,0,0,1,606.943.293a7.981,7.981,0,0,1-3.369-.674,5.48,5.48,0,0,1-2.292-1.882,4.537,4.537,0,0,1-.828-2.615h2.71a2.806,2.806,0,0,0,1.091,2.161,4.234,4.234,0,0,0,2.688.8,4.37,4.37,0,0,0,2.468-.623A1.913,1.913,0,0,0,610.342-4.2ZM18.867,100H16.04V90.142H5.288V100H2.476V78.672H5.288v9.17H16.04v-9.17h2.827Zm3.853-8.071a9.362,9.362,0,0,1,.916-4.189,6.83,6.83,0,0,1,2.549-2.871,6.938,6.938,0,0,1,3.728-1.011A6.684,6.684,0,0,1,35.149,86.1a8.623,8.623,0,0,1,2,5.962v.19a9.443,9.443,0,0,1-.886,4.153,6.729,6.729,0,0,1-2.534,2.864,7.018,7.018,0,0,1-3.787,1.025,6.667,6.667,0,0,1-5.222-2.241,8.579,8.579,0,0,1-2-5.933Zm2.725.322a6.781,6.781,0,0,0,1.223,4.233,4.145,4.145,0,0,0,6.555-.022,7.415,7.415,0,0,0,1.216-4.534A6.769,6.769,0,0,0,33.2,87.7a3.935,3.935,0,0,0-3.289-1.619,3.891,3.891,0,0,0-3.237,1.6A7.36,7.36,0,0,0,25.444,92.251ZM43.491,100h-2.71V77.5h2.71Zm14.121,0a5.693,5.693,0,0,1-.381-1.67,6.046,6.046,0,0,1-4.512,1.963,5.6,5.6,0,0,1-3.845-1.326,4.289,4.289,0,0,1-1.5-3.362,4.481,4.481,0,0,1,1.882-3.845,8.875,8.875,0,0,1,5.3-1.37h2.637V89.146a3.044,3.044,0,0,0-.85-2.263,3.415,3.415,0,0,0-2.5-.842,3.952,3.952,0,0,0-2.432.732,2.158,2.158,0,0,0-.981,1.772H47.7a3.74,3.74,0,0,1,.842-2.292,5.749,5.749,0,0,1,2.285-1.75,7.688,7.688,0,0,1,3.171-.645,6.266,6.266,0,0,1,4.292,1.37A4.941,4.941,0,0,1,59.9,89v7.295a8.919,8.919,0,0,0,.557,3.472V100Zm-4.5-2.065a4.763,4.763,0,0,0,2.417-.659,3.987,3.987,0,0,0,1.655-1.714V92.31H55.063q-4.98,0-4.98,2.915a2.467,2.467,0,0,0,.85,1.992A3.266,3.266,0,0,0,53.115,97.935Zm10.942,6.313-1.538-1.055a7.069,7.069,0,0,0,1.436-3.955V96.792h2.651v2.124a6.672,6.672,0,0,1-.725,2.959A6.927,6.927,0,0,1,64.058,104.248Zm25.605-9.829H80.728L78.721,100h-2.9l8.145-21.328h2.461L94.585,100H91.7Zm-8.086-2.3h7.251L85.2,82.144Zm28.843.132a9.49,9.49,0,0,1-1.655,5.83,5.305,5.305,0,0,1-4.482,2.212,5.813,5.813,0,0,1-4.541-1.831v7.632h-2.71V84.15h2.476l.132,1.758a5.583,5.583,0,0,1,4.6-2.051,5.4,5.4,0,0,1,4.519,2.153A9.594,9.594,0,0,1,110.42,92Zm-2.71-.308a7,7,0,0,0-1.143-4.233,3.681,3.681,0,0,0-3.135-1.553,3.984,3.984,0,0,0-3.691,2.183v7.573a3.991,3.991,0,0,0,3.721,2.168,3.663,3.663,0,0,0,3.1-1.545A7.644,7.644,0,0,0,107.71,91.943Zm13.813-5.361a8.121,8.121,0,0,0-1.333-.1,3.571,3.571,0,0,0-3.618,2.271V100h-2.71V84.15H116.5l.044,1.831a4.22,4.22,0,0,1,3.779-2.124,2.769,2.769,0,0,1,1.2.205Zm8.789,13.711a6.925,6.925,0,0,1-5.244-2.117,7.856,7.856,0,0,1-2.021-5.662v-.5a9.511,9.511,0,0,1,.9-4.211,7.028,7.028,0,0,1,2.52-2.9,6.335,6.335,0,0,1,3.508-1.047,5.936,5.936,0,0,1,4.8,2.036,8.816,8.816,0,0,1,1.714,5.83v1.128H125.757a5.634,5.634,0,0,0,1.37,3.787,4.305,4.305,0,0,0,3.333,1.443,4.72,4.72,0,0,0,2.432-.586,6.11,6.11,0,0,0,1.743-1.553l1.655,1.289A6.656,6.656,0,0,1,130.313,100.293Zm-.337-14.209a3.615,3.615,0,0,0-2.754,1.194,5.8,5.8,0,0,0-1.377,3.347h7.939V90.42a5.162,5.162,0,0,0-1.113-3.2A3.4,3.4,0,0,0,129.976,86.084Zm12.217-1.934.088,1.992a5.776,5.776,0,0,1,4.746-2.285q5.024,0,5.068,5.669V100h-2.71V89.512a3.649,3.649,0,0,0-.784-2.534,3.141,3.141,0,0,0-2.4-.82,3.911,3.911,0,0,0-2.314.7,4.775,4.775,0,0,0-1.553,1.846V100h-2.71V84.15Zm13.33,7.793a9.285,9.285,0,0,1,1.729-5.867,5.881,5.881,0,0,1,8.936-.315V77.5h2.71V100h-2.49l-.132-1.7a5.519,5.519,0,0,1-4.526,1.992,5.414,5.414,0,0,1-4.49-2.256,9.39,9.39,0,0,1-1.736-5.889Zm2.71.308a7.03,7.03,0,0,0,1.113,4.219,3.6,3.6,0,0,0,3.076,1.523,3.953,3.953,0,0,0,3.765-2.314V88.4a3.984,3.984,0,0,0-3.735-2.241,3.616,3.616,0,0,0-3.105,1.538A7.74,7.74,0,0,0,158.232,92.251ZM176.045,100h-2.71V84.15h2.71Zm-2.93-20.054a1.618,1.618,0,0,1,.4-1.113,1.512,1.512,0,0,1,1.194-.454,1.536,1.536,0,0,1,1.2.454,1.6,1.6,0,0,1,.41,1.113,1.548,1.548,0,0,1-.41,1.1,1.564,1.564,0,0,1-1.2.439,1.54,1.54,0,0,1-1.194-.439A1.564,1.564,0,0,1,173.115,79.946Zm9.814,17.842H192.2V100H179.619V98.008l8.745-11.616h-8.613V84.15h12.012v1.919Zm26.455-7.295a13.225,13.225,0,0,1-5.266-2.556,4.884,4.884,0,0,1-1.648-3.743,5.159,5.159,0,0,1,2.014-4.167,8,8,0,0,1,5.237-1.648,8.738,8.738,0,0,1,3.918.85,6.443,6.443,0,0,1,2.666,2.344,5.993,5.993,0,0,1,.945,3.267h-2.827a3.9,3.9,0,0,0-1.23-3.05,5,5,0,0,0-3.472-1.11,5.123,5.123,0,0,0-3.245.917,3.06,3.06,0,0,0-1.165,2.546,2.753,2.753,0,0,0,1.106,2.209A10.848,10.848,0,0,0,210.183,88a17.468,17.468,0,0,1,4.16,1.649,6.313,6.313,0,0,1,2.227,2.1,5.365,5.365,0,0,1,.725,2.827,4.983,4.983,0,0,1-2.021,4.153,8.619,8.619,0,0,1-5.405,1.56,10.025,10.025,0,0,1-4.1-.842,6.9,6.9,0,0,1-2.937-2.307,5.63,5.63,0,0,1-1.033-3.325h2.827a3.673,3.673,0,0,0,1.428,3.054,6.014,6.014,0,0,0,3.816,1.121,5.528,5.528,0,0,0,3.413-.908,2.95,2.95,0,0,0,1.187-2.476,2.9,2.9,0,0,0-1.1-2.424A12.666,12.666,0,0,0,209.385,90.493Zm23.569-.352h-9.243V97.7h10.737V100H220.9V78.672h13.4v2.3H223.711v6.87h9.243ZM254.341,100h-2.827L240.776,83.564V100h-2.827V78.672h2.827l10.767,16.509V78.672h2.8Zm17.036-5.581h-8.936L260.435,100h-2.9l8.145-21.328h2.461L276.3,100h-2.886Zm-8.086-2.3h7.251l-3.633-9.976Z" transform="translate(280.035 4081)" fill="#12263f"/>
    <path id="Trazado_188668" data-name="Trazado 188668" d="M11.8-6.135a7.546,7.546,0,0,1-.694,3.313A5.132,5.132,0,0,1,9.136-.6,5.494,5.494,0,0,1,6.223.176a5.572,5.572,0,0,1-2.9-.751A5.123,5.123,0,0,1,1.349-2.725,7.329,7.329,0,0,1,.606-5.933v-.721A7.58,7.58,0,0,1,1.3-9.971,5.119,5.119,0,0,1,3.274-12.19a5.533,5.533,0,0,1,2.931-.782,5.479,5.479,0,0,1,2.9.773A5.211,5.211,0,0,1,11.087-10,7.362,7.362,0,0,1,11.8-6.724ZM8.666-6.671a5.381,5.381,0,0,0-.637-2.9,2.044,2.044,0,0,0-1.824-.989q-2.32,0-2.452,3.48l-.009.94a5.535,5.535,0,0,0,.624,2.892A2.041,2.041,0,0,0,6.223-2.232a2.016,2.016,0,0,0,1.8-.993,5.383,5.383,0,0,0,.642-2.856Zm13.421,2a5.8,5.8,0,0,1-.967,3.595A3.238,3.238,0,0,1,18.4.176,2.81,2.81,0,0,1,16.058-.976L15.935,0H13.28V-13.5h2.962v4.755a2.711,2.711,0,0,1,2.136-.94A3.239,3.239,0,0,1,21.12-8.411a5.826,5.826,0,0,1,.967,3.586Zm-2.971-.189a3.866,3.866,0,0,0-.365-1.952A1.229,1.229,0,0,0,17.631-7.4a1.418,1.418,0,0,0-1.389.763v3.773a1.426,1.426,0,0,0,1.406.755,1.258,1.258,0,0,0,1.327-1.018A7.309,7.309,0,0,0,19.116-4.865ZM26.578-9.51V.325a3.452,3.452,0,0,1-.967,2.6,3.714,3.714,0,0,1-2.672.914,6.308,6.308,0,0,1-1.4-.149V1.45a5.667,5.667,0,0,0,.835.079A1.084,1.084,0,0,0,23.607.308V-9.51Zm-3.19-2.461a1.334,1.334,0,0,1,.457-1.043,1.718,1.718,0,0,1,1.187-.407,1.718,1.718,0,0,1,1.187.407,1.334,1.334,0,0,1,.457,1.043,1.334,1.334,0,0,1-.457,1.043,1.718,1.718,0,0,1-1.187.407,1.718,1.718,0,0,1-1.187-.407A1.334,1.334,0,0,1,23.388-11.971ZM32.854.176a4.889,4.889,0,0,1-3.542-1.305,4.507,4.507,0,0,1-1.354-3.4v-.246A5.84,5.84,0,0,1,28.5-7.348a3.955,3.955,0,0,1,1.578-1.727,4.763,4.763,0,0,1,2.461-.611A4.117,4.117,0,0,1,35.7-8.442a4.887,4.887,0,0,1,1.16,3.467v1.151H30.973a2.135,2.135,0,0,0,.694,1.257,2.066,2.066,0,0,0,1.389.457,2.662,2.662,0,0,0,2.2-.984l1.354,1.6A3.784,3.784,0,0,1,35.038-.277,5.3,5.3,0,0,1,32.854.176ZM32.52-7.4q-1.3,0-1.547,1.723h2.988v-.229a1.467,1.467,0,0,0-.36-1.1A1.434,1.434,0,0,0,32.52-7.4ZM41.5-11.874V-9.51h1.564v2.057H41.5V-3.1a1.111,1.111,0,0,0,.193.747,1.037,1.037,0,0,0,.765.211A4.345,4.345,0,0,0,43.2-2.2V-.079a5.466,5.466,0,0,1-1.67.255A3.1,3.1,0,0,1,39.27-.545a2.954,2.954,0,0,1-.729-2.188v-4.72H37.327V-9.51H38.54v-2.364Zm2.092,7.031a5.613,5.613,0,0,1,.554-2.536,3.96,3.96,0,0,1,1.591-1.709,4.791,4.791,0,0,1,2.435-.6,4.373,4.373,0,0,1,3.366,1.323,5.076,5.076,0,0,1,1.23,3.6v.105a4.925,4.925,0,0,1-1.235,3.529A4.384,4.384,0,0,1,48.19.176,4.434,4.434,0,0,1,44.93-1.042a4.761,4.761,0,0,1-1.327-3.3Zm2.962.185a3.538,3.538,0,0,0,.413,1.934,1.376,1.376,0,0,0,1.222.615q1.582,0,1.617-2.435v-.3q0-2.558-1.635-2.558-1.485,0-1.608,2.206Zm12.5,1.986a.684.684,0,0,0-.4-.606,6.016,6.016,0,0,0-1.5-.475A6.853,6.853,0,0,1,55.327-4.4a3.062,3.062,0,0,1-1.1-.971,2.319,2.319,0,0,1-.378-1.31,2.628,2.628,0,0,1,1.081-2.158,4.453,4.453,0,0,1,2.83-.848,4.934,4.934,0,0,1,3.023.853,2.666,2.666,0,0,1,1.143,2.241H58.957q0-1.143-1.2-1.143a1.194,1.194,0,0,0-.782.259.8.8,0,0,0-.316.646.737.737,0,0,0,.387.642,3.654,3.654,0,0,0,1.235.4,10.671,10.671,0,0,1,1.49.378A2.706,2.706,0,0,1,61.91-2.76,2.491,2.491,0,0,1,60.754-.642a5.068,5.068,0,0,1-2.993.817,5.172,5.172,0,0,1-2.18-.439,3.645,3.645,0,0,1-1.494-1.2,2.707,2.707,0,0,1-.536-1.591H56.32a1.145,1.145,0,0,0,.439.962,1.808,1.808,0,0,0,1.081.3,1.422,1.422,0,0,0,.91-.246A.787.787,0,0,0,59.054-2.672ZM72.378.176a4.889,4.889,0,0,1-3.542-1.305,4.507,4.507,0,0,1-1.354-3.4v-.246a5.84,5.84,0,0,1,.541-2.575A3.955,3.955,0,0,1,69.6-9.075a4.763,4.763,0,0,1,2.461-.611,4.117,4.117,0,0,1,3.164,1.244,4.887,4.887,0,0,1,1.16,3.467v1.151H70.5a2.135,2.135,0,0,0,.694,1.257,2.066,2.066,0,0,0,1.389.457,2.662,2.662,0,0,0,2.2-.984l1.354,1.6A3.784,3.784,0,0,1,74.562-.277,5.3,5.3,0,0,1,72.378.176ZM72.044-7.4q-1.3,0-1.547,1.723h2.988v-.229a1.467,1.467,0,0,0-.36-1.1A1.434,1.434,0,0,0,72.044-7.4ZM80.3-9.51l.1,1.116a3.225,3.225,0,0,1,2.716-1.292,2.713,2.713,0,0,1,2.219.888,4.226,4.226,0,0,1,.76,2.672V0H83.118V-6a1.6,1.6,0,0,0-.29-1.059A1.342,1.342,0,0,0,81.773-7.4a1.413,1.413,0,0,0-1.292.686V0H77.52V-9.51ZM95.432-4.342V0H92.347V-12.8h5.106a5.948,5.948,0,0,1,2.6.541,4.074,4.074,0,0,1,1.749,1.538,4.2,4.2,0,0,1,.62,2.263,3.7,3.7,0,0,1-1.34,2.993A5.561,5.561,0,0,1,97.4-4.342Zm0-2.382h2.021a1.906,1.906,0,0,0,1.367-.448,1.665,1.665,0,0,0,.47-1.266,2.059,2.059,0,0,0-.483-1.433,1.712,1.712,0,0,0-1.318-.545H95.432ZM114.759,0h-3.067V-5.344h-4.544V0h-3.085V-12.8h3.085v5.08h4.544V-12.8h3.067Zm5.036-4.342V0H116.71V-12.8h5.106a5.948,5.948,0,0,1,2.6.541,4.074,4.074,0,0,1,1.749,1.538,4.2,4.2,0,0,1,.62,2.263,3.7,3.7,0,0,1-1.34,2.993,5.561,5.561,0,0,1-3.678,1.121Zm0-2.382h2.021a1.906,1.906,0,0,0,1.367-.448,1.665,1.665,0,0,0,.47-1.266,2.059,2.059,0,0,0-.483-1.433,1.712,1.712,0,0,0-1.318-.545h-2.057Z" transform="translate(850.035 3769.5)" fill="#12263f"/>
    <g id="XphvSP-2" data-name="XphvSP" transform="translate(105.453 3570.531)">
      <g id="Grupo_142580-2" data-name="Grupo 142580" transform="translate(138.137 179.237)">
        <path id="Trazado_183952-2" data-name="Trazado 183952" d="M164.582,192.493a13.223,13.223,0,1,1-13.215-13.256A13.239,13.239,0,0,1,164.582,192.493Zm-24.952.718a11.249,11.249,0,0,0,.871,3.82,12.054,12.054,0,0,0,1.625,2.739.368.368,0,0,0,.505.13c.859-.312,1.72-.618,2.581-.927.066-.024.129-.054.19-.079-.078-.34-.144-.663-.227-.982a20.1,20.1,0,0,1-.659-4.431c-.008-.228-.084-.29-.309-.289-1.433.009-2.866,0-4.3,0C139.828,193.2,139.747,193.205,139.63,193.211Zm20.65,6.921a11.619,11.619,0,0,0,2.813-6.887c-.056-.024-.081-.043-.105-.043q-2.273,0-4.545-.006c-.146,0-.187.066-.192.2-.008.257-.027.513-.047.77a19.869,19.869,0,0,1-.773,4.319,2.663,2.663,0,0,0-.063.342Zm.058-15.258a13.3,13.3,0,0,1-2.78,1.331.533.533,0,0,0,0,.106,22.2,22.2,0,0,1,.7,5.2c0,.215.109.231.276.23,1.434,0,2.867,0,4.3,0,.078,0,.156-.013.255-.022A11.744,11.744,0,0,0,160.338,184.874Zm-15.861,6.85a24.051,24.051,0,0,1,.751-5.536l-.215-.075c-.853-.311-1.71-.614-2.558-.939-.187-.072-.283-.061-.407.1a11.894,11.894,0,0,0-2.319,5.441c-.051.329-.073.664-.109,1.006Zm2.338,6.822.269-.041c1.091-.151,2.182-.31,3.275-.445.21-.026.277-.076.276-.292q-.014-2.151,0-4.3c0-.2-.046-.274-.26-.272q-2.082.013-4.164,0c-.219,0-.269.075-.244.275.111.921.183,1.848.332,2.762C146.425,197.005,146.638,197.766,146.815,198.545Zm9.12-.1a20.349,20.349,0,0,0,.856-5.235c-.082-.008-.126-.015-.17-.015-1.433,0-2.866,0-4.3-.005-.237,0-.24.117-.239.291,0,1.415,0,2.829,0,4.244,0,.087.012.175.017.258.66.055,1.293.09,1.92.166S155.272,198.344,155.935,198.448Zm-10.011-6.735a1.463,1.463,0,0,0,.167.027c1.443,0,2.886,0,4.329.006.207,0,.212-.11.212-.263,0-.965,0-1.93,0-2.9,0-.485,0-.969,0-1.481-.449-.038-.871-.053-1.286-.114q-1.222-.179-2.437-.4c-.2-.038-.285,0-.319.2-.173,1.013-.374,2.022-.521,3.039C145.979,190.445,145.971,191.072,145.925,191.713Zm10.871.011a18.707,18.707,0,0,0-.687-5.031l-4.024.5c0,1.4.005,2.835-.005,4.267,0,.232.07.295.3.293,1.388-.009,2.776,0,4.165-.005C156.621,191.742,156.7,191.731,156.8,191.724Zm-4.681-10.946a1.553,1.553,0,0,0-.029.184c0,1.5,0,3-.005,4.494,0,.21.107.216.261.2.65-.052,1.3-.078,1.949-.157.458-.056.908-.182,1.393-.283a11.122,11.122,0,0,0-1.379-2.7,4.806,4.806,0,0,0-1.6-1.489C152.525,180.936,152.328,180.869,152.115,180.778Zm-1.5.058c-1.414.277-2.836,2.342-3.484,4.3a15.963,15.963,0,0,0,3.484.5Zm1.488,22.756c1.063-.068,2.953-2.214,3.28-3.709a11,11,0,0,0-3.28-.353Zm-1.489.052V199.47l-3.268.439C148.1,201.5,148.878,202.947,150.61,203.644Zm-7.228-2.524a11.417,11.417,0,0,0,4.7,2.626,11.349,11.349,0,0,1-2.172-3.471Zm13.487-.907a11.55,11.55,0,0,1-2.172,3.513,11.305,11.305,0,0,0,4.513-2.5Zm-9.4-18.854a11.69,11.69,0,0,0-4.235,2.606c.774.262,1.48.493,2.179.743.208.074.285.017.359-.179a11.767,11.767,0,0,1,1.609-3A1.554,1.554,0,0,0,147.471,181.358Zm7.873.076a13.913,13.913,0,0,1,1.769,3.408l2.232-1A11.136,11.136,0,0,0,155.344,181.434Z" transform="translate(-138.137 -179.237)" fill="#12263f"/>
      </g>
    </g>
    <g id="XphvSP-3" data-name="XphvSP" transform="translate(676.453 3570.531)">
      <g id="Grupo_142580-3" data-name="Grupo 142580" transform="translate(138.137 179.237)">
        <path id="Trazado_183952-3" data-name="Trazado 183952" d="M164.582,192.493a13.223,13.223,0,1,1-13.215-13.256A13.239,13.239,0,0,1,164.582,192.493Zm-24.952.718a11.249,11.249,0,0,0,.871,3.82,12.054,12.054,0,0,0,1.625,2.739.368.368,0,0,0,.505.13c.859-.312,1.72-.618,2.581-.927.066-.024.129-.054.19-.079-.078-.34-.144-.663-.227-.982a20.1,20.1,0,0,1-.659-4.431c-.008-.228-.084-.29-.309-.289-1.433.009-2.866,0-4.3,0C139.828,193.2,139.747,193.205,139.63,193.211Zm20.65,6.921a11.619,11.619,0,0,0,2.813-6.887c-.056-.024-.081-.043-.105-.043q-2.273,0-4.545-.006c-.146,0-.187.066-.192.2-.008.257-.027.513-.047.77a19.869,19.869,0,0,1-.773,4.319,2.663,2.663,0,0,0-.063.342Zm.058-15.258a13.3,13.3,0,0,1-2.78,1.331.533.533,0,0,0,0,.106,22.2,22.2,0,0,1,.7,5.2c0,.215.109.231.276.23,1.434,0,2.867,0,4.3,0,.078,0,.156-.013.255-.022A11.744,11.744,0,0,0,160.338,184.874Zm-15.861,6.85a24.051,24.051,0,0,1,.751-5.536l-.215-.075c-.853-.311-1.71-.614-2.558-.939-.187-.072-.283-.061-.407.1a11.894,11.894,0,0,0-2.319,5.441c-.051.329-.073.664-.109,1.006Zm2.338,6.822.269-.041c1.091-.151,2.182-.31,3.275-.445.21-.026.277-.076.276-.292q-.014-2.151,0-4.3c0-.2-.046-.274-.26-.272q-2.082.013-4.164,0c-.219,0-.269.075-.244.275.111.921.183,1.848.332,2.762C146.425,197.005,146.638,197.766,146.815,198.545Zm9.12-.1a20.349,20.349,0,0,0,.856-5.235c-.082-.008-.126-.015-.17-.015-1.433,0-2.866,0-4.3-.005-.237,0-.24.117-.239.291,0,1.415,0,2.829,0,4.244,0,.087.012.175.017.258.66.055,1.293.09,1.92.166S155.272,198.344,155.935,198.448Zm-10.011-6.735a1.463,1.463,0,0,0,.167.027c1.443,0,2.886,0,4.329.006.207,0,.212-.11.212-.263,0-.965,0-1.93,0-2.9,0-.485,0-.969,0-1.481-.449-.038-.871-.053-1.286-.114q-1.222-.179-2.437-.4c-.2-.038-.285,0-.319.2-.173,1.013-.374,2.022-.521,3.039C145.979,190.445,145.971,191.072,145.925,191.713Zm10.871.011a18.707,18.707,0,0,0-.687-5.031l-4.024.5c0,1.4.005,2.835-.005,4.267,0,.232.07.295.3.293,1.388-.009,2.776,0,4.165-.005C156.621,191.742,156.7,191.731,156.8,191.724Zm-4.681-10.946a1.553,1.553,0,0,0-.029.184c0,1.5,0,3-.005,4.494,0,.21.107.216.261.2.65-.052,1.3-.078,1.949-.157.458-.056.908-.182,1.393-.283a11.122,11.122,0,0,0-1.379-2.7,4.806,4.806,0,0,0-1.6-1.489C152.525,180.936,152.328,180.869,152.115,180.778Zm-1.5.058c-1.414.277-2.836,2.342-3.484,4.3a15.963,15.963,0,0,0,3.484.5Zm1.488,22.756c1.063-.068,2.953-2.214,3.28-3.709a11,11,0,0,0-3.28-.353Zm-1.489.052V199.47l-3.268.439C148.1,201.5,148.878,202.947,150.61,203.644Zm-7.228-2.524a11.417,11.417,0,0,0,4.7,2.626,11.349,11.349,0,0,1-2.172-3.471Zm13.487-.907a11.55,11.55,0,0,1-2.172,3.513,11.305,11.305,0,0,0,4.513-2.5Zm-9.4-18.854a11.69,11.69,0,0,0-4.235,2.606c.774.262,1.48.493,2.179.743.208.074.285.017.359-.179a11.767,11.767,0,0,1,1.609-3A1.554,1.554,0,0,0,147.471,181.358Zm7.873.076a13.913,13.913,0,0,1,1.769,3.408l2.232-1A11.136,11.136,0,0,0,155.344,181.434Z" transform="translate(-138.137 -179.237)" fill="#12263f"/>
      </g>
    </g>
    <path id="Trazado_183941" data-name="Trazado 183941" d="M-5119-6010.344h1034.133" transform="translate(5399.035 10005.076)" fill="none" stroke="#12263f" stroke-width="2"/>
  </g>
</svg>
