<svg xmlns="http://www.w3.org/2000/svg" width="155.315" height="202.999" viewBox="0 0 155.315 202.999">
  <g id="vJmlvZ.tif" transform="translate(-780.192 -259.006)">
    <g id="Grupo_142581" data-name="Grupo 142581" transform="translate(780.192 259.006)">
      <path id="Trazado_183953" data-name="Trazado 183953" d="M780.192,368.037a9.6,9.6,0,0,1,1.747-1.5c2.067-1.057,4.183.441,4.214,3.029.057,4.889.018,9.778.019,14.668v2.312H910.1V336.65H877.28c-.462,0-.925.014-1.387,0-2.291-.087-3.694-1.243-3.69-3.031s1.381-2.95,3.7-2.955q15.847-.033,31.7-.011h2.53c.04-.868.1-1.567.1-2.266q.008-29.633,0-59.266c0-3.435-.715-4.134-4.2-4.134q-57.844,0-115.687,0c-3.418,0-4.169.76-4.169,4.212q0,29.633,0,59.266v2.188h2.708q36.053,0,72.107,0c.726,0,1.455-.021,2.177.039a2.99,2.99,0,0,1,2.984,2.836,3.033,3.033,0,0,1-2.8,3.05,14.661,14.661,0,0,1-2.173.073q-36.251,0-72.5,0h-2.505v13.071c0,2.114-.036,4.229.011,6.342.037,1.7-.231,3.234-2.043,3.878-1.843.655-2.969-.475-3.949-1.817V265.746a10.946,10.946,0,0,1,6.736-6.74H928.385c4.634,1.823,7.107,5.035,7.1,10.208q-.062,78.294-.035,156.589a8.232,8.232,0,0,1-.24,2.149,2.9,2.9,0,0,1-5.648-.34,18.027,18.027,0,0,1-.108-2.569q-.007-77.4-.009-154.8a21,21,0,0,0-.128-2.565,2.677,2.677,0,0,0-2.585-2.574c-3.535-.133-7.078-.043-10.5-.043v6.34q0,47.274,0,94.548c0,10.77-.017,21.539.016,32.309a5.9,5.9,0,0,1-1.736,4.636Q891.49,425.109,868.534,447.4a7.5,7.5,0,0,1-5.659,2.222q-31.794-.085-63.589-.033h-2.462c-.875,4.962.282,6.425,4.839,6.425q61.608,0,123.215,0c3.661,0,4.565-.906,4.574-4.574.01-3.9-.025-7.8.016-11.694.024-2.28,1.06-3.493,2.869-3.543,1.883-.052,3.084,1.235,3.109,3.548.047,4.36.117,8.724-.02,13.081a8.978,8.978,0,0,1-9.408,9.151q-62.995.038-125.989,0c-5.467,0-9.178-3.657-9.462-9.12-.054-1.039-.008-2.083-.008-3.1-5.644-.445-8.143-1.495-10.367-7.189Zm5.981,24.757v2.419q0,21.894,0,43.787c0,3.989.574,4.563,4.592,4.563q34.355,0,68.71,0h2.6v-2.539c0-11.293.17-22.59-.065-33.879-.136-6.5,3.928-10.438,10.361-10.289,11.809.272,23.628.077,35.443.077h2.244v-4.14Zm82.013,46.551,37.548-36.338c-.895-.044-1.391-.089-1.887-.089q-16.024-.006-32.047,0c-2.957,0-3.712.764-3.715,3.764q-.012,15.241,0,30.483C868.085,437.729,868.135,438.294,868.186,439.345Z" transform="translate(-780.192 -259.006)" fill="#12263f"/>
      <path id="Trazado_183954" data-name="Trazado 183954" d="M1018.912,328.288c-2.756-1.8-5.4-3.4-7.887-5.2a8.033,8.033,0,0,1-3.357-8.35,8.169,8.169,0,0,1,6.155-6.8,8,8,0,0,1,6.665.867c6.359,4.01,12.789,7.921,19,12.149,5.288,3.6,5.407,10.462.219,14.2-6.206,4.467-12.6,8.68-19.048,12.8A8.574,8.574,0,0,1,1011,333.807c1.979-1.531,4.131-2.836,6.2-4.253C1017.72,329.2,1018.219,328.8,1018.912,328.288Zm-3.029-14.98c-.708.65-1.665,1.183-2.089,1.995-.8,1.535.168,2.634,1.42,3.443,3.268,2.112,6.559,4.188,9.833,6.29,3.321,2.132,3.322,4.244.011,6.474-3.338,2.246-6.744,4.4-9.974,6.792a3.878,3.878,0,0,0-1.352,2.929c.051.719,1.254,1.674,2.114,1.915a3.729,3.729,0,0,0,2.491-.833q8.594-5.656,17.114-11.426c2.686-1.813,2.657-3.75-.074-5.509q-8.483-5.462-17.009-10.86A27.344,27.344,0,0,0,1015.883,313.308Z" transform="translate(-917.2 -288.287)" fill="#12263f"/>
      <path id="Trazado_183955" data-name="Trazado 183955" d="M829.338,328.335c2.856,1.952,5.5,3.666,8.045,5.523a7.926,7.926,0,0,1,3.094,8.95,8.12,8.12,0,0,1-6.787,6.4,9.025,9.025,0,0,1-6.751-1.635c-5.986-3.984-11.995-7.939-17.9-12.045-5.658-3.936-5.582-10.99.172-14.815q8.98-5.97,18.167-11.627a8.6,8.6,0,0,1,12.137,2.621c2.5,4.06,1.3,9.1-2.91,11.939C834.314,325.194,831.959,326.649,829.338,328.335Zm5.432-11.514c-.1-2.964-2.312-3.842-4.581-2.409q-8.7,5.494-17.347,11.073c-2.606,1.683-2.594,3.632-.01,5.4,2.939,2.012,5.914,3.974,8.873,5.956,2.905,1.946,5.788,3.926,8.725,5.822,1.837,1.186,3.83.532,4.261-1.3a2.668,2.668,0,0,0-1.341-3.024q-5.176-3.473-10.336-6.971c-2.906-1.98-2.894-4.268.026-6.151,3.327-2.144,6.7-4.216,9.98-6.43A8.866,8.866,0,0,0,834.77,316.821Z" transform="translate(-795.053 -288.317)" fill="#12263f"/>
      <path id="Trazado_183956" data-name="Trazado 183956" d="M936.89,488.356c1.777-3.024,3.456-5.836,5.088-8.675a4.809,4.809,0,0,1,5.175-2.457,2.822,2.822,0,0,1,2.813,2.544,14.793,14.793,0,0,1,.2,2.159q.021,11.888.006,23.775c0,2.563-.924,3.515-3.383,3.556-2.511.042-3.515-.974-3.52-3.617-.01-4.675,0-9.35-.414-14.177a58.179,58.179,0,0,1-3.183,5.281,5.9,5.9,0,0,1-2.922,2.246c-1.536.375-2.146-1.17-2.78-2.338a36.78,36.78,0,0,0-3.511-5.571V496.5c0,3.1.006,6.208,0,9.312-.006,2.485-1.01,3.475-3.464,3.447-2.386-.027-3.337-.964-3.34-3.351-.008-8.123.006-16.247-.009-24.37,0-1.8.156-3.51,2.189-4.192a4.713,4.713,0,0,1,5.594,1.867c1.506,2.321,2.832,4.759,4.242,7.143C936.029,486.969,936.408,487.568,936.89,488.356Z" transform="translate(-866.658 -390.445)" fill="#1565c0"/>
      <path id="Trazado_183957" data-name="Trazado 183957" d="M933.747,307.719a8.325,8.325,0,0,1,7.49,4.431,7.93,7.93,0,0,1-.38,8.816c-6.177,8.472-12.41,16.906-18.817,25.205a8.322,8.322,0,0,1-11.533,1.642,8.414,8.414,0,0,1-2.339-11.559c1.4-2.3,3.127-4.406,4.74-6.574,4.489-6.032,9.009-12.039,13.486-18.079A8.863,8.863,0,0,1,933.747,307.719Zm-17.755,35.65a10.047,10.047,0,0,0,1.959-1.669c2.632-3.47,5.18-7,7.734-10.533,3.328-4.6,6.68-9.179,9.891-13.857a2.712,2.712,0,0,0,.007-2.577,4,4,0,0,0-2.778-.837c-.537.014-1.139.822-1.562,1.384q-8.821,11.7-17.591,23.437a4.716,4.716,0,0,0-.675,1.2C912.382,341.573,913.679,343.38,915.992,343.369Z" transform="translate(-856.511 -288.368)" fill="#ffa739"/>
      <path id="Trazado_183958" data-name="Trazado 183958" d="M863.727,497.615c-2.052,3.476-3.917,6.658-5.805,9.825-1.165,1.956-2.864,2.238-5.012.871-1.894-1.205-2.177-2.478-.9-4.494,2.019-3.176,4.04-6.351,6.156-9.463a2.265,2.265,0,0,0,.073-2.97c-2.05-3.074-3.957-6.244-5.893-9.393-1.337-2.175-1.074-3.516.848-4.68,2.186-1.323,3.888-.933,5.157,1.236,1.757,3,3.478,6.029,5.372,9.317,1.833-3.188,3.527-6.152,5.238-9.107,1.4-2.413,3.11-2.838,5.4-1.366,1.734,1.117,2.071,2.357.984,4.153-1.982,3.275-3.959,6.558-6.078,9.743a2.415,2.415,0,0,0,.067,3.166c2.084,3.052,4.054,6.182,6.044,9.3,1.33,2.081,1.029,3.454-.953,4.628-2.209,1.308-3.767.988-4.968-1.041C867.585,504.178,865.725,501.009,863.727,497.615Z" transform="translate(-823.01 -390.125)" fill="#1565c0"/>
      <path id="Trazado_183959" data-name="Trazado 183959" d="M1011.432,503.475c3.211,0,6.1-.017,9,.006,2.174.018,3,.861,3,2.968,0,2.085-.879,3-3.01,3.012-4.025.025-8.051.036-12.076,0-3.017-.029-3.721-.776-3.722-3.749q0-12.479,0-24.958c0-2.553.881-3.407,3.451-3.4,2.537.011,3.357.846,3.359,3.468q.008,10.1,0,20.2Z" transform="translate(-915.464 -390.615)" fill="#1565c0"/>
    </g>
  </g>
</svg>
