<svg id="Grupo_53052" data-name="Grupo 53052" xmlns="http://www.w3.org/2000/svg" xmlns:xlink="http://www.w3.org/1999/xlink" width="91.927" height="91.928" viewBox="0 0 91.927 91.928">
  <defs>
    <radialGradient id="radial-gradient" cx="0.076" cy="0.019" r="1.465" gradientTransform="translate(0.001)" gradientUnits="objectBoundingBox">
      <stop offset="0" stop-color="#f6f6f7"/>
      <stop offset="0.477" stop-color="#f9f9fa"/>
      <stop offset="0.715" stop-color="#fff"/>
    </radialGradient>
  </defs>
  <g id="Grupo_18531" data-name="Grupo 18531">
    <g id="Grupo_18423" data-name="Grupo 18423">
      <g id="Grupo_18421" data-name="Grupo 18421">
        <g id="Grupo_18420" data-name="Grupo 18420">
          <g id="Grupo_18419" data-name="Grupo 18419">
            <path id="Trazado_40936" data-name="Trazado 40936" d="M286.55,2191.684a45.964,45.964,0,1,1-45.963-45.962A45.963,45.963,0,0,1,286.55,2191.684Z" transform="translate(-194.623 -2145.721)" fill="#fff"/>
          </g>
        </g>
      </g>
      <path id="Trazado_40937" data-name="Trazado 40937" d="M286.23,2191.334a45.963,45.963,0,1,0-45.963,45.965A45.782,45.782,0,0,0,286.23,2191.334Z" transform="translate(-194.303 -2145.372)" fill="url(#radial-gradient)"/>
      <path id="Trazado_40938" data-name="Trazado 40938" d="M272.56,2188.562a35.084,35.084,0,1,0-35.084,35.084A34.953,34.953,0,0,0,272.56,2188.562Z" transform="translate(-191.373 -2142.446)" fill="none" stroke="#ffa726" stroke-miterlimit="10" stroke-width="4"/>
      <g id="Grupo_18422" data-name="Grupo 18422" transform="translate(8.143 25.805)">
        <path id="Trazado_40939" data-name="Trazado 40939" d="M279.682,2164.488a45.969,45.969,0,0,1-79.137,45.773,45.823,45.823,0,0,0,79.137-45.773Z" transform="translate(-200.545 -2164.488)" fill="#eceef0"/>
      </g>
    </g>
  </g>
  <g id="Grupo_46654" data-name="Grupo 46654" transform="translate(24.478 20.615)">
    <path id="Trazado_97027" data-name="Trazado 97027" d="M-2568.06,1752.243a1.076,1.076,0,0,1,.476,1.057c-.023.505,0,1.012-.008,1.518s-.305.839-.72.836-.694-.328-.7-.846.018-1.045-.008-1.565a1,1,0,0,1,.487-1Z" transform="translate(2590.678 -1752.243)" fill="#00223d"/>
    <path id="Trazado_97028" data-name="Trazado 97028" d="M-2713.049,1846.328c0,.828.005,1.57,0,2.313a1.578,1.578,0,0,1-1.757,1.766q-3.019.005-6.039,0a1.577,1.577,0,0,1-1.752-1.768c-.005-.743,0-1.487,0-2.307-.357,0-.683.007-1.009,0a1.6,1.6,0,0,1-1.68-1.531,13.874,13.874,0,0,1,.008-1.8,1.594,1.594,0,0,1,.821-1.312.63.63,0,0,0,.231-.448c.027-.633-.01-1.269.023-1.9a.548.548,0,0,0-.389-.6,15.659,15.659,0,0,1-5.719-4.46,15.931,15.931,0,0,1-3.607-9.417,15.867,15.867,0,0,1,3.584-11.085,15.728,15.728,0,0,1,10.412-5.875,15.547,15.547,0,0,1,7.213.7,1,1,0,0,0,.932-.024,1.084,1.084,0,0,1,1.311.244,8.689,8.689,0,0,1,.671.673.466.466,0,0,0,.61.16.47.47,0,0,0,.316-.547c-.014-.316-.017-.635,0-.951a1.209,1.209,0,0,1,1.25-1.221q1.236-.019,2.472,0a1.181,1.181,0,0,1,1.232,1.224,10.032,10.032,0,0,0,.02,1.044.618.618,0,0,0,.324.415.634.634,0,0,0,.522-.076,8.259,8.259,0,0,0,.681-.661,1.212,1.212,0,0,1,1.851.007q.869.845,1.706,1.724a1.2,1.2,0,0,1-.009,1.744c-.2.221-.413.44-.638.639a.491.491,0,0,0-.168.649c.127.306.317.341.59.328.3-.015.6-.013.9,0a1.185,1.185,0,0,1,1.206,1.159c.029.886.03,1.776,0,2.662a1.184,1.184,0,0,1-1.217,1.146c-.3.009-.6.018-.9,0a.5.5,0,0,0-.583.338c-.133.306-.016.462.183.646.233.215.456.442.667.677a1.175,1.175,0,0,1,.024,1.636c-.594.637-1.2,1.269-1.85,1.846a4.641,4.641,0,0,1-1.092.52c-.031.374-.064.874-.118,1.373-.061.56-.354.835-.806.783-.435-.05-.64-.4-.6-.964.05-.7.081-1.391.108-2.088a3.442,3.442,0,0,0-.052-.5c-.695.074-.741.124-.744.734,0,.317.009.635-.015.95a1.141,1.141,0,0,1-1.073,1.078q-1.378.038-2.757,0a1.183,1.183,0,0,1-1.109-1.158,9.935,9.935,0,0,1,0-1c.008-.254-.02-.437-.312-.551a.472.472,0,0,0-.612.151,7.664,7.664,0,0,1-.707.7,1.14,1.14,0,0,1-1.633,0c-.661-.614-1.3-1.26-1.909-1.922a1.156,1.156,0,0,1,0-1.527,3.6,3.6,0,0,1,.6-.612c.437-.327.455-.675.1-1.114-.4,0-.847.01-1.289,0a1.185,1.185,0,0,1-1.2-1.209c-.014-.856-.017-1.712,0-2.568a1.182,1.182,0,0,1,1.173-1.187c.332-.014.666-.013,1,0,.243.01.41-.029.507-.3.09-.249.127-.433-.1-.626a7.357,7.357,0,0,1-.639-.637,1.223,1.223,0,0,1,.006-1.85,6.373,6.373,0,0,1,.668-.522l-.09-.237c-1.085-.19-2.163-.469-3.256-.555a14.2,14.2,0,0,0-10.22,3.039,14.089,14.089,0,0,0-5.568,9.761c-.7,6.292,1.687,11.189,6.979,14.655a15,15,0,0,0,1.986,1.01.936.936,0,0,1,.621.958c-.015.916,0,1.832,0,2.776h.941v-5.019c-1.139-.287-1.337-.542-1.337-1.706,0-.475-.011-.951.008-1.426a1.157,1.157,0,0,1,1.156-1.148c.6-.019,1.2-.017,1.807,0A1.186,1.186,0,0,1-2719,1833.3c.031.633.033,1.269,0,1.9-.032.67-.4.981-1.362,1.232v5h2.142v-.484c0-1.775,0-3.551,0-5.326,0-.554.284-.863.74-.84.438.022.681.335.683.911q.007,2.615,0,5.231v.506h1.461v-3.048c0-.713.024-1.428-.013-2.139a1.187,1.187,0,0,0-.283-.715c-1.658-1.7-3.338-3.386-5.013-5.074a1.786,1.786,0,0,0-.177-.14c-.944.542-1.3.494-2.052-.271-.323-.327-.653-.648-.965-.985a1.189,1.189,0,0,1-.007-1.707c.389-.417.792-.822,1.206-1.215a1.2,1.2,0,0,1,1.845,0c.289.271.561.56.841.84.883.884.916,1.3.107,2.37.274.238.576.472.844.739,1.458,1.457,2.9,2.927,4.362,4.38a2.356,2.356,0,0,1,.739,1.783c-.017,1.553-.005,3.107-.005,4.66v.531h1.009v-7.927c-.072-.013-.144-.029-.217-.038a1.2,1.2,0,0,1-1.159-1.213c-.027-.585-.028-1.173-.007-1.759a1.207,1.207,0,0,1,1.26-1.26c.554-.02,1.11-.015,1.664,0a1.2,1.2,0,0,1,1.263,1.251c.019.491.008.983.006,1.474,0,.985-.338,1.38-1.355,1.547v3.883c.826-.519,1.582-.936,2.273-1.439a14.478,14.478,0,0,0,4.461-5.289c.35-.7.7-.9,1.146-.677s.479.623.125,1.319a15.913,15.913,0,0,1-7.577,7.385.633.633,0,0,0-.438.719,9.66,9.66,0,0,1,.006,1.141,1.415,1.415,0,0,0,.556,1.406c.85.63.836,3.148.042,3.862a2.533,2.533,0,0,1-1.1.479A5.2,5.2,0,0,1-2713.049,1846.328Zm.255-24.935,1.492,1.5c.666-.6,1.171-1.455,2.354-1.094,1.417.433,1.667,1.433,1.481,2.713h2.139c-.067-1.1-.06-2.07,1.209-2.6,1.3-.548,1.938.261,2.61.958l1.539-1.471c-.784-.714-1.522-1.383-1-2.668s1.545-1.251,2.6-1.217v-2.13c-1.093.075-2.063.054-2.595-1.2-.549-1.3.251-1.965.955-2.645l-1.495-1.506c-.693.761-1.354,1.5-2.646.953-1.266-.54-1.216-1.54-1.185-2.584h-2.134c.142,1.2.014,2.174-1.33,2.654-1.237.441-1.808-.371-2.444-1l-1.528,1.469c.787.707,1.483,1.4.962,2.673s-1.529,1.227-2.57,1.2v2.132c1.138-.095,2.109-.023,2.607,1.272C-2711.294,1820.047-2712.042,1820.687-2712.794,1821.393Zm-5.027,23.514v0c1.852,0,3.7-.006,5.555.005.362,0,.53-.115.509-.491a7.416,7.416,0,0,1,0-.949c.032-.426-.123-.59-.569-.584-1.456.022-2.912.008-4.368.008-2.216,0-4.432.008-6.648-.007-.413,0-.584.134-.557.546a6.734,6.734,0,0,1,0,.9c-.03.421.115.587.566.581C-2721.493,1844.894-2719.657,1844.906-2717.821,1844.906Zm3.3,3.426h-6.621c-.057.647-.057.648.529.648,1.865,0,3.731-.018,5.6.01C-2714.518,1849-2714.394,1848.823-2714.52,1848.332Zm.02-1.964h-6.673l.036.47h6.637Zm-7.244-17.266.965-.929-.943-.907-.893.946Zm8.923,2.918h1.279v-1.3h-1.279Zm-7.632,2.884v-1.311h-1.276v1.311Z" transform="translate(2739.881 -1801.711)" fill="#00223d"/>
    <path id="Trazado_97029" data-name="Trazado 97029" d="M-2582.245,1958.106c-1.241-.348-1.394-.557-1.394-1.853,0-.4-.013-.792,0-1.187a1.225,1.225,0,0,1,1.3-1.268q.807-.01,1.614,0a1.2,1.2,0,0,1,1.274,1.235c.02.458.008.917.008,1.376,0,1.116-.237,1.415-1.377,1.685v.913q0,1.567,0,3.133c0,.677-.248,1.014-.729,1.007s-.7-.327-.7-.982q0-1.8,0-3.607C-2582.245,1958.4-2582.245,1958.248-2582.245,1958.106Zm1.338-1.518v-1.339h-1.267v1.339Z" transform="translate(2603.904 -1934.586)" fill="#00223d"/>
    <path id="Trazado_97030" data-name="Trazado 97030" d="M-2650.269,1936.9c.285,0,.57-.007.854,0a1.2,1.2,0,0,1,1.238,1.177,18.689,18.689,0,0,1-.006,1.9,1.157,1.157,0,0,1-1.155,1.153,17.176,17.176,0,0,1-1.849,0,1.177,1.177,0,0,1-1.166-1.2c-.027-.584-.024-1.171-.006-1.755a1.223,1.223,0,0,1,1.33-1.281C-2650.775,1936.892-2650.522,1936.9-2650.269,1936.9Zm.641,1.448h-1.275v1.338h1.275Z" transform="translate(2666.083 -1919.297)" fill="#00223d"/>
    <path id="Trazado_97031" data-name="Trazado 97031" d="M-2615.995,1883.779c-.3,0-.6.01-.9,0a1.168,1.168,0,0,1-1.162-1.14c-.021-.648-.021-1.3,0-1.945a1.138,1.138,0,0,1,1.121-1.124c.631-.027,1.265-.027,1.9,0a1.172,1.172,0,0,1,1.151,1.159c.029.631.031,1.266,0,1.9a1.2,1.2,0,0,1-1.253,1.158c-.284.005-.569,0-.854,0Zm.658-1.445v-1.313h-1.274v1.313Z" transform="translate(2635.054 -1867.416)" fill="#00223d"/>
    <path id="Trazado_97032" data-name="Trazado 97032" d="M-2779.018,1893.7a3.91,3.91,0,0,1,.406.106c.61.257,1.226.5,1.825.784a.667.667,0,0,1,.386.9.688.688,0,0,1-.939.394c-.617-.24-1.222-.512-1.82-.794a.614.614,0,0,1-.375-.818A2.267,2.267,0,0,1-2779.018,1893.7Z" transform="translate(2781.177 -1880.223)" fill="#00223d"/>
    <path id="Trazado_97033" data-name="Trazado 97033" d="M-2795.385,1959.232c.608.076,1.251.143,1.89.242a.694.694,0,0,1,.624.76.728.728,0,0,1-.8.638c-.644-.06-1.287-.138-1.925-.239a.7.7,0,0,1-.647-.787A.76.76,0,0,1-2795.385,1959.232Z" transform="translate(2796.254 -1939.506)" fill="#00223d"/>
    <path id="Trazado_97034" data-name="Trazado 97034" d="M-2694.414,1791.632a2.059,2.059,0,0,1,.5.4c.357.48.675.989.991,1.5a.725.725,0,0,1-.148,1.049.712.712,0,0,1-1.023-.255c-.361-.516-.712-1.042-1.032-1.584C-2695.428,1792.22-2695.122,1791.649-2694.414,1791.632Z" transform="translate(2704.867 -1787.879)" fill="#00223d"/>
    <path id="Trazado_97035" data-name="Trazado 97035" d="M-2790.974,2022.639c.474.013.755.185.824.588a.639.639,0,0,1-.5.794c-.69.158-1.39.286-2.093.375a.629.629,0,0,1-.718-.551.635.635,0,0,1,.48-.807C-2792.295,2022.871-2791.594,2022.759-2790.974,2022.639Z" transform="translate(2793.745 -1996.872)" fill="#00223d"/>
    <path id="Trazado_97036" data-name="Trazado 97036" d="M-2634.016,1762.65c.113.117.4.293.5.542a15.038,15.038,0,0,1,.555,1.808.706.706,0,0,1-.478.939.718.718,0,0,1-.889-.572c-.185-.57-.363-1.143-.516-1.723C-2634.989,1763.1-2634.694,1762.671-2634.016,1762.65Z" transform="translate(2650.259 -1761.658)" fill="#00223d"/>
    <path id="Trazado_97037" data-name="Trazado 97037" d="M-2742.227,1839.028c.01.621-.581,1.007-1.025.691a17.216,17.216,0,0,1-1.709-1.43.568.568,0,0,1-.012-.855c.19-.167.632-.321.78-.218a21.931,21.931,0,0,1,1.859,1.536C-2742.252,1838.823-2742.244,1838.979-2742.227,1839.028Z" transform="translate(2750.03 -1829.089)" fill="#00223d"/>
    <path id="Trazado_97038" data-name="Trazado 97038" d="M-2768.67,2079.036a3.128,3.128,0,0,1,.629.611.569.569,0,0,1-.233.786c-.645.361-1.306.7-1.979,1a.553.553,0,0,1-.766-.279c-.091-.229-.112-.684.015-.769C-2770.279,2079.906-2769.5,2079.5-2768.67,2079.036Z" transform="translate(2773.491 -2047.894)" fill="#00223d"/>
    <path id="Trazado_97039" data-name="Trazado 97039" d="M-2730.737,2129.642c.163.128.428.241.513.433a.787.787,0,0,1-.035.693,18.485,18.485,0,0,1-1.631,1.573.606.606,0,0,1-.889-.119.608.608,0,0,1-.041-.863c.507-.538,1.057-1.037,1.6-1.537A1.674,1.674,0,0,1-2730.737,2129.642Z" transform="translate(2739.011 -2093.678)" fill="#00223d"/>
    <path id="Trazado_97050" data-name="Trazado 97050" d="M-2496.32,1860.006a4.933,4.933,0,0,1,6.385-4.747.724.724,0,0,1,.591.922.723.723,0,0,1-1,.447,3.491,3.491,0,0,0-2.837.333,3.553,3.553,0,0,0-1.417,4.433,3.471,3.471,0,0,0,4.345,1.911,3.534,3.534,0,0,0,2.262-4.021c-.03-.139-.071-.276-.1-.416a.71.71,0,0,1,.512-.884.7.7,0,0,1,.868.542,4.927,4.927,0,0,1-.1,3.217,4.93,4.93,0,0,1-6.259,2.9A4.99,4.99,0,0,1-2496.32,1860.006Z" transform="translate(2524.902 -1845.245)" fill="#00223d"/>
    <path id="Trazado_97051" data-name="Trazado 97051" d="M-2468.458,1885.719a2.506,2.506,0,0,1-2.5-2.507,2.511,2.511,0,0,1,2.486-2.479,2.489,2.489,0,0,1,2.494,2.509A2.483,2.483,0,0,1-2468.458,1885.719Zm1.039-2.51a1.047,1.047,0,0,0-1.065-1.043,1.08,1.08,0,0,0-1.042,1.079,1.075,1.075,0,0,0,1.077,1.042A1.046,1.046,0,0,0-2467.419,1883.208Z" transform="translate(2501.961 -1868.488)" fill="#00223d"/>
  </g>
</svg>
