<svg id="Grupo_142319" data-name="Grupo 142319" xmlns="http://www.w3.org/2000/svg" xmlns:xlink="http://www.w3.org/1999/xlink" width="241.708" height="290.613" viewBox="0 0 241.708 290.613">
  <defs>
    <linearGradient id="linear-gradient" x1="-30.681" y1="-2.445" x2="159.693" y2="15.534" gradientUnits="objectBoundingBox">
      <stop offset="0" stop-color="#a737d5"/>
      <stop offset="1" stop-color="#ef497a"/>
    </linearGradient>
    <linearGradient id="linear-gradient-2" y1="0.5" x2="1" y2="0.5" gradientUnits="objectBoundingBox">
      <stop offset="0" stop-color="#dae3fe"/>
      <stop offset="1" stop-color="#e9effd"/>
    </linearGradient>
    <linearGradient id="linear-gradient-6" x1="-31.909" y1="0.302" x2="-31.237" y2="1.263" gradientUnits="objectBoundingBox">
      <stop offset="0" stop-color="#febbba"/>
      <stop offset="1" stop-color="#ff928e"/>
    </linearGradient>
    <linearGradient id="linear-gradient-7" x1="-71.467" y1="1.602" x2="-70.432" y2="-1.187" xlink:href="#linear-gradient-6"/>
    <linearGradient id="linear-gradient-8" x1="-29.825" y1="1.698" x2="-29.362" y2="-1.193" xlink:href="#linear-gradient-6"/>
    <linearGradient id="linear-gradient-9" x1="-94.169" y1="1.857" x2="-93.914" y2="0.807" xlink:href="#linear-gradient-6"/>
    <linearGradient id="linear-gradient-10" x1="-62.392" y1="1.328" x2="-60.931" y2="-1.033" xlink:href="#linear-gradient-6"/>
    <linearGradient id="linear-gradient-11" x1="-225.703" y1="3.259" x2="-220.387" y2="-4.349" xlink:href="#linear-gradient-6"/>
    <linearGradient id="linear-gradient-12" x1="-114.581" y1="1.592" x2="-112.969" y2="4.225" xlink:href="#linear-gradient-6"/>
    <linearGradient id="linear-gradient-13" x1="0.245" y1="0.738" x2="1.049" y2="-0.129" xlink:href="#linear-gradient-6"/>
    <linearGradient id="linear-gradient-14" x1="0.5" x2="0.5" y2="1" gradientUnits="objectBoundingBox">
      <stop offset="0" stop-color="#f4efe2"/>
      <stop offset="0.697" stop-color="#fff"/>
      <stop offset="1" stop-color="#f4efe2"/>
    </linearGradient>
    <linearGradient id="linear-gradient-15" x1="168.484" y1="-0.207" x2="169.492" y2="-0.207" xlink:href="#linear-gradient-6"/>
    <linearGradient id="linear-gradient-16" x1="187.787" y1="-0.014" x2="188.801" y2="-0.014" xlink:href="#linear-gradient-6"/>
    <linearGradient id="linear-gradient-17" x1="1.116" y1="0.941" x2="-0.257" y2="0.054" xlink:href="#linear-gradient-6"/>
    <linearGradient id="linear-gradient-18" x1="1.434" y1="1.247" x2="-0.053" y2="0.185" xlink:href="#linear-gradient-6"/>
    <linearGradient id="linear-gradient-19" x1="259.481" y1="0.059" x2="261.483" y2="-1.721" xlink:href="#linear-gradient-6"/>
    <linearGradient id="linear-gradient-20" x1="24.605" y1="0.303" x2="25.607" y2="0.303" xlink:href="#linear-gradient-6"/>
    <linearGradient id="linear-gradient-21" x1="63.919" y1="0.247" x2="64.91" y2="0.247" xlink:href="#linear-gradient-6"/>
    <linearGradient id="linear-gradient-22" x1="78.957" y1="0.5" x2="79.957" y2="0.5" xlink:href="#linear-gradient-6"/>
    <linearGradient id="linear-gradient-23" x1="-2.291" y1="7.018" x2="-3.428" y2="8.299" xlink:href="#linear-gradient-6"/>
    <linearGradient id="linear-gradient-24" x1="-13.283" y1="24.541" x2="-10.677" y2="21.894" xlink:href="#linear-gradient-6"/>
  </defs>
  <g id="Grupo_28695" data-name="Grupo 28695" transform="translate(2.873 3.027)">
    <g id="Grupo_28689" data-name="Grupo 28689" transform="translate(0 44.39)">
      <g id="Grupo_28685" data-name="Grupo 28685" opacity="0.3">
        <path id="Trazado_68412" data-name="Trazado 68412" d="M525.669,912.778a.813.813,0,0,1-.838.792c-.855-.046-1.724-.055-2.584-.024a.814.814,0,0,1-.823-.792v-.016a.821.821,0,0,1,.771-.864c.9-.032,1.82-.023,2.72.026a.839.839,0,0,1,.755.879Zm-7.6,1.217c-.847.153-1.7.345-2.525.572a.8.8,0,0,1-.973-.6.841.841,0,0,1,.57-1.021c.871-.239,1.765-.441,2.657-.6a.8.8,0,0,1,.921.683.9.9,0,0,1,.011.1A.829.829,0,0,1,518.073,913.995Zm-6.5,1.977c-.791.346-1.578.732-2.339,1.149a.78.78,0,0,1-1.076-.355.858.858,0,0,1,.338-1.129c.8-.438,1.63-.845,2.463-1.21a.785.785,0,0,1,1.043.451.877.877,0,0,1,.06.278A.841.841,0,0,1,511.574,915.972Zm-5.915,3.453c-.7.523-1.384,1.085-2.036,1.669A.772.772,0,0,1,502.5,921a.867.867,0,0,1,.09-1.18c.687-.615,1.409-1.206,2.143-1.757a.774.774,0,0,1,1.112.195.865.865,0,0,1-.185,1.167Zm-5.034,4.75c-.569.672-1.119,1.379-1.633,2.1a.773.773,0,0,1-1.116.169.864.864,0,0,1-.161-1.171c.542-.76,1.12-1.5,1.719-2.21a.771.771,0,0,1,1.126-.069.851.851,0,0,1,.267.581A.861.861,0,0,1,500.624,924.174Zm-3.908,5.8c-.414.788-.8,1.6-1.15,2.427a.783.783,0,0,1-1.053.424.854.854,0,0,1-.4-1.1c.367-.866.775-1.725,1.21-2.555a.778.778,0,0,1,1.083-.329.842.842,0,0,1,.412.69A.866.866,0,0,1,496.717,929.974Zm-.691,31.066a.78.78,0,0,1-1.075-.357c-.416-.84-.8-1.711-1.149-2.588a.851.851,0,0,1,.432-1.093.785.785,0,0,1,1.042.453c.329.833.7,1.659,1.091,2.457a.868.868,0,0,1,.089.341A.845.845,0,0,1,496.026,961.04Zm-1.892-24.505c-.236.865-.44,1.75-.6,2.633a.8.8,0,0,1-.936.66.837.837,0,0,1-.629-.982c.174-.93.388-1.862.637-2.773a.793.793,0,0,1,.987-.573.83.83,0,0,1,.577.76A.883.883,0,0,1,494.133,936.535Zm-.762,17.765a.8.8,0,0,1-.972-.6c-.226-.916-.417-1.855-.569-2.79a.832.832,0,0,1,.653-.965.8.8,0,0,1,.92.685c.144.889.326,1.781.541,2.652a.868.868,0,0,1,.024.166A.833.833,0,0,1,493.371,954.3Zm-.359-10.764c-.046.9-.056,1.809-.029,2.71a.8.8,0,1,1-1.593.071c0-.006,0-.012,0-.018-.029-.948-.019-1.908.03-2.852a.8.8,0,0,1,1.593,0C493.013,943.475,493.013,943.5,493.012,943.535Z" transform="translate(-491.373 -911.854)" fill="#00223d"/>
        <path id="Trazado_68413" data-name="Trazado 68413" d="M551.824,1409.729a.855.855,0,0,0-.166-.468c-.252-.341-.5-.693-.742-1.046a.773.773,0,0,0-1.112-.2.863.863,0,0,0-.186,1.167c.253.372.515.742.781,1.1a.773.773,0,0,0,1.119.148A.853.853,0,0,0,551.824,1409.729Z" transform="translate(-543.722 -1356.383)" fill="#00223d"/>
      </g>
      <g id="Grupo_28686" data-name="Grupo 28686" transform="translate(26.469 11.452)" opacity="0.3">
        <path id="Trazado_68414" data-name="Trazado 68414" d="M761.835,1537.4a.821.821,0,0,0-.712-.787c-.409-.046-.824-.1-1.233-.165a.8.8,0,0,0-.906.7.83.83,0,0,0,.672.951c.431.067.868.126,1.3.174a.808.808,0,0,0,.878-.744A.891.891,0,0,0,761.835,1537.4Z" transform="translate(-758.975 -1483.064)" fill="#00223d"/>
        <path id="Trazado_68415" data-name="Trazado 68415" d="M846.325,1084.941a.8.8,0,1,1-1.6.006c0-.88-.042-1.773-.115-2.665a.826.826,0,0,1,.726-.906.81.81,0,0,1,.863.761q.048.58.077,1.157C846.308,1083.843,846.323,1084.4,846.325,1084.941Zm-1.391-6.31a.8.8,0,0,1-.953-.632c-.186-.865-.409-1.732-.663-2.576a.845.845,0,0,1,.52-1.05.791.791,0,0,1,1,.546c.267.888.5,1.8.7,2.711a.859.859,0,0,1,.019.141A.832.832,0,0,1,844.934,1078.631Zm1.108,10.86c-.118.923-.275,1.853-.468,2.764a.8.8,0,0,1-.951.636.839.839,0,0,1-.606-1c.183-.866.333-1.749.444-2.625a.806.806,0,0,1,.9-.718.822.822,0,0,1,.69.785A.89.89,0,0,1,846.042,1089.491Zm-3.172-17.7a.781.781,0,0,1-1.062-.4c-.362-.8-.761-1.594-1.186-2.359a.859.859,0,0,1,.287-1.144.777.777,0,0,1,1.091.3c.448.805.868,1.641,1.249,2.484a.867.867,0,0,1,.076.315A.844.844,0,0,1,842.87,1071.789Zm1.476,24.837c-.308.872-.657,1.743-1.036,2.588a.782.782,0,0,1-1.061.4.855.855,0,0,1-.383-1.114c.36-.8.691-1.629.984-2.458a.787.787,0,0,1,1.025-.494.835.835,0,0,1,.519.741A.876.876,0,0,1,844.346,1096.626ZM841.2,1103.2c-.484.782-1,1.552-1.549,2.289a.773.773,0,0,1-1.119.149.864.864,0,0,1-.142-1.174c.517-.7,1.012-1.432,1.472-2.175a.775.775,0,0,1,1.1-.246.845.845,0,0,1,.362.659A.863.863,0,0,1,841.2,1103.2Zm-4.437,5.7c-.635.653-1.3,1.286-1.987,1.88a.772.772,0,0,1-1.123-.11.865.865,0,0,1,.1-1.178c.649-.564,1.284-1.166,1.888-1.787a.771.771,0,0,1,1.128.011.866.866,0,0,1-.011,1.183Zm-5.515,4.545c-.756.492-1.54.956-2.332,1.378a.78.78,0,0,1-1.072-.366.857.857,0,0,1,.349-1.125c.752-.4,1.5-.842,2.215-1.309a.776.776,0,0,1,1.1.27.862.862,0,0,1,.119.4A.85.85,0,0,1,831.246,1113.438Zm-6.336,3.163c-.838.3-1.7.575-2.562.8a.8.8,0,0,1-.969-.605.842.842,0,0,1,.577-1.017c.819-.218,1.638-.475,2.434-.764a.789.789,0,0,1,1.014.517.873.873,0,0,1,.043.23A.838.838,0,0,1,824.91,1116.6Zm-6.836,1.625c-.649.078-1.31.136-1.961.172q-.354.02-.707.031a.806.806,0,0,1-.821-.81.821.821,0,0,1,.773-.863q.335-.011.672-.029c.62-.034,1.247-.089,1.865-.163a.807.807,0,0,1,.883.737c0,.017,0,.034,0,.052A.825.825,0,0,1,818.075,1118.226Z" transform="translate(-809.084 -1063.045)" fill="#00223d"/>
        <path id="Trazado_68416" data-name="Trazado 68416" d="M1046.757,1024.024a.86.86,0,0,0-.169-.472c-.266-.356-.545-.714-.829-1.062a.771.771,0,0,0-1.124-.094.865.865,0,0,0-.089,1.18c.269.331.534.67.787,1.009a.773.773,0,0,0,1.12.142A.855.855,0,0,0,1046.757,1024.024Z" transform="translate(-1016.128 -1022.197)" fill="#00223d"/>
      </g>
      <g id="Grupo_28688" data-name="Grupo 28688" transform="translate(7.58 8.245)">
        <path id="Trazado_68417" data-name="Trazado 68417" d="M603.953,994.594a.359.359,0,0,0-.433-.005l-3.726,2.715a19.007,19.007,0,0,0-6.219-1.594l-2.116-4.207a.368.368,0,0,0-.387-.2l-5.377.873a.381.381,0,0,0-.31.317l-.805,4.681a19.615,19.615,0,0,0-5.47,3.492l-4.334-1.406a.363.363,0,0,0-.411.143l-3.214,4.607a.407.407,0,0,0-.005.454l2.587,3.91a21.574,21.574,0,0,0-1.519,6.526l-4.009,2.22a.4.4,0,0,0-.194.406l.832,5.642a.383.383,0,0,0,.3.325l4.461.845a20.948,20.948,0,0,0,3.328,5.74l-1.34,4.548a.4.4,0,0,0,.136.431l4.391,3.372a.359.359,0,0,0,.433.006l3.726-2.715a19,19,0,0,0,6.219,1.594l2.116,4.207a.368.368,0,0,0,.387.2l5.377-.873a.382.382,0,0,0,.31-.317l.805-4.682a19.615,19.615,0,0,0,5.469-3.492l4.334,1.406a.363.363,0,0,0,.411-.143l3.214-4.607a.407.407,0,0,0,.005-.454l-2.587-3.91a21.577,21.577,0,0,0,1.519-6.526l4.009-2.22a.4.4,0,0,0,.194-.406l-.832-5.643a.383.383,0,0,0-.3-.325l-4.461-.845a20.954,20.954,0,0,0-3.328-5.739l1.34-4.548a.4.4,0,0,0-.136-.431Z" transform="translate(-568.006 -991.294)" fill="#e2dfdf"/>
        <g id="Grupo_28687" data-name="Grupo 28687" transform="translate(18.561 19.476)">
          <path id="Trazado_68418" data-name="Trazado 68418" d="M766.571,1185.224a5.555,5.555,0,0,1-5.958,5.177,5.361,5.361,0,0,1-3.7-2.053,5.892,5.892,0,0,1-1.233-4.2,5.555,5.555,0,0,1,5.958-5.177,5.633,5.633,0,0,1,4.95,5.409A6.065,6.065,0,0,1,766.571,1185.224Zm-8.675,2.27a4.111,4.111,0,0,0,2.837,1.574,4.259,4.259,0,0,0,4.568-3.969,4.352,4.352,0,0,0-3.783-4.793,4.259,4.259,0,0,0-4.568,3.969,4.672,4.672,0,0,0-.013.653A4.493,4.493,0,0,0,757.9,1187.493Z" transform="translate(-755.655 -1178.947)" fill="#00223d"/>
        </g>
        <path id="Trazado_68419" data-name="Trazado 68419" d="M701.094,1112.553q-.036-.72-.142-1.443h0q-.034-.227-.074-.453a14.755,14.755,0,0,0-.565-2.181l-.01-.029-.029-.082c-.019-.053-.038-.106-.057-.159a.311.311,0,0,0-.412-.193.34.34,0,0,0-.184.432,14.04,14.04,0,0,1,.7,2.767,13.813,13.813,0,0,1-4.22,12.164,12.439,12.439,0,0,1-7.792,3.319,12.3,12.3,0,0,1-8.214-2.58,13.471,13.471,0,0,1-5.094-8.791c-1.08-7.328,3.72-14.207,10.7-15.34a12.24,12.24,0,0,1,6.779.827.3.3,0,0,0,.137.024.319.319,0,0,0,.279-.208.34.34,0,0,0-.175-.436,12.858,12.858,0,0,0-7.116-.868c-7.329,1.19-12.368,8.417-11.234,16.1a14.142,14.142,0,0,0,5.347,9.229,12.908,12.908,0,0,0,8.623,2.708,13.1,13.1,0,0,0,1.376-.149,13.28,13.28,0,0,0,8.8-5.611A14.5,14.5,0,0,0,701.094,1112.553Z" transform="translate(-663.706 -1087.961)" fill="#00223d"/>
      </g>
    </g>
    <g id="Grupo_28694" data-name="Grupo 28694" transform="translate(14.556 0)">
      <g id="Grupo_28690" data-name="Grupo 28690" opacity="0.3">
        <path id="Trazado_68420" data-name="Trazado 68420" d="M887.113,488.038a.511.511,0,0,0-.378-.475c-.407-.1-.822-.191-1.234-.267a.5.5,0,0,0-.57.42.514.514,0,0,0,.4.6c.393.072.789.158,1.177.254a.492.492,0,0,0,.593-.384A.548.548,0,0,0,887.113,488.038Z" transform="translate(-860.553 -486.963)" fill="#00223d"/>
        <path id="Trazado_68421" data-name="Trazado 68421" d="M661.349,484.732a.5.5,0,0,1-.516.491,19.556,19.556,0,0,0-2.067,0q-.217.012-.435.029a.5.5,0,0,1-.527-.478.527.527,0,0,1,.455-.554q.228-.017.455-.03a20.388,20.388,0,0,1,2.167,0,.505.505,0,0,1,.468.489C661.349,484.7,661.349,484.714,661.349,484.732Zm-5.5.876a19.659,19.659,0,0,0-2.419.667.488.488,0,0,1-.622-.329.524.524,0,0,1,.314-.653,20.553,20.553,0,0,1,2.536-.7.494.494,0,0,1,.579.407.566.566,0,0,1,.008.074A.513.513,0,0,1,655.852,485.608Zm-4.741,1.642a19.979,19.979,0,0,0-2.189,1.27.479.479,0,0,1-.68-.158.531.531,0,0,1,.151-.714,20.99,20.99,0,0,1,2.3-1.332.483.483,0,0,1,.656.245.542.542,0,0,1,.047.194A.522.522,0,0,1,651.111,487.25Zm-4.212,2.815a20.785,20.785,0,0,0-1.826,1.793.476.476,0,0,1-.7.021.536.536,0,0,1-.02-.73,21.825,21.825,0,0,1,1.915-1.881.477.477,0,0,1,.694.069.535.535,0,0,1-.066.728Zm-3.429,3.808a21.681,21.681,0,0,0-1.356,2.2.48.48,0,0,1-.671.2.53.53,0,0,1-.188-.7,22.8,22.8,0,0,1,1.421-2.311.478.478,0,0,1,.689-.11.523.523,0,0,1,.2.39A.533.533,0,0,1,643.47,493.873Zm-2.444,4.566a21.92,21.92,0,0,0-.8,2.483.491.491,0,0,1-.6.364.521.521,0,0,1-.347-.634,23,23,0,0,1,.841-2.6.485.485,0,0,1,.642-.282.517.517,0,0,1,.305.451A.538.538,0,0,1,641.026,498.44Zm-1.305,5.053a22.261,22.261,0,0,0-.2,2.616.493.493,0,1,1-.985-.018,23.5,23.5,0,0,1,.206-2.743.5.5,0,0,1,.557-.439.508.508,0,0,1,.423.484A.576.576,0,0,1,639.721,503.492Zm-.037,8.447a.492.492,0,0,1-.591-.386,23.494,23.494,0,0,1-.4-2.354c-.015-.12-.028-.24-.04-.36a.506.506,0,0,1,.439-.568.5.5,0,0,1,.541.46c.011.113.023.225.037.34a22.437,22.437,0,0,0,.378,2.248.53.53,0,0,1,.012.09A.514.514,0,0,1,639.684,511.939Z" transform="translate(-638.539 -484.164)" fill="#00223d"/>
      </g>
      <g id="Grupo_28691" data-name="Grupo 28691" transform="translate(31.067 7.664)" opacity="0.3">
        <path id="Trazado_68422" data-name="Trazado 68422" d="M964.09,599.688a23.626,23.626,0,0,1-.054,2.7.5.5,0,0,1-.531.473.513.513,0,0,1-.451-.557,22.422,22.422,0,0,0,.051-2.58.493.493,0,1,1,.984-.048Zm-.665-2.1a.5.5,0,0,1-.564-.428,22.542,22.542,0,0,0-.536-2.52.522.522,0,0,1,.338-.639.489.489,0,0,1,.609.354,23.533,23.533,0,0,1,.562,2.642.506.506,0,0,1,.006.056A.512.512,0,0,1,963.425,597.587Zm.245,7.486a23.336,23.336,0,0,1-.675,2.612.488.488,0,0,1-.624.324.523.523,0,0,1-.309-.655,22.327,22.327,0,0,0,.645-2.491.493.493,0,0,1,.582-.4.511.511,0,0,1,.392.479A.544.544,0,0,1,963.669,605.073Zm-1.522-12.595a.484.484,0,0,1-.646-.273,21.705,21.705,0,0,0-1.1-2.309.532.532,0,0,1,.179-.706.48.48,0,0,1,.673.188,22.641,22.641,0,0,1,1.154,2.422.536.536,0,0,1,.039.175A.52.52,0,0,1,962.147,592.479Zm-.126,17.711a22.8,22.8,0,0,1-1.254,2.364.479.479,0,0,1-.681.157.532.532,0,0,1-.15-.714,21.606,21.606,0,0,0,1.2-2.255.483.483,0,0,1,.657-.242.518.518,0,0,1,.279.439A.537.537,0,0,1,962.021,610.19Zm-2.77,4.553a22.215,22.215,0,0,1-1.757,1.982.476.476,0,0,1-.7-.018.535.535,0,0,1,.017-.731,21.253,21.253,0,0,0,1.676-1.891.477.477,0,0,1,.693-.07.535.535,0,0,1,.067.728Zm-3.729,3.727a21.229,21.229,0,0,1-2.16,1.482.48.48,0,0,1-.672-.193.531.531,0,0,1,.184-.7,20.067,20.067,0,0,0,2.059-1.413.478.478,0,0,1,.689.106.535.535,0,0,1-.1.723Z" transform="translate(-952.626 -585.89)" fill="#00223d"/>
        <path id="Trazado_68423" data-name="Trazado 68423" d="M1010.318,559.5a.532.532,0,0,0-.1-.284c-.254-.353-.52-.7-.789-1.03a.477.477,0,0,0-.695-.058.536.536,0,0,0-.055.729c.257.315.51.646.752.983a.477.477,0,0,0,.69.1A.528.528,0,0,0,1010.318,559.5Z" transform="translate(-1003.03 -558)" fill="#00223d"/>
      </g>
      <g id="Grupo_28693" data-name="Grupo 28693" transform="translate(5.03 5.474)">
        <path id="Trazado_68424" data-name="Trazado 68424" d="M713.443,539.115a.241.241,0,0,0-.29,0l-2.494,1.817a12.717,12.717,0,0,0-4.162-1.066l-1.416-2.815a.247.247,0,0,0-.259-.136l-3.6.584a.255.255,0,0,0-.207.212l-.539,3.133a13.12,13.12,0,0,0-3.66,2.336l-2.9-.941a.243.243,0,0,0-.275.1l-2.151,3.083a.272.272,0,0,0,0,.3l1.731,2.616a14.441,14.441,0,0,0-1.016,4.367l-2.683,1.486a.266.266,0,0,0-.13.271l.557,3.776a.256.256,0,0,0,.2.217l2.986.565a14.014,14.014,0,0,0,2.227,3.84l-.9,3.043a.269.269,0,0,0,.091.288l2.938,2.257a.24.24,0,0,0,.289,0l2.494-1.817a12.716,12.716,0,0,0,4.162,1.066l1.416,2.815a.246.246,0,0,0,.259.136l3.6-.584a.255.255,0,0,0,.207-.212l.538-3.133a13.126,13.126,0,0,0,3.66-2.337l2.9.941a.243.243,0,0,0,.275-.1l2.151-3.083a.272.272,0,0,0,0-.3l-1.731-2.617a14.436,14.436,0,0,0,1.016-4.367l2.683-1.486a.265.265,0,0,0,.13-.271l-.557-3.776a.257.257,0,0,0-.2-.218l-2.985-.565a14.018,14.018,0,0,0-2.227-3.84l.9-3.043a.269.269,0,0,0-.091-.288Z" transform="translate(-689.389 -536.906)" fill="#e2dfdf"/>
        <g id="Grupo_28692" data-name="Grupo 28692" transform="translate(12.355 12.964)">
          <path id="Trazado_68425" data-name="Trazado 68425" d="M821.732,666.087a3.943,3.943,0,0,1-1.333,2.646,3.583,3.583,0,0,1-2.725.881,3.868,3.868,0,0,1-3.361-4.258,3.784,3.784,0,0,1,4.058-3.526,3.653,3.653,0,0,1,2.521,1.4,3.992,3.992,0,0,1,.851,2.28A4.2,4.2,0,0,1,821.732,666.087Zm-3.966,2.5a2.637,2.637,0,0,0,2-.648,2.9,2.9,0,0,0,.98-1.946h0a2.958,2.958,0,0,0-.618-2.1,2.686,2.686,0,0,0-1.854-1.029,2.784,2.784,0,0,0-2.985,2.594,3.068,3.068,0,0,0-.008.422A2.823,2.823,0,0,0,817.766,668.584Z" transform="translate(-814.297 -661.811)" fill="#00223d"/>
        </g>
        <path id="Trazado_68426" data-name="Trazado 68426" d="M776.164,615.492q-.025-.49-.1-.985a10.187,10.187,0,0,0-.476-1.92l-.03-.083a.492.492,0,0,0-.485-.331.469.469,0,0,0-.151.034.526.526,0,0,0-.283.668,9.07,9.07,0,0,1,.453,1.791h0c.005.033.01.067.014.1a9.015,9.015,0,0,1-.424,4.239,8.9,8.9,0,0,1-1.05,2.068l-.011.016-.033.048a8.189,8.189,0,0,1-5.424,3.46,8.05,8.05,0,0,1-.849.092,7.962,7.962,0,0,1-5.318-1.67,8.722,8.722,0,0,1-3.3-5.691,8.982,8.982,0,0,1,1.5-6.471,8.19,8.19,0,0,1,5.424-3.46,7.925,7.925,0,0,1,4.388.535.469.469,0,0,0,.211.037.494.494,0,0,0,.43-.321.526.526,0,0,0-.271-.674,8.867,8.867,0,0,0-4.909-.6,9.161,9.161,0,0,0-6.069,3.871,10.031,10.031,0,0,0-1.682,7.24,9.754,9.754,0,0,0,3.689,6.367,8.906,8.906,0,0,0,5.949,1.869,9.086,9.086,0,0,0,.949-.1A9.648,9.648,0,0,0,776.164,615.492Z" transform="translate(-750.868 -599.061)" fill="#00223d"/>
      </g>
    </g>
  </g>
  <g id="Grupo_28702" data-name="Grupo 28702" transform="translate(38.954)">
    <path id="Trazado_68431" data-name="Trazado 68431" d="M856.149,791.665c0-9.791,7.564-17.728,16.895-17.728h143.67c7.926,0,14.462,6.518,14.865,14.824l10.6,218.567c.315,6.5-4.561,11.983-10.762,12.1l-164.664,3.141a10.674,10.674,0,0,1-10.608-10.931Z" transform="translate(-856.149 -740.834)" fill="#00223d"/>
    <path id="Trazado_68432" data-name="Trazado 68432" d="M937.017,2773.342h-.005l-18.425-.25c-6.161-.084-11.173-5.412-11.173-11.877v-29.19a.394.394,0,1,1,.787,0v29.19a10.853,10.853,0,0,0,10.4,11.052l18.425.25a.413.413,0,0,1,0,.826Z" transform="translate(-902.343 -2495.322)" fill="#91b3fa"/>
    <path id="Trazado_68433" data-name="Trazado 68433" d="M907.807,2604.5a.4.4,0,0,1-.393-.413v-4.727a.394.394,0,1,1,.787,0v4.727A.4.4,0,0,1,907.807,2604.5Z" transform="translate(-902.343 -2376.428)" fill="url(#linear-gradient)"/>
    <g id="Grupo_28700" data-name="Grupo 28700" transform="translate(11.77 31.283)">
      <path id="Trazado_68434" data-name="Trazado 68434" d="M975.145,761.592a5,5,0,0,1,5.566-5.136c19.62,2.792,87.086,11.426,142.866,6.933a4.619,4.619,0,0,1,4.887,4.491l11.12,219.542a5.39,5.39,0,0,1-4.906,5.762c-23.46,1.457-120.076,7.088-154.538,3.3a4.269,4.269,0,0,1-3.7-4.3Z" transform="translate(-975.145 -756.408)" fill="#dbdada"/>
      <path id="Trazado_68435" data-name="Trazado 68435" d="M998.509,816.284a4.808,4.808,0,0,1,5.356-4.943c18.881,2.687,83.807,11,137.486,6.672a4.444,4.444,0,0,1,4.7,4.322l10.7,211.275a5.188,5.188,0,0,1-4.721,5.546c-22.577,1.4-115.555,6.822-148.719,3.177a4.108,4.108,0,0,1-3.563-4.135Z" transform="translate(-996.198 -805.599)" fill="#fff"/>
      <path id="Trazado_68436" data-name="Trazado 68436" d="M1175.186,988.634l2.005,45.3a2.811,2.811,0,0,0,2.663,2.747c7.995.237,32.906.874,46.971.1a3.147,3.147,0,0,0,2.9-3.109c.268-8.495.855-33.219-.99-43.554a3.514,3.514,0,0,0-3.283-2.952l-47.253-1.734A2.994,2.994,0,0,0,1175.186,988.634Z" transform="translate(-1155.396 -961.66)" fill="#dbdada"/>
      <path id="Trazado_68437" data-name="Trazado 68437" d="M1886.292,1019.38a1.477,1.477,0,0,0,1.483-1.519,1.616,1.616,0,0,0-1.567-1.548l-52.133-.975a1.031,1.031,0,0,0-1.018,1.481l.353,1.052a2.322,2.322,0,0,0,2.032,1.509Z" transform="translate(-1748.126 -988.463)" fill="#dbdada"/>
      <path id="Trazado_68438" data-name="Trazado 68438" d="M1834.076,1096.695a1.031,1.031,0,0,0-1.018,1.481l.353,1.052a2.322,2.322,0,0,0,2.032,1.509h50.85a1.477,1.477,0,0,0,1.483-1.52,1.616,1.616,0,0,0-1.567-1.548Z" transform="translate(-1748.126 -1061.376)" fill="#dbdada"/>
      <path id="Trazado_68439" data-name="Trazado 68439" d="M1834.076,1179.235a1.031,1.031,0,0,0-1.018,1.481l.353,1.052a2.322,2.322,0,0,0,2.032,1.51h50.85a1.477,1.477,0,0,0,1.483-1.52,1.616,1.616,0,0,0-1.567-1.548Z" transform="translate(-1748.126 -1135.349)" fill="#dbdada"/>
      <path id="Trazado_68440" data-name="Trazado 68440" d="M1834.076,1273.177a1.031,1.031,0,0,0-1.018,1.481l.353,1.052a2.322,2.322,0,0,0,2.032,1.509h50.85a1.477,1.477,0,0,0,1.483-1.52,1.616,1.616,0,0,0-1.567-1.548Z" transform="translate(-1748.126 -1219.541)" fill="#dbdada"/>
      <path id="Trazado_68441" data-name="Trazado 68441" d="M1834.076,1365.859a1.031,1.031,0,0,0-1.018,1.481l.353,1.052a2.322,2.322,0,0,0,2.032,1.509h50.85a1.477,1.477,0,0,0,1.483-1.519,1.616,1.616,0,0,0-1.567-1.548Z" transform="translate(-1748.126 -1302.603)" fill="#dbdada"/>
      <path id="Trazado_68442" data-name="Trazado 68442" d="M1304.691,1581.192a1.416,1.416,0,0,0,1.43-1.519,1.666,1.666,0,0,0-1.62-1.532l-121.708-1.006c-.839-.007-1.1.551-.575,1.239l1.189,1.567a3.528,3.528,0,0,0,2.475,1.252Z" transform="translate(-1161.491 -1491.95)" fill="#dbdada"/>
      <path id="Trazado_68443" data-name="Trazado 68443" d="M1182.792,1658.49c-.839-.007-1.1.551-.575,1.239l1.189,1.567a3.529,3.529,0,0,0,2.475,1.252h118.81a1.416,1.416,0,0,0,1.43-1.52,1.665,1.665,0,0,0-1.62-1.532Z" transform="translate(-1161.491 -1564.863)" fill="#dbdada"/>
      <path id="Trazado_68444" data-name="Trazado 68444" d="M1170.238,1790.991c2.919-.235,8.385-.344,11.393-.388a2.754,2.754,0,0,1,2.692,2.188,48.823,48.823,0,0,1,1.281,11.559,2.479,2.479,0,0,1-2.443,2.488l-11.1-.125a2.721,2.721,0,0,1-2.626-2.537l-.976-10.96A2.012,2.012,0,0,1,1170.238,1790.991Z" transform="translate(-1149.328 -1683.264)" fill="#fff" opacity="0.6"/>
      <path id="Trazado_68445" data-name="Trazado 68445" d="M1380.565,1837.624a1.252,1.252,0,0,0-1.3,1.516l.316,2.207a1.862,1.862,0,0,0,1.752,1.583h27.282a1.546,1.546,0,0,0,1.506-1.6l-.01-.81a1.678,1.678,0,0,0-1.543-1.667Z" transform="translate(-1339.28 -1725.402)" fill="#dbdada"/>
      <path id="Trazado_68446" data-name="Trazado 68446" d="M1781.762,1790.991c2.918-.235,8.385-.344,11.393-.388a2.754,2.754,0,0,1,2.692,2.188,48.8,48.8,0,0,1,1.281,11.559,2.479,2.479,0,0,1-2.443,2.488l-11.1-.125a2.721,2.721,0,0,1-2.626-2.537l-.976-10.96A2.012,2.012,0,0,1,1781.762,1790.991Z" transform="translate(-1700.364 -1683.264)" fill="#dbdada"/>
      <path id="Trazado_68447" data-name="Trazado 68447" d="M1992.088,1837.624a1.252,1.252,0,0,0-1.3,1.516l.316,2.207a1.862,1.862,0,0,0,1.752,1.583h27.282a1.546,1.546,0,0,0,1.506-1.6l-.009-.81a1.678,1.678,0,0,0-1.543-1.667Z" transform="translate(-1890.316 -1725.402)" fill="#dbdada"/>
      <g id="Grupo_28699" data-name="Grupo 28699" transform="translate(22.582 132.837)">
        <path id="Trazado_68448" data-name="Trazado 68448" d="M1217.441,2086.2h-.028l-10.246-.1a2.8,2.8,0,0,1-2.81-2.458l-.9-9.021a2.025,2.025,0,0,1,.441-1.474,2.212,2.212,0,0,1,1.567-.812h0c.863-.062,2.079-.171,3.365-.286,2.71-.242,6.082-.543,7.98-.568a2.877,2.877,0,0,1,2.869,2.105c.534,2.071.487,5.99.385,10.166A2.581,2.581,0,0,1,1217.441,2086.2Zm-11.922-13.043a1.433,1.433,0,0,0-1.019.519,1.175,1.175,0,0,0-.261.856l.9,9.02a2,2,0,0,0,2.036,1.719l10.245.1h.02a1.776,1.776,0,0,0,1.837-1.645c.1-4.112.148-7.965-.359-9.929a2.121,2.121,0,0,0-2.1-1.5c-1.869.025-5.226.325-7.923.566-1.29.115-2.509.224-3.379.286Z" transform="translate(-1203.447 -2067.823)" fill="#fff"/>
        <path id="Trazado_68449" data-name="Trazado 68449" d="M1223.513,2090.721c2.152-.155,6.83-.653,9.049-.682a1.992,1.992,0,0,1,1.985,1.439c.428,1.661.371,4.972.3,8.029a1.735,1.735,0,0,1-1.8,1.636l-8.187-.082a1.92,1.92,0,0,1-1.937-1.669l-.719-7.208A1.37,1.37,0,0,1,1223.513,2090.721Z" transform="translate(-1220.339 -2084.458)" fill="url(#linear-gradient-2)"/>
        <path id="Trazado_68450" data-name="Trazado 68450" d="M1435.13,2126.675a2.566,2.566,0,0,0,2.481,1.989l94.794-.848a2.021,2.021,0,0,0-.008-4.037l-94.8-.454A2.643,2.643,0,0,0,1435.13,2126.675Z" transform="translate(-1412.137 -2114.289)" fill="#dbdada"/>
        <path id="Trazado_68451" data-name="Trazado 68451" d="M1232.561,2043.946h0a1.533,1.533,0,0,1,2.169.619l2.021,3.8a.5.5,0,0,0,.9-.041l5.012-11.709a.557.557,0,0,1,1.07.254,23.751,23.751,0,0,1-6.411,16.088s-3.005-1.226-5.426-6.8A1.776,1.776,0,0,1,1232.561,2043.946Z" transform="translate(-1228.95 -2036.269)" fill="#00223d"/>
        <path id="Trazado_68452" data-name="Trazado 68452" d="M1217.441,2308.191h-.028l-10.246-.1a2.8,2.8,0,0,1-2.81-2.458l-.9-9.02a2.023,2.023,0,0,1,.441-1.474,2.213,2.213,0,0,1,1.567-.812h0c.863-.062,2.079-.171,3.365-.285,2.71-.242,6.082-.543,7.98-.568h.041a2.873,2.873,0,0,1,2.828,2.106c.534,2.071.487,5.99.385,10.166A2.581,2.581,0,0,1,1217.441,2308.191Zm-11.922-13.043a1.432,1.432,0,0,0-1.019.519,1.175,1.175,0,0,0-.261.856l.9,9.02a2,2,0,0,0,2.036,1.719l10.245.1h.02a1.776,1.776,0,0,0,1.837-1.645c.1-4.112.148-7.965-.359-9.929a2.108,2.108,0,0,0-2.1-1.5c-1.869.024-5.225.324-7.923.565-1.29.115-2.509.224-3.379.287Z" transform="translate(-1203.447 -2266.775)" fill="#fff"/>
        <path id="Trazado_68453" data-name="Trazado 68453" d="M1223.513,2312.719c2.152-.154,6.83-.653,9.049-.681a1.99,1.99,0,0,1,1.985,1.439c.428,1.661.371,4.972.3,8.029a1.735,1.735,0,0,1-1.8,1.636l-8.187-.083a1.92,1.92,0,0,1-1.937-1.669l-.719-7.208A1.37,1.37,0,0,1,1223.513,2312.719Z" transform="translate(-1220.339 -2283.416)" fill="url(#linear-gradient-2)"/>
        <path id="Trazado_68454" data-name="Trazado 68454" d="M1435.13,2348.672a2.566,2.566,0,0,0,2.481,1.989l94.794-.848a2.021,2.021,0,0,0-.008-4.037l-94.8-.454A2.643,2.643,0,0,0,1435.13,2348.672Z" transform="translate(-1412.137 -2313.245)" fill="#dbdada"/>
        <path id="Trazado_68455" data-name="Trazado 68455" d="M1232.561,2265.944h0a1.534,1.534,0,0,1,2.169.619l2.021,3.8a.5.5,0,0,0,.9-.041l5.012-11.709a.557.557,0,0,1,1.07.254,23.749,23.749,0,0,1-6.411,16.088s-3.005-1.226-5.426-6.8A1.776,1.776,0,0,1,1232.561,2265.944Z" transform="translate(-1228.95 -2235.225)" fill="#00223d"/>
        <path id="Trazado_68456" data-name="Trazado 68456" d="M1217.441,2530.188h-.028l-10.246-.1a2.8,2.8,0,0,1-2.81-2.458l-.9-9.02a2.026,2.026,0,0,1,.441-1.475,2.213,2.213,0,0,1,1.567-.812h0c.863-.062,2.079-.17,3.365-.285,2.71-.242,6.082-.543,7.98-.569h.041a2.873,2.873,0,0,1,2.828,2.106c.534,2.071.487,5.99.385,10.166A2.581,2.581,0,0,1,1217.441,2530.188Zm-11.922-13.043a1.435,1.435,0,0,0-1.019.519,1.176,1.176,0,0,0-.261.857l.9,9.02a2,2,0,0,0,2.036,1.718l10.245.1h.02a1.776,1.776,0,0,0,1.837-1.645c.1-4.112.148-7.966-.359-9.929a2.106,2.106,0,0,0-2.1-1.5c-1.869.025-5.225.325-7.923.565-1.29.115-2.509.224-3.379.287Z" transform="translate(-1203.447 -2465.731)" fill="#fff"/>
        <path id="Trazado_68457" data-name="Trazado 68457" d="M1223.513,2534.716c2.152-.154,6.83-.653,9.049-.682a1.992,1.992,0,0,1,1.985,1.439c.428,1.662.371,4.973.3,8.029a1.735,1.735,0,0,1-1.8,1.636l-8.187-.083a1.919,1.919,0,0,1-1.937-1.668l-.719-7.208A1.37,1.37,0,0,1,1223.513,2534.716Z" transform="translate(-1220.339 -2482.371)" fill="url(#linear-gradient-2)"/>
        <path id="Trazado_68458" data-name="Trazado 68458" d="M1435.13,2570.67a2.567,2.567,0,0,0,2.481,1.989l94.794-.848a2.022,2.022,0,0,0-.008-4.037l-94.8-.454A2.643,2.643,0,0,0,1435.13,2570.67Z" transform="translate(-1412.137 -2512.202)" fill="#dbdada"/>
        <path id="Trazado_68459" data-name="Trazado 68459" d="M1232.561,2487.941h0a1.534,1.534,0,0,1,2.169.619l2.021,3.8a.5.5,0,0,0,.9-.041l5.012-11.709a.557.557,0,0,1,1.07.253,23.752,23.752,0,0,1-6.411,16.089s-3.005-1.226-5.426-6.8A1.776,1.776,0,0,1,1232.561,2487.941Z" transform="translate(-1228.95 -2434.181)" fill="#00223d"/>
        <path id="Trazado_68460" data-name="Trazado 68460" d="M1217.441,2752.186h-.028l-10.246-.1a2.8,2.8,0,0,1-2.81-2.458l-.9-9.02a2.027,2.027,0,0,1,.441-1.475,2.211,2.211,0,0,1,1.567-.811h0c.863-.062,2.079-.171,3.365-.286,2.71-.243,6.082-.543,7.98-.568h.041a2.872,2.872,0,0,1,2.828,2.106c.534,2.07.487,5.99.385,10.165A2.581,2.581,0,0,1,1217.441,2752.186Zm-11.922-13.043a1.431,1.431,0,0,0-1.019.519,1.177,1.177,0,0,0-.261.857l.9,9.02a2,2,0,0,0,2.036,1.719l10.245.1h.02a1.776,1.776,0,0,0,1.837-1.645c.1-4.112.148-7.966-.359-9.93a2.1,2.1,0,0,0-2.1-1.5c-1.869.025-5.225.325-7.923.566-1.29.115-2.509.224-3.379.287Z" transform="translate(-1203.447 -2664.687)" fill="#fff"/>
        <path id="Trazado_68461" data-name="Trazado 68461" d="M1223.513,2756.714c2.152-.154,6.83-.653,9.049-.682a1.992,1.992,0,0,1,1.985,1.439c.428,1.661.371,4.973.3,8.03a1.735,1.735,0,0,1-1.8,1.636l-8.187-.083a1.919,1.919,0,0,1-1.937-1.668l-.719-7.208A1.37,1.37,0,0,1,1223.513,2756.714Z" transform="translate(-1220.339 -2681.327)" fill="url(#linear-gradient-2)"/>
        <path id="Trazado_68462" data-name="Trazado 68462" d="M1435.13,2792.667h0a2.567,2.567,0,0,0,2.481,1.988l94.794-.848a2.021,2.021,0,0,0-.008-4.037l-94.8-.454A2.644,2.644,0,0,0,1435.13,2792.667Z" transform="translate(-1412.137 -2711.158)" fill="#dbdada"/>
        <path id="Trazado_68463" data-name="Trazado 68463" d="M1232.561,2709.939h0a1.533,1.533,0,0,1,2.169.619l2.021,3.8a.5.5,0,0,0,.9-.041l5.012-11.708a.557.557,0,0,1,1.07.253,23.75,23.75,0,0,1-6.411,16.088s-3.005-1.226-5.426-6.8A1.776,1.776,0,0,1,1232.561,2709.939Z" transform="translate(-1228.95 -2633.138)" fill="#00223d"/>
      </g>
    </g>
    <path id="Trazado_68464" data-name="Trazado 68464" d="M1684.725,458.3c-5.189-3.788-9.7-3.713-12.878-2.73a6.648,6.648,0,0,0-4.5,6.99l1.37,15.69,16.3,1.518S1694.9,465.731,1684.725,458.3Zm-7.168,12.658a4.27,4.27,0,1,1,4.064-4.265A4.168,4.168,0,0,1,1677.556,470.96Z" transform="translate(-1587.085 -455)" fill="#00223d"/>
    <g id="Grupo_28701" data-name="Grupo 28701" transform="translate(82.25 2.297)">
      <path id="Trazado_68465" data-name="Trazado 68465" d="M1688.7,491.489a.4.4,0,0,1-.391-.375l-.218-2.5a.408.408,0,0,1,.356-.449.4.4,0,0,1,.427.374l.218,2.5a.408.408,0,0,1-.356.449Zm-.427-4.9a.4.4,0,0,1-.391-.375l-.166-1.9a6.346,6.346,0,0,1,4.288-6.659,11.631,11.631,0,0,1,5.958-.257.412.412,0,0,1,.306.487.394.394,0,0,1-.464.321,10.9,10.9,0,0,0-5.577.24,5.519,5.519,0,0,0-3.727,5.792l.166,1.9a.408.408,0,0,1-.356.449Z" transform="translate(-1687.691 -477.135)" fill="#bdd0fb"/>
    </g>
    <path id="Trazado_68466" data-name="Trazado 68466" d="M1456.511,667.039v-7.888a4.7,4.7,0,0,1,4.745-4.811l51.83,1.863a4.569,4.569,0,0,1,4.3,4.4l.433,7.579Z" transform="translate(-1397.128 -633.648)" fill="#00223d"/>
    <path id="Trazado_68467" data-name="Trazado 68467" d="M1628.01,675.875h-2.229a.413.413,0,0,1,0-.825h2.229a.413.413,0,0,1,0,.825Z" transform="translate(-1549.3 -652.21)" fill="#bdd0fb"/>
    <path id="Trazado_68468" data-name="Trazado 68468" d="M1481.29,683.124a.4.4,0,0,1-.393-.413V679.52a4.375,4.375,0,0,1,4.261-4.471h8.195a.413.413,0,0,1,0,.825h-8.195a3.568,3.568,0,0,0-3.475,3.646v3.191A.4.4,0,0,1,1481.29,683.124Z" transform="translate(-1419.102 -652.21)" fill="#bdd0fb"/>
    <path id="Trazado_68469" data-name="Trazado 68469" d="M1241.14,753.759a5,5,0,0,1,4.878-4.879l90.635,0a6.8,6.8,0,0,1,6.6,5.83l.077.465a5.955,5.955,0,0,1-5.669,7.066h-92.986a3.846,3.846,0,0,1-3.736-4.113Z" transform="translate(-1202.875 -718.375)" fill="#dbdada"/>
  </g>
  <g id="Grupo_28708" data-name="Grupo 28708" transform="translate(0 66.585)">
    <g id="Grupo_28705" data-name="Grupo 28705" transform="translate(0 53.834)">
      <path id="Trazado_68470" data-name="Trazado 68470" d="M647.623,1789.063s-3.231,1.649-3.824,3.543c-.477,1.52-4.049,1.716-4.4,4.705a3.363,3.363,0,0,1-2.735,3.015c-3.648.587-9.271,2.575-10.17,9.222-.687,5.073,1.778,7,4.365,7.663a3.847,3.847,0,0,1,2.778,4.441c-.368,1.93.181,4.162,3.368,5.927,7.142,3.955,14.275-9.369,14.275-9.369l1.462-23.264Z" transform="translate(-610.149 -1771.019)" fill="#00223d"/>
      <path id="Trazado_68471" data-name="Trazado 68471" d="M954.72,1670.858s-9.19,26.29-24.85,34.506c0,0,5.212,8.924,7.932,9.465,0,0,16.729-22.467,18.434-40.873Z" transform="translate(-883.624 -1665.082)" fill="url(#linear-gradient-6)"/>
      <path id="Trazado_68472" data-name="Trazado 68472" d="M470.447,3181.328l-.462,3.987a1.61,1.61,0,0,1-1.377,1.441,23.147,23.147,0,0,1-5.085.083,1.409,1.409,0,0,1-1.129-1.829,14.8,14.8,0,0,1,2.549-5.21h4.215A1.341,1.341,0,0,1,470.447,3181.328Z" transform="translate(-462.33 -3017.411)" fill="#26a69a"/>
      <path id="Trazado_68473" data-name="Trazado 68473" d="M804.049,2744.522l.711,4.391s-2.382,25.322-2.806,35.451a8.24,8.24,0,0,0,1.119,4.511l4.143,7.059-10.528-6.519-.209-1.348,1.724-2.487-2.257-28.366a9.064,9.064,0,0,1,.944-4.814l2.178-4.293Z" transform="translate(-762.92 -2627.311)" fill="url(#linear-gradient-7)"/>
      <path id="Trazado_68474" data-name="Trazado 68474" d="M805.487,3159.207h-3.36a1.992,1.992,0,0,1-1.605-.826c-1.047-1.428-3.218-4.214-4.255-4.287-1.4-.1-1.218,5.113-1.218,5.113h-.783l-.992-6.476a3.89,3.89,0,0,1,1.917-4.006,5.5,5.5,0,0,0,2.051,3.574c1.731,1.1,7.046,5.021,7.046,5.021a4.582,4.582,0,0,1,1.365.038A.937.937,0,0,1,805.487,3159.207Z" transform="translate(-760.498 -2989.561)" fill="#26a69a"/>
      <path id="Trazado_68475" data-name="Trazado 68475" d="M502.486,2748.858s-13.957,27.781-16.175,34.123a63.419,63.419,0,0,0-3.026,12.135c-.047.783-.975,1.534-3.533,1.534a2.418,2.418,0,0,1-2.283-1.094,1.631,1.631,0,0,1-.056-1.515c.807-1.714,3.369-7.194,4.318-9.678,1.133-2.967,3.57-16.413,4.906-21.088s2.847-9.746,8.667-14.417C495.3,2748.858,499.3,2744.751,502.486,2748.858Z" transform="translate(-475.778 -2629.561)" fill="url(#linear-gradient-8)"/>
      <path id="Trazado_68476" data-name="Trazado 68476" d="M771.2,2036.816c3.6-16.008-5.52-25.062-5.52-25.062,5.755-5.8,16.24-8.434,16.24-8.434S791.928,2011,790.741,2017c-.7,3.521-7.033,21.091-7.033,21.091A13.347,13.347,0,0,1,771.2,2036.816Z" transform="translate(-735.678 -1963.038)" fill="#26a69a"/>
      <path id="Trazado_68477" data-name="Trazado 68477" d="M663.729,2333.97c1.465-4.632,7.982-7.925,7.982-7.925a13.348,13.348,0,0,0,12.505,1.278,27.578,27.578,0,0,1,.407,10.169c-.907,4.9-6.6,36.377-6.6,36.377-8.967,1.907-22.756-1.918-22.756-1.918C660.981,2361.312,662.264,2338.6,663.729,2333.97Z" transform="translate(-636.186 -2252.267)" fill="#26a69a"/>
      <path id="Trazado_68478" data-name="Trazado 68478" d="M836.661,1890.039l-2.927,13.8c-.28,1.215.776,1.016,1.946.785,1.917-.38,4.389-1.161,5.215-2.726a1.54,1.54,0,0,0,.15-.52l1.257-9.567a1.736,1.736,0,0,0-.959-1.806l-2.427-1.129A1.624,1.624,0,0,0,836.661,1890.039Z" transform="translate(-796.956 -1860.336)" fill="url(#linear-gradient-9)"/>
      <g id="Grupo_28703" data-name="Grupo 28703" transform="translate(33.15 11.665)">
        <path id="Trazado_68479" data-name="Trazado 68479" d="M842.226,1772.961s3.467,1.536,5.824,6.792.6,7.684-1.614,8.017-5.518.283-9.015-3.113S837.72,1771.14,842.226,1772.961Z" transform="translate(-832.237 -1768.058)" fill="url(#linear-gradient-10)"/>
        <path id="Trazado_68480" data-name="Trazado 68480" d="M805.007,1741.393s-2.615-7.69,3.883-7.781l1.529,1.122s2.384-4.264-1.529-6.3-8.493-.354-10.158,5.177-1.95,9.235.821,11.882,3.912-.354,3.912-.354-1.509-2.475-.894-3.8,2.031.274,2.031.274Z" transform="translate(-797.472 -1727.601)" fill="#00223d"/>
        <path id="Trazado_68481" data-name="Trazado 68481" d="M833.436,1844.949s-1.322-3.961-3.087-2.384,1.434,3.659,2.686,4.334Z" transform="translate(-826.63 -1830.301)" fill="url(#linear-gradient-11)"/>
      </g>
      <g id="Grupo_28704" data-name="Grupo 28704" transform="translate(69.267)">
        <path id="Trazado_68482" data-name="Trazado 68482" d="M1165.33,1625.774c.14.468-1.483,1.18-2.44-.733-.033-.917-.565-4.845-.043-5.592,2.781-3.978,5.717-4.236,5.717-4.236a13.549,13.549,0,0,1,1.527,3.167,4.012,4.012,0,0,1-.365,2.83c-.459.868-1.085,2-1.677,2.879A3.57,3.57,0,0,1,1165.33,1625.774Z" transform="translate(-1162.619 -1615.213)" fill="url(#linear-gradient-12)"/>
      </g>
      <path id="Trazado_68483" data-name="Trazado 68483" d="M747.27,2016.015s26.774,34.306,46.778-4.755a5.053,5.053,0,0,0,.144-2.44,24.369,24.369,0,0,1,.589-4.629.722.722,0,0,0-.616-.866.928.928,0,0,0-.836.376l-3.654,4.882a2.083,2.083,0,0,0,1.034,2.43,1.036,1.036,0,0,1,.357,1.525c-15.213,20.925-40.657-2.037-41.123-1.767C748.292,2011.727,746.383,2012.784,747.27,2016.015Z" transform="translate(-718.883 -1963.038)" fill="url(#linear-gradient-13)"/>
    </g>
    <g id="Grupo_28707" data-name="Grupo 28707" transform="translate(45.807)">
      <path id="Trazado_68484" data-name="Trazado 68484" d="M1126.421,1865.269c.042-.55.578-1.027,1.485-1.408-.986-.571-1.531-1.182-1.485-1.781.14-1.814,5.615-2.832,12.231-2.272s11.865,2.484,11.726,4.3c-.042.55-.578,1.026-1.485,1.408.986.57,1.531,1.182,1.485,1.782-.042.55-.578,1.026-1.485,1.408.986.57,1.531,1.182,1.485,1.781-.042.55-.578,1.027-1.485,1.409.986.57,1.531,1.182,1.485,1.781-.062.8-1.168,1.448-2.955,1.872a16.849,16.849,0,0,1-.045,1.961c-.259,3.344-3.843,5.965-8.583,5.965s-8.843-3.574-8.89-6.928a17.7,17.7,0,0,1,.093-2.189c-2.268-.795-3.649-1.765-3.577-2.707.042-.551.578-1.027,1.485-1.409-.986-.571-1.531-1.182-1.485-1.781.042-.551.578-1.027,1.485-1.408C1126.921,1866.48,1126.375,1865.869,1126.421,1865.269Z" transform="translate(-1106.539 -1780.449)" fill="url(#linear-gradient-14)"/>
      <g id="Grupo_28706" data-name="Grupo 28706" transform="translate(21.793 83.579)">
        <path id="Trazado_68485" data-name="Trazado 68485" d="M1180.04,2004.018a27.271,27.271,0,0,0,5.248-.45.166.166,0,0,0,.126-.195.159.159,0,0,0-.186-.132,32.63,32.63,0,0,1-8.741.29,35.992,35.992,0,0,1-7.331-1.327.158.158,0,0,0-.2.114.168.168,0,0,0,.108.207,36.287,36.287,0,0,0,7.395,1.339C1177.692,2003.966,1178.894,2004.018,1180.04,2004.018Z" transform="translate(-1166.659 -1991.776)" fill="#91b3fa"/>
        <path id="Trazado_68486" data-name="Trazado 68486" d="M1159.108,1965.73a23.841,23.841,0,0,0,6.443-.733.168.168,0,0,0,.109-.206.158.158,0,0,0-.2-.115,29.338,29.338,0,0,1-9.876.568,29.814,29.814,0,0,1-9.6-2.192.156.156,0,0,0-.211.082.17.17,0,0,0,.078.221,30.122,30.122,0,0,0,9.71,2.222C1156.775,1965.68,1157.969,1965.73,1159.108,1965.73Z" transform="translate(-1145.76 -1956.681)" fill="#91b3fa"/>
        <path id="Trazado_68487" data-name="Trazado 68487" d="M1159.141,1935a22.175,22.175,0,0,0,6.792-.858.169.169,0,0,0,.1-.21.157.157,0,0,0-.2-.106c-2.259.781-6.089,1.038-10.245.687a29.807,29.807,0,0,1-9.6-2.193.156.156,0,0,0-.211.082.17.17,0,0,0,.078.221,30.118,30.118,0,0,0,9.71,2.222C1156.794,1934.947,1158,1935,1159.141,1935Z" transform="translate(-1145.76 -1929.136)" fill="#91b3fa"/>
        <path id="Trazado_68488" data-name="Trazado 68488" d="M1159.573,1904.467a26.15,26.15,0,0,0,5.721-.546.167.167,0,0,0,.12-.2.159.159,0,0,0-.189-.127,31.594,31.594,0,0,1-9.184.385,30.026,30.026,0,0,1-9.554-2.169.156.156,0,0,0-.21.083.17.17,0,0,0,.079.221,30.339,30.339,0,0,0,9.66,2.2C1157.233,1904.416,1158.43,1904.467,1159.573,1904.467Z" transform="translate(-1146.213 -1901.797)" fill="#91b3fa"/>
      </g>
      <path id="Trazado_68489" data-name="Trazado 68489" d="M973.716,1165.248a23.922,23.922,0,0,1,4.006-8.208,55.813,55.813,0,0,0,11.154-30.256c1.15-21.027-16.622-31.554-32.839-30.125s-32.22,14.1-30.468,33.661c1.078,12.036,7.5,21.166,12.278,26.409a28.239,28.239,0,0,1,6.373,11.848c1.435,5.435,4.849,12.208,12.963,12.621C967.683,1181.733,972.044,1171.463,973.716,1165.248Z" transform="translate(-925.437 -1096.531)" fill="#ffa726"/>
      <path id="Trazado_68490" data-name="Trazado 68490" d="M1155.855,1526.936l-5.674-38.727c-.117-.8-.492-1.337-.838-1.2s-.531.9-.414,1.7c0,.021.007.048.011.068l6.464,38.368c.049.289.188.471.312.407S1155.9,1527.215,1155.855,1526.936Z" transform="translate(-1126.791 -1446.461)" fill="#00223d"/>
      <path id="Trazado_68491" data-name="Trazado 68491" d="M1278.707,1529.9l5.675-38.727c.117-.8.493-1.338.838-1.2s.531.9.414,1.7c0,.021-.007.048-.011.068l-6.464,38.368c-.048.288-.188.471-.312.407S1278.667,1530.178,1278.707,1529.9Z" transform="translate(-1243.753 -1449.117)" fill="#00223d"/>
      <path id="Trazado_68492" data-name="Trazado 68492" d="M1161.714,1426.271a.578.578,0,0,1,.745-.2l3.16,1.549,1.1-3.279a.688.688,0,0,1,.384-.406.762.762,0,0,1,.971.314l.006.01,2.6,4.972,2.411-7.077,0-.012a.8.8,0,0,1,.365-.432.917.917,0,0,1,1.193.246l3.633,5.248a.473.473,0,0,1-.128.662.588.588,0,0,1-.773-.088l-3.2-3.744-2.88,6.732,0,.005a.522.522,0,0,1-.254.261.586.586,0,0,1-.754-.205l-2.779-4.679-1.046,2.367-.009.021a.488.488,0,0,1-.026.05.578.578,0,0,1-.744.2l-3.75-1.839A.478.478,0,0,1,1161.714,1426.271Z" transform="translate(-1138.284 -1387.849)" fill="#00223d" opacity="0.79"/>
      <path id="Trazado_68493" data-name="Trazado 68493" d="M1015.994,1576.154a.982.982,0,0,0,.605-.21,1.1,1.1,0,0,0,.21-1.493,43.93,43.93,0,0,1-2.614-4.166.991.991,0,0,0-1.389-.39,1.1,1.1,0,0,0-.372,1.457,46.056,46.056,0,0,0,2.741,4.371A1,1,0,0,0,1015.994,1576.154Z" transform="translate(-1003.707 -1520.636)" fill="#fff" opacity="0.79"/>
      <path id="Trazado_68494" data-name="Trazado 68494" d="M965.992,1295.509a.974.974,0,0,0,.4-.089,1.088,1.088,0,0,0,.527-1.4,36.528,36.528,0,0,1-.774-26.52,1.089,1.089,0,0,0-.5-1.414,1,1,0,0,0-1.348.525,38.222,38.222,0,0,0,.758,28.259A1.017,1.017,0,0,0,965.992,1295.509Z" transform="translate(-958.374 -1248.397)" fill="#fff" opacity="0.79"/>
    </g>
  </g>
  <g id="Grupo_28714" data-name="Grupo 28714" transform="translate(146.601 129.793)">
    <path id="Trazado_68495" data-name="Trazado 68495" d="M2275.474,3165.665s.563,3.167.853,6.3a2.131,2.131,0,0,1-1.951,2.363c-3.983.214-12.5.638-15.563.526a.7.7,0,0,1-.6-.958,1.544,1.544,0,0,1,.76-.857l14.018-6.93Z" transform="translate(-2227.138 -3014.117)" fill="#4dd0e1"/>
    <path id="Trazado_68496" data-name="Trazado 68496" d="M2395.964,3142.915l-.395,3.8s-2.456,1.229-4.152-.11l.983-4.239Z" transform="translate(-2347.208 -2993.235)" fill="url(#linear-gradient-15)"/>
    <path id="Trazado_68497" data-name="Trazado 68497" d="M2397.392,2459.576c.194.989,1.444,49.432-3.294,71.194a.746.746,0,0,0,.42.853,11.745,11.745,0,0,0,4.028.817,1.219,1.219,0,0,0,1.192-.923c1.365-5.052,7.9-30.359,8.558-54.479.74-26.952-.008-.917-.008-.917l-.729-16.648Z" transform="translate(-2349.606 -2381.22)" fill="#1565c0"/>
    <path id="Trazado_68498" data-name="Trazado 68498" d="M2546.1,3180.046a23.6,23.6,0,0,1,1.726,5.84,1.313,1.313,0,0,1-1.092,1.592,49.67,49.67,0,0,1-4.961.348,1.294,1.294,0,0,1-1.255-1.456,11.406,11.406,0,0,1,2.415-6.112Z" transform="translate(-2481.55 -3027.005)" fill="#4dd0e1"/>
    <path id="Trazado_68499" data-name="Trazado 68499" d="M2568.593,3131.333l-.95,5.748a3.4,3.4,0,0,1-2.95.242l.422-6.178Z" transform="translate(-2503.345 -2983.18)" fill="url(#linear-gradient-16)"/>
    <path id="Trazado_68500" data-name="Trazado 68500" d="M2443.3,2451.483c4.27,25.523-.3,63.19-1.891,70.57a1.12,1.12,0,0,1-.875.881,7.019,7.019,0,0,1-3.158-.1,1.043,1.043,0,0,1-.73-.962c-.276-5.95-.208-42.5-4.1-56.9a3.283,3.283,0,0,0-1.222-1.8l-7.35-5.373-.64-8.8Z" transform="translate(-2375.964 -2371.836)" fill="#1565c0"/>
    <g id="Grupo_28709" data-name="Grupo 28709" transform="translate(5.269 12.148)">
      <path id="Trazado_68501" data-name="Trazado 68501" d="M2202.379,1991.861c12.095-.331,25.475,3.078,25.475,3.078,3.806,22.042,1.063,47.537,1.063,47.537-9.342,2.671-19.944-1.376-19.944-1.376-1.641-9.213-9.139-35.111-9.139-35.111a38.518,38.518,0,0,1-14.834-4.777,27.866,27.866,0,0,0,5.024-11.3A38.836,38.836,0,0,0,2202.379,1991.861Z" transform="translate(-2166.476 -1972.541)" fill="#4dd0e1"/>
      <path id="Trazado_68502" data-name="Trazado 68502" d="M1997.729,1823.549a2.242,2.242,0,0,1,2.685-.821c1.852,7.873,11.244,14.177,20.863,17.208a27.864,27.864,0,0,1-5.024,11.3C2000.252,1842.01,1997.729,1823.549,1997.729,1823.549Z" transform="translate(-1997.729 -1822.568)" fill="url(#linear-gradient-17)"/>
    </g>
    <g id="Grupo_28710" data-name="Grupo 28710" transform="translate(0 0)">
      <path id="Trazado_68503" data-name="Trazado 68503" d="M1950.02,1719.037c-.12.416,1.325,1.033,2.157-.672.023-.813.462-4.3-.007-4.959a63.491,63.491,0,0,0-7.319-7.877,1.236,1.236,0,0,0-.127,1.66l2.343,2.512a12.029,12.029,0,0,0-1.329,2.823,3.555,3.555,0,0,0,.347,2.507c.414.766.979,1.76,1.511,2.538A3.161,3.161,0,0,0,1950.02,1719.037Z" transform="translate(-1944.46 -1705.529)" fill="url(#linear-gradient-18)"/>
      <path id="Trazado_68504" data-name="Trazado 68504" d="M1977.021,1761.476l2.131,1.859.681,1.865-1.865,2.213a26.544,26.544,0,0,0-1.145-4.507C1976.344,1762.106,1976.585,1761.715,1977.021,1761.476Z" transform="translate(-1973.385 -1755.669)" fill="url(#linear-gradient-19)"/>
    </g>
    <path id="Trazado_68505" data-name="Trazado 68505" d="M2572.48,2050.709l4.528-12.338s11.373,7.943,13.324,18.139a25.767,25.767,0,0,0-9.8,2.861C2579.655,2054.556,2572.48,2050.709,2572.48,2050.709Z" transform="translate(-2510.362 -2003.825)" fill="#4dd0e1"/>
    <path id="Trazado_68506" data-name="Trazado 68506" d="M2458.689,2219s12.755,7.4,16.977.93a5.247,5.247,0,0,0,.846-3.932,25.756,25.756,0,0,1,9.8-2.861,14.711,14.711,0,0,1-1.372,9.678c-7.367,14.468-27.9-.516-27.9-.516Z" transform="translate(-2406.34 -2160.449)" fill="url(#linear-gradient-20)"/>
    <path id="Trazado_68507" data-name="Trazado 68507" d="M2412.267,1908.24l3.955,11.642a.431.431,0,0,1-.178.509,8.689,8.689,0,0,1-9.391-.568,1.989,1.989,0,0,1-.883-1.407l-1.338-10.1Z" transform="translate(-2358.935 -1887.201)" fill="url(#linear-gradient-21)"/>
    <g id="Grupo_28712" data-name="Grupo 28712" transform="translate(23.152 42.661)">
      <g id="Grupo_28711" data-name="Grupo 28711">
        <path id="Trazado_68508" data-name="Trazado 68508" d="M2210.33,2144.133l-6.948-25.46a.718.718,0,0,0-.6-.535c-1.259-.154-4.907-.587-9.119-.961a98.625,98.625,0,0,0-14.485-.5.747.747,0,0,0-.581,1.072c2,4.25,10.237,21.538,14.361,27.2a.7.7,0,0,0,.573.3l16.121-.157A.738.738,0,0,0,2210.33,2144.133Z" transform="translate(-2178.525 -2116.557)" fill="#12263f"/>
        <path id="Trazado_68509" data-name="Trazado 68509" d="M2404.873,2248.025s.968-4.176.577-5.657-1.147-3.387-3.668-2.963a35.531,35.531,0,0,0-5.5,1.538,1.458,1.458,0,0,0,2.067,1.307l-1.188.965s.17,1.545,1.788.719l-1.105,1.28a1.262,1.262,0,0,0,1.886.455C2400.924,2244.854,2401.5,2248.528,2404.873,2248.025Z" transform="translate(-2374.747 -2226.6)" fill="url(#linear-gradient-22)"/>
      </g>
      <path id="Trazado_68510" data-name="Trazado 68510" d="M2299.108,2177.283a2.042,2.042,0,1,1-2.04-2.14A2.092,2.092,0,0,1,2299.108,2177.283Z" transform="translate(-2283.505 -2169.063)" fill="#91b3fa"/>
      <path id="Trazado_68511" data-name="Trazado 68511" d="M2245.663,2140.324l-1.415-5.036a1.681,1.681,0,0,0-1.236-1.212c-4.434-.971-16.57-1.176-16.691-1.179l.008-.569c.5.008,12.31.209,16.794,1.19a2.233,2.233,0,0,1,1.646,1.608l1.415,5.035Z" transform="translate(-2221.593 -2130.692)" fill="#91b3fa"/>
    </g>
    <g id="Grupo_28713" data-name="Grupo 28713" transform="translate(39.533 3.561)">
      <path id="Trazado_68512" data-name="Trazado 68512" d="M2368.056,1789.865c-.138.145-5.823,12.574-5.823,12.574l6.444,3.463,6.961-10.889S2370.366,1787.444,2368.056,1789.865Z" transform="translate(-2360.443 -1784.245)" fill="url(#linear-gradient-23)"/>
      <path id="Trazado_68513" data-name="Trazado 68513" d="M2356.479,1750.912a1.259,1.259,0,0,1-.077,1l-3.214,5.964a1.139,1.139,0,0,1-.176.244c-.383.4-1.692,1.549-2.7-.02a9.733,9.733,0,0,0-2.539-3.056.981.981,0,0,0-1.387.508,45.513,45.513,0,0,0-2.2,5.809,1.179,1.179,0,0,0,.6,1.4,26.372,26.372,0,0,0,6.172,2,.985.985,0,0,0,.972-.46c.985-1.5,3.76-5.7,4.707-6.748.88-.976,2.5-.608,3.236-.374a.943.943,0,0,0,.821-.12,2.652,2.652,0,0,0,.853-3.836,1.226,1.226,0,0,1,.318-1.556,2.674,2.674,0,0,0,.872-3.591,3.106,3.106,0,0,0-3.472-1.892,1.052,1.052,0,0,1-1.12-.693.7.7,0,0,0-.53-.465,1.108,1.108,0,0,1-.808-1.3,3.053,3.053,0,0,0-1.47-3.358c-2.781-1.7-5.216,1.071-5.835,3.412s2.49,3.995,4.444,4.271C2355.375,1748.254,2356.163,1750,2356.479,1750.912Z" transform="translate(-2344.135 -1739.842)" fill="#00223d"/>
      <path id="Trazado_68514" data-name="Trazado 68514" d="M2458.242,1898.1s1.236-4.027,2.819-3.879,2.828,1.9.867,3.876C2459.488,1900.553,2458.242,1898.1,2458.242,1898.1Z" transform="translate(-2446.955 -1878.196)" fill="url(#linear-gradient-24)"/>
    </g>
  </g>
  <g id="Grupo_142315" data-name="Grupo 142315" transform="translate(175.059 63.136)">
    <g id="Grupo_47020" data-name="Grupo 47020" transform="translate(3.782 3.797)">
      <path id="Trazado_97743" data-name="Trazado 97743" d="M1389.724,212.349a29.059,29.059,0,0,1-37.955,43.817l-10.3,4.434,4.434-10.3a29.059,29.059,0,0,1,43.817-37.956Z" transform="translate(-1339.633 -203.365)" fill="#fdfdfd" fill-rule="evenodd"/>
      <path id="Trazado_97744" data-name="Trazado 97744" d="M1366.668,260a29.514,29.514,0,0,1-17.478-5.717l-10.038,4.323a.486.486,0,0,1-.639-.639l4.323-10.038a29.549,29.549,0,1,1,25.815,12Q1367.658,260,1366.668,260Zm-17.413-6.761a.487.487,0,0,1,.292.1,28.573,28.573,0,1,0-3.088-43.084,28.692,28.692,0,0,0-2.676,37.32.486.486,0,0,1,.057.484l-3.95,9.173,9.173-3.951A.485.485,0,0,1,1349.255,253.237Z" transform="translate(-1337.12 -200.923)" fill="#00223d"/>
    </g>
    <circle id="Elipse_3890" data-name="Elipse 3890" cx="24.699" cy="24.699" r="24.699" transform="translate(8.627 8.629)" fill="#00223d"/>
    <path id="Trazado_97745" data-name="Trazado 97745" d="M1347.1,244.154a33.211,33.211,0,0,1-18.1-5.345.486.486,0,1,1,.529-.816,32.366,32.366,0,0,0,35.1.037.486.486,0,1,1,.527.817A33.321,33.321,0,0,1,1347.1,244.154Zm23.691-10.087a.486.486,0,0,1-.351-.823,32.271,32.271,0,0,0,4.065-39.651.486.486,0,1,1,.823-.518,33.479,33.479,0,0,1,4.956,20.974,32.963,32.963,0,0,1-9.142,19.869A.484.484,0,0,1,1370.788,234.067Zm-51.253-4.911a.486.486,0,0,1-.408-.222,33.358,33.358,0,0,1-5.163-21.565.486.486,0,1,1,.967.1,32.382,32.382,0,0,0,5.012,20.935.486.486,0,0,1-.408.751Zm-3.389-28.786a.487.487,0,0,1-.458-.648,33.331,33.331,0,0,1,40.779-20.887.486.486,0,0,1-.272.933,32.36,32.36,0,0,0-39.59,20.277A.486.486,0,0,1,1316.146,200.37Zm54.011-12.452a.485.485,0,0,1-.341-.14,32.408,32.408,0,0,0-6.731-5.094.486.486,0,1,1,.481-.846,33.387,33.387,0,0,1,6.933,5.247.486.486,0,0,1-.341.833Z" transform="translate(-1313.784 -177.498)" fill="#00223d"/>
  </g>
  <path id="Trazado_173857" data-name="Trazado 173857" d="M1435.282,282.747A16.258,16.258,0,1,0,1450.6,293.52l-2.451,2.451a13.227,13.227,0,1,1-4.4-7.105l2.165-2.165a16.206,16.206,0,0,0-10.631-3.954Zm-8.557,14.658a2.034,2.034,0,0,1,2.876-2.876l5.681,5.68,12.8-12.8a2.034,2.034,0,1,1,2.876,2.876l-14.236,14.236a2.034,2.034,0,0,1-2.876,0Z" transform="translate(-1226.898 -202.553)" fill="#fff" fill-rule="evenodd"/>
</svg>
