<svg xmlns="http://www.w3.org/2000/svg" width="64.826" height="66.999" viewBox="0 0 64.826 66.999">
  <g id="jS21yb.tif" transform="translate(132.259 -2625.498)">
    <g id="Grupo_142300" data-name="Grupo 142300" transform="translate(-132.259 2625.498)">
      <path id="Trazado_118083" data-name="Trazado 118083" d="M-83.144,2647.724c2.268-2.692,4.238-5.042,6.22-7.381s4.036-2.518,6.389-.572c3.94,3.256,4.053,4.515.758,8.438-4.217,5.021-8.451,10.029-12.628,15.084a3.367,3.367,0,0,0-.708,1.972c-.049,7.722-.028,15.445-.033,23.166,0,2.85-1.219,4.063-4.078,4.063q-20.511.006-41.023,0c-2.773,0-4.009-1.23-4.01-3.991q-.005-29.516,0-59.029c0-2.688,1.25-3.956,3.9-3.957,11.209-.006,22.418.007,33.627-.018a4.383,4.383,0,0,1,3.361,1.366q3.411,3.494,6.9,6.908a4.207,4.207,0,0,1,1.327,3.238C-83.169,2640.437-83.144,2643.864-83.144,2647.724Zm-2.231-11.049c-2.454,0-4.766.006-7.077,0-1.624-.006-1.845-.229-1.851-1.867-.008-2.31,0-4.621,0-6.964a6.012,6.012,0,0,0-.677-.09q-16.738-.008-33.476-.02c-1.375,0-1.581.75-1.58,1.883q.022,29.364.013,58.73c0,1.714.207,1.916,1.941,1.917q20.365.005,40.729,0c1.8,0,1.977-.179,1.978-2.02q0-9.906,0-19.81v-1.611c-2.028,2.4-3.774,4.486-5.54,6.552a4.013,4.013,0,0,1-1.2,1.132q-4.121,1.875-8.3,3.613a1.1,1.1,0,0,1-1.584-1.332c.658-2.947,1.372-5.882,2.122-8.807a3.612,3.612,0,0,1,.821-1.266c3.838-4.609,7.6-9.282,11.575-13.772a7.736,7.736,0,0,0,2.159-5.983C-85.516,2643.587-85.375,2640.2-85.375,2636.675Zm7.188,8.609L-97.236,2668l4.662,3.912,19.053-22.708Z" transform="translate(132.259 -2625.498)" fill="#12263f"/>
      <path id="Trazado_118084" data-name="Trazado 118084" d="M-99.938,2757.975H-103a1.208,1.208,0,0,1-1.369-1.367c0-2.087,0-4.173,0-6.26a1.158,1.158,0,0,1,1.291-1.294c2.086-.009,4.173,0,6.26,0a1.207,1.207,0,0,1,1.369,1.366c0,2.086,0,4.173,0,6.26a1.162,1.162,0,0,1-1.292,1.295C-97.805,2757.981-98.872,2757.973-99.938,2757.975Zm2.234-6.6h-4.327v4.255H-97.7Z" transform="translate(112.184 -2714.425)" fill="#12263f"/>
      <path id="Trazado_118085" data-name="Trazado 118085" d="M-99.866,2796.826c.974,0,1.948.014,2.921,0s1.481.4,1.479,1.4q-.008,3.062,0,6.122c0,1-.5,1.418-1.47,1.412-1.994-.014-3.988-.017-5.981,0-1.067.01-1.5-.509-1.484-1.544.023-1.947.029-3.9,0-5.843-.018-1.14.515-1.593,1.615-1.554C-101.814,2796.852-100.84,2796.826-99.866,2796.826Zm2.078,6.667v-4.334h-4.261v4.334Z" transform="translate(112.209 -2748.804)" fill="#12263f"/>
      <path id="Trazado_118086" data-name="Trazado 118086" d="M-53.272,2713.178c3.156,0,6.313.007,9.469,0,.861,0,1.694.108,1.651,1.186-.039.977-.844,1.056-1.644,1.054q-9.469-.012-18.938,0c-.86,0-1.693-.106-1.651-1.186.039-.98.845-1.057,1.643-1.054C-59.584,2713.185-56.428,2713.178-53.272,2713.178Z" transform="translate(83.407 -2688.604)" fill="#12263f"/>
      <path id="Trazado_118087" data-name="Trazado 118087" d="M-53.184,2667.6c-1.9,0-3.807.077-5.7-.05a1.877,1.877,0,0,1-1.408-1.064c-.163-.836.581-1.12,1.376-1.117,3.849.007,7.7-.037,11.545.051.5.012.986.686,1.479,1.052-.483.376-.947,1.044-1.452,1.077C-49.284,2667.675-51.237,2667.6-53.184,2667.6Z" transform="translate(80.477 -2654.19)" fill="#12263f"/>
      <path id="Trazado_118088" data-name="Trazado 118088" d="M-99.364,2659.353c.912-1.806,1.711-3.36,2.483-4.928.373-.758.812-1.506,1.772-1.011s.585,1.3.21,2.042c-.962,1.9-1.9,3.813-2.869,5.708-.674,1.312-1.293,1.421-2.336.42a31.065,31.065,0,0,1-2.813-2.878c-.294-.367-.122-1.108-.162-1.679.57.049,1.282-.1,1.68.189A15.67,15.67,0,0,1-99.364,2659.353Z" transform="translate(111.266 -2645.476)" fill="#12263f"/>
      <path id="Trazado_118089" data-name="Trazado 118089" d="M-100.221,2707.118c.9-1.783,1.669-3.305,2.427-4.834.365-.736.76-1.54,1.748-1.078s.663,1.263.282,2.015c-.984,1.94-1.936,3.9-2.935,5.83-.632,1.222-1.263,1.324-2.255.38-.939-.893-1.839-1.831-2.762-2.741-.544-.538-.913-1.139-.279-1.8.7-.733,1.335-.336,1.9.254S-100.95,2706.348-100.221,2707.118Z" transform="translate(112.156 -2679.892)" fill="#12263f"/>
      <path id="Trazado_118090" data-name="Trazado 118090" d="M-58.251,2763.2c-1.576,0-3.152,0-4.727,0-.807,0-1.5-.335-1.328-1.171a1.757,1.757,0,0,1,1.325-1.012c3.149-.09,6.3-.044,9.454-.049.808,0,1.5.335,1.329,1.169a1.789,1.789,0,0,1-1.329,1.012C-55.093,2763.285-56.675,2763.2-58.251,2763.2Z" transform="translate(83.369 -2723.002)" fill="#12263f"/>
      <path id="Trazado_118091" data-name="Trazado 118091" d="M-60.087,2810.941a18.575,18.575,0,0,1-3.047-.049c-.492-.083-.9-.686-1.34-1.053.436-.375.856-1.047,1.311-1.072a56.315,56.315,0,0,1,6.244,0c.463.025.891.684,1.335,1.052-.436.374-.833,1-1.317,1.072A20.61,20.61,0,0,1-60.087,2810.941Z" transform="translate(83.47 -2757.344)" fill="#12263f"/>
    </g>
  </g>
</svg>
