<svg xmlns="http://www.w3.org/2000/svg" xmlns:xlink="http://www.w3.org/1999/xlink" width="587" height="372.104" viewBox="0 0 587 372.104">
  <defs>
    <clipPath id="clip-path">
      <rect id="Rectángulo_36271" data-name="Rectángulo 36271" width="587" height="372.104" fill="#ffa726"/>
    </clipPath>
  </defs>
  <g id="Grupo_142624" data-name="Grupo 142624" transform="translate(0 -0.003)">
    <g id="Enmascarar_grupo_87758" data-name="Enmascarar grupo 87758" transform="translate(0 0.003)" clip-path="url(#clip-path)">
      <path id="Trazado_116885" data-name="Trazado 116885" d="M731.26,260.658V480.622c0,3.848-2.778,6.97-6.2,6.97H407.7c-3.425,0-6.2-3.122-6.2-6.97V260.658c0-3.851,2.779-6.97,6.2-6.97h317.36c3.425,0,6.2,3.118,6.2,6.97" transform="translate(-261.453 -165.203)" fill="#b8c0c7"/>
      <path id="Trazado_116886" data-name="Trazado 116886" d="M640.717,225.229v17.838H286.543V225.229a6.662,6.662,0,0,1,6.663-6.662H634.054a6.662,6.662,0,0,1,6.662,6.662" transform="translate(-186.597 -142.332)" fill="#12263f"/>
      <path id="Trazado_116887" data-name="Trazado 116887" d="M317.605,247.9a3.1,3.1,0,1,1,3.1,3.1,3.1,3.1,0,0,1-3.1-3.1" transform="translate(-206.825 -159.413)" fill="#e9e9e9"/>
      <path id="Trazado_116888" data-name="Trazado 116888" d="M352.644,247.9a3.1,3.1,0,1,1,3.1,3.1,3.1,3.1,0,0,1-3.1-3.1" transform="translate(-229.642 -159.413)" fill="#e9e9e9"/>
      <path id="Trazado_116889" data-name="Trazado 116889" d="M388.569,247.9a3.1,3.1,0,1,1,3.1,3.1,3.1,3.1,0,0,1-3.1-3.1" transform="translate(-253.037 -159.413)" fill="#e9e9e9"/>
      <path id="Trazado_116890" data-name="Trazado 116890" d="M202.6,724.452s.472-5.148-5.279-5.148a6.754,6.754,0,0,1,2.645,1.418,6.8,6.8,0,0,0-7.661,1.156c-3.992,3.309-1.511,11.609-2.725,13.184s-5.941,1.891-5.363,6.986,15,11.477,14.077,15.692c0,0,5.653-8.31,1.611-12.1a7.49,7.49,0,0,1,2.171,4.062s.535-4.307-2.206-5.685c-2.426-1.219-4.412-5.678-4.2-6.475s6.934-13.088,6.934-13.088" transform="translate(-119.931 -468.413)" fill="#151f2c"/>
      <path id="Trazado_116891" data-name="Trazado 116891" d="M209.407,804.92s4.3,17.776,8.515,21.33c2.535,2.136,10.073,7.037,10.073,7.037l-3.135,1.138s-10.456-3.531-12.8-6.283-8.75-16.543-8.75-16.543Z" transform="translate(-132.398 -524.166)" fill="#ee805f"/>
      <path id="Trazado_116892" data-name="Trazado 116892" d="M100,863.084c.038.068.078.139.118.209.94,1.634,3.1,5.639,5.473,10.021,1.124,2.079,2.3,4.244,3.417,6.28,1.923,3.515,3.673,6.645,4.694,8.3,1.038,1.682,1.8,2.864,2.112,3.336l0,0a.784.784,0,0,1,.1.488,25.5,25.5,0,0,0,.068,4.407,33.808,33.808,0,0,0,11.046,21.9l2.858.422s-4.045-14.986-5.236-23.458a16.273,16.273,0,0,1-.219-3.359,35.069,35.069,0,0,0-.923-9.169,205.38,205.38,0,0,0-5.845-21.224c-.133-.415-4.153-14.956-4.153-14.956-3.374,2.949-15.68,4.166-15.68,4.166s-2.087,5.073,2.167,12.638" transform="translate(-63.377 -551.1)" fill="#384152"/>
      <path id="Trazado_116893" data-name="Trazado 116893" d="M185.5,1051.152h-11.93a6.552,6.552,0,0,1,.337-3.2c.6-1.323,1.448-1.365.109-3.44.758.78,3.195,1.1,4.92.871a14.608,14.608,0,0,0,2.068,3.148c.78.56,4.256.361,4.5,2.619" transform="translate(-112.987 -680.19)" fill="#151f2c"/>
      <path id="Trazado_116894" data-name="Trazado 116894" d="M105,881.323c.038.068.078.138.118.209.94,1.634,6.025,11.026,8.4,15.408a63.537,63.537,0,0,1-.838-22.652Z" transform="translate(-68.378 -569.338)" fill="#151f2c"/>
      <path id="Trazado_116895" data-name="Trazado 116895" d="M214.982,731.831c.078-.313-6.814,3.115-7.163,3.5-3.232,3.585-2.31,8.264-.461,8.309,1.186.029.956,2,.956,2l13.214-5.59s-1.591-9.278-6.546-8.222" transform="translate(-133.938 -476.516)" fill="#151f2c"/>
      <path id="Trazado_116896" data-name="Trazado 116896" d="M206.638,797.267s2.011,4.017,1.76,7.277c0,0-2.425,3.827-8.713,4.8,0,0,5.407-12.077,6.953-12.074" transform="translate(-130.035 -519.182)" fill="#ffa739"/>
      <path id="Trazado_116897" data-name="Trazado 116897" d="M75.761,846.686l.04-2.231c-4.445.561-15.328-5.313-15.328-5.313s-4.651,3.093-5.288,11.927c-.311,4.312-2.277,22.547-2.494,27.992-.08,1.974-.106,3.382-.115,3.945a.013.013,0,0,1,0,.006.776.776,0,0,1-.189.459,25.463,25.463,0,0,0-2.409,3.692c-6.784,12.621-3.236,29.771-3.236,29.771l1.575-.4s5.736-17.779,9.485-25.469a16.1,16.1,0,0,1,1.7-2.906,35.1,35.1,0,0,0,4.361-8.118c2.769-6.615,11.9-33.355,11.9-33.355" transform="translate(-29.835 -546.451)" fill="#384152"/>
      <path id="Trazado_116898" data-name="Trazado 116898" d="M53.278,1050.991H41.348a6.551,6.551,0,0,1,.337-3.2c.6-1.323,1.533-1.925,1.309-3.527a4.3,4.3,0,0,0,3.718,1.423,13.088,13.088,0,0,0,2.07,2.683c.78.56,4.256.361,4.5,2.618" transform="translate(-26.883 -680.029)" fill="#151f2c"/>
      <path id="Trazado_116899" data-name="Trazado 116899" d="M125.158,799.279c-1.6.273.262,1.547-1.942,1.787-3.137.343-6.376.577-8.072,1.253a1.822,1.822,0,0,0-1.162.941c-.736,2.211-5.393,6.011-5.393,6.011-20.774-.946-22.112-10.2-22.112-10.2,13.482-13.094,24.952-20.231,34.432-21.115a16.858,16.858,0,0,1,6.876.724c3.315,1.476,5.132,5.968,5.132,5.968s-1.67,13.6-7.759,14.636" transform="translate(-56.314 -506.559)" fill="#ffa726"/>
      <path id="Trazado_116900" data-name="Trazado 116900" d="M176.61,812.8c-3.137.342-6.376.577-8.073,1.254a33.081,33.081,0,0,1,4.2-18.154s3.189,12.98,3.877,16.9" transform="translate(-109.708 -518.289)" fill="#ffca28"/>
      <path id="Trazado_116901" data-name="Trazado 116901" d="M204.319,773.727c.593,1.857,2.57,7.15,5.31,5.113a6.758,6.758,0,0,1,1.161-2.71c.867-1.491,1.9-3.014,1.9-3.014l-4.465-3.912-.266-.234a11.376,11.376,0,0,1-3.321,3.771.891.891,0,0,0-.319.986" transform="translate(-133.025 -500.755)" fill="#ee805f"/>
      <path id="Trazado_116902" data-name="Trazado 116902" d="M219.91,773.553s-1.032,1.52-1.9,3.013c-2.775-1.711-2.778-5.147-2.564-6.926Z" transform="translate(-140.245 -501.191)" fill="#de6b4d"/>
      <path id="Trazado_116903" data-name="Trazado 116903" d="M219.688,760.618s-6.738-3.75-4.339-7.91,3.146-7.446,7.55-5.228,4.316,4.284,3.853,5.867-5.25,8.139-7.064,7.271" transform="translate(-139.899 -486.296)" fill="#ee805f"/>
      <path id="Trazado_116904" data-name="Trazado 116904" d="M226.568,749.867c-.309-1.847-1.247-2.023-1.9-1.9a5.389,5.389,0,0,0-6.554-2.509,9.175,9.175,0,0,1-5.311,3.19s.782,1.455,4,2.356a5.511,5.511,0,0,0,3.178-.254,17.988,17.988,0,0,1-4.573,1.724c4.246.389,8.285-3.493,8.7-3.908a6.04,6.04,0,0,1,.334,2.782c-.279,1.251-1.39,3.517-.712,3.81,0,0,3.294-2.519,2.831-5.29" transform="translate(-138.577 -485.243)" fill="#151f2c"/>
      <rect id="Rectángulo_36260" data-name="Rectángulo 36260" width="14.67" height="55.936" transform="translate(98.42 331.229) rotate(-64.01)" fill="#12263f"/>
      <path id="Trazado_116905" data-name="Trazado 116905" d="M220.118,898.308a16.623,16.623,0,0,1-9-11.439,3.778,3.778,0,1,1,7.379-1.622,9.15,9.15,0,1,0,6.351-10.731,3.778,3.778,0,0,1-2.14-7.246,16.705,16.705,0,1,1-2.592,31.038" transform="translate(-137.424 -564.322)" fill="#12263f"/>
      <path id="Trazado_116906" data-name="Trazado 116906" d="M423.488,997.732a16.705,16.705,0,1,1,22.855-21.159,3.778,3.778,0,1,1-7.027,2.777,9.149,9.149,0,1,0-4.543,11.613,3.778,3.778,0,0,1,3.268,6.812,16.624,16.624,0,0,1-14.553-.043" transform="translate(-269.665 -629.07)" fill="#12263f"/>
      <path id="Trazado_116907" data-name="Trazado 116907" d="M341.808,954.265,315.32,941.352a1.541,1.541,0,0,1-.708-2.055l.673-1.381a1.541,1.541,0,0,1,2.055-.708l26.487,12.913a1.541,1.541,0,0,1,.708,2.055l-.673,1.381a1.542,1.542,0,0,1-2.055.708" transform="translate(-204.775 -610.212)" fill="#727997"/>
      <path id="Trazado_116908" data-name="Trazado 116908" d="M211.983,918.49a4.46,4.46,0,0,0,.676,1.9c.531.649,2.075,2.217,2.1,3.136,0,0-.078.408-.409.334s-1.481-1.213-2.071-1.132a11.411,11.411,0,0,0,.627,2.359,6.474,6.474,0,0,1,.7,2.919c-.187.447-3.311-2.156-4.257-3.429s-.015-6.436-.015-6.436Z" transform="translate(-136.052 -597.898)" fill="#ee805f"/>
      <path id="Trazado_116909" data-name="Trazado 116909" d="M181.674,790.85s-7.889-.431-9.29,4.522,2.63,24.722,3.5,26.763c1.582,3.715,9.282,14.317,9.282,14.317l2.832-.862s-5.135-16.2-6.281-17.8c-1.8-2.516,2.32-24.785-.041-26.939" transform="translate(-112.065 -514.998)" fill="#ee805f"/>
      <path id="Trazado_116910" data-name="Trazado 116910" d="M168.471,799.264c.021.116,7.465,1.37,12.121-.994,0,0,3.89-12.186-1.669-11.6s-8.851,2.334-8.991,5a51.243,51.243,0,0,1-1.462,7.6" transform="translate(-109.709 -512.266)" fill="#ffa726"/>
      <path id="Trazado_116911" data-name="Trazado 116911" d="M259.573,863.5a3.085,3.085,0,0,0-1.308.33c-.43.332-.914.909.05,1.389,1.445.72,4.337.4,4.224-.034-.355-1.367-.877-1.782-2.967-1.685" transform="translate(-167.851 -562.307)" fill="#ee805f"/>
      <path id="Trazado_116912" data-name="Trazado 116912" d="M525.885,284.74a1.35,1.35,0,0,0-.241,1.443.009.009,0,0,0,0,.007,8.968,8.968,0,0,0,2.834,3.109c.171.138.323.263.455.379.035.03.07.061.1.091l.078.071c1.246,1.148.777,1.412,3.015,3.742,2.552,2.655,4.309,2.7,4.809,2.461.424-.206-.436-1.615-1.388-3.2l-.138-.231c-.127-.21-.253-.424-.379-.636-1.116-1.905-.829-2.8-.565-5.634.215-2.3,3.584-12.871,3.584-12.871l-4.891-.843s-1.473,8.415-3.1,9.711c-.868.691-1.839.7-2.673,1.212-.059.036-.117.072-.173.11a6.4,6.4,0,0,0-1.338,1.075" transform="translate(-342.231 -177.54)" fill="#ee805f"/>
      <path id="Trazado_116913" data-name="Trazado 116913" d="M525.885,305.132a1.35,1.35,0,0,0-.241,1.443.009.009,0,0,0,0,.007,10.389,10.389,0,0,0,2.839,3.1c.169.14.318.269.45.389.035.03.07.061.1.091l.078.071c1.246,1.148.777,1.412,3.015,3.742,2.552,2.655,4.309,2.7,4.809,2.461.424-.206-.436-1.615-1.388-3.2A10.875,10.875,0,0,1,531,309.887c-1.537-1.961-2.562-4.481-3.608-5.94-.059.036-.117.072-.173.109a6.4,6.4,0,0,0-1.338,1.075" transform="translate(-342.231 -197.932)" fill="#151f2c"/>
      <path id="Trazado_116914" data-name="Trazado 116914" d="M632.294,278.906c.3,1.51,2.454,1.258,4.858.67s1.833.111,5.254-.268,4.458-1.655,4.563-2.163c.093-.452-1.6-.611-3.411-.82-.228-.025-.457-.054-.686-.082-2.047-.257-3.547-1.578-5.406-2.663-1.762-1.028-4.391-5.216-4.391-5.216l-4.693.372s2.463,3.74,3.415,5.366a5.672,5.672,0,0,1,.461,3.2,6.025,6.025,0,0,0,.036,1.605" transform="translate(-409.203 -174.761)" fill="#ee805f"/>
      <path id="Trazado_116915" data-name="Trazado 116915" d="M644.321,294.439c2.4-.588,1.833.111,5.254-.268s4.458-1.655,4.563-2.163c.093-.452-1.6-.611-3.411-.82l-.017.035a9.647,9.647,0,0,1-4.9,1.523c-2.322.056-4.78-.609-6.383-.583a6.022,6.022,0,0,0,.036,1.605c.3,1.51,2.454,1.258,4.858.67" transform="translate(-416.372 -189.623)" fill="#151f2c"/>
      <path id="Trazado_116916" data-name="Trazado 116916" d="M557.984,198.518l-4.387,11.8-5.727,15.412a9.27,9.27,0,0,1-3.043-.278,13.188,13.188,0,0,1-2.943-1.432s1.59-16.549,4.557-26.048a16.92,16.92,0,0,1,2.552-5.521c4.6-5.435,8.99,6.063,8.99,6.063" transform="translate(-352.876 -124.378)" fill="#151f2c"/>
      <path id="Trazado_116917" data-name="Trazado 116917" d="M496.036,154.415c-2.874-.927-11.071.263-19.3,1.875l-1.724-2.843-17.785-1.389s-5.868,13.015-2.656,21.307a3.008,3.008,0,0,0,3.01,2.026h.26s10.585-.006,14.022-.006c8.844,0,18.718-6.08,20-6.335,2.091-.418,2.927,3.763,5.018,8.154s19.652,19.443,19.652,19.443a15.463,15.463,0,0,0,3.814-.391,3.756,3.756,0,0,0,1.638-1.034s-19.459-38.715-25.94-40.806" transform="translate(-295.388 -99.021)" fill="#384152"/>
      <path id="Trazado_116918" data-name="Trazado 116918" d="M455.7.287c-2.492-.641-5.9,0-6.469.053-6.767.666-9.041,8.215-8.017,14.072.945,5.4-1.8,6.9-4.973,11.169-6.37,8.56-2.207,15.777,2.82,17.638,3.016,1.116,7.2-1.7,7.2-1.7.076.03,13.157-8.571,18.52-13.419C473.716,24.606,462.051,1.92,455.7.287" transform="translate(-281.974 -0.003)" fill="#151f2c"/>
      <path id="Trazado_116919" data-name="Trazado 116919" d="M483.9,56.282c.178.626-2.782,1.778-5.042,1.354-2.126-.4-4.508-2.885-4.017-3.119.813-.386,1.361-1.348.916-6.546l.4.046,6.8.777s.021,2.119.179,4.1a13.433,13.433,0,0,0,.759,3.385" transform="translate(-309.176 -31.24)" fill="#ee805f"/>
      <path id="Trazado_116920" data-name="Trazado 116920" d="M485.552,48.879s.021,2.119.179,4.1c-3.753.2-6.013-3.053-6.979-4.88Z" transform="translate(-311.763 -31.326)" fill="#de6b4d"/>
      <path id="Trazado_116921" data-name="Trazado 116921" d="M483.947,27.909s-8.849.873-9.307-4.646-1.91-9.123,3.721-9.914,6.9,1.224,7.505,3.029.371,11.162-1.919,11.531" transform="translate(-308.754 -8.579)" fill="#ee805f"/>
      <path id="Trazado_116922" data-name="Trazado 116922" d="M478.1,9.549s-1.114,6.742-6.154,8.342c-3.677,1.167-5.342.4-5.342.4A14.985,14.985,0,0,0,469,12.68a2.7,2.7,0,0,1,1.8-2.059c2.612-.859,5.778-3.209,7.3-1.071" transform="translate(-303.852 -5.651)" fill="#151f2c"/>
      <path id="Trazado_116923" data-name="Trazado 116923" d="M494.778,12.418a5.854,5.854,0,0,1,3.145,2.523,11.292,11.292,0,0,1,1.583,5.453s1.549-6.24-.71-8.561c-2.394-2.461-4.019.585-4.019.585" transform="translate(-322.2 -7.081)" fill="#151f2c"/>
      <path id="Trazado_116924" data-name="Trazado 116924" d="M453.737,85.717c.158.67.293,1.287.4,1.856.18.918.3,1.709.391,2.407.27,2.176.189,3.466.372,4.877a12.143,12.143,0,0,0,.662,2.655c.366,1.011,9.982,1.912,15.453,1.549a7.5,7.5,0,0,0,3.531-.763c1.952-1.695,1.757,2.033,2.025-15.8.129-8.7-7.383-16.449-7.383-16.449s-.6,3.717-8.05-.707c-.265-.155-3.2,4.19-6.023,9.54-3.111,5.91-2.258,7.16-1.379,10.84" transform="translate(-294.945 -42.546)" fill="#ffa726"/>
      <path id="Trazado_116925" data-name="Trazado 116925" d="M553.6,223.354l-5.727,15.413a9.28,9.28,0,0,1-3.043-.278,13.2,13.2,0,0,1-2.943-1.433s1.59-16.549,4.557-26.048Z" transform="translate(-352.876 -137.41)" fill="#384152"/>
      <path id="Trazado_116926" data-name="Trazado 116926" d="M499.559,67.367s7.666,1.3,8.566,4.6,7.119,21.759,7.119,21.759-4.819,1.645-6.619-.156-6.264-16.7-6.264-16.7Z" transform="translate(-325.313 -43.87)" fill="#ffa726"/>
      <path id="Trazado_116927" data-name="Trazado 116927" d="M496.422,45.752a1.521,1.521,0,0,0,1.351.908c.98,0,1.245-.146,1.43-.354a3.073,3.073,0,0,0,.369-.607,8.323,8.323,0,0,0-3.15.054" transform="translate(-323.271 -29.677)" fill="#fff"/>
      <path id="Trazado_116928" data-name="Trazado 116928" d="M457.531,135.065c.27,2.177.189,3.466.372,4.877,6.96.022,16.266-5.375,16.266-5.375Z" transform="translate(-297.945 -87.631)" fill="#ffca28"/>
      <path id="Trazado_116929" data-name="Trazado 116929" d="M473.628,104.842s-10.843-.323-12.671-6.487c-2.008-6.771-4.257,2.785-4.257,2.785l1.2,6.1h11.9Z" transform="translate(-297.404 -62.471)" fill="#ffca28"/>
      <path id="Trazado_116930" data-name="Trazado 116930" d="M531.027,66.017l-.586-1.451a4.116,4.116,0,0,0-3.817-2.575H515.815V98.133H560.53V68.85h-25.3a4.529,4.529,0,0,1-4.2-2.833" transform="translate(-335.899 -40.37)" fill="#b8c0c7"/>
      <path id="Trazado_116931" data-name="Trazado 116931" d="M535.152,112.664v-2.605l9.137-4v2.662l-6.381,2.624,6.381,2.624v2.7Z" transform="translate(-348.492 -69.065)" fill="#fff"/>
      <path id="Trazado_116932" data-name="Trazado 116932" d="M572.96,97.126H575.4l-8.364,17.482H564.6Z" transform="translate(-367.666 -63.25)" fill="#fff"/>
      <path id="Trazado_116933" data-name="Trazado 116933" d="M607.617,110.06v2.605l-9.138,4v-2.662l6.381-2.624-6.381-2.624v-2.7Z" transform="translate(-389.731 -69.066)" fill="#fff"/>
      <path id="Trazado_116934" data-name="Trazado 116934" d="M505.228,118.565l.784-1.232a6.306,6.306,0,0,0,1.492-.814c1.036-.727.9-1.817,1.416-1.7l.007,2.395-.056.008c2.222.594,4.821-.051,4.873.5.143,1.522-1.034,2.208-2.021,2.684a3.576,3.576,0,0,1-2.976.488c-1-.31-2.566-.626-2.566-.626Z" transform="translate(-329.005 -74.765)" fill="#ee805f"/>
      <path id="Trazado_116935" data-name="Trazado 116935" d="M454,65.348s-7.039.46-8.8,3.206-3.942,16.683-3.027,21.47,23.456-.916,23.456-.916l-.719-4.153s-13.009.075-13.75-1.619C450.171,81.084,454,65.348,454,65.348" transform="translate(-287.801 -42.556)" fill="#ffa726"/>
      <path id="Trazado_116936" data-name="Trazado 116936" d="M573.884,79.1A2.621,2.621,0,0,0,576.54,80.8c1-.2,2.292-2.346,1.154-2.819a3.238,3.238,0,0,0-3.81,1.113" transform="translate(-373.712 -50.631)" fill="#ee805f"/>
      <rect id="Rectángulo_36261" data-name="Rectángulo 36261" width="55.514" height="0.268" transform="translate(268.75 125.147) rotate(-61.903)" fill="#151f2c"/>
      <rect id="Rectángulo_36262" data-name="Rectángulo 36262" width="0.268" height="43.229" transform="translate(361.24 76.326) rotate(-42.827)" fill="#151f2c"/>
      <path id="Trazado_116937" data-name="Trazado 116937" d="M883.259,317.14a11.758,11.758,0,0,1-2.193,8.611,11.213,11.213,0,0,1-7.5,4.486L742.184,348.289c-6.706.921-12.906-3.521-13.779-9.872a11.312,11.312,0,0,1,2.461-8.647,12.613,12.613,0,0,1,8.145-4.574L870.4,307.143a11.554,11.554,0,0,1,12.863,10" transform="translate(-474.271 -199.946)" fill="#e9e9e9"/>
      <path id="Trazado_116938" data-name="Trazado 116938" d="M1104.16,317.14a11.759,11.759,0,0,1-2.193,8.611,11.213,11.213,0,0,1-7.5,4.486l-23.775,3.267-3.173-23.093,23.775-3.267a11.554,11.554,0,0,1,12.864,10" transform="translate(-695.171 -199.946)" fill="#43a1f6"/>
      <path id="Trazado_116939" data-name="Trazado 116939" d="M1118.457,331.887a6.036,6.036,0,0,1-.89.055,5.917,5.917,0,1,1,.89-.055m-4.288-9.433a4.962,4.962,0,1,0,7.016.081,4.967,4.967,0,0,0-7.016-.081" transform="translate(-723.94 -208.428)" fill="#fff"/>
      <rect id="Rectángulo_36263" data-name="Rectángulo 36263" width="8.106" height="0.978" transform="matrix(0.715, -0.699, 0.699, 0.715, 383.658, 126.699)" fill="#fff"/>
      <path id="Trazado_116940" data-name="Trazado 116940" d="M1094.679,360.9h0a.874.874,0,0,1,.014-1.235l3.415-3.336a.873.873,0,1,1,1.221,1.249l-3.415,3.337a.873.873,0,0,1-1.235-.014" transform="translate(-712.694 -231.878)" fill="#fff"/>
      <path id="Trazado_116941" data-name="Trazado 116941" d="M486.831,691.064H459.382a1.035,1.035,0,0,1-1.035-1.035v-.436a1.035,1.035,0,0,1,1.035-1.034h27.449a1.035,1.035,0,0,1,1.035,1.034v.436a1.035,1.035,0,0,1-1.035,1.035" transform="translate(-298.476 -448.392)" fill="#43a1f6"/>
      <path id="Trazado_116942" data-name="Trazado 116942" d="M472.744,717.238H459.2a.855.855,0,1,1,0-1.709h13.544a.855.855,0,0,1,0,1.709" transform="translate(-298.475 -465.954)" fill="#151f2c"/>
      <path id="Trazado_116943" data-name="Trazado 116943" d="M483.115,706.962H459.141a.8.8,0,0,1-.8-.8v-.119a.8.8,0,0,1,.8-.8h23.974a.8.8,0,0,1,.8.8v.119a.8.8,0,0,1-.8.8" transform="translate(-298.475 -459.263)" fill="#151f2c"/>
      <path id="Trazado_116944" data-name="Trazado 116944" d="M561.422,706.962H539.087a.769.769,0,0,1-.768-.768v-.172a.768.768,0,0,1,.768-.768h22.335a.768.768,0,0,1,.768.768v.172a.768.768,0,0,1-.768.768" transform="translate(-350.554 -459.263)" fill="#151f2c"/>
      <path id="Trazado_116945" data-name="Trazado 116945" d="M521.177,717.238H507.633a.855.855,0,0,1,0-1.709h13.544a.855.855,0,1,1,0,1.709" transform="translate(-330.015 -465.954)" fill="#151f2c"/>
      <path id="Trazado_116946" data-name="Trazado 116946" d="M582.66,691.064H555.21a1.034,1.034,0,0,1-1.034-1.035v-.436a1.034,1.034,0,0,1,1.034-1.034h27.45a1.035,1.035,0,0,1,1.034,1.034v.436a1.035,1.035,0,0,1-1.034,1.035" transform="translate(-360.88 -448.392)" fill="#43a1f6"/>
      <path id="Trazado_116947" data-name="Trazado 116947" d="M486.831,745.125H459.382a1.034,1.034,0,0,1-1.035-1.034v-.436a1.035,1.035,0,0,1,1.035-1.035h27.449a1.035,1.035,0,0,1,1.035,1.035v.436a1.034,1.034,0,0,1-1.035,1.034" transform="translate(-298.476 -483.597)" fill="#43a1f6"/>
      <path id="Trazado_116948" data-name="Trazado 116948" d="M472.744,771.3H459.2a.855.855,0,1,1,0-1.709h13.544a.855.855,0,0,1,0,1.709" transform="translate(-298.475 -501.159)" fill="#151f2c"/>
      <path id="Trazado_116949" data-name="Trazado 116949" d="M483.115,761.023H459.141a.8.8,0,0,1-.8-.8v-.119a.8.8,0,0,1,.8-.8h23.974a.8.8,0,0,1,.8.8v.119a.8.8,0,0,1-.8.8" transform="translate(-298.475 -494.467)" fill="#151f2c"/>
      <path id="Trazado_116950" data-name="Trazado 116950" d="M561.422,761.023H539.087a.769.769,0,0,1-.768-.769v-.172a.768.768,0,0,1,.768-.768h22.335a.768.768,0,0,1,.768.768v.172a.769.769,0,0,1-.768.769" transform="translate(-350.554 -494.467)" fill="#151f2c"/>
      <path id="Trazado_116951" data-name="Trazado 116951" d="M521.177,771.3H507.633a.855.855,0,0,1,0-1.709h13.544a.855.855,0,1,1,0,1.709" transform="translate(-330.015 -501.159)" fill="#151f2c"/>
      <path id="Trazado_116952" data-name="Trazado 116952" d="M582.66,745.125H555.21a1.034,1.034,0,0,1-1.034-1.034v-.436a1.034,1.034,0,0,1,1.034-1.035h27.45a1.035,1.035,0,0,1,1.034,1.035v.436a1.034,1.034,0,0,1-1.034,1.034" transform="translate(-360.88 -483.597)" fill="#43a1f6"/>
      <path id="Trazado_116953" data-name="Trazado 116953" d="M894.269,394.353,878.592,398l-7.752,14.106-5.919-32.147Z" transform="translate(-563.238 -247.431)" fill="#384152"/>
      <rect id="Rectángulo_36264" data-name="Rectángulo 36264" width="2.866" height="16.58" transform="translate(312.215 149.203) rotate(-37.15)" fill="#384152"/>
      <path id="Trazado_116954" data-name="Trazado 116954" d="M842.394,529.216H803.845a2.825,2.825,0,0,1-2.825-2.825V487.842a2.825,2.825,0,0,1,2.825-2.825h38.549a2.825,2.825,0,0,1,2.825,2.825v38.549a2.825,2.825,0,0,1-2.825,2.825" transform="translate(-521.625 -315.845)" fill="#e9e9e9"/>
      <path id="Trazado_116955" data-name="Trazado 116955" d="M816.54,553.606l8.588-15.483a2.825,2.825,0,0,1,4.749-.3l4.954,6.757a2.825,2.825,0,0,0,4.362.236,2.825,2.825,0,0,1,4.456.371l5.346,8.254a2.825,2.825,0,0,1-2.371,4.361H819.01a2.825,2.825,0,0,1-2.471-4.2" transform="translate(-531.498 -349.479)" fill="#2b6eb2"/>
      <path id="Trazado_116956" data-name="Trazado 116956" d="M865.8,513.783a3.378,3.378,0,1,1,3.378,3.378,3.378,3.378,0,0,1-3.378-3.378" transform="translate(-563.811 -332.377)" fill="#2b6eb2"/>
      <path id="Trazado_116957" data-name="Trazado 116957" d="M994.723,533.337l-38.195,5.21a2.825,2.825,0,0,1-3.181-2.417l-5.21-38.2a2.825,2.825,0,0,1,2.417-3.181l38.2-5.21a2.825,2.825,0,0,1,3.181,2.417l5.21,38.195a2.825,2.825,0,0,1-2.417,3.181" transform="translate(-617.411 -318.775)" fill="#e9e9e9"/>
      <path id="Trazado_116958" data-name="Trazado 116958" d="M976.31,568.556l6.417-16.5a2.825,2.825,0,0,1,4.664-.939l5.821,6.025a2.825,2.825,0,0,0,4.355-.355,2.825,2.825,0,0,1,4.465-.234l6.412,7.455a2.825,2.825,0,0,1-1.76,4.641l-27.36,3.732a2.825,2.825,0,0,1-3.015-3.823" transform="translate(-635.647 -358.326)" fill="#2b6eb2"/>
      <path id="Trazado_116959" data-name="Trazado 116959" d="M1015.96,524.461a3.378,3.378,0,1,1,3.8,2.891,3.378,3.378,0,0,1-3.8-2.891" transform="translate(-661.574 -339.033)" fill="#2b6eb2"/>
      <rect id="Rectángulo_36265" data-name="Rectángulo 36265" width="22.274" height="19.098" transform="translate(242.731 351.104)" fill="#43a1f6"/>
      <rect id="Rectángulo_36266" data-name="Rectángulo 36266" width="23.928" height="1.475" transform="translate(241.832 350.287)" fill="#384152"/>
      <rect id="Rectángulo_36267" data-name="Rectángulo 36267" width="22.274" height="6.067" transform="translate(242.731 356.271)" fill="#384152"/>
      <path id="Trazado_116960" data-name="Trazado 116960" d="M795.593,1051.845H774.56a1.394,1.394,0,0,1-1.394-1.394v-2.333a1.394,1.394,0,0,1,1.548-1.386l21.033,2.333a1.394,1.394,0,0,1-.154,2.78" transform="translate(-503.487 -681.629)" fill="#43a1f6"/>
      <path id="Trazado_116961" data-name="Trazado 116961" d="M553.456,1063.062.714,1062.894A.716.716,0,0,1,0,1062.18v-.366a.715.715,0,0,1,.714-.713l552.742.168a.716.716,0,0,1,.714.714v.365a.716.716,0,0,1-.714.714" transform="translate(0 -690.991)" fill="#12263f"/>
      <path id="Trazado_116962" data-name="Trazado 116962" d="M566.941,515.526h-2.424a.4.4,0,1,1,0-.8h2.407a.406.406,0,0,1,.407.4.392.392,0,0,1-.39.4m-4.831,0H559.7a.4.4,0,1,1,0-.8h2.408a.4.4,0,0,1,0,.8m-4.815,0h-2.407a.4.4,0,1,1,0-.8h2.407a.4.4,0,0,1,0,.8m-4.815,0h-2.407a.4.4,0,0,1,0-.8h2.407a.4.4,0,0,1,0,.8m-4.815,0h-2.407a.4.4,0,0,1,0-.8h2.407a.4.4,0,0,1,0,.8m-4.815,0h-2.407a.4.4,0,0,1,0-.8h2.407a.4.4,0,1,1,0,.8m-4.815,0h-2.407a.4.4,0,1,1,0-.8h2.407a.4.4,0,1,1,0,.8m-4.815,0h-2.407a.4.4,0,0,1,0-.8h2.407a.4.4,0,0,1,0,.8m-4.815,0H526a.4.4,0,0,1,0-.8h2.407a.4.4,0,0,1,0,.8m-4.815,0h-2.407a.4.4,0,0,1,0-.8h2.407a.4.4,0,1,1,0,.8m-4.814,0h-2.407a.4.4,0,1,1,0-.8h2.407a.4.4,0,0,1,0,.8m-4.815,0h-2.407a.4.4,0,1,1,0-.8h2.407a.4.4,0,1,1,0,.8m-4.814,0H506.74a.4.4,0,1,1,0-.8h2.407a.4.4,0,0,1,0,.8m-4.815,0h-2.408a.4.4,0,1,1,0-.8h2.408a.4.4,0,0,1,0,.8m-4.815,0H497.11a.4.4,0,1,1,0-.8h2.407a.4.4,0,1,1,0,.8m-4.815,0H492.3a.4.4,0,0,1,0-.8H494.7a.4.4,0,1,1,0,.8m-4.815,0h-2.407a.4.4,0,0,1,0-.8h2.407a.4.4,0,0,1,0,.8m-4.815,0h-2.146q-.144,0-.287-.009a.4.4,0,0,1,.051-.8c.078,0,.157.007.236.007h2.146a.4.4,0,0,1,0,.8m84.134-.7a.4.4,0,0,1-.224-.728,3.666,3.666,0,0,0,1.344-1.665.4.4,0,1,1,.739.3,4.459,4.459,0,0,1-1.636,2.026.4.4,0,0,1-.224.069m-88.76-.144a.4.4,0,0,1-.243-.083,4.449,4.449,0,0,1-1.511-2.121.4.4,0,1,1,.756-.253,3.659,3.659,0,0,0,1.242,1.743.4.4,0,0,1-.243.714m90.544-4.071a.4.4,0,0,1-.4-.4V507.8a.4.4,0,1,1,.8,0v2.407a.4.4,0,0,1-.4.4m-92.129-.245a.4.4,0,0,1-.4-.4V507.56a.4.4,0,1,1,.8,0v2.407a.4.4,0,0,1-.4.4m92.129-4.57a.4.4,0,0,1-.4-.4V502.99a.4.4,0,1,1,.8,0V505.4a.4.4,0,0,1-.4.4m-92.129-.245a.4.4,0,0,1-.4-.4v-2.407a.4.4,0,1,1,.8,0v2.407a.4.4,0,0,1-.4.4m92.129-4.57a.4.4,0,0,1-.4-.4v-2.407a.4.4,0,0,1,.8,0v2.407a.4.4,0,0,1-.4.4m-92.129-.245a.4.4,0,0,1-.4-.4V497.93a.4.4,0,0,1,.8,0v2.407a.4.4,0,0,1-.4.4m92.129-4.57a.4.4,0,0,1-.4-.4V493.36a.4.4,0,1,1,.8,0v2.407a.4.4,0,0,1-.4.4m-92.129-.245a.4.4,0,0,1-.4-.4v-2.407a.4.4,0,0,1,.8,0v2.407a.4.4,0,0,1-.4.4m92.129-4.57a.4.4,0,0,1-.4-.4v-2.407a.4.4,0,1,1,.8,0v2.407a.4.4,0,0,1-.4.4m-92.129-.245a.4.4,0,0,1-.4-.4V488.3a.4.4,0,0,1,.8,0v2.408a.4.4,0,0,1-.4.4m92.129-4.57a.4.4,0,0,1-.4-.4V483.73a.4.4,0,1,1,.8,0v2.408a.4.4,0,0,1-.4.4m-92.129-.245a.4.4,0,0,1-.4-.4v-2.407a.4.4,0,1,1,.8,0v2.407a.4.4,0,0,1-.4.4m92.129-4.57a.4.4,0,0,1-.4-.4v-2.408a.4.4,0,0,1,.8,0v2.408a.4.4,0,0,1-.4.4m-92.129-.245a.4.4,0,0,1-.4-.4v-2.408a.4.4,0,0,1,.8,0v2.408a.4.4,0,0,1-.4.4m92.129-4.57a.4.4,0,0,1-.4-.4V474.1a.4.4,0,1,1,.8,0v2.407a.4.4,0,0,1-.4.4m-92.129-.245a.4.4,0,0,1-.4-.4v-2.408a.4.4,0,0,1,.8,0v2.408a.4.4,0,0,1-.4.4m92.129-4.57a.4.4,0,0,1-.4-.4v-2.407a.4.4,0,1,1,.8,0v2.407a.4.4,0,0,1-.4.4m-92.129-.244a.4.4,0,0,1-.4-.4v-2.407a.4.4,0,1,1,.8,0v2.407a.4.4,0,0,1-.4.4m92.129-4.57a.4.4,0,0,1-.4-.4v-1.087a3.667,3.667,0,0,0-.19-1.17.4.4,0,1,1,.755-.254,4.453,4.453,0,0,1,.232,1.424v1.087a.4.4,0,0,1-.4.4m-92.129-.245a.4.4,0,0,1-.4-.4v-.842a4.439,4.439,0,0,1,.326-1.676.4.4,0,1,1,.739.3,3.647,3.647,0,0,0-.268,1.377v.842a.4.4,0,0,1-.4.4m90.536-4.068a.4.4,0,0,1-.242-.082,3.643,3.643,0,0,0-2-.75.4.4,0,1,1,.049-.8,4.439,4.439,0,0,1,2.44.913.4.4,0,0,1-.243.715m-88.746-.143a.4.4,0,0,1-.224-.729,4.443,4.443,0,0,1,2.489-.764h0a.4.4,0,0,1,0,.8,3.651,3.651,0,0,0-2.045.627.4.4,0,0,1-.223.069m84.118-.7h-2.407a.4.4,0,1,1,0-.8h2.407a.4.4,0,1,1,0,.8m-4.814,0h-2.408a.4.4,0,0,1,0-.8h2.408a.4.4,0,0,1,0,.8m-4.815,0h-2.407a.4.4,0,1,1,0-.8h2.407a.4.4,0,0,1,0,.8m-4.815,0h-2.407a.4.4,0,1,1,0-.8h2.407a.4.4,0,0,1,0,.8m-4.815,0H543.1a.4.4,0,1,1,0-.8h2.407a.4.4,0,0,1,0,.8m-4.815,0h-2.408a.4.4,0,0,1,0-.8H540.7a.4.4,0,0,1,0,.8m-4.815,0h-2.407a.4.4,0,1,1,0-.8h2.407a.4.4,0,1,1,0,.8m-4.815,0h-2.407a.4.4,0,1,1,0-.8h2.407a.4.4,0,1,1,0,.8m-4.815,0h-2.407a.4.4,0,0,1,0-.8h2.407a.4.4,0,1,1,0,.8m-4.815,0H519.03a.4.4,0,1,1,0-.8h2.407a.4.4,0,1,1,0,.8m-4.815,0h-2.408a.4.4,0,0,1,0-.8h2.408a.4.4,0,0,1,0,.8m-4.815,0H509.4a.4.4,0,0,1,0-.8h2.407a.4.4,0,1,1,0,.8m-4.814,0h-2.407a.4.4,0,1,1,0-.8h2.407a.4.4,0,0,1,0,.8m-4.815,0h-2.407a.4.4,0,1,1,0-.8h2.407a.4.4,0,0,1,0,.8m-4.815,0h-2.407a.4.4,0,1,1,0-.8h2.407a.4.4,0,1,1,0,.8m-4.815,0h-2.407a.4.4,0,1,1,0-.8h2.407a.4.4,0,0,1,0,.8m-4.815,0h-2.407a.4.4,0,1,1,0-.8h2.407a.4.4,0,0,1,0,.8" transform="translate(-311.576 -300.418)" fill="#151f2c"/>
      <path id="Trazado_116963" data-name="Trazado 116963" d="M1045.664,781.9h-2.149a.353.353,0,0,1,0-.706h2.133a.36.36,0,0,1,.361.353.346.346,0,0,1-.345.353m-4.281,0h-2.133a.353.353,0,1,1,0-.706h2.133a.353.353,0,1,1,0,.706m-4.265,0h-2.133a.353.353,0,1,1,0-.706h2.133a.353.353,0,0,1,0,.706m-4.265,0h-2.133a.353.353,0,0,1,0-.706h2.133a.353.353,0,0,1,0,.706m-4.265,0h-2.133a.353.353,0,1,1,0-.706h2.133a.353.353,0,0,1,0,.706m-4.265,0h-2.133a.353.353,0,0,1,0-.706h2.133a.353.353,0,1,1,0,.706m-4.265,0h-2.133a.353.353,0,0,1,0-.706h2.133a.353.353,0,1,1,0,.706m-4.265,0h-2.132a.353.353,0,1,1,0-.706h2.132a.353.353,0,1,1,0,.706m-4.265,0h-2.133a.353.353,0,0,1,0-.706h2.133a.353.353,0,0,1,0,.706m-4.265,0h-2.06l-.09,0a.353.353,0,1,1,.035-.705h2.115a.353.353,0,0,1,0,.706m39.782-1.351h-.012a.353.353,0,0,1-.341-.364v-2.121a.353.353,0,0,1,.706,0v2.144a.353.353,0,0,1-.353.341m-43.238-.057a.353.353,0,0,1-.353-.353v-2.133a.353.353,0,1,1,.706,0v2.133a.353.353,0,0,1-.353.353m43.238-4.208a.353.353,0,0,1-.353-.353V773.8a.353.353,0,1,1,.706,0v2.133a.353.353,0,0,1-.353.353m-43.238-.057a.353.353,0,0,1-.353-.353V773.74a.353.353,0,1,1,.706,0v2.133a.353.353,0,0,1-.353.353m43.238-4.209a.353.353,0,0,1-.353-.353v-2.133a.353.353,0,1,1,.706,0v2.133a.353.353,0,0,1-.353.353m-43.238-.057a.353.353,0,0,1-.353-.353v-2.08c0-.023,0-.045,0-.067a.347.347,0,0,1,.367-.338.353.353,0,0,1,.338.367v2.118a.353.353,0,0,1-.353.353m41.908-3.474h-2.133a.353.353,0,0,1,0-.706h2.068l.081,0a.353.353,0,0,1-.016.706m-4.265,0h-2.133a.353.353,0,1,1,0-.706h2.133a.353.353,0,0,1,0,.706m-4.265,0h-2.133a.353.353,0,0,1,0-.706h2.133a.353.353,0,0,1,0,.706m-4.265,0h-2.133a.353.353,0,0,1,0-.706h2.133a.353.353,0,1,1,0,.706m-4.266,0h-2.133a.353.353,0,0,1,0-.706h2.133a.353.353,0,1,1,0,.706m-4.265,0h-2.132a.353.353,0,1,1,0-.706h2.132a.353.353,0,1,1,0,.706m-4.265,0h-2.133a.353.353,0,1,1,0-.706h2.133a.353.353,0,0,1,0,.706m-4.265,0h-2.133a.353.353,0,0,1,0-.706h2.133a.353.353,0,0,1,0,.706m-4.265,0h-2.133a.353.353,0,1,1,0-.706h2.133a.353.353,0,0,1,0,.706m-4.266,0H1005.2a.356.356,0,0,1-.357-.353.349.349,0,0,1,.349-.353h2.133a.353.353,0,0,1,0,.706" transform="translate(-653.449 -499.98)" fill="#151f2c"/>
      <path id="Trazado_116964" data-name="Trazado 116964" d="M623.52,382.492h-2.375a.4.4,0,0,1,0-.8h2.36a.4.4,0,0,1,.406.4.393.393,0,0,1-.391.4m-4.734,0h-2.36a.4.4,0,1,1,0-.8h2.36a.4.4,0,0,1,0,.8m-4.72,0h-2.36a.4.4,0,1,1,0-.8h2.36a.4.4,0,0,1,0,.8m-4.72,0h-2.36a.4.4,0,1,1,0-.8h2.36a.4.4,0,1,1,0,.8m-4.72,0h-2.36a.4.4,0,1,1,0-.8h2.36a.4.4,0,0,1,0,.8m-4.72,0h-2.36a.4.4,0,0,1,0-.8h2.36a.4.4,0,1,1,0,.8m-4.72,0h-2.36a.4.4,0,1,1,0-.8h2.36a.4.4,0,1,1,0,.8m-4.676-.254a.4.4,0,0,1-.2-.052,2.366,2.366,0,0,1-1.2-2.053v-.289a.4.4,0,0,1,.8,0v.289a1.565,1.565,0,0,0,.792,1.36.4.4,0,0,1-.2.745m34.83-1.016a.4.4,0,0,1-.373-.539,1.555,1.555,0,0,0,.1-.55v-1.654a.4.4,0,0,1,.8,0v1.654a2.355,2.355,0,0,1-.151.831.4.4,0,0,1-.373.258m-35.824-3.34a.4.4,0,0,1-.4-.4v-2.36a.4.4,0,0,1,.8,0v2.36a.4.4,0,0,1-.4.4m35.949-1.365a.4.4,0,0,1-.4-.4v-2.36a.4.4,0,1,1,.8,0v2.36a.4.4,0,0,1-.4.4m-35.949-3.355a.4.4,0,0,1-.4-.4V370.4a.4.4,0,0,1,.8,0v2.36a.4.4,0,0,1-.4.4m35.949-1.365a.4.4,0,0,1-.4-.4v-2.36a.4.4,0,0,1,.8,0v2.36a.4.4,0,0,1-.4.4m-35.949-3.355a.4.4,0,0,1-.4-.4v-2.36a.4.4,0,0,1,.8,0v2.36a.4.4,0,0,1-.4.4m35.949-1.365a.4.4,0,0,1-.4-.4v-2.36a.4.4,0,0,1,.8,0v2.36a.4.4,0,0,1-.4.4m-35.949-3.355a.4.4,0,0,1-.4-.4v-2.36a.4.4,0,1,1,.8,0v2.36a.4.4,0,0,1-.4.4m35.949-1.365a.4.4,0,0,1-.4-.4V359.6a.4.4,0,1,1,.8,0v2.36a.4.4,0,0,1-.4.4M589.517,359a.4.4,0,0,1-.4-.4v-2.36a.4.4,0,0,1,.8,0v2.36a.4.4,0,0,1-.4.4m35.949-1.365a.4.4,0,0,1-.4-.4v-2.36a.4.4,0,0,1,.8,0v2.36a.4.4,0,0,1-.4.4m-35.949-3.355a.4.4,0,0,1-.4-.4v-1.647a2.355,2.355,0,0,1,.154-.839.4.4,0,0,1,.745.284,1.55,1.55,0,0,0-.1.556v1.647a.4.4,0,0,1-.4.4m35.949-1.365a.4.4,0,0,1-.4-.4v-.282a1.566,1.566,0,0,0-.8-1.363.4.4,0,1,1,.391-.695,2.364,2.364,0,0,1,1.2,2.058v.282a.4.4,0,0,1-.4.4m-3.317-2.242h-2.36a.4.4,0,1,1,0-.8h2.36a.4.4,0,0,1,0,.8m-4.72,0h-2.36a.4.4,0,0,1,0-.8h2.36a.4.4,0,0,1,0,.8m-4.72,0h-2.36a.4.4,0,1,1,0-.8h2.36a.4.4,0,1,1,0,.8m-4.72,0h-2.36a.4.4,0,1,1,0-.8h2.36a.4.4,0,1,1,0,.8m-4.72,0h-2.36a.4.4,0,0,1,0-.8h2.36a.4.4,0,1,1,0,.8m-4.72,0h-2.36a.4.4,0,1,1,0-.8h2.36a.4.4,0,1,1,0,.8m-4.719,0h-2.353a.4.4,0,0,1-.4-.4.4.4,0,0,1,.395-.4h2.36a.4.4,0,1,1,0,.8" transform="translate(-383.634 -227.843)" fill="#151f2c"/>
      <path id="Trazado_116965" data-name="Trazado 116965" d="M1045.664,838.328h-2.149a.353.353,0,0,1,0-.706h2.133a.36.36,0,0,1,.361.353.346.346,0,0,1-.345.353m-4.281,0h-2.133a.353.353,0,1,1,0-.706h2.133a.353.353,0,1,1,0,.706m-4.265,0h-2.133a.353.353,0,1,1,0-.706h2.133a.353.353,0,0,1,0,.706m-4.265,0h-2.133a.353.353,0,0,1,0-.706h2.133a.353.353,0,0,1,0,.706m-4.265,0h-2.133a.353.353,0,1,1,0-.706h2.133a.353.353,0,0,1,0,.706m-4.265,0h-2.133a.353.353,0,0,1,0-.706h2.133a.353.353,0,1,1,0,.706m-4.265,0h-2.133a.353.353,0,0,1,0-.706h2.133a.353.353,0,1,1,0,.706m-4.265,0h-2.132a.353.353,0,1,1,0-.706h2.132a.353.353,0,1,1,0,.706m-4.265,0h-2.133a.353.353,0,0,1,0-.706h2.133a.353.353,0,0,1,0,.706m-4.265,0h-2.06l-.09,0a.353.353,0,0,1-.336-.37.349.349,0,0,1,.37-.336l.055,0h2.06a.353.353,0,0,1,0,.706m39.782-1.351h-.012a.353.353,0,0,1-.341-.365v-2.121a.353.353,0,1,1,.706,0v2.144a.353.353,0,0,1-.353.341m-43.238-.057a.353.353,0,0,1-.353-.353v-2.133a.353.353,0,1,1,.706,0v2.133a.353.353,0,0,1-.353.353m43.238-4.208a.353.353,0,0,1-.353-.353v-2.132a.353.353,0,1,1,.706,0v2.132a.353.353,0,0,1-.353.353m-43.238-.057a.353.353,0,0,1-.353-.353v-2.133a.353.353,0,1,1,.706,0V832.3a.352.352,0,0,1-.353.353m43.238-4.208a.353.353,0,0,1-.353-.353v-2.133a.353.353,0,1,1,.706,0v2.133a.353.353,0,0,1-.353.353m-43.238-.057a.353.353,0,0,1-.353-.353v-2.079c0-.023,0-.045,0-.067a.348.348,0,0,1,.367-.339.353.353,0,0,1,.338.367v2.118a.353.353,0,0,1-.353.353m41.908-3.474h-2.133a.353.353,0,0,1,0-.706h2.068l.081,0a.353.353,0,0,1-.016.706m-4.265,0h-2.133a.353.353,0,1,1,0-.706h2.133a.353.353,0,0,1,0,.706m-4.265,0h-2.133a.353.353,0,0,1,0-.706h2.133a.353.353,0,0,1,0,.706m-4.265,0h-2.133a.353.353,0,0,1,0-.706h2.133a.353.353,0,1,1,0,.706m-4.266,0h-2.133a.353.353,0,0,1,0-.706h2.133a.353.353,0,1,1,0,.706m-4.265,0h-2.132a.353.353,0,1,1,0-.706h2.132a.353.353,0,1,1,0,.706m-4.265,0h-2.133a.353.353,0,1,1,0-.706h2.133a.353.353,0,0,1,0,.706m-4.265,0h-2.133a.353.353,0,0,1,0-.706h2.133a.353.353,0,0,1,0,.706m-4.265,0h-2.133a.353.353,0,1,1,0-.706h2.133a.353.353,0,0,1,0,.706m-4.266,0H1005.2a.356.356,0,0,1-.357-.353.349.349,0,0,1,.349-.353h2.133a.353.353,0,0,1,0,.706" transform="translate(-653.449 -536.726)" fill="#151f2c"/>
      <path id="Trazado_116966" data-name="Trazado 116966" d="M512.979,721.163h-2.129a.353.353,0,1,1,0-.706h2.114a.359.359,0,0,1,.36.353.347.347,0,0,1-.346.353m-4.243,0h-2.114a.353.353,0,1,1,0-.706h2.114a.353.353,0,1,1,0,.706m-4.229,0h-2.114a.353.353,0,1,1,0-.706h2.114a.353.353,0,1,1,0,.706m-4.228,0h-2.114a.353.353,0,1,1,0-.706h2.114a.353.353,0,1,1,0,.706m-4.228,0h-2.114a.353.353,0,1,1,0-.706h2.114a.353.353,0,1,1,0,.706m-4.228,0h-2.114a.353.353,0,1,1,0-.706h2.114a.353.353,0,1,1,0,.706m-4.228,0H485.48a.353.353,0,1,1,0-.706h2.114a.353.353,0,1,1,0,.706m-4.229,0h-2.114a.353.353,0,1,1,0-.706h2.114a.353.353,0,1,1,0,.706m-4.228,0h-2.114a.353.353,0,1,1,0-.706h2.114a.353.353,0,1,1,0,.706m-4.228,0H472.8a.353.353,0,1,1,0-.706h2.114a.353.353,0,1,1,0,.706m-4.228,0h-2.115a.353.353,0,1,1,0-.706h2.115a.353.353,0,1,1,0,.706m-4.228,0h-2.114a.353.353,0,1,1,0-.706h2.114a.353.353,0,1,1,0,.706m-4.229,0H460.11a.353.353,0,1,1,0-.706h2.114a.353.353,0,1,1,0,.706m-4.228,0h-2.114a.353.353,0,1,1,0-.706H458a.353.353,0,1,1,0,.706m-4.228,0h-2.114a.353.353,0,1,1,0-.706h2.114a.353.353,0,1,1,0,.706m-4.228,0h-1.688a3.975,3.975,0,0,1-.467-.027.353.353,0,0,1,.083-.7,3.314,3.314,0,0,0,.384.022h1.688a.353.353,0,1,1,0,.706m65.433-.61a.353.353,0,0,1-.2-.646,3.243,3.243,0,0,0,1.193-1.454.353.353,0,0,1,.652.271,3.95,3.95,0,0,1-1.451,1.768.349.349,0,0,1-.2.06m-69.455-.249a.352.352,0,0,1-.229-.084,3.944,3.944,0,0,1-1.24-1.923.353.353,0,1,1,.679-.194,3.24,3.24,0,0,0,1.019,1.579.353.353,0,0,1-.229.622m71.051-3.44a.353.353,0,0,1-.353-.353V714.4a.353.353,0,0,1,.706,0v2.114a.353.353,0,0,1-.353.353m-72.318-.412a.353.353,0,0,1-.353-.353v-2.114a.353.353,0,0,1,.706,0V716.1a.353.353,0,0,1-.353.353m72.318-3.816a.353.353,0,0,1-.353-.353v-2.114a.353.353,0,0,1,.706,0v2.114a.353.353,0,0,1-.353.353m-72.318-.412a.353.353,0,0,1-.353-.353v-2.114a.353.353,0,0,1,.706,0v2.114a.353.353,0,0,1-.353.353m72.318-3.816a.353.353,0,0,1-.353-.353V705.94a.353.353,0,1,1,.706,0v2.114a.353.353,0,0,1-.353.353m-72.318-.412a.353.353,0,0,1-.353-.353v-2.114a.353.353,0,1,1,.706,0v2.114a.353.353,0,0,1-.353.353m72.318-3.816a.353.353,0,0,1-.353-.353v-2.114a.353.353,0,1,1,.706,0v2.114a.353.353,0,0,1-.353.353m-72.318-.412a.353.353,0,0,1-.353-.353V701.3a.353.353,0,0,1,.706,0v2.114a.353.353,0,0,1-.353.353m72.318-3.817a.353.353,0,0,1-.353-.353v-2.114a.353.353,0,1,1,.706,0V699.6a.353.353,0,0,1-.353.353m-72.318-.412a.353.353,0,0,1-.353-.353v-2.114a.353.353,0,0,1,.706,0v2.114a.353.353,0,0,1-.353.353m72.318-3.817a.353.353,0,0,1-.353-.353v-2.114a.353.353,0,0,1,.706,0v2.114a.353.353,0,0,1-.353.353m-72.318-.412a.353.353,0,0,1-.353-.353v-2.114a.353.353,0,1,1,.706,0v2.114a.353.353,0,0,1-.353.353m72.318-3.817a.353.353,0,0,1-.353-.353v-2.114a.353.353,0,0,1,.706,0v2.114a.353.353,0,0,1-.353.353m-72.318-.412a.353.353,0,0,1-.353-.353v-2.114a.353.353,0,0,1,.706,0v2.114a.353.353,0,0,1-.353.353m72.318-3.816a.353.353,0,0,1-.353-.353V684.8a.353.353,0,1,1,.706,0v2.114a.353.353,0,0,1-.353.353m-72.318-.412a.353.353,0,0,1-.353-.353v-2.114a.353.353,0,0,1,.706,0V686.5a.353.353,0,0,1-.353.353m72.318-3.817a.353.353,0,0,1-.353-.353V680.57a.353.353,0,0,1,.706,0v2.114a.353.353,0,0,1-.353.353m-72.318-.412a.353.353,0,0,1-.353-.353v-2.114a.353.353,0,1,1,.706,0v2.114a.353.353,0,0,1-.353.353m72.318-3.817a.353.353,0,0,1-.353-.353v-2.114a.353.353,0,1,1,.706,0v2.114a.353.353,0,0,1-.353.353m-72.318-.412a.353.353,0,0,1-.353-.353v-2.114a.353.353,0,1,1,.706,0v2.114a.353.353,0,0,1-.353.353m72.318-3.816a.353.353,0,0,1-.353-.353v-2.114a.353.353,0,0,1,.706,0v2.114a.353.353,0,0,1-.353.353m-72.318-.412a.353.353,0,0,1-.353-.353V671.7a.353.353,0,0,1,.706,0v2.114a.353.353,0,0,1-.353.353m72.178-3.8a.353.353,0,0,1-.339-.255,3.243,3.243,0,0,0-1.022-1.577.353.353,0,1,1,.456-.539,3.942,3.942,0,0,1,1.244,1.92.353.353,0,0,1-.241.437.357.357,0,0,1-.1.014m-71.9-.388a.354.354,0,0,1-.326-.489,3.951,3.951,0,0,1,1.454-1.766.353.353,0,1,1,.392.587,3.247,3.247,0,0,0-1.2,1.451.353.353,0,0,1-.326.217m68.858-2.191-.041,0a3.317,3.317,0,0,0-.378-.022h-1.7a.353.353,0,0,1,0-.706h1.7a4,4,0,0,1,.458.026.353.353,0,0,1-.04.7m-4.228-.024h-2.114a.353.353,0,1,1,0-.706h2.114a.353.353,0,1,1,0,.706m-4.228,0h-2.114a.353.353,0,1,1,0-.706h2.114a.353.353,0,0,1,0,.706m-4.229,0h-2.114a.353.353,0,0,1,0-.706H500.7a.353.353,0,1,1,0,.706m-4.228,0h-2.114a.353.353,0,1,1,0-.706h2.114a.353.353,0,0,1,0,.706m-4.228,0h-2.114a.353.353,0,1,1,0-.706h2.114a.353.353,0,1,1,0,.706m-4.228,0H485.9a.353.353,0,0,1,0-.706h2.114a.353.353,0,0,1,0,.706m-4.228,0h-2.114a.353.353,0,1,1,0-.706h2.114a.353.353,0,0,1,0,.706m-4.228,0h-2.114a.353.353,0,0,1,0-.706h2.114a.353.353,0,1,1,0,.706m-4.228,0h-2.114a.353.353,0,0,1,0-.706h2.114a.353.353,0,0,1,0,.706m-4.229,0h-2.114a.353.353,0,1,1,0-.706H471.1a.353.353,0,0,1,0,.706m-4.228,0h-2.114a.353.353,0,0,1,0-.706h2.114a.353.353,0,0,1,0,.706m-4.228,0h-2.114a.353.353,0,1,1,0-.706h2.114a.353.353,0,0,1,0,.706m-4.228,0H456.3a.353.353,0,1,1,0-.706h2.114a.353.353,0,1,1,0,.706m-4.228,0h-2.114a.353.353,0,0,1,0-.706h2.114a.353.353,0,1,1,0,.706m-4.228,0h-2.107a.356.356,0,0,1-.357-.353.35.35,0,0,1,.349-.353h2.114a.353.353,0,0,1,0,.706" transform="translate(-289.066 -434.389)" fill="#151f2c"/>
      <path id="Trazado_116967" data-name="Trazado 116967" d="M535.107,536.689H449.656a3.339,3.339,0,0,1-3.339-3.339V486.627a3.339,3.339,0,0,1,3.339-3.339h85.451a3.339,3.339,0,0,1,3.339,3.339V533.35a3.339,3.339,0,0,1-3.339,3.339" transform="translate(-290.642 -314.719)" fill="#e9e9e9"/>
      <path id="Trazado_116968" data-name="Trazado 116968" d="M548.576,526.358v21.185a1.665,1.665,0,0,0,2.579,1.391l16.1-10.592a1.664,1.664,0,0,0,0-2.781l-16.1-10.593a1.665,1.665,0,0,0-2.579,1.391" transform="translate(-357.233 -341.68)" fill="#43a1f6"/>
      <path id="Trazado_116969" data-name="Trazado 116969" d="M460.046,619.491a1.653,1.653,0,1,1,1.654,1.653,1.654,1.654,0,0,1-1.654-1.653" transform="translate(-299.583 -402.337)" fill="#aec3ff"/>
      <path id="Trazado_116970" data-name="Trazado 116970" d="M540.016,622.191H465.232a.445.445,0,0,1,0-.891h74.784a.445.445,0,0,1,0,.891" transform="translate(-302.67 -404.593)" fill="#aec3ff"/>
      <rect id="Rectángulo_36268" data-name="Rectángulo 36268" width="47.663" height="71.15" transform="translate(241.832 233.02)" fill="#e9e9e9"/>
      <path id="Trazado_116971" data-name="Trazado 116971" d="M773.553,709.614H772.9v-2.932a1.909,1.909,0,0,1,1.907-1.907h8.064a1.256,1.256,0,0,0,1.213-.936l1.276-4.849a1.255,1.255,0,0,0-1.214-1.574H773.625v-.652h10.522a1.907,1.907,0,0,1,1.844,2.393l-1.275,4.848a1.909,1.909,0,0,1-1.844,1.422h-8.064a1.256,1.256,0,0,0-1.255,1.255Z" transform="translate(-503.314 -453.735)" fill="#384152"/>
      <path id="Trazado_116972" data-name="Trazado 116972" d="M766.678,695.315H752.821A2.118,2.118,0,0,1,750.7,693.2v-1.266a2.117,2.117,0,0,1,2.118-2.117h13.857a2.117,2.117,0,0,1,2.117,2.117V693.2a2.117,2.117,0,0,1-2.117,2.117" transform="translate(-488.859 -449.209)" fill="#43a1f6"/>
      <path id="Trazado_116973" data-name="Trazado 116973" d="M770.488,741.514h0a1.793,1.793,0,0,1-1.793-1.793V728.855a1.793,1.793,0,1,1,3.586,0v10.866a1.793,1.793,0,0,1-1.793,1.793" transform="translate(-500.575 -473.465)" fill="#384152"/>
      <path id="Trazado_116974" data-name="Trazado 116974" d="M964.488,835.761s1.234,3.8,1.128,4.668a16.918,16.918,0,0,1-1.434,4.6c-.553.76-.826-3.095-1.264-3.675s-.09,1.451-.4,1.64-.952-1.495-1.229-2.088.677-2.782.679-4.308,2.518-.835,2.518-.835" transform="translate(-625.961 -544.148)" fill="#ee805f"/>
      <path id="Trazado_116975" data-name="Trazado 116975" d="M887.344,738.6a5.394,5.394,0,0,1,8.127-5.077c.077.046.153.094.228.142,5.594,3.6,17.664,20.4,18.494,22.085s3.283,15.073,3.283,15.073-3.03,1.108-4.447-.042c0,0-4.915-12.7-5.641-13.334s-19.655-11.255-19.816-15.237c-.043-1.053-.127-2.319-.229-3.611" transform="translate(-577.828 -477.167)" fill="#151f2c"/>
      <path id="Trazado_116976" data-name="Trazado 116976" d="M968.961,1029.654s2.255,2.058,1.815,3.521-2.475,2.438-2.75,4.225-1.376,2.762-2.366,2.762h-4.72s-.729-1.258,1.031-1.637,2.424-2.48,2.314-4.43a34.356,34.356,0,0,1,.165-4.55l3.741-.867Z" transform="translate(-625.668 -669.878)" fill="#2a4a7c"/>
      <path id="Trazado_116977" data-name="Trazado 116977" d="M880.133,1043.353s.4,4.684-.585,5.172l-12.673-.026s0-1.463,2.036-1.787,5.611-1.517,6.216-4.171,5.006.812,5.006.812" transform="translate(-564.51 -678.253)" fill="#2a4a7c"/>
      <path id="Trazado_116978" data-name="Trazado 116978" d="M874.211,854.9s.669,8.211,1.454,18.081c1.068,13.408,2.352,29.878,2.479,33,.22,5.418,1.1,14.084,1.1,14.084s2.09,2.059,6.272,1.191a139.835,139.835,0,0,0,4.791-25.461c.016-.215.033-.431.05-.647.99-13.325,2.53-41.384,2.53-41.384Z" transform="translate(-569.287 -555.975)" fill="#ffa726"/>
      <path id="Trazado_116979" data-name="Trazado 116979" d="M874.211,854.9s.669,8.211,1.454,18.081L890.307,895.8c.016-.215.033-.431.05-.647.99-13.325,2.53-41.384,2.53-41.384Z" transform="translate(-569.287 -555.975)" fill="#ffca28"/>
      <path id="Trazado_116980" data-name="Trazado 116980" d="M882.962,849.813s12.048,29.738,19.969,43.713,10.4,17.875,10.4,17.875,4.538-1.787,4.951-3.006c0,0-3.029-26.98-8.334-33.556-3-3.716-6.519-14.869-6.684-18.769s-1.072-11.619-1.072-11.619Z" transform="translate(-574.986 -549.908)" fill="#ffa726"/>
      <path id="Trazado_116981" data-name="Trazado 116981" d="M888.849,713.647s-8.072,4.094-12.8,2.728a11.089,11.089,0,0,1,3.13-2.607c-.181-.94-.324-1.756-.41-2.449a22.71,22.71,0,0,1-.249-2.505l3.1-2.535,2.935-2.426a12.018,12.018,0,0,0,4.3,9.794" transform="translate(-570.485 -458.351)" fill="#ee805f"/>
      <path id="Trazado_116982" data-name="Trazado 116982" d="M889.266,768.813a33.249,33.249,0,0,1-9.955,4.288c-4.259,1.01-9.494.712-11.245.979a.726.726,0,0,1-.511-.129c-.138-.07-.91-5.266-1.685-11.823-.034-.263-.07-.53-.085-.8l-.011-.088c-.3-2.563-.565-5.256-.794-7.955-.187-2.1-.341-4.177-.447-6.128-.134-2.441-.19-4.683-.134-6.527.024-.843.073-1.6.149-2.259a16.072,16.072,0,0,1,4.008-8.6l1.427-1.624a7.823,7.823,0,0,0,4.938-1.26c1.743-1.148,3.624-2.382,3.979-2.176,2.671,1.462,4.846,5.249,6.4,10.251a57.113,57.113,0,0,1,2.011,9.607c.141,1.074.26,2.175.352,3.272.018.2.033.406.049.606.21,3,.552,5.809.932,8.318.511,3.385,1.091,6.22,1.5,8.217.206,1.016.364,1.8.456,2.365.084.491-.9,1.2-1.339,1.468" transform="translate(-562.884 -471.918)" fill="#384152"/>
      <path id="Trazado_116983" data-name="Trazado 116983" d="M889.27,710.927a10.8,10.8,0,0,1-5.886,4.923,22.707,22.707,0,0,1-.249-2.505l3.1-2.535Z" transform="translate(-575.099 -462.881)" fill="#de6b4d"/>
      <path id="Trazado_116984" data-name="Trazado 116984" d="M875.968,694.084s7.8,1.118,8.435-3.676,2.07-7.879-2.884-8.795-6.165.789-6.772,2.339-.792,9.718,1.221,10.132" transform="translate(-569.368 -443.7)" fill="#ee805f"/>
      <path id="Trazado_116985" data-name="Trazado 116985" d="M882.128,675.444c.069-.082.23-.151.592-.178a1.47,1.47,0,0,0-.681-.177A1.822,1.822,0,0,0,880.8,673.5a1.087,1.087,0,0,1,.542.774c-1.025-1.012-3.191-1.719-9.14-1.131-7.84.776-5.152,5.752-4.124,6.331s3.555-1.115,5.452-1,2.312,2.843,2.962,3.206.384-.3,1.245-.706.973,1.029.74,1.97.986,2.154.986,2.154l1.181-1.324c1.181-1.324,2.21-6.853,1.638-8.016-.051-.1-.1-.207-.152-.312" transform="translate(-564.454 -438.214)" fill="#151f2c"/>
      <path id="Trazado_116986" data-name="Trazado 116986" d="M878.082,770.829s-6.577,5-13.548,6.1c-.134-2.441-.19-4.683-.134-6.528Z" transform="translate(-562.884 -501.688)" fill="#151f2c"/>
      <path id="Trazado_116987" data-name="Trazado 116987" d="M774.431,745.116c-.1-.111-1.445-4.595-3.763-4.267-1.513.213-3.986,1.089-3.33,3.083.258.784,4.869,3.484,4.869,3.484Z" transform="translate(-499.621 -482.432)" fill="#ee805f"/>
      <path id="Trazado_116988" data-name="Trazado 116988" d="M824.376,739.739a5.394,5.394,0,0,1-.565,9.566q-.124.053-.248.1c-6.174,2.477-26.862,2.592-28.715,2.295s-14.191-6.05-14.191-6.05.85-3.112,2.608-3.6c0,0,13.2,3.344,14.137,3.12s20.556-9.51,23.9-7.336c.883.574,1.964,1.238,3.076,1.9" transform="translate(-508.365 -480.266)" fill="#384152"/>
      <path id="Trazado_116989" data-name="Trazado 116989" d="M1271.894,317.25h-16.468a1.258,1.258,0,1,1,0-2.517h16.468a1.258,1.258,0,1,1,0,2.517" transform="translate(-816.716 -204.956)" fill="#ebf3fa"/>
      <path id="Trazado_116990" data-name="Trazado 116990" d="M1271.894,331.347h-16.468a1.258,1.258,0,1,1,0-2.517h16.468a1.258,1.258,0,1,1,0,2.517" transform="translate(-816.716 -214.136)" fill="#ebf3fa"/>
      <path id="Trazado_116991" data-name="Trazado 116991" d="M1271.894,345.808h-16.468a1.258,1.258,0,1,1,0-2.517h16.468a1.258,1.258,0,1,1,0,2.517" transform="translate(-816.716 -223.553)" fill="#ebf3fa"/>
      <path id="Trazado_116992" data-name="Trazado 116992" d="M1043.8,684.693h-39.2a1.669,1.669,0,1,1,0-3.338h39.2a1.669,1.669,0,1,1,0,3.338" transform="translate(-653.105 -443.7)" fill="#ebf3fa"/>
      <path id="Trazado_116993" data-name="Trazado 116993" d="M494.374,356.3h-39.2a1.669,1.669,0,1,1,0-3.338h39.2a1.669,1.669,0,0,1,0,3.338" transform="translate(-295.32 -229.854)" fill="#ebf3fa"/>
      <path id="Trazado_116994" data-name="Trazado 116994" d="M1043.8,732.157h-39.2a1.669,1.669,0,1,1,0-3.338h39.2a1.669,1.669,0,1,1,0,3.338" transform="translate(-653.105 -474.609)" fill="#ebf3fa"/>
      <path id="Trazado_116995" data-name="Trazado 116995" d="M1029.449,708.426H982.56a1.669,1.669,0,1,1,0-3.338h46.889a1.669,1.669,0,1,1,0,3.338" transform="translate(-638.758 -459.155)" fill="#ebf3fa"/>
      <path id="Trazado_116996" data-name="Trazado 116996" d="M493.649,386.389H471.528a1.274,1.274,0,0,1-1.27-1.271v-.8a1.274,1.274,0,0,1,1.27-1.271h22.121a1.275,1.275,0,0,1,1.271,1.271v.8a1.275,1.275,0,0,1-1.271,1.271" transform="translate(-306.233 -249.444)" fill="#ebf3fa"/>
      <path id="Trazado_116997" data-name="Trazado 116997" d="M449.255,384.721a1.669,1.669,0,1,1,1.669,1.669,1.669,1.669,0,0,1-1.669-1.669" transform="translate(-292.555 -249.445)" fill="#ebf3fa"/>
      <path id="Trazado_116998" data-name="Trazado 116998" d="M497.847,405.43H471.634a1.381,1.381,0,0,1-1.377-1.377v-.584a1.381,1.381,0,0,1,1.377-1.377h26.213a1.381,1.381,0,0,1,1.377,1.377v.584a1.381,1.381,0,0,1-1.377,1.377" transform="translate(-306.232 -261.844)" fill="#ebf3fa"/>
      <path id="Trazado_116999" data-name="Trazado 116999" d="M449.255,403.762a1.669,1.669,0,1,1,1.669,1.669,1.669,1.669,0,0,1-1.669-1.669" transform="translate(-292.555 -261.845)" fill="#ebf3fa"/>
      <path id="Trazado_117000" data-name="Trazado 117000" d="M493.649,426.1H471.528a1.274,1.274,0,0,1-1.27-1.271v-.8a1.274,1.274,0,0,1,1.27-1.271h22.121a1.275,1.275,0,0,1,1.271,1.271v.8a1.275,1.275,0,0,1-1.271,1.271" transform="translate(-306.233 -275.303)" fill="#ebf3fa"/>
      <path id="Trazado_117001" data-name="Trazado 117001" d="M449.255,424.43a1.669,1.669,0,1,1,1.669,1.669,1.669,1.669,0,0,1-1.669-1.669" transform="translate(-292.555 -275.303)" fill="#ebf3fa"/>
      <path id="Trazado_117002" data-name="Trazado 117002" d="M640.18,381.46a5.969,5.969,0,0,1-.882.055,5.887,5.887,0,0,1-4.046-10.1h0a5.888,5.888,0,1,1,4.928,10.044m-4.251-9.35a4.918,4.918,0,1,0,6.954.081,4.923,4.923,0,0,0-6.954-.081" transform="translate(-412.524 -240.778)" fill="#151f2c"/>
      <rect id="Rectángulo_36269" data-name="Rectángulo 36269" width="8.035" height="0.97" transform="translate(216.892 143.894) rotate(-44.331)" fill="#151f2c"/>
      <path id="Trazado_117003" data-name="Trazado 117003" d="M616.611,410.214h0a.866.866,0,0,1,.014-1.224l3.384-3.307a.866.866,0,1,1,1.21,1.238l-3.385,3.307a.866.866,0,0,1-1.224-.014" transform="translate(-401.377 -264.021)" fill="#151f2c"/>
      <path id="Trazado_117004" data-name="Trazado 117004" d="M1351.763,800.216h0A1.934,1.934,0,0,1,1350,799L1304.766,661.27a.907.907,0,0,1,.959-1.228,1.934,1.934,0,0,1,1.76,1.212l45.236,137.733a.907.907,0,0,1-.959,1.228" transform="translate(-849.628 -429.821)" fill="#151f2c"/>
      <path id="Trazado_117005" data-name="Trazado 117005" d="M1456.285,799.611h0a1.935,1.935,0,0,1-1.76-1.212l-45.236-137.733a.907.907,0,0,1,.959-1.228,1.933,1.933,0,0,1,1.76,1.212l45.236,137.733a.907.907,0,0,1-.959,1.228" transform="translate(-917.693 -429.427)" fill="#151f2c"/>
      <path id="Trazado_117006" data-name="Trazado 117006" d="M1360.039,713.68l-36.61.212a1.832,1.832,0,0,1-1.662-1.145.859.859,0,0,1,.905-1.159l36.609-.212a1.831,1.831,0,0,1,1.662,1.144.858.858,0,0,1-.9,1.159" transform="translate(-860.701 -463.25)" fill="#151f2c"/>
      <path id="Trazado_117007" data-name="Trazado 117007" d="M1382.683,782.624l-36.61.212a1.832,1.832,0,0,1-1.662-1.144.858.858,0,0,1,.9-1.159l36.61-.212a1.832,1.832,0,0,1,1.662,1.144.859.859,0,0,1-.905,1.16" transform="translate(-875.447 -508.146)" fill="#151f2c"/>
      <path id="Trazado_117008" data-name="Trazado 117008" d="M1404.492,849.027l-36.61.212a1.832,1.832,0,0,1-1.661-1.145.858.858,0,0,1,.905-1.159l36.609-.212a1.832,1.832,0,0,1,1.662,1.144.858.858,0,0,1-.9,1.159" transform="translate(-889.649 -551.388)" fill="#151f2c"/>
      <path id="Trazado_117009" data-name="Trazado 117009" d="M1429.044,923.781l-36.61.212a1.831,1.831,0,0,1-1.662-1.145.858.858,0,0,1,.9-1.159l36.61-.212a1.831,1.831,0,0,1,1.661,1.144.858.858,0,0,1-.9,1.159" transform="translate(-905.637 -600.068)" fill="#151f2c"/>
      <path id="Trazado_117010" data-name="Trazado 117010" d="M1454.74,1002.023l-36.61.212a1.832,1.832,0,0,1-1.662-1.145.859.859,0,0,1,.905-1.159l36.609-.212a1.832,1.832,0,0,1,1.662,1.144.858.858,0,0,1-.905,1.159" transform="translate(-922.371 -651.019)" fill="#151f2c"/>
      <path id="Trazado_117011" data-name="Trazado 117011" d="M1298.073,475.091h0a.533.533,0,0,1-.623-.421l-.586-3.026a.531.531,0,0,1,1.043-.2l.586,3.026a.533.533,0,0,1-.421.623" transform="translate(-844.513 -306.724)" fill="#151f2c"/>
      <rect id="Rectángulo_36270" data-name="Rectángulo 36270" width="0.365" height="4.455" transform="matrix(0.982, -0.19, 0.19, 0.982, 451.604, 159.227)" fill="#151f2c"/>
      <path id="Trazado_117012" data-name="Trazado 117012" d="M1286.76,374.686a14.062,14.062,0,0,0-1.076-4.164,5.672,5.672,0,0,0-3.665-1.722c-.54.523,1.6,2.374,1.68,3.056s-1.085.21-.523,1.54a10.389,10.389,0,0,0,2.035,2.579Z" transform="translate(-834.796 -240.148)" fill="#ee805f"/>
      <path id="Trazado_117013" data-name="Trazado 117013" d="M1289.937,383.312c1.006-.79,1.22-.775,1.22-.775s9.309,8.065,10.215,8.783,14.888,4.773,14.888,4.773l2.221,11.366s-18.919-9.138-21.179-11c-3.736-3.082-8.449-11.705-8.449-11.705a3.568,3.568,0,0,1,1.084-1.439" transform="translate(-839.303 -249.11)" fill="#ffca28"/>
      <path id="Trazado_117014" data-name="Trazado 117014" d="M1347.224,694.873s-.16,3.885-.906,4.829l-10.377.06a1.623,1.623,0,0,1,1.551-1.577,6.961,6.961,0,0,0,5.04-3.977c1.156-2.521,4.692.666,4.692.666" transform="translate(-869.967 -451.438)" fill="#151f2c"/>
      <path id="Trazado_117015" data-name="Trazado 117015" d="M1403.873,693.375s.723,5.16-.259,5.251c-.131.012-4.182.077-5.936.106-2.063.034-5.453-.038-5.453-.038a.539.539,0,0,1-.488-.811,2.175,2.175,0,0,1,1.559-1c1.807-.348,4.819-1.675,5.875-4.09,1.111-2.541,4.7.582,4.7.582" transform="translate(-906.252 -450.5)" fill="#151f2c"/>
      <path id="Trazado_117016" data-name="Trazado 117016" d="M1352.82,526.237s2.885,10.1,11.155,27.629,8.627,25.982,8.627,25.982a7.268,7.268,0,0,0,2.912.266,7.832,7.832,0,0,0,3.065-.993s-.536-20.869-4.442-29.716-4.7-33.06-4.7-33.06Z" transform="translate(-880.958 -336.245)" fill="#151f2c"/>
      <path id="Trazado_117017" data-name="Trazado 117017" d="M1339.53,519.8a251.789,251.789,0,0,0,2.475,34.829c2.705,19.2,1.44,28.122,1.44,28.122a5.393,5.393,0,0,0,2.922.513,6.555,6.555,0,0,0,3.9-1.077s3.872-19.2,2.762-28.81,5.3-32.968,5.3-32.968Z" transform="translate(-872.3 -338.495)" fill="#384152"/>
      <path id="Trazado_117018" data-name="Trazado 117018" d="M1362.239,400.482l-3.056,2.263-4.416-.93c.061-.4.352-2.072.618-3.584.016-.089.032-.178.048-.265.227-1.286.424-2.391.424-2.391l4.124-2.056,1.538-.766c0,.027-.119,1.428-.135,1.632a13.206,13.206,0,0,0,.856,6.1" transform="translate(-882.227 -255.762)" fill="#ee805f"/>
      <path id="Trazado_117019" data-name="Trazado 117019" d="M1360.01,450.978c-1,4.569-22.381,2.564-22.1-.226.01-.093.067-1.384.143-3.124.162-3.764.409-9.646.441-10.106,0-.008,0-.016,0-.024.385-3.884.755-7.683.778-10.164a35.279,35.279,0,0,1,.712-6.349c.364-1.844.811-3.517,1.2-4.821a5.329,5.329,0,0,1,3.124-3.425,4.6,4.6,0,0,1,.518-.181c2.516-.73,6-1.634,6.942-1.357,2.555.752,4.455,5.252,5.8,10.988,2.516,10.735,3.1,25.811,2.444,28.789" transform="translate(-871.245 -267.742)" fill="#ffa726"/>
      <path id="Trazado_117020" data-name="Trazado 117020" d="M1362.228,395.878c-.906,1.733-4.281,3.232-5.689,3.783.016-.089.032-.178.047-.265.227-1.287.424-2.391.424-2.391l4.124-2.056c.912-.014,1.467.216,1.093.93" transform="translate(-883.38 -257.192)" fill="#de6b4d"/>
      <path id="Trazado_117021" data-name="Trazado 117021" d="M1350.406,377.287s7.441,2.321,8.815-2.335,3.26-7.493-1.432-9.171-6.144-.176-6.981,1.266-2.3,9.516-.4,10.24" transform="translate(-878.78 -237.716)" fill="#ee805f"/>
      <path id="Trazado_117022" data-name="Trazado 117022" d="M1352.826,361.852s.474,5.418,1.595,5.183,2.137-.409,1.973,1.224-1.718,3.519,1.736,3.808,8.418-8.617,7.469-10.3c-2.737-4.865-16.729-5.847-12.772.088" transform="translate(-880.506 -232.969)" fill="#151f2c"/>
      <path id="Trazado_117023" data-name="Trazado 117023" d="M1338.323,482.719c.162-3.764.409-9.646.441-10.106,0-.008,0-.016,0-.024l12.632-7.553s.489,17.632-13.076,17.682" transform="translate(-871.518 -302.834)" fill="#ffca28"/>
      <path id="Trazado_117024" data-name="Trazado 117024" d="M1297.8,466.457a33.432,33.432,0,0,0-3.054-1.888,6.419,6.419,0,0,0-2.158-.189c-.074.126-.292.511-.014.641s.626.085.522.176-1.153-.408-1.4.127-.455,2.368.777,2.924,4.27.054,4.489.118c1.859.54.833-1.908.833-1.908" transform="translate(-841.037 -302.376)" fill="#ee805f"/>
      <path id="Trazado_117025" data-name="Trazado 117025" d="M1307.958,439.859s12.53,2.13,13.64,1.589c1.772-.863-.687-13.576-.687-13.576a3.656,3.656,0,0,1,3.26-3.561c2.924-.591,5.746,1.6,5.746,1.6s2.566,2.3,2.238,4.843c-.727,5.645-1.857,17.127-5.633,18.887-4.87,2.27-18.963-6.3-18.963-6.3a2.464,2.464,0,0,1-.4-1.642,3.829,3.829,0,0,1,.8-1.847" transform="translate(-851.217 -276.248)" fill="#ffa726"/>
      <path id="Trazado_117026" data-name="Trazado 117026" d="M1283.538,377.661s-.8-1.594-.93-1.893.184-.235.493-.068.73,1.092,1.205.98c.378-.089-.768.98-.768.98" transform="translate(-835.216 -244.565)" fill="#ee805f"/>
    </g>
  </g>
</svg>
