<svg xmlns="http://www.w3.org/2000/svg" width="171.751" height="136.598" viewBox="0 0 171.751 136.598">
  <g id="Grupo_143422" data-name="Grupo 143422" transform="translate(-780.674 -958.229)">
    <path id="Trazado_188655" data-name="Trazado 188655" d="M98.522-54.968q0,27.575-11.414,42.185T53.689,1.826q-21.731,0-33.236-14.335T8.674-53.6V-78.069q0-27.849,11.551-42.276t33.282-14.427q21.731,0,33.236,14.29T98.522-79.438Zm-26.388-26.9q0-16.544-4.52-24.084T53.507-113.5q-9.313,0-13.742,7.175t-4.7,22.438v32.355q0,16.269,4.428,24.175t14.2,7.906q9.679,0,13.97-7.586T72.134-50.25ZM180.426,0H154.038V-101.858l-31.5,9.727v-21.275L177.6-133.128h2.831Z" transform="translate(772 1093)" fill="#12263f" opacity="0.201"/>
  </g>
</svg>
