<svg id="Grupo_20539" data-name="Grupo 20539" xmlns="http://www.w3.org/2000/svg" xmlns:xlink="http://www.w3.org/1999/xlink" width="369.415" height="390.075" viewBox="0 0 369.415 390.075">
  <defs>
    <clipPath id="clip-path">
      <rect id="Rectángulo_4825" data-name="Rectángulo 4825" width="222" height="113" transform="translate(0)" fill="#fff" stroke="#707070" stroke-width="1"/>
    </clipPath>
  </defs>
  <g id="Enmascarar_grupo_41" data-name="Enmascarar grupo 41" transform="translate(101.175 237.999)" clip-path="url(#clip-path)">
    <g id="Grupo_20533" data-name="Grupo 20533" transform="translate(147.876 40.252)">
      <rect id="Rectángulo_4818" data-name="Rectángulo 4818" width="24.873" height="443.308" transform="matrix(-0.74, 0.673, -0.673, -0.74, 331.769, 341.582)" fill="#f8f8a6"/>
      <rect id="Rectángulo_4819" data-name="Rectángulo 4819" width="11.127" height="443.308" transform="matrix(-0.74, 0.673, -0.673, -0.74, 306.564, 364.514)" fill="#f8f8a6"/>
      <rect id="Rectángulo_4820" data-name="Rectángulo 4820" width="11.127" height="443.308" transform="matrix(-0.74, 0.673, -0.673, -0.74, 346.808, 327.899)" fill="#f8f8a6"/>
    </g>
  </g>
  <g id="Grupo_20534" data-name="Grupo 20534">
    <g id="Grupo_20526" data-name="Grupo 20526" transform="translate(198.515 223.166)">
      <path id="Trazado_2110" data-name="Trazado 2110" d="M350.963,423.655a151.847,151.847,0,0,1,8.768-16.725c3.378-5.572,7.237-11.579,7.919-17.825l13.7,11.3a2.189,2.189,0,0,1,.437.361c3.62,3.979-8.515,20.916-27.105,37.829q-2.57,2.338-5.115,4.506a18.421,18.421,0,0,1-1.8-6.506C347.446,432.117,349.129,427.753,350.963,423.655Z" transform="translate(-275.168 -356.175)" fill="#93f5e5"/>
      <path id="Trazado_2111" data-name="Trazado 2111" d="M402.866,459.644a2.175,2.175,0,0,1-.318-.469l-38.983-57.546L416.133,353.8l39.916,32.93c-.683,6.246-4.542,12.253-7.919,17.825a151.847,151.847,0,0,0-8.768,16.725c-1.835,4.1-3.518,8.462-3.2,12.943a18.42,18.42,0,0,0,1.8,6.506C421.294,454.948,406.153,463.257,402.866,459.644Z" transform="translate(-363.565 -353.803)" fill="#5dc2ae"/>
    </g>
    <g id="Grupo_20527" data-name="Grupo 20527" transform="translate(166.794 97.626)">
      <path id="Trazado_2112" data-name="Trazado 2112" d="M313.449,234.106c23.672,29.087,48.612,57.274,79.04,78.984,12.175,8.686,25.29,16.327,39.609,20.643a79.132,79.132,0,0,0,30.926,3.222l19.1,22.343h0c-15.927,14.492-38.538,17.035-54.736,6.044L279.5,264.995Z" transform="translate(-279.499 -220.218)" fill="#164377"/>
      <path id="Trazado_2113" data-name="Trazado 2113" d="M418.619,332.732c-14.319-4.316-27.434-11.957-39.609-20.643-30.429-21.71-55.368-49.9-79.04-78.984l2.494-2.27c17.783-16.179,44.138-15.326,58.711,1.725l88.37,103.395A79.132,79.132,0,0,1,418.619,332.732Z" transform="translate(-266.02 -219.217)" fill="#105697"/>
    </g>
    <g id="Grupo_20528" data-name="Grupo 20528" transform="translate(75.106 179.47)">
      <path id="Trazado_2114" data-name="Trazado 2114" d="M497.3,408.327,451.4,365a43.9,43.9,0,0,1,13.887-24.882l36.445-33.159,83.012,151.3c-13.08-.6-26.193-4.732-37.839-10.9C528.251,437.487,512.653,422.817,497.3,408.327Z" transform="translate(-450.788 -306.958)" fill="#105697"/>
      <path id="Trazado_2115" data-name="Trazado 2115" d="M443.667,369.181l45.9,43.327c15.35,14.49,30.948,29.16,49.6,39.034,11.646,6.163,24.759,10.291,37.839,10.9l2.954,5.385c9.416,17.161,4.754,39.431-11.174,53.923L453.739,402.91A38.5,38.5,0,0,1,443.667,369.181Z" transform="translate(-443.053 -311.14)" fill="#164377"/>
    </g>
    <path id="Trazado_2116" data-name="Trazado 2116" d="M458.965,430.94a55.948,55.948,0,0,1-8.023,3.022A55.948,55.948,0,0,0,458.965,430.94Z" transform="translate(-249.471 -135.821)" fill="none"/>
    <path id="Trazado_2117" data-name="Trazado 2117" d="M440.713,421.362q-3.32,2.233-6.505,4.122Q437.386,423.6,440.713,421.362Z" transform="translate(-215.61 -135.177)" fill="none"/>
    <path id="Trazado_2118" data-name="Trazado 2118" d="M447.354,425.781c-2.118,1.256-4.182,2.392-6.172,3.4C443.173,428.173,445.236,427.037,447.354,425.781Z" transform="translate(-228.756 -135.474)" fill="none"/>
    <path id="Trazado_2119" data-name="Trazado 2119" d="M365.578,388.087c11.5-12.638,19.183-24.829,20.957-33.186l8.681,11.535c3.266,4.168-.1,13.487-7.925,24.51A44.18,44.18,0,0,0,376.6,388.4,99.984,99.984,0,0,0,365.578,388.087Z" transform="translate(-107.336 -130.71)" fill="#93f5e5"/>
    <path id="Trazado_2120" data-name="Trazado 2120" d="M388.012,428.22q1.437-.658,2.932-1.413c1.991-1.007,4.054-2.143,6.172-3.4s4.292-2.633,6.505-4.122a181.3,181.3,0,0,0,20.519-16.219c4.576-4.163,8.807-8.4,12.62-12.59a99.992,99.992,0,0,1,11.022.313,44.18,44.18,0,0,1,10.692,2.546,153.353,153.353,0,0,1-21.527,23.806c-21.7,19.745-44.419,30.894-50.876,24.768L375.4,432.181a29.663,29.663,0,0,0,4.585-.939A55.947,55.947,0,0,0,388.012,428.22Z" transform="translate(-178.518 -133.1)" fill="#5dc2ae"/>
    <path id="Trazado_2121" data-name="Trazado 2121" d="M543.339,374.444c-10.066-2.254-18.48-8.937-26.412-15.532a1126.383,1126.383,0,0,1-140.712-139.8q4.465-3.56,8.864-7.55c15.967-14.527,27.868-30.617,34.392-44.154,35.647,22.421,65.628,49.785,88.137,79.692l71.648,95.2c-1.774,8.357-9.455,20.549-20.957,33.186C553.262,375.523,548.236,375.54,543.339,374.444Z" transform="translate(-300.057 -118.11)" fill="#fff"/>
    <path id="Trazado_2122" data-name="Trazado 2122" d="M398.682,245.363c11.512-4.264,25.056-11.943,38.334-22.53a1126.376,1126.376,0,0,0,140.712,139.8c7.932,6.595,16.346,13.278,26.412,15.532,4.9,1.1,9.923,1.079,14.96,1.042-3.812,4.188-8.043,8.427-12.62,12.59a181.306,181.306,0,0,1-20.519,16.218q-3.32,2.233-6.505,4.122c-2.118,1.256-4.182,2.392-6.172,3.4q-1.494.756-2.932,1.413a55.945,55.945,0,0,1-8.023,3.022,29.663,29.663,0,0,1-4.585.939l-88.028-80.3C442.061,315.389,417.645,282.963,398.682,245.363Z" transform="translate(-360.858 -121.835)" fill="#d2d3d3"/>
    <path id="Trazado_2123" data-name="Trazado 2123" d="M623.385,215.561a1125.721,1125.721,0,0,1-75.873-100.93,386.546,386.546,0,0,1,119.13,49.226c-6.524,13.537-18.425,29.626-34.392,44.154Q627.863,212,623.385,215.561Z" transform="translate(-547.228 -114.563)" fill="#93f5e5"/>
    <path id="Trazado_2124" data-name="Trazado 2124" d="M631.709,238.086a386.558,386.558,0,0,1-37.824-123.528h0c.094.022.188.047.284.068a1125.72,1125.72,0,0,0,75.873,100.93C656.764,226.144,643.22,233.822,631.709,238.086Z" transform="translate(-593.885 -114.558)" fill="#5dc2ae"/>
    <path id="Trazado_2125" data-name="Trazado 2125" d="M473.838,283.13a47.944,47.944,0,1,1,12.224,37.177A47.762,47.762,0,0,1,473.838,283.13Z" transform="translate(-381.107 -122.994)" opacity="0.21" style="mix-blend-mode: multiply;isolation: isolate"/>
    <g id="Grupo_20529" data-name="Grupo 20529" transform="translate(90.701 104.435)">
      <path id="Trazado_2126" data-name="Trazado 2126" d="M518.314,294.285c-16.471-2.558-31.267-12.191-42.295-24.725a47.95,47.95,0,0,1,95.149-1.976,62.129,62.129,0,0,1-6.283,10.005C554.141,291.124,535.39,296.936,518.314,294.285Z" transform="translate(-475.767 -226.517)" fill="#93f5e5"/>
      <path id="Trazado_2127" data-name="Trazado 2127" d="M475.744,272.519c11.027,12.534,25.823,22.167,42.295,24.725,17.077,2.652,35.828-3.16,46.571-16.7a62.129,62.129,0,0,0,6.283-10.005,47.95,47.95,0,1,1-95.149,1.976Z" transform="translate(-475.492 -229.476)" fill="#5dc2ae"/>
    </g>
    <g id="Grupo_20530" data-name="Grupo 20530" transform="translate(101.259 114.995)">
      <path id="Trazado_2128" data-name="Trazado 2128" d="M493.172,255.967l62.477-.184a37.1,37.1,0,0,1,3.545,6.763l-69.519.2A37.141,37.141,0,0,1,493.172,255.967Z" transform="translate(-487.087 -239.044)" fill="#fff"/>
      <path id="Trazado_2129" data-name="Trazado 2129" d="M489.443,263.237l69.519-.2a37.271,37.271,0,0,1,2.448,9.859l-74.359.218A37.493,37.493,0,0,1,489.443,263.237Z" transform="translate(-486.856 -239.531)" fill="#182b3a"/>
      <path id="Trazado_2130" data-name="Trazado 2130" d="M499.612,247.572a37.422,37.422,0,0,1,56.339,7.005l-62.477.184A37.475,37.475,0,0,1,499.612,247.572Z" transform="translate(-487.389 -237.838)" fill="#182b3a"/>
      <path id="Trazado_2131" data-name="Trazado 2131" d="M504.316,311.16l41.951-.123A37.414,37.414,0,0,1,504.316,311.16Z" transform="translate(-487.819 -242.757)" fill="#fff"/>
      <path id="Trazado_2132" data-name="Trazado 2132" d="M496.678,304.149a37.322,37.322,0,0,1-6.61-10.2l68.62-.2a37.248,37.248,0,0,1-9.19,12.9,37.66,37.66,0,0,1-4.1,3.231L503.446,310A37.47,37.47,0,0,1,496.678,304.149Z" transform="translate(-486.949 -241.595)" fill="#182b3a"/>
      <path id="Trazado_2133" data-name="Trazado 2133" d="M487.014,273.82l74.359-.218a37.527,37.527,0,0,1-2.815,18.789l-68.62.2A37.418,37.418,0,0,1,487.014,273.82Z" transform="translate(-486.819 -240.241)" fill="#fff"/>
    </g>
  </g>
</svg>
