<svg xmlns="http://www.w3.org/2000/svg" width="208.168" height="160.724" viewBox="0 0 208.168 160.724">
  <g id="Grupo_22880" data-name="Grupo 22880" transform="translate(-480.614 -305.717)">
    <path id="Trazado_3842" data-name="Trazado 3842" d="M1512.823,407.913c-3.847,0-11.753,8.739-.454,10.139s28.221.756,35.069.785c11.177.048,13.95-.538,13.861-6.386-.052-3.385-1.479-5.577-7.371-6.465-6.13-.923-3-9.654-10.481-9.389-6.373.225-7.023,11.653-12.855,8.852s-4.61,4.831-8.875,6.232C1517.029,413.221,1516.669,407.913,1512.823,407.913Z" transform="translate(-916.92 -81.22)" fill="#93f5e5" opacity="0.72"/>
    <path id="Trazado_3843" data-name="Trazado 3843" d="M793.665,1768.964c0,1.518,35.139,3.282,75.626,3.282s73.309-1.231,73.309-2.75-32.822-2.75-73.309-2.75S793.665,1767.445,793.665,1768.964Z" transform="translate(-279.791 -1305.806)" fill="#32323f" opacity="0.14"/>
    <path id="Trazado_3844" data-name="Trazado 3844" d="M901.2,359.122a72.162,72.162,0,0,1-1.022,12.032q-.471,2.776-1.139,5.4C895.083,392.3,886.4,404.145,879.2,413.173c-3.525,4.43-6.7,8.178-8.765,11.38a17.188,17.188,0,0,0-2.24,4.5c-.056.185-.1.367-.141.548a6.726,6.726,0,0,0-.148,1.1,6.106,6.106,0,0,1-1.623,3.831,10.423,10.423,0,0,1-2.773,2.147,16.737,16.737,0,0,1-2.187,1.008c-.068.025-.137.048-.209.08a30.169,30.169,0,0,1-13.07,1.413h-.015c-.532-.056-1.046-.126-1.547-.213a17.615,17.615,0,0,1-5.182-1.627,9.118,9.118,0,0,1-1.69-1.12,4.844,4.844,0,0,1-1.882-3.752c0-.079,0-.158,0-.243a16.37,16.37,0,0,0-1.944-7.709c-6.39-13.384-26.428-31.789-29.659-58.917a63.194,63.194,0,0,1-.443-7.387c-.039-32.647,23.056-53.342,52.7-52.459.238,0,.469.005.7.016C889.076,306.98,901.251,335.364,901.2,359.122Z" transform="translate(-290.538 0)" fill="#93f5e5"/>
    <path id="Trazado_3845" data-name="Trazado 3845" d="M1350.451,359.492c-.049,24.806-12.362,41.957-22,54.051-3.526,4.431-6.7,8.178-8.765,11.379a17.229,17.229,0,0,0-2.24,4.5c-.055.186-.1.368-.14.549h-4.8c.9-15.578,30.331-40.1,26.193-74.913s-16.069-41.871-30.357-48.925C1338.323,307.35,1350.5,335.733,1350.451,359.492Z" transform="translate(-739.784 -0.369)" fill="#5dc2ae" opacity="0.495"/>
    <path id="Trazado_3846" data-name="Trazado 3846" d="M1141.812,1187.441s2.853-38.253-3.763-38.977c-.995-.109-1.166,6.51,3.365,7.836,6.1,1.785,11.867,1.848,11.6-4.682-.209-5.084-6.551-4.679-6.744.7-.131,3.649,2.432,4.38,7.049,4.181,7.814-.337,10.534-3.477,6.759-8.115-2.073-2.546-4.164.569-3.935,4.5s-1.992,34.564-1.992,34.564" transform="translate(-587.072 -752.311)" fill="none" stroke="#27303d" stroke-linecap="round" stroke-linejoin="round" stroke-width="14.369" opacity="0.85"/>
    <path id="Trazado_3847" data-name="Trazado 3847" d="M1097.383,1454.266l-1.211,0a16.826,16.826,0,0,1-16.794-16.859s-2.2-20.724.043-22.261,33.75-1.415,34.863.068-.043,22.261-.043,22.261A16.826,16.826,0,0,1,1097.383,1454.266Z" transform="translate(-534.287 -990.576)" fill="#545466"/>
    <rect id="Rectángulo_5154" data-name="Rectángulo 5154" width="5.232" height="39.058" rx="2.616" transform="translate(581.626 428.6) rotate(83.602)" fill="#aaaaaf"/>
    <path id="Trazado_3848" data-name="Trazado 3848" d="M1068.675,1545.633l-.053-.474a2.378,2.378,0,0,1,2.1-2.628l34.089-3.822a2.377,2.377,0,0,1,2.627,2.1l.053.474a2.377,2.377,0,0,1-2.1,2.628l-34.089,3.822A2.378,2.378,0,0,1,1068.675,1545.633Z" transform="translate(-525.522 -1101.983)" fill="#aaaaaf"/>
    <path id="Trazado_3849" data-name="Trazado 3849" d="M1073.373,1618.312l-.053-.474a2.378,2.378,0,0,1,2.1-2.627l34.089-3.822a2.377,2.377,0,0,1,2.628,2.1l.053.474a2.378,2.378,0,0,1-2.1,2.628L1076,1620.41A2.377,2.377,0,0,1,1073.373,1618.312Z" transform="translate(-529.721 -1166.94)" fill="#aaaaaf"/>
    <g id="Grupo_22873" data-name="Grupo 22873" transform="translate(523.814 319.555)" opacity="0.7">
      <g id="Grupo_22870" data-name="Grupo 22870" transform="translate(14.772)">
        <g id="Grupo_22869" data-name="Grupo 22869">
          <path id="Trazado_3850" data-name="Trazado 3850" d="M1028.773,441.006c.5-.275,1.119-.662,1.791-1.093s1.414-.91,2.226-1.389a24.921,24.921,0,0,1,2.685-1.389,16.8,16.8,0,0,1,3.248-1.056l.01,0a4.784,4.784,0,1,1,1.976,9.362l-.052.011a7.274,7.274,0,0,0-1.4.449,15.573,15.573,0,0,0-1.668.848c-.6.344-1.236.745-1.94,1.187s-1.474.926-2.408,1.425a4.735,4.735,0,0,1-4.5-8.332Z" transform="translate(-1026.269 -435.973)" fill="#fff"/>
        </g>
      </g>
      <g id="Grupo_22872" data-name="Grupo 22872" transform="translate(0 13.895)">
        <g id="Grupo_22871" data-name="Grupo 22871">
          <path id="Trazado_3851" data-name="Trazado 3851" d="M887.721,597.757a54.376,54.376,0,0,1-.49-7.294,42.767,42.767,0,0,1,.664-7.454,40.524,40.524,0,0,1,2.021-7.251,47.2,47.2,0,0,1,3.182-6.666,4.636,4.636,0,0,1,8.064,4.576l0,0a37.915,37.915,0,0,0-2.524,5.38,31.124,31.124,0,0,0-1.514,5.593,33.372,33.372,0,0,0-.47,5.82,44.906,44.906,0,0,0,.452,6l0,.019a4.735,4.735,0,0,1-9.38,1.3Z" transform="translate(-887.23 -566.76)" fill="#fff"/>
        </g>
      </g>
    </g>
    <g id="Grupo_22875" data-name="Grupo 22875" transform="translate(545.617 334.188)">
      <path id="Trazado_3852" data-name="Trazado 3852" d="M1196.544,1214.657c-.308,3.978-.363,6.006-.369,6.629-.037,3.629,9.465,2.728,9.607.671.226-3.284.467-9.191.467-9.191Z" transform="translate(-1185.155 -1144.869)" fill="#3b3b4c"/>
      <path id="Trazado_3853" data-name="Trazado 3853" d="M1132.5,580.528a54.073,54.073,0,0,1,5.419,14.706q.311,1.441.554,2.934a53.2,53.2,0,0,1,.693,7.992c.133,14.5-3.238,30.945-3.791,35.6-.161,1.358-1.3,2.407-2.936,3.15-5.155,2.336-15.272,1.631-15.561-2.094-.24-3.069-6.383-24.008-5.951-36.66a46.37,46.37,0,0,1,2.146-11.779c3.354-10.918,9.754-20.738,12.935-20.676C1127.655,573.732,1130.137,576.313,1132.5,580.528Z" transform="translate(-1108.946 -573.699)" fill="#fff"/>
      <path id="Trazado_3854" data-name="Trazado 3854" d="M1327.633,1096.658q.376.873.778,1.756c3.126,6.9,7.031,14,3.717,15.655-1.354.674-2.977.187-4.476-.682a19.393,19.393,0,0,1-3.763-3.013c-.248-.251-.45-.465-.6-.624-.118-.128-.2-.22-.24-.265-.019-.021-.027-.033-.027-.033s0-.022.006-.067c.087-1.094,1.241-15.153,2.48-14.787h0a3.078,3.078,0,0,1,1.277.87A5.745,5.745,0,0,1,1327.633,1096.658Z" transform="translate(-1298.528 -1039.25)" fill="#e84e1b"/>
      <path id="Trazado_3855" data-name="Trazado 3855" d="M1245.563,1115.742s5.739,14.905,5.224,18.1-5.483-1.943-5.644-4.09S1244.431,1112.694,1245.563,1115.742Z" transform="translate(-1228.673 -1057.788)" fill="#e84e1b"/>
      <path id="Trazado_3856" data-name="Trazado 3856" d="M1101.17,1119.831a3.091,3.091,0,0,1-.2,1c-1.174,3.223-7.23,6.038-8.295,3.946-1.173-2.307,2.295-9.587,5.209-16.488a3.276,3.276,0,0,1,1.025-1.563C1100.769,1105.682,1101.238,1116.744,1101.17,1119.831Z" transform="translate(-1092.445 -1050.031)" fill="#e84e1b"/>
      <path id="Trazado_3857" data-name="Trazado 3857" d="M1156.16,595.232c-8.042,5.616-19.767,2.151-24.846-.858,3.354-10.918,9.753-20.738,12.935-20.677C1147.376,573.759,1153.524,583.031,1156.16,595.232Z" transform="translate(-1127.184 -573.697)" fill="#e84e1b"/>
      <path id="Trazado_3858" data-name="Trazado 3858" d="M1313.656,637.973a54.044,54.044,0,0,1,5.419,14.706q.311,1.441.554,2.933a53.223,53.223,0,0,1,.693,7.992c.133,14.5-3.238,30.945-3.791,35.6-.161,1.357-1.3,2.407-2.936,3.149C1314.207,695.127,1317.835,654.894,1313.656,637.973Z" transform="translate(-1290.1 -631.144)" fill="#1f1f39" opacity="0.1"/>
      <path id="Trazado_3859" data-name="Trazado 3859" d="M1325.563,1094.6c-.268,4.157-1.073,13.018-1.624,15.775-.448-.451-.747-.787-.837-.889-.007-.033-.014-.067-.021-.1.087-1.094,1.241-15.153,2.48-14.787Z" transform="translate(-1298.578 -1039.25)" fill="#1f1f39" opacity="0.28"/>
      <path id="Trazado_3860" data-name="Trazado 3860" d="M1367.334,1130.575c3.126,6.9,7.031,14,3.717,15.654-1.354.674-2.977.187-4.476-.682.465-.66,1.011-1.424,1.617-2.255C1370.015,1140.788,1368.166,1136.245,1367.334,1130.575Z" transform="translate(-1337.451 -1071.411)" fill="#1f1f39" opacity="0.16"/>
      <path id="Trazado_3861" data-name="Trazado 3861" d="M1155.579,1119.831a3.081,3.081,0,0,1-.2,1,54.152,54.152,0,0,1-2.061-14.1C1155.178,1105.682,1155.646,1116.744,1155.579,1119.831Z" transform="translate(-1146.854 -1050.031)" fill="#1f1f39" opacity="0.16"/>
      <g id="Grupo_22874" data-name="Grupo 22874" transform="translate(9.032 3.93)" opacity="0.65">
        <path id="Trazado_3862" data-name="Trazado 3862" d="M1231.979,612.7a5.932,5.932,0,0,1,2.321-2.011" transform="translate(-1226.187 -610.69)" fill="none" stroke="#fff" stroke-linecap="round" stroke-miterlimit="10" stroke-width="11.29"/>
        <path id="Trazado_3863" data-name="Trazado 3863" d="M1177.459,669.34a49.819,49.819,0,0,1,4.034-10.412" transform="translate(-1177.459 -653.802)" fill="none" stroke="#fff" stroke-linecap="round" stroke-miterlimit="10" stroke-width="11.29"/>
      </g>
      <ellipse id="Elipse_1258" data-name="Elipse 1258" cx="5.861" cy="5.386" rx="5.861" ry="5.386" transform="translate(9.701 39.133) rotate(-87.415)" fill="#3b3b4c"/>
      <ellipse id="Elipse_1259" data-name="Elipse 1259" cx="3.953" cy="3.633" rx="3.953" ry="3.633" transform="translate(11.539 37.306) rotate(-87.415)" fill="#fff"/>
    </g>
    <path id="Trazado_3864" data-name="Trazado 3864" d="M1633.749,812.225q-.471,2.776-1.139,5.4c-3.795-3.948-5.082-13.326-5.322-15.06-.253-1.823-.724-1.577-.833-3.351h2.136l4.052,11.647Z" transform="translate(-1024.103 -441.07)" fill="#1f1f3b" opacity="0.16"/>
    <g id="Grupo_22878" data-name="Grupo 22878" transform="translate(602.232 353.193)">
      <path id="Trazado_3865" data-name="Trazado 3865" d="M1630.621,763.53a8.371,8.371,0,0,1-.2-1.919c-.145-1.861-.212-2.538-.371-3.734-.063-.475.037-2.2-.874-3.165-1.065-1.132-1.242-2.455-3.039-2.062-1.4.307.859,3.03.76,4.352-.047.627-.826-.191-1.447.532s1.373.5,1.738,2.138a20.2,20.2,0,0,0,1.493,4.137C1629.019,764.358,1630.621,763.53,1630.621,763.53Z" transform="translate(-1625.333 -752.579)" fill="#efaea6"/>
      <g id="Grupo_22876" data-name="Grupo 22876" transform="translate(22.493 8.195)">
        <path id="Trazado_3866" data-name="Trazado 3866" d="M1844.052,833.351c-.283,1.431.1,5.2-.511,6.678l-3.661-.376s-3.547-.414-2.706-.972c1.123-.745.666-.349,1.19-.919a8.134,8.134,0,0,0,1.061-1.859c.49-1.077.946-2.29,1.163-2.885.085-.233.134-.372.134-.372l.031-.286,2.312-2.644S1844.364,831.782,1844.052,833.351Z" transform="translate(-1837.045 -829.716)" fill="#efaea6"/>
        <path id="Trazado_3867" data-name="Trazado 3867" d="M1859.45,863.017c.489-1.077.946-2.29,1.163-2.885l.9-.079s1.1.2,1.288.689C1863.083,861.475,1861.07,864.29,1859.45,863.017Z" transform="translate(-1857.07 -856.83)" fill="#1f1f3b" opacity="0.14"/>
      </g>
      <path id="Trazado_3868" data-name="Trazado 3868" d="M1786.408,1708.037c-.159-1.56-.041-5.513-.041-5.513l4.363-.15-.235,5.936-2.884,1.888Z" transform="translate(-1769.221 -1601.464)" fill="#fff"/>
      <path id="Trazado_3869" data-name="Trazado 3869" d="M1716.854,1742.113c-.368-.278-1.187.7-1.356,1.353-.387,1.5-5.255,1.691-6.122,1.826a1.286,1.286,0,0,0,1.059,2.265c1.926-.008,8.1-.013,10.2-.035a.96.96,0,0,0,.932-.694c.379-1.448.426-4.846-.163-4.894C1720.615,1742.109,1718.256,1743.173,1716.854,1742.113Z" transform="translate(-1700.02 -1636.822)" fill="#1f1f3b"/>
      <path id="Trazado_3870" data-name="Trazado 3870" d="M1944.064,1708.092c-.168-1.559-.073-5.513-.073-5.513l4.362-.174-.2,5.937-2.873,1.9Z" transform="translate(-1910.111 -1601.493)" fill="#fff"/>
      <path id="Trazado_3871" data-name="Trazado 3871" d="M1874.809,1736.685c-.469.03-.384.464-.547,1.12-.373,1.5-5.913,2.478-6.779,2.62a1.287,1.287,0,0,0,1.08,2.256c1.926-.024,8.1-.08,10.2-.12a.96.96,0,0,0,.926-.7c.365-1.452.5-5.437-.086-5.48C1878.814,1736.561,1876.947,1736.548,1874.809,1736.685Z" transform="translate(-1841.338 -1631.858)" fill="#1f1f3b"/>
      <path id="Trazado_3872" data-name="Trazado 3872" d="M1794.712,1147.264c-.055.705-.129,1.473-.229,2.314a187.5,187.5,0,0,0-.975,20.54c.194,6.721-.409,22.444-.409,24.853-2.066.9-3.345.616-6.3,0,0,0-.525-12.973-1.106-24.331-.473-9.222-.609-8.3-2.323-20.041v0c-.019.054-.437,1.2-1.046,2.958a154.358,154.358,0,0,0-4.519,15.074c-1.626,7.415-.778,26.742-1.458,27.409-2.027,1.18-5.458,1.294-6.373-.344,0,0-.388-23.9.333-27.645.489-2.545,4.614-27.489,5.535-34.19,0,0,18.172-3.915,18.73,2.218a21.622,21.622,0,0,1,.088,2.286c-.014.952.039,1.835.091,2.8A42.243,42.243,0,0,1,1794.712,1147.264Z" transform="translate(-1754.516 -1092.255)" fill="#3b3b4d"/>
      <path id="Trazado_3873" data-name="Trazado 3873" d="M1911.558,1269.808l0,.01a.584.584,0,0,1-.051-.034A.406.406,0,0,1,1911.558,1269.808Z" transform="translate(-1881.101 -1214.835)" fill="#1f1f3b" opacity="0.46"/>
      <path id="Trazado_3874" data-name="Trazado 3874" d="M1884.935,1276.009l0,0c-.019.055-.818,2.276-1.427,4.036l.714-7.1A15.642,15.642,0,0,0,1884.935,1276.009Z" transform="translate(-1856.078 -1217.664)" fill="#1f1f3b" opacity="0.79"/>
      <path id="Trazado_3875" data-name="Trazado 3875" d="M1936.516,1211.166c-.151-.033-7.156-1.508-8.1-4.974,0,0,6.089.517,8.037.723C1936.536,1208.5,1936.576,1210.271,1936.516,1211.166Z" transform="translate(-1896.213 -1157.999)" fill="#1f1f3b" opacity="0.35"/>
      <path id="Trazado_3876" data-name="Trazado 3876" d="M1829.149,886.354c-1.574-.422-1.728,2.148-3.315,2.272-.838.066-.653-.3-1.048-.677-.244-.235-.472-.5-.857-.108-7.833,7.941.323,27.963-.673,29.36-.815,1.143,5.813,3.637,9.976,2.633,5.709-1.376,5.362-7.5,5.2-8.672s-3.843-21.058-3.843-21.058A31.241,31.241,0,0,1,1829.149,886.354Z" transform="translate(-1799.76 -872.099)" fill="#fff"/>
      <path id="Trazado_3877" data-name="Trazado 3877" d="M1663.94,856.913c-.034,1.529-.236,2.659-.817,3.183-1.041.941-2.484,1.122-4.227-.665a3.164,3.164,0,0,1-.275-.325c-2.339-3.136-.656-11.794-.415-13.908.1-.853.312-2,.5-3.194.226-1.482.235-6.3-.368-6.993-1.622-1.869-10.937-1.391-12.626-2.307-2.723-1.478-5.817-14.144-5.737-14.484.126-.532,3.461-1.742,4.052-1.158s3.111,10.841,4.048,11.011c3.944.713,7.554-.744,14.511-2.258a6.726,6.726,0,0,1,.04.812c0,.466-.013,1.146-.092,2.079-.045.545-.112,1.177-.207,1.9-.6,4.581,2.011,7.84,1.481,13.381a50.8,50.8,0,0,0-.085,7.006C1663.823,853.256,1663.974,855.307,1663.94,856.913Z" transform="translate(-1638.416 -810.073)" fill="#0069a8"/>
      <path id="Trazado_3878" data-name="Trazado 3878" d="M1958.974,1236.694c-.152.28-.622.28-.387.469s3.1,1.437,3.1,1.437.276.3.612-.192a1.9,1.9,0,0,0,.336-.978Z" transform="translate(-1923.124 -1185.26)" fill="#e79e9c"/>
      <path id="Trazado_3879" data-name="Trazado 3879" d="M1911.025,922.415a6.337,6.337,0,0,1-8.014-.7c-1.821-1.9.022-4.349-1.326-8.77a55.505,55.505,0,0,1-2.157-9.905,124.152,124.152,0,0,1,.023-16.3,11.368,11.368,0,0,1,7.223,3.45c1.369,1.409,2.23,5.484,2.377,8.463.046.978.074,1.763.088,2.427.028,1.356-.005,2.2-.049,3.13-.018.369-.037.752-.055,1.183h0c-.02.487-.04,1.039-.052,1.707a24.14,24.14,0,0,0,.817,4.869h0C1910.916,916.324,1912.363,921.589,1911.025,922.415Z" transform="translate(-1870.162 -872.491)" fill="#0069a8"/>
      <path id="Trazado_3880" data-name="Trazado 3880" d="M1915.873,914.252c8.752,14.179,9.282,13.3,9.5,15.617s-5.839,13.879-5.839,13.879,3.606,1.988,4.006,1.379,7.46-14.482,7.1-15.813-9.029-18.106-10.137-19.374-5.891-1.815-5.84.456A7.369,7.369,0,0,0,1915.873,914.252Z" transform="translate(-1883.921 -892.238)" fill="#0069a8"/>
      <path id="Trazado_3881" data-name="Trazado 3881" d="M1969.753,1037.951c-3.288-2.9-3.519-10.256-3.519-10.256l2.754,3.679h0c-.019.487-.039,1.039-.052,1.707A24.163,24.163,0,0,0,1969.753,1037.951Z" transform="translate(-1930.016 -998.466)" fill="#1f1f3b" opacity="0.24"/>
      <path id="Trazado_3882" data-name="Trazado 3882" d="M1968.121,1133.225c-.226,1.029-4.3,9.127-4.3,9.127l3.967-10.548Z" transform="translate(-1927.857 -1091.514)" fill="#1f1f3b" opacity="0.24"/>
      <path id="Trazado_3883" data-name="Trazado 3883" d="M1870.973,907.67c.175-.055.846,3.139,2.586,4.6a4.954,4.954,0,0,0,1.638.941,96.731,96.731,0,0,0,9.851,1.673c-.357-.814-.889-.988-1.231-2.466a41.153,41.153,0,0,1-7.905-.912,7.224,7.224,0,0,1-1.836-1.053,11.554,11.554,0,0,1-2.365-2.6c-.288-.42-.2-.919-.656-1.059C1870.453,906.612,1870.748,907.74,1870.973,907.67Z" transform="translate(-1844.63 -890.395)" fill="#1f1f3b" opacity="0.24"/>
      <path id="Trazado_3884" data-name="Trazado 3884" d="M1865.176,903.072a.793.793,0,0,1,1.033-.476c.453.14.438.328.727.748a9.529,9.529,0,0,0,4.2,3.65c1.967.757,7.345-.55,10.165.881s2.977,4.255,7.118,6.08,9.315,1.325,10.533,1.879,1.913,1.03,1.739,1.506a2.616,2.616,0,0,1-2.046,1.21,60.465,60.465,0,0,1-11.074-2.34c-3.282-1.356-5.35-5.091-7.494-5.868s-7.12-.815-9.657-1.644c-2.828-.925-4.227-4.757-4.452-4.686a.843.843,0,0,1-.778-.047C1864.958,903.836,1865.077,903.342,1865.176,903.072Z" transform="translate(-1839.587 -886.615)" fill="#ffae00"/>
      <g id="Grupo_22877" data-name="Grupo 22877" transform="translate(22.97 4.142)">
        <path id="Trazado_3885" data-name="Trazado 3885" d="M1849.132,816.225s-.233.545-.555,1.219a12.416,12.416,0,0,1-1.317,2.3.98.98,0,0,1-.1.1c-.853.733-3.577.819-5.442-.16-.8-.421,1.328-2.325.56-2.693-.442-.212.125-.816.808-1.494a10.661,10.661,0,0,0,1.3-1.43c.016-.024.031-.049.044-.072Z" transform="translate(-1841.537 -811.61)" fill="#efaea6"/>
        <path id="Trazado_3886" data-name="Trazado 3886" d="M1866.892,797.5a.992.992,0,0,1,.051.484c-.2,1.367-3.241,2.207-3.387,1.82h0c-.189-.5.889-1.391.664-1.831-.34-.664-.63-.243-1.287-.041-.7.216-1.6-.187-.607-.777a1.757,1.757,0,0,0,.522-.422c.252-.341-.073-.565-.51-.717-.658-.229-.749-.094-1.083-.513s.713-.65-.037-1.177c-.142-.1-.289-.2-.431-.3-.565-.4-1.05-.832-.868-1.523.013-.048.029-.1.048-.148a1.361,1.361,0,0,1,.433-.638.771.771,0,0,1,.2-.105h0c.5-.171,1.1.231,1.55.57l.1.078a.348.348,0,0,0,.281.064c.406-.063.949-.6,1.691-.2s.43.783,1.064,1.163c.382.229,1.485-.045,1.875.735a1.761,1.761,0,0,1,.2.7C1867.42,795.714,1866.479,796.338,1866.892,797.5Z" transform="translate(-1857.931 -791.568)" fill="#191939"/>
      </g>
    </g>
    <path id="Trazado_3887" data-name="Trazado 3887" d="M501.052,1001.783a49.778,49.778,0,0,1-17.432-1.741,3.936,3.936,0,0,1-2.446-1.477,4.686,4.686,0,0,1,.348-4.965,4.07,4.07,0,0,1,3.854-1.487,5.362,5.362,0,0,0,2.633.1c1.062-.407,1.765-1.7,2.477-2.82s1.676-2.233,2.773-2.057c.822.132,1.47.953,2.2,1.468a1.4,1.4,0,0,0,2.214-.379c.9-2.029-.362-7.593,4.261-7.593,6.674,0,5.584,5.6,6.388,6.789,1.218,1.8,3.386,1.4,5.15.8s3.865-1.188,5.226.422c1.18,1.4,1.3,3.958,2.557,5.234,1.336,1.359,3.233.634,4.852.024s3.706-.834,4.645,1.02a4.7,4.7,0,0,1-.92,4.952,5.974,5.974,0,0,1-4.005,1.531C516.686,1002.337,508.386,1001.193,501.052,1001.783Z" transform="translate(0 -603.392)" fill="#93f5e5" opacity="0.72"/>
    <g id="Grupo_22879" data-name="Grupo 22879" transform="translate(659.336 407.282)" opacity="0.9">
      <path id="Trazado_3888" data-name="Trazado 3888" d="M2163.074,1268.223c-.407,1.429-.615,2.788,1.635,4.75,1.756,1.531,3.636.49,5.539,1.5,2.6,1.374,2.274,3.53,5.652,3.8,2.915.234,3.582-4.212,7.834-2.458,3.211,1.324,6.842.148,6.731-2.932s3.121-3.653,1.172-6.67c-1.988-3.075-5.239-.56-6.793-1.28-2.388-1.107-2.686-3.394-6.238-3.229-4.533.211-4.041,2.943-8.2,2.774C2166.666,1264.325,2163.775,1265.77,2163.074,1268.223Z" transform="translate(-2162.816 -1261.694)" fill="#93f5e5" fill-rule="evenodd"/>
    </g>
  </g>
</svg>
