<svg xmlns="http://www.w3.org/2000/svg" xmlns:xlink="http://www.w3.org/1999/xlink" width="306.3" height="263.731" viewBox="0 0 306.3 263.731">
  <defs>
    <clipPath id="clip-path">
      <rect id="Rectángulo_3739" data-name="Rectángulo 3739" width="306.3" height="263.731" fill="none"/>
    </clipPath>
    <clipPath id="clip-path-3">
      <rect id="Rectángulo_3698" data-name="Rectángulo 3698" width="217.009" height="248.697" transform="translate(51.439 7.517)" fill="none"/>
    </clipPath>
    <clipPath id="clip-path-4">
      <rect id="Rectángulo_3699" data-name="Rectángulo 3699" width="264.345" height="199.306" transform="translate(41.955 48.826)" fill="none"/>
    </clipPath>
    <clipPath id="clip-path-5">
      <rect id="Rectángulo_3700" data-name="Rectángulo 3700" width="269.937" height="192.883" transform="translate(7.766 34.449)" fill="none"/>
    </clipPath>
    <clipPath id="clip-path-6">
      <rect id="Rectángulo_3701" data-name="Rectángulo 3701" width="35.205" height="33.028" transform="translate(0 174.61)" fill="none"/>
    </clipPath>
    <clipPath id="clip-path-7">
      <rect id="Rectángulo_3702" data-name="Rectángulo 3702" width="24.476" height="20.95" transform="translate(241.485 16.21)" fill="none"/>
    </clipPath>
  </defs>
  <g id="Grupo_8150" data-name="Grupo 8150" opacity="0" clip-path="url(#clip-path)">
    <g id="Grupo_8147" data-name="Grupo 8147">
      <g id="Grupo_8146" data-name="Grupo 8146" clip-path="url(#clip-path)">
        <g id="Grupo_8133" data-name="Grupo 8133" opacity="0.26" style="isolation: isolate">
          <g id="Grupo_8132" data-name="Grupo 8132">
            <g id="Grupo_8131" data-name="Grupo 8131" clip-path="url(#clip-path-3)">
              <path id="Trazado_2645" data-name="Trazado 2645" d="M54.719,133.437c14.3,53.19,114.527,135.53,170.518,121.109S271.783,134.4,257.481,81.216,186.2-3.4,130.206,11.019,40.418,80.248,54.719,133.437" fill="#fefefe"/>
            </g>
          </g>
        </g>
        <g id="Grupo_8136" data-name="Grupo 8136" opacity="0.2" style="isolation: isolate">
          <g id="Grupo_8135" data-name="Grupo 8135">
            <g id="Grupo_8134" data-name="Grupo 8134" clip-path="url(#clip-path-4)">
              <path id="Trazado_2646" data-name="Trazado 2646" d="M48.5,224.864C68.315,253.711,136.974,253.6,190.883,236.2S325.854,165,302.02,94.259c-9.277-27.538-48.082-73.488-156.938-22.425C84.665,100.175,21.13,185.016,48.5,224.864" fill="#cfeef6"/>
            </g>
          </g>
        </g>
        <g id="Grupo_8139" data-name="Grupo 8139" opacity="0.16" style="isolation: isolate">
          <g id="Grupo_8138" data-name="Grupo 8138">
            <g id="Grupo_8137" data-name="Grupo 8137" clip-path="url(#clip-path-5)">
              <path id="Trazado_2647" data-name="Trazado 2647" d="M8.221,136.929c8.762,54.147,117.913,97.853,172.846,89.337S285.452,149.46,276.689,95.312,238.817,8.091,164.34,61.721C119.473,94.029-.542,82.782,8.221,136.929" fill="#fefefe"/>
            </g>
          </g>
        </g>
        <g id="Grupo_8142" data-name="Grupo 8142" opacity="0.16" style="isolation: isolate">
          <g id="Grupo_8141" data-name="Grupo 8141">
            <g id="Grupo_8140" data-name="Grupo 8140" clip-path="url(#clip-path-6)">
              <path id="Trazado_2648" data-name="Trazado 2648" d="M34.835,200.78c2.226-6.238-5.916-22.332-15.406-25.576S2.7,182.791.471,189.029s3.66,13.925,13.15,17.17,18.987.818,21.214-5.419" fill="#fefefe"/>
            </g>
          </g>
        </g>
        <g id="Grupo_8145" data-name="Grupo 8145" opacity="0.16" style="isolation: isolate">
          <g id="Grupo_8144" data-name="Grupo 8144">
            <g id="Grupo_8143" data-name="Grupo 8143" clip-path="url(#clip-path-7)">
              <path id="Trazado_2649" data-name="Trazado 2649" d="M241.684,20.239c-1.38,3.876,4.644,14.2,11.276,16.462s11.361-4.389,12.741-8.264-2.876-8.852-9.508-11.116-13.129-.957-14.509,2.918" fill="#fefefe"/>
            </g>
          </g>
        </g>
      </g>
    </g>
    <path id="Trazado_2650" data-name="Trazado 2650" d="M145.159,156.169h-5.773V152.32h1.924v-1.926h3.849Z" fill="#666a6c"/>
    <path id="Trazado_2651" data-name="Trazado 2651" d="M76.188,156.169H69.166V152.32h7.022Zm14.043,0H83.209V152.32h7.022Zm14.045,0H97.254V152.32h7.022Zm14.044,0H111.3V152.32h7.022Zm14.044,0h-7.022V152.32h7.022Z" fill="#666a6c"/>
    <path id="Trazado_2652" data-name="Trazado 2652" d="M62.141,156.169h-5.77v-5.775h3.848v1.926h1.922Z" fill="#666a6c"/>
    <path id="Trazado_2653" data-name="Trazado 2653" d="M60.219,95.38H56.37V87.518h3.849Zm0,15.719H56.37v-7.862h3.849Zm0,15.719H56.37v-7.862h3.849Zm0,15.719H56.37V134.68h3.849Z" fill="#666a6c"/>
    <path id="Trazado_2654" data-name="Trazado 2654" d="M60.219,79.657H56.37v-5.77h5.771v3.848H60.219Z" fill="#666a6c"/>
    <path id="Trazado_2655" data-name="Trazado 2655" d="M76.185,77.735h-7.02V73.887h7.02Zm14.046,0H83.209V73.887h7.022Zm14.045,0H97.254V73.887h7.022Zm14.044,0H111.3V73.887h7.022Zm14.044,0h-7.022V73.887h7.022Z" fill="#666a6c"/>
    <path id="Trazado_2656" data-name="Trazado 2656" d="M145.159,79.657H141.31V77.735h-1.924V73.887h5.773Z" fill="#666a6c"/>
    <path id="Trazado_2657" data-name="Trazado 2657" d="M145.159,95.38H141.31V87.518h3.849Zm0,15.719H141.31v-7.862h3.849Zm0,15.719H141.31v-7.862h3.849Zm0,15.719H141.31V134.68h3.849Z" fill="#666a6c"/>
    <path id="Trazado_2658" data-name="Trazado 2658" d="M276.031,133.646h-5.448v-3.634H272.4V128.2h3.631Z" fill="#666a6c"/>
    <path id="Trazado_2659" data-name="Trazado 2659" d="M210.941,133.646h-6.626v-3.634h6.626Zm13.254,0h-6.628v-3.634H224.2Zm13.252,0h-6.626v-3.634h6.626Zm13.256,0h-6.626v-3.634H250.7Zm13.254,0h-6.626v-3.634h6.626Z" fill="#666a6c"/>
    <path id="Trazado_2660" data-name="Trazado 2660" d="M197.686,133.646h-5.448V128.2h3.634v1.812h1.814Z" fill="#666a6c"/>
    <path id="Trazado_2661" data-name="Trazado 2661" d="M195.871,76.275h-3.633V68.857h3.633Zm0,14.836h-3.633V83.693h3.633Zm0,14.831h-3.633V98.528h3.633Zm0,14.836h-3.633v-7.413h3.633Z" fill="#666a6c"/>
    <path id="Trazado_2662" data-name="Trazado 2662" d="M195.871,61.439h-3.633V55.994h5.447v3.628h-1.814Z" fill="#666a6c"/>
    <path id="Trazado_2663" data-name="Trazado 2663" d="M210.941,59.622h-6.628V55.993h6.628Zm13.254,0h-6.628V55.993H224.2Zm13.253,0h-6.626V55.993h6.626Zm13.255,0h-6.626V55.993H250.7Zm13.254,0h-6.629V55.993h6.629Z" fill="#666a6c"/>
    <path id="Trazado_2664" data-name="Trazado 2664" d="M276.031,61.439H272.4V59.622h-1.817V55.994h5.448Z" fill="#666a6c"/>
    <path id="Trazado_2665" data-name="Trazado 2665" d="M276.031,76.275H272.4V68.857h3.631Zm0,14.836H272.4V83.693h3.631Zm0,14.831H272.4V98.528h3.631Zm0,14.836H272.4v-7.413h3.631Z" fill="#666a6c"/>
    <g id="Grupo_8149" data-name="Grupo 8149">
      <g id="Grupo_8148" data-name="Grupo 8148" clip-path="url(#clip-path)">
        <path id="Trazado_2666" data-name="Trazado 2666" d="M130.389,184.359H116.364a6.642,6.642,0,0,1,2.31-.412H82.031a6.636,6.636,0,0,1,2.309.412H77.352a7.573,7.573,0,1,1,0-15.147h53.037v15.147" fill="#24a3eb"/>
        <path id="Trazado_2667" data-name="Trazado 2667" d="M134.037,213.815H75.92a7.574,7.574,0,0,1,0-15.147h8.457a6.646,6.646,0,0,1-2.345.426h36.643a6.653,6.653,0,0,1-2.347-.426H130.39v4.42a6.594,6.594,0,0,0,6.573,6.576h3.825a7.6,7.6,0,0,1-6.751,4.151" fill="#24a3eb"/>
        <path id="Trazado_2668" data-name="Trazado 2668" d="M54.2,213.815H43.057a7.574,7.574,0,1,1,0-15.147H54.2a7.574,7.574,0,0,1,0,15.147" fill="#24a3eb"/>
        <path id="Trazado_2669" data-name="Trazado 2669" d="M118.675,199.093H82.032a6.646,6.646,0,0,0,2.345-.426,6.736,6.736,0,0,0,4.366-6.283v-1.725a6.739,6.739,0,0,0-4.4-6.3,6.636,6.636,0,0,0-2.309-.412h36.643a6.637,6.637,0,0,0-2.31.412,6.738,6.738,0,0,0-4.4,6.3v1.725a6.735,6.735,0,0,0,4.367,6.283,6.653,6.653,0,0,0,2.347.426" fill="#24a3eb"/>
        <path id="Trazado_2670" data-name="Trazado 2670" d="M129.945,97.742H114.168a6.66,6.66,0,0,1,2.31-.412H79.834a6.651,6.651,0,0,1,2.309.412H75.155a7.573,7.573,0,0,1,0-15.147h54.79a7.573,7.573,0,1,1,0,15.147" fill="#24a3eb"/>
        <path id="Trazado_2671" data-name="Trazado 2671" d="M131.84,127.2H73.724a7.573,7.573,0,1,1,0-15.147h8.457a6.651,6.651,0,0,1-2.346.426h36.643a6.653,6.653,0,0,1-2.347-.426H131.84a7.573,7.573,0,0,1,0,15.147" fill="#24a3eb"/>
        <path id="Trazado_2672" data-name="Trazado 2672" d="M52,127.2H40.86a7.573,7.573,0,1,1,0-15.147H52a7.6,7.6,0,0,1,7.545,6.9H56.371V125.8A7.52,7.52,0,0,1,52,127.2" fill="#24a3eb"/>
        <path id="Trazado_2673" data-name="Trazado 2673" d="M56.371,125.8v-6.843h3.174q.029.33.029.668a7.581,7.581,0,0,1-3.2,6.175" fill="#4d5252"/>
        <path id="Trazado_2674" data-name="Trazado 2674" d="M116.478,112.477H79.835a6.651,6.651,0,0,0,2.346-.425,6.737,6.737,0,0,0,4.365-6.283v-1.726a6.739,6.739,0,0,0-4.4-6.3,6.659,6.659,0,0,0-2.309-.412h36.643a6.66,6.66,0,0,0-2.31.412,6.738,6.738,0,0,0-4.4,6.3v1.726a6.736,6.736,0,0,0,4.366,6.283,6.652,6.652,0,0,0,2.347.425" fill="#24a3eb"/>
        <path id="Trazado_2675" data-name="Trazado 2675" d="M255.306,109.854h-7.141a5.618,5.618,0,0,1,1.947-.347H219.244a5.622,5.622,0,0,1,1.947.347h-12.04a6.381,6.381,0,0,1,0-12.762h46.155a6.381,6.381,0,1,1,0,12.762" fill="#24a3eb"/>
        <path id="Trazado_2676" data-name="Trazado 2676" d="M264.515,134.666H215.56a6.365,6.365,0,0,1-4.619-1.988v-2.666h-1.524a6.378,6.378,0,0,1,6.143-8.1h5.656a5.6,5.6,0,0,1-1.972.357h30.868a5.6,5.6,0,0,1-1.972-.357h16.375a6.378,6.378,0,0,1,6.144,8.1h-.076v.246a6.4,6.4,0,0,1-6.068,4.408m-7.184-1.02h6.626v-3.634h-6.626Zm-13.255,0H250.7v-3.634h-6.626Zm-13.255,0h6.626v-3.634h-6.626Zm-13.254,0H224.2v-3.634h-6.628Z" fill="#24a3eb"/>
        <path id="Trazado_2677" data-name="Trazado 2677" d="M270.583,130.258v-.246h.075c-.023.082-.048.165-.075.246" fill="#4d5252"/>
        <path id="Trazado_2678" data-name="Trazado 2678" d="M263.957,133.646h-6.626v-3.634h6.626Zm-13.255,0h-6.625v-3.634H250.7Zm-13.255,0h-6.625v-3.634h6.625Zm-13.252,0h-6.627v-3.634H224.2Zm-13.254-.968a6.4,6.4,0,0,1-1.524-2.665h1.524v2.665" fill="#4d5252"/>
        <path id="Trazado_2679" data-name="Trazado 2679" d="M197.26,134.666h-9.385a6.379,6.379,0,1,1,0-12.758h9.385a6.379,6.379,0,1,1,0,12.758m-5.022-6.466v5.446h5.448v-3.634h-1.815V128.2h-3.633" fill="#24a3eb"/>
        <path id="Trazado_2680" data-name="Trazado 2680" d="M197.686,133.646h-5.448V128.2h3.634v1.812h1.814Z" fill="#4d5252"/>
        <path id="Trazado_2681" data-name="Trazado 2681" d="M250.112,122.265H219.244a5.657,5.657,0,0,0,5.651-5.652v-1.455a5.674,5.674,0,0,0-3.7-5.3,5.6,5.6,0,0,0-1.947-.347h30.868a5.59,5.59,0,0,0-1.947.347,5.675,5.675,0,0,0-3.707,5.3v1.455a5.675,5.675,0,0,0,3.682,5.295,5.617,5.617,0,0,0,1.972.357" fill="#24a3eb"/>
        <path id="Trazado_2682" data-name="Trazado 2682" d="M199.075,227.575H168.966a7.574,7.574,0,0,1,0-15.147h15.777a6.651,6.651,0,0,1-2.309.412h36.643a6.649,6.649,0,0,1-2.308-.412h6.987A7.6,7.6,0,0,1,231.33,220a7.5,7.5,0,0,1-.154,1.516,6.527,6.527,0,0,0-5.791-3.506H205.607a6.527,6.527,0,0,0-6.532,6.525v3.039" fill="#24a3eb"/>
        <path id="Trazado_2683" data-name="Trazado 2683" d="M184.781,198.119H167.072a7.535,7.535,0,0,1-4.869-1.785V184.757a7.535,7.535,0,0,1,4.869-1.785h58.116a7.591,7.591,0,0,1,6.541,3.766h-23.4v10.955H182.434a6.653,6.653,0,0,1,2.347.426" fill="#24a3eb"/>
        <path id="Trazado_2684" data-name="Trazado 2684" d="M258.052,198.119h-9.393V186.738h-8.287a7.591,7.591,0,0,1,6.54-3.766h11.14a7.574,7.574,0,0,1,0,15.147" fill="#24a3eb"/>
        <path id="Trazado_2685" data-name="Trazado 2685" d="M219.077,212.84H182.434a6.655,6.655,0,0,0,2.309-.412,6.737,6.737,0,0,0,4.4-6.3V204.4a6.734,6.734,0,0,0-4.366-6.283,6.653,6.653,0,0,0-2.347-.426h25.891v7.482h4.041v.952a6.737,6.737,0,0,0,4.4,6.3,6.649,6.649,0,0,0,2.308.412" fill="#24a3eb"/>
        <path id="Trazado_2686" data-name="Trazado 2686" d="M192.878,44.6H88.888a7.574,7.574,0,1,1,0-15.147H123.2a11.8,11.8,0,0,1-3.112.412h49.383a11.8,11.8,0,0,1-3.113-.412h26.52a7.574,7.574,0,0,1,0,15.147" fill="#24a3eb"/>
        <path id="Trazado_2687" data-name="Trazado 2687" d="M170.808,15.147h-4.5a11.787,11.787,0,0,1,3.162-.425H120.088a11.769,11.769,0,0,1,3.161.425H112.693a7.574,7.574,0,0,1,0-15.147h58.115a7.574,7.574,0,1,1,0,15.147" fill="#24a3eb"/>
        <path id="Trazado_2688" data-name="Trazado 2688" d="M201.475,15.147H190.334a7.574,7.574,0,0,1,0-15.147h11.141a7.574,7.574,0,0,1,0,15.147" fill="#24a3eb"/>
        <path id="Trazado_2689" data-name="Trazado 2689" d="M169.472,29.868H120.089a11.8,11.8,0,0,0,3.112-.412c3.454-.946,5.932-3.418,5.932-6.3V21.434c0-2.868-2.455-5.331-5.883-6.287a11.774,11.774,0,0,0-3.161-.426h49.383a11.776,11.776,0,0,0-3.162.426c-3.428.956-5.883,3.419-5.883,6.287v1.725c0,2.879,2.478,5.351,5.932,6.3a11.8,11.8,0,0,0,3.113.412" fill="#24a3eb"/>
        <path id="Trazado_2690" data-name="Trazado 2690" d="M136.963,146.958h18.666a6.6,6.6,0,0,1,6.574,6.576v49.555a6.6,6.6,0,0,1-6.574,6.575H136.963a6.594,6.594,0,0,1-6.573-6.575V153.534a6.6,6.6,0,0,1,6.573-6.576" fill="#3d4651" fill-rule="evenodd"/>
        <path id="Trazado_2691" data-name="Trazado 2691" d="M133.279,152.216H159.31l.094.1v51.477l-.094.092H133.279l-.092-.092V152.312Z" fill="#d7e1eb" fill-rule="evenodd"/>
        <path id="Trazado_2692" data-name="Trazado 2692" d="M141.473,148.509h9.646l.474.475-.474.477h-9.646l-.476-.477Z" fill="#bcbec5" fill-rule="evenodd"/>
        <path id="Trazado_2693" data-name="Trazado 2693" d="M146.3,208.287a1.606,1.606,0,1,0-1.606-1.606,1.609,1.609,0,0,0,1.606,1.606" fill="#bcbec5" fill-rule="evenodd"/>
        <path id="Trazado_2694" data-name="Trazado 2694" d="M146.3,164.955a4.709,4.709,0,1,1,4.709-4.709,4.708,4.708,0,0,1-4.709,4.709m0-4.356a5.446,5.446,0,0,0-2.048.38,2.653,2.653,0,0,0-.613,1.7v.014h5.322v-.014a2.639,2.639,0,0,0-.616-1.7,5.418,5.418,0,0,0-2.045-.38m0-2.8a1.281,1.281,0,1,0,1.281,1.281A1.278,1.278,0,0,0,146.3,157.8" fill="#ecf0f5"/>
        <path id="Trazado_2695" data-name="Trazado 2695" d="M148.957,162.69h-5.322v-.013a2.654,2.654,0,0,1,.613-1.7,5.7,5.7,0,0,1,4.093,0,2.64,2.64,0,0,1,.616,1.7v.013" fill="#dfe6ee"/>
        <path id="Trazado_2696" data-name="Trazado 2696" d="M146.3,160.366a1.281,1.281,0,1,1,1.281-1.281,1.281,1.281,0,0,1-1.281,1.281" fill="#dfe6ee"/>
        <rect id="Rectángulo_3704" data-name="Rectángulo 3704" width="16.682" height="3.748" transform="translate(135.478 166.548)" fill="#e7eaf0"/>
        <rect id="Rectángulo_3705" data-name="Rectángulo 3705" width="15.808" height="2.874" transform="translate(135.915 166.983)" fill="#fff"/>
        <rect id="Rectángulo_3706" data-name="Rectángulo 3706" width="4.663" height="3.748" transform="translate(152.451 166.548)" fill="#e7eaf0"/>
        <rect id="Rectángulo_3707" data-name="Rectángulo 3707" width="3.787" height="2.874" transform="translate(152.887 166.983)" fill="#0369bb"/>
        <path id="Trazado_2697" data-name="Trazado 2697" d="M153.918,168.14l.592.485.49-.59-.593-.489Zm1.434-.137a.9.9,0,1,1-.979-.81.9.9,0,0,1,.979.81" fill="#fff"/>
        <path id="Trazado_2698" data-name="Trazado 2698" d="M156,169.459l-.052.142-.248-.005-.8-.81.005-.252.248.005.8.81Z" fill="#fff"/>
        <rect id="Rectángulo_3708" data-name="Rectángulo 3708" width="12.928" height="1.949" transform="translate(39.823 99.677)" fill="#666a6c"/>
        <rect id="Rectángulo_3709" data-name="Rectángulo 3709" width="16.783" height="1.949" transform="translate(28.884 95.019)" fill="#666a6c"/>
        <path id="Trazado_2699" data-name="Trazado 2699" d="M21.363,95.993a2.487,2.487,0,1,1,2.487,2.49,2.486,2.486,0,0,1-2.487-2.49" fill="#666a6c"/>
        <rect id="Rectángulo_3710" data-name="Rectángulo 3710" width="12.927" height="1.95" transform="translate(75.399 24.647)" fill="#666a6c"/>
        <rect id="Rectángulo_3711" data-name="Rectángulo 3711" width="16.783" height="1.95" transform="translate(82.484 19.531)" fill="#666a6c"/>
        <path id="Trazado_2700" data-name="Trazado 2700" d="M106.786,20.5a2.486,2.486,0,1,1-2.485-2.484,2.484,2.484,0,0,1,2.485,2.484" fill="#666a6c"/>
        <rect id="Rectángulo_3712" data-name="Rectángulo 3712" width="12.928" height="1.945" transform="translate(57.313 193.574)" fill="#666a6c"/>
        <rect id="Rectángulo_3713" data-name="Rectángulo 3713" width="16.78" height="1.949" transform="translate(46.374 188.911)" fill="#666a6c"/>
        <path id="Trazado_2701" data-name="Trazado 2701" d="M38.853,189.886a2.486,2.486,0,1,1,2.487,2.485,2.484,2.484,0,0,1-2.487-2.485" fill="#666a6c"/>
        <rect id="Rectángulo_3714" data-name="Rectángulo 3714" width="12.928" height="1.949" transform="translate(139.45 255.614)" fill="#666a6c"/>
        <rect id="Rectángulo_3715" data-name="Rectángulo 3715" width="16.78" height="1.95" transform="translate(146.537 260.271)" fill="#666a6c"/>
        <path id="Trazado_2702" data-name="Trazado 2702" d="M170.838,261.246a2.486,2.486,0,1,1-2.485-2.485,2.484,2.484,0,0,1,2.485,2.485" fill="#666a6c"/>
        <rect id="Rectángulo_3716" data-name="Rectángulo 3716" width="12.928" height="1.945" transform="translate(251.043 219.421)" fill="#666a6c"/>
        <rect id="Rectángulo_3717" data-name="Rectángulo 3717" width="16.781" height="1.949" transform="translate(240.104 214.758)" fill="#666a6c"/>
        <path id="Trazado_2703" data-name="Trazado 2703" d="M232.583,215.732a2.486,2.486,0,1,1,2.487,2.489,2.485,2.485,0,0,1-2.487-2.489" fill="#666a6c"/>
        <rect id="Rectángulo_3718" data-name="Rectángulo 3718" width="12.928" height="1.949" transform="translate(232.592 32.715)" fill="#666a6c"/>
        <rect id="Rectángulo_3719" data-name="Rectángulo 3719" width="16.781" height="1.949" transform="translate(221.653 28.052)" fill="#666a6c"/>
        <path id="Trazado_2704" data-name="Trazado 2704" d="M214.133,29.026a2.486,2.486,0,1,1,2.487,2.49,2.485,2.485,0,0,1-2.487-2.49" fill="#666a6c"/>
        <path id="Trazado_2705" data-name="Trazado 2705" d="M225.385,250.849H205.607a6.531,6.531,0,0,1-6.532-6.53V224.536a6.527,6.527,0,0,1,6.532-6.525h19.778a6.526,6.526,0,0,1,6.53,6.525v19.783a6.531,6.531,0,0,1-6.53,6.53" fill="#ffc82e"/>
        <path id="Trazado_2706" data-name="Trazado 2706" d="M205.982,224.907a3.556,3.556,0,0,1,4.43-.371l.1.989-4.158,3.935-.981-.151a3.561,3.561,0,0,1,.613-4.4" fill="#fff"/>
        <path id="Trazado_2707" data-name="Trazado 2707" d="M208.639,234.531a6.709,6.709,0,0,1,6.885-6.521l.1.005a6.7,6.7,0,0,1-.361,13.4h-.1a6.708,6.708,0,0,1-6.524-6.883m-2.393,8.146a1.234,1.234,0,0,0,.508,1.67l.547.146a1.234,1.234,0,0,0,1.125-.649l1.094-2.046a9.146,9.146,0,0,0,5.574,2.087h.1a9.139,9.139,0,0,0,5.832-1.977l1.077,2.306a1.237,1.237,0,0,0,1.088.71l.555-.114a1.239,1.239,0,0,0,.6-1.644l-1.494-3.184a9.169,9.169,0,0,0-7.159-14.438l-.1-.005a9.17,9.17,0,0,0-7.837,14.324l-1.507,2.814" fill="#fff"/>
        <path id="Trazado_2708" data-name="Trazado 2708" d="M208.639,234.531a6.709,6.709,0,0,1,6.885-6.521l.1.005a6.7,6.7,0,0,1-.361,13.4h-.1a6.708,6.708,0,0,1-6.524-6.883m-2.393,8.146a1.234,1.234,0,0,0,.508,1.67l.547.146a1.234,1.234,0,0,0,1.125-.649l1.094-2.046a9.146,9.146,0,0,0,5.574,2.087h.1a9.139,9.139,0,0,0,5.832-1.977l1.077,2.306a1.237,1.237,0,0,0,1.088.71l.555-.114a1.239,1.239,0,0,0,.6-1.644l-1.494-3.184a9.169,9.169,0,0,0-7.159-14.438l-.1-.005a9.17,9.17,0,0,0-7.837,14.324l-1.507,2.814" fill="#fff"/>
        <path id="Trazado_2709" data-name="Trazado 2709" d="M215.434,231.291l.1.014.583.713-.071,2.673,2.757,3.428-.107,1-.462.151-.531-.261-2.3-2.86-.533-.663-.243-.55.081-2.955Z" fill="#fff"/>
        <path id="Trazado_2710" data-name="Trazado 2710" d="M225.145,225.424a3.559,3.559,0,0,1,.334,4.485l-.945.05-3.945-4.169.149-.975a3.562,3.562,0,0,1,4.407.609" fill="#fff"/>
        <path id="Trazado_2711" data-name="Trazado 2711" d="M207.337,244.494H207.3l-.547-.146a1.237,1.237,0,0,1-.654-1.09,1.223,1.223,0,0,1,.146-.58l.666-1.241a10.68,10.68,0,0,0,1.849,1.781l-.334.627a1.238,1.238,0,0,1-1.089.65" fill="#fff"/>
        <path id="Trazado_2712" data-name="Trazado 2712" d="M223.193,244.924a1.235,1.235,0,0,1-1.087-.709l-.467-1h0l.466,1a1.235,1.235,0,0,0,1.087.709l.556-.114a1.245,1.245,0,0,0,.713-1.123,1.245,1.245,0,0,1-.713,1.123l-.556.114" fill="#fcd879"/>
        <path id="Trazado_2713" data-name="Trazado 2713" d="M223.193,244.924a1.235,1.235,0,0,1-1.087-.709l-.466-1a10.813,10.813,0,0,0,1.878-1.812l.828,1.761a1.229,1.229,0,0,1,.116.521,1.245,1.245,0,0,1-.713,1.123l-.556.114" fill="#fff"/>
        <path id="Trazado_2714" data-name="Trazado 2714" d="M99.336,250.849H79.558a6.531,6.531,0,0,1-6.53-6.53V224.536a6.526,6.526,0,0,1,6.53-6.525H99.336a6.526,6.526,0,0,1,6.531,6.525v19.783a6.53,6.53,0,0,1-6.531,6.53" fill="#a5d130"/>
        <path id="Trazado_2715" data-name="Trazado 2715" d="M141.354,250.849h-19.78a6.529,6.529,0,0,1-6.53-6.53V224.536a6.524,6.524,0,0,1,6.53-6.525h19.78a6.527,6.527,0,0,1,6.531,6.525v19.783a6.531,6.531,0,0,1-6.531,6.53" fill="#ee8c5f"/>
        <path id="Trazado_2716" data-name="Trazado 2716" d="M183.369,250.849h-19.78a6.531,6.531,0,0,1-6.53-6.53V224.536a6.526,6.526,0,0,1,6.53-6.525h19.78a6.526,6.526,0,0,1,6.53,6.525v19.783a6.531,6.531,0,0,1-6.53,6.53" fill="#f66a8c"/>
        <path id="Trazado_2717" data-name="Trazado 2717" d="M183.3,230.833a6,6,0,0,0-10.947-3.386,6,6,0,0,0-10.945,3.386,6.817,6.817,0,0,0,.393,2.32,6.6,6.6,0,0,0,.5,1.249c1.174,2.454,3.867,5.748,10.049,8.425v.005l0-.005,0,.005v-.005a25.249,25.249,0,0,0,6.416-3.867h0a13.947,13.947,0,0,0,3.668-4.64,5.668,5.668,0,0,0,.487-1.245,6.786,6.786,0,0,0,.371-2.242" fill="#fff"/>
        <path id="Trazado_2718" data-name="Trazado 2718" d="M185.552,238.544a5.476,5.476,0,1,1-5.475-5.477,5.476,5.476,0,0,1,5.475,5.477" fill="#f66a8c"/>
        <path id="Trazado_2719" data-name="Trazado 2719" d="M180.077,233.821a4.723,4.723,0,1,0,4.723,4.723,4.728,4.728,0,0,0-4.723-4.723m0,10.951a6.228,6.228,0,1,1,6.228-6.228,6.233,6.233,0,0,1-6.228,6.228" fill="#fff"/>
        <path id="Trazado_2720" data-name="Trazado 2720" d="M180.077,242.283l-.753-.755v-5.967l.753-.755.755.755v5.967Z" fill="#fbfbfc"/>
        <path id="Trazado_2721" data-name="Trazado 2721" d="M183.061,239.3h-5.967l-.753-.755.753-.755h5.967l.752.755Z" fill="#fbfbfc"/>
        <path id="Trazado_2722" data-name="Trazado 2722" d="M83.848,231.973l-.105.023-.137.018-.165.023-.183.009-.2.009-.2-.014-.4-.05-.179-.041-.16-.041-.231-.083-.09-.032-.084-.036-.222-.106-.3-.183-.323-.238-.288-.279-.224-.265-.144-.2-.051-.077-.046-.083L80,230.11l-.067-.151-.069-.169-.116-.385-.046-.2-.025-.2-.021-.183-.007-.165,0-.137.009-.11,0-.091,0-.1.037-.243.206-.719.085-.183.084-.178.185-.3.209-.27.233-.251.261-.229.16-.114.169-.115.673-.316.236-.077.091-.023.092-.019.1-.027.14-.019.162-.018.185-.009.2-.009.2.014.4.05.179.041.16.042.234.082.087.032.087.032.219.109.3.179.322.243.289.274.227.266.141.2.051.082.045.078.119.216.067.155.07.169.115.38.046.2.025.192.023.188,0,.165,0,.137-.007.11-.007.092,0,.1-.037.243-.2.719-.084.183-.087.178-.183.3-.209.27-.235.248-.261.233-.16.11-.167.114-.675.321-.236.077-.091.019Zm1.888,1.519.306-.174.293-.2.13-.1-.029-.183-.087-.412-.169-.568.059-.054.124-.133.178-.187.16-.211.11-.142.043-.069.589.074.418.018h.188l.071-.146.146-.316.122-.334.039-.11.013-.041-.448-.417-.316-.251-.153-.1.041-.261.016-.1,0-.083,0-.082.018-.261-.009-.261.165-.082.357-.206.5-.339-.023-.16-.078-.343-.041-.183-.05-.156-.05-.151-.188-.032-.412-.046-.6-.013-.035-.074-.084-.16-.128-.229-.012-.018-.03-.05-.1-.147-.1-.146-.034-.046-.016-.018.247-.535.149-.394.041-.128.016-.05-.373-.353-.407-.306-.046.022-.121.06-.364.211-.487.334-.018-.015-.053-.027-.163-.078-.162-.077-.055-.023-.021-.01-.245-.086-.171-.06-.08-.018-.112-.586-.112-.4-.06-.179-.158-.027-.162-.023-.188-.013-.352-.019-.158.005-.256.549-.143.384-.057.179-.258.032-.254.059-.08.019-.08.018-.092.032-.249.082-.13-.132-.3-.271-.48-.375-.041.019-.1.059-.307.174-.292.2-.129.091.028.188.089.412.167.567-.059.055-.124.128-.179.192-.159.211-.108.142-.046.068-.586-.073-.418-.023-.19,0-.071.146-.146.316-.122.334-.039.1-.011.046.446.412.316.256.153.106-.041.256-.014.1-.007.087,0,.078-.016.26.006.266-.164.082-.357.2-.5.343.02.16.078.343.041.179.053.156.05.155.185.027.412.046.6.018.034.073.085.161.128.224.012.019.031.054.1.146.105.147.034.045.014.019-.247.536-.147.388-.043.133-.014.051.373.347.405.311.046-.022.124-.06.361-.215.487-.329.021.013.052.023.163.078.16.082.055.023.023.005.244.091.17.055.08.023.112.581.112.4.062.178.158.023.16.028.188.009.352.018h.16l.254-.549.144-.384.056-.179.258-.032.254-.059.08-.019.082-.022.092-.028.247-.082.13.132.3.27.482.371.039-.018Z" fill="#fff"/>
        <path id="Trazado_2723" data-name="Trazado 2723" d="M92.62,242.837l-.148-.028-.19-.05-.224-.06-.245-.086-.258-.1-.257-.124-.487-.279-.211-.151-.183-.138-.258-.228-.1-.092-.091-.091-.229-.261-.293-.389-.288-.485-.227-.517-.148-.467-.078-.334-.023-.133-.014-.128-.039-.343,0-.233v-.257l.057-.558.045-.284.072-.265.07-.247.083-.22.068-.183.069-.133.055-.119.059-.119.179-.3.65-.819.208-.2.206-.183.4-.284.414-.243.439-.2.463-.155.27-.065.277-.059,1.045-.051.348.028.128.023.13.018.149.028.188.05.226.059.243.087.259.1.256.123.489.279.211.151.183.137.259.234.1.087.092.091.231.261.293.394.289.48.223.517.152.467.075.339.025.128.014.128.039.343,0,.234v.255l-.057.559-.045.284-.072.265-.07.247-.083.22-.068.183-.069.137-.057.115-.058.123-.178.293-.65.824-.208.192-.206.183-.4.283-.414.243-.439.2-.462.156-.271.063-.279.06-1.045.051-.346-.028-.128-.023Zm1.634,2.979.49-.06.485-.1.217-.051.064-.256.106-.581.086-.824.108-.036.231-.105.334-.151.316-.184.219-.128.095-.064.723.407.53.252.245.1.169-.146.362-.339.336-.361.11-.124.037-.046-.357-.778-.275-.5-.14-.22.193-.316.068-.114.055-.106.051-.1.16-.33.128-.343.261-.023.572-.068.828-.179.058-.22.084-.484.041-.257.019-.233.018-.22-.229-.142-.508-.279-.764-.339,0-.114-.022-.251-.046-.362,0-.032-.016-.083-.054-.246-.055-.247-.018-.079-.012-.032.606-.562.4-.431.126-.146.046-.055-.3-.654-.359-.618-.073,0-.192.014-.584.078-.81.169-.018-.027-.055-.06-.169-.187-.167-.192-.058-.055-.025-.023-.268-.248-.192-.164-.091-.069.167-.819.069-.581.018-.265-.19-.115-.2-.119L97,231.08l-.444-.214-.21-.078-.625.572-.391.421-.167.2-.355-.1-.362-.06-.114-.018-.114-.018-.135-.009-.366-.028-.1-.242L93.374,231l-.426-.741-.06,0-.162.019-.492.059-.483.1-.217.051-.064.256-.106.581-.086.824-.108.036-.231.1-.334.152-.316.182-.22.129-.093.064-.723-.408-.534-.251-.245-.1-.166.15-.362.335-.336.361-.11.124-.039.046.357.777.274.5.142.219-.192.311-.071.119-.052.1-.05.1-.161.329-.131.344-.258.023-.572.068-.828.179-.058.215-.084.489-.041.261-.018.229-.019.22.229.142.508.279.764.338,0,.115.024.251.044.367,0,.027.013.082.058.247.054.248.019.082.011.027-.608.563-.4.43-.128.147-.044.055.3.654.359.618.073-.005.192-.013.584-.078.81-.17.018.023.055.064.167.193.167.183.06.063.023.019.27.247.192.165.091.073-.169.815-.069.581-.018.261.192.119.2.119.238.114.444.215.21.078.625-.572.391-.421.167-.2.355.1.362.059.114.018.114.019.135.009.366.027.1.243.247.513.423.741.062-.005Z" fill="#fff"/>
        <path id="Trazado_2724" data-name="Trazado 2724" d="M136.773,231.959h-1.062v-3.491a4.247,4.247,0,0,0-8.495,0v3.491h-1.062v-3.491a5.309,5.309,0,1,1,10.619,0Z" fill="#fff"/>
        <path id="Trazado_2725" data-name="Trazado 2725" d="M135.961,231.707h.561v-3.24a5.059,5.059,0,1,0-10.118,0v3.24h.563v-3.24a4.5,4.5,0,1,1,8.994,0Zm1.064.5H135.46v-3.744a4,4,0,0,0-7.992,0v3.744H125.9v-3.744a5.561,5.561,0,0,1,11.122,0Z" fill="#fff"/>
        <path id="Trazado_2726" data-name="Trazado 2726" d="M131.463,231.181a1.827,1.827,0,0,1,1.047,3.327v3.281a1.046,1.046,0,1,1-2.093,0v-3.281a1.827,1.827,0,0,1,1.046-3.327m7.024-1.7H124.438a.946.946,0,0,0-.942.947v14.323a.947.947,0,0,0,.942.948h14.049a.948.948,0,0,0,.945-.948V230.43a.947.947,0,0,0-.945-.947" fill="#fff"/>
        <path id="Trazado_2727" data-name="Trazado 2727" d="M136.9,244.077H126.03l-.752-.755.752-.755H136.9l.753.755Z" fill="#ee8c5f"/>
        <path id="Trazado_2728" data-name="Trazado 2728" d="M136.9,241.5H126.03l-.752-.755.752-.75H136.9l.753.75Z" fill="#ee8c5f"/>
        <path id="Trazado_2729" data-name="Trazado 2729" d="M232.8,61.677l-.56-.837a27.253,27.253,0,0,0-1.771-2.371,1.1,1.1,0,1,1,1.688-1.405c.469.558.92,1.144,1.348,1.739.661-.329,1.341-.636,2.027-.9a1.1,1.1,0,1,1,.8,2.041,22.982,22.982,0,0,0-2.654,1.249Z" fill="#f5f5f7"/>
        <path id="Trazado_2730" data-name="Trazado 2730" d="M215.538,49.115l-.252-.032a28.463,28.463,0,0,0-6-.736,1.1,1.1,0,0,1-1.081-1.117,1.114,1.114,0,0,1,1.115-1.08,30.44,30.44,0,0,1,6.466.8,1.1,1.1,0,0,1-.249,2.169M226.8,54.5l-.673-.233a28.3,28.3,0,0,0-5.143-3.177,1.1,1.1,0,1,1,.947-1.981,30.3,30.3,0,0,1,5.544,3.423,1.1,1.1,0,0,1,.192,1.542Z" fill="#f5f5f7"/>
        <path id="Trazado_2731" data-name="Trazado 2731" d="M199.6,49.88l-.456-.7c-.535-.833-1.116-1.652-1.72-2.439a1.1,1.1,0,0,1,1.739-1.341c.473.618.934,1.254,1.37,1.894.758-.215,1.526-.4,2.295-.553a1.1,1.1,0,1,1,.433,2.151,28.416,28.416,0,0,0-2.863.736Z" fill="#f5f5f7"/>
        <path id="Trazado_2732" data-name="Trazado 2732" d="M172.283,32.88l-.1-.005a36.41,36.41,0,0,0-5.916-.05,1.1,1.1,0,1,1-.163-2.187,38.237,38.237,0,0,1,6.276.05,1.1,1.1,0,0,1-.1,2.192m-17.908,2.828a1.1,1.1,0,0,1-.433-2.1,37.88,37.88,0,0,1,5.958-1.991,1.1,1.1,0,0,1,.522,2.137,35.294,35.294,0,0,0-5.615,1.871Zm29.669.238-.448-.1a35.37,35.37,0,0,0-5.583-1.959,1.1,1.1,0,0,1,.553-2.128,38.091,38.091,0,0,1,5.926,2.078,1.1,1.1,0,0,1,.556,1.455Zm-39.9,6.324-.817-.362a1.1,1.1,0,0,1,.08-1.551,38.667,38.667,0,0,1,4.989-3.812,1.1,1.1,0,0,1,1.187,1.849,36.707,36.707,0,0,0-4.7,3.592Zm50.04.389-.751-.293a36,36,0,0,0-4.647-3.665A1.1,1.1,0,1,1,190,36.87a38.37,38.37,0,0,1,4.928,3.885,1.1,1.1,0,0,1,.057,1.556ZM136.558,51.77l-.536-.137a1.1,1.1,0,0,1-.421-1.492,38.108,38.108,0,0,1,3.5-5.212,1.1,1.1,0,0,1,1.718,1.368,35.664,35.664,0,0,0-3.3,4.915Zm111.476,6.772-.146-.009a23.479,23.479,0,0,0-3.046-.2h0a23.107,23.107,0,0,0-2.764.165,1.1,1.1,0,1,1-.261-2.179,24.777,24.777,0,0,1,3.02-.182h.009a25.41,25.41,0,0,1,3.334.219,1.1,1.1,0,0,1-.142,2.187m11.191,4.535-.652-.215a23.379,23.379,0,0,0-5.068-2.846,1.1,1.1,0,1,1,.826-2.032A25.385,25.385,0,0,1,259.88,61.1a1.1,1.1,0,0,1,.228,1.538Zm-126.761.133-.2-.018a1.1,1.1,0,0,1-.887-1.272A37.991,37.991,0,0,1,133,55.852a1.1,1.1,0,1,1,2.068.741,35.751,35.751,0,0,0-1.526,5.715,1.1,1.1,0,0,1-1.08.9m134.4,9.23-1-.636a23.216,23.216,0,0,0-3.084-4.928,1.1,1.1,0,1,1,1.7-1.387,25.151,25.151,0,0,1,3.375,5.4,1.1,1.1,0,0,1-.536,1.456ZM132.3,75.364a1.1,1.1,0,0,1-1.084-.933,38.563,38.563,0,0,1-.43-5.748l0-.517a1.1,1.1,0,0,1,1.1-1.085h.013a1.1,1.1,0,0,1,1.085,1.117l0,.485a36.314,36.314,0,0,0,.4,5.418,1.1,1.1,0,0,1-.922,1.25Zm136.728,8.965-.08-.005a1.1,1.1,0,0,1-1.016-1.171c.039-.554.059-1.112.059-1.666a23.291,23.291,0,0,0-.371-4.141,1.1,1.1,0,0,1,2.161-.394,25.479,25.479,0,0,1,.407,4.535c0,.6-.023,1.217-.067,1.821a1.1,1.1,0,0,1-1.093,1.021M136.084,86.914l-.975-.59a38.1,38.1,0,0,1-2.444-5.784,1.1,1.1,0,0,1,2.087-.686,35.9,35.9,0,0,0,2.3,5.454,1.1,1.1,0,0,1-.464,1.483Zm129.092,8.86-.6-.174a1.1,1.1,0,0,1-.323-1.519,23.25,23.25,0,0,0,2.534-5.231,1.1,1.1,0,0,1,2.082.7,25.255,25.255,0,0,1-2.774,5.725Zm-121.77.842-.758-.3a38.712,38.712,0,0,1-4.177-4.681,1.1,1.1,0,1,1,1.752-1.323,36.341,36.341,0,0,0,3.94,4.416,1.1,1.1,0,0,1,.039,1.551Zm10.049,6.832-.46-.1a38.15,38.15,0,0,1-5.461-3.09,1.1,1.1,0,1,1,1.235-1.816,36.189,36.189,0,0,0,5.148,2.91,1.1,1.1,0,0,1,.538,1.46Zm102.832.512-.968-.581a1.094,1.094,0,0,1,.446-1.482,23.5,23.5,0,0,0,4.737-3.378,1.1,1.1,0,0,1,1.487,1.616,25.552,25.552,0,0,1-5.183,3.693Zm-91.106,2.691-.112,0A38.627,38.627,0,0,1,158.9,105.5a1.1,1.1,0,1,1,.579-2.119,36.312,36.312,0,0,0,5.816,1.081,1.1,1.1,0,0,1-.11,2.191m12.205.188h-6.107a1.1,1.1,0,0,1,0-2.2h6.107a1.1,1.1,0,0,1,0,2.2m12.211,0H183.49a1.1,1.1,0,0,1,0-2.2H189.6a1.1,1.1,0,0,1,0,2.2m12.214,0H195.7a1.1,1.1,0,0,1,0-2.2h6.107a1.1,1.1,0,0,1,0,2.2m12.211,0h-6.1a1.1,1.1,0,1,1,0-2.2h6.1a1.1,1.1,0,0,1,0,2.2m12.214,0h-6.107a1.1,1.1,0,0,1,0-2.2h6.107a1.1,1.1,0,0,1,0,2.2m12.211,0H232.34a1.1,1.1,0,0,1,0-2.2h6.107a1.1,1.1,0,0,1,0,2.2m6.386,0h-.279a1.1,1.1,0,0,1,0-2.2h.279a23.2,23.2,0,0,0,5.51-.663,1.1,1.1,0,0,1,.521,2.137,25.416,25.416,0,0,1-6.031.723" fill="#f5f5f7"/>
        <path id="Trazado_2733" data-name="Trazado 2733" d="M168.934,36.138a32.546,32.546,0,0,1,29.154,18.067,24.761,24.761,0,0,1,33.529,12.612,19.746,19.746,0,1,1,13.216,34.416h-75.9a32.548,32.548,0,1,1,0-65.1" fill="#d7e1eb" fill-rule="evenodd"/>
        <path id="Trazado_2734" data-name="Trazado 2734" d="M250.771,89.93a10.682,10.682,0,0,1-10.714-18.483,10.431,10.431,0,0,1,2.919-1.157,10.811,10.811,0,0,1,1.812-.266h1.256a10.683,10.683,0,0,1,4.727,19.906m9.093-9.916,2.437-.572L261.1,74.3l-2.437.572a14.465,14.465,0,0,0-3.5-4.878l1.317-2.128-4.489-2.782-1.32,2.128a14.442,14.442,0,0,0-4.62-.975h-1.256l-.05,0L244.17,63.8,239.027,65l.572,2.44a15.253,15.253,0,0,0-1.439.727,14.347,14.347,0,0,0-3.442,2.778l-2.128-1.318-2.782,4.484,2.126,1.318a14.449,14.449,0,0,0-.97,5.931l-2.437.572,1.206,5.139,2.437-.572a14.391,14.391,0,0,0,3.5,4.882l-1.317,2.124,4.486,2.787,1.321-2.133a14.362,14.362,0,0,0,5.928.975l.572,2.439,5.139-1.208-.569-2.434a15.258,15.258,0,0,0,1.439-.728,14.414,14.414,0,0,0,3.439-2.778l2.128,1.318,2.782-4.489-2.126-1.318a14.393,14.393,0,0,0,.97-5.926" fill="#3d4651"/>
        <path id="Trazado_2735" data-name="Trazado 2735" d="M211.634,57.046c5,0,9.061,3.5,9.061,7.816a7.534,7.534,0,0,1-3.716,6.31l1.276,3.227-3.127-2.325a10.272,10.272,0,0,1-3.494.6c-5,0-9.061-3.5-9.061-7.816s4.057-7.816,9.061-7.816" fill="#fefdfc" fill-rule="evenodd"/>
        <path id="Trazado_2736" data-name="Trazado 2736" d="M215.6,66.244a1.229,1.229,0,1,1,1.226-1.231,1.232,1.232,0,0,1-1.226,1.231" fill="#bcbec5" fill-rule="evenodd"/>
        <path id="Trazado_2737" data-name="Trazado 2737" d="M211.634,66.244a1.229,1.229,0,1,1,1.226-1.231,1.233,1.233,0,0,1-1.226,1.231" fill="#bcbec5" fill-rule="evenodd"/>
        <path id="Trazado_2738" data-name="Trazado 2738" d="M207.671,66.244a1.229,1.229,0,1,1,1.226-1.231,1.232,1.232,0,0,1-1.226,1.231" fill="#bcbec5" fill-rule="evenodd"/>
        <path id="Trazado_2739" data-name="Trazado 2739" d="M219.424,86.494l-.677-.087a2.886,2.886,0,0,0-2.578,3.1c0,.833.373,1.355,1.093,1.355.808,0,1.661-1.025,1.858-2.293Zm1.946,9.024a8.964,8.964,0,0,1-4,.787,6.638,6.638,0,0,1-6.819-6.883,8.071,8.071,0,0,1,8.174-8.324,6.232,6.232,0,0,1,6.6,6.316c0,3.189-1.793,5.2-4.151,5.2a1.715,1.715,0,0,1-1.879-1.684h-.043a3.205,3.205,0,0,1-2.819,1.684c-1.42,0-2.446-1.048-2.446-2.842a4.988,4.988,0,0,1,5.112-5.088,6.109,6.109,0,0,1,2.6.544l-.655,4.046c-.22,1.285-.067,1.875.545,1.9.94.023,2.121-1.18,2.121-3.693a4.818,4.818,0,0,0-5.224-5.047c-3.341,0-6.269,2.622-6.269,6.8,0,3.647,2.338,5.724,5.592,5.724a7.109,7.109,0,0,0,3.168-.7Z" fill="#fff"/>
        <path id="Trazado_2740" data-name="Trazado 2740" d="M198.235,88.4v-11h-6.306v11h-3.855l7.008,7.9,7.008-7.9Z" fill="#fff" fill-rule="evenodd"/>
        <path id="Trazado_2741" data-name="Trazado 2741" d="M167.8,93.092a8.306,8.306,0,1,1,8.3-8.306,8.3,8.3,0,0,1-8.3,8.306m0-18a9.695,9.695,0,1,0,9.692,9.692,9.693,9.693,0,0,0-9.692-9.692" fill="#3d4651" fill-rule="evenodd"/>
        <path id="Trazado_2742" data-name="Trazado 2742" d="M167.8,79.83a4.956,4.956,0,1,0,4.956,4.956A4.965,4.965,0,0,0,167.8,79.83" fill="#3d4651" fill-rule="evenodd"/>
        <path id="Trazado_2743" data-name="Trazado 2743" d="M151.988,146.875h-2.636V134.666c0-3.143.893-5.459,2.655-6.882a7.471,7.471,0,0,1,5.7-1.355h2.881a5.712,5.712,0,0,0,4.26-1.524,6.854,6.854,0,0,0,1.654-4.361V84.622h2.636v35.895a9.436,9.436,0,0,1-2.4,6.232,8.244,8.244,0,0,1-6.146,2.316h-3.139l-.135-.027a4.892,4.892,0,0,0-3.666.805c-1.1.9-1.659,2.526-1.659,4.823Z" fill="#3d4651"/>
        <path id="Trazado_2744" data-name="Trazado 2744" d="M245.415,88.992a8.3,8.3,0,1,1,8.3-8.306,8.306,8.306,0,0,1-8.3,8.306m0-18a9.695,9.695,0,1,0,9.692,9.692,9.7,9.7,0,0,0-9.692-9.692" fill="#3d4651" fill-rule="evenodd"/>
        <path id="Trazado_2745" data-name="Trazado 2745" d="M245.415,75.73a4.956,4.956,0,1,0,4.955,4.956,4.968,4.968,0,0,0-4.955-4.956" fill="#3d4651" fill-rule="evenodd"/>
        <path id="Trazado_2746" data-name="Trazado 2746" d="M229.6,136.186h-2.636V123.977c0-3.144.893-5.459,2.655-6.883a7.466,7.466,0,0,1,5.7-1.354H238.2a5.716,5.716,0,0,0,4.26-1.524,6.861,6.861,0,0,0,1.654-4.361V80.522h2.636v29.306a9.44,9.44,0,0,1-2.4,6.232,8.24,8.24,0,0,1-6.145,2.316h-3.139l-.135-.028a4.9,4.9,0,0,0-3.666.805c-1.1.9-1.659,2.527-1.659,4.824Z" fill="#3d4651"/>
        <path id="Trazado_2747" data-name="Trazado 2747" d="M84.477,42.348l-.883-.485a23.76,23.76,0,0,0-2.654-1.249,1.1,1.1,0,1,1,.805-2.041q1.03.4,2.027.906.642-.9,1.348-1.744a1.1,1.1,0,1,1,1.686,1.4,28.283,28.283,0,0,0-1.769,2.371Z" fill="#f5f5f7"/>
        <path id="Trazado_2748" data-name="Trazado 2748" d="M101.745,29.786a1.1,1.1,0,0,1-.249-2.169,30.683,30.683,0,0,1,6.466-.8h.018a1.1,1.1,0,0,1,.017,2.2,28.18,28.18,0,0,0-6,.741ZM90.479,35.168l-.867-.426A1.1,1.1,0,0,1,89.8,33.2a30.574,30.574,0,0,1,5.544-3.423,1.1,1.1,0,1,1,.945,1.981,28.189,28.189,0,0,0-5.142,3.181Z" fill="#f5f5f7"/>
        <path id="Trazado_2749" data-name="Trazado 2749" d="M117.686,30.55l-.8-.247a28.423,28.423,0,0,0-2.862-.741,1.1,1.1,0,1,1,.433-2.151c.766.151,1.535.338,2.295.558.437-.645.9-1.281,1.37-1.9a1.1,1.1,0,0,1,1.739,1.346c-.606.786-1.185,1.6-1.723,2.434Z" fill="#f5f5f7"/>
        <path id="Trazado_2750" data-name="Trazado 2750" d="M145,13.55a1.1,1.1,0,0,1-.1-2.192,38.387,38.387,0,0,1,6.279-.051,1.1,1.1,0,0,1-.161,2.192,36.558,36.558,0,0,0-5.919.046Zm17.909,2.832-.432-.092a36.261,36.261,0,0,0-5.615-1.871,1.1,1.1,0,0,1,.519-2.137,38.437,38.437,0,0,1,5.961,1.991,1.1,1.1,0,0,1-.433,2.109m-29.671.234-1-.65a1.1,1.1,0,0,1,.554-1.455,38.15,38.15,0,0,1,5.928-2.078,1.1,1.1,0,0,1,.552,2.128,35.405,35.405,0,0,0-5.583,1.959Zm39.906,6.324-.735-.279a36.045,36.045,0,0,0-4.7-3.593,1.1,1.1,0,1,1,1.185-1.848,38.329,38.329,0,0,1,4.99,3.807,1.1,1.1,0,0,1,.08,1.551Zm-50.038.389-.8-.348a1.1,1.1,0,0,1,.054-1.551,38.54,38.54,0,0,1,4.934-3.89,1.1,1.1,0,0,1,1.212,1.831,36.372,36.372,0,0,0-4.649,3.665Zm57.62,9.115-.961-.562a36.4,36.4,0,0,0-3.3-4.915,1.1,1.1,0,0,1,1.718-1.368,38.512,38.512,0,0,1,3.5,5.212,1.1,1.1,0,0,1-.424,1.492ZM69.252,39.212a1.1,1.1,0,0,1-.142-2.187,25.755,25.755,0,0,1,6.363-.037,1.1,1.1,0,1,1-.262,2.179A23.564,23.564,0,0,0,69.4,39.2ZM58.059,43.747l-.883-.448a1.093,1.093,0,0,1,.229-1.533,25.412,25.412,0,0,1,5.55-3.117,1.1,1.1,0,0,1,.824,2.037,23.026,23.026,0,0,0-5.068,2.846Zm126.759.133a1.1,1.1,0,0,1-1.081-.9,35.963,35.963,0,0,0-1.525-5.715,1.1,1.1,0,1,1,2.068-.741,38.326,38.326,0,0,1,1.62,6.067,1.1,1.1,0,0,1-.888,1.277Zm-134.4,9.23-.462-.1a1.1,1.1,0,0,1-.535-1.46,25.357,25.357,0,0,1,3.377-5.4,1.1,1.1,0,0,1,1.7,1.391,23.176,23.176,0,0,0-3.084,4.928Zm134.563,2.924-.166-.013a1.094,1.094,0,0,1-.92-1.25,36.207,36.207,0,0,0,.4-5.413l0-.49a1.092,1.092,0,0,1,1.084-1.112h.014a1.1,1.1,0,0,1,1.1,1.084l0,.518a38.5,38.5,0,0,1-.43,5.743,1.1,1.1,0,0,1-1.085.933M48.257,64.994a1.1,1.1,0,0,1-1.094-1.016c-.043-.6-.066-1.217-.066-1.821a25.478,25.478,0,0,1,.407-4.535,1.1,1.1,0,0,1,2.162.394,23.2,23.2,0,0,0-.373,4.141c0,.554.021,1.112.06,1.661a1.1,1.1,0,0,1-1.018,1.176ZM181.2,67.584l-.508-.123a1.1,1.1,0,0,1-.465-1.483,35.711,35.711,0,0,0,2.3-5.45,1.1,1.1,0,1,1,2.089.682A38.154,38.154,0,0,1,182.173,67ZM52.1,76.448l-.922-.5a25.4,25.4,0,0,1-2.773-5.734,1.1,1.1,0,0,1,2.083-.7,23.047,23.047,0,0,0,2.532,5.236A1.1,1.1,0,0,1,52.7,76.27Zm121.771.842-.8-.343a1.1,1.1,0,0,1,.038-1.551,36.6,36.6,0,0,0,3.941-4.416,1.1,1.1,0,0,1,1.753,1.323,38.62,38.62,0,0,1-4.181,4.686Zm-10.049,6.833-1-.641a1.1,1.1,0,0,1,.538-1.455,36.827,36.827,0,0,0,5.148-2.915,1.1,1.1,0,0,1,1.235,1.816,38.7,38.7,0,0,1-5.463,3.094ZM60.992,84.63l-.519-.132a25.385,25.385,0,0,1-5.183-3.693,1.1,1.1,0,0,1,1.488-1.616,23.551,23.551,0,0,0,4.736,3.378,1.1,1.1,0,0,1,.448,1.487ZM152.1,87.321a1.1,1.1,0,0,1-.107-2.191,35.179,35.179,0,0,0,5.814-1.081,1.1,1.1,0,0,1,.579,2.119,38.1,38.1,0,0,1-6.171,1.149Zm-79.372.188h-.278a25.428,25.428,0,0,1-6.031-.723,1.1,1.1,0,1,1,.522-2.133,23.132,23.132,0,0,0,5.509.659h.278a1.1,1.1,0,0,1,0,2.2m12.213,0h-6.1a1.1,1.1,0,1,1,0-2.2h6.1a1.1,1.1,0,0,1,0,2.2m12.214,0H91.046a1.1,1.1,0,0,1,0-2.2h6.107a1.1,1.1,0,0,1,0,2.2m12.211,0h-6.107a1.1,1.1,0,0,1,0-2.2h6.107a1.1,1.1,0,0,1,0,2.2m12.214,0h-6.107a1.1,1.1,0,0,1,0-2.2h6.107a1.1,1.1,0,0,1,0,2.2m12.211,0h-6.1a1.1,1.1,0,1,1,0-2.2h6.1a1.1,1.1,0,0,1,0,2.2m12.214,0H139.9a1.1,1.1,0,0,1,0-2.2H146a1.1,1.1,0,0,1,0,2.2" fill="#f5f5f7"/>
        <path id="Trazado_2751" data-name="Trazado 2751" d="M148.346,16.808a32.542,32.542,0,0,0-29.152,18.067A24.764,24.764,0,0,0,85.662,47.487,19.747,19.747,0,1,0,72.449,81.908h75.9a32.55,32.55,0,1,0,0-65.1" fill="#fff" fill-rule="evenodd"/>
        <path id="Trazado_2752" data-name="Trazado 2752" d="M145.967,63.434l10.131-.59a2.793,2.793,0,0,1,2.612,2.933v4.892A2.8,2.8,0,0,1,156.1,73.6l-10.131-.59a2.62,2.62,0,0,1-2.613-2.613V66.047a2.62,2.62,0,0,1,2.613-2.613" fill="#d5d6da" fill-rule="evenodd"/>
        <path id="Trazado_2753" data-name="Trazado 2753" d="M148.706,65.42l4.654,2.8-4.654,2.8Z" fill="#fff" fill-rule="evenodd"/>
        <path id="Trazado_2754" data-name="Trazado 2754" d="M118.1,50.882a1.183,1.183,0,0,1-1.185-1.181l.114-.5.771.865.719.042.038-.719-.741-.833.284-.036a1.183,1.183,0,1,1,0,2.365m-20.513,0a1.183,1.183,0,1,1,0-2.365l.281.036-.741.833.039.719.719-.042.771-.865.114.5a1.184,1.184,0,0,1-1.183,1.181m21.38-2.59h-1.387l-7.1-7.939v-.005l.117-.508a1.183,1.183,0,1,0-1.183,1.186l.284-.042.025.046,6.491,7.262q-8.37-.013-16.744,0l6.528-7.3.272.037a1.186,1.186,0,1,0-1.182-1.186l.119.508-7.1,7.944H96.718c-2.6.005-2.492,2.824,0,2.824h22.247c2.491,0,2.6-2.819,0-2.824" fill="#d5d6da" fill-rule="evenodd"/>
        <path id="Trazado_2755" data-name="Trazado 2755" d="M115.837,53.628c-.1.71-.2,1.423-.293,2.133s-.2,1.423-.295,2.132l-.568.773-.4.1a.761.761,0,0,1-.758-.869q.114-1.064.227-2.132c.073-.71.151-1.423.224-2.133l.707-.819.332-.05a.775.775,0,0,1,.824.869m-3.7,2.133c-.053.713-.11,1.423-.165,2.132l-.695.842-.218.027a.817.817,0,0,1-.81-.869q.049-1.064.1-2.132c.031-.71.065-1.423.1-2.133a.952.952,0,0,1,.836-.86l.149-.009a.83.83,0,0,1,.876.869c-.053.71-.112,1.423-.165,2.133m-3.4,0c-.014.713-.023,1.423-.037,2.132a.862.862,0,1,1-1.723,0c-.011-.709-.02-1.419-.031-2.132s-.024-1.423-.035-2.133a.931.931,0,0,1,1.858,0c-.011.71-.023,1.423-.032,2.133m-4.119,3-.217-.027-.7-.842c-.055-.709-.107-1.419-.162-2.132l-.165-2.133a.833.833,0,0,1,.878-.869l.147.009a.946.946,0,0,1,.835.86c.032.71.064,1.423.1,2.133s.064,1.423.1,2.132a.818.818,0,0,1-.81.869m-3.221,0-.4-.091-.567-.778c-.1-.709-.194-1.419-.293-2.132s-.2-1.423-.293-2.133a.774.774,0,0,1,.824-.869l.329.05.7.819c.073.71.151,1.423.225,2.133s.151,1.423.224,2.132a.759.759,0,0,1-.755.869m9.882-6.8H96.864l1.082,6.237c.231,1.345.891,2.352,2.952,2.352h13.884c2.061,0,2.721-1.007,2.954-2.352l1.082-6.237h-7.541Z" fill="#d5d6da" fill-rule="evenodd"/>
        <path id="Trazado_2756" data-name="Trazado 2756" d="M167.614,49.514a17.679,17.679,0,0,0,.767-5.126,17.909,17.909,0,1,0-35.058,5.153l-.382.668v.957a.813.813,0,0,0,.808.81h1.974v1.748c0,2.045,2.409,3.7,5.4,3.743v-14.2c-2.609.032-4.776,1.295-5.288,2.979l-.117.769V49.4h-1.974l-.422.137V48.21a5.147,5.147,0,0,1,.215-1.464,5.766,5.766,0,0,1,2-2.833V43.9a14.933,14.933,0,0,1,29.857.11,5.636,5.636,0,0,1,1.989,3.276l.1.925v1.244l-.261-.054h-2.137V47.011l-.046-.481c-.337-1.8-2.551-3.194-5.265-3.262V57.463c2.95-.074,5.311-1.716,5.311-3.739V51.976h2.137a.814.814,0,0,0,.81-.81v-.957Z" fill="#d5d6da"/>
        <path id="Trazado_2757" data-name="Trazado 2757" d="M135.933,66.715l-8.23,5.944-8.228-5.944,8.228-5.94Z" fill="#d5d6da" fill-rule="evenodd"/>
        <path id="Trazado_2758" data-name="Trazado 2758" d="M119.475,76.43h16.458V66.715l-8.23,5.944-8.228-5.944Z" fill="#f5f5f7" fill-rule="evenodd"/>
        <path id="Trazado_2759" data-name="Trazado 2759" d="M119.475,76.43h16.458l-6.727-4.855h-3Z" fill="#d5d6da" fill-rule="evenodd"/>
        <path id="Trazado_2760" data-name="Trazado 2760" d="M99.944,67.873l.028-.471a4.235,4.235,0,0,0-8.469,0l.026.471,4.207,9.834Z" fill="#d5d6da"/>
        <path id="Trazado_2761" data-name="Trazado 2761" d="M98.045,67.4A2.307,2.307,0,1,1,95.737,65.1,2.308,2.308,0,0,1,98.045,67.4" fill="#f5f5f7"/>
        <path id="Trazado_2762" data-name="Trazado 2762" d="M72.913,69.525a8.306,8.306,0,1,1,8.3-8.306,8.306,8.306,0,0,1-8.3,8.306m0-18a9.7,9.7,0,1,0,9.692,9.7,9.7,9.7,0,0,0-9.692-9.7" fill="#3d4651" fill-rule="evenodd"/>
        <path id="Trazado_2763" data-name="Trazado 2763" d="M72.913,56.263a4.956,4.956,0,1,0,4.956,4.956,4.968,4.968,0,0,0-4.956-4.956" fill="#3d4651" fill-rule="evenodd"/>
        <path id="Trazado_2764" data-name="Trazado 2764" d="M52.705,123.3H50.069V111.1c0-3.144.893-5.46,2.655-6.887a7.486,7.486,0,0,1,5.7-1.351H65.7a5.714,5.714,0,0,0,4.26-1.523,6.861,6.861,0,0,0,1.654-4.361V61.055h2.636V96.946a9.443,9.443,0,0,1-2.4,6.237A8.24,8.24,0,0,1,65.7,105.5H58.165l-.135-.027a4.9,4.9,0,0,0-3.666.806c-1.1.9-1.659,2.525-1.659,4.823Z" fill="#3d4651"/>
        <path id="Trazado_2765" data-name="Trazado 2765" d="M24.912,177.265v2.348a2.323,2.323,0,0,0,2.3,2.347h90.072a2.323,2.323,0,0,0,2.295-2.347v-2.348Z" fill="#fff"/>
        <path id="Trazado_2766" data-name="Trazado 2766" d="M115.194,177.265v-49.7a4.946,4.946,0,0,0-4.89-5H34.18a4.946,4.946,0,0,0-4.889,5v49.7Z" fill="#3d4651"/>
        <rect id="Rectángulo_3720" data-name="Rectángulo 3720" width="77.371" height="46.114" transform="translate(33.556 127.308)" fill="#5db2f1"/>
        <path id="Trazado_2767" data-name="Trazado 2767" d="M73.5,124.96a1.263,1.263,0,1,1-1.261-1.29,1.275,1.275,0,0,1,1.261,1.29" fill="#fff"/>
        <rect id="Rectángulo_3721" data-name="Rectángulo 3721" width="77.371" height="3.872" transform="translate(33.556 127.307)" fill="#ebebf0"/>
        <path id="Trazado_2768" data-name="Trazado 2768" d="M37.249,129.243a1.035,1.035,0,1,1-1.034-1.061,1.048,1.048,0,0,1,1.034,1.061" fill="#f4a789"/>
        <path id="Trazado_2769" data-name="Trazado 2769" d="M40.839,129.243a1.036,1.036,0,1,1-1.037-1.061,1.05,1.05,0,0,1,1.037,1.061" fill="#fcde93"/>
        <path id="Trazado_2770" data-name="Trazado 2770" d="M44.427,129.243a1.034,1.034,0,1,1-1.034-1.061,1.048,1.048,0,0,1,1.034,1.061" fill="#b9e1f4"/>
        <path id="Trazado_2771" data-name="Trazado 2771" d="M108.445,129.243l.748-.768v-.4H108.8l-.748.769-.751-.769h-.394v.4l.751.768-.751.769v.4h.394l.751-.769.748.769h.391v-.4Z" fill="#3d4651"/>
        <rect id="Rectángulo_3722" data-name="Rectángulo 3722" width="8.974" height="1.794" transform="translate(66.795 169.184)" fill="#b2b5bc"/>
        <rect id="Rectángulo_3723" data-name="Rectángulo 3723" width="11.353" height="1.794" transform="translate(66.795 166.315)" fill="#b2b5bc"/>
        <rect id="Rectángulo_3724" data-name="Rectángulo 3724" width="12.813" height="1.794" transform="translate(90.305 169.184)" fill="#b2b5bc"/>
        <rect id="Rectángulo_3725" data-name="Rectángulo 3725" width="11.353" height="1.794" transform="translate(90.305 166.315)" fill="#b2b5bc"/>
        <rect id="Rectángulo_3726" data-name="Rectángulo 3726" width="13.726" height="1.794" transform="translate(41.366 169.184)" fill="#b2b5bc"/>
        <rect id="Rectángulo_3727" data-name="Rectángulo 3727" width="8.974" height="1.794" transform="translate(41.365 166.315)" fill="#b2b5bc"/>
        <path id="Trazado_2772" data-name="Trazado 2772" d="M51.927,160.814a4.363,4.363,0,1,1-4.365-4.361,4.365,4.365,0,0,1,4.365,4.361" fill="#f5f5f7"/>
        <path id="Trazado_2773" data-name="Trazado 2773" d="M76.606,160.814a4.364,4.364,0,1,1-4.363-4.361,4.364,4.364,0,0,1,4.363,4.361" fill="#f5f5f7"/>
        <path id="Trazado_2774" data-name="Trazado 2774" d="M101.285,160.814a4.364,4.364,0,1,1-4.363-4.361,4.364,4.364,0,0,1,4.363,4.361" fill="#f5f5f7"/>
        <path id="Trazado_2775" data-name="Trazado 2775" d="M82.953,144.4a10.711,10.711,0,1,1-10.71-10.713A10.711,10.711,0,0,1,82.953,144.4" fill="#d5d6da"/>
        <rect id="Rectángulo_3728" data-name="Rectángulo 3728" width="40.334" height="18.437" transform="translate(208.325 186.738)" fill="#d7e1eb"/>
        <rect id="Rectángulo_3729" data-name="Rectángulo 3729" width="40.334" height="7.006" transform="translate(208.325 187.667)" fill="#aab4c1"/>
        <path id="Trazado_2776" data-name="Trazado 2776" d="M177.377,125.262H279.7a5.248,5.248,0,0,1,5.235,5.235v55.682a5.252,5.252,0,0,1-5.235,5.236H177.377a5.252,5.252,0,0,1-5.235-5.236V130.5a5.249,5.249,0,0,1,5.235-5.235" fill="#fff" fill-rule="evenodd"/>
        <path id="Trazado_2777" data-name="Trazado 2777" d="M230.611,186.944a2.072,2.072,0,1,1-2.073-2.073,2.073,2.073,0,0,1,2.073,2.073" fill="#d7e1eb" fill-rule="evenodd"/>
        <rect id="Rectángulo_3730" data-name="Rectángulo 3730" width="105.843" height="53.751" transform="translate(175.617 128.315)" fill="#85c5f4"/>
        <path id="Trazado_2778" data-name="Trazado 2778" d="M187,201.363h80.6a3.157,3.157,0,1,1,0,6.315H187a3.157,3.157,0,0,1,0-6.315" fill="#fff" fill-rule="evenodd"/>
        <rect id="Rectángulo_3731" data-name="Rectángulo 3731" width="105.736" height="5.295" transform="translate(175.613 128.346)" fill="#ebebf0"/>
        <path id="Trazado_2779" data-name="Trazado 2779" d="M180.658,130.992a1.414,1.414,0,1,1-1.414-1.446,1.432,1.432,0,0,1,1.414,1.446" fill="#f4a789"/>
        <path id="Trazado_2780" data-name="Trazado 2780" d="M185.564,130.992a1.414,1.414,0,1,1-1.414-1.446,1.433,1.433,0,0,1,1.414,1.446" fill="#fcde93"/>
        <path id="Trazado_2781" data-name="Trazado 2781" d="M190.469,130.992a1.415,1.415,0,1,1-1.416-1.446,1.434,1.434,0,0,1,1.416,1.446" fill="#b9e1f4"/>
        <path id="Trazado_2782" data-name="Trazado 2782" d="M277.956,130.992l1.025-1.048v-.549h-.538l-1.025,1.048-1.023-1.048h-.538v.549l1.026,1.048-1.026,1.052v.55h.538l1.023-1.053,1.025,1.053h.538v-.55Z" fill="#3d4651"/>
        <rect id="Rectángulo_3732" data-name="Rectángulo 3732" width="10.221" height="2.041" transform="translate(222.275 177.325)" fill="#bcbec5"/>
        <rect id="Rectángulo_3733" data-name="Rectángulo 3733" width="12.93" height="2.041" transform="translate(222.275 174.058)" fill="#bcbec5"/>
        <rect id="Rectángulo_3734" data-name="Rectángulo 3734" width="14.591" height="2.041" transform="translate(249.048 177.325)" fill="#bcbec5"/>
        <rect id="Rectángulo_3735" data-name="Rectángulo 3735" width="12.928" height="2.041" transform="translate(249.048 174.058)" fill="#bcbec5"/>
        <rect id="Rectángulo_3736" data-name="Rectángulo 3736" width="15.632" height="2.041" transform="translate(193.32 177.325)" fill="#bcbec5"/>
        <rect id="Rectángulo_3737" data-name="Rectángulo 3737" width="10.22" height="2.041" transform="translate(193.321 174.058)" fill="#bcbec5"/>
        <path id="Trazado_2783" data-name="Trazado 2783" d="M205.346,167.8a4.968,4.968,0,1,1-4.97-4.97,4.967,4.967,0,0,1,4.97,4.97" fill="#f5f5f7"/>
        <path id="Trazado_2784" data-name="Trazado 2784" d="M233.448,167.8a4.968,4.968,0,1,1-4.967-4.97,4.967,4.967,0,0,1,4.967,4.97" fill="#f5f5f7"/>
        <path id="Trazado_2785" data-name="Trazado 2785" d="M261.552,167.8a4.968,4.968,0,1,1-4.97-4.97,4.967,4.967,0,0,1,4.97,4.97" fill="#f5f5f7"/>
        <path id="Trazado_2786" data-name="Trazado 2786" d="M240.678,149.1a12.2,12.2,0,1,1-12.2-12.2,12.2,12.2,0,0,1,12.2,12.2" fill="#bcbec5"/>
      </g>
    </g>
  </g>
</svg>
