<svg xmlns="http://www.w3.org/2000/svg" width="74.545" height="82.752" viewBox="0 0 74.545 82.752">
  <g id="Grupo_141321" data-name="Grupo 141321" transform="translate(-390 -1097)">
    <g id="Grupo_80062" data-name="Grupo 80062" transform="translate(390 1097)">
      <path id="Trazado_113152" data-name="Trazado 113152" d="M0,0H74.545V82.752L37.768,71.379,0,82.752Z" fill="#ffa726"/>
      <path id="Icon_awesome-quote-right" data-name="Icon awesome-quote-right" d="M41.909,0H30.348a4.337,4.337,0,0,0-4.335,4.335V15.9a4.337,4.337,0,0,0,4.335,4.335h7.226v5.781a5.786,5.786,0,0,1-5.781,5.781h-.723A2.163,2.163,0,0,0,28.9,33.961V38.3a2.163,2.163,0,0,0,2.168,2.168h.723A14.447,14.447,0,0,0,46.245,26.013V4.335A4.337,4.337,0,0,0,41.909,0ZM15.9,0H4.335A4.337,4.337,0,0,0,0,4.335V15.9a4.337,4.337,0,0,0,4.335,4.335h7.226v5.781a5.786,5.786,0,0,1-5.781,5.781H5.058A2.163,2.163,0,0,0,2.89,33.961V38.3a2.163,2.163,0,0,0,2.168,2.168h.723A14.447,14.447,0,0,0,20.232,26.013V4.335A4.337,4.337,0,0,0,15.9,0Z" transform="translate(60.739 61.861) rotate(180)" fill="#fff"/>
    </g>
  </g>
</svg>
