<svg xmlns="http://www.w3.org/2000/svg" xmlns:xlink="http://www.w3.org/1999/xlink" width="715" height="360" viewBox="0 0 715 360">
  <defs>
    <clipPath id="clip-path">
      <rect id="Rectángulo_36462" data-name="Rectángulo 36462" width="637.559" height="323.978" fill="none"/>
    </clipPath>
    <clipPath id="clip-path-3">
      <rect id="Rectángulo_36358" data-name="Rectángulo 36358" width="50.844" height="95.114" fill="none"/>
    </clipPath>
    <clipPath id="clip-path-4">
      <rect id="Rectángulo_36361" data-name="Rectángulo 36361" width="382.271" height="41.182" fill="none"/>
    </clipPath>
    <clipPath id="clip-path-5">
      <rect id="Rectángulo_36360" data-name="Rectángulo 36360" width="382.273" height="41.181" fill="none"/>
    </clipPath>
    <linearGradient id="linear-gradient" x1="-0.572" y1="0.57" x2="-0.563" y2="0.57" gradientUnits="objectBoundingBox">
      <stop offset="0" stop-color="#e6e7e8"/>
      <stop offset="0.118" stop-color="#e6e7e8"/>
      <stop offset="0.518" stop-color="#f3f3f4"/>
      <stop offset="1" stop-color="#fff"/>
    </linearGradient>
    <clipPath id="clip-path-6">
      <rect id="Rectángulo_36362" data-name="Rectángulo 36362" width="208.152" height="131.341" fill="none"/>
    </clipPath>
    <clipPath id="clip-path-7">
      <rect id="Rectángulo_36384" data-name="Rectángulo 36384" width="161.915" height="119.026" fill="none"/>
    </clipPath>
    <clipPath id="clip-path-8">
      <rect id="Rectángulo_36367" data-name="Rectángulo 36367" width="161.915" height="6.843" fill="none"/>
    </clipPath>
    <clipPath id="clip-path-9">
      <rect id="Rectángulo_36408" data-name="Rectángulo 36408" width="72.632" height="110.019" fill="none"/>
    </clipPath>
    <clipPath id="clip-path-10">
      <rect id="Rectángulo_36387" data-name="Rectángulo 36387" width="72.632" height="7.88" fill="none"/>
    </clipPath>
    <clipPath id="clip-path-11">
      <rect id="Rectángulo_36434" data-name="Rectángulo 36434" width="373.765" height="4.82" fill="none"/>
    </clipPath>
    <clipPath id="clip-path-12">
      <rect id="Rectángulo_36437" data-name="Rectángulo 36437" width="122.914" height="82.381" fill="none"/>
    </clipPath>
    <clipPath id="clip-path-13">
      <rect id="Rectángulo_36449" data-name="Rectángulo 36449" width="84.781" height="105.153" fill="none"/>
    </clipPath>
    <clipPath id="clip-path-14">
      <rect id="Rectángulo_36450" data-name="Rectángulo 36450" width="131.94" height="64.767" fill="none"/>
    </clipPath>
    <clipPath id="clip-path-15">
      <rect id="Rectángulo_36451" data-name="Rectángulo 36451" width="123.032" height="92.594" fill="none"/>
    </clipPath>
    <clipPath id="clip-path-16">
      <rect id="Rectángulo_36460" data-name="Rectángulo 36460" width="102.215" height="55.536" fill="none"/>
    </clipPath>
  </defs>
  <g id="Grupo_141331" data-name="Grupo 141331" transform="translate(-705 -393)">
    <rect id="Rectángulo_36022" data-name="Rectángulo 36022" width="715" height="360" transform="translate(705 393)" fill="#e7f8fa"/>
    <g id="Grupo_87866" data-name="Grupo 87866" transform="translate(731.441 429.021)">
      <g id="Grupo_87865" data-name="Grupo 87865" clip-path="url(#clip-path)">
        <path id="Trazado_117238" data-name="Trazado 117238" d="M95.84,17.464H83.391v20.05H98.626V19.6ZM97.948,36.88H84.074V18.1H95.832L95.5,20.25l2.453-.341Z" transform="translate(132.347 27.717)" fill="#fff"/>
        <rect id="Rectángulo_36341" data-name="Rectángulo 36341" width="10.591" height="0.701" transform="translate(218.051 50.202)" fill="#fff"/>
        <rect id="Rectángulo_36342" data-name="Rectángulo 36342" width="10.591" height="0.706" transform="translate(218.051 53.009)" fill="#fff"/>
        <rect id="Rectángulo_36343" data-name="Rectángulo 36343" width="10.591" height="0.709" transform="translate(218.051 55.813)" fill="#fff"/>
        <rect id="Rectángulo_36344" data-name="Rectángulo 36344" width="10.591" height="0.704" transform="translate(218.051 58.623)" fill="#fff"/>
        <path id="Trazado_117239" data-name="Trazado 117239" d="M222.956,85.864v-.986l7.821-4.271v1.074l-6.835,3.637,6.835,3.658v1.138Z" transform="translate(353.846 127.929)" fill="#fff"/>
        <path id="Trazado_117240" data-name="Trazado 117240" d="M231.065,90.1V89.049l6.838-3.658-6.838-3.658V80.616l7.821,4.227v.988Z" transform="translate(366.716 127.942)" fill="#fff"/>
        <rect id="Rectángulo_36345" data-name="Rectángulo 36345" width="0.962" height="1.971" transform="translate(588.529 212.631)" fill="#fff"/>
        <rect id="Rectángulo_36346" data-name="Rectángulo 36346" width="0.962" height="1.971" transform="translate(591.732 212.631)" fill="#fff"/>
        <rect id="Rectángulo_36347" data-name="Rectángulo 36347" width="0.965" height="1.971" transform="translate(594.932 212.631)" fill="#fff"/>
        <g id="Grupo_87864" data-name="Grupo 87864" transform="translate(0 0)">
          <g id="Grupo_87863" data-name="Grupo 87863" clip-path="url(#clip-path)">
            <path id="Trazado_117241" data-name="Trazado 117241" d="M176.191,23.678a.344.344,0,0,0,.235-.1.39.39,0,0,0,.1-.277,8.763,8.763,0,0,0-.083-.9.346.346,0,0,0-.4-.295l-.5.1a6.065,6.065,0,0,0-.181-.665l.484-.166a.371.371,0,0,0,.184-.173.394.394,0,0,0,.01-.287,8.275,8.275,0,0,0-.378-.825.357.357,0,0,0-.484-.15l-.432.254a6.58,6.58,0,0,0-.391-.569l.4-.313a.281.281,0,0,0,.122-.228.358.358,0,0,0-.085-.272,5.481,5.481,0,0,0-.621-.649.346.346,0,0,0-.5.008l-.339.38a6.132,6.132,0,0,0-.543-.414l.279-.424a.333.333,0,0,0,.041-.248.392.392,0,0,0-.166-.241c-.292-.168-.548-.3-.8-.419a.355.355,0,0,0-.473.181l-.194.473a5.465,5.465,0,0,0-.649-.217l.114-.492a.305.305,0,0,0-.031-.251.359.359,0,0,0-.235-.166,6.738,6.738,0,0,0-.9-.14.342.342,0,0,0-.385.321l-.028.5h-.013a6.367,6.367,0,0,0-.678.016l-.044-.5a.337.337,0,0,0-.347-.313l-.049,0a7.02,7.02,0,0,0-.88.16.35.35,0,0,0-.233.168.343.343,0,0,0-.041.259l.142.484c-.217.075-.435.15-.647.235l-.2-.466a.356.356,0,0,0-.479-.155,6.378,6.378,0,0,0-.792.445.371.371,0,0,0-.163.235.305.305,0,0,0,.057.251l.292.417c-.186.129-.365.279-.541.427l-.341-.37a.351.351,0,0,0-.5.005,8.131,8.131,0,0,0-.6.68.333.333,0,0,0-.078.274.314.314,0,0,0,.129.217l.4.295a6.7,6.7,0,0,0-.367.587l-.445-.243a.348.348,0,0,0-.463.168,5.869,5.869,0,0,0-.352.836.375.375,0,0,0,.016.29.309.309,0,0,0,.191.166l.473.145a6.712,6.712,0,0,0-.158.673l-.489-.08a.354.354,0,0,0-.391.305,6.886,6.886,0,0,0-.057.905.339.339,0,0,0,.341.357l.494-.008c.01.222.031.453.065.68l-.484.091a.275.275,0,0,0-.212.127.382.382,0,0,0-.062.29,7.711,7.711,0,0,0,.243.877.349.349,0,0,0,.44.225L162.99,26a5.959,5.959,0,0,0,.29.634l-.427.233a.329.329,0,0,0-.163.2.391.391,0,0,0,.047.285,7.52,7.52,0,0,0,.5.74.356.356,0,0,0,.5.078l.373-.313a5.187,5.187,0,0,0,.481.507l-.334.354a.386.386,0,0,0-.083.246.37.37,0,0,0,.135.254,7.205,7.205,0,0,0,.717.546.351.351,0,0,0,.489-.1l.254-.414a6.241,6.241,0,0,0,.621.326l-.191.442a.291.291,0,0,0-.008.246.354.354,0,0,0,.21.212,7.97,7.97,0,0,0,.859.277.358.358,0,0,0,.435-.243l.106-.473c.212.041.442.072.68.1l-.041.481a.312.312,0,0,0,.088.246.329.329,0,0,0,.259.116c.111.005.23.013.347.013.179,0,.36-.008.559-.016a.432.432,0,0,0,.261-.15.321.321,0,0,0,.067-.233l-.057-.484c.23-.031.466-.072.683-.124l.119.471a.354.354,0,0,0,.445.235,8.145,8.145,0,0,0,.849-.305.377.377,0,0,0,.2-.212.357.357,0,0,0-.01-.254l-.21-.437c.207-.106.409-.217.6-.339l.269.406a.352.352,0,0,0,.492.078c.23-.166.463-.349.714-.569a.373.373,0,0,0,.114-.259.338.338,0,0,0-.091-.243l-.344-.344a4.653,4.653,0,0,0,.458-.525l.391.31a.367.367,0,0,0,.5-.091,8.389,8.389,0,0,0,.479-.761.344.344,0,0,0,.031-.287.317.317,0,0,0-.16-.2l-.442-.225a5.562,5.562,0,0,0,.261-.636l.468.168a.351.351,0,0,0,.437-.246,8.444,8.444,0,0,0,.217-.882.349.349,0,0,0-.072-.277.31.31,0,0,0-.22-.137l-.5-.062a5.458,5.458,0,0,0,.052-.691Zm-1.159-.08a5.915,5.915,0,1,1-5.914-5.911,5.919,5.919,0,0,1,5.914,5.911" transform="translate(256.643 25.703)" fill="#fff"/>
            <path id="Trazado_117242" data-name="Trazado 117242" d="M178.055,23.333a.381.381,0,0,0,.3-.14.461.461,0,0,0,.137-.36c-.021-.435-.065-.874-.127-1.309a.469.469,0,0,0-.541-.4l-.758.147c-.07-.334-.168-.675-.279-1.04l.73-.261a.392.392,0,0,0,.248-.23.514.514,0,0,0,.016-.378,10.452,10.452,0,0,0-.551-1.2.477.477,0,0,0-.422-.266.419.419,0,0,0-.215.062l-.673.391a10.248,10.248,0,0,0-.608-.89l.616-.486a.408.408,0,0,0,.163-.3.49.49,0,0,0-.114-.36,9.665,9.665,0,0,0-.908-.957.475.475,0,0,0-.662.013l-.515.6a9.353,9.353,0,0,0-.874-.652l.437-.66a.424.424,0,0,0,.057-.326.469.469,0,0,0-.233-.316,9.357,9.357,0,0,0-1.159-.608.463.463,0,0,0-.626.23l-.295.727a9.054,9.054,0,0,0-1.035-.336l.191-.761a.438.438,0,0,0-.049-.331.484.484,0,0,0-.321-.228,9.891,9.891,0,0,0-1.3-.191.468.468,0,0,0-.523.417l-.039.784-.062,0a8.756,8.756,0,0,0-1.024.026l-.065-.784a.45.45,0,0,0-.53-.406,10.528,10.528,0,0,0-1.288.23.5.5,0,0,0-.31.233.412.412,0,0,0-.044.339l.212.753a9.894,9.894,0,0,0-1.017.365l-.318-.717a.468.468,0,0,0-.634-.2,11.089,11.089,0,0,0-1.143.639.465.465,0,0,0-.222.318.417.417,0,0,0,.075.331l.445.642a9.8,9.8,0,0,0-.846.678l-.525-.572a.483.483,0,0,0-.67,0c-.285.282-.564.6-.885.991a.536.536,0,0,0-.1.365.419.419,0,0,0,.178.292l.621.46a9.657,9.657,0,0,0-.582.918l-.68-.373a.473.473,0,0,0-.621.228,9.791,9.791,0,0,0-.512,1.208.473.473,0,0,0,.023.393.4.4,0,0,0,.259.215l.73.228a8.949,8.949,0,0,0-.248,1.056l-.761-.124a.464.464,0,0,0-.52.417,9.809,9.809,0,0,0-.085,1.309.455.455,0,0,0,.46.479l.763-.021a8.134,8.134,0,0,0,.1,1.081l-.758.132a.416.416,0,0,0-.274.173.52.52,0,0,0-.083.383,12.4,12.4,0,0,0,.349,1.27.468.468,0,0,0,.592.305l.706-.266c.14.352.287.675.448.986l-.657.365a.411.411,0,0,0-.212.272.481.481,0,0,0,.052.375c.238.388.484.753.737,1.087a.471.471,0,0,0,.66.1l.582-.473a9.544,9.544,0,0,0,.748.786l-.5.546a.436.436,0,0,0-.124.326.538.538,0,0,0,.181.344,10.933,10.933,0,0,0,1.053.789.473.473,0,0,0,.649-.122l.391-.639c.323.191.649.36.965.507l-.3.68a.418.418,0,0,0-.008.331.541.541,0,0,0,.282.285,12.668,12.668,0,0,0,1.252.406.473.473,0,0,0,.577-.331l.155-.732a8.5,8.5,0,0,0,1.081.158l-.065.748a.444.444,0,0,0,.122.323.471.471,0,0,0,.341.16c.166,0,.336.013.5.013.266,0,.538-.013.81-.028a.542.542,0,0,0,.354-.186.425.425,0,0,0,.088-.321l-.085-.737a9.864,9.864,0,0,0,1.074-.2l.181.724a.472.472,0,0,0,.6.313A12.4,12.4,0,0,0,172,33.122a.579.579,0,0,0,.272-.285.4.4,0,0,0-.018-.336l-.323-.678a8.119,8.119,0,0,0,.949-.541l.419.631a.469.469,0,0,0,.655.106,9.394,9.394,0,0,0,1.022-.828.474.474,0,0,0,.163-.347.433.433,0,0,0-.119-.318l-.53-.541a6.645,6.645,0,0,0,.724-.815l.6.471a.478.478,0,0,0,.657-.114,12.434,12.434,0,0,0,.7-1.112.5.5,0,0,0,.039-.393.424.424,0,0,0-.22-.254l-.667-.341a10.337,10.337,0,0,0,.409-1l.724.254a.472.472,0,0,0,.582-.329,11.282,11.282,0,0,0,.31-1.275.523.523,0,0,0-.093-.383.489.489,0,0,0-.295-.181l-.761-.093a8.655,8.655,0,0,0,.075-1.084Zm-1.658-.078a8.66,8.66,0,1,1-8.661-8.656,8.672,8.672,0,0,1,8.661,8.656" transform="translate(249.139 19.866)" fill="#fff"/>
            <path id="Trazado_117243" data-name="Trazado 117243" d="M81.616,40.333v-.986l7.821-4.271V36.15L82.6,39.787l6.835,3.658v1.138Z" transform="translate(129.531 55.668)" fill="#fff"/>
            <path id="Trazado_117244" data-name="Trazado 117244" d="M89.726,44.571V43.518l6.835-3.658L89.726,36.2V35.084l7.821,4.227V40.3Z" transform="translate(142.4 55.681)" fill="#fff"/>
            <rect id="Rectángulo_36348" data-name="Rectángulo 36348" width="0.962" height="1.971" transform="translate(222.876 94.839)" fill="#fff"/>
            <rect id="Rectángulo_36349" data-name="Rectángulo 36349" width="0.965" height="1.971" transform="translate(226.076 94.839)" fill="#fff"/>
            <rect id="Rectángulo_36350" data-name="Rectángulo 36350" width="0.962" height="1.971" transform="translate(229.276 94.839)" fill="#fff"/>
            <g id="Grupo_87824" data-name="Grupo 87824" transform="translate(93.514 3.922)" opacity="0.4">
              <g id="Grupo_87823" data-name="Grupo 87823">
                <g id="Grupo_87822" data-name="Grupo 87822" clip-path="url(#clip-path-3)">
                  <path id="Trazado_117245" data-name="Trazado 117245" d="M51.034,38.286A3.135,3.135,0,1,1,47.9,35.065a3.177,3.177,0,0,1,3.136,3.221" transform="translate(-22.467 51.728)" fill="#d1d3d4"/>
                  <path id="Trazado_117246" data-name="Trazado 117246" d="M80.5,96.624h-38a6.378,6.378,0,0,1-6.359-6.362V7.878a6.38,6.38,0,0,1,6.359-6.362h38a6.38,6.38,0,0,1,6.359,6.362V90.263A6.378,6.378,0,0,1,80.5,96.624" transform="translate(-36.146 -1.516)" fill="#fff"/>
                  <path id="Trazado_117247" data-name="Trazado 117247" d="M81.095,94.8H43.036a6.365,6.365,0,0,1-6.346-6.346V6.522a6.328,6.328,0,0,1,1.845-4.463,6.361,6.361,0,0,0-2.388,4.957V89.4a6.378,6.378,0,0,0,6.359,6.362h38a6.374,6.374,0,0,0,5.7-3.568A6.34,6.34,0,0,1,81.095,94.8" transform="translate(-36.146 -0.654)" fill="#e6e7e8"/>
                  <path id="Trazado_117248" data-name="Trazado 117248" d="M41.559,94.8H79.618a6.365,6.365,0,0,0,6.346-6.346V6.525a6.328,6.328,0,0,0-1.845-4.463,6.361,6.361,0,0,1,2.388,4.957V89.4a6.378,6.378,0,0,1-6.359,6.362h-38a6.374,6.374,0,0,1-5.7-3.568A6.34,6.34,0,0,0,41.559,94.8" transform="translate(-35.665 -0.649)" fill="#e6e7e8"/>
                  <path id="Trazado_117249" data-name="Trazado 117249" d="M43.7,4.344a1.074,1.074,0,1,1-1.074-1.1,1.087,1.087,0,0,1,1.074,1.1" transform="translate(-27.56 1.223)" fill="#e6e7e8"/>
                  <path id="Trazado_117250" data-name="Trazado 117250" d="M83.837,79.313H37.774a1.186,1.186,0,0,1-1.187-1.187V6.709a1.187,1.187,0,0,1,1.187-1.187H83.837a1.189,1.189,0,0,1,1.187,1.187V78.125a1.187,1.187,0,0,1-1.187,1.187" transform="translate(-35.448 4.842)" fill="#e6e7e8"/>
                  <path id="Trazado_117251" data-name="Trazado 117251" d="M56,4.524H44.033a.53.53,0,0,1,0-1.061H56a.53.53,0,1,1,0,1.061" transform="translate(-24.468 1.574)" fill="#e6e7e8"/>
                  <rect id="Rectángulo_36351" data-name="Rectángulo 36351" width="43.708" height="18.019" transform="translate(3.566 14.288)" fill="#fff"/>
                  <rect id="Rectángulo_36352" data-name="Rectángulo 36352" width="43.708" height="18.019" transform="translate(3.566 55.032)" fill="#fff"/>
                  <rect id="Rectángulo_36353" data-name="Rectángulo 36353" width="16.469" height="16.469" transform="translate(3.566 35.264)" fill="#fff"/>
                  <rect id="Rectángulo_36354" data-name="Rectángulo 36354" width="24.973" height="4.434" transform="translate(22.302 35.262)" fill="#fff"/>
                  <rect id="Rectángulo_36355" data-name="Rectángulo 36355" width="24.973" height="4.434" transform="translate(22.302 41.282)" fill="#fff"/>
                  <rect id="Rectángulo_36356" data-name="Rectángulo 36356" width="24.973" height="4.434" transform="translate(22.302 47.299)" fill="#fff"/>
                  <rect id="Rectángulo_36357" data-name="Rectángulo 36357" width="42.863" height="3.443" transform="translate(3.566 75.804)" fill="#fff"/>
                </g>
              </g>
            </g>
            <g id="Grupo_87829" data-name="Grupo 87829" transform="translate(135.018 282.699)" style="mix-blend-mode: multiply;isolation: isolate">
              <g id="Grupo_87828" data-name="Grupo 87828">
                <g id="Grupo_87827" data-name="Grupo 87827" clip-path="url(#clip-path-4)">
                  <g id="Grupo_87826" data-name="Grupo 87826" transform="translate(-0.001 0)">
                    <g id="Grupo_87825" data-name="Grupo 87825" clip-path="url(#clip-path-5)">
                      <rect id="Rectángulo_36359" data-name="Rectángulo 36359" width="304.25" height="294.481" transform="translate(-20.574 19.757) rotate(-43.839)" fill="url(#linear-gradient)"/>
                    </g>
                  </g>
                </g>
              </g>
            </g>
            <path id="Trazado_117252" data-name="Trazado 117252" d="M118.242,97.781h39.683l3.309,30.4h-46.3Z" transform="translate(182.41 155.185)" fill="#fff"/>
            <path id="Trazado_117253" data-name="Trazado 117253" d="M185.406,110.648c0,1.1-1.782,1.995-3.987,1.995H113.131c-2.2,0-3.987-.893-3.987-1.995v-.53c0-1.1,1.785-1.992,3.987-1.992h68.288c2.2,0,3.987.89,3.987,1.992Z" transform="translate(173.219 171.603)" fill="#fff"/>
            <path id="Trazado_117254" data-name="Trazado 117254" d="M83.654,92.8v12.082c0,4.644,3.764,6.755,8.411,6.755H283.391c4.644,0,8.413-2.111,8.413-6.755V92.8Z" transform="translate(132.764 147.278)" fill="#fff"/>
            <g id="Grupo_87832" data-name="Grupo 87832" transform="translate(216.419 113.97)" style="mix-blend-mode: multiply;isolation: isolate">
              <g id="Grupo_87831" data-name="Grupo 87831">
                <g id="Grupo_87830" data-name="Grupo 87830" clip-path="url(#clip-path-6)">
                  <path id="Trazado_117255" data-name="Trazado 117255" d="M291.805,175.394V50.809c0-4.644-3.769-6.755-8.416-6.755H92.066c-4.646,0-8.411,2.111-8.411,6.755V175.394Z" transform="translate(-83.653 -44.054)" fill="#e6e7e8"/>
                </g>
              </g>
            </g>
            <rect id="Rectángulo_36363" data-name="Rectángulo 36363" width="198.247" height="118.754" transform="translate(221.37 120.311)" fill="#fff"/>
            <rect id="Rectángulo_36364" data-name="Rectángulo 36364" width="198.247" height="11" transform="translate(221.37 120.311)" fill="#fff"/>
            <g id="Grupo_87838" data-name="Grupo 87838" transform="translate(207.186 128.119)" style="mix-blend-mode: multiply;isolation: isolate">
              <g id="Grupo_87837" data-name="Grupo 87837">
                <g id="Grupo_87836" data-name="Grupo 87836" clip-path="url(#clip-path-7)">
                  <rect id="Rectángulo_36365" data-name="Rectángulo 36365" width="161.914" height="119.026" transform="translate(0.001 0.001)" fill="#41f0f9"/>
                  <g id="Grupo_87835" data-name="Grupo 87835" style="mix-blend-mode: multiply;isolation: isolate">
                    <g id="Grupo_87834" data-name="Grupo 87834">
                      <g id="Grupo_87833" data-name="Grupo 87833" clip-path="url(#clip-path-8)">
                        <rect id="Rectángulo_36366" data-name="Rectángulo 36366" width="161.914" height="6.843" transform="translate(0.001 0.001)" fill="#d1d3d4"/>
                      </g>
                    </g>
                  </g>
                  <path id="Trazado_117256" data-name="Trazado 117256" d="M86.587,52.156a2.13,2.13,0,1,1-2.127-2.134,2.128,2.128,0,0,1,2.127,2.134" transform="translate(-76.53 -48.731)" fill="#fc5e5e"/>
                  <path id="Trazado_117257" data-name="Trazado 117257" d="M88.9,52.156a2.132,2.132,0,1,1-2.127-2.134A2.127,2.127,0,0,1,88.9,52.156" transform="translate(-72.857 -48.731)" fill="#f99c1d"/>
                  <path id="Trazado_117258" data-name="Trazado 117258" d="M91.218,52.156a2.13,2.13,0,1,1-2.132-2.134,2.131,2.131,0,0,1,2.132,2.134" transform="translate(-69.18 -48.731)" fill="#00a2b1"/>
                  <rect id="Rectángulo_36368" data-name="Rectángulo 36368" width="34.91" height="2.191" transform="translate(12.875 25.524)" fill="#fff"/>
                  <rect id="Rectángulo_36369" data-name="Rectángulo 36369" width="19.949" height="2.191" transform="translate(12.875 34.434)" fill="#fff"/>
                  <rect id="Rectángulo_36370" data-name="Rectángulo 36370" width="8.91" height="2.191" transform="translate(37.095 34.434)" fill="#fff"/>
                  <rect id="Rectángulo_36371" data-name="Rectángulo 36371" width="51.651" height="2.189" transform="translate(12.877 42.987)" fill="#fff"/>
                  <rect id="Rectángulo_36372" data-name="Rectángulo 36372" width="23.871" height="2.189" transform="translate(70.225 42.987)" fill="#fff"/>
                  <rect id="Rectángulo_36373" data-name="Rectángulo 36373" width="27.788" height="2.189" transform="translate(18.217 50.469)" fill="#fff"/>
                  <rect id="Rectángulo_36374" data-name="Rectángulo 36374" width="8.907" height="2.189" transform="translate(50.635 50.469)" fill="#fff"/>
                  <rect id="Rectángulo_36375" data-name="Rectángulo 36375" width="34.91" height="2.189" transform="translate(66.667 50.469)" fill="#fff"/>
                  <rect id="Rectángulo_36376" data-name="Rectángulo 36376" width="17.455" height="2.189" transform="translate(12.875 59.374)" fill="#fff"/>
                  <rect id="Rectángulo_36377" data-name="Rectángulo 36377" width="8.193" height="2.189" transform="translate(34.603 59.374)" fill="#fff"/>
                  <rect id="Rectángulo_36378" data-name="Rectángulo 36378" width="52.373" height="2.189" transform="translate(49.205 59.374)" fill="#fff"/>
                  <rect id="Rectángulo_36379" data-name="Rectángulo 36379" width="8.729" height="2.196" transform="translate(12.875 66.848)" fill="#fff"/>
                  <rect id="Rectángulo_36380" data-name="Rectángulo 36380" width="32.77" height="2.196" transform="translate(26.772 66.848)" fill="#fff"/>
                  <rect id="Rectángulo_36381" data-name="Rectángulo 36381" width="42.744" height="2.196" transform="translate(66.667 66.848)" fill="#fff"/>
                  <rect id="Rectángulo_36382" data-name="Rectángulo 36382" width="34.91" height="2.194" transform="translate(12.875 75.758)" fill="#fff"/>
                  <rect id="Rectángulo_36383" data-name="Rectángulo 36383" width="50.758" height="2.194" transform="translate(55.09 75.758)" fill="#fff"/>
                </g>
              </g>
            </g>
            <g id="Grupo_87844" data-name="Grupo 87844" transform="translate(360.777 138.05)" style="mix-blend-mode: multiply;isolation: isolate">
              <g id="Grupo_87843" data-name="Grupo 87843">
                <g id="Grupo_87842" data-name="Grupo 87842" clip-path="url(#clip-path-9)">
                  <rect id="Rectángulo_36385" data-name="Rectángulo 36385" width="72.632" height="110.018" transform="translate(0 0.001)" fill="#2bc6fc"/>
                  <g id="Grupo_87841" data-name="Grupo 87841" style="mix-blend-mode: multiply;isolation: isolate">
                    <g id="Grupo_87840" data-name="Grupo 87840">
                      <g id="Grupo_87839" data-name="Grupo 87839" clip-path="url(#clip-path-10)">
                        <rect id="Rectángulo_36386" data-name="Rectángulo 36386" width="72.632" height="7.88" transform="translate(0 0.001)" fill="#d1d3d4"/>
                      </g>
                    </g>
                  </g>
                  <path id="Trazado_117259" data-name="Trazado 117259" d="M148.375,56.389a2.447,2.447,0,1,1-2.455-2.45,2.452,2.452,0,0,1,2.455,2.45" transform="translate(-133.064 -52.446)" fill="#f99c1d"/>
                  <path id="Trazado_117260" data-name="Trazado 117260" d="M151.042,56.389a2.451,2.451,0,1,1-2.447-2.45,2.446,2.446,0,0,1,2.447,2.45" transform="translate(-128.843 -52.446)" fill="#00a2b1"/>
                  <path id="Trazado_117261" data-name="Trazado 117261" d="M145.654,56.389a2.451,2.451,0,1,1-2.447-2.45,2.451,2.451,0,0,1,2.447,2.45" transform="translate(-137.394 -52.446)" fill="#fc5e5e"/>
                  <rect id="Rectángulo_36388" data-name="Rectángulo 36388" width="3.829" height="2.522" transform="translate(15.287 21.033)" fill="#fff"/>
                  <rect id="Rectángulo_36389" data-name="Rectángulo 36389" width="3.829" height="2.522" transform="translate(15.287 27.783)" fill="#fff"/>
                  <rect id="Rectángulo_36390" data-name="Rectángulo 36390" width="3.829" height="2.522" transform="translate(15.287 33.638)" fill="#fff"/>
                  <rect id="Rectángulo_36391" data-name="Rectángulo 36391" width="3.829" height="2.522" transform="translate(15.287 60.227)" fill="#fff"/>
                  <rect id="Rectángulo_36392" data-name="Rectángulo 36392" width="3.829" height="2.517" transform="translate(15.287 80.647)" fill="#fff"/>
                  <rect id="Rectángulo_36393" data-name="Rectángulo 36393" width="3.834" height="2.517" transform="translate(23.946 40.498)" fill="#fff"/>
                  <rect id="Rectángulo_36394" data-name="Rectángulo 36394" width="3.834" height="2.517" transform="translate(23.946 47.248)" fill="#fff"/>
                  <rect id="Rectángulo_36395" data-name="Rectángulo 36395" width="3.826" height="2.517" transform="translate(20.215 67.494)" fill="#fff"/>
                  <rect id="Rectángulo_36396" data-name="Rectángulo 36396" width="3.826" height="2.522" transform="translate(20.215 73.978)" fill="#fff"/>
                  <rect id="Rectángulo_36397" data-name="Rectángulo 36397" width="3.834" height="2.517" transform="translate(23.946 54.43)" fill="#fff"/>
                  <rect id="Rectángulo_36398" data-name="Rectángulo 36398" width="14.035" height="2.522" transform="translate(22.952 21.033)" fill="#fff"/>
                  <rect id="Rectángulo_36399" data-name="Rectángulo 36399" width="20.588" height="2.522" transform="translate(22.95 27.097)" fill="#fff"/>
                  <rect id="Rectángulo_36400" data-name="Rectángulo 36400" width="27.115" height="2.522" transform="translate(22.952 60.227)" fill="#fff"/>
                  <rect id="Rectángulo_36401" data-name="Rectángulo 36401" width="20.937" height="2.522" transform="translate(22.132 33.638)" fill="#fff"/>
                  <rect id="Rectángulo_36402" data-name="Rectángulo 36402" width="20.937" height="2.517" transform="translate(22.132 80.647)" fill="#fff"/>
                  <rect id="Rectángulo_36403" data-name="Rectángulo 36403" width="18.371" height="2.517" transform="translate(29.974 40.498)" fill="#fff"/>
                  <rect id="Rectángulo_36404" data-name="Rectángulo 36404" width="18.371" height="2.517" transform="translate(29.974 47.68)" fill="#fff"/>
                  <rect id="Rectángulo_36405" data-name="Rectángulo 36405" width="18.371" height="2.517" transform="translate(29.974 54.43)" fill="#fff"/>
                  <rect id="Rectángulo_36406" data-name="Rectángulo 36406" width="18.371" height="2.517" transform="translate(29.974 67.494)" fill="#fff"/>
                  <rect id="Rectángulo_36407" data-name="Rectángulo 36407" width="18.371" height="2.522" transform="translate(29.974 73.978)" fill="#fff"/>
                </g>
              </g>
            </g>
            <rect id="Rectángulo_36409" data-name="Rectángulo 36409" width="391.043" height="14.381" transform="translate(135.019 282.699)" fill="#fff"/>
            <g id="Grupo_87847" data-name="Grupo 87847" transform="translate(143.524 296.905)" style="mix-blend-mode: multiply;isolation: isolate">
              <g id="Grupo_87846" data-name="Grupo 87846">
                <g id="Grupo_87845" data-name="Grupo 87845" clip-path="url(#clip-path-11)">
                  <rect id="Rectángulo_36410" data-name="Rectángulo 36410" width="373.764" height="0.22" transform="translate(0.001 4.602)" fill="#fff"/>
                  <rect id="Rectángulo_36411" data-name="Rectángulo 36411" width="373.764" height="0.22" transform="translate(0.001 4.382)" fill="#fefefe"/>
                  <path id="Trazado_117262" data-name="Trazado 117262" d="M55.478,116.373H429.241l-4.677.223H55.478Z" transform="translate(-55.478 -112.214)" fill="#fdfdfd"/>
                  <rect id="Rectángulo_36412" data-name="Rectángulo 36412" width="373.764" height="0.217" transform="translate(0.001 3.942)" fill="#fcfcfc"/>
                  <rect id="Rectángulo_36413" data-name="Rectángulo 36413" width="373.764" height="0.225" transform="translate(0.001 3.717)" fill="#fbfbfb"/>
                  <rect id="Rectángulo_36414" data-name="Rectángulo 36414" width="373.764" height="0.215" transform="translate(0.001 3.502)" fill="#fafafa"/>
                  <rect id="Rectángulo_36415" data-name="Rectángulo 36415" width="373.764" height="0.22" transform="translate(0.001 3.282)" fill="#f9f9f9"/>
                  <rect id="Rectángulo_36416" data-name="Rectángulo 36416" width="373.764" height="0.222" transform="translate(0.001 3.06)" fill="#f7f7f7"/>
                  <rect id="Rectángulo_36417" data-name="Rectángulo 36417" width="373.764" height="0.22" transform="translate(0.001 2.84)" fill="#f6f6f6"/>
                  <rect id="Rectángulo_36418" data-name="Rectángulo 36418" width="373.764" height="0.222" transform="translate(0.001 2.617)" fill="#f5f5f5"/>
                  <rect id="Rectángulo_36419" data-name="Rectángulo 36419" width="373.764" height="0.217" transform="translate(0.001 2.4)" fill="#f4f4f4"/>
                  <rect id="Rectángulo_36420" data-name="Rectángulo 36420" width="373.764" height="0.222" transform="translate(0.001 2.178)" fill="#f3f3f3"/>
                  <rect id="Rectángulo_36421" data-name="Rectángulo 36421" width="373.764" height="0.222" transform="translate(0.001 1.955)" fill="#f2f2f2"/>
                  <rect id="Rectángulo_36422" data-name="Rectángulo 36422" width="373.764" height="0.16" transform="translate(0.001 1.795)" fill="#f2f2f2"/>
                  <rect id="Rectángulo_36423" data-name="Rectángulo 36423" width="373.764" height="0.163" transform="translate(0.001 1.629)" fill="#f1f1f1"/>
                  <rect id="Rectángulo_36424" data-name="Rectángulo 36424" width="373.764" height="0.16" transform="translate(0.001 1.469)" fill="#f0f0f0"/>
                  <rect id="Rectángulo_36425" data-name="Rectángulo 36425" width="373.764" height="0.166" transform="translate(0.001 1.301)" fill="#efefef"/>
                  <rect id="Rectángulo_36426" data-name="Rectángulo 36426" width="373.764" height="0.158" transform="translate(0.001 1.143)" fill="#eee"/>
                  <rect id="Rectángulo_36427" data-name="Rectángulo 36427" width="373.764" height="0.163" transform="translate(0.001 0.977)" fill="#ededed"/>
                  <rect id="Rectángulo_36428" data-name="Rectángulo 36428" width="373.764" height="0.16" transform="translate(0.001 0.817)" fill="#ebeced"/>
                  <rect id="Rectángulo_36429" data-name="Rectángulo 36429" width="373.764" height="0.16" transform="translate(0.001 0.654)" fill="#eaebec"/>
                  <rect id="Rectángulo_36430" data-name="Rectángulo 36430" width="373.764" height="0.16" transform="translate(0.001 0.493)" fill="#e9eaeb"/>
                  <rect id="Rectángulo_36431" data-name="Rectángulo 36431" width="373.764" height="0.166" transform="translate(0.001 0.325)" fill="#e8e9ea"/>
                  <rect id="Rectángulo_36432" data-name="Rectángulo 36432" width="373.764" height="0.163" transform="translate(0.001 0.162)" fill="#e7e8e9"/>
                  <rect id="Rectángulo_36433" data-name="Rectángulo 36433" width="373.764" height="0.16" transform="translate(0.001 -0.001)" fill="#e6e7e8"/>
                  <path id="Trazado_117263" data-name="Trazado 117263" d="M424.563,114.765h0Z" transform="translate(-55.479 -114.766)" fill="#e6e7e8"/>
                </g>
              </g>
            </g>
            <rect id="Rectángulo_36435" data-name="Rectángulo 36435" width="11.109" height="40.133" transform="translate(135.019 283.747)" fill="#fff"/>
            <rect id="Rectángulo_36436" data-name="Rectángulo 36436" width="11.111" height="40.231" transform="translate(514.95 283.747)" fill="#fff"/>
            <g id="Grupo_87850" data-name="Grupo 87850" transform="translate(186.668 200.76)" opacity="0.3" style="mix-blend-mode: multiply;isolation: isolate">
              <g id="Grupo_87849" data-name="Grupo 87849">
                <g id="Grupo_87848" data-name="Grupo 87848" clip-path="url(#clip-path-12)">
                  <path id="Trazado_117264" data-name="Trazado 117264" d="M83.136,77.6,72.154,93.051l24.97,66.933,97.944-.442Z" transform="translate(-72.155 -77.601)" fill="#d1d3d4"/>
                </g>
              </g>
            </g>
            <path id="Trazado_117265" data-name="Trazado 117265" d="M82.695,84.024a5.277,5.277,0,1,1-5.272-5.552,5.418,5.418,0,0,1,5.272,5.552" transform="translate(114.515 124.54)" fill="#f6e19c"/>
            <path id="Trazado_117266" data-name="Trazado 117266" d="M66.961,161.278l.861-.22-11.7-45.644L85.386,73.38l-.727-.507-29.5,42.368Z" transform="translate(87.549 115.655)" fill="#f1f2f2"/>
            <path id="Trazado_117267" data-name="Trazado 117267" d="M68.475,160.918l.861-.22L57.645,115.055,86.5,73.607l-.73-.507L56.683,114.881Z" transform="translate(89.959 116.015)" fill="#f1f2f2"/>
            <path id="Trazado_117268" data-name="Trazado 117268" d="M71.759,72.978l28.82.1L72.561,112.511,66.484,80.734Z" transform="translate(105.515 115.821)" fill="#a7a9ac"/>
            <path id="Trazado_117269" data-name="Trazado 117269" d="M74.394,73.828l-5.65,8.493-3.6-5.084,2.905-4.807Z" transform="translate(103.386 114.952)" fill="#f1f2f2"/>
            <path id="Trazado_117270" data-name="Trazado 117270" d="M66.432,106.175H74.84L88.97,114.3H53.437Z" transform="translate(84.808 168.507)" fill="#a7a9ac"/>
            <rect id="Rectángulo_36438" data-name="Rectángulo 36438" width="7.386" height="3.837" transform="translate(151.848 270.845)" fill="#f1f2f2"/>
            <path id="Trazado_117271" data-name="Trazado 117271" d="M62.468,91.461a3.827,3.827,0,1,1-3.824-4.031,3.929,3.929,0,0,1,3.824,4.031" transform="translate(87.012 138.757)" fill="#f1f2f2"/>
            <rect id="Rectángulo_36439" data-name="Rectángulo 36439" width="64.364" height="7.942" transform="translate(451.601 247.497)" fill="#89b414"/>
            <rect id="Rectángulo_36440" data-name="Rectángulo 36440" width="59.795" height="3.079" transform="translate(451.601 250.011)" fill="#f1f2f2"/>
            <rect id="Rectángulo_36441" data-name="Rectángulo 36441" width="72.764" height="14.358" transform="translate(448.08 268.193)" fill="#eda11b"/>
            <rect id="Rectángulo_36442" data-name="Rectángulo 36442" width="65.849" height="5.469" transform="translate(454.992 273.246)" fill="#fff"/>
            <rect id="Rectángulo_36443" data-name="Rectángulo 36443" width="60.527" height="8.276" transform="translate(455.621 259.917)" fill="#fc5e5e"/>
            <rect id="Rectángulo_36444" data-name="Rectángulo 36444" width="58.721" height="5.65" transform="translate(457.424 261.084)" fill="#fff"/>
            <rect id="Rectángulo_36445" data-name="Rectángulo 36445" width="72.756" height="4.282" transform="translate(447.8 255.636)" fill="#00a2b1"/>
            <rect id="Rectángulo_36446" data-name="Rectángulo 36446" width="70.728" height="1.237" transform="translate(449.829 257.025)" fill="#fff"/>
            <path id="Trazado_117272" data-name="Trazado 117272" d="M172.539,70.36c-.869-1.537-2.921,1.7-3.919,4.274-.523-.911-2.592-13.4-2.874-18.821-5.7-6.16-13.034-6.949-22.257-6.949-10.115,0-21.405,1.547-27.247,6.558-.326,6.654-1,18.063-.991,18.686-.993-2.476-2.732-5.228-3.573-3.749-1.472,2.561-3.493,6.03-1.154,10.762s3.073,6.8,4.69,5.019a3.282,3.282,0,0,0,.624-1.268s4.76,12.364,7.787,15.908c2.036,2.383,8.354,7.184,8.354,7.184.543,5.6.828,12.9.3,14.537-1.12,3.451-9.474,21.465-9.474,21.465,35.57,1.009,35.639.176,39.786,1.568,3.715,1.242-8.941-18.937-10.234-22.068-.678-1.645-.818-10.058-.642-16.063,0,0,5.746-5.585,7.828-8.066,2.561-3.061,8.545-13.179,8.545-13.179.122-.323.261-.616.383-.947a2.684,2.684,0,0,0,.512.929c1.625,1.785,2.346-.277,4.7-5.019s.331-8.2-1.143-10.762" transform="translate(173.716 77.55)" fill="#ffb288"/>
            <path id="Trazado_117273" data-name="Trazado 117273" d="M84.221,125.822s-6.015,8.625,2.315,16.073c4.266,3.816,11.166.634,11.166.634l26.812-27.751L112.428,89Z" transform="translate(130.332 141.246)" fill="#ffb288"/>
            <path id="Trazado_117274" data-name="Trazado 117274" d="M117.866,103.625l-1.371-34.418,28.582.326,1.094,34.092Z" transform="translate(184.885 109.836)" fill="#ffb288"/>
            <path id="Trazado_117275" data-name="Trazado 117275" d="M186.12,125.822s6.012,8.625-2.315,16.073c-4.274,3.816-11.166.634-11.166.634l-26.818-27.751L157.905,89Z" transform="translate(231.428 141.246)" fill="#ffb288"/>
            <path id="Trazado_117276" data-name="Trazado 117276" d="M251.5,117.243,210.865,76.905,185.4,73.6s-10.092,2.378-14.873,2.378c-4.8,0-13.248-2.378-13.248-2.378l-25.441,3.306L91.18,117.243l16.938,27.149,13.737-12.141-9.986,74.831s40.275-.334,58.481.07v.021c.316,0,.655-.01.986-.01s.66.008.978.01v-.021c18.226-.4,55.18.021,55.18.021l-6.659-74.921,13.732,12.141Z" transform="translate(144.709 116.806)" fill="#fc5e5e"/>
            <rect id="Rectángulo_36447" data-name="Rectángulo 36447" width="46.748" height="19.245" transform="translate(222.338 265.78)" fill="#ffb288"/>
            <rect id="Rectángulo_36448" data-name="Rectángulo 36448" width="46.743" height="19.245" transform="translate(360.883 265.78)" fill="#ffb288"/>
            <path id="Trazado_117277" data-name="Trazado 117277" d="M168.65,62.747c-.67-4.61-1.182-9.52-4.732-12.734s-8.812-6.069-12.651-6.367-9.024-.492-9.024-.492-.383-.913.859-2.018c1.257-1.1-.373-1.6-3.257,0s-6.716,3.606-6.716,3.606-2.111,1.609-1.728.305,3.169-4.928,3.169-4.928-14.149,5.829-18.04,10.141c-9.316,10.325-5.823,27.369-3.407,34.793,0,0,.217,5.275.279,7.042.057,1.679.9,6.659.9,6.659s4.76,12.361,7.787,15.905c1.855,2.168,5.12,5.655,7.347,6.75,2.31,1.131,7.6,1.669,10.134,1.656,2.654-.016,8.24-.492,10.615-1.78,2.458-1.325,5.743-5.585,7.826-8.066,2.561-3.061,8.545-13.179,8.545-13.179s.74-5.523.722-7.378c-.013-1.555.22-6.178.22-6.178.352-.7,2.636-13.758,1.156-23.739" transform="translate(175.256 63.667)" fill="#231f20"/>
            <path id="Trazado_117278" data-name="Trazado 117278" d="M220.872,181.742c-1.012-13.062-5.218-55.8-5.218-55.8,0-20.06-10.009-36.322-22.35-36.322H126.62c-12.348,0-22.368,16.262-22.368,36.322,0,0-5.562,42.736-6.975,55.8Z" transform="translate(154.387 142.236)" fill="#939598"/>
            <path id="Trazado_117279" data-name="Trazado 117279" d="M139.19,109.869c2.973,0,5.386,2.872,5.386,6.421V122.5c0,3.547-2.414,6.426-5.386,6.426H122c-2.962,0-5.379-2.879-5.379-6.426V116.29c0-3.549,2.416-6.421,5.379-6.421Z" transform="translate(185.08 174.369)" fill="#414042"/>
            <path id="Trazado_117280" data-name="Trazado 117280" d="M127.116,139.98V120.4c0-2.473-1.431-4.468-3.2-4.468s-3.192,1.995-3.192,4.468V139.98Z" transform="translate(191.595 183.998)" fill="#414042"/>
            <g id="Grupo_87853" data-name="Grupo 87853" transform="translate(536.389 10.682)" opacity="0.4">
              <g id="Grupo_87852" data-name="Grupo 87852">
                <g id="Grupo_87851" data-name="Grupo 87851" clip-path="url(#clip-path-13)">
                  <path id="Trazado_117281" data-name="Trazado 117281" d="M240.186,97.435c-4.589,9.753-16.211,9.469-18.648,9.469a80.087,80.087,0,0,1-14.2-1.291l.145-12.2a44.207,44.207,0,0,0,12.48,2.01c4.015,0,7.461-.719,8.607-5.021.572-1.865.717-6.887.717-12.483V4.906h13.341V75.2c0,11.334,0,17.214-2.44,22.236" transform="translate(-207.335 -2.896)" fill="#fff"/>
                  <path id="Trazado_117282" data-name="Trazado 117282" d="M253.028,107.7a22.215,22.215,0,0,1-8.894,1.578c-8.178,0-12.622-3.443-14.775-6.025-4.16-4.734-4.447-10.185-4.447-16.066V70.406h12.335V88.911c0,4.879.719,7.029,2.872,8.465a6.434,6.434,0,0,0,4.015,1.291c6.6-.145,6.457-7.316,6.457-11.908,0-7.316-1.149-11.331-4.879-17.644-3.731-6.6-8.32-12.48-12.193-18.935-2.152-3.443-7.746-12.053-7.746-23.814,0-11.192,4.877-17.072,9.037-19.509,2.152-1.291,5.738-2.727,11.476-2.727,2.724,0,12.912-.145,16.068,9.753a22.367,22.367,0,0,1,1,7.6V39.418H251.163V21.487c-.142-1.146.29-6.884-5.306-6.884-6.457,0-6.6,5.593-6.6,10.328,0,8.465,2.295,13.2,6.742,20.228,1.865,3.011,3.873,5.88,5.883,8.894,1.576,2.15,3.011,4.3,4.445,6.6,7.029,11.044,7.891,18.648,7.891,24.528,0,2.152.145,17.359-11.189,22.523" transform="translate(-179.439 -4.128)" fill="#fff"/>
                </g>
              </g>
            </g>
            <g id="Grupo_87856" data-name="Grupo 87856" transform="translate(294.806)" opacity="0.4">
              <g id="Grupo_87855" data-name="Grupo 87855">
                <g id="Grupo_87854" data-name="Grupo 87854" clip-path="url(#clip-path-14)">
                  <path id="Trazado_117283" data-name="Trazado 117283" d="M130.376,64.769V34.679h-7.891v30.09h-8.532V0h8.532V26.33h7.891V0h8.532v64.77Z" transform="translate(-113.955 -0.001)" fill="#fff"/>
                  <path id="Trazado_117284" data-name="Trazado 117284" d="M144.049,7.614V64.767h-8.716V7.614h-9.818V0h28.623V7.614Z" transform="translate(-95.606 0)" fill="#fff"/>
                  <path id="Trazado_117285" data-name="Trazado 117285" d="M168.425,64.769V12.66l-7.43,52.109h-7.249l-7.34-52.109V64.769h-7.981V0h12.2l6.97,43.028L163.745,0h12.571v64.77Z" transform="translate(-75.117 -0.001)" fill="#fff"/>
                  <path id="Trazado_117286" data-name="Trazado 117286" d="M156.195,64.769V0h8.532V56.788h14.131v7.981Z" transform="translate(-46.915 -0.001)" fill="#fff"/>
                </g>
              </g>
            </g>
            <g id="Grupo_87859" data-name="Grupo 87859" transform="translate(0 140.907)" opacity="0.4">
              <g id="Grupo_87858" data-name="Grupo 87858">
                <g id="Grupo_87857" data-name="Grupo 87857" clip-path="url(#clip-path-15)">
                  <path id="Trazado_117287" data-name="Trazado 117287" d="M35.117,138.18c-2.147,3.159-6.7,7.831-16.169,7.831-9.1,0-13.642-4.168-15.791-7.327C0,134.139,0,128.58,0,123.4V80.326c0-2.02.127-4.044.251-6.064.254-3.41.885-14.653,12.255-18.316a20.916,20.916,0,0,1,7.453-1.138c6.569,0,10.105,2.023,12.379,3.917a13.773,13.773,0,0,1,4.168,5.56c1.77,4.041,1.9,8.085,1.9,12.379V88.03H26.528V74.262c0-1.894.631-9.22-7.2-9.22a7.165,7.165,0,0,0-4.8,1.513c-2.905,2.528-2.652,6.318-2.652,9.727v49.265A24.742,24.742,0,0,0,12,128.58c.127,2.4.507,7.2,7.076,7.2a6.854,6.854,0,0,0,4.548-1.263c3.032-2.147,2.905-5.937,2.905-9.22V107.989H38.4v16.674c0,4.928-.38,9.223-3.286,13.517" transform="translate(0 -53.925)" fill="#fff"/>
                  <path id="Trazado_117288" data-name="Trazado 117288" d="M42.677,145.67a19.566,19.566,0,0,1-7.831,1.389c-7.2,0-11.117-3.032-13.013-5.306-3.663-4.168-3.914-8.967-3.914-14.146v-14.78H28.782v16.3c0,4.295.631,6.188,2.525,7.451a5.67,5.67,0,0,0,3.539,1.138c5.811-.127,5.684-6.442,5.684-10.485,0-6.442-1.012-9.978-4.295-15.538C32.95,105.879,28.909,100.7,25.5,95.016c-1.894-3.032-6.82-10.612-6.82-20.971,0-9.852,4.295-15.031,7.958-17.178,1.894-1.138,5.053-2.4,10.105-2.4,2.4,0,11.37-.127,14.149,8.589a19.649,19.649,0,0,1,.885,6.7V85.542H41.034V69.75c-.127-1.009.254-6.062-4.672-6.062-5.686,0-5.811,4.926-5.811,9.094,0,7.453,2.021,11.621,5.935,17.812,1.643,2.652,3.412,5.179,5.179,7.831,1.389,1.9,2.654,3.79,3.917,5.811,6.191,9.727,6.949,16.423,6.949,21.6,0,1.894.124,15.284-9.854,19.832" transform="translate(28.439 -54.466)" fill="#fff"/>
                  <path id="Trazado_117289" data-name="Trazado 117289" d="M58.936,145.67a19.566,19.566,0,0,1-7.831,1.389c-7.2,0-11.117-3.032-13.013-5.306-3.663-4.168-3.914-8.967-3.914-14.146v-14.78H45.041v16.3c0,4.295.631,6.188,2.525,7.451a5.67,5.67,0,0,0,3.539,1.138c5.811-.127,5.684-6.442,5.684-10.485,0-6.442-1.012-9.978-4.295-15.538-3.286-5.811-7.327-10.99-10.739-16.674-1.894-3.032-6.82-10.612-6.82-20.971,0-9.852,4.295-15.031,7.958-17.178,1.894-1.138,5.053-2.4,10.105-2.4,2.4,0,11.37-.127,14.149,8.589a19.649,19.649,0,0,1,.885,6.7V85.542H57.293V69.75c-.127-1.009.254-6.062-4.672-6.062-5.686,0-5.811,4.926-5.811,9.094,0,7.453,2.02,11.621,5.935,17.812,1.643,2.652,3.412,5.179,5.179,7.831,1.389,1.9,2.654,3.79,3.917,5.811,6.191,9.727,6.949,16.423,6.949,21.6,0,1.894.124,15.284-9.854,19.832" transform="translate(54.243 -54.466)" fill="#fff"/>
                </g>
              </g>
            </g>
            <path id="Trazado_117290" data-name="Trazado 117290" d="M320.682,82.083C277.84,39.831,218.255,12.876,152.9,6.194l-.08.714c134.985,13.8,235.141,112.558,228.021,224.819l.908.057c3.449-54.3-18.252-107.459-61.068-149.7" transform="translate(242.535 9.83)" fill="#fff"/>
            <path id="Trazado_117291" data-name="Trazado 117291" d="M380.762,231.849c7.107-112.144-92.945-210.8-227.791-224.6l-.259-.023.137-1.128.248.031C218.517,12.826,278.164,39.806,321.052,82.1c42.87,42.278,64.576,95.491,61.125,149.843l-.01.2-1.42-.093Zm-60.11-149.5C277.918,40.194,218.491,13.286,153.3,6.562l-.028.31c134.91,13.905,235,112.6,228.011,224.813l.393.026c3.374-54.191-18.293-107.208-61.029-149.359" transform="translate(242.364 9.684)" fill="#fff"/>
            <path id="Trazado_117292" data-name="Trazado 117292" d="M239.377,92.857l4.121,6.509,4.892-5.9Z" transform="translate(379.907 147.37)" fill="#fff"/>
            <path id="Trazado_117293" data-name="Trazado 117293" d="M239.21,92.767l9.9.665L243.74,99.91Zm.859.461,3.718,5.873,4.408-5.316Z" transform="translate(379.642 147.227)" fill="#fff"/>
            <path id="Trazado_117294" data-name="Trazado 117294" d="M151,8.46l4.921,4.934,1.094-8.68Z" transform="translate(239.651 7.481)" fill="#fff"/>
            <path id="Trazado_117295" data-name="Trazado 117295" d="M150.861,8.708l6.7-4.173-1.221,9.655Zm.727.075,4.364,4.375.973-7.7Z" transform="translate(239.426 7.197)" fill="#fff"/>
            <path id="Trazado_117296" data-name="Trazado 117296" d="M242.586,67.041a99.076,99.076,0,0,0-69.393-31.7l-.016.365c54.38,1.715,97.45,47.55,98.063,104.334l.365-.005a107.864,107.864,0,0,0-29.019-72.991" transform="translate(274.845 56.085)" fill="#fff"/>
            <path id="Trazado_117297" data-name="Trazado 117297" d="M271.1,140.673l1.138-.016-.005-.388a108.263,108.263,0,0,0-29.117-73.25A99.47,99.47,0,0,0,173.449,35.2l-.391-.01-.034,1.136.385.016c54.165,1.707,97.075,47.374,97.688,103.951Z" transform="translate(274.602 55.841)" fill="#fff"/>
            <path id="Trazado_117298" data-name="Trazado 117298" d="M210.434,75.635l1.85,3.123,1.775-3.164Z" transform="translate(333.973 119.972)" fill="#fff"/>
            <path id="Trazado_117299" data-name="Trazado 117299" d="M210.173,75.5l4.959-.057L212.7,79.77Zm1.35.763,1.164,1.958,1.115-1.989Z" transform="translate(333.558 119.731)" fill="#fff"/>
            <path id="Trazado_117300" data-name="Trazado 117300" d="M172.441,36.7l2.121,2.29.176-4.411Z" transform="translate(273.676 54.872)" fill="#fff"/>
            <path id="Trazado_117301" data-name="Trazado 117301" d="M172.23,37.242l3.267-3.024-.246,6.289Zm1.094.044,1.221,1.319.1-2.543Z" transform="translate(273.34 54.306)" fill="#fff"/>
            <path id="Trazado_117302" data-name="Trazado 117302" d="M204.087,70.4a41.163,41.163,0,0,0-28.8-13.153l-.005.155c22.559.714,40.436,19.724,40.687,43.292h.155A44.817,44.817,0,0,0,204.087,70.4" transform="translate(278.189 90.861)" fill="#fff"/>
            <path id="Trazado_117303" data-name="Trazado 117303" d="M215.831,101.334l.924-.008v-.391a45.153,45.153,0,0,0-12.144-30.553,41.548,41.548,0,0,0-29.063-13.277l-.393-.008-.023.929.38.008c22.363.7,40.071,19.556,40.314,42.909Z" transform="translate(277.944 90.618)" fill="#fff"/>
            <path id="Trazado_117304" data-name="Trazado 117304" d="M190.742,73.973l.768,1.291.74-1.306Z" transform="translate(302.72 117.376)" fill="#fff"/>
            <path id="Trazado_117305" data-name="Trazado 117305" d="M191.933,76.284l1.4-2.478-2.848.026Z" transform="translate(302.306 117.134)" fill="#fff"/>
            <path id="Trazado_117306" data-name="Trazado 117306" d="M174.98,57.819l.874.949.072-1.834Z" transform="translate(277.705 90.359)" fill="#fff"/>
            <path id="Trazado_117307" data-name="Trazado 117307" d="M176.551,60.282l.14-3.7-1.925,1.78Z" transform="translate(277.365 89.795)" fill="#fff"/>
            <path id="Trazado_117308" data-name="Trazado 117308" d="M72.046,81.083C114.89,38.831,174.473,11.876,239.828,5.194l.08.714C104.922,19.71,4.767,118.466,11.886,230.727l-.908.057c-3.449-54.3,18.252-107.459,61.068-149.7" transform="translate(16.858 8.243)" fill="#fff"/>
            <path id="Trazado_117309" data-name="Trazado 117309" d="M12.31,231.056l-1.42.093-.01-.2C7.428,176.6,29.137,123.383,72,81.1,114.89,38.806,174.54,11.826,239.959,5.133l.251-.031.135,1.128-.261.021C105.24,20.045,5.185,118.7,12.292,230.849Zm-.937-.344.393-.026C4.782,118.472,104.873,19.778,239.783,5.873l-.034-.31C174.563,12.286,115.138,39.194,72.4,81.353s-64.4,95.168-61.029,149.359" transform="translate(16.701 8.097)" fill="#fff"/>
            <path id="Trazado_117310" data-name="Trazado 117310" d="M18.225,91.857,14.1,98.366l-4.892-5.9Z" transform="translate(14.615 145.782)" fill="#fff"/>
            <path id="Trazado_117311" data-name="Trazado 117311" d="M14.4,98.908,9.032,92.433l9.9-.665ZM9.948,92.782,14.356,98.1l3.723-5.873Z" transform="translate(14.334 145.642)" fill="#fff"/>
            <path id="Trazado_117312" data-name="Trazado 117312" d="M104.76,7.46l-4.923,4.934-1.094-8.68Z" transform="translate(156.711 5.894)" fill="#fff"/>
            <path id="Trazado_117313" data-name="Trazado 117313" d="M99.839,13.187,98.62,3.535l6.7,4.173Zm-.585-8.734.973,7.7,4.364-4.377Z" transform="translate(156.516 5.61)" fill="#fff"/>
            <path id="Trazado_117314" data-name="Trazado 117314" d="M69.864,66.041a99.077,99.077,0,0,1,69.4-31.7l.013.365c-54.38,1.715-97.45,47.55-98.063,104.334l-.362-.005A107.849,107.849,0,0,1,69.864,66.041" transform="translate(64.827 54.498)" fill="#fff"/>
            <path id="Trazado_117315" data-name="Trazado 117315" d="M41.832,139.673l-1.138-.016.005-.388a108.265,108.265,0,0,1,29.12-73.25A99.455,99.455,0,0,1,139.489,34.2l.388-.01.034,1.136-.385.016C85.36,37.044,42.453,82.711,41.84,139.287Z" transform="translate(64.584 54.254)" fill="#fff"/>
            <path id="Trazado_117316" data-name="Trazado 117316" d="M43.857,74.635,42.01,77.758l-1.775-3.164Z" transform="translate(63.856 118.385)" fill="#fff"/>
            <path id="Trazado_117317" data-name="Trazado 117317" d="M42.411,78.772l-2.432-4.331,4.965.059Zm-1.1-3.539,1.115,1.989,1.164-1.958Z" transform="translate(63.449 118.143)" fill="#fff"/>
            <path id="Trazado_117318" data-name="Trazado 117318" d="M81.036,35.7l-2.121,2.29-.173-4.411Z" transform="translate(124.968 53.285)" fill="#fff"/>
            <path id="Trazado_117319" data-name="Trazado 117319" d="M78.823,39.507l-.246-6.289,3.267,3.024Zm.605-4.445.1,2.543,1.221-1.319Z" transform="translate(124.707 52.719)" fill="#fff"/>
            <path id="Trazado_117320" data-name="Trazado 117320" d="M73.038,69.4a41.173,41.173,0,0,1,28.8-13.153l.005.155C79.281,57.12,61.4,76.13,61.153,99.7H61A44.8,44.8,0,0,1,73.038,69.4" transform="translate(96.808 89.274)" fill="#fff"/>
            <path id="Trazado_117321" data-name="Trazado 117321" d="M61.777,100.334l-.929-.008v-.391A45.167,45.167,0,0,1,72.994,69.383,41.554,41.554,0,0,1,102.06,56.106l.391-.008.023.929-.38.008c-22.36.7-40.071,19.556-40.314,42.909Z" transform="translate(96.57 89.031)" fill="#fff"/>
            <path id="Trazado_117322" data-name="Trazado 117322" d="M62.252,72.973l-.766,1.291-.74-1.306Z" transform="translate(96.408 115.789)" fill="#fff"/>
            <path id="Trazado_117323" data-name="Trazado 117323" d="M61.886,75.284l-1.4-2.478,2.851.026Z" transform="translate(95.997 115.547)" fill="#fff"/>
            <path id="Trazado_117324" data-name="Trazado 117324" d="M77.673,56.819l-.877.949-.072-1.834Z" transform="translate(121.766 88.772)" fill="#fff"/>
            <path id="Trazado_117325" data-name="Trazado 117325" d="M76.7,59.282l-.142-3.7,1.927,1.78Z" transform="translate(121.506 88.208)" fill="#fff"/>
            <path id="Trazado_117326" data-name="Trazado 117326" d="M215.888,72.98a18.609,18.609,0,1,1-18.614-18.611A18.611,18.611,0,0,1,215.888,72.98" transform="translate(283.561 86.287)" fill="#fc5e5e"/>
            <path id="Trazado_117327" data-name="Trazado 117327" d="M185.469,62.783l-.072-.023a2.533,2.533,0,0,0-.768-.116,2.892,2.892,0,0,0-.9.163,2.561,2.561,0,0,0-.745.435l-.021-4.732h-1.384v15.3h1.387V65.178a1.255,1.255,0,0,1,.158-.417,1.518,1.518,0,0,1,1.278-.755,1.589,1.589,0,0,1,.4.054c.693.191.748.846.748,1.676v8.069h1.387V65.191a2.84,2.84,0,0,0-.116-.968,2.05,2.05,0,0,0-1.343-1.441" transform="translate(288.173 92.858)" fill="#fff"/>
            <path id="Trazado_117328" data-name="Trazado 117328" d="M190.334,59.1H188.95v2.727h-2.54V59.1h-1.384v2.727h-1.112V63.15h1.112v8.279a1.4,1.4,0,0,0,.308,1.017l.008.01a1.914,1.914,0,0,0,1.477.455c.29,0,.608-.018.96-.044l.228-.018V71.785l-.054-.256-.259.021c-.248.018-.479.036-.727.036-.463,0-.556-.145-.556-.367V63.15h2.54v8.279a1.4,1.4,0,0,0,.308,1.017l.008.01a1.914,1.914,0,0,0,1.477.455c.29,0,.608-.018.962-.044l.225-.018V71.785l-.054-.256-.261.021c-.246.018-.476.036-.724.036-.463,0-.556-.145-.556-.367V63.15h1.6V61.828h-1.6Z" transform="translate(291.882 93.797)" fill="#fff"/>
            <path id="Trazado_117329" data-name="Trazado 117329" d="M190.409,60.115a2.69,2.69,0,0,0-1.71.636v-.53h-1.387V74.68H188.7V70.766l.026.021a2.458,2.458,0,0,0,1.537.536,2.249,2.249,0,0,0,2.2-1.573,3.663,3.663,0,0,0,.181-1.1V63.455a3.374,3.374,0,0,0-.908-2.885,2.028,2.028,0,0,0-1.325-.455m.849,2.7v5.371c0,.587,0,1.317-.515,1.64a1.309,1.309,0,0,1-.649.173,1.487,1.487,0,0,1-1.226-.626,1.047,1.047,0,0,1-.168-.365l-.005-6.421a1.2,1.2,0,0,1,.163-.414,1.52,1.52,0,0,1,1.278-.755,1.056,1.056,0,0,1,1.063.856,4.353,4.353,0,0,1,.06.541" transform="translate(297.276 95.406)" fill="#fff"/>
            <rect id="Rectángulo_36452" data-name="Rectángulo 36452" width="1.407" height="2.372" transform="translate(492.373 164.292)" fill="#fff"/>
            <rect id="Rectángulo_36453" data-name="Rectángulo 36453" width="1.407" height="2.393" transform="translate(492.373 156.634)" fill="#fff"/>
            <path id="Trazado_117330" data-name="Trazado 117330" d="M53.736,51.26a19.6,19.6,0,1,0,19.6-19.594,19.6,19.6,0,0,0-19.6,19.594" transform="translate(85.283 50.256)" fill="#f99c1d"/>
            <path id="Trazado_117331" data-name="Trazado 117331" d="M60.65,52.568V43.524c0-.872-.023-1.914-1.066-2.2a2.042,2.042,0,0,0-.536-.075,2.013,2.013,0,0,0-1.72,1.019,1.665,1.665,0,0,0-.217.605v9.7H56.066V35.452h1.045l.023,5.867a2.909,2.909,0,0,1,1.237-.924,3.138,3.138,0,0,1,.944-.168,2.808,2.808,0,0,1,.874.145,2.093,2.093,0,0,1,1.381,1.48,3.063,3.063,0,0,1,.122,1.043v9.673Z" transform="translate(88.98 56.265)" fill="#fff"/>
            <path id="Trazado_117332" data-name="Trazado 117332" d="M62.142,53.019h-1.6V43.7c0-.96-.065-1.715-.864-1.938a1.984,1.984,0,0,0-.458-.062,1.768,1.768,0,0,0-1.477.872,1.5,1.5,0,0,0-.181.484v9.968h-1.6V35.344h1.6l.023,5.466a2.932,2.932,0,0,1,.861-.5,3.292,3.292,0,0,1,1.043-.189,2.881,2.881,0,0,1,.887.137l.085.026a2.366,2.366,0,0,1,1.552,1.663,3.342,3.342,0,0,1,.132,1.118ZM61.1,52.46h.484v-9.4a2.788,2.788,0,0,0-.109-.957,1.839,1.839,0,0,0-1.213-1.3,2.554,2.554,0,0,0-.776-.124,2.75,2.75,0,0,0-.851.153,2.52,2.52,0,0,0-1.068.784l-.538.6L57,35.9h-.486V52.46H57v-9.42a1.9,1.9,0,0,1,.256-.748,2.3,2.3,0,0,1,1.961-1.156,2.5,2.5,0,0,1,.621.085c1.26.352,1.26,1.63,1.26,2.473Z" transform="translate(88.811 56.093)" fill="#fff"/>
            <path id="Trazado_117333" data-name="Trazado 117333" d="M60.342,51.094a1.345,1.345,0,0,1-.29-.993V40.257H58.766v-.97h1.286V36.136h1.043v3.151h1.842v.97H61.094v9.6c0,.7.7.7.921.7.316,0,.608-.023.921-.049v.97c-1.332.1-2.132.1-2.595-.388" transform="translate(93.266 57.35)" fill="#fff"/>
            <path id="Trazado_117334" data-name="Trazado 117334" d="M62.019,51.984a2.206,2.206,0,0,1-1.707-.528l-.01-.01a1.616,1.616,0,0,1-.354-1.175V40.707H58.658V39.178h1.288V36.027h1.6v3.151h1.842v1.529H61.545v9.324c0,.254.109.424.644.424.285,0,.551-.023.838-.044l.3-.023.06.3v1.229l-.259.018c-.409.028-.776.052-1.11.052m-1.3-.905c.339.352.942.4,2.108.316v-.409c-.228.016-.429.026-.642.026-1.048,0-1.2-.616-1.2-.98V40.148h1.845v-.411H60.986V36.586H60.5v3.151H59.217v.411H60.5V50.271a1.074,1.074,0,0,0,.22.807" transform="translate(93.094 57.177)" fill="#fff"/>
            <path id="Trazado_117335" data-name="Trazado 117335" d="M62.1,51.094a1.345,1.345,0,0,1-.29-.993V40.257H60.518v-.97h1.288V36.136h1.04v3.151h1.845v.97H62.846v9.6c0,.7.7.7.924.7.316,0,.605-.023.921-.049v.97c-1.332.1-2.134.1-2.595-.388" transform="translate(96.046 57.35)" fill="#fff"/>
            <path id="Trazado_117336" data-name="Trazado 117336" d="M63.771,51.984a2.209,2.209,0,0,1-1.707-.528l-.008-.01a1.607,1.607,0,0,1-.357-1.175V40.707H60.41V39.178H61.7V36.027h1.6v3.151h1.845v1.529H63.3v9.324c0,.254.109.424.644.424.285,0,.554-.023.838-.044l.3-.023.062.3v1.229l-.261.018c-.409.028-.776.052-1.11.052m-1.3-.905c.341.352.942.4,2.108.316v-.409c-.228.016-.429.026-.642.026-1.045,0-1.2-.616-1.2-.98V40.148h1.842v-.411H62.741V36.586h-.484v3.151H60.969v.411h1.288V50.271a1.073,1.073,0,0,0,.217.807" transform="translate(95.875 57.177)" fill="#fff"/>
            <path id="Trazado_117337" data-name="Trazado 117337" d="M68.1,48.072a2.321,2.321,0,0,1-2.279,1.622,2.543,2.543,0,0,1-1.6-.556,2.014,2.014,0,0,1-.484-.51v4.946H62.694V37.426h1.043v1.068c.122-.145.217-.292.362-.437a2.838,2.838,0,0,1,1.894-.75,2.071,2.071,0,0,1,1.356.461c.97.776.947,2.059.947,3.2v5.919a4.031,4.031,0,0,1-.194,1.187m-.849-7.929a5.184,5.184,0,0,0-.072-.678,1.506,1.506,0,0,0-1.506-1.213,2.035,2.035,0,0,0-1.72,1.017,1.677,1.677,0,0,0-.217.559v7.515a1.516,1.516,0,0,0,.243.533,1.991,1.991,0,0,0,1.648.851,1.836,1.836,0,0,0,.9-.243c.727-.46.727-1.4.727-2.134Z" transform="translate(99.499 59.209)" fill="#fff"/>
            <path id="Trazado_117338" data-name="Trazado 117338" d="M64.187,54.028h-1.6V37.321h1.6v.613a3.107,3.107,0,0,1,1.977-.735,2.351,2.351,0,0,1,1.532.525c1.05.841,1.05,2.163,1.05,3.332v6a4.267,4.267,0,0,1-.21,1.275,2.6,2.6,0,0,1-2.543,1.816,2.838,2.838,0,0,1-1.775-.618l-.031-.023Zm-1.043-.559h.484V47.995l.5.636a1.942,1.942,0,0,0,.437.461,2.262,2.262,0,0,0,1.431.5,2.039,2.039,0,0,0,2.015-1.433,3.706,3.706,0,0,0,.179-1.1v-6c0-1.094,0-2.225-.841-2.9a1.834,1.834,0,0,0-1.182-.4,2.3,2.3,0,0,0-1.922.934l-.613.748v-1.56h-.484ZM65.8,49.177a2.3,2.3,0,0,1-1.878-.97,1.812,1.812,0,0,1-.279-.608l-.013-.083V40a1.968,1.968,0,0,1,.256-.7,2.3,2.3,0,0,1,1.956-1.154,1.791,1.791,0,0,1,1.78,1.423,5.416,5.416,0,0,1,.083.748v6.206a2.558,2.558,0,0,1-.859,2.37,2.109,2.109,0,0,1-1.045.285m-1.612-1.7a1.169,1.169,0,0,0,.194.422,1.726,1.726,0,0,0,1.418.724,1.526,1.526,0,0,0,.753-.2c.592-.375.592-1.216.592-1.894V40.316a5.164,5.164,0,0,0-.067-.626,1.218,1.218,0,0,0-1.231-.986,1.746,1.746,0,0,0-1.475.872,1.359,1.359,0,0,0-.189.479Z" transform="translate(99.328 59.037)" fill="#fff"/>
            <path id="Trazado_117339" data-name="Trazado 117339" d="M66.171,37.8h1.068V40.01H66.171Zm0,8.85h1.068v2.181H66.171Z" transform="translate(105.018 59.996)" fill="#fff"/>
            <path id="Trazado_117340" data-name="Trazado 117340" d="M67.689,49.285H66.062v-2.74h1.627Zm-1.066-.556h.51V47.1h-.51Zm1.066-8.268H66.062V37.695h1.627ZM66.623,39.9h.51V38.254h-.51Z" transform="translate(104.845 59.824)" fill="#fff"/>
            <path id="Trazado_117341" data-name="Trazado 117341" d="M201.708,69.759a16.729,16.729,0,1,0,16.731-16.731,16.727,16.727,0,0,0-16.731,16.731" transform="translate(320.124 84.159)" fill="#00a2b1"/>
            <path id="Trazado_117342" data-name="Trazado 117342" d="M202.867,63.422v-.986l7.821-4.271v1.074l-6.835,3.637,6.835,3.658v1.138Z" transform="translate(321.963 92.312)" fill="#fff"/>
            <path id="Trazado_117343" data-name="Trazado 117343" d="M208.144,71.973h-1.006l4.38-15.468h.988Z" transform="translate(328.741 89.676)" fill="#fff"/>
            <path id="Trazado_117344" data-name="Trazado 117344" d="M210.459,67.66V66.607l6.835-3.658-6.835-3.658V58.173l7.823,4.227v.988Z" transform="translate(334.012 92.324)" fill="#fff"/>
            <path id="Trazado_117345" data-name="Trazado 117345" d="M180.963,53.118a21.651,21.651,0,1,0,21.649-21.654,21.645,21.645,0,0,0-21.649,21.654" transform="translate(287.2 49.935)" fill="#f99c1d"/>
            <path id="Trazado_117346" data-name="Trazado 117346" d="M193.987,60.526c-1.3,2.758-4.584,2.678-5.275,2.678a22.674,22.674,0,0,1-4.02-.362l.044-3.451a12.508,12.508,0,0,0,3.529.567c1.138,0,2.111-.2,2.434-1.418a17.794,17.794,0,0,0,.2-3.531V34.353h3.775V54.235c0,3.208,0,4.871-.691,6.292" transform="translate(293.118 54.52)" fill="#fff"/>
            <path id="Trazado_117347" data-name="Trazado 117347" d="M197.617,63.433a6.3,6.3,0,0,1-2.517.448,5.177,5.177,0,0,1-4.178-1.7c-1.177-1.34-1.257-2.882-1.257-4.545V52.882h3.487v5.234c0,1.381.2,1.989.815,2.4a1.809,1.809,0,0,0,1.133.365c1.868-.041,1.826-2.07,1.826-3.368a8.392,8.392,0,0,0-1.379-4.993c-1.056-1.865-2.354-3.529-3.449-5.355a12.456,12.456,0,0,1-2.194-6.734c0-3.167,1.382-4.833,2.559-5.521a6.161,6.161,0,0,1,3.247-.771c.768,0,3.653-.041,4.543,2.758a6.22,6.22,0,0,1,.287,2.152v5.071h-3.451V39.044c-.041-.326.083-1.948-1.5-1.948-1.826,0-1.868,1.583-1.868,2.921a9.421,9.421,0,0,0,1.907,5.723c.528.851,1.1,1.663,1.666,2.517.445.608.851,1.219,1.257,1.865a12.022,12.022,0,0,1,2.233,6.939c0,.611.039,4.913-3.167,6.372" transform="translate(301.009 54.173)" fill="#fff"/>
            <path id="Trazado_117348" data-name="Trazado 117348" d="M93.753,43.155a24.3,24.3,0,1,0,24.3-24.3,24.3,24.3,0,0,0-24.3,24.3" transform="translate(148.792 29.927)" fill="#00a2b1"/>
            <path id="Trazado_117349" data-name="Trazado 117349" d="M102.073,43.786c-.993,2.111-3.505,2.046-4.033,2.046a17.481,17.481,0,0,1-3.073-.277L95,42.916a9.578,9.578,0,0,0,2.7.435c.869,0,1.614-.153,1.86-1.087a13.629,13.629,0,0,0,.155-2.7V23.772H102.6v15.2c0,2.45,0,3.723-.528,4.809" transform="translate(150.717 37.728)" fill="#fff"/>
            <path id="Trazado_117350" data-name="Trazado 117350" d="M105.624,45.678l-.556-4.033H101.78l-.5,4.033H98.458l3.1-21.907h3.505l3.381,21.907ZM103.3,27.59l-1.211,11.386h2.605Z" transform="translate(156.259 37.726)" fill="#fff"/>
            <path id="Trazado_117351" data-name="Trazado 117351" d="M109.219,45.679h-3.412l-3.353-21.907h2.887l2.233,17.564,2.142-17.564h2.854Z" transform="translate(162.601 37.727)" fill="#fff"/>
            <path id="Trazado_117352" data-name="Trazado 117352" d="M113.616,45.678l-.556-4.033h-3.288l-.5,4.033H106.45l3.1-21.907h3.505l3.381,21.907ZM111.29,27.59,110.08,38.975h2.605Z" transform="translate(168.943 37.726)" fill="#fff"/>
            <path id="Trazado_117353" data-name="Trazado 117353" d="M164.382,26.729a24.668,24.668,0,1,1-24.67-24.662,24.662,24.662,0,0,1,24.67,24.662" transform="translate(182.587 3.28)" fill="#fc5e5e"/>
            <path id="Trazado_117354" data-name="Trazado 117354" d="M121.98,27.593V18.052h-2.5v9.541h-2.706V7.054h2.706V15.4h2.5V7.054h2.706V27.593Z" transform="translate(185.326 11.196)" fill="#fff"/>
            <path id="Trazado_117355" data-name="Trazado 117355" d="M126.315,9.47V27.595h-2.763V9.47h-3.115V7.053h9.078V9.47Z" transform="translate(191.142 11.194)" fill="#fff"/>
            <path id="Trazado_117356" data-name="Trazado 117356" d="M134.043,27.593V11.067l-2.357,16.526h-2.3L127.06,11.067V27.593h-2.53V7.054H128.4L130.61,20.7,132.56,7.054h3.987V27.593Z" transform="translate(197.637 11.196)" fill="#fff"/>
            <path id="Trazado_117357" data-name="Trazado 117357" d="M130.162,27.593V7.054h2.706V25.06h4.481v2.533Z" transform="translate(206.576 11.196)" fill="#fff"/>
            <path id="Trazado_117358" data-name="Trazado 117358" d="M75.48,44.021A24.668,24.668,0,1,1,50.807,19.359,24.664,24.664,0,0,1,75.48,44.021" transform="translate(41.494 30.724)" fill="#fc5e5e"/>
            <path id="Trazado_117359" data-name="Trazado 117359" d="M31.041,40.843a12.17,12.17,0,0,0,14.933,5.2l5,8.574a1.786,1.786,0,0,0,1.11.856,1.836,1.836,0,0,0,2.064-2.688l-5-8.6a12.135,12.135,0,0,0,2.895-15.52,12.14,12.14,0,0,0-21,12.182m6.248-13.406a8.441,8.441,0,0,1,6.421-.846,8.448,8.448,0,0,1-4.344,16.327,8.455,8.455,0,0,1-2.077-15.481" transform="translate(46.654 35.897)" fill="#f3f0e9"/>
            <path id="Trazado_117360" data-name="Trazado 117360" d="M38.991,25.021a7.488,7.488,0,0,1,4.53,3.547.426.426,0,0,1-.2.611.372.372,0,0,1-.313.044.513.513,0,0,1-.295-.233,6.746,6.746,0,0,0-4-3.1,7.641,7.641,0,0,0-5.692.4.451.451,0,1,1-.4-.81,8.445,8.445,0,0,1,6.367-.458" transform="translate(51.372 39.055)" fill="#f3f0e9"/>
            <path id="Trazado_117361" data-name="Trazado 117361" d="M109.2,26.029a24.334,24.334,0,1,1-24.337-24.3,24.321,24.321,0,0,1,24.337,24.3" transform="translate(96.067 2.752)" fill="#89b414"/>
            <path id="Trazado_117362" data-name="Trazado 117362" d="M72.931,30.279a5.252,5.252,0,0,1-4.664,2.259,5.143,5.143,0,0,1-4.553-2.114,7.445,7.445,0,0,1-.911-4.408V13.59c0-.582.036-1.164.072-1.749.072-.983.254-4.227,3.534-5.283a6.018,6.018,0,0,1,2.15-.329,5.191,5.191,0,0,1,3.57,1.131,3.958,3.958,0,0,1,1.2,1.6,8.537,8.537,0,0,1,.546,3.57v3.278H70.453V11.841c0-.546.184-2.66-2.075-2.66a2.066,2.066,0,0,0-1.384.437c-.841.73-.766,1.824-.766,2.807V26.634a7.124,7.124,0,0,0,.036.877A1.855,1.855,0,0,0,68.3,29.586a1.983,1.983,0,0,0,1.314-.365c.874-.618.836-1.71.836-2.66v-4.99h3.425v4.809a6.424,6.424,0,0,1-.947,3.9" transform="translate(99.672 9.887)" fill="#fff"/>
            <path id="Trazado_117363" data-name="Trazado 117363" d="M75.114,32.439a5.673,5.673,0,0,1-2.258.4A4.655,4.655,0,0,1,69.1,31.308a5.658,5.658,0,0,1-1.128-4.08V22.965h3.133v4.7c0,1.239.181,1.785.727,2.147a1.635,1.635,0,0,0,1.022.329c1.676-.034,1.64-1.855,1.64-3.024a7.539,7.539,0,0,0-1.239-4.481c-.947-1.676-2.114-3.169-3.1-4.807a11.2,11.2,0,0,1-1.969-6.049c0-2.843,1.239-4.339,2.295-4.957A5.529,5.529,0,0,1,73.4,6.131c.693,0,3.28-.036,4.082,2.478a5.687,5.687,0,0,1,.254,1.93V15.1h-3.1V10.539c-.036-.29.072-1.749-1.348-1.749-1.64,0-1.676,1.42-1.676,2.623a8.47,8.47,0,0,0,1.713,5.138c.473.766.983,1.493,1.5,2.259.4.546.763,1.094,1.128,1.676a10.809,10.809,0,0,1,2,6.232c0,.546.036,4.408-2.843,5.72" transform="translate(107.879 9.73)" fill="#fff"/>
            <path id="Trazado_117364" data-name="Trazado 117364" d="M79.807,32.439a5.663,5.663,0,0,1-2.259.4,4.655,4.655,0,0,1-3.754-1.529,5.658,5.658,0,0,1-1.128-4.08V22.965H75.8v4.7c0,1.239.181,1.785.727,2.147a1.636,1.636,0,0,0,1.022.329c1.676-.034,1.64-1.855,1.64-3.024a7.539,7.539,0,0,0-1.239-4.481c-.947-1.676-2.114-3.169-3.1-4.807a11.2,11.2,0,0,1-1.969-6.049c0-2.843,1.239-4.339,2.3-4.957a5.51,5.51,0,0,1,2.913-.693c.693,0,3.28-.036,4.082,2.478a5.687,5.687,0,0,1,.254,1.93V15.1h-3.1V10.539c-.036-.29.072-1.749-1.348-1.749-1.64,0-1.676,1.42-1.676,2.623a8.47,8.47,0,0,0,1.713,5.138c.473.766.986,1.493,1.5,2.259.4.546.763,1.094,1.128,1.676a10.809,10.809,0,0,1,2,6.232c0,.546.036,4.408-2.843,5.72" transform="translate(115.327 9.73)" fill="#fff"/>
            <path id="Trazado_117365" data-name="Trazado 117365" d="M225.468,82A27.129,27.129,0,1,0,252.593,54.87,27.123,27.123,0,0,0,225.468,82" transform="translate(357.833 87.082)" fill="#f99c1d"/>
            <path id="Trazado_117366" data-name="Trazado 117366" d="M255.778,74.232a.471.471,0,0,0,.329-.135.545.545,0,0,0,.137-.385c-.021-.427-.057-.846-.119-1.268a.486.486,0,0,0-.567-.414l-.7.137a7.6,7.6,0,0,0-.259-.931l.68-.235a.491.491,0,0,0,.259-.243.545.545,0,0,0,.016-.4,11.123,11.123,0,0,0-.53-1.156.5.5,0,0,0-.678-.212l-.608.357c-.166-.266-.344-.53-.548-.8l.561-.437a.408.408,0,0,0,.173-.321.507.507,0,0,0-.122-.383,7.882,7.882,0,0,0-.872-.911.489.489,0,0,0-.706.01l-.476.533a8.214,8.214,0,0,0-.763-.579l.393-.6a.466.466,0,0,0,.057-.352.533.533,0,0,0-.233-.336,12.271,12.271,0,0,0-1.123-.587.5.5,0,0,0-.665.251l-.274.667a7.867,7.867,0,0,0-.911-.308l.16-.691a.424.424,0,0,0-.041-.349.509.509,0,0,0-.334-.235,9.449,9.449,0,0,0-1.262-.194.476.476,0,0,0-.541.448l-.041.711h-.018a9.409,9.409,0,0,0-.952.021l-.062-.7a.474.474,0,0,0-.486-.44l-.07,0a10.248,10.248,0,0,0-1.237.225.492.492,0,0,0-.326.238.476.476,0,0,0-.057.362l.2.68c-.308.1-.613.21-.908.329l-.29-.652a.5.5,0,0,0-.67-.217,9.235,9.235,0,0,0-1.112.623.514.514,0,0,0-.228.331.431.431,0,0,0,.078.352l.411.587c-.261.181-.512.391-.761.6l-.479-.517a.5.5,0,0,0-.709.005,11.584,11.584,0,0,0-.841.955.478.478,0,0,0-.109.385.446.446,0,0,0,.184.305l.567.417a9.669,9.669,0,0,0-.517.823l-.623-.341a.492.492,0,0,0-.652.235,8.156,8.156,0,0,0-.494,1.177.517.517,0,0,0,.023.406.425.425,0,0,0,.266.23l.665.2c-.091.305-.158.618-.222.947l-.683-.114a.5.5,0,0,0-.551.429,9.885,9.885,0,0,0-.08,1.273.478.478,0,0,0,.479.5l.7-.013c.016.316.044.639.091.957l-.68.127a.384.384,0,0,0-.3.179.533.533,0,0,0-.085.406,10.817,10.817,0,0,0,.339,1.234.493.493,0,0,0,.618.316l.642-.248a7.846,7.846,0,0,0,.406.89l-.6.326a.453.453,0,0,0-.23.285.541.541,0,0,0,.065.4,10.712,10.712,0,0,0,.7,1.04.5.5,0,0,0,.7.109l.523-.44a7.517,7.517,0,0,0,.673.711l-.466.5a.482.482,0,0,0,.07.7,10.906,10.906,0,0,0,1.006.766.491.491,0,0,0,.688-.132l.357-.582a9.41,9.41,0,0,0,.872.455l-.269.621a.415.415,0,0,0-.01.347.524.524,0,0,0,.292.3,12.1,12.1,0,0,0,1.211.391.505.505,0,0,0,.608-.344l.147-.665c.3.06.621.1.96.14l-.06.678a.433.433,0,0,0,.124.344.459.459,0,0,0,.36.16c.16.01.323.021.489.021.251,0,.507-.01.784-.023a.6.6,0,0,0,.367-.21.439.439,0,0,0,.1-.326l-.08-.68c.323-.044.655-.1.957-.176l.171.662a.5.5,0,0,0,.623.329,9.92,9.92,0,0,0,1.193-.429.514.514,0,0,0,.285-.295.5.5,0,0,0-.016-.357l-.295-.613c.29-.15.574-.305.846-.479l.378.572a.492.492,0,0,0,.688.109,11.751,11.751,0,0,0,1-.8.516.516,0,0,0,.16-.362.466.466,0,0,0-.129-.342l-.481-.481a7.316,7.316,0,0,0,.644-.742l.548.437a.513.513,0,0,0,.7-.124,12.242,12.242,0,0,0,.675-1.071.5.5,0,0,0,.041-.4.451.451,0,0,0-.228-.282l-.621-.313a7.643,7.643,0,0,0,.37-.9l.657.238a.493.493,0,0,0,.613-.347,10.558,10.558,0,0,0,.305-1.239.5.5,0,0,0-.1-.391.447.447,0,0,0-.308-.191L255,75.2a7.454,7.454,0,0,0,.07-.973Zm-1.63-.111a8.31,8.31,0,1,1-8.31-8.3,8.315,8.315,0,0,1,8.31,8.3" transform="translate(373.645 101.13)" fill="#fff"/>
            <path id="Trazado_117367" data-name="Trazado 117367" d="M258.393,73.749a.547.547,0,0,0,.427-.194.654.654,0,0,0,.191-.507,18.42,18.42,0,0,0-.179-1.839.66.66,0,0,0-.761-.559l-1.063.2c-.1-.468-.238-.947-.393-1.459l1.024-.367a.546.546,0,0,0,.352-.323.734.734,0,0,0,.021-.53,13.877,13.877,0,0,0-.776-1.682.663.663,0,0,0-.59-.373.577.577,0,0,0-.3.088l-.947.548a13.988,13.988,0,0,0-.856-1.252l.867-.68a.563.563,0,0,0,.228-.422.684.684,0,0,0-.158-.507,13.972,13.972,0,0,0-1.275-1.343.671.671,0,0,0-.931.016l-.724.836a13.365,13.365,0,0,0-1.226-.916l.613-.924a.612.612,0,0,0,.083-.46.673.673,0,0,0-.329-.442,12.753,12.753,0,0,0-1.63-.851.646.646,0,0,0-.877.318l-.417,1.024a12.136,12.136,0,0,0-1.454-.471l.269-1.071a.615.615,0,0,0-.067-.466.705.705,0,0,0-.453-.321,14.623,14.623,0,0,0-1.821-.266.659.659,0,0,0-.735.585l-.052,1.1-.088-.005a12.331,12.331,0,0,0-1.438.036l-.093-1.1a.628.628,0,0,0-.742-.569,15.22,15.22,0,0,0-1.811.326.708.708,0,0,0-.437.323.589.589,0,0,0-.062.479l.3,1.058a13.412,13.412,0,0,0-1.428.512l-.445-1.009a.657.657,0,0,0-.893-.287,14.671,14.671,0,0,0-1.6.9.649.649,0,0,0-.316.445.59.59,0,0,0,.106.466l.623.9a13.069,13.069,0,0,0-1.185.952l-.74-.8a.678.678,0,0,0-.942.005c-.4.4-.792.846-1.239,1.389a.725.725,0,0,0-.14.512.587.587,0,0,0,.251.414l.872.644a12.347,12.347,0,0,0-.818,1.291l-.957-.525a.667.667,0,0,0-.872.321,13.539,13.539,0,0,0-.719,1.7.672.672,0,0,0,.034.551.554.554,0,0,0,.362.3l1.024.321a12.734,12.734,0,0,0-.349,1.482l-1.068-.173a.649.649,0,0,0-.729.585,13.941,13.941,0,0,0-.119,1.839.637.637,0,0,0,.647.67l1.071-.028a12.149,12.149,0,0,0,.145,1.519l-1.063.186a.589.589,0,0,0-.385.243.732.732,0,0,0-.116.541,17.332,17.332,0,0,0,.489,1.782.658.658,0,0,0,.833.429l.993-.375c.2.494.4.949.629,1.387l-.926.512a.578.578,0,0,0-.3.38.7.7,0,0,0,.072.528,18.052,18.052,0,0,0,1.037,1.526.658.658,0,0,0,.926.137l.82-.665a13.349,13.349,0,0,0,1.05,1.107l-.706.766a.6.6,0,0,0-.173.455.734.734,0,0,0,.251.484,15.96,15.96,0,0,0,1.48,1.11.666.666,0,0,0,.913-.171l.548-.9a14.6,14.6,0,0,0,1.358.711l-.419.955a.58.58,0,0,0-.01.466.75.75,0,0,0,.4.4,18.136,18.136,0,0,0,1.757.572.665.665,0,0,0,.81-.466l.222-1.03a11.373,11.373,0,0,0,1.516.222l-.088,1.05a.607.607,0,0,0,.168.453.676.676,0,0,0,.481.228c.233,0,.473.018.7.018.375,0,.758-.018,1.138-.041a.77.77,0,0,0,.5-.259.6.6,0,0,0,.122-.45l-.119-1.037a14.932,14.932,0,0,0,1.506-.277l.259,1.017a.66.66,0,0,0,.838.44,18.106,18.106,0,0,0,1.728-.621.81.81,0,0,0,.383-.4.57.57,0,0,0-.026-.473l-.453-.952a11.016,11.016,0,0,0,1.332-.758l.587.887a.661.661,0,0,0,.924.15,13.383,13.383,0,0,0,1.433-1.164.658.658,0,0,0,.228-.489.6.6,0,0,0-.166-.445l-.748-.761a9,9,0,0,0,1.019-1.143l.838.662a.677.677,0,0,0,.926-.163,16.53,16.53,0,0,0,.983-1.56.714.714,0,0,0,.057-.554.6.6,0,0,0-.31-.357l-.939-.479a13.941,13.941,0,0,0,.577-1.41l1.017.354a.667.667,0,0,0,.82-.458,16.414,16.414,0,0,0,.432-1.8.722.722,0,0,0-.129-.536.669.669,0,0,0-.411-.254l-1.071-.132a12.613,12.613,0,0,0,.106-1.524Zm-2.328-.109a12.167,12.167,0,1,1-12.17-12.159,12.182,12.182,0,0,1,12.17,12.159" transform="translate(363.103 92.931)" fill="#fff"/>
            <path id="Trazado_117368" data-name="Trazado 117368" d="M171.508,24.31A18.609,18.609,0,1,0,190.122,5.719,18.6,18.6,0,0,0,171.508,24.31" transform="translate(272.194 9.076)" fill="#00a2b1"/>
            <path id="Trazado_117369" data-name="Trazado 117369" d="M188.471,9.029H176.022v20.05H191.26V11.163Zm2.108,19.416H176.708V9.668h11.756l-.336,2.147,2.453-.341Z" transform="translate(279.358 14.33)" fill="#fff"/>
            <rect id="Rectángulo_36454" data-name="Rectángulo 36454" width="10.591" height="0.701" transform="translate(457.693 28.38)" fill="#fff"/>
            <rect id="Rectángulo_36455" data-name="Rectángulo 36455" width="10.591" height="0.706" transform="translate(457.693 31.187)" fill="#fff"/>
            <rect id="Rectángulo_36456" data-name="Rectángulo 36456" width="10.591" height="0.709" transform="translate(457.693 33.991)" fill="#fff"/>
            <rect id="Rectángulo_36457" data-name="Rectángulo 36457" width="10.591" height="0.704" transform="translate(457.693 36.804)" fill="#fff"/>
            <path id="Trazado_117370" data-name="Trazado 117370" d="M93.337,71.231A16.548,16.548,0,1,1,76.788,54.7,16.557,16.557,0,0,1,93.337,71.231" transform="translate(95.606 86.808)" fill="#fc5e5e"/>
            <path id="Trazado_117371" data-name="Trazado 117371" d="M61.384,64.657v-.986L69.2,59.4v1.074l-6.835,3.637L69.2,67.769v1.138Z" transform="translate(97.42 94.272)" fill="#fff"/>
            <path id="Trazado_117372" data-name="Trazado 117372" d="M66.661,73.208H65.655l4.38-15.468h.988Z" transform="translate(104.198 91.637)" fill="#fff"/>
            <path id="Trazado_117373" data-name="Trazado 117373" d="M68.976,68.9V67.842l6.835-3.658-6.835-3.658V59.408L76.8,63.636v.988Z" transform="translate(109.469 94.285)" fill="#fff"/>
            <path id="Trazado_117374" data-name="Trazado 117374" d="M51.17,77.659a22.726,22.726,0,1,1-22.722-22.7,22.708,22.708,0,0,1,22.722,22.7" transform="translate(9.075 87.23)" fill="#00a2b1"/>
            <path id="Trazado_117375" data-name="Trazado 117375" d="M30.423,71.074a.382.382,0,0,0,.269-.109.446.446,0,0,0,.109-.313,9.711,9.711,0,0,0-.1-1.027.392.392,0,0,0-.458-.336l-.567.111a6.226,6.226,0,0,0-.207-.755l.551-.189a.422.422,0,0,0,.21-.2.457.457,0,0,0,.013-.326,8.841,8.841,0,0,0-.432-.937.4.4,0,0,0-.548-.173l-.492.29c-.135-.217-.279-.429-.445-.649l.455-.354a.328.328,0,0,0,.14-.259.409.409,0,0,0-.1-.31,6.394,6.394,0,0,0-.706-.74.4.4,0,0,0-.572.008l-.385.435a6.65,6.65,0,0,0-.621-.473l.321-.481A.376.376,0,0,0,26.907,64a.43.43,0,0,0-.186-.272,9.509,9.509,0,0,0-.911-.476.4.4,0,0,0-.538.2L25.05,64a6.906,6.906,0,0,0-.74-.248l.132-.559a.354.354,0,0,0-.036-.285.416.416,0,0,0-.269-.191,8.133,8.133,0,0,0-1.024-.155.383.383,0,0,0-.437.362l-.034.577h-.016c-.264-.008-.543,0-.771.016L21.8,62.94a.381.381,0,0,0-.393-.354l-.057,0a8.339,8.339,0,0,0-1,.181.408.408,0,0,0-.264.194.384.384,0,0,0-.047.295l.16.551c-.248.083-.494.168-.735.264l-.233-.525a.405.405,0,0,0-.546-.179,7.239,7.239,0,0,0-.9.507.426.426,0,0,0-.186.266.342.342,0,0,0,.065.285L18,64.9c-.21.147-.414.316-.616.486l-.388-.422a.4.4,0,0,0-.572.005,9.165,9.165,0,0,0-.683.774.4.4,0,0,0-.088.313.356.356,0,0,0,.15.248l.458.336c-.153.217-.292.442-.419.667l-.507-.277a.394.394,0,0,0-.525.191,6.973,6.973,0,0,0-.4.952.434.434,0,0,0,.021.331.337.337,0,0,0,.217.186l.536.166c-.07.246-.127.5-.179.766l-.554-.091a.4.4,0,0,0-.448.349,7.887,7.887,0,0,0-.065,1.03.387.387,0,0,0,.388.406l.567-.01a7.215,7.215,0,0,0,.072.776l-.554.1a.314.314,0,0,0-.241.145.433.433,0,0,0-.07.329,8.42,8.42,0,0,0,.277,1,.4.4,0,0,0,.5.256l.52-.2a7.1,7.1,0,0,0,.329.719l-.484.266a.37.37,0,0,0-.186.23.453.453,0,0,0,.052.323,8.554,8.554,0,0,0,.569.843.409.409,0,0,0,.572.088l.422-.354a6.67,6.67,0,0,0,.546.574l-.378.406a.39.39,0,0,0,.057.567,8.03,8.03,0,0,0,.818.621.4.4,0,0,0,.556-.106l.29-.473a6.864,6.864,0,0,0,.706.37l-.22.5a.339.339,0,0,0-.008.279.431.431,0,0,0,.238.243,9.919,9.919,0,0,0,.98.316.406.406,0,0,0,.492-.279l.122-.538c.243.049.5.083.776.114l-.049.548a.351.351,0,0,0,.1.277.363.363,0,0,0,.292.132c.127.008.261.016.4.016.2,0,.409-.008.634-.018a.486.486,0,0,0,.3-.168.353.353,0,0,0,.078-.266l-.065-.551a7.231,7.231,0,0,0,.776-.142l.137.536a.4.4,0,0,0,.507.269,8.33,8.33,0,0,0,.968-.349.421.421,0,0,0,.23-.241.4.4,0,0,0-.016-.29l-.238-.494c.235-.124.466-.248.686-.388l.305.463a.4.4,0,0,0,.561.088,9.56,9.56,0,0,0,.81-.649.416.416,0,0,0,.132-.292.376.376,0,0,0-.1-.277l-.393-.391a5.5,5.5,0,0,0,.523-.6l.445.354a.418.418,0,0,0,.567-.1c.191-.274.378-.567.546-.867A.394.394,0,0,0,29.8,74.7a.353.353,0,0,0-.184-.228l-.5-.256a6,6,0,0,0,.3-.724l.533.191a.4.4,0,0,0,.5-.279,9.474,9.474,0,0,0,.248-1,.408.408,0,0,0-.083-.318.366.366,0,0,0-.248-.155l-.567-.07a6.464,6.464,0,0,0,.057-.786ZM29.1,70.983a6.734,6.734,0,1,1-6.734-6.729A6.739,6.739,0,0,1,29.1,70.983" transform="translate(22.113 99.279)" fill="#fff"/>
            <path id="Trazado_117376" data-name="Trazado 117376" d="M32.546,70.682a.443.443,0,0,0,.341-.158.534.534,0,0,0,.155-.409,14.569,14.569,0,0,0-.145-1.493.53.53,0,0,0-.613-.453l-.861.166c-.08-.38-.2-.768-.321-1.182l.833-.3a.43.43,0,0,0,.279-.264.566.566,0,0,0,.021-.427A10.86,10.86,0,0,0,31.6,64.8a.537.537,0,0,0-.476-.3.444.444,0,0,0-.243.072l-.766.445a11.462,11.462,0,0,0-.7-1.017l.7-.551a.453.453,0,0,0,.186-.341.564.564,0,0,0-.127-.411,12.184,12.184,0,0,0-1.035-1.089.549.549,0,0,0-.755.013l-.585.678a11.142,11.142,0,0,0-.993-.742l.494-.748a.487.487,0,0,0,.067-.373.544.544,0,0,0-.264-.36,10.4,10.4,0,0,0-1.322-.691.524.524,0,0,0-.711.259l-.339.83a9.56,9.56,0,0,0-1.177-.383l.22-.867a.509.509,0,0,0-.057-.378.559.559,0,0,0-.367-.259,11.176,11.176,0,0,0-1.475-.217.533.533,0,0,0-.6.473l-.041.9-.072-.005a10.034,10.034,0,0,0-1.167.028l-.075-.893a.511.511,0,0,0-.6-.463,12.13,12.13,0,0,0-1.469.266.551.551,0,0,0-.352.261.468.468,0,0,0-.052.388l.241.856a10.8,10.8,0,0,0-1.156.417l-.362-.818a.531.531,0,0,0-.722-.233,12.118,12.118,0,0,0-1.3.73.531.531,0,0,0-.256.36.484.484,0,0,0,.085.378l.507.732a10.611,10.611,0,0,0-.96.771l-.6-.652a.552.552,0,0,0-.763.005c-.323.321-.642.686-1.006,1.125a.6.6,0,0,0-.111.417.466.466,0,0,0,.2.334l.706.523a10.4,10.4,0,0,0-.665,1.048l-.774-.427a.538.538,0,0,0-.706.259,10.722,10.722,0,0,0-.585,1.379.534.534,0,0,0,.028.445.448.448,0,0,0,.292.246l.83.259a10.718,10.718,0,0,0-.285,1.2l-.864-.142a.528.528,0,0,0-.592.473,11.746,11.746,0,0,0-.1,1.493.517.517,0,0,0,.525.543l.867-.026a10.053,10.053,0,0,0,.119,1.234L9.2,72.4a.477.477,0,0,0-.313.2.589.589,0,0,0-.1.437,14.223,14.223,0,0,0,.4,1.446.53.53,0,0,0,.673.347l.807-.305a11.605,11.605,0,0,0,.51,1.125l-.75.417a.449.449,0,0,0-.241.308.553.553,0,0,0,.057.427c.272.442.554.856.841,1.237a.532.532,0,0,0,.75.111l.665-.538a10.87,10.87,0,0,0,.851.9l-.572.621a.478.478,0,0,0-.14.37.6.6,0,0,0,.2.391,13.041,13.041,0,0,0,1.2.9.539.539,0,0,0,.74-.14l.445-.727a12.174,12.174,0,0,0,1.1.577l-.339.774a.476.476,0,0,0-.01.378.617.617,0,0,0,.323.323c.45.173.931.329,1.423.463a.539.539,0,0,0,.657-.378l.179-.833a9.9,9.9,0,0,0,1.229.181l-.07.851a.5.5,0,0,0,.135.367.56.56,0,0,0,.393.184c.186,0,.38.013.569.013.3,0,.613-.013.921-.031a.607.607,0,0,0,.4-.212.484.484,0,0,0,.1-.365l-.1-.841a11.17,11.17,0,0,0,1.219-.225l.21.825a.536.536,0,0,0,.68.357,13.548,13.548,0,0,0,1.4-.5.639.639,0,0,0,.31-.323.459.459,0,0,0-.021-.383l-.367-.771a9.417,9.417,0,0,0,1.081-.616l.476.719a.537.537,0,0,0,.748.122,11.313,11.313,0,0,0,1.162-.944.528.528,0,0,0,.181-.4.462.462,0,0,0-.135-.362l-.6-.616a7.1,7.1,0,0,0,.825-.926l.678.536a.547.547,0,0,0,.75-.129,14.342,14.342,0,0,0,.8-1.265.605.605,0,0,0,.044-.45.5.5,0,0,0-.251-.29l-.763-.388a11.238,11.238,0,0,0,.466-1.141l.828.287a.537.537,0,0,0,.662-.373,14.112,14.112,0,0,0,.352-1.454.609.609,0,0,0-.106-.435.546.546,0,0,0-.334-.2l-.869-.109a9.084,9.084,0,0,0,.088-1.234Zm-1.889-.088A9.862,9.862,0,1,1,20.8,60.74a9.873,9.873,0,0,1,9.862,9.854" transform="translate(13.571 92.634)" fill="#fff"/>
            <path id="Trazado_117377" data-name="Trazado 117377" d="M137.111,41.432a19.594,19.594,0,1,0,19.6-19.594,19.6,19.6,0,0,0-19.6,19.594" transform="translate(217.604 34.658)" fill="#f99c1d"/>
            <rect id="Rectángulo_36458" data-name="Rectángulo 36458" width="0.929" height="1.899" transform="translate(361.762 80.147)" fill="#fff"/>
            <rect id="Rectángulo_36459" data-name="Rectángulo 36459" width="1.648" height="2.618" transform="translate(361.403 79.788)" fill="#fff"/>
            <path id="Trazado_117378" data-name="Trazado 117378" d="M145.754,36.742a2.315,2.315,0,0,1-2.447,1.539,2.5,2.5,0,0,1-1.389-.4c-.949-.634-.991-1.684-.991-2.7V30.29a3.332,3.332,0,0,1,.168-1.2,2.248,2.248,0,0,1,2.277-1.475c2.445,0,2.424,2.194,2.424,2.846v.929h-.885v-.825a4.571,4.571,0,0,0-.083-.926A1.419,1.419,0,0,0,143.4,28.4a1.4,1.4,0,0,0-1.436,1.012,3.383,3.383,0,0,0-.124.947v4.553a6.086,6.086,0,0,0,.147,1.539,1.436,1.436,0,0,0,1.516.991,1.32,1.32,0,0,0,1.369-.929,2.429,2.429,0,0,0,.109-.8V34.171h.905v1.369a3.4,3.4,0,0,1-.127,1.2" transform="translate(223.66 43.827)" fill="#fff"/>
            <path id="Trazado_117379" data-name="Trazado 117379" d="M143.528,38.864a2.816,2.816,0,0,1-1.588-.463,3.224,3.224,0,0,1-1.151-3v-4.89a3.644,3.644,0,0,1,.186-1.317,2.551,2.551,0,0,1,2.618-1.72,2.48,2.48,0,0,1,2.445,1.363,4.167,4.167,0,0,1,.339,1.826v1.306h-1.6V30.787a3.931,3.931,0,0,0-.08-.859,1.054,1.054,0,0,0-1.076-.949,1.037,1.037,0,0,0-1.089.758,2.82,2.82,0,0,0-.111.841v4.551a5.26,5.26,0,0,0,.129,1.428,1.089,1.089,0,0,0,1.175.742.962.962,0,0,0,1.024-.673,2.162,2.162,0,0,0,.091-.7v-1.9h1.63v1.731a3.76,3.76,0,0,1-.142,1.309,2.662,2.662,0,0,1-2.794,1.793m.065-10.666a1.851,1.851,0,0,0-1.933,1.226,2.919,2.919,0,0,0-.15,1.089V35.4c0,1.045.06,1.886.83,2.4a2.079,2.079,0,0,0,1.187.341,1.977,1.977,0,0,0,2.1-1.283l0-.01a3.024,3.024,0,0,0,.109-1.087V34.753h-.186v1.177a2.851,2.851,0,0,1-.124.918,1.682,1.682,0,0,1-1.713,1.172,1.8,1.8,0,0,1-1.858-1.231,5.994,5.994,0,0,1-.168-1.651V30.578a3.585,3.585,0,0,1,.145-1.068,1.752,1.752,0,0,1,1.777-1.252,1.771,1.771,0,0,1,1.785,1.521,4.76,4.76,0,0,1,.091,1.009v.463h.163v-.567a3.552,3.552,0,0,0-.267-1.529,1.786,1.786,0,0,0-1.8-.957" transform="translate(223.44 43.606)" fill="#fff"/>
            <path id="Trazado_117380" data-name="Trazado 117380" d="M148.274,36.633a2.548,2.548,0,0,1-4.618.36,3.349,3.349,0,0,1-.189-1.286V30.142a2.3,2.3,0,0,1,.442-1.6,2.428,2.428,0,0,1,2.108-.949,2.46,2.46,0,0,1,1.77.611,2.351,2.351,0,0,1,.486.779,3.5,3.5,0,0,1,.147,1.226v5.058a4.781,4.781,0,0,1-.147,1.369m-.758-6.343a1.684,1.684,0,0,0-.613-1.56,1.414,1.414,0,0,0-.885-.254,1.631,1.631,0,0,0-1.012.295,1.931,1.931,0,0,0-.634,1.793v5.122a3.241,3.241,0,0,0,.065.7,1.4,1.4,0,0,0,1.475,1.053,1.428,1.428,0,0,0,1.454-.905,2.228,2.228,0,0,0,.15-.926Z" transform="translate(227.692 43.789)" fill="#fff"/>
            <path id="Trazado_117381" data-name="Trazado 117381" d="M146.132,38.882a2.712,2.712,0,0,1-2.592-1.539,3.664,3.664,0,0,1-.212-1.415V30.362a2.648,2.648,0,0,1,.515-1.821,2.759,2.759,0,0,1,2.4-1.089,2.81,2.81,0,0,1,2.018.709,2.66,2.66,0,0,1,.574.911A3.823,3.823,0,0,1,149,30.425v5.058a5.257,5.257,0,0,1-.16,1.472,2.7,2.7,0,0,1-2.709,1.927m.106-10.71a2.07,2.07,0,0,0-1.811.794,1.948,1.948,0,0,0-.378,1.4v5.565a3.049,3.049,0,0,0,.158,1.143,2.008,2.008,0,0,0,1.925,1.089,1.966,1.966,0,0,0,2.01-1.407l.005,0a4.447,4.447,0,0,0,.132-1.268V30.425a3.191,3.191,0,0,0-.127-1.1,1.954,1.954,0,0,0-.4-.644,2.086,2.086,0,0,0-1.511-.5m-.106,9.844a1.74,1.74,0,0,1-1.824-1.319,3.576,3.576,0,0,1-.078-.789V30.784a2.261,2.261,0,0,1,.781-2.085,1.984,1.984,0,0,1,1.226-.365,1.781,1.781,0,0,1,1.1.326,2.063,2.063,0,0,1,.755,1.85v5.311a2.616,2.616,0,0,1-.176,1.066,1.809,1.809,0,0,1-1.788,1.128m.106-8.959a1.292,1.292,0,0,0-.792.22c-.471.344-.494.8-.494,1.508v5.122a2.808,2.808,0,0,0,.057.613,1.048,1.048,0,0,0,1.123.774,1.09,1.09,0,0,0,1.12-.68,1.923,1.923,0,0,0,.122-.792V30.51c0-.616-.072-1-.458-1.262a1.071,1.071,0,0,0-.678-.191" transform="translate(227.471 43.568)" fill="#fff"/>
            <path id="Trazado_117382" data-name="Trazado 117382" d="M154.033,38.308V30.72c0-1.182,0-1.793-.59-2.129a1.549,1.549,0,0,0-.74-.168,1.728,1.728,0,0,0-1.389.7,2.674,2.674,0,0,0-.336.611v8.579h-.908V29.939a2.286,2.286,0,0,0-.085-.652,1.271,1.271,0,0,0-1.262-.887,1.818,1.818,0,0,0-1.286.548,1.877,1.877,0,0,0-.422.613v8.747h-.885v-10.6h.905v.885a2.941,2.941,0,0,1,.336-.36,2.619,2.619,0,0,1,1.643-.652,1.932,1.932,0,0,1,1.816,1.265,2.516,2.516,0,0,1,2.129-1.286,1.874,1.874,0,0,1,1.726,1.05,4.936,4.936,0,0,1,.256,2.194v7.505Z" transform="translate(231.918 43.738)" fill="#fff"/>
            <path id="Trazado_117383" data-name="Trazado 117383" d="M155.523,38.89h-1.63V30.94c0-1.175-.018-1.594-.409-1.814a1.176,1.176,0,0,0-.559-.122,1.366,1.366,0,0,0-1.1.554,2.2,2.2,0,0,0-.264.466V38.89h-1.63V30.161a1.865,1.865,0,0,0-.062-.53.92.92,0,0,0-.924-.649,1.438,1.438,0,0,0-1.03.442,1.346,1.346,0,0,0-.318.448V38.89H145.99V27.566h1.63v.414a2.854,2.854,0,0,1,1.617-.541,2.163,2.163,0,0,1,1.858.968,2.663,2.663,0,0,1,2.088-.988,2.231,2.231,0,0,1,2.054,1.26,5.18,5.18,0,0,1,.287,2.344Zm-.908-.722h.186V31.023a4.708,4.708,0,0,0-.22-2.036,1.516,1.516,0,0,0-1.4-.846,1.906,1.906,0,0,0-1.03.29,2.26,2.26,0,0,1,.761-.147h0a1.959,1.959,0,0,1,.937.217c.763.44.763,1.193.763,2.44Zm-3.963,0h.186l.028-8.364c.026-.06.052-.119.083-.184l-.22-.393a1.582,1.582,0,0,0-1.5-1.066,1.977,1.977,0,0,0-.7.137,1.742,1.742,0,0,1,2.023,1.107,2.56,2.56,0,0,1,.1.755Zm-3.94,0h.163l.023-9.88h-.186Z" transform="translate(231.696 43.516)" fill="#fff"/>
            <path id="Trazado_117384" data-name="Trazado 117384" d="M83.686,73.107A24.769,24.769,0,1,1,58.928,48.38,24.751,24.751,0,0,1,83.686,73.107" transform="translate(54.197 76.782)" fill="#89b414"/>
            <path id="Trazado_117385" data-name="Trazado 117385" d="M71.987,72.312H37.357V54.13H38.65V71.018H71.987Z" transform="translate(59.288 85.907)" fill="#fff"/>
            <path id="Trazado_117386" data-name="Trazado 117386" d="M37.607,67.506s3.707-7.6,6.113-7.808c1.234-.106,2.478,3.34,3.712,3.423,2.093.135,3.694-6.02,5.767-6.359,1.984-.323,4.025,5.21,6,5.575,1.371.251,3.192-3.247,4.582-3.3,4.424-.166,5.844,8.473,5.844,8.473Z" transform="translate(59.685 90.064)" fill="#fff"/>
            <path id="Trazado_117387" data-name="Trazado 117387" d="M38.874,53.818l-2.129,2.83,4.447-.072Z" transform="translate(58.317 85.413)" fill="#fff"/>
            <path id="Trazado_117388" data-name="Trazado 117388" d="M39.014,53.745,41.6,56.816l-4.944.08Zm.016.373-1.889,2.509,3.945-.065Z" transform="translate(58.169 85.297)" fill="#fff"/>
            <path id="Trazado_117389" data-name="Trazado 117389" d="M53.522,62.251l-2.773-2.2L50.707,64.5Z" transform="translate(80.476 95.303)" fill="#fff"/>
            <path id="Trazado_117390" data-name="Trazado 117390" d="M53.792,62.4l-3.136,2.5.047-4.944Zm-.373.005-2.46-1.953L50.922,64.4Z" transform="translate(80.394 95.151)" fill="#fff"/>
            <path id="Trazado_117391" data-name="Trazado 117391" d="M257.033,47.679a26.444,26.444,0,1,1-26.44-26.448,26.442,26.442,0,0,1,26.44,26.448" transform="translate(323.993 33.695)" fill="#89b414"/>
            <path id="Trazado_117392" data-name="Trazado 117392" d="M245.756,46.887H208.393V27.225h1.294V45.593h36.069Z" transform="translate(330.733 43.208)" fill="#fff"/>
            <path id="Trazado_117393" data-name="Trazado 117393" d="M230.6,36.887l-3.684-3.6-6.535,5.992-4.851-3.593-6.83,7.559.96.867,6.041-6.688,4.765,3.529,6.419-5.886,3.674,3.588L240.873,29.3l-.6-1.048Z" transform="translate(331.225 44.845)" fill="#fff"/>
            <path id="Trazado_117394" data-name="Trazado 117394" d="M209.971,26.689l-2.129,2.83,4.447-.075Z" transform="translate(329.858 42.357)" fill="#fff"/>
            <path id="Trazado_117395" data-name="Trazado 117395" d="M210.11,26.616l2.582,3.071-4.944.08Zm.016.373L208.237,29.5l3.948-.065Z" transform="translate(329.71 42.241)" fill="#fff"/>
            <path id="Trazado_117396" data-name="Trazado 117396" d="M223.48,28.058l-3.831.913,3.855,3.1Z" transform="translate(348.596 44.529)" fill="#fff"/>
            <path id="Trazado_117397" data-name="Trazado 117397" d="M225.429,35.831l-3.216-2.274.22,4.941Z" transform="translate(352.668 53.258)" fill="#fff"/>
            <path id="Trazado_117398" data-name="Trazado 117398" d="M27.781,50.68v-.986L35.6,45.423V46.5l-6.835,3.635L35.6,53.792V54.93Z" transform="translate(44.091 72.089)" fill="#fff"/>
            <path id="Trazado_117399" data-name="Trazado 117399" d="M33.059,59.23H32.052l4.382-15.468h.986Z" transform="translate(50.869 69.454)" fill="#fff"/>
            <path id="Trazado_117400" data-name="Trazado 117400" d="M35.374,54.918V53.865l6.835-3.658-6.835-3.658V45.431l7.821,4.227v.988Z" transform="translate(56.141 72.102)" fill="#fff"/>
            <g id="Grupo_87862" data-name="Grupo 87862" transform="translate(461.442 183.814)" opacity="0.5">
              <g id="Grupo_87861" data-name="Grupo 87861">
                <g id="Grupo_87860" data-name="Grupo 87860" clip-path="url(#clip-path-16)">
                  <path id="Trazado_117401" data-name="Trazado 117401" d="M278.541,123.056l-2.041-1.2-.01,1.609h-4.778c-.854-4.339-5.293-23.669-16.474-23.253-3.958.147-9.14,10.105-13.041,9.388-5.629-1.037-11.437-16.79-17.085-15.866-5.893.962-10.454,18.485-16.412,18.094-3.518-.23-7.055-10.035-10.568-9.738-5.7.484-13.931,15.491-16.552,20.549v-47.5h1.511l-1.18-2.046-1.18-2.049L179.547,73.1l-1.182,2.046h1.511v50.026h96.6l-.01,1.415,2.054-1.167,2.054-1.169Z" transform="translate(-178.365 -71.051)" fill="#fff"/>
                </g>
              </g>
            </g>
          </g>
        </g>
      </g>
    </g>
  </g>
</svg>
