<?xml version="1.0" encoding="utf-8"?>
<!-- Generator: Adobe Illustrator 25.4.2, SVG Export Plug-In . SVG Version: 6.00 Build 0)  -->
<svg version="1.1" id="Capa_1" xmlns="http://www.w3.org/2000/svg" xmlns:xlink="http://www.w3.org/1999/xlink" x="0px" y="0px"
	 viewBox="0 0 335 214" style="enable-background:new 0 0 335 214;" xml:space="preserve">
<style type="text/css">
	.st0{fill:#D2E2F3;}
	.st1{fill:#A6CBF7;}
	.st2{enable-background:new    ;}
	.st3{fill:#12263F;}
</style>
<g>
	<rect id="Rectángulo_36609" class="st0" width="335" height="64"/>
	<rect id="Rectángulo_36610" y="64" class="st1" width="335" height="150"/>
	<g class="st2">
		<path class="st3" d="M70.4,38h-5.9V26.8h5.7V28h-4.4v3.7h4v1.2h-4v3.9h4.6V38z"/>
		<path class="st3" d="M71.9,37.7v-1.4c0.7,0.5,1.5,0.8,2.3,0.8c1.1,0,1.7-0.4,1.7-1.1c0-0.2,0-0.4-0.1-0.5
			c-0.1-0.1-0.2-0.3-0.4-0.4s-0.4-0.2-0.6-0.3c-0.2-0.1-0.5-0.2-0.7-0.3c-0.4-0.1-0.7-0.3-0.9-0.4c-0.3-0.1-0.5-0.3-0.7-0.5
			s-0.3-0.4-0.4-0.6c-0.1-0.2-0.1-0.5-0.1-0.8c0-0.4,0.1-0.7,0.3-1s0.4-0.5,0.7-0.7c0.3-0.2,0.6-0.3,1-0.4s0.7-0.1,1.1-0.1
			c0.7,0,1.3,0.1,1.9,0.4v1.3c-0.6-0.4-1.3-0.6-2-0.6c-0.2,0-0.5,0-0.6,0.1c-0.2,0.1-0.4,0.1-0.5,0.2c-0.1,0.1-0.2,0.2-0.3,0.4
			c-0.1,0.1-0.1,0.3-0.1,0.5c0,0.2,0,0.4,0.1,0.5c0.1,0.1,0.2,0.3,0.3,0.4c0.1,0.1,0.3,0.2,0.5,0.3c0.2,0.1,0.4,0.2,0.7,0.3
			c0.4,0.1,0.7,0.3,1,0.4s0.5,0.3,0.7,0.5c0.2,0.2,0.4,0.4,0.5,0.6c0.1,0.2,0.2,0.5,0.2,0.8c0,0.4-0.1,0.7-0.3,1
			c-0.2,0.3-0.4,0.5-0.7,0.7c-0.3,0.2-0.6,0.3-1,0.4c-0.4,0.1-0.8,0.1-1.2,0.1C73.2,38.2,72.5,38,71.9,37.7z"/>
		<path class="st3" d="M80.5,36.8L80.5,36.8l0,4.8h-1.3V30h1.3v1.4h0c0.6-1.1,1.6-1.6,2.8-1.6c1,0,1.8,0.4,2.4,1.1s0.9,1.7,0.9,2.9
			c0,1.3-0.3,2.4-1,3.2c-0.7,0.8-1.5,1.2-2.7,1.2C81.9,38.2,81.1,37.7,80.5,36.8z M80.5,33.6v1.1c0,0.7,0.2,1.2,0.6,1.7
			s1,0.7,1.6,0.7c0.8,0,1.4-0.3,1.8-0.9c0.4-0.6,0.7-1.4,0.7-2.5c0-0.9-0.2-1.6-0.6-2.1c-0.4-0.5-1-0.8-1.7-0.8
			c-0.7,0-1.3,0.3-1.8,0.8S80.5,32.8,80.5,33.6z"/>
		<path class="st3" d="M95,34.3h-5.6c0,0.9,0.3,1.6,0.7,2.1c0.5,0.5,1.1,0.7,1.9,0.7c0.9,0,1.7-0.3,2.5-0.9v1.2
			c-0.7,0.5-1.6,0.8-2.8,0.8c-1.1,0-2-0.4-2.7-1.1c-0.6-0.7-1-1.7-1-3.1c0-1.2,0.4-2.3,1.1-3c0.7-0.8,1.6-1.2,2.6-1.2s1.9,0.3,2.4,1
			c0.6,0.7,0.9,1.6,0.9,2.8V34.3z M93.7,33.2c0-0.7-0.2-1.3-0.5-1.7s-0.8-0.6-1.5-0.6c-0.6,0-1.1,0.2-1.5,0.6s-0.7,1-0.8,1.7H93.7z"
			/>
		<path class="st3" d="M102.4,37.6c-0.6,0.4-1.3,0.6-2.2,0.6c-1.1,0-2.1-0.4-2.8-1.1c-0.7-0.7-1.1-1.7-1.1-2.9
			c0-1.3,0.4-2.4,1.1-3.2c0.8-0.8,1.8-1.2,3-1.2c0.7,0,1.3,0.1,1.9,0.4v1.3c-0.6-0.4-1.2-0.6-1.9-0.6c-0.8,0-1.5,0.3-2,0.9
			s-0.8,1.4-0.8,2.3c0,0.9,0.2,1.7,0.7,2.2s1.2,0.8,2,0.8c0.7,0,1.4-0.2,2-0.7V37.6z"/>
		<path class="st3" d="M105,28c-0.2,0-0.4-0.1-0.6-0.2c-0.2-0.2-0.2-0.4-0.2-0.6s0.1-0.4,0.2-0.6c0.2-0.2,0.4-0.2,0.6-0.2
			c0.2,0,0.4,0.1,0.6,0.2s0.2,0.4,0.2,0.6c0,0.2-0.1,0.4-0.2,0.6S105.2,28,105,28z M105.6,38h-1.3v-8h1.3V38z"/>
		<path class="st3" d="M112.2,27.3c-0.2-0.1-0.5-0.2-0.9-0.2c-0.9,0-1.3,0.6-1.3,1.7V30h1.9v1.1H110V38h-1.3v-6.9h-1.4V30h1.4v-1.3
			c0-0.8,0.2-1.5,0.7-2s1.1-0.7,1.8-0.7c0.4,0,0.7,0,0.9,0.1V27.3z"/>
		<path class="st3" d="M113.9,28c-0.2,0-0.4-0.1-0.6-0.2c-0.2-0.2-0.2-0.4-0.2-0.6s0.1-0.4,0.2-0.6c0.2-0.2,0.4-0.2,0.6-0.2
			c0.2,0,0.4,0.1,0.6,0.2s0.2,0.4,0.2,0.6c0,0.2-0.1,0.4-0.2,0.6S114.1,28,113.9,28z M114.5,38h-1.3v-8h1.3V38z"/>
		<path class="st3" d="M122.6,37.6c-0.6,0.4-1.3,0.6-2.2,0.6c-1.1,0-2.1-0.4-2.8-1.1c-0.7-0.7-1.1-1.7-1.1-2.9
			c0-1.3,0.4-2.4,1.1-3.2c0.8-0.8,1.8-1.2,3-1.2c0.7,0,1.3,0.1,1.9,0.4v1.3c-0.6-0.4-1.2-0.6-1.9-0.6c-0.8,0-1.5,0.3-2,0.9
			s-0.8,1.4-0.8,2.3c0,0.9,0.2,1.7,0.7,2.2s1.2,0.8,2,0.8c0.7,0,1.4-0.2,2-0.7V37.6z"/>
		<path class="st3" d="M130.2,38h-1.3v-1.2h0c-0.6,1-1.4,1.4-2.5,1.4c-0.8,0-1.4-0.2-1.9-0.6c-0.5-0.4-0.7-1-0.7-1.7
			c0-1.5,0.9-2.4,2.6-2.6l2.4-0.3c0-1.4-0.5-2-1.6-2c-1,0-1.8,0.3-2.6,1v-1.3c0.8-0.5,1.7-0.8,2.7-0.8c1.9,0,2.8,1,2.8,3V38z
			 M128.9,34l-1.9,0.3c-0.6,0.1-1,0.2-1.3,0.4c-0.3,0.2-0.5,0.6-0.5,1.1c0,0.4,0.1,0.7,0.4,1c0.3,0.2,0.6,0.4,1.1,0.4
			c0.6,0,1.2-0.2,1.6-0.7s0.6-1,0.6-1.7V34z"/>
		<path class="st3" d="M138.1,37.6c-0.6,0.4-1.3,0.6-2.2,0.6c-1.1,0-2.1-0.4-2.8-1.1c-0.7-0.7-1.1-1.7-1.1-2.9
			c0-1.3,0.4-2.4,1.1-3.2c0.8-0.8,1.8-1.2,3-1.2c0.7,0,1.3,0.1,1.9,0.4v1.3c-0.6-0.4-1.2-0.6-1.9-0.6c-0.8,0-1.5,0.3-2,0.9
			s-0.8,1.4-0.8,2.3c0,0.9,0.2,1.7,0.7,2.2s1.2,0.8,2,0.8c0.7,0,1.4-0.2,2-0.7V37.6z"/>
		<path class="st3" d="M140.7,28c-0.2,0-0.4-0.1-0.6-0.2c-0.2-0.2-0.2-0.4-0.2-0.6s0.1-0.4,0.2-0.6c0.2-0.2,0.4-0.2,0.6-0.2
			c0.2,0,0.4,0.1,0.6,0.2s0.2,0.4,0.2,0.6c0,0.2-0.1,0.4-0.2,0.6S140.9,28,140.7,28z M141.3,38H140v-8h1.3V38z"/>
		<path class="st3" d="M147.2,38.2c-1.2,0-2.1-0.4-2.8-1.1c-0.7-0.7-1.1-1.7-1.1-3c0-1.3,0.4-2.4,1.1-3.1s1.7-1.1,3-1.1
			c1.2,0,2.1,0.4,2.8,1.1c0.7,0.7,1,1.8,1,3.1c0,1.3-0.4,2.3-1.1,3.1C149.4,37.8,148.5,38.2,147.2,38.2z M147.3,30.9
			c-0.8,0-1.5,0.3-2,0.8c-0.5,0.6-0.7,1.3-0.7,2.3c0,0.9,0.2,1.7,0.7,2.2s1.1,0.8,1.9,0.8c0.8,0,1.5-0.3,1.9-0.8s0.7-1.3,0.7-2.3
			c0-1-0.2-1.8-0.7-2.3S148.2,30.9,147.3,30.9z M149.2,25.9l-2,2.6h-1l1.7-2.6H149.2z"/>
		<path class="st3" d="M159.9,38h-1.3v-4.6c0-1.7-0.6-2.5-1.9-2.5c-0.6,0-1.2,0.2-1.6,0.7c-0.4,0.5-0.6,1.1-0.6,1.8V38h-1.3v-8h1.3
			v1.3h0c0.6-1,1.5-1.5,2.6-1.5c0.9,0,1.5,0.3,2,0.8c0.5,0.6,0.7,1.4,0.7,2.4V38z"/>
		<path class="st3" d="M173.5,38h-1.3v-1.4h0c-0.6,1-1.5,1.5-2.8,1.5c-1,0-1.8-0.4-2.4-1.1s-0.9-1.7-0.9-2.9c0-1.3,0.3-2.4,1-3.2
			c0.7-0.8,1.6-1.2,2.7-1.2c1.1,0,1.9,0.4,2.4,1.3h0v-5h1.3V38z M172.3,34.4v-1.2c0-0.6-0.2-1.2-0.6-1.6c-0.4-0.4-1-0.7-1.6-0.7
			c-0.8,0-1.4,0.3-1.8,0.9c-0.4,0.6-0.7,1.4-0.7,2.4c0,0.9,0.2,1.6,0.6,2.2s1,0.8,1.7,0.8c0.7,0,1.3-0.3,1.7-0.8
			S172.3,35.2,172.3,34.4z"/>
		<path class="st3" d="M182.6,34.3h-5.6c0,0.9,0.3,1.6,0.7,2.1c0.5,0.5,1.1,0.7,1.9,0.7c0.9,0,1.7-0.3,2.5-0.9v1.2
			c-0.7,0.5-1.6,0.8-2.8,0.8c-1.1,0-2-0.4-2.7-1.1c-0.6-0.7-1-1.7-1-3.1c0-1.2,0.4-2.3,1.1-3c0.7-0.8,1.6-1.2,2.6-1.2s1.9,0.3,2.4,1
			c0.6,0.7,0.9,1.6,0.9,2.8V34.3z M181.2,33.2c0-0.7-0.2-1.3-0.5-1.7s-0.8-0.6-1.5-0.6c-0.6,0-1.1,0.2-1.5,0.6s-0.7,1-0.8,1.7H181.2
			z"/>
		<path class="st3" d="M195.7,38h-1.3v-1.4h0c-0.6,1-1.5,1.5-2.8,1.5c-1,0-1.8-0.4-2.4-1.1s-0.9-1.7-0.9-2.9c0-1.3,0.3-2.4,1-3.2
			c0.7-0.8,1.6-1.2,2.7-1.2c1.1,0,1.9,0.4,2.4,1.3h0v-5h1.3V38z M194.4,34.4v-1.2c0-0.6-0.2-1.2-0.6-1.6c-0.4-0.4-1-0.7-1.6-0.7
			c-0.8,0-1.4,0.3-1.8,0.9c-0.4,0.6-0.7,1.4-0.7,2.4c0,0.9,0.2,1.6,0.6,2.2s1,0.8,1.7,0.8c0.7,0,1.3-0.3,1.7-0.8
			S194.4,35.2,194.4,34.4z"/>
		<path class="st3" d="M204.7,34.3h-5.6c0,0.9,0.3,1.6,0.7,2.1c0.5,0.5,1.1,0.7,1.9,0.7c0.9,0,1.7-0.3,2.5-0.9v1.2
			c-0.7,0.5-1.6,0.8-2.8,0.8c-1.1,0-2-0.4-2.7-1.1c-0.6-0.7-1-1.7-1-3.1c0-1.2,0.4-2.3,1.1-3c0.7-0.8,1.6-1.2,2.6-1.2s1.9,0.3,2.4,1
			c0.6,0.7,0.9,1.6,0.9,2.8V34.3z M203.4,33.2c0-0.7-0.2-1.3-0.5-1.7s-0.8-0.6-1.5-0.6c-0.6,0-1.1,0.2-1.5,0.6s-0.7,1-0.8,1.7H203.4
			z"/>
		<path class="st3" d="M206.2,37.7v-1.4c0.7,0.5,1.5,0.8,2.3,0.8c1.1,0,1.7-0.4,1.7-1.1c0-0.2,0-0.4-0.1-0.5
			c-0.1-0.1-0.2-0.3-0.4-0.4s-0.4-0.2-0.6-0.3c-0.2-0.1-0.5-0.2-0.7-0.3c-0.4-0.1-0.7-0.3-0.9-0.4c-0.3-0.1-0.5-0.3-0.7-0.5
			s-0.3-0.4-0.4-0.6c-0.1-0.2-0.1-0.5-0.1-0.8c0-0.4,0.1-0.7,0.3-1s0.4-0.5,0.7-0.7c0.3-0.2,0.6-0.3,1-0.4s0.7-0.1,1.1-0.1
			c0.7,0,1.3,0.1,1.9,0.4v1.3c-0.6-0.4-1.3-0.6-2-0.6c-0.2,0-0.5,0-0.6,0.1c-0.2,0.1-0.4,0.1-0.5,0.2c-0.1,0.1-0.2,0.2-0.3,0.4
			c-0.1,0.1-0.1,0.3-0.1,0.5c0,0.2,0,0.4,0.1,0.5c0.1,0.1,0.2,0.3,0.3,0.4c0.1,0.1,0.3,0.2,0.5,0.3c0.2,0.1,0.4,0.2,0.7,0.3
			c0.4,0.1,0.7,0.3,1,0.4s0.5,0.3,0.7,0.5c0.2,0.2,0.4,0.4,0.5,0.6c0.1,0.2,0.2,0.5,0.2,0.8c0,0.4-0.1,0.7-0.3,1
			c-0.2,0.3-0.4,0.5-0.7,0.7c-0.3,0.2-0.6,0.3-1,0.4c-0.4,0.1-0.8,0.1-1.2,0.1C207.5,38.2,206.8,38,206.2,37.7z"/>
		<path class="st3" d="M214.8,36.8L214.8,36.8l0,4.8h-1.3V30h1.3v1.4h0c0.6-1.1,1.6-1.6,2.8-1.6c1,0,1.8,0.4,2.4,1.1
			s0.9,1.7,0.9,2.9c0,1.3-0.3,2.4-1,3.2c-0.7,0.8-1.5,1.2-2.7,1.2C216.1,38.2,215.3,37.7,214.8,36.8z M214.7,33.6v1.1
			c0,0.7,0.2,1.2,0.6,1.7s1,0.7,1.6,0.7c0.8,0,1.4-0.3,1.8-0.9c0.4-0.6,0.7-1.4,0.7-2.5c0-0.9-0.2-1.6-0.6-2.1
			c-0.4-0.5-1-0.8-1.7-0.8c-0.7,0-1.3,0.3-1.8,0.8S214.7,32.8,214.7,33.6z"/>
		<path class="st3" d="M224.1,38h-1.3V26.2h1.3V38z"/>
		<path class="st3" d="M227.4,28c-0.2,0-0.4-0.1-0.6-0.2c-0.2-0.2-0.2-0.4-0.2-0.6s0.1-0.4,0.2-0.6c0.2-0.2,0.4-0.2,0.6-0.2
			c0.2,0,0.4,0.1,0.6,0.2s0.2,0.4,0.2,0.6c0,0.2-0.1,0.4-0.2,0.6S227.6,28,227.4,28z M228,38h-1.3v-8h1.3V38z"/>
		<path class="st3" d="M237,34.3h-5.6c0,0.9,0.3,1.6,0.7,2.1c0.5,0.5,1.1,0.7,1.9,0.7c0.9,0,1.7-0.3,2.5-0.9v1.2
			c-0.7,0.5-1.6,0.8-2.8,0.8c-1.1,0-2-0.4-2.7-1.1c-0.6-0.7-1-1.7-1-3.1c0-1.2,0.4-2.3,1.1-3c0.7-0.8,1.6-1.2,2.6-1.2s1.9,0.3,2.4,1
			c0.6,0.7,0.9,1.6,0.9,2.8V34.3z M235.7,33.2c0-0.7-0.2-1.3-0.5-1.7s-0.8-0.6-1.5-0.6c-0.6,0-1.1,0.2-1.5,0.6s-0.7,1-0.8,1.7H235.7
			z"/>
		<path class="st3" d="M245.8,37.4c0,2.9-1.4,4.4-4.2,4.4c-1,0-1.9-0.2-2.6-0.6v-1.3c0.9,0.5,1.8,0.8,2.6,0.8c2,0,3-1,3-3.1v-0.9h0
			c-0.6,1-1.5,1.5-2.8,1.5c-1,0-1.8-0.4-2.4-1.1c-0.6-0.7-0.9-1.7-0.9-2.9c0-1.4,0.3-2.4,1-3.2c0.7-0.8,1.5-1.2,2.7-1.2
			c1.1,0,1.9,0.4,2.4,1.3h0V30h1.3V37.4z M244.5,34.4v-1.2c0-0.6-0.2-1.2-0.6-1.6s-1-0.7-1.6-0.7c-0.8,0-1.4,0.3-1.9,0.9
			c-0.4,0.6-0.7,1.4-0.7,2.4c0,0.9,0.2,1.6,0.6,2.1s1,0.8,1.7,0.8c0.7,0,1.3-0.3,1.8-0.8C244.3,35.8,244.5,35.2,244.5,34.4z"/>
		<path class="st3" d="M254.9,38h-1.3v-1.3h0c-0.5,1-1.4,1.5-2.5,1.5c-1.9,0-2.9-1.1-2.9-3.4V30h1.3v4.6c0,1.7,0.6,2.5,1.9,2.5
			c0.6,0,1.1-0.2,1.5-0.7c0.4-0.5,0.6-1.1,0.6-1.8V30h1.3V38z"/>
		<path class="st3" d="M263.9,34.3h-5.6c0,0.9,0.3,1.6,0.7,2.1c0.5,0.5,1.1,0.7,1.9,0.7c0.9,0,1.7-0.3,2.5-0.9v1.2
			c-0.7,0.5-1.6,0.8-2.8,0.8c-1.1,0-2-0.4-2.7-1.1c-0.6-0.7-1-1.7-1-3.1c0-1.2,0.4-2.3,1.1-3c0.7-0.8,1.6-1.2,2.6-1.2s1.9,0.3,2.4,1
			c0.6,0.7,0.9,1.6,0.9,2.8V34.3z M262.6,33.2c0-0.7-0.2-1.3-0.5-1.7s-0.8-0.6-1.5-0.6c-0.6,0-1.1,0.2-1.5,0.6s-0.7,1-0.8,1.7H262.6
			z"/>
	</g>
	<g class="st2">
		<path class="st3" d="M115.1,90h-1.5l-1.2-3.1h-4.8l-1.1,3.1h-1.5l4.3-11.2h1.4L115.1,90z M112.1,85.7l-1.8-4.8
			c-0.1-0.2-0.1-0.4-0.2-0.8h0c-0.1,0.3-0.1,0.6-0.2,0.8l-1.7,4.8H112.1z"/>
		<path class="st3" d="M120.3,89.9c-0.3,0.2-0.7,0.2-1.2,0.2c-1.4,0-2.1-0.8-2.1-2.3v-4.7h-1.4V82h1.4v-2l1.3-0.4V82h2v1.1h-2v4.5
			c0,0.5,0.1,0.9,0.3,1.1c0.2,0.2,0.5,0.3,0.9,0.3c0.3,0,0.6-0.1,0.8-0.3V89.9z"/>
		<path class="st3" d="M126.2,83.3c-0.2-0.2-0.5-0.3-1-0.3c-0.5,0-1,0.3-1.4,0.8s-0.6,1.2-0.6,2.1V90H122v-8h1.3v1.6h0
			c0.2-0.6,0.5-1,0.8-1.3s0.8-0.5,1.3-0.5c0.3,0,0.6,0,0.8,0.1V83.3z"/>
		<path class="st3" d="M128.3,80c-0.2,0-0.4-0.1-0.6-0.2c-0.2-0.2-0.2-0.4-0.2-0.6s0.1-0.4,0.2-0.6c0.2-0.2,0.4-0.2,0.6-0.2
			c0.2,0,0.4,0.1,0.6,0.2s0.2,0.4,0.2,0.6c0,0.2-0.1,0.4-0.2,0.6S128.5,80,128.3,80z M128.9,90h-1.3v-8h1.3V90z"/>
		<path class="st3" d="M132.8,88.8L132.8,88.8l0,1.2h-1.3V78.2h1.3v5.2h0c0.6-1.1,1.6-1.6,2.8-1.6c1,0,1.8,0.4,2.4,1.1
			c0.6,0.7,0.9,1.7,0.9,2.9c0,1.3-0.3,2.4-1,3.2c-0.7,0.8-1.5,1.2-2.7,1.2C134.1,90.2,133.3,89.7,132.8,88.8z M132.8,85.6v1.1
			c0,0.7,0.2,1.2,0.6,1.7s1,0.7,1.6,0.7c0.8,0,1.4-0.3,1.8-0.9c0.4-0.6,0.7-1.4,0.7-2.5c0-0.9-0.2-1.6-0.6-2.1
			c-0.4-0.5-1-0.8-1.7-0.8c-0.7,0-1.3,0.3-1.8,0.8S132.8,84.8,132.8,85.6z"/>
		<path class="st3" d="M147.4,90h-1.3v-1.3h0c-0.5,1-1.4,1.5-2.5,1.5c-1.9,0-2.9-1.1-2.9-3.4V82h1.3v4.6c0,1.7,0.6,2.5,1.9,2.5
			c0.6,0,1.1-0.2,1.5-0.7c0.4-0.5,0.6-1.1,0.6-1.8V82h1.3V90z"/>
		<path class="st3" d="M153.6,89.9c-0.3,0.2-0.7,0.2-1.2,0.2c-1.4,0-2.1-0.8-2.1-2.3v-4.7H149V82h1.4v-2l1.3-0.4V82h2v1.1h-2v4.5
			c0,0.5,0.1,0.9,0.3,1.1c0.2,0.2,0.5,0.3,0.9,0.3c0.3,0,0.6-0.1,0.8-0.3V89.9z"/>
		<path class="st3" d="M158.7,90.2c-1.2,0-2.1-0.4-2.8-1.1c-0.7-0.7-1.1-1.7-1.1-3c0-1.3,0.4-2.4,1.1-3.1s1.7-1.1,3-1.1
			c1.2,0,2.1,0.4,2.8,1.1c0.7,0.7,1,1.8,1,3.1c0,1.3-0.4,2.3-1.1,3.1C160.9,89.8,159.9,90.2,158.7,90.2z M158.8,82.9
			c-0.8,0-1.5,0.3-2,0.8c-0.5,0.6-0.7,1.3-0.7,2.3c0,0.9,0.2,1.7,0.7,2.2s1.1,0.8,1.9,0.8c0.8,0,1.5-0.3,1.9-0.8s0.7-1.3,0.7-2.3
			c0-1-0.2-1.8-0.7-2.3S159.6,82.9,158.8,82.9z"/>
		<path class="st3" d="M169.1,90h-1.3v-9.7c-0.1,0.1-0.2,0.2-0.4,0.3c-0.2,0.1-0.4,0.3-0.6,0.4c-0.2,0.1-0.5,0.2-0.8,0.4
			c-0.3,0.1-0.5,0.2-0.8,0.3v-1.3c0.3-0.1,0.6-0.2,0.9-0.3c0.3-0.1,0.6-0.3,0.9-0.4s0.6-0.3,0.9-0.5c0.3-0.2,0.5-0.4,0.7-0.5h0.5V90
			z"/>
		<path class="st3" d="M173.8,83.6c-0.2,0-0.4-0.1-0.6-0.3c-0.2-0.2-0.3-0.4-0.3-0.6s0.1-0.4,0.3-0.6c0.2-0.2,0.4-0.2,0.6-0.2
			c0.2,0,0.5,0.1,0.6,0.2s0.3,0.4,0.3,0.6s-0.1,0.4-0.3,0.6S174,83.6,173.8,83.6z M173.8,90.2c-0.2,0-0.4-0.1-0.6-0.3
			c-0.2-0.2-0.3-0.4-0.3-0.6s0.1-0.4,0.3-0.6c0.2-0.2,0.4-0.3,0.6-0.3c0.2,0,0.5,0.1,0.6,0.3s0.3,0.4,0.3,0.6s-0.1,0.4-0.3,0.6
			S174,90.2,173.8,90.2z"/>
		<path class="st3" d="M188,80h-3.2v10h-1.3V80h-3.2v-1.2h7.8V80z"/>
		<path class="st3" d="M190.2,80c-0.2,0-0.4-0.1-0.6-0.2c-0.2-0.2-0.2-0.4-0.2-0.6s0.1-0.4,0.2-0.6c0.2-0.2,0.4-0.2,0.6-0.2
			c0.2,0,0.4,0.1,0.6,0.2s0.2,0.4,0.2,0.6c0,0.2-0.1,0.4-0.2,0.6S190.5,80,190.2,80z M190.9,90h-1.3v-8h1.3V90z"/>
		<path class="st3" d="M194.8,88.8L194.8,88.8l0,4.8h-1.3V82h1.3v1.4h0c0.6-1.1,1.6-1.6,2.8-1.6c1,0,1.8,0.4,2.4,1.1
			s0.9,1.7,0.9,2.9c0,1.3-0.3,2.4-1,3.2c-0.7,0.8-1.5,1.2-2.7,1.2C196.1,90.2,195.3,89.7,194.8,88.8z M194.8,85.6v1.1
			c0,0.7,0.2,1.2,0.6,1.7s1,0.7,1.6,0.7c0.8,0,1.4-0.3,1.8-0.9c0.4-0.6,0.7-1.4,0.7-2.5c0-0.9-0.2-1.6-0.6-2.1
			c-0.4-0.5-1-0.8-1.7-0.8c-0.7,0-1.3,0.3-1.8,0.8S194.8,84.8,194.8,85.6z"/>
		<path class="st3" d="M206.2,90.2c-1.2,0-2.1-0.4-2.8-1.1c-0.7-0.7-1.1-1.7-1.1-3c0-1.3,0.4-2.4,1.1-3.1s1.7-1.1,3-1.1
			c1.2,0,2.1,0.4,2.8,1.1c0.7,0.7,1,1.8,1,3.1c0,1.3-0.4,2.3-1.1,3.1C208.4,89.8,207.4,90.2,206.2,90.2z M206.3,82.9
			c-0.8,0-1.5,0.3-2,0.8c-0.5,0.6-0.7,1.3-0.7,2.3c0,0.9,0.2,1.7,0.7,2.2s1.1,0.8,1.9,0.8c0.8,0,1.5-0.3,1.9-0.8s0.7-1.3,0.7-2.3
			c0-1-0.2-1.8-0.7-2.3S207.1,82.9,206.3,82.9z"/>
	</g>
	<g class="st2">
		<path class="st3" d="M115.1,114h-1.5l-1.2-3.1h-4.8l-1.1,3.1h-1.5l4.3-11.2h1.4L115.1,114z M112.1,109.7l-1.8-4.8
			c-0.1-0.2-0.1-0.4-0.2-0.8h0c-0.1,0.3-0.1,0.6-0.2,0.8l-1.7,4.8H112.1z"/>
		<path class="st3" d="M120.3,113.9c-0.3,0.2-0.7,0.2-1.2,0.2c-1.4,0-2.1-0.8-2.1-2.3v-4.7h-1.4V106h1.4v-2l1.3-0.4v2.4h2v1.1h-2
			v4.5c0,0.5,0.1,0.9,0.3,1.1c0.2,0.2,0.5,0.3,0.9,0.3c0.3,0,0.6-0.1,0.8-0.3V113.9z"/>
		<path class="st3" d="M126.2,107.3c-0.2-0.2-0.5-0.3-1-0.3c-0.5,0-1,0.3-1.4,0.8s-0.6,1.2-0.6,2.1v4.1H122v-8h1.3v1.6h0
			c0.2-0.6,0.5-1,0.8-1.3s0.8-0.5,1.3-0.5c0.3,0,0.6,0,0.8,0.1V107.3z"/>
		<path class="st3" d="M128.3,104c-0.2,0-0.4-0.1-0.6-0.2c-0.2-0.2-0.2-0.4-0.2-0.6s0.1-0.4,0.2-0.6c0.2-0.2,0.4-0.2,0.6-0.2
			c0.2,0,0.4,0.1,0.6,0.2s0.2,0.4,0.2,0.6c0,0.2-0.1,0.4-0.2,0.6S128.5,104,128.3,104z M128.9,114h-1.3v-8h1.3V114z"/>
		<path class="st3" d="M132.8,112.8L132.8,112.8l0,1.2h-1.3v-11.8h1.3v5.2h0c0.6-1.1,1.6-1.6,2.8-1.6c1,0,1.8,0.4,2.4,1.1
			c0.6,0.7,0.9,1.7,0.9,2.9c0,1.3-0.3,2.4-1,3.2c-0.7,0.8-1.5,1.2-2.7,1.2C134.1,114.2,133.3,113.7,132.8,112.8z M132.8,109.6v1.1
			c0,0.7,0.2,1.2,0.6,1.7s1,0.7,1.6,0.7c0.8,0,1.4-0.3,1.8-0.9c0.4-0.6,0.7-1.4,0.7-2.5c0-0.9-0.2-1.6-0.6-2.1
			c-0.4-0.5-1-0.8-1.7-0.8c-0.7,0-1.3,0.3-1.8,0.8S132.8,108.8,132.8,109.6z"/>
		<path class="st3" d="M147.4,114h-1.3v-1.3h0c-0.5,1-1.4,1.5-2.5,1.5c-1.9,0-2.9-1.1-2.9-3.4V106h1.3v4.6c0,1.7,0.6,2.5,1.9,2.5
			c0.6,0,1.1-0.2,1.5-0.7c0.4-0.5,0.6-1.1,0.6-1.8V106h1.3V114z"/>
		<path class="st3" d="M153.6,113.9c-0.3,0.2-0.7,0.2-1.2,0.2c-1.4,0-2.1-0.8-2.1-2.3v-4.7H149V106h1.4v-2l1.3-0.4v2.4h2v1.1h-2v4.5
			c0,0.5,0.1,0.9,0.3,1.1c0.2,0.2,0.5,0.3,0.9,0.3c0.3,0,0.6-0.1,0.8-0.3V113.9z"/>
		<path class="st3" d="M158.7,114.2c-1.2,0-2.1-0.4-2.8-1.1c-0.7-0.7-1.1-1.7-1.1-3c0-1.3,0.4-2.4,1.1-3.1s1.7-1.1,3-1.1
			c1.2,0,2.1,0.4,2.8,1.1c0.7,0.7,1,1.8,1,3.1c0,1.3-0.4,2.3-1.1,3.1C160.9,113.8,159.9,114.2,158.7,114.2z M158.8,106.9
			c-0.8,0-1.5,0.3-2,0.8c-0.5,0.6-0.7,1.3-0.7,2.3c0,0.9,0.2,1.7,0.7,2.2s1.1,0.8,1.9,0.8c0.8,0,1.5-0.3,1.9-0.8s0.7-1.3,0.7-2.3
			c0-1-0.2-1.8-0.7-2.3S159.6,106.9,158.8,106.9z"/>
		<path class="st3" d="M169.5,105.7c0-0.3-0.1-0.6-0.2-0.9c-0.1-0.3-0.3-0.5-0.4-0.6c-0.2-0.2-0.4-0.3-0.7-0.4s-0.5-0.1-0.8-0.1
			c-0.2,0-0.5,0-0.7,0.1c-0.2,0.1-0.5,0.2-0.7,0.3s-0.4,0.3-0.7,0.4s-0.4,0.4-0.6,0.6v-1.4c0.4-0.3,0.8-0.6,1.2-0.8s1-0.3,1.6-0.3
			c0.5,0,0.9,0.1,1.3,0.2s0.7,0.3,1,0.6c0.3,0.3,0.5,0.6,0.7,0.9s0.2,0.8,0.2,1.3c0,0.4-0.1,0.8-0.2,1.2s-0.3,0.7-0.5,1
			c-0.2,0.3-0.5,0.6-0.8,0.9s-0.7,0.6-1.1,0.9c-0.5,0.4-1,0.7-1.3,1c-0.3,0.3-0.6,0.5-0.8,0.7c-0.2,0.2-0.3,0.5-0.4,0.7
			c-0.1,0.2-0.1,0.5-0.1,0.8h5.6v1.1h-6.9v-0.6c0-0.5,0.1-0.9,0.2-1.3c0.1-0.4,0.3-0.7,0.5-1c0.2-0.3,0.6-0.7,0.9-1
			c0.4-0.3,0.9-0.7,1.4-1.1c0.4-0.3,0.7-0.6,1-0.8s0.5-0.5,0.7-0.8c0.2-0.3,0.3-0.5,0.4-0.8S169.5,106,169.5,105.7z"/>
		<path class="st3" d="M173.8,107.6c-0.2,0-0.4-0.1-0.6-0.3c-0.2-0.2-0.3-0.4-0.3-0.6s0.1-0.4,0.3-0.6c0.2-0.2,0.4-0.2,0.6-0.2
			c0.2,0,0.5,0.1,0.6,0.2s0.3,0.4,0.3,0.6s-0.1,0.4-0.3,0.6S174,107.6,173.8,107.6z M173.8,114.2c-0.2,0-0.4-0.1-0.6-0.3
			c-0.2-0.2-0.3-0.4-0.3-0.6s0.1-0.4,0.3-0.6c0.2-0.2,0.4-0.3,0.6-0.3c0.2,0,0.5,0.1,0.6,0.3s0.3,0.4,0.3,0.6s-0.1,0.4-0.3,0.6
			S174,114.2,173.8,114.2z"/>
		<path class="st3" d="M188,104h-3.2v10h-1.3v-10h-3.2v-1.2h7.8V104z"/>
		<path class="st3" d="M190.2,104c-0.2,0-0.4-0.1-0.6-0.2c-0.2-0.2-0.2-0.4-0.2-0.6s0.1-0.4,0.2-0.6c0.2-0.2,0.4-0.2,0.6-0.2
			c0.2,0,0.4,0.1,0.6,0.2s0.2,0.4,0.2,0.6c0,0.2-0.1,0.4-0.2,0.6S190.5,104,190.2,104z M190.9,114h-1.3v-8h1.3V114z"/>
		<path class="st3" d="M194.8,112.8L194.8,112.8l0,4.8h-1.3V106h1.3v1.4h0c0.6-1.1,1.6-1.6,2.8-1.6c1,0,1.8,0.4,2.4,1.1
			s0.9,1.7,0.9,2.9c0,1.3-0.3,2.4-1,3.2c-0.7,0.8-1.5,1.2-2.7,1.2C196.1,114.2,195.3,113.7,194.8,112.8z M194.8,109.6v1.1
			c0,0.7,0.2,1.2,0.6,1.7s1,0.7,1.6,0.7c0.8,0,1.4-0.3,1.8-0.9c0.4-0.6,0.7-1.4,0.7-2.5c0-0.9-0.2-1.6-0.6-2.1
			c-0.4-0.5-1-0.8-1.7-0.8c-0.7,0-1.3,0.3-1.8,0.8S194.8,108.8,194.8,109.6z"/>
		<path class="st3" d="M206.2,114.2c-1.2,0-2.1-0.4-2.8-1.1c-0.7-0.7-1.1-1.7-1.1-3c0-1.3,0.4-2.4,1.1-3.1s1.7-1.1,3-1.1
			c1.2,0,2.1,0.4,2.8,1.1c0.7,0.7,1,1.8,1,3.1c0,1.3-0.4,2.3-1.1,3.1C208.4,113.8,207.4,114.2,206.2,114.2z M206.3,106.9
			c-0.8,0-1.5,0.3-2,0.8c-0.5,0.6-0.7,1.3-0.7,2.3c0,0.9,0.2,1.7,0.7,2.2s1.1,0.8,1.9,0.8c0.8,0,1.5-0.3,1.9-0.8s0.7-1.3,0.7-2.3
			c0-1-0.2-1.8-0.7-2.3S207.1,106.9,206.3,106.9z"/>
	</g>
	<g class="st2">
		<path class="st3" d="M115.1,138h-1.5l-1.2-3.1h-4.8l-1.1,3.1h-1.5l4.3-11.2h1.4L115.1,138z M112.1,133.7l-1.8-4.8
			c-0.1-0.2-0.1-0.4-0.2-0.8h0c-0.1,0.3-0.1,0.6-0.2,0.8l-1.7,4.8H112.1z"/>
		<path class="st3" d="M120.3,137.9c-0.3,0.2-0.7,0.2-1.2,0.2c-1.4,0-2.1-0.8-2.1-2.3v-4.7h-1.4V130h1.4v-2l1.3-0.4v2.4h2v1.1h-2
			v4.5c0,0.5,0.1,0.9,0.3,1.1c0.2,0.2,0.5,0.3,0.9,0.3c0.3,0,0.6-0.1,0.8-0.3V137.9z"/>
		<path class="st3" d="M126.2,131.3c-0.2-0.2-0.5-0.3-1-0.3c-0.5,0-1,0.3-1.4,0.8s-0.6,1.2-0.6,2.1v4.1H122v-8h1.3v1.6h0
			c0.2-0.6,0.5-1,0.8-1.3s0.8-0.5,1.3-0.5c0.3,0,0.6,0,0.8,0.1V131.3z"/>
		<path class="st3" d="M128.3,128c-0.2,0-0.4-0.1-0.6-0.2c-0.2-0.2-0.2-0.4-0.2-0.6s0.1-0.4,0.2-0.6c0.2-0.2,0.4-0.2,0.6-0.2
			c0.2,0,0.4,0.1,0.6,0.2s0.2,0.4,0.2,0.6c0,0.2-0.1,0.4-0.2,0.6S128.5,128,128.3,128z M128.9,138h-1.3v-8h1.3V138z"/>
		<path class="st3" d="M132.8,136.8L132.8,136.8l0,1.2h-1.3v-11.8h1.3v5.2h0c0.6-1.1,1.6-1.6,2.8-1.6c1,0,1.8,0.4,2.4,1.1
			c0.6,0.7,0.9,1.7,0.9,2.9c0,1.3-0.3,2.4-1,3.2c-0.7,0.8-1.5,1.2-2.7,1.2C134.1,138.2,133.3,137.7,132.8,136.8z M132.8,133.6v1.1
			c0,0.7,0.2,1.2,0.6,1.7s1,0.7,1.6,0.7c0.8,0,1.4-0.3,1.8-0.9c0.4-0.6,0.7-1.4,0.7-2.5c0-0.9-0.2-1.6-0.6-2.1
			c-0.4-0.5-1-0.8-1.7-0.8c-0.7,0-1.3,0.3-1.8,0.8S132.8,132.8,132.8,133.6z"/>
		<path class="st3" d="M147.4,138h-1.3v-1.3h0c-0.5,1-1.4,1.5-2.5,1.5c-1.9,0-2.9-1.1-2.9-3.4V130h1.3v4.6c0,1.7,0.6,2.5,1.9,2.5
			c0.6,0,1.1-0.2,1.5-0.7c0.4-0.5,0.6-1.1,0.6-1.8V130h1.3V138z"/>
		<path class="st3" d="M153.6,137.9c-0.3,0.2-0.7,0.2-1.2,0.2c-1.4,0-2.1-0.8-2.1-2.3v-4.7H149V130h1.4v-2l1.3-0.4v2.4h2v1.1h-2v4.5
			c0,0.5,0.1,0.9,0.3,1.1c0.2,0.2,0.5,0.3,0.9,0.3c0.3,0,0.6-0.1,0.8-0.3V137.9z"/>
		<path class="st3" d="M158.7,138.2c-1.2,0-2.1-0.4-2.8-1.1c-0.7-0.7-1.1-1.7-1.1-3c0-1.3,0.4-2.4,1.1-3.1s1.7-1.1,3-1.1
			c1.2,0,2.1,0.4,2.8,1.1c0.7,0.7,1,1.8,1,3.1c0,1.3-0.4,2.3-1.1,3.1C160.9,137.8,159.9,138.2,158.7,138.2z M158.8,130.9
			c-0.8,0-1.5,0.3-2,0.8c-0.5,0.6-0.7,1.3-0.7,2.3c0,0.9,0.2,1.7,0.7,2.2s1.1,0.8,1.9,0.8c0.8,0,1.5-0.3,1.9-0.8s0.7-1.3,0.7-2.3
			c0-1-0.2-1.8-0.7-2.3S159.6,130.9,158.8,130.9z"/>
		<path class="st3" d="M170.9,134.8c0,0.5-0.1,1-0.3,1.4c-0.2,0.4-0.5,0.8-0.8,1.1c-0.3,0.3-0.8,0.5-1.2,0.7s-1,0.2-1.6,0.2
			c-1.1,0-1.9-0.2-2.5-0.6v-1.4c0.8,0.6,1.6,0.9,2.6,0.9c0.4,0,0.7,0,1.1-0.1c0.3-0.1,0.6-0.2,0.8-0.4s0.4-0.4,0.5-0.7
			c0.1-0.3,0.2-0.6,0.2-0.9c0-1.5-1-2.2-3.1-2.2h-0.9v-1.1h0.9c1.8,0,2.8-0.7,2.8-2.1c0-1.3-0.7-1.9-2.1-1.9c-0.8,0-1.5,0.3-2.2,0.8
			v-1.2c0.7-0.4,1.6-0.6,2.5-0.6c0.5,0,0.9,0.1,1.3,0.2c0.4,0.1,0.7,0.3,1,0.5c0.3,0.2,0.5,0.5,0.6,0.8s0.2,0.7,0.2,1.1
			c0,1.5-0.7,2.4-2.2,2.8v0c0.4,0,0.7,0.1,1.1,0.3c0.3,0.1,0.6,0.3,0.8,0.6s0.4,0.5,0.6,0.8S170.9,134.5,170.9,134.8z"/>
		<path class="st3" d="M173.8,131.6c-0.2,0-0.4-0.1-0.6-0.3c-0.2-0.2-0.3-0.4-0.3-0.6s0.1-0.4,0.3-0.6c0.2-0.2,0.4-0.2,0.6-0.2
			c0.2,0,0.5,0.1,0.6,0.2s0.3,0.4,0.3,0.6s-0.1,0.4-0.3,0.6S174,131.6,173.8,131.6z M173.8,138.2c-0.2,0-0.4-0.1-0.6-0.3
			c-0.2-0.2-0.3-0.4-0.3-0.6s0.1-0.4,0.3-0.6c0.2-0.2,0.4-0.3,0.6-0.3c0.2,0,0.5,0.1,0.6,0.3s0.3,0.4,0.3,0.6s-0.1,0.4-0.3,0.6
			S174,138.2,173.8,138.2z"/>
		<path class="st3" d="M188,128h-3.2v10h-1.3v-10h-3.2v-1.2h7.8V128z"/>
		<path class="st3" d="M190.2,128c-0.2,0-0.4-0.1-0.6-0.2c-0.2-0.2-0.2-0.4-0.2-0.6s0.1-0.4,0.2-0.6c0.2-0.2,0.4-0.2,0.6-0.2
			c0.2,0,0.4,0.1,0.6,0.2s0.2,0.4,0.2,0.6c0,0.2-0.1,0.4-0.2,0.6S190.5,128,190.2,128z M190.9,138h-1.3v-8h1.3V138z"/>
		<path class="st3" d="M194.8,136.8L194.8,136.8l0,4.8h-1.3V130h1.3v1.4h0c0.6-1.1,1.6-1.6,2.8-1.6c1,0,1.8,0.4,2.4,1.1
			s0.9,1.7,0.9,2.9c0,1.3-0.3,2.4-1,3.2c-0.7,0.8-1.5,1.2-2.7,1.2C196.1,138.2,195.3,137.7,194.8,136.8z M194.8,133.6v1.1
			c0,0.7,0.2,1.2,0.6,1.7s1,0.7,1.6,0.7c0.8,0,1.4-0.3,1.8-0.9c0.4-0.6,0.7-1.4,0.7-2.5c0-0.9-0.2-1.6-0.6-2.1
			c-0.4-0.5-1-0.8-1.7-0.8c-0.7,0-1.3,0.3-1.8,0.8S194.8,132.8,194.8,133.6z"/>
		<path class="st3" d="M206.2,138.2c-1.2,0-2.1-0.4-2.8-1.1c-0.7-0.7-1.1-1.7-1.1-3c0-1.3,0.4-2.4,1.1-3.1s1.7-1.1,3-1.1
			c1.2,0,2.1,0.4,2.8,1.1c0.7,0.7,1,1.8,1,3.1c0,1.3-0.4,2.3-1.1,3.1C208.4,137.8,207.4,138.2,206.2,138.2z M206.3,130.9
			c-0.8,0-1.5,0.3-2,0.8c-0.5,0.6-0.7,1.3-0.7,2.3c0,0.9,0.2,1.7,0.7,2.2s1.1,0.8,1.9,0.8c0.8,0,1.5-0.3,1.9-0.8s0.7-1.3,0.7-2.3
			c0-1-0.2-1.8-0.7-2.3S207.1,130.9,206.3,130.9z"/>
	</g>
	<g class="st2">
		<path class="st3" d="M115.1,162h-1.5l-1.2-3.1h-4.8l-1.1,3.1h-1.5l4.3-11.2h1.4L115.1,162z M112.1,157.7l-1.8-4.8
			c-0.1-0.2-0.1-0.4-0.2-0.8h0c-0.1,0.3-0.1,0.6-0.2,0.8l-1.7,4.8H112.1z"/>
		<path class="st3" d="M120.3,161.9c-0.3,0.2-0.7,0.2-1.2,0.2c-1.4,0-2.1-0.8-2.1-2.3v-4.7h-1.4V154h1.4v-2l1.3-0.4v2.4h2v1.1h-2
			v4.5c0,0.5,0.1,0.9,0.3,1.1c0.2,0.2,0.5,0.3,0.9,0.3c0.3,0,0.6-0.1,0.8-0.3V161.9z"/>
		<path class="st3" d="M126.2,155.3c-0.2-0.2-0.5-0.3-1-0.3c-0.5,0-1,0.3-1.4,0.8s-0.6,1.2-0.6,2.1v4.1H122v-8h1.3v1.6h0
			c0.2-0.6,0.5-1,0.8-1.3s0.8-0.5,1.3-0.5c0.3,0,0.6,0,0.8,0.1V155.3z"/>
		<path class="st3" d="M128.3,152c-0.2,0-0.4-0.1-0.6-0.2c-0.2-0.2-0.2-0.4-0.2-0.6s0.1-0.4,0.2-0.6c0.2-0.2,0.4-0.2,0.6-0.2
			c0.2,0,0.4,0.1,0.6,0.2s0.2,0.4,0.2,0.6c0,0.2-0.1,0.4-0.2,0.6S128.5,152,128.3,152z M128.9,162h-1.3v-8h1.3V162z"/>
		<path class="st3" d="M132.8,160.8L132.8,160.8l0,1.2h-1.3v-11.8h1.3v5.2h0c0.6-1.1,1.6-1.6,2.8-1.6c1,0,1.8,0.4,2.4,1.1
			c0.6,0.7,0.9,1.7,0.9,2.9c0,1.3-0.3,2.4-1,3.2c-0.7,0.8-1.5,1.2-2.7,1.2C134.1,162.2,133.3,161.7,132.8,160.8z M132.8,157.6v1.1
			c0,0.7,0.2,1.2,0.6,1.7s1,0.7,1.6,0.7c0.8,0,1.4-0.3,1.8-0.9c0.4-0.6,0.7-1.4,0.7-2.5c0-0.9-0.2-1.6-0.6-2.1
			c-0.4-0.5-1-0.8-1.7-0.8c-0.7,0-1.3,0.3-1.8,0.8S132.8,156.8,132.8,157.6z"/>
		<path class="st3" d="M147.4,162h-1.3v-1.3h0c-0.5,1-1.4,1.5-2.5,1.5c-1.9,0-2.9-1.1-2.9-3.4V154h1.3v4.6c0,1.7,0.6,2.5,1.9,2.5
			c0.6,0,1.1-0.2,1.5-0.7c0.4-0.5,0.6-1.1,0.6-1.8V154h1.3V162z"/>
		<path class="st3" d="M153.6,161.9c-0.3,0.2-0.7,0.2-1.2,0.2c-1.4,0-2.1-0.8-2.1-2.3v-4.7H149V154h1.4v-2l1.3-0.4v2.4h2v1.1h-2v4.5
			c0,0.5,0.1,0.9,0.3,1.1c0.2,0.2,0.5,0.3,0.9,0.3c0.3,0,0.6-0.1,0.8-0.3V161.9z"/>
		<path class="st3" d="M158.7,162.2c-1.2,0-2.1-0.4-2.8-1.1c-0.7-0.7-1.1-1.7-1.1-3c0-1.3,0.4-2.4,1.1-3.1s1.7-1.1,3-1.1
			c1.2,0,2.1,0.4,2.8,1.1c0.7,0.7,1,1.8,1,3.1c0,1.3-0.4,2.3-1.1,3.1C160.9,161.8,159.9,162.2,158.7,162.2z M158.8,154.9
			c-0.8,0-1.5,0.3-2,0.8c-0.5,0.6-0.7,1.3-0.7,2.3c0,0.9,0.2,1.7,0.7,2.2s1.1,0.8,1.9,0.8c0.8,0,1.5-0.3,1.9-0.8s0.7-1.3,0.7-2.3
			c0-1-0.2-1.8-0.7-2.3S159.6,154.9,158.8,154.9z"/>
		<path class="st3" d="M170.1,150.8v7.4h1.4v1.2h-1.4v2.6h-1.3v-2.6h-5.3v-1.1c0.5-0.6,1-1.1,1.5-1.8s1-1.3,1.4-1.9
			c0.5-0.6,0.9-1.3,1.3-1.9c0.4-0.6,0.7-1.3,1-1.8H170.1z M165,158.2h3.8v-5.5c-0.4,0.7-0.8,1.3-1.1,1.8c-0.3,0.5-0.7,1-1,1.5
			c-0.3,0.4-0.6,0.8-0.9,1.2C165.5,157.5,165.2,157.9,165,158.2z"/>
		<path class="st3" d="M173.8,155.6c-0.2,0-0.4-0.1-0.6-0.3c-0.2-0.2-0.3-0.4-0.3-0.6s0.1-0.4,0.3-0.6c0.2-0.2,0.4-0.2,0.6-0.2
			c0.2,0,0.5,0.1,0.6,0.2s0.3,0.4,0.3,0.6s-0.1,0.4-0.3,0.6S174,155.6,173.8,155.6z M173.8,162.2c-0.2,0-0.4-0.1-0.6-0.3
			c-0.2-0.2-0.3-0.4-0.3-0.6s0.1-0.4,0.3-0.6c0.2-0.2,0.4-0.3,0.6-0.3c0.2,0,0.5,0.1,0.6,0.3s0.3,0.4,0.3,0.6s-0.1,0.4-0.3,0.6
			S174,162.2,173.8,162.2z"/>
		<path class="st3" d="M188,152h-3.2v10h-1.3v-10h-3.2v-1.2h7.8V152z"/>
		<path class="st3" d="M190.2,152c-0.2,0-0.4-0.1-0.6-0.2c-0.2-0.2-0.2-0.4-0.2-0.6s0.1-0.4,0.2-0.6c0.2-0.2,0.4-0.2,0.6-0.2
			c0.2,0,0.4,0.1,0.6,0.2s0.2,0.4,0.2,0.6c0,0.2-0.1,0.4-0.2,0.6S190.5,152,190.2,152z M190.9,162h-1.3v-8h1.3V162z"/>
		<path class="st3" d="M194.8,160.8L194.8,160.8l0,4.8h-1.3V154h1.3v1.4h0c0.6-1.1,1.6-1.6,2.8-1.6c1,0,1.8,0.4,2.4,1.1
			s0.9,1.7,0.9,2.9c0,1.3-0.3,2.4-1,3.2c-0.7,0.8-1.5,1.2-2.7,1.2C196.1,162.2,195.3,161.7,194.8,160.8z M194.8,157.6v1.1
			c0,0.7,0.2,1.2,0.6,1.7s1,0.7,1.6,0.7c0.8,0,1.4-0.3,1.8-0.9c0.4-0.6,0.7-1.4,0.7-2.5c0-0.9-0.2-1.6-0.6-2.1
			c-0.4-0.5-1-0.8-1.7-0.8c-0.7,0-1.3,0.3-1.8,0.8S194.8,156.8,194.8,157.6z"/>
		<path class="st3" d="M206.2,162.2c-1.2,0-2.1-0.4-2.8-1.1c-0.7-0.7-1.1-1.7-1.1-3c0-1.3,0.4-2.4,1.1-3.1s1.7-1.1,3-1.1
			c1.2,0,2.1,0.4,2.8,1.1c0.7,0.7,1,1.8,1,3.1c0,1.3-0.4,2.3-1.1,3.1C208.4,161.8,207.4,162.2,206.2,162.2z M206.3,154.9
			c-0.8,0-1.5,0.3-2,0.8c-0.5,0.6-0.7,1.3-0.7,2.3c0,0.9,0.2,1.7,0.7,2.2s1.1,0.8,1.9,0.8c0.8,0,1.5-0.3,1.9-0.8s0.7-1.3,0.7-2.3
			c0-1-0.2-1.8-0.7-2.3S207.1,154.9,206.3,154.9z"/>
	</g>
	<g class="st2">
		<path class="st3" d="M115.1,186h-1.5l-1.2-3.1h-4.8l-1.1,3.1h-1.5l4.3-11.2h1.4L115.1,186z M112.1,181.7l-1.8-4.8
			c-0.1-0.2-0.1-0.4-0.2-0.8h0c-0.1,0.3-0.1,0.6-0.2,0.8l-1.7,4.8H112.1z"/>
		<path class="st3" d="M120.3,185.9c-0.3,0.2-0.7,0.2-1.2,0.2c-1.4,0-2.1-0.8-2.1-2.3v-4.7h-1.4V178h1.4v-2l1.3-0.4v2.4h2v1.1h-2
			v4.5c0,0.5,0.1,0.9,0.3,1.1c0.2,0.2,0.5,0.3,0.9,0.3c0.3,0,0.6-0.1,0.8-0.3V185.9z"/>
		<path class="st3" d="M126.2,179.3c-0.2-0.2-0.5-0.3-1-0.3c-0.5,0-1,0.3-1.4,0.8s-0.6,1.2-0.6,2.1v4.1H122v-8h1.3v1.6h0
			c0.2-0.6,0.5-1,0.8-1.3s0.8-0.5,1.3-0.5c0.3,0,0.6,0,0.8,0.1V179.3z"/>
		<path class="st3" d="M128.3,176c-0.2,0-0.4-0.1-0.6-0.2c-0.2-0.2-0.2-0.4-0.2-0.6s0.1-0.4,0.2-0.6c0.2-0.2,0.4-0.2,0.6-0.2
			c0.2,0,0.4,0.1,0.6,0.2s0.2,0.4,0.2,0.6c0,0.2-0.1,0.4-0.2,0.6S128.5,176,128.3,176z M128.9,186h-1.3v-8h1.3V186z"/>
		<path class="st3" d="M132.8,184.8L132.8,184.8l0,1.2h-1.3v-11.8h1.3v5.2h0c0.6-1.1,1.6-1.6,2.8-1.6c1,0,1.8,0.4,2.4,1.1
			c0.6,0.7,0.9,1.7,0.9,2.9c0,1.3-0.3,2.4-1,3.2c-0.7,0.8-1.5,1.2-2.7,1.2C134.1,186.2,133.3,185.7,132.8,184.8z M132.8,181.6v1.1
			c0,0.7,0.2,1.2,0.6,1.7s1,0.7,1.6,0.7c0.8,0,1.4-0.3,1.8-0.9c0.4-0.6,0.7-1.4,0.7-2.5c0-0.9-0.2-1.6-0.6-2.1
			c-0.4-0.5-1-0.8-1.7-0.8c-0.7,0-1.3,0.3-1.8,0.8S132.8,180.8,132.8,181.6z"/>
		<path class="st3" d="M147.4,186h-1.3v-1.3h0c-0.5,1-1.4,1.5-2.5,1.5c-1.9,0-2.9-1.1-2.9-3.4V178h1.3v4.6c0,1.7,0.6,2.5,1.9,2.5
			c0.6,0,1.1-0.2,1.5-0.7c0.4-0.5,0.6-1.1,0.6-1.8V178h1.3V186z"/>
		<path class="st3" d="M153.6,185.9c-0.3,0.2-0.7,0.2-1.2,0.2c-1.4,0-2.1-0.8-2.1-2.3v-4.7H149V178h1.4v-2l1.3-0.4v2.4h2v1.1h-2v4.5
			c0,0.5,0.1,0.9,0.3,1.1c0.2,0.2,0.5,0.3,0.9,0.3c0.3,0,0.6-0.1,0.8-0.3V185.9z"/>
		<path class="st3" d="M158.7,186.2c-1.2,0-2.1-0.4-2.8-1.1c-0.7-0.7-1.1-1.7-1.1-3c0-1.3,0.4-2.4,1.1-3.1s1.7-1.1,3-1.1
			c1.2,0,2.1,0.4,2.8,1.1c0.7,0.7,1,1.8,1,3.1c0,1.3-0.4,2.3-1.1,3.1C160.9,185.8,159.9,186.2,158.7,186.2z M158.8,178.9
			c-0.8,0-1.5,0.3-2,0.8c-0.5,0.6-0.7,1.3-0.7,2.3c0,0.9,0.2,1.7,0.7,2.2s1.1,0.8,1.9,0.8c0.8,0,1.5-0.3,1.9-0.8s0.7-1.3,0.7-2.3
			c0-1-0.2-1.8-0.7-2.3S159.6,178.9,158.8,178.9z"/>
		<path class="st3" d="M171,182.6c0,0.5-0.1,1-0.3,1.5s-0.5,0.8-0.8,1.1c-0.3,0.3-0.8,0.6-1.3,0.7c-0.5,0.2-1,0.3-1.6,0.3
			c-1,0-1.8-0.2-2.3-0.5v-1.4c0.8,0.5,1.5,0.7,2.3,0.7c0.4,0,0.8-0.1,1.1-0.2c0.3-0.1,0.6-0.3,0.8-0.5c0.2-0.2,0.4-0.5,0.5-0.8
			c0.1-0.3,0.2-0.6,0.2-1c0-0.7-0.2-1.3-0.7-1.7c-0.5-0.4-1.2-0.6-2.1-0.6c-0.2,0-0.3,0-0.5,0c-0.2,0-0.3,0-0.5,0
			c-0.2,0-0.3,0-0.5,0c-0.2,0-0.3,0-0.4,0l0.4-5.6h5.2v1.2h-4.1l-0.2,3.3c0.2,0,0.3,0,0.5,0s0.4,0,0.5,0c0.6,0,1.1,0.1,1.6,0.2
			s0.9,0.4,1.2,0.7c0.3,0.3,0.6,0.6,0.7,1.1C170.9,181.6,171,182.1,171,182.6z"/>
		<path class="st3" d="M173.8,179.6c-0.2,0-0.4-0.1-0.6-0.3c-0.2-0.2-0.3-0.4-0.3-0.6s0.1-0.4,0.3-0.6c0.2-0.2,0.4-0.2,0.6-0.2
			c0.2,0,0.5,0.1,0.6,0.2s0.3,0.4,0.3,0.6s-0.1,0.4-0.3,0.6S174,179.6,173.8,179.6z M173.8,186.2c-0.2,0-0.4-0.1-0.6-0.3
			c-0.2-0.2-0.3-0.4-0.3-0.6s0.1-0.4,0.3-0.6c0.2-0.2,0.4-0.3,0.6-0.3c0.2,0,0.5,0.1,0.6,0.3s0.3,0.4,0.3,0.6s-0.1,0.4-0.3,0.6
			S174,186.2,173.8,186.2z"/>
		<path class="st3" d="M188,176h-3.2v10h-1.3v-10h-3.2v-1.2h7.8V176z"/>
		<path class="st3" d="M190.2,176c-0.2,0-0.4-0.1-0.6-0.2c-0.2-0.2-0.2-0.4-0.2-0.6s0.1-0.4,0.2-0.6c0.2-0.2,0.4-0.2,0.6-0.2
			c0.2,0,0.4,0.1,0.6,0.2s0.2,0.4,0.2,0.6c0,0.2-0.1,0.4-0.2,0.6S190.5,176,190.2,176z M190.9,186h-1.3v-8h1.3V186z"/>
		<path class="st3" d="M194.8,184.8L194.8,184.8l0,4.8h-1.3V178h1.3v1.4h0c0.6-1.1,1.6-1.6,2.8-1.6c1,0,1.8,0.4,2.4,1.1
			s0.9,1.7,0.9,2.9c0,1.3-0.3,2.4-1,3.2c-0.7,0.8-1.5,1.2-2.7,1.2C196.1,186.2,195.3,185.7,194.8,184.8z M194.8,181.6v1.1
			c0,0.7,0.2,1.2,0.6,1.7s1,0.7,1.6,0.7c0.8,0,1.4-0.3,1.8-0.9c0.4-0.6,0.7-1.4,0.7-2.5c0-0.9-0.2-1.6-0.6-2.1
			c-0.4-0.5-1-0.8-1.7-0.8c-0.7,0-1.3,0.3-1.8,0.8S194.8,180.8,194.8,181.6z"/>
		<path class="st3" d="M206.2,186.2c-1.2,0-2.1-0.4-2.8-1.1c-0.7-0.7-1.1-1.7-1.1-3c0-1.3,0.4-2.4,1.1-3.1s1.7-1.1,3-1.1
			c1.2,0,2.1,0.4,2.8,1.1c0.7,0.7,1,1.8,1,3.1c0,1.3-0.4,2.3-1.1,3.1C208.4,185.8,207.4,186.2,206.2,186.2z M206.3,178.9
			c-0.8,0-1.5,0.3-2,0.8c-0.5,0.6-0.7,1.3-0.7,2.3c0,0.9,0.2,1.7,0.7,2.2s1.1,0.8,1.9,0.8c0.8,0,1.5-0.3,1.9-0.8s0.7-1.3,0.7-2.3
			c0-1-0.2-1.8-0.7-2.3S207.1,178.9,206.3,178.9z"/>
	</g>
</g>
</svg>
