<?xml version="1.0" encoding="utf-8"?>
<!-- Generator: Adobe Illustrator 25.4.2, SVG Export Plug-In . SVG Version: 6.00 Build 0)  -->
<svg version="1.1" id="Capa_1" xmlns="http://www.w3.org/2000/svg" xmlns:xlink="http://www.w3.org/1999/xlink" x="0px" y="0px"
	 viewBox="0 0 81 81" style="enable-background:new 0 0 81 81;" xml:space="preserve">
<style type="text/css">
	.st0{fill:#1D67BD;}
	.st1{fill:none;stroke:#FFFFFF;stroke-width:3;}
	.st2{enable-background:new    ;}
	.st3{fill:#FFFFFF;}
</style>
<g id="Grupo_141328" transform="translate(-919 -2913)">
	<g id="Elipse_4795" transform="translate(919 2913)">
		<circle class="st0" cx="40.5" cy="40.5" r="40.5"/>
		<circle class="st1" cx="40.5" cy="40.5" r="39"/>
	</g>
	<g class="st2">
		<path class="st3" d="M969.6,2961.6c0,2.8-1,5-3.1,6.6s-5,2.3-8.8,2.3c-1.4,0-2.8-0.1-4.2-0.4c-1.4-0.2-2.6-0.6-3.6-1v-6.8
			c0.9,0.5,2,1,3.1,1.3s2.4,0.5,3.6,0.5c1.4,0,2.5-0.2,3.2-0.7c0.7-0.5,1.1-1.2,1.1-2.1c0-0.9-0.5-1.7-1.4-2.2s-2.2-0.8-3.8-0.8
			h-2.8v-6.4h2.5c1.7,0,2.9-0.3,3.7-0.8c0.8-0.5,1.2-1.2,1.2-2c0-0.8-0.3-1.4-0.9-1.8s-1.5-0.7-2.7-0.7c-1.9,0-3.8,0.5-5.7,1.6v-6.5
			c2.4-1,4.9-1.5,7.5-1.5c3.3,0,5.8,0.7,7.6,2s2.8,3.2,2.8,5.5c0,1.8-0.5,3.4-1.5,4.6c-1,1.2-2.4,2.1-4.2,2.4v0.1
			c2,0.3,3.5,1,4.7,2.3S969.6,2959.8,969.6,2961.6z"/>
	</g>
</g>
</svg>
