<svg xmlns="http://www.w3.org/2000/svg" xmlns:xlink="http://www.w3.org/1999/xlink" width="112" height="112" viewBox="0 0 112 112">
  <defs>
    <clipPath id="clip-path">
      <rect id="Rectángulo_36087" data-name="Rectángulo 36087" width="65.475" height="52.942" fill="#fff"/>
    </clipPath>
  </defs>
  <g id="Grupo_141315" data-name="Grupo 141315" transform="translate(-1344 -639)">
    <circle id="Elipse_4775" data-name="Elipse 4775" cx="56" cy="56" r="56" transform="translate(1344 639)" fill="#039be5"/>
    <g id="Grupo_87624" data-name="Grupo 87624" transform="translate(1367.263 668.553)">
      <g id="Grupo_87623" data-name="Grupo 87623" transform="translate(0 0.001)" clip-path="url(#clip-path)">
        <path id="Trazado_116483" data-name="Trazado 116483" d="M65.475,52.943H0V12.791H65.475ZM0,0H65.475V11.209H0ZM58.5,3.925h3.567V7.287H58.5Zm-5.859,0H56.2V7.287H52.637Zm-5.859,0h3.564V7.287H46.778ZM8.406,18.141H19.769a.24.24,0,0,1,.255.255V29.758a.284.284,0,0,1-.255.305H8.406a.328.328,0,0,1-.305-.305V18.4a.285.285,0,0,1,.305-.255m18.65-.358H38.419a.907.907,0,0,1,.457.2.586.586,0,0,1,.153.409V29.758a.625.625,0,0,1-.153.458.907.907,0,0,1-.457.2H27.056a.9.9,0,0,1-.457-.2.625.625,0,0,1-.153-.458V18.4a.586.586,0,0,1,.153-.409.9.9,0,0,1,.457-.2m11.312.713H27.106V29.707H38.368Zm7.338-.713H57.07a.71.71,0,0,1,.662.612V29.758a.649.649,0,0,1-.2.458.639.639,0,0,1-.457.2H45.706a.627.627,0,0,1-.408-.2.648.648,0,0,1-.2-.458V18.4a.637.637,0,0,1,.2-.409.627.627,0,0,1,.408-.2m11.311.713H45.808V29.707H57.017ZM8.406,33.784H19.769a.628.628,0,0,1,.409.2.458.458,0,0,1,.2.406V45.809a.462.462,0,0,1-.2.407.631.631,0,0,1-.409.2H8.406a.636.636,0,0,1-.456-.2.572.572,0,0,1-.154-.407V34.394a.566.566,0,0,1,.154-.406.634.634,0,0,1,.456-.2m11.261.713H8.457V45.706H19.667Zm7.389-.713H38.419a.909.909,0,0,1,.457.2.575.575,0,0,1,.153.406V45.809a.581.581,0,0,1-.153.407.914.914,0,0,1-.457.2H27.056a.91.91,0,0,1-.457-.2.581.581,0,0,1-.153-.407V34.394a.575.575,0,0,1,.153-.406.906.906,0,0,1,.457-.2m11.312.713H27.106V45.706H38.368Zm7.338-.713H57.07a.64.64,0,0,1,.457.2.625.625,0,0,1,.2.406V45.809a.633.633,0,0,1-.2.407.643.643,0,0,1-.457.2H45.706a.716.716,0,0,1-.611-.609V34.394a.722.722,0,0,1,.611-.61m11.311.713H45.808V45.706H57.017Z" transform="translate(0 -0.001)" fill="#fff" fill-rule="evenodd"/>
      </g>
    </g>
  </g>
</svg>
