<?xml version="1.0" encoding="utf-8"?>
<!-- Generator: Adobe Illustrator 25.4.2, SVG Export Plug-In . SVG Version: 6.00 Build 0)  -->
<svg version="1.1" id="Capa_1" xmlns="http://www.w3.org/2000/svg" xmlns:xlink="http://www.w3.org/1999/xlink" x="0px" y="0px"
	 viewBox="0 0 295 102" style="enable-background:new 0 0 295 102;" xml:space="preserve">
<style type="text/css">
	.st0{fill:#4DD0E1;}
	.st1{enable-background:new    ;}
	.st2{fill:#FFFFFF;}
	.st3{fill:#1565C0;}
	.st4{clip-path:url(#SVGID_00000039098136182218072770000004146088982865406081_);}
</style>
<g id="Grupo_141322" transform="translate(-338 -880)">
	<g id="Grupo_80064" transform="translate(158)">
		<path id="Rectángulo_36015" class="st0" d="M207,880h241c14.9,0,27,12.1,27,27v48c0,14.9-12.1,27-27,27H207
			c-14.9,0-27-12.1-27-27v-48C180,892.1,192.1,880,207,880z"/>
	</g>
	<g class="st1">
		<path class="st2" d="M467.7,938v-16.8h10.5v4h-5.4v2.4h5.1v4h-5.1v2.5h5.8v4H467.7z"/>
		<path class="st2" d="M490.2,934c0,1.4-0.5,2.4-1.6,3.2s-2.5,1.1-4.3,1.1c-0.5,0-1.2-0.1-2-0.2s-1.4-0.2-1.9-0.4v-3.5
			c1.5,0.7,2.7,1,3.7,1c1,0,1.5-0.3,1.5-0.8c0-0.2-0.1-0.4-0.3-0.5s-0.8-0.4-1.8-0.7c-1.1-0.3-1.8-0.8-2.3-1.3s-0.7-1.3-0.7-2.2
			c0-1.2,0.5-2.2,1.5-2.9s2.4-1.1,4.2-1.1c1,0,2.2,0.2,3.3,0.5v3.4c-0.5-0.2-1-0.4-1.6-0.5s-1.1-0.2-1.5-0.2c-0.3,0-0.6,0.1-0.8,0.2
			s-0.3,0.3-0.3,0.5c0,0.2,0.1,0.4,0.3,0.6s0.6,0.3,1.3,0.5c1.2,0.4,2.1,0.8,2.6,1.4S490.2,933.1,490.2,934z"/>
		<path class="st2" d="M500.5,937.8c-0.2,0.1-0.6,0.2-1.1,0.3s-1.1,0.1-1.9,0.1c-1.4,0-2.5-0.4-3.3-1.1s-1.2-1.9-1.2-3.3v-4.4h-1.9
			V926h1.9v-2.4l4.9-1.4v3.7h2.5v3.5H498v3.6c0,1.1,0.4,1.6,1.3,1.6c0.4,0,0.8-0.1,1.2-0.3V937.8z"/>
		<path class="st2" d="M511.1,930.3c-0.2-0.1-0.4-0.2-0.8-0.2s-0.6-0.1-0.8-0.1c-1.6,0-2.5,1-2.5,2.9v5.2h-5v-12h5v2.1h0
			c0.3-0.8,0.7-1.3,1.3-1.7s1.2-0.6,2-0.6c0.3,0,0.5,0,0.7,0.1V930.3z"/>
		<path class="st2" d="M519.2,938v-1.8h0c-0.8,1.4-2,2.1-3.7,2.1c-1.1,0-2-0.3-2.7-1s-1-1.6-1-2.7c0-2.4,1.4-3.7,4.3-4.1l3-0.4
			c0-0.4-0.2-0.7-0.5-1s-0.8-0.4-1.4-0.4c-1.3,0-2.8,0.4-4.3,1.1v-3.2c0.6-0.3,1.5-0.5,2.4-0.7s1.8-0.3,2.5-0.3c2,0,3.5,0.4,4.4,1.3
			s1.4,2.3,1.4,4.4v6.6H519.2z M516.2,933.9c0,0.3,0.1,0.6,0.3,0.8s0.5,0.3,0.9,0.3c0.5,0,0.9-0.2,1.3-0.6s0.5-0.9,0.5-1.5v-0.5
			l-1.7,0.2C516.6,932.9,516.2,933.3,516.2,933.9z"/>
		<path class="st2" d="M534.4,937.8c-0.2,0.1-0.6,0.2-1.1,0.3s-1.1,0.1-1.9,0.1c-1.4,0-2.5-0.4-3.3-1.1s-1.2-1.9-1.2-3.3v-4.4h-1.9
			V926h1.9v-2.4l4.9-1.4v3.7h2.5v3.5h-2.5v3.6c0,1.1,0.4,1.6,1.3,1.6c0.4,0,0.8-0.1,1.2-0.3V937.8z"/>
		<path class="st2" d="M540.3,933.4c0.1,0.5,0.4,0.9,0.9,1.2s1.2,0.4,2,0.4c1.2,0,2.3-0.2,3.3-0.7v3.2c-1.2,0.5-2.7,0.7-4.4,0.7
			c-2.1,0-3.7-0.5-4.9-1.6s-1.7-2.5-1.7-4.4c0-1.3,0.3-2.4,0.8-3.4s1.3-1.8,2.3-2.3s2.1-0.8,3.3-0.8c1.2,0,2.3,0.2,3.2,0.7
			s1.6,1.2,2,2s0.7,1.9,0.7,3.1v1.9H540.3z M543.3,930.8c0-1.4-0.5-2.1-1.5-2.1c-0.4,0-0.8,0.2-1,0.6s-0.4,0.9-0.5,1.5H543.3z"/>
		<path class="st2" d="M562.4,936.3c0,2.3-0.7,4.1-2.2,5.4s-3.6,1.9-6.3,1.9c-0.8,0-1.5-0.1-2.2-0.2s-1.2-0.2-1.5-0.4v-3.9
			c0.5,0.3,1.1,0.6,1.8,0.8s1.3,0.3,1.8,0.3c1.1,0,2-0.3,2.7-0.8s1-1.3,1-2.1v-0.7h0c-0.4,0.5-0.9,1-1.5,1.3s-1.3,0.5-2,0.5
			c-1.5,0-2.8-0.5-3.7-1.6s-1.3-2.6-1.3-4.4c0-1.3,0.2-2.4,0.7-3.4s1.1-1.8,2-2.3s1.8-0.8,2.8-0.8c1.4,0,2.4,0.5,3.1,1.5h0V926h5
			V936.3z M557.5,931.7c0-0.7-0.2-1.3-0.5-1.7s-0.7-0.6-1.3-0.6c-0.6,0-1,0.2-1.3,0.8s-0.5,1.2-0.5,2c0,0.8,0.1,1.4,0.4,1.8
			s0.7,0.7,1.3,0.7c0.6,0,1-0.2,1.3-0.7s0.5-1.1,0.5-1.9V931.7z"/>
		<path class="st2" d="M570.1,922.8c0,0.7-0.3,1.3-0.8,1.7s-1.2,0.7-2,0.7c-0.8,0-1.5-0.2-2-0.7s-0.8-1-0.8-1.7
			c0-0.7,0.3-1.2,0.8-1.7s1.2-0.6,2-0.6c0.8,0,1.5,0.2,2,0.6S570.1,922.1,570.1,922.8z M564.8,938v-12h5v12H564.8z"/>
		<path class="st2" d="M578.9,938v-1.8h0c-0.8,1.4-2,2.1-3.7,2.1c-1.1,0-2-0.3-2.7-1s-1-1.6-1-2.7c0-2.4,1.4-3.7,4.3-4.1l3-0.4
			c0-0.4-0.2-0.7-0.5-1s-0.8-0.4-1.4-0.4c-1.3,0-2.8,0.4-4.3,1.1v-3.2c0.6-0.3,1.5-0.5,2.4-0.7s1.8-0.3,2.5-0.3c2,0,3.5,0.4,4.4,1.3
			s1.4,2.3,1.4,4.4v6.6H578.9z M575.9,933.9c0,0.3,0.1,0.6,0.3,0.8s0.5,0.3,0.9,0.3c0.5,0,0.9-0.2,1.3-0.6s0.5-0.9,0.5-1.5v-0.5
			l-1.7,0.2C576.3,932.9,575.9,933.3,575.9,933.9z"/>
	</g>
	<circle id="Elipse_4790" class="st3" cx="401" cy="930" r="42"/>
	<g id="Grupo_87761" transform="translate(372.487 905.5)">
		<g>
			<defs>
				<rect id="SVGID_1_" x="0" width="53.5" height="49"/>
			</defs>
			<clipPath id="SVGID_00000146490985001686482700000016242073167617274503_">
				<use xlink:href="#SVGID_1_"  style="overflow:visible;"/>
			</clipPath>
			<g id="Grupo_87760" style="clip-path:url(#SVGID_00000146490985001686482700000016242073167617274503_);">
				<path id="Trazado_117027" class="st2" d="M43.3,32.9H10.1c-3.2,0-5.9-2.6-5.9-5.9V5.9C4.3,2.6,6.9,0,10.1,0h33.1
					c3.2,0,5.9,2.6,5.9,5.9V27C49.2,30.2,46.5,32.9,43.3,32.9 M10.1,1.6c-2.3,0-4.2,1.9-4.2,4.2V27c0,2.3,1.9,4.2,4.2,4.2h33.1
					c2.3,0,4.2-1.9,4.2-4.2V5.9c0-2.3-1.9-4.2-4.2-4.2H10.1z"/>
				<path id="Trazado_117028" class="st2" d="M49.5,49H4c-2.2,0-4-1.8-4-4c0-0.5,0.4-0.8,0.8-0.8s0.8,0.4,0.8,0.8
					c0,1.3,1,2.3,2.3,2.3h45.5c1.3,0,2.3-1,2.3-2.3c0-0.5,0.4-0.8,0.8-0.8c0.5,0,0.8,0.4,0.8,0.8C53.5,47.2,51.7,49,49.5,49"/>
				<path id="Trazado_117029" class="st2" d="M47.4,46.4L47.4,46.4L6,46.3c-1.1,0-4.8-0.1-5.8-1.8c-0.3-0.5-0.3-1.1,0-1.5l4.6-8.4
					c0.9-1.6,4.1-2.5,6.6-2.5h31.8c2.6,0,5.7,0.9,6.4,2.6l3.7,8.5c0.2,0.5,0.2,1.1-0.1,1.5C52.2,46.3,48.6,46.4,47.4,46.4
					 M47.3,44.8c2.9,0,4.3-0.7,4.5-0.9l-3.7-8.5c-0.3-0.7-2.3-1.6-4.9-1.6H11.4c-2.7,0-4.8,0.9-5.2,1.6l-4.6,8.4
					C1.9,44,3.2,44.6,6,44.6L47.3,44.8z"/>
				<path id="Trazado_117030" class="st2" d="M37.3,11.4l-5.1,0.7c-0.2,0-0.3,0.2-0.3,0.4c0,0.1,0,0.1,0.1,0.2l1,1.4l-6.2,4.7
					c-0.2,0.1-0.4,0.1-0.5-0.1c0,0,0,0,0,0l-2.1-2.8c-0.1-0.2-0.3-0.2-0.5-0.1c0,0,0,0,0,0L16,22.4c-0.3,0.3-0.4,0.8-0.1,1.1
					c0.3,0.3,0.8,0.4,1.1,0.1l6.5-5.5c0.1-0.1,0.4-0.1,0.5,0c0,0,0,0,0,0l2,2.8c0.1,0.2,0.3,0.2,0.5,0.1c0,0,0,0,0,0l7.5-5.7
					l1.1,1.4c0.1,0.2,0.4,0.2,0.5,0.1c0.1,0,0.1-0.1,0.1-0.2l1.9-4.7c0.1-0.2,0-0.4-0.2-0.5C37.5,11.4,37.4,11.4,37.3,11.4"/>
			</g>
		</g>
	</g>
</g>
</svg>
