<svg xmlns="http://www.w3.org/2000/svg" width="126" height="126" viewBox="0 0 126 126">
  <g id="Grupo_141339" data-name="Grupo 141339" transform="translate(-848 -686)">
    <circle id="Elipse_4798" data-name="Elipse 4798" cx="63" cy="63" r="63" transform="translate(848 686)" fill="#26a69a"/>
    <path id="Trazado_118028" data-name="Trazado 118028" d="M4.517,44.537h5.6v2.23h-5.6Zm8.861,0h20.3v2.23h-20.3Zm23.668,0H49.681v2.23H37.046Zm14.466,0h5.6v2.23h-5.6Zm8,0h5.6v2.23h-5.6Zm-55-3.489H16.066v2.23H4.517Zm14.58,0H37.046v2.23H19.1Zm20.122,0h5.489v2.23H39.219Zm7.945,0H65.117v2.23H47.165ZM4.517,37.56H18.924v2.231H4.517Zm17.892,0h4.919v2.231H22.41Zm8.119,0H50.313v2.231H30.529Zm21.839,0H65.117v2.231H52.368ZM4.517,33.9h5.6v2.172h-5.6Zm8.861,0h20.3v2.172h-20.3Zm23.668,0H49.681v2.172H37.046Zm14.466,0h5.6v2.172h-5.6Zm8,0h5.6v2.172h-5.6Zm-55-3.488H16.066v2.172H4.517Zm14.58,0H37.046v2.172H19.1Zm20.122,0h5.489v2.172H39.219Zm7.945,0H65.117v2.172H47.165ZM4.517,26.87H18.924V29.1H4.517Zm17.892,0h4.919V29.1H22.41Zm8.119,0H50.313V29.1H30.529Zm21.839,0H65.117V29.1H52.368ZM4.517,20.239H18.924v2.23H4.517Zm17.892,0H33.675v2.23H22.41Zm14.636,0H65.117v2.23H37.046ZM4.517,16.752H18.924v2.23H4.517Zm17.892,0h27.9v2.23H22.41ZM0,51.112H69.119V13.891H0Zm49.4-47h3.715v3.6H49.4Zm6.173,0h3.716v3.6H55.57Zm6.176,0h3.716v3.6H61.746ZM0,11.833H69.119V0H0Z" transform="translate(876.44 723.443)" fill="#fff"/>
  </g>
</svg>
