<svg xmlns="http://www.w3.org/2000/svg" xmlns:xlink="http://www.w3.org/1999/xlink" width="112" height="112" viewBox="0 0 112 112">
  <defs>
    <clipPath id="clip-path">
      <rect id="Rectángulo_36616" data-name="Rectángulo 36616" width="59" height="63" fill="#fff"/>
    </clipPath>
  </defs>
  <g id="Grupo_141354" data-name="Grupo 141354" transform="translate(-583 -2057)">
    <circle id="Elipse_4801" data-name="Elipse 4801" cx="56" cy="56" r="56" transform="translate(583 2057)" fill="#039be5"/>
    <g id="Grupo_141296" data-name="Grupo 141296" transform="translate(613 2082)">
      <g id="Grupo_141295" data-name="Grupo 141295" clip-path="url(#clip-path)">
        <path id="Trazado_118321" data-name="Trazado 118321" d="M30.75,9H19.5a4.5,4.5,0,0,1,0-9H30.75a4.5,4.5,0,0,1,0,9M19.5,2.25a2.25,2.25,0,0,0,0,4.5H30.75a2.25,2.25,0,0,0,0-4.5Z" transform="translate(1.875)" fill="#fff"/>
        <path id="Trazado_118322" data-name="Trazado 118322" d="M46.75,57H35.5a4.5,4.5,0,0,1,0-9H46.75a4.5,4.5,0,0,1,0,9M35.5,50.25a2.25,2.25,0,0,0,0,4.5H46.75a2.25,2.25,0,0,0,0-4.5Z" transform="translate(3.875 6)" fill="#fff"/>
        <path id="Trazado_118323" data-name="Trazado 118323" d="M34.125,19h-18A1.125,1.125,0,0,1,15,17.875v-6.75A1.125,1.125,0,0,1,16.125,10h18a1.125,1.125,0,0,1,1.125,1.125v6.75A1.125,1.125,0,0,1,34.125,19M17.25,16.75H33v-4.5H17.25Z" transform="translate(1.875 1.25)" fill="#fff"/>
        <path id="Trazado_118324" data-name="Trazado 118324" d="M25.125,53h-18A1.125,1.125,0,0,1,6,51.875v-6.75A1.125,1.125,0,0,1,7.125,44h18a1.125,1.125,0,0,1,1.125,1.125v6.75A1.125,1.125,0,0,1,25.125,53M8.25,50.75H24v-4.5H8.25Z" transform="translate(0.75 5.5)" fill="#fff"/>
        <path id="Trazado_118325" data-name="Trazado 118325" d="M47.125,46h-18a1.125,1.125,0,0,1-.8-1.92l6.75-6.75a1.12,1.12,0,0,1,.8-.33h18a1.125,1.125,0,0,1,.8,1.92l-6.75,6.75a1.122,1.122,0,0,1-.8.33M31.841,43.75H46.659l4.5-4.5H36.341Z" transform="translate(3.5 4.625)" fill="#fff"/>
        <path id="Trazado_118326" data-name="Trazado 118326" d="M25.375,37.25a1.131,1.131,0,0,1-.411-.078l-11.25-4.407a1.125,1.125,0,0,1-.015-2.089l11.25-4.593a1.135,1.135,0,0,1,.851,0l11.25,4.593a1.125,1.125,0,0,1-.016,2.089L25.786,37.172a1.123,1.123,0,0,1-.411.078M17.155,31.7l8.22,3.22L33.6,31.7,25.375,28.34Z" transform="translate(1.625 3.25)" fill="#fff"/>
        <path id="Trazado_118327" data-name="Trazado 118327" d="M24.209,12.75a1.125,1.125,0,0,1-1.125-1.125v-4.5a1.125,1.125,0,0,1,2.25,0v4.5a1.125,1.125,0,0,1-1.125,1.125" transform="translate(2.885 0.75)" fill="#fff"/>
        <path id="Trazado_118328" data-name="Trazado 118328" d="M24.125,29.5A1.125,1.125,0,0,1,23,28.375V17.125a1.125,1.125,0,0,1,2.25,0v11.25A1.125,1.125,0,0,1,24.125,29.5" transform="translate(2.875 2)" fill="#fff"/>
        <path id="Trazado_118329" data-name="Trazado 118329" d="M40.875,40.115A1.125,1.125,0,0,1,39.75,38.99V32.333H34.125a1.125,1.125,0,0,1,0-2.25h6.75A1.125,1.125,0,0,1,42,31.208V38.99a1.125,1.125,0,0,1-1.125,1.125" transform="translate(4.125 3.76)" fill="#fff"/>
        <path id="Trazado_118330" data-name="Trazado 118330" d="M40.125,50.875A1.125,1.125,0,0,1,39,49.75V44.125a1.125,1.125,0,0,1,2.25,0V49.75a1.125,1.125,0,0,1-1.125,1.125" transform="translate(4.875 5.375)" fill="#fff"/>
        <path id="Trazado_118331" data-name="Trazado 118331" d="M15.125,47.5A1.125,1.125,0,0,1,14,46.375V40.75a1.125,1.125,0,0,1,1.125-1.125h9v-4.5a1.125,1.125,0,0,1,2.25,0V40.75a1.125,1.125,0,0,1-1.125,1.125h-9v4.5A1.125,1.125,0,0,1,15.125,47.5" transform="translate(1.75 4.25)" fill="#fff"/>
        <path id="Trazado_118332" data-name="Trazado 118332" d="M16.875,60.375H1.125A1.125,1.125,0,0,1,0,59.25V22.125A1.125,1.125,0,0,1,1.125,21H27a1.125,1.125,0,0,1,0,2.25H2.25V58.125h13.5V54.75a1.125,1.125,0,0,1,2.25,0v4.5a1.125,1.125,0,0,1-1.125,1.125" transform="translate(0 2.625)" fill="#fff"/>
      </g>
    </g>
  </g>
</svg>
