<svg xmlns="http://www.w3.org/2000/svg" xmlns:xlink="http://www.w3.org/1999/xlink" width="126" height="126" viewBox="0 0 126 126">
  <defs>
    <clipPath id="clip-path">
      <rect id="Rectángulo_36489" data-name="Rectángulo 36489" width="62.429" height="50.479" transform="translate(0 0.001)" fill="#fff"/>
    </clipPath>
  </defs>
  <g id="Grupo_141340" data-name="Grupo 141340" transform="translate(-1057 -686)">
    <circle id="Elipse_4799" data-name="Elipse 4799" cx="63" cy="63" r="63" transform="translate(1057 686)" fill="#039be5"/>
    <g id="Grupo_141229" data-name="Grupo 141229" transform="translate(1088.786 724.075)">
      <g id="Grupo_141228" data-name="Grupo 141228" clip-path="url(#clip-path)">
        <path id="Trazado_118029" data-name="Trazado 118029" d="M62.429,50.48H0V12.2H62.429ZM0,0H62.429V10.688H0ZM55.774,3.742h3.4V6.948h-3.4Zm-5.586,0h3.4V6.948h-3.4Zm-5.586,0H48V6.948H44.6ZM8.015,17.3H18.849a.229.229,0,0,1,.243.243V28.374a.271.271,0,0,1-.243.291H8.015a.313.313,0,0,1-.291-.291V17.54a.272.272,0,0,1,.291-.243M25.8,16.956H36.632a.865.865,0,0,1,.436.194.559.559,0,0,1,.146.39V28.374a.6.6,0,0,1-.146.437.865.865,0,0,1-.436.194H25.8a.861.861,0,0,1-.436-.194.6.6,0,0,1-.146-.437V17.54a.559.559,0,0,1,.146-.39.861.861,0,0,1,.436-.194m10.786.68H25.845V28.325H36.583Zm7-.68H54.415a.677.677,0,0,1,.631.584V28.374a.619.619,0,0,1-.195.437.61.61,0,0,1-.436.194H43.58a.6.6,0,0,1-.389-.194A.618.618,0,0,1,43,28.374V17.54a.607.607,0,0,1,.194-.39.6.6,0,0,1,.389-.194m10.785.68H43.677V28.325H54.365ZM8.015,32.212H18.849a.6.6,0,0,1,.39.195.436.436,0,0,1,.195.387V43.678a.44.44,0,0,1-.195.388.6.6,0,0,1-.39.193H8.015a.607.607,0,0,1-.435-.193.546.546,0,0,1-.147-.388V32.794a.54.54,0,0,1,.147-.387.6.6,0,0,1,.435-.195m10.737.68H8.064V43.58H18.752Zm7.045-.68H36.632a.867.867,0,0,1,.436.195.548.548,0,0,1,.146.387V43.678a.554.554,0,0,1-.146.388.872.872,0,0,1-.436.193H25.8a.868.868,0,0,1-.436-.193.554.554,0,0,1-.146-.388V32.794a.548.548,0,0,1,.146-.387.864.864,0,0,1,.436-.195m10.786.68H25.845V43.58H36.583Zm7-.68H54.415a.61.61,0,0,1,.436.195.6.6,0,0,1,.195.387V43.678a.6.6,0,0,1-.195.388.613.613,0,0,1-.436.193H43.58A.683.683,0,0,1,43,43.678V32.794a.688.688,0,0,1,.583-.582m10.785.68H43.677V43.58H54.365Z" fill="#fff" fill-rule="evenodd"/>
      </g>
    </g>
  </g>
</svg>
