<svg xmlns="http://www.w3.org/2000/svg" width="112" height="112" viewBox="0 0 112 112">
  <g id="Grupo_141316" data-name="Grupo 141316" transform="translate(-1513 -633)">
    <circle id="Elipse_4776" data-name="Elipse 4776" cx="56" cy="56" r="56" transform="translate(1513 633)" fill="#039be5"/>
    <path id="Trazado_116481" data-name="Trazado 116481" d="M4.684,46.175h5.808v2.312H4.684Zm9.187,0H34.914v2.312H13.87Zm24.538,0h13.1v2.312h-13.1Zm15,0h5.808v2.312H53.406Zm8.3,0h5.808v2.312H61.7ZM4.684,42.557H16.657v2.312H4.684Zm15.116,0H38.408v2.312H19.8Zm20.862,0h5.691v2.312H40.662Zm8.237,0H67.511v2.312H48.9ZM4.684,38.941H19.62v2.313H4.684Zm18.55,0h5.1v2.313h-5.1Zm8.418,0H52.163v2.313H31.652Zm22.642,0H67.511v2.313H54.294ZM4.684,35.15h5.808V37.4H4.684Zm9.187,0H34.914V37.4H13.87Zm24.538,0h13.1V37.4h-13.1Zm15,0h5.808V37.4H53.406Zm8.3,0h5.808V37.4H61.7ZM4.684,31.533H16.657v2.252H4.684Zm15.116,0H38.408v2.252H19.8Zm20.862,0h5.691v2.252H40.662Zm8.237,0H67.511v2.252H48.9ZM4.684,27.858H19.62v2.313H4.684Zm18.55,0h5.1v2.313h-5.1Zm8.418,0H52.163v2.313H31.652Zm22.642,0H67.511v2.313H54.294ZM4.684,20.983H19.62v2.312H4.684Zm18.55,0H34.913v2.312H23.234Zm15.174,0h29.1v2.312h-29.1ZM4.684,17.368H19.62V19.68H4.684Zm18.55,0H52.163V19.68H23.234ZM0,52.991H71.661V14.4H0ZM51.213,4.268h3.852V8H51.213Zm6.4,0h3.853V8H57.614Zm6.4,0h3.853V8H64.016ZM0,12.268H71.661V0H0Z" transform="translate(1533.34 663)" fill="#fff"/>
  </g>
</svg>
