<?xml version="1.0" encoding="utf-8"?>
<!-- Generator: Adobe Illustrator 25.4.2, SVG Export Plug-In . SVG Version: 6.00 Build 0)  -->
<svg version="1.1" id="Capa_1" xmlns="http://www.w3.org/2000/svg" xmlns:xlink="http://www.w3.org/1999/xlink" x="0px" y="0px"
	 viewBox="0 0 1071 496" style="enable-background:new 0 0 1071 496;" xml:space="preserve">
<style type="text/css">
	.st0{fill:#1565C0;}
	.st1{fill:#4DD0E1;}
	.st2{fill:#CCF3F8;}
	.st3{enable-background:new    ;}
	.st4{fill:#FFFFFF;}
	.st5{fill:#12263F;}
	.st6{fill:none;stroke:#1B9CE2;stroke-width:2;}
	.st7{fill:#039BE5;}
</style>
<g id="Grupo_141334" transform="translate(-285 -2326)">
	<g id="Grupo_141303" transform="translate(0 -54)">
		<path id="Rectángulo_36639" class="st0" d="M332.5,2495h95c26.2,0,47.5,21.3,47.5,47.5l0,0c0,26.2-21.3,47.5-47.5,47.5h-95
			c-26.2,0-47.5-21.3-47.5-47.5l0,0C285,2516.3,306.3,2495,332.5,2495z"/>
		<rect id="Rectángulo_36647" x="1125" y="2738" class="st1" width="190" height="60"/>
		<rect id="Rectángulo_36646" x="1125" y="2798" class="st2" width="190" height="78"/>
		<g class="st3">
			<path class="st4" d="M358.6,2549.7c-1,0.4-2.2,0.6-3.6,0.6c-1.3,0-2.5-0.3-3.5-0.8s-1.7-1.2-2.2-2.2c-0.5-0.9-0.8-2-0.8-3.3
				c0-1.3,0.3-2.5,0.9-3.6s1.4-1.8,2.4-2.4c1-0.6,2.3-0.8,3.6-0.8c1.1,0,2.1,0.1,3.2,0.4v3.5c-0.4-0.2-0.8-0.4-1.3-0.5
				s-1-0.2-1.5-0.2c-1,0-1.8,0.3-2.4,0.9s-0.9,1.4-0.9,2.4c0,1,0.3,1.8,0.9,2.4c0.6,0.6,1.4,0.9,2.4,0.9c0.9,0,1.8-0.2,2.8-0.7
				V2549.7z"/>
			<path class="st4" d="M360.2,2550v-13.3h3.7v13.3H360.2z"/>
			<path class="st4" d="M369.7,2538.6c0,0.5-0.2,1-0.6,1.3s-0.9,0.5-1.5,0.5c-0.6,0-1.1-0.2-1.5-0.5s-0.6-0.8-0.6-1.3
				c0-0.5,0.2-0.9,0.6-1.3s0.9-0.5,1.5-0.5c0.6,0,1.1,0.2,1.5,0.5S369.7,2538.1,369.7,2538.6z M365.8,2550v-9h3.7v9H365.8z"/>
			<path class="st4" d="M374.6,2546.6c0.1,0.4,0.3,0.7,0.7,0.9c0.4,0.2,0.9,0.3,1.5,0.3c0.9,0,1.7-0.2,2.5-0.5v2.4
				c-0.9,0.4-2,0.5-3.3,0.5c-1.6,0-2.8-0.4-3.7-1.2s-1.3-1.9-1.3-3.3c0-1,0.2-1.8,0.6-2.6s1-1.3,1.7-1.7c0.8-0.4,1.6-0.6,2.5-0.6
				c0.9,0,1.7,0.2,2.4,0.5s1.2,0.9,1.5,1.5s0.5,1.4,0.5,2.3v1.4H374.6z M376.8,2544.6c0-1-0.4-1.6-1.1-1.6c-0.3,0-0.6,0.1-0.8,0.4
				s-0.3,0.7-0.4,1.1H376.8z"/>
			<path class="st4" d="M387.2,2550v-4.9c0-0.6-0.1-1-0.3-1.2c-0.2-0.2-0.4-0.4-0.8-0.4c-0.3,0-0.6,0.1-0.8,0.4s-0.3,0.6-0.3,1v5.1
				h-3.7v-9h3.7v1.4h0c0.3-0.5,0.7-0.9,1.2-1.2s1.1-0.4,1.6-0.4c2,0,3,1.2,3,3.7v5.5H387.2z"/>
			<path class="st4" d="M399,2549.9c-0.2,0.1-0.4,0.2-0.8,0.2s-0.9,0.1-1.4,0.1c-1,0-1.9-0.3-2.4-0.9s-0.9-1.4-0.9-2.5v-3.3H392
				v-2.6h1.4v-1.8l3.7-1v2.8h1.9v2.6h-1.9v2.7c0,0.8,0.3,1.2,0.9,1.2c0.3,0,0.6-0.1,0.9-0.2V2549.9z"/>
			<path class="st4" d="M403.4,2546.6c0.1,0.4,0.3,0.7,0.7,0.9c0.4,0.2,0.9,0.3,1.5,0.3c0.9,0,1.7-0.2,2.5-0.5v2.4
				c-0.9,0.4-2,0.5-3.3,0.5c-1.6,0-2.8-0.4-3.7-1.2s-1.3-1.9-1.3-3.3c0-1,0.2-1.8,0.6-2.6s1-1.3,1.7-1.7c0.8-0.4,1.6-0.6,2.5-0.6
				c0.9,0,1.7,0.2,2.4,0.5s1.2,0.9,1.5,1.5s0.5,1.4,0.5,2.3v1.4H403.4z M405.7,2544.6c0-1-0.4-1.6-1.1-1.6c-0.3,0-0.6,0.1-0.8,0.4
				s-0.3,0.7-0.4,1.1H405.7z"/>
		</g>
		<g class="st3">
			<path class="st5" d="M1178,2771.2c0,0.8-0.2,1.6-0.7,2.2c-0.4,0.6-1.1,1.1-1.9,1.4s-1.8,0.5-2.9,0.5c-1.3,0-2.5-0.2-3.6-0.7v-3.5
				c0.5,0.4,1.1,0.7,1.7,0.9c0.6,0.2,1.2,0.4,1.8,0.4c0.4,0,0.7-0.1,1-0.2c0.2-0.2,0.3-0.4,0.3-0.7c0-0.2-0.1-0.4-0.2-0.5
				c-0.1-0.2-0.3-0.3-0.5-0.4c-0.2-0.1-0.7-0.3-1.3-0.6c-2-0.8-3-2-3-3.8c0-1.2,0.5-2.2,1.4-2.9c0.9-0.7,2.2-1.1,3.7-1.1
				c0.4,0,0.8,0,1.2,0.1s0.7,0.1,1,0.1c0.3,0.1,0.7,0.2,1.3,0.3v3.2c-1.1-0.6-2.1-0.9-3.1-0.9c-0.4,0-0.8,0.1-1,0.2
				s-0.4,0.4-0.4,0.7c0,0.3,0.1,0.5,0.3,0.7c0.2,0.2,0.6,0.4,1.3,0.7c1.3,0.5,2.2,1.1,2.8,1.7
				C1177.7,2769.6,1178,2770.3,1178,2771.2z"/>
			<path class="st5" d="M1184.9,2775v-1.4h0c-0.3,0.4-0.6,0.7-0.8,0.9c-0.2,0.2-0.5,0.4-0.8,0.5c-0.3,0.1-0.7,0.2-1.1,0.2
				c-1,0-1.7-0.3-2.2-1s-0.8-1.6-0.8-2.8v-5.4h3.7v5.2c0,0.9,0.3,1.3,1,1.3c0.4,0,0.6-0.1,0.8-0.4c0.2-0.2,0.3-0.6,0.3-1v-5.1h3.7v9
				H1184.9z"/>
			<path class="st5" d="M1200.6,2770.2c0,1-0.2,1.9-0.5,2.6c-0.3,0.8-0.8,1.3-1.4,1.8c-0.6,0.4-1.3,0.6-2,0.6
				c-0.6,0-1.1-0.1-1.5-0.3c-0.4-0.2-0.7-0.5-1-0.8h0v0.9h-3.7v-13.3h3.7v5.5h0c0.3-0.4,0.7-0.8,1.2-1.1c0.5-0.3,1.1-0.4,1.7-0.4
				c1.1,0,2,0.4,2.6,1.1C1200.3,2767.7,1200.6,2768.8,1200.6,2770.2z M1196.8,2770.3c0-0.6-0.1-1.1-0.3-1.4c-0.2-0.3-0.6-0.5-1-0.5
				c-0.4,0-0.7,0.2-1,0.5c-0.3,0.3-0.4,0.7-0.4,1.2v0.5c0,0.5,0.1,0.9,0.3,1.2s0.5,0.5,0.9,0.5c0.5,0,0.8-0.2,1-0.6
				S1196.8,2771,1196.8,2770.3z"/>
			<path class="st5" d="M1209.3,2772c0,1-0.4,1.8-1.2,2.4c-0.8,0.6-1.9,0.8-3.2,0.8c-0.4,0-0.9,0-1.5-0.1c-0.6-0.1-1.1-0.2-1.5-0.3
				v-2.6c1.1,0.5,2,0.7,2.8,0.7c0.7,0,1.1-0.2,1.1-0.6c0-0.2-0.1-0.3-0.3-0.4c-0.2-0.1-0.6-0.3-1.3-0.5c-0.8-0.3-1.4-0.6-1.7-1
				s-0.5-1-0.5-1.6c0-0.9,0.4-1.7,1.1-2.2c0.7-0.5,1.8-0.8,3.1-0.8c0.8,0,1.6,0.1,2.5,0.3v2.5c-0.4-0.2-0.8-0.3-1.2-0.4
				s-0.8-0.2-1.1-0.2c-0.2,0-0.4,0-0.6,0.1s-0.2,0.2-0.2,0.3c0,0.2,0.1,0.3,0.2,0.4s0.5,0.2,0.9,0.4c0.9,0.3,1.6,0.6,2,1
				S1209.3,2771.3,1209.3,2772z"/>
			<path class="st5" d="M1214.7,2763.6c0,0.5-0.2,1-0.6,1.3c-0.4,0.3-0.9,0.5-1.5,0.5c-0.6,0-1.1-0.2-1.5-0.5
				c-0.4-0.3-0.6-0.8-0.6-1.3c0-0.5,0.2-0.9,0.6-1.3c0.4-0.3,0.9-0.5,1.5-0.5c0.6,0,1.1,0.2,1.5,0.5
				C1214.5,2762.6,1214.7,2763.1,1214.7,2763.6z M1210.7,2775v-9h3.7v9H1210.7z"/>
			<path class="st5" d="M1223.6,2772c0,1-0.4,1.8-1.2,2.4c-0.8,0.6-1.9,0.8-3.2,0.8c-0.4,0-0.9,0-1.5-0.1c-0.6-0.1-1.1-0.2-1.5-0.3
				v-2.6c1.1,0.5,2,0.7,2.8,0.7c0.7,0,1.1-0.2,1.1-0.6c0-0.2-0.1-0.3-0.3-0.4c-0.2-0.1-0.6-0.3-1.3-0.5c-0.8-0.3-1.4-0.6-1.7-1
				s-0.5-1-0.5-1.6c0-0.9,0.4-1.7,1.1-2.2c0.7-0.5,1.8-0.8,3.1-0.8c0.8,0,1.6,0.1,2.5,0.3v2.5c-0.4-0.2-0.8-0.3-1.2-0.4
				s-0.8-0.2-1.1-0.2c-0.2,0-0.4,0-0.6,0.1s-0.2,0.2-0.2,0.3c0,0.2,0.1,0.3,0.2,0.4s0.5,0.2,0.9,0.4c0.9,0.3,1.6,0.6,2,1
				S1223.6,2771.3,1223.6,2772z"/>
			<path class="st5" d="M1231.3,2774.9c-0.2,0.1-0.4,0.2-0.8,0.2s-0.9,0.1-1.4,0.1c-1,0-1.9-0.3-2.4-0.9c-0.6-0.6-0.9-1.4-0.9-2.5
				v-3.3h-1.4v-2.6h1.4v-1.8l3.7-1v2.8h1.9v2.6h-1.9v2.7c0,0.8,0.3,1.2,0.9,1.2c0.3,0,0.6-0.1,0.9-0.2V2774.9z"/>
			<path class="st5" d="M1235.7,2771.6c0.1,0.4,0.3,0.7,0.7,0.9c0.4,0.2,0.9,0.3,1.5,0.3c0.9,0,1.7-0.2,2.5-0.5v2.4
				c-0.9,0.4-2,0.5-3.3,0.5c-1.6,0-2.8-0.4-3.7-1.2s-1.3-1.9-1.3-3.3c0-1,0.2-1.8,0.6-2.6c0.4-0.7,1-1.3,1.7-1.7
				c0.8-0.4,1.6-0.6,2.5-0.6c0.9,0,1.7,0.2,2.4,0.5s1.2,0.9,1.5,1.5c0.3,0.7,0.5,1.4,0.5,2.3v1.4H1235.7z M1237.9,2769.6
				c0-1-0.4-1.6-1.1-1.6c-0.3,0-0.6,0.1-0.8,0.4s-0.3,0.7-0.4,1.1H1237.9z"/>
			<path class="st5" d="M1254.2,2775v-5.2c0-0.4-0.1-0.8-0.2-1c-0.2-0.2-0.4-0.3-0.8-0.3c-0.3,0-0.6,0.1-0.8,0.4s-0.3,0.6-0.3,1.1v5
				h-3.7v-5.1c0-0.9-0.3-1.4-0.9-1.4c-0.4,0-0.7,0.1-0.9,0.4c-0.2,0.3-0.3,0.6-0.3,1.1v4.9h-3.7v-9h3.7v1.4h0
				c0.1-0.3,0.4-0.5,0.7-0.8c0.3-0.3,0.7-0.5,1-0.6c0.4-0.2,0.8-0.2,1.3-0.2c0.6,0,1.2,0.1,1.6,0.4c0.4,0.3,0.8,0.7,1.1,1.2
				c0.3-0.5,0.7-0.9,1.3-1.2c0.5-0.3,1.1-0.4,1.8-0.4c0.9,0,1.7,0.3,2.2,0.9s0.8,1.5,0.8,2.7v5.6H1254.2z"/>
			<path class="st5" d="M1264.6,2775v-1.4h0c-0.6,1.1-1.5,1.6-2.7,1.6c-0.8,0-1.5-0.3-2-0.8s-0.7-1.2-0.7-2c0-1.8,1.1-2.8,3.3-3.1
				l2.2-0.3c0-0.3-0.1-0.5-0.4-0.7s-0.6-0.3-1.1-0.3c-1,0-2.1,0.3-3.2,0.9v-2.4c0.5-0.2,1.1-0.4,1.8-0.5s1.4-0.2,1.9-0.2
				c1.5,0,2.6,0.3,3.3,1c0.7,0.7,1,1.7,1,3.3v5H1264.6z M1262.4,2771.9c0,0.2,0.1,0.4,0.2,0.6c0.2,0.2,0.4,0.2,0.7,0.2
				c0.4,0,0.7-0.1,1-0.4c0.2-0.3,0.4-0.7,0.4-1.1v-0.3l-1.3,0.2C1262.7,2771.2,1262.4,2771.5,1262.4,2771.9z"/>
			<path class="st5" d="M1283.3,2771.4c0,1.2-0.4,2.2-1.3,2.8s-2.1,1-3.8,1c-0.6,0-1.2-0.1-1.8-0.2c-0.6-0.1-1.1-0.2-1.5-0.4v-2.9
				c0.4,0.2,0.8,0.4,1.3,0.6s1,0.2,1.5,0.2c0.6,0,1.1-0.1,1.4-0.3c0.3-0.2,0.5-0.5,0.5-0.9c0-0.4-0.2-0.7-0.6-0.9s-0.9-0.3-1.6-0.3
				h-1.2v-2.8h1.1c0.7,0,1.2-0.1,1.6-0.3c0.3-0.2,0.5-0.5,0.5-0.9c0-0.3-0.1-0.6-0.4-0.8c-0.3-0.2-0.6-0.3-1.2-0.3
				c-0.8,0-1.6,0.2-2.4,0.7v-2.8c1-0.4,2.1-0.6,3.2-0.6c1.4,0,2.5,0.3,3.3,0.9s1.2,1.4,1.2,2.4c0,0.8-0.2,1.4-0.6,2
				c-0.4,0.5-1,0.9-1.8,1v0c0.8,0.1,1.5,0.4,2,1S1283.3,2770.6,1283.3,2771.4z"/>
		</g>
		<path id="Trazado_118357" class="st6" d="M475,2542.5h151.4v87.9h376.8v-193.8H1138"/>
		<rect id="Rectángulo_36640" x="705" y="2543" class="st2" width="190" height="156"/>
		<rect id="Rectángulo_36641" x="705" y="2432" class="st1" width="190" height="95"/>
		<g class="st3">
			<path class="st5" d="M767,2477.4v2.3h3.7v3H767v4.4h-3.8v-12.6h7.9v3H767z"/>
			<path class="st5" d="M777.6,2487v-1.4h0c-0.6,1.1-1.5,1.6-2.7,1.6c-0.8,0-1.5-0.3-2-0.8s-0.7-1.2-0.7-2c0-1.8,1.1-2.8,3.3-3.1
				l2.2-0.3c0-0.3-0.1-0.5-0.4-0.7s-0.6-0.3-1.1-0.3c-1,0-2.1,0.3-3.2,0.9v-2.4c0.5-0.2,1.1-0.4,1.8-0.5s1.4-0.2,1.9-0.2
				c1.5,0,2.6,0.3,3.3,1c0.7,0.7,1,1.7,1,3.3v5H777.6z M775.4,2483.9c0,0.2,0.1,0.4,0.2,0.6s0.4,0.2,0.7,0.2c0.4,0,0.7-0.1,1-0.4
				s0.4-0.7,0.4-1.1v-0.3l-1.3,0.2C775.7,2483.2,775.4,2483.5,775.4,2483.9z"/>
			<path class="st5" d="M790.2,2486.7c-0.2,0.1-0.6,0.3-1.1,0.3s-1.1,0.1-1.8,0.1c-0.9,0-1.8-0.2-2.5-0.6c-0.7-0.4-1.3-0.9-1.7-1.6
				s-0.6-1.5-0.6-2.3c0-1,0.2-1.9,0.7-2.6s1.1-1.3,1.9-1.7s1.7-0.6,2.8-0.6c0.6,0,1.1,0,1.6,0.1s0.8,0.2,0.9,0.3v2.9
				c-0.2-0.1-0.5-0.3-0.8-0.4s-0.7-0.2-1-0.2c-0.7,0-1.3,0.2-1.7,0.5c-0.4,0.3-0.6,0.8-0.6,1.5c0,0.6,0.2,1.1,0.6,1.4
				c0.4,0.3,0.9,0.5,1.5,0.5c0.7,0,1.3-0.2,1.9-0.5V2486.7z"/>
			<path class="st5" d="M797.4,2487v-5.1c0-0.9-0.3-1.3-1-1.3c-0.3,0-0.6,0.1-0.8,0.4c-0.2,0.3-0.3,0.6-0.3,1v5.1h-3.7v-13.3h3.7
				v5.5h0c0.3-0.5,0.7-0.8,1.2-1.1s1-0.4,1.5-0.4c1,0,1.7,0.3,2.2,0.9c0.5,0.6,0.8,1.5,0.8,2.8v5.5H797.4z"/>
			<path class="st5" d="M807.7,2487v-1.4h0c-0.6,1.1-1.5,1.6-2.7,1.6c-0.8,0-1.5-0.3-2-0.8s-0.7-1.2-0.7-2c0-1.8,1.1-2.8,3.3-3.1
				l2.2-0.3c0-0.3-0.1-0.5-0.4-0.7s-0.6-0.3-1.1-0.3c-1,0-2.1,0.3-3.2,0.9v-2.4c0.5-0.2,1.1-0.4,1.8-0.5s1.4-0.2,1.9-0.2
				c1.5,0,2.6,0.3,3.3,1c0.7,0.7,1,1.7,1,3.3v5H807.7z M805.5,2483.9c0,0.2,0.1,0.4,0.2,0.6s0.4,0.2,0.7,0.2c0.4,0,0.7-0.1,1-0.4
				s0.4-0.7,0.4-1.1v-0.3l-1.3,0.2C805.8,2483.2,805.5,2483.5,805.5,2483.9z"/>
			<path class="st5" d="M818.9,2487v-1h0c-0.3,0.4-0.7,0.7-1.2,0.9c-0.5,0.2-1,0.3-1.4,0.3c-0.8,0-1.4-0.2-2-0.6
				c-0.6-0.4-1-0.9-1.3-1.6s-0.4-1.5-0.4-2.4c0-1,0.2-1.8,0.5-2.5s0.8-1.3,1.5-1.7s1.3-0.6,2.1-0.6c0.4,0,0.7,0.1,1,0.2
				s0.6,0.2,0.8,0.4s0.4,0.4,0.4,0.5h0v-5.2h3.7v13.3H818.9z M818.9,2482.2c0-0.5-0.1-1-0.4-1.3s-0.6-0.4-1-0.4s-0.7,0.2-1,0.6
				c-0.3,0.4-0.4,0.9-0.4,1.5c0,1.3,0.4,1.9,1.3,1.9c0.4,0,0.7-0.2,1-0.5c0.2-0.3,0.4-0.8,0.4-1.5V2482.2z"/>
			<path class="st5" d="M829.4,2487v-1.4h0c-0.6,1.1-1.5,1.6-2.7,1.6c-0.8,0-1.5-0.3-2-0.8s-0.7-1.2-0.7-2c0-1.8,1.1-2.8,3.3-3.1
				l2.2-0.3c0-0.3-0.1-0.5-0.4-0.7s-0.6-0.3-1.1-0.3c-1,0-2.1,0.3-3.2,0.9v-2.4c0.5-0.2,1.1-0.4,1.8-0.5s1.4-0.2,1.9-0.2
				c1.5,0,2.6,0.3,3.3,1c0.7,0.7,1,1.7,1,3.3v5H829.4z M827.2,2483.9c0,0.2,0.1,0.4,0.2,0.6c0.2,0.2,0.4,0.2,0.7,0.2
				c0.4,0,0.7-0.1,1-0.4c0.2-0.3,0.4-0.7,0.4-1.1v-0.3l-1.3,0.2C827.5,2483.2,827.2,2483.5,827.2,2483.9z"/>
		</g>
		<g class="st3">
			<path class="st5" d="M749.2,2599.7c0,1.3-0.3,2.4-0.8,3.4s-1.3,1.8-2.3,2.3c-1,0.6-2.1,0.8-3.3,0.8c-1.2,0-2.3-0.3-3.2-0.8
				c-1-0.5-1.7-1.3-2.3-2.3c-0.5-1-0.8-2.1-0.8-3.3c0-1.3,0.3-2.4,0.8-3.5s1.3-1.8,2.3-2.4s2.1-0.8,3.4-0.8c1.2,0,2.3,0.3,3.2,0.8
				c1,0.5,1.7,1.3,2.2,2.3C749,2597.3,749.2,2598.4,749.2,2599.7z M745.2,2599.8c0-1-0.2-1.9-0.6-2.5s-0.9-0.9-1.6-0.9
				c-0.8,0-1.3,0.3-1.8,0.9s-0.6,1.4-0.6,2.4c0,1,0.2,1.8,0.6,2.4s1,0.9,1.7,0.9c0.4,0,0.8-0.1,1.2-0.4s0.6-0.6,0.8-1.1
				S745.2,2600.4,745.2,2599.8z"/>
			<path class="st5" d="M760.8,2601.2c0,1-0.2,1.9-0.5,2.6s-0.8,1.3-1.4,1.8s-1.3,0.6-2.1,0.6c-1.1,0-1.9-0.4-2.4-1.2h0v5.1h-3.7
				V2597h3.7v1.2h0c0.3-0.5,0.7-0.8,1.2-1.1c0.5-0.3,1-0.4,1.6-0.4c1.2,0,2,0.4,2.7,1.2S760.8,2599.8,760.8,2601.2z M757,2601.3
				c0-0.6-0.1-1-0.3-1.3s-0.6-0.5-1-0.5c-0.4,0-0.7,0.2-1,0.5s-0.4,0.8-0.4,1.4v0.2c0,0.6,0.1,1,0.3,1.4s0.5,0.5,0.9,0.5
				c0.5,0,0.8-0.2,1-0.6S757,2602,757,2601.3z"/>
			<path class="st5" d="M765.5,2602.6c0.1,0.4,0.3,0.7,0.7,0.9c0.4,0.2,0.9,0.3,1.5,0.3c0.9,0,1.7-0.2,2.5-0.5v2.4
				c-0.9,0.4-2,0.5-3.3,0.5c-1.6,0-2.8-0.4-3.7-1.2s-1.3-1.9-1.3-3.3c0-1,0.2-1.8,0.6-2.6s1-1.3,1.7-1.7c0.8-0.4,1.6-0.6,2.5-0.6
				c0.9,0,1.7,0.2,2.4,0.5s1.2,0.9,1.5,1.5s0.5,1.4,0.5,2.3v1.4H765.5z M767.7,2600.6c0-1-0.4-1.6-1.1-1.6c-0.3,0-0.6,0.1-0.8,0.4
				s-0.3,0.7-0.4,1.1H767.7z"/>
			<path class="st5" d="M779.1,2600.2c-0.1-0.1-0.3-0.1-0.6-0.2s-0.4-0.1-0.6-0.1c-1.2,0-1.9,0.7-1.9,2.1v3.9h-3.7v-9h3.7v1.6h0
				c0.2-0.6,0.6-1,1-1.3c0.4-0.3,0.9-0.4,1.5-0.4c0.2,0,0.4,0,0.5,0.1V2600.2z"/>
			<path class="st5" d="M785.1,2606v-1.4h0c-0.6,1.1-1.5,1.6-2.7,1.6c-0.8,0-1.5-0.3-2-0.8s-0.7-1.2-0.7-2c0-1.8,1.1-2.8,3.3-3.1
				l2.2-0.3c0-0.3-0.1-0.5-0.4-0.7s-0.6-0.3-1.1-0.3c-1,0-2.1,0.3-3.2,0.9v-2.4c0.5-0.2,1.1-0.4,1.8-0.5s1.4-0.2,1.9-0.2
				c1.5,0,2.6,0.3,3.3,1c0.7,0.7,1,1.7,1,3.3v5H785.1z M782.9,2602.9c0,0.2,0.1,0.4,0.2,0.6s0.4,0.2,0.7,0.2c0.4,0,0.7-0.1,1-0.4
				s0.4-0.7,0.4-1.1v-0.3l-1.3,0.2C783.2,2602.2,782.9,2602.5,782.9,2602.9z"/>
			<path class="st5" d="M797.7,2605.7c-0.2,0.1-0.6,0.3-1.1,0.3s-1.1,0.1-1.8,0.1c-0.9,0-1.8-0.2-2.5-0.6c-0.7-0.4-1.3-0.9-1.7-1.6
				s-0.6-1.5-0.6-2.3c0-1,0.2-1.9,0.7-2.6s1.1-1.3,1.9-1.7s1.7-0.6,2.8-0.6c0.6,0,1.1,0,1.6,0.1s0.8,0.2,0.9,0.3v2.9
				c-0.2-0.1-0.5-0.3-0.8-0.4s-0.7-0.2-1-0.2c-0.7,0-1.3,0.2-1.7,0.5c-0.4,0.3-0.6,0.8-0.6,1.5c0,0.6,0.2,1.1,0.6,1.4
				c0.4,0.3,0.9,0.5,1.5,0.5c0.7,0,1.3-0.2,1.9-0.5V2605.7z"/>
			<path class="st5" d="M803.1,2594.6c0,0.5-0.2,1-0.6,1.3s-0.9,0.5-1.5,0.5c-0.6,0-1.1-0.2-1.5-0.5s-0.6-0.8-0.6-1.3
				c0-0.5,0.2-0.9,0.6-1.3s0.9-0.5,1.5-0.5c0.6,0,1.1,0.2,1.5,0.5S803.1,2594.1,803.1,2594.6z M799.2,2606v-9h3.7v9H799.2z"/>
			<path class="st5" d="M814.7,2601.3c0,1.5-0.5,2.7-1.4,3.6s-2.2,1.3-3.8,1.3c-1.6,0-2.9-0.4-3.8-1.3c-0.9-0.8-1.4-2-1.4-3.5
				c0-1,0.2-1.8,0.6-2.5s1-1.2,1.8-1.6s1.7-0.6,2.7-0.6c1.1,0,2,0.2,2.8,0.6s1.4,0.9,1.8,1.6S814.7,2600.5,814.7,2601.3z
				 M810,2595.6h-2.6l2.6-2.8h3.1L810,2595.6z M810.9,2601.4c0-1.2-0.5-1.8-1.4-1.8s-1.4,0.6-1.4,1.9c0,1.4,0.5,2,1.4,2
				C810.5,2603.5,810.9,2602.8,810.9,2601.4z"/>
			<path class="st5" d="M822,2606v-4.9c0-0.6-0.1-1-0.2-1.2c-0.2-0.2-0.4-0.4-0.8-0.4c-0.3,0-0.6,0.1-0.8,0.4s-0.3,0.6-0.3,1v5.1
				h-3.7v-9h3.7v1.4h0c0.3-0.5,0.7-0.9,1.2-1.2s1.1-0.4,1.6-0.4c2,0,3,1.2,3,3.7v5.5H822z"/>
			<path class="st5" d="M835,2606v-9.1c-0.4,0.2-0.8,0.4-1.3,0.5c-0.4,0.1-0.9,0.2-1.5,0.3v-2.8c0.8-0.1,1.5-0.3,2.2-0.6
				c0.7-0.3,1.4-0.7,2.1-1.2h2.2v12.9H835z"/>
			<path class="st5" d="M844.7,2608.9c-1-1.1-1.8-2.3-2.2-3.5s-0.7-2.6-0.7-4.2c0-2.9,1-5.4,2.9-7.8h3c-0.9,1.2-1.5,2.5-2,3.8
				c-0.4,1.3-0.6,2.6-0.6,4c0,1.4,0.2,2.8,0.6,4c0.4,1.2,1.1,2.5,2,3.7H844.7z"/>
			<path class="st5" d="M853.8,2601.2c0,1.5-0.2,2.9-0.7,4.2c-0.5,1.3-1.2,2.4-2.2,3.5h-3c1.8-2.3,2.6-4.9,2.6-7.7
				c0-1.4-0.2-2.7-0.6-4c-0.4-1.3-1.1-2.6-2-3.8h3C852.8,2595.7,853.8,2598.3,853.8,2601.2z"/>
		</g>
		<g class="st3">
			<path class="st5" d="M754.2,2624.7c0,1.3-0.3,2.4-0.8,3.4s-1.3,1.8-2.3,2.3c-1,0.6-2.1,0.8-3.3,0.8c-1.2,0-2.3-0.3-3.2-0.8
				c-1-0.5-1.7-1.3-2.3-2.3c-0.5-1-0.8-2.1-0.8-3.3c0-1.3,0.3-2.4,0.8-3.5s1.3-1.8,2.3-2.4s2.1-0.8,3.4-0.8c1.2,0,2.3,0.3,3.2,0.8
				c1,0.5,1.7,1.3,2.2,2.3C754,2622.3,754.2,2623.4,754.2,2624.7z M750.2,2624.8c0-1-0.2-1.9-0.6-2.5s-0.9-0.9-1.6-0.9
				c-0.8,0-1.3,0.3-1.8,0.9s-0.6,1.4-0.6,2.4c0,1,0.2,1.8,0.6,2.4s1,0.9,1.7,0.9c0.4,0,0.8-0.1,1.2-0.4s0.6-0.6,0.8-1.1
				S750.2,2625.4,750.2,2624.8z"/>
			<path class="st5" d="M765.8,2626.2c0,1-0.2,1.9-0.5,2.6s-0.8,1.3-1.4,1.8s-1.3,0.6-2.1,0.6c-1.1,0-1.9-0.4-2.4-1.2h0v5.1h-3.7
				V2622h3.7v1.2h0c0.3-0.5,0.7-0.8,1.2-1.1c0.5-0.3,1-0.4,1.6-0.4c1.2,0,2,0.4,2.7,1.2S765.8,2624.8,765.8,2626.2z M762,2626.3
				c0-0.6-0.1-1-0.3-1.3s-0.6-0.5-1-0.5c-0.4,0-0.7,0.2-1,0.5s-0.4,0.8-0.4,1.4v0.2c0,0.6,0.1,1,0.3,1.4s0.5,0.5,0.9,0.5
				c0.5,0,0.8-0.2,1-0.6S762,2627,762,2626.3z"/>
			<path class="st5" d="M770.5,2627.6c0.1,0.4,0.3,0.7,0.7,0.9c0.4,0.2,0.9,0.3,1.5,0.3c0.9,0,1.7-0.2,2.5-0.5v2.4
				c-0.9,0.4-2,0.5-3.3,0.5c-1.6,0-2.8-0.4-3.7-1.2s-1.3-1.9-1.3-3.3c0-1,0.2-1.8,0.6-2.6s1-1.3,1.7-1.7c0.8-0.4,1.6-0.6,2.5-0.6
				c0.9,0,1.7,0.2,2.4,0.5s1.2,0.9,1.5,1.5s0.5,1.4,0.5,2.3v1.4H770.5z M772.7,2625.6c0-1-0.4-1.6-1.1-1.6c-0.3,0-0.6,0.1-0.8,0.4
				s-0.3,0.7-0.4,1.1H772.7z"/>
			<path class="st5" d="M784.1,2625.2c-0.1-0.1-0.3-0.1-0.6-0.2s-0.4-0.1-0.6-0.1c-1.2,0-1.9,0.7-1.9,2.1v3.9h-3.7v-9h3.7v1.6h0
				c0.2-0.6,0.6-1,1-1.3c0.4-0.3,0.9-0.4,1.5-0.4c0.2,0,0.4,0,0.5,0.1V2625.2z"/>
			<path class="st5" d="M790.1,2631v-1.4h0c-0.6,1.1-1.5,1.6-2.7,1.6c-0.8,0-1.5-0.3-2-0.8s-0.7-1.2-0.7-2c0-1.8,1.1-2.8,3.3-3.1
				l2.2-0.3c0-0.3-0.1-0.5-0.4-0.7s-0.6-0.3-1.1-0.3c-1,0-2.1,0.3-3.2,0.9v-2.4c0.5-0.2,1.1-0.4,1.8-0.5s1.4-0.2,1.9-0.2
				c1.5,0,2.6,0.3,3.3,1c0.7,0.7,1,1.7,1,3.3v5H790.1z M787.9,2627.9c0,0.2,0.1,0.4,0.2,0.6s0.4,0.2,0.7,0.2c0.4,0,0.7-0.1,1-0.4
				s0.4-0.7,0.4-1.1v-0.3l-1.3,0.2C788.3,2627.2,787.9,2627.5,787.9,2627.9z"/>
			<path class="st5" d="M802.7,2630.7c-0.2,0.1-0.6,0.3-1.1,0.3s-1.1,0.1-1.8,0.1c-0.9,0-1.8-0.2-2.5-0.6c-0.7-0.4-1.3-0.9-1.7-1.6
				s-0.6-1.5-0.6-2.3c0-1,0.2-1.9,0.7-2.6s1.1-1.3,1.9-1.7s1.7-0.6,2.8-0.6c0.6,0,1.1,0,1.6,0.1s0.8,0.2,0.9,0.3v2.9
				c-0.2-0.1-0.5-0.3-0.8-0.4s-0.7-0.2-1-0.2c-0.7,0-1.3,0.2-1.7,0.5c-0.4,0.3-0.6,0.8-0.6,1.5c0,0.6,0.2,1.1,0.6,1.4
				c0.4,0.3,0.9,0.5,1.5,0.5c0.7,0,1.3-0.2,1.9-0.5V2630.7z"/>
			<path class="st5" d="M808.1,2619.6c0,0.5-0.2,1-0.6,1.3s-0.9,0.5-1.5,0.5c-0.6,0-1.1-0.2-1.5-0.5s-0.6-0.8-0.6-1.3
				c0-0.5,0.2-0.9,0.6-1.3s0.9-0.5,1.5-0.5c0.6,0,1.1,0.2,1.5,0.5S808.1,2619.1,808.1,2619.6z M804.2,2631v-9h3.7v9H804.2z"/>
			<path class="st5" d="M819.7,2626.3c0,1.5-0.5,2.7-1.4,3.6s-2.2,1.3-3.8,1.3c-1.6,0-2.9-0.4-3.8-1.3c-0.9-0.8-1.4-2-1.4-3.5
				c0-1,0.2-1.8,0.6-2.5s1-1.2,1.8-1.6s1.7-0.6,2.7-0.6c1.1,0,2,0.2,2.8,0.6s1.4,0.9,1.8,1.6S819.7,2625.5,819.7,2626.3z
				 M815,2620.6h-2.6l2.6-2.8h3.1L815,2620.6z M815.9,2626.4c0-1.2-0.5-1.8-1.4-1.8s-1.4,0.6-1.4,1.9c0,1.4,0.5,2,1.4,2
				C815.5,2628.5,815.9,2627.8,815.9,2626.4z"/>
			<path class="st5" d="M827,2631v-4.9c0-0.6-0.1-1-0.3-1.2c-0.2-0.2-0.4-0.4-0.8-0.4c-0.3,0-0.6,0.1-0.8,0.4s-0.3,0.6-0.3,1v5.1
				h-3.7v-9h3.7v1.4h0c0.3-0.5,0.7-0.9,1.2-1.2s1.1-0.4,1.6-0.4c2,0,3,1.2,3,3.7v5.5H827z"/>
			<path class="st5" d="M837.3,2631v-1c0-0.7,0.1-1.3,0.3-1.9s0.5-1,0.8-1.5c0.4-0.5,1-1.1,2-1.8c0.7-0.5,1.1-0.9,1.3-1.1
				c0.2-0.2,0.4-0.5,0.5-0.7c0.1-0.2,0.2-0.5,0.2-0.7c0-0.8-0.5-1.3-1.5-1.3c-1,0-2,0.4-2.9,1.1v-3.1c0.7-0.4,1.3-0.6,2-0.7
				c0.6-0.1,1.2-0.2,1.9-0.2c1.4,0,2.4,0.3,3.2,1s1.1,1.6,1.1,2.8c0,0.9-0.2,1.7-0.6,2.3s-1.1,1.3-2.2,2c-0.8,0.5-1.4,0.9-1.6,1.2
				c-0.3,0.2-0.4,0.4-0.4,0.6h4.9v3H837.3z"/>
			<path class="st5" d="M851.8,2633.9c-1-1.1-1.8-2.3-2.2-3.5s-0.7-2.6-0.7-4.2c0-2.9,1-5.4,2.9-7.8h3c-0.9,1.2-1.5,2.5-2,3.8
				c-0.4,1.3-0.6,2.6-0.6,4c0,1.4,0.2,2.8,0.6,4c0.4,1.2,1.1,2.5,2,3.7H851.8z"/>
			<path class="st5" d="M860.9,2626.2c0,1.5-0.2,2.9-0.7,4.2c-0.5,1.3-1.2,2.4-2.2,3.5h-3c1.8-2.3,2.6-4.9,2.6-7.7
				c0-1.4-0.2-2.7-0.6-4c-0.4-1.3-1.1-2.6-2-3.8h3C859.9,2620.7,860.9,2623.3,860.9,2626.2z"/>
		</g>
		<g class="st3">
			<path class="st5" d="M754.2,2649.7c0,1.3-0.3,2.4-0.8,3.4s-1.3,1.8-2.3,2.3c-1,0.6-2.1,0.8-3.3,0.8c-1.2,0-2.3-0.3-3.2-0.8
				c-1-0.5-1.7-1.3-2.3-2.3c-0.5-1-0.8-2.1-0.8-3.3c0-1.3,0.3-2.4,0.8-3.5s1.3-1.8,2.3-2.4s2.1-0.8,3.4-0.8c1.2,0,2.3,0.3,3.2,0.8
				c1,0.5,1.7,1.3,2.2,2.3C754,2647.3,754.2,2648.4,754.2,2649.7z M750.2,2649.8c0-1-0.2-1.9-0.6-2.5s-0.9-0.9-1.6-0.9
				c-0.8,0-1.3,0.3-1.8,0.9s-0.6,1.4-0.6,2.4c0,1,0.2,1.8,0.6,2.4s1,0.9,1.7,0.9c0.4,0,0.8-0.1,1.2-0.4s0.6-0.6,0.8-1.1
				S750.2,2650.4,750.2,2649.8z"/>
			<path class="st5" d="M765.8,2651.2c0,1-0.2,1.9-0.5,2.6s-0.8,1.3-1.4,1.8s-1.3,0.6-2.1,0.6c-1.1,0-1.9-0.4-2.4-1.2h0v5.1h-3.7
				V2647h3.7v1.2h0c0.3-0.5,0.7-0.8,1.2-1.1c0.5-0.3,1-0.4,1.6-0.4c1.2,0,2,0.4,2.7,1.2S765.8,2649.8,765.8,2651.2z M762,2651.3
				c0-0.6-0.1-1-0.3-1.3s-0.6-0.5-1-0.5c-0.4,0-0.7,0.2-1,0.5s-0.4,0.8-0.4,1.4v0.2c0,0.6,0.1,1,0.3,1.4s0.5,0.5,0.9,0.5
				c0.5,0,0.8-0.2,1-0.6S762,2652,762,2651.3z"/>
			<path class="st5" d="M770.5,2652.6c0.1,0.4,0.3,0.7,0.7,0.9c0.4,0.2,0.9,0.3,1.5,0.3c0.9,0,1.7-0.2,2.5-0.5v2.4
				c-0.9,0.4-2,0.5-3.3,0.5c-1.6,0-2.8-0.4-3.7-1.2s-1.3-1.9-1.3-3.3c0-1,0.2-1.8,0.6-2.6s1-1.3,1.7-1.7c0.8-0.4,1.6-0.6,2.5-0.6
				c0.9,0,1.7,0.2,2.4,0.5s1.2,0.9,1.5,1.5s0.5,1.4,0.5,2.3v1.4H770.5z M772.7,2650.6c0-1-0.4-1.6-1.1-1.6c-0.3,0-0.6,0.1-0.8,0.4
				s-0.3,0.7-0.4,1.1H772.7z"/>
			<path class="st5" d="M784.1,2650.2c-0.1-0.1-0.3-0.1-0.6-0.2s-0.4-0.1-0.6-0.1c-1.2,0-1.9,0.7-1.9,2.1v3.9h-3.7v-9h3.7v1.6h0
				c0.2-0.6,0.6-1,1-1.3c0.4-0.3,0.9-0.4,1.5-0.4c0.2,0,0.4,0,0.5,0.1V2650.2z"/>
			<path class="st5" d="M790.1,2656v-1.4h0c-0.6,1.1-1.5,1.6-2.7,1.6c-0.8,0-1.5-0.3-2-0.8s-0.7-1.2-0.7-2c0-1.8,1.1-2.8,3.3-3.1
				l2.2-0.3c0-0.3-0.1-0.5-0.4-0.7s-0.6-0.3-1.1-0.3c-1,0-2.1,0.3-3.2,0.9v-2.4c0.5-0.2,1.1-0.4,1.8-0.5s1.4-0.2,1.9-0.2
				c1.5,0,2.6,0.3,3.3,1c0.7,0.7,1,1.7,1,3.3v5H790.1z M787.9,2652.9c0,0.2,0.1,0.4,0.2,0.6s0.4,0.2,0.7,0.2c0.4,0,0.7-0.1,1-0.4
				s0.4-0.7,0.4-1.1v-0.3l-1.3,0.2C788.3,2652.2,787.9,2652.5,787.9,2652.9z"/>
			<path class="st5" d="M802.7,2655.7c-0.2,0.1-0.6,0.3-1.1,0.3s-1.1,0.1-1.8,0.1c-0.9,0-1.8-0.2-2.5-0.6c-0.7-0.4-1.3-0.9-1.7-1.6
				s-0.6-1.5-0.6-2.3c0-1,0.2-1.9,0.7-2.6s1.1-1.3,1.9-1.7s1.7-0.6,2.8-0.6c0.6,0,1.1,0,1.6,0.1s0.8,0.2,0.9,0.3v2.9
				c-0.2-0.1-0.5-0.3-0.8-0.4s-0.7-0.2-1-0.2c-0.7,0-1.3,0.2-1.7,0.5c-0.4,0.3-0.6,0.8-0.6,1.5c0,0.6,0.2,1.1,0.6,1.4
				c0.4,0.3,0.9,0.5,1.5,0.5c0.7,0,1.3-0.2,1.9-0.5V2655.7z"/>
			<path class="st5" d="M808.1,2644.6c0,0.5-0.2,1-0.6,1.3s-0.9,0.5-1.5,0.5c-0.6,0-1.1-0.2-1.5-0.5s-0.6-0.8-0.6-1.3
				c0-0.5,0.2-0.9,0.6-1.3s0.9-0.5,1.5-0.5c0.6,0,1.1,0.2,1.5,0.5S808.1,2644.1,808.1,2644.6z M804.2,2656v-9h3.7v9H804.2z"/>
			<path class="st5" d="M819.7,2651.3c0,1.5-0.5,2.7-1.4,3.6s-2.2,1.3-3.8,1.3c-1.6,0-2.9-0.4-3.8-1.3c-0.9-0.8-1.4-2-1.4-3.5
				c0-1,0.2-1.8,0.6-2.5s1-1.2,1.8-1.6s1.7-0.6,2.7-0.6c1.1,0,2,0.2,2.8,0.6s1.4,0.9,1.8,1.6S819.7,2650.5,819.7,2651.3z
				 M815,2645.6h-2.6l2.6-2.8h3.1L815,2645.6z M815.9,2651.4c0-1.2-0.5-1.8-1.4-1.8s-1.4,0.6-1.4,1.9c0,1.4,0.5,2,1.4,2
				C815.5,2653.5,815.9,2652.8,815.9,2651.4z"/>
			<path class="st5" d="M827,2656v-4.9c0-0.6-0.1-1-0.3-1.2c-0.2-0.2-0.4-0.4-0.8-0.4c-0.3,0-0.6,0.1-0.8,0.4s-0.3,0.6-0.3,1v5.1
				h-3.7v-9h3.7v1.4h0c0.3-0.5,0.7-0.9,1.2-1.2s1.1-0.4,1.6-0.4c2,0,3,1.2,3,3.7v5.5H827z"/>
			<path class="st5" d="M846,2652.4c0,1.2-0.4,2.2-1.3,2.8s-2.1,1-3.8,1c-0.6,0-1.2-0.1-1.8-0.2c-0.6-0.1-1.1-0.2-1.5-0.4v-2.9
				c0.4,0.2,0.8,0.4,1.3,0.6s1,0.2,1.5,0.2c0.6,0,1.1-0.1,1.4-0.3c0.3-0.2,0.5-0.5,0.5-0.9c0-0.4-0.2-0.7-0.6-0.9s-0.9-0.3-1.6-0.3
				h-1.2v-2.8h1.1c0.7,0,1.2-0.1,1.6-0.3c0.3-0.2,0.5-0.5,0.5-0.9c0-0.3-0.1-0.6-0.4-0.8c-0.3-0.2-0.6-0.3-1.2-0.3
				c-0.8,0-1.6,0.2-2.4,0.7v-2.8c1-0.4,2.1-0.6,3.2-0.6c1.4,0,2.5,0.3,3.3,0.9s1.2,1.4,1.2,2.4c0,0.8-0.2,1.4-0.6,2
				c-0.4,0.5-1,0.9-1.8,1v0c0.8,0.1,1.5,0.4,2,1S846,2651.6,846,2652.4z"/>
			<path class="st5" d="M851.8,2658.9c-1-1.1-1.8-2.3-2.2-3.5s-0.7-2.6-0.7-4.2c0-2.9,1-5.4,2.9-7.8h3c-0.9,1.2-1.5,2.5-2,3.8
				c-0.4,1.3-0.6,2.6-0.6,4c0,1.4,0.2,2.8,0.6,4c0.4,1.2,1.1,2.5,2,3.7H851.8z"/>
			<path class="st5" d="M860.9,2651.2c0,1.5-0.2,2.9-0.7,4.2c-0.5,1.3-1.2,2.4-2.2,3.5h-3c1.8-2.3,2.6-4.9,2.6-7.7
				c0-1.4-0.2-2.7-0.6-4c-0.4-1.3-1.1-2.6-2-3.8h3C859.9,2645.7,860.9,2648.3,860.9,2651.2z"/>
		</g>
		<rect id="Rectángulo_36642" x="1125" y="2380" class="st1" width="190" height="60"/>
		<rect id="Rectángulo_36643" x="1125" y="2440" class="st2" width="190" height="78"/>
		<g class="st3">
			<path class="st5" d="M1168,2414.2c0,0.8-0.2,1.6-0.7,2.2c-0.4,0.6-1.1,1.1-1.9,1.4s-1.8,0.5-2.9,0.5c-1.3,0-2.5-0.2-3.6-0.7v-3.5
				c0.5,0.4,1.1,0.7,1.7,0.9c0.6,0.2,1.2,0.4,1.8,0.4c0.4,0,0.7-0.1,1-0.2c0.2-0.2,0.3-0.4,0.3-0.7c0-0.2-0.1-0.4-0.2-0.5
				c-0.1-0.2-0.3-0.3-0.5-0.4c-0.2-0.1-0.7-0.3-1.3-0.6c-2-0.8-3-2-3-3.8c0-1.2,0.5-2.2,1.4-2.9c0.9-0.7,2.2-1.1,3.7-1.1
				c0.4,0,0.8,0,1.2,0.1s0.7,0.1,1,0.1c0.3,0.1,0.7,0.2,1.3,0.3v3.2c-1.1-0.6-2.1-0.9-3.1-0.9c-0.4,0-0.8,0.1-1,0.2
				s-0.4,0.4-0.4,0.7c0,0.3,0.1,0.5,0.3,0.7c0.2,0.2,0.6,0.4,1.3,0.7c1.3,0.5,2.2,1.1,2.8,1.7
				C1167.7,2412.6,1168,2413.3,1168,2414.2z"/>
			<path class="st5" d="M1174.9,2418v-1.4h0c-0.3,0.4-0.6,0.7-0.8,0.9c-0.2,0.2-0.5,0.4-0.8,0.5c-0.3,0.1-0.7,0.2-1.1,0.2
				c-1,0-1.7-0.3-2.2-1s-0.8-1.6-0.8-2.8v-5.4h3.7v5.2c0,0.9,0.3,1.3,1,1.3c0.4,0,0.6-0.1,0.8-0.4c0.2-0.2,0.3-0.6,0.3-1v-5.1h3.7v9
				H1174.9z"/>
			<path class="st5" d="M1190.6,2413.2c0,1-0.2,1.9-0.5,2.6c-0.3,0.8-0.8,1.3-1.4,1.8c-0.6,0.4-1.3,0.6-2,0.6
				c-0.6,0-1.1-0.1-1.5-0.3c-0.4-0.2-0.7-0.5-1-0.8h0v0.9h-3.7v-13.3h3.7v5.5h0c0.3-0.4,0.7-0.8,1.2-1.1c0.5-0.3,1.1-0.4,1.7-0.4
				c1.1,0,2,0.4,2.6,1.1C1190.3,2410.7,1190.6,2411.8,1190.6,2413.2z M1186.8,2413.3c0-0.6-0.1-1.1-0.3-1.4c-0.2-0.3-0.6-0.5-1-0.5
				c-0.4,0-0.7,0.2-1,0.5c-0.3,0.3-0.4,0.7-0.4,1.2v0.5c0,0.5,0.1,0.9,0.3,1.2s0.5,0.5,0.9,0.5c0.5,0,0.8-0.2,1-0.6
				S1186.8,2414,1186.8,2413.3z"/>
			<path class="st5" d="M1199.3,2415c0,1-0.4,1.8-1.2,2.4c-0.8,0.6-1.9,0.8-3.2,0.8c-0.4,0-0.9,0-1.5-0.1c-0.6-0.1-1.1-0.2-1.5-0.3
				v-2.6c1.1,0.5,2,0.7,2.8,0.7c0.7,0,1.1-0.2,1.1-0.6c0-0.2-0.1-0.3-0.3-0.4c-0.2-0.1-0.6-0.3-1.3-0.5c-0.8-0.3-1.4-0.6-1.7-1
				s-0.5-1-0.5-1.6c0-0.9,0.4-1.7,1.1-2.2c0.7-0.5,1.8-0.8,3.1-0.8c0.8,0,1.6,0.1,2.5,0.3v2.5c-0.4-0.2-0.8-0.3-1.2-0.4
				s-0.8-0.2-1.1-0.2c-0.2,0-0.4,0-0.6,0.1s-0.2,0.2-0.2,0.3c0,0.2,0.1,0.3,0.2,0.4s0.5,0.2,0.9,0.4c0.9,0.3,1.6,0.6,2,1
				S1199.3,2414.3,1199.3,2415z"/>
			<path class="st5" d="M1204.7,2406.6c0,0.5-0.2,1-0.6,1.3c-0.4,0.3-0.9,0.5-1.5,0.5c-0.6,0-1.1-0.2-1.5-0.5
				c-0.4-0.3-0.6-0.8-0.6-1.3c0-0.5,0.2-0.9,0.6-1.3c0.4-0.3,0.9-0.5,1.5-0.5c0.6,0,1.1,0.2,1.5,0.5
				C1204.5,2405.6,1204.7,2406.1,1204.7,2406.6z M1200.7,2418v-9h3.7v9H1200.7z"/>
			<path class="st5" d="M1213.6,2415c0,1-0.4,1.8-1.2,2.4c-0.8,0.6-1.9,0.8-3.2,0.8c-0.4,0-0.9,0-1.5-0.1c-0.6-0.1-1.1-0.2-1.5-0.3
				v-2.6c1.1,0.5,2,0.7,2.8,0.7c0.7,0,1.1-0.2,1.1-0.6c0-0.2-0.1-0.3-0.3-0.4c-0.2-0.1-0.6-0.3-1.3-0.5c-0.8-0.3-1.4-0.6-1.7-1
				s-0.5-1-0.5-1.6c0-0.9,0.4-1.7,1.1-2.2c0.7-0.5,1.8-0.8,3.1-0.8c0.8,0,1.6,0.1,2.5,0.3v2.5c-0.4-0.2-0.8-0.3-1.2-0.4
				s-0.8-0.2-1.1-0.2c-0.2,0-0.4,0-0.6,0.1s-0.2,0.2-0.2,0.3c0,0.2,0.1,0.3,0.2,0.4s0.5,0.2,0.9,0.4c0.9,0.3,1.6,0.6,2,1
				S1213.6,2414.3,1213.6,2415z"/>
			<path class="st5" d="M1221.3,2417.9c-0.2,0.1-0.4,0.2-0.8,0.2s-0.9,0.1-1.4,0.1c-1,0-1.9-0.3-2.4-0.9c-0.6-0.6-0.9-1.4-0.9-2.5
				v-3.3h-1.4v-2.6h1.4v-1.8l3.7-1v2.8h1.9v2.6h-1.9v2.7c0,0.8,0.3,1.2,0.9,1.2c0.3,0,0.6-0.1,0.9-0.2V2417.9z"/>
			<path class="st5" d="M1225.7,2414.6c0.1,0.4,0.3,0.7,0.7,0.9c0.4,0.2,0.9,0.3,1.5,0.3c0.9,0,1.7-0.2,2.5-0.5v2.4
				c-0.9,0.4-2,0.5-3.3,0.5c-1.6,0-2.8-0.4-3.7-1.2s-1.3-1.9-1.3-3.3c0-1,0.2-1.8,0.6-2.6c0.4-0.7,1-1.3,1.7-1.7
				c0.8-0.4,1.6-0.6,2.5-0.6c0.9,0,1.7,0.2,2.4,0.5s1.2,0.9,1.5,1.5c0.3,0.7,0.5,1.4,0.5,2.3v1.4H1225.7z M1227.9,2412.6
				c0-1-0.4-1.6-1.1-1.6c-0.3,0-0.6,0.1-0.8,0.4s-0.3,0.7-0.4,1.1H1227.9z"/>
			<path class="st5" d="M1244.2,2418v-5.2c0-0.4-0.1-0.8-0.2-1c-0.2-0.2-0.4-0.3-0.8-0.3c-0.3,0-0.6,0.1-0.8,0.4s-0.3,0.6-0.3,1.1v5
				h-3.7v-5.1c0-0.9-0.3-1.4-0.9-1.4c-0.4,0-0.7,0.1-0.9,0.4c-0.2,0.3-0.3,0.6-0.3,1.1v4.9h-3.7v-9h3.7v1.4h0
				c0.1-0.3,0.4-0.5,0.7-0.8c0.3-0.3,0.7-0.5,1-0.6c0.4-0.2,0.8-0.2,1.3-0.2c0.6,0,1.2,0.1,1.6,0.4c0.4,0.3,0.8,0.7,1.1,1.2
				c0.3-0.5,0.7-0.9,1.3-1.2c0.5-0.3,1.1-0.4,1.8-0.4c0.9,0,1.7,0.3,2.2,0.9s0.8,1.5,0.8,2.7v5.6H1244.2z"/>
			<path class="st5" d="M1254.6,2418v-1.4h0c-0.6,1.1-1.5,1.6-2.7,1.6c-0.8,0-1.5-0.3-2-0.8s-0.7-1.2-0.7-2c0-1.8,1.1-2.8,3.3-3.1
				l2.2-0.3c0-0.3-0.1-0.5-0.4-0.7s-0.6-0.3-1.1-0.3c-1,0-2.1,0.3-3.2,0.9v-2.4c0.5-0.2,1.1-0.4,1.8-0.5s1.4-0.2,1.9-0.2
				c1.5,0,2.6,0.3,3.3,1c0.7,0.7,1,1.7,1,3.3v5H1254.6z M1252.4,2414.9c0,0.2,0.1,0.4,0.2,0.6c0.2,0.2,0.4,0.2,0.7,0.2
				c0.4,0,0.7-0.1,1-0.4c0.2-0.3,0.4-0.7,0.4-1.1v-0.3l-1.3,0.2C1252.7,2414.2,1252.4,2414.5,1252.4,2414.9z"/>
			<path class="st5" d="M1267.3,2418v-9.1c-0.4,0.2-0.8,0.4-1.3,0.5c-0.4,0.1-0.9,0.2-1.5,0.3v-2.8c0.8-0.1,1.5-0.3,2.2-0.6
				c0.7-0.3,1.4-0.7,2.1-1.2h2.2v12.9H1267.3z"/>
		</g>
		<path id="Trazado_118358" class="st6" d="M1125,2819.5h-121.9v-191.1"/>
		<line id="Línea_150" class="st6" x1="1003.5" y1="2630.5" x2="1133.5" y2="2630.5"/>
		<rect id="Rectángulo_36645" x="1125" y="2560" class="st1" width="190" height="60"/>
		<rect id="Rectángulo_36644" x="1125" y="2620" class="st2" width="190" height="78"/>
		<g class="st3">
			<path class="st5" d="M1168,2589.2c0,0.8-0.2,1.6-0.7,2.2c-0.4,0.6-1.1,1.1-1.9,1.4s-1.8,0.5-2.9,0.5c-1.3,0-2.5-0.2-3.6-0.7v-3.5
				c0.5,0.4,1.1,0.7,1.7,0.9c0.6,0.2,1.2,0.4,1.8,0.4c0.4,0,0.7-0.1,1-0.2c0.2-0.2,0.3-0.4,0.3-0.7c0-0.2-0.1-0.4-0.2-0.5
				c-0.1-0.2-0.3-0.3-0.5-0.4c-0.2-0.1-0.7-0.3-1.3-0.6c-2-0.8-3-2-3-3.8c0-1.2,0.5-2.2,1.4-2.9c0.9-0.7,2.2-1.1,3.7-1.1
				c0.4,0,0.8,0,1.2,0.1s0.7,0.1,1,0.1c0.3,0.1,0.7,0.2,1.3,0.3v3.2c-1.1-0.6-2.1-0.9-3.1-0.9c-0.4,0-0.8,0.1-1,0.2
				s-0.4,0.4-0.4,0.7c0,0.3,0.1,0.5,0.3,0.7c0.2,0.2,0.6,0.4,1.3,0.7c1.3,0.5,2.2,1.1,2.8,1.7
				C1167.7,2587.6,1168,2588.3,1168,2589.2z"/>
			<path class="st5" d="M1174.9,2593v-1.4h0c-0.3,0.4-0.6,0.7-0.8,0.9c-0.2,0.2-0.5,0.4-0.8,0.5c-0.3,0.1-0.7,0.2-1.1,0.2
				c-1,0-1.7-0.3-2.2-1s-0.8-1.6-0.8-2.8v-5.4h3.7v5.2c0,0.9,0.3,1.3,1,1.3c0.4,0,0.6-0.1,0.8-0.4c0.2-0.2,0.3-0.6,0.3-1v-5.1h3.7v9
				H1174.9z"/>
			<path class="st5" d="M1190.6,2588.2c0,1-0.2,1.9-0.5,2.6c-0.3,0.8-0.8,1.3-1.4,1.8c-0.6,0.4-1.3,0.6-2,0.6
				c-0.6,0-1.1-0.1-1.5-0.3c-0.4-0.2-0.7-0.5-1-0.8h0v0.9h-3.7v-13.3h3.7v5.5h0c0.3-0.4,0.7-0.8,1.2-1.1c0.5-0.3,1.1-0.4,1.7-0.4
				c1.1,0,2,0.4,2.6,1.1C1190.3,2585.7,1190.6,2586.8,1190.6,2588.2z M1186.8,2588.3c0-0.6-0.1-1.1-0.3-1.4c-0.2-0.3-0.6-0.5-1-0.5
				c-0.4,0-0.7,0.2-1,0.5c-0.3,0.3-0.4,0.7-0.4,1.2v0.5c0,0.5,0.1,0.9,0.3,1.2s0.5,0.5,0.9,0.5c0.5,0,0.8-0.2,1-0.6
				S1186.8,2589,1186.8,2588.3z"/>
			<path class="st5" d="M1199.3,2590c0,1-0.4,1.8-1.2,2.4c-0.8,0.6-1.9,0.8-3.2,0.8c-0.4,0-0.9,0-1.5-0.1c-0.6-0.1-1.1-0.2-1.5-0.3
				v-2.6c1.1,0.5,2,0.7,2.8,0.7c0.7,0,1.1-0.2,1.1-0.6c0-0.2-0.1-0.3-0.3-0.4c-0.2-0.1-0.6-0.3-1.3-0.5c-0.8-0.3-1.4-0.6-1.7-1
				s-0.5-1-0.5-1.6c0-0.9,0.4-1.7,1.1-2.2c0.7-0.5,1.8-0.8,3.1-0.8c0.8,0,1.6,0.1,2.5,0.3v2.5c-0.4-0.2-0.8-0.3-1.2-0.4
				s-0.8-0.2-1.1-0.2c-0.2,0-0.4,0-0.6,0.1s-0.2,0.2-0.2,0.3c0,0.2,0.1,0.3,0.2,0.4s0.5,0.2,0.9,0.4c0.9,0.3,1.6,0.6,2,1
				S1199.3,2589.3,1199.3,2590z"/>
			<path class="st5" d="M1204.7,2581.6c0,0.5-0.2,1-0.6,1.3c-0.4,0.3-0.9,0.5-1.5,0.5c-0.6,0-1.1-0.2-1.5-0.5
				c-0.4-0.3-0.6-0.8-0.6-1.3c0-0.5,0.2-0.9,0.6-1.3c0.4-0.3,0.9-0.5,1.5-0.5c0.6,0,1.1,0.2,1.5,0.5
				C1204.5,2580.6,1204.7,2581.1,1204.7,2581.6z M1200.7,2593v-9h3.7v9H1200.7z"/>
			<path class="st5" d="M1213.6,2590c0,1-0.4,1.8-1.2,2.4c-0.8,0.6-1.9,0.8-3.2,0.8c-0.4,0-0.9,0-1.5-0.1c-0.6-0.1-1.1-0.2-1.5-0.3
				v-2.6c1.1,0.5,2,0.7,2.8,0.7c0.7,0,1.1-0.2,1.1-0.6c0-0.2-0.1-0.3-0.3-0.4c-0.2-0.1-0.6-0.3-1.3-0.5c-0.8-0.3-1.4-0.6-1.7-1
				s-0.5-1-0.5-1.6c0-0.9,0.4-1.7,1.1-2.2c0.7-0.5,1.8-0.8,3.1-0.8c0.8,0,1.6,0.1,2.5,0.3v2.5c-0.4-0.2-0.8-0.3-1.2-0.4
				s-0.8-0.2-1.1-0.2c-0.2,0-0.4,0-0.6,0.1s-0.2,0.2-0.2,0.3c0,0.2,0.1,0.3,0.2,0.4s0.5,0.2,0.9,0.4c0.9,0.3,1.6,0.6,2,1
				S1213.6,2589.3,1213.6,2590z"/>
			<path class="st5" d="M1221.3,2592.9c-0.2,0.1-0.4,0.2-0.8,0.2s-0.9,0.1-1.4,0.1c-1,0-1.9-0.3-2.4-0.9c-0.6-0.6-0.9-1.4-0.9-2.5
				v-3.3h-1.4v-2.6h1.4v-1.8l3.7-1v2.8h1.9v2.6h-1.9v2.7c0,0.8,0.3,1.2,0.9,1.2c0.3,0,0.6-0.1,0.9-0.2V2592.9z"/>
			<path class="st5" d="M1225.7,2589.6c0.1,0.4,0.3,0.7,0.7,0.9c0.4,0.2,0.9,0.3,1.5,0.3c0.9,0,1.7-0.2,2.5-0.5v2.4
				c-0.9,0.4-2,0.5-3.3,0.5c-1.6,0-2.8-0.4-3.7-1.2s-1.3-1.9-1.3-3.3c0-1,0.2-1.8,0.6-2.6c0.4-0.7,1-1.3,1.7-1.7
				c0.8-0.4,1.6-0.6,2.5-0.6c0.9,0,1.7,0.2,2.4,0.5s1.2,0.9,1.5,1.5c0.3,0.7,0.5,1.4,0.5,2.3v1.4H1225.7z M1227.9,2587.6
				c0-1-0.4-1.6-1.1-1.6c-0.3,0-0.6,0.1-0.8,0.4s-0.3,0.7-0.4,1.1H1227.9z"/>
			<path class="st5" d="M1244.2,2593v-5.2c0-0.4-0.1-0.8-0.2-1c-0.2-0.2-0.4-0.3-0.8-0.3c-0.3,0-0.6,0.1-0.8,0.4s-0.3,0.6-0.3,1.1v5
				h-3.7v-5.1c0-0.9-0.3-1.4-0.9-1.4c-0.4,0-0.7,0.1-0.9,0.4c-0.2,0.3-0.3,0.6-0.3,1.1v4.9h-3.7v-9h3.7v1.4h0
				c0.1-0.3,0.4-0.5,0.7-0.8c0.3-0.3,0.7-0.5,1-0.6c0.4-0.2,0.8-0.2,1.3-0.2c0.6,0,1.2,0.1,1.6,0.4c0.4,0.3,0.8,0.7,1.1,1.2
				c0.3-0.5,0.7-0.9,1.3-1.2c0.5-0.3,1.1-0.4,1.8-0.4c0.9,0,1.7,0.3,2.2,0.9s0.8,1.5,0.8,2.7v5.6H1244.2z"/>
			<path class="st5" d="M1254.6,2593v-1.4h0c-0.6,1.1-1.5,1.6-2.7,1.6c-0.8,0-1.5-0.3-2-0.8s-0.7-1.2-0.7-2c0-1.8,1.1-2.8,3.3-3.1
				l2.2-0.3c0-0.3-0.1-0.5-0.4-0.7s-0.6-0.3-1.1-0.3c-1,0-2.1,0.3-3.2,0.9v-2.4c0.5-0.2,1.1-0.4,1.8-0.5s1.4-0.2,1.9-0.2
				c1.5,0,2.6,0.3,3.3,1c0.7,0.7,1,1.7,1,3.3v5H1254.6z M1252.4,2589.9c0,0.2,0.1,0.4,0.2,0.6c0.2,0.2,0.4,0.2,0.7,0.2
				c0.4,0,0.7-0.1,1-0.4c0.2-0.3,0.4-0.7,0.4-1.1v-0.3l-1.3,0.2C1252.7,2589.2,1252.4,2589.5,1252.4,2589.9z"/>
			<path class="st5" d="M1264.6,2593v-1c0-0.7,0.1-1.3,0.3-1.9s0.5-1,0.8-1.5c0.4-0.5,1-1.1,2-1.8c0.7-0.5,1.1-0.9,1.3-1.1
				c0.2-0.2,0.4-0.5,0.5-0.7c0.1-0.2,0.2-0.5,0.2-0.7c0-0.8-0.5-1.3-1.5-1.3c-1,0-2,0.4-2.9,1.1v-3.1c0.7-0.4,1.3-0.6,2-0.7
				c0.6-0.1,1.2-0.2,1.9-0.2c1.4,0,2.4,0.3,3.2,1s1.1,1.6,1.1,2.8c0,0.9-0.2,1.7-0.6,2.3s-1.1,1.3-2.2,2c-0.8,0.5-1.4,0.9-1.6,1.2
				c-0.3,0.2-0.4,0.4-0.4,0.6h4.9v3H1264.6z"/>
		</g>
		<path id="Polígono_27" class="st7" d="M893.1,2626.8L893.1,2626.8c2.7-1.5,6,0.5,6,3.5l0,0c0,3.1-3.3,5-6,3.5l0,0
			C890.3,2632.3,890.3,2628.4,893.1,2626.8z"/>
	</g>
</g>
<rect x="185.9" y="158.1" transform="matrix(0.7071 -0.7071 0.7071 0.7071 -59.0695 181.8303)" class="st7" width="8.2" height="8.2"/>
</svg>
