<svg xmlns="http://www.w3.org/2000/svg" xmlns:xlink="http://www.w3.org/1999/xlink" width="112" height="112" viewBox="0 0 112 112">
  <defs>
    <clipPath id="clip-path">
      <rect id="Rectángulo_36088" data-name="Rectángulo 36088" width="40.155" height="62.76" fill="#fff"/>
    </clipPath>
  </defs>
  <g id="Grupo_141318" data-name="Grupo 141318" transform="translate(6081 11072)">
    <circle id="Elipse_4778" data-name="Elipse 4778" cx="56" cy="56" r="56" transform="translate(-6081 -11072)" fill="#039be5"/>
    <g id="Grupo_87625" data-name="Grupo 87625" transform="translate(-6045.078 -11051.168)" clip-path="url(#clip-path)">
      <path id="Trazado_116484" data-name="Trazado 116484" d="M9.7,23.4a12.661,12.661,0,0,0,1,2.319L9.485,27.191a1.277,1.277,0,0,0,.106,1.633l2.054,2a1.1,1.1,0,0,0,1.581.105L14.7,29.773a10.545,10.545,0,0,0,2.423,1l.212,1.9a1.285,1.285,0,0,0,1.209,1.106h2.9a1.209,1.209,0,0,0,1.212-1.106l.212-1.791a11.04,11.04,0,0,0,2.58-1.055l1.424,1.107a1.215,1.215,0,0,0,1.632-.052l2-2.056a1.164,1.164,0,0,0,.105-1.633l-1.108-1.423a8.9,8.9,0,0,0,1.056-2.528l1.736-.212a1.163,1.163,0,0,0,1.055-1.213V18.971A1.164,1.164,0,0,0,32.3,17.76l-1.684-.21a10.689,10.689,0,0,0-1.054-2.528l1.054-1.266a1.213,1.213,0,0,0-.105-1.635l-2-2.055a1.214,1.214,0,0,0-1.632-.053l-1.265,1a10.449,10.449,0,0,0-2.635-1.107l-.212-1.685a1.206,1.206,0,0,0-1.213-1.054H18.709A1.2,1.2,0,0,0,17.5,8.221l-.212,1.685a13.651,13.651,0,0,0-2.741,1.107l-1.317-1a1.149,1.149,0,0,0-1.581.053L9.591,12.121a1.274,1.274,0,0,0-.106,1.635l1.107,1.37a14.754,14.754,0,0,0-1,2.528l-1.74.212a1.248,1.248,0,0,0-1.107,1.212v2.9a1.291,1.291,0,0,0,1.107,1.213Zm10.38-5.533a2.608,2.608,0,1,1-2.635,2.584,2.588,2.588,0,0,1,2.635-2.584M40.155,20.08A20.077,20.077,0,1,0,4.267,32.463,89.435,89.435,0,0,1,10.8,42v10.59H29.247V42.21a98.4,98.4,0,0,1,6.586-9.747A19.962,19.962,0,0,0,40.155,20.08M20.076,5.113a15.572,15.572,0,1,1-15.6,15.6,15.584,15.584,0,0,1,15.6-15.6m0,9.116a6.244,6.244,0,1,1-6.27,6.219,6.229,6.229,0,0,1,6.27-6.219m-4.268,44.9a4.26,4.26,0,0,0,4.216,3.636,4.209,4.209,0,0,0,4.164-3.636,5.353,5.353,0,0,0,5.059-5.268H10.8a5.305,5.305,0,0,0,5,5.268m4.268-42.839a4.189,4.189,0,1,1-4.215,4.163,4.181,4.181,0,0,1,4.215-4.163m0-2.636a6.824,6.824,0,1,1-6.849,6.8,6.861,6.861,0,0,1,6.849-6.8" transform="translate(0 0)" fill="#fff" fill-rule="evenodd"/>
    </g>
  </g>
</svg>
