<?xml version="1.0" encoding="utf-8"?>
<!-- Generator: Adobe Illustrator 25.4.2, SVG Export Plug-In . SVG Version: 6.00 Build 0)  -->
<svg version="1.1" id="Capa_1" xmlns="http://www.w3.org/2000/svg" xmlns:xlink="http://www.w3.org/1999/xlink" x="0px" y="0px"
	 viewBox="0 0 315 197" style="enable-background:new 0 0 315 197;" xml:space="preserve">
<style type="text/css">
	.st0{fill:#D2E2F3;}
	.st1{fill:#A6CBF7;}
	.st2{fill:#A9B5C3;}
	.st3{fill:none;}
	.st4{enable-background:new    ;}
	.st5{fill:#12263F;}
</style>
<g id="Grupo_141282" transform="translate(-1000 -1158)">
	<g id="Grupo_141273" transform="translate(1098.731 1169.284)">
		<rect id="Rectángulo_36546" x="-0.5" y="40.9" class="st0" width="129.4" height="129.4"/>
		<path id="Trazado_118187" class="st1" d="M35.9,0L-0.5,40.9h129.4L165.3,0H35.9z"/>
		<path id="Trazado_118188" class="st2" d="M165.3,0l-36.4,40.9v129.4l36.4-40.9V0z"/>
	</g>
	<rect id="Rectángulo_36564" x="999.5" y="1158" class="st3" width="315" height="197"/>
</g>
<g class="st4">
	<path class="st5" d="M147.5,120l-4.4-6.1c-0.4-0.5-0.6-0.9-0.9-1.3h0c0,0.6,0.1,1.3,0.1,2.1v5.3h-3.5v-12.6h3.6l4.3,5.8
		c0.1,0.1,0.1,0.2,0.2,0.3s0.2,0.2,0.2,0.3s0.1,0.2,0.2,0.3s0.1,0.2,0.2,0.3h0c0-0.3-0.1-0.7-0.1-1.3v-5.7h3.5V120H147.5z"/>
	<path class="st5" d="M163,115.3c0,1.5-0.5,2.7-1.4,3.6c-0.9,0.9-2.2,1.3-3.8,1.3c-1.6,0-2.9-0.4-3.8-1.3c-0.9-0.8-1.4-2-1.4-3.5
		c0-1,0.2-1.8,0.6-2.5s1-1.2,1.8-1.6s1.7-0.6,2.7-0.6c1.1,0,2,0.2,2.8,0.6c0.8,0.4,1.4,0.9,1.8,1.6C162.8,113.7,163,114.5,163,115.3
		z M159.2,115.4c0-1.2-0.5-1.8-1.4-1.8s-1.4,0.6-1.4,1.9c0,1.4,0.5,2,1.4,2C158.8,117.5,159.2,116.8,159.2,115.4z"/>
	<path class="st5" d="M170.4,120v-1h0c-0.3,0.4-0.7,0.7-1.2,0.9c-0.5,0.2-1,0.3-1.4,0.3c-0.8,0-1.4-0.2-2-0.6
		c-0.6-0.4-1-0.9-1.3-1.6c-0.3-0.7-0.4-1.5-0.4-2.4c0-1,0.2-1.8,0.5-2.5s0.8-1.3,1.5-1.7s1.3-0.6,2.1-0.6c0.4,0,0.7,0.1,1,0.2
		c0.3,0.1,0.6,0.2,0.8,0.4c0.2,0.2,0.4,0.4,0.4,0.5h0v-5.2h3.7V120H170.4z M170.5,115.2c0-0.5-0.1-1-0.4-1.3c-0.2-0.3-0.6-0.4-1-0.4
		s-0.7,0.2-1,0.6c-0.3,0.4-0.4,0.9-0.4,1.5c0,1.3,0.4,1.9,1.3,1.9c0.4,0,0.7-0.2,1-0.5c0.2-0.3,0.4-0.8,0.4-1.5V115.2z"/>
	<path class="st5" d="M186,115.3c0,1.5-0.5,2.7-1.4,3.6c-0.9,0.9-2.2,1.3-3.8,1.3c-1.6,0-2.9-0.4-3.8-1.3c-0.9-0.8-1.4-2-1.4-3.5
		c0-1,0.2-1.8,0.6-2.5s1-1.2,1.8-1.6s1.7-0.6,2.7-0.6c1.1,0,2,0.2,2.8,0.6c0.8,0.4,1.4,0.9,1.8,1.6C185.8,113.7,186,114.5,186,115.3
		z M182.2,115.4c0-1.2-0.5-1.8-1.4-1.8s-1.4,0.6-1.4,1.9c0,1.4,0.5,2,1.4,2C181.7,117.5,182.2,116.8,182.2,115.4z"/>
</g>
</svg>
