<svg id="Grupo_141225" data-name="Grupo 141225" xmlns="http://www.w3.org/2000/svg" xmlns:xlink="http://www.w3.org/1999/xlink" width="615.184" height="419.992" viewBox="0 0 615.184 419.992">
  <defs>
    <clipPath id="clip-path">
      <rect id="Rectángulo_36487" data-name="Rectángulo 36487" width="615.184" height="419.992" fill="none"/>
    </clipPath>
  </defs>
  <g id="Grupo_141224" data-name="Grupo 141224" clip-path="url(#clip-path)">
    <path id="Trazado_117917" data-name="Trazado 117917" d="M138.164,493.359l5.266,1.883a5.21,5.21,0,0,0,6.016-1.889,53.948,53.948,0,0,1,8.967-9.89,5.212,5.212,0,0,0,1.286-6.178l-2.384-5.06a5.253,5.253,0,0,1,2.49-7l9.687-4.582a5.258,5.258,0,0,1,7,2.506l2.394,5.057a5.213,5.213,0,0,0,5.594,2.922,53.739,53.739,0,0,1,13.332-.661,5.193,5.193,0,0,0,5.268-3.462l1.887-5.264a5.254,5.254,0,0,1,6.715-3.178l10.089,3.608a5.252,5.252,0,0,1,3.179,6.713l-1.882,5.266a5.212,5.212,0,0,0,1.882,6.019,53.96,53.96,0,0,1,9.89,8.958,5.208,5.208,0,0,0,6.183,1.292l5.056-2.394a5.242,5.242,0,0,1,6.99,2.5l4.588,9.682a5.255,5.255,0,0,1-2.505,7l-5.056,2.393a5.2,5.2,0,0,0-2.916,5.6,54.468,54.468,0,0,1,.66,13.334,5.2,5.2,0,0,0,3.453,5.274l5.267,1.88a5.252,5.252,0,0,1,3.178,6.715l-3.607,10.088a5.257,5.257,0,0,1-6.717,3.18l-5.263-1.882a5.218,5.218,0,0,0-6.024,1.886,53.607,53.607,0,0,1-8.954,9.885,5.214,5.214,0,0,0-1.3,6.183l2.4,5.056a5.252,5.252,0,0,1-2.5,7l-9.676,4.585a5.264,5.264,0,0,1-7-2.506l-2.386-5.055a5.209,5.209,0,0,0-5.6-2.919,53.805,53.805,0,0,1-13.324.657,5.209,5.209,0,0,0-5.28,3.459l-1.882,5.264a5.247,5.247,0,0,1-6.714,3.179l-10.091-3.6a5.272,5.272,0,0,1-3.178-6.723l1.888-5.263a5.219,5.219,0,0,0-1.892-6.024,53.984,53.984,0,0,1-9.883-8.953,5.209,5.209,0,0,0-6.179-1.291L141.509,561a5.261,5.261,0,0,1-7-2.5l-4.58-9.687a5.249,5.249,0,0,1,2.5-7l5.059-2.394a5.214,5.214,0,0,0,2.921-5.594,53.169,53.169,0,0,1-.662-13.33,5.2,5.2,0,0,0-3.456-5.27l-5.271-1.888a5.247,5.247,0,0,1-3.178-6.714l3.609-10.089a5.243,5.243,0,0,1,6.713-3.172m26.969,26.135a29.091,29.091,0,1,0,42.944-20.319,29.056,29.056,0,0,0-42.944,20.319" transform="translate(-68.999 -247.931)" fill="#6ecbff" fill-rule="evenodd"/>
    <path id="Trazado_117918" data-name="Trazado 117918" d="M257.538,536.453a36.521,36.521,0,1,1-22.967-15.937,36.406,36.406,0,0,1,22.967,15.937M235.075,518.2a38.892,38.892,0,1,0,24.456,16.968A38.779,38.779,0,0,0,235.075,518.2" transform="translate(-101.67 -279.879)" fill="#fff" fill-rule="evenodd"/>
    <path id="Trazado_117919" data-name="Trazado 117919" d="M215.911,592.816a43.39,43.39,0,0,0,23.2,2.046c.316-.058.629-.121.942-.185l.019,1.429-.7.136a44.789,44.789,0,0,1-23.688-2.013Zm1.714-82.243a43.419,43.419,0,0,0-20.79,14.62l-1.024-.966a44.818,44.818,0,0,1,21.4-15Zm47.8,14.393a43.728,43.728,0,0,0-9.486-8.873q-1.167-.8-2.386-1.531l.726-1.2q1.254.75,2.458,1.577a45.171,45.171,0,0,1,9.7,9.048Z" transform="translate(-105.94 -275.509)" fill="#fff"/>
    <path id="Trazado_117920" data-name="Trazado 117920" d="M3.435,386.834l3.833-.18a3.574,3.574,0,0,0,3.324-2.769,36.982,36.982,0,0,1,3.105-8.618,3.576,3.576,0,0,0-.8-4.256l-2.835-2.588a3.6,3.6,0,0,1-.249-5.091l4.949-5.437a3.609,3.609,0,0,1,5.095-.239l2.84,2.583a3.575,3.575,0,0,0,4.312.393,36.944,36.944,0,0,1,8.287-3.9,3.563,3.563,0,0,0,2.438-3.573l-.178-3.832a3.606,3.606,0,0,1,3.43-3.771l7.344-.346a3.6,3.6,0,0,1,3.771,3.429l.181,3.833a3.577,3.577,0,0,0,2.767,3.328,37,37,0,0,1,8.615,3.1,3.573,3.573,0,0,0,4.261-.8l2.583-2.84a3.6,3.6,0,0,1,5.09-.237l5.441,4.944a3.606,3.606,0,0,1,.238,5.093L78.7,367.9a3.57,3.57,0,0,0-.388,4.313,37.375,37.375,0,0,1,3.9,8.287,3.569,3.569,0,0,0,3.568,2.444l3.833-.183a3.6,3.6,0,0,1,3.771,3.43l.347,7.343a3.608,3.608,0,0,1-3.431,3.772l-3.831.181a3.578,3.578,0,0,0-3.328,2.77,36.839,36.839,0,0,1-3.1,8.611,3.578,3.578,0,0,0,.791,4.262l2.843,2.582a3.6,3.6,0,0,1,.239,5.092l-4.942,5.436a3.612,3.612,0,0,1-5.1.24L71.038,423.9a3.575,3.575,0,0,0-4.317-.388,36.909,36.909,0,0,1-8.283,3.9,3.573,3.573,0,0,0-2.446,3.574l.181,3.832a3.6,3.6,0,0,1-3.43,3.772l-7.344.349a3.615,3.615,0,0,1-3.772-3.434l-.177-3.832a3.581,3.581,0,0,0-2.774-3.328,37.047,37.047,0,0,1-8.609-3.1,3.576,3.576,0,0,0-4.258.795l-2.581,2.839a3.61,3.61,0,0,1-5.1.244l-5.436-4.95a3.6,3.6,0,0,1-.24-5.092l2.584-2.841a3.579,3.579,0,0,0,.392-4.313,36.464,36.464,0,0,1-3.9-8.284A3.567,3.567,0,0,0,7.958,401.2l-3.837.178a3.6,3.6,0,0,1-3.77-3.429L0,390.6a3.6,3.6,0,0,1,3.43-3.767m23.939,9.538a19.961,19.961,0,1,0,21.94-24.111,19.937,19.937,0,0,0-21.94,24.111" transform="translate(0 -186.765)" fill="#6ecbff" fill-rule="evenodd"/>
    <path id="Trazado_117921" data-name="Trazado 117921" d="M92.511,401.432a25.446,25.446,0,1,1-16-11.1,25.367,25.367,0,0,1,16,11.1M76.859,388.714A27.1,27.1,0,1,0,93.9,400.537a27.022,27.022,0,0,0-17.04-11.823" transform="translate(-23.808 -209.97)" fill="#fff" fill-rule="evenodd"/>
    <path id="Trazado_117922" data-name="Trazado 117922" d="M63.508,440.7a30.226,30.226,0,0,0,16.165,1.425c.219-.04.438-.084.655-.129l.014,1-.49.094a31.2,31.2,0,0,1-16.5-1.4ZM64.7,383.4a30.254,30.254,0,0,0-14.485,10.187l-.714-.674a31.232,31.232,0,0,1,14.91-10.448ZM98,393.428a30.444,30.444,0,0,0-6.609-6.182q-.813-.56-1.663-1.067l.506-.836q.874.522,1.712,1.1a31.439,31.439,0,0,1,6.76,6.3Z" transform="translate(-26.783 -206.924)" fill="#fff"/>
    <path id="Trazado_117923" data-name="Trazado 117923" d="M202.509,905.166H721.242a2.274,2.274,0,1,1,0,4.548H202.509a2.274,2.274,0,1,1,0-4.548" transform="translate(-108.333 -489.722)" fill="#092978" fill-rule="evenodd"/>
    <path id="Trazado_117924" data-name="Trazado 117924" d="M413.243,274.016H736.274a21.115,21.115,0,0,1,21.053,21.053V483.354H392.189V295.069a21.115,21.115,0,0,1,21.054-21.053" transform="translate(-212.186 -148.251)" fill="#003398" fill-rule="evenodd"/>
    <path id="Trazado_117925" data-name="Trazado 117925" d="M425.2,307.825h334.44a.369.369,0,0,1,.369.368V520.65a.369.369,0,0,1-.369.368H425.2a.369.369,0,0,1-.368-.368V308.193a.368.368,0,0,1,.368-.368" transform="translate(-229.846 -166.542)" fill="#e8f5fc" fill-rule="evenodd"/>
    <path id="Trazado_117926" data-name="Trazado 117926" d="M689.234,796.121c-1.483,26.811-5.406,33.592-32.594,48.87H777.164c-27.189-15.278-31.112-22.059-32.595-48.87L716.9,793.942Z" transform="translate(-355.262 -429.546)" fill="#98c0e6" fill-rule="evenodd"/>
    <path id="Trazado_117927" data-name="Trazado 117927" d="M757.327,730.12v13.836a21.116,21.116,0,0,1-21.053,21.054H413.243a21.116,21.116,0,0,1-21.054-21.054V730.12Z" transform="translate(-212.186 -395.017)" fill="#fff" fill-rule="evenodd"/>
    <rect id="Rectángulo_36482" data-name="Rectángulo 36482" width="365.138" height="22.119" transform="translate(180.004 321.462)" fill="#003398"/>
    <path id="Trazado_117928" data-name="Trazado 117928" d="M751.608,761.11a3.749,3.749,0,1,1-3.749,3.75,3.75,3.75,0,0,1,3.749-3.75" transform="translate(-404.614 -411.783)" fill="#e50013" fill-rule="evenodd"/>
    <path id="Trazado_117929" data-name="Trazado 117929" d="M781.852,761.11a3.749,3.749,0,1,1-3.749,3.75,3.75,3.75,0,0,1,3.749-3.75" transform="translate(-420.977 -411.783)" fill="#3dabf9" fill-rule="evenodd"/>
    <path id="Trazado_117930" data-name="Trazado 117930" d="M812.095,761.11a3.749,3.749,0,1,1-3.75,3.75,3.749,3.749,0,0,1,3.75-3.75" transform="translate(-437.339 -411.783)" fill="#3dabf9" fill-rule="evenodd"/>
    <rect id="Rectángulo_36483" data-name="Rectángulo 36483" width="96.07" height="148.49" transform="translate(205.378 163.015)" fill="#1a47b6"/>
    <path id="Trazado_117931" data-name="Trazado 117931" d="M459.942,616.421h61.051a2.485,2.485,0,1,1,0,4.97H459.942a2.485,2.485,0,0,1,0-4.97" transform="translate(-247.498 -333.502)" fill="#0094ff" fill-rule="evenodd"/>
    <path id="Trazado_117932" data-name="Trazado 117932" d="M459.943,371.5h22.714a2.485,2.485,0,1,1,0,4.97H459.943a2.485,2.485,0,0,1,0-4.97" transform="translate(-247.498 -200.995)" fill="#0094ff" fill-rule="evenodd"/>
    <path id="Trazado_117933" data-name="Trazado 117933" d="M459.943,402.094h75.876a2.485,2.485,0,0,1,0,4.97H459.943a2.485,2.485,0,0,1,0-4.97" transform="translate(-247.498 -217.545)" fill="#0094ff" fill-rule="evenodd"/>
    <path id="Trazado_117934" data-name="Trazado 117934" d="M459.943,431.307h75.876a2.485,2.485,0,1,1,0,4.969H459.943a2.485,2.485,0,1,1,0-4.969" transform="translate(-247.498 -233.35)" fill="#0094ff" fill-rule="evenodd"/>
    <path id="Trazado_117935" data-name="Trazado 117935" d="M459.943,460.52h20.664a2.485,2.485,0,1,1,0,4.97H459.943a2.485,2.485,0,1,1,0-4.97" transform="translate(-247.498 -249.155)" fill="#0094ff" fill-rule="evenodd"/>
    <path id="Trazado_117936" data-name="Trazado 117936" d="M523.87,460.52h20.665a2.485,2.485,0,0,1,0,4.97H523.87a2.485,2.485,0,0,1,0-4.97" transform="translate(-282.085 -249.155)" fill="#0094ff" fill-rule="evenodd"/>
    <path id="Trazado_117937" data-name="Trazado 117937" d="M459.943,495.849h27.8a2.485,2.485,0,0,1,0,4.97h-27.8a2.485,2.485,0,0,1,0-4.97" transform="translate(-247.498 -268.269)" fill="#0094ff" fill-rule="evenodd"/>
    <path id="Trazado_117938" data-name="Trazado 117938" d="M541.664,495.849h27.8a2.485,2.485,0,0,1,0,4.97h-27.8a2.485,2.485,0,0,1,0-4.97" transform="translate(-291.712 -268.269)" fill="#0094ff" fill-rule="evenodd"/>
    <path id="Trazado_117939" data-name="Trazado 117939" d="M459.943,522.315h33.61a2.485,2.485,0,1,1,0,4.97h-33.61a2.485,2.485,0,0,1,0-4.97" transform="translate(-247.498 -282.588)" fill="#0094ff" fill-rule="evenodd"/>
    <path id="Trazado_117940" data-name="Trazado 117940" d="M556.155,522.315h33.61a2.485,2.485,0,1,1,0,4.97h-33.61a2.485,2.485,0,0,1,0-4.97" transform="translate(-299.552 -282.588)" fill="#0094ff" fill-rule="evenodd"/>
    <path id="Trazado_117941" data-name="Trazado 117941" d="M459.943,552.259h22.714a2.485,2.485,0,1,1,0,4.97H459.943a2.485,2.485,0,0,1,0-4.97" transform="translate(-247.498 -298.788)" fill="#0094ff" fill-rule="evenodd"/>
    <path id="Trazado_117942" data-name="Trazado 117942" d="M459.943,586.862h33.61a2.485,2.485,0,1,1,0,4.97h-33.61a2.485,2.485,0,1,1,0-4.97" transform="translate(-247.498 -317.51)" fill="#0094ff" fill-rule="evenodd"/>
    <path id="Trazado_117943" data-name="Trazado 117943" d="M556.155,586.862h33.61a2.485,2.485,0,1,1,0,4.97h-33.61a2.485,2.485,0,1,1,0-4.97" transform="translate(-299.552 -317.51)" fill="#0094ff" fill-rule="evenodd"/>
    <path id="Trazado_117944" data-name="Trazado 117944" d="M774.856,329.153H506.537a2.462,2.462,0,0,0-1.725.7,2.338,2.338,0,0,0,0,3.373,2.46,2.46,0,0,0,1.725.7H774.856a2.462,2.462,0,0,0,1.725-.7,2.34,2.34,0,0,0,0-3.373,2.464,2.464,0,0,0-1.725-.7m-268.319-.895H774.856a3.391,3.391,0,0,1,2.371.964,3.224,3.224,0,0,1,0,4.64,3.389,3.389,0,0,1-2.371.964H506.537a3.39,3.39,0,0,1-2.372-.964,3.225,3.225,0,0,1,0-4.64,3.391,3.391,0,0,1,2.372-.964" transform="translate(-272.235 -177.597)" fill="#0094ff"/>
    <rect id="Rectángulo_36484" data-name="Rectángulo 36484" width="7.424" height="7.03" transform="translate(216.805 150.431)" fill="#0094ff"/>
    <rect id="Rectángulo_36485" data-name="Rectángulo 36485" width="7.217" height="7.03" transform="translate(205.378 150.431)" fill="#0094ff"/>
    <rect id="Rectángulo_36486" data-name="Rectángulo 36486" width="57.268" height="7.625" transform="translate(332.775 369.993)" fill="#5997d1"/>
    <path id="Trazado_117945" data-name="Trazado 117945" d="M609.337,142.239c-11.876,0-21.5,9.419-21.5,19.33s7.066,16.807,16.557,18.816H630.84V161.569c0-10.676-9.627-19.33-21.5-19.33" transform="translate(-318.036 -76.956)" fill="#000446" fill-rule="evenodd"/>
    <path id="Trazado_117946" data-name="Trazado 117946" d="M634.206,142.24h0ZM655.929,190.5h-.075V398.417H861.778V161.569c0-10.677-9.627-19.33-21.5-19.33H634.426c11.876,0,21.5,8.654,21.5,19.33Z" transform="translate(-343.124 -76.956)" fill="#1142be" fill-rule="evenodd"/>
    <path id="Trazado_117947" data-name="Trazado 117947" d="M215.019,262.186c6.175,7.72,12.58,18.153,14.906,25.688a2.4,2.4,0,0,0,1.3,1.439l20.163-.539a2.827,2.827,0,0,0,1.75-1.849c1.83-7.286,15.942-30.008,15.759-29.941a32.1,32.1,0,0,0,4.069-16.554,32.817,32.817,0,0,0-65.608,1.753,32.079,32.079,0,0,0,4.9,16.246c.975,1.269,1.677,2.495,2.751,3.758" transform="translate(-112.184 -112.978)" fill="#fca700" fill-rule="evenodd"/>
    <path id="Trazado_117948" data-name="Trazado 117948" d="M258.055,309.173c-.589-4.926-4.062-4.935-4.414-1.392a5.561,5.561,0,0,0,.322,2.333c.289.839,1.916,1.416,4.164,1.75Zm12.854-.343c.325-4.952,3.792-5.144,4.334-1.627a5.576,5.576,0,0,1-.2,2.349c-.244.852-1.838,1.516-4.064,1.97Zm-5.871,5.974-.4.008-.4.012v-.007a36.487,36.487,0,0,1-3.794-.169l.022.806.648,24.252-2.239.061-.648-24.253-.031-1.174c-3.209-.582-5.681-1.692-6.258-3.371a8.228,8.228,0,0,1-.455-3.466,6.172,6.172,0,0,1,1.011-2.87,5.224,5.224,0,0,1,1.983-1.752c3.461-.928,5.945,2.705,5.819,6.192l.081,3.034c1.325.1,2.755.128,4.194.1,1.438-.05,2.865-.159,4.183-.326l-.081-3.033c-.312-3.474,1.974-7.234,5.48-6.494A5.233,5.233,0,0,1,276.224,304a6.175,6.175,0,0,1,1.162,2.812,8.232,8.232,0,0,1-.269,3.484c-.487,1.708-2.9,2.95-6.069,3.7l.032,1.174.648,24.253-2.239.06-.648-24.252-.021-.807a36.362,36.362,0,0,1-3.78.372Z" transform="translate(-136.04 -163.532)" fill="#fff" fill-rule="evenodd"/>
    <path id="Trazado_117949" data-name="Trazado 117949" d="M259.025,383.489l15.766-.421a4.046,4.046,0,0,1,4.142,3.926h0a4.078,4.078,0,0,1-3.926,4.142l-.586.016a.472.472,0,0,0,.024.915c1.371-.037,2.111,1.067,2.119,2.437h0a2.519,2.519,0,0,1-2.425,2.558l-1.364.037a.472.472,0,0,0,.023.916,2.772,2.772,0,0,1,1.556,2.317h0a2.392,2.392,0,0,1-2.321,2.449l-9.2.245a2.393,2.393,0,0,1-2.449-2.321h0a2.394,2.394,0,0,1,2-2.418.48.48,0,0,0-.04-.909l-1.912.051a2.5,2.5,0,0,1-2.558-2.425h0a2.5,2.5,0,0,1,2.426-2.557.48.48,0,0,0-.025-.916l-1.032.027a4.047,4.047,0,0,1-4.143-3.926h0a4.047,4.047,0,0,1,3.927-4.142" transform="translate(-138.014 -207.25)" fill="#3882c8" fill-rule="evenodd"/>
    <path id="Trazado_117950" data-name="Trazado 117950" d="M292.9,224.765a3.2,3.2,0,0,0-2.5,5.9,24.691,24.691,0,0,1,10.183,8.593,26.568,26.568,0,0,1,4.884,12.855,3.207,3.207,0,0,0,6.4-.5,33.093,33.093,0,0,0-6.038-16.049,31.142,31.142,0,0,0-12.921-10.8" transform="translate(-156.058 -121.467)" fill="#ffcf74"/>
    <path id="Trazado_117951" data-name="Trazado 117951" d="M241.67,170.142h0a1.846,1.846,0,0,1,.673,2.514l-4.02,6.963a1.845,1.845,0,0,1-2.514.673h0a1.845,1.845,0,0,1-.673-2.513l4.02-6.964a1.847,1.847,0,0,1,2.514-.673m-54.775,0h0a1.846,1.846,0,0,1,2.513.673l4.02,6.964a1.84,1.84,0,0,1-3.188,1.84l-4.02-6.963a1.846,1.846,0,0,1,.674-2.514M166.845,190.19h0a1.846,1.846,0,0,1,2.514-.673l6.963,4.019a1.841,1.841,0,0,1-1.84,3.188l-6.963-4.02a1.846,1.846,0,0,1-.673-2.514m94.873,0h0a1.845,1.845,0,0,1-.673,2.513l-6.963,4.02a1.845,1.845,0,0,1-2.513-.674h0a1.848,1.848,0,0,1,.674-2.515l6.963-4.019a1.846,1.846,0,0,1,2.513.673m7.339,27.388h0a1.847,1.847,0,0,1-1.841,1.84h-8.04a1.841,1.841,0,0,1,0-3.681h8.04a1.847,1.847,0,0,1,1.841,1.841m-97.83,0h0a1.846,1.846,0,0,1-1.84,1.84h-8.04a1.841,1.841,0,0,1,0-3.681h8.04a1.846,1.846,0,0,1,1.84,1.841M214.282,162.8h0a1.845,1.845,0,0,1,1.84,1.84v8.04a1.84,1.84,0,0,1-3.68,0v-8.04a1.845,1.845,0,0,1,1.84-1.84" transform="translate(-86.298 -88.082)" fill="#fca700" fill-rule="evenodd"/>
    <path id="Trazado_117952" data-name="Trazado 117952" d="M1111.107,405.831h47.676a19.556,19.556,0,0,1,19.556,19.554v13.023a19.554,19.554,0,0,1-19.556,19.553h-37.251l-10.425,9.592v-9.592a19.553,19.553,0,0,1-19.555-19.553V425.385a19.555,19.555,0,0,1,19.555-19.554" transform="translate(-590.562 -219.567)" fill="#fca700" fill-rule="evenodd"/>
    <path id="Trazado_117953" data-name="Trazado 117953" d="M416.649,886.241H397.236a1.8,1.8,0,0,1-1.781-1.557,1.755,1.755,0,0,1-.011-.378l.788-10.2a11.4,11.4,0,0,1,1.939-.64,1.966,1.966,0,0,0,1.439-1.307c.015-.048.027-.1.04-.147.446-1.963,3.275-2.587,3.8-.669.069.247.127.489.178.721.012.056.025.115.035.17.084.413.145.793.187,1.124l0,.022a10.945,10.945,0,0,1,.1,1.387c.257.326.5.647.745.962.124.158.241.314.359.468.255.331.5.655.747.965.113.146.225.287.338.426.269.338.535.657.8.954.12.135.239.267.362.395a5.578,5.578,0,0,0,3.2,1.937c2.1.289,5.543.521,7.2,3.61a1.1,1.1,0,0,1,.084.2,1.2,1.2,0,0,1-1.142,1.557" transform="translate(-213.944 -470.797)" fill="#630"/>
    <path id="Trazado_117954" data-name="Trazado 117954" d="M416.669,903.329H397.256a1.8,1.8,0,0,1-1.781-1.558h22.336a1.2,1.2,0,0,1-1.142,1.558" transform="translate(-213.964 -487.885)" fill="#000446"/>
    <path id="Trazado_117955" data-name="Trazado 117955" d="M409.75,629.129c2.733,6.066,6.127,11.731,13.949,12.91,6.345.956,29.044-9.931,29.892-15.641s-3.036-6.631-3.036-6.631-22.376,10.3-24.071,9.737c-1.278-.424-7.492-6.3-11.309-9.786-.811-.741-6.6,6.8-5.426,9.411" transform="translate(-221.602 -335.258)" fill="#000446" fill-rule="evenodd"/>
    <path id="Trazado_117956" data-name="Trazado 117956" d="M372.4,613.467H357.564c-3.589,0-8.76,1.8-10.933,4.344-3.113,3.646-1.9,44.433-.949,50.116l1.088.772c0,22.718-3.28,46.77-2.135,68.5l8.972.111,11.435-56.431,5.46-11.957,9.33-.749,2.529-.338L379.9,616.364a11.62,11.62,0,0,0-7.5-2.9" transform="translate(-186.326 -331.904)" fill="#000446" fill-rule="evenodd"/>
    <path id="Trazado_117957" data-name="Trazado 117957" d="M345.07,629.648c1.469-3.057.339-9.042-2.773-10.386a5.322,5.322,0,0,0-4.131-.311c-9.664,4.194-14.726,41.742-13.121,44.361,1.395,2.276,1.273,7.933,6.725,6.031,3.335-1.163,7.164-26.932,13.3-39.7" transform="translate(-175.701 -334.706)" fill="#000446" fill-rule="evenodd"/>
    <path id="Trazado_117958" data-name="Trazado 117958" d="M388.978,613.371c.981,7.368-2.55,20.569-3.4,28.623-.258-.633-7.163-22.943-7.835-28.623h6.7a37.293,37.293,0,0,1,4.532,0" transform="translate(-204.37 -331.808)" fill="#b6e0fc" fill-rule="evenodd"/>
    <path id="Trazado_117959" data-name="Trazado 117959" d="M393.182,586.158c.521,3.459-3.451,6.1-6.146,5.866v1.582l.139.2c.942,2.448-1.71,4.021-2.59,4.862-.8-.616-5.1-1.786-5.2-5.176h.173v-5.946a2.606,2.606,0,0,1-.594-.262,2.077,2.077,0,0,1-.666-2.159c.159-.912,1.426-.3,1.426-.3h0c-1.1-2.705-2.507-5.039.326-6.543s8.548-1.392,8.548-1.392l3.427-.353c-.927,1.473.81,7.325,1.155,9.618" transform="translate(-204.645 -311.925)" fill="#f7cccf" fill-rule="evenodd"/>
    <path id="Trazado_117960" data-name="Trazado 117960" d="M386.357,604.519c1.2,3.227,2.348,4.425,5.064,4.8v-2.2a9.475,9.475,0,0,1-5.064-2.6" transform="translate(-209.031 -327.063)" fill="#ed8082" fill-rule="evenodd"/>
    <path id="Trazado_117961" data-name="Trazado 117961" d="M403.357,732.206l-17.821-.067,3.255,69.491,11.275.367Z" transform="translate(-208.586 -396.109)" fill="#000446" fill-rule="evenodd"/>
    <path id="Trazado_117962" data-name="Trazado 117962" d="M356.175,888.429c-.164,2.9-10.457,1.9-12.1,1.032a1.985,1.985,0,0,1-.951-1.771,12.345,12.345,0,0,1,.791-4.112c.659-2.045.568-2.008,1.026-3.405,0,0-.118-2.274,3.254-3.143s4.609,4.792,5.185,5.881c.528,1,2.577,2.363,2.789,4.818a4.829,4.829,0,0,1,.01.7" transform="translate(-185.634 -474.451)" fill="#630"/>
    <path id="Trazado_117963" data-name="Trazado 117963" d="M356.054,902.346c-.2,1.884-10.325,1.7-11.971.823-.636-.336-.9-1.589-.951-2.374a13.379,13.379,0,0,0,5.833,1.268,15.824,15.824,0,0,0,7.211-1.228c.02.224-.109,1.27-.123,1.511" transform="translate(-185.645 -487.357)" fill="#000446"/>
    <path id="Trazado_117964" data-name="Trazado 117964" d="M389.3,558.37c.725,3.686-.756,6.981-4.382,7.585-2.7.451-7.407-.1-9.513,1.881-1.043.979-1.035,2.238-.278,4.768.222.744.569,1.314-.569.622-.522-.318-1.39-.777-1.728-.561a1.436,1.436,0,0,0-.03,2.13c.226.2.663.5.663.5a3.371,3.371,0,0,1-2.779-.7c-1.329-1.072-5.207-4.316-4.442-8.974,1.113-6.788,3.922-6.576,9.9-8.611,3.452-1.175,3.736-2.091,5.945-3.1,2.838-1.3,6.636,1.548,7.21,4.462" transform="translate(-198.097 -299.506)" fill="#000446" fill-rule="evenodd"/>
    <path id="Trazado_117965" data-name="Trazado 117965" d="M300.681,577.873a5.288,5.288,0,1,1-7.2-2.017,5.288,5.288,0,0,1,7.2,2.017m148.345-66c3.34,3.909-2.609,17.421-11.687,23.252-5.43,3.489-11.482,6.557-16.022,6.972-8.093.741-18.443-1.822-23.082-3.139l-81.957,46.095-10.74,6.041-2.614,1.47c-6.812,3.831-15.017,1.083-19.352-5.419h0c-4.335-6.5-1.392-15.52,5.42-19.352l2.614-1.471,10.74-6.04,81.57-45.877c1.08-4.428,4.135-15.518,9.026-22.256,2.134-2.939,6.274-5.777,10.791-8.235,11.935-6.495,28.26-4.708,30.007.027l-9.583,5.391-8.932,5.022-6.671,3.752-.564,9.45-.564,9.45,8.368,4.426,8.367,4.426,6.67-3.752,8.932-5.023Z" transform="translate(-152.318 -259.523)" fill="#f18e00" fill-rule="evenodd"/>
    <path id="Trazado_117966" data-name="Trazado 117966" d="M324.414,718.946a1.194,1.194,0,0,1,.725-.575c.113,0,1.723.079,1.723.079l-.248-3.692a.931.931,0,0,1,1.139.588,21.1,21.1,0,0,0,1.273,2.43l-.425-3.3a.668.668,0,0,1,.87.248c.309.521,1.186,2.4,1.186,2.4l.081-3.074a6.035,6.035,0,0,1,.876,1.8,7.456,7.456,0,0,0,.392,1.294l.527-2.588s.58,2.513.581,2.6c.029,2.747-1.331,4.342-3.743,4.368-.745.007-5.143-2.193-4.956-2.589" transform="translate(-175.515 -386.325)" fill="#f7cccf" fill-rule="evenodd"/>
    <path id="Trazado_117967" data-name="Trazado 117967" d="M495.491,616a1.414,1.414,0,0,0-.959.527c-.054.123-.7,1.918-.7,1.918l-3.916-1.968a1.1,1.1,0,0,0,.118,1.513A24.791,24.791,0,0,1,492.1,620.5l-3.4-1.978a.791.791,0,0,0-.129,1.064c.426.577,2.076,2.4,2.076,2.4l-3.393-1.324a7.154,7.154,0,0,0,1.568,1.785,8.874,8.874,0,0,1,1.232,1.021l-3.067-.613s2.477,1.788,2.573,1.83c2.986,1.293,5.351.541,6.486-2.08.351-.809-.031-6.62-.549-6.6" transform="translate(-263.472 -333.276)" fill="#f7cccf" fill-rule="evenodd"/>
    <path id="Trazado_117968" data-name="Trazado 117968" d="M1142.545,460.062,1125,452.433V448.21l17.544-7.594v4.975l-12.237,4.679,12.237,4.852Z" transform="translate(-608.659 -238.386)" fill="#fff"/>
    <path id="Trazado_117969" data-name="Trazado 117969" d="M1175.448,459.092l6.337-26.465h3.683l-6.407,26.465Z" transform="translate(-635.952 -234.065)" fill="#fff"/>
    <path id="Trazado_117970" data-name="Trazado 117970" d="M1209.5,460.121v-4.94l12.255-4.819L1209.5,445.6v-4.9l17.561,7.594v4.189Z" transform="translate(-654.374 -238.428)" fill="#fff"/>
    <path id="Trazado_117971" data-name="Trazado 117971" d="M755.081,194.937v-3.8l9.435-3.724-9.435-3.686v-3.773l13.525,5.858v3.232ZM743.036,197.5l4.9-20.384h2.836l-4.93,20.384Zm-4.31-2.59L725.2,189.034v-3.255l13.525-5.853v3.829l-9.434,3.608,9.434,3.747Z" transform="translate(-392.355 -95.825)" fill="#77c6fb" fill-rule="evenodd"/>
    <path id="Trazado_117972" data-name="Trazado 117972" d="M746.512,253.107h30.773a1.823,1.823,0,0,1,0,3.647H746.512a1.823,1.823,0,0,1,0-3.647" transform="translate(-402.899 -136.938)" fill="#f18e00" fill-rule="evenodd"/>
    <path id="Trazado_117973" data-name="Trazado 117973" d="M832.92,253.107h16.928a1.823,1.823,0,0,1,0,3.647H832.92a1.823,1.823,0,0,1,0-3.647" transform="translate(-449.648 -136.938)" fill="#77c6fb" fill-rule="evenodd"/>
    <path id="Trazado_117974" data-name="Trazado 117974" d="M768.668,279.7h34.8a1.823,1.823,0,0,1,0,3.647h-34.8a1.823,1.823,0,0,1,0-3.647" transform="translate(-414.886 -151.324)" fill="#f18e00" fill-rule="evenodd"/>
    <path id="Trazado_117975" data-name="Trazado 117975" d="M865.176,279.7h19.331a1.823,1.823,0,1,1,0,3.647H865.176a1.823,1.823,0,0,1,0-3.647" transform="translate(-467.1 -151.324)" fill="#77c6fb" fill-rule="evenodd"/>
    <path id="Trazado_117976" data-name="Trazado 117976" d="M928.576,279.7H952.6a1.823,1.823,0,0,1,0,3.647H928.576a1.823,1.823,0,0,1,0-3.647" transform="translate(-501.401 -151.324)" fill="#77c6fb" fill-rule="evenodd"/>
    <path id="Trazado_117977" data-name="Trazado 117977" d="M768.668,307.658h46.26a1.823,1.823,0,0,1,0,3.647h-46.26a1.823,1.823,0,1,1,0-3.647" transform="translate(-414.886 -166.452)" fill="#77c6fb" fill-rule="evenodd"/>
    <path id="Trazado_117978" data-name="Trazado 117978" d="M890.016,307.658h22.167a1.823,1.823,0,0,1,0,3.647H890.016a1.823,1.823,0,0,1,0-3.647" transform="translate(-480.539 -166.452)" fill="#f28d9a" fill-rule="evenodd"/>
    <path id="Trazado_117979" data-name="Trazado 117979" d="M957.506,307.658h36.4a1.823,1.823,0,1,1,0,3.647h-36.4a1.823,1.823,0,1,1,0-3.647" transform="translate(-517.053 -166.452)" fill="#77c6fb" fill-rule="evenodd"/>
    <path id="Trazado_117980" data-name="Trazado 117980" d="M768.668,335.012h17.317a1.823,1.823,0,1,1,0,3.646H768.668a1.823,1.823,0,1,1,0-3.646" transform="translate(-414.886 -181.251)" fill="#f28d9a" fill-rule="evenodd"/>
    <path id="Trazado_117981" data-name="Trazado 117981" d="M824.91,335.012H886.5a1.823,1.823,0,0,1,0,3.646H824.91a1.823,1.823,0,1,1,0-3.646" transform="translate(-445.314 -181.251)" fill="#77c6fb" fill-rule="evenodd"/>
    <path id="Trazado_117982" data-name="Trazado 117982" d="M768.668,361.444h46.26a1.823,1.823,0,0,1,0,3.646h-46.26a1.823,1.823,0,1,1,0-3.646" transform="translate(-414.886 -195.552)" fill="#f18e00" fill-rule="evenodd"/>
    <path id="Trazado_117983" data-name="Trazado 117983" d="M890.016,361.444h22.167a1.823,1.823,0,0,1,0,3.646H890.016a1.823,1.823,0,0,1,0-3.646" transform="translate(-480.539 -195.552)" fill="#77c6fb" fill-rule="evenodd"/>
    <path id="Trazado_117984" data-name="Trazado 117984" d="M957.506,361.444h36.4a1.823,1.823,0,1,1,0,3.646h-36.4a1.823,1.823,0,1,1,0-3.646" transform="translate(-517.053 -195.552)" fill="#77c6fb" fill-rule="evenodd"/>
    <path id="Trazado_117985" data-name="Trazado 117985" d="M768.668,389.254h46.26a1.823,1.823,0,0,1,0,3.646h-46.26a1.823,1.823,0,1,1,0-3.646" transform="translate(-414.886 -210.598)" fill="#77c6fb" fill-rule="evenodd"/>
    <path id="Trazado_117986" data-name="Trazado 117986" d="M890.016,389.254h22.167a1.823,1.823,0,1,1,0,3.646H890.016a1.823,1.823,0,0,1,0-3.646" transform="translate(-480.539 -210.598)" fill="#77c6fb" fill-rule="evenodd"/>
    <path id="Trazado_117987" data-name="Trazado 117987" d="M746.512,415.533h37.164a1.823,1.823,0,1,1,0,3.646H746.512a1.823,1.823,0,0,1,0-3.646" transform="translate(-402.899 -224.816)" fill="#77c6fb" fill-rule="evenodd"/>
    <path id="Trazado_117988" data-name="Trazado 117988" d="M848.966,415.533h20.748a1.823,1.823,0,1,1,0,3.646H848.966a1.823,1.823,0,0,1,0-3.646" transform="translate(-458.33 -224.816)" fill="#77c6fb" fill-rule="evenodd"/>
    <path id="Trazado_117989" data-name="Trazado 117989" d="M768.668,448.075h50.906a1.823,1.823,0,1,1,0,3.646H768.668a1.823,1.823,0,1,1,0-3.646" transform="translate(-414.886 -242.422)" fill="#77c6fb" fill-rule="evenodd"/>
    <path id="Trazado_117990" data-name="Trazado 117990" d="M901.313,448.075h24.57a1.823,1.823,0,1,1,0,3.646h-24.57a1.823,1.823,0,1,1,0-3.646" transform="translate(-486.651 -242.422)" fill="#f18e00" fill-rule="evenodd"/>
    <path id="Trazado_117991" data-name="Trazado 117991" d="M768.668,476.192h46.6a1.823,1.823,0,0,1,0,3.646h-46.6a1.823,1.823,0,1,1,0-3.646" transform="translate(-414.886 -257.634)" fill="#77c6fb" fill-rule="evenodd"/>
    <path id="Trazado_117992" data-name="Trazado 117992" d="M890.832,476.192h22.342a1.823,1.823,0,0,1,0,3.646H890.832a1.823,1.823,0,0,1,0-3.646" transform="translate(-480.98 -257.634)" fill="#77c6fb" fill-rule="evenodd"/>
    <path id="Trazado_117993" data-name="Trazado 117993" d="M768.668,503.085h15.991a1.823,1.823,0,0,1,0,3.647H768.668a1.823,1.823,0,0,1,0-3.647" transform="translate(-414.886 -272.184)" fill="#f28d9a" fill-rule="evenodd"/>
    <path id="Trazado_117994" data-name="Trazado 117994" d="M822.344,503.085h62.851a1.823,1.823,0,1,1,0,3.647H822.344a1.823,1.823,0,1,1,0-3.647" transform="translate(-443.926 -272.184)" fill="#77c6fb" fill-rule="evenodd"/>
    <path id="Trazado_117995" data-name="Trazado 117995" d="M768.669,530.591h39.795a1.823,1.823,0,1,1,0,3.646H768.669a1.823,1.823,0,1,1,0-3.646" transform="translate(-414.886 -287.065)" fill="#f18e00" fill-rule="evenodd"/>
    <path id="Trazado_117996" data-name="Trazado 117996" d="M874.3,530.591h18.824a1.823,1.823,0,1,1,0,3.646H874.3a1.823,1.823,0,1,1,0-3.646" transform="translate(-472.034 -287.065)" fill="#77c6fb" fill-rule="evenodd"/>
    <path id="Trazado_117997" data-name="Trazado 117997" d="M935.654,530.591h46.514a1.823,1.823,0,1,1,0,3.646H935.654a1.823,1.823,0,1,1,0-3.646" transform="translate(-505.23 -287.065)" fill="#77c6fb" fill-rule="evenodd"/>
    <path id="Trazado_117998" data-name="Trazado 117998" d="M768.668,556.565h15.991a1.823,1.823,0,0,1,0,3.646H768.668a1.823,1.823,0,0,1,0-3.646" transform="translate(-414.886 -301.118)" fill="#77c6fb" fill-rule="evenodd"/>
    <path id="Trazado_117999" data-name="Trazado 117999" d="M822.344,556.565h62.851a1.823,1.823,0,1,1,0,3.646H822.344a1.823,1.823,0,1,1,0-3.646" transform="translate(-443.926 -301.118)" fill="#77c6fb" fill-rule="evenodd"/>
    <path id="Trazado_118000" data-name="Trazado 118000" d="M746.512,584.945h37.164a1.823,1.823,0,1,1,0,3.646H746.512a1.823,1.823,0,1,1,0-3.646" transform="translate(-402.899 -316.473)" fill="#77c6fb" fill-rule="evenodd"/>
    <path id="Trazado_118001" data-name="Trazado 118001" d="M848.966,584.945h20.748a1.823,1.823,0,1,1,0,3.646H848.966a1.823,1.823,0,0,1,0-3.646" transform="translate(-458.33 -316.473)" fill="#f18e00" fill-rule="evenodd"/>
    <path id="Trazado_118002" data-name="Trazado 118002" d="M755.081,641.238v-3.8l9.435-3.723-9.435-3.687v-3.773l13.525,5.859v3.231ZM743.036,643.8l4.9-20.383h2.836l-4.93,20.383Zm-4.31-2.59L725.2,635.335V632.08l13.525-5.853v3.827l-9.434,3.61,9.434,3.746Z" transform="translate(-392.355 -337.287)" fill="#77c6fb" fill-rule="evenodd"/>
    <path id="Trazado_118003" data-name="Trazado 118003" d="M1063.551,584.79h19.084c2.382,0,8.246,4.509,9.276,10.39h0c1.941,9.46,1.078,30.279-5.624,37.7l-7.6-.1-23.271-5.77V587.732a12.675,12.675,0,0,1,8.129-2.943" transform="translate(-571.015 -316.389)" fill="#f29900" fill-rule="evenodd"/>
    <path id="Trazado_118004" data-name="Trazado 118004" d="M1114.714,584.926c9.423.926,10.3,12.765,10.178,20.158h-10.173Z" transform="translate(-603.094 -316.462)" fill="#f29900" fill-rule="evenodd"/>
    <path id="Trazado_118005" data-name="Trazado 118005" d="M1088.3,628.917l9.253-.073c-3.652,10-10.635,18.494-19.9,18.494h-13.474s2.864-3.671,6.639-3.978,3.923.213,3.923.213c3.157-1.663,10.456-7.286,13.553-14.657" transform="translate(-575.756 -340.223)" fill="#f7cccf" fill-rule="evenodd"/>
    <path id="Trazado_118006" data-name="Trazado 118006" d="M1133.044,794.042l.923,6.638,2.371,2.194s1.848-.088,2.064.556a5.94,5.94,0,0,1,0,2.014h-12.138a55.038,55.038,0,0,1-1.4-11.021Z" transform="translate(-608.585 -429.6)" fill="#630"/>
    <path id="Trazado_118007" data-name="Trazado 118007" d="M1013.748,669.138h40.323a7.227,7.227,0,0,1,1.339.125h0c11.255-.058,12.654,7.23,13.445,15.172l4.541,45.631h-15.282l-5.041-46.445h-39.328a7.242,7.242,0,0,1,0-14.484" transform="translate(-544.55 -362.023)" fill="#092978" fill-rule="evenodd"/>
    <path id="Trazado_118008" data-name="Trazado 118008" d="M1046.28,758.279l5.536,12.4a9.991,9.991,0,0,1-1.293,3.523c-.928,1.277-1.016,2.213-.436,2.982s.736.961.736.961l9.407-9.815L1055.3,756.8Z" transform="translate(-566.069 -409.45)" fill="#630"/>
    <path id="Trazado_118009" data-name="Trazado 118009" d="M1017.75,672.482a9.935,9.935,0,0,1,4,3.58c3.314,5.033,18.377,38.978,18.377,38.978l-17.316,0L1010.2,687.382c-.524-1.151-3.125-5.948-3.365-8.131-.773-7.027,5.063-9.453,10.915-6.769" transform="translate(-544.69 -363.256)" fill="#092978" fill-rule="evenodd"/>
    <path id="Trazado_118010" data-name="Trazado 118010" d="M1068.052,556.864c-2,3.561,1.431,8.526,5.647,8.166l-.007,1.13-2.3,3.277,2.266,3.369,2.357.857,5.7-1.465V561.939c.207-.065.215.308.639.05a4.745,4.745,0,0,0,1.191-3.148c-.171-.982-1.431-1.546-1.431-1.546,1.184-2.914,2.121-3.376-.93-4.995s-9.207-1.5-9.207-1.5l-2.794.937c-.121,2.71.256,2.658-1.128,5.126" transform="translate(-577.532 -297.998)" fill="#f7cccf" fill-rule="evenodd"/>
    <path id="Trazado_118011" data-name="Trazado 118011" d="M1078.941,580.58a5.086,5.086,0,0,0,.618-.015,14.467,14.467,0,0,0,5.108-1.051,5.384,5.384,0,0,1-2.793,2.989,9.244,9.244,0,0,1-3.573.975l1.251-1.783.006-1.13Z" transform="translate(-583.393 -313.534)" fill="#dd7577" fill-rule="evenodd"/>
    <path id="Trazado_118012" data-name="Trazado 118012" d="M1068,541.474c2.355.392,4.257.054,5.7.229a4.122,4.122,0,0,1,2.075.988c1.349,1.091,2.4,3.786,2.7,5.573,0,0,1.579-.661,2.094-.333s.191,1.115.114,1.441-.806.677-1.04.881c-.7.6.953.863,2.9-.708,5.935-4.789,2.873-13.5-4.462-16-3.564-1.213-3.145-2.649-5.6-3.167-8.909-1.737-11.453,8.893-4.479,11.1" transform="translate(-575.656 -286.847)" fill="#363653" fill-rule="evenodd"/>
    <path id="Trazado_118013" data-name="Trazado 118013" d="M1044.026,590.845c-5.185,4.623-8.2,11.008-10.04,17.706,3.4-.221,6.949-.207,10.315-.315Z" transform="translate(-559.417 -319.665)" fill="#f29900" fill-rule="evenodd"/>
    <path id="Trazado_118014" data-name="Trazado 118014" d="M1079.759,597.5a.624.624,0,1,1-.625.624.623.623,0,0,1,.625-.624m0-3.621a.624.624,0,1,1-.625.623.623.623,0,0,1,.625-.623m-2.409-9.624c-2.163,3.7.2,6.32,2.324,7.506,3-1.947,5.7-3.844,5.7-7.506,0,0,1.034-.019,1.706,1.623,1.108,2.66-.749,8.632-.749,8.632s-2.083-2.7-3.815-2.841a6.1,6.1,0,0,0-2.856.378c-2.216-1.625-3.725.481-5.208,2.025-.467-3.939-.407-6.77,2.539-9.818Z" transform="translate(-581.19 -316.102)" fill="#fff" fill-rule="evenodd"/>
    <path id="Trazado_118015" data-name="Trazado 118015" d="M1039.352,618.586h-29.18c-1.125,0-2.294.948-2.046,2.047l4.361,19.286c.248,1.1.921,2.046,2.046,2.046h29.181c1.125,0,2.294-.949,2.045-2.046l-4.359-19.286c-.249-1.1-.922-2.047-2.047-2.047" transform="translate(-545.408 -334.673)" fill="#4895d1" fill-rule="evenodd"/>
    <path id="Trazado_118016" data-name="Trazado 118016" d="M1036.5,618.586h-29.18c-1.126,0-2.294.948-2.047,2.047l4.361,19.286c.248,1.1.921,2.046,2.046,2.046h29.18c1.125,0,2.294-.949,2.046-2.046l-4.36-19.286c-.248-1.1-.921-2.047-2.047-2.047" transform="translate(-543.866 -334.673)" fill="#a3c5e8" fill-rule="evenodd"/>
    <path id="Trazado_118017" data-name="Trazado 118017" d="M1043.679,639.8a2.046,2.046,0,1,0,2.212,1.4,1.866,1.866,0,0,0-2.212-1.4" transform="translate(-564.069 -346.114)" fill="#fff" fill-rule="evenodd"/>
    <path id="Trazado_118018" data-name="Trazado 118018" d="M1102.859,665.359h-14.817v1.911h15.773v-.956a.959.959,0,0,0-.956-.955" transform="translate(-588.663 -359.979)" fill="#4895d1" fill-rule="evenodd"/>
    <path id="Trazado_118019" data-name="Trazado 118019" d="M230.9,80.06a4.993,4.993,0,0,1,7.049,0l.006,0a4.992,4.992,0,0,1-.006,7.05v.006a4.989,4.989,0,0,1-7.055-7.056Zm3.524-4.239a7.742,7.742,0,0,0-5.49,2.275l0,0a7.76,7.76,0,1,0,10.975,10.974l0,0a7.755,7.755,0,0,0,0-10.974l0,0,0,0a7.746,7.746,0,0,0-5.485-2.275" transform="translate(-122.629 -41.021)" fill="#f18e00"/>
    <path id="Trazado_118020" data-name="Trazado 118020" d="M413.167,81.1h0a1.253,1.253,0,0,0-1.249,1.25V93.278a1.253,1.253,0,0,0,1.249,1.25h0a1.253,1.253,0,0,0,1.249-1.25V82.355a1.253,1.253,0,0,0-1.249-1.25" transform="translate(-222.859 -43.88)" fill="#219ef8" fill-rule="evenodd"/>
    <path id="Trazado_118021" data-name="Trazado 118021" d="M400.016,94.255h0a1.253,1.253,0,0,0,1.249,1.25h10.924a1.25,1.25,0,0,0,0-2.5H401.265a1.253,1.253,0,0,0-1.249,1.25" transform="translate(-216.421 -50.318)" fill="#219ef8" fill-rule="evenodd"/>
    <path id="Trazado_118022" data-name="Trazado 118022" d="M654.212,83.024a3.529,3.529,0,0,1,4.984,0l0,0a3.529,3.529,0,0,1,0,4.984v0a3.527,3.527,0,0,1-4.988-4.987Zm2.492-3a5.474,5.474,0,0,0-3.882,1.608l0,0a5.487,5.487,0,1,0,7.759,7.759l0,0a5.484,5.484,0,0,0,0-7.759l0,0,0,0a5.473,5.473,0,0,0-3.878-1.608" transform="translate(-352.326 -43.296)" fill="#f18e00"/>
    <path id="Trazado_118023" data-name="Trazado 118023" d="M978.156,22.385h0a1.648,1.648,0,0,0-1.643,1.643v5.538h-5.537a1.642,1.642,0,1,0,0,3.284h5.537v5.538a1.648,1.648,0,0,0,1.643,1.642h0a1.647,1.647,0,0,0,1.642-1.642V32.85h5.537a1.642,1.642,0,1,0,0-3.284H979.8V24.028a1.648,1.648,0,0,0-1.642-1.643" transform="translate(-524.438 -12.111)" fill="#219ef8" fill-rule="evenodd"/>
    <path id="Trazado_118024" data-name="Trazado 118024" d="M770.229,12.666h0a1.438,1.438,0,0,0-1.434,1.434V26.633a1.434,1.434,0,1,0,2.867,0V14.1a1.438,1.438,0,0,0-1.433-1.434" transform="translate(-415.941 -6.853)" fill="#219ef8" fill-rule="evenodd"/>
    <path id="Trazado_118025" data-name="Trazado 118025" d="M755.141,27.754h0a1.436,1.436,0,0,0,1.434,1.433h12.533a1.436,1.436,0,0,0,1.433-1.433h0a1.437,1.437,0,0,0-1.433-1.432H756.575a1.437,1.437,0,0,0-1.434,1.432" transform="translate(-408.554 -14.241)" fill="#219ef8" fill-rule="evenodd"/>
    <path id="Trazado_118026" data-name="Trazado 118026" d="M542.086,4.239a4.992,4.992,0,0,1,7.05-.005l.006.005a4.993,4.993,0,0,1-.006,7.05v0a4.989,4.989,0,0,1-7.055-7.055ZM545.611,0a7.739,7.739,0,0,0-5.49,2.274l0,0A7.76,7.76,0,1,0,551.1,13.251l0,0a7.756,7.756,0,0,0,0-10.974l0,0,0,0A7.74,7.74,0,0,0,545.611,0" transform="translate(-290.991)" fill="#f18e00"/>
    <path id="Trazado_118027" data-name="Trazado 118027" d="M1153.244,74.11a3.529,3.529,0,0,1,4.984,0l0,0a3.529,3.529,0,0,1,0,4.983v0a3.527,3.527,0,0,1-4.988-4.988Zm2.493-3a5.47,5.47,0,0,0-3.882,1.607l0,0a5.487,5.487,0,1,0,7.759,7.759l0,0a5.486,5.486,0,0,0,0-7.76l0,0,0,0a5.471,5.471,0,0,0-3.877-1.607" transform="translate(-622.317 -38.474)" fill="#f18e00"/>
  </g>
</svg>
