<svg xmlns="http://www.w3.org/2000/svg" xmlns:xlink="http://www.w3.org/1999/xlink" width="610" height="361" viewBox="0 0 610 361">
  <defs>
    <clipPath id="clip-path">
      <path id="Trazado_117235" data-name="Trazado 117235" d="M0,0H335.656V246.647H0Z" fill="none"/>
    </clipPath>
    <clipPath id="clip-path-2">
      <rect id="Rectángulo_36303" data-name="Rectángulo 36303" width="335.656" height="246.647" fill="none"/>
    </clipPath>
    <clipPath id="clip-path-3">
      <rect id="Rectángulo_36278" data-name="Rectángulo 36278" width="88.644" height="132.256" fill="none"/>
    </clipPath>
    <clipPath id="clip-path-4">
      <rect id="Rectángulo_36279" data-name="Rectángulo 36279" width="26.831" height="13.884" fill="none"/>
    </clipPath>
    <clipPath id="clip-path-5">
      <rect id="Rectángulo_36281" data-name="Rectángulo 36281" width="12.112" height="12.112" fill="none"/>
    </clipPath>
    <clipPath id="clip-path-13">
      <rect id="Rectángulo_36292" data-name="Rectángulo 36292" width="12.112" height="12.111" fill="none"/>
    </clipPath>
    <clipPath id="clip-path-14">
      <rect id="Rectángulo_36293" data-name="Rectángulo 36293" width="12.111" height="12.112" fill="none"/>
    </clipPath>
  </defs>
  <g id="Grupo_141326" data-name="Grupo 141326" transform="translate(-810 -1348)">
    <path id="Trazado_144139" data-name="Trazado 144139" d="M0,0H610V361H0Z" transform="translate(810 1348)" fill="#e7f8fa"/>
    <g id="Grupo_87817" data-name="Grupo 87817" transform="translate(928.672 1367.75)">
      <g id="Enmascarar_grupo_7" data-name="Enmascarar grupo 7" clip-path="url(#clip-path)">
        <g id="Grupo_87815" data-name="Grupo 87815">
          <g id="Grupo_87814" data-name="Grupo 87814" clip-path="url(#clip-path-2)">
            <path id="Trazado_117036" data-name="Trazado 117036" d="M103.55,308.707V171.83a6.727,6.727,0,0,1,6.727-6.727H312.563a6.727,6.727,0,0,1,6.727,6.727V308.707a6.727,6.727,0,0,1-6.727,6.727H110.277a6.727,6.727,0,0,1-6.727-6.727" transform="translate(-43.237 -68.938)" fill="#263238"/>
            <rect id="Rectángulo_36276" data-name="Rectángulo 36276" width="180.17" height="140.854" transform="translate(75.072 100.906)" fill="#fff"/>
            <path id="Trazado_117037" data-name="Trazado 117037" d="M445.621,288.734a5.766,5.766,0,1,1,4.293,6.933,5.767,5.767,0,0,1-4.293-6.933" transform="translate(-186.004 -118.703)" fill="#455a64"/>
            <path id="Trazado_117038" data-name="Trazado 117038" d="M114.21,299.852V255.994a.71.71,0,0,1,.711-.711h.961a.71.71,0,0,1,.711.711v43.859a.71.71,0,0,1-.711.711h-.961a.71.71,0,0,1-.711-.711" transform="translate(-47.688 -106.593)" fill="#455a64"/>
            <path id="Trazado_117039" data-name="Trazado 117039" d="M292.994,223.784c0,.087-15.645.157-34.947.157s-34.947-.07-34.947-.157,15.639-.151,34.947-.151,34.947.07,34.947.151" transform="translate(-93.155 -93.377)" fill="#263238"/>
            <path id="Trazado_117040" data-name="Trazado 117040" d="M288.86,216.58c0,.087-7.723.157-17.252.157s-17.258-.07-17.258-.157,7.723-.157,17.258-.157,17.252.07,17.252.157" transform="translate(-106.203 -90.367)" fill="#263238"/>
            <rect id="Rectángulo_36277" data-name="Rectángulo 36277" width="180.17" height="8.987" transform="translate(75.072 100.906)" fill="#e0e0e0"/>
            <path id="Trazado_117041" data-name="Trazado 117041" d="M137.125,179.66a1.217,1.217,0,1,1-1.217-1.217,1.218,1.218,0,0,1,1.217,1.217" transform="translate(-56.24 -74.508)" fill="#fff"/>
            <path id="Trazado_117042" data-name="Trazado 117042" d="M144.065,179.66a1.217,1.217,0,1,1-1.217-1.217,1.218,1.218,0,0,1,1.217,1.217" transform="translate(-59.137 -74.508)" fill="#fff"/>
            <path id="Trazado_117043" data-name="Trazado 117043" d="M151.015,179.66a1.217,1.217,0,1,1-1.217-1.217,1.218,1.218,0,0,1,1.217,1.217" transform="translate(-62.039 -74.508)" fill="#fff"/>
            <path id="Trazado_117044" data-name="Trazado 117044" d="M303.993,235.954c0,.087-31.26.157-69.819.157s-69.824-.07-69.824-.157,31.26-.151,69.824-.151,69.819.07,69.819.151" transform="translate(-68.624 -98.459)" fill="#e0e0e0"/>
            <path id="Trazado_117045" data-name="Trazado 117045" d="M303.993,241.9c0,.082-31.26.151-69.819.151s-69.824-.07-69.824-.151,31.26-.157,69.824-.157,69.819.07,69.819.157" transform="translate(-68.624 -100.939)" fill="#e0e0e0"/>
            <path id="Trazado_117046" data-name="Trazado 117046" d="M243,144.127s-1.229-2.79-1.462-3.4c-.623-1.672-4.66-12.872-3.687-14.561,4.467-7.846,7.933-13.4,16.746-13.4l15.569-.1s14.748-3.005,25.144,30.544Z" transform="translate(-99.252 -47.013)" fill="#455a64"/>
            <path id="Trazado_117047" data-name="Trazado 117047" d="M188.463,146.892l20.386-4.392,23.962-12.6.087-17.2c-3.594-.99-10.484,1.5-22.861,7.811l-18.4,9.5a10.892,10.892,0,0,0-3.174,16.891Z" transform="translate(-77.552 -46.971)" fill="#455a64"/>
            <path id="Trazado_117048" data-name="Trazado 117048" d="M221.94,158.3a2.443,2.443,0,0,1,.221.21l.582.652,2.1,2.423c1.747,2.05,4.176,4.9,6.832,8.067s5.05,6.04,6.768,8.154l2.021,2.487.542.687c.116.157.181.245.169.25a1.2,1.2,0,0,1-.215-.21l-.582-.652c-.53-.582-1.235-1.427-2.1-2.423-1.747-2.05-4.182-4.9-6.838-8.067s-5.044-6.04-6.768-8.154l-2.021-2.487c-.215-.274-.4-.5-.536-.687a1.287,1.287,0,0,1-.175-.25" transform="translate(-92.671 -66.099)" fill="#263238"/>
            <path id="Trazado_117049" data-name="Trazado 117049" d="M312.8,155.262a10.553,10.553,0,0,0,.373-2.33,6.88,6.88,0,0,0-2.039-5.032c-.757-.8-1.573-1.485-2.231-2.207a6.717,6.717,0,0,1-1.4-2.178,3.847,3.847,0,0,1-.256-1.747,1.6,1.6,0,0,1,.163-.623,4.38,4.38,0,0,0,.3,2.272,7.03,7.03,0,0,0,1.4,2.068c.652.693,1.468,1.369,2.242,2.184a7.134,7.134,0,0,1,1.683,2.691,6.9,6.9,0,0,1,.355,2.563,6.011,6.011,0,0,1-.332,1.712,2.063,2.063,0,0,1-.262.629" transform="translate(-128.286 -58.934)" fill="#263238"/>
            <path id="Trazado_117050" data-name="Trazado 117050" d="M236.9,117.12s.157-.082.454-.216a12.97,12.97,0,0,1,1.351-.489,11.666,11.666,0,0,1,2.237-.454,7.6,7.6,0,0,1,3.017.28,7.029,7.029,0,0,1,3.081,1.98,8.158,8.158,0,0,1,1.876,3.792,14.39,14.39,0,0,1,.3,4.66,10.123,10.123,0,0,1-1.747,4.66,12.81,12.81,0,0,1-3.733,3.314c-1.369.862-2.743,1.561-4.048,2.248l-6.937,3.646-4.66,2.429-1.281.647a2.514,2.514,0,0,1-.46.2,3.777,3.777,0,0,1,.431-.262l1.252-.7,4.66-2.516,6.9-3.7c1.3-.693,2.679-1.4,4.025-2.26a12.664,12.664,0,0,0,3.646-3.233,9.8,9.8,0,0,0,1.677-4.537,14.313,14.313,0,0,0-.274-4.543,7.934,7.934,0,0,0-1.747-3.664,6.761,6.761,0,0,0-2.959-1.945,7.572,7.572,0,0,0-2.912-.32,12.013,12.013,0,0,0-2.219.4c-.582.169-1.054.32-1.363.431a2.381,2.381,0,0,1-.559.146" transform="translate(-94.512 -48.401)" fill="#263238"/>
            <path id="Trazado_117051" data-name="Trazado 117051" d="M224.373,158.608a15.965,15.965,0,0,0-1.747-4.165,17.675,17.675,0,0,0-3.087-3.291,4,4,0,0,1,1.165.711,10.006,10.006,0,0,1,3.495,5.405,3.939,3.939,0,0,1,.175,1.34" transform="translate(-91.667 -63.114)" fill="#263238"/>
            <path id="Trazado_117052" data-name="Trazado 117052" d="M292.644,149.113a3.745,3.745,0,0,1-.664.181,6.765,6.765,0,0,1-1.969.087,7.318,7.318,0,0,1-2.959-.973,6.807,6.807,0,0,1-2.732-3.07,7.239,7.239,0,0,1-.379-4.957,4.078,4.078,0,0,1,1.648-2.283,2.042,2.042,0,0,1,1.491-.309,2.2,2.2,0,0,1,1.293.862,7.211,7.211,0,0,1,.7,6.215,7.378,7.378,0,0,1-1.747,2.912,6.733,6.733,0,0,1-3.035,1.747,6.943,6.943,0,0,1-6.523-1.561,6.809,6.809,0,0,1-1.951-5.918,5.9,5.9,0,0,1,1.165-2.738,2.966,2.966,0,0,1,1.165-.891,1.873,1.873,0,0,1,1.433,0,2.668,2.668,0,0,1,1.52,2.12,4.477,4.477,0,0,1-.472,2.376,11.381,11.381,0,0,1-2.481,3.308,11.78,11.78,0,0,1-2.545,1.8,10.992,10.992,0,0,1-1.817.763c-.21.07-.379.1-.489.134a.691.691,0,0,1-.175.035.571.571,0,0,1,.163-.064c.111-.041.274-.087.483-.169a12.235,12.235,0,0,0,1.776-.8,12.028,12.028,0,0,0,2.487-1.823,11.3,11.3,0,0,0,2.4-3.268,4.311,4.311,0,0,0,.431-2.26,2.435,2.435,0,0,0-1.38-1.91,1.619,1.619,0,0,0-1.235,0,2.675,2.675,0,0,0-1.048.815,5.563,5.563,0,0,0-1.118,2.615,6.517,6.517,0,0,0,1.875,5.65,6.634,6.634,0,0,0,6.221,1.45,6.363,6.363,0,0,0,2.912-1.631,7.056,7.056,0,0,0,1.695-2.767,7.562,7.562,0,0,0,.344-3.128,6.186,6.186,0,0,0-.32-1.5,4.312,4.312,0,0,0-.652-1.322,1.944,1.944,0,0,0-1.13-.763,1.749,1.749,0,0,0-1.287.268,3.782,3.782,0,0,0-1.561,2.1,7.03,7.03,0,0,0,.326,4.794,6.618,6.618,0,0,0,2.627,3.011,7.186,7.186,0,0,0,2.883,1,7.969,7.969,0,0,0,2.633-.146" transform="translate(-114.041 -57.52)" fill="#fafafa"/>
            <path id="Trazado_117053" data-name="Trazado 117053" d="M309.619,94.13a7.06,7.06,0,0,1-1.392-2.767,1.851,1.851,0,0,1-.035-1.008.769.769,0,0,1,.751-.582c.349,0,.582.355.775.652a15.057,15.057,0,0,1,1.433,2.726,2.061,2.061,0,0,1,.169.827.833.833,0,0,1-.4.7.863.863,0,0,1-.879-.116,2.6,2.6,0,0,1-.582-.7" transform="translate(-128.662 -37.485)" fill="#995037"/>
            <path id="Trazado_117054" data-name="Trazado 117054" d="M311.916,92.47l-1.538-3.227a2.6,2.6,0,0,1-.32-1,.874.874,0,0,1,.5-.862.862.862,0,0,1,.85.221,2.441,2.441,0,0,1,.518.757l.728,1.415a4.547,4.547,0,0,1,.478,1.2,1.55,1.55,0,0,1-.239,1.241.949.949,0,0,1-1.165.274" transform="translate(-129.463 -36.471)" fill="#995037"/>
            <path id="Trazado_117055" data-name="Trazado 117055" d="M299.82,101.763s-2.143-2.778-2.33-4.24,1.6-4.077,5.452-4.66a9.409,9.409,0,0,0,3.961-1.351,1.24,1.24,0,0,0,.448-1.5,21.776,21.776,0,0,1-1.345-3.815c.181-.786.693-.769,2.021,1.165s2.871,3.926,2.574,4.823-4.992,3.675-4.992,3.675l1.281,2.068Z" transform="translate(-124.211 -35.787)" fill="#b77153"/>
            <path id="Trazado_117056" data-name="Trazado 117056" d="M312.767,137.736,297.99,108.782l9.517-5.329,19.99,31.685s1.054,2.027,2.528,4.4H313.268" transform="translate(-124.425 -43.197)" fill="#455a64"/>
            <path id="Trazado_117057" data-name="Trazado 117057" d="M307.16,103.453a1.366,1.366,0,0,1-.163.116l-.5.3-1.91,1.112-6.873,3.914.052-.175c1.439,2.912,3.308,6.32,5.19,10.007,2.8,5.446,5.242,10.438,6.931,14.072.85,1.817,1.526,3.3,1.986,4.316.216.5.39.885.518,1.165a2.082,2.082,0,0,1,.163.419,2.2,2.2,0,0,1-.221-.4c-.14-.291-.332-.676-.582-1.165l-2.073-4.275c-1.747-3.605-4.205-8.58-6.989-14.025-1.881-3.681-3.739-7.077-5.155-10.024l-.052-.117.111-.064,6.925-3.815,1.951-1.054.518-.268a.673.673,0,0,1,.175-.047" transform="translate(-124.212 -43.197)" fill="#263238"/>
            <path id="Trazado_117058" data-name="Trazado 117058" d="M245.034,161.856a17.9,17.9,0,0,1-2.464-6.8c.093,0,.5,1.549,1.165,3.419s1.38,3.343,1.3,3.384" transform="translate(-101.285 -64.742)" fill="#263238"/>
            <path id="Trazado_117059" data-name="Trazado 117059" d="M301.077,76.351a5.825,5.825,0,0,0,6.89-8.836c3.337-.845,5.417-4.695,4.741-8.073a9.11,9.11,0,0,0-7.053-6.739,7.573,7.573,0,0,0-3.9.1,4.8,4.8,0,0,0-2.912,2.5" transform="translate(-124.78 -21.919)" fill="#263238"/>
            <path id="Trazado_117060" data-name="Trazado 117060" d="M298.991,80.359c0,.035-.431.117-1.136.483a5.015,5.015,0,0,0-2.231,2.4A4.938,4.938,0,0,0,296,87.937a4.7,4.7,0,0,0,.932,1.06,4.633,4.633,0,0,0,1.246.775,4.892,4.892,0,0,0,5.644-1.287,4.748,4.748,0,0,0,.786-1.241,4.848,4.848,0,0,0,.379-1.357,4.986,4.986,0,0,0-4.339-5.558c-.138-.017-.276-.029-.414-.034-.8-.029-1.235.1-1.241.058a1.225,1.225,0,0,1,.315-.087,4.229,4.229,0,0,1,.926-.093,5.117,5.117,0,0,1,5.062,5.743,4.607,4.607,0,0,1-.39,1.439,4.791,4.791,0,0,1-.827,1.322,5.173,5.173,0,0,1-5.993,1.369,4.943,4.943,0,0,1-1.316-.833,4.8,4.8,0,0,1-.979-1.124,5.242,5.242,0,0,1-.81-2.609,5.1,5.1,0,0,1,2.848-4.747,3.976,3.976,0,0,1,.88-.32,1.285,1.285,0,0,1,.285-.052" transform="translate(-123.166 -33.476)" fill="#407bff"/>
            <path id="Trazado_117061" data-name="Trazado 117061" d="M274.971,47.737a5.726,5.726,0,0,0,2.691-10.583,7.112,7.112,0,0,0-10.618-8.323,9.436,9.436,0,0,0-17.474,2.8A9.121,9.121,0,0,0,237.863,44a7.067,7.067,0,1,0,1.2,14.084,6.232,6.232,0,0,0,9.447,6.989,6.826,6.826,0,0,0,12.266-1.41" transform="translate(-96.619 -10.033)" fill="#263238"/>
            <path id="Trazado_117062" data-name="Trazado 117062" d="M281.489,83.231c.122-2.837.274-5.405.274-5.405s6.343-.8,6.617-7.269-.373-21.37-.373-21.37l-11.649-5.6L263.8,53.694,265.769,83.4a7.872,7.872,0,0,0,15.72-.169" transform="translate(-110.149 -18.198)" fill="#b77153"/>
            <path id="Trazado_117063" data-name="Trazado 117063" d="M302.532,71.528c-.1.111-.711-.4-1.578-.431s-1.514.408-1.6.291.058-.25.338-.46a2.052,2.052,0,0,1,1.287-.367,2.085,2.085,0,0,1,1.252.483c.262.233.349.437.3.483" transform="translate(-124.983 -29.461)" fill="#263238"/>
            <path id="Trazado_117064" data-name="Trazado 117064" d="M286.01,71.528c-.1.111-.7-.4-1.578-.431s-1.509.408-1.6.291.058-.25.338-.46a2.052,2.052,0,0,1,1.287-.367,2.085,2.085,0,0,1,1.252.483c.262.233.349.437.3.483" transform="translate(-118.084 -29.461)" fill="#263238"/>
            <path id="Trazado_117065" data-name="Trazado 117065" d="M293.706,77.863a5.179,5.179,0,0,1,1.415-.216c.221,0,.431-.058.472-.215a1.3,1.3,0,0,0-.134-.711q-.3-.874-.629-1.835a32.655,32.655,0,0,1-1.4-4.794,33.206,33.206,0,0,1,1.747,4.66l.582,1.846a1.526,1.526,0,0,1,.1.938.583.583,0,0,1-.373.332,1.276,1.276,0,0,1-.373.041,5.314,5.314,0,0,1-1.41-.047" transform="translate(-122.518 -29.267)" fill="#263238"/>
            <path id="Trazado_117066" data-name="Trazado 117066" d="M288.623,100.412a15.425,15.425,0,0,1-8.393-2.749s1.975,4.712,8.282,4.339Z" transform="translate(-117.009 -40.779)" fill="#995037"/>
            <path id="Trazado_117067" data-name="Trazado 117067" d="M278.089,43.474a8.551,8.551,0,0,0,.117,9.9,4.969,4.969,0,0,0,3.92,2.184c1.555-.058,3.058-1.526,2.726-3.046a3.215,3.215,0,1,0,6.162.111,5.867,5.867,0,0,0,.728,1.98,1.963,1.963,0,0,0,1.788.944c.973-.128,1.538-1.165,1.747-2.138a8.778,8.778,0,0,0-2.475-8.084,10.613,10.613,0,0,0-8.084-2.837,13.508,13.508,0,0,0-7.939,3.495" transform="translate(-115.48 -17.728)" fill="#263238"/>
            <path id="Trazado_117068" data-name="Trazado 117068" d="M270.382,48.123a15,15,0,0,1,1.3,5.825,7.787,7.787,0,0,1-2.1,5.452,5.3,5.3,0,0,1-5.5,1.322,6.127,6.127,0,0,1-.8,5.166,3.915,3.915,0,0,1-4.794,1.258c-1.433-.78-2.05-2.516-2.248-4.135a13.244,13.244,0,0,1,14.4-14.777" transform="translate(-106.952 -20.094)" fill="#263238"/>
            <path id="Trazado_117069" data-name="Trazado 117069" d="M264.2,74.423a2.266,2.266,0,0,0-2.726.652,3.722,3.722,0,0,0,3.7,6.1" transform="translate(-108.773 -30.976)" fill="#b77153"/>
            <path id="Trazado_117070" data-name="Trazado 117070" d="M264.974,80.625c0,.035-.285.076-.734-.047a1.963,1.963,0,0,1-1.328-1.165,1.438,1.438,0,0,1,.035-1.037,1.553,1.553,0,0,1,.536-.635c.4-.262.7-.256.711-.221s-.262.122-.582.4a1.275,1.275,0,0,0-.414,1.4,1.947,1.947,0,0,0,1.112,1.078c.425.146.67.186.664.233" transform="translate(-109.745 -32.361)" fill="#995037"/>
            <path id="Trazado_117071" data-name="Trazado 117071" d="M286.131,67.073c-.082.25-1.031.157-2.155.21s-2.062.192-2.161-.052.815-.833,2.126-.88,2.277.483,2.19.722" transform="translate(-117.668 -27.703)" fill="#263238"/>
            <path id="Trazado_117072" data-name="Trazado 117072" d="M302.761,66.552c-.1.087-.291,0-.518-.029a2.252,2.252,0,0,0-.792-.047c-.338,0-.711.093-1,.087s-.483-.064-.518-.192.093-.28.332-.443a2.532,2.532,0,0,1,1.1-.384,1.467,1.467,0,0,1,1.252.443c.216.262.233.483.14.565" transform="translate(-125.235 -27.363)" fill="#263238"/>
            <path id="Trazado_117073" data-name="Trazado 117073" d="M290.988,86.046a1.97,1.97,0,0,1,1.637-.233,1.223,1.223,0,0,1,.81,1.34,1.3,1.3,0,0,1-.524.746,1.694,1.694,0,0,1-1.345.326,1.322,1.322,0,0,1-1.008-.914,1.083,1.083,0,0,1,.53-1.212" transform="translate(-121.308 -35.796)" fill="#995037"/>
            <path id="Trazado_117074" data-name="Trazado 117074" d="M294.063,86.331a1.482,1.482,0,0,1-.623.268,2.792,2.792,0,0,1-1.643-.157,2.853,2.853,0,0,1-1.27-1.054c-.233-.355-.28-.617-.245-.635s.163.2.419.507a3.368,3.368,0,0,0,1.211.9,3.318,3.318,0,0,0,1.491.227c.4-.029.641-.1.658-.052" transform="translate(-121.203 -35.388)" fill="#263238"/>
            <path id="Trazado_117075" data-name="Trazado 117075" d="M266.869,89.045a9.784,9.784,0,0,0-.221-1.223,5,5,0,0,0-1.841-2.7,4.9,4.9,0,0,0-2.079-.909,5.007,5.007,0,0,0-2.58.221,4.651,4.651,0,0,0-1.241.676,4.5,4.5,0,0,0-1.031,1.043,4.881,4.881,0,0,0,0,5.784,4.5,4.5,0,0,0,1.031,1.043,4.651,4.651,0,0,0,1.241.676,4.974,4.974,0,0,0,6.371-2.981q.073-.2.129-.409c.2-.769.181-1.223.221-1.217a1.963,1.963,0,0,1,0,.32,4,4,0,0,1-.111.926,5.013,5.013,0,0,1-1.829,2.848,5.128,5.128,0,0,1-2.167.99,5.193,5.193,0,0,1-2.726-.21,4.88,4.88,0,0,1-1.316-.7,4.816,4.816,0,0,1-1.1-1.1,5.143,5.143,0,0,1,0-6.145,4.816,4.816,0,0,1,1.1-1.1,4.879,4.879,0,0,1,1.316-.7,5.114,5.114,0,0,1,4.893.78,5.013,5.013,0,0,1,1.829,2.848,4,4,0,0,1,.111.926,2.035,2.035,0,0,1,0,.326" transform="translate(-107.143 -35.015)" fill="#407bff"/>
            <path id="Trazado_117076" data-name="Trazado 117076" d="M294.789,43.043a.477.477,0,0,1,.163.041,1.251,1.251,0,0,1,.408.262,1.881,1.881,0,0,1,.518,1.7,2.435,2.435,0,0,1-2.015,1.782,5.06,5.06,0,0,1-3.413-.815l-1.2-.693,1.316.431a1.427,1.427,0,0,1,.914,1.025,1.811,1.811,0,0,1-.186,1.392,1.941,1.941,0,0,1-1.165.839,2.758,2.758,0,0,1-1.474-.035,5.027,5.027,0,0,1-2.539-2.19l-.885-1.212,1.072,1.043a2.331,2.331,0,0,1,.582,2.2,2.388,2.388,0,0,1-1.293,1.637,3.121,3.121,0,0,1-3.314-.4A3.954,3.954,0,0,1,281,48.157a4,4,0,0,1-.14-.582,1.146,1.146,0,0,1,0-.21c.029,0,.064.28.25.763a4.027,4.027,0,0,0,1.276,1.747,2.947,2.947,0,0,0,3.081.32,2.136,2.136,0,0,0,1.136-1.468,2.056,2.056,0,0,0-.507-1.922l.227-.192a4.777,4.777,0,0,0,2.371,2.062,2.05,2.05,0,0,0,2.33-.664,1.394,1.394,0,0,0-.542-1.986l.116-.262a4.861,4.861,0,0,0,3.215.833,2.254,2.254,0,0,0,1.9-1.608,1.84,1.84,0,0,0-.414-1.6,2.2,2.2,0,0,0-.507-.344" transform="translate(-117.269 -17.973)" fill="#455a64"/>
            <path id="Trazado_117077" data-name="Trazado 117077" d="M264.753,53.731s0,.041-.076.111a2.7,2.7,0,0,1-.274.291,3.8,3.8,0,0,1-1.3.775,3.7,3.7,0,0,1-2.33.035,3.891,3.891,0,0,1-2.33-2l.245-.035a3.768,3.768,0,1,1-6.337-3.308l.2.216a3.86,3.86,0,0,1-2.446.891,4.224,4.224,0,0,1-2.3-.629,3.5,3.5,0,0,1-1.38-1.619,4.113,4.113,0,0,1-.285-1.8A3.963,3.963,0,0,1,247.1,44.3a2.53,2.53,0,0,1,.711-.582A4.155,4.155,0,0,0,246.33,46.7a3.95,3.95,0,0,0,.309,1.7,3.284,3.284,0,0,0,1.3,1.485,3.953,3.953,0,0,0,2.161.582,3.639,3.639,0,0,0,2.26-.827l.2.216a3.605,3.605,0,0,0-.74,3.92,3.564,3.564,0,0,0,3.891,1.975,3.623,3.623,0,0,0,2.726-2.837l.064-.408.181.373a3.7,3.7,0,0,0,2.143,1.91,3.55,3.55,0,0,0,2.242,0,3.876,3.876,0,0,0,1.293-.687c.28-.245.39-.384.39-.373" transform="translate(-102.773 -18.252)" fill="#455a64"/>
            <path id="Trazado_117078" data-name="Trazado 117078" d="M248.931,73.532a1.455,1.455,0,0,1-.507.3,3.428,3.428,0,0,1-1.613.25A3.325,3.325,0,0,1,244.592,73a3.594,3.594,0,0,1-.879-2.988l.268.116a5.983,5.983,0,0,1-2.184,1.788,4.654,4.654,0,0,1-2.126.448,4.262,4.262,0,0,1-1.951-.536,3.454,3.454,0,0,1-1.858-2.755,3.3,3.3,0,0,1,.582-2.184,2.4,2.4,0,0,1,.437-.443.592.592,0,0,1,.186-.116,3.63,3.63,0,0,0-.524.629,3.288,3.288,0,0,0-.478,2.1,3.232,3.232,0,0,0,1.794,2.545,4.176,4.176,0,0,0,3.8.052,5.733,5.733,0,0,0,2.079-1.683l.379-.489-.111.582a3.36,3.36,0,0,0,.775,2.761,3.2,3.2,0,0,0,2.05,1.072,3.628,3.628,0,0,0,1.555-.157c.349-.122.53-.227.542-.21" transform="translate(-98.478 -27.697)" fill="#455a64"/>
            <path id="Trazado_117079" data-name="Trazado 117079" d="M311.817,57.033a2.006,2.006,0,0,1,.128,1.078,3.885,3.885,0,0,1-3.407,3.559,1.927,1.927,0,0,1-1.078-.082c0-.052.414,0,1.043-.134a4,4,0,0,0,3.221-3.372c.1-.635.041-1.043.093-1.048" transform="translate(-128.379 -23.814)" fill="#455a64"/>
            <path id="Trazado_117080" data-name="Trazado 117080" d="M315.839,67.5a1.117,1.117,0,0,1,.146.443,2.523,2.523,0,0,1-.122,1.276,1.993,1.993,0,0,1-1.41,1.3,2.032,2.032,0,0,1-1.165-.1,1.623,1.623,0,0,1-.926-.9l.291-.1a2.049,2.049,0,0,1,.076.582,2.33,2.33,0,0,1-1.462,2.074,1.932,1.932,0,0,1-1.165.052,2.223,2.223,0,0,1-.874-.483,2.091,2.091,0,0,1-.7-1.223,1.279,1.279,0,0,1,0-.513,1.749,1.749,0,0,0,.1.489,2.18,2.18,0,0,0,.728,1.078,1.818,1.818,0,0,0,1.794.332A2.056,2.056,0,0,0,312.4,70a1.578,1.578,0,0,0-.064-.478l.3-.1a1.578,1.578,0,0,0,1.747.839,1.8,1.8,0,0,0,1.27-1.1,2.662,2.662,0,0,0,.2-1.165c-.012-.326-.064-.483-.012-.489" transform="translate(-128.814 -28.186)" fill="#455a64"/>
            <path id="Trazado_117081" data-name="Trazado 117081" d="M289.5,82.383c.041,0,.064.134,0,.332a1.369,1.369,0,0,1-1.165.955c-.2,0-.326-.035-.32-.076a3.625,3.625,0,0,0,.845-.472c.4-.344.553-.74.641-.74" transform="translate(-120.258 -34.399)" fill="#263238"/>
            <path id="Trazado_117082" data-name="Trazado 117082" d="M335.656,423.094c0,.087-75.136.151-167.816.151S0,423.2,0,423.094s75.136-.151,167.839-.151,167.816.07,167.816.151" transform="translate(0 -176.599)" fill="#263238"/>
            <path id="Trazado_117083" data-name="Trazado 117083" d="M161.622,0a4,4,0,0,1-.408.052l-1.165.1a12.956,12.956,0,0,0-1.91.274c-.379.082-.792.116-1.212.245s-.874.256-1.345.39a22.417,22.417,0,0,0-6.407,3.268,22.85,22.85,0,0,0-6.25,7.118,24.462,24.462,0,0,0-2.965,14.177c.035.536.151,1.066.227,1.608a12.181,12.181,0,0,0,.326,1.613,22.78,22.78,0,0,0,2.5,6.325A22.488,22.488,0,0,0,153.753,44.7a20.826,20.826,0,0,0,7.514,1.6,20.266,20.266,0,0,0,7.811-1.235l.763-.291.1-.035.093.041L181.1,50.25l-.32.285L177.249,40l-.041-.134.093-.1a23.462,23.462,0,0,0,5.667-9.669,24.128,24.128,0,0,0,.722-10.234A23.536,23.536,0,0,0,175.665,5.2a24.459,24.459,0,0,0-5.446-3.378A23.633,23.633,0,0,0,165.635.433L163.923.165,162.659.089l-.775-.052a1.281,1.281,0,0,1-.262-.029,1.1,1.1,0,0,1,.262,0h.775l1.276.035,1.747.239a23.135,23.135,0,0,1,4.66,1.334,24.019,24.019,0,0,1,5.539,3.367,23.584,23.584,0,0,1,5.143,6.069,23.943,23.943,0,0,1,3.081,8.737,24.46,24.46,0,0,1-.7,10.408,23.809,23.809,0,0,1-5.749,9.867l.041-.233c1.165,3.378,2.33,6.9,3.541,10.531l.181.53-.5-.245-11.067-5.458h.192l-.78.3a20.581,20.581,0,0,1-7.985,1.241,21.236,21.236,0,0,1-7.677-1.637,22.931,22.931,0,0,1-10.933-9.75,23.171,23.171,0,0,1-2.545-6.407,11.414,11.414,0,0,1-.32-1.643c-.076-.548-.2-1.083-.227-1.631a23.8,23.8,0,0,1-.082-3.215,24.717,24.717,0,0,1,.926-6.005,24.27,24.27,0,0,1,2.2-5.149,22.991,22.991,0,0,1,6.407-7.17A22.206,22.206,0,0,1,155.524.893L156.893.52A12.145,12.145,0,0,1,158.11.3a11.929,11.929,0,0,1,1.928-.233l1.194-.058Z" transform="translate(-58.237 0)" fill="#263238"/>
            <path id="Trazado_117084" data-name="Trazado 117084" d="M176.742,29.087h-1.613l-3.576-4.863L171.518,21s-2.493-.122-2.155,4.077,0,3.139,0,3.139-5.289.082-5.726.548c-.315.338-.4,5.6-.419,8.446a3.087,3.087,0,0,0,2.26,3.116,2.422,2.422,0,0,0,.582.07c1.322,0,8.049-1.165,8.049-1.165l2.79-.035Z" transform="translate(-68.15 -8.769)" fill="#407bff"/>
            <path id="Trazado_117085" data-name="Trazado 117085" d="M191.661,33.273l-.868,11.037-2.761.035-.122-10.8Z" transform="translate(-78.461 -13.893)" fill="#407bff"/>
            <path id="Trazado_117086" data-name="Trazado 117086" d="M294.251,310.219l-69.007-7.109a3.847,3.847,0,0,1-3.42-4.215l11.94-116.016a5.463,5.463,0,0,1,5.985-4.869l65.8,6.776a5.464,5.464,0,0,1,4.869,5.985l-11.97,116.015a3.848,3.848,0,0,1-4.2,3.433" transform="translate(-92.614 -74.316)" fill="#407bff"/>
            <g id="Grupo_87768" data-name="Grupo 87768" transform="translate(129.19 103.665)" opacity="0.4" style="isolation: isolate">
              <g id="Grupo_87767" data-name="Grupo 87767">
                <g id="Grupo_87766" data-name="Grupo 87766" clip-path="url(#clip-path-3)">
                  <path id="Trazado_117087" data-name="Trazado 117087" d="M294.251,310.219l-69.007-7.109a3.847,3.847,0,0,1-3.42-4.215l11.94-116.016a5.463,5.463,0,0,1,5.985-4.869l65.8,6.776a5.464,5.464,0,0,1,4.869,5.985l-11.97,116.015a3.848,3.848,0,0,1-4.2,3.433" transform="translate(-221.803 -177.981)"/>
                </g>
              </g>
            </g>
            <path id="Trazado_117088" data-name="Trazado 117088" d="M282.285,308.985l-69.02-7.105a3.847,3.847,0,0,1-3.42-4.219l11.97-116.016a5.455,5.455,0,0,1,5.984-4.869h0l65.784,6.763a5.455,5.455,0,0,1,4.869,5.984v0l-11.97,116.02a3.848,3.848,0,0,1-4.2,3.441" transform="translate(-87.612 -73.8)" fill="#407bff"/>
            <path id="Trazado_117089" data-name="Trazado 117089" d="M231.627,345.356l23.8,2.451a1.035,1.035,0,0,1,.923,1.135l-.965,9.364a1.034,1.034,0,0,1-1.135.923l-23.8-2.45a1.035,1.035,0,0,1-.923-1.135l.965-9.364a1.035,1.035,0,0,1,1.135-.923" transform="translate(-95.836 -144.2)" fill="#407bff"/>
            <g id="Grupo_87771" data-name="Grupo 87771" transform="translate(133.686 201.15)" opacity="0.4">
              <g id="Grupo_87770" data-name="Grupo 87770">
                <g id="Grupo_87769" data-name="Grupo 87769" clip-path="url(#clip-path-4)">
                  <path id="Trazado_117090" data-name="Trazado 117090" d="M231.627,345.356l23.8,2.451a1.035,1.035,0,0,1,.923,1.135l-.965,9.364a1.034,1.034,0,0,1-1.135.923l-23.8-2.45a1.035,1.035,0,0,1-.923-1.135l.965-9.364a1.035,1.035,0,0,1,1.135-.923" transform="translate(-229.522 -345.351)"/>
                </g>
              </g>
            </g>
            <rect id="Rectángulo_36280" data-name="Rectángulo 36280" width="25.842" height="65.878" transform="translate(136.346 141.653) rotate(-84.12)" fill="#fafafa"/>
            <path id="Trazado_117091" data-name="Trazado 117091" d="M299.544,231.442a4.011,4.011,0,0,1,.038-.457c.038-.3.073-.748.128-1.33.115-1.171.287-2.89.509-5.109.427-4.433,1.09-10.85,1.894-18.81l.069.086L236.65,199.1l.124-.1c-.927,8.977-1.825,17.677-2.655,25.706l-.094-.12,46.961,4.891,13.638,1.432,3.655.393.945.1.325.038a2.931,2.931,0,0,1-.316-.026l-.932-.09-3.634-.359L281.029,229.6,234,224.8H233.9v-.1c.825-8.033,1.71-16.72,2.642-25.71v-.111h.111l65.549,6.784h.077v.077c-.855,7.982-1.518,14.416-1.984,18.857-.235,2.206-.428,3.92-.543,5.083-.064.577-.111,1.018-.145,1.316Z" transform="translate(-97.663 -83.04)" fill="#263238"/>
            <path id="Trazado_117092" data-name="Trazado 117092" d="M238.692,261.591l9.368.965a.89.89,0,0,1,.794.976l-.965,9.369a.889.889,0,0,1-.976.793l-9.368-.965a.889.889,0,0,1-.793-.976l.965-9.369a.889.889,0,0,1,.976-.793" transform="translate(-98.853 -109.225)" fill="#407bff"/>
            <g id="Grupo_87774" data-name="Grupo 87774" transform="translate(137.893 152.361)" opacity="0.4">
              <g id="Grupo_87773" data-name="Grupo 87773">
                <g id="Grupo_87772" data-name="Grupo 87772" clip-path="url(#clip-path-5)">
                  <path id="Trazado_117093" data-name="Trazado 117093" d="M238.692,261.591l9.368.965a.89.89,0,0,1,.794.976l-.965,9.369a.889.889,0,0,1-.976.793l-9.368-.965a.889.889,0,0,1-.793-.976l.965-9.369a.889.889,0,0,1,.976-.793" transform="translate(-236.746 -261.586)"/>
                </g>
              </g>
            </g>
            <path id="Trazado_117094" data-name="Trazado 117094" d="M235.744,261.291l9.368.965a.89.89,0,0,1,.794.976l-.965,9.369a.889.889,0,0,1-.976.793l-9.368-.965a.889.889,0,0,1-.793-.976l.965-9.369a.889.889,0,0,1,.976-.793" transform="translate(-97.622 -109.099)" fill="#263238"/>
            <path id="Trazado_117095" data-name="Trazado 117095" d="M244.458,267.623l-.475,4.656-1.077-.111.389-3.779-.928-.1.09-.855Z" transform="translate(-101.2 -111.667)" fill="#fff"/>
            <path id="Trazado_117096" data-name="Trazado 117096" d="M265.36,264.345l9.368.965a.89.89,0,0,1,.794.976l-.965,9.369a.889.889,0,0,1-.976.793l-9.368-.965a.89.89,0,0,1-.794-.976l.965-9.369a.889.889,0,0,1,.976-.793" transform="translate(-109.988 -110.375)" fill="#407bff"/>
            <g id="Grupo_87777" data-name="Grupo 87777" transform="translate(153.427 153.965)" opacity="0.4">
              <g id="Grupo_87776" data-name="Grupo 87776">
                <g id="Grupo_87775" data-name="Grupo 87775" clip-path="url(#clip-path-5)">
                  <path id="Trazado_117097" data-name="Trazado 117097" d="M265.36,264.345l9.368.965a.89.89,0,0,1,.794.976l-.965,9.369a.889.889,0,0,1-.976.793l-9.368-.965a.89.89,0,0,1-.794-.976l.965-9.369a.889.889,0,0,1,.976-.793" transform="translate(-263.415 -264.34)"/>
                </g>
              </g>
            </g>
            <path id="Trazado_117098" data-name="Trazado 117098" d="M262.405,264.037l9.368.965a.89.89,0,0,1,.794.976l-.965,9.369a.889.889,0,0,1-.976.793l-9.368-.965a.89.89,0,0,1-.794-.976l.965-9.369a.889.889,0,0,1,.976-.793" transform="translate(-108.755 -110.246)" fill="#263238"/>
            <path id="Trazado_117099" data-name="Trazado 117099" d="M272.26,274.342l-.09.855-3.506-.359.073-.7,1.962-1.509c.453-.346.552-.577.573-.8.038-.363-.193-.6-.684-.654a1.143,1.143,0,0,0-1.009.368l-.731-.585a2.157,2.157,0,0,1,1.932-.671c1.035.107,1.672.705,1.582,1.548a1.837,1.837,0,0,1-.923,1.385l-1.171.9Z" transform="translate(-112.181 -112.846)" fill="#fff"/>
            <path id="Trazado_117100" data-name="Trazado 117100" d="M293,267.192l9.368.965a.89.89,0,0,1,.794.976L302.2,278.5a.889.889,0,0,1-.976.793l-9.368-.965a.889.889,0,0,1-.793-.976l.965-9.369a.889.889,0,0,1,.976-.793" transform="translate(-121.531 -111.563)" fill="#407bff"/>
            <g id="Grupo_87780" data-name="Grupo 87780" transform="translate(169.528 155.624)" opacity="0.4">
              <g id="Grupo_87779" data-name="Grupo 87779">
                <g id="Grupo_87778" data-name="Grupo 87778" clip-path="url(#clip-path-5)">
                  <path id="Trazado_117101" data-name="Trazado 117101" d="M293,267.192l9.368.965a.89.89,0,0,1,.794.976L302.2,278.5a.889.889,0,0,1-.976.793l-9.368-.965a.889.889,0,0,1-.793-.976l.965-9.369a.889.889,0,0,1,.976-.793" transform="translate(-291.059 -267.187)"/>
                </g>
              </g>
            </g>
            <path id="Trazado_117102" data-name="Trazado 117102" d="M290.057,266.884l9.368.965a.89.89,0,0,1,.794.976l-.965,9.369a.889.889,0,0,1-.976.793l-9.368-.965a.89.89,0,0,1-.794-.976l.965-9.369a.889.889,0,0,1,.976-.793" transform="translate(-120.301 -111.435)" fill="#263238"/>
            <path id="Trazado_117103" data-name="Trazado 117103" d="M299.8,276.612c-.081.782-.757,1.436-2.078,1.3a3.237,3.237,0,0,1-1.71-.68l.5-.783a2.263,2.263,0,0,0,1.283.556c.539.055.893-.129.932-.509s-.2-.594-.808-.658l-.492-.051.073-.71,1.065-.983-1.975-.2.09-.855,3.249.334-.073.7-1.171,1.086a1.325,1.325,0,0,1,1.116,1.453" transform="translate(-123.6 -114.008)" fill="#fff"/>
            <path id="Trazado_117104" data-name="Trazado 117104" d="M320.657,270.039l9.368.965a.89.89,0,0,1,.794.976l-.965,9.369a.889.889,0,0,1-.976.793l-9.368-.965a.889.889,0,0,1-.793-.976l.965-9.369a.889.889,0,0,1,.976-.793" transform="translate(-133.077 -112.752)" fill="#407bff"/>
            <g id="Grupo_87783" data-name="Grupo 87783" transform="translate(185.634 157.282)" opacity="0.4">
              <g id="Grupo_87782" data-name="Grupo 87782">
                <g id="Grupo_87781" data-name="Grupo 87781" clip-path="url(#clip-path-5)">
                  <path id="Trazado_117105" data-name="Trazado 117105" d="M320.657,270.039l9.368.965a.89.89,0,0,1,.794.976l-.965,9.369a.889.889,0,0,1-.976.793l-9.368-.965a.889.889,0,0,1-.793-.976l.965-9.369a.889.889,0,0,1,.976-.793" transform="translate(-318.711 -270.034)"/>
                </g>
              </g>
            </g>
            <path id="Trazado_117106" data-name="Trazado 117106" d="M317.768,269.73l9.368.965a.89.89,0,0,1,.794.976l-.965,9.369a.889.889,0,0,1-.976.793l-9.368-.965a.889.889,0,0,1-.793-.976l.965-9.369a.889.889,0,0,1,.976-.793" transform="translate(-131.871 -112.623)" fill="#263238"/>
            <rect id="Rectángulo_36285" data-name="Rectángulo 36285" width="0.427" height="5.002" transform="matrix(0.102, -0.995, 0.995, 0.102, 187.44, 162.931)" fill="#fff"/>
            <path id="Trazado_117107" data-name="Trazado 117107" d="M326.742,275.594a.812.812,0,1,1-.727-.889.812.812,0,0,1,.727.889" transform="translate(-135.754 -114.701)" fill="#fff"/>
            <path id="Trazado_117108" data-name="Trazado 117108" d="M325.971,283.044a.812.812,0,1,1-.727-.889h0a.813.813,0,0,1,.722.889" transform="translate(-135.432 -117.811)" fill="#fff"/>
            <path id="Trazado_117109" data-name="Trazado 117109" d="M235.808,289.612l9.368.965a.89.89,0,0,1,.794.976L245,300.921a.889.889,0,0,1-.976.793l-9.368-.965a.889.889,0,0,1-.793-.976l.965-9.369a.889.889,0,0,1,.976-.793" transform="translate(-97.649 -120.925)" fill="#407bff"/>
            <g id="Grupo_87786" data-name="Grupo 87786" transform="translate(136.213 168.682)" opacity="0.4">
              <g id="Grupo_87785" data-name="Grupo 87785">
                <g id="Grupo_87784" data-name="Grupo 87784" clip-path="url(#clip-path-5)">
                  <path id="Trazado_117110" data-name="Trazado 117110" d="M235.808,289.612l9.368.965a.89.89,0,0,1,.794.976L245,300.921a.889.889,0,0,1-.976.793l-9.368-.965a.889.889,0,0,1-.793-.976l.965-9.369a.889.889,0,0,1,.976-.793" transform="translate(-233.862 -289.607)"/>
                </g>
              </g>
            </g>
            <path id="Trazado_117111" data-name="Trazado 117111" d="M232.86,289.311l9.368.965a.89.89,0,0,1,.794.976l-.965,9.369a.889.889,0,0,1-.976.793l-9.368-.965a.889.889,0,0,1-.793-.976l.965-9.369a.889.889,0,0,1,.976-.793" transform="translate(-96.418 -120.799)" fill="#263238"/>
            <path id="Trazado_117112" data-name="Trazado 117112" d="M241.666,299.52l-.757-.077-.1.974-1.048-.107.1-.975-2.5-.26.073-.723,2.492-2.719,1.128.12-2.317,2.565,1.248.128.09-.855,1.013.1-.09.855.757.077Z" transform="translate(-99.11 -123.441)" fill="#fff"/>
            <path id="Trazado_117113" data-name="Trazado 117113" d="M262.475,292.358l9.368.965a.89.89,0,0,1,.794.976l-.965,9.369a.889.889,0,0,1-.976.793l-9.368-.965a.89.89,0,0,1-.794-.976l.965-9.369a.889.889,0,0,1,.976-.793" transform="translate(-108.784 -122.071)" fill="#407bff"/>
            <g id="Grupo_87789" data-name="Grupo 87789" transform="translate(151.747 170.282)" opacity="0.4">
              <g id="Grupo_87788" data-name="Grupo 87788">
                <g id="Grupo_87787" data-name="Grupo 87787" clip-path="url(#clip-path-5)">
                  <path id="Trazado_117114" data-name="Trazado 117114" d="M262.475,292.358l9.368.965a.89.89,0,0,1,.794.976l-.965,9.369a.889.889,0,0,1-.976.793l-9.368-.965a.89.89,0,0,1-.794-.976l.965-9.369a.889.889,0,0,1,.976-.793" transform="translate(-260.531 -292.353)"/>
                </g>
              </g>
            </g>
            <path id="Trazado_117115" data-name="Trazado 117115" d="M259.529,292.05l9.368.965a.89.89,0,0,1,.794.976l-.965,9.369a.889.889,0,0,1-.976.793l-9.368-.965a.889.889,0,0,1-.793-.976l.965-9.369a.889.889,0,0,1,.976-.793" transform="translate(-107.554 -121.943)" fill="#263238"/>
            <path id="Trazado_117116" data-name="Trazado 117116" d="M268.453,301.694c-.081.821-.761,1.475-2.086,1.338a3.244,3.244,0,0,1-1.71-.68l.509-.778a2.231,2.231,0,0,0,1.283.552c.538.056.893-.132.932-.513s-.175-.628-1.018-.714l-1.189-.124.509-2.565,2.83.291-.086.855-1.937-.2-.167.877.38.038c1.355.128,1.834.8,1.749,1.624" transform="translate(-110.507 -124.517)" fill="#fff"/>
            <path id="Trazado_117117" data-name="Trazado 117117" d="M290.128,295.2l9.368.965a.89.89,0,0,1,.794.976l-.965,9.369a.889.889,0,0,1-.976.793l-9.368-.965a.889.889,0,0,1-.793-.976l.965-9.369a.889.889,0,0,1,.976-.793" transform="translate(-120.33 -123.26)" fill="#407bff"/>
            <g id="Grupo_87792" data-name="Grupo 87792" transform="translate(167.852 171.94)" opacity="0.4">
              <g id="Grupo_87791" data-name="Grupo 87791">
                <g id="Grupo_87790" data-name="Grupo 87790" clip-path="url(#clip-path-5)">
                  <path id="Trazado_117118" data-name="Trazado 117118" d="M290.128,295.2l9.368.965a.89.89,0,0,1,.794.976l-.965,9.369a.889.889,0,0,1-.976.793l-9.368-.965a.889.889,0,0,1-.793-.976l.965-9.369a.889.889,0,0,1,.976-.793" transform="translate(-288.182 -295.2)"/>
                </g>
              </g>
            </g>
            <path id="Trazado_117119" data-name="Trazado 117119" d="M287.172,294.9l9.368.965a.89.89,0,0,1,.794.976l-.965,9.369a.889.889,0,0,1-.976.793l-9.368-.965a.89.89,0,0,1-.794-.976l.965-9.369a.889.889,0,0,1,.976-.793" transform="translate(-119.096 -123.131)" fill="#263238"/>
            <path id="Trazado_117120" data-name="Trazado 117120" d="M296.7,304.629a1.6,1.6,0,0,1-1.915,1.364,2.01,2.01,0,0,1-1.838-2.514,2.271,2.271,0,0,1,2.625-2.257,2.521,2.521,0,0,1,1.261.453l-.479.748a1.558,1.558,0,0,0-.855-.325,1.242,1.242,0,0,0-1.445,1.214,1.586,1.586,0,0,1,1.188-.3,1.479,1.479,0,0,1,1.464,1.495c0,.039,0,.079-.006.117m-1.047-.055a.7.7,0,0,0-.62-.774.958.958,0,0,0-.962.559c0,.017-.006.035-.009.052-.043.4.227.718.744.774a.7.7,0,0,0,.833-.612Z" transform="translate(-122.31 -125.767)" fill="#fff"/>
            <path id="Trazado_117121" data-name="Trazado 117121" d="M317.765,298.051l9.368.965a.89.89,0,0,1,.794.976l-.965,9.369a.889.889,0,0,1-.976.793l-9.368-.965a.889.889,0,0,1-.793-.976l.965-9.369a.889.889,0,0,1,.976-.793" transform="translate(-131.87 -124.448)" fill="#407bff"/>
            <g id="Grupo_87795" data-name="Grupo 87795" transform="translate(183.95 173.598)" opacity="0.4">
              <g id="Grupo_87794" data-name="Grupo 87794">
                <g id="Grupo_87793" data-name="Grupo 87793" clip-path="url(#clip-path-5)">
                  <path id="Trazado_117122" data-name="Trazado 117122" d="M317.765,298.051l9.368.965a.89.89,0,0,1,.794.976l-.965,9.369a.889.889,0,0,1-.976.793l-9.368-.965a.889.889,0,0,1-.793-.976l.965-9.369a.889.889,0,0,1,.976-.793" transform="translate(-315.82 -298.046)"/>
                </g>
              </g>
            </g>
            <path id="Trazado_117123" data-name="Trazado 117123" d="M314.818,297.743l9.368.965a.89.89,0,0,1,.794.976l-.965,9.369a.889.889,0,0,1-.976.793l-9.368-.965a.889.889,0,0,1-.793-.976l.965-9.369a.889.889,0,0,1,.976-.793" transform="translate(-130.639 -124.32)" fill="#263238"/>
            <rect id="Rectángulo_36290" data-name="Rectángulo 36290" width="5.002" height="0.427" transform="translate(186.188 180.858) rotate(-38.262)" fill="#fff"/>
            <rect id="Rectángulo_36291" data-name="Rectángulo 36291" width="0.427" height="5.002" transform="matrix(0.776, -0.631, 0.631, 0.776, 186.545, 177.69)" fill="#fff"/>
            <path id="Trazado_117124" data-name="Trazado 117124" d="M232.947,317.4l9.368.965a.89.89,0,0,1,.794.976l-.965,9.369a.889.889,0,0,1-.976.793l-9.368-.965a.889.889,0,0,1-.793-.976l.965-9.369a.889.889,0,0,1,.976-.793" transform="translate(-96.454 -132.528)" fill="#407bff"/>
            <g id="Grupo_87798" data-name="Grupo 87798" transform="translate(134.547 184.868)" opacity="0.4">
              <g id="Grupo_87797" data-name="Grupo 87797">
                <g id="Grupo_87796" data-name="Grupo 87796" clip-path="url(#clip-path-13)">
                  <path id="Trazado_117125" data-name="Trazado 117125" d="M232.947,317.4l9.368.965a.89.89,0,0,1,.794.976l-.965,9.369a.889.889,0,0,1-.976.793l-9.368-.965a.889.889,0,0,1-.793-.976l.965-9.369a.889.889,0,0,1,.976-.793" transform="translate(-231.001 -317.396)"/>
                </g>
              </g>
            </g>
            <path id="Trazado_117126" data-name="Trazado 117126" d="M230,317.1l9.368.965a.89.89,0,0,1,.793.976l-.965,9.369a.889.889,0,0,1-.976.793l-9.368-.965a.889.889,0,0,1-.793-.976l.965-9.369A.89.89,0,0,1,230,317.1" transform="translate(-95.223 -132.402)" fill="#263238"/>
            <path id="Trazado_117127" data-name="Trazado 117127" d="M238.684,323.414l-.073.7-2.138,3.771-1.167-.124,2.052-3.6L235.819,324l-.077.757-.958-.1.171-1.629Z" transform="translate(-98.034 -134.882)" fill="#fff"/>
            <path id="Trazado_117128" data-name="Trazado 117128" d="M259.615,320.147l9.368.965a.89.89,0,0,1,.794.976l-.965,9.369a.889.889,0,0,1-.976.793l-9.368-.965a.889.889,0,0,1-.793-.976l.965-9.369a.889.889,0,0,1,.976-.793" transform="translate(-107.589 -133.675)" fill="#407bff"/>
            <g id="Grupo_87801" data-name="Grupo 87801" transform="translate(150.08 186.467)" opacity="0.4">
              <g id="Grupo_87800" data-name="Grupo 87800">
                <g id="Grupo_87799" data-name="Grupo 87799" clip-path="url(#clip-path-14)">
                  <path id="Trazado_117129" data-name="Trazado 117129" d="M259.615,320.147l9.368.965a.89.89,0,0,1,.794.976l-.965,9.369a.889.889,0,0,1-.976.793l-9.368-.965a.889.889,0,0,1-.793-.976l.965-9.369a.889.889,0,0,1,.976-.793" transform="translate(-257.67 -320.142)"/>
                </g>
              </g>
            </g>
            <path id="Trazado_117130" data-name="Trazado 117130" d="M256.66,319.839l9.368.965a.89.89,0,0,1,.794.976l-.965,9.369a.889.889,0,0,1-.976.793l-9.368-.965a.889.889,0,0,1-.793-.976l.965-9.369a.889.889,0,0,1,.976-.793" transform="translate(-106.356 -133.546)" fill="#263238"/>
            <path id="Trazado_117131" data-name="Trazado 117131" d="M266.135,329.69c-.09.855-.927,1.347-2.107,1.223s-1.894-.753-1.8-1.625a1.18,1.18,0,0,1,.816-1.022,1.082,1.082,0,0,1-.428-1.013c.086-.817.855-1.248,1.92-1.142s1.744.7,1.663,1.513a1.085,1.085,0,0,1-.645.9,1.179,1.179,0,0,1,.585,1.167m-1.086-.145c.043-.428-.269-.7-.8-.753s-.889.163-.932.573.261.705.8.761.9-.188.958-.6Zm-1.385-2.138c-.038.351.218.6.654.645s.753-.145.791-.5-.231-.616-.672-.658-.739.132-.773.5Z" transform="translate(-109.488 -136.161)" fill="#fff"/>
            <path id="Trazado_117132" data-name="Trazado 117132" d="M287.26,322.994l9.368.965a.89.89,0,0,1,.794.976l-.965,9.368a.889.889,0,0,1-.976.793l-9.368-.965a.889.889,0,0,1-.793-.976l.965-9.369a.889.889,0,0,1,.976-.793" transform="translate(-119.133 -134.863)" fill="#407bff"/>
            <g id="Grupo_87804" data-name="Grupo 87804" transform="translate(166.182 188.126)" opacity="0.4">
              <g id="Grupo_87803" data-name="Grupo 87803">
                <g id="Grupo_87802" data-name="Grupo 87802" clip-path="url(#clip-path-5)">
                  <path id="Trazado_117133" data-name="Trazado 117133" d="M287.26,322.994l9.368.965a.89.89,0,0,1,.794.976l-.965,9.368a.889.889,0,0,1-.976.793l-9.368-.965a.889.889,0,0,1-.793-.976l.965-9.369a.889.889,0,0,1,.976-.793" transform="translate(-285.314 -322.989)"/>
                </g>
              </g>
            </g>
            <path id="Trazado_117134" data-name="Trazado 117134" d="M283.872,321.439l9.324.942a.884.884,0,0,1,.791.969l-.942,9.324a.884.884,0,0,1-.969.791l-9.323-.942a.885.885,0,0,1-.792-.969l.942-9.323a.885.885,0,0,1,.969-.792" transform="translate(-117.73 -134.214)" fill="#263238"/>
            <path id="Trazado_117135" data-name="Trazado 117135" d="M293.688,331.395a2.268,2.268,0,0,1-2.625,2.257,2.484,2.484,0,0,1-1.252-.448l.479-.748a1.518,1.518,0,0,0,.855.321,1.246,1.246,0,0,0,1.444-1.219,1.6,1.6,0,0,1-1.2.3,1.483,1.483,0,0,1-1.454-1.512c0-.033,0-.066.005-.1a1.6,1.6,0,0,1,1.92-1.364,2,2,0,0,1,1.825,2.514m-1.116-.932c.038-.4-.231-.718-.74-.773a.7.7,0,1,0-.128,1.389.727.727,0,0,0,.863-.559c0-.019.007-.037.009-.057Z" transform="translate(-121.01 -137.318)" fill="#fff"/>
            <path id="Trazado_117136" data-name="Trazado 117136" d="M314.9,325.84l9.368.965a.89.89,0,0,1,.794.976l-.965,9.368a.889.889,0,0,1-.976.793l-9.368-.965a.889.889,0,0,1-.793-.976l.965-9.369a.889.889,0,0,1,.976-.793" transform="translate(-130.675 -136.052)" fill="#407bff"/>
            <g id="Grupo_87807" data-name="Grupo 87807" transform="translate(182.284 189.783)" opacity="0.4">
              <g id="Grupo_87806" data-name="Grupo 87806">
                <g id="Grupo_87805" data-name="Grupo 87805" clip-path="url(#clip-path-14)">
                  <path id="Trazado_117137" data-name="Trazado 117137" d="M314.9,325.84l9.368.965a.89.89,0,0,1,.794.976l-.965,9.368a.889.889,0,0,1-.976.793l-9.368-.965a.889.889,0,0,1-.793-.976l.965-9.369a.889.889,0,0,1,.976-.793" transform="translate(-312.959 -325.835)"/>
                </g>
              </g>
            </g>
            <path id="Trazado_117138" data-name="Trazado 117138" d="M311.957,325.532l9.368.965a.89.89,0,0,1,.794.976l-.965,9.368a.889.889,0,0,1-.976.793l-9.368-.965a.889.889,0,0,1-.793-.976l.965-9.369a.889.889,0,0,1,.976-.793" transform="translate(-129.445 -135.923)" fill="#263238"/>
            <rect id="Rectángulo_36296" data-name="Rectángulo 36296" width="0.427" height="5.002" transform="matrix(0.102, -0.995, 0.995, 0.102, 184.114, 195.627)" fill="#fff"/>
            <path id="Trazado_117139" data-name="Trazado 117139" d="M284.373,351.029l9.368.965a.89.89,0,0,1,.794.976l-.965,9.369a.889.889,0,0,1-.976.793l-9.368-.965a.89.89,0,0,1-.794-.976l.965-9.369a.889.889,0,0,1,.976-.793" transform="translate(-117.927 -146.569)" fill="#407bff"/>
            <g id="Grupo_87810" data-name="Grupo 87810" transform="translate(164.501 204.454)" opacity="0.4">
              <g id="Grupo_87809" data-name="Grupo 87809">
                <g id="Grupo_87808" data-name="Grupo 87808" clip-path="url(#clip-path-5)">
                  <path id="Trazado_117140" data-name="Trazado 117140" d="M284.373,351.029l9.368.965a.89.89,0,0,1,.794.976l-.965,9.369a.889.889,0,0,1-.976.793l-9.368-.965a.89.89,0,0,1-.794-.976l.965-9.369a.889.889,0,0,1,.976-.793" transform="translate(-282.428 -351.024)"/>
                </g>
              </g>
            </g>
            <path id="Trazado_117141" data-name="Trazado 117141" d="M281.419,350.721l9.368.965a.89.89,0,0,1,.794.976l-.965,9.369a.889.889,0,0,1-.976.793l-9.368-.965a.889.889,0,0,1-.793-.976l.965-9.369a.889.889,0,0,1,.976-.793" transform="translate(-116.694 -146.441)" fill="#263238"/>
            <path id="Trazado_117142" data-name="Trazado 117142" d="M312.018,353.875l9.368.965a.89.89,0,0,1,.794.976l-.965,9.369a.889.889,0,0,1-.976.793l-9.368-.965a.889.889,0,0,1-.793-.976l.965-9.369a.89.89,0,0,1,.976-.793" transform="translate(-129.47 -147.758)" fill="#407bff"/>
            <g id="Grupo_87813" data-name="Grupo 87813" transform="translate(180.603 206.112)" opacity="0.4">
              <g id="Grupo_87812" data-name="Grupo 87812">
                <g id="Grupo_87811" data-name="Grupo 87811" clip-path="url(#clip-path-5)">
                  <path id="Trazado_117143" data-name="Trazado 117143" d="M312.018,353.875l9.368.965a.89.89,0,0,1,.794.976l-.965,9.369a.889.889,0,0,1-.976.793l-9.368-.965a.889.889,0,0,1-.793-.976l.965-9.369a.89.89,0,0,1,.976-.793" transform="translate(-310.073 -353.87)"/>
                </g>
              </g>
            </g>
            <path id="Trazado_117144" data-name="Trazado 117144" d="M309.071,353.567l9.368.965a.89.89,0,0,1,.794.976l-.965,9.369a.889.889,0,0,1-.976.793l-9.368-.965a.889.889,0,0,1-.793-.976l.965-9.369a.889.889,0,0,1,.976-.793" transform="translate(-128.24 -147.629)" fill="#455a64"/>
            <rect id="Rectángulo_36299" data-name="Rectángulo 36299" width="0.427" height="5.002" transform="translate(182.497 211.349) rotate(-84.135)" fill="#fff"/>
            <rect id="Rectángulo_36300" data-name="Rectángulo 36300" width="0.427" height="5.002" transform="translate(182.305 213.239) rotate(-84.135)" fill="#fff"/>
            <path id="Trazado_117145" data-name="Trazado 117145" d="M226.3,344.807l24.762,2.55a1.069,1.069,0,0,1,.953,1.173l-.957,9.3a1.068,1.068,0,0,1-1.172.953l-24.763-2.55a1.069,1.069,0,0,1-.953-1.173l.958-9.3a1.068,1.068,0,0,1,1.172-.953" transform="translate(-93.599 -143.971)" fill="#263238"/>
            <path id="Trazado_117146" data-name="Trazado 117146" d="M246.338,354.669c.158-1.535,1.1-2.313,2.24-2.2s1.9,1.073,1.74,2.608-1.09,2.313-2.236,2.193-1.9-1.073-1.744-2.6m2.9.3c.111-1.056-.218-1.531-.753-1.586s-.949.342-1.056,1.4.218,1.531.748,1.586.953-.346,1.06-1.4" transform="translate(-102.849 -147.169)" fill="#fff"/>
            <rect id="Rectángulo_36301" data-name="Rectángulo 36301" width="5.002" height="0.428" transform="translate(168.328 212.788) rotate(-83.272)" fill="#fff"/>
            <rect id="Rectángulo_36302" data-name="Rectángulo 36302" width="0.427" height="5.002" transform="translate(166.328 210.293) rotate(-84.135)" fill="#fff"/>
            <path id="Trazado_117147" data-name="Trazado 117147" d="M280.146,225.864l-.714,6.938-.329-.034.7-6.631-1.744-.18.03-.308Z" transform="translate(-116.103 -94.22)" fill="#263238"/>
            <path id="Trazado_117148" data-name="Trazado 117148" d="M288.038,233.528l-.034.308-4.7-.483.026-.239,3.283-2.689c.94-.765,1.167-1.252,1.227-1.817.094-.923-.487-1.582-1.71-1.71a2.566,2.566,0,0,0-2.167.616l-.2-.239a2.941,2.941,0,0,1,2.415-.684c1.325.137,2.1.906,1.983,2.026a2.852,2.852,0,0,1-1.343,2.026l-2.992,2.449Z" transform="translate(-118.292 -94.596)" fill="#263238"/>
            <path id="Trazado_117149" data-name="Trazado 117149" d="M297.393,232.758c-.12,1.154-1.013,1.881-2.539,1.71a3.144,3.144,0,0,1-2.313-1.21l.206-.218a2.883,2.883,0,0,0,2.138,1.12c1.325.137,2.086-.428,2.193-1.444s-.5-1.71-1.975-1.877l-.385-.043.026-.235,2.45-2.595-3.826-.393.03-.308,4.275.427-.026.235-2.463,2.6c1.608.179,2.33,1.069,2.21,2.227" transform="translate(-122.15 -94.894)" fill="#263238"/>
            <path id="Trazado_117150" data-name="Trazado 117150" d="M308.441,234.072l-1.509-.154-.205,2-.329-.034.2-2-3.985-.428.026-.239,4.322-4.3.384.038-4.275,4.25,3.552.368.179-1.765.329.034-.183,1.761,1.509.158Z" transform="translate(-126.358 -95.583)" fill="#263238"/>
            <path id="Trazado_117151" data-name="Trazado 117151" d="M314.479,240.716a1.8,1.8,0,0,1-.1.363l-.5,1.283-.257-.026.449-1.338a.329.329,0,1,1,.107-.649.337.337,0,0,1,.295.367" transform="translate(-130.955 -100.355)" fill="#263238"/>
            <path id="Trazado_117152" data-name="Trazado 117152" d="M322.72,235.556l-1.505-.154-.205,2-.329-.034.205-2-3.984-.428.026-.239,4.318-4.288.384.043-4.275,4.249,3.552.363.179-1.765.329.034-.171,1.765,1.509.154Z" transform="translate(-132.322 -96.208)" fill="#263238"/>
            <path id="Trazado_117153" data-name="Trazado 117153" d="M332.255,236.366c-.12,1.129-.992,1.92-2.565,1.757a3.141,3.141,0,0,1-2.3-1.21l.214-.218a2.86,2.86,0,0,0,2.138,1.12c1.355.141,2.1-.5,2.2-1.488.111-1.069-.462-1.77-2.445-1.975l-1.347-.137.684-3.236,3.578.372-.03.308-3.3-.342-.568,2.625,1.069.111c2.12.218,2.8,1.082,2.68,2.313" transform="translate(-136.701 -96.445)" fill="#263238"/>
            <path id="Trazado_117154" data-name="Trazado 117154" d="M289.238,302.34a1.84,1.84,0,0,1,.06-.4c.051-.248.124-.59.214-.962s.171-.714.235-.953a1.68,1.68,0,0,1,.124-.389,1.7,1.7,0,0,1-.064.4c-.047.248-.124.585-.209.962s-.171.71-.235.953a1.894,1.894,0,0,1-.124.389" transform="translate(-120.771 -125.112)" fill="#263238"/>
            <path id="Trazado_117155" data-name="Trazado 117155" d="M291.408,302.469a13.113,13.113,0,0,1-.4-1.539,14.812,14.812,0,0,1-.312-1.56,14.27,14.27,0,0,1,.4,1.539,14.969,14.969,0,0,1,.312,1.56" transform="translate(-121.381 -125.001)" fill="#263238"/>
            <path id="Trazado_117156" data-name="Trazado 117156" d="M259.071,222.216c-.3-.967-.093-1.59,1.316-1.112,3.11,1.043,5.889.7,6.564.1s.058-1.747-.955-1.66a12.269,12.269,0,0,1-3.273-.454,8,8,0,0,1-2.44-1.031c-.652-.414-1.211-.8-1.707-1.165,0,0-2.872-2.074-3.768-3.739l-9.838,4.211,1.584,4.928a5.243,5.243,0,0,0,3.326,3.809,23.806,23.806,0,0,0,7.286.582c.821-.536,3.984,4.042,4.945,5.656s2.1,1.817,2.47.833c.25-.676-2.563-5.691-3.541-7.269a19.119,19.119,0,0,1-1.969-3.7" transform="translate(-102.287 -89.002)" fill="#b77153"/>
            <path id="Trazado_117157" data-name="Trazado 117157" d="M256.35,234.141c0,.035-.245,0-.582-.14a2.43,2.43,0,0,1-1.031-1,2.519,2.519,0,0,1-.32-1.4c.035-.373.151-.582.186-.582a3.249,3.249,0,0,0,1.747,3.11Z" transform="translate(-106.229 -96.459)" fill="#995037"/>
            <path id="Trazado_117158" data-name="Trazado 117158" d="M261.8,234.458c0,.035-.233,0-.547-.157a2.439,2.439,0,0,1-.961-.984,2.5,2.5,0,0,1-.3-1.345c.035-.355.134-.582.175-.542a4.6,4.6,0,0,0,.4,1.747,4.727,4.727,0,0,0,1.235,1.281" transform="translate(-108.555 -96.631)" fill="#995037"/>
            <path id="Trazado_117159" data-name="Trazado 117159" d="M189.42,161.614s31.231,35.891,31.19,35.3,13.979-11.067,13.979-11.067l-30.6-36.462Z" transform="translate(-79.092 -62.375)" fill="#455a64"/>
          </g>
        </g>
      </g>
    </g>
    <path id="Trazado_144149" data-name="Trazado 144149" d="M22,0H134a22,22,0,0,1,22,22v1a22,22,0,0,1-22,22H22A22,22,0,0,1,0,23V22A22,22,0,0,1,22,0Z" transform="translate(872 1415.25)" fill="#26a69a"/>
    <path id="Trazado_144140" data-name="Trazado 144140" d="M22,0H134a22,22,0,0,1,22,22v1a22,22,0,0,1-22,22H22A22,22,0,0,1,0,23V22A22,22,0,0,1,22,0Z" transform="translate(1252 1543.25)" fill="#26a69a"/>
    <path id="Trazado_144141" data-name="Trazado 144141" d="M22,0H134a22,22,0,0,1,22,22v1a22,22,0,0,1-22,22H22A22,22,0,0,1,0,23V22A22,22,0,0,1,22,0Z" transform="translate(1252 1614.25)" fill="#26a69a"/>
    <path id="Trazado_144142" data-name="Trazado 144142" d="M30,0h96a30,30,0,0,1,0,60H30A30,30,0,0,1,30,0Z" transform="translate(872 1629.25)" fill="#26a69a"/>
    <path id="Trazado_144150" data-name="Trazado 144150" d="M9.313,16.6a7.388,7.388,0,0,1-3.2.594A5.4,5.4,0,0,1,2.055,15.68,5.54,5.54,0,0,1,.578,11.641a5.919,5.919,0,0,1,1.66-4.359A5.807,5.807,0,0,1,6.547,5.609a8.058,8.058,0,0,1,2.766.414v2.43A4.9,4.9,0,0,0,6.75,7.781,3.4,3.4,0,0,0,4.2,8.773a3.682,3.682,0,0,0-.969,2.688,3.611,3.611,0,0,0,.914,2.59,3.229,3.229,0,0,0,2.461.965,5.249,5.249,0,0,0,2.7-.719Zm4.18.4H11.023V5.156h2.469ZM16.82,7.734A1.442,1.442,0,0,1,15.8,7.363a1.2,1.2,0,0,1-.4-.91,1.153,1.153,0,0,1,.4-.906,1.671,1.671,0,0,1,2.051,0,1.158,1.158,0,0,1,.395.906,1.191,1.191,0,0,1-.395.922A1.466,1.466,0,0,1,16.82,7.734ZM18.039,17H15.57V9h2.469ZM27.3,13.7H22.086q.125,1.742,2.2,1.742a4.286,4.286,0,0,0,2.32-.625V16.6a6.1,6.1,0,0,1-2.883.594,4.058,4.058,0,0,1-3.008-1.074,4.058,4.058,0,0,1-1.07-3A4.281,4.281,0,0,1,20.8,9.969,3.852,3.852,0,0,1,23.641,8.8a3.5,3.5,0,0,1,2.707,1.039,4,4,0,0,1,.957,2.82Zm-2.289-1.516q0-1.719-1.391-1.719a1.328,1.328,0,0,0-1.027.492,2.234,2.234,0,0,0-.527,1.227ZM36.5,17H34.039V12.555q0-1.859-1.328-1.859a1.318,1.318,0,0,0-1.055.492,1.875,1.875,0,0,0-.414,1.25V17H28.773V9h2.469v1.266h.031A2.829,2.829,0,0,1,33.844,8.8q2.656,0,2.656,3.3Zm6.789-.094a3.649,3.649,0,0,1-1.648.289q-2.609,0-2.609-2.711V10.82h-1.3V9h1.3V7.273l2.461-.7V9h1.8v1.82h-1.8v3.234q0,1.25.992,1.25a1.673,1.673,0,0,0,.8-.227ZM51.8,13.7H46.586q.125,1.742,2.2,1.742a4.286,4.286,0,0,0,2.32-.625V16.6a6.1,6.1,0,0,1-2.883.594,4.058,4.058,0,0,1-3.008-1.074,4.058,4.058,0,0,1-1.07-3A4.281,4.281,0,0,1,45.3,9.969,3.852,3.852,0,0,1,48.141,8.8a3.5,3.5,0,0,1,2.707,1.039,4,4,0,0,1,.957,2.82Zm-2.289-1.516q0-1.719-1.391-1.719a1.328,1.328,0,0,0-1.027.492,2.234,2.234,0,0,0-.527,1.227Z" transform="translate(923 1427.25)" fill="#fff"/>
    <path id="Trazado_144143" data-name="Trazado 144143" d="M20.816,16.508l-7.3-3.328V11.914l7.3-3.492v1.859l-5.2,2.227v.047l5.2,2.094Zm11.313,0-7.3-3.328V11.914l7.3-3.492v1.859l-5.2,2.227v.047l5.2,2.094Zm5.8.492H35.41V5.8h2.523Zm10.031,0H45.5V12.555q0-1.859-1.328-1.859a1.318,1.318,0,0,0-1.055.492,1.875,1.875,0,0,0-.414,1.25V17H40.238V9h2.469v1.266h.031A2.829,2.829,0,0,1,45.309,8.8q2.656,0,2.656,3.3Zm6.789-.094a3.649,3.649,0,0,1-1.648.289q-2.609,0-2.609-2.711V10.82H49.2V9h1.3V7.273l2.461-.7V9h1.8v1.82h-1.8v3.234q0,1.25.992,1.25a1.673,1.673,0,0,0,.8-.227Zm8.516-3.2H58.051q.125,1.742,2.2,1.742a4.286,4.286,0,0,0,2.32-.625V16.6a6.1,6.1,0,0,1-2.883.594,4.058,4.058,0,0,1-3.008-1.074,4.058,4.058,0,0,1-1.07-3,4.281,4.281,0,0,1,1.156-3.156A3.852,3.852,0,0,1,59.605,8.8a3.5,3.5,0,0,1,2.707,1.039,4,4,0,0,1,.957,2.82ZM60.98,12.188q0-1.719-1.391-1.719a1.328,1.328,0,0,0-1.027.492,2.234,2.234,0,0,0-.527,1.227Zm8.977-.961a2.141,2.141,0,0,0-1.039-.242,1.5,1.5,0,0,0-1.258.59,2.573,2.573,0,0,0-.453,1.605V17H64.738V9h2.469v1.484h.031a2.136,2.136,0,0,1,2.109-1.625,1.59,1.59,0,0,1,.609.094Zm6.766-4.18a2.494,2.494,0,0,0-.914-.187q-1.187,0-1.187,1.289V9h1.828v1.82H74.621V17H72.16V10.82H70.816V9H72.16V8.008a2.88,2.88,0,0,1,.891-2.2,3.4,3.4,0,0,1,2.422-.836,4.253,4.253,0,0,1,1.25.156ZM84.293,17H81.957V15.852h-.031A2.607,2.607,0,0,1,79.543,17.2a2.492,2.492,0,0,1-1.832-.66,2.366,2.366,0,0,1-.668-1.762q0-2.328,2.758-2.687l2.172-.289q0-1.312-1.422-1.312a4.853,4.853,0,0,0-2.719.852V9.477a6.116,6.116,0,0,1,1.41-.469,7.413,7.413,0,0,1,1.629-.2q3.422,0,3.422,3.414Zm-2.32-3.25v-.539L80.52,13.4q-1.2.156-1.2,1.086a.9.9,0,0,0,.293.691,1.126,1.126,0,0,0,.793.27,1.462,1.462,0,0,0,1.133-.48A1.735,1.735,0,0,0,81.973,13.75ZM92.582,17H85.4V15.977l4.016-5.156H85.8V9h6.75v1.219l-3.8,4.961h3.836Zm9.6-3.922-7.3,3.328V14.555l5.219-2.086v-.031L94.887,10.2V8.344l7.3,3.469Zm11.313,0-7.3,3.328V14.555l5.219-2.086v-.031L106.2,10.2V8.344l7.3,3.469ZM27.449,41H24.926V29.8h2.523Zm9.266,0H30V29.8h6.461v2.055H32.52v2.492h3.664v2.047H32.52v2.563h4.2Zm1.031-.211v-2a5.256,5.256,0,0,0,1.215.547,4.028,4.028,0,0,0,1.145.18,2.455,2.455,0,0,0,1.035-.18.581.581,0,0,0,.379-.547.506.506,0,0,0-.172-.391,1.6,1.6,0,0,0-.441-.273,5.009,5.009,0,0,0-.59-.211Q40,37.82,39.7,37.7a5.914,5.914,0,0,1-.84-.387,2.427,2.427,0,0,1-.609-.48,1.889,1.889,0,0,1-.375-.633,2.525,2.525,0,0,1-.129-.852,2.192,2.192,0,0,1,.293-1.156,2.393,2.393,0,0,1,.781-.793,3.57,3.57,0,0,1,1.117-.453,5.825,5.825,0,0,1,1.309-.145,7.261,7.261,0,0,1,1.078.082,8.047,8.047,0,0,1,1.078.238v1.906a3.9,3.9,0,0,0-1-.41,4.235,4.235,0,0,0-1.051-.137,2.328,2.328,0,0,0-.457.043,1.505,1.505,0,0,0-.379.125.7.7,0,0,0-.258.211.486.486,0,0,0-.094.293.541.541,0,0,0,.141.375,1.221,1.221,0,0,0,.367.27,3.625,3.625,0,0,0,.5.2q.277.09.551.184a7.161,7.161,0,0,1,.891.375,2.848,2.848,0,0,1,.684.477,1.871,1.871,0,0,1,.438.641,2.563,2.563,0,0,1-.156,2.09,2.471,2.471,0,0,1-.82.82,3.72,3.72,0,0,1-1.18.461,6.54,6.54,0,0,1-1.387.145A7.149,7.149,0,0,1,37.746,40.789Zm12.4.117A3.649,3.649,0,0,1,48.5,41.2q-2.609,0-2.609-2.711V34.82h-1.3V33h1.3V31.273l2.461-.7V33h1.8v1.82h-1.8v3.234q0,1.25.992,1.25a1.673,1.673,0,0,0,.8-.227Zm6.609-5.68a2.142,2.142,0,0,0-1.039-.242,1.5,1.5,0,0,0-1.258.59A2.573,2.573,0,0,0,54,37.18V41H51.535V33H54v1.484h.031a2.136,2.136,0,0,1,2.109-1.625,1.59,1.59,0,0,1,.609.094ZM64.559,41H62.223V39.852h-.031A2.607,2.607,0,0,1,59.809,41.2a2.492,2.492,0,0,1-1.832-.66,2.366,2.366,0,0,1-.668-1.762q0-2.328,2.758-2.687l2.172-.289q0-1.312-1.422-1.312a4.853,4.853,0,0,0-2.719.852V33.477a6.116,6.116,0,0,1,1.41-.469,7.413,7.413,0,0,1,1.629-.2q3.422,0,3.422,3.414Zm-2.32-3.25v-.539l-1.453.188q-1.2.156-1.2,1.086a.9.9,0,0,0,.293.691,1.126,1.126,0,0,0,.793.27,1.462,1.462,0,0,0,1.133-.48A1.735,1.735,0,0,0,62.238,37.75Zm9.109,3.156A3.649,3.649,0,0,1,69.7,41.2q-2.609,0-2.609-2.711V34.82h-1.3V33h1.3V31.273l2.461-.7V33h1.8v1.82h-1.8v3.234q0,1.25.992,1.25a1.673,1.673,0,0,0,.8-.227Zm8.516-3.2H74.645q.125,1.742,2.2,1.742a4.286,4.286,0,0,0,2.32-.625V40.6a6.1,6.1,0,0,1-2.883.594,3.724,3.724,0,0,1-4.078-4.07,4.281,4.281,0,0,1,1.156-3.156A3.852,3.852,0,0,1,76.2,32.8a3.5,3.5,0,0,1,2.707,1.039,4,4,0,0,1,.957,2.82Zm-2.289-1.516q0-1.719-1.391-1.719a1.328,1.328,0,0,0-1.027.492,2.234,2.234,0,0,0-.527,1.227Zm11.6,3.9a4.526,4.526,0,0,1-1.289,3.449,5.224,5.224,0,0,1-3.734,1.223A5.919,5.919,0,0,1,81.59,44.3V42.219a4.907,4.907,0,0,0,2.492.719,2.684,2.684,0,0,0,1.938-.66,2.369,2.369,0,0,0,.688-1.793v-.633h-.031A2.757,2.757,0,0,1,84.184,41.2a3,3,0,0,1-2.43-1.078,4.372,4.372,0,0,1-.9-2.891,4.87,4.87,0,0,1,1-3.227,3.265,3.265,0,0,1,2.633-1.2,2.429,2.429,0,0,1,2.188,1.125h.031V33h2.469Zm-2.437-2.93v-.633a1.945,1.945,0,0,0-.449-1.293,1.453,1.453,0,0,0-1.168-.535,1.51,1.51,0,0,0-1.289.641,3.012,3.012,0,0,0-.469,1.8,2.543,2.543,0,0,0,.445,1.582,1.451,1.451,0,0,0,1.219.582,1.511,1.511,0,0,0,1.238-.59A2.418,2.418,0,0,0,86.738,37.156Zm5.75-5.422a1.442,1.442,0,0,1-1.023-.371,1.2,1.2,0,0,1-.4-.91,1.153,1.153,0,0,1,.4-.906,1.671,1.671,0,0,1,2.051,0,1.158,1.158,0,0,1,.395.906,1.191,1.191,0,0,1-.395.922A1.466,1.466,0,0,1,92.488,31.734ZM93.707,41H91.238V33h2.469Zm8.734,0h-2.336V39.852h-.031A2.607,2.607,0,0,1,97.691,41.2a2.492,2.492,0,0,1-1.832-.66,2.366,2.366,0,0,1-.668-1.762q0-2.328,2.758-2.687l2.172-.289q0-1.312-1.422-1.312a4.853,4.853,0,0,0-2.719.852V33.477a6.117,6.117,0,0,1,1.41-.469,7.413,7.413,0,0,1,1.629-.2q3.422,0,3.422,3.414Zm-2.32-3.25v-.539l-1.453.188q-1.2.156-1.2,1.086a.9.9,0,0,0,.293.691,1.126,1.126,0,0,0,.793.27,1.462,1.462,0,0,0,1.133-.48A1.735,1.735,0,0,0,100.121,37.75Z" transform="translate(887 1637.25)" fill="#fff"/>
    <path id="Trazado_144144" data-name="Trazado 144144" d="M7.406,17H1.469V5.8H7.156V6.984H2.781v3.727H6.828v1.18H2.781v3.922H7.406Zm1.5-.289V15.336a3.792,3.792,0,0,0,2.3.773q1.688,0,1.688-1.125a.976.976,0,0,0-.145-.543,1.44,1.44,0,0,0-.391-.395,3.007,3.007,0,0,0-.578-.309q-.332-.137-.715-.285a9.207,9.207,0,0,1-.934-.426,2.82,2.82,0,0,1-.672-.484,1.8,1.8,0,0,1-.406-.613,2.17,2.17,0,0,1-.137-.8,1.912,1.912,0,0,1,.258-1A2.286,2.286,0,0,1,9.867,9.4a3.206,3.206,0,0,1,.98-.441,4.349,4.349,0,0,1,1.137-.148,4.59,4.59,0,0,1,1.859.359v1.3a3.624,3.624,0,0,0-2.031-.578,2.374,2.374,0,0,0-.648.082,1.587,1.587,0,0,0-.5.23,1.065,1.065,0,0,0-.32.355.936.936,0,0,0-.113.457,1.1,1.1,0,0,0,.113.523,1.152,1.152,0,0,0,.332.375,2.538,2.538,0,0,0,.531.3q.312.133.711.289a9.894,9.894,0,0,1,.953.418,3.269,3.269,0,0,1,.719.484,1.893,1.893,0,0,1,.457.621,2,2,0,0,1,.16.836,1.971,1.971,0,0,1-.262,1.031,2.243,2.243,0,0,1-.7.727,3.2,3.2,0,0,1-1.008.43,4.976,4.976,0,0,1-1.2.141A4.539,4.539,0,0,1,8.906,16.711Zm10.984.211a2.47,2.47,0,0,1-1.2.25q-2.1,0-2.1-2.344V10.094H15.219V9h1.375V7.047l1.281-.414V9h2.016v1.094H17.875V14.6a1.869,1.869,0,0,0,.273,1.148,1.091,1.091,0,0,0,.906.344,1.347,1.347,0,0,0,.836-.266ZM25.773,10.3a1.567,1.567,0,0,0-.969-.258,1.635,1.635,0,0,0-1.371.773,3.576,3.576,0,0,0-.551,2.109V17H21.6V9h1.281v1.648h.031a2.793,2.793,0,0,1,.836-1.316,1.906,1.906,0,0,1,1.258-.473,2.092,2.092,0,0,1,.766.109ZM32.891,17H31.609V15.75h-.031a2.682,2.682,0,0,1-2.461,1.438,2.63,2.63,0,0,1-1.871-.633,2.192,2.192,0,0,1-.676-1.68q0-2.242,2.641-2.609l2.4-.336q0-2.039-1.648-2.039a3.938,3.938,0,0,0-2.609.984V9.563a4.958,4.958,0,0,1,2.719-.75q2.82,0,2.82,2.984Zm-1.281-4.047-1.93.266a3.133,3.133,0,0,0-1.344.441,1.273,1.273,0,0,0-.453,1.121,1.221,1.221,0,0,0,.418.957,1.615,1.615,0,0,0,1.113.371,2.056,2.056,0,0,0,1.574-.668,2.387,2.387,0,0,0,.621-1.691Zm7.406,3.969a2.47,2.47,0,0,1-1.2.25q-2.1,0-2.1-2.344V10.094H34.344V9h1.375V7.047L37,6.633V9h2.016v1.094H37V14.6a1.869,1.869,0,0,0,.273,1.148,1.091,1.091,0,0,0,.906.344,1.347,1.347,0,0,0,.836-.266Zm8.141-3.6H41.508a2.992,2.992,0,0,0,.719,2.063,2.478,2.478,0,0,0,1.891.727,3.931,3.931,0,0,0,2.484-.891v1.2a4.643,4.643,0,0,1-2.789.766,3.381,3.381,0,0,1-2.664-1.09,4.461,4.461,0,0,1-.969-3.066,4.375,4.375,0,0,1,1.059-3.043,3.394,3.394,0,0,1,2.629-1.176A3.008,3.008,0,0,1,46.3,9.828a4.234,4.234,0,0,1,.859,2.82Zm-1.312-1.086a2.607,2.607,0,0,0-.535-1.727,1.823,1.823,0,0,0-1.465-.617,2.07,2.07,0,0,0-1.539.648,2.943,2.943,0,0,0-.781,1.7Zm10.078,4.125q0,4.406-4.219,4.406a5.664,5.664,0,0,1-2.594-.562V18.922a5.327,5.327,0,0,0,2.578.75q2.953,0,2.953-3.141v-.875h-.031a3.237,3.237,0,0,1-5.152.465,4.263,4.263,0,0,1-.91-2.863,4.981,4.981,0,0,1,.98-3.242,3.275,3.275,0,0,1,2.684-1.2,2.608,2.608,0,0,1,2.4,1.3h.031V9h1.281Zm-1.281-2.977V12.2A2.289,2.289,0,0,0,54,10.57a2.122,2.122,0,0,0-1.605-.68,2.225,2.225,0,0,0-1.859.863,3.853,3.853,0,0,0-.672,2.418,3.308,3.308,0,0,0,.645,2.137,2.082,2.082,0,0,0,1.707.8,2.23,2.23,0,0,0,1.754-.766A2.854,2.854,0,0,0,54.641,13.383Zm4.531-6.414a.812.812,0,0,1-.586-.234.791.791,0,0,1-.242-.594.821.821,0,0,1,.828-.836.827.827,0,0,1,.6.238.835.835,0,0,1,0,1.184A.82.82,0,0,1,59.172,6.969ZM59.8,17H58.516V9H59.8Zm8.32,0H66.836V15.75H66.8a2.682,2.682,0,0,1-2.461,1.438,2.63,2.63,0,0,1-1.871-.633,2.192,2.192,0,0,1-.676-1.68q0-2.242,2.641-2.609l2.4-.336q0-2.039-1.648-2.039a3.938,3.938,0,0,0-2.609.984V9.563a4.958,4.958,0,0,1,2.719-.75q2.82,0,2.82,2.984Zm-1.281-4.047-1.93.266a3.133,3.133,0,0,0-1.344.441,1.273,1.273,0,0,0-.453,1.121,1.221,1.221,0,0,0,.418.957,1.615,1.615,0,0,0,1.113.371,2.056,2.056,0,0,0,1.574-.668,2.387,2.387,0,0,0,.621-1.691ZM79.273,17H77.992V7.32a2.966,2.966,0,0,1-.434.34,7.068,7.068,0,0,1-.641.379q-.355.188-.75.352a5.451,5.451,0,0,1-.77.258v-1.3a7.448,7.448,0,0,0,.895-.316q.473-.2.93-.445t.863-.516a6.853,6.853,0,0,0,.7-.527h.484Z" transform="translate(1281 1554.25)" fill="#fff"/>
    <path id="Trazado_144145" data-name="Trazado 144145" d="M7.406,17H1.469V5.8H7.156V6.984H2.781v3.727H6.828v1.18H2.781v3.922H7.406Zm1.5-.289V15.336a3.792,3.792,0,0,0,2.3.773q1.688,0,1.688-1.125a.976.976,0,0,0-.145-.543,1.44,1.44,0,0,0-.391-.395,3.007,3.007,0,0,0-.578-.309q-.332-.137-.715-.285a9.207,9.207,0,0,1-.934-.426,2.82,2.82,0,0,1-.672-.484,1.8,1.8,0,0,1-.406-.613,2.17,2.17,0,0,1-.137-.8,1.912,1.912,0,0,1,.258-1A2.286,2.286,0,0,1,9.867,9.4a3.206,3.206,0,0,1,.98-.441,4.349,4.349,0,0,1,1.137-.148,4.59,4.59,0,0,1,1.859.359v1.3a3.624,3.624,0,0,0-2.031-.578,2.374,2.374,0,0,0-.648.082,1.587,1.587,0,0,0-.5.23,1.065,1.065,0,0,0-.32.355.936.936,0,0,0-.113.457,1.1,1.1,0,0,0,.113.523,1.152,1.152,0,0,0,.332.375,2.538,2.538,0,0,0,.531.3q.312.133.711.289a9.894,9.894,0,0,1,.953.418,3.269,3.269,0,0,1,.719.484,1.893,1.893,0,0,1,.457.621,2,2,0,0,1,.16.836,1.971,1.971,0,0,1-.262,1.031,2.243,2.243,0,0,1-.7.727,3.2,3.2,0,0,1-1.008.43,4.976,4.976,0,0,1-1.2.141A4.539,4.539,0,0,1,8.906,16.711Zm10.984.211a2.47,2.47,0,0,1-1.2.25q-2.1,0-2.1-2.344V10.094H15.219V9h1.375V7.047l1.281-.414V9h2.016v1.094H17.875V14.6a1.869,1.869,0,0,0,.273,1.148,1.091,1.091,0,0,0,.906.344,1.347,1.347,0,0,0,.836-.266ZM25.773,10.3a1.567,1.567,0,0,0-.969-.258,1.635,1.635,0,0,0-1.371.773,3.576,3.576,0,0,0-.551,2.109V17H21.6V9h1.281v1.648h.031a2.793,2.793,0,0,1,.836-1.316,1.906,1.906,0,0,1,1.258-.473,2.092,2.092,0,0,1,.766.109ZM32.891,17H31.609V15.75h-.031a2.682,2.682,0,0,1-2.461,1.438,2.63,2.63,0,0,1-1.871-.633,2.192,2.192,0,0,1-.676-1.68q0-2.242,2.641-2.609l2.4-.336q0-2.039-1.648-2.039a3.938,3.938,0,0,0-2.609.984V9.563a4.958,4.958,0,0,1,2.719-.75q2.82,0,2.82,2.984Zm-1.281-4.047-1.93.266a3.133,3.133,0,0,0-1.344.441,1.273,1.273,0,0,0-.453,1.121,1.221,1.221,0,0,0,.418.957,1.615,1.615,0,0,0,1.113.371,2.056,2.056,0,0,0,1.574-.668,2.387,2.387,0,0,0,.621-1.691Zm7.406,3.969a2.47,2.47,0,0,1-1.2.25q-2.1,0-2.1-2.344V10.094H34.344V9h1.375V7.047L37,6.633V9h2.016v1.094H37V14.6a1.869,1.869,0,0,0,.273,1.148,1.091,1.091,0,0,0,.906.344,1.347,1.347,0,0,0,.836-.266Zm8.141-3.6H41.508a2.992,2.992,0,0,0,.719,2.063,2.478,2.478,0,0,0,1.891.727,3.931,3.931,0,0,0,2.484-.891v1.2a4.643,4.643,0,0,1-2.789.766,3.381,3.381,0,0,1-2.664-1.09,4.461,4.461,0,0,1-.969-3.066,4.375,4.375,0,0,1,1.059-3.043,3.394,3.394,0,0,1,2.629-1.176A3.008,3.008,0,0,1,46.3,9.828a4.234,4.234,0,0,1,.859,2.82Zm-1.312-1.086a2.607,2.607,0,0,0-.535-1.727,1.823,1.823,0,0,0-1.465-.617,2.07,2.07,0,0,0-1.539.648,2.943,2.943,0,0,0-.781,1.7Zm10.078,4.125q0,4.406-4.219,4.406a5.664,5.664,0,0,1-2.594-.562V18.922a5.327,5.327,0,0,0,2.578.75q2.953,0,2.953-3.141v-.875h-.031a3.237,3.237,0,0,1-5.152.465,4.263,4.263,0,0,1-.91-2.863,4.981,4.981,0,0,1,.98-3.242,3.275,3.275,0,0,1,2.684-1.2,2.608,2.608,0,0,1,2.4,1.3h.031V9h1.281Zm-1.281-2.977V12.2A2.289,2.289,0,0,0,54,10.57a2.122,2.122,0,0,0-1.605-.68,2.225,2.225,0,0,0-1.859.863,3.853,3.853,0,0,0-.672,2.418,3.308,3.308,0,0,0,.645,2.137,2.082,2.082,0,0,0,1.707.8,2.23,2.23,0,0,0,1.754-.766A2.854,2.854,0,0,0,54.641,13.383Zm4.531-6.414a.812.812,0,0,1-.586-.234.791.791,0,0,1-.242-.594.821.821,0,0,1,.828-.836.827.827,0,0,1,.6.238.835.835,0,0,1,0,1.184A.82.82,0,0,1,59.172,6.969ZM59.8,17H58.516V9H59.8Zm8.32,0H66.836V15.75H66.8a2.682,2.682,0,0,1-2.461,1.438,2.63,2.63,0,0,1-1.871-.633,2.192,2.192,0,0,1-.676-1.68q0-2.242,2.641-2.609l2.4-.336q0-2.039-1.648-2.039a3.938,3.938,0,0,0-2.609.984V9.563a4.958,4.958,0,0,1,2.719-.75q2.82,0,2.82,2.984Zm-1.281-4.047-1.93.266a3.133,3.133,0,0,0-1.344.441,1.273,1.273,0,0,0-.453,1.121,1.221,1.221,0,0,0,.418.957,1.615,1.615,0,0,0,1.113.371,2.056,2.056,0,0,0,1.574-.668,2.387,2.387,0,0,0,.621-1.691ZM84.117,17H82.508L76.742,8.07a3.731,3.731,0,0,1-.359-.7h-.047A11.534,11.534,0,0,1,76.4,8.906V17H75.086V5.8h1.7L82.4,14.586q.352.547.453.75h.031a11.853,11.853,0,0,1-.078-1.648V5.8h1.313Z" transform="translate(1281 1626.25)" fill="#fff"/>
    <path id="Trazado_144151" data-name="Trazado 144151" d="M0,144V0" transform="translate(950.5 1476.5)" fill="none" stroke="#1b9ce2" stroke-width="3"/>
    <path id="Trazado_144146" data-name="Trazado 144146" d="M182.75,0H0" transform="translate(1056.75 1666.75)" fill="none" stroke="#1b9ce2" stroke-width="3"/>
    <path id="Trazado_144152" data-name="Trazado 144152" d="M7.5,0,15,13H0Z" transform="translate(943 1466)" fill="#039be5"/>
    <path id="Trazado_144147" data-name="Trazado 144147" d="M7.5,0,15,13H0Z" transform="translate(1046.25 1674.25) rotate(-90)" fill="#039be5"/>
    <path id="Trazado_117234" data-name="Trazado 117234" d="M-3418.85-10031.649v-103.512h13.9" transform="translate(4658 11700)" fill="none" stroke="#1b9ce2" stroke-width="3"/>
    <path id="Trazado_144148" data-name="Trazado 144148" d="M0,0H13" transform="translate(1239.5 1636.5)" fill="none" stroke="#1b9ce2" stroke-width="3"/>
  </g>
</svg>
