<svg xmlns="http://www.w3.org/2000/svg" xmlns:xlink="http://www.w3.org/1999/xlink" width="615.39" height="606" viewBox="0 0 615.39 606">
  <defs>
    <clipPath id="clip-path">
      <rect id="Rectángulo_36322" data-name="Rectángulo 36322" width="328.597" height="222.5" transform="translate(0 0)" fill="none"/>
    </clipPath>
    <clipPath id="clip-path-2">
      <rect id="Rectángulo_36324" data-name="Rectángulo 36324" width="158.796" height="245" transform="translate(0 0)" fill="none"/>
    </clipPath>
  </defs>
  <g id="Grupo_141326" data-name="Grupo 141326" transform="translate(-804.61 -1993)">
    <path id="Trazado_144139" data-name="Trazado 144139" d="M0,0H610V606H0Z" transform="translate(810 1993)" fill="#e7f8fa"/>
    <g id="Grupo_87819" data-name="Grupo 87819" transform="translate(963.406 2072.523)">
      <g id="Grupo_87818" data-name="Grupo 87818" transform="translate(0 -0.005)" clip-path="url(#clip-path)">
        <path id="Trazado_117160" data-name="Trazado 117160" d="M1665.059,2327.474h-38.125s-.589,19.388-13.1,27.445c0,0,9.122,5.948,32.177,5.206,23.055.742,32.162-5.206,32.162-5.206-12.51-8.057-13.115-27.445-13.115-27.445" transform="translate(-1482.242 -2137.69)" fill="#3f3f3f"/>
        <path id="Trazado_117161" data-name="Trazado 117161" d="M5.35,185.142A6.593,6.593,0,0,1,0,178.863V5.414A5.435,5.435,0,0,1,5.419,0h317.76A5.435,5.435,0,0,1,328.6,5.414V178.863a6.472,6.472,0,0,1-5.362,6.2s-55.079,8-158.936,8c-109.727,0-158.949-7.918-158.949-7.918" transform="translate(0 0.005)" fill="#1e1e1e"/>
        <path id="Trazado_117162" data-name="Trazado 117162" d="M1967.834,2170.256a4.618,4.618,0,1,1-4.618-4.618,4.618,4.618,0,0,1,4.618,4.618" transform="translate(-1798.894 -1989.05)" fill="#e2dfb4"/>
        <path id="Trazado_117163" data-name="Trazado 117163" d="M1984.347,2206.971l-.111,0a2.758,2.758,0,0,1-1.937-.884,2.584,2.584,0,0,1-.694-1.87,2.641,2.641,0,0,1,1.232-2.108.057.057,0,0,1,.061.1,2.529,2.529,0,0,0-1.179,2.017,2.473,2.473,0,0,0,.664,1.789,2.646,2.646,0,0,0,1.858.848,2.6,2.6,0,0,0,2.731-2.433,2.522,2.522,0,0,0-1.234-2.254.057.057,0,0,1,.059-.1,2.636,2.636,0,0,1,1.289,2.355,2.705,2.705,0,0,1-2.738,2.544" transform="translate(-1820.022 -2022.505)" fill="#1e1e1e"/>
        <path id="Trazado_117164" data-name="Trazado 117164" d="M1981.479,2204.36h0l-.122,0a3.009,3.009,0,0,1-2.113-.966,2.838,2.838,0,0,1-.761-2.053,2.9,2.9,0,0,1,1.349-2.311.311.311,0,1,1,.335.525,2.272,2.272,0,0,0-1.062,1.812,2.217,2.217,0,0,0,.6,1.606,2.393,2.393,0,0,0,1.68.766,2.341,2.341,0,0,0,2.468-2.19,2.267,2.267,0,0,0-1.111-2.025.311.311,0,0,1,.322-.533,2.89,2.89,0,0,1,1.412,2.584,2.948,2.948,0,0,1-2.992,2.789" transform="translate(-1817.154 -2019.639)" fill="#1e1e1e"/>
        <path id="Trazado_117165" data-name="Trazado 117165" d="M2014.5,2185.708a.057.057,0,0,1-.057-.057v-3.308a.057.057,0,0,1,.113,0v3.308a.057.057,0,0,1-.057.057" transform="translate(-1850.189 -2004.34)" fill="#1e1e1e"/>
        <path id="Trazado_117166" data-name="Trazado 117166" d="M2011.637,2183.095a.312.312,0,0,1-.311-.312v-3.308a.311.311,0,1,1,.622,0v3.308a.311.311,0,0,1-.311.312" transform="translate(-1847.321 -2001.473)" fill="#1e1e1e"/>
        <rect id="Rectángulo_36312" data-name="Rectángulo 36312" width="319.211" height="168.099" transform="translate(4.693 5.072)" fill="#fff"/>
        <path id="Trazado_117167" data-name="Trazado 117167" d="M1208.189,2597.824H1063.98a5.336,5.336,0,1,0,0,10.671h144.209a5.336,5.336,0,1,0,0-10.671" transform="translate(-972.321 -2385.995)" fill="#1e1e1e"/>
        <rect id="Rectángulo_36313" data-name="Rectángulo 36313" width="319.211" height="168.099" transform="translate(4.693 5.072)" fill="#d55447"/>
        <path id="Trazado_117168" data-name="Trazado 117168" d="M1958.268,821.13l-41.8,24.134V797Z" transform="translate(-1760.197 -732.008)" fill="#e2dfb4"/>
        <rect id="Rectángulo_36314" data-name="Rectángulo 36314" width="319.211" height="16.284" transform="translate(4.693 4.909)" fill="#3f3f3f"/>
        <rect id="Rectángulo_36315" data-name="Rectángulo 36315" width="319.211" height="19.703" transform="translate(4.693 153.547)" fill="#3f3f3f"/>
        <path id="Trazado_117169" data-name="Trazado 117169" d="M1630.582,662.07a41.982,41.982,0,1,1,41.982-41.982,42.03,42.03,0,0,1-41.982,41.982m0-81.788a39.806,39.806,0,1,0,39.806,39.806,39.851,39.851,0,0,0-39.806-39.806" transform="translate(-1459.064 -530.967)" fill="#e2dfb4"/>
        <rect id="Rectángulo_36316" data-name="Rectángulo 36316" width="110.019" height="3.634" transform="translate(35.361 161.542)" fill="#d55447"/>
        <rect id="Rectángulo_36317" data-name="Rectángulo 36317" width="168.953" height="3.634" transform="translate(148.428 161.542)" fill="#e2dfb4"/>
        <rect id="Rectángulo_36318" data-name="Rectángulo 36318" width="1.775" height="4.915" transform="translate(16.166 160.85)" fill="#e2dfb4"/>
        <rect id="Rectángulo_36319" data-name="Rectángulo 36319" width="1.775" height="4.915" transform="translate(18.782 160.85)" fill="#e2dfb4"/>
        <rect id="Rectángulo_36320" data-name="Rectángulo 36320" width="3.048" height="8.439" transform="translate(145.38 159.139)" fill="#e2dfb4"/>
        <path id="Trazado_117170" data-name="Trazado 117170" d="M3488.631,125.576a3.149,3.149,0,1,1-3.149-3.15,3.149,3.149,0,0,1,3.149,3.15" transform="translate(-3198.38 -112.443)" fill="#e2dfb4"/>
        <path id="Trazado_117171" data-name="Trazado 117171" d="M3642.8,125.576a3.15,3.15,0,1,1-3.149-3.15,3.15,3.15,0,0,1,3.149,3.15" transform="translate(-3339.979 -112.443)" fill="#e2dfb4"/>
        <path id="Trazado_117172" data-name="Trazado 117172" d="M3796.972,125.576a3.149,3.149,0,1,1-3.149-3.15,3.15,3.15,0,0,1,3.149,3.15" transform="translate(-3481.579 -112.443)" fill="#e2dfb4"/>
        <path id="Trazado_117173" data-name="Trazado 117173" d="M105.577,1974.956l-4.276,2.469v-4.937Z" transform="translate(-93.041 -1811.649)" fill="#e2dfb4"/>
        <rect id="Rectángulo_36321" data-name="Rectángulo 36321" width="4.833" height="4.833" transform="translate(25.103 160.891)" fill="#e2dfb4"/>
      </g>
    </g>
    <g id="Grupo_87821" data-name="Grupo 87821" transform="translate(804.61 2354.005)">
      <g id="Grupo_87820" data-name="Grupo 87820" transform="translate(0 -0.005)" clip-path="url(#clip-path-2)">
        <path id="Trazado_117174" data-name="Trazado 117174" d="M1020.791,1463.93s12.251,14.226,2.292,25.455c0,0,10.477,14.165,10.464,22.441,0,0,1.5-.118,3.36-.408,3.33-.9,4.012-1.43,4.012-1.43,3.223-.457,7.961-3.331,10.281-5.236l-3.833-5.908-16.041-24.335-2.8-26.691Z" transform="translate(-943.789 -1338.604)" fill="#b08874"/>
        <path id="Trazado_117175" data-name="Trazado 117175" d="M571.489,1603.462c6.416-8.8-1.458-25.713-1.458-25.713l.307-2.786-15.345-2.174a38.911,38.911,0,0,0-.94,5.6c.3,5.168-3.228,11.606-3.228,11.606-1.6,4.286-21.516,28.018-21.516,28.018l31.617,23.927,6.473-8.3c.931-1.272,8.13-5.436,8.13-5.436,3.081-.7,4.9-.963,4.9-.963-.366-18.062-8.935-23.78-8.935-23.78" transform="translate(-489.381 -1454.147)" fill="#cf9e76"/>
        <rect id="Rectángulo_36323" data-name="Rectángulo 36323" width="9.687" height="48.25" transform="matrix(0.604, -0.797, 0.797, 0.604, 39.833, 155.314)" fill="#fcfcfc"/>
        <path id="Trazado_117176" data-name="Trazado 117176" d="M81.419,2059.2l-44.912,59.328H0v-41.856l38.067-50.286,21.542,16.3Z" transform="translate(0 -1873.532)" fill="#30353b"/>
        <path id="Trazado_117177" data-name="Trazado 117177" d="M59.608,2041.447,2.2,2117.284H0v-42.136l37.932-50.107.135.1Z" transform="translate(0 -1872.283)" fill="#4f575e"/>
        <path id="Trazado_117178" data-name="Trazado 117178" d="M981.884,236.466l-8.671-1.615a21.3,21.3,0,0,1-17.041-24.843L990.409,26.226a9.838,9.838,0,0,1,11.473-7.87l31.212,5.814a9.838,9.838,0,0,1,7.87,11.473l-34.237,183.781a21.3,21.3,0,0,1-24.843,17.041" transform="translate(-883.708 -16.816)" fill="#2d2d2d"/>
        <path id="Trazado_117179" data-name="Trazado 117179" d="M1016.264,7.351a9.838,9.838,0,0,1,7.87,11.473L989.9,202.605a21.3,21.3,0,0,1-24.843,17.041l-8.671-1.615a21.3,21.3,0,0,1-17.041-24.843L973.579,9.406a9.838,9.838,0,0,1,11.473-7.87ZM1016.515,6,985.3.188A11.2,11.2,0,0,0,972.23,9.155L937.994,192.936a22.656,22.656,0,0,0,18.138,26.443l8.671,1.615a22.656,22.656,0,0,0,26.443-18.138l34.237-183.782A11.2,11.2,0,0,0,1016.515,6" transform="translate(-866.878 0.004)" fill="#191919"/>
        <path id="Trazado_117180" data-name="Trazado 117180" d="M1458.3,296.734l-5.1-.95a3.058,3.058,0,0,1,1.12-6.012l5.1.95a3.058,3.058,0,0,1-1.12,6.012" transform="translate(-1341.272 -267.866)" fill="#e2dfb4"/>
        <path id="Trazado_117181" data-name="Trazado 117181" d="M1651.82,332.785l-5.1-.95a3.067,3.067,0,0,1-2.446-3.566h0a3.066,3.066,0,0,1,3.566-2.446l5.1.95a3.058,3.058,0,1,1-1.12,6.012" transform="translate(-1520.193 -301.197)" fill="#e2dfb4"/>
        <path id="Trazado_117182" data-name="Trazado 117182" d="M1845.34,368.836l-5.1-.95a3.058,3.058,0,0,1,1.12-6.012l5.1.95a3.058,3.058,0,1,1-1.12,6.012" transform="translate(-1699.115 -334.529)" fill="#e2dfb4"/>
        <path id="Trazado_117183" data-name="Trazado 117183" d="M1482.8,165.243l-5.1-.95a3.057,3.057,0,0,1,1.12-6.012l5.1.95a3.058,3.058,0,1,1-1.12,6.012" transform="translate(-1363.92 -146.294)" fill="#e01d2f"/>
        <path id="Trazado_117184" data-name="Trazado 117184" d="M1433.974,427.323l-5.1-.95a3.058,3.058,0,0,1,1.12-6.012l5.1.95a3.058,3.058,0,1,1-1.12,6.012" transform="translate(-1318.779 -388.604)" fill="#e2dfb4"/>
        <path id="Trazado_117185" data-name="Trazado 117185" d="M1627.493,463.374l-5.1-.95a3.058,3.058,0,0,1,1.12-6.012l5.1.95a3.058,3.058,0,0,1-1.12,6.012" transform="translate(-1497.7 -421.936)" fill="#e2dfb4"/>
        <path id="Trazado_117186" data-name="Trazado 117186" d="M1821.012,499.425l-5.1-.95a3.058,3.058,0,0,1,1.12-6.012l5.1.95a3.057,3.057,0,1,1-1.12,6.012" transform="translate(-1676.622 -455.267)" fill="#e2dfb4"/>
        <path id="Trazado_117187" data-name="Trazado 117187" d="M1409.461,558.905l-5.1-.95a3.058,3.058,0,0,1,1.12-6.012l5.1.95a3.058,3.058,0,0,1-1.12,6.012" transform="translate(-1296.116 -510.26)" fill="#e2dfb4"/>
        <path id="Trazado_117188" data-name="Trazado 117188" d="M1602.981,594.956l-5.1-.95a3.058,3.058,0,0,1,1.12-6.012l5.1.95a3.058,3.058,0,0,1-1.12,6.012" transform="translate(-1475.037 -543.592)" fill="#e2dfb4"/>
        <path id="Trazado_117189" data-name="Trazado 117189" d="M1796.5,631.006l-5.1-.95a3.058,3.058,0,0,1,1.12-6.012l5.1.95a3.058,3.058,0,1,1-1.12,6.012" transform="translate(-1653.959 -576.922)" fill="#e2dfb4"/>
        <path id="Trazado_117190" data-name="Trazado 117190" d="M1385.412,688l-5.1-.95a3.058,3.058,0,0,1,1.12-6.012l5.1.95a3.058,3.058,0,0,1-1.12,6.012" transform="translate(-1273.88 -629.621)" fill="#e2dfb4"/>
        <path id="Trazado_117191" data-name="Trazado 117191" d="M1578.931,724.055l-5.1-.95a3.058,3.058,0,0,1,1.12-6.012l5.1.95a3.058,3.058,0,0,1-1.12,6.012" transform="translate(-1452.802 -662.952)" fill="#e2dfb4"/>
        <path id="Trazado_117192" data-name="Trazado 117192" d="M1772.45,760.106l-5.1-.95a3.058,3.058,0,0,1,1.12-6.012l5.1.95a3.058,3.058,0,0,1-1.12,6.012" transform="translate(-1631.723 -696.284)" fill="#e2dfb4"/>
        <path id="Trazado_117193" data-name="Trazado 117193" d="M1361.361,817.1l-5.1-.95a3.067,3.067,0,0,1-2.446-3.566h0a3.066,3.066,0,0,1,3.566-2.446l5.1.95a3.057,3.057,0,0,1-1.12,6.011" transform="translate(-1251.644 -748.982)" fill="#e2dfb4"/>
        <path id="Trazado_117194" data-name="Trazado 117194" d="M1198.339,1679.791l-5.1-.95a3.066,3.066,0,0,1-2.446-3.566h0a3.067,3.067,0,0,1,3.566-2.446l5.1.95a3.058,3.058,0,0,1-1.12,6.012" transform="translate(-1100.919 -1546.593)" fill="#e2dfb4"/>
        <path id="Trazado_117195" data-name="Trazado 117195" d="M1582.658,1751.385l-5.1-.95a3.066,3.066,0,0,1-2.446-3.566h0a3.066,3.066,0,0,1,3.566-2.446l5.1.95a3.058,3.058,0,0,1-1.12,6.012" transform="translate(-1456.248 -1612.787)" fill="#e2dfb4"/>
        <path id="Trazado_117196" data-name="Trazado 117196" d="M1322.454,967.27l-4.25-.792a2.548,2.548,0,0,1,.933-5.009l4.25.792a2.548,2.548,0,1,1-.933,5.009" transform="translate(-1216.844 -888.902)" fill="#e01d2f"/>
        <path id="Trazado_117197" data-name="Trazado 117197" d="M1474.891,995.667l-4.25-.792a2.555,2.555,0,0,1-2.038-2.971h0a2.555,2.555,0,0,1,2.971-2.038l4.25.792a2.548,2.548,0,0,1-.933,5.009" transform="translate(-1357.782 -915.157)" fill="#13885c"/>
        <path id="Trazado_117198" data-name="Trazado 117198" d="M1625.063,1023.643l-4.25-.792a2.555,2.555,0,0,1-2.038-2.971h0a2.555,2.555,0,0,1,2.971-2.038l4.25.792a2.548,2.548,0,0,1-.933,5.009" transform="translate(-1496.626 -941.022)" fill="#eb9f3f"/>
        <path id="Trazado_117199" data-name="Trazado 117199" d="M1775.235,1051.618l-4.25-.792a2.555,2.555,0,0,1-2.038-2.971h0a2.555,2.555,0,0,1,2.971-2.038l4.25.792a2.548,2.548,0,1,1-.933,5.009" transform="translate(-1635.47 -966.887)" fill="#6a79bb"/>
        <path id="Trazado_117200" data-name="Trazado 117200" d="M1077.294,2200.822l-4.25-.792a2.555,2.555,0,0,1-2.038-2.971h0a2.555,2.555,0,0,1,2.971-2.038l4.25.792a2.548,2.548,0,0,1-.933,5.009" transform="translate(-990.177 -2029.403)" fill="#e2dfb4"/>
        <path id="Trazado_117201" data-name="Trazado 117201" d="M1229.73,2229.219l-4.25-.792a2.548,2.548,0,0,1,.933-5.009l4.25.792a2.547,2.547,0,1,1-.933,5.009" transform="translate(-1131.114 -2055.658)" fill="#e2dfb4"/>
        <path id="Trazado_117202" data-name="Trazado 117202" d="M1215.613,2343.531l-4.25-.792a2.548,2.548,0,0,1,.933-5.009l4.25.792a2.547,2.547,0,1,1-.933,5.009" transform="translate(-1118.062 -2161.346)" fill="#e2dfb4"/>
        <path id="Trazado_117203" data-name="Trazado 117203" d="M1379.9,2257.195l-4.25-.792a2.555,2.555,0,0,1-2.038-2.971h0a2.555,2.555,0,0,1,2.971-2.038l4.25.792a2.548,2.548,0,0,1-.933,5.009" transform="translate(-1269.958 -2081.524)" fill="#e2dfb4"/>
        <path id="Trazado_117204" data-name="Trazado 117204" d="M1530.075,2285.17l-4.25-.792a2.547,2.547,0,1,1,.933-5.009l4.25.792a2.547,2.547,0,1,1-.933,5.009" transform="translate(-1408.803 -2107.388)" fill="#e2dfb4"/>
        <path id="Trazado_117205" data-name="Trazado 117205" d="M1062.429,2314.319l-3.851-.717a2.623,2.623,0,0,1,.961-5.156l3.851.718a2.622,2.622,0,1,1-.961,5.156m-3.005-5.256a1.994,1.994,0,0,0-.73,3.92l3.851.718a1.994,1.994,0,0,0,.73-3.92Z" transform="translate(-976.746 -2134.269)" fill="#e2dfb4"/>
        <path id="Trazado_117206" data-name="Trazado 117206" d="M1340.429,2066.58l-3.851-.718a2.623,2.623,0,0,1,.961-5.156l3.851.717a2.623,2.623,0,0,1-.961,5.157m-3.005-5.256a1.994,1.994,0,1,0-.73,3.92l3.851.717a1.994,1.994,0,0,0,.73-3.92Z" transform="translate(-1233.775 -1905.218)" fill="#e2dfb4"/>
        <path id="Trazado_117207" data-name="Trazado 117207" d="M1388.965,1802.6l-3.851-.718a2.622,2.622,0,1,1,.961-5.156l3.851.717a2.623,2.623,0,0,1-.961,5.156m-3.005-5.256a1.994,1.994,0,1,0-.73,3.92l3.851.717a1.994,1.994,0,1,0,.73-3.92Z" transform="translate(-1278.649 -1661.148)" fill="#e2dfb4"/>
        <path id="Trazado_117208" data-name="Trazado 117208" d="M1192.168,2453.233l-3.851-.717a2.623,2.623,0,1,1,.961-5.156l3.851.718a2.622,2.622,0,1,1-.961,5.156m-3.005-5.256a1.994,1.994,0,0,0-.73,3.92l3.851.717a1.994,1.994,0,0,0,.73-3.92Z" transform="translate(-1096.697 -2262.705)" fill="#e2dfb4"/>
        <path id="Trazado_117209" data-name="Trazado 117209" d="M1363.225,2370.354l-3.851-.717a2.623,2.623,0,0,1,.961-5.156l3.851.717a2.623,2.623,0,1,1-.961,5.156m-3.005-5.256a1.994,1.994,0,0,0-.73,3.92l3.851.717a1.994,1.994,0,0,0,.73-3.92Z" transform="translate(-1254.851 -2186.077)" fill="#e2dfb4"/>
        <path id="Trazado_117210" data-name="Trazado 117210" d="M1513.623,2398.372l-3.851-.717a2.623,2.623,0,0,1,.961-5.157l3.851.717a2.623,2.623,0,0,1-.961,5.157m-3.005-5.256a1.994,1.994,0,1,0-.73,3.92l3.851.717a1.994,1.994,0,1,0,.73-3.92Z" transform="translate(-1393.903 -2211.981)" fill="#e2dfb4"/>
        <path id="Trazado_117211" data-name="Trazado 117211" d="M1041.771,2425.215l-3.851-.717a2.623,2.623,0,1,1,.96-5.156l3.851.717a2.623,2.623,0,0,1-.961,5.156m-3.005-5.256a1.994,1.994,0,0,0-.73,3.92l3.851.718a1.994,1.994,0,0,0,.73-3.92Z" transform="translate(-957.645 -2236.8)" fill="#e2dfb4"/>
        <path id="Trazado_117212" data-name="Trazado 117212" d="M1342.567,2481.25l-3.851-.717a2.623,2.623,0,1,1,.96-5.156l3.851.717a2.623,2.623,0,1,1-.961,5.156m-3.005-5.256a1.994,1.994,0,1,0-.73,3.92l3.851.717a1.994,1.994,0,1,0,.73-3.92Z" transform="translate(-1235.751 -2288.608)" fill="#e2dfb4"/>
        <path id="Trazado_117213" data-name="Trazado 117213" d="M1492.965,2509.268l-3.851-.718a2.623,2.623,0,0,1,.961-5.156l3.851.717a2.623,2.623,0,1,1-.96,5.157m-3.005-5.256a1.994,1.994,0,1,0-.73,3.92l3.851.717a1.994,1.994,0,0,0,.73-3.92Z" transform="translate(-1374.804 -2314.512)" fill="#e2dfb4"/>
        <path id="Trazado_117214" data-name="Trazado 117214" d="M1133.642,1828.857l2.208-11.852a4.808,4.808,0,1,1,9.454,1.761l-2.208,11.852a4.808,4.808,0,0,1-9.454-1.761" transform="translate(-1048.052 -1676.31)" fill="#e2dfb4"/>
        <path id="Trazado_117215" data-name="Trazado 117215" d="M1537.872,1904.161l2.208-11.852a4.808,4.808,0,1,1,9.454,1.761l-2.208,11.852a4.808,4.808,0,1,1-9.454-1.761" transform="translate(-1421.79 -1745.934)" fill="#e2dfb4"/>
        <path id="Trazado_117216" data-name="Trazado 117216" d="M1554.88,853.154l-5.1-.95a3.058,3.058,0,1,1,1.12-6.012l5.1.95a3.058,3.058,0,1,1-1.12,6.012" transform="translate(-1430.565 -782.313)" fill="#e2dfb4"/>
        <path id="Trazado_117217" data-name="Trazado 117217" d="M1748.4,889.205l-5.1-.95a3.058,3.058,0,1,1,1.12-6.012l5.1.95a3.058,3.058,0,1,1-1.12,6.012" transform="translate(-1609.487 -815.645)" fill="#e2dfb4"/>
        <path id="Trazado_117218" data-name="Trazado 117218" d="M1442.233,1154.026c-2.683-3.522-9.087-4.87-9.087-4.87s-6.46-1.048-10.231,1.271a1.854,1.854,0,0,0-.886,1.688c0,.011,0,.021,0,.032a1.339,1.339,0,0,0,.2.609l3.025,4.861a2.576,2.576,0,0,0,3.107,1.061l.095-.039a4.08,4.08,0,0,1,1.656-.341,16.37,16.37,0,0,1,2.565.478,4.085,4.085,0,0,1,1.422.914l.074.07a2.575,2.575,0,0,0,3.281.129l4.573-3.446a1.342,1.342,0,0,0,.407-.5l.014-.029a1.855,1.855,0,0,0-.219-1.894" transform="translate(-1314.757 -1062.252)" fill="#e2dfb4"/>
        <path id="Trazado_117219" data-name="Trazado 117219" d="M1354.06,1493.423c2.683,3.522,9.087,4.87,9.087,4.87s6.46,1.048,10.231-1.271a1.855,1.855,0,0,0,.886-1.688c0-.011,0-.021,0-.032a1.342,1.342,0,0,0-.2-.609l-3.025-4.861a2.575,2.575,0,0,0-3.107-1.061l-.095.039a4.082,4.082,0,0,1-1.656.341,16.386,16.386,0,0,1-2.565-.478,4.084,4.084,0,0,1-1.422-.914l-.074-.07a2.575,2.575,0,0,0-3.281-.129l-4.573,3.446a1.339,1.339,0,0,0-.407.5l-.014.029a1.854,1.854,0,0,0,.219,1.894" transform="translate(-1251.563 -1374.859)" fill="#e2dfb4"/>
        <path id="Trazado_117220" data-name="Trazado 117220" d="M1283.386,1225.879c-3.522,2.683-4.87,9.087-4.87,9.087s-1.048,6.46,1.271,10.231a1.854,1.854,0,0,0,1.688.886l.032,0a1.343,1.343,0,0,0,.609-.2l4.861-3.025a2.575,2.575,0,0,0,1.061-3.107c-.012-.031-.025-.063-.039-.095a4.083,4.083,0,0,1-.341-1.656,16.372,16.372,0,0,1,.478-2.565,4.083,4.083,0,0,1,.914-1.422l.07-.074a2.575,2.575,0,0,0,.129-3.281l-3.446-4.573a1.34,1.34,0,0,0-.5-.407l-.029-.014a1.855,1.855,0,0,0-1.894.219" transform="translate(-1181.854 -1133.051)" fill="#e2dfb4"/>
        <path id="Trazado_117221" data-name="Trazado 117221" d="M1626.054,1314.662c3.522-2.683,4.87-9.087,4.87-9.087s1.048-6.46-1.271-10.231a1.854,1.854,0,0,0-1.688-.886l-.032,0a1.34,1.34,0,0,0-.609.2l-4.861,3.025a2.576,2.576,0,0,0-1.061,3.107c.012.031.025.063.039.095a4.077,4.077,0,0,1,.341,1.656,16.37,16.37,0,0,1-.478,2.565,4.086,4.086,0,0,1-.914,1.422l-.07.075a2.575,2.575,0,0,0-.129,3.281l3.446,4.573a1.343,1.343,0,0,0,.5.407l.029.014a1.854,1.854,0,0,0,1.894-.219" transform="translate(-1497.485 -1196.809)" fill="#e2dfb4"/>
        <path id="Trazado_117222" data-name="Trazado 117222" d="M1468.243,1334.877a5.11,5.11,0,1,1-4.088-5.96,5.111,5.111,0,0,1,4.088,5.96" transform="translate(-1348.117 -1228.591)" fill="#e01d2f"/>
        <path id="Trazado_117223" data-name="Trazado 117223" d="M1367.924,1906.19a4.654,4.654,0,1,1-3.723-5.427,4.654,4.654,0,0,1,3.723,5.427" transform="translate(-1256.203 -1757.307)" fill="#e2dfb4"/>
        <path id="Trazado_117224" data-name="Trazado 117224" d="M1527.332,190.925l-.069-.014a1.749,1.749,0,0,1-1.1-.776,1.639,1.639,0,0,1-.215-1.246,1.674,1.674,0,0,1,1.012-1.171.036.036,0,0,1,.027.067,1.6,1.6,0,0,0-.969,1.12,1.568,1.568,0,0,0,.206,1.192,1.678,1.678,0,0,0,1.059.744,1.646,1.646,0,0,0,1.985-1.2,1.6,1.6,0,0,0-.507-1.548.036.036,0,0,1,.048-.054,1.671,1.671,0,0,1,.53,1.618,1.715,1.715,0,0,1-2,1.268" transform="translate(-1410.798 -173.555)" fill="#fff"/>
        <path id="Trazado_117225" data-name="Trazado 117225" d="M1523.776,187.7h0l-.08-.017a2.032,2.032,0,0,1-1.283-.9,1.924,1.924,0,0,1-.252-1.462,1.961,1.961,0,0,1,1.184-1.372.322.322,0,0,1,.419.178.321.321,0,0,1-.178.418,1.317,1.317,0,0,0-.8.919,1.283,1.283,0,0,0,.169.976,1.394,1.394,0,0,0,.881.617,1.36,1.36,0,0,0,1.643-.985,1.312,1.312,0,0,0-.419-1.27.322.322,0,0,1,.428-.481,1.956,1.956,0,0,1,.618,1.9,1.993,1.993,0,0,1-2.333,1.485" transform="translate(-1407.294 -170.054)" fill="#fff"/>
        <path id="Trazado_117226" data-name="Trazado 117226" d="M1549.256,178.511a.036.036,0,0,1-.029-.042l.384-2.062a.036.036,0,0,1,.071.013l-.384,2.062a.036.036,0,0,1-.042.029" transform="translate(-1432.363 -163.072)" fill="#fff"/>
        <path id="Trazado_117227" data-name="Trazado 117227" d="M1545.7,175.289a.322.322,0,0,1-.257-.375l.384-2.062a.322.322,0,1,1,.632.118l-.384,2.062a.322.322,0,0,1-.375.257" transform="translate(-1428.861 -159.57)" fill="#fff"/>
        <path id="Trazado_117228" data-name="Trazado 117228" d="M1259.948,2364.63a1,1,0,1,1-.8-1.166,1,1,0,0,1,.8,1.166" transform="translate(-1163.072 -2185.163)" fill="#e01d2f"/>
        <path id="Trazado_117229" data-name="Trazado 117229" d="M1526.274,1204.619l2.531-.894,2.039,1.745Z" transform="translate(-1411.142 -1112.924)" fill="#020202"/>
        <path id="Trazado_117230" data-name="Trazado 117230" d="M1338.732,1333.706l-.894-2.531,1.745-2.039Z" transform="translate(-1236.921 -1228.875)" fill="#020202"/>
        <path id="Trazado_117231" data-name="Trazado 117231" d="M1689.576,1397.691l.894,2.531-1.745,2.039Z" transform="translate(-1561.338 -1292.258)" fill="#020202"/>
        <path id="Trazado_117232" data-name="Trazado 117232" d="M1466.753,1560.46l-2.531.894-2.039-1.745Z" transform="translate(-1351.886 -1441.961)" fill="#020202"/>
        <path id="Trazado_117233" data-name="Trazado 117233" d="M884.266,1123.967h0A29.331,29.331,0,0,1,894.142,1109c10.563-11.037,2.877-20.413,2.877-20.413-2.489-4.472-7.6,3.214-7.6,3.214a33.631,33.631,0,0,1-8.739,9.7,25.915,25.915,0,0,0-7,8.426,62.126,62.126,0,0,0-5.066,14.287l15.384,2.242Z" transform="translate(-803.087 -1005.174)" fill="#cf9e76"/>
      </g>
    </g>
    <path id="Trazado_117236" data-name="Trazado 117236" d="M-3618.984-9163.75v-200.4h307.042v-232.957" transform="translate(4648.5 11700)" fill="none" stroke="#1b9ce2" stroke-width="3"/>
    <path id="Trazado_144140" data-name="Trazado 144140" d="M22,0H134a22,22,0,0,1,22,22v1a22,22,0,0,1-22,22H22A22,22,0,0,1,0,23V22A22,22,0,0,1,22,0Z" transform="translate(951.016 2536.25)" fill="#1565c0"/>
    <path id="Trazado_144141" data-name="Trazado 144141" d="M22,0H134a22,22,0,0,1,22,22v1a22,22,0,0,1-22,22H22A22,22,0,0,1,0,23V22A22,22,0,0,1,22,0Z" transform="translate(1258.008 2272.518)" fill="#1565c0"/>
    <path id="Trazado_144151" data-name="Trazado 144151" d="M22,0H134a22,22,0,0,1,22,22v1a22,22,0,0,1-22,22H22A22,22,0,0,1,0,23V22A22,22,0,0,1,22,0Z" transform="translate(1258.008 2072.518)" fill="#1565c0"/>
    <path id="Trazado_144142" data-name="Trazado 144142" d="M22,0H134a22,22,0,0,1,22,22v1a22,22,0,0,1-22,22H22A22,22,0,0,1,0,23V22A22,22,0,0,1,22,0Z" transform="translate(951.016 2426.827)" fill="#1565c0"/>
    <path id="Trazado_144143" data-name="Trazado 144143" d="M9.313,16.6a7.388,7.388,0,0,1-3.2.594A5.4,5.4,0,0,1,2.055,15.68,5.54,5.54,0,0,1,.578,11.641a5.919,5.919,0,0,1,1.66-4.359A5.807,5.807,0,0,1,6.547,5.609a8.058,8.058,0,0,1,2.766.414v2.43A4.9,4.9,0,0,0,6.75,7.781,3.4,3.4,0,0,0,4.2,8.773a3.682,3.682,0,0,0-.969,2.688,3.611,3.611,0,0,0,.914,2.59,3.229,3.229,0,0,0,2.461.965,5.249,5.249,0,0,0,2.7-.719Zm4.18.4H11.023V5.156h2.469ZM16.82,7.734A1.442,1.442,0,0,1,15.8,7.363a1.2,1.2,0,0,1-.4-.91,1.153,1.153,0,0,1,.4-.906,1.671,1.671,0,0,1,2.051,0,1.158,1.158,0,0,1,.395.906,1.191,1.191,0,0,1-.395.922A1.466,1.466,0,0,1,16.82,7.734ZM18.039,17H15.57V9h2.469ZM27.3,13.7H22.086q.125,1.742,2.2,1.742a4.286,4.286,0,0,0,2.32-.625V16.6a6.1,6.1,0,0,1-2.883.594,4.058,4.058,0,0,1-3.008-1.074,4.058,4.058,0,0,1-1.07-3A4.281,4.281,0,0,1,20.8,9.969,3.852,3.852,0,0,1,23.641,8.8a3.5,3.5,0,0,1,2.707,1.039,4,4,0,0,1,.957,2.82Zm-2.289-1.516q0-1.719-1.391-1.719a1.328,1.328,0,0,0-1.027.492,2.234,2.234,0,0,0-.527,1.227ZM36.5,17H34.039V12.555q0-1.859-1.328-1.859a1.318,1.318,0,0,0-1.055.492,1.875,1.875,0,0,0-.414,1.25V17H28.773V9h2.469v1.266h.031A2.829,2.829,0,0,1,33.844,8.8q2.656,0,2.656,3.3Zm6.789-.094a3.649,3.649,0,0,1-1.648.289q-2.609,0-2.609-2.711V10.82h-1.3V9h1.3V7.273l2.461-.7V9h1.8v1.82h-1.8v3.234q0,1.25.992,1.25a1.673,1.673,0,0,0,.8-.227ZM51.8,13.7H46.586q.125,1.742,2.2,1.742a4.286,4.286,0,0,0,2.32-.625V16.6a6.1,6.1,0,0,1-2.883.594,4.058,4.058,0,0,1-3.008-1.074,4.058,4.058,0,0,1-1.07-3A4.281,4.281,0,0,1,45.3,9.969,3.852,3.852,0,0,1,48.141,8.8a3.5,3.5,0,0,1,2.707,1.039,4,4,0,0,1,.957,2.82Zm-2.289-1.516q0-1.719-1.391-1.719a1.328,1.328,0,0,0-1.027.492,2.234,2.234,0,0,0-.527,1.227Z" transform="translate(1002.016 2548.25)" fill="#fff"/>
    <path id="Trazado_144144" data-name="Trazado 144144" d="M3.8,17H1.281V5.8H3.8Zm10.031,0H11.375V12.555q0-1.859-1.328-1.859a1.318,1.318,0,0,0-1.055.492,1.875,1.875,0,0,0-.414,1.25V17H6.109V9H8.578v1.266h.031A2.829,2.829,0,0,1,11.18,8.8q2.656,0,2.656,3.3Zm9.57-8L20.43,17H17.617L14.781,9h2.641l1.391,4.93a7.2,7.2,0,0,1,.273,1.422h.031a8.069,8.069,0,0,1,.289-1.375L20.828,9Zm4.711,8.2a4.3,4.3,0,0,1-3.145-1.121,4.064,4.064,0,0,1-1.145-3.043,4.065,4.065,0,0,1,1.188-3.105A4.487,4.487,0,0,1,28.227,8.8a4.249,4.249,0,0,1,3.125,1.121,3.985,3.985,0,0,1,1.133,2.965,4.23,4.23,0,0,1-1.168,3.148A4.348,4.348,0,0,1,28.117,17.2Zm.063-6.5a1.647,1.647,0,0,0-1.359.6,2.653,2.653,0,0,0-.484,1.7q0,2.3,1.859,2.3,1.773,0,1.773-2.367Q29.969,10.7,28.18,10.7ZM42.1,17H39.141l-2.555-3.969h-.031V17H34.086V5.156h2.469V12.7h.031L38.969,9H41.9l-2.867,3.758Zm7.891-3.3H44.773q.125,1.742,2.2,1.742a4.286,4.286,0,0,0,2.32-.625V16.6a6.1,6.1,0,0,1-2.883.594A4.058,4.058,0,0,1,43.4,16.121a4.058,4.058,0,0,1-1.07-3,4.281,4.281,0,0,1,1.156-3.156A3.852,3.852,0,0,1,46.328,8.8a3.5,3.5,0,0,1,2.707,1.039,4,4,0,0,1,.957,2.82ZM47.7,12.188q0-1.719-1.391-1.719a1.328,1.328,0,0,0-1.027.492,2.234,2.234,0,0,0-.527,1.227Zm8.977-.961a2.142,2.142,0,0,0-1.039-.242,1.5,1.5,0,0,0-1.258.59,2.573,2.573,0,0,0-.453,1.605V17H51.461V9H53.93v1.484h.031A2.136,2.136,0,0,1,56.07,8.859a1.59,1.59,0,0,1,.609.094Z" transform="translate(1002.016 2438.827)" fill="#fff"/>
    <path id="Trazado_144145" data-name="Trazado 144145" d="M30,0h96a30,30,0,0,1,0,60H30A30,30,0,0,1,30,0Z" transform="translate(1046.516 2306.75)" fill="#1565c0"/>
    <path id="Trazado_144146" data-name="Trazado 144146" d="M55.43,16.008l-6.719-3.375v-.461L55.43,8.406V9.578l-5.016,2.781v.031l5.016,2.453Zm10.945,0-6.719-3.375v-.461l6.719-3.766V9.578l-5.016,2.781v.031l5.016,2.453ZM71.258,17H69.945V5.8h1.313Zm9.414,0H79.391V12.438q0-2.547-1.859-2.547a2.017,2.017,0,0,0-1.59.723,2.679,2.679,0,0,0-.629,1.824V17H74.031V9h1.281v1.328h.031a2.887,2.887,0,0,1,2.625-1.516,2.448,2.448,0,0,1,2.008.848,3.776,3.776,0,0,1,.7,2.449Zm6.125-.078a2.47,2.47,0,0,1-1.2.25q-2.1,0-2.1-2.344V10.094H82.125V9H83.5V7.047l1.281-.414V9H86.8v1.094H84.781V14.6a1.869,1.869,0,0,0,.273,1.148,1.091,1.091,0,0,0,.906.344,1.347,1.347,0,0,0,.836-.266Zm8.141-3.6H89.289a2.992,2.992,0,0,0,.719,2.063,2.478,2.478,0,0,0,1.891.727,3.931,3.931,0,0,0,2.484-.891v1.2a4.643,4.643,0,0,1-2.789.766A3.381,3.381,0,0,1,88.93,16.1a4.461,4.461,0,0,1-.969-3.066A4.375,4.375,0,0,1,89.02,9.988a3.394,3.394,0,0,1,2.629-1.176,3.008,3.008,0,0,1,2.43,1.016,4.234,4.234,0,0,1,.859,2.82Zm-1.312-1.086a2.607,2.607,0,0,0-.535-1.727,1.823,1.823,0,0,0-1.465-.617,2.07,2.07,0,0,0-1.539.648,2.943,2.943,0,0,0-.781,1.7Zm7.422-1.937a1.567,1.567,0,0,0-.969-.258,1.635,1.635,0,0,0-1.371.773,3.576,3.576,0,0,0-.551,2.109V17H96.875V9h1.281v1.648h.031a2.793,2.793,0,0,1,.836-1.316,1.906,1.906,0,0,1,1.258-.473,2.092,2.092,0,0,1,.766.109Zm5.344-4.016a1.707,1.707,0,0,0-.852-.211q-1.344,0-1.344,1.7V9h1.875v1.094H104.2V17h-1.273V10.094h-1.367V9h1.367V7.7a2.7,2.7,0,0,1,.727-1.988,2.453,2.453,0,0,1,1.813-.73,2.511,2.511,0,0,1,.93.141ZM113.172,17h-1.281V15.75h-.031a2.682,2.682,0,0,1-2.461,1.438,2.63,2.63,0,0,1-1.871-.633,2.192,2.192,0,0,1-.676-1.68q0-2.242,2.641-2.609l2.4-.336q0-2.039-1.648-2.039a3.938,3.938,0,0,0-2.609.984V9.563a4.958,4.958,0,0,1,2.719-.75q2.82,0,2.82,2.984Zm-1.281-4.047-1.93.266a3.133,3.133,0,0,0-1.344.441,1.273,1.273,0,0,0-.453,1.121,1.221,1.221,0,0,0,.418.957,1.615,1.615,0,0,0,1.113.371,2.056,2.056,0,0,0,1.574-.668,2.387,2.387,0,0,0,.621-1.691Zm9.273-3.586-4.734,6.539h4.688V17h-6.57v-.4l4.734-6.508h-4.289V9h6.172Zm9.2,3.266-6.719,3.375V14.844l5.031-2.437v-.047l-5.031-2.781V8.406l6.719,3.766Zm10.945,0-6.719,3.375V14.844l5.031-2.437v-.047l-5.031-2.781V8.406l6.719,3.766ZM61.125,41H59.813V29.8h1.313Zm10.57-.469a6.571,6.571,0,0,1-3.094.656,4.989,4.989,0,0,1-3.828-1.539,5.679,5.679,0,0,1-1.437-4.039,5.952,5.952,0,0,1,1.617-4.344,5.489,5.489,0,0,1,4.1-1.656,6.576,6.576,0,0,1,2.641.461v1.4a5.355,5.355,0,0,0-2.656-.672,4.076,4.076,0,0,0-3.129,1.289,4.856,4.856,0,0,0-1.2,3.445,4.621,4.621,0,0,0,1.121,3.262,3.815,3.815,0,0,0,2.941,1.215,5.518,5.518,0,0,0,2.922-.75Zm5.453.656a3.711,3.711,0,0,1-2.832-1.121,4.153,4.153,0,0,1-1.059-2.973,4.326,4.326,0,0,1,1.1-3.148,3.96,3.96,0,0,1,2.977-1.133,3.588,3.588,0,0,1,2.793,1.1,4.368,4.368,0,0,1,1,3.055,4.3,4.3,0,0,1-1.082,3.066A3.791,3.791,0,0,1,77.148,41.188Zm.094-7.3a2.437,2.437,0,0,0-1.953.84,3.449,3.449,0,0,0-.719,2.316,3.262,3.262,0,0,0,.727,2.242,2.469,2.469,0,0,0,1.945.82,2.342,2.342,0,0,0,1.91-.8,3.492,3.492,0,0,0,.668-2.289,3.552,3.552,0,0,0-.668-2.312A2.332,2.332,0,0,0,77.242,33.891ZM94.539,41H93.258V36.406a3.466,3.466,0,0,0-.41-1.922,1.555,1.555,0,0,0-1.379-.594,1.708,1.708,0,0,0-1.395.75,2.869,2.869,0,0,0-.574,1.8V41H88.219V36.25q0-2.359-1.82-2.359a1.686,1.686,0,0,0-1.391.707,2.923,2.923,0,0,0-.547,1.84V41H83.18V33h1.281v1.266h.031a2.718,2.718,0,0,1,2.484-1.453,2.311,2.311,0,0,1,2.266,1.656A2.855,2.855,0,0,1,91.9,32.813q2.641,0,2.641,3.258Zm8.148,0h-1.281V39.75h-.031a2.682,2.682,0,0,1-2.461,1.438,2.63,2.63,0,0,1-1.871-.633,2.192,2.192,0,0,1-.676-1.68q0-2.242,2.641-2.609l2.4-.336q0-2.039-1.648-2.039a3.938,3.938,0,0,0-2.609.984V33.563a4.958,4.958,0,0,1,2.719-.75q2.82,0,2.82,2.984Zm-1.281-4.047-1.93.266a3.133,3.133,0,0,0-1.344.441,1.273,1.273,0,0,0-.453,1.121,1.221,1.221,0,0,0,.418.957,1.615,1.615,0,0,0,1.113.371,2.056,2.056,0,0,0,1.574-.668,2.387,2.387,0,0,0,.621-1.691ZM111.742,41h-1.281V36.438q0-2.547-1.859-2.547a2.017,2.017,0,0,0-1.59.723,2.679,2.679,0,0,0-.629,1.824V41H105.1V33h1.281v1.328h.031a2.887,2.887,0,0,1,2.625-1.516,2.448,2.448,0,0,1,2.008.848,3.776,3.776,0,0,1,.7,2.449Zm9.242,0H119.7V39.641h-.031a2.958,2.958,0,0,1-2.75,1.547,2.988,2.988,0,0,1-2.41-1.074,4.407,4.407,0,0,1-.9-2.926,4.794,4.794,0,0,1,1-3.18,3.3,3.3,0,0,1,2.664-1.2,2.564,2.564,0,0,1,2.4,1.3h.031V29.156h1.281ZM119.7,37.383V36.2a2.289,2.289,0,0,0-.641-1.641,2.149,2.149,0,0,0-1.625-.672,2.212,2.212,0,0,0-1.844.859,3.766,3.766,0,0,0-.672,2.375,3.387,3.387,0,0,0,.645,2.184,2.107,2.107,0,0,0,1.73.8,2.188,2.188,0,0,0,1.738-.773A2.882,2.882,0,0,0,119.7,37.383Zm7.219,3.8a3.711,3.711,0,0,1-2.832-1.121,4.153,4.153,0,0,1-1.059-2.973,4.326,4.326,0,0,1,1.1-3.148,3.96,3.96,0,0,1,2.977-1.133,3.588,3.588,0,0,1,2.793,1.1,4.368,4.368,0,0,1,1,3.055,4.3,4.3,0,0,1-1.082,3.066A3.791,3.791,0,0,1,126.922,41.188Zm.094-7.3a2.437,2.437,0,0,0-1.953.84,3.449,3.449,0,0,0-.719,2.316,3.262,3.262,0,0,0,.727,2.242,2.469,2.469,0,0,0,1.945.82,2.342,2.342,0,0,0,1.91-.8,3.492,3.492,0,0,0,.668-2.289,3.552,3.552,0,0,0-.668-2.312A2.332,2.332,0,0,0,127.016,33.891Z" transform="translate(1029.516 2311.75)" fill="#fff"/>
    <path id="Trazado_144147" data-name="Trazado 144147" d="M9.094,16.531A6.571,6.571,0,0,1,6,17.188a4.989,4.989,0,0,1-3.828-1.539A5.679,5.679,0,0,1,.734,11.609,5.952,5.952,0,0,1,2.352,7.266a5.489,5.489,0,0,1,4.1-1.656,6.576,6.576,0,0,1,2.641.461v1.4A5.355,5.355,0,0,0,6.438,6.8,4.076,4.076,0,0,0,3.309,8.086a4.856,4.856,0,0,0-1.2,3.445A4.621,4.621,0,0,0,3.23,14.793a3.815,3.815,0,0,0,2.941,1.215,5.518,5.518,0,0,0,2.922-.75Zm5.453.656a3.711,3.711,0,0,1-2.832-1.121,4.153,4.153,0,0,1-1.059-2.973,4.326,4.326,0,0,1,1.1-3.148,3.96,3.96,0,0,1,2.977-1.133,3.588,3.588,0,0,1,2.793,1.1,4.368,4.368,0,0,1,1,3.055,4.3,4.3,0,0,1-1.082,3.066A3.791,3.791,0,0,1,14.547,17.188Zm.094-7.3a2.437,2.437,0,0,0-1.953.84,3.449,3.449,0,0,0-.719,2.316,3.262,3.262,0,0,0,.727,2.242,2.469,2.469,0,0,0,1.945.82,2.342,2.342,0,0,0,1.91-.8,3.492,3.492,0,0,0,.668-2.289,3.552,3.552,0,0,0-.668-2.312A2.332,2.332,0,0,0,14.641,9.891ZM31.938,17H30.656V12.406a3.466,3.466,0,0,0-.41-1.922,1.555,1.555,0,0,0-1.379-.594,1.708,1.708,0,0,0-1.395.75,2.869,2.869,0,0,0-.574,1.8V17H25.617V12.25q0-2.359-1.82-2.359a1.686,1.686,0,0,0-1.391.707,2.923,2.923,0,0,0-.547,1.84V17H20.578V9h1.281v1.266h.031a2.718,2.718,0,0,1,2.484-1.453,2.311,2.311,0,0,1,2.266,1.656A2.855,2.855,0,0,1,29.3,8.813q2.641,0,2.641,3.258Zm8.148,0H38.8V15.75h-.031a2.682,2.682,0,0,1-2.461,1.438,2.63,2.63,0,0,1-1.871-.633,2.192,2.192,0,0,1-.676-1.68q0-2.242,2.641-2.609l2.4-.336q0-2.039-1.648-2.039a3.938,3.938,0,0,0-2.609.984V9.563a4.958,4.958,0,0,1,2.719-.75q2.82,0,2.82,2.984ZM38.8,12.953l-1.93.266a3.133,3.133,0,0,0-1.344.441,1.273,1.273,0,0,0-.453,1.121,1.221,1.221,0,0,0,.418.957,1.615,1.615,0,0,0,1.113.371,2.056,2.056,0,0,0,1.574-.668A2.387,2.387,0,0,0,38.8,13.75ZM49.141,17H47.859V12.438q0-2.547-1.859-2.547a2.017,2.017,0,0,0-1.59.723,2.679,2.679,0,0,0-.629,1.824V17H42.5V9h1.281v1.328h.031a2.887,2.887,0,0,1,2.625-1.516,2.448,2.448,0,0,1,2.008.848,3.776,3.776,0,0,1,.7,2.449Zm9.242,0H57.1V15.641H57.07a2.958,2.958,0,0,1-2.75,1.547,2.988,2.988,0,0,1-2.41-1.074,4.407,4.407,0,0,1-.9-2.926,4.794,4.794,0,0,1,1-3.18,3.3,3.3,0,0,1,2.664-1.2,2.564,2.564,0,0,1,2.4,1.3H57.1V5.156h1.281ZM57.1,13.383V12.2a2.289,2.289,0,0,0-.641-1.641,2.149,2.149,0,0,0-1.625-.672,2.212,2.212,0,0,0-1.844.859,3.766,3.766,0,0,0-.672,2.375,3.387,3.387,0,0,0,.645,2.184,2.107,2.107,0,0,0,1.73.8,2.188,2.188,0,0,0,1.738-.773A2.882,2.882,0,0,0,57.1,13.383Zm7.219,3.8a3.711,3.711,0,0,1-2.832-1.121,4.153,4.153,0,0,1-1.059-2.973,4.326,4.326,0,0,1,1.1-3.148,3.96,3.96,0,0,1,2.977-1.133,3.588,3.588,0,0,1,2.793,1.1,4.368,4.368,0,0,1,1,3.055,4.3,4.3,0,0,1-1.082,3.066A3.791,3.791,0,0,1,64.32,17.188Zm.094-7.3a2.437,2.437,0,0,0-1.953.84,3.449,3.449,0,0,0-.719,2.316,3.262,3.262,0,0,0,.727,2.242,2.469,2.469,0,0,0,1.945.82,2.342,2.342,0,0,0,1.91-.8,3.492,3.492,0,0,0,.668-2.289,3.552,3.552,0,0,0-.668-2.312A2.332,2.332,0,0,0,64.414,9.891Z" transform="translate(1304.992 2284.69)" fill="#fff"/>
    <path id="Trazado_144152" data-name="Trazado 144152" d="M9.5,17H7.938L6.063,13.859a6.84,6.84,0,0,0-.5-.746,2.85,2.85,0,0,0-.5-.5,1.718,1.718,0,0,0-.547-.285,2.249,2.249,0,0,0-.66-.09H2.781V17H1.469V5.8H4.813a4.765,4.765,0,0,1,1.355.184,3.033,3.033,0,0,1,1.078.559,2.6,2.6,0,0,1,.715.934,3.1,3.1,0,0,1,.258,1.309,3.151,3.151,0,0,1-.176,1.074,2.805,2.805,0,0,1-.5.871,3.031,3.031,0,0,1-.781.652,3.988,3.988,0,0,1-1.027.418v.031a2.363,2.363,0,0,1,.488.285,2.687,2.687,0,0,1,.395.379,5.019,5.019,0,0,1,.371.5q.184.277.41.645ZM2.781,6.984v4.063H4.563a2.7,2.7,0,0,0,.91-.148,2.107,2.107,0,0,0,.723-.426,1.931,1.931,0,0,0,.477-.68,2.275,2.275,0,0,0,.172-.9,1.756,1.756,0,0,0-.582-1.4,2.5,2.5,0,0,0-1.684-.5ZM16.828,13.32H11.18a2.992,2.992,0,0,0,.719,2.063,2.478,2.478,0,0,0,1.891.727,3.931,3.931,0,0,0,2.484-.891v1.2a4.643,4.643,0,0,1-2.789.766A3.381,3.381,0,0,1,10.82,16.1a4.461,4.461,0,0,1-.969-3.066A4.375,4.375,0,0,1,10.91,9.988a3.394,3.394,0,0,1,2.629-1.176,3.008,3.008,0,0,1,2.43,1.016,4.234,4.234,0,0,1,.859,2.82Zm-1.312-1.086a2.607,2.607,0,0,0-.535-1.727,1.823,1.823,0,0,0-1.465-.617,2.07,2.07,0,0,0-1.539.648,2.943,2.943,0,0,0-.781,1.7Zm8.7,4.4a4.163,4.163,0,0,1-2.187.555,3.622,3.622,0,0,1-2.762-1.113,4.035,4.035,0,0,1-1.051-2.887,4.435,4.435,0,0,1,1.133-3.176,3.963,3.963,0,0,1,3.023-1.2,4.209,4.209,0,0,1,1.859.391v1.313a3.258,3.258,0,0,0-1.906-.625,2.576,2.576,0,0,0-2.012.879,3.335,3.335,0,0,0-.785,2.309A3.176,3.176,0,0,0,20.27,15.3a2.545,2.545,0,0,0,1.98.813,3.211,3.211,0,0,0,1.969-.7Zm8.367-3.312H26.938a2.992,2.992,0,0,0,.719,2.063,2.478,2.478,0,0,0,1.891.727,3.931,3.931,0,0,0,2.484-.891v1.2a4.643,4.643,0,0,1-2.789.766,3.381,3.381,0,0,1-2.664-1.09,4.461,4.461,0,0,1-.969-3.066,4.375,4.375,0,0,1,1.059-3.043A3.394,3.394,0,0,1,29.3,8.813a3.008,3.008,0,0,1,2.43,1.016,4.234,4.234,0,0,1,.859,2.82Zm-1.312-1.086a2.607,2.607,0,0,0-.535-1.727,1.823,1.823,0,0,0-1.465-.617,2.07,2.07,0,0,0-1.539.648,2.943,2.943,0,0,0-.781,1.7Zm4.563,3.609H35.8V20.68H34.523V9H35.8v1.406h.031A3.03,3.03,0,0,1,38.6,8.813a2.93,2.93,0,0,1,2.414,1.074,4.449,4.449,0,0,1,.867,2.879,4.959,4.959,0,0,1-.977,3.215,3.251,3.251,0,0,1-2.672,1.207A2.676,2.676,0,0,1,35.836,15.844ZM35.8,12.617v1.117a2.379,2.379,0,0,0,.645,1.684,2.3,2.3,0,0,0,3.461-.2,4.086,4.086,0,0,0,.66-2.477,3.225,3.225,0,0,0-.617-2.094,2.043,2.043,0,0,0-1.672-.758,2.27,2.27,0,0,0-1.8.777A2.854,2.854,0,0,0,35.8,12.617Zm11.836,4.3a2.47,2.47,0,0,1-1.2.25q-2.1,0-2.1-2.344V10.094H42.969V9h1.375V7.047l1.281-.414V9h2.016v1.094H45.625V14.6A1.869,1.869,0,0,0,45.9,15.75a1.091,1.091,0,0,0,.906.344,1.347,1.347,0,0,0,.836-.266Zm5.055.266a3.711,3.711,0,0,1-2.832-1.121A4.153,4.153,0,0,1,48.8,13.094a4.326,4.326,0,0,1,1.1-3.148,3.96,3.96,0,0,1,2.977-1.133,3.588,3.588,0,0,1,2.793,1.1,4.368,4.368,0,0,1,1,3.055A4.3,4.3,0,0,1,55.6,16.035,3.791,3.791,0,0,1,52.7,17.188Zm.094-7.3a2.437,2.437,0,0,0-1.953.84,3.449,3.449,0,0,0-.719,2.316,3.262,3.262,0,0,0,.727,2.242,2.469,2.469,0,0,0,1.945.82,2.342,2.342,0,0,0,1.91-.8,3.492,3.492,0,0,0,.668-2.289A3.552,3.552,0,0,0,54.7,10.7,2.332,2.332,0,0,0,52.789,9.891ZM62.9,10.3a1.567,1.567,0,0,0-.969-.258,1.635,1.635,0,0,0-1.371.773,3.576,3.576,0,0,0-.551,2.109V17H58.727V9h1.281v1.648h.031a2.794,2.794,0,0,1,.836-1.316,1.906,1.906,0,0,1,1.258-.473,2.092,2.092,0,0,1,.766.109Z" transform="translate(1304.992 2084.69)" fill="#fff"/>
    <path id="Trazado_144148" data-name="Trazado 144148" d="M8,0l8,14H0Z" transform="translate(1037 2429) rotate(180)" fill="#039be5"/>
    <path id="Trazado_144149" data-name="Trazado 144149" d="M8,0l8,14H0Z" transform="translate(1345 2276) rotate(180)" fill="#039be5"/>
    <path id="Trazado_144150" data-name="Trazado 144150" d="M8,0l8,14H0Z" transform="translate(1201 2344) rotate(-90)" fill="#039be5"/>
  </g>
</svg>
