<?xml version="1.0" encoding="utf-8"?>
<!-- Generator: Adobe Illustrator 25.4.2, SVG Export Plug-In . SVG Version: 6.00 Build 0)  -->
<svg version="1.1" id="Capa_1" xmlns="http://www.w3.org/2000/svg" xmlns:xlink="http://www.w3.org/1999/xlink" x="0px" y="0px"
	 viewBox="0 0 362 126" style="enable-background:new 0 0 362 126;" xml:space="preserve">
<style type="text/css">
	.st0{fill:#B2CEEF;}
	.st1{clip-path:url(#SVGID_00000168109669507469961400000016506404019349357243_);}
	.st2{fill:#EBEBEB;stroke:#1D67BD;stroke-width:2;}
	.st3{fill:#F5F5F5;stroke:#1D67BD;stroke-width:2;stroke-linecap:round;}
	.st4{fill:#1565C0;}
	.st5{enable-background:new    ;}
	.st6{fill:#12263F;}
</style>
<path id="Rectángulo_36675" class="st0" d="M27,0h308c14.9,0,27,12.1,27,27v72c0,14.9-12.1,27-27,27H27c-14.9,0-27-12.1-27-27V27
	C0,12.1,12.1,0,27,0z"/>
<g id="Grupo_141312" transform="translate(-1018.357 -1625.222)">
	<g id="Grupo_141311" transform="translate(1269.148 1645.638)">
		<g id="Grupo_141309">
			<g>
				<defs>
					<rect id="SVGID_1_" x="0" y="0" width="64.5" height="84.3"/>
				</defs>
				<clipPath id="SVGID_00000128462875245579197900000006917575500968990907_">
					<use xlink:href="#SVGID_1_"  style="overflow:visible;"/>
				</clipPath>
				
					<g id="Grupo_141308" transform="translate(0 0)" style="clip-path:url(#SVGID_00000128462875245579197900000006917575500968990907_);">
					<path id="Trazado_144139" class="st2" d="M58,84.3H6.5c-3.6,0-6.5-2.9-6.5-6.5c0,0,0,0,0,0V6.5C0,2.9,2.9,0,6.5,0c0,0,0,0,0,0
						h32.7l25.3,26.1v51.8C64.5,81.4,61.6,84.3,58,84.3C58,84.3,58,84.3,58,84.3"/>
					<path id="Trazado_144140" class="st3" d="M39.2,0v20.1c0,3.3,2.7,6,6,6h19.3L39.2,0z"/>
				</g>
			</g>
		</g>
		<rect id="Rectángulo_36669" x="8.8" y="26.9" class="st4" width="29.9" height="2.2"/>
		<rect id="Rectángulo_36670" x="8.8" y="36.6" class="st4" width="29.9" height="2.2"/>
		<rect id="Rectángulo_36671" x="8.8" y="47.9" class="st4" width="29.9" height="2.2"/>
		<rect id="Rectángulo_36672" x="8.8" y="57.6" class="st4" width="29.9" height="2.2"/>
		<rect id="Rectángulo_36673" x="8.8" y="67.3" class="st4" width="29.9" height="2.2"/>
	</g>
</g>
<g class="st5">
	<path class="st6" d="M96.7,73.5h-1.6L93.7,70h-5.3l-1.3,3.5h-1.6l4.8-12.6h1.5L96.7,73.5z M93.2,68.6l-2-5.4
		c-0.1-0.2-0.1-0.5-0.2-0.8h0c-0.1,0.4-0.1,0.6-0.2,0.8l-2,5.4H93.2z"/>
	<path class="st6" d="M103,66c-0.3-0.2-0.6-0.3-1.1-0.3c-0.6,0-1.1,0.3-1.5,0.9s-0.6,1.4-0.6,2.4v4.6h-1.4v-9h1.4v1.9h0
		c0.2-0.6,0.5-1.1,0.9-1.5c0.4-0.4,0.9-0.5,1.4-0.5c0.4,0,0.7,0,0.9,0.1V66z"/>
	<path class="st6" d="M108.8,73.4c-0.3,0.2-0.8,0.3-1.3,0.3c-1.6,0-2.4-0.9-2.4-2.6v-5.3h-1.5v-1.2h1.5v-2.2l1.4-0.5v2.7h2.3v1.2
		h-2.3v5.1c0,0.6,0.1,1,0.3,1.3s0.5,0.4,1,0.4c0.4,0,0.7-0.1,0.9-0.3V73.4z"/>
	<path class="st6" d="M117.9,69.4h-6.4c0,1,0.3,1.8,0.8,2.3s1.2,0.8,2.1,0.8c1,0,1.9-0.3,2.8-1v1.4c-0.8,0.6-1.8,0.9-3.1,0.9
		c-1.3,0-2.3-0.4-3-1.2c-0.7-0.8-1.1-2-1.1-3.4c0-1.4,0.4-2.5,1.2-3.4c0.8-0.9,1.8-1.3,3-1.3s2.1,0.4,2.7,1.1s1,1.8,1,3.2V69.4z
		 M116.5,68.1c0-0.8-0.2-1.5-0.6-1.9s-0.9-0.7-1.6-0.7c-0.7,0-1.3,0.2-1.7,0.7s-0.8,1.1-0.9,1.9H116.5z"/>
	<path class="st6" d="M124.6,61.4c-0.3-0.2-0.6-0.2-1-0.2c-1,0-1.5,0.6-1.5,1.9v1.4h2.1v1.2h-2.1v7.8h-1.4v-7.8h-1.5v-1.2h1.5V63
		c0-0.9,0.3-1.7,0.8-2.2s1.2-0.8,2-0.8c0.4,0,0.8,0.1,1,0.2V61.4z"/>
	<path class="st6" d="M132.2,73.5h-1.4v-1.4h0c-0.6,1.1-1.5,1.6-2.8,1.6c-0.9,0-1.6-0.2-2.1-0.7s-0.8-1.1-0.8-1.9c0-1.7,1-2.7,3-2.9
		l2.7-0.4c0-1.5-0.6-2.3-1.9-2.3c-1.1,0-2.1,0.4-2.9,1.1v-1.5c0.9-0.6,1.9-0.8,3.1-0.8c2.1,0,3.2,1.1,3.2,3.4V73.5z M130.8,68.9
		l-2.2,0.3c-0.7,0.1-1.2,0.3-1.5,0.5c-0.3,0.2-0.5,0.7-0.5,1.3c0,0.4,0.2,0.8,0.5,1.1c0.3,0.3,0.7,0.4,1.3,0.4
		c0.7,0,1.3-0.2,1.8-0.8c0.5-0.5,0.7-1.1,0.7-1.9V68.9z"/>
	<path class="st6" d="M141,73.1c-0.7,0.4-1.5,0.6-2.5,0.6c-1.3,0-2.3-0.4-3.1-1.3c-0.8-0.8-1.2-1.9-1.2-3.2c0-1.5,0.4-2.7,1.3-3.6
		s2-1.3,3.4-1.3c0.8,0,1.5,0.1,2.1,0.4v1.5c-0.7-0.5-1.4-0.7-2.1-0.7c-0.9,0-1.7,0.3-2.3,1c-0.6,0.7-0.9,1.5-0.9,2.6
		c0,1.1,0.3,1.9,0.8,2.5s1.3,0.9,2.2,0.9c0.8,0,1.5-0.3,2.2-0.8V73.1z"/>
	<path class="st6" d="M147.4,73.4c-0.3,0.2-0.8,0.3-1.3,0.3c-1.6,0-2.4-0.9-2.4-2.6v-5.3h-1.5v-1.2h1.5v-2.2l1.4-0.5v2.7h2.3v1.2
		h-2.3v5.1c0,0.6,0.1,1,0.3,1.3s0.5,0.4,1,0.4c0.4,0,0.7-0.1,0.9-0.3V73.4z"/>
	<path class="st6" d="M153.1,73.7c-1.3,0-2.4-0.4-3.2-1.3c-0.8-0.8-1.2-2-1.2-3.3c0-1.5,0.4-2.7,1.2-3.5s1.9-1.3,3.3-1.3
		c1.3,0,2.4,0.4,3.1,1.2s1.1,2,1.1,3.4c0,1.4-0.4,2.6-1.2,3.4C155.5,73.3,154.5,73.7,153.1,73.7z M153.2,65.5
		c-0.9,0-1.7,0.3-2.2,0.9s-0.8,1.5-0.8,2.6c0,1.1,0.3,1.9,0.8,2.5s1.3,0.9,2.2,0.9c0.9,0,1.6-0.3,2.1-0.9s0.8-1.5,0.8-2.6
		c0-1.1-0.3-2-0.8-2.6S154.1,65.5,153.2,65.5z"/>
</g>
</svg>
