<?xml version="1.0" encoding="utf-8"?>
<!-- Generator: Adobe Illustrator 25.4.2, SVG Export Plug-In . SVG Version: 6.00 Build 0)  -->
<svg version="1.1" id="Capa_1" xmlns="http://www.w3.org/2000/svg" xmlns:xlink="http://www.w3.org/1999/xlink" x="0px" y="0px"
	 viewBox="0 0 364.3 158.5" style="enable-background:new 0 0 364.3 158.5;" xml:space="preserve">
<style type="text/css">
	.st0{fill:#D2E2F3;}
	.st1{fill:#A6CBF7;}
	.st2{fill:#A9B5C3;}
	.st3{fill:#7DB5DB;}
	.st4{enable-background:new    ;}
	.st5{fill:#12263F;}
</style>
<g>
	<g id="Grupo_141280" transform="translate(49.263 0)">
		<rect id="Rectángulo_36560" x="-49.3" y="38.1" class="st0" width="120.4" height="120.4"/>
		<path id="Trazado_118212" class="st1" d="M-15.4,0l-33.8,38.1H71.2L105,0L-15.4,0z"/>
		<path id="Trazado_118213" class="st2" d="M71.2,38.1v120.4l33.8-38.1V0L71.2,38.1z"/>
		<path id="Trazado_118214" class="st3" d="M170.7,87.8H92v-2.3h78.6V87.8z"/>
		<rect id="Rectángulo_36561" x="166.5" y="36.6" class="st0" width="115.9" height="115.9"/>
		<path id="Trazado_118215" class="st1" d="M199.1,0l-32.6,36.6h115.9L315,0H199.1z"/>
		<path id="Trazado_118216" class="st2" d="M315,0l-32.6,36.6v115.9l32.6-36.6V0z"/>
	</g>
	<g class="st4">
		<path class="st5" d="M43,103.5l-4.4-6.1c-0.4-0.5-0.6-0.9-0.9-1.3h0c0,0.6,0.1,1.3,0.1,2.1v5.3h-3.5V90.9h3.6l4.3,5.8
			c0.1,0.1,0.1,0.2,0.2,0.3s0.2,0.2,0.2,0.3s0.1,0.2,0.2,0.3s0.1,0.2,0.2,0.3h0c0-0.3-0.1-0.7-0.1-1.3v-5.7h3.5v12.6H43z"/>
		<path class="st5" d="M58.5,98.8c0,1.5-0.5,2.7-1.4,3.6s-2.2,1.3-3.8,1.3c-1.6,0-2.9-0.4-3.8-1.3c-0.9-0.8-1.4-2-1.4-3.5
			c0-1,0.2-1.8,0.6-2.5s1-1.2,1.8-1.6s1.7-0.6,2.7-0.6c1.1,0,2,0.2,2.8,0.6s1.4,0.9,1.8,1.6S58.5,98,58.5,98.8z M54.7,98.9
			c0-1.2-0.5-1.8-1.4-1.8s-1.4,0.6-1.4,1.9c0,1.4,0.5,2,1.4,2C54.3,101,54.7,100.3,54.7,98.9z"/>
		<path class="st5" d="M65.9,103.5v-1h0c-0.3,0.4-0.7,0.7-1.2,0.9c-0.5,0.2-1,0.3-1.4,0.3c-0.8,0-1.4-0.2-2-0.6
			c-0.6-0.4-1-0.9-1.3-1.6s-0.4-1.5-0.4-2.4c0-1,0.2-1.8,0.5-2.5s0.8-1.3,1.5-1.7s1.3-0.6,2.1-0.6c0.4,0,0.7,0.1,1,0.2
			s0.6,0.2,0.8,0.4s0.4,0.4,0.4,0.5h0v-5.2h3.7v13.3H65.9z M66,98.7c0-0.5-0.1-1-0.4-1.3s-0.6-0.4-1-0.4s-0.7,0.2-1,0.6
			c-0.3,0.4-0.4,0.9-0.4,1.5c0,1.3,0.4,1.9,1.3,1.9c0.4,0,0.7-0.2,1-0.5c0.2-0.3,0.4-0.8,0.4-1.5V98.7z"/>
		<path class="st5" d="M81.5,98.8c0,1.5-0.5,2.7-1.4,3.6s-2.2,1.3-3.8,1.3c-1.6,0-2.9-0.4-3.8-1.3c-0.9-0.8-1.4-2-1.4-3.5
			c0-1,0.2-1.8,0.6-2.5s1-1.2,1.8-1.6s1.7-0.6,2.7-0.6c1.1,0,2,0.2,2.8,0.6s1.4,0.9,1.8,1.6S81.5,98,81.5,98.8z M77.7,98.9
			c0-1.2-0.5-1.8-1.4-1.8s-1.4,0.6-1.4,1.9c0,1.4,0.5,2,1.4,2C77.2,101,77.7,100.3,77.7,98.9z"/>
	</g>
	<g class="st4">
		<path class="st5" d="M260.3,107.6l-4.4-6.1c-0.4-0.5-0.6-0.9-0.9-1.3h0c0,0.6,0.1,1.3,0.1,2.1v5.3h-3.5V95h3.6l4.3,5.8
			c0.1,0.1,0.1,0.2,0.2,0.3s0.2,0.2,0.2,0.3s0.1,0.2,0.2,0.3s0.1,0.2,0.2,0.3h0c0-0.3-0.1-0.7-0.1-1.3V95h3.5v12.6H260.3z"/>
		<path class="st5" d="M275.8,103c0,1.5-0.5,2.7-1.4,3.6s-2.2,1.3-3.8,1.3c-1.6,0-2.9-0.4-3.8-1.3c-0.9-0.8-1.4-2-1.4-3.5
			c0-1,0.2-1.8,0.6-2.5s1-1.2,1.8-1.6s1.7-0.6,2.7-0.6c1.1,0,2,0.2,2.8,0.6s1.4,0.9,1.8,1.6S275.8,102.1,275.8,103z M272,103
			c0-1.2-0.5-1.8-1.4-1.8s-1.4,0.6-1.4,1.9c0,1.4,0.5,2,1.4,2C271.5,105.1,272,104.4,272,103z"/>
		<path class="st5" d="M283.2,107.6v-1h0c-0.3,0.4-0.7,0.7-1.2,0.9c-0.5,0.2-1,0.3-1.4,0.3c-0.8,0-1.4-0.2-2-0.6
			c-0.6-0.4-1-0.9-1.3-1.6s-0.4-1.5-0.4-2.4c0-1,0.2-1.8,0.5-2.5s0.8-1.3,1.5-1.7s1.3-0.6,2.1-0.6c0.4,0,0.7,0.1,1,0.2
			s0.6,0.2,0.8,0.4s0.4,0.4,0.4,0.5h0v-5.2h3.7v13.3H283.2z M283.3,102.8c0-0.5-0.1-1-0.4-1.3s-0.6-0.4-1-0.4s-0.7,0.2-1,0.6
			c-0.3,0.4-0.4,0.9-0.4,1.5c0,1.3,0.4,1.9,1.3,1.9c0.4,0,0.7-0.2,1-0.5c0.2-0.3,0.4-0.8,0.4-1.5V102.8z"/>
		<path class="st5" d="M298.8,103c0,1.5-0.5,2.7-1.4,3.6s-2.2,1.3-3.8,1.3c-1.6,0-2.9-0.4-3.8-1.3c-0.9-0.8-1.4-2-1.4-3.5
			c0-1,0.2-1.8,0.6-2.5s1-1.2,1.8-1.6s1.7-0.6,2.7-0.6c1.1,0,2,0.2,2.8,0.6s1.4,0.9,1.8,1.6S298.8,102.1,298.8,103z M295,103
			c0-1.2-0.5-1.8-1.4-1.8s-1.4,0.6-1.4,1.9c0,1.4,0.5,2,1.4,2C294.5,105.1,295,104.4,295,103z"/>
	</g>
</g>
</svg>
