<?xml version="1.0" encoding="utf-8"?>
<!-- Generator: Adobe Illustrator 25.4.2, SVG Export Plug-In . SVG Version: 6.00 Build 0)  -->
<svg version="1.1" id="Capa_1" xmlns="http://www.w3.org/2000/svg" xmlns:xlink="http://www.w3.org/1999/xlink" x="0px" y="0px"
	 viewBox="0 0 81 81" style="enable-background:new 0 0 81 81;" xml:space="preserve">
<style type="text/css">
	.st0{fill:#1D67BD;}
	.st1{fill:none;stroke:#FFFFFF;stroke-width:3;}
	.st2{enable-background:new    ;}
	.st3{fill:#FFFFFF;}
</style>
<g id="Grupo_141327" transform="translate(-604 -2913)">
	<g id="Elipse_4794" transform="translate(604 2913)">
		<circle class="st0" cx="40.5" cy="40.5" r="40.5"/>
		<circle class="st1" cx="40.5" cy="40.5" r="39"/>
	</g>
	<g class="st2">
		<path class="st3" d="M632.3,2970v-2.4c0-1.7,0.2-3.1,0.6-4.3s1.1-2.4,1.9-3.5s2.4-2.5,4.6-4.2c1.6-1.2,2.6-2.1,3.1-2.7
			s0.9-1.1,1.1-1.6s0.4-1.1,0.4-1.6c0-2-1.2-2.9-3.5-2.9c-2.4,0-4.7,0.9-6.8,2.6v-7.2c1.6-0.8,3.1-1.4,4.6-1.7s2.9-0.5,4.4-0.5
			c3.2,0,5.7,0.8,7.4,2.3s2.6,3.7,2.6,6.4c0,2.1-0.5,3.9-1.4,5.4s-2.6,3-5.1,4.6c-1.9,1.2-3.2,2.1-3.8,2.7s-0.9,1-1,1.4H653v7H632.3
			z"/>
	</g>
</g>
</svg>
