<?xml version="1.0" encoding="utf-8"?>
<!-- Generator: Adobe Illustrator 25.4.2, SVG Export Plug-In . SVG Version: 6.00 Build 0)  -->
<svg version="1.1" id="Capa_1" xmlns="http://www.w3.org/2000/svg" xmlns:xlink="http://www.w3.org/1999/xlink" x="0px" y="0px"
	 viewBox="0 0 342.5 235.5" style="enable-background:new 0 0 342.5 235.5;" xml:space="preserve">
<style type="text/css">
	.st0{fill:#D2E2F3;}
	.st1{fill:#A9B5C3;}
	.st2{fill:#A6CBF7;}
	.st3{enable-background:new    ;}
	.st4{fill:#12263F;}
	.st5{fill:none;stroke:#636363;}
</style>
<g id="Grupo_141310" transform="translate(0 -1.848)">
	<rect id="Rectángulo_36674" y="24.7" class="st0" width="318.5" height="212.6"/>
	<path id="Trazado_144142" class="st1" d="M342.1,1.8l-23.6,23.6v211.8l24-24L342.1,1.8z"/>
	<path id="Trazado_144141" class="st2" d="M28.1,1.8L0,25l318.6,0.4l23.2-23.2L28.1,1.8z"/>
</g>
<g class="st3">
	<path class="st4" d="M125.2,59.2V48h3.1c3.9,0,5.9,1.8,5.9,5.5c0,1.7-0.5,3.1-1.6,4.2c-1.1,1-2.6,1.6-4.4,1.6H125.2z M126.6,49.2
		V58h1.7c1.5,0,2.6-0.4,3.4-1.2c0.8-0.8,1.2-1.9,1.2-3.3c0-2.9-1.5-4.3-4.6-4.3H126.6z"/>
	<path class="st4" d="M136.9,49.2c-0.2,0-0.4-0.1-0.6-0.2c-0.2-0.2-0.2-0.4-0.2-0.6s0.1-0.4,0.2-0.6c0.2-0.2,0.4-0.2,0.6-0.2
		c0.2,0,0.4,0.1,0.6,0.2s0.2,0.4,0.2,0.6c0,0.2-0.1,0.4-0.2,0.6S137.2,49.2,136.9,49.2z M137.6,59.2h-1.3v-8h1.3V59.2z"/>
	<path class="st4" d="M139.7,58.9v-1.4c0.7,0.5,1.5,0.8,2.3,0.8c1.1,0,1.7-0.4,1.7-1.1c0-0.2,0-0.4-0.1-0.5
		c-0.1-0.1-0.2-0.3-0.4-0.4s-0.4-0.2-0.6-0.3c-0.2-0.1-0.5-0.2-0.7-0.3c-0.4-0.1-0.7-0.3-0.9-0.4c-0.3-0.1-0.5-0.3-0.7-0.5
		s-0.3-0.4-0.4-0.6c-0.1-0.2-0.1-0.5-0.1-0.8c0-0.4,0.1-0.7,0.3-1s0.4-0.5,0.7-0.7c0.3-0.2,0.6-0.3,1-0.4s0.7-0.1,1.1-0.1
		c0.7,0,1.3,0.1,1.9,0.4v1.3c-0.6-0.4-1.3-0.6-2-0.6c-0.2,0-0.5,0-0.6,0.1c-0.2,0.1-0.4,0.1-0.5,0.2c-0.1,0.1-0.2,0.2-0.3,0.4
		c-0.1,0.1-0.1,0.3-0.1,0.5c0,0.2,0,0.4,0.1,0.5c0.1,0.1,0.2,0.3,0.3,0.4c0.1,0.1,0.3,0.2,0.5,0.3c0.2,0.1,0.4,0.2,0.7,0.3
		c0.4,0.1,0.7,0.3,1,0.4s0.5,0.3,0.7,0.5c0.2,0.2,0.4,0.4,0.5,0.6c0.1,0.2,0.2,0.5,0.2,0.8c0,0.4-0.1,0.7-0.3,1
		c-0.2,0.3-0.4,0.5-0.7,0.7c-0.3,0.2-0.6,0.3-1,0.4c-0.4,0.1-0.8,0.1-1.2,0.1C141,59.4,140.3,59.2,139.7,58.9z"/>
	<path class="st4" d="M148.3,58.1L148.3,58.1l0,4.8h-1.3V51.2h1.3v1.4h0c0.6-1.1,1.6-1.6,2.8-1.6c1,0,1.8,0.4,2.4,1.1
		s0.9,1.7,0.9,2.9c0,1.3-0.3,2.4-1,3.2c-0.7,0.8-1.5,1.2-2.7,1.2C149.6,59.4,148.8,58.9,148.3,58.1z M148.2,54.8v1.1
		c0,0.7,0.2,1.2,0.6,1.7s1,0.7,1.6,0.7c0.8,0,1.4-0.3,1.8-0.9c0.4-0.6,0.7-1.4,0.7-2.5c0-0.9-0.2-1.6-0.6-2.1
		c-0.4-0.5-1-0.8-1.7-0.8c-0.7,0-1.3,0.3-1.8,0.8S148.2,54,148.2,54.8z"/>
	<path class="st4" d="M159.7,59.4c-1.2,0-2.1-0.4-2.8-1.1c-0.7-0.7-1.1-1.7-1.1-3c0-1.3,0.4-2.4,1.1-3.1s1.7-1.1,3-1.1
		c1.2,0,2.1,0.4,2.8,1.1c0.7,0.7,1,1.8,1,3.1c0,1.3-0.4,2.3-1.1,3.1C161.9,59,160.9,59.4,159.7,59.4z M159.8,52.1
		c-0.8,0-1.5,0.3-2,0.8c-0.5,0.6-0.7,1.3-0.7,2.3c0,0.9,0.2,1.7,0.7,2.2s1.1,0.8,1.9,0.8c0.8,0,1.5-0.3,1.9-0.8s0.7-1.3,0.7-2.3
		c0-1-0.2-1.8-0.7-2.3S160.6,52.1,159.8,52.1z"/>
	<path class="st4" d="M165.2,58.9v-1.4c0.7,0.5,1.5,0.8,2.3,0.8c1.1,0,1.7-0.4,1.7-1.1c0-0.2,0-0.4-0.1-0.5
		c-0.1-0.1-0.2-0.3-0.4-0.4s-0.4-0.2-0.6-0.3c-0.2-0.1-0.5-0.2-0.7-0.3c-0.4-0.1-0.7-0.3-0.9-0.4c-0.3-0.1-0.5-0.3-0.7-0.5
		s-0.3-0.4-0.4-0.6c-0.1-0.2-0.1-0.5-0.1-0.8c0-0.4,0.1-0.7,0.3-1s0.4-0.5,0.7-0.7c0.3-0.2,0.6-0.3,1-0.4s0.7-0.1,1.1-0.1
		c0.7,0,1.3,0.1,1.9,0.4v1.3c-0.6-0.4-1.3-0.6-2-0.6c-0.2,0-0.5,0-0.6,0.1c-0.2,0.1-0.4,0.1-0.5,0.2c-0.1,0.1-0.2,0.2-0.3,0.4
		c-0.1,0.1-0.1,0.3-0.1,0.5c0,0.2,0,0.4,0.1,0.5c0.1,0.1,0.2,0.3,0.3,0.4c0.1,0.1,0.3,0.2,0.5,0.3c0.2,0.1,0.4,0.2,0.7,0.3
		c0.4,0.1,0.7,0.3,1,0.4s0.5,0.3,0.7,0.5c0.2,0.2,0.4,0.4,0.5,0.6c0.1,0.2,0.2,0.5,0.2,0.8c0,0.4-0.1,0.7-0.3,1
		c-0.2,0.3-0.4,0.5-0.7,0.7c-0.3,0.2-0.6,0.3-1,0.4c-0.4,0.1-0.8,0.1-1.2,0.1C166.6,59.4,165.9,59.2,165.2,58.9z"/>
	<path class="st4" d="M173.2,49.2c-0.2,0-0.4-0.1-0.6-0.2c-0.2-0.2-0.2-0.4-0.2-0.6s0.1-0.4,0.2-0.6c0.2-0.2,0.4-0.2,0.6-0.2
		c0.2,0,0.4,0.1,0.6,0.2s0.2,0.4,0.2,0.6c0,0.2-0.1,0.4-0.2,0.6S173.4,49.2,173.2,49.2z M173.8,59.2h-1.3v-8h1.3V59.2z"/>
	<path class="st4" d="M180.1,59.1c-0.3,0.2-0.7,0.2-1.2,0.2c-1.4,0-2.1-0.8-2.1-2.3v-4.7h-1.4v-1.1h1.4v-2l1.3-0.4v2.4h2v1.1h-2v4.5
		c0,0.5,0.1,0.9,0.3,1.1c0.2,0.2,0.5,0.3,0.9,0.3c0.3,0,0.6-0.1,0.8-0.3V59.1z"/>
	<path class="st4" d="M182.5,49.2c-0.2,0-0.4-0.1-0.6-0.2c-0.2-0.2-0.2-0.4-0.2-0.6s0.1-0.4,0.2-0.6c0.2-0.2,0.4-0.2,0.6-0.2
		c0.2,0,0.4,0.1,0.6,0.2s0.2,0.4,0.2,0.6c0,0.2-0.1,0.4-0.2,0.6S182.7,49.2,182.5,49.2z M183.1,59.2h-1.3v-8h1.3V59.2z"/>
	<path class="st4" d="M192,51.2l-3.2,8h-1.3l-3-8h1.4l2,5.8c0.2,0.4,0.2,0.8,0.3,1.1h0c0.1-0.4,0.1-0.8,0.2-1.1l2.1-5.8H192z"/>
	<path class="st4" d="M196.7,59.4c-1.2,0-2.1-0.4-2.8-1.1c-0.7-0.7-1.1-1.7-1.1-3c0-1.3,0.4-2.4,1.1-3.1s1.7-1.1,3-1.1
		c1.2,0,2.1,0.4,2.8,1.1c0.7,0.7,1,1.8,1,3.1c0,1.3-0.4,2.3-1.1,3.1C198.9,59,197.9,59.4,196.7,59.4z M196.8,52.1
		c-0.8,0-1.5,0.3-2,0.8c-0.5,0.6-0.7,1.3-0.7,2.3c0,0.9,0.2,1.7,0.7,2.2s1.1,0.8,1.9,0.8c0.8,0,1.5-0.3,1.9-0.8s0.7-1.3,0.7-2.3
		c0-1-0.2-1.8-0.7-2.3S197.6,52.1,196.8,52.1z"/>
</g>
<g class="st3">
	<path class="st4" d="M121.2,103.3h-1.5l-1.2-3.1h-4.8l-1.1,3.1h-1.5l4.3-11.2h1.4L121.2,103.3z M118.1,99l-1.8-4.8
		c-0.1-0.2-0.1-0.4-0.2-0.8h0c-0.1,0.3-0.1,0.6-0.2,0.8l-1.7,4.8H118.1z"/>
	<path class="st4" d="M126.4,103.3c-0.3,0.2-0.7,0.2-1.2,0.2c-1.4,0-2.1-0.8-2.1-2.3v-4.7h-1.4v-1.1h1.4v-2l1.3-0.4v2.4h2v1.1h-2
		v4.5c0,0.5,0.1,0.9,0.3,1.1c0.2,0.2,0.5,0.3,0.9,0.3c0.3,0,0.6-0.1,0.8-0.3V103.3z"/>
	<path class="st4" d="M132.2,96.6c-0.2-0.2-0.5-0.3-1-0.3c-0.5,0-1,0.3-1.4,0.8s-0.6,1.2-0.6,2.1v4.1h-1.3v-8h1.3V97h0
		c0.2-0.6,0.5-1,0.8-1.3s0.8-0.5,1.3-0.5c0.3,0,0.6,0,0.8,0.1V96.6z"/>
	<path class="st4" d="M134.3,93.3c-0.2,0-0.4-0.1-0.6-0.2c-0.2-0.2-0.2-0.4-0.2-0.6s0.1-0.4,0.2-0.6c0.2-0.2,0.4-0.2,0.6-0.2
		c0.2,0,0.4,0.1,0.6,0.2s0.2,0.4,0.2,0.6c0,0.2-0.1,0.4-0.2,0.6S134.5,93.3,134.3,93.3z M134.9,103.3h-1.3v-8h1.3V103.3z"/>
	<path class="st4" d="M138.8,102.2L138.8,102.2l0,1.2h-1.3V91.5h1.3v5.2h0c0.6-1.1,1.6-1.6,2.8-1.6c1,0,1.8,0.4,2.4,1.1
		c0.6,0.7,0.9,1.7,0.9,2.9c0,1.3-0.3,2.4-1,3.2c-0.7,0.8-1.5,1.2-2.7,1.2C140.2,103.5,139.4,103.1,138.8,102.2z M138.8,99v1.1
		c0,0.7,0.2,1.2,0.6,1.7s1,0.7,1.6,0.7c0.8,0,1.4-0.3,1.8-0.9c0.4-0.6,0.7-1.4,0.7-2.5c0-0.9-0.2-1.6-0.6-2.1
		c-0.4-0.5-1-0.8-1.7-0.8c-0.7,0-1.3,0.3-1.8,0.8S138.8,98.2,138.8,99z"/>
	<path class="st4" d="M153.4,103.3h-1.3v-1.3h0c-0.5,1-1.4,1.5-2.5,1.5c-1.9,0-2.9-1.1-2.9-3.4v-4.8h1.3v4.6c0,1.7,0.6,2.5,1.9,2.5
		c0.6,0,1.1-0.2,1.5-0.7c0.4-0.5,0.6-1.1,0.6-1.8v-4.6h1.3V103.3z"/>
	<path class="st4" d="M159.7,103.3c-0.3,0.2-0.7,0.2-1.2,0.2c-1.4,0-2.1-0.8-2.1-2.3v-4.7H155v-1.1h1.4v-2l1.3-0.4v2.4h2v1.1h-2v4.5
		c0,0.5,0.1,0.9,0.3,1.1c0.2,0.2,0.5,0.3,0.9,0.3c0.3,0,0.6-0.1,0.8-0.3V103.3z"/>
	<path class="st4" d="M164.7,103.5c-1.2,0-2.1-0.4-2.8-1.1c-0.7-0.7-1.1-1.7-1.1-3c0-1.3,0.4-2.4,1.1-3.1s1.7-1.1,3-1.1
		c1.2,0,2.1,0.4,2.8,1.1c0.7,0.7,1,1.8,1,3.1c0,1.3-0.4,2.3-1.1,3.1C166.9,103.1,166,103.5,164.7,103.5z M164.8,96.2
		c-0.8,0-1.5,0.3-2,0.8c-0.5,0.6-0.7,1.3-0.7,2.3c0,0.9,0.2,1.7,0.7,2.2s1.1,0.8,1.9,0.8c0.8,0,1.5-0.3,1.9-0.8s0.7-1.3,0.7-2.3
		c0-1-0.2-1.8-0.7-2.3S165.7,96.2,164.8,96.2z"/>
	<path class="st4" d="M175.1,103.3h-1.3v-9.7c-0.1,0.1-0.2,0.2-0.4,0.3c-0.2,0.1-0.4,0.3-0.6,0.4c-0.2,0.1-0.5,0.2-0.8,0.4
		c-0.3,0.1-0.5,0.2-0.8,0.3v-1.3c0.3-0.1,0.6-0.2,0.9-0.3c0.3-0.1,0.6-0.3,0.9-0.4s0.6-0.3,0.9-0.5c0.3-0.2,0.5-0.4,0.7-0.5h0.5
		V103.3z"/>
	<path class="st4" d="M179.8,96.9c-0.2,0-0.4-0.1-0.6-0.3c-0.2-0.2-0.3-0.4-0.3-0.6s0.1-0.4,0.3-0.6c0.2-0.2,0.4-0.2,0.6-0.2
		c0.2,0,0.5,0.1,0.6,0.2s0.3,0.4,0.3,0.6s-0.1,0.4-0.3,0.6S180.1,96.9,179.8,96.9z M179.8,103.5c-0.2,0-0.4-0.1-0.6-0.3
		c-0.2-0.2-0.3-0.4-0.3-0.6s0.1-0.4,0.3-0.6c0.2-0.2,0.4-0.3,0.6-0.3c0.2,0,0.5,0.1,0.6,0.3s0.3,0.4,0.3,0.6s-0.1,0.4-0.3,0.6
		S180.1,103.5,179.8,103.5z"/>
	<path class="st4" d="M194,93.3h-3.2v10h-1.3v-10h-3.2v-1.2h7.8V93.3z"/>
	<path class="st4" d="M196.3,93.3c-0.2,0-0.4-0.1-0.6-0.2c-0.2-0.2-0.2-0.4-0.2-0.6s0.1-0.4,0.2-0.6c0.2-0.2,0.4-0.2,0.6-0.2
		c0.2,0,0.4,0.1,0.6,0.2s0.2,0.4,0.2,0.6c0,0.2-0.1,0.4-0.2,0.6S196.5,93.3,196.3,93.3z M196.9,103.3h-1.3v-8h1.3V103.3z"/>
	<path class="st4" d="M200.8,102.2L200.8,102.2l0,4.8h-1.3V95.3h1.3v1.4h0c0.6-1.1,1.6-1.6,2.8-1.6c1,0,1.8,0.4,2.4,1.1
		s0.9,1.7,0.9,2.9c0,1.3-0.3,2.4-1,3.2c-0.7,0.8-1.5,1.2-2.7,1.2C202.2,103.5,201.4,103.1,200.8,102.2z M200.8,99v1.1
		c0,0.7,0.2,1.2,0.6,1.7s1,0.7,1.6,0.7c0.8,0,1.4-0.3,1.8-0.9c0.4-0.6,0.7-1.4,0.7-2.5c0-0.9-0.2-1.6-0.6-2.1
		c-0.4-0.5-1-0.8-1.7-0.8c-0.7,0-1.3,0.3-1.8,0.8S200.8,98.2,200.8,99z"/>
	<path class="st4" d="M212.3,103.5c-1.2,0-2.1-0.4-2.8-1.1c-0.7-0.7-1.1-1.7-1.1-3c0-1.3,0.4-2.4,1.1-3.1s1.7-1.1,3-1.1
		c1.2,0,2.1,0.4,2.8,1.1c0.7,0.7,1,1.8,1,3.1c0,1.3-0.4,2.3-1.1,3.1C214.4,103.1,213.5,103.5,212.3,103.5z M212.4,96.2
		c-0.8,0-1.5,0.3-2,0.8c-0.5,0.6-0.7,1.3-0.7,2.3c0,0.9,0.2,1.7,0.7,2.2s1.1,0.8,1.9,0.8c0.8,0,1.5-0.3,1.9-0.8s0.7-1.3,0.7-2.3
		c0-1-0.2-1.8-0.7-2.3S213.2,96.2,212.4,96.2z"/>
</g>
<g class="st3">
	<path class="st4" d="M121.2,127.3h-1.5l-1.2-3.1h-4.8l-1.1,3.1h-1.5l4.3-11.2h1.4L121.2,127.3z M118.1,123l-1.8-4.8
		c-0.1-0.2-0.1-0.4-0.2-0.8h0c-0.1,0.3-0.1,0.6-0.2,0.8l-1.7,4.8H118.1z"/>
	<path class="st4" d="M126.4,127.3c-0.3,0.2-0.7,0.2-1.2,0.2c-1.4,0-2.1-0.8-2.1-2.3v-4.7h-1.4v-1.1h1.4v-2l1.3-0.4v2.4h2v1.1h-2
		v4.5c0,0.5,0.1,0.9,0.3,1.1c0.2,0.2,0.5,0.3,0.9,0.3c0.3,0,0.6-0.1,0.8-0.3V127.3z"/>
	<path class="st4" d="M132.2,120.6c-0.2-0.2-0.5-0.3-1-0.3c-0.5,0-1,0.3-1.4,0.8s-0.6,1.2-0.6,2.1v4.1h-1.3v-8h1.3v1.6h0
		c0.2-0.6,0.5-1,0.8-1.3s0.8-0.5,1.3-0.5c0.3,0,0.6,0,0.8,0.1V120.6z"/>
	<path class="st4" d="M134.3,117.3c-0.2,0-0.4-0.1-0.6-0.2c-0.2-0.2-0.2-0.4-0.2-0.6s0.1-0.4,0.2-0.6c0.2-0.2,0.4-0.2,0.6-0.2
		c0.2,0,0.4,0.1,0.6,0.2s0.2,0.4,0.2,0.6c0,0.2-0.1,0.4-0.2,0.6S134.5,117.3,134.3,117.3z M134.9,127.3h-1.3v-8h1.3V127.3z"/>
	<path class="st4" d="M138.8,126.2L138.8,126.2l0,1.2h-1.3v-11.8h1.3v5.2h0c0.6-1.1,1.6-1.6,2.8-1.6c1,0,1.8,0.4,2.4,1.1
		c0.6,0.7,0.9,1.7,0.9,2.9c0,1.3-0.3,2.4-1,3.2c-0.7,0.8-1.5,1.2-2.7,1.2C140.2,127.5,139.4,127.1,138.8,126.2z M138.8,123v1.1
		c0,0.7,0.2,1.2,0.6,1.7s1,0.7,1.6,0.7c0.8,0,1.4-0.3,1.8-0.9c0.4-0.6,0.7-1.4,0.7-2.5c0-0.9-0.2-1.6-0.6-2.1
		c-0.4-0.5-1-0.8-1.7-0.8c-0.7,0-1.3,0.3-1.8,0.8S138.8,122.2,138.8,123z"/>
	<path class="st4" d="M153.4,127.3h-1.3v-1.3h0c-0.5,1-1.4,1.5-2.5,1.5c-1.9,0-2.9-1.1-2.9-3.4v-4.8h1.3v4.6c0,1.7,0.6,2.5,1.9,2.5
		c0.6,0,1.1-0.2,1.5-0.7c0.4-0.5,0.6-1.1,0.6-1.8v-4.6h1.3V127.3z"/>
	<path class="st4" d="M159.7,127.3c-0.3,0.2-0.7,0.2-1.2,0.2c-1.4,0-2.1-0.8-2.1-2.3v-4.7H155v-1.1h1.4v-2l1.3-0.4v2.4h2v1.1h-2v4.5
		c0,0.5,0.1,0.9,0.3,1.1c0.2,0.2,0.5,0.3,0.9,0.3c0.3,0,0.6-0.1,0.8-0.3V127.3z"/>
	<path class="st4" d="M164.7,127.5c-1.2,0-2.1-0.4-2.8-1.1c-0.7-0.7-1.1-1.7-1.1-3c0-1.3,0.4-2.4,1.1-3.1s1.7-1.1,3-1.1
		c1.2,0,2.1,0.4,2.8,1.1c0.7,0.7,1,1.8,1,3.1c0,1.3-0.4,2.3-1.1,3.1C166.9,127.1,166,127.5,164.7,127.5z M164.8,120.2
		c-0.8,0-1.5,0.3-2,0.8c-0.5,0.6-0.7,1.3-0.7,2.3c0,0.9,0.2,1.7,0.7,2.2s1.1,0.8,1.9,0.8c0.8,0,1.5-0.3,1.9-0.8s0.7-1.3,0.7-2.3
		c0-1-0.2-1.8-0.7-2.3S165.7,120.2,164.8,120.2z"/>
	<path class="st4" d="M175.5,119.1c0-0.3-0.1-0.6-0.2-0.9c-0.1-0.3-0.3-0.5-0.4-0.6c-0.2-0.2-0.4-0.3-0.7-0.4s-0.5-0.1-0.8-0.1
		c-0.2,0-0.5,0-0.7,0.1c-0.2,0.1-0.5,0.2-0.7,0.3s-0.4,0.3-0.7,0.4s-0.4,0.4-0.6,0.6V117c0.4-0.3,0.8-0.6,1.2-0.8s1-0.3,1.6-0.3
		c0.5,0,0.9,0.1,1.3,0.2s0.7,0.3,1,0.6c0.3,0.3,0.5,0.6,0.7,0.9s0.2,0.8,0.2,1.3c0,0.4-0.1,0.8-0.2,1.2s-0.3,0.7-0.5,1
		c-0.2,0.3-0.5,0.6-0.8,0.9s-0.7,0.6-1.1,0.9c-0.5,0.4-1,0.7-1.3,1c-0.3,0.3-0.6,0.5-0.8,0.7c-0.2,0.2-0.3,0.5-0.4,0.7
		c-0.1,0.2-0.1,0.5-0.1,0.8h5.6v1.1h-6.9v-0.6c0-0.5,0.1-0.9,0.2-1.3c0.1-0.4,0.3-0.7,0.5-1c0.2-0.3,0.6-0.7,0.9-1
		c0.4-0.3,0.9-0.7,1.4-1.1c0.4-0.3,0.7-0.6,1-0.8s0.5-0.5,0.7-0.8c0.2-0.3,0.3-0.5,0.4-0.8S175.5,119.4,175.5,119.1z"/>
	<path class="st4" d="M179.8,120.9c-0.2,0-0.4-0.1-0.6-0.3c-0.2-0.2-0.3-0.4-0.3-0.6s0.1-0.4,0.3-0.6c0.2-0.2,0.4-0.2,0.6-0.2
		c0.2,0,0.5,0.1,0.6,0.2s0.3,0.4,0.3,0.6s-0.1,0.4-0.3,0.6S180.1,120.9,179.8,120.9z M179.8,127.5c-0.2,0-0.4-0.1-0.6-0.3
		c-0.2-0.2-0.3-0.4-0.3-0.6s0.1-0.4,0.3-0.6c0.2-0.2,0.4-0.3,0.6-0.3c0.2,0,0.5,0.1,0.6,0.3s0.3,0.4,0.3,0.6s-0.1,0.4-0.3,0.6
		S180.1,127.5,179.8,127.5z"/>
	<path class="st4" d="M194,117.3h-3.2v10h-1.3v-10h-3.2v-1.2h7.8V117.3z"/>
	<path class="st4" d="M196.3,117.3c-0.2,0-0.4-0.1-0.6-0.2c-0.2-0.2-0.2-0.4-0.2-0.6s0.1-0.4,0.2-0.6c0.2-0.2,0.4-0.2,0.6-0.2
		c0.2,0,0.4,0.1,0.6,0.2s0.2,0.4,0.2,0.6c0,0.2-0.1,0.4-0.2,0.6S196.5,117.3,196.3,117.3z M196.9,127.3h-1.3v-8h1.3V127.3z"/>
	<path class="st4" d="M200.8,126.2L200.8,126.2l0,4.8h-1.3v-11.7h1.3v1.4h0c0.6-1.1,1.6-1.6,2.8-1.6c1,0,1.8,0.4,2.4,1.1
		s0.9,1.7,0.9,2.9c0,1.3-0.3,2.4-1,3.2c-0.7,0.8-1.5,1.2-2.7,1.2C202.2,127.5,201.4,127.1,200.8,126.2z M200.8,123v1.1
		c0,0.7,0.2,1.2,0.6,1.7s1,0.7,1.6,0.7c0.8,0,1.4-0.3,1.8-0.9c0.4-0.6,0.7-1.4,0.7-2.5c0-0.9-0.2-1.6-0.6-2.1
		c-0.4-0.5-1-0.8-1.7-0.8c-0.7,0-1.3,0.3-1.8,0.8S200.8,122.2,200.8,123z"/>
	<path class="st4" d="M212.3,127.5c-1.2,0-2.1-0.4-2.8-1.1c-0.7-0.7-1.1-1.7-1.1-3c0-1.3,0.4-2.4,1.1-3.1s1.7-1.1,3-1.1
		c1.2,0,2.1,0.4,2.8,1.1c0.7,0.7,1,1.8,1,3.1c0,1.3-0.4,2.3-1.1,3.1C214.4,127.1,213.5,127.5,212.3,127.5z M212.4,120.2
		c-0.8,0-1.5,0.3-2,0.8c-0.5,0.6-0.7,1.3-0.7,2.3c0,0.9,0.2,1.7,0.7,2.2s1.1,0.8,1.9,0.8c0.8,0,1.5-0.3,1.9-0.8s0.7-1.3,0.7-2.3
		c0-1-0.2-1.8-0.7-2.3S213.2,120.2,212.4,120.2z"/>
</g>
<g class="st3">
	<path class="st4" d="M121.2,151.3h-1.5l-1.2-3.1h-4.8l-1.1,3.1h-1.5l4.3-11.2h1.4L121.2,151.3z M118.1,147l-1.8-4.8
		c-0.1-0.2-0.1-0.4-0.2-0.8h0c-0.1,0.3-0.1,0.6-0.2,0.8l-1.7,4.8H118.1z"/>
	<path class="st4" d="M126.4,151.3c-0.3,0.2-0.7,0.2-1.2,0.2c-1.4,0-2.1-0.8-2.1-2.3v-4.7h-1.4v-1.1h1.4v-2l1.3-0.4v2.4h2v1.1h-2
		v4.5c0,0.5,0.1,0.9,0.3,1.1c0.2,0.2,0.5,0.3,0.9,0.3c0.3,0,0.6-0.1,0.8-0.3V151.3z"/>
	<path class="st4" d="M132.2,144.6c-0.2-0.2-0.5-0.3-1-0.3c-0.5,0-1,0.3-1.4,0.8s-0.6,1.2-0.6,2.1v4.1h-1.3v-8h1.3v1.6h0
		c0.2-0.6,0.5-1,0.8-1.3s0.8-0.5,1.3-0.5c0.3,0,0.6,0,0.8,0.1V144.6z"/>
	<path class="st4" d="M134.3,141.3c-0.2,0-0.4-0.1-0.6-0.2c-0.2-0.2-0.2-0.4-0.2-0.6s0.1-0.4,0.2-0.6c0.2-0.2,0.4-0.2,0.6-0.2
		c0.2,0,0.4,0.1,0.6,0.2s0.2,0.4,0.2,0.6c0,0.2-0.1,0.4-0.2,0.6S134.5,141.3,134.3,141.3z M134.9,151.3h-1.3v-8h1.3V151.3z"/>
	<path class="st4" d="M138.8,150.2L138.8,150.2l0,1.2h-1.3v-11.8h1.3v5.2h0c0.6-1.1,1.6-1.6,2.8-1.6c1,0,1.8,0.4,2.4,1.1
		c0.6,0.7,0.9,1.7,0.9,2.9c0,1.3-0.3,2.4-1,3.2c-0.7,0.8-1.5,1.2-2.7,1.2C140.2,151.5,139.4,151.1,138.8,150.2z M138.8,147v1.1
		c0,0.7,0.2,1.2,0.6,1.7s1,0.7,1.6,0.7c0.8,0,1.4-0.3,1.8-0.9c0.4-0.6,0.7-1.4,0.7-2.5c0-0.9-0.2-1.6-0.6-2.1
		c-0.4-0.5-1-0.8-1.7-0.8c-0.7,0-1.3,0.3-1.8,0.8S138.8,146.2,138.8,147z"/>
	<path class="st4" d="M153.4,151.3h-1.3v-1.3h0c-0.5,1-1.4,1.5-2.5,1.5c-1.9,0-2.9-1.1-2.9-3.4v-4.8h1.3v4.6c0,1.7,0.6,2.5,1.9,2.5
		c0.6,0,1.1-0.2,1.5-0.7c0.4-0.5,0.6-1.1,0.6-1.8v-4.6h1.3V151.3z"/>
	<path class="st4" d="M159.7,151.3c-0.3,0.2-0.7,0.2-1.2,0.2c-1.4,0-2.1-0.8-2.1-2.3v-4.7H155v-1.1h1.4v-2l1.3-0.4v2.4h2v1.1h-2v4.5
		c0,0.5,0.1,0.9,0.3,1.1c0.2,0.2,0.5,0.3,0.9,0.3c0.3,0,0.6-0.1,0.8-0.3V151.3z"/>
	<path class="st4" d="M164.7,151.5c-1.2,0-2.1-0.4-2.8-1.1c-0.7-0.7-1.1-1.7-1.1-3c0-1.3,0.4-2.4,1.1-3.1s1.7-1.1,3-1.1
		c1.2,0,2.1,0.4,2.8,1.1c0.7,0.7,1,1.8,1,3.1c0,1.3-0.4,2.3-1.1,3.1C166.9,151.1,166,151.5,164.7,151.5z M164.8,144.2
		c-0.8,0-1.5,0.3-2,0.8c-0.5,0.6-0.7,1.3-0.7,2.3c0,0.9,0.2,1.7,0.7,2.2s1.1,0.8,1.9,0.8c0.8,0,1.5-0.3,1.9-0.8s0.7-1.3,0.7-2.3
		c0-1-0.2-1.8-0.7-2.3S165.7,144.2,164.8,144.2z"/>
	<path class="st4" d="M176.9,148.2c0,0.5-0.1,1-0.3,1.4c-0.2,0.4-0.5,0.8-0.8,1.1c-0.3,0.3-0.8,0.5-1.2,0.7s-1,0.2-1.6,0.2
		c-1.1,0-1.9-0.2-2.5-0.6v-1.4c0.8,0.6,1.6,0.9,2.6,0.9c0.4,0,0.7,0,1.1-0.1c0.3-0.1,0.6-0.2,0.8-0.4s0.4-0.4,0.5-0.7
		c0.1-0.3,0.2-0.6,0.2-0.9c0-1.5-1-2.2-3.1-2.2h-0.9V145h0.9c1.8,0,2.8-0.7,2.8-2.1c0-1.3-0.7-1.9-2.1-1.9c-0.8,0-1.5,0.3-2.2,0.8
		v-1.2c0.7-0.4,1.6-0.6,2.5-0.6c0.5,0,0.9,0.1,1.3,0.2c0.4,0.1,0.7,0.3,1,0.5c0.3,0.2,0.5,0.5,0.6,0.8s0.2,0.7,0.2,1.1
		c0,1.5-0.7,2.4-2.2,2.8v0c0.4,0,0.7,0.1,1.1,0.3c0.3,0.1,0.6,0.3,0.8,0.6s0.4,0.5,0.6,0.8S176.9,147.8,176.9,148.2z"/>
	<path class="st4" d="M179.8,144.9c-0.2,0-0.4-0.1-0.6-0.3c-0.2-0.2-0.3-0.4-0.3-0.6s0.1-0.4,0.3-0.6c0.2-0.2,0.4-0.2,0.6-0.2
		c0.2,0,0.5,0.1,0.6,0.2s0.3,0.4,0.3,0.6s-0.1,0.4-0.3,0.6S180.1,144.9,179.8,144.9z M179.8,151.5c-0.2,0-0.4-0.1-0.6-0.3
		c-0.2-0.2-0.3-0.4-0.3-0.6s0.1-0.4,0.3-0.6c0.2-0.2,0.4-0.3,0.6-0.3c0.2,0,0.5,0.1,0.6,0.3s0.3,0.4,0.3,0.6s-0.1,0.4-0.3,0.6
		S180.1,151.5,179.8,151.5z"/>
	<path class="st4" d="M194,141.3h-3.2v10h-1.3v-10h-3.2v-1.2h7.8V141.3z"/>
	<path class="st4" d="M196.3,141.3c-0.2,0-0.4-0.1-0.6-0.2c-0.2-0.2-0.2-0.4-0.2-0.6s0.1-0.4,0.2-0.6c0.2-0.2,0.4-0.2,0.6-0.2
		c0.2,0,0.4,0.1,0.6,0.2s0.2,0.4,0.2,0.6c0,0.2-0.1,0.4-0.2,0.6S196.5,141.3,196.3,141.3z M196.9,151.3h-1.3v-8h1.3V151.3z"/>
	<path class="st4" d="M200.8,150.2L200.8,150.2l0,4.8h-1.3v-11.7h1.3v1.4h0c0.6-1.1,1.6-1.6,2.8-1.6c1,0,1.8,0.4,2.4,1.1
		s0.9,1.7,0.9,2.9c0,1.3-0.3,2.4-1,3.2c-0.7,0.8-1.5,1.2-2.7,1.2C202.2,151.5,201.4,151.1,200.8,150.2z M200.8,147v1.1
		c0,0.7,0.2,1.2,0.6,1.7s1,0.7,1.6,0.7c0.8,0,1.4-0.3,1.8-0.9c0.4-0.6,0.7-1.4,0.7-2.5c0-0.9-0.2-1.6-0.6-2.1
		c-0.4-0.5-1-0.8-1.7-0.8c-0.7,0-1.3,0.3-1.8,0.8S200.8,146.2,200.8,147z"/>
	<path class="st4" d="M212.3,151.5c-1.2,0-2.1-0.4-2.8-1.1c-0.7-0.7-1.1-1.7-1.1-3c0-1.3,0.4-2.4,1.1-3.1s1.7-1.1,3-1.1
		c1.2,0,2.1,0.4,2.8,1.1c0.7,0.7,1,1.8,1,3.1c0,1.3-0.4,2.3-1.1,3.1C214.4,151.1,213.5,151.5,212.3,151.5z M212.4,144.2
		c-0.8,0-1.5,0.3-2,0.8c-0.5,0.6-0.7,1.3-0.7,2.3c0,0.9,0.2,1.7,0.7,2.2s1.1,0.8,1.9,0.8c0.8,0,1.5-0.3,1.9-0.8s0.7-1.3,0.7-2.3
		c0-1-0.2-1.8-0.7-2.3S213.2,144.2,212.4,144.2z"/>
</g>
<g class="st3">
	<path class="st4" d="M71.5,191.6c-1.6,0-2.9-0.5-3.8-1.6c-1-1-1.4-2.4-1.4-4.1c0-1.8,0.5-3.2,1.5-4.3c1-1.1,2.3-1.6,4-1.6
		c1.5,0,2.8,0.5,3.7,1.6s1.4,2.4,1.4,4.1c0,1.8-0.5,3.3-1.5,4.3S73.1,191.6,71.5,191.6z M71.6,181.2c-1.2,0-2.1,0.4-2.9,1.3
		s-1.1,2-1.1,3.3s0.4,2.5,1.1,3.3c0.7,0.8,1.6,1.3,2.8,1.3c1.2,0,2.2-0.4,2.9-1.2c0.7-0.8,1.1-1.9,1.1-3.4c0-1.5-0.3-2.6-1-3.4
		S72.8,181.2,71.6,181.2z"/>
	<path class="st4" d="M80.2,190.2L80.2,190.2l0,4.8h-1.3v-11.7h1.3v1.4h0c0.6-1.1,1.6-1.6,2.8-1.6c1,0,1.8,0.4,2.4,1.1
		s0.9,1.7,0.9,2.9c0,1.3-0.3,2.4-1,3.2c-0.7,0.8-1.5,1.2-2.7,1.2C81.6,191.6,80.8,191.1,80.2,190.2z M80.2,187v1.1
		c0,0.7,0.2,1.2,0.6,1.7s1,0.7,1.6,0.7c0.8,0,1.4-0.3,1.8-0.9c0.4-0.6,0.7-1.4,0.7-2.5c0-0.9-0.2-1.6-0.6-2.1
		c-0.4-0.5-1-0.8-1.7-0.8c-0.7,0-1.3,0.3-1.8,0.8S80.2,186.2,80.2,187z"/>
	<path class="st4" d="M94.7,187.7h-5.6c0,0.9,0.3,1.6,0.7,2.1c0.5,0.5,1.1,0.7,1.9,0.7c0.9,0,1.7-0.3,2.5-0.9v1.2
		c-0.7,0.5-1.6,0.8-2.8,0.8c-1.1,0-2-0.4-2.7-1.1c-0.6-0.7-1-1.7-1-3.1c0-1.2,0.4-2.3,1.1-3c0.7-0.8,1.6-1.2,2.6-1.2s1.9,0.3,2.4,1
		c0.6,0.7,0.9,1.6,0.9,2.8V187.7z M93.4,186.6c0-0.7-0.2-1.3-0.5-1.7s-0.8-0.6-1.5-0.6c-0.6,0-1.1,0.2-1.5,0.6s-0.7,1-0.8,1.7H93.4z
		"/>
	<path class="st4" d="M100.8,184.7c-0.2-0.2-0.5-0.3-1-0.3c-0.5,0-1,0.3-1.4,0.8s-0.6,1.2-0.6,2.1v4.1h-1.3v-8H98v1.6h0
		c0.2-0.6,0.5-1,0.8-1.3s0.8-0.5,1.3-0.5c0.3,0,0.6,0,0.8,0.1V184.7z"/>
	<path class="st4" d="M108,191.4h-1.3v-1.2h0c-0.6,1-1.4,1.4-2.5,1.4c-0.8,0-1.4-0.2-1.9-0.6c-0.5-0.4-0.7-1-0.7-1.7
		c0-1.5,0.9-2.4,2.6-2.6l2.4-0.3c0-1.4-0.5-2-1.6-2c-1,0-1.8,0.3-2.6,1V184c0.8-0.5,1.7-0.8,2.7-0.8c1.9,0,2.8,1,2.8,3V191.4z
		 M106.7,187.4l-1.9,0.3c-0.6,0.1-1,0.2-1.3,0.4c-0.3,0.2-0.5,0.6-0.5,1.1c0,0.4,0.1,0.7,0.4,1c0.3,0.2,0.6,0.4,1.1,0.4
		c0.6,0,1.2-0.2,1.6-0.7s0.6-1,0.6-1.7V187.4z"/>
	<path class="st4" d="M115.8,191c-0.6,0.4-1.3,0.6-2.2,0.6c-1.1,0-2.1-0.4-2.8-1.1c-0.7-0.7-1.1-1.7-1.1-2.9c0-1.3,0.4-2.4,1.1-3.2
		c0.8-0.8,1.8-1.2,3-1.2c0.7,0,1.3,0.1,1.9,0.4v1.3c-0.6-0.4-1.2-0.6-1.9-0.6c-0.8,0-1.5,0.3-2,0.9s-0.8,1.4-0.8,2.3
		c0,0.9,0.2,1.7,0.7,2.2s1.2,0.8,2,0.8c0.7,0,1.4-0.2,2-0.7V191z"/>
	<path class="st4" d="M118.4,181.4c-0.2,0-0.4-0.1-0.6-0.2c-0.2-0.2-0.2-0.4-0.2-0.6s0.1-0.4,0.2-0.6c0.2-0.2,0.4-0.2,0.6-0.2
		c0.2,0,0.4,0.1,0.6,0.2s0.2,0.4,0.2,0.6c0,0.2-0.1,0.4-0.2,0.6S118.7,181.4,118.4,181.4z M119,191.4h-1.3v-8h1.3V191.4z"/>
	<path class="st4" d="M125,191.6c-1.2,0-2.1-0.4-2.8-1.1c-0.7-0.7-1.1-1.7-1.1-3c0-1.3,0.4-2.4,1.1-3.1s1.7-1.1,3-1.1
		c1.2,0,2.1,0.4,2.8,1.1c0.7,0.7,1,1.8,1,3.1c0,1.3-0.4,2.3-1.1,3.1C127.2,191.2,126.2,191.6,125,191.6z M125.1,184.3
		c-0.8,0-1.5,0.3-2,0.8c-0.5,0.6-0.7,1.3-0.7,2.3c0,0.9,0.2,1.7,0.7,2.2s1.1,0.8,1.9,0.8c0.8,0,1.5-0.3,1.9-0.8s0.7-1.3,0.7-2.3
		c0-1-0.2-1.8-0.7-2.3S125.9,184.3,125.1,184.3z"/>
	<path class="st4" d="M137.7,191.4h-1.3v-4.6c0-1.7-0.6-2.5-1.9-2.5c-0.6,0-1.2,0.2-1.6,0.7c-0.4,0.5-0.6,1.1-0.6,1.8v4.6H131v-8
		h1.3v1.3h0c0.6-1,1.5-1.5,2.6-1.5c0.9,0,1.5,0.3,2,0.8c0.5,0.6,0.7,1.4,0.7,2.4V191.4z"/>
	<path class="st4" d="M144.4,191.4h-1.3v-9.7c-0.1,0.1-0.2,0.2-0.4,0.3c-0.2,0.1-0.4,0.3-0.6,0.4c-0.2,0.1-0.5,0.2-0.8,0.4
		c-0.3,0.1-0.5,0.2-0.8,0.3v-1.3c0.3-0.1,0.6-0.2,0.9-0.3c0.3-0.1,0.6-0.3,0.9-0.4s0.6-0.3,0.9-0.5c0.3-0.2,0.5-0.4,0.7-0.5h0.5
		V191.4z"/>
	<path class="st4" d="M156.4,194h-1.1c-1.6-1.8-2.4-4.1-2.4-6.8c0-2.7,0.8-5,2.4-6.9h1.2c-1.6,2-2.5,4.3-2.5,6.9
		C154,189.7,154.8,192,156.4,194z"/>
	<path class="st4" d="M159.2,191.4h-1.3v-11.8h1.3V191.4z"/>
	<path class="st4" d="M162.4,181.4c-0.2,0-0.4-0.1-0.6-0.2c-0.2-0.2-0.2-0.4-0.2-0.6s0.1-0.4,0.2-0.6c0.2-0.2,0.4-0.2,0.6-0.2
		c0.2,0,0.4,0.1,0.6,0.2s0.2,0.4,0.2,0.6c0,0.2-0.1,0.4-0.2,0.6S162.7,181.4,162.4,181.4z M163.1,191.4h-1.3v-8h1.3V191.4z"/>
	<path class="st4" d="M165.2,191.1v-1.4c0.7,0.5,1.5,0.8,2.3,0.8c1.1,0,1.7-0.4,1.7-1.1c0-0.2,0-0.4-0.1-0.5
		c-0.1-0.1-0.2-0.3-0.4-0.4s-0.4-0.2-0.6-0.3c-0.2-0.1-0.5-0.2-0.7-0.3c-0.4-0.1-0.7-0.3-0.9-0.4c-0.3-0.1-0.5-0.3-0.7-0.5
		s-0.3-0.4-0.4-0.6c-0.1-0.2-0.1-0.5-0.1-0.8c0-0.4,0.1-0.7,0.3-1s0.4-0.5,0.7-0.7c0.3-0.2,0.6-0.3,1-0.4s0.7-0.1,1.1-0.1
		c0.7,0,1.3,0.1,1.9,0.4v1.3c-0.6-0.4-1.3-0.6-2-0.6c-0.2,0-0.5,0-0.6,0.1c-0.2,0.1-0.4,0.1-0.5,0.2c-0.1,0.1-0.2,0.2-0.3,0.4
		c-0.1,0.1-0.1,0.3-0.1,0.5c0,0.2,0,0.4,0.1,0.5c0.1,0.1,0.2,0.3,0.3,0.4c0.1,0.1,0.3,0.2,0.5,0.3c0.2,0.1,0.4,0.2,0.7,0.3
		c0.4,0.1,0.7,0.3,1,0.4s0.5,0.3,0.7,0.5c0.2,0.2,0.4,0.4,0.5,0.6c0.1,0.2,0.2,0.5,0.2,0.8c0,0.4-0.1,0.7-0.3,1
		c-0.2,0.3-0.4,0.5-0.7,0.7c-0.3,0.2-0.6,0.3-1,0.4c-0.4,0.1-0.8,0.1-1.2,0.1C166.5,191.6,165.8,191.4,165.2,191.1z"/>
	<path class="st4" d="M176.2,191.3c-0.3,0.2-0.7,0.2-1.2,0.2c-1.4,0-2.1-0.8-2.1-2.3v-4.7h-1.4v-1.1h1.4v-2l1.3-0.4v2.4h2v1.1h-2
		v4.5c0,0.5,0.1,0.9,0.3,1.1c0.2,0.2,0.5,0.3,0.9,0.3c0.3,0,0.6-0.1,0.8-0.3V191.3z"/>
	<path class="st4" d="M183.6,191.4h-1.3v-1.2h0c-0.6,1-1.4,1.4-2.5,1.4c-0.8,0-1.4-0.2-1.9-0.6c-0.5-0.4-0.7-1-0.7-1.7
		c0-1.5,0.9-2.4,2.6-2.6l2.4-0.3c0-1.4-0.5-2-1.6-2c-1,0-1.8,0.3-2.6,1V184c0.8-0.5,1.7-0.8,2.7-0.8c1.9,0,2.8,1,2.8,3V191.4z
		 M182.3,187.4l-1.9,0.3c-0.6,0.1-1,0.2-1.3,0.4c-0.3,0.2-0.5,0.6-0.5,1.1c0,0.4,0.1,0.7,0.4,1c0.3,0.2,0.6,0.4,1.1,0.4
		c0.6,0,1.2-0.2,1.6-0.7s0.6-1,0.6-1.7V187.4z"/>
	<path class="st4" d="M196.1,191.4h-1.3v-1.2h0c-0.6,1-1.4,1.4-2.5,1.4c-0.8,0-1.4-0.2-1.9-0.6c-0.5-0.4-0.7-1-0.7-1.7
		c0-1.5,0.9-2.4,2.6-2.6l2.4-0.3c0-1.4-0.5-2-1.6-2c-1,0-1.8,0.3-2.6,1V184c0.8-0.5,1.7-0.8,2.7-0.8c1.9,0,2.8,1,2.8,3V191.4z
		 M194.8,187.4l-1.9,0.3c-0.6,0.1-1,0.2-1.3,0.4c-0.3,0.2-0.5,0.6-0.5,1.1c0,0.4,0.1,0.7,0.4,1c0.3,0.2,0.6,0.4,1.1,0.4
		c0.6,0,1.2-0.2,1.6-0.7s0.6-1,0.6-1.7V187.4z"/>
	<path class="st4" d="M202.7,184.7c-0.2-0.2-0.5-0.3-1-0.3c-0.5,0-1,0.3-1.4,0.8s-0.6,1.2-0.6,2.1v4.1h-1.3v-8h1.3v1.6h0
		c0.2-0.6,0.5-1,0.8-1.3s0.8-0.5,1.3-0.5c0.3,0,0.6,0,0.8,0.1V184.7z"/>
	<path class="st4" d="M210.9,190.8c0,2.9-1.4,4.4-4.2,4.4c-1,0-1.9-0.2-2.6-0.6v-1.3c0.9,0.5,1.8,0.8,2.6,0.8c2,0,3-1,3-3.1v-0.9h0
		c-0.6,1-1.5,1.5-2.8,1.5c-1,0-1.8-0.4-2.4-1.1c-0.6-0.7-0.9-1.7-0.9-2.9c0-1.4,0.3-2.4,1-3.2c0.7-0.8,1.5-1.2,2.7-1.2
		c1.1,0,1.9,0.4,2.4,1.3h0v-1.1h1.3V190.8z M209.6,187.8v-1.2c0-0.6-0.2-1.2-0.6-1.6s-1-0.7-1.6-0.7c-0.8,0-1.4,0.3-1.9,0.9
		c-0.4,0.6-0.7,1.4-0.7,2.4c0,0.9,0.2,1.6,0.6,2.1s1,0.8,1.7,0.8c0.7,0,1.3-0.3,1.8-0.8C209.4,189.2,209.6,188.6,209.6,187.8z"/>
	<path class="st4" d="M213.5,194h-1.1c1.6-1.9,2.4-4.2,2.4-6.8c0-2.6-0.8-4.9-2.5-6.9h1.2c1.6,1.9,2.4,4.2,2.4,6.9
		C216,189.8,215.2,192.1,213.5,194z"/>
	<path class="st4" d="M218.8,185c-0.2,0-0.4-0.1-0.6-0.3c-0.2-0.2-0.3-0.4-0.3-0.6s0.1-0.4,0.3-0.6c0.2-0.2,0.4-0.2,0.6-0.2
		c0.2,0,0.5,0.1,0.6,0.2s0.3,0.4,0.3,0.6s-0.1,0.4-0.3,0.6S219,185,218.8,185z M218.8,191.6c-0.2,0-0.4-0.1-0.6-0.3
		c-0.2-0.2-0.3-0.4-0.3-0.6s0.1-0.4,0.3-0.6c0.2-0.2,0.4-0.3,0.6-0.3c0.2,0,0.5,0.1,0.6,0.3s0.3,0.4,0.3,0.6s-0.1,0.4-0.3,0.6
		S219,191.6,218.8,191.6z"/>
	<path class="st4" d="M230.4,184.7c-0.2-0.2-0.5-0.3-1-0.3c-0.5,0-1,0.3-1.4,0.8s-0.6,1.2-0.6,2.1v4.1h-1.3v-8h1.3v1.6h0
		c0.2-0.6,0.5-1,0.8-1.3s0.8-0.5,1.3-0.5c0.3,0,0.6,0,0.8,0.1V184.7z"/>
	<path class="st4" d="M238.2,187.7h-5.6c0,0.9,0.3,1.6,0.7,2.1c0.5,0.5,1.1,0.7,1.9,0.7c0.9,0,1.7-0.3,2.5-0.9v1.2
		c-0.7,0.5-1.6,0.8-2.8,0.8c-1.1,0-2-0.4-2.7-1.1c-0.6-0.7-1-1.7-1-3.1c0-1.2,0.4-2.3,1.1-3c0.7-0.8,1.6-1.2,2.6-1.2s1.9,0.3,2.4,1
		c0.6,0.7,0.9,1.6,0.9,2.8V187.7z M236.9,186.6c0-0.7-0.2-1.3-0.5-1.7s-0.8-0.6-1.5-0.6c-0.6,0-1.1,0.2-1.5,0.6s-0.7,1-0.8,1.7
		H236.9z"/>
	<path class="st4" d="M243.8,191.3c-0.3,0.2-0.7,0.2-1.2,0.2c-1.4,0-2.1-0.8-2.1-2.3v-4.7h-1.4v-1.1h1.4v-2l1.3-0.4v2.4h2v1.1h-2
		v4.5c0,0.5,0.1,0.9,0.3,1.1c0.2,0.2,0.5,0.3,0.9,0.3c0.3,0,0.6-0.1,0.8-0.3V191.3z"/>
	<path class="st4" d="M248.9,191.6c-1.2,0-2.1-0.4-2.8-1.1c-0.7-0.7-1.1-1.7-1.1-3c0-1.3,0.4-2.4,1.1-3.1s1.7-1.1,3-1.1
		c1.2,0,2.1,0.4,2.8,1.1c0.7,0.7,1,1.8,1,3.1c0,1.3-0.4,2.3-1.1,3.1C251.1,191.2,250.1,191.6,248.9,191.6z M249,184.3
		c-0.8,0-1.5,0.3-2,0.8c-0.5,0.6-0.7,1.3-0.7,2.3c0,0.9,0.2,1.7,0.7,2.2s1.1,0.8,1.9,0.8c0.8,0,1.5-0.3,1.9-0.8s0.7-1.3,0.7-2.3
		c0-1-0.2-1.8-0.7-2.3S249.8,184.3,249,184.3z"/>
	<path class="st4" d="M259.1,184.7c-0.2-0.2-0.5-0.3-1-0.3c-0.5,0-1,0.3-1.4,0.8s-0.6,1.2-0.6,2.1v4.1h-1.3v-8h1.3v1.6h0
		c0.2-0.6,0.5-1,0.8-1.3s0.8-0.5,1.3-0.5c0.3,0,0.6,0,0.8,0.1V184.7z"/>
	<path class="st4" d="M267.1,191.4h-1.3v-4.6c0-1.7-0.6-2.5-1.9-2.5c-0.6,0-1.2,0.2-1.6,0.7c-0.4,0.5-0.6,1.1-0.6,1.8v4.6h-1.3v-8
		h1.3v1.3h0c0.6-1,1.5-1.5,2.6-1.5c0.9,0,1.5,0.3,2,0.8c0.5,0.6,0.7,1.4,0.7,2.4V191.4z"/>
	<path class="st4" d="M272.9,191.6c-1.2,0-2.1-0.4-2.8-1.1c-0.7-0.7-1.1-1.7-1.1-3c0-1.3,0.4-2.4,1.1-3.1s1.7-1.1,3-1.1
		c1.2,0,2.1,0.4,2.8,1.1c0.7,0.7,1,1.8,1,3.1c0,1.3-0.4,2.3-1.1,3.1C275.1,191.2,274.1,191.6,272.9,191.6z M273,184.3
		c-0.8,0-1.5,0.3-2,0.8c-0.5,0.6-0.7,1.3-0.7,2.3c0,0.9,0.2,1.7,0.7,2.2s1.1,0.8,1.9,0.8c0.8,0,1.5-0.3,1.9-0.8s0.7-1.3,0.7-2.3
		c0-1-0.2-1.8-0.7-2.3S273.8,184.3,273,184.3z"/>
</g>
<g class="st3">
	<path class="st4" d="M71.5,215.6c-1.6,0-2.9-0.5-3.8-1.6c-1-1-1.4-2.4-1.4-4.1c0-1.8,0.5-3.2,1.5-4.3c1-1.1,2.3-1.6,4-1.6
		c1.5,0,2.8,0.5,3.7,1.6s1.4,2.4,1.4,4.1c0,1.8-0.5,3.3-1.5,4.3S73.1,215.6,71.5,215.6z M71.6,205.2c-1.2,0-2.1,0.4-2.9,1.3
		s-1.1,2-1.1,3.3s0.4,2.5,1.1,3.3c0.7,0.8,1.6,1.3,2.8,1.3c1.2,0,2.2-0.4,2.9-1.2c0.7-0.8,1.1-1.9,1.1-3.4c0-1.5-0.3-2.6-1-3.4
		S72.8,205.2,71.6,205.2z"/>
	<path class="st4" d="M80.2,214.2L80.2,214.2l0,4.8h-1.3v-11.7h1.3v1.4h0c0.6-1.1,1.6-1.6,2.8-1.6c1,0,1.8,0.4,2.4,1.1
		s0.9,1.7,0.9,2.9c0,1.3-0.3,2.4-1,3.2c-0.7,0.8-1.5,1.2-2.7,1.2C81.6,215.6,80.8,215.1,80.2,214.2z M80.2,211v1.1
		c0,0.7,0.2,1.2,0.6,1.7s1,0.7,1.6,0.7c0.8,0,1.4-0.3,1.8-0.9c0.4-0.6,0.7-1.4,0.7-2.5c0-0.9-0.2-1.6-0.6-2.1
		c-0.4-0.5-1-0.8-1.7-0.8c-0.7,0-1.3,0.3-1.8,0.8S80.2,210.2,80.2,211z"/>
	<path class="st4" d="M94.7,211.7h-5.6c0,0.9,0.3,1.6,0.7,2.1c0.5,0.5,1.1,0.7,1.9,0.7c0.9,0,1.7-0.3,2.5-0.9v1.2
		c-0.7,0.5-1.6,0.8-2.8,0.8c-1.1,0-2-0.4-2.7-1.1c-0.6-0.7-1-1.7-1-3.1c0-1.2,0.4-2.3,1.1-3c0.7-0.8,1.6-1.2,2.6-1.2s1.9,0.3,2.4,1
		c0.6,0.7,0.9,1.6,0.9,2.8V211.7z M93.4,210.6c0-0.7-0.2-1.3-0.5-1.7s-0.8-0.6-1.5-0.6c-0.6,0-1.1,0.2-1.5,0.6s-0.7,1-0.8,1.7H93.4z
		"/>
	<path class="st4" d="M100.8,208.7c-0.2-0.2-0.5-0.3-1-0.3c-0.5,0-1,0.3-1.4,0.8s-0.6,1.2-0.6,2.1v4.1h-1.3v-8H98v1.6h0
		c0.2-0.6,0.5-1,0.8-1.3s0.8-0.5,1.3-0.5c0.3,0,0.6,0,0.8,0.1V208.7z"/>
	<path class="st4" d="M108,215.4h-1.3v-1.2h0c-0.6,1-1.4,1.4-2.5,1.4c-0.8,0-1.4-0.2-1.9-0.6c-0.5-0.4-0.7-1-0.7-1.7
		c0-1.5,0.9-2.4,2.6-2.6l2.4-0.3c0-1.4-0.5-2-1.6-2c-1,0-1.8,0.3-2.6,1V208c0.8-0.5,1.7-0.8,2.7-0.8c1.9,0,2.8,1,2.8,3V215.4z
		 M106.7,211.4l-1.9,0.3c-0.6,0.1-1,0.2-1.3,0.4c-0.3,0.2-0.5,0.6-0.5,1.1c0,0.4,0.1,0.7,0.4,1c0.3,0.2,0.6,0.4,1.1,0.4
		c0.6,0,1.2-0.2,1.6-0.7s0.6-1,0.6-1.7V211.4z"/>
	<path class="st4" d="M115.8,215c-0.6,0.4-1.3,0.6-2.2,0.6c-1.1,0-2.1-0.4-2.8-1.1c-0.7-0.7-1.1-1.7-1.1-2.9c0-1.3,0.4-2.4,1.1-3.2
		c0.8-0.8,1.8-1.2,3-1.2c0.7,0,1.3,0.1,1.9,0.4v1.3c-0.6-0.4-1.2-0.6-1.9-0.6c-0.8,0-1.5,0.3-2,0.9s-0.8,1.4-0.8,2.3
		c0,0.9,0.2,1.7,0.7,2.2s1.2,0.8,2,0.8c0.7,0,1.4-0.2,2-0.7V215z"/>
	<path class="st4" d="M118.4,205.4c-0.2,0-0.4-0.1-0.6-0.2c-0.2-0.2-0.2-0.4-0.2-0.6s0.1-0.4,0.2-0.6c0.2-0.2,0.4-0.2,0.6-0.2
		c0.2,0,0.4,0.1,0.6,0.2s0.2,0.4,0.2,0.6c0,0.2-0.1,0.4-0.2,0.6S118.7,205.4,118.4,205.4z M119,215.4h-1.3v-8h1.3V215.4z"/>
	<path class="st4" d="M125,215.6c-1.2,0-2.1-0.4-2.8-1.1c-0.7-0.7-1.1-1.7-1.1-3c0-1.3,0.4-2.4,1.1-3.1s1.7-1.1,3-1.1
		c1.2,0,2.1,0.4,2.8,1.1c0.7,0.7,1,1.8,1,3.1c0,1.3-0.4,2.3-1.1,3.1C127.2,215.2,126.2,215.6,125,215.6z M125.1,208.3
		c-0.8,0-1.5,0.3-2,0.8c-0.5,0.6-0.7,1.3-0.7,2.3c0,0.9,0.2,1.7,0.7,2.2s1.1,0.8,1.9,0.8c0.8,0,1.5-0.3,1.9-0.8s0.7-1.3,0.7-2.3
		c0-1-0.2-1.8-0.7-2.3S125.9,208.3,125.1,208.3z"/>
	<path class="st4" d="M137.7,215.4h-1.3v-4.6c0-1.7-0.6-2.5-1.9-2.5c-0.6,0-1.2,0.2-1.6,0.7c-0.4,0.5-0.6,1.1-0.6,1.8v4.6H131v-8
		h1.3v1.3h0c0.6-1,1.5-1.5,2.6-1.5c0.9,0,1.5,0.3,2,0.8c0.5,0.6,0.7,1.4,0.7,2.4V215.4z"/>
	<path class="st4" d="M144.8,207.1c0-0.3-0.1-0.6-0.2-0.9c-0.1-0.3-0.3-0.5-0.4-0.6c-0.2-0.2-0.4-0.3-0.7-0.4s-0.5-0.1-0.8-0.1
		c-0.2,0-0.5,0-0.7,0.1c-0.2,0.1-0.5,0.2-0.7,0.3s-0.4,0.3-0.7,0.4s-0.4,0.4-0.6,0.6v-1.4c0.4-0.3,0.8-0.6,1.2-0.8s1-0.3,1.6-0.3
		c0.5,0,0.9,0.1,1.3,0.2s0.7,0.3,1,0.6c0.3,0.3,0.5,0.6,0.7,0.9s0.2,0.8,0.2,1.3c0,0.4-0.1,0.8-0.2,1.2s-0.3,0.7-0.5,1
		c-0.2,0.3-0.5,0.6-0.8,0.9s-0.7,0.6-1.1,0.9c-0.5,0.4-1,0.7-1.3,1c-0.3,0.3-0.6,0.5-0.8,0.7c-0.2,0.2-0.3,0.5-0.4,0.7
		c-0.1,0.2-0.1,0.5-0.1,0.8h5.6v1.1h-6.9v-0.6c0-0.5,0.1-0.9,0.2-1.3c0.1-0.4,0.3-0.7,0.5-1c0.2-0.3,0.6-0.7,0.9-1
		c0.4-0.3,0.9-0.7,1.4-1.1c0.4-0.3,0.7-0.6,1-0.8s0.5-0.5,0.7-0.8c0.2-0.3,0.3-0.5,0.4-0.8S144.8,207.4,144.8,207.1z"/>
	<path class="st4" d="M156.4,218h-1.1c-1.6-1.8-2.4-4.1-2.4-6.8c0-2.7,0.8-5,2.4-6.9h1.2c-1.6,2-2.5,4.3-2.5,6.9
		C154,213.7,154.8,216,156.4,218z"/>
	<path class="st4" d="M159.2,215.4h-1.3v-11.8h1.3V215.4z"/>
	<path class="st4" d="M162.4,205.4c-0.2,0-0.4-0.1-0.6-0.2c-0.2-0.2-0.2-0.4-0.2-0.6s0.1-0.4,0.2-0.6c0.2-0.2,0.4-0.2,0.6-0.2
		c0.2,0,0.4,0.1,0.6,0.2s0.2,0.4,0.2,0.6c0,0.2-0.1,0.4-0.2,0.6S162.7,205.4,162.4,205.4z M163.1,215.4h-1.3v-8h1.3V215.4z"/>
	<path class="st4" d="M165.2,215.1v-1.4c0.7,0.5,1.5,0.8,2.3,0.8c1.1,0,1.7-0.4,1.7-1.1c0-0.2,0-0.4-0.1-0.5
		c-0.1-0.1-0.2-0.3-0.4-0.4s-0.4-0.2-0.6-0.3c-0.2-0.1-0.5-0.2-0.7-0.3c-0.4-0.1-0.7-0.3-0.9-0.4c-0.3-0.1-0.5-0.3-0.7-0.5
		s-0.3-0.4-0.4-0.6c-0.1-0.2-0.1-0.5-0.1-0.8c0-0.4,0.1-0.7,0.3-1s0.4-0.5,0.7-0.7c0.3-0.2,0.6-0.3,1-0.4s0.7-0.1,1.1-0.1
		c0.7,0,1.3,0.1,1.9,0.4v1.3c-0.6-0.4-1.3-0.6-2-0.6c-0.2,0-0.5,0-0.6,0.1c-0.2,0.1-0.4,0.1-0.5,0.2c-0.1,0.1-0.2,0.2-0.3,0.4
		c-0.1,0.1-0.1,0.3-0.1,0.5c0,0.2,0,0.4,0.1,0.5c0.1,0.1,0.2,0.3,0.3,0.4c0.1,0.1,0.3,0.2,0.5,0.3c0.2,0.1,0.4,0.2,0.7,0.3
		c0.4,0.1,0.7,0.3,1,0.4s0.5,0.3,0.7,0.5c0.2,0.2,0.4,0.4,0.5,0.6c0.1,0.2,0.2,0.5,0.2,0.8c0,0.4-0.1,0.7-0.3,1
		c-0.2,0.3-0.4,0.5-0.7,0.7c-0.3,0.2-0.6,0.3-1,0.4c-0.4,0.1-0.8,0.1-1.2,0.1C166.5,215.6,165.8,215.4,165.2,215.1z"/>
	<path class="st4" d="M176.2,215.3c-0.3,0.2-0.7,0.2-1.2,0.2c-1.4,0-2.1-0.8-2.1-2.3v-4.7h-1.4v-1.1h1.4v-2l1.3-0.4v2.4h2v1.1h-2
		v4.5c0,0.5,0.1,0.9,0.3,1.1c0.2,0.2,0.5,0.3,0.9,0.3c0.3,0,0.6-0.1,0.8-0.3V215.3z"/>
	<path class="st4" d="M183.6,215.4h-1.3v-1.2h0c-0.6,1-1.4,1.4-2.5,1.4c-0.8,0-1.4-0.2-1.9-0.6c-0.5-0.4-0.7-1-0.7-1.7
		c0-1.5,0.9-2.4,2.6-2.6l2.4-0.3c0-1.4-0.5-2-1.6-2c-1,0-1.8,0.3-2.6,1V208c0.8-0.5,1.7-0.8,2.7-0.8c1.9,0,2.8,1,2.8,3V215.4z
		 M182.3,211.4l-1.9,0.3c-0.6,0.1-1,0.2-1.3,0.4c-0.3,0.2-0.5,0.6-0.5,1.1c0,0.4,0.1,0.7,0.4,1c0.3,0.2,0.6,0.4,1.1,0.4
		c0.6,0,1.2-0.2,1.6-0.7s0.6-1,0.6-1.7V211.4z"/>
	<path class="st4" d="M196.1,215.4h-1.3v-1.2h0c-0.6,1-1.4,1.4-2.5,1.4c-0.8,0-1.4-0.2-1.9-0.6c-0.5-0.4-0.7-1-0.7-1.7
		c0-1.5,0.9-2.4,2.6-2.6l2.4-0.3c0-1.4-0.5-2-1.6-2c-1,0-1.8,0.3-2.6,1V208c0.8-0.5,1.7-0.8,2.7-0.8c1.9,0,2.8,1,2.8,3V215.4z
		 M194.8,211.4l-1.9,0.3c-0.6,0.1-1,0.2-1.3,0.4c-0.3,0.2-0.5,0.6-0.5,1.1c0,0.4,0.1,0.7,0.4,1c0.3,0.2,0.6,0.4,1.1,0.4
		c0.6,0,1.2-0.2,1.6-0.7s0.6-1,0.6-1.7V211.4z"/>
	<path class="st4" d="M202.7,208.7c-0.2-0.2-0.5-0.3-1-0.3c-0.5,0-1,0.3-1.4,0.8s-0.6,1.2-0.6,2.1v4.1h-1.3v-8h1.3v1.6h0
		c0.2-0.6,0.5-1,0.8-1.3s0.8-0.5,1.3-0.5c0.3,0,0.6,0,0.8,0.1V208.7z"/>
	<path class="st4" d="M210.9,214.8c0,2.9-1.4,4.4-4.2,4.4c-1,0-1.9-0.2-2.6-0.6v-1.3c0.9,0.5,1.8,0.8,2.6,0.8c2,0,3-1,3-3.1v-0.9h0
		c-0.6,1-1.5,1.5-2.8,1.5c-1,0-1.8-0.4-2.4-1.1c-0.6-0.7-0.9-1.7-0.9-2.9c0-1.4,0.3-2.4,1-3.2c0.7-0.8,1.5-1.2,2.7-1.2
		c1.1,0,1.9,0.4,2.4,1.3h0v-1.1h1.3V214.8z M209.6,211.8v-1.2c0-0.6-0.2-1.2-0.6-1.6s-1-0.7-1.6-0.7c-0.8,0-1.4,0.3-1.9,0.9
		c-0.4,0.6-0.7,1.4-0.7,2.4c0,0.9,0.2,1.6,0.6,2.1s1,0.8,1.7,0.8c0.7,0,1.3-0.3,1.8-0.8C209.4,213.2,209.6,212.6,209.6,211.8z"/>
	<path class="st4" d="M213.5,218h-1.1c1.6-1.9,2.4-4.2,2.4-6.8c0-2.6-0.8-4.9-2.5-6.9h1.2c1.6,1.9,2.4,4.2,2.4,6.9
		C216,213.8,215.2,216.1,213.5,218z"/>
	<path class="st4" d="M218.8,209c-0.2,0-0.4-0.1-0.6-0.3c-0.2-0.2-0.3-0.4-0.3-0.6s0.1-0.4,0.3-0.6c0.2-0.2,0.4-0.2,0.6-0.2
		c0.2,0,0.5,0.1,0.6,0.2s0.3,0.4,0.3,0.6s-0.1,0.4-0.3,0.6S219,209,218.8,209z M218.8,215.6c-0.2,0-0.4-0.1-0.6-0.3
		c-0.2-0.2-0.3-0.4-0.3-0.6s0.1-0.4,0.3-0.6c0.2-0.2,0.4-0.3,0.6-0.3c0.2,0,0.5,0.1,0.6,0.3s0.3,0.4,0.3,0.6s-0.1,0.4-0.3,0.6
		S219,215.6,218.8,215.6z"/>
	<path class="st4" d="M230.4,208.7c-0.2-0.2-0.5-0.3-1-0.3c-0.5,0-1,0.3-1.4,0.8s-0.6,1.2-0.6,2.1v4.1h-1.3v-8h1.3v1.6h0
		c0.2-0.6,0.5-1,0.8-1.3s0.8-0.5,1.3-0.5c0.3,0,0.6,0,0.8,0.1V208.7z"/>
	<path class="st4" d="M238.2,211.7h-5.6c0,0.9,0.3,1.6,0.7,2.1c0.5,0.5,1.1,0.7,1.9,0.7c0.9,0,1.7-0.3,2.5-0.9v1.2
		c-0.7,0.5-1.6,0.8-2.8,0.8c-1.1,0-2-0.4-2.7-1.1c-0.6-0.7-1-1.7-1-3.1c0-1.2,0.4-2.3,1.1-3c0.7-0.8,1.6-1.2,2.6-1.2s1.9,0.3,2.4,1
		c0.6,0.7,0.9,1.6,0.9,2.8V211.7z M236.9,210.6c0-0.7-0.2-1.3-0.5-1.7s-0.8-0.6-1.5-0.6c-0.6,0-1.1,0.2-1.5,0.6s-0.7,1-0.8,1.7
		H236.9z"/>
	<path class="st4" d="M243.8,215.3c-0.3,0.2-0.7,0.2-1.2,0.2c-1.4,0-2.1-0.8-2.1-2.3v-4.7h-1.4v-1.1h1.4v-2l1.3-0.4v2.4h2v1.1h-2
		v4.5c0,0.5,0.1,0.9,0.3,1.1c0.2,0.2,0.5,0.3,0.9,0.3c0.3,0,0.6-0.1,0.8-0.3V215.3z"/>
	<path class="st4" d="M248.9,215.6c-1.2,0-2.1-0.4-2.8-1.1c-0.7-0.7-1.1-1.7-1.1-3c0-1.3,0.4-2.4,1.1-3.1s1.7-1.1,3-1.1
		c1.2,0,2.1,0.4,2.8,1.1c0.7,0.7,1,1.8,1,3.1c0,1.3-0.4,2.3-1.1,3.1C251.1,215.2,250.1,215.6,248.9,215.6z M249,208.3
		c-0.8,0-1.5,0.3-2,0.8c-0.5,0.6-0.7,1.3-0.7,2.3c0,0.9,0.2,1.7,0.7,2.2s1.1,0.8,1.9,0.8c0.8,0,1.5-0.3,1.9-0.8s0.7-1.3,0.7-2.3
		c0-1-0.2-1.8-0.7-2.3S249.8,208.3,249,208.3z"/>
	<path class="st4" d="M259.1,208.7c-0.2-0.2-0.5-0.3-1-0.3c-0.5,0-1,0.3-1.4,0.8s-0.6,1.2-0.6,2.1v4.1h-1.3v-8h1.3v1.6h0
		c0.2-0.6,0.5-1,0.8-1.3s0.8-0.5,1.3-0.5c0.3,0,0.6,0,0.8,0.1V208.7z"/>
	<path class="st4" d="M267.1,215.4h-1.3v-4.6c0-1.7-0.6-2.5-1.9-2.5c-0.6,0-1.2,0.2-1.6,0.7c-0.4,0.5-0.6,1.1-0.6,1.8v4.6h-1.3v-8
		h1.3v1.3h0c0.6-1,1.5-1.5,2.6-1.5c0.9,0,1.5,0.3,2,0.8c0.5,0.6,0.7,1.4,0.7,2.4V215.4z"/>
	<path class="st4" d="M272.9,215.6c-1.2,0-2.1-0.4-2.8-1.1c-0.7-0.7-1.1-1.7-1.1-3c0-1.3,0.4-2.4,1.1-3.1s1.7-1.1,3-1.1
		c1.2,0,2.1,0.4,2.8,1.1c0.7,0.7,1,1.8,1,3.1c0,1.3-0.4,2.3-1.1,3.1C275.1,215.2,274.1,215.6,272.9,215.6z M273,208.3
		c-0.8,0-1.5,0.3-2,0.8c-0.5,0.6-0.7,1.3-0.7,2.3c0,0.9,0.2,1.7,0.7,2.2s1.1,0.8,1.9,0.8c0.8,0,1.5-0.3,1.9-0.8s0.7-1.3,0.7-2.3
		c0-1-0.2-1.8-0.7-2.3S273.8,208.3,273,208.3z"/>
</g>
<line id="Línea_151" class="st5" x1="0.3" y1="77.8" x2="320.3" y2="77.8"/>
<line id="Línea_152" class="st5" x1="0.3" y1="165.8" x2="320.3" y2="165.8"/>
</svg>
