<svg xmlns="http://www.w3.org/2000/svg" width="65" height="65" viewBox="0 0 65 65">
  <g id="Grupo_141333" data-name="Grupo 141333" transform="translate(-1344 -1120)">
    <g id="Grupo_80069" data-name="Grupo 80069" transform="translate(0 50)">
      <circle id="Elipse_4780" data-name="Elipse 4780" cx="32.5" cy="32.5" r="32.5" transform="translate(1344 1135) rotate(-90)" fill="#ffa726"/>
      <path id="Unión_1" data-name="Unión 1" d="M4674.813,11736.45V11710.5l-11.868,11.858a2.9,2.9,0,0,1-4.1-4.113l17.525-17.486a2.894,2.894,0,0,1,4,.085l17.4,17.413a2.916,2.916,0,0,1,0,4.113,2.887,2.887,0,0,1-4.1,0l-11.865-11.872v25.949a3.5,3.5,0,1,1-7,0Z" transform="translate(-3301.299 -10615.477)" fill="#fff"/>
    </g>
  </g>
</svg>
