<svg id="img12" xmlns="http://www.w3.org/2000/svg" xmlns:xlink="http://www.w3.org/1999/xlink" width="482" height="390.187" viewBox="0 0 482 390.187">
  <defs>
    <clipPath id="clip-path">
      <rect id="Rectángulo_37161" data-name="Rectángulo 37161" width="482" height="390.187" fill="none"/>
    </clipPath>
    <clipPath id="clip-path-3">
      <rect id="Rectángulo_37158" data-name="Rectángulo 37158" width="62.233" height="62.229" fill="none"/>
    </clipPath>
    <clipPath id="clip-path-4">
      <rect id="Rectángulo_37157" data-name="Rectángulo 37157" width="10.86" height="7.83" fill="none"/>
    </clipPath>
    <clipPath id="clip-path-6">
      <rect id="Rectángulo_37159" data-name="Rectángulo 37159" width="92.832" height="76.573" fill="none"/>
    </clipPath>
  </defs>
  <g id="Grupo_142296" data-name="Grupo 142296" clip-path="url(#clip-path)">
    <g id="Grupo_142295" data-name="Grupo 142295" transform="translate(0 0)">
      <g id="Grupo_142294" data-name="Grupo 142294" clip-path="url(#clip-path)">
        <path id="Trazado_183454" data-name="Trazado 183454" d="M437.46,246.071c-.448,3.8-1.074,7.612-1.835,11.348a141.489,141.489,0,0,1-6.954,24.8c-1,2.7-2.075,5.4-3.215,8.027-.936,2.006-1.868,4.081-2.872,6.051v.036c-1.212,2.388-2.421,4.7-3.735,6.99-1.627,2.905-3.39,5.811-5.26,8.647a162.135,162.135,0,0,1-10.1,13.736v.033a174.96,174.96,0,0,1-21.45,21.9c-.24.207-.448.382-.692.59l-.033.033C363.945,363,348.552,367.985,333.5,368.4h-.033a82.55,82.55,0,0,1-9.688-.313,151.808,151.808,0,0,1-16.259-2.49c-16.918-3.459-34.63-8.858-55.421-8.927-1-.033-2.006,0-3.011,0-.171,0-.346.036-.553.036-2.662.069-5.432.207-8.2.484a111.542,111.542,0,0,0-14.668,2.319c-3.044.655-6.193,1.486-9.375,2.454-2.559.761-5.119,1.66-7.817,2.629-.8.313-1.627.59-2.424.936-.171.069-.277.1-.448.171-4.358,1.729-8.614,3.324-12.87,4.845-1.558.586-3.149,1.176-4.7,1.693-3.6,1.314-7.092,2.494-10.554,3.6-1.762.586-3.492,1.14-5.221,1.66-19.583,6.226-37.433,10.274-53.59,11.9a138.4,138.4,0,0,1-19.754.692,16.974,16.974,0,0,1-1.9-.138c-1.7-.036-3.39-.175-5.017-.346-1.212-.138-2.421-.277-3.633-.451-1.383-.175-2.767-.382-4.117-.659-.761-.138-1.522-.31-2.283-.484-1.107-.171-2.214-.448-3.32-.725A69.5,69.5,0,0,1,43.8,366.737c-9.48-10.412-16.882-24.458-22-42.723-12.768-44.973,19.441-68.393,39.61-98.56,2.144-3.254,4.187-6.539,5.985-9.964a73.732,73.732,0,0,0,7.645-21.276c4.533-23.941-15.6-48.053-18.753-73.341a87.218,87.218,0,0,1,.138-22.244,78.027,78.027,0,0,1,1.456-7.853c5.705-25.117,22.867-49.782,54.832-64.8,7.369-3.462,14.77-6.539,22.175-9.306,1-.418,2.075-.8,3.113-1.143l.936-.313a7.577,7.577,0,0,1,.794-.277c2.319-.863,4.707-1.66,7.059-2.385,45.734-14.806,91.468-16.328,132.4-5.57,2.974.725,5.913,1.591,8.854,2.49,1.558.451,3.08.968,4.635,1.489a187.714,187.714,0,0,1,49.127,24.906c2.8,1.9,5.465,3.91,8.13,5.985a189.7,189.7,0,0,1,40.371,43.972q4.254,6.384,8.13,12.764c4.394,7.267,8.475,14.53,12.145,21.76,22.314,43.659,31.583,86.556,26.879,125.719" transform="translate(43.347 0)" fill="#ecf5ff"/>
        <path id="Trazado_183455" data-name="Trazado 183455" d="M.392,96.58c3.238,26.612,25.677,45.777,50.115,42.8S92.136,112.424,88.9,85.812,63.225,40.035,38.783,43.01-2.846,69.968.392,96.58" transform="translate(0 97.966)" fill="#d2e2ed"/>
        <path id="Trazado_183456" data-name="Trazado 183456" d="M41.449,29.465c20.528,0,37.229,13.6,37.229,30.311,0,13.884-11.776,25.71-28.1,29.1.721,2.329,3.837,11.849,3.38,12.2-.613.474-3.4-1.762-4.052-2.171,0,0-14.415-9.19-14.724-9.385C17.235,87.034,4.227,74.645,4.227,59.776c0-16.714,16.7-30.311,37.222-30.311" transform="translate(9.697 67.592)" fill="#4581c5"/>
        <path id="Trazado_183457" data-name="Trazado 183457" d="M17.158,41.885a4.452,4.452,0,1,1-4.46-4.45,4.455,4.455,0,0,1,4.46,4.45" transform="translate(18.935 85.876)" fill="#fff"/>
        <path id="Trazado_183458" data-name="Trazado 183458" d="M22.924,41.885a4.452,4.452,0,1,1-4.46-4.45,4.453,4.453,0,0,1,4.46,4.45" transform="translate(32.162 85.876)" fill="#fff"/>
        <path id="Trazado_183459" data-name="Trazado 183459" d="M28.884,41.885a4.452,4.452,0,1,1-4.453-4.45,4.447,4.447,0,0,1,4.453,4.45" transform="translate(45.834 85.876)" fill="#fff"/>
        <path id="Trazado_183460" data-name="Trazado 183460" d="M74.02,41.168c-.036,0-.076,0-.112-.007a.867.867,0,0,1-.748-.968l.066-.514a.865.865,0,1,1,1.716.221l-.066.514a.863.863,0,0,1-.856.754" transform="translate(167.812 89.293)" fill="#334d5c"/>
        <path id="Trazado_183461" data-name="Trazado 183461" d="M72.364,80.388c-.036,0-.076,0-.115-.007a.867.867,0,0,1-.744-.972l.138-1.077a.865.865,0,1,1,1.716.221l-.138,1.08a.868.868,0,0,1-.856.754m.606-4.677a.639.639,0,0,1-.112-.007.866.866,0,0,1-.748-.968l.138-1.08a.865.865,0,0,1,1.716.224l-.138,1.077a.866.866,0,0,1-.856.754m.606-4.674c-.036,0-.076,0-.112-.007a.87.87,0,0,1-.748-.972l.142-1.077a.865.865,0,0,1,1.716.221l-.142,1.08a.866.866,0,0,1-.856.754m.606-4.677a.638.638,0,0,1-.112-.007.869.869,0,0,1-.748-.968l.142-1.077a.865.865,0,1,1,1.716.221l-.142,1.08a.863.863,0,0,1-.856.751m.606-4.674a.659.659,0,0,1-.112-.007.865.865,0,0,1-.748-.968l.138-1.077a.865.865,0,0,1,1.716.217l-.138,1.08a.863.863,0,0,1-.856.754m.606-4.674c-.036,0-.072,0-.112-.007a.867.867,0,0,1-.748-.968l.138-1.08a.876.876,0,0,1,.968-.748.864.864,0,0,1,.748.968l-.138,1.08a.866.866,0,0,1-.856.754M76,52.333a.639.639,0,0,1-.112-.007.864.864,0,0,1-.748-.968l.138-1.08A.865.865,0,0,1,77,50.5l-.138,1.08a.865.865,0,0,1-.856.751m.606-4.674c-.036,0-.076,0-.112-.007a.867.867,0,0,1-.748-.972l.142-1.077a.864.864,0,1,1,1.713.224L77.463,46.9a.863.863,0,0,1-.856.754m.606-4.674c-.036,0-.076,0-.112-.007a.869.869,0,0,1-.748-.968l.142-1.08a.865.865,0,1,1,1.716.224l-.142,1.077a.863.863,0,0,1-.856.754" transform="translate(164.013 92.154)" fill="#334d5c"/>
        <path id="Trazado_183462" data-name="Trazado 183462" d="M72.2,55.2c-.036,0-.076,0-.112-.007a.867.867,0,0,1-.748-.968l.066-.514a.86.86,0,0,1,.968-.751.869.869,0,0,1,.748.968l-.066.517a.866.866,0,0,1-.856.754" transform="translate(163.641 121.458)" fill="#334d5c"/>
        <path id="Trazado_183463" data-name="Trazado 183463" d="M49.082,68.3s-11.328-6.545-24.161,2.013S8.813,87.178,12.084,99.261s15.607,39.261,21.391,53.606c3.416,8.462,15.413,35.924,24.679,57.029C72.315,232.736,102.59,237.3,102.59,237.3L84.565,188.353Z" transform="translate(25.006 151.198)" fill="#bcb3bd"/>
        <path id="Trazado_183464" data-name="Trazado 183464" d="M63.43,95.852,48.94,73.634a15.677,15.677,0,0,0-21.052-4.967l-5.5,3.218a15.681,15.681,0,0,0-6.16,20.433l69.026,141.4,9.082,2.27Z" transform="translate(33.558 152.59)" fill="#a098a0"/>
        <path id="Trazado_183465" data-name="Trazado 183465" d="M335.241,133.524a161.588,161.588,0,0,1-10.1,13.733v.036l-95.964,39.854c-16.918-3.459-34.63-8.858-55.421-8.927-1-.033-2.006,0-3.011,0-.175,0-.346.036-.553.036-2.665.066-5.432.207-8.2.484L53.051,96.922,162.784,77.79Z" transform="translate(121.699 178.45)" fill="#f9d6bd"/>
        <path id="Trazado_183466" data-name="Trazado 183466" d="M60.045,84.8l103.682,77.873a111.459,111.459,0,0,0-14.668,2.319L52.294,86.907Z" transform="translate(119.962 194.521)" fill="#e5bba5"/>
        <path id="Trazado_183467" data-name="Trazado 183467" d="M202.485,98.89a174.934,174.934,0,0,1-21.447,21.9c-.244.207-.451.382-.692.59l-.036.033L132.5,141.544h-.036a81.764,81.764,0,0,1-9.684-.31,151.871,151.871,0,0,1-16.262-2.49Z" transform="translate(244.351 226.853)" fill="#e5bba5"/>
        <path id="Trazado_183468" data-name="Trazado 183468" d="M202.485,98.88a172.888,172.888,0,0,1-21.447,21.931c-.244.211-.484.418-.728.626L132.5,141.57a82.351,82.351,0,0,1-9.721-.313,151.867,151.867,0,0,1-16.262-2.49Z" transform="translate(244.351 226.83)" fill="#f9c9ae"/>
        <path id="Trazado_183469" data-name="Trazado 183469" d="M155.756,132.466l31.711-13.337L105.671,84.9,80.254,91.192l2.263,5.284Z" transform="translate(184.102 194.753)" fill="#4e4b63"/>
        <path id="Trazado_183470" data-name="Trazado 183470" d="M134.887,95.289V101.2l-31.711,7.421Z" transform="translate(236.683 218.591)" fill="#322f41"/>
        <path id="Trazado_183471" data-name="Trazado 183471" d="M140.017,89.439c12.517,3.534,16.9,9.035,9.8,12.29s-23.005,3.024-35.522-.511-16.9-9.035-9.8-12.29,23.009-3.024,35.526.511" transform="translate(231.905 198.732)" fill="#322f41"/>
        <path id="Trazado_183472" data-name="Trazado 183472" d="M106.158,82.567l5.033,14.1,17.616,3.521-5.537-15.1Z" transform="translate(243.526 189.408)" fill="#322f41"/>
        <path id="Trazado_183473" data-name="Trazado 183473" d="M95.259,146.79l121.776,29.432a7.62,7.62,0,0,0,9.322-6.272L243.7,54.865a4.3,4.3,0,0,0-4.276-4.941l-136.737.827a4.56,4.56,0,0,0-4.509,4.088l-8.7,83.76a7.619,7.619,0,0,0,5.788,8.192" transform="translate(205.153 114.525)" fill="#322f41"/>
        <path id="Trazado_183474" data-name="Trazado 183474" d="M217.008,157.075l15.87-105.312-133.38.8-8.087,77.01Z" transform="translate(209.698 118.743)" fill="#8ed5a8"/>
        <path id="Trazado_183475" data-name="Trazado 183475" d="M104.365,111.83s3.6,1.6,9.816.863,14.546-3.923,16.1-4.9,2.711-3.251,1.5-4.157-13.225-2.869-14.7-2.217a62.511,62.511,0,0,0-6.17,2.863,32.369,32.369,0,0,0-2.942,4.289,42.229,42.229,0,0,1-3.6,3.264" transform="translate(239.413 232.346)" fill="#322f41"/>
        <path id="Trazado_183476" data-name="Trazado 183476" d="M103.267,112.666c.346,2.2,3.515,4.005,6.618,3.515s11.279-7.029,14.629-7.682a35.641,35.641,0,0,1,9.806-.491c1.472.326-3.1-4.5-5.965-5.475s-10.705-3.923-15.116-2.862-11.114,5.722-9.971,12.995" transform="translate(236.597 228.124)" fill="#4e4b63"/>
        <path id="Trazado_183477" data-name="Trazado 183477" d="M95.283,57.434s3.8,11.911,4.486,21.276c.856,7.5,4.111,7.721,5.867,8.522s.544,4.279-4.19,6.015c0,0,.863,18.143-3.541,21.243s-20.087-.385-22.169.692-3.067,13.568-2.645,17.241c0,0-21.586-11-31.817-11.638l.474-18.858s-16.625-32.2-4.641-45.569,41.485-18.3,58.175,1.077" transform="translate(75.165 102.243)" fill="#ffa399"/>
        <path id="Trazado_183478" data-name="Trazado 183478" d="M104.623,117.477c-2.955.843-13.308,4.437-17.649,3.208-4.279-1.209-10.129-15.383-8.024-34.613.455-4.147,3.992-8.923,6.98-12.544A12.9,12.9,0,0,1,95.9,68.865c13.631.046,18.641-3.3,12.764-13.782a12.923,12.923,0,0,0-1.327-1.937,32.317,32.317,0,0,0-14.263-9.757C77.718,38.2,47.113,34.755,36.2,59.622c0,0-14.391,8.568-3.017,34.356,8.446,17.435,18.96,20.13,18.96,20.13s8.732-3.245,12.115-7.616a3.922,3.922,0,0,0,.234-4.285c-1.726-3.146-5.221-10.9.659-14.971,5.715-3.959,7.863,2.945,8.785,10.192a103.834,103.834,0,0,0,4.075,19.579c2.266,6.6,4.529,11.137,15.666,11.7,10.31.524,16.493,1.048,17.656-8.456.171-1.39-1.09-4.381-6.707-2.777" transform="translate(66.075 91.046)" fill="#322f41"/>
        <path id="Trazado_183479" data-name="Trazado 183479" d="M68.484,109.36s32.466-2.833,43.227-4.341,16.608-3.587,20.574-1.512,11.262,1.953,15.35,1.637,9.941,1.383,12.712.692,2.391-3.963-1.95-4.908-8.808-.188-10.824-1.634-.125-4.845,2.833-5.224,9.312,1.575,12.458,3.146,6.292,3.021,7.991,3.021,2.892-2.391-.5-3.838a63.669,63.669,0,0,1-8.3-4.783s9.121,1.008,11.45.758,3.271-2.582-.188-3.337-15.541-2.013-16.99-2.517c0,0,2.016-1.258,1.2-2.2s-2.454-.441-5.6.567-17.867,5.409-21.329,5.85S82.579,88.219,74.65,87.715s-22.4-5.033-22.4-5.033Z" transform="translate(119.863 189.672)" fill="#ffa399"/>
        <path id="Trazado_183480" data-name="Trazado 183480" d="M153.848,223.4c-19.579,6.226-37.433,10.274-53.587,11.9A138.412,138.412,0,0,1,80.508,236a16.973,16.973,0,0,1-1.9-.138c-1.693-.036-3.39-.175-5.017-.346-1.209-.138-2.421-.277-3.63-.451-1.387-.171-2.77-.379-4.117-.655-9.582-15.4-37.673-64.487-38.919-111.6,0-34.248,20.894-49.611,20.894-49.611l.761-6.018s22.142,1.766,40.269,14.843c3.251,5.534,3.011,9.823,3.011,9.823s31.721,30.443,42.792,63.172c8.166,24.112,15.775,54.242,19.2,68.393" transform="translate(61.757 154.094)" fill="#ffcb52"/>
        <path id="Trazado_183481" data-name="Trazado 183481" d="M65.779,95.321s22.649,13.841,28.691,16.358,56.5-7.3,58.64-7.8,4.783-9.187,5.037-10.949,1.13-3.083,2.642-3.333,3.334,1.321,2.83,4.592c0,0,5.224-3.963,7.616-3.65s6.038,1.512,8.933.82,8.62.567,8.62.567a31.373,31.373,0,0,0,5.033-1.008,2.187,2.187,0,0,1,3.146,1.571c.25,1.2-2.2,2.708-4.654,3.462a26.825,26.825,0,0,1,5.975,1.071c1.762.754,1.95,3.083,0,3.459s-7.675,2.016-9.688,4.6-5.162,6.354-8.746,8.492-9.753,2.645-16.424,4.783-47.315,20.765-63.548,26.3S57.6,134.332,57.6,134.332,60.871,95.7,65.779,95.321" transform="translate(132.134 205.473)" fill="#ffa399"/>
        <path id="Trazado_183482" data-name="Trazado 183482" d="M121.529,120.235a172.376,172.376,0,0,1-5.287,46.811s-44.169-7.171-76.635-43.036C25.891,105.636,35.958,85.5,49.8,78.707c8.772-4.305,31.458-1.258,43.79,15.6a103.086,103.086,0,0,0,27.936,25.924" transform="translate(75.88 176.531)" fill="#ffcb52"/>
        <path id="Trazado_183483" data-name="Trazado 183483" d="M117.257,167.96A123.243,123.243,0,0,1,95.628,162.3c-3.525-1.239-7-2.622-10.429-4.124l-5.079-2.395c-1.706-.764-3.327-1.716-4.987-2.576-3.347-1.69-6.5-3.735-9.717-5.656-3.08-2.135-6.288-4.1-9.2-6.489-1.466-1.176-2.988-2.279-4.4-3.511L47.6,133.8c-2.846-2.461-5.323-5.307-8-7.945l-.086-.1c-.84-1.271-1.723-2.513-2.52-3.814-.665-1.377-1.486-2.685-2.016-4.127a28.4,28.4,0,0,1-1.43-4.384l-.514-2.253-.26-2.306a32.909,32.909,0,0,1-.092-4.631,33.39,33.39,0,0,1,.718-4.575,31.663,31.663,0,0,1,3.39-8.564,35.451,35.451,0,0,1,5.659-7.24,32.577,32.577,0,0,1,7.5-5.333c.86-.428,1.416-.583,2.141-.886l2.382-.613a31.569,31.569,0,0,1,4.6-.461,42,42,0,0,1,9.055.827,43.476,43.476,0,0,1,8.63,2.685,46.272,46.272,0,0,1,7.939,4.292,42.317,42.317,0,0,1,6.861,5.844,31.213,31.213,0,0,1,2.925,3.429c.955,1.183,1.766,2.332,2.662,3.525,1.759,2.322,3.63,4.533,5.573,6.723q2.925,3.251,6.117,6.275a105.1,105.1,0,0,0,13.713,10.989,92,92,0,0,1-14.352-10.281q-3.35-2.886-6.476-6.048a85.8,85.8,0,0,1-5.909-6.641,65.732,65.732,0,0,0-5.633-6.618,40.381,40.381,0,0,0-6.687-5.372,44.179,44.179,0,0,0-7.652-3.857,47.93,47.93,0,0,0-8.212-2.395,39.448,39.448,0,0,0-8.466-.7,29.491,29.491,0,0,0-4.16.455l-1.881.484c-.629.27-1.482.567-1.92.814a29.7,29.7,0,0,0-6.766,4.9,32.669,32.669,0,0,0-5.1,6.654,28.753,28.753,0,0,0-3,7.787,32.085,32.085,0,0,0-.682,4.114,29.861,29.861,0,0,0,.046,4.17l.211,2.079.448,2.039a26.02,26.02,0,0,0,1.258,4c.471,1.321,1.222,2.526,1.812,3.8.728,1.206,1.542,2.368,2.3,3.558l-.079-.1c2.6,2.6,4.994,5.415,7.761,7.853l4.094,3.712c1.374,1.222,2.862,2.319,4.289,3.485,1.443,1.143,2.849,2.345,4.378,3.383l4.49,3.235c3.113,1.976,6.16,4.085,9.414,5.847,1.614.9,3.189,1.881,4.855,2.685l4.948,2.513c3.36,1.555,6.723,3.11,10.162,4.5s6.931,2.655,10.468,3.8c3.544,1.1,7.105,2.174,10.748,2.958" transform="translate(74.869 175.617)" fill="#cc9e40"/>
        <path id="Trazado_183484" data-name="Trazado 183484" d="M141.967,116.043,65.658,101.928a2.81,2.81,0,0,1-2.293-2.951l2.879-43.158a2.809,2.809,0,0,1,2.8-2.622h78.99a2.808,2.808,0,0,1,2.8,3.08l-5.56,57.273a2.809,2.809,0,0,1-3.307,2.494" transform="translate(145.345 122.033)" fill="#bdbab2"/>
        <path id="Trazado_183485" data-name="Trazado 183485" d="M148.52,61.039,64.167,59.168l.267-3.986A2.126,2.126,0,0,1,66.555,53.2h80.383a2.126,2.126,0,0,1,2.115,2.332Z" transform="translate(147.199 122.031)" fill="#38424d"/>
        <path id="Trazado_183486" data-name="Trazado 183486" d="M66.851,54.973a1.214,1.214,0,0,1-1.143,1.153,1.008,1.008,0,0,1-.929-1.176A1.23,1.23,0,0,1,65.925,53.8a1,1,0,0,1,.926,1.176" transform="translate(148.589 123.41)" fill="#d2c6cd"/>
        <path id="Trazado_183487" data-name="Trazado 183487" d="M67.832,55a1.233,1.233,0,0,1-1.15,1.173,1.017,1.017,0,0,1-.922-1.2A1.244,1.244,0,0,1,66.906,53.8a1.012,1.012,0,0,1,.926,1.2" transform="translate(150.84 123.421)" fill="#d2c6cd"/>
        <path id="Trazado_183488" data-name="Trazado 183488" d="M68.813,55.02a1.244,1.244,0,0,1-1.146,1.189A1.025,1.025,0,0,1,66.741,55,1.255,1.255,0,0,1,67.9,53.808a1.016,1.016,0,0,1,.916,1.212" transform="translate(153.09 123.435)" fill="#d2c6cd"/>
        <path id="Trazado_183489" data-name="Trazado 183489" d="M66.936,93.95l-.922-.161,2.678-37.838.949.03Z" transform="translate(151.435 128.35)" fill="#fff"/>
        <path id="Trazado_183490" data-name="Trazado 183490" d="M67.189,57.771l-1.575-.066.1-1.443,1.578.059Z" transform="translate(150.52 129.066)" fill="#fff"/>
        <path id="Trazado_183491" data-name="Trazado 183491" d="M67.12,58.748l-1.571-.086.1-1.439,1.575.076Z" transform="translate(150.368 131.268)" fill="#fff"/>
        <path id="Trazado_183492" data-name="Trazado 183492" d="M67.05,59.729l-1.568-.1.1-1.446,1.568.1Z" transform="translate(150.215 133.467)" fill="#fff"/>
        <path id="Trazado_183493" data-name="Trazado 183493" d="M66.98,60.708l-1.565-.122.1-1.446,1.565.115Z" transform="translate(150.063 135.667)" fill="#fff"/>
        <path id="Trazado_183494" data-name="Trazado 183494" d="M66.911,61.679l-1.561-.138.1-1.439,1.561.132Z" transform="translate(149.911 137.871)" fill="#fff"/>
        <path id="Trazado_183495" data-name="Trazado 183495" d="M66.839,62.66,65.284,62.5l.1-1.443,1.558.148Z" transform="translate(149.761 140.07)" fill="#fff"/>
        <path id="Trazado_183496" data-name="Trazado 183496" d="M66.769,63.637l-1.551-.175.1-1.443,1.555.165Z" transform="translate(149.609 142.272)" fill="#fff"/>
        <path id="Trazado_183497" data-name="Trazado 183497" d="M66.7,64.612l-1.548-.194.1-1.439,1.551.184Z" transform="translate(149.457 144.472)" fill="#fff"/>
        <path id="Trazado_183498" data-name="Trazado 183498" d="M66.63,65.591l-1.545-.211.1-1.443,1.548.2Z" transform="translate(149.304 146.672)" fill="#fff"/>
        <path id="Trazado_183499" data-name="Trazado 183499" d="M66.56,66.572l-1.542-.231.1-1.446,1.545.224Z" transform="translate(149.152 148.87)" fill="#fff"/>
        <path id="Trazado_183500" data-name="Trazado 183500" d="M66.491,67.546l-1.538-.25.1-1.439,1.542.24Z" transform="translate(149 151.073)" fill="#fff"/>
        <path id="Trazado_183501" data-name="Trazado 183501" d="M69.166,56.28,67.94,57.39a.2.2,0,0,0-.02.287L68.948,58.8a.228.228,0,0,0,.306.02.214.214,0,0,0,.082-.148.2.2,0,0,0-.053-.152s-.688-.751-.889-.975l1.074-.968a.22.22,0,0,0,.072-.138.211.211,0,0,0-.063-.158.229.229,0,0,0-.313,0" transform="translate(155.692 128.964)" fill="#fff"/>
        <path id="Trazado_183502" data-name="Trazado 183502" d="M70.058,56.327a.233.233,0,0,0-.082.155.226.226,0,0,0,.046.148s.725.833.926,1.067l-1.031.916a.227.227,0,0,0-.072.145.214.214,0,0,0,.056.158.233.233,0,0,0,.313.01L71.4,57.869a.212.212,0,0,0,.023-.293L70.371,56.35a.229.229,0,0,0-.313-.023" transform="translate(160.221 129.098)" fill="#fff"/>
        <path id="Trazado_183503" data-name="Trazado 183503" d="M71.006,56.35l-2.279,1.983a.19.19,0,0,0-.016.293.225.225,0,0,0,.31.01L71.3,56.659a.208.208,0,0,0,.016-.3.225.225,0,0,0-.313-.01" transform="translate(157.479 129.132)" fill="#fff"/>
        <path id="Trazado_183504" data-name="Trazado 183504" d="M68.364,66.974l-1.2.962a.207.207,0,0,0-.023.29l1,1.262a.223.223,0,0,0,.3.059.179.179,0,0,0,.079-.138.2.2,0,0,0-.053-.155s-.669-.847-.863-1.1c.227-.184,1.051-.843,1.051-.843a.194.194,0,0,0,.069-.135.254.254,0,0,0-.059-.165.227.227,0,0,0-.306-.04" transform="translate(153.921 153.539)" fill="#fff"/>
        <path id="Trazado_183505" data-name="Trazado 183505" d="M69.236,67.228a.215.215,0,0,0-.079.148.237.237,0,0,0,.043.155l.9,1.192c-.231.184-1.008.8-1.008.8a.176.176,0,0,0-.069.135.212.212,0,0,0,.053.165.222.222,0,0,0,.306.046l1.159-.916a.214.214,0,0,0,.023-.3L69.539,67.29a.227.227,0,0,0-.3-.063" transform="translate(158.34 154.142)" fill="#fff"/>
        <path id="Trazado_183506" data-name="Trazado 183506" d="M70.161,67.184,67.934,68.9a.2.2,0,0,0-.02.3.225.225,0,0,0,.3.049l2.23-1.71a.213.213,0,0,0,.02-.3.225.225,0,0,0-.306-.046" transform="translate(155.666 154.024)" fill="#fff"/>
        <path id="Trazado_183507" data-name="Trazado 183507" d="M74.461,58.933,67.3,58.558l.1-1.324,7.168.343Z" transform="translate(154.385 131.293)" fill="#fff"/>
        <path id="Trazado_183508" data-name="Trazado 183508" d="M74.867,64.844l-7.952-.932.1-1.327,7.958.9Z" transform="translate(153.504 143.569)" fill="#fff"/>
        <path id="Trazado_183509" data-name="Trazado 183509" d="M72.028,68.36l-5.369-.866.1-1.331,5.373.843Z" transform="translate(152.915 151.777)" fill="#fff"/>
        <path id="Trazado_183510" data-name="Trazado 183510" d="M79.195,60.217,67.771,59.5l.1-1.337,11.433.665Z" transform="translate(155.467 133.416)" fill="#fff"/>
        <path id="Trazado_183511" data-name="Trazado 183511" d="M77.707,66.221,67.38,64.9l.1-1.337,10.333,1.278Z" transform="translate(154.569 145.806)" fill="#fff"/>
        <path id="Trazado_183512" data-name="Trazado 183512" d="M77.427,67.164,67.318,65.758l.1-1.331,10.119,1.357Z" transform="translate(154.427 147.795)" fill="#fff"/>
        <path id="Trazado_183513" data-name="Trazado 183513" d="M72.658,67.474l-5.405-.81.1-1.337,5.409.787Z" transform="translate(154.276 149.859)" fill="#fff"/>
        <path id="Trazado_183514" data-name="Trazado 183514" d="M92.3,70.444,69.284,66.989l.1-1.367,23.038,3.343Z" transform="translate(158.936 150.536)" fill="#fff"/>
        <path id="Trazado_183515" data-name="Trazado 183515" d="M87.514,68.606,70.748,66.274l.105-1.387,16.783,2.25Z" transform="translate(162.295 148.85)" fill="#fff"/>
        <path id="Trazado_183516" data-name="Trazado 183516" d="M81.648,67.85,76.229,67.1l.125-1.472,5.422.725Z" transform="translate(174.869 150.539)" fill="#fff"/>
        <path id="Trazado_183517" data-name="Trazado 183517" d="M89.487,67.86,78.7,66.473l.132-1.515,10.8,1.334Z" transform="translate(180.527 149.014)" fill="#fff"/>
        <path id="Trazado_183518" data-name="Trazado 183518" d="M95.339,68.524,70.848,65.379l.109-1.39,24.514,3.027Z" transform="translate(162.525 146.789)" fill="#fff"/>
        <path id="Trazado_183519" data-name="Trazado 183519" d="M78.149,60.194,71.6,59.779l.109-1.4,6.558.382Z" transform="translate(164.244 133.928)" fill="#fff"/>
        <path id="Trazado_183520" data-name="Trazado 183520" d="M75.159,61.955l-7.52-.639.1-1.334,7.523.6Z" transform="translate(155.164 137.599)" fill="#fff"/>
        <path id="Trazado_183521" data-name="Trazado 183521" d="M82.508,62.6,70.294,61.573,70.4,60.2l12.224.965Z" transform="translate(161.253 138.089)" fill="#fff"/>
        <path id="Trazado_183522" data-name="Trazado 183522" d="M85.682,60.7l-11.737-.741.115-1.436,11.746.688Z" transform="translate(169.63 134.242)" fill="#fff"/>
        <path id="Trazado_183523" data-name="Trazado 183523" d="M80.693,61.381,67.7,60.416l.1-1.334,13,.9Z" transform="translate(155.314 135.533)" fill="#fff"/>
        <path id="Trazado_183524" data-name="Trazado 183524" d="M84.76,61.729l-12.7-.942.112-1.4,12.715.883Z" transform="translate(165.293 136.227)" fill="#fff"/>
        <path id="Trazado_183525" data-name="Trazado 183525" d="M85.174,61.807l-8.881-.659.125-1.469,8.887.616Z" transform="translate(175.017 136.902)" fill="#fff"/>
        <path id="Trazado_183526" data-name="Trazado 183526" d="M82.9,63.685,67.575,62.216l.1-1.334,15.343,1.4Z" transform="translate(155.016 139.662)" fill="#fff"/>
        <path id="Trazado_183527" data-name="Trazado 183527" d="M80.761,63.535l-8.176-.784.112-1.413,8.182.744Z" transform="translate(166.51 140.709)" fill="#fff"/>
        <path id="Trazado_183528" data-name="Trazado 183528" d="M82.81,64.7l-15.3-1.624.1-1.337,15.314,1.551Z" transform="translate(154.873 141.624)" fill="#fff"/>
        <path id="Trazado_183529" data-name="Trazado 183529" d="M86.7,65.169,72.513,63.66l.112-1.416,14.2,1.439Z" transform="translate(166.345 142.786)" fill="#fff"/>
        <path id="Trazado_183530" data-name="Trazado 183530" d="M91.345,64.583,75.481,63.061,75.6,61.6,91.48,63.048Z" transform="translate(173.153 141.314)" fill="#fff"/>
        <path id="Trazado_183531" data-name="Trazado 183531" d="M73.59,58.915l-3.7-.194L70,57.357l3.7.175Z" transform="translate(160.328 131.577)" fill="#fff"/>
        <path id="Trazado_183532" data-name="Trazado 183532" d="M184.456,84.617l-63,.435c-1.156-.007-1.835-1.067-1.584-2.467l7.467-41.873a3.36,3.36,0,0,1,2.622-2.767l65.083-6.693a1.852,1.852,0,0,1,2.039,2.316l-9.605,48.366a3.451,3.451,0,0,1-3.021,2.685" transform="translate(274.865 71.667)" fill="#fffaf3"/>
        <path id="Trazado_183533" data-name="Trazado 183533" d="M191.462,37.547l-69.533,6.417.679-3.824a2.541,2.541,0,0,1,1.983-2.095l66.229-6.812a1.4,1.4,0,0,1,1.545,1.752Z" transform="translate(279.704 71.629)" fill="#38424d"/>
        <path id="Trazado_183534" data-name="Trazado 183534" d="M124.264,34.865a1.477,1.477,0,0,1-1.077,1.209c-.474.049-.758-.408-.636-1.021a1.489,1.489,0,0,1,1.08-1.209c.474-.053.758.405.632,1.021" transform="translate(281.065 77.628)" fill="#d2c6cd"/>
        <path id="Trazado_183535" data-name="Trazado 183535" d="M125.075,34.786A1.488,1.488,0,0,1,123.991,36c-.471.049-.751-.412-.629-1.034a1.5,1.5,0,0,1,1.084-1.219c.471-.053.754.412.629,1.034" transform="translate(282.926 77.417)" fill="#d2c6cd"/>
        <path id="Trazado_183536" data-name="Trazado 183536" d="M125.884,34.708a1.5,1.5,0,0,1-1.084,1.229c-.474.049-.754-.418-.626-1.044a1.514,1.514,0,0,1,1.087-1.232c.471-.053.751.418.623,1.047" transform="translate(284.784 77.208)" fill="#d2c6cd"/>
        <path id="Trazado_183537" data-name="Trazado 183537" d="M125.21,35.926,124.07,37.1a.215.215,0,0,0-.049.27l.728.935c.056.072.168.063.254-.016a.3.3,0,0,0,.086-.148.159.159,0,0,0-.03-.135s-.488-.626-.629-.81c.217-.224,1-1.024,1-1.024a.257.257,0,0,0,.072-.138.164.164,0,0,0-.033-.138c-.059-.069-.175-.053-.26.033" transform="translate(284.435 82.239)" fill="#614bee"/>
        <path id="Trazado_183538" data-name="Trazado 183538" d="M126.03,35.792a.281.281,0,0,0-.086.155.193.193,0,0,0,.023.128s.507.692.652.886c-.221.221-.955.962-.955.962a.285.285,0,0,0-.076.142.167.167,0,0,0,.03.142.179.179,0,0,0,.257-.026l1.1-1.107a.23.23,0,0,0,.053-.277l-.741-1.018a.172.172,0,0,0-.257.013" transform="translate(288.09 81.958)" fill="#614bee"/>
        <path id="Trazado_183539" data-name="Trazado 183539" d="M126.794,35.872l-2.111,2.095a.2.2,0,0,0-.046.273c.056.076.175.059.257-.023l2.111-2.092a.216.216,0,0,0,.046-.277c-.056-.072-.171-.063-.257.023" transform="translate(285.834 82.126)" fill="#614bee"/>
        <path id="Trazado_183540" data-name="Trazado 183540" d="M123.337,46.1l-1.12,1.113a.231.231,0,0,0-.049.28l.7,1.028a.155.155,0,0,0,.247.007.251.251,0,0,0,.082-.145.181.181,0,0,0-.026-.138s-.468-.692-.6-.9c.211-.211.982-.975.982-.975a.258.258,0,0,0,.072-.138.2.2,0,0,0-.03-.148.171.171,0,0,0-.254.013" transform="translate(280.187 105.612)" fill="#614bee"/>
        <path id="Trazado_183541" data-name="Trazado 183541" d="M124.144,46.075a.307.307,0,0,0-.086.152.222.222,0,0,0,.023.138s.488.761.626.972c-.217.211-.942.919-.942.919a.255.255,0,0,0-.072.142.183.183,0,0,0,.026.145c.056.079.168.072.254-.007l1.08-1.057a.242.242,0,0,0,.053-.283l-.712-1.11a.165.165,0,0,0-.25-.01" transform="translate(283.741 105.577)" fill="#614bee"/>
        <path id="Trazado_183542" data-name="Trazado 183542" d="M124.886,46.124l-2.072,1.99a.216.216,0,0,0-.049.283.159.159,0,0,0,.25,0l2.075-1.99a.236.236,0,0,0,.049-.287.163.163,0,0,0-.254.007" transform="translate(281.543 105.663)" fill="#614bee"/>
        <path id="Trazado_183543" data-name="Trazado 183543" d="M129.318,38.032l-5.913.481.227-1.255,5.919-.5Z" transform="translate(283.09 84.328)" fill="#614bee"/>
        <path id="Trazado_183544" data-name="Trazado 183544" d="M129.037,43.211l-6.558.273.231-1.271,6.565-.293Z" transform="translate(280.965 96.164)" fill="#614bee"/>
        <path id="Trazado_183545" data-name="Trazado 183545" d="M126.277,46.719l-4.424.056.234-1.281,4.427-.069Z" transform="translate(279.53 104.203)" fill="#614bee"/>
        <path id="Trazado_183546" data-name="Trazado 183546" d="M133.121,38.8l-9.427.7.231-1.265,9.437-.731Z" transform="translate(283.752 86.031)" fill="#e75582"/>
        <path id="Trazado_183547" data-name="Trazado 183547" d="M131.272,44.07l-8.515.3.231-1.278,8.525-.323Z" transform="translate(281.605 98.104)" fill="#8e7af6"/>
        <path id="Trazado_183548" data-name="Trazado 183548" d="M130.943,44.916l-8.337.234.231-1.275,8.347-.26Z" transform="translate(281.257 100.052)" fill="#e75582"/>
        <path id="Trazado_183549" data-name="Trazado 183549" d="M126.9,45.819l-4.457.092.234-1.281,4.46-.105Z" transform="translate(280.894 102.139)" fill="#614bee"/>
        <path id="Trazado_183550" data-name="Trazado 183550" d="M143.113,45.715l-18.99.458.24-1.3,19.006-.511Z" transform="translate(284.737 101.764)" fill="#614bee"/>
        <path id="Trazado_183551" data-name="Trazado 183551" d="M139.272,44.81l-13.838.425.244-1.3,13.851-.468Z" transform="translate(287.745 99.704)" fill="#e75582"/>
        <path id="Trazado_183552" data-name="Trazado 183552" d="M134.431,44.764l-4.473.148.257-1.351,4.477-.158Z" transform="translate(298.123 99.567)" fill="#e75582"/>
        <path id="Trazado_183553" data-name="Trazado 183553" d="M141.005,43.766l-8.91.359.26-1.367,8.92-.379Z" transform="translate(303.025 97.217)" fill="#8e7af6"/>
        <path id="Trazado_183554" data-name="Trazado 183554" d="M145.83,43.872l-20.212.758.24-1.308,20.232-.814Z" transform="translate(288.166 97.513)" fill="#8e7af6"/>
        <path id="Trazado_183555" data-name="Trazado 183555" d="M132.257,38.667l-5.405.4.24-1.3,5.409-.412Z" transform="translate(290.997 85.693)" fill="#e75582"/>
        <path id="Trazado_183556" data-name="Trazado 183556" d="M129.585,40.62,123.379,41l.231-1.268,6.212-.4Z" transform="translate(283.03 90.227)" fill="#614bee"/>
        <path id="Trazado_183557" data-name="Trazado 183557" d="M135.649,40.434l-10.08.626.237-1.291,10.09-.655Z" transform="translate(288.055 89.726)" fill="#614bee"/>
        <path id="Trazado_183558" data-name="Trazado 183558" d="M138.47,38.451l-9.681.7.244-1.314,9.691-.725Z" transform="translate(295.441 85.137)" fill="#e75582"/>
        <path id="Trazado_183559" data-name="Trazado 183559" d="M134.253,39.667l-10.719.728.231-1.268,10.729-.758Z" transform="translate(283.387 88.018)" fill="#8e7af6"/>
        <path id="Trazado_183560" data-name="Trazado 183560" d="M137.607,39.451l-10.482.7.24-1.3,10.491-.728Z" transform="translate(291.624 87.456)" fill="#8e7af6"/>
        <path id="Trazado_183561" data-name="Trazado 183561" d="M137.948,39.3l-7.326.488.25-1.334,7.332-.5Z" transform="translate(299.647 87.053)" fill="#8e7af6"/>
        <path id="Trazado_183562" data-name="Trazado 183562" d="M135.872,41.394l-12.649.7.231-1.271,12.662-.731Z" transform="translate(282.672 91.958)" fill="#e75582"/>
        <path id="Trazado_183563" data-name="Trazado 183563" d="M134.1,41.281l-6.746.372.244-1.311,6.753-.392Z" transform="translate(292.158 91.646)" fill="#e75582"/>
        <path id="Trazado_183564" data-name="Trazado 183564" d="M135.7,42.239l-12.623.613.234-1.275,12.632-.652Z" transform="translate(282.332 93.881)" fill="#614bee"/>
        <path id="Trazado_183565" data-name="Trazado 183565" d="M138.908,42.071l-11.707.58.244-1.314,11.72-.613Z" transform="translate(291.799 93.42)" fill="#614bee"/>
        <path id="Trazado_183566" data-name="Trazado 183566" d="M142.841,41.064l-13.094.728L130,40.458l13.1-.758Z" transform="translate(297.639 91.073)" fill="#e75582"/>
        <path id="Trazado_183567" data-name="Trazado 183567" d="M128.6,37.939l-3.054.244.237-1.275,3.054-.254Z" transform="translate(287.996 84.085)" fill="#614bee"/>
        <path id="Trazado_183568" data-name="Trazado 183568" d="M97.611,45.017,97.1,46.73l-8.248-3.469.379-1.308L99.673,38.11l-.527,1.762-7.425,2.7Z" transform="translate(203.827 87.424)" fill="#334d5c"/>
        <path id="Trazado_183569" data-name="Trazado 183569" d="M92.073,49.23l8.9-11.592,1.868-.194L93.829,49.355Z" transform="translate(211.215 85.896)" fill="#334d5c"/>
        <path id="Trazado_183570" data-name="Trazado 183570" d="M97.553,39.9l.652-2.131,8.057,4.029-.656,2.121L95.017,48.2l.636-2.079,7.612-3.205Z" transform="translate(217.968 86.653)" fill="#334d5c"/>
        <path id="Trazado_183571" data-name="Trazado 183571" d="M111.167,55.634a1.023,1.023,0,0,1-.142-.01.836.836,0,0,1-.682-.968l.086-.494a.836.836,0,1,1,1.647.283l-.086.494a.834.834,0,0,1-.823.7" transform="translate(253.099 122.647)" fill="#334d5c"/>
        <path id="Trazado_183572" data-name="Trazado 183572" d="M190.684,72.052a.655.655,0,0,1-.138-.013.831.831,0,0,1-.685-.962l.165-.991a.842.842,0,0,1,.962-.685.831.831,0,0,1,.685.962l-.165.991a.837.837,0,0,1-.824.7M76.784,69.9a.636.636,0,0,1-.109-.01.838.838,0,0,1-.721-.939l.135-.995a.837.837,0,0,1,1.66.221l-.135.995a.838.838,0,0,1-.83.728M191.408,67.76a1.058,1.058,0,0,1-.142-.01.834.834,0,0,1-.682-.965l.165-.988a.815.815,0,0,1,.965-.685.831.831,0,0,1,.682.962l-.165.988a.836.836,0,0,1-.823.7M77.36,65.59a.64.64,0,0,1-.112-.007.833.833,0,0,1-.718-.939l.135-.995a.817.817,0,0,1,.939-.718.838.838,0,0,1,.721.939l-.135.995a.837.837,0,0,1-.83.725m114.773-2.118a.9.9,0,0,1-.135-.01.836.836,0,0,1-.688-.965l.168-.992a.835.835,0,1,1,1.647.28l-.168.988a.837.837,0,0,1-.824.7m-114.2-2.194a.639.639,0,0,1-.112-.007.838.838,0,0,1-.718-.942l.132-.995a.828.828,0,0,1,.942-.718.838.838,0,0,1,.718.942l-.132.995a.84.84,0,0,1-.83.725m114.921-2.095a.626.626,0,0,1-.135-.013.837.837,0,0,1-.688-.965l.168-.988a.835.835,0,1,1,1.647.277l-.168.992a.834.834,0,0,1-.824.7M78.51,56.966a.638.638,0,0,1-.112-.007.841.841,0,0,1-.718-.942l.135-.995a.825.825,0,0,1,.942-.715.836.836,0,0,1,.718.939l-.135.995a.84.84,0,0,1-.83.725m115.072-2.072a.688.688,0,0,1-.142-.013.833.833,0,0,1-.682-.965l.168-.991a.836.836,0,1,1,1.647.283l-.168.992a.837.837,0,0,1-.824.7M79.162,52.667a.823.823,0,0,1-.25-.036.836.836,0,0,1-.547-1.051,6.443,6.443,0,0,1,.425-1.057.837.837,0,0,1,1.492.758,5.145,5.145,0,0,0-.323.8.834.834,0,0,1-.8.586m114.611-2.078a.836.836,0,0,1-.807-.616,4.821,4.821,0,0,0-.3-.807.836.836,0,1,1,1.515-.708,6.675,6.675,0,0,1,.4,1.077.834.834,0,0,1-.586,1.024.847.847,0,0,1-.221.03M81.8,49.337a.838.838,0,0,1-.422-1.561,6.263,6.263,0,0,1,1.041-.488.836.836,0,0,1,.573,1.571,4.988,4.988,0,0,0-.771.362.846.846,0,0,1-.422.115m4.21-.817a.837.837,0,0,1-.016-1.673l1-.02h.02a.837.837,0,0,1,.013,1.673l-1,.02Zm4.348-.1a.835.835,0,0,1-.016-1.67l1-.023h.016A.837.837,0,0,1,91.38,48.4l-1,.02Zm4.351-.092a.837.837,0,0,1-.016-1.673l1-.023h.016a.837.837,0,0,1,.016,1.673l-1,.023Zm4.348-.1a.837.837,0,0,1-.02-1.673l1.008-.023a.878.878,0,0,1,.856.817.836.836,0,0,1-.817.856l-1.008.023Zm4.351-.092a.837.837,0,0,1-.016-1.673l1-.023a.837.837,0,1,1,.04,1.673l-1,.023Zm4.351-.1a.837.837,0,0,1-.016-1.673l1-.023h.016a.837.837,0,0,1,.016,1.673l-1,.023Zm4.348-.1a.837.837,0,0,1-.016-1.673l1-.02h.016a.837.837,0,0,1,.016,1.673l-1,.02Zm4.351-.1a.837.837,0,0,1-.016-1.673l1-.02h.016a.837.837,0,0,1,.016,1.673l-1,.02Zm4.348-.1a.835.835,0,0,1-.016-1.67l1-.023h.016a.837.837,0,0,1,.016,1.673l-1,.02Zm4.351-.092A.837.837,0,0,1,125.14,46l1-.023h.016a.837.837,0,0,1,.016,1.673l-1,.023Zm4.348-.092a.838.838,0,0,1-.02-1.677l1-.02a.875.875,0,0,1,.856.817.84.84,0,0,1-.817.856l-1,.023Zm4.348-.1a.837.837,0,0,1-.02-1.673l1-.023a.837.837,0,1,1,.04,1.673l-1,.023Zm4.351-.1a.837.837,0,0,1-.02-1.673l1-.023a.812.812,0,0,1,.856.817.84.84,0,0,1-.817.856l-1,.023Zm4.348-.1a.837.837,0,0,1-.016-1.673l1-.02h.016a.837.837,0,0,1,.016,1.673l-1,.02Zm4.348-.1a.835.835,0,0,1-.013-1.67l1-.023h.016a.837.837,0,0,1,.016,1.673l-1,.02Zm44.337-.02a.843.843,0,0,1-.445-.125,4.439,4.439,0,0,0-.758-.389.837.837,0,1,1,.623-1.555,6.515,6.515,0,0,1,1.024.524.835.835,0,0,1-.445,1.545M151.255,47.1a.837.837,0,0,1-.016-1.673l1-.023h.016a.837.837,0,0,1,.016,1.673l-1,.023Zm4.348-.1a.837.837,0,0,1-.016-1.673l1.008-.023h.016a.837.837,0,0,1,.016,1.673l-1.008.023Zm4.351-.092a.837.837,0,0,1-.02-1.673l1-.023a.805.805,0,0,1,.856.817.84.84,0,0,1-.817.856l-1,.023Zm4.348-.1a.837.837,0,0,1-.02-1.673l1.008-.023a.781.781,0,0,1,.853.817.838.838,0,0,1-.817.856l-1,.023Zm4.351-.1a.836.836,0,0,1-.837-.817.845.845,0,0,1,.817-.856l1-.023a.9.9,0,0,1,.856.817.838.838,0,0,1-.817.856l-1,.023Zm4.351-.1a.837.837,0,0,1-.016-1.673l1-.02h.016a.837.837,0,0,1,.016,1.673l-1,.02Zm4.348-.1a.835.835,0,0,1-.016-1.67l1-.023h.016a.837.837,0,0,1,.016,1.673l-1,.02Zm4.351-.092a.837.837,0,0,1-.016-1.673l1-.023h.016a.837.837,0,0,1,.016,1.673l-1,.023Zm4.348-.1a.837.837,0,0,1-.016-1.673l1-.02h.016a.835.835,0,0,1,.013,1.67l-1,.023Z" transform="translate(174.222 102.434)" fill="#334d5c"/>
        <path id="Trazado_183573" data-name="Trazado 183573" d="M76.629,55c-.036,0-.072,0-.109-.007a.836.836,0,0,1-.721-.939l.066-.5a.837.837,0,1,1,1.66.217l-.066.5a.838.838,0,0,1-.83.728" transform="translate(173.866 121.188)" fill="#334d5c"/>
        <path id="Trazado_183574" data-name="Trazado 183574" d="M198.632,135.932,93.449,116.306l7.062-62.622H210.4Z" transform="translate(214.37 123.15)" fill="#334d5c"/>
        <path id="Trazado_183575" data-name="Trazado 183575" d="M204.639,63.856,95.328,61.428l.873-7.744H206.095Z" transform="translate(218.681 123.15)" fill="#a6a6a6"/>
        <path id="Trazado_183576" data-name="Trazado 183576" d="M101.2,58.961l-5.2-.1.53-4.677,5.214.026Z" transform="translate(220.227 124.308)" fill="#fff"/>
        <path id="Trazado_183577" data-name="Trazado 183577" d="M167.167,60.3l-66.476-1.2.583-4.885,66.687.313Z" transform="translate(230.984 124.36)" fill="#fff"/>
        <path id="Trazado_183578" data-name="Trazado 183578" d="M98.095,57,96.55,55.746l1.828-1.219Z" transform="translate(221.485 125.086)"/>
        <path id="Trazado_183579" data-name="Trazado 183579" d="M98.259,58.978l5.2.1.573-4.849L98.816,54.2Z" transform="translate(225.406 124.331)" fill="#fff"/>
        <path id="Trazado_183580" data-name="Trazado 183580" d="M98.9,57.059l1.831-1.239L99.2,54.542Z" transform="translate(226.883 125.12)"/>
        <path id="Trazado_183581" data-name="Trazado 183581" d="M126.768,56.962a2.789,2.789,0,0,1-2.589,2.5,2.075,2.075,0,0,1-1.894-2.546,2.817,2.817,0,0,1,2.6-2.5,2.056,2.056,0,0,1,1.887,2.546" transform="translate(280.458 124.83)" fill="#fb392e"/>
        <path id="Trazado_183582" data-name="Trazado 183582" d="M128.89,57.013a2.825,2.825,0,0,1-2.6,2.536,2.086,2.086,0,0,1-1.878-2.586,2.839,2.839,0,0,1,2.6-2.536,2.075,2.075,0,0,1,1.881,2.586" transform="translate(285.33 124.855)" fill="#fecb15"/>
        <path id="Trazado_183583" data-name="Trazado 183583" d="M131.013,57.064a2.856,2.856,0,0,1-2.6,2.576,2.107,2.107,0,0,1-1.878-2.625,2.882,2.882,0,0,1,2.619-2.576,2.091,2.091,0,0,1,1.861,2.625" transform="translate(290.196 124.883)" fill="#26a659"/>
        <path id="Trazado_183584" data-name="Trazado 183584" d="M98.169,106.551l-1.189-.208,5.738-49.087,1.229.04Z" transform="translate(222.47 131.345)" fill="#e0e0e0"/>
        <path id="Trazado_183585" data-name="Trazado 183585" d="M99.144,59.615,97.1,59.53l.217-1.868,2.039.072Z" transform="translate(222.757 132.276)" fill="#e0e0e0"/>
        <path id="Trazado_183586" data-name="Trazado 183586" d="M98.994,60.885l-2.032-.109.214-1.871,2.036.1Z" transform="translate(222.429 135.129)" fill="#e0e0e0"/>
        <path id="Trazado_183587" data-name="Trazado 183587" d="M98.844,62.159l-2.026-.132.214-1.878,2.029.125Z" transform="translate(222.101 137.982)" fill="#e0e0e0"/>
        <path id="Trazado_183588" data-name="Trazado 183588" d="M98.695,63.427l-2.019-.158.214-1.874,2.022.148Z" transform="translate(221.772 140.838)" fill="#e0e0e0"/>
        <path id="Trazado_183589" data-name="Trazado 183589" d="M98.547,64.686,96.531,64.5l.217-1.864,2.016.168Z" transform="translate(221.442 143.696)" fill="#e0e0e0"/>
        <path id="Trazado_183590" data-name="Trazado 183590" d="M98.4,65.959l-2.009-.2.214-1.871,2.013.191Z" transform="translate(221.114 146.549)" fill="#e0e0e0"/>
        <rect id="Rectángulo_37155" data-name="Rectángulo 37155" width="1.892" height="2.017" transform="translate(317.031 216.405) rotate(-83.526)" fill="#e0e0e0"/>
        <path id="Trazado_183591" data-name="Trazado 183591" d="M98.1,68.494l-2-.25.217-1.871,2,.24Z" transform="translate(220.455 152.258)" fill="#e0e0e0"/>
        <path id="Trazado_183592" data-name="Trazado 183592" d="M97.951,69.762l-1.993-.273.214-1.871,2,.263Z" transform="translate(220.127 155.114)" fill="#e0e0e0"/>
        <path id="Trazado_183593" data-name="Trazado 183593" d="M97.8,71.034l-1.986-.3.214-1.874,1.99.29Z" transform="translate(219.799 157.965)" fill="#e0e0e0"/>
        <path id="Trazado_183594" data-name="Trazado 183594" d="M97.654,72.3l-1.983-.323.217-1.868,1.983.31Z" transform="translate(219.469 160.823)" fill="#e0e0e0"/>
        <path id="Trazado_183595" data-name="Trazado 183595" d="M101.793,57.683l-1.654,1.439a.259.259,0,0,0-.046.372l1.265,1.456a.3.3,0,0,0,.4.026.292.292,0,0,0,.112-.194.231.231,0,0,0-.063-.191l-1.094-1.268,1.453-1.255a.284.284,0,0,0,.1-.181.266.266,0,0,0-.072-.2.3.3,0,0,0-.405,0" transform="translate(229.478 132.143)" fill="#fff"/>
        <path id="Trazado_183596" data-name="Trazado 183596" d="M102.994,57.745a.317.317,0,0,0-.115.2.274.274,0,0,0,.053.191s.886,1.08,1.136,1.383l-1.393,1.189a.3.3,0,0,0-.1.191.263.263,0,0,0,.063.2.3.3,0,0,0,.405.013l1.6-1.37a.277.277,0,0,0,.046-.382L103.4,57.775a.291.291,0,0,0-.4-.03" transform="translate(235.296 132.315)" fill="#fff"/>
        <path id="Trazado_183597" data-name="Trazado 183597" d="M104.21,57.774l-3.077,2.569a.257.257,0,0,0-.04.382.291.291,0,0,0,.4.013l3.08-2.566a.268.268,0,0,0,.04-.385.291.291,0,0,0-.405-.013" transform="translate(231.751 132.361)" fill="#fff"/>
        <path id="Trazado_183598" data-name="Trazado 183598" d="M100.107,71.555,98.5,72.8a.266.266,0,0,0-.043.376l1.222,1.637a.282.282,0,0,0,.385.076.236.236,0,0,0,.112-.181.26.26,0,0,0-.059-.2l-1.057-1.42L100.473,72a.267.267,0,0,0,.1-.175.313.313,0,0,0-.066-.217.3.3,0,0,0-.4-.049" transform="translate(225.718 164.022)" fill="#fff"/>
        <path id="Trazado_183599" data-name="Trazado 183599" d="M101.277,71.886a.284.284,0,0,0-.112.191.306.306,0,0,0,.049.2l1.1,1.548-1.357,1.031a.27.27,0,0,0-.1.178.289.289,0,0,0,.063.214.281.281,0,0,0,.392.059l1.561-1.189a.284.284,0,0,0,.046-.385l-1.248-1.766a.291.291,0,0,0-.392-.082" transform="translate(231.357 164.804)" fill="#fff"/>
        <path id="Trazado_183600" data-name="Trazado 183600" d="M102.454,71.828l-2.994,2.22a.264.264,0,0,0-.04.385.287.287,0,0,0,.392.066l2.994-2.22a.28.28,0,0,0,.043-.392.287.287,0,0,0-.4-.059" transform="translate(227.92 164.651)" fill="#fff"/>
        <path id="Trazado_183601" data-name="Trazado 183601" d="M108.5,61.124l-9.269-.488.2-1.716,9.279.441Z" transform="translate(227.641 135.164)" fill="#e29616"/>
        <path id="Trazado_183602" data-name="Trazado 183602" d="M108.674,68.792,98.417,67.583l.2-1.719,10.271,1.159Z" transform="translate(225.767 151.09)" fill="#f19b0f"/>
        <path id="Trazado_183603" data-name="Trazado 183603" d="M104.783,73.354,97.869,72.23l.2-1.726,6.921,1.09Z" transform="translate(224.511 161.737)" fill="#f19b0f"/>
        <path id="Trazado_183604" data-name="Trazado 183604" d="M114.565,62.792l-14.774-.935.2-1.736,14.793.866Z" transform="translate(228.92 137.916)" fill="#17bb99"/>
        <path id="Trazado_183605" data-name="Trazado 183605" d="M112.275,70.58,98.961,68.86l.2-1.733L112.5,68.784Z" transform="translate(227.015 153.99)" fill="#fbdd82"/>
        <path id="Trazado_183606" data-name="Trazado 183606" d="M111.859,71.8,98.828,69.978l.2-1.726,13.047,1.759Z" transform="translate(226.71 156.57)" fill="#89c0c8"/>
        <path id="Trazado_183607" data-name="Trazado 183607" d="M105.652,72.2l-6.964-1.051L98.9,69.42l6.97,1.018Z" transform="translate(226.391 159.249)" fill="#17bb99"/>
        <path id="Trazado_183608" data-name="Trazado 183608" d="M130.955,76.058l-29.649-4.48.217-1.775,29.682,4.338Z" transform="translate(232.395 160.126)" fill="#fbdd82"/>
        <path id="Trazado_183609" data-name="Trazado 183609" d="M124.86,73.672l-21.612-3.024.221-1.8,21.638,2.918Z" transform="translate(236.851 157.94)" fill="#fbdd82"/>
        <path id="Trazado_183610" data-name="Trazado 183610" d="M117.3,72.692l-6.983-.978.247-1.911,6.993.942Z" transform="translate(253.059 160.129)" fill="#e29616"/>
        <path id="Trazado_183611" data-name="Trazado 183611" d="M127.466,72.7l-13.914-1.8.26-1.963,13.93,1.729Z" transform="translate(260.489 158.152)" fill="#89c0c8"/>
        <path id="Trazado_183612" data-name="Trazado 183612" d="M135.013,73.567l-31.58-4.078.221-1.805,31.619,3.926Z" transform="translate(237.275 155.266)" fill="#17bb99"/>
        <path id="Trazado_183613" data-name="Trazado 183613" d="M113.215,62.76l-8.475-.537.224-1.812,8.485.5Z" transform="translate(240.271 138.582)" fill="#fbdd82"/>
        <path id="Trazado_183614" data-name="Trazado 183614" d="M109.225,65.046l-9.714-.83.2-1.729,9.727.781Z" transform="translate(228.278 143.343)" fill="#fbdd82"/>
        <path id="Trazado_183615" data-name="Trazado 183615" d="M118.722,65.883,102.94,64.549l.217-1.785,15.8,1.255Z" transform="translate(236.144 143.979)" fill="#17bb99"/>
        <path id="Trazado_183616" data-name="Trazado 183616" d="M122.956,63.412l-15.179-.962.234-1.861,15.2.889Z" transform="translate(247.239 138.99)" fill="#89c0c8"/>
        <path id="Trazado_183617" data-name="Trazado 183617" d="M116.439,64.3,99.65,63.048l.2-1.729,16.809,1.169Z" transform="translate(228.595 140.664)" fill="#89c0c8"/>
        <path id="Trazado_183618" data-name="Trazado 183618" d="M121.7,64.754l-16.424-1.225.227-1.818,16.444,1.143Z" transform="translate(241.495 141.562)" fill="#e29616"/>
        <path id="Trazado_183619" data-name="Trazado 183619" d="M122.233,64.855,110.753,64,111,62.092l11.493.8Z" transform="translate(254.067 142.437)" fill="#17bb99"/>
        <path id="Trazado_183620" data-name="Trazado 183620" d="M119.169,67.29l-19.8-1.907.208-1.729L119.4,65.462Z" transform="translate(227.959 146.02)" fill="#89c0c8"/>
        <path id="Trazado_183621" data-name="Trazado 183621" d="M116.4,67.1l-10.561-1.018.231-1.835,10.574.968Z" transform="translate(242.804 147.376)" fill="#fbdd82"/>
        <path id="Trazado_183622" data-name="Trazado 183622" d="M118.988,68.606,99.241,66.5l.208-1.736,19.767,2.013Z" transform="translate(227.658 148.564)" fill="#17bb99"/>
        <path id="Trazado_183623" data-name="Trazado 183623" d="M124.011,69.212,105.7,67.255l.231-1.835,18.334,1.864Z" transform="translate(242.466 150.075)" fill="#89c0c8"/>
        <path id="Trazado_183624" data-name="Trazado 183624" d="M130.072,68.454l-20.489-1.973.244-1.894,20.512,1.874Z" transform="translate(251.384 148.162)" fill="#17bb99"/>
        <path id="Trazado_183625" data-name="Trazado 183625" d="M107.374,61.1l-4.786-.25.214-1.772,4.793.231Z" transform="translate(235.335 135.531)" fill="#17bb99"/>
        <path id="Trazado_183626" data-name="Trazado 183626" d="M114.4,55.547a.636.636,0,0,1-.155-.016.835.835,0,0,1-.669-.972l.092-.494a.824.824,0,0,1,.975-.669.836.836,0,0,1,.672.972l-.092.494a.838.838,0,0,1-.823.685" transform="translate(260.505 122.453)" fill="#334d5c"/>
        <path id="Trazado_183627" data-name="Trazado 183627" d="M114.6,80.636a1.177,1.177,0,0,1-.152-.013.838.838,0,0,1-.672-.975l.175-.962a.837.837,0,0,1,1.647.3l-.175.962a.841.841,0,0,1-.824.688m.767-4.174a.786.786,0,0,1-.152-.013.835.835,0,0,1-.672-.972l.175-.962a.853.853,0,0,1,.975-.675.84.84,0,0,1,.672.975l-.175.962a.838.838,0,0,1-.824.685m.764-4.17a.784.784,0,0,1-.152-.013.838.838,0,0,1-.672-.975l.175-.962a.847.847,0,0,1,.975-.672.838.838,0,0,1,.672.975l-.175.962a.841.841,0,0,1-.824.685m.768-4.17a1.178,1.178,0,0,1-.152-.013.838.838,0,0,1-.672-.975l.175-.962a.837.837,0,1,1,1.647.3l-.175.962a.839.839,0,0,1-.823.688m.764-4.173a1.08,1.08,0,0,1-.148-.013.84.84,0,0,1-.675-.975l.178-.962a.837.837,0,0,1,1.647.3l-.178.965a.841.841,0,0,1-.823.685m.767-4.17a1.125,1.125,0,0,1-.148-.013.842.842,0,0,1-.675-.975l.178-.962a.837.837,0,0,1,1.647.3l-.178.962a.841.841,0,0,1-.824.688M119.2,55.6a.774.774,0,0,1-.148-.013.839.839,0,0,1-.675-.972l.178-.962a.857.857,0,0,1,.975-.675.838.838,0,0,1,.672.975l-.178.962a.841.841,0,0,1-.824.685m.771-4.17a1.179,1.179,0,0,1-.152-.013.838.838,0,0,1-.672-.975l.175-.962a.851.851,0,0,1,.975-.672.836.836,0,0,1,.672.972l-.175.965a.841.841,0,0,1-.824.685m1.084-4.081a.85.85,0,0,1-.376-.089.838.838,0,0,1-.372-1.123,8.451,8.451,0,0,1,.553-.945.838.838,0,0,1,1.38.952,5.65,5.65,0,0,0-.438.744.839.839,0,0,1-.748.461m2.79-3.133a.838.838,0,0,1-.461-1.535,8.431,8.431,0,0,1,.936-.54.843.843,0,0,1,1.12.376.833.833,0,0,1-.376,1.12,8.258,8.258,0,0,0-.758.441.839.839,0,0,1-.461.138m3.969-1.337a.836.836,0,0,1-.056-1.67l.975-.072a.839.839,0,0,1,.119,1.673l-.978.069h-.059m4.233-.306a.836.836,0,0,1-.063-1.67l.978-.072a.8.8,0,0,1,.9.771.84.84,0,0,1-.771.9l-.978.069-.063,0" transform="translate(260.978 93.666)" fill="#334d5c"/>
        <path id="Trazado_183628" data-name="Trazado 183628" d="M121.185,42.461a.836.836,0,0,1-.059-1.67l.5-.036a.809.809,0,0,1,.893.774.837.837,0,0,1-.774.9l-.5.033-.059,0" transform="translate(276.08 93.472)" fill="#334d5c"/>
        <path id="Trazado_183629" data-name="Trazado 183629" d="M133.019,46.418c-1.433,7.82-8.947,14.167-16.766,14.167s-13.015-6.348-11.582-14.167,8.946-14.181,16.773-14.181,13.011,6.348,11.575,14.181" transform="translate(239.568 73.951)" fill="#f15281"/>
        <path id="Trazado_183630" data-name="Trazado 183630" d="M117.283,35.62s-4.081,4.193-5.89,6.058L109.855,39.7a1.55,1.55,0,0,0-2.214-.046,1.641,1.641,0,0,0-.451,2.223l2.546,3.281a1.3,1.3,0,0,0,1.12.481,1.911,1.911,0,0,0,1.268-.6l7.27-7.474a1.549,1.549,0,0,0,.145-2.21,1.651,1.651,0,0,0-2.256.26" transform="translate(245.28 80.341)" fill="#fff"/>
        <path id="Trazado_183631" data-name="Trazado 183631" d="M66.98,60.2l51.485-2.21s7.006-10.623,1.489-16.556c-5.692-5.527-12.985-.352-12.985-.352s-2.223-13.334-15.686-9.75C78.038,34.864,78.575,45.494,78.615,48.109c0,0-7.586-1.034-10.689,3.528A8.843,8.843,0,0,0,66.98,60.2" transform="translate(152.057 70.481)" fill="#4581c5"/>
        <g id="Grupo_142290" data-name="Grupo 142290" transform="translate(283.251 27.525)" opacity="0.45">
          <g id="Grupo_142289" data-name="Grupo 142289">
            <g id="Grupo_142288" data-name="Grupo 142288" clip-path="url(#clip-path-3)">
              <path id="Trazado_183632" data-name="Trazado 183632" d="M148.22,39.471A31.115,31.115,0,1,1,117.1,8.356,31.115,31.115,0,0,1,148.22,39.471" transform="translate(-85.99 -8.356)" fill="#b7c6ce"/>
              <path id="Trazado_183633" data-name="Trazado 183633" d="M137.131,34.92a24.578,24.578,0,1,1-24.583-24.58,24.578,24.578,0,0,1,24.583,24.58" transform="translate(-81.437 -3.805)" fill="#aab5ba"/>
              <path id="Trazado_183634" data-name="Trazado 183634" d="M132.65,33.078a21.936,21.936,0,1,1-21.941-21.935A21.933,21.933,0,0,1,132.65,33.078" transform="translate(-79.597 -1.963)" fill="#fafafa"/>
              <g id="Grupo_142287" data-name="Grupo 142287" transform="translate(11.676 3.465)" opacity="0.6" style="mix-blend-mode: screen;isolation: isolate">
                <g id="Grupo_142286" data-name="Grupo 142286">
                  <g id="Grupo_142285" data-name="Grupo 142285" clip-path="url(#clip-path-4)">
                    <g id="Grupo_142284" data-name="Grupo 142284" opacity="0.3" style="mix-blend-mode: screen;isolation: isolate">
                      <g id="Grupo_142283" data-name="Grupo 142283">
                        <g id="Grupo_142282" data-name="Grupo 142282" clip-path="url(#clip-path-4)">
                          <path id="Trazado_183635" data-name="Trazado 183635" d="M100.359,10.824a2.228,2.228,0,0,1-1.532,2.464A17.129,17.129,0,0,0,93,16.651a2.234,2.234,0,0,1-2.9.092,2.047,2.047,0,0,1,.3-3.063,21.156,21.156,0,0,1,7.168-4.131,2.048,2.048,0,0,1,2.8,1.275" transform="translate(-89.534 -9.408)" fill="#d1bdd1"/>
                        </g>
                      </g>
                    </g>
                  </g>
                </g>
              </g>
              <path id="Trazado_183636" data-name="Trazado 183636" d="M111.99,15.156,95.674,23.305a1,1,0,1,0,.883,1.792l16.318-8.153a1,1,0,0,0-.886-1.789" transform="translate(-65.06 7.003)" fill="#b7c6ce"/>
              <path id="Trazado_183637" data-name="Trazado 183637" d="M95.2,14.835l-.066,11.414a1,1,0,1,0,1.993.007l.069-11.414a1,1,0,0,0-2-.007" transform="translate(-65.019 4.224)" fill="#b7c6ce"/>
              <path id="Trazado_183638" data-name="Trazado 183638" d="M96.295,17.117a3.423,3.423,0,1,0,4.589,1.545,3.435,3.435,0,0,0-4.589-1.545" transform="translate(-66.705 10.925)" fill="#aab5ba"/>
              <path id="Trazado_183639" data-name="Trazado 183639" d="M95.9,17.432a1.834,1.834,0,1,1-.833,2.461,1.839,1.839,0,0,1,.833-2.461" transform="translate(-65.602 12.029)" fill="#b7c6ce"/>
            </g>
          </g>
        </g>
        <g id="Grupo_142293" data-name="Grupo 142293" transform="translate(135.805 14.945)" opacity="0.5">
          <g id="Grupo_142292" data-name="Grupo 142292">
            <g id="Grupo_142291" data-name="Grupo 142291" clip-path="url(#clip-path-6)">
              <path id="Trazado_183640" data-name="Trazado 183640" d="M134.04,52.134c0-.1.02-.2.02-.3,0-22.142-20.782-40.091-46.419-40.091S41.228,29.692,41.228,51.834c0,.1.013.2.013.3Z" transform="translate(-41.228 11.993)" fill="#b7c6ce"/>
              <path id="Trazado_183641" data-name="Trazado 183641" d="M52.038,24.476v.086a10.808,10.808,0,1,0,21.615,0l-.007-.086Z" transform="translate(-16.43 41.203)" fill="#b7c6ce"/>
              <path id="Trazado_183642" data-name="Trazado 183642" d="M56.786,4.537V31.762H55.057V5.127c.313-.105.623-.208.932-.313a6.938,6.938,0,0,1,.8-.277" transform="translate(-9.504 -4.537)" fill="#b7c6ce"/>
            </g>
          </g>
        </g>
      </g>
    </g>
  </g>
</svg>
