<svg xmlns="http://www.w3.org/2000/svg" xmlns:xlink="http://www.w3.org/1999/xlink" width="1240" height="276" viewBox="0 0 1240 276">
  <defs>
    <clipPath id="clip-path">
      <path id="Trazado_185492" data-name="Trazado 185492" d="M0,0H1240V276H0Z" fill="none"/>
    </clipPath>
    <clipPath id="clip-path-2">
      <rect id="Rectángulo_38041" data-name="Rectángulo 38041" width="1240" height="276" fill="none"/>
    </clipPath>
  </defs>
  <g id="img10-2" transform="translate(1305 6983)">
    <g id="Grupo_143569" data-name="Grupo 143569" transform="translate(-1305 -6983)">
      <rect id="Rectángulo_38039" data-name="Rectángulo 38039" width="1240" height="276" fill="#dcf8f9"/>
      <g id="Grupo_143566" data-name="Grupo 143566">
        <g id="Enmascarar_grupo_141207" data-name="Enmascarar grupo 141207" clip-path="url(#clip-path)">
          <path id="Trazado_185493" data-name="Trazado 185493" d="M11.87,0H.956V-2.363L5.983-7.648q1.858-2.116,1.858-3.362a2.339,2.339,0,0,0-.44-1.536,1.572,1.572,0,0,0-1.278-.526,1.592,1.592,0,0,0-1.343.7,2.892,2.892,0,0,0-.516,1.756H.634a5.136,5.136,0,0,1,.72-2.659,5.047,5.047,0,0,1,2-1.907,5.935,5.935,0,0,1,2.857-.687,5.839,5.839,0,0,1,3.9,1.171,4.18,4.18,0,0,1,1.37,3.362,4.883,4.883,0,0,1-.344,1.8A7.891,7.891,0,0,1,10.071-7.7,26.924,26.924,0,0,1,7.734-5.124L5.715-2.793H11.87ZM24.557-6.392A7.468,7.468,0,0,1,23.133-1.5,4.919,4.919,0,0,1,19.121.215a4.945,4.945,0,0,1-4.039-1.729,7.457,7.457,0,0,1-1.429-4.877V-9.249a7.468,7.468,0,0,1,1.423-4.888A4.931,4.931,0,0,1,19.1-15.855a4.933,4.933,0,0,1,4.028,1.729,7.475,7.475,0,0,1,1.429,4.888Zm-3.62-3.319a5.578,5.578,0,0,0-.44-2.519,1.472,1.472,0,0,0-1.4-.833,1.437,1.437,0,0,0-1.359.773,5.255,5.255,0,0,0-.457,2.342v4a5.62,5.62,0,0,0,.44,2.562,1.478,1.478,0,0,0,1.4.811,1.458,1.458,0,0,0,1.364-.79,5.366,5.366,0,0,0,.451-2.476ZM34.461,0H30.83V-11.559l-3.566,1.042v-2.75l6.864-2.374h.333Zm15.63,0H39.177V-2.363L44.2-7.648q1.858-2.116,1.858-3.362a2.339,2.339,0,0,0-.44-1.536,1.572,1.572,0,0,0-1.278-.526,1.592,1.592,0,0,0-1.343.7,2.892,2.892,0,0,0-.516,1.756H38.854a5.136,5.136,0,0,1,.72-2.659,5.047,5.047,0,0,1,2-1.907,5.935,5.935,0,0,1,2.857-.687,5.839,5.839,0,0,1,3.9,1.171,4.18,4.18,0,0,1,1.37,3.362,4.882,4.882,0,0,1-.344,1.8A7.891,7.891,0,0,1,48.292-7.7a26.924,26.924,0,0,1-2.336,2.573l-2.02,2.331h6.155Z" transform="translate(69.358 98.714)" fill="#1565c0"/>
        </g>
      </g>
      <path id="Trazado_185494" data-name="Trazado 185494" d="M11.87,0H.956V-2.363L5.983-7.648q1.858-2.116,1.858-3.362a2.339,2.339,0,0,0-.44-1.536,1.572,1.572,0,0,0-1.278-.526,1.592,1.592,0,0,0-1.343.7,2.892,2.892,0,0,0-.516,1.756H.634a5.136,5.136,0,0,1,.72-2.659,5.047,5.047,0,0,1,2-1.907,5.935,5.935,0,0,1,2.857-.687,5.839,5.839,0,0,1,3.9,1.171,4.18,4.18,0,0,1,1.37,3.362,4.883,4.883,0,0,1-.344,1.8A7.891,7.891,0,0,1,10.071-7.7,26.924,26.924,0,0,1,7.734-5.124L5.715-2.793H11.87ZM24.557-6.392A7.468,7.468,0,0,1,23.133-1.5,4.919,4.919,0,0,1,19.121.215a4.945,4.945,0,0,1-4.039-1.729,7.457,7.457,0,0,1-1.429-4.877V-9.249a7.468,7.468,0,0,1,1.423-4.888A4.931,4.931,0,0,1,19.1-15.855a4.933,4.933,0,0,1,4.028,1.729,7.475,7.475,0,0,1,1.429,4.888Zm-3.62-3.319a5.578,5.578,0,0,0-.44-2.519,1.472,1.472,0,0,0-1.4-.833,1.437,1.437,0,0,0-1.359.773,5.255,5.255,0,0,0-.457,2.342v4a5.62,5.62,0,0,0,.44,2.562,1.478,1.478,0,0,0,1.4.811,1.458,1.458,0,0,0,1.364-.79,5.366,5.366,0,0,0,.451-2.476ZM34.461,0H30.83V-11.559l-3.566,1.042v-2.75l6.864-2.374h.333Zm4.931-7.64.956-8h9.142v2.814h-6.2l-.354,3.107a4.27,4.27,0,0,1,1.015-.4,4.632,4.632,0,0,1,1.23-.173,4.589,4.589,0,0,1,3.583,1.38,5.56,5.56,0,0,1,1.251,3.873,5.55,5.55,0,0,1-.671,2.723A4.615,4.615,0,0,1,47.459-.44a5.952,5.952,0,0,1-2.868.655A6.4,6.4,0,0,1,41.83-.392a4.953,4.953,0,0,1-2.02-1.664,4.043,4.043,0,0,1-.72-2.388h3.631a2.054,2.054,0,0,0,.548,1.361,1.739,1.739,0,0,0,1.3.5q1.826,0,1.826-2.7,0-2.5-2.234-2.5a2.23,2.23,0,0,0-1.891.815Z" transform="translate(237 189.588)" fill="#1565c0"/>
      <path id="Trazado_185497" data-name="Trazado 185497" d="M11.87,0H.956V-2.363L5.983-7.648q1.858-2.116,1.858-3.362a2.339,2.339,0,0,0-.44-1.536,1.572,1.572,0,0,0-1.278-.526,1.592,1.592,0,0,0-1.343.7,2.892,2.892,0,0,0-.516,1.756H.634a5.136,5.136,0,0,1,.72-2.659,5.047,5.047,0,0,1,2-1.907,5.935,5.935,0,0,1,2.857-.687,5.839,5.839,0,0,1,3.9,1.171,4.18,4.18,0,0,1,1.37,3.362,4.883,4.883,0,0,1-.344,1.8A7.891,7.891,0,0,1,10.071-7.7,26.924,26.924,0,0,1,7.734-5.124L5.715-2.793H11.87ZM24.557-6.392A7.468,7.468,0,0,1,23.133-1.5,4.919,4.919,0,0,1,19.121.215a4.945,4.945,0,0,1-4.039-1.729,7.457,7.457,0,0,1-1.429-4.877V-9.249a7.468,7.468,0,0,1,1.423-4.888A4.931,4.931,0,0,1,19.1-15.855a4.933,4.933,0,0,1,4.028,1.729,7.475,7.475,0,0,1,1.429,4.888Zm-3.62-3.319a5.578,5.578,0,0,0-.44-2.519,1.472,1.472,0,0,0-1.4-.833,1.437,1.437,0,0,0-1.359.773,5.255,5.255,0,0,0-.457,2.342v4a5.62,5.62,0,0,0,.44,2.562,1.478,1.478,0,0,0,1.4.811,1.458,1.458,0,0,0,1.364-.79,5.366,5.366,0,0,0,.451-2.476ZM34.461,0H30.83V-11.559l-3.566,1.042v-2.75l6.864-2.374h.333Zm13.46-15.866v2.847H47.76a5.435,5.435,0,0,0-3.335.972,4.1,4.1,0,0,0-1.606,2.7,4.233,4.233,0,0,1,3.094-1.2,3.949,3.949,0,0,1,3.233,1.482,5.979,5.979,0,0,1,1.2,3.889,5.475,5.475,0,0,1-.7,2.739,5.021,5.021,0,0,1-1.966,1.95,5.649,5.649,0,0,1-2.8.7,5.838,5.838,0,0,1-2.976-.757,5.207,5.207,0,0,1-2.041-2.165,7.128,7.128,0,0,1-.752-3.244V-7.4a9.029,9.029,0,0,1,1.037-4.345,7.515,7.515,0,0,1,2.959-3.024,8.461,8.461,0,0,1,4.265-1.1ZM44.655-7.777a2.071,2.071,0,0,0-1.2.333,2.114,2.114,0,0,0-.72.816v1.085q0,2.965,2.052,2.965a1.664,1.664,0,0,0,1.38-.741,3.021,3.021,0,0,0,.553-1.858,2.965,2.965,0,0,0-.564-1.875A1.8,1.8,0,0,0,44.655-7.777Z" transform="translate(424.792 101.5)" fill="#1565c0"/>
      <path id="Trazado_185498" data-name="Trazado 185498" d="M11.87,0H.956V-2.363L5.983-7.648q1.858-2.116,1.858-3.362a2.339,2.339,0,0,0-.44-1.536,1.572,1.572,0,0,0-1.278-.526,1.592,1.592,0,0,0-1.343.7,2.892,2.892,0,0,0-.516,1.756H.634a5.136,5.136,0,0,1,.72-2.659,5.047,5.047,0,0,1,2-1.907,5.935,5.935,0,0,1,2.857-.687,5.839,5.839,0,0,1,3.9,1.171,4.18,4.18,0,0,1,1.37,3.362,4.883,4.883,0,0,1-.344,1.8A7.891,7.891,0,0,1,10.071-7.7,26.924,26.924,0,0,1,7.734-5.124L5.715-2.793H11.87ZM24.557-6.392A7.468,7.468,0,0,1,23.133-1.5,4.919,4.919,0,0,1,19.121.215a4.945,4.945,0,0,1-4.039-1.729,7.457,7.457,0,0,1-1.429-4.877V-9.249a7.468,7.468,0,0,1,1.423-4.888A4.931,4.931,0,0,1,19.1-15.855a4.933,4.933,0,0,1,4.028,1.729,7.475,7.475,0,0,1,1.429,4.888Zm-3.62-3.319a5.578,5.578,0,0,0-.44-2.519,1.472,1.472,0,0,0-1.4-.833,1.437,1.437,0,0,0-1.359.773,5.255,5.255,0,0,0-.457,2.342v4a5.62,5.62,0,0,0,.44,2.562,1.478,1.478,0,0,0,1.4.811,1.458,1.458,0,0,0,1.364-.79,5.366,5.366,0,0,0,.451-2.476ZM34.461,0H30.83V-11.559l-3.566,1.042v-2.75l6.864-2.374h.333ZM50.048-13.707,44.2,0H40.38l5.854-12.848H38.779v-2.793H50.048Z" transform="translate(591.86 189.588)" fill="#1565c0"/>
      <path id="Trazado_185501" data-name="Trazado 185501" d="M11.87,0H.956V-2.363L5.983-7.648q1.858-2.116,1.858-3.362a2.339,2.339,0,0,0-.44-1.536,1.572,1.572,0,0,0-1.278-.526,1.592,1.592,0,0,0-1.343.7,2.892,2.892,0,0,0-.516,1.756H.634a5.136,5.136,0,0,1,.72-2.659,5.047,5.047,0,0,1,2-1.907,5.935,5.935,0,0,1,2.857-.687,5.839,5.839,0,0,1,3.9,1.171,4.18,4.18,0,0,1,1.37,3.362,4.883,4.883,0,0,1-.344,1.8A7.891,7.891,0,0,1,10.071-7.7,26.924,26.924,0,0,1,7.734-5.124L5.715-2.793H11.87ZM24.557-6.392A7.468,7.468,0,0,1,23.133-1.5,4.919,4.919,0,0,1,19.121.215a4.945,4.945,0,0,1-4.039-1.729,7.457,7.457,0,0,1-1.429-4.877V-9.249a7.468,7.468,0,0,1,1.423-4.888A4.931,4.931,0,0,1,19.1-15.855a4.933,4.933,0,0,1,4.028,1.729,7.475,7.475,0,0,1,1.429,4.888Zm-3.62-3.319a5.578,5.578,0,0,0-.44-2.519,1.472,1.472,0,0,0-1.4-.833,1.437,1.437,0,0,0-1.359.773,5.255,5.255,0,0,0-.457,2.342v4a5.62,5.62,0,0,0,.44,2.562,1.478,1.478,0,0,0,1.4.811,1.458,1.458,0,0,0,1.364-.79,5.366,5.366,0,0,0,.451-2.476ZM34.461,0H30.83V-11.559l-3.566,1.042v-2.75l6.864-2.374h.333ZM49.726-11.462a3.611,3.611,0,0,1-.564,2.009,4.107,4.107,0,0,1-1.552,1.4,4.52,4.52,0,0,1,1.772,1.5,3.867,3.867,0,0,1,.655,2.25A4.093,4.093,0,0,1,48.592-1,6,6,0,0,1,44.612.215,6.109,6.109,0,0,1,40.595-1a4.064,4.064,0,0,1-1.472-3.3,3.915,3.915,0,0,1,.645-2.224,4.383,4.383,0,0,1,1.826-1.525,4.131,4.131,0,0,1-1.568-1.4,3.586,3.586,0,0,1-.569-2.009,4.013,4.013,0,0,1,1.386-3.223,5.571,5.571,0,0,1,3.738-1.182,5.6,5.6,0,0,1,3.76,1.182A4.013,4.013,0,0,1,49.726-11.462ZM46.406-4.6a2.065,2.065,0,0,0-.5-1.488,1.739,1.739,0,0,0-1.316-.521,1.757,1.757,0,0,0-1.321.521,2.051,2.051,0,0,0-.5,1.488,2.069,2.069,0,0,0,.51,1.477,1.751,1.751,0,0,0,1.337.542,1.683,1.683,0,0,0,1.3-.537A2.106,2.106,0,0,0,46.406-4.6ZM44.58-13.073a1.338,1.338,0,0,0-1.112.478,2.075,2.075,0,0,0-.381,1.327,2.2,2.2,0,0,0,.387,1.354,1.334,1.334,0,0,0,1.139.516,1.28,1.28,0,0,0,1.112-.516,2.268,2.268,0,0,0,.371-1.354,2.079,2.079,0,0,0-.381-1.321A1.356,1.356,0,0,0,44.58-13.073Z" transform="translate(770.808 107.11)" fill="#1565c0"/>
      <path id="Trazado_185502" data-name="Trazado 185502" d="M11.87,0H.956V-2.363L5.983-7.648q1.858-2.116,1.858-3.362a2.339,2.339,0,0,0-.44-1.536,1.572,1.572,0,0,0-1.278-.526,1.592,1.592,0,0,0-1.343.7,2.892,2.892,0,0,0-.516,1.756H.634a5.136,5.136,0,0,1,.72-2.659,5.047,5.047,0,0,1,2-1.907,5.935,5.935,0,0,1,2.857-.687,5.839,5.839,0,0,1,3.9,1.171,4.18,4.18,0,0,1,1.37,3.362,4.883,4.883,0,0,1-.344,1.8A7.891,7.891,0,0,1,10.071-7.7,26.924,26.924,0,0,1,7.734-5.124L5.715-2.793H11.87ZM24.557-6.392A7.468,7.468,0,0,1,23.133-1.5,4.919,4.919,0,0,1,19.121.215a4.945,4.945,0,0,1-4.039-1.729,7.457,7.457,0,0,1-1.429-4.877V-9.249a7.468,7.468,0,0,1,1.423-4.888A4.931,4.931,0,0,1,19.1-15.855a4.933,4.933,0,0,1,4.028,1.729,7.475,7.475,0,0,1,1.429,4.888Zm-3.62-3.319a5.578,5.578,0,0,0-.44-2.519,1.472,1.472,0,0,0-1.4-.833,1.437,1.437,0,0,0-1.359.773,5.255,5.255,0,0,0-.457,2.342v4a5.62,5.62,0,0,0,.44,2.562,1.478,1.478,0,0,0,1.4.811,1.458,1.458,0,0,0,1.364-.79,5.366,5.366,0,0,0,.451-2.476ZM34.461,0H30.83V-11.559l-3.566,1.042v-2.75l6.864-2.374h.333ZM46.31-6.048A3.824,3.824,0,0,1,43.688-5a4.232,4.232,0,0,1-3.373-1.439,5.671,5.671,0,0,1-1.246-3.846,5.772,5.772,0,0,1,.7-2.793,5.239,5.239,0,0,1,1.96-2.041,5.345,5.345,0,0,1,2.788-.752,5.189,5.189,0,0,1,2.8.779,5.244,5.244,0,0,1,1.95,2.2,7.564,7.564,0,0,1,.72,3.282v1.386a9.4,9.4,0,0,1-1.015,4.49,7.008,7.008,0,0,1-2.9,2.922A9.046,9.046,0,0,1,41.69.215h-.226v-2.9l.688-.011Q45.891-2.879,46.31-6.048ZM44.666-7.605a1.762,1.762,0,0,0,1.7-1.021v-1.5a3.91,3.91,0,0,0-.5-2.224,1.584,1.584,0,0,0-1.364-.72,1.5,1.5,0,0,0-1.278.816A3.627,3.627,0,0,0,42.7-10.28a3.252,3.252,0,0,0,.526,1.95A1.684,1.684,0,0,0,44.666-7.605Z" transform="translate(945.576 189.588)" fill="#1565c0"/>
      <path id="Trazado_185505" data-name="Trazado 185505" d="M11.87,0H.956V-2.363L5.983-7.648q1.858-2.116,1.858-3.362a2.339,2.339,0,0,0-.44-1.536,1.572,1.572,0,0,0-1.278-.526,1.592,1.592,0,0,0-1.343.7,2.892,2.892,0,0,0-.516,1.756H.634a5.136,5.136,0,0,1,.72-2.659,5.047,5.047,0,0,1,2-1.907,5.935,5.935,0,0,1,2.857-.687,5.839,5.839,0,0,1,3.9,1.171,4.18,4.18,0,0,1,1.37,3.362,4.883,4.883,0,0,1-.344,1.8A7.891,7.891,0,0,1,10.071-7.7,26.924,26.924,0,0,1,7.734-5.124L5.715-2.793H11.87ZM24.557-6.392A7.468,7.468,0,0,1,23.133-1.5,4.919,4.919,0,0,1,19.121.215a4.945,4.945,0,0,1-4.039-1.729,7.457,7.457,0,0,1-1.429-4.877V-9.249a7.468,7.468,0,0,1,1.423-4.888A4.931,4.931,0,0,1,19.1-15.855a4.933,4.933,0,0,1,4.028,1.729,7.475,7.475,0,0,1,1.429,4.888Zm-3.62-3.319a5.578,5.578,0,0,0-.44-2.519,1.472,1.472,0,0,0-1.4-.833,1.437,1.437,0,0,0-1.359.773,5.255,5.255,0,0,0-.457,2.342v4a5.62,5.62,0,0,0,.44,2.562,1.478,1.478,0,0,0,1.4.811,1.458,1.458,0,0,0,1.364-.79,5.366,5.366,0,0,0,.451-2.476ZM37.351,0H26.437V-2.363l5.027-5.285q1.858-2.116,1.858-3.362a2.339,2.339,0,0,0-.44-1.536,1.572,1.572,0,0,0-1.278-.526,1.592,1.592,0,0,0-1.343.7,2.892,2.892,0,0,0-.516,1.756H26.114a5.136,5.136,0,0,1,.72-2.659,5.047,5.047,0,0,1,2-1.907,5.935,5.935,0,0,1,2.857-.687,5.839,5.839,0,0,1,3.9,1.171,4.18,4.18,0,0,1,1.37,3.362,4.882,4.882,0,0,1-.344,1.8A7.891,7.891,0,0,1,35.551-7.7a26.924,26.924,0,0,1-2.336,2.573L31.2-2.793h6.155ZM50.037-6.392A7.468,7.468,0,0,1,48.614-1.5,4.919,4.919,0,0,1,44.6.215a4.945,4.945,0,0,1-4.039-1.729,7.457,7.457,0,0,1-1.429-4.877V-9.249a7.468,7.468,0,0,1,1.423-4.888,4.931,4.931,0,0,1,4.023-1.719,4.933,4.933,0,0,1,4.028,1.729,7.475,7.475,0,0,1,1.429,4.888Zm-3.62-3.319a5.578,5.578,0,0,0-.44-2.519,1.472,1.472,0,0,0-1.4-.833,1.437,1.437,0,0,0-1.359.773,5.255,5.255,0,0,0-.457,2.342v4a5.62,5.62,0,0,0,.44,2.562,1.478,1.478,0,0,0,1.4.811,1.458,1.458,0,0,0,1.364-.79,5.366,5.366,0,0,0,.451-2.476Z" transform="translate(1119.64 107.11)" fill="#1565c0"/>
      <path id="Trazado_185253" data-name="Trazado 185253" d="M7.027,120.911H0L14.053,138.02,0,155.138H162.193l14.056-17.118-14.056-17.109Z" fill="#1565c0"/>
      <path id="Trazado_185254" data-name="Trazado 185254" d="M338.442,155.138H176.249L190.3,138.021l-14.053-17.11H338.442l14.055,17.11Z" fill="#4dd0e1"/>
      <path id="Trazado_185255" data-name="Trazado 185255" d="M514.69,155.138H352.5l14.053-17.117L352.5,120.911H514.69l14.055,17.11Z" fill="#1565c0"/>
      <path id="Trazado_185256" data-name="Trazado 185256" d="M690.938,155.138H528.745L542.8,138.021l-14.053-17.11H690.938l14.055,17.11Z" fill="#4dd0e1"/>
      <path id="Trazado_185257" data-name="Trazado 185257" d="M867.187,155.138H704.994l14.053-17.117-14.053-17.11H867.187l14.055,17.11Z" fill="#1565c0"/>
      <path id="Trazado_185258" data-name="Trazado 185258" d="M1043.435,155.138H881.242L895.3,138.021l-14.053-17.11h162.193l14.055,17.11Z" fill="#4dd0e1"/>
      <path id="Trazado_185259" data-name="Trazado 185259" d="M1219.684,155.138H1057.491l14.053-17.117-14.053-17.11h162.193l14.055,17.11Z" fill="#1565c0"/>
      <g id="Grupo_143568" data-name="Grupo 143568">
        <g id="Grupo_143567" data-name="Grupo 143567" clip-path="url(#clip-path-2)">
          <path id="Trazado_185260" data-name="Trazado 185260" d="M94.036,138a5.912,5.912,0,1,1-5.912-5.912A5.912,5.912,0,0,1,94.036,138" fill="#f2f2f2"/>
          <line id="Línea_182" data-name="Línea 182" y1="42.059" transform="translate(88.124 143.912)" fill="none" stroke="#b3b3b3" stroke-miterlimit="10" stroke-width="1"/>
          <path id="Trazado_185261" data-name="Trazado 185261" d="M449.488,138a5.911,5.911,0,1,1-5.912-5.912A5.912,5.912,0,0,1,449.488,138" fill="#f2f2f2"/>
          <line id="Línea_183" data-name="Línea 183" y1="42.059" transform="translate(443.577 143.912)" fill="none" stroke="#b3b3b3" stroke-miterlimit="10" stroke-width="1"/>
          <path id="Trazado_185262" data-name="Trazado 185262" d="M801.985,138a5.911,5.911,0,1,1-5.912-5.912A5.912,5.912,0,0,1,801.985,138" fill="#f2f2f2"/>
          <line id="Línea_184" data-name="Línea 184" y1="42.059" transform="translate(796.074 143.912)" fill="none" stroke="#b3b3b3" stroke-miterlimit="10" stroke-width="1"/>
          <path id="Trazado_185263" data-name="Trazado 185263" d="M1151.526,138a5.911,5.911,0,1,1-5.912-5.912,5.912,5.912,0,0,1,5.912,5.912" fill="#f2f2f2"/>
          <line id="Línea_185" data-name="Línea 185" y1="42.059" transform="translate(1145.615 143.912)" fill="none" stroke="#b3b3b3" stroke-miterlimit="10" stroke-width="1"/>
          <path id="Trazado_185264" data-name="Trazado 185264" d="M270.284,138a5.911,5.911,0,1,1-5.912-5.912A5.912,5.912,0,0,1,270.284,138" fill="#f2f2f2"/>
          <line id="Línea_186" data-name="Línea 186" y1="42.06" transform="translate(264.373 90.028)" fill="none" stroke="#b3b3b3" stroke-miterlimit="10" stroke-width="1"/>
          <path id="Trazado_185265" data-name="Trazado 185265" d="M628.693,138a5.911,5.911,0,1,1-5.912-5.912A5.912,5.912,0,0,1,628.693,138" fill="#f2f2f2"/>
          <line id="Línea_187" data-name="Línea 187" y1="42.06" transform="translate(622.781 90.028)" fill="none" stroke="#b3b3b3" stroke-miterlimit="10" stroke-width="1"/>
          <path id="Trazado_185266" data-name="Trazado 185266" d="M975.278,138a5.911,5.911,0,1,1-5.912-5.912A5.912,5.912,0,0,1,975.278,138" fill="#f2f2f2"/>
          <line id="Línea_188" data-name="Línea 188" y1="42.06" transform="translate(969.366 90.028)" fill="none" stroke="#b3b3b3" stroke-miterlimit="10" stroke-width="1"/>
        </g>
      </g>
    </g>
    <path id="Trazado_185491" data-name="Trazado 185491" d="M6.386,9.995H2.729V12.47H7.021V14H.825V4.758H7.008V6.3H2.729V8.5H6.386Zm6.544,1.581a.977.977,0,0,0-.381-.828,5,5,0,0,0-1.371-.609A9.72,9.72,0,0,1,9.61,9.506,2.562,2.562,0,0,1,8.036,7.214a2.232,2.232,0,0,1,.422-1.336,2.753,2.753,0,0,1,1.212-.917,4.563,4.563,0,0,1,1.774-.33,4.154,4.154,0,0,1,1.765.359A2.81,2.81,0,0,1,14.412,6a2.649,2.649,0,0,1,.428,1.485h-1.9a1.246,1.246,0,0,0-.4-.987,1.644,1.644,0,0,0-1.124-.352,1.756,1.756,0,0,0-1.085.3.931.931,0,0,0-.387.778.892.892,0,0,0,.454.755,5.128,5.128,0,0,0,1.336.571A5.773,5.773,0,0,1,14.1,9.76a2.415,2.415,0,0,1,.743,1.8,2.224,2.224,0,0,1-.908,1.882,3.974,3.974,0,0,1-2.444.682,4.719,4.719,0,0,1-1.942-.39,3.074,3.074,0,0,1-1.336-1.07,2.739,2.739,0,0,1-.46-1.574H9.661q0,1.53,1.828,1.53a1.778,1.778,0,0,0,1.06-.276A.9.9,0,0,0,12.93,11.575Zm7.979-6.913V6.173h-.178a3.117,3.117,0,0,0-2,.647,2.631,2.631,0,0,0-.911,1.746,2.5,2.5,0,0,1,1.86-.749,2.354,2.354,0,0,1,1.917.863,3.461,3.461,0,0,1,.711,2.272,3.4,3.4,0,0,1-.39,1.631,2.8,2.8,0,0,1-1.1,1.136,3.209,3.209,0,0,1-1.615.406,3,3,0,0,1-2.358-1.016,3.942,3.942,0,0,1-.9-2.71v-.66a5.933,5.933,0,0,1,.568-2.656A4.166,4.166,0,0,1,18.138,5.3,4.78,4.78,0,0,1,20.6,4.663ZM19.119,9.3a1.466,1.466,0,0,0-.806.231,1.393,1.393,0,0,0-.533.611V10.7a2.47,2.47,0,0,0,.362,1.435,1.169,1.169,0,0,0,1.016.516,1.156,1.156,0,0,0,.955-.466,1.9,1.9,0,0,0,.365-1.207,1.9,1.9,0,0,0-.368-1.216A1.2,1.2,0,0,0,19.119,9.3ZM34.563,4.758l-1.041,6.094a3.714,3.714,0,0,1-1.27,2.418,3.816,3.816,0,0,1-2.615.863,3.522,3.522,0,0,1-1.7-.428,2.5,2.5,0,0,1-1.063-1.155,3.132,3.132,0,0,1-.235-1.692l1.035-6.1h1.86L28.5,10.864a2.713,2.713,0,0,0-.006.667A1.125,1.125,0,0,0,29.72,12.6a1.75,1.75,0,0,0,1.289-.432,2.211,2.211,0,0,0,.647-1.308l1.041-6.1Zm2.653,2.368-.152.813a2.471,2.471,0,0,1,2-.933,1.648,1.648,0,0,1,1.435.711,2.865,2.865,0,0,1,.336,1.917L40.111,14h-1.79l.736-4.386a2.054,2.054,0,0,0,.013-.451.727.727,0,0,0-.812-.667,1.541,1.541,0,0,0-1.263.654L36.137,14h-1.79l1.193-6.868ZM44.922,7a1.954,1.954,0,0,1,1.549.768l.673-3.517h1.8L47.252,14h-1.6l.1-.736a2.223,2.223,0,0,1-1.79.87A1.977,1.977,0,0,1,42.84,13.8a2.118,2.118,0,0,1-.746-.949,3.822,3.822,0,0,1-.289-1.381,5.2,5.2,0,0,1,.019-.774l.038-.286a5.5,5.5,0,0,1,.587-1.854,3.06,3.06,0,0,1,1.066-1.187A2.514,2.514,0,0,1,44.922,7Zm-1.3,3.694a5.14,5.14,0,0,0-.032.813q.063,1.117.9,1.136a1.532,1.532,0,0,0,1.314-.711L46.293,9.2a1.014,1.014,0,0,0-.99-.711,1.3,1.3,0,0,0-1.089.5A3.393,3.393,0,0,0,43.621,10.693Zm8.322,3.434a2.988,2.988,0,0,1-1.6-.441,2.675,2.675,0,0,1-1.038-1.193,3.326,3.326,0,0,1-.267-1.673l.019-.254a4.44,4.44,0,0,1,.584-1.841A3.527,3.527,0,0,1,50.9,7.433,3.11,3.11,0,0,1,52.6,7a2.376,2.376,0,0,1,2.009.976,3.345,3.345,0,0,1,.517,2.406l-.1.782H50.819a1.474,1.474,0,0,0,.324,1.066,1.236,1.236,0,0,0,.952.413,2.2,2.2,0,0,0,1.714-.762l.819,1.016a2.547,2.547,0,0,1-1.117.911A3.653,3.653,0,0,1,51.943,14.127Zm.571-5.643a1.272,1.272,0,0,0-.879.311,2.733,2.733,0,0,0-.689,1.124h2.463l.038-.165a1.682,1.682,0,0,0,.006-.482.921.921,0,0,0-.311-.574A.975.975,0,0,0,52.514,8.484Zm7.75.368a3.7,3.7,0,0,0-.6-.063,1.735,1.735,0,0,0-1.517.717L57.351,14h-1.79l1.193-6.868,1.682-.006-.165.838a1.889,1.889,0,0,1,1.6-.971,2.611,2.611,0,0,1,.622.089ZM69.634,11.5l1.631-4.367h1.784L70.161,14h-1.5l-.508-4.3L66.149,14h-1.5l-.508-6.868h1.676l.108,4.323,1.961-4.323h1.295Zm7.1,2.5a1.853,1.853,0,0,1-.07-.622,2.326,2.326,0,0,1-1.752.749,2.108,2.108,0,0,1-1.495-.587,1.776,1.776,0,0,1-.555-1.419,2.053,2.053,0,0,1,.943-1.723,4.279,4.279,0,0,1,2.409-.6l.838.013.089-.413a1.433,1.433,0,0,0,.019-.4.687.687,0,0,0-.225-.467.776.776,0,0,0-.511-.175,1.093,1.093,0,0,0-.711.206,1,1,0,0,0-.375.632l-1.8.006a2,2,0,0,1,.9-1.6A3.5,3.5,0,0,1,76.572,7a2.533,2.533,0,0,1,1.828.7,2.033,2.033,0,0,1,.552,1.723l-.527,3.288-.032.406a1.96,1.96,0,0,0,.108.762L78.5,14Zm-1.377-1.263a1.639,1.639,0,0,0,1.352-.673l.222-1.187-.622-.006a1.738,1.738,0,0,0-1.428.6,1.05,1.05,0,0,0-.2.514.609.609,0,0,0,.143.543A.724.724,0,0,0,75.359,12.737ZM82.5,11.385l1.961-4.253h1.993l-4.018,7.9a3.438,3.438,0,0,1-1.012,1.333,2.212,2.212,0,0,1-1.343.425,4.091,4.091,0,0,1-.863-.133l.133-1.4.248.013a1.342,1.342,0,0,0,1.282-.641l.394-.73L80.152,7.132h1.854Z" transform="translate(-1261 -6784)" fill="#12263f"/>
    <path id="Trazado_185495" data-name="Trazado 185495" d="M6.386,9.995H2.729V12.47H7.021V14H.825V4.758H7.008V6.3H2.729V8.5H6.386Zm6.544,1.581a.977.977,0,0,0-.381-.828,5,5,0,0,0-1.371-.609A9.72,9.72,0,0,1,9.61,9.506,2.562,2.562,0,0,1,8.036,7.214a2.232,2.232,0,0,1,.422-1.336,2.753,2.753,0,0,1,1.212-.917,4.563,4.563,0,0,1,1.774-.33,4.154,4.154,0,0,1,1.765.359A2.81,2.81,0,0,1,14.412,6a2.649,2.649,0,0,1,.428,1.485h-1.9a1.246,1.246,0,0,0-.4-.987,1.644,1.644,0,0,0-1.124-.352,1.756,1.756,0,0,0-1.085.3.931.931,0,0,0-.387.778.892.892,0,0,0,.454.755,5.128,5.128,0,0,0,1.336.571A5.773,5.773,0,0,1,14.1,9.76a2.415,2.415,0,0,1,.743,1.8,2.224,2.224,0,0,1-.908,1.882,3.974,3.974,0,0,1-2.444.682,4.719,4.719,0,0,1-1.942-.39,3.074,3.074,0,0,1-1.336-1.07,2.739,2.739,0,0,1-.46-1.574H9.661q0,1.53,1.828,1.53a1.778,1.778,0,0,0,1.06-.276A.9.9,0,0,0,12.93,11.575Zm7.979-6.913V6.173h-.178a3.117,3.117,0,0,0-2,.647,2.631,2.631,0,0,0-.911,1.746,2.5,2.5,0,0,1,1.86-.749,2.354,2.354,0,0,1,1.917.863,3.461,3.461,0,0,1,.711,2.272,3.4,3.4,0,0,1-.39,1.631,2.8,2.8,0,0,1-1.1,1.136,3.209,3.209,0,0,1-1.615.406,3,3,0,0,1-2.358-1.016,3.942,3.942,0,0,1-.9-2.71v-.66a5.933,5.933,0,0,1,.568-2.656A4.166,4.166,0,0,1,18.138,5.3,4.78,4.78,0,0,1,20.6,4.663ZM19.119,9.3a1.466,1.466,0,0,0-.806.231,1.393,1.393,0,0,0-.533.611V10.7a2.47,2.47,0,0,0,.362,1.435,1.169,1.169,0,0,0,1.016.516,1.156,1.156,0,0,0,.955-.466,1.9,1.9,0,0,0,.365-1.207,1.9,1.9,0,0,0-.368-1.216A1.2,1.2,0,0,0,19.119,9.3Z" transform="translate(-1050 -6926)" fill="#12263f"/>
    <path id="Trazado_185496" data-name="Trazado 185496" d="M6.386,9.995H2.729V12.47H7.021V14H.825V4.758H7.008V6.3H2.729V8.5H6.386Zm6.544,1.581a.977.977,0,0,0-.381-.828,5,5,0,0,0-1.371-.609A9.72,9.72,0,0,1,9.61,9.506,2.562,2.562,0,0,1,8.036,7.214a2.232,2.232,0,0,1,.422-1.336,2.753,2.753,0,0,1,1.212-.917,4.563,4.563,0,0,1,1.774-.33,4.154,4.154,0,0,1,1.765.359A2.81,2.81,0,0,1,14.412,6a2.649,2.649,0,0,1,.428,1.485h-1.9a1.246,1.246,0,0,0-.4-.987,1.644,1.644,0,0,0-1.124-.352,1.756,1.756,0,0,0-1.085.3.931.931,0,0,0-.387.778.892.892,0,0,0,.454.755,5.128,5.128,0,0,0,1.336.571A5.773,5.773,0,0,1,14.1,9.76a2.415,2.415,0,0,1,.743,1.8,2.224,2.224,0,0,1-.908,1.882,3.974,3.974,0,0,1-2.444.682,4.719,4.719,0,0,1-1.942-.39,3.074,3.074,0,0,1-1.336-1.07,2.739,2.739,0,0,1-.46-1.574H9.661q0,1.53,1.828,1.53a1.778,1.778,0,0,0,1.06-.276A.9.9,0,0,0,12.93,11.575Zm9.287-5.793L18.643,14H16.707l3.58-7.763h-4.6V4.758h6.525Z" transform="translate(-869 -6781)" fill="#12263f"/>
    <path id="Trazado_185499" data-name="Trazado 185499" d="M6.386,9.995H2.729V12.47H7.021V14H.825V4.758H7.008V6.3H2.729V8.5H6.386Zm6.544,1.581a.977.977,0,0,0-.381-.828,5,5,0,0,0-1.371-.609A9.72,9.72,0,0,1,9.61,9.506,2.562,2.562,0,0,1,8.036,7.214a2.232,2.232,0,0,1,.422-1.336,2.753,2.753,0,0,1,1.212-.917,4.563,4.563,0,0,1,1.774-.33,4.154,4.154,0,0,1,1.765.359A2.81,2.81,0,0,1,14.412,6a2.649,2.649,0,0,1,.428,1.485h-1.9a1.246,1.246,0,0,0-.4-.987,1.644,1.644,0,0,0-1.124-.352,1.756,1.756,0,0,0-1.085.3.931.931,0,0,0-.387.778.892.892,0,0,0,.454.755,5.128,5.128,0,0,0,1.336.571A5.773,5.773,0,0,1,14.1,9.76a2.415,2.415,0,0,1,.743,1.8,2.224,2.224,0,0,1-.908,1.882,3.974,3.974,0,0,1-2.444.682,4.719,4.719,0,0,1-1.942-.39,3.074,3.074,0,0,1-1.336-1.07,2.739,2.739,0,0,1-.46-1.574H9.661q0,1.53,1.828,1.53a1.778,1.778,0,0,0,1.06-.276A.9.9,0,0,0,12.93,11.575Zm9.026-4.361a2.15,2.15,0,0,1-.336,1.193,2.421,2.421,0,0,1-.927.832,2.68,2.68,0,0,1,1.066.892,2.288,2.288,0,0,1,.394,1.336,2.422,2.422,0,0,1-.838,1.946,3.4,3.4,0,0,1-2.279.714,3.414,3.414,0,0,1-2.285-.717,2.416,2.416,0,0,1-.844-1.942,2.3,2.3,0,0,1,.394-1.339,2.632,2.632,0,0,1,1.06-.889,2.4,2.4,0,0,1-.924-.832A2.165,2.165,0,0,1,16.1,7.214a2.4,2.4,0,0,1,.787-1.882,3.1,3.1,0,0,1,2.139-.7,3.12,3.12,0,0,1,2.136.7A2.386,2.386,0,0,1,21.957,7.214Zm-1.644,4.12a1.331,1.331,0,0,0-.349-.965,1.4,1.4,0,0,0-1.873,0,1.328,1.328,0,0,0-.349.968,1.328,1.328,0,0,0,.343.952,1.432,1.432,0,0,0,1.888.013A1.325,1.325,0,0,0,20.313,11.334ZM20.122,7.3a1.27,1.27,0,0,0-.286-.866,1.162,1.162,0,0,0-1.606-.01,1.262,1.262,0,0,0-.286.876,1.326,1.326,0,0,0,.286.889,1.13,1.13,0,0,0,1.609,0A1.336,1.336,0,0,0,20.122,7.3Z" transform="translate(-698 -6926)" fill="#12263f"/>
    <path id="Trazado_185500" data-name="Trazado 185500" d="M6.386,9.995H2.729V12.47H7.021V14H.825V4.758H7.008V6.3H2.729V8.5H6.386Zm6.544,1.581a.977.977,0,0,0-.381-.828,5,5,0,0,0-1.371-.609A9.72,9.72,0,0,1,9.61,9.506,2.562,2.562,0,0,1,8.036,7.214a2.232,2.232,0,0,1,.422-1.336,2.753,2.753,0,0,1,1.212-.917,4.563,4.563,0,0,1,1.774-.33,4.154,4.154,0,0,1,1.765.359A2.81,2.81,0,0,1,14.412,6a2.649,2.649,0,0,1,.428,1.485h-1.9a1.246,1.246,0,0,0-.4-.987,1.644,1.644,0,0,0-1.124-.352,1.756,1.756,0,0,0-1.085.3.931.931,0,0,0-.387.778.892.892,0,0,0,.454.755,5.128,5.128,0,0,0,1.336.571A5.773,5.773,0,0,1,14.1,9.76a2.415,2.415,0,0,1,.743,1.8,2.224,2.224,0,0,1-.908,1.882,3.974,3.974,0,0,1-2.444.682,4.719,4.719,0,0,1-1.942-.39,3.074,3.074,0,0,1-1.336-1.07,2.739,2.739,0,0,1-.46-1.574H9.661q0,1.53,1.828,1.53a1.778,1.778,0,0,0,1.06-.276A.9.9,0,0,0,12.93,11.575Zm7.293-1.27a2.316,2.316,0,0,1-1.676.7,2.477,2.477,0,0,1-1.961-.841A3.324,3.324,0,0,1,15.85,7.9a3.54,3.54,0,0,1,.4-1.666,2.91,2.91,0,0,1,1.108-1.181,3.073,3.073,0,0,1,1.6-.422,2.939,2.939,0,0,1,1.625.457,3,3,0,0,1,1.1,1.314,4.718,4.718,0,0,1,.4,1.961v.679a5.346,5.346,0,0,1-1.149,3.631,4.344,4.344,0,0,1-3.256,1.409l-.451.006v-1.53l.406-.006Q20.027,12.445,20.224,10.306ZM19,9.607a1.283,1.283,0,0,0,.765-.229,1.527,1.527,0,0,0,.486-.552V8.071a2.522,2.522,0,0,0-.355-1.447,1.1,1.1,0,0,0-.952-.514,1.071,1.071,0,0,0-.908.5,2.146,2.146,0,0,0-.355,1.266,2.088,2.088,0,0,0,.346,1.241A1.127,1.127,0,0,0,19,9.607Z" transform="translate(-519 -6781)" fill="#12263f"/>
    <path id="Trazado_185503" data-name="Trazado 185503" d="M6.386,9.995H2.729V12.47H7.021V14H.825V4.758H7.008V6.3H2.729V8.5H6.386Zm6.544,1.581a.977.977,0,0,0-.381-.828,5,5,0,0,0-1.371-.609A9.72,9.72,0,0,1,9.61,9.506,2.562,2.562,0,0,1,8.036,7.214a2.232,2.232,0,0,1,.422-1.336,2.753,2.753,0,0,1,1.212-.917,4.563,4.563,0,0,1,1.774-.33,4.154,4.154,0,0,1,1.765.359A2.81,2.81,0,0,1,14.412,6a2.649,2.649,0,0,1,.428,1.485h-1.9a1.246,1.246,0,0,0-.4-.987,1.644,1.644,0,0,0-1.124-.352,1.756,1.756,0,0,0-1.085.3.931.931,0,0,0-.387.778.892.892,0,0,0,.454.755,5.128,5.128,0,0,0,1.336.571A5.773,5.773,0,0,1,14.1,9.76a2.415,2.415,0,0,1,.743,1.8,2.224,2.224,0,0,1-.908,1.882,3.974,3.974,0,0,1-2.444.682,4.719,4.719,0,0,1-1.942-.39,3.074,3.074,0,0,1-1.336-1.07,2.739,2.739,0,0,1-.46-1.574H9.661q0,1.53,1.828,1.53a1.778,1.778,0,0,0,1.06-.276A.9.9,0,0,0,12.93,11.575ZM20.389,14H18.554V6.929l-2.19.679V6.116l3.828-1.371h.2Zm9.223-3.821a4.682,4.682,0,0,1-.793,2.933A2.77,2.77,0,0,1,26.5,14.127a2.789,2.789,0,0,1-2.311-1,4.545,4.545,0,0,1-.819-2.856v-1.7a4.621,4.621,0,0,1,.8-2.939,2.79,2.79,0,0,1,2.314-1,2.793,2.793,0,0,1,2.311.993,4.531,4.531,0,0,1,.819,2.853Zm-1.834-1.87a3.384,3.384,0,0,0-.314-1.674,1.062,1.062,0,0,0-.981-.524,1.043,1.043,0,0,0-.955.5,3.167,3.167,0,0,0-.327,1.56v2.249a3.553,3.553,0,0,0,.308,1.681,1.048,1.048,0,0,0,.987.55,1.03,1.03,0,0,0,.971-.527,3.468,3.468,0,0,0,.311-1.614Z" transform="translate(-347 -6926)" fill="#12263f"/>
    <path id="Trazado_185504" data-name="Trazado 185504" d="M6.386,9.995H2.729V12.47H7.021V14H.825V4.758H7.008V6.3H2.729V8.5H6.386Zm6.544,1.581a.977.977,0,0,0-.381-.828,5,5,0,0,0-1.371-.609A9.72,9.72,0,0,1,9.61,9.506,2.562,2.562,0,0,1,8.036,7.214a2.232,2.232,0,0,1,.422-1.336,2.753,2.753,0,0,1,1.212-.917,4.563,4.563,0,0,1,1.774-.33,4.154,4.154,0,0,1,1.765.359A2.81,2.81,0,0,1,14.412,6a2.649,2.649,0,0,1,.428,1.485h-1.9a1.246,1.246,0,0,0-.4-.987,1.644,1.644,0,0,0-1.124-.352,1.756,1.756,0,0,0-1.085.3.931.931,0,0,0-.387.778.892.892,0,0,0,.454.755,5.128,5.128,0,0,0,1.336.571A5.773,5.773,0,0,1,14.1,9.76a2.415,2.415,0,0,1,.743,1.8,2.224,2.224,0,0,1-.908,1.882,3.974,3.974,0,0,1-2.444.682,4.719,4.719,0,0,1-1.942-.39,3.074,3.074,0,0,1-1.336-1.07,2.739,2.739,0,0,1-.46-1.574H9.661q0,1.53,1.828,1.53a1.778,1.778,0,0,0,1.06-.276A.9.9,0,0,0,12.93,11.575ZM20.389,14H18.554V6.929l-2.19.679V6.116l3.828-1.371h.2Zm7.458,0H26.013V6.929l-2.19.679V6.116L27.65,4.745h.2Z" transform="translate(-169 -6781)" fill="#12263f"/>
  </g>
</svg>
