<svg xmlns="http://www.w3.org/2000/svg" width="1199.891" height="244.328" viewBox="0 0 1199.891 244.328">
  <g id="img10" transform="translate(-217 -6277)">
    <g id="Grupo_142280" data-name="Grupo 142280">
      <path id="Trazado_185458" data-name="Trazado 185458" d="M5.492,12.4H2.82V17H1.313V5.625H5.078A4.457,4.457,0,0,1,8.035,6.5,3.148,3.148,0,0,1,9.07,9.047,3.062,3.062,0,0,1,8.5,10.9a3.428,3.428,0,0,1-1.6,1.18L9.57,16.906V17H7.961ZM2.82,11.172h2.3A2.6,2.6,0,0,0,6.9,10.593a1.959,1.959,0,0,0,.66-1.55,2.062,2.062,0,0,0-.629-1.62,2.663,2.663,0,0,0-1.816-.571H2.82Zm11.633,5.984a3.693,3.693,0,0,1-2.8-1.129,4.19,4.19,0,0,1-1.078-3.02v-.266a5.073,5.073,0,0,1,.48-2.246A3.748,3.748,0,0,1,12.4,8.949a3.378,3.378,0,0,1,1.871-.559,3.166,3.166,0,0,1,2.563,1.086,4.7,4.7,0,0,1,.914,3.109v.6H12.023a3,3,0,0,0,.73,2.02,2.3,2.3,0,0,0,1.777.77,2.517,2.517,0,0,0,1.3-.312,3.259,3.259,0,0,0,.93-.828l.883.688A3.55,3.55,0,0,1,14.453,17.156Zm-.18-7.578a1.928,1.928,0,0,0-1.469.637A3.1,3.1,0,0,0,12.07,12H16.3v-.109a2.753,2.753,0,0,0-.594-1.707A1.815,1.815,0,0,0,14.273,9.578Zm4.8,3.125a4.968,4.968,0,0,1,.914-3.145,3.151,3.151,0,0,1,4.836-.074l.07-.937h1.32V16.8a3.439,3.439,0,0,1-.973,2.586,3.589,3.589,0,0,1-2.613.945,4.348,4.348,0,0,1-1.789-.391,3.08,3.08,0,0,1-1.336-1.07l.75-.867a2.826,2.826,0,0,0,2.273,1.148,2.214,2.214,0,0,0,1.645-.594,2.269,2.269,0,0,0,.59-1.672v-.727a2.971,2.971,0,0,1-2.367,1,2.887,2.887,0,0,1-2.4-1.2A5.224,5.224,0,0,1,19.078,12.7Zm1.453.164a3.79,3.79,0,0,0,.586,2.246,1.9,1.9,0,0,0,1.641.816,2.117,2.117,0,0,0,2.008-1.242V10.828a2.142,2.142,0,0,0-1.992-1.211,1.921,1.921,0,0,0-1.648.82A4.128,4.128,0,0,0,20.531,12.867ZM29.969,17H28.523V5h1.445ZM37.5,17a3.036,3.036,0,0,1-.2-.891,3.225,3.225,0,0,1-2.406,1.047,2.984,2.984,0,0,1-2.051-.707,2.287,2.287,0,0,1-.8-1.793,2.39,2.39,0,0,1,1-2.051,4.733,4.733,0,0,1,2.824-.73h1.406v-.664A1.623,1.623,0,0,0,36.82,10a1.821,1.821,0,0,0-1.336-.449,2.107,2.107,0,0,0-1.3.391,1.151,1.151,0,0,0-.523.945H32.211a2,2,0,0,1,.449-1.223,3.066,3.066,0,0,1,1.219-.934,4.1,4.1,0,0,1,1.691-.344,3.342,3.342,0,0,1,2.289.73,2.635,2.635,0,0,1,.859,2.012v3.891a4.757,4.757,0,0,0,.3,1.852V17Zm-2.4-1.1a2.54,2.54,0,0,0,1.289-.352,2.127,2.127,0,0,0,.883-.914V12.9H36.141q-2.656,0-2.656,1.555a1.316,1.316,0,0,0,.453,1.063A1.742,1.742,0,0,0,35.1,15.9ZM53.18,5.625v7.734a3.628,3.628,0,0,1-1.012,2.633,4.077,4.077,0,0,1-2.723,1.148l-.4.016a4.258,4.258,0,0,1-2.977-1.008,3.6,3.6,0,0,1-1.125-2.773V5.625H46.43v7.7a2.6,2.6,0,0,0,.68,1.918,3.111,3.111,0,0,0,3.887,0,2.6,2.6,0,0,0,.676-1.914V5.625Zm3.508,2.922.047,1.063a3.08,3.08,0,0,1,2.531-1.219q2.68,0,2.7,3.023V17H60.523V11.406a1.946,1.946,0,0,0-.418-1.352,1.675,1.675,0,0,0-1.277-.437,2.086,2.086,0,0,0-1.234.375,2.546,2.546,0,0,0-.828.984V17H55.32V8.547ZM63.766,12.7a4.993,4.993,0,0,1,.488-2.234A3.643,3.643,0,0,1,65.613,8.93,3.7,3.7,0,0,1,67.6,8.391a3.565,3.565,0,0,1,2.793,1.2,4.6,4.6,0,0,1,1.066,3.18v.1a5.036,5.036,0,0,1-.473,2.215,3.589,3.589,0,0,1-1.352,1.527,3.743,3.743,0,0,1-2.02.547,3.556,3.556,0,0,1-2.785-1.2A4.575,4.575,0,0,1,63.766,12.8Zm1.453.172a3.616,3.616,0,0,0,.652,2.258,2.211,2.211,0,0,0,3.5-.012,3.955,3.955,0,0,0,.648-2.418,3.61,3.61,0,0,0-.66-2.254A2.1,2.1,0,0,0,67.6,9.578a2.075,2.075,0,0,0-1.727.852A3.925,3.925,0,0,0,65.219,12.867Z" transform="translate(685 6272)" fill="#12263f"/>
      <path id="Trazado_185473" data-name="Trazado 185473" d="M7.594,11.977H2.82V17H1.32V5.625H8.367V6.852H2.82v3.9H7.594ZM11.508,17H10.063V8.547h1.445ZM9.945,6.3a.863.863,0,0,1,.215-.594.807.807,0,0,1,.637-.242.819.819,0,0,1,.641.242.854.854,0,0,1,.219.594.826.826,0,0,1-.219.586.834.834,0,0,1-.641.234.821.821,0,0,1-.637-.234A.834.834,0,0,1,9.945,6.3Zm5.242,2.242.047,1.063a3.08,3.08,0,0,1,2.531-1.219q2.68,0,2.7,3.023V17H19.023V11.406a1.946,1.946,0,0,0-.418-1.352,1.675,1.675,0,0,0-1.277-.437,2.086,2.086,0,0,0-1.234.375,2.546,2.546,0,0,0-.828.984V17H13.82V8.547ZM26.258,12.7a4.952,4.952,0,0,1,.922-3.129,3.137,3.137,0,0,1,4.766-.168V5h1.445V17H32.063l-.07-.906a2.943,2.943,0,0,1-2.414,1.063,2.887,2.887,0,0,1-2.395-1.2,5.008,5.008,0,0,1-.926-3.141Zm1.445.164a3.749,3.749,0,0,0,.594,2.25,1.92,1.92,0,0,0,1.641.813A2.108,2.108,0,0,0,31.945,14.7V10.813a2.125,2.125,0,0,0-1.992-1.2,1.929,1.929,0,0,0-1.656.82A4.128,4.128,0,0,0,27.7,12.867Zm11.438,4.289a3.693,3.693,0,0,1-2.8-1.129,4.19,4.19,0,0,1-1.078-3.02v-.266a5.073,5.073,0,0,1,.48-2.246A3.748,3.748,0,0,1,37.09,8.949a3.378,3.378,0,0,1,1.871-.559,3.166,3.166,0,0,1,2.563,1.086,4.7,4.7,0,0,1,.914,3.109v.6H36.711a3,3,0,0,0,.73,2.02,2.3,2.3,0,0,0,1.777.77,2.517,2.517,0,0,0,1.3-.312,3.259,3.259,0,0,0,.93-.828l.883.688A3.55,3.55,0,0,1,39.141,17.156Zm-.18-7.578a1.928,1.928,0,0,0-1.469.637A3.1,3.1,0,0,0,36.758,12h4.234v-.109a2.753,2.753,0,0,0-.594-1.707A1.815,1.815,0,0,0,38.961,9.578ZM52.469,12.4H49.8V17H48.289V5.625h3.766a4.457,4.457,0,0,1,2.957.875,3.148,3.148,0,0,1,1.035,2.547,3.062,3.062,0,0,1-.574,1.852,3.428,3.428,0,0,1-1.6,1.18l2.672,4.828V17H54.938ZM49.8,11.172h2.3a2.6,2.6,0,0,0,1.777-.579,1.959,1.959,0,0,0,.66-1.55,2.062,2.062,0,0,0-.629-1.62,2.663,2.663,0,0,0-1.816-.571H49.8ZM61.43,17.156a3.693,3.693,0,0,1-2.8-1.129,4.19,4.19,0,0,1-1.078-3.02v-.266a5.073,5.073,0,0,1,.48-2.246,3.748,3.748,0,0,1,1.344-1.547,3.378,3.378,0,0,1,1.871-.559,3.166,3.166,0,0,1,2.563,1.086,4.7,4.7,0,0,1,.914,3.109v.6H59a3,3,0,0,0,.73,2.02,2.3,2.3,0,0,0,1.777.77,2.517,2.517,0,0,0,1.3-.312,3.259,3.259,0,0,0,.93-.828l.883.688A3.55,3.55,0,0,1,61.43,17.156Zm-.18-7.578a1.928,1.928,0,0,0-1.469.637A3.1,3.1,0,0,0,59.047,12h4.234v-.109a2.753,2.753,0,0,0-.594-1.707A1.815,1.815,0,0,0,61.25,9.578Zm4.8,3.125a4.968,4.968,0,0,1,.914-3.145A3.151,3.151,0,0,1,71.8,9.484l.07-.937H73.2V16.8a3.439,3.439,0,0,1-.973,2.586,3.589,3.589,0,0,1-2.613.945,4.348,4.348,0,0,1-1.789-.391,3.08,3.08,0,0,1-1.336-1.07l.75-.867a2.826,2.826,0,0,0,2.273,1.148,2.214,2.214,0,0,0,1.645-.594,2.269,2.269,0,0,0,.59-1.672v-.727a2.971,2.971,0,0,1-2.367,1,2.887,2.887,0,0,1-2.4-1.2A5.224,5.224,0,0,1,66.055,12.7Zm1.453.164a3.79,3.79,0,0,0,.586,2.246,1.9,1.9,0,0,0,1.641.816,2.117,2.117,0,0,0,2.008-1.242V10.828A2.142,2.142,0,0,0,69.75,9.617a1.921,1.921,0,0,0-1.648.82A4.128,4.128,0,0,0,67.508,12.867ZM76.945,17H75.5V5h1.445Zm7.531,0a3.036,3.036,0,0,1-.2-.891,3.225,3.225,0,0,1-2.406,1.047,2.984,2.984,0,0,1-2.051-.707,2.288,2.288,0,0,1-.8-1.793,2.39,2.39,0,0,1,1-2.051,4.733,4.733,0,0,1,2.824-.73H84.25v-.664A1.623,1.623,0,0,0,83.8,10a1.821,1.821,0,0,0-1.336-.449,2.108,2.108,0,0,0-1.3.391,1.151,1.151,0,0,0-.523.945H79.188a2,2,0,0,1,.449-1.223,3.066,3.066,0,0,1,1.219-.934,4.1,4.1,0,0,1,1.691-.344,3.342,3.342,0,0,1,2.289.73,2.635,2.635,0,0,1,.859,2.012v3.891a4.757,4.757,0,0,0,.3,1.852V17Zm-2.4-1.1a2.54,2.54,0,0,0,1.289-.352,2.127,2.127,0,0,0,.883-.914V12.9H83.117q-2.656,0-2.656,1.555a1.316,1.316,0,0,0,.453,1.063A1.742,1.742,0,0,0,82.078,15.9Z" transform="translate(705 6501)" fill="#12263f"/>
      <path id="Trazado_185471" data-name="Trazado 185471" d="M5.492,12.4H2.82V17H1.313V5.625H5.078A4.457,4.457,0,0,1,8.035,6.5,3.148,3.148,0,0,1,9.07,9.047,3.062,3.062,0,0,1,8.5,10.9a3.428,3.428,0,0,1-1.6,1.18L9.57,16.906V17H7.961ZM2.82,11.172h2.3A2.6,2.6,0,0,0,6.9,10.593a1.959,1.959,0,0,0,.66-1.55,2.062,2.062,0,0,0-.629-1.62,2.663,2.663,0,0,0-1.816-.571H2.82Zm11.633,5.984a3.693,3.693,0,0,1-2.8-1.129,4.19,4.19,0,0,1-1.078-3.02v-.266a5.073,5.073,0,0,1,.48-2.246A3.748,3.748,0,0,1,12.4,8.949a3.378,3.378,0,0,1,1.871-.559,3.166,3.166,0,0,1,2.563,1.086,4.7,4.7,0,0,1,.914,3.109v.6H12.023a3,3,0,0,0,.73,2.02,2.3,2.3,0,0,0,1.777.77,2.517,2.517,0,0,0,1.3-.312,3.259,3.259,0,0,0,.93-.828l.883.688A3.55,3.55,0,0,1,14.453,17.156Zm-.18-7.578a1.928,1.928,0,0,0-1.469.637A3.1,3.1,0,0,0,12.07,12H16.3v-.109a2.753,2.753,0,0,0-.594-1.707A1.815,1.815,0,0,0,14.273,9.578Zm4.8,3.125a4.968,4.968,0,0,1,.914-3.145,3.151,3.151,0,0,1,4.836-.074l.07-.937h1.32V16.8a3.439,3.439,0,0,1-.973,2.586,3.589,3.589,0,0,1-2.613.945,4.348,4.348,0,0,1-1.789-.391,3.08,3.08,0,0,1-1.336-1.07l.75-.867a2.826,2.826,0,0,0,2.273,1.148,2.214,2.214,0,0,0,1.645-.594,2.269,2.269,0,0,0,.59-1.672v-.727a2.971,2.971,0,0,1-2.367,1,2.887,2.887,0,0,1-2.4-1.2A5.224,5.224,0,0,1,19.078,12.7Zm1.453.164a3.79,3.79,0,0,0,.586,2.246,1.9,1.9,0,0,0,1.641.816,2.117,2.117,0,0,0,2.008-1.242V10.828a2.142,2.142,0,0,0-1.992-1.211,1.921,1.921,0,0,0-1.648.82A4.128,4.128,0,0,0,20.531,12.867ZM29.969,17H28.523V5h1.445ZM37.5,17a3.036,3.036,0,0,1-.2-.891,3.225,3.225,0,0,1-2.406,1.047,2.984,2.984,0,0,1-2.051-.707,2.287,2.287,0,0,1-.8-1.793,2.39,2.39,0,0,1,1-2.051,4.733,4.733,0,0,1,2.824-.73h1.406v-.664A1.623,1.623,0,0,0,36.82,10a1.821,1.821,0,0,0-1.336-.449,2.107,2.107,0,0,0-1.3.391,1.151,1.151,0,0,0-.523.945H32.211a2,2,0,0,1,.449-1.223,3.066,3.066,0,0,1,1.219-.934,4.1,4.1,0,0,1,1.691-.344,3.342,3.342,0,0,1,2.289.73,2.635,2.635,0,0,1,.859,2.012v3.891a4.757,4.757,0,0,0,.3,1.852V17Zm-2.4-1.1a2.54,2.54,0,0,0,1.289-.352,2.127,2.127,0,0,0,.883-.914V12.9H36.141q-2.656,0-2.656,1.555a1.316,1.316,0,0,0,.453,1.063A1.742,1.742,0,0,0,35.1,15.9ZM45.172,17V5.625h3.211a5.169,5.169,0,0,1,2.625.656A4.438,4.438,0,0,1,52.77,8.148,6.078,6.078,0,0,1,53.4,10.93v.727a6.1,6.1,0,0,1-.621,2.82A4.369,4.369,0,0,1,51,16.336,5.5,5.5,0,0,1,48.32,17Zm1.5-10.148v8.922H48.25a3.434,3.434,0,0,0,2.7-1.079,4.458,4.458,0,0,0,.965-3.073v-.665A4.529,4.529,0,0,0,51,7.942a3.239,3.239,0,0,0-2.582-1.091ZM55.055,12.7a4.993,4.993,0,0,1,.488-2.234A3.643,3.643,0,0,1,56.9,8.93a3.7,3.7,0,0,1,1.988-.539,3.565,3.565,0,0,1,2.793,1.2,4.6,4.6,0,0,1,1.066,3.18v.1a5.036,5.036,0,0,1-.473,2.215,3.589,3.589,0,0,1-1.352,1.527,3.743,3.743,0,0,1-2.02.547,3.556,3.556,0,0,1-2.785-1.2A4.575,4.575,0,0,1,55.055,12.8Zm1.453.172a3.616,3.616,0,0,0,.652,2.258,2.211,2.211,0,0,0,3.5-.012A3.955,3.955,0,0,0,61.3,12.7a3.61,3.61,0,0,0-.66-2.254,2.1,2.1,0,0,0-1.754-.863,2.075,2.075,0,0,0-1.727.852A3.925,3.925,0,0,0,56.508,12.867Zm12.977,1.891a1.064,1.064,0,0,0-.441-.91,4.249,4.249,0,0,0-1.539-.559,7.277,7.277,0,0,1-1.742-.562,2.479,2.479,0,0,1-.953-.781,1.869,1.869,0,0,1-.309-1.078,2.193,2.193,0,0,1,.879-1.758,3.432,3.432,0,0,1,2.246-.719,3.532,3.532,0,0,1,2.332.742,2.357,2.357,0,0,1,.895,1.9H69.4a1.3,1.3,0,0,0-.5-1.023,1.888,1.888,0,0,0-1.27-.43,1.976,1.976,0,0,0-1.234.344,1.082,1.082,0,0,0-.445.9.877.877,0,0,0,.414.789,5.1,5.1,0,0,0,1.5.508,7.8,7.8,0,0,1,1.754.578,2.558,2.558,0,0,1,1,.809,1.988,1.988,0,0,1,.324,1.152,2.163,2.163,0,0,1-.906,1.816,3.8,3.8,0,0,1-2.352.684,4.257,4.257,0,0,1-1.8-.359,2.922,2.922,0,0,1-1.223-1,2.42,2.42,0,0,1-.441-1.395h1.445a1.5,1.5,0,0,0,.582,1.152,2.258,2.258,0,0,0,1.434.426,2.331,2.331,0,0,0,1.316-.332A1.02,1.02,0,0,0,69.484,14.758Z" transform="translate(1126 6272)" fill="#12263f"/>
      <line id="Línea_109" data-name="Línea 109" x2="390" transform="translate(525 6321)" fill="none" stroke="#707070" stroke-width="1"/>
      <line id="Línea_136" data-name="Línea 136" x2="190" transform="translate(654 6484)" fill="none" stroke="#707070" stroke-width="1"/>
      <path id="Trazado_185472" data-name="Trazado 185472" d="M0,0H335" transform="translate(1000 6321)" fill="none" stroke="#707070" stroke-width="1"/>
      <rect id="Rectángulo_37146" data-name="Rectángulo 37146" width="190" height="40" rx="20" transform="translate(217 6395)" fill="#4dd0e1"/>
      <rect id="Rectángulo_37150" data-name="Rectángulo 37150" width="190" height="40" rx="20" transform="translate(525 6395)" fill="#fc6274"/>
      <rect id="Rectángulo_37151" data-name="Rectángulo 37151" width="190" height="40" rx="20" transform="translate(762 6395)" fill="#039be5"/>
      <rect id="Rectángulo_37152" data-name="Rectángulo 37152" width="190" height="40" rx="20" transform="translate(970 6395)" fill="#fc6274"/>
      <rect id="Rectángulo_37153" data-name="Rectángulo 37153" width="190" height="40" rx="20" transform="translate(1194 6395)" fill="#039be5"/>
      <path id="Trazado_185457" data-name="Trazado 185457" d="M4.672,11.93a7.053,7.053,0,0,1-2.809-1.363,2.6,2.6,0,0,1-.879-2A2.751,2.751,0,0,1,2.059,6.348a4.269,4.269,0,0,1,2.793-.879,4.66,4.66,0,0,1,2.09.453,3.436,3.436,0,0,1,1.422,1.25,3.2,3.2,0,0,1,.5,1.742H7.359A2.08,2.08,0,0,0,6.7,7.287,2.669,2.669,0,0,0,4.852,6.7a2.732,2.732,0,0,0-1.73.489A1.632,1.632,0,0,0,2.5,8.542,1.468,1.468,0,0,0,3.09,9.72,5.785,5.785,0,0,0,5.1,10.6a9.316,9.316,0,0,1,2.219.88A3.367,3.367,0,0,1,8.5,12.6a2.861,2.861,0,0,1,.387,1.508,2.658,2.658,0,0,1-1.078,2.215,4.6,4.6,0,0,1-2.883.832,5.347,5.347,0,0,1-2.187-.449,3.681,3.681,0,0,1-1.566-1.23A3,3,0,0,1,.625,13.7H2.133a1.959,1.959,0,0,0,.762,1.629,3.207,3.207,0,0,0,2.035.6,2.948,2.948,0,0,0,1.82-.484,1.573,1.573,0,0,0,.633-1.32A1.545,1.545,0,0,0,6.8,12.832,6.755,6.755,0,0,0,4.672,11.93Zm12.57-.187h-4.93v4.031h5.727V17H10.813V5.625h7.148V6.852H12.313v3.664h4.93Zm4.172,4.031H26.8V17h-6.9V5.625h1.508Zm13.531-4.031h-4.93v4.031h5.727V17H28.516V5.625h7.148V6.852H30.016v3.664h4.93Zm11.031,1.648a4.185,4.185,0,0,1-1.332,2.785,4.365,4.365,0,0,1-2.98.98,4.008,4.008,0,0,1-3.23-1.445,5.815,5.815,0,0,1-1.215-3.867V10.75a6.481,6.481,0,0,1,.566-2.789,4.231,4.231,0,0,1,1.605-1.848A4.47,4.47,0,0,1,41.8,5.469,4.11,4.11,0,0,1,44.7,6.48a4.235,4.235,0,0,1,1.273,2.8H44.469a3.268,3.268,0,0,0-.848-1.975A2.565,2.565,0,0,0,41.8,6.7a2.684,2.684,0,0,0-2.254,1.063,4.882,4.882,0,0,0-.816,3.026v1.1a5.018,5.018,0,0,0,.773,2.948,2.5,2.5,0,0,0,2.164,1.095,2.887,2.887,0,0,0,1.918-.566,3.143,3.143,0,0,0,.887-1.973Zm9.68-6.539H52V17H50.508V6.852H46.859V5.625h8.8ZM65.875,11.68a7.037,7.037,0,0,1-.562,2.918,4.261,4.261,0,0,1-1.594,1.9,4.4,4.4,0,0,1-6.4-1.887,6.752,6.752,0,0,1-.59-2.832v-.82a6.953,6.953,0,0,1,.57-2.9,4.218,4.218,0,0,1,4-2.594,4.41,4.41,0,0,1,2.41.66,4.253,4.253,0,0,1,1.605,1.914,7.071,7.071,0,0,1,.563,2.918Zm-1.492-.734A5.1,5.1,0,0,0,63.57,7.84,2.68,2.68,0,0,0,61.3,6.758,2.651,2.651,0,0,0,59.059,7.84a5,5,0,0,0-.84,3v.836a5.107,5.107,0,0,0,.824,3.082,2.888,2.888,0,0,0,4.52.063,5.079,5.079,0,0,0,.82-3.035ZM72.3,12.4H69.625V17H68.117V5.625h3.766A4.457,4.457,0,0,1,74.84,6.5a3.148,3.148,0,0,1,1.035,2.547A3.062,3.062,0,0,1,75.3,10.9a3.428,3.428,0,0,1-1.6,1.18l2.672,4.828V17H74.766Zm-2.672-1.227h2.3a2.6,2.6,0,0,0,1.777-.579,1.959,1.959,0,0,0,.66-1.55,2.062,2.062,0,0,0-.629-1.62,2.663,2.663,0,0,0-1.816-.571h-2.3Z" transform="translate(272 6402)" fill="#12263f"/>
      <path id="Trazado_185460" data-name="Trazado 185460" d="M4.938,19.859a3.883,3.883,0,0,1-2.082-1.285,3.731,3.731,0,0,1-.7-2.363V14.656q0-1.9-1.656-1.9V11.625q1.656,0,1.656-1.891V8.109a3.725,3.725,0,0,1,.7-2.309A3.887,3.887,0,0,1,4.938,4.523l.3.9Q3.6,5.945,3.6,8.148V9.727A2.552,2.552,0,0,1,2.3,12.2a2.584,2.584,0,0,1,1.3,2.492V16.3a2.475,2.475,0,0,0,1.633,2.664Z" transform="translate(462 6402)" fill="#12263f"/>
      <path id="Trazado_185459" data-name="Trazado 185459" d="M2.82,12.547V17H1.32V5.625h4.2a4.215,4.215,0,0,1,2.926.953A3.231,3.231,0,0,1,9.5,9.1a3.189,3.189,0,0,1-1.035,2.551,4.4,4.4,0,0,1-2.965.895Zm0-1.227h2.7a2.7,2.7,0,0,0,1.844-.567A2.075,2.075,0,0,0,8,9.113a2.143,2.143,0,0,0-.641-1.628A2.525,2.525,0,0,0,5.6,6.852H2.82ZM15.586,12.4H12.914V17H11.406V5.625h3.766a4.457,4.457,0,0,1,2.957.875,3.148,3.148,0,0,1,1.035,2.547A3.062,3.062,0,0,1,18.59,10.9a3.428,3.428,0,0,1-1.6,1.18l2.672,4.828V17H18.055Zm-2.672-1.227h2.3A2.6,2.6,0,0,0,17,10.593a1.959,1.959,0,0,0,.66-1.55,2.062,2.062,0,0,0-.629-1.62,2.663,2.663,0,0,0-1.816-.571h-2.3Zm17.1.508a7.037,7.037,0,0,1-.562,2.918,4.261,4.261,0,0,1-1.594,1.9,4.4,4.4,0,0,1-6.4-1.887,6.752,6.752,0,0,1-.59-2.832v-.82a6.953,6.953,0,0,1,.57-2.9,4.218,4.218,0,0,1,4-2.594,4.41,4.41,0,0,1,2.41.66,4.253,4.253,0,0,1,1.605,1.914,7.071,7.071,0,0,1,.563,2.918Zm-1.492-.734a5.1,5.1,0,0,0-.812-3.105,2.68,2.68,0,0,0-2.273-1.082A2.651,2.651,0,0,0,23.2,7.84a5,5,0,0,0-.84,3v.836a5.107,5.107,0,0,0,.824,3.082,2.888,2.888,0,0,0,4.52.063,5.079,5.079,0,0,0,.82-3.035Zm5.242,1.6V17h-1.5V5.625h4.2a4.215,4.215,0,0,1,2.926.953A3.231,3.231,0,0,1,40.445,9.1a3.189,3.189,0,0,1-1.035,2.551,4.4,4.4,0,0,1-2.965.895Zm0-1.227h2.7a2.7,2.7,0,0,0,1.844-.567,2.075,2.075,0,0,0,.641-1.64A2.143,2.143,0,0,0,38.3,7.485a2.525,2.525,0,0,0-1.758-.634H33.766ZM43.969,17h-1.5V5.625h1.5Zm9.172-5.258h-4.93v4.031h5.727V17H46.711V5.625h7.148V6.852H48.211v3.664h4.93ZM55.8,17V5.625h3.211a5.169,5.169,0,0,1,2.625.656A4.438,4.438,0,0,1,63.4,8.148a6.078,6.078,0,0,1,.629,2.781v.727a6.1,6.1,0,0,1-.621,2.82,4.369,4.369,0,0,1-1.773,1.859A5.5,5.5,0,0,1,58.953,17ZM57.3,6.852v8.922h1.578a3.434,3.434,0,0,0,2.7-1.079,4.458,4.458,0,0,0,.965-3.073v-.665a4.529,4.529,0,0,0-.91-3.014,3.239,3.239,0,0,0-2.582-1.091Zm15.273,7.172H67.813L66.742,17H65.2L69.539,5.625h1.313L75.2,17H73.664ZM68.266,12.8h3.867L70.2,7.477ZM76.734,17V5.625h3.211a5.169,5.169,0,0,1,2.625.656,4.438,4.438,0,0,1,1.762,1.867,6.078,6.078,0,0,1,.629,2.781v.727a6.1,6.1,0,0,1-.621,2.82,4.369,4.369,0,0,1-1.773,1.859A5.5,5.5,0,0,1,79.883,17Zm1.5-10.148v8.922h1.578a3.434,3.434,0,0,0,2.7-1.079,4.458,4.458,0,0,0,.965-3.073v-.665a4.529,4.529,0,0,0-.91-3.014,3.239,3.239,0,0,0-2.582-1.091Z" transform="translate(572 6402)" fill="#fff"/>
      <path id="Trazado_185463" data-name="Trazado 185463" d="M5.086,15.008l3.25-9.383H9.977L5.758,17H4.43L.219,5.625H1.852ZM17.2,14.023H12.43L11.359,17H9.813L14.156,5.625h1.313L19.82,17H18.281ZM12.883,12.8H16.75l-1.937-5.32Zm9.977,2.977H28.25V17h-6.9V5.625h1.508ZM38.2,11.68a7.037,7.037,0,0,1-.562,2.918,4.261,4.261,0,0,1-1.594,1.9,4.4,4.4,0,0,1-6.4-1.887,6.752,6.752,0,0,1-.59-2.832v-.82a6.953,6.953,0,0,1,.57-2.9,4.218,4.218,0,0,1,4-2.594,4.41,4.41,0,0,1,2.41.66,4.253,4.253,0,0,1,1.605,1.914,7.071,7.071,0,0,1,.563,2.918Zm-1.492-.734A5.1,5.1,0,0,0,35.9,7.84a2.68,2.68,0,0,0-2.273-1.082A2.651,2.651,0,0,0,31.387,7.84a5,5,0,0,0-.84,3v.836a5.107,5.107,0,0,0,.824,3.082,2.888,2.888,0,0,0,4.52.063,5.079,5.079,0,0,0,.82-3.035ZM44.625,12.4H41.953V17H40.445V5.625h3.766a4.457,4.457,0,0,1,2.957.875A3.148,3.148,0,0,1,48.2,9.047a3.062,3.062,0,0,1-.574,1.852,3.428,3.428,0,0,1-1.6,1.18L48.7,16.906V17H47.094Zm-2.672-1.227h2.3a2.6,2.6,0,0,0,1.777-.579,1.959,1.959,0,0,0,.66-1.55,2.062,2.062,0,0,0-.629-1.62,2.663,2.663,0,0,0-1.816-.571h-2.3Z" transform="translate(831 6402)" fill="#fff"/>
      <path id="Trazado_185465" data-name="Trazado 185465" d="M2.82,12.547V17H1.32V5.625h4.2a4.215,4.215,0,0,1,2.926.953A3.231,3.231,0,0,1,9.5,9.1a3.189,3.189,0,0,1-1.035,2.551,4.4,4.4,0,0,1-2.965.895Zm0-1.227h2.7a2.7,2.7,0,0,0,1.844-.567A2.075,2.075,0,0,0,8,9.113a2.143,2.143,0,0,0-.641-1.628A2.525,2.525,0,0,0,5.6,6.852H2.82ZM15.586,12.4H12.914V17H11.406V5.625h3.766a4.457,4.457,0,0,1,2.957.875,3.148,3.148,0,0,1,1.035,2.547A3.062,3.062,0,0,1,18.59,10.9a3.428,3.428,0,0,1-1.6,1.18l2.672,4.828V17H18.055Zm-2.672-1.227h2.3A2.6,2.6,0,0,0,17,10.593a1.959,1.959,0,0,0,.66-1.55,2.062,2.062,0,0,0-.629-1.62,2.663,2.663,0,0,0-1.816-.571h-2.3Zm17.1.508a7.037,7.037,0,0,1-.562,2.918,4.261,4.261,0,0,1-1.594,1.9,4.4,4.4,0,0,1-6.4-1.887,6.752,6.752,0,0,1-.59-2.832v-.82a6.953,6.953,0,0,1,.57-2.9,4.218,4.218,0,0,1,4-2.594,4.41,4.41,0,0,1,2.41.66,4.253,4.253,0,0,1,1.605,1.914,7.071,7.071,0,0,1,.563,2.918Zm-1.492-.734a5.1,5.1,0,0,0-.812-3.105,2.68,2.68,0,0,0-2.273-1.082A2.651,2.651,0,0,0,23.2,7.84a5,5,0,0,0-.84,3v.836a5.107,5.107,0,0,0,.824,3.082,2.888,2.888,0,0,0,4.52.063,5.079,5.079,0,0,0,.82-3.035Zm5.242,1.6V17h-1.5V5.625h4.2a4.215,4.215,0,0,1,2.926.953A3.231,3.231,0,0,1,40.445,9.1a3.189,3.189,0,0,1-1.035,2.551,4.4,4.4,0,0,1-2.965.895Zm0-1.227h2.7a2.7,2.7,0,0,0,1.844-.567,2.075,2.075,0,0,0,.641-1.64A2.143,2.143,0,0,0,38.3,7.485a2.525,2.525,0,0,0-1.758-.634H33.766ZM43.969,17h-1.5V5.625h1.5Zm9.172-5.258h-4.93v4.031h5.727V17H46.711V5.625h7.148V6.852H48.211v3.664h4.93ZM55.8,17V5.625h3.211a5.169,5.169,0,0,1,2.625.656A4.438,4.438,0,0,1,63.4,8.148a6.078,6.078,0,0,1,.629,2.781v.727a6.1,6.1,0,0,1-.621,2.82,4.369,4.369,0,0,1-1.773,1.859A5.5,5.5,0,0,1,58.953,17ZM57.3,6.852v8.922h1.578a3.434,3.434,0,0,0,2.7-1.079,4.458,4.458,0,0,0,.965-3.073v-.665a4.529,4.529,0,0,0-.91-3.014,3.239,3.239,0,0,0-2.582-1.091Zm15.273,7.172H67.813L66.742,17H65.2L69.539,5.625h1.313L75.2,17H73.664ZM68.266,12.8h3.867L70.2,7.477ZM76.734,17V5.625h3.211a5.169,5.169,0,0,1,2.625.656,4.438,4.438,0,0,1,1.762,1.867,6.078,6.078,0,0,1,.629,2.781v.727a6.1,6.1,0,0,1-.621,2.82,4.369,4.369,0,0,1-1.773,1.859A5.5,5.5,0,0,1,79.883,17Zm1.5-10.148v8.922h1.578a3.434,3.434,0,0,0,2.7-1.079,4.458,4.458,0,0,0,.965-3.073v-.665a4.529,4.529,0,0,0-.91-3.014,3.239,3.239,0,0,0-2.582-1.091ZM91.188,17V5.625H94.4a5.169,5.169,0,0,1,2.625.656,4.438,4.438,0,0,1,1.762,1.867,6.078,6.078,0,0,1,.629,2.781v.727a6.1,6.1,0,0,1-.621,2.82,4.369,4.369,0,0,1-1.773,1.859A5.5,5.5,0,0,1,94.336,17Zm1.5-10.148v8.922h1.578a3.434,3.434,0,0,0,2.7-1.079,4.458,4.458,0,0,0,.965-3.073v-.665a4.529,4.529,0,0,0-.91-3.014,3.239,3.239,0,0,0-2.582-1.091ZM110.43,11.68a7.037,7.037,0,0,1-.562,2.918,4.261,4.261,0,0,1-1.594,1.9,4.4,4.4,0,0,1-6.4-1.887,6.752,6.752,0,0,1-.59-2.832v-.82a6.953,6.953,0,0,1,.57-2.9,4.218,4.218,0,0,1,4-2.594,4.41,4.41,0,0,1,2.41.66,4.253,4.253,0,0,1,1.605,1.914,7.071,7.071,0,0,1,.563,2.918Zm-1.492-.734a5.1,5.1,0,0,0-.812-3.105,2.68,2.68,0,0,0-2.273-1.082,2.651,2.651,0,0,0-2.238,1.082,5,5,0,0,0-.84,3v.836a5.107,5.107,0,0,0,.824,3.082,2.888,2.888,0,0,0,4.52.063,5.079,5.079,0,0,0,.82-3.035Zm7.094.984a7.053,7.053,0,0,1-2.809-1.363,2.6,2.6,0,0,1-.879-2,2.751,2.751,0,0,1,1.074-2.223,4.269,4.269,0,0,1,2.793-.879,4.66,4.66,0,0,1,2.09.453,3.436,3.436,0,0,1,1.422,1.25,3.2,3.2,0,0,1,.5,1.742h-1.508a2.08,2.08,0,0,0-.656-1.627,2.669,2.669,0,0,0-1.852-.592,2.732,2.732,0,0,0-1.73.489,1.632,1.632,0,0,0-.621,1.358,1.468,1.468,0,0,0,.59,1.178,5.785,5.785,0,0,0,2.008.88,9.316,9.316,0,0,1,2.219.88,3.367,3.367,0,0,1,1.188,1.121,2.861,2.861,0,0,1,.387,1.508,2.658,2.658,0,0,1-1.078,2.215,4.6,4.6,0,0,1-2.883.832,5.347,5.347,0,0,1-2.187-.449,3.681,3.681,0,0,1-1.566-1.23,3,3,0,0,1-.551-1.773h1.508a1.959,1.959,0,0,0,.762,1.629,3.207,3.207,0,0,0,2.035.6,2.948,2.948,0,0,0,1.82-.484,1.573,1.573,0,0,0,.633-1.32,1.545,1.545,0,0,0-.586-1.293A6.755,6.755,0,0,0,116.031,11.93Z" transform="translate(988 6402)" fill="#fff"/>
      <path id="Trazado_185467" data-name="Trazado 185467" d="M5.086,15.008l3.25-9.383H9.977L5.758,17H4.43L.219,5.625H1.852ZM17.2,14.023H12.43L11.359,17H9.813L14.156,5.625h1.313L19.82,17H18.281ZM12.883,12.8H16.75l-1.937-5.32Zm9.977,2.977H28.25V17h-6.9V5.625h1.508ZM38.2,11.68a7.037,7.037,0,0,1-.562,2.918,4.261,4.261,0,0,1-1.594,1.9,4.4,4.4,0,0,1-6.4-1.887,6.752,6.752,0,0,1-.59-2.832v-.82a6.953,6.953,0,0,1,.57-2.9,4.218,4.218,0,0,1,4-2.594,4.41,4.41,0,0,1,2.41.66,4.253,4.253,0,0,1,1.605,1.914,7.071,7.071,0,0,1,.563,2.918Zm-1.492-.734A5.1,5.1,0,0,0,35.9,7.84a2.68,2.68,0,0,0-2.273-1.082A2.651,2.651,0,0,0,31.387,7.84a5,5,0,0,0-.84,3v.836a5.107,5.107,0,0,0,.824,3.082,2.888,2.888,0,0,0,4.52.063,5.079,5.079,0,0,0,.82-3.035ZM44.625,12.4H41.953V17H40.445V5.625h3.766a4.457,4.457,0,0,1,2.957.875A3.148,3.148,0,0,1,48.2,9.047a3.062,3.062,0,0,1-.574,1.852,3.428,3.428,0,0,1-1.6,1.18L48.7,16.906V17H47.094Zm-2.672-1.227h2.3a2.6,2.6,0,0,0,1.777-.579,1.959,1.959,0,0,0,.66-1.55,2.062,2.062,0,0,0-.629-1.62,2.663,2.663,0,0,0-1.816-.571h-2.3Z" transform="translate(1252 6402)" fill="#fff"/>
    </g>
    <path id="Trazado_185470" data-name="Trazado 185470" d="M.148,18.961a2.452,2.452,0,0,0,1.641-2.586V14.656A2.46,2.46,0,0,1,3.2,12.2,2.442,2.442,0,0,1,1.789,9.734V8.148q0-2.2-1.633-2.727l.3-.9a3.906,3.906,0,0,1,2.078,1.27,3.672,3.672,0,0,1,.7,2.324V9.758q0,1.867,1.656,1.867v1.133q-1.656,0-1.656,1.9v1.578a3.652,3.652,0,0,1-.707,2.352A3.954,3.954,0,0,1,.453,19.859Z" transform="translate(1412 6403)" fill="#12263f"/>
    <path id="Trazado_185469" data-name="Trazado 185469" d="M2.705,7.328l-.293,3.5H1.328L1.338,6H2.705Zm2.637,0-.293,3.5H3.965L3.975,6H5.342Z" transform="translate(1392 6386)" fill="#12263f"/>
    <path id="Trazado_185461" data-name="Trazado 185461" d="M2.705,7.328l-.293,3.5H1.328L1.338,6H2.705Zm2.637,0-.293,3.5H3.965L3.975,6H5.342Z" transform="translate(516 6383)" fill="#12263f"/>
    <path id="Trazado_185464" data-name="Trazado 185464" d="M1.084,11.43a1.131,1.131,0,0,1,.278-.781,1.061,1.061,0,0,1,.835-.312,1.092,1.092,0,0,1,.845.313,1.109,1.109,0,0,1,.288.781,1.048,1.048,0,0,1-.288.752,1.112,1.112,0,0,1-.845.3,1.079,1.079,0,0,1-.835-.3A1.069,1.069,0,0,1,1.084,11.43Zm.342,12.4L.4,23.129a4.712,4.712,0,0,0,.957-2.637V18.861H3.125v1.416a4.448,4.448,0,0,1-.483,1.973A4.618,4.618,0,0,1,1.426,23.832Z" transform="translate(956 6399)" fill="#12263f"/>
    <path id="Trazado_185468" data-name="Trazado 185468" d="M1.084,11.43a1.131,1.131,0,0,1,.278-.781,1.061,1.061,0,0,1,.835-.312,1.092,1.092,0,0,1,.845.313,1.109,1.109,0,0,1,.288.781,1.048,1.048,0,0,1-.288.752,1.112,1.112,0,0,1-.845.3,1.079,1.079,0,0,1-.835-.3A1.069,1.069,0,0,1,1.084,11.43Zm.342,12.4L.4,23.129a4.712,4.712,0,0,0,.957-2.637V18.861H3.125v1.416a4.448,4.448,0,0,1-.483,1.973A4.618,4.618,0,0,1,1.426,23.832Z" transform="translate(1385 6400)" fill="#12263f"/>
    <path id="Trazado_185462" data-name="Trazado 185462" d="M1.309,20.053a1.131,1.131,0,0,1,.278-.781,1.061,1.061,0,0,1,.835-.312,1.092,1.092,0,0,1,.845.313,1.109,1.109,0,0,1,.288.781,1.048,1.048,0,0,1-.288.752,1.112,1.112,0,0,1-.845.3,1.079,1.079,0,0,1-.835-.3A1.069,1.069,0,0,1,1.309,20.053Zm.01-8.623a1.131,1.131,0,0,1,.278-.781,1.061,1.061,0,0,1,.835-.312,1.092,1.092,0,0,1,.845.313,1.109,1.109,0,0,1,.288.781,1.048,1.048,0,0,1-.288.752,1.112,1.112,0,0,1-.845.3,1.079,1.079,0,0,1-.835-.3A1.069,1.069,0,0,1,1.318,11.43Z" transform="translate(732 6403)" fill="#12263f"/>
    <path id="Trazado_185466" data-name="Trazado 185466" d="M1.309,20.053a1.131,1.131,0,0,1,.278-.781,1.061,1.061,0,0,1,.835-.312,1.092,1.092,0,0,1,.845.313,1.109,1.109,0,0,1,.288.781,1.048,1.048,0,0,1-.288.752,1.112,1.112,0,0,1-.845.3,1.079,1.079,0,0,1-.835-.3A1.069,1.069,0,0,1,1.309,20.053Zm.01-8.623a1.131,1.131,0,0,1,.278-.781,1.061,1.061,0,0,1,.835-.312,1.092,1.092,0,0,1,.845.313,1.109,1.109,0,0,1,.288.781,1.048,1.048,0,0,1-.288.752,1.112,1.112,0,0,1-.845.3,1.079,1.079,0,0,1-.835-.3A1.069,1.069,0,0,1,1.318,11.43Z" transform="translate(1172 6403)" fill="#12263f"/>
  </g>
</svg>
