<svg xmlns="http://www.w3.org/2000/svg" xmlns:xlink="http://www.w3.org/1999/xlink" width="423.196" height="360.045" viewBox="0 0 423.196 360.045">
  <defs>
    <clipPath id="clip-path">
      <rect id="Rect치ngulo_37363" data-name="Rect치ngulo 37363" width="423.196" height="360.045" transform="translate(0 0)" fill="none"/>
    </clipPath>
  </defs>
  <g id="img23" transform="translate(0 -0.002)">
    <g id="Grupo_142482" data-name="Grupo 142482" transform="translate(0 0.002)" clip-path="url(#clip-path)">
      <path id="Trazado_184361" data-name="Trazado 184361" d="M37.736,1048.474H62.693a3,3,0,0,0,2.989-2.989h0a3,3,0,0,0-2.989-2.989H37.736a3,3,0,0,0-2.989,2.989h0a3,3,0,0,0,2.989,2.989" transform="translate(-24.766 -743.032)" fill="#fff" fill-rule="evenodd"/>
      <path id="Trazado_184363" data-name="Trazado 184363" d="M317.789,1003.175h19.6a3,3,0,0,0,2.99-2.989h0a3,3,0,0,0-2.99-2.989h-19.6a3,3,0,0,0-2.989,2.989h0a3,3,0,0,0,2.989,2.989" transform="translate(-224.371 -710.745)" fill="#6cd6ff" fill-rule="evenodd"/>
      <path id="Trazado_184364" data-name="Trazado 184364" d="M429.626,1003.175h19.6a3,3,0,0,0,2.99-2.989h0a3,3,0,0,0-2.99-2.989h-19.6a3,3,0,0,0-2.989,2.989h0a3,3,0,0,0,2.989,2.989" transform="translate(-304.083 -710.745)" fill="#fccf00" fill-rule="evenodd"/>
      <path id="Trazado_184365" data-name="Trazado 184365" d="M429.626,468.81h19.6a3,3,0,0,0,2.99-2.989h0a3,3,0,0,0-2.99-2.989h-19.6a3,3,0,0,0-2.989,2.989h0a3,3,0,0,0,2.989,2.989" transform="translate(-304.083 -329.88)" fill="#fff" fill-rule="evenodd"/>
      <path id="Trazado_184366" data-name="Trazado 184366" d="M429.626,761.14h19.6a2.989,2.989,0,1,0,0-5.979h-19.6a2.989,2.989,0,0,0,0,5.979" transform="translate(-304.083 -538.236)" fill="#fff" fill-rule="evenodd"/>
      <path id="Trazado_184367" data-name="Trazado 184367" d="M1035.191,76.22h125.743a.051.051,0,0,1,.051.051V180.815a.051.051,0,0,1-.051.051H1035.191a.051.051,0,0,1-.051-.051V76.271a.051.051,0,0,1,.051-.051" transform="translate(-737.789 -54.326)" fill="#1f3e7a" fill-rule="evenodd"/>
      <path id="Trazado_184368" data-name="Trazado 184368" d="M1213.468,402.4h36.168a1,1,0,0,0,0-2h-36.168a1,1,0,1,0,0,2" transform="translate(-864.179 -285.384)" fill="#eb6502" fill-rule="evenodd"/>
      <path id="Trazado_184369" data-name="Trazado 184369" d="M1199.646,387.279h8.505a1,1,0,1,0,0-2h-8.505a1,1,0,0,0,0,2" transform="translate(-854.328 -274.609)" fill="#fff" fill-rule="evenodd"/>
      <path id="Trazado_184370" data-name="Trazado 184370" d="M1213.468,372.162h13.005a1,1,0,1,0,0-2h-13.005a1,1,0,1,0,0,2" transform="translate(-864.179 -263.834)" fill="#fff" fill-rule="evenodd"/>
      <path id="Trazado_184371" data-name="Trazado 184371" d="M1213.622,357.044H1224.2a1,1,0,0,0,0-2h-10.579a1,1,0,1,0,0,2" transform="translate(-864.289 -253.059)" fill="#fff" fill-rule="evenodd"/>
      <path id="Trazado_184372" data-name="Trazado 184372" d="M1213.622,341.927h33.123a1,1,0,1,0,0-2h-33.123a1,1,0,1,0,0,2" transform="translate(-864.289 -242.285)" fill="#fff" fill-rule="evenodd"/>
      <path id="Trazado_184373" data-name="Trazado 184373" d="M1199.646,326.708h8.505a1,1,0,1,0,0-2h-8.505a1,1,0,0,0,0,2" transform="translate(-854.328 -231.438)" fill="#fff" fill-rule="evenodd"/>
      <path id="Trazado_184374" data-name="Trazado 184374" d="M1213.468,193.836h13.005a1,1,0,1,0,0-2h-13.005a1,1,0,1,0,0,2" transform="translate(-864.179 -136.734)" fill="#fff" fill-rule="evenodd"/>
      <path id="Trazado_184375" data-name="Trazado 184375" d="M1213.622,178.719H1224.2a1,1,0,0,0,0-2h-10.579a1,1,0,1,0,0,2" transform="translate(-864.289 -125.959)" fill="#fff" fill-rule="evenodd"/>
      <path id="Trazado_184376" data-name="Trazado 184376" d="M1213.622,163.6h33.123a1,1,0,1,0,0-2h-33.123a1,1,0,1,0,0,2" transform="translate(-864.289 -115.184)" fill="#6cd6ff" fill-rule="evenodd"/>
      <path id="Trazado_184377" data-name="Trazado 184377" d="M1214.235,306.508h8.505a1,1,0,0,0,0-2h-8.505a1,1,0,1,0,0,2" transform="translate(-864.726 -217.04)" fill="#fff" fill-rule="evenodd"/>
      <path id="Trazado_184378" data-name="Trazado 184378" d="M1213.468,291.391h13.005a1,1,0,1,0,0-2h-13.005a1,1,0,1,0,0,2" transform="translate(-864.179 -206.266)" fill="#fff" fill-rule="evenodd"/>
      <path id="Trazado_184379" data-name="Trazado 184379" d="M1213.622,276.273H1224.2a1,1,0,0,0,0-2h-10.579a1,1,0,1,0,0,2" transform="translate(-864.289 -195.49)" fill="#fff" fill-rule="evenodd"/>
      <path id="Trazado_184380" data-name="Trazado 184380" d="M1213.622,261.156h14.033a1,1,0,1,0,0-2h-14.033a1,1,0,1,0,0,2" transform="translate(-864.289 -184.716)" fill="#fccf00" fill-rule="evenodd"/>
      <path id="Trazado_184381" data-name="Trazado 184381" d="M1250.867,246.073H1276.6a1,1,0,1,0,0-2h-25.733a1,1,0,1,0,0,2" transform="translate(-890.835 -173.965)" fill="#fff" fill-rule="evenodd"/>
      <path id="Trazado_184382" data-name="Trazado 184382" d="M1250.867,230.037h10.975a1,1,0,1,0,0-2h-10.975a1,1,0,1,0,0,2" transform="translate(-890.835 -162.536)" fill="#fff" fill-rule="evenodd"/>
      <rect id="Rect치ngulo_37362" data-name="Rect치ngulo 37362" width="22.293" height="91.845" transform="translate(302.861 28.996)" fill="#031542"/>
      <path id="Trazado_184383" data-name="Trazado 184383" d="M1199.646,212.817h11.093a1,1,0,1,0,0-1.995h-11.093a1,1,0,1,0,0,1.995" transform="translate(-854.328 -150.262)" fill="#fff" fill-rule="evenodd"/>
      <path id="Trazado_184384" data-name="Trazado 184384" d="M1250.881,212.817h7.325a1,1,0,0,0,0-1.995h-7.325a1,1,0,1,0,0,1.995" transform="translate(-890.845 -150.262)" fill="#fff" fill-rule="evenodd"/>
      <path id="Trazado_184385" data-name="Trazado 184385" d="M1075.566,321.551h4.489a.966.966,0,0,0,.963-.963h0a.966.966,0,0,0-.963-.963h-4.489a.966.966,0,0,0-.963.963h0a.966.966,0,0,0,.963.963" transform="translate(-765.916 -227.811)" fill="#f0f8fd" fill-rule="evenodd"/>
      <path id="Trazado_184386" data-name="Trazado 184386" d="M1065.124,304.947h12.654a.966.966,0,0,0,.963-.963h0a.966.966,0,0,0-.963-.963h-12.654a.966.966,0,0,0-.963.963h0a.966.966,0,0,0,.963.963" transform="translate(-758.473 -215.977)" fill="#f0f8fd" fill-rule="evenodd"/>
      <path id="Trazado_184387" data-name="Trazado 184387" d="M1065.124,287.371h9.529a.963.963,0,0,0,0-1.926h-9.529a.963.963,0,1,0,0,1.926" transform="translate(-758.473 -203.449)" fill="#f0f8fd" fill-rule="evenodd"/>
      <path id="Trazado_184388" data-name="Trazado 184388" d="M1075.566,269.8h9.51a.963.963,0,0,0,0-1.926h-9.51a.963.963,0,1,0,0,1.926" transform="translate(-765.916 -190.924)" fill="#f0f8fd" fill-rule="evenodd"/>
      <path id="Trazado_184389" data-name="Trazado 184389" d="M1075.567,252.22h2.7a.963.963,0,1,0,0-1.926h-2.7a.963.963,0,0,0,0,1.926" transform="translate(-765.916 -178.396)" fill="#f0f8fd" fill-rule="evenodd"/>
      <path id="Trazado_184390" data-name="Trazado 184390" d="M1065.124,234.645h9.019a.963.963,0,0,0,0-1.926h-9.019a.963.963,0,1,0,0,1.926" transform="translate(-758.473 -165.869)" fill="#f0f8fd" fill-rule="evenodd"/>
      <path id="Trazado_184391" data-name="Trazado 184391" d="M1075.37,217.069h2.122a.963.963,0,0,0,0-1.926h-2.122a.963.963,0,0,0,0,1.926" transform="translate(-765.776 -153.342)" fill="#f0f8fd" fill-rule="evenodd"/>
      <path id="Trazado_184392" data-name="Trazado 184392" d="M1074.163,199.493h10.057a.963.963,0,0,0,0-1.926h-10.057a.963.963,0,0,0,0,1.926" transform="translate(-764.916 -140.815)" fill="#f0f8fd" fill-rule="evenodd"/>
      <path id="Trazado_184393" data-name="Trazado 184393" d="M1065.124,181.918h7.9a.963.963,0,1,0,0-1.926h-7.9a.963.963,0,1,0,0,1.926" transform="translate(-758.473 -128.289)" fill="#f0f8fd" fill-rule="evenodd"/>
      <path id="Trazado_184394" data-name="Trazado 184394" d="M1074.163,164.341h10.057a.963.963,0,0,0,0-1.926h-10.057a.963.963,0,0,0,0,1.926" transform="translate(-764.916 -115.761)" fill="#f0f8fd" fill-rule="evenodd"/>
      <path id="Trazado_184395" data-name="Trazado 184395" d="M1074.163,146.766h5.944a.963.963,0,1,0,0-1.926h-5.944a.963.963,0,0,0,0,1.926" transform="translate(-764.916 -103.234)" fill="#f0f8fd" fill-rule="evenodd"/>
      <path id="Trazado_184396" data-name="Trazado 184396" d="M1075.566,337.081h4.489a.966.966,0,0,0,.963-.963h0a.966.966,0,0,0-.963-.963h-4.489a.966.966,0,0,0-.963.963h0a.966.966,0,0,0,.963.963" transform="translate(-765.916 -238.88)" fill="#f0f8fd" fill-rule="evenodd"/>
      <path id="Trazado_184397" data-name="Trazado 184397" d="M1065.124,352.611h12.211a.966.966,0,0,0,.963-.963h0a.966.966,0,0,0-.963-.963h-12.211a.966.966,0,0,0-.963.963h0a.966.966,0,0,0,.963.963" transform="translate(-758.473 -249.949)" fill="#f0f8fd" fill-rule="evenodd"/>
      <path id="Trazado_184398" data-name="Trazado 184398" d="M1075.566,368.14h4.489a.963.963,0,1,0,0-1.926h-4.489a.963.963,0,1,0,0,1.926" transform="translate(-765.916 -261.017)" fill="#f0f8fd" fill-rule="evenodd"/>
      <path id="Trazado_184399" data-name="Trazado 184399" d="M1213.622,147.96h6.872a1,1,0,1,0,0-2h-6.872a1,1,0,0,0,0,2" transform="translate(-864.29 -104.036)" fill="#fff" fill-rule="evenodd"/>
      <path id="Trazado_184400" data-name="Trazado 184400" d="M1159.382,193.836h.117a1,1,0,0,0,0-2h-.117a1,1,0,0,0,0,2" transform="translate(-825.631 -136.734)" fill="#b1cbef" fill-rule="evenodd"/>
      <path id="Trazado_184401" data-name="Trazado 184401" d="M1159.536,178.719h.072a1,1,0,1,0,0-2h-.072a1,1,0,1,0,0,2" transform="translate(-825.74 -125.959)" fill="#b1cbef" fill-rule="evenodd"/>
      <path id="Trazado_184402" data-name="Trazado 184402" d="M1159.536,163.6h.072a1,1,0,1,0,0-2h-.072a1,1,0,1,0,0,2" transform="translate(-825.74 -115.184)" fill="#b1cbef" fill-rule="evenodd"/>
      <path id="Trazado_184403" data-name="Trazado 184403" d="M1159.536,147.96h.072a1,1,0,0,0,0-2h-.072a1,1,0,1,0,0,2" transform="translate(-825.74 -104.036)" fill="#b1cbef" fill-rule="evenodd"/>
      <path id="Trazado_184404" data-name="Trazado 184404" d="M1159.685,246.073h.03a1,1,0,0,0,0-2h-.03a1,1,0,1,0,0,2" transform="translate(-825.846 -173.965)" fill="#b1cbef" fill-rule="evenodd"/>
      <path id="Trazado_184405" data-name="Trazado 184405" d="M1159.685,230.037h.03a1,1,0,0,0,0-2h-.03a1,1,0,1,0,0,2" transform="translate(-825.846 -162.536)" fill="#b1cbef" fill-rule="evenodd"/>
      <path id="Trazado_184406" data-name="Trazado 184406" d="M1159.7,212.817h.026a1,1,0,1,0,0-1.995h-.026a1,1,0,1,0,0,1.995" transform="translate(-825.856 -150.262)" fill="#b1cbef" fill-rule="evenodd"/>
      <path id="Trazado_184407" data-name="Trazado 184407" d="M1160.377,306.508h0a.9.9,0,0,0,.9-.9v-.2a.9.9,0,1,0-1.8,0v.2a.9.9,0,0,0,.9.9" transform="translate(-826.41 -217.04)" fill="#b1cbef" fill-rule="evenodd"/>
      <path id="Trazado_184408" data-name="Trazado 184408" d="M1159.685,291.391h.03a1,1,0,0,0,0-2h-.03a1,1,0,1,0,0,2" transform="translate(-825.846 -206.266)" fill="#b1cbef" fill-rule="evenodd"/>
      <path id="Trazado_184409" data-name="Trazado 184409" d="M1159.835,276.273h0a.993.993,0,0,0,.99-.99v-.016a.99.99,0,0,0-1.979,0v.016a.993.993,0,0,0,.99.99" transform="translate(-825.959 -195.49)" fill="#b1cbef" fill-rule="evenodd"/>
      <path id="Trazado_184410" data-name="Trazado 184410" d="M1159.834,261.156h0a.993.993,0,0,0,.99-.99v-.016a.99.99,0,0,0-1.98,0v.016a.993.993,0,0,0,.99.99" transform="translate(-825.958 -184.716)" fill="#b1cbef" fill-rule="evenodd"/>
      <path id="Trazado_184411" data-name="Trazado 184411" d="M1160.61,387.279h0a.862.862,0,0,0,.86-.86v-.276a.86.86,0,1,0-1.719,0v.276a.862.862,0,0,0,.86.86" transform="translate(-826.604 -274.609)" fill="#b1cbef" fill-rule="evenodd"/>
      <path id="Trazado_184412" data-name="Trazado 184412" d="M1160.61,372.162h0a.862.862,0,0,0,.86-.86v-.276a.86.86,0,0,0-1.719,0v.276a.862.862,0,0,0,.86.86" transform="translate(-826.604 -263.834)" fill="#b1cbef" fill-rule="evenodd"/>
      <path id="Trazado_184413" data-name="Trazado 184413" d="M1160.526,357.044h0a.876.876,0,0,0,.874-.874v-.248a.874.874,0,0,0-1.747,0v.248a.876.876,0,0,0,.874.874" transform="translate(-826.534 -253.059)" fill="#b1cbef" fill-rule="evenodd"/>
      <path id="Trazado_184414" data-name="Trazado 184414" d="M1160.375,341.927h0a.9.9,0,0,0,.9-.9v-.2a.9.9,0,1,0-1.8,0v.2a.9.9,0,0,0,.9.9" transform="translate(-826.408 -242.285)" fill="#b1cbef" fill-rule="evenodd"/>
      <path id="Trazado_184415" data-name="Trazado 184415" d="M1160.377,326.708h0a.9.9,0,0,0,.9-.9v-.2a.9.9,0,0,0-1.8,0v.2a.9.9,0,0,0,.9.9" transform="translate(-826.41 -231.438)" fill="#b1cbef" fill-rule="evenodd"/>
      <path id="Trazado_184416" data-name="Trazado 184416" d="M1236.032,551.466h-74.308a8.886,8.886,0,0,0-8.86,8.86v24.343a8.886,8.886,0,0,0,8.86,8.859h10.829v16.059c0,3.462,2.521,4.49,5.143,2.6l25.387-18.28c.18-.129.357-.261.54-.38h32.409a8.886,8.886,0,0,0,8.859-8.859V560.326a8.886,8.886,0,0,0-8.859-8.86" transform="translate(-821.696 -393.054)" fill="#cce1f9"/>
      <path id="Trazado_184417" data-name="Trazado 184417" d="M1269.737,612.428v1.458a.439.439,0,0,1-.084.252.592.592,0,0,1-.2.187l-5.55,2.62a.206.206,0,0,1-.2,0,.2.2,0,0,1-.084-.181v-2.091a.441.441,0,0,1,.084-.252.587.587,0,0,1,.2-.187l2.22-.955c.078-.034.116-.073.116-.116s-.038-.086-.116-.129l-2.22-.968a.478.478,0,0,1-.2-.174.442.442,0,0,1-.084-.252v-2.078a.211.211,0,0,1,.084-.187.179.179,0,0,1,.2.006l5.55,2.608a.525.525,0,0,1,.284.439m-11.049,3.356v1.755a.309.309,0,0,1-.31.31h-6.441a.293.293,0,0,1-.226-.09.309.309,0,0,1-.084-.219v-8.829a.309.309,0,0,1,.084-.219.294.294,0,0,1,.226-.09h1.937a.308.308,0,0,1,.31.31v6.454a.31.31,0,0,0,.084.219.292.292,0,0,0,.226.091h3.885a.308.308,0,0,1,.31.31m-9.1-7.061v8.816a.3.3,0,0,1-.09.219.293.293,0,0,1-.217.09h-1.94a.293.293,0,0,1-.217-.09.3.3,0,0,1-.09-.219v-4.156a.123.123,0,0,0-.116-.142.2.2,0,0,0-.194.09l-2.175,3.5a.226.226,0,0,1-.207.1.258.258,0,0,1-.219-.1l-2.175-3.5a.177.177,0,0,0-.181-.09.123.123,0,0,0-.116.142v4.156a.3.3,0,0,1-.09.219.294.294,0,0,1-.217.09H1239.4a.294.294,0,0,1-.217-.09.3.3,0,0,1-.091-.219v-8.816a.309.309,0,0,1,.308-.31h1.8a.568.568,0,0,1,.271.077.548.548,0,0,1,.2.181l2.485,3.64a.224.224,0,0,0,.181.1.193.193,0,0,0,.168-.1l2.485-3.64a.681.681,0,0,1,.217-.181.569.569,0,0,1,.271-.077h1.8a.292.292,0,0,1,.217.09.3.3,0,0,1,.09.219m-11.837,2.052h-1.807a.308.308,0,0,0-.309.31v6.454a.312.312,0,0,1-.084.219.293.293,0,0,1-.226.09h-1.936a.308.308,0,0,1-.31-.31v-6.454a.31.31,0,0,0-.084-.219.293.293,0,0,0-.226-.09h-1.833a.308.308,0,0,1-.31-.31v-1.756a.308.308,0,0,1,.31-.31h6.815a.294.294,0,0,1,.226.09.312.312,0,0,1,.084.219v1.756a.312.312,0,0,1-.084.219.294.294,0,0,1-.226.09m-8.326-2.065v8.829a.308.308,0,0,1-.31.31h-1.936a.293.293,0,0,1-.226-.09.311.311,0,0,1-.084-.219v-2.762a.308.308,0,0,0-.308-.31h-2.65a.291.291,0,0,0-.224.09.311.311,0,0,0-.084.219v2.762a.3.3,0,0,1-.09.219.3.3,0,0,1-.222.09h-1.932a.3.3,0,0,1-.228-.09.309.309,0,0,1-.084-.219v-8.829a.309.309,0,0,1,.084-.219.3.3,0,0,1,.228-.09h1.932a.3.3,0,0,1,.222.09.3.3,0,0,1,.09.219v3.046a.311.311,0,0,0,.084.219.292.292,0,0,0,.224.09h2.65a.308.308,0,0,0,.308-.31v-3.046a.311.311,0,0,1,.084-.219.294.294,0,0,1,.226-.09h1.936a.308.308,0,0,1,.31.31m-14.225.852v2.078a.439.439,0,0,1-.084.252.48.48,0,0,1-.2.174l-2.233.968q-.129.064-.129.129t.129.116l2.22.955a.555.555,0,0,1,.212.187.438.438,0,0,1,.084.252v2.091a.194.194,0,0,1-.084.181.2.2,0,0,1-.2,0l-5.564-2.62a.539.539,0,0,1-.193-.187.466.466,0,0,1-.078-.252v-1.458a.5.5,0,0,1,.078-.258.433.433,0,0,1,.193-.181l5.564-2.608a.178.178,0,0,1,.2-.006.21.21,0,0,1,.084.187" transform="translate(-861.765 -433.634)" fill="#5776b7"/>
      <path id="Trazado_184419" data-name="Trazado 184419" d="M342.247,603.008c11.311,16.091-17.589,96.012-23.154,133.937-2.541,17.324-8.008,20.878-23.614,24.415-20.47,4.64-34.344,10.327-49.368,9.811-8.791-.3-15.877.043-19.324-2.543-11.99-8.992,6.63-19.385,6.63-19.385s37.393-14.747,44.856-18.577c6.421-3.784,10.091-135.143,52.054-144.448,5.5-1.219,4.573,9.324,11.92,16.791" transform="translate(-158.773 -417.754)" fill="#d45614" fill-rule="evenodd"/>
      <path id="Trazado_184420" data-name="Trazado 184420" d="M506.665,1010.454c-7.017-4.431-13.7-6.934-15.959,0Zm119.461,0a279.551,279.551,0,0,0-7.566-43.141c-18.13-.614-34.652-4.059-38.759-6.923-1.708-5.274-9.5-23.3-2.042-25.938,5.731-2.521,15.412-3.289,25.329-3.661-31.135-45.737-79.43-.148-76.7,79.664Z" transform="translate(-349.747 -650.442)" fill="#0b3870" fill-rule="evenodd"/>
      <path id="Trazado_184421" data-name="Trazado 184421" d="M574.211,281.742a81.394,81.394,0,0,1,.053,22.886c-2.139,15.112-7.682,25.858-13.862,39.149a9.819,9.819,0,0,0-.394,5.178c.627,2.49,2.294,4.064,2.343,5.5.2,5.653-6.269,8-4.217,14.441,2.181,6.846,12.167,14.67,18.25,23.222,0,0,19.967-21.977,28.518-23.529s9.69-28.437,9.69-29.817-7.61-54.979-7.61-54.979Z" transform="translate(-397.519 -200.81)" fill="#000446" fill-rule="evenodd"/>
      <path id="Trazado_184422" data-name="Trazado 184422" d="M569.71,567.963c17.8,0,33.066,5.457,43.841,16.6a8.3,8.3,0,0,1,1.591,2.472c-3.449,31.816-16.657,39.584-7.261,59.77-1.765,6.751-11.033,34.77-12.549,41.1-.133.008-5.311,19.447-.847,40.365,2.75,9.3,4.508,16.85,9.013,35.863h-149.1c5.323-30.2,11.426-54,11.8-58.187,2.406-26.99-2.3-116.668,23.26-131.218,20.224-11.514,55.553-6.764,80.258-6.764" transform="translate(-323.865 -404.12)" fill="#eb6e03" fill-rule="evenodd"/>
      <path id="Trazado_184423" data-name="Trazado 184423" d="M615.131,565.317c-21.139,11.43-32.223,121.524-27.171,196.943h49.278c-1.633-121.416,11.841-168.315,24.533-196.325-17.984-1.186-24.314-2.514-46.64-.618" transform="translate(-418.202 -402.248)" fill="#fff" fill-rule="evenodd"/>
      <path id="Trazado_184424" data-name="Trazado 184424" d="M646.2,367.535l-.422,9.434-.648.834c-4.607,10.535,7.289,17.665,10.5,19.306,3.282-.5,22.046-6.433,23.138-21.266l-.084-.951-.652-21.025a5.837,5.837,0,0,0,4.583-3.205c1.88-3.2,3.5-9.406,3.21-11.641-.517-4.029-6.191-1.575-6.191-1.575h0c5.349-11.634,11.973-21.581-.143-28.724s-37.172-7.773-37.172-7.773l-14.943-2.221c6.674,11.746-14.87,58.795,18.825,68.807" transform="translate(-446.624 -212.917)" fill="#f4b1b1" fill-rule="evenodd"/>
      <path id="Trazado_184425" data-name="Trazado 184425" d="M716.41,501.441c-5.911,13.9-11.156,18.924-23.126,20.011l.43-9.622c4.562-.239,15.869-3.606,22.7-10.388" transform="translate(-494.133 -357.399)" fill="#ed8082" fill-rule="evenodd"/>
      <path id="Trazado_184426" data-name="Trazado 184426" d="M599.112,223.2c20.02-14.144,50.112-10.736,64.845,11.809,12.681,19.4,12.845,52.719,32.209,53.662,6.34.308,13.657,3.464,14.667,17.3,4.585,1.473,15.037,7.022,7.358,21.742,7.574,5.432,8.4,14.384,1.607,19.672-3.379-6.378-4.812-8.2-7.493-11.392l0,0A8.29,8.29,0,0,0,710.7,333.5c-10.776-11.137-26.039-16.6-43.841-16.6-4.22-.009-9.693-.013-13.756-.321-.538-6.635-1.481-19.114-1.508-23.228a11.954,11.954,0,0,0,4.717-10.249c-.119-5.365-1.823-4.577-9.4-.962-1-13.478.683-21.372-24.942-21.363a57.229,57.229,0,0,1-21.672-3.84c-10.9-4.443-14.11-24.609-1.18-33.743" transform="translate(-421.012 -153.064)" fill="#000446" fill-rule="evenodd"/>
      <path id="Trazado_184427" data-name="Trazado 184427" d="M786.753,645.83c5.523-12.26-3.736-53.463,22.747-32.363,1.427,1.137,8.218,10.67,9.76,13.254,11.97,20.066,37.4,96.148,32.08,132.391-2.527,17.225-17.332,20.656-32.848,24.174-20.354,4.614-51.022,10.268-65.96,9.755-8.741-.3-15.786.042-19.215-2.529-11.921-8.94,6.592-19.275,6.592-19.275s65.645-25.831,73.065-29.639c3.508-2.068-30.573-86.1-26.221-95.768" transform="translate(-519.814 -433.03)" fill="#eb6e03" fill-rule="evenodd"/>
      <path id="Trazado_184428" data-name="Trazado 184428" d="M250.574,1226.589H388.1v3.833a3.844,3.844,0,0,1-3.833,3.833H254.407a3.844,3.844,0,0,1-3.833-3.833Z" transform="translate(-178.595 -874.243)" fill="#2a4589" fill-rule="evenodd"/>
      <path id="Trazado_184429" data-name="Trazado 184429" d="M64.26,949.368H166.9c4.047,0,6.6,3.423,7.359,7.446l14.6,77.79H72.527l-14.6-78.823c-.642-3.466,2.851-6.413,6.337-6.413" transform="translate(-41.229 -676.656)" fill="#2a4589" fill-rule="evenodd"/>
      <path id="Trazado_184430" data-name="Trazado 184430" d="M52.019,949.368H154.657c4.048,0,6.6,3.424,7.359,7.447l13.116,69.631h.174l.843,5.111c.457,2.771-2.3,5.111-5.111,5.111H64.711c-2.808,0-4.694-2.33-5.111-5.111l-.629-4.2-13.289-71.58c-.643-3.467,2.852-6.413,6.337-6.413" transform="translate(-32.504 -676.656)" fill="#b1d2fc" fill-rule="evenodd"/>
      <path id="Trazado_184431" data-name="Trazado 184431" d="M247.862,1085.53c2.447-.585,4.988,1.274,5.677,4.152s-.737,5.687-3.184,6.272-4.989-1.274-5.677-4.152.737-5.687,3.184-6.272" transform="translate(-174.269 -773.628)" fill="#f4fafd" fill-rule="evenodd"/>
      <path id="Trazado_184432" data-name="Trazado 184432" d="M687.129,1208.488c-16.088-.08-34.065.131-38.825-.073,4.711-14.034,21.476-18.662,34.7-17.9,3.175,2.169,6.4,13.459,4.125,17.971" transform="translate(-462.074 -848.476)" fill="#f6c0c5" fill-rule="evenodd"/>
    </g>
  </g>
</svg>
