<svg id="img24" xmlns="http://www.w3.org/2000/svg" xmlns:xlink="http://www.w3.org/1999/xlink" width="392.196" height="319.558" viewBox="0 0 392.196 319.558">
  <defs>
    <clipPath id="clip-path">
      <rect id="Rectángulo_37369" data-name="Rectángulo 37369" width="392.196" height="319.558" fill="none"/>
    </clipPath>
  </defs>
  <g id="Grupo_142486" data-name="Grupo 142486" clip-path="url(#clip-path)">
    <path id="Trazado_184433" data-name="Trazado 184433" d="M686.23,581.443H670.3a3.427,3.427,0,0,1-3.417-3.417h0a3.427,3.427,0,0,1,3.417-3.417H686.23a3.427,3.427,0,0,1,3.417,3.417h0a3.427,3.427,0,0,1-3.417,3.417" transform="translate(-524.286 -379.161)" fill="#f0f8fd" fill-rule="evenodd"/>
    <path id="Trazado_184434" data-name="Trazado 184434" d="M683.913,531.69h-44.9a3.427,3.427,0,0,1-3.417-3.417h0a3.427,3.427,0,0,1,3.417-3.417h44.9a3.427,3.427,0,0,1,3.417,3.417h0a3.427,3.427,0,0,1-3.417,3.417" transform="translate(-511.326 -346.332)" fill="#f0f8fd" fill-rule="evenodd"/>
    <path id="Trazado_184435" data-name="Trazado 184435" d="M672.827,479.023H639.015a3.427,3.427,0,0,1-3.417-3.417h0a3.427,3.427,0,0,1,3.417-3.417h33.812a3.427,3.427,0,0,1,3.417,3.417h0a3.427,3.427,0,0,1-3.417,3.417" transform="translate(-500.24 -311.579)" fill="#f0f8fd" fill-rule="evenodd"/>
    <path id="Trazado_184436" data-name="Trazado 184436" d="M686.23,627.978H670.3a3.427,3.427,0,0,1-3.417-3.417h0a3.427,3.427,0,0,1,3.417-3.417H686.23a3.427,3.427,0,0,1,3.417,3.417h0a3.427,3.427,0,0,1-3.417,3.417" transform="translate(-524.286 -409.868)" fill="#f0f8fd" fill-rule="evenodd"/>
    <path id="Trazado_184437" data-name="Trazado 184437" d="M682.343,674.513H639.015A3.427,3.427,0,0,1,635.6,671.1h0a3.427,3.427,0,0,1,3.417-3.417h43.328a3.427,3.427,0,0,1,3.417,3.417h0a3.427,3.427,0,0,1-3.417,3.417" transform="translate(-509.757 -440.575)" fill="#f0f8fd" fill-rule="evenodd"/>
    <path id="Trazado_184438" data-name="Trazado 184438" d="M686.23,721.049H670.3a3.427,3.427,0,0,1-3.417-3.417h0a3.427,3.427,0,0,1,3.417-3.417H686.23a3.427,3.427,0,0,1,3.417,3.417h0a3.427,3.427,0,0,1-3.417,3.417" transform="translate(-524.286 -471.282)" fill="#f0f8fd" fill-rule="evenodd"/>
    <path id="Trazado_184439" data-name="Trazado 184439" d="M924.406,536.4h0a3.2,3.2,0,0,1-3.19-3.19v-.7a3.19,3.19,0,0,1,6.38,0v.7a3.2,3.2,0,0,1-3.19,3.19" transform="translate(-848.742 -349.281)" fill="#b1cbef" fill-rule="evenodd"/>
    <path id="Trazado_184440" data-name="Trazado 184440" d="M922.494,491.1h-.106a3.55,3.55,0,0,1-3.54-3.54h0a3.55,3.55,0,0,1,3.54-3.54h.106a3.55,3.55,0,0,1,3.539,3.54h0a3.55,3.55,0,0,1-3.539,3.54" transform="translate(-846.375 -319.389)" fill="#b1cbef" fill-rule="evenodd"/>
    <path id="Trazado_184441" data-name="Trazado 184441" d="M925.086,778.44h0a3.06,3.06,0,0,1-3.05-3.05v-.979a3.059,3.059,0,0,1,3.05-3.05h0a3.059,3.059,0,0,1,3.05,3.05v.979a3.06,3.06,0,0,1-3.05,3.05" transform="translate(-849.56 -508.991)" fill="#b1cbef" fill-rule="evenodd"/>
    <path id="Trazado_184442" data-name="Trazado 184442" d="M925.086,733.139h0a3.059,3.059,0,0,1-3.05-3.05v-.979a3.059,3.059,0,0,1,3.05-3.05h0a3.059,3.059,0,0,1,3.05,3.05v.979a3.059,3.059,0,0,1-3.05,3.05" transform="translate(-849.56 -479.099)" fill="#b1cbef" fill-rule="evenodd"/>
    <path id="Trazado_184443" data-name="Trazado 184443" d="M924.843,687.839h0a3.109,3.109,0,0,1-3.1-3.1v-.88a3.109,3.109,0,0,1,3.1-3.1h0a3.109,3.109,0,0,1,3.1,3.1v.88a3.109,3.109,0,0,1-3.1,3.1" transform="translate(-849.268 -449.207)" fill="#b1cbef" fill-rule="evenodd"/>
    <path id="Trazado_184444" data-name="Trazado 184444" d="M924.406,642.539h0a3.2,3.2,0,0,1-3.19-3.19v-.7a3.19,3.19,0,0,1,6.38,0v.7a3.2,3.2,0,0,1-3.19,3.19" transform="translate(-848.742 -419.315)" fill="#b1cbef" fill-rule="evenodd"/>
    <path id="Trazado_184445" data-name="Trazado 184445" d="M924.406,596.934h0a3.2,3.2,0,0,1-3.19-3.189v-.7a3.19,3.19,0,0,1,6.38,0v.7a3.2,3.2,0,0,1-3.19,3.189" transform="translate(-848.742 -389.222)" fill="#b1cbef" fill-rule="evenodd"/>
    <path id="Trazado_184446" data-name="Trazado 184446" d="M352.517,336.5c-16.7,39.541-22.789,133.12-25.272,198.712H250.021c1.879-62.96,8.67-147.23,22.162-190.2,3.111-9.909,5.6-9.813,9.6-13.054,21.343-3.807,39.044-6.091,69.061-.04Z" transform="translate(-45.363 -216.559)" fill="#fff" fill-rule="evenodd"/>
    <path id="Trazado_184447" data-name="Trazado 184447" d="M585.637,514.394c-2.615,17.822-17.932,21.372-33.986,25.012-21.059,4.774-35.332,10.624-50.788,10.093-9.044-.312-16.333.044-19.88-2.617-12.334-9.25,6.821-19.943,6.821-19.943s30.276-15.973,46.108-24.268c12.794-80.392,17.059-134.975,63.418-151.977,22.116-14.249-10.214,153.629-11.692,163.7" transform="translate(-375.038 -230.843)" fill="#09499b" fill-rule="evenodd"/>
    <path id="Trazado_184448" data-name="Trazado 184448" d="M380.425,542.521c-.018-89.6,10.9-192.165,50.187-201.469q3.6-1.007,7.033-1.788C424.767,367.6,450.66,464.336,464.019,542.521Z" transform="translate(-201.221 -223.867)" fill="#105dc4" fill-rule="evenodd"/>
    <path id="Trazado_184449" data-name="Trazado 184449" d="M82.4,542.994c13.228-80.144,60.722-175.869,72.763-204.383,20.778,2.836,33.018,7.894,44.6,19.316,19.651,18.444,19.152,47.682,5.906,83.367l-12.681-14.786c-6.271,29.34-8.762,73.916-10.027,115.582Z" transform="translate(149.034 -223.436)" fill="#105dc4" fill-rule="evenodd"/>
    <path id="Trazado_184450" data-name="Trazado 184450" d="M226.049,786.663l-55.891,29.393,16.58-3.946,38.6-13.564Z" transform="translate(108.269 -519.088)" fill="#09499b" fill-rule="evenodd"/>
    <path id="Trazado_184451" data-name="Trazado 184451" d="M260.97,130.855l.053,15.024c-4.785,9.495-4.5,18.431,8.583,20.715,35.911,1.771,31.513-23.22,31.2-24.388l-3.477-20.9c1.193-.068,11.2-5.293,13.777-6.085s6.37-5.767,6.624-11.021-7.861-3.55-7.861-3.55c9.83-13.454,20.962-24.441,6.527-36.553-8.24-6.916-64.96-30.973-67.209-10.4a135.6,135.6,0,0,1-6.314,28.5c-6.733,18.861-.125,39.932,18.1,48.662" transform="translate(-12.847 -30.053)" fill="#f4b1b1" fill-rule="evenodd"/>
    <path id="Trazado_184452" data-name="Trazado 184452" d="M283.444,344.22c4.7,4.813,11.92,11.516,16.624,16.329,9.934-10.466,15.289-26.315,19.978-39.331-3.805-2.624-5.175-3.809-8.683-6.607-4.555,9.066-12.079,22.666-27.919,29.609" transform="translate(-24.261 -207.6)" fill="#c3dcfa" fill-rule="evenodd"/>
    <path id="Trazado_184453" data-name="Trazado 184453" d="M409.217,352.02c-4.645,4.743-12.407,8.695-17.049,13.437-2.227-8.958-.736-25.346,1.166-35.844,1.895-1.779,2.639-1.69,4.86-3.182-.993,9.745,6.166,20.122,11.024,25.588" transform="translate(-150.034 -215.4)" fill="#c3dcfa" fill-rule="evenodd"/>
    <path id="Trazado_184454" data-name="Trazado 184454" d="M368.7,275.527c-4.743,9.7-13.878,23.816-28.232,22.107l-.053-15.024c6.388,1.027,12.639.522,28.285-7.083" transform="translate(-92.288 -181.81)" fill="#e06b6c" fill-rule="evenodd"/>
    <path id="Trazado_184455" data-name="Trazado 184455" d="M305.18,38.824c3.369-10.962-3.416-22.817-12.75-29.13-35.9-24.279-90.761.421-68.643,36.812.813-1.773,2.578-12.5,3.713-11.635a24.892,24.892,0,0,0,3.966,2.841c16.59,8.5,35.693-1.583,45.356,9.794,4.784,5.637,4.3,13.761-1.055,26.308-1.579,3.7-3.688,6.421,2.557,3.528,2.867-1.327,7.588-3.183,9.2-1.88,3.588,2.9,1.778,8.994-1.085,10.958-1.278.876-3.7,2.184-3.7,2.184,26.371-5,32.537-41.961,22.439-49.78" transform="translate(8.04 0)" fill="#1b326b" fill-rule="evenodd"/>
    <path id="Trazado_184456" data-name="Trazado 184456" d="M91.559,395.624c11.636,16.554,40.348,100.19,34.623,139.207C123.568,552.652,108.25,556.2,92.2,559.842c-21.059,4.774-52.79,10.624-68.246,10.093-9.044-.312-16.333.044-19.88-2.617-12.334-9.25,7.3-18.33,7.3-18.33S75.12,522.7,82.8,518.759c2.506-1.477-15-42.32-24.591-70.749-10.188-30.2-10.31-96.759,33.353-52.386" transform="translate(265.267 -251.28)" fill="#105dc4" fill-rule="evenodd"/>
    <path id="Trazado_184457" data-name="Trazado 184457" d="M836.359,899.094c-16.645-.083-37.29.135-42.216-.076,4.875-14.521,21.147-20.087,34.83-19.3,6.458,3.076,8.547,15.418,7.387,19.371" transform="translate(-714.587 -580.446)" fill="#f6c0c5" fill-rule="evenodd"/>
    <path id="Trazado_184458" data-name="Trazado 184458" d="M622.483,918.82H475.276v6.135H625.55v-3.068a3.076,3.076,0,0,0-3.068-3.068" transform="translate(-395.015 -606.293)" fill="#6fa0e2" fill-rule="evenodd"/>
    <path id="Trazado_184459" data-name="Trazado 184459" d="M360.811,902.9c-16.645-.083-35.245.135-40.171-.076,4.874-14.521,21.266-18.116,34.95-17.325,3.285,2.245,6.382,13.448,5.221,17.4" transform="translate(-77.927 -584.24)" fill="#f6c0c5" fill-rule="evenodd"/>
    <path id="Trazado_184460" data-name="Trazado 184460" d="M550.709,457.741H714.481c6.348,0,7.554,5.415,8.742,11.772l20.843,111.532c.857,5.406,3.184,14.545-11,14.587l-167.769.122L537.225,462.886c-1.048-5.473,8.017-5.145,13.484-5.145" transform="translate(-535.258 -302.043)" fill="#6fa0e2" fill-rule="evenodd"/>
    <path id="Trazado_184461" data-name="Trazado 184461" d="M557.211,460.969H724.935c6.349,0,7.553,5.37,8.742,11.679l20.843,110.646h-.02l1.149,6.578c.758,4.34-3.609,8.015-8.014,8.015H581.268c-4.406,0-7.372-3.654-8.016-8.015l-.972-6.578h-.212L551.225,471.026c-1.009-5.436.521-10.057,5.986-10.057" transform="translate(-550.934 -304.175)" fill="#b2d2ff" fill-rule="evenodd"/>
    <path id="Trazado_184462" data-name="Trazado 184462" d="M733.213,821.826a8.761,8.761,0,0,1-6.71,3.216H560.136a7.256,7.256,0,0,1-5.112-2.064l24.412-17.762,108.9,1.29Z" transform="translate(-529.802 -531.331)" fill="#6fa0e2" fill-rule="evenodd"/>
    <path id="Trazado_184463" data-name="Trazado 184463" d="M1032.346,597.948a10.3,10.3,0,0,1-2.9-5.951l-.972-6.578h-.212l-20.843-112.268c-.713-3.844-.157-7.279,2.161-8.962l32.346,31.5,14.836,84.495Z" transform="translate(-1007.124 -306.3)" fill="#c3dcff" fill-rule="evenodd"/>
    <path id="Trazado_184464" data-name="Trazado 184464" d="M583.219,461.89c4.28,1.234,5.312,5.954,6.332,11.366L610.394,583.9h-.02l1.149,6.578a6,6,0,0,1-1.3,4.8l-44.875-15.32-14.407-85.785Z" transform="translate(-406.807 -304.783)" fill="#cee2ff" fill-rule="evenodd"/>
    <path id="Trazado_184465" data-name="Trazado 184465" d="M639.023,460.968H806.746a8.672,8.672,0,0,1,2.411.314l-32.284,32.284H667.543L634.4,462.786a5.887,5.887,0,0,1,4.624-1.818" transform="translate(-632.745 -304.175)" fill="#e2eeff" fill-rule="evenodd"/>
    <path id="Trazado_184466" data-name="Trazado 184466" d="M787.828,632.885h50.279c1.9,0,2.264,1.61,2.621,3.5l6.248,33.168h-.006l.344,1.972a2.286,2.286,0,0,1-2.4,2.4H795.039a2.557,2.557,0,0,1-2.4-2.4l-.292-1.972h-.063L786.033,635.9c-.3-1.63.156-3.015,1.794-3.015" transform="translate(-722.475 -417.616)" fill="#6fa0e2" fill-rule="evenodd"/>
    <path id="Trazado_184467" data-name="Trazado 184467" d="M852.849,657.246H872.14l-6.958,95.107H845.89Z" transform="translate(-767.665 -433.691)" fill="#6fa0e2" fill-rule="evenodd"/>
    <path id="Trazado_184468" data-name="Trazado 184468" d="M176.537,927.282c10.077-.291,24.483-2.362,38.551-4.924q-.081,2.468-.155,4.924Z" transform="translate(117.061 -608.628)" fill="#09499b" fill-rule="evenodd"/>
  </g>
</svg>
