<svg id="img3" xmlns="http://www.w3.org/2000/svg" xmlns:xlink="http://www.w3.org/1999/xlink" width="592.37" height="305.792" viewBox="0 0 592.37 305.792">
  <defs>
    <clipPath id="clip-path">
      <rect id="Rectángulo_37239" data-name="Rectángulo 37239" width="592.37" height="305.792" fill="none"/>
    </clipPath>
    <clipPath id="clip-path-2">
      <rect id="Rectángulo_37238" data-name="Rectángulo 37238" width="592.369" height="305.793" fill="none"/>
    </clipPath>
    <clipPath id="clip-path-3">
      <rect id="Rectángulo_37232" data-name="Rectángulo 37232" width="48.782" height="11.676" fill="none"/>
    </clipPath>
    <clipPath id="clip-path-4">
      <rect id="Rectángulo_37233" data-name="Rectángulo 37233" width="253.686" height="130.586" fill="none"/>
    </clipPath>
  </defs>
  <g id="Grupo_142311" data-name="Grupo 142311" clip-path="url(#clip-path)">
    <g id="Grupo_142310" data-name="Grupo 142310" transform="translate(0 -0.001)">
      <g id="Grupo_142309" data-name="Grupo 142309" clip-path="url(#clip-path-2)">
        <path id="Trazado_183714" data-name="Trazado 183714" d="M1272.365,289.635l5.052-3.744a1.393,1.393,0,0,1,1.45-.115q.892.456,1.834.844a23.388,23.388,0,0,0,3.526,1.148,1.375,1.375,0,0,1,1.052,1.138l1,6.5a1.351,1.351,0,0,0,1.435,1.147l5.995-.4a1.335,1.335,0,0,0,1.242-1.269l.256-6.046a1.34,1.34,0,0,1,1.007-1.255,24.291,24.291,0,0,0,6.973-3.168,1.384,1.384,0,0,1,1.681.136l2.717,2.484a1.4,1.4,0,0,0,1.847.019l4.464-3.956a1.221,1.221,0,0,0,.236-.266,1.341,1.341,0,0,0-.04-1.56l-2.793-3.777-.682-.919a24.072,24.072,0,0,0,1.513-3.042,24.412,24.412,0,0,0,1.332-4.334,1.34,1.34,0,0,1,1.113-1.063l5.233-.8a1.389,1.389,0,0,0,1.176-1.467l-.3-4.583-.09-1.313a1.407,1.407,0,0,0-1.342-1.317l-5.052-.218a1.339,1.339,0,0,1-1.252-.961,24.1,24.1,0,0,0-2.005-4.751,4.33,4.33,0,0,0-.207-.382.742.742,0,0,1-.065-.131,1.371,1.371,0,0,1,.247-1.5l4.024-4.42a1.013,1.013,0,0,0,.124-.157,1.394,1.394,0,0,0-.108-1.684L1311.016,240a1.388,1.388,0,0,0-1.863-.2l-5.267,3.908a1.341,1.341,0,0,1-1.518.065,24.528,24.528,0,0,0-3.332-1.676q-.932-.384-1.877-.684a1.414,1.414,0,0,1-.966-1.132l-.961-6.243a1.349,1.349,0,0,0-1.422-1.142l-5.93.4a1.41,1.41,0,0,0-1.32,1.349l-.2,4.783a1.385,1.385,0,0,1-1.108,1.3,24.233,24.233,0,0,0-7.022,2.547,1.376,1.376,0,0,1-1.607-.187l-3.982-3.628a1.424,1.424,0,0,0-1.893-.015l-4.442,3.921a1.361,1.361,0,0,0-.192,1.835l.161.222,3.246,4.387a1.391,1.391,0,0,1,.051,1.587l0,.006a24.111,24.111,0,0,0-1.969,3.79c-.3.717-.547,1.437-.774,2.167a1.365,1.365,0,0,1-1.1.964l-5.312.81a1.412,1.412,0,0,0-1.2,1.488l.395,5.906a1.523,1.523,0,0,0,.118.471,1.405,1.405,0,0,0,1.2.822l4.036.163a1.4,1.4,0,0,1,1.165.74,1.509,1.509,0,0,1,.131.366,24.142,24.142,0,0,0,3.69,8.806,1.359,1.359,0,0,1,.023,1.493,1.379,1.379,0,0,1-.143.186l-3.261,3.576a1.382,1.382,0,0,0-.016,1.841l.091.1,3.834,4.347a1.407,1.407,0,0,0,1.887.191m25.675-35.408a16.142,16.142,0,0,1,2.182,2.071,12.694,12.694,0,0,1,2.66,6.386c.016.214.025.426.035.637.406,12.885-14.589,18.975-23.3,9.222a13.165,13.165,0,0,1-2.6-5.409,8.574,8.574,0,0,1-.178-1.261,14.92,14.92,0,0,1,.52-5.046,13.025,13.025,0,0,1,20.674-6.6" transform="translate(-992.018 -183.475)" fill="#dfebfd"/>
        <path id="Trazado_183715" data-name="Trazado 183715" d="M1483.7,50.9l4.338-2.351a1.094,1.094,0,0,1,1.139.07q.642.453,1.332.858a18.368,18.368,0,0,0,2.613,1.281,1.078,1.078,0,0,1,.692,1l.058,5.156a1.059,1.059,0,0,0,.988,1.05l4.7.355a1.047,1.047,0,0,0,1.105-.849l.866-4.668a1.052,1.052,0,0,1,.92-.864,19.055,19.055,0,0,0,5.767-1.691,1.086,1.086,0,0,1,1.291.291l1.836,2.23a1.1,1.1,0,0,0,1.433.218l3.9-2.581a.955.955,0,0,0,.213-.181,1.052,1.052,0,0,0,.141-1.216l-1.753-3.242-.429-.79a18.861,18.861,0,0,0,1.511-2.2,19.155,19.155,0,0,0,1.513-3.22,1.051,1.051,0,0,1,.982-.7l4.154-.042a1.09,1.09,0,0,0,1.075-1.01l.272-3.594.075-1.03a1.1,1.1,0,0,0-.9-1.171l-3.9-.727a1.05,1.05,0,0,1-.866-.885,18.925,18.925,0,0,0-1.033-3.912,3.335,3.335,0,0,0-.118-.319.571.571,0,0,1-.036-.109,1.076,1.076,0,0,1,.358-1.139l3.614-2.989a.776.776,0,0,0,.113-.108,1.094,1.094,0,0,0,.1-1.32l-2.567-3.9a1.089,1.089,0,0,0-1.426-.358l-4.523,2.454a1.052,1.052,0,0,1-1.187-.117,19.27,19.27,0,0,0-2.4-1.67q-.682-.4-1.383-.739a1.109,1.109,0,0,1-.625-.986l-.057-4.956a1.058,1.058,0,0,0-.979-1.044l-4.651-.344a1.106,1.106,0,0,0-1.174.9l-.686,3.694a1.087,1.087,0,0,1-1,.889,19.015,19.015,0,0,0-5.736,1.2,1.08,1.08,0,0,1-1.228-.323l-2.693-3.258a1.117,1.117,0,0,0-1.469-.221l-3.884,2.556a1.068,1.068,0,0,0-.352,1.4l.1.19,2.038,3.766a1.091,1.091,0,0,1-.135,1.238l0,0a18.906,18.906,0,0,0-1.948,2.727c-.308.524-.584,1.056-.84,1.6a1.071,1.071,0,0,1-.962.627l-4.216.043a1.108,1.108,0,0,0-1.1,1.023l-.345,4.631a1.2,1.2,0,0,0,.039.379,1.1,1.1,0,0,0,.845.772l3.117.572a1.1,1.1,0,0,1,.823.7,1.179,1.179,0,0,1,.062.3,18.945,18.945,0,0,0,1.894,7.248,1.062,1.062,0,0,1-.279,1.291l-2.928,2.419a1.084,1.084,0,0,0-.216,1.428l.059.091,2.5,3.8a1.1,1.1,0,0,0,1.445.357m23.854-24.673a12.682,12.682,0,0,1,1.466,1.85,9.961,9.961,0,0,1,1.362,5.255c-.011.168-.027.334-.044.5-1.106,10.055-13.428,13.131-19.117,4.593a10.332,10.332,0,0,1-1.419-4.489,6.722,6.722,0,0,1,0-1,11.706,11.706,0,0,1,.961-3.863,10.22,10.22,0,0,1,16.79-2.845" transform="translate(-1163.077 -6.968)" fill="#dfebfd"/>
        <path id="Trazado_183716" data-name="Trazado 183716" d="M2393.518,923.1l5.356-2.9a1.35,1.35,0,0,1,1.407.087q.792.559,1.644,1.06a22.688,22.688,0,0,0,3.226,1.582,1.332,1.332,0,0,1,.855,1.235l.072,6.367a1.308,1.308,0,0,0,1.22,1.3l5.8.438a1.293,1.293,0,0,0,1.365-1.048l1.07-5.764a1.3,1.3,0,0,1,1.137-1.067,23.544,23.544,0,0,0,7.121-2.089,1.341,1.341,0,0,1,1.594.359l2.267,2.753a1.354,1.354,0,0,0,1.77.27l4.821-3.187a1.178,1.178,0,0,0,.262-.223,1.3,1.3,0,0,0,.174-1.5l-2.164-4-.53-.975a23.318,23.318,0,0,0,1.866-2.712,23.578,23.578,0,0,0,1.868-3.975,1.3,1.3,0,0,1,1.213-.868l5.128-.052a1.346,1.346,0,0,0,1.328-1.247l.336-4.437.093-1.272a1.363,1.363,0,0,0-1.108-1.447l-4.816-.9a1.3,1.3,0,0,1-1.07-1.092,23.389,23.389,0,0,0-1.276-4.831,4.073,4.073,0,0,0-.146-.394.7.7,0,0,1-.044-.134,1.328,1.328,0,0,1,.441-1.406l4.462-3.691a.978.978,0,0,0,.14-.133,1.351,1.351,0,0,0,.126-1.63l-3.169-4.811a1.344,1.344,0,0,0-1.761-.442l-5.585,3.03a1.3,1.3,0,0,1-1.465-.145,23.776,23.776,0,0,0-2.967-2.062q-.842-.5-1.708-.912A1.37,1.37,0,0,1,2423.1,879l-.071-6.119a1.307,1.307,0,0,0-1.208-1.289l-5.743-.425a1.366,1.366,0,0,0-1.449,1.114l-.848,4.56a1.341,1.341,0,0,1-1.24,1.1,23.481,23.481,0,0,0-7.083,1.486,1.333,1.333,0,0,1-1.516-.4l-3.325-4.023a1.38,1.38,0,0,0-1.814-.273l-4.8,3.156a1.319,1.319,0,0,0-.434,1.734l.124.235,2.516,4.65a1.347,1.347,0,0,1-.167,1.529l0,.005a23.4,23.4,0,0,0-2.4,3.367c-.381.648-.721,1.3-1.037,1.973a1.323,1.323,0,0,1-1.188.774l-5.206.053a1.368,1.368,0,0,0-1.353,1.263l-.426,5.718a1.483,1.483,0,0,0,.049.468,1.362,1.362,0,0,0,1.043.953l3.849.707a1.361,1.361,0,0,1,1.016.868,1.452,1.452,0,0,1,.076.369,23.4,23.4,0,0,0,2.339,8.95,1.315,1.315,0,0,1-.181,1.436,1.343,1.343,0,0,1-.163.159l-3.616,2.986a1.339,1.339,0,0,0-.266,1.764l.073.112,3.085,4.692a1.363,1.363,0,0,0,1.785.44m29.454-30.465a15.638,15.638,0,0,1,1.811,2.284,12.3,12.3,0,0,1,1.682,6.488c-.014.207-.034.412-.054.616-1.365,12.416-16.58,16.213-23.6,5.671a12.76,12.76,0,0,1-1.752-5.543,8.268,8.268,0,0,1,0-1.233,14.459,14.459,0,0,1,1.187-4.77,12.619,12.619,0,0,1,20.731-3.513" transform="translate(-1878.477 -686.314)" fill="#dfebfd"/>
        <path id="Trazado_183717" data-name="Trazado 183717" d="M2558.543,751.129l2.865-1.553a.722.722,0,0,1,.752.047q.424.3.88.567a12.16,12.16,0,0,0,1.726.846.713.713,0,0,1,.457.661l.038,3.406a.7.7,0,0,0,.653.693l3.105.234a.692.692,0,0,0,.73-.561l.572-3.084a.694.694,0,0,1,.608-.571,12.6,12.6,0,0,0,3.81-1.117.717.717,0,0,1,.853.192l1.213,1.473a.725.725,0,0,0,.947.145l2.579-1.705a.627.627,0,0,0,.14-.119.7.7,0,0,0,.093-.8l-1.158-2.142-.283-.521a12.485,12.485,0,0,0,1-1.451,12.664,12.664,0,0,0,1-2.127.694.694,0,0,1,.648-.464l2.744-.028a.72.72,0,0,0,.71-.667l.18-2.374.05-.68a.729.729,0,0,0-.593-.774l-2.577-.48a.693.693,0,0,1-.572-.584,12.52,12.52,0,0,0-.683-2.584c-.022-.075-.049-.141-.078-.211a.345.345,0,0,1-.024-.072.709.709,0,0,1,.236-.752l2.387-1.975a.555.555,0,0,0,.075-.071.723.723,0,0,0,.067-.872l-1.7-2.574a.719.719,0,0,0-.942-.236l-2.988,1.621a.7.7,0,0,1-.784-.077,12.674,12.674,0,0,0-1.587-1.1q-.451-.265-.914-.488a.732.732,0,0,1-.413-.651l-.038-3.274a.7.7,0,0,0-.646-.69l-3.073-.227a.731.731,0,0,0-.775.6l-.454,2.44a.718.718,0,0,1-.664.588,12.555,12.555,0,0,0-3.789.795.713.713,0,0,1-.811-.213l-1.779-2.152a.738.738,0,0,0-.971-.146l-2.565,1.688a.7.7,0,0,0-.232.928l.066.126,1.346,2.487a.721.721,0,0,1-.09.818l0,0a12.484,12.484,0,0,0-1.286,1.8c-.2.346-.385.7-.555,1.055a.707.707,0,0,1-.636.414l-2.785.028a.732.732,0,0,0-.724.676l-.228,3.06a.8.8,0,0,0,.026.25.729.729,0,0,0,.558.51l2.059.378a.728.728,0,0,1,.544.464.782.782,0,0,1,.041.2,12.513,12.513,0,0,0,1.251,4.788.7.7,0,0,1-.1.768.756.756,0,0,1-.087.085l-1.935,1.6a.717.717,0,0,0-.143.943l.039.06,1.651,2.51a.729.729,0,0,0,.955.235m15.757-16.3a8.354,8.354,0,0,1,.969,1.222,6.583,6.583,0,0,1,.9,3.471c-.008.111-.018.22-.029.33a6.8,6.8,0,0,1-13.565.069,4.467,4.467,0,0,1,0-.66,7.745,7.745,0,0,1,.635-2.552,6.751,6.751,0,0,1,11.091-1.879" transform="translate(-2011.817 -569.86)" fill="#aec3ff"/>
        <path id="Trazado_183718" data-name="Trazado 183718" d="M308.974,743.922l3.142-1.7a.792.792,0,0,1,.825.051q.465.328.964.622a13.275,13.275,0,0,0,1.893.928.782.782,0,0,1,.5.725l.042,3.735a.767.767,0,0,0,.715.76l3.4.257a.758.758,0,0,0,.8-.615l.627-3.381a.762.762,0,0,1,.667-.626,13.817,13.817,0,0,0,4.177-1.225.786.786,0,0,1,.934.211l1.33,1.615a.8.8,0,0,0,1.038.158l2.828-1.87a.692.692,0,0,0,.154-.131.763.763,0,0,0,.1-.881L331.85,740.2l-.311-.572a13.63,13.63,0,0,0,1.094-1.591,13.854,13.854,0,0,0,1.1-2.332.762.762,0,0,1,.711-.509l3.008-.03a.789.789,0,0,0,.779-.732l.2-2.6.054-.746a.8.8,0,0,0-.65-.848L335,729.713a.761.761,0,0,1-.627-.641,13.707,13.707,0,0,0-.748-2.834,2.393,2.393,0,0,0-.086-.231.418.418,0,0,1-.026-.079.78.78,0,0,1,.259-.825l2.618-2.165a.586.586,0,0,0,.082-.078.793.793,0,0,0,.074-.956l-1.859-2.822a.789.789,0,0,0-1.033-.259l-3.276,1.777a.762.762,0,0,1-.859-.085,13.945,13.945,0,0,0-1.74-1.209q-.494-.291-1-.535a.8.8,0,0,1-.453-.714l-.042-3.589a.767.767,0,0,0-.709-.756l-3.368-.249a.8.8,0,0,0-.85.653l-.5,2.675a.787.787,0,0,1-.727.644,13.769,13.769,0,0,0-4.155.872.782.782,0,0,1-.889-.234l-1.95-2.36a.809.809,0,0,0-1.064-.16l-2.813,1.851a.773.773,0,0,0-.255,1.017l.073.138,1.476,2.728a.791.791,0,0,1-.1.9l0,0a13.7,13.7,0,0,0-1.411,1.975c-.223.38-.423.765-.608,1.158a.775.775,0,0,1-.7.454l-3.054.031a.8.8,0,0,0-.793.741l-.25,3.354a.867.867,0,0,0,.028.275.8.8,0,0,0,.612.559l2.258.415a.8.8,0,0,1,.6.509.841.841,0,0,1,.045.216,13.724,13.724,0,0,0,1.372,5.25.772.772,0,0,1-.106.842.783.783,0,0,1-.1.093l-2.121,1.752a.785.785,0,0,0-.156,1.035l.043.066,1.81,2.752a.8.8,0,0,0,1.047.259m17.277-17.87a9.176,9.176,0,0,1,1.062,1.34,7.214,7.214,0,0,1,.986,3.806c-.008.122-.02.242-.032.361a7.455,7.455,0,0,1-14.874.076,4.841,4.841,0,0,1,0-.724,8.481,8.481,0,0,1,.7-2.8,7.4,7.4,0,0,1,12.16-2.061" transform="translate(-239.212 -562.071)" fill="#dfebfd"/>
        <path id="Trazado_183719" data-name="Trazado 183719" d="M1605.081,278.574l8.074-5.779a2.2,2.2,0,0,1,2.292-.144q1.4.744,2.873,1.381a36.934,36.934,0,0,0,5.538,1.905,2.171,2.171,0,0,1,1.631,1.825l1.4,10.282a2.132,2.132,0,0,0,2.235,1.849l9.476-.467a2.107,2.107,0,0,0,1.995-1.971l.564-9.539a2.116,2.116,0,0,1,1.622-1.955,38.375,38.375,0,0,0,11.094-4.819,2.185,2.185,0,0,1,2.65.258l4.224,3.994a2.207,2.207,0,0,0,2.917.078l7.152-6.13a1.936,1.936,0,0,0,.379-.414,2.117,2.117,0,0,0-.022-2.464l-4.31-6.037-1.053-1.469a37.981,37.981,0,0,0,2.468-4.764,38.509,38.509,0,0,0,2.217-6.808,2.116,2.116,0,0,1,1.785-1.649l8.284-1.122a2.194,2.194,0,0,0,1.9-2.286l-.355-7.245L1682,233.01a2.222,2.222,0,0,0-2.084-2.115l-7.971-.477a2.113,2.113,0,0,1-1.951-1.55,38.114,38.114,0,0,0-3.042-7.555,6.789,6.789,0,0,0-.316-.608,1.163,1.163,0,0,1-.1-.208,2.166,2.166,0,0,1,.43-2.363l6.47-6.873a1.6,1.6,0,0,0,.2-.244,2.2,2.2,0,0,0-.126-2.662l-6.1-7.139a2.191,2.191,0,0,0-2.937-.358l-8.419,6.031a2.118,2.118,0,0,1-2.4.062,38.733,38.733,0,0,0-5.216-2.734q-1.463-.631-2.947-1.129a2.233,2.233,0,0,1-1.5-1.813l-1.353-9.882a2.13,2.13,0,0,0-2.215-1.841l-9.374.475a2.226,2.226,0,0,0-2.119,2.095l-.448,7.547a2.187,2.187,0,0,1-1.783,2.027,38.263,38.263,0,0,0-11.154,3.837,2.173,2.173,0,0,1-2.533-.338l-6.191-5.833a2.248,2.248,0,0,0-2.989-.074l-7.116,6.075a2.149,2.149,0,0,0-.351,2.893l.248.355,5.01,7.012a2.2,2.2,0,0,1,.04,2.507l0,.01a38.061,38.061,0,0,0-3.208,5.932c-.485,1.124-.9,2.254-1.279,3.4a2.155,2.155,0,0,1-1.765,1.492l-8.409,1.139a2.23,2.23,0,0,0-1.932,2.317l.468,9.335a2.4,2.4,0,0,0,.173.747,2.22,2.22,0,0,0,1.88,1.33l6.368.364a2.217,2.217,0,0,1,1.819,1.2,2.376,2.376,0,0,1,.2.581,38.118,38.118,0,0,0,5.594,14,2.146,2.146,0,0,1,0,2.359,2.208,2.208,0,0,1-.231.29l-5.243,5.561a2.182,2.182,0,0,0-.074,2.906l.14.167,5.94,6.964a2.221,2.221,0,0,0,2.975.351m41.47-55.231a25.5,25.5,0,0,1,3.39,3.327,20.047,20.047,0,0,1,4.033,10.153c.019.339.029.673.038,1.007.3,20.356-23.534,29.577-37.028,13.949a20.79,20.79,0,0,1-3.955-8.61,13.518,13.518,0,0,1-.249-1.995,23.571,23.571,0,0,1,.954-7.955,20.569,20.569,0,0,1,32.817-9.878" transform="translate(-1248.737 -149.328)" fill="#dfebfd"/>
        <path id="Trazado_183720" data-name="Trazado 183720" d="M1272.078,753.428,1260.7,888.676s-1.192,8.2,4.906,8.213c10.027.024,49.906,0,49.906,0s-7.547-1.707-7.455-5.547c.108-4.526,13.295-139.194,13.295-139.194Z" transform="translate(-993.122 -592.55)" fill="#759be0"/>
        <path id="Trazado_183721" data-name="Trazado 183721" d="M1330.921,885.324c-1.972.006-40.062.125-49.827,0-4.256-.053-5-3.784-5.037-6.2a12.072,12.072,0,0,1,.129-2.013l.3-3.515.754-8.959.666-7.916.856-10.172.72-8.585,8.082-96.1,49.279-1.279s-5.554,56.358-9.483,97.382c-.439,4.571-.856,8.953-1.241,13.045q-.188,1.959-.362,3.827c-.364,3.881-.7,7.446-.987,10.593-.153,1.659-.294,3.2-.421,4.612-.5,5.532-.795,9.065-.8,9.737a5.664,5.664,0,0,0,.1,1.095c.809,4.31,6.539,4.452,7.279,4.452" transform="translate(-1005.291 -583.439)" fill="#aec3ff"/>
        <path id="Trazado_183722" data-name="Trazado 183722" d="M750.659,411.335l27.707,111.292,3.794,15.242,12.9,51.836h239.744l-47.563-178.37Z" transform="translate(-591.377 -324.053)" fill="#aec3ff"/>
        <path id="Trazado_183723" data-name="Trazado 183723" d="M736.4,411.334l-3.84,1.28L775.7,593.577l5.105-3.871Z" transform="translate(-577.119 -324.053)" fill="#759be0"/>
        <path id="Trazado_183724" data-name="Trazado 183724" d="M935.87,1255.831h238.268l6.58-3.871H940.975Z" transform="translate(-737.289 -986.307)" fill="#759be0"/>
        <rect id="Rectángulo_37231" data-name="Rectángulo 37231" width="51.589" height="2.452" transform="translate(282.254 301.939)" fill="#aec3ff"/>
        <g id="Grupo_142305" data-name="Grupo 142305" transform="translate(271.945 269.523)" opacity="0.7">
          <g id="Grupo_142304" data-name="Grupo 142304">
            <g id="Grupo_142303" data-name="Grupo 142303" clip-path="url(#clip-path-3)">
              <path id="Trazado_183725" data-name="Trazado 183725" d="M1330.4,1270.2l-.266,1.874-48.516,9.8.666-7.916.317-3.76Z" transform="translate(-1281.62 -1270.199)" fill="#759be0"/>
            </g>
          </g>
        </g>
        <path id="Trazado_183726" data-name="Trazado 183726" d="M1330.927,1365.972c-1.972.006-40.062.125-49.827,0-4.256-.053-5-3.784-5.037-6.2l48.287-9.085c-.5,5.532-.795,9.065-.8,9.737a5.654,5.654,0,0,0,.1,1.095c.809,4.31,6.539,4.452,7.279,4.452" transform="translate(-1005.297 -1064.087)" fill="#94b0ed"/>
        <path id="Trazado_183727" data-name="Trazado 183727" d="M1017.333,1023.39,912.017,1059.5l-12.9-51.837Z" transform="translate(-708.331 -793.847)" fill="#94b0ed"/>
        <path id="Trazado_183728" data-name="Trazado 183728" d="M750.657,411.334H987.242l38.1,143.354H786.358Z" transform="translate(-591.376 -324.053)" fill="#d2e0ff"/>
        <g id="Grupo_142308" data-name="Grupo 142308" transform="translate(168.816 92.375)" opacity="0.5">
          <g id="Grupo_142307" data-name="Grupo 142307">
            <g id="Grupo_142306" data-name="Grupo 142306" clip-path="url(#clip-path-4)">
              <path id="Trazado_183729" data-name="Trazado 183729" d="M795.594,435.336l33.985,130.587h219.7l-34.359-129.084Z" transform="translate(-795.594 -435.337)" fill="#aec3ff"/>
            </g>
          </g>
        </g>
        <rect id="Rectángulo_37234" data-name="Rectángulo 37234" width="83.102" height="52.434" transform="translate(248.345 170.522)" fill="#ed7d2b"/>
        <rect id="Rectángulo_37235" data-name="Rectángulo 37235" width="83.1" height="52.433" transform="translate(289.897 170.524)" fill="#f99746"/>
        <path id="Trazado_183730" data-name="Trazado 183730" d="M1212.131,811.375l-17.517,17.517h-23.985V803.629h41.5Z" transform="translate(-922.235 -633.107)" fill="#e06d20"/>
        <path id="Trazado_183731" data-name="Trazado 183731" d="M1101.033,803.629l-18.683,18.029h41.577l18.657-18.029Z" transform="translate(-852.687 -633.107)" fill="#f99746"/>
        <path id="Trazado_183732" data-name="Trazado 183732" d="M1449.319,805.494l-83.1-1.858v6.643h0v1.086l15.451,16.941h67.65V811.442l-.428-.5h.429Z" transform="translate(-1076.322 -633.112)" fill="#ed7d2b"/>
        <path id="Trazado_183733" data-name="Trazado 183733" d="M1366.219,803.629l16.443,18.029h82l-15.344-18.029Z" transform="translate(-1076.323 -633.107)" fill="#f99746"/>
        <path id="Trazado_183734" data-name="Trazado 183734" d="M600.055,748.983s.578-6.3-6.458-6.3a8.265,8.265,0,0,1,3.235,1.735s-4.487-2.634-9.371,1.414-1.849,14.2-3.334,16.128-7.268,2.313-6.561,8.546,18.353,14.039,17.22,19.2c0,0,6.915-10.166,1.971-14.805a9.164,9.164,0,0,1,2.656,4.969s.654-5.269-2.7-6.954c-2.967-1.491-5.4-6.946-5.14-7.92s8.482-16.011,8.482-16.011" transform="translate(-454.966 -585.095)" fill="#2c3a64"/>
        <path id="Trazado_183735" data-name="Trazado 183735" d="M623.455,914.846s5.256,21.745,10.416,26.092c3.1,2.613,12.322,8.609,12.322,8.609l-3.836,1.392s-12.79-4.319-15.653-7.686S616,923.016,616,923.016Z" transform="translate(-485.292 -720.725)" fill="#ffb27d"/>
        <path id="Trazado_183736" data-name="Trazado 183736" d="M674.657,1084.331l-1.235-3.059a8.676,8.676,0,0,0-8.045-5.427H642.591v76.186H736.85V1090.3H683.51a9.548,9.548,0,0,1-8.853-5.972" transform="translate(-506.24 -847.562)" fill="#f99746"/>
        <path id="Trazado_183737" data-name="Trazado 183737" d="M709.6,1242.468v-5.492l19.262-8.437v5.611l-13.451,5.532,13.451,5.532v5.691Z" transform="translate(-559.028 -967.856)" fill="#fff"/>
        <path id="Trazado_183738" data-name="Trazado 183738" d="M829.253,1197.592h5.134l-17.63,36.852h-5.134Z" transform="translate(-639.406 -943.475)" fill="#fff"/>
        <path id="Trazado_183739" data-name="Trazado 183739" d="M948.293,1236.976v5.492l-19.262,8.437v-5.611l13.451-5.532-13.451-5.531v-5.691Z" transform="translate(-731.901 -967.856)" fill="#fff"/>
        <path id="Trazado_183740" data-name="Trazado 183740" d="M406.155,1018.566c.046.083.1.169.145.255,1.15,2,3.789,6.9,6.695,12.258,1.375,2.543,2.814,5.191,4.18,7.682,2.353,4.3,4.493,8.128,5.742,10.152,1.27,2.057,2.2,3.5,2.583,4.081l0,0a.957.957,0,0,1,.123.6,31.212,31.212,0,0,0,.083,5.391,41.358,41.358,0,0,0,13.513,26.786l3.5.516s-4.948-18.332-6.406-28.7a19.927,19.927,0,0,1-.268-4.109,42.919,42.919,0,0,0-1.128-11.216,251.345,251.345,0,0,0-7.15-25.962c-.163-.507-5.08-18.295-5.08-18.295-4.127,3.607-19.181,5.1-19.181,5.1s-2.552,6.206,2.651,15.459" transform="translate(-317.392 -786.243)" fill="#2f539b"/>
        <path id="Trazado_183741" data-name="Trazado 183741" d="M570.738,1404.741H556.144a8.012,8.012,0,0,1,.412-3.912c.73-1.619,1.771-1.671.133-4.209.927.955,3.908,1.35,6.018,1.066.259.419,1.667,3.231,2.53,3.851.954.685,5.206.441,5.5,3.2" transform="translate(-438.074 -1100.273)" fill="#233862"/>
        <path id="Trazado_183742" data-name="Trazado 183742" d="M418.321,1062.935c.046.083.1.169.145.255,1.15,2,7.371,13.489,10.277,18.849-3.367-13.854-1.025-27.709-1.025-27.709Z" transform="translate(-329.558 -830.612)" fill="#233862"/>
        <path id="Trazado_183743" data-name="Trazado 183743" d="M632.14,767.81c.1-.383-8.335,3.81-8.763,4.284-3.954,4.386-2.826,10.109-.564,10.164,1.451.035,1.17,2.448,1.17,2.448l16.164-6.838s-1.946-11.349-8.007-10.058" transform="translate(-489.042 -604.808)" fill="#2c3a64"/>
        <path id="Trazado_183744" data-name="Trazado 183744" d="M617.214,899.456s2.46,4.914,2.153,8.9c0,0-2.966,4.682-10.658,5.867,0,0,6.614-14.773,8.506-14.769" transform="translate(-479.547 -708.601)" fill="#f99746"/>
        <path id="Trazado_183745" data-name="Trazado 183745" d="M335.937,992.886l.049-2.729c-5.438.686-18.75-6.5-18.75-6.5s-5.689,3.784-6.468,14.59c-.38,5.275-2.785,27.581-3.051,34.242-.1,2.414-.129,4.137-.14,4.826a.011.011,0,0,1,0,.007.946.946,0,0,1-.231.562,31.225,31.225,0,0,0-2.947,4.517c-8.3,15.439-3.959,36.417-3.959,36.417l1.927-.49s7.017-21.748,11.6-31.155a19.667,19.667,0,0,1,2.077-3.555,42.906,42.906,0,0,0,5.334-9.931c3.388-8.092,14.556-40.8,14.556-40.8" transform="translate(-235.797 -774.936)" fill="#2f539b"/>
        <path id="Trazado_183746" data-name="Trazado 183746" d="M304.863,1404.351H290.27a8.013,8.013,0,0,1,.412-3.911c.73-1.619,1.874-2.355,1.6-4.314a5.256,5.256,0,0,0,4.548,1.74,16.029,16.029,0,0,0,2.532,3.282c.954.685,5.206.441,5.5,3.2" transform="translate(-228.615 -1099.882)" fill="#233862"/>
        <path id="Trazado_183747" data-name="Trazado 183747" d="M428.386,886.651c-1.96.334.32,1.893-2.376,2.185-3.837.419-7.8.706-9.875,1.533a2.23,2.23,0,0,0-1.421,1.152c-.9,2.705-6.6,7.353-6.6,7.353-25.412-1.157-27.048-12.482-27.048-12.482,16.492-16.018,30.523-24.748,42.119-25.829,2.822-.263,6.626.09,8.411.885,4.056,1.806,6.278,7.3,6.278,7.3s-2.043,16.632-9.491,17.9" transform="translate(-300.21 -677.893)" fill="#f99746"/>
        <path id="Trazado_183748" data-name="Trazado 183748" d="M555.9,917.372c-3.837.419-7.8.706-9.875,1.533a40.468,40.468,0,0,1,5.133-22.207s3.9,15.877,4.742,20.673" transform="translate(-430.099 -706.429)" fill="#ed7d2b"/>
        <path id="Trazado_183749" data-name="Trazado 183749" d="M564.943,886.546s-9.65-.527-11.365,5.531,3.217,30.242,4.28,32.738c1.935,4.544,11.354,17.513,11.354,17.513l3.464-1.055S566.4,921.46,564.993,919.5c-2.2-3.078,2.838-30.318-.051-32.954" transform="translate(-435.832 -698.421)" fill="#ffb27d"/>
        <path id="Trazado_183750" data-name="Trazado 183750" d="M631.028,1142.94a5.453,5.453,0,0,0,.828,2.329c.649.793,2.538,2.713,2.571,3.836,0,0-.1.5-.5.407s-1.811-1.484-2.533-1.384a13.986,13.986,0,0,0,.767,2.885c.382.634.078,3.323-.151,3.87s-3.045-2.938-4.2-4.494-.018-7.872-.018-7.872Z" transform="translate(-494.184 -900.088)" fill="#ffb27d"/>
        <path id="Trazado_183751" data-name="Trazado 183751" d="M545.942,893.535c.025.142,9.132,1.675,14.828-1.216,0,0,4.758-14.907-2.042-14.194s-10.827,2.855-11,6.111a62.636,62.636,0,0,1-1.788,9.3" transform="translate(-430.099 -691.777)" fill="#f99746"/>
        <path id="Trazado_183752" data-name="Trazado 183752" d="M617.993,848.375c.725,2.272,3.143,8.746,6.495,6.255-.114-.483.591-1.888,1.421-3.315,1.061-1.824,2.325-3.687,2.325-3.687l-5.462-4.785-.326-.286a13.918,13.918,0,0,1-4.063,4.613,1.09,1.09,0,0,0-.39,1.206" transform="translate(-486.821 -663.774)" fill="#ffb27d"/>
        <path id="Trazado_183753" data-name="Trazado 183753" d="M645.795,848.69s-1.263,1.86-2.324,3.685c-3.395-2.093-3.4-6.3-3.137-8.473Z" transform="translate(-504.383 -664.835)" fill="#ed985f"/>
        <path id="Trazado_183754" data-name="Trazado 183754" d="M645.105,814.852s-8.243-4.587-5.307-9.676,3.849-9.109,9.235-6.4,5.28,5.24,4.714,7.177-6.422,9.956-8.642,8.895" transform="translate(-503.542 -628.599)" fill="#ffb27d"/>
        <path id="Trazado_183755" data-name="Trazado 183755" d="M651.923,800.429c-.378-2.26-1.525-2.475-2.326-2.324a6.592,6.592,0,0,0-8.017-3.069,11.225,11.225,0,0,1-6.5,3.9s.957,1.78,4.9,2.881a6.735,6.735,0,0,0,3.888-.31,22,22,0,0,1-5.594,2.109c5.193.475,10.135-4.273,10.647-4.781a7.39,7.39,0,0,1,.408,3.4c-.342,1.531-1.7,4.3-.871,4.661,0,0,4.029-3.082,3.463-6.471" transform="translate(-500.325 -626.039)" fill="#2c3a64"/>
        <path id="Trazado_183756" data-name="Trazado 183756" d="M760.894,1077.851s-2.3,1.725-.567,2.853,4.828,1.432,4.841.693c.043-2.484-1.2-4.25-4.275-3.546" transform="translate(-598.485 -849.02)" fill="#ffb27d"/>
        <path id="Trazado_183757" data-name="Trazado 183757" d="M591.735,1435.925H.634a.636.636,0,0,1-.634-.634v-.134a.636.636,0,0,1,.634-.634h591.1a.636.636,0,0,1,.634.634v.134a.636.636,0,0,1-.634.634" transform="translate(0 -1130.132)" fill="#2e3552"/>
        <path id="Trazado_183758" data-name="Trazado 183758" d="M922.033,624.834c-.268-1.1.216-1.971,1.24-1.973a2.408,2.408,0,0,1,2.183,1.967c.268,1.1-.211,1.971-1.24,1.973a2.4,2.4,0,0,1-2.183-1.967m2.553,0c-.167-.691-.635-1.213-1.141-1.212s-.714.508-.543,1.215.63,1.213,1.141,1.212.712-.513.543-1.215" transform="translate(-726.331 -490.696)" fill="#f99746"/>
        <path id="Trazado_183759" data-name="Trazado 183759" d="M848.974,494.079l-.632.164-.342-.686,1.027-.328h.578l.929,3.837H849.7Z" transform="translate(-668.064 -388.57)" fill="#94b0ed"/>
        <path id="Trazado_183760" data-name="Trazado 183760" d="M866.469,494.993c-.268-1.1.216-1.971,1.24-1.973a2.409,2.409,0,0,1,2.183,1.967c.267,1.1-.211,1.971-1.24,1.973a2.4,2.4,0,0,1-2.183-1.967m2.553,0c-.167-.691-.635-1.213-1.141-1.212s-.714.508-.542,1.215.629,1.213,1.141,1.212.713-.513.543-1.215" transform="translate(-682.557 -388.406)" fill="#94b0ed"/>
        <path id="Trazado_183761" data-name="Trazado 183761" d="M1180.859,493.475l-.632.164-.342-.686,1.027-.328h.578l.929,3.837h-.836Z" transform="translate(-929.527 -388.095)" fill="#94b0ed"/>
        <path id="Trazado_183762" data-name="Trazado 183762" d="M1198.354,494.39c-.267-1.1.216-1.971,1.24-1.973a2.408,2.408,0,0,1,2.183,1.967c.268,1.1-.211,1.971-1.24,1.973a2.4,2.4,0,0,1-2.183-1.967m2.553,0c-.167-.691-.635-1.213-1.141-1.212s-.714.508-.543,1.215.63,1.213,1.141,1.212.713-.513.543-1.215" transform="translate(-944.02 -387.931)" fill="#94b0ed"/>
        <path id="Trazado_183763" data-name="Trazado 183763" d="M1222.468,494.349c-.267-1.1.216-1.971,1.24-1.973a2.408,2.408,0,0,1,2.182,1.967c.267,1.1-.211,1.971-1.24,1.973a2.4,2.4,0,0,1-2.182-1.967m2.553,0c-.168-.691-.635-1.213-1.141-1.212s-.714.508-.543,1.215.63,1.213,1.141,1.212.712-.513.543-1.215" transform="translate(-963.017 -387.898)" fill="#94b0ed"/>
        <path id="Trazado_183764" data-name="Trazado 183764" d="M1345.8,494.39c-.268-1.1.216-1.971,1.239-1.973a2.408,2.408,0,0,1,2.183,1.967c.267,1.1-.211,1.971-1.24,1.973a2.4,2.4,0,0,1-2.182-1.967m2.553,0c-.167-.691-.635-1.213-1.141-1.212s-.714.508-.542,1.215.63,1.213,1.141,1.212.712-.513.542-1.215" transform="translate(-1060.181 -387.931)" fill="#94b0ed"/>
        <path id="Trazado_183765" data-name="Trazado 183765" d="M1369.916,494.349c-.268-1.1.216-1.971,1.24-1.973a2.408,2.408,0,0,1,2.183,1.967c.268,1.1-.211,1.971-1.24,1.973a2.4,2.4,0,0,1-2.183-1.967m2.553,0c-.167-.691-.635-1.213-1.141-1.212s-.714.508-.542,1.215.63,1.213,1.141,1.212.712-.513.542-1.215" transform="translate(-1079.178 -387.898)" fill="#94b0ed"/>
        <path id="Trazado_183766" data-name="Trazado 183766" d="M1394.031,494.308c-.267-1.105.216-1.971,1.24-1.973a2.408,2.408,0,0,1,2.183,1.967c.267,1.1-.211,1.971-1.24,1.973a2.4,2.4,0,0,1-2.183-1.967m2.553,0c-.167-.691-.635-1.213-1.141-1.212s-.714.508-.542,1.215.63,1.213,1.141,1.212.713-.513.543-1.215" transform="translate(-1098.176 -387.866)" fill="#94b0ed"/>
        <path id="Trazado_183767" data-name="Trazado 183767" d="M1561.684,493.9c-.268-1.1.216-1.971,1.24-1.973a2.409,2.409,0,0,1,2.183,1.967c.267,1.1-.211,1.971-1.24,1.973a2.4,2.4,0,0,1-2.183-1.967m2.553,0c-.167-.691-.635-1.213-1.141-1.212s-.714.508-.542,1.215.629,1.213,1.141,1.212.713-.513.543-1.215" transform="translate(-1230.255 -387.544)" fill="#94b0ed"/>
        <path id="Trazado_183768" data-name="Trazado 183768" d="M1584.762,493.86c-.267-1.1.216-1.971,1.24-1.973a2.408,2.408,0,0,1,2.183,1.967c.268,1.1-.211,1.971-1.24,1.973a2.4,2.4,0,0,1-2.183-1.967m2.553,0c-.167-.691-.635-1.213-1.141-1.212s-.714.508-.542,1.215.629,1.213,1.141,1.212.712-.513.543-1.215" transform="translate(-1248.436 -387.513)" fill="#94b0ed"/>
        <path id="Trazado_183769" data-name="Trazado 183769" d="M1609.864,493.818c-.268-1.1.216-1.971,1.239-1.973a2.408,2.408,0,0,1,2.182,1.967c.267,1.1-.211,1.971-1.24,1.973a2.4,2.4,0,0,1-2.182-1.967m2.553,0c-.168-.691-.635-1.213-1.141-1.212s-.714.508-.542,1.215.63,1.213,1.141,1.212.713-.513.543-1.215" transform="translate(-1268.211 -387.48)" fill="#94b0ed"/>
        <path id="Trazado_183770" data-name="Trazado 183770" d="M1650.86,493.749c-.268-1.1.216-1.971,1.24-1.973a2.408,2.408,0,0,1,2.183,1.967c.267,1.1-.211,1.971-1.24,1.973a2.4,2.4,0,0,1-2.183-1.967m2.553,0c-.167-.691-.635-1.213-1.141-1.212s-.714.508-.542,1.215.63,1.213,1.141,1.212.712-.513.543-1.215" transform="translate(-1300.508 -387.426)" fill="#94b0ed"/>
        <path id="Trazado_183771" data-name="Trazado 183771" d="M1673.479,492.766l-.632.164-.342-.686,1.027-.328h.578l.929,3.837h-.836Z" transform="translate(-1317.618 -387.536)" fill="#94b0ed"/>
        <path id="Trazado_183772" data-name="Trazado 183772" d="M1690.974,493.681c-.267-1.105.216-1.971,1.24-1.973a2.408,2.408,0,0,1,2.182,1.967c.267,1.1-.211,1.971-1.24,1.973a2.4,2.4,0,0,1-2.183-1.967m2.553,0c-.167-.691-.635-1.213-1.141-1.212s-.714.508-.543,1.215.63,1.213,1.141,1.212.713-.513.543-1.215" transform="translate(-1332.111 -387.372)" fill="#94b0ed"/>
        <path id="Trazado_183773" data-name="Trazado 183773" d="M1731.159,493.573c-.268-1.1.216-1.971,1.24-1.973a2.408,2.408,0,0,1,2.182,1.967c.267,1.1-.211,1.971-1.24,1.973a2.4,2.4,0,0,1-2.183-1.967m2.553,0c-.167-.691-.635-1.213-1.141-1.212s-.714.508-.543,1.215.63,1.213,1.141,1.212.713-.513.543-1.215" transform="translate(-1363.769 -387.287)" fill="#94b0ed"/>
        <path id="Trazado_183774" data-name="Trazado 183774" d="M1035.716,533.806c-.267-1.1.216-1.971,1.24-1.973a2.408,2.408,0,0,1,2.183,1.967c.268,1.1-.211,1.971-1.24,1.973a2.4,2.4,0,0,1-2.183-1.967m2.553,0c-.167-.691-.635-1.213-1.141-1.212s-.714.508-.542,1.215.629,1.213,1.141,1.212.713-.513.542-1.215" transform="translate(-815.892 -418.983)" fill="#94b0ed"/>
        <path id="Trazado_183775" data-name="Trazado 183775" d="M1059.832,533.766c-.267-1.1.216-1.971,1.24-1.973a2.408,2.408,0,0,1,2.182,1.967c.267,1.1-.211,1.971-1.24,1.973a2.4,2.4,0,0,1-2.182-1.967m2.553,0c-.167-.691-.635-1.213-1.141-1.212s-.714.508-.542,1.215.63,1.213,1.141,1.212.713-.513.542-1.215" transform="translate(-834.891 -418.952)" fill="#94b0ed"/>
        <path id="Trazado_183776" data-name="Trazado 183776" d="M1660.323,532.831c-.268-1.1.216-1.971,1.239-1.973a2.408,2.408,0,0,1,2.183,1.967c.267,1.1-.211,1.971-1.24,1.973a2.4,2.4,0,0,1-2.182-1.967m2.553,0c-.168-.691-.635-1.213-1.141-1.212s-.714.508-.542,1.215.63,1.213,1.141,1.212.713-.513.542-1.215" transform="translate(-1307.963 -418.215)" fill="#94b0ed"/>
        <path id="Trazado_183777" data-name="Trazado 183777" d="M1682.942,531.848l-.632.164-.342-.685,1.027-.328h.578l.929,3.837-.836,0Z" transform="translate(-1325.073 -418.325)" fill="#94b0ed"/>
        <path id="Trazado_183778" data-name="Trazado 183778" d="M1700.437,532.763c-.268-1.1.216-1.971,1.24-1.973a2.408,2.408,0,0,1,2.183,1.967c.268,1.1-.211,1.971-1.24,1.973a2.4,2.4,0,0,1-2.182-1.967m2.553,0c-.167-.691-.635-1.213-1.141-1.212s-.714.508-.543,1.215.63,1.213,1.141,1.212.713-.513.542-1.215" transform="translate(-1339.566 -418.161)" fill="#94b0ed"/>
        <path id="Trazado_183779" data-name="Trazado 183779" d="M1788.854,532.574c-.268-1.1.216-1.971,1.24-1.973a2.409,2.409,0,0,1,2.183,1.967c.267,1.1-.211,1.971-1.24,1.973a2.4,2.4,0,0,1-2.182-1.967m2.553,0c-.167-.691-.635-1.213-1.141-1.212s-.714.508-.543,1.215.63,1.213,1.141,1.212.713-.513.543-1.215" transform="translate(-1409.222 -418.013)" fill="#94b0ed"/>
        <path id="Trazado_183780" data-name="Trazado 183780" d="M1811.473,531.592l-.632.164-.342-.686,1.027-.328h.578l.929,3.837h-.836Z" transform="translate(-1426.331 -418.123)" fill="#94b0ed"/>
        <path id="Trazado_183781" data-name="Trazado 183781" d="M1015.429,744.808c-.268-1.105.216-1.971,1.24-1.973a2.408,2.408,0,0,1,2.183,1.967c.267,1.1-.211,1.971-1.24,1.973a2.4,2.4,0,0,1-2.183-1.967m2.553,0c-.167-.691-.635-1.213-1.141-1.212s-.714.508-.543,1.215.63,1.213,1.141,1.212.713-.513.543-1.215" transform="translate(-799.909 -585.213)" fill="#94b0ed"/>
        <path id="Trazado_183782" data-name="Trazado 183782" d="M1039.544,744.768c-.268-1.1.216-1.971,1.24-1.973a2.408,2.408,0,0,1,2.183,1.967c.267,1.1-.211,1.971-1.24,1.973a2.4,2.4,0,0,1-2.182-1.967m2.553,0c-.167-.691-.635-1.213-1.141-1.212s-.714.508-.543,1.215.63,1.213,1.141,1.212.713-.513.543-1.215" transform="translate(-818.907 -585.181)" fill="#94b0ed"/>
        <path id="Trazado_183783" data-name="Trazado 183783" d="M1062.164,743.786l-.632.164-.342-.685,1.027-.328h.578l.929,3.837h-.836Z" transform="translate(-836.017 -585.292)" fill="#94b0ed"/>
        <path id="Trazado_183784" data-name="Trazado 183784" d="M1103.774,744.66c-.267-1.1.216-1.971,1.24-1.973a2.408,2.408,0,0,1,2.183,1.967c.267,1.1-.211,1.971-1.24,1.973a2.4,2.4,0,0,1-2.183-1.967m2.553,0c-.167-.691-.635-1.213-1.141-1.212s-.714.508-.542,1.215.63,1.213,1.141,1.212.713-.513.543-1.215" transform="translate(-869.508 -585.096)" fill="#94b0ed"/>
        <path id="Trazado_183785" data-name="Trazado 183785" d="M1127.889,744.619c-.267-1.1.216-1.971,1.24-1.973a2.408,2.408,0,0,1,2.183,1.967c.267,1.1-.211,1.971-1.24,1.973a2.4,2.4,0,0,1-2.183-1.967m2.553,0c-.168-.691-.635-1.213-1.141-1.212s-.714.508-.542,1.215.63,1.213,1.141,1.212.713-.513.543-1.215" transform="translate(-888.507 -585.064)" fill="#94b0ed"/>
        <path id="Trazado_183786" data-name="Trazado 183786" d="M1152.005,744.579c-.267-1.1.216-1.971,1.24-1.973a2.408,2.408,0,0,1,2.183,1.967c.267,1.1-.211,1.971-1.24,1.973a2.4,2.4,0,0,1-2.183-1.967m2.553,0c-.167-.691-.635-1.213-1.141-1.212s-.714.508-.542,1.215.63,1.213,1.141,1.212.713-.513.542-1.215" transform="translate(-907.505 -585.032)" fill="#94b0ed"/>
        <path id="Trazado_183787" data-name="Trazado 183787" d="M1453.064,744.808c-.268-1.105.216-1.971,1.24-1.973a2.408,2.408,0,0,1,2.183,1.967c.267,1.1-.211,1.971-1.24,1.973a2.4,2.4,0,0,1-2.182-1.967m2.553,0c-.167-.691-.635-1.213-1.141-1.212s-.714.508-.543,1.215.63,1.213,1.141,1.212.713-.513.543-1.215" transform="translate(-1144.683 -585.213)" fill="#94b0ed"/>
        <path id="Trazado_183788" data-name="Trazado 183788" d="M1477.178,744.768c-.267-1.1.216-1.971,1.24-1.973a2.408,2.408,0,0,1,2.183,1.967c.268,1.1-.211,1.971-1.24,1.973a2.4,2.4,0,0,1-2.183-1.967m2.553,0c-.167-.691-.635-1.213-1.141-1.212s-.714.508-.542,1.215.629,1.213,1.141,1.212.713-.513.542-1.215" transform="translate(-1163.68 -585.181)" fill="#94b0ed"/>
        <path id="Trazado_183789" data-name="Trazado 183789" d="M1499.8,743.786l-.632.164-.342-.685,1.027-.328h.578l.929,3.837h-.836Z" transform="translate(-1180.79 -585.292)" fill="#94b0ed"/>
        <path id="Trazado_183790" data-name="Trazado 183790" d="M1614.739,744.808c-.268-1.105.216-1.971,1.239-1.973a2.409,2.409,0,0,1,2.183,1.967c.267,1.1-.211,1.971-1.24,1.973a2.4,2.4,0,0,1-2.182-1.967m2.553,0c-.167-.691-.635-1.213-1.141-1.212s-.714.508-.542,1.215.63,1.213,1.141,1.212.713-.513.543-1.215" transform="translate(-1272.052 -585.213)" fill="#94b0ed"/>
        <path id="Trazado_183791" data-name="Trazado 183791" d="M1638.854,744.768c-.268-1.1.216-1.971,1.24-1.973a2.408,2.408,0,0,1,2.183,1.967c.267,1.1-.211,1.971-1.24,1.973a2.4,2.4,0,0,1-2.183-1.967m2.553,0c-.167-.691-.635-1.213-1.141-1.212s-.714.508-.542,1.215.629,1.213,1.141,1.212.712-.513.542-1.215" transform="translate(-1291.05 -585.181)" fill="#94b0ed"/>
        <path id="Trazado_183792" data-name="Trazado 183792" d="M1661.472,743.786l-.631.164-.343-.685,1.027-.328h.578l.929,3.837h-.836Z" transform="translate(-1308.159 -585.292)" fill="#94b0ed"/>
        <path id="Trazado_183793" data-name="Trazado 183793" d="M1541.408,744.66c-.267-1.1.216-1.971,1.24-1.973a2.408,2.408,0,0,1,2.182,1.967c.268,1.1-.211,1.971-1.24,1.973a2.4,2.4,0,0,1-2.183-1.967m2.553,0c-.167-.691-.635-1.213-1.141-1.212s-.714.508-.542,1.215.629,1.213,1.141,1.212.713-.513.543-1.215" transform="translate(-1214.281 -585.096)" fill="#94b0ed"/>
        <path id="Trazado_183794" data-name="Trazado 183794" d="M1565.524,744.619c-.268-1.1.216-1.971,1.24-1.973a2.409,2.409,0,0,1,2.183,1.967c.267,1.1-.211,1.971-1.24,1.973a2.4,2.4,0,0,1-2.183-1.967m2.553,0c-.167-.691-.635-1.213-1.141-1.212s-.714.508-.542,1.215.63,1.213,1.141,1.212.713-.513.542-1.215" transform="translate(-1233.28 -585.064)" fill="#94b0ed"/>
        <path id="Trazado_183795" data-name="Trazado 183795" d="M1589.639,744.579c-.268-1.1.216-1.971,1.24-1.973a2.408,2.408,0,0,1,2.183,1.967c.268,1.1-.21,1.971-1.24,1.973a2.4,2.4,0,0,1-2.183-1.967m2.553,0c-.167-.691-.635-1.213-1.141-1.212s-.714.508-.542,1.215.629,1.213,1.141,1.212.713-.513.543-1.215" transform="translate(-1252.278 -585.032)" fill="#94b0ed"/>
        <path id="Trazado_183796" data-name="Trazado 183796" d="M1234.478,744.173c-.267-1.1.216-1.971,1.24-1.973a2.408,2.408,0,0,1,2.183,1.967c.267,1.1-.211,1.971-1.24,1.973a2.4,2.4,0,0,1-2.182-1.967m2.553,0c-.167-.691-.635-1.213-1.141-1.212s-.714.508-.543,1.215.63,1.213,1.141,1.212.713-.513.543-1.215" transform="translate(-972.479 -584.713)" fill="#94b0ed"/>
        <path id="Trazado_183797" data-name="Trazado 183797" d="M1257.1,743.19l-.632.164-.342-.685,1.027-.328h.578l.929,3.837h-.836Z" transform="translate(-989.589 -584.823)" fill="#94b0ed"/>
        <path id="Trazado_183798" data-name="Trazado 183798" d="M1274.593,744.1c-.267-1.1.216-1.971,1.24-1.973a2.408,2.408,0,0,1,2.182,1.967c.267,1.1-.211,1.971-1.24,1.973a2.4,2.4,0,0,1-2.182-1.967m2.553,0c-.168-.691-.635-1.213-1.141-1.212s-.714.508-.543,1.215.63,1.213,1.141,1.212.712-.513.543-1.215" transform="translate(-1004.082 -584.659)" fill="#94b0ed"/>
        <path id="Trazado_183799" data-name="Trazado 183799" d="M1751.569,743.6c-.268-1.105.216-1.972,1.24-1.973a2.409,2.409,0,0,1,2.183,1.967c.267,1.1-.211,1.971-1.24,1.973a2.4,2.4,0,0,1-2.182-1.967m2.553,0c-.167-.691-.635-1.213-1.141-1.212s-.714.508-.543,1.215.63,1.213,1.141,1.212.713-.513.543-1.215" transform="translate(-1379.849 -584.264)" fill="#94b0ed"/>
        <path id="Trazado_183800" data-name="Trazado 183800" d="M1774.189,742.622l-.632.164-.342-.685,1.027-.328h.578l.929,3.837h-.836Z" transform="translate(-1396.959 -584.375)" fill="#94b0ed"/>
        <path id="Trazado_183801" data-name="Trazado 183801" d="M1791.684,743.537c-.268-1.1.216-1.971,1.24-1.973a2.408,2.408,0,0,1,2.182,1.967c.268,1.1-.211,1.971-1.24,1.973a2.4,2.4,0,0,1-2.183-1.967m2.553,0c-.167-.691-.635-1.213-1.141-1.212s-.714.508-.542,1.215.629,1.213,1.141,1.212.713-.513.542-1.215" transform="translate(-1411.451 -584.211)" fill="#94b0ed"/>
        <path id="Trazado_183802" data-name="Trazado 183802" d="M869.431,578.56l-.632.164-.342-.685,1.027-.328h.578l.929,3.837-.836,0Z" transform="translate(-684.18 -455.125)" fill="#94b0ed"/>
        <path id="Trazado_183803" data-name="Trazado 183803" d="M886.924,579.475c-.267-1.105.216-1.971,1.24-1.973a2.408,2.408,0,0,1,2.183,1.967c.267,1.1-.211,1.971-1.24,1.973a2.4,2.4,0,0,1-2.183-1.967m2.553,0c-.167-.691-.635-1.213-1.141-1.212s-.714.508-.543,1.215.63,1.213,1.141,1.212.713-.513.543-1.215" transform="translate(-698.672 -454.962)" fill="#94b0ed"/>
        <path id="Trazado_183804" data-name="Trazado 183804" d="M1023.5,579.245c-.268-1.105.216-1.971,1.24-1.973a2.408,2.408,0,0,1,2.183,1.967c.267,1.1-.211,1.971-1.24,1.973a2.4,2.4,0,0,1-2.183-1.967m2.553,0c-.167-.691-.635-1.213-1.141-1.212s-.714.508-.543,1.215.63,1.213,1.141,1.212.713-.513.543-1.215" transform="translate(-806.268 -454.78)" fill="#94b0ed"/>
        <path id="Trazado_183805" data-name="Trazado 183805" d="M1047.616,579.2c-.267-1.1.216-1.971,1.24-1.973a2.408,2.408,0,0,1,2.182,1.967c.267,1.1-.211,1.971-1.24,1.973a2.4,2.4,0,0,1-2.182-1.967m2.553,0c-.167-.691-.635-1.213-1.141-1.212s-.714.508-.543,1.215.63,1.213,1.141,1.212.713-.513.543-1.215" transform="translate(-825.267 -454.748)" fill="#94b0ed"/>
        <path id="Trazado_183806" data-name="Trazado 183806" d="M1071.732,579.164c-.267-1.1.216-1.971,1.24-1.973a2.408,2.408,0,0,1,2.183,1.967c.267,1.1-.211,1.971-1.24,1.973a2.4,2.4,0,0,1-2.182-1.967m2.553,0c-.167-.691-.635-1.213-1.141-1.212s-.714.508-.542,1.215.63,1.213,1.141,1.212.713-.513.542-1.215" transform="translate(-844.265 -454.717)" fill="#94b0ed"/>
        <path id="Trazado_183807" data-name="Trazado 183807" d="M1094.352,578.181l-.632.164-.342-.685,1.027-.328h.578l.929,3.837-.836,0Z" transform="translate(-861.375 -454.827)" fill="#94b0ed"/>
        <path id="Trazado_183808" data-name="Trazado 183808" d="M1110.48,578.155l-.632.164-.342-.685,1.027-.328h.578l.929,3.837h-.836Z" transform="translate(-874.081 -454.806)" fill="#94b0ed"/>
        <path id="Trazado_183809" data-name="Trazado 183809" d="M1127.975,579.069c-.268-1.1.216-1.971,1.24-1.973a2.408,2.408,0,0,1,2.183,1.967c.267,1.1-.211,1.971-1.24,1.973a2.4,2.4,0,0,1-2.183-1.967m2.553,0c-.167-.691-.635-1.213-1.141-1.212s-.714.508-.543,1.215.63,1.213,1.141,1.212.712-.513.542-1.215" transform="translate(-888.574 -454.642)" fill="#94b0ed"/>
        <path id="Trazado_183810" data-name="Trazado 183810" d="M1751.614,578.055c-.267-1.1.216-1.971,1.24-1.973a2.408,2.408,0,0,1,2.183,1.967c.267,1.1-.211,1.971-1.24,1.973a2.4,2.4,0,0,1-2.183-1.967m2.553,0c-.168-.691-.635-1.213-1.141-1.212s-.714.508-.543,1.215.629,1.213,1.141,1.212.712-.513.543-1.215" transform="translate(-1379.884 -453.843)" fill="#f99746"/>
        <path id="Trazado_183811" data-name="Trazado 183811" d="M1775.731,578.014c-.268-1.1.216-1.971,1.24-1.973a2.408,2.408,0,0,1,2.183,1.967c.267,1.1-.211,1.971-1.24,1.973a2.4,2.4,0,0,1-2.183-1.967m2.553,0c-.167-.691-.635-1.213-1.141-1.212s-.714.508-.542,1.215.629,1.213,1.141,1.212.712-.513.542-1.215" transform="translate(-1398.883 -453.811)" fill="#f99746"/>
        <path id="Trazado_183812" data-name="Trazado 183812" d="M1799.846,577.973c-.267-1.1.216-1.971,1.24-1.973a2.408,2.408,0,0,1,2.182,1.967c.267,1.1-.211,1.971-1.24,1.973a2.4,2.4,0,0,1-2.183-1.967m2.553,0c-.167-.691-.635-1.213-1.141-1.212s-.714.508-.542,1.215.63,1.213,1.141,1.212.713-.513.542-1.215" transform="translate(-1417.881 -453.778)" fill="#94b0ed"/>
        <path id="Trazado_183813" data-name="Trazado 183813" d="M1822.465,576.991l-.632.164-.342-.686,1.027-.328h.578l.929,3.837h-.836Z" transform="translate(-1434.991 -453.889)" fill="#94b0ed"/>
        <path id="Trazado_183814" data-name="Trazado 183814" d="M880.423,623.96l-.632.164-.342-.685,1.027-.328h.578l.929,3.837h-.836Z" transform="translate(-692.84 -490.892)" fill="#94b0ed"/>
        <path id="Trazado_183815" data-name="Trazado 183815" d="M897.917,624.875c-.267-1.1.216-1.971,1.24-1.973a2.408,2.408,0,0,1,2.183,1.967c.267,1.1-.211,1.971-1.24,1.973a2.4,2.4,0,0,1-2.183-1.967m2.553,0c-.167-.691-.635-1.213-1.141-1.212s-.714.508-.543,1.215.63,1.213,1.141,1.212.713-.513.543-1.215" transform="translate(-707.332 -490.728)" fill="#94b0ed"/>
        <path id="Trazado_183816" data-name="Trazado 183816" d="M1010.378,624.685c-.267-1.1.216-1.971,1.24-1.973a2.408,2.408,0,0,1,2.183,1.967c.267,1.1-.211,1.971-1.24,1.973a2.4,2.4,0,0,1-2.183-1.967m2.553,0c-.167-.691-.635-1.213-1.141-1.212s-.714.508-.543,1.215.63,1.213,1.141,1.212.713-.513.543-1.215" transform="translate(-795.93 -490.579)" fill="#94b0ed"/>
        <path id="Trazado_183817" data-name="Trazado 183817" d="M1034.494,624.644c-.267-1.1.216-1.971,1.24-1.973a2.408,2.408,0,0,1,2.182,1.967c.267,1.1-.211,1.971-1.24,1.973a2.4,2.4,0,0,1-2.182-1.967m2.553,0c-.167-.691-.635-1.213-1.141-1.212s-.714.508-.542,1.215.63,1.213,1.141,1.212.713-.513.543-1.215" transform="translate(-814.929 -490.546)" fill="#94b0ed"/>
        <path id="Trazado_183818" data-name="Trazado 183818" d="M943.035,712.531c-.268-1.1.216-1.971,1.24-1.973a2.408,2.408,0,0,1,2.183,1.967c.267,1.1-.211,1.971-1.24,1.973a2.4,2.4,0,0,1-2.183-1.967m2.553,0c-.167-.691-.635-1.213-1.141-1.212s-.714.508-.543,1.215.63,1.213,1.141,1.212.713-.513.543-1.215" transform="translate(-742.876 -559.785)" fill="#f99746"/>
        <path id="Trazado_183819" data-name="Trazado 183819" d="M965.655,711.549l-.632.164-.342-.685,1.027-.328h.578l.929,3.837h-.837Z" transform="translate(-759.986 -559.895)" fill="#f99746"/>
        <path id="Trazado_183820" data-name="Trazado 183820" d="M890.432,666.258l-.632.164-.342-.685,1.027-.328h.578l.929,3.837-.836,0Z" transform="translate(-700.725 -524.214)" fill="#94b0ed"/>
        <path id="Trazado_183821" data-name="Trazado 183821" d="M907.927,667.173c-.268-1.1.216-1.971,1.24-1.973a2.408,2.408,0,0,1,2.183,1.967c.267,1.1-.211,1.971-1.24,1.973a2.4,2.4,0,0,1-2.183-1.967m2.553,0c-.167-.691-.635-1.213-1.141-1.212s-.714.508-.543,1.215.63,1.213,1.141,1.212.713-.513.543-1.215" transform="translate(-715.218 -524.051)" fill="#94b0ed"/>
        <path id="Trazado_183822" data-name="Trazado 183822" d="M932.042,667.132c-.267-1.1.216-1.972,1.24-1.973a2.408,2.408,0,0,1,2.183,1.967c.267,1.1-.211,1.971-1.24,1.973a2.4,2.4,0,0,1-2.183-1.967m2.553,0c-.167-.691-.635-1.213-1.141-1.212s-.714.508-.543,1.215.63,1.213,1.141,1.212.713-.513.543-1.215" transform="translate(-734.216 -524.019)" fill="#94b0ed"/>
        <path id="Trazado_183823" data-name="Trazado 183823" d="M954.663,666.149l-.632.164-.342-.685,1.027-.328h.578l.929,3.837h-.836Z" transform="translate(-751.327 -524.129)" fill="#94b0ed"/>
        <path id="Trazado_183824" data-name="Trazado 183824" d="M972.157,667.064c-.267-1.1.216-1.971,1.24-1.973a2.408,2.408,0,0,1,2.183,1.967c.267,1.1-.211,1.971-1.24,1.973a2.4,2.4,0,0,1-2.183-1.967m2.553,0c-.167-.691-.635-1.213-1.141-1.212s-.714.508-.543,1.215.63,1.213,1.141,1.212.713-.513.543-1.215" transform="translate(-765.819 -523.965)" fill="#94b0ed"/>
        <path id="Trazado_183825" data-name="Trazado 183825" d="M996.273,667.023c-.268-1.1.216-1.971,1.24-1.973a2.408,2.408,0,0,1,2.183,1.967c.267,1.1-.211,1.971-1.24,1.973a2.4,2.4,0,0,1-2.182-1.967m2.553,0c-.167-.691-.635-1.213-1.141-1.212s-.714.508-.542,1.215.63,1.213,1.141,1.212.713-.513.543-1.215" transform="translate(-784.818 -523.933)" fill="#94b0ed"/>
        <path id="Trazado_183826" data-name="Trazado 183826" d="M1020.388,666.983c-.268-1.1.216-1.971,1.24-1.973a2.408,2.408,0,0,1,2.183,1.967c.267,1.1-.211,1.971-1.24,1.973a2.4,2.4,0,0,1-2.183-1.967m2.553,0c-.167-.691-.635-1.213-1.141-1.212s-.714.508-.542,1.215.63,1.213,1.141,1.212.712-.513.543-1.215" transform="translate(-803.816 -523.901)" fill="#94b0ed"/>
        <path id="Trazado_183827" data-name="Trazado 183827" d="M1044.5,666.942c-.267-1.1.216-1.972,1.24-1.973a2.408,2.408,0,0,1,2.183,1.967c.268,1.1-.211,1.971-1.24,1.973a2.4,2.4,0,0,1-2.183-1.967m2.553,0c-.167-.691-.635-1.213-1.141-1.212s-.714.508-.543,1.215.63,1.213,1.141,1.212.712-.513.543-1.215" transform="translate(-822.814 -523.869)" fill="#94b0ed"/>
        <path id="Trazado_183828" data-name="Trazado 183828" d="M1068.618,666.9c-.267-1.105.216-1.971,1.24-1.973a2.408,2.408,0,0,1,2.183,1.967c.267,1.1-.211,1.971-1.24,1.973a2.4,2.4,0,0,1-2.182-1.967m2.553,0c-.167-.691-.635-1.213-1.141-1.212s-.714.508-.542,1.215.63,1.213,1.141,1.212.713-.513.543-1.215" transform="translate(-841.812 -523.838)" fill="#94b0ed"/>
        <path id="Trazado_183829" data-name="Trazado 183829" d="M1092.735,666.861c-.268-1.1.216-1.971,1.24-1.973a2.408,2.408,0,0,1,2.183,1.967c.267,1.1-.211,1.971-1.24,1.973a2.4,2.4,0,0,1-2.182-1.967m2.553,0c-.167-.691-.635-1.213-1.141-1.212s-.714.508-.542,1.215.63,1.213,1.141,1.212.713-.513.542-1.215" transform="translate(-860.811 -523.805)" fill="#94b0ed"/>
        <path id="Trazado_183830" data-name="Trazado 183830" d="M1115.354,665.879l-.632.164-.342-.686,1.027-.328h.578l.929,3.837-.836,0Z" transform="translate(-877.921 -523.916)" fill="#94b0ed"/>
        <path id="Trazado_183831" data-name="Trazado 183831" d="M1131.483,665.851l-.632.164-.342-.685,1.027-.328h.578l.929,3.837-.836,0Z" transform="translate(-890.628 -523.894)" fill="#94b0ed"/>
        <path id="Trazado_183832" data-name="Trazado 183832" d="M1148.978,666.766c-.267-1.1.216-1.971,1.24-1.973a2.408,2.408,0,0,1,2.182,1.967c.267,1.1-.211,1.971-1.24,1.973a2.4,2.4,0,0,1-2.182-1.967m2.553,0c-.167-.691-.635-1.213-1.141-1.212s-.714.508-.542,1.215.63,1.213,1.141,1.212.713-.513.542-1.215" transform="translate(-905.121 -523.73)" fill="#94b0ed"/>
        <path id="Trazado_183833" data-name="Trazado 183833" d="M901.425,711.657l-.632.164-.342-.685,1.027-.328h.578l.929,3.837h-.836Z" transform="translate(-709.385 -559.98)" fill="#94b0ed"/>
        <path id="Trazado_183834" data-name="Trazado 183834" d="M918.92,712.572c-.267-1.1.216-1.971,1.24-1.973a2.408,2.408,0,0,1,2.183,1.967c.267,1.1-.211,1.971-1.24,1.973a2.4,2.4,0,0,1-2.183-1.967m2.553,0c-.167-.691-.635-1.213-1.141-1.212s-.714.508-.543,1.215.63,1.213,1.141,1.212.713-.513.543-1.215" transform="translate(-723.878 -559.817)" fill="#94b0ed"/>
        <path id="Trazado_183835" data-name="Trazado 183835" d="M983.15,712.464c-.267-1.1.216-1.971,1.24-1.973a2.408,2.408,0,0,1,2.183,1.967c.267,1.1-.211,1.971-1.24,1.973a2.4,2.4,0,0,1-2.183-1.967m2.553,0c-.167-.691-.635-1.213-1.141-1.213s-.714.508-.543,1.215.63,1.213,1.141,1.212.713-.513.543-1.215" transform="translate(-774.479 -559.732)" fill="#94b0ed"/>
        <path id="Trazado_183836" data-name="Trazado 183836" d="M1007.265,712.423c-.267-1.105.216-1.971,1.24-1.973a2.408,2.408,0,0,1,2.183,1.967c.267,1.1-.211,1.971-1.24,1.973a2.4,2.4,0,0,1-2.183-1.967m2.553,0c-.167-.691-.635-1.213-1.141-1.212s-.714.508-.543,1.215.63,1.213,1.141,1.212.713-.513.543-1.215" transform="translate(-793.478 -559.7)" fill="#94b0ed"/>
        <path id="Trazado_183837" data-name="Trazado 183837" d="M964.36,813.195c-.268-1.1.216-1.971,1.24-1.973a2.408,2.408,0,0,1,2.183,1.967c.267,1.1-.211,1.971-1.24,1.973a2.4,2.4,0,0,1-2.183-1.967m2.553,0c-.167-.691-.635-1.213-1.141-1.212s-.714.508-.543,1.215.63,1.213,1.141,1.212.713-.513.543-1.215" transform="translate(-759.676 -639.089)" fill="#94b0ed"/>
        <path id="Trazado_183838" data-name="Trazado 183838" d="M986.98,812.213l-.632.164-.342-.685,1.027-.328h.578l.929,3.837H987.7Z" transform="translate(-776.787 -639.199)" fill="#94b0ed"/>
        <path id="Trazado_183839" data-name="Trazado 183839" d="M922.75,812.321l-.632.164-.342-.685,1.027-.328h.578l.929,3.837h-.836Z" transform="translate(-726.185 -639.285)" fill="#94b0ed"/>
        <path id="Trazado_183840" data-name="Trazado 183840" d="M940.244,813.235c-.267-1.105.216-1.971,1.24-1.973a2.409,2.409,0,0,1,2.183,1.967c.267,1.1-.211,1.971-1.24,1.973a2.4,2.4,0,0,1-2.183-1.967m2.553,0c-.167-.691-.635-1.213-1.141-1.212s-.714.508-.542,1.215.629,1.213,1.141,1.212.713-.513.543-1.215" transform="translate(-740.678 -639.12)" fill="#94b0ed"/>
        <path id="Trazado_183841" data-name="Trazado 183841" d="M1004.475,813.128c-.267-1.105.216-1.971,1.24-1.973a2.408,2.408,0,0,1,2.183,1.967c.267,1.1-.211,1.971-1.24,1.973a2.4,2.4,0,0,1-2.183-1.967m2.553,0c-.167-.691-.635-1.213-1.141-1.212s-.714.508-.543,1.215.63,1.213,1.141,1.212.713-.513.543-1.215" transform="translate(-791.28 -639.036)" fill="#f99746"/>
        <path id="Trazado_183842" data-name="Trazado 183842" d="M1028.589,813.087c-.267-1.1.217-1.971,1.24-1.973a2.408,2.408,0,0,1,2.183,1.967c.267,1.1-.211,1.971-1.24,1.973a2.4,2.4,0,0,1-2.183-1.967m2.553,0c-.167-.691-.635-1.213-1.141-1.212s-.714.508-.543,1.215.63,1.213,1.141,1.212.713-.513.543-1.215" transform="translate(-810.277 -639.004)" fill="#f99746"/>
        <path id="Trazado_183843" data-name="Trazado 183843" d="M934.563,845.575c-.267-1.105.216-1.971,1.24-1.973a2.409,2.409,0,0,1,2.183,1.967c.267,1.1-.211,1.971-1.24,1.973a2.4,2.4,0,0,1-2.183-1.967m2.553,0c-.167-.691-.635-1.213-1.141-1.212s-.714.508-.543,1.215.63,1.213,1.141,1.212.713-.513.543-1.215" transform="translate(-736.202 -664.598)" fill="#94b0ed"/>
        <path id="Trazado_183844" data-name="Trazado 183844" d="M957.183,844.593l-.632.164-.342-.685,1.027-.328h.578l.929,3.837-.836,0Z" transform="translate(-753.312 -664.709)" fill="#94b0ed"/>
        <path id="Trazado_183845" data-name="Trazado 183845" d="M974.678,845.508c-.267-1.105.216-1.971,1.24-1.973A2.408,2.408,0,0,1,978.1,845.5c.267,1.1-.211,1.971-1.24,1.973a2.4,2.4,0,0,1-2.183-1.967m2.553,0c-.167-.691-.635-1.213-1.141-1.212s-.714.508-.543,1.215.63,1.213,1.141,1.212.713-.513.543-1.215" transform="translate(-767.805 -664.545)" fill="#94b0ed"/>
        <path id="Trazado_183846" data-name="Trazado 183846" d="M998.793,845.468c-.268-1.105.216-1.971,1.24-1.973a2.408,2.408,0,0,1,2.183,1.967c.267,1.1-.211,1.971-1.24,1.973a2.4,2.4,0,0,1-2.183-1.967m2.553,0c-.167-.691-.635-1.213-1.141-1.212s-.714.508-.543,1.215.63,1.213,1.141,1.212.713-.513.543-1.215" transform="translate(-786.803 -664.514)" fill="#94b0ed"/>
        <path id="Trazado_183847" data-name="Trazado 183847" d="M1031.381,712.383c-.267-1.1.216-1.971,1.24-1.973a2.408,2.408,0,0,1,2.183,1.967c.267,1.1-.211,1.971-1.24,1.973a2.4,2.4,0,0,1-2.183-1.967m2.553,0c-.167-.691-.635-1.213-1.141-1.212s-.714.508-.543,1.215.63,1.213,1.141,1.212.713-.513.543-1.215" transform="translate(-812.477 -559.668)" fill="#94b0ed"/>
        <path id="Trazado_183848" data-name="Trazado 183848" d="M1055.5,712.342c-.267-1.105.216-1.971,1.24-1.973a2.408,2.408,0,0,1,2.183,1.967c.267,1.1-.211,1.971-1.24,1.973a2.4,2.4,0,0,1-2.183-1.967m2.553,0c-.167-.691-.635-1.213-1.141-1.212s-.714.508-.543,1.215.63,1.213,1.141,1.212.713-.513.543-1.215" transform="translate(-831.474 -559.636)" fill="#94b0ed"/>
        <path id="Trazado_183849" data-name="Trazado 183849" d="M994.987,930.325c-.267-1.1.216-1.971,1.24-1.973a2.408,2.408,0,0,1,2.183,1.967c.267,1.1-.211,1.971-1.24,1.973a2.4,2.4,0,0,1-2.183-1.967m2.553,0c-.167-.691-.635-1.213-1.141-1.212s-.714.508-.543,1.215.63,1.213,1.141,1.212.713-.513.543-1.215" transform="translate(-783.805 -731.365)" fill="#f99746"/>
        <path id="Trazado_183850" data-name="Trazado 183850" d="M1017.607,929.343l-.632.164-.342-.685,1.027-.328h.578l.929,3.837h-.836Z" transform="translate(-800.915 -731.476)" fill="#f99746"/>
        <path id="Trazado_183851" data-name="Trazado 183851" d="M942.384,884.051l-.632.164-.342-.685,1.027-.328h.578l.929,3.837-.836,0Z" transform="translate(-741.654 -695.794)" fill="#94b0ed"/>
        <path id="Trazado_183852" data-name="Trazado 183852" d="M959.879,884.966c-.268-1.1.216-1.971,1.24-1.973a2.408,2.408,0,0,1,2.183,1.967c.267,1.1-.211,1.971-1.24,1.973a2.4,2.4,0,0,1-2.183-1.967m2.553,0c-.167-.691-.635-1.213-1.141-1.212s-.714.508-.542,1.215.629,1.213,1.141,1.212.713-.513.543-1.215" transform="translate(-756.146 -695.631)" fill="#94b0ed"/>
        <path id="Trazado_183853" data-name="Trazado 183853" d="M983.994,884.926c-.267-1.105.216-1.971,1.24-1.973a2.408,2.408,0,0,1,2.183,1.967c.267,1.1-.211,1.971-1.24,1.973a2.4,2.4,0,0,1-2.183-1.967m2.553,0c-.167-.691-.635-1.213-1.141-1.212s-.714.508-.543,1.215.63,1.213,1.141,1.212.712-.513.543-1.215" transform="translate(-775.144 -695.599)" fill="#94b0ed"/>
        <path id="Trazado_183854" data-name="Trazado 183854" d="M1006.615,883.943l-.632.164-.342-.685,1.027-.328h.578l.929,3.837h-.836Z" transform="translate(-792.255 -695.709)" fill="#94b0ed"/>
        <path id="Trazado_183855" data-name="Trazado 183855" d="M953.377,929.45l-.632.164-.342-.685,1.027-.328h.578l.929,3.837H954.1Z" transform="translate(-750.314 -731.56)" fill="#94b0ed"/>
        <path id="Trazado_183856" data-name="Trazado 183856" d="M970.872,930.365c-.268-1.1.216-1.971,1.24-1.973a2.408,2.408,0,0,1,2.182,1.967c.267,1.1-.211,1.971-1.24,1.973a2.4,2.4,0,0,1-2.182-1.967m2.553,0c-.167-.691-.635-1.213-1.141-1.212s-.714.508-.542,1.215.63,1.213,1.141,1.212.713-.513.543-1.215" transform="translate(-764.806 -731.397)" fill="#94b0ed"/>
        <path id="Trazado_183857" data-name="Trazado 183857" d="M1035.1,930.257c-.267-1.1.216-1.971,1.24-1.973a2.408,2.408,0,0,1,2.183,1.967c.267,1.1-.211,1.971-1.24,1.973a2.4,2.4,0,0,1-2.183-1.967m2.553,0c-.167-.691-.635-1.213-1.141-1.212s-.714.508-.542,1.215.63,1.213,1.141,1.212.712-.513.543-1.215" transform="translate(-815.408 -731.312)" fill="#94b0ed"/>
        <path id="Trazado_183858" data-name="Trazado 183858" d="M1059.217,930.217c-.268-1.1.216-1.971,1.24-1.973a2.408,2.408,0,0,1,2.183,1.967c.267,1.1-.211,1.971-1.24,1.973a2.4,2.4,0,0,1-2.182-1.967m2.553,0c-.167-.691-.635-1.213-1.141-1.212s-.714.508-.543,1.215.63,1.213,1.141,1.212.713-.513.543-1.215" transform="translate(-834.406 -731.28)" fill="#94b0ed"/>
        <path id="Trazado_183859" data-name="Trazado 183859" d="M1004.286,962.379c-.267-1.1.216-1.971,1.24-1.973a2.408,2.408,0,0,1,2.183,1.967c.267,1.1-.211,1.971-1.24,1.973a2.4,2.4,0,0,1-2.183-1.967m2.553,0c-.167-.691-.635-1.213-1.141-1.212s-.714.508-.543,1.215.63,1.213,1.141,1.212.713-.513.543-1.215" transform="translate(-791.131 -756.618)" fill="#f99746"/>
        <path id="Trazado_183860" data-name="Trazado 183860" d="M1026.906,961.4l-.632.164-.342-.685,1.027-.328h.578l.929,3.837h-.836Z" transform="translate(-808.24 -756.728)" fill="#f99746"/>
        <path id="Trazado_183861" data-name="Trazado 183861" d="M980.17,962.419c-.267-1.1.216-1.971,1.24-1.973a2.408,2.408,0,0,1,2.182,1.967c.267,1.1-.211,1.971-1.24,1.973a2.4,2.4,0,0,1-2.183-1.967m2.553,0c-.167-.691-.635-1.213-1.141-1.212s-.714.508-.542,1.215.63,1.213,1.141,1.212.713-.513.543-1.215" transform="translate(-772.132 -756.649)" fill="#94b0ed"/>
        <path id="Trazado_183862" data-name="Trazado 183862" d="M1044.4,962.311c-.267-1.1.216-1.971,1.24-1.973a2.408,2.408,0,0,1,2.183,1.967c.267,1.1-.211,1.971-1.24,1.973a2.4,2.4,0,0,1-2.183-1.967m2.553,0c-.168-.691-.635-1.213-1.141-1.212s-.714.508-.542,1.215.63,1.213,1.141,1.212.713-.513.543-1.215" transform="translate(-822.734 -756.564)" fill="#94b0ed"/>
        <path id="Trazado_183863" data-name="Trazado 183863" d="M1068.516,962.27c-.267-1.1.216-1.971,1.24-1.973a2.408,2.408,0,0,1,2.182,1.967c.268,1.1-.211,1.971-1.24,1.973a2.4,2.4,0,0,1-2.182-1.967m2.553,0c-.167-.691-.635-1.213-1.141-1.212s-.714.508-.543,1.215.63,1.213,1.141,1.212.713-.513.543-1.215" transform="translate(-841.732 -756.532)" fill="#94b0ed"/>
        <path id="Trazado_183864" data-name="Trazado 183864" d="M1083.333,930.176c-.267-1.1.216-1.971,1.24-1.973a2.408,2.408,0,0,1,2.182,1.967c.267,1.1-.211,1.971-1.24,1.973a2.4,2.4,0,0,1-2.183-1.967m2.553,0c-.167-.691-.635-1.213-1.141-1.212s-.714.508-.543,1.215.63,1.213,1.141,1.212.713-.513.543-1.215" transform="translate(-853.405 -731.248)" fill="#94b0ed"/>
        <path id="Trazado_183865" data-name="Trazado 183865" d="M1107.448,930.136c-.267-1.105.216-1.971,1.24-1.973a2.408,2.408,0,0,1,2.183,1.967c.267,1.1-.211,1.971-1.24,1.973a2.4,2.4,0,0,1-2.183-1.967m2.553,0c-.167-.691-.635-1.213-1.141-1.212s-.714.508-.542,1.215.629,1.213,1.141,1.212.713-.513.542-1.215" transform="translate(-872.403 -731.216)" fill="#94b0ed"/>
        <path id="Trazado_183866" data-name="Trazado 183866" d="M1745.113,622.539l-.632.164-.342-.686,1.027-.328h.578l.929,3.837-.836,0Z" transform="translate(-1374.052 -489.773)" fill="#94b0ed"/>
        <path id="Trazado_183867" data-name="Trazado 183867" d="M1762.608,623.454c-.268-1.1.216-1.971,1.24-1.973a2.409,2.409,0,0,1,2.183,1.967c.267,1.1-.211,1.971-1.24,1.973a2.4,2.4,0,0,1-2.182-1.967m2.553,0c-.167-.691-.635-1.213-1.141-1.212s-.714.508-.542,1.215.63,1.213,1.141,1.212.713-.513.543-1.215" transform="translate(-1388.545 -489.609)" fill="#94b0ed"/>
        <path id="Trazado_183868" data-name="Trazado 183868" d="M1786.723,623.413c-.268-1.1.216-1.971,1.24-1.973a2.409,2.409,0,0,1,2.182,1.967c.267,1.1-.211,1.971-1.24,1.973a2.4,2.4,0,0,1-2.183-1.967m2.553,0c-.167-.691-.635-1.213-1.141-1.212s-.714.508-.542,1.215.629,1.213,1.141,1.212.713-.513.542-1.215" transform="translate(-1407.543 -489.577)" fill="#94b0ed"/>
        <path id="Trazado_183869" data-name="Trazado 183869" d="M1810.839,623.373c-.268-1.1.216-1.971,1.24-1.973a2.409,2.409,0,0,1,2.183,1.967c.267,1.1-.211,1.971-1.24,1.973a2.4,2.4,0,0,1-2.183-1.967m2.553,0c-.167-.691-.635-1.213-1.141-1.212s-.714.508-.542,1.215.63,1.213,1.141,1.212.713-.513.543-1.215" transform="translate(-1426.542 -489.545)" fill="#94b0ed"/>
        <path id="Trazado_183870" data-name="Trazado 183870" d="M1833.459,622.391l-.632.164-.342-.686,1.027-.328h.578l.929,3.837h-.836Z" transform="translate(-1443.652 -489.655)" fill="#94b0ed"/>
        <path id="Trazado_183871" data-name="Trazado 183871" d="M1722.493,666.82c-.267-1.105.216-1.971,1.24-1.973a2.408,2.408,0,0,1,2.183,1.967c.267,1.1-.211,1.971-1.24,1.973a2.4,2.4,0,0,1-2.183-1.967m2.553,0c-.167-.691-.635-1.213-1.141-1.212s-.714.508-.543,1.215.63,1.213,1.141,1.212.713-.513.543-1.215" transform="translate(-1356.942 -523.773)" fill="#94b0ed"/>
        <path id="Trazado_183872" data-name="Trazado 183872" d="M1745.113,665.838l-.632.164-.342-.685,1.027-.328h.578l.929,3.837h-.836Z" transform="translate(-1374.052 -523.883)" fill="#94b0ed"/>
        <path id="Trazado_183873" data-name="Trazado 183873" d="M1762.608,666.753c-.268-1.1.216-1.971,1.24-1.973a2.409,2.409,0,0,1,2.183,1.967c.267,1.1-.211,1.971-1.24,1.973a2.4,2.4,0,0,1-2.182-1.967m2.553,0c-.167-.691-.635-1.213-1.141-1.212s-.714.508-.542,1.215.63,1.213,1.141,1.212.713-.513.543-1.215" transform="translate(-1388.545 -523.72)" fill="#f99746"/>
        <path id="Trazado_183874" data-name="Trazado 183874" d="M1786.723,666.712c-.268-1.105.216-1.971,1.24-1.973a2.408,2.408,0,0,1,2.182,1.967c.267,1.1-.211,1.971-1.24,1.973a2.4,2.4,0,0,1-2.183-1.967m2.553,0c-.167-.691-.635-1.213-1.141-1.212s-.714.508-.542,1.215.629,1.213,1.141,1.212.713-.513.542-1.215" transform="translate(-1407.543 -523.688)" fill="#f99746"/>
        <path id="Trazado_183875" data-name="Trazado 183875" d="M1810.839,666.672c-.268-1.1.216-1.971,1.24-1.973a2.408,2.408,0,0,1,2.183,1.967c.267,1.1-.211,1.971-1.24,1.973a2.4,2.4,0,0,1-2.183-1.967m2.553,0c-.167-.691-.635-1.213-1.141-1.212s-.714.508-.542,1.215.63,1.213,1.141,1.212.713-.513.543-1.215" transform="translate(-1426.542 -523.656)" fill="#f99746"/>
        <path id="Trazado_183876" data-name="Trazado 183876" d="M1833.459,665.689l-.632.164-.342-.685,1.027-.328h.578l.929,3.837h-.836Z" transform="translate(-1443.652 -523.767)" fill="#f99746"/>
        <path id="Trazado_183877" data-name="Trazado 183877" d="M1828.555,915.87l-.632.164-.342-.685,1.027-.328h.578l.929,3.837h-.836Z" transform="translate(-1439.789 -720.862)" fill="#94b0ed"/>
        <path id="Trazado_183878" data-name="Trazado 183878" d="M1846.05,916.785c-.268-1.1.216-1.971,1.24-1.973a2.408,2.408,0,0,1,2.182,1.967c.267,1.1-.211,1.971-1.24,1.973a2.4,2.4,0,0,1-2.183-1.968m2.553,0c-.167-.691-.635-1.213-1.141-1.212s-.714.508-.543,1.215.63,1.213,1.141,1.212.713-.513.543-1.215" transform="translate(-1454.281 -720.698)" fill="#94b0ed"/>
        <path id="Trazado_183879" data-name="Trazado 183879" d="M1870.166,916.744c-.268-1.1.216-1.971,1.24-1.973a2.408,2.408,0,0,1,2.182,1.967c.267,1.1-.211,1.971-1.24,1.973a2.4,2.4,0,0,1-2.182-1.967m2.553,0c-.167-.691-.635-1.213-1.141-1.212s-.714.508-.542,1.215.63,1.213,1.141,1.212.713-.513.543-1.215" transform="translate(-1473.28 -720.666)" fill="#94b0ed"/>
        <path id="Trazado_183880" data-name="Trazado 183880" d="M1804.862,945.3l-.632.164-.342-.685,1.027-.328h.578l.929,3.837-.836,0Z" transform="translate(-1421.123 -744.048)" fill="#94b0ed"/>
        <path id="Trazado_183881" data-name="Trazado 183881" d="M1822.358,946.217c-.268-1.1.216-1.971,1.24-1.973a2.408,2.408,0,0,1,2.182,1.967c.267,1.1-.211,1.971-1.24,1.973a2.4,2.4,0,0,1-2.182-1.967m2.553,0c-.167-.691-.635-1.213-1.141-1.212s-.714.508-.543,1.215.63,1.213,1.141,1.212.713-.513.543-1.215" transform="translate(-1435.616 -743.885)" fill="#94b0ed"/>
        <path id="Trazado_183882" data-name="Trazado 183882" d="M1846.473,946.177c-.267-1.1.216-1.971,1.239-1.973a2.408,2.408,0,0,1,2.183,1.967c.267,1.1-.211,1.971-1.24,1.973a2.4,2.4,0,0,1-2.183-1.967m2.553,0c-.167-.691-.635-1.213-1.141-1.212s-.714.508-.543,1.215.63,1.213,1.141,1.212.713-.513.543-1.215" transform="translate(-1454.615 -743.854)" fill="#94b0ed"/>
        <path id="Trazado_183883" data-name="Trazado 183883" d="M1894.282,916.7c-.268-1.1.216-1.971,1.239-1.973a2.408,2.408,0,0,1,2.183,1.967c.267,1.1-.211,1.971-1.24,1.973a2.4,2.4,0,0,1-2.182-1.967m2.553,0c-.167-.691-.635-1.213-1.141-1.212s-.714.508-.542,1.215.63,1.213,1.141,1.212.712-.513.542-1.215" transform="translate(-1492.279 -720.634)" fill="#94b0ed"/>
        <path id="Trazado_183884" data-name="Trazado 183884" d="M1916.9,915.721l-.632.164-.342-.685,1.027-.328h.578l.929,3.837h-.836Z" transform="translate(-1509.389 -720.745)" fill="#94b0ed"/>
        <path id="Trazado_183885" data-name="Trazado 183885" d="M2202.506,715.131a10.51,10.51,0,0,1,9.125,4.228c2.854,3.9.878,8.489,8.014,12.029s6.111,8,4.684,13.6-7.411,12.368-14.547,12.039-19.339-15.022-18.9-19.948,2.56-5.516.878-8.772c-2.635-5.1,2.25-12.373,10.745-13.178" transform="translate(-1725.993 -563.363)" fill="#163560"/>
        <path id="Trazado_183886" data-name="Trazado 183886" d="M2226.614,801.891a.371.371,0,0,0,.051-.082c-.79-.283-.858-1.436-.126-6.241l-.379.018-6.37.305s-.149,1.968-.418,3.8c-.053.365-.112.725-.174,1.063-4.795,4.773,5.524,6.932,7.416,1.134" transform="translate(-1747.317 -626.756)" fill="#ffb27d"/>
        <path id="Trazado_183887" data-name="Trazado 183887" d="M2197.459,1407.315h13.763a7.56,7.56,0,0,0-.389-3.689c-.689-1.527-1.761-2.469-1.858-3.639a4.135,4.135,0,0,1-3.941,1.212,15.094,15.094,0,0,1-2.388,3.1c-.9.646-4.91.416-5.187,3.021" transform="translate(-1731.183 -1102.925)" fill="#143d7a"/>
        <path id="Trazado_183888" data-name="Trazado 183888" d="M2197.928,1026.368c-1.282,3.164-2.268,6.04-1.958,8.576a.077.077,0,0,0,0,.013,7,7,0,0,0,.154.828c4.516,18.059-1.886,41.574-1.886,41.574a26.632,26.632,0,0,1-2.916.5c-2.169.193-2.486-.452-2.486-.452s-2.154-19.176-9.127-55.834a101.72,101.72,0,0,1-1.765-12.93c-.11-1.41-.215-2.977-.331-4.815-.317-4.94.432-13.255,4.14-15.439,1.687-1,3.983-.722,7.07,1.708.244.193.474.422.747.617,18.963,13.65,12.276,26,8.357,35.654" transform="translate(-1715.498 -778.236)" fill="#2f539b"/>
        <path id="Trazado_183889" data-name="Trazado 183889" d="M2237.8,1108.823c-.213-.744-7.035-24.575-7.149-26.385-.248-3.893,8.767,6.857,9.107,17.809-1.282,3.164-2.268,6.04-1.958,8.576" transform="translate(-1757.328 -852.115)" fill="#233862"/>
        <path id="Trazado_183890" data-name="Trazado 183890" d="M2442.307,1251.556l-5.728-12.514a7.558,7.558,0,0,0-3.192,1.889c-1.1,1.262-1.9,1.037-4.409-.7a13.8,13.8,0,0,1,1.657,4.24c.461.057,3.085,2.6,5.773,3.3,1.072.279,3.416,4.626,5.9,3.794" transform="translate(-1913.575 -976.13)" fill="#143d7a"/>
        <path id="Trazado_183891" data-name="Trazado 183891" d="M2207,1004.5s12.333,42.873,16.852,45.633,26.861,8.248,33.458,9.566a12.726,12.726,0,0,0-.109-3.586,15.815,15.815,0,0,0-.758-1.84s-11.732-11.736-23.2-13.381c-2.4-.345.963-37.833-15.321-39.3-14.876-1.343-10.925,2.912-10.925,2.912" transform="translate(-1738.325 -788.852)" fill="#2f539b"/>
        <path id="Trazado_183892" data-name="Trazado 183892" d="M2111.914,674.719s.276-1.375.586-2.423c.137-.464-.82-3.512-1.482-3.887s-2.388,1.678-1.9,3.254c.251.81.663,3.444.663,3.444Z" transform="translate(-1661.519 -526.543)" fill="#ffb27d"/>
        <path id="Trazado_183893" data-name="Trazado 183893" d="M2388.4,697.627c.084.174.2.485.306.778,0-.08,0-.159,0-.236.006-.583,2.181-3.754,3.075-3.952s2.157,2.772,1.04,4.414c-.574.843-2.308,3.849-2.308,3.849l-1.919-1.159a2.683,2.683,0,0,0-.53-1.465,10.319,10.319,0,0,1-.364-2.564s.385-.308.7.335" transform="translate(-1881.061 -546.903)" fill="#ffb27d"/>
        <path id="Trazado_183894" data-name="Trazado 183894" d="M2225.108,795.956s-.149,1.968-.417,3.8c3.477.418,5.778-2.469,6.788-4.109Z" transform="translate(-1752.636 -626.822)" fill="#ed975d"/>
        <path id="Trazado_183895" data-name="Trazado 183895" d="M2222.909,738.024a19.984,19.984,0,0,0,3.3-5.415c.621-1.852.7-9.044-6.534-9.083a9.733,9.733,0,0,0-4.215.915c-1.692.81-4.246,2.722-2.679,9.242l.335,2.174Z" transform="translate(-1742.872 -569.999)" fill="#163560"/>
        <path id="Trazado_183896" data-name="Trazado 183896" d="M2212.223,749.859s8.878,1.471,9.709-4.072,2.536-9.087-3.1-10.261-7.055.776-7.782,2.559-1.118,11.248,1.17,11.774" transform="translate(-1741.447 -579.174)" fill="#ffb27d"/>
        <path id="Trazado_183897" data-name="Trazado 183897" d="M2226.624,730.092s2.359,6.9,5.956,8.421,5.368.758,5.368.758a10.708,10.708,0,0,1-2.533-6.772s-6.492-5.229-8.791-2.406" transform="translate(-1754.159 -574.515)" fill="#163560"/>
        <path id="Trazado_183898" data-name="Trazado 183898" d="M2214.386,731.413a6.686,6.686,0,0,0-3.09,2.188,11.3,11.3,0,0,0-1.718,4.338s-1.178-4.694,1.257-6.888c2.583-2.327,3.551.363,3.551.363" transform="translate(-1740.506 -575.182)" fill="#163560"/>
        <path id="Trazado_183899" data-name="Trazado 183899" d="M2171.432,703.6s-1.95,15.925-6.062,19.732c-2.854,2.642-12.954,6.9-15.368,10.831a12.748,12.748,0,0,0-.916,3.77,66.448,66.448,0,0,0,2.741,28.366q.263.787.549,1.573a2.661,2.661,0,0,1-1.58,3.446,45.344,45.344,0,0,1-7.438,1.945c-.584.1-1.188.193-1.8.27-8.471,1.076-14.2-.911-17.118-2.382a3.879,3.879,0,0,1-2.122-3.678c.175-3.143,1.748-6.252,2.457-13.807.537-5.733-3.376-13.818-3.166-16.869.082-1.206.679-6.562.073-7.391-4.03-5.533-10.806-10.834-11.848-15.887-1.2-5.825-.424-17.45-.424-17.45a6.657,6.657,0,0,1,1.88-.474,2.775,2.775,0,0,1,1.948,1.051s3.024,11.323,3.176,12.085c.8,4.062,8.529,9.947,10.869,11.128A18.377,18.377,0,0,0,2133.5,722s-1.905,3.291.914,3.748c3.393.55,6.012-3.351,6.012-3.351a15.189,15.189,0,0,0,5.773.032c3.079-.452,14.037-4.157,15.62-6.969,1.154-2.045,7.239-13.385,7.239-13.385a1.585,1.585,0,0,1,1.473.144,1.662,1.662,0,0,1,.9,1.381" transform="translate(-1661.619 -547.993)" fill="#aec3ff"/>
        <path id="Trazado_183900" data-name="Trazado 183900" d="M2219.342,788.727s-.38.766-.891.78a6.042,6.042,0,0,1-1.9-.241,7.4,7.4,0,0,1-.3-.933,8.626,8.626,0,0,1,3.091.394" transform="translate(-1745.987 -621.052)" fill="#fff"/>
        <path id="Trazado_183901" data-name="Trazado 183901" d="M2279.941,923.446s-7.622-1.306-8.127-6.731c-.539-5.78,5.381-21.647,5.381-21.647l0,.012a66.451,66.451,0,0,0,2.742,28.367" transform="translate(-1789.733 -705.143)" fill="#94b0ed"/>
        <path id="Trazado_183902" data-name="Trazado 183902" d="M2087.5,358.359l-.794-2.913a7.943,7.943,0,0,0-6.73-5.8l-20.713-2.447-1.553,13.143-6.627,56.11,85.682,10.121,6.627-56.11-48.486-5.727a8.739,8.739,0,0,1-7.406-6.379" transform="translate(-1615.867 -273.529)" fill="#f99746"/>
        <path id="Trazado_183903" data-name="Trazado 183903" d="M2127.1,513.536l.59-4.992,18.415-5.6-.6,5.1-12.821,3.584,11.633,6.473-.611,5.173Z" transform="translate(-1675.753 -396.223)" fill="#fff"/>
        <path id="Trazado_183904" data-name="Trazado 183904" d="M2231.549,484.941l4.667.551L2216.233,517.1l-4.666-.551Z" transform="translate(-1742.297 -382.041)" fill="#fff"/>
        <path id="Trazado_183905" data-name="Trazado 183905" d="M2341.3,526.494l-.59,4.992-18.415,5.6.6-5.1,12.821-3.584-11.633-6.473.611-5.173Z" transform="translate(-1829.532 -407.106)" fill="#fff"/>
        <path id="Trazado_183906" data-name="Trazado 183906" d="M2386.777,707.968a16.255,16.255,0,0,0-.472-2.618c-.219-.412.329-.531.8.412s1.4.658,1.866,1.592.055,1.18-.521,1.125a8.253,8.253,0,0,1-1.669-.51" transform="translate(-1879.918 -555.438)" fill="#ffb27d"/>
        <path id="Trazado_183907" data-name="Trazado 183907" d="M2121.5,678.454s1.256-1.358,1.25-1.966.878-2.113.631-2.388-.685.165-.919.576-1.194.387-1.414,1.511a3.716,3.716,0,0,0,.451,2.267" transform="translate(-1670.948 -530.995)" fill="#ffb27d"/>
        <path id="Trazado_183908" data-name="Trazado 183908" d="M1185.855,569.489l32.536,14.251V571.06l-16.952-6.971,16.952-6.971V544.556l-32.536,14.251Z" transform="translate(-934.23 -429.006)" fill="#2c3a64"/>
        <path id="Trazado_183909" data-name="Trazado 183909" d="M1375.778,503.169l-28.114,58.766h11.883l28.114-58.766Z" transform="translate(-1061.705 -396.401)" fill="#2c3a64"/>
        <path id="Trazado_183910" data-name="Trazado 183910" d="M1546.416,544.556v12.68l16.952,6.971-16.952,6.971V583.74l32.536-14.251V558.807Z" transform="translate(-1218.283 -429.006)" fill="#2c3a64"/>
        <rect id="Rectángulo_37236" data-name="Rectángulo 37236" width="11.883" height="3.356" transform="translate(285.96 162.178)" fill="#2c3a64"/>
        <rect id="Rectángulo_37237" data-name="Rectángulo 37237" width="5.551" height="3.355" transform="translate(320.405 103.412)" fill="#2c3a64"/>
        <path id="Trazado_183911" data-name="Trazado 183911" d="M1185.855,553.675l32.536,14.251v-12.68l-16.952-6.971,16.952-6.971V528.742l-32.536,14.251Z" transform="translate(-934.23 -416.548)" fill="#2b478b"/>
        <path id="Trazado_183912" data-name="Trazado 183912" d="M1375.778,487.355l-28.114,58.766h11.883l28.114-58.766Z" transform="translate(-1061.705 -383.943)" fill="#2b478b"/>
        <path id="Trazado_183913" data-name="Trazado 183913" d="M1546.416,528.742v12.68l16.952,6.971-16.952,6.971v12.562l32.536-14.251V542.993Z" transform="translate(-1218.283 -416.548)" fill="#2b478b"/>
        <path id="Trazado_183914" data-name="Trazado 183914" d="M1025.473,553.928h-1.982l-16.218-61.882L986.426,412.5H753.6l35.268,141.432-2.518.026L750.662,410.576l237.4-.206.208.791,20.84,79.978Z" transform="translate(-591.38 -323.293)" fill="#94b0ed"/>
        <path id="Trazado_183915" data-name="Trazado 183915" d="M1978.575,855.185l-1.912.256-16.647-63.519,1.84-.907Z" transform="translate(-1544.122 -623.17)" fill="#aec3ff"/>
        <path id="Trazado_183916" data-name="Trazado 183916" d="M919.848,526.038a1.542,1.542,0,0,0-.275,1.65.012.012,0,0,0,0,.008c.4,1.1,1.712,2.328,3.239,3.554.2.158.369.3.52.434.04.035.08.07.117.1l.09.081c1.424,1.313.888,1.613,3.446,4.277,2.917,3.035,4.925,3.089,5.5,2.813.483-.236-.5-1.845-1.587-3.655-.053-.087-.1-.176-.159-.264-.145-.24-.289-.485-.433-.727-1.275-2.177-.948-3.2-.646-6.439.246-2.633,4.1-14.711,4.1-14.711l-5.59-.963s-1.683,9.617-3.538,11.1c-.992.789-2.1.8-3.055,1.385-.067.041-.133.082-.2.125a7.328,7.328,0,0,0-1.529,1.229" transform="translate(-724.354 -403.517)" fill="#ffb27d"/>
        <path id="Trazado_183917" data-name="Trazado 183917" d="M919.848,572.385a1.542,1.542,0,0,0-.275,1.65.012.012,0,0,0,0,.008,11.87,11.87,0,0,0,3.245,3.543c.193.16.363.307.514.445.04.035.08.07.117.1l.09.081c1.424,1.313.888,1.613,3.446,4.277,2.917,3.035,4.925,3.089,5.5,2.813.483-.236-.5-1.845-1.587-3.655a12.426,12.426,0,0,1-5.2-3.831c-1.756-2.241-2.928-5.121-4.124-6.789-.067.041-.133.082-.2.125a7.332,7.332,0,0,0-1.529,1.229" transform="translate(-724.354 -449.864)" fill="#233862"/>
        <path id="Trazado_183918" data-name="Trazado 183918" d="M1117.143,516.231c.345,1.725,2.8,1.438,5.552.766s2.095.127,6.006-.306,5.1-1.891,5.215-2.473c.107-.516-1.826-.7-3.9-.937-.261-.029-.522-.062-.784-.094-2.34-.294-4.054-1.8-6.179-3.044-2.014-1.175-5.018-5.961-5.018-5.961l-5.363.425s2.814,4.275,3.9,6.133a6.48,6.48,0,0,1,.527,3.655,6.88,6.88,0,0,0,.041,1.835" transform="translate(-876.575 -397.201)" fill="#ffb27d"/>
        <path id="Trazado_183919" data-name="Trazado 183919" d="M1138.989,550.777c2.748-.672,2.095.127,6.006-.306s5.1-1.891,5.214-2.473c.107-.516-1.826-.7-3.9-.937l-.019.04a11.025,11.025,0,0,1-5.6,1.741c-2.653.064-5.464-.7-7.3-.666a6.875,6.875,0,0,0,.041,1.835c.345,1.726,2.8,1.438,5.552.766" transform="translate(-892.869 -430.981)" fill="#233862"/>
        <path id="Trazado_183920" data-name="Trazado 183920" d="M968.564,367.422l-5.014,13.491-6.546,17.615a10.6,10.6,0,0,1-3.477-.318,15.074,15.074,0,0,1-3.363-1.637s1.817-18.914,5.208-29.772a19.332,19.332,0,0,1,2.917-6.31c5.256-6.212,10.274,6.93,10.274,6.93" transform="translate(-748.55 -282.685)" fill="#2c3a64"/>
        <path id="Trazado_183921" data-name="Trazado 183921" d="M832.8,288.364c-3.284-1.06-12.653.3-22.064,2.143l-1.97-3.25-20.327-1.587s-6.707,14.875-3.035,24.352a3.437,3.437,0,0,0,3.44,2.316s.3,0,.3,0,12.1-.007,16.026-.007c10.108,0,21.394-6.949,22.853-7.241,2.389-.478,3.345,4.3,5.735,9.319s22.461,22.222,22.461,22.222a17.669,17.669,0,0,0,4.359-.447A4.294,4.294,0,0,0,862.451,335s-22.24-44.249-29.648-46.638" transform="translate(-617.887 -225.053)" fill="#2f539b"/>
        <path id="Trazado_183922" data-name="Trazado 183922" d="M771.545.32c-2.848-.733-6.747,0-7.393.061-7.734.762-10.333,9.39-9.162,16.083,1.08,6.177-2.053,7.887-5.684,12.766-7.281,9.783-2.522,18.032,3.223,20.159,3.447,1.276,8.233-1.943,8.233-1.943.087.034,15.038-9.8,21.167-15.337C792.136,28.115,778.8,2.188,771.545.32" transform="translate(-587.398 0.004)" fill="#2b478b"/>
        <path id="Trazado_183923" data-name="Trazado 183923" d="M834.515,99.616c.2.716-3.18,2.032-5.763,1.548-2.429-.453-5.153-3.3-4.591-3.565.93-.442,1.555-1.54,1.047-7.481l.462.052,7.773.887s.024,2.422.2,4.69a15.348,15.348,0,0,0,.867,3.868" transform="translate(-649.225 -70.995)" fill="#ffb27d"/>
        <path id="Trazado_183924" data-name="Trazado 183924" d="M839.323,91.252s.023,2.421.2,4.69c-4.29.23-6.873-3.489-7.977-5.577Z" transform="translate(-655.104 -71.189)" fill="#ed975d"/>
        <path id="Trazado_183925" data-name="Trazado 183925" d="M834.088,41.58s-10.114,1-10.638-5.31-2.182-10.427,4.253-11.331,7.891,1.4,8.578,3.462.424,12.757-2.193,13.179" transform="translate(-648.264 -19.488)" fill="#ffb27d"/>
        <path id="Trazado_183926" data-name="Trazado 183926" d="M821.863,17.288s-1.274,7.706-7.033,9.534c-4.2,1.334-6.1.454-6.1.454a17.128,17.128,0,0,0,2.742-6.411,3.083,3.083,0,0,1,2.057-2.353c2.986-.982,6.6-3.668,8.34-1.224" transform="translate(-637.123 -12.832)" fill="#2b478b"/>
        <path id="Trazado_183927" data-name="Trazado 183927" d="M861.662,22.184a6.691,6.691,0,0,1,3.595,2.884,12.9,12.9,0,0,1,1.81,6.232s1.77-7.132-.811-9.785c-2.737-2.813-4.594.669-4.594.669" transform="translate(-678.827 -16.084)" fill="#2b478b"/>
        <path id="Trazado_183928" data-name="Trazado 183928" d="M783.957,146.033c.18.766.335,1.471.46,2.121.206,1.049.348,1.953.447,2.751.309,2.488.216,3.962.425,5.574a13.9,13.9,0,0,0,.756,3.035c.418,1.155,11.408,2.185,17.661,1.77,1.986-.129,3.5-.409,4.035-.872,2.23-1.937,2.008,2.323,2.314-18.064.148-9.944-8.438-18.8-8.438-18.8s-.686,4.248-9.2-.808c-.3-.177-3.656,4.789-6.884,10.9-3.556,6.755-2.581,8.184-1.577,12.39" transform="translate(-616.878 -96.691)" fill="#f99746"/>
        <path id="Trazado_183929" data-name="Trazado 183929" d="M963.55,410.533,957,428.148a10.6,10.6,0,0,1-3.477-.318,15.076,15.076,0,0,1-3.363-1.637s1.817-18.914,5.208-29.772Z" transform="translate(-748.55 -312.305)" fill="#2b478b"/>
        <path id="Trazado_183930" data-name="Trazado 183930" d="M870.643,126.557s8.761,1.486,9.79,5.258,8.137,24.87,8.137,24.87-5.508,1.879-7.565-.178-7.16-19.09-7.16-19.09Z" transform="translate(-685.902 -99.702)" fill="#f99746"/>
        <path id="Trazado_183931" data-name="Trazado 183931" d="M1038.969,242.1l2.076-.823a4.956,4.956,0,0,1,1.922-.065c.675.212,2.362.19,2.37.467s-1.923,1.137-1.923,1.137l-.061-.023c.734,1.662,4.4,2.61,4.58,3.22.215.739-1.492,1.121-2.422,1.351s-3.208.208-4.331-.977c-.821-.866-2.21-2.057-2.21-2.057Z" transform="translate(-818.511 -189.965)" fill="#ffb27d"/>
        <path id="Trazado_183932" data-name="Trazado 183932" d="M864.75,85.814a1.738,1.738,0,0,0,1.543,1.037c1.12,0,1.422-.167,1.635-.4a3.512,3.512,0,0,0,.422-.694,9.507,9.507,0,0,0-3.6.062" transform="translate(-681.26 -67.441)" fill="#fff"/>
        <path id="Trazado_183933" data-name="Trazado 183933" d="M912.832,222.738l21.211,1.62a6.611,6.611,0,0,1-.924,4.39s-19.136,3.741-24.13,1.83-4.431-10.922-4.431-10.922Z" transform="translate(-712.606 -173.047)" fill="#f99746"/>
        <path id="Trazado_183934" data-name="Trazado 183934" d="M791.684,253.38c.309,2.488.216,3.962.425,5.574,7.955.026,18.591-6.143,18.591-6.143Z" transform="translate(-623.698 -199.166)" fill="#ed7d2b"/>
        <path id="Trazado_183935" data-name="Trazado 183935" d="M809.469,190.4s-12.393-.369-14.482-7.414c-2.3-7.739-4.865,3.183-4.865,3.183l1.368,6.97h13.6Z" transform="translate(-622.466 -141.978)" fill="#ed7d2b"/>
        <path id="Trazado_183936" data-name="Trazado 183936" d="M918.571,121.056l-.67-1.659a4.7,4.7,0,0,0-4.362-2.943H901.185v41.307h51.107V124.295h-28.92a5.177,5.177,0,0,1-4.8-3.238" transform="translate(-709.964 -91.744)" fill="#aec3ff"/>
        <path id="Trazado_183937" data-name="Trazado 183937" d="M937.515,206.8V203.82l10.444-4.575v3.043l-7.293,3,7.293,3v3.086Z" transform="translate(-738.585 -156.967)" fill="#fff"/>
        <path id="Trazado_183938" data-name="Trazado 183938" d="M1002.392,182.466h2.784l-9.559,19.981h-2.783Z" transform="translate(-782.165 -143.748)" fill="#fff"/>
        <path id="Trazado_183939" data-name="Trazado 183939" d="M1066.934,203.82V206.8l-10.444,4.575V208.33l7.293-3-7.293-3v-3.086Z" transform="translate(-832.315 -156.967)" fill="#fff"/>
        <path id="Trazado_183940" data-name="Trazado 183940" d="M881.295,219.983l.9-1.407a7.214,7.214,0,0,0,1.7-.93c1.184-.831,1.028-2.076,1.619-1.945l.007,2.737-.064.009c2.54.679,5.51-.059,5.569.573.164,1.74-1.182,2.523-2.309,3.068a4.088,4.088,0,0,1-3.4.557c-1.139-.355-2.932-.715-2.932-.715Z" transform="translate(-694.294 -169.923)" fill="#ffb27d"/>
        <path id="Trazado_183941" data-name="Trazado 183941" d="M776.18,122.764s-8.045.526-10.056,3.664-4.505,19.068-3.46,24.538,26.808-1.046,26.808-1.046l-.822-4.747s-14.868.086-15.715-1.85c-1.127-2.575,3.244-20.56,3.244-20.56" transform="translate(-600.641 -96.714)" fill="#f99746"/>
        <path id="Trazado_183942" data-name="Trazado 183942" d="M1010.281,147.6c-.069.209,1.21,2.316,3.036,1.95,1.139-.228,2.62-2.681,1.319-3.221a3.7,3.7,0,0,0-4.355,1.272" transform="translate(-795.909 -115.067)" fill="#ffb27d"/>
      </g>
    </g>
  </g>
</svg>
