<svg xmlns="http://www.w3.org/2000/svg" xmlns:xlink="http://www.w3.org/1999/xlink" width="400" height="435" viewBox="0 0 400 435">
  <defs>
    <clipPath id="clip-path">
      <rect id="Rectángulo_37129" data-name="Rectángulo 37129" width="302" height="365.278" fill="none"/>
    </clipPath>
    <clipPath id="clip-path-3">
      <rect id="Rectángulo_37083" data-name="Rectángulo 37083" width="107.207" height="10.583" fill="none"/>
    </clipPath>
    <clipPath id="clip-path-4">
      <path id="Trazado_183411" data-name="Trazado 183411" d="M196.511,99.087l-15.942,8.919v6.584a14.033,14.033,0,0,0-4.407.211l.016.088s-2.352,13.906,11.695,13.906c13.379,0,15.082-13.01,15.2-14.257a29.007,29.007,0,0,0-5.986-.089V99.087Z" transform="translate(-176.03 -99.087)" fill="none"/>
    </clipPath>
    <radialGradient id="radial-gradient" cx="0.538" cy="0.5" r="0.478" gradientTransform="matrix(1.016, 0, 0, -1, 0.102, 17.261)" gradientUnits="objectBoundingBox">
      <stop offset="0" stop-color="#ffc8af"/>
      <stop offset="1" stop-color="#ffbb9c"/>
    </radialGradient>
    <clipPath id="clip-path-5">
      <path id="Trazado_183412" data-name="Trazado 183412" d="M163.328,82.585c-1.739,9.2-.067,27.185,8.616,33.392,2.254,1.611,14.061.213,15.98-1.467q4.243-3.714,8.5-7.417a11.292,11.292,0,0,0,1.75-1.763,10.312,10.312,0,0,0,1.4-3.175c1.959-6.509,3.4-13.655,1.868-20.41a18.218,18.218,0,0,0-4.792-8.885,19.383,19.383,0,0,0-13.935-5.783c-8.856,0-17.544,5.747-19.389,15.506" transform="translate(-162.714 -67.079)" fill="none"/>
    </clipPath>
    <radialGradient id="radial-gradient-2" cx="0.511" cy="0.486" r="0.386" gradientTransform="matrix(1.137, 0, 0, -1, 0.463, 10.169)" xlink:href="#radial-gradient"/>
    <clipPath id="clip-path-7">
      <path id="Trazado_183424" data-name="Trazado 183424" d="M152.2,306.325l4.653,10.606,14.2-6.233-4.635-10.57Z" transform="translate(-152.2 -300.128)" fill="none"/>
    </clipPath>
    <radialGradient id="radial-gradient-3" cx="0.5" r="0.531" gradientTransform="matrix(0.891, 0, 0, -1, -0.966, 4.22)" xlink:href="#radial-gradient"/>
    <clipPath id="clip-path-9">
      <path id="Trazado_183426" data-name="Trazado 183426" d="M102.867,318.484h15.5l-1.11-15.879-15.5-.036Z" transform="translate(-101.757 -302.569)" fill="none"/>
    </clipPath>
    <radialGradient id="radial-gradient-4" cx="0.5" r="0.511" gradientTransform="matrix(0.958, 0, 0, -1, -0.283, 4.119)" xlink:href="#radial-gradient"/>
    <clipPath id="clip-path-11">
      <path id="Trazado_183432" data-name="Trazado 183432" d="M116.507,181.958H144.6l.229-7.69-7.391.737s-2.933-4.021-10.536-4.021-10.394,10.974-10.394,10.974" transform="translate(-116.507 -170.984)" fill="none"/>
    </clipPath>
    <radialGradient id="radial-gradient-5" cx="1.142" cy="1.383" r="1.533" gradientTransform="matrix(0, 1, 1.938, 0, -20.964, 15.066)" xlink:href="#radial-gradient"/>
    <clipPath id="clip-path-13">
      <path id="Trazado_183436" data-name="Trazado 183436" d="M182.1,168.03c-3.212.842-10.974,2.3-18.805,3.669-1.035.192-2.07.368-3.108.562-9.322,1.614-17.891,3-17.891,3l-.018.456v.3l-.211,6.935v1.759a194.44,194.44,0,0,1,21.123.347c16.487,1.177,37.75,1.879,44.79-1.44,3.3-1.563,5.935-6.689,8.008-13.01l-.107.052-27.513-9.744c-2,3.74-4.144,6.55-6.268,7.112" transform="translate(-142.07 -160.918)" fill="none"/>
    </clipPath>
    <radialGradient id="radial-gradient-6" cx="0.454" cy="0.196" r="0.591" gradientTransform="matrix(0, 1, 2.061, 0, -10.381, 7.436)" xlink:href="#radial-gradient"/>
    <clipPath id="clip-path-15">
      <rect id="Rectángulo_37123" data-name="Rectángulo 37123" width="10.986" height="27.668" fill="none"/>
    </clipPath>
  </defs>
  <g id="img3" transform="translate(-600 -2185)">
    <g id="Grupo_143801" data-name="Grupo 143801">
      <rect id="Rectángulo_37132" data-name="Rectángulo 37132" width="400" height="435" transform="translate(600 2185)" fill="#4dd0e1"/>
      <g id="Grupo_142271" data-name="Grupo 142271" transform="translate(649 2219.861)">
        <g id="Grupo_142270" data-name="Grupo 142270" clip-path="url(#clip-path)">
          <rect id="Rectángulo_37081" data-name="Rectángulo 37081" width="107.206" height="100.063" transform="translate(34.121 21.257)" fill="#112b46"/>
          <g id="Grupo_142244" data-name="Grupo 142244">
            <g id="Grupo_142243" data-name="Grupo 142243" clip-path="url(#clip-path)">
              <g id="Grupo_142242" data-name="Grupo 142242" transform="translate(34.12 21.257)" style="mix-blend-mode: screen;isolation: isolate">
                <g id="Grupo_142241" data-name="Grupo 142241">
                  <g id="Grupo_142240" data-name="Grupo 142240" clip-path="url(#clip-path-3)">
                    <rect id="Rectángulo_37082" data-name="Rectángulo 37082" width="107.206" height="10.583" transform="translate(0.001)" fill="#1d262d"/>
                  </g>
                </g>
              </g>
              <path id="Trazado_183401" data-name="Trazado 183401" d="M107.865,24.442a1.941,1.941,0,1,1-1.941-1.94,1.94,1.94,0,0,1,1.941,1.94" transform="translate(10.288 2.226)" fill="#606bf1"/>
              <path id="Trazado_183402" data-name="Trazado 183402" d="M115.235,24.442a1.94,1.94,0,1,1-1.94-1.94,1.939,1.939,0,0,1,1.94,1.94" transform="translate(11.018 2.226)" fill="#fbd15b"/>
              <path id="Trazado_183403" data-name="Trazado 183403" d="M122.079,24.628a1.94,1.94,0,1,1-1.94-1.94,1.939,1.939,0,0,1,1.94,1.94" transform="translate(11.695 2.245)" fill="#ff8578"/>
              <rect id="Rectángulo_37084" data-name="Rectángulo 37084" width="15.184" height="1.276" transform="translate(53.183 41.677)" fill="#ff8578"/>
              <rect id="Rectángulo_37085" data-name="Rectángulo 37085" width="15.184" height="1.276" transform="translate(71.005 41.677)" fill="#fbd15b"/>
              <rect id="Rectángulo_37086" data-name="Rectángulo 37086" width="23.546" height="1.276" transform="translate(57.879 48.552)" fill="#606bf1"/>
              <rect id="Rectángulo_37087" data-name="Rectángulo 37087" width="11.969" height="1.276" transform="translate(85.319 48.552)" fill="#ff8578"/>
              <rect id="Rectángulo_37088" data-name="Rectángulo 37088" width="10.341" height="1.276" transform="translate(66.047 55.426)" fill="#fbd15b"/>
              <rect id="Rectángulo_37089" data-name="Rectángulo 37089" width="34.306" height="1.276" transform="translate(82.366 55.426)" fill="#fbd15b"/>
              <rect id="Rectángulo_37090" data-name="Rectángulo 37090" width="39.207" height="1.276" transform="translate(74.08 62.301)" fill="#606bf1"/>
              <rect id="Rectángulo_37091" data-name="Rectángulo 37091" width="12.066" height="1.276" transform="translate(64.277 69.176)" fill="#ff8578"/>
              <rect id="Rectángulo_37092" data-name="Rectángulo 37092" width="12.066" height="1.276" transform="translate(81.506 69.176)" fill="#606bf1"/>
              <rect id="Rectángulo_37093" data-name="Rectángulo 37093" width="17.553" height="1.276" transform="translate(53.183 104.842)" fill="#ff8578"/>
              <rect id="Rectángulo_37094" data-name="Rectángulo 37094" width="17.554" height="1.276" transform="translate(76.884 104.842)" fill="#fbd15b"/>
              <rect id="Rectángulo_37095" data-name="Rectángulo 37095" width="17.553" height="1.276" transform="translate(99.949 104.842)" fill="#ff8578"/>
              <rect id="Rectángulo_37096" data-name="Rectángulo 37096" width="34.306" height="1.276" transform="translate(57.88 97.968)" fill="#606bf1"/>
              <rect id="Rectángulo_37097" data-name="Rectángulo 37097" width="34.306" height="1.276" transform="translate(97.535 97.968)" fill="#ff8578"/>
              <rect id="Rectángulo_37098" data-name="Rectángulo 37098" width="34.043" height="1.276" transform="translate(66.047 91.093)" fill="#ff8578"/>
              <rect id="Rectángulo_37099" data-name="Rectángulo 37099" width="9.475" height="1.276" transform="translate(103.059 91.093)" fill="#fbd15b"/>
              <rect id="Rectángulo_37100" data-name="Rectángulo 37100" width="12.816" height="1.276" transform="translate(63.824 84.218)" fill="#fbd15b"/>
              <rect id="Rectángulo_37101" data-name="Rectángulo 37101" width="12.816" height="1.276" transform="translate(83.446 84.218)" fill="#606bf1"/>
              <rect id="Rectángulo_37102" data-name="Rectángulo 37102" width="12.816" height="1.276" transform="translate(104.504 84.218)" fill="#ff8578"/>
              <rect id="Rectángulo_37103" data-name="Rectángulo 37103" width="17.97" height="1.276" transform="translate(78.681 77.343)" fill="#fbd15b"/>
              <rect id="Rectángulo_37104" data-name="Rectángulo 37104" width="17.97" height="1.276" transform="translate(53.931 77.343)" fill="#606bf1"/>
              <rect id="Rectángulo_37105" data-name="Rectángulo 37105" width="1.633" height="1.634" transform="translate(43.247 40.451)" fill="#f9fbfc"/>
              <path id="Trazado_183404" data-name="Trazado 183404" d="M40.986,96.15H39.353V92.82h1.633Zm0-8.33H39.353V84.49h1.633Zm0-8.329H39.353V76.16h1.633Zm0-8.329H39.353V67.831h1.633Zm0-8.329H39.353V59.5h1.633Zm0-8.329H39.353V51.173h1.633Zm0-8.33H39.353V42.843h1.633Z" transform="translate(3.894 4.239)" fill="#f9fbfc"/>
              <rect id="Rectángulo_37106" data-name="Rectángulo 37106" width="1.633" height="1.634" transform="translate(43.247 105.386)" fill="#f9fbfc"/>
              <rect id="Rectángulo_37107" data-name="Rectángulo 37107" width="88.278" height="54.414" transform="translate(164.394)" fill="#ff8578"/>
              <path id="Trazado_183405" data-name="Trazado 183405" d="M182.05,20.195l-10.5,4.483,10.5,4.417-1.375,3.174-12.6-5.628V22.747l12.6-5.66Z" transform="translate(16.63 1.691)" fill="#f9fbfc"/>
              <path id="Trazado_183406" data-name="Trazado 183406" d="M195.889,10.551l-7.623,29.282-3.631-.851,7.656-29.249Z" transform="translate(18.268 0.963)" fill="#f9fbfc"/>
              <path id="Trazado_183407" data-name="Trazado 183407" d="M212.721,22.747v3.894l-12.6,5.628-1.374-3.174,10.47-4.417L198.75,20.2l1.374-3.109Z" transform="translate(19.665 1.691)" fill="#f9fbfc"/>
              <rect id="Rectángulo_37108" data-name="Rectángulo 37108" width="50.281" height="35.821" transform="translate(249.64 105.416)" fill="#606bf1"/>
              <path id="Trazado_183408" data-name="Trazado 183408" d="M246.929,103.175c-1.618,0-2.156.436-2.156,1.643v5.391c0,2.106-.874,2.747-2.336,3.158,1.463.385,2.336,1.026,2.336,3.106v5.391c0,1.207.565,1.643,2.156,1.643v2.362c-4.081,0-5.238-1.309-5.238-4.031V116.73c0-1.464-.385-2.029-1.72-2.029v-2.7c1.335,0,1.72-.59,1.72-2.054v-5.109c0-2.746,1.156-4.03,5.238-4.03Z" transform="translate(23.743 9.975)" fill="#f1f2f2"/>
              <path id="Trazado_183409" data-name="Trazado 183409" d="M259.017,104.843v5.109c0,1.463.385,2.054,1.746,2.054v2.7c-1.362,0-1.746.565-1.746,2.028v5.109c0,2.721-1.155,4.031-5.238,4.031v-2.362c1.592,0,2.157-.437,2.157-1.644v-5.39c0-2.079.873-2.721,2.336-3.107-1.464-.411-2.336-1.053-2.336-3.158v-5.39c0-1.207-.54-1.643-2.157-1.643v-2.363c4.083,0,5.238,1.284,5.238,4.031" transform="translate(25.109 9.974)" fill="#f1f2f2"/>
              <rect id="Rectángulo_37109" data-name="Rectángulo 37109" width="56.408" height="37.729" transform="translate(0 7.804)" fill="#fbd15b"/>
              <path id="Trazado_183410" data-name="Trazado 183410" d="M17.167,17.271A9.258,9.258,0,0,0,29.556,30.73l5.92,5.92a.639.639,0,0,0,.906,0l1.663-1.663a.639.639,0,0,0,0-.906l-5.92-5.92A9.259,9.259,0,0,0,17.167,17.271M29.05,27.656a6.547,6.547,0,1,1,0-9.259,6.555,6.555,0,0,1,0,9.259" transform="translate(1.501 1.363)" fill="#f9fbfc"/>
            </g>
          </g>
          <g id="Grupo_142246" data-name="Grupo 142246" transform="translate(193.447 108.891)">
            <g id="Grupo_142245" data-name="Grupo 142245" clip-path="url(#clip-path-4)">
              <rect id="Rectángulo_37111" data-name="Rectángulo 37111" width="29.251" height="29.708" transform="translate(-2.204 0)" fill="url(#radial-gradient)"/>
            </g>
          </g>
          <g id="Grupo_142248" data-name="Grupo 142248" transform="translate(178.813 73.716)">
            <g id="Grupo_142247" data-name="Grupo 142247" clip-path="url(#clip-path-5)">
              <rect id="Rectángulo_37112" data-name="Rectángulo 37112" width="51.091" height="58.09" transform="translate(-11.518 2.238) rotate(-12.152)" fill="url(#radial-gradient-2)"/>
            </g>
          </g>
          <g id="Grupo_142250" data-name="Grupo 142250">
            <g id="Grupo_142249" data-name="Grupo 142249" clip-path="url(#clip-path)">
              <path id="Trazado_183413" data-name="Trazado 183413" d="M189.163,90.324c.115-1.468,1.625-3.076,3.141-2.123,1.569.986,1.2,3.594.549,5.029-.51,1.126-2.215,2.357-3.37,1.311-.968-.877.536-1.912.586-2.713.045-.72-1.4-1.236-.807-2.008" transform="translate(18.712 8.698)" fill="#f7b094"/>
              <path id="Trazado_183414" data-name="Trazado 183414" d="M189.419,96.975a4.484,4.484,0,0,0,4.942-2.936,16.885,16.885,0,0,0,.606-4.721,11.3,11.3,0,0,1,.388,5.206c-.41,3.211-1.535,6.269-4.055,6.309s-1.88-3.857-1.88-3.857" transform="translate(18.734 8.837)" fill="#f7b094"/>
              <path id="Trazado_183415" data-name="Trazado 183415" d="M190.982,97.545a.6.6,0,0,1-.177.054c-.98.136-1.371-1.049-1.517-1.791a33.028,33.028,0,0,1-.347-5.24,3.971,3.971,0,0,0-.159-1.4c-.551-1.262-2.017-2.08-2.465-3.381-.521-1.515.949-3.026.366-4.684-.893-2.54-4.154-3.123-6.512-3.1a74.053,74.053,0,0,0-10.482,1.24c-3.687.573-8.4,1.115-11.649-1.217-3.916-2.81-5.551-10.134-2.629-14.143a9.487,9.487,0,0,1,7.26-3.411c2.806-.064,5.176,1.609,7.75,2.45,2.05.67,4.032-1.29,5.947-1.673,2.408-.481,3.431,2.147,5.561,2.219,2.07.07,4.1-1.546,6.112-1.913,4.012-.733,3.776,3.3,6.467,4.673,1.673.856,3.834.337,5.527,1.208,1.286.659,1.466,1.82,1.746,3.135a30.926,30.926,0,0,0,.63,3.529,7.982,7.982,0,0,0,1.789,2.344,8.611,8.611,0,0,1,1.49,2.837,17.684,17.684,0,0,1,.742,7.2,48.983,48.983,0,0,1-3.014,11.854c-.878,2.476-1.2,5.053-2.555,7.4-.363.63-1.974,2.469-2.573,1.1a2.008,2.008,0,0,1-.087-.947c.178-2.552,2.554-19-3.675-17.022a4.418,4.418,0,0,0-2.673,2.744,10.672,10.672,0,0,0-.549,4.55c.011.225.016.449.008.674a.77.77,0,0,1-.332.709" transform="translate(15.229 5.983)" fill="#3d3d7a"/>
              <path id="Trazado_183416" data-name="Trazado 183416" d="M180.2,112.429c7.084-1.139,11.758-6.734,11.758-6.734a12.91,12.91,0,0,1-12.183,9.929Z" transform="translate(17.787 10.458)" fill="#f7b094"/>
              <path id="Trazado_183417" data-name="Trazado 183417" d="M190.74,228.795h10.14v97.284a1.787,1.787,0,0,1-1.787,1.787h-6.566a1.787,1.787,0,0,1-1.787-1.787Z" transform="translate(18.872 22.637)" fill="#0a2033"/>
              <path id="Trazado_183418" data-name="Trazado 183418" d="M169.983,230.06h55.762v1.522a6.939,6.939,0,0,1-6.939,6.939H176.922a6.939,6.939,0,0,1-6.939-6.939Z" transform="translate(16.818 22.762)" fill="#30475e"/>
              <path id="Trazado_183419" data-name="Trazado 183419" d="M190.74,308.45h10.14v22.544a1.787,1.787,0,0,1-1.787,1.787h-6.566a1.787,1.787,0,0,1-1.787-1.787Z" transform="translate(18.872 30.518)" fill="#0a2033"/>
              <path id="Trazado_183420" data-name="Trazado 183420" d="M147.474,325.724a5.934,5.934,0,1,0,5.934-5.934,5.935,5.935,0,0,0-5.934,5.934" transform="translate(14.591 31.64)" fill="#0a2033"/>
              <path id="Trazado_183421" data-name="Trazado 183421" d="M232.434,325.724a5.934,5.934,0,1,0,5.934-5.934,5.935,5.935,0,0,0-5.934,5.934" transform="translate(22.997 31.64)" fill="#0a2033"/>
              <rect id="Rectángulo_37113" data-name="Rectángulo 37113" width="20.399" height="17.825" transform="translate(204.483 331.413)" fill="#30475e"/>
              <path id="Trazado_183422" data-name="Trazado 183422" d="M147.474,322.366H252.709V320.3a6.321,6.321,0,0,0-6.321-6.32H153.794a6.32,6.32,0,0,0-6.32,6.32Z" transform="translate(14.591 31.065)" fill="#fbd15b"/>
              <rect id="Rectángulo_37114" data-name="Rectángulo 37114" width="3.518" height="66.539" transform="translate(211.165 263.284)" fill="#30475e"/>
              <path id="Trazado_183423" data-name="Trazado 183423" d="M238.061,164.627a4.137,4.137,0,0,0-4.27,4.368c.7,12.076-1.864,41.539-13.114,51.592C206.924,232.878,167.94,231.2,167.94,231.2s-6.438,7.9,6.438,9.656,49.162.586,57.942-7.608c8.5-7.932,13.542-28.712,9.741-64.88a4.165,4.165,0,0,0-4-3.745" transform="translate(16.457 16.288)" fill="#fbd15b"/>
            </g>
          </g>
          <g id="Grupo_142252" data-name="Grupo 142252" transform="translate(167.259 329.823)">
            <g id="Grupo_142251" data-name="Grupo 142251" clip-path="url(#clip-path-7)">
              <rect id="Rectángulo_37116" data-name="Rectángulo 37116" width="18.857" height="16.803" transform="translate(0)" fill="url(#radial-gradient-3)"/>
            </g>
          </g>
          <g id="Grupo_142254" data-name="Grupo 142254">
            <g id="Grupo_142253" data-name="Grupo 142253" clip-path="url(#clip-path)">
              <path id="Trazado_183425" data-name="Trazado 183425" d="M236.424,193.224c-.878,1.756-63.99.035-69.951.579,0,0-38.628,18.436-44.176,35.7a18.859,18.859,0,0,0-.544,6.777c1.545,24.3,29.216,82.488,29.216,82.488l4.249-1.862,14.222-6.2,2.019-.878s-21.947-65.4-17.558-68.915,54.132-12.291,71.391-16.961c17.278-4.688,11.132-30.726,11.132-30.726" transform="translate(12.04 19.118)" fill="#56548c"/>
            </g>
          </g>
          <g id="Grupo_142256" data-name="Grupo 142256" transform="translate(111.825 332.506)">
            <g id="Grupo_142255" data-name="Grupo 142255" clip-path="url(#clip-path-9)">
              <rect id="Rectángulo_37118" data-name="Rectángulo 37118" width="16.613" height="15.915" transform="translate(0)" fill="url(#radial-gradient-4)"/>
            </g>
          </g>
          <g id="Grupo_142258" data-name="Grupo 142258">
            <g id="Grupo_142257" data-name="Grupo 142257" clip-path="url(#clip-path)">
              <path id="Trazado_183427" data-name="Trazado 183427" d="M169.152,193.256l-.562.246s-64.666,9.077-75.2,27.214c-6.847,11.8,6.407,98.013,6.407,98.013l22.879.053s-3.422-71.817-2.281-75.82c1.282-4.565,3.477-6.216,4.355-6.689a18.859,18.859,0,0,1,.544-6.777c5.549-17.26,44.176-35.7,44.176-35.7a1.106,1.106,0,0,1-.316-.544" transform="translate(9.046 19.121)" fill="#3d3d7a"/>
              <path id="Trazado_183428" data-name="Trazado 183428" d="M224.7,138.886l-4.336.6a212.127,212.127,0,0,1-3.635,23.388L162.7,183.378l-.738,3.916-.667-.053c.018.808.018,1.6.053,2.335.123,4.512.422,7.761.9,9.06a1.11,1.11,0,0,0,.316.545c1.467,1.2,20.575-1.123,41.232,6.462,17.916,6.578,27.958,13.764,28.422,12.8,5.631-11.706-4.62-57.643-7.517-79.556" transform="translate(15.959 13.742)" fill="#ff8578"/>
              <path id="Trazado_183429" data-name="Trazado 183429" d="M219.062,165.626c-1.44,6.918-5.162,20.683-12.466,22.527-9.533,2.423-27.969,2.3-45.247,1.369-.035-.737-.035-1.528-.053-2.335l.667.053.737-3.916,54.026-20.507a211.97,211.97,0,0,0,3.634-23.388,1.523,1.523,0,0,0,.018.193c.105,1.808.843,15.784-1.317,26" transform="translate(15.959 13.795)" fill="#f4675d"/>
              <path id="Trazado_183430" data-name="Trazado 183430" d="M165.856,123.18c-.966,1.756-2.353,20.543-3.108,39.189L151.7,152.062c4.688-9.077,14.152-28.882,14.152-28.882" transform="translate(15.01 12.188)" fill="#f4675d"/>
              <path id="Trazado_183431" data-name="Trazado 183431" d="M162.527,174.433c-9.323,1.615-17.892,3-17.892,3l-.018.457c-10.376-8.288-26.161-31.763-26.161-31.763s4.723-5.672,5.9-7.164c.175-.229,25.915,17.487,27.232,17.329.334-.034,1.651-2.352,3.407-5.794l11.043,10.307c-.175,4.442-.315,8.866-.4,13.063-1.036.192-2.072.368-3.108.562" transform="translate(11.72 13.749)" fill="#f7b094"/>
            </g>
          </g>
          <g id="Grupo_142260" data-name="Grupo 142260" transform="translate(128.034 187.901)">
            <g id="Grupo_142259" data-name="Grupo 142259" clip-path="url(#clip-path-11)">
              <rect id="Rectángulo_37120" data-name="Rectángulo 37120" width="15.325" height="29.702" transform="translate(-1.718 10.698) rotate(-80.879)" fill="url(#radial-gradient-5)"/>
            </g>
          </g>
          <g id="Grupo_142262" data-name="Grupo 142262">
            <g id="Grupo_142261" data-name="Grupo 142261" clip-path="url(#clip-path)">
              <path id="Trazado_183433" data-name="Trazado 183433" d="M125.754,139.518l.211.176c-1.177,1.492-5.9,7.163-5.9,7.163l-2.932-2.072a7.289,7.289,0,0,1-6.988-.088c-3.916-2.124-1.491-7.2-1.291-7.8-.758.214-5.451,4.006-6.188,3.6s-1.281-1.739,3.968-6.918c5.232-5.18,12.361,1.475,12.571,1.475Z" transform="translate(10.112 13.022)" fill="#f7b094"/>
              <path id="Trazado_183434" data-name="Trazado 183434" d="M110.014,142.973s-1.132,2.12.88,3.041a20.052,20.052,0,0,0,7.609,1.424c1.681-.163,3.019-2.515,3.019-2.515l-5.094-4.779h-4.072Z" transform="translate(10.853 13.866)" fill="#f7b094"/>
              <path id="Trazado_183435" data-name="Trazado 183435" d="M109.811,144.021c.3-1.041,3.194-.485,4.987-.443,1.32.031,2.043-.314,2.452-1.321s-1.509-2.61-1.886-2.106.691,1.21.723,1.878-1.887.888-3.365.888a36.007,36.007,0,0,0-4.028.385Z" transform="translate(10.754 13.857)" fill="#e8987c"/>
            </g>
          </g>
          <g id="Grupo_142264" data-name="Grupo 142264" transform="translate(156.127 176.839)">
            <g id="Grupo_142263" data-name="Grupo 142263" clip-path="url(#clip-path-13)">
              <rect id="Rectángulo_37122" data-name="Rectángulo 37122" width="37.411" height="77.111" transform="translate(-4.073 25.368) rotate(-80.879)" fill="url(#radial-gradient-6)"/>
            </g>
          </g>
          <g id="Grupo_142269" data-name="Grupo 142269">
            <g id="Grupo_142268" data-name="Grupo 142268" clip-path="url(#clip-path)">
              <path id="Trazado_183437" data-name="Trazado 183437" d="M184.289,160.918l27.513,9.744-1.245,3.677-27.232-11.682Z" transform="translate(18.138 15.921)" fill="#f7b094"/>
              <path id="Trazado_183438" data-name="Trazado 183438" d="M186.459,165.645c-2,3.74-4.144,6.549-6.268,7.111-3.213.843-10.974,2.3-18.805,3.669.088-4.2.229-8.621.4-13.063.755-18.647,2.142-37.433,3.108-39.189,1.58-2.932,5.9-9.306,12.711-10.763l.018.088S175.274,127.4,189.321,127.4c13.38,0,15.083-13.01,15.2-14.258,6.883.773,17.436,4.214,18.893,18.05.3,2.739.72,6.251,1.264,10.236l-4.336.6s-1.756,19.489-6.268,33.307l-.105.053Z" transform="translate(15.968 11.195)" fill="#ff8578"/>
              <g id="Grupo_142267" data-name="Grupo 142267" transform="translate(202.143 147.71)" style="mix-blend-mode: screen;isolation: isolate">
                <g id="Grupo_142266" data-name="Grupo 142266">
                  <g id="Grupo_142265" data-name="Grupo 142265" clip-path="url(#clip-path-15)">
                    <path id="Trazado_183439" data-name="Trazado 183439" d="M183.943,161.006l10.986-26.6-8.094,27.669Z" transform="translate(-183.943 -134.411)" fill="#6d4b35"/>
                  </g>
                </g>
              </g>
              <path id="Trazado_183440" data-name="Trazado 183440" d="M204.286,113.147H198.3s-8.52,9.355-14,9.355-2.524-9.3-2.524-9.3H179.1a15.1,15.1,0,0,0-15,13.392c-.1.874-.191,1.7-.268,2.451-.587,5.66,22.34,9.778,22.34,9.778l11.8-.659,7.169-13.987,1.428-5.728Z" transform="translate(16.209 11.195)" fill="#ff8578"/>
              <path id="Trazado_183441" data-name="Trazado 183441" d="M134.9,327.227c.534,2.861,2.517,4.895,5.377,4.361l38.133-7.112a1.777,1.777,0,0,0,1.421-2.073l-.631-3.384s-40.106,7.018-44.32,8.187Z" transform="translate(13.345 31.564)" fill="#f1f2f2"/>
              <path id="Trazado_183442" data-name="Trazado 183442" d="M146.247,318.627c.4-.345.78-.688,1.178-1.033.765-.685,1.518-1.351,2.242-2,.382-.343.766-.685,1.12-1.007.7-.624,1.353-1.209,1.941-1.733.423-.381.818-.742,1.173-1.063l1.557-1.4a.863.863,0,0,1,1.135-.024c1.567,1.319,6.634,4.332,15.812-1.347a.88.88,0,0,1,1.248.325l5.55,10.666s-40.106,7.018-44.32,8.187c1.386-.865,6.506-5.295,11.365-9.581" transform="translate(13.345 30.562)" fill="#3d3d7a"/>
              <path id="Trazado_183443" data-name="Trazado 183443" d="M80.25,326.242c.071,2.909,1.7,5.232,4.613,5.162l38.781-.947a1.777,1.777,0,0,0,1.733-1.82l-.085-3.44s-40.712.539-45.058,1.021Z" transform="translate(7.939 32.175)" fill="#f1f2f2"/>
              <path id="Trazado_183444" data-name="Trazado 183444" d="M92.981,319.779c.448-.278.88-.555,1.328-.832.865-.554,1.713-1.092,2.532-1.613.432-.277.864-.555,1.265-.815.788-.5,1.529-.978,2.192-1.4.478-.31.925-.6,1.326-.864l1.761-1.129a.862.862,0,0,1,1.124.157c1.337,1.551,5.86,5.333,15.824,1.189a.881.881,0,0,1,1.181.52l3.779,11.414s-40.711.54-45.058,1.022c1.5-.633,7.265-4.19,12.746-7.648" transform="translate(7.939 30.967)" fill="#3d3d7a"/>
              <path id="Trazado_183445" data-name="Trazado 183445" d="M57.01,187.544,36.3,132.307H95.262l20.711,55.237Z" transform="translate(3.592 13.091)" fill="#abb5ba"/>
              <path id="Trazado_183446" data-name="Trazado 183446" d="M114.309,187.544h-3.645L89.953,132.307l3.31.147,19.157,50Z" transform="translate(8.9 13.091)" fill="#8495a0"/>
              <path id="Trazado_183447" data-name="Trazado 183447" d="M111.147,182.885h38.961L150,179.4H110.351" transform="translate(10.918 17.75)" fill="#8495a0"/>
              <rect id="Rectángulo_37124" data-name="Rectángulo 37124" width="9.381" height="154.109" transform="translate(278.672 211.169)" fill="#8495a0"/>
              <rect id="Rectángulo_37125" data-name="Rectángulo 37125" width="9.381" height="154.109" transform="translate(227.755 211.169)" fill="#abb5ba"/>
              <rect id="Rectángulo_37126" data-name="Rectángulo 37126" width="9.381" height="154.109" transform="translate(64.629 211.169)" fill="#8495a0"/>
              <rect id="Rectángulo_37127" data-name="Rectángulo 37127" width="9.381" height="154.109" transform="translate(13.71 211.169)" fill="#abb5ba"/>
              <path id="Trazado_183448" data-name="Trazado 183448" d="M297.425,193.691H4.711a4.56,4.56,0,0,1-4.561-4.56v-2a4.56,4.56,0,0,1,4.561-4.56H297.425a4.56,4.56,0,0,1,4.56,4.56v2a4.56,4.56,0,0,1-4.56,4.56" transform="translate(0.015 18.064)" fill="#141b56"/>
              <path id="Trazado_183449" data-name="Trazado 183449" d="M45.258,137.591l1.009,2.689H58.012L57,137.591Z" transform="translate(4.478 13.613)" fill="#8495a0"/>
              <path id="Trazado_183450" data-name="Trazado 183450" d="M151.78,149.463l-.843,1.629,11.887,12.285V159.77Z" transform="translate(14.934 14.788)" fill="#e8987c"/>
            </g>
          </g>
        </g>
      </g>
    </g>
  </g>
</svg>
