<svg xmlns="http://www.w3.org/2000/svg" width="400" height="351" viewBox="0 0 400 351">
  <g id="img7" transform="translate(-915 -5747)">
    <rect id="Rectángulo_36594" data-name="Rectángulo 36594" width="400" height="346" transform="translate(915 5747)" fill="#d9fbff"/>
    <g id="Operating_system-pana" data-name="Operating system-pana" transform="translate(887.713 5806.081)">
      <g id="freepik--background-complete--inject-3" transform="translate(35.674 29.81)">
        <path id="Trazado_185064" data-name="Trazado 185064" d="M88.04,58.337a25.779,25.779,0,0,1,6.27-2.72l1.289-6.2,10.485-.182,1.507,6.152a25.52,25.52,0,0,1,6.358,2.5l5.3-3.473,7.541,7.282L123.5,67.109a25.573,25.573,0,0,1,2.726,6.27l6.234,1.289.182,10.479-6.152,1.513a25.838,25.838,0,0,1-2.5,6.358l3.467,5.3-7.276,7.541-5.416-3.285a25.668,25.668,0,0,1-6.27,2.726l-1.348,6.2-10.479.182-1.507-6.158a25.313,25.313,0,0,1-6.358-2.5l-5.3,3.473L75.99,99.216l3.279-5.381a25.9,25.9,0,0,1-2.732-6.3l-6.2-1.3L70.15,75.762,76.3,74.255a25.9,25.9,0,0,1,2.5-6.364l-3.473-5.3,7.294-7.541ZM93.609,72.3a11.25,11.25,0,1,0,15.895-.247,11.25,11.25,0,0,0-15.895.247Z" transform="translate(-49.854 -37.798)" fill="#e0e0e0"/>
        <path id="Trazado_185065" data-name="Trazado 185065" d="M199.6,35.167a15.2,15.2,0,0,1,3.668-1.6l.754-3.65,6.134-.112.883,3.6a15.106,15.106,0,0,1,3.721,1.466l3.1-2.013,4.415,4.256-1.919,3.167a15,15,0,0,1,1.589,3.673l3.615.759.106,6.134-3.6.883a15.106,15.106,0,0,1-1.466,3.721l2.031,3.1-4.262,4.415L215.2,61.046a14.971,14.971,0,0,1-3.668,1.6l-.754,3.632-6.134.106-.871-3.6a15.088,15.088,0,0,1-3.721-1.46l-3.1,2.031-4.415-4.262,1.919-3.167a14.952,14.952,0,0,1-1.589-3.668l-3.632-.759-.106-6.128,3.6-.883a15.018,15.018,0,0,1,1.466-3.721l-2.031-3.1,4.262-4.409,3.167,1.919Zm3.267,8.171a6.576,6.576,0,1,0,9.307-.165A6.576,6.576,0,0,0,202.864,43.338Z" transform="translate(-98.792 -29.81)" fill="#ebebeb"/>
        <path id="Trazado_185066" data-name="Trazado 185066" d="M91.388,171.767a9.3,9.3,0,0,1,2.266-.989l.465-2.237,3.791-.071.542,2.225a9.278,9.278,0,0,1,2.3.907l1.913-1.254,2.726,2.631-1.177,1.954a9.184,9.184,0,0,1,.983,2.266l2.243.465.065,3.785-2.219.547a9.236,9.236,0,0,1-.907,2.3l1.254,1.913L103,188.933l-1.954-1.177a9.42,9.42,0,0,1-2.266.983l-.465,2.243-3.785.065-.547-2.225a9.219,9.219,0,0,1-2.3-.9l-1.913,1.254-2.726-2.631,1.177-1.96a9.372,9.372,0,0,1-.989-2.261l-2.243-.471-.065-3.785,2.225-.547a9.308,9.308,0,0,1,.9-2.3L86.8,173.309l2.631-2.726,1.954,1.177Zm2.019,5.045a4.068,4.068,0,1,0,5.746-.1,4.068,4.068,0,0,0-5.746.1Z" transform="translate(-55.934 -86.842)" fill="#f5f5f5"/>
        <path id="Trazado_185067" data-name="Trazado 185067" d="M646.042,257.24a11.92,11.92,0,0,1,2.943-1.272l.589-2.89,4.886-.088.706,2.873a12.058,12.058,0,0,1,2.943,1.177l2.473-1.619,3.532,3.4-1.531,2.525a11.924,11.924,0,0,1,1.272,2.943l2.89.589.088,4.886-2.873.706a12.154,12.154,0,0,1-1.177,2.943l1.619,2.467-3.4,3.532-2.525-1.531a11.9,11.9,0,0,1-2.943,1.266l-.589,2.9-4.886.082-.706-2.867a12.152,12.152,0,0,1-2.943-1.177l-2.467,1.619-3.532-3.4,1.531-2.525a11.9,11.9,0,0,1-1.266-2.943l-2.9-.589-.082-4.886,2.867-.706a12.058,12.058,0,0,1,1.177-2.943l-1.619-2.472,3.4-3.532,2.526,1.531Zm2.608,6.511a5.245,5.245,0,1,0,7.417-.13A5.245,5.245,0,0,0,648.65,263.751Z" transform="translate(-283.292 -121.606)" fill="#ebebeb"/>
        <path id="Trazado_185068" data-name="Trazado 185068" d="M303.005,450.92a3.191,3.191,0,1,1-1.118-4.38A3.191,3.191,0,0,1,303.005,450.92Z" transform="translate(-143.19 -201.032)" fill="#e0e0e0"/>
        <path id="Trazado_185069" data-name="Trazado 185069" d="M289.18,442.665a3.4,3.4,0,1,1,.378-2.575A3.4,3.4,0,0,1,289.18,442.665Z" transform="translate(-137.341 -197.505)" fill="#e0e0e0"/>
        <path id="Trazado_185070" data-name="Trazado 185070" d="M283.77,427.52a3.6,3.6,0,1,1,.394-2.735,3.615,3.615,0,0,1-.394,2.735Z" transform="translate(-134.951 -191.149)" fill="#e0e0e0"/>
        <path id="Trazado_185071" data-name="Trazado 185071" d="M289.655,412.691a3.768,3.768,0,1,1-1.319-5.169,3.768,3.768,0,0,1,1.319,5.169Z" transform="translate(-137.257 -184.95)" fill="#e0e0e0"/>
        <path id="Trazado_185072" data-name="Trazado 185072" d="M303.434,404.829a3.891,3.891,0,1,1,.425-2.953A3.9,3.9,0,0,1,303.434,404.829Z" transform="translate(-142.824 -181.638)" fill="#e0e0e0"/>
        <path id="Trazado_185073" data-name="Trazado 185073" d="M319.233,407.772a4.244,4.244,0,1,1-1.489-5.816A4.244,4.244,0,0,1,319.233,407.772Z" transform="translate(-149.056 -182.633)" fill="#e0e0e0"/>
        <path id="Trazado_185074" data-name="Trazado 185074" d="M318.56,448.136a3.085,3.085,0,1,1-1.083-4.227,3.085,3.085,0,0,1,1.083,4.227Z" transform="translate(-149.667 -199.955)" fill="#e0e0e0"/>
        <path id="Trazado_185075" data-name="Trazado 185075" d="M328.973,436.039a2.861,2.861,0,1,1-.995-3.921A2.861,2.861,0,0,1,328.973,436.039Z" transform="translate(-154.122 -195.117)" fill="#e0e0e0"/>
        <path id="Trazado_185076" data-name="Trazado 185076" d="M328.982,420.122a2.62,2.62,0,1,1-.918-3.579A2.62,2.62,0,0,1,328.982,420.122Z" transform="translate(-154.308 -188.725)" fill="#e0e0e0"/>
        <path id="Trazado_185077" data-name="Trazado 185077" d="M37.873,209.329s-5.469,2.219.842,13.84a155.48,155.48,0,0,0,10.6,17.337s1.136,2.708-1.177,3.191-7.376-.188-8.33,2.649c-.989,2.943,1.177,5.651,5.569,7.953S59.166,262.011,60,262.506s1.684,1.737.177,2.314-12.875,2.066-11.844,7.418S62.581,282,64.011,282.521s1.766,1.107,1.7,1.89-3.938.918-7.176,1.472-6.846,1.766-5.993,4.8,8.766,9.26,27.669,10.6L89,301.33l4.562-7.518c8.83-16.731,7.735-26.744,5.6-29.076s-5.069.118-7.241,2.549-4.333,5.646-5.051,5.3-1.03-.948-.706-2.431,3.532-15.041-.442-18.744-11.268,5.157-12.557,6.128-1.9-.412-1.872-1.372.406-11.774.754-16.713-.777-8.242-3.8-8.93c-2.914-.695-5.033,3.98-6.652,5.669s-3.32-.712-3.32-.712a152.689,152.689,0,0,0-9.1-18.191c-6.523-11.5-11.4-7.918-11.4-7.918" transform="translate(-35.674 -103.447)" fill="#f5f5f5"/>
        <path id="Trazado_185078" data-name="Trazado 185078" d="M94.974,311.029c-4.745-8.465-12.957-23.654-20.051-36.664S61.383,249.6,56.674,241.11c-2.355-4.233-4.268-7.653-5.593-10.049-.659-1.177-1.177-2.1-1.519-2.732-.171-.306-.3-.542-.389-.712s-.124-.247-.124-.247.053.077.147.23l.412.7,1.56,2.708c1.36,2.355,3.3,5.775,5.669,10.008,4.727,8.471,11.2,20.222,18.308,33.232s15.306,28.21,20.016,36.7" transform="translate(-41.176 -111.068)" fill="#e0e0e0"/>
        <path id="Trazado_185079" data-name="Trazado 185079" d="M54.8,274.65a2.663,2.663,0,0,1,.618.153c.394.118.954.3,1.648.53,1.383.471,3.279,1.177,5.351,1.966l5.3,2.078,1.613.618a2.943,2.943,0,0,1,.589.247,2.8,2.8,0,0,1-.589-.147c-.394-.118-.954-.3-1.648-.542-1.378-.477-3.261-1.177-5.334-2l-5.3-2.037-1.619-.589a3.108,3.108,0,0,1-.63-.277Z" transform="translate(-43.541 -130.515)" fill="#e0e0e0"/>
        <path id="Trazado_185080" data-name="Trazado 185080" d="M81.478,270.847c-.071,0,1.177-3.991,2.814-8.86s3-8.83,3.067-8.777-1.177,3.991-2.808,8.866S81.549,270.87,81.478,270.847Z" transform="translate(-54.513 -121.696)" fill="#e0e0e0"/>
        <path id="Trazado_185081" data-name="Trazado 185081" d="M98.5,308.219a2.767,2.767,0,0,1,.341-.553c.265-.389.589-.871,1-1.448.848-1.224,2.007-2.943,3.22-4.839s2.255-3.691,3-4.98c.347-.589.642-1.119.883-1.531a3,3,0,0,1,.347-.547,2.944,2.944,0,0,1-.253.589c-.182.371-.459.912-.807,1.566-.7,1.319-1.719,3.114-2.943,5.033s-2.408,3.615-3.291,4.81c-.447.589-.812,1.077-1.077,1.4A3.245,3.245,0,0,1,98.5,308.219Z" transform="translate(-61.515 -138.605)" fill="#e0e0e0"/>
        <path id="Trazado_185082" data-name="Trazado 185082" d="M72.67,315.519a2.781,2.781,0,0,1,.589,0l1.625.088c1.378.082,3.273.218,5.363.389s3.991.336,5.363.471l1.619.171a2.52,2.52,0,0,1,.589.1,2.779,2.779,0,0,1-.589,0l-1.625-.088c-1.372-.082-3.273-.218-5.363-.389s-3.985-.336-5.357-.465l-1.625-.177a2.612,2.612,0,0,1-.589-.1Z" transform="translate(-50.891 -147.318)" fill="#e0e0e0"/>
        <path id="Trazado_185083" data-name="Trazado 185083" d="M83.79,348.108a4.328,4.328,0,0,1,.771,0l2.084.106c1.766.1,4.191.253,6.876.442s5.116.377,6.876.524l2.078.194a3.747,3.747,0,0,1,.759.106,4.24,4.24,0,0,1-.765,0l-2.084-.106c-1.766-.1-4.2-.253-6.882-.442s-5.116-.377-6.87-.524l-2.084-.194a3.955,3.955,0,0,1-.759-.106Z" transform="translate(-55.465 -160.722)" fill="#e0e0e0"/>
        <path id="Trazado_185084" data-name="Trazado 185084" d="M116.05,337.642a4.563,4.563,0,0,1,.418-.712l1.177-1.884c1.013-1.589,2.408-3.791,3.879-6.27s2.749-4.751,3.662-6.4l1.083-1.96a5.3,5.3,0,0,1,.424-.7,4.587,4.587,0,0,1-.33.754c-.23.477-.589,1.177-1.007,2-.865,1.684-2.119,3.974-3.6,6.476s-2.9,4.668-3.956,6.234c-.53.783-.965,1.413-1.277,1.843A4.779,4.779,0,0,1,116.05,337.642Z" transform="translate(-68.733 -149.048)" fill="#e0e0e0"/>
      </g>
      <g id="freepik--Gears--inject-3" transform="translate(306.664 -45.163)">
        <path id="Trazado_185085" data-name="Trazado 185085" d="M638.129,167.974l7.759-1.9-.235-13.21-7.818-1.631a32.379,32.379,0,0,0-3.438-7.9l4.121-6.829-9.507-9.178-6.682,4.374a32.179,32.179,0,0,0-7.994-3.12l-1.9-7.759-13.21.23-1.631,7.824a32.118,32.118,0,0,0-7.9,3.432l-6.829-4.121-9.178,9.46,4.374,6.676a32.267,32.267,0,0,0-3.149,8.018l-7.759,1.9.23,13.216,7.818,1.625a32.379,32.379,0,0,0,3.438,7.9l-4.121,6.829,9.507,9.178,6.658-4.362a32.513,32.513,0,0,0,8.018,3.155l1.919,7.747,13.216-.235,1.625-7.818a32.379,32.379,0,0,0,7.883-3.438l6.829,4.121,9.178-9.507-4.374-6.682A32.425,32.425,0,0,0,638.129,167.974Zm-21,1.6a14.176,14.176,0,1,1-.347-20.016A14.176,14.176,0,0,1,617.13,169.57Z" transform="translate(-525.265 -72.271)" fill="#407bff"/>
        <g id="Grupo_143554" data-name="Grupo 143554" transform="translate(41.885 48.549)" opacity="0.4">
          <path id="Trazado_185086" data-name="Trazado 185086" d="M638.129,167.974l7.759-1.9-.235-13.21-7.818-1.631a32.379,32.379,0,0,0-3.438-7.9l4.121-6.829-9.507-9.178-6.682,4.374a32.179,32.179,0,0,0-7.994-3.12l-1.9-7.759-13.21.23-1.631,7.824a32.118,32.118,0,0,0-7.9,3.432l-6.829-4.121-9.178,9.46,4.374,6.676a32.267,32.267,0,0,0-3.149,8.018l-7.759,1.9.23,13.216,7.818,1.625a32.379,32.379,0,0,0,3.438,7.9l-4.121,6.829,9.507,9.178,6.658-4.362a32.513,32.513,0,0,0,8.018,3.155l1.919,7.747,13.216-.235,1.625-7.818a32.379,32.379,0,0,0,7.883-3.438l6.829,4.121,9.178-9.507-4.374-6.682A32.425,32.425,0,0,0,638.129,167.974Zm-21,1.6a14.176,14.176,0,1,1-.347-20.016A14.176,14.176,0,0,1,617.13,169.57Z" transform="translate(-567.15 -120.82)" fill="#fff"/>
        </g>
        <path id="Trazado_185087" data-name="Trazado 185087" d="M512.148,51.024a23.211,23.211,0,0,1,5.634-2.455l1.177-5.6,9.466-.165,1.36,5.557a23.37,23.37,0,0,1,5.746,2.255l4.78-3.132,6.811,6.576-2.943,4.886a23.153,23.153,0,0,1,2.449,5.663l5.6,1.177.165,9.466-5.557,1.36a23.121,23.121,0,0,1-2.261,5.74l3.138,4.786-6.576,6.811L536.255,91a23.271,23.271,0,0,1-5.663,2.461l-1.177,5.6-9.466.171-1.36-5.557a23.117,23.117,0,0,1-5.74-2.261l-4.786,3.132-6.811-6.57,2.943-4.892a23.171,23.171,0,0,1-2.461-5.663l-5.6-1.177L496,66.76l5.557-1.366a23.209,23.209,0,0,1,2.261-5.74l-3.108-4.786,6.576-6.805,4.892,2.943Zm5.045,12.61a10.155,10.155,0,1,0,14.358-.253,10.155,10.155,0,0,0-14.358.253Z" transform="translate(-496 -40.18)" fill="#407bff"/>
        <g id="Grupo_143555" data-name="Grupo 143555" transform="translate(0 2.62)" opacity="0.8">
          <path id="Trazado_185088" data-name="Trazado 185088" d="M512.148,51.024a23.211,23.211,0,0,1,5.634-2.455l1.177-5.6,9.466-.165,1.36,5.557a23.37,23.37,0,0,1,5.746,2.255l4.78-3.132,6.811,6.576-2.943,4.886a23.153,23.153,0,0,1,2.449,5.663l5.6,1.177.165,9.466-5.557,1.36a23.121,23.121,0,0,1-2.261,5.74l3.138,4.786-6.576,6.811L536.255,91a23.271,23.271,0,0,1-5.663,2.461l-1.177,5.6-9.466.171-1.36-5.557a23.117,23.117,0,0,1-5.74-2.261l-4.786,3.132-6.811-6.57,2.943-4.892a23.171,23.171,0,0,1-2.461-5.663l-5.6-1.177L496,66.76l5.557-1.366a23.209,23.209,0,0,1,2.261-5.74l-3.108-4.786,6.576-6.805,4.892,2.943Zm5.045,12.61a10.155,10.155,0,1,0,14.358-.253,10.155,10.155,0,0,0-14.358.253Z" transform="translate(-496 -42.8)" fill="#fff"/>
        </g>
        <path id="Trazado_185089" data-name="Trazado 185089" d="M632.294,44.628a16.918,16.918,0,0,1,4.162-1.813l.859-4.121,6.994-.124,1.007,4.121a17.155,17.155,0,0,1,4.227,1.66l3.532-2.308,5.01,4.839-2.178,3.6a17.217,17.217,0,0,1,1.807,4.162l4.121.859.124,6.97-4.109.971a17.073,17.073,0,0,1-1.684,4.221l2.308,3.532-4.839,5.01-3.6-2.178a17.125,17.125,0,0,1-4.162,1.807l-.859,4.121-6.964.118-1.007-4.086a17.4,17.4,0,0,1-4.227-1.666l-3.532,2.308-4.986-4.845,2.178-3.6a17.159,17.159,0,0,1-1.807-4.168l-4.121-.86L620.42,56.2l4.121-1.007a17.241,17.241,0,0,1,1.66-4.227l-2.308-3.532,4.839-5.01,3.6,2.184ZM636,53.905a7.476,7.476,0,1,0,5.26-2.293A7.476,7.476,0,0,0,636,53.905Z" transform="translate(-547.175 -38.44)" fill="#fff"/>
        <path id="Trazado_185090" data-name="Trazado 185090" d="M645.333,62.924a5.774,5.774,0,0,1,1.4-1.219,7.541,7.541,0,0,1,8.189,0,7.654,7.654,0,1,1-10.443,10.861,7.553,7.553,0,0,1-1.289-3.273,7.435,7.435,0,0,1,.977-4.91,5.716,5.716,0,0,1,1.177-1.436c.041.035-.447.489-1.024,1.519a7.418,7.418,0,0,0-.824,4.786,7.318,7.318,0,0,0,4.262,5.5,6.994,6.994,0,0,0,2.013.589,6.775,6.775,0,0,0,2.178-.047,7.247,7.247,0,0,0,5.963-6.181,6.712,6.712,0,0,0,0-2.172,6.875,6.875,0,0,0-.665-2.031,7.288,7.288,0,0,0-5.675-4.068,7.435,7.435,0,0,0-4.751.995C645.81,62.459,645.4,62.966,645.333,62.924Z" transform="translate(-556.505 -47.459)" fill="#407bff"/>
        <path id="Trazado_185091" data-name="Trazado 185091" d="M632.191,44.537a1.435,1.435,0,0,1-.235-.124l-.7-.383-2.714-1.6h.082l-4.81,5.039v-.135l2.319,3.532.041.065-.035.065a17.038,17.038,0,0,0-1.637,4.2v.082h-.082l-4.086,1.013.118-.153q.065,3.3.135,6.97l-.135-.165,4.121.848h.106v.106a17.121,17.121,0,0,0,1.8,4.121l.059.1-.059.094-2.172,3.6-.035-.235,5.022,4.833h-.247l3.532-2.314.106-.065.106.059a16.9,16.9,0,0,0,4.18,1.637h.118v.124c.318,1.283.659,2.679,1.007,4.121l-.206-.159,6.964-.13-.2.171c.271-1.3.559-2.708.854-4.121l.029-.13.124-.035a16.83,16.83,0,0,0,4.121-1.766h0l.112-.071.106.071,3.6,2.178-.265.035L658.17,71v.265l-2.308-3.532-.071-.106.065-.106a17.01,17.01,0,0,0,1.642-4.18v-.118l.124-.029,4.121-1-.153.2q-.065-3.567-.118-6.964l.159.188-4.121-.865H657.4l-.029-.112a17.109,17.109,0,0,0-1.766-4.121l-.059-.094.059-.1,2.184-3.591v.218l-5-4.851h.206l-3.532,2.3-.077.053-.082-.047a17.113,17.113,0,0,0-4.186-1.66h-.082v-.082c-.365-1.484-.689-2.826-.995-4.121l.129.094-6.97.094.094-.077c-.353,1.642-.642,3-.883,4.121v.041h-.041a17.6,17.6,0,0,0-3.179,1.213l-.748.389-.247.13a1.394,1.394,0,0,1,.23-.159c.159-.1.4-.247.736-.424a16.606,16.606,0,0,1,3.179-1.3l-.047.053c.224-1.13.5-2.478.83-4.121v-.071h.077l7.011-.182h.1v.1c.318,1.266.648,2.6,1.018,4.086l-.106-.1A17.267,17.267,0,0,1,649.5,44.1h-.159l3.532-2.314.106-.071.094.088,5.022,4.833.106.094-.077.124-2.178,3.6v-.194a17.342,17.342,0,0,1,1.8,4.221l-.141-.135,4.121.848.141.024v.159q.065,3.391.13,6.964V62.5l-.153.035-4.121,1.007.153-.153a17.265,17.265,0,0,1-1.684,4.28v-.218q1.136,1.766,2.308,3.532l.094.141-.118.124-4.839,5.016-.118.124-.147-.088-3.6-2.184h.218a17.244,17.244,0,0,1-4.215,1.831l.194-.13-.859,4.121v.165h-.171l-6.97.118h-.165l-.041-.165c-.347-1.413-.689-2.808-1-4.121l.153.153a17.267,17.267,0,0,1-4.274-1.69h.206l-3.532,2.3-.135.088-.112-.106-5.01-4.851-.106-.106.077-.13,2.19-3.6V68.2a17.189,17.189,0,0,1-1.825-4.215l.135.124-4.121-.865h-.135v-.13q-.053-3.673-.106-6.97v-.124h.118l4.091-.995-.106.106a17.453,17.453,0,0,1,1.684-4.3v.13l-2.29-3.532-.047-.077.059-.059,4.869-4.986.035-.041h.047l2.655,1.648.677.436Z" transform="translate(-547.072 -38.35)" fill="#407bff"/>
      </g>
      <g id="freepik--Window--inject-3" transform="translate(99.15 74.986)">
        <rect id="Rectángulo_38012" data-name="Rectángulo 38012" width="278.904" height="163.768" transform="translate(0 0.124)" fill="#fff"/>
        <rect id="Rectángulo_38013" data-name="Rectángulo 38013" width="278.904" height="17.802" transform="translate(0.147 0.165)" fill="#263238"/>
        <path id="Trazado_185092" data-name="Trazado 185092" d="M302.129,165.536a3.738,3.738,0,1,1,3.744,3.62,3.585,3.585,0,0,1-3.744-3.62Zm6.723,0a2.991,2.991,0,1,0-2.979,2.943,2.885,2.885,0,0,0,2.979-2.943Z" transform="translate(-208.745 -129.225)" fill="#263238"/>
        <path id="Trazado_185093" data-name="Trazado 185093" d="M322.856,167.837a2.584,2.584,0,0,1-2.661,2.726,2.355,2.355,0,0,1-2.037-1.054v2.979h-.718v-7.323h.689v1.066a2.355,2.355,0,0,1,2.066-1.1,2.584,2.584,0,0,1,2.661,2.708Zm-.718,0a2,2,0,1,0-2,2.084,1.972,1.972,0,0,0,2-2.084Z" transform="translate(-215.043 -130.644)" fill="#263238"/>
        <path id="Trazado_185094" data-name="Trazado 185094" d="M333.43,168.057h-4.474a1.984,1.984,0,0,0,2.107,1.86,2.1,2.1,0,0,0,1.637-.7l.406.471a2.826,2.826,0,0,1-4.868-1.854,2.606,2.606,0,1,1,5.2,0C333.441,167.9,333.43,167.992,333.43,168.057Zm-4.474-.536h3.791a1.9,1.9,0,0,0-3.791,0Z" transform="translate(-219.482 -130.64)" fill="#263238"/>
        <path id="Trazado_185095" data-name="Trazado 185095" d="M342.28,165.113v.7h-.171a1.731,1.731,0,0,0-1.8,1.972v2.726h-.718V165.16h.689v1.06a2.019,2.019,0,0,1,2-1.107Z" transform="translate(-224.153 -130.634)" fill="#263238"/>
        <path id="Trazado_185096" data-name="Trazado 185096" d="M350.069,167.2v3.314h-.718v-.836a2,2,0,0,1-1.837.883c-1.213,0-1.954-.63-1.954-1.554,0-.824.53-1.513,2.066-1.513h1.725v-.33c0-.912-.518-1.413-1.513-1.413a2.761,2.761,0,0,0-1.766.63l-.324-.536a3.391,3.391,0,0,1,2.178-.724A1.9,1.9,0,0,1,350.069,167.2Zm-.724,1.707v-.877h-1.678c-1.036,0-1.372.406-1.372.96s.495,1.007,1.354,1.007a1.707,1.707,0,0,0,1.7-1.089Z" transform="translate(-226.609 -130.64)" fill="#263238"/>
        <path id="Trazado_185097" data-name="Trazado 185097" d="M358.79,169.405a1.7,1.7,0,0,1-1.13.377,1.413,1.413,0,0,1-1.566-1.554V165h-.954v-.589h.954V163.23h.73v1.177h1.625V165h-1.625v3.191a.859.859,0,0,0,.924.977,1.207,1.207,0,0,0,.795-.277Z" transform="translate(-230.549 -129.863)" fill="#263238"/>
        <path id="Trazado_185098" data-name="Trazado 185098" d="M363.29,161.966a.524.524,0,0,1,.53-.506.512.512,0,1,1,0,1.024A.524.524,0,0,1,363.29,161.966Zm.165,1.69h.724v5.351h-.724Z" transform="translate(-233.901 -129.135)" fill="#263238"/>
        <path id="Trazado_185099" data-name="Trazado 185099" d="M373.141,167.4v3.1h-.724v-3.032a1.492,1.492,0,0,0-1.607-1.707,1.766,1.766,0,0,0-1.872,1.931V170.5h-.718v-5.351h.689v.989a2.249,2.249,0,0,1,2.037-1.03A2.054,2.054,0,0,1,373.141,167.4Z" transform="translate(-235.929 -130.633)" fill="#263238"/>
        <path id="Trazado_185100" data-name="Trazado 185100" d="M384.5,165.167v4.71a2.345,2.345,0,0,1-2.673,2.673,3.738,3.738,0,0,1-2.5-.824l.371-.547a3.161,3.161,0,0,0,2.1.736c1.354,0,1.972-.624,1.972-1.943v-.683a2.4,2.4,0,0,1-2.084,1.036,2.6,2.6,0,1,1,0-5.186,2.4,2.4,0,0,1,2.113,1.071v-1.03Zm-.7,2.543a2.031,2.031,0,1,0-2.037,1.96,1.913,1.913,0,0,0,2.037-1.96Z" transform="translate(-240.351 -130.646)" fill="#263238"/>
        <path id="Trazado_185101" data-name="Trazado 185101" d="M395.22,168.48l.459-1.03a3.932,3.932,0,0,0,2.355.783c1.107,0,1.578-.394,1.578-.924,0-1.536-4.233-.53-4.233-3.173,0-1.177.912-2.125,2.867-2.125a4.527,4.527,0,0,1,2.355.63l-.418,1.03a3.956,3.956,0,0,0-1.966-.589c-1.095,0-1.542.424-1.542.965,0,1.513,4.221.53,4.221,3.144,0,1.136-.924,2.113-2.879,2.113A4.6,4.6,0,0,1,395.22,168.48Z" transform="translate(-247.035 -129.361)" fill="#263238"/>
        <path id="Trazado_185102" data-name="Trazado 185102" d="M411.107,165.05l-2.537,5.887a2.1,2.1,0,0,1-2.1,1.607,2.231,2.231,0,0,1-1.454-.5l.506-.936a1.372,1.372,0,0,0,.936.377c.447,0,.712-.212.954-.754l.094-.212-2.355-5.451h1.319l1.707,4.021,1.719-4.021Z" transform="translate(-251.065 -130.612)" fill="#263238"/>
        <path id="Trazado_185103" data-name="Trazado 185103" d="M415.54,169.909l.489-.965a3.614,3.614,0,0,0,1.89.542c.806,0,1.142-.224,1.142-.589,0-1.042-3.356-.065-3.356-2.231,0-1.024.924-1.7,2.39-1.7a4.327,4.327,0,0,1,2.031.465l-.489.965a3.014,3.014,0,0,0-1.554-.406c-.771,0-1.142.259-1.142.589,0,1.1,3.356.124,3.356,2.249,0,1.013-.936,1.678-2.461,1.678A4.3,4.3,0,0,1,415.54,169.909Z" transform="translate(-255.392 -130.578)" fill="#263238"/>
        <path id="Trazado_185104" data-name="Trazado 185104" d="M428.215,169.346a2.025,2.025,0,0,1-1.224.365,1.666,1.666,0,0,1-1.866-1.831v-2.614h-.895v-1.018h.895V163h1.266v1.242h1.454v1.018h-1.454v2.584c0,.524.265.812.754.812a1.142,1.142,0,0,0,.712-.224Z" transform="translate(-258.967 -129.768)" fill="#263238"/>
        <path id="Trazado_185105" data-name="Trazado 185105" d="M437.285,168.137h-4.256a1.643,1.643,0,0,0,1.766,1.3,1.943,1.943,0,0,0,1.478-.589l.683.783a3.046,3.046,0,0,1-5.186-1.9,2.7,2.7,0,0,1,2.8-2.773,2.649,2.649,0,0,1,2.749,2.808C437.309,167.861,437.3,168.014,437.285,168.137Zm-4.268-.848H436.1a1.472,1.472,0,0,0-1.536-1.319A1.5,1.5,0,0,0,433.017,167.29Z" transform="translate(-262.067 -130.573)" fill="#263238"/>
        <path id="Trazado_185106" data-name="Trazado 185106" d="M452.334,167.343v3.114h-1.272v-2.943c0-.965-.447-1.436-1.219-1.436a1.434,1.434,0,0,0-1.413,1.631v2.755h-1.272V167.52c0-.965-.447-1.436-1.224-1.436a1.431,1.431,0,0,0-1.413,1.631v2.755H443.25v-5.434h1.213v.695a2.243,2.243,0,0,1,1.766-.754,2.031,2.031,0,0,1,1.831.907,2.537,2.537,0,0,1,2.049-.895A2.068,2.068,0,0,1,452.334,167.343Z" transform="translate(-266.79 -130.58)" fill="#263238"/>
        <path id="Trazado_185107" data-name="Trazado 185107" d="M381.612,343.982l.383-.035a8.733,8.733,0,0,0,1.136-.106,10.79,10.79,0,0,0,4.121-1.43,11.226,11.226,0,0,0-3.3-20.693,14.13,14.13,0,0,0-3.014-.241H341.881a11.185,11.185,0,0,0-10.873,8.618,11.775,11.775,0,0,0-.253,3.568,11.9,11.9,0,0,0,.865,3.4,11.238,11.238,0,0,0,4.4,5.086,10.721,10.721,0,0,0,4.592,1.6c.536.047,1.06.077,1.6.077h17.349l16.136.047,4.386.029h0l-4.386.029-16.136.053H342.21c-.53,0-1.083-.029-1.625-.077a11.957,11.957,0,0,1-1.625-.306,12.827,12.827,0,0,1-1.584-.53,12.271,12.271,0,0,1-1.507-.795,11.521,11.521,0,0,1-4.521-5.2,12.134,12.134,0,0,1-.889-3.491,11.873,11.873,0,0,1,.259-3.668,11.485,11.485,0,0,1,3.944-6.3,11.627,11.627,0,0,1,7.217-2.555h39.03a15.13,15.13,0,0,1,3.067.253,11.4,11.4,0,0,1,3.308,21.052,10.632,10.632,0,0,1-4.121,1.383,8.946,8.946,0,0,1-1.189.236Z" transform="translate(-220.381 -194.778)" fill="#407bff"/>
        <path id="Trazado_185108" data-name="Trazado 185108" d="M368.35,340.22l.33-.742a2.861,2.861,0,0,0,1.7.589c.8,0,1.136-.283,1.136-.665,0-1.113-3.055-.383-3.055-2.3,0-.83.659-1.536,2.072-1.536a3.262,3.262,0,0,1,1.713.459l-.306.742a2.849,2.849,0,0,0-1.419-.406c-.789,0-1.113.312-1.113.7,0,1.095,3.049.383,3.049,2.272,0,.818-.671,1.525-2.078,1.525A3.285,3.285,0,0,1,368.35,340.22Z" transform="translate(-235.983 -200.748)" fill="#407bff"/>
        <path id="Trazado_185109" data-name="Trazado 185109" d="M378.779,340.8a1.43,1.43,0,0,1-.883.265,1.177,1.177,0,0,1-1.348-1.319v-1.89H375.9v-.736h.648v-.895h.918v.895h1.048v.736h-1.048v1.866c0,.383.188.589.542.589a.824.824,0,0,0,.518-.165Z" transform="translate(-239.088 -201.019)" fill="#407bff"/>
        <path id="Trazado_185110" data-name="Trazado 185110" d="M385.167,339.316v2.3H384.3v-.477a1.389,1.389,0,0,1-1.23.524c-.9,0-1.466-.489-1.466-1.177s.441-1.177,1.631-1.177h1.018v-.059c0-.536-.324-.854-.977-.854a1.931,1.931,0,0,0-1.177.394l-.359-.671a2.755,2.755,0,0,1,1.66-.483C384.508,337.651,385.167,338.186,385.167,339.316Zm-.918,1.071v-.453H383.3c-.624,0-.789.235-.789.524s.277.542.748.542A1.007,1.007,0,0,0,384.249,340.388Z" transform="translate(-241.433 -201.598)" fill="#407bff"/>
        <path id="Trazado_185111" data-name="Trazado 185111" d="M391.922,337.656v.871a1.554,1.554,0,0,0-.212,0,1.071,1.071,0,0,0-1.142,1.213v1.907h-.918v-3.927h.877v.589A1.537,1.537,0,0,1,391.922,337.656Z" transform="translate(-244.744 -201.603)" fill="#407bff"/>
        <path id="Trazado_185112" data-name="Trazado 185112" d="M397.069,340.8a1.424,1.424,0,0,1-.877.265,1.177,1.177,0,0,1-1.354-1.319v-1.89h-.648v-.736h.648v-.895h.918v.895h1.054v.736h-1.054v1.866c0,.383.194.589.542.589a.824.824,0,0,0,.518-.165Z" transform="translate(-246.611 -201.019)" fill="#407bff"/>
        <path id="Trazado_185113" data-name="Trazado 185113" d="M264.167,211.458c.589,3.238-3.008,7.523-6.058,6.935C257.427,214.637,261.736,211.052,264.167,211.458Z" transform="translate(-190.61 -149.687)" fill="#407bff"/>
        <path id="Trazado_185114" data-name="Trazado 185114" d="M260.367,253.115a6.163,6.163,0,0,0,2.113-.447,5.622,5.622,0,0,0,3.438-4.774c0-5.434,0-13.287-.029-22.959V202.469a5.5,5.5,0,0,0-3.838-5.01,6.77,6.77,0,0,0-2.3-.247H215.62a5.481,5.481,0,0,0-4.556,2.425,5.6,5.6,0,0,0-.895,2.473c-.065.877,0,1.807-.035,2.7v42.427a5.916,5.916,0,0,0,.341,2.137,5.54,5.54,0,0,0,2.79,3.067,5.416,5.416,0,0,0,2,.518c.683.041,1.389,0,2.072,0H229l22.959.053,6.252.029h0l-6.252.029L229,253.12H215.243a5.752,5.752,0,0,1-5.016-3.744,6.117,6.117,0,0,1-.359-2.231c0-.754,0-1.507,0-2.266v-41.52c0-.447,0-.9.035-1.372a5.787,5.787,0,0,1,5.757-5.175H259.8a7.064,7.064,0,0,1,2.355.265,5.828,5.828,0,0,1,3.467,3.032,5.693,5.693,0,0,1,.553,2.231c0,.759,0,1.5,0,2.231v20.245c0,9.708,0,17.555-.071,22.988a5.627,5.627,0,0,1-5.116,5.2Z" transform="translate(-170.797 -143.671)" fill="#407bff"/>
        <path id="Trazado_185115" data-name="Trazado 185115" d="M253.271,241.892a6.705,6.705,0,0,1,5-6.476c-.824-1.177-1.625-2.19-1.625-2.761a6.727,6.727,0,1,0-13.452,0c0,.989-2.384,3.308-3.155,5.428h0a11.1,11.1,0,0,0-1.113,4.8c0,5.887,4.921,10.108,11,10.108a11.185,11.185,0,0,0,9.2-4.451,6.705,6.705,0,0,1-5.857-6.652Z" transform="translate(-182.751 -155.59)" fill="#407bff"/>
        <path id="Trazado_185116" data-name="Trazado 185116" d="M384.831,253.189a6.14,6.14,0,0,0,2.113-.447,5.487,5.487,0,0,0,2.1-1.531,5.557,5.557,0,0,0,1.336-3.244V202.543a5.416,5.416,0,0,0-.53-2.131,5.557,5.557,0,0,0-3.308-2.879,6.735,6.735,0,0,0-2.29-.247h-44.14a5.487,5.487,0,0,0-5.451,4.9c-.065.877,0,1.807-.029,2.7v42.427a5.8,5.8,0,0,0,.347,2.137,5.522,5.522,0,0,0,2.79,3.067,5.357,5.357,0,0,0,1.99.518c.683.041,1.389,0,2.078,0h11.668l22.959.053,6.252.029h0l-6.252.029-22.959.047H339.744a5.74,5.74,0,0,1-5.01-3.744,6.123,6.123,0,0,1-.365-2.231V203.432c0-.447,0-.9.029-1.372a5.775,5.775,0,0,1,3.026-4.492,5.958,5.958,0,0,1,2.614-.577H384.19a7.065,7.065,0,0,1,2.355.265,5.757,5.757,0,0,1,4.021,5.263V225c0,9.708,0,17.555-.071,22.988a5.628,5.628,0,0,1-5.116,5.2Z" transform="translate(-222.005 -143.745)" fill="#e0e0e0"/>
        <path id="Trazado_185117" data-name="Trazado 185117" d="M374.367,232.681a14.029,14.029,0,0,0,11.02-5.334c0-3.638-2.3-6.04-5.1-7.4h0v-1.589a.754.754,0,0,0-1.507-.053v1.036a13.952,13.952,0,0,0-4.409-.759,15.5,15.5,0,0,0-4.515.683v-.96a.724.724,0,0,0-.765-.806.626.626,0,0,0-.695.695c-.018.5-.035,1.1-.041,1.648a7.888,7.888,0,0,0-4.986,7.512,14.017,14.017,0,0,0,11,5.328ZM378,222.962a1.525,1.525,0,1,1-1.525,1.525A1.525,1.525,0,0,1,378,222.962Zm-1.525,4.25a.294.294,0,0,1,0,.589h-4.215a.294.294,0,0,1,0-.589Zm-5.74-4.262a1.519,1.519,0,1,0,0,.012Z" transform="translate(-233.934 -152.184)" fill="#407bff"/>
        <path id="Trazado_185118" data-name="Trazado 185118" d="M374.445,242.539a14.017,14.017,0,0,1-10.885-5.169v.341c0,10.514,4.874,19.038,10.891,19.038s10.891-8.524,10.891-19.038v-.341A14.005,14.005,0,0,1,374.445,242.539Z" transform="translate(-234.013 -160.357)" fill="#407bff"/>
        <path id="Trazado_185119" data-name="Trazado 185119" d="M509.268,253.115a6.117,6.117,0,0,0,2.113-.447,5.6,5.6,0,0,0,3.438-4.774V202.469a5.475,5.475,0,0,0-3.838-5.01,6.717,6.717,0,0,0-2.29-.247H464.557a5.487,5.487,0,0,0-5.457,4.9c-.059.877,0,1.807-.029,2.7v42.427a5.792,5.792,0,0,0,.341,2.137,5.539,5.539,0,0,0,2.79,3.067,5.387,5.387,0,0,0,1.99.518c.689.041,1.4,0,2.078,0h11.668l22.988.053,6.246.029h0l-6.246.029-22.988.047H464.18a5.74,5.74,0,0,1-5.016-3.744,6.252,6.252,0,0,1-.365-2.231V203.358c0-.447,0-.9.035-1.372a5.787,5.787,0,0,1,3.02-4.492,5.981,5.981,0,0,1,2.737-.683h44.134a7.064,7.064,0,0,1,2.355.265,5.787,5.787,0,0,1,4.021,5.263v22.476c0,9.708,0,17.555-.065,22.988a5.64,5.64,0,0,1-5.116,5.2Z" transform="translate(-273.185 -143.671)" fill="#e0e0e0"/>
        <rect id="Rectángulo_38014" data-name="Rectángulo 38014" width="11.974" height="21.387" transform="translate(214.643 70.778)" fill="#407bff"/>
        <rect id="Rectángulo_38015" data-name="Rectángulo 38015" width="11.974" height="21.387" transform="translate(200.903 70.778)" fill="#407bff"/>
        <path id="Trazado_185120" data-name="Trazado 185120" d="M434.364,352.394l-5.657-3.285-5.651-3.279-.018,6.534-.018,6.54,3.868-2.219,3.326,5.8,3.615-2.072-3.332-5.8Z" transform="translate(-258.469 -204.968)" fill="#263238"/>
        <circle id="Elipse_4807" data-name="Elipse 4807" cx="3.055" cy="3.055" r="3.055" transform="translate(8.006 6.064)" fill="#fff"/>
        <path id="Trazado_185121" data-name="Trazado 185121" d="M179.5,119.869a3.055,3.055,0,1,1-3.055-3.049,3.055,3.055,0,0,1,3.055,3.049Z" transform="translate(-155.794 -110.774)" fill="#fff"/>
        <circle id="Elipse_4808" data-name="Elipse 4808" cx="3.055" cy="3.055" r="3.055" transform="translate(27.186 6.064)" fill="#fff"/>
        <path id="Trazado_185122" data-name="Trazado 185122" d="M422.566,270.471c0-.96-.041-63.314-.118-163.768l.118.118-278.881.035h0l.153-.153V270.471l-.141-.141,278.9.141-278.9.141h-.147V106.55h.171l278.881.035h.118v.118C422.613,207.169,422.566,269.523,422.566,270.471Z" transform="translate(-143.521 -106.55)" fill="#263238"/>
      </g>
      <g id="freepik--Plant--inject-3" transform="translate(335.39 170.746)">
        <rect id="Rectángulo_38016" data-name="Rectángulo 38016" width="43.057" height="5.916" transform="translate(19.871 80.595)" fill="#263238"/>
        <path id="Trazado_185123" data-name="Trazado 185123" d="M621.634,412.058h-43.2V406h43.2Zm-43.057-.171h42.91v-5.769h-42.91Z" transform="translate(-558.63 -325.476)" fill="#263238"/>
        <path id="Trazado_185124" data-name="Trazado 185124" d="M585.34,412.82l6.193,30.577h22.935l5.993-28.6Z" transform="translate(-561.472 -328.281)" fill="#263238"/>
        <path id="Trazado_185125" data-name="Trazado 185125" d="M585.34,459.85l3.3,4.545h27.875l3.944-4.545Z" transform="translate(-561.472 -347.625)" fill="#455a64"/>
        <path id="Trazado_185126" data-name="Trazado 185126" d="M612.2,370.133c-.088,0-.194-14.164-.241-31.636s0-31.636.065-31.636.188,14.158.241,31.636S612.281,370.133,612.2,370.133Z" transform="translate(-572.412 -284.699)" fill="#263238"/>
        <path id="Trazado_185127" data-name="Trazado 185127" d="M625.907,354.12a1.254,1.254,0,0,1-.118.33c-.1.241-.224.547-.383.918l-.283.659-.283.807-.336.924c-.112.324-.206.683-.318,1.048a42.626,42.626,0,0,0-1.177,5.3,65.949,65.949,0,0,0-.671,6.593,89.615,89.615,0,0,0,.341,12.039c.141,1.536.277,2.779.383,3.638q.065.589.106.989a1.288,1.288,0,0,1,0,.347,1.331,1.331,0,0,1-.077-.336c-.041-.259-.1-.589-.165-.983-.141-.854-.312-2.1-.477-3.632a79.567,79.567,0,0,1-.436-12.08,61.4,61.4,0,0,1,.689-6.623,39.8,39.8,0,0,1,1.277-5.3c.118-.365.218-.724.341-1.048s.247-.63.359-.918.212-.553.306-.8.218-.459.312-.653l.436-.895A1.769,1.769,0,0,1,625.907,354.12Z" transform="translate(-576.531 -304.137)" fill="#263238"/>
        <path id="Trazado_185128" data-name="Trazado 185128" d="M622.88,334.66a2.482,2.482,0,0,1-.135.471l-.447,1.313c-.1.288-.212.589-.33.954l-.347,1.142c-.253.818-.542,1.766-.807,2.8-.135.524-.277,1.071-.43,1.642s-.265,1.177-.4,1.766c-.306,1.23-.518,2.573-.8,3.968-.471,2.814-.889,5.928-1.177,9.207s-.389,6.423-.436,9.272.029,5.428.147,7.582c.041,1.083.106,2.055.165,2.943s.1,1.589.159,2.2.077,1.042.1,1.383a2.552,2.552,0,0,1,0,.489,2.94,2.94,0,0,1-.076-.483c-.041-.341-.094-.8-.165-1.383s-.141-1.336-.206-2.19-.159-1.831-.212-2.914c-.141-2.155-.2-4.71-.212-7.594s.141-6,.412-9.3.718-6.411,1.177-9.231c.288-1.4.512-2.743.824-3.98l.424-1.766c.159-.589.306-1.119.453-1.637.271-1.048.589-1.978.848-2.8.135-.406.259-.789.371-1.136s.247-.659.359-.942c.206-.547.377-.977.5-1.3a3.049,3.049,0,0,1,.241-.477Z" transform="translate(-574.604 -296.133)" fill="#263238"/>
        <path id="Trazado_185129" data-name="Trazado 185129" d="M602.049,373.977a.792.792,0,0,1,0-.165,2.263,2.263,0,0,0-.041-.489c0-.453-.071-1.083-.124-1.878-.106-1.654-.253-4-.436-6.9-.371-5.822-.912-13.87-1.9-22.724-.5-4.421-1.077-8.624-1.684-12.433-.318-1.9-.589-3.715-.942-5.4s-.63-3.25-.93-4.68-.589-2.708-.854-3.844-.489-2.1-.689-2.89-.341-1.383-.447-1.825c-.047-.194-.082-.353-.112-.477a.5.5,0,0,1,0-.165.644.644,0,0,1,.053.159c.041.124.082.277.141.471.124.436.288,1.042.5,1.807s.483,1.766.748,2.885.589,2.408.895,3.838.653,2.985.971,4.674.642,3.5.971,5.4c.589,3.815,1.177,8.018,1.707,12.451.983,8.83,1.489,16.913,1.807,22.741.159,2.914.271,5.3.336,6.905,0,.8.053,1.425.071,1.878v.489a.757.757,0,0,1-.047.171Z" transform="translate(-564.988 -286.035)" fill="#263238"/>
        <path id="Trazado_185130" data-name="Trazado 185130" d="M602.318,315.962a4.239,4.239,0,0,0-4.227-3.532,6.689,6.689,0,0,0-5.128,2.785,15.97,15.97,0,0,0-2.473,5.475,37.318,37.318,0,0,0-1.519,14.582,22.072,22.072,0,0,0,6.069,13.145,1.923,1.923,0,0,0,3.191.271,32.619,32.619,0,0,0,10.6-24.807,10.1,10.1,0,0,0-1.325-5.339c-1.024-1.548-3.426-3.191-5.18-2.567" transform="translate(-562.884 -286.99)" fill="#407bff"/>
        <path id="Trazado_185131" data-name="Trazado 185131" d="M578.549,285.987q-1.419,2.567-2.837,5.139c-.071.124-.159.259-.294.265s-.259-.124-.341-.253l-7.506-11.515,1.731-.983Z" transform="translate(-554.163 -273.091)" fill="#407bff"/>
        <g id="Grupo_143556" data-name="Grupo 143556" transform="translate(13.407 5.549)" opacity="0.2">
          <path id="Trazado_185132" data-name="Trazado 185132" d="M578.549,285.987q-1.419,2.567-2.837,5.139c-.071.124-.159.259-.294.265s-.259-.124-.341-.253l-7.506-11.515,1.731-.983Z" transform="translate(-567.57 -278.64)"/>
        </g>
        <path id="Trazado_185133" data-name="Trazado 185133" d="M593.754,291.376l-25.6-15.106a1.231,1.231,0,0,1-.624-.63,1.177,1.177,0,0,1,.453-1.024,17.661,17.661,0,0,1,13.681-5.375,15.612,15.612,0,0,1,12.362,7.688,14.107,14.107,0,0,1-.277,14.447" transform="translate(-554.144 -269.215)" fill="#407bff"/>
        <path id="Trazado_185134" data-name="Trazado 185134" d="M574.86,272.937a1.178,1.178,0,0,1,.336-.047c.218,0,.547-.047.965-.041a18.469,18.469,0,0,1,3.532.283,20.511,20.511,0,0,1,5.063,1.536,20.728,20.728,0,0,1,11.509,13.452,19.429,19.429,0,0,1,.636,3.532,5.623,5.623,0,0,1,.035.748,1.26,1.26,0,0,1-.194.589,4.473,4.473,0,0,0,.041-1.3,22.583,22.583,0,0,0-.724-3.462,20.928,20.928,0,0,0-16.407-14.882,22.175,22.175,0,0,0-3.532-.377C575.325,272.937,574.86,272.966,574.86,272.937Z" transform="translate(-557.161 -270.708)" fill="#263238"/>
        <path id="Trazado_185135" data-name="Trazado 185135" d="M599.753,289.15a6.589,6.589,0,0,1-1.3.589c-.812.318-1.954.73-3.232,1.136s-2.443.724-3.291.936a6.246,6.246,0,0,1-1.4.265,6.655,6.655,0,0,1,1.336-.477l3.261-1.018,3.25-1.048A6.539,6.539,0,0,1,599.753,289.15Z" transform="translate(-563.61 -277.414)" fill="#263238"/>
        <path id="Trazado_185136" data-name="Trazado 185136" d="M599.3,270.75a17.726,17.726,0,0,1,.147,5.722,17.733,17.733,0,0,1-.147-2.855,18.447,18.447,0,0,1,0-2.867Z" transform="translate(-567.191 -269.846)" fill="#263238"/>
        <path id="Trazado_185137" data-name="Trazado 185137" d="M568.21,278.514a11.311,11.311,0,0,1,1.86-.653c1.177-.359,2.784-.812,4.586-1.248s3.456-.771,4.657-.977a11.228,11.228,0,0,1,1.954-.265,14.2,14.2,0,0,1-1.913.477c-1.177.265-2.82.63-4.621,1.066s-3.426.854-4.6,1.177A13.853,13.853,0,0,1,568.21,278.514Z" transform="translate(-554.426 -271.746)" fill="#263238"/>
        <path id="Trazado_185138" data-name="Trazado 185138" d="M573.6,309.666c-2.2-1.672-4.527-2-7.288-1.89a22.264,22.264,0,0,0-7.983,2.06c-4.315,1.89-8.371,4.674-10.95,8.618s-3.479,9.166-1.548,13.463a1.931,1.931,0,0,0,.877,1.066,2.084,2.084,0,0,0,1.442-.112,80.9,80.9,0,0,0,14.37-5.728c4.515-2.508,8.624-5.993,11.044-10.555a9.131,9.131,0,0,0,1.177-3.532,4.345,4.345,0,0,0-1.13-3.42" transform="translate(-544.795 -285.067)" fill="#407bff"/>
        <path id="Trazado_185139" data-name="Trazado 185139" d="M574.857,310.15a1.909,1.909,0,0,1-.353.141l-1.03.353-.748.253c-.265.094-.553.218-.865.336-.624.253-1.342.5-2.1.871l-1.177.547c-.418.194-.836.43-1.277.653-.889.441-1.766,1-2.749,1.566a43.416,43.416,0,0,0-10.826,9.525c-.689.883-1.354,1.7-1.9,2.531-.277.406-.589.789-.812,1.177l-.695,1.119c-.465.706-.807,1.4-1.136,1.978l-.447.818-.336.706-.483.977a2.633,2.633,0,0,1-.188.33,1.733,1.733,0,0,1,.13-.353l.43-1,.318-.724c.124-.259.277-.536.43-.836.312-.589.642-1.289,1.095-2l.683-1.142c.241-.394.524-.783.8-1.177.542-.836,1.207-1.672,1.89-2.561a42.281,42.281,0,0,1,10.867-9.607c.971-.589,1.884-1.118,2.785-1.548.442-.224.865-.453,1.289-.642l1.219-.536c.765-.353,1.5-.589,2.125-.83.318-.112.589-.23.883-.318l.759-.224,1.048-.3A1.562,1.562,0,0,1,574.857,310.15Z" transform="translate(-546.002 -286.052)" fill="#263238"/>
        <path id="Trazado_185140" data-name="Trazado 185140" d="M557.7,326a114.837,114.837,0,0,1-11.45,3.155,55.971,55.971,0,0,1,5.681-1.725A57.336,57.336,0,0,1,557.7,326Z" transform="translate(-545.394 -292.571)" fill="#263238"/>
        <path id="Trazado_185141" data-name="Trazado 185141" d="M564.126,337.732a8.2,8.2,0,0,1-.118-1.613c0-1,0-2.384,0-3.909s.129-2.9.218-3.9a8.087,8.087,0,0,1,.206-1.607,8.057,8.057,0,0,1,0,1.619c0,1.095-.077,2.425-.124,3.9s-.071,2.808-.1,3.9A8.086,8.086,0,0,1,564.126,337.732Z" transform="translate(-552.697 -292.859)" fill="#263238"/>
        <path id="Trazado_185142" data-name="Trazado 185142" d="M580.891,327.839a110.338,110.338,0,0,1-1-12.21,55.113,55.113,0,0,1,.653,6.1A54.61,54.61,0,0,1,580.891,327.839Z" transform="translate(-559.23 -288.306)" fill="#263238"/>
        <path id="Trazado_185143" data-name="Trazado 185143" d="M560.9,314.967a12.946,12.946,0,0,1,1.678-.035c1.042,0,2.473.029,4.05.065s3.008.077,4.044.124a12.994,12.994,0,0,1,1.678.112,16.555,16.555,0,0,1-1.684.035c-1.036,0-2.467,0-4.05-.065s-3.008-.082-4.044-.124A12.829,12.829,0,0,1,560.9,314.967Z" transform="translate(-551.419 -288.013)" fill="#263238"/>
        <path id="Trazado_185144" data-name="Trazado 185144" d="M601.2,351.593a2.657,2.657,0,0,1-.035-.341,8.987,8.987,0,0,0-.041-.983c-.041-.859-.047-2.1,0-3.626s.135-3.356.318-5.369.489-4.227.9-6.529.93-4.474,1.454-6.434,1.083-3.7,1.6-5.145.954-2.608,1.289-3.4c.159-.371.288-.671.389-.912a1.236,1.236,0,0,1,.159-.306,1.766,1.766,0,0,1-.1.33c-.088.241-.2.547-.336.93-.3.8-.718,1.966-1.177,3.42s-1.013,3.2-1.531,5.151-1.007,4.121-1.431,6.417-.706,4.492-.918,6.476-.33,3.826-.383,5.351-.082,2.761-.082,3.615v.989A1.176,1.176,0,0,1,601.2,351.593Z" transform="translate(-567.951 -289.507)" fill="#263238"/>
        <path id="Trazado_185145" data-name="Trazado 185145" d="M598.159,346.21a6.971,6.971,0,0,1-1.024,1.118c-.659.659-1.6,1.548-2.673,2.49s-2.078,1.766-2.82,2.355a6.923,6.923,0,0,1-1.242.865,7.6,7.6,0,0,1,1.107-1.03l2.779-2.39,2.726-2.419a7.979,7.979,0,0,1,1.148-.989Z" transform="translate(-563.553 -300.884)" fill="#263238"/>
        <path id="Trazado_185146" data-name="Trazado 185146" d="M612.285,350.032a12.139,12.139,0,0,1-1.083-1.507l-2.531-3.691-2.584-3.656a12.509,12.509,0,0,1-1.036-1.548,10.216,10.216,0,0,1,1.213,1.419c.706.9,1.66,2.172,2.661,3.609s1.86,2.767,2.455,3.75A10.065,10.065,0,0,1,612.285,350.032Z" transform="translate(-569.579 -298.177)" fill="#263238"/>
        <path id="Trazado_185147" data-name="Trazado 185147" d="M601.615,322.428c.047.071-2.643,1.884-6.011,4.044s-6.128,3.862-6.175,3.791,2.643-1.884,6.011-4.05S601.568,322.358,601.615,322.428Z" transform="translate(-563.154 -291.101)" fill="#263238"/>
        <path id="Trazado_185148" data-name="Trazado 185148" d="M617.46,330.931a49.632,49.632,0,0,1-4.074-3.762,50.249,50.249,0,0,1-3.856-3.98,50.037,50.037,0,0,1,4.068,3.762,51.042,51.042,0,0,1,3.862,3.98Z" transform="translate(-571.421 -291.415)" fill="#263238"/>
        <path id="Trazado_185149" data-name="Trazado 185149" d="M626.262,324.23l2.308-.188a11.45,11.45,0,0,0,4.668-1.43,17.826,17.826,0,0,1,2.172-1.089c2.861-1.148,6.046-.942,9.119-1.1a37.623,37.623,0,0,0,14.505-3.709,1.4,1.4,0,0,0,.636-.589c.471-.865-.406-1.637-1.177-2.1-3.9-2.4-7.859-4.827-12.274-6.022s-9.419-.989-13.193,1.607c-4.421,3.044-6.028,9.29-6.776,14.605" transform="translate(-578.298 -284.879)" fill="#407bff"/>
        <path id="Trazado_185150" data-name="Trazado 185150" d="M659.764,317.413a2.53,2.53,0,0,1-.394-.183l-1.095-.589c-.948-.5-2.319-1.236-4.044-2.066a38.27,38.27,0,0,0-6.264-2.414,20.7,20.7,0,0,0-8.112-.653,13.852,13.852,0,0,0-7.4,3.173A16.531,16.531,0,0,0,628.6,320.1c-.807,1.731-1.307,3.2-1.672,4.209l-.412,1.177a1.763,1.763,0,0,1-.165.4,3.532,3.532,0,0,1,.106-.418l.353-1.177a39.381,39.381,0,0,1,1.6-4.268,16.435,16.435,0,0,1,3.862-5.534,14.023,14.023,0,0,1,7.547-3.267,20.693,20.693,0,0,1,8.242.689,36.707,36.707,0,0,1,6.281,2.49c1.719.859,3.073,1.625,4.009,2.155l1.066.624A2.464,2.464,0,0,1,659.764,317.413Z" transform="translate(-578.339 -286.433)" fill="#263238"/>
        <path id="Trazado_185151" data-name="Trazado 185151" d="M664.352,320.622c-.047.071-3.067-1.884-6.752-4.368s-6.6-4.551-6.6-4.615,3.067,1.884,6.752,4.362S664.4,320.552,664.352,320.622Z" transform="translate(-588.478 -286.664)" fill="#263238"/>
        <path id="Trazado_185152" data-name="Trazado 185152" d="M665.095,311.359a7.065,7.065,0,0,1-2.2.4,7.764,7.764,0,0,1-2.249-.029,14.534,14.534,0,0,1,2.219-.23A14.753,14.753,0,0,1,665.095,311.359Z" transform="translate(-592.447 -286.549)" fill="#263238"/>
        <path id="Trazado_185153" data-name="Trazado 185153" d="M644.159,308.44a5.888,5.888,0,0,1-.989,1.548,6.589,6.589,0,0,1-1.26,1.425,5.887,5.887,0,0,1,.995-1.548,6.476,6.476,0,0,1,1.254-1.425Z" transform="translate(-584.739 -285.348)" fill="#263238"/>
        <path id="Trazado_185154" data-name="Trazado 185154" d="M643.905,325.379a7.715,7.715,0,0,1-1.454-.783c-.871-.53-2.055-1.307-3.314-2.225s-2.355-1.766-3.167-2.414a9.131,9.131,0,0,1-1.26-1.077,8.87,8.87,0,0,1,1.389.907l3.22,2.355c1.254.912,2.408,1.713,3.25,2.29A9.842,9.842,0,0,1,643.905,325.379Z" transform="translate(-581.778 -289.643)" fill="#263238"/>
        <path id="Trazado_185155" data-name="Trazado 185155" d="M628.257,352.01c-2.208-.589-4.833,1.56-5.3,3.8s.383,4.515,1.366,6.576a33.468,33.468,0,0,0,9.113,11.921,22.555,22.555,0,0,0,13.934,5.133c-.93-4.327.247-8.83-.271-13.246a17.237,17.237,0,0,0-15.259-15.112c-1.407-.147-3.038-.371-3.6.93" transform="translate(-576.891 -302.84)" fill="#407bff"/>
        <path id="Trazado_185156" data-name="Trazado 185156" d="M651.181,380.184a1.666,1.666,0,0,1-.312-.147,5.238,5.238,0,0,1-.824-.553,8.512,8.512,0,0,1-2.178-2.908c-.353-.683-.742-1.425-1.13-2.249l-1.177-2.62a24.573,24.573,0,0,0-1.46-2.8,22.253,22.253,0,0,0-2-2.726c-1.507-1.766-3.126-3.3-4.533-4.768a31.411,31.411,0,0,1-3.456-4.121,15.421,15.421,0,0,1-1.69-3.226c-.141-.406-.241-.724-.294-.948a1.324,1.324,0,0,1-.065-.336c.029,0,.153.447.471,1.236a16.482,16.482,0,0,0,1.766,3.149,32.853,32.853,0,0,0,3.479,4.068c1.407,1.448,3.038,2.979,4.562,4.768a21.619,21.619,0,0,1,2.025,2.773,25.011,25.011,0,0,1,1.46,2.837L647,374.244c.365.818.748,1.566,1.089,2.255a8.771,8.771,0,0,0,2.06,2.943C650.763,379.948,651.2,380.154,651.181,380.184Z" transform="translate(-580.688 -303.586)" fill="#263238"/>
        <path id="Trazado_185157" data-name="Trazado 185157" d="M645.18,386.359a6.549,6.549,0,0,1,.2-1.483c.177-.907.459-2.155.842-3.532s.789-2.567,1.119-3.432a6.374,6.374,0,0,1,.589-1.372,7.745,7.745,0,0,1-.4,1.442c-.271.883-.642,2.1-1.024,3.45s-.695,2.578-.924,3.473A8.27,8.27,0,0,1,645.18,386.359Z" transform="translate(-586.084 -313.359)" fill="#263238"/>
        <path id="Trazado_185158" data-name="Trazado 185158" d="M656.435,373.506a9.2,9.2,0,0,1-1.554-.353c-.948-.247-2.261-.589-3.721-.918s-2.79-.589-3.75-.765a9.645,9.645,0,0,1-1.56-.341,7.56,7.56,0,0,1,1.6.124c.971.129,2.32.353,3.785.683s2.773.706,3.715,1.007a8.027,8.027,0,0,1,1.489.565Z" transform="translate(-586.36 -311.131)" fill="#263238"/>
        <path id="Trazado_185159" data-name="Trazado 185159" d="M631.29,372.441a8.639,8.639,0,0,1,.235-1.719c.194-1.054.506-2.5.918-4.08s.848-2.991,1.177-4a8.684,8.684,0,0,1,.63-1.619,10.959,10.959,0,0,1-.424,1.684c-.294,1.024-.695,2.443-1.107,4.015s-.754,3.008-1,4.05A11.22,11.22,0,0,1,631.29,372.441Z" transform="translate(-580.371 -306.975)" fill="#263238"/>
        <path id="Trazado_185160" data-name="Trazado 185160" d="M646.677,358.529c0,.082-2.761-.141-6.146-.5s-6.122-.718-6.111-.8,2.761.141,6.146.495A59.65,59.65,0,0,1,646.677,358.529Z" transform="translate(-581.659 -305.408)" fill="#263238"/>
        <path id="Trazado_185161" data-name="Trazado 185161" d="M621.634,416.019c0,.082-9.672.153-21.6.153s-21.605-.071-21.605-.153,9.672-.159,21.605-.159S621.634,415.942,621.634,416.019Z" transform="translate(-558.63 -329.531)" fill="#455a64"/>
        <path id="Trazado_185162" data-name="Trazado 185162" d="M620.051,437.159c0,.082-6.517.153-14.552.153s-14.558-.071-14.558-.153S597.451,437,605.5,437,620.051,437.071,620.051,437.159Z" transform="translate(-563.775 -338.226)" fill="#455a64"/>
        <path id="Trazado_185163" data-name="Trazado 185163" d="M620.015,440.183c0,.082-6.4.153-14.3.153s-14.305-.071-14.305-.153,6.4-.153,14.305-.153S620.015,440.1,620.015,440.183Z" transform="translate(-563.968 -339.473)" fill="#455a64"/>
        <path id="Trazado_185164" data-name="Trazado 185164" d="M619.786,434.673c0,.082-6.741.153-15.053.153s-15.053-.071-15.053-.153,6.735-.153,15.053-.153S619.786,434.585,619.786,434.673Z" transform="translate(-563.257 -337.206)" fill="#455a64"/>
      </g>
      <g id="freepik--Floor--inject-3" transform="translate(55.935 287.363)">
        <path id="Trazado_185165" data-name="Trazado 185165" d="M429.086,467.463c0,.082-80.368.153-179.492.153s-179.5-.071-179.5-.153,80.351-.153,179.5-.153S429.086,467.381,429.086,467.463Z" transform="translate(-70.09 -467.31)" fill="#263238"/>
      </g>
      <g id="freepik--Character--inject-3" transform="translate(40.897 138.419)">
        <path id="Trazado_185166" data-name="Trazado 185166" d="M203.862,302.1s7.835,1.937,9.148,18.09c.771,9.449,1.684,19.08,1.684,19.08l17.231,4.068,3.032,9.419-22.57,4.439c-6.246,0-13.11-5.392-12.951-11.638l-.265-21.734Z" transform="translate(-108.144 -250.414)" fill="#407bff"/>
        <path id="Trazado_185167" data-name="Trazado 185167" d="M134.219,299.588l-3.5,24.266a24.867,24.867,0,0,0,.736,10.491l4.315,14.788s-5.857,7.506-1.024,10.408c.954.589,26.856,1.766,26.856,1.766l12.557-.865,1.678-35.94L175.6,299.47s-8.719-3.173-12.133-3.532a129.584,129.584,0,0,0-19.038.159Z" transform="translate(-79.887 -247.767)" fill="#407bff"/>
        <path id="Trazado_185168" data-name="Trazado 185168" d="M175.1,341.717a2.55,2.55,0,0,0-.924-.035,3.067,3.067,0,0,1-2.849-1.9,4.609,4.609,0,0,1-.812,1.672,1.589,1.589,0,0,1-1.672.547c-.63-.241-.924-.942-1.383-1.425a2.52,2.52,0,0,0-3.991.889c-.235.7-.383,1.719-1.124,1.707-.848,0-.836-1.378-1.5-1.907s-1.666,0-2.243.665-1.177,1.454-2.049,1.436a1.916,1.916,0,0,1-1.642-1.554c-.235-.771-.235-1.6-.518-2.355a1.823,1.823,0,0,0-1.766-1.336c-.989.153-1.354,1.342-1.613,2.3s-.977,2.1-1.943,1.854c-1.383-.353-.824-2.8-2.043-3.532-.859-.518-1.984.224-2.443,1.118s-.589,1.954-1.124,2.8-1.919,1.272-2.508.506c-.218-.265-.306-.63-.542-.877a1.513,1.513,0,0,0-1.766-.071c-.589.306-1.036.789-1.625,1.042a2.123,2.123,0,0,1-2.208-.589l-1.766,3.126c-.288.653-1.066,1.466-.589,1.737a.889.889,0,0,0,1.248-.506,1.925,1.925,0,0,0,2.2-.188c.424-.4.824-1.066,1.383-.912.288.077.471.353.671.589a2.213,2.213,0,0,0,2.867.253,12.289,12.289,0,0,0,1.177-1.254,1.483,1.483,0,0,1,1.536-.477c.624.265.754,1.095.695,1.766a3.121,3.121,0,0,0,.171,1.99,1.84,1.84,0,0,0,2.4.318,10.157,10.157,0,0,0,1.937-1.766,2.724,2.724,0,0,1,2.355-.977c1.013.206,1.766,1.336,2.808,1.213.712-.088,1.254-.759,1.972-.8s1.4.7,2.155.936c1.713.536,3.267-1.607,5.057-1.442,1.637.153,2.943,2.2,4.5,1.631,1.36-.5,1.372-2.567,2.567-3.385a3.656,3.656,0,0,1,2.549-.306,3.657,3.657,0,0,0,2.549-.312A1.306,1.306,0,0,0,175.1,341.717Z" transform="translate(-80.645 -265.224)" fill="#fff"/>
        <path id="Trazado_185169" data-name="Trazado 185169" d="M206.992,340.848a.977.977,0,0,1,1.5-1.177,1.766,1.766,0,0,1,.518,1.33,3.355,3.355,0,0,0,.235,1.436.877.877,0,0,0,1.224.406c.306-.241.318-.683.359-1.071s.235-.842.624-.859.63.418.7.8.094.824.4,1.066c.43-.13.524-.677.618-1.119s.512-.942.9-.724c.194.106.265.347.365.547s.312.394.518.312c.347-.13.165-.795.512-.93.23-.082.442.159.589.371a2.572,2.572,0,0,1,.483,1.242.912.912,0,0,1-.742.965,3.208,3.208,0,0,1-.771-.188,1.46,1.46,0,0,0-1.419.718,4.221,4.221,0,0,0-.518,1.584,1.766,1.766,0,0,0-2.52.171c-.495.648-.624,1.725-1.425,1.89a1.177,1.177,0,0,1-1.219-.836,3.4,3.4,0,0,1,0-1.6l-1.095.9-.247-1.436" transform="translate(-111.192 -265.779)" fill="#fff"/>
        <g id="Grupo_143557" data-name="Grupo 143557" transform="translate(51.107 92.17)" opacity="0.3">
          <path id="Trazado_185170" data-name="Trazado 185170" d="M133.232,387.512l13.84-4.274,8.8-.807s2.514,4.386,4.751,4.18a9.419,9.419,0,0,0,3.762-1.177s.848,4.615,3.085,4.274,1.089-14.129,1.089-14.129l-23.348-4.71-13.852,3.609Z" transform="translate(-131.36 -370.87)"/>
        </g>
        <path id="Trazado_185171" data-name="Trazado 185171" d="M116.6,302.33s-7.206,2.526-9.914,6.582c-3.573,5.375-13.669,20.822-18.4,32.914-1.484,3.785-.247,9.6,1.943,13.022h0a12.3,12.3,0,0,0,13.74,5.186l25.249-7.123,2.355-14.193-21.994.918,6.164-10.108Z" transform="translate(-62.27 -250.509)" fill="#407bff"/>
        <path id="Trazado_185172" data-name="Trazado 185172" d="M102.33,340.093a1.4,1.4,0,0,1,2.2.1c.389.589.389,1.637,1.1,1.766.518.1.93-.4,1.277-.806s.971-.771,1.36-.406.171,1.06.589,1.33.854-.135,1.113-.506.589-.824,1.013-.783c.918.082.724,1.978,1.648,2,.471,0,.754-.536,1.177-.712.589-.235,1.177.2,1.631.589a3.067,3.067,0,0,1,.783.895,1.03,1.03,0,0,1-.088,1.13c-.406.442-1.136.259-1.66-.035a2.411,2.411,0,0,0-1.672-.524c-.983.247-1.342,1.866-2.355,1.766-.918-.106-1.177-1.6-2.084-1.7s-1.654,1.431-2.543,1.066c-.412-.165-.589-.683-.965-.912a1.33,1.33,0,0,0-1.224.065,8.541,8.541,0,0,1-1.136.589,1.03,1.03,0,0,1-1.177-.277c-.241-.353.047-.971.465-.877l-1.007-.165v-.8" transform="translate(-67.671 -265.842)" fill="#fff"/>
        <path id="Trazado_185173" data-name="Trazado 185173" d="M206.054,326.21a7.567,7.567,0,0,1,.077,1.13c0,.73.047,1.766.053,3.091,0,2.614-.029,6.217-.212,10.2s-.506,7.582-.748,10.184c-.13,1.3-.247,2.355-.341,3.073.23,10.184-.153,1.119-.177,1.119a7.5,7.5,0,0,1,.041-1.136c.059-.783.135-1.825.23-3.079.194-2.6.442-6.193.624-10.167s.271-7.576.312-10.184c0-1.26.041-2.3.059-3.091A6.6,6.6,0,0,1,206.054,326.21Z" transform="translate(-110.419 -260.331)" fill="#263238"/>
        <path id="Trazado_185174" data-name="Trazado 185174" d="M207.576,303.42a36.157,36.157,0,0,0-1.607,3.244c-.695,1.872-.83,3.532-.942,3.5a7.776,7.776,0,0,1,.618-3.626,7.694,7.694,0,0,1,1.931-3.12Z" transform="translate(-110.545 -250.957)" fill="#263238"/>
        <path id="Trazado_185175" data-name="Trazado 185175" d="M137.344,317.959c-.053,0-.106-.653-.347-1.678a13.835,13.835,0,0,0-1.536-3.779,14.028,14.028,0,0,0-2.584-3.155c-.783-.7-1.336-1.06-1.307-1.107a1.413,1.413,0,0,1,.418.212,7.976,7.976,0,0,1,1.03.736,12.162,12.162,0,0,1,4.191,7.064,9.548,9.548,0,0,1,.153,1.254A1.419,1.419,0,0,1,137.344,317.959Z" transform="translate(-80.339 -252.94)" fill="#263238"/>
        <path id="Trazado_185176" data-name="Trazado 185176" d="M119.114,365.91a30.615,30.615,0,0,0-4.021,1.66,31.355,31.355,0,0,0-3.573,2.478,4.35,4.35,0,0,1,.877-.948,13.77,13.77,0,0,1,2.555-1.8,13.258,13.258,0,0,1,2.89-1.177,3.774,3.774,0,0,1,1.272-.212Z" transform="translate(-72.093 -276.66)" fill="#263238"/>
        <path id="Trazado_185177" data-name="Trazado 185177" d="M135,334.2a4.2,4.2,0,0,1-.318.765c-.218.489-.553,1.177-.977,2.031-.848,1.7-2.066,4.033-3.491,6.558s-2.79,4.78-3.809,6.381c-.512.806-.936,1.448-1.236,1.89a4.2,4.2,0,0,1-.489.665,4.493,4.493,0,0,1,.389-.73l1.177-1.937c.971-1.631,2.308-3.891,3.732-6.417s2.667-4.833,3.562-6.511c.43-.795.789-1.46,1.066-1.984A4.622,4.622,0,0,1,135,334.2Z" transform="translate(-77.506 -263.617)" fill="#263238"/>
        <path id="Trazado_185178" data-name="Trazado 185178" d="M111.52,385.764l.135-.053.406-.124,1.56-.459,5.8-1.637L139,378.07l-.106.124c.218-1.354.453-2.779.689-4.227.589-3.5,1.142-6.87,1.654-9.967l.135.171a145.307,145.307,0,0,0-16.277.589l-4.71.394-1.254.1h-.324l.318-.047,1.254-.141c1.089-.124,2.679-.288,4.71-.483a135.147,135.147,0,0,1,16.307-.706h.165l-.029.165c-.506,3.1-1.06,6.476-1.631,9.967-.241,1.448-.477,2.873-.7,4.227v.1h-.094l-19.6,5.3-5.828,1.554-1.578.4-.406.1A.631.631,0,0,1,111.52,385.764Z" transform="translate(-72.093 -275.815)" fill="#263238"/>
        <path id="Trazado_185179" data-name="Trazado 185179" d="M177.65,443.73s25.649,7.1,26.68,7.465c1.542.542,1.283,6.2-1.118,6.117-1.136-.041-19.7.689-22.052.542s-9.419-2.943-9.419-2.943Z" transform="translate(-96.862 -308.668)" fill="#407bff"/>
        <path id="Trazado_185180" data-name="Trazado 185180" d="M199.9,456.784a22.306,22.306,0,0,1,1.13-2.755c.83-1.413,1.9-2.261,1.813-2.355a4.443,4.443,0,0,0-2.184,2.149A4.717,4.717,0,0,0,199.9,456.784Z" transform="translate(-108.423 -311.932)" fill="#263238"/>
        <path id="Trazado_185181" data-name="Trazado 185181" d="M195.364,454.883c.124,0,.383-1.177,1.066-2.531s1.489-2.278,1.4-2.355a4.669,4.669,0,0,0-1.766,2.172A5.114,5.114,0,0,0,195.364,454.883Z" transform="translate(-106.563 -311.243)" fill="#263238"/>
        <path id="Trazado_185182" data-name="Trazado 185182" d="M191,453.585a19.262,19.262,0,0,1,.589-2.714,18.4,18.4,0,0,1,1.4-2.4,3.877,3.877,0,0,0-1.8,2.243A3.985,3.985,0,0,0,191,453.585Z" transform="translate(-104.714 -310.616)" fill="#263238"/>
        <path id="Trazado_185183" data-name="Trazado 185183" d="M190.477,447.373a4.58,4.58,0,0,0,.277-1.907,9.012,9.012,0,0,0-.265-2.1,9.5,9.5,0,0,0-.377-1.177,1.572,1.572,0,0,0-.412-.63.683.683,0,0,0-.883.047,1.177,1.177,0,0,0-.341.724,5.3,5.3,0,0,0-.035.677,5.663,5.663,0,0,0,.159,1.254,7.807,7.807,0,0,0,.789,1.966,5.3,5.3,0,0,0,1.177,1.542c.059-.041-.371-.642-.883-1.684a8.455,8.455,0,0,1-.671-1.907,5.418,5.418,0,0,1-.124-1.177c0-.394,0-.889.235-1.077a.247.247,0,0,1,.341,0,1.1,1.1,0,0,1,.277.447,9.538,9.538,0,0,1,.389,1.13,10.154,10.154,0,0,1,.341,2.007C190.535,446.637,190.406,447.361,190.477,447.373Z" transform="translate(-103.73 -307.719)" fill="#263238"/>
        <path id="Trazado_185184" data-name="Trazado 185184" d="M188.255,450.894a3.62,3.62,0,0,0-1.654-.271,7.454,7.454,0,0,0-1.819.224,3.95,3.95,0,0,0-1.048.389,1.071,1.071,0,0,0-.589,1.177,1.26,1.26,0,0,0,.924.912,2.3,2.3,0,0,0,1.148,0,4.409,4.409,0,0,0,1.666-.818,4.563,4.563,0,0,0,1.177-1.177,12.032,12.032,0,0,0-1.366.924,4.569,4.569,0,0,1-1.578.683,2.06,2.06,0,0,1-.948,0,.865.865,0,0,1-.624-.589.659.659,0,0,1,.377-.712,3.914,3.914,0,0,1,.936-.365,8.309,8.309,0,0,1,1.725-.3C187.619,450.841,188.249,450.959,188.255,450.894Z" transform="translate(-101.544 -311.499)" fill="#263238"/>
        <path id="Trazado_185185" data-name="Trazado 185185" d="M206.488,457.8a14.175,14.175,0,0,1,.506-2.314,17.725,17.725,0,0,1,1.26-2.013c-.077-.1-1.118.506-1.654,1.849A3.084,3.084,0,0,0,206.488,457.8Z" transform="translate(-111.077 -312.671)" fill="#263238"/>
        <path id="Trazado_185186" data-name="Trazado 185186" d="M176.22,462.835a5.891,5.891,0,0,0,.995.465,21.372,21.372,0,0,0,2.855.883,40.619,40.619,0,0,0,9.79.93c3.844-.041,7.306-.218,9.819-.318l2.973-.159a5.363,5.363,0,0,0,1.089-.118,5.717,5.717,0,0,0-1.095-.047h-2.973l-9.813.194a45.8,45.8,0,0,1-9.725-.795C177.68,463.382,176.249,462.753,176.22,462.835Z" transform="translate(-98.705 -316.523)" fill="#263238"/>
        <path id="Trazado_185187" data-name="Trazado 185187" d="M174.93,462.319c.035.059.736-.353,1.925-.871a8.924,8.924,0,0,1,4.851-.807,7.683,7.683,0,0,1,4.2,2.5,15.453,15.453,0,0,0,1.478,1.513,7.765,7.765,0,0,0-1.254-1.719,10.266,10.266,0,0,0-1.7-1.589,6.1,6.1,0,0,0-2.649-1.124,8.507,8.507,0,0,0-5.051.954A7.013,7.013,0,0,0,174.93,462.319Z" transform="translate(-98.174 -315.424)" fill="#263238"/>
        <g id="Grupo_143558" data-name="Grupo 143558" transform="translate(74.878 135.062)" opacity="0.3">
          <path id="Trazado_185188" data-name="Trazado 185188" d="M177.65,443.73s25.649,7.1,26.68,7.465c1.542.542,1.283,6.2-1.118,6.117-1.136-.041-19.7.689-22.052.542s-9.419-2.943-9.419-2.943Z" transform="translate(-171.74 -443.73)"/>
        </g>
        <path id="Trazado_185189" data-name="Trazado 185189" d="M99.408,404.17l-5.2,10.685s-27.8-8.43-34.809-8.065-12.739,3.2-14.129,8.883-1.548,13.54,6.623,18.991,48.844,8.454,48.844,8.454H116.81l26.273-34.633-4.233-3.432Z" transform="translate(-44.546 -292.397)" fill="#263238"/>
        <path id="Trazado_185190" data-name="Trazado 185190" d="M118.667,432.645a3.3,3.3,0,0,1-.53,0,11.52,11.52,0,0,1-1.507-.118,30.99,30.99,0,0,1-5.451-1.124,52.394,52.394,0,0,1-7.653-3c-2.814-1.325-5.81-2.943-8.96-4.651a93.6,93.6,0,0,0-9.078-4.356,40.672,40.672,0,0,0-7.853-2.355,27.4,27.4,0,0,0-5.5-.483c-.653,0-1.177.053-1.5.059a2.776,2.776,0,0,1-.53,0,3.365,3.365,0,0,1,.524-.077c.341,0,.848-.118,1.507-.124a25.97,25.97,0,0,1,5.551.371,39.191,39.191,0,0,1,7.894,2.319A88.213,88.213,0,0,1,94.7,423.45c3.149,1.69,6.14,3.326,8.93,4.662a54.484,54.484,0,0,0,7.618,3.061,34.305,34.305,0,0,0,5.4,1.224c.642.112,1.177.135,1.5.182A3,3,0,0,1,118.667,432.645Z" transform="translate(-55.057 -297.424)" fill="#455a64"/>
        <path id="Trazado_185191" data-name="Trazado 185191" d="M169.87,436.783c5.163-2.025,33.555-11.062,43.61-22.682,8.371-9.672-4.945-18.332-4.945-18.332s-9.337-.294-12.451,0S148.4,426.186,148.4,426.186s7.783,15.176,7.588,15.759Z" transform="translate(-87.262 -288.887)" fill="#263238"/>
        <path id="Trazado_185192" data-name="Trazado 185192" d="M184.024,408.32a1.027,1.027,0,0,1-.118.094l-.377.253-1.454.954-5.4,3.432-17.861,11.232-9.708,6.052.065-.2,5.086,12.239c.589,1.483,1.089,2.673,1.431,3.532l.371.942a1.465,1.465,0,0,1,.106.33,2.035,2.035,0,0,1-.159-.312c-.106-.23-.241-.536-.412-.918l-1.519-3.479c-1.283-3.014-3.091-7.241-5.2-12.192l-.053-.124.118-.077,9.69-6.075,17.92-11.162L182,409.5l1.5-.895.394-.224Z" transform="translate(-87.435 -294.103)" fill="#455a64"/>
        <path id="Trazado_185193" data-name="Trazado 185193" d="M136.653,427.14a4.557,4.557,0,0,1-1.319-.495,17.927,17.927,0,0,1-2.914-1.766,18.318,18.318,0,0,1-2.549-2.249,4.456,4.456,0,0,1-.871-1.113c.082-.071,1.5,1.536,3.626,3.079S136.682,427.04,136.653,427.14Z" transform="translate(-79.283 -299.531)" fill="#455a64"/>
        <path id="Trazado_185194" data-name="Trazado 185194" d="M168.115,409.68a10.64,10.64,0,0,1,.071,1.766c0,1.095.059,2.608.206,4.268s.383,3.161.589,4.239a11.127,11.127,0,0,1,.253,1.766,7.252,7.252,0,0,1-.495-1.713,32.6,32.6,0,0,1-.671-4.25,34,34,0,0,1-.106-4.3A8.176,8.176,0,0,1,168.115,409.68Z" transform="translate(-95.298 -294.663)" fill="#455a64"/>
        <path id="Trazado_185195" data-name="Trazado 185195" d="M172.663,409.055a.613.613,0,0,1,.347.047,1.548,1.548,0,0,1,.736.618,1.684,1.684,0,0,1,.212,1.431,1.554,1.554,0,0,1-1.442,1.018A1.507,1.507,0,0,1,171,411.28a1.6,1.6,0,0,1,.194-1.436,1.4,1.4,0,0,1,.777-.589.641.641,0,0,1,.359,0,1.648,1.648,0,0,0-.924.712,1.354,1.354,0,0,0-.112,1.177,1.219,1.219,0,0,0,1.213.665,1.248,1.248,0,0,0,1.177-.777,1.5,1.5,0,0,0-.124-1.177A2.108,2.108,0,0,0,172.663,409.055Z" transform="translate(-96.519 -294.403)" fill="#455a64"/>
        <path id="Trazado_185196" data-name="Trazado 185196" d="M144.417,407.15a1.46,1.46,0,0,1,.241.524,4.91,4.91,0,0,1,.235,1.572,5.669,5.669,0,0,1-.518,2.308,5.186,5.186,0,0,1-4.615,3.108,5.575,5.575,0,0,1-2.355-.394,4.71,4.71,0,0,1-1.366-.806,1.684,1.684,0,0,1-.4-.424,8.786,8.786,0,0,0,1.848,1,5.776,5.776,0,0,0,2.231.3,5.01,5.01,0,0,0,4.345-2.943,5.787,5.787,0,0,0,.559-2.178A8.376,8.376,0,0,0,144.417,407.15Z" transform="translate(-82.014 -293.622)" fill="#455a64"/>
        <path id="Trazado_185197" data-name="Trazado 185197" d="M192.952,412.461a1.766,1.766,0,0,1-1.054-.147,4,4,0,0,1-2.667-4.08,1.889,1.889,0,0,1,.288-1.024,9.939,9.939,0,0,1-.041,1.03,4.2,4.2,0,0,0,2.508,3.844C192.564,412.349,192.958,412.385,192.952,412.461Z" transform="translate(-104.051 -293.647)" fill="#455a64"/>
        <path id="Trazado_185198" data-name="Trazado 185198" d="M255.07,370.008s6.122-4.551,7.188-4.745,9.2.83,9.69,1.319,8.042,6.181,6.582,6.67-6.682-3.562-6.682-3.562h-.977s4.58,3.373,5.3,4.527c.677,1.054-.265,2.066-1.13,1.5s-4.768-3.644-5.116-3.6,4.121,3.609,4.48,4.2c.5.795-.088,2.113-.965,1.584-.518-.318-4.58-3.95-4.58-3.95a45.693,45.693,0,0,1,3.155,3.856.773.773,0,0,1-1.3.807c-.489-.406-2.467-3.014-3.126-3.562,0,0-.789-.171-2.143.907s-7.706,2.29-7.706,2.29Z" transform="translate(-131.136 -276.384)" fill="#ffbe9d"/>
        <path id="Trazado_185199" data-name="Trazado 185199" d="M258.21,372.89a1.866,1.866,0,0,0,1.925.995c.777-.053,1.513-.359,2.278-.465,2.3-.318,4.58,1.219,6.858.789.318-.059.695-.23.7-.553s-.3-.495-.589-.624l-6.905-3.361" transform="translate(-132.428 -278.206)" fill="#ffbe9d"/>
        <path id="Trazado_185200" data-name="Trazado 185200" d="M262.481,369.67a3.1,3.1,0,0,1,.783.283c.495.212,1.177.53,2.066.93l3.044,1.431.877.418c.265.153.683.235.895.724a.665.665,0,0,1-.218.695,1.4,1.4,0,0,1-.589.265,5.2,5.2,0,0,1-1.13.082,26.386,26.386,0,0,1-4.056-.812,5.83,5.83,0,0,0-1.731-.088c-.536.065-1.036.224-1.513.318a2.7,2.7,0,0,1-2.266-.312c-.459-.359-.483-.718-.465-.712a1.637,1.637,0,0,0,.589.589,2.626,2.626,0,0,0,2.1.153c.459-.112.954-.288,1.536-.377a5.887,5.887,0,0,1,1.843.047,35.194,35.194,0,0,0,4,.777,4.492,4.492,0,0,0,1.007-.094c.312-.059.542-.247.471-.4a1.583,1.583,0,0,0-.665-.477l-.871-.436-3-1.513c-.848-.436-1.536-.795-2.007-1.054a3.255,3.255,0,0,1-.7-.436Z" transform="translate(-132.413 -278.206)" fill="#eb996e"/>
        <path id="Trazado_185201" data-name="Trazado 185201" d="M287.265,375.9a4.249,4.249,0,0,1-1.725-.359,10.593,10.593,0,0,1-1.766-.812c-.589-.4-1.236-.854-1.913-1.33l-1.425-1.024.094.041a24.712,24.712,0,0,1-4.15-.73,25.269,25.269,0,0,1,4.2.312h.053l.047.035,1.425,1,1.878,1.342a11.675,11.675,0,0,0,1.648.871C286.635,375.673,287.283,375.838,287.265,375.9Z" transform="translate(-139.901 -279.023)" fill="#eb996e"/>
        <path id="Trazado_185202" data-name="Trazado 185202" d="M131.743,451s-25.649,7.1-26.68,7.459c-1.548.547-1.283,6.2,1.119,6.117,1.136-.041,19.7.695,22.046.547s8.66-2.643,8.66-2.643Z" transform="translate(-69.039 -311.658)" fill="#407bff"/>
        <path id="Trazado_185203" data-name="Trazado 185203" d="M130.85,464.043a22.733,22.733,0,0,0-1.13-2.755c-.83-1.419-1.9-2.255-1.813-2.355a4.41,4.41,0,0,1,2.184,2.149A4.717,4.717,0,0,1,130.85,464.043Z" transform="translate(-78.831 -314.917)" fill="#263238"/>
        <path id="Trazado_185204" data-name="Trazado 185204" d="M135.722,462.143c-.124,0-.383-1.177-1.066-2.531s-1.489-2.278-1.4-2.355a4.708,4.708,0,0,1,1.766,2.172A5.214,5.214,0,0,1,135.722,462.143Z" transform="translate(-81.03 -314.229)" fill="#263238"/>
        <path id="Trazado_185205" data-name="Trazado 185205" d="M140.32,460.845a18.173,18.173,0,0,0-.589-2.708,20.586,20.586,0,0,0-1.4-2.4,3.856,3.856,0,0,1,1.8,2.243A3.81,3.81,0,0,1,140.32,460.845Z" transform="translate(-83.12 -313.602)" fill="#263238"/>
        <path id="Trazado_185206" data-name="Trazado 185206" d="M140.739,454.639a4.55,4.55,0,0,1-.277-1.907,9.219,9.219,0,0,1,.259-2.09,9.334,9.334,0,0,1,.383-1.177,1.407,1.407,0,0,1,.412-.624.683.683,0,0,1,.883.041,1.177,1.177,0,0,1,.341.724,5.344,5.344,0,0,1,0,.677,5.768,5.768,0,0,1-.153,1.26,7.842,7.842,0,0,1-.795,1.96,5.111,5.111,0,0,1-1.148,1.542c-.059-.041.371-.636.883-1.684a8.454,8.454,0,0,0,.671-1.907,5.811,5.811,0,0,0,.124-1.177c0-.394,0-.889-.235-1.077a.259.259,0,0,0-.341,0,1.177,1.177,0,0,0-.283.447,9.276,9.276,0,0,0-.389,1.136,10.425,10.425,0,0,0-.336,2C140.692,453.9,140.81,454.627,140.739,454.639Z" transform="translate(-83.993 -310.711)" fill="#263238"/>
        <path id="Trazado_185207" data-name="Trazado 185207" d="M141,458.158a3.6,3.6,0,0,1,1.654-.265,7.43,7.43,0,0,1,1.825.218,4.169,4.169,0,0,1,1.048.389,1.083,1.083,0,0,1,.589,1.177,1.289,1.289,0,0,1-.924.918,2.355,2.355,0,0,1-1.177,0,4.321,4.321,0,0,1-1.666-.818,4.61,4.61,0,0,1-1.177-1.177,10.323,10.323,0,0,1,1.366.924,4.58,4.58,0,0,0,1.572.677,1.936,1.936,0,0,0,.954,0,.865.865,0,0,0,.624-.589.659.659,0,0,0-.383-.718,3.781,3.781,0,0,0-.93-.365,8.72,8.72,0,0,0-1.725-.3C141.636,458.122,141,458.228,141,458.158Z" transform="translate(-84.218 -314.489)" fill="#263238"/>
        <path id="Trazado_185208" data-name="Trazado 185208" d="M124.976,465.064a13.475,13.475,0,0,0-.506-2.314,18.8,18.8,0,0,0-1.254-2.007c.082-.1,1.119.5,1.654,1.843A3.036,3.036,0,0,1,124.976,465.064Z" transform="translate(-76.901 -315.661)" fill="#263238"/>
        <path id="Trazado_185209" data-name="Trazado 185209" d="M137.412,470.1a4.915,4.915,0,0,1-.995.465,21.523,21.523,0,0,1-2.855.889,40.692,40.692,0,0,1-9.79.942c-3.844-.041-7.312-.218-9.819-.318l-2.943-.159a5.166,5.166,0,0,1-1.089-.112,5.348,5.348,0,0,1,1.095-.053h2.943l9.813.188a45.8,45.8,0,0,0,9.743-.789C135.946,470.627,137.382,470.038,137.412,470.1Z" transform="translate(-71.435 -319.511)" fill="#263238"/>
        <path id="Trazado_185210" data-name="Trazado 185210" d="M149.211,469.58a20.467,20.467,0,0,1-1.925-.871,8.978,8.978,0,0,0-4.851-.807,7.718,7.718,0,0,0-4.2,2.5,15.455,15.455,0,0,1-1.478,1.513,7.923,7.923,0,0,1,1.254-1.719,10.52,10.52,0,0,1,1.7-1.589,6.1,6.1,0,0,1,2.649-1.124,8.513,8.513,0,0,1,5.051.96,6.917,6.917,0,0,1,1.8,1.142Z" transform="translate(-82.474 -318.411)" fill="#263238"/>
        <path id="Trazado_185211" data-name="Trazado 185211" d="M113.374,468.57c-.041-.035.177-.371.377-.971a4.709,4.709,0,0,0-.848-4.6c-.4-.483-.73-.724-.695-.771a2.013,2.013,0,0,1,.877.589,4.439,4.439,0,0,1,1.177,2.29,4.392,4.392,0,0,1-.3,2.561A2.091,2.091,0,0,1,113.374,468.57Z" transform="translate(-72.375 -316.277)" fill="#263238"/>
        <path id="Trazado_185212" data-name="Trazado 185212" d="M180.832,371.865c-2.155-.659-1.177-3.044-5.145-4.362-2.943-.983-6.122-2.82-14.829-1.831l-1.978,12.009,8.365-2.225,2.414,5.392a2.161,2.161,0,0,0,2.908,1.066l4.244-2.031s1.177,5.834,1.554,6.064a1.248,1.248,0,0,0,1.913-1.177c-.165-.783-.589-10.914-.589-10.914s3.214.912,3.014-.371C182.681,373.507,182.987,372.524,180.832,371.865Z" transform="translate(-91.572 -276.445)" fill="#ffbe9d"/>
        <path id="Trazado_185213" data-name="Trazado 185213" d="M180.5,391.189a6.78,6.78,0,0,1,.277-.659,3.815,3.815,0,0,0,.212-1.672,3.756,3.756,0,0,0-.542-1.589c-.23-.371-.43-.589-.4-.589a1.448,1.448,0,0,1,.536.5,3.4,3.4,0,0,1,.63,1.666,3.291,3.291,0,0,1-.288,1.766A1.607,1.607,0,0,1,180.5,391.189Z" transform="translate(-100.278 -285.203)" fill="#eb996e"/>
        <path id="Trazado_185214" data-name="Trazado 185214" d="M184.83,389.153a4.845,4.845,0,0,0-.73-3.9,1.794,1.794,0,0,1,.436.447,3.615,3.615,0,0,1,.589,1.383,3.668,3.668,0,0,1-.035,1.5,1.354,1.354,0,0,1-.259.571Z" transform="translate(-101.946 -284.615)" fill="#eb996e"/>
        <path id="Trazado_185215" data-name="Trazado 185215" d="M188.51,384a1.4,1.4,0,0,1,.3.424,3.091,3.091,0,0,1,.082,2.449c-.124.3-.247.453-.271.441a7.063,7.063,0,0,0,.253-1.666A6.694,6.694,0,0,0,188.51,384Z" transform="translate(-103.76 -284.1)" fill="#eb996e"/>
        <path id="Trazado_185216" data-name="Trazado 185216" d="M204.879,382.206l-43.192-1.071a.824.824,0,0,1-.806-.824h0a.824.824,0,0,1,.818-.83l23.824-.3,9.419-29.164a2.314,2.314,0,0,1,2.272-1.607l36.146,1a2.355,2.355,0,0,1,2.107,3.144l-11.362,30.135-19.233-.483" transform="translate(-92.395 -269.461)" fill="#455a64"/>
        <path id="Trazado_185217" data-name="Trazado 185217" d="M248.666,375.578c-.424-.783-2.213-1.042-3.073-.394a2.4,2.4,0,0,0-1.124,1.442,2.055,2.055,0,0,0,1.248,2.4,2.461,2.461,0,0,0,2.543-.96,2.355,2.355,0,0,0,.406-2.49Z" transform="translate(-126.751 -280.323)" fill="#fff"/>
        <path id="Trazado_185218" data-name="Trazado 185218" d="M185.648,226c.459-.624,1.483-.053,1.813.653s.483,1.6,1.177,1.937c.918.442,2.325-.353,2.9.495.436.648-.206,1.531,0,2.29.33,1.36,2.673,1.03,3.338,2.261.4.736,0,1.619-.33,2.39s-.436,1.843.271,2.278,1.766-.065,2.355.5c.777.765-.389,2.066-.147,3.126.177.783,1.048,1.177,1.831,1.336a3.645,3.645,0,0,1,2.172.907c1.142,1.348-.53,3.426-.065,5.133.283,1.03,1.354,1.9,1.1,2.943-.318,1.325-2.478,1.507-2.785,2.837-.265,1.13,1.024,2.425.312,3.344s-2.231.059-3.214.589c-1.13.642-.918,2.761-2.184,3.073-.589.135-1.177-.2-1.731-.118-1.4.206-1.766,2.62-3.179,2.526-.824-.053-1.472-1.03-2.272-.83s-.907,1.319-1.584,1.766c-1.06.677-2.29-.73-3.532-.783-.783-.035-1.542.471-2.314.33a1.972,1.972,0,0,1-1.407-1.589,6.976,6.976,0,0,1,.053-2.237,22.088,22.088,0,0,0-2.055-12.015" transform="translate(-98.684 -219.005)" fill="#263238"/>
        <path id="Trazado_185219" data-name="Trazado 185219" d="M172.513,270.006l-.118-6.446s6.4-.948,7.877-9.26c.73-4.121.653-10.932.394-16.483-.288-6.14-6.947-12.586-11.933-12.151l-14.794,5.3v2.69l.447,36.652a9.06,9.06,0,0,0,9.06,8.954h0a9.066,9.066,0,0,0,9.066-9.254Z" transform="translate(-89.541 -218.967)" fill="#ffbe9d"/>
        <path id="Trazado_185220" data-name="Trazado 185220" d="M193.507,255.442a1.066,1.066,0,0,1-1.048,1.06,1.03,1.03,0,0,1-1.089-.983,1.071,1.071,0,0,1,1.048-1.06,1.024,1.024,0,0,1,1.089.983Z" transform="translate(-104.936 -230.818)" fill="#263238"/>
        <path id="Trazado_185221" data-name="Trazado 185221" d="M193.765,251.461c-.135.135-.936-.477-2.084-.494s-2.007.542-2.125.4.077-.312.447-.589a2.944,2.944,0,0,1,1.707-.489,2.808,2.808,0,0,1,1.654.589C193.712,251.143,193.83,251.4,193.765,251.461Z" transform="translate(-104.176 -229.104)" fill="#263238"/>
        <path id="Trazado_185222" data-name="Trazado 185222" d="M175.511,254.932a1.066,1.066,0,0,1-1.048,1.06,1.018,1.018,0,0,1-1.083-.983,1.066,1.066,0,0,1,1.048-1.06,1.018,1.018,0,0,1,1.083.983Z" transform="translate(-97.536 -230.608)" fill="#263238"/>
        <path id="Trazado_185223" data-name="Trazado 185223" d="M174.555,251.477c-.135.135-.936-.477-2.084-.494s-2.007.542-2.125.4.077-.312.447-.589a2.943,2.943,0,0,1,1.707-.494,2.849,2.849,0,0,1,1.654.589C174.5,251.165,174.62,251.418,174.555,251.477Z" transform="translate(-96.274 -229.108)" fill="#263238"/>
        <path id="Trazado_185224" data-name="Trazado 185224" d="M184.094,260.215a7.323,7.323,0,0,1,1.872-.306c.294,0,.589-.077.63-.277a1.536,1.536,0,0,0-.182-.877c-.265-.712-.536-1.466-.83-2.249a38.343,38.343,0,0,1-1.843-5.887,37.094,37.094,0,0,1,2.314,5.722l.795,2.266a1.719,1.719,0,0,1,.13,1.177.742.742,0,0,1-.489.424,2.078,2.078,0,0,1-.5.059A7.653,7.653,0,0,1,184.094,260.215Z" transform="translate(-101.792 -229.24)" fill="#263238"/>
        <path id="Trazado_185225" data-name="Trazado 185225" d="M177.529,287.839a21.228,21.228,0,0,1-11.109-3.179s2.79,5.822,11.144,5.192Z" transform="translate(-94.674 -243.241)" fill="#eb996e"/>
        <path id="Trazado_185226" data-name="Trazado 185226" d="M181.034,271.044a2.078,2.078,0,0,0-1.843-.8,1.884,1.884,0,0,0-1.319.677,1.177,1.177,0,0,0-.118,1.366,1.4,1.4,0,0,0,1.5.412,4.315,4.315,0,0,0,1.484-.854,1.213,1.213,0,0,0,.336-.336.371.371,0,0,0,0-.424" transform="translate(-99.268 -237.308)" fill="#407bff"/>
        <path id="Trazado_185227" data-name="Trazado 185227" d="M178.44,268.17c.188,0,.165,1.236,1.219,2.143s2.355.789,2.39.965c0,.082-.3.235-.859.241a3.108,3.108,0,0,1-2-.736,2.708,2.708,0,0,1-.942-1.8C178.211,268.464,178.352,268.158,178.44,268.17Z" transform="translate(-99.536 -236.458)" fill="#263238"/>
        <path id="Trazado_185228" data-name="Trazado 185228" d="M174.487,244.024c-.118.312-1.266.147-2.62.283s-2.449.489-2.62.206c-.082-.135.118-.43.589-.724a4.586,4.586,0,0,1,3.991-.365C174.292,243.641,174.54,243.877,174.487,244.024Z" transform="translate(-95.829 -226.158)" fill="#263238"/>
        <path id="Trazado_185229" data-name="Trazado 185229" d="M193.376,245.752c-.206.259-.995-.029-1.949-.059s-1.766.147-1.943-.13c-.077-.135.053-.394.412-.636a2.814,2.814,0,0,1,3.132.153C193.365,245.358,193.471,245.629,193.376,245.752Z" transform="translate(-104.152 -226.733)" fill="#263238"/>
        <path id="Trazado_185230" data-name="Trazado 185230" d="M190.717,228.247c0,.094-.283.177-.636.177s-.642-.082-.642-.177.283-.177.642-.177S190.717,228.152,190.717,228.247Z" transform="translate(-104.142 -219.965)" fill="#263238"/>
        <path id="Trazado_185231" data-name="Trazado 185231" d="M160.075,224.191c2.149-4.262-2.737-7.83-5.063-9a7.983,7.983,0,0,0-7.494.082,12.634,12.634,0,0,1-3.067,1.766c-2.661.677-5.528-2.049-8-.859-2.037.971-2.355,4.021-4.421,4.974a9.7,9.7,0,0,1-3.208.43c-1.077.112-2.3.706-2.437,1.766-.159,1.177,1.107,2.461.471,3.491-.783,1.266-3.108.088-4.121,1.177s.165,3.1-.977,3.891c-.842.589-2.255-.118-2.873.689s.589,1.949.695,3.032-.918,1.96-1.813,2.637-1.831,1.766-1.4,2.779c.5,1.177,2.455,1.3,2.79,2.543s-1.378,2.7-.589,3.779c.518.718,1.707.512,2.355,1.107,1.095.983-.235,2.879.306,4.25.742,1.9,3.991,1.066,5.239,2.673.689.895.589,2.355,1.572,2.943s2.261-.324,3.414-.188c1.878.218,3.038,3.073,4.845,2.514.924-.283,1.607-1.448,2.549-1.219.812.2,1.13,1.36,1.954,1.489,1.119.177,1.431-1.454,2.1-2.355.895-1.219,2.843-1.283,3.668-2.543.742-1.136.206-2.649-.447-3.838s-1.431-2.49-1.113-3.809c.365-1.5,2.09-2.8,1.484-4.221-.659-1.548-3.562-1.389-3.762-3.067-.194-1.584,2.461-2.478,2.16-4.044-.2-1.054-1.642-1.466-1.913-2.5-.318-1.177,1.142-2.231,1.124-3.479,0-.795-.618-1.431-1.054-2.1s-.671-1.666-.065-2.178c.971-.824,2.425.677,3.638.312.854-.253,1.177-1.26,1.46-2.1a6.985,6.985,0,0,1,6.27-2.943C158.368,222.543,160.075,224.191,160.075,224.191Z" transform="translate(-74.041 -214.302)" fill="#263238"/>
        <path id="Trazado_185232" data-name="Trazado 185232" d="M174.872,226.115a1.766,1.766,0,0,1-.648,2.8c-1,.353-2.06-.277-2.943-.865s-1.984-1.177-2.943-.765c-1.766.765-1.283,4.009-3.1,4.71a4.163,4.163,0,0,1-2.355-.171,2.04,2.04,0,0,0-2.19.53c-.589.9.206,2.355-.589,3.073-.324.306-.836.365-1.13.7-.477.536-.1,1.407.424,1.9s1.213.877,1.472,1.548c.412,1.071-.489,2.184-1.407,2.879s-2.019,1.383-2.219,2.52c-.318,1.819,1.943,3.579,1.177,5.263a2.172,2.172,0,0,1-2.7.912A4.451,4.451,0,0,1,153.538,249c-2.09-3.75-1.5-8.33-.807-12.551.453-2.767.983-5.628,2.6-7.918a16.85,16.85,0,0,1,13.646-5.763,7.688,7.688,0,0,1,5.575,3.25" transform="translate(-88.779 -217.762)" fill="#263238"/>
        <path id="Trazado_185233" data-name="Trazado 185233" d="M149.275,265.119a.4.4,0,0,1-.147.088.589.589,0,0,1-.494-.053,1.177,1.177,0,0,1-.512-.624,1.042,1.042,0,0,1-.059-.53,1.348,1.348,0,0,1,.247-.547,3.279,3.279,0,0,1,1.071-.877,4.291,4.291,0,0,0,1.26-.96,1.3,1.3,0,0,0,.306-.777,1.319,1.319,0,0,0-.324-.818,7.442,7.442,0,0,0-.718-.706,2.737,2.737,0,0,1-.695-.859,1.207,1.207,0,0,1,.1-1.177,2.873,2.873,0,0,1,.948-.777c.347-.2.718-.377,1.048-.589a1.525,1.525,0,0,0,.7-.907,1.177,1.177,0,0,0-.389-1.077,11.77,11.77,0,0,0-1.018-.877,3.255,3.255,0,0,1-.942-1.1,1.719,1.719,0,0,1,.088-1.507,3.885,3.885,0,0,1,.995-1.177c.394-.33.818-.589,1.177-.924a2.9,2.9,0,0,0,.877-1.148,1.607,1.607,0,0,0-.182-1.383,8.113,8.113,0,0,0-.983-1.219,3.367,3.367,0,0,1-.883-1.431,1.707,1.707,0,0,1,.065-.895,2.025,2.025,0,0,1,.512-.73,8.942,8.942,0,0,1,1.419-.936,2.737,2.737,0,0,0,1.177-1.054,1.513,1.513,0,0,0-.13-1.436,8.935,8.935,0,0,0-.971-1.266,3.432,3.432,0,0,1-.765-1.472,1.589,1.589,0,0,1,.065-.859,1.478,1.478,0,0,1,.553-.659,3.35,3.35,0,0,1,1.554-.371,6.4,6.4,0,0,0,1.46-.177,1.307,1.307,0,0,0,.936-.877c.135-.436.124-.924.247-1.407a1.766,1.766,0,0,1,.907-1.177,5.121,5.121,0,0,1,2.69-.312,4.185,4.185,0,0,0,1.224-.124,3.073,3.073,0,0,0,1.036-.547,16.093,16.093,0,0,0,1.6-1.637,4.892,4.892,0,0,1,1.7-1.277,3.915,3.915,0,0,1,1.872-.271,3.65,3.65,0,0,1,2.59,1.442,3.762,3.762,0,0,1,.742,1.766,2.591,2.591,0,0,1,0,.665,4.12,4.12,0,0,0-.859-2.337,3.532,3.532,0,0,0-2.508-1.342,3.785,3.785,0,0,0-1.766.283,4.745,4.745,0,0,0-1.607,1.242,16.385,16.385,0,0,1-1.613,1.672,3.227,3.227,0,0,1-1.113.589,4.414,4.414,0,0,1-1.3.141,5.249,5.249,0,0,0-2.561.294,1.466,1.466,0,0,0-.759.989c-.112.436-.1.924-.253,1.419a1.566,1.566,0,0,1-1.113,1.066,6.474,6.474,0,0,1-1.525.2,3.2,3.2,0,0,0-1.419.324,1.143,1.143,0,0,0-.483,1.219,3.267,3.267,0,0,0,.706,1.336,8.789,8.789,0,0,1,1,1.307,2.408,2.408,0,0,1,.288.824,1.648,1.648,0,0,1-.147.889,3,3,0,0,1-1.266,1.177,8.834,8.834,0,0,0-1.378.913,1.631,1.631,0,0,0-.436.589,1.442,1.442,0,0,0-.059.724,3.208,3.208,0,0,0,.812,1.3,8.559,8.559,0,0,1,1.018,1.266,1.9,1.9,0,0,1,.206,1.631,3.19,3.19,0,0,1-.965,1.277c-.394.341-.83.589-1.177.918a3.679,3.679,0,0,0-.924,1.066,1.407,1.407,0,0,0-.088,1.26,2.985,2.985,0,0,0,.859,1.007,12.552,12.552,0,0,1,1.042.9,1.472,1.472,0,0,1,.442,1.307,1.766,1.766,0,0,1-.807,1.066,9.337,9.337,0,0,1-1.071.589,2.555,2.555,0,0,0-.877.695,1,1,0,0,0-.094.965c.294.63.954.995,1.372,1.536a1.472,1.472,0,0,1,.353.942,1.5,1.5,0,0,1-.353.877,4.345,4.345,0,0,1-1.325.977,3.309,3.309,0,0,0-1.048.824.983.983,0,0,0-.194.977,1.1,1.1,0,0,0,.453.589.589.589,0,0,0,.453.077C149.2,265.148,149.269,265.113,149.275,265.119Z" transform="translate(-87.118 -218.972)" fill="#455a64"/>
        <path id="Trazado_185234" data-name="Trazado 185234" d="M125.782,254.763a.554.554,0,0,0,.182-.047.589.589,0,0,0,.318-.412,1.348,1.348,0,0,0-.082-.865,8.53,8.53,0,0,0-.73-.995,1.5,1.5,0,0,1-.294-.706,1.065,1.065,0,0,1,.253-.806c.371-.471.977-.73,1.354-1.248a1.066,1.066,0,0,0,.159-.907,2.549,2.549,0,0,0-.53-.912c-.23-.288-.494-.589-.724-.912a1.925,1.925,0,0,1-.406-1.207,1.484,1.484,0,0,1,.706-1.13,3.65,3.65,0,0,1,1.289-.494c.465-.082.924-.118,1.378-.224a2.278,2.278,0,0,0,1.177-.589,1.648,1.648,0,0,0,.353-1.3,8.383,8.383,0,0,0-.377-1.478,4.262,4.262,0,0,1-.271-1.613,1.672,1.672,0,0,1,.954-1.407c1.06-.542,2.3-.294,3.232-.918a1.342,1.342,0,0,0,.506-.589,1.36,1.36,0,0,0,.041-.783,8.828,8.828,0,0,0-.706-1.607,2.5,2.5,0,0,1-.253-.924,1.278,1.278,0,0,1,.347-.942,3.379,3.379,0,0,1,1.766-.7c.589-.118,1.236-.312,1.372-.865s-.23-1.177-.188-1.848a3.338,3.338,0,0,1,2.225-3c1.289-.418,2.543.177,3.662-.1a1.637,1.637,0,0,0,1.254-.954,6.653,6.653,0,0,0,.124-1.707,1.9,1.9,0,0,1,.265-.889,1.513,1.513,0,0,1,.73-.589,2.89,2.89,0,0,1,1.766,0c.547.141,1.054.353,1.566.447a2.355,2.355,0,0,0,1.484-.147,12.553,12.553,0,0,0,2.355-1.86,6.381,6.381,0,0,1,5.3-1.177,6.287,6.287,0,0,1,3.815,2.355,7.288,7.288,0,0,1,1.389,3.12,7.153,7.153,0,0,1,.077,2.161,3.909,3.909,0,0,1-.147.742s.047-.259.082-.748a7.547,7.547,0,0,0-.13-2.131,7.235,7.235,0,0,0-1.407-3.038,6.334,6.334,0,0,0-8.789-1.083,12.689,12.689,0,0,1-2.414,1.907,2.643,2.643,0,0,1-1.637.182c-.553-.106-1.066-.318-1.589-.453a2.585,2.585,0,0,0-1.566,0,1.177,1.177,0,0,0-.589.459,1.6,1.6,0,0,0-.212.754,6.505,6.505,0,0,1-.141,1.766,1.913,1.913,0,0,1-1.46,1.142c-1.26.294-2.5-.294-3.638.1a3.038,3.038,0,0,0-2.013,2.726,3.249,3.249,0,0,0,.118.907,2.054,2.054,0,0,1,.059,1.007,1.26,1.26,0,0,1-.671.795,4.049,4.049,0,0,1-.93.294,3.144,3.144,0,0,0-1.625.589,1,1,0,0,0-.265.724,2.2,2.2,0,0,0,.23.812,9.685,9.685,0,0,1,.724,1.666,1.672,1.672,0,0,1-.065.96,1.6,1.6,0,0,1-.589.718,3.967,3.967,0,0,1-1.684.53,5,5,0,0,0-1.578.389,1.419,1.419,0,0,0-.807,1.177,4.009,4.009,0,0,0,.253,1.513,8.9,8.9,0,0,1,.383,1.525,1.925,1.925,0,0,1-.43,1.5,2.49,2.49,0,0,1-1.342.683c-.471.106-.948.141-1.383.218a3.3,3.3,0,0,0-1.207.447,1.272,1.272,0,0,0-.624.96,1.766,1.766,0,0,0,.359,1.071c.224.324.483.589.712.912a2.72,2.72,0,0,1,.553.983,1.266,1.266,0,0,1-.194,1.054c-.43.559-1.042.807-1.383,1.236a.965.965,0,0,0-.235.706,1.4,1.4,0,0,0,.265.653,7.755,7.755,0,0,1,.712,1.024,1.407,1.407,0,0,1,.059.918.589.589,0,0,1-.371.424A.312.312,0,0,1,125.782,254.763Z" transform="translate(-77.707 -215.904)" fill="#455a64"/>
        <path id="Trazado_185235" data-name="Trazado 185235" d="M202.422,260.386a.747.747,0,0,0,.353.141,1.03,1.03,0,0,0,.877-.589,3.222,3.222,0,0,0,.035-1.766,2.82,2.82,0,0,1,.153-1.148,10.887,10.887,0,0,0,.383-1.177,1.177,1.177,0,0,0-.341-1.177,3.579,3.579,0,0,0-1.319-.589,3.2,3.2,0,0,1-1.507-.736,1.1,1.1,0,0,1-.241-.9,1.7,1.7,0,0,1,.453-.824c.394-.447.924-.806,1.118-1.33a1.136,1.136,0,0,0-.718-1.348c-.524-.3-1.177-.353-1.831-.642a1.943,1.943,0,0,1-.836-.665,1.766,1.766,0,0,1-.3-1.042,4.574,4.574,0,0,1,.589-1.984,5.8,5.8,0,0,0,.653-1.766,1.9,1.9,0,0,0-.589-1.6c-.406-.43-.918-.765-1.354-1.177a3.008,3.008,0,0,1-.924-1.507,6.158,6.158,0,0,1-.147-1.648,8.242,8.242,0,0,0-.206-2.855,4.515,4.515,0,0,0-1.289-1.931,4.786,4.786,0,0,0-1.513-.93,5.663,5.663,0,0,0-1.5-.306,1.988,1.988,0,0,1,.406,0,4.19,4.19,0,0,1,1.13.218,4.845,4.845,0,0,1,2.973,2.908,8.283,8.283,0,0,1,.253,2.943,5.981,5.981,0,0,0,.153,1.578,2.749,2.749,0,0,0,.859,1.372c.418.394.93.724,1.372,1.177a2.19,2.19,0,0,1,.653,1.831c-.171,1.366-1.23,2.408-1.219,3.726a1.542,1.542,0,0,0,.247.877,1.625,1.625,0,0,0,.706.559,18.948,18.948,0,0,1,1.854.659,1.89,1.89,0,0,1,.748.683,1.177,1.177,0,0,1,.1,1.024,5.028,5.028,0,0,1-1.177,1.419,1.49,1.49,0,0,0-.389.683.836.836,0,0,0,.177.683,3.085,3.085,0,0,0,1.372.665,3.662,3.662,0,0,1,1.407.671,1.372,1.372,0,0,1,.394.653,1.607,1.607,0,0,1,0,.73,10.073,10.073,0,0,1-.406,1.213,2.525,2.525,0,0,0-.165,1.077,3.254,3.254,0,0,1-.112,1.825,1.071,1.071,0,0,1-.983.589A.447.447,0,0,1,202.422,260.386Z" transform="translate(-105.368 -221.122)" fill="#455a64"/>
        <g id="Grupo_143559" data-name="Grupo 143559" transform="translate(50.783 72.873)" opacity="0.3">
          <path id="Trazado_185236" data-name="Trazado 185236" d="M136.367,338.09V353.8l-4.068.318-1.489-5.634Z" transform="translate(-130.81 -338.09)"/>
        </g>
      </g>
    </g>
  </g>
</svg>
