<svg xmlns="http://www.w3.org/2000/svg" width="623.32" height="357.42" viewBox="0 0 623.32 357.42">
  <g id="img7" transform="translate(-63.34 -84.72)">
    <g id="freepik--Floor--inject-2">
      <path id="Trazado_116361" data-name="Trazado 116361" d="M686.66,441.88c0,.14-139.55.26-311.65.26S63.34,442,63.34,441.88s139.52-.26,311.67-.26S686.66,441.73,686.66,441.88Z" fill="#263238"/>
    </g>
    <g id="freepik--Device--inject-2">
      <path id="Trazado_116362" data-name="Trazado 116362" d="M577.31,84.72H172.69a12.63,12.63,0,0,0-12.63,12.63V383.13a12.63,12.63,0,0,0,12.63,12.63H328s9.88,30.55-20.74,46.35h145.2s-34.57-11.85-25.68-46.35H577.31a12.63,12.63,0,0,0,12.63-12.63V97.35A12.63,12.63,0,0,0,577.31,84.72Z" fill="#455a64"/>
      <path id="Trazado_116363" data-name="Trazado 116363" d="M380.4,365.71c5.51,7.86-3.11,16.48-11,11a2.67,2.67,0,0,1-.67-.67c-5.49-7.87,3.11-16.47,11-11a2.889,2.889,0,0,1,.67.67Z" fill="#263238"/>
      <rect id="Rectángulo_36760" data-name="Rectángulo 36760" width="410.77" height="243.65" rx="3.27" transform="translate(169.19 101.85)" fill="#fafafa"/>
      <path id="Trazado_116364" data-name="Trazado 116364" d="M576.69,346H172.47a3.78,3.78,0,0,1-3.78-3.77V105.12a3.78,3.78,0,0,1,3.78-3.77H576.69a3.77,3.77,0,0,1,3.77,3.77V342.23A3.77,3.77,0,0,1,576.69,346ZM172.47,102.35a2.78,2.78,0,0,0-2.78,2.77V342.23a2.78,2.78,0,0,0,2.78,2.77H576.69a2.77,2.77,0,0,0,2.77-2.77V105.12a2.77,2.77,0,0,0-2.77-2.77Z" fill="#fff"/>
      <path id="Trazado_116365" data-name="Trazado 116365" d="M202.88,111.26A3.28,3.28,0,1,1,199.6,108a3.28,3.28,0,0,1,3.28,3.26Z" fill="#455a64"/>
      <path id="Trazado_116366" data-name="Trazado 116366" d="M183,111.26a3.28,3.28,0,1,1-3.28-3.28,3.28,3.28,0,0,1,3.28,3.28Z" fill="#455a64"/>
      <path id="Trazado_116367" data-name="Trazado 116367" d="M192.54,111.26a3.28,3.28,0,1,1-3.28-3.28,3.28,3.28,0,0,1,3.28,3.28Z" fill="#455a64"/>
      <path id="Trazado_116368" data-name="Trazado 116368" d="M580.26,121.11c0,.14-92.1.26-205.67.26s-205.69-.12-205.69-.26,92.07-.26,205.69-.26S580.26,121,580.26,121.11Z" fill="#263238"/>
      <rect id="Rectángulo_36761" data-name="Rectángulo 36761" width="74.21" height="59.33" transform="translate(483.515 143.092) rotate(-0.11)" fill="#f5f5f5"/>
      <rect id="Rectángulo_36762" data-name="Rectángulo 36762" width="69" height="51.86" transform="translate(486.082 146.827) rotate(-0.11)" fill="#ebebeb"/>
      <path id="Trazado_116369" data-name="Trazado 116369" d="M486.17,198.72l24.04-32.28,14.97,20.15,10.1-10.81,19.89,22.82Z" fill="#e0e0e0"/>
      <path id="Trazado_116370" data-name="Trazado 116370" d="M531.47,162.46a5.44,5.44,0,1,1-1.6-3.87A5.44,5.44,0,0,1,531.47,162.46Z" fill="#e0e0e0"/>
      <rect id="Rectángulo_36763" data-name="Rectángulo 36763" width="74.21" height="59.33" transform="translate(483.529 270.122) rotate(-0.11)" fill="#f5f5f5"/>
      <rect id="Rectángulo_36764" data-name="Rectángulo 36764" width="69" height="51.86" transform="translate(486.096 273.857) rotate(-0.11)" fill="#ebebeb"/>
      <path id="Trazado_116371" data-name="Trazado 116371" d="M486.17,325.75l24.04-32.28,14.97,20.14,10.1-10.8,19.89,22.81Z" fill="#e0e0e0"/>
      <path id="Trazado_116372" data-name="Trazado 116372" d="M531.47,289.48a5.44,5.44,0,1,1-5.44-5.42A5.44,5.44,0,0,1,531.47,289.48Z" fill="#e0e0e0"/>
      <rect id="Rectángulo_36765" data-name="Rectángulo 36765" width="74.21" height="59.33" transform="translate(185.995 143.113) rotate(-0.11)" fill="#f5f5f5"/>
      <rect id="Rectángulo_36766" data-name="Rectángulo 36766" width="69" height="51.86" transform="translate(188.562 146.848) rotate(-0.11)" fill="#ebebeb"/>
      <path id="Trazado_116373" data-name="Trazado 116373" d="M188.64,198.72l24.04-32.28,14.97,20.15,10.1-10.81,19.89,22.82Z" fill="#e0e0e0"/>
      <path id="Trazado_116374" data-name="Trazado 116374" d="M233.94,162.46a5.43,5.43,0,1,1-1.583-3.863,5.43,5.43,0,0,1,1.583,3.863Z" fill="#e0e0e0"/>
      <rect id="Rectángulo_36767" data-name="Rectángulo 36767" width="74.21" height="59.33" transform="translate(186.007 207.063) rotate(-0.11)" fill="#f5f5f5"/>
      <rect id="Rectángulo_36768" data-name="Rectángulo 36768" width="69" height="51.86" transform="translate(188.575 210.788) rotate(-0.11)" fill="#ebebeb"/>
      <path id="Trazado_116375" data-name="Trazado 116375" d="M188.64,262.67l24.04-32.29,14.97,20.15,10.1-10.8,19.89,22.81Z" fill="#e0e0e0"/>
      <path id="Trazado_116376" data-name="Trazado 116376" d="M233.94,226.4a5.43,5.43,0,1,1-5.44-5.4,5.43,5.43,0,0,1,5.44,5.4Z" fill="#e0e0e0"/>
      <rect id="Rectángulo_36769" data-name="Rectángulo 36769" width="74.21" height="59.33" transform="translate(186.011 271.573) rotate(-0.11)" fill="#f5f5f5"/>
      <rect id="Rectángulo_36770" data-name="Rectángulo 36770" width="69" height="51.86" transform="translate(188.579 275.308) rotate(-0.11)" fill="#ebebeb"/>
      <path id="Trazado_116377" data-name="Trazado 116377" d="M188.64,327.18l24.04-32.28,14.97,20.14,10.1-10.8,19.89,22.82Z" fill="#e0e0e0"/>
      <path id="Trazado_116378" data-name="Trazado 116378" d="M233.94,290.91a5.43,5.43,0,1,1-5.44-5.42,5.43,5.43,0,0,1,5.44,5.42Z" fill="#e0e0e0"/>
    </g>
    <g id="freepik--Character--inject-2">
      <path id="Trazado_116379" data-name="Trazado 116379" d="M568.85,201.33A14.66,14.66,0,0,0,556,205.78c-5.23,5.25-27,24.42-27,24.42l-31.58-6.32L493,238s37.3,11.6,40,10.6,23-14.69,23-14.69Z" fill="#407bff"/>
      <rect id="Rectángulo_36771" data-name="Rectángulo 36771" width="153.43" height="122.66" transform="matrix(0.991, -0.135, 0.135, 0.991, 385.05, 173.344)" fill="#ebebeb"/>
      <path id="Trazado_116380" data-name="Trazado 116380" d="M537.09,152.66l-.73.11-2.12.31L526,154.23l-31.1,4.29-109.8,15,.23-.3c4.92,36.18,10.57,77.65,16.54,121.53h0l-.33-.25,152-20.6-.21.28L541.5,186c-1.41-10.62-2.52-18.95-3.28-24.63-.37-2.84-.66-5-.85-6.5s-.28-2.24-.28-2.24.12.73.32,2.18.51,3.63.91,6.44c.78,5.67,1.93,14,3.4,24.56,2.91,21.25,7.09,51.65,12.12,88.33v.25h-.25l-152,20.7h-.3v-.3h0c-5.95-43.89-11.57-85.36-16.48-121.54v-.26h.26l110-14.8,31.06-4.15,8.2-1.08,2.1-.27Z" fill="#263238"/>
      <rect id="Rectángulo_36772" data-name="Rectángulo 36772" width="142.436" height="107.059" transform="translate(390.192 181.921) rotate(-7.481)" fill="#407bff"/>
      <path id="Trazado_116381" data-name="Trazado 116381" d="M405.77,286.49l40.4-72.74,36.19,37.16L500.1,226l47.02,41.29Z" fill="#407bff"/>
      <path id="Trazado_116382" data-name="Trazado 116382" d="M488.63,199.74A11.23,11.23,0,1,1,476,190.12a11.23,11.23,0,0,1,12.63,9.62Z" fill="#407bff"/>
      <g id="Grupo_142006" data-name="Grupo 142006" opacity="0.2">
        <path id="Trazado_116383" data-name="Trazado 116383" d="M405.77,286.49l40.4-72.74,36.19,37.16L500.1,226l47.02,41.29Z"/>
      </g>
      <g id="Grupo_142007" data-name="Grupo 142007" opacity="0.2">
        <path id="Trazado_116384" data-name="Trazado 116384" d="M488.63,199.74A11.23,11.23,0,1,1,476,190.12a11.23,11.23,0,0,1,12.63,9.62Z"/>
      </g>
      <path id="Trazado_116385" data-name="Trazado 116385" d="M604.74,217.09c1.44-9.89-3.15-13-10.36-16-9-3.73-26.16-1.87-32,3.35L555.78,224c-2.77,3.23-2.33,8.16-.73,12.11s4.18,7.49,5.37,11.57c2.31,7.91.69,14.9.14,23.11-.12,1.9-1.58,5.4-.18,6.68s3.23,1.22,5,1.15a99.75,99.75,0,0,0,39.73-10.05c-4.71-9.5-9.9-20.5-6.87-27.78a100.461,100.461,0,0,0,6.5-23.7Z" fill="#407bff"/>
      <path id="Trazado_116386" data-name="Trazado 116386" d="M542.46,237.32,538,252.5s23.29,8.47,35.9,8.32c11.82-.15,15.2-1.49,19.36-11s8.88-20.51,9.87-26.82a34.2,34.2,0,0,0,1.5-6.44c1.73-12.95-14-16.36-16.33-3.5l-1.88,6.89s-4.29,9.7-4.49,10.24c-1.9,5-5.19,13.09-7.57,14S542.46,237.32,542.46,237.32Z" fill="#407bff"/>
      <path id="Trazado_116387" data-name="Trazado 116387" d="M599.33,238a1.87,1.87,0,0,1-.12.36l-.41,1c-.36.91-.92,2.24-1.73,3.92a53.143,53.143,0,0,1-3.27,6,36,36,0,0,1-5.69,7,23.076,23.076,0,0,1-2,1.65,26.135,26.135,0,0,1-2.29,1.44l-1.27.58-.65.28-.69.19-1.4.39-1.47.18a49.831,49.831,0,0,1-12.53-.89,208.8,208.8,0,0,1-27.91-7.3l-.23-.08.07-.24.56-1.92,3.89-13.26.07-.24.24.06c8.52,2.28,16.58,4.27,23.91,5.61,1.84.32,3.63.6,5.37.74a12.778,12.778,0,0,0,2.55,0,2.5,2.5,0,0,0,.57-.14.83.83,0,0,0,.41-.32,7.619,7.619,0,0,0,.66-1c1.64-2.83,2.9-5.62,4.09-8.12,2.34-5,4.13-9.09,5.38-11.88.61-1.37,1.09-2.45,1.43-3.2.15-.35.28-.62.37-.83s.14-.28.15-.27,0,.1-.1.29-.2.49-.34.84L585.62,222c-1.19,2.82-2.94,6.9-5.24,11.95-1.17,2.52-2.4,5.3-4,8.18a8.925,8.925,0,0,1-.7,1.07,1.35,1.35,0,0,1-.57.44,2.65,2.65,0,0,1-.66.16,12.261,12.261,0,0,1-2.64,0c-1.77-.13-3.57-.41-5.41-.72-7.37-1.31-15.43-3.28-24-5.55l.31-.18-3.88,13.27-.56,1.92-.17-.32a211.4,211.4,0,0,0,27.82,7.32,49.622,49.622,0,0,0,12.41.93l1.43-.16,1.36-.37.67-.18.64-.28,1.24-.55a23.607,23.607,0,0,0,2.24-1.4,22.5,22.5,0,0,0,2-1.6,35.608,35.608,0,0,0,5.68-6.88,56.618,56.618,0,0,0,3.34-5.88c.84-1.66,1.42-3,1.82-3.88l.45-1A1.347,1.347,0,0,1,599.33,238Z" fill="#263238"/>
      <path id="Trazado_116388" data-name="Trazado 116388" d="M559.28,220.31a24.512,24.512,0,0,1-1.62,2.76,20,20,0,0,0-2.86,7,13.121,13.121,0,0,0,1.23,7.37,27.739,27.739,0,0,1,1.26,2.94,3.051,3.051,0,0,1-.48-.72,22.594,22.594,0,0,1-1.11-2.07,16.789,16.789,0,0,1-1.22-3.28,10.65,10.65,0,0,1-.2-4.32,18.54,18.54,0,0,1,3.07-7.12,17,17,0,0,1,1.93-2.56Z" fill="#263238"/>
      <g id="Grupo_142008" data-name="Grupo 142008" opacity="0.2">
        <path id="Trazado_116389" data-name="Trazado 116389" d="M561.34,259a6,6,0,0,0,2,4.61,11,11,0,0,0,4.54,2.41,19.85,19.85,0,0,0,15.7-2.13c4.64-2.83,7.8-8,9.08-13.25,0,0-2.93,3.69-4.86,5.61a14.741,14.741,0,0,1-9,4.29c-5.87.83-11.81-.36-17.61-1.55"/>
      </g>
      <path id="Trazado_116390" data-name="Trazado 116390" d="M559.53,206.11a12.7,12.7,0,0,1,1.62.78l4.09,2.14.37.2-.36.23c-.88.57-1.83,1.2-2.83,1.84s-1.8,1.16-2.63,1.68l-.38.25v-5.24a8.06,8.06,0,0,1,.12-1.88,9.324,9.324,0,0,1,.19,1.88c.06,1.18.12,2.84.18,4.79l-.39-.2,2.63-1.71c1-.65,2-1.26,2.86-1.83v.42C561.73,207.64,559.44,206.24,559.53,206.11Z" fill="#fafafa"/>
      <path id="Trazado_116391" data-name="Trazado 116391" d="M548.41,216a14.739,14.739,0,0,1,1.62.78l4.09,2.15.36.19-.35.23-2.83,1.85-2.63,1.68-.38.24v-5.23a8.2,8.2,0,0,1,.12-1.89,9.1,9.1,0,0,1,.18,1.88c.07,1.18.13,2.85.19,4.79l-.39-.2,2.63-1.71,2.86-1.83v.43C550.61,217.54,548.32,216.15,548.41,216Z" fill="#fafafa"/>
      <path id="Trazado_116392" data-name="Trazado 116392" d="M578.16,219.39a11.372,11.372,0,0,1,.12-1.8c.13-1.29.29-2.84.47-4.59v-.41l.35.25,2.76,1.94,2.54,1.81.37.27-.41.17c-1.8.74-3.35,1.36-4.45,1.78a7.639,7.639,0,0,1-1.79.58,8.462,8.462,0,0,1,1.67-.87c1.07-.5,2.59-1.18,4.38-2v.44l-2.57-1.81c-1-.69-1.89-1.36-2.76-2l.39-.17C578.76,216.78,578.31,219.42,578.16,219.39Z" fill="#fafafa"/>
      <path id="Trazado_116393" data-name="Trazado 116393" d="M558.52,231.08a12.161,12.161,0,0,1,1.14-1.39l3.05-3.47.28-.3.14.4c.35,1,.73,2.06,1.12,3.18l1,3,.14.43-.43-.11c-1.89-.44-3.51-.84-4.65-1.14a8,8,0,0,1-1.8-.56,9.358,9.358,0,0,1,1.86.26c1.17.22,2.8.55,4.7,1l-.28.33c-.33-.93-.68-1.92-1-3s-.76-2.2-1.1-3.21l.41.09C560.52,229.3,558.63,231.19,558.52,231.08Z" fill="#fafafa"/>
      <path id="Trazado_116394" data-name="Trazado 116394" d="M573.87,232.65a15.354,15.354,0,0,1,.12-1.8c.13-1.3.29-2.85.47-4.59v-.41l.35.24,2.77,1.94,2.53,1.82.37.26-.41.17c-1.79.74-3.34,1.36-4.45,1.78a8.581,8.581,0,0,1-1.79.59,8.188,8.188,0,0,1,1.67-.87c1.07-.5,2.6-1.18,4.38-1.95v.43l-2.57-1.81-2.75-2,.39-.17A40.364,40.364,0,0,1,573.87,232.65Z" fill="#fafafa"/>
      <path id="Trazado_116395" data-name="Trazado 116395" d="M568.41,242a15.354,15.354,0,0,1,.12-1.8c.14-1.29.3-2.84.47-4.59v-.41l.34.25,2.77,1.93,2.54,1.82.37.27-.41.17c-1.8.74-3.35,1.35-4.46,1.77a7.722,7.722,0,0,1-1.79.59,8.858,8.858,0,0,1,1.67-.87c1.08-.5,2.6-1.18,4.38-1.95v.43l-2.56-1.8-2.76-2,.39-.17C569,239.4,568.57,242,568.41,242Z" fill="#fafafa"/>
      <path id="Trazado_116396" data-name="Trazado 116396" d="M579.75,273.5a11.867,11.867,0,0,1,.11-1.8c.14-1.3.3-2.84.48-4.59v-.41l.35.24,2.76,1.94L586,270.7l.37.26-.41.17c-1.8.74-3.35,1.36-4.45,1.78a8.8,8.8,0,0,1-1.79.59,8.079,8.079,0,0,1,1.67-.87c1.07-.5,2.59-1.18,4.38-1.95v.43l-2.57-1.8-2.76-2,.39-.16C580.34,270.89,579.9,273.53,579.75,273.5Z" fill="#fafafa"/>
      <path id="Trazado_116397" data-name="Trazado 116397" d="M589.6,211.29a13,13,0,0,1,.12-1.8c.13-1.3.29-2.85.47-4.59v-.41l.35.24,2.76,1.94,2.54,1.82.37.26-.41.17c-1.79.74-3.34,1.36-4.45,1.78a8.8,8.8,0,0,1-1.79.59,7.621,7.621,0,0,1,1.67-.87c1.07-.5,2.6-1.18,4.38-2v.44L593,207.09l-2.75-2,.39-.17C590.2,208.67,589.76,211.31,589.6,211.29Z" fill="#fafafa"/>
      <path id="Trazado_116398" data-name="Trazado 116398" d="M565,222.32a11.285,11.285,0,0,1,.12-1.8c.13-1.3.29-2.85.47-4.6v-.41l.35.25,2.76,1.94,2.54,1.82.37.26-.41.17c-1.8.74-3.35,1.36-4.45,1.78a8.8,8.8,0,0,1-1.79.59,7.872,7.872,0,0,1,1.67-.88c1.07-.5,2.59-1.17,4.38-1.95v.44l-2.57-1.81-2.76-2,.39-.17C565.63,219.7,565.18,222.34,565,222.32Z" fill="#fafafa"/>
      <path id="Trazado_116399" data-name="Trazado 116399" d="M566.42,270.9a15.583,15.583,0,0,1,.12-1.8c.13-1.29.29-2.84.47-4.59v-.41l.35.25,2.77,1.94,2.53,1.81.37.27-.41.17c-1.79.74-3.34,1.35-4.45,1.77a7.288,7.288,0,0,1-1.79.59,8.859,8.859,0,0,1,1.67-.87c1.07-.5,2.6-1.18,4.38-1.95v.43l-2.57-1.8-2.75-2,.39-.17C567,268.29,566.58,270.93,566.42,270.9Z" fill="#fafafa"/>
      <path id="Trazado_116400" data-name="Trazado 116400" d="M592.75,230.29a15.354,15.354,0,0,1,.12-1.8c.13-1.3.29-2.85.47-4.59v-.42l.34.25,2.77,1.94,2.54,1.82.36.26-.4.17c-1.8.74-3.35,1.36-4.46,1.78a8.578,8.578,0,0,1-1.79.59,7.873,7.873,0,0,1,1.67-.88c1.08-.49,2.6-1.17,4.38-1.95v.44l-2.56-1.81-2.76-2,.39-.17C593.35,227.67,592.91,230.31,592.75,230.29Z" fill="#fafafa"/>
      <path id="Trazado_116401" data-name="Trazado 116401" d="M581.35,252.93a11.278,11.278,0,0,1,.12-1.8c.13-1.3.29-2.85.47-4.59v-.41l.35.24,2.76,1.94,2.54,1.82.37.26-.41.17c-1.8.74-3.35,1.36-4.45,1.78a8.8,8.8,0,0,1-1.79.59,8.859,8.859,0,0,1,1.67-.87c1.07-.5,2.59-1.18,4.38-1.95v.43l-2.57-1.8-2.76-2,.39-.17C582,250.32,581.5,253,581.35,252.93Z" fill="#fafafa"/>
      <path id="Trazado_116402" data-name="Trazado 116402" d="M590.87,263.42a12,12,0,0,1,.11-1.81c.14-1.29.3-2.84.48-4.59v-.41l.35.25,2.76,1.94c.89.63,1.74,1.25,2.54,1.81l.37.27-.41.17c-1.8.74-3.35,1.36-4.45,1.78a8.8,8.8,0,0,1-1.79.59,7.24,7.24,0,0,1,1.67-.88c1.07-.5,2.59-1.18,4.38-2v.44l-2.57-1.81-2.76-2,.39-.17A40.3,40.3,0,0,1,590.87,263.42Z" fill="#fafafa"/>
      <path id="Trazado_116403" data-name="Trazado 116403" d="M584.35,241.42a13,13,0,0,1,.12-1.8c.13-1.3.29-2.85.47-4.59v-.41l.35.24,2.76,1.94,2.54,1.82.37.26-.41.17c-1.79.74-3.34,1.36-4.45,1.78a8.8,8.8,0,0,1-1.79.59,7.623,7.623,0,0,1,1.67-.87c1.07-.5,2.6-1.18,4.38-2v.43l-2.57-1.81-2.75-2,.39-.17C585,238.81,584.51,241.44,584.35,241.42Z" fill="#fafafa"/>
      <path id="Trazado_116404" data-name="Trazado 116404" d="M553.85,254.9a11.278,11.278,0,0,1,.12-1.8c.13-1.3.29-2.84.47-4.59v-.41l.35.24,2.76,1.94,2.54,1.82.37.26-.41.17c-1.8.74-3.35,1.36-4.45,1.78a8.8,8.8,0,0,1-1.79.59,8.858,8.858,0,0,1,1.67-.87c1.07-.5,2.59-1.18,4.38-1.95v.43l-2.57-1.8-2.76-2,.39-.16C554.45,252.29,554,254.93,553.85,254.9Z" fill="#fafafa"/>
      <path id="Trazado_116405" data-name="Trazado 116405" d="M568.88,251.73a15.368,15.368,0,0,1,.12-1.8c.14-1.29.3-2.84.47-4.59v-.41l.35.25,2.76,1.94,2.54,1.81.37.27-.41.17c-1.8.74-3.35,1.35-4.46,1.77a7.72,7.72,0,0,1-1.79.59,8.86,8.86,0,0,1,1.67-.87c1.08-.5,2.6-1.18,4.39-2l-.05.43-2.56-1.8-2.76-2,.39-.17A37.552,37.552,0,0,1,568.88,251.73Z" fill="#fafafa"/>
      <path id="Trazado_116406" data-name="Trazado 116406" d="M542.72,248.15a15.38,15.38,0,0,1,.12-1.8c.13-1.29.29-2.84.47-4.59v-.41l.35.25,2.76,1.93,2.54,1.82.37.27-.41.17c-1.79.74-3.34,1.35-4.45,1.77a7.889,7.889,0,0,1-1.79.59,8.86,8.86,0,0,1,1.67-.87c1.07-.5,2.6-1.18,4.38-1.95v.43l-2.57-1.8-2.75-2,.39-.17C543.32,245.54,542.88,248.18,542.72,248.15Z" fill="#fafafa"/>
      <path id="Trazado_116407" data-name="Trazado 116407" d="M601.69,219.13a10.711,10.711,0,0,1-1.74-.45l-4.43-1.31-.39-.12.3-.29,2.42-2.36,2.25-2.16.33-.31.09.43c.4,1.91.72,3.54.93,4.71a8.284,8.284,0,0,1,.24,1.86,8.61,8.61,0,0,1-.54-1.8c-.3-1.14-.68-2.77-1.11-4.66l.42.12c-.71.68-1.46,1.42-2.25,2.19l-2.45,2.34-.09-.41A37.124,37.124,0,0,1,601.69,219.13Z" fill="#fafafa"/>
      <path id="Trazado_116408" data-name="Trazado 116408" d="M506.69,429.76l4.39-8.49,16,8.12-6.29,12.49-1-.44c-4.53-2-22.88-10.47-25.37-12.86C491.58,425.91,506.69,429.76,506.69,429.76Z" fill="#407bff"/>
      <g id="Grupo_142009" data-name="Grupo 142009" opacity="0.5">
        <path id="Trazado_116409" data-name="Trazado 116409" d="M515,438.81a6.19,6.19,0,0,1,3.76-2.37,6.09,6.09,0,0,1,4.32.74l-2.26,4.46Z" fill="#fff"/>
      </g>
      <g id="Grupo_142010" data-name="Grupo 142010" opacity="0.4">
        <path id="Trazado_116410" data-name="Trazado 116410" d="M499.19,428.12s-5.45-1.05-5.25,0,18.41,10.35,26.81,13.73l.15-.37-21.34-10.62S500.1,428.63,499.19,428.12Z" fill="#fff"/>
      </g>
      <path id="Trazado_116411" data-name="Trazado 116411" d="M521.16,441.63l-.29-.11-.81-.36-3-1.35c-2.49-1.15-5.92-2.8-9.66-4.69s-7.09-3.7-9.5-5l-2.84-1.59-.76-.45c-.18-.1-.27-.16-.26-.17l.28.13.78.42L498,430c2.43,1.29,5.79,3.06,9.53,5s7.15,3.56,9.63,4.76l2.93,1.41.8.39a1.41,1.41,0,0,1,.27.07Z" fill="#263238"/>
      <path id="Trazado_116412" data-name="Trazado 116412" d="M499.44,431.14a8.087,8.087,0,0,0,.16-1.66,7.481,7.481,0,0,0-.43-1.61,2.32,2.32,0,0,1,.64,1.59A2.43,2.43,0,0,1,499.44,431.14Z" fill="#263238"/>
      <path id="Trazado_116413" data-name="Trazado 116413" d="M505.36,431.14a4.126,4.126,0,0,1-.19-1.75,1.8,1.8,0,0,1,.19.86,1.851,1.851,0,0,1,0,.89Z" fill="#263238"/>
      <path id="Trazado_116414" data-name="Trazado 116414" d="M507,431.12c-.06,0-.22-.28-.37-.67s-.23-.71-.17-.73.22.27.37.66a1.44,1.44,0,0,1,.17.74Z" fill="#263238"/>
      <path id="Trazado_116415" data-name="Trazado 116415" d="M508.58,430c0,.06-.42-.08-.89-.31a2.3,2.3,0,0,1-.79-.51c0-.06.43.08.89.31A3.339,3.339,0,0,1,508.58,430Z" fill="#263238"/>
      <path id="Trazado_116416" data-name="Trazado 116416" d="M509.4,429.1a1.75,1.75,0,0,1-1.07-.2,1.8,1.8,0,0,1-.89-.61,5.655,5.655,0,0,1,1,.41,6.735,6.735,0,0,1,.96.4Z" fill="#263238"/>
      <path id="Trazado_116417" data-name="Trazado 116417" d="M505.53,429.48a3.42,3.42,0,0,1-1-.53,7.669,7.669,0,0,1-1-.8,3.537,3.537,0,0,1-.49-.57.61.61,0,0,1-.09-.45.42.42,0,0,1,.36-.33,2.12,2.12,0,0,1,2.05,1.73,1.931,1.931,0,0,1,0,.85.67.67,0,0,1-.11.3,3.12,3.12,0,0,0,0-1.12,2.05,2.05,0,0,0-.59-1,1.81,1.81,0,0,0-1.26-.54c-.23,0-.26.26-.14.46a3.371,3.371,0,0,0,.46.54,7.821,7.821,0,0,0,.91.81C505.15,429.24,505.54,429.44,505.53,429.48Z" fill="#263238"/>
      <path id="Trazado_116418" data-name="Trazado 116418" d="M505.23,429.39a1.11,1.11,0,0,1,.25-.77,2,2,0,0,1,.66-.61,1.17,1.17,0,0,1,1.12-.09.46.46,0,0,1,.07.64,1.38,1.38,0,0,1-.4.37,3.28,3.28,0,0,1-.8.37,1.8,1.8,0,0,1-.8.12,6.808,6.808,0,0,0,.74-.26,4,4,0,0,0,.75-.4c.25-.15.54-.49.31-.66a1,1,0,0,0-.9.09,2,2,0,0,0-.63.52,4.818,4.818,0,0,0-.37.68Z" fill="#263238"/>
      <path id="Trazado_116419" data-name="Trazado 116419" d="M523.05,437.09a6.9,6.9,0,0,0-1.2-.55,5.69,5.69,0,0,0-3.11-.25,5.85,5.85,0,0,0-2.76,1.45,9.42,9.42,0,0,0-.88,1,1,1,0,0,1,.16-.32,4.845,4.845,0,0,1,.61-.78,5.48,5.48,0,0,1,6-1.24,5.812,5.812,0,0,1,.87.47C523,437,523.06,437.08,523.05,437.09Z" fill="#263238"/>
      <path id="Trazado_116420" data-name="Trazado 116420" d="M524.77,429.61a29.852,29.852,0,0,1-1.52,3.35,29.359,29.359,0,0,1-1.73,3.25,33.359,33.359,0,0,1,1.53-3.35,32.739,32.739,0,0,1,1.72-3.25Z" fill="#263238"/>
      <path id="Trazado_116421" data-name="Trazado 116421" d="M513.81,436.23a9.63,9.63,0,0,1-2.45-1,11,11,0,0,1-2.24-1.37c0-.06,1.05.54,2.34,1.17A22.036,22.036,0,0,1,513.81,436.23Z" fill="#263238"/>
      <path id="Trazado_116422" data-name="Trazado 116422" d="M516.94,437.82c0,.06-.2.17-.43.36s-.39.37-.44.34,0-.3.31-.51S516.93,437.76,516.94,437.82Z" fill="#263238"/>
      <path id="Trazado_116423" data-name="Trazado 116423" d="M518.86,437c0,.06-.16.17-.41.25s-.47.11-.49.05.17-.17.42-.25S518.85,436.89,518.86,437Z" fill="#263238"/>
      <path id="Trazado_116424" data-name="Trazado 116424" d="M520.89,437.14a3.707,3.707,0,0,0-.52-.1c-.27-.03-.51,0-.54-.06s.23-.21.57-.16S520.93,437.09,520.89,437.14Z" fill="#263238"/>
      <path id="Trazado_116425" data-name="Trazado 116425" d="M522.25,437.43c0,.06-.14.09-.29.08s-.29-.08-.28-.14.14-.09.3-.08S522.26,437.37,522.25,437.43Z" fill="#263238"/>
      <path id="Trazado_116426" data-name="Trazado 116426" d="M611.43,433.16l-3.8-8.77L624,417.17l5.7,12.76-1,.52c-4.41,2.24-22.57,11.1-26,11.52C598.9,442.44,611.43,433.16,611.43,433.16Z" fill="#407bff"/>
      <g id="Grupo_142011" data-name="Grupo 142011" opacity="0.5">
        <path id="Trazado_116427" data-name="Trazado 116427" d="M623.71,432.43a6.22,6.22,0,0,1,.55-4.42,6.06,6.06,0,0,1,3.3-2.88l2,4.58Z" fill="#fff"/>
      </g>
      <g id="Grupo_142012" data-name="Grupo 142012" opacity="0.4">
        <path id="Trazado_116428" data-name="Trazado 116428" d="M605.42,437.94s-4.26,3.56-3.3,4.09,19.66-7.73,27.59-12.1l-.19-.35-21.72,9.83S606.39,437.56,605.42,437.94Z" fill="#fff"/>
      </g>
      <path id="Trazado_116429" data-name="Trazado 116429" d="M629.77,429.46l-.27.15-.78.41-2.92,1.44c-2.48,1.2-5.92,2.82-9.75,4.52s-7.35,3.16-9.9,4.18l-3,1.2-.83.31-.29.09a1.4,1.4,0,0,1,.27-.14l.82-.34,3-1.26c2.54-1.06,6-2.54,9.87-4.24s7.28-3.29,9.77-4.46l2.95-1.38.8-.37Z" fill="#263238"/>
      <path id="Trazado_116430" data-name="Trazado 116430" d="M607.91,439.66a7.4,7.4,0,0,0-1.18-1.18,7.78,7.78,0,0,0-1.52-.69,2.48,2.48,0,0,1,1.64.51A2.38,2.38,0,0,1,607.91,439.66Z" fill="#263238"/>
      <path id="Trazado_116431" data-name="Trazado 116431" d="M611.66,435.07a2.072,2.072,0,0,1-.79-.4c-.4-.27-.71-.53-.68-.58s.39.13.8.4S611.69,435,611.66,435.07Z" fill="#263238"/>
      <path id="Trazado_116432" data-name="Trazado 116432" d="M612.68,433.78c0,.06-.36,0-.75-.13s-.7-.28-.68-.33.35,0,.75.13S612.69,433.73,612.68,433.78Z" fill="#263238"/>
      <path id="Trazado_116433" data-name="Trazado 116433" d="M612.83,431.87a2.491,2.491,0,0,1-.81.48c-.47.21-.87.35-.89.29s.33-.27.8-.48S612.81,431.81,612.83,431.87Z" fill="#263238"/>
      <path id="Trazado_116434" data-name="Trazado 116434" d="M612.64,430.65a2.758,2.758,0,0,1-.83.7,1.76,1.76,0,0,1-1,.3,5.852,5.852,0,0,1,.94-.49C612.21,430.89,612.59,430.6,612.64,430.65Z" fill="#263238"/>
      <path id="Trazado_116435" data-name="Trazado 116435" d="M610.47,433.89a3.37,3.37,0,0,1-1.05.46,7.061,7.061,0,0,1-1.23.24,3.159,3.159,0,0,1-.76,0,.61.61,0,0,1-.4-.21.44.44,0,0,1,0-.49,2.11,2.11,0,0,1,2.63-.49,2,2,0,0,1,.66.55.68.68,0,0,1,.15.27,3.121,3.121,0,0,0-.88-.68,2,2,0,0,0-1.15-.19,1.84,1.84,0,0,0-1.22.64c-.11.2,0,.37.28.39a3.279,3.279,0,0,0,.7,0,8.464,8.464,0,0,0,1.21-.2A9.433,9.433,0,0,1,610.47,433.89Z" fill="#263238"/>
      <path id="Trazado_116436" data-name="Trazado 116436" d="M610.22,434.06a1.282,1.282,0,0,1-.44-.68,1.84,1.84,0,0,1,0-.89,1.17,1.17,0,0,1,.64-.93.46.46,0,0,1,.53.35,1.15,1.15,0,0,1,0,.55,3.521,3.521,0,0,1-.21.85,1.581,1.581,0,0,1-.42.69,6.265,6.265,0,0,0,.27-.74,3.606,3.606,0,0,0,.16-.82c0-.29,0-.73-.31-.67s-.43.48-.5.76a1.829,1.829,0,0,0,0,.81,4.182,4.182,0,0,0,.28.72Z" fill="#263238"/>
      <path id="Trazado_116437" data-name="Trazado 116437" d="M627.46,425.12a7.48,7.48,0,0,0-1.19.58,5.76,5.76,0,0,0-2.16,2.26,5.63,5.63,0,0,0-.62,3.05c.06.82.24,1.3.2,1.31a1,1,0,0,1-.14-.33,4.533,4.533,0,0,1-.21-1,5.43,5.43,0,0,1,2.85-5.46,4.457,4.457,0,0,1,.91-.38,1.321,1.321,0,0,1,.36-.03Z" fill="#263238"/>
      <path id="Trazado_116438" data-name="Trazado 116438" d="M622.75,419.06a32.431,32.431,0,0,1,1.63,3.3,34.43,34.43,0,0,1,1.43,3.39,28.124,28.124,0,0,1-1.63-3.3A28.577,28.577,0,0,1,622.75,419.06Z" fill="#263238"/>
      <path id="Trazado_116439" data-name="Trazado 116439" d="M621,431.74a9.737,9.737,0,0,1-2.29,1.29,9.512,9.512,0,0,1-2.48.87c0-.06,1.08-.47,2.39-1.06S620.91,431.69,621,431.74Z" fill="#263238"/>
      <path id="Trazado_116440" data-name="Trazado 116440" d="M624.15,430.32c.06,0,0,.26,0,.56v.55a.794.794,0,0,1-.19-.56C623.97,430.53,624.1,430.29,624.15,430.32Z" fill="#263238"/>
      <path id="Trazado_116441" data-name="Trazado 116441" d="M624.7,428.28a1.941,1.941,0,0,1-.07.48c-.07.24-.22.43-.27.41s0-.24.07-.48S624.64,428.26,624.7,428.28Z" fill="#263238"/>
      <path id="Trazado_116442" data-name="Trazado 116442" d="M626.12,426.82c0,.07-.2.16-.41.35s-.32.4-.37.38,0-.31.23-.54S626.12,426.77,626.12,426.82Z" fill="#263238"/>
      <path id="Trazado_116443" data-name="Trazado 116443" d="M627.21,426a.414.414,0,0,1-.13.28c-.13.12-.23.17-.28.12s0-.16.13-.28S627.17,425.91,627.21,426Z" fill="#263238"/>
      <path id="Trazado_116444" data-name="Trazado 116444" d="M628.15,422.62l-23,13.11L572.8,371c-4.8-17.31-9.43-78.24-9.43-78.24l26.63,2s4.1,43.75,10.54,66.29Z" fill="#263238"/>
      <path id="Trazado_116445" data-name="Trazado 116445" d="M603.24,266.14c.64,0,5.3,18-.38,28.91-.56,1.06-4.64,7-4.64,7-14.51,17.11-29.21,50.32-33.32,59-8.42,17.9-39.45,76.76-39.45,76.76L505.52,426.4l29.14-74.94,25-73.53Z" fill="#263238"/>
      <path id="Trazado_116446" data-name="Trazado 116446" d="M590.15,312.39a10.58,10.58,0,0,0-.84,1.47L587.15,318c-1.82,3.45-4.38,8.19-7.21,13.43s-5.35,10-7.09,13.51c-.87,1.75-1.56,3.17-2,4.16a11.615,11.615,0,0,0-.67,1.56,9.866,9.866,0,0,0,.85-1.47c.54-1,1.27-2.42,2.15-4.09,1.82-3.45,4.38-8.19,7.22-13.43s5.35-10,7.08-13.51c.88-1.75,1.57-3.17,2-4.16a11.624,11.624,0,0,0,.67-1.61Z" fill="#455a64"/>
      <path id="Trazado_116447" data-name="Trazado 116447" d="M535.13,248.51a94.563,94.563,0,0,1-10.5-1.44c-4.27-1-4.2-1.42-4-1.9.52-1.3,7.58,1.53,6.39,0s-9-2.44-8.41-3.77c.77-1.74,8.12,1.36,8.75,1.58s.95-.71.37-.88c-.85-.23-9.65-2.93-8.9-4.64.41-1,2,0,2,0s8.06,3.14,8.39,2.32-4.35-2.84-6-3.4-2-1.55-1.19-2.06c.55-.35,5.56,1.25,7.15,1.85s5.94,2.3,4.44-.3S532,230.75,532.4,230s1.56-.38,1.66.55a11.22,11.22,0,0,0,1,2.85,7.479,7.479,0,0,0,1.37,2c.49.51.94.94,1.35,1.32l3.57,3.36-2.48,8.74Z" fill="#ffbe9d"/>
      <path id="Trazado_116448" data-name="Trazado 116448" d="M579.91,153.64c-1.27-2-3.93-2.79-6.35-2.76a15.08,15.08,0,0,0-14.16,12c-.48,2.71-.2,5.56-1,8.17a22.769,22.769,0,0,1-2.88,5.22,13.781,13.781,0,0,0-2.42,5.4,5.41,5.41,0,0,0,2,5.3,6.63,6.63,0,0,0,5.86,11.19c1.45-.25,3-1,4.32-.28a7.241,7.241,0,0,1,1.61,1.52c2,2.05,5.34,2.38,8,1.35a14,14,0,0,0,6.34-5.62c.42-.63,1-1.37,1.72-1.3a2.46,2.46,0,0,1,1.14.64,6.74,6.74,0,0,0,9.22-9.76,7.79,7.79,0,0,0,5.06-5.07,11.32,11.32,0,0,0-.28-7.31c-1.26-3.47-3.76-6.31-6.21-9.06-2.24-2.53-2.9-6.42-5.14-8.94a7.2,7.2,0,0,0-4.18-2.78,8.22,8.22,0,0,0-4.8,1.07" fill="#263238"/>
      <path id="Trazado_116449" data-name="Trazado 116449" d="M574.88,154.84a12.53,12.53,0,0,1,12.53,12.66L587,201.75a8.06,8.06,0,0,1-8.53,7.69h0c-4.72-.1-8.56-3.75-8.57-8.16,0-4.63-.12-9.5-.12-9.5s-6-1-7.19-8.77c-.32-2-.34-9.13-.28-15.75a12.53,12.53,0,0,1,12.53-12.42Z" fill="#ffbe9d"/>
      <path id="Trazado_116450" data-name="Trazado 116450" d="M564.13,172a1,1,0,1,0,1-.9A1,1,0,0,0,564.13,172Z" fill="#263238"/>
      <path id="Trazado_116451" data-name="Trazado 116451" d="M563.91,170.91c.12.13.88-.43,2-.43s1.86.54,2,.41-.07-.29-.41-.54a2.78,2.78,0,0,0-1.59-.49,2.62,2.62,0,0,0-1.55.5C564,170.61,563.85,170.85,563.91,170.91Z" fill="#263238"/>
      <path id="Trazado_116452" data-name="Trazado 116452" d="M574.87,172a1,1,0,0,0,1,1,.94.94,0,0,0,1-.9,1,1,0,0,0-2-.1Z" fill="#263238"/>
      <path id="Trazado_116453" data-name="Trazado 116453" d="M574.46,171.11c.13.13.88-.43,2-.43s1.86.54,2,.41-.06-.29-.41-.54a2.74,2.74,0,0,0-1.58-.49,2.65,2.65,0,0,0-1.56.5C574.52,170.81,574.4,171.05,574.46,171.11Z" fill="#263238"/>
      <path id="Trazado_116454" data-name="Trazado 116454" d="M570.57,179.07a7.649,7.649,0,0,0-1.75-.31c-.27,0-.53-.09-.58-.27a1.41,1.41,0,0,1,.19-.82c.25-.66.52-1.35.81-2.08a37.139,37.139,0,0,0,1.82-5.46,35.4,35.4,0,0,0-2.26,5.3l-.78,2.1a1.59,1.59,0,0,0-.14,1.07.68.68,0,0,0,.45.4,1.73,1.73,0,0,0,.47.07A6.91,6.91,0,0,0,570.57,179.07Z" fill="#263238"/>
      <path id="Trazado_116455" data-name="Trazado 116455" d="M569.82,191.78A19.75,19.75,0,0,0,580.24,189s-2.52,5.34-10.31,4.62Z" fill="#eb996e"/>
      <path id="Trazado_116456" data-name="Trazado 116456" d="M571,181.66a2,2,0,0,1,1.74-.72,1.76,1.76,0,0,1,1.21.66,1.09,1.09,0,0,1,.09,1.27,1.29,1.29,0,0,1-1.41.36,3.94,3.94,0,0,1-1.37-.82,1.18,1.18,0,0,1-.31-.32.38.38,0,0,1,0-.4" fill="#eb996e"/>
      <path id="Trazado_116457" data-name="Trazado 116457" d="M573.73,179.81c-.18,0-.18,1.16-1.18,2s-2.24.7-2.25.86.28.23.81.24a2.91,2.91,0,0,0,1.87-.65,2.54,2.54,0,0,0,.91-1.67C573.94,180.1,573.81,179.81,573.73,179.81Z" fill="#263238"/>
      <path id="Trazado_116458" data-name="Trazado 116458" d="M574.42,168.1c.1.29,1.18.16,2.44.31s2.27.49,2.44.23-.1-.4-.51-.68a4.21,4.21,0,0,0-1.82-.64,4,4,0,0,0-1.9.23C574.6,167.73,574.37,168,574.42,168.1Z" fill="#263238"/>
      <path id="Trazado_116459" data-name="Trazado 116459" d="M564.3,167.8c.19.24.93,0,1.82,0s1.64.16,1.82-.09-.05-.37-.37-.6a2.64,2.64,0,0,0-2.93.09C564.32,167.43,564.22,167.68,564.3,167.8Z" fill="#263238"/>
      <path id="Trazado_116460" data-name="Trazado 116460" d="M590.22,167.29c-.55-4.71-2.77-9.46-6.82-11.94-3.54-2.18-7.17-2.67-10.69-.75a10.15,10.15,0,0,0-8.26,2.59,13.19,13.19,0,0,0-4,8.21,19,19,0,0,0,1.41,9.13l.6-7.88c4-1.72,8.46-5.11,10-9.23a16.47,16.47,0,0,0,11.79,11.49,13.48,13.48,0,0,0,4.63,12.49C589.86,176.76,590.77,172,590.22,167.29Z" fill="#263238"/>
      <path id="Trazado_116461" data-name="Trazado 116461" d="M585.06,172c.61,3-.43,6.08-1.19,9.06s-1.22,6.33.38,9a4.68,4.68,0,0,1,1.08,2.38,8.619,8.619,0,0,1-.81,2.22,3.46,3.46,0,0,0,1.55,3.74,5.7,5.7,0,0,0,4.21.61,17.1,17.1,0,0,0,4-1.6l3.79-1.88a6.37,6.37,0,0,0,1.59-1,5.33,5.33,0,0,0,1.38-2.82,17.06,17.06,0,0,0-2-11.94c-2-3.6-1.12-9.57-4.61-11.78" fill="#263238"/>
      <path id="Trazado_116462" data-name="Trazado 116462" d="M596.17,196.07a7.691,7.691,0,0,0,2-.8,6.55,6.55,0,0,0,3-4.85,8.19,8.19,0,0,0-.68-4,10,10,0,0,0-1.16-1.94,16.877,16.877,0,0,0-1.64-1.81,17.645,17.645,0,0,1-1.71-2,5.78,5.78,0,0,1-1-2.6c-.23-1.92.49-3.81.18-5.64a3.52,3.52,0,0,0-1.38-2.24,8.56,8.56,0,0,0-2.43-1.18,17.77,17.77,0,0,1-4.87-2.17,32.778,32.778,0,0,1-6.66-6c-1.68-1.94-2.9-3.61-3.73-4.77-.41-.59-.72-1-.93-1.36a2.781,2.781,0,0,1-.29-.5,3.9,3.9,0,0,1,.38.44l1,1.3c.88,1.12,2.14,2.75,3.84,4.64a33.829,33.829,0,0,0,6.63,5.9,18.17,18.17,0,0,0,4.78,2.09,9,9,0,0,1,2.59,1.25,4,4,0,0,1,1.57,2.55c.32,2-.41,3.92-.18,5.68a8.115,8.115,0,0,0,2.59,4.32,23.871,23.871,0,0,1,1.65,1.86,9.919,9.919,0,0,1,1.19,2.05,8.27,8.27,0,0,1,.65,4.18,6.56,6.56,0,0,1-1.29,3.24,6.479,6.479,0,0,1-2,1.75,5.609,5.609,0,0,1-1.56.57A2.29,2.29,0,0,1,596.17,196.07Z" fill="#455a64"/>
      <path id="Trazado_116463" data-name="Trazado 116463" d="M593.77,165.42a2.881,2.881,0,0,1-.82-.17,21.2,21.2,0,0,1-2.18-.73,33.62,33.62,0,0,1-12.47-8.47c-.65-.72-1.16-1.33-1.48-1.76a2.635,2.635,0,0,1-.46-.71,30.211,30.211,0,0,1,2.21,2.21,40.091,40.091,0,0,0,12.34,8.39C592.67,165,593.8,165.34,593.77,165.42Z" fill="#455a64"/>
      <path id="Trazado_116464" data-name="Trazado 116464" d="M566.42,153.4a3.869,3.869,0,0,1,1.14-1,6.53,6.53,0,0,1,3.52-1.22,4.58,4.58,0,0,1,2.06.43,3.851,3.851,0,0,1,1.34,1.09,2,2,0,0,1,.53,1.46,8.835,8.835,0,0,0-.82-1.22,4,4,0,0,0-3.1-1.24,7.32,7.32,0,0,0-3.34,1,6.932,6.932,0,0,1-1.33.7Z" fill="#455a64"/>
    </g>
    <g id="freepik--image-upload--inject-2">
      <rect id="Rectángulo_36773" data-name="Rectángulo 36773" width="199.44" height="199.44" transform="translate(267.87 133.15)" fill="#f5f5f5"/>
      <path id="Trazado_116465" data-name="Trazado 116465" d="M467.3,332.59c0-1.92-.09-79.88-.22-199.44l.22.23H267.89l.26-.26V332.56l-.22-.23,199.43.23-199.43.22h-.23V132.86H467.62v.22C467.39,252.71,467.3,330.67,467.3,332.59Z" fill="#263238"/>
      <path id="Trazado_116466" data-name="Trazado 116466" d="M449.42,320.7a35.221,35.221,0,0,1,6-.26l-.26.26h0v-2.31c0-.66,0-1.29.05-1.91a5.671,5.671,0,0,1,.19-1.76,6.343,6.343,0,0,1,.18,1.76c0,.62,0,1.25.06,1.91v2.31h0l-.26.26a34,34,0,0,1-5.96-.26Z" fill="#455a64"/>
      <path id="Trazado_116467" data-name="Trazado 116467" d="M424.24,320.7a76.34,76.34,0,0,1,12.59,0A76.34,76.34,0,0,1,424.24,320.7Z" fill="#455a64"/>
      <path id="Trazado_116468" data-name="Trazado 116468" d="M399.06,320.7a76.34,76.34,0,0,1,12.59,0,76.34,76.34,0,0,1-12.59,0Z" fill="#455a64"/>
      <path id="Trazado_116469" data-name="Trazado 116469" d="M373.88,320.7a76.34,76.34,0,0,1,12.59,0,76.34,76.34,0,0,1-12.59,0Z" fill="#455a64"/>
      <path id="Trazado_116470" data-name="Trazado 116470" d="M348.7,320.7a76.34,76.34,0,0,1,12.59,0A76.34,76.34,0,0,1,348.7,320.7Z" fill="#455a64"/>
      <path id="Trazado_116471" data-name="Trazado 116471" d="M323.52,320.7a76.34,76.34,0,0,1,12.59,0A76.34,76.34,0,0,1,323.52,320.7Z" fill="#455a64"/>
      <path id="Trazado_116472" data-name="Trazado 116472" d="M298.34,320.7a38.867,38.867,0,0,1,6.3-.26,38.788,38.788,0,0,1,6.29.26,37.484,37.484,0,0,1-6.29.26A37.551,37.551,0,0,1,298.34,320.7Z" fill="#455a64"/>
      <path id="Trazado_116473" data-name="Trazado 116473" d="M279.75,314.7a35.318,35.318,0,0,1,.26,6l-.26-.26h2.34l1.9.06a6.34,6.34,0,0,1,1.76.18,5.671,5.671,0,0,1-1.76.19l-1.9.05L281,321h-1.21l-.26-.26A35.317,35.317,0,0,1,279.75,314.7Z" fill="#455a64"/>
      <path id="Trazado_116474" data-name="Trazado 116474" d="M279.75,289.52a38.866,38.866,0,0,1,.26,6.3,38.692,38.692,0,0,1-.26,6.29,38.685,38.685,0,0,1-.26-6.29,38.867,38.867,0,0,1,.26-6.3Z" fill="#455a64"/>
      <path id="Trazado_116475" data-name="Trazado 116475" d="M279.75,264.34a38.866,38.866,0,0,1,.26,6.3,38.692,38.692,0,0,1-.26,6.29,38.685,38.685,0,0,1-.26-6.29,38.866,38.866,0,0,1,.26-6.3Z" fill="#455a64"/>
      <path id="Trazado_116476" data-name="Trazado 116476" d="M279.75,239.17a38.692,38.692,0,0,1,.26,6.29,38.874,38.874,0,0,1-.26,6.3,38.87,38.87,0,0,1-.26-6.3,38.692,38.692,0,0,1,.26-6.29Z" fill="#455a64"/>
      <path id="Trazado_116477" data-name="Trazado 116477" d="M279.75,214a38.7,38.7,0,0,1,.26,6.29,38.867,38.867,0,0,1-.26,6.3,38.87,38.87,0,0,1-.26-6.3,38.692,38.692,0,0,1,.26-6.29Z" fill="#455a64"/>
      <path id="Trazado_116478" data-name="Trazado 116478" d="M279.75,188.81a38.788,38.788,0,0,1,.26,6.29,38.874,38.874,0,0,1-.26,6.3,38.87,38.87,0,0,1-.26-6.3A38.789,38.789,0,0,1,279.75,188.81Z" fill="#455a64"/>
      <path id="Trazado_116479" data-name="Trazado 116479" d="M279.75,163.63a38.788,38.788,0,0,1,.26,6.29,38.874,38.874,0,0,1-.26,6.3,38.87,38.87,0,0,1-.26-6.3A38.789,38.789,0,0,1,279.75,163.63Z" fill="#455a64"/>
      <path id="Trazado_116480" data-name="Trazado 116480" d="M285.75,145a35.319,35.319,0,0,1-6,.26L280,145h0v2.31c0,.66,0,1.29-.05,1.91a6.071,6.071,0,0,1-.19,1.76,5.9,5.9,0,0,1-.18-1.76c0-.62,0-1.25-.06-1.91V145h0l.26-.26A34.119,34.119,0,0,1,285.75,145Z" fill="#455a64"/>
      <path id="Trazado_116481" data-name="Trazado 116481" d="M310.93,145a38.792,38.792,0,0,1-6.29.26,38.868,38.868,0,0,1-6.3-.26,37.551,37.551,0,0,1,6.3-.26A37.479,37.479,0,0,1,310.93,145Z" fill="#455a64"/>
      <path id="Trazado_116482" data-name="Trazado 116482" d="M336.11,145a76.34,76.34,0,0,1-12.59,0,76.34,76.34,0,0,1,12.59,0Z" fill="#455a64"/>
      <path id="Trazado_116483" data-name="Trazado 116483" d="M361.29,145a76.34,76.34,0,0,1-12.59,0A76.34,76.34,0,0,1,361.29,145Z" fill="#455a64"/>
      <path id="Trazado_116484" data-name="Trazado 116484" d="M386.47,145a76.339,76.339,0,0,1-12.59,0A76.339,76.339,0,0,1,386.47,145Z" fill="#455a64"/>
      <path id="Trazado_116485" data-name="Trazado 116485" d="M411.65,145a76.339,76.339,0,0,1-12.59,0,76.34,76.34,0,0,1,12.59,0Z" fill="#455a64"/>
      <path id="Trazado_116486" data-name="Trazado 116486" d="M436.83,145a76.34,76.34,0,0,1-12.59,0,76.34,76.34,0,0,1,12.59,0Z" fill="#455a64"/>
      <path id="Trazado_116487" data-name="Trazado 116487" d="M455.42,151a34.125,34.125,0,0,1-.26-6c.52.52.14.14.25.26h-2.33l-1.91-.06a6.3,6.3,0,0,1-1.75-.18,6,6,0,0,1,1.75-.19h4.24c.12.11-.25-.26.27.26a35.32,35.32,0,0,1-.26,5.91Z" fill="#455a64"/>
      <path id="Trazado_116488" data-name="Trazado 116488" d="M455.42,176.22a37.548,37.548,0,0,1-.26-6.3,37.474,37.474,0,0,1,.26-6.29,38.788,38.788,0,0,1,.26,6.29,38.867,38.867,0,0,1-.26,6.3Z" fill="#455a64"/>
      <path id="Trazado_116489" data-name="Trazado 116489" d="M455.42,201.4a37.548,37.548,0,0,1-.26-6.3,37.378,37.378,0,0,1,.26-6.29,38.691,38.691,0,0,1,.26,6.29,38.867,38.867,0,0,1-.26,6.3Z" fill="#455a64"/>
      <path id="Trazado_116490" data-name="Trazado 116490" d="M455.42,226.58a37.548,37.548,0,0,1-.26-6.3,37.375,37.375,0,0,1,.26-6.29,38.7,38.7,0,0,1,.26,6.29,38.867,38.867,0,0,1-.26,6.3Z" fill="#455a64"/>
      <path id="Trazado_116491" data-name="Trazado 116491" d="M455.42,251.76a37.548,37.548,0,0,1-.26-6.3,37.375,37.375,0,0,1,.26-6.29,38.7,38.7,0,0,1,.26,6.29,38.867,38.867,0,0,1-.26,6.3Z" fill="#455a64"/>
      <path id="Trazado_116492" data-name="Trazado 116492" d="M455.42,276.93a37.378,37.378,0,0,1-.26-6.29,37.551,37.551,0,0,1,.26-6.3,38.866,38.866,0,0,1,.26,6.3,38.7,38.7,0,0,1-.26,6.29Z" fill="#455a64"/>
      <path id="Trazado_116493" data-name="Trazado 116493" d="M455.42,302.11a37.378,37.378,0,0,1-.26-6.29,37.551,37.551,0,0,1,.26-6.3,38.866,38.866,0,0,1,.26,6.3,38.7,38.7,0,0,1-.26,6.29Z" fill="#455a64"/>
      <path id="Trazado_116494" data-name="Trazado 116494" d="M359,199.05a4.11,4.11,0,0,1-1-.13,5.2,5.2,0,0,1-2.57-1.46,5.38,5.38,0,0,1-1.6-4.34,4.71,4.71,0,0,1,1.27-2.68,4.35,4.35,0,0,1,3-1.42l-.2.2A6.61,6.61,0,0,1,359,185a3.86,3.86,0,0,1,2-1.33,5.58,5.58,0,0,1,2.54,0l-.28.26a5.84,5.84,0,0,1,2-5,6.79,6.79,0,0,1,2.59-1.36l.72-.2.74-.12a8.369,8.369,0,0,1,1.5-.14,10.39,10.39,0,0,1,6,1.29,6.83,6.83,0,0,1,2.2,2.42,8.53,8.53,0,0,1,.92,3.17,7.8,7.8,0,0,1,0,1.45l-.27-.29a8.57,8.57,0,0,1,5.58,1.57,10.4,10.4,0,0,1,3.29,4.51,5.49,5.49,0,0,1,.51,2.68,5.431,5.431,0,0,1-.87,2.53,5.91,5.91,0,0,1-4.22,2.6h0l-18.06.17h-6.87a2.1,2.1,0,0,1,.46,0l1.34-.06,5.08-.14,18-.36h0a5.43,5.43,0,0,0,3.86-2.41,4.76,4.76,0,0,0,.3-4.75A9.9,9.9,0,0,0,385,187a8.14,8.14,0,0,0-5.25-1.46h-.3v-.3a7.639,7.639,0,0,0,0-1.35,6.8,6.8,0,0,0-2.88-5.2,9.94,9.94,0,0,0-5.74-1.23,8.52,8.52,0,0,0-5.25,1.69,5.35,5.35,0,0,0-1.82,4.61v.32l-.31-.07a4.08,4.08,0,0,0-4.15,1.17,6.2,6.2,0,0,0-1,4v.19h-.2a4,4,0,0,0-2.75,1.28,4.35,4.35,0,0,0-1.22,2.48,5.42,5.42,0,0,0,3.9,5.65C358.67,199,359,199,359,199.05Z" fill="#263238"/>
      <path id="Trazado_116495" data-name="Trazado 116495" d="M375.92,193a45.769,45.769,0,0,1-4.73-4.9h.38l-.09.1a46.893,46.893,0,0,1-5,4.79,45.322,45.322,0,0,1,4.65-5.15l.1-.1.19-.2.19.21a45.243,45.243,0,0,1,4.31,5.25Z" fill="#263238"/>
      <path id="Trazado_116496" data-name="Trazado 116496" d="M371.38,204.7a68.576,68.576,0,0,1-.26-8.38,68.576,68.576,0,0,1,.26-8.38,66.251,66.251,0,0,1,.26,8.38,66.245,66.245,0,0,1-.26,8.38Z" fill="#263238"/>
      <path id="Trazado_116497" data-name="Trazado 116497" d="M329.63,222.28h-4.58l-.95,2.16h-1.27l3.91-8.62H328l3.92,8.62h-1.29Zm-.43-1-1.86-4.22-1.86,4.22Z" fill="#263238"/>
      <path id="Trazado_116498" data-name="Trazado 116498" d="M339.07,215.3v9.14h-1.13v-1a2.78,2.78,0,0,1-2.33,1.1,3.33,3.33,0,0,1,0-6.66,2.78,2.78,0,0,1,2.28,1.05v-3.6Zm-1.17,5.88a2.2,2.2,0,1,0-2.19,2.3,2.14,2.14,0,0,0,2.19-2.3Z" fill="#263238"/>
      <path id="Trazado_116499" data-name="Trazado 116499" d="M347.47,215.3v9.14h-1.13v-1a2.78,2.78,0,0,1-2.33,1.1,3.33,3.33,0,0,1,0-6.66,2.8,2.8,0,0,1,2.28,1.05v-3.6Zm-1.17,5.88a2.2,2.2,0,1,0-2.19,2.3,2.14,2.14,0,0,0,2.19-2.3Z" fill="#263238"/>
      <path id="Trazado_116500" data-name="Trazado 116500" d="M352.81,215.89a.77.77,0,0,1,.8-.77.76.76,0,0,1,.8.75.8.8,0,1,1-1.6,0Zm.21,2h1.18v6.53H353Z" fill="#263238"/>
      <path id="Trazado_116501" data-name="Trazado 116501" d="M360.12,224.06a2.18,2.18,0,0,1-1.42.45,1.86,1.86,0,0,1-2.07-2v-3.58h-1.11v-1h1.11V216.5h1.18v1.43h1.87v1h-1.87v3.53a1,1,0,0,0,1,1.1,1.49,1.49,0,0,0,.93-.31Z" fill="#263238"/>
      <path id="Trazado_116502" data-name="Trazado 116502" d="M367.2,221.57h-5.29a2.21,2.21,0,0,0,2.36,1.91,2.44,2.44,0,0,0,1.89-.79l.65.76a3.55,3.55,0,0,1-6.08-2.27,3.19,3.19,0,0,1,3.27-3.33,3.15,3.15,0,0,1,3.23,3.36,2.283,2.283,0,0,1-.03.36Zm-5.29-.85h4.19a2.11,2.11,0,0,0-4.19,0Z" fill="#263238"/>
      <path id="Trazado_116503" data-name="Trazado 116503" d="M379.7,220.68v3.76h-1.18v-3.62c0-1.28-.62-1.91-1.69-1.91a1.9,1.9,0,0,0-2,2.17v3.36h-1.18v-3.62c0-1.28-.61-1.91-1.69-1.91a1.94,1.94,0,0,0-1.95,2.17v3.36h-1.19v-6.53H370v1a2.63,2.63,0,0,1,2.25-1,2.43,2.43,0,0,1,2.27,1.21,2.93,2.93,0,0,1,2.51-1.21,2.5,2.5,0,0,1,2.67,2.77Z" fill="#263238"/>
      <path id="Trazado_116504" data-name="Trazado 116504" d="M385,215.89a.77.77,0,0,1,.8-.77.76.76,0,0,1,.8.75.8.8,0,1,1-1.6,0Zm.21,2h1.18v6.53h-1.18Z" fill="#263238"/>
      <path id="Trazado_116505" data-name="Trazado 116505" d="M399.46,220.68v3.76h-1.18v-3.62c0-1.28-.62-1.91-1.69-1.91a1.9,1.9,0,0,0-2,2.17v3.36h-1.18v-3.62c0-1.28-.61-1.91-1.69-1.91a1.94,1.94,0,0,0-1.95,2.17v3.36h-1.19v-6.53h1.14v1a2.64,2.64,0,0,1,2.25-1,2.43,2.43,0,0,1,2.27,1.21,2.93,2.93,0,0,1,2.51-1.21,2.5,2.5,0,0,1,2.71,2.77Z" fill="#263238"/>
      <path id="Trazado_116506" data-name="Trazado 116506" d="M406.81,220.5v3.94h-1.12v-.86a2.43,2.43,0,0,1-2.14.93c-1.48,0-2.42-.79-2.42-1.92s.68-1.91,2.63-1.91h1.87v-.23c0-1-.58-1.58-1.75-1.58a3.26,3.26,0,0,0-2.07.71l-.49-.89a4.34,4.34,0,0,1,2.69-.84C405.8,217.85,406.81,218.71,406.81,220.5Zm-1.18,1.94v-.91H403.8c-1.16,0-1.5.46-1.5,1s.54,1.06,1.44,1.06a1.89,1.89,0,0,0,1.89-1.15Z" fill="#263238"/>
      <path id="Trazado_116507" data-name="Trazado 116507" d="M415.28,217.91v5.64c0,2.31-1.17,3.35-3.39,3.35a4.82,4.82,0,0,1-3.11-1l.56-.91a4.06,4.06,0,0,0,2.52.85c1.54,0,2.24-.72,2.24-2.19v-.52a3,3,0,0,1-2.35,1,3.16,3.16,0,1,1,0-6.32,3,3,0,0,1,2.41,1.07v-1ZM414.12,221a2.25,2.25,0,1,0-2.24,2.13,2.08,2.08,0,0,0,2.24-2.13Z" fill="#263238"/>
      <path id="Trazado_116508" data-name="Trazado 116508" d="M423.4,221.57h-5.29a2.21,2.21,0,0,0,2.36,1.91,2.44,2.44,0,0,0,1.89-.79l.65.76a3.55,3.55,0,0,1-6.08-2.27,3.19,3.19,0,0,1,3.27-3.33,3.15,3.15,0,0,1,3.23,3.36,2.283,2.283,0,0,1-.03.36Zm-5.29-.85h4.19a2.11,2.11,0,0,0-4.19,0Z" fill="#263238"/>
      <path id="Trazado_116509" data-name="Trazado 116509" d="M367.86,270.08H311.51a3.53,3.53,0,0,1-3.52-3.52h0a3.53,3.53,0,0,1,3.52-3.52h56.35a3.52,3.52,0,0,1,3.52,3.52h0a3.52,3.52,0,0,1-3.52,3.52Z" fill="#407bff"/>
      <path id="Trazado_116510" data-name="Trazado 116510" d="M354.85,278v3.74h-.65v-.56a1.5,1.5,0,0,1-1.27.6,1.46,1.46,0,0,1-1.61-1.63V278H352v2.08c0,.73.37,1.1,1,1.1a1.1,1.1,0,0,0,1.16-1.25V278Z" fill="#263238"/>
      <path id="Trazado_116511" data-name="Trazado 116511" d="M360,279.86a1.82,1.82,0,0,1-1.89,1.91,1.6,1.6,0,0,1-1.31-.6v1.93h-.68V278h.65v.59a1.63,1.63,0,0,1,1.34-.63,1.82,1.82,0,0,1,1.89,1.9Zm-.68,0a1.27,1.27,0,1,0-1.27,1.32,1.24,1.24,0,0,0,1.29-1.32Z" fill="#263238"/>
      <path id="Trazado_116512" data-name="Trazado 116512" d="M361,276.49h.68v5.24H361Z" fill="#263238"/>
      <path id="Trazado_116513" data-name="Trazado 116513" d="M362.59,279.86a1.95,1.95,0,1,1,2,1.91,1.86,1.86,0,0,1-2-1.91Zm3.21,0a1.27,1.27,0,1,0-.6,1.193,1.27,1.27,0,0,0,.6-1.193Z" fill="#263238"/>
      <path id="Trazado_116514" data-name="Trazado 116514" d="M370.36,279.47v2.26h-.65v-.49a1.37,1.37,0,0,1-1.23.53c-.84,0-1.38-.45-1.38-1.1s.39-1.09,1.5-1.09h1.08v-.14c0-.57-.33-.9-1-.9a1.88,1.88,0,0,0-1.19.4l-.28-.51a2.46,2.46,0,0,1,1.54-.48C369.78,278,370.36,278.45,370.36,279.47Zm-.68,1.12v-.52h-1.05c-.67,0-.86.26-.86.57s.31.61.83.61A1.08,1.08,0,0,0,369.68,280.59Z" fill="#263238"/>
      <path id="Trazado_116515" data-name="Trazado 116515" d="M375.17,276.49v5.24h-.65v-.59a1.57,1.57,0,0,1-1.33.63,1.91,1.91,0,0,1,0-3.82,1.59,1.59,0,0,1,1.3.6v-2.06Zm-.67,3.37a1.26,1.26,0,1,0-1.26,1.32,1.23,1.23,0,0,0,1.26-1.32Z" fill="#263238"/>
      <path id="Trazado_116516" data-name="Trazado 116516" d="M376.34,276.83a.46.46,0,1,1,.46.44.44.44,0,0,1-.46-.44Zm.12,1.16h.68v3.74h-.68Z" fill="#263238"/>
      <path id="Trazado_116517" data-name="Trazado 116517" d="M382,279.58v2.15h-.68v-2.07c0-.74-.37-1.1-1-1.1a1.11,1.11,0,0,0-1.19,1.24v1.93h-.68V278h.65v.56a1.62,1.62,0,0,1,1.35-.6,1.46,1.46,0,0,1,1.55,1.62Z" fill="#263238"/>
      <path id="Trazado_116518" data-name="Trazado 116518" d="M386.85,278v3.23a1.7,1.7,0,0,1-1.94,1.93,2.76,2.76,0,0,1-1.79-.56l.32-.53a2.28,2.28,0,0,0,1.45.49c.88,0,1.28-.41,1.28-1.26V281a1.7,1.7,0,0,1-1.35.58,1.82,1.82,0,1,1,0-3.63,1.72,1.72,0,0,1,1.39.62V278Zm-.66,1.77A1.29,1.29,0,1,0,384.9,281a1.21,1.21,0,0,0,1.29-1.24Z" fill="#263238"/>
      <path id="Trazado_116519" data-name="Trazado 116519" d="M387.83,281.29a.47.47,0,0,1,.48-.48.5.5,0,1,1,0,1,.47.47,0,0,1-.48-.52Z" fill="#263238"/>
      <path id="Trazado_116520" data-name="Trazado 116520" d="M389.43,281.29a.47.47,0,0,1,.48-.48.5.5,0,0,1,0,1,.47.47,0,0,1-.48-.52Z" fill="#263238"/>
      <path id="Trazado_116521" data-name="Trazado 116521" d="M391,281.29a.47.47,0,0,1,.48-.48.5.5,0,0,1,0,1,.47.47,0,0,1-.48-.52Z" fill="#263238"/>
      <path id="Trazado_116522" data-name="Trazado 116522" d="M367.08,256c0,1.18-.85,2.14-2.61,2.14a3.94,3.94,0,0,1-2.52-.84l.45-.77a3.1,3.1,0,0,0,2.06.73c1,0,1.63-.48,1.63-1.23s-.49-1.25-2.08-1.25h-1.56l.36-3.6h3.88V252h-3.05l-.19,1.89h.77C366.27,253.87,367.08,254.73,367.08,256Z" fill="#407bff"/>
      <path id="Trazado_116523" data-name="Trazado 116523" d="M367.89,254.57c0-2.24,1.2-3.52,2.81-3.52s2.8,1.28,2.8,3.52-1.2,3.52-2.8,3.52S367.89,256.81,367.89,254.57Zm4.63,0c0-1.76-.75-2.64-1.82-2.64s-1.83.88-1.83,2.64.75,2.64,1.83,2.64,1.82-.88,1.82-2.64Z" fill="#407bff"/>
      <path id="Trazado_116524" data-name="Trazado 116524" d="M374.34,253a1.66,1.66,0,0,1,1.6-1.88c.95,0,1.59.75,1.59,1.88s-.64,1.87-1.59,1.87a1.65,1.65,0,0,1-1.6-1.87Zm2.56,0c0-.83-.36-1.32-1-1.32s-1,.5-1,1.32.38,1.31,1,1.31S376.9,253.77,376.9,253Zm3.18-1.82h.76l-4.7,6.88h-.75Zm-1.38,5.06a1.62,1.62,0,1,1,1.59,1.88,1.66,1.66,0,0,1-1.59-1.93Zm2.55,0c0-.81-.37-1.32-1-1.32s-1,.5-1,1.32.36,1.32,1,1.32,1-.56,1-1.37Z" fill="#407bff"/>
      <path id="Trazado_116525" data-name="Trazado 116525" d="M426.57,270.08a3.431,3.431,0,0,0,.64-.09,3.48,3.48,0,0,0,2.79-3.58,3.41,3.41,0,0,0-2.36-3.09,8.28,8.28,0,0,0-2.48-.17H400.6l-89.38.07a3.265,3.265,0,0,0-1.21,6.3,3.61,3.61,0,0,0,1.47.23h37.88l40.19.06,27.09.08H424l-7.36.05-27.09.08-40.19.06H311.48a4.24,4.24,0,0,1-1.67-.27,3.78,3.78,0,0,1,1.41-7.29l89.38.08h24.56a8.891,8.891,0,0,1,2.54.19,3.63,3.63,0,0,1,2.46,3.28,3.58,3.58,0,0,1-1.21,2.82,3.4,3.4,0,0,1-1.73.82A2.459,2.459,0,0,1,426.57,270.08Z" fill="#263238"/>
    </g>
  </g>
</svg>
