<svg id="img9" xmlns="http://www.w3.org/2000/svg" xmlns:xlink="http://www.w3.org/1999/xlink" width="495.345" height="461.234" viewBox="0 0 495.345 461.234">
  <defs>
    <clipPath id="clip-path">
      <rect id="Rectángulo_37021" data-name="Rectángulo 37021" width="495.345" height="461.234" fill="none"/>
    </clipPath>
  </defs>
  <g id="Grupo_142227" data-name="Grupo 142227" clip-path="url(#clip-path)">
    <path id="Trazado_116679" data-name="Trazado 116679" d="M162.54,273.812a3.451,3.451,0,0,0-.583.109c-1.787.507-2.158,2.324-3.561,3.193-.626.387-2.8.073-2.579,1.272.087.442.251,1.956.511,3.463-.249,1.248-.443,2.509-.808,3.728-.925,3.085-6.514,8.509-3.3,11.546a7.247,7.247,0,0,0,2.049,1.521,6.251,6.251,0,0,0,2.049.4c.544.035,1.4.22,1.8-.129.42-.367.662-1.751.865-2.286l1.738-4.589c.568-1.5,1.378-3.215,2.952-3.523a7.815,7.815,0,0,0,1.037-.172,2.759,2.759,0,0,0,.967-.673,18.857,18.857,0,0,0,2.835-3.336c1.412-2.187-.2-5.935-.947-8.1a3.835,3.835,0,0,0-.8-1.494,4.091,4.091,0,0,0-2.578-.877,8.161,8.161,0,0,0-1.646-.052" transform="translate(-44.815 -81.131)" fill="#eac5b0"/>
    <path id="Trazado_116680" data-name="Trazado 116680" d="M117.748,333.9a100.129,100.129,0,0,0,18.2-20.034c1.983-2.885,5.781-6.991,4.086-10.685-1.739-3.79-9.8-5.791-13.416-6.6-6.3,10.584-17.12,29.5-32.127,18.851-3.917-2.78-6.791-7.524-11.531-8.3a9.345,9.345,0,0,0-8.158,3.118c-8,8.757-.417,19.176,6.5,25.694,7.318,6.891,19.072,8.269,28.069,3.767a40.793,40.793,0,0,0,7.433-5.044q.471-.383.936-.773" transform="translate(-21.151 -87.888)" fill="#d1e7f5"/>
    <path id="Trazado_116681" data-name="Trazado 116681" d="M0,77.719a50.225,50.225,0,1,1,50.225,50.424A50.325,50.325,0,0,1,0,77.719" transform="translate(0 -8.088)" fill="#7db5db"/>
    <path id="Trazado_116682" data-name="Trazado 116682" d="M82.014,94.371A9.838,9.838,0,0,0,73.132,100L51.913,97.121a14.089,14.089,0,0,0-4.539-9.756l12-17.328a11.733,11.733,0,1,0-4.573-3.47L42.451,84.4a14.127,14.127,0,1,0,8.474,18.563l21.409,2.9a9.823,9.823,0,1,0,9.68-11.494" transform="translate(-7.009 -14.091)" fill="#fff"/>
    <path id="Trazado_116683" data-name="Trazado 116683" d="M449.855,288.018a3.312,3.312,0,0,1,.57-.107c1.806-.171,2.789,1.352,4.375,1.647.707.131,2.58-.927,2.8.246.077.433.464,1.87.761,3.335.669,1.048,1.291,2.129,2.055,3.11,1.936,2.482,8.947,5.444,7.094,9.348a7.06,7.06,0,0,1-1.327,2.111,6.091,6.091,0,0,1-1.726,1.089c-.483.224-1.2.7-1.683.519-.513-.185-1.224-1.359-1.6-1.775l-3.208-3.566c-1.049-1.165-2.394-2.44-3.937-2.163a7.583,7.583,0,0,1-1.006.21,2.69,2.69,0,0,1-1.119-.271,18.419,18.419,0,0,1-3.764-2.035c-2.06-1.492-1.921-5.475-2-7.711a3.757,3.757,0,0,1,.2-1.644,4,4,0,0,1,2.037-1.711,8.016,8.016,0,0,1,1.481-.63" transform="translate(-132.201 -85.312)" fill="#eac5b0"/>
    <path id="Trazado_116684" data-name="Trazado 116684" d="M493.5,335.74a22.55,22.55,0,0,1-5.928-.987,20.17,20.17,0,0,1-4.221-2.274,95.94,95.94,0,0,1-21.968-19.967,35.566,35.566,0,0,1,9.83-9.871,153.777,153.777,0,0,0,20.413,13.481,18.6,18.6,0,0,0,4.581,1.984,19.846,19.846,0,0,0,7.173-.063l27.747-3.632c5.581-.73,11.368-1.445,16.744.222,14.905,4.624,11.266,24.022-3.25,25.145-16.3,1.261-34.776-2.8-51.122-4.037" transform="translate(-136.72 -89.681)" fill="#7db5db"/>
    <path id="Trazado_116685" data-name="Trazado 116685" d="M58.471,629.351l-.352,4.078-2.692,3.316s-.773,4.975.7,5.848,24.436,3.6,24.436,3.6l2.366-3.53-1.9-3.9-12.138-5.552-4.169-4.63Z" transform="translate(-16.365 -186.267)" fill="#3b455a"/>
    <path id="Trazado_116686" data-name="Trazado 116686" d="M92.6,616.83l-.351,4.078L89.6,624.227s-.767,4.975.68,5.847,24.037,3.565,24.037,3.565l2.333-3.533-1.862-3.895-11.934-5.535-4.1-4.623Z" transform="translate(-26.491 -182.554)" fill="#3b455a"/>
    <path id="Trazado_116687" data-name="Trazado 116687" d="M49.555,494.048c1.972,4.148,3.747,7.912,4.069,13.255.315,5.256-.667,10.489-1.412,15.7-2.577,18.036-2.324,36.342-2.066,54.561q9.427.41,18.865.391A3.891,3.891,0,0,0,72,577.091a3.9,3.9,0,0,0,.519-3.074c-1.443-12.944-1.343-26.039-1.148-39.042A89.222,89.222,0,0,1,73,516.913c1.3-6.141,1.072-12.5.65-18.725-1.031-15.242-4.119-30.2-4.969-45.436-.155-2.763-.416-5.734-2.2-7.845-2.15-2.539-5.836-3.057-9.163-3.056-9.147,0-19.468,1.447-19.929,12.54-.153,3.7.821,7.341,1.856,10.895a225.34,225.34,0,0,0,8.232,24.188c.683,1.628,1.4,3.125,2.085,4.575" transform="translate(-11.073 -130.933)" fill="#bcbec0"/>
    <path id="Trazado_116688" data-name="Trazado 116688" d="M86.313,484.236c1.88,4.241,3.571,8.087,3.637,13.44.064,5.264-1.25,10.442-2.309,15.612-3.667,17.887-4.342,36.183-5.007,54.391q9.989.875,20.013,1.322a4.33,4.33,0,0,0,3.216-.716,3.72,3.72,0,0,0,.709-3.044c-1.076-16.175-2.288-32.4-1.15-48.57.436-6.188,1.215-12.352,1.564-18.546.678-12.06-.291-24.135-1.761-36.115-.9-7.379.377-23.175-7.088-27.642-3.38-2.022-7.654-2.321-11.6-1.716a15.172,15.172,0,0,0-5.731,1.908,12.374,12.374,0,0,0-5.371,9.465c-.353,3.686.493,7.374,1.409,10.974a215.561,215.561,0,0,0,7.494,24.565c.642,1.66,1.321,3.19,1.979,4.672" transform="translate(-22.328 -128.125)" fill="#bcbec0"/>
    <path id="Trazado_116689" data-name="Trazado 116689" d="M44.344,308.351c-5.681,4.238-9.441,11.549-9.906,19.136-.564,9.21-2.96,18.466-3.757,27.713a268.063,268.063,0,0,0,1,54.863c.241,2.015.614,4.265,2.252,5.463,1.854,1.356,4.432.741,6.636.092a324.739,324.739,0,0,1,53.046-10.9c1.075-.128-3.517-43.352-3.987-47.31-1.674-14.089-4.312-28.723-13.285-40.252-3.792-4.872-8.572-9.172-14.366-11.3a18.083,18.083,0,0,0-17.633,2.5" transform="translate(-8.808 -90.265)" fill="#d1e7f5"/>
    <path id="Trazado_116690" data-name="Trazado 116690" d="M76.576,260.724c.234,3.718.415,7.684-1.444,10.913-1.584,2.751-4.4,4.524-6.569,6.845a9.726,9.726,0,0,0-2.663,5.2c-.243,1.921.789,3.56.777,5.482a1.113,1.113,0,0,1-.094.526,1,1,0,0,1-.426.376,6.073,6.073,0,0,1-2.891.494,28.983,28.983,0,0,1-3.6.021c-1.513-.185-1.205-.49-1.348-2.032a29.738,29.738,0,0,0-1.266-6.8c-1.53-4.53-4.789-8.4-5.712-13.15-1.022-5.254.505-10.4,2.172-15.4a18.38,18.38,0,0,1,3.1-6.3c3.366-3.934,11.261-5.19,15.033-1.171,4.483,4.776,4.538,8.69,4.936,15" transform="translate(-15.116 -72.085)" fill="#eac5b0"/>
    <path id="Trazado_116691" data-name="Trazado 116691" d="M81.957,258.071a11.633,11.633,0,0,1,.991,11.791c2.841-1.982,4.177-5.513,4.75-8.93a20.483,20.483,0,0,0,.232-5.692c-.681-5.976-5.419-11.5-11.382-12.293-3.944-.525-3.929,4.5-2.391,6.949,2.022,3.219,5.578,5.128,7.8,8.175" transform="translate(-21.69 -71.981)" fill="#3b455a"/>
    <path id="Trazado_116692" data-name="Trazado 116692" d="M54.612,236.89a13.909,13.909,0,0,0-7.2-.91c-3.345.286-10.073,1.274-14.047,3.765-2.24-4.791-8.708-8.413-13.427-5.928-2.764,1.456-3.96,4.62-2.685,7.1a5.057,5.057,0,0,0,1.366,1.661,13.82,13.82,0,0,1,1.511,1.148c1.606,1.682.12,4.069-1.062,5.973a20.1,20.1,0,0,0-2.7,6.854,6.375,6.375,0,0,0,.264,4.025,4.134,4.134,0,0,0,3.77,2.25c3-.129,3.607-2.687,3.762-5.011A19.254,19.254,0,0,1,26,250.3a3.615,3.615,0,0,1,2.034-2.137,2.185,2.185,0,0,1,.566-.069,16.185,16.185,0,0,0-.67,6.989,29.44,29.44,0,0,0,5.562,13.776,23.368,23.368,0,0,0,12.126,8.413c.341-3.051-2.877-5.363-3.463-8.376a6.894,6.894,0,0,1,1.039-4.764,20.519,20.519,0,0,1,3.212-3.8l6.066-6.092a30.835,30.835,0,0,0,4.547-5.319c2.508-4.041,2.391-9.736-2.409-12.033" transform="translate(-4.791 -69.048)" fill="#3b455a"/>
    <path id="Trazado_116693" data-name="Trazado 116693" d="M386.27,141.98A119.071,119.071,0,1,1,267.2,22.908,119.072,119.072,0,0,1,386.27,141.98" transform="translate(-43.894 -6.788)" fill="#305399"/>
    <path id="Trazado_116694" data-name="Trazado 116694" d="M369.231,106.423A105.529,105.529,0,0,0,347,72.811,103.282,103.282,0,0,0,314.037,50.15a102.2,102.2,0,0,0-80.75,0,103.274,103.274,0,0,0-32.967,22.661,105.53,105.53,0,0,0-22.226,33.612,108,108,0,0,0,0,82.331,105.525,105.525,0,0,0,22.226,33.613,103.286,103.286,0,0,0,32.967,22.661,102.21,102.21,0,0,0,80.75,0A103.293,103.293,0,0,0,347,222.367a105.525,105.525,0,0,0,22.226-33.613,108,108,0,0,0,0-82.331m-2.285,41.165a97.581,97.581,0,0,1-2.682,22.795H333.086a122.217,122.217,0,0,0,2.809-26.055,117.976,117.976,0,0,0-2.488-24.247H363a97.206,97.206,0,0,1,3.941,27.507M339.624,80.336a95.158,95.158,0,0,1,19.542,29.1h-28.53q-1.567-5.016-3.594-9.89a122.823,122.823,0,0,0-19.4-31.668,134.235,134.235,0,0,0-12.315-12.838,92.231,92.231,0,0,1,44.3,25.293M278.881,55.189A120.99,120.99,0,0,1,299.708,74.8a112.15,112.15,0,0,1,17.725,28.911q1.182,2.836,2.189,5.73H278.881Zm43.824,64.893a106.843,106.843,0,0,1,2.751,24.247,111.52,111.52,0,0,1-3.09,26.055H278.881v-50.3Zm-99.456,24.247A106.849,106.849,0,0,1,226,120.082h42.443v50.3h-42.1a111.521,111.521,0,0,1-3.091-26.055m45.194-88.1v53.21h-39.36q.97-2.781,2.1-5.511a112,112,0,0,1,17.572-28.837,122.18,122.18,0,0,1,19.69-18.861M207.7,80.336a92.152,92.152,0,0,1,46.145-25.717,134.154,134.154,0,0,0-12.781,13.262,122.8,122.8,0,0,0-19.4,31.668q-2.029,4.871-3.594,9.89H188.16a95.157,95.157,0,0,1,19.542-29.1m-23.381,39.745H215.3a118.027,118.027,0,0,0-2.487,24.247,122.262,122.262,0,0,0,2.808,26.055H183.062a98.066,98.066,0,0,1,1.259-50.3m23.381,94.76a95.055,95.055,0,0,1-21.419-33.816h32.156q1.42,4.543,3.19,9.016a142.863,142.863,0,0,0,19.28,33.8,159.44,159.44,0,0,0,15.156,17.175A92.063,92.063,0,0,1,207.7,214.842m41.452,2.473a132.2,132.2,0,0,1-17.847-31.261q-.991-2.5-1.862-5.027h39v57.1a147.151,147.151,0,0,1-19.29-20.815m29.728,22.009v-58.3H319.26q-.836,2.427-1.784,4.831a131.957,131.957,0,0,1-17.715,31.183,146.7,146.7,0,0,1-20.88,22.285m60.742-24.482A92.134,92.134,0,0,1,293,240.664a159.568,159.568,0,0,0,14.8-16.822,142.863,142.863,0,0,0,19.28-33.8q1.773-4.471,3.19-9.016h30.776a95.055,95.055,0,0,1-21.419,33.816" transform="translate(-50.358 -12.397)" fill="#fff"/>
    <path id="Trazado_116695" data-name="Trazado 116695" d="M672.835,622.369a41.084,41.084,0,0,1-3.866,3.506,80.7,80.7,0,0,1-12.748-12.542c3.487-.413,4.178-3.437,8.2-.213,1.3,1.044,6.167,7.764,8.415,9.248" transform="translate(-194.457 -181.25)" fill="#eac5b0"/>
    <path id="Trazado_116696" data-name="Trazado 116696" d="M668.081,627.556a2.666,2.666,0,0,0-.951,2.461,7.047,7.047,0,0,1,.073,1.713,4,4,0,0,1-.8,1.456c-1.908,2.57-6.947,7.906-.376,8.6,5.967.633,10.893-7.635,13.589-12.547a1.88,1.88,0,0,0,.364-1.02,2.562,2.562,0,0,0-.429-1.136c-1.265-1.992-2.794-4.534-5.384-3.107-1.1.609-1.26,1.954-2.435,2.594-.963.524-2.776.307-3.653.982" transform="translate(-196.394 -184.78)" fill="#3b455a"/>
    <path id="Trazado_116697" data-name="Trazado 116697" d="M624.282,472.674c.748,11.864-9.764,29.22-6.733,38.891,6.339,20.231,12.988,31.795,24.555,47.82.827,1.146,3.563,3.706,4.742,5.155-2.831,3.7-6.11,6.292-9.771,9.411-16.955-14.463-32.086-23.82-43.033-45.922-8.654-17.472-11.7-45.835-16.206-66.445-.746-3.414-1.879-8.335.38-11.441,1.732-2.383,4.176-3.424,7.27-4.173,8.279-2,19.6-6.344,27.374-1.116,8.5,5.715,10.848,18.7,11.423,27.82" transform="translate(-170.947 -131.087)" fill="#587bc9"/>
    <path id="Trazado_116698" data-name="Trazado 116698" d="M530.888,634.73c-1.784.368-3.582.189-5.368.383a87.464,87.464,0,0,1-2.643-18.8c3.137,2.056,5.513.125,6.719,5.416.39,1.713.3,10.324,1.292,13" transform="translate(-154.943 -182.631)" fill="#eac5b0"/>
    <path id="Trazado_116699" data-name="Trazado 116699" d="M519.968,638.31a2.819,2.819,0,0,0-2.291,1.417,12.906,12.906,0,0,1-.951,1.465,3.153,3.153,0,0,1-1.516.659c-3.135.777-10.455,1.888-5.679,6.538,4.337,4.223,13.339.766,18.549-1.419a2,2,0,0,0,.945-.58,2.566,2.566,0,0,0,.373-1.167c.277-2.331.656-5.419-2.276-5.914-1.251-.212-2.3.756-3.638.518-1.1-.2-2.4-1.517-3.516-1.516" transform="translate(-150.522 -189.149)" fill="#3b455a"/>
    <path id="Trazado_116700" data-name="Trazado 116700" d="M573.107,488.6c-8.581,8.568-33.142,14.858-37.138,24.721-1.6,3.956-6.877,33.216-7.681,53.817-.058,1.472.616,5.311.632,7.256-4.577,1.312-8.692,1.037-13.625,1.384-3.6-23.738-7.34-65.309-7.34-65.309,4.881-20.76,28.442-44.568,41.515-63.271,2.166-3.1,4.7-7.341,8.585-7.862,2.981-.4,5.335.654,8.014,2.4,7.171,4.663,18.142,9.858,19.732,19.149,1.737,10.155-6.1,21.135-12.695,27.718" transform="translate(-150.522 -130.161)" fill="#587bc9"/>
    <path id="Trazado_116701" data-name="Trazado 116701" d="M579.116,322.354c7.887,6.928,14.44,16.745,19.055,27.472,8.174,18.995,11.3,40.714,14.313,62.01l3.008,21.264c.987,6.973.741,8.592-4.969,9.1-10.582.95-21.739.813-31.981-3.026-4.874-1.827-9.564-4.511-14.567-5.65-7.276-1.658-14.036,1.673-21.074,1.185.733-7.448,2.395-14.5,2.559-22.162a210.138,210.138,0,0,0-.993-22.947c-1.173-13.3-1.786-26.672-2.881-39.945-.784-9.507-2.761-16.951,3.724-24.982,3.53-4.373,10-11.965,15.857-11.863,6.211.109,13.539,5.669,17.949,9.542" transform="translate(-160.219 -92.695)" fill="#7db5db"/>
    <path id="Trazado_116702" data-name="Trazado 116702" d="M544.2,297.435c2.163,2.044,4.886,3.376,7.346,5.051a16.688,16.688,0,0,1,5.19,5.862c1.043,1.754,2.3,2.945,4.684,2.353,4.492-1.115,1.856-4.133,1.788-7.078-.079-3.365,1.34-6.623,1.929-9.893,1.7-9.45-5.676-23.778-16.832-22.957-12.2.9-10.67,20.459-4.105,26.662" transform="translate(-159.774 -80.228)" fill="#eac5b0"/>
    <path id="Trazado_116703" data-name="Trazado 116703" d="M553.868,275.292a3.051,3.051,0,0,1,1.218,3.783c-.363.689-1.035,1.166-1.451,1.824-1.219,1.931.2,4.5,1.987,5.92s4.03,2.4,5.235,4.344c6.081-4.927,10.735-12.066,11.16-19.881a19.625,19.625,0,0,0-6.137-15.336c-4.929-4.484-9.915-4.237-16.331-4.784a21.021,21.021,0,0,0-7.893.327c-2.31.7-4.316,2.18-6.6,2.952-3.787,1.279-8.6.815-11.036,3.981a7.061,7.061,0,0,0-.716,6.61,16.063,16.063,0,0,0,3.934,5.645,46.325,46.325,0,0,0,7.177,5.947c-1.227-.824,3.025-5.565,3.994-5.774,2.288-.491,5.913,2.108,8.257,2.668,2.257.539,5.206.486,7.2,1.774" transform="translate(-154.923 -74.364)" fill="#3b455a"/>
    <path id="Trazado_116704" data-name="Trazado 116704" d="M330.342,273.231l37.014,153.14,30.072-30.276,35.754,46.644,17.065-13.081,17.065-13.081-35.753-46.644,37.049-21.175Z" transform="translate(-97.89 -80.966)" fill="#3b455a"/>
    <path id="Trazado_116705" data-name="Trazado 116705" d="M469.506,412.867l-12.065-15.74-19.248-25.111-3.382-4.412,31.044-17.742,4.634-2.649c1.1-.63.592-2.164-.3-2.652l-13.777-7.526-33.077-18.068-39.862-21.775L349,278.359l-11.442-6.25c-1.786-.976-3.551-2.081-5.394-2.947-.082-.039-.16-.087-.239-.13a1.257,1.257,0,0,0-1.506.122,1.2,1.2,0,0,0-.654,1.466l3.688,15.26q4.428,18.317,8.855,36.635l10.671,44.15,9.229,38.181c1.5,6.216,2.987,12.437,4.507,18.648.021.089.042.177.064.265a1.571,1.571,0,0,0,2.745.788l26.311-26.488,2.4-2.412,10.984,14.329,19.247,25.11,4.441,5.793a1.569,1.569,0,0,0,2.164.313l27.174-20.829,6.956-5.332a1.569,1.569,0,0,0,.312-2.164m-29.338,20.518-5.743,4.4-11.114-14.5-19.248-25.11-4.441-5.793a1.573,1.573,0,0,0-2.447-.037l-26.31,26.488q-.854.859-1.707,1.719-1.5-6.2-3-12.4-4.428-18.318-8.855-36.636l-10.671-44.15q-4.615-19.09-9.229-38.181-1.9-7.859-3.8-15.721l10.844,5.923,33.077,18.069,39.862,21.775,34.473,18.831,11.442,6.251c.978.534,1.977,1.175,2.993,1.761l-30.076,17.189-4.635,2.649a1.559,1.559,0,0,0-.312,2.164l12.066,15.74q9.623,12.555,19.248,25.111l3.511,4.581-25.932,19.877" transform="translate(-97.704 -79.665)" fill="#fff"/>
    <path id="Trazado_116706" data-name="Trazado 116706" d="M450.527,443.847a3.363,3.363,0,0,1,.2-.544c.78-1.639,2.592-1.7,3.658-2.91.476-.54.528-2.69,1.647-2.277.412.156,1.843.562,3.252,1.058,1.243-.036,2.49-.016,3.725-.169,3.124-.387,9.264-4.885,11.664-1.291a7.082,7.082,0,0,1,1.131,2.223,6.1,6.1,0,0,1,.049,2.039c-.055.53-.016,1.383-.418,1.712a7.44,7.44,0,0,1-2.344.46l-4.707.924c-1.538.3-3.323.8-3.877,2.269a7.526,7.526,0,0,1-.336.971,2.685,2.685,0,0,1-.806.821,18.411,18.411,0,0,1-3.678,2.186c-2.338,1-5.686-1.161-7.647-2.237a3.739,3.739,0,0,1-1.31-1.015,3.992,3.992,0,0,1-.424-2.626,8,8,0,0,1,.219-1.594" transform="translate(-133.429 -129.297)" fill="#eac5b0"/>
    <path id="Trazado_116707" data-name="Trazado 116707" d="M515.265,405.108a22.568,22.568,0,0,1-3.889,4.581,20.16,20.16,0,0,1-4.118,2.456,95.942,95.942,0,0,1-28.411,8.607,35.575,35.575,0,0,1-3.428-13.5,153.855,153.855,0,0,0,22.046-10.6,18.634,18.634,0,0,0,4.054-2.913,19.852,19.852,0,0,0,3.627-6.189l11.122-25.68c2.237-5.164,4.594-10.5,8.783-14.257,11.617-10.419,26.4,2.658,19.914,15.693-7.282,14.636-20.245,28.412-29.7,41.805" transform="translate(-140.88 -101.887)" fill="#7db5db"/>
    <path id="Trazado_116708" data-name="Trazado 116708" d="M613.457,62.146A62.146,62.146,0,1,1,551.311,0a62.146,62.146,0,0,1,62.146,62.146" transform="translate(-144.954)" fill="#587bc9"/>
    <path id="Trazado_116709" data-name="Trazado 116709" d="M602.74,65.9a20.254,20.254,0,0,0-22.734-9.279.36.36,0,0,1-.048.008,9.234,9.234,0,0,0-5.832,5.95.533.533,0,0,1-1.026-.291,10.247,10.247,0,0,1,6.108-6.513c-3.044-9.833-12.312-16.8-22.5-16.023-10.022.762-18.164,8.569-20.1,18.582a13.188,13.188,0,0,1,2.471.863,16.975,16.975,0,0,1,7.422,7.133.536.536,0,0,1-.919.551,17.588,17.588,0,0,0-2.017-2.842A14.067,14.067,0,0,0,532.4,59.061a18.012,18.012,0,0,0-11.878,5.8,18.377,18.377,0,0,0-4.683,13.783,17.874,17.874,0,0,0,6.852,12.57,21.13,21.13,0,0,0,12.294,4.2c2.932.115,5.866.158,8.8.2,8.384.117,16.77.151,25.155.173Q574.47,95.8,580,95.8c3.026,0,6.211.251,9.191-.339a20.184,20.184,0,0,0,16.156-21.436,19.9,19.9,0,0,0-2.6-8.127" transform="translate(-152.839 -11.762)" fill="#fff"/>
    <path id="Trazado_116710" data-name="Trazado 116710" d="M237.215,393.2a47.331,47.331,0,1,1-47.332-47.332A47.332,47.332,0,0,1,237.215,393.2" transform="translate(-42.242 -102.491)" fill="#587bc9"/>
    <path id="Trazado_116711" data-name="Trazado 116711" d="M228.741,387.806a10.361,10.361,0,0,0-8.859-5.12c-.81-.009-1.621,0-2.431,0H204.8c-3.154,0-6.308-.011-9.463,0a10.376,10.376,0,0,0-7.582,3.209,10.725,10.725,0,0,0-2.776,7.309h-5.123c-3.155,0-6.308-.011-9.463,0a10.375,10.375,0,0,0-7.582,3.209,10.8,10.8,0,0,0-2.786,7.576v6.135a23.77,23.77,0,0,0,.3,5.586,10.316,10.316,0,0,0,7.231,7.379,15.369,15.369,0,0,0,4.084.356h23.292A9.972,9.972,0,0,0,205,414.522h.006l0-.066c.062-.5.1-1.014.12-1.53h14.751a10.334,10.334,0,0,0,9-5.384A13.442,13.442,0,0,0,230.1,401v-6.562a12.736,12.736,0,0,0-1.362-6.631M195.736,397.85l.059.013c.269.058.536.115.8.194.13.039.258.088.388.127l.108.031.089.047c.3.156.593.306.877.489.034.022.277.2.324.224.056.046.111.091.165.138a8.023,8.023,0,0,1,.9.932l.011.013.048.08c.1.172.219.335.319.509.075.129.4.863.314.614a8.564,8.564,0,0,1,.279.9c.034.138.062.278.088.417-.008-.016.037.334.042.416.077,1.464.011,2.948.011,4.413v.911h-4.735c-.208,0-.417,0-.626,0-.243,0-.486-.015-.728-.035.118,0-.6-.119-.733-.156-.2-.053-.388-.125-.585-.183l-.08-.023-.026-.013a12.833,12.833,0,0,1-1.135-.641c-.03-.018-.1-.065-.138-.1-.113-.094-.224-.19-.331-.29a9.919,9.919,0,0,1-.687-.722l-.064-.07c-.014-.027-.032-.058-.058-.1-.068-.114-.147-.223-.217-.336q-.156-.258-.293-.526c-.042-.083-.081-.168-.12-.253l-.011-.03a8.745,8.745,0,0,1-.315-1.08c-.015-.07-.027-.141-.04-.212.006-.011-.041-.372-.043-.42-.012-.224-.011-.446-.012-.67q0-2.327,0-4.655h4.036c.383,0,.766,0,1.149,0h.171c.269,0,.535.016.8.041m4.792,16.013c0,.027,0,.051,0,.073s-.006.025-.008.042a12.563,12.563,0,0,1-.339,1.291c-.008.03-.034.094-.053.142-.065.139-.134.278-.208.414-.129.239-.275.466-.426.691-.01.006-.208.277-.242.315-.087.1-.178.2-.271.293q-.209.214-.433.412c-.061.053-.125.1-.186.156l-.053.038a9.182,9.182,0,0,1-.945.568c-.063.032-.127.06-.191.091-.039.009-.338.129-.38.142a10.166,10.166,0,0,1-.995.255l-.112.026-.106,0c-.213.007-.425.023-.638.025H170.874c-.208,0-.417,0-.626,0-.243,0-.486-.015-.728-.035.118,0-.6-.119-.733-.156-.2-.053-.388-.125-.585-.183l-.08-.022-.027-.013a12.916,12.916,0,0,1-1.134-.641c-.03-.018-.1-.065-.138-.1-.113-.094-.224-.19-.332-.29a9.92,9.92,0,0,1-.686-.722l-.064-.07c-.015-.026-.032-.058-.058-.1-.068-.114-.148-.223-.217-.336-.1-.172-.2-.347-.293-.526-.042-.083-.081-.168-.12-.253l-.011-.03a8.619,8.619,0,0,1-.315-1.08c-.015-.07-.027-.141-.04-.212,0-.011-.041-.372-.044-.42-.012-.224-.011-.446-.011-.67,0-1.807,0-3.614,0-5.421,0-1.449-.039-2.9,0-4.352,0-.141.018-.282.023-.424,0-.046,0-.082,0-.112s.016-.063.027-.106c.077-.335.148-.668.255-1,.015-.045.154-.394.141-.383q.067-.139.138-.277c.078-.148.16-.294.247-.437.035-.058.31-.45.317-.477a7.4,7.4,0,0,1,.563-.615c.119-.116.245-.224.368-.336.033-.03.1-.084.162-.125a8.816,8.816,0,0,1,.769-.478c.127-.068.256-.132.386-.194-.034.024.384-.139.46-.163a8.04,8.04,0,0,1,.987-.239c.047-.006.1-.013.128-.013.213-.007.425-.023.638-.025h.148c.368,0,.736,0,1.1,0h13.472v.1h-.02v.3l.02.006v1.4a23.763,23.763,0,0,0,.3,5.586,10.316,10.316,0,0,0,7.231,7.379,15.369,15.369,0,0,0,4.084.356h3.962c0,.1,0,.2,0,.3,0,.214-.018.426-.025.639m24.97-16.971q0,2.759,0,5.517c0,.1,0,.2,0,.3,0,.214-.018.426-.025.639,0,.027,0,.051,0,.073s-.006.025-.008.042a12.563,12.563,0,0,1-.338,1.291c-.009.03-.034.094-.053.142-.065.139-.134.278-.208.414-.129.239-.275.467-.426.691-.01.006-.208.277-.241.315q-.132.15-.272.293c-.139.143-.284.28-.433.412-.061.053-.124.1-.186.156l-.053.038a9.248,9.248,0,0,1-.944.568c-.063.032-.128.061-.191.091-.038.009-.338.128-.38.142a10.1,10.1,0,0,1-.995.255l-.112.026-.106,0c-.213.008-.426.023-.639.025H205.159v-3.366a12.736,12.736,0,0,0-1.362-6.631,10.362,10.362,0,0,0-8.859-5.12c-.81-.009-1.621,0-2.431,0h-2.93c0-.17,0-.341,0-.512,0-.141.018-.283.023-.424,0-.046,0-.082,0-.112s.016-.063.026-.106c.078-.335.148-.668.255-1,.015-.045.154-.394.141-.383.044-.093.091-.185.139-.277q.116-.223.246-.437c.036-.058.31-.45.317-.477a7.514,7.514,0,0,1,.563-.615c.12-.116.245-.224.368-.336.033-.031.1-.084.162-.125a8.821,8.821,0,0,1,.769-.479c.127-.068.256-.132.386-.194-.034.024.384-.139.46-.163a8.04,8.04,0,0,1,.987-.239c.047-.006.1-.013.128-.013.213-.007.425-.023.639-.025h.148c.368,0,.736,0,1.1,0h22.114c.383,0,.766,0,1.149,0h.172c.268,0,.535.015.8.041l.059.013c.269.058.536.115.8.194.13.039.258.088.388.127l.108.031.089.047c.3.156.592.306.876.489.034.022.277.2.324.224.055.046.111.091.165.138a8.022,8.022,0,0,1,.9.932l.011.013.047.08c.1.172.219.336.319.509.075.129.4.863.314.614a8.4,8.4,0,0,1,.279.9c.034.138.062.277.088.417-.008-.016.037.334.042.415.078,1.465.011,2.948.011,4.414" transform="translate(-47.415 -113.399)" fill="#fff"/>
    <path id="Trazado_116712" data-name="Trazado 116712" d="M679.252,218.568a29.317,29.317,0,1,1-29.316-29.317,29.317,29.317,0,0,1,29.316,29.317" transform="translate(-183.907 -56.08)" fill="#d7e8f4"/>
    <path id="Trazado_116713" data-name="Trazado 116713" d="M147.358,426.317a3.319,3.319,0,0,0-.132-.564c-.57-1.723-2.359-2.01-3.266-3.343-.4-.595-.19-2.735-1.351-2.464-.428.1-1.9.327-3.359.645-1.229-.191-2.468-.327-3.674-.632-3.051-.773-8.583-6-11.412-2.735a7.075,7.075,0,0,0-1.4,2.065,6.081,6.081,0,0,0-.3,2.017c-.011.533-.156,1.375.2,1.751.375.395,1.737.573,2.268.748l4.554,1.5c1.49.492,3.2,1.21,3.564,2.734a7.606,7.606,0,0,0,.212,1,2.7,2.7,0,0,0,.7.916,18.5,18.5,0,0,0,3.377,2.628c2.195,1.286,5.786-.444,7.866-1.267a3.739,3.739,0,0,0,1.425-.844,3.993,3.993,0,0,0,.748-2.553,8.033,8.033,0,0,0-.018-1.609" transform="translate(-36.278 -123.32)" fill="#eac5b0"/>
    <path id="Trazado_116714" data-name="Trazado 116714" d="M68.508,377.843a22.522,22.522,0,0,0,3.288,5.03,20.152,20.152,0,0,0,3.779,2.95A95.945,95.945,0,0,0,102.693,397.9a35.563,35.563,0,0,0,5.083-12.97,153.877,153.877,0,0,1-20.553-13.266,18.627,18.627,0,0,1-3.659-3.4,19.853,19.853,0,0,1-2.828-6.592Q76.82,348.247,72.9,334.814c-1.576-5.4-3.249-10.99-6.937-15.241-10.228-11.786-26.524-.652-21.715,13.089,5.4,15.429,16.547,30.714,24.258,45.181" transform="translate(-12.855 -93.226)" fill="#d1e7f5"/>
  </g>
</svg>
