<svg id="Componente_1_1" data-name="Componente 1 – 1" xmlns="http://www.w3.org/2000/svg" xmlns:xlink="http://www.w3.org/1999/xlink" width="1920" height="373.51" viewBox="0 0 1920 373.51">
  <defs>
    <clipPath id="clip-path">
      <rect id="Rectángulo_6410" data-name="Rectángulo 6410" width="1920" height="373.51" transform="translate(3.77 1.14)" fill="none"/>
    </clipPath>
  </defs>
  <g id="Grupo_31316" data-name="Grupo 31316" transform="translate(-3.77 -1.14)">
    <g id="Grupo_31315" data-name="Grupo 31315" clip-path="url(#clip-path)">
      <rect id="Rectángulo_6397" data-name="Rectángulo 6397" width="1977.997" height="1308.984" transform="translate(-50.837 -791.358)" fill="#163161"/>
      <path id="Trazado_65653" data-name="Trazado 65653" d="M2173.37,325.454c-1.442,84.367-59.609,156.9-122.648,213.031q-36.393,32.364-75.717,60.7H-127.96a2284.706,2284.706,0,0,1,26.548-311.418c33.061-212.98,99.878-427.2,238.336-592.409,50.859-60.7,124.537-117.925,201.894-100.724,67.216,14.965,110.916,80.838,173.905,108.529C580.834-266.856,659.931-285.8,729.781-311.3c115.788-42.258,224.913-101.37,341.1-142.634,116.135-41.214,243.954-63.984,362.575-30.525,120.66,34.055,218.649,122.25,299.486,218.052,80.887,95.8,149.644,202.044,238.336,290.637C2059.521,112.373,2175.557,200.718,2173.37,325.454Z" fill="#e9eff1" opacity="0.32"/>
      <path id="Trazado_65654" data-name="Trazado 65654" d="M1912.288,676.391c-1.189,69.567-49.153,129.378-101.134,175.661a799.95,799.95,0,0,1-62.434,50.054H14.652A1883.7,1883.7,0,0,1,36.543,645.317C63.8,469.7,118.9,293.051,233.07,156.826c41.938-50.054,102.692-97.239,166.479-83.055,55.425,12.34,91.459,66.657,143.4,89.491,56.162,24.72,121.385,9.1,178.982-11.929,95.476-34.846,185.459-83.588,281.263-117.613,95.763-33.985,201.16-52.76,298.973-25.171,99.494,28.081,180.294,100.8,246.951,179.8,66.7,79,123.394,166.6,196.528,239.654C1818.41,500.688,1914.091,573.535,1912.288,676.391Z" fill="#d2d9dc" opacity="0.32"/>
      <g id="Grupo_31285" data-name="Grupo 31285">
        <path id="Trazado_65655" data-name="Trazado 65655" d="M1755.611,424.342c5.839,0,4.257-6-.18-6.882a2.918,2.918,0,0,0-2.634.993C1750.21,420.92,1752.577,424.229,1755.611,424.342Z" fill="#d2d9dc"/>
        <path id="Trazado_65656" data-name="Trazado 65656" d="M1636.554,378.877c2.763-.318,4.7-2.311,2.008-4.731-1.495-1.347-5.583-5.8-8.952-.335A6.077,6.077,0,0,0,1636.554,378.877Z" fill="#d2d9dc"/>
        <path id="Trazado_65657" data-name="Trazado 65657" d="M1716.661,407.617c-1.495-1.347-5.583-5.8-8.952-.335a6.077,6.077,0,0,0,6.944,5.066C1717.416,412.03,1719.348,410.037,1716.661,407.617Z" fill="#d2d9dc"/>
        <path id="Trazado_65658" data-name="Trazado 65658" d="M1708.076,510.086c-9.531-1.629-4.066,14.413,2.2,6.117C1711.753,514.25,1710.521,510.508,1708.076,510.086Z" fill="#d2d9dc"/>
        <path id="Trazado_65659" data-name="Trazado 65659" d="M1570.223,484.977c1.064,1.257,3.887-.161,4.907-2.683.658-1.624,1.05-2.092-.178-4.586C1572.96,475.236,1566.135,480.145,1570.223,484.977Z" fill="#d2d9dc"/>
        <path id="Trazado_65660" data-name="Trazado 65660" d="M1736.907,398.616c.657-1.623,1.049-2.092-.178-4.585-1.993-2.472-8.817,2.436-4.729,7.268C1733.064,402.556,1735.887,401.138,1736.907,398.616Z" fill="#d2d9dc"/>
        <path id="Trazado_65661" data-name="Trazado 65661" d="M1737.578,451.506c1.064,1.256,3.888-.161,4.908-2.683.657-1.624,1.049-2.092-.178-4.586C1740.315,441.765,1733.49,446.674,1737.578,451.506Z" fill="#d2d9dc"/>
        <path id="Trazado_65662" data-name="Trazado 65662" d="M1690.266,376.893a2.1,2.1,0,0,0,.932-.175c2.018-.833,4.6-4.546,3.655-6.807-1.284-3.075-6.417.256-7.057,2.373C1687.253,374.082,1688.116,376.755,1690.266,376.893Z" fill="#d2d9dc"/>
        <path id="Trazado_65663" data-name="Trazado 65663" d="M1605.44,381.183c.839-1.624,1.34-2.092-.228-4.585-2.546-2.472-11.267,2.437-6.043,7.268C1600.529,385.123,1604.136,383.7,1605.44,381.183Z" fill="#d2d9dc"/>
        <path id="Trazado_65664" data-name="Trazado 65664" d="M1733.036,499.189c1.218-1.443,1.575-3.917-.228-4.98-2.063-1.218-5.744-2.441-6.842,2.109C1726.193,498.738,1730.726,501.925,1733.036,499.189Z" fill="#d2d9dc"/>
        <path id="Trazado_65665" data-name="Trazado 65665" d="M1614.364,549.906c.791-.937,1.023-2.546-.148-3.236-1.342-.792-3.734-1.587-4.448,1.37C1609.915,549.613,1612.862,551.685,1614.364,549.906Z" fill="#d2d9dc"/>
        <path id="Trazado_65666" data-name="Trazado 65666" d="M1593.033,581.511c.147,1.573,3.093,3.645,4.6,1.866.792-.937,1.024-2.546-.148-3.236C1596.139,579.349,1593.746,578.554,1593.033,581.511Z" fill="#d2d9dc"/>
        <path id="Trazado_65667" data-name="Trazado 65667" d="M1738.073,414.156c.148,1.573,3.095,3.645,4.6,1.867.792-.938,1.024-2.547-.148-3.238C1741.18,411.994,1738.788,411.2,1738.073,414.156Z" fill="#d2d9dc"/>
        <path id="Trazado_65668" data-name="Trazado 65668" d="M1586.471,393.709c.792-.938,1.024-2.547-.148-3.238-1.341-.791-3.734-1.587-4.447,1.371C1582.023,393.415,1584.969,395.487,1586.471,393.709Z" fill="#d2d9dc"/>
        <path id="Trazado_65669" data-name="Trazado 65669" d="M1572.516,428.067c.362-2.769-3.086-3.9-4.039-1.849a7.229,7.229,0,0,0-.505,1.379C1567.324,430.35,1572.22,430.322,1572.516,428.067Z" fill="#d2d9dc"/>
        <path id="Trazado_65670" data-name="Trazado 65670" d="M1557.32,409.483a7.263,7.263,0,0,0-.505,1.378c-.648,2.754,4.248,2.726,4.544.47C1561.721,408.562,1558.273,407.435,1557.32,409.483Z" fill="#d2d9dc"/>
        <path id="Trazado_65671" data-name="Trazado 65671" d="M1583.673,361.125c.362-2.769-3.086-3.9-4.039-1.849a7.236,7.236,0,0,0-.505,1.379C1578.481,363.408,1583.377,363.38,1583.673,361.125Z" fill="#d2d9dc"/>
        <path id="Trazado_65672" data-name="Trazado 65672" d="M1594.83,338.811c.362-2.769-3.086-3.9-4.039-1.849a7.26,7.26,0,0,0-.505,1.379C1589.638,341.094,1594.534,341.066,1594.83,338.811Z" fill="#d2d9dc"/>
        <path id="Trazado_65673" data-name="Trazado 65673" d="M1550.2,428.067c.362-2.769-3.086-3.9-4.039-1.849a7.246,7.246,0,0,0-.505,1.379C1545.01,430.35,1549.906,430.322,1550.2,428.067Z" fill="#d2d9dc"/>
        <path id="Trazado_65674" data-name="Trazado 65674" d="M1561.039,505.712c-.26,3.7,4.854,1.768,3.277-.892C1563.263,503.048,1561.182,503.678,1561.039,505.712Z" fill="#d2d9dc"/>
        <path id="Trazado_65675" data-name="Trazado 65675" d="M1549.882,516.869c-.26,3.7,4.854,1.768,3.277-.892C1552.106,514.205,1550.025,514.835,1549.882,516.869Z" fill="#d2d9dc"/>
        <path id="Trazado_65676" data-name="Trazado 65676" d="M1577.774,589.389c-.259,3.7,4.855,1.769,3.278-.891C1580,586.725,1577.917,587.355,1577.774,589.389Z" fill="#d2d9dc"/>
        <path id="Trazado_65677" data-name="Trazado 65677" d="M1765.142,398.829c-1.053-1.773-3.135-1.143-3.277.891C1761.6,403.418,1766.72,401.489,1765.142,398.829Z" fill="#d2d9dc"/>
        <path id="Trazado_65678" data-name="Trazado 65678" d="M1737.25,354.2c-1.053-1.773-3.135-1.143-3.278.891C1733.713,358.79,1738.827,356.861,1737.25,354.2Z" fill="#d2d9dc"/>
        <path id="Trazado_65679" data-name="Trazado 65679" d="M1707.817,387.333c-.345,4.931,6.474,2.358,4.371-1.189C1710.784,383.781,1708.008,384.621,1707.817,387.333Z" fill="#d2d9dc"/>
        <path id="Trazado_65680" data-name="Trazado 65680" d="M1629.315,530.389a2.815,2.815,0,0,0-.384,2.769,2.969,2.969,0,0,0,2.23,1.692c1.669,0,4.065-.967,3.473-3.143C1633.929,529.113,1630.305,528.931,1629.315,530.389Z" fill="#d2d9dc"/>
        <path id="Trazado_65681" data-name="Trazado 65681" d="M1734.48,520.7a2.792,2.792,0,0,0-1.749-.437,2.746,2.746,0,0,0-1.369.482c-2.885,2.039-1.317,3.45-.2,5.878C1735.463,528.151,1738.13,523.125,1734.48,520.7Z" fill="#d2d9dc"/>
        <path id="Trazado_65682" data-name="Trazado 65682" d="M1751.216,470.5a2.789,2.789,0,0,0-1.75-.436,2.72,2.72,0,0,0-1.368.482c-2.886,2.038-1.318,3.449-.2,5.877C1752.2,477.945,1754.865,472.918,1751.216,470.5Z" fill="#d2d9dc"/>
        <path id="Trazado_65683" data-name="Trazado 65683" d="M1638.634,553.327a3.163,3.163,0,0,0-.557,1.966,3.1,3.1,0,0,0,.5,1.566c2.2,3.341,3.859,1.616,6.648.442C1647.1,552.481,1641.507,549.282,1638.634,553.327Z" fill="#d2d9dc"/>
        <path id="Trazado_65684" data-name="Trazado 65684" d="M1549.378,458.493a3.16,3.16,0,0,0-.557,1.965,3.1,3.1,0,0,0,.5,1.567c2.2,3.34,3.859,1.615,6.648.442C1557.848,457.647,1552.251,454.447,1549.378,458.493Z" fill="#d2d9dc"/>
        <path id="Trazado_65685" data-name="Trazado 65685" d="M1728.9,429c1.882-4.82-3.714-8.02-6.588-3.974a3.162,3.162,0,0,0-.557,1.965,3.115,3.115,0,0,0,.5,1.567C1724.456,431.894,1726.11,430.169,1728.9,429Z" fill="#d2d9dc"/>
        <path id="Trazado_65686" data-name="Trazado 65686" d="M1654.711,359.245c-.1,4.18,6.786,4.749,6.733.55a3.208,3.208,0,0,0-1.653-2.7C1657.821,355.895,1654.783,356.283,1654.711,359.245Z" fill="#d2d9dc"/>
        <path id="Trazado_65687" data-name="Trazado 65687" d="M1588.923,504.836a3.2,3.2,0,0,0-1.653-2.7c-1.97-1.2-5.008-.811-5.08,2.151C1582.088,508.466,1588.977,509.035,1588.923,504.836Z" fill="#d2d9dc"/>
        <path id="Trazado_65688" data-name="Trazado 65688" d="M1670.948,552.342c-1.97-1.2-5.008-.812-5.08,2.15-.1,4.181,6.786,4.75,6.733.551A3.207,3.207,0,0,0,1670.948,552.342Z" fill="#d2d9dc"/>
        <path id="Trazado_65689" data-name="Trazado 65689" d="M1589.663,535.56a2.321,2.321,0,0,0-1.2-1.956c-1.426-.867-3.625-.587-3.677,1.558C1584.715,538.187,1589.7,538.6,1589.663,535.56Z" fill="#d2d9dc"/>
        <path id="Trazado_65690" data-name="Trazado 65690" d="M1571.731,544.761c-1.427-.867-3.625-.587-3.678,1.558-.074,3.025,4.913,3.437,4.874.4A2.322,2.322,0,0,0,1571.731,544.761Z" fill="#d2d9dc"/>
        <path id="Trazado_65691" data-name="Trazado 65691" d="M1584.789,518.426c-.074,3.026,4.912,3.438,4.874.4a2.32,2.32,0,0,0-1.2-1.955C1587.04,516,1584.841,516.282,1584.789,518.426Z" fill="#d2d9dc"/>
        <path id="Trazado_65692" data-name="Trazado 65692" d="M1717.968,368.2a2.32,2.32,0,0,0-1.2-1.956c-1.426-.868-3.625-.587-3.678,1.557C1713.02,370.832,1718.007,371.244,1717.968,368.2Z" fill="#d2d9dc"/>
        <path id="Trazado_65693" data-name="Trazado 65693" d="M1697.247,540.113a2.989,2.989,0,0,0,1.321,1.037c1.782.738,4.181-.05,3.809-2.446C1701.315,531.868,1694.282,535.854,1697.247,540.113Z" fill="#d2d9dc"/>
        <path id="Trazado_65694" data-name="Trazado 65694" d="M1701.143,486.4c-1.043,1.538-1.971,4.194-.852,6.132,1.764,3.054,4.088,3.747,4.939,3.747,3.7,0,9-2.142,7.693-6.961C1711.36,483.568,1703.333,483.167,1701.143,486.4Z" fill="#d2d9dc"/>
        <path id="Trazado_65695" data-name="Trazado 65695" d="M1781.658,422.716c-2.964-.616-4.263,4.217-1.266,4.723a2.323,2.323,0,0,0,2.139-.826C1783.64,425.365,1783.758,423.152,1781.658,422.716Z" fill="#d2d9dc"/>
        <path id="Trazado_65696" data-name="Trazado 65696" d="M1770.5,461.765c-2.964-.615-4.263,4.218-1.266,4.724a2.322,2.322,0,0,0,2.139-.827C1772.483,464.415,1772.6,462.2,1770.5,461.765Z" fill="#d2d9dc"/>
        <path id="Trazado_65697" data-name="Trazado 65697" d="M1767.881,485.591c-2.964-.615-4.263,4.217-1.266,4.724a2.321,2.321,0,0,0,2.138-.827C1769.863,488.241,1769.981,486.027,1767.881,485.591Z" fill="#d2d9dc"/>
        <path id="Trazado_65698" data-name="Trazado 65698" d="M1555.776,389.684a2.32,2.32,0,0,0,2.139-.827c1.109-1.247,1.227-3.461-.873-3.9C1554.078,384.345,1552.779,389.178,1555.776,389.684Z" fill="#d2d9dc"/>
        <path id="Trazado_65699" data-name="Trazado 65699" d="M1672.925,345.056a2.319,2.319,0,0,0,2.138-.827c1.11-1.247,1.228-3.46-.872-3.9C1671.227,339.717,1669.928,344.55,1672.925,345.056Z" fill="#d2d9dc"/>
        <path id="Trazado_65700" data-name="Trazado 65700" d="M1650.611,339.478a2.322,2.322,0,0,0,2.138-.827c1.11-1.247,1.228-3.461-.872-3.9C1648.913,334.139,1647.614,338.972,1650.611,339.478Z" fill="#d2d9dc"/>
        <path id="Trazado_65701" data-name="Trazado 65701" d="M1585.743,560.848c-.346,4.93,6.473,2.358,4.37-1.189C1588.709,557.3,1585.933,558.135,1585.743,560.848Z" fill="#d2d9dc"/>
        <path id="Trazado_65702" data-name="Trazado 65702" d="M1753.1,532.955c-.346,4.931,6.473,2.358,4.37-1.189C1756.064,529.4,1753.288,530.242,1753.1,532.955Z" fill="#d2d9dc"/>
        <path id="Trazado_65703" data-name="Trazado 65703" d="M1612.754,358.778c1.669,0,4.064-.967,3.473-3.143-.706-2.594-4.33-2.775-5.319-1.317a2.813,2.813,0,0,0-.385,2.769A2.97,2.97,0,0,0,1612.754,358.778Z" fill="#d2d9dc"/>
        <path id="Trazado_65704" data-name="Trazado 65704" d="M1635.068,358.778c1.669,0,4.064-.967,3.473-3.143-.706-2.594-4.33-2.775-5.319-1.317a2.812,2.812,0,0,0-.385,2.769A2.97,2.97,0,0,0,1635.068,358.778Z" fill="#d2d9dc"/>
        <path id="Trazado_65705" data-name="Trazado 65705" d="M1707.588,353.2c1.669,0,4.065-.967,3.473-3.143-.705-2.594-4.329-2.776-5.319-1.318a2.815,2.815,0,0,0-.384,2.769A2.967,2.967,0,0,0,1707.588,353.2Z" fill="#d2d9dc"/>
        <path id="Trazado_65706" data-name="Trazado 65706" d="M1696.431,330.886c1.669,0,4.065-.967,3.473-3.143-.705-2.594-4.329-2.776-5.319-1.318a2.815,2.815,0,0,0-.384,2.769A2.966,2.966,0,0,0,1696.431,330.886Z" fill="#d2d9dc"/>
        <path id="Trazado_65707" data-name="Trazado 65707" d="M1672.271,371.053a2.815,2.815,0,0,0-.384,2.769,2.967,2.967,0,0,0,2.23,1.692c1.669,0,4.065-.967,3.473-3.143C1676.885,369.777,1673.26,369.6,1672.271,371.053Z" fill="#d2d9dc"/>
        <path id="Trazado_65708" data-name="Trazado 65708" d="M1622.264,386.814a2.321,2.321,0,0,0-1.2-1.956c-1.427-.868-3.626-.587-3.678,1.557C1617.316,389.442,1622.3,389.853,1622.264,386.814Z" fill="#d2d9dc"/>
        <path id="Trazado_65709" data-name="Trazado 65709" d="M1688.01,552.213c-1.427-.868-3.626-.587-3.678,1.557-.074,3.026,4.913,3.438,4.874.4A2.322,2.322,0,0,0,1688.01,552.213Z" fill="#d2d9dc"/>
        <path id="Trazado_65710" data-name="Trazado 65710" d="M1682.431,585.684c-1.426-.868-3.625-.587-3.677,1.557-.074,3.026,4.913,3.438,4.874.4A2.324,2.324,0,0,0,1682.431,585.684Z" fill="#d2d9dc"/>
        <path id="Trazado_65711" data-name="Trazado 65711" d="M1738.216,580.106c-1.426-.868-3.625-.588-3.677,1.557-.074,3.026,4.913,3.437,4.874.4A2.323,2.323,0,0,0,1738.216,580.106Z" fill="#d2d9dc"/>
        <path id="Trazado_65712" data-name="Trazado 65712" d="M1788.423,474.114c-1.426-.868-3.625-.587-3.678,1.557-.074,3.026,4.913,3.438,4.874.4A2.321,2.321,0,0,0,1788.423,474.114Z" fill="#d2d9dc"/>
        <path id="Trazado_65713" data-name="Trazado 65713" d="M1750.57,370.078a2.323,2.323,0,0,0-1.2-1.955c-1.426-.868-3.625-.588-3.677,1.557C1745.622,372.706,1750.609,373.117,1750.57,370.078Z" fill="#d2d9dc"/>
        <path id="Trazado_65714" data-name="Trazado 65714" d="M1728.256,331.029a2.323,2.323,0,0,0-1.2-1.956c-1.426-.868-3.625-.587-3.677,1.557C1723.308,333.657,1728.3,334.068,1728.256,331.029Z" fill="#d2d9dc"/>
        <path id="Trazado_65715" data-name="Trazado 65715" d="M1721.481,546.635c-1.426-.868-3.626-.588-3.678,1.557-.074,3.026,4.913,3.437,4.874.4A2.32,2.32,0,0,0,1721.481,546.635Z" fill="#d2d9dc"/>
        <path id="Trazado_65716" data-name="Trazado 65716" d="M1537.39,474.114c-1.426-.868-3.625-.587-3.677,1.557-.074,3.026,4.913,3.438,4.874.4A2.324,2.324,0,0,0,1537.39,474.114Z" fill="#d2d9dc"/>
        <path id="Trazado_65717" data-name="Trazado 65717" d="M1616.082,580.715c1.132.806,4.138-.1,5.224-1.718.7-1.04,1.117-1.34-.19-2.938C1618.995,574.476,1611.73,577.62,1616.082,580.715Z" fill="#d2d9dc"/>
        <path id="Trazado_65718" data-name="Trazado 65718" d="M1656.525,576.489c-.259,3.7,4.855,1.769,3.278-.892C1658.75,573.825,1656.668,574.455,1656.525,576.489Z" fill="#d2d9dc"/>
        <path id="Trazado_65719" data-name="Trazado 65719" d="M1611.9,604.382c-.259,3.7,4.855,1.768,3.278-.892C1614.122,601.717,1612.04,602.347,1611.9,604.382Z" fill="#d2d9dc"/>
        <path id="Trazado_65720" data-name="Trazado 65720" d="M1784.831,531.861c-.26,3.7,4.855,1.769,3.278-.892C1787.056,529.2,1784.974,529.827,1784.831,531.861Z" fill="#d2d9dc"/>
        <path id="Trazado_65721" data-name="Trazado 65721" d="M1773.674,381.242c-.26,3.7,4.855,1.768,3.278-.892C1775.9,378.577,1773.817,379.207,1773.674,381.242Z" fill="#d2d9dc"/>
        <path id="Trazado_65722" data-name="Trazado 65722" d="M1639.79,593.225c-.259,3.7,4.855,1.768,3.278-.892C1642.015,590.56,1639.933,591.19,1639.79,593.225Z" fill="#d2d9dc"/>
        <path id="Trazado_65723" data-name="Trazado 65723" d="M1522.641,442.605c-.259,3.7,4.855,1.769,3.278-.892C1524.866,439.941,1522.784,440.571,1522.641,442.605Z" fill="#d2d9dc"/>
        <path id="Trazado_65724" data-name="Trazado 65724" d="M1539.045,372.282c.362-2.769-3.086-3.9-4.039-1.849a7.236,7.236,0,0,0-.505,1.379C1533.853,374.565,1538.749,374.537,1539.045,372.282Z" fill="#d2d9dc"/>
        <path id="Trazado_65725" data-name="Trazado 65725" d="M1540.584,403.9a7.313,7.313,0,0,0-.505,1.379c-.648,2.753,4.249,2.725,4.544.47C1544.985,402.984,1541.538,401.857,1540.584,403.9Z" fill="#d2d9dc"/>
        <path id="Trazado_65726" data-name="Trazado 65726" d="M1561.355,367.37a2.319,2.319,0,0,0,2.138-.827c1.11-1.247,1.228-3.46-.872-3.9C1559.657,362.031,1558.358,366.864,1561.355,367.37Z" fill="#d2d9dc"/>
        <path id="Trazado_65727" data-name="Trazado 65727" d="M1517.063,414.713c-.26,3.7,4.855,1.768,3.278-.892C1519.288,412.048,1517.2,412.678,1517.063,414.713Z" fill="#d2d9dc"/>
        <path id="Trazado_65728" data-name="Trazado 65728" d="M1556.112,487.233c-.259,3.7,4.855,1.769,3.278-.892C1558.337,484.569,1556.255,485.2,1556.112,487.233Z" fill="#d2d9dc"/>
        <path id="Trazado_65729" data-name="Trazado 65729" d="M1517.063,503.969c-.26,3.7,4.855,1.768,3.278-.892C1519.288,501.3,1517.2,501.934,1517.063,503.969Z" fill="#d2d9dc"/>
        <path id="Trazado_65730" data-name="Trazado 65730" d="M1569.764,523.591c-1.053-1.772-3.135-1.143-3.278.892C1566.227,528.181,1571.341,526.252,1569.764,523.591Z" fill="#d2d9dc"/>
        <path id="Trazado_65731" data-name="Trazado 65731" d="M1549.751,546.8c-.26,3.7,4.855,1.769,3.278-.892C1551.975,544.133,1549.893,544.762,1549.751,546.8Z" fill="#d2d9dc"/>
        <path id="Trazado_65732" data-name="Trazado 65732" d="M1538.594,496.591c-.26,3.7,4.855,1.768,3.278-.892C1540.818,493.926,1538.736,494.556,1538.594,496.591Z" fill="#d2d9dc"/>
        <path id="Trazado_65733" data-name="Trazado 65733" d="M1705.949,574.69c-.26,3.7,4.855,1.768,3.278-.892C1708.174,572.025,1706.092,572.655,1705.949,574.69Z" fill="#d2d9dc"/>
        <path id="Trazado_65734" data-name="Trazado 65734" d="M1745,552.376c-.259,3.7,4.855,1.768,3.278-.892C1747.223,549.711,1745.141,550.341,1745,552.376Z" fill="#d2d9dc"/>
        <path id="Trazado_65735" data-name="Trazado 65735" d="M1756.155,440.806c-.259,3.7,4.855,1.768,3.278-.892C1758.38,438.141,1756.3,438.771,1756.155,440.806Z" fill="#d2d9dc"/>
        <path id="Trazado_65736" data-name="Trazado 65736" d="M1787.326,406.443c-1.053-1.773-3.135-1.143-3.278.892C1783.788,411.033,1788.9,409.1,1787.326,406.443Z" fill="#d2d9dc"/>
        <path id="Trazado_65737" data-name="Trazado 65737" d="M1663.236,470.739c-3.277.312-6.05,3.774-5.98,7.468.088,4.657,3.21,7.612,7.567,7.16,2.856-.3,5.854-4.536,5.7-8.063C1670.408,474.6,1665.851,470.49,1663.236,470.739Z" fill="#d2d9dc"/>
        <path id="Trazado_65738" data-name="Trazado 65738" d="M1603.459,451.9c2.856-.3,5.854-4.536,5.7-8.063-.117-2.709-4.675-6.814-7.29-6.565-3.277.312-6.049,3.774-5.98,7.468C1595.98,449.393,1599.1,452.348,1603.459,451.9Z" fill="#d2d9dc"/>
        <path id="Trazado_65739" data-name="Trazado 65739" d="M1618.608,420.532c-3.277.312-6.05,3.774-5.98,7.468.087,4.657,3.21,7.612,7.567,7.16,2.856-.3,5.854-4.535,5.7-8.063C1625.78,424.389,1621.223,420.284,1618.608,420.532Z" fill="#d2d9dc"/>
        <path id="Trazado_65740" data-name="Trazado 65740" d="M1648.088,463.053c2.855-.3,5.853-4.536,5.7-8.063-.117-2.709-4.675-6.814-7.289-6.565-3.278.312-6.051,3.774-5.981,7.468C1640.608,460.55,1643.731,463.505,1648.088,463.053Z" fill="#d2d9dc"/>
        <path id="Trazado_65741" data-name="Trazado 65741" d="M1664.648,424.659c2.385-.966,4.808-1.294,6.179-2.671,1.666-1.673,3.695-3.743,2.266-6.842-1.413-3.063-4.123-4.845-7.243-3.843a14.114,14.114,0,0,0-5.592,3.079,5.633,5.633,0,0,0-.888,7.23C1660.42,423.113,1662.823,423.667,1664.648,424.659Z" fill="#d2d9dc"/>
        <path id="Trazado_65742" data-name="Trazado 65742" d="M1637.056,410.455c1.05,1.5,3.453,2.055,5.278,3.047,2.385-.966,4.808-1.294,6.179-2.671,1.666-1.673,3.7-3.743,2.266-6.842-1.413-3.063-4.123-4.845-7.243-3.843a14.114,14.114,0,0,0-5.592,3.079A5.633,5.633,0,0,0,1637.056,410.455Z" fill="#d2d9dc"/>
        <path id="Trazado_65743" data-name="Trazado 65743" d="M1635.744,466.5c-3.956,1.347-7.138,3.739-8.489,7.706-.33.97,1.285,2.794,2.322,3.941.394.436,1.676.071,4.048.071,1.5-.489,4.521-1.039,7.072-2.438,2.052-1.127,2.428-3.5,1.335-5.826C1640.659,467.035,1638.178,465.668,1635.744,466.5Z" fill="#d2d9dc"/>
        <path id="Trazado_65744" data-name="Trazado 65744" d="M1646.9,427.447c-3.956,1.348-7.138,3.74-8.489,7.706-.33.971,1.285,2.795,2.321,3.941.4.437,1.677.071,4.049.071,1.5-.488,4.521-1.038,7.072-2.438,2.052-1.126,2.428-3.5,1.335-5.826C1651.816,427.986,1649.335,426.618,1646.9,427.447Z" fill="#d2d9dc"/>
        <path id="Trazado_65745" data-name="Trazado 65745" d="M1681.081,458.794c-1.372-2.916-3.853-4.283-6.287-3.455-3.956,1.348-7.138,3.74-8.489,7.707-.331.97,1.285,2.794,2.321,3.941.4.436,1.676.071,4.049.071,1.5-.489,4.52-1.039,7.072-2.439C1681.8,463.493,1682.175,461.118,1681.081,458.794Z" fill="#d2d9dc"/>
        <path id="Trazado_65746" data-name="Trazado 65746" d="M1674.637,445.875c1.7-.952,2.71-3.143,4.127-4.885-1.132-1.2-1.833-2.359-2.86-2.959-4.638-2.708-8.985-1.8-13.865,3.021-.483.476-.212,2.724.39,3.123C1666.173,446.653,1670.346,448.277,1674.637,445.875Z" fill="#d2d9dc"/>
        <path id="Trazado_65747" data-name="Trazado 65747" d="M1617.8,455.332c3.744,2.478,7.917,4.1,12.208,1.7,1.7-.952,2.71-3.143,4.127-4.885-1.132-1.2-1.833-2.359-2.86-2.959-4.638-2.708-8.985-1.8-13.865,3.021C1616.928,452.685,1617.2,454.933,1617.8,455.332Z" fill="#d2d9dc"/>
        <path id="Trazado_65748" data-name="Trazado 65748" d="M1689.931,463.366c-.482.476-.211,2.724.39,3.123,3.744,2.478,7.917,4.1,12.208,1.7,1.7-.952,2.71-3.143,4.128-4.885-1.132-1.2-1.833-2.359-2.86-2.959C1699.159,457.637,1694.811,458.549,1689.931,463.366Z" fill="#d2d9dc"/>
        <path id="Trazado_65749" data-name="Trazado 65749" d="M1646.218,483.444c-2.38.629-6.3.5-6.093,3.555.168,2.49,2.5,5.372,4.68,7.009,1.54,1.157,6.29-3.225,6.385-5.446C1651.271,486.645,1647.933,482.991,1646.218,483.444Z" fill="#d2d9dc"/>
        <path id="Trazado_65750" data-name="Trazado 65750" d="M1657.375,522.494c-2.38.629-6.3.5-6.093,3.554.168,2.491,2.5,5.372,4.68,7.009,1.54,1.158,6.29-3.225,6.385-5.445C1662.428,525.7,1659.09,522.041,1657.375,522.494Z" fill="#d2d9dc"/>
        <path id="Trazado_65751" data-name="Trazado 65751" d="M1595.405,471.827c.081-1.918-3.257-5.571-4.972-5.118-2.38.629-6.3.5-6.093,3.554.168,2.491,2.5,5.372,4.68,7.009C1590.56,478.43,1595.31,474.047,1595.405,471.827Z" fill="#d2d9dc"/>
        <path id="Trazado_65752" data-name="Trazado 65752" d="M1662.954,500.18c-2.38.629-6.3.5-6.094,3.554.168,2.491,2.5,5.372,4.681,7.009,1.539,1.158,6.289-3.225,6.384-5.445C1668.007,503.381,1664.669,499.727,1662.954,500.18Z" fill="#d2d9dc"/>
        <path id="Trazado_65753" data-name="Trazado 65753" d="M1612.14,516.455c.082-1.917-3.257-5.571-4.971-5.118-2.38.629-6.3.5-6.094,3.554.168,2.491,2.5,5.372,4.681,7.009C1607.3,523.058,1612.045,518.675,1612.14,516.455Z" fill="#d2d9dc"/>
        <path id="Trazado_65754" data-name="Trazado 65754" d="M1684.753,442.371c.168,2.49,2.5,5.372,4.68,7.009,1.54,1.157,6.29-3.225,6.385-5.446.081-1.917-3.257-5.571-4.972-5.118C1688.466,439.445,1684.548,439.319,1684.753,442.371Z" fill="#d2d9dc"/>
        <path id="Trazado_65755" data-name="Trazado 65755" d="M1679.174,481.42c.168,2.491,2.5,5.372,4.681,7.009,1.539,1.158,6.289-3.225,6.384-5.445.082-1.918-3.256-5.571-4.971-5.118C1682.887,478.495,1678.969,478.368,1679.174,481.42Z" fill="#d2d9dc"/>
        <path id="Trazado_65756" data-name="Trazado 65756" d="M1694.264,427.725c1.668-.614,2.785-2.725,3.708-3.694-.66-3.673-3.938-5.267-7.729-4.743-2.177.3-4.009,2.843-3.462,4.8A5.718,5.718,0,0,0,1694.264,427.725Z" fill="#d2d9dc"/>
        <path id="Trazado_65757" data-name="Trazado 65757" d="M1709.095,446.4a5.718,5.718,0,0,0,7.483,3.635c1.668-.614,2.785-2.725,3.708-3.694-.66-3.673-3.938-5.267-7.729-4.743C1710.38,441.9,1708.548,444.445,1709.095,446.4Z" fill="#d2d9dc"/>
        <path id="Trazado_65758" data-name="Trazado 65758" d="M1688.685,405.411c1.668-.614,2.785-2.725,3.708-3.694-.659-3.673-3.937-5.267-7.729-4.743-2.176.3-4.008,2.843-3.461,4.8A5.717,5.717,0,0,0,1688.685,405.411Z" fill="#d2d9dc"/>
        <path id="Trazado_65759" data-name="Trazado 65759" d="M1658.889,385.041a5.717,5.717,0,0,0,7.482,3.635c1.668-.614,2.785-2.726,3.708-3.7-.659-3.673-3.937-5.267-7.729-4.742C1660.174,380.54,1658.342,383.081,1658.889,385.041Z" fill="#d2d9dc"/>
        <path id="Trazado_65760" data-name="Trazado 65760" d="M1642.633,510.775c-.117-2.709-4.675-6.814-7.289-6.565-3.278.312-6.051,3.774-5.981,7.468.088,4.657,3.211,7.612,7.568,7.16C1639.786,518.542,1642.784,514.3,1642.633,510.775Z" fill="#d2d9dc"/>
        <path id="Trazado_65761" data-name="Trazado 65761" d="M1719.021,459.582c-3.277.312-6.05,3.774-5.98,7.468.088,4.657,3.211,7.612,7.567,7.16,2.856-.3,5.854-4.536,5.7-8.063C1726.193,463.438,1721.636,459.333,1719.021,459.582Z" fill="#d2d9dc"/>
        <path id="Trazado_65762" data-name="Trazado 65762" d="M1601.471,489.364c.087,4.657,3.21,7.612,7.567,7.16,2.856-.3,5.854-4.536,5.7-8.063-.117-2.709-4.674-6.814-7.289-6.565C1604.174,482.208,1601.4,485.67,1601.471,489.364Z" fill="#d2d9dc"/>
        <path id="Trazado_65763" data-name="Trazado 65763" d="M1590.433,410.924c-2.38.629-6.3.5-6.093,3.554.168,2.491,2.5,5.372,4.68,7.009,1.54,1.157,6.29-3.225,6.385-5.446C1595.486,414.125,1592.148,410.471,1590.433,410.924Z" fill="#d2d9dc"/>
        <path id="Trazado_65764" data-name="Trazado 65764" d="M1679.086,519.7c-2.177.3-4.009,2.843-3.462,4.8a5.718,5.718,0,0,0,7.483,3.635c1.668-.614,2.785-2.725,3.708-3.694C1686.155,520.771,1682.877,519.177,1679.086,519.7Z" fill="#d2d9dc"/>
        <path id="Trazado_65765" data-name="Trazado 65765" d="M1572.142,446.587a6.474,6.474,0,0,0-1.427,2.11c-.177.355-.03.872-.03,1.306.714.486,1.365,1.271,2.117,1.385,4.677.706,6.932-.3,8.831-3.981a2.891,2.891,0,0,0-.152-2.43C1580.033,442.672,1576.005,443.37,1572.142,446.587Z" fill="#d2d9dc"/>
        <path id="Trazado_65766" data-name="Trazado 65766" d="M1611.852,473.7c4.677.706,6.931-.3,8.831-3.981a2.9,2.9,0,0,0-.152-2.43c-1.449-2.3-5.477-1.607-9.339,1.61a6.459,6.459,0,0,0-1.427,2.11c-.178.355-.031.872-.031,1.306C1610.449,472.8,1611.1,473.588,1611.852,473.7Z" fill="#d2d9dc"/>
        <path id="Trazado_65767" data-name="Trazado 65767" d="M1683.712,502.372a6.472,6.472,0,0,0-1.427,2.11c-.177.355-.03.872-.03,1.306.714.486,1.364,1.271,2.117,1.385,4.677.706,6.931-.3,8.831-3.981a2.892,2.892,0,0,0-.152-2.43C1691.6,498.457,1687.575,499.155,1683.712,502.372Z" fill="#d2d9dc"/>
        <path id="Trazado_65768" data-name="Trazado 65768" d="M1631.84,492.035a2.9,2.9,0,0,0-.152-2.43c-1.449-2.305-5.477-1.607-9.339,1.61a6.459,6.459,0,0,0-1.427,2.11c-.178.355-.031.872-.031,1.306.715.486,1.365,1.271,2.118,1.385C1627.686,496.722,1629.94,495.715,1631.84,492.035Z" fill="#d2d9dc"/>
        <path id="Trazado_65769" data-name="Trazado 65769" d="M1611.852,406.76c4.677.706,6.931-.3,8.831-3.982a2.9,2.9,0,0,0-.152-2.429c-1.449-2.3-5.477-1.607-9.339,1.61a6.458,6.458,0,0,0-1.427,2.11c-.178.355-.031.872-.031,1.306C1610.449,405.861,1611.1,406.646,1611.852,406.76Z" fill="#d2d9dc"/>
        <path id="Trazado_65770" data-name="Trazado 65770" d="M1622.633,334.124a.709.709,0,0,0,.323.15.666.666,0,0,0,.38-.109c1.154-.633,1.531-1.5,1.351-2.266a2.6,2.6,0,0,0-2.3-1.748C1619.609,329.748,1621.7,333.454,1622.633,334.124Z" fill="#d2d9dc"/>
        <path id="Trazado_65771" data-name="Trazado 65771" d="M1656.1,322.967a.71.71,0,0,0,.323.15.665.665,0,0,0,.38-.109c1.154-.633,1.531-1.5,1.351-2.266a2.6,2.6,0,0,0-2.3-1.748C1653.08,318.591,1655.172,322.3,1656.1,322.967Z" fill="#d2d9dc"/>
        <path id="Trazado_65772" data-name="Trazado 65772" d="M1750.434,503.5a.67.67,0,0,0-.287.217c-.655.864-1.066,2.72.2,3.228,1.365.546,2.608-1.238,2.1-2.445A2,2,0,0,0,1750.434,503.5Z" fill="#d2d9dc"/>
        <path id="Trazado_65773" data-name="Trazado 65773" d="M1772.748,503.5a.669.669,0,0,0-.287.217c-.655.864-1.066,2.72.2,3.228,1.365.546,2.608-1.238,2.1-2.445A2,2,0,0,0,1772.748,503.5Z" fill="#d2d9dc"/>
        <path id="Trazado_65774" data-name="Trazado 65774" d="M1778.326,447.715a.667.667,0,0,0-.286.217c-.656.864-1.067,2.721.2,3.227,1.366.547,2.609-1.237,2.1-2.444A2.005,2.005,0,0,0,1778.326,447.715Z" fill="#d2d9dc"/>
      </g>
      <path id="Trazado_65791" data-name="Trazado 65791" d="M229.786-25.874c-3.1-9.575-4.937-19.383-3.326-29.217,2.487-15.146,12.974-28.81,12.007-44.116-5.859,18.07-18.784,34.181-19.5,53.16a43.05,43.05,0,0,0,4.688,21.129c-15.978-.619-23.28-26.77-22.682-39.97,1.636-36.231,40.062-60.532,48.883-95.714-2.193,27.332,12.265,53.817,10.835,81.209C259.764-61.371,248.9-32.3,229.786-25.874Z" fill="#ffb47d"/>
      <rect id="Rectángulo_6398" data-name="Rectángulo 6398" width="1963.476" height="1308.984" transform="translate(-50.837 -791.358)" fill="none"/>
      <path id="Trazado_65792" data-name="Trazado 65792" d="M1325.464,516.569h-121.7c5.861-4.325,26.9-19.41,45.948-27.556,7.9-3.374,15.449-5.557,21.441-5.288C1290.156,484.578,1316.793,508.347,1325.464,516.569Z" fill="#fc801c"/>
      <path id="Trazado_65793" data-name="Trazado 65793" d="M1286.778,516.569h-121.7c8.288-6.118,46.936-33.759,67.388-32.844,5.336.241,11.273,2.288,17.246,5.288C1265.011,496.7,1280.539,510.653,1286.778,516.569Z" fill="#fb9d39"/>
      <path id="Trazado_65794" data-name="Trazado 65794" d="M1919.742,518.229H1107.581a.8.8,0,0,1-.8-.8h0a.8.8,0,0,1,.8-.8h812.161a.8.8,0,0,1,.8.8h0A.8.8,0,0,1,1919.742,518.229Z" fill="#1e2e50"/>
      <path id="Trazado_65795" data-name="Trazado 65795" d="M1253.633,446.5a1.025,1.025,0,0,0-1.224.768l-9.277,40.518c-2.506.074-5.054,2.787-5.919,6.567l-.884,3.86a5.433,5.433,0,0,0-.121.65l10.3,2.359a2.7,2.7,0,0,0,.2-.632l.884-3.86c.863-3.769-.242-7.312-2.473-8.483l9.279-40.523A1.025,1.025,0,0,0,1253.633,446.5Z" fill="#0d458d"/>
      <path id="Trazado_65796" data-name="Trazado 65796" d="M1226.671,498.8s21.4-5.542,28.231-1.031-3.481,9.281-3.481,9.281Z" fill="#fb9d39"/>
      <g id="Grupo_31313" data-name="Grupo 31313">
        <rect id="Rectángulo_6399" data-name="Rectángulo 6399" width="176.822" height="218.078" transform="translate(1928.867 300.477) rotate(-180)" fill="#7798f8"/>
        <rect id="Rectángulo_6400" data-name="Rectángulo 6400" width="144.562" height="197.896" rx="35.035" transform="translate(1909.031 299.622) rotate(-180)" fill="#7bb878"/>
        <path id="Trazado_65797" data-name="Trazado 65797" d="M1909.031,82.379v19.347H1764.469V82.379S1834.406,30.97,1909.031,82.379Z" fill="#7798f8"/>
        <rect id="Rectángulo_6401" data-name="Rectángulo 6401" width="19.836" height="218.078" transform="translate(1764.469 300.477) rotate(-180)" fill="#7798f8"/>
        <rect id="Rectángulo_6402" data-name="Rectángulo 6402" width="176.822" height="218.078" transform="translate(1480.364 300.477) rotate(-180)" fill="#7798f8"/>
        <rect id="Rectángulo_6403" data-name="Rectángulo 6403" width="144.562" height="197.896" rx="35.035" transform="translate(1460.528 299.622) rotate(-180)" fill="#7bb878"/>
        <path id="Trazado_65798" data-name="Trazado 65798" d="M1460.528,82.379v19.347H1315.966V82.379S1385.9,30.97,1460.528,82.379Z" fill="#7798f8"/>
        <rect id="Rectángulo_6404" data-name="Rectángulo 6404" width="19.836" height="218.078" transform="translate(1315.966 300.477) rotate(-180)" fill="#7798f8"/>
        <rect id="Rectángulo_6405" data-name="Rectángulo 6405" width="176.822" height="218.078" transform="translate(1702.924 265.706) rotate(-180)" fill="#7798f8"/>
        <rect id="Rectángulo_6406" data-name="Rectángulo 6406" width="144.562" height="197.896" rx="35.035" transform="translate(1683.088 264.851) rotate(-180)" fill="#7bb878"/>
        <path id="Trazado_65799" data-name="Trazado 65799" d="M1683.088,47.608V66.956H1538.526V47.608S1608.462-3.8,1683.088,47.608Z" fill="#7798f8"/>
        <rect id="Rectángulo_6407" data-name="Rectángulo 6407" width="19.836" height="218.078" transform="translate(1538.526 265.706) rotate(-180)" fill="#7798f8"/>
        <g id="Grupo_31308" data-name="Grupo 31308">
          <path id="Trazado_65800" data-name="Trazado 65800" d="M1781.088,280.33c6.991,12.167,15.784,16.864,15.784,16.864h36.579S1775.756,271.048,1781.088,280.33Z" fill="#1e3865"/>
          <g id="Grupo_31305" data-name="Grupo 31305">
            <path id="Trazado_65801" data-name="Trazado 65801" d="M1819.557,180.835c15.871,8.738,48.068,26.854,48.235,26.737,0,0,11.834,4.46,18.548,0,11.19-7.431,17.191-27.432-3.273-44.644-10.206-8.584-17.457-10.673-18.559-24.38-.6-7.436-10.762-31.977-27.651-29.708-1.412.19-10.1.6-15.809,3.594C1806.5,120.075,1795.764,177.452,1819.557,180.835Z" fill="#1e3865"/>
            <path id="Trazado_65802" data-name="Trazado 65802" d="M1832.859,173.4c-.069.045,7.809,2.735,13.078.4,4.956-2.19,8.71-10.344,8.637-10.349-2.255-.1-4.73-2.075-6.636-15.008l-.96.344-16.142,5.808s1.17,5.18,1.926,10.111C1833.4,168.844,1833.741,172.811,1832.859,173.4Z" fill="#ffae73"/>
            <path id="Trazado_65803" data-name="Trazado 65803" d="M1830.836,154.593s1.17,5.18,1.926,10.111c9.271-1.669,12.91-10.906,14.216-15.919Z" fill="#f9924f"/>
            <path id="Trazado_65804" data-name="Trazado 65804" d="M1828.432,159.734s22.085-2.964,20.027-16.689-.593-23.351-14.781-22.039-16.135,6.96-16.563,11.708S1822.634,160.152,1828.432,159.734Z" fill="#ffae73"/>
            <path id="Trazado_65805" data-name="Trazado 65805" d="M1817.92,125.191s14.138,12.183,23.754,13.165,13.257-2.1,13.257-2.1a37.56,37.56,0,0,1-9.079-12.3,6.759,6.759,0,0,0-5.574-3.985C1833.411,119.372,1820.394,119.1,1817.92,125.191Z" fill="#1e3865"/>
            <path id="Trazado_65806" data-name="Trazado 65806" d="M1826.758,124.1s-4.73,4.572-6.219,7.964c-1.438,3.273-1.868,11.1-.724,14.211,0,0-7.369-14.328-3.2-21.29C1821.042,117.6,1826.758,124.1,1826.758,124.1Z" fill="#1e3865"/>
            <path id="Trazado_65807" data-name="Trazado 65807" d="M1814.263,205.929c.667,44.705.183,35.364,5.073,39.6,1.179,1.022,4.491,1.63,8.851,1.919,13.708.91,37.8-1.349,38.721-3.882,3.162-8.766.93-11.489,3.568-24.909.275-1.427.616-2.972,1.015-4.655,2.2-9.217,4.34-12.353-3.463-27.161-7.077-13.413-14.428-24.3-15.089-23.907-18.671,11.083-20.176,1.768-20.176,1.768S1813.936,184.123,1814.263,205.929Z" fill="#fff"/>
            <path id="Trazado_65808" data-name="Trazado 65808" d="M1832.762,164.7s-19.211,3.257-21.467,11.528-15.531,56.9-15.531,56.9,9.766,1.755,14.278-2.757,15.7-41.858,15.7-41.858Z" fill="#fff"/>
            <path id="Trazado_65809" data-name="Trazado 65809" d="M1828.187,247.453c13.708.91,37.8-1.349,38.721-3.882,3.162-8.766.93-11.489,3.568-24.909l-6.612-18.618s1.094,20.732-5.021,26.185-25.033,10.527-28.005,15.083A16.688,16.688,0,0,0,1828.187,247.453Z" fill="#e8f2ff"/>
            <path id="Trazado_65810" data-name="Trazado 65810" d="M1843.893,238.733s-13.524-3.012-15.706-1.811-7.515,5.57-8.183,7.092,4.858-1.155,6.656-1.637c1.163-.312,4.227.752,5.744,1.258,6.383,2.128,10.294,1.033,10.294,1.033Z" fill="#ffae73"/>
            <path id="Trazado_65811" data-name="Trazado 65811" d="M1852.95,162.929s18.159,1.119,24.445,9.887c8.849,12.342,26.4,64.94,16.343,71.956-11.33,7.9-51.564,2.066-51.564,2.066s-1.339-6.258.524-9.285,32.136-7.918,33.533-9.315-17.465-27.245-17.465-31.437S1852.95,162.929,1852.95,162.929Z" fill="#fff"/>
            <path id="Trazado_65812" data-name="Trazado 65812" d="M1827.532,240.686s-2.834,3.655-3.762,4.091a2.773,2.773,0,0,1-1.529.327l1.909-3.436Z" fill="#ffae73"/>
            <path id="Trazado_65813" data-name="Trazado 65813" d="M1828.187,236.922l-8.239,4a1.469,1.469,0,0,0,1.365.528,19.7,19.7,0,0,0,3.574-.982Z" fill="#ffae73"/>
          </g>
          <g id="Grupo_31307" data-name="Grupo 31307">
            <g id="Grupo_31306" data-name="Grupo 31306">
              <path id="Trazado_65814" data-name="Trazado 65814" d="M1823.77,250.377H1758.6l-19.6-48.75h65.069Z" fill="#1e3865"/>
              <path id="Trazado_65815" data-name="Trazado 65815" d="M1757.837,248.477h86.056v1.9H1758.6Z" fill="#1e3865"/>
            </g>
            <path id="Trazado_65816" data-name="Trazado 65816" d="M1775.051,226a2.258,2.258,0,0,1,2.213-3.1,4.446,4.446,0,0,1,3.993,3.1,2.258,2.258,0,0,1-2.213,3.1A4.447,4.447,0,0,1,1775.051,226Z" fill="#fff"/>
          </g>
        </g>
        <g id="Grupo_31310" data-name="Grupo 31310">
          <path id="Trazado_65817" data-name="Trazado 65817" d="M1356.1,159.8s-7.159,28.2-17.6,49.285c-2.925,5.912-28.476,32.055-30.172,33.282-17.691,12.794-28.191,12.394-28.191,12.394-4.106-32.6,44.79-87.338,46.03-88.62,2.4-2.488,7.5-4,12.815-4.913A115.265,115.265,0,0,1,1356.1,159.8Z" fill="#163161"/>
          <path id="Trazado_65818" data-name="Trazado 65818" d="M1390.649,508.238a25.655,25.655,0,0,0-3.479,11.659,2.491,2.491,0,0,0,2.5,2.528h20.8a3.112,3.112,0,0,0,3.027-3.845c-.945-3.808-2.983-9.562-7.114-13.054C1399.785,499.954,1390.649,508.238,1390.649,508.238Z" fill="#0b3563"/>
          <path id="Trazado_65819" data-name="Trazado 65819" d="M1357.781,502.715s-1.314,19.281-5.046,19.557c-.5.037-18.92.037-18.92.037h-23.764s.436-5.8,7.317-7,18.418-6.029,22.638-15.115C1344.446,490.634,1357.781,502.715,1357.781,502.715Z" fill="#0b3563"/>
          <g id="Grupo_31309" data-name="Grupo 31309">
            <path id="Trazado_65820" data-name="Trazado 65820" d="M1368.465,383.607c-.9,10.711-1.056,19.165.017,23.174,4.795,17.932-9.444,98.9-9.444,98.9-10.162,4.846-24.521-.052-24.521-.052.943-11.216-3.775-111.623-8.362-172.877-1.919-25.716-3.367-43.709-3.367-43.709l60.737-7.067S1371.567,346.406,1368.465,383.607Z" fill="#2a3967"/>
            <path id="Trazado_65821" data-name="Trazado 65821" d="M1383.525,281.979s-11.958,64.427-15.06,101.628l-42.31-50.852c-1.919-25.716-3.367-43.709-3.367-43.709Z" fill="#2a3967"/>
          </g>
          <path id="Trazado_65822" data-name="Trazado 65822" d="M1353.668,295.719s29.628,178.9,34.7,213.538a38.832,38.832,0,0,0,23.266-1.765s2.029-83.131-1.84-108.173,2.77-102.457-3.668-109.658S1353.668,295.719,1353.668,295.719Z" fill="#2a3967"/>
          <path id="Trazado_65823" data-name="Trazado 65823" d="M1357.767,143.166s-2.455,15.9-1.452,20.647,16.783,7.33,23.414,3.407,4.5-7.421,4.5-7.421-.746-16.161-1.665-17.459S1357.767,143.166,1357.767,143.166Z" fill="#ffae73"/>
          <path id="Trazado_65824" data-name="Trazado 65824" d="M1318.113,297.556s9.786,8.495,39.61,8.495c16.321,0,28.089-1.431,36.282-3.04a93.884,93.884,0,0,0,9.27-2.28,32.956,32.956,0,0,0,6.365-2.5c2.5-.044-2.415-51.153-1.657-58.039,2.129-19.182,1.816-33.76.1-44.892a13.609,13.609,0,0,0-.215-1.432c-5.565-33.178-23.623-34.3-23.624-34.072-.027,4.471-9.666,8.585-17.4,8.093-6.525-.447-10.743-5.41-10.726-8.093a54.694,54.694,0,0,0-5.416.8c-16.517,2.862-26.28,27.366-26.481,60.1C1324,256.106,1316.5,297.556,1318.113,297.556Z" fill="#163161"/>
          <path id="Trazado_65825" data-name="Trazado 65825" d="M1357.506,144.957s6.073,8.636,12.551,8.713,13.143-8.577,13.143-8.577Z" fill="#f48f4e"/>
          <path id="Trazado_65826" data-name="Trazado 65826" d="M1356.916,144.528a41.25,41.25,0,0,0,8.559,4.4,10.6,10.6,0,0,0,7.342.155c3.583-1.232,9.007-3.159,10.383-3.986,3.257-1.967,3.072-5.947,3.272-11.482.24-6.55.931-11.695.223-15.471-.842-4.518-3.69-7.087-11.7-7.786-14.713-1.277-20.868,2.409-21.155,7.344-.075,1.326-.144,2.589-.194,3.786C1352.958,136.875,1354.141,142.333,1356.916,144.528Z" fill="#ffae73"/>
          <path id="Trazado_65827" data-name="Trazado 65827" d="M1353.736,119.517a6.217,6.217,0,0,1,6.953-2.16c4.522,1.393,4.963,5.265,12.71,4.645s9.627-4.283,11.01-2.451,2.122,12.657,2.122,12.657,15.784-35.5-15.768-35.5c0,0-32.5-1.963-17.1,34.118Z" fill="#2a3967"/>
          <path id="Trazado_65828" data-name="Trazado 65828" d="M1384.232,159.776s25.376,2.735,30.27,11.355c7.054,12.426,41.668,53.307,41.5,80.975,0,0-28.578,1.193-35.884-10.908C1413.2,229.739,1389.123,208.921,1384.232,159.776Z" fill="#163161"/>
          <path id="Trazado_65829" data-name="Trazado 65829" d="M1296.2,153.135l.042.024C1296.2,153.177,1296.2,153.135,1296.2,153.135Z" fill="#ffae73"/>
          <path id="Trazado_65830" data-name="Trazado 65830" d="M1279.5,102.418c-.26-.591-.446-.976-.446-.976A3.115,3.115,0,0,1,1279.5,102.418Z" fill="#e25310"/>
          <path id="Trazado_65831" data-name="Trazado 65831" d="M1375.229,166.866a51.592,51.592,0,0,0-13.711-.492s1.232,6.868,3.343,7.427,6.12.093,6.959,0S1375.229,166.866,1375.229,166.866Z" fill="#ca3139"/>
          <path id="Trazado_65832" data-name="Trazado 65832" d="M1371.82,173.8s2.3,96.6-2.213,102.75-8.813,8.073-8.813,8.073-6.357-5.837-7.005-8.631S1364.861,173.8,1364.861,173.8Z" fill="#ca3139"/>
          <path id="Trazado_65833" data-name="Trazado 65833" d="M1438.706,232.722s-19.2,3.429-49.544,17.4c0,0-4.3,7.024-.592,14.2,0,0,53.83-1.216,64.141-7S1446.552,233.308,1438.706,232.722Z" fill="#163161"/>
          <path id="Trazado_65834" data-name="Trazado 65834" d="M1297.308,234.28s19.2,3.429,49.544,17.4c0,0,4.3,7.025.592,14.2,0,0-53.83-1.217-64.141-7S1289.463,234.866,1297.308,234.28Z" fill="#163161"/>
          <path id="Trazado_65835" data-name="Trazado 65835" d="M1375.229,166.866s7.941-11.323,9.025-10.578,2.862,3.245,2.52,3.951-12.343,8.65-12.343,8.65Z" fill="#ca3139"/>
          <path id="Trazado_65836" data-name="Trazado 65836" d="M1361.518,166.374s-5.139-11.28-5.386-10.846-2.949,3.548-2.871,4.332,6.258,7.146,8.491,7.633S1361.518,166.374,1361.518,166.374Z" fill="#ca3139"/>
          <path id="Trazado_65837" data-name="Trazado 65837" d="M1400,261.283l5.331-43.442h-63.965l4,43.442Z" fill="#fff"/>
          <path id="Trazado_65838" data-name="Trazado 65838" d="M1406.832,244.13c-.283-.343-3.846-7.159-9.677-7.464-4.676-.246-6.554,2.542-4.229,5.43,2.961,3.679,3.376,9.253,8.41,11.549C1402.71,254.271,1410.952,249.115,1406.832,244.13Z" fill="#ffae73"/>
          <path id="Trazado_65839" data-name="Trazado 65839" d="M1337.52,244.13c.283-.343,3.846-7.159,9.678-7.464,4.675-.246,6.553,2.542,4.229,5.43-2.961,3.679-3.376,9.253-8.411,11.549C1341.642,254.271,1333.4,249.115,1337.52,244.13Z" fill="#ffae73"/>
        </g>
        <g id="Grupo_31311" data-name="Grupo 31311">
          <path id="Trazado_65840" data-name="Trazado 65840" d="M1506.345,238.4s-8.188-5.314-10.9-4.83-13.794,3.739-15.317,5.551c-2.375,2.827-6.568,7.317-4.18,7.794s23.473,1.534,25.9,1.326S1509.947,245.662,1506.345,238.4Z" fill="#f59a5f"/>
          <path id="Trazado_65841" data-name="Trazado 65841" d="M1571.039,155.245l-9,94.593s10.221,10.913,50.683,14.655c1.008.1,2.033.193,3.085.275,23.223,1.875,31.843-28.085,34.858-56.049a300.222,300.222,0,0,0,1.07-46.247C1597.522,139.645,1571.039,155.245,1571.039,155.245Z" fill="#163161"/>
          <path id="Trazado_65842" data-name="Trazado 65842" d="M1505.846,247.267c11.912,2.619,32.706-9.925,37.294-11.246,2.353-.68,12.2-9.354,22.109-20.025l.009-.007c9.376-10.093,18.829-21.974,22.018-30.524a52.314,52.314,0,0,0,.92-33.169s-12.188-.051-17.157,2.949-33.379,55.329-37.177,56.71-25.876,21.9-31.028,24.347C1502.834,236.3,1503.233,246.692,1505.846,247.267Z" fill="#163161"/>
          <path id="Trazado_65843" data-name="Trazado 65843" d="M1599.226,152.18l.012,2.958s-.82,9.249,10.569,10.618,20.026-3.577,19.729-10.716c-1.018-5.529-2.138-9.326-2.207-13.9a32.108,32.108,0,0,1,.413-5.538l-22.073-.475-6.5,1.052Z" fill="#f59a5f"/>
          <path id="Trazado_65844" data-name="Trazado 65844" d="M1599.167,136.179l.059,16a18.673,18.673,0,0,0,7.954,1.767c10.144.016,20.242-16.31,20.562-18.345Z" fill="#e3884d"/>
          <path id="Trazado_65845" data-name="Trazado 65845" d="M1597.866,143.952s28.261,5.754,31.574-11.9,9.191-28.8-8.713-33.222-22.684,1.656-25.223,7.28S1590.6,142,1597.866,143.952Z" fill="#f59a5f"/>
          <path id="Trazado_65846" data-name="Trazado 65846" d="M1590.028,92.981a59.282,59.282,0,0,0,17.189-4.623c7.552-3.27,17.067.358,20.156,1.992a4.614,4.614,0,0,0-.751-1.861,4.147,4.147,0,0,1,1.588,2.362c.143.105.207.178.17.2a5.323,5.323,0,0,1,2.584.171s-.708-.1-.961.353a.435.435,0,0,1-.114.125c11.764,5.706,12.823,24.313,9.028,28.612-4.566,5.173-10.049,16.828-10.049,16.828a10,10,0,0,1-1.154-7.315c.836-4.556-3.1-4.562-8.069-6.642s-.817-7.874-5.162-11.4-20.3-1.481-20.09-4.174C1588.475,105.442,1590.027,93.587,1590.028,92.981Z" fill="#1e3865"/>
          <path id="Trazado_65847" data-name="Trazado 65847" d="M1612.724,264.493c1.008.1,2.033.193,3.085.275,23.223,1.875,31.843-28.085,34.858-56.049C1647.861,210.1,1609.79,229.476,1612.724,264.493Z" fill="#10294f"/>
          <path id="Trazado_65848" data-name="Trazado 65848" d="M1633.323,238.4s-8.188-5.314-10.9-4.83-13.8,3.739-15.318,5.551c-2.375,2.827-6.568,7.317-4.179,7.794s23.472,1.534,25.9,1.326S1636.925,245.662,1633.323,238.4Z" fill="#f59a5f"/>
          <path id="Trazado_65849" data-name="Trazado 65849" d="M1641.794,159.2s17.091,3.825,25.648,13.652c7.778,8.932,30.306,52.542,36.507,68.229.987,2.5-1.792,7.934-4.029,9.423-5.6,3.727-17.128,6.433-45.651,1.727l-25.5-3.718s-1.861-11.452,3.682-13.841l41.288-.573s-23.649-24.475-28.218-31.512S1641.794,159.2,1641.794,159.2Z" fill="#163161"/>
          <path id="Trazado_65850" data-name="Trazado 65850" d="M1624.151,157.507l-14.889,4.1-10.095-8.091,1.685,41.464,10.807-8.628Z" fill="#fff"/>
          <path id="Trazado_65851" data-name="Trazado 65851" d="M1615.7,159.431s-11.29-2.741-13-1.193,1.194,8.633,2.484,9.141a16.376,16.376,0,0,0,4.845.781C1611,168.119,1617.642,161.327,1615.7,159.431Z" fill="#ca3139"/>
          <path id="Trazado_65852" data-name="Trazado 65852" d="M1600.852,194.975l-3.041,4.992,7.6-4.992c.591-3.623,1.174-7.1,1.723-10.3,1.63-9.587,2.9-16.522,2.9-16.522l-4.84-.776a75.4,75.4,0,0,0-5,12.517c-.938,2.965-1.841,6.166-2.7,9.511Z" fill="#ca3139"/>
          <path id="Trazado_65853" data-name="Trazado 65853" d="M1597.811,199.967l7.6-4.992,21.006-13.8-.211-4.5,3.336-1.554,5.8-18.7-6.875-6.7-21.336,34.96-6.284,10.3Z" fill="#10294f"/>
          <path id="Trazado_65854" data-name="Trazado 65854" d="M1589.846,176.739l7.644,12.67,3.362,5.566-.659-15.077-1.031-23.743v-8.624s-5.71,1.546-6.157,3.8-2.551,21.539-2.551,21.539l2.07,1.968Z" fill="#10294f"/>
        </g>
        <g id="Grupo_31312" data-name="Grupo 31312">
          <rect id="Rectángulo_6408" data-name="Rectángulo 6408" width="700.034" height="297.711" transform="translate(1958.857 563.417) rotate(-180)" fill="#7798f8"/>
          <rect id="Rectángulo_6409" data-name="Rectángulo 6409" width="739.879" height="17.715" transform="translate(1983.539 265.706) rotate(-180)" fill="#153d74"/>
          <path id="Trazado_65855" data-name="Trazado 65855" d="M1525.956,544.563h169.7a21.4,21.4,0,0,1,21.4-21.4V300.477a21.4,21.4,0,0,1-21.4-21.4h-169.7a21.4,21.4,0,0,1-21.4,21.4V523.162A21.4,21.4,0,0,1,1525.956,544.563Z" fill="#a8ccff" opacity="0.5"/>
          <path id="Trazado_65856" data-name="Trazado 65856" d="M1751.9,544.563h169.7a21.4,21.4,0,0,1,21.4-21.4V300.477a21.4,21.4,0,0,1-21.4-21.4H1751.9a21.4,21.4,0,0,1-21.4,21.4V523.162A21.4,21.4,0,0,1,1751.9,544.563Z" fill="#a8ccff" opacity="0.5"/>
          <path id="Trazado_65857" data-name="Trazado 65857" d="M1773.731,510.409h126.038a15.894,15.894,0,0,1,15.895-15.895V329.125a15.894,15.894,0,0,1-15.895-15.895H1773.731a15.894,15.894,0,0,1-15.894,15.895V494.514A15.894,15.894,0,0,1,1773.731,510.409Z" fill="#a8ccff" opacity="0.5"/>
          <path id="Trazado_65858" data-name="Trazado 65858" d="M1548.64,510.409h126.038a15.894,15.894,0,0,1,15.894-15.895V329.125a15.894,15.894,0,0,1-15.894-15.895H1548.64a15.9,15.9,0,0,1-15.9,15.895V494.514A15.9,15.9,0,0,1,1548.64,510.409Z" fill="#a8ccff" opacity="0.5"/>
          <path id="Trazado_65859" data-name="Trazado 65859" d="M1316.589,510.409h126.038a15.9,15.9,0,0,1,15.9-15.895V329.125a15.9,15.9,0,0,1-15.9-15.895H1316.589a15.894,15.894,0,0,1-15.894,15.895V494.514A15.894,15.894,0,0,1,1316.589,510.409Z" fill="#a8ccff" opacity="0.5"/>
          <path id="Trazado_65860" data-name="Trazado 65860" d="M1294.757,544.563h169.7a21.4,21.4,0,0,1,21.4-21.4V300.477a21.4,21.4,0,0,1-21.4-21.4h-169.7a21.4,21.4,0,0,1-21.4,21.4V523.162A21.4,21.4,0,0,1,1294.757,544.563Z" fill="#a8ccff" opacity="0.5"/>
        </g>
      </g>
      <g id="Grupo_31314" data-name="Grupo 31314" transform="translate(102.643)">
        <path id="Trazado_65861" data-name="Trazado 65861" d="M1099.62,486.973l8.167,34.4,12.233-.07.449-34.328Z" fill="#ffae73"/>
        <path id="Trazado_65862" data-name="Trazado 65862" d="M1154.294,67.157c3.2-13.157-1.439-19.284-5.622-22.546-1.985-4.843-4.25-8.334-6.565-9.649-4.223-2.4-9.284-2.663-12.824-2.454a5.993,5.993,0,0,1,2.705-1.283c-2.2-.327-7.1,1.85-7.1,1.85-30.535-11.765-35.334,33.194-34.692,43.639s.552,22.746-15.334,30.975c-30.31,15.7,10.074,74.876,10.074,74.876-.771-8.441,38.175-52.984,58.493-66.324,4.947-7.282,6.7-20.146,6.836-21.158-.854,10.2-2.6,15.921-4.158,19.142C1155.372,105.7,1156.744,85.235,1154.294,67.157Z" fill="#b53c37"/>
        <path id="Trazado_65863" data-name="Trazado 65863" d="M1202.522,488.439l23.237,32.931,9.057-11.629-13.986-25.83Z" fill="#ffae73"/>
        <path id="Trazado_65864" data-name="Trazado 65864" d="M1142.231,116.9c.1.045-9.81,5.192-17.266,3.153-7.013-1.913-11.595-11.006-11.5-11.026,2.97-.59,3.826-4.672,3.763-22.21l1.343.264,22.576,4.471s-.514,7.105-.529,13.8C1140.6,110.974,1140.945,116.3,1142.231,116.9Z" fill="#ffae73"/>
        <path id="Trazado_65865" data-name="Trazado 65865" d="M1141.148,91.557s-.514,7.105-.529,13.8c-12.633-.356-19.31-11.881-22.047-18.269Z" fill="#f9924f"/>
        <path id="Trazado_65866" data-name="Trazado 65866" d="M1231.13,500.714l-11.967.366-12.954.4s-29.92-33.312-46.7-86.713q-.588-1.861-1.242-3.769c-9.185-26.781-28.226-60.4-38.26-90.827-1.6-4.847-3.031-9.408-4.318-13.727-.412-1.383-.814-2.741-1.2-4.078-7.395-25.694-9.536-42.563-11.509-60.587l72.457.579S1187.138,365.432,1231.13,500.714Z" fill="#214d9a"/>
        <path id="Trazado_65867" data-name="Trazado 65867" d="M1165.3,200.721c-.182,34.479,5.058,49.272,5.058,49.272s-31.023,15.762-67.9,4.159c-.434-.136-30.53-7-30.53-7,.617-1.4,6.1-24.632,6.706-25.912,7.784-16.718,13.695-24.048,14.619-29.188a109.289,109.289,0,0,0,.9-28.887,231.8,231.8,0,0,0-8.94-45.365c10.046-2.286,19.611-6.114,30.068-10.035,2.405,2.995,9.6,5.941,15.979,5.8,7.345-.161,9.726-3.306,9.345-6.739,7.828,4.356,14.072,8.47,14.072,8.47,6.653,11.555,20.144,22.776,21.121,40.5C1176.037,160.147,1165.3,199.755,1165.3,200.721Z" fill="#e4f0fd"/>
        <path id="Trazado_65868" data-name="Trazado 65868" d="M1102.982,204.564c-3.167,4.483-9.24,31.73-24.347,35.154,7.784-19.418,13.695-27.933,14.619-33.9a147.244,147.244,0,0,0,.9-33.555c5.058-8.864,8.832-14.942,8.832-14.942.4-1.433,8.037-25.056,10.485-3.94S1106.52,199.549,1102.982,204.564Z" fill="#4b9ba9"/>
        <path id="Trazado_65869" data-name="Trazado 65869" d="M1145.367,97.895s-29.89.493-29.91-18.126-3.893-31.094,15.191-32.2,22.8,6,24.317,12.211S1153.142,97.286,1145.367,97.895Z" fill="#ffae73"/>
        <path id="Trazado_65870" data-name="Trazado 65870" d="M1144.261,47.117s-8.184,21.843-20.744,25.073-18.007-.136-18.007-.136a35.565,35.565,0,0,0,11.633-21.012S1138.088,36.72,1144.261,47.117Z" fill="#b53c37"/>
        <path id="Trazado_65871" data-name="Trazado 65871" d="M1142.233,48.89s6.111,4.877,7.6,9.618,2.161,14.5,5.005,14.169c0,0,6.166-14.847-.763-23.245C1146.729,40.526,1142.233,48.89,1142.233,48.89Z" fill="#b53c37"/>
        <path id="Trazado_65872" data-name="Trazado 65872" d="M1107.376,519.448a33.134,33.134,0,0,1-1.557,14.1s-2,9.123,6.982,9.292,11.189-.677,10.172-6.272-2.952-15.269-2.952-15.269Z" fill="#ffae73"/>
        <path id="Trazado_65873" data-name="Trazado 65873" d="M1105.819,533.55s-1.692,10.912-.675,15.489c0,0,2.652.177,9.179.177,6.188,0,9.5-.177,9.5-.177s.19-11.738-1.462-15.722C1122.359,533.317,1115.991,542.874,1105.819,533.55Z" fill="#153d74"/>
        <path id="Trazado_65874" data-name="Trazado 65874" d="M1192.4,224.653l14.117,43.041-8.052,3.229L1175.121,232.9Z" fill="#ffae73"/>
        <path id="Trazado_65875" data-name="Trazado 65875" d="M1154.335,112.753s16.646,6.606,21.464,16.9,12.113,79.377,15.018,86.471,5.089,12.711,5.089,12.711-8.393,7.072-16.833,7.592S1154.335,112.753,1154.335,112.753Z" fill="#ff912b"/>
        <path id="Trazado_65876" data-name="Trazado 65876" d="M1256.467,537.483s-16.564-18.386-21.65-27.742l-12.317,6.311,27.533,25.858,6.442-.848Z" fill="#ffae73"/>
        <path id="Trazado_65877" data-name="Trazado 65877" d="M1267.127,549.039s-18.036.341-21.088,0-5.409-5.864-8.714-12.476c-1.353-2.706-4.389-4.2-7.5-5.015l.147,17.491h-4.577l-4.724-18.452c-2.935-5.391-.708-10.252,1.357-14.508,2.4-.006,9.333,1.61,21.57,15.4,4.022,4.526,8.462,6.144,12.871,6.006a1.017,1.017,0,0,0,.184.1C1266.822,542.157,1267.127,549.039,1267.127,549.039Z" fill="#153d74"/>
        <path id="Trazado_65878" data-name="Trazado 65878" d="M1140.6,106.818s17.294,42.722,17.8,51.368,2.034,141.385,2.034,141.385-1.017,6.1,10.681,3.561,14.748-5.086,14.748-5.086-11.188-81.882-8.137-110.362-23.4-74.931-23.4-74.931Z" fill="#ff912b"/>
        <path id="Trazado_65879" data-name="Trazado 65879" d="M1219.163,501.08l-12.954.4s-29.92-33.312-46.7-86.713q-.588-1.861-1.242-3.769c-9.185-26.781-28.226-60.4-38.26-90.827-1.6-4.847-3.031-9.408-4.318-13.727-.412-1.383-.814-2.741-1.2-4.078l10.67-8.1s32.035,51.876,41.953,100.694C1175.73,437.365,1210.232,488.391,1219.163,501.08Z" fill="#153d74"/>
        <path id="Trazado_65880" data-name="Trazado 65880" d="M1126.276,399.507c.183,23.74-1.017,78.321-4.11,100.917h-11.473c-6.342,0-9.506-.091-9.506-.091-7.755-39.288-13.273-71.8-17.291-99.809-3.3-22.988-6.225-42.7-8.479-59.662-2.268-17.073-3.844-31.369-4.409-43.448q-.131-2.853-.188-5.548t-.031-5.264l62.607-6.1C1132.608,322.1,1126.174,385.709,1126.276,399.507Z" fill="#214d9a"/>
        <path id="Trazado_65881" data-name="Trazado 65881" d="M1110.693,500.424c-6.342,0-9.506-.091-9.506-.091-7.755-39.288-13.273-71.8-17.291-99.809-3.3-22.988-6.225-42.7-8.479-59.662-2.268-17.073-3.844-31.369-4.409-43.448l22.973,13.513s-14.663,5.172-9.068,44.333S1102.906,494.881,1110.693,500.424Z" fill="#153d74"/>
        <path id="Trazado_65882" data-name="Trazado 65882" d="M1113.649,297.029s-4.409,15.933-19.667,13.9-36.953-11.189-36.953-11.189,6.52-20.6,14.626-47.669c9.816-32.768,21.967-75.011,27.693-101.655a164.826,164.826,0,0,0,3.112-18.167l12.818-24.488s18.714,42.289,19.732,52.969S1113.649,297.029,1113.649,297.029Z" fill="#ff912b"/>
        <path id="Trazado_65883" data-name="Trazado 65883" d="M1098.414,159.137l16.864-51.377c-.045.021-21.257,6.194-31.849,11.545,0,0-6.62,8.535-10.716,28.225,0,0-4.327,47.274,5.336,64.565,0,0,30.514,6.1,79.338-10.68V190.226s-53.4,2.8-64.335,4.069Z" fill="#ffae73"/>
        <path id="Trazado_65884" data-name="Trazado 65884" d="M1112.973,183.107c-.682,17.291-4.751,50.858-41.028,68.826-.1.045-.193.1-.29.137,9.816-32.768,21.967-75.011,27.693-101.655C1106.01,160.373,1113.344,173.586,1112.973,183.107Z" fill="#fc7600"/>
        <path id="Trazado_65885" data-name="Trazado 65885" d="M1115.278,107.76s-31.126,2.111-38.586,18.725-9.832,71.879-.339,88.154c0,0,13.07,3.722,36.188-.6.283-.053.567-.107.854-.163,0,0,7.375-18.054.763-21.614,0,0-19.5,1.017-17.462-5.425S1115.278,107.76,1115.278,107.76Z" fill="#ff912b"/>
        <path id="Trazado_65886" data-name="Trazado 65886" d="M1204.509,266.516s12.891,7.125,14.588,12.553.531,16.792-1.516,16.623-5.1-12.213-6.8-13.061-4.07-3.391-4.07-1.526,1.7,5.257.847,5.766-3.561-4.747-5.427-5.766-2.65-9.406-4.463-11.658S1204.509,266.516,1204.509,266.516Z" fill="#ffae73"/>
        <path id="Trazado_65887" data-name="Trazado 65887" d="M1153.564,236.7h52.181l22.328-80.009h-52.181Z" fill="#fff"/>
        <path id="Trazado_65888" data-name="Trazado 65888" d="M1157.387,190.226s11.529-7.1,16.365-6.008,17.162,10.02,11.233,11.953-10.729-.1-13.009,1.309-3.963,3.97-14.589,3.935S1157.387,190.226,1157.387,190.226Z" fill="#ffae73"/>
      </g>
      <g id="Grupo_31317" data-name="Grupo 31317" transform="translate(62.615 258.649)" opacity="0.71">
        <path id="Trazado_65889" data-name="Trazado 65889" d="M-35.667,100.47-45.234,80.8c-6.812-14.716-1.1-31.845,12.75-38.257h0c34.911-16.16,77.128.8,94.3,37.888l12.55,27.113a34.377,34.377,0,0,0,28.226,20.164c10.577.811,20.063,7.826,24.732,17.912l6.617,14.295a57.4,57.4,0,0,1,.136,48.032,34.824,34.824,0,0,0,.266,29.165l9.369,20.238c10.358,22.376,1.679,48.419-19.385,58.169L112.3,321.086c-21.064,9.75-46.536-.484-56.893-22.86h0c-9.625-29.864-25.556-42.3-39.538-47.144a81.814,81.814,0,0,1-47.247-42.953l-1.324-2.86a81.248,81.248,0,0,1-.661-66.944C-29.261,129.081-28.2,116.6-35.667,100.47Z" transform="translate(-25.093 -172.846)" fill="#96d9c9"/>
        <path id="Trazado_65890" data-name="Trazado 65890" d="M262.323,381.962s-69.518-92.342-113.266-106.5-2.515,42.087-2.515,42.087S71.013,214.5,42.533,222.146C16.428,229.159,27.059,281.2,27.059,281.2s-16.006-10.38-51.662-10.38S2.957,379.887,2.957,379.887Z" transform="translate(-28.836 -227.885)" fill="#50bfa5"/>
        <path id="Trazado_65891" data-name="Trazado 65891" d="M65.482,414.481s-34.1-91.2-76.339-80.655c-34.226,8.547-9.892,54.436-11.979,52.349s-20.444-33.233-50.145-33.233,9.117,42.037,9.117,42.037-63.283-19.763-68.238.99c-4.112,17.224,18.888,18.512,18.888,18.512Z" transform="translate(0 -260.924)" fill="#3c8f7c"/>
        <g id="Grupo_31317-2" data-name="Grupo 31317" transform="translate(188.478 53.316)">
          <path id="Trazado_65892" data-name="Trazado 65892" d="M425.9,390.194a33.908,33.908,0,0,0,.474-5.651c0-21.4-20.06-38.756-44.806-38.756s-44.806,17.352-44.806,38.756a33.911,33.911,0,0,0,.473,5.651Z" transform="translate(-327.883 -318.045)" fill="#3c8f7c"/>
          <path id="Trazado_65893" data-name="Trazado 65893" d="M498.032,368.947a67.026,67.026,0,0,0,.473-7.968c0-30.186-20.06-54.656-44.806-54.656s-44.806,24.47-44.806,54.656a66.877,66.877,0,0,0,.474,7.968Z" transform="translate(-349.307 -306.323)" fill="#50bfa5"/>
          <path id="Trazado_65894" data-name="Trazado 65894" d="M512.156,424.288a33.918,33.918,0,0,1-.474-5.651c0-21.4,20.061-38.756,44.806-38.756s44.806,17.352,44.806,38.756a33.918,33.918,0,0,1-.473,5.651Z" transform="translate(-379.837 -328.171)" fill="#50bfa5"/>
          <path id="Trazado_65895" data-name="Trazado 65895" d="M410.1,416.591a53.135,53.135,0,0,1-.6-7.968c0-30.186,25.431-54.656,56.8-54.656s56.8,24.47,56.8,54.656a53.131,53.131,0,0,1-.6,7.968Z" transform="translate(-349.486 -320.474)" fill="#3c8f7c"/>
          <path id="Trazado_65896" data-name="Trazado 65896" d="M428.355,353.966c-15.679,0-29.685,7.764-38.929,19.939a64.468,64.468,0,0,0-14.893-1.72c-27.835,0-50.4,17.352-50.4,38.756a30.266,30.266,0,0,0,.533,5.651H478.222a59.613,59.613,0,0,0,.532-7.968C478.755,378.436,456.19,353.966,428.355,353.966Z" transform="translate(-324.132 -320.474)" fill="#50bfa5"/>
        </g>
        <g id="Grupo_31348" data-name="Grupo 31348" transform="translate(-12.628 -75.96)">
          <g id="Grupo_31326" data-name="Grupo 31326" transform="translate(78.111)">
            <g id="Grupo_31318" data-name="Grupo 31318" transform="translate(16.591 14.316)">
              <path id="Trazado_65897" data-name="Trazado 65897" d="M189.168,238.745c-13.189-20.607-15.651-45.491-15.393-62.737a161.137,161.137,0,0,1,3.77-32.88l-.954-.336a162.27,162.27,0,0,0-3.8,33.109c-.263,17.415,2.226,42.555,15.578,63.418Z" transform="translate(-172.77 -142.792)" fill="#3c8f7c"/>
            </g>
            <g id="Grupo_31319" data-name="Grupo 31319" transform="translate(16.385)">
              <path id="Trazado_65898" data-name="Trazado 65898" d="M180.706,133.655a14.069,14.069,0,0,1-4.9,9.97,16.32,16.32,0,0,1-3.279-11.227,14.07,14.07,0,0,1,4.9-9.97A16.316,16.316,0,0,1,180.706,133.655Z" transform="translate(-172.478 -122.428)" fill="#3c8f7c"/>
            </g>
            <g id="Grupo_31320" data-name="Grupo 31320" transform="translate(6.448 14.126)">
              <path id="Trazado_65899" data-name="Trazado 65899" d="M167.594,149.4a16.229,16.229,0,0,1,2.214,11.464,14.817,14.817,0,0,1-8.98-6.881,16.232,16.232,0,0,1-2.214-11.464A14.818,14.818,0,0,1,167.594,149.4Z" transform="translate(-158.343 -142.522)" fill="#3c8f7c"/>
            </g>
            <g id="Grupo_31321" data-name="Grupo 31321" transform="translate(0 30.194)">
              <path id="Trazado_65900" data-name="Trazado 65900" d="M159.819,167.7a15.9,15.9,0,0,1,6.735,9.43,13.04,13.04,0,0,1-10.649-1.887,15.9,15.9,0,0,1-6.735-9.43A13.04,13.04,0,0,1,159.819,167.7Z" transform="translate(-149.17 -165.38)" fill="#3c8f7c"/>
            </g>
            <g id="Grupo_31322" data-name="Grupo 31322" transform="translate(3.364 47.025)">
              <path id="Trazado_65901" data-name="Trazado 65901" d="M162.8,190.839a11.6,11.6,0,0,1,4.921,8.263,9.26,9.26,0,0,1-8.842-.725,11.6,11.6,0,0,1-4.921-8.262A9.266,9.266,0,0,1,162.8,190.839Z" transform="translate(-153.955 -189.322)" fill="#3c8f7c"/>
            </g>
            <g id="Grupo_31323" data-name="Grupo 31323" transform="translate(17.617 28.196)">
              <path id="Trazado_65902" data-name="Trazado 65902" d="M180.186,163.895a11.209,11.209,0,0,1,9.516-.552,11.95,11.95,0,0,1-5.956,7.72,11.208,11.208,0,0,1-9.516.552A11.953,11.953,0,0,1,180.186,163.895Z" transform="translate(-174.23 -162.537)" fill="#3c8f7c"/>
            </g>
            <g id="Grupo_31324" data-name="Grupo 31324" transform="translate(17.275 39.265)">
              <path id="Trazado_65903" data-name="Trazado 65903" d="M179.7,179.64a11.211,11.211,0,0,1,9.516-.552,11.957,11.957,0,0,1-5.956,7.721,11.214,11.214,0,0,1-9.516.552A11.956,11.956,0,0,1,179.7,179.64Z" transform="translate(-173.744 -178.282)" fill="#3c8f7c"/>
            </g>
            <g id="Grupo_31325" data-name="Grupo 31325" transform="translate(9.826 66.01)">
              <path id="Trazado_65904" data-name="Trazado 65904" d="M167.518,216.467a6.017,6.017,0,0,1,3.81,2.922,4.97,4.97,0,0,1-4.371,1.009,6.017,6.017,0,0,1-3.809-2.922A4.97,4.97,0,0,1,167.518,216.467Z" transform="translate(-163.148 -216.327)" fill="#3c8f7c"/>
            </g>
          </g>
          <g id="Grupo_31335" data-name="Grupo 31335" transform="translate(0 26.647)">
            <g id="Grupo_31327" data-name="Grupo 31327" transform="translate(13.811 14.58)">
              <path id="Trazado_65905" data-name="Trazado 65905" d="M149.553,264.675c-30.186-7.217-53.207-29.544-67.2-47a200.487,200.487,0,0,1-23.416-36.6l-1.23.628a201.9,201.9,0,0,0,23.573,36.86c14.132,17.634,37.393,40.188,67.952,47.494Z" transform="translate(-57.703 -181.073)" fill="#3c8f7c"/>
            </g>
            <g id="Grupo_31328" data-name="Grupo 31328" transform="translate(2.598)">
              <path id="Trazado_65906" data-name="Trazado 65906" d="M54.6,168.215a19.946,19.946,0,0,1,3.355,14.9,18.309,18.309,0,0,1-12.549-7.881,19.949,19.949,0,0,1-3.354-14.9A18.31,18.31,0,0,1,54.6,168.215Z" transform="translate(-41.752 -160.333)" fill="#3c8f7c"/>
            </g>
            <g id="Grupo_31329" data-name="Grupo 31329" transform="translate(0 26.007)">
              <path id="Trazado_65907" data-name="Trazado 65907" d="M52.7,197.966a18.5,18.5,0,0,1,11.683,9.194,18.286,18.286,0,0,1-14.642,2.216,18.5,18.5,0,0,1-11.684-9.194A18.294,18.294,0,0,1,52.7,197.966Z" transform="translate(-38.057 -197.329)" fill="#3c8f7c"/>
            </g>
            <g id="Grupo_31330" data-name="Grupo 31330" transform="translate(6.94 42.71)">
              <path id="Trazado_65908" data-name="Trazado 65908" d="M60.107,221.605A18.042,18.042,0,0,1,74.618,224.2a19.23,19.23,0,0,1-12.178,8.882,18.045,18.045,0,0,1-14.511-2.595A19.23,19.23,0,0,1,60.107,221.605Z" transform="translate(-47.929 -221.088)" fill="#3c8f7c"/>
            </g>
            <g id="Grupo_31331" data-name="Grupo 31331" transform="translate(18.967 57.789)">
              <path id="Trazado_65909" data-name="Trazado 65909" d="M77.215,243.054a18.047,18.047,0,0,1,14.51,2.595,19.235,19.235,0,0,1-12.179,8.884,18.047,18.047,0,0,1-14.51-2.6A19.228,19.228,0,0,1,77.215,243.054Z" transform="translate(-65.037 -242.537)" fill="#3c8f7c"/>
            </g>
            <g id="Grupo_31332" data-name="Grupo 31332" transform="translate(27.52 19.802)">
              <path id="Trazado_65910" data-name="Trazado 65910" d="M77.232,201.939a19.58,19.58,0,0,1,4.3-13.438,17.113,17.113,0,0,1,5.645,12.227,19.576,19.576,0,0,1-4.3,13.438A17.11,17.11,0,0,1,77.232,201.939Z" transform="translate(-77.204 -188.501)" fill="#3c8f7c"/>
            </g>
            <g id="Grupo_31333" data-name="Grupo 31333" transform="translate(40.043 35.322)">
              <path id="Trazado_65911" data-name="Trazado 65911" d="M95.064,224.095a19.63,19.63,0,0,1,4.1-13.516,17.045,17.045,0,0,1,5.829,12.119,19.629,19.629,0,0,1-4.1,13.517A17.047,17.047,0,0,1,95.064,224.095Z" transform="translate(-95.018 -210.579)" fill="#3c8f7c"/>
            </g>
            <g id="Grupo_31334" data-name="Grupo 31334" transform="translate(46.931 71.935)">
              <path id="Trazado_65912" data-name="Trazado 65912" d="M108.342,263.906a7.412,7.412,0,0,1,6.214-.937,8.044,8.044,0,0,1-3.525,5.424,7.412,7.412,0,0,1-6.214.938A8.047,8.047,0,0,1,108.342,263.906Z" transform="translate(-104.817 -262.661)" fill="#3c8f7c"/>
            </g>
          </g>
          <g id="Grupo_31346" data-name="Grupo 31346" transform="translate(185.372 22.974)">
            <g id="Grupo_31345" data-name="Grupo 31345">
              <g id="Grupo_31336" data-name="Grupo 31336" transform="translate(0 17.121)">
                <path id="Trazado_65913" data-name="Trazado 65913" d="M301.938,306.834l1.3-.087c-1.879-34.526,10.794-67.012,21.757-88.185a229.6,229.6,0,0,1,24.529-38.112l-.957-.986a231.111,231.111,0,0,0-24.691,38.349C312.823,239.163,300.039,271.938,301.938,306.834Z" transform="translate(-301.749 -179.463)" fill="#3c8f7c"/>
              </g>
              <g id="Grupo_31337" data-name="Grupo 31337" transform="translate(41.62)">
                <path id="Trazado_65914" data-name="Trazado 65914" d="M372.78,171.236c-2.981,5.02-7.258,8.136-11.6,8.99a25.222,25.222,0,0,1,3.309-16.127c2.981-5.019,7.259-8.135,11.6-8.99A25.221,25.221,0,0,1,372.78,171.236Z" transform="translate(-360.954 -155.109)" fill="#3c8f7c"/>
              </g>
              <g id="Grupo_31338" data-name="Grupo 31338" transform="translate(27.156 7.498)">
                <path id="Trazado_65915" data-name="Trazado 65915" d="M350.734,180.417A24.742,24.742,0,0,1,346.1,196.11c-3.294-3.349-5.488-8.579-5.7-14.642a24.749,24.749,0,0,1,4.636-15.693C348.327,169.125,350.521,174.354,350.734,180.417Z" transform="translate(-340.379 -165.775)" fill="#3c8f7c"/>
              </g>
              <g id="Grupo_31339" data-name="Grupo 31339" transform="translate(13.459 23.326)">
                <path id="Trazado_65916" data-name="Trazado 65916" d="M332.226,197.895a24.706,24.706,0,0,1,1.635,16.263c-4.243-1.091-8.188-4.434-10.641-9.6a24.711,24.711,0,0,1-1.636-16.264C325.828,189.383,329.773,192.725,332.226,197.895Z" transform="translate(-320.895 -188.291)" fill="#3c8f7c"/>
              </g>
              <g id="Grupo_31340" data-name="Grupo 31340" transform="translate(11.172 55.797)">
                <path id="Trazado_65917" data-name="Trazado 65917" d="M322.522,238.134a10.326,10.326,0,0,1,1.147,6.757,6.963,6.963,0,0,1-4.732-3.653,10.322,10.322,0,0,1-1.147-6.757A6.965,6.965,0,0,1,322.522,238.134Z" transform="translate(-317.641 -234.481)" fill="#3c8f7c"/>
              </g>
              <g id="Grupo_31341" data-name="Grupo 31341" transform="translate(7.401 65.319)">
                <path id="Trazado_65918" data-name="Trazado 65918" d="M317.158,251.678a10.324,10.324,0,0,1,1.147,6.756,6.958,6.958,0,0,1-4.731-3.653,10.32,10.32,0,0,1-1.148-6.756A6.958,6.958,0,0,1,317.158,251.678Z" transform="translate(-312.277 -248.025)" fill="#3c8f7c"/>
              </g>
              <g id="Grupo_31342" data-name="Grupo 31342" transform="translate(29.575 38.087)">
                <path id="Trazado_65919" data-name="Trazado 65919" d="M355.2,209.289a13.681,13.681,0,0,1,10.894,5.813,14.583,14.583,0,0,1-11.381,5.485,13.678,13.678,0,0,1-10.893-5.814A14.581,14.581,0,0,1,355.2,209.289Z" transform="translate(-343.82 -209.288)" fill="#3c8f7c"/>
              </g>
              <g id="Grupo_31343" data-name="Grupo 31343" transform="translate(22.347 51.546)">
                <path id="Trazado_65920" data-name="Trazado 65920" d="M344.919,228.434a13.68,13.68,0,0,1,10.893,5.814,14.585,14.585,0,0,1-11.381,5.485,13.684,13.684,0,0,1-10.894-5.814A14.586,14.586,0,0,1,344.919,228.434Z" transform="translate(-333.538 -228.433)" fill="#3c8f7c"/>
              </g>
              <g id="Grupo_31344" data-name="Grupo 31344" transform="translate(14.36 69.887)">
                <path id="Trazado_65921" data-name="Trazado 65921" d="M329.583,254.525a8.9,8.9,0,0,1,7.091,3.784,9.492,9.492,0,0,1-7.408,3.57,8.907,8.907,0,0,1-7.09-3.783A9.49,9.49,0,0,1,329.583,254.525Z" transform="translate(-322.176 -254.524)" fill="#3c8f7c"/>
              </g>
            </g>
          </g>
          <path id="Trazado_65922" data-name="Trazado 65922" d="M125.925,365.547c0-5.744,34.707,1.037,37.594-6.8s-29.725-8.28-29.725-18.872,16.619-3.165,26.365-3.165-19.241-4.535-19.241-8.283,10.17-1.784,10.17-5.764-53.407-6.984-47.156-16.728,34.962,2.839,42.846-2.2S104.661,293.2,103.423,285.7s36.843,6.424,42.235,1.032-60.214-24.771-57.466-39.014,49.726,18.242,61.471,14.743-59.222-53.5-42.73-72.976,47.978,64.479,58.723,61.481-13.457-53.054-2.48-61.761,42.481,70.473,44.47,86.732,5.987-34.975,23.229-40.968.5,31.74,3.5,43.234,16.991-29.486,35.858-26.487-34.109,40.481-28.861,51.475,46.155-36.705,58.973-23.887-49.272,48.393-45.876,58.13,40.647-6.95,51.374,3.776-40.018,17.54-46.746,17.54-32.443,8.459-7.329,6.8S125.925,371.293,125.925,365.547Z" transform="translate(-52.923 -141.473)" fill="#3c8f7c"/>
          <g id="Grupo_31347" data-name="Grupo 31347" transform="translate(171.932 165.069)">
            <path id="Trazado_65923" data-name="Trazado 65923" d="M282.631,422.885s41.8,2.239,53.963-5.421,2.564-13.624,2.564-13.624,38.648-.841,38.551-10-9.465-8.629-9.465-8.629,19.508-13.258,15.869-21.522c-5.591-12.7-37.364,9.412-37.364,9.412s10.415-12.369,2-15.26C325.646,349.907,282.631,422.885,282.631,422.885Z" transform="translate(-282.631 -357.239)" fill="#50bfa5"/>
            <path id="Trazado_65924" data-name="Trazado 65924" d="M384.114,366.416c3.639,8.264-15.869,21.522-15.869,21.522s14.08-.187,11.794,8.719c-2.276,8.87-37.675,11.865-37.675,11.865s12.358,2.416.191,10.078-59.923,7.01-59.923,7.01Z" transform="translate(-282.631 -359.965)" fill="#96d9c9"/>
          </g>
        </g>
        <g id="Grupo_31349" data-name="Grupo 31349" transform="translate(-70.906 -545.515)">
          <path id="Trazado_65925" data-name="Trazado 65925" d="M39.176-78.7c.068-2.259,3.187-4.015,4.842-2.011s1.578.648,3.185,4.969A140.267,140.267,0,0,0,66.478-40.85C81.591-20.755,96.553-10.618,113.54-.574c-7-15.771-11.687-32.605-12.285-49.587-.217-6.188-.1-12.607,2.549-18.285.739-1.586,3.58-1.26,3.868.507,1.427,8.763-.673,15.369,2.163,31.052C116.6.536,143.389,40.228,169.227,68.022c-4.955-47.054-7.357-100.53,1.505-147.991,1.453-7.784,3.764-15.189,5.912-22.8.505-1.788,3.048-1.02,2.735.756-.446,2.53-4.669,35.19-4.923,37.441-4.1,36.145-3.278,76.187-.09,112.7A225.8,225.8,0,0,0,214.1-43.9c1.854-9.8,2.349-19.916,4.948-29.534.359-1.324,2.548-1.468,2.82,0,2.671,14.409-2.676,39.9-6.573,53.748a221.231,221.231,0,0,1-37.8,75.7c-.672.874,27.739,220.488,26.975,223.269-1.288,4.69-9.459,7.982-10.726-.34-.516-3.388-16.127-136.922-23.17-198.778-2.661-1.466-4.374-4.075-11.221-11.771C143.5,50.575,127.834,28.412,117.36,7.509c-6.285-.357-51.67-22.44-74.183-72.724-.648-1.449-3.572-8.256-3.99-9.774A11.658,11.658,0,0,1,39.176-78.7Z" transform="translate(19.936 414.314)" fill="#184655"/>
          <path id="Trazado_65926" data-name="Trazado 65926" d="M246.251-238.15q-.775-10.139-.786-20.705c0-78.441,33.293-142.031,74.362-142.031s74.362,63.59,74.362,142.031q0,10.55-.785,20.705Z" transform="translate(-41.382 502.558)" fill="#3c8f7c"/>
          <path id="Trazado_65927" data-name="Trazado 65927" d="M126.537-316.012q-.776-14.3-.786-29.2c0-110.623,33.293-200.3,74.362-200.3s74.362,89.679,74.362,200.3q0,14.879-.786,29.2Z" transform="translate(-5.826 545.515)" fill="#50bfa5"/>
          <path id="Trazado_65928" data-name="Trazado 65928" d="M103.095-113.2q.775-10.14.786-20.706c0-78.441-33.293-142.031-74.362-142.031s-74.362,63.59-74.362,142.031q0,10.55.786,20.706Z" transform="translate(44.843 465.448)" fill="#50bfa5"/>
          <path id="Trazado_65929" data-name="Trazado 65929" d="M255.656-141.412q.983-14.3,1-29.2c0-110.625-42.205-200.3-94.268-200.3s-94.269,89.678-94.269,200.3q0,14.877,1,29.2Z" transform="translate(11.293 493.656)" fill="#3c8f7c"/>
          <path id="Trazado_65930" data-name="Trazado 65930" d="M196.59-370.915c26.02,0,49.266,28.45,64.608,73.068a52.846,52.846,0,0,1,24.716-6.3c46.2,0,83.648,63.59,83.648,142.031q0,10.55-.884,20.706H113.827q-.872-14.3-.884-29.2C112.943-281.237,150.392-370.915,196.59-370.915Z" transform="translate(-2.022 493.656)" fill="#50bfa5"/>
        </g>
      </g>
    </g>
  </g>
  <g id="Grupo_866" data-name="Grupo 866" transform="translate(-1491.663 -1718.181)">
    <ellipse id="Elipse_71" data-name="Elipse 71" cx="2" cy="2.051" rx="2" ry="2.051" transform="translate(1882.663 1997.181)" fill="#ffcc05"/>
    <ellipse id="Elipse_72" data-name="Elipse 72" cx="2" cy="2.051" rx="2" ry="2.051" transform="translate(1894.663 1997.181)" fill="#ffcc05"/>
    <ellipse id="Elipse_73" data-name="Elipse 73" cx="2" cy="2.051" rx="2" ry="2.051" transform="translate(1905.663 1997.181)" fill="#ffcc05"/>
    <ellipse id="Elipse_90" data-name="Elipse 90" cx="2" cy="2.051" rx="2" ry="2.051" transform="translate(1882.663 2009.489)" fill="#ffcc05"/>
    <ellipse id="Elipse_91" data-name="Elipse 91" cx="2" cy="2.051" rx="2" ry="2.051" transform="translate(1894.663 2009.489)" fill="#ffcc05"/>
    <ellipse id="Elipse_92" data-name="Elipse 92" cx="2" cy="2.051" rx="2" ry="2.051" transform="translate(1905.663 2009.489)" fill="#ffcc05"/>
    <ellipse id="Elipse_109" data-name="Elipse 109" cx="2" cy="2.051" rx="2" ry="2.051" transform="translate(1882.663 2021.796)" fill="#ffcc05"/>
    <ellipse id="Elipse_110" data-name="Elipse 110" cx="2" cy="2.051" rx="2" ry="2.051" transform="translate(1894.663 2021.796)" fill="#ffcc05"/>
    <ellipse id="Elipse_111" data-name="Elipse 111" cx="2" cy="2.051" rx="2" ry="2.051" transform="translate(1905.663 2021.796)" fill="#ffcc05"/>
    <ellipse id="Elipse_128" data-name="Elipse 128" cx="2" cy="2.051" rx="2" ry="2.051" transform="translate(1882.663 2033.078)" fill="#ffcc05"/>
    <ellipse id="Elipse_129" data-name="Elipse 129" cx="2" cy="2.051" rx="2" ry="2.051" transform="translate(1894.663 2033.078)" fill="#ffcc05"/>
    <ellipse id="Elipse_130" data-name="Elipse 130" cx="2" cy="2.051" rx="2" ry="2.051" transform="translate(1905.663 2033.078)" fill="#ffcc05"/>
    <ellipse id="Elipse_416" data-name="Elipse 416" cx="2.5" cy="2.051" rx="2.5" ry="2.051" transform="translate(1916.663 1997.181)" fill="#ffcc05"/>
    <ellipse id="Elipse_417" data-name="Elipse 417" cx="2" cy="2.051" rx="2" ry="2.051" transform="translate(1928.663 1997.181)" fill="#ffcc05"/>
    <ellipse id="Elipse_418" data-name="Elipse 418" cx="2" cy="2.051" rx="2" ry="2.051" transform="translate(1940.663 1997.181)" fill="#ffcc05"/>
    <ellipse id="Elipse_419" data-name="Elipse 419" cx="2" cy="2.051" rx="2" ry="2.051" transform="translate(1952.663 1997.181)" fill="#ffcc05"/>
    <ellipse id="Elipse_420" data-name="Elipse 420" cx="2" cy="2.051" rx="2" ry="2.051" transform="translate(1963.663 1997.181)" fill="#ffcc05"/>
    <ellipse id="Elipse_421" data-name="Elipse 421" cx="2.5" cy="2.051" rx="2.5" ry="2.051" transform="translate(1974.663 1997.181)" fill="#ffcc05"/>
    <ellipse id="Elipse_422" data-name="Elipse 422" cx="2" cy="2.051" rx="2" ry="2.051" transform="translate(1986.663 1997.181)" fill="#ffcc05"/>
    <ellipse id="Elipse_423" data-name="Elipse 423" cx="2" cy="2.051" rx="2" ry="2.051" transform="translate(1998.663 1997.181)" fill="#ffcc05"/>
    <ellipse id="Elipse_424" data-name="Elipse 424" cx="2" cy="2.051" rx="2" ry="2.051" transform="translate(2010.663 1997.181)" fill="#ffcc05"/>
    <ellipse id="Elipse_425" data-name="Elipse 425" cx="2" cy="2.051" rx="2" ry="2.051" transform="translate(2021.663 1997.181)" fill="#ffcc05"/>
    <ellipse id="Elipse_426" data-name="Elipse 426" cx="2" cy="2.051" rx="2" ry="2.051" transform="translate(2032.663 1997.181)" fill="#ffcc05"/>
    <ellipse id="Elipse_427" data-name="Elipse 427" cx="2" cy="2.051" rx="2" ry="2.051" transform="translate(2044.663 1997.181)" fill="#ffcc05"/>
    <ellipse id="Elipse_428" data-name="Elipse 428" cx="2" cy="2.051" rx="2" ry="2.051" transform="translate(2056.663 1997.181)" fill="#ffcc05"/>
    <ellipse id="Elipse_429" data-name="Elipse 429" cx="2" cy="2.051" rx="2" ry="2.051" transform="translate(2068.663 1997.181)" fill="#ffcc05"/>
    <ellipse id="Elipse_430" data-name="Elipse 430" cx="2" cy="2.051" rx="2" ry="2.051" transform="translate(2079.663 1997.181)" fill="#ffcc05"/>
    <ellipse id="Elipse_431" data-name="Elipse 431" cx="2" cy="2.051" rx="2" ry="2.051" transform="translate(2090.663 1997.181)" fill="#ffcc05"/>
    <ellipse id="Elipse_432" data-name="Elipse 432" cx="2" cy="2.051" rx="2" ry="2.051" transform="translate(2102.663 1997.181)" fill="#ffcc05"/>
    <ellipse id="Elipse_433" data-name="Elipse 433" cx="2" cy="2.051" rx="2" ry="2.051" transform="translate(2114.663 1997.181)" fill="#ffcc05"/>
    <ellipse id="Elipse_434" data-name="Elipse 434" cx="2" cy="2.051" rx="2" ry="2.051" transform="translate(2137.663 1997.181)" fill="#ffcc05"/>
    <ellipse id="Elipse_435" data-name="Elipse 435" cx="2.5" cy="2.051" rx="2.5" ry="2.051" transform="translate(2125.663 1997.181)" fill="#ffcc05"/>
    <ellipse id="Elipse_436" data-name="Elipse 436" cx="2.5" cy="2.051" rx="2.5" ry="2.051" transform="translate(1916.663 2009.489)" fill="#ffcc05"/>
    <ellipse id="Elipse_437" data-name="Elipse 437" cx="2" cy="2.051" rx="2" ry="2.051" transform="translate(1928.663 2009.489)" fill="#ffcc05"/>
    <ellipse id="Elipse_438" data-name="Elipse 438" cx="2" cy="2.051" rx="2" ry="2.051" transform="translate(1940.663 2009.489)" fill="#ffcc05"/>
    <ellipse id="Elipse_439" data-name="Elipse 439" cx="2" cy="2.051" rx="2" ry="2.051" transform="translate(1952.663 2009.489)" fill="#ffcc05"/>
    <ellipse id="Elipse_440" data-name="Elipse 440" cx="2" cy="2.051" rx="2" ry="2.051" transform="translate(1963.663 2009.489)" fill="#ffcc05"/>
    <ellipse id="Elipse_441" data-name="Elipse 441" cx="2.5" cy="2.051" rx="2.5" ry="2.051" transform="translate(1974.663 2009.489)" fill="#ffcc05"/>
    <ellipse id="Elipse_442" data-name="Elipse 442" cx="2" cy="2.051" rx="2" ry="2.051" transform="translate(1986.663 2009.489)" fill="#ffcc05"/>
    <ellipse id="Elipse_443" data-name="Elipse 443" cx="2" cy="2.051" rx="2" ry="2.051" transform="translate(1998.663 2009.489)" fill="#ffcc05"/>
    <ellipse id="Elipse_444" data-name="Elipse 444" cx="2" cy="2.051" rx="2" ry="2.051" transform="translate(2010.663 2009.489)" fill="#ffcc05"/>
    <ellipse id="Elipse_445" data-name="Elipse 445" cx="2" cy="2.051" rx="2" ry="2.051" transform="translate(2021.663 2009.489)" fill="#ffcc05"/>
    <ellipse id="Elipse_446" data-name="Elipse 446" cx="2" cy="2.051" rx="2" ry="2.051" transform="translate(2032.663 2009.489)" fill="#ffcc05"/>
    <ellipse id="Elipse_447" data-name="Elipse 447" cx="2" cy="2.051" rx="2" ry="2.051" transform="translate(2044.663 2009.489)" fill="#ffcc05"/>
    <ellipse id="Elipse_448" data-name="Elipse 448" cx="2" cy="2.051" rx="2" ry="2.051" transform="translate(2056.663 2009.489)" fill="#ffcc05"/>
    <ellipse id="Elipse_449" data-name="Elipse 449" cx="2" cy="2.051" rx="2" ry="2.051" transform="translate(2068.663 2009.489)" fill="#ffcc05"/>
    <ellipse id="Elipse_450" data-name="Elipse 450" cx="2" cy="2.051" rx="2" ry="2.051" transform="translate(2079.663 2009.489)" fill="#ffcc05"/>
    <ellipse id="Elipse_451" data-name="Elipse 451" cx="2" cy="2.051" rx="2" ry="2.051" transform="translate(2090.663 2009.489)" fill="#ffcc05"/>
    <ellipse id="Elipse_452" data-name="Elipse 452" cx="2" cy="2.051" rx="2" ry="2.051" transform="translate(2102.663 2009.489)" fill="#ffcc05"/>
    <ellipse id="Elipse_453" data-name="Elipse 453" cx="2" cy="2.051" rx="2" ry="2.051" transform="translate(2114.663 2009.489)" fill="#ffcc05"/>
    <ellipse id="Elipse_454" data-name="Elipse 454" cx="2" cy="2.051" rx="2" ry="2.051" transform="translate(2137.663 2009.489)" fill="#ffcc05"/>
    <ellipse id="Elipse_455" data-name="Elipse 455" cx="2.5" cy="2.051" rx="2.5" ry="2.051" transform="translate(2125.663 2009.489)" fill="#ffcc05"/>
    <ellipse id="Elipse_456" data-name="Elipse 456" cx="2.5" cy="2.051" rx="2.5" ry="2.051" transform="translate(1916.663 2021.796)" fill="#ffcc05"/>
    <ellipse id="Elipse_457" data-name="Elipse 457" cx="2" cy="2.051" rx="2" ry="2.051" transform="translate(1928.663 2021.796)" fill="#ffcc05"/>
    <ellipse id="Elipse_458" data-name="Elipse 458" cx="2" cy="2.051" rx="2" ry="2.051" transform="translate(1940.663 2021.796)" fill="#ffcc05"/>
    <ellipse id="Elipse_459" data-name="Elipse 459" cx="2" cy="2.051" rx="2" ry="2.051" transform="translate(1952.663 2021.796)" fill="#ffcc05"/>
    <ellipse id="Elipse_460" data-name="Elipse 460" cx="2" cy="2.051" rx="2" ry="2.051" transform="translate(1963.663 2021.796)" fill="#ffcc05"/>
    <ellipse id="Elipse_461" data-name="Elipse 461" cx="2.5" cy="2.051" rx="2.5" ry="2.051" transform="translate(1974.663 2021.796)" fill="#ffcc05"/>
    <ellipse id="Elipse_462" data-name="Elipse 462" cx="2" cy="2.051" rx="2" ry="2.051" transform="translate(1986.663 2021.796)" fill="#ffcc05"/>
    <ellipse id="Elipse_463" data-name="Elipse 463" cx="2" cy="2.051" rx="2" ry="2.051" transform="translate(1998.663 2021.796)" fill="#ffcc05"/>
    <ellipse id="Elipse_464" data-name="Elipse 464" cx="2" cy="2.051" rx="2" ry="2.051" transform="translate(2010.663 2021.796)" fill="#ffcc05"/>
    <ellipse id="Elipse_465" data-name="Elipse 465" cx="2" cy="2.051" rx="2" ry="2.051" transform="translate(2021.663 2021.796)" fill="#ffcc05"/>
    <ellipse id="Elipse_466" data-name="Elipse 466" cx="2" cy="2.051" rx="2" ry="2.051" transform="translate(2032.663 2021.796)" fill="#ffcc05"/>
    <ellipse id="Elipse_467" data-name="Elipse 467" cx="2" cy="2.051" rx="2" ry="2.051" transform="translate(2044.663 2021.796)" fill="#ffcc05"/>
    <ellipse id="Elipse_468" data-name="Elipse 468" cx="2" cy="2.051" rx="2" ry="2.051" transform="translate(2056.663 2021.796)" fill="#ffcc05"/>
    <ellipse id="Elipse_469" data-name="Elipse 469" cx="2" cy="2.051" rx="2" ry="2.051" transform="translate(2068.663 2021.796)" fill="#ffcc05"/>
    <ellipse id="Elipse_470" data-name="Elipse 470" cx="2" cy="2.051" rx="2" ry="2.051" transform="translate(2079.663 2021.796)" fill="#ffcc05"/>
    <ellipse id="Elipse_471" data-name="Elipse 471" cx="2" cy="2.051" rx="2" ry="2.051" transform="translate(2090.663 2021.796)" fill="#ffcc05"/>
    <ellipse id="Elipse_472" data-name="Elipse 472" cx="2" cy="2.051" rx="2" ry="2.051" transform="translate(2102.663 2021.796)" fill="#ffcc05"/>
    <ellipse id="Elipse_473" data-name="Elipse 473" cx="2" cy="2.051" rx="2" ry="2.051" transform="translate(2114.663 2021.796)" fill="#ffcc05"/>
    <ellipse id="Elipse_474" data-name="Elipse 474" cx="2" cy="2.051" rx="2" ry="2.051" transform="translate(2137.663 2021.796)" fill="#ffcc05"/>
    <ellipse id="Elipse_475" data-name="Elipse 475" cx="2.5" cy="2.051" rx="2.5" ry="2.051" transform="translate(2125.663 2021.796)" fill="#ffcc05"/>
    <ellipse id="Elipse_476" data-name="Elipse 476" cx="2.5" cy="2.051" rx="2.5" ry="2.051" transform="translate(1916.663 2033.078)" fill="#ffcc05"/>
    <ellipse id="Elipse_477" data-name="Elipse 477" cx="2" cy="2.051" rx="2" ry="2.051" transform="translate(1928.663 2033.078)" fill="#ffcc05"/>
    <ellipse id="Elipse_478" data-name="Elipse 478" cx="2" cy="2.051" rx="2" ry="2.051" transform="translate(1940.663 2033.078)" fill="#ffcc05"/>
    <ellipse id="Elipse_479" data-name="Elipse 479" cx="2" cy="2.051" rx="2" ry="2.051" transform="translate(1952.663 2033.078)" fill="#ffcc05"/>
    <ellipse id="Elipse_480" data-name="Elipse 480" cx="2" cy="2.051" rx="2" ry="2.051" transform="translate(1963.663 2033.078)" fill="#ffcc05"/>
    <ellipse id="Elipse_481" data-name="Elipse 481" cx="2.5" cy="2.051" rx="2.5" ry="2.051" transform="translate(1974.663 2033.078)" fill="#ffcc05"/>
    <ellipse id="Elipse_482" data-name="Elipse 482" cx="2" cy="2.051" rx="2" ry="2.051" transform="translate(1986.663 2033.078)" fill="#ffcc05"/>
    <ellipse id="Elipse_483" data-name="Elipse 483" cx="2" cy="2.051" rx="2" ry="2.051" transform="translate(1998.663 2033.078)" fill="#ffcc05"/>
    <ellipse id="Elipse_484" data-name="Elipse 484" cx="2" cy="2.051" rx="2" ry="2.051" transform="translate(2010.663 2033.078)" fill="#ffcc05"/>
    <ellipse id="Elipse_485" data-name="Elipse 485" cx="2" cy="2.051" rx="2" ry="2.051" transform="translate(2021.663 2033.078)" fill="#ffcc05"/>
    <ellipse id="Elipse_486" data-name="Elipse 486" cx="2" cy="2.051" rx="2" ry="2.051" transform="translate(2032.663 2033.078)" fill="#ffcc05"/>
    <ellipse id="Elipse_487" data-name="Elipse 487" cx="2" cy="2.051" rx="2" ry="2.051" transform="translate(2044.663 2033.078)" fill="#ffcc05"/>
    <ellipse id="Elipse_488" data-name="Elipse 488" cx="2" cy="2.051" rx="2" ry="2.051" transform="translate(2056.663 2033.078)" fill="#ffcc05"/>
    <ellipse id="Elipse_489" data-name="Elipse 489" cx="2" cy="2.051" rx="2" ry="2.051" transform="translate(2068.663 2033.078)" fill="#ffcc05"/>
    <ellipse id="Elipse_490" data-name="Elipse 490" cx="2" cy="2.051" rx="2" ry="2.051" transform="translate(2079.663 2033.078)" fill="#ffcc05"/>
    <ellipse id="Elipse_491" data-name="Elipse 491" cx="2" cy="2.051" rx="2" ry="2.051" transform="translate(2090.663 2033.078)" fill="#ffcc05"/>
    <ellipse id="Elipse_492" data-name="Elipse 492" cx="2" cy="2.051" rx="2" ry="2.051" transform="translate(2102.663 2033.078)" fill="#ffcc05"/>
    <ellipse id="Elipse_493" data-name="Elipse 493" cx="2" cy="2.051" rx="2" ry="2.051" transform="translate(2114.663 2033.078)" fill="#ffcc05"/>
    <ellipse id="Elipse_494" data-name="Elipse 494" cx="2" cy="2.051" rx="2" ry="2.051" transform="translate(2137.663 2033.078)" fill="#ffcc05"/>
    <ellipse id="Elipse_495" data-name="Elipse 495" cx="2.5" cy="2.051" rx="2.5" ry="2.051" transform="translate(2125.663 2033.078)" fill="#ffcc05"/>
  </g>
  <text id="MEDIO_AMBIENTE_SEGURIDAD_Y_SALUD_EN_EL_TRABAJO" data-name="MEDIO AMBIENTE SEGURIDAD Y SALUD EN EL TRABAJO" transform="translate(422 76)" fill="#fff" font-size="16" font-family="Montserrat-Bold, Montserrat" font-weight="700"><tspan x="0" y="0">MEDIO AMBIENTE SEGURIDAD Y SALUD EN EL TRABAJO</tspan></text>
  <text id="Legislación_en_medio_ambiente_seguridad_y_salud_en_el_trabajo" data-name="Legislación en medio ambiente, seguridad y salud en el trabajo" transform="translate(422 97)" fill="#fff" font-size="45" font-family="Montserrat-Bold, Montserrat" font-weight="700" style="isolation: isolate"><tspan x="0" y="44">Legislación en medio </tspan><tspan x="0" y="94.4">ambiente, seguridad y salud </tspan><tspan x="0" y="144.8">en el trabajo</tspan></text>
</svg>
