<svg xmlns="http://www.w3.org/2000/svg" xmlns:xlink="http://www.w3.org/1999/xlink" width="1320" height="506.835" viewBox="0 0 1320 506.835">
  <defs>
    <linearGradient id="linear-gradient" y1="0.5" x2="0.786" y2="0.5" gradientUnits="objectBoundingBox">
      <stop offset="0" stop-color="#fff"/>
      <stop offset="1" stop-color="#d2e6ee"/>
    </linearGradient>
    <clipPath id="clip-path">
      <path id="Rectangle_652" data-name="Rectangle 652" d="M20.787,0H1299.213C1310.693,0,1320,8.4,1320,18.772V488.063c0,10.367-9.307,18.772-20.787,18.772H20.787C9.307,506.835,0,498.431,0,488.063V18.772C0,8.4,9.307,0,20.787,0Z" transform="translate(0 0)" fill="url(#linear-gradient)" style="mix-blend-mode: multiply;isolation: isolate"/>
    </clipPath>
  </defs>
  <g id="Enmascarar_grupo_42" data-name="Enmascarar grupo 42" clip-path="url(#clip-path)">
    <g id="Grupo_53334" data-name="Grupo 53334" transform="translate(-435.496 -173.794)">
      <g id="Background" transform="translate(0 0)">
        <g id="Grupo_53755" data-name="Grupo 53755" transform="translate(295.496 103.794)">
          <g id="Enmascarar_grupo_42-2" data-name="Enmascarar grupo 42" transform="translate(140.333 70)" clip-path="url(#clip-path)">
            <g id="Grupo_53334-2" data-name="Grupo 53334" transform="translate(-435.496 -173.794)">
              <g id="Background-2" data-name="Background" transform="translate(0 0)">
                <g id="BG_Image" data-name="BG Image">
                  <path id="BG_Image-2" data-name="BG Image" d="M0,0H2042.362V723.614H0Z" fill="#4dd0e1"/>
                </g>
              </g>
              <g id="Grupo_57075" data-name="Grupo 57075" transform="translate(690.339 -342.97)">
                <rect id="Rectángulo_11952" data-name="Rectángulo 11952" width="141.426" height="4" transform="matrix(0.707, -0.707, 0.707, 0.707, 1057.363, 562.635)" fill="#36eae1"/>
                <rect id="Rectángulo_11953" data-name="Rectángulo 11953" width="111.502" height="4" transform="matrix(0.707, -0.707, 0.707, 0.707, 888.296, 619.837)" fill="#36eae1"/>
                <rect id="Rectángulo_11954" data-name="Rectángulo 11954" width="111.502" height="4" transform="matrix(0.707, -0.707, 0.707, 0.707, 724.296, 619.837)" fill="#36eae1"/>
                <rect id="Rectángulo_11955" data-name="Rectángulo 11955" width="111.502" height="4" transform="translate(970.295 455.836) rotate(-45)" fill="#36eae1"/>
                <rect id="Rectángulo_11956" data-name="Rectángulo 11956" width="108.089" height="4" transform="matrix(0.707, -0.707, 0.707, 0.707, 1007.67, 448.975)" fill="#36eae1"/>
                <rect id="Rectángulo_11957" data-name="Rectángulo 11957" width="174.821" height="4" transform="translate(981.311 501.854) rotate(-45)" fill="#36eae1"/>
                <rect id="Rectángulo_11958" data-name="Rectángulo 11958" width="200.94" height="4" transform="translate(971.068 539.611) rotate(-45)" fill="#36eae1"/>
                <rect id="Rectángulo_11959" data-name="Rectángulo 11959" width="126.279" height="4" transform="matrix(0.707, -0.707, 0.707, 0.707, 1033.605, 535.232)" fill="#36eae1"/>
                <path id="Trazado_103173" data-name="Trazado 103173" d="M1126.98,465.309,1015.766,576.521l.2.2L889.068,703.611l2.828,2.828,142.086-142.086-.2-.2,96.022-96.021Z" fill="#36eae1"/>
                <rect id="Rectángulo_11960" data-name="Rectángulo 11960" width="133.087" height="4" transform="translate(1043.282 604.038) rotate(-45)" fill="#36eae1"/>
                <path id="Trazado_103174" data-name="Trazado 103174" d="M989.945,548.7,925.67,612.975,928.5,615.8l76.432-76.43-.225-.225,127.441-127.441-2.828-2.828-139.6,139.6Z" fill="#36eae1"/>
                <rect id="Rectángulo_11961" data-name="Rectángulo 11961" width="111.502" height="4" transform="translate(806.295 455.836) rotate(-45)" fill="#36eae1"/>
                <rect id="Rectángulo_11962" data-name="Rectángulo 11962" width="108.089" height="4" transform="matrix(0.707, -0.707, 0.707, 0.707, 843.67, 448.975)" fill="#36eae1"/>
                <rect id="Rectángulo_11963" data-name="Rectángulo 11963" width="174.821" height="4" transform="translate(817.311 501.854) rotate(-45)" fill="#36eae1"/>
                <rect id="Rectángulo_11964" data-name="Rectángulo 11964" width="200.94" height="4" transform="translate(807.068 539.611) rotate(-45)" fill="#36eae1"/>
                <rect id="Rectángulo_11965" data-name="Rectángulo 11965" width="126.279" height="4" transform="matrix(0.707, -0.707, 0.707, 0.707, 869.605, 535.232)" fill="#36eae1"/>
                <path id="Trazado_103175" data-name="Trazado 103175" d="M851.962,576.718,725.068,703.611l2.828,2.828L869.982,564.354l-.2-.2,96.022-96.021-2.828-2.828L851.766,576.521Z" fill="#36eae1"/>
                <rect id="Rectángulo_11966" data-name="Rectángulo 11966" width="141.426" height="4" transform="matrix(0.707, -0.707, 0.707, 0.707, 893.363, 562.635)" fill="#36eae1"/>
                <rect id="Rectángulo_11967" data-name="Rectángulo 11967" width="133.087" height="4" transform="translate(879.281 604.037) rotate(-44.999)" fill="#36eae1"/>
                <path id="Trazado_103176" data-name="Trazado 103176" d="M825.945,548.7,761.67,612.975,764.5,615.8l76.432-76.43-.225-.225L968.146,411.707l-2.828-2.828-139.6,139.6Z" fill="#36eae1"/>
                <rect id="Rectángulo_11968" data-name="Rectángulo 11968" width="141.426" height="4" transform="matrix(0.707, -0.707, 0.707, 0.707, 729.363, 562.635)" fill="#36eae1"/>
                <rect id="Rectángulo_11969" data-name="Rectángulo 11969" width="111.502" height="4" transform="translate(888.295 947.836) rotate(-45)" fill="#36eae1"/>
                <rect id="Rectángulo_11970" data-name="Rectángulo 11970" width="111.502" height="4" transform="translate(724.295 947.836) rotate(-45)" fill="#36eae1"/>
                <rect id="Rectángulo_11971" data-name="Rectángulo 11971" width="111.502" height="4" transform="translate(970.295 783.836) rotate(-45)" fill="#36eae1"/>
                <rect id="Rectángulo_11972" data-name="Rectángulo 11972" width="108.089" height="4" transform="translate(1007.67 776.975) rotate(-45)" fill="#36eae1"/>
                <rect id="Rectángulo_11973" data-name="Rectángulo 11973" width="174.821" height="4" transform="translate(981.311 829.854) rotate(-45)" fill="#36eae1"/>
                <rect id="Rectángulo_11974" data-name="Rectángulo 11974" width="200.94" height="4" transform="translate(971.068 867.611) rotate(-45)" fill="#36eae1"/>
                <rect id="Rectángulo_11975" data-name="Rectángulo 11975" width="126.279" height="4" transform="matrix(0.707, -0.707, 0.707, 0.707, 1033.605, 863.232)" fill="#36eae1"/>
                <rect id="Rectángulo_11976" data-name="Rectángulo 11976" width="133.087" height="4" transform="translate(1043.282 932.038) rotate(-45)" fill="#36eae1"/>
                <path id="Trazado_103177" data-name="Trazado 103177" d="M1129.318,736.879l-139.6,139.6.224.224L925.67,940.975,928.5,943.8l76.432-76.43-.225-.225,127.441-127.441Z" fill="#36eae1"/>
                <rect id="Rectángulo_11977" data-name="Rectángulo 11977" width="111.502" height="4" transform="translate(806.295 783.836) rotate(-45)" fill="#36eae1"/>
                <rect id="Rectángulo_11978" data-name="Rectángulo 11978" width="174.821" height="4" transform="translate(817.311 829.854) rotate(-45)" fill="#36eae1"/>
                <rect id="Rectángulo_11979" data-name="Rectángulo 11979" width="126.279" height="4" transform="translate(869.605 863.232) rotate(-45)" fill="#36eae1"/>
                <rect id="Rectángulo_11980" data-name="Rectángulo 11980" width="141.426" height="4" transform="matrix(0.707, -0.707, 0.707, 0.707, 893.363, 890.635)" fill="#36eae1"/>
                <rect id="Rectángulo_11981" data-name="Rectángulo 11981" width="133.087" height="4" transform="translate(879.282 932.038) rotate(-45)" fill="#36eae1"/>
                <path id="Trazado_103178" data-name="Trazado 103178" d="M965.318,736.879l-139.6,139.6.224.224L761.67,940.975,764.5,943.8l76.432-76.43-.225-.225L968.146,739.707Z" fill="#36eae1"/>
                <rect id="Rectángulo_11982" data-name="Rectángulo 11982" width="141.426" height="4" transform="matrix(0.707, -0.707, 0.707, 0.707, 729.363, 890.635)" fill="#36eae1"/>
                <rect id="Rectángulo_11983" data-name="Rectángulo 11983" width="174.821" height="4" transform="translate(899.311 665.854) rotate(-45)" fill="#36eae1"/>
                <rect id="Rectángulo_11984" data-name="Rectángulo 11984" width="126.279" height="4" transform="translate(951.605 699.232) rotate(-45)" fill="#36eae1"/>
                <path id="Trazado_103179" data-name="Trazado 103179" d="M933.766,740.521l.2.2L807.068,867.611l2.828,2.828L951.982,728.354l-.2-.2,96.022-96.021-2.828-2.828Z" fill="#36eae1"/>
                <rect id="Rectángulo_11985" data-name="Rectángulo 11985" width="141.426" height="4" transform="translate(975.363 726.634) rotate(-45)" fill="#36eae1"/>
                <rect id="Rectángulo_11986" data-name="Rectángulo 11986" width="133.087" height="4" transform="translate(961.282 768.038) rotate(-45)" fill="#36eae1"/>
                <path id="Trazado_103180" data-name="Trazado 103180" d="M1047.318,572.879l-139.6,139.6.224.224L843.67,776.975,846.5,779.8l76.432-76.43-.225-.225,127.441-127.441Z" fill="#36eae1"/>
                <rect id="Rectángulo_11987" data-name="Rectángulo 11987" width="174.821" height="4" transform="translate(735.311 665.854) rotate(-45)" fill="#36eae1"/>
                <rect id="Rectángulo_11988" data-name="Rectángulo 11988" width="126.279" height="4" transform="translate(787.605 699.232) rotate(-45)" fill="#36eae1"/>
                <path id="Trazado_103181" data-name="Trazado 103181" d="M880.98,629.309,769.766,740.521l.2.2L643.068,867.611l2.828,2.828L787.982,728.354l-.2-.2,96.022-96.021Z" fill="#36eae1"/>
                <rect id="Rectángulo_11989" data-name="Rectángulo 11989" width="141.426" height="4" transform="translate(811.363 726.634) rotate(-45)" fill="#36eae1"/>
                <rect id="Rectángulo_11990" data-name="Rectángulo 11990" width="133.087" height="4" transform="translate(797.282 768.038) rotate(-45)" fill="#36eae1"/>
                <rect id="Rectángulo_11991" data-name="Rectángulo 11991" width="174.821" height="4" transform="translate(899.311 993.854) rotate(-45)" fill="#36eae1"/>
                <path id="Trazado_103182" data-name="Trazado 103182" d="M1033.786,892.157l96.022-96.021-2.828-2.828L1015.766,904.521l.2.2L889.068,1031.611l2.828,2.828,142.086-142.086Z" fill="#36eae1"/>
                <rect id="Rectángulo_11992" data-name="Rectángulo 11992" width="126.279" height="4" transform="translate(951.605 1027.232) rotate(-45)" fill="#36eae1"/>
                <rect id="Rectángulo_11993" data-name="Rectángulo 11993" width="157.28" height="4" transform="translate(933.766 1068.521) rotate(-44.999)" fill="#36eae1"/>
                <rect id="Rectángulo_11994" data-name="Rectángulo 11994" width="141.426" height="4" transform="translate(975.363 1054.634) rotate(-45)" fill="#36eae1"/>
                <rect id="Rectángulo_11995" data-name="Rectángulo 11995" width="133.087" height="4" transform="translate(961.282 1096.038) rotate(-45)" fill="#36eae1"/>
                <rect id="Rectángulo_11996" data-name="Rectángulo 11996" width="197.421" height="4" transform="translate(907.721 1040.477) rotate(-45)" fill="#36eae1"/>
                <rect id="Rectángulo_11997" data-name="Rectángulo 11997" width="174.821" height="4" transform="translate(735.311 993.854) rotate(-45)" fill="#36eae1"/>
                <path id="Trazado_103183" data-name="Trazado 103183" d="M869.786,892.157l96.022-96.021-2.828-2.828L851.766,904.521l.2.2L725.068,1031.611l2.828,2.828L869.982,892.354Z" fill="#36eae1"/>
                <rect id="Rectángulo_11998" data-name="Rectángulo 11998" width="126.279" height="4" transform="translate(787.605 1027.232) rotate(-45)" fill="#36eae1"/>
                <rect id="Rectángulo_11999" data-name="Rectángulo 11999" width="157.28" height="4" transform="translate(769.766 1068.521) rotate(-44.999)" fill="#36eae1"/>
                <rect id="Rectángulo_12000" data-name="Rectángulo 12000" width="141.426" height="4" transform="matrix(0.707, -0.707, 0.707, 0.707, 811.363, 1054.635)" fill="#36eae1"/>
                <rect id="Rectángulo_12001" data-name="Rectángulo 12001" width="133.087" height="4" transform="translate(797.281 1096.037) rotate(-44.999)" fill="#36eae1"/>
                <rect id="Rectángulo_12002" data-name="Rectángulo 12002" width="197.421" height="4" transform="translate(743.721 1040.477) rotate(-45)" fill="#36eae1"/>
                <rect id="Rectángulo_12003" data-name="Rectángulo 12003" width="111.502" height="4" transform="matrix(0.707, -0.707, 0.707, 0.707, 560.296, 619.837)" fill="#36eae1"/>
                <rect id="Rectángulo_12004" data-name="Rectángulo 12004" width="111.502" height="4" transform="matrix(0.707, -0.707, 0.707, 0.707, 396.296, 619.837)" fill="#36eae1"/>
                <rect id="Rectángulo_12005" data-name="Rectángulo 12005" width="111.502" height="4" transform="translate(642.295 455.836) rotate(-45)" fill="#36eae1"/>
                <rect id="Rectángulo_12006" data-name="Rectángulo 12006" width="108.089" height="4" transform="matrix(0.707, -0.707, 0.707, 0.707, 679.67, 448.975)" fill="#36eae1"/>
                <rect id="Rectángulo_12007" data-name="Rectángulo 12007" width="174.821" height="4" transform="translate(653.311 501.854) rotate(-45)" fill="#36eae1"/>
                <rect id="Rectángulo_12008" data-name="Rectángulo 12008" width="200.94" height="4" transform="translate(643.068 539.611) rotate(-45)" fill="#36eae1"/>
                <rect id="Rectángulo_12009" data-name="Rectángulo 12009" width="126.279" height="4" transform="matrix(0.707, -0.707, 0.707, 0.707, 705.605, 535.232)" fill="#36eae1"/>
                <path id="Trazado_103184" data-name="Trazado 103184" d="M687.962,576.718,561.068,703.611l2.828,2.828L705.982,564.354l-.2-.2,96.022-96.021-2.828-2.828L687.766,576.521Z" fill="#36eae1"/>
                <rect id="Rectángulo_12010" data-name="Rectángulo 12010" width="133.087" height="4" transform="translate(715.281 604.037) rotate(-44.999)" fill="#36eae1"/>
                <path id="Trazado_103185" data-name="Trazado 103185" d="M661.945,548.7,597.67,612.975,600.5,615.8l76.432-76.43-.225-.225L804.146,411.707l-2.828-2.828-139.6,139.6Z" fill="#36eae1"/>
                <rect id="Rectángulo_12011" data-name="Rectángulo 12011" width="111.502" height="4" transform="translate(478.295 455.836) rotate(-45)" fill="#36eae1"/>
                <rect id="Rectángulo_12012" data-name="Rectángulo 12012" width="108.089" height="4" transform="matrix(0.707, -0.707, 0.707, 0.707, 515.67, 448.975)" fill="#36eae1"/>
                <rect id="Rectángulo_12013" data-name="Rectángulo 12013" width="174.821" height="4" transform="translate(489.311 501.854) rotate(-45)" fill="#36eae1"/>
                <rect id="Rectángulo_12014" data-name="Rectángulo 12014" width="200.94" height="4" transform="translate(479.068 539.611) rotate(-45)" fill="#36eae1"/>
                <rect id="Rectángulo_12015" data-name="Rectángulo 12015" width="126.279" height="4" transform="matrix(0.707, -0.707, 0.707, 0.707, 541.605, 535.232)" fill="#36eae1"/>
                <path id="Trazado_103186" data-name="Trazado 103186" d="M523.962,576.718,397.068,703.611l2.828,2.828L541.982,564.354l-.2-.2,96.022-96.021-2.828-2.828L523.766,576.521Z" fill="#36eae1"/>
                <rect id="Rectángulo_12016" data-name="Rectángulo 12016" width="141.426" height="4" transform="matrix(0.707, -0.707, 0.707, 0.707, 565.363, 562.635)" fill="#36eae1"/>
                <rect id="Rectángulo_12017" data-name="Rectángulo 12017" width="133.087" height="4" transform="translate(551.281 604.037) rotate(-44.999)" fill="#36eae1"/>
                <path id="Trazado_103187" data-name="Trazado 103187" d="M497.945,548.7,433.67,612.975,436.5,615.8l76.432-76.43-.225-.225L640.146,411.707l-2.828-2.828-139.6,139.6Z" fill="#36eae1"/>
                <rect id="Rectángulo_12018" data-name="Rectángulo 12018" width="141.426" height="4" transform="matrix(0.707, -0.707, 0.707, 0.707, 401.363, 562.635)" fill="#36eae1"/>
                <rect id="Rectángulo_12019" data-name="Rectángulo 12019" width="111.502" height="4" transform="translate(560.295 947.836) rotate(-45)" fill="#36eae1"/>
                <rect id="Rectángulo_12020" data-name="Rectángulo 12020" width="111.502" height="4" transform="translate(396.295 947.836) rotate(-45)" fill="#36eae1"/>
                <rect id="Rectángulo_12021" data-name="Rectángulo 12021" width="111.502" height="4" transform="translate(642.295 783.836) rotate(-45)" fill="#36eae1"/>
                <path id="Trazado_103188" data-name="Trazado 103188" d="M682.5,779.8l76.432-76.43-.225-.225L886.146,575.707l-2.828-2.828-139.6,139.6.224.224L679.67,776.975Z" fill="#36eae1"/>
                <rect id="Rectángulo_12022" data-name="Rectángulo 12022" width="174.821" height="4" transform="translate(653.311 829.854) rotate(-45)" fill="#36eae1"/>
                <rect id="Rectángulo_12023" data-name="Rectángulo 12023" width="126.279" height="4" transform="translate(705.605 863.232) rotate(-45)" fill="#36eae1"/>
                <rect id="Rectángulo_12024" data-name="Rectángulo 12024" width="133.087" height="4" transform="translate(715.282 932.038) rotate(-45)" fill="#36eae1"/>
                <path id="Trazado_103189" data-name="Trazado 103189" d="M801.318,736.879l-139.6,139.6.224.224L597.67,940.975,600.5,943.8l76.432-76.43-.225-.225L804.146,739.707Z" fill="#36eae1"/>
                <rect id="Rectángulo_12025" data-name="Rectángulo 12025" width="111.502" height="4" transform="translate(478.295 783.836) rotate(-45)" fill="#36eae1"/>
                <path id="Trazado_103190" data-name="Trazado 103190" d="M518.5,779.8l76.432-76.43-.225-.225L722.146,575.707l-2.828-2.828-139.6,139.6.224.224L515.67,776.975Z" fill="#36eae1"/>
                <rect id="Rectángulo_12026" data-name="Rectángulo 12026" width="174.821" height="4" transform="translate(489.311 829.854) rotate(-45)" fill="#36eae1"/>
                <rect id="Rectángulo_12027" data-name="Rectángulo 12027" width="126.279" height="4" transform="translate(541.605 863.232) rotate(-45)" fill="#36eae1"/>
                <rect id="Rectángulo_12028" data-name="Rectángulo 12028" width="141.426" height="4" transform="matrix(0.707, -0.707, 0.707, 0.707, 565.363, 890.635)" fill="#36eae1"/>
                <rect id="Rectángulo_12029" data-name="Rectángulo 12029" width="133.087" height="4" transform="translate(551.282 932.038) rotate(-45)" fill="#36eae1"/>
                <path id="Trazado_103191" data-name="Trazado 103191" d="M637.318,736.879l-139.6,139.6.224.224L433.67,940.975,436.5,943.8l76.432-76.43-.225-.225L640.146,739.707Z" fill="#36eae1"/>
                <rect id="Rectángulo_12030" data-name="Rectángulo 12030" width="141.426" height="4" transform="matrix(0.707, -0.707, 0.707, 0.707, 401.363, 890.635)" fill="#36eae1"/>
                <rect id="Rectángulo_12031" data-name="Rectángulo 12031" width="174.821" height="4" transform="translate(571.311 665.854) rotate(-45)" fill="#36eae1"/>
                <rect id="Rectángulo_12032" data-name="Rectángulo 12032" width="126.279" height="4" transform="translate(623.605 699.232) rotate(-45)" fill="#36eae1"/>
                <path id="Trazado_103192" data-name="Trazado 103192" d="M716.98,629.309,605.766,740.521l.2.2L479.068,867.611l2.828,2.828L623.982,728.354l-.2-.2,96.022-96.021Z" fill="#36eae1"/>
                <rect id="Rectángulo_12033" data-name="Rectángulo 12033" width="141.426" height="4" transform="translate(647.363 726.634) rotate(-45)" fill="#36eae1"/>
                <rect id="Rectángulo_12034" data-name="Rectángulo 12034" width="133.087" height="4" transform="translate(633.282 768.038) rotate(-45)" fill="#36eae1"/>
                <rect id="Rectángulo_12035" data-name="Rectángulo 12035" width="174.821" height="4" transform="translate(407.311 665.854) rotate(-45)" fill="#36eae1"/>
                <rect id="Rectángulo_12036" data-name="Rectángulo 12036" width="126.279" height="4" transform="translate(459.605 699.232) rotate(-45)" fill="#36eae1"/>
                <path id="Trazado_103193" data-name="Trazado 103193" d="M552.98,629.309,441.766,740.521l.2.2L315.068,867.611l2.828,2.828L459.982,728.354l-.2-.2,96.022-96.021Z" fill="#36eae1"/>
                <rect id="Rectángulo_12037" data-name="Rectángulo 12037" width="141.426" height="4" transform="translate(483.363 726.634) rotate(-45)" fill="#36eae1"/>
                <rect id="Rectángulo_12038" data-name="Rectángulo 12038" width="133.087" height="4" transform="translate(469.282 768.038) rotate(-45)" fill="#36eae1"/>
                <rect id="Rectángulo_12039" data-name="Rectángulo 12039" width="174.821" height="4" transform="translate(571.311 993.854) rotate(-45)" fill="#36eae1"/>
                <path id="Trazado_103194" data-name="Trazado 103194" d="M705.786,892.157l96.022-96.021-2.828-2.828L687.766,904.521l.2.2L561.068,1031.611l2.828,2.828L705.982,892.354Z" fill="#36eae1"/>
                <rect id="Rectángulo_12040" data-name="Rectángulo 12040" width="126.279" height="4" transform="translate(623.605 1027.232) rotate(-45)" fill="#36eae1"/>
                <rect id="Rectángulo_12041" data-name="Rectángulo 12041" width="157.28" height="4" transform="translate(605.766 1068.521) rotate(-44.999)" fill="#36eae1"/>
                <rect id="Rectángulo_12042" data-name="Rectángulo 12042" width="141.426" height="4" transform="matrix(0.707, -0.707, 0.707, 0.707, 647.363, 1054.635)" fill="#36eae1"/>
                <rect id="Rectángulo_12043" data-name="Rectángulo 12043" width="133.087" height="4" transform="translate(633.281 1096.037) rotate(-44.999)" fill="#36eae1"/>
                <rect id="Rectángulo_12044" data-name="Rectángulo 12044" width="197.421" height="4" transform="translate(579.721 1040.477) rotate(-45)" fill="#36eae1"/>
                <rect id="Rectángulo_12045" data-name="Rectángulo 12045" width="174.821" height="4" transform="translate(407.311 993.854) rotate(-45)" fill="#36eae1"/>
                <path id="Trazado_103195" data-name="Trazado 103195" d="M541.786,892.157l96.022-96.021-2.828-2.828L523.766,904.521l.2.2L397.068,1031.611l2.828,2.828L541.982,892.354Z" fill="#36eae1"/>
                <rect id="Rectángulo_12046" data-name="Rectángulo 12046" width="126.279" height="4" transform="translate(459.605 1027.232) rotate(-45)" fill="#36eae1"/>
                <rect id="Rectángulo_12047" data-name="Rectángulo 12047" width="157.28" height="4" transform="translate(441.766 1068.521) rotate(-44.999)" fill="#36eae1"/>
                <rect id="Rectángulo_12048" data-name="Rectángulo 12048" width="141.426" height="4" transform="matrix(0.707, -0.707, 0.707, 0.707, 483.363, 1054.635)" fill="#36eae1"/>
                <rect id="Rectángulo_12049" data-name="Rectángulo 12049" width="133.087" height="4" transform="translate(469.281 1096.037) rotate(-44.999)" fill="#36eae1"/>
                <rect id="Rectángulo_12050" data-name="Rectángulo 12050" width="197.421" height="4" transform="translate(415.721 1040.477) rotate(-45)" fill="#36eae1"/>
                <rect id="Rectángulo_12051" data-name="Rectángulo 12051" width="111.502" height="4" transform="translate(232.296 619.837) rotate(-45.001)" fill="#36eae1"/>
                <rect id="Rectángulo_12052" data-name="Rectángulo 12052" width="111.502" height="4" transform="translate(68.296 619.836) rotate(-45)" fill="#36eae1"/>
                <rect id="Rectángulo_12053" data-name="Rectángulo 12053" width="111.502" height="4" transform="translate(314.295 455.836) rotate(-45)" fill="#36eae1"/>
                <rect id="Rectángulo_12054" data-name="Rectángulo 12054" width="108.089" height="4" transform="matrix(0.707, -0.707, 0.707, 0.707, 351.67, 448.975)" fill="#36eae1"/>
                <rect id="Rectángulo_12055" data-name="Rectángulo 12055" width="174.821" height="4" transform="translate(325.311 501.854) rotate(-45)" fill="#36eae1"/>
                <rect id="Rectángulo_12056" data-name="Rectángulo 12056" width="200.94" height="4" transform="translate(315.068 539.611) rotate(-45)" fill="#36eae1"/>
                <rect id="Rectángulo_12057" data-name="Rectángulo 12057" width="126.279" height="4" transform="matrix(0.707, -0.707, 0.707, 0.707, 377.605, 535.232)" fill="#36eae1"/>
                <path id="Trazado_103196" data-name="Trazado 103196" d="M359.962,576.718,233.068,703.611l2.828,2.828L377.982,564.354l-.2-.2,96.022-96.021-2.828-2.828L359.766,576.521Z" fill="#36eae1"/>
                <rect id="Rectángulo_12058" data-name="Rectángulo 12058" width="133.087" height="4" transform="translate(387.281 604.037) rotate(-44.999)" fill="#36eae1"/>
                <path id="Trazado_103197" data-name="Trazado 103197" d="M333.945,548.7,269.67,612.975,272.5,615.8l76.431-76.43-.225-.225L476.147,411.707l-2.828-2.828-139.6,139.6Z" fill="#36eae1"/>
                <rect id="Rectángulo_12059" data-name="Rectángulo 12059" width="111.502" height="4" transform="translate(150.296 455.836) rotate(-45)" fill="#36eae1"/>
                <rect id="Rectángulo_12060" data-name="Rectángulo 12060" width="108.089" height="4" transform="translate(187.67 448.975) rotate(-44.999)" fill="#36eae1"/>
                <rect id="Rectángulo_12061" data-name="Rectángulo 12061" width="174.821" height="4" transform="translate(161.311 501.854) rotate(-45)" fill="#36eae1"/>
                <rect id="Rectángulo_12062" data-name="Rectángulo 12062" width="200.94" height="4" transform="translate(151.068 539.611) rotate(-45)" fill="#36eae1"/>
                <rect id="Rectángulo_12063" data-name="Rectángulo 12063" width="126.279" height="4" transform="matrix(0.707, -0.707, 0.707, 0.707, 213.605, 535.232)" fill="#36eae1"/>
                <rect id="Rectángulo_12064" data-name="Rectángulo 12064" width="141.426" height="4" transform="matrix(0.707, -0.707, 0.707, 0.707, 237.363, 562.635)" fill="#36eae1"/>
                <rect id="Rectángulo_12065" data-name="Rectángulo 12065" width="133.087" height="4" transform="translate(223.281 604.037) rotate(-44.999)" fill="#36eae1"/>
                <path id="Trazado_103198" data-name="Trazado 103198" d="M169.945,548.7,105.67,612.975,108.5,615.8l76.431-76.43-.224-.224L312.147,411.707l-2.828-2.828-139.6,139.6Z" fill="#36eae1"/>
                <rect id="Rectángulo_12066" data-name="Rectángulo 12066" width="111.502" height="4" transform="translate(232.296 947.836) rotate(-45)" fill="#36eae1"/>
                <rect id="Rectángulo_12067" data-name="Rectángulo 12067" width="111.502" height="4" transform="translate(68.296 947.836) rotate(-45)" fill="#36eae1"/>
                <rect id="Rectángulo_12068" data-name="Rectángulo 12068" width="111.502" height="4" transform="translate(314.295 783.836) rotate(-45)" fill="#36eae1"/>
                <path id="Trazado_103199" data-name="Trazado 103199" d="M354.5,779.8l76.432-76.43-.225-.225L558.146,575.707l-2.828-2.828-139.6,139.6.224.224L351.67,776.975Z" fill="#36eae1"/>
                <rect id="Rectángulo_12069" data-name="Rectángulo 12069" width="174.821" height="4" transform="translate(325.311 829.854) rotate(-45)" fill="#36eae1"/>
                <rect id="Rectángulo_12070" data-name="Rectángulo 12070" width="126.279" height="4" transform="translate(377.605 863.232) rotate(-45)" fill="#36eae1"/>
                <rect id="Rectángulo_12071" data-name="Rectángulo 12071" width="133.087" height="4" transform="translate(387.282 932.038) rotate(-45)" fill="#36eae1"/>
                <path id="Trazado_103200" data-name="Trazado 103200" d="M473.318,736.879l-139.6,139.6.224.224L269.67,940.975,272.5,943.8l76.431-76.43-.225-.225L476.147,739.707Z" fill="#36eae1"/>
                <rect id="Rectángulo_12072" data-name="Rectángulo 12072" width="111.502" height="4" transform="translate(150.296 783.836) rotate(-45)" fill="#36eae1"/>
                <path id="Trazado_103201" data-name="Trazado 103201" d="M190.5,779.8l76.431-76.43-.224-.224L394.147,575.707l-2.828-2.828-139.6,139.6.224.224L187.67,776.975Z" fill="#36eae1"/>
                <rect id="Rectángulo_12073" data-name="Rectángulo 12073" width="174.821" height="4" transform="translate(161.311 829.854) rotate(-45)" fill="#36eae1"/>
                <rect id="Rectángulo_12074" data-name="Rectángulo 12074" width="126.279" height="4" transform="translate(213.605 863.232) rotate(-45)" fill="#36eae1"/>
                <rect id="Rectángulo_12075" data-name="Rectángulo 12075" width="141.426" height="4" transform="matrix(0.707, -0.707, 0.707, 0.707, 237.363, 890.635)" fill="#36eae1"/>
                <rect id="Rectángulo_12076" data-name="Rectángulo 12076" width="133.087" height="4" transform="translate(223.282 932.038) rotate(-45)" fill="#36eae1"/>
                <path id="Trazado_103202" data-name="Trazado 103202" d="M309.318,736.879l-139.6,139.6.224.224L105.67,940.975,108.5,943.8l76.431-76.43-.224-.224L312.147,739.707Z" fill="#36eae1"/>
                <rect id="Rectángulo_12077" data-name="Rectángulo 12077" width="174.821" height="4" transform="translate(243.311 665.853) rotate(-45)" fill="#36eae1"/>
                <rect id="Rectángulo_12078" data-name="Rectángulo 12078" width="126.279" height="4" transform="translate(295.605 699.232) rotate(-45)" fill="#36eae1"/>
                <path id="Trazado_103203" data-name="Trazado 103203" d="M388.98,629.309,277.766,740.521l.2.2L151.068,867.611l2.828,2.828L295.983,728.354l-.2-.2,96.022-96.021Z" fill="#36eae1"/>
                <rect id="Rectángulo_12079" data-name="Rectángulo 12079" width="141.426" height="4" transform="translate(319.363 726.634) rotate(-45)" fill="#36eae1"/>
                <rect id="Rectángulo_12080" data-name="Rectángulo 12080" width="133.087" height="4" transform="translate(305.282 768.038) rotate(-45)" fill="#36eae1"/>
                <rect id="Rectángulo_12081" data-name="Rectángulo 12081" width="174.821" height="4" transform="translate(79.311 665.854) rotate(-45)" fill="#36eae1"/>
                <path id="Trazado_103204" data-name="Trazado 103204" d="M71.9,706.439,213.983,564.354l-.2-.2,96.022-96.021-2.828-2.828L195.766,576.521l.2.2L69.068,703.611Z" fill="#36eae1"/>
                <rect id="Rectángulo_12082" data-name="Rectángulo 12082" width="126.279" height="4" transform="translate(131.605 699.232) rotate(-45)" fill="#36eae1"/>
                <rect id="Rectángulo_12083" data-name="Rectángulo 12083" width="157.28" height="4" transform="translate(113.767 740.522) rotate(-45)" fill="#36eae1"/>
                <rect id="Rectángulo_12084" data-name="Rectángulo 12084" width="141.426" height="4" transform="translate(155.363 726.634) rotate(-45)" fill="#36eae1"/>
                <rect id="Rectángulo_12085" data-name="Rectángulo 12085" width="133.087" height="4" transform="translate(141.282 768.038) rotate(-45)" fill="#36eae1"/>
                <rect id="Rectángulo_12086" data-name="Rectángulo 12086" width="197.421" height="4" transform="translate(87.721 712.476) rotate(-45)" fill="#36eae1"/>
                <rect id="Rectángulo_12087" data-name="Rectángulo 12087" width="174.821" height="4" transform="translate(243.311 993.853) rotate(-45)" fill="#36eae1"/>
                <path id="Trazado_103205" data-name="Trazado 103205" d="M377.786,892.157l96.022-96.021-2.828-2.828L359.766,904.521l.2.2L233.068,1031.611l2.828,2.828L377.982,892.354Z" fill="#36eae1"/>
                <rect id="Rectángulo_12088" data-name="Rectángulo 12088" width="126.279" height="4" transform="translate(295.605 1027.232) rotate(-45)" fill="#36eae1"/>
                <rect id="Rectángulo_12089" data-name="Rectángulo 12089" width="157.28" height="4" transform="translate(277.766 1068.521) rotate(-45)" fill="#36eae1"/>
                <rect id="Rectángulo_12090" data-name="Rectángulo 12090" width="141.426" height="4" transform="matrix(0.707, -0.707, 0.707, 0.707, 319.363, 1054.635)" fill="#36eae1"/>
                <rect id="Rectángulo_12091" data-name="Rectángulo 12091" width="133.087" height="4" transform="translate(305.281 1096.037) rotate(-44.999)" fill="#36eae1"/>
                <rect id="Rectángulo_12092" data-name="Rectángulo 12092" width="197.421" height="4" transform="translate(251.721 1040.477) rotate(-45)" fill="#36eae1"/>
                <rect id="Rectángulo_12093" data-name="Rectángulo 12093" width="174.821" height="4" transform="translate(79.311 993.854) rotate(-45)" fill="#36eae1"/>
                <path id="Trazado_103206" data-name="Trazado 103206" d="M213.787,892.157l96.022-96.021-2.828-2.828L195.766,904.521l.2.2L69.068,1031.611l2.828,2.828L213.983,892.354Z" fill="#36eae1"/>
                <rect id="Rectángulo_12094" data-name="Rectángulo 12094" width="126.279" height="4" transform="translate(131.605 1027.232) rotate(-45)" fill="#36eae1"/>
                <rect id="Rectángulo_12095" data-name="Rectángulo 12095" width="157.28" height="4" transform="translate(113.766 1068.521) rotate(-45)" fill="#36eae1"/>
                <rect id="Rectángulo_12096" data-name="Rectángulo 12096" width="141.426" height="4" transform="matrix(0.707, -0.707, 0.707, 0.707, 155.363, 1054.635)" fill="#36eae1"/>
                <rect id="Rectángulo_12097" data-name="Rectángulo 12097" width="133.087" height="4" transform="translate(141.281 1096.037) rotate(-44.999)" fill="#36eae1"/>
                <rect id="Rectángulo_12098" data-name="Rectángulo 12098" width="197.421" height="4" transform="translate(87.721 1040.477) rotate(-45)" fill="#36eae1"/>
              </g>
            </g>
          </g>
        </g>
      </g>
    </g>
  </g>
</svg>
