<svg xmlns="http://www.w3.org/2000/svg" xmlns:xlink="http://www.w3.org/1999/xlink" width="372.843" height="213.725" viewBox="0 0 372.843 213.725">
  <defs>
    <linearGradient id="linear-gradient" x1="0.627" y1="0.064" x2="0.07" y2="0.821" gradientUnits="objectBoundingBox">
      <stop offset="0" stop-color="#daf9fe"/>
      <stop offset="1" stop-color="#e9fbfd"/>
    </linearGradient>
    <linearGradient id="linear-gradient-2" x1="0" y1="0.5" x2="1" y2="0.5" xlink:href="#linear-gradient"/>
    <linearGradient id="linear-gradient-5" x1="-3.164" y1="-18.101" x2="-1.59" y2="-9.256" gradientUnits="objectBoundingBox">
      <stop offset="0" stop-color="#fe8256"/>
      <stop offset="1" stop-color="#ffcb48"/>
    </linearGradient>
    <linearGradient id="linear-gradient-6" x1="-3.389" y1="-19.397" x2="-1.815" y2="-10.552" xlink:href="#linear-gradient-5"/>
    <linearGradient id="linear-gradient-7" x1="-2.929" y1="-16.749" x2="-1.355" y2="-7.903" xlink:href="#linear-gradient-5"/>
    <linearGradient id="linear-gradient-8" x1="-2.954" y1="-16.894" x2="-1.38" y2="-8.049" gradientUnits="objectBoundingBox">
      <stop offset="0" stop-color="#00175d"/>
      <stop offset="1" stop-color="#0f3191"/>
    </linearGradient>
    <linearGradient id="linear-gradient-9" x1="-2.418" y1="-13.814" x2="-0.844" y2="-4.969" xlink:href="#linear-gradient-5"/>
    <linearGradient id="linear-gradient-10" x1="0.121" y1="-1.989" x2="0.302" y2="-0.684" xlink:href="#linear-gradient-5"/>
    <linearGradient id="linear-gradient-11" x1="0.581" y1="-0.01" x2="0.7" y2="-1.135" gradientUnits="objectBoundingBox">
      <stop offset="0" stop-color="#4087e2"/>
      <stop offset="1" stop-color="#4f9dff"/>
    </linearGradient>
    <linearGradient id="linear-gradient-12" x1="0.21" y1="1.5" x2="0.45" y2="0.9" xlink:href="#linear-gradient-11"/>
    <linearGradient id="linear-gradient-13" x1="0.677" y1="-0.252" x2="-0.046" y2="2.82" gradientUnits="objectBoundingBox">
      <stop offset="0" stop-color="#fe9c63"/>
      <stop offset="1" stop-color="#ffb374"/>
    </linearGradient>
    <linearGradient id="linear-gradient-14" x1="0.833" y1="-0.853" x2="-0.155" y2="4.367" xlink:href="#linear-gradient-13"/>
    <linearGradient id="linear-gradient-15" x1="0.987" y1="-1.346" x2="-2.154" y2="10.56" xlink:href="#linear-gradient-13"/>
    <linearGradient id="linear-gradient-16" x1="0" y1="0.5" x2="1" y2="0.5" xlink:href="#linear-gradient-13"/>
    <linearGradient id="linear-gradient-17" x1="0" y1="0.5" x2="1" y2="0.5" xlink:href="#linear-gradient-13"/>
    <linearGradient id="linear-gradient-19" x1="0.617" y1="-0.427" x2="0.322" y2="1.873" xlink:href="#linear-gradient-13"/>
    <linearGradient id="linear-gradient-20" x1="1.214" y1="-1.5" x2="-0.527" y2="3.757" xlink:href="#linear-gradient-13"/>
    <linearGradient id="linear-gradient-21" x1="0.763" y1="-0.583" x2="0.022" y2="2.253" xlink:href="#linear-gradient-13"/>
    <linearGradient id="linear-gradient-24" x1="0" y1="0.5" x2="1" y2="0.5" xlink:href="#linear-gradient-13"/>
    <linearGradient id="linear-gradient-25" x1="0" y1="0.5" x2="1" y2="0.5" xlink:href="#linear-gradient-13"/>
    <linearGradient id="linear-gradient-28" x1="0.757" y1="-0.502" x2="0.107" y2="2.138" xlink:href="#linear-gradient-13"/>
    <linearGradient id="linear-gradient-30" x1="0" y1="0.5" x2="1" y2="0.5" xlink:href="#linear-gradient-13"/>
    <linearGradient id="linear-gradient-31" x1="0" y1="0.5" x2="1" y2="0.5" xlink:href="#linear-gradient-13"/>
    <linearGradient id="linear-gradient-33" x1="0" y1="0.5" x2="1" y2="0.5" xlink:href="#linear-gradient-13"/>
    <linearGradient id="linear-gradient-34" x1="0.5" y1="-21.781" x2="0.5" y2="-11.363" xlink:href="#linear-gradient-8"/>
    <linearGradient id="linear-gradient-35" x1="0" y1="0.5" x2="1" y2="0.5" xlink:href="#linear-gradient-8"/>
    <linearGradient id="linear-gradient-36" y1="0.5" x2="1" y2="0.5" gradientUnits="objectBoundingBox">
      <stop offset="0" stop-color="#ffcb48"/>
      <stop offset="1" stop-color="#fec8b1"/>
    </linearGradient>
    <linearGradient id="linear-gradient-37" x1="0.5" y1="-14.764" x2="0.5" y2="-7.555" xlink:href="#linear-gradient-8"/>
    <linearGradient id="linear-gradient-38" x1="0" y1="0.5" x2="1" y2="0.5" xlink:href="#linear-gradient-8"/>
    <linearGradient id="linear-gradient-39" x1="0" y1="0.5" x2="1" y2="0.5" xlink:href="#linear-gradient-36"/>
    <linearGradient id="linear-gradient-40" x1="-0.289" y1="1.193" x2="1.375" y2="0.002" xlink:href="#linear-gradient-8"/>
    <linearGradient id="linear-gradient-41" x1="1.314" y1="-0.062" x2="-2.293" y2="2.028" xlink:href="#linear-gradient-5"/>
    <linearGradient id="linear-gradient-42" x1="0.673" y1="-4.23" x2="1.048" y2="-14.484" xlink:href="#linear-gradient-11"/>
    <linearGradient id="linear-gradient-43" x1="0.25" y1="-1.065" x2="0.483" y2="0.186" xlink:href="#linear-gradient-36"/>
    <linearGradient id="linear-gradient-44" x1="2.844" y1="-0.503" x2="-5.081" y2="3.117" xlink:href="#linear-gradient-5"/>
    <linearGradient id="linear-gradient-45" x1="2.222" y1="-0.121" x2="-8.391" y2="4.13" xlink:href="#linear-gradient-5"/>
    <linearGradient id="linear-gradient-46" x1="0" y1="0.5" x2="1" y2="0.5" xlink:href="#linear-gradient-36"/>
    <linearGradient id="linear-gradient-47" x1="0.504" y1="-0.004" x2="0.489" y2="1.888" xlink:href="#linear-gradient-36"/>
    <linearGradient id="linear-gradient-50" x1="4.301" y1="-0.327" x2="1.523" y2="0.279" xlink:href="#linear-gradient-36"/>
    <linearGradient id="linear-gradient-51" x1="-51.175" y1="189.18" x2="-50.153" y2="189.18" xlink:href="#linear-gradient-8"/>
    <linearGradient id="linear-gradient-52" x1="-248.029" y1="845.832" x2="-244.739" y2="843.476" xlink:href="#linear-gradient-36"/>
    <linearGradient id="linear-gradient-53" x1="0.222" y1="-9.575" x2="0.387" y2="-3.525" xlink:href="#linear-gradient-36"/>
    <linearGradient id="linear-gradient-54" x1="0" y1="0.5" x2="1" y2="0.5" xlink:href="#linear-gradient-36"/>
    <linearGradient id="linear-gradient-55" x1="1.332" y1="-2.382" x2="0.979" y2="-1.236" xlink:href="#linear-gradient-5"/>
    <linearGradient id="linear-gradient-57" x1="-0.021" y1="-0.346" x2="0.342" y2="0.297" xlink:href="#linear-gradient-8"/>
    <linearGradient id="linear-gradient-58" x1="1.449" y1="-0.751" x2="0.781" y2="0.079" xlink:href="#linear-gradient-36"/>
    <linearGradient id="linear-gradient-59" x1="3.948" y1="-6.751" x2="2.319" y2="-3.356" xlink:href="#linear-gradient-8"/>
    <linearGradient id="linear-gradient-60" x1="0.162" y1="1.602" x2="1.197" y2="-1.187" xlink:href="#linear-gradient-36"/>
    <linearGradient id="linear-gradient-61" x1="3.173" y1="-6.553" x2="2.168" y2="-3.775" xlink:href="#linear-gradient-8"/>
    <linearGradient id="linear-gradient-62" x1="0.308" y1="1.698" x2="0.771" y2="-1.193" xlink:href="#linear-gradient-36"/>
    <linearGradient id="linear-gradient-63" x1="0.516" y1="0.411" x2="0.749" y2="2.003" xlink:href="#linear-gradient-5"/>
    <linearGradient id="linear-gradient-64" x1="4.828" y1="-4.305" x2="2.644" y2="-1.881" xlink:href="#linear-gradient-8"/>
    <linearGradient id="linear-gradient-65" x1="0.316" y1="-0.281" x2="0.673" y2="1.373" xlink:href="#linear-gradient-36"/>
    <linearGradient id="linear-gradient-66" x1="2.056" y1="-0.043" x2="0.124" y2="0.527" xlink:href="#linear-gradient-36"/>
    <linearGradient id="linear-gradient-67" x1="0.954" y1="-0.715" x2="0.425" y2="0.863" xlink:href="#linear-gradient-36"/>
    <linearGradient id="linear-gradient-68" x1="0.121" y1="-0.334" x2="0.822" y2="0.994" xlink:href="#linear-gradient-8"/>
    <linearGradient id="linear-gradient-69" x1="2.051" y1="-3.638" x2="0.127" y2="1.447" xlink:href="#linear-gradient-36"/>
    <linearGradient id="linear-gradient-70" x1="2.702" y1="-2.089" x2="0.712" y2="0.219" xlink:href="#linear-gradient-36"/>
    <linearGradient id="linear-gradient-71" x1="1.77" y1="-0.942" x2="-0.638" y2="1.522" xlink:href="#linear-gradient-36"/>
  </defs>
  <g id="Grupo_94346" data-name="Grupo 94346" transform="translate(-1097.036 -733.775)">
    <path id="Trazado_151184" data-name="Trazado 151184" d="M1389.28,904.383a7.024,7.024,0,0,1-2.457-5.01,6.931,6.931,0,0,1,2-5.184c19.091-19.354,77.187-84.915,37.293-129.908-42.785-48.255-94-28.179-117.88-14.357a47.631,47.631,0,0,1-29.627,6.1c-26.13-3.18-75.127-2.056-78.061,50.319a15.437,15.437,0,0,1-12.111,14.312,15.909,15.909,0,0,0-6.764,3.048,25.558,25.558,0,0,1-24.35,4.15c-7.872-2.645-17.482-2.991-27.879,2.929-20.122,11.458-23.177,34.924-16.068,50.285a33.23,33.23,0,0,1,1.228,25.367c-2.648,7.232-1.806,15.7,11.933,20.832,27.73,10.369,184.64,17.4,204.916,15.83C1350.644,941.606,1419.962,930.779,1389.28,904.383Z" transform="translate(3.798)" fill="url(#linear-gradient)"/>
    <g id="Grupo_94285" data-name="Grupo 94285" transform="translate(1097.036 745.998)">
      <g id="Grupo_94282" data-name="Grupo 94282" transform="translate(0 99.249)">
        <path id="Trazado_151185" data-name="Trazado 151185" d="M1166.526,903.469s4.107-47.94-22.476-62.7c-25.5-14.159-32.618-1.623-44.324-20.426a1.077,1.077,0,0,0-1.983.425c-1.4,10.754-3.778,47.179,27,54.432C1160.318,883.582,1166.526,903.469,1166.526,903.469Z" transform="translate(-1097.036 -819.833)" fill="#bdf6fb"/>
        <path id="Trazado_151186" data-name="Trazado 151186" d="M1101.4,828.731a16.486,16.486,0,0,0,1.124,2.672c.237.426.447.868.706,1.282l.768,1.247c.571.794,1.1,1.618,1.734,2.364.31.38.609.766.924,1.14l.992,1.082a48.823,48.823,0,0,0,9.017,7.48,70.56,70.56,0,0,0,10.357,5.536l2.73,1.1c.907.367,1.815.733,2.751,1.091l1.393.544,1.378.584c.924.376,1.82.82,2.729,1.233,1.794.878,3.574,1.8,5.283,2.848.868.5,1.7,1.071,2.539,1.615.817.585,1.65,1.15,2.437,1.778a43.182,43.182,0,0,1,8.474,8.609,47.477,47.477,0,0,1,5.816,10.6c1.51,3.733,2.63,7.579,3.755,11.357h0a1.242,1.242,0,1,1-2.381.71l-.006-.025c-1.053-3.818-2.074-7.6-3.456-11.225a45.42,45.42,0,0,0-5.351-10.247,41.267,41.267,0,0,0-7.943-8.4c-.745-.622-1.537-1.184-2.316-1.765-.806-.543-1.6-1.113-2.43-1.617-1.639-1.053-3.356-1.986-5.093-2.879-.881-.422-1.747-.876-2.648-1.263l-1.339-.6-1.359-.562c-.9-.367-1.82-.758-2.737-1.15L1126.5,852.7a71.692,71.692,0,0,1-10.414-5.842,49.761,49.761,0,0,1-9.03-7.807,28.581,28.581,0,0,1-6.2-10.188.277.277,0,1,1,.53-.166v0Z" transform="translate(-1095.91 -817.272)" fill="url(#linear-gradient-2)"/>
      </g>
      <g id="Grupo_94283" data-name="Grupo 94283" transform="translate(16.479 41.991)">
        <path id="Trazado_151187" data-name="Trazado 151187" d="M1164.667,915.435l-2.944-1.745c1.49-22.895-2.681-64.948-25.56-76.406-15.5-7.761-21.26-16.414-20.1-34.9.771-12.331-3.318-20.856-6.127-25.162a1.026,1.026,0,0,1,1.312-1.482c9.447,4.659,34.059,18.444,45.317,40.36C1170.656,843.536,1164.667,915.435,1164.667,915.435Z" transform="translate(-1109.758 -775.629)" fill="#bdf6fb"/>
        <path id="Trazado_151188" data-name="Trazado 151188" d="M1121.85,788.473a.586.586,0,0,1,.575-1.021,25.272,25.272,0,0,1,3.36,2.3c.525.417,1.054.829,1.549,1.28s1.022.865,1.492,1.339l1.442,1.392c.466.477.917.969,1.375,1.453l.685.728c.228.244.437.505.656.756l1.3,1.521a88.19,88.19,0,0,1,8.923,13.219l.978,1.738.243.435.224.444.447.891,1.79,3.563,1.625,3.639.812,1.82c.256.613.49,1.234.736,1.851l1.457,3.707c.255.614.46,1.246.674,1.874l.641,1.889c.42,1.26.873,2.512,1.263,3.781l1.1,3.829.551,1.914c.19.637.324,1.288.487,1.931l.942,3.87.235.968c.076.324.136.65.2.974l.4,1.951c.261,1.3.54,2.6.789,3.9l.667,3.925.333,1.962.28,1.97.551,3.942c.167,1.316.3,2.636.455,3.953l.222,1.978c.071.659.12,1.321.181,1.981l.346,3.965.263,3.971c.1,1.323.132,2.649.2,3.974s.1,2.651.141,3.978.062,2.654.075,3.982c.026,2.661.014,5.3-.093,7.992a1.242,1.242,0,1,1-2.482-.1v-.034c.129-2.584.171-5.229.171-7.849,0-1.312,0-2.626-.034-3.939s-.042-2.628-.1-3.94-.076-2.628-.159-3.94l-.22-3.937-.3-3.931c-.053-.656-.1-1.311-.158-1.965l-.2-1.961c-.137-1.307-.258-2.617-.409-3.921l-.505-3.911-.257-1.955-.31-1.946-.62-3.892c-.233-1.293-.495-2.58-.74-3.87l-.374-1.935c-.065-.321-.12-.645-.192-.966l-.223-.959-.891-3.837c-.156-.639-.281-1.284-.461-1.915l-.526-1.9-1.049-3.8c-.373-1.258-.808-2.5-1.208-3.745l-.613-1.87c-.2-.623-.4-1.25-.648-1.859l-1.4-3.68c-.237-.613-.461-1.231-.707-1.838l-.784-1.806-1.57-3.611-1.729-3.535-.433-.883-.217-.442-.236-.431-.947-1.724a86.815,86.815,0,0,0-8.645-13.1l-1.258-1.505c-.212-.249-.413-.508-.635-.749l-.663-.72c-.446-.478-.882-.965-1.333-1.436l-1.4-1.374c-.455-.47-.961-.88-1.44-1.321s-.986-.848-1.491-1.258a24.353,24.353,0,0,0-3.146-2.207Z" transform="translate(-1106.275 -772.159)" fill="url(#linear-gradient-2)"/>
      </g>
      <g id="Grupo_94284" data-name="Grupo 94284" transform="translate(56.94)">
        <path id="Trazado_151189" data-name="Trazado 151189" d="M1158.23,922.053a.638.638,0,0,1-1.188-.4c1.556-12.318,7.581-66.295-2.258-94.387-11.022-31.471-32.462-63.051,20.148-84a.784.784,0,0,1,1.012,1.036,28.754,28.754,0,0,0,.6,23.308c6.381,14.218,6.3,38.447-10.888,62.7C1165.652,830.308,1168.4,904.091,1158.23,922.053Z" transform="translate(-1140.995 -743.211)" fill="#bdf6fb"/>
        <path id="Trazado_151190" data-name="Trazado 151190" d="M1165.928,750.421a21.878,21.878,0,0,0-4.148,2.988,31.61,31.61,0,0,0-3.528,3.754l-.781,1.027c-.263.338-.488.707-.734,1.058-.5.7-.918,1.453-1.366,2.186-.224.367-.406.758-.611,1.136s-.411.754-.587,1.146l-.532,1.175-.266.587c-.087.2-.157.4-.236.6a45.805,45.805,0,0,0-2.675,9.945l-.342,2.561-.2,2.576-.048.644-.016.646-.028,1.293-.03,1.293c0,.431.022.863.031,1.294l.082,2.585.208,2.58c.038.43.063.861.109,1.29l.167,1.285.332,2.568.446,2.554.226,1.276.114.639.141.632.563,2.532.281,1.267c.1.42.22.837.329,1.255a153.743,153.743,0,0,0,6.606,19.685l0,.008a1.242,1.242,0,0,1-2.3.935l-.009-.025a156.085,156.085,0,0,1-6.287-20.119c-.1-.429-.212-.854-.307-1.284l-.26-1.294-.519-2.589-.13-.648-.1-.653-.2-1.306c-.134-.87-.276-1.74-.4-2.611l-.284-2.628-.143-1.315c-.038-.439-.056-.88-.084-1.32l-.158-2.64-.029-2.648c0-.44-.016-.882,0-1.323l.057-1.324.058-1.322.029-.662.063-.659.259-2.637.406-2.62a47.062,47.062,0,0,1,2.964-10.168c.085-.2.162-.412.255-.613l.286-.6.574-1.2c.19-.4.421-.779.629-1.168s.415-.782.653-1.155c.477-.746.924-1.512,1.453-2.221.262-.357.5-.731.78-1.074l.826-1.04a32.433,32.433,0,0,1,3.712-3.789,22.493,22.493,0,0,1,4.392-3.018.367.367,0,0,1,.339.652Z" transform="translate(-1138.863 -741.29)" fill="url(#linear-gradient-2)"/>
      </g>
    </g>
    <g id="Grupo_94292" data-name="Grupo 94292" transform="translate(1124.679 764.558)">
      <g id="Grupo_94286" data-name="Grupo 94286" transform="translate(0 54.133)">
        <circle id="Elipse_5088" data-name="Elipse 5088" cx="4.545" cy="4.545" r="4.545" fill="url(#linear-gradient-5)"/>
      </g>
      <g id="Grupo_94287" data-name="Grupo 94287" transform="translate(30.701 60.822)">
        <path id="Trazado_151191" data-name="Trazado 151191" d="M1151.134,808.483a4.545,4.545,0,1,1-5.07-3.952A4.544,4.544,0,0,1,1151.134,808.483Z" transform="translate(-1142.079 -804.496)" fill="url(#linear-gradient-6)"/>
      </g>
      <g id="Grupo_94288" data-name="Grupo 94288" transform="translate(41.034 33.125)">
        <circle id="Elipse_5089" data-name="Elipse 5089" cx="4.545" cy="4.545" r="4.545" transform="translate(0 1.968) rotate(-12.505)" fill="url(#linear-gradient-7)"/>
      </g>
      <g id="Grupo_94289" data-name="Grupo 94289" transform="translate(67.354 30.846)">
        <path id="Trazado_151192" data-name="Trazado 151192" d="M1179.431,785.341a4.545,4.545,0,1,1-5.07-3.952A4.545,4.545,0,0,1,1179.431,785.341Z" transform="translate(-1170.376 -781.354)" fill="url(#linear-gradient-8)"/>
      </g>
      <g id="Grupo_94290" data-name="Grupo 94290" transform="translate(78.467)">
        <path id="Trazado_151193" data-name="Trazado 151193" d="M1188.01,761.526a4.545,4.545,0,1,1-5.07-3.951A4.545,4.545,0,0,1,1188.01,761.526Z" transform="translate(-1178.955 -757.54)" fill="url(#linear-gradient-9)"/>
      </g>
      <g id="Grupo_94291" data-name="Grupo 94291" transform="translate(4.365 4.506)">
        <path id="Trazado_151194" data-name="Trazado 151194" d="M1152.954,822.612l-31.208-6.916.247-1.116,30.277,6.71,11.191-26.564,25.327-3.139,11.087-30.569,1.074.389-11.325,31.227-25.366,3.144Z" transform="translate(-1121.746 -761.018)" fill="url(#linear-gradient-10)"/>
      </g>
    </g>
    <g id="Grupo_94293" data-name="Grupo 94293" transform="translate(1123.82 759.922)">
      <path id="Trazado_151195" data-name="Trazado 151195" d="M1365.189,833.792a1.975,1.975,0,0,1-1.929-1.938c-.2-10.852-3.583-64.736-51.036-76-52.831-12.536-77.008,41.19-77.008,41.19s-65.367-25.073-77.9,42.086c-40.987,9.836-51.636,63.363-24.977,89.518a22.91,22.91,0,0,0,15.847,6.558l256.683,2.312a16.9,16.9,0,0,0,16.353-12.086C1429.236,898.374,1439.746,835.538,1365.189,833.792Z" transform="translate(-1117.714 -753.961)" fill="url(#linear-gradient-11)"/>
      <path id="Trazado_151196" data-name="Trazado 151196" d="M1357.612,833.477a1.977,1.977,0,0,1-1.929-1.934c-.21-10.409-3.562-60.374-48.255-70.848-49.956-11.706-72.817,38.465-72.817,38.465s-61.809-23.412-73.662,39.3c-38.385,9.1-48.629,58.216-24.333,82.886a22.924,22.924,0,0,0,16.129,6.838l241.633,2.15a16.9,16.9,0,0,0,16.365-12.132C1418.279,892.505,1427.22,835.143,1357.612,833.477Z" transform="translate(-1116.003 -752.495)" fill="url(#linear-gradient-12)"/>
    </g>
    <g id="Grupo_94298" data-name="Grupo 94298" transform="translate(1374.014 761.443)">
      <g id="Grupo_94294" data-name="Grupo 94294" transform="translate(8.401 8.145)">
        <path id="Trazado_151197" data-name="Trazado 151197" d="M1323.384,763.817l5.984,9.1h-2.994l1.48,13.277h-8.29l1.579-13.085-3.789-.441Z" transform="translate(-1317.355 -760.716)" fill="#91f4fa"/>
        <path id="Trazado_151198" data-name="Trazado 151198" d="M1334.175,783.885l-5.984-9.185h2.994l-1.48-13.277h8.29l-1.579,13.17,3.789.441Z" transform="translate(-1314.155 -761.423)" fill="#91f4fa"/>
      </g>
      <g id="Grupo_94297" data-name="Grupo 94297">
        <g id="Grupo_94295" data-name="Grupo 94295" opacity="0.64">
          <path id="Trazado_151199" data-name="Trazado 151199" d="M1312.159,777.867a.539.539,0,0,1-.517-.386c-.136-.465-.259-.944-.367-1.424a.538.538,0,0,1,1.051-.234c.1.457.22.913.35,1.355a.54.54,0,0,1-.365.668A.556.556,0,0,1,1312.159,777.867Z" transform="translate(-1310.753 -749.15)" fill="#91f4fa"/>
          <path id="Trazado_151200" data-name="Trazado 151200" d="M1311.408,777.8a.538.538,0,0,1-.539-.538c0-.512.018-1.032.054-1.549.032-.471.08-.944.143-1.407a.538.538,0,1,1,1.066.144c-.058.439-.1.889-.135,1.337-.033.492-.052.988-.052,1.475A.538.538,0,0,1,1311.408,777.8Zm1.31-7.438a.538.538,0,0,1-.507-.723,22.162,22.162,0,0,1,1.2-2.71.538.538,0,1,1,.952.5,20.936,20.936,0,0,0-1.144,2.576A.537.537,0,0,1,1312.718,770.361Zm3.8-6.528a.539.539,0,0,1-.409-.887,22.363,22.363,0,0,1,2.062-2.126.538.538,0,1,1,.72.8,21.425,21.425,0,0,0-1.962,2.023A.536.536,0,0,1,1316.518,763.833Zm5.814-4.821a.539.539,0,0,1-.267-1.006,22.326,22.326,0,0,1,2.666-1.288.538.538,0,1,1,.4,1,21.152,21.152,0,0,0-2.535,1.225A.546.546,0,0,1,1322.332,759.012Zm17.467-1.71a.521.521,0,0,1-.17-.027,21.02,21.02,0,0,0-2.728-.706.538.538,0,0,1,.2-1.058,22.247,22.247,0,0,1,2.868.742.538.538,0,0,1-.17,1.049Zm-10.352-.813a.538.538,0,0,1-.087-1.069,21.969,21.969,0,0,1,2.948-.285.538.538,0,0,1,.031,1.075,21.111,21.111,0,0,0-2.8.271A.525.525,0,0,1,1329.448,756.489Z" transform="translate(-1310.869 -755.135)" fill="#91f4fa"/>
          <path id="Trazado_151201" data-name="Trazado 151201" d="M1337.837,759.353a.529.529,0,0,1-.307-.1c-.381-.264-.776-.521-1.175-.759a.538.538,0,0,1,.556-.922c.418.251.833.519,1.233.8a.538.538,0,0,1-.307.981Z" transform="translate(-1303.42 -754.437)" fill="#91f4fa"/>
        </g>
        <g id="Grupo_94296" data-name="Grupo 94296" transform="translate(8.464 17.261)" opacity="0.64">
          <path id="Trazado_151202" data-name="Trazado 151202" d="M1344.627,770.952a.536.536,0,0,1-.532-.466c-.062-.46-.14-.925-.233-1.379a.539.539,0,1,1,1.056-.214c.1.478.179.966.244,1.449a.537.537,0,0,1-.462.6A.443.443,0,0,1,1344.627,770.952Z" transform="translate(-1309.594 -768.46)" fill="#91f4fa"/>
          <path id="Trazado_151203" data-name="Trazado 151203" d="M1329.871,794.042c-.192,0-.386,0-.579-.008a.537.537,0,0,1-.525-.552.525.525,0,0,1,.552-.523,21.212,21.212,0,0,0,2.769-.11.538.538,0,0,1,.114,1.07A22.224,22.224,0,0,1,1329.871,794.042Zm-5.14-.613a.544.544,0,0,1-.127-.015,22.276,22.276,0,0,1-2.781-.874.538.538,0,1,1,.39-1,20.869,20.869,0,0,0,2.645.83.539.539,0,0,1-.127,1.062Zm11.923-.483a.538.538,0,0,1-.17-1.049,20.792,20.792,0,0,0,2.563-1.045.538.538,0,1,1,.472.968,21.972,21.972,0,0,1-2.7,1.1A.552.552,0,0,1,1336.654,792.946Zm6.537-3.525a.538.538,0,0,1-.334-.961,21.376,21.376,0,0,0,2.062-1.854.538.538,0,0,1,.771.751,22.565,22.565,0,0,1-2.166,1.948A.536.536,0,0,1,1343.192,789.422Zm4.964-5.53a.53.53,0,0,1-.285-.082.538.538,0,0,1-.171-.742,20.929,20.929,0,0,0,1.309-2.443.539.539,0,0,1,.981.446,21.893,21.893,0,0,1-1.378,2.569A.537.537,0,0,1,1348.155,783.892Zm2.789-6.888a.551.551,0,0,1-.113-.012.537.537,0,0,1-.413-.639,21.5,21.5,0,0,0,.4-2.743.538.538,0,1,1,1.073.085,22.3,22.3,0,0,1-.421,2.882A.537.537,0,0,1,1350.944,777Z" transform="translate(-1316.2 -767.086)" fill="#91f4fa"/>
          <path id="Trazado_151204" data-name="Trazado 151204" d="M1319.109,786.924a.535.535,0,0,1-.3-.089c-.406-.271-.808-.558-1.2-.855a.539.539,0,0,1,.655-.855c.369.284.753.557,1.137.813a.538.538,0,0,1-.3.986Z" transform="translate(-1317.404 -763.573)" fill="#91f4fa"/>
        </g>
      </g>
    </g>
    <g id="Grupo_94300" data-name="Grupo 94300" transform="translate(1213.966 882.827)">
      <path id="Trazado_151205" data-name="Trazado 151205" d="M1213.964,877.016h-22.35a4.305,4.305,0,0,1-4.3-4.442l.615-19.558a4.308,4.308,0,0,1,4.76-4.146l22.347,2.385a4.32,4.32,0,0,1,3.846,4.435l-.611,17.173A4.29,4.29,0,0,1,1213.964,877.016ZM1189,853.05l-.615,19.558a3.228,3.228,0,0,0,3.227,3.332h22.35a3.218,3.218,0,0,0,3.228-3.115l.611-17.173a3.241,3.241,0,0,0-2.885-3.326l-22.347-2.383a3.228,3.228,0,0,0-3.57,3.109Z" transform="translate(-1187.308 -848.846)" fill="url(#linear-gradient-13)"/>
      <g id="Grupo_94299" data-name="Grupo 94299" transform="translate(2.835 4.354)" opacity="0.73">
        <path id="Trazado_151206" data-name="Trazado 151206" d="M1211.042,871.011h-19.979a1.566,1.566,0,0,1-1.285-2.46l4.155-5.977a1.566,1.566,0,0,1,2.343-.26l1.583,1.426a.038.038,0,0,0,.03-.023l3.818-8.369a1.567,1.567,0,0,1,2.775-.144l7.909,13.447a1.565,1.565,0,0,1-1.35,2.36Zm-15.795-7.574-.062.008-4.157,5.975a.037.037,0,0,0,0,.044.035.035,0,0,0,.038.023h19.979a.037.037,0,0,0,.038-.022.039.039,0,0,0,0-.043l-7.91-13.447c-.006-.01-.014-.017-.039-.019a.036.036,0,0,0-.036.025l-3.819,8.368a1.566,1.566,0,0,1-2.483.5Z" transform="translate(-1189.497 -851.551)" fill="url(#linear-gradient-14)"/>
        <path id="Trazado_151207" data-name="Trazado 151207" d="M1206.75,859.476a3.634,3.634,0,1,1,3.633-3.633A3.638,3.638,0,0,1,1206.75,859.476Zm0-5.743a2.11,2.11,0,1,0,2.11,2.11A2.113,2.113,0,0,0,1206.75,853.733Z" transform="translate(-1185.476 -852.208)" fill="url(#linear-gradient-15)"/>
      </g>
    </g>
    <g id="Grupo_94303" data-name="Grupo 94303" transform="translate(1219.2 831.402)">
      <path id="Trazado_151208" data-name="Trazado 151208" d="M1213.466,822.4l-.054,0a.831.831,0,0,1-.777-.883c0-.036.2-3.772-2.009-5.958a6.559,6.559,0,0,0-5.312-1.589c-6.017.427-5.717,6.4-5.7,6.655a.833.833,0,0,1-1.663.1c-.167-2.721,1.131-7.984,7.247-8.418a8.134,8.134,0,0,1,6.611,2.075c2.746,2.728,2.5,7.057,2.49,7.239A.834.834,0,0,1,1213.466,822.4Z" transform="translate(-1189.405 -808.22)" fill="url(#linear-gradient-16)"/>
      <path id="Trazado_151209" data-name="Trazado 151209" d="M1204.573,827.31a2.174,2.174,0,1,1,2.175-2.175A2.177,2.177,0,0,1,1204.573,827.31Zm0-3.1a.925.925,0,1,0,.925.925A.926.926,0,0,0,1204.573,824.211Z" transform="translate(-1188.087 -805.065)" fill="url(#linear-gradient-17)"/>
      <g id="Grupo_94302" data-name="Grupo 94302">
        <path id="Trazado_151210" data-name="Trazado 151210" d="M1205.511,832.86l-.266,0a7.794,7.794,0,0,1-5.789-2.115c-2.071-2.1-2.416-5.23-2.339-7.487a2.469,2.469,0,0,1,2.453-2.377h.044l12.961.232a1.788,1.788,0,0,1,1.755,1.746c.044,1.808-.214,5.189-2.453,7.532A8.688,8.688,0,0,1,1205.511,832.86Zm-5.94-10.728a1.214,1.214,0,0,0-1.2,1.17c-.056,1.648.127,4.69,1.979,6.568a6.763,6.763,0,0,0,5.14,1.741,7.493,7.493,0,0,0,5.49-2.079c1.927-2.017,2.148-5.024,2.106-6.638a.538.538,0,0,0-.527-.528l-12.961-.232Z" transform="translate(-1189.649 -805.679)" fill="url(#linear-gradient-16)"/>
        <g id="Grupo_94301" data-name="Grupo 94301">
          <path id="Trazado_151211" data-name="Trazado 151211" d="M1199.872,840.4c-.214,0-.421,0-.62-.006-3.51-.073-4.2-.7-4.412-1.168-1.234-2.714-5.329-23.841-2.532-27.313a.356.356,0,0,1,.228-.13c4.493-.655,27-3.839,28.846-2.15,2.023,1.847,2.984,24.033,1.793,26.384C1222.13,838.078,1207.078,840.4,1199.872,840.4Zm-7.085-27.929c-2.28,3.386,1.437,23.665,2.707,26.458.051.113.474.679,3.772.747,8.039.175,22.537-2.537,23.269-3.983,1.245-2.457-.146-24.169-1.636-25.53C1219.672,809.043,1203.071,810.977,1192.787,812.471Z" transform="translate(-1191.349 -809.145)" fill="url(#linear-gradient-19)"/>
        </g>
      </g>
    </g>
    <g id="Grupo_94305" data-name="Grupo 94305" transform="translate(1276.488 899.838)">
      <path id="Trazado_151212" data-name="Trazado 151212" d="M1247.231,883.778c-2.132,0-4.381-.9-5.015-2.233-.219-.458-.544-1.644,1.172-2.745a4.792,4.792,0,0,1,3.773-.96,2.46,2.46,0,0,1,1.528,1.172.538.538,0,0,1-.96.488,1.423,1.423,0,0,0-.877-.628,3.917,3.917,0,0,0-2.885.834c-.73.469-.992.931-.781,1.374.506,1.06,3.434,2.123,5.654,1.383,2.039-.679,1.021-8.839-.352-14.417a.538.538,0,0,1,.725-.627c.2.082,4.938,2.041,6.212,5.708a5.97,5.97,0,0,1-.619,5.066.537.537,0,1,1-.935-.53,4.945,4.945,0,0,0,.538-4.182c-.788-2.265-3.231-3.847-4.615-4.588.858,3.8,2.693,13.489-.613,14.59A6.2,6.2,0,0,1,1247.231,883.778Z" transform="translate(-1233.669 -860.384)" fill="url(#linear-gradient-20)"/>
      <g id="Grupo_94304" data-name="Grupo 94304">
        <path id="Trazado_151213" data-name="Trazado 151213" d="M1254.513,892.373a86.945,86.945,0,0,1-14.233-1.061c-3.447-.663-4.019-1.4-4.15-1.894-.762-2.882-1.244-24.4,2.1-27.35a.38.38,0,0,1,.246-.089c4.539.11,27.26.758,28.8,2.733,1.684,2.161-1.1,24.191-2.67,26.309C1263.895,891.973,1259.543,892.373,1254.513,892.373ZM1238.605,862.7c-2.817,2.955-2.565,23.569-1.782,26.536.032.12.354.75,3.593,1.373,7.9,1.517,22.642,1.289,23.607-.014,1.641-2.212,3.921-23.849,2.681-25.441C1265.685,863.843,1249,862.956,1238.605,862.7Z" transform="translate(-1235.577 -861.979)" fill="url(#linear-gradient-21)"/>
      </g>
    </g>
    <g id="Grupo_94307" data-name="Grupo 94307" transform="translate(1269.203 785.099)">
      <g id="Grupo_94306" data-name="Grupo 94306">
        <path id="Trazado_151214" data-name="Trazado 151214" d="M1238.476,804.653c-.215,0-.421,0-.622-.006-3.51-.074-4.2-.7-4.411-1.168-1.234-2.712-5.33-23.841-2.532-27.313a.358.358,0,0,1,.228-.131c4.492-.656,27-3.837,28.846-2.149,2.023,1.847,2.983,24.033,1.791,26.384C1260.735,802.331,1245.682,804.653,1238.476,804.653Zm-7.085-27.929c-2.281,3.386,1.435,23.665,2.706,26.456.052.114.475.68,3.773.749,8.035.163,22.536-2.537,23.267-3.983,1.245-2.457-.146-24.169-1.636-25.529C1258.275,773.3,1241.674,775.229,1231.391,776.724Z" transform="translate(-1229.953 -773.398)" fill="url(#linear-gradient-16)"/>
      </g>
      <path id="Trazado_151215" data-name="Trazado 151215" d="M1238.893,797.816a5.281,5.281,0,0,1-2.751-.409c-1.133-1.13-3.106-10.581-1.974-14.29.327-1.069.883-1.686,1.654-1.835l.785-.153c2.465-.481,7.037-1.374,10.98-1.887a5.93,5.93,0,0,0,.294-.978c.208-.851.346-1.412.791-1.462,4.764-.525,5.611-.01,5.813.563.328.931,1.275,5.275,1.96,9.271,1.407,8.217.718,8.7.422,8.905-.8.562-6.625,1.355-10.343,1.75C1243.936,797.564,1241,797.816,1238.893,797.816Zm-2.935-15.83c-.49.095-.86.545-1.1,1.341-1.155,3.785,1.109,12.888,1.793,13.571.4.3,3.683.334,9.918-.334,5.36-.574,9.443-1.3,9.892-1.611.045-.061.538-.921-.754-8.4-.729-4.217-1.623-8.182-1.894-8.952-.012-.026-.327-.6-4.957-.1a6.167,6.167,0,0,0-.275.931c-.206.841-.356,1.448-.81,1.508-3.94.508-8.549,1.408-11.024,1.891Z" transform="translate(-1228.809 -772.458)" fill="url(#linear-gradient-16)"/>
      <path id="Trazado_151216" data-name="Trazado 151216" d="M1235.945,783.155a.359.359,0,0,1-.356-.323.851.851,0,0,1,.593-.867,3.531,3.531,0,0,1,1.087-.264.359.359,0,0,1,.073.715,2.754,2.754,0,0,0-.852.2c-.132.062-.189.122-.186.145a.357.357,0,0,1-.32.392Z" transform="translate(-1228.29 -770.947)" fill="url(#linear-gradient-24)"/>
      <path id="Trazado_151217" data-name="Trazado 151217" d="M1238.995,782.235a.359.359,0,0,1-.091-.706,29.053,29.053,0,0,1,6.654-.917.359.359,0,0,1-.008.718h-.009a28.276,28.276,0,0,0-6.456.894A.362.362,0,0,1,1238.995,782.235Z" transform="translate(-1227.389 -771.269)" fill="url(#linear-gradient-25)"/>
    </g>
    <g id="Grupo_94319" data-name="Grupo 94319" transform="translate(1334.779 773.363)">
      <g id="Grupo_94314" data-name="Grupo 94314" transform="translate(21.528 22.695)">
        <g id="Grupo_94308" data-name="Grupo 94308" transform="translate(0 20.435)">
          <path id="Trazado_151218" data-name="Trazado 151218" d="M1335.322,833.571a.359.359,0,0,1-.15-.685c.425-.194.854-.4,1.277-.619a.359.359,0,1,1,.326.639c-.431.222-.87.434-1.3.633A.358.358,0,0,1,1335.322,833.571Z" transform="translate(-1286.048 -787.42)" fill="#91f4fa"/>
          <path id="Trazado_151219" data-name="Trazado 151219" d="M1332.036,845.586c-.2,0-.389,0-.582-.005a.358.358,0,0,1-.354-.364.364.364,0,0,1,.365-.354c.19,0,.386.012.57.005.777,0,1.565-.027,2.343-.082a.364.364,0,0,1,.382.334.357.357,0,0,1-.333.382C1333.635,845.558,1332.829,845.586,1332.036,845.586Zm-5.341-.415a.42.42,0,0,1-.056,0c-.974-.154-1.956-.351-2.917-.588a.359.359,0,1,1,.172-.7c.94.232,1.9.425,2.856.575a.359.359,0,0,1-.056.714Zm12.447-.32a.359.359,0,0,1-.073-.71c.949-.2,1.9-.44,2.825-.716a.359.359,0,1,1,.2.688c-.943.282-1.913.528-2.884.73A.359.359,0,0,1,1339.142,844.852Zm-19.888-1.728a.347.347,0,0,1-.133-.026c-.915-.367-1.826-.778-2.711-1.224a.359.359,0,1,1,.323-.641c.866.437,1.76.839,2.655,1.2a.359.359,0,0,1-.134.692Zm-6.8-3.653a.355.355,0,0,1-.2-.063c-.811-.561-1.61-1.164-2.375-1.794a.359.359,0,0,1,.456-.554c.749.618,1.531,1.209,2.326,1.758a.359.359,0,0,1-.2.654Zm-5.82-5.065a.355.355,0,0,1-.264-.117c-.67-.727-1.315-1.492-1.918-2.273a.359.359,0,1,1,.567-.439c.592.766,1.224,1.514,1.879,2.227a.36.36,0,0,1-.022.508A.355.355,0,0,1,1306.638,834.407Zm-4.55-6.227a.358.358,0,0,1-.312-.18c-.491-.861-.949-1.75-1.363-2.645a.359.359,0,1,1,.652-.3c.4.876.854,1.747,1.334,2.589a.359.359,0,0,1-.134.49A.37.37,0,0,1,1302.087,828.18Zm-3.048-7.085a.358.358,0,0,1-.343-.255c-.285-.944-.534-1.913-.737-2.882a.359.359,0,0,1,.7-.148c.2.948.443,1.9.721,2.822a.357.357,0,0,1-.24.447A.352.352,0,0,1,1299.04,821.095Zm-1.4-7.589a.359.359,0,0,1-.357-.333c-.058-.829-.088-1.67-.088-2.5,0-.159,0-.319,0-.478a.358.358,0,0,1,.359-.354h.005a.358.358,0,0,1,.354.363c0,.157,0,.312,0,.469,0,.81.028,1.633.087,2.445a.359.359,0,0,1-.333.383Zm.315-7.71a.4.4,0,0,1-.055,0,.358.358,0,0,1-.3-.409c.15-.975.346-1.957.579-2.92a.359.359,0,0,1,.7.17c-.229.942-.421,1.9-.569,2.859A.359.359,0,0,1,1297.959,805.8Z" transform="translate(-1297.199 -796.291)" fill="#91f4fa"/>
          <path id="Trazado_151220" data-name="Trazado 151220" d="M1299.44,799.675a.37.37,0,0,1-.133-.026.36.36,0,0,1-.2-.466c.179-.446.368-.9.565-1.334a.359.359,0,1,1,.655.293c-.193.43-.38.87-.553,1.307A.358.358,0,0,1,1299.44,799.675Z" transform="translate(-1296.643 -797.636)" fill="#91f4fa"/>
        </g>
        <g id="Grupo_94309" data-name="Grupo 94309" transform="translate(21.461)">
          <path id="Trazado_151221" data-name="Trazado 151221" d="M1314.127,784.665a.358.358,0,0,1-.136-.69c.447-.183.9-.356,1.355-.519a.359.359,0,0,1,.242.675c-.443.159-.888.33-1.325.509A.364.364,0,0,1,1314.127,784.665Z" transform="translate(-1313.767 -781.394)" fill="#91f4fa"/>
          <path id="Trazado_151222" data-name="Trazado 151222" d="M1358.93,826.873a.35.35,0,0,1-.1-.016.358.358,0,0,1-.242-.446c.271-.913.505-1.848.7-2.781a.358.358,0,0,1,.7.145c-.2.952-.435,1.908-.713,2.839A.358.358,0,0,1,1358.93,826.873Zm1.337-7.475h-.023a.359.359,0,0,1-.334-.382c.049-.745.074-1.5.074-2.249,0-.206,0-.412-.005-.618a.359.359,0,0,1,.353-.365h.007a.359.359,0,0,1,.359.352c0,.211.005.421.005.632,0,.762-.026,1.535-.075,2.3A.359.359,0,0,1,1360.267,819.4Zm-.333-7.585a.359.359,0,0,1-.355-.3c-.145-.942-.332-1.887-.553-2.812a.359.359,0,0,1,.7-.168c.227.944.416,1.911.565,2.872a.36.36,0,0,1-.3.409A.386.386,0,0,1,1359.934,811.813Zm-1.97-7.33a.36.36,0,0,1-.334-.228c-.346-.886-.736-1.769-1.157-2.623a.359.359,0,0,1,.645-.317c.429.872.826,1.773,1.181,2.679a.36.36,0,0,1-.2.465A.356.356,0,0,1,1357.964,804.483Zm-3.53-6.716a.361.361,0,0,1-.3-.158c-.532-.788-1.106-1.563-1.7-2.3a.359.359,0,0,1,.558-.451c.611.758,1.2,1.549,1.741,2.354a.357.357,0,0,1-.1.5A.353.353,0,0,1,1354.434,797.767Zm-4.92-5.78a.356.356,0,0,1-.246-.1c-.692-.653-1.421-1.284-2.166-1.878a.359.359,0,1,1,.447-.561c.76.606,1.505,1.251,2.211,1.917a.359.359,0,0,1-.246.62Zm-6.061-4.572a.36.36,0,0,1-.184-.051c-.816-.487-1.665-.944-2.523-1.361a.359.359,0,0,1,.315-.646c.876.426,1.742.894,2.576,1.39a.36.36,0,0,1-.184.668Zm-6.913-3.142a.339.339,0,0,1-.111-.018c-.907-.3-1.835-.556-2.76-.775a.359.359,0,0,1,.164-.7c.944.223,1.893.49,2.819.791a.359.359,0,0,1-.111.7Zm-17.885-.942a.359.359,0,0,1-.074-.71c.947-.2,1.918-.364,2.887-.486a.362.362,0,0,1,.4.311.357.357,0,0,1-.311.4c-.949.12-1.9.281-2.828.477A.374.374,0,0,1,1318.656,783.33Zm10.449-.6h-.034c-.947-.089-1.909-.14-2.863-.149a.359.359,0,0,1,0-.718h0c.973.009,1.957.061,2.924.152a.359.359,0,0,1-.034.716Z" transform="translate(-1312.429 -781.859)" fill="#91f4fa"/>
          <path id="Trazado_151223" data-name="Trazado 151223" d="M1347.995,821.489a.347.347,0,0,1-.162-.039.358.358,0,0,1-.158-.482c.212-.422.418-.852.613-1.28a.358.358,0,1,1,.653.3c-.2.435-.408.876-.625,1.307A.36.36,0,0,1,1347.995,821.489Z" transform="translate(-1303.766 -770.75)" fill="#91f4fa"/>
        </g>
        <g id="Grupo_94313" data-name="Grupo 94313" transform="translate(7.885 8.184)">
          <g id="Grupo_94310" data-name="Grupo 94310">
            <path id="Trazado_151224" data-name="Trazado 151224" d="M1352.253,829.665a.416.416,0,0,0,.038-.479l-2.588-4.326a21.935,21.935,0,0,0,2.151-6.78l4.6-2.045a.411.411,0,0,0,.245-.413l-.518-6.024a.415.415,0,0,0-.312-.365L1350.988,808a21.945,21.945,0,0,0-3.278-6.313l1.811-4.7a.414.414,0,0,0-.119-.465l-4.627-3.892a.414.414,0,0,0-.479-.039l-4.325,2.588a21.965,21.965,0,0,0-6.78-2.151l-2.045-4.6a.413.413,0,0,0-.413-.245l-6.025.518a.414.414,0,0,0-.365.312l-1.228,4.886a21.942,21.942,0,0,0-6.313,3.277l-4.7-1.811a.412.412,0,0,0-.465.12l-3.894,4.626a.416.416,0,0,0-.038.479l2.588,4.325a21.939,21.939,0,0,0-2.151,6.781l-4.6,2.044a.413.413,0,0,0-.245.414l.518,6.023a.415.415,0,0,0,.312.366l4.885,1.228a21.98,21.98,0,0,0,3.278,6.313l-1.811,4.7a.416.416,0,0,0,.119.466l4.627,3.892a.414.414,0,0,0,.479.039l4.325-2.588a21.933,21.933,0,0,0,6.781,2.15l2.044,4.6a.413.413,0,0,0,.414.245l6.023-.518a.415.415,0,0,0,.367-.312l1.227-4.885a21.942,21.942,0,0,0,6.313-3.278l4.7,1.811a.414.414,0,0,0,.465-.119Z" transform="translate(-1303.287 -788.177)" fill="#91f4fa"/>
          </g>
          <g id="Grupo_94311" data-name="Grupo 94311" transform="translate(20.979 20.979)">
            <path id="Trazado_151225" data-name="Trazado 151225" d="M1325.217,815.83a5.73,5.73,0,1,1,1.868-.315A5.737,5.737,0,0,1,1325.217,815.83Zm0-10.739a5.013,5.013,0,1,0,4.73,3.374h0a5.017,5.017,0,0,0-4.73-3.374Z" transform="translate(-1319.483 -804.373)" fill="#bdf6fb"/>
          </g>
          <g id="Grupo_94312" data-name="Grupo 94312" transform="translate(11.655 11.685)">
            <path id="Trazado_151226" data-name="Trazado 151226" d="M1327.222,827.1a14.967,14.967,0,0,1-14.88-13.667c-.039-.438-.057-.873-.057-1.307a14.948,14.948,0,0,1,29.841-1.256c.036.431.056.865.056,1.3a14.95,14.95,0,0,1-.119,1.883.359.359,0,0,1-.715-.044c0-.016,0-.031,0-.047a14.265,14.265,0,0,0,.114-1.794q0-.618-.053-1.236c-.016-.184-.035-.368-.058-.549a14.23,14.23,0,0,0-28.35,1.746q0,.62.053,1.244a14.233,14.233,0,0,0,22.5,10.322.359.359,0,0,1,.421.582,14.943,14.943,0,0,1-7.466,2.769Q1327.864,827.1,1327.222,827.1Z" transform="translate(-1312.285 -797.198)" fill="#bdf6fb"/>
          </g>
        </g>
      </g>
      <g id="Grupo_94315" data-name="Grupo 94315" transform="translate(3.553 3.547)">
        <path id="Trazado_151227" data-name="Trazado 151227" d="M1311.363,789.026l-1.637-2.3a12.31,12.31,0,0,0,.9-3.882l2.48-1.347a.231.231,0,0,0,.118-.241l-.557-3.342a.233.233,0,0,0-.19-.19l-2.784-.469a12.307,12.307,0,0,0-2.11-3.381l.8-2.707a.23.23,0,0,0-.088-.255l-2.756-1.969a.232.232,0,0,0-.269,0l-2.3,1.637a12.314,12.314,0,0,0-3.882-.9l-1.347-2.481a.23.23,0,0,0-.242-.118l-3.341.557a.228.228,0,0,0-.19.19l-.469,2.782a12.311,12.311,0,0,0-3.381,2.111l-2.708-.8a.233.233,0,0,0-.254.088l-1.969,2.756a.23.23,0,0,0,0,.269l1.637,2.3a12.3,12.3,0,0,0-.9,3.882l-2.481,1.346a.236.236,0,0,0-.119.242l.558,3.342a.231.231,0,0,0,.19.19l2.782.469a12.311,12.311,0,0,0,2.111,3.381l-.8,2.707a.235.235,0,0,0,.088.255l2.756,1.969a.234.234,0,0,0,.269,0l2.3-1.637a12.32,12.32,0,0,0,3.883.9l1.346,2.48a.232.232,0,0,0,.242.118l3.342-.557a.234.234,0,0,0,.191-.19l.469-2.782a12.362,12.362,0,0,0,3.381-2.111l2.707.8a.232.232,0,0,0,.255-.087l1.969-2.758A.231.231,0,0,0,1311.363,789.026Z" transform="translate(-1283.322 -767.076)" fill="#91f4fa"/>
      </g>
      <g id="Grupo_94316" data-name="Grupo 94316" transform="translate(15.137 15.131)">
        <path id="Trazado_151228" data-name="Trazado 151228" d="M1295.634,782.756a3.367,3.367,0,0,1-1.35-6.452,3.364,3.364,0,0,1,4.434,1.734h0a3.369,3.369,0,0,1-3.084,4.718Zm0-6.018a2.65,2.65,0,1,0,2.427,1.588h0a2.651,2.651,0,0,0-2.427-1.588Z" transform="translate(-1292.265 -776.019)" fill="#bdf6fb"/>
      </g>
      <g id="Grupo_94317" data-name="Grupo 94317" transform="translate(0 15.872)">
        <path id="Trazado_151229" data-name="Trazado 151229" d="M1303.849,790.111a.359.359,0,0,1-.228-.637c.36-.3.714-.61,1.051-.934a.359.359,0,0,1,.5.517c-.35.337-.718.664-1.092.973A.362.362,0,0,1,1303.849,790.111Z" transform="translate(-1273.813 -773.092)" fill="#bdf6fb"/>
        <path id="Trazado_151230" data-name="Trazado 151230" d="M1299,796.366a18.5,18.5,0,0,1-2.451-.163.359.359,0,1,1,.094-.711,17.6,17.6,0,0,0,2.775.152.353.353,0,0,1,.366.35.359.359,0,0,1-.35.368C1299.295,796.365,1299.15,796.366,1299,796.366Zm4.971-.7a.359.359,0,0,1-.1-.7,17.918,17.918,0,0,0,2.254-.812c.118-.052.234-.1.35-.157a.358.358,0,1,1,.3.65c-.12.057-.242.111-.364.165a18.647,18.647,0,0,1-2.344.844A.37.37,0,0,1,1303.976,795.667Zm-11.818-.643a.35.35,0,0,1-.135-.026,18.659,18.659,0,0,1-2.584-1.291.359.359,0,1,1,.369-.615,18.069,18.069,0,0,0,2.486,1.242.358.358,0,0,1-.136.69Zm-6.141-4.115a.359.359,0,0,1-.256-.107,18.417,18.417,0,0,1-1.854-2.218.359.359,0,0,1,.584-.416,17.65,17.65,0,0,0,1.782,2.131.359.359,0,0,1-.256.61Zm-3.986-6.228a.36.36,0,0,1-.336-.231,18.607,18.607,0,0,1-.82-2.772.359.359,0,0,1,.7-.149,17.81,17.81,0,0,0,.789,2.664.36.36,0,0,1-.207.464A.371.371,0,0,1,1282.031,784.681Z" transform="translate(-1280.493 -775.217)" fill="#bdf6fb"/>
        <path id="Trazado_151231" data-name="Trazado 151231" d="M1280.938,778.737h-.018a.358.358,0,0,1-.341-.376c.022-.488.065-.979.126-1.457a.359.359,0,1,1,.712.091c-.058.46-.1.931-.122,1.4A.36.36,0,0,1,1280.938,778.737Z" transform="translate(-1280.579 -776.591)" fill="#bdf6fb"/>
      </g>
      <g id="Grupo_94318" data-name="Grupo 94318" transform="translate(6.689)">
        <path id="Trazado_151232" data-name="Trazado 151232" d="M1286.1,768.372a.359.359,0,0,1-.227-.637c.378-.307.773-.6,1.172-.877a.359.359,0,1,1,.407.592c-.385.264-.763.548-1.127.842A.353.353,0,0,1,1286.1,768.372Z" transform="translate(-1285.743 -763.612)" fill="#bdf6fb"/>
        <path id="Trazado_151233" data-name="Trazado 151233" d="M1314.316,780.339a.359.359,0,0,1-.354-.3,17.892,17.892,0,0,0-.639-2.657.359.359,0,0,1,.683-.221,18.507,18.507,0,0,1,.664,2.764.359.359,0,0,1-.3.411A.281.281,0,0,1,1314.316,780.339Zm-2.561-6.808a.359.359,0,0,1-.3-.168,17.737,17.737,0,0,0-1.624-2.2.359.359,0,0,1,.542-.47,18.6,18.6,0,0,1,1.692,2.285.359.359,0,0,1-.114.495A.353.353,0,0,1,1311.755,773.531Zm-5.025-5.258a.359.359,0,0,1-.2-.063,17.892,17.892,0,0,0-2.359-1.38.359.359,0,0,1,.313-.645,18.75,18.75,0,0,1,2.455,1.434.359.359,0,0,1-.206.654Zm-16.639-2.114a.359.359,0,0,1-.124-.7,18.463,18.463,0,0,1,2.733-.78.359.359,0,1,1,.143.7,17.849,17.849,0,0,0-2.627.749A.352.352,0,0,1,1290.091,766.159Zm9.954-.75a.354.354,0,0,1-.074-.008,17.721,17.721,0,0,0-2.708-.347.359.359,0,0,1-.341-.376.37.37,0,0,1,.376-.341,18.483,18.483,0,0,1,2.82.36.359.359,0,0,1-.073.711Z" transform="translate(-1284.565 -764.338)" fill="#bdf6fb"/>
        <path id="Trazado_151234" data-name="Trazado 151234" d="M1308.76,781.778a.352.352,0,0,1-.062-.005.36.36,0,0,1-.291-.416c.08-.462.144-.931.186-1.392a.359.359,0,0,1,.715.066c-.045.481-.11.969-.194,1.451A.359.359,0,0,1,1308.76,781.778Z" transform="translate(-1279.052 -759.819)" fill="#bdf6fb"/>
      </g>
      <path id="Trazado_151235" data-name="Trazado 151235" d="M1296.76,789.071a8.55,8.55,0,0,1-8.413-7.132,8.646,8.646,0,0,1-.118-1.42,8.534,8.534,0,0,1,16.952-1.386h0c.008.052.017.1.025.155a8.6,8.6,0,0,1,.087,1.57l0,.088a.359.359,0,0,1-.718-.017v-.017c.005-.12.008-.242.008-.364a7.949,7.949,0,0,0-.108-1.3,7.813,7.813,0,1,0-2.648,7.242.359.359,0,1,1,.465.547,8.569,8.569,0,0,1-5.53,2.031Z" transform="translate(-1278.319 -762.074)" fill="#bdf6fb"/>
    </g>
    <path id="Trazado_151236" data-name="Trazado 151236" d="M1264.99,817.065V817h-.078a24.063,24.063,0,0,0-30.886,0l-.082,0v.066a24.119,24.119,0,1,0,31.043-.005Zm6.036,26.4-5.142-.045a30.677,30.677,0,0,0,1.049-7.514l5.348-.034.157,0A22.814,22.814,0,0,1,1271.026,843.462Zm-44.521-7.587,4.277.032a31.787,31.787,0,0,0,.266,3.636,29.425,29.425,0,0,0,.786,3.885l-3.359.022-.554.019A22.853,22.853,0,0,1,1226.505,835.875Zm1.642-8.9.079.079,3.746.031c-.034.117-.073.231-.1.348a29.123,29.123,0,0,0-.818,3.991c-.139,1.039-.224,2.1-.259,3.18l-4.138.025-.135.005A22.8,22.8,0,0,1,1228.148,826.972Zm36.156,16.436-8.129-.025c.242-2.35.368-4.815.385-7.435l4.32-.008,4.508-.028a29.182,29.182,0,0,1-1,7.207C1264.362,843.217,1264.332,843.311,1264.3,843.408Zm.091-15.567a29.1,29.1,0,0,1,.984,6.743l-8.826-.025a68.892,68.892,0,0,0-.487-7.434l3.9-.009,4.206-.028C1264.249,827.338,1264.324,827.588,1264.394,827.842Zm-11.326,23.964H1246a10.227,10.227,0,0,1-.4-1.266c-.232-.938-.435-1.809-.62-2.874-.168-.973-.313-1.917-.436-2.946l4.932.039,5.056,0q-.181,1.5-.421,2.9c-.185,1.071-.386,1.844-.614,2.777A9.72,9.72,0,0,1,1253.068,851.806Zm-3.6-8.443-5.083.009c-.053-.545-.1-1.1-.144-1.671-.139-1.865-.208-3.8-.211-5.752l5.44.013,5.585-.01c-.01,1.924-.083,3.824-.223,5.654-.045.608-.1,1.2-.155,1.773Zm-5.085-16.238,5.088.014,5.123-.01c.084.727.161,1.465.224,2.236.14,1.688.216,3.43.234,5.192l-5.584-.016-5.438.009c.012-1.843.067-3.522.168-5.1C1244.249,828.645,1244.313,827.878,1244.383,827.125Zm7.834-10.216-2.749-.014-3.059.006c.11-.292.22-.565.334-.823a9.782,9.782,0,0,1,.672-1.277,4.289,4.289,0,0,1,.856-1.023,1.86,1.86,0,0,1,.487-.3,1.175,1.175,0,0,1,.453-.093h.035a1.3,1.3,0,0,1,.494.124,2.254,2.254,0,0,1,.5.324,4.912,4.912,0,0,1,.891,1.021A12.029,12.029,0,0,1,1252.217,816.909Zm-6.278,1.4,3.532.006,3.277-.009c.216.629.42,1.3.614,2.035.249.942.465,1.912.663,2.966.148.789.275,1.6.39,2.424l-4.947-.016-4.94.009c.092-.8.193-1.594.312-2.363.167-1.074.351-2.053.562-2.992C1245.571,819.625,1245.748,818.947,1245.939,818.311Zm7.745-1.4a14.343,14.343,0,0,0-1.465-2.819c-.106-.152-.211-.29-.316-.422.223.056.447.11.668.179a14.014,14.014,0,0,1,3.411,1.583,15.723,15.723,0,0,1,1.966,1.5Zm-7.379-2.834a11.1,11.1,0,0,0-.781,1.444c-.192.42-.375.873-.556,1.378h-.328q-1.314,0-2.624.01l-2.2.017a15.869,15.869,0,0,1,1.948-1.488,14.051,14.051,0,0,1,3.409-1.588,13.005,13.005,0,0,1,1.569-.368A7.1,7.1,0,0,0,1246.3,814.082Zm-1.352,39.518a1.6,1.6,0,0,0,.194.535,14.082,14.082,0,0,0,1.439,2.907c.113.165.224.312.337.453a12.96,12.96,0,0,1-1.745-.405,14.109,14.109,0,0,1-3.407-1.57,17.916,17.916,0,0,1-2.43-1.92Zm4.406,4.036a1.252,1.252,0,0,1-.273-.074,1.956,1.956,0,0,1-.482-.3,4.465,4.465,0,0,1-.87-1,12.606,12.606,0,0,1-1.269-2.622c-.006-.017-.012-.04-.017-.04h6.172a13.132,13.132,0,0,1-1.236,2.594,4.674,4.674,0,0,1-.86,1.026,2.115,2.115,0,0,1-.483.317,1.264,1.264,0,0,1-.228.08C1249.66,857.63,1249.509,857.63,1249.358,857.636Zm3.184-.69a14.551,14.551,0,0,0,1.414-2.905c.054-.148.106-.44.158-.44h4.3a17.984,17.984,0,0,1-2.439,1.924,14.132,14.132,0,0,1-3.412,1.574c-.05.016-.1.023-.151.038C1252.454,857.073,1252.5,857.012,1252.542,856.946Zm3.338-31.209q-.2-1.368-.459-2.7c-.218-1.091-.452-2.092-.719-3.061-.165-.592-.334-1.146-.51-1.675l2.732-.008,2.382-.02a20.426,20.426,0,0,1,1.983,2.557,23.8,23.8,0,0,1,2.44,4.929Zm-13.866-7.439c.833.006,1.666.008,2.5.009-.161.549-.315,1.127-.462,1.749-.229.968-.43,1.975-.613,3.08-.14.843-.261,1.707-.37,2.593l-4.093.008-4.944.032a23.774,23.774,0,0,1,2.434-4.927,20.336,20.336,0,0,1,1.992-2.571Zm-8.289,8.8,9.185.025c-.074.723-.142,1.456-.2,2.223-.075,1.018-.133,2.066-.172,3.116-.023.633-.044,1.35-.054,2.092l-4.425.008-5.675.032c.03-1,.109-1.992.234-2.962a28.658,28.658,0,0,1,.746-3.782c.07-.254.145-.5.22-.753Zm-.354,16.018a28.568,28.568,0,0,1-.749-3.781,30.28,30.28,0,0,1-.245-3.414l10.106.026c.02,1.994.1,3.969.262,5.874.043.53.092,1.047.145,1.556l-3.918.008-5.511.035C1233.431,843.317,1233.4,843.217,1233.372,843.115Zm9.678,1.653c.14,1.119.3,2.2.494,3.256.2,1.1.418,1.9.666,2.868.1.39.2.915.308.915h-6.47a6.723,6.723,0,0,1-1.575-1.894,23.189,23.189,0,0,1-2.6-5.273Zm11.5,7.039c.114-.359.225-.585.333-1.009.245-.969.46-1.935.658-3.035.184-1.032.341-2.056.474-3.132h3.952l3.92.04a22.746,22.746,0,0,1-2.606,5.217,6.938,6.938,0,0,1-1.573,1.918Zm12.373-17.214a30.575,30.575,0,0,0-1.073-7.157c-.035-.12-.073-.237-.109-.356l4.717-.032.364-.009a22.817,22.817,0,0,1,1.6,7.6Zm-4.917-17.633-2.032-.01c-.026-.027-.051-.056-.077-.082a18.229,18.229,0,0,0-3.2-2.578,15.7,15.7,0,0,0-2.482-1.26,22.853,22.853,0,0,1,8.805,3.943Zm-20.972-2.675a18.148,18.148,0,0,0-3.2,2.575c-.028.028-.054.06-.083.088l-.785.006c-.347,0-.693.008-1.039.012a22.932,22.932,0,0,1,5.8-3.087C1241.5,814.009,1241.263,814.14,1241.034,814.284Zm-5.715,39.316h2c.167.359.334.352.505.526a18.246,18.246,0,0,0,3.2,2.575c.275.171.553.329.834.483a22.926,22.926,0,0,1-6.552-3.595Zm21.393,3.088a18.149,18.149,0,0,0,3.2-2.57c.168-.171.333-.159.5-.518h3.231a22.994,22.994,0,0,1-9.564,4.431A15.75,15.75,0,0,0,1256.712,856.688Zm13.582-30.877-4.976-.044a25.4,25.4,0,0,0-2.838-5.728,21.818,21.818,0,0,0-1.325-1.777l.738-.006c.829-.009,1.659-.018,2.478-.032l.207-.005A23.109,23.109,0,0,1,1270.294,825.811Zm-35.939-7.583.2,0c.672.012,1.343.018,2.014.025a22.1,22.1,0,0,0-1.327,1.775,25.49,25.49,0,0,0-2.851,5.75l-3.742.023A23.094,23.094,0,0,1,1234.355,818.228Zm-5.934,26.471,3.811.031a24.221,24.221,0,0,0,3.005,6.008,9.268,9.268,0,0,0,.927,1.069h-.846c-.374,0-.68.51-.68.887a1.824,1.824,0,0,0,.019.255A22.74,22.74,0,0,1,1228.421,844.7Zm36.789,7.321c-.03,0-.058-.214-.088-.214h-3.563a9.191,9.191,0,0,0,.931-1.078,24.839,24.839,0,0,0,3-6.1l4.973.017.069-.078A22.749,22.749,0,0,1,1265.21,852.02Z" transform="translate(37.892 22.92)" fill="url(#linear-gradient-16)"/>
    <g id="Grupo_94320" data-name="Grupo 94320" transform="translate(1331.105 866.074)">
      <path id="Trazado_151237" data-name="Trazado 151237" d="M1285.443,862.6a2.3,2.3,0,0,1-2.292-2.3V843.263a.359.359,0,1,1,.718,0V860.3a1.58,1.58,0,0,0,1.672,1.576l20.19-1.2a1.579,1.579,0,0,0,1.484-1.575V842.369a1.579,1.579,0,0,0-1.733-1.57l-16.8,1.663a1.579,1.579,0,0,0-1.122,2.5l6.405,8.84a1.564,1.564,0,0,0,1.266.653,1.581,1.581,0,0,0,1.275-.631l7.057-9.4a.359.359,0,1,1,.574.431l-7.057,9.4a2.273,2.273,0,0,1-1.835.918h-.019a2.276,2.276,0,0,1-1.841-.95l-6.405-8.84a2.3,2.3,0,0,1,1.633-3.632l16.795-1.663a2.294,2.294,0,0,1,2.522,2.284V859.1a2.3,2.3,0,0,1-2.159,2.292l-20.19,1.2C1285.536,862.6,1285.489,862.6,1285.443,862.6Z" transform="translate(-1276.145 -834.684)" fill="url(#linear-gradient-16)"/>
      <path id="Trazado_151238" data-name="Trazado 151238" d="M1311.338,870.5H1283.7a5.179,5.179,0,0,1-5.194-5.013l-.756-21.24a5.215,5.215,0,0,1,4.644-5.353l27.637-2.948a5.2,5.2,0,0,1,5.746,5.005l.761,24.188a5.2,5.2,0,0,1-5.2,5.361Zm-.749-33.508a4.38,4.38,0,0,0-.449.023l-27.637,2.949a4.133,4.133,0,0,0-3.681,4.243l.755,21.24a4.107,4.107,0,0,0,4.119,3.975h27.642a4.122,4.122,0,0,0,4.119-4.251l-.762-24.188a4.121,4.121,0,0,0-4.106-3.992Z" transform="translate(-1277.742 -835.913)" fill="url(#linear-gradient-28)"/>
    </g>
    <g id="Grupo_94321" data-name="Grupo 94321" transform="translate(1319.987 818.795)">
      <path id="Trazado_151239" data-name="Trazado 151239" d="M1285.224,825.294a64.991,64.991,0,0,1-11.346-.874c-2.969-.6-3.473-1.308-3.593-1.786-.6-2.387-2.554-20.3.725-23.134a.352.352,0,0,1,.248-.087c4.386.155,26.34,1.03,27.792,2.938,1.578,2.071-2.718,19.615-4.2,21.572C1294.121,824.884,1289.894,825.294,1285.224,825.294Zm-13.842-25.159c-2.7,2.76-1.1,19.552-.4,22.322.028.113.31.7,3.041,1.26a64.038,64.038,0,0,0,12.159.867c5.045-.071,7.734-.618,8.1-1.1.68-.9,2.057-5.5,3.135-10.474,1.354-6.256,1.512-9.646,1.066-10.23C1297.522,801.528,1281.418,800.5,1271.383,800.136Z" transform="translate(-1269.159 -799.413)" fill="url(#linear-gradient-16)"/>
      <path id="Trazado_151240" data-name="Trazado 151240" d="M1275.537,817.007h-1.89a.358.358,0,0,1-.359-.359v-5.654a.359.359,0,0,1,.359-.359h1.89a.359.359,0,0,1,.359.359v5.654A.358.358,0,0,1,1275.537,817.007Zm-1.531-.718h1.172v-4.936h-1.172Z" transform="translate(-1267.94 -796.099)" fill="url(#linear-gradient-30)"/>
      <path id="Trazado_151241" data-name="Trazado 151241" d="M1278.571,817.845h-2.583a.357.357,0,0,1-.359-.359v-9.333a.358.358,0,0,1,.359-.359h2.583a.359.359,0,0,1,.359.359v9.333A.358.358,0,0,1,1278.571,817.845Zm-2.224-.718h1.865v-8.615h-1.865Z" transform="translate(-1267.249 -796.937)" fill="url(#linear-gradient-31)"/>
      <path id="Trazado_151242" data-name="Trazado 151242" d="M1282.559,818.3h-3.587a.358.358,0,0,1-.359-.359V806.629a.359.359,0,0,1,.359-.359h3.587a.359.359,0,0,1,.359.359v11.308A.358.358,0,0,1,1282.559,818.3Zm-3.228-.718h2.869v-10.59h-2.869Z" transform="translate(-1266.367 -797.388)" fill="url(#linear-gradient-25)"/>
      <path id="Trazado_151243" data-name="Trazado 151243" d="M1287.73,818.837h-4.292a.358.358,0,0,1-.36-.359V804.8a.359.359,0,0,1,.36-.359h4.292a.358.358,0,0,1,.359.359v13.681A.357.357,0,0,1,1287.73,818.837Zm-3.934-.718h3.575V805.157H1283.8Z" transform="translate(-1265.049 -797.929)" fill="url(#linear-gradient-33)"/>
    </g>
    <g id="Grupo_94322" data-name="Grupo 94322" transform="translate(1365.953 904.463)">
      <path id="Trazado_151244" data-name="Trazado 151244" d="M1367.193,870.21h-60.217a2.329,2.329,0,0,1-2.33-2.33h0a2.33,2.33,0,0,1,2.33-2.33h60.217a2.331,2.331,0,0,1,2.33,2.33h0A2.33,2.33,0,0,1,1367.193,870.21Z" transform="translate(-1304.646 -865.55)" fill="#7dddf4"/>
      <path id="Trazado_151245" data-name="Trazado 151245" d="M1372.779,877.258h-60.217a2.33,2.33,0,0,1-2.33-2.33h0a2.329,2.329,0,0,1,2.33-2.33h60.217a2.33,2.33,0,0,1,2.33,2.33h0A2.331,2.331,0,0,1,1372.779,877.258Z" transform="translate(-1302.996 -863.469)" fill="#7dddf4"/>
      <path id="Trazado_151246" data-name="Trazado 151246" d="M1355.656,891.351h-43.093a2.33,2.33,0,0,1-2.33-2.33h0a2.329,2.329,0,0,1,2.33-2.33h43.093a2.33,2.33,0,0,1,2.33,2.33h0A2.331,2.331,0,0,1,1355.656,891.351Z" transform="translate(-1302.996 -859.307)" fill="#7dddf4"/>
      <path id="Trazado_151247" data-name="Trazado 151247" d="M1377.992,884.3h-60.217a2.33,2.33,0,0,1-2.33-2.33h0a2.331,2.331,0,0,1,2.33-2.33h60.217a2.33,2.33,0,0,1,2.33,2.33h0A2.33,2.33,0,0,1,1377.992,884.3Z" transform="translate(-1301.457 -861.388)" fill="#7dddf4"/>
    </g>
    <g id="Grupo_94323" data-name="Grupo 94323" transform="translate(1133.924 828.313)">
      <path id="Trazado_151248" data-name="Trazado 151248" d="M1188.061,811.42h-60.217a2.331,2.331,0,0,1-2.33-2.33h0a2.33,2.33,0,0,1,2.33-2.33h60.217a2.329,2.329,0,0,1,2.33,2.33h0A2.33,2.33,0,0,1,1188.061,811.42Z" transform="translate(-1125.514 -806.76)" fill="#7dddf4"/>
      <path id="Trazado_151249" data-name="Trazado 151249" d="M1193.647,818.466H1133.43a2.33,2.33,0,0,1-2.33-2.33h0a2.329,2.329,0,0,1,2.33-2.329h60.217a2.329,2.329,0,0,1,2.33,2.329h0A2.33,2.33,0,0,1,1193.647,818.466Z" transform="translate(-1123.865 -804.679)" fill="#7dddf4"/>
      <path id="Trazado_151250" data-name="Trazado 151250" d="M1176.523,832.56H1133.43a2.33,2.33,0,0,1-2.33-2.33h0a2.33,2.33,0,0,1,2.33-2.33h43.093a2.33,2.33,0,0,1,2.33,2.33h0A2.33,2.33,0,0,1,1176.523,832.56Z" transform="translate(-1123.865 -800.517)" fill="#7dddf4"/>
      <path id="Trazado_151251" data-name="Trazado 151251" d="M1198.861,825.513h-60.217a2.33,2.33,0,0,1-2.33-2.33h0a2.33,2.33,0,0,1,2.33-2.33h60.217a2.331,2.331,0,0,1,2.33,2.33h0A2.33,2.33,0,0,1,1198.861,825.513Z" transform="translate(-1122.325 -802.598)" fill="#7dddf4"/>
    </g>
    <g id="Grupo_94336" data-name="Grupo 94336" transform="translate(1133.052 775.432)">
      <g id="Grupo_94335" data-name="Grupo 94335">
        <g id="Grupo_94333" data-name="Grupo 94333" transform="translate(36.957)">
          <g id="Grupo_94329" data-name="Grupo 94329" transform="translate(0 12.76)">
            <g id="Grupo_94324" data-name="Grupo 94324" transform="translate(17.418 64.555)">
              <path id="Trazado_151252" data-name="Trazado 151252" d="M1175.312,829.62c-1.5.13-4.1.339-6.143.43a5.92,5.92,0,0,1-2.349-.229l0,.13a.426.426,0,0,0,.4.4,71.667,71.667,0,0,0,8.044.008.3.3,0,0,0,.245-.453A2.624,2.624,0,0,0,1175.312,829.62Z" transform="translate(-1166.819 -824.444)" fill="url(#linear-gradient-34)"/>
              <path id="Trazado_151253" data-name="Trazado 151253" d="M1169.169,830.739c2.048-.091,4.646-.3,6.143-.43-1.473-1.806-6.143-3.022-6.143-3.022h-1.319a5.537,5.537,0,0,0-1.03,3.223A5.92,5.92,0,0,0,1169.169,830.739Z" transform="translate(-1166.82 -825.133)" fill="url(#linear-gradient-35)"/>
              <path id="Trazado_151254" data-name="Trazado 151254" d="M1167.443,825.624l.123,2.443a.559.559,0,0,0,.477.525,2.174,2.174,0,0,0,.991-.082.66.66,0,0,0,.444-.508l.426-2.378Z" transform="translate(-1166.635 -825.624)" fill="url(#linear-gradient-36)"/>
            </g>
            <g id="Grupo_94326" data-name="Grupo 94326" transform="translate(0 62.272)">
              <g id="Grupo_94325" data-name="Grupo 94325" transform="translate(0 2.268)">
                <path id="Trazado_151255" data-name="Trazado 151255" d="M1154.463,830.118a1.185,1.185,0,0,1-1.066-.789l0,.01a.843.843,0,0,0,.569.961,3.72,3.72,0,0,0,1.574.247,1.568,1.568,0,0,0,1.181-.545l0,0A3.976,3.976,0,0,1,1154.463,830.118Z" transform="translate(-1153.372 -824.514)" fill="url(#linear-gradient-37)"/>
                <path id="Trazado_151256" data-name="Trazado 151256" d="M1157.518,825.612h-1.088c-1.657-.034-2.7,3.461-3.039,4.815a1.184,1.184,0,0,0,1.066.789,3.976,3.976,0,0,0,2.258-.119,10.389,10.389,0,0,0,1.553-3.912A1.373,1.373,0,0,0,1157.518,825.612Z" transform="translate(-1153.367 -825.612)" fill="url(#linear-gradient-38)"/>
              </g>
              <path id="Trazado_151257" data-name="Trazado 151257" d="M1155.987,823.861l-.6,2.4a.651.651,0,0,0,.338.74,2.313,2.313,0,0,0,1.251.3.543.543,0,0,0,.444-.364l.887-2.527Z" transform="translate(-1152.784 -823.861)" fill="url(#linear-gradient-39)"/>
            </g>
            <path id="Trazado_151258" data-name="Trazado 151258" d="M1155.289,832.187c.751.666,3.2.754,3.2.754,8.807-21.137,12.409-24.139,12.409-24.139-1.271,7.978-.2,25.641-.2,25.641a5.287,5.287,0,0,0,3.328,0,136.134,136.134,0,0,1,4.5-33.432c-5.953-.133-9.117-2.171-10.151-2.988C1163.4,806.022,1155.289,832.187,1155.289,832.187Z" transform="translate(-1152.806 -769.22)" fill="url(#linear-gradient-40)"/>
            <path id="Trazado_151259" data-name="Trazado 151259" d="M1167.02,779.289c-1.127,5.62-.723,15.678-.458,20.266.075,1.289-.825,3.076-1.553,4.3a.383.383,0,0,0,.154.537,26.564,26.564,0,0,0,10.128,2.808.682.682,0,0,0,.687-.51,133.187,133.187,0,0,1,7.668-21.712C1179.1,777.711,1167.02,779.289,1167.02,779.289Z" transform="translate(-1149.952 -774.794)" fill="url(#linear-gradient-41)"/>
            <path id="Trazado_151260" data-name="Trazado 151260" d="M1167.864,806.753a.291.291,0,0,1-.146-.041.282.282,0,0,1-.093-.387,8.847,8.847,0,0,1,3.491-3.032.283.283,0,0,1,.246.509,8.445,8.445,0,0,0-3.256,2.816A.282.282,0,0,1,1167.864,806.753Z" transform="translate(-1149.176 -767.672)" fill="url(#linear-gradient-42)"/>
            <g id="Grupo_94327" data-name="Grupo 94327" transform="translate(9.856 4.495)">
              <path id="Trazado_151261" data-name="Trazado 151261" d="M1161.093,791.8a19.329,19.329,0,0,0,3.57,8.506l.813-.663a25.1,25.1,0,0,1-.406-8.129A9.723,9.723,0,0,0,1161.093,791.8Z" transform="translate(-1160.948 -775.668)" fill="url(#linear-gradient-43)"/>
              <path id="Trazado_151262" data-name="Trazado 151262" d="M1169.451,786.19l-1.258-6.934s-8.408,6.427-7.067,16.129a9.723,9.723,0,0,1,3.978-.286A13.609,13.609,0,0,1,1169.451,786.19Z" transform="translate(-1160.981 -779.256)" fill="url(#linear-gradient-44)"/>
            </g>
            <g id="Grupo_94328" data-name="Grupo 94328" transform="translate(30.448 10.181)">
              <path id="Trazado_151263" data-name="Trazado 151263" d="M1180.124,783.646l-3.245,6.989c.525,4.22,2.792,6.045,5.236,6.745a14.861,14.861,0,0,1,1.089-4.552C1180.081,789.6,1180.124,783.646,1180.124,783.646Z" transform="translate(-1176.879 -783.646)" fill="url(#linear-gradient-45)"/>
              <path id="Trazado_151264" data-name="Trazado 151264" d="M1182.01,790.735a14.861,14.861,0,0,0-1.089,4.552c6.521,2.53,8.246-2.377,8.246-2.377l-1.2-.213A6.835,6.835,0,0,1,1182.01,790.735Z" transform="translate(-1175.685 -781.553)" fill="url(#linear-gradient-46)"/>
            </g>
            <path id="Trazado_151265" data-name="Trazado 151265" d="M1178.47,777.339,1176.9,783.1a1.119,1.119,0,0,1-1.5.746,22.985,22.985,0,0,1-2.259-1.032,1.509,1.509,0,0,1-.532-2.17l3.258-4.856Z" transform="translate(-1147.766 -775.786)" fill="url(#linear-gradient-47)"/>
          </g>
          <path id="Trazado_151266" data-name="Trazado 151266" d="M1199.209,789.438l-40.148,14.612a3.074,3.074,0,0,0-1.746,4.162l.122.268a2.856,2.856,0,0,0,3.8,1.409l38.982-18.033Z" transform="translate(-1152.29 -758.995)" fill="url(#linear-gradient-38)"/>
          <g id="Grupo_94330" data-name="Grupo 94330" transform="translate(45.554 2.194)" opacity="0.17">
            <ellipse id="Elipse_5090" data-name="Elipse 5090" cx="19.819" cy="19.461" rx="19.819" ry="19.461" fill="#bdf6fb"/>
          </g>
          <path id="Trazado_151267" data-name="Trazado 151267" d="M1208.868,765.935a21.658,21.658,0,1,0,22.052,21.655A21.856,21.856,0,0,0,1208.868,765.935Zm0,40.128a18.477,18.477,0,1,1,18.813-18.474A18.645,18.645,0,0,1,1208.868,806.063Z" transform="translate(-1143.496 -765.935)" fill="url(#linear-gradient-38)"/>
          <g id="Grupo_94331" data-name="Grupo 94331" transform="translate(44.681 1.31)">
            <path id="Trazado_151268" data-name="Trazado 151268" d="M1188.182,790a.179.179,0,0,1-.177-.157c-.066-.516-.111-1.038-.137-1.556a.18.18,0,1,1,.359-.017c.024.508.07,1.021.135,1.527a.18.18,0,0,1-.155.2Zm.152-6.056-.031,0a.178.178,0,0,1-.145-.208,19.979,19.979,0,0,1,1.19-4.078h0a20.64,20.64,0,0,1,19.209-12.715,20.924,20.924,0,0,1,11.124,3.179.179.179,0,1,1-.19.3,20.571,20.571,0,0,0-10.934-3.124A20.282,20.282,0,0,0,1189.68,779.8h0a19.553,19.553,0,0,0-1.17,4.005A.181.181,0,0,1,1188.333,783.949Z" transform="translate(-1187.867 -766.946)" fill="#91f4fa"/>
          </g>
          <g id="Grupo_94332" data-name="Grupo 94332" transform="translate(26.849 6.843)">
            <path id="Trazado_151269" data-name="Trazado 151269" d="M1180.859,773.817c.014.1-1.307,6.574-1.307,6.574l-3.68-.833.341-6.323S1180.621,772.161,1180.859,773.817Z" transform="translate(-1173.577 -770.723)" fill="url(#linear-gradient-50)"/>
            <path id="Trazado_151270" data-name="Trazado 151270" d="M1177.551,775.139l-.44,3.313a.471.471,0,0,0,0,.127c.036.259.231,1.144,1.123.891a4.188,4.188,0,0,1,2.066-.269.467.467,0,0,1,.321.539,20.211,20.211,0,0,1-.847,3.017.466.466,0,0,1-.566.276,15.157,15.157,0,0,1-3.245-1.328.468.468,0,0,1-.227-.421c.035-.836.134-3.379.051-4.092-.078-.67-.9-1.07-1.255-1.214a.46.46,0,0,1-.255-.256,1.209,1.209,0,0,1,.813-1.764.469.469,0,0,0,.3-.6,1.213,1.213,0,0,1,.68-1.676,1.709,1.709,0,0,1,2.041.492.466.466,0,0,0,.594.07.369.369,0,0,1,.421.014.46.46,0,0,0,.651-.2,1.393,1.393,0,0,1,1.619-.807c1.65.282,1.837,2.11,1.4,3.181s-2.206.663-3.094.123a2,2,0,0,0-1.933.25A.462.462,0,0,0,1177.551,775.139Z" transform="translate(-1174.088 -771.218)" fill="url(#linear-gradient-51)"/>
            <path id="Trazado_151271" data-name="Trazado 151271" d="M1175.653,777.351s.677-1.9-.019-2.364-1.728-.224-1.5,1.152C1174.415,777.85,1175.653,777.351,1175.653,777.351Z" transform="translate(-1174.1 -770.168)" fill="url(#linear-gradient-52)"/>
          </g>
          <path id="Trazado_151272" data-name="Trazado 151272" d="M1164.388,797.745l3.8-.31,1.644,1.516s-.389.538-1.6.228a17.472,17.472,0,0,0-2.881-.385s-1.679.756-1.7-.658Z" transform="translate(-1150.339 -756.633)" fill="url(#linear-gradient-53)"/>
          <path id="Trazado_151273" data-name="Trazado 151273" d="M1187,793.762c.329.256,1.453-.278,2.141-.649a.791.791,0,0,0,.382-.935c-.166-.522-.442-1.2-.781-1.281C1188.181,790.755,1185.651,792.7,1187,793.762Z" transform="translate(-1143.557 -758.566)" fill="url(#linear-gradient-54)"/>
          <path id="Trazado_151274" data-name="Trazado 151274" d="M1159.678,806.28a.162.162,0,0,1-.06-.01c-1.584-.548-1.953-1.487-1.983-2.179a2.418,2.418,0,0,1,1.578-2.332l4.82-1.88a.179.179,0,1,1,.131.334l-4.821,1.88a2.062,2.062,0,0,0-1.349,1.982c.036.844.623,1.469,1.742,1.856a.179.179,0,0,1-.058.349Z" transform="translate(-1152.114 -755.915)" fill="#91f4fa"/>
          <path id="Trazado_151275" data-name="Trazado 151275" d="M1163.812,799.834a.179.179,0,0,1-.065-.346l.624-.244a.179.179,0,1,1,.131.334l-.625.244A.187.187,0,0,1,1163.812,799.834Z" transform="translate(-1150.343 -756.102)" fill="#91f4fa"/>
        </g>
        <g id="Grupo_94334" data-name="Grupo 94334" transform="translate(0 83.337)">
          <path id="Trazado_151276" data-name="Trazado 151276" d="M1176.542,916.356a.7.7,0,0,1-.706-.7V831.369a.705.705,0,0,1,1.411,0v84.283A.7.7,0,0,1,1176.542,916.356Z" transform="translate(-1109.782 -830.158)" fill="#bdf6fb"/>
          <path id="Trazado_151277" data-name="Trazado 151277" d="M1161.79,916.356a.7.7,0,0,1-.706-.7V831.369a.705.705,0,0,1,1.411,0v84.283A.7.7,0,0,1,1161.79,916.356Z" transform="translate(-1114.138 -830.158)" fill="#bdf6fb"/>
          <path id="Trazado_151278" data-name="Trazado 151278" d="M1125.546,916.891a.719.719,0,0,1-.276-.056.707.707,0,0,1-.373-.925l36.058-84.818a.705.705,0,0,1,1.3.553l-36.058,84.816A.7.7,0,0,1,1125.546,916.891Z" transform="translate(-1124.841 -830.158)" fill="#bdf6fb"/>
          <path id="Trazado_151279" data-name="Trazado 151279" d="M1142.741,916.891a.718.718,0,0,1-.276-.056.707.707,0,0,1-.373-.925l36.057-84.818a.705.705,0,0,1,1.3.553l-36.057,84.816A.7.7,0,0,1,1142.741,916.891Z" transform="translate(-1119.763 -830.158)" fill="#bdf6fb"/>
          <path id="Trazado_151280" data-name="Trazado 151280" d="M1184.983,832.26h-33.03a.994.994,0,0,1-.993-.994h0a.994.994,0,0,1,.993-.993h33.03a.993.993,0,0,1,.993.993h0A.993.993,0,0,1,1184.983,832.26Z" transform="translate(-1117.128 -830.273)" fill="#bdf6fb"/>
          <path id="Trazado_151281" data-name="Trazado 151281" d="M1171.465,842.086h-22.339a.7.7,0,0,1,0-1.409h22.339a.7.7,0,0,1,0,1.409Z" transform="translate(-1117.877 -827.201)" fill="#bdf6fb"/>
          <rect id="Rectngulo_36014" data-name="Rectngulo 36014" width="22.338" height="1.41" transform="translate(24.395 29.517)" fill="#bdf6fb"/>
          <rect id="Rectngulo_36015" data-name="Rectngulo 36015" width="22.338" height="1.41" transform="translate(17.76 45.558)" fill="#bdf6fb"/>
          <path id="Trazado_151282" data-name="Trazado 151282" d="M1155.678,879.239h-22.337a.705.705,0,1,1,0-1.411h22.337a.705.705,0,1,1,0,1.411Z" transform="translate(-1122.539 -816.23)" fill="#bdf6fb"/>
          <path id="Trazado_151283" data-name="Trazado 151283" d="M1150.485,891.622h-22.339a.7.7,0,0,1,0-1.409h22.339a.7.7,0,0,1,0,1.409Z" transform="translate(-1124.073 -812.573)" fill="#bdf6fb"/>
        </g>
      </g>
      <path id="Trazado_151284" data-name="Trazado 151284" d="M1195.452,780.581l7.306,5.687,14.026-11.5,3.619,4.132-17.644,18.461-11.305-12.383Z" transform="translate(-1105.171 -763.326)" fill="url(#linear-gradient-55)"/>
    </g>
    <g id="Grupo_94338" data-name="Grupo 94338" transform="translate(1403.733 789.309)">
      <path id="Trazado_151285" data-name="Trazado 151285" d="M1345.7,931.254s-20.856-39.29-7.317-65.54c12.855-24.922,24.665-69.662,13.867-87.988a.709.709,0,0,1,.995-.957c9.026,5.875,34.612,26.605,12.348,61.67C1339.016,880.3,1330.158,876.364,1345.7,931.254Z" transform="translate(-1333.813 -776.648)" fill="#bdf6fb"/>
      <g id="Grupo_94337" data-name="Grupo 94337" transform="translate(6.353 35.125)">
        <path id="Trazado_151286" data-name="Trazado 151286" d="M1346.979,923.061c.009.083-.119.1-.151.028-1.344-3.221-12.707-31.4-6.017-48.233,6.75-16.984,41.925-45,36.037-70.357a.6.6,0,0,1,1.083-.453c6.2,9.827,21.445,38.375,6.394,61.378C1365.861,893.639,1340.56,866.631,1346.979,923.061Z" transform="translate(-1338.717 -803.766)" fill="#bdf6fb"/>
        <path id="Trazado_151287" data-name="Trazado 151287" d="M1378.3,817.16a19.326,19.326,0,0,1,1.812,5.347,27.8,27.8,0,0,1,.372,2.8,26.527,26.527,0,0,1,.031,2.835,25.27,25.27,0,0,1-.872,5.611,28.823,28.823,0,0,1-2.011,5.313,32.213,32.213,0,0,1-2.937,4.843c-.541.773-1.138,1.5-1.727,2.233-.3.36-.618.708-.925,1.063l-.465.528-.486.505a64.367,64.367,0,0,1-8.391,7.343c-2.957,2.214-6.03,4.189-8.719,6.495a28.116,28.116,0,0,0-3.683,3.753,24.4,24.4,0,0,0-2.808,4.423,32.333,32.333,0,0,0-1.929,4.947l-.371,1.287c-.116.431-.211.87-.321,1.3-.23.867-.382,1.755-.566,2.637a94.592,94.592,0,0,0-1.279,10.792v.008a.51.51,0,0,1-1.019-.042l.036-2.755c.023-.918.078-1.837.117-2.756.058-.918.137-1.838.207-2.758.111-.917.2-1.837.333-2.753a39.56,39.56,0,0,1,2.952-10.79,26.263,26.263,0,0,1,2.933-4.885,28.69,28.69,0,0,1,3.888-4.145c1.41-1.247,2.892-2.376,4.369-3.469s2.951-2.161,4.394-3.246a61.95,61.95,0,0,0,8.055-7.1,38.488,38.488,0,0,0,6.268-8.519,27.725,27.725,0,0,0,3.11-10,25.422,25.422,0,0,0,.006-5.29,25.013,25.013,0,0,0-.427-2.626,17.461,17.461,0,0,0-.743-2.535l-.012-.028a.444.444,0,0,1,.805-.373Z" transform="translate(-1337.745 -799.88)" fill="url(#linear-gradient-2)"/>
      </g>
    </g>
    <g id="Grupo_94341" data-name="Grupo 94341" transform="translate(1362.276 861.154)">
      <path id="Trazado_151288" data-name="Trazado 151288" d="M1318.59,840.755s1.666.809,1.973,1.741c.246.747,2.088.843,2.269,2.312a1.688,1.688,0,0,0,1.411,1.482c1.882.287,4.781,1.266,5.245,4.532.355,2.492-.917,3.438-2.25,3.766a1.889,1.889,0,0,0-1.433,2.182c.189.948-.095,2.045-1.737,2.913-3.684,1.943-7.362-4.6-7.362-4.6l-.754-11.434Z" transform="translate(-1297.631 -829.562)" fill="url(#linear-gradient-57)"/>
      <path id="Trazado_151289" data-name="Trazado 151289" d="M1304.782,836.1s4.739,12.919,12.814,16.958c0,0-2.688,4.386-4.091,4.651,0,0-8.627-11.041-9.506-20.088Z" transform="translate(-1301.16 -830.937)" fill="url(#linear-gradient-58)"/>
      <path id="Trazado_151290" data-name="Trazado 151290" d="M1329.678,896.271l.238,1.96a2.622,2.622,0,0,0,1.3,1.357,5.941,5.941,0,0,0,1.887.11c.433-.045.86-1.2.728-1.618a7.133,7.133,0,0,0-1.313-2.56h-2.173A.67.67,0,0,0,1329.678,896.271Z" transform="translate(-1293.579 -813.39)" fill="url(#linear-gradient-59)"/>
      <path id="Trazado_151291" data-name="Trazado 151291" d="M1316.906,878.38l-.367,2.158s1.228,12.444,1.447,17.422a3.892,3.892,0,0,1-.576,2.216l-2.137,3.47,5.43-3.2.108-.662-.889-1.223,1.164-13.94a4.28,4.28,0,0,0-.487-2.366l-1.123-2.109Z" transform="translate(-1297.831 -818.452)" fill="url(#linear-gradient-60)"/>
      <path id="Trazado_151292" data-name="Trazado 151292" d="M1315.1,899.448h1.733a1.042,1.042,0,0,0,.828-.407c.54-.7,1.659-2.071,2.194-2.106.72-.048.628,2.513.628,2.513h.4l.512-3.182a1.885,1.885,0,0,0-.988-1.969h0a2.668,2.668,0,0,1-1.058,1.756c-.893.539-3.633,2.468-3.633,2.468a2.49,2.49,0,0,0-.7.018A.459.459,0,0,0,1315.1,899.448Z" transform="translate(-1298.017 -813.751)" fill="url(#linear-gradient-61)"/>
      <path id="Trazado_151293" data-name="Trazado 151293" d="M1322.275,879.375s7.2,13.652,8.342,16.77a30.014,30.014,0,0,1,1.561,5.964c.023.385.5.754,1.821.754a1.265,1.265,0,0,0,1.177-.538.77.77,0,0,0,.03-.745c-.417-.842-1.738-3.535-2.228-4.756-.584-1.459-1.841-8.066-2.53-10.364a12.185,12.185,0,0,0-4.47-7.085S1323.919,877.357,1322.275,879.375Z" transform="translate(-1295.764 -818.423)" fill="url(#linear-gradient-62)"/>
      <path id="Trazado_151294" data-name="Trazado 151294" d="M1321.073,865.654c-1.856-7.868,2.847-12.317,2.847-12.317-2.968-2.848-8.375-4.145-8.375-4.145s-5.159,3.772-4.546,6.724c.359,1.731,3.625,10.365,3.625,10.365A7.179,7.179,0,0,0,1321.073,865.654Z" transform="translate(-1299.109 -827.071)" fill="url(#linear-gradient-63)"/>
      <path id="Trazado_151295" data-name="Trazado 151295" d="M1324.464,865.795c-.755-2.276-4.116-3.894-4.116-3.894a7.179,7.179,0,0,1-6.449.627,8.976,8.976,0,0,0-.21,5c2.233,7.049,3.718,21.9,3.4,17.878,4.624.937,11.735-.943,11.735-.943C1325.881,879.232,1325.219,868.072,1324.464,865.795Z" transform="translate(-1298.382 -823.318)" fill="url(#linear-gradient-64)"/>
      <path id="Trazado_151296" data-name="Trazado 151296" d="M1317.766,845.325l1.51,6.781c.144.6-.4.5-1,.385-.99-.187-2.263-.57-2.689-1.339a.7.7,0,0,1-.078-.255l-.649-4.7a.845.845,0,0,1,.495-.887l1.251-.556A.845.845,0,0,1,1317.766,845.325Z" transform="translate(-1297.957 -828.404)" fill="url(#linear-gradient-65)"/>
      <path id="Trazado_151297" data-name="Trazado 151297" d="M1321.514,852.392s10.535,7.537,1.347,15.457a2.367,2.367,0,0,1-1.04.6,11.571,11.571,0,0,0-1.9,1.289.356.356,0,0,1-.522-.093h0a.487.487,0,0,1-.029-.469l1.3-2.758a1.007,1.007,0,0,1,1.307-.057h0a.5.5,0,0,0,.753-.17c.71-1.447,2.052-5.7-3.438-10.509a.6.6,0,0,1-.132-.723C1319.552,854.221,1320.434,852.75,1321.514,852.392Z" transform="translate(-1296.702 -826.126)" fill="url(#linear-gradient-66)"/>
      <g id="Grupo_94339" data-name="Grupo 94339" transform="translate(14.458 8.057)">
        <path id="Trazado_151298" data-name="Trazado 151298" d="M1316.55,840.218a6.689,6.689,0,0,0-3,3.339c-1.216,2.583-.308,3.776.832,3.939a5.339,5.339,0,0,0,4.649-1.53C1320.833,844.3,1318.874,839.325,1316.55,840.218Z" transform="translate(-1312.969 -837.809)" fill="url(#linear-gradient-67)"/>
        <path id="Trazado_151299" data-name="Trazado 151299" d="M1317.432,845.112s1.35-3.78-2-3.824l-.789.55s-1.229-2.094.789-3.1,4.379-.174,5.238,2.545,1.005,4.539-.423,5.839-2.018-.175-2.018-.175.779-1.216.463-1.866-1.048.135-1.048.135Z" transform="translate(-1312.585 -838.334)" fill="url(#linear-gradient-68)"/>
        <path id="Trazado_151300" data-name="Trazado 151300" d="M1316.607,844.333s.681-1.947,1.592-1.172-.74,1.8-1.386,2.13Z" transform="translate(-1311.895 -836.963)" fill="url(#linear-gradient-69)"/>
      </g>
      <g id="Grupo_94340" data-name="Grupo 94340">
        <path id="Trazado_151301" data-name="Trazado 151301" d="M1304.975,839.628c-.073.231.764.58,1.258-.36.017-.451.291-2.381.022-2.747a35.887,35.887,0,0,0-4.215-4.407.663.663,0,0,0-.083.92l1.35,1.405a6.467,6.467,0,0,0-.787,1.556,1.885,1.885,0,0,0,.188,1.391c.237.427.56.982.865,1.416A1.863,1.863,0,0,0,1304.975,839.628Z" transform="translate(-1301.808 -832.114)" fill="url(#linear-gradient-70)"/>
        <path id="Trazado_151302" data-name="Trazado 151302" d="M1305.1,836.692l-.386-1.038-1.229-1.043c-.255.131-.4.346-.123.791a14.2,14.2,0,0,1,.643,2.5Z" transform="translate(-1301.393 -831.376)" fill="url(#linear-gradient-71)"/>
      </g>
    </g>
    <g id="Grupo_94345" data-name="Grupo 94345" transform="translate(1403.696 760.438)">
      <g id="Grupo_94343" data-name="Grupo 94343" transform="translate(23.549 12.828)">
        <g id="Grupo_94342" data-name="Grupo 94342">
          <path id="Trazado_151303" data-name="Trazado 151303" d="M1352.516,764.316l1.532.94a.36.36,0,0,1-.377.614h0l-1.529-.934h0a.362.362,0,0,1,.378-.618Z" transform="translate(-1351.965 -764.262)" fill="#7dddf4"/>
          <path id="Trazado_151304" data-name="Trazado 151304" d="M1354.874,765.781l1.513.975a.358.358,0,0,1-.389.6l0,0-1.506-.967,0,0a.359.359,0,1,1,.387-.6Z" transform="translate(-1351.269 -763.831)" fill="#7dddf4"/>
          <path id="Trazado_151305" data-name="Trazado 151305" d="M1357.2,767.3l1.484,1.019a.354.354,0,0,1-.4.584l0,0-1.477-1.012-.005,0a.356.356,0,0,1,.4-.588Z" transform="translate(-1350.583 -763.383)" fill="#7dddf4"/>
          <path id="Trazado_151306" data-name="Trazado 151306" d="M1359.478,768.9l1.447,1.073a.351.351,0,0,1-.418.565l-.005-.005-1.438-1.062-.005,0a.353.353,0,0,1,.42-.567Z" transform="translate(-1349.912 -762.914)" fill="#7dddf4"/>
          <path id="Trazado_151307" data-name="Trazado 151307" d="M1361.7,770.582l1.4,1.137a.348.348,0,0,1-.439.54l-.005-.005-1.388-1.123-.007-.005a.35.35,0,0,1,.44-.544Z" transform="translate(-1349.259 -762.419)" fill="#7dddf4"/>
          <path id="Trazado_151308" data-name="Trazado 151308" d="M1363.836,772.366l1.339,1.208a.344.344,0,1,1-.461.512l-.007-.005-1.327-1.193-.008-.007a.347.347,0,0,1,.464-.516Z" transform="translate(-1348.63 -761.896)" fill="#7dddf4"/>
          <path id="Trazado_151309" data-name="Trazado 151309" d="M1365.88,774.265l1.267,1.285a.342.342,0,0,1-.487.479l-.008-.006-1.254-1.268-.008-.008a.343.343,0,0,1,.488-.483Z" transform="translate(-1348.029 -761.339)" fill="#7dddf4"/>
          <path id="Trazado_151310" data-name="Trazado 151310" d="M1367.806,776.283l1.18,1.366a.338.338,0,0,1-.512.443l-.008-.009-1.167-1.346-.008-.009a.34.34,0,0,1,.513-.446Z" transform="translate(-1347.463 -760.747)" fill="#7dddf4"/>
          <path id="Trazado_151311" data-name="Trazado 151311" d="M1369.594,778.428l1.082,1.447a.336.336,0,0,1-.538.4l-.006-.009-1.07-1.426-.008-.009a.338.338,0,0,1,.54-.405Z" transform="translate(-1346.938 -760.119)" fill="#7dddf4"/>
          <path id="Trazado_151312" data-name="Trazado 151312" d="M1371.223,780.7c.17.249.32.514.479.771l.473.777a.331.331,0,1,1-.566.345l-.012-.017-.461-.754c-.157-.251-.3-.506-.469-.753a.334.334,0,1,1,.552-.376h0Z" transform="translate(-1346.459 -759.455)" fill="#7dddf4"/>
          <path id="Trazado_151313" data-name="Trazado 151313" d="M1372.614,783.139l.75,1.649a.329.329,0,0,1-.6.272l-.006-.016-.738-1.615-.008-.016a.331.331,0,0,1,.6-.276Z" transform="translate(-1346.053 -758.745)" fill="#7dddf4"/>
          <path id="Trazado_151314" data-name="Trazado 151314" d="M1373.708,785.716l.589,1.71a.326.326,0,1,1-.616.212l0-.013-.583-1.681-.005-.014a.327.327,0,0,1,.619-.214Z" transform="translate(-1345.732 -757.992)" fill="#7dddf4"/>
          <path id="Trazado_151315" data-name="Trazado 151315" d="M1374.562,788.379l.444,1.751a.323.323,0,0,1-.625.159l0-.012-.44-1.725,0-.013a.324.324,0,1,1,.628-.161Z" transform="translate(-1345.48 -757.213)" fill="#7dddf4"/>
          <path id="Trazado_151316" data-name="Trazado 151316" d="M1375.192,791.1l.3,1.782a.32.32,0,0,1-.631.106l0-.012-.3-1.756v-.013a.321.321,0,1,1,.633-.108Z" transform="translate(-1345.294 -756.416)" fill="#7dddf4"/>
          <path id="Trazado_151317" data-name="Trazado 151317" d="M1375.6,793.868l.146,1.8a.317.317,0,1,1-.631.051v-.013l-.148-1.775v-.014a.318.318,0,0,1,.635-.053Z" transform="translate(-1345.174 -755.607)" fill="#7dddf4"/>
          <path id="Trazado_151318" data-name="Trazado 151318" d="M1375.764,796.662l-.029,1.812a.313.313,0,1,1-.626-.01v-.016l.025-1.779v-.017a.315.315,0,1,1,.63.009Z" transform="translate(-1345.13 -754.789)" fill="#7dddf4"/>
          <path id="Trazado_151319" data-name="Trazado 151319" d="M1375.69,799.464l-.237,1.8a.31.31,0,1,1-.615-.08l0-.019.229-1.76,0-.019a.312.312,0,1,1,.618.08Z" transform="translate(-1345.211 -753.971)" fill="#7dddf4"/>
          <path id="Trazado_151320" data-name="Trazado 151320" d="M1375.285,802.239l-.5,1.751a.307.307,0,0,1-.591-.168l.006-.025.481-1.7.006-.025a.309.309,0,0,1,.595.167Z" transform="translate(-1345.403 -753.164)" fill="#7dddf4"/>
          <path id="Trazado_151321" data-name="Trazado 151321" d="M1374.465,804.917l-.817,1.633a.3.3,0,1,1-.543-.272l.014-.029.786-1.578.014-.029a.306.306,0,1,1,.547.273Z" transform="translate(-1345.731 -752.388)" fill="#7dddf4"/>
          <path id="Trazado_151322" data-name="Trazado 151322" d="M1373.134,807.371a14.32,14.32,0,0,1-1.181,1.4.3.3,0,1,1-.434-.417,13.572,13.572,0,0,0,1.128-1.342.3.3,0,1,1,.487.359Z" transform="translate(-1346.215 -751.675)" fill="#7dddf4"/>
          <path id="Trazado_151323" data-name="Trazado 151323" d="M1371.235,809.417c-.247.179-.482.378-.742.537l-.764.5a.3.3,0,0,1-.328-.5l.019-.013.733-.484c.251-.154.473-.344.71-.516l.021-.016a.3.3,0,1,1,.351.484Z" transform="translate(-1346.855 -751.088)" fill="#7dddf4"/>
          <path id="Trazado_151324" data-name="Trazado 151324" d="M1368.845,810.877a11.185,11.185,0,0,1-1.747.585.295.295,0,1,1-.14-.573,10.528,10.528,0,0,0,1.653-.558.3.3,0,0,1,.235.545Z" transform="translate(-1347.603 -750.665)" fill="#7dddf4"/>
          <path id="Trazado_151325" data-name="Trazado 151325" d="M1366.08,811.561a8.941,8.941,0,0,1-1.85-.1.291.291,0,0,1,.092-.575,8.393,8.393,0,0,0,1.729.092.293.293,0,1,1,.03.586Z" transform="translate(-1348.415 -750.496)" fill="#7dddf4"/>
          <path id="Trazado_151326" data-name="Trazado 151326" d="M1363.2,811.265a8.969,8.969,0,0,1-1.645-.848.288.288,0,1,1,.315-.483,8.436,8.436,0,0,0,1.54.792.29.29,0,1,1-.21.54Z" transform="translate(-1349.171 -750.79)" fill="#7dddf4"/>
          <path id="Trazado_151327" data-name="Trazado 151327" d="M1360.7,809.825a9.727,9.727,0,0,1-1.188-1.411.285.285,0,0,1,.469-.325,9.207,9.207,0,0,0,1.12,1.326.287.287,0,1,1-.4.409Z" transform="translate(-1349.752 -751.357)" fill="#7dddf4"/>
          <path id="Trazado_151328" data-name="Trazado 151328" d="M1358.933,807.548a9.5,9.5,0,0,1-.582-1.753.282.282,0,1,1,.551-.124,8.9,8.9,0,0,0,.549,1.646.284.284,0,1,1-.518.231Z" transform="translate(-1350.081 -752.099)" fill="#7dddf4"/>
          <path id="Trazado_151329" data-name="Trazado 151329" d="M1358.183,804.768a8.1,8.1,0,0,1,.19-1.844.279.279,0,1,1,.545.12,7.6,7.6,0,0,0-.175,1.718.28.28,0,1,1-.561.008Z" transform="translate(-1350.129 -752.91)" fill="#7dddf4"/>
          <path id="Trazado_151330" data-name="Trazado 151330" d="M1358.814,801.9a7.924,7.924,0,0,1,1.013-1.554.276.276,0,1,1,.425.352,7.311,7.311,0,0,0-.94,1.447.277.277,0,1,1-.5-.245Z" transform="translate(-1349.951 -753.637)" fill="#7dddf4"/>
          <path id="Trazado_151331" data-name="Trazado 151331" d="M1360.638,799.565a10.411,10.411,0,0,1,1.541-1,.273.273,0,1,1,.259.48,9.935,9.935,0,0,0-1.461.953.274.274,0,1,1-.339-.43Z" transform="translate(-1349.435 -754.143)" fill="#7dddf4"/>
          <path id="Trazado_151332" data-name="Trazado 151332" d="M1363.137,798.1a16.3,16.3,0,0,1,1.746-.525.27.27,0,0,1,.128.525,15.155,15.155,0,0,0-1.688.51.271.271,0,0,1-.188-.509Z" transform="translate(-1348.718 -754.428)" fill="#7dddf4"/>
          <path id="Trazado_151333" data-name="Trazado 151333" d="M1365.9,797.345a11.029,11.029,0,0,1,1.838,0,.266.266,0,0,1-.044.531,10.349,10.349,0,0,0-1.747.005.269.269,0,0,1-.047-.535Z" transform="translate(-1347.923 -754.505)" fill="#7dddf4"/>
          <path id="Trazado_151334" data-name="Trazado 151334" d="M1368.73,797.567a13.348,13.348,0,0,1,1.741.561.266.266,0,0,1,.148.343.263.263,0,0,1-.342.146,12.675,12.675,0,0,0-1.672-.535.265.265,0,0,1,.126-.516Z" transform="translate(-1347.111 -754.43)" fill="#7dddf4"/>
          <path id="Trazado_151335" data-name="Trazado 151335" d="M1371.363,798.607l1.554.948a.26.26,0,0,1-.272.444l-.021-.013-1.51-.918-.023-.014a.262.262,0,0,1,.272-.447Z" transform="translate(-1346.354 -754.132)" fill="#7dddf4"/>
          <path id="Trazado_151336" data-name="Trazado 151336" d="M1373.7,800.181l1.368,1.188a.257.257,0,0,1-.337.389l-.013-.012-1.343-1.162-.013-.013a.259.259,0,0,1,.338-.391Z" transform="translate(-1345.674 -753.675)" fill="#7dddf4"/>
          <path id="Trazado_151337" data-name="Trazado 151337" d="M1375.748,802.085l1.21,1.344a.254.254,0,1,1-.377.339l-.009-.009-1.193-1.321-.01-.012a.255.255,0,0,1,.379-.342Z" transform="translate(-1345.073 -753.118)" fill="#7dddf4"/>
          <path id="Trazado_151338" data-name="Trazado 151338" d="M1377.564,804.212l1.071,1.455a.251.251,0,0,1-.4.3l-.006-.009-1.06-1.434-.007-.009a.252.252,0,1,1,.406-.3Z" transform="translate(-1344.54 -752.496)" fill="#7dddf4"/>
          <path id="Trazado_151339" data-name="Trazado 151339" d="M1379.167,806.5l.944,1.538a.248.248,0,1,1-.422.259l-.005-.008-.937-1.519-.005-.008a.249.249,0,0,1,.425-.262Z" transform="translate(-1344.068 -751.826)" fill="#7dddf4"/>
          <path id="Trazado_151340" data-name="Trazado 151340" d="M1380.577,808.9l.82,1.607a.244.244,0,1,1-.435.221l0-.008-.815-1.588,0-.009a.246.246,0,0,1,.438-.224Z" transform="translate(-1343.653 -751.12)" fill="#7dddf4"/>
          <path id="Trazado_151341" data-name="Trazado 151341" d="M1381.8,811.409l.693,1.664a.241.241,0,0,1-.446.185l0-.008-.691-1.646,0-.009a.243.243,0,0,1,.448-.188Z" transform="translate(-1343.294 -750.384)" fill="#7dddf4"/>
          <path id="Trazado_151342" data-name="Trazado 151342" d="M1382.818,814l.566,1.712a.238.238,0,0,1-.452.149l0-.008-.565-1.694,0-.008a.24.24,0,0,1,.456-.151Z" transform="translate(-1342.992 -749.623)" fill="#7dddf4"/>
          <path id="Trazado_151343" data-name="Trazado 151343" d="M1383.642,816.663l.439,1.749a.235.235,0,0,1-.456.115l0-.008-.438-1.732v-.008a.237.237,0,0,1,.459-.117Z" transform="translate(-1342.748 -748.841)" fill="#7dddf4"/>
          <path id="Trazado_151344" data-name="Trazado 151344" d="M1384.27,819.377l.312,1.776a.232.232,0,0,1-.457.08v-.008l-.312-1.759v-.008a.233.233,0,1,1,.46-.082Z" transform="translate(-1342.562 -748.044)" fill="#7dddf4"/>
          <path id="Trazado_151345" data-name="Trazado 151345" d="M1384.7,822.129l.185,1.793a.229.229,0,0,1-.455.048v-.008l-.186-1.777v-.008a.231.231,0,0,1,.459-.048Z" transform="translate(-1342.434 -747.235)" fill="#7dddf4"/>
          <path id="Trazado_151346" data-name="Trazado 151346" d="M1384.937,824.9l.06,1.8a.226.226,0,1,1-.452.014v-.006l-.061-1.787v-.008a.227.227,0,0,1,.455-.016Z" transform="translate(-1342.362 -746.42)" fill="#7dddf4"/>
          <path id="Trazado_151347" data-name="Trazado 151347" d="M1384.992,827.69l-.066,1.8a.222.222,0,1,1-.444-.016v-.008l.062-1.785v-.008a.224.224,0,0,1,.448.016Z" transform="translate(-1342.362 -745.601)" fill="#7dddf4"/>
          <path id="Trazado_151348" data-name="Trazado 151348" d="M1384.869,830.47l-.19,1.791a.22.22,0,0,1-.437-.047v-.008l.185-1.776v-.008a.221.221,0,1,1,.439.045Z" transform="translate(-1342.434 -744.784)" fill="#7dddf4"/>
          <path id="Trazado_151349" data-name="Trazado 151349" d="M1384.555,833.232l-.315,1.775a.216.216,0,0,1-.426-.075v-.008l.308-1.759v-.008a.218.218,0,0,1,.43.075Z" transform="translate(-1342.561 -743.971)" fill="#7dddf4"/>
          <path id="Trazado_151350" data-name="Trazado 151350" d="M1384.047,835.965l-.437,1.749a.214.214,0,0,1-.415-.1l0-.008.43-1.733v-.008a.215.215,0,0,1,.417.1Z" transform="translate(-1342.744 -743.167)" fill="#7dddf4"/>
          <path id="Trazado_151351" data-name="Trazado 151351" d="M1383.35,838.653l-.56,1.712a.21.21,0,1,1-.4-.131v-.006l.553-1.7,0-.006a.212.212,0,1,1,.4.131Z" transform="translate(-1342.983 -742.377)" fill="#7dddf4"/>
          <path id="Trazado_151352" data-name="Trazado 151352" d="M1382.464,841.282l-.683,1.668a.207.207,0,0,1-.383-.158l0-.006.675-1.654,0-.006a.208.208,0,1,1,.386.157Z" transform="translate(-1343.278 -741.603)" fill="#7dddf4"/>
          <path id="Trazado_151353" data-name="Trazado 151353" d="M1381.387,843.838l-.8,1.613a.2.2,0,0,1-.365-.183l0-.006.794-1.6,0-.007a.205.205,0,0,1,.368.183Z" transform="translate(-1343.628 -740.851)" fill="#7dddf4"/>
          <path id="Trazado_151354" data-name="Trazado 151354" d="M1380.123,846.306l-.924,1.545a.2.2,0,1,1-.344-.2l0-.006.913-1.535,0-.006a.2.2,0,0,1,.349.207Z" transform="translate(-1344.033 -740.126)" fill="#7dddf4"/>
          <path id="Trazado_151355" data-name="Trazado 151355" d="M1378.674,848.666l-1.043,1.47a.2.2,0,1,1-.322-.229l0-.006,1.032-1.457,0-.006a.2.2,0,1,1,.325.229Z" transform="translate(-1344.492 -739.431)" fill="#7dddf4"/>
          <path id="Trazado_151356" data-name="Trazado 151356" d="M1377.041,850.9l-1.158,1.381a.195.195,0,1,1-.3-.25l.005-.005,1.145-1.37.005-.006a.2.2,0,0,1,.3.251Z" transform="translate(-1345.003 -738.773)" fill="#7dddf4"/>
          <path id="Trazado_151357" data-name="Trazado 151357" d="M1375.233,853l-1.268,1.28a.191.191,0,0,1-.272-.269l.005-.005,1.255-1.271.005-.005a.193.193,0,1,1,.275.271Z" transform="translate(-1345.565 -738.156)" fill="#7dddf4"/>
          <path id="Trazado_151358" data-name="Trazado 151358" d="M1373.254,854.934l-1.37,1.168a.188.188,0,0,1-.245-.286l.007-.005,1.356-1.161.006-.005a.19.19,0,1,1,.246.289Z" transform="translate(-1346.174 -737.586)" fill="#7dddf4"/>
          <path id="Trazado_151359" data-name="Trazado 151359" d="M1371.118,856.694l-1.466,1.048a.185.185,0,1,1-.215-.3l.006-.005,1.451-1.042.006,0a.187.187,0,1,1,.218.3Z" transform="translate(-1346.828 -737.067)" fill="#7dddf4"/>
          <path id="Trazado_151360" data-name="Trazado 151360" d="M1368.836,858.264l-1.551.918a.182.182,0,1,1-.185-.312l.006,0,1.535-.915.008,0a.184.184,0,0,1,.187.316Z" transform="translate(-1347.521 -736.605)" fill="#7dddf4"/>
          <path id="Trazado_151361" data-name="Trazado 151361" d="M1366.29,859.631l-1.028.506a.18.18,0,0,1-.158-.322h0l1.019-.5,0,0a.18.18,0,1,1,.159.324Z" transform="translate(-1348.114 -736.201)" fill="#7dddf4"/>
        </g>
      </g>
      <g id="Grupo_94344" data-name="Grupo 94344">
        <path id="Trazado_151362" data-name="Trazado 151362" d="M1352.752,759.5l-.8,5.3-3.244-2.824Z" transform="translate(-1329.378 -752.84)" fill="#7dddf4"/>
        <path id="Trazado_151363" data-name="Trazado 151363" d="M1333.784,754.359l12.408,14.73a1.358,1.358,0,0,0,1.951.13l14.319-13.014a.545.545,0,0,0-.348-.947Z" transform="translate(-1333.784 -754.359)" fill="#91f4fa"/>
        <path id="Trazado_151364" data-name="Trazado 151364" d="M1357.156,761.022l-23.371-6.663,21.067,8.77-.161,1.479Z" transform="translate(-1333.784 -754.359)" fill="#7dddf4"/>
        <path id="Trazado_151365" data-name="Trazado 151365" d="M1348.986,762.369l2.877,1.953-1.5-3.193Z" transform="translate(-1329.295 -752.36)" fill="#7dddf4"/>
      </g>
    </g>
  </g>
</svg>
