<svg xmlns="http://www.w3.org/2000/svg" width="86" height="86" viewBox="0 0 86 86">
  <g id="Grupo_94099" data-name="Grupo 94099" transform="translate(-213 -253)">
    <g id="Grupo_94080" data-name="Grupo 94080">
      <path id="Trazado_150518" data-name="Trazado 150518" d="M292.065,315.419h-72.13a5.548,5.548,0,0,1-5.548-5.548V259.935a5.548,5.548,0,0,1,5.548-5.548h72.13a5.548,5.548,0,0,1,5.548,5.548v49.936A5.548,5.548,0,0,1,292.065,315.419Z" fill="#758190"/>
    </g>
    <g id="Grupo_94081" data-name="Grupo 94081">
      <circle id="Elipse_5081" data-name="Elipse 5081" cx="2.774" cy="2.774" r="2.774" transform="translate(219.935 282.129)" fill="#c8cdd3"/>
    </g>
    <g id="Grupo_94082" data-name="Grupo 94082">
      <path id="Trazado_150519" data-name="Trazado 150519" d="M231.032,259.935h61.033v49.936H231.032Z" fill="#a2dbf7"/>
    </g>
    <g id="Grupo_94083" data-name="Grupo 94083">
      <path id="Trazado_150520" data-name="Trazado 150520" d="M269.871,265.484h16.645v38.839H269.871Z" fill="#f7d881"/>
    </g>
    <g id="Grupo_94084" data-name="Grupo 94084">
      <circle id="Elipse_5082" data-name="Elipse 5082" cx="11.097" cy="11.097" r="11.097" transform="translate(239.355 282.129)" fill="#758190"/>
    </g>
    <g id="Grupo_94085" data-name="Grupo 94085">
      <circle id="Elipse_5083" data-name="Elipse 5083" cx="5.548" cy="5.548" r="5.548" transform="translate(244.903 287.677)" fill="#f7d881"/>
    </g>
    <g id="Grupo_94087" data-name="Grupo 94087">
      <g id="Grupo_94086" data-name="Grupo 94086">
        <path id="Trazado_150521" data-name="Trazado 150521" d="M247.677,314.032V296a2.774,2.774,0,0,1,5.549,0v15.258L256,307.1h2.774l2.774,4.161h2.775l2.774,4.161h2.774l2.774,4.162V327.9l-4.161,9.71H251.839l-5.549-9.71-1.387-6.935,4.162-2.774Z" fill="#fcd4a5"/>
      </g>
    </g>
    <g id="Grupo_94088" data-name="Grupo 94088">
      <path id="Trazado_150522" data-name="Trazado 150522" d="M292.065,316.806H269.871v-2.774h22.194a4.166,4.166,0,0,0,4.161-4.161V259.935a4.166,4.166,0,0,0-4.161-4.161h-72.13a4.166,4.166,0,0,0-4.161,4.161v49.936a4.166,4.166,0,0,0,4.161,4.161h27.742v2.774H219.935A6.943,6.943,0,0,1,213,309.871V259.935A6.943,6.943,0,0,1,219.935,253h72.13A6.943,6.943,0,0,1,299,259.935v49.936A6.943,6.943,0,0,1,292.065,316.806Z"/>
    </g>
    <g id="Grupo_94089" data-name="Grupo 94089">
      <path id="Trazado_150523" data-name="Trazado 150523" d="M292.065,311.258h-31.9v-2.774h30.516V261.323H232.419v47.161h15.258v2.774H231.032a1.386,1.386,0,0,1-1.387-1.387V259.935a1.387,1.387,0,0,1,1.387-1.387h61.033a1.387,1.387,0,0,1,1.387,1.387v49.936A1.386,1.386,0,0,1,292.065,311.258Z"/>
    </g>
    <g id="Grupo_94090" data-name="Grupo 94090">
      <path id="Trazado_150524" data-name="Trazado 150524" d="M222.71,289.065a4.161,4.161,0,1,1,4.161-4.162A4.167,4.167,0,0,1,222.71,289.065Zm0-5.549A1.387,1.387,0,1,0,224.1,284.9,1.388,1.388,0,0,0,222.71,283.516Z"/>
    </g>
    <g id="Grupo_94092" data-name="Grupo 94092">
      <g id="Grupo_94091" data-name="Grupo 94091">
        <path id="Trazado_150525" data-name="Trazado 150525" d="M268.484,339H251.839a1.386,1.386,0,0,1-1.2-.7l-5.549-9.71a1.324,1.324,0,0,1-.155-.416l-1.387-6.935a1.386,1.386,0,0,1,.591-1.426l3.279-2.186-1.052-3.156a1.408,1.408,0,0,1-.072-.44V296a4.162,4.162,0,0,1,8.323,0v10.676l.233-.349A1.388,1.388,0,0,1,256,305.71h2.774a1.388,1.388,0,0,1,1.154.617l2.362,3.544h2.033a1.39,1.39,0,0,1,1.154.617l2.362,3.544h2.032a1.389,1.389,0,0,1,1.154.618l2.774,4.161a1.394,1.394,0,0,1,.233.77V327.9a1.366,1.366,0,0,1-.112.547l-4.161,9.709a1.385,1.385,0,0,1-1.275.841Zm-15.841-2.774H267.57l3.688-8.607V320l-2.129-3.2H267.1a1.387,1.387,0,0,1-1.154-.617l-2.363-3.544h-2.032a1.388,1.388,0,0,1-1.154-.617l-2.362-3.544h-1.29l-2.362,3.544a1.387,1.387,0,0,1-2.541-.77V296a1.387,1.387,0,0,0-2.774,0v17.808l2.7,8.109-2.63.878-.813-2.439-1.878,1.251,1.161,5.8Z"/>
      </g>
    </g>
    <g id="Grupo_94093" data-name="Grupo 94093">
      <path id="Trazado_150526" data-name="Trazado 150526" d="M253.921,299.232l-1.39-2.4a4.162,4.162,0,1,0-4.159,0l-1.39,2.4a6.935,6.935,0,1,1,6.939,0Z"/>
    </g>
    <g id="Grupo_94094" data-name="Grupo 94094">
      <path id="Trazado_150527" data-name="Trazado 150527" d="M253.571,305.317l-.691-2.688a9.709,9.709,0,1,0-4.857,0l-.691,2.688a12.483,12.483,0,1,1,6.239,0Z"/>
    </g>
    <g id="Grupo_94095" data-name="Grupo 94095">
      <path id="Trazado_150528" data-name="Trazado 150528" d="M286.516,305.71H269.871a1.386,1.386,0,0,1-1.387-1.387V265.484a1.386,1.386,0,0,1,1.387-1.387h16.645a1.386,1.386,0,0,1,1.387,1.387v38.839A1.386,1.386,0,0,1,286.516,305.71Zm-15.258-2.775h13.871V266.871H271.258Z"/>
    </g>
    <g id="Grupo_94096" data-name="Grupo 94096">
      <path id="Trazado_150529" data-name="Trazado 150529" d="M279.581,269.645h2.774v30.516h-2.774Z"/>
    </g>
    <g id="Grupo_94097" data-name="Grupo 94097">
      <path id="Trazado_150530" data-name="Trazado 150530" d="M274.032,269.645h2.774v30.516h-2.774Z"/>
    </g>
    <g id="Grupo_94098" data-name="Grupo 94098">
      <path id="Trazado_150531" data-name="Trazado 150531" d="M239.008,283.133l-2.081-1.835a18.033,18.033,0,0,1,26.964-.094l-2.067,1.85a15.259,15.259,0,0,0-22.816.079Z"/>
    </g>
  </g>
</svg>
