<svg xmlns="http://www.w3.org/2000/svg" width="54.911" height="50" viewBox="0 0 54.911 50">
  <g id="Grupo_94009" data-name="Grupo 94009" transform="translate(-228.545 -231)">
    <g id="Grupo_94010" data-name="Grupo 94010">
      <g id="Grupo_94009-2" data-name="Grupo 94009">
        <path id="Trazado_150413" data-name="Trazado 150413" d="M271.591,257.482h1.188a.8.8,0,1,0,0-1.608h-1.188a.8.8,0,1,0,0,1.608Z" fill="#ffd947"/>
        <path id="Trazado_150414" data-name="Trazado 150414" d="M275.453,257.482h4.6a.8.8,0,1,0,0-1.608h-4.6a.8.8,0,1,0,0,1.608Z" fill="#ffd947"/>
        <path id="Trazado_150415" data-name="Trazado 150415" d="M271.591,260.426h1.188a.8.8,0,0,0,0-1.609h-1.188a.8.8,0,0,0,0,1.609Z" fill="#ffd947"/>
        <path id="Trazado_150416" data-name="Trazado 150416" d="M275.453,260.426h4.6a.8.8,0,1,0,0-1.609h-4.6a.8.8,0,0,0,0,1.609Z" fill="#ffd947"/>
        <path id="Trazado_150417" data-name="Trazado 150417" d="M280.055,240.841h-8.464a.8.8,0,1,0,0,1.608h8.464a.8.8,0,1,0,0-1.608Z" fill="#ffd947"/>
        <path id="Trazado_150418" data-name="Trazado 150418" d="M280.055,243.627h-8.464a.8.8,0,1,0,0,1.608h8.464a.8.8,0,1,0,0-1.608Z" fill="#ffd947"/>
        <path id="Trazado_150419" data-name="Trazado 150419" d="M280.055,246.413h-2.939a.8.8,0,0,0,0,1.608h2.939a.8.8,0,1,0,0-1.608Z" fill="#ffd947"/>
        <path id="Trazado_150420" data-name="Trazado 150420" d="M271.591,248.021h1.817a.8.8,0,1,0,0-1.608h-1.817a.8.8,0,1,0,0,1.608Z" fill="#ffd947"/>
        <path id="Trazado_150421" data-name="Trazado 150421" d="M280.055,249.2h-8.464a.8.8,0,0,0,0,1.609h8.464a.8.8,0,0,0,0-1.609Z" fill="#ffd947"/>
        <path id="Trazado_150422" data-name="Trazado 150422" d="M263.965,241.4H262.09a.8.8,0,0,0,0,1.608h1.875a.093.093,0,0,1,.092.093V259.04a.092.092,0,0,1-.092.093H248.023a.093.093,0,0,1-.093-.093V243.1a.093.093,0,0,1,.093-.093h10.27a.8.8,0,0,0,0-1.608h-10.27a1.7,1.7,0,0,0-1.7,1.7V259.04a1.7,1.7,0,0,0,1.7,1.7h15.942a1.7,1.7,0,0,0,1.7-1.7V243.1A1.7,1.7,0,0,0,263.965,241.4Z" fill="#ffd947"/>
        <path id="Trazado_150423" data-name="Trazado 150423" d="M280.694,233.491H243.8v-1.257A1.235,1.235,0,0,0,242.562,231h-8.711q-.064,0-.126.006a1.236,1.236,0,0,0-1.108,1.228v1.257h-1.31a2.764,2.764,0,0,0-2.762,2.761v30.9a2.765,2.765,0,0,0,2.762,2.761H250.9c-.1,1.194-.315,3.391-.637,5h-6.849a4.21,4.21,0,0,0-4.205,4.205V280.2a.8.8,0,0,0,.8.8h8.354a.8.8,0,1,0,0-1.608h-7.55v-.275a2.6,2.6,0,0,1,2.6-2.6h25.169a2.6,2.6,0,0,1,2.6,2.6v.275h-19.1a.8.8,0,1,0,0,1.608h19.9a.8.8,0,0,0,.8-.8v-1.079a4.21,4.21,0,0,0-4.205-4.205h-6.849c-.322-1.611-.536-3.808-.637-5h19.6a2.765,2.765,0,0,0,2.762-2.761v-30.9a2.765,2.765,0,0,0-2.762-2.761Zm-36.9,3V235.1h36.9a1.154,1.154,0,0,1,1.153,1.153v1.688H243.8Zm26,15.607V239.548h12.048V252.1Zm12.048,1.608v8.883H269.8v-8.883Zm-42.836-21.1h3.178v3.081h-3.178Zm0,4.689h3.178v3.081h-3.178Zm0,4.689h3.178v3.081h-3.178Zm0,4.689h3.178v3.081h-3.178Zm0,4.688h3.178v3.081h-3.178Zm0,4.689h3.178v3.081h-3.178Zm-4.786-23.444H237.4v3.081h-3.178Zm0,4.689H237.4v3.081h-3.178Zm0,4.689H237.4v3.081h-3.178Zm0,4.689H237.4v3.081h-3.178Zm0,4.688H237.4v3.081h-3.178Zm0,4.689H237.4v3.081h-3.178Zm-4.071-19.8a1.154,1.154,0,0,1,1.153-1.153h1.31v2.841h-2.463Zm0,3.3h2.464v19.959a1.235,1.235,0,0,0,1.108,1.228c.041,0,8.837.006,8.837.006a1.235,1.235,0,0,0,1.234-1.234V239.548h24.4v23.043H230.153ZM251.9,274.912c.32-1.728.522-3.882.614-5h6.969c.091,1.12.294,3.274.613,5Zm29.945-7.763a1.155,1.155,0,0,1-1.153,1.153H231.307a1.155,1.155,0,0,1-1.153-1.153V264.2h51.693Z" fill="#ffd947"/>
      </g>
    </g>
  </g>
</svg>
