<svg xmlns="http://www.w3.org/2000/svg" width="620" height="317" viewBox="0 0 620 317">
  <g id="Grupo_94412" data-name="Grupo 94412" transform="translate(-180 -3412)">
    <rect id="Rectángulo_35877" data-name="Rectángulo 35877" width="620" height="317" transform="translate(180 3412)" fill="#70d2df" opacity="0.7"/>
    <g id="Grupo_93869" data-name="Grupo 93869" transform="translate(234.001 3315.001)">
      <g id="Grupo_93871" data-name="Grupo 93871">
        <g id="Grupo_93870" data-name="Grupo 93870">
          <path id="Trazado_150073" data-name="Trazado 150073" d="M328.234,240.393l-15.484-1.718a58.79,58.79,0,0,0-4.375-10.547l9.731-12.163a3.124,3.124,0,0,0-.231-4.159l-17.681-17.663a3.127,3.127,0,0,0-4.16-.231l-12.162,9.728a58.851,58.851,0,0,0-10.547-4.375l-1.719-15.484A3.125,3.125,0,0,0,268.5,181h-25a3.126,3.126,0,0,0-3.107,2.782l-1.718,15.468a58.79,58.79,0,0,0-10.547,4.375l-12.163-9.731a3.125,3.125,0,0,0-4.159.231l-17.681,17.682a3.125,3.125,0,0,0-.229,4.159l9.744,12.163a58.79,58.79,0,0,0-4.375,10.547l-15.484,1.718A3.126,3.126,0,0,0,181,243.5v25a3.126,3.126,0,0,0,2.782,3.107l15.468,1.719a58.851,58.851,0,0,0,4.375,10.547l-9.731,12.162a3.125,3.125,0,0,0,.231,4.159l17.682,17.682a3.125,3.125,0,0,0,4.159.212l12.162-9.728a58.777,58.777,0,0,0,10.547,4.375l1.719,15.484A3.123,3.123,0,0,0,243.5,331h25a3.125,3.125,0,0,0,3.107-2.765l1.719-15.484a58.851,58.851,0,0,0,10.547-4.375l12.162,9.731a3.125,3.125,0,0,0,4.159-.231l17.663-17.682a3.124,3.124,0,0,0,.231-4.159l-9.728-12.162a58.777,58.777,0,0,0,4.375-10.547l15.484-1.719A3.123,3.123,0,0,0,331,268.5v-25A3.124,3.124,0,0,0,328.234,240.393ZM324.75,265.7h0l-14.772,1.644a3.125,3.125,0,0,0-2.675,2.3,52.82,52.82,0,0,1-5.366,12.969,3.124,3.124,0,0,0,.263,3.521l9.29,11.613-13.721,13.722-11.613-9.291a3.127,3.127,0,0,0-3.522-.263,52.8,52.8,0,0,1-12.969,5.366,3.126,3.126,0,0,0-2.3,2.675l-1.643,14.788H246.312l-1.659-14.788a3.125,3.125,0,0,0-2.3-2.675,52.764,52.764,0,0,1-12.969-5.366,3.127,3.127,0,0,0-3.522.263l-11.612,9.291-13.722-13.722,9.291-11.6a3.125,3.125,0,0,0,.262-3.522,52.841,52.841,0,0,1-5.366-12.969,3.125,3.125,0,0,0-2.675-2.3l-14.787-1.644V246.312l14.787-1.659a3.125,3.125,0,0,0,2.675-2.3,52.842,52.842,0,0,1,5.366-12.969,3.125,3.125,0,0,0-.262-3.522l-9.291-11.612,13.722-13.722,11.628,9.29a3.125,3.125,0,0,0,3.522.263,52.8,52.8,0,0,1,12.969-5.366,3.126,3.126,0,0,0,2.3-2.675l1.644-14.788H265.7l1.644,14.788a3.126,3.126,0,0,0,2.3,2.675,52.8,52.8,0,0,1,12.969,5.366,3.125,3.125,0,0,0,3.522-.263l11.612-9.29,13.722,13.737-9.291,11.613a3.127,3.127,0,0,0-.262,3.522,52.811,52.811,0,0,1,5.366,12.968,3.123,3.123,0,0,0,2.675,2.3l14.787,1.644Z" fill="#fff"/>
        </g>
      </g>
      <g id="Grupo_93873" data-name="Grupo 93873">
        <g id="Grupo_93872" data-name="Grupo 93872">
          <path id="Trazado_150074" data-name="Trazado 150074" d="M294.172,234.637a43.75,43.75,0,0,0-76.36,42.725,3.125,3.125,0,0,0,4.935.684l20.415-20.415,7.213,9.619a2.966,2.966,0,0,0,.29.334,3.125,3.125,0,0,0,4.419,0l19.666-19.666v11.207H281v-18.75h0a3.125,3.125,0,0,0-3.124-3.125h-18.75v6.25h11.206l-17.119,17.118L246,251a3.129,3.129,0,0,0-2.278-1.251,3.188,3.188,0,0,0-2.432.916l-19.869,19.866a37.429,37.429,0,1,1,63.455,9.227,37.828,37.828,0,0,1-3.876,4.07V265.375h-6.25v23.018a37.258,37.258,0,0,1-6.25,2.9V271.625h-6.25v21.3a37.611,37.611,0,0,1-6.25.538V281h-6.25v11.954a37.3,37.3,0,0,1-6.25-1.607v-16.6h-6.25v13.721a37.733,37.733,0,0,1-5.047-3.49l-3.972,4.828a43.748,43.748,0,0,0,65.941-55.172Z" fill="#fff"/>
        </g>
      </g>
    </g>
  </g>
</svg>
