<svg xmlns="http://www.w3.org/2000/svg" width="140" height="140" viewBox="0 0 140 140">
  <g id="Filled_outline" data-name="Filled outline" transform="translate(-213 -213)">
    <rect id="Rectángulo_35174" data-name="Rectángulo 35174" width="70" height="126" rx="5.733" transform="translate(248 224.667)" fill="#e0e0de"/>
    <path id="Trazado_117960" data-name="Trazado 117960" d="M234.5,228.767h70V322.1h-70Z" transform="translate(13.5 9.9)" fill="#348fd9"/>
    <path id="Trazado_117961" data-name="Trazado 117961" d="M238.841,304.458a9.349,9.349,0,0,0,2.266.309h51.334a9.334,9.334,0,0,0,9.333-9.334V286.1H246.637Z" transform="translate(16.226 45.9)" fill="#d6d6d4"/>
    <path id="Trazado_117962" data-name="Trazado 117962" d="M274.147,220.167h-.225l-5.945,14h15.5V229.5A9.333,9.333,0,0,0,274.147,220.167Z" transform="translate(34.52 4.5)" fill="#d6d6d4"/>
    <path id="Trazado_117963" data-name="Trazado 117963" d="M243.63,322.1h55.137V228.767h-15.5Z" transform="translate(19.233 9.9)" fill="#3086cd"/>
    <path id="Trazado_117964" data-name="Trazado 117964" d="M262.5,290.1v-14a9.333,9.333,0,0,0-9.333-9.333H248.5l2.333-9.334L234.5,266.767v32.666h18.667A9.333,9.333,0,0,0,262.5,290.1Z" transform="translate(13.5 27.9)" fill="#3086cd"/>
    <path id="Trazado_117965" data-name="Trazado 117965" d="M302.21,268.575l-15.227-19.742v37.334l-10.5-10.5a8.249,8.249,0,1,0-11.667,11.666L279.982,302.5l-1.045,1.569a20.431,20.431,0,0,0,1.045,24.1h28v-44.23A23.328,23.328,0,0,0,302.21,268.575Z" transform="translate(31.018 22.5)" fill="#fec9a3"/>
    <path id="Trazado_117966" data-name="Trazado 117966" d="M265.767,261.1H247.1l2.333,11.667L233.1,261.1h-9.333a9.334,9.334,0,0,1-9.334-9.333v-28a9.334,9.334,0,0,1,9.334-9.334h42a9.334,9.334,0,0,1,9.333,9.334v28A9.333,9.333,0,0,1,265.767,261.1Z" transform="translate(0.9 0.9)" fill="#ffb531"/>
    <path id="Trazado_117967" data-name="Trazado 117967" d="M239.167,256.767h18.666a9.334,9.334,0,0,0,9.334-9.334V228.767H234.5v34.666l7,5Z" transform="translate(13.5 9.9)" fill="#3086cd"/>
    <path id="Trazado_117968" data-name="Trazado 117968" d="M261.1,263.9h-4.667l2.334-9.333L242.433,263.9H223.767a9.334,9.334,0,0,0-9.334,9.333v14a9.334,9.334,0,0,0,9.334,9.334H261.1a9.334,9.334,0,0,0,9.333-9.334v-14A9.333,9.333,0,0,0,261.1,263.9Z" transform="translate(0.9 26.1)" fill="#60d1e0"/>
    <path id="Trazado_117969" data-name="Trazado 117969" d="M256.121,260.3h-.449c-9.546,14.366-22.98,25.488-33.309,32.667h33.758a9.334,9.334,0,0,0,9.333-9.334v-14A9.333,9.333,0,0,0,256.121,260.3Z" transform="translate(5.879 29.7)" fill="#5ac6d4"/>
    <path id="Trazado_117970" data-name="Trazado 117970" d="M287.722,284.322a2.315,2.315,0,0,1-1.649-.684l-9.333-9.333a2.333,2.333,0,0,1,3.3-3.3l9.334,9.334a2.333,2.333,0,0,1-1.651,3.982Z" transform="translate(39.611 36.011)" fill="#f7a468"/>
    <path id="Trazado_117971" data-name="Trazado 117971" d="M270.918,215.848c-16.157,20.168-38.743,32.7-55.013,41.22a9.276,9.276,0,0,0,6.938,3.143h9.333l16.333,11.667-2.333-11.667h18.667a9.333,9.333,0,0,0,9.333-9.333v-28A9.263,9.263,0,0,0,270.918,215.848Z" transform="translate(1.824 1.788)" fill="#ffa912"/>
    <path id="Trazado_117972" data-name="Trazado 117972" d="M224.467,227.333h18.666v14H224.467Z" transform="translate(7.2 9)" fill="#f35244"/>
    <g id="Grupo_89903" data-name="Grupo 89903" transform="translate(229.333 224.667)">
      <circle id="Elipse_4530" data-name="Elipse 4530" cx="5.833" cy="5.833" r="5.833" fill="#de4132"/>
      <circle id="Elipse_4531" data-name="Elipse 4531" cx="5.833" cy="5.833" r="5.833" transform="translate(11.667)" fill="#de4132"/>
      <path id="Trazado_117973" data-name="Trazado 117973" d="M235.933,232l9.334-4.667v14l-9.334-4.666Z" transform="translate(-214.934 -215.667)" fill="#de4132"/>
    </g>
    <path id="Trazado_117974" data-name="Trazado 117974" d="M277.5,248.833v24.41l11.819-9.09Z" transform="translate(40.5 22.5)" fill="#fec093"/>
    <path id="Trazado_117975" data-name="Trazado 117975" d="M322.767,235.233v28a9.334,9.334,0,0,1-9.334,9.334H301.767l-16.334,11.666,2.334-11.666h-21a9.328,9.328,0,0,1-9.334-9.321V235.233a9.334,9.334,0,0,1,9.334-9.333h46.666a9.326,9.326,0,0,1,9.334,9.318Z" transform="translate(27.9 8.1)" fill="#4db7e5"/>
    <path id="Trazado_117976" data-name="Trazado 117976" d="M320.946,234.757v28a9.334,9.334,0,0,1-9.334,9.334H299.946l-16.334,11.666,2.334-11.666h-21a9.326,9.326,0,0,1-4.612-1.216c21.793-10.319,41.381-24.717,55.922-44.217a9.336,9.336,0,0,1,4.69,8.1Z" transform="translate(29.721 8.576)" fill="#48add9"/>
    <circle id="Elipse_4532" data-name="Elipse 4532" cx="7" cy="7" r="7" transform="translate(315.667 243.333)" fill="#f35244"/>
    <path id="Trazado_117977" data-name="Trazado 117977" d="M322.767,254.233a9.334,9.334,0,0,1-9.334,9.334H301.767l-16.334,11.666,2.334-11.666h-21a9.328,9.328,0,0,1-9.334-9.321v-.013l18.667-14,10.611,7.957,8.057,6.043,14-9.333Z" transform="translate(27.9 17.1)" fill="#7eb457"/>
    <path id="Trazado_117978" data-name="Trazado 117978" d="M320.946,252.433a9.334,9.334,0,0,1-9.334,9.334H299.946l-16.334,11.666,2.334-11.666h-21a9.326,9.326,0,0,1-4.612-1.216,169.682,169.682,0,0,0,24.555-14.161l8.057,6.043,14-9.333Z" transform="translate(29.721 18.9)" fill="#77ad50"/>
    <path id="Trazado_117979" data-name="Trazado 117979" d="M254.567,290.4h4.666v4.667h-4.666Z" transform="translate(26.1 48.6)"/>
    <path id="Trazado_117980" data-name="Trazado 117980" d="M224.667,264.333h8.586l15.726,11.233a2.333,2.333,0,0,0,3.643-2.357l-1.776-8.875h15.822a11.677,11.677,0,0,0,11.666-11.666v-28A11.68,11.68,0,0,0,266.667,213h-42A11.682,11.682,0,0,0,213,224.667v28a11.68,11.68,0,0,0,11.667,11.666Zm-7-39.666a7.006,7.006,0,0,1,7-7h42a7.008,7.008,0,0,1,7,7v28a7.01,7.01,0,0,1-7,7H248A2.332,2.332,0,0,0,245.667,262a2.257,2.257,0,0,0,.046.457l1.175,5.88L235.356,260.1a2.337,2.337,0,0,0-1.356-.433h-9.333a7.008,7.008,0,0,1-7-7Z" transform="translate(0 0)"/>
    <path id="Trazado_117981" data-name="Trazado 117981" d="M223.939,232.739v14a2.334,2.334,0,0,0,2.334,2.334h18.666a2.334,2.334,0,0,0,2.334-2.334v-.89l5.957,2.977a2.331,2.331,0,0,0,3.376-2.087v-14a2.334,2.334,0,0,0-3.376-2.087l-5.957,2.979v-.892c0-.037-.021-.07-.023-.109a8.156,8.156,0,0,0-11.568-11.5l-.077.078a8.156,8.156,0,1,0-11.721,11.343l.077.078C223.96,232.669,223.939,232.7,223.939,232.739Zm18.667,11.667h-14v-9.333h14Zm9.333-7.89v6.448l-4.666-2.333v-1.783Zm-10.5-13.11a3.5,3.5,0,1,1-3.5,3.5A3.5,3.5,0,0,1,241.439,223.406Zm-11.666,0a3.5,3.5,0,1,1-3.5,3.5A3.5,3.5,0,0,1,229.773,223.406Z" transform="translate(5.394 3.594)"/>
    <path id="Trazado_117982" data-name="Trazado 117982" d="M328.733,228.067H307.5a11.687,11.687,0,0,0-11.43-9.334H270.4V223.4h25.667a6.992,6.992,0,0,1,6.57,4.667h-20.57A11.68,11.68,0,0,0,270.4,239.733v28A11.682,11.682,0,0,0,282.067,279.4H300.22l-1.774,8.875a2.333,2.333,0,0,0,3.643,2.357l.978-.7v9.5l-6.518-6.518a10.583,10.583,0,0,0-14.965,14.967h0l13.808,13.808a21.954,21.954,0,0,0-2.191,4.376H233.067v11.666A11.68,11.68,0,0,0,244.733,349.4H326.4a2.333,2.333,0,0,0,2.333-2.333v-44.24a25.544,25.544,0,0,0-6.248-16.779l-4.965-6.438.295-.21h10.918A11.682,11.682,0,0,0,340.4,267.733v-28A11.68,11.68,0,0,0,328.733,228.067Zm-46.666,4.666h46.666a7.008,7.008,0,0,1,7,7v23.64l-10.371-6.915a2.339,2.339,0,0,0-2.588,0l-12.626,8.416L292.8,251.867a2.332,2.332,0,0,0-2.8,0l-14.934,11.2V239.733A7.008,7.008,0,0,1,282.067,232.733Zm-44.334,105v-7H291.9a22.725,22.725,0,0,0,2.277,14H244.733A7.008,7.008,0,0,1,237.733,337.733Zm81.148-48.725a21,21,0,0,1,5.187,13.819v41.906H299.578a18.079,18.079,0,0,1-2.535-15.67,17.55,17.55,0,0,1,2.242-4.8l1.05-1.563a2.333,2.333,0,0,0-.286-2.95l-15.167-15.167a5.916,5.916,0,1,1,8.367-8.366h0l19.834,19.833,3.3-3.3-8.649-8.651V286.6l5.987-4.276Zm9.852-14.275H317.067a2.328,2.328,0,0,0-1.356.435L304.179,283.4l1.175-5.88a2.335,2.335,0,0,0-1.83-2.746,2.408,2.408,0,0,0-.457-.046h-21a6.99,6.99,0,0,1-6.891-5.916L291.4,256.65l17.267,12.95a2.33,2.33,0,0,0,2.693.075l12.707-8.472,11.55,7.7a7,7,0,0,1-6.884,5.83Z" transform="translate(12.6 3.6)"/>
    <path id="Trazado_117983" data-name="Trazado 117983" d="M283.967,248.867a9.334,9.334,0,1,0-9.334-9.334A9.334,9.334,0,0,0,283.967,248.867Zm0-14a4.666,4.666,0,1,1-4.667,4.666A4.665,4.665,0,0,1,283.967,234.867Z" transform="translate(38.7 10.8)"/>
    <path id="Trazado_117984" data-name="Trazado 117984" d="M224.667,299.8H262a11.682,11.682,0,0,0,11.667-11.667v-14A11.68,11.68,0,0,0,262,262.467h-1.677l1.607-6.435a2.334,2.334,0,0,0-3.42-2.592l-15.8,9.027H224.667A11.68,11.68,0,0,0,213,274.132v14A11.682,11.682,0,0,0,224.667,299.8Zm-7-25.667a7.008,7.008,0,0,1,7-7h18.666a2.323,2.323,0,0,0,1.157-.308l11.587-6.621-1.008,4.029a2.333,2.333,0,0,0,1.7,2.829,2.285,2.285,0,0,0,.565.07H262a7.009,7.009,0,0,1,7,7v14a7.007,7.007,0,0,1-7,7H224.667a7.006,7.006,0,0,1-7-7Z" transform="translate(0 25.2)"/>
    <path id="Trazado_117985" data-name="Trazado 117985" d="M218.733,266.033H244.4V270.7H218.733Z" transform="translate(3.6 33.3)"/>
    <path id="Trazado_117986" data-name="Trazado 117986" d="M237.367,266.033h11.666V270.7H237.367Z" transform="translate(15.3 33.3)"/>
    <path id="Trazado_117987" data-name="Trazado 117987" d="M218.733,271.767h42v4.666h-42Z" transform="translate(3.6 36.9)"/>
  </g>
</svg>
