<svg xmlns="http://www.w3.org/2000/svg" xmlns:xlink="http://www.w3.org/1999/xlink" width="254.957" height="167.965" viewBox="0 0 254.957 167.965">
  <defs>
    <linearGradient id="linear-gradient" y1="0.5" x2="1" y2="0.5" gradientUnits="objectBoundingBox">
      <stop offset="0" stop-color="#dafdfe"/>
      <stop offset="1" stop-color="#e9fdfc"/>
    </linearGradient>
    <linearGradient id="linear-gradient-6" x1="0" y1="0.5" x2="1" y2="0.5" xlink:href="#linear-gradient"/>
    <linearGradient id="linear-gradient-8" x1="0" y1="0.5" x2="1" y2="0.5" xlink:href="#linear-gradient"/>
    <linearGradient id="linear-gradient-9" x1="0" y1="0.5" x2="1" y2="0.5" xlink:href="#linear-gradient"/>
    <linearGradient id="linear-gradient-10" x1="0.626" y1="1.122" x2="0.843" y2="1.785" gradientUnits="objectBoundingBox">
      <stop offset="0" stop-color="#409ae2"/>
      <stop offset="1" stop-color="#4fb2ff"/>
    </linearGradient>
    <linearGradient id="linear-gradient-11" x1="1.046" y1="1.194" x2="0.387" y2="0.523" xlink:href="#linear-gradient-10"/>
    <linearGradient id="linear-gradient-19" x1="0.943" y1="0.072" x2="0.171" y2="0.818" gradientUnits="objectBoundingBox">
      <stop offset="0" stop-color="#00215d"/>
      <stop offset="1" stop-color="#0f4191"/>
    </linearGradient>
    <linearGradient id="linear-gradient-20" x1="1.079" y1="-0.228" x2="0.508" y2="0.44" xlink:href="#linear-gradient-19"/>
    <linearGradient id="linear-gradient-21" x1="0.82" y1="-0.447" x2="0.246" y2="1.252" gradientUnits="objectBoundingBox">
      <stop offset="0" stop-color="#feb562"/>
      <stop offset="1" stop-color="#ffc997"/>
    </linearGradient>
    <linearGradient id="linear-gradient-22" x1="2.193" y1="-7.35" x2="1.365" y2="-3.371" xlink:href="#linear-gradient-19"/>
    <linearGradient id="linear-gradient-23" y1="0.5" x2="1" y2="0.5" gradientUnits="objectBoundingBox">
      <stop offset="0" stop-color="#ffd5b0"/>
      <stop offset="1" stop-color="#fee5ca"/>
    </linearGradient>
    <linearGradient id="linear-gradient-24" x1="1.474" y1="-6.888" x2="0.946" y2="-2.743" xlink:href="#linear-gradient-19"/>
    <linearGradient id="linear-gradient-25" x1="0" y1="0.5" x2="1" y2="0.5" xlink:href="#linear-gradient-23"/>
    <linearGradient id="linear-gradient-26" x1="0.695" y1="-0.443" x2="0.379" y2="1.167" xlink:href="#linear-gradient-19"/>
    <linearGradient id="linear-gradient-27" x1="3.502" y1="-2.173" x2="-4.838" y2="5.254" gradientUnits="objectBoundingBox">
      <stop offset="0" stop-color="#001b39"/>
      <stop offset="1" stop-color="#001e56"/>
    </linearGradient>
    <linearGradient id="linear-gradient-28" x1="1.084" y1="-3.273" x2="0.836" y2="-1.739" gradientUnits="objectBoundingBox">
      <stop offset="0" stop-color="#e1943d"/>
      <stop offset="1" stop-color="#e9ae5a"/>
    </linearGradient>
    <linearGradient id="linear-gradient-29" x1="0" y1="0.5" x2="1" y2="0.5" xlink:href="#linear-gradient-23"/>
    <linearGradient id="linear-gradient-30" x1="0.997" y1="-1.68" x2="0.804" y2="-0.744" xlink:href="#linear-gradient-21"/>
    <linearGradient id="linear-gradient-31" x1="1.876" y1="-1.545" x2="-0.437" y2="1.571" xlink:href="#linear-gradient-23"/>
    <linearGradient id="linear-gradient-32" x1="327.334" y1="436.873" x2="324.936" y2="439.843" xlink:href="#linear-gradient-23"/>
    <linearGradient id="linear-gradient-33" x1="1.697" y1="-1.142" x2="-0.953" y2="2.815" xlink:href="#linear-gradient-23"/>
    <linearGradient id="linear-gradient-34" x1="131.365" y1="-450.816" x2="131.085" y2="-451.802" xlink:href="#linear-gradient-23"/>
    <linearGradient id="linear-gradient-35" x1="117.648" y1="-317.492" x2="117.881" y2="-316.38" xlink:href="#linear-gradient-19"/>
    <linearGradient id="linear-gradient-36" x1="409.322" y1="-2527.546" x2="408.449" y2="-2533.065" xlink:href="#linear-gradient-23"/>
    <linearGradient id="linear-gradient-37" x1="0.233" y1="0.746" x2="0.828" y2="-0.171" xlink:href="#linear-gradient-21"/>
    <linearGradient id="linear-gradient-39" x1="10.907" y1="-107.117" x2="10.31" y2="-105.193" xlink:href="#linear-gradient-19"/>
    <linearGradient id="linear-gradient-40" x1="0.723" y1="1.529" x2="0.481" y2="0.199" xlink:href="#linear-gradient-21"/>
    <linearGradient id="linear-gradient-41" x1="-0.16" y1="-0.191" x2="1.984" y2="2.225" gradientUnits="objectBoundingBox">
      <stop offset="0" stop-color="#a26b25"/>
      <stop offset="1" stop-color="#c07e3c"/>
    </linearGradient>
    <linearGradient id="linear-gradient-42" x1="-1465.047" y1="-0.196" x2="-1462.776" y2="2.22" xlink:href="#linear-gradient-41"/>
    <linearGradient id="linear-gradient-43" x1="0.511" y1="-0.176" x2="0.467" y2="2.467" xlink:href="#linear-gradient-19"/>
    <linearGradient id="linear-gradient-44" x1="1.075" y1="-28.665" x2="1.218" y2="-14.66" xlink:href="#linear-gradient-19"/>
    <linearGradient id="linear-gradient-45" x1="2.58" y1="-4.058" x2="-0.86" y2="3.365" xlink:href="#linear-gradient-41"/>
    <linearGradient id="linear-gradient-46" x1="-1332.408" y1="-40.186" x2="-1332.265" y2="-25.893" xlink:href="#linear-gradient-19"/>
    <linearGradient id="linear-gradient-47" x1="3.788" y1="-6.36" x2="0.301" y2="1.144" xlink:href="#linear-gradient-41"/>
    <linearGradient id="linear-gradient-48" x1="0.544" y1="0.365" x2="0.096" y2="2.1" xlink:href="#linear-gradient-10"/>
    <linearGradient id="linear-gradient-49" x1="0.536" y1="-1.521" x2="0.525" y2="-0.913" xlink:href="#linear-gradient-10"/>
    <linearGradient id="linear-gradient-50" x1="0.571" y1="-0.52" x2="0.393" y2="2.04" xlink:href="#linear-gradient-41"/>
    <linearGradient id="linear-gradient-51" x1="0.466" y1="-0.206" x2="0.513" y2="0.734" xlink:href="#linear-gradient-41"/>
    <linearGradient id="linear-gradient-52" x1="10.788" y1="-83.32" x2="10.124" y2="-81.633" xlink:href="#linear-gradient-19"/>
    <linearGradient id="linear-gradient-53" x1="0.297" y1="-2.037" x2="0.598" y2="1.62" xlink:href="#linear-gradient-41"/>
  </defs>
  <g id="Grupo_94152" data-name="Grupo 94152" transform="translate(-1096.753 -736.041)">
    <g id="Grupo_94227" data-name="Grupo 94227">
      <g id="Grupo_94221" data-name="Grupo 94221">
        <g id="Grupo_94217" data-name="Grupo 94217" opacity="0.64">
          <path id="Trazado_150915" data-name="Trazado 150915" d="M1098.3,803.146a.576.576,0,0,1-.553-.415c-.089-.3-.173-.607-.25-.911a.578.578,0,1,1,1.12-.284c.073.29.154.583.238.87a.577.577,0,0,1-.555.74Z" fill="#fff"/>
          <path id="Trazado_150916" data-name="Trazado 150916" d="M1097.5,799.357a.579.579,0,0,1-.572-.5c-.08-.611-.139-1.234-.175-1.85a.577.577,0,1,1,1.153-.067c.035.589.091,1.183.168,1.767a.579.579,0,0,1-.5.648A.649.649,0,0,1,1097.5,799.357Zm-.169-4.761h-.034a.576.576,0,0,1-.543-.61c.005-.1.011-.193.018-.29.036-.52.088-1.045.155-1.559a.577.577,0,0,1,1.145.149c-.063.491-.113.992-.148,1.49-.006.093-.012.185-.017.277A.578.578,0,0,1,1097.332,794.6Zm.718-4.707a.579.579,0,0,1-.56-.718c.15-.6.324-1.2.517-1.785a.578.578,0,1,1,1.1.362c-.184.559-.35,1.132-.494,1.7A.578.578,0,0,1,1098.05,789.889Zm1.594-4.489a.588.588,0,0,1-.244-.054.578.578,0,0,1-.279-.768c.261-.559.546-1.117.847-1.656a.578.578,0,1,1,1.009.563c-.288.515-.56,1.047-.809,1.581A.579.579,0,0,1,1099.644,785.4Zm2.416-4.107a.578.578,0,0,1-.467-.916c.362-.5.747-.993,1.144-1.466a.577.577,0,1,1,.884.743c-.379.452-.747.923-1.093,1.4A.576.576,0,0,1,1102.06,781.293Zm3.146-3.578a.577.577,0,0,1-.4-1c.448-.422.919-.834,1.4-1.224a.577.577,0,1,1,.73.9c-.457.373-.907.767-1.335,1.17A.577.577,0,0,1,1105.206,777.715Zm3.759-2.924a.578.578,0,0,1-.311-1.065c.52-.331,1.059-.648,1.6-.941a.578.578,0,0,1,.549,1.017c-.519.279-1.034.582-1.531.9A.567.567,0,0,1,1108.965,774.791Zm24.528-1.405a.58.58,0,0,1-.252-.058c-.531-.258-1.077-.5-1.624-.718a.578.578,0,0,1,.428-1.073c.573.229,1.145.482,1.7.752a.578.578,0,0,1-.253,1.1Zm-20.29-.762a.578.578,0,0,1-.213-1.115c.573-.227,1.162-.436,1.749-.622a.578.578,0,1,1,.347,1.1c-.56.177-1.122.377-1.67.594A.571.571,0,0,1,1113.2,772.624Zm15.827-.9a.593.593,0,0,1-.149-.02c-.569-.153-1.151-.286-1.731-.4a.577.577,0,1,1,.218-1.134c.607.116,1.216.256,1.812.416a.578.578,0,0,1-.15,1.136Zm-11.256-.424a.578.578,0,0,1-.107-1.146c.606-.114,1.224-.208,1.837-.279a.578.578,0,0,1,.133,1.148c-.586.067-1.176.157-1.755.266A.563.563,0,0,1,1117.774,771.3Zm6.559-.37h-.042l-.111-.008c-.554-.038-1.114-.058-1.665-.06a.577.577,0,0,1,0-1.155h0c.576,0,1.162.022,1.741.062l.115.009a.577.577,0,0,1-.041,1.153Z" fill="#fff"/>
          <path id="Trazado_150917" data-name="Trazado 150917" d="M1136.848,775.353a.579.579,0,0,1-.33-.1c-.245-.17-.5-.339-.75-.5a.578.578,0,0,1,.625-.972c.264.17.528.346.785.525a.578.578,0,0,1-.33,1.052Z" fill="#fff"/>
        </g>
        <g id="Grupo_94218" data-name="Grupo 94218" opacity="0.64">
          <path id="Trazado_150918" data-name="Trazado 150918" d="M1147.34,791.934a.579.579,0,0,1-.57-.484c-.048-.3-.1-.6-.163-.888a.578.578,0,1,1,1.132-.23c.062.307.12.62.171.93a.577.577,0,0,1-.476.664A.606.606,0,0,1,1147.34,791.934Z" fill="#fff"/>
          <path id="Trazado_150919" data-name="Trazado 150919" d="M1121.054,821.2h-.034l-.317-.02c-.5-.035-1.007-.084-1.5-.148a.578.578,0,0,1,.147-1.146c.474.061.958.108,1.437.142l.3.019a.577.577,0,0,1-.032,1.154Zm2.9,0a.577.577,0,0,1-.033-1.154c.58-.034,1.164-.088,1.739-.162a.577.577,0,1,1,.148,1.145c-.6.078-1.214.135-1.821.17Zm-7.539-.7a.6.6,0,0,1-.139-.017c-.59-.146-1.182-.314-1.76-.5a.578.578,0,0,1,.356-1.1c.552.178,1.117.339,1.68.478a.578.578,0,0,1-.137,1.139Zm12.172-.009a.578.578,0,0,1-.14-1.138c.562-.14,1.125-.3,1.676-.482a.578.578,0,0,1,.359,1.1c-.577.188-1.167.358-1.755.505A.566.566,0,0,1,1128.59,820.5Zm-16.6-1.535a.573.573,0,0,1-.241-.053c-.551-.252-1.1-.529-1.634-.82a.578.578,0,0,1,.554-1.014c.51.279,1.035.543,1.562.784a.578.578,0,0,1-.241,1.1Zm21.016-.019a.577.577,0,0,1-.242-1.1c.526-.242,1.05-.507,1.558-.786a.578.578,0,1,1,.557,1.012c-.532.293-1.081.57-1.631.823A.581.581,0,0,1,1133.007,818.944Zm4.054-2.347a.578.578,0,0,1-.335-1.049c.473-.336.94-.693,1.388-1.061a.577.577,0,0,1,.733.892c-.468.385-.957.759-1.452,1.111A.574.574,0,0,1,1137.061,816.6Zm3.553-3.056a.578.578,0,0,1-.416-.979c.4-.418.8-.855,1.169-1.3a.577.577,0,1,1,.885.742c-.389.465-.8.922-1.223,1.359A.573.573,0,0,1,1140.614,813.541Zm2.928-3.66a.577.577,0,0,1-.481-.895c.319-.485.624-.987.907-1.493a.578.578,0,1,1,1.008.564c-.3.53-.616,1.056-.95,1.564A.578.578,0,0,1,1143.542,809.881Zm2.2-4.141a.577.577,0,0,1-.533-.8c.222-.536.429-1.086.613-1.635a.577.577,0,1,1,1.095.367c-.193.575-.409,1.151-.642,1.712A.576.576,0,0,1,1145.743,805.74Zm1.389-4.475a.547.547,0,0,1-.12-.013.576.576,0,0,1-.446-.684c.119-.567.219-1.145.3-1.72a.578.578,0,1,1,1.145.157c-.083.6-.188,1.207-.313,1.8A.578.578,0,0,1,1147.132,801.265Zm.536-4.656h-.014a.578.578,0,0,1-.564-.59c.005-.191.007-.381.007-.571,0-.39-.01-.786-.028-1.176a.578.578,0,1,1,1.154-.055c.019.408.029.822.029,1.231,0,.2,0,.4-.007.6A.577.577,0,0,1,1147.668,796.609Z" fill="#fff"/>
          <path id="Trazado_150920" data-name="Trazado 150920" d="M1107.914,816.609a.573.573,0,0,1-.334-.106c-.257-.183-.513-.372-.76-.561a.578.578,0,0,1,.7-.917c.236.181.48.361.726.536a.577.577,0,0,1-.335,1.048Z" fill="#fff"/>
        </g>
        <g id="Grupo_94220" data-name="Grupo 94220">
          <g id="Grupo_94219" data-name="Grupo 94219">
            <path id="Trazado_150921" data-name="Trazado 150921" d="M1108.877,809.239a.3.3,0,0,0,.339.092l3.454-1.27a16.013,16.013,0,0,0,4.573,2.463l.842,3.58a.3.3,0,0,0,.264.231l4.392.445a.3.3,0,0,0,.305-.174l1.543-3.338a16.013,16.013,0,0,0,4.973-1.5l3.13,1.937a.3.3,0,0,0,.35-.022l3.42-2.791a.3.3,0,0,0,.092-.339l-1.27-3.454a16.015,16.015,0,0,0,2.463-4.573l3.58-.842a.3.3,0,0,0,.231-.264l.445-4.392a.3.3,0,0,0-.174-.3l-3.338-1.544a16.012,16.012,0,0,0-1.5-4.973l1.937-3.129a.3.3,0,0,0-.022-.351l-2.791-3.42a.3.3,0,0,0-.339-.092l-3.454,1.27a16.016,16.016,0,0,0-4.573-2.463l-.842-3.58a.3.3,0,0,0-.264-.231l-4.392-.445a.3.3,0,0,0-.3.174l-1.544,3.338a16.022,16.022,0,0,0-4.973,1.5l-3.129-1.937a.3.3,0,0,0-.351.023l-3.42,2.79a.3.3,0,0,0-.092.339l1.27,3.454a16.01,16.01,0,0,0-2.463,4.573l-3.58.842a.3.3,0,0,0-.231.264l-.445,4.392a.3.3,0,0,0,.174.3l3.338,1.543a16.012,16.012,0,0,0,1.5,4.973l-1.937,3.129a.3.3,0,0,0,.023.351Z" fill="#bdfbf8"/>
          </g>
          <path id="Trazado_150922" data-name="Trazado 150922" d="M1122.495,799.888a4.616,4.616,0,1,1,.676-.05h0A4.564,4.564,0,0,1,1122.495,799.888Zm.575-.735h0Zm-.57-7.105a3.281,3.281,0,0,0-.472.035,3.222,3.222,0,1,0,.472-.035Z" fill="url(#linear-gradient)"/>
          <path id="Trazado_150923" data-name="Trazado 150923" d="M1122.574,806.093q-.549,0-1.1-.056-.222-.023-.442-.054a10.969,10.969,0,0,1-1.826-.422.23.23,0,0,1-.159-.219.227.227,0,0,1,.011-.072.231.231,0,0,1,.291-.148,10.507,10.507,0,0,0,2.171.455h0a10.425,10.425,0,0,0,11.391-9.078c.01-.08.019-.159.027-.239a10.421,10.421,0,0,0-20.735-2.1c-.035.352-.053.705-.053,1.057a10.386,10.386,0,0,0,.983,4.415.231.231,0,1,1-.418.2,10.883,10.883,0,1,1,20.738-4.628,10.587,10.587,0,0,1-.056,1.107A10.9,10.9,0,0,1,1122.574,806.093Z" fill="url(#linear-gradient)"/>
        </g>
      </g>
      <g id="Grupo_94226" data-name="Grupo 94226">
        <g id="Grupo_94222" data-name="Grupo 94222" opacity="0.64">
          <path id="Trazado_150924" data-name="Trazado 150924" d="M1135.04,774.291a.579.579,0,0,1-.554-.415c-.09-.307-.171-.621-.239-.934a.578.578,0,1,1,1.128-.248c.063.287.137.575.219.856a.579.579,0,0,1-.554.741Z" fill="#fff"/>
          <path id="Trazado_150925" data-name="Trazado 150925" d="M1134.5,770.477h0a.576.576,0,0,1-.576-.578c0-.32.012-.645.034-.966.021-.3.052-.612.093-.914a.577.577,0,1,1,1.144.154c-.037.277-.065.56-.085.84s-.031.594-.031.888A.578.578,0,0,1,1134.5,770.477Zm.825-4.651a.579.579,0,0,1-.542-.777,13.865,13.865,0,0,1,.767-1.724.577.577,0,0,1,1.021.54,12.9,12.9,0,0,0-.7,1.581A.579.579,0,0,1,1135.321,765.826Zm2.38-4.083a.569.569,0,0,1-.373-.138.578.578,0,0,1-.067-.814,14.329,14.329,0,0,1,1.313-1.352.578.578,0,1,1,.774.858,12.866,12.866,0,0,0-1.206,1.242A.578.578,0,0,1,1137.7,761.743Zm3.638-3.016a.578.578,0,0,1-.286-1.08,14.159,14.159,0,0,1,1.7-.82.578.578,0,0,1,.432,1.072,12.9,12.9,0,0,0-1.557.752A.573.573,0,0,1,1141.339,758.727Zm10.928-1.079a.578.578,0,0,1-.182-.03,12.958,12.958,0,0,0-1.676-.431.577.577,0,0,1,.212-1.135,13.951,13.951,0,0,1,1.827.47.578.578,0,0,1-.181,1.126Zm-6.478-.5A.578.578,0,0,1,1145.7,756a14.166,14.166,0,0,1,1.876-.183.578.578,0,0,1,.035,1.155,12.853,12.853,0,0,0-1.722.168A.621.621,0,0,1,1145.789,757.147Z" fill="#fff"/>
          <path id="Trazado_150926" data-name="Trazado 150926" d="M1155.724,759.376a.571.571,0,0,1-.329-.1c-.242-.168-.492-.329-.743-.479a.578.578,0,0,1,.593-.992c.274.164.546.34.809.523a.577.577,0,0,1-.33,1.051Z" fill="#fff"/>
        </g>
        <g id="Grupo_94223" data-name="Grupo 94223" opacity="0.64">
          <path id="Trazado_150927" data-name="Trazado 150927" d="M1161.417,768.7a.577.577,0,0,1-.572-.5c-.039-.291-.088-.584-.146-.871a.578.578,0,0,1,1.132-.23c.064.313.117.632.159.95a.577.577,0,0,1-.5.648A.5.5,0,0,1,1161.417,768.7Z" fill="#fff"/>
          <path id="Trazado_150928" data-name="Trazado 150928" d="M1148.029,784c-.119,0-.237,0-.356,0a.578.578,0,0,1,.028-1.155,13.033,13.033,0,0,0,1.7-.069.578.578,0,0,1,.122,1.149A14.33,14.33,0,0,1,1148.029,784Zm-3.2-.38a.581.581,0,0,1-.136-.016,14.069,14.069,0,0,1-1.77-.554.577.577,0,0,1,.417-1.077,12.991,12.991,0,0,0,1.624.508.578.578,0,0,1-.135,1.139Zm7.459-.308a.578.578,0,0,1-.183-1.126,12.866,12.866,0,0,0,1.575-.643.577.577,0,0,1,.506,1.038,14.1,14.1,0,0,1-1.716.7A.577.577,0,0,1,1152.284,783.314Zm4.089-2.206a.577.577,0,0,1-.357-1.031,12.889,12.889,0,0,0,1.266-1.139.578.578,0,1,1,.827.807,14.213,14.213,0,0,1-1.379,1.239A.57.57,0,0,1,1156.373,781.108Zm3.106-3.457a.585.585,0,0,1-.306-.088.577.577,0,0,1-.182-.8,13.034,13.034,0,0,0,.806-1.5.577.577,0,0,1,1.051.478,14.051,14.051,0,0,1-.879,1.635A.576.576,0,0,1,1159.479,777.651Zm1.751-4.308a.564.564,0,0,1-.122-.013.576.576,0,0,1-.443-.686,13.212,13.212,0,0,0,.248-1.684.577.577,0,0,1,1.151.093,14.23,14.23,0,0,1-.27,1.834A.577.577,0,0,1,1161.23,773.343Z" fill="#fff"/>
          <path id="Trazado_150929" data-name="Trazado 150929" d="M1140.551,781.757a.575.575,0,0,1-.319-.1c-.266-.176-.529-.364-.784-.559a.578.578,0,1,1,.7-.917c.234.179.476.352.719.513a.577.577,0,0,1-.319,1.059Z" fill="#fff"/>
        </g>
        <g id="Grupo_94225" data-name="Grupo 94225">
          <g id="Grupo_94224" data-name="Grupo 94224">
            <path id="Trazado_150930" data-name="Trazado 150930" d="M1140.715,777.292a.162.162,0,0,0,.182.05l1.853-.682a8.621,8.621,0,0,0,2.454,1.322l.452,1.921a.163.163,0,0,0,.142.124l2.356.239a.163.163,0,0,0,.164-.094l.828-1.791a8.62,8.62,0,0,0,2.669-.8l1.679,1.039a.164.164,0,0,0,.188-.012l1.835-1.5a.162.162,0,0,0,.05-.182l-.682-1.853a8.611,8.611,0,0,0,1.322-2.454l1.921-.452a.162.162,0,0,0,.124-.141l.239-2.357a.163.163,0,0,0-.094-.164l-1.791-.828a8.593,8.593,0,0,0-.8-2.669l1.04-1.679a.164.164,0,0,0-.012-.188l-1.5-1.835a.162.162,0,0,0-.182-.049l-1.853.681a8.582,8.582,0,0,0-2.454-1.321l-.452-1.921a.163.163,0,0,0-.141-.125l-2.357-.238a.162.162,0,0,0-.164.093l-.828,1.791a8.623,8.623,0,0,0-2.669.8l-1.679-1.04a.163.163,0,0,0-.188.013l-1.835,1.5a.162.162,0,0,0-.05.182l.682,1.853a8.624,8.624,0,0,0-1.322,2.454l-1.921.452a.163.163,0,0,0-.124.142l-.238,2.356a.162.162,0,0,0,.093.164l1.791.828a8.593,8.593,0,0,0,.8,2.669l-1.04,1.679a.163.163,0,0,0,.013.188Z" fill="#bdfbf8"/>
          </g>
          <path id="Trazado_150931" data-name="Trazado 150931" d="M1148.018,772.6a2.8,2.8,0,1,1,.414-.03A2.891,2.891,0,0,1,1148.018,772.6Zm.007-4.207a1.461,1.461,0,0,0-.207.015,1.41,1.41,0,1,0,.412,2.79h0a1.41,1.41,0,0,0-.2-2.8Z" fill="#fff" opacity="0.56"/>
          <path id="Trazado_150932" data-name="Trazado 150932" d="M1148.071,775.712c-.2,0-.406-.011-.61-.031h0a6.042,6.042,0,0,1-1.239-.26.231.231,0,0,1-.16-.22.222.222,0,0,1,.012-.071.231.231,0,0,1,.291-.149,5.488,5.488,0,0,0,7.152-4.664,5.622,5.622,0,0,0,.028-.564,5.485,5.485,0,1,0-10.452,2.339.225.225,0,0,1,.022.1.231.231,0,0,1-.44.1,5.92,5.92,0,0,1-.561-2.523q0-.3.03-.6a5.947,5.947,0,0,1,11.863.594q0,.3-.03.6a5.949,5.949,0,0,1-5.906,5.349Z" fill="url(#linear-gradient)"/>
        </g>
      </g>
    </g>
    <path id="Trazado_150933" data-name="Trazado 150933" d="M1218.551,885.83s-74.006.763-94.62-16.4-12.855-34.278,2.929-39.126,18.476-9.889,9.983-16.689-19.28-20.759-1.37-34.787,38.346,6.121,54.353,3.445,9.668-11.687,30.718-5.464,16.41-11.9,33.333-13.538,15.189,18.846,32.6,11.112,31.645-6.666,39.129,5.616,4.232,28.825-12.186,38.683-14.655,9.187-8.52,18.874,11.638,41.545-16.3,46.1S1218.551,885.83,1218.551,885.83Z" fill="url(#linear-gradient)"/>
    <g id="Grupo_94231" data-name="Grupo 94231">
      <g id="Grupo_94230" data-name="Grupo 94230">
        <g id="Grupo_94228" data-name="Grupo 94228">
          <path id="Trazado_150934" data-name="Trazado 150934" d="M1291.581,773.755a10.04,10.04,0,0,1,16.361,11.64h0a10.75,10.75,0,0,0-1.71,8.671,12.771,12.771,0,0,1-2.037,10.33h0a12.005,12.005,0,0,0-1.693,10.479,14.54,14.54,0,1,1-25.746-4.159q.374-.525.783-1.006a15,15,0,0,0,3.487-11.354,12.824,12.824,0,0,1,5.222-11.767,8.4,8.4,0,0,0,3.475-6.908A9.994,9.994,0,0,1,1291.581,773.755Z" fill="#91faf4"/>
          <path id="Trazado_150935" data-name="Trazado 150935" d="M1287.2,829.481h-.024a.256.256,0,0,1-.231-.278,175.279,175.279,0,0,1,12.026-49.837.256.256,0,0,1,.467.208,174.712,174.712,0,0,0-11.984,49.676A.255.255,0,0,1,1287.2,829.481Z" fill="#bdfbf8"/>
          <path id="Trazado_150936" data-name="Trazado 150936" d="M1296.029,788.466a.256.256,0,0,1,0-.511c2.89-.05,7.894-4.122,7.944-4.163a.255.255,0,1,1,.324.4c-.211.173-5.194,4.225-8.259,4.279Z" fill="#bdfbf8"/>
          <path id="Trazado_150937" data-name="Trazado 150937" d="M1295.869,788.352a.254.254,0,0,1-.21-.111A20.11,20.11,0,0,1,1292.6,781a.255.255,0,1,1,.505-.074,20,20,0,0,0,2.971,7.028.255.255,0,0,1-.21.4Z" fill="#bdfbf8"/>
          <path id="Trazado_150938" data-name="Trazado 150938" d="M1291.8,803.013a.256.256,0,0,1-.046-.507c4.679-.869,8.965-5.271,9.008-5.316a.256.256,0,0,1,.368.355c-.179.186-4.444,4.565-9.283,5.464A.386.386,0,0,1,1291.8,803.013Z" fill="#bdfbf8"/>
          <path id="Trazado_150939" data-name="Trazado 150939" d="M1291.673,803.044a.258.258,0,0,1-.153-.051c-.152-.114-3.747-2.855-4.927-9.09a.255.255,0,0,1,.5-.1c1.141,6.028,4.7,8.749,4.731,8.776a.255.255,0,0,1-.153.46Z" fill="#bdfbf8"/>
          <path id="Trazado_150940" data-name="Trazado 150940" d="M1287.941,821.234a.252.252,0,0,1-.147-.047,16.885,16.885,0,0,1-5.924-8.676.256.256,0,0,1,.494-.133,16.655,16.655,0,0,0,5.726,8.393.255.255,0,0,1-.149.463Z" fill="#fff"/>
          <path id="Trazado_150941" data-name="Trazado 150941" d="M1288.116,821.288a.256.256,0,0,1-.026-.51,14.876,14.876,0,0,0,8.591-5.088.255.255,0,1,1,.381.34c-4.217,4.727-8.73,5.237-8.92,5.256Z" fill="#fff"/>
        </g>
        <g id="Grupo_94229" data-name="Grupo 94229">
          <path id="Trazado_150942" data-name="Trazado 150942" d="M1339.916,800.633a12.864,12.864,0,1,0-23.594-10.258v0a13.775,13.775,0,0,1-8.385,7.611,16.364,16.364,0,0,0-9.99,9.066,15.376,15.376,0,0,1-10.376,8.788,18.63,18.63,0,1,0,21.586,25.506q.328-.756.586-1.525a19.216,19.216,0,0,1,10.155-11.335,16.433,16.433,0,0,0,9.459-13.513,10.769,10.769,0,0,1,5.284-8.382A12.805,12.805,0,0,0,1339.916,800.633Z" fill="#bdfbf8"/>
          <path id="Trazado_150943" data-name="Trazado 150943" d="M1281.939,842.383a.255.255,0,0,1-.152-.461c29.643-21.862,46.441-45.782,46.608-46.021a.255.255,0,1,1,.419.291c-.167.24-17.009,24.226-46.724,46.141A.249.249,0,0,1,1281.939,842.383Z" fill="url(#linear-gradient)"/>
          <path id="Trazado_150944" data-name="Trazado 150944" d="M1321.11,805.567a.255.255,0,0,1-.221-.128c-1.956-3.378-.807-11.5-.757-11.847a.255.255,0,1,1,.505.073c-.012.083-1.173,8.294.694,11.518a.255.255,0,0,1-.093.349A.247.247,0,0,1,1321.11,805.567Z" fill="url(#linear-gradient-6)"/>
          <path id="Trazado_150945" data-name="Trazado 150945" d="M1322.579,805.7c-.726,0-1.189-.027-1.253-.031a.256.256,0,0,1,.032-.51c.055,0,5.61.322,9.71-1.393a.255.255,0,0,1,.2.471A24.071,24.071,0,0,1,1322.579,805.7Z" fill="url(#linear-gradient)"/>
          <path id="Trazado_150946" data-name="Trazado 150946" d="M1307.94,819.824a.256.256,0,0,1-.239-.166c-2.206-5.883-.162-13.679-.141-13.757a.256.256,0,1,1,.494.132c-.021.077-2.022,7.717.125,13.446a.255.255,0,0,1-.149.329A.26.26,0,0,1,1307.94,819.824Z" fill="url(#linear-gradient-8)"/>
          <path id="Trazado_150947" data-name="Trazado 150947" d="M1313.29,820.822a15.3,15.3,0,0,1-5.394-.852.255.255,0,0,1,.193-.473c.054.021,5.413,2.134,12.812-.611a.256.256,0,0,1,.178.479A22.354,22.354,0,0,1,1313.29,820.822Z" fill="url(#linear-gradient-9)"/>
          <path id="Trazado_150948" data-name="Trazado 150948" d="M1298.452,837.58a22.467,22.467,0,0,1-8.057-1.487.256.256,0,0,1,.2-.469,21.446,21.446,0,0,0,13.046.737.255.255,0,1,1,.141.491A19.321,19.321,0,0,1,1298.452,837.58Z" fill="#fff"/>
          <path id="Trazado_150949" data-name="Trazado 150949" d="M1290.323,835.958a.256.256,0,0,1-.231-.147c-.1-.22-2.517-5.485-.126-13.213a.255.255,0,0,1,.488.151,21.372,21.372,0,0,0-.834,9.276,13.824,13.824,0,0,0,.934,3.569.254.254,0,0,1-.122.339A.248.248,0,0,1,1290.323,835.958Z" fill="#fff"/>
        </g>
      </g>
    </g>
    <g id="Grupo_94232" data-name="Grupo 94232">
      <path id="Trazado_150950" data-name="Trazado 150950" d="M1290.762,813.595a1.4,1.4,0,0,1-1.367-1.374c-.14-7.689-2.539-45.87-36.163-53.849-37.435-8.882-54.566,29.187-54.566,29.187s-46.317-17.766-55.2,29.82c-29.042,6.97-36.587,44.9-17.7,63.431A16.235,16.235,0,0,0,1137,885.457l181.879,1.638a11.974,11.974,0,0,0,11.588-8.564C1336.144,859.356,1343.591,814.832,1290.762,813.595Z" fill="url(#linear-gradient-10)"/>
      <path id="Trazado_150951" data-name="Trazado 150951" d="M1286.6,814.41a1.4,1.4,0,0,1-1.367-1.37c-.149-7.375-2.524-42.779-34.192-50.2-35.4-8.3-51.6,27.255-51.6,27.255s-43.8-16.59-52.2,27.848c-27.2,6.447-34.457,41.251-17.241,58.731a16.24,16.24,0,0,0,11.429,4.845l171.213,1.524a11.976,11.976,0,0,0,11.6-8.6C1329.591,856.236,1335.928,815.591,1286.6,814.41Z" fill="url(#linear-gradient-11)"/>
    </g>
    <g id="Grupo_94236" data-name="Grupo 94236">
      <g id="Grupo_94235" data-name="Grupo 94235">
        <g id="Grupo_94233" data-name="Grupo 94233">
          <path id="Trazado_150952" data-name="Trazado 150952" d="M1103.751,843.744a8.137,8.137,0,0,1,16.266.537h0a8.714,8.714,0,0,0,2.727,6.624,10.354,10.354,0,0,1,3.25,7.891,9.727,9.727,0,0,0,3.546,7.836,11.785,11.785,0,1,1-19.253,8.722c.011-.348.038-.692.079-1.031a12.16,12.16,0,0,0-2.729-9.232A10.4,10.4,0,0,1,1105.9,854.8a6.812,6.812,0,0,0-.746-6.223A8.1,8.1,0,0,1,1103.751,843.744Z" fill="#91faf4"/>
          <path id="Trazado_150953" data-name="Trazado 150953" d="M1125.63,883.437a.256.256,0,0,1-.226-.134,142.09,142.09,0,0,1-14.2-39.07.255.255,0,1,1,.5-.084,141.6,141.6,0,0,0,14.143,38.912.256.256,0,0,1-.1.346A.248.248,0,0,1,1125.63,883.437Z" fill="#bdfbf8"/>
          <path id="Trazado_150954" data-name="Trazado 150954" d="M1113.23,851.774a.255.255,0,0,1-.145-.466c1.914-1.318,3.468-6.294,3.484-6.345a.255.255,0,0,1,.488.151c-.066.212-1.622,5.2-3.683,6.615A.255.255,0,0,1,1113.23,851.774Z" fill="#bdfbf8"/>
          <path id="Trazado_150955" data-name="Trazado 150955" d="M1113.07,851.768a.262.262,0,0,1-.095-.018,16.37,16.37,0,0,1-5.327-3.538.256.256,0,0,1,.38-.342,16.148,16.148,0,0,0,5.137,3.406.255.255,0,0,1-.1.492Z" fill="#bdfbf8"/>
          <path id="Trazado_150956" data-name="Trazado 150956" d="M1116.889,863.493a.255.255,0,0,1-.178-.439c2.759-2.67,3.683-7.55,3.692-7.6a.255.255,0,0,1,.5.092c-.038.207-.961,5.089-3.839,7.874A.252.252,0,0,1,1116.889,863.493Z" fill="#bdfbf8"/>
          <path id="Trazado_150957" data-name="Trazado 150957" d="M1116.814,863.573h-.014a12.226,12.226,0,0,1-7.431-3.949.255.255,0,1,1,.366-.356,11.91,11.91,0,0,0,7.093,3.795.256.256,0,0,1-.014.511Z" fill="#bdfbf8"/>
          <path id="Trazado_150958" data-name="Trazado 150958" d="M1122.439,877.533h-.009a13.74,13.74,0,0,1-7.917-3.221.255.255,0,1,1,.338-.383,13.447,13.447,0,0,0,7.6,3.093.256.256,0,0,1-.008.511Z" fill="#bdfbf8"/>
          <path id="Trazado_150959" data-name="Trazado 150959" d="M1122.581,877.491a.256.256,0,0,1-.163-.453,12.013,12.013,0,0,0,3.508-7.253.256.256,0,0,1,.506.072,12.286,12.286,0,0,1-3.69,7.576A.251.251,0,0,1,1122.581,877.491Z" fill="#fff"/>
        </g>
        <g id="Grupo_94234" data-name="Grupo 94234">
          <path id="Trazado_150960" data-name="Trazado 150960" d="M1135.508,823.043a10.426,10.426,0,0,0-18.318,9.963h0a11.167,11.167,0,0,1,.684,9.154,13.265,13.265,0,0,0,.813,10.9,12.467,12.467,0,0,1,.443,11.012A15.1,15.1,0,1,0,1146.191,863q-.32-.588-.683-1.135a15.577,15.577,0,0,1-2.18-12.141,13.319,13.319,0,0,0-3.919-12.781,8.729,8.729,0,0,1-2.723-7.556A10.376,10.376,0,0,0,1135.508,823.043Z" fill="#bdfbf8"/>
          <path id="Trazado_150961" data-name="Trazado 150961" d="M1133.12,881.036h-.007a.257.257,0,0,1-.249-.262,181.4,181.4,0,0,0-6.17-52.713.256.256,0,0,1,.488-.152,182,182,0,0,1,6.193,52.878A.255.255,0,0,1,1133.12,881.036Z" fill="url(#linear-gradient)"/>
          <path id="Trazado_150962" data-name="Trazado 150962" d="M1129.122,837.648a.209.209,0,0,1-.035,0c-3.15-.436-7.781-5.233-7.977-5.437a.256.256,0,0,1,.369-.354c.047.049,4.7,4.873,7.678,5.285a.255.255,0,0,1-.035.508Z" fill="url(#linear-gradient)"/>
          <path id="Trazado_150963" data-name="Trazado 150963" d="M1129.3,837.55a.255.255,0,0,1-.191-.424,20.826,20.826,0,0,0,3.94-6.881.256.256,0,0,1,.493.135,20.91,20.91,0,0,1-4.051,7.084A.254.254,0,0,1,1129.3,837.55Z" fill="url(#linear-gradient-6)"/>
          <path id="Trazado_150964" data-name="Trazado 150964" d="M1131.667,853.173a.263.263,0,0,1-.077-.012c-4.874-1.529-8.724-6.572-8.885-6.786a.255.255,0,1,1,.407-.308c.039.051,3.915,5.127,8.631,6.607a.255.255,0,0,1-.076.5Z" fill="url(#linear-gradient)"/>
          <path id="Trazado_150965" data-name="Trazado 150965" d="M1131.8,853.221a.256.256,0,0,1-.128-.477c.04-.023,4.047-2.387,5.975-8.464a.255.255,0,0,1,.487.154c-1.992,6.278-6.037,8.655-6.208,8.753A.251.251,0,0,1,1131.8,853.221Z" fill="url(#linear-gradient)"/>
          <path id="Trazado_150966" data-name="Trazado 150966" d="M1133.381,872.441a.256.256,0,0,1-.123-.48,17.344,17.344,0,0,0,6.954-7.945.256.256,0,0,1,.474.191,17.882,17.882,0,0,1-7.184,8.2A.25.25,0,0,1,1133.381,872.441Z" fill="url(#linear-gradient)"/>
          <path id="Trazado_150967" data-name="Trazado 150967" d="M1133.194,872.474a.263.263,0,0,1-.056-.006c-.194-.044-4.78-1.13-8.536-6.527a.255.255,0,1,1,.419-.291,17.256,17.256,0,0,0,5.492,5.14,11.176,11.176,0,0,0,2.737,1.18.255.255,0,0,1-.056.5Z" fill="url(#linear-gradient)"/>
        </g>
      </g>
    </g>
    <g id="Grupo_94249" data-name="Grupo 94249">
      <g id="Grupo_94242" data-name="Grupo 94242">
        <g id="Grupo_94237" data-name="Grupo 94237">
          <path id="Trazado_150968" data-name="Trazado 150968" d="M1292.409,866.019a.638.638,0,0,1-.612-.459c-.1-.336-.19-.679-.271-1.02a.639.639,0,1,1,1.243-.294c.075.318.16.639.253.954a.638.638,0,0,1-.433.792A.623.623,0,0,1,1292.409,866.019Z" fill="#bdfbf8"/>
          <path id="Trazado_150969" data-name="Trazado 150969" d="M1291.664,861.778a.64.64,0,0,1-.637-.6c-.025-.415-.039-.838-.039-1.255,0-.278.006-.56.018-.836a.639.639,0,1,1,1.276.053q-.016.393-.017.783c0,.391.013.786.037,1.176a.639.639,0,0,1-.6.677Zm.389-5.287a.672.672,0,0,1-.133-.014.638.638,0,0,1-.492-.757,19.877,19.877,0,0,1,.539-2.021.639.639,0,1,1,1.215.394,18.962,18.962,0,0,0-.505,1.891A.639.639,0,0,1,1292.053,856.491Zm1.8-4.987a.64.64,0,0,1-.565-.936,20.144,20.144,0,0,1,1.069-1.8.638.638,0,0,1,1.062.709,18.939,18.939,0,0,0-1,1.684A.64.64,0,0,1,1293.851,851.5Zm3.085-4.313a.638.638,0,0,1-.464-1.077,20.406,20.406,0,0,1,1.514-1.443.639.639,0,0,1,.832.969,19.041,19.041,0,0,0-1.418,1.351A.634.634,0,0,1,1296.936,847.191Zm4.132-3.322a.639.639,0,0,1-.33-1.186,20.251,20.251,0,0,1,1.846-.982.638.638,0,1,1,.541,1.156,18.956,18.956,0,0,0-1.729.921A.633.633,0,0,1,1301.068,843.869Zm17.292-1.356a.635.635,0,0,1-.24-.046,18.728,18.728,0,0,0-1.851-.638.638.638,0,1,1,.352-1.227,19.8,19.8,0,0,1,1.978.681.638.638,0,0,1-.239,1.23Zm-12.421-.729a.638.638,0,0,1-.168-1.254,19.736,19.736,0,0,1,2.044-.445.638.638,0,1,1,.206,1.26,18.579,18.579,0,0,0-1.913.417A.662.662,0,0,1,1305.939,841.784Zm7.28-.565a.566.566,0,0,1-.071,0c-.258-.028-.519-.052-.78-.07-.392-.027-.787-.042-1.177-.045a.638.638,0,0,1,.005-1.277h.005c.415,0,.837.02,1.255.048q.418.03.832.075a.638.638,0,0,1-.069,1.273Z" fill="#bdfbf8"/>
          <path id="Trazado_150970" data-name="Trazado 150970" d="M1322.158,844.569a.633.633,0,0,1-.365-.115c-.267-.186-.544-.368-.825-.542a.639.639,0,1,1,.674-1.085c.3.186.6.38.881.579a.639.639,0,0,1-.365,1.163Z" fill="#bdfbf8"/>
        </g>
        <g id="Grupo_94238" data-name="Grupo 94238">
          <path id="Trazado_150971" data-name="Trazado 150971" d="M1330.3,857.67a.638.638,0,0,1-.63-.545c-.049-.326-.106-.653-.171-.973a.638.638,0,1,1,1.251-.254c.07.342.131.691.183,1.039a.639.639,0,0,1-.538.726A.765.765,0,0,1,1330.3,857.67Z" fill="#bdfbf8"/>
          <path id="Trazado_150972" data-name="Trazado 150972" d="M1309.871,879.948h-.039l-.149-.01c-.634-.043-1.272-.118-1.9-.221a.639.639,0,0,1,.208-1.26c.585.1,1.183.166,1.778.207l.137.009a.639.639,0,0,1-.038,1.276Zm3.232-.066a.639.639,0,0,1-.065-1.274,18.441,18.441,0,0,0,1.9-.3.639.639,0,1,1,.262,1.25,19.845,19.845,0,0,1-2.033.318A.505.505,0,0,1,1313.1,879.882Zm-8.351-.947a.654.654,0,0,1-.207-.034,20.155,20.155,0,0,1-1.91-.767.639.639,0,1,1,.537-1.159,18.754,18.754,0,0,0,1.787.718.638.638,0,0,1-.207,1.242Zm13.419-.288a.639.639,0,0,1-.233-1.233,18.787,18.787,0,0,0,1.753-.795.638.638,0,1,1,.587,1.134,20.069,20.069,0,0,1-1.873.85A.643.643,0,0,1,1318.171,878.647Zm4.554-2.542a.638.638,0,0,1-.383-1.149,19.156,19.156,0,0,0,1.481-1.233.639.639,0,1,1,.866.939,20.481,20.481,0,0,1-1.581,1.316A.638.638,0,0,1,1322.725,876.1Zm3.718-3.657a.638.638,0,0,1-.5-1.03,18.9,18.9,0,0,0,1.1-1.581.639.639,0,1,1,1.084.676,20.127,20.127,0,0,1-1.177,1.688A.636.636,0,0,1,1326.443,872.448Zm2.615-4.514a.625.625,0,0,1-.242-.048.638.638,0,0,1-.348-.833,18.729,18.729,0,0,0,.639-1.818.639.639,0,1,1,1.225.361,19.86,19.86,0,0,1-.683,1.942A.638.638,0,0,1,1329.058,867.934Zm1.314-5.048a.5.5,0,0,1-.077-.005.639.639,0,0,1-.558-.71c.039-.32.07-.646.092-.969s.036-.636.042-.954a.639.639,0,1,1,1.277.025c-.007.339-.022.681-.045,1.017s-.057.693-.1,1.034A.638.638,0,0,1,1330.372,862.886Z" fill="#bdfbf8"/>
          <path id="Trazado_150973" data-name="Trazado 150973" d="M1300.08,876.585a.637.637,0,0,1-.361-.112c-.289-.2-.576-.407-.853-.619a.639.639,0,0,1,.777-1.014c.259.2.528.394.8.58a.639.639,0,0,1-.362,1.165Z" fill="#bdfbf8"/>
        </g>
        <g id="Grupo_94241" data-name="Grupo 94241">
          <g id="Grupo_94239" data-name="Grupo 94239">
            <path id="Trazado_150974" data-name="Trazado 150974" d="M1300.571,870.528a.232.232,0,0,0,.261.071l2.666-.98a12.389,12.389,0,0,0,3.529,1.9l.65,2.762a.234.234,0,0,0,.2.179l3.389.343a.233.233,0,0,0,.236-.134l1.191-2.576a12.384,12.384,0,0,0,3.838-1.154l2.415,1.495a.233.233,0,0,0,.27-.018l2.64-2.154a.232.232,0,0,0,.071-.261l-.98-2.666a12.392,12.392,0,0,0,1.9-3.529l2.762-.65a.234.234,0,0,0,.179-.2l.343-3.389a.23.23,0,0,0-.134-.235l-2.576-1.191a12.382,12.382,0,0,0-1.154-3.839l1.495-2.415a.233.233,0,0,0-.018-.27l-2.154-2.64a.234.234,0,0,0-.261-.071l-2.666.98a12.362,12.362,0,0,0-3.529-1.9l-.65-2.763a.234.234,0,0,0-.2-.179l-3.389-.343a.233.233,0,0,0-.235.134l-1.191,2.576a12.356,12.356,0,0,0-3.839,1.155l-2.415-1.495a.232.232,0,0,0-.27.017l-2.64,2.154a.234.234,0,0,0-.071.261l.98,2.666a12.365,12.365,0,0,0-1.9,3.529l-2.763.65a.234.234,0,0,0-.179.2l-.343,3.389a.235.235,0,0,0,.134.236l2.576,1.191a12.36,12.36,0,0,0,1.155,3.838l-1.495,2.415a.232.232,0,0,0,.017.27Z" fill="#7debf4"/>
          </g>
          <g id="Grupo_94240" data-name="Grupo 94240">
            <path id="Trazado_150975" data-name="Trazado 150975" d="M1311.081,863.543a3.795,3.795,0,1,1,.555-.041h0A3.884,3.884,0,0,1,1311.081,863.543Zm.443-.8h0Zm-.436-5.252a2.346,2.346,0,0,0-.334.024,2.259,2.259,0,1,0,.334-.024Z" fill="#bdfbf8"/>
          </g>
          <path id="Trazado_150976" data-name="Trazado 150976" d="M1311.142,868.177a8.323,8.323,0,0,1-.861-.044h0a8.5,8.5,0,0,1-1.766-.37.256.256,0,0,1-.177-.243.249.249,0,0,1,.013-.079.255.255,0,0,1,.321-.164,7.973,7.973,0,0,0,10.388-6.773q.04-.41.041-.811a7.965,7.965,0,0,0-15.89-.795,8.066,8.066,0,0,0-.041.808,7.94,7.94,0,0,0,.752,3.375.261.261,0,0,1,.024.108.256.256,0,0,1-.487.109,8.477,8.477,0,1,1,16.153-3.614c0,.289-.015.58-.044.871A8.488,8.488,0,0,1,1311.142,868.177Z" fill="#bdfbf8"/>
        </g>
      </g>
      <g id="Grupo_94248" data-name="Grupo 94248">
        <g id="Grupo_94243" data-name="Grupo 94243">
          <path id="Trazado_150977" data-name="Trazado 150977" d="M1320.762,843.749a.639.639,0,0,1-.612-.459c-.1-.346-.187-.7-.254-1.054a.639.639,0,1,1,1.255-.237c.059.312.135.626.224.931a.638.638,0,0,1-.433.793A.66.66,0,0,1,1320.762,843.749Z" fill="#bdfbf8"/>
          <path id="Trazado_150978" data-name="Trazado 150978" d="M1320.414,839.6a.625.625,0,0,1-.074,0,.64.64,0,0,1-.561-.708,11.159,11.159,0,0,1,.428-2.021.638.638,0,1,1,1.219.38,9.857,9.857,0,0,0-.378,1.788A.639.639,0,0,1,1320.414,839.6Zm1.79-4.74a.638.638,0,0,1-.524-1,11.159,11.159,0,0,1,1.333-1.579.639.639,0,1,1,.9.911,9.824,9.824,0,0,0-1.179,1.4A.637.637,0,0,1,1322.2,834.86Zm3.816-3.336a.639.639,0,0,1-.293-1.207,11.1,11.1,0,0,1,1.919-.768.639.639,0,0,1,.361,1.225,9.808,9.808,0,0,0-1.7.679A.638.638,0,0,1,1326.02,831.524Zm6.871-.931a.637.637,0,0,1-.129-.013,9.9,9.9,0,0,0-1.31-.179c-.17-.012-.34-.019-.509-.022a.639.639,0,0,1,.023-1.277c.191,0,.382.012.574.025a11.122,11.122,0,0,1,1.479.2.639.639,0,0,1-.128,1.264Z" fill="#bdfbf8"/>
          <path id="Trazado_150979" data-name="Trazado 150979" d="M1336.726,832.239a.638.638,0,0,1-.364-.115c-.262-.182-.536-.353-.813-.508a.638.638,0,1,1,.623-1.114c.314.175.623.368.919.574a.639.639,0,0,1-.365,1.163Z" fill="#bdfbf8"/>
        </g>
        <g id="Grupo_94244" data-name="Grupo 94244">
          <path id="Trazado_150980" data-name="Trazado 150980" d="M1341.155,839.739a.637.637,0,0,1-.634-.574c-.033-.318-.082-.637-.145-.948a.639.639,0,0,1,1.252-.254c.071.352.126.713.163,1.072a.639.639,0,0,1-.57.7A.488.488,0,0,1,1341.155,839.739Z" fill="#bdfbf8"/>
          <path id="Trazado_150981" data-name="Trazado 150981" d="M1330.027,851.216h-.047a11.165,11.165,0,0,1-2-.33.639.639,0,0,1,.321-1.236,9.812,9.812,0,0,0,1.775.292.638.638,0,0,1-.045,1.275Zm3.093-.236a.639.639,0,0,1-.143-1.261,9.833,9.833,0,0,0,1.707-.563.638.638,0,1,1,.51,1.17,11.023,11.023,0,0,1-1.93.637A.646.646,0,0,1,1333.12,850.98Zm4.448-2.25a.638.638,0,0,1-.416-1.123,9.85,9.85,0,0,0,1.252-1.29.639.639,0,1,1,.994.8,11.133,11.133,0,0,1-1.415,1.457A.631.631,0,0,1,1337.568,848.73Zm2.9-4.052a.631.631,0,0,1-.236-.046.637.637,0,0,1-.357-.829,9.831,9.831,0,0,0,.508-1.724.639.639,0,1,1,1.253.247,11.02,11.02,0,0,1-.575,1.95A.639.639,0,0,1,1340.469,844.678Z" fill="#bdfbf8"/>
          <path id="Trazado_150982" data-name="Trazado 150982" d="M1325.275,849.678a.636.636,0,0,1-.336-.1c-.3-.19-.6-.4-.892-.616a.639.639,0,0,1,.777-1.014c.254.194.519.378.788.545a.638.638,0,0,1-.337,1.181Z" fill="#bdfbf8"/>
        </g>
        <g id="Grupo_94247" data-name="Grupo 94247">
          <g id="Grupo_94245" data-name="Grupo 94245">
            <path id="Trazado_150983" data-name="Trazado 150983" d="M1325.142,845.873a.128.128,0,0,0,.141.038l1.43-.526a6.643,6.643,0,0,0,1.894,1.02l.349,1.482a.124.124,0,0,0,.109.1l1.819.184a.123.123,0,0,0,.126-.072l.639-1.382a6.647,6.647,0,0,0,2.06-.619l1.3.8a.125.125,0,0,0,.145-.01l1.416-1.155a.126.126,0,0,0,.038-.141l-.526-1.43a6.621,6.621,0,0,0,1.02-1.894l1.483-.349a.126.126,0,0,0,.1-.109l.184-1.819a.126.126,0,0,0-.072-.126l-1.383-.639a6.647,6.647,0,0,0-.619-2.06l.8-1.3a.125.125,0,0,0-.009-.145l-1.156-1.416a.123.123,0,0,0-.14-.038l-1.431.526a6.612,6.612,0,0,0-1.893-1.02l-.349-1.483a.126.126,0,0,0-.109-.1l-1.819-.184a.124.124,0,0,0-.126.072l-.64,1.382a6.634,6.634,0,0,0-2.059.62l-1.3-.8a.125.125,0,0,0-.145.009L1325,834.449a.126.126,0,0,0-.038.14l.526,1.431a6.636,6.636,0,0,0-1.02,1.893l-1.482.349a.124.124,0,0,0-.1.109l-.185,1.819a.125.125,0,0,0,.073.126l1.382.64a6.633,6.633,0,0,0,.619,2.059l-.8,1.3a.125.125,0,0,0,.01.145Z" fill="#7debf4"/>
          </g>
          <g id="Grupo_94246" data-name="Grupo 94246">
            <path id="Trazado_150984" data-name="Trazado 150984" d="M1330.782,842.479a2.386,2.386,0,1,1,.35-.025A2.449,2.449,0,0,1,1330.782,842.479Zm0-3.246a.92.92,0,0,0-.127.009.857.857,0,1,0,.973.723.857.857,0,0,0-.846-.732Z" fill="#bdfbf8"/>
          </g>
          <path id="Trazado_150985" data-name="Trazado 150985" d="M1330.815,844.729a4.733,4.733,0,0,1-.474-.023h0c-.064-.007-.128-.015-.191-.024a4.688,4.688,0,0,1-.781-.18.256.256,0,0,1-.177-.243.273.273,0,0,1,.012-.079.256.256,0,0,1,.322-.164,4.235,4.235,0,0,0,.866.181h0a4.157,4.157,0,0,0,4.531-3.535c.009-.06.017-.12.023-.18q.021-.213.021-.423a4.156,4.156,0,0,0-8.29-.415,3.959,3.959,0,0,0-.022.422,4.137,4.137,0,0,0,.393,1.76.262.262,0,0,1,.024.109.256.256,0,0,1-.487.108,4.645,4.645,0,0,1-.44-1.977c0-.158.008-.316.023-.474a4.667,4.667,0,0,1,9.31.466,4.754,4.754,0,0,1-.024.475A4.673,4.673,0,0,1,1330.815,844.729Z" fill="#bdfbf8"/>
        </g>
      </g>
    </g>
    <g id="Grupo_94255" data-name="Grupo 94255">
      <g id="Grupo_94254" data-name="Grupo 94254">
        <g id="Grupo_94252" data-name="Grupo 94252">
          <g id="Grupo_94250" data-name="Grupo 94250" opacity="0.41">
            <ellipse id="Elipse_5087" data-name="Elipse 5087" cx="18.555" cy="18.221" rx="18.555" ry="18.221" transform="translate(1190.644 771.019) rotate(-70.483)" fill="#bdfbf8"/>
          </g>
          <path id="Trazado_150986" data-name="Trazado 150986" d="M1233.127,766.391a20.278,20.278,0,1,0-26.008,12.687A20.463,20.463,0,0,0,1233.127,766.391Zm-35.412-12.552a17.3,17.3,0,1,1,10.418,22.38A17.458,17.458,0,0,1,1197.715,753.839Z" fill="url(#linear-gradient-19)"/>
          <g id="Grupo_94251" data-name="Grupo 94251">
            <path id="Trazado_150987" data-name="Trazado 150987" d="M1225.583,774.8a.128.128,0,0,1-.08-.228,19.3,19.3,0,0,0,6.19-8.689,19.03,19.03,0,0,0-5.131-20.61h0a18.312,18.312,0,0,0-3.174-2.29.128.128,0,0,1,.126-.222,18.692,18.692,0,0,1,3.22,2.322h0a19.285,19.285,0,0,1,5.2,20.886,19.541,19.541,0,0,1-6.271,8.8A.125.125,0,0,1,1225.583,774.8Zm-6.026-33.466a.157.157,0,0,1-.037-.005c-.458-.138-.927-.259-1.393-.36a.127.127,0,1,1,.054-.249c.473.1.948.225,1.412.364a.128.128,0,0,1-.036.25Z" fill="#bdfbf8"/>
          </g>
        </g>
        <g id="Grupo_94253" data-name="Grupo 94253">
          <path id="Trazado_150988" data-name="Trazado 150988" d="M1197.307,768.581l-35.817,17.811a2.878,2.878,0,0,0-1.188,4.054l.141.237a2.677,2.677,0,0,0,3.685.913l34.373-20.871Z" fill="url(#linear-gradient-20)"/>
          <path id="Trazado_150989" data-name="Trazado 150989" d="M1162.766,791.209a.131.131,0,0,1-.028,0c-1.51-.339-1.945-1.158-2.043-1.786a2.223,2.223,0,0,1,1.2-2.293l4.287-2.255a.128.128,0,1,1,.119.226l-4.287,2.255a1.969,1.969,0,0,0-1.068,2.027c.126.8.747,1.33,1.847,1.576a.128.128,0,0,1-.028.253Z" fill="#bdfbf8"/>
          <path id="Trazado_150990" data-name="Trazado 150990" d="M1167.564,784.418a.128.128,0,0,1-.06-.241l.556-.292a.128.128,0,0,1,.173.053.13.13,0,0,1-.054.173l-.556.292A.126.126,0,0,1,1167.564,784.418Z" fill="#bdfbf8"/>
        </g>
      </g>
      <path id="Trazado_150991" data-name="Trazado 150991" d="M1225.017,749.357l-3.233-2.619-7.638,9.427-7.638-9.427-3.233,2.619,8.193,10.112-8.193,10.112,3.233,2.619,7.638-9.427,7.638,9.427,3.233-2.619-8.193-10.112Z" fill="url(#linear-gradient-21)"/>
    </g>
    <g id="Grupo_94256" data-name="Grupo 94256">
      <path id="Trazado_150992" data-name="Trazado 150992" d="M1221.118,792.778l-.762-.051h0a.274.274,0,0,1,.037-.546l.018,0,.762.1a.247.247,0,0,1-.048.492Z" fill="#bdfbf8"/>
      <path id="Trazado_150993" data-name="Trazado 150993" d="M1218.577,792.633l-.763-.032h0a.349.349,0,0,1,.029-.7h.018l.766.072a.329.329,0,0,1-.043.656Z" fill="#bdfbf8"/>
      <path id="Trazado_150994" data-name="Trazado 150994" d="M1216.035,792.558l-.762-.006h0a.415.415,0,1,1,.006-.829h.021l.77.046a.395.395,0,0,1-.025.789Z" fill="#bdfbf8"/>
      <path id="Trazado_150995" data-name="Trazado 150995" d="M1213.5,792.57l-.761.017h-.006a.476.476,0,0,1-.021-.952h.019l.772.014a.461.461,0,0,1,0,.921Z" fill="#bdfbf8"/>
      <path id="Trazado_150996" data-name="Trazado 150996" d="M1210.96,792.653l-.759.042h-.006a.519.519,0,0,1-.058-1.036h.018l.772-.017a.506.506,0,0,1,.04,1.011Z" fill="#bdfbf8"/>
      <path id="Trazado_150997" data-name="Trazado 150997" d="M1208.431,792.827l-.757.07h-.005a.561.561,0,0,1-.1-1.118l.019,0,.77-.045a.548.548,0,0,1,.084,1.093Z" fill="#bdfbf8"/>
      <path id="Trazado_150998" data-name="Trazado 150998" d="M1205.907,793.087l-.755.092h-.005a.6.6,0,0,1-.146-1.2l.02,0,.768-.068a.591.591,0,0,1,.125,1.176Z" fill="#bdfbf8"/>
      <path id="Trazado_150999" data-name="Trazado 150999" d="M1203.393,793.417l-.753.107h-.006a.637.637,0,0,1-.179-1.262h.009l.766-.1a.632.632,0,0,1,.169,1.252Z" fill="#bdfbf8"/>
      <path id="Trazado_151000" data-name="Trazado 151000" d="M1200.889,793.8l-.748.132h-.007a.656.656,0,0,1-.227-1.292l.01,0,.763-.122a.65.65,0,0,1,.216,1.282Z" fill="#bdfbf8"/>
      <path id="Trazado_151001" data-name="Trazado 151001" d="M1198.4,794.27l-.743.157h-.007a.675.675,0,0,1-.279-1.32l.01,0,.759-.149a.669.669,0,0,1,.268,1.311Z" fill="#bdfbf8"/>
      <path id="Trazado_151002" data-name="Trazado 151002" d="M1195.934,794.825l-.736.184-.008,0a.693.693,0,1,1-.337-1.345l.01,0,.754-.177a.687.687,0,0,1,.325,1.335Z" fill="#bdfbf8"/>
      <path id="Trazado_151003" data-name="Trazado 151003" d="M1193.492,795.474l-.726.214-.009,0a.711.711,0,1,1-.4-1.365l.01,0,.747-.208a.706.706,0,0,1,.39,1.357Z" fill="#bdfbf8"/>
      <path id="Trazado_151004" data-name="Trazado 151004" d="M1191.084,796.223c-.238.084-.478.161-.718.238l-.01,0a.722.722,0,0,1-.459-1.369c.245-.085.489-.171.735-.249a.725.725,0,0,1,.462,1.374Z" fill="#bdfbf8"/>
      <path id="Trazado_151005" data-name="Trazado 151005" d="M1188.69,797.015l-.723.228-.01,0a.624.624,0,0,1-.451-1.16l.705-.328a.674.674,0,0,1,.568,1.222.72.72,0,0,1-.077.031Z" fill="#bdfbf8"/>
      <path id="Trazado_151006" data-name="Trazado 151006" d="M1186.292,797.818l-.713.264-.008,0a.453.453,0,0,1-.371-.824l.684-.366a.506.506,0,0,1,.478.892.475.475,0,0,1-.061.027Z" fill="#bdfbf8"/>
      <path id="Trazado_151007" data-name="Trazado 151007" d="M1183.949,798.781l-.682.336-.006,0a.35.35,0,0,1-.324-.621l.677-.373a.368.368,0,0,1,.356.645l-.014.007Z" fill="#bdfbf8"/>
      <path id="Trazado_151008" data-name="Trazado 151008" d="M1181.715,799.974l-.653.388-.006,0a.333.333,0,0,1-.344-.571l.659-.4a.338.338,0,1,1,.353.576l0,0Z" fill="#bdfbf8"/>
      <path id="Trazado_151009" data-name="Trazado 151009" d="M1179.569,801.318l-.626.431-.005,0a.316.316,0,0,1-.362-.518l.63-.447a.321.321,0,1,1,.372.524l0,0Z" fill="#bdfbf8"/>
      <path id="Trazado_151010" data-name="Trazado 151010" d="M1177.52,802.8l-.593.474-.005,0a.3.3,0,0,1-.377-.465l.6-.491a.3.3,0,0,1,.386.471h0Z" fill="#bdfbf8"/>
      <path id="Trazado_151011" data-name="Trazado 151011" d="M1175.587,804.439l-.554.52,0,0a.291.291,0,0,1-.4-.423l.562-.53a.291.291,0,0,1,.4.424h0Z" fill="#bdfbf8"/>
      <path id="Trazado_151012" data-name="Trazado 151012" d="M1173.784,806.218l-.517.558,0,0a.288.288,0,1,1-.423-.391l.523-.568a.289.289,0,0,1,.425.392h0Z" fill="#bdfbf8"/>
      <path id="Trazado_151013" data-name="Trazado 151013" d="M1172.1,808.117l-.479.591,0,0a.286.286,0,0,1-.445-.36l.485-.6a.287.287,0,1,1,.446.36h0Z" fill="#bdfbf8"/>
      <path id="Trazado_151014" data-name="Trazado 151014" d="M1170.554,810.123l-.441.62,0,0a.287.287,0,1,1-.467-.332h0l.447-.629a.287.287,0,0,1,.467.332Z" fill="#bdfbf8"/>
      <path id="Trazado_151015" data-name="Trazado 151015" d="M1169.129,812.221l-.4.646,0,0a.289.289,0,0,1-.4.091.286.286,0,0,1-.091-.4h0l.409-.654a.287.287,0,1,1,.487.3Z" fill="#bdfbf8"/>
      <path id="Trazado_151016" data-name="Trazado 151016" d="M1167.827,814.4l-.367.668,0,0a.289.289,0,0,1-.506-.278h0l.372-.676a.288.288,0,0,1,.505.278Z" fill="#bdfbf8"/>
      <path id="Trazado_151017" data-name="Trazado 151017" d="M1166.647,816.647l-.33.686,0,0a.29.29,0,1,1-.522-.251h0l.335-.7a.289.289,0,1,1,.521.252Z" fill="#bdfbf8"/>
      <path id="Trazado_151018" data-name="Trazado 151018" d="M1165.588,818.954l-.294.7,0,0a.291.291,0,1,1-.536-.225h0l.3-.71a.29.29,0,1,1,.535.224Z" fill="#bdfbf8"/>
      <path id="Trazado_151019" data-name="Trazado 151019" d="M1164.649,821.313l-.258.717,0,0a.291.291,0,0,1-.548-.2h0l.262-.725a.291.291,0,1,1,.548.2Z" fill="#bdfbf8"/>
      <path id="Trazado_151020" data-name="Trazado 151020" d="M1163.829,823.717l-.223.728v0a.293.293,0,1,1-.56-.171h0l.226-.737a.292.292,0,0,1,.559.172Z" fill="#bdfbf8"/>
      <path id="Trazado_151021" data-name="Trazado 151021" d="M1163.128,826.158l-.187.738v0a.294.294,0,0,1-.57-.144h0l.19-.747a.294.294,0,0,1,.569.145Z" fill="#bdfbf8"/>
      <path id="Trazado_151022" data-name="Trazado 151022" d="M1162.546,828.63l-.15.747v0a.295.295,0,0,1-.578-.117h0l.153-.755a.294.294,0,0,1,.577.117Z" fill="#bdfbf8"/>
      <path id="Trazado_151023" data-name="Trazado 151023" d="M1162.087,831.127l-.114.754v0a.3.3,0,0,1-.585-.088h0l.116-.762a.295.295,0,1,1,.583.088Z" fill="#bdfbf8"/>
      <path id="Trazado_151024" data-name="Trazado 151024" d="M1161.752,833.644l-.075.758v.005a.3.3,0,0,1-.59-.059h0l.077-.767a.3.3,0,1,1,.59.059Z" fill="#bdfbf8"/>
      <path id="Trazado_151025" data-name="Trazado 151025" d="M1161.583,836.162l.005.758v.008a.3.3,0,1,1-.595,0h0l0-.776a.3.3,0,1,1,.594,0Z" fill="#bdfbf8"/>
      <path id="Trazado_151026" data-name="Trazado 151026" d="M1161.677,838.688l.066.757v.006a.3.3,0,1,1-.595.052h0l-.067-.769a.3.3,0,0,1,.594-.052Z" fill="#bdfbf8"/>
      <path id="Trazado_151027" data-name="Trazado 151027" d="M1161.957,841.207l.113.752v.005a.3.3,0,0,1-.592.09h0l-.115-.763a.3.3,0,1,1,.592-.089Z" fill="#bdfbf8"/>
      <path id="Trazado_151028" data-name="Trazado 151028" d="M1162.385,843.707l.154.746v.005a.3.3,0,0,1-.589.122h0l-.156-.755a.3.3,0,0,1,.589-.121Z" fill="#bdfbf8"/>
      <path id="Trazado_151029" data-name="Trazado 151029" d="M1162.944,846.183l.191.738v0a.3.3,0,1,1-.584.152h0l-.193-.746a.3.3,0,1,1,.583-.152Z" fill="#bdfbf8"/>
      <path id="Trazado_151030" data-name="Trazado 151030" d="M1163.625,848.629l.228.727v0a.3.3,0,1,1-.578.181h0l-.23-.735a.3.3,0,0,1,.578-.181Z" fill="#bdfbf8"/>
      <path id="Trazado_151031" data-name="Trazado 151031" d="M1164.426,851.038l.264.714,0,.005a.3.3,0,0,1-.571.21h0l-.266-.723a.3.3,0,0,1,.57-.21Z" fill="#bdfbf8"/>
      <path id="Trazado_151032" data-name="Trazado 151032" d="M1165.347,853.4l.3.7,0,0a.305.305,0,0,1-.561.241h0l-.3-.709a.305.305,0,0,1,.561-.24Z" fill="#bdfbf8"/>
      <path id="Trazado_151033" data-name="Trazado 151033" d="M1166.392,855.715l.338.682,0,.005a.31.31,0,1,1-.555.275h0l-.34-.692a.309.309,0,1,1,.554-.272Z" fill="#bdfbf8"/>
      <path id="Trazado_151034" data-name="Trazado 151034" d="M1167.563,857.965l.376.661,0,.005a.314.314,0,0,1-.546.311h0l-.38-.672a.313.313,0,1,1,.545-.308Z" fill="#bdfbf8"/>
      <path id="Trazado_151035" data-name="Trazado 151035" d="M1168.863,860.141l.416.636,0,.005a.319.319,0,1,1-.533.349h0l-.42-.648a.317.317,0,1,1,.532-.345Z" fill="#bdfbf8"/>
      <path id="Trazado_151036" data-name="Trazado 151036" d="M1170.3,862.229l.457.607,0,.006a.323.323,0,0,1-.517.388h0l-.462-.619a.322.322,0,1,1,.516-.385Z" fill="#bdfbf8"/>
      <path id="Trazado_151037" data-name="Trazado 151037" d="M1171.866,864.214l.5.573.005.005a.328.328,0,1,1-.495.43h0l-.506-.585a.326.326,0,1,1,.494-.426Z" fill="#bdfbf8"/>
      <path id="Trazado_151038" data-name="Trazado 151038" d="M1173.575,866.078l.54.533.005.005a.332.332,0,1,1-.466.473h0l-.549-.545a.331.331,0,0,1,.466-.47Z" fill="#bdfbf8"/>
      <path id="Trazado_151039" data-name="Trazado 151039" d="M1175.422,867.8l.581.487.007.006a.337.337,0,0,1-.433.516h0l-.592-.5a.335.335,0,1,1,.433-.512Z" fill="#bdfbf8"/>
      <path id="Trazado_151040" data-name="Trazado 151040" d="M1177.405,869.365l.62.435.007.005a.341.341,0,1,1-.392.558h0l-.633-.447a.34.34,0,0,1,.392-.555Z" fill="#bdfbf8"/>
      <path id="Trazado_151041" data-name="Trazado 151041" d="M1179.514,870.749l.656.377.008.005a.346.346,0,1,1-.345.6h0l-.671-.389a.344.344,0,1,1,.346-.6Z" fill="#bdfbf8"/>
      <path id="Trazado_151042" data-name="Trazado 151042" d="M1181.738,871.937l.687.316.009,0a.35.35,0,1,1-.293.636h0l-.7-.327a.348.348,0,1,1,.294-.632Z" fill="#bdfbf8"/>
      <path id="Trazado_151043" data-name="Trazado 151043" d="M1184.061,872.918l.713.252.009,0a.355.355,0,1,1-.237.669h0l-.73-.261a.353.353,0,0,1,.238-.665Z" fill="#bdfbf8"/>
      <path id="Trazado_151044" data-name="Trazado 151044" d="M1186.463,873.683l.733.187.009,0a.362.362,0,0,1-.179.7h0l-.75-.2a.359.359,0,0,1,.18-.7Z" fill="#bdfbf8"/>
      <path id="Trazado_151045" data-name="Trazado 151045" d="M1188.924,874.233l.747.124h.009a.369.369,0,1,1-.121.729h0l-.764-.131a.367.367,0,0,1,.122-.724Z" fill="#bdfbf8"/>
      <path id="Trazado_151046" data-name="Trazado 151046" d="M1191.424,874.574l.755.064h.009a.376.376,0,1,1-.063.75h0l-.771-.069a.374.374,0,0,1,.064-.746Z" fill="#bdfbf8"/>
      <path id="Trazado_151047" data-name="Trazado 151047" d="M1193.945,874.719l.394.005h.005a.383.383,0,0,1-.011.766h0l-.4-.008a.382.382,0,1,1,.013-.763Z" fill="#bdfbf8"/>
    </g>
    <g id="Grupo_94263" data-name="Grupo 94263">
      <g id="Grupo_94259" data-name="Grupo 94259">
        <g id="Grupo_94258" data-name="Grupo 94258">
          <path id="Trazado_151048" data-name="Trazado 151048" d="M1177.674,900.414a7.333,7.333,0,0,0-.666,3.187.383.383,0,0,0,.38.4h4.162a.246.246,0,0,0,.233-.323,6.662,6.662,0,0,0-2.626-3.487Z" fill="url(#linear-gradient-22)"/>
          <path id="Trazado_151049" data-name="Trazado 151049" d="M1177.493,898.823l.236,1.973a.369.369,0,0,0,.324.326,3.257,3.257,0,0,0,.88-.008.609.609,0,0,0,.5-.605v-1.9Z" fill="url(#linear-gradient-23)"/>
          <path id="Trazado_151050" data-name="Trazado 151050" d="M1187.97,900.2a5.8,5.8,0,0,0-.779,2.938.735.735,0,0,0,.739.719h6.463a.31.31,0,0,0,.178-.563,28.137,28.137,0,0,0-5.366-3.094Z" fill="url(#linear-gradient-24)"/>
          <path id="Trazado_151051" data-name="Trazado 151051" d="M1187.3,898.065l.5,2.437a.5.5,0,0,0,.595.4,1.825,1.825,0,0,0,.568-.238.578.578,0,0,0,.258-.589l-.52-2.953Z" fill="url(#linear-gradient-25)"/>
          <path id="Trazado_151052" data-name="Trazado 151052" d="M1178.415,864.177a7,7,0,0,0-2.074,3.39c-.328,1.852.931,31.945.931,31.945a4.879,4.879,0,0,0,2.645-.255s1.068-19.53,1.879-24.043c0,0,4.254,20.231,5.433,23.886a5.528,5.528,0,0,0,2.224-.115s-1.115-26.225-2.515-30.887Z" fill="url(#linear-gradient-26)"/>
          <path id="Trazado_151053" data-name="Trazado 151053" d="M1181.745,874.581a.191.191,0,0,1-.185-.143l-.723-2.772-1.539-.987a.191.191,0,1,1,.207-.322l1.6,1.027a.191.191,0,0,1,.082.113l.741,2.845a.191.191,0,0,1-.137.233A.2.2,0,0,1,1181.745,874.581Z" fill="url(#linear-gradient-27)"/>
          <path id="Trazado_151054" data-name="Trazado 151054" d="M1195.641,846.789c-7.348-.61-9.269.91-9.269.91l3.532,5.575s7.22-.143,12.394-4.13a12.594,12.594,0,0,1-2.072-3.093A9.729,9.729,0,0,1,1195.641,846.789Z" fill="url(#linear-gradient-28)"/>
          <path id="Trazado_151055" data-name="Trazado 151055" d="M1207.148,836a.225.225,0,0,0-.429-.087l-.937,2a2.078,2.078,0,0,0-.167,1.24l.329,1.165a2.011,2.011,0,0,1-.41,1.6,13.978,13.978,0,0,1-5.308,4.129,12.594,12.594,0,0,0,2.072,3.093,12.669,12.669,0,0,0,4.41-6.125.983.983,0,0,0,.694-.977Z" fill="url(#linear-gradient-29)"/>
          <path id="Trazado_151056" data-name="Trazado 151056" d="M1198.06,850.021c-2.587-2.788-7.514-4.047-10.367-4.564a2.616,2.616,0,0,0-2.925,1.659c-1.284,3.451-4.775,12.429-5.452,13.973-.555,1.266-1.135,2.5-1.5,3.275a.929.929,0,0,0,.433,1.237,68.051,68.051,0,0,0,8.47,2.976.6.6,0,0,0,.768-.578,1.881,1.881,0,0,1,.268-.966l6.631-11.05c4.133,4.583,7.753,5,10.533,4a20.968,20.968,0,0,1-.92-4.343C1199.888,854.935,1198.06,850.021,1198.06,850.021Z" fill="url(#linear-gradient-30)"/>
          <path id="Trazado_151057" data-name="Trazado 151057" d="M1211.937,854.171l-1.081-1.524c-2.444,2.123-5.218,3.273-6.86,2.992a20.968,20.968,0,0,0,.92,4.343C1208.579,858.66,1211.937,854.171,1211.937,854.171Z" fill="url(#linear-gradient-31)"/>
          <path id="Trazado_151058" data-name="Trazado 151058" d="M1210.856,852.647l2.42,3.408,4.048,1.736c-.063-.648-2.528-2.69-2.528-2.69s-1.6-2.886-2.138-3.586c-.447-.582-1.219.145-1.468.408-.05.054-.079.088-.079.088Z" fill="url(#linear-gradient-32)"/>
          <path id="Trazado_151059" data-name="Trazado 151059" d="M1191.617,840.337l-2.2,5.377s2.532,1.753,4.569,1.586l1.1-4.835Z" fill="url(#linear-gradient-33)"/>
          <g id="Grupo_94257" data-name="Grupo 94257">
            <path id="Trazado_151060" data-name="Trazado 151060" d="M1193.97,835.985s3.041,2.711,3.216,4.689-2.275,3.973-5.372,3.138l-3.2-4.571Z" fill="url(#linear-gradient-34)"/>
            <path id="Trazado_151061" data-name="Trazado 151061" d="M1191.285,841.295a.2.2,0,0,0,.01-.3,5.2,5.2,0,0,1-1.076-1.291s-.523-.17.966-.964,3.7-2,3.846-3.482c.142-1.444-2-4.424-3.342-1.254a.2.2,0,0,1-.3.082,2.06,2.06,0,0,0-2.633-.156,1.888,1.888,0,0,0-.79,2.093.2.2,0,0,1-.177.256,2.3,2.3,0,0,0-2.285,1.891c-.227,1.306.29,1.877.689,2.118a.2.2,0,0,1,0,.342,1.2,1.2,0,0,0-.473,1.536c.387,1.208,1.729.743,2.105.585a.2.2,0,0,1,.187.016,6.805,6.805,0,0,0,4.029,1.226.2.2,0,0,0,.137-.311l-1.241-1.868a.2.2,0,0,1,.042-.268Z" fill="url(#linear-gradient-35)"/>
            <path id="Trazado_151062" data-name="Trazado 151062" d="M1191.645,841.512s-2.091-.754-1.954.3,1.985,1.068,2.74.463Z" fill="url(#linear-gradient-36)"/>
          </g>
        </g>
      </g>
      <g id="Grupo_94262" data-name="Grupo 94262">
        <g id="Grupo_94260" data-name="Grupo 94260">
          <path id="Trazado_151063" data-name="Trazado 151063" d="M1272.777,802.806a2.462,2.462,0,0,0-1.9-.655c-7.471.672-19.207-7-30.522-12.248a2.461,2.461,0,0,0-2.511.26c-10.132,7.573-26.927,9.141-32.757,9.461a2.462,2.462,0,0,0-2.31,2.2c-5.3,51.21,28.041,69.767,34.956,73.043a2.467,2.467,0,0,0,2.356-.136c34.466-21.468,32.992-49.387,33.469-70.074A2.466,2.466,0,0,0,1272.777,802.806Z" fill="url(#linear-gradient-37)"/>
          <path id="Trazado_151064" data-name="Trazado 151064" d="M1237.88,871.729a.261.261,0,0,1-.143-.044,85.082,85.082,0,0,1-17.881-17.612,67.4,67.4,0,0,1-10.686-20.355,53.716,53.716,0,0,1-1.471-26.588.255.255,0,0,1,.269-.206c.232.017,23.376,1.531,32.769-11.177a.254.254,0,0,1,.4-.012c.087.1,8.779,10.41,15.683,12.9s11.934,1.412,11.984,1.4a.255.255,0,0,1,.31.243,79.423,79.423,0,0,1-3.536,22.217,78.371,78.371,0,0,1-9.184,20.042,69.809,69.809,0,0,1-18.367,19.149A.257.257,0,0,1,1237.88,871.729Zm-29.723-64.282a53.206,53.206,0,0,0,1.5,26.11,66.857,66.857,0,0,0,10.6,20.2,85.239,85.239,0,0,0,17.625,17.408,69.32,69.32,0,0,0,18.082-18.9,77.874,77.874,0,0,0,9.124-19.9,80.484,80.484,0,0,0,3.522-21.773,24.625,24.625,0,0,1-11.959-1.477c-6.516-2.346-14.3-11.176-15.693-12.8-2.834,3.7-8.592,8.4-20.062,10.348A61.713,61.713,0,0,1,1208.157,807.447Z" fill="#fff" opacity="0.74"/>
        </g>
        <g id="Grupo_94261" data-name="Grupo 94261" opacity="0.81">
          <path id="Trazado_151065" data-name="Trazado 151065" d="M1248.4,849.345h-21.181a2.613,2.613,0,0,1-2.739-2.442h0l-1.138-20.157a2.564,2.564,0,0,1,.714-1.932,2.759,2.759,0,0,1,1.934-.89l22.314-.732a2.727,2.727,0,0,1,2.817,2.742V846.9A2.483,2.483,0,0,1,1248.4,849.345Zm0-25.643h-.075l-22.315.732a2.241,2.241,0,0,0-1.573.724,2.073,2.073,0,0,0-.581,1.559l1.138,20.156h0a2.114,2.114,0,0,0,2.229,1.961H1248.4a1.988,1.988,0,0,0,2.21-1.939V825.934a2.214,2.214,0,0,0-2.214-2.232Z" fill="#fff"/>
          <path id="Trazado_151066" data-name="Trazado 151066" d="M1228.722,824.346a.257.257,0,0,1-.253-.219c-.7-4.787-.039-8.544,1.973-11.166a8.744,8.744,0,0,1,5.481-3.343c5.759-.673,9.936,2.61,11.17,8.78a.169.169,0,0,1,0,.031l.387,5.035a.256.256,0,0,1-.51.039l-.385-5.02c-1.18-5.871-5.143-8.994-10.607-8.358a8.39,8.39,0,0,0-5.141,3.155c-1.919,2.509-2.548,6.133-1.866,10.773a.256.256,0,0,1-.216.29Z" fill="#fff"/>
          <path id="Trazado_151067" data-name="Trazado 151067" d="M1232.387,824.346a.256.256,0,0,1-.252-.217c-.032-.209-.756-5.137,1.586-7.866a5.165,5.165,0,0,1,4.121-1.732,5.08,5.08,0,0,1,4.146,1.745c2.155,2.621,1.284,7.2,1.246,7.4a.255.255,0,1,1-.5-.1c.009-.045.862-4.54-1.14-6.973a4.6,4.6,0,0,0-3.751-1.558,4.675,4.675,0,0,0-3.733,1.554c-2.191,2.552-1.477,7.407-1.469,7.455a.257.257,0,0,1-.214.292A.263.263,0,0,1,1232.387,824.346Z" fill="#fff"/>
          <path id="Trazado_151068" data-name="Trazado 151068" d="M1237.495,845.514h-.193a2.533,2.533,0,0,1-2.269-2.2v-8.6a3.508,3.508,0,0,1-1.971-3.159c0-2.054,2.023-3.725,4.51-3.725,2.51,0,4.477,1.636,4.477,3.725a3.76,3.76,0,0,1-2.929,3.44v8.317C1239.12,844.38,1238.55,845.514,1237.495,845.514Zm-1.951-10.646v8.444A2.053,2.053,0,0,0,1237.3,845h.193c.768,0,1.114-.989,1.114-1.691V834.8a.256.256,0,0,1,.188-.246,3.319,3.319,0,0,0,2.741-3c0-1.8-1.742-3.214-3.966-3.214-2.205,0-4,1.442-4,3.214a3.053,3.053,0,0,0,1.986,2.842.255.255,0,0,1,.156.235A.228.228,0,0,1,1235.544,834.868Z" fill="#fff"/>
        </g>
      </g>
    </g>
    <g id="Grupo_94267" data-name="Grupo 94267">
      <path id="Trazado_151069" data-name="Trazado 151069" d="M1321.419,762.88s-6.76,8.158-6.516,8.969,13.25,11.36,14.324,10.452,7.191-7.492,7.191-7.492C1330.582,767.89,1322.158,762.174,1321.419,762.88Z" fill="#7debf4"/>
      <g id="Grupo_94266" data-name="Grupo 94266">
        <g id="Grupo_94264" data-name="Grupo 94264">
          <path id="Trazado_151070" data-name="Trazado 151070" d="M1328.793,790.636c-1.652,0-6.22-3-8.2-4.361a80.91,80.91,0,0,1-10.711-8.624c-2.319-2.357-2.377-3.213-2.219-3.652.492-1.366,3.595-6.346,7.012-10.966,3.046-4.12,7.151-9.087,9.405-9.359l.1-.012.081.059c2.149,1.56,21,15.309,21.14,17.709.1,1.667-5.483,8.239-7.2,10.213-3.463,3.994-7.795,8.5-9.122,8.952A.906.906,0,0,1,1328.793,790.636Zm-4.748-36.44c-3.813.715-14.9,17.2-15.9,19.976-.06.169-.088.893,2.1,3.121,4.982,5.063,16.24,12.846,18.476,12.846a.608.608,0,0,0,.2-.028c1.027-.351,4.853-4.135,8.9-8.8,4.285-4.941,7.126-8.9,7.071-9.849C1344.8,769.831,1332.405,760.268,1324.045,754.2Z" fill="#bdfbf8"/>
        </g>
        <path id="Trazado_151071" data-name="Trazado 151071" d="M1329.035,782.613a1.4,1.4,0,0,1-.386-.067c-2.443-.725-13.677-9.583-13.991-10.623-.066-.221-.19-.633,3.209-5.019,1.643-2.119,3.338-4.166,3.355-4.187a.255.255,0,0,1,.393.326c-3.145,3.8-6.4,8.074-6.462,8.738a60.462,60.462,0,0,0,6.679,5.676c5.063,3.9,6.936,4.751,7.244,4.64,1.036-.878,6.929-7.189,6.988-7.252a.255.255,0,1,1,.373.348c-.243.261-5.972,6.4-7.045,7.3A.537.537,0,0,1,1329.035,782.613Z" fill="#bdfbf8"/>
        <g id="Grupo_94265" data-name="Grupo 94265">
          <path id="Trazado_151072" data-name="Trazado 151072" d="M1334.709,775.519c-3.129,0-9.257-1.264-10.2-1.859-1.229-.775-3.9-9.519-3.324-10.879h0c.079-.187.29-.372.846-.2,1.459.459,5.292,3.294,8.444,5.9,1.93,1.6,6.4,5.414,6.194,6.377a.674.674,0,0,1-.446.467A4.349,4.349,0,0,1,1334.709,775.519Zm-13.07-12.5c-.391,1.252,2.161,9.589,3.142,10.207s9.615,2.317,11.242,1.629c.112-.047.143-.089.145-.1-.01-.693-4.947-5.27-9.984-8.987C1323.177,763.551,1321.931,763,1321.639,763.021Zm.015-.041Zm-.235-.1h0Z" fill="#bdfbf8"/>
        </g>
        <path id="Trazado_151073" data-name="Trazado 151073" d="M1319.678,768.508a.255.255,0,0,1-.2-.414l.641-.806a.256.256,0,1,1,.4.318l-.641.806A.255.255,0,0,1,1319.678,768.508Z" fill="#bdfbf8"/>
        <path id="Trazado_151074" data-name="Trazado 151074" d="M1332.2,772.892a.255.255,0,0,1-.2-.1c-1.545-1.935-7.9-6.4-7.965-6.445a.255.255,0,1,1,.293-.418c.264.185,6.48,4.553,8.071,6.544a.256.256,0,0,1-.2.415Z" fill="#bdfbf8"/>
      </g>
    </g>
    <g id="Grupo_94268" data-name="Grupo 94268">
      <path id="Trazado_151075" data-name="Trazado 151075" d="M1276.6,766.6h-37.272a1.442,1.442,0,0,1-1.442-1.442h0a1.441,1.441,0,0,1,1.442-1.442H1276.6a1.441,1.441,0,0,1,1.442,1.442h0A1.442,1.442,0,0,1,1276.6,766.6Z" fill="#91faf4"/>
      <path id="Trazado_151076" data-name="Trazado 151076" d="M1281.084,772.248h-37.273a1.443,1.443,0,0,1-1.442-1.443h0a1.443,1.443,0,0,1,1.442-1.442h37.273a1.443,1.443,0,0,1,1.442,1.442h0A1.443,1.443,0,0,1,1281.084,772.248Z" fill="#91faf4"/>
      <path id="Trazado_151077" data-name="Trazado 151077" d="M1270.485,783.547h-26.674a1.443,1.443,0,0,1-1.442-1.443h0a1.443,1.443,0,0,1,1.442-1.442h26.674a1.443,1.443,0,0,1,1.442,1.442h0A1.443,1.443,0,0,1,1270.485,783.547Z" fill="#91faf4"/>
      <path id="Trazado_151078" data-name="Trazado 151078" d="M1285.264,777.9h-37.273a1.442,1.442,0,0,1-1.442-1.442h0a1.442,1.442,0,0,1,1.442-1.442h37.273a1.442,1.442,0,0,1,1.442,1.442h0A1.442,1.442,0,0,1,1285.264,777.9Z" fill="#91faf4"/>
    </g>
    <g id="Grupo_94269" data-name="Grupo 94269">
      <path id="Trazado_151079" data-name="Trazado 151079" d="M1160.481,853.491H1120.1a1.562,1.562,0,0,1-1.562-1.562h0a1.562,1.562,0,0,1,1.562-1.562h40.377a1.562,1.562,0,0,1,1.562,1.562h0A1.562,1.562,0,0,1,1160.481,853.491Z" fill="#91faf4"/>
      <path id="Trazado_151080" data-name="Trazado 151080" d="M1165.332,859.611h-40.376a1.563,1.563,0,0,1-1.563-1.562h0a1.562,1.562,0,0,1,1.563-1.562h40.376a1.562,1.562,0,0,1,1.563,1.562h0A1.562,1.562,0,0,1,1165.332,859.611Z" fill="#91faf4"/>
      <path id="Trazado_151081" data-name="Trazado 151081" d="M1153.851,871.852h-28.895a1.563,1.563,0,0,1-1.563-1.563h0a1.563,1.563,0,0,1,1.563-1.562h28.895a1.562,1.562,0,0,1,1.562,1.562h0A1.563,1.563,0,0,1,1153.851,871.852Z" fill="#91faf4"/>
      <path id="Trazado_151082" data-name="Trazado 151082" d="M1169.86,865.732h-40.376a1.563,1.563,0,0,1-1.563-1.563h0a1.562,1.562,0,0,1,1.563-1.562h40.376a1.562,1.562,0,0,1,1.563,1.562h0A1.563,1.563,0,0,1,1169.86,865.732Z" fill="#91faf4"/>
    </g>
    <g id="Grupo_94274" data-name="Grupo 94274">
      <path id="Trazado_151083" data-name="Trazado 151083" d="M1152.5,760.166c2.176-1.173,12.1-9.313,13.312-8.009s8.926,11.569,8.359,12.734-13.337,9.236-14.656,8.654S1149.928,761.553,1152.5,760.166Z" fill="#7debf4"/>
      <path id="Trazado_151084" data-name="Trazado 151084" d="M1159.666,773.823a.648.648,0,0,1-.255-.044c-1.19-.526-7.174-8.429-7.6-12.084a1.77,1.77,0,0,1,.532-1.733h0l.529-.4c8.3-6.289,12.219-8.556,13.124-7.579.735.8,9.1,11.574,8.4,13.02-.371.765-4.475,3.462-7.143,5.089C1164.4,771.837,1160.873,773.823,1159.666,773.823Zm5.7-21.565c-.468,0-1.729.369-5.081,2.584-2.663,1.759-5.552,3.95-7.1,5.127l-.531.4a1.314,1.314,0,0,0-.331,1.267c.416,3.6,6.367,11.265,7.3,11.674.327.14,2.563-.721,7.383-3.661,3.888-2.371,6.727-4.433,6.94-4.87.362-.983-6.636-10.633-8.317-12.45A.337.337,0,0,0,1165.369,752.258Zm-12.87,7.908h0Z" fill="url(#linear-gradient)"/>
      <g id="Grupo_94270" data-name="Grupo 94270">
        <path id="Trazado_151085" data-name="Trazado 151085" d="M1162.257,763.033a1.843,1.843,0,1,1,1.624-2.712h0a1.845,1.845,0,0,1-1.624,2.712Zm0-3.177a1.318,1.318,0,0,0-.625.158,1.332,1.332,0,1,0,1.8.548h0a1.324,1.324,0,0,0-.787-.648A1.344,1.344,0,0,0,1162.253,759.856Z" fill="#bdfbf8"/>
      </g>
      <g id="Grupo_94272" data-name="Grupo 94272">
        <g id="Grupo_94271" data-name="Grupo 94271">
          <path id="Trazado_151086" data-name="Trazado 151086" d="M1158.667,778.58a1.018,1.018,0,0,1-.706-.213c-1.9-1.608-12.517-16.093-11.643-19.7l.024-.1.083-.056c1.937-1.284,18.982-12.537,21.007-11.909,1.408.434,5.092,7.026,6.187,9.036,2.215,4.064,4.583,9,4.549,10.23-.055,1.975-11.227,9.449-16.5,11.8A8.2,8.2,0,0,1,1158.667,778.58Zm-11.872-19.7c-.553,3.356,9.534,17.436,11.5,19.1.116.1.687.333,3.166-.773a70.4,70.4,0,0,0,10.264-6.094c4.079-2.865,5.92-4.705,5.935-5.258.027-.944-1.9-5.231-4.486-9.971-2.692-4.938-5.113-8.554-5.889-8.793C1165.942,746.674,1154.043,754.075,1146.8,758.878Z" fill="#91faf4"/>
        </g>
      </g>
      <path id="Trazado_151087" data-name="Trazado 151087" d="M1153.916,762.285a.255.255,0,0,1-.219-.124c-.113-.188-.166-.505.226-.948a3.7,3.7,0,0,1,.818-.656.256.256,0,1,1,.264.438,3.137,3.137,0,0,0-.7.557c-.155.175-.2.3-.171.346a.256.256,0,0,1-.219.387Z" fill="#bdfbf8"/>
      <path id="Trazado_151088" data-name="Trazado 151088" d="M1156.4,759.838a.255.255,0,0,1-.172-.444,18.345,18.345,0,0,1,4.455-2.957.255.255,0,0,1,.2.471,18.185,18.185,0,0,0-4.308,2.864A.256.256,0,0,1,1156.4,759.838Z" fill="#bdfbf8"/>
      <g id="Grupo_94273" data-name="Grupo 94273">
        <path id="Trazado_151089" data-name="Trazado 151089" d="M1161.661,769.964a.478.478,0,0,1-.476-.489,9.224,9.224,0,0,1,1.441-4.764h0c1.709-2.517,7.289.228,7.341.262l.122.08-.005.149c-.008.2-.013.312-8.2,4.7A.473.473,0,0,1,1161.661,769.964Zm1.388-4.966a8.687,8.687,0,0,0-1.352,4.431c3.886-2.086,6.715-3.645,7.636-4.2-1.274-.573-5.116-1.949-6.284-.229Z" fill="#bdfbf8"/>
      </g>
    </g>
    <g id="Grupo_94278" data-name="Grupo 94278">
      <g id="Grupo_94277" data-name="Grupo 94277">
        <path id="Trazado_151090" data-name="Trazado 151090" d="M1294.3,859.637c-.03.057-1.925,1.45-1.925,1.45s.419,2.993,2.117,4.174c1.868,1.3,4.5-1.07,4.5-1.07s2.1.5,3.215-3.87c.256-1-1.222-1.087-3.006-.9C1296.9,859.657,1294.3,859.637,1294.3,859.637Z" fill="url(#linear-gradient-39)"/>
        <path id="Trazado_151091" data-name="Trazado 151091" d="M1290.754,869.846a7.967,7.967,0,0,1,2.429-1.13c.326-.089,2.088.423,3.177.4,1.494-.034,3.016-.714,4.248-.407a8.9,8.9,0,0,1,2.8,1.114c1.731,1.232,2.747,3.527,3.367,5.8a7.926,7.926,0,0,1-2.649,1.739l-.273,11.054-6.536,3.344-7.461-3.746.267-10.8a11.268,11.268,0,0,1-2.543-1.505C1287.41,875.306,1288.664,871.283,1290.754,869.846Z" fill="url(#linear-gradient-40)"/>
        <path id="Trazado_151092" data-name="Trazado 151092" d="M1287.695,875.659s-3.175,8.8,4.064,12.419c1.5-.2.926-2.7.926-2.7s-3.146-.7-2.2-8.038A20.323,20.323,0,0,0,1287.695,875.659Z" fill="url(#linear-gradient-41)"/>
        <path id="Trazado_151093" data-name="Trazado 151093" d="M1306.626,875.659s2.185,9.188-4.065,12.419c-1.5-.2-.925-2.7-.925-2.7s2.535-1.249,2.2-8.038A20.324,20.324,0,0,1,1306.626,875.659Z" fill="url(#linear-gradient-42)"/>
        <rect id="Rectngulo_36013" data-name="Rectngulo 36013" width="14.334" height="9.68" rx="4.84" transform="translate(1289.774 879.016)" fill="url(#linear-gradient-43)"/>
        <g id="Grupo_94275" data-name="Grupo 94275">
          <path id="Trazado_151094" data-name="Trazado 151094" d="M1310.4,891.566a28.941,28.941,0,0,0-5.432-.174l-.154.418-.256,2.075a43.217,43.217,0,0,0,5.391.65,1.711,1.711,0,0,0,.5-.075c.054-.049.107-.1.157-.154A1.956,1.956,0,0,0,1310.4,891.566Z" fill="url(#linear-gradient-44)"/>
          <path id="Trazado_151095" data-name="Trazado 151095" d="M1303.874,891.275l.642.028a1.23,1.23,0,0,1,.9.466,1.518,1.518,0,0,1,.331,1.041,1.2,1.2,0,0,1-.347.792.975.975,0,0,1-.751.285l-.983-.07Z" fill="url(#linear-gradient-45)"/>
        </g>
        <g id="Grupo_94276" data-name="Grupo 94276">
          <path id="Trazado_151096" data-name="Trazado 151096" d="M1282.286,891.366a28.877,28.877,0,0,1,5.434-.007l.144.422.2,2.083a43.1,43.1,0,0,1-5.405.484,1.684,1.684,0,0,1-.5-.09c-.053-.051-.1-.1-.154-.159A1.955,1.955,0,0,1,1282.286,891.366Z" fill="url(#linear-gradient-46)"/>
          <path id="Trazado_151097" data-name="Trazado 151097" d="M1288.812,891.276l-.642.007a1.229,1.229,0,0,0-.913.439,1.511,1.511,0,0,0-.357,1.03,1.206,1.206,0,0,0,.327.8.979.979,0,0,0,.744.309l.984-.04Z" fill="url(#linear-gradient-47)"/>
        </g>
        <path id="Trazado_151098" data-name="Trazado 151098" d="M1310.853,885.059c-.744-1.712-2.563-1.99-4.112-1.19a103.041,103.041,0,0,1-18.483,7.265,9.4,9.4,0,0,1,.4,2.469c.005.185,0,.367-.009.547,6.632-.341,13.831-2.552,20.016-4.5A3.419,3.419,0,0,0,1310.853,885.059Z" fill="url(#linear-gradient-48)"/>
        <path id="Trazado_151099" data-name="Trazado 151099" d="M1303.921,893.733a5.706,5.706,0,0,1,.558-2.673c.011-.037.025-.074.037-.111-.494-.153-1.132-.36-1.97-.645a94.484,94.484,0,0,1-15.3-6.667,2.8,2.8,0,0,0-4.268,1.743,3.22,3.22,0,0,0,2.248,3.952c4.95,1.647,2.373,1.19,3.989,1.71a67.692,67.692,0,0,0,14.715,2.9C1303.927,893.872,1303.923,893.8,1303.921,893.733Z" fill="url(#linear-gradient-49)"/>
        <path id="Trazado_151100" data-name="Trazado 151100" d="M1293.183,868.716a3.789,3.789,0,0,0,3.867,2.8,3.341,3.341,0,0,0,3.558-2.812l-2.134-.457-.178-2.377-3.21.237-.059,2.259Z" fill="url(#linear-gradient-50)"/>
        <path id="Trazado_151101" data-name="Trazado 151101" d="M1295.537,859.137s-3.678,7.124.685,8.853c3.077,1.219,5.007-4.731,4.431-6.343-.889-2.492-1.475-2.2-1.475-2.2Z" fill="url(#linear-gradient-51)"/>
        <path id="Trazado_151102" data-name="Trazado 151102" d="M1301.538,858.489c1.817.5.265,4.44-2.471,3.508s-3.811-.919-4.237-.167-.518,3.418-1.443,2.1c-1.014-1.446-1.579-4.347-.336-5.282,1.111-.836,1.371-2.132,2.7-2.087,1.769.059,3.137-.725,3.936-.159C1300.607,857.051,1300.2,858.121,1301.538,858.489Z" fill="url(#linear-gradient-52)"/>
        <path id="Trazado_151103" data-name="Trazado 151103" d="M1294.662,862.442s-.785-.844-.91.174.277,2.327.75,1.609A2.459,2.459,0,0,0,1294.662,862.442Z" fill="url(#linear-gradient-53)"/>
      </g>
      <path id="Trazado_151104" data-name="Trazado 151104" d="M1297.8,883.534a.875.875,0,0,1-.713,1.056.94.94,0,0,1-1.067-.792.894.894,0,0,1,.673-1.1A1.012,1.012,0,0,1,1297.8,883.534Z" fill="#7debf4"/>
    </g>
    <g id="Grupo_94281" data-name="Grupo 94281">
      <g id="Grupo_94279" data-name="Grupo 94279">
        <path id="Trazado_151105" data-name="Trazado 151105" d="M1283.357,755.334l.556-.537a.256.256,0,0,1,.355.368l0,0-.006,0-.558.516,0,0a.247.247,0,0,1-.34-.359Z" fill="#bdfbf8"/>
        <path id="Trazado_151106" data-name="Trazado 151106" d="M1285.259,753.6l.6-.491a.284.284,0,0,1,.361.439l0,0-.006.005-.6.469-.005,0a.276.276,0,0,1-.346-.429Z" fill="#bdfbf8"/>
        <path id="Trazado_151107" data-name="Trazado 151107" d="M1287.292,752.015l.633-.444a.312.312,0,0,1,.358.511l-.005,0-.007.005-.63.422-.006,0a.3.3,0,0,1-.343-.5Z" fill="#bdfbf8"/>
        <path id="Trazado_151108" data-name="Trazado 151108" d="M1289.442,750.595l.665-.394a.334.334,0,1,1,.34.575l0,0-.008.005-.659.375-.006,0a.327.327,0,0,1-.329-.566Z" fill="#bdfbf8"/>
        <path id="Trazado_151109" data-name="Trazado 151109" d="M1291.694,749.34l.692-.344a.355.355,0,1,1,.316.636l0,0-.009,0-.684.326-.007,0a.349.349,0,0,1-.305-.627Z" fill="#bdfbf8"/>
        <path id="Trazado_151110" data-name="Trazado 151110" d="M1294.031,748.251l.716-.294a.377.377,0,0,1,.286.7l0,0-.009,0-.707.277-.007,0a.37.37,0,0,1-.275-.688Z" fill="#bdfbf8"/>
        <path id="Trazado_151111" data-name="Trazado 151111" d="M1296.442,747.33l.736-.243a.4.4,0,1,1,.25.756h-.005l-.01,0-.724.226-.008,0a.392.392,0,0,1-.239-.746Z" fill="#bdfbf8"/>
        <path id="Trazado_151112" data-name="Trazado 151112" d="M1298.913,746.579l.751-.191a.42.42,0,1,1,.208.813h-.005l-.01,0-.738.175-.009,0a.413.413,0,0,1-.2-.8Z" fill="#bdfbf8"/>
        <path id="Trazado_151113" data-name="Trazado 151113" d="M1301.431,746l.763-.14a.441.441,0,1,1,.158.868h-.005l-.011,0-.747.124h-.009a.434.434,0,0,1-.149-.856Z" fill="#bdfbf8"/>
        <path id="Trazado_151114" data-name="Trazado 151114" d="M1303.985,745.6l.772-.086a.463.463,0,0,1,.1.92h-.017l-.754.072h-.01a.456.456,0,0,1-.093-.908Z" fill="#bdfbf8"/>
        <path id="Trazado_151115" data-name="Trazado 151115" d="M1306.563,745.378l.776-.029a.478.478,0,0,1,.037.955h-.015l-.757.021h-.01a.474.474,0,0,1-.031-.948Z" fill="#bdfbf8"/>
        <path id="Trazado_151116" data-name="Trazado 151116" d="M1309.151,745.343l.777.025a.492.492,0,1,1-.032.984h-.016l-.755-.033h-.011a.488.488,0,0,1,.037-.975Z" fill="#bdfbf8"/>
        <path id="Trazado_151117" data-name="Trazado 151117" d="M1311.736,745.491l.773.081a.506.506,0,0,1-.1,1.007h-.016l-.751-.087h-.011a.5.5,0,0,1,.11-1Z" fill="#bdfbf8"/>
        <path id="Trazado_151118" data-name="Trazado 151118" d="M1314.3,745.827l.765.137a.52.52,0,1,1-.184,1.024h0l-.015,0-.74-.142-.012,0a.516.516,0,0,1,.188-1.014Z" fill="#bdfbf8"/>
        <path id="Trazado_151119" data-name="Trazado 151119" d="M1316.843,746.352l.753.2a.534.534,0,1,1-.268,1.034h0l-.014,0-.727-.2-.012,0a.53.53,0,0,1,.271-1.025Z" fill="#bdfbf8"/>
        <path id="Trazado_151120" data-name="Trazado 151120" d="M1319.336,747.071l.736.253a.548.548,0,0,1-.356,1.036h0l-.015-.005-.709-.253-.012,0a.544.544,0,0,1,.359-1.026Z" fill="#bdfbf8"/>
        <path id="Trazado_151121" data-name="Trazado 151121" d="M1321.767,747.983l.714.309a.562.562,0,1,1-.447,1.031h0l-.014-.006-.688-.307-.011-.006a.557.557,0,0,1,.449-1.02Z" fill="#bdfbf8"/>
        <path id="Trazado_151122" data-name="Trazado 151122" d="M1324.12,749.075l.69.36a.576.576,0,0,1-.533,1.021l0,0-.013-.007-.665-.356-.01-.005a.572.572,0,0,1,.534-1.011Z" fill="#bdfbf8"/>
        <path id="Trazado_151123" data-name="Trazado 151123" d="M1326.39,750.329l.663.406a.59.59,0,1,1-.615,1.006h0l-.012-.008-.64-.4-.01-.006a.586.586,0,0,1,.617-1Z" fill="#bdfbf8"/>
        <path id="Trazado_151124" data-name="Trazado 151124" d="M1328.57,751.731l.636.447a.6.6,0,0,1-.694.988l0,0-.012-.009-.613-.441-.009-.006a.6.6,0,0,1,.695-.977Z" fill="#bdfbf8"/>
        <path id="Trazado_151125" data-name="Trazado 151125" d="M1330.657,753.265l.608.484a.618.618,0,0,1-.77.967l0,0-.011-.009-.586-.478-.009-.006a.614.614,0,0,1,.77-.956Z" fill="#bdfbf8"/>
        <path id="Trazado_151126" data-name="Trazado 151126" d="M1332.65,754.918l.578.518a.631.631,0,1,1-.841.94l0,0-.007-.007-.559-.509-.008-.007a.628.628,0,0,1,.841-.932Z" fill="#bdfbf8"/>
        <path id="Trazado_151127" data-name="Trazado 151127" d="M1334.543,756.682l.549.547a.637.637,0,1,1-.9.9l0,0-.007-.007-.532-.536-.007-.007a.635.635,0,0,1,.9-.9Z" fill="#bdfbf8"/>
        <path id="Trazado_151128" data-name="Trazado 151128" d="M1336.34,758.538l.522.573a.643.643,0,0,1-.951.865l0,0-.006-.007-.507-.563-.006-.006a.641.641,0,0,1,.95-.86Z" fill="#bdfbf8"/>
        <path id="Trazado_151129" data-name="Trazado 151129" d="M1338.047,760.477l.5.6a.649.649,0,0,1-1,.828l0,0-.006-.006-.481-.587-.006-.006a.647.647,0,0,1,1-.824Z" fill="#bdfbf8"/>
        <path id="Trazado_151130" data-name="Trazado 151130" d="M1339.666,762.491l.468.617a.655.655,0,0,1-1.043.792l0,0-.005-.006-.456-.606,0-.007a.653.653,0,0,1,1.042-.787Z" fill="#bdfbf8"/>
        <path id="Trazado_151131" data-name="Trazado 151131" d="M1341.2,764.568l.443.636a.661.661,0,0,1-1.084.756l0,0-.005-.006-.431-.625,0-.006a.659.659,0,0,1,1.083-.752Z" fill="#bdfbf8"/>
        <path id="Trazado_151132" data-name="Trazado 151132" d="M1342.644,766.705l.419.652a.667.667,0,1,1-1.123.721v0l-.005-.007-.407-.641,0-.006a.665.665,0,0,1,1.121-.716Z" fill="#bdfbf8"/>
        <path id="Trazado_151133" data-name="Trazado 151133" d="M1344.009,768.9l.392.667a.673.673,0,0,1-1.16.682l0,0,0-.007-.381-.656,0-.007a.671.671,0,0,1,1.159-.677Z" fill="#bdfbf8"/>
        <path id="Trazado_151134" data-name="Trazado 151134" d="M1345.286,771.139l.365.683a.679.679,0,1,1-1.2.64v0l0-.008-.354-.67,0-.007a.677.677,0,0,1,1.2-.636Z" fill="#bdfbf8"/>
        <path id="Trazado_151135" data-name="Trazado 151135" d="M1346.47,773.434l.336.7a.685.685,0,1,1-1.234.595l0,0,0-.008-.326-.684,0-.008a.683.683,0,0,1,1.233-.59Z" fill="#bdfbf8"/>
        <path id="Trazado_151136" data-name="Trazado 151136" d="M1347.555,775.779l.306.713a.691.691,0,1,1-1.271.544l0,0,0-.009-.295-.7,0-.008a.69.69,0,0,1,1.269-.54Z" fill="#bdfbf8"/>
        <path id="Trazado_151137" data-name="Trazado 151137" d="M1348.534,778.173l.272.727a.7.7,0,0,1-1.306.488v0l0-.009-.261-.71,0-.009a.7.7,0,0,1,1.3-.484Z" fill="#bdfbf8"/>
        <path id="Trazado_151138" data-name="Trazado 151138" d="M1349.4,780.612l.236.74a.7.7,0,1,1-1.34.427v0l0-.01-.226-.721,0-.01a.7.7,0,0,1,1.337-.423Z" fill="#bdfbf8"/>
        <path id="Trazado_151139" data-name="Trazado 151139" d="M1350.142,783.093l.2.753a.71.71,0,0,1-1.373.361v0l0-.011-.189-.732,0-.011a.708.708,0,0,1,1.37-.356Z" fill="#bdfbf8"/>
        <path id="Trazado_151140" data-name="Trazado 151140" d="M1350.753,785.614l.157.762a.716.716,0,1,1-1.4.288v0l0-.011-.148-.74,0-.011a.714.714,0,0,1,1.4-.284Z" fill="#bdfbf8"/>
        <path id="Trazado_151141" data-name="Trazado 151141" d="M1351.224,788.165l.113.77a.722.722,0,0,1-1.429.209v0l0-.012-.1-.745,0-.013a.72.72,0,0,1,1.425-.205Z" fill="#bdfbf8"/>
        <path id="Trazado_151142" data-name="Trazado 151142" d="M1351.546,790.741l.064.776a.726.726,0,0,1-1.447.12v-.014l-.062-.749v-.013a.726.726,0,0,1,1.447-.12Z" fill="#bdfbf8"/>
        <path id="Trazado_151143" data-name="Trazado 151143" d="M1351.7,793.335l.013.779a.717.717,0,0,1-1.434.029v-.014l-.018-.752v-.014a.72.72,0,1,1,1.439-.033Z" fill="#bdfbf8"/>
        <path id="Trazado_151144" data-name="Trazado 151144" d="M1351.67,795.935l-.046.78a.692.692,0,0,1-1.383-.065v-.016l.027-.751v-.015a.7.7,0,0,1,1.4.05Z" fill="#bdfbf8"/>
        <path id="Trazado_151145" data-name="Trazado 151145" d="M1351.447,798.528l-.108.772a.651.651,0,0,1-1.292-.151l0-.016.073-.749v-.013a.667.667,0,1,1,1.327.129Z" fill="#bdfbf8"/>
        <path id="Trazado_151146" data-name="Trazado 151146" d="M1351.023,801.092l-.162.762a.6.6,0,0,1-1.172-.222l0-.014.125-.743,0-.012a.613.613,0,1,1,1.209.2Z" fill="#bdfbf8"/>
        <path id="Trazado_151147" data-name="Trazado 151147" d="M1350.421,803.617l-.216.748a.542.542,0,0,1-1.048-.277l0-.013.178-.733,0-.011a.56.56,0,0,1,1.088.262Z" fill="#bdfbf8"/>
        <path id="Trazado_151148" data-name="Trazado 151148" d="M1349.64,806.089l-.269.729a.485.485,0,0,1-.917-.314l0-.011.23-.72,0-.01a.5.5,0,1,1,.957.3Z" fill="#bdfbf8"/>
        <path id="Trazado_151149" data-name="Trazado 151149" d="M1348.683,808.494l-.322.707a.427.427,0,0,1-.786-.335l0-.01.282-.7,0-.009a.445.445,0,1,1,.825.332Z" fill="#bdfbf8"/>
        <path id="Trazado_151150" data-name="Trazado 151150" d="M1347.562,810.825l-.369.682a.388.388,0,0,1-.688-.358l.005-.008.339-.677,0-.008a.4.4,0,0,1,.715.358Z" fill="#bdfbf8"/>
        <path id="Trazado_151151" data-name="Trazado 151151" d="M1346.279,813.068l-.416.653a.363.363,0,0,1-.616-.384l.005-.008.4-.645.005-.008a.369.369,0,0,1,.628.387Z" fill="#bdfbf8"/>
        <path id="Trazado_151152" data-name="Trazado 151152" d="M1344.83,815.207l-.466.62a.348.348,0,0,1-.556-.418l0-.006.452-.607.006-.007a.349.349,0,1,1,.56.417Z" fill="#bdfbf8"/>
        <path id="Trazado_151153" data-name="Trazado 151153" d="M1343.217,817.225l-.517.578a.342.342,0,0,1-.51-.457l.005-.006.5-.566.006-.007a.344.344,0,1,1,.514.457Z" fill="#bdfbf8"/>
        <path id="Trazado_151154" data-name="Trazado 151154" d="M1341.434,819.095l-.568.529a.337.337,0,0,1-.459-.493l.006-.006.551-.518.007-.007a.339.339,0,0,1,.464.494Z" fill="#bdfbf8"/>
        <path id="Trazado_151155" data-name="Trazado 151155" d="M1339.486,820.794l-.614.473a.332.332,0,0,1-.4-.525l.007-.005.6-.464.007-.006a.333.333,0,1,1,.409.526Z" fill="#bdfbf8"/>
        <path id="Trazado_151156" data-name="Trazado 151156" d="M1337.387,822.3l-.656.413a.326.326,0,1,1-.347-.552l.006,0,.64-.406.007-.005a.328.328,0,1,1,.351.554Z" fill="#bdfbf8"/>
        <path id="Trazado_151157" data-name="Trazado 151157" d="M1335.157,823.6l-.691.351a.321.321,0,0,1-.29-.572l.006,0,.674-.346.008,0a.322.322,0,0,1,.294.574Z" fill="#bdfbf8"/>
        <path id="Trazado_151158" data-name="Trazado 151158" d="M1332.82,824.7l-.718.289a.315.315,0,1,1-.235-.584l.006,0,.7-.286.007,0a.317.317,0,0,1,.239.587Z" fill="#bdfbf8"/>
        <path id="Trazado_151159" data-name="Trazado 151159" d="M1330.4,825.594l-.739.229a.309.309,0,0,1-.184-.591l.006,0,.724-.228.007,0a.311.311,0,0,1,.187.594Z" fill="#bdfbf8"/>
        <path id="Trazado_151160" data-name="Trazado 151160" d="M1327.92,826.291l-.754.173a.3.3,0,0,1-.135-.593h.005l.74-.173h.006a.306.306,0,1,1,.139.6Z" fill="#bdfbf8"/>
        <path id="Trazado_151161" data-name="Trazado 151161" d="M1325.4,826.8l-.763.118a.3.3,0,1,1-.091-.59h0l.751-.12h.006a.3.3,0,1,1,.094.593Z" fill="#bdfbf8"/>
        <path id="Trazado_151162" data-name="Trazado 151162" d="M1322.843,827.134l-.769.067a.293.293,0,0,1-.051-.584h.005l.757-.069h.006a.295.295,0,0,1,.053.587Z" fill="#bdfbf8"/>
        <path id="Trazado_151163" data-name="Trazado 151163" d="M1320.277,827.3l-.772.018a.288.288,0,0,1-.014-.575h.005l.761-.021h.005a.289.289,0,1,1,.016.578Z" fill="#bdfbf8"/>
        <path id="Trazado_151164" data-name="Trazado 151164" d="M1317.706,827.31l-.771-.024a.288.288,0,0,1,.018-.575h.006l.761.025h.005a.286.286,0,0,1-.019.572Z" fill="#bdfbf8"/>
        <path id="Trazado_151165" data-name="Trazado 151165" d="M1315.139,827.176l-.768-.068a.29.29,0,0,1,.051-.577h.005l.759.069h.005a.289.289,0,0,1-.052.575Z" fill="#bdfbf8"/>
        <path id="Trazado_151166" data-name="Trazado 151166" d="M1312.584,826.9l-.764-.11a.292.292,0,0,1,.083-.578h.005l.755.11h.005a.291.291,0,0,1-.084.576Z" fill="#bdfbf8"/>
        <path id="Trazado_151167" data-name="Trazado 151167" d="M1310.047,826.486l-.755-.149a.294.294,0,0,1,.114-.577h0l.747.149h0a.294.294,0,0,1-.114.576Z" fill="#bdfbf8"/>
        <path id="Trazado_151168" data-name="Trazado 151168" d="M1307.537,825.95l-.748-.182a.3.3,0,0,1,.14-.576h.005l.74.182h0a.3.3,0,0,1-.141.574Z" fill="#bdfbf8"/>
        <path id="Trazado_151169" data-name="Trazado 151169" d="M1305.053,825.307l-.74-.212a.3.3,0,0,1,.165-.574h0l.733.211h0a.3.3,0,0,1-.165.573Z" fill="#bdfbf8"/>
        <path id="Trazado_151170" data-name="Trazado 151170" d="M1302.6,824.568l-.731-.239a.3.3,0,1,1,.186-.572h0l.725.238h0a.3.3,0,0,1-.187.571Z" fill="#bdfbf8"/>
        <path id="Trazado_151171" data-name="Trazado 151171" d="M1300.169,823.744l-.723-.262a.3.3,0,1,1,.207-.57h0l.717.262h0a.3.3,0,0,1-.207.568Z" fill="#bdfbf8"/>
        <path id="Trazado_151172" data-name="Trazado 151172" d="M1297.769,822.847l-.716-.281a.306.306,0,0,1,.224-.57h0l.709.283h0a.3.3,0,0,1-.223.567Z" fill="#bdfbf8"/>
        <path id="Trazado_151173" data-name="Trazado 151173" d="M1295.391,821.893l-.708-.3a.316.316,0,1,1,.244-.583h0l.7.3h0a.313.313,0,0,1-.244.577Z" fill="#bdfbf8"/>
        <path id="Trazado_151174" data-name="Trazado 151174" d="M1293.037,820.889l-.7-.31a.326.326,0,0,1,.263-.6h0l.7.314h0a.323.323,0,0,1-.263.59Z" fill="#bdfbf8"/>
        <path id="Trazado_151175" data-name="Trazado 151175" d="M1290.7,819.842l-.7-.321a.336.336,0,0,1,.281-.61h0l.693.325h0a.333.333,0,0,1-.281.6Z" fill="#bdfbf8"/>
        <path id="Trazado_151176" data-name="Trazado 151176" d="M1288.38,818.763l-.694-.329a.345.345,0,1,1,.3-.624l0,0,.69.333a.342.342,0,0,1-.3.618Z" fill="#bdfbf8"/>
        <path id="Trazado_151177" data-name="Trazado 151177" d="M1286.072,817.661l-.691-.334a.355.355,0,0,1,.309-.639h0l.687.339a.352.352,0,0,1-.308.633Z" fill="#bdfbf8"/>
        <path id="Trazado_151178" data-name="Trazado 151178" d="M1283.77,816.549l-.689-.334a.371.371,0,0,1,.323-.667l.005,0,.684.342a.366.366,0,0,1-.323.657Z" fill="#bdfbf8"/>
        <path id="Trazado_151179" data-name="Trazado 151179" d="M1281.472,815.436l-.156-.076a.383.383,0,0,1,.334-.689l0,0,.155.077a.382.382,0,0,1-.337.686Z" fill="#bdfbf8"/>
      </g>
      <g id="Grupo_94280" data-name="Grupo 94280">
        <path id="Trazado_151180" data-name="Trazado 151180" d="M1280.594,753.649l1.635,2.55-2.43.011Z" fill="#7debf4"/>
        <path id="Trazado_151181" data-name="Trazado 151181" d="M1268.19,759.539l10.759,1.623a.765.765,0,0,0,.876-.672l1.223-10.863a.307.307,0,0,0-.5-.272Z" fill="#91faf4"/>
        <path id="Trazado_151182" data-name="Trazado 151182" d="M1280.593,753.65l-12.4,5.888L1280.4,755.4l.484.688Z" fill="#7debf4"/>
        <path id="Trazado_151183" data-name="Trazado 151183" d="M1280.279,756.443l1.95-.244-1.828-.8Z" fill="#7debf4"/>
      </g>
    </g>
  </g>
</svg>
