<svg xmlns="http://www.w3.org/2000/svg" width="50" height="50" viewBox="0 0 50 50">
  <g id="surface1" transform="translate(-443.75 -443.75)">
    <path id="Trazado_150424" data-name="Trazado 150424" d="M489.583,478.75H481.25a.833.833,0,0,0-.833.833v10a.833.833,0,0,0,.833.834h8.333a.833.833,0,0,0,.834-.834v-10A.833.833,0,0,0,489.583,478.75Zm-.833,10h-6.667v-8.333h6.667Z" fill="#ffd947"/>
    <path id="Trazado_150425" data-name="Trazado 150425" d="M478.388,466.173a.832.832,0,0,0,1.178,0l5.892-5.892a.833.833,0,0,0,0-1.179l-7.071-7.071a.86.86,0,0,0-1.179,0l-5.891,5.893a.832.832,0,0,0,0,1.178ZM477.8,453.8l5.893,5.892-4.714,4.715-5.894-5.893Z" fill="#ffd947"/>
    <path id="Trazado_150426" data-name="Trazado 150426" d="M470.728,474.667a.837.837,0,0,0,.589-.244l5.891-5.894a.833.833,0,0,0,0-1.179l-7.07-7.07a.86.86,0,0,0-1.179,0l-5.891,5.893a.831.831,0,0,0,0,1.177l7.07,7.073A.836.836,0,0,0,470.728,474.667Zm-1.18-12.619,5.893,5.893-4.713,4.715-5.895-5.893Z" fill="#ffd947"/>
    <path id="Trazado_150427" data-name="Trazado 150427" d="M447.917,457.083h10a.833.833,0,0,0,.833-.833v-8.333a.833.833,0,0,0-.833-.834h-10a.833.833,0,0,0-.834.834v8.333A.833.833,0,0,0,447.917,457.083Zm.833-8.333h8.333v6.667H448.75Z" fill="#ffd947"/>
    <path id="Trazado_150428" data-name="Trazado 150428" d="M447.917,468.75h10a.833.833,0,0,0,.833-.833v-8.334a.833.833,0,0,0-.833-.833h-10a.833.833,0,0,0-.834.833v8.334A.833.833,0,0,0,447.917,468.75Zm.833-8.333h8.333v6.666H448.75Z" fill="#ffd947"/>
    <path id="Trazado_150429" data-name="Trazado 150429" d="M458.75,479.583V471.25a.833.833,0,0,0-.833-.833h-10a.833.833,0,0,0-.834.833v8.333a.833.833,0,0,0,.834.834h10A.833.833,0,0,0,458.75,479.583Zm-1.667-.833H448.75v-6.667h8.333Z" fill="#ffd947"/>
    <path id="Trazado_150430" data-name="Trazado 150430" d="M452.917,482.083a3.333,3.333,0,1,0,3.333,3.334A3.334,3.334,0,0,0,452.917,482.083Zm0,5a1.667,1.667,0,1,1,1.666-1.666A1.666,1.666,0,0,1,452.917,487.083Z" fill="#ffd947"/>
    <path id="Trazado_150431" data-name="Trazado 150431" d="M490.417,475.417H475.042L488.4,462.048a3.333,3.333,0,0,0,0-4.713l-8.25-8.25a3.336,3.336,0,0,0-4.714,0l-13.358,13.365V447.083a3.333,3.333,0,0,0-3.333-3.333H447.083a3.333,3.333,0,0,0-3.333,3.333v37.5a9.177,9.177,0,0,0,9.167,9.167h37.5a3.333,3.333,0,0,0,3.333-3.333V478.75A3.333,3.333,0,0,0,490.417,475.417Zm-28.334-4.334,5.108,5.109-4.714,4.713-.394-.394Zm-.075,14.615c.01-.078.023-.156.031-.234.027-.291.044-.584.044-.88V482.8a.822.822,0,0,0,.394.114.837.837,0,0,0,.59-.244l5.892-5.893a.834.834,0,0,0,0-1.178l-6.876-6.876V464.8l14.536-14.541a1.668,1.668,0,0,1,2.358,0l8.25,8.25a1.668,1.668,0,0,1,0,2.357L463.509,484.6l-1.559,1.56c.026-.152.04-.306.058-.458Zm8.409-5.281h6.666v8.333h-6.666Zm-5,4.628v3.7h-3.7Zm-10.993,6.886c-.208.043-.422.072-.635.1-.039,0-.075.013-.112.017a7.585,7.585,0,0,1-.76.038,7.507,7.507,0,0,1-7.5-7.5v-37.5a1.666,1.666,0,0,1,1.666-1.666H458.75a1.666,1.666,0,0,1,1.667,1.666v37.5c0,.257-.014.51-.039.761a1.118,1.118,0,0,1-.016.112c-.026.215-.055.427-.1.635l-.006.023a7.519,7.519,0,0,1-5.8,5.809Zm37.659-1.514a1.666,1.666,0,0,1-1.666,1.666H458.191a9.162,9.162,0,0,0,1.207-1.018l.649-.648h6.2a.833.833,0,0,0,.833-.834v-6.205l1.667-1.667v7.872a.833.833,0,0,0,.833.834h8.334a.833.833,0,0,0,.833-.834v-10a.833.833,0,0,0-.833-.833h-6.208l1.666-1.667h17.042a1.666,1.666,0,0,1,1.666,1.667Z" fill="#ffd947"/>
  </g>
</svg>
