<svg xmlns="http://www.w3.org/2000/svg" xmlns:xlink="http://www.w3.org/1999/xlink" width="201.661" height="200" viewBox="0 0 201.661 200">
  <defs>
    <linearGradient id="linear-gradient" x1="1.129" y1="1.296" x2="0.237" y2="0.19" gradientUnits="objectBoundingBox">
      <stop offset="0" stop-color="#ffca7c"/>
      <stop offset="1" stop-color="#f8e995"/>
    </linearGradient>
    <linearGradient id="linear-gradient-2" y1="0.5" x2="1" y2="0.5" gradientUnits="objectBoundingBox">
      <stop offset="0" stop-color="#a737d5"/>
      <stop offset="1" stop-color="#ef497a"/>
    </linearGradient>
    <linearGradient id="linear-gradient-6" x1="0.657" y1="-0.597" x2="0.379" y2="1.349" gradientUnits="objectBoundingBox">
      <stop offset="0" stop-color="#53d8ff"/>
      <stop offset="1" stop-color="#3840f7"/>
    </linearGradient>
    <linearGradient id="linear-gradient-7" x1="0.633" y1="0.155" x2="-0.169" y2="2.235" xlink:href="#linear-gradient-6"/>
    <linearGradient id="linear-gradient-10" x1="0.655" y1="-0.586" x2="0.38" y2="1.341" xlink:href="#linear-gradient-6"/>
    <linearGradient id="linear-gradient-20" x1="14.534" y1="-41.042" x2="15.471" y2="-41.042" gradientUnits="objectBoundingBox">
      <stop offset="0" stop-color="#fdb941"/>
      <stop offset="0.388" stop-color="#ebc54b"/>
      <stop offset="1" stop-color="#fff132"/>
    </linearGradient>
    <linearGradient id="linear-gradient-21" x1="-25.469" y1="2.021" x2="-26.637" y2="1.631" gradientUnits="objectBoundingBox">
      <stop offset="0" stop-color="#ffbd7c"/>
      <stop offset="1" stop-color="#ffe899"/>
    </linearGradient>
    <linearGradient id="linear-gradient-22" x1="0.788" y1="-0.361" x2="0.347" y2="0.738" xlink:href="#linear-gradient-6"/>
    <linearGradient id="linear-gradient-23" x1="0.757" y1="-0.173" x2="-0.321" y2="2.003" xlink:href="#linear-gradient-6"/>
    <linearGradient id="linear-gradient-24" x1="2.168" y1="-3.745" x2="1.475" y2="-2.097" gradientUnits="objectBoundingBox">
      <stop offset="0" stop-color="#fdf53f"/>
      <stop offset="1" stop-color="#d93c65"/>
    </linearGradient>
    <linearGradient id="linear-gradient-25" x1="-113.398" y1="-26.301" x2="-113.857" y2="-24.866" gradientUnits="objectBoundingBox">
      <stop offset="0" stop-color="#2b3582"/>
      <stop offset="1" stop-color="#150e42"/>
    </linearGradient>
    <linearGradient id="linear-gradient-26" x1="-56.369" y1="-0.027" x2="-56.271" y2="2.425" xlink:href="#linear-gradient-24"/>
    <linearGradient id="linear-gradient-27" x1="-191.236" y1="-0.191" x2="-189.092" y2="2.225" gradientUnits="objectBoundingBox">
      <stop offset="0" stop-color="#f9ebcf"/>
      <stop offset="1" stop-color="#f4cdb8"/>
    </linearGradient>
    <linearGradient id="linear-gradient-28" x1="-585.212" y1="-0.196" x2="-582.941" y2="2.22" xlink:href="#linear-gradient-27"/>
    <linearGradient id="linear-gradient-29" x1="-75.72" y1="-0.183" x2="-75.765" y2="2.488" xlink:href="#linear-gradient-25"/>
    <linearGradient id="linear-gradient-30" x1="-604.272" y1="-0.192" x2="-603.88" y2="-8.688" xlink:href="#linear-gradient-6"/>
    <linearGradient id="linear-gradient-31" x1="-163.885" y1="-2.202" x2="-162.843" y2="-2.202" xlink:href="#linear-gradient-25"/>
    <linearGradient id="linear-gradient-32" x1="-941.456" y1="-2.483" x2="-946.75" y2="-2.508" gradientUnits="objectBoundingBox">
      <stop offset="0" stop-color="#cb236d"/>
      <stop offset="1" stop-color="#4c246d"/>
    </linearGradient>
    <linearGradient id="linear-gradient-33" x1="-514.505" y1="-4.058" x2="-517.944" y2="3.365" xlink:href="#linear-gradient-27"/>
    <linearGradient id="linear-gradient-34" x1="-549.589" y1="-6.862" x2="-548.543" y2="-6.862" xlink:href="#linear-gradient-25"/>
    <linearGradient id="linear-gradient-35" x1="-3076.723" y1="-7.457" x2="-3081.845" y2="-7.481" xlink:href="#linear-gradient-32"/>
    <linearGradient id="linear-gradient-36" x1="-536.536" y1="-6.361" x2="-540.023" y2="1.144" xlink:href="#linear-gradient-27"/>
    <linearGradient id="linear-gradient-37" x1="-46.489" y1="-0.294" x2="-47.304" y2="1.012" xlink:href="#linear-gradient-32"/>
    <linearGradient id="linear-gradient-38" x1="-50.186" y1="0.897" x2="-50.411" y2="-0.262" xlink:href="#linear-gradient-32"/>
    <linearGradient id="linear-gradient-39" x1="-146.663" y1="1.753" x2="-146.686" y2="-0.794" xlink:href="#linear-gradient-27"/>
    <linearGradient id="linear-gradient-40" x1="-165.067" y1="-20.661" x2="-164.989" y2="-22.049" xlink:href="#linear-gradient-27"/>
    <linearGradient id="linear-gradient-41" x1="-113.545" y1="-28.906" x2="-114" y2="-27.331" xlink:href="#linear-gradient-25"/>
    <linearGradient id="linear-gradient-42" x1="-1085.697" y1="-11.017" x2="-1084.946" y2="-19.489" xlink:href="#linear-gradient-27"/>
  </defs>
  <g id="Grupo_94115" data-name="Grupo 94115" transform="translate(-1754.169 -1755)">
    <path id="Trazado_150613" data-name="Trazado 150613" d="M1931.811,1926.868a72.186,72.186,0,0,1-11.051,9.271c-36.051,25.774-78.709,18.261-87.775,16.426-13.388-2.709-39.266-7.946-57.975-29.869-28.306-33.166-23.9-85.42-1.943-119.913,4.016-6.309,25.231-41.328,68.348-46.944,26.094-3.4,56.512,3.456,78.539,21.844C1966.192,1816.281,1962.9,1894.256,1931.811,1926.868Z" opacity="0.3" fill="url(#linear-gradient)"/>
    <g id="Grupo_94133" data-name="Grupo 94133">
      <path id="Trazado_150614" data-name="Trazado 150614" d="M1838.945,1949.09a.6.6,0,0,1-.283-.071l-.7-.369a.6.6,0,0,1,.567-1.068l.491.261,1.591-.4a.6.6,0,0,1,.292,1.173l-1.816.452A.6.6,0,0,1,1838.945,1949.09Zm4.63-1.153a.6.6,0,0,1-.145-1.191l2.58-.642a.6.6,0,0,1,.292,1.173l-2.58.642A.619.619,0,0,1,1843.575,1947.937Zm-7.888-.577a.6.6,0,0,1-.282-.071l-2.349-1.247a.6.6,0,0,1,.567-1.067l2.348,1.247a.6.6,0,0,1-.284,1.138Zm13.283-.766a.6.6,0,0,1-.146-1.191l2.58-.642a.6.6,0,1,1,.292,1.172l-2.58.643A.616.616,0,0,1,1848.97,1946.594Zm5.4-1.343a.6.6,0,0,1-.146-1.191l2.58-.642a.6.6,0,1,1,.292,1.172l-2.58.643A.616.616,0,0,1,1854.365,1945.251Zm-23.587-.5a.6.6,0,0,1-.283-.071l-2.349-1.247a.6.6,0,0,1,.567-1.068l2.348,1.248a.6.6,0,0,1-.283,1.138Zm28.981-.846a.6.6,0,0,1-.145-1.19l2.58-.643a.6.6,0,0,1,.292,1.173l-2.58.642A.571.571,0,0,1,1859.759,1943.907Zm5.4-1.343a.6.6,0,0,1-.146-1.19l2.581-.643a.6.6,0,0,1,.292,1.173l-2.581.642A.57.57,0,0,1,1865.154,1942.564Zm-39.287-.419a.6.6,0,0,1-.282-.071l-2.349-1.247a.6.6,0,0,1,.567-1.067l2.348,1.247a.6.6,0,0,1-.284,1.138Zm44.682-.924a.6.6,0,0,1-.146-1.191l2.58-.642a.6.6,0,1,1,.292,1.173l-2.58.642A.615.615,0,0,1,1870.549,1941.221Zm5.394-1.343a.6.6,0,0,1-.145-1.191l2.58-.642a.6.6,0,0,1,.292,1.173l-2.58.642A.618.618,0,0,1,1875.943,1939.878Zm-54.985-.34a.6.6,0,0,1-.283-.071l-2.349-1.247a.6.6,0,0,1,.567-1.068l2.348,1.247a.6.6,0,0,1-.283,1.139Zm60.38-1a.6.6,0,0,1-.145-1.191l2.58-.642a.6.6,0,1,1,.292,1.172l-2.58.643A.618.618,0,0,1,1881.338,1938.535Zm5.4-1.343a.6.6,0,0,1-.146-1.191l2.58-.642a.6.6,0,1,1,.292,1.172l-2.58.643A.61.61,0,0,1,1886.733,1937.192Zm-70.685-.262a.6.6,0,0,1-.283-.071l-2.349-1.247a.6.6,0,0,1,.567-1.067l2.348,1.247a.6.6,0,0,1-.283,1.138Zm76.079-1.082a.6.6,0,0,1-.145-1.19l2.58-.643a.6.6,0,0,1,.292,1.173l-2.58.642A.567.567,0,0,1,1892.127,1935.848Zm5.4-1.343a.6.6,0,0,1-.145-1.19l2.58-.643a.6.6,0,0,1,.292,1.173l-2.58.642A.571.571,0,0,1,1897.522,1934.505Zm-86.384-.183a.6.6,0,0,1-.283-.07l-2.348-1.247a.6.6,0,1,1,.566-1.068l2.348,1.247a.6.6,0,0,1-.283,1.138Zm91.779-1.16a.6.6,0,0,1-.146-1.191l2.58-.642a.6.6,0,1,1,.292,1.173l-2.58.642A.616.616,0,0,1,1902.917,1933.162Zm5.4-1.343a.6.6,0,0,1-.146-1.191l2.58-.642a.6.6,0,0,1,.292,1.173l-2.58.642A.616.616,0,0,1,1908.312,1931.819Zm-102.084-.1a.6.6,0,0,1-.283-.071l-2.348-1.247a.6.6,0,1,1,.566-1.067l2.349,1.247a.6.6,0,0,1-.284,1.138Zm107.478-1.239a.6.6,0,0,1-.145-1.191l2.58-.642a.6.6,0,1,1,.292,1.172l-2.58.643A.618.618,0,0,1,1913.706,1930.476Zm5.395-1.343a.6.6,0,0,1-.146-1.191l2.581-.642a.6.6,0,1,1,.291,1.172l-2.58.643A.609.609,0,0,1,1919.1,1929.133Zm-117.783-.026a.611.611,0,0,1-.283-.07l-2.348-1.247a.6.6,0,1,1,.566-1.068l2.349,1.247a.6.6,0,0,1-.284,1.138Zm122.964-1.57a.613.613,0,0,1-.239-.049.605.605,0,0,1-.316-.8l1.055-2.441a.6.6,0,1,1,1.109.48l-1.054,2.44A.6.6,0,0,1,1924.282,1927.537Zm-127.874-1.037a.6.6,0,0,1-.283-.071l-2.348-1.247a.6.6,0,1,1,.566-1.067l2.349,1.247a.6.6,0,0,1-.284,1.138Zm-4.91-2.608a.611.611,0,0,1-.283-.07l-2.348-1.248a.6.6,0,1,1,.567-1.067l2.348,1.247a.6.6,0,0,1-.284,1.138Zm134.988-1.458a.6.6,0,0,1-.239-.05.6.6,0,0,1-.315-.794l1.054-2.441a.6.6,0,0,1,1.11.479l-1.055,2.441A.6.6,0,0,1,1926.486,1922.434Zm-139.9-1.149a.6.6,0,0,1-.283-.071l-2.348-1.247a.6.6,0,1,1,.566-1.067l2.349,1.247a.6.6,0,0,1-.284,1.138Zm-4.91-2.608a.6.6,0,0,1-.283-.071l-2.348-1.247a.6.6,0,1,1,.567-1.067l2.348,1.247a.6.6,0,0,1-.284,1.138Zm147.013-1.347a.6.6,0,0,1-.239-.05.6.6,0,0,1-.316-.794l1.055-2.441a.6.6,0,1,1,1.109.479l-1.054,2.441A.6.6,0,0,1,1928.691,1917.33Zm-151.472-1.617a.6.6,0,0,1-.584-.452l-.672-2.572a.6.6,0,1,1,1.169-.306l.672,2.573a.6.6,0,0,1-.432.737A.572.572,0,0,1,1777.219,1915.713Zm153.676-3.487a.613.613,0,0,1-.239-.049.606.606,0,0,1-.315-.8l1.054-2.441a.6.6,0,1,1,1.11.48l-1.055,2.441A.6.6,0,0,1,1930.9,1912.226Zm-155.081-1.892a.6.6,0,0,1-.584-.452l-.672-2.572a.6.6,0,1,1,1.17-.306l.672,2.573a.6.6,0,0,1-.432.737A.586.586,0,0,1,1775.814,1910.334Zm157.286-3.211a.605.605,0,0,1-.555-.844l1.055-2.441a.6.6,0,1,1,1.109.479l-1.054,2.441A.605.605,0,0,1,1933.1,1907.123Zm-158.69-2.168a.6.6,0,0,1-.584-.452l-.672-2.572a.6.6,0,1,1,1.169-.306l.672,2.573a.6.6,0,0,1-.432.737A.583.583,0,0,1,1774.41,1904.955Zm160.9-2.936a.6.6,0,0,1-.24-.05.6.6,0,0,1-.315-.794l1.054-2.441a.6.6,0,0,1,1.11.479l-1.055,2.441A.6.6,0,0,1,1935.305,1902.019Zm-162.3-2.443a.6.6,0,0,1-.584-.452l-.672-2.572a.6.6,0,1,1,1.17-.306l.672,2.573a.6.6,0,0,1-.432.737A.591.591,0,0,1,1773.005,1899.576Zm164.5-2.661a.594.594,0,0,1-.239-.049.6.6,0,0,1-.315-.795l1.054-2.44a.6.6,0,1,1,1.109.479l-1.054,2.441A.6.6,0,0,1,1937.509,1896.915ZM1771.6,1894.2a.6.6,0,0,1-.584-.452l-.672-2.572a.6.6,0,1,1,1.169-.306l.672,2.573a.6.6,0,0,1-.432.737A.578.578,0,0,1,1771.6,1894.2Zm168.113-2.385a.605.605,0,0,1-.555-.844l1.054-2.441a.6.6,0,0,1,1.11.479l-1.055,2.441A.6.6,0,0,1,1939.714,1891.812Zm-169.518-2.994a.6.6,0,0,1-.584-.452l-.672-2.573a.6.6,0,0,1,1.17-.3l.671,2.573a.6.6,0,0,1-.432.737A.616.616,0,0,1,1770.2,1888.818Zm171.722-2.11a.613.613,0,0,1-.239-.049.6.6,0,0,1-.315-.8l1.054-2.441a.6.6,0,1,1,1.109.48l-1.054,2.44A.6.6,0,0,1,1941.918,1886.708Zm-173.126-3.269a.6.6,0,0,1-.584-.452l-.672-2.572a.6.6,0,1,1,1.169-.306l.672,2.573a.6.6,0,0,1-.432.737A.62.62,0,0,1,1768.792,1883.439Zm175.331-1.834a.6.6,0,0,1-.555-.844l1.055-2.441a.6.6,0,0,1,1.109.479l-1.055,2.441A.6.6,0,0,1,1944.123,1881.6Zm-176.736-3.545a.6.6,0,0,1-.584-.452l-.672-2.573a.6.6,0,0,1,1.17-.305l.671,2.573a.6.6,0,0,1-.432.737A.622.622,0,0,1,1767.387,1878.06Zm178.94-1.559a.6.6,0,0,1-.239-.05.6.6,0,0,1-.315-.794l1.054-2.441a.6.6,0,0,1,1.109.479l-1.054,2.441A.6.6,0,0,1,1946.327,1876.5Zm-180.344-3.82a.6.6,0,0,1-.584-.452l-.672-2.573a.6.6,0,1,1,1.169-.305l.672,2.573a.6.6,0,0,1-.432.737A.627.627,0,0,1,1765.983,1872.681Zm182.549-1.284a.618.618,0,0,1-.24-.049.606.606,0,0,1-.315-.8l.907-2.1-.072-.317a.6.6,0,1,1,1.178-.269l.077.336v0l.039.17a.6.6,0,0,1-.034.375l-.985,2.281A.605.605,0,0,1,1948.532,1871.4Zm-183.954-4.095a.6.6,0,0,1-.584-.452l-.672-2.573a.6.6,0,0,1,1.17-.3l.671,2.573a.6.6,0,0,1-.432.737A.614.614,0,0,1,1764.578,1867.3Zm184.176-1.523a.6.6,0,0,1-.588-.47l-.592-2.592a.6.6,0,1,1,1.178-.269l.592,2.592a.605.605,0,0,1-.455.724A.621.621,0,0,1,1948.754,1865.779Zm-185.58-3.856a.6.6,0,0,1-.585-.452l-.671-2.573a.6.6,0,0,1,1.169-.3l.672,2.573a.6.6,0,0,1-.432.737A.622.622,0,0,1,1763.174,1861.923Zm184.342-1.564a.6.6,0,0,1-.588-.47l-.592-2.592a.6.6,0,1,1,1.178-.269l.592,2.592a.6.6,0,0,1-.454.724A.636.636,0,0,1,1947.516,1860.359Zm-185.747-3.816a.6.6,0,0,1-.584-.451l-.672-2.573a.6.6,0,0,1,1.17-.305l.671,2.572a.6.6,0,0,1-.432.738A.62.62,0,0,1,1761.769,1856.543Zm184.51-1.6a.6.6,0,0,1-.589-.47l-.592-2.592a.6.6,0,0,1,1.178-.269l.592,2.592a.6.6,0,0,1-.454.724A.633.633,0,0,1,1946.279,1854.939Zm-183.794-3.462a.605.605,0,0,1-.515-.92l1.384-2.269a.6.6,0,1,1,1.032.629l-1.385,2.27A.6.6,0,0,1,1762.485,1851.477Zm182.556-1.958a.6.6,0,0,1-.589-.469l-.592-2.592a.6.6,0,0,1,1.178-.27l.592,2.592a.6.6,0,0,1-.454.724A.635.635,0,0,1,1945.041,1849.519Zm-179.661-2.788a.6.6,0,0,1-.515-.919l1.384-2.27a.6.6,0,0,1,1.032.629l-1.384,2.27A.6.6,0,0,1,1765.38,1846.731ZM1943.8,1844.1a.6.6,0,0,1-.589-.47l-.592-2.592a.6.6,0,1,1,1.178-.269l.593,2.592a.6.6,0,0,1-.455.723A.573.573,0,0,1,1943.8,1844.1Zm-175.528-2.115a.6.6,0,0,1-.515-.919l1.385-2.27a.6.6,0,1,1,1.031.629l-1.384,2.27A.6.6,0,0,1,1768.275,1841.985Zm174.29-3.3a.6.6,0,0,1-.588-.47l-.592-2.592a.6.6,0,1,1,1.178-.269l.592,2.592a.6.6,0,0,1-.455.723A.56.56,0,0,1,1942.565,1838.68Zm-171.394-1.441a.606.606,0,0,1-.516-.919l1.385-2.27a.6.6,0,0,1,1.032.629l-1.385,2.27A.6.6,0,0,1,1771.171,1837.239Zm170.156-3.979a.6.6,0,0,1-.588-.47l-.592-2.592a.6.6,0,1,1,1.178-.269l.592,2.592a.605.605,0,0,1-.455.724A.621.621,0,0,1,1941.327,1833.26Zm-167.261-.767a.6.6,0,0,1-.515-.919l1.384-2.27a.6.6,0,1,1,1.032.629l-1.385,2.27A.6.6,0,0,1,1774.066,1832.493Zm166.023-4.653a.6.6,0,0,1-.588-.47l-.592-2.592a.6.6,0,0,1,1.178-.269l.592,2.592a.6.6,0,0,1-.455.724A.62.62,0,0,1,1940.089,1827.84Zm-163.128-.093a.6.6,0,0,1-.515-.919l1.384-2.27a.6.6,0,1,1,1.032.629l-1.384,2.27A.6.6,0,0,1,1776.961,1827.747Zm2.895-4.746a.6.6,0,0,1-.515-.919l1.385-2.27a.6.6,0,1,1,1.031.629l-1.384,2.27A.6.6,0,0,1,1779.856,1823Zm158.995-.581a.6.6,0,0,1-.588-.47l-.592-2.592a.6.6,0,0,1,1.178-.269l.592,2.592a.6.6,0,0,1-.454.724A.637.637,0,0,1,1938.851,1822.42Zm-156.1-4.165a.605.605,0,0,1-.515-.92l1.385-2.269a.6.6,0,0,1,1.032.629l-1.385,2.27A.6.6,0,0,1,1782.751,1818.255ZM1937.614,1817a.6.6,0,0,1-.589-.469l-.592-2.592a.6.6,0,0,1,1.178-.27l.592,2.592a.6.6,0,0,1-.454.724A.635.635,0,0,1,1937.614,1817Zm-151.967-3.491a.606.606,0,0,1-.516-.919l1.385-2.27a.6.6,0,1,1,1.032.629l-1.385,2.27A.6.6,0,0,1,1785.647,1813.509Zm150-1.451a.6.6,0,0,1-.355-.115l-2.15-1.566a.6.6,0,0,1,.712-.977l2.149,1.566a.6.6,0,0,1-.356,1.092Zm-4.494-3.273a.6.6,0,0,1-.355-.115l-2.149-1.566a.6.6,0,0,1,.711-.977l2.149,1.566a.6.6,0,0,1-.356,1.092Zm-142.615-.022a.6.6,0,0,1-.515-.919l1.384-2.27a.6.6,0,1,1,1.032.629l-1.385,2.27A.6.6,0,0,1,1788.542,1808.763Zm138.121-3.251a.6.6,0,0,1-.355-.115l-2.149-1.566a.6.6,0,0,1,.711-.977l2.149,1.566a.6.6,0,0,1-.356,1.092Zm-135.226-1.495a.6.6,0,0,1-.515-.919l1.385-2.27a.6.6,0,1,1,1.031.629l-1.384,2.27A.6.6,0,0,1,1791.437,1804.017Zm130.732-1.777a.6.6,0,0,1-.355-.116l-2.149-1.566a.6.6,0,1,1,.711-.977l2.15,1.566a.6.6,0,0,1-.357,1.093Zm-127.837-2.969a.6.6,0,0,1-.515-.919l1.385-2.27a.6.6,0,0,1,1.032.629l-1.385,2.27A.6.6,0,0,1,1794.332,1799.271Zm123.344-.3a.606.606,0,0,1-.356-.116l-2.149-1.566a.6.6,0,1,1,.712-.977l2.149,1.566a.6.6,0,0,1-.356,1.093Zm-4.494-3.273a.6.6,0,0,1-.355-.116l-2.15-1.566a.6.6,0,0,1,.712-.977l2.149,1.566a.6.6,0,0,1-.356,1.093Zm-115.954-1.169a.6.6,0,0,1-.314-.089.606.606,0,0,1-.2-.831l1.385-2.269a.6.6,0,1,1,1.032.629l-1.385,2.27A.6.6,0,0,1,1797.228,1794.525Zm111.46-2.1a.6.6,0,0,1-.355-.116l-2.15-1.565a.6.6,0,0,1,.712-.977l2.149,1.565a.6.6,0,0,1-.356,1.093Zm-108.565-2.642a.6.6,0,0,1-.515-.919l.8-1.309a.609.609,0,0,1,.365-.271l1.09-.281a.6.6,0,0,1,.3,1.171l-.853.22-.671,1.1A.6.6,0,0,1,1800.123,1789.779Zm104.071-.631a.6.6,0,0,1-.355-.116l-2.149-1.565a.6.6,0,1,1,.711-.977l2.149,1.565a.6.6,0,0,1-.356,1.093Zm-99.374-1.684a.6.6,0,0,1-.15-1.189l2.574-.664a.6.6,0,0,1,.3,1.17l-2.574.664A.612.612,0,0,1,1804.82,1787.464Zm5.384-1.388a.6.6,0,0,1-.151-1.19l2.575-.664a.6.6,0,1,1,.3,1.17l-2.574.665A.61.61,0,0,1,1810.2,1786.076Zm89.5-.2a.6.6,0,0,1-.355-.116l-2.149-1.565a.6.6,0,1,1,.711-.977l2.149,1.565a.6.6,0,0,1-.356,1.093Zm-84.113-1.188a.6.6,0,0,1-.151-1.189l2.575-.664a.6.6,0,0,1,.3,1.17l-2.575.664A.6.6,0,0,1,1815.587,1784.687Zm5.383-1.388a.6.6,0,0,1-.151-1.19l2.575-.664a.6.6,0,0,1,.3,1.17l-2.575.664A.6.6,0,0,1,1820.97,1783.3Zm74.236-.7a.6.6,0,0,1-.355-.116l-2.149-1.565a.6.6,0,1,1,.711-.977l2.15,1.565a.6.6,0,0,1-.357,1.093Zm-68.853-.692a.6.6,0,0,1-.15-1.19l2.574-.664a.6.6,0,0,1,.3,1.171l-2.575.664A.6.6,0,0,1,1826.353,1781.91Zm5.383-1.389a.6.6,0,0,1-.15-1.189l2.574-.664a.6.6,0,0,1,.3,1.17l-2.574.664A.611.611,0,0,1,1831.736,1780.521Zm58.977-1.192a.6.6,0,0,1-.356-.116l-2.149-1.565a.6.6,0,1,1,.712-.977l2.149,1.565a.6.6,0,0,1-.356,1.093Zm-53.594-.2a.6.6,0,0,1-.15-1.19l2.574-.664a.6.6,0,1,1,.3,1.171l-2.574.664A.618.618,0,0,1,1837.119,1779.133Zm5.384-1.389a.6.6,0,0,1-.151-1.189l2.575-.664a.6.6,0,0,1,.3,1.17l-2.575.664A.6.6,0,0,1,1842.5,1777.744Zm5.383-1.388a.6.6,0,0,1-.151-1.19l2.575-.664a.6.6,0,0,1,.3,1.17l-2.575.665A.6.6,0,0,1,1847.886,1776.356Zm38.333-.3a.6.6,0,0,1-.356-.116l-2.149-1.565a.6.6,0,1,1,.712-.977l2.149,1.565a.6.6,0,0,1-.356,1.093Zm-32.95-1.089a.6.6,0,0,1-.151-1.189l2.575-.664a.6.6,0,0,1,.3,1.17l-2.575.664A.6.6,0,0,1,1853.269,1774.967Zm5.383-1.388a.6.6,0,0,1-.15-1.19l2.574-.664a.6.6,0,0,1,.3,1.17l-2.574.664A.612.612,0,0,1,1858.652,1773.579Zm23.073-.8a.6.6,0,0,1-.355-.116l-2.15-1.565a.6.6,0,0,1,.712-.977l2.149,1.565a.6.6,0,0,1-.356,1.093Zm-17.69-.593a.6.6,0,0,1-.15-1.19l2.574-.664a.6.6,0,1,1,.3,1.171l-2.574.664A.618.618,0,0,1,1864.035,1772.19Zm5.384-1.388a.6.6,0,0,1-.151-1.19l2.575-.664a.6.6,0,0,1,.3,1.17l-2.575.664A.6.6,0,0,1,1869.419,1770.8Zm7.812-1.292a.6.6,0,0,1-.355-.116l-.5-.367-1.42.367a.6.6,0,0,1-.3-1.171l1.7-.437a.6.6,0,0,1,.507.1l.733.534a.6.6,0,0,1-.356,1.093Z" fill="url(#linear-gradient-2)"/>
      <path id="Trazado_150615" data-name="Trazado 150615" d="M1924.134,1927.879a.606.606,0,0,1-.579-.43l-.481-1.607a.6.6,0,1,1,1.158-.346l.06.2a.6.6,0,0,1,.538.659l-.094.977a.6.6,0,0,1-.543.544A.56.56,0,0,1,1924.134,1927.879Zm.375-3.864a.577.577,0,0,1-.059,0,.6.6,0,0,1-.543-.659l.256-2.647a.6.6,0,0,1,1.2.116l-.256,2.647A.6.6,0,0,1,1924.509,1924.015Zm-1.689-.52a.605.605,0,0,1-.579-.431l-.763-2.547a.6.6,0,1,1,1.157-.347l.764,2.547a.6.6,0,0,1-.406.752A.579.579,0,0,1,1922.82,1923.495Zm2.225-5.014c-.02,0-.039,0-.059,0a.6.6,0,0,1-.543-.66l.256-2.646a.6.6,0,1,1,1.2.116l-.256,2.646A.6.6,0,0,1,1925.045,1918.481Zm-3.822-.311a.6.6,0,0,1-.578-.431l-.764-2.547a.6.6,0,0,1,1.158-.347l.763,2.547a.6.6,0,0,1-.405.752A.584.584,0,0,1,1921.223,1918.17Zm-143.79-1.932a.634.634,0,0,1-.114-.011.6.6,0,0,1-.48-.707l.5-2.612a.6.6,0,0,1,1.2.12l1.369-2.037a.6.6,0,0,1,1,.674l-1.483,2.207a.605.605,0,0,1-1.032-.047l-.367,1.922A.606.606,0,0,1,1777.433,1916.238Zm148.148-3.29a.55.55,0,0,1-.059,0,.6.6,0,0,1-.544-.66l.257-2.646a.6.6,0,0,1,1.2.116l-.257,2.647A.6.6,0,0,1,1925.581,1912.948Zm-5.954-.1a.605.605,0,0,1-.579-.431l-.763-2.547a.6.6,0,1,1,1.157-.347l.764,2.547a.6.6,0,0,1-.405.752A.619.619,0,0,1,1919.627,1912.845Zm-141.15-2.068a.562.562,0,0,1-.115-.011.6.6,0,0,1-.48-.707l.5-2.611a.6.6,0,1,1,1.187.227l-.5,2.611A.6.6,0,0,1,1778.477,1910.777Zm3.547-1.252a.6.6,0,0,1-.5-.941l1.483-2.207a.6.6,0,0,1,1,.674l-1.483,2.207A.606.606,0,0,1,1782.024,1909.525Zm136.006-2.006a.6.6,0,0,1-.578-.431l-.764-2.547a.6.6,0,0,1,1.158-.347l.763,2.547a.6.6,0,0,1-.405.753A.616.616,0,0,1,1918.03,1907.519Zm8.086-.105-.059,0a.605.605,0,0,1-.543-.66l.256-2.647a.6.6,0,1,1,1.2.117l-.256,2.646A.6.6,0,0,1,1926.116,1907.414Zm-146.6-2.1a.641.641,0,0,1-.114-.011.6.6,0,0,1-.48-.707l.5-2.612a.6.6,0,1,1,1.187.227l-.5,2.612A.605.605,0,0,1,1779.52,1905.317Zm5.6-.406a.6.6,0,0,1-.336-.1.6.6,0,0,1-.164-.838l1.483-2.207a.6.6,0,0,1,1,.674l-1.484,2.207A.6.6,0,0,1,1785.125,1904.911Zm131.309-2.717a.605.605,0,0,1-.579-.431l-.763-2.547a.6.6,0,1,1,1.157-.347l.764,2.547a.6.6,0,0,1-.4.752A.586.586,0,0,1,1916.434,1902.194Zm10.218-.313-.059,0a.6.6,0,0,1-.543-.66l.256-2.646a.6.6,0,0,1,1.2.116l-.256,2.647A.605.605,0,0,1,1926.652,1901.881Zm-138.425-1.584a.6.6,0,0,1-.5-.941l1.483-2.207a.6.6,0,0,1,1,.674l-1.483,2.207A.606.606,0,0,1,1788.227,1900.3Zm-7.663-.441a.548.548,0,0,1-.114-.011.6.6,0,0,1-.48-.707l.5-2.611a.6.6,0,1,1,1.187.227l-.5,2.611A.6.6,0,0,1,1780.564,1899.856Zm134.274-2.987a.6.6,0,0,1-.579-.431l-.764-2.547a.6.6,0,0,1,1.158-.347l.764,2.547a.605.605,0,0,1-.406.752A.616.616,0,0,1,1914.838,1896.869Zm12.35-.522-.059,0a.606.606,0,0,1-.544-.66l.257-2.647a.6.6,0,0,1,1.2.117l-.257,2.646A.6.6,0,0,1,1927.188,1896.347Zm-135.86-.664a.6.6,0,0,1-.336-.1.6.6,0,0,1-.165-.838l1.483-2.207a.6.6,0,0,1,1,.674l-1.483,2.207A.6.6,0,0,1,1791.328,1895.683Zm-9.72-1.287a.651.651,0,0,1-.115-.011.606.606,0,0,1-.48-.707l.5-2.612a.6.6,0,0,1,1.188.227l-.5,2.612A.6.6,0,0,1,1781.608,1894.4Zm131.633-2.853a.6.6,0,0,1-.578-.43l-.764-2.547a.6.6,0,1,1,1.158-.347l.763,2.547a.6.6,0,0,1-.4.752A.613.613,0,0,1,1913.241,1891.543Zm-118.812-.474a.6.6,0,0,1-.5-.941l1.483-2.207a.6.6,0,0,1,1,.674l-1.483,2.207A.6.6,0,0,1,1794.429,1891.069Zm133.294-.255-.059,0a.6.6,0,0,1-.543-.66l.256-2.646a.6.6,0,0,1,1.2.116l-.256,2.647A.6.6,0,0,1,1927.723,1890.814Zm-145.072-1.879a.622.622,0,0,1-.114-.011.6.6,0,0,1-.48-.707l.5-2.611a.6.6,0,1,1,1.187.226l-.5,2.612A.6.6,0,0,1,1782.651,1888.935Zm14.88-2.48a.6.6,0,0,1-.5-.941l1.483-2.207a.6.6,0,1,1,1,.675l-1.483,2.206A.6.6,0,0,1,1797.531,1886.455Zm114.114-.237a.605.605,0,0,1-.579-.431l-.763-2.547a.6.6,0,0,1,1.157-.347l.764,2.547a.6.6,0,0,1-.579.778Zm16.614-.938a.577.577,0,0,1-.059,0,.6.6,0,0,1-.543-.659l.256-2.647a.6.6,0,0,1,1.2.117l-.256,2.646A.6.6,0,0,1,1928.259,1885.28Zm-144.564-1.806a.63.63,0,0,1-.114-.01.6.6,0,0,1-.48-.707l.5-2.612a.6.6,0,0,1,1.187.227l-.5,2.611A.6.6,0,0,1,1783.695,1883.474Zm16.937-1.632a.605.605,0,0,1-.5-.942l1.484-2.207a.6.6,0,1,1,1,.675l-1.483,2.206A.6.6,0,0,1,1800.632,1881.842Zm109.416-.949a.6.6,0,0,1-.578-.431l-.764-2.547a.6.6,0,0,1,1.158-.347l.763,2.547a.6.6,0,0,1-.4.752A.582.582,0,0,1,1910.048,1880.893Zm18.747-1.146-.059,0a.6.6,0,0,1-.543-.66l.256-2.646a.6.6,0,0,1,1.2.116l-.256,2.647A.606.606,0,0,1,1928.8,1879.747Zm-144.056-1.733a.652.652,0,0,1-.115-.011.605.605,0,0,1-.48-.707l.5-2.612a.6.6,0,0,1,1.187.227l-.5,2.612A.6.6,0,0,1,1784.739,1878.014Zm18.995-.786a.6.6,0,0,1-.5-.942l1.483-2.207a.6.6,0,0,1,1,.675l-1.483,2.206A.6.6,0,0,1,1803.734,1877.228Zm104.718-1.66a.605.605,0,0,1-.579-.431l-.763-2.547a.6.6,0,0,1,1.157-.347l.764,2.547a.6.6,0,0,1-.405.752A.623.623,0,0,1,1908.452,1875.568Zm20.879-1.355a.55.55,0,0,1-.059,0,.6.6,0,0,1-.544-.659l.257-2.647a.6.6,0,0,1,1.2.117l-.257,2.646A.6.6,0,0,1,1929.331,1874.213Zm-122.5-1.6a.6.6,0,0,1-.5-.942l1.483-2.206a.6.6,0,1,1,1,.674l-1.483,2.206A.6.6,0,0,1,1806.835,1872.614Zm-21.053-.061a.554.554,0,0,1-.114-.011.6.6,0,0,1-.48-.707l.5-2.611a.6.6,0,1,1,1.187.227l-.5,2.611A.6.6,0,0,1,1785.782,1872.553Zm121.073-2.311a.6.6,0,0,1-.578-.431l-.764-2.546a.6.6,0,1,1,1.158-.347l.763,2.547a.6.6,0,0,1-.4.752A.617.617,0,0,1,1906.855,1870.242Zm23.011-1.562-.059,0a.6.6,0,0,1-.543-.66l.256-2.646a.6.6,0,0,1,1.2.116l-.256,2.647A.6.6,0,0,1,1929.866,1868.68Zm-119.93-.68a.605.605,0,0,1-.5-.942l1.484-2.206a.6.6,0,1,1,1,.674l-1.484,2.206A.6.6,0,0,1,1809.936,1868Zm-23.11-.907a.632.632,0,0,1-.114-.011.6.6,0,0,1-.48-.707l.5-2.612a.6.6,0,1,1,1.187.227l-.5,2.612A.606.606,0,0,1,1786.826,1867.093Zm118.433-2.176a.6.6,0,0,1-.578-.431l-.764-2.547a.6.6,0,0,1,1.158-.347l.763,2.547a.6.6,0,0,1-.405.753A.612.612,0,0,1,1905.259,1864.917Zm-92.221-1.531a.6.6,0,0,1-.5-.942l1.483-2.206a.6.6,0,1,1,1,.674l-1.483,2.206A.6.6,0,0,1,1813.038,1863.386Zm117.364-.24a.577.577,0,0,1-.059,0,.6.6,0,0,1-.543-.659l.256-2.647a.6.6,0,1,1,1.2.117L1931,1862.6A.6.6,0,0,1,1930.4,1863.146Zm-142.532-1.514a.562.562,0,0,1-.115-.011.6.6,0,0,1-.48-.707l.5-2.611a.6.6,0,0,1,1.188.227l-.5,2.611A.6.6,0,0,1,1787.87,1861.632Zm115.793-2.04a.605.605,0,0,1-.579-.431l-.763-2.547a.6.6,0,0,1,1.157-.347l.764,2.547a.6.6,0,0,1-.406.752A.579.579,0,0,1,1903.663,1859.592Zm-87.524-.82a.6.6,0,0,1-.5-.942l1.483-2.206a.6.6,0,1,1,1,.674l-1.483,2.207A.606.606,0,0,1,1816.139,1858.772Zm114.8-1.159a.561.561,0,0,1-.059,0,.6.6,0,0,1-.543-.66l.256-2.646a.6.6,0,1,1,1.2.116l-.257,2.647A.6.6,0,0,1,1930.938,1857.613Zm-142.025-1.441a.642.642,0,0,1-.114-.011.6.6,0,0,1-.48-.707l.5-2.612a.6.6,0,0,1,1.187.227l-.5,2.612A.6.6,0,0,1,1788.913,1856.172Zm113.153-1.905a.6.6,0,0,1-.578-.431l-.764-2.547a.6.6,0,0,1,1.158-.347l.763,2.547a.6.6,0,0,1-.405.752A.613.613,0,0,1,1902.066,1854.267Zm-82.826-.109a.605.605,0,0,1-.5-.942l1.484-2.206a.6.6,0,1,1,1,.674l-1.484,2.207A.6.6,0,0,1,1819.24,1854.158Zm112.233-2.079-.058,0a.6.6,0,0,1-.544-.659l.257-2.647a.6.6,0,1,1,1.2.117l-.256,2.646A.6.6,0,0,1,1931.473,1852.079Zm-141.516-1.368a.546.546,0,0,1-.114-.011.6.6,0,0,1-.48-.707l.5-2.611a.6.6,0,1,1,1.187.227l-.5,2.611A.605.605,0,0,1,1789.957,1850.711Zm32.385-1.167a.6.6,0,0,1-.5-.942l1.483-2.206a.6.6,0,1,1,1,.674l-1.483,2.207A.606.606,0,0,1,1822.342,1849.544Zm78.128-.6a.605.605,0,0,1-.579-.431l-.763-2.546a.6.6,0,1,1,1.157-.347l.764,2.546a.605.605,0,0,1-.4.753A.622.622,0,0,1,1900.47,1848.941Zm31.539-2.4a.577.577,0,0,1-.059,0,.6.6,0,0,1-.543-.66l.256-2.646a.6.6,0,1,1,1.2.116l-.256,2.646A.6.6,0,0,1,1932.009,1846.546Zm-141.008-1.3a.653.653,0,0,1-.115-.011.605.605,0,0,1-.48-.707l.5-2.612a.6.6,0,0,1,1.188.227l-.5,2.612A.6.6,0,0,1,1791,1845.251Zm34.442-.321a.6.6,0,0,1-.5-.941l1.483-2.207a.6.6,0,1,1,1,.674l-1.483,2.207A.605.605,0,0,1,1825.443,1844.93Zm73.43-1.314a.6.6,0,0,1-.578-.431l-.764-2.547a.6.6,0,0,1,1.158-.347l.763,2.547a.6.6,0,0,1-.405.752A.58.58,0,0,1,1898.873,1843.616Zm33.672-2.6-.059,0a.6.6,0,0,1-.543-.659l.256-2.647a.6.6,0,0,1,1.2.116l-.256,2.647A.606.606,0,0,1,1932.545,1841.012Zm-104-.7a.6.6,0,0,1-.336-.1.6.6,0,0,1-.165-.838l1.484-2.207a.6.6,0,1,1,1,.674l-1.484,2.207A.6.6,0,0,1,1828.544,1840.316Zm-36.5-.526a.649.649,0,0,1-.114-.011.6.6,0,0,1-.48-.707l.5-2.611a.6.6,0,1,1,1.187.227l-.5,2.611A.6.6,0,0,1,1792.044,1839.79Zm105.233-1.5a.605.605,0,0,1-.579-.431l-.763-2.547a.6.6,0,0,1,1.158-.347l.763,2.547a.6.6,0,0,1-.4.752A.59.59,0,0,1,1897.277,1838.291Zm-65.631-2.589a.6.6,0,0,1-.5-.941l1.483-2.207a.6.6,0,0,1,1,.674l-1.483,2.207A.606.606,0,0,1,1831.646,1835.7Zm101.435-.223a.55.55,0,0,1-.059,0,.6.6,0,0,1-.544-.66l.257-2.646a.6.6,0,1,1,1.2.116l-.257,2.646A.6.6,0,0,1,1933.081,1835.479Zm-139.993-1.15a.62.62,0,0,1-.114-.01.6.6,0,0,1-.48-.707l.5-2.612a.6.6,0,0,1,1.187.227l-.5,2.611A.6.6,0,0,1,1793.088,1834.329Zm102.593-1.363a.605.605,0,0,1-.579-.431l-.763-2.547a.6.6,0,1,1,1.157-.347l.764,2.547a.605.605,0,0,1-.406.752A.612.612,0,0,1,1895.681,1832.966Zm-60.934-1.878a.6.6,0,0,1-.336-.1.6.6,0,0,1-.165-.838l1.483-2.207a.6.6,0,0,1,1,.674l-1.483,2.207A.606.606,0,0,1,1834.747,1831.088Zm98.869-1.143-.059,0a.6.6,0,0,1-.543-.659l.256-2.647a.6.6,0,0,1,1.2.116l-.256,2.647A.6.6,0,0,1,1933.616,1829.945Zm-139.484-1.076a.653.653,0,0,1-.115-.011.605.605,0,0,1-.48-.707l.5-2.611a.6.6,0,1,1,1.187.226l-.5,2.612A.6.6,0,0,1,1794.132,1828.869Zm99.952-1.229a.6.6,0,0,1-.578-.431l-.764-2.546a.6.6,0,1,1,1.158-.347l.763,2.546a.6.6,0,0,1-.4.753A.618.618,0,0,1,1894.084,1827.64Zm-56.236-1.166a.6.6,0,0,1-.336-.1.6.6,0,0,1-.165-.838l1.484-2.207a.6.6,0,0,1,1,.674l-1.484,2.207A.6.6,0,0,1,1837.848,1826.474Zm96.3-2.063c-.019,0-.039,0-.059,0a.6.6,0,0,1-.543-.66l.256-2.646a.6.6,0,1,1,1.2.116l-.256,2.647A.6.6,0,0,1,1934.152,1824.411Zm-138.977-1a.627.627,0,0,1-.114-.01.6.6,0,0,1-.48-.707l.5-2.612a.6.6,0,1,1,1.187.227l-.5,2.611A.6.6,0,0,1,1795.175,1823.408Zm97.313-1.093a.605.605,0,0,1-.579-.431l-.763-2.547a.6.6,0,1,1,1.157-.347l.764,2.547a.605.605,0,0,1-.405.753A.621.621,0,0,1,1892.488,1822.315Zm-51.538-.455a.6.6,0,0,1-.5-.941l1.483-2.207a.6.6,0,0,1,1,.674l-1.483,2.207A.606.606,0,0,1,1840.95,1821.86Zm93.738-2.982c-.02,0-.039,0-.059,0a.6.6,0,0,1-.543-.66l.256-2.646a.6.6,0,0,1,1.2.116l-.256,2.647A.606.606,0,0,1,1934.688,1818.878Zm-138.469-.93a.633.633,0,0,1-.114-.011.6.6,0,0,1-.48-.707l.5-2.612a.6.6,0,1,1,1.187.227l-.5,2.612A.606.606,0,0,1,1796.219,1817.948Zm47.832-.7a.6.6,0,0,1-.336-.1.6.6,0,0,1-.165-.838l1.483-2.207a.6.6,0,0,1,1,.674l-1.483,2.207A.6.6,0,0,1,1844.051,1817.246Zm46.84-.256a.6.6,0,0,1-.578-.431l-.764-2.547a.6.6,0,0,1,1.158-.347l.763,2.547a.6.6,0,0,1-.405.752A.58.58,0,0,1,1890.891,1816.99Zm44.333-3.645a.58.58,0,0,1-.059,0,.6.6,0,0,1-.546-.622l-1.564-.291a.6.6,0,0,1,.221-1.188l2.107.391a.606.606,0,0,1,.491.653l-.05.513A.6.6,0,0,1,1935.224,1813.345Zm-88.072-.713a.6.6,0,0,1-.5-.941l1.483-2.207a.6.6,0,0,1,1,.674l-1.483,2.207A.6.6,0,0,1,1847.152,1812.632Zm-49.889-.145a.564.564,0,0,1-.115-.011.6.6,0,0,1-.48-.707l.5-2.611a.6.6,0,0,1,1.188.227l-.5,2.611A.6.6,0,0,1,1797.263,1812.487Zm133.052-.578a.59.59,0,0,1-.111-.011l-2.614-.486a.6.6,0,1,1,.221-1.188l2.614.486a.6.6,0,0,1-.11,1.2Zm-41.02-.244a.606.606,0,0,1-.579-.431l-.763-2.547a.6.6,0,0,1,1.157-.347l.764,2.547a.6.6,0,0,1-.405.752A.623.623,0,0,1,1889.3,1811.665Zm35.554-.773a.6.6,0,0,1-.111-.01l-2.614-.486a.6.6,0,1,1,.221-1.188l2.614.486a.6.6,0,0,1-.11,1.2Zm-5.465-1.016a.721.721,0,0,1-.112-.01l-2.614-.487a.6.6,0,0,1,.221-1.188l2.614.486a.6.6,0,0,1-.109,1.2Zm-5.466-1.017a.6.6,0,0,1-.111-.01l-2.614-.486a.6.6,0,1,1,.221-1.188l2.614.486a.6.6,0,0,1-.11,1.2Zm-63.664-.841a.6.6,0,0,1-.5-.941l1.483-2.207a.6.6,0,0,1,1,.674l-1.483,2.207A.6.6,0,0,1,1850.254,1808.018Zm58.2-.175a.6.6,0,0,1-.111-.01l-2.614-.487a.6.6,0,1,1,.221-1.188l2.614.486a.6.6,0,0,1-.11,1.2Zm-110.146-.816a.65.65,0,0,1-.114-.011.6.6,0,0,1-.48-.707l.5-2.612a.6.6,0,1,1,1.187.227l-.5,2.612A.6.6,0,0,1,1798.306,1807.027Zm104.681-.2a.617.617,0,0,1-.112-.01l-2.614-.486a.6.6,0,0,1,.221-1.188l2.614.486a.6.6,0,0,1-.109,1.2Zm-15.288-.487a.6.6,0,0,1-.579-.431l-.642-2.141-2.614-.487a.6.6,0,0,1,.221-1.188l2.614.486a1.846,1.846,0,0,1,.815.437l.764,2.546a.6.6,0,0,1-.579.778Zm9.822-.529a.6.6,0,0,1-.111-.01l-2.614-.487a.6.6,0,1,1,.221-1.188l2.614.486a.6.6,0,0,1-.11,1.2Zm-5.466-1.017a.6.6,0,0,1-.111-.01l-2.614-.486a.6.6,0,1,1,.221-1.188l2.614.486a.6.6,0,0,1-.11,1.2Zm-38.7-1.388a.605.605,0,0,1-.5-.942l1.484-2.207a.6.6,0,0,1,1,.675l-1.484,2.206A.6.6,0,0,1,1853.355,1803.405Zm27.769-.645a.6.6,0,0,1-.111-.01l-2.614-.486a.6.6,0,1,1,.221-1.188l2.614.486a.6.6,0,0,1-.11,1.2Zm-5.466-1.016a.6.6,0,0,1-.111-.01l-2.614-.486a.6.6,0,1,1,.221-1.189l2.614.486a.6.6,0,0,1-.11,1.2Zm-76.308-.178a.556.556,0,0,1-.114-.011.6.6,0,0,1-.48-.707l.5-2.611a.6.6,0,1,1,1.187.227l-.5,2.611A.6.6,0,0,1,1799.35,1801.566Zm86.752-.552a.6.6,0,0,1-.578-.431l-.764-2.547a.6.6,0,0,1,1.158-.347l.763,2.547a.6.6,0,0,1-.405.752A.584.584,0,0,1,1886.1,1801.014Zm-15.909-.287a.616.616,0,0,1-.112-.01l-2.614-.486a.6.6,0,0,1,.221-1.188l2.614.486a.6.6,0,0,1-.109,1.2Zm-5.466-1.016a.6.6,0,0,1-.111-.01l-2.614-.486a.6.6,0,1,1,.221-1.189l2.614.486a.6.6,0,0,1-.11,1.2Zm-8.27-.92a.6.6,0,0,1-.5-.942l.095-.142a.6.6,0,0,1,.466-.694l.922-1.371a.6.6,0,0,1,1,.674l-.6.9,1.531.285a.6.6,0,1,1-.221,1.188l-2.044-.38-.147.219A.6.6,0,0,1,1856.457,1798.791Zm-2.662-1.113a.605.605,0,0,1-.111-.01l-2.614-.486a.6.6,0,0,1,.221-1.189l2.614.486a.6.6,0,0,1-.11,1.2Zm-5.465-1.017a.6.6,0,0,1-.111-.01l-2.614-.486a.6.6,0,1,1,.221-1.188l2.614.486a.6.6,0,0,1-.11,1.2Zm-47.936-.555a.621.621,0,0,1-.114-.011.605.605,0,0,1-.481-.707l.5-2.612a.6.6,0,1,1,1.187.227l-.5,2.612A.606.606,0,0,1,1800.394,1796.106Zm84.112-.417a.605.605,0,0,1-.579-.431l-.763-2.547a.6.6,0,1,1,1.157-.347l.764,2.547a.6.6,0,0,1-.406.752A.574.574,0,0,1,1884.506,1795.689Zm-41.642-.044a.6.6,0,0,1-.111-.01l-2.614-.486a.6.6,0,0,1,.221-1.189l2.614.487a.6.6,0,0,1-.11,1.2Zm-5.466-1.016a.618.618,0,0,1-.111-.011l-2.614-.486a.6.6,0,0,1,.221-1.188l2.614.486a.6.6,0,0,1-.11,1.2Zm22.16-.452a.6.6,0,0,1-.5-.942l1.483-2.207a.6.6,0,1,1,1,.675l-1.483,2.206A.6.6,0,0,1,1859.558,1794.177Zm-27.625-.565a.6.6,0,0,1-.111-.01l-2.614-.486a.6.6,0,0,1,.22-1.189l2.614.487a.6.6,0,0,1-.109,1.2Zm-5.466-1.016a.591.591,0,0,1-.111-.011l-2.614-.486a.6.6,0,1,1,.221-1.188l2.614.486a.6.6,0,0,1-.11,1.2Zm-5.466-1.017a.6.6,0,0,1-.111-.01l-2.614-.486a.6.6,0,0,1,.221-1.189l2.614.486a.6.6,0,0,1-.11,1.2Zm-19.564-.934a.651.651,0,0,1-.114-.011.6.6,0,0,1-.48-.707l.5-2.611a.6.6,0,0,1,.707-.48l.024,0,.027,0,2.614.486a.6.6,0,1,1-.221,1.188l-2.077-.386-.386,2.021A.6.6,0,0,1,1801.437,1790.645Zm14.1-.082a.621.621,0,0,1-.112-.011l-2.614-.486a.6.6,0,0,1,.221-1.188l2.614.486a.6.6,0,0,1-.109,1.2Zm67.373-.2a.6.6,0,0,1-.578-.431l-.764-2.547a.6.6,0,0,1,1.158-.347l.763,2.547a.6.6,0,0,1-.405.752A.618.618,0,0,1,1882.909,1790.364Zm-20.25-.8a.605.605,0,0,1-.5-.942l1.484-2.206a.6.6,0,1,1,1,.674l-1.484,2.206A.6.6,0,0,1,1862.659,1789.563Zm-52.589-.017a.6.6,0,0,1-.111-.01l-2.614-.486a.6.6,0,1,1,.221-1.189l2.614.487a.6.6,0,0,1-.11,1.2Zm71.243-4.508a.605.605,0,0,1-.579-.431l-.763-2.546a.6.6,0,1,1,1.157-.347l.764,2.546a.6.6,0,0,1-.4.753A.618.618,0,0,1,1881.313,1785.038Zm-15.552-.089a.6.6,0,0,1-.5-.942l1.483-2.206a.6.6,0,1,1,1,.674l-1.483,2.206A.6.6,0,0,1,1865.761,1784.949Zm3.1-4.614a.6.6,0,0,1-.5-.942l1.483-2.206a.6.6,0,1,1,1,.674l-1.483,2.206A.6.6,0,0,1,1868.862,1780.335Zm10.854-.622a.6.6,0,0,1-.578-.431l-.764-2.547a.6.6,0,0,1,1.158-.347l.763,2.547a.6.6,0,0,1-.405.752A.584.584,0,0,1,1879.716,1779.713Zm-7.753-3.992a.6.6,0,0,1-.5-.942l1.484-2.206a.6.6,0,1,1,1,.674l-1.484,2.207A.6.6,0,0,1,1871.963,1775.721Zm6.157-1.333a.6.6,0,0,1-.578-.431l-.764-2.547a.6.6,0,0,1,1.158-.347l.763,2.547a.6.6,0,0,1-.405.752A.584.584,0,0,1,1878.12,1774.388Zm-3.055-3.281a.6.6,0,0,1-.5-.942l1.432-2.131a.605.605,0,0,1,1.081.164l.026.087a.6.6,0,0,1-.294.706l-1.242,1.849A.606.606,0,0,1,1875.065,1771.107Z" fill="url(#linear-gradient-2)"/>
      <path id="Trazado_150616" data-name="Trazado 150616" d="M1924.135,1927.879h-.048l-2.651-.208a.6.6,0,1,1,.095-1.2l2.65.207a.6.6,0,0,1-.046,1.206Zm-5.543-.433-.047,0-2.651-.207a.6.6,0,0,1,.094-1.205l2.651.207a.6.6,0,0,1-.047,1.207Zm-5.542-.433-.048,0-2.651-.208a.6.6,0,1,1,.1-1.2l2.65.207a.6.6,0,0,1-.046,1.207Zm-5.542-.434a.4.4,0,0,1-.048,0l-2.651-.207a.6.6,0,0,1,.094-1.2l2.651.208a.6.6,0,0,1-.046,1.206Zm-5.543-.433-.048,0-2.65-.207a.6.6,0,1,1,.094-1.2l2.65.207a.6.6,0,0,1-.046,1.207Zm-5.542-.434h-.048l-2.651-.208a.6.6,0,0,1,.094-1.205l2.651.208a.6.6,0,0,1-.046,1.206Zm-5.543-.433-.048,0-2.65-.207a.6.6,0,1,1,.094-1.2l2.65.207a.6.6,0,0,1-.046,1.207Zm-5.542-.433-.048,0-2.651-.208a.6.6,0,1,1,.094-1.2l2.651.207a.6.6,0,0,1-.046,1.207Zm-5.543-.434a.4.4,0,0,1-.048,0l-2.65-.207a.6.6,0,1,1,.094-1.2l2.651.207a.6.6,0,0,1-.047,1.207Zm-5.542-.433-.048,0-2.651-.207a.6.6,0,0,1,.094-1.205l2.651.207a.6.6,0,0,1-.046,1.207Zm-5.543-.434a.379.379,0,0,1-.048,0l-2.65-.207a.6.6,0,1,1,.094-1.205l2.651.208a.6.6,0,0,1-.047,1.206Zm-5.542-.433-.048,0-2.651-.207a.6.6,0,0,1,.094-1.2l2.651.207a.6.6,0,0,1-.046,1.207Zm-5.543-.434h-.048l-2.65-.208a.6.6,0,1,1,.094-1.2l2.651.208a.6.6,0,0,1-.047,1.206Zm-5.542-.433-.048,0-2.651-.207a.6.6,0,0,1,.094-1.2l2.651.207a.6.6,0,0,1-.046,1.207Zm-5.543-.433-.047,0-2.651-.208a.6.6,0,1,1,.094-1.2l2.651.207a.6.6,0,0,1-.047,1.207Zm-5.542-.434a.373.373,0,0,1-.048,0l-2.651-.207a.6.6,0,0,1,.094-1.2l2.651.208a.6.6,0,0,1-.046,1.206Zm-5.543-.433-.047,0-2.651-.207a.6.6,0,1,1,.094-1.2l2.651.207a.6.6,0,0,1-.047,1.207Zm-5.542-.434a.394.394,0,0,1-.048,0l-2.651-.207a.6.6,0,0,1,.095-1.2l2.65.208a.6.6,0,0,1-.046,1.206Zm-5.543-.433-.047,0-2.651-.207a.6.6,0,0,1,.094-1.205l2.651.207a.6.6,0,0,1-.047,1.207Zm-5.542-.434h-.048l-2.651-.208a.6.6,0,1,1,.095-1.2l2.65.207a.6.6,0,0,1-.046,1.206Zm-5.543-.433-.047,0-2.651-.207a.6.6,0,0,1,.094-1.2l2.651.207a.6.6,0,0,1-.047,1.207Zm-5.542-.433-.048,0-2.651-.207a.6.6,0,0,1,.1-1.2l2.65.207a.6.6,0,0,1-.046,1.207Zm-5.543-.434a.387.387,0,0,1-.047,0l-2.651-.207a.6.6,0,0,1,.094-1.2l2.651.208a.6.6,0,0,1-.047,1.206Zm-5.542-.433-.048,0-2.651-.207a.6.6,0,0,1,.095-1.205l2.65.207a.6.6,0,0,1-.046,1.207Zm-5.543-.434h-.047l-2.651-.208a.6.6,0,0,1,.094-1.2l2.651.207a.6.6,0,0,1-.047,1.206Zm-5.542-.433-.048,0-2.65-.207a.6.6,0,1,1,.094-1.2l2.65.207a.6.6,0,0,1-.046,1.207Zm-5.543-.433-.047,0-2.63-.206a.6.6,0,0,1,.094-1.2l2.63.206a.6.6,0,0,1-.047,1.207Z" fill="url(#linear-gradient-2)"/>
      <path id="Trazado_150617" data-name="Trazado 150617" d="M1946.567,1868.877l-.05,0-2.65-.215a.6.6,0,0,1,.1-1.205l2.65.215a.6.6,0,0,1-.048,1.207Zm-5.541-.45-.05,0-2.65-.215a.6.6,0,0,1,.1-1.2l2.65.215a.6.6,0,0,1-.048,1.207Zm-5.541-.45-.05,0-2.65-.215a.6.6,0,0,1,.1-1.2l2.65.215a.6.6,0,0,1-.048,1.207Zm-5.541-.45a.427.427,0,0,1-.05,0l-2.65-.215a.6.6,0,1,1,.1-1.2l2.65.215a.6.6,0,0,1-.048,1.206Zm-5.542-.45a.386.386,0,0,1-.049,0l-2.65-.215a.6.6,0,1,1,.1-1.2l2.651.215a.6.6,0,0,1-.049,1.206Zm-5.541-.449-.049,0-2.65-.216a.6.6,0,1,1,.1-1.2l2.65.215a.6.6,0,0,1-.048,1.207Zm-5.541-.45-.049,0-2.651-.215a.6.6,0,0,1,.1-1.205l2.65.215a.6.6,0,0,1-.048,1.207Zm-5.541-.45-.05,0-2.65-.215a.6.6,0,0,1,.1-1.2l2.65.215a.6.6,0,0,1-.048,1.207Zm-5.541-.45-.05,0-2.65-.215a.6.6,0,0,1,.1-1.205l2.65.216a.6.6,0,0,1-.048,1.206Zm-5.541-.45a.429.429,0,0,1-.05,0l-2.65-.215a.6.6,0,1,1,.1-1.2l2.65.215a.6.6,0,0,1-.048,1.206Zm-5.542-.45a.4.4,0,0,1-.049,0l-2.65-.215a.6.6,0,1,1,.1-1.2l2.651.215a.6.6,0,0,1-.049,1.206Zm-5.541-.449-.049,0-2.65-.216a.6.6,0,1,1,.1-1.2l2.65.215a.6.6,0,0,1-.048,1.207Zm-5.541-.45-.05,0-2.65-.215a.6.6,0,0,1,.1-1.2l2.65.215a.6.6,0,0,1-.048,1.207Zm-5.541-.45-.05,0-2.65-.215a.6.6,0,0,1,.1-1.2l2.65.215a.6.6,0,0,1-.048,1.207Zm-5.541-.45-.05,0-2.65-.215a.6.6,0,0,1,.1-1.205l2.65.215a.6.6,0,0,1-.048,1.207Zm-5.542-.45a.394.394,0,0,1-.049,0l-2.65-.215a.6.6,0,1,1,.1-1.2l2.65.216a.6.6,0,0,1-.049,1.206Zm-5.541-.45a.41.41,0,0,1-.049,0l-2.65-.215a.6.6,0,1,1,.1-1.2l2.651.215a.6.6,0,0,1-.049,1.206Zm-5.541-.45a.41.41,0,0,1-.049,0l-2.65-.215a.6.6,0,1,1,.1-1.2l2.65.215a.6.6,0,0,1-.048,1.206Zm-5.541-.449-.05,0-2.65-.215a.6.6,0,0,1,.1-1.2l2.65.215a.6.6,0,0,1-.048,1.207Zm-5.541-.45-.05,0-2.65-.215a.6.6,0,0,1,.1-1.205l2.65.215a.6.6,0,0,1-.048,1.207Zm-5.541-.45-.05,0-2.65-.215a.6.6,0,0,1,.1-1.2l2.65.215a.6.6,0,0,1-.048,1.207Zm-5.541-.45a.4.4,0,0,1-.05,0l-2.65-.215a.6.6,0,1,1,.1-1.2l2.65.215a.6.6,0,0,1-.048,1.206Zm-5.542-.45a.41.41,0,0,1-.049,0l-2.65-.215a.6.6,0,1,1,.1-1.2l2.651.215a.6.6,0,0,1-.049,1.206Zm-5.541-.449-.049,0-2.651-.216a.6.6,0,1,1,.1-1.2l2.65.215a.6.6,0,0,1-.048,1.207Zm-5.541-.45-.05,0-2.65-.215a.6.6,0,0,1,.1-1.2l2.65.215a.6.6,0,0,1-.048,1.207Zm-5.541-.45-.05,0-2.65-.215a.6.6,0,0,1,.1-1.2l2.65.215a.6.6,0,0,1-.048,1.207Zm-5.541-.45-.05,0-2.65-.215a.6.6,0,0,1,.1-1.2l2.65.215a.6.6,0,0,1-.048,1.207Zm-5.541-.45a.428.428,0,0,1-.05,0l-2.65-.215a.6.6,0,1,1,.1-1.205l2.65.216a.6.6,0,0,1-.048,1.206Zm-5.542-.45a.41.41,0,0,1-.049,0l-2.65-.215a.6.6,0,1,1,.1-1.2l2.651.215a.6.6,0,0,1-.049,1.206Zm-5.541-.45a.388.388,0,0,1-.049,0l-2.65-.215a.6.6,0,1,1,.1-1.2l2.65.215a.6.6,0,0,1-.048,1.206Zm-5.541-.449-.049,0-2.651-.216a.6.6,0,1,1,.1-1.2l2.65.215a.6.6,0,0,1-.048,1.207Zm-5.541-.45-.05,0-2.65-.215a.6.6,0,0,1,.1-1.2l2.65.215a.6.6,0,0,1-.048,1.207Zm-5.541-.45-.05,0-2.65-.215a.6.6,0,0,1,.1-1.2l2.65.215a.6.6,0,0,1-.048,1.207Zm-5.541-.45a.427.427,0,0,1-.05,0l-2.65-.215a.6.6,0,1,1,.1-1.2l2.65.216a.6.6,0,0,1-.048,1.206Z" fill="url(#linear-gradient-2)"/>
    </g>
    <g id="Grupo_94141" data-name="Grupo 94141">
      <g id="Grupo_94134" data-name="Grupo 94134">
        <rect id="Rectángulo_35983" data-name="Rectángulo 35983" width="26.104" height="26.829" rx="12" transform="translate(1786.436 1770.473)" fill="url(#linear-gradient-6)"/>
        <rect id="Rectángulo_35984" data-name="Rectángulo 35984" width="21.75" height="22.721" rx="10.875" transform="translate(1788.453 1772.176)" fill="url(#linear-gradient-7)"/>
      </g>
      <g id="Grupo_94135" data-name="Grupo 94135">
        <rect id="Rectángulo_35985" data-name="Rectángulo 35985" width="26.104" height="26.829" rx="12" transform="translate(1928.194 1792.951)" fill="url(#linear-gradient-6)"/>
        <rect id="Rectángulo_35986" data-name="Rectángulo 35986" width="21.75" height="22.721" rx="10.875" transform="translate(1930.21 1794.654)" fill="url(#linear-gradient-7)"/>
      </g>
      <g id="Grupo_94136" data-name="Grupo 94136">
        <rect id="Rectángulo_35987" data-name="Rectángulo 35987" width="19.937" height="20.491" rx="9.969" transform="translate(1769.586 1905.329)" fill="url(#linear-gradient-10)"/>
        <rect id="Rectángulo_35988" data-name="Rectángulo 35988" width="16.612" height="17.354" rx="8.306" transform="translate(1771.127 1906.63)" fill="url(#linear-gradient-7)"/>
      </g>
      <g id="Grupo_94137" data-name="Grupo 94137">
        <rect id="Rectángulo_35989" data-name="Rectángulo 35989" width="19.937" height="20.491" rx="9.969" transform="translate(1916.804 1908.955)" fill="url(#linear-gradient-10)"/>
        <rect id="Rectángulo_35990" data-name="Rectángulo 35990" width="16.612" height="17.354" rx="8.306" transform="translate(1918.344 1910.255)" fill="url(#linear-gradient-7)"/>
      </g>
      <g id="Grupo_94138" data-name="Grupo 94138">
        <rect id="Rectángulo_35991" data-name="Rectángulo 35991" width="20.46" height="21.028" rx="10.23" transform="translate(1864.747 1755.246)" fill="url(#linear-gradient-10)"/>
        <rect id="Rectángulo_35992" data-name="Rectángulo 35992" width="17.047" height="17.808" rx="8.524" transform="translate(1866.328 1756.58)" fill="url(#linear-gradient-7)"/>
      </g>
      <g id="Grupo_94139" data-name="Grupo 94139">
        <rect id="Rectángulo_35993" data-name="Rectángulo 35993" width="20.46" height="21.028" rx="10.23" transform="translate(1754.169 1839.358)" fill="url(#linear-gradient-10)"/>
        <rect id="Rectángulo_35994" data-name="Rectángulo 35994" width="17.047" height="17.808" rx="8.524" transform="translate(1755.75 1840.692)" fill="url(#linear-gradient-7)"/>
      </g>
      <g id="Grupo_94140" data-name="Grupo 94140">
        <rect id="Rectángulo_35995" data-name="Rectángulo 35995" width="20.46" height="21.028" rx="10.23" transform="translate(1935.371 1854.396)" fill="url(#linear-gradient-10)"/>
        <rect id="Rectángulo_35996" data-name="Rectángulo 35996" width="17.047" height="17.808" rx="8.524" transform="translate(1936.952 1855.731)" fill="url(#linear-gradient-7)"/>
      </g>
    </g>
    <g id="Grupo_94142" data-name="Grupo 94142">
      <path id="Trazado_150618" data-name="Trazado 150618" d="M1780.785,1858.572c.727,13.295,8.091,90.476,81.138,96.218,0,0,8.12-52.123-79.515-97.291A1.121,1.121,0,0,0,1780.785,1858.572Z" fill="url(#linear-gradient-20)"/>
      <path id="Trazado_150619" data-name="Trazado 150619" d="M1789.624,1868.66c1.76,4.082,3.693,8.1,5.7,12.069s4.122,7.891,6.326,11.758a236.855,236.855,0,0,0,14.437,22.437,153.657,153.657,0,0,0,17.392,20.167c1.6,1.543,3.253,3.021,4.943,4.457s3.433,2.808,5.225,4.111a70.771,70.771,0,0,0,11.368,6.821h0a.484.484,0,0,1-.415.874l0,0a71.669,71.669,0,0,1-11.484-6.97q-2.706-1.989-5.254-4.178c-1.7-1.457-3.359-2.956-4.958-4.518a154.339,154.339,0,0,1-17.374-20.358,237.4,237.4,0,0,1-14.359-22.572q-3.282-5.829-6.276-11.813c-1.992-3.99-3.9-8.016-5.652-12.126a.2.2,0,1,1,.376-.161Z" fill="#fff" opacity="0.6"/>
    </g>
    <g id="Grupo_94143" data-name="Grupo 94143">
      <path id="Trazado_150620" data-name="Trazado 150620" d="M1946.9,1862.228c.478,11.464.536,78.29-62.163,89.608,0,0-11.363-43.984,60.669-90.386A.971.971,0,0,1,1946.9,1862.228Z" fill="url(#linear-gradient-21)"/>
      <path id="Trazado_150621" data-name="Trazado 150621" d="M1940.459,1871.766c-1.185,3.6-2.51,7.137-3.889,10.658s-2.85,7.005-4.385,10.461-3.153,6.876-4.848,10.257-3.458,6.731-5.339,10.014a160.568,160.568,0,0,1-12.493,18.954l-.43.565-.447.553-.9,1.1-.9,1.1c-.3.368-.618.719-.926,1.079-.625.713-1.235,1.44-1.872,2.142l-1.942,2.081a85.844,85.844,0,0,1-8.418,7.673.483.483,0,1,1-.6-.758l0,0,.005,0a84.837,84.837,0,0,0,8.364-7.532l1.937-2.05c.636-.692,1.246-1.409,1.87-2.113.308-.355.627-.7.925-1.065l.9-1.091.9-1.091.447-.546.431-.559a160.154,160.154,0,0,0,12.548-18.787c1.9-3.26,3.668-6.591,5.384-9.95s3.348-6.763,4.9-10.2,3.037-6.91,4.441-10.413,2.743-7.036,3.944-10.607v0a.205.205,0,0,1,.389.13Z" fill="#fff" opacity="0.6"/>
    </g>
    <g id="Grupo_94145" data-name="Grupo 94145">
      <path id="Trazado_150622" data-name="Trazado 150622" d="M1920.852,1850.443a11.362,11.362,0,0,0-6.47-9.52l-48.21-22.9a11.378,11.378,0,0,0-9.759,0l-48.21,22.9a11.362,11.362,0,0,0-6.47,9.52c-4.522,69.9,40.3,95.371,54.99,101.805a11.388,11.388,0,0,0,9.139,0C1880.554,1945.814,1925.374,1920.345,1920.852,1850.443Z" fill="url(#linear-gradient-22)"/>
      <path id="Trazado_150623" data-name="Trazado 150623" d="M1846.71,1828.145a1.156,1.156,0,0,1-.5-2.2l11.391-5.411a1.156,1.156,0,1,1,.992,2.088l-11.391,5.411A1.151,1.151,0,0,1,1846.71,1828.145Z" fill="#fff"/>
      <path id="Trazado_150624" data-name="Trazado 150624" d="M1805.419,1865.874a1.156,1.156,0,0,1-1.154-1.117c-.153-4.561-.073-9.317.239-14.135a8.583,8.583,0,0,1,4.89-7.19l32.432-15.4a1.156,1.156,0,1,1,.991,2.088l-32.431,15.4a6.275,6.275,0,0,0-3.576,5.252c-.306,4.742-.386,9.421-.235,13.907a1.155,1.155,0,0,1-1.116,1.194Z" fill="#fff"/>
      <path id="Trazado_150625" data-name="Trazado 150625" d="M1909.194,1853.172a2.842,2.842,0,0,0-1.617-2.421l-45.068-21.4a2.832,2.832,0,0,0-2.433,0l-45.068,21.4a2.842,2.842,0,0,0-1.617,2.421c-1.332,26.075,4.691,47.832,17.915,64.694a79.948,79.948,0,0,0,28.787,22.96,2.842,2.842,0,0,0,2.4,0,79.95,79.95,0,0,0,28.787-22.96C1904.5,1901,1910.526,1879.247,1909.194,1853.172Z" fill="url(#linear-gradient-23)"/>
      <g id="Grupo_94144" data-name="Grupo 94144">
        <circle id="Elipse_5085" data-name="Elipse 5085" cx="24.734" cy="24.734" r="24.734" transform="translate(1837.855 1847.6)" fill="#fff" opacity="0.32"/>
        <path id="Trazado_150626" data-name="Trazado 150626" d="M1862.357,1886.991a3.084,3.084,0,0,1-2.651-1.519l-9.4-15.849a3.156,3.156,0,0,1,1.058-4.3,3.072,3.072,0,0,1,4.245,1.073l6.526,11,8.627-17.161a3.075,3.075,0,0,1,4.16-1.371,3.153,3.153,0,0,1,1.353,4.213l-11.16,22.2a3.089,3.089,0,0,1-2.648,1.709C1862.429,1886.991,1862.393,1886.991,1862.357,1886.991Z" fill="url(#linear-gradient-24)"/>
      </g>
    </g>
    <g id="Grupo_94149" data-name="Grupo 94149">
      <g id="Grupo_94148" data-name="Grupo 94148">
        <path id="Trazado_150627" data-name="Trazado 150627" d="M1896.429,1889.373c.054.1,1.7,1.266,1.7,1.266s1.146,6.313-.956,9.421-9.268-2.426-9.268-2.426-4.03-.63-6.055-8.554c-.464-1.818,2.44-.437,5.676-.1C1891.7,1889.41,1896.429,1889.373,1896.429,1889.373Z" fill="url(#linear-gradient-25)"/>
        <path id="Trazado_150628" data-name="Trazado 150628" d="M1903.582,1909.164a14.828,14.828,0,0,0-4.5-2.093c-.6-.164-3.868.784-5.885.738-2.769-.064-5.587-1.324-7.87-.755a16.464,16.464,0,0,0-5.194,2.065c-3.207,2.281-5.09,6.534-6.238,10.747a14.685,14.685,0,0,0,4.908,3.221l.505,20.478,12.109,6.2,13.821-6.939-.495-20.012s4.388-2.044,4.71-2.787S1907.454,1911.827,1903.582,1909.164Z" fill="url(#linear-gradient-26)"/>
        <path id="Trazado_150629" data-name="Trazado 150629" d="M1909.25,1919.933s5.881,16.306-7.53,23.007c-2.785-.37-1.714-4.995-1.714-4.995s5.828-1.289,4.077-14.891A37.692,37.692,0,0,1,1909.25,1919.933Z" fill="url(#linear-gradient-27)"/>
        <path id="Trazado_150630" data-name="Trazado 150630" d="M1874.179,1919.933s-4.047,17.021,7.53,23.007c2.785-.37,1.714-4.995,1.714-4.995s-4.7-2.313-4.077-14.891A37.631,37.631,0,0,0,1874.179,1919.933Z" fill="url(#linear-gradient-28)"/>
        <path id="Rectángulo_35997" data-name="Rectángulo 35997" d="M5.05,0H21.5a5.051,5.051,0,0,1,5.051,5.051v7.831A5.051,5.051,0,0,1,21.5,17.933H5.051A5.051,5.051,0,0,1,0,12.882V5.05A5.05,5.05,0,0,1,5.05,0Z" transform="translate(1905.398 1944.085) rotate(180)" fill="url(#linear-gradient-29)"/>
        <path id="Trazado_150631" data-name="Trazado 150631" d="M1890.555,1931.009a1.621,1.621,0,0,0,1.32,1.956,1.743,1.743,0,0,0,1.978-1.468,1.656,1.656,0,0,0-1.246-2.037A1.876,1.876,0,0,0,1890.555,1931.009Z" fill="url(#linear-gradient-30)"/>
        <g id="Grupo_94146" data-name="Grupo 94146">
          <path id="Trazado_150632" data-name="Trazado 150632" d="M1867.2,1949.4c3.039-.7,10.062-.323,10.062-.323l.286.774.473,3.845a79.9,79.9,0,0,1-9.986,1.2,3.109,3.109,0,0,1-.925-.139,3.924,3.924,0,0,1-.291-.285A3.623,3.623,0,0,1,1867.2,1949.4Z" fill="url(#linear-gradient-31)"/>
          <path id="Trazado_150633" data-name="Trazado 150633" d="M1866.9,1949.478c.095-.027.2-.052.3-.076a3.623,3.623,0,0,0-.381,5.075,3.924,3.924,0,0,0,.291.285C1864.635,1953.993,1864.342,1950.2,1866.9,1949.478Z" fill="url(#linear-gradient-32)"/>
          <path id="Trazado_150634" data-name="Trazado 150634" d="M1879.278,1948.862l-1.189.051a2.291,2.291,0,0,0-1.671.864,2.824,2.824,0,0,0-.613,1.928,2.218,2.218,0,0,0,.644,1.467,1.8,1.8,0,0,0,1.391.529l1.82-.13Z" fill="url(#linear-gradient-33)"/>
        </g>
        <g id="Grupo_94147" data-name="Grupo 94147">
          <path id="Trazado_150635" data-name="Trazado 150635" d="M1919.269,1949.032c-3.055-.6-10.067-.014-10.067-.014l-.266.782-.377,3.858a79.786,79.786,0,0,0,10.012.9,3.093,3.093,0,0,0,.921-.166c.1-.094.194-.19.284-.294A3.619,3.619,0,0,0,1919.269,1949.032Z" fill="url(#linear-gradient-34)"/>
          <path id="Trazado_150636" data-name="Trazado 150636" d="M1919.572,1949.1c-.1-.024-.2-.046-.3-.067a3.619,3.619,0,0,1,.507,5.062c-.09.1-.186.2-.284.294C1921.945,1953.542,1922.143,1949.739,1919.572,1949.1Z" fill="url(#linear-gradient-35)"/>
          <path id="Trazado_150637" data-name="Trazado 150637" d="M1907.179,1948.864l1.191.014a2.271,2.271,0,0,1,1.691.812,2.8,2.8,0,0,1,.661,1.909,2.231,2.231,0,0,1-.607,1.486,1.812,1.812,0,0,1-1.377.571l-1.823-.074Z" fill="url(#linear-gradient-36)"/>
        </g>
        <path id="Trazado_150638" data-name="Trazado 150638" d="M1866.348,1937.347c1.378-3.172,4.749-3.687,7.618-2.2.049.066,18.218,9.377,34.24,13.458a17.469,17.469,0,0,0-.746,4.573q-.013.515.017,1.014c-12.287-.631-25.622-4.728-37.081-8.329A6.334,6.334,0,0,1,1866.348,1937.347Z" fill="url(#linear-gradient-37)"/>
        <path id="Trazado_150639" data-name="Trazado 150639" d="M1879.191,1953.415a10.566,10.566,0,0,0-1.034-4.95c-.021-.07-.046-.138-.069-.207.915-.283,2.1-.667,3.65-1.194a175.046,175.046,0,0,0,28.341-12.351c3.218-1.758,6.877-.58,7.907,3.228.92,3.4-1.167,6.118-4.164,7.322-10.305,4.139-25.442,7.92-34.65,8.538C1879.179,1953.673,1879.187,1953.544,1879.191,1953.415Z" fill="url(#linear-gradient-38)"/>
        <path id="Trazado_150640" data-name="Trazado 150640" d="M1899.083,1907.071a7.019,7.019,0,0,1-7.165,5.193c-6.05-.11-6.59-5.21-6.59-5.21l3.953-.846.33-4.4,5.946.44.11,4.184Z" fill="url(#linear-gradient-39)"/>
        <path id="Trazado_150641" data-name="Trazado 150641" d="M1894.986,1888.823s6.33,12.263-1.179,15.238c-5.3,2.1-8.619-8.143-7.628-10.917,1.532-4.29,2.54-3.781,2.54-3.781Z" fill="url(#linear-gradient-40)"/>
        <path id="Trazado_150642" data-name="Trazado 150642" d="M1886.179,1893.144c.018-.051.033-.1.047-.136q-.036.339-.039.7-.015-.258-.024-.519C1886.168,1893.177,1886.173,1893.159,1886.179,1893.144Z" fill="#fff"/>
        <path id="Trazado_150643" data-name="Trazado 150643" d="M1886.226,1893.008c.009-.084.019-.167.031-.248C1885.932,1893.3,1886.558,1892.038,1886.226,1893.008Z" fill="#fff"/>
        <path id="Trazado_150644" data-name="Trazado 150644" d="M1883.248,1885.53c-3.392-.771-1.038,9.722,4.013,8s7.4-2.777,8.189-1.39,2.1,7.059,2.535,4.118c.407-2.749.8-7.787-1.852-8.887-1.507-.624-2.832.729-3.87.39a5.34,5.34,0,0,0-4.089.009C1886.377,1888.808,1885.4,1886.021,1883.248,1885.53Z" fill="url(#linear-gradient-41)"/>
        <path id="Trazado_150645" data-name="Trazado 150645" d="M1896.015,1894.182s1.095-1.654,1.594.038.183,4.031-.821,2.944A4.228,4.228,0,0,1,1896.015,1894.182Z" fill="url(#linear-gradient-42)"/>
      </g>
    </g>
  </g>
</svg>
