<svg xmlns="http://www.w3.org/2000/svg" width="83.096" height="140" viewBox="0 0 83.096 140">
  <g id="Grupo_94416" data-name="Grupo 94416" transform="translate(-448 -1380)">
    <g id="Grupo_94026" data-name="Grupo 94026" transform="translate(3444 8700)">
      <g id="Grupo_90746" data-name="Grupo 90746" transform="translate(-2996 -7320)">
        <path id="Trazado_143933" data-name="Trazado 143933" d="M311.175,218.947v123.53a6.186,6.186,0,0,1-6.186,6.184H238.367a6.185,6.185,0,0,1-6.186-6.184V218.947a6.185,6.185,0,0,1,6.186-6.186h66.622A6.186,6.186,0,0,1,311.175,218.947Z" transform="translate(-230.13 -210.711)" fill="#43a3f9"/>
        <path id="Trazado_143934" data-name="Trazado 143934" d="M287.9,218.947v123.53a6.184,6.184,0,0,1-6.186,6.184H271.441a6.184,6.184,0,0,0,6.184-6.184V218.947c0-3.417-4.954-6.186-8.372-6.186H281.71A6.184,6.184,0,0,1,287.9,218.947Z" transform="translate(-206.852 -210.711)" fill="#1685fb"/>
        <path id="Trazado_143935" data-name="Trazado 143935" d="M311.174,218.947v10.091H232.181V218.947a6.184,6.184,0,0,1,6.186-6.186h66.62A6.184,6.184,0,0,1,311.174,218.947Z" transform="translate(-230.13 -210.711)" fill="#e3f4ff"/>
        <path id="Trazado_143936" data-name="Trazado 143936" d="M287.9,218.947v10.091H277.625V218.947c0-3.417-4.954-6.186-8.372-6.186H281.71A6.184,6.184,0,0,1,287.9,218.947Z" transform="translate(-206.852 -210.711)" fill="#bddff4"/>
        <path id="Trazado_143937" data-name="Trazado 143937" d="M311.174,286.362v9.9a6.184,6.184,0,0,1-6.186,6.184h-66.62a6.184,6.184,0,0,1-6.186-6.184v-9.9Z" transform="translate(-230.13 -164.497)" fill="#e3f4ff"/>
        <path id="Trazado_143938" data-name="Trazado 143938" d="M276.781,286.362h10.27v9.9a6.184,6.184,0,0,1-6.186,6.184H270.6a6.184,6.184,0,0,0,6.184-6.184Z" transform="translate(-206.008 -164.497)" fill="#bddff4"/>
        <path id="Trazado_143939" data-name="Trazado 143939" d="M259.59,249.967H243.235a2.427,2.427,0,0,1-2.426-2.427V231.184a2.427,2.427,0,0,1,2.426-2.427h16.357a2.428,2.428,0,0,1,2.426,2.427V247.54A2.428,2.428,0,0,1,259.59,249.967Z" transform="translate(-224.712 -200.667)" fill="#4e7693"/>
        <path id="Trazado_143940" data-name="Trazado 143940" d="M262.017,235.1H240.809v-3.92a2.427,2.427,0,0,1,2.426-2.427h16.357a2.428,2.428,0,0,1,2.426,2.427Z" transform="translate(-224.712 -200.667)" fill="#e3f4ff"/>
        <path id="Trazado_143941" data-name="Trazado 143941" d="M277.833,249.967H261.476a2.427,2.427,0,0,1-2.426-2.427V231.184a2.428,2.428,0,0,1,2.426-2.427h16.357a2.427,2.427,0,0,1,2.426,2.427V247.54A2.427,2.427,0,0,1,277.833,249.967Z" transform="translate(-213.259 -200.667)" fill="#27e6fc"/>
        <path id="Trazado_143942" data-name="Trazado 143942" d="M280.258,235.1H259.05v-3.92a2.428,2.428,0,0,1,2.426-2.427h16.357a2.427,2.427,0,0,1,2.426,2.427Z" transform="translate(-213.259 -200.667)" fill="#e3f4ff"/>
        <path id="Trazado_143943" data-name="Trazado 143943" d="M259.59,269.2H243.235a2.427,2.427,0,0,1-2.426-2.429V250.415a2.426,2.426,0,0,1,2.426-2.427h16.357a2.427,2.427,0,0,1,2.426,2.427v16.354A2.429,2.429,0,0,1,259.59,269.2Z" transform="translate(-224.712 -188.592)" fill="#32dfb7"/>
        <path id="Trazado_143944" data-name="Trazado 143944" d="M262.017,254.334H240.809v-3.918a2.426,2.426,0,0,1,2.426-2.427h16.357a2.427,2.427,0,0,1,2.426,2.427Z" transform="translate(-224.712 -188.592)" fill="#e3f4ff"/>
        <path id="Trazado_143945" data-name="Trazado 143945" d="M277.833,269.2H261.476a2.427,2.427,0,0,1-2.426-2.429V250.415a2.427,2.427,0,0,1,2.426-2.427h16.357a2.426,2.426,0,0,1,2.426,2.427v16.354A2.427,2.427,0,0,1,277.833,269.2Z" transform="translate(-213.259 -188.592)" fill="#fd6096"/>
        <path id="Trazado_143946" data-name="Trazado 143946" d="M280.258,254.334H259.05v-3.918a2.427,2.427,0,0,1,2.426-2.427h16.357a2.426,2.426,0,0,1,2.426,2.427Z" transform="translate(-213.259 -188.592)" fill="#e3f4ff"/>
        <path id="Trazado_143947" data-name="Trazado 143947" d="M259.59,288.428H243.235A2.427,2.427,0,0,1,240.809,286V269.645a2.427,2.427,0,0,1,2.426-2.427h16.357a2.428,2.428,0,0,1,2.426,2.427V286A2.428,2.428,0,0,1,259.59,288.428Z" transform="translate(-224.712 -176.518)" fill="#f01054"/>
        <path id="Trazado_143948" data-name="Trazado 143948" d="M262.017,273.564H240.809v-3.918a2.427,2.427,0,0,1,2.426-2.427h16.357a2.428,2.428,0,0,1,2.426,2.427Z" transform="translate(-224.712 -176.518)" fill="#e3f4ff"/>
        <path id="Trazado_143949" data-name="Trazado 143949" d="M277.833,288.428H261.476A2.427,2.427,0,0,1,259.05,286V269.645a2.428,2.428,0,0,1,2.426-2.427h16.357a2.427,2.427,0,0,1,2.426,2.427V286A2.427,2.427,0,0,1,277.833,288.428Z" transform="translate(-213.259 -176.518)" fill="#fdb659"/>
        <path id="Trazado_143950" data-name="Trazado 143950" d="M280.258,273.564H259.05v-3.918a2.428,2.428,0,0,1,2.426-2.427h16.357a2.427,2.427,0,0,1,2.426,2.427Z" transform="translate(-213.259 -176.518)" fill="#e3f4ff"/>
        <path id="Trazado_143951" data-name="Trazado 143951" d="M305.78,211.5H239.158a8.245,8.245,0,0,0-8.237,8.236V343.266a8.246,8.246,0,0,0,8.237,8.236h11.384a2.051,2.051,0,1,0,0-4.1H239.158a4.139,4.139,0,0,1-4.135-4.133v-7.85h74.89v7.85a4.138,4.138,0,0,1-4.133,4.133H259.474a2.051,2.051,0,1,0,0,4.1H305.78a8.246,8.246,0,0,0,8.236-8.236V299.775a2.051,2.051,0,0,0-4.1,0v31.541h-74.89V231.88h74.89V260.9a2.051,2.051,0,0,0,4.1,0V219.738A8.243,8.243,0,0,0,305.78,211.5Zm-70.757,16.276v-8.04a4.141,4.141,0,0,1,4.135-4.135H305.78a4.141,4.141,0,0,1,4.135,4.135v8.04Z" transform="translate(-230.921 -211.502)"/>
        <path id="Trazado_143952" data-name="Trazado 143952" d="M281.5,246.075a2.051,2.051,0,0,0-2.051,2.05v21.01a2.051,2.051,0,0,0,4.1,0v-21.01A2.052,2.052,0,0,0,281.5,246.075Z" transform="translate(-200.452 -189.793)"/>
        <path id="Trazado_143953" data-name="Trazado 143953" d="M261.326,216.5H250.937a2.051,2.051,0,1,0,0,4.1h10.389a2.051,2.051,0,0,0,0-4.1Z" transform="translate(-219.642 -208.363)"/>
        <path id="Trazado_143954" data-name="Trazado 143954" d="M264.06,216.5h-1.367a2.051,2.051,0,0,0,0,4.1h1.367a2.051,2.051,0,1,0,0-4.1Z" transform="translate(-212.258 -208.363)"/>
        <path id="Trazado_143955" data-name="Trazado 143955" d="M264.86,231.975a4.481,4.481,0,0,0-4.477-4.477H244.026a4.482,4.482,0,0,0-4.477,4.477V248.33a4.482,4.482,0,0,0,4.477,4.477h16.357a4.481,4.481,0,0,0,4.477-4.477Zm-20.834-.376h16.357a.377.377,0,0,1,.376.376v1.869H243.65v-1.869A.377.377,0,0,1,244.026,231.6Zm16.356,17.108H244.026a.377.377,0,0,1-.376-.376V237.944h17.109V248.33A.378.378,0,0,1,260.381,248.706Z" transform="translate(-225.503 -201.458)"/>
        <path id="Trazado_143956" data-name="Trazado 143956" d="M283.1,231.975a4.482,4.482,0,0,0-4.477-4.477H262.267a4.481,4.481,0,0,0-4.477,4.477V248.33a4.481,4.481,0,0,0,4.477,4.477h16.357a4.482,4.482,0,0,0,4.477-4.477Zm-20.834-.376h16.357a.377.377,0,0,1,.376.376v1.869H261.891v-1.869A.377.377,0,0,1,262.267,231.6Zm16.357,17.108H262.267a.377.377,0,0,1-.376-.376V237.944H279V248.33A.377.377,0,0,1,278.624,248.706Z" transform="translate(-214.05 -201.458)"/>
        <path id="Trazado_143957" data-name="Trazado 143957" d="M264.86,251.206a4.483,4.483,0,0,0-4.477-4.478H244.026a4.483,4.483,0,0,0-4.477,4.478V267.56a4.483,4.483,0,0,0,4.477,4.478h16.357a4.483,4.483,0,0,0,4.477-4.478Zm-20.834-.376h16.357a.376.376,0,0,1,.376.376v1.867H243.65v-1.867A.376.376,0,0,1,244.026,250.83Zm16.356,17.106H244.026a.376.376,0,0,1-.376-.376V257.176h17.109V267.56A.377.377,0,0,1,260.381,267.936Z" transform="translate(-225.503 -189.383)"/>
        <path id="Trazado_143958" data-name="Trazado 143958" d="M283.1,251.206a4.483,4.483,0,0,0-4.477-4.478H262.267a4.483,4.483,0,0,0-4.477,4.478V267.56a4.483,4.483,0,0,0,4.477,4.478h16.357a4.483,4.483,0,0,0,4.477-4.478Zm-20.834-.376h16.357a.376.376,0,0,1,.376.376v1.867H261.891v-1.867A.376.376,0,0,1,262.267,250.83Zm16.357,17.106H262.267a.376.376,0,0,1-.376-.376V257.176H279V267.56A.376.376,0,0,1,278.624,267.936Z" transform="translate(-214.05 -189.383)"/>
        <path id="Trazado_143959" data-name="Trazado 143959" d="M260.381,265.959H244.026a4.483,4.483,0,0,0-4.477,4.477v16.356a4.483,4.483,0,0,0,4.477,4.478h16.357a4.483,4.483,0,0,0,4.477-4.478V270.436A4.483,4.483,0,0,0,260.381,265.959Zm-16.356,4.1h16.357a.377.377,0,0,1,.376.376V272.3H243.65v-1.869A.377.377,0,0,1,244.026,270.06Zm16.356,17.108H244.026a.376.376,0,0,1-.376-.376V276.407h17.109v10.384A.377.377,0,0,1,260.381,287.167Z" transform="translate(-225.503 -177.308)"/>
        <path id="Trazado_143960" data-name="Trazado 143960" d="M278.624,265.959H262.267a4.483,4.483,0,0,0-4.477,4.477v16.356a4.483,4.483,0,0,0,4.477,4.478h16.357a4.483,4.483,0,0,0,4.477-4.478V270.436A4.483,4.483,0,0,0,278.624,265.959Zm-16.357,4.1h16.357a.377.377,0,0,1,.376.376V272.3H261.891v-1.869A.377.377,0,0,1,262.267,270.06Zm16.357,17.108H262.267a.376.376,0,0,1-.376-.376V276.407H279v10.384A.376.376,0,0,1,278.624,287.167Z" transform="translate(-214.05 -177.308)"/>
      </g>
    </g>
  </g>
</svg>
