<svg xmlns="http://www.w3.org/2000/svg" width="140" height="140" viewBox="0 0 140 140">
  <g id="Grupo_94045" data-name="Grupo 94045" transform="translate(-213 -213)">
    <circle id="Elipse_5024" data-name="Elipse 5024" cx="4.516" cy="4.516" r="4.516" transform="translate(231.065 314.613)" fill="#ff826e"/>
    <circle id="Elipse_5025" data-name="Elipse 5025" cx="4.516" cy="4.516" r="4.516" transform="translate(334.935 242.355)" fill="#ff826e"/>
    <path id="Trazado_143961" data-name="Trazado 143961" d="M248.259,275.4v15.377H234.71l-1.535-6.119c-.226-.091-.453-.158-.677-.272l-5.375,3.253-9.6-9.6,3.253-5.375c-.114-.225-.181-.451-.272-.677l-6.119-1.535V256.9l6.119-1.537c.091-.225.158-.451.272-.677l-3.253-5.374,9.6-9.6,5.375,3.251c.225-.112.451-.181.677-.27l1.535-6.119h13.549v15.377a13.548,13.548,0,1,0,0,23.439Z" transform="translate(0.871 14.807)" fill="#ffc729"/>
    <path id="Trazado_143962" data-name="Trazado 143962" d="M311.968,286.516v9.033a9.03,9.03,0,0,1-9.033,9.032H244.226a9.029,9.029,0,0,1-9.032-9.032v-9.033Z" transform="translate(13.936 46.161)" fill="#aab2bd"/>
    <path id="Trazado_143963" data-name="Trazado 143963" d="M311.968,223.419v9.033H235.194v-9.033a9.029,9.029,0,0,1,9.032-9.032h58.709A9.03,9.03,0,0,1,311.968,223.419Z" transform="translate(13.936 0.871)" fill="#aab2bd"/>
    <path id="Trazado_143964" data-name="Trazado 143964" d="M235.194,225.484h76.774v99.354H235.194Z" transform="translate(13.936 7.839)" fill="#69d6f4"/>
    <path id="Trazado_143965" data-name="Trazado 143965" d="M240.742,231.032h58.709v81.291H240.742Z" transform="translate(17.419 11.322)" fill="#ffeaa7"/>
    <path id="Trazado_143966" data-name="Trazado 143966" d="M246.29,236.581h40.646v27.1H246.29Z" transform="translate(20.903 14.807)" fill="#ff826e"/>
    <circle id="Elipse_5026" data-name="Elipse 5026" cx="29.355" cy="29.355" r="29.355" transform="translate(292.032 255.903)" fill="#e6e9ed"/>
    <path id="Trazado_143967" data-name="Trazado 143967" d="M292.807,294.238a30.291,30.291,0,0,1-9.033,0,29.267,29.267,0,0,1-18.063-10.274V281.3a9.053,9.053,0,0,1,6.842-8.761l11.221-2.8v-3.5a9.026,9.026,0,0,1-4.516-7.79v-4.042c0-4.765,3.477-9.054,8.219-9.461a9.022,9.022,0,0,1,9.846,8.988v4.516a9.026,9.026,0,0,1-4.516,7.79v3.5l11.223,2.8a9.053,9.053,0,0,1,6.842,8.761v2.665a29.275,29.275,0,0,1-18.065,10.274Z" transform="translate(33.097 20.036)" fill="#b4dd7f"/>
    <path id="Trazado_143968" data-name="Trazado 143968" d="M353,285.258a31.654,31.654,0,0,0-24.839-30.863v-30.1A11.3,11.3,0,0,0,316.87,213H258.161a11.3,11.3,0,0,0-11.291,11.291V249.13H233.818l-1.363,5.455-4.819-2.893-12.076,12.069,2.893,4.823L213,269.946v17.075l5.455,1.363-2.894,4.823,12.074,12.071,4.819-2.893,1.364,5.453H246.87V341.71A11.3,11.3,0,0,0,258.161,353H316.87a11.3,11.3,0,0,0,11.291-11.29V316.121A31.653,31.653,0,0,0,353,285.258Zm-4.516,0a26.907,26.907,0,0,1-2.947,12.226,11.269,11.269,0,0,0-7.863-7.093l-9.513-2.38v-.54a11.3,11.3,0,0,0,4.516-8.984V273.97a11.291,11.291,0,0,0-12.292-11.247A11.615,11.615,0,0,0,310.1,274.436v4.049a11.3,11.3,0,0,0,4.516,8.984v.54l-9.512,2.38a11.258,11.258,0,0,0-7.863,7.091,27.084,27.084,0,1,1,51.247-12.222Zm-33.872-30.863a31.473,31.473,0,0,0-4.516,1.371V249.13H264.935v31.612h25.2a31.282,31.282,0,0,0-.361,4.516,31.654,31.654,0,0,0,24.839,30.864v5.266H260.419V244.612h54.193Zm-23.505,21.832H269.451V253.646h36.13v4.276A31.714,31.714,0,0,0,291.107,276.226Zm-32.946-58.71H316.87a6.783,6.783,0,0,1,6.775,6.774v6.775H251.388V224.29A6.782,6.782,0,0,1,258.161,217.516ZM246.87,288.808a11.291,11.291,0,1,1,0-20.648Zm-9.527,14.514-1.1-4.4-.459-1.208-2.579-1.047-4.872,2.925-7.086-7.088,2.927-4.874-1.13-2.756-5.53-1.379V273.473l5.523-1.38,1.136-2.754-2.927-4.876,7.086-7.088,4.872,2.927,2.754-1.12,1.382-5.536h9.527v9.72a15.806,15.806,0,1,0,0,30.235v9.722Zm79.527,45.161H258.161a6.782,6.782,0,0,1-6.774-6.774v-6.775h72.258v6.775A6.783,6.783,0,0,1,316.87,348.484Zm6.775-18.065H251.388V235.581h72.258V253.76c-.75-.054-1.5-.114-2.258-.114s-1.509.06-2.258.114V240.1H255.9V325.9H319.13v-9.147c.749.054,1.494.114,2.258.114s1.507-.06,2.258-.114Zm-2.258-18.065a27.019,27.019,0,0,1-20.323-9.234v-1.779a6.768,6.768,0,0,1,5.13-6.572l12.935-3.231v-6.573l-1.123-.653a6.7,6.7,0,0,1-3.394-5.828v-4.049a7.076,7.076,0,0,1,6.163-7.215,6.774,6.774,0,0,1,7.386,6.748v4.516a6.7,6.7,0,0,1-3.394,5.828l-1.122.653v6.573l12.934,3.231a6.767,6.767,0,0,1,5.131,6.572v1.779A27.021,27.021,0,0,1,321.388,312.354Z" transform="translate(0 0)"/>
    <path id="Trazado_143969" data-name="Trazado 143969" d="M264.323,218.548h4.516v4.517h-4.516Z" transform="translate(32.226 3.484)"/>
    <path id="Trazado_143970" data-name="Trazado 143970" d="M250.452,218.548h18.063v4.517H250.452Z" transform="translate(23.516 3.484)"/>
    <path id="Trazado_143971" data-name="Trazado 143971" d="M253.226,290.677h18.065v4.517H253.226Z" transform="translate(25.258 48.774)"/>
    <path id="Trazado_143972" data-name="Trazado 143972" d="M272.645,290.677h4.516v4.517h-4.516Z" transform="translate(37.452 48.774)"/>
    <path id="Trazado_143973" data-name="Trazado 143973" d="M242.129,290.677h4.516v4.517h-4.516Z" transform="translate(18.29 48.774)"/>
    <path id="Trazado_143974" data-name="Trazado 143974" d="M244.9,257.387h20.323V261.9H244.9Z" transform="translate(20.032 27.871)"/>
    <path id="Trazado_143975" data-name="Trazado 143975" d="M244.9,262.935h20.323v4.517H244.9Z" transform="translate(20.032 31.355)"/>
    <path id="Trazado_143976" data-name="Trazado 143976" d="M244.9,268.484h20.323V273H244.9Z" transform="translate(20.032 34.839)"/>
    <path id="Trazado_143977" data-name="Trazado 143977" d="M244.9,274.032h20.323v4.516H244.9Z" transform="translate(20.032 38.322)"/>
    <path id="Trazado_143978" data-name="Trazado 143978" d="M293.29,250.162a6.758,6.758,0,0,0,2.26-13.134v-18.48h-4.517v18.48a6.758,6.758,0,0,0,2.258,13.134Zm0-9.033a2.259,2.259,0,1,1-2.258,2.258A2.261,2.261,0,0,1,293.29,241.129Z" transform="translate(46.161 3.484)"/>
    <path id="Trazado_143979" data-name="Trazado 143979" d="M289.29,213h4.517v4.516H289.29Z" transform="translate(47.903 0)"/>
    <path id="Trazado_143980" data-name="Trazado 143980" d="M229.484,274.032a6.758,6.758,0,0,0-2.258,13.134v18.48h4.516v-18.48a6.758,6.758,0,0,0-2.258-13.134Zm0,9.033a2.259,2.259,0,1,1,2.258-2.258A2.261,2.261,0,0,1,229.484,283.065Z" transform="translate(6.097 38.322)"/>
    <path id="Trazado_143981" data-name="Trazado 143981" d="M225.484,296.226H230v4.516h-4.516Z" transform="translate(7.839 52.258)"/>
  </g>
</svg>
