<svg xmlns="http://www.w3.org/2000/svg" width="140" height="140" viewBox="0 0 140 140">
  <g id="Grupo_94417" data-name="Grupo 94417" transform="translate(-420 -1642)">
    <g id="mobile_setting" data-name="mobile setting" transform="translate(226.6 1448.6)">
      <path id="Trazado_146106" data-name="Trazado 146106" d="M311.89,295.156a14.086,14.086,0,0,1-.794,1.937l4.69,6.02-6.3,6.3-6.019-4.69a14.08,14.08,0,0,1-1.937.793l-.957,7.584h-8.866l-.234-1.844v-42.98l.234-1.844h8.866l.957,7.584a14.072,14.072,0,0,1,1.937.793l6.019-4.69,6.3,6.3-4.69,6.02a14.086,14.086,0,0,1,.794,1.937l7.583.956V294.2Z" transform="translate(11.593 8.633)" fill="#c0ab91"/>
      <path id="Trazado_146107" data-name="Trazado 146107" d="M313.146,294.535a14.086,14.086,0,0,1-.794,1.937l4.69,6.02-6.3,6.3-6.019-4.69a14.08,14.08,0,0,1-1.937.793l-.957,7.584h-8.866l-.957-7.584a14.01,14.01,0,0,1-1.936-.793l-6.02,4.69-3.2-3.2a49.767,49.767,0,0,0,23.544-16.45,48.806,48.806,0,0,0,8.54-17.453l4.106,4.106-4.69,6.02a14.086,14.086,0,0,1,.794,1.937l7.583.956v8.867Z" transform="translate(10.338 9.255)" fill="#b39a7c"/>
      <path id="Trazado_146108" data-name="Trazado 146108" d="M296.14,278.953a9.334,9.334,0,1,1-4.667,17.407V280.213A9.324,9.324,0,0,1,296.14,278.953Z" transform="translate(11.593 10.113)" fill="#ffde55"/>
      <path id="Trazado_146109" data-name="Trazado 146109" d="M305.878,288.2a9.322,9.322,0,0,1-17.827,3.827,9.171,9.171,0,0,0,3.827.84,9.333,9.333,0,0,0,9.334-9.333,9.167,9.167,0,0,0-.84-3.827A9.3,9.3,0,0,1,305.878,288.2Z" transform="translate(11.189 10.202)" fill="#ffcd00"/>
      <path id="Trazado_146110" data-name="Trazado 146110" d="M295.193,195.487a4.68,4.68,0,0,1,4.666,4.666v126a4.68,4.68,0,0,1-4.666,4.666h-70a4.68,4.68,0,0,1-4.666-4.666v-126a4.68,4.68,0,0,1,4.666-4.666" transform="translate(3.207 0.247)" fill="#57a4ff"/>
      <path id="Trazado_146111" data-name="Trazado 146111" d="M292.953,200.153v126a4.68,4.68,0,0,1-4.666,4.666h-9.334a4.681,4.681,0,0,0,4.667-4.666v-126a4.681,4.681,0,0,0-4.667-4.666h9.334A4.68,4.68,0,0,1,292.953,200.153Z" transform="translate(10.113 0.247)" fill="#2488ff"/>
      <rect id="Rectángulo_35822" data-name="Rectángulo 35822" width="60.667" height="37.333" rx="4.173" transform="translate(233.067 244.733)" fill="#46f8ff"/>
      <path id="Trazado_146112" data-name="Trazado 146112" d="M284.607,243.973v28a4.681,4.681,0,0,1-4.667,4.666h-9.333a4.68,4.68,0,0,0,4.666-4.666v-28a4.68,4.68,0,0,0-4.666-4.666h9.333A4.681,4.681,0,0,1,284.607,243.973Z" transform="translate(9.127 5.427)" fill="#00e7f0"/>
      <path id="Trazado_146113" data-name="Trazado 146113" d="M284.38,195.487v4.666a4.68,4.68,0,0,1-4.666,4.666h-42a4.68,4.68,0,0,1-4.666-4.666v-4.666Z" transform="translate(4.687 0.247)" fill="#ffde55"/>
      <path id="Trazado_146114" data-name="Trazado 146114" d="M280.433,195.487v4.666a4.68,4.68,0,0,1-4.666,4.666h-9.334a4.681,4.681,0,0,0,4.667-4.666v-4.666Z" transform="translate(8.633 0.247)" fill="#ffcd00"/>
      <path id="Trazado_146115" data-name="Trazado 146115" d="M209.487,227.167a9.32,9.32,0,0,0,14,8.073v13.416l-.234,1.844h-8.866l-.957-7.584a13.947,13.947,0,0,1-1.937-.794l-6.019,4.691-6.3-6.3,4.69-6.02a14.082,14.082,0,0,1-.794-1.937l-7.583-.956v-8.867l7.583-.956a14.083,14.083,0,0,1,.794-1.937l-4.69-6.02,6.3-6.3,6.019,4.69a14.079,14.079,0,0,1,1.937-.793l.957-7.584h8.866l.234,1.844v13.416a9.319,9.319,0,0,0-14,8.073Z" transform="translate(0.247 1.233)" fill="#c0ab91"/>
      <path id="Trazado_146116" data-name="Trazado 146116" d="M222.009,225.687v8.073a9.334,9.334,0,1,1,0-16.147Z" transform="translate(1.725 2.713)" fill="#ffde55"/>
      <path id="Trazado_146117" data-name="Trazado 146117" d="M251.827,253.913h28v4.667h-28Z" transform="translate(6.907 7.153)"/>
      <path id="Trazado_146118" data-name="Trazado 146118" d="M235.133,253.913h14v4.667h-14Z" transform="translate(4.933 7.153)"/>
      <path id="Trazado_146119" data-name="Trazado 146119" d="M235.133,262.26H281.8v4.666H235.133Z" transform="translate(4.933 8.14)"/>
      <path id="Trazado_146120" data-name="Trazado 146120" d="M235.133,245.567H281.8v4.666H235.133Z" transform="translate(4.933 6.167)"/>
      <path id="Trazado_146121" data-name="Trazado 146121" d="M260.173,210.093h4.667v4.667h-4.667Z" transform="translate(7.893 1.973)"/>
      <path id="Trazado_146122" data-name="Trazado 146122" d="M251.827,218.44h4.666v4.666h-4.666Z" transform="translate(6.907 2.96)"/>
      <path id="Trazado_146123" data-name="Trazado 146123" d="M256,289.387h4.666v4.666H256Z" transform="translate(7.4 11.347)"/>
      <path id="Trazado_146124" data-name="Trazado 146124" d="M247.653,297.733h4.667V302.4h-4.667Z" transform="translate(6.413 12.333)"/>
      <path id="Trazado_146125" data-name="Trazado 146125" d="M331.347,291.657l-5.6-.723,3.476-4.457a2.347,2.347,0,0,0-.187-3.08l-6.3-6.3a2.346,2.346,0,0,0-3.08-.187l-4.457,3.477-.723-5.6a2.332,2.332,0,0,0-2.31-2.053H305.4V200.4a7.021,7.021,0,0,0-7-7h-70a7.021,7.021,0,0,0-7,7v2.334h-6.766a2.332,2.332,0,0,0-2.31,2.053l-.723,5.6-4.457-3.477a2.346,2.346,0,0,0-3.08.187l-6.3,6.3a2.347,2.347,0,0,0-.187,3.08l3.477,4.457-5.6.722a2.334,2.334,0,0,0-2.053,2.31v8.867a2.332,2.332,0,0,0,2.053,2.309l5.6.724-3.477,4.457a2.347,2.347,0,0,0,.187,3.08l6.3,6.3a2.346,2.346,0,0,0,3.08.187l4.457-3.477.723,5.6a2.332,2.332,0,0,0,2.31,2.053H221.4V326.4a7.021,7.021,0,0,0,7,7h70a7.021,7.021,0,0,0,7-7v-2.334h6.766a2.332,2.332,0,0,0,2.31-2.053l.723-5.6,4.457,3.477a2.346,2.346,0,0,0,3.08-.187l6.3-6.3a2.347,2.347,0,0,0,.187-3.08l-3.476-4.457,5.6-.723a2.333,2.333,0,0,0,2.053-2.309v-8.867a2.335,2.335,0,0,0-2.053-2.31ZM221.4,234.934a6.626,6.626,0,0,1-2.334.466,7,7,0,0,1,0-14,6.626,6.626,0,0,1,2.334.466Zm0-17.944a12.986,12.986,0,0,0-2.334-.256,11.666,11.666,0,0,0,0,23.333,12.989,12.989,0,0,0,2.334-.256v9.59h-4.713l-.7-5.553a2.379,2.379,0,0,0-1.61-1.937,9.906,9.906,0,0,1-1.634-.654,2.292,2.292,0,0,0-2.427.257l-4.409,3.43-3.384-3.383,3.43-4.41a2.285,2.285,0,0,0,.257-2.427,9.9,9.9,0,0,1-.653-1.634,2.379,2.379,0,0,0-1.937-1.61l-5.554-.7V226.02l5.554-.7a2.38,2.38,0,0,0,1.937-1.61,9.9,9.9,0,0,1,.653-1.634,2.285,2.285,0,0,0-.257-2.427l-3.43-4.41,3.384-3.384,4.409,3.431a2.29,2.29,0,0,0,2.427.256,10,10,0,0,1,1.634-.653,2.379,2.379,0,0,0,1.61-1.937l.7-5.553H221.4Zm18.666-18.923h46.667V200.4a2.335,2.335,0,0,1-2.334,2.334h-42a2.335,2.335,0,0,1-2.334-2.334Zm60.667,32.667H284.4v-7a2.333,2.333,0,0,0-2.334-2.334h-14v4.666h11.667v7a2.333,2.333,0,0,0,2.333,2.334h18.667v60.666H277.4a2.335,2.335,0,0,0-2.334,2.334v11.666H263.4v4.667h14a2.335,2.335,0,0,0,2.334-2.334V300.734h21V326.4a2.335,2.335,0,0,1-2.334,2.334h-70a2.335,2.335,0,0,1-2.334-2.334V296.066H242.4v7a2.333,2.333,0,0,0,2.334,2.334h14v-4.666H247.066v-7a2.333,2.333,0,0,0-2.333-2.334H226.066V230.734H249.4a2.335,2.335,0,0,0,2.334-2.334V216.734H263.4v-4.667h-14a2.335,2.335,0,0,0-2.334,2.334v11.666h-21V200.4a2.335,2.335,0,0,1,2.334-2.334h7V200.4a7.021,7.021,0,0,0,7,7h42a7.021,7.021,0,0,0,7-7v-2.334h7a2.335,2.335,0,0,1,2.334,2.334Zm4.666,61.133a6.626,6.626,0,0,1,2.334-.466,7,7,0,1,1,0,14,6.626,6.626,0,0,1-2.334-.466Zm23.334,8.913-5.554.7a2.38,2.38,0,0,0-1.937,1.61,9.9,9.9,0,0,1-.653,1.634,2.285,2.285,0,0,0,.257,2.427l3.43,4.41-3.384,3.383-4.409-3.43a2.288,2.288,0,0,0-2.426-.257,9.9,9.9,0,0,1-1.634.654,2.378,2.378,0,0,0-1.61,1.937l-.7,5.553H305.4v-9.59a12.987,12.987,0,0,0,2.334.256,11.666,11.666,0,0,0,0-23.333,12.987,12.987,0,0,0-2.334.256V277.4h4.713l.7,5.553a2.378,2.378,0,0,0,1.61,1.937,10,10,0,0,1,1.634.653,2.285,2.285,0,0,0,2.426-.256l4.409-3.43,3.384,3.383-3.43,4.41a2.285,2.285,0,0,0-.257,2.427,9.9,9.9,0,0,1,.653,1.634,2.379,2.379,0,0,0,1.937,1.61l5.554.7Z" transform="translate(0 0)"/>
      <path id="Trazado_146126" data-name="Trazado 146126" d="M285.12,237.22H233.787a7.021,7.021,0,0,0-7,7v28a7.021,7.021,0,0,0,7,7H285.12a7.021,7.021,0,0,0,7-7v-28A7.021,7.021,0,0,0,285.12,237.22Zm2.334,35a2.334,2.334,0,0,1-2.334,2.334H233.787a2.334,2.334,0,0,1-2.334-2.334v-28a2.334,2.334,0,0,1,2.334-2.334H285.12a2.334,2.334,0,0,1,2.334,2.334Z" transform="translate(3.947 5.18)"/>
    </g>
  </g>
</svg>
