<svg xmlns="http://www.w3.org/2000/svg" width="105.296" height="105.296" viewBox="0 0 105.296 105.296">
  <g id="Grupo_94411" data-name="Grupo 94411" transform="translate(-1272 -3046)">
    <g id="Grupo_93865" data-name="Grupo 93865" transform="translate(1308 3022)">
      <g id="Grupo_93864" data-name="Grupo 93864" transform="translate(4.76 44.38)">
        <path id="Trazado_150063" data-name="Trazado 150063" d="M254.091,390.846a3.631,3.631,0,0,0-2.763-4.254v7.729a4.585,4.585,0,0,0,2.763-3.475Z" transform="translate(-231.091 -329.997)" fill="#4dd0e1"/>
        <path id="Trazado_150064" data-name="Trazado 150064" d="M382.091,390.846a3.631,3.631,0,0,0-2.763-4.254v7.729a4.585,4.585,0,0,0,2.763-3.475Z" transform="translate(-331.918 -329.997)" fill="#4dd0e1"/>
        <path id="Trazado_150065" data-name="Trazado 150065" d="M354.457,338.68a2.494,2.494,0,0,0,.664,2.422,9.271,9.271,0,0,0,1.153.747V336.3a3.288,3.288,0,0,0-1.817,2.376Z" transform="translate(-312.26 -290.385)" fill="#4dd0e1"/>
        <path id="Trazado_150066" data-name="Trazado 150066" d="M215.441,120H161.095A5.1,5.1,0,0,0,156,125.095v74.726a5.1,5.1,0,0,0,5.095,5.095h54.346a5.1,5.1,0,0,0,5.095-5.095V125.095A5.1,5.1,0,0,0,215.441,120Zm-33.966,78.123H167.888a1.7,1.7,0,1,1,0-3.4h13.587a1.7,1.7,0,0,1,0,3.4ZM169.587,173.39a5.812,5.812,0,0,1-1.906-5.725,6.561,6.561,0,0,1,5.154-5.328V160.76a1.7,1.7,0,1,1,3.4,0V162.2a8.322,8.322,0,0,1,4.064,1.838,1.7,1.7,0,0,1-2.286,2.508,4.849,4.849,0,0,0-1.773-.866v7.291c.447.17.9.34,1.335.489a6.946,6.946,0,0,1,4.779,7.948,7.9,7.9,0,0,1-6.114,6.454v1.765a1.7,1.7,0,1,1-3.4,0v-1.624a9.659,9.659,0,0,1-5.166-1.834,1.7,1.7,0,1,1,1.868-2.841,6.337,6.337,0,0,0,3.307,1.274v-9.351A15.407,15.407,0,0,1,169.587,173.39Zm11.888-17.725H167.888a1.7,1.7,0,1,1,0-3.4h13.587a1.7,1.7,0,0,1,0,3.4Zm-2.9-14.787a1.7,1.7,0,0,1,2.4,2.4l-5.095,5.095a1.7,1.7,0,0,1-2.4,0l-5.095-5.095a1.7,1.7,0,0,1,2.4-2.4l2.2,2.2v-7.789a1.7,1.7,0,1,1,3.4,0v7.789Zm30.072,57.245H195.061a1.7,1.7,0,0,1,0-3.4h13.587a1.7,1.7,0,0,1,0,3.4ZM196.76,173.39a5.812,5.812,0,0,1-1.906-5.725,6.566,6.566,0,0,1,5.154-5.328V160.76a1.7,1.7,0,1,1,3.4,0V162.2a8.306,8.306,0,0,1,4.064,1.838,1.7,1.7,0,0,1-2.286,2.508,4.881,4.881,0,0,0-1.773-.866v7.291c.447.17.9.34,1.335.489a6.946,6.946,0,0,1,4.779,7.948,7.9,7.9,0,0,1-6.114,6.454v1.765a1.7,1.7,0,0,1-3.4,0v-1.624a9.659,9.659,0,0,1-5.166-1.834,1.7,1.7,0,0,1,1.8-2.883l.064.042a6.318,6.318,0,0,0,3.307,1.272v-9.349A15.387,15.387,0,0,1,196.76,173.39Zm11.888-17.725H195.061a1.7,1.7,0,0,1,0-3.4h13.587a1.7,1.7,0,0,1,0,3.4ZM197.96,141.581a1.7,1.7,0,0,1-2.4-2.4l5.095-5.095a1.7,1.7,0,0,1,2.4,0l5.095,5.095a1.7,1.7,0,0,1-2.4,2.4l-2.2-2.2v7.788a1.7,1.7,0,0,1-3.4,0v-7.788Zm14.084-11.391H164.492a1.7,1.7,0,1,1,0-3.4h47.553a1.7,1.7,0,1,1,0,3.4Z" transform="translate(-156 -120)" fill="#4dd0e1"/>
        <path id="Trazado_150067" data-name="Trazado 150067" d="M226.457,338.68a2.494,2.494,0,0,0,.664,2.422,9.267,9.267,0,0,0,1.153.747V336.3a3.288,3.288,0,0,0-1.817,2.376Z" transform="translate(-211.433 -290.385)" fill="#4dd0e1"/>
      </g>
      <path id="Trazado_150068" data-name="Trazado 150068" d="M35.329,24H-25.81A10.2,10.2,0,0,0-36,34.19v69.631a5.1,5.1,0,0,0,5.095,5.095H26.838a5.1,5.1,0,0,0,5.095-5.095V40.983h8.492a5.1,5.1,0,0,0,5.095-5.095v-1.7A10.2,10.2,0,0,0,35.329,24Zm-6.793,79.821a1.7,1.7,0,0,1-1.7,1.7H-30.905a1.7,1.7,0,0,1-1.7-1.7V34.19A6.793,6.793,0,0,1-25.81,27.4a6.793,6.793,0,0,1,6.793,6.793v1.7a5.1,5.1,0,0,0,5.095,5.095H28.536ZM42.123,35.888a1.7,1.7,0,0,1-1.7,1.7H-13.922a1.7,1.7,0,0,1-1.7-1.7v-1.7a10.152,10.152,0,0,0-2.6-6.793H35.329a6.793,6.793,0,0,1,6.793,6.793Z"/>
      <path id="Trazado_150069" data-name="Trazado 150069" d="M20,129.7V148.38a1.7,1.7,0,0,0,1.7,1.7H36.983a1.7,1.7,0,0,0,1.7-1.7V129.7a1.7,1.7,0,0,0-1.7-1.7H21.7A1.7,1.7,0,0,0,20,129.7Zm3.4,1.7H35.285v15.285H23.4Z" transform="translate(-44.112 -81.922)"/>
      <path id="Trazado_150070" data-name="Trazado 150070" d="M133.7,155.4h16.983a1.7,1.7,0,1,0,0-3.4H133.7a1.7,1.7,0,0,0,0,3.4Z" transform="translate(-132.335 -100.827)"/>
      <path id="Trazado_150071" data-name="Trazado 150071" d="M133.7,195.4h16.983a1.7,1.7,0,1,0,0-3.4H133.7a1.7,1.7,0,1,0,0,3.4Z" transform="translate(-132.335 -132.335)"/>
      <path id="Trazado_150072" data-name="Trazado 150072" d="M37.481,263.291,23.4,277.375V257.7a1.7,1.7,0,1,0-3.4,0v23.776a1.7,1.7,0,0,0,1.7,1.7h40.76a1.7,1.7,0,1,0,0-3.4H25.8l12.883-12.883,7.291,7.291a1.7,1.7,0,0,0,2.4,0L63.659,258.9a1.7,1.7,0,0,0-2.4-2.4L47.173,270.582l-7.291-7.291a1.7,1.7,0,0,0-2.4,0Z" transform="translate(-44.112 -182.749)"/>
    </g>
  </g>
</svg>
