<svg xmlns="http://www.w3.org/2000/svg" width="74.701" height="86" viewBox="0 0 74.701 86">
  <g id="Grupo_94048" data-name="Grupo 94048" transform="translate(-1048.666 -213)">
    <g id="Grupo_89945" data-name="Grupo 89945">
      <g id="Grupo_89941" data-name="Grupo 89941">
        <rect id="Rectángulo_35197" data-name="Rectángulo 35197" width="47.926" height="83.428" rx="7.367" transform="translate(1062.423 214.286)" fill="#4dd0e1"/>
        <rect id="Rectángulo_35198" data-name="Rectángulo 35198" width="33.193" height="54.023" rx="2.21" transform="translate(1069.789 228.935)" fill="#f0f7ff"/>
        <circle id="Elipse_4536" data-name="Elipse 4536" cx="2.964" cy="2.964" r="2.964" transform="translate(1083.423 287.372)" fill="#4dd0e1"/>
        <g id="Grupo_89940" data-name="Grupo 89940">
          <g id="Grupo_89938" data-name="Grupo 89938">
            <g id="Grupo_89936" data-name="Grupo 89936">
              <rect id="Rectángulo_35199" data-name="Rectángulo 35199" width="33.193" height="54.023" rx="2.21" transform="translate(1069.79 228.934)" fill="#f0f7ff"/>
            </g>
            <g id="Grupo_89937" data-name="Grupo 89937">
              <circle id="Elipse_4537" data-name="Elipse 4537" cx="7.293" cy="7.293" r="7.293" transform="translate(1079.094 248.209)" fill="#c8cee0"/>
              <path id="Trazado_118031" data-name="Trazado 118031" d="M1097.706,282.958h-22.637v-8.847a11.315,11.315,0,0,1,11.315-11.316h0a11.316,11.316,0,0,1,11.316,11.316h0Z" fill="#c8cee0"/>
            </g>
          </g>
          <g id="Grupo_89939" data-name="Grupo 89939">
            <path id="Trazado_118032" data-name="Trazado 118032" d="M1068.5,231.145v49.6a3.5,3.5,0,0,0,3.5,3.5h28.772a3.5,3.5,0,0,0,3.5-3.5v-49.6a3.5,3.5,0,0,0-3.5-3.5H1072A3.5,3.5,0,0,0,1068.5,231.145Zm7.857,50.524v-7.558a10.029,10.029,0,0,1,20.058,0v7.558Zm10.029-20.163a6,6,0,1,1,6-6A6,6,0,0,1,1086.387,261.506Zm15.307-30.361v49.6a.921.921,0,0,1-.921.921h-1.779v-7.558a12.622,12.622,0,0,0-7.671-11.6,8.583,8.583,0,1,0-9.872,0,12.622,12.622,0,0,0-7.671,11.6v7.558H1072a.922.922,0,0,1-.921-.921v-49.6a.922.922,0,0,1,.921-.921h28.772a.921.921,0,0,1,.921.921Z"/>
          </g>
        </g>
      </g>
      <g id="Grupo_89942" data-name="Grupo 89942">
        <path id="Trazado_118033" data-name="Trazado 118033" d="M1122.079,262.173v20.782h-24.937V252.213h14.977Z" fill="#dae2f4"/>
        <path id="Trazado_118034" data-name="Trazado 118034" d="M1122.079,262.173h-9.96v-9.96Z" fill="#c8cee0"/>
      </g>
      <g id="Grupo_89943" data-name="Grupo 89943">
        <path id="Trazado_118035" data-name="Trazado 118035" d="M1049.955,238.9v20.782h24.937V228.935h-14.977Z" fill="#dae2f4"/>
        <path id="Trazado_118036" data-name="Trazado 118036" d="M1049.955,238.9h9.96v-9.96Z" fill="#c8cee0"/>
      </g>
      <g id="Grupo_89944" data-name="Grupo 89944">
        <path id="Trazado_118037" data-name="Trazado 118037" d="M1091.175,275.381l-9.555-7.575v5H1065V265h-5.157v12.959h21.775v5Z" fill="#feca2e"/>
        <path id="Trazado_118038" data-name="Trazado 118038" d="M1081.477,236.513l9.555,7.573v-4.995h16.618v7.8h5.157V233.934h-21.775v-5Z" fill="#feca2e"/>
      </g>
    </g>
    <g id="Grupo_89946" data-name="Grupo 89946">
      <path id="Trazado_118039" data-name="Trazado 118039" d="M1080.345,215.578h11.89a1.289,1.289,0,1,0,0-2.578h-11.89a1.289,1.289,0,1,0,0,2.578Z"/>
      <path id="Trazado_118040" data-name="Trazado 118040" d="M1086.385,286.083a4.253,4.253,0,1,0,4.252,4.254h0A4.257,4.257,0,0,0,1086.385,286.083Zm0,5.927a1.674,1.674,0,1,1,1.674-1.675h0A1.676,1.676,0,0,1,1086.385,292.01Z"/>
      <path id="Trazado_118041" data-name="Trazado 118041" d="M1076.951,222.849h18.871a1.289,1.289,0,0,0,0-2.578h-18.871a1.289,1.289,0,1,0,0,2.578Z"/>
      <path id="Trazado_118042" data-name="Trazado 118042" d="M1122.078,270.026a1.289,1.289,0,0,0,1.289-1.289v-6.564a1.343,1.343,0,0,0-.363-.893l-.014-.018-9.96-9.96-.014-.011a1.339,1.339,0,0,0-.9-.368h-.479v-2.741h1.168a1.289,1.289,0,0,0,1.289-1.288V233.933a1.289,1.289,0,0,0-1.289-1.289h-1.168V221.656a8.666,8.666,0,0,0-8.656-8.656h-2.615a1.289,1.289,0,1,0,0,2.578h2.615a6.084,6.084,0,0,1,6.077,6.078v10.991h-4.788v-1.5a3.5,3.5,0,0,0-3.5-3.5H1063.71v-5.989a6.085,6.085,0,0,1,6.078-6.078h2.424a1.289,1.289,0,0,0,0-2.578h-2.424a8.666,8.666,0,0,0-8.656,8.656v5.99h-1.217a1.327,1.327,0,0,0-.911.377l-9.961,9.96a1.356,1.356,0,0,0-.377.912v20.782a1.289,1.289,0,0,0,1.289,1.289h11.177v2.745h-1.287a1.289,1.289,0,0,0-1.289,1.289v12.959a1.289,1.289,0,0,0,1.289,1.289h1.287v11.1a8.666,8.666,0,0,0,8.656,8.656h33.2a8.666,8.666,0,0,0,8.656-8.656v-6.1h10.439a1.289,1.289,0,0,0,1.289-1.289V276.87a1.289,1.289,0,0,0-2.579,0v4.8H1098.43V253.5h12.4v8.67a1.29,1.29,0,0,0,1.289,1.29h8.669v5.274a1.29,1.29,0,0,0,1.29,1.289Zm-13.018-19.1h-4.788V240.382h2.089V246.9a1.29,1.29,0,0,0,1.288,1.29h1.411Zm-18.028-15.7h20.486V245.6h-2.578V239.09a1.29,1.29,0,0,0-1.29-1.289h-16.618a1.289,1.289,0,0,0-1.289,1.289v2.33l-6.188-4.907,6.188-4.908v2.328a1.289,1.289,0,0,0,1.285,1.293Zm10.662-4.082v1.5h-9.372v-2.423h8.451A.921.921,0,0,1,1101.694,231.144Zm-43.068.9v5.558h-5.558Zm-7.38,8.136h8.67a1.29,1.29,0,0,0,1.29-1.289v-8.671h12.4v28.164h-22.358Zm12.464,20.782h4.789v10.547h-2.21V265a1.29,1.29,0,0,0-1.289-1.289h-1.29Zm8.288,20.7a.923.923,0,0,1-.921-.921v-1.5h9.254v2.418Zm9.622-5h-20.486V266.289h2.579V272.8a1.289,1.289,0,0,0,1.289,1.289h16.618a1.289,1.289,0,0,0,1.289-1.289v-2.329l6.188,4.908-6.188,4.907v-2.329a1.289,1.289,0,0,0-1.289-1.289Zm27.44,7.574v6.1a6.084,6.084,0,0,1-6.077,6.078h-33.2a6.085,6.085,0,0,1-6.078-6.078v-11.1h4.789v1.5a3.5,3.5,0,0,0,3.5,3.5Zm-11.919-33.32a1.289,1.289,0,0,0-1.289,1.289v29.453h-10.53l6.654-5.275a1.291,1.291,0,0,0,.208-1.813,1.275,1.275,0,0,0-.208-.208l-9.555-7.574a1.289,1.289,0,0,0-2.09,1.01v3.707h-9.254V260.966h3.816a1.289,1.289,0,0,0,1.289-1.289V230.224h11.153l-6.659,5.278a1.289,1.289,0,0,0-.21,1.811,1.3,1.3,0,0,0,.21.21l9.556,7.574a1.289,1.289,0,0,0,2.09-1.01v-3.705h9.372v10.542Zm16.267,4.4,5.557,5.557h-5.557Z"/>
      <path id="Trazado_118043" data-name="Trazado 118043" d="M1116.362,267.877h-14.539a1.289,1.289,0,0,0,0,2.578h14.539a1.289,1.289,0,0,0,0-2.578Z"/>
      <path id="Trazado_118044" data-name="Trazado 118044" d="M1116.362,274.869h-14.539a1.29,1.29,0,0,0,0,2.579h14.539a1.29,1.29,0,0,0,0-2.579Z"/>
      <path id="Trazado_118045" data-name="Trazado 118045" d="M1101.823,263.463h5.626a1.29,1.29,0,0,0,0-2.579h-5.626a1.29,1.29,0,0,0,0,2.579Z"/>
      <path id="Trazado_118046" data-name="Trazado 118046" d="M1055.672,247.177h14.538a1.289,1.289,0,0,0,0-2.579h-14.538a1.289,1.289,0,0,0,0,2.579Z"/>
      <path id="Trazado_118047" data-name="Trazado 118047" d="M1070.21,254.169a1.29,1.29,0,0,0,0-2.579h-14.538a1.29,1.29,0,0,0,0,2.579Z"/>
      <path id="Trazado_118048" data-name="Trazado 118048" d="M1064.585,240.184h5.625a1.289,1.289,0,1,0,0-2.578h-5.625a1.289,1.289,0,0,0,0,2.578Z"/>
    </g>
  </g>
</svg>
