<svg xmlns="http://www.w3.org/2000/svg" width="60.2" height="86" viewBox="0 0 60.2 86">
  <g id="Grupo_94047" data-name="Grupo 94047" transform="translate(-225.9 -213)">
    <rect id="Rectángulo_35961" data-name="Rectángulo 35961" width="45.867" height="83.133" rx="5.733" transform="translate(227.333 214.433)" fill="#2b70a8"/>
    <path id="Trazado_150440" data-name="Trazado 150440" d="M273.2,220.167V225.9H227.333v-5.733a5.734,5.734,0,0,1,5.734-5.734h34.4A5.734,5.734,0,0,1,273.2,220.167Z" fill="#c2c5c6"/>
    <path id="Trazado_150441" data-name="Trazado 150441" d="M273.2,283.233v8.6a5.734,5.734,0,0,1-5.733,5.734h-34.4a5.734,5.734,0,0,1-5.734-5.734v-8.6Z" fill="#c2c5c6"/>
    <path id="Trazado_150442" data-name="Trazado 150442" d="M284.667,263.167v34.4H274.633A14.334,14.334,0,0,1,260.3,283.233h.029l-9.3-13.761a5.733,5.733,0,1,1,9.5-6.419l8.369,11.58h4.3v-34.4l10.792,20.236a5.731,5.731,0,0,1,.675,2.7Z" fill="#f5cbaa"/>
    <path id="Trazado_150443" data-name="Trazado 150443" d="M233.067,231.633h34.4V243.1h-34.4Z" fill="#a4d4f4"/>
    <path id="Trazado_150444" data-name="Trazado 150444" d="M258.867,248.833h8.6v5.734h-8.6Z" fill="#a4d4f4"/>
    <circle id="Elipse_5069" data-name="Elipse 5069" cx="1.433" cy="1.433" r="1.433" transform="translate(240.233 218.733)"/>
    <path id="Trazado_150445" data-name="Trazado 150445" d="M248.833,221.6h10.034a1.434,1.434,0,0,0,0-2.867H248.833a1.434,1.434,0,0,0,0,2.867Z"/>
    <path id="Trazado_150446" data-name="Trazado 150446" d="M284.667,299a1.434,1.434,0,0,0,1.433-1.433v-34.4a7.2,7.2,0,0,0-.843-3.373l-10.624-19.919V220.167A7.173,7.173,0,0,0,267.467,213h-34.4a7.174,7.174,0,0,0-7.167,7.167v71.666A7.174,7.174,0,0,0,233.067,299H273.2l-.16-.08c.529.053,1.061.08,1.593.08Zm-1.434-35.833v32.966h-8.6a12.915,12.915,0,0,1-12.9-12.628,1.432,1.432,0,0,0-.22-1.074l-9.3-13.76a4.3,4.3,0,1,1,7.125-4.815l.026.037,8.368,11.581a1.436,1.436,0,0,0,1.162.593h4.3a1.433,1.433,0,0,0,1.433-1.434V245.967l8.1,15.176A4.315,4.315,0,0,1,283.233,263.167Zm-11.466-22.934V273.2h-2.134l-7.927-10.97a7.167,7.167,0,0,0-11.863,8.045L257.63,281.8H228.767V227.333h43Zm-38.7-24.366h34.4a4.3,4.3,0,0,1,4.3,4.3v4.3h-43v-4.3A4.3,4.3,0,0,1,233.067,215.867Zm0,80.266a4.3,4.3,0,0,1-4.3-4.3v-7.166h30.168a15.766,15.766,0,0,0,6.649,11.466Z"/>
    <path id="Trazado_150447" data-name="Trazado 150447" d="M250.267,286.1a4.3,4.3,0,1,0,4.3,4.3A4.3,4.3,0,0,0,250.267,286.1Zm0,5.733A1.433,1.433,0,1,1,251.7,290.4,1.433,1.433,0,0,1,250.267,291.833Z"/>
    <path id="Trazado_150448" data-name="Trazado 150448" d="M233.067,244.533h34.4A1.433,1.433,0,0,0,268.9,243.1V231.633a1.434,1.434,0,0,0-1.433-1.433h-34.4a1.434,1.434,0,0,0-1.434,1.433V243.1A1.433,1.433,0,0,0,233.067,244.533Zm1.433-11.466h31.533v8.6H234.5Z"/>
    <path id="Trazado_150449" data-name="Trazado 150449" d="M250.267,235.933H238.8a1.434,1.434,0,0,0,0,2.867h11.467a1.434,1.434,0,0,0,0-2.867Z"/>
    <path id="Trazado_150450" data-name="Trazado 150450" d="M233.067,250.267h20.066a1.434,1.434,0,1,0,0-2.867H233.067a1.434,1.434,0,1,0,0,2.867Z"/>
    <path id="Trazado_150451" data-name="Trazado 150451" d="M253.133,253.133h-8.6a1.434,1.434,0,0,0,0,2.867h8.6a1.434,1.434,0,1,0,0-2.867Z"/>
    <path id="Trazado_150452" data-name="Trazado 150452" d="M233.067,261.733h8.6a1.433,1.433,0,1,0,0-2.866h-8.6a1.433,1.433,0,1,0,0,2.866Z"/>
    <path id="Trazado_150453" data-name="Trazado 150453" d="M233.067,267.467h8.6a1.434,1.434,0,0,0,0-2.867h-8.6a1.434,1.434,0,1,0,0,2.867Z"/>
    <circle id="Elipse_5070" data-name="Elipse 5070" cx="1.433" cy="1.433" r="1.433" transform="translate(231.633 276.067)"/>
    <circle id="Elipse_5071" data-name="Elipse 5071" cx="1.433" cy="1.433" r="1.433" transform="translate(237.367 276.067)"/>
    <circle id="Elipse_5072" data-name="Elipse 5072" cx="1.433" cy="1.433" r="1.433" transform="translate(243.1 276.067)"/>
    <path id="Trazado_150454" data-name="Trazado 150454" d="M233.067,273.2h11.466a1.434,1.434,0,1,0,0-2.867H233.067a1.434,1.434,0,1,0,0,2.867Z"/>
    <path id="Trazado_150455" data-name="Trazado 150455" d="M267.467,247.4h-8.6a1.434,1.434,0,0,0-1.434,1.433v5.734A1.434,1.434,0,0,0,258.867,256h8.6a1.434,1.434,0,0,0,1.433-1.433v-5.734A1.434,1.434,0,0,0,267.467,247.4Zm-1.434,5.733H260.3v-2.866h5.733Z"/>
    <path id="Trazado_150456" data-name="Trazado 150456" d="M233.067,256H238.8a1.434,1.434,0,0,0,0-2.867h-5.733a1.434,1.434,0,1,0,0,2.867Z"/>
  </g>
</svg>
