<svg xmlns="http://www.w3.org/2000/svg" width="329.673" height="283.64" viewBox="0 0 329.673 283.64">
  <g id="Grupo_94011" data-name="Grupo 94011" transform="translate(317.747 -154.58)">
    <path id="Trazado_141676" data-name="Trazado 141676" d="M-24.447,271.726c9.815-17.908,8.306-40.863-2.848-57.986s-31.239-28.134-52.049-29.68c-25.628-1.9-53.058,9.228-76.22-1.576a130.05,130.05,0,0,1-12.155-7.2c-8.518-6.424-50.384-40.8-105.687-3.853-51.156,34.176-20.891,89.74-16.067,97.877,7.95,13,15.531,26.622,13.8,41.341-1.659,14.087-11.642,25.859-16.177,39.339a53.537,53.537,0,0,0,7.811,48.406c8.447,11.314,21.08,19,34.054,25.047,18.856,8.793,39.6,14.785,60.493,13.593l94-.444c17.271-1.628,34.811-6.478,48.007-17.437s21.12-28.94,16.4-45.15c-3.414-11.723-12.665-21-17.39-32.287a45.389,45.389,0,0,1,.634-36.112C-42.124,293.165-31.038,283.755-24.447,271.726Z" transform="translate(6.273)" fill="#85cfea" opacity="0.59"/>
    <g id="Grupo_90094" data-name="Grupo 90094" transform="translate(-122.126 303.138)">
      <path id="Trazado_141677" data-name="Trazado 141677" d="M-72.725,298.523a12.476,12.476,0,0,0-6.385-.655,30.042,30.042,0,0,0-13.378,4.857c-9.756,6.508-15.395,18.5-26.125,23.234a2.982,2.982,0,0,1-2.4.278,2.458,2.458,0,0,1-1.194-1.94c-.408-2.7,1.264-5.2,2.324-7.714s1.222-6.029-1.152-7.37a4.9,4.9,0,0,0-3.2-.39,59.227,59.227,0,0,0,17.545-11.5,11.586,11.586,0,0,0,3.514-4.969,74.25,74.25,0,0,1-19.472,7.339c-4.95,1.1-12.043,6.01-16.453,9.536.2-.285.384-.573.581-.855a119.027,119.027,0,0,1,8-10.2,119.531,119.531,0,0,1,8.342-8.593,94.069,94.069,0,0,0,10.052-3.514,34.851,34.851,0,0,0,8.828-4.155,32.979,32.979,0,0,0,6.565-7.006q3.355-4.414,6.546-8.949a2.379,2.379,0,0,0-1.991-.079c-8.265,2.143-16.891,4.477-23.171,10.261a26.311,26.311,0,0,0-7.64,12.883q-3.727,3.489-7.151,7.285c-.963,1.069-1.9,2.163-2.824,3.266,2.561-5.018,4.423-10.75,6.346-15.545a63.778,63.778,0,0,0,3.075-11.927l1.77-9.312c-4.321,4.425-7.84,9.554-11.336,14.654-2.74,4-5.542,8.142-6.5,12.894-1.051,5.2.221,10.55,1.593,15.7-.135.184-.274.364-.407.549-2.177,3.024-4.2,6.155-6.088,9.367a36.625,36.625,0,0,0-.156-10.856c-1.12-5.213-4.569-9.889-4.662-15.221a54.181,54.181,0,0,1-.454,7.2,38.891,38.891,0,0,0-.457,13.326c.53,3.073,1.818,6.241,4.3,8.05A117.425,117.425,0,0,0-151.3,329.4q-.321.753-.631,1.509a.482.482,0,0,0,.335.589.489.489,0,0,0,.589-.335,116.18,116.18,0,0,1,5.435-11.4,11.354,11.354,0,0,0,6.762,1.757c-1.126,2.1-2.122,4.275-3.106,6.443q-3.5,7.716-7,15.43c-.647,1.425-1.587,3.063-3.151,3.144-1.767.091-2.9-1.916-3.11-3.672-.464-3.822,1.285-7.7.577-11.485a4.01,4.01,0,0,0-1.054-2.232c-1.6-1.509-4.239-.418-5.961.954-4.982,3.97-8.24,9.779-10.184,15.844s-6.067,19.648-2.336,28.321c13.191,5.673,29.4,6.874,42.1,7.732a93.446,93.446,0,0,0,13.647-.216c3.378-.414,5.052-1.783,6.141-3.514,1.627-2.587-.147-6.047-2.495-8.006s-5.311-3.25-7.119-5.714a3.476,3.476,0,0,1-.794-2c.007-1.58,1.631-2.605,3.079-3.235a42.44,42.44,0,0,1,20.155-3.367c3.679.291,7.369,1.062,11.029.6s7.438-2.543,8.539-6.066c1.367-4.374-2.059-9.062-6.288-10.829-2.706-1.13-6.233-1.89-7-4.721-.494-1.822.5-3.727,1.736-5.154,3.165-3.645,7.881-5.447,12.148-7.706,4.506-2.387,8.878-5.664,10.787-10.393S-68.06,300.584-72.725,298.523Zm-66.945,19.136c-1.457.454-3.893.989-5.593,1.536q2.508-4.55,5.409-8.865c3.113,1.856,7.051,1.421,10.634.35a22.145,22.145,0,0,0-6.349,5.722c-.037.047-.07.1-.1.146C-136.891,316.845-138,317.142-139.669,317.659Z" transform="translate(181.553 -257.885)" fill="#44cfdd" opacity="0.46"/>
      <g id="Grupo_90093" data-name="Grupo 90093" transform="translate(0)">
        <path id="Trazado_141678" data-name="Trazado 141678" d="M-103.33,262.42c-8.265,2.143-16.891,4.476-23.172,10.261a26.305,26.305,0,0,0-7.638,12.882q-3.729,3.489-7.152,7.285c-.963,1.069-1.9,2.163-2.822,3.266,2.561-5.016,4.423-10.75,6.346-15.543a63.928,63.928,0,0,0,3.075-11.928q.885-4.654,1.768-9.311c-4.32,4.423-7.838,9.553-11.334,14.654-2.74,4-5.544,8.14-6.5,12.893-1.049,5.2.223,10.551,1.594,15.7-.135.184-.275.365-.408.55q-3.263,4.535-6.088,9.367a36.628,36.628,0,0,0-.155-10.856c-1.12-5.213-4.571-9.891-4.662-15.223a54.683,54.683,0,0,1-.454,7.2,38.853,38.853,0,0,0-.457,13.326c.53,3.073,1.818,6.24,4.3,8.05a117.251,117.251,0,0,0-5.362,10.953q-.319.751-.63,1.507a.48.48,0,0,0,.335.589.489.489,0,0,0,.589-.333,116.356,116.356,0,0,1,5.433-11.4c3.045,2.052,7.131,2.173,10.672,1.11,3.713-1.113,6.969-3.353,10.157-5.559a1.8,1.8,0,0,0,.669-.669.62.62,0,0,0-.238-.824.879.879,0,0,0-.485-.008c-2.751.475-5.395,1.424-8.109,2.075-2.748.659-3.984.908-6.76,1.771-1.457.454-3.893.988-5.593,1.534q2.506-4.548,5.409-8.864c3.568,2.127,8.221,1.244,12.181-.155a59.238,59.238,0,0,0,20.981-12.856,11.6,11.6,0,0,0,3.514-4.971A74.268,74.268,0,0,1-133.8,296.23c-4.951,1.106-12.043,6.01-16.452,9.536.2-.284.384-.573.581-.855a119.221,119.221,0,0,1,8-10.194,119.246,119.246,0,0,1,8.34-8.593,94.733,94.733,0,0,0,10.054-3.514,34.87,34.87,0,0,0,8.827-4.155,32.952,32.952,0,0,0,6.566-7.007q3.355-4.412,6.546-8.947A2.374,2.374,0,0,0-103.33,262.42Z" transform="translate(186.797 -259.331)" fill="#fda31a"/>
        <g id="Grupo_90092" data-name="Grupo 90092" transform="translate(0 34.95)">
          <path id="Trazado_141679" data-name="Trazado 141679" d="M-178.3,360.505c-3.733-8.672.389-22.254,2.334-28.32s5.2-11.875,10.186-15.846c1.722-1.373,4.358-2.463,5.961-.953a4.022,4.022,0,0,1,1.054,2.231c.706,3.784-1.041,7.663-.579,11.485.213,1.757,1.344,3.762,3.112,3.672,1.563-.079,2.5-1.717,3.151-3.143q3.5-7.716,7-15.431a57.828,57.828,0,0,1,6.348-11.563c2.683-3.5,6.322-6.436,10.614-7.438a5.472,5.472,0,0,1,3.921.251c2.375,1.342,2.214,4.856,1.153,7.369s-2.733,5.018-2.324,7.715a2.454,2.454,0,0,0,1.194,1.939,2.982,2.982,0,0,0,2.4-.277c10.729-4.734,16.369-16.726,26.125-23.236A30.076,30.076,0,0,1-83.274,284.1a12.462,12.462,0,0,1,6.385.657c4.663,2.059,6.163,8.426,4.256,13.154s-6.281,8.006-10.787,10.393c-4.266,2.261-8.981,4.062-12.148,7.707-1.238,1.427-2.229,3.331-1.734,5.155.767,2.829,4.294,3.589,7,4.72,4.229,1.767,7.655,6.456,6.288,10.831-1.1,3.523-4.879,5.6-8.539,6.066s-7.351-.306-11.029-.6a42.423,42.423,0,0,0-20.155,3.368c-1.449.63-3.072,1.655-3.079,3.233a3.462,3.462,0,0,0,.794,2c1.808,2.465,4.772,3.757,7.119,5.715s4.121,5.419,2.493,8.006c-1.089,1.73-2.761,3.1-6.139,3.513a93.637,93.637,0,0,1-13.647.217c-12.708-.859-28.913-2.061-42.1-7.733" transform="translate(179.811 -283.975)" fill="#2a4c80"/>
          <path id="Trazado_141680" data-name="Trazado 141680" d="M-83.27,289.9c-5.593,4.792-11.185,9.584-16.827,14.32-.842.708-1.689,1.41-2.534,2.114.383-.767.766-1.534,1.142-2.306q.84-1.725,1.666-3.456.836-1.749,1.672-3.5t1.669-3.469q.8-1.659,1.63-3.31c.067-.132.133-.265.2-.4a.229.229,0,0,0-.406-.213q-.823,1.636-1.624,3.283-.84,1.725-1.666,3.458-.838,1.749-1.672,3.5t-1.669,3.469q-.806,1.659-1.631,3.309c-.06.119-.119.24-.18.359q-6.767,5.629-13.667,11.1c-5.755,4.537-11.6,8.957-17.58,13.2q-4.74,3.361-9.594,6.552,1.879-5.035,3.555-10.144,1.734-5.3,3.243-10.666.845-3.008,1.62-6.036c.072-.285-.374-.384-.447-.1q-1.381,5.4-2.99,10.74-1.6,5.312-3.422,10.551-1.025,2.948-2.12,5.874a.287.287,0,0,0-.016.153c-2.7,1.766-5.418,3.5-8.175,5.168q-9.258,5.62-18.95,10.478-.585-3.121-.895-6.286-.315-3.259-.33-6.535t.272-6.549q.287-3.261.868-6.487.585-3.261,1.457-6.463.108-.4.221-.8c.081-.282-.366-.38-.445-.1q-.908,3.208-1.536,6.485-.617,3.246-.943,6.541-.323,3.278-.349,6.578-.023,3.317.262,6.624t.882,6.595c.037.2.075.407.113.61-.182.091-.362.187-.543.277q-1.259.627-2.526,1.239c-.264.129-.016.512.247.386,1.042-.5,2.075-1.03,3.11-1.547a.18.18,0,0,0,.038,0,.2.2,0,0,0,.092-.061c2.262-1.133,4.513-2.288,6.741-3.483q2.338.164,4.677.313,2.293.149,4.586.289l4.544.278q2.289.14,4.578.287,2.334.149,4.667.309l.607.043a.23.23,0,0,0,.217-.24.235.235,0,0,0-.241-.217q-2.353-.164-4.71-.315-2.293-.149-4.588-.289-2.27-.141-4.543-.278-2.289-.143-4.578-.286-2.238-.145-4.474-.3,4.74-2.561,9.379-5.306c6.348-3.767,12.535-7.8,18.587-12.023q4.346-3.034,8.6-6.2a16.206,16.206,0,0,0,1.868.26c.769.081,1.539.153,2.307.227q3.323.317,6.653.579t6.661.465q3.331.206,6.668.355t6.673.24l.838.023c.294.007.269-.449-.024-.457q-3.321-.085-6.643-.226t-6.668-.339q-3.319-.2-6.632-.45t-6.624-.56q-1.3-.121-2.6-.251c-.659-.065-1.32-.133-1.976-.238q4.344-3.231,8.609-6.565c5.3-4.134,10.5-8.375,15.67-12.67a.206.206,0,0,0,.06-.048c.457-.382.916-.759,1.374-1.14,5.629-4.7,11.205-9.465,16.775-14.236q1.032-.885,2.065-1.771C-82.712,290.02-83.05,289.712-83.27,289.9Z" transform="translate(181.553 -281.637)" fill="#2ebcf3"/>
        </g>
      </g>
    </g>
    <g id="Grupo_90097" data-name="Grupo 90097" transform="translate(-317.747 299.319)">
      <path id="Trazado_141681" data-name="Trazado 141681" d="M-210.233,334.114c-1.944-6.067-5.2-11.875-10.184-15.846-1.638-1.3-4.1-2.351-5.718-1.15q-1.211-2.436-2.526-4.819c2.483-1.81,3.771-4.976,4.3-8.05a38.89,38.89,0,0,0-.457-13.325,54.653,54.653,0,0,1-.454-7.2c-.091,5.331-3.541,10.008-4.662,15.222a36.624,36.624,0,0,0-.155,10.856q-2.829-4.82-6.088-9.367c-.133-.186-.274-.366-.408-.55,1.371-5.148,2.644-10.493,1.594-15.7-.96-4.752-3.762-8.9-6.5-12.894-3.5-5.1-7.014-10.229-11.334-14.654q.883,4.655,1.769,9.31a63.8,63.8,0,0,0,3.075,11.928c1.923,4.794,3.785,10.527,6.346,15.543-.923-1.1-1.861-2.2-2.822-3.266q-3.416-3.793-7.152-7.285a26.315,26.315,0,0,0-7.638-12.881c-6.281-5.785-14.907-8.118-23.172-10.261a2.373,2.373,0,0,0-1.991.079q3.191,4.533,6.546,8.949a32.979,32.979,0,0,0,6.565,7.006,34.848,34.848,0,0,0,8.828,4.155,94.411,94.411,0,0,0,10.054,3.514,119.49,119.49,0,0,1,8.34,8.593,119.192,119.192,0,0,1,8,10.194c.2.282.386.572.581.855-4.409-3.526-11.5-8.43-16.453-9.535a74.322,74.322,0,0,1-19.472-7.341,11.6,11.6,0,0,0,3.514,4.971,58.853,58.853,0,0,0,7.424,5.976,3.509,3.509,0,0,0-.516.234c-2.374,1.342-2.212,4.856-1.152,7.369s2.733,5.018,2.324,7.715a2.458,2.458,0,0,1-1.194,1.94,2.988,2.988,0,0,1-2.4-.278c-10.73-4.734-16.369-16.726-26.125-23.236a30.077,30.077,0,0,0-13.378-4.857,12.462,12.462,0,0,0-6.385.657c-4.664,2.059-6.165,8.426-4.256,13.154s6.28,8.006,10.785,10.393c4.267,2.26,8.983,4.062,12.148,7.706,1.24,1.427,2.231,3.331,1.736,5.155-.767,2.829-4.294,3.59-7,4.721-4.229,1.766-7.655,6.454-6.288,10.829,1.1,3.523,4.879,5.6,8.539,6.066s7.35-.306,11.029-.6a42.421,42.421,0,0,1,20.155,3.368c1.448.63,3.072,1.655,3.079,3.233a3.061,3.061,0,0,1-.528,1.6c-1.871-.387-3.774-.667-5.656-.933-6.121-.871-12.28-1.744-18.461-1.55l8.058,4.989a88.129,88.129,0,0,0,7.783,4.453,7.649,7.649,0,0,0-2.228,4.925,26.122,26.122,0,0,0-8.115-.611c-8.508.721-16.057,5.5-23.222,10.144-.577.375-1.213.838-1.288,1.522q5.5.713,11.021,1.223a32.936,32.936,0,0,0,9.6-.1,34.831,34.831,0,0,0,9.028-3.7c2.239-1.173,4.592-2.238,6.822-3.476a10.568,10.568,0,0,0,2.916.749,93.638,93.638,0,0,0,13.647.217c1.617-.109,3.292-.224,5.008-.353-4.252,1.031-8.6,2.472-11.242,4.314A74.274,74.274,0,0,1-274.8,383.52a11.587,11.587,0,0,0,6.039.769,59.209,59.209,0,0,0,23.654-6.776c3.565-1.9,7.206-4.595,8.228-8.418q.866-.091,1.736-.191,4.314.715,8.57,1.739c-1.552.885-3.592,2.319-4.911,3.086-2.513,1.462-3.53,2.207-5.874,3.786-2.313,1.561-4.8,2.869-7.009,4.575a.88.88,0,0,0-.322.363.621.621,0,0,0,.447.733,1.792,1.792,0,0,0,.946-.042c3.78-.858,7.631-1.744,10.961-3.728,3.175-1.893,5.849-4.986,6.393-8.617a116.394,116.394,0,0,1,12.076,3.7.491.491,0,0,0,.645-.207.483.483,0,0,0-.208-.645q-.768-.283-1.537-.555a117.279,117.279,0,0,0-11.7-3.451,8.4,8.4,0,0,0-.025-1.933,83.938,83.938,0,0,0,18.8-5.273C-204.166,353.762-208.288,340.18-210.233,334.114Zm-16.593-16.236a4.83,4.83,0,0,0-.606,1.668c-.708,3.784,1.041,7.663.577,11.484-.213,1.757-1.343,3.763-3.11,3.672-1.564-.079-2.5-1.717-3.151-3.143q-3.5-7.716-7-15.431-.415-.917-.838-1.834c.414.156.831.3,1.257.428,3.541,1.062,7.627.942,10.672-1.11C-228.262,315.018-227.534,316.445-226.826,317.879Zm-7.921-13.7q2.893,4.314,5.409,8.864c-1.7-.546-4.137-1.081-5.593-1.534-2.777-.864-4.012-1.112-6.76-1.771-.587-.141-1.17-.3-1.751-.46a36.67,36.67,0,0,0-3.021-4.711c-.136-.177-.277-.352-.418-.526C-242.933,305.43-238.3,306.3-234.747,304.179ZM-229.471,369c-.815-.176-1.634-.34-2.452-.5.489-.065.98-.139,1.471-.21C-230.124,368.544-229.795,368.784-229.471,369Z" transform="translate(319.159 -256.638)" fill="#44cfdd" opacity="0.28"/>
      <g id="Grupo_90096" data-name="Grupo 90096" transform="translate(0 3.819)">
        <path id="Trazado_141682" data-name="Trazado 141682" d="M-294.63,262.42c8.264,2.143,16.891,4.476,23.171,10.261a26.317,26.317,0,0,1,7.64,12.882q3.727,3.489,7.151,7.285c.963,1.069,1.9,2.163,2.824,3.266-2.563-5.016-4.423-10.75-6.347-15.543a63.822,63.822,0,0,1-3.076-11.928q-.883-4.654-1.769-9.311c4.32,4.423,7.838,9.553,11.334,14.654,2.741,4,5.544,8.14,6.5,12.893,1.051,5.2-.223,10.551-1.593,15.7.133.184.274.365.407.55q3.265,4.535,6.088,9.367a36.626,36.626,0,0,1,.154-10.856c1.12-5.213,4.571-9.891,4.663-15.223a54.438,54.438,0,0,0,.453,7.2,38.855,38.855,0,0,1,.457,13.326c-.531,3.073-1.818,6.24-4.3,8.05a117.608,117.608,0,0,1,5.361,10.953q.319.751.631,1.507a.483.483,0,0,1-.335.589.491.491,0,0,1-.59-.333,116.342,116.342,0,0,0-5.433-11.4c-3.045,2.052-7.131,2.173-10.671,1.11-3.714-1.113-6.97-3.353-10.157-5.559a1.8,1.8,0,0,1-.671-.669.619.619,0,0,1,.24-.824.879.879,0,0,1,.485-.008c2.75.475,5.394,1.424,8.108,2.075,2.748.659,3.985.908,6.762,1.771,1.455.454,3.892.988,5.592,1.534q-2.506-4.548-5.409-8.864c-3.567,2.127-8.221,1.244-12.179-.155a59.226,59.226,0,0,1-20.981-12.856,11.588,11.588,0,0,1-3.514-4.971,74.241,74.241,0,0,0,19.47,7.339c4.951,1.106,12.043,6.01,16.453,9.536-.194-.284-.383-.573-.581-.855a119.2,119.2,0,0,0-8-10.194,119.562,119.562,0,0,0-8.342-8.593,94.739,94.739,0,0,1-10.054-3.514,34.894,34.894,0,0,1-8.827-4.155,32.91,32.91,0,0,1-6.565-7.007q-3.357-4.412-6.548-8.947A2.378,2.378,0,0,1-294.63,262.42Z" transform="translate(326.582 -259.331)" fill="#2a4c80"/>
        <path id="Trazado_141683" data-name="Trazado 141683" d="M-308.466,349.54c7.163-4.643,14.714-9.425,23.222-10.144a26.293,26.293,0,0,1,14.657,3.075q5.093-.389,10.2-.347c1.439.013,2.878.061,4.316.126-5.429-1.5-10.913-4.005-15.746-5.827a63.728,63.728,0,0,1-10.871-5.795l-8.058-4.988c6.18-.194,12.34.678,18.462,1.549,4.8.684,9.746,1.417,13.9,3.921,4.547,2.743,7.627,7.294,10.5,11.784.225.026.454.044.679.071q5.55.659,11.019,1.844a36.662,36.662,0,0,1-7.9-7.451c-3.086-4.35-4.2-10.054-8.07-13.724a54.476,54.476,0,0,0,5.613,4.533,38.864,38.864,0,0,1,10.13,8.668c1.907,2.468,3.371,5.558,3.028,8.61a117.341,117.341,0,0,1,11.7,3.451q.77.272,1.537.555a.482.482,0,0,1,.208.644.491.491,0,0,1-.645.208,116.412,116.412,0,0,0-12.074-3.7c-.546,3.631-3.218,6.724-6.393,8.617-3.33,1.984-7.182,2.87-10.963,3.728a1.793,1.793,0,0,1-.946.043.62.62,0,0,1-.445-.733.89.89,0,0,1,.321-.365c2.21-1.7,4.7-3.012,7.01-4.574,2.343-1.58,3.361-2.324,5.874-3.787,1.318-.767,3.358-2.2,4.911-3.086q-5.048-1.225-10.19-2c-.844,4.067-4.639,6.9-8.345,8.874a59.237,59.237,0,0,1-23.656,6.776,11.586,11.586,0,0,1-6.039-.769,74.23,74.23,0,0,0,18.568-9.391c4.161-2.9,12.569-4.816,18.147-5.684-.34-.047-.681-.1-1.023-.149a118.947,118.947,0,0,0-12.92-.994,119.578,119.578,0,0,0-11.971.342,94.406,94.406,0,0,1-9.384,5.035,34.815,34.815,0,0,1-9.028,3.7,32.986,32.986,0,0,1-9.6.1q-5.52-.51-11.019-1.223C-309.679,350.378-309.045,349.914-308.466,349.54Z" transform="translate(321.09 -232.44)" fill="#f79f45"/>
        <g id="Grupo_90095" data-name="Grupo 90095" transform="translate(0 29.265)">
          <path id="Trazado_141684" data-name="Trazado 141684" d="M-211.274,356.5c3.733-8.674-.389-22.254-2.334-28.321s-5.2-11.873-10.185-15.844c-1.722-1.373-4.358-2.463-5.961-.953a4.021,4.021,0,0,0-1.054,2.231c-.706,3.784,1.041,7.663.579,11.485-.213,1.757-1.343,3.762-3.112,3.672-1.563-.079-2.5-1.717-3.151-3.143q-3.5-7.716-7-15.431a57.822,57.822,0,0,0-6.348-11.563c-2.683-3.5-6.322-6.436-10.614-7.44a5.473,5.473,0,0,0-3.921.252c-2.375,1.342-2.214,4.856-1.153,7.369s2.733,5.018,2.324,7.715a2.454,2.454,0,0,1-1.194,1.939,2.982,2.982,0,0,1-2.4-.277c-10.729-4.734-16.369-16.726-26.123-23.236a30.089,30.089,0,0,0-13.379-4.857,12.457,12.457,0,0,0-6.383.657c-4.664,2.059-6.165,8.426-4.257,13.154s6.281,8.006,10.787,10.393c4.266,2.261,8.982,4.062,12.148,7.707,1.238,1.427,2.229,3.331,1.734,5.154-.767,2.831-4.294,3.591-7,4.721-4.229,1.767-7.655,6.456-6.288,10.831,1.1,3.523,4.879,5.6,8.539,6.066s7.351-.306,11.029-.6a42.433,42.433,0,0,1,20.157,3.368c1.448.63,3.07,1.655,3.077,3.233a3.453,3.453,0,0,1-.794,2c-1.808,2.465-4.772,3.757-7.119,5.715s-4.121,5.418-2.493,8.006c1.089,1.73,2.761,3.1,6.139,3.513a93.685,93.685,0,0,0,13.647.217c12.708-.86,28.913-2.061,42.1-7.734" transform="translate(317.747 -279.967)" fill="#fda31a"/>
          <path id="Trazado_141685" data-name="Trazado 141685" d="M-310.785,285.895c5.592,4.792,11.184,9.584,16.826,14.32.842.708,1.689,1.41,2.534,2.115-.383-.767-.766-1.534-1.142-2.306q-.838-1.725-1.666-3.456-.836-1.749-1.672-3.5t-1.669-3.47q-.8-1.657-1.63-3.309l-.2-.4a.229.229,0,0,1,.4-.213q.825,1.636,1.624,3.283.84,1.725,1.666,3.458.838,1.749,1.672,3.5t1.669,3.469q.806,1.659,1.631,3.309c.059.119.119.24.18.359q6.767,5.629,13.667,11.095c5.755,4.538,11.6,8.959,17.58,13.2q4.74,3.359,9.594,6.552-1.878-5.035-3.555-10.144-1.734-5.3-3.243-10.666-.844-3.008-1.62-6.036c-.072-.287.374-.384.447-.1q1.383,5.4,2.99,10.74,1.6,5.312,3.422,10.551,1.025,2.949,2.122,5.874a.3.3,0,0,1,.014.153c2.7,1.766,5.417,3.5,8.175,5.168q9.258,5.62,18.95,10.478.585-3.121.895-6.286.315-3.259.33-6.535t-.272-6.551q-.287-3.259-.868-6.485-.585-3.261-1.456-6.463-.108-.4-.221-.8c-.081-.284.366-.38.447-.1q.906,3.208,1.534,6.484.619,3.248.943,6.542.323,3.278.349,6.578.023,3.316-.262,6.624t-.881,6.595l-.115.61c.182.091.362.187.543.277q1.259.628,2.526,1.24c.265.129.016.512-.247.386-1.042-.5-2.075-1.03-3.11-1.547a.3.3,0,0,1-.037,0,.212.212,0,0,1-.094-.061c-2.262-1.133-4.513-2.288-6.741-3.483q-2.338.164-4.676.313-2.3.149-4.588.289l-4.544.278q-2.289.14-4.578.287-2.334.149-4.667.309l-.607.043a.23.23,0,0,1-.217-.24.235.235,0,0,1,.241-.217q2.355-.164,4.71-.315,2.293-.149,4.588-.289l4.543-.278q2.289-.142,4.578-.286,2.238-.145,4.475-.3-4.74-2.561-9.379-5.306c-6.348-3.767-12.535-7.8-18.587-12.023q-4.346-3.034-8.6-6.2a15.87,15.87,0,0,1-1.868.258c-.769.082-1.539.155-2.307.228q-3.323.317-6.651.577t-6.663.467q-3.331.2-6.667.353t-6.674.241l-.838.023c-.294.007-.269-.449.024-.457q3.323-.085,6.643-.225,3.336-.14,6.668-.339t6.631-.45q3.314-.251,6.624-.56,1.3-.121,2.6-.251c.659-.065,1.322-.133,1.976-.238q-4.344-3.231-8.609-6.565c-5.3-4.134-10.5-8.374-15.67-12.67a.182.182,0,0,1-.058-.048c-.458-.382-.918-.759-1.376-1.14-5.629-4.7-11.2-9.465-16.773-14.236q-1.034-.885-2.066-1.771C-311.345,286.012-311.006,285.7-310.785,285.895Z" transform="translate(320.488 -277.629)" fill="#fff"/>
        </g>
      </g>
    </g>
    <g id="Grupo_90099" data-name="Grupo 90099" transform="translate(-291.301 261.17)">
      <path id="Trazado_141686" data-name="Trazado 141686" d="M-262.957,232.554a2.381,2.381,0,0,0-.346-.227,2.443,2.443,0,0,0-2.164-.1l-32.173,14.218a2.448,2.448,0,0,0-1.207,1.16A2.6,2.6,0,0,0-299,248a2.436,2.436,0,0,0,.109,1.679l8.411,19.035a2.448,2.448,0,0,0,3.229,1.249l32.173-14.216a2.449,2.449,0,0,0,1.249-3.231l-8.411-19.034A2.422,2.422,0,0,0-262.957,232.554Z" transform="translate(299.099 -228.782)" fill="#85cfea"/>
      <g id="Grupo_90098" data-name="Grupo 90098" transform="translate(1.57)">
        <path id="Trazado_141687" data-name="Trazado 141687" d="M-273.071,249.853a1.793,1.793,0,0,1-.831.755,1.776,1.776,0,0,1-1.117.106l-22.873-5.157a2.444,2.444,0,0,0,.108,1.679l8.411,19.035a2.449,2.449,0,0,0,3.231,1.249l32.172-14.216a2.451,2.451,0,0,0,1.251-3.231l-8.413-19.034a2.422,2.422,0,0,0-.719-.929Z" transform="translate(297.993 -229.582)" fill="#2ebcf3"/>
        <path id="Trazado_141688" data-name="Trazado 141688" d="M-273.505,249.805l11.234-19.764a2.443,2.443,0,0,0-2.164-.1l-32.172,14.218a2.445,2.445,0,0,0-1.208,1.16L-275,250.468A1.366,1.366,0,0,0-273.505,249.805Z" transform="translate(298.066 -229.738)" fill="#2ebcf3"/>
        <path id="Trazado_141689" data-name="Trazado 141689" d="M-273.932,250.675a1.793,1.793,0,0,0,.831-.754l11.219-19.741a2.233,2.233,0,0,0-.346-.227l-11.234,19.764a1.366,1.366,0,0,1-1.5.662l-22.813-5.144a2.592,2.592,0,0,0-.15.39l22.873,5.157A1.776,1.776,0,0,0-273.932,250.675Z" transform="translate(298.022 -229.649)" fill="#fff"/>
      </g>
    </g>
    <g id="Grupo_90104" data-name="Grupo 90104" transform="translate(-88.162 211.941)">
      <g id="Grupo_90101" data-name="Grupo 90101" transform="translate(0 18.54)">
        <path id="Trazado_141690" data-name="Trazado 141690" d="M-71.811,228.418a4.721,4.721,0,0,0-.278-.747,4.706,4.706,0,0,0-3.256-2.611L-141.517,210.5a4.7,4.7,0,0,0-3.2.427,4.9,4.9,0,0,0-.678.433,4.7,4.7,0,0,0-1.744,2.733l-8.614,39.151a4.717,4.717,0,0,0,3.594,5.62l66.172,14.559a4.717,4.717,0,0,0,5.62-3.594l8.614-39.149A4.7,4.7,0,0,0-71.811,228.418Z" transform="translate(155.862 -207.141)" fill="#85cfea"/>
        <g id="Grupo_90100" data-name="Grupo 90100" transform="translate(6.131)">
          <path id="Trazado_141691" data-name="Trazado 141691" d="M-107.406,243.728a3.439,3.439,0,0,1-2.15.226,3.435,3.435,0,0,1-1.856-1.106l-29.657-34.064a4.69,4.69,0,0,0-1.746,2.731l-8.613,39.151a4.716,4.716,0,0,0,3.592,5.62l66.173,14.559a4.717,4.717,0,0,0,5.62-3.594L-67.43,228.1a4.679,4.679,0,0,0-.06-2.262Z" transform="translate(151.54 -207.812)" fill="#2ebcf3"/>
          <path id="Trazado_141692" data-name="Trazado 141692" d="M-111.018,243.289l39.963-17.909a4.7,4.7,0,0,0-3.255-2.611l-66.172-14.559a4.688,4.688,0,0,0-3.2.428l29.579,33.973A2.634,2.634,0,0,0-111.018,243.289Z" transform="translate(154.827 -208.099)" fill="#2ebcf3"/>
          <path id="Trazado_141693" data-name="Trazado 141693" d="M-112.643,244.081a3.439,3.439,0,0,0,2.15-.225l39.917-17.888a4.774,4.774,0,0,0-.278-.747l-39.963,17.909a2.633,2.633,0,0,1-3.082-.678l-29.579-33.973a4.571,4.571,0,0,0-.678.433l29.657,34.064A3.434,3.434,0,0,0-112.643,244.081Z" transform="translate(154.627 -207.94)" fill="#fff"/>
        </g>
      </g>
      <g id="Grupo_90103" data-name="Grupo 90103" transform="translate(68.355 0)">
        <path id="Trazado_141694" data-name="Trazado 141694" d="M-91.8,195.026a15.866,15.866,0,0,0-15.867,15.865,15.791,15.791,0,0,0,2.9,9.143l-2.4,10.732,8.411-5.609a15.8,15.8,0,0,0,6.948,1.6,15.865,15.865,0,0,0,15.865-15.865A15.865,15.865,0,0,0-91.8,195.026Z" transform="translate(107.664 -195.026)" fill="#fda31a"/>
        <g id="Grupo_90102" data-name="Grupo 90102" transform="translate(2.564 10.367)">
          <path id="Trazado_141695" data-name="Trazado 141695" d="M-103.548,203.53l-1.688.988a.417.417,0,0,1-.2.068.415.415,0,0,1-.357-.2.394.394,0,0,1,.153-.563l2.3-1.4a.431.431,0,0,1,.562.153.491.491,0,0,1,.051.306v10.954a.4.4,0,0,1-.408.41.414.414,0,0,1-.408-.41Z" transform="translate(105.856 -202.32)" fill="#fff"/>
          <path id="Trazado_141696" data-name="Trazado 141696" d="M-101.453,208.3a7.6,7.6,0,0,1,1.14-4.174,3.716,3.716,0,0,1,2.981-1.788,3.718,3.718,0,0,1,2.982,1.788,7.756,7.756,0,0,1,1.157,4.174,7.646,7.646,0,0,1-1.157,4.157,3.694,3.694,0,0,1-2.982,1.807,3.692,3.692,0,0,1-2.981-1.807A7.5,7.5,0,0,1-101.453,208.3Zm.834,0a6.756,6.756,0,0,0,1.006,3.7,2.864,2.864,0,0,0,2.282,1.431A2.889,2.889,0,0,0-95.048,212a6.77,6.77,0,0,0,1.023-3.7,6.765,6.765,0,0,0-1.023-3.7,2.806,2.806,0,0,0-2.283-1.431,2.783,2.783,0,0,0-2.282,1.431A6.751,6.751,0,0,0-100.619,208.3Z" transform="translate(107.698 -202.336)" fill="#fff"/>
          <path id="Trazado_141697" data-name="Trazado 141697" d="M-92.922,208.3a7.592,7.592,0,0,1,1.142-4.174,3.714,3.714,0,0,1,2.981-1.788,3.716,3.716,0,0,1,2.981,1.788A7.756,7.756,0,0,1-84.66,208.3a7.646,7.646,0,0,1-1.159,4.157,3.692,3.692,0,0,1-2.981,1.807,3.69,3.69,0,0,1-2.981-1.807A7.486,7.486,0,0,1-92.922,208.3Zm.835,0a6.768,6.768,0,0,0,1,3.7,2.868,2.868,0,0,0,2.283,1.431A2.886,2.886,0,0,0-86.517,212a6.758,6.758,0,0,0,1.023-3.7,6.753,6.753,0,0,0-1.023-3.7,2.8,2.8,0,0,0-2.282-1.431,2.787,2.787,0,0,0-2.283,1.431A6.763,6.763,0,0,0-92.087,208.3Z" transform="translate(111.265 -202.336)" fill="#fff"/>
        </g>
      </g>
    </g>
    <g id="Grupo_90105" data-name="Grupo 90105" transform="translate(-21.222 369.003)">
      <path id="Trazado_141698" data-name="Trazado 141698" d="M-102.028,307.308l0-.044.01.155a7.214,7.214,0,0,1-6.64,7.777s6.173,1.447,7.522,6.722c.549-5.418,6.877-7.429,6.877-7.429C-101.3,314.627-101.982,307.887-102.028,307.308Z" transform="translate(108.662 -305.151)" fill="#fff"/>
      <path id="Trazado_141699" data-name="Trazado 141699" d="M-94.569,305.787v-.013l0,.044a2.081,2.081,0,0,1-1.915,2.244A3.064,3.064,0,0,1-94.312,310c.157-1.563,1.983-2.143,1.983-2.143A2.162,2.162,0,0,1-94.569,305.787Z" transform="translate(113.756 -305.774)" fill="#fff"/>
      <path id="Trazado_141700" data-name="Trazado 141700" d="M-94.547,311.838v-.019l0,.065a3.03,3.03,0,0,1-2.79,3.268s2.594.608,3.161,2.825c.23-2.276,2.889-3.122,2.889-3.122A3.151,3.151,0,0,1-94.547,311.838Z" transform="translate(113.399 -303.245)" fill="#fff"/>
    </g>
    <g id="Grupo_90117" data-name="Grupo 90117" transform="translate(-240.257 174.491)">
      <g id="Grupo_90108" data-name="Grupo 90108" transform="translate(0)">
        <g id="Grupo_90106" data-name="Grupo 90106">
          <rect id="Rectángulo_35232" data-name="Rectángulo 35232" width="147.436" height="263.729" rx="9.924" fill="#192e35"/>
          <path id="Trazado_141701" data-name="Trazado 141701" d="M-126.116,400.557V184.466a10.3,10.3,0,0,0-10.3-10.3h-29.9l-4.419,3.8a6.844,6.844,0,0,1-4.457,1.651h-34.893a6.845,6.845,0,0,1-4.767-1.933l-3.619-3.514h-28.645a10.3,10.3,0,0,0-10.3,10.3V400.557Z" transform="translate(265.486 -166.301)" fill="#fff"/>
          <circle id="Elipse_4561" data-name="Elipse 4561" cx="8.005" cy="8.005" r="8.005" transform="translate(64.627 253.608) rotate(-81.582)"/>
        </g>
        <g id="Grupo_90107" data-name="Grupo 90107" transform="translate(7.915 25.385)">
          <path id="Trazado_141702" data-name="Trazado 141702" d="M-126.116,186.519l-131.3,83.61v60.678l131.3-25.97" transform="translate(257.571 -186.519)" fill="#ebe8ff" opacity="0.4"/>
          <path id="Trazado_141703" data-name="Trazado 141703" d="M-257.527,314.894l131.456-22.3v42.736H-257.527" transform="translate(257.527 -142.158)" fill="#ebe8ff" opacity="0.4"/>
        </g>
      </g>
      <g id="Grupo_90109" data-name="Grupo 90109" transform="translate(24.13 106.504)">
        <path id="Trazado_141704" data-name="Trazado 141704" d="M-154.619,243.718h-83.772a7.7,7.7,0,0,0-7.7,7.7v30.236a7.7,7.7,0,0,0,7.7,7.7h.457v10.866l15.492-10.866h67.823a7.7,7.7,0,0,0,7.7-7.7V251.42A7.7,7.7,0,0,0-154.619,243.718Z" transform="translate(246.093 -243.718)" fill="#ebe8ff"/>
        <path id="Trazado_141705" data-name="Trazado 141705" d="M-154.842,254.227h-86.533a.93.93,0,0,1-.929-.93h0a.928.928,0,0,1,.929-.929h86.533a.928.928,0,0,1,.929.929h0A.93.93,0,0,1-154.842,254.227Z" transform="translate(247.678 -240.101)" fill="#85cfea"/>
        <path id="Trazado_141706" data-name="Trazado 141706" d="M-154.842,259.11h-86.533a.93.93,0,0,1-.929-.93h0a.928.928,0,0,1,.929-.929h86.533a.928.928,0,0,1,.929.929h0A.93.93,0,0,1-154.842,259.11Z" transform="translate(247.678 -238.058)" fill="#85cfea"/>
        <path id="Trazado_141707" data-name="Trazado 141707" d="M-154.842,263.993h-86.533a.93.93,0,0,1-.929-.93h0a.928.928,0,0,1,.929-.929h86.533a.928.928,0,0,1,.929.929h0A.93.93,0,0,1-154.842,263.993Z" transform="translate(247.678 -236.016)" fill="#85cfea"/>
      </g>
      <g id="Grupo_90111" data-name="Grupo 90111" transform="translate(22.345 40.322)">
        <rect id="Rectángulo_35233" data-name="Rectángulo 35233" width="41.005" height="37.17" rx="2.8" transform="translate(0 3.431)" fill="#ebe8ff" opacity="0.4"/>
        <g id="Grupo_90110" data-name="Grupo 90110" transform="translate(5.003)">
          <rect id="Rectángulo_35234" data-name="Rectángulo 35234" width="41.005" height="37.17" rx="4.994" fill="#f79f45"/>
          <path id="Trazado_141708" data-name="Trazado 141708" d="M-234.576,203.622v19.463a1.108,1.108,0,0,0,1.681.95l15.935-9.59a1.11,1.11,0,0,0,.013-1.893l-15.935-9.874A1.11,1.11,0,0,0-234.576,203.622Z" transform="translate(247.692 -194.768)" fill="#fff"/>
        </g>
      </g>
      <g id="Grupo_90114" data-name="Grupo 90114" transform="translate(71.635 36.025)">
        <circle id="Elipse_4562" data-name="Elipse 4562" cx="22.881" cy="22.881" r="22.881" transform="translate(0 3.431)" fill="#ebe8ff" opacity="0.4"/>
        <g id="Grupo_90113" data-name="Grupo 90113" transform="translate(4.466)">
          <circle id="Elipse_4563" data-name="Elipse 4563" cx="22.881" cy="22.881" r="22.881" fill="#ebe8ff"/>
          <g id="Grupo_90112" data-name="Grupo 90112" transform="translate(10.387 5.943)">
            <path id="Trazado_141709" data-name="Trazado 141709" d="M-196.869,225.024V208.716s5.408-.053,7.21-6.388,3.723-3.713,3.709-2.781c-.1,6.361-2.936,8.087-1.751,8.447s7.572-.464,8.035.824.051,3.045-1.133,3.3c0,0,3.707,2.005.206,4.117,0,0,2.885,1.854,0,4.018,0,0,1.957,2.419.309,3.811S-196.869,225.024-196.869,225.024Z" transform="translate(204.32 -198.213)" fill="#0c55af"/>
            <rect id="Rectángulo_35235" data-name="Rectángulo 35235" width="6.387" height="16.249" transform="translate(0 10.562)" fill="#0c55af"/>
          </g>
        </g>
      </g>
      <g id="Grupo_90116" data-name="Grupo 90116" transform="translate(24.438 168.46)">
        <path id="Trazado_141710" data-name="Trazado 141710" d="M-238.2,287.4h83.512a7.677,7.677,0,0,1,7.677,7.677v30.144a7.677,7.677,0,0,1-7.677,7.678h-.457v10.832L-170.587,332.9H-238.2a7.678,7.678,0,0,1-7.678-7.678V295.081A7.678,7.678,0,0,1-238.2,287.4Z" transform="translate(245.876 -287.404)" fill="#fda31a" opacity="0.1"/>
        <g id="Grupo_90115" data-name="Grupo 90115" transform="translate(5.394 12.229)">
          <rect id="Rectángulo_35236" data-name="Rectángulo 35236" width="88.117" height="1.853" rx="0.653" transform="translate(88.117 1.853) rotate(180)" fill="#fda31a" opacity="0.26"/>
          <rect id="Rectángulo_35237" data-name="Rectángulo 35237" width="88.117" height="1.853" rx="0.653" transform="translate(88.117 8.757) rotate(180)" fill="#fda31a" opacity="0.26"/>
          <rect id="Rectángulo_35238" data-name="Rectángulo 35238" width="88.117" height="1.853" rx="0.653" transform="translate(88.117 15.661) rotate(180)" fill="#fda31a" opacity="0.26"/>
        </g>
      </g>
    </g>
  </g>
</svg>
