<svg xmlns="http://www.w3.org/2000/svg" width="63.806" height="86" viewBox="0 0 63.806 86">
  <g id="Grupo_94051" data-name="Grupo 94051" transform="translate(-1520 -2833)">
    <g id="Grupo_94050" data-name="Grupo 94050" transform="translate(1295.903 2620)">
      <rect id="Rectángulo_35966" data-name="Rectángulo 35966" width="49.935" height="83.226" rx="8.323" transform="translate(225.484 214.387)" fill="#686868"/>
      <path id="Trazado_150457" data-name="Trazado 150457" d="M269.871,287.9a4.162,4.162,0,0,1-4.161,4.162H235.194a4.162,4.162,0,0,1-4.162-4.162h0V224.1a4.162,4.162,0,0,1,4.162-4.162h4.161v2.775a2.774,2.774,0,0,0,2.774,2.774h16.645a2.774,2.774,0,0,0,2.774-2.774v-2.775h4.162a4.162,4.162,0,0,1,4.161,4.162Z" fill="#b0b0b0"/>
      <path id="Trazado_150458" data-name="Trazado 150458" d="M261.548,219.935v2.775a2.774,2.774,0,0,1-2.774,2.774H242.129a2.774,2.774,0,0,1-2.774-2.774v-2.775h-4.161a4.162,4.162,0,0,0-4.162,4.162v62.419h27.742a5.549,5.549,0,0,0,5.549-5.548V219.935Z" fill="#d0d0d0"/>
      <path id="Trazado_150459" data-name="Trazado 150459" d="M250.452,264.323h33.29a2.774,2.774,0,0,0,2.774-2.775V233.806a2.774,2.774,0,0,0-2.774-2.774h-33.29a2.774,2.774,0,0,0-2.775,2.774v6.936l-5.548,4.161,5.548,4.162v12.483A2.774,2.774,0,0,0,250.452,264.323Z" fill="#f3a845"/>
      <path id="Trazado_150460" data-name="Trazado 150460" d="M250.452,231.032a2.774,2.774,0,0,0-2.775,2.774v6.936l-5.548,4.161,5.548,4.162v11.1h29.129A4.161,4.161,0,0,0,280.968,256V231.032Z" fill="#eecc61"/>
      <path id="Trazado_150461" data-name="Trazado 150461" d="M236.581,242.129h5.548v5.548h-5.548Z" fill="#f3a845"/>
      <path id="Trazado_150462" data-name="Trazado 150462" d="M236.581,242.129v4.161h1.387a2.774,2.774,0,0,0,2.774-2.774v-1.387Z" fill="#eecc61"/>
      <path id="Trazado_150463" data-name="Trazado 150463" d="M236.581,253.226h5.548v5.548h-5.548Z" fill="#aa2b24"/>
      <path id="Trazado_150464" data-name="Trazado 150464" d="M236.581,253.226v4.161h1.387a2.774,2.774,0,0,0,2.774-2.774v-1.387Z" fill="#d24034"/>
      <path id="Trazado_150465" data-name="Trazado 150465" d="M236.581,264.323h5.548v5.548h-5.548Z" fill="#f3a845"/>
      <path id="Trazado_150466" data-name="Trazado 150466" d="M236.581,264.323v4.161h1.387a2.774,2.774,0,0,0,2.774-2.774v-1.387Z" fill="#eecc61"/>
      <path id="Trazado_150467" data-name="Trazado 150467" d="M247.677,264.323h5.549v5.548h-5.549Z" fill="#2763bb"/>
      <path id="Trazado_150468" data-name="Trazado 150468" d="M247.677,264.323v4.161h1.388a2.774,2.774,0,0,0,2.774-2.774v-1.387Z" fill="#3079e6"/>
      <path id="Trazado_150469" data-name="Trazado 150469" d="M258.774,264.323h5.549v5.548h-5.549Z" fill="#f3a845"/>
      <path id="Trazado_150470" data-name="Trazado 150470" d="M258.774,264.323v4.161h1.387a2.774,2.774,0,0,0,2.774-2.774v-1.387Z" fill="#eecc61"/>
      <circle id="Elipse_5073" data-name="Elipse 5073" cx="2.774" cy="2.774" r="2.774" transform="translate(247.677 280.968)" fill="#939393"/>
      <path id="Trazado_150471" data-name="Trazado 150471" d="M236.581,231.032h5.548v5.549h-5.548Z" fill="#2763bb"/>
      <path id="Trazado_150472" data-name="Trazado 150472" d="M236.581,231.032v4.162h1.387a2.774,2.774,0,0,0,2.774-2.775v-1.387Z" fill="#3079e6"/>
      <circle id="Elipse_5074" data-name="Elipse 5074" cx="11.097" cy="11.097" r="11.097" transform="translate(256 236.581)" fill="#f2f2f2"/>
      <path id="Trazado_150473" data-name="Trazado 150473" d="M243.516,218.548h13.871v2.775H243.516Z"/>
      <path id="Trazado_150474" data-name="Trazado 150474" d="M283.742,229.645h-6.936V222.71A9.72,9.72,0,0,0,267.1,213H233.806a9.72,9.72,0,0,0-9.709,9.71v66.58a9.72,9.72,0,0,0,9.709,9.71H267.1a9.72,9.72,0,0,0,9.709-9.71V265.71h6.936a4.161,4.161,0,0,0,4.161-4.162V233.806A4.161,4.161,0,0,0,283.742,229.645Zm-9.71,59.645a6.944,6.944,0,0,1-6.935,6.936H233.806a6.944,6.944,0,0,1-6.935-6.936V222.71a6.944,6.944,0,0,1,6.935-6.936H267.1a6.944,6.944,0,0,1,6.935,6.936v6.935h-2.774V224.1a5.548,5.548,0,0,0-5.548-5.549h-4.162a1.387,1.387,0,0,0-1.387,1.387v2.775a1.387,1.387,0,0,1-1.387,1.387H242.129a1.387,1.387,0,0,1-1.387-1.387v-2.775a1.387,1.387,0,0,0-1.387-1.387h-4.161a5.549,5.549,0,0,0-5.549,5.549V287.9a5.549,5.549,0,0,0,5.549,5.549H265.71a5.548,5.548,0,0,0,5.548-5.549V265.71h2.774ZM241.3,246.013l4.993,3.745v11.79a4.162,4.162,0,0,0,4.162,4.162h1.387v2.774h-2.774V267.1H246.29v2.774a1.387,1.387,0,0,0,1.387,1.387h5.549a1.387,1.387,0,0,0,1.387-1.387V265.71h2.774v4.161a1.387,1.387,0,0,0,1.387,1.387h5.549a1.387,1.387,0,0,0,1.387-1.387V265.71h2.774V287.9a2.774,2.774,0,0,1-2.774,2.774H235.194a2.774,2.774,0,0,1-2.775-2.774V224.1a2.774,2.774,0,0,1,2.775-2.774h2.774v1.387a4.161,4.161,0,0,0,4.161,4.161h16.645a4.161,4.161,0,0,0,4.161-4.161v-1.387h2.775a2.774,2.774,0,0,1,2.774,2.774v5.548H250.452a4.161,4.161,0,0,0-4.162,4.161v6.242l-4.993,3.746a1.386,1.386,0,0,0,0,2.219Zm21.638,19.7v2.774h-2.774V265.71Zm22.194-4.162a1.387,1.387,0,0,1-1.387,1.387h-33.29a1.387,1.387,0,0,1-1.387-1.387V249.065a1.388,1.388,0,0,0-.555-1.11l-4.069-3.052,4.069-3.051a1.388,1.388,0,0,0,.555-1.11v-6.936a1.387,1.387,0,0,1,1.387-1.387h33.29a1.387,1.387,0,0,1,1.387,1.387Z"/>
      <path id="Trazado_150475" data-name="Trazado 150475" d="M243.516,236.581v-5.549a1.387,1.387,0,0,0-1.387-1.387h-5.548a1.387,1.387,0,0,0-1.387,1.387v5.549a1.387,1.387,0,0,0,1.387,1.387h5.548A1.387,1.387,0,0,0,243.516,236.581Zm-2.774-1.387h-2.774v-2.775h2.774Z"/>
      <path id="Trazado_150476" data-name="Trazado 150476" d="M235.194,253.226v5.548a1.387,1.387,0,0,0,1.387,1.387h5.548a1.387,1.387,0,0,0,1.387-1.387v-5.548a1.387,1.387,0,0,0-1.387-1.387h-5.548A1.387,1.387,0,0,0,235.194,253.226Zm2.774,1.387h2.774v2.774h-2.774Z"/>
      <path id="Trazado_150477" data-name="Trazado 150477" d="M243.516,264.323a1.388,1.388,0,0,0-1.387-1.388h-5.548a1.388,1.388,0,0,0-1.387,1.388v5.548a1.387,1.387,0,0,0,1.387,1.387h5.548a1.387,1.387,0,0,0,1.387-1.387Zm-2.774,4.161h-2.774V265.71h2.774Z"/>
      <path id="Trazado_150478" data-name="Trazado 150478" d="M250.452,287.9a4.161,4.161,0,1,0-4.162-4.161A4.161,4.161,0,0,0,250.452,287.9Zm0-5.548a1.387,1.387,0,1,1-1.387,1.387A1.387,1.387,0,0,1,250.452,282.355Z"/>
      <path id="Trazado_150479" data-name="Trazado 150479" d="M236.581,249.065h2.774V246.29h-1.387v-2.774h1.387v-2.774h-2.774a1.387,1.387,0,0,0-1.387,1.387v5.548A1.388,1.388,0,0,0,236.581,249.065Z"/>
      <path id="Trazado_150480" data-name="Trazado 150480" d="M243.516,274.032h2.774v2.774h-2.774Z"/>
      <path id="Trazado_150481" data-name="Trazado 150481" d="M249.065,274.032h2.774v2.774h-2.774Z"/>
      <path id="Trazado_150482" data-name="Trazado 150482" d="M254.613,274.032h2.774v2.774h-2.774Z"/>
      <path id="Trazado_150483" data-name="Trazado 150483" d="M267.1,235.194a12.484,12.484,0,1,0,12.484,12.483A12.483,12.483,0,0,0,267.1,235.194Zm0,22.193a9.709,9.709,0,1,1,9.709-9.71A9.71,9.71,0,0,1,267.1,257.387Z"/>
      <path id="Trazado_150484" data-name="Trazado 150484" d="M267.1,243.516a1.387,1.387,0,0,1,1.387,1.387h2.774A4.161,4.161,0,0,0,268.484,241v-1.642H265.71V241a4.152,4.152,0,0,0,1.387,8.068,1.387,1.387,0,1,1-1.387,1.387h-2.775a4.163,4.163,0,0,0,2.775,3.906V256h2.774v-1.642a4.152,4.152,0,0,0-1.387-8.068,1.387,1.387,0,0,1,0-2.774Z"/>
    </g>
  </g>
</svg>
