<svg xmlns="http://www.w3.org/2000/svg" width="50" height="50" viewBox="0 0 50 50">
  <g id="Outline" transform="translate(-231 -231)">
    <path id="Trazado_150403" data-name="Trazado 150403" d="M280.167,257.667a.833.833,0,0,0-.834.833v8.333a2.5,2.5,0,0,1-2.5,2.5H236A3.333,3.333,0,0,1,232.667,266V240.167a2.5,2.5,0,0,1,2.5-2.5h14.166a.834.834,0,1,0,0-1.667H235.167A4.173,4.173,0,0,0,231,240.167V266a5.006,5.006,0,0,0,5,5h10.454a8.133,8.133,0,0,1-4.386,4.175l-2.061.825H238.5a2.5,2.5,0,0,0-2.5,2.5v1.667a.833.833,0,0,0,.833.833h13.334a.833.833,0,0,0,0-1.667h-12.5V278.5a.833.833,0,0,1,.833-.833h35a.833.833,0,0,1,.833.833v.833H253.5a.833.833,0,0,0,0,1.667h21.667a.833.833,0,0,0,.833-.833V278.5a2.5,2.5,0,0,0-2.5-2.5h-1.507l-2.061-.825A8.133,8.133,0,0,1,265.546,271h11.287A4.173,4.173,0,0,0,281,266.833V258.5A.833.833,0,0,0,280.167,257.667ZM267.86,276H244.14a9.786,9.786,0,0,0,4.127-5h15.466A9.787,9.787,0,0,0,267.86,276Z" fill="#ffd947"/>
    <path id="Trazado_150404" data-name="Trazado 150404" d="M276.833,236H261a.834.834,0,0,0,0,1.667h15.833a2.5,2.5,0,0,1,2.5,2.5v15a.833.833,0,0,0,1.667,0v-15A4.173,4.173,0,0,0,276.833,236Z" fill="#ffd947"/>
    <path id="Trazado_150405" data-name="Trazado 150405" d="M246.052,240.708l-1.978,5.275a2.269,2.269,0,0,0,1.33,2.918l.076.027a2.279,2.279,0,0,0,2.658-.984l1.667-2.777H251a.834.834,0,0,0,1.667,0v-.834a.833.833,0,0,0-.834-.833h-2.5a.833.833,0,0,0-.714.4l-1.909,3.179a.6.6,0,0,1-1.082-.5l.007-.021,1.809-4.824L251.9,241h6.305l3.938,3.151a.832.832,0,0,0,.639.174l3.964-.567a.8.8,0,1,1,.213,1.594l-4.946.619-3.084-1.852a.833.833,0,0,0-1.144.28.822.822,0,0,0-.121.434v2.834h-5.834a.832.832,0,0,0-.821.695l-.739,4.43-3.666.708H243.5a.833.833,0,0,0-.833.833v5.834a.833.833,0,0,0,.833.833,4.165,4.165,0,0,0,3.866-2.633l7.051-.705a.831.831,0,0,0,.662-.456l2.127-4.254,2.211,1.1.763,4.583a.833.833,0,0,0,.82.694h2.5A2.505,2.505,0,0,1,265.857,261H261a.833.833,0,0,0,0,1.667h5.833a.833.833,0,0,0,.834-.834,4.168,4.168,0,0,0-2.647-3.87l-.692-6.221a.836.836,0,0,0-.365-.6l-4.63-3.086V246.3l2.071,1.243a.83.83,0,0,0,.533.112l5.232-.653a2.471,2.471,0,0,0-.59-4.907l-.066.009-3.607.515-3.885-3.108a.836.836,0,0,0-.521-.182h-.463a3.289,3.289,0,0,0,.463-1.666v-5.834a.833.833,0,0,0-.833-.833H256a4.173,4.173,0,0,0-4.167,4.167v2.5a3.3,3.3,0,0,0,.464,1.666h-.464a.781.781,0,0,0-.136.012l-5,.833A.836.836,0,0,0,246.052,240.708ZM246,256.833a2.506,2.506,0,0,1-1.667,2.358v-4.024H246Zm17.31.834h-1.6l-.718-4.3a.83.83,0,0,0-.449-.608l-3.333-1.667a.835.835,0,0,0-1.118.373h0l-2.293,4.589-6.127.617V255l3.49-.675a.834.834,0,0,0,.667-.681l.715-4.311h5.711l4.468,2.979Zm-7.31-25h.833v1.666h-3.191A2.505,2.505,0,0,1,256,232.667Zm-2.5,5V236h3.333v1.667a1.667,1.667,0,0,1-3.333,0Z" fill="#ffd947"/>
    <path id="Trazado_150406" data-name="Trazado 150406" d="M247.667,262.667a2.5,2.5,0,0,0-2.347,1.666h-5.153a.833.833,0,1,0,0,1.667h5.153a2.485,2.485,0,0,0,4.693,0H273.5a.833.833,0,0,0,0-1.667H250.013A2.5,2.5,0,0,0,247.667,262.667Zm0,3.333a.833.833,0,1,1,.833-.833A.833.833,0,0,1,247.667,266Z" fill="#ffd947"/>
    <path id="Trazado_150407" data-name="Trazado 150407" d="M276.833,261.833a.833.833,0,0,0,.834-.833V247.667a.833.833,0,0,0-.834-.834H273.5a.833.833,0,0,0-.833.834V261a.833.833,0,0,0,.833.833Zm-2.5-6.666H276v1.666h-1.667ZM276,253.5h-1.667v-1.667H276Zm0,6.667h-1.667V258.5H276ZM274.333,248.5H276v1.667h-1.667Z" fill="#ffd947"/>
    <path id="Trazado_150408" data-name="Trazado 150408" d="M235.167,246.833H238.5a.833.833,0,0,0,0-1.666h-3.333a.833.833,0,1,0,0,1.666Z" fill="#ffd947"/>
    <path id="Trazado_150409" data-name="Trazado 150409" d="M235.167,250.167H238.5a.834.834,0,0,0,0-1.667h-3.333a.834.834,0,1,0,0,1.667Z" fill="#ffd947"/>
    <path id="Trazado_150410" data-name="Trazado 150410" d="M239.333,252.667a.833.833,0,0,0-.833-.834h-3.333a.834.834,0,1,0,0,1.667H238.5A.833.833,0,0,0,239.333,252.667Z" fill="#ffd947"/>
    <path id="Trazado_150411" data-name="Trazado 150411" d="M238.5,256a.833.833,0,0,0-.833-.833h-2.5a.833.833,0,1,0,0,1.666h2.5A.833.833,0,0,0,238.5,256Z" fill="#ffd947"/>
    <path id="Trazado_150412" data-name="Trazado 150412" d="M235.167,258.5a.833.833,0,1,0,0,1.667h1.666a.833.833,0,1,0,0-1.667Z" fill="#ffd947"/>
  </g>
</svg>
