<svg id="Capa_2" data-name="Capa 2" xmlns="http://www.w3.org/2000/svg" width="65.93" height="65.93" viewBox="0 0 65.93 65.93">
  <g id="Capa_1-2" data-name="Capa 1-2">
    <path id="Trazado_54783" data-name="Trazado 54783" d="M62.64,65.93H3.29A3.3,3.3,0,0,1,0,62.64V3.29A3.3,3.3,0,0,1,3.29,0H62.64a3.3,3.3,0,0,1,3.29,3.29V62.64A3.3,3.3,0,0,1,62.64,65.93Z" fill="#d7e9ff"/>
    <path id="Trazado_54784" data-name="Trazado 54784" d="M65.93,3.29A3.3,3.3,0,0,0,62.64,0H3.29A3.3,3.3,0,0,0,0,3.29V16.58H65.93Z" fill="#2d3c74"/>
    <path id="Trazado_54785" data-name="Trazado 54785" d="M52.2,7.32a2.63,2.63,0,1,1-2.63-2.63h.01A2.62,2.62,0,0,1,52.2,7.31Z" fill="#fdbf00"/>
    <path id="Trazado_54786" data-name="Trazado 54786" d="M60,7.32a2.62,2.62,0,1,1,0-.02Z" fill="#00dec2"/>
    <path id="Trazado_54787" data-name="Trazado 54787" d="M44.41,7.32a2.63,2.63,0,1,1-2.63-2.63,2.629,2.629,0,0,1,2.63,2.63Z" fill="#f13700"/>
    <path id="Trazado_54788" data-name="Trazado 54788" d="M36.1,25.11h0a17.606,17.606,0,0,0-3.1-.28,16.612,16.612,0,0,0-3.1.28h0a17,17,0,1,0,6.2,0Z" fill="#a3d8f5"/>
    <path id="Trazado_54789" data-name="Trazado 54789" d="M46,39.65H40.67a37.582,37.582,0,0,0-1.45-9.41A12.94,12.94,0,0,1,46,39.65Z" fill="#00cbf3"/>
    <path id="Trazado_54790" data-name="Trazado 54790" d="M34.5,28.78c1.26,2.4,2.11,6.43,2.31,10.87H29.13c.19-4.44,1-8.47,2.3-10.87a13.128,13.128,0,0,1,3.07,0Z" fill="#00cbf3"/>
    <path id="Trazado_54791" data-name="Trazado 54791" d="M26.71,30.24a37.582,37.582,0,0,0-1.45,9.41H19.93A12.94,12.94,0,0,1,26.71,30.24Z" fill="#00cbf3"/>
    <path id="Trazado_54792" data-name="Trazado 54792" d="M19.93,43.51h5.33a37.72,37.72,0,0,0,1.45,9.41A12.94,12.94,0,0,1,19.93,43.51Z" fill="#00cbf3"/>
    <path id="Trazado_54793" data-name="Trazado 54793" d="M31.43,54.37C30.17,52,29.32,48,29.13,43.51h7.68c-.2,4.44-1.05,8.47-2.3,10.86A13.22,13.22,0,0,1,31.43,54.37Z" fill="#00cbf3"/>
    <path id="Trazado_54794" data-name="Trazado 54794" d="M39.22,52.92a37.72,37.72,0,0,0,1.45-9.41H46A12.94,12.94,0,0,1,39.22,52.92Z" fill="#00cbf3"/>
    <path id="Trazado_54795" data-name="Trazado 54795" d="M54.65,35.69H11.28A1.271,1.271,0,0,0,10,36.949c0,.017,0,.034,0,.051V47.71A1.27,1.27,0,0,0,11.25,49h43.4a1.271,1.271,0,0,0,1.27-1.27V37a1.269,1.269,0,0,0-1.229-1.309Z" fill="#f6c358"/>
    <path id="Trazado_54796" data-name="Trazado 54796" d="M54.65,34.17H11.28A1.271,1.271,0,0,0,10,35.43V46.19a1.271,1.271,0,0,0,1.26,1.28H54.65a1.271,1.271,0,0,0,1.27-1.27V35.44a1.271,1.271,0,0,0-1.27-1.27Z" fill="#fcd462"/>
    <path id="Trazado_54797" data-name="Trazado 54797" d="M17.18,44.91h-2l-2.83-8.19h1.78l2,6.19,2-6.19H20l2,6.19,2-6.19h1.79L23,44.91H21l-1.94-5.6Z" fill="#2f4859"/>
    <path id="Trazado_54798" data-name="Trazado 54798" d="M31,44.91H29l-2.83-8.19H28l2,6.19,2-6.19h1.79l2,6.19,2-6.19h1.78l-2.83,8.19h-2L33,39.31Z" fill="#2f4859"/>
    <path id="Trazado_54799" data-name="Trazado 54799" d="M44.87,44.91h-2l-2.84-8.19h1.79l2,6.19,2-6.19H47.7l2,6.19,2-6.19h1.79l-2.84,8.19h-2l-1.94-5.6Z" fill="#2f4859"/>
  </g>
</svg>
