<svg xmlns="http://www.w3.org/2000/svg" width="610" height="339" viewBox="0 0 610 339">
  <g id="Grupo_63723" data-name="Grupo 63723" transform="translate(-810 -441)">
    <rect id="Rectángulo_5174" data-name="Rectángulo 5174" width="610" height="339" transform="translate(810 441)" fill="#fdd835" opacity="0.2"/>
    <g id="Grupo_53839" data-name="Grupo 53839" transform="translate(701.227 25.168)">
      <g id="Grupo_53832" data-name="Grupo 53832" transform="translate(261.009 448.797)">
        <g id="Grupo_53829" data-name="Grupo 53829" transform="translate(4.238 17.482)">
          <path id="Trazado_100512" data-name="Trazado 100512" d="M433.068,714.1a2.2,2.2,0,0,1-1.1-.291L260.031,616.034a2.222,2.222,0,0,1-1.125-1.932V459.566a2.224,2.224,0,0,1,4.449,0V612.807L434.17,709.939a2.223,2.223,0,0,1-1.1,4.157Z" transform="translate(-258.906 -457.342)" fill="#00897b"/>
        </g>
        <g id="Grupo_53830" data-name="Grupo 53830">
          <path id="Trazado_100513" data-name="Trazado 100513" d="M256.048,469.666l6.462-24.113,6.462,24.113Z" transform="translate(-256.048 -445.553)" fill="#00897b"/>
        </g>
        <g id="Grupo_53831" data-name="Grupo 53831" transform="translate(171.377 264.215)">
          <path id="Trazado_100514" data-name="Trazado 100514" d="M371.62,634.967l24.156,6.3-17.767-17.537Z" transform="translate(-371.62 -623.732)" fill="#00897b"/>
        </g>
      </g>
      <g id="Grupo_53836" data-name="Grupo 53836" transform="translate(266.175 475.675)">
        <g id="Grupo_53833" data-name="Grupo 53833" transform="translate(0 8.244)">
          <path id="Trazado_100515" data-name="Trazado 100515" d="M542.338,609.655H261.755a2.225,2.225,0,0,1-1.182-4.109l216.863-135.97a2.225,2.225,0,1,1,2.364,3.769L269.491,605.207H542.338a2.224,2.224,0,1,1,0,4.449Z" transform="translate(-259.531 -469.237)" fill="#00897b"/>
        </g>
        <g id="Grupo_53834" data-name="Grupo 53834" transform="translate(211.919)">
          <path id="Trazado_100516" data-name="Trazado 100516" d="M402.444,471.012l23.862-7.334-17,18.284Z" transform="translate(-402.444 -463.678)" fill="#00897b"/>
        </g>
        <g id="Grupo_53835" data-name="Grupo 53835" transform="translate(278.399 139.975)">
          <path id="Trazado_100517" data-name="Trazado 100517" d="M447.276,571l24.113-6.462-24.113-6.462Z" transform="translate(-447.276 -558.073)" fill="#00897b"/>
        </g>
      </g>
      <path id="Trazado_110168" data-name="Trazado 110168" d="M2.84-1.63l.021.051H9.2L8.962,0H.144L.359-1.415,7.516-9.444,7.5-9.5H1.641l.236-1.6h8.4l-.205,1.374Z" transform="translate(245.773 458.833)"/>
      <path id="Trazado_110171" data-name="Trazado 110171" d="M4.655-4.112l.154,1.395.062.01,3.979-8.388h2.246L4.512,1.7A7.207,7.207,0,0,1,3.01,3.65a3.2,3.2,0,0,1-2.24.831,4.168,4.168,0,0,1-.6-.056q-.369-.056-.574-.108L.031,2.728a2.712,2.712,0,0,1,.374.021q.405.031.518.031a1.521,1.521,0,0,0,1.143-.6A6.714,6.714,0,0,0,2.943.933L3.609-.226l-2.5-10.869H3.363Z" transform="translate(458.941 722.049)"/>
      <path id="Trazado_110169" data-name="Trazado 110169" d="M7.291-9.311,6.265-9.372a2.494,2.494,0,0,0-1.395.395A3.268,3.268,0,0,0,3.845-7.865L2.666,0H.646L2.307-11.095h1.8L4.071-9.526a4.662,4.662,0,0,1,1.354-1.307A3.129,3.129,0,0,1,7.1-11.3a2.524,2.524,0,0,1,.426.036,2.346,2.346,0,0,1,.333.077Z" transform="translate(388.503 570.05)"/>
      <path id="Trazado_110167" data-name="Trazado 110167" d="M3.835-5.988,2.943,0H.923L3.158-14.93H8.87a4.591,4.591,0,0,1,3.481,1.241,3.667,3.667,0,0,1,.9,3.23,5.008,5.008,0,0,1-1.81,3.292,6.081,6.081,0,0,1-3.9,1.179Zm.236-1.579h3.7a3.358,3.358,0,0,0,2.358-.825,3.378,3.378,0,0,0,1.087-2.046,2.681,2.681,0,0,0-.436-2.092,2.546,2.546,0,0,0-2.148-.81H4.942Z" transform="translate(518.257 464.393)"/>
      <path id="Trazado_110172" data-name="Trazado 110172" d="M5.455-7l2.974-4.091h2.287l.031.051L6.368-5.609,9.229,0H6.911L5.076-4.194,1.989,0H-.277L-.308-.051l4.5-5.558L1.415-11.095H3.743Z" transform="translate(568.305 640.488)"/>
      <path id="Trazado_110170" data-name="Trazado 110170" d="M10.127-5.02a6.544,6.544,0,0,1-1.8,3.862A4.86,4.86,0,0,1,4.824.205,3.578,3.578,0,0,1,1.777-1.216a4.907,4.907,0,0,1-.7-3.8L1.7-9.2a6.5,6.5,0,0,1,1.8-3.853A4.863,4.863,0,0,1,7-14.424,3.558,3.558,0,0,1,10.049-13a4.959,4.959,0,0,1,.7,3.8ZM8.887-9.6a3.574,3.574,0,0,0-.312-2.451,1.977,1.977,0,0,0-1.807-.859,2.654,2.654,0,0,0-2.017.9A4.444,4.444,0,0,0,3.682-9.6L2.939-4.629a3.556,3.556,0,0,0,.308,2.461,1.972,1.972,0,0,0,1.8.869,2.658,2.658,0,0,0,2.026-.9A4.482,4.482,0,0,0,8.145-4.629Z" transform="translate(245.773 626.513)"/>
      <g id="Grupo_53837" data-name="Grupo 53837" transform="translate(339.393 466.393)">
        <path id="Trazado_100518" data-name="Trazado 100518" d="M311.132,514.339a2.224,2.224,0,0,1-1.489-3.878c.282-.252,28.634-25.5,72.106-40.991,40.2-14.324,101.936-23.067,167.8,16.642a2.224,2.224,0,0,1-2.3,3.81c-64.306-38.774-124.6-30.271-163.853-16.315-42.689,15.179-70.5,39.913-70.776,40.16A2.216,2.216,0,0,1,311.132,514.339Z" transform="translate(-308.908 -457.418)" fill="#00897b"/>
      </g>
      <g id="Grupo_53838" data-name="Grupo 53838" transform="translate(501.215 463.812)">
        <circle id="Elipse_4052" data-name="Elipse 4052" cx="6.488" cy="6.488" r="6.488" transform="translate(0.741 0.741)" fill="#fff"/>
        <path id="Trazado_100519" data-name="Trazado 100519" d="M425.265,470.136a7.229,7.229,0,1,1,7.229-7.229A7.237,7.237,0,0,1,425.265,470.136Zm0-12.975a5.746,5.746,0,1,0,5.746,5.746A5.752,5.752,0,0,0,425.265,457.161Z" transform="translate(-418.036 -455.678)" fill="#00897b"/>
      </g>
    </g>
  </g>
</svg>
