<svg xmlns="http://www.w3.org/2000/svg" width="715" height="400" viewBox="0 0 715 400">
  <g id="Grupo_63727" data-name="Grupo 63727" transform="translate(-606 -513)">
    <rect id="dylan-shaw-UxyWwU6n_ts-unsplash" width="715" height="400" transform="translate(606 513)" fill="#f3f9ff"/>
    <g id="Grupo_55248" data-name="Grupo 55248" transform="translate(30.488 -316.273)">
      <g id="Grupo_55244" data-name="Grupo 55244" transform="translate(917.256 872.511)">
        <g id="Grupo_55242" data-name="Grupo 55242" transform="translate(4.481 7.742)">
          <rect id="Rect치ngulo_5254" data-name="Rect치ngulo 5254" width="1.798" height="327.621"/>
        </g>
        <g id="Grupo_55243" data-name="Grupo 55243">
          <path id="Trazado_100966" data-name="Trazado 100966" d="M935.016,884.316,940.4,875l5.38,9.316Z" transform="translate(-935.016 -875)"/>
        </g>
      </g>
      <g id="Grupo_55247" data-name="Grupo 55247" transform="translate(759 1037.961)">
        <g id="Grupo_55245" data-name="Grupo 55245" transform="translate(0 4.48)">
          <rect id="Rect치ngulo_5255" data-name="Rect치ngulo 5255" width="326.722" height="1.798"/>
        </g>
        <g id="Grupo_55246" data-name="Grupo 55246" transform="translate(325.148 0)">
          <path id="Trazado_100967" data-name="Trazado 100967" d="M1120.638,1069.776l9.316-5.379-9.316-5.38Z" transform="translate(-1120.638 -1059.017)"/>
        </g>
      </g>
      <path id="Trazado_110180" data-name="Trazado 110180" d="M3.891-4.6,6.3-9.242H7.687L4.5-3.447V0H3.282V-3.447L.1-9.242h1.4Z" transform="translate(920.19 862.336)"/>
      <path id="Trazado_110179" data-name="Trazado 110179" d="M4.088-5.7,6.3-9.242H7.738L4.818-4.659,7.808,0H6.36L4.088-3.605,1.8,0H.362l3-4.659L.432-9.242H1.86Z" transform="translate(1098.211 1048.449)"/>
      <text id="O" transform="translate(908.501 1059.138)" font-size="12" font-family="Roboto-Italic, Roboto" font-style="italic"><tspan x="0" y="0">O</tspan></text>
      <path id="Trazado_110174" data-name="Trazado 110174" d="M-1.6,0H-3.287V-12.8H-1.6ZM3.3,0H1.608V-12.8H3.3Z" transform="translate(839.985 953.373)"/>
      <text id="_-_" data-name="( -, + )" transform="translate(839.206 977.499)" font-size="18" font-family="Roboto-Regular, Roboto"><tspan x="-22.241" y="0">( -, + )</tspan></text>
      <path id="Trazado_110175" data-name="Trazado 110175" d="M-4.047,0H-5.735V-12.8h1.688Zm4.9,0H-.839V-12.8H.848Zm4.9,0H4.056V-12.8H5.744Z" transform="translate(840.288 1117.908)"/>
      <path id="Trazado_110176" data-name="Trazado 110176" d="M-18.453-5.194a13.589,13.589,0,0,1,.532-3.814,11.081,11.081,0,0,1,1.586-3.322,6.749,6.749,0,0,1,2.188-2.109l.334,1.072a7,7,0,0,0-2.1,3.006,13.031,13.031,0,0,0-.9,4.526l-.009.747A13.1,13.1,0,0,0-15.587.8a7.033,7.033,0,0,0,1.775,2.338l-.334.993a6.966,6.966,0,0,1-2.232-2.18A12.217,12.217,0,0,1-18.453-5.194ZM-4.4-4.772H-8.688V-6.1H-4.4ZM-2.87,2.549l-.923-.633A4.241,4.241,0,0,0-2.931-.457V-1.925H-1.34V-.65a4,4,0,0,1-.435,1.775A4.156,4.156,0,0,1-2.87,2.549ZM8.556-4.772H4.267V-6.1H8.556Zm9.791-.334a13.6,13.6,0,0,1-.514,3.757A11.11,11.11,0,0,1,16.26,1.969a6.893,6.893,0,0,1-2.219,2.162L13.7,3.138A7.066,7.066,0,0,0,15.873-.083a13.935,13.935,0,0,0,.839-4.847v-.281a14.469,14.469,0,0,0-.387-3.432,11.583,11.583,0,0,0-1.077-2.843,6.567,6.567,0,0,0-1.551-1.96l.343-.993a6.866,6.866,0,0,1,2.21,2.145,11.134,11.134,0,0,1,1.573,3.313A13.909,13.909,0,0,1,18.347-5.106Z" transform="translate(839.105 1142.034)"/>
      <path id="Trazado_110178" data-name="Trazado 110178" d="M-4.047,0H-5.735V-12.8h1.688Zm4.9,0H-.839V-12.8H.848Zm4.9,0H4.056V-12.8H5.744Z" transform="translate(1003.924 1117.908)"/>
      <path id="Trazado_110177" data-name="Trazado 110177" d="M-21.072-5.194a13.589,13.589,0,0,1,.532-3.814,11.081,11.081,0,0,1,1.586-3.322,6.749,6.749,0,0,1,2.188-2.109l.334,1.072a7,7,0,0,0-2.1,3.006,13.031,13.031,0,0,0-.9,4.526l-.009.747A13.1,13.1,0,0,0-18.207.8a7.033,7.033,0,0,0,1.775,2.338l-.334.993A6.966,6.966,0,0,1-19,1.951,12.217,12.217,0,0,1-21.072-5.194Zm15.328-1.67h3.568v1.538H-5.744v4.043H-7.378V-5.326h-3.568V-6.864h3.568V-10.6h1.635ZM-.25,2.549l-.923-.633A4.241,4.241,0,0,0-.312-.457V-1.925H1.279V-.65A4,4,0,0,1,.844,1.125,4.156,4.156,0,0,1-.25,2.549ZM11.175-4.772H6.886V-6.1h4.289Zm9.791-.334a13.6,13.6,0,0,1-.514,3.757,11.11,11.11,0,0,1-1.573,3.318A6.893,6.893,0,0,1,16.66,4.131l-.343-.993A7.066,7.066,0,0,0,18.492-.083a13.935,13.935,0,0,0,.839-4.847v-.281a14.469,14.469,0,0,0-.387-3.432,11.583,11.583,0,0,0-1.077-2.843,6.567,6.567,0,0,0-1.551-1.96l.343-.993A6.866,6.866,0,0,1,18.87-12.3a11.134,11.134,0,0,1,1.573,3.313A13.909,13.909,0,0,1,20.966-5.106Z" transform="translate(1002.841 1142.034)"/>
      <path id="Trazado_110173" data-name="Trazado 110173" d="M3.3,0H1.608V-12.8H3.3Z" transform="translate(1000.419 953.373)"/>
      <text id="_" data-name="( +, + )" transform="translate(978.674 977.499)" font-size="18" font-family="Roboto-Regular, Roboto"><tspan x="0" y="0">( +, + )</tspan></text>
    </g>
  </g>
</svg>
