<svg xmlns="http://www.w3.org/2000/svg" width="715" height="400" viewBox="0 0 715 400">
  <g id="Grupo_55644" data-name="Grupo 55644" transform="translate(-606 -937)">
    <rect id="dylan-shaw-UxyWwU6n_ts-unsplash" width="715" height="400" transform="translate(606 937)" fill="#f3f9ff"/>
    <g id="Grupo_55641" data-name="Grupo 55641" transform="translate(648.222 904.449)">
      <g id="Background_Complete" data-name="Background Complete" transform="translate(55.982 115.77)">
        <g id="Grupo_55266" data-name="Grupo 55266" transform="translate(483.972 51.432)">
          <g id="Grupo_55252" data-name="Grupo 55252" transform="translate(17.991)">
            <g id="Grupo_55251" data-name="Grupo 55251">
              <path id="Trazado_100968" data-name="Trazado 100968" d="M683.407,178.569a11.209,11.209,0,0,1,2.871,8.292A19.777,19.777,0,0,1,683.6,195.4c-2.8,5.1-8.063,9.25-13.092,12.179-2.888-5.782-1.106-13.065.03-16.7,1.8-5.75,8.532-15.051,12.865-12.3" transform="translate(-668.948 -178.073)" fill="#ebebeb"/>
            </g>
          </g>
          <g id="Grupo_55254" data-name="Grupo 55254" transform="translate(21.163 32.632)">
            <g id="Grupo_55253" data-name="Grupo 55253">
              <path id="Trazado_100969" data-name="Trazado 100969" d="M672.79,225.452a9.561,9.561,0,0,1,6.313-7.232,12.7,12.7,0,0,1,9.773.854,5.345,5.345,0,0,1,3.1,3.27,4.089,4.089,0,0,1-1.517,3.857,8.291,8.291,0,0,1-3.986,1.628c-4.909.845-9.815.762-13.684-2.377" transform="translate(-672.79 -217.602)" fill="#ebebeb"/>
            </g>
          </g>
          <g id="Grupo_55257" data-name="Grupo 55257" transform="translate(8.644 37.916)">
            <g id="Grupo_55256" data-name="Grupo 55256">
              <g id="Grupo_55255" data-name="Grupo 55255">
                <path id="Trazado_100970" data-name="Trazado 100970" d="M657.628,240.6a6.906,6.906,0,0,1,.612-1.032c.46-.714,1.052-1.637,1.766-2.746a33.577,33.577,0,0,1,6.966-8.229,20.546,20.546,0,0,1,9.783-4.438,13.922,13.922,0,0,1,3.281-.087,8.323,8.323,0,0,1,.883.125c.2.037.3.063.3.078a21.8,21.8,0,0,0-4.421.178,21.211,21.211,0,0,0-9.566,4.473,36.114,36.114,0,0,0-6.981,8.066c-.784,1.133-1.421,2.051-1.877,2.672A6.294,6.294,0,0,1,657.628,240.6Z" transform="translate(-657.626 -224.004)" fill="#e0e0e0"/>
              </g>
            </g>
          </g>
          <g id="Grupo_55260" data-name="Grupo 55260" transform="translate(8.272 8.032)">
            <g id="Grupo_55259" data-name="Grupo 55259">
              <g id="Grupo_55258" data-name="Grupo 55258">
                <path id="Trazado_100971" data-name="Trazado 100971" d="M676.849,187.8a2.441,2.441,0,0,1-.142.5l-.485,1.412c-.428,1.223-1.07,2.986-1.881,5.158-1.623,4.342-3.949,10.311-6.665,16.843s-5.314,12.39-7.25,16.6c-.968,2.107-1.766,3.8-2.332,4.97l-.66,1.339a2.4,2.4,0,0,1-.256.455,2.438,2.438,0,0,1,.178-.49l.589-1.372c.542-1.235,1.292-2.939,2.208-5.024,1.866-4.241,4.416-10.113,7.133-16.642s5.083-12.474,6.776-16.788c.833-2.12,1.514-3.853,2.007-5.108l.559-1.384A2.413,2.413,0,0,1,676.849,187.8Z" transform="translate(-657.175 -187.803)" fill="#e0e0e0"/>
              </g>
            </g>
          </g>
          <g id="Grupo_55262" data-name="Grupo 55262" transform="translate(0 18.575)">
            <g id="Grupo_55261" data-name="Grupo 55261">
              <path id="Trazado_100972" data-name="Trazado 100972" d="M659.186,222.534a22.361,22.361,0,0,0-5.068-19.795c-1.209-1.34-2.98-2.619-4.677-2.008s-2.25,2.739-2.283,4.545A19.107,19.107,0,0,0,658.9,222.931" transform="translate(-647.154 -200.575)" fill="#ebebeb"/>
            </g>
          </g>
          <g id="Grupo_55265" data-name="Grupo 55265" transform="translate(5.606 26.112)">
            <g id="Grupo_55264" data-name="Grupo 55264">
              <g id="Grupo_55263" data-name="Grupo 55263">
                <path id="Trazado_100973" data-name="Trazado 100973" d="M653.948,209.7a5.813,5.813,0,0,1,.784.81,10.92,10.92,0,0,1,.844,1.02c.3.419.688.867,1.02,1.427a19.665,19.665,0,0,1,1.086,1.83A22.243,22.243,0,0,1,658.732,217a24.891,24.891,0,0,1,1.5,5.395,24.382,24.382,0,0,1,.149,5.6,21.3,21.3,0,0,1-.376,2.418,17.937,17.937,0,0,1-.532,2.062,16.624,16.624,0,0,1-.591,1.653,10.2,10.2,0,0,1-.539,1.209,5.76,5.76,0,0,1-.542.988c-.087-.04.676-1.461,1.386-3.934a19.372,19.372,0,0,0,.475-2.046,22.361,22.361,0,0,0,.331-2.385,25.368,25.368,0,0,0-.178-5.5,25.907,25.907,0,0,0-1.445-5.312,23.183,23.183,0,0,0-1-2.192c-.323-.684-.7-1.28-1.029-1.833C654.98,210.94,653.878,209.765,653.948,209.7Z" transform="translate(-653.945 -209.704)" fill="#e0e0e0"/>
              </g>
            </g>
          </g>
        </g>
        <g id="Grupo_55290" data-name="Grupo 55290">
          <g id="Grupo_55268" data-name="Grupo 55268">
            <g id="Grupo_55267" data-name="Grupo 55267">
              <path id="Trazado_100974" data-name="Trazado 100974" d="M64.332,116.243s-7.6,2.449-.229,18.733S76.72,159.4,76.72,159.4s1.266,3.759-1.869,4.187-9.927-.986-11.49,2.752c-1.621,3.877,1.069,7.733,6.724,11.269s17.762,11.74,18.854,12.487c1.072.732,2.1,2.5.009,3.136s-17.556,1.516-16.7,8.831,18.233,14.579,20.117,15.41,2.3,1.665,2.1,2.712-5.433.852-9.822,1.284-9.4,1.7-8.553,5.879S87,240.692,112.308,244.378l11.839.94,6.923-9.714c13.549-21.69,13.06-35.294,10.421-38.643s-6.849-.345-10.016,2.724-6.4,7.182-7.33,6.663-1.3-1.379-.712-3.354,6.275-19.925,1.25-25.309-15.7,5.846-17.533,7.03-2.52-.744-2.386-2.035c.136-1.315,1.7-15.855,2.662-22.456s-.244-11.146-4.25-12.416c-3.863-1.223-7.176,4.871-9.529,6.986s-4.4-1.281-4.4-1.281-2.813-9.266-10.474-25.414-14.59-11.8-14.59-11.8" transform="translate(-60.887 -115.77)" fill="#ebebeb"/>
            </g>
          </g>
          <g id="Grupo_55271" data-name="Grupo 55271" transform="translate(10.018 15.068)">
            <g id="Grupo_55270" data-name="Grupo 55270">
              <g id="Grupo_55269" data-name="Grupo 55269">
                <path id="Trazado_100975" data-name="Trazado 100975" d="M126.747,251.322c-5.58-11.882-15.142-33.165-23.447-51.4S87.467,165.209,81.948,153.3c-2.761-5.941-5-10.753-6.55-14.1-.767-1.654-1.365-2.944-1.779-3.835-.194-.429-.345-.762-.454-1s-.143-.346-.143-.346.065.109.177.33.278.562.487.985l1.841,3.8c1.6,3.306,3.869,8.106,6.657,14.048,5.58,11.882,13.15,28.359,21.452,46.583s17.829,39.53,23.347,51.439" transform="translate(-73.022 -134.023)" fill="#e0e0e0"/>
              </g>
            </g>
          </g>
          <g id="Grupo_55274" data-name="Grupo 55274" transform="translate(11.896 52.924)">
            <g id="Grupo_55273" data-name="Grupo 55273">
              <g id="Grupo_55272" data-name="Grupo 55272">
                <path id="Trazado_100976" data-name="Trazado 100976" d="M75.3,179.883a3.864,3.864,0,0,1,.816.269c.518.193,1.256.5,2.167.877,1.819.766,4.3,1.887,7.023,3.175l6.95,3.321,2.112.993a3.8,3.8,0,0,1,.762.4,3.876,3.876,0,0,1-.818-.263c-.517-.195-1.257-.5-2.163-.887-1.812-.784-4.281-1.938-7-3.225l-6.971-3.27-2.117-.983A3.81,3.81,0,0,1,75.3,179.883Z" transform="translate(-75.298 -179.88)" fill="#e0e0e0"/>
              </g>
            </g>
          </g>
          <g id="Grupo_55277" data-name="Grupo 55277" transform="translate(32.569 38.041)">
            <g id="Grupo_55276" data-name="Grupo 55276">
              <g id="Grupo_55275" data-name="Grupo 55275">
                <path id="Trazado_100977" data-name="Trazado 100977" d="M100.343,185.048c-.094-.04,1.993-5.264,4.662-11.669s4.908-11.567,5-11.528-1.993,5.263-4.662,11.67S100.437,185.087,100.343,185.048Z" transform="translate(-100.34 -161.851)" fill="#e0e0e0"/>
              </g>
            </g>
          </g>
          <g id="Grupo_55280" data-name="Grupo 55280" transform="translate(44.06 71.937)">
            <g id="Grupo_55279" data-name="Grupo 55279">
              <g id="Grupo_55278" data-name="Grupo 55278">
                <path id="Trazado_100978" data-name="Trazado 100978" d="M114.261,220.778a4.01,4.01,0,0,1,.516-.709l1.5-1.857c1.26-1.568,2.99-3.741,4.812-6.21s3.4-4.753,4.532-6.418l1.338-1.972a4,4,0,0,1,.527-.7,4.049,4.049,0,0,1-.405.778c-.282.488-.7,1.186-1.242,2.038-1.074,1.7-2.621,4.023-4.454,6.5s-3.6,4.629-4.908,6.157c-.66.762-1.2,1.372-1.587,1.783A4.038,4.038,0,0,1,114.261,220.778Z" transform="translate(-114.259 -202.911)" fill="#e0e0e0"/>
              </g>
            </g>
          </g>
          <g id="Grupo_55283" data-name="Grupo 55283" transform="translate(23.705 86.393)">
            <g id="Grupo_55282" data-name="Grupo 55282">
              <g id="Grupo_55281" data-name="Grupo 55281">
                <path id="Trazado_100979" data-name="Trazado 100979" d="M89.6,220.434a3.371,3.371,0,0,1,.809.052l2.187.277c1.843.25,4.386.621,7.191,1.053s5.343.844,7.176,1.159l2.168.393a3.483,3.483,0,0,1,.788.194,3.374,3.374,0,0,1-.809-.052l-2.186-.277c-1.844-.249-4.387-.62-7.193-1.052s-5.342-.843-7.175-1.159l-2.169-.393A3.432,3.432,0,0,1,89.6,220.434Z" transform="translate(-89.602 -220.423)" fill="#e0e0e0"/>
              </g>
            </g>
          </g>
          <g id="Grupo_55286" data-name="Grupo 55286" transform="translate(30.643 112.902)">
            <g id="Grupo_55285" data-name="Grupo 55285">
              <g id="Grupo_55284" data-name="Grupo 55284">
                <path id="Trazado_100980" data-name="Trazado 100980" d="M98.007,252.544a5.536,5.536,0,0,1,1.035.077l2.8.344c2.364.307,5.628.757,9.228,1.276s6.858,1.01,9.214,1.382l2.786.461a5.47,5.47,0,0,1,1.014.219,5.625,5.625,0,0,1-1.034-.077l-2.8-.345c-2.365-.307-5.628-.756-9.229-1.275s-6.857-1.01-9.212-1.383l-2.786-.461A5.67,5.67,0,0,1,98.007,252.544Z" transform="translate(-98.007 -252.535)" fill="#e0e0e0"/>
              </g>
            </g>
          </g>
          <g id="Grupo_55289" data-name="Grupo 55289" transform="translate(56.123 93.282)">
            <g id="Grupo_55288" data-name="Grupo 55288">
              <g id="Grupo_55287" data-name="Grupo 55287">
                <path id="Trazado_100981" data-name="Trazado 100981" d="M128.874,251.891a6.316,6.316,0,0,1,.631-.915l1.81-2.422c1.526-2.046,3.624-4.88,5.85-8.074s4.177-6.133,5.57-8.272l1.651-2.533a6.358,6.358,0,0,1,.642-.907,6.437,6.437,0,0,1-.519.982c-.356.62-.883,1.509-1.554,2.6-1.338,2.177-3.252,5.147-5.488,8.343s-4.364,6.014-5.945,8.022c-.793,1-1.444,1.805-1.905,2.351A6.441,6.441,0,0,1,128.874,251.891Z" transform="translate(-128.872 -228.769)" fill="#e0e0e0"/>
              </g>
            </g>
          </g>
        </g>
      </g>
      <g id="Floor" transform="translate(38.77 386.582)">
        <g id="Grupo_55292" data-name="Grupo 55292" transform="translate(0)">
          <g id="Grupo_55291" data-name="Grupo 55291">
            <path id="Trazado_100982" data-name="Trazado 100982" d="M593.071,444.038c0,.119-123.811.215-276.5.215-152.746,0-276.531-.1-276.531-.215s123.784-.215,276.531-.215C469.259,443.823,593.071,443.919,593.071,444.038Z" transform="translate(-40.036 -443.823)" fill="#263238"/>
          </g>
        </g>
      </g>
      <g id="Car" transform="translate(77.94 185.183)">
        <g id="Grupo_55452" data-name="Grupo 55452">
          <g id="Grupo_55448" data-name="Grupo 55448">
            <g id="Grupo_55297" data-name="Grupo 55297" transform="translate(28.699 90.199)">
              <g id="Grupo_55294" data-name="Grupo 55294">
                <g id="Grupo_55293" data-name="Grupo 55293">
                  <rect id="Rect치ngulo_5256" data-name="Rect치ngulo 5256" width="458.009" height="67.203" fill="#4dd0e1"/>
                </g>
              </g>
              <g id="Grupo_55296" data-name="Grupo 55296" opacity="0.5">
                <g id="Grupo_55295" data-name="Grupo 55295">
                  <rect id="Rect치ngulo_5257" data-name="Rect치ngulo 5257" width="458.009" height="67.203"/>
                </g>
              </g>
            </g>
            <g id="Grupo_55328" data-name="Grupo 55328" transform="translate(43.213 109.925)">
              <g id="Grupo_55303" data-name="Grupo 55303">
                <g id="Grupo_55302" data-name="Grupo 55302">
                  <g id="Grupo_55301" data-name="Grupo 55301">
                    <g id="Grupo_55300" data-name="Grupo 55300">
                      <g id="Grupo_55299" data-name="Grupo 55299">
                        <g id="Grupo_55298" data-name="Grupo 55298">
                          <circle id="Elipse_4069" data-name="Elipse 4069" cx="44.164" cy="44.164" r="44.164" transform="translate(0 5.929) rotate(-3.849)" fill="#263238"/>
                        </g>
                      </g>
                    </g>
                  </g>
                </g>
              </g>
              <g id="Grupo_55309" data-name="Grupo 55309" transform="translate(2.865 46.279)">
                <g id="Grupo_55308" data-name="Grupo 55308">
                  <g id="Grupo_55307" data-name="Grupo 55307">
                    <g id="Grupo_55306" data-name="Grupo 55306">
                      <g id="Grupo_55305" data-name="Grupo 55305">
                        <g id="Grupo_55304" data-name="Grupo 55304">
                          <path id="Trazado_100983" data-name="Trazado 100983" d="M143.315,389.075c0,.038-.007.075-.007.113a44.164,44.164,0,0,0,88.318,1.275c0-.039,0-.076,0-.114Z" transform="translate(-143.303 -389.075)" fill="#263238"/>
                        </g>
                      </g>
                    </g>
                  </g>
                </g>
              </g>
              <g id="Grupo_55315" data-name="Grupo 55315" transform="translate(16.024 16.023)">
                <g id="Grupo_55314" data-name="Grupo 55314">
                  <g id="Grupo_55313" data-name="Grupo 55313">
                    <g id="Grupo_55312" data-name="Grupo 55312">
                      <g id="Grupo_55311" data-name="Grupo 55311">
                        <g id="Grupo_55310" data-name="Grupo 55310">
                          <path id="Trazado_100984" data-name="Trazado 100984" d="M159.246,382.983a31.006,31.006,0,1,0,31.45-30.556A31.006,31.006,0,0,0,159.246,382.983Z" transform="translate(-159.243 -352.424)" fill="#fafafa"/>
                        </g>
                      </g>
                    </g>
                  </g>
                </g>
              </g>
              <g id="Grupo_55321" data-name="Grupo 55321" transform="translate(16.027 16.023)">
                <g id="Grupo_55320" data-name="Grupo 55320">
                  <g id="Grupo_55319" data-name="Grupo 55319">
                    <g id="Grupo_55318" data-name="Grupo 55318">
                      <g id="Grupo_55317" data-name="Grupo 55317">
                        <g id="Grupo_55316" data-name="Grupo 55316">
                          <path id="Trazado_100985" data-name="Trazado 100985" d="M190.7,352.427a31.006,31.006,0,0,0-31.45,30.556l62.005.895A31.006,31.006,0,0,0,190.7,352.427Z" transform="translate(-159.247 -352.424)" fill="#e0e0e0"/>
                        </g>
                      </g>
                    </g>
                  </g>
                </g>
              </g>
              <g id="Grupo_55327" data-name="Grupo 55327" transform="translate(28.142 28.142)">
                <g id="Grupo_55326" data-name="Grupo 55326">
                  <g id="Grupo_55325" data-name="Grupo 55325">
                    <g id="Grupo_55324" data-name="Grupo 55324">
                      <g id="Grupo_55323" data-name="Grupo 55323">
                        <g id="Grupo_55322" data-name="Grupo 55322">
                          <path id="Trazado_100986" data-name="Trazado 100986" d="M173.925,385.719a18.888,18.888,0,1,0,19.158-18.613A18.887,18.887,0,0,0,173.925,385.719Z" transform="translate(-173.923 -367.105)" fill="#263238"/>
                        </g>
                      </g>
                    </g>
                  </g>
                </g>
              </g>
            </g>
            <g id="Grupo_55359" data-name="Grupo 55359" transform="translate(381.317 110.31)">
              <g id="Grupo_55334" data-name="Grupo 55334">
                <g id="Grupo_55333" data-name="Grupo 55333">
                  <g id="Grupo_55332" data-name="Grupo 55332">
                    <g id="Grupo_55331" data-name="Grupo 55331">
                      <g id="Grupo_55330" data-name="Grupo 55330">
                        <g id="Grupo_55329" data-name="Grupo 55329">
                          <circle id="Elipse_4070" data-name="Elipse 4070" cx="44.164" cy="44.164" r="44.164" transform="matrix(0.998, -0.058, 0.058, 0.998, 0, 5.108)" fill="#263238"/>
                        </g>
                      </g>
                    </g>
                  </g>
                </g>
              </g>
              <g id="Grupo_55340" data-name="Grupo 55340" transform="translate(2.48 45.894)">
                <g id="Grupo_55339" data-name="Grupo 55339">
                  <g id="Grupo_55338" data-name="Grupo 55338">
                    <g id="Grupo_55337" data-name="Grupo 55337">
                      <g id="Grupo_55336" data-name="Grupo 55336">
                        <g id="Grupo_55335" data-name="Grupo 55335">
                          <path id="Trazado_100987" data-name="Trazado 100987" d="M552.416,389.075c0,.038-.007.075-.007.113a44.164,44.164,0,0,0,88.318,1.275c0-.039,0-.076,0-.114Z" transform="translate(-552.404 -389.075)" fill="#263238"/>
                        </g>
                      </g>
                    </g>
                  </g>
                </g>
              </g>
              <g id="Grupo_55346" data-name="Grupo 55346" transform="translate(15.639 15.638)">
                <g id="Grupo_55345" data-name="Grupo 55345">
                  <g id="Grupo_55344" data-name="Grupo 55344">
                    <g id="Grupo_55343" data-name="Grupo 55343">
                      <g id="Grupo_55342" data-name="Grupo 55342">
                        <g id="Grupo_55341" data-name="Grupo 55341">
                          <path id="Trazado_100988" data-name="Trazado 100988" d="M568.347,382.983a31.006,31.006,0,1,0,31.45-30.556A31.006,31.006,0,0,0,568.347,382.983Z" transform="translate(-568.344 -352.424)" fill="#fafafa"/>
                        </g>
                      </g>
                    </g>
                  </g>
                </g>
              </g>
              <g id="Grupo_55352" data-name="Grupo 55352" transform="translate(15.642 15.638)">
                <g id="Grupo_55351" data-name="Grupo 55351">
                  <g id="Grupo_55350" data-name="Grupo 55350">
                    <g id="Grupo_55349" data-name="Grupo 55349">
                      <g id="Grupo_55348" data-name="Grupo 55348">
                        <g id="Grupo_55347" data-name="Grupo 55347">
                          <path id="Trazado_100989" data-name="Trazado 100989" d="M599.8,352.427a31.006,31.006,0,0,0-31.45,30.556l62.005.895A31.006,31.006,0,0,0,599.8,352.427Z" transform="translate(-568.348 -352.424)" fill="#e0e0e0"/>
                        </g>
                      </g>
                    </g>
                  </g>
                </g>
              </g>
              <g id="Grupo_55358" data-name="Grupo 55358" transform="translate(27.757 27.757)">
                <g id="Grupo_55357" data-name="Grupo 55357">
                  <g id="Grupo_55356" data-name="Grupo 55356">
                    <g id="Grupo_55355" data-name="Grupo 55355">
                      <g id="Grupo_55354" data-name="Grupo 55354">
                        <g id="Grupo_55353" data-name="Grupo 55353">
                          <path id="Trazado_100990" data-name="Trazado 100990" d="M583.026,385.719a18.888,18.888,0,1,0,19.158-18.613A18.887,18.887,0,0,0,583.026,385.719Z" transform="translate(-583.024 -367.105)" fill="#263238"/>
                        </g>
                      </g>
                    </g>
                  </g>
                </g>
              </g>
            </g>
            <g id="Grupo_55361" data-name="Grupo 55361">
              <g id="Grupo_55360" data-name="Grupo 55360">
                <path id="Trazado_100991" data-name="Trazado 100991" d="M235.621,252.245s-65.035,4.8-89.14,10.2c-16.987,3.811-49.746,10.385-49.351,30.995l2.6,14.773s-12.154,5.55-12.154,19.711-2.967,36.13,25.4,37.008c4.674.145,13.553,0,13.553,0s-5.445-60.405,50.051-62.174c56.456-1.8,52.706,61.621,52.706,61.621H464.9s-9.671-61.788,51.1-61.875,51.528,62.278,51.528,62.278,22.357,1.935,32.759-16.855,7.7-32.164,7.7-32.164l-.344-11.875a7.69,7.69,0,0,0-7.391-7.461h0s4.061-29.9-2.169-35.081-40.386-36.4-40.386-36.4l1.627-1.021a3.831,3.831,0,0,0-.792-6.866c-12.966-4.459-38.605-13.281-44.634-15.39a11.012,11.012,0,0,0-2.8-.589c-3.6-.276-13.781-.921-32.477-1.12-22.778-.244-113.206,0-113.206,0s-31.12,2.559-48.458,10.191C298.729,218.177,235.621,252.245,235.621,252.245Z" transform="translate(-87.485 -199.855)" fill="#4dd0e1"/>
              </g>
            </g>
            <g id="Grupo_55364" data-name="Grupo 55364" transform="translate(6.671 126.142)" opacity="0.4">
              <g id="Grupo_55363" data-name="Grupo 55363">
                <g id="Grupo_55362" data-name="Grupo 55362">
                  <path id="Trazado_100992" data-name="Trazado 100992" d="M105.472,352.953c-2.358-.48-5.975-.527-7.772,1.073-1.336,1.187-1.69,3.107-1.893,4.883a20.936,20.936,0,0,0,.163,7.321,8.946,8.946,0,0,0,4.127,5.837,5.765,5.765,0,0,0,6.793-.812c1.532-1.638,1.708-4.1,1.668-6.34-.057-3.185.2-5.883-.388-9.014a4.4,4.4,0,0,0-.811-1.818,2.45,2.45,0,0,0-1.885-1.13" transform="translate(-95.566 -352.659)"/>
                </g>
              </g>
            </g>
            <g id="Grupo_55366" data-name="Grupo 55366" transform="translate(9.645 91.706)">
              <g id="Grupo_55365" data-name="Grupo 55365">
                <path id="Trazado_100993" data-name="Trazado 100993" d="M101.767,327.6c6.9.015,13.6-.38,20.489-.839a2.515,2.515,0,0,0,2.819-3.15c.033-3.7-.151-7.9-2.958-10.316-1.715-1.473-4.067-1.93-6.318-2.142a40.878,40.878,0,0,0-16.63,1.675Z" transform="translate(-99.169 -310.944)" fill="#fafafa"/>
              </g>
            </g>
            <g id="Grupo_55369" data-name="Grupo 55369" transform="translate(23.359 86.554)">
              <g id="Grupo_55368" data-name="Grupo 55368">
                <g id="Grupo_55367" data-name="Grupo 55367">
                  <path id="Trazado_100994" data-name="Trazado 100994" d="M248.023,380.785s-.026-.2-.054-.589-.065-.981-.114-1.732c-.084-1.538-.206-3.78-.364-6.664s-.354-6.432-.769-10.524a82.612,82.612,0,0,0-2.434-13.729,62.309,62.309,0,0,0-6.648-15.483,48.641,48.641,0,0,0-12.847-14.33c-11.144-7.923-26.19-12.4-41.932-12.6-15.781-.188-30.773,4.8-41.634,13.109a61.11,61.11,0,0,0-13.518,13.792,65.394,65.394,0,0,0-7.913,14.883,60.612,60.612,0,0,0-3.34,13.513,56.78,56.78,0,0,0-.405,10.514,52.992,52.992,0,0,0,.809,6.607q.2,1.111.31,1.707c.067.385.091.585.091.585s-.053-.194-.134-.576-.2-.962-.352-1.7a49.674,49.674,0,0,1-.892-6.614,56.078,56.078,0,0,1,.334-10.554,60.436,60.436,0,0,1,3.294-13.588,65.443,65.443,0,0,1,7.907-14.985,61.328,61.328,0,0,1,13.571-13.9c10.914-8.38,26.006-13.412,41.874-13.221,15.828.2,30.939,4.7,42.161,12.706a48.9,48.9,0,0,1,12.92,14.466,62.4,62.4,0,0,1,6.636,15.587,82.064,82.064,0,0,1,2.38,13.785c.393,4.1.561,7.646.7,10.54s.218,5.128.283,6.667c.031.753.055,1.33.072,1.734S248.023,380.785,248.023,380.785Z" transform="translate(-115.782 -304.704)" fill="#fff"/>
                </g>
              </g>
            </g>
            <g id="Grupo_55372" data-name="Grupo 55372" transform="translate(156.001 7.965)">
              <g id="Grupo_55371" data-name="Grupo 55371" transform="translate(0)">
                <g id="Grupo_55370" data-name="Grupo 55370">
                  <path id="Trazado_100995" data-name="Trazado 100995" d="M278.56,365.2s-.015-.167-.028-.494l-.053-1.464c-.04-1.3-.1-3.214-.177-5.707-.143-5.006-.352-12.332-.617-21.647s-.565-20.635-.92-33.6q-.131-4.863-.271-10.03a33.869,33.869,0,0,1,.225-5.245q.188-1.32.377-2.657l.546-2.662a53.64,53.64,0,0,1,3.674-10.576,52.889,52.889,0,0,1,6.048-10.047l.017-.021.028-.017,40.805-25.706,11.019-6.938a86.47,86.47,0,0,1,11.664-6.512,119.047,119.047,0,0,1,12.667-5.059c2.168-.76,4.388-1.384,6.608-2.045,2.245-.565,4.484-1.205,6.774-1.663a154.2,154.2,0,0,1,26.3-3.32,247.615,247.615,0,0,1,25.46.085l.243.013-.054.239c-3.906,17.471-7.589,33.947-10.965,49.047l-.007.03-.018.031a53.448,53.448,0,0,0-4.918,10.534,28.793,28.793,0,0,0-1.665,10.9c.28,3.624.38,7.17.472,10.609q.1,5.162.2,10.024c.19,12.96.239,24.265.276,33.579.009,9.309.017,16.629.022,21.631-.009,2.492-.016,4.4-.021,5.7q-.009.96-.014,1.462c0,.329-.015.495-.015.495s-.01-.166-.015-.495-.008-.822-.016-1.462c-.008-1.3-.02-3.211-.035-5.7-.03-5-.072-12.322-.126-21.63s-.147-20.619-.363-33.575q-.1-4.858-.215-10.02c-.1-3.441-.2-6.973-.489-10.592a29.116,29.116,0,0,1,1.666-11.042,53.783,53.783,0,0,1,4.944-10.623l-.025.059,10.924-49.056.189.253a247.876,247.876,0,0,0-25.411-.074,154.007,154.007,0,0,0-26.227,3.314c-2.283.457-4.513,1.095-6.752,1.658-2.212.66-4.426,1.28-6.586,2.037a119.089,119.089,0,0,0-12.623,5.038,86.043,86.043,0,0,0-11.609,6.476l-11.025,6.935-40.836,25.676.045-.039a52.594,52.594,0,0,0-6.01,9.96,53.334,53.334,0,0,0-3.665,10.5c-1.857,7.074-.92,14.054-.906,20.518.321,12.964.6,24.275.832,33.6s.394,16.641.513,21.647c.053,2.494.093,4.408.121,5.708q.015.961.023,1.464C278.566,365.034,278.56,365.2,278.56,365.2Z" transform="translate(-276.459 -209.503)" fill="#263238"/>
                </g>
              </g>
            </g>
            <g id="Grupo_55375" data-name="Grupo 55375" transform="translate(307.968 8.302)">
              <g id="Grupo_55374" data-name="Grupo 55374">
                <g id="Grupo_55373" data-name="Grupo 55373">
                  <path id="Trazado_100996" data-name="Trazado 100996" d="M460.548,211.339s.13-.016.386-.026l1.135-.038,4.383-.107,16.254-.32,54.8-.934.1,0,.065.08,7.678,9.4,21.928,26.886,2.494,3.061a17.554,17.554,0,0,1,2.051,3.289,17.143,17.143,0,0,1,.31,13.936l-2.5,5.816-7.577,17.53c-.9,2.054-1.6,3.654-2.079,4.757l-.551,1.233c-.126.277-.2.414-.2.414s.048-.149.16-.432.292-.712.512-1.25l2.006-4.79,7.45-17.583c1.423-3.732,3.921-7.658,3.75-12.445a16.857,16.857,0,0,0-1.625-7.025,17.189,17.189,0,0,0-2.013-3.212l-2.5-3.055-21.952-26.861-7.673-9.4.168.078-54.8.792-16.256.192-4.383.031-1.136,0C460.678,211.35,460.548,211.339,460.548,211.339Z" transform="translate(-460.548 -209.912)" fill="#263238"/>
                </g>
              </g>
            </g>
            <g id="Grupo_55378" data-name="Grupo 55378" transform="translate(257.314 73.023)">
              <g id="Grupo_55377" data-name="Grupo 55377">
                <g id="Grupo_55376" data-name="Grupo 55376">
                  <path id="Trazado_100997" data-name="Trazado 100997" d="M422.177,297.891c0-.024.231-.021.656-.1a4.555,4.555,0,0,0,1.736-.69,4.447,4.447,0,0,0,1.766-2.3,4.913,4.913,0,0,0,.225-1.817,4.458,4.458,0,0,0-.512-1.963,4.373,4.373,0,0,0-3.8-2.316l-5.564.016-12.757.017a4.324,4.324,0,0,0-4.286,3.834,4.825,4.825,0,0,0,.527,2.914,4.375,4.375,0,0,0,2.112,1.876,6.652,6.652,0,0,0,2.746.335l2.7.011,4.851.026,7.023.069,1.909.04a3.852,3.852,0,0,1,.666.044,3.916,3.916,0,0,1-.666.043l-1.909.04-7.023.069-4.851.026-2.7.012c-.47-.006-.923.019-1.426-.012a4.685,4.685,0,0,1-3.788-2.375,5.248,5.248,0,0,1-.59-3.163,4.746,4.746,0,0,1,4.705-4.218l12.757.017,5.57.024a4.664,4.664,0,0,1,4.582,4.631,5.149,5.149,0,0,1-.272,1.9,4.571,4.571,0,0,1-1.9,2.36,4.373,4.373,0,0,1-1.813.636A2.712,2.712,0,0,1,422.177,297.891Z" transform="translate(-399.187 -288.313)" fill="#263238"/>
                </g>
              </g>
            </g>
            <g id="Grupo_55381" data-name="Grupo 55381" transform="translate(379.432 73.023)">
              <g id="Grupo_55380" data-name="Grupo 55380">
                <g id="Grupo_55379" data-name="Grupo 55379">
                  <path id="Trazado_100998" data-name="Trazado 100998" d="M570.107,297.891c0-.024.231-.021.657-.1a4.553,4.553,0,0,0,1.735-.69,4.439,4.439,0,0,0,1.766-2.3,4.93,4.93,0,0,0,.225-1.817,4.468,4.468,0,0,0-.512-1.963,4.375,4.375,0,0,0-3.8-2.316l-5.564.016-12.756.017a4.325,4.325,0,0,0-4.287,3.834,4.831,4.831,0,0,0,.528,2.914,4.368,4.368,0,0,0,2.112,1.876,6.647,6.647,0,0,0,2.745.335l2.7.011,4.851.026,7.023.069,1.91.04a3.836,3.836,0,0,1,.665.044,3.9,3.9,0,0,1-.665.043l-1.91.04-7.023.069-4.851.026-2.7.012c-.47-.006-.922.019-1.426-.012a4.685,4.685,0,0,1-3.788-2.375,5.247,5.247,0,0,1-.589-3.163,4.744,4.744,0,0,1,4.705-4.218l12.756.017,5.57.024a4.664,4.664,0,0,1,4.582,4.631,5.149,5.149,0,0,1-.272,1.9,4.57,4.57,0,0,1-1.9,2.36,4.379,4.379,0,0,1-1.814.636A2.712,2.712,0,0,1,570.107,297.891Z" transform="translate(-547.117 -288.313)" fill="#263238"/>
                </g>
              </g>
            </g>
            <g id="Grupo_55383" data-name="Grupo 55383" transform="translate(476.06 62.673)">
              <g id="Grupo_55382" data-name="Grupo 55382">
                <path id="Trazado_100999" data-name="Trazado 100999" d="M697.622,275.775H673.187a9.017,9.017,0,0,0-7.981,4.821h0a9.016,9.016,0,0,0-.272,7.83l9.583,21.766,24.467-.24S704.188,282.361,697.622,275.775Z" transform="translate(-664.169 -275.775)" fill="#fafafa"/>
              </g>
            </g>
            <g id="Grupo_55385" data-name="Grupo 55385" transform="translate(170.147 7.303)">
              <g id="Grupo_55384" data-name="Grupo 55384" transform="translate(0)">
                <path id="Trazado_101000" data-name="Trazado 101000" d="M293.6,260.993,419.68,258.67l82.057-1.5L528.8,241.543a4.2,4.2,0,0,0,1.246-6.181L513.2,213.231a9.373,9.373,0,0,0-7.383-3.7l-91.777-.746s-34.562-2.008-61.788,13.237C323.59,238.074,293.6,260.993,293.6,260.993Z" transform="translate(-293.596 -208.701)" fill="#263238"/>
              </g>
            </g>
            <g id="Grupo_55387" data-name="Grupo 55387" transform="translate(147.464 9.676)">
              <g id="Grupo_55386" data-name="Grupo 55386" transform="translate(0)">
                <path id="Trazado_101001" data-name="Trazado 101001" d="M346.587,211.576s6.319,2.883,2.207,5.553S280.8,260.071,280.8,260.071l-14.684-6.645C292.128,238.934,318.4,224.859,346.587,211.576Z" transform="translate(-266.118 -211.576)" fill="#455a64"/>
              </g>
            </g>
            <g id="Grupo_55390" data-name="Grupo 55390" transform="translate(10.855 59.177)">
              <g id="Grupo_55389" data-name="Grupo 55389">
                <g id="Grupo_55388" data-name="Grupo 55388">
                  <path id="Trazado_101002" data-name="Trazado 101002" d="M253.992,271.54s-.132.041-.394.1l-1.162.253-4.481.927c-3.9.775-9.544,1.864-16.547,3.067-14,2.41-33.45,5.219-55.056,7.087-5.4.47-10.683.855-15.785,1.19s-10.02.645-14.694,1.073a126.924,126.924,0,0,0-24.524,4.2,69.337,69.337,0,0,0-15.462,6.45c-1.757.927-3.008,1.833-3.9,2.382l-1,.637c-.228.141-.351.206-.351.206s.106-.088.325-.242l.982-.673a45.7,45.7,0,0,1,3.863-2.454,67.617,67.617,0,0,1,15.459-6.6,125.234,125.234,0,0,1,24.574-4.3c4.68-.44,9.6-.759,14.7-1.1s10.375-.729,15.775-1.2c21.592-1.866,41.033-4.626,55.043-6.958,7.006-1.164,12.659-2.207,16.566-2.931l4.495-.848,1.171-.211C253.854,271.552,253.992,271.54,253.992,271.54Z" transform="translate(-100.635 -271.54)" fill="#263238"/>
                </g>
              </g>
            </g>
            <g id="Grupo_55393" data-name="Grupo 55393" transform="translate(481.74 115.423)">
              <g id="Grupo_55392" data-name="Grupo 55392">
                <g id="Grupo_55391" data-name="Grupo 55391">
                  <path id="Trazado_101003" data-name="Trazado 101003" d="M708.586,339.889c0,.119-8.4.215-18.768.215s-18.769-.1-18.769-.215,8.4-.215,18.769-.215S708.586,339.77,708.586,339.889Z" transform="translate(-671.049 -339.674)" fill="#263238"/>
                </g>
              </g>
            </g>
            <g id="Grupo_55396" data-name="Grupo 55396" transform="translate(153.654 136.868)">
              <g id="Grupo_55395" data-name="Grupo 55395">
                <g id="Grupo_55394" data-name="Grupo 55394">
                  <path id="Trazado_101004" data-name="Trazado 101004" d="M485.506,365.867c0,.119-47.436.215-105.939.215-58.523,0-105.95-.1-105.95-.215s47.427-.215,105.95-.215C438.069,365.652,485.506,365.749,485.506,365.867Z" transform="translate(-273.617 -365.652)" fill="#263238"/>
                </g>
              </g>
            </g>
            <g id="Grupo_55399" data-name="Grupo 55399" transform="translate(3.442 116.133)">
              <g id="Grupo_55398" data-name="Grupo 55398">
                <g id="Grupo_55397" data-name="Grupo 55397">
                  <path id="Trazado_101005" data-name="Trazado 101005" d="M121.615,340.749c0,.119-6.707.215-14.98.215s-14.981-.1-14.981-.215,6.706-.215,14.981-.215S121.615,340.63,121.615,340.749Z" transform="translate(-91.655 -340.534)" fill="#263238"/>
                </g>
              </g>
            </g>
            <g id="Grupo_55401" data-name="Grupo 55401" transform="translate(465.609 24.23)">
              <g id="Grupo_55400" data-name="Grupo 55400">
                <path id="Trazado_101006" data-name="Trazado 101006" d="M655.44,229.206s-5.629,6.3-3.416,10.929,25.082,20.814,25.082,20.814l16.6,3.116Z" transform="translate(-651.509 -229.206)" fill="#455a64"/>
              </g>
            </g>
            <g id="Grupo_55403" data-name="Grupo 55403" transform="translate(307.968 12.95)">
              <g id="Grupo_55402" data-name="Grupo 55402">
                <path id="Trazado_101007" data-name="Trazado 101007" d="M464.283,215.543l-3.735,40.313,66.8-1.9L554.273,238.3l-17.431-22.759Z" transform="translate(-460.548 -215.543)" fill="#455a64"/>
              </g>
            </g>
            <g id="Grupo_55405" data-name="Grupo 55405" transform="translate(185.968 12.867)">
              <g id="Grupo_55404" data-name="Grupo 55404">
                <path id="Trazado_101008" data-name="Trazado 101008" d="M312.761,257.9s40.3-29.1,56.2-34.89c15.345-5.582,23.346-6.981,37.76-7.392,13.778-.392,22.172-.012,22.172-.012l-10.65,40.985Z" transform="translate(-312.761 -215.442)" fill="#455a64"/>
              </g>
            </g>
            <g id="Grupo_55411" data-name="Grupo 55411" transform="translate(180.055 41.644)">
              <g id="Grupo_55407" data-name="Grupo 55407" transform="translate(0.015 0.198)">
                <g id="Grupo_55406" data-name="Grupo 55406">
                  <path id="Trazado_101009" data-name="Trazado 101009" d="M305.616,264.16h0a7.061,7.061,0,0,1,3.6-6.157l9.257-5.2a17.645,17.645,0,0,1,8.644-2.262h0a17.632,17.632,0,0,1,5.5.878,10.034,10.034,0,0,1,6.749,9.215h0a10.2,10.2,0,0,1-10.193,10.588H312.678A7.062,7.062,0,0,1,305.616,264.16Z" transform="translate(-305.616 -250.541)" fill="#4dd0e1"/>
                </g>
              </g>
              <g id="Grupo_55410" data-name="Grupo 55410" transform="translate(0)">
                <g id="Grupo_55409" data-name="Grupo 55409">
                  <g id="Grupo_55408" data-name="Grupo 55408">
                    <path id="Trazado_101010" data-name="Trazado 101010" d="M305.613,264.118c.023,0,.027.312.106.894a7.042,7.042,0,0,0,3.652,5.212,6.988,6.988,0,0,0,2.381.75,27.506,27.506,0,0,0,2.846.054l14.121-.046a10.762,10.762,0,0,0,3.932-.643,10.045,10.045,0,0,0,3.491-2.221,9.93,9.93,0,0,0,2.357-3.578,10.22,10.22,0,0,0,.616-4.366,10,10,0,0,0-4.166-7.391,10.62,10.62,0,0,0-3.826-1.612,17.481,17.481,0,0,0-11.243,1.078c-1.066.475-2.039,1.078-3.006,1.6l-2.757,1.533-4.745,2.629a7.052,7.052,0,0,0-2.836,2.8,7.176,7.176,0,0,0-.821,2.415c-.085.583-.078.9-.1.895a4.353,4.353,0,0,1,.016-.906,6.868,6.868,0,0,1,.759-2.484,7.163,7.163,0,0,1,2.865-2.926l4.715-2.685,2.744-1.558c.959-.527,1.928-1.138,3.02-1.635a17.776,17.776,0,0,1,11.485-1.153,11.022,11.022,0,0,1,3.973,1.666,10.41,10.41,0,0,1,4.354,7.7,10.63,10.63,0,0,1-.645,4.554,10.45,10.45,0,0,1-6.1,6.03,11.14,11.14,0,0,1-4.075.655l-14.121-.046a27.32,27.32,0,0,1-2.882-.086,7.222,7.222,0,0,1-2.46-.81,7.312,7.312,0,0,1-2.871-2.926,6.869,6.869,0,0,1-.752-2.487A5.389,5.389,0,0,1,305.613,264.118Z" transform="translate(-305.598 -250.301)" fill="#263238"/>
                  </g>
                </g>
              </g>
            </g>
            <g id="Grupo_55414" data-name="Grupo 55414" transform="translate(362.566 89.987)">
              <g id="Grupo_55413" data-name="Grupo 55413">
                <g id="Grupo_55412" data-name="Grupo 55412">
                  <path id="Trazado_101011" data-name="Trazado 101011" d="M654.681,381.887s0-.195.024-.573.064-.949.112-1.676.133-1.647.182-2.725.079-2.325.127-3.723c.013-1.4-.007-2.96-.023-4.664-.11-1.7-.119-3.557-.349-5.535a71.614,71.614,0,0,0-2.389-13.279,59.446,59.446,0,0,0-2.629-7.391,49.255,49.255,0,0,0-3.985-7.5,51.107,51.107,0,0,0-12.906-13.471,60.963,60.963,0,0,0-18.512-9.126,77.255,77.255,0,0,0-22.006-2.931,72.313,72.313,0,0,0-21.962,3.195,61.892,61.892,0,0,0-9.776,4.035,56.329,56.329,0,0,0-8.485,5.545,70.79,70.79,0,0,0-13.074,13.408,52.346,52.346,0,0,0-4.345,7.3,72.8,72.8,0,0,0-3.006,7.253,86.436,86.436,0,0,0-4.764,23.164c-.132,2.8-.117,4.976-.047,6.45.041.726.073,1.284.1,1.676s.018.573.018.573-.029-.191-.063-.569-.078-.949-.139-1.676a64.036,64.036,0,0,1-.033-6.463,85.15,85.15,0,0,1,4.644-23.256,72.7,72.7,0,0,1,2.994-7.3,52.556,52.556,0,0,1,4.355-7.364,70.923,70.923,0,0,1,13.117-13.509,56.466,56.466,0,0,1,8.539-5.6,62.119,62.119,0,0,1,9.838-4.073,72.52,72.52,0,0,1,22.09-3.223,77.442,77.442,0,0,1,22.126,2.958,61.236,61.236,0,0,1,18.625,9.209,56.342,56.342,0,0,1,7.3,6.4,44.821,44.821,0,0,1,5.671,7.194,49.386,49.386,0,0,1,3.99,7.563,59.523,59.523,0,0,1,2.618,7.44,71.193,71.193,0,0,1,2.335,13.34c.22,1.985.217,3.844.315,5.55,0,1.709.012,3.27-.014,4.673-.063,1.4-.119,2.646-.167,3.727-.063,1.078-.164,1.988-.223,2.724s-.119,1.282-.155,1.673S654.681,381.887,654.681,381.887Z" transform="translate(-526.686 -308.862)" fill="#fff"/>
                </g>
              </g>
            </g>
            <g id="Grupo_55417" data-name="Grupo 55417" transform="translate(111.351 89.81)">
              <g id="Grupo_55416" data-name="Grupo 55416">
                <g id="Grupo_55415" data-name="Grupo 55415">
                  <path id="Trazado_101012" data-name="Trazado 101012" d="M222.372,308.648" transform="translate(-222.372 -308.648)" fill="none" stroke="#4e585d" stroke-miterlimit="10" stroke-width="0.05"/>
                </g>
              </g>
            </g>
            <g id="Grupo_55420" data-name="Grupo 55420" transform="translate(215.789 59.505)">
              <g id="Grupo_55419" data-name="Grupo 55419">
                <g id="Grupo_55418" data-name="Grupo 55418">
                  <path id="Trazado_101013" data-name="Trazado 101013" d="M422.783,272.027a.647.647,0,0,1-.191.022l-.561.024-2.153.047-7.918.142c-6.686.125-15.919.371-26.119.649s-19.443.475-26.132.523c-3.344.026-6.05.028-7.921,0l-2.154-.033-.56-.019a.663.663,0,0,1-.191-.021.655.655,0,0,1,.191-.023l.56-.023,2.153-.047,7.918-.142c6.686-.125,15.921-.371,26.124-.649s19.438-.475,26.127-.523c3.344-.026,6.051-.028,7.922,0l2.154.033.56.019A.64.64,0,0,1,422.783,272.027Z" transform="translate(-348.885 -271.938)" fill="#fff"/>
                </g>
              </g>
            </g>
            <g id="Grupo_55423" data-name="Grupo 55423" transform="translate(264.276 71.793)">
              <g id="Grupo_55422" data-name="Grupo 55422">
                <g id="Grupo_55421" data-name="Grupo 55421">
                  <path id="Trazado_101014" data-name="Trazado 101014" d="M422.086,287.038a121.978,121.978,0,0,1-14.465,0,121.477,121.477,0,0,1,14.465,0Z" transform="translate(-407.621 -286.823)" fill="#fff"/>
                </g>
              </g>
            </g>
            <g id="Grupo_55426" data-name="Grupo 55426" transform="translate(241.13 27.829)">
              <g id="Grupo_55425" data-name="Grupo 55425">
                <g id="Grupo_55424" data-name="Grupo 55424">
                  <path id="Trazado_101015" data-name="Trazado 101015" d="M419.847,233.568c.045.111-8.934,3.849-20.051,8.348s-20.17,8.059-20.214,7.95,8.932-3.847,20.053-8.348S419.8,233.459,419.847,233.568Z" transform="translate(-379.582 -233.566)" fill="#fff"/>
                </g>
              </g>
            </g>
            <g id="Grupo_55429" data-name="Grupo 55429" transform="translate(224.848 30.648)">
              <g id="Grupo_55428" data-name="Grupo 55428">
                <g id="Grupo_55427" data-name="Grupo 55427">
                  <path id="Trazado_101016" data-name="Trazado 101016" d="M398.214,236.983c.047.11-8.5,3.875-19.092,8.41s-19.216,8.125-19.263,8.016,8.5-3.874,19.094-8.411S398.167,236.875,398.214,236.983Z" transform="translate(-359.859 -236.981)" fill="#fff"/>
                </g>
              </g>
            </g>
            <g id="Grupo_55432" data-name="Grupo 55432" transform="translate(338.311 26.268)">
              <g id="Grupo_55431" data-name="Grupo 55431">
                <g id="Grupo_55430" data-name="Grupo 55430">
                  <path id="Trazado_101017" data-name="Trazado 101017" d="M537.57,231.677c.045.11-8.934,3.848-20.051,8.348s-20.17,8.06-20.214,7.951,8.932-3.847,20.053-8.348S537.526,231.568,537.57,231.677Z" transform="translate(-497.305 -231.675)" fill="#fff"/>
                </g>
              </g>
            </g>
            <g id="Grupo_55435" data-name="Grupo 55435" transform="translate(322.03 29.087)">
              <g id="Grupo_55434" data-name="Grupo 55434">
                <g id="Grupo_55433" data-name="Grupo 55433">
                  <path id="Trazado_101018" data-name="Trazado 101018" d="M515.937,235.092c.047.109-8.5,3.875-19.092,8.41s-19.216,8.125-19.263,8.016,8.5-3.874,19.094-8.411S515.89,234.984,515.937,235.092Z" transform="translate(-477.582 -235.09)" fill="#fff"/>
                </g>
              </g>
            </g>
            <g id="Grupo_55438" data-name="Grupo 55438" transform="translate(300.572 59.505)">
              <g id="Grupo_55437" data-name="Grupo 55437">
                <g id="Grupo_55436" data-name="Grupo 55436">
                  <path id="Trazado_101019" data-name="Trazado 101019" d="M531.348,272.021c0,.119-17.855.321-39.877.452s-39.882.142-39.883.023,17.852-.321,39.881-.452S531.347,271.9,531.348,272.021Z" transform="translate(-451.588 -271.938)" fill="#fff"/>
                </g>
              </g>
            </g>
            <g id="Grupo_55441" data-name="Grupo 55441" transform="translate(377.733 71.183)">
              <g id="Grupo_55440" data-name="Grupo 55440">
                <g id="Grupo_55439" data-name="Grupo 55439">
                  <path id="Trazado_101020" data-name="Trazado 101020" d="M567.431,286.219c0,.119-5.007.262-11.183.319s-11.188.008-11.189-.111,5.006-.262,11.185-.319S567.43,286.1,567.431,286.219Z" transform="translate(-545.059 -286.084)" fill="#fff"/>
                </g>
              </g>
            </g>
            <g id="Grupo_55444" data-name="Grupo 55444" transform="translate(13.732 65.205)">
              <g id="Grupo_55443" data-name="Grupo 55443">
                <g id="Grupo_55442" data-name="Grupo 55442">
                  <path id="Trazado_101021" data-name="Trazado 101021" d="M148.607,278.852a2.15,2.15,0,0,1-.485.093l-1.4.183c-.608.069-1.351.162-2.21.3s-1.842.261-2.914.478c-2.156.374-4.7.939-7.495,1.684-2.786.773-5.817,1.741-8.927,2.95-3.1,1.229-5.985,2.579-8.554,3.906-2.556,1.354-4.807,2.669-6.642,3.861-.934.57-1.739,1.147-2.462,1.631s-1.334.917-1.827,1.28l-1.152.817a2.176,2.176,0,0,1-.419.262,2.11,2.11,0,0,1,.367-.33l1.1-.882c.48-.384,1.074-.843,1.789-1.342s1.507-1.1,2.434-1.69c1.82-1.228,4.066-2.576,6.623-3.956A81.217,81.217,0,0,1,134,281.21c2.813-.726,5.376-1.264,7.546-1.6,1.081-.2,2.07-.3,2.934-.416s1.612-.187,2.225-.232l1.409-.1A2.1,2.1,0,0,1,148.607,278.852Z" transform="translate(-104.119 -278.842)" fill="#fff"/>
                </g>
              </g>
            </g>
            <g id="Grupo_55447" data-name="Grupo 55447" transform="translate(180.995 43.48)">
              <g id="Grupo_55446" data-name="Grupo 55446">
                <g id="Grupo_55445" data-name="Grupo 55445">
                  <path id="Trazado_101022" data-name="Trazado 101022" d="M331.375,254.784c-.033.024-.244-.324-.795-.769a5.482,5.482,0,0,0-2.728-1.1,11.877,11.877,0,0,0-4.4.476,33.425,33.425,0,0,0-5.2,1.768,34.026,34.026,0,0,0-8.456,5.257c-1.962,1.649-3,2.864-3.061,2.807a5.543,5.543,0,0,1,.7-.878,27.188,27.188,0,0,1,2.164-2.158A31.767,31.767,0,0,1,323.358,253a11.711,11.711,0,0,1,4.537-.392,5.361,5.361,0,0,1,2.794,1.275,3.651,3.651,0,0,1,.551.635C331.344,254.684,331.387,254.776,331.375,254.784Z" transform="translate(-306.736 -252.525)" fill="#fff"/>
                </g>
              </g>
            </g>
          </g>
          <g id="Grupo_55451" data-name="Grupo 55451" transform="translate(383.867 7.982)">
            <g id="Grupo_55450" data-name="Grupo 55450">
              <g id="Grupo_55449" data-name="Grupo 55449">
                <path id="Trazado_101023" data-name="Trazado 101023" d="M640.033,225.48a13.26,13.26,0,0,1-3.514.359,21.721,21.721,0,0,1-4.122-.51,37,37,0,0,1-5.253-1.621c-1.906-.72-3.941-1.631-6.135-2.569l-3.428-1.383c-1.18-.47-2.424-.875-3.683-1.335a143.367,143.367,0,0,0-16.825-4.585,193.084,193.084,0,0,0-31.442-3.915c-2.027-.11-3.864-.111-5.476-.157h-4.138l-2.614.059-.681,0a.958.958,0,0,1-.233-.013.97.97,0,0,1,.231-.031l.679-.047,2.614-.139,4.142-.073c1.615.022,3.455,0,5.486.093a183.427,183.427,0,0,1,31.521,3.8,139.423,139.423,0,0,1,16.866,4.632c1.262.466,2.508.878,3.69,1.356l3.432,1.408c2.193.953,4.214,1.878,6.1,2.612a37.875,37.875,0,0,0,5.2,1.671,22.5,22.5,0,0,0,4.074.577,18.424,18.424,0,0,0,2.6-.1l.675-.082A.955.955,0,0,1,640.033,225.48Z" transform="translate(-552.489 -209.524)" fill="#263238"/>
              </g>
            </g>
          </g>
        </g>
      </g>
      <g id="Character" transform="translate(58.429 133.948)">
        <g id="Grupo_55624" data-name="Grupo 55624" transform="translate(0 0)">
          <g id="Grupo_55483" data-name="Grupo 55483" transform="translate(32.282 33.327)">
            <g id="Grupo_55453" data-name="Grupo 55453" transform="translate(1.411)">
              <path id="Trazado_101024" data-name="Trazado 101024" d="M164.716,221.142c-3.3-18.063-5.519-20.837-7.385-27.051-1.845-6.14-4.829-10.255-8.523-11.675-2.491-.958-14.912-5.441-19.24-3.954a53.89,53.89,0,0,0-11.993,6.024,16.071,16.071,0,0,0-6.262,8l-6.648,18.631,11.627,11.6,5.827-12.385,6.324,14.823-.937,14.986,36.272,9.758C167.084,244.614,166.587,231.391,164.716,221.142Z" transform="translate(-104.665 -178.162)" fill="#fdd835"/>
            </g>
            <g id="Grupo_55456" data-name="Grupo 55456" transform="translate(27.563 23.279)">
              <g id="Grupo_55455" data-name="Grupo 55455" opacity="0.2">
                <g id="Grupo_55454" data-name="Grupo 55454">
                  <path id="Trazado_101025" data-name="Trazado 101025" d="M160.8,206.362c-1.6,9.4-1.857,10.7-3.458,20.1-.55,3.228-2.158,8.263-4.456,10.594-1.7,1.729-3.372,3.392-5.733,3.951a13.709,13.709,0,0,1-7.608-.334c-2.069-.913-3.83-4.927-2.978-7.022,3.075.659,4.024,1.687,6.678,0A23.167,23.167,0,0,0,150.1,226.5c5.292-10.24,6.747-10.6,10.7-20.133" transform="translate(-136.345 -206.362)"/>
                </g>
              </g>
            </g>
            <g id="Grupo_55458" data-name="Grupo 55458" transform="translate(15.06 24.328)">
              <g id="Grupo_55457" data-name="Grupo 55457">
                <path id="Trazado_101026" data-name="Trazado 101026" d="M131.909,224.8a22.038,22.038,0,0,1-1.6-2.5l-3.737-6.094c-1.464-2.308-2.788-4.4-3.83-6.039a22.026,22.026,0,0,1-1.539-2.536,2.837,2.837,0,0,1,.518.608c.311.408.746,1.009,1.273,1.759,1.053,1.5,2.46,3.606,3.942,5.979s2.751,4.564,3.636,6.169c.442.8.79,1.458,1.02,1.917A2.9,2.9,0,0,1,131.909,224.8Z" transform="translate(-121.199 -207.632)" fill="#263238"/>
              </g>
            </g>
            <g id="Grupo_55460" data-name="Grupo 55460" transform="translate(29.238 54.374)">
              <g id="Grupo_55459" data-name="Grupo 55459">
                <path id="Trazado_101027" data-name="Trazado 101027" d="M160.212,248.016a3.733,3.733,0,0,1-.852.32,9.052,9.052,0,0,1-1.029.286c-.405.092-.865.218-1.385.29a22.849,22.849,0,0,1-3.67.333,23.818,23.818,0,0,1-8.847-1.614,22.788,22.788,0,0,1-3.317-1.607c-.461-.251-.846-.531-1.194-.76a9.224,9.224,0,0,1-.861-.631,3.641,3.641,0,0,1-.683-.6c.049-.067,1.067.733,2.887,1.726a25.774,25.774,0,0,0,3.308,1.5,25.457,25.457,0,0,0,8.707,1.588,25.8,25.8,0,0,0,3.624-.237C158.953,248.325,160.189,247.937,160.212,248.016Z" transform="translate(-138.374 -244.029)" fill="#263238"/>
              </g>
            </g>
            <g id="Grupo_55480" data-name="Grupo 55480" transform="translate(0 5.239)">
              <g id="Grupo_55472" data-name="Grupo 55472" transform="translate(0 11.657)">
                <g id="Grupo_55461" data-name="Grupo 55461">
                  <path id="Trazado_101028" data-name="Trazado 101028" d="M139.48,211.953c-.063.323-3.965,8.083-3.965,8.083l-18.39-9.689-1.878-7.927a4.932,4.932,0,0,0-5.954-3.654l-5.424,2.221a1.448,1.448,0,0,0-.892,1.049c-.075.4.023.79.716.736,1.347-.1,4.153-.4,4.153-.4l-1.28,4.514a4.811,4.811,0,0,0,.364,3.541l.815,1.563,1.793,2.9-.036.026s17.877,18.364,27.916,19.56c6.03.717,12.868-16.2,12.868-16.2Z" transform="translate(-102.956 -198.629)" fill="#b78876"/>
                </g>
                <g id="Grupo_55471" data-name="Grupo 55471" transform="translate(4.379 3.218)">
                  <g id="Grupo_55470" data-name="Grupo 55470">
                    <g id="Grupo_55465" data-name="Grupo 55465" transform="translate(0.355)">
                      <g id="Grupo_55464" data-name="Grupo 55464">
                        <g id="Grupo_55463" data-name="Grupo 55463">
                          <g id="Grupo_55462" data-name="Grupo 55462">
                            <path id="Trazado_101029" data-name="Trazado 101029" d="M108.692,203.353c-.02-.029.139-.192.447-.4a2.4,2.4,0,0,1,1.392-.429,1.47,1.47,0,0,1,1.233.792c.168.369.054.622.031.608-.046,0-.017-.236-.2-.518a1.416,1.416,0,0,0-1.08-.613,2.754,2.754,0,0,0-1.285.327C108.912,203.277,108.714,203.386,108.692,203.353Z" transform="translate(-108.69 -202.527)" fill="#aa6550"/>
                          </g>
                        </g>
                      </g>
                    </g>
                    <g id="Grupo_55469" data-name="Grupo 55469" transform="translate(0 2.258)">
                      <g id="Grupo_55468" data-name="Grupo 55468">
                        <g id="Grupo_55467" data-name="Grupo 55467">
                          <g id="Grupo_55466" data-name="Grupo 55466">
                            <path id="Trazado_101030" data-name="Trazado 101030" d="M110.931,206.647c-.038.013-.118-.15-.295-.368a2.018,2.018,0,0,0-1.908-.754c-.277.037-.448.1-.467.066s.129-.159.426-.252a1.833,1.833,0,0,1,2.106.832C110.946,206.442,110.963,206.637,110.931,206.647Z" transform="translate(-108.26 -205.263)" fill="#aa6550"/>
                          </g>
                        </g>
                      </g>
                    </g>
                  </g>
                </g>
              </g>
              <g id="Grupo_55473" data-name="Grupo 55473" transform="translate(35.358 0.473)">
                <path id="Trazado_101031" data-name="Trazado 101031" d="M150.768,185.1l-4.98,23.6,13.2,7.932,5.071-14.505S161.961,184.514,150.768,185.1Z" transform="translate(-145.788 -185.081)" fill="#fdd835"/>
              </g>
              <g id="Grupo_55475" data-name="Grupo 55475" transform="translate(10.218 0.9)">
                <g id="Grupo_55474" data-name="Grupo 55474">
                  <path id="Trazado_101032" data-name="Trazado 101032" d="M152.57,185.6a1.373,1.373,0,0,1-.336.211c-.228.125-.564.308-1,.529-.877.448-2.158,1.074-3.768,1.791a55.457,55.457,0,0,1-13.123,4.136,32.775,32.775,0,0,1-13.72-.464,23.384,23.384,0,0,1-3.935-1.412c-.453-.2-.783-.4-1.013-.515a1.374,1.374,0,0,1-.337-.21,13.665,13.665,0,0,1,1.417.571,27.392,27.392,0,0,0,3.943,1.271,34.065,34.065,0,0,0,13.574.334,60.147,60.147,0,0,0,13.074-3.991c1.62-.679,2.918-1.261,3.816-1.663A11.039,11.039,0,0,1,152.57,185.6Z" transform="translate(-115.334 -185.598)" fill="#ebebeb"/>
                </g>
              </g>
              <g id="Grupo_55477" data-name="Grupo 55477" transform="translate(8.089 3.507)">
                <g id="Grupo_55476" data-name="Grupo 55476">
                  <path id="Trazado_101033" data-name="Trazado 101033" d="M155.593,188.758a1.754,1.754,0,0,1-.366.269l-1.1.7a20.139,20.139,0,0,1-1.78,1.035c-.711.374-1.5.837-2.432,1.238l-1.444.663c-.5.227-1.046.418-1.6.64-1.1.461-2.316.831-3.589,1.246a49.66,49.66,0,0,1-17.217,2.037c-1.335-.107-2.605-.182-3.782-.374-.589-.087-1.161-.145-1.7-.248l-1.559-.308c-1-.173-1.876-.439-2.653-.636a20.193,20.193,0,0,1-1.972-.591L113.174,194a1.772,1.772,0,0,1-.419-.176,1.846,1.846,0,0,1,.446.094l1.251.348c.538.163,1.2.352,1.983.518s1.658.418,2.653.571l1.553.278c.54.094,1.11.144,1.7.223,1.17.175,2.431.237,3.756.332a51.591,51.591,0,0,0,17.084-2.022c1.266-.4,2.478-.756,3.575-1.2.551-.213,1.093-.395,1.6-.612l1.445-.634c.932-.381,1.729-.822,2.446-1.174s1.322-.683,1.808-.967l1.135-.631A1.843,1.843,0,0,1,155.593,188.758Z" transform="translate(-112.755 -188.756)" fill="#ebebeb"/>
                </g>
              </g>
              <g id="Grupo_55479" data-name="Grupo 55479" transform="translate(34.524)">
                <g id="Grupo_55478" data-name="Grupo 55478">
                  <path id="Trazado_101034" data-name="Trazado 101034" d="M158.812,216.531a7.677,7.677,0,0,1-1.072-.546l-2.907-1.63-9.928-5.721-.128-.073.029-.144c.354-1.762.734-3.654,1.127-5.607l1.693-8.281c.276-1.27.494-2.482.745-3.619a13.015,13.015,0,0,1,1.058-3.068,6.16,6.16,0,0,1,3.413-3.125,3.9,3.9,0,0,1,1.262-.208,1.346,1.346,0,0,1,.442.048,5.9,5.9,0,0,0-1.649.318,6.114,6.114,0,0,0-3.2,3.1,13.009,13.009,0,0,0-.982,3.008c-.221,1.135-.457,2.344-.7,3.613l-1.66,8.287-1.142,5.6-.1-.217,9.851,5.852,2.846,1.735A7.59,7.59,0,0,1,158.812,216.531Z" transform="translate(-144.777 -184.508)" fill="#263238"/>
                </g>
              </g>
            </g>
            <g id="Grupo_55482" data-name="Grupo 55482" transform="translate(48.805 22.058)">
              <g id="Grupo_55481" data-name="Grupo 55481">
                <path id="Trazado_101035" data-name="Trazado 101035" d="M165.872,204.883a8.951,8.951,0,0,1-.066,2.2,34.014,34.014,0,0,1-2.7,10.246,9,9,0,0,1-1.025,1.947,14.517,14.517,0,0,1,.745-2.063,48.517,48.517,0,0,0,2.676-10.169A14.632,14.632,0,0,1,165.872,204.883Z" transform="translate(-162.077 -204.883)" fill="#263238"/>
              </g>
            </g>
          </g>
          <g id="Grupo_55517" data-name="Grupo 55517" transform="translate(0 78.723)">
            <g id="Grupo_55502" data-name="Grupo 55502" transform="translate(0 107.937)">
              <g id="Grupo_55496" data-name="Grupo 55496">
                <g id="Grupo_55484" data-name="Grupo 55484" transform="translate(0.005)">
                  <path id="Trazado_101036" data-name="Trazado 101036" d="M77.115,363.9l-.145,12.6s-12.859,4.084-13.112,6.41l24.425,1.161,1.033-19.627Z" transform="translate(-63.857 -363.905)" fill="#455a64"/>
                </g>
                <g id="Grupo_55486" data-name="Grupo 55486" transform="translate(19.486 11.851)">
                  <g id="Grupo_55485" data-name="Grupo 55485">
                    <path id="Trazado_101037" data-name="Trazado 101037" d="M88.69,378.313a1,1,0,0,1,.636,1.171.96.96,0,0,1-1.156.64,1.052,1.052,0,0,1-.666-1.243,1,1,0,0,1,1.275-.533" transform="translate(-87.456 -378.261)" fill="#e0e0e0"/>
                  </g>
                </g>
                <g id="Grupo_55487" data-name="Grupo 55487" transform="translate(0 17.82)">
                  <path id="Trazado_101038" data-name="Trazado 101038" d="M88.281,387.846l.026-1.982-23.429-.371s-1.109.421-1.023,1.193Z" transform="translate(-63.851 -385.492)" fill="#e0e0e0"/>
                </g>
                <g id="Grupo_55489" data-name="Grupo 55489" transform="translate(12.726 12.366)">
                  <g id="Grupo_55488" data-name="Grupo 55488">
                    <path id="Trazado_101039" data-name="Trazado 101039" d="M79.268,378.978c0,.12.593.2,1.161.613s.858.928.97.886c.111-.018-.033-.74-.731-1.226S79.247,378.868,79.268,378.978Z" transform="translate(-79.267 -378.884)" fill="#263238"/>
                  </g>
                </g>
                <g id="Grupo_55491" data-name="Grupo 55491" transform="translate(10.113 13.355)">
                  <g id="Grupo_55490" data-name="Grupo 55490">
                    <path id="Trazado_101040" data-name="Trazado 101040" d="M76.1,380.125c-.033.115.474.342.855.866s.473,1.062.592,1.063c.111.024.227-.671-.259-1.313S76.112,380.012,76.1,380.125Z" transform="translate(-76.102 -380.083)" fill="#263238"/>
                  </g>
                </g>
                <g id="Grupo_55493" data-name="Grupo 55493" transform="translate(7.655 14.294)">
                  <g id="Grupo_55492" data-name="Grupo 55492">
                    <path id="Trazado_101041" data-name="Trazado 101041" d="M73.983,383.321c.107.031.3-.557.026-1.225s-.821-.954-.876-.858c-.073.095.273.463.491,1.015S73.865,383.3,73.983,383.321Z" transform="translate(-73.124 -381.22)" fill="#263238"/>
                  </g>
                </g>
                <g id="Grupo_55495" data-name="Grupo 55495" transform="translate(13.076 9.215)">
                  <g id="Grupo_55494" data-name="Grupo 55494">
                    <path id="Trazado_101042" data-name="Trazado 101042" d="M79.694,375.444c.045.111.6-.028,1.271.05s1.188.315,1.255.216c.073-.083-.419-.548-1.211-.629S79.64,375.348,79.694,375.444Z" transform="translate(-79.691 -375.068)" fill="#263238"/>
                  </g>
                </g>
              </g>
              <g id="Grupo_55497" data-name="Grupo 55497" transform="translate(13.208 2.496)" opacity="0.3">
                <path id="Trazado_101043" data-name="Trazado 101043" d="M79.88,366.929l-.029,2.246,12.01.461.111-2.02Z" transform="translate(-79.851 -366.929)"/>
              </g>
              <g id="Grupo_55499" data-name="Grupo 55499" transform="translate(13.155 5.226)">
                <g id="Grupo_55498" data-name="Grupo 55498">
                  <path id="Trazado_101044" data-name="Trazado 101044" d="M79.787,372.059a2.293,2.293,0,0,0,1.223.052,5.513,5.513,0,0,0,1.3-.332,5.77,5.77,0,0,0,.721-.34,1.5,1.5,0,0,0,.383-.27.521.521,0,0,0,.085-.632.657.657,0,0,0-.51-.3,1.584,1.584,0,0,0-.461.042,4.406,4.406,0,0,0-.774.225,4.328,4.328,0,0,0-1.163.687c-.591.5-.806.934-.766.959.052.042.346-.319.943-.724a4.868,4.868,0,0,1,1.12-.563,4.541,4.541,0,0,1,.712-.183c.263-.056.482-.047.543.071.022.045.025.063-.033.135a1.2,1.2,0,0,1-.282.2,6.561,6.561,0,0,1-.664.339,6.911,6.911,0,0,1-1.2.4A8.513,8.513,0,0,0,79.787,372.059Z" transform="translate(-79.787 -370.236)" fill="#263238"/>
                </g>
              </g>
              <g id="Grupo_55501" data-name="Grupo 55501" transform="translate(11.822 3.3)">
                <g id="Grupo_55500" data-name="Grupo 55500">
                  <path id="Trazado_101045" data-name="Trazado 101045" d="M79.652,371.83a1.939,1.939,0,0,0,.379-1.166,3.96,3.96,0,0,0-.38-2.105,1.012,1.012,0,0,0-.75-.655.572.572,0,0,0-.528.317,1.663,1.663,0,0,0-.147.443,2.718,2.718,0,0,0-.04.824,2.818,2.818,0,0,0,.462,1.289c.447.655.939.821.95.782.043-.058-.362-.308-.7-.934a2.824,2.824,0,0,1-.333-1.168,2.525,2.525,0,0,1,.056-.706c.05-.258.158-.462.254-.431.121,0,.319.209.409.421a4.1,4.1,0,0,1,.272.677,4.432,4.432,0,0,1,.179,1.232C79.737,371.369,79.589,371.809,79.652,371.83Z" transform="translate(-78.172 -367.903)" fill="#263238"/>
                </g>
              </g>
            </g>
            <g id="Grupo_55508" data-name="Grupo 55508" transform="translate(0.963)">
              <g id="Grupo_55503" data-name="Grupo 55503">
                <path id="Trazado_101046" data-name="Trazado 101046" d="M127.1,249.866s-38.146-16-49.958-16.685c-7.408-.429-13.011,4.329-12,11.994.5,3.835,11.046,48.717,11.046,48.717l16.08-7.345-7.723-31.029,31.334,15.235Z" transform="translate(-65.018 -233.154)" fill="#263238"/>
              </g>
              <g id="Grupo_55505" data-name="Grupo 55505" transform="translate(14.695 14.504)">
                <g id="Grupo_55504" data-name="Grupo 55504">
                  <path id="Trazado_101047" data-name="Trazado 101047" d="M82.827,250.728c-.124.106,1.143,1.735,2.469,3.891s2.226,4.012,2.376,3.949a17.546,17.546,0,0,0-4.845-7.84Z" transform="translate(-82.819 -250.723)" fill="#455a64"/>
                </g>
              </g>
              <g id="Grupo_55507" data-name="Grupo 55507" transform="translate(11.578 16.28)">
                <g id="Grupo_55506" data-name="Grupo 55506">
                  <path id="Trazado_101048" data-name="Trazado 101048" d="M79.045,252.886a44.746,44.746,0,0,0,4.1,3.028,44.724,44.724,0,0,0,4.115,3.013,16.009,16.009,0,0,0-3.783-3.465A16.019,16.019,0,0,0,79.045,252.886Z" transform="translate(-79.043 -252.875)" fill="#455a64"/>
                </g>
              </g>
            </g>
            <g id="Grupo_55512" data-name="Grupo 55512" transform="translate(10.284 16.712)">
              <g id="Grupo_55509" data-name="Grupo 55509">
                <path id="Trazado_101049" data-name="Trazado 101049" d="M158.831,263.025s-4.8,6.181-9.375,7.871c-5.749,2.126-48.257,22.182-48.257,22.182s-7.709,57.277-7.1,54.888l-17.791-.429,1.935-52.759c.232-6.759,5.646-14.514,11.462-17.963L129.068,253.4Z" transform="translate(-76.309 -253.398)" fill="#263238"/>
              </g>
              <g id="Grupo_55511" data-name="Grupo 55511" transform="translate(1.557 2.757)">
                <g id="Grupo_55510" data-name="Grupo 55510">
                  <path id="Trazado_101050" data-name="Trazado 101050" d="M78.235,305.015a3.487,3.487,0,0,0,.073-.722c.028-.532.064-1.221.109-2.075a69.663,69.663,0,0,1,.7-7.586,26.166,26.166,0,0,1,3.844-10.458,19.829,19.829,0,0,1,4.573-4.723,54.328,54.328,0,0,1,6.036-3.82c8.561-4.906,15.951-9.905,21.412-13.335,2.721-1.732,4.935-3.114,6.473-4.055l1.768-1.091a3.5,3.5,0,0,0,.6-.411,3.554,3.554,0,0,0-.655.313c-.42.224-1.039.552-1.823,1-1.574.885-3.822,2.216-6.572,3.907-5.52,3.346-12.947,8.293-21.48,13.183a53.476,53.476,0,0,0-6.092,3.869,20.17,20.17,0,0,0-4.669,4.872,26.08,26.08,0,0,0-3.806,10.686,59.349,59.349,0,0,0-.531,7.639c0,.856,0,1.546,0,2.079A3.586,3.586,0,0,0,78.235,305.015Z" transform="translate(-78.195 -256.738)" fill="#455a64"/>
                </g>
              </g>
            </g>
            <g id="Grupo_55514" data-name="Grupo 55514" transform="translate(73.596 20.892)">
              <g id="Grupo_55513" data-name="Grupo 55513">
                <path id="Trazado_101051" data-name="Trazado 101051" d="M156.512,269.945a15.219,15.219,0,0,0-1.089-1.465,10.634,10.634,0,0,1-1.666-8.244,14.949,14.949,0,0,0,.433-1.773,3.883,3.883,0,0,0-.818,1.675,9.49,9.49,0,0,0,1.734,8.582A3.864,3.864,0,0,0,156.512,269.945Z" transform="translate(-153.003 -258.462)" fill="#455a64"/>
              </g>
            </g>
            <g id="Grupo_55516" data-name="Grupo 55516" transform="translate(16.812 18.734)">
              <g id="Grupo_55515" data-name="Grupo 55515">
                <path id="Trazado_101052" data-name="Trazado 101052" d="M84.223,347.964a1.173,1.173,0,0,0,.055-.293l.107-.865.356-3.335c.29-2.942.7-7.125,1.207-12.275.247-2.6.517-5.435.807-8.48s.6-6.307.838-9.739c.266-3.428.591-7.023,1.216-10.7a44.1,44.1,0,0,1,3.267-11.014,36.94,36.94,0,0,1,6.46-9.47,57.96,57.96,0,0,1,8.056-7.1,162.826,162.826,0,0,1,15.483-9.666c4.516-2.595,8.113-4.806,10.506-6.472,1.2-.824,2.113-1.5,2.72-1.966l.686-.54a1.156,1.156,0,0,0,.221-.2,1.179,1.179,0,0,0-.256.153l-.718.5c-.627.438-1.557,1.081-2.775,1.876-2.425,1.606-6.042,3.76-10.581,6.309a155.906,155.906,0,0,0-15.594,9.595,57.858,57.858,0,0,0-8.152,7.14,37.242,37.242,0,0,0-6.565,9.609,44.32,44.32,0,0,0-3.3,11.157c-.622,3.71-.937,7.322-1.189,10.756-.225,3.437-.512,6.692-.787,9.741s-.512,5.886-.738,8.483c-.431,5.156-.782,9.343-1.029,12.289-.106,1.419-.191,2.538-.252,3.344-.021.357-.037.643-.051.871A1.233,1.233,0,0,0,84.223,347.964Z" transform="translate(-84.216 -255.847)" fill="#455a64"/>
              </g>
            </g>
          </g>
          <g id="Grupo_55591" data-name="Grupo 55591" transform="translate(35.367)">
            <g id="Grupo_55518" data-name="Grupo 55518">
              <path id="Trazado_101053" data-name="Trazado 101053" d="M130.039,142.368a6.953,6.953,0,0,0-7.951-4.278,8.591,8.591,0,0,1-2.216.477,15.979,15.979,0,0,1-2.689-.711,4.038,4.038,0,0,0-4.555,2.953,5.5,5.5,0,0,0-4.537.9,3.566,3.566,0,0,0-1.06,4.277c.323.6.85,1.081,1.145,1.7.485,1.017.264,2.237.605,3.311a4.462,4.462,0,0,0,3.847,2.762,13.128,13.128,0,0,0,4.927-.707" transform="translate(-106.693 -137.791)" fill="#263238"/>
            </g>
            <g id="Grupo_55586" data-name="Grupo 55586" transform="translate(4.325 3.452)">
              <g id="Grupo_55585" data-name="Grupo 55585">
                <g id="Grupo_55572" data-name="Grupo 55572">
                  <g id="Grupo_55559" data-name="Grupo 55559" transform="translate(1.308 2.416)">
                    <g id="Grupo_55558" data-name="Grupo 55558">
                      <g id="Grupo_55557" data-name="Grupo 55557">
                        <g id="Grupo_55522" data-name="Grupo 55522">
                          <g id="Grupo_55521" data-name="Grupo 55521">
                            <g id="Grupo_55520" data-name="Grupo 55520">
                              <g id="Grupo_55519" data-name="Grupo 55519">
                                <path id="Trazado_101054" data-name="Trazado 101054" d="M123.57,176.257c-.209-1.6-.347-2.718-.347-2.718s-5.318-.036-7.467-6.626c-1.068-3.277-1.775-8.816-2.207-13.368a7.228,7.228,0,0,1,6.816-7.907l14.132-.74.3,2.189,3.725,27.172a7.545,7.545,0,0,1-6.5,8.505h0A7.549,7.549,0,0,1,123.57,176.257Z" transform="translate(-113.516 -144.899)" fill="#b78876"/>
                              </g>
                            </g>
                          </g>
                        </g>
                        <g id="Grupo_55532" data-name="Grupo 55532" transform="translate(1.663 10.114)">
                          <g id="Grupo_55526" data-name="Grupo 55526" transform="translate(0.366 1.505)">
                            <g id="Grupo_55525" data-name="Grupo 55525">
                              <g id="Grupo_55524" data-name="Grupo 55524">
                                <g id="Grupo_55523" data-name="Grupo 55523">
                                  <path id="Trazado_101055" data-name="Trazado 101055" d="M115.98,159.9a.877.877,0,0,0,.975.742.839.839,0,0,0,.769-.924.878.878,0,0,0-.974-.742A.839.839,0,0,0,115.98,159.9Z" transform="translate(-115.974 -158.973)" fill="#263238"/>
                                </g>
                              </g>
                            </g>
                          </g>
                          <g id="Grupo_55531" data-name="Grupo 55531">
                            <g id="Grupo_55530" data-name="Grupo 55530">
                              <g id="Grupo_55529" data-name="Grupo 55529">
                                <g id="Grupo_55528" data-name="Grupo 55528">
                                  <g id="Grupo_55527" data-name="Grupo 55527">
                                    <path id="Trazado_101056" data-name="Trazado 101056" d="M115.552,158.361c.125.1.706-.494,1.639-.641s1.691.212,1.774.082c.042-.059-.1-.245-.433-.414a2.4,2.4,0,0,0-1.442-.206,2.315,2.315,0,0,0-1.282.651C115.556,158.1,115.491,158.319,115.552,158.361Z" transform="translate(-115.531 -157.15)" fill="#263238"/>
                                  </g>
                                </g>
                              </g>
                            </g>
                          </g>
                        </g>
                        <g id="Grupo_55542" data-name="Grupo 55542" transform="translate(10.862 8.83)">
                          <g id="Grupo_55536" data-name="Grupo 55536" transform="translate(0.034 1.283)">
                            <g id="Grupo_55535" data-name="Grupo 55535">
                              <g id="Grupo_55534" data-name="Grupo 55534">
                                <g id="Grupo_55533" data-name="Grupo 55533">
                                  <path id="Trazado_101057" data-name="Trazado 101057" d="M126.721,158.08a.879.879,0,0,0,.976.742.84.84,0,0,0,.769-.924.879.879,0,0,0-.975-.743A.841.841,0,0,0,126.721,158.08Z" transform="translate(-126.715 -157.15)" fill="#263238"/>
                                </g>
                              </g>
                            </g>
                          </g>
                          <g id="Grupo_55541" data-name="Grupo 55541">
                            <g id="Grupo_55540" data-name="Grupo 55540">
                              <g id="Grupo_55539" data-name="Grupo 55539">
                                <g id="Grupo_55538" data-name="Grupo 55538">
                                  <g id="Grupo_55537" data-name="Grupo 55537">
                                    <path id="Trazado_101058" data-name="Trazado 101058" d="M126.695,156.806c.125.1.706-.494,1.639-.641s1.691.212,1.775.082c.041-.059-.1-.245-.433-.415a2.411,2.411,0,0,0-1.443-.2,2.31,2.31,0,0,0-1.281.651C126.7,156.544,126.634,156.763,126.695,156.806Z" transform="translate(-126.674 -155.595)" fill="#263238"/>
                                  </g>
                                </g>
                              </g>
                            </g>
                          </g>
                        </g>
                        <g id="Grupo_55547" data-name="Grupo 55547" transform="translate(6.1 9.657)">
                          <g id="Grupo_55546" data-name="Grupo 55546">
                            <g id="Grupo_55545" data-name="Grupo 55545">
                              <g id="Grupo_55544" data-name="Grupo 55544">
                                <g id="Grupo_55543" data-name="Grupo 55543">
                                  <path id="Trazado_101059" data-name="Trazado 101059" d="M123.4,164.438a6.244,6.244,0,0,0-1.559-.032c-.242.013-.475,0-.541-.154a1.226,1.226,0,0,1,.047-.731l.416-1.927a31.526,31.526,0,0,0,.828-5,31.6,31.6,0,0,0-1.228,4.918q-.2,1.012-.385,1.933a1.4,1.4,0,0,0,.025.955.605.605,0,0,0,.447.286,1.643,1.643,0,0,0,.414-.008A6.129,6.129,0,0,0,123.4,164.438Z" transform="translate(-120.906 -156.597)" fill="#263238"/>
                                </g>
                              </g>
                            </g>
                          </g>
                        </g>
                        <g id="Grupo_55551" data-name="Grupo 55551" transform="translate(9.707 24.786)">
                          <g id="Grupo_55550" data-name="Grupo 55550">
                            <g id="Grupo_55549" data-name="Grupo 55549">
                              <g id="Grupo_55548" data-name="Grupo 55548">
                                <path id="Trazado_101060" data-name="Trazado 101060" d="M125.275,178.778a17.411,17.411,0,0,0,8.67-3.854s-1.459,4.994-8.325,5.436Z" transform="translate(-125.275 -174.924)" fill="#aa6550"/>
                              </g>
                            </g>
                          </g>
                        </g>
                        <g id="Grupo_55556" data-name="Grupo 55556" transform="translate(8.865 17.706)">
                          <g id="Grupo_55555" data-name="Grupo 55555">
                            <g id="Grupo_55554" data-name="Grupo 55554">
                              <g id="Grupo_55553" data-name="Grupo 55553">
                                <g id="Grupo_55552" data-name="Grupo 55552">
                                  <path id="Trazado_101061" data-name="Trazado 101061" d="M126.835,166.348c-.153.016.006,1.029-.746,1.885s-1.848.917-1.833,1.06c0,.066.272.158.729.1a2.551,2.551,0,0,0,1.54-.827,2.224,2.224,0,0,0,.561-1.57C127.056,166.564,126.9,166.331,126.835,166.348Z" transform="translate(-124.255 -166.347)" fill="#263238"/>
                                </g>
                              </g>
                            </g>
                          </g>
                        </g>
                      </g>
                    </g>
                  </g>
                  <g id="Grupo_55563" data-name="Grupo 55563" transform="translate(11.357 7.805)">
                    <g id="Grupo_55562" data-name="Grupo 55562">
                      <g id="Grupo_55561" data-name="Grupo 55561">
                        <g id="Grupo_55560" data-name="Grupo 55560">
                          <path id="Trazado_101062" data-name="Trazado 101062" d="M125.7,152.461c.133.239,1.045-.03,2.16-.071,1.114-.064,2.048.116,2.158-.135.047-.119-.144-.334-.541-.522a3.757,3.757,0,0,0-3.29.157C125.813,152.115,125.642,152.347,125.7,152.461Z" transform="translate(-125.689 -151.427)" fill="#263238"/>
                        </g>
                      </g>
                    </g>
                  </g>
                  <g id="Grupo_55567" data-name="Grupo 55567" transform="translate(2.866 9.731)">
                    <g id="Grupo_55566" data-name="Grupo 55566">
                      <g id="Grupo_55565" data-name="Grupo 55565">
                        <g id="Grupo_55564" data-name="Grupo 55564">
                          <path id="Trazado_101063" data-name="Trazado 101063" d="M115.444,155.015c.2.186.806-.136,1.577-.27.767-.16,1.45-.084,1.565-.33.05-.118-.088-.314-.405-.469a2.318,2.318,0,0,0-2.532.483C115.41,154.69,115.354,154.923,115.444,155.015Z" transform="translate(-115.403 -153.76)" fill="#263238"/>
                        </g>
                      </g>
                    </g>
                  </g>
                  <g id="Grupo_55571" data-name="Grupo 55571">
                    <g id="Grupo_55570" data-name="Grupo 55570">
                      <g id="Grupo_55569" data-name="Grupo 55569">
                        <g id="Grupo_55568" data-name="Grupo 55568">
                          <path id="Trazado_101064" data-name="Trazado 101064" d="M112.571,150.071a9.729,9.729,0,0,0,8.036-1.611c2.819-1.883,6.234-3.061,7.084-2.554s1.406,3.587,4.5,4.114c0,0,.545,5.942,2.877,5.433,1.662-.363.69-6.919-.006-10.657a3.262,3.262,0,0,0-3.085-2.657l-4.353-.168-5.434,1.516-5.827,1.588-4.431,1.838Z" transform="translate(-111.932 -141.972)" fill="#263238"/>
                        </g>
                      </g>
                    </g>
                  </g>
                </g>
                <g id="Grupo_55584" data-name="Grupo 55584" transform="translate(22.615 10.567)">
                  <g id="Grupo_55577" data-name="Grupo 55577">
                    <g id="Grupo_55576" data-name="Grupo 55576">
                      <g id="Grupo_55575" data-name="Grupo 55575">
                        <g id="Grupo_55574" data-name="Grupo 55574">
                          <g id="Grupo_55573" data-name="Grupo 55573">
                            <path id="Trazado_101065" data-name="Trazado 101065" d="M139.327,155.284c.088-.063,3.695-1.96,4.363,1.977s-3.423,3.795-3.449,3.683S139.327,155.284,139.327,155.284Z" transform="translate(-139.327 -154.772)" fill="#b78876"/>
                          </g>
                        </g>
                      </g>
                    </g>
                  </g>
                  <g id="Grupo_55583" data-name="Grupo 55583" transform="translate(1.663 1.226)">
                    <g id="Grupo_55582" data-name="Grupo 55582">
                      <g id="Grupo_55581" data-name="Grupo 55581">
                        <g id="Grupo_55580" data-name="Grupo 55580">
                          <g id="Grupo_55579" data-name="Grupo 55579">
                            <g id="Grupo_55578" data-name="Grupo 55578">
                              <path id="Trazado_101066" data-name="Trazado 101066" d="M141.543,159.508c.015-.016.077.036.2.07a.7.7,0,0,0,.514-.077,1.72,1.72,0,0,0,.528-1.655,2.293,2.293,0,0,0-.359-.949.8.8,0,0,0-.605-.439.353.353,0,0,0-.372.257c-.035.119,0,.193-.016.2s-.1-.051-.092-.22a.441.441,0,0,1,.113-.272.525.525,0,0,1,.362-.165.98.98,0,0,1,.82.49,2.36,2.36,0,0,1,.423,1.057,1.806,1.806,0,0,1-.712,1.87.744.744,0,0,1-.646,0C141.566,159.6,141.53,159.517,141.543,159.508Z" transform="translate(-141.342 -156.258)" fill="#aa6550"/>
                            </g>
                          </g>
                        </g>
                      </g>
                    </g>
                  </g>
                </g>
              </g>
            </g>
            <g id="Grupo_55588" data-name="Grupo 55588" transform="translate(6.852 1.548)">
              <g id="Grupo_55587" data-name="Grupo 55587">
                <path id="Trazado_101067" data-name="Trazado 101067" d="M115,139.689c.034-.016.136.208.416.529a3.405,3.405,0,0,0,1.488.954,4.932,4.932,0,0,0,2.622.116,23.479,23.479,0,0,0,3.176-1.01,8.7,8.7,0,0,1,3.373-.6,3.7,3.7,0,0,1,2.562,1.152,2.739,2.739,0,0,1,.788,1.725,1.154,1.154,0,0,1-.118.684c-.04-.007.014-.249-.049-.667a2.745,2.745,0,0,0-.838-1.529,3.472,3.472,0,0,0-2.367-.969,8.779,8.779,0,0,0-3.21.612,20.819,20.819,0,0,1-3.246.993,5.048,5.048,0,0,1-2.8-.22,3.276,3.276,0,0,1-1.515-1.137A1.255,1.255,0,0,1,115,139.689Z" transform="translate(-114.993 -139.665)" fill="#455a64"/>
              </g>
            </g>
            <g id="Grupo_55590" data-name="Grupo 55590" transform="translate(1.687 3.935)">
              <g id="Grupo_55589" data-name="Grupo 55589">
                <path id="Trazado_101068" data-name="Trazado 101068" d="M127.205,143.963c-.031.026-.2-.209-.609-.492a3.655,3.655,0,0,0-1.982-.586,6.389,6.389,0,0,0-3.007.734,31.354,31.354,0,0,1-3.58,1.674,8.91,8.91,0,0,1-7.054-.772,7.73,7.73,0,0,1-1.737-1.332,2.41,2.41,0,0,1-.5-.628,14.45,14.45,0,0,0,2.38,1.694,8.969,8.969,0,0,0,6.776.63,36.95,36.95,0,0,0,3.549-1.625,6.445,6.445,0,0,1,3.188-.678,3.58,3.58,0,0,1,2.066.756A1.5,1.5,0,0,1,127.205,143.963Z" transform="translate(-108.736 -142.557)" fill="#455a64"/>
              </g>
            </g>
          </g>
          <g id="Grupo_55592" data-name="Grupo 55592" transform="translate(26.25 53.669)">
            <path id="Trazado_101069" data-name="Trazado 101069" d="M95.649,202.8" transform="translate(-95.649 -202.803)" fill="#e8505b"/>
          </g>
          <g id="Grupo_55623" data-name="Grupo 55623" transform="translate(12.541 38.092)">
            <g id="Grupo_55596" data-name="Grupo 55596" transform="translate(5.264 17.991)">
              <g id="Grupo_55595" data-name="Grupo 55595">
                <g id="Grupo_55594" data-name="Grupo 55594">
                  <g id="Grupo_55593" data-name="Grupo 55593">
                    <path id="Trazado_101070" data-name="Trazado 101070" d="M110.912,222.068l-19.171-16.34-6.321,1.43s6.661,13.849,11.483,18.925c0,0,4.765,6.379,12.62,3.622S110.912,222.068,110.912,222.068Z" transform="translate(-85.42 -205.728)" fill="#b78876"/>
                  </g>
                </g>
              </g>
            </g>
            <g id="Grupo_55603" data-name="Grupo 55603">
              <g id="Grupo_55599" data-name="Grupo 55599">
                <g id="Grupo_55598" data-name="Grupo 55598">
                  <g id="Grupo_55597" data-name="Grupo 55597">
                    <path id="Trazado_101071" data-name="Trazado 101071" d="M89.181,183.934H81.033a2.067,2.067,0,0,0-1.89,2.6l8.194,15.96a1.855,1.855,0,0,0,1.65,1.007l9.933-.021a1.423,1.423,0,0,0,1.082-2.1L92.1,185.749A3.245,3.245,0,0,0,89.181,183.934Z" transform="translate(-79.043 -183.934)" fill="#455a64"/>
                  </g>
                </g>
              </g>
              <g id="Grupo_55602" data-name="Grupo 55602" transform="translate(0.072 0.961)">
                <g id="Grupo_55601" data-name="Grupo 55601">
                  <g id="Grupo_55600" data-name="Grupo 55600">
                    <path id="Trazado_101072" data-name="Trazado 101072" d="M88.646,185.1H80.5a1.363,1.363,0,0,0-1.217,1.983l8,15.613a1.855,1.855,0,0,0,1.65,1.007h9.82a.8.8,0,0,0,.717-1.163l-7.906-15.624A3.247,3.247,0,0,0,88.646,185.1Z" transform="translate(-79.13 -185.098)" fill="#263238"/>
                  </g>
                </g>
              </g>
            </g>
            <g id="Grupo_55619" data-name="Grupo 55619" transform="translate(2.875 7.497)">
              <g id="Grupo_55606" data-name="Grupo 55606">
                <g id="Grupo_55605" data-name="Grupo 55605">
                  <g id="Grupo_55604" data-name="Grupo 55604">
                    <path id="Trazado_101073" data-name="Trazado 101073" d="M88.547,193.016,83.589,195l-1.063,4,2.389,5.948,8.762,1.275-2.567-2.623.33-2.283s2.444-.767,2.5-1.141-.3-1.629-.678-1.689a18.764,18.764,0,0,0-2.939.894s3.035-2.4,2.95-2.788-.41-1.373-1.016-1.483-5.5,2.2-5.5,2.2l-.8,1.813-.693-2.9S89.623,194.994,88.547,193.016Z" transform="translate(-82.526 -193.016)" fill="#b78876"/>
                  </g>
                </g>
              </g>
              <g id="Grupo_55610" data-name="Grupo 55610" transform="translate(6.456 6.304)">
                <g id="Grupo_55609" data-name="Grupo 55609">
                  <g id="Grupo_55608" data-name="Grupo 55608">
                    <g id="Grupo_55607" data-name="Grupo 55607">
                      <path id="Trazado_101074" data-name="Trazado 101074" d="M90.536,203.716c-.03.009-.122-.172-.168-.494a2.69,2.69,0,0,1,.851-2.3c.244-.215.433-.292.449-.266a3.791,3.791,0,0,0-1.132,3.058Z" transform="translate(-90.346 -200.653)" fill="#aa6550"/>
                    </g>
                  </g>
                </g>
              </g>
              <g id="Grupo_55614" data-name="Grupo 55614" transform="translate(4.285 3.098)">
                <g id="Grupo_55613" data-name="Grupo 55613">
                  <g id="Grupo_55612" data-name="Grupo 55612">
                    <g id="Grupo_55611" data-name="Grupo 55611">
                      <path id="Trazado_101075" data-name="Trazado 101075" d="M87.72,202.173a10.792,10.792,0,0,0,.2-1.3,5.664,5.664,0,0,1,.249-1.439,2.119,2.119,0,0,1,.457-.768,2.257,2.257,0,0,1,.81-.51c1.185-.43,2.253-.778,3.035-1.03a6.907,6.907,0,0,1,1.281-.353,6.849,6.849,0,0,1-1.221.523c-.761.295-1.836.675-3,1.1a2.093,2.093,0,0,0-.726.447,1.954,1.954,0,0,0-.415.675,6.288,6.288,0,0,0-.291,1.378A2.658,2.658,0,0,1,87.72,202.173Z" transform="translate(-87.717 -196.769)" fill="#aa6550"/>
                    </g>
                  </g>
                </g>
              </g>
              <g id="Grupo_55618" data-name="Grupo 55618" transform="translate(3.107 5.692)">
                <g id="Grupo_55617" data-name="Grupo 55617">
                  <g id="Grupo_55616" data-name="Grupo 55616">
                    <g id="Grupo_55615" data-name="Grupo 55615">
                      <path id="Trazado_101076" data-name="Trazado 101076" d="M86.334,201.824c-.069-.012-.055-.449.031-.977s.215-.948.285-.936.055.449-.032.978S86.4,201.836,86.334,201.824Z" transform="translate(-86.29 -199.911)" fill="#aa6550"/>
                    </g>
                  </g>
                </g>
              </g>
            </g>
            <g id="Grupo_55622" data-name="Grupo 55622" transform="translate(5.893 2.934)">
              <g id="Grupo_55621" data-name="Grupo 55621">
                <g id="Grupo_55620" data-name="Grupo 55620">
                  <path id="Trazado_101077" data-name="Trazado 101077" d="M86.182,188.527a1.038,1.038,0,1,0,1.038-1.038A1.038,1.038,0,0,0,86.182,188.527Z" transform="translate(-86.182 -187.488)" fill="#fafafa"/>
                </g>
              </g>
            </g>
          </g>
        </g>
      </g>
      <g id="Plant" transform="translate(32.778 333.365)">
        <g id="Grupo_55640" data-name="Grupo 55640">
          <g id="Grupo_55626" data-name="Grupo 55626" transform="translate(10.724)">
            <g id="Grupo_55625" data-name="Grupo 55625">
              <path id="Trazado_101078" data-name="Trazado 101078" d="M50.582,379.359a10.064,10.064,0,0,1,6.013,5.1,17.771,17.771,0,0,1,1.838,7.82c.165,5.225-2,10.838-4.547,15.4-4.878-3.147-6.833-9.592-7.619-12.923-1.243-5.266-.291-15.537,4.314-15.4" transform="translate(-45.769 -379.357)" fill="#26a69a"/>
            </g>
          </g>
          <g id="Grupo_55628" data-name="Grupo 55628" transform="translate(24.586 23.76)">
            <g id="Grupo_55627" data-name="Grupo 55627">
              <path id="Trazado_101079" data-name="Trazado 101079" d="M63.082,420.45a8.587,8.587,0,0,1,1.57-8.478,11.4,11.4,0,0,1,7.945-3.811,4.8,4.8,0,0,1,3.891,1.109,3.671,3.671,0,0,1,.593,3.674,7.445,7.445,0,0,1-2.336,3.082c-3.407,2.9-7.237,5.079-11.663,4.423" transform="translate(-62.561 -408.139)" fill="#26a69a"/>
            </g>
          </g>
          <g id="Grupo_55631" data-name="Grupo 55631" transform="translate(21.832 29.22)">
            <g id="Grupo_55630" data-name="Grupo 55630">
              <g id="Grupo_55629" data-name="Grupo 55629">
                <path id="Trazado_101080" data-name="Trazado 101080" d="M59.243,438.171a6.086,6.086,0,0,1,0-1.077c.028-.762.064-1.747.108-2.93a30.126,30.126,0,0,1,1.619-9.547A18.448,18.448,0,0,1,66.5,416.71a12.526,12.526,0,0,1,2.5-1.568,7.5,7.5,0,0,1,.74-.307.82.82,0,0,1,.269-.078,19.664,19.664,0,0,0-3.336,2.161,19.054,19.054,0,0,0-5.348,7.834,32.462,32.462,0,0,0-1.7,9.427c-.088,1.234-.16,2.235-.229,2.925A5.614,5.614,0,0,1,59.243,438.171Z" transform="translate(-59.225 -414.754)" fill="#263238"/>
              </g>
            </g>
          </g>
          <g id="Grupo_55634" data-name="Grupo 55634" transform="translate(15.499 7.888)">
            <g id="Grupo_55633" data-name="Grupo 55633">
              <g id="Grupo_55632" data-name="Grupo 55632">
                <path id="Trazado_101081" data-name="Trazado 101081" d="M51.558,388.912a2.212,2.212,0,0,1,.12.453l.272,1.313c.229,1.142.539,2.8.9,4.847.733,4.1,1.666,9.776,2.555,16.067s1.562,12.008,1.992,16.15c.215,2.071.376,3.748.471,4.908.042.548.076.991.1,1.337a2.174,2.174,0,0,1,.01.469A2.169,2.169,0,0,1,57.9,434c-.045-.343-.1-.784-.173-1.33-.145-1.2-.346-2.862-.592-4.893-.5-4.133-1.214-9.838-2.1-16.127s-1.778-11.967-2.444-16.075L51.8,390.7l-.2-1.326A2.119,2.119,0,0,1,51.558,388.912Z" transform="translate(-51.553 -388.912)" fill="#263238"/>
              </g>
            </g>
          </g>
          <g id="Grupo_55636" data-name="Grupo 55636" transform="translate(0 26.944)">
            <g id="Grupo_55635" data-name="Grupo 55635">
              <path id="Trazado_101082" data-name="Trazado 101082" d="M50.853,425.342a20.088,20.088,0,0,0-12.974-12.981c-1.547-.482-3.5-.66-4.534.589s-.486,3.146.315,4.558a17.162,17.162,0,0,0,17.152,8.272" transform="translate(-32.778 -411.997)" fill="#26a69a"/>
            </g>
          </g>
          <g id="Grupo_55639" data-name="Grupo 55639" transform="translate(6.511 32.078)">
            <g id="Grupo_55638" data-name="Grupo 55638">
              <g id="Grupo_55637" data-name="Grupo 55637">
                <path id="Trazado_101083" data-name="Trazado 101083" d="M40.666,418.219a5.09,5.09,0,0,1,.977.267,9.753,9.753,0,0,1,1.119.4c.424.186.929.355,1.441.636a17.65,17.65,0,0,1,1.677.917,19.837,19.837,0,0,1,1.821,1.228,22.312,22.312,0,0,1,3.628,3.483,21.833,21.833,0,0,1,2.676,4.26,18.847,18.847,0,0,1,.816,2.04,16.272,16.272,0,0,1,.532,1.838,14.782,14.782,0,0,1,.3,1.547,8.953,8.953,0,0,1,.136,1.181,5.078,5.078,0,0,1,.034,1.011c-.085.009-.145-1.438-.728-3.674a17.664,17.664,0,0,0-.569-1.8,20.046,20.046,0,0,0-.835-1.994,22.722,22.722,0,0,0-2.655-4.171,23.2,23.2,0,0,0-3.547-3.445,20.626,20.626,0,0,0-1.774-1.237c-.563-.381-1.126-.669-1.633-.946C42.028,418.7,40.639,418.3,40.666,418.219Z" transform="translate(-40.666 -418.215)" fill="#263238"/>
              </g>
            </g>
          </g>
        </g>
      </g>
    </g>
  </g>
</svg>
