<svg xmlns="http://www.w3.org/2000/svg" xmlns:xlink="http://www.w3.org/1999/xlink" width="715" height="400" viewBox="0 0 715 400">
  <defs>
    <clipPath id="clip-path">
      <path id="SVGID" d="M408.354,204.064a60.174,60.174,0,1,1,86.3,1.3l30.282,29.57A101.717,101.717,0,1,0,380.675,234Z" transform="translate(-351.555 -61.07)" fill="none"/>
    </clipPath>
  </defs>
  <g id="Grupo_63733" data-name="Grupo 63733" transform="translate(-603 -3497)">
    <g id="Grupo_63732" data-name="Grupo 63732">
      <rect id="dylan-shaw-UxyWwU6n_ts-unsplash" width="715" height="400" transform="translate(603 3497)" fill="#f3f9ff"/>
    </g>
    <g id="Grupo_58757" data-name="Grupo 58757" transform="translate(632.63 3464.774)">
      <g id="Background_Complete" data-name="Background Complete" transform="translate(53.105 79.893)">
        <g id="Grupo_58413" data-name="Grupo 58413" transform="translate(495.727 214.987)">
          <g id="Grupo_58391" data-name="Grupo 58391">
            <g id="Grupo_58390" data-name="Grupo 58390">
              <path id="Trazado_102838" data-name="Trazado 102838" d="M683.682,336.868s-5.563-2.405-9.511,10.581a156.989,156.989,0,0,0-5.023,20.262s-1.16,2.78-3.164,1.454-5.174-5.533-7.939-4.181c-2.866,1.4-3.26,4.95-1.8,9.8s4.262,15.6,4.513,16.569c.245.955-.055,2.479-1.565,1.8s-10.784-7.925-13.956-3.319,3.11,17.453,3.771,18.871.481,2.1-.16,2.6-3.529-2.234-6.251-4.185-6.22-3.737-7.828-.926-.452,13.084,12.152,27.86l6.289,6.465,8.816-2.08c18.6-5.6,25.129-13.613,25.3-16.847s-3.738-3.626-7.083-3.458-7.25.9-7.521.134-.049-1.436,1.273-2.271,13.559-8.235,13.385-13.825-11.891-4.522-13.53-4.764-1.067-1.687-.344-2.357,8.912-8.2,12.764-11.488,5.441-6.486,3.79-9.216c-1.593-2.633-6.535-.812-8.938-.782s-1.872-2.936-1.872-2.936a157.05,157.05,0,0,0,6.744-19.755c3.711-13.056-2.424-14.041-2.424-14.041" transform="translate(-634.199 -336.692)" fill="#ebebeb"/>
            </g>
          </g>
          <g id="Grupo_58394" data-name="Grupo 58394" transform="translate(14.776 11.799)">
            <g id="Grupo_58393" data-name="Grupo 58393">
              <g id="Grupo_58392" data-name="Grupo 58392">
                <path id="Trazado_102839" data-name="Trazado 102839" d="M682.662,350.516s-.016.1-.062.278-.123.463-.214.807c-.2.721-.484,1.762-.851,3.095-.743,2.687-1.846,6.567-3.228,11.355-2.76,9.578-6.687,22.777-11.071,37.339s-8.346,27.756-11.16,37.317c-1.4,4.772-2.533,8.639-3.322,11.326-.391,1.326-.7,2.361-.906,3.079q-.156.511-.243.8c-.057.18-.093.27-.093.27s.016-.1.062-.278.123-.462.213-.807c.2-.721.485-1.762.852-3.094.743-2.687,1.845-6.566,3.227-11.355,2.761-9.578,6.687-22.778,11.074-37.345s8.344-27.75,11.157-37.312c1.4-4.772,2.534-8.639,3.322-11.326l.907-3.08c.1-.341.184-.606.243-.8S682.662,350.516,682.662,350.516Z" transform="translate(-651.511 -350.516)" fill="#e0e0e0"/>
              </g>
            </g>
          </g>
          <g id="Grupo_58397" data-name="Grupo 58397" transform="translate(28.042 34.356)">
            <g id="Grupo_58396" data-name="Grupo 58396">
              <g id="Grupo_58395" data-name="Grupo 58395">
                <path id="Trazado_102840" data-name="Trazado 102840" d="M667.056,376.944a2.612,2.612,0,0,1,.336.56c.2.369.473.911.8,1.583.657,1.347,1.516,3.231,2.424,5.329l2.3,5.377q.415.956.7,1.626a2.575,2.575,0,0,1,.232.61,2.672,2.672,0,0,1-.34-.558c-.2-.369-.472-.912-.8-1.588-.644-1.354-1.478-3.249-2.386-5.345-.9-2.058-1.71-3.919-2.34-5.359q-.419-.955-.713-1.623A2.7,2.7,0,0,1,667.056,376.944Z" transform="translate(-667.053 -376.944)" fill="#e0e0e0"/>
              </g>
            </g>
          </g>
          <g id="Grupo_58400" data-name="Grupo 58400" transform="translate(35.689 41.046)">
            <g id="Grupo_58399" data-name="Grupo 58399">
              <g id="Grupo_58398" data-name="Grupo 58398">
                <path id="Trazado_102841" data-name="Trazado 102841" d="M676.013,393.189c-.038-.076,3.768-2.02,8.5-4.341s8.6-4.141,8.635-4.065-3.767,2.02-8.5,4.342S676.051,393.266,676.013,393.189Z" transform="translate(-676.013 -384.781)" fill="#e0e0e0"/>
              </g>
            </g>
          </g>
          <g id="Grupo_58403" data-name="Grupo 58403" transform="translate(27.946 67.929)">
            <g id="Grupo_58402" data-name="Grupo 58402">
              <g id="Grupo_58401" data-name="Grupo 58401">
                <path id="Trazado_102842" data-name="Trazado 102842" d="M666.941,419.865a2.755,2.755,0,0,1,.649-.153l1.782-.315c1.5-.267,3.58-.644,5.855-1.141s4.323-1.007,5.8-1.39l1.752-.452a2.774,2.774,0,0,1,.654-.131,2.79,2.79,0,0,1-.62.247c-.4.139-.994.329-1.728.546-1.466.439-3.511.989-5.795,1.483s-4.372.842-5.887,1.055c-.759.1-1.373.179-1.8.218A2.731,2.731,0,0,1,666.941,419.865Z" transform="translate(-666.941 -416.279)" fill="#e0e0e0"/>
              </g>
            </g>
          </g>
          <g id="Grupo_58406" data-name="Grupo 58406" transform="translate(18.024 59.382)">
            <g id="Grupo_58405" data-name="Grupo 58405">
              <g id="Grupo_58404" data-name="Grupo 58404">
                <path id="Trazado_102843" data-name="Trazado 102843" d="M655.318,406.265a2.379,2.379,0,0,1,.44.432c.268.29.649.718,1.113,1.25.929,1.064,2.2,2.548,3.582,4.2s2.627,3.157,3.514,4.257c.443.551.8,1,1.038,1.313a2.435,2.435,0,0,1,.348.509,2.329,2.329,0,0,1-.44-.431c-.268-.291-.649-.718-1.113-1.25-.93-1.064-2.2-2.548-3.583-4.2s-2.626-3.157-3.513-4.257c-.443-.55-.8-1-1.038-1.313A2.37,2.37,0,0,1,655.318,406.265Z" transform="translate(-655.316 -406.264)" fill="#e0e0e0"/>
              </g>
            </g>
          </g>
          <g id="Grupo_58409" data-name="Grupo 58409" transform="translate(8.714 77.991)">
            <g id="Grupo_58408" data-name="Grupo 58408">
              <g id="Grupo_58407" data-name="Grupo 58407">
                <path id="Trazado_102844" data-name="Trazado 102844" d="M644.41,428.067a3.938,3.938,0,0,1,.557.558c.378.423.859.958,1.431,1.6,1.2,1.357,2.838,3.247,4.633,5.346s3.41,4.012,4.566,5.405l1.356,1.661a3.843,3.843,0,0,1,.465.636,3.8,3.8,0,0,1-.557-.558l-1.431-1.6c-1.2-1.357-2.837-3.247-4.634-5.346s-3.408-4.011-4.564-5.4l-1.357-1.661A3.833,3.833,0,0,1,644.41,428.067Z" transform="translate(-644.409 -428.066)" fill="#e0e0e0"/>
              </g>
            </g>
          </g>
          <g id="Grupo_58412" data-name="Grupo 58412" transform="translate(21.515 87.627)">
            <g id="Grupo_58411" data-name="Grupo 58411">
              <g id="Grupo_58410" data-name="Grupo 58410">
                <path id="Trazado_102845" data-name="Trazado 102845" d="M659.406,444.474a4.407,4.407,0,0,1,.817-.213l2.246-.481c1.9-.406,4.511-.976,7.381-1.684s5.456-1.409,7.322-1.931l2.212-.615a4.4,4.4,0,0,1,.822-.191,4.424,4.424,0,0,1-.787.306c-.512.178-1.259.422-2.186.709-1.853.575-4.432,1.314-7.31,2.02s-5.5,1.247-7.413,1.6c-.955.174-1.729.306-2.266.385A4.489,4.489,0,0,1,659.406,444.474Z" transform="translate(-659.406 -439.357)" fill="#e0e0e0"/>
              </g>
            </g>
          </g>
        </g>
        <g id="Grupo_58444" data-name="Grupo 58444" transform="translate(174.979 249.2)">
          <g id="Grupo_58443" data-name="Grupo 58443">
            <g id="Grupo_58415" data-name="Grupo 58415">
              <g id="Grupo_58414" data-name="Grupo 58414">
                <rect id="Rectángulo_5369" data-name="Rectángulo 5369" width="111.047" height="51.213" fill="#f5f5f5"/>
              </g>
            </g>
            <g id="Grupo_58417" data-name="Grupo 58417" transform="translate(2.542 2.695)">
              <g id="Grupo_58416" data-name="Grupo 58416">
                <path id="Trazado_102846" data-name="Trazado 102846" d="M367.249,426.038H261.387V379.933H367.249Zm-105.171-.691H366.558V380.624H262.078Z" transform="translate(-261.387 -379.933)" fill="#e0e0e0"/>
              </g>
            </g>
            <g id="Grupo_58419" data-name="Grupo 58419" transform="translate(111.047)">
              <g id="Grupo_58418" data-name="Grupo 58418">
                <rect id="Rectángulo_5370" data-name="Rectángulo 5370" width="27.128" height="51.213" fill="#e0e0e0"/>
              </g>
            </g>
            <g id="Grupo_58422" data-name="Grupo 58422" transform="translate(2.752 16.684)">
              <g id="Grupo_58421" data-name="Grupo 58421">
                <g id="Grupo_58420" data-name="Grupo 58420">
                  <path id="Trazado_102847" data-name="Trazado 102847" d="M261.768,396.6H366.939a.14.14,0,0,0,0-.279H261.768a.14.14,0,0,0,0,.279Z" transform="translate(-261.633 -396.323)" fill="#e0e0e0"/>
                </g>
              </g>
            </g>
            <g id="Grupo_58425" data-name="Grupo 58425" transform="translate(55.376 2.776)">
              <g id="Grupo_58424" data-name="Grupo 58424">
                <g id="Grupo_58423" data-name="Grupo 58423">
                  <path id="Trazado_102848" data-name="Trazado 102848" d="M323.728,394.076a114.979,114.979,0,0,0,.036-13.912.142.142,0,0,0-.283,0,115.154,115.154,0,0,0,.037,13.912.105.105,0,0,0,.211,0Z" transform="translate(-323.288 -380.028)" fill="#e0e0e0"/>
                </g>
              </g>
            </g>
            <g id="Grupo_58427" data-name="Grupo 58427" transform="translate(81.259 8.436)">
              <g id="Grupo_58426" data-name="Grupo 58426">
                <path id="Trazado_102849" data-name="Trazado 102849" d="M356.478,388.091a1.433,1.433,0,1,1-1.433-1.432A1.433,1.433,0,0,1,356.478,388.091Z" transform="translate(-353.612 -386.659)" fill="#e0e0e0"/>
              </g>
            </g>
            <g id="Grupo_58429" data-name="Grupo 58429" transform="translate(26.065 8.436)">
              <g id="Grupo_58428" data-name="Grupo 58428">
                <path id="Trazado_102850" data-name="Trazado 102850" d="M291.812,388.091a1.433,1.433,0,1,1-1.433-1.432A1.433,1.433,0,0,1,291.812,388.091Z" transform="translate(-288.947 -386.659)" fill="#e0e0e0"/>
              </g>
            </g>
            <g id="Grupo_58431" data-name="Grupo 58431" transform="translate(54.04 24.315)">
              <g id="Grupo_58430" data-name="Grupo 58430">
                <path id="Trazado_102851" data-name="Trazado 102851" d="M324.588,406.7a1.433,1.433,0,1,1-1.433-1.432A1.433,1.433,0,0,1,324.588,406.7Z" transform="translate(-321.722 -405.263)" fill="#e0e0e0"/>
              </g>
            </g>
            <g id="Grupo_58433" data-name="Grupo 58433" transform="translate(7.559 51.213)">
              <g id="Grupo_58432" data-name="Grupo 58432">
                <path id="Trazado_102852" data-name="Trazado 102852" d="M272.983,436.778l-5.717,32.153h3.216l10.541-32.153Z" transform="translate(-267.266 -436.778)" fill="#e0e0e0"/>
              </g>
            </g>
            <g id="Grupo_58435" data-name="Grupo 58435" transform="translate(95.151 51.213)">
              <g id="Grupo_58434" data-name="Grupo 58434">
                <path id="Trazado_102853" data-name="Trazado 102853" d="M377.927,436.778l4.781,32.209h-3.216l-9.605-32.209Z" transform="translate(-369.888 -436.778)" fill="#e0e0e0"/>
              </g>
            </g>
            <g id="Grupo_58437" data-name="Grupo 58437" transform="translate(116.618 51.213)">
              <g id="Grupo_58436" data-name="Grupo 58436">
                <path id="Trazado_102854" data-name="Trazado 102854" d="M403.079,436.778l5.417,32.209H405.28l-10.241-32.209Z" transform="translate(-395.039 -436.778)" fill="#e0e0e0"/>
              </g>
            </g>
            <g id="Grupo_58439" data-name="Grupo 58439" transform="translate(53.944 38.808)">
              <g id="Grupo_58438" data-name="Grupo 58438">
                <path id="Trazado_102855" data-name="Trazado 102855" d="M324.475,423.677a1.433,1.433,0,1,1-1.433-1.433A1.433,1.433,0,0,1,324.475,423.677Z" transform="translate(-321.61 -422.244)" fill="#e0e0e0"/>
              </g>
            </g>
            <g id="Grupo_58442" data-name="Grupo 58442" transform="translate(2.752 32.544)">
              <g id="Grupo_58441" data-name="Grupo 58441">
                <g id="Grupo_58440" data-name="Grupo 58440">
                  <path id="Trazado_102856" data-name="Trazado 102856" d="M261.768,415.182H366.939a.139.139,0,0,0,0-.278H261.768a.139.139,0,0,0,0,.278Z" transform="translate(-261.633 -414.904)" fill="#e0e0e0"/>
                </g>
              </g>
            </g>
          </g>
        </g>
        <g id="Grupo_58448" data-name="Grupo 58448" transform="translate(449.798)">
          <g id="Grupo_58445" data-name="Grupo 58445">
            <rect id="Rectángulo_5371" data-name="Rectángulo 5371" width="70.208" height="94.165" fill="#ebebeb"/>
          </g>
          <g id="Grupo_58446" data-name="Grupo 58446" transform="translate(3.654 3.701)">
            <rect id="Rectángulo_5372" data-name="Rectángulo 5372" width="62.899" height="86.763" fill="#fafafa"/>
          </g>
          <g id="Grupo_58447" data-name="Grupo 58447" transform="translate(24.037 33.713)">
            <rect id="Rectángulo_5373" data-name="Rectángulo 5373" width="24.013" height="27.439" fill="#ebebeb"/>
          </g>
        </g>
        <g id="Grupo_58452" data-name="Grupo 58452" transform="translate(489.431 116.489)">
          <g id="Grupo_58449" data-name="Grupo 58449">
            <rect id="Rectángulo_5374" data-name="Rectángulo 5374" width="45.594" height="61.152" transform="translate(0 45.594) rotate(-90)" fill="#ebebeb"/>
          </g>
          <g id="Grupo_58450" data-name="Grupo 58450" transform="translate(2.403 2.373)">
            <rect id="Rectángulo_5375" data-name="Rectángulo 5375" width="56.345" height="40.848" fill="#fafafa"/>
          </g>
          <g id="Grupo_58451" data-name="Grupo 58451" transform="translate(21.894 14.39)">
            <rect id="Rectángulo_5376" data-name="Rectángulo 5376" width="15.594" height="17.819" transform="translate(0 15.594) rotate(-90)" fill="#ebebeb"/>
          </g>
        </g>
        <g id="Grupo_58456" data-name="Grupo 58456" transform="translate(0 36.364)">
          <g id="Grupo_58453" data-name="Grupo 58453">
            <rect id="Rectángulo_5377" data-name="Rectángulo 5377" width="44.547" height="59.747" fill="#ebebeb"/>
          </g>
          <g id="Grupo_58454" data-name="Grupo 58454" transform="translate(2.319 2.348)">
            <rect id="Rectángulo_5378" data-name="Rectángulo 5378" width="39.909" height="55.051" fill="#fafafa"/>
          </g>
          <g id="Grupo_58455" data-name="Grupo 58455" transform="translate(15.252 21.391)">
            <rect id="Rectángulo_5379" data-name="Rectángulo 5379" width="15.236" height="17.41" fill="#ebebeb"/>
          </g>
        </g>
        <g id="Grupo_58468" data-name="Grupo 58468" transform="translate(244.909 220.099)">
          <g id="Grupo_58466" data-name="Grupo 58466">
            <g id="Grupo_58459" data-name="Grupo 58459">
              <g id="Grupo_58458" data-name="Grupo 58458">
                <g id="Grupo_58457" data-name="Grupo 58457">
                  <path id="Trazado_102857" data-name="Trazado 102857" d="M343.376,342.681l-3.036,28.177h38.9l3.226-28.177Z" transform="translate(-340.339 -342.681)" fill="#ebebeb"/>
                </g>
              </g>
            </g>
            <g id="Grupo_58462" data-name="Grupo 58462" transform="translate(1.682 2.024)">
              <g id="Grupo_58461" data-name="Grupo 58461">
                <g id="Grupo_58460" data-name="Grupo 58460">
                  <path id="Trazado_102858" data-name="Trazado 102858" d="M345.263,345.052l-2.954,24.656h35.109l2.841-24.656Z" transform="translate(-342.31 -345.052)" fill="#fafafa"/>
                </g>
              </g>
            </g>
            <g id="Grupo_58465" data-name="Grupo 58465" transform="translate(8.726 6.171)">
              <g id="Grupo_58464" data-name="Grupo 58464">
                <g id="Grupo_58463" data-name="Grupo 58463">
                  <path id="Trazado_102859" data-name="Trazado 102859" d="M352.381,349.911l-1.818,16.362h22.156l1.137-16.362Z" transform="translate(-350.563 -349.911)" fill="#e0e0e0"/>
                </g>
              </g>
            </g>
          </g>
          <g id="Grupo_58467" data-name="Grupo 58467" transform="translate(38.903 11.08)">
            <path id="Trazado_102860" data-name="Trazado 102860" d="M387.755,356.717l8.036,16.155-9.872-.113,1.958-17.1" transform="translate(-385.918 -355.662)" fill="#f5f5f5"/>
          </g>
        </g>
      </g>
      <g id="Floor" transform="translate(51.37 412.075)">
        <g id="Grupo_58470" data-name="Grupo 58470">
          <g id="Grupo_58469" data-name="Grupo 58469">
            <path id="Trazado_102861" data-name="Trazado 102861" d="M588.462,474.222c0,.122-120.242.222-268.533.222-148.343,0-268.559-.1-268.559-.222S171.586,474,319.929,474C468.22,474,588.462,474.1,588.462,474.222Z" transform="translate(-51.37 -473.999)" fill="#263238"/>
          </g>
        </g>
      </g>
      <g id="Character" transform="translate(296.985 51.226)">
        <g id="Grupo_58610" data-name="Grupo 58610">
          <g id="Grupo_58485" data-name="Grupo 58485">
            <g id="Grupo_58474" data-name="Grupo 58474">
              <g id="Grupo_58471" data-name="Grupo 58471" transform="translate(0.222 0.178)">
                <circle id="Elipse_4082" data-name="Elipse 4082" cx="112.089" cy="112.089" r="112.089" fill="#f5f5f5"/>
              </g>
              <g id="Grupo_58473" data-name="Grupo 58473">
                <g id="Grupo_58472" data-name="Grupo 58472">
                  <path id="Trazado_102862" data-name="Trazado 102862" d="M563.535,163.493s-.031-.615-.069-1.817q-.027-.9-.067-2.238c-.021-.89-.045-1.924-.16-3.091q-.137-1.754-.308-3.919c-.147-1.439-.378-3.005-.589-4.706a117.925,117.925,0,0,0-2.278-11.606,111.17,111.17,0,0,0-4.592-14.074,108.206,108.206,0,0,0-7.8-15.781,113.327,113.327,0,0,0-28.446-31.824A111.675,111.675,0,0,0,472.1,53.524a113.719,113.719,0,0,0-43.854.5A110.47,110.47,0,0,0,398.732,64.8a117.951,117.951,0,0,0-13.785,8.729A122.675,122.675,0,0,0,372.322,84.4a120.621,120.621,0,0,0-11.052,12.9,110.2,110.2,0,0,0-9.123,14.683c-.644,1.3-1.371,2.571-1.949,3.912q-.9,2-1.808,4c-1.08,2.724-2.2,5.449-3.086,8.266a108.973,108.973,0,0,0-4.262,17.308,111.659,111.659,0,0,0,0,36.016A109.135,109.135,0,0,0,345.3,198.8l.709,2.1.354,1.046.4,1.028q.809,2.054,1.617,4.1.905,2,1.808,4c.577,1.343,1.305,2.608,1.949,3.913a110.185,110.185,0,0,0,9.123,14.689,120.59,120.59,0,0,0,11.054,12.9,122.54,122.54,0,0,0,12.627,10.877A112.081,112.081,0,0,0,413.29,268.7a119.467,119.467,0,0,0,14.963,4.266,113.739,113.739,0,0,0,43.858.5,111.643,111.643,0,0,0,47.125-20.918,113.291,113.291,0,0,0,28.443-31.825,108.142,108.142,0,0,0,7.794-15.779,111,111,0,0,0,4.591-14.073,117.908,117.908,0,0,0,2.277-11.6c.211-1.7.442-3.266.589-4.706q.17-2.162.309-3.918c.114-1.168.137-2.2.159-3.091s.049-1.635.067-2.237c.038-1.2.069-1.817.069-1.817s0,.615-.023,1.817q-.019.905-.046,2.24c-.014.891-.031,1.925-.137,3.094q-.128,1.755-.288,3.923c-.139,1.441-.364,3.01-.568,4.713a117.247,117.247,0,0,1-2.241,11.628,110.764,110.764,0,0,1-4.562,14.109,108.024,108.024,0,0,1-7.777,15.828,113.394,113.394,0,0,1-28.465,31.948,111.932,111.932,0,0,1-47.249,21.031,114.041,114.041,0,0,1-44.008-.471,110.785,110.785,0,0,1-29.638-10.8A118.269,118.269,0,0,1,384.69,253.8a123.054,123.054,0,0,1-12.679-10.914,121.062,121.062,0,0,1-11.1-12.95,110.605,110.605,0,0,1-9.162-14.744c-.646-1.309-1.378-2.581-1.957-3.929q-.905-2-1.815-4.015-.81-2.054-1.625-4.115l-.405-1.032-.356-1.051-.713-2.106a109.508,109.508,0,0,1-4.278-17.382A112.05,112.05,0,0,1,340.6,145.4a109.331,109.331,0,0,1,4.28-17.376c.895-2.829,2.015-5.564,3.1-8.3l1.815-4.014c.581-1.347,1.311-2.619,1.957-3.927a110.635,110.635,0,0,1,9.162-14.739,121.021,121.021,0,0,1,11.1-12.946,123.1,123.1,0,0,1,12.677-10.911A112.449,112.449,0,0,1,413.15,57.907a119.787,119.787,0,0,1,15.018-4.273,114.088,114.088,0,0,1,44-.472,111.929,111.929,0,0,1,47.248,21.026,113.42,113.42,0,0,1,28.469,31.947,108.084,108.084,0,0,1,7.778,15.83,110.655,110.655,0,0,1,4.564,14.11,117.253,117.253,0,0,1,2.24,11.63c.2,1.7.429,3.272.568,4.714q.159,2.165.288,3.924c.107,1.168.124,2.2.137,3.094s.033,1.637.046,2.24C563.534,162.878,563.535,163.493,563.535,163.493Z" transform="translate(-339.134 -51.226)" fill="#263238"/>
                </g>
              </g>
            </g>
            <g id="Grupo_58482" data-name="Grupo 58482" transform="translate(10.602 8.402)">
              <g id="Grupo_58481" data-name="Grupo 58481" clip-path="url(#clip-path)">
                <g id="Grupo_58475" data-name="Grupo 58475">
                  <path id="Trazado_102863" data-name="Trazado 102863" d="M408.354,204.064a60.174,60.174,0,1,1,86.3,1.3l30.282,29.57A101.717,101.717,0,1,0,380.675,234Z" transform="translate(-351.555 -61.07)" fill="#26a69a"/>
                </g>
                <g id="Grupo_58476" data-name="Grupo 58476" transform="translate(132.749 101.187)" opacity="0.8">
                  <path id="Trazado_102864" data-name="Trazado 102864" d="M529.271,179.621h54.7s-5.532,44.53-6.638,45.36-33.467,38.168-33.467,38.168l-36.785-43.7Z" transform="translate(-507.084 -179.621)"/>
                </g>
                <g id="Grupo_58477" data-name="Grupo 58477" transform="translate(140.178 26.359)" opacity="0.7">
                  <path id="Trazado_102865" data-name="Trazado 102865" d="M515.788,129.946,554.5,91.953l27.249,40.658,3.634,34.167-54.18,0-9.868-21.723Z" transform="translate(-515.788 -91.953)"/>
                </g>
                <g id="Grupo_58478" data-name="Grupo 58478" transform="translate(103.799 -4.192)" opacity="0.5">
                  <path id="Trazado_102866" data-name="Trazado 102866" d="M473.461,110.923c-.663-1.107,0-54.764,0-54.764l33.357,4.192,41.067,26.51-39.456,38.721-24.844-3.6Z" transform="translate(-473.167 -56.159)"/>
                </g>
                <g id="Grupo_58479" data-name="Grupo 58479" transform="translate(24.641 -4.192)" opacity="0.3">
                  <path id="Trazado_102867" data-name="Trazado 102867" d="M380.425,88.8c.83.277,36.785,38.721,36.785,38.721l32.083-12.723,10.289-12.834.294-45.8-38.242,4.192Z" transform="translate(-380.425 -56.159)"/>
                </g>
                <g id="Grupo_58480" data-name="Grupo 58480" transform="translate(-3.607 30.956)" opacity="0.1">
                  <path id="Trazado_102868" data-name="Trazado 102868" d="M347.329,167.569c.83.553,60.848,0,60.848,0l-1.058-39.5L378.148,97.338l-19.756,23.488Z" transform="translate(-347.329 -97.338)"/>
                </g>
              </g>
            </g>
            <g id="Grupo_58483" data-name="Grupo 58483" transform="translate(90.097 88.913)">
              <circle id="Elipse_4083" data-name="Elipse 4083" cx="23.355" cy="23.355" r="23.355" fill="#e0e0e0"/>
            </g>
            <g id="Grupo_58484" data-name="Grupo 58484" transform="translate(106.305 95.294)">
              <path id="Trazado_102869" data-name="Trazado 102869" d="M463.95,181.406h0a6.631,6.631,0,0,0,8.175,4.519l81.216-23.052-83.819,10.09A6.631,6.631,0,0,0,463.95,181.406Z" transform="translate(-463.681 -162.873)" fill="#455a64"/>
            </g>
          </g>
          <g id="Grupo_58486" data-name="Grupo 58486" transform="translate(70.159 162.78)">
            <path id="Trazado_102870" data-name="Trazado 102870" d="M452.156,241.939,447.687,264.6h-5.925l2.332-11.948-7.544,9.713h-2.817l-4.111-9.713-2.4,11.948h-5.892l4.532-22.665h5.212l5.31,13.113,10.3-13.113Z" transform="translate(-421.333 -241.939)" fill="#263238"/>
            <path id="Trazado_102871" data-name="Trazado 102871" d="M479.326,247.883l-3.5,17.549H470l.357-1.652a7.208,7.208,0,0,1-5.084,1.943c-3.787,0-7.414-2.882-7.414-8,0-5.828,4.274-10.134,9.519-10.134,2.364,0,4.274.713,5.375,2.4l.421-2.1Zm-7.738,8a3.1,3.1,0,0,0-3.335-3.367c-2.428,0-4.177,1.975-4.177,4.921a3.079,3.079,0,0,0,3.335,3.335C469.872,260.769,471.588,258.794,471.588,255.88Z" transform="translate(-426.683 -242.767)" fill="#263238"/>
            <path id="Trazado_102872" data-name="Trazado 102872" d="M496.377,256.771l4.759,8.71H494.6l-2.4-4.6-4.241,4.6H481l8.774-9-4.63-8.547h6.443l2.331,4.467,4.177-4.467h6.767Z" transform="translate(-430.072 -242.817)" fill="#263238"/>
            <path id="Trazado_102873" data-name="Trazado 102873" d="M506.488,264.217a3.819,3.819,0,0,1,3.95-3.918,3.238,3.238,0,0,1,3.464,3.368,3.829,3.829,0,0,1-3.917,3.917A3.319,3.319,0,0,1,506.488,264.217Z" transform="translate(-433.806 -244.628)" fill="#263238"/>
          </g>
          <g id="Grupo_58487" data-name="Grupo 58487" transform="translate(98.722 189.842)">
            <path id="Trazado_102874" data-name="Trazado 102874" d="M458.233,286.2h7.075l-.343,1.758H454.8l.283-1.374,6.893-5.518c1.9-1.536,2.465-2.466,2.465-3.618,0-1.232-.869-2.042-2.769-2.042a5.035,5.035,0,0,0-3.658,1.576l-1.355-1.172a7.1,7.1,0,0,1,5.3-2.163c2.871,0,4.508,1.455,4.508,3.537,0,1.637-.708,3.052-3.132,4.973Z" transform="translate(-454.797 -273.645)" fill="#263238"/>
            <path id="Trazado_102875" data-name="Trazado 102875" d="M474.008,275.593l-1.172,3.881h1.374c3.617,0,5.255,1.5,5.255,3.779,0,2.931-2.405,4.892-6.023,4.892a6.635,6.635,0,0,1-4.952-1.779l1.071-1.556a5.321,5.321,0,0,0,4.023,1.536c2.445,0,3.861-1.071,3.861-2.871,0-1.395-1.011-2.243-3.6-2.243H470.41l2.2-7.4H480.6l-.344,1.759Z" transform="translate(-456.803 -273.673)" fill="#263238"/>
            <path id="Trazado_102876" data-name="Trazado 102876" d="M483.673,282.923c0-4.912,2.77-9.278,7.155-9.278,2.972,0,4.77,1.92,4.77,5.195,0,4.912-2.789,9.278-7.135,9.278C485.472,288.117,483.673,286.2,483.673,282.923Zm9.9-4.042c0-2.244-1.091-3.437-2.911-3.437-3.193,0-4.972,4.145-4.972,7.439,0,2.244,1.091,3.437,2.93,3.437C491.8,286.319,493.577,282.175,493.577,278.881Z" transform="translate(-459.026 -273.645)" fill="#263238"/>
          </g>
          <g id="Grupo_58494" data-name="Grupo 58494" transform="translate(234.553 333.397)">
            <g id="Grupo_58488" data-name="Grupo 58488">
              <path id="Trazado_102877" data-name="Trazado 102877" d="M613.938,451.806l3.627,5.861,9.242-10.675-4.868-5.157Z" transform="translate(-613.938 -441.835)" fill="#e8505b"/>
            </g>
            <g id="Grupo_58490" data-name="Grupo 58490" transform="translate(2.601 4.062)">
              <g id="Grupo_58489" data-name="Grupo 58489">
                <path id="Trazado_102878" data-name="Trazado 102878" d="M626.433,446.6a8.779,8.779,0,0,1-1.243,1.646c-.818.974-1.99,2.281-3.311,3.7l-3.408,3.6a10.023,10.023,0,0,1-1.483,1.43,8.926,8.926,0,0,1,1.248-1.641c.819-.972,1.994-2.278,3.315-3.695l3.4-3.6A10.235,10.235,0,0,1,626.433,446.6Z" transform="translate(-616.986 -446.594)" fill="#263238"/>
              </g>
            </g>
            <g id="Grupo_58492" data-name="Grupo 58492" transform="translate(3.541 4.612)">
              <g id="Grupo_58491" data-name="Grupo 58491">
                <path id="Trazado_102879" data-name="Trazado 102879" d="M618.093,447.244a19.843,19.843,0,0,1,4.22,4.181,19.839,19.839,0,0,1-4.22-4.181Z" transform="translate(-618.087 -447.238)" fill="#263238"/>
              </g>
            </g>
            <g id="Grupo_58493" data-name="Grupo 58493" transform="translate(2.52 4.181)" opacity="0.6">
              <path id="Trazado_102880" data-name="Trazado 102880" d="M618,458.384l9.242-10.675-.921-.976-9.427,10.356.986,1.19" transform="translate(-616.891 -446.733)" fill="#fff"/>
            </g>
          </g>
          <g id="Grupo_58562" data-name="Grupo 58562" transform="translate(151.803 355.915)">
            <g id="Grupo_58561" data-name="Grupo 58561">
              <g id="Grupo_58501" data-name="Grupo 58501" transform="translate(0.044)">
                <g id="Grupo_58497" data-name="Grupo 58497">
                  <g id="Grupo_58496" data-name="Grupo 58496">
                    <g id="Grupo_58495" data-name="Grupo 58495">
                      <path id="Trazado_102881" data-name="Trazado 102881" d="M526.885,469.659l.025-1.441,14.586.114-.026,4.748-.9.049c-4.009.184-20.4.673-23.068-.1C514.523,472.171,526.885,469.659,526.885,469.659Z" transform="translate(-517.038 -468.218)" fill="#e8505b"/>
                    </g>
                  </g>
                </g>
                <g id="Grupo_58500" data-name="Grupo 58500" transform="translate(19.167 0.88)" opacity="0.6">
                  <g id="Grupo_58499" data-name="Grupo 58499">
                    <g id="Grupo_58498" data-name="Grupo 58498">
                      <path id="Trazado_102882" data-name="Trazado 102882" d="M539.495,473.095a4.663,4.663,0,0,1,1.882-2.869,5.169,5.169,0,0,1,3.4-.962l-.035,3.773Z" transform="translate(-539.495 -469.248)" fill="#fff"/>
                    </g>
                  </g>
                </g>
              </g>
              <g id="Grupo_58504" data-name="Grupo 58504" transform="translate(0 2.868)" opacity="0.6">
                <g id="Grupo_58503" data-name="Grupo 58503">
                  <g id="Grupo_58502" data-name="Grupo 58502">
                    <path id="Trazado_102883" data-name="Trazado 102883" d="M520.836,471.578s-4.336,1.135-3.8,1.8,17.112.751,24.43.194l-.02-.3-19.339.054S521.681,471.616,520.836,471.578Z" transform="translate(-516.987 -471.578)" fill="#fff"/>
                  </g>
                </g>
              </g>
              <g id="Grupo_58508" data-name="Grupo 58508" transform="translate(0.043 4.436)">
                <g id="Grupo_58507" data-name="Grupo 58507">
                  <g id="Grupo_58506" data-name="Grupo 58506">
                    <g id="Grupo_58505" data-name="Grupo 58505">
                      <path id="Trazado_102884" data-name="Trazado 102884" d="M541.678,473.532a1.418,1.418,0,0,1-.25.024l-.717.037-2.64.092c-2.23.063-5.312.112-8.715.1s-6.486-.092-8.714-.175L518,473.491l-.717-.043a1.4,1.4,0,0,1-.249-.026,1.54,1.54,0,0,1,.251-.007l.718.013,2.64.063c2.229.054,5.308.112,8.711.127s6.482-.016,8.711-.049l2.64-.04.719-.006A1.541,1.541,0,0,1,541.678,473.532Z" transform="translate(-517.037 -473.415)" fill="#263238"/>
                    </g>
                  </g>
                </g>
              </g>
              <g id="Grupo_58512" data-name="Grupo 58512" transform="translate(3.743 2.701)">
                <g id="Grupo_58511" data-name="Grupo 58511">
                  <g id="Grupo_58510" data-name="Grupo 58510">
                    <g id="Grupo_58509" data-name="Grupo 58509">
                      <path id="Trazado_102885" data-name="Trazado 102885" d="M522.747,473.5a5.264,5.264,0,0,0-.482-1.174,5.677,5.677,0,0,0-.891-.945,1.931,1.931,0,0,1,1.042.86A1.712,1.712,0,0,1,522.747,473.5Z" transform="translate(-521.372 -471.382)" fill="#263238"/>
                    </g>
                  </g>
                </g>
              </g>
              <g id="Grupo_58516" data-name="Grupo 58516" transform="translate(8.657 1.695)">
                <g id="Grupo_58515" data-name="Grupo 58515">
                  <g id="Grupo_58514" data-name="Grupo 58514">
                    <g id="Grupo_58513" data-name="Grupo 58513">
                      <path id="Trazado_102886" data-name="Trazado 102886" d="M527.893,471.333c-.041.024-.243-.209-.452-.521s-.345-.583-.3-.607.244.209.453.52S527.935,471.309,527.893,471.333Z" transform="translate(-527.129 -470.204)" fill="#263238"/>
                    </g>
                  </g>
                </g>
              </g>
              <g id="Grupo_58520" data-name="Grupo 58520" transform="translate(9.699 1.486)">
                <g id="Grupo_58519" data-name="Grupo 58519">
                  <g id="Grupo_58518" data-name="Grupo 58518">
                    <g id="Grupo_58517" data-name="Grupo 58517">
                      <path id="Trazado_102887" data-name="Trazado 102887" d="M529.253,470.725c-.032.033-.26-.11-.509-.32s-.422-.408-.39-.441.26.109.509.32S529.286,470.692,529.253,470.725Z" transform="translate(-528.35 -469.959)" fill="#263238"/>
                    </g>
                  </g>
                </g>
              </g>
              <g id="Grupo_58524" data-name="Grupo 58524" transform="translate(9.84 0.904)">
                <g id="Grupo_58523" data-name="Grupo 58523">
                  <g id="Grupo_58522" data-name="Grupo 58522">
                    <g id="Grupo_58521" data-name="Grupo 58521">
                      <path id="Trazado_102888" data-name="Trazado 102888" d="M530.033,469.355a3.555,3.555,0,1,1-.759-.078A1.837,1.837,0,0,1,530.033,469.355Z" transform="translate(-528.515 -469.277)" fill="#263238"/>
                    </g>
                  </g>
                </g>
              </g>
              <g id="Grupo_58528" data-name="Grupo 58528" transform="translate(9.901 0.071)">
                <g id="Grupo_58527" data-name="Grupo 58527">
                  <g id="Grupo_58526" data-name="Grupo 58526">
                    <g id="Grupo_58525" data-name="Grupo 58525">
                      <path id="Trazado_102889" data-name="Trazado 102889" d="M530.307,468.315a1.557,1.557,0,0,1-.848.224,1.573,1.573,0,0,1-.872-.113,66.689,66.689,0,0,0,1.72-.112Z" transform="translate(-528.587 -468.301)" fill="#263238"/>
                    </g>
                  </g>
                </g>
              </g>
              <g id="Grupo_58532" data-name="Grupo 58532" transform="translate(6.21 0.42)">
                <g id="Grupo_58531" data-name="Grupo 58531">
                  <g id="Grupo_58530" data-name="Grupo 58530">
                    <g id="Grupo_58529" data-name="Grupo 58529">
                      <path id="Trazado_102890" data-name="Trazado 102890" d="M526.992,469.934a2.875,2.875,0,0,1-.933-.01,5.789,5.789,0,0,1-.992-.209,2.794,2.794,0,0,1-.566-.22.476.476,0,0,1-.229-.271.331.331,0,0,1,.144-.346,1.788,1.788,0,0,1,2.112.476,1.5,1.5,0,0,1,.3.58c.036.148.032.233.022.235a2.4,2.4,0,0,0-.418-.743,1.69,1.69,0,0,0-.793-.486,1.549,1.549,0,0,0-1.113.065c-.148.1-.092.264.072.356a2.83,2.83,0,0,0,.522.211,6.661,6.661,0,0,0,.958.237C526.637,469.9,526.993,469.908,526.992,469.934Z" transform="translate(-524.263 -468.711)" fill="#263238"/>
                    </g>
                  </g>
                </g>
              </g>
              <g id="Grupo_58536" data-name="Grupo 58536" transform="translate(8.585 0.011)">
                <g id="Grupo_58535" data-name="Grupo 58535">
                  <g id="Grupo_58534" data-name="Grupo 58534">
                    <g id="Grupo_58533" data-name="Grupo 58533">
                      <path id="Trazado_102891" data-name="Trazado 102891" d="M527.158,469.906a.8.8,0,0,1-.1-.6,1.373,1.373,0,0,1,.26-.632.951.951,0,0,1,.781-.439.345.345,0,0,1,.284.4.917.917,0,0,1-.162.387,2.707,2.707,0,0,1-.445.523,1.381,1.381,0,0,1-.537.348c-.016-.021.187-.155.446-.428a3.015,3.015,0,0,0,.4-.518c.13-.183.22-.511-.014-.552a.847.847,0,0,0-.618.365,1.393,1.393,0,0,0-.269.562A2.85,2.85,0,0,0,527.158,469.906Z" transform="translate(-527.045 -468.231)" fill="#263238"/>
                    </g>
                  </g>
                </g>
              </g>
              <g id="Grupo_58540" data-name="Grupo 58540" transform="translate(19.225 0.763)">
                <g id="Grupo_58539" data-name="Grupo 58539">
                  <g id="Grupo_58538" data-name="Grupo 58538">
                    <g id="Grupo_58537" data-name="Grupo 58537">
                      <path id="Trazado_102892" data-name="Trazado 102892" d="M544.707,469.206c0,.031-.416-.038-1.073.03a4.913,4.913,0,0,0-2.349.885,4.388,4.388,0,0,0-1.48,1.914c-.227.578-.253.967-.285.963a.728.728,0,0,1,0-.272,3.282,3.282,0,0,1,.165-.727,4.192,4.192,0,0,1,1.489-2.006,4.711,4.711,0,0,1,2.446-.871,4.07,4.07,0,0,1,.8.023A.909.909,0,0,1,544.707,469.206Z" transform="translate(-539.511 -469.111)" fill="#263238"/>
                    </g>
                  </g>
                </g>
              </g>
              <g id="Grupo_58544" data-name="Grupo 58544" transform="translate(13.153 3.383)">
                <g id="Grupo_58543" data-name="Grupo 58543">
                  <g id="Grupo_58542" data-name="Grupo 58542">
                    <g id="Grupo_58541" data-name="Grupo 58541">
                      <path id="Trazado_102893" data-name="Trazado 102893" d="M536.641,472.2a12.768,12.768,0,0,1-4.244.015c.005-.047.953.012,2.122.006S536.636,472.151,536.641,472.2Z" transform="translate(-532.397 -472.181)" fill="#263238"/>
                    </g>
                  </g>
                </g>
              </g>
              <g id="Grupo_58548" data-name="Grupo 58548" transform="translate(19.821 3.405)">
                <g id="Grupo_58547" data-name="Grupo 58547">
                  <g id="Grupo_58546" data-name="Grupo 58546">
                    <g id="Grupo_58545" data-name="Grupo 58545">
                      <path id="Trazado_102894" data-name="Trazado 102894" d="M540.631,472.213c.035.033-.079.186-.177.388s-.154.381-.2.377-.073-.213.044-.446S540.6,472.18,540.631,472.213Z" transform="translate(-540.21 -472.208)" fill="#263238"/>
                    </g>
                  </g>
                </g>
              </g>
              <g id="Grupo_58552" data-name="Grupo 58552" transform="translate(20.771 2.168)">
                <g id="Grupo_58551" data-name="Grupo 58551">
                  <g id="Grupo_58550" data-name="Grupo 58550">
                    <g id="Grupo_58549" data-name="Grupo 58549">
                      <path id="Trazado_102895" data-name="Trazado 102895" d="M541.878,470.765c.034.032-.061.172-.212.313s-.3.229-.337.2.061-.172.213-.313S541.843,470.733,541.878,470.765Z" transform="translate(-541.322 -470.759)" fill="#263238"/>
                    </g>
                  </g>
                </g>
              </g>
              <g id="Grupo_58556" data-name="Grupo 58556" transform="translate(22.036 1.538)">
                <g id="Grupo_58555" data-name="Grupo 58555">
                  <g id="Grupo_58554" data-name="Grupo 58554">
                    <g id="Grupo_58553" data-name="Grupo 58553">
                      <path id="Trazado_102896" data-name="Trazado 102896" d="M543.635,470.1c-.011.046-.2.044-.417.113s-.369.173-.407.143.085-.217.352-.3S543.65,470.057,543.635,470.1Z" transform="translate(-542.804 -470.019)" fill="#263238"/>
                    </g>
                  </g>
                </g>
              </g>
              <g id="Grupo_58560" data-name="Grupo 58560" transform="translate(23.521 1.323)">
                <g id="Grupo_58559" data-name="Grupo 58559">
                  <g id="Grupo_58558" data-name="Grupo 58558">
                    <g id="Grupo_58557" data-name="Grupo 58557">
                      <path id="Trazado_102897" data-name="Trazado 102897" d="M544.984,469.8c.018.042-.067.111-.188.154s-.232.043-.25,0,.067-.111.188-.154S544.967,469.757,544.984,469.8Z" transform="translate(-544.544 -469.768)" fill="#263238"/>
                    </g>
                  </g>
                </g>
              </g>
            </g>
          </g>
          <g id="Grupo_58563" data-name="Grupo 58563" transform="translate(119.885 100.07)">
            <path id="Trazado_102898" data-name="Trazado 102898" d="M515.409,236.18l-22.531-22.826,2.862-29.727.516-.591c.279-.325.6-.681.969-1.071a5.6,5.6,0,0,1,1.491-1.109A8.625,8.625,0,0,1,500.87,180c.7-.1.937-.99.375-1.289s-2.51-.067-4.454,1.16-.765-2.147-.358-3.385,1.488-5.119,1.2-5.535c-.417-.61-1.166-.27-1.544.975-.383,1.26-1.776,4.9-2.424,4.673s1.523-6.5,1.523-6.5.68-1.272-.059-1.561c-1.332-.523-3.135,6.3-3.29,6.953-.108.455-.821.23-.679-.252s2.3-6.209.95-6.755c-1.037-.418-1.536,5.6-2.645,6.555s.848-4.537-.16-4.9c-.375-.133-.675-.181-1.341,3.122a65.369,65.369,0,0,0-1.287,6.892l0,0-7.083,35.52,22.171,29.353Z" transform="translate(-479.592 -168.469)" fill="#ffbe9d"/>
          </g>
          <g id="Grupo_58564" data-name="Grupo 58564" transform="translate(156.749 101.262)">
            <path id="Trazado_102899" data-name="Trazado 102899" d="M533.217,171.037c-.928.534,1.982,5.585.719,4.845s-2.83-6.572-3.776-5.975c-1.232.778,1.912,6.013,2.145,6.475s-.435.8-.623.37c-.27-.615-3.265-7-4.483-6.251-.675.417.222,1.547.222,1.547s3.249,5.784,2.661,6.12-2.619-2.992-3.221-4.164-1.393-1.358-1.693-.683c-.2.461,1.553,4.087,2.175,5.231s2.386,4.253.254,3.394-4.088-.737-4.589-.343-.112,1.227.6,1.2a8.594,8.594,0,0,1,2.273.453,5.61,5.61,0,0,1,1.665.824c.436.318.813.611,1.145.881l.613.488,12.171,30.005-11.058,25.737,17.139,6.38,7.7-34.035L537.6,180.416l0,0a65.46,65.46,0,0,0-2.5-6.551C533.849,170.737,533.562,170.838,533.217,171.037Z" transform="translate(-522.781 -169.865)" fill="#ffbe9d"/>
          </g>
          <g id="Grupo_58582" data-name="Grupo 58582" transform="translate(148.027 227.506)">
            <g id="Grupo_58565" data-name="Grupo 58565">
              <path id="Trazado_102900" data-name="Trazado 102900" d="M569.953,375.045l-11.133-57.272-15.72,1.351,0-.131-28.717,2.6s-1.344,65.776-1.821,65.776l7.864,59.959,0,.012L543.1,446.3l-8.763-59.686,3.233-47.9.646-.877,13.119,48.968L596,437.361l14.551-14.072Z" transform="translate(-512.563 -317.773)" fill="#455a64"/>
            </g>
            <g id="Grupo_58567" data-name="Grupo 58567" transform="translate(22.37 13.717)">
              <g id="Grupo_58566" data-name="Grupo 58566">
                <path id="Trazado_102901" data-name="Trazado 102901" d="M538.788,379.921a2.007,2.007,0,0,1-.013-.49c.014-.37.031-.833.051-1.4.067-1.275.158-3.017.27-5.143.274-4.4.646-10.364,1.057-16.958.417-5.986.8-11.455,1.09-15.635l0-.055.034-.041,3.935-4.675,1.093-1.26a2.724,2.724,0,0,1,.407-.419,2.615,2.615,0,0,1-.331.481l-1.023,1.317-3.82,4.769.038-.1c-.262,4.181-.605,9.653-.981,15.642-.462,6.592-.879,12.556-1.187,16.95-.17,2.121-.308,3.86-.411,5.134-.055.565-.1,1.027-.134,1.395A2.059,2.059,0,0,1,538.788,379.921Z" transform="translate(-538.772 -333.844)" fill="#263238"/>
              </g>
            </g>
            <g id="Grupo_58569" data-name="Grupo 58569" transform="translate(30.316 1.22)">
              <g id="Grupo_58568" data-name="Grupo 58568">
                <path id="Trazado_102902" data-name="Trazado 102902" d="M548.3,319.2a67.688,67.688,0,0,1,0,10.953,67.43,67.43,0,0,1,0-10.953Z" transform="translate(-548.081 -319.202)" fill="#263238"/>
              </g>
            </g>
            <g id="Grupo_58571" data-name="Grupo 58571" transform="translate(10.995 4.99)">
              <g id="Grupo_58570" data-name="Grupo 58570">
                <path id="Trazado_102903" data-name="Trazado 102903" d="M525.626,324.828a3.863,3.863,0,0,1,.708-.115l2.095-.253c1.815-.209,4.435-.5,7.58-.82l.213-.021v.217c.008,2.692.017,5.8.026,9.093v.137l-.124.061-.163.08-5.481,2.7-.1.05-.1-.058-4.746-2.812-.091-.054,0-.1c.038-2.432.068-4.455.092-5.951l.046-1.611a2.477,2.477,0,0,1,.041-.539,4.027,4.027,0,0,1,.041.607c.013.438.027.984.046,1.648.023,1.469.055,3.457.092,5.845l-.089-.154,4.778,2.757-.2-.007,5.473-2.715.162-.08-.124.2c.009-3.3.019-6.4.026-9.093l.214.195c-3.067.274-5.647.479-7.479.617l-2.146.152A6.059,6.059,0,0,1,525.626,324.828Z" transform="translate(-525.445 -323.619)" fill="#263238"/>
              </g>
            </g>
            <g id="Grupo_58573" data-name="Grupo 58573" transform="translate(33.103 2.809)">
              <g id="Grupo_58572" data-name="Grupo 58572">
                <path id="Trazado_102904" data-name="Trazado 102904" d="M551.528,322.273a3.839,3.839,0,0,1,.708-.115l2.095-.253c1.815-.209,4.435-.5,7.579-.82l.214-.021v.217c.008,2.692.017,5.8.026,9.093v.137l-.124.061-.163.08-5.481,2.7-.1.05-.1-.058-4.746-2.812-.09-.054,0-.1c.038-2.432.068-4.455.091-5.951l.047-1.611a2.468,2.468,0,0,1,.041-.539,4.024,4.024,0,0,1,.041.607c.012.438.027.984.046,1.648.023,1.469.055,3.457.092,5.845l-.089-.155,4.778,2.758-.2-.007,5.472-2.715.163-.08-.124.2c.009-3.3.019-6.4.026-9.093l.214.195c-3.067.274-5.647.478-7.48.617l-2.145.152A6.053,6.053,0,0,1,551.528,322.273Z" transform="translate(-551.347 -321.064)" fill="#263238"/>
              </g>
            </g>
            <g id="Grupo_58575" data-name="Grupo 58575" transform="translate(11.175 7.364)">
              <g id="Grupo_58574" data-name="Grupo 58574">
                <path id="Trazado_102905" data-name="Trazado 102905" d="M536.262,326.486a63.526,63.526,0,0,1-10.606.49,63.557,63.557,0,0,1,10.606-.49Z" transform="translate(-525.656 -326.401)" fill="#263238"/>
              </g>
            </g>
            <g id="Grupo_58577" data-name="Grupo 58577" transform="translate(33.283 5.377)">
              <g id="Grupo_58576" data-name="Grupo 58576">
                <path id="Trazado_102906" data-name="Trazado 102906" d="M561.96,324.13a61.274,61.274,0,0,1-10.4.79,61.29,61.29,0,0,1,10.4-.79Z" transform="translate(-551.557 -324.072)" fill="#263238"/>
              </g>
            </g>
            <g id="Grupo_58579" data-name="Grupo 58579" transform="translate(9.668 68.294)">
              <g id="Grupo_58578" data-name="Grupo 58578">
                <path id="Trazado_102907" data-name="Trazado 102907" d="M534.2,397.824a60.884,60.884,0,0,1-10.311,1.262,60.919,60.919,0,0,1,10.311-1.262Z" transform="translate(-523.89 -397.787)" fill="#263238"/>
              </g>
            </g>
            <g id="Grupo_58581" data-name="Grupo 58581" transform="translate(45.698 58.493)">
              <g id="Grupo_58580" data-name="Grupo 58580">
                <path id="Trazado_102908" data-name="Trazado 102908" d="M576.356,386.315c.044.128-2.452,1-5.277,2.588-2.835,1.572-4.887,3.239-4.974,3.133a5.76,5.76,0,0,1,1.268-1.191,26.216,26.216,0,0,1,7.3-4.076A5.7,5.7,0,0,1,576.356,386.315Z" transform="translate(-566.103 -386.304)" fill="#263238"/>
              </g>
            </g>
          </g>
          <g id="Grupo_58587" data-name="Grupo 58587" transform="translate(63.042 57.988)">
            <g id="Grupo_58584" data-name="Grupo 58584">
              <g id="Grupo_58583" data-name="Grupo 58583">
                <path id="Trazado_102909" data-name="Trazado 102909" d="M505.654,148.881a1.934,1.934,0,0,1-.169-.315c-.112-.23-.262-.543-.454-.941s-.428-.935-.737-1.53l-1.11-2.034c-.428-.759-.967-1.565-1.521-2.469-.591-.878-1.26-1.818-2-2.811a54.117,54.117,0,0,0-5.643-6.214,49.468,49.468,0,0,0-18.726-10.9,45.187,45.187,0,0,0-12.683-2.056,49.21,49.21,0,0,0-26.408,7.032,45.175,45.175,0,0,0-9.983,8.093A49.484,49.484,0,0,0,415.4,153.509a54.13,54.13,0,0,0-1.8,8.2c-.145,1.227-.258,2.375-.334,3.431-.031,1.058-.1,2.026-.091,2.9s.034,1.641.049,2.316.092,1.236.121,1.694c.032.441.055.787.074,1.042a.179.179,0,1,1-.045.005l-.119-1.04c-.043-.457-.123-1.023-.164-1.694q-.038-1.015-.089-2.322c-.02-.874.033-1.846.052-2.911.063-1.062.165-2.216.3-3.451a53.35,53.35,0,0,1,1.75-8.258,49.441,49.441,0,0,1,10.825-18.959,45.374,45.374,0,0,1,10.057-8.188,49.434,49.434,0,0,1,26.643-7.095,45.39,45.39,0,0,1,12.8,2.1,49.447,49.447,0,0,1,18.819,11.063,53.373,53.373,0,0,1,5.626,6.293c.731,1.005,1.392,1.956,1.976,2.846.545.914,1.075,1.731,1.493,2.5l1.078,2.06c.3.6.51,1.133.7,1.552l.415.961A2.263,2.263,0,0,1,505.654,148.881Z" transform="translate(-412.994 -119.164)" fill="#263238"/>
              </g>
            </g>
            <g id="Grupo_58586" data-name="Grupo 58586" transform="translate(26.834 8.1)">
              <g id="Grupo_58585" data-name="Grupo 58585">
                <path id="Trazado_102910" data-name="Trazado 102910" d="M500.6,147.936a3.56,3.56,0,0,1-.4-.512c-.259-.336-.591-.868-1.1-1.5a43.048,43.048,0,0,0-12.548-11.164,40.742,40.742,0,0,0-23.672-5.59,43.075,43.075,0,0,0-16.217,4.373c-.731.337-1.266.664-1.648.849a3.5,3.5,0,0,1-.587.278,3.651,3.651,0,0,1,.542-.356c.37-.211.892-.562,1.615-.926a38.742,38.742,0,0,1,6.3-2.673,41.268,41.268,0,0,1,41.911,9.9,38.7,38.7,0,0,1,4.442,5.21c.484.648.794,1.2,1.029,1.55A3.559,3.559,0,0,1,500.6,147.936Z" transform="translate(-444.433 -128.654)" fill="#263238"/>
              </g>
            </g>
          </g>
          <g id="Grupo_58599" data-name="Grupo 58599" transform="translate(135.599 144.918)">
            <g id="Grupo_58596" data-name="Grupo 58596">
              <g id="Grupo_58589" data-name="Grupo 58589">
                <g id="Grupo_58588" data-name="Grupo 58588">
                  <path id="Trazado_102911" data-name="Trazado 102911" d="M551.633,261.577l-3.965,20.63c8.268,11.507,9.022,21.377,9.022,21.377L512.255,307.4c.829-6.968,5.125-22.053,5.125-22.053l-6.45-22.025L498,246.492l12.829-11.562c-.246.65,12.027,7.754,12.027,7.754l17.629.149a14.73,14.73,0,0,1,2.533.5l8.613-22.325s6.662,9.8,4.429,21.819c-1.589,8.56-1.288,10.562-4.429,18.746" transform="translate(-498.002 -221.012)" fill="#4dd0e1"/>
                </g>
              </g>
              <g id="Grupo_58591" data-name="Grupo 58591" transform="translate(12.23 24.891)">
                <g id="Grupo_58590" data-name="Grupo 58590">
                  <path id="Trazado_102912" data-name="Trazado 102912" d="M521.5,250.175a3.526,3.526,0,0,1,.65.776,12.509,12.509,0,0,1,1.332,2.422,11.806,11.806,0,0,1,.891,4.012,10.179,10.179,0,0,1-1.053,4.924,8.778,8.778,0,0,1-3.411,3.7,8.12,8.12,0,0,1-3.975,1.069,7.041,7.041,0,0,1-2.723-.525,4.627,4.627,0,0,1-.67-.345c-.147-.09-.219-.144-.212-.158a8.85,8.85,0,0,0,3.6.714,8.08,8.08,0,0,0,3.774-1.108,8.566,8.566,0,0,0,3.22-3.549,10.026,10.026,0,0,0,1.041-4.712,12.133,12.133,0,0,0-.773-3.911A24.394,24.394,0,0,0,521.5,250.175Z" transform="translate(-512.331 -250.174)" fill="#263238"/>
                </g>
              </g>
              <g id="Grupo_58593" data-name="Grupo 58593" transform="translate(50.893 24.819)">
                <g id="Grupo_58592" data-name="Grupo 58592">
                  <path id="Trazado_102913" data-name="Trazado 102913" d="M558.84,265.191c-.072-.033.312-.839.686-2.209a16.066,16.066,0,0,0-.865-10.818c-.587-1.294-1.093-2.028-1.028-2.072.025-.018.17.151.413.475a9.913,9.913,0,0,1,.9,1.46,14.548,14.548,0,0,1,.883,11.044,10.007,10.007,0,0,1-.654,1.585C558.984,265.015,558.867,265.2,558.84,265.191Z" transform="translate(-557.628 -250.09)" fill="#263238"/>
                </g>
              </g>
              <g id="Grupo_58595" data-name="Grupo 58595" transform="translate(29.724 57.927)" opacity="0.3">
                <g id="Grupo_58594" data-name="Grupo 58594">
                  <path id="Trazado_102914" data-name="Trazado 102914" d="M549.256,290.912a1.784,1.784,0,0,0-1.775-.239,13.75,13.75,0,0,1-2.986.615c-1.9.04-3.616-1.034-5.37-1.766s-3.993-1.058-5.383.239a3.059,3.059,0,0,0-.447,3.8,2.983,2.983,0,0,0,1.853,1.219h0c4.441,1.251,8.258.33,12.6-1.41a3.346,3.346,0,0,0,1.424-.9A1.252,1.252,0,0,0,549.256,290.912Z" transform="translate(-532.827 -288.88)"/>
                </g>
              </g>
            </g>
            <g id="Grupo_58598" data-name="Grupo 58598" transform="translate(10.759 10.727)" opacity="0.3">
              <g id="Grupo_58597" data-name="Grupo 58597">
                <path id="Trazado_102915" data-name="Trazado 102915" d="M513.389,236.6a12.029,12.029,0,0,0-2.739,8.3,7.57,7.57,0,0,0,5.19,6.623c1.978.525,4.139.055,6.078.709,3.579,1.208,5.475,5.887,9.237,6.224,3.4.3,5.88-3.132,9.054-4.4a24.513,24.513,0,0,1,5.2-1,14,14,0,0,0,9.27-5.323c2.106-2.992,2.449-7.337.253-10.264-2.344-3.127-6.7-3.891-10.6-3.893a44.529,44.529,0,0,0-17.251,3.482,11.013,11.013,0,0,0-3.285,1.92,4.458,4.458,0,0,0-1.555,3.363" transform="translate(-510.607 -233.58)"/>
              </g>
            </g>
          </g>
          <g id="Grupo_58609" data-name="Grupo 58609" transform="translate(147.076 127.686)">
            <g id="Grupo_58600" data-name="Grupo 58600">
              <path id="Trazado_102916" data-name="Trazado 102916" d="M564.325,229.444a4.433,4.433,0,0,0-2.763-3.531c-1.715-.653-3.721-.184-5.4-.93-2.09-.929-2.973-3.383-3.5-5.608s-1.034-4.682-2.833-6.094c-1.242-.976-2.891-1.264-4.235-2.094-1.988-1.228-3.068-3.46-4.427-5.362a10.375,10.375,0,0,0-1.817-1.973c-.029-.035-.051-.075-.08-.109-2.89-3.485-10.6-3.94-13.93-.877l.127-.113c-6.212.466-10.154,10.5-10.218,16.862-.041,3.957,1.237,8.1-.261,11.761-.872,2.13-2.614,3.853-3.279,6.057a6.73,6.73,0,0,0,11.828,5.983A3.884,3.884,0,0,0,526.292,247a11.378,11.378,0,0,0,4.8.293c3.448-.283,7.425-.877,9.193-3.851a6.206,6.206,0,0,0,5.652,2.35,17.259,17.259,0,0,0,6.076-1.241,2.491,2.491,0,0,1-.224-.351,5.542,5.542,0,0,0,.919-.441,4.174,4.174,0,0,0,1.889-4.936l1.857,2.155a7.411,7.411,0,0,0,3.109-9.393,8.934,8.934,0,0,1,2.93,1.952A4.433,4.433,0,0,0,564.325,229.444Z" transform="translate(-511.449 -200.823)" fill="#263238"/>
            </g>
            <g id="Grupo_58602" data-name="Grupo 58602" transform="translate(14.625 0.672)">
              <g id="Grupo_58601" data-name="Grupo 58601">
                <path id="Trazado_102917" data-name="Trazado 102917" d="M566.049,232.2a3.022,3.022,0,0,0-.4-2.011,4.09,4.09,0,0,0-1.8-1.593,9.978,9.978,0,0,0-3.167-.737,12.8,12.8,0,0,1-3.965-.837,4.759,4.759,0,0,1-1.808-1.429,7.007,7.007,0,0,1-1.1-2.165c-.534-1.57-.65-3.3-1.174-4.951a7.4,7.4,0,0,0-1.155-2.33,3.811,3.811,0,0,0-2.15-1.414c-.873-.217-1.809-.2-2.735-.382a4.473,4.473,0,0,1-2.441-1.328,12.374,12.374,0,0,1-2.38-4.555,10.09,10.09,0,0,0-2.3-3.855,9.129,9.129,0,0,0-8.9-2.45,17.15,17.15,0,0,0-1.994.714,2.257,2.257,0,0,1,.472-.289,8.269,8.269,0,0,1,1.476-.592,9.257,9.257,0,0,1,5.791.17,9.457,9.457,0,0,1,3.417,2.188,10.386,10.386,0,0,1,2.422,3.969,12.153,12.153,0,0,0,2.308,4.4,4.038,4.038,0,0,0,2.216,1.2c.865.172,1.8.151,2.756.383a4.256,4.256,0,0,1,2.392,1.574,7.779,7.779,0,0,1,1.221,2.471c.538,1.724.64,3.441,1.148,4.956a5.187,5.187,0,0,0,2.672,3.386,12.736,12.736,0,0,0,3.846.859,9.987,9.987,0,0,1,3.238.825A4.2,4.2,0,0,1,565.8,230.1a2.909,2.909,0,0,1,.373,1.553A1.6,1.6,0,0,1,566.049,232.2Z" transform="translate(-528.583 -201.61)" fill="#455a64"/>
              </g>
            </g>
            <g id="Grupo_58604" data-name="Grupo 58604" transform="translate(15.074 2.254)">
              <g id="Grupo_58603" data-name="Grupo 58603">
                <path id="Trazado_102918" data-name="Trazado 102918" d="M555.218,244.769c-.01-.026.18-.073.472-.277a2.4,2.4,0,0,0,.863-1.248,3.3,3.3,0,0,0-.149-2.369,5.729,5.729,0,0,0-2.256-2.273c-1.028-.652-2.293-1.14-3.541-1.93a6.7,6.7,0,0,1-1.727-1.518,6.361,6.361,0,0,1-1.059-2.2,34.87,34.87,0,0,1-.655-5.091c-.218-1.7-.748-3.581-2.263-4.624-1.471-1.041-3.45-1.355-4.77-2.731a8.8,8.8,0,0,1-2.074-4.726c-.271-1.621-.38-3.165-.746-4.548a10.413,10.413,0,0,0-1.711-3.548,11.251,11.251,0,0,0-4.475-3.54c-1.263-.526-2.029-.631-2.018-.679a2.561,2.561,0,0,1,.551.073,9.669,9.669,0,0,1,1.532.446,11.059,11.059,0,0,1,4.659,3.509,10.621,10.621,0,0,1,1.817,3.644c.392,1.422.515,2.983.793,4.572a8.458,8.458,0,0,0,1.981,4.492c1.189,1.257,3.109,1.562,4.719,2.674a5.141,5.141,0,0,1,1.768,2.257,10.118,10.118,0,0,1,.668,2.673,35.805,35.805,0,0,0,.617,5.038,5.981,5.981,0,0,0,.976,2.071,6.318,6.318,0,0,0,1.617,1.446c1.194.777,2.462,1.287,3.509,1.973a5.936,5.936,0,0,1,2.313,2.434,3.442,3.442,0,0,1,.088,2.529,2.394,2.394,0,0,1-.977,1.267A1.358,1.358,0,0,1,555.218,244.769Z" transform="translate(-529.109 -203.464)" fill="#455a64"/>
              </g>
            </g>
            <g id="Grupo_58606" data-name="Grupo 58606" transform="translate(14.404 2.646)">
              <g id="Grupo_58605" data-name="Grupo 58605">
                <path id="Trazado_102919" data-name="Trazado 102919" d="M534.49,246.708a2.9,2.9,0,0,0,.562-1.668,4.888,4.888,0,0,0-.44-2.032c-.323-.755-.847-1.55-1.3-2.52a5.04,5.04,0,0,1-.36-3.458,18.5,18.5,0,0,1,1.57-3.654,8.569,8.569,0,0,0,1.115-4.063,7.091,7.091,0,0,0-1.488-4.21c-.937-1.266-2.1-2.333-3.019-3.574a8.163,8.163,0,0,1-1.105-1.993,7.8,7.8,0,0,1-.434-2.142,17.145,17.145,0,0,1,.308-3.97c.207-1.221.414-2.347.487-3.385a7.886,7.886,0,0,0-.908-4.736,6.875,6.875,0,0,0-1.155-1.381,1.493,1.493,0,0,1,.394.265,4.389,4.389,0,0,1,.907,1.023,7.843,7.843,0,0,1,1.075,4.849c-.055,1.062-.247,2.206-.437,3.424a17.09,17.09,0,0,0-.264,3.881,7.408,7.408,0,0,0,.424,2.025,7.8,7.8,0,0,0,1.057,1.881c.885,1.193,2.051,2.256,3.027,3.569a7.5,7.5,0,0,1,1.565,4.468,8.926,8.926,0,0,1-1.183,4.251,18.641,18.641,0,0,0-1.58,3.559,4.724,4.724,0,0,0,.29,3.243c.416.946.925,1.76,1.238,2.552a4.909,4.909,0,0,1,.382,2.136,2.624,2.624,0,0,1-.413,1.307A1.278,1.278,0,0,1,534.49,246.708Z" transform="translate(-528.325 -203.923)" fill="#455a64"/>
              </g>
            </g>
            <g id="Grupo_58608" data-name="Grupo 58608" transform="translate(5.262 2.555)">
              <g id="Grupo_58607" data-name="Grupo 58607">
                <path id="Trazado_102920" data-name="Trazado 102920" d="M517.969,245.992a1.069,1.069,0,0,1-.249-.413,2.106,2.106,0,0,1,.019-1.382,3.728,3.728,0,0,1,1.3-1.759,17.621,17.621,0,0,0,2.184-1.8,5.9,5.9,0,0,0,1.4-3.011,7.017,7.017,0,0,0-.607-3.782,8.772,8.772,0,0,1-.9-4.355A15.329,15.329,0,0,1,522.739,225a9.355,9.355,0,0,0,1.146-4.423,19.164,19.164,0,0,0-.923-4.239,12.963,12.963,0,0,1-.207-7.441,8.378,8.378,0,0,1,2.783-4.176,6.405,6.405,0,0,1,1.164-.733,1.7,1.7,0,0,1,.447-.172,13.182,13.182,0,0,0-1.5,1.04,8.46,8.46,0,0,0-2.592,4.131,12.83,12.83,0,0,0,.3,7.24,19.123,19.123,0,0,1,.963,4.331,9.7,9.7,0,0,1-1.177,4.629,15.191,15.191,0,0,0-1.59,4.35,8.453,8.453,0,0,0,.849,4.16,11.047,11.047,0,0,1,.584,2,5.917,5.917,0,0,1,0,1.985,6.171,6.171,0,0,1-1.535,3.164,16.769,16.769,0,0,1-2.261,1.785,3.614,3.614,0,0,0-1.291,1.622,2.12,2.12,0,0,0-.1,1.3C517.888,245.845,517.988,245.981,517.969,245.992Z" transform="translate(-517.614 -203.817)" fill="#455a64"/>
              </g>
            </g>
          </g>
        </g>
      </g>
      <g id="Plants" transform="translate(71.174 238.051)">
        <g id="Grupo_58740" data-name="Grupo 58740">
          <g id="Grupo_58728" data-name="Grupo 58728">
            <g id="Grupo_58614" data-name="Grupo 58614" transform="translate(10.9)">
              <g id="Grupo_58613" data-name="Grupo 58613">
                <g id="Grupo_58612" data-name="Grupo 58612">
                  <g id="Grupo_58611" data-name="Grupo 58611">
                    <path id="Trazado_102921" data-name="Trazado 102921" d="M102.411,420.988a2.335,2.335,0,0,1,.157-.377l.506-1.079a27.24,27.24,0,0,0,1.487-4.319,38.125,38.125,0,0,0-.127-16.677,89.478,89.478,0,0,0-3.093-11.2c-1.309-3.976-2.829-8.194-4.072-12.754a49.351,49.351,0,0,1-2.01-14.664c.189-5.187,1.723-10.364,3.412-15.517s3.429-10.207,3.95-15.282A23.288,23.288,0,0,0,99.82,315c-2.235-4.118-5.048-7.641-7.153-11.29a39.219,39.219,0,0,1-4.3-10.852,40.4,40.4,0,0,1-.272-16.814,31.342,31.342,0,0,1,1.754-5.937,2.286,2.286,0,0,1-.1.394l-.355,1.139a43.305,43.305,0,0,0-1.09,4.444,40.932,40.932,0,0,0,.436,16.686,39.119,39.119,0,0,0,4.313,10.715c2.1,3.6,4.925,7.112,7.2,11.279a23.763,23.763,0,0,1,2.889,14.4c-.526,5.16-2.281,10.24-3.963,15.4s-3.206,10.272-3.4,15.372a49.085,49.085,0,0,0,1.963,14.514c1.221,4.538,2.724,8.757,4.017,12.744a88.371,88.371,0,0,1,3.043,11.268,37.686,37.686,0,0,1-.043,16.8,24.893,24.893,0,0,1-1.591,4.312c-.234.447-.418.8-.555,1.059A2.226,2.226,0,0,1,102.411,420.988Z" transform="translate(-87.343 -270.111)" fill="#263238"/>
                  </g>
                </g>
              </g>
            </g>
            <g id="Grupo_58622" data-name="Grupo 58622" transform="translate(17.895 15.384)">
              <g id="Grupo_58617" data-name="Grupo 58617">
                <g id="Grupo_58616" data-name="Grupo 58616">
                  <g id="Grupo_58615" data-name="Grupo 58615">
                    <path id="Trazado_102922" data-name="Trazado 102922" d="M96.726,309.953s-4.274-13.666,3.393-21.668a.474.474,0,0,1,.813.235C101.341,290.777,101.852,297.651,96.726,309.953Z" transform="translate(-95.539 -288.135)" fill="#e8505b"/>
                  </g>
                </g>
              </g>
              <g id="Grupo_58621" data-name="Grupo 58621" transform="translate(1.033 4.703)">
                <g id="Grupo_58620" data-name="Grupo 58620">
                  <g id="Grupo_58619" data-name="Grupo 58619">
                    <g id="Grupo_58618" data-name="Grupo 58618">
                      <path id="Trazado_102923" data-name="Trazado 102923" d="M99.464,293.646a12.562,12.562,0,0,1-.288,2.521c-.281,1.737-.61,3.775-.975,6.028l-.957,6.028a13.892,13.892,0,0,1-.452,2.494,10.531,10.531,0,0,1,.076-2.54c.142-1.561.417-3.709.8-6.068s.8-4.481,1.132-6.011A11.415,11.415,0,0,1,99.464,293.646Z" transform="translate(-96.749 -293.646)" fill="#263238"/>
                    </g>
                  </g>
                </g>
              </g>
            </g>
            <g id="Grupo_58630" data-name="Grupo 58630" transform="translate(24.019 51.843)">
              <g id="Grupo_58625" data-name="Grupo 58625" transform="translate(0.084)">
                <g id="Grupo_58624" data-name="Grupo 58624">
                  <g id="Grupo_58623" data-name="Grupo 58623">
                    <path id="Trazado_102924" data-name="Trazado 102924" d="M102.812,348.442s2.614-14.078,13.132-17.566a.474.474,0,0,1,.608.588C115.859,333.65,113.1,339.965,102.812,348.442Z" transform="translate(-102.812 -330.85)" fill="#e8505b"/>
                  </g>
                </g>
              </g>
              <g id="Grupo_58629" data-name="Grupo 58629" transform="translate(0 3.659)">
                <g id="Grupo_58628" data-name="Grupo 58628">
                  <g id="Grupo_58627" data-name="Grupo 58627">
                    <g id="Grupo_58626" data-name="Grupo 58626">
                      <path id="Trazado_102925" data-name="Trazado 102925" d="M113.065,335.14a12.588,12.588,0,0,1-1.434,2.095l-3.68,4.871-3.664,4.88a13.715,13.715,0,0,1-1.567,1.993,10.616,10.616,0,0,1,1.256-2.209c.855-1.314,2.1-3.085,3.549-4.987s2.8-3.588,3.811-4.784A11.384,11.384,0,0,1,113.065,335.14Z" transform="translate(-102.714 -335.138)" fill="#263238"/>
                    </g>
                  </g>
                </g>
              </g>
            </g>
            <g id="Grupo_58638" data-name="Grupo 58638" transform="translate(21.146 84.04)">
              <g id="Grupo_58633" data-name="Grupo 58633" transform="translate(0.007)">
                <g id="Grupo_58632" data-name="Grupo 58632">
                  <g id="Grupo_58631" data-name="Grupo 58631">
                    <path id="Trazado_102926" data-name="Trazado 102926" d="M99.464,389.286s-1.588-14.231,7.464-20.623a.474.474,0,0,1,.753.386C107.652,371.341,106.842,378.187,99.464,389.286Z" transform="translate(-99.357 -368.573)" fill="#e8505b"/>
                  </g>
                </g>
              </g>
              <g id="Grupo_58637" data-name="Grupo 58637" transform="translate(0 4.4)">
                <g id="Grupo_58636" data-name="Grupo 58636">
                  <g id="Grupo_58635" data-name="Grupo 58635">
                    <g id="Grupo_58634" data-name="Grupo 58634">
                      <path id="Trazado_102927" data-name="Trazado 102927" d="M105.241,373.729a12.578,12.578,0,0,1-.763,2.42c-.608,1.652-1.32,3.59-2.107,5.731s-1.488,4.082-2.089,5.734a13.72,13.72,0,0,1-.92,2.363,10.593,10.593,0,0,1,.56-2.48c.437-1.506,1.117-3.562,1.947-5.8s1.637-4.246,2.258-5.684A11.427,11.427,0,0,1,105.241,373.729Z" transform="translate(-99.348 -373.728)" fill="#263238"/>
                    </g>
                  </g>
                </g>
              </g>
            </g>
            <g id="Grupo_58646" data-name="Grupo 58646" transform="translate(29.074 119.855)">
              <g id="Grupo_58641" data-name="Grupo 58641" transform="translate(0.072)">
                <g id="Grupo_58640" data-name="Grupo 58640">
                  <g id="Grupo_58639" data-name="Grupo 58639">
                    <path id="Trazado_102928" data-name="Trazado 102928" d="M108.758,430.956s-1.077-14.279,8.2-20.342a.474.474,0,0,1,.739.411C117.584,413.316,116.53,420.128,108.758,430.956Z" transform="translate(-108.72 -410.534)" fill="#e8505b"/>
                  </g>
                </g>
              </g>
              <g id="Grupo_58645" data-name="Grupo 58645" transform="translate(0 4.328)">
                <g id="Grupo_58644" data-name="Grupo 58644">
                  <g id="Grupo_58643" data-name="Grupo 58643">
                    <g id="Grupo_58642" data-name="Grupo 58642">
                      <path id="Trazado_102929" data-name="Trazado 102929" d="M115.1,415.6a12.589,12.589,0,0,1-.85,2.391c-.666,1.629-1.447,3.54-2.311,5.652l-2.293,5.655a13.665,13.665,0,0,1-1,2.328,10.612,10.612,0,0,1,.649-2.456c.49-1.489,1.243-3.52,2.153-5.73s1.788-4.186,2.459-5.6A11.4,11.4,0,0,1,115.1,415.6Z" transform="translate(-108.636 -415.604)" fill="#263238"/>
                    </g>
                  </g>
                </g>
              </g>
            </g>
            <g id="Grupo_58654" data-name="Grupo 58654" transform="translate(0 6.995)">
              <g id="Grupo_58649" data-name="Grupo 58649">
                <g id="Grupo_58648" data-name="Grupo 58648">
                  <g id="Grupo_58647" data-name="Grupo 58647">
                    <path id="Trazado_102930" data-name="Trazado 102930" d="M87.514,296.507S74.821,289.878,74.573,278.8a.473.473,0,0,1,.74-.409C77.2,279.695,82.426,284.189,87.514,296.507Z" transform="translate(-74.573 -278.306)" fill="#e8505b"/>
                  </g>
                </g>
              </g>
              <g id="Grupo_58653" data-name="Grupo 58653" transform="translate(2.63 4.298)">
                <g id="Grupo_58652" data-name="Grupo 58652">
                  <g id="Grupo_58651" data-name="Grupo 58651">
                    <g id="Grupo_58650" data-name="Grupo 58650">
                      <path id="Trazado_102931" data-name="Trazado 102931" d="M77.659,283.343a12.556,12.556,0,0,1,1.582,1.984l3.578,4.948,3.591,4.935a13.782,13.782,0,0,1,1.446,2.082,10.594,10.594,0,0,1-1.744-1.848c-1.005-1.2-2.332-2.916-3.727-4.856s-2.609-3.729-3.455-5.046A11.4,11.4,0,0,1,77.659,283.343Z" transform="translate(-77.654 -283.341)" fill="#263238"/>
                    </g>
                  </g>
                </g>
              </g>
            </g>
            <g id="Grupo_58662" data-name="Grupo 58662" transform="translate(12.576 37.134)">
              <g id="Grupo_58657" data-name="Grupo 58657">
                <g id="Grupo_58656" data-name="Grupo 58656">
                  <g id="Grupo_58655" data-name="Grupo 58655">
                    <path id="Trazado_102932" data-name="Trazado 102932" d="M103.3,331.028s-13.071-5.846-13.992-16.889a.474.474,0,0,1,.714-.453C91.985,314.873,97.474,319.041,103.3,331.028Z" transform="translate(-89.307 -313.617)" fill="#e8505b"/>
                  </g>
                </g>
              </g>
              <g id="Grupo_58661" data-name="Grupo 58661" transform="translate(2.859 4.159)">
                <g id="Grupo_58660" data-name="Grupo 58660">
                  <g id="Grupo_58659" data-name="Grupo 58659">
                    <g id="Grupo_58658" data-name="Grupo 58658">
                      <path id="Trazado_102933" data-name="Trazado 102933" d="M92.66,318.492a12.584,12.584,0,0,1,1.7,1.885l3.872,4.721,3.884,4.708a13.656,13.656,0,0,1,1.57,1.99,10.585,10.585,0,0,1-1.852-1.74c-1.077-1.139-2.505-2.768-4.016-4.619s-2.83-3.564-3.756-4.828A11.458,11.458,0,0,1,92.66,318.492Z" transform="translate(-92.656 -318.49)" fill="#263238"/>
                    </g>
                  </g>
                </g>
              </g>
            </g>
            <g id="Grupo_58670" data-name="Grupo 58670" transform="translate(13.16 65.574)">
              <g id="Grupo_58665" data-name="Grupo 58665">
                <g id="Grupo_58664" data-name="Grupo 58664">
                  <g id="Grupo_58663" data-name="Grupo 58663">
                    <path id="Trazado_102934" data-name="Trazado 102934" d="M95.88,368.647s-8.975-11.157-4.765-21.408a.473.473,0,0,1,.842-.079C93.163,349.11,96.153,355.321,95.88,368.647Z" transform="translate(-89.992 -346.938)" fill="#e8505b"/>
                  </g>
                </g>
              </g>
              <g id="Grupo_58669" data-name="Grupo 58669" transform="translate(1.991 4.843)">
                <g id="Grupo_58668" data-name="Grupo 58668">
                  <g id="Grupo_58667" data-name="Grupo 58667">
                    <g id="Grupo_58666" data-name="Grupo 58666">
                      <path id="Trazado_102935" data-name="Trazado 102935" d="M92.347,352.612A12.573,12.573,0,0,1,93,355.064c.374,1.719.813,3.737,1.3,5.966s.935,4.243,1.314,5.96a13.739,13.739,0,0,1,.491,2.487,10.588,10.588,0,0,1-.857-2.392c-.44-1.5-.969-3.605-1.471-5.941s-.9-4.462-1.145-6.008A11.418,11.418,0,0,1,92.347,352.612Z" transform="translate(-92.325 -352.612)" fill="#263238"/>
                    </g>
                  </g>
                </g>
              </g>
            </g>
            <g id="Grupo_58678" data-name="Grupo 58678" transform="translate(14.231 108.172)">
              <g id="Grupo_58673" data-name="Grupo 58673">
                <g id="Grupo_58672" data-name="Grupo 58672">
                  <g id="Grupo_58671" data-name="Grupo 58671">
                    <path id="Trazado_102936" data-name="Trazado 102936" d="M104.954,414.482s-12.971-6.064-13.707-17.121a.474.474,0,0,1,.721-.441C93.91,398.139,99.33,402.4,104.954,414.482Z" transform="translate(-91.246 -396.846)" fill="#e8505b"/>
                  </g>
                </g>
              </g>
              <g id="Grupo_58677" data-name="Grupo 58677" transform="translate(2.797 4.198)">
                <g id="Grupo_58676" data-name="Grupo 58676">
                  <g id="Grupo_58675" data-name="Grupo 58675">
                    <g id="Grupo_58674" data-name="Grupo 58674">
                      <path id="Trazado_102937" data-name="Trazado 102937" d="M94.527,401.767a12.655,12.655,0,0,1,1.667,1.914l3.792,4.786c1.421,1.784,2.708,3.4,3.8,4.772a13.737,13.737,0,0,1,1.535,2.017,10.593,10.593,0,0,1-1.823-1.77c-1.058-1.157-2.457-2.81-3.937-4.687s-2.771-3.611-3.674-4.89A11.356,11.356,0,0,1,94.527,401.767Z" transform="translate(-94.523 -401.765)" fill="#263238"/>
                    </g>
                  </g>
                </g>
              </g>
            </g>
            <g id="Grupo_58727" data-name="Grupo 58727" transform="translate(24.763 66.255)">
              <g id="Grupo_58682" data-name="Grupo 58682" transform="translate(4.244 3.256)">
                <g id="Grupo_58681" data-name="Grupo 58681">
                  <g id="Grupo_58680" data-name="Grupo 58680">
                    <g id="Grupo_58679" data-name="Grupo 58679">
                      <path id="Trazado_102938" data-name="Trazado 102938" d="M133.327,351.55a1.094,1.094,0,0,1,.016.316c-.006.249-.014.55-.023.915-.038.86-.089,2.023-.154,3.472-.167,3.052-.4,7.308-.679,12.4v.012l0,.017c-.926,5.182-3.564,10.924-7.109,16.5-2.6,4.108-5.325,7.842-7.676,11.315a80.173,80.173,0,0,0-5.755,9.513,40.317,40.317,0,0,0-2.692,6.981c-.229.856-.4,1.523-.5,1.979a3.662,3.662,0,0,1-.189.69,3.526,3.526,0,0,1,.084-.711c.065-.464.2-1.141.4-2.01a36.856,36.856,0,0,1,2.554-7.094,75.887,75.887,0,0,1,5.686-9.624c2.335-3.5,5.046-7.238,7.632-11.325,3.526-5.548,6.151-11.2,7.112-16.3l0,.029c.358-5.086.656-9.338.871-12.387.117-1.446.211-2.6.281-3.464.036-.364.067-.663.091-.911A1.1,1.1,0,0,1,133.327,351.55Z" transform="translate(-108.558 -351.55)" fill="#263238"/>
                    </g>
                  </g>
                </g>
              </g>
              <g id="Grupo_58693" data-name="Grupo 58693" transform="translate(18.412 13.753)">
                <g id="Grupo_58685" data-name="Grupo 58685">
                  <g id="Grupo_58684" data-name="Grupo 58684">
                    <g id="Grupo_58683" data-name="Grupo 58683">
                      <path id="Trazado_102939" data-name="Trazado 102939" d="M128.034,385.917s5.493-13.223-1.417-21.886a.474.474,0,0,0-.83.16C125.175,366.4,124.043,373.2,128.034,385.917Z" transform="translate(-125.158 -363.848)" fill="#e8505b"/>
                    </g>
                  </g>
                </g>
                <g id="Grupo_58689" data-name="Grupo 58689" transform="translate(1.837 4.794)">
                  <g id="Grupo_58688" data-name="Grupo 58688">
                    <g id="Grupo_58687" data-name="Grupo 58687">
                      <g id="Grupo_58686" data-name="Grupo 58686">
                        <path id="Trazado_102940" data-name="Trazado 102940" d="M127.349,369.464a11.379,11.379,0,0,1,.435,2.5c.195,1.553.412,3.705.582,6.088s.252,4.548.252,6.116a10.6,10.6,0,0,1-.154,2.537,13.754,13.754,0,0,1-.225-2.525c-.117-1.755-.254-3.814-.407-6.09s-.3-4.336-.425-6.091A12.556,12.556,0,0,1,127.349,369.464Z" transform="translate(-127.31 -369.464)" fill="#263238"/>
                      </g>
                    </g>
                  </g>
                </g>
                <g id="Grupo_58692" data-name="Grupo 58692" opacity="0.3">
                  <g id="Grupo_58691" data-name="Grupo 58691">
                    <g id="Grupo_58690" data-name="Grupo 58690">
                      <path id="Trazado_102941" data-name="Trazado 102941" d="M128.034,385.917s5.493-13.223-1.417-21.886a.474.474,0,0,0-.83.16C125.175,366.4,124.043,373.2,128.034,385.917Z" transform="translate(-125.158 -363.848)"/>
                    </g>
                  </g>
                </g>
              </g>
              <g id="Grupo_58704" data-name="Grupo 58704" transform="translate(0 45.834)">
                <g id="Grupo_58696" data-name="Grupo 58696">
                  <g id="Grupo_58695" data-name="Grupo 58695">
                    <g id="Grupo_58694" data-name="Grupo 58694">
                      <path id="Trazado_102942" data-name="Trazado 102942" d="M107.86,423.287s4.4-13.625-3.187-21.7a.474.474,0,0,0-.814.227C103.427,404.068,102.85,410.936,107.86,423.287Z" transform="translate(-103.586 -401.434)" fill="#e8505b"/>
                    </g>
                  </g>
                </g>
                <g id="Grupo_58700" data-name="Grupo 58700" transform="translate(1.854 4.715)">
                  <g id="Grupo_58699" data-name="Grupo 58699">
                    <g id="Grupo_58698" data-name="Grupo 58698">
                      <g id="Grupo_58697" data-name="Grupo 58697">
                        <path id="Trazado_102943" data-name="Trazado 102943" d="M105.779,406.959a11.29,11.29,0,0,1,.638,2.458c.319,1.532.711,3.659,1.074,6.021s.62,4.513.747,6.075a10.572,10.572,0,0,1,.052,2.54,13.715,13.715,0,0,1-.428-2.5c-.259-1.739-.563-3.78-.9-6.036s-.654-4.3-.918-6.037A12.6,12.6,0,0,1,105.779,406.959Z" transform="translate(-105.757 -406.959)" fill="#263238"/>
                      </g>
                    </g>
                  </g>
                </g>
                <g id="Grupo_58703" data-name="Grupo 58703" opacity="0.3">
                  <g id="Grupo_58702" data-name="Grupo 58702">
                    <g id="Grupo_58701" data-name="Grupo 58701">
                      <path id="Trazado_102944" data-name="Trazado 102944" d="M107.86,423.287s4.4-13.625-3.187-21.7a.474.474,0,0,0-.814.227C103.427,404.068,102.85,410.936,107.86,423.287Z" transform="translate(-103.586 -401.434)"/>
                    </g>
                  </g>
                </g>
              </g>
              <g id="Grupo_58715" data-name="Grupo 58715" transform="translate(28.285)">
                <g id="Grupo_58707" data-name="Grupo 58707">
                  <g id="Grupo_58706" data-name="Grupo 58706">
                    <g id="Grupo_58705" data-name="Grupo 58705">
                      <path id="Trazado_102945" data-name="Trazado 102945" d="M136.724,367.4s11.731-8.212,10.547-19.23a.474.474,0,0,0-.787-.31C144.782,349.393,140.179,354.525,136.724,367.4Z" transform="translate(-136.724 -347.735)" fill="#e8505b"/>
                    </g>
                  </g>
                </g>
                <g id="Grupo_58710" data-name="Grupo 58710" opacity="0.3">
                  <g id="Grupo_58709" data-name="Grupo 58709">
                    <g id="Grupo_58708" data-name="Grupo 58708">
                      <path id="Trazado_102946" data-name="Trazado 102946" d="M136.724,367.4s11.731-8.212,10.547-19.23a.474.474,0,0,0-.787-.31C144.782,349.393,140.179,354.525,136.724,367.4Z" transform="translate(-136.724 -347.735)"/>
                    </g>
                  </g>
                </g>
                <g id="Grupo_58714" data-name="Grupo 58714" transform="translate(0.109 4.545)">
                  <g id="Grupo_58713" data-name="Grupo 58713">
                    <g id="Grupo_58712" data-name="Grupo 58712">
                      <g id="Grupo_58711" data-name="Grupo 58711">
                        <path id="Trazado_102947" data-name="Trazado 102947" d="M145.168,353.061a11.417,11.417,0,0,1-.975,2.345c-.67,1.416-1.64,3.348-2.776,5.451s-2.227,3.973-3.068,5.3a10.523,10.523,0,0,1-1.491,2.058,13.8,13.8,0,0,1,1.165-2.252l2.923-5.357,2.91-5.369A12.585,12.585,0,0,1,145.168,353.061Z" transform="translate(-136.852 -353.06)" fill="#263238"/>
                      </g>
                    </g>
                  </g>
                </g>
              </g>
              <g id="Grupo_58726" data-name="Grupo 58726" transform="translate(9.004 40.916)">
                <g id="Grupo_58718" data-name="Grupo 58718">
                  <g id="Grupo_58717" data-name="Grupo 58717">
                    <g id="Grupo_58716" data-name="Grupo 58716">
                      <path id="Trazado_102948" data-name="Trazado 102948" d="M114.135,408.935s14.147-2.206,17.938-12.619a.474.474,0,0,0-.57-.625C129.3,396.322,122.905,398.9,114.135,408.935Z" transform="translate(-114.135 -395.673)" fill="#e8505b"/>
                    </g>
                  </g>
                </g>
                <g id="Grupo_58721" data-name="Grupo 58721" opacity="0.3">
                  <g id="Grupo_58720" data-name="Grupo 58720">
                    <g id="Grupo_58719" data-name="Grupo 58719">
                      <path id="Trazado_102949" data-name="Trazado 102949" d="M114.135,408.935s14.147-2.206,17.938-12.619a.474.474,0,0,0-.57-.625C129.3,396.322,122.905,398.9,114.135,408.935Z" transform="translate(-114.135 -395.673)"/>
                    </g>
                  </g>
                </g>
                <g id="Grupo_58725" data-name="Grupo 58725" transform="translate(0.086 3.398)">
                  <g id="Grupo_58724" data-name="Grupo 58724">
                    <g id="Grupo_58723" data-name="Grupo 58723">
                      <g id="Grupo_58722" data-name="Grupo 58722">
                        <path id="Trazado_102950" data-name="Trazado 102950" d="M128.37,399.658a11.431,11.431,0,0,1-1.908,1.676c-1.224.976-2.947,2.283-4.892,3.671s-3.75,2.586-5.088,3.4a10.6,10.6,0,0,1-2.245,1.191,13.732,13.732,0,0,1,2.037-1.508l4.985-3.522,4.976-3.539A12.651,12.651,0,0,1,128.37,399.658Z" transform="translate(-114.236 -399.654)" fill="#263238"/>
                      </g>
                    </g>
                  </g>
                </g>
              </g>
            </g>
          </g>
          <g id="Grupo_58731" data-name="Grupo 58731" transform="translate(16.144 146.47)">
            <g id="Grupo_58730" data-name="Grupo 58730">
              <g id="Grupo_58729" data-name="Grupo 58729">
                <path id="Trazado_102951" data-name="Trazado 102951" d="M97.614,441.716l-4.127,27.777h25.719l-3.334-27.777Z" transform="translate(-93.487 -441.716)" fill="#455a64"/>
              </g>
            </g>
          </g>
          <g id="Grupo_58735" data-name="Grupo 58735" transform="translate(18.814 154.81)">
            <g id="Grupo_58734" data-name="Grupo 58734">
              <g id="Grupo_58733" data-name="Grupo 58733">
                <g id="Grupo_58732" data-name="Grupo 58732">
                  <path id="Trazado_102952" data-name="Trazado 102952" d="M117.357,451.754a100.392,100.392,0,0,1-10.37.268,100.4,100.4,0,0,1-10.372-.268,100.881,100.881,0,0,1,10.372-.267A100.873,100.873,0,0,1,117.357,451.754Z" transform="translate(-96.615 -451.487)" fill="#263238"/>
                </g>
              </g>
            </g>
          </g>
          <g id="Grupo_58739" data-name="Grupo 58739" transform="translate(18.644 157.02)">
            <g id="Grupo_58738" data-name="Grupo 58738">
              <g id="Grupo_58737" data-name="Grupo 58737">
                <g id="Grupo_58736" data-name="Grupo 58736">
                  <path id="Trazado_102953" data-name="Trazado 102953" d="M117.839,454.344c0,.148-4.8.268-10.711.268s-10.712-.12-10.712-.268,4.8-.268,10.712-.268S117.839,454.2,117.839,454.344Z" transform="translate(-96.416 -454.076)" fill="#263238"/>
                </g>
              </g>
            </g>
          </g>
        </g>
        <g id="Grupo_58756" data-name="Grupo 58756" transform="translate(480.891 137.068)">
          <g id="Grupo_58742" data-name="Grupo 58742" transform="translate(11.382)">
            <g id="Grupo_58741" data-name="Grupo 58741">
              <path id="Trazado_102954" data-name="Trazado 102954" d="M657.056,430.7a7.036,7.036,0,0,0-4.292,3.456,12.413,12.413,0,0,0-1.422,5.433c-.207,3.649,1.207,7.609,2.907,10.844,3.464-2.113,4.943-6.583,5.551-8.9.961-3.658.476-10.853-2.745-10.836" transform="translate(-651.322 -430.7)" fill="#00897b"/>
            </g>
          </g>
          <g id="Grupo_58744" data-name="Grupo 58744" transform="translate(0 16.256)">
            <g id="Grupo_58743" data-name="Grupo 58743">
              <path id="Trazado_102955" data-name="Trazado 102955" d="M647.781,458.53a6,6,0,0,0-.948-5.953,7.97,7.97,0,0,0-5.486-2.8,3.356,3.356,0,0,0-2.739.706,2.567,2.567,0,0,0-.479,2.558,5.21,5.21,0,0,0,1.578,2.2c2.331,2.086,4.969,3.676,8.073,3.3" transform="translate(-637.987 -449.746)" fill="#00897b"/>
            </g>
          </g>
          <g id="Grupo_58747" data-name="Grupo 58747" transform="translate(4.667 20.12)">
            <g id="Grupo_58746" data-name="Grupo 58746">
              <g id="Grupo_58745" data-name="Grupo 58745">
                <path id="Trazado_102956" data-name="Trazado 102956" d="M650.567,470.827a4.215,4.215,0,0,0,.018-.753c-.006-.533-.015-1.221-.024-2.049a21.065,21.065,0,0,0-.964-6.7,12.9,12.9,0,0,0-3.727-5.622,8.734,8.734,0,0,0-1.717-1.139,5.2,5.2,0,0,0-.512-.228c-.119-.047-.183-.068-.186-.06a13.722,13.722,0,0,1,2.293,1.569,13.318,13.318,0,0,1,3.6,5.569,22.7,22.7,0,0,1,1.026,6.618c.04.864.073,1.565.108,2.048A3.9,3.9,0,0,0,650.567,470.827Z" transform="translate(-643.455 -454.273)" fill="#263238"/>
              </g>
            </g>
          </g>
          <g id="Grupo_58750" data-name="Grupo 58750" transform="translate(11.705 5.512)">
            <g id="Grupo_58749" data-name="Grupo 58749">
              <g id="Grupo_58748" data-name="Grupo 58748">
                <path id="Trazado_102957" data-name="Trazado 102957" d="M657,437.158a1.522,1.522,0,0,0-.092.314l-.213.913c-.18.794-.426,1.946-.718,3.372-.584,2.852-1.336,6.8-2.067,11.184s-1.3,8.365-1.675,11.251c-.187,1.443-.329,2.613-.416,3.422-.039.382-.071.691-.1.933a1.569,1.569,0,0,0-.015.327,1.5,1.5,0,0,0,.068-.321c.038-.239.085-.546.144-.926.123-.837.293-1.994.5-3.409.421-2.879,1.022-6.854,1.751-11.233s1.454-8.332,1.99-11.191c.263-1.406.479-2.555.634-3.388l.165-.923A1.591,1.591,0,0,0,657,437.158Z" transform="translate(-651.7 -437.158)" fill="#263238"/>
              </g>
            </g>
          </g>
          <g id="Grupo_58752" data-name="Grupo 58752" transform="translate(14.635 19.049)">
            <g id="Grupo_58751" data-name="Grupo 58751">
              <path id="Trazado_102958" data-name="Trazado 102958" d="M655.134,462.08a14.045,14.045,0,0,1,9.294-8.844c1.09-.31,2.459-.4,3.158.492s.284,2.207-.3,3.179a12,12,0,0,1-12.132,5.48" transform="translate(-655.134 -453.018)" fill="#00897b"/>
            </g>
          </g>
          <g id="Grupo_58755" data-name="Grupo 58755" transform="translate(11.929 22.575)">
            <g id="Grupo_58754" data-name="Grupo 58754">
              <g id="Grupo_58753" data-name="Grupo 58753">
                <path id="Trazado_102959" data-name="Trazado 102959" d="M662.894,457.151a3.637,3.637,0,0,0-.687.17,6.686,6.686,0,0,0-.789.261c-.3.123-.656.232-1.019.419a12.49,12.49,0,0,0-1.188.612,13.861,13.861,0,0,0-1.294.826,15.57,15.57,0,0,0-2.6,2.369,15.348,15.348,0,0,0-1.945,2.93,13.273,13.273,0,0,0-.606,1.412,11.373,11.373,0,0,0-.4,1.274,10.276,10.276,0,0,0-.236,1.076,6.153,6.153,0,0,0-.116.823,3.623,3.623,0,0,0-.042.707c.06.008.127-1,.574-2.556a12.3,12.3,0,0,1,.429-1.246,14.1,14.1,0,0,1,.619-1.379,15.891,15.891,0,0,1,1.929-2.868,16.159,16.159,0,0,1,2.539-2.346,14.5,14.5,0,0,1,1.262-.834c.4-.256.8-.447,1.157-.632C661.933,457.465,662.912,457.207,662.894,457.151Z" transform="translate(-651.963 -457.149)" fill="#263238"/>
              </g>
            </g>
          </g>
        </g>
      </g>
    </g>
  </g>
</svg>
