<svg xmlns="http://www.w3.org/2000/svg" xmlns:xlink="http://www.w3.org/1999/xlink" width="869" height="92" viewBox="0 0 869 92">
  <defs>
    <clipPath id="clip-path">
      <rect id="Rectángulo_5744" data-name="Rectángulo 5744" width="869" height="92" transform="translate(293 327)" fill="#00897b" stroke="#00897b" stroke-width="1"/>
    </clipPath>
  </defs>
  <g id="Enmascarar_grupo_58" data-name="Enmascarar grupo 58" transform="translate(-293 -327)" clip-path="url(#clip-path)">
    <g id="Grupo_16438" data-name="Grupo 16438" transform="translate(137.466 -1502.308)">
      <path id="Trazado_40580" data-name="Trazado 40580" d="M10.142-23a.358.358,0,0,1,.075.125,1.308,1.308,0,0,1,.009.193V-2.527q0,1.285.686,1.64a6.855,6.855,0,0,0,2.56.418V0H4.033V-.5a5.53,5.53,0,0,0,2.644-.552q.62-.452.62-1.958v-15.5a2.913,2.913,0,0,0-.2-1.222.865.865,0,0,0-.871-.418,3.613,3.613,0,0,0-1.129.243q-.695.243-1.3.514v-.469L9.94-23ZM17.2-.469A4.113,4.113,0,0,0,19.322-1a2.334,2.334,0,0,0,.514-1.807v-16.77q0-1.189-.4-1.506a1.824,1.824,0,0,0-1.155-.318q-.318,0-.553.017t-.518.051v-.469l1.506-.4q1.724-.452,2.929-.857a5.161,5.161,0,0,1,.857-.251q.1,0,.125.042a.454.454,0,0,1,.025.193V-9.006l4.636-4.084a4.26,4.26,0,0,0,.678-.72.893.893,0,0,0,.176-.469.458.458,0,0,0-.376-.485,7.575,7.575,0,0,0-1.354-.147v-.469h6.979v.469a7.183,7.183,0,0,0-3.013.745,31.165,31.165,0,0,0-4.37,3.59l-.985.9,3.1,4.018A29.477,29.477,0,0,0,31.7-1.564a4.554,4.554,0,0,0,2.56,1.129V0H26.812V-.469L27.4-.5a1.536,1.536,0,0,0,.518-.117.343.343,0,0,0,.234-.335.726.726,0,0,0-.086-.343,2.756,2.756,0,0,0-.234-.36L22.644-8.483V-2.29A1.518,1.518,0,0,0,23.5-.748,4.618,4.618,0,0,0,25.225-.5V0H17.2ZM37.64,3.1a1.982,1.982,0,0,0,1.582,1.942,11.279,11.279,0,0,0,3.623.532,9.3,9.3,0,0,0,4.518-.962A2.766,2.766,0,0,0,49.1,2.243q0-1.122-1.406-1.489A17.18,17.18,0,0,0,44.4.5Q43.782.485,43.1.46T41.841.4Q41.474.385,40.652.268t-1.221-.2q-.2,0-.987,1.054a3.386,3.386,0,0,0-.8,1.975Zm2.176-8.719a4.382,4.382,0,0,1-2.369-1.791,5.164,5.164,0,0,1-.845-2.9,5.538,5.538,0,0,1,1.556-3.716,5.57,5.57,0,0,1,4.4-1.758,7.448,7.448,0,0,1,2.695.578,7.739,7.739,0,0,0,2.828.578q.351,0,1.063-.025t1.028-.025h.2v1.356H47.481q.3.7.469,1.222a6.55,6.55,0,0,1,.284,1.841,4.9,4.9,0,0,1-1.582,3.506,5.722,5.722,0,0,1-4.26,1.6,13.075,13.075,0,0,1-1.506-.151q-.485,0-1.28.82a2.256,2.256,0,0,0-.8,1.339q0,.536,1.171.787a8.055,8.055,0,0,0,1.707.171A22.92,22.92,0,0,1,47.53-1.7a3.256,3.256,0,0,1,2.527,3.38q0,2.644-2.954,4.218a12.575,12.575,0,0,1-5.967,1.573,7.525,7.525,0,0,1-4.351-1.114A3.021,3.021,0,0,1,35.178,4.02a1.971,1.971,0,0,1,.428-1.18,13.924,13.924,0,0,1,1.682-1.714l1.1-.992.2-.2a5.189,5.189,0,0,1-1.155-.586,1.491,1.491,0,0,1-.669-1.189,2.3,2.3,0,0,1,.578-1.364,22.139,22.139,0,0,1,2.473-2.417ZM43-5.958a2.366,2.366,0,0,0,1.542-.5,3.392,3.392,0,0,0,1-2.794,9.625,9.625,0,0,0-.811-3.582,2.788,2.788,0,0,0-2.7-1.988,2.255,2.255,0,0,0-2.26,1.556,5.631,5.631,0,0,0-.318,2.025,6.913,6.913,0,0,0,.987,3.665A2.93,2.93,0,0,0,43-5.958ZM78.31-6.376v2.343H61V-6.376Zm0-6.912v2.343H61v-2.343Z" transform="translate(336.762 1878.328)" fill="#00897b"/>
      <path id="Trazado_40550" data-name="Trazado 40550" d="M1770.358,318.767h294.957" transform="translate(-1335.909 1551.848)" fill="none" stroke="#00897b" stroke-width="1.714"/>
      <path id="Trazado_40581" data-name="Trazado 40581" d="M-4.77-22.443l1.732-.243q.661-.092,1.147-.176Q.08-23.246.234-23.279a1.16,1.16,0,0,1,.234-.033q.2.1.2.251L-3.264-8.117A40.132,40.132,0,0,1,.184-12.669q2.343-2.477,4.3-2.477a2.7,2.7,0,0,1,1.548.514A2.065,2.065,0,0,1,6.779-12.8a5.2,5.2,0,0,1-.086.82,7.051,7.051,0,0,1-.2.887L4.234-3.08q-.1.335-.171.644A2.676,2.676,0,0,0,4-1.875a.6.6,0,0,0,.134.428.5.5,0,0,0,.385.142,1.914,1.914,0,0,0,1.227-.721Q6.177-2.476,7.365-4l.433.4A17,17,0,0,1,5.807-1.054,4.247,4.247,0,0,1,2.878.368,1.588,1.588,0,0,1,1.758-.051a1.561,1.561,0,0,1-.452-1.2,3.171,3.171,0,0,1,.025-.41,2.966,2.966,0,0,1,.092-.428L4-11.9q.033-.134.058-.276a1.682,1.682,0,0,0,.025-.293.849.849,0,0,0-.251-.653,1,1,0,0,0-.686-.234q-1.122,0-2.828,1.8A23.308,23.308,0,0,0-2.56-7.883,13.359,13.359,0,0,0-3.77-5.389Q-4.184-4.218-5.356,0H-7.949l5.356-20.3a3.314,3.314,0,0,0,.067-.368,2.583,2.583,0,0,0,.017-.284q0-.72-.469-.862a6.23,6.23,0,0,0-1.791-.075Zm-99.163,74.807a8.62,8.62,0,0,1-1.967,5.523,6.241,6.241,0,0,1-5.113,2.46,7.06,7.06,0,0,1-5.364-2.762,10.752,10.752,0,0,1-2.418-7.347A13.208,13.208,0,0,1-114.108,40.1a14.166,14.166,0,0,1,9.406-3.548l.086.553a16.538,16.538,0,0,0-3.607,1.046,8.74,8.74,0,0,0-2.7,1.849,14.32,14.32,0,0,0-2.293,3.063,12.969,12.969,0,0,0-1.473,3.685,12.3,12.3,0,0,1,1.791-.937,7.2,7.2,0,0,1,2.695-.536,6.014,6.014,0,0,1,4.464,1.835,7.189,7.189,0,0,1,1.809,5.255ZM-107,53.65a10.393,10.393,0,0,0-.7-3.949,4.075,4.075,0,0,0-3.983-2.878q-2.594,0-3.447,1.542a6.6,6.6,0,0,0-.5,3.013,13,13,0,0,0,1.163,5.338,3.849,3.849,0,0,0,3.674,2.611,3.047,3.047,0,0,0,2.9-1.7,8.342,8.342,0,0,0,.9-3.972Zm12.565,5.982a4.8,4.8,0,0,1-1.222,3.147A7.531,7.531,0,0,1-98.28,64.87L-98.6,64.2a5.7,5.7,0,0,0,2.218-1.958,3.733,3.733,0,0,0,.611-1.758.294.294,0,0,0-.151-.3.771.771,0,0,0-.318-.067l-1.122.117a2.039,2.039,0,0,1-1.285-.46,1.591,1.591,0,0,1-.584-1.333,2.132,2.132,0,0,1,.485-1.305,1.874,1.874,0,0,1,1.59-.636,2.622,2.622,0,0,1,1.891.829,3.093,3.093,0,0,1,.833,2.3Zm16.2-7.264A8.62,8.62,0,0,1-80.2,57.891a6.241,6.241,0,0,1-5.113,2.46,7.06,7.06,0,0,1-5.364-2.762,10.752,10.752,0,0,1-2.418-7.347A13.208,13.208,0,0,1-88.4,40.1,14.166,14.166,0,0,1-79,36.555l.086.553a16.538,16.538,0,0,0-3.61,1.043A8.74,8.74,0,0,0-85.222,40a14.32,14.32,0,0,0-2.293,3.063,12.969,12.969,0,0,0-1.473,3.685,12.3,12.3,0,0,1,1.791-.937,7.2,7.2,0,0,1,2.695-.536,6.014,6.014,0,0,1,4.468,1.839,7.189,7.189,0,0,1,1.809,5.255Zm-3.063,1.285A10.393,10.393,0,0,0-82,49.7a4.075,4.075,0,0,0-3.983-2.878q-2.594,0-3.447,1.542a6.6,6.6,0,0,0-.5,3.013,13,13,0,0,0,1.163,5.338A3.849,3.849,0,0,0-85.09,59.33a3.047,3.047,0,0,0,2.9-1.7,8.342,8.342,0,0,0,.907-3.975Zm5.189,5.942a108.891,108.891,0,0,0,8.318-9.34,9.843,9.843,0,0,0,2.193-5.807,5.017,5.017,0,0,0-1.338-3.77,4.434,4.434,0,0,0-3.2-1.3,4.644,4.644,0,0,0-3.716,1.674,9.712,9.712,0,0,0-1.506,2.828l-.72-.151q.837-3.849,2.837-5.347a7.027,7.027,0,0,1,4.293-1.5,6.127,6.127,0,0,1,4.578,1.782,5.988,5.988,0,0,1,1.749,4.36A8.752,8.752,0,0,1-64.5,48.316a113.885,113.885,0,0,1-8.218,9.054h7.683a4.762,4.762,0,0,0,2.26-.385,5.019,5.019,0,0,0,1.473-1.874l.435.2-1.854,4.671H-76.1Zm32.151-7.23a8.62,8.62,0,0,1-1.967,5.523,6.241,6.241,0,0,1-5.113,2.46A7.06,7.06,0,0,1-56.4,57.586a10.752,10.752,0,0,1-2.418-7.347A13.208,13.208,0,0,1-54.125,40.1a14.166,14.166,0,0,1,9.406-3.548l.086.553a16.538,16.538,0,0,0-3.61,1.043A8.74,8.74,0,0,0-50.946,40a14.32,14.32,0,0,0-2.293,3.063,12.969,12.969,0,0,0-1.473,3.685,12.3,12.3,0,0,1,1.791-.937,7.2,7.2,0,0,1,2.695-.536,6.014,6.014,0,0,1,4.468,1.839,7.189,7.189,0,0,1,1.809,5.255Zm-3.063,1.285a10.392,10.392,0,0,0-.7-3.949A4.075,4.075,0,0,0-51.7,46.823q-2.594,0-3.447,1.542a6.6,6.6,0,0,0-.5,3.013,13,13,0,0,0,1.163,5.339,3.849,3.849,0,0,0,3.674,2.614,3.047,3.047,0,0,0,2.9-1.7,8.342,8.342,0,0,0,.907-3.975Zm20.938,5.707a3.423,3.423,0,0,0,3.38-2.695,25.38,25.38,0,0,0,.92-7.8,30.441,30.441,0,0,0-.553-6.494q-1.038-4.518-3.883-4.518t-3.9,4.653a31.077,31.077,0,0,0-.553,6.527,25.987,25.987,0,0,0,.569,6.075q1.075,4.255,4.021,4.255Zm-.051-22.41q3.849,0,5.975,4.033a16.07,16.07,0,0,1,1.691,7.5A18.752,18.752,0,0,1-19.5,54.755q-1.958,5.54-6.778,5.54a6.41,6.41,0,0,1-5.422-3q-2.276-3.2-2.276-8.686a16.755,16.755,0,0,1,1.523-7.431q2.061-4.225,6.329-4.225ZM-1.76,37.3v.553L-9.024,60.3h-2.209l6.777-20.463h-7.3a3.942,3.942,0,0,0-2.335.536,9.091,9.091,0,0,0-1.8,2.243l-.586-.267q1.088-2.678,1.347-3.305t.678-1.732ZM8.2,59.364a3.423,3.423,0,0,0,3.38-2.695,25.38,25.38,0,0,0,.92-7.8,30.441,30.441,0,0,0-.553-6.494q-1.037-4.519-3.882-4.519t-3.9,4.653a31.077,31.077,0,0,0-.553,6.527,25.986,25.986,0,0,0,.569,6.075Q5.255,59.364,8.2,59.364Zm-.05-22.41q3.849,0,5.975,4.033a16.07,16.07,0,0,1,1.691,7.5,18.752,18.752,0,0,1-1.038,6.276Q12.821,60.3,8,60.3a6.41,6.41,0,0,1-5.422-3Q.3,54.109.3,48.619a16.755,16.755,0,0,1,1.523-7.431Q3.883,36.954,8.151,36.954Zm19.129.033a.358.358,0,0,1,.075.125,1.308,1.308,0,0,1,.009.193V57.456q0,1.285.686,1.64a6.855,6.855,0,0,0,2.56.418v.469H21.171v-.5a5.531,5.531,0,0,0,2.644-.553q.62-.452.62-1.958v-15.5a2.914,2.914,0,0,0-.2-1.222.865.865,0,0,0-.871-.418,3.612,3.612,0,0,0-1.129.243q-.695.243-1.3.514v-.469l6.141-3.135Zm9.556,19.933a4.856,4.856,0,0,1,2.5,1.08,4.842,4.842,0,0,0,2.385,1.08,4.3,4.3,0,0,0,3.364-1.7,6.239,6.239,0,0,0,1.442-4.177q0-4.335-4.62-6.243a12.589,12.589,0,0,0-4.77-1.054,2.42,2.42,0,0,1-.46-.025.548.548,0,0,1-.226-.176q.033-.134.058-.226a1.621,1.621,0,0,1,.058-.176l3.649-8H47.4a1.559,1.559,0,0,0,.829-.184,4.321,4.321,0,0,0,.762-.686l.268.234-1.305,3.1q-.067.151-.368.193a4.757,4.757,0,0,1-.653.042h-6.48l-1.422,2.93a30.563,30.563,0,0,1,4.017.887,9.041,9.041,0,0,1,3.5,2.075,8.134,8.134,0,0,1,1.824,2.669,8.46,8.46,0,0,1-2.017,9.314,9.354,9.354,0,0,1-6.669,2.477,9,9,0,0,1-2.644-.318q-1.674-.518-1.674-1.858a1.232,1.232,0,0,1,.36-.878,1.475,1.475,0,0,1,1.112-.379ZM67.916,44.6v.47a3.492,3.492,0,0,0-1.078.171.636.636,0,0,0-.444.661,6.216,6.216,0,0,0,.887,1.791q.469.771,1.189,1.891.987-1.356,1.473-2.125a4.419,4.419,0,0,0,.82-1.607.576.576,0,0,0-.351-.586,3.239,3.239,0,0,0-.987-.2V44.6h5.383v.473a4,4,0,0,0-1.59.46,3.321,3.321,0,0,0-1.189,1.046l-2.862,4.134,4.418,6.695A5.985,5.985,0,0,0,75.033,59.1a2.673,2.673,0,0,0,1.364.418v.466H69.49v-.469l.485-.033a1.2,1.2,0,0,0,.644-.234.612.612,0,0,0,.257-.5,4.139,4.139,0,0,0-.636-1.406q-.3-.536-.9-1.457-.285-.452-.845-1.255t-.943-1.371l-2.695,4.2a11.119,11.119,0,0,0-.6,1,1.04,1.04,0,0,0-.117.418.4.4,0,0,0,.257.418,6.234,6.234,0,0,0,1.129.218v.47H60.569v-.469a3.979,3.979,0,0,0,1.339-.469,5.267,5.267,0,0,0,1.155-1.322l3.9-5.674L63.75,47.179a8.606,8.606,0,0,0-1.338-1.724A3.722,3.722,0,0,0,60.8,45.07V44.6Zm27.916-7.615a.358.358,0,0,1,.075.125,1.308,1.308,0,0,1,.009.193V57.456q0,1.285.686,1.64a6.855,6.855,0,0,0,2.56.418v.469H89.724v-.5a5.531,5.531,0,0,0,2.644-.553q.62-.452.62-1.958v-15.5a2.913,2.913,0,0,0-.2-1.222.865.865,0,0,0-.871-.418,3.613,3.613,0,0,0-1.129.243q-.695.243-1.3.514v-.469l6.142-3.129Zm15.2,22.376a3.423,3.423,0,0,0,3.38-2.695,25.379,25.379,0,0,0,.92-7.8,30.441,30.441,0,0,0-.553-6.494q-1.038-4.518-3.883-4.518t-3.9,4.653a31.078,31.078,0,0,0-.553,6.527,25.986,25.986,0,0,0,.569,6.075Q108.084,59.364,111.029,59.364Zm-.051-22.41q3.849,0,5.975,4.033a16.07,16.07,0,0,1,1.691,7.5,18.752,18.752,0,0,1-1.038,6.276q-1.958,5.54-6.778,5.54a6.41,6.41,0,0,1-5.422-3q-2.276-3.2-2.276-8.686a16.755,16.755,0,0,1,1.523-7.431q2.058-4.231,6.326-4.231Z" transform="translate(571.553 1852.621)" fill="#00897b"/>
      <path id="Trazado_40554" data-name="Trazado 40554" d="M1707.727,280.207s-30.591,36.753,0,88.819" transform="translate(-1274.212 1551.848)" fill="none" stroke="#00897b" stroke-width="1.714"/>
      <path id="Trazado_40555" data-name="Trazado 40555" d="M1694.128,280.207s30.591,36.753,0,88.819" transform="translate(-964.871 1551.848)" fill="none" stroke="#00897b" stroke-width="1.714"/>
      <path id="Trazado_40582" data-name="Trazado 40582" d="M-12.366-5.062h4.841V-3.83h-4.841Zm7.323,3.387a2.893,2.893,0,0,1,1.4.548,2.939,2.939,0,0,0,1.477.548,2.3,2.3,0,0,0,2-.909A3.316,3.316,0,0,0,.491-3.464a3.143,3.143,0,0,0-.53-1.809A3.384,3.384,0,0,0-3.06-6.592q-.125,0-.241.005t-.269.024l-.019-.25a8.339,8.339,0,0,0,2.425-1.28A2.337,2.337,0,0,0-.279-10a1.91,1.91,0,0,0-.7-1.6,2.507,2.507,0,0,0-1.594-.549,2.61,2.61,0,0,0-1.867.78,5.957,5.957,0,0,0-.953,1.308l-.3-.068a4.416,4.416,0,0,1,1.434-2.338,3.673,3.673,0,0,1,2.425-.876,3.068,3.068,0,0,1,2.276.808,2.571,2.571,0,0,1,.8,1.867A2.584,2.584,0,0,1,.585-8.949a6.158,6.158,0,0,1-1.163.991A4.97,4.97,0,0,1,.9-7.034a3.4,3.4,0,0,1,1.049,2.56A4.365,4.365,0,0,1,.514-1.251,5.642,5.642,0,0,1-3.58.144,2.9,2.9,0,0,1-5.24-.207a.967.967,0,0,1-.476-.756.837.837,0,0,1,.159-.482.58.58,0,0,1,.515-.23ZM9.027-11.24,4.3-4.561H9.027Zm.635-1.982h.914v8.661h2.011v1.279H10.576V0H9.046V-3.282H3.5V-4.561Z" transform="translate(707.8 1897.18)" fill="#00897b"/>
      <path id="Trazado_40583" data-name="Trazado 40583" d="M-36.59-.435a3.826,3.826,0,0,0,1.74-.435,2.282,2.282,0,0,0,.669-1.942v-8.655a2.723,2.723,0,0,0-.326-1.624,1.344,1.344,0,0,0-1.08-.385,3.054,3.054,0,0,0-.527.033,2.811,2.811,0,0,0-.41.117v-.586l1.2-.4q.653-.218,2.142-.787t1.573-.569a.093.093,0,0,1,.1.086,1.949,1.949,0,0,1,.017.318v2.26a12.768,12.768,0,0,1,2.862-2.084,5.672,5.672,0,0,1,2.477-.578A3.457,3.457,0,0,1-23.4-14.5a5.086,5.086,0,0,1,.894,1.728,13.959,13.959,0,0,1,2.159-1.858A5.877,5.877,0,0,1-17.1-15.663a3.513,3.513,0,0,1,3.6,2.193,10.86,10.86,0,0,1,.518,3.916v6.945A2,2,0,0,0-12.46-.994a3.713,3.713,0,0,0,1.9.56V0h-7.548V-.469A3.3,3.3,0,0,0-16.2-1.054a2.646,2.646,0,0,0,.46-1.841v-7.217a6.1,6.1,0,0,0-.351-2.393,2.4,2.4,0,0,0-2.427-1.371,3.842,3.842,0,0,0-2.159.72,10.693,10.693,0,0,0-1.521,1.34v8.569a3.67,3.67,0,0,0,.477,2.057A2.412,2.412,0,0,0-19.7-.437V0h-7.682V-.435a3.065,3.065,0,0,0,2.025-.771A5.491,5.491,0,0,0-24.921-4V-8.688a12.548,12.548,0,0,0-.335-3.548,2.248,2.248,0,0,0-2.343-1.64,4.027,4.027,0,0,0-2.009.56,6.309,6.309,0,0,0-1.74,1.464v9.157A2.635,2.635,0,0,0-30.9-.937a2.742,2.742,0,0,0,1.933.5V0H-36.59ZM25.573-5.272h.553a8.74,8.74,0,0,0,1.038,2.929A3.8,3.8,0,0,0,30.591-.468a2.755,2.755,0,0,0,1.983-.695,2.374,2.374,0,0,0,.728-1.8,2.477,2.477,0,0,0-.418-1.356,4.291,4.291,0,0,0-1.47-1.272L29.54-6.661a10.686,10.686,0,0,1-3.029-2.228,3.911,3.911,0,0,1-.975-2.643,3.958,3.958,0,0,1,1.339-3.08,4.84,4.84,0,0,1,3.364-1.2,6.535,6.535,0,0,1,1.949.335,9.034,9.034,0,0,0,1.2.335.857.857,0,0,0,.435-.086.7.7,0,0,0,.234-.267h.4l.117,4.669h-.518a7.742,7.742,0,0,0-.9-2.527,3.321,3.321,0,0,0-3-1.674,2.391,2.391,0,0,0-1.841.72,2.4,2.4,0,0,0-.669,1.691q0,1.542,2.314,2.742l2.209,1.189q3.565,1.944,3.565,4.522A4.041,4.041,0,0,1,34.251-.937,5.788,5.788,0,0,1,30.376.318,9.051,9.051,0,0,1,28.1-.017a10.277,10.277,0,0,0-1.506-.334.5.5,0,0,0-.351.142.988.988,0,0,0-.234.343h-.435Z" transform="translate(803.773 1884.326)" fill="#00897b"/>
      <path id="Trazado_40584" data-name="Trazado 40584" d="M-7.439-5.062H-2.6V-3.83H-7.439Zm6.38,4.841a62.614,62.614,0,0,0,4.782-5.37,5.66,5.66,0,0,0,1.26-3.342,2.885,2.885,0,0,0-.771-2.17,2.549,2.549,0,0,0-1.838-.746,2.67,2.67,0,0,0-2.135.966A5.584,5.584,0,0,0-.626-9.255l-.414-.086A5.026,5.026,0,0,1,.589-12.415a4.04,4.04,0,0,1,2.471-.867,3.523,3.523,0,0,1,2.632,1.028A3.443,3.443,0,0,1,6.7-9.746,5.033,5.033,0,0,1,5.61-6.708,65.481,65.481,0,0,1,.885-1.5H5.3a2.742,2.742,0,0,0,1.3-.221A2.886,2.886,0,0,0,7.445-2.8l.25.116L6.631,0H-1.058Z" transform="translate(803.773 1864.617)" fill="#00897b"/>
    </g>
  </g>
</svg>
