<svg xmlns="http://www.w3.org/2000/svg" xmlns:xlink="http://www.w3.org/1999/xlink" width="608" height="141" viewBox="0 0 608 141">
  <defs>
    <clipPath id="clip-path">
      <rect id="Rectángulo_5757" data-name="Rectángulo 5757" width="608" height="141" transform="translate(812 3928)" fill="#00897b" stroke="#00897b" stroke-width="1"/>
    </clipPath>
  </defs>
  <g id="Enmascarar_grupo_65" data-name="Enmascarar grupo 65" transform="translate(-812 -3928)" clip-path="url(#clip-path)">
    <g id="Grupo_16472" data-name="Grupo 16472" transform="translate(-62.93 -5180.289)">
      <path id="Trazado_40706" data-name="Trazado 40706" d="M15.589-11.921a3.1,3.1,0,0,0-.695-2.23,2.263,2.263,0,0,0-1.683-.715q-3.431,0-6.376,5.261A17.037,17.037,0,0,0,4.248-1.633,3.483,3.483,0,0,0,4.975.819a2.376,2.376,0,0,0,1.8.768q3.177,0,6.124-5.114a17.125,17.125,0,0,0,2.69-8.394Zm-2.63-3.893a3.574,3.574,0,0,1,2.568.862,3.125,3.125,0,0,1,.754,1.221l.108.294.463-1.6A1.6,1.6,0,0,1,17-15.4a.387.387,0,0,1,.294-.115l2.378-.274q.19,0,.221.073a.487.487,0,0,1-.011.263q-.084.274-.126.431t-.126.453L17.69-7.04q-.631,2.462-1.077,4.251a32.194,32.194,0,0,0-.776,3.7.539.539,0,0,0,.157.431.573.573,0,0,0,.389.137.836.836,0,0,0,.411-.126,4.392,4.392,0,0,0,.539-.379L17.69.683q.168-.148.379-.347t.505-.495l1.3-1.347.505.442a22.054,22.054,0,0,1-3.511,3.8,4.256,4.256,0,0,1-2.526,1,1.453,1.453,0,0,1-1.21-.547,2.141,2.141,0,0,1-.431-1.368,12.027,12.027,0,0,1,.284-2.178q.284-1.42.558-2.389-.38.631-1.275,1.841a14.808,14.808,0,0,1-2.2,2.346A10.389,10.389,0,0,1,7.13,3.379a6.425,6.425,0,0,1-2.1.376,4.271,4.271,0,0,1-3.093-1.4A5.387,5.387,0,0,1,.542-1.611q0-4.418,3.956-9.218,4.082-4.988,8.46-4.988Zm45.75,2.733-.528,2.547H36.57l.526-2.546ZM56.9-4.558l-.526,2.549H34.76l.526-2.546ZM74.764-7.693h9.47L83.624-5h-9.47Zm29.9.19a4.588,4.588,0,0,0,.4,2.084,2.489,2.489,0,0,0,2.42,1.283q1.894,0,3.378-2.409a9.937,9.937,0,0,0,1.484-5.314,3.48,3.48,0,0,0-.61-2.178,2.17,2.17,0,0,0-1.832-.789,4.3,4.3,0,0,0-3.8,2.5A9.669,9.669,0,0,0,104.668-7.5Zm.737,18.771a6.9,6.9,0,0,0,4.156-1.2,3.48,3.48,0,0,0,1.652-2.862,2.889,2.889,0,0,0-.862-2.126,6.06,6.06,0,0,0-1.494-.989q-.862-.421-2.915-1.21a13.378,13.378,0,0,0-2.37-.789q-.547,0-2.126,1.462A4.423,4.423,0,0,0,99.87,6.87a3.844,3.844,0,0,0,2.42,3.851A7.837,7.837,0,0,0,105.4,11.268ZM97.54,7.417a4.565,4.565,0,0,1,1.21-3,13.289,13.289,0,0,1,3.84-2.83,4.309,4.309,0,0,1-.862-.7,1.394,1.394,0,0,1-.336-.978,3.017,3.017,0,0,1,1.2-1.978,19.276,19.276,0,0,1,2.183-1.659,6.714,6.714,0,0,1-2.31-1.435,4.485,4.485,0,0,1-1.185-3.219,6.637,6.637,0,0,1,2.478-5.28,9.178,9.178,0,0,1,6.141-2.1,7.841,7.841,0,0,1,3.241.6,3.8,3.8,0,0,1,1.557,1h2.852v1.684H115.4a8.612,8.612,0,0,1,.19.841,6.948,6.948,0,0,1,.064,1.077A6.316,6.316,0,0,1,113.014-5.2a9.374,9.374,0,0,1-5.692,1.957,5.154,5.154,0,0,1-.589-.031q-.274-.031-.673-.115-.316,0-.862.61a1.724,1.724,0,0,0-.568,1.095q0,.715,4.633,2.442Q113.87,2.5,113.87,5.868a5.619,5.619,0,0,1-2.314,4.429q-2.314,1.9-6.986,1.9a8.512,8.512,0,0,1-5.135-1.389,4.094,4.094,0,0,1-1.9-3.4Z" transform="translate(959.245 9124.11)" fill="#00897b"/>
      <path id="Trazado_40701" data-name="Trazado 40701" d="M15.758-15.3a2.126,2.126,0,0,1,1.81.841,3.108,3.108,0,0,1,.631,1.915q0,2.841-5.619,9.953Q7.256,4.162,6.206,4.162q-.316,0-.421-.862a14.545,14.545,0,0,1-.064-1.641q0-1.41-.274-4.777T4.921-8.105A19.378,19.378,0,0,0,3.89-12.693a1.929,1.929,0,0,0-1.915-1.031q-.232,0-.539.022t-.7.064v-.547q.631-.126,2.652-.568t2.146-.484l.695-.215q.294-.084.463.323A11.214,11.214,0,0,1,7.11-13.6a71.01,71.01,0,0,1,1.2,7.219q.252,2.22.5,6.55l.695-.737a45.113,45.113,0,0,0,4.335-5.451Q16.01-9.18,16.01-10.484a2.478,2.478,0,0,0-.947-1.568,2.513,2.513,0,0,1-.947-1.673,1.485,1.485,0,0,1,.473-1.137,1.647,1.647,0,0,1,1.169-.442Zm40.488,2.652-.526,2.546H34.112l.526-2.546ZM54.437-4.13,53.911-1.58H32.3l.526-2.546ZM85.519-15.3a2.126,2.126,0,0,1,1.81.841,3.108,3.108,0,0,1,.631,1.915q0,2.841-5.619,9.953-5.325,6.757-6.376,6.757-.316,0-.421-.862a14.544,14.544,0,0,1-.058-1.643q0-1.41-.274-4.777t-.526-4.988A19.379,19.379,0,0,0,73.655-12.7a1.929,1.929,0,0,0-1.915-1.031q-.232,0-.539.022t-.7.064v-.545q.631-.126,2.652-.568t2.146-.484l.695-.215q.294-.084.463.323a11.214,11.214,0,0,1,.421,1.526,71.009,71.009,0,0,1,1.2,7.219q.252,2.21.505,6.544l.695-.737a45.113,45.113,0,0,0,4.335-5.451q2.168-3.157,2.168-4.462a2.478,2.478,0,0,0-.947-1.568,2.513,2.513,0,0,1-.947-1.673,1.485,1.485,0,0,1,.473-1.137A1.647,1.647,0,0,1,85.519-15.3Zm39.268,9.491V-8.359h9.528v-9.533h2.546v9.533h9.533v2.546H136.86V3.7h-2.546V-5.813Zm62.606-5.68a3.1,3.1,0,0,0-.695-2.23,2.263,2.263,0,0,0-1.683-.715q-3.431,0-6.376,5.261A17.036,17.036,0,0,0,176.053-1.2a3.483,3.483,0,0,0,.726,2.451,2.376,2.376,0,0,0,1.8.768q3.177,0,6.124-5.114A17.125,17.125,0,0,0,187.393-11.493Zm-2.63-3.893a3.574,3.574,0,0,1,2.568.862,3.125,3.125,0,0,1,.754,1.221l.108.294.463-1.6a1.6,1.6,0,0,1,.148-.368.387.387,0,0,1,.294-.115l2.378-.274q.19,0,.221.073a.486.486,0,0,1-.011.263q-.084.274-.126.431t-.126.453l-1.939,7.534q-.631,2.462-1.077,4.251a32.187,32.187,0,0,0-.779,3.7.539.539,0,0,0,.157.431.573.573,0,0,0,.389.137.836.836,0,0,0,.41-.126,4.39,4.39,0,0,0,.539-.379l.358-.294q.168-.148.379-.347t.505-.495l1.3-1.347.505.442a22.055,22.055,0,0,1-3.509,3.8,4.256,4.256,0,0,1-2.526,1,1.453,1.453,0,0,1-1.21-.547,2.141,2.141,0,0,1-.431-1.368,12.03,12.03,0,0,1,.284-2.178q.284-1.42.558-2.389-.379.631-1.274,1.841a14.808,14.808,0,0,1-2.2,2.346,10.388,10.388,0,0,1-2.946,1.939,6.425,6.425,0,0,1-2.1.379,4.271,4.271,0,0,1-3.093-1.4,5.387,5.387,0,0,1-1.387-3.968q0-4.418,3.956-9.218,4.08-4.988,8.457-4.988Z" transform="translate(959.287 9166.781)" fill="#00897b"/>
      <path id="Trazado_40637" data-name="Trazado 40637" d="M7.794,1.546A2.875,2.875,0,0,1,5.664.665,2.909,2.909,0,0,1,4.8-1.455a2.844,2.844,0,0,1,.881-2.1,2.909,2.909,0,0,1,2.117-.868,2.866,2.866,0,0,1,2.1.868,2.866,2.866,0,0,1,.868,2.1A2.933,2.933,0,0,1,9.912.665a2.833,2.833,0,0,1-2.118.881Z" transform="translate(1170.23 9164.177)" fill="#00897b"/>
      <path id="Trazado_40695" data-name="Trazado 40695" d="M1.339,2.642q0-.168.022-.389A2.694,2.694,0,0,1,1.447,1.8L5.4-12.91H2.2a1.818,1.818,0,0,1,.084-.715.894.894,0,0,1,.421-.294A17.494,17.494,0,0,0,6-15.666a20.639,20.639,0,0,0,3.188-3.241l.335-.4a.5.5,0,0,1,.157-.137.405.405,0,0,1,.2-.053,1.3,1.3,0,0,1,.294.084.884.884,0,0,1,.073.263.947.947,0,0,1-.011.242l-1.2,4.588h3.431l-.254,1.409H8.645L4.858,1.253a1,1,0,0,0,.064.726.584.584,0,0,0,.568.347q.547,0,1.536-1.095Q7.588.642,8.941-1.1l.547.316-.294.442A16.3,16.3,0,0,1,6,3.431,4.364,4.364,0,0,1,3.386,4.494a1.939,1.939,0,0,1-1.559-.571,1.926,1.926,0,0,1-.488-1.281Z" transform="translate(1197.529 9166.449)" fill="#00897b"/>
      <path id="Trazado_40707" data-name="Trazado 40707" d="M4.333,2.182q2.11,0,3.657-4.2A19.681,19.681,0,0,0,9.327-8.892a5.692,5.692,0,0,0-.244-1.832,1.675,1.675,0,0,0-1.668-1.325q-2.263,0-3.834,4.883A21.253,21.253,0,0,0,2.389-.945,5.462,5.462,0,0,0,2.632.811a1.724,1.724,0,0,0,1.7,1.371ZM7.449-12.687a3.168,3.168,0,0,1,3.06,2.11,7.924,7.924,0,0,1,.608,3.215A12.167,12.167,0,0,1,8.984-.251q-2.1,3.007-4.74,3.007a3.232,3.232,0,0,1-2.6-1.309A5.6,5.6,0,0,1,.587-2.171,13.093,13.093,0,0,1,2.675-9.319q2.143-3.37,4.773-3.37Z" transform="translate(1049.761 9171.089)" fill="#00897b"/>
      <path id="Trazado_40709" data-name="Trazado 40709" d="M-.993,1.85A1.314,1.314,0,0,1-.488.682,1.8,1.8,0,0,1,.543.335a1.8,1.8,0,0,1,.505.073A2.571,2.571,0,0,1,1.6.651l.737.4a1.055,1.055,0,0,0,.284.115,1.36,1.36,0,0,0,.3.031,1.15,1.15,0,0,0,.81-.263A20.837,20.837,0,0,0,5.194-.907q.779-1.031,3.535-5.03,0-.148-.484-2.263t-.884-3.588a7.712,7.712,0,0,0-.715-1.967,1.316,1.316,0,0,0-1.179-.473,6.157,6.157,0,0,0-1.157.215q-.547.126-1.179.294l-.19-.652,2.336-.8q.905-.316,1.673-.505a5.632,5.632,0,0,1,1.316-.19,1.633,1.633,0,0,1,1.325.526,8.179,8.179,0,0,1,1.137,3.32l.442,2.4A37.408,37.408,0,0,1,14.116-13.7,8.494,8.494,0,0,1,15.9-15.3a3.037,3.037,0,0,1,1.6-.526,2.71,2.71,0,0,1,1.157.215,1.433,1.433,0,0,1,.8,1.431,1.508,1.508,0,0,1-.4,1.115,1.4,1.4,0,0,1-1.031.4,1.815,1.815,0,0,1-.442-.053,2.593,2.593,0,0,1-.442-.157l-.547-.232a4.389,4.389,0,0,0-.442-.179,1.068,1.068,0,0,0-.316-.073q-.947,0-2.63,2.451a11.815,11.815,0,0,0-1.683,2.83,16.259,16.259,0,0,0,.389,2.047q.389,1.736.852,3.672A17.474,17.474,0,0,0,13.485.167Q13.969,1.3,14.58,1.3A1.643,1.643,0,0,0,15.737.672,25.674,25.674,0,0,0,17.5-1.6l.587.356a17.619,17.619,0,0,1-1.873,2.8q-1.83,2.187-3.492,2.187a1.866,1.866,0,0,1-1.663-1.01A7.486,7.486,0,0,1,10.37.8l-1.3-5.2L4.757,1.261A13.924,13.924,0,0,1,2.805,3.239a2.773,2.773,0,0,1-1.694.505A1.928,1.928,0,0,1-.72,2.9,1.959,1.959,0,0,1-.993,1.85ZM56.6-13.071l-.526,2.546H34.469L35-13.071Zm-1.81,8.523L54.269-2H32.656l.526-2.546Zm13.973,6.4a1.314,1.314,0,0,1,.5-1.168A1.728,1.728,0,0,1,70.808.408a2.57,2.57,0,0,1,.547.242l.737.4a1.055,1.055,0,0,0,.284.115,1.36,1.36,0,0,0,.3.031,1.15,1.15,0,0,0,.81-.263A20.837,20.837,0,0,0,74.954-.907q.779-1.031,3.535-5.03,0-.148-.484-2.263t-.884-3.588a7.712,7.712,0,0,0-.715-1.967,1.316,1.316,0,0,0-1.179-.473,6.157,6.157,0,0,0-1.157.215q-.547.126-1.179.294l-.19-.652,2.336-.8q.905-.316,1.673-.505a5.632,5.632,0,0,1,1.316-.19,1.633,1.633,0,0,1,1.325.526,8.179,8.179,0,0,1,1.138,3.32l.442,2.4A37.408,37.408,0,0,1,83.877-13.7a8.493,8.493,0,0,1,1.789-1.6,3.037,3.037,0,0,1,1.6-.526,2.71,2.71,0,0,1,1.157.215,1.433,1.433,0,0,1,.8,1.431,1.508,1.508,0,0,1-.4,1.115,1.4,1.4,0,0,1-1.031.4,1.815,1.815,0,0,1-.442-.053,2.594,2.594,0,0,1-.442-.157l-.547-.232a4.389,4.389,0,0,0-.442-.179,1.068,1.068,0,0,0-.316-.073q-.947,0-2.63,2.451a11.816,11.816,0,0,0-1.683,2.83,16.259,16.259,0,0,0,.389,2.047q.389,1.736.852,3.672A17.476,17.476,0,0,0,83.246.167Q83.729,1.3,84.34,1.3A1.643,1.643,0,0,0,85.5.672,25.672,25.672,0,0,0,87.265-1.6l.589.358a17.619,17.619,0,0,1-1.873,2.8q-1.831,2.186-3.493,2.186a1.866,1.866,0,0,1-1.662-1.01A7.486,7.486,0,0,1,80.131.8l-1.3-5.2-4.31,5.661a13.924,13.924,0,0,1-1.951,1.978,2.773,2.773,0,0,1-1.694.505A1.928,1.928,0,0,1,69.041,2.9a1.959,1.959,0,0,1-.273-1.053Z" transform="translate(958.929 9219.994)" fill="#00897b"/>
      <path id="Trazado_40708" data-name="Trazado 40708" d="M4.333,2.182q2.11,0,3.657-4.2A19.681,19.681,0,0,0,9.327-8.892a5.692,5.692,0,0,0-.244-1.832,1.675,1.675,0,0,0-1.668-1.325q-2.263,0-3.834,4.883A21.253,21.253,0,0,0,2.389-.945,5.462,5.462,0,0,0,2.632.811a1.724,1.724,0,0,0,1.7,1.371ZM7.449-12.687a3.168,3.168,0,0,1,3.06,2.11,7.924,7.924,0,0,1,.608,3.215A12.167,12.167,0,0,1,8.984-.251q-2.1,3.007-4.74,3.007a3.232,3.232,0,0,1-2.6-1.309A5.6,5.6,0,0,1,.587-2.171,13.093,13.093,0,0,1,2.675-9.319q2.143-3.37,4.773-3.37Z" transform="translate(1049.761 9227.115)" fill="#00897b"/>
      <path id="Trazado_40705" data-name="Trazado 40705" d="M3.087-5.813V-8.359h9.528v-9.533h2.546v9.533h9.533v2.546H15.166V3.7H12.615V-5.813Z" transform="translate(1081.525 9219.576)" fill="#00897b"/>
      <path id="Trazado_40703" data-name="Trazado 40703" d="M15.758-15.719a2.126,2.126,0,0,1,1.81.841,3.108,3.108,0,0,1,.631,1.915q0,2.841-5.619,9.953Q7.256,3.747,6.206,3.747q-.316,0-.421-.862a14.545,14.545,0,0,1-.064-1.641q0-1.41-.274-4.777T4.921-8.521A19.378,19.378,0,0,0,3.89-13.109,1.929,1.929,0,0,0,1.976-14.14q-.232,0-.539.022t-.7.064V-14.6q.631-.126,2.652-.568t2.146-.484l.695-.215q.294-.084.463.323A11.214,11.214,0,0,1,7.11-14.02,71.01,71.01,0,0,1,8.309-6.8q.252,2.22.5,6.55l.695-.737a45.113,45.113,0,0,0,4.335-5.451Q16.01-9.595,16.01-10.9a2.478,2.478,0,0,0-.947-1.568,2.513,2.513,0,0,1-.947-1.673,1.485,1.485,0,0,1,.473-1.137,1.647,1.647,0,0,1,1.169-.442Z" transform="translate(1130.602 9219.991)" fill="#00897b"/>
      <path id="Trazado_40702" data-name="Trazado 40702" d="M4.333,2.182q2.11,0,3.657-4.2A19.681,19.681,0,0,0,9.327-8.892a5.692,5.692,0,0,0-.244-1.832,1.675,1.675,0,0,0-1.668-1.325q-2.263,0-3.834,4.883A21.253,21.253,0,0,0,2.389-.945,5.462,5.462,0,0,0,2.632.811a1.724,1.724,0,0,0,1.7,1.371ZM7.449-12.687a3.168,3.168,0,0,1,3.06,2.11,7.924,7.924,0,0,1,.608,3.215A12.167,12.167,0,0,1,8.984-.251q-2.1,3.007-4.74,3.007a3.232,3.232,0,0,1-2.6-1.309A5.6,5.6,0,0,1,.587-2.171,13.093,13.093,0,0,1,2.675-9.319q2.143-3.37,4.773-3.37Z" transform="translate(1146.731 9227.115)" fill="#00897b"/>
      <path id="Trazado_40638" data-name="Trazado 40638" d="M7.794,1.546A2.875,2.875,0,0,1,5.664.665,2.909,2.909,0,0,1,4.8-1.455a2.844,2.844,0,0,1,.881-2.1,2.909,2.909,0,0,1,2.117-.868,2.866,2.866,0,0,1,2.1.868,2.866,2.866,0,0,1,.868,2.1A2.933,2.933,0,0,1,9.912.665a2.833,2.833,0,0,1-2.118.881Z" transform="translate(1170.23 9210.509)" fill="#00897b"/>
      <path id="Trazado_40697" data-name="Trazado 40697" d="M1.339,2.642q0-.168.022-.389A2.694,2.694,0,0,1,1.447,1.8L5.4-12.91H2.2a1.818,1.818,0,0,1,.084-.715.894.894,0,0,1,.421-.294A17.494,17.494,0,0,0,6-15.666a20.639,20.639,0,0,0,3.188-3.241l.335-.4a.5.5,0,0,1,.157-.137.405.405,0,0,1,.2-.053,1.3,1.3,0,0,1,.294.084.884.884,0,0,1,.073.263.947.947,0,0,1-.011.242l-1.2,4.588h3.431l-.254,1.409H8.645L4.858,1.253a1,1,0,0,0,.064.726.584.584,0,0,0,.568.347q.547,0,1.536-1.095Q7.588.642,8.941-1.1l.547.316-.294.442A16.3,16.3,0,0,1,6,3.431,4.364,4.364,0,0,1,3.386,4.494a1.939,1.939,0,0,1-1.559-.571,1.926,1.926,0,0,1-.488-1.281ZM26.2-5.481V-8.027h9.533V-17.56h2.546v9.533h9.533v2.546H38.275V4.031H35.729V-5.481Z" transform="translate(1197.529 9219.244)" fill="#00897b"/>
      <path id="Trazado_40704" data-name="Trazado 40704" d="M.211,2.237,4.984-2.827A21.861,21.861,0,0,0,6.938-5.142,5.679,5.679,0,0,0,8.231-8.214,2.821,2.821,0,0,0,7.477-10.2a2.684,2.684,0,0,0-2.072-.818,3.149,3.149,0,0,0-2.166.829,5.762,5.762,0,0,0-1.005,1.3l-.475-.166a5.413,5.413,0,0,1,2.673-3.182,4.639,4.639,0,0,1,2.021-.453A3.392,3.392,0,0,1,9.188-11.5a3.974,3.974,0,0,1,1,2.629A4.117,4.117,0,0,1,9.42-6.5a23.282,23.282,0,0,1-2.6,2.952L2.465.8V.9h4.3a2.6,2.6,0,0,0,1.4-.3A2.714,2.714,0,0,0,9.019-.515l.364.155L8.253,2.624H.211Z" transform="translate(1268.407 9233.58)" fill="#00897b"/>
      <path id="Trazado_40698" data-name="Trazado 40698" d="M.906,2.244l.754-.011A3.365,3.365,0,0,0,2.846,1.91a1.27,1.27,0,0,0,.608-.823l3.11-11.139q.078-.276.116-.47a1.792,1.792,0,0,0,.039-.348.53.53,0,0,0-.254-.517,1.832,1.832,0,0,0-.807-.133l-1.077.055v-.343l.288-.044q.309-.055,1.641-.323t1.9-.387l.343-.078.21-.033.133.078q0,.067-.005.133a.567.567,0,0,1-.028.133L5.337,1.206q-.023.088-.039.177a.957.957,0,0,0-.016.177.539.539,0,0,0,.4.574,6.961,6.961,0,0,0,1.535.154V2.62H.906Z" transform="translate(1268.551 9205.571)" fill="#00897b"/>
      <path id="Trazado_40639" data-name="Trazado 40639" d="M1844.643,332.143h30.12" transform="translate(-587.054 8881.779)" fill="none" stroke="#00897b" stroke-width="1.786"/>
      <path id="Trazado_40640" data-name="Trazado 40640" d="M7.794,1.546A2.875,2.875,0,0,1,5.664.665,2.909,2.909,0,0,1,4.8-1.455a2.844,2.844,0,0,1,.881-2.1,2.909,2.909,0,0,1,2.117-.868,2.866,2.866,0,0,1,2.1.868,2.866,2.866,0,0,1,.868,2.1A2.933,2.933,0,0,1,9.912.665a2.833,2.833,0,0,1-2.118.881Z" transform="translate(1170.23 9210.509)" fill="#00897b"/>
      <path id="Trazado_40641" data-name="Trazado 40641" d="M7.794,1.546A2.875,2.875,0,0,1,5.664.665,2.909,2.909,0,0,1,4.8-1.455a2.844,2.844,0,0,1,.881-2.1,2.909,2.909,0,0,1,2.117-.868,2.866,2.866,0,0,1,2.1.868,2.866,2.866,0,0,1,.868,2.1A2.933,2.933,0,0,1,9.912.665a2.833,2.833,0,0,1-2.118.881Z" transform="translate(1298.446 9214.818)" fill="#00897b"/>
      <path id="Trazado_40699" data-name="Trazado 40699" d="M15.589-11.921a3.1,3.1,0,0,0-.695-2.23,2.263,2.263,0,0,0-1.683-.715q-3.431,0-6.376,5.261A17.037,17.037,0,0,0,4.248-1.633,3.483,3.483,0,0,0,4.975.819a2.376,2.376,0,0,0,1.8.768q3.177,0,6.124-5.114a17.125,17.125,0,0,0,2.69-8.394Zm-2.63-3.893a3.574,3.574,0,0,1,2.568.862,3.125,3.125,0,0,1,.754,1.221l.108.294.463-1.6A1.6,1.6,0,0,1,17-15.4a.387.387,0,0,1,.294-.115l2.378-.274q.19,0,.221.073a.487.487,0,0,1-.011.263q-.084.274-.126.431t-.126.453L17.69-7.04q-.631,2.462-1.077,4.251a32.194,32.194,0,0,0-.776,3.7.539.539,0,0,0,.157.431.573.573,0,0,0,.389.137.836.836,0,0,0,.411-.126,4.392,4.392,0,0,0,.539-.379L17.69.683q.168-.148.379-.347t.505-.495l1.3-1.347.505.442a22.054,22.054,0,0,1-3.511,3.8,4.256,4.256,0,0,1-2.526,1,1.453,1.453,0,0,1-1.21-.547,2.141,2.141,0,0,1-.431-1.368,12.027,12.027,0,0,1,.284-2.178q.284-1.42.558-2.389-.38.631-1.275,1.841a14.808,14.808,0,0,1-2.2,2.346A10.389,10.389,0,0,1,7.13,3.379a6.425,6.425,0,0,1-2.1.376,4.271,4.271,0,0,1-3.093-1.4A5.387,5.387,0,0,1,.542-1.611q0-4.418,3.956-9.218,4.082-4.988,8.46-4.988Z" transform="translate(1324.501 9217.849)" fill="#00897b"/>
      <path id="Trazado_40642" data-name="Trazado 40642" d="M7.794,1.546A2.875,2.875,0,0,1,5.664.665,2.909,2.909,0,0,1,4.8-1.455a2.844,2.844,0,0,1,.881-2.1,2.909,2.909,0,0,1,2.117-.868,2.866,2.866,0,0,1,2.1.868,2.866,2.866,0,0,1,.868,2.1A2.933,2.933,0,0,1,9.912.665a2.833,2.833,0,0,1-2.118.881Z" transform="translate(1350.164 9214.818)" fill="#00897b"/>
      <path id="Trazado_40700" data-name="Trazado 40700" d="M1.339,2.642q0-.168.022-.389A2.694,2.694,0,0,1,1.447,1.8L5.4-12.91H2.2a1.818,1.818,0,0,1,.084-.715.894.894,0,0,1,.421-.294A17.494,17.494,0,0,0,6-15.666a20.639,20.639,0,0,0,3.188-3.241l.335-.4a.5.5,0,0,1,.157-.137.405.405,0,0,1,.2-.053,1.3,1.3,0,0,1,.294.084.884.884,0,0,1,.073.263.947.947,0,0,1-.011.242l-1.2,4.588h3.431l-.254,1.409H8.645L4.858,1.253a1,1,0,0,0,.064.726.584.584,0,0,0,.568.347q.547,0,1.536-1.095Q7.588.642,8.941-1.1l.547.316-.294.442A16.3,16.3,0,0,1,6,3.431,4.364,4.364,0,0,1,3.386,4.494a1.939,1.939,0,0,1-1.559-.571,1.926,1.926,0,0,1-.488-1.281Z" transform="translate(1377.463 9217.089)" fill="#00897b"/>
      <path id="Trazado_40696" data-name="Trazado 40696" d="M.211,2.237,4.984-2.827A21.861,21.861,0,0,0,6.938-5.142,5.679,5.679,0,0,0,8.231-8.214,2.821,2.821,0,0,0,7.477-10.2a2.684,2.684,0,0,0-2.072-.818,3.149,3.149,0,0,0-2.166.829,5.762,5.762,0,0,0-1.005,1.3l-.475-.166a5.413,5.413,0,0,1,2.673-3.182,4.639,4.639,0,0,1,2.021-.453A3.392,3.392,0,0,1,9.188-11.5a3.974,3.974,0,0,1,1,2.629A4.117,4.117,0,0,1,9.42-6.5a23.282,23.282,0,0,1-2.6,2.952L2.465.8V.9h4.3a2.6,2.6,0,0,0,1.4-.3A2.714,2.714,0,0,0,9.019-.515l.364.155L8.253,2.624H.211Z" transform="translate(1393.392 9199.102)" fill="#00897b"/>
    </g>
  </g>
</svg>
