<svg xmlns="http://www.w3.org/2000/svg" xmlns:xlink="http://www.w3.org/1999/xlink" width="608" height="106" viewBox="0 0 608 106">
  <defs>
    <clipPath id="clip-path">
      <rect id="Rectángulo_5758" data-name="Rectángulo 5758" width="608" height="106" transform="translate(812 4206)" fill="#00897b" stroke="#00897b" stroke-width="1"/>
    </clipPath>
  </defs>
  <g id="Enmascarar_grupo_66" data-name="Enmascarar grupo 66" transform="translate(-812 -4206)" clip-path="url(#clip-path)">
    <g id="Grupo_16473" data-name="Grupo 16473" transform="translate(-429.526 -9451.672)">
      <path id="Trazado_40711" data-name="Trazado 40711" d="M1.927-1.656q0-.2.026-.464a3.212,3.212,0,0,1,.1-.54L6.774-20.2H2.955a2.167,2.167,0,0,1,.1-.853,1.066,1.066,0,0,1,.5-.351A20.86,20.86,0,0,0,7.49-23.486a24.61,24.61,0,0,0,3.8-3.864l.4-.477a.591.591,0,0,1,.188-.163.483.483,0,0,1,.239-.063,1.556,1.556,0,0,1,.351.1,1.055,1.055,0,0,1,.087.313,1.129,1.129,0,0,1-.013.289l-1.427,5.47h4.091l-.3,1.68H10.639L6.123-3.312a1.191,1.191,0,0,0,.076.866.7.7,0,0,0,.677.414q.653,0,1.832-1.305.671-.7,2.283-2.785l.653.376-.351.527a19.432,19.432,0,0,1-3.8,4.5A5.2,5.2,0,0,1,4.368.552,2.313,2.313,0,0,1,2.509-.128a2.3,2.3,0,0,1-.582-1.528ZM58.712-19.5l-.627,3.036H32.319l.627-3.036ZM56.554-9.335,55.931-6.3H30.162l.627-3.036Z" transform="translate(1297.576 13723.471)" fill="#00897b"/>
      <path id="Trazado_40710" data-name="Trazado 40710" d="M18.97-22.659a2.535,2.535,0,0,1,2.158,1,3.706,3.706,0,0,1,.753,2.283q0,3.388-6.7,11.868Q8.833.552,7.58.552q-.376,0-.5-1.028A17.343,17.343,0,0,1,7-2.432q0-1.682-.326-5.7t-.627-5.947a23.106,23.106,0,0,0-1.229-5.47,2.3,2.3,0,0,0-2.283-1.229q-.276,0-.642.026t-.84.076v-.653q.753-.15,3.162-.677t2.559-.577l.829-.257q.351-.1.552.385a13.371,13.371,0,0,1,.5,1.819,84.67,84.67,0,0,1,1.43,8.608q.3,2.647.6,7.81l.829-.879a53.792,53.792,0,0,0,5.168-6.5q2.585-3.763,2.585-5.319a2.955,2.955,0,0,0-1.129-1.869,3,3,0,0,1-1.129-2,1.77,1.77,0,0,1,.564-1.355,1.964,1.964,0,0,1,1.394-.527Z" transform="translate(1401.639 13697.776)" fill="#00897b"/>
      <path id="Trazado_40643" data-name="Trazado 40643" d="M2654.249,477.919H2717.2" transform="translate(-1274.451 13233.115)" fill="none" stroke="#00897b" stroke-width="2.569"/>
      <path id="Trazado_40712" data-name="Trazado 40712" d="M5.308-.527q2.515,0,4.36-5.01a23.467,23.467,0,0,0,1.594-8.194,6.787,6.787,0,0,0-.29-2.184A2,2,0,0,0,8.984-17.5q-2.7,0-4.571,5.822A25.341,25.341,0,0,0,2.991-4.255a6.512,6.512,0,0,0,.29,2.094A2.056,2.056,0,0,0,5.308-.527ZM9.024-18.256a3.777,3.777,0,0,1,3.649,2.515,9.448,9.448,0,0,1,.725,3.834,14.507,14.507,0,0,1-2.542,8.479Q8.351.158,5.2.158A3.854,3.854,0,0,1,2.107-1.4,6.672,6.672,0,0,1,.843-5.717a15.612,15.612,0,0,1,2.49-8.523q2.555-4.019,5.691-4.019Z" transform="translate(1419.625 13704.2)" fill="#00897b"/>
      <path id="Trazado_40714" data-name="Trazado 40714" d="M8.908-12.847a5.47,5.47,0,0,0,.47,2.485,2.968,2.968,0,0,0,2.892,1.53q2.259,0,4.028-2.873a11.849,11.849,0,0,0,1.769-6.336,4.15,4.15,0,0,0-.727-2.6,2.587,2.587,0,0,0-2.184-.94,5.125,5.125,0,0,0-4.529,2.986,11.529,11.529,0,0,0-1.719,5.745ZM9.786,9.535a8.222,8.222,0,0,0,4.955-1.43A4.15,4.15,0,0,0,16.71,4.693a3.444,3.444,0,0,0-1.028-2.535A7.227,7.227,0,0,0,13.9.979q-1.028-.5-3.475-1.443A15.951,15.951,0,0,0,7.6-1.4Q6.947-1.4,5.064.339A5.274,5.274,0,0,0,3.186,4.291,4.584,4.584,0,0,0,6.073,8.883a9.345,9.345,0,0,0,3.713.653ZM.4,4.944A5.443,5.443,0,0,1,1.845,1.367,15.846,15.846,0,0,1,6.424-2.007,5.139,5.139,0,0,1,5.4-2.847,1.662,1.662,0,0,1,5-4.013a3.6,3.6,0,0,1,1.429-2.36A22.985,22.985,0,0,1,9.033-8.351a8.005,8.005,0,0,1-2.76-1.711A5.348,5.348,0,0,1,4.868-13.9a7.914,7.914,0,0,1,2.955-6.3,10.943,10.943,0,0,1,7.323-2.509,9.349,9.349,0,0,1,3.864.716A4.527,4.527,0,0,1,20.867-20.8h3.388v2.008H21.705a10.27,10.27,0,0,1,.226,1,8.284,8.284,0,0,1,.076,1.285,7.531,7.531,0,0,1-3.149,6.4A11.177,11.177,0,0,1,12.07-7.779a6.145,6.145,0,0,1-.7-.037q-.326-.037-.8-.137-.376,0-1.028.727a2.056,2.056,0,0,0-.677,1.305q0,.853,5.524,2.911,5.49,2.081,5.49,6.093a6.7,6.7,0,0,1-2.761,5.285q-2.76,2.27-8.33,2.27A10.149,10.149,0,0,1,2.659,8.983,4.882,4.882,0,0,1,.4,4.944Z" transform="translate(1401.639 13750.45)" fill="#00897b"/>
      <path id="Trazado_40713" data-name="Trazado 40713" d="M-1.43-1.706A1.567,1.567,0,0,1-.829-3.1,2.148,2.148,0,0,1,.4-3.512a2.142,2.142,0,0,1,.6.087,3.065,3.065,0,0,1,.653.289l.879.477a1.258,1.258,0,0,0,.339.137,1.621,1.621,0,0,0,.364.037A1.371,1.371,0,0,0,4.2-2.8a24.846,24.846,0,0,0,1.743-2.2q.929-1.229,4.215-6,0-.176-.577-2.7T8.532-17.967a9.2,9.2,0,0,0-.853-2.346,1.569,1.569,0,0,0-1.405-.564,7.342,7.342,0,0,0-1.38.257q-.653.15-1.405.351l-.226-.777L6.047-22q1.079-.376,2-.6a6.715,6.715,0,0,1,1.569-.226,1.948,1.948,0,0,1,1.58.627,9.752,9.752,0,0,1,1.355,3.958l.527,2.861a44.6,44.6,0,0,1,3.512-4.868,10.128,10.128,0,0,1,2.133-1.907,3.622,3.622,0,0,1,1.907-.627,3.231,3.231,0,0,1,1.38.257,1.709,1.709,0,0,1,.953,1.706,1.8,1.8,0,0,1-.477,1.33,1.67,1.67,0,0,1-1.229.477,2.165,2.165,0,0,1-.527-.063,3.092,3.092,0,0,1-.527-.188l-.653-.276a5.232,5.232,0,0,0-.527-.213,1.273,1.273,0,0,0-.376-.087q-1.129,0-3.136,2.923A14.088,14.088,0,0,0,13.5-13.544a19.386,19.386,0,0,0,.464,2.441q.464,2.07,1.016,4.378a20.836,20.836,0,0,0,.853,3.011q.577,1.355,1.305,1.355a1.959,1.959,0,0,0,1.38-.753A30.612,30.612,0,0,0,20.626-5.82l.7.424a21.008,21.008,0,0,1-2.233,3.34Q16.912.552,14.93.552a2.225,2.225,0,0,1-1.982-1.2,8.926,8.926,0,0,1-.829-2.313L10.564-9.159,5.425-2.409A16.6,16.6,0,0,1,3.1-.05a3.307,3.307,0,0,1-2.02.6,2.3,2.3,0,0,1-2.184-1A2.336,2.336,0,0,1-1.43-1.706ZM67.248-19.5l-.627,3.036H40.854l.627-3.036ZM65.089-9.335,64.463-6.3H38.692l.627-3.036ZM81.751-1.706a1.567,1.567,0,0,1,.6-1.393,2.148,2.148,0,0,1,1.229-.414,2.142,2.142,0,0,1,.6.087,3.064,3.064,0,0,1,.653.289l.879.477a1.258,1.258,0,0,0,.339.137,1.621,1.621,0,0,0,.364.037,1.371,1.371,0,0,0,.966-.313,24.845,24.845,0,0,0,1.743-2.2q.929-1.229,4.215-6,0-.176-.577-2.7t-1.053-4.278a9.2,9.2,0,0,0-.853-2.346,1.569,1.569,0,0,0-1.405-.564,7.342,7.342,0,0,0-1.38.257q-.653.15-1.405.351l-.226-.777L89.227-22q1.079-.376,2-.6a6.715,6.715,0,0,1,1.569-.226,1.948,1.948,0,0,1,1.58.627,9.752,9.752,0,0,1,1.357,3.958l.527,2.861a44.6,44.6,0,0,1,3.512-4.868,10.127,10.127,0,0,1,2.133-1.907,3.622,3.622,0,0,1,1.907-.627,3.231,3.231,0,0,1,1.38.257,1.709,1.709,0,0,1,.953,1.706,1.8,1.8,0,0,1-.477,1.33,1.67,1.67,0,0,1-1.23.477,2.165,2.165,0,0,1-.527-.063,3.093,3.093,0,0,1-.527-.188l-.653-.276a5.231,5.231,0,0,0-.527-.213,1.273,1.273,0,0,0-.376-.087q-1.129,0-3.136,2.923a14.089,14.089,0,0,0-2.007,3.375,19.386,19.386,0,0,0,.464,2.441q.464,2.07,1.016,4.378a20.837,20.837,0,0,0,.853,3.011q.577,1.355,1.305,1.355a1.959,1.959,0,0,0,1.38-.753,30.611,30.611,0,0,0,2.107-2.711l.7.427a21.008,21.008,0,0,1-2.233,3.34Q100.093.552,98.111.552a2.225,2.225,0,0,1-1.982-1.2A8.926,8.926,0,0,1,95.3-2.964L93.745-9.159l-5.139,6.75A16.6,16.6,0,0,1,86.28-.05a3.307,3.307,0,0,1-2.02.6,2.3,2.3,0,0,1-2.184-1,2.336,2.336,0,0,1-.325-1.255Z" transform="translate(1504.417 13722.187)" fill="#00897b"/>
      <path id="Trazado_40715" data-name="Trazado 40715" d="M5.308-.527q2.515,0,4.36-5.01a23.467,23.467,0,0,0,1.594-8.194,6.787,6.787,0,0,0-.29-2.184A2,2,0,0,0,8.984-17.5q-2.7,0-4.571,5.822A25.341,25.341,0,0,0,2.991-4.255a6.512,6.512,0,0,0,.29,2.094A2.056,2.056,0,0,0,5.308-.527ZM9.024-18.256a3.777,3.777,0,0,1,3.649,2.515,9.448,9.448,0,0,1,.725,3.834,14.507,14.507,0,0,1-2.542,8.479Q8.351.158,5.2.158A3.854,3.854,0,0,1,2.107-1.4,6.672,6.672,0,0,1,.843-5.717a15.612,15.612,0,0,1,2.49-8.523q2.555-4.019,5.691-4.019Z" transform="translate(1612.334 13731.18)" fill="#00897b"/>
      <path id="Trazado_40716" data-name="Trazado 40716" d="M4.441-11.342v-3.036H15.8V-25.745h3.036v11.367H30.205v3.036H18.844V0H15.8V-11.342Z" transform="translate(1634.175 13722.187)" fill="#00897b"/>
      <path id="Trazado_40717" data-name="Trazado 40717" d="M.3-.461,5.995-6.5A26.067,26.067,0,0,0,8.325-9.26a6.772,6.772,0,0,0,1.542-3.663,3.363,3.363,0,0,0-.9-2.372A3.2,3.2,0,0,0,6.5-16.27a3.755,3.755,0,0,0-2.582.988,6.871,6.871,0,0,0-1.2,1.555l-.567-.2a6.454,6.454,0,0,1,3.187-3.794,5.532,5.532,0,0,1,2.41-.54,4.044,4.044,0,0,1,3.261,1.413A4.738,4.738,0,0,1,12.2-13.711a4.909,4.909,0,0,1-.916,2.826,27.762,27.762,0,0,1-3.1,3.52l-5.19,5.19v.118H8.114a3.1,3.1,0,0,0,1.67-.356,3.236,3.236,0,0,0,1.021-1.331l.434.185L9.892,0H.3Z" transform="translate(1694.557 13737.603)" fill="#00897b"/>
      <path id="Trazado_40718" data-name="Trazado 40718" d="M1.3-.448l.9-.013A4.012,4.012,0,0,0,3.617-.847a1.515,1.515,0,0,0,.725-.982L8.049-15.11q.092-.329.139-.56a2.136,2.136,0,0,0,.046-.415.632.632,0,0,0-.3-.617,2.184,2.184,0,0,0-.962-.158l-1.285.066V-17.2l.343-.053q.369-.066,1.957-.385t2.26-.461l.409-.093.251-.04.158.092q0,.08-.006.158a.676.676,0,0,1-.033.158L6.587-1.686q-.027.105-.046.211a1.141,1.141,0,0,0-.019.211A.642.642,0,0,0,7-.579,8.3,8.3,0,0,0,8.826-.4V0H1.3Z" transform="translate(1694.557 13704.2)" fill="#00897b"/>
      <path id="Trazado_40644" data-name="Trazado 40644" d="M2654.249,477.919h35.915" transform="translate(-972.54 13233.115)" fill="none" stroke="#00897b" stroke-width="2.569"/>
      <path id="Trazado_40645" data-name="Trazado 40645" d="M2654.249,477.919h35.915" transform="translate(-907.018 13233.115)" fill="none" stroke="#00897b" stroke-width="2.569"/>
      <path id="Trazado_40719" data-name="Trazado 40719" d="M18.97-22.659a2.535,2.535,0,0,1,2.158,1,3.706,3.706,0,0,1,.753,2.283q0,3.388-6.7,11.868Q8.833.552,7.58.552q-.376,0-.5-1.028A17.343,17.343,0,0,1,7-2.432q0-1.682-.326-5.7t-.627-5.947a23.106,23.106,0,0,0-1.229-5.47,2.3,2.3,0,0,0-2.283-1.229q-.276,0-.642.026t-.84.076v-.653q.753-.15,3.162-.677t2.559-.577l.829-.257q.351-.1.552.385a13.371,13.371,0,0,1,.5,1.819,84.67,84.67,0,0,1,1.43,8.608q.3,2.647.6,7.81l.829-.879a53.792,53.792,0,0,0,5.168-6.5q2.585-3.763,2.585-5.319a2.955,2.955,0,0,0-1.129-1.869,3,3,0,0,1-1.129-2,1.77,1.77,0,0,1,.564-1.355,1.964,1.964,0,0,1,1.394-.527Z" transform="translate(1753.655 13695.207)" fill="#00897b"/>
      <path id="Trazado_40720" data-name="Trazado 40720" d="M8.908-12.847a5.47,5.47,0,0,0,.47,2.485,2.968,2.968,0,0,0,2.892,1.53q2.259,0,4.028-2.873a11.849,11.849,0,0,0,1.769-6.336,4.15,4.15,0,0,0-.727-2.6,2.587,2.587,0,0,0-2.184-.94,5.125,5.125,0,0,0-4.529,2.986,11.529,11.529,0,0,0-1.719,5.745ZM9.786,9.535a8.222,8.222,0,0,0,4.955-1.43A4.15,4.15,0,0,0,16.71,4.693a3.444,3.444,0,0,0-1.028-2.535A7.227,7.227,0,0,0,13.9.979q-1.028-.5-3.475-1.443A15.951,15.951,0,0,0,7.6-1.4Q6.947-1.4,5.064.339A5.274,5.274,0,0,0,3.186,4.291,4.584,4.584,0,0,0,6.073,8.883a9.345,9.345,0,0,0,3.713.653ZM.4,4.944A5.443,5.443,0,0,1,1.845,1.367,15.846,15.846,0,0,1,6.424-2.007,5.139,5.139,0,0,1,5.4-2.847,1.662,1.662,0,0,1,5-4.013a3.6,3.6,0,0,1,1.429-2.36A22.985,22.985,0,0,1,9.033-8.351a8.005,8.005,0,0,1-2.76-1.711A5.348,5.348,0,0,1,4.868-13.9a7.914,7.914,0,0,1,2.955-6.3,10.943,10.943,0,0,1,7.323-2.509,9.349,9.349,0,0,1,3.864.716A4.527,4.527,0,0,1,20.867-20.8h3.388v2.008H21.705a10.27,10.27,0,0,1,.226,1,8.284,8.284,0,0,1,.076,1.285,7.531,7.531,0,0,1-3.149,6.4A11.177,11.177,0,0,1,12.07-7.779a6.145,6.145,0,0,1-.7-.037q-.326-.037-.8-.137-.376,0-1.028.727a2.056,2.056,0,0,0-.677,1.305q0,.853,5.524,2.911,5.49,2.081,5.49,6.093a6.7,6.7,0,0,1-2.761,5.285q-2.76,2.27-8.33,2.27A10.149,10.149,0,0,1,2.659,8.983,4.882,4.882,0,0,1,.4,4.944Z" transform="translate(1753.655 13753.02)" fill="#00897b"/>
      <path id="Trazado_40722" data-name="Trazado 40722" d="M.3-.461,5.995-6.5A26.067,26.067,0,0,0,8.325-9.26a6.772,6.772,0,0,0,1.542-3.663,3.363,3.363,0,0,0-.9-2.372A3.2,3.2,0,0,0,6.5-16.27a3.755,3.755,0,0,0-2.582.988,6.871,6.871,0,0,0-1.2,1.555l-.567-.2a6.454,6.454,0,0,1,3.187-3.794,5.532,5.532,0,0,1,2.41-.54,4.044,4.044,0,0,1,3.261,1.413A4.738,4.738,0,0,1,12.2-13.711a4.909,4.909,0,0,1-.916,2.826,27.762,27.762,0,0,1-3.1,3.52l-5.19,5.19v.118H8.114a3.1,3.1,0,0,0,1.67-.356,3.236,3.236,0,0,0,1.021-1.331l.434.185L9.892,0H.3Z" transform="translate(1779.349 13675.936)" fill="#00897b"/>
      <path id="Trazado_40721" data-name="Trazado 40721" d="M5.308-.527q2.515,0,4.36-5.01a23.467,23.467,0,0,0,1.594-8.194,6.787,6.787,0,0,0-.29-2.184A2,2,0,0,0,8.984-17.5q-2.7,0-4.571,5.822A25.341,25.341,0,0,0,2.991-4.255a6.512,6.512,0,0,0,.29,2.094A2.056,2.056,0,0,0,5.308-.527ZM9.024-18.256a3.777,3.777,0,0,1,3.649,2.515,9.448,9.448,0,0,1,.725,3.834,14.507,14.507,0,0,1-2.542,8.479Q8.351.158,5.2.158A3.854,3.854,0,0,1,2.107-1.4,6.672,6.672,0,0,1,.843-5.717a15.612,15.612,0,0,1,2.49-8.523q2.555-4.019,5.691-4.019Z" transform="translate(1778.064 13701.631)" fill="#00897b"/>
    </g>
  </g>
</svg>
