<svg xmlns="http://www.w3.org/2000/svg" xmlns:xlink="http://www.w3.org/1999/xlink" width="608" height="106" viewBox="0 0 608 106">
  <defs>
    <clipPath id="clip-path">
      <rect id="Rectángulo_5759" data-name="Rectángulo 5759" width="608" height="106" transform="translate(812 4412)" fill="#00897b" stroke="#00897b" stroke-width="1"/>
    </clipPath>
  </defs>
  <g id="Enmascarar_grupo_67" data-name="Enmascarar grupo 67" transform="translate(-812 -4412)" clip-path="url(#clip-path)">
    <g id="Grupo_16474" data-name="Grupo 16474" transform="translate(-917.106 -14761.148)">
      <path id="Trazado_40731" data-name="Trazado 40731" d="M-1.952-8.407A1.686,1.686,0,0,1-1.3-9.9,2.31,2.31,0,0,1,.017-10.35a2.3,2.3,0,0,1,.648.094,3.3,3.3,0,0,1,.7.311l.945.513a1.353,1.353,0,0,0,.365.148,1.744,1.744,0,0,0,.391.04,1.474,1.474,0,0,0,1.039-.337,26.72,26.72,0,0,0,1.875-2.361q1-1.322,4.533-6.45,0-.189-.62-2.9T8.762-25.9a9.89,9.89,0,0,0-.917-2.523,1.687,1.687,0,0,0-1.512-.607,7.9,7.9,0,0,0-1.484.276q-.7.162-1.512.377l-.243-.836,3-1.025q1.161-.4,2.146-.648a7.222,7.222,0,0,1,1.687-.243,2.1,2.1,0,0,1,1.7.674,10.488,10.488,0,0,1,1.458,4.257l.566,3.077a47.971,47.971,0,0,1,3.778-5.235,10.892,10.892,0,0,1,2.294-2.05,3.9,3.9,0,0,1,2.05-.674,3.475,3.475,0,0,1,1.484.276,1.838,1.838,0,0,1,1.025,1.835,1.934,1.934,0,0,1-.513,1.43,1.8,1.8,0,0,1-1.322.513,2.328,2.328,0,0,1-.566-.068,3.326,3.326,0,0,1-.566-.2l-.7-.3a5.627,5.627,0,0,0-.566-.229,1.369,1.369,0,0,0-.4-.094q-1.214,0-3.373,3.143a15.151,15.151,0,0,0-2.158,3.63,20.849,20.849,0,0,0,.5,2.625q.5,2.226,1.093,4.709a22.408,22.408,0,0,0,.917,3.239q.62,1.458,1.4,1.458a2.107,2.107,0,0,0,1.484-.81,32.922,32.922,0,0,0,2.267-2.914l.753.456a22.593,22.593,0,0,1-2.4,3.592q-2.346,2.8-4.478,2.8a2.393,2.393,0,0,1-2.132-1.295A9.6,9.6,0,0,1,12.62-9.76l-1.672-6.662L5.421-9.163a17.855,17.855,0,0,1-2.5,2.537,3.556,3.556,0,0,1-2.172.648A2.472,2.472,0,0,1-1.6-7.057a2.512,2.512,0,0,1-.35-1.35Z" transform="translate(1795.249 19251.523)" fill="#00897b"/>
      <path id="Trazado_40728" data-name="Trazado 40728" d="M6.055-20.272v-3.265H18.273V-35.762h3.265v12.225H33.763v3.265H21.545v12.2H18.273v-12.2ZM72.79-32.443a2.726,2.726,0,0,1,2.321,1.079,3.986,3.986,0,0,1,.81,2.455q0,3.643-7.205,12.764Q61.888-7.481,60.54-7.481q-.4,0-.54-1.105a18.653,18.653,0,0,1-.082-2.1q0-1.809-.351-6.126t-.673-6.4A24.85,24.85,0,0,0,57.572-29.1a2.473,2.473,0,0,0-2.455-1.322q-.3,0-.691.028t-.9.082v-.7q.81-.162,3.4-.728t2.752-.62l.891-.276q.377-.108.594.415a14.381,14.381,0,0,1,.54,1.956,91.06,91.06,0,0,1,1.538,9.257q.323,2.834.648,8.392l.891-.945a57.85,57.85,0,0,0,5.557-6.982q2.78-4.048,2.78-5.722a3.178,3.178,0,0,0-1.214-2.01,3.222,3.222,0,0,1-1.215-2.146,1.9,1.9,0,0,1,.607-1.458,2.113,2.113,0,0,1,1.5-.566ZM92.814-9.856q0-.216.028-.5a3.454,3.454,0,0,1,.108-.58L98.023-29.8h-4.1a2.329,2.329,0,0,1,.108-.917,1.147,1.147,0,0,1,.54-.377,22.434,22.434,0,0,0,4.224-2.24,26.468,26.468,0,0,0,4.088-4.156l.432-.513a.635.635,0,0,1,.2-.175.52.52,0,0,1,.257-.068,1.673,1.673,0,0,1,.377.108,1.134,1.134,0,0,1,.094.337,1.214,1.214,0,0,1-.014.311l-1.536,5.883h4.4l-.323,1.809h-4.587L97.321-11.637a1.281,1.281,0,0,0,.082.931.749.749,0,0,0,.728.445q.7,0,1.97-1.4.728-.756,2.455-3l.7.4-.377.566a20.9,20.9,0,0,1-4.09,4.844,5.6,5.6,0,0,1-3.359,1.364,2.487,2.487,0,0,1-2-.732A2.47,2.47,0,0,1,92.814-9.856Z" transform="translate(1841.916 19253.025)" fill="#00897b"/>
      <path id="Trazado_40729" data-name="Trazado 40729" d="M5.948-5.822q2.705,0,4.689-5.389a25.238,25.238,0,0,0,1.715-8.812,7.3,7.3,0,0,0-.312-2.349,2.149,2.149,0,0,0-2.139-1.7q-2.9,0-4.916,6.262a27.254,27.254,0,0,0-1.53,7.978,7,7,0,0,0,.312,2.252,2.211,2.211,0,0,0,2.18,1.757Zm4-19.067a4.062,4.062,0,0,1,3.924,2.705,10.161,10.161,0,0,1,.779,4.123,15.6,15.6,0,0,1-2.734,9.119Q9.22-5.085,5.835-5.085a4.145,4.145,0,0,1-3.33-1.679,7.175,7.175,0,0,1-1.36-4.64A16.79,16.79,0,0,1,3.823-20.57q2.748-4.322,6.121-4.322Z" transform="translate(1913.42 19258.494)" fill="#00897b"/>
      <path id="Trazado_40646" data-name="Trazado 40646" d="M3618.522,651.544h67.7" transform="translate(-1645.45 18580.029)" fill="none" stroke="#00897b" stroke-width="3.503"/>
      <path id="Trazado_40727" data-name="Trazado 40727" d="M.413-5.753l6.121-6.494a28.034,28.034,0,0,0,2.506-2.969A7.283,7.283,0,0,0,10.7-19.155a3.617,3.617,0,0,0-.967-2.551,3.442,3.442,0,0,0-2.657-1.049A4.039,4.039,0,0,0,4.3-21.692,7.389,7.389,0,0,0,3.008-20.02L2.4-20.233a6.942,6.942,0,0,1,3.428-4.08,5.95,5.95,0,0,1,2.592-.58,4.35,4.35,0,0,1,3.507,1.52A5.1,5.1,0,0,1,13.208-20a5.279,5.279,0,0,1-.985,3.04,29.857,29.857,0,0,1-3.337,3.786L3.3-7.594v.127h5.51a3.337,3.337,0,0,0,1.8-.383,3.48,3.48,0,0,0,1.1-1.431l.467.2L10.726-5.257H.413Z" transform="translate(2076.61 19265.404)" fill="#00897b"/>
      <path id="Trazado_40723" data-name="Trazado 40723" d="M1.778-5.731l.967-.014a4.315,4.315,0,0,0,1.52-.415,1.629,1.629,0,0,0,.779-1.056L9.032-21.5q.1-.354.149-.6a2.3,2.3,0,0,0,.05-.446A.68.68,0,0,0,8.9-23.21a2.349,2.349,0,0,0-1.035-.17l-1.382.07v-.439l.369-.057q.4-.07,2.1-.415t2.43-.5l.439-.1.269-.043.17.1q0,.086-.007.17a.727.727,0,0,1-.036.17L7.459-7.061q-.029.113-.05.227a1.227,1.227,0,0,0-.021.227.691.691,0,0,0,.51.736,8.927,8.927,0,0,0,1.969.2v.426H1.778Z" transform="translate(2076.322 19229.475)" fill="#00897b"/>
      <path id="Trazado_40647" data-name="Trazado 40647" d="M3618.522,651.544h38.625" transform="translate(-1555.641 18580.029)" fill="none" stroke="#00897b" stroke-width="3.503"/>
      <path id="Trazado_40724" data-name="Trazado 40724" d="M9.7-21.891a5.883,5.883,0,0,0,.506,2.672,3.192,3.192,0,0,0,3.11,1.646q2.429,0,4.332-3.089a12.743,12.743,0,0,0,1.9-6.814,4.463,4.463,0,0,0-.782-2.792,2.783,2.783,0,0,0-2.349-1.011,5.512,5.512,0,0,0-4.87,3.211A12.4,12.4,0,0,0,9.7-21.891ZM10.64,2.181A8.843,8.843,0,0,0,15.969.643a4.463,4.463,0,0,0,2.118-3.67,3.7,3.7,0,0,0-1.105-2.726,7.772,7.772,0,0,0-1.916-1.268q-1.105-.54-3.737-1.552a17.155,17.155,0,0,0-3.04-1.011q-.7,0-2.726,1.875a5.672,5.672,0,0,0-2.02,4.25,4.93,4.93,0,0,0,3.1,4.938,10.05,10.05,0,0,0,3.993.7ZM.548-2.758A5.854,5.854,0,0,1,2.1-6.6a17.042,17.042,0,0,1,4.924-3.628,5.527,5.527,0,0,1-1.105-.9,1.788,1.788,0,0,1-.431-1.255,3.869,3.869,0,0,1,1.536-2.538A24.72,24.72,0,0,1,9.83-17.055,8.609,8.609,0,0,1,6.862-18.9a5.752,5.752,0,0,1-1.512-4.128,8.511,8.511,0,0,1,3.178-6.77,11.769,11.769,0,0,1,7.876-2.7,10.054,10.054,0,0,1,4.156.77,4.869,4.869,0,0,1,2,1.282H26.2v2.16H23.459A11.045,11.045,0,0,1,23.7-27.2a8.909,8.909,0,0,1,.082,1.382A8.1,8.1,0,0,1,20.4-18.94a12.021,12.021,0,0,1-7.3,2.5,6.608,6.608,0,0,1-.756-.04q-.351-.04-.864-.148-.4,0-1.105.782a2.211,2.211,0,0,0-.728,1.4q0,.917,5.941,3.131,5.9,2.238,5.9,6.553A7.205,7.205,0,0,1,18.52.926Q15.552,3.367,9.561,3.367A10.915,10.915,0,0,1,2.976,1.586,5.25,5.25,0,0,1,.548-2.758Zm29.274-7.1q0-.216.028-.5a3.454,3.454,0,0,1,.108-.58L35.031-29.8h-4.1a2.329,2.329,0,0,1,.108-.917,1.147,1.147,0,0,1,.54-.377,22.434,22.434,0,0,0,4.224-2.24,26.468,26.468,0,0,0,4.088-4.156L40.32-38a.636.636,0,0,1,.2-.175.519.519,0,0,1,.257-.068,1.673,1.673,0,0,1,.377.108,1.134,1.134,0,0,1,.094.337,1.215,1.215,0,0,1-.014.311L39.7-31.6h4.4L43.777-29.8H39.19L34.334-11.636a1.281,1.281,0,0,0,.082.931.749.749,0,0,0,.728.445q.7,0,1.97-1.4.728-.756,2.455-3l.7.4-.377.566A20.9,20.9,0,0,1,35.8-8.844,5.6,5.6,0,0,1,32.447-7.48a2.487,2.487,0,0,1-2-.732,2.47,2.47,0,0,1-.626-1.643Z" transform="translate(2120.795 19253.025)" fill="#00897b"/>
      <path id="Trazado_40725" data-name="Trazado 40725" d="M.413-5.753l6.121-6.494a28.034,28.034,0,0,0,2.506-2.969A7.283,7.283,0,0,0,10.7-19.155a3.617,3.617,0,0,0-.967-2.551,3.442,3.442,0,0,0-2.657-1.049A4.039,4.039,0,0,0,4.3-21.692,7.389,7.389,0,0,0,3.008-20.02L2.4-20.233a6.942,6.942,0,0,1,3.428-4.08,5.95,5.95,0,0,1,2.592-.58,4.35,4.35,0,0,1,3.507,1.52A5.1,5.1,0,0,1,13.208-20a5.279,5.279,0,0,1-.985,3.04,29.857,29.857,0,0,1-3.337,3.786L3.3-7.594v.127h5.51a3.337,3.337,0,0,0,1.8-.383,3.48,3.48,0,0,0,1.1-1.431l.467.2L10.726-5.257H.413Z" transform="translate(2176.091 19217.047)" fill="#00897b"/>
      <path id="Trazado_40726" data-name="Trazado 40726" d="M29.99-20.219v3.778H2.086v-3.778Zm0-11.145v3.778H2.086v-3.778ZM58.649-10.937q3.967,0,5.451-4.345a40.922,40.922,0,0,0,1.484-12.573,49.083,49.083,0,0,0-.891-10.47q-1.673-7.286-6.26-7.286t-6.288,7.5a50.11,50.11,0,0,0-.891,10.524,41.9,41.9,0,0,0,.917,9.8Q53.9-10.937,58.649-10.937Zm-.082-36.134q6.206,0,9.634,6.5a25.912,25.912,0,0,1,2.726,12.09,30.237,30.237,0,0,1-1.68,10.119Q66.1-9.425,58.326-9.425a10.336,10.336,0,0,1-8.743-4.836q-3.671-5.148-3.671-14a27.016,27.016,0,0,1,2.455-11.982Q51.687-47.071,58.568-47.071Z" transform="translate(2201.99 19254.889)" fill="#00897b"/>
      <path id="Trazado_40730" data-name="Trazado 40730" d="M5.948-5.822q2.705,0,4.689-5.389a25.238,25.238,0,0,0,1.715-8.812,7.3,7.3,0,0,0-.312-2.349,2.149,2.149,0,0,0-2.139-1.7q-2.9,0-4.916,6.262a27.254,27.254,0,0,0-1.53,7.978,7,7,0,0,0,.312,2.252,2.211,2.211,0,0,0,2.18,1.757Zm4-19.067a4.062,4.062,0,0,1,3.924,2.705,10.161,10.161,0,0,1,.779,4.123,15.6,15.6,0,0,1-2.734,9.119Q9.22-5.085,5.835-5.085a4.145,4.145,0,0,1-3.33-1.679,7.175,7.175,0,0,1-1.36-4.64A16.79,16.79,0,0,1,3.823-20.57q2.748-4.322,6.121-4.322Z" transform="translate(1819.466 19258.494)" fill="#00897b"/>
    </g>
  </g>
</svg>
