<svg xmlns="http://www.w3.org/2000/svg" width="610" height="372" viewBox="0 0 610 372">
  <g id="Grupo_63760" data-name="Grupo 63760" transform="translate(-810 -5319)">
    <rect id="Rectángulo_5413" data-name="Rectángulo 5413" width="610" height="372" transform="translate(810 5319)" fill="#fdd835" opacity="0.2"/>
    <g id="Grupo_59641" data-name="Grupo 59641" transform="translate(-896.278 4399.134)">
      <g id="Grupo_63759" data-name="Grupo 63759">
        <g id="Grupo_59582" data-name="Grupo 59582">
          <g id="Grupo_59580" data-name="Grupo 59580">
            <rect id="Rectángulo_5392" data-name="Rectángulo 5392" width="3" height="260.711" transform="translate(1829.5 959.289)" fill="#00897b"/>
          </g>
          <g id="Grupo_59581" data-name="Grupo 59581">
            <path id="Trazado_103175" data-name="Trazado 103175" d="M1826.642,962.261,1831,946l4.358,16.261Z" fill="#00897b"/>
          </g>
        </g>
        <g id="Grupo_59585" data-name="Grupo 59585">
          <g id="Grupo_59583" data-name="Grupo 59583">
            <rect id="Rectángulo_5393" data-name="Rectángulo 5393" width="374.711" height="3" transform="translate(1821 1206.5)" fill="#00897b"/>
          </g>
          <g id="Grupo_59584" data-name="Grupo 59584">
            <path id="Trazado_103176" data-name="Trazado 103176" d="M2192.739,1212.358,2209,1208l-16.261-4.358Z" fill="#00897b"/>
          </g>
        </g>
        <g id="Grupo_59586" data-name="Grupo 59586">
          <path id="Trazado_103177" data-name="Trazado 103177" d="M1832.308,1208.735l-2.616-1.47a557.471,557.471,0,0,1,63.523-87.192c22.522-25.079,45.185-44.765,67.36-58.514,27.838-17.26,54.995-25.168,80.72-23.507,60.878,3.932,113.931,60.923,157.684,169.386l-2.782,1.124c-43.285-107.3-95.465-163.663-155.092-167.516-56.912-3.687-110.609,42.012-145.621,80.991A554.129,554.129,0,0,0,1832.308,1208.735Z" fill="#00897b"/>
        </g>
        <g id="Grupo_59589" data-name="Grupo 59589">
          <g id="Grupo_59587" data-name="Grupo 59587">
            <rect id="Rectángulo_5394" data-name="Rectángulo 5394" width="141.197" height="3.001" transform="matrix(0.55, -0.835, 0.835, 0.55, 1829.26, 1204.683)" fill="#00897b"/>
          </g>
          <g id="Grupo_59588" data-name="Grupo 59588">
            <path id="Trazado_103178" data-name="Trazado 103178" d="M1902.914,1087.681,1915.5,1076.5l-5.308,15.976Z" fill="#00897b"/>
          </g>
        </g>
        <g id="Grupo_59592" data-name="Grupo 59592">
          <g id="Grupo_59590" data-name="Grupo 59590">
            <rect id="Rectángulo_5395" data-name="Rectángulo 5395" width="54.187" height="3.001" transform="translate(1979.543 1052.343) rotate(-39.586)" fill="#00897b"/>
          </g>
          <g id="Grupo_59591" data-name="Grupo 59591">
            <path id="Trazado_103179" data-name="Trazado 103179" d="M2017.191,1017.5l15.309-7-9.755,13.721Z" fill="#00897b"/>
          </g>
        </g>
        <g id="Grupo_59596" data-name="Grupo 59596">
          <g id="Grupo_59593" data-name="Grupo 59593">
            <path id="Trazado_103180" data-name="Trazado 103180" d="M2018.211,1055H1979v-31.211h3V1052h36.211Z" fill="#00897b"/>
          </g>
          <g id="Grupo_59594" data-name="Grupo 59594">
            <path id="Trazado_103181" data-name="Trazado 103181" d="M2015.239,1049.142l16.261,4.358-16.261,4.358Z" fill="#00897b"/>
          </g>
          <g id="Grupo_59595" data-name="Grupo 59595">
            <path id="Trazado_103182" data-name="Trazado 103182" d="M1984.858,1026.761,1980.5,1010.5l-4.358,16.261Z" fill="#00897b"/>
          </g>
        </g>
        <g id="Grupo_59597" data-name="Grupo 59597">
          <path id="Trazado_103183" data-name="Trazado 103183" d="M1835.759,1097l-5.229-19.513L1825.3,1097Z" fill="#00897b"/>
        </g>
        <g id="Grupo_59598" data-name="Grupo 59598">
          <path id="Trazado_103184" data-name="Trazado 103184" d="M1896,1213.473l19.513-5.229L1896,1203.014Z" fill="#00897b"/>
        </g>
        <g id="Grupo_59604" data-name="Grupo 59604">
          <g id="Grupo_59599" data-name="Grupo 59599">
            <rect id="Rectángulo_5396" data-name="Rectángulo 5396" width="1" height="0.75" transform="translate(1831 1076.625)" fill="#4dd0e1"/>
          </g>
          <g id="Grupo_59600" data-name="Grupo 59600">
            <path id="Trazado_103185" data-name="Trazado 103185" d="M1912,1077.375h-2v-.75h2Zm-4,0h-2v-.75h2Zm-4,0h-2v-.75h2Zm-4,0h-2v-.75h2Zm-4,0h-2v-.75h2Zm-4,0h-2v-.75h2Zm-4,0h-2v-.75h2Zm-4,0h-2v-.75h2Zm-4,0h-2v-.75h2Zm-4,0h-2v-.75h2Zm-4,0h-2v-.75h2Zm-4,0h-2v-.75h2Zm-4,0h-2v-.75h2Zm-4,0h-2v-.75h2Zm-4,0h-2v-.75h2Zm-4,0h-2v-.75h2Zm-4,0h-2v-.75h2Zm-4,0h-2v-.75h2Zm-4,0h-2v-.75h2Zm-4,0h-2v-.75h2Z" fill="#4dd0e1"/>
          </g>
          <g id="Grupo_59601" data-name="Grupo 59601">
            <path id="Trazado_103186" data-name="Trazado 103186" d="M1915.375,1078h-.75v-.625H1914v-.75h1.375Z" fill="#4dd0e1"/>
          </g>
          <g id="Grupo_59602" data-name="Grupo 59602">
            <path id="Trazado_103187" data-name="Trazado 103187" d="M1915.375,1205.015h-.75v-1.985h.75Zm0-3.969h-.75v-1.984h.75Zm0-3.97h-.75v-1.984h.75Zm0-3.969h-.75v-1.984h.75Zm0-3.968h-.75v-1.986h.75Zm0-3.97h-.75v-1.984h.75Zm0-3.969h-.75v-1.985h.75Zm0-3.97h-.75v-1.984h.75Zm0-3.968h-.75v-1.986h.75Zm0-3.97h-.75v-1.984h.75Zm0-3.969h-.75v-1.985h.75Zm0-3.969h-.75v-1.985h.75Zm0-3.969h-.75V1155.4h.75Zm0-3.97h-.75v-1.984h.75Zm0-3.969h-.75v-1.985h.75Zm0-3.969h-.75v-1.985h.75Zm0-3.969h-.75v-1.986h.75Zm0-3.97h-.75v-1.984h.75Zm0-3.969h-.75v-1.985h.75Zm0-3.969h-.75v-1.985h.75Zm0-3.969h-.75v-1.985h.75Zm0-3.97h-.75v-1.984h.75Zm0-3.969h-.75v-1.985h.75Zm0-3.969h-.75v-1.985h.75Zm0-3.969h-.75v-1.985h.75Zm0-3.97h-.75V1103.8h.75Zm0-3.969h-.75v-1.985h.75Zm0-3.969h-.75v-1.985h.75Zm0-3.969h-.75v-1.985h.75Zm0-3.97h-.75v-1.984h.75Zm0-3.969h-.75v-1.985h.75Zm0-3.969h-.75v-1.985h.75Z" fill="#4dd0e1"/>
          </g>
          <g id="Grupo_59603" data-name="Grupo 59603">
            <rect id="Rectángulo_5397" data-name="Rectángulo 5397" width="0.75" height="1" transform="translate(1914.625 1207)" fill="#4dd0e1"/>
          </g>
        </g>
        <g id="Grupo_59610" data-name="Grupo 59610">
          <g id="Grupo_59605" data-name="Grupo 59605">
            <rect id="Rectángulo_5398" data-name="Rectángulo 5398" width="1" height="0.75" transform="translate(1981 1010.625)" fill="#4dd0e1"/>
          </g>
          <g id="Grupo_59606" data-name="Grupo 59606">
            <path id="Trazado_103188" data-name="Trazado 103188" d="M2028.08,1011.375h-1.92v-.75h1.92Zm-3.84,0h-1.92v-.75h1.92Zm-3.84,0h-1.921v-.75h1.921Zm-3.84,0h-1.92v-.75h1.92Zm-3.84,0h-1.92v-.75h1.92Zm-3.84,0h-1.92v-.75h1.92Zm-3.84,0h-1.92v-.75h1.92Zm-3.84,0h-1.92v-.75h1.92Zm-3.84,0h-1.921v-.75h1.921Zm-3.84,0h-1.92v-.75h1.92Zm-3.84,0h-1.92v-.75h1.92Zm-3.84,0h-1.92v-.75h1.92Z" fill="#4dd0e1"/>
          </g>
          <g id="Grupo_59607" data-name="Grupo 59607">
            <path id="Trazado_103189" data-name="Trazado 103189" d="M2031.375,1012h-.75v-.625H2030v-.75h1.375Z" fill="#4dd0e1"/>
          </g>
          <g id="Grupo_59608" data-name="Grupo 59608">
            <path id="Trazado_103190" data-name="Trazado 103190" d="M2031.375,1051.048h-.75v-1.953h.75Zm0-3.905h-.75v-1.953h.75Zm0-3.9h-.75v-1.953h.75Zm0-3.905h-.75v-1.952h.75Zm0-3.9h-.75v-1.953h.75Zm0-3.906h-.75v-1.952h.75Zm0-3.9h-.75v-1.953h.75Zm0-3.905h-.75v-1.952h.75Zm0-3.9h-.75v-1.954h.75Zm0-3.906h-.75v-1.952h.75Z" fill="#4dd0e1"/>
          </g>
          <g id="Grupo_59609" data-name="Grupo 59609">
            <rect id="Rectángulo_5399" data-name="Rectángulo 5399" width="0.75" height="1" transform="translate(2030.625 1053)" fill="#4dd0e1"/>
          </g>
        </g>
        <g id="Grupo_59614" data-name="Grupo 59614">
          <g id="Grupo_59611" data-name="Grupo 59611">
            <rect id="Rectángulo_5400" data-name="Rectángulo 5400" width="1" height="156.824" transform="translate(2039 1045.088)" fill="#00897b"/>
          </g>
          <g id="Grupo_59612" data-name="Grupo 59612">
            <path id="Trazado_103191" data-name="Trazado 103191" d="M2037.007,1045.817l2.493-4.317,2.493,4.317Z" fill="#00897b"/>
          </g>
          <g id="Grupo_59613" data-name="Grupo 59613">
            <path id="Trazado_103192" data-name="Trazado 103192" d="M2037.007,1201.183l2.493,4.317,2.493-4.317Z" fill="#00897b"/>
          </g>
        </g>
        <g id="Grupo_59618" data-name="Grupo 59618">
          <g id="Grupo_59615" data-name="Grupo 59615">
            <rect id="Rectángulo_5401" data-name="Rectángulo 5401" width="1" height="142.824" transform="translate(1980 1059.588)" fill="#00897b"/>
          </g>
          <g id="Grupo_59616" data-name="Grupo 59616">
            <path id="Trazado_103193" data-name="Trazado 103193" d="M1978.007,1060.317,1980.5,1056l2.493,4.317Z" fill="#00897b"/>
          </g>
          <g id="Grupo_59617" data-name="Grupo 59617">
            <path id="Trazado_103194" data-name="Trazado 103194" d="M1978.007,1201.683,1980.5,1206l2.493-4.317Z" fill="#00897b"/>
          </g>
        </g>
        <g id="Grupo_59622" data-name="Grupo 59622">
          <g id="Grupo_59619" data-name="Grupo 59619">
            <rect id="Rectángulo_5402" data-name="Rectángulo 5402" width="142.824" height="1" transform="translate(1834.588 1238)" fill="#00897b"/>
          </g>
          <g id="Grupo_59620" data-name="Grupo 59620">
            <path id="Trazado_103195" data-name="Trazado 103195" d="M1976.683,1236.007,1981,1238.5l-4.317,2.493Z" fill="#00897b"/>
          </g>
          <g id="Grupo_59621" data-name="Grupo 59621">
            <path id="Trazado_103196" data-name="Trazado 103196" d="M1835.317,1236.007,1831,1238.5l4.317,2.493Z" fill="#00897b"/>
          </g>
        </g>
        <g id="Grupo_59626" data-name="Grupo 59626">
          <g id="Grupo_59623" data-name="Grupo 59623">
            <rect id="Rectángulo_5403" data-name="Rectángulo 5403" width="359.824" height="1" transform="translate(1834.588 1260)" fill="#00897b"/>
          </g>
          <g id="Grupo_59624" data-name="Grupo 59624">
            <path id="Trazado_103197" data-name="Trazado 103197" d="M2193.683,1258.007,2198,1260.5l-4.317,2.493Z" fill="#00897b"/>
          </g>
          <g id="Grupo_59625" data-name="Grupo 59625">
            <path id="Trazado_103198" data-name="Trazado 103198" d="M1835.317,1258.007,1831,1260.5l4.317,2.493Z" fill="#00897b"/>
          </g>
        </g>
        <g id="Grupo_59627" data-name="Grupo 59627">
          <rect id="Rectángulo_5404" data-name="Rectángulo 5404" width="1" height="41" transform="translate(1830 1226.5)" fill="#00897b"/>
        </g>
        <g id="Grupo_59628" data-name="Grupo 59628">
          <rect id="Rectángulo_5405" data-name="Rectángulo 5405" width="1" height="28" transform="translate(1980 1217)" fill="#00897b"/>
        </g>
        <g id="Grupo_59629" data-name="Grupo 59629">
          <rect id="Rectángulo_5406" data-name="Rectángulo 5406" width="1" height="50" transform="translate(2197 1218)" fill="#00897b"/>
        </g>
        <path id="Trazado_110208" data-name="Trazado 110208" d="M3.325-2.937l.11,1,.044.007L6.321-7.925h1.6l-4.7,9.141A5.148,5.148,0,0,1,2.15,2.607a2.282,2.282,0,0,1-1.6.593,2.977,2.977,0,0,1-.432-.04q-.264-.04-.41-.077L.022,1.948a1.937,1.937,0,0,1,.267.015q.289.022.37.022a1.087,1.087,0,0,0,.817-.428A4.8,4.8,0,0,0,2.1.667l.476-.828L.791-7.925H2.4Z" transform="translate(1815.278 956.866)"/>
        <path id="Trazado_110222" data-name="Trazado 110222" d="M3.325-2.937l.11,1,.044.007L6.321-7.925h1.6l-4.7,9.141A5.148,5.148,0,0,1,2.15,2.607a2.282,2.282,0,0,1-1.6.593,2.977,2.977,0,0,1-.432-.04q-.264-.04-.41-.077L.022,1.948a1.937,1.937,0,0,1,.267.015q.289.022.37.022a1.087,1.087,0,0,0,.817-.428A4.8,4.8,0,0,0,2.1.667l.476-.828L.791-7.925H2.4Z" transform="translate(1970.278 1134.866)"/>
        <path id="Trazado_110221" data-name="Trazado 110221" d="M2.937-6.907a3.59,3.59,0,0,1,1.135-.861,3.14,3.14,0,0,1,1.37-.3A2.2,2.2,0,0,1,7.277-7.3a3,3,0,0,1,.385,2.336L6.914,0H5.471l.747-4.98a1.924,1.924,0,0,0-.2-1.465A1.42,1.42,0,0,0,4.827-6.9a2.512,2.512,0,0,0-1.146.264,2.6,2.6,0,0,0-.89.732L1.9,0H.461L2.175-11.426H3.618Z" transform="translate(2042.278 1134.866)"/>
        <path id="Trazado_110223" data-name="Trazado 110223" d="M2.021,0H.579L2.292-11.426H3.735Z" transform="translate(2024.278 1256.866)"/>
        <path id="Trazado_110209" data-name="Trazado 110209" d="M4.314-2.8l.11.879.044.007L4.841-2.8l3.933-7.866h1.56L4.775,0H3.538L1.172-10.664H2.739Z" transform="translate(1813.278 1145.866)"/>
        <path id="Trazado_110210" data-name="Trazado 110210" d="M7.6-3.765a4.908,4.908,0,0,1-1.348,2.9A3.645,3.645,0,0,1,3.618.154,2.684,2.684,0,0,1,1.333-.912,3.68,3.68,0,0,1,.806-3.765L1.274-6.9A4.872,4.872,0,0,1,2.622-9.789a3.647,3.647,0,0,1,2.629-1.029A2.668,2.668,0,0,1,7.537-9.749,3.719,3.719,0,0,1,8.064-6.9ZM6.665-7.2a2.68,2.68,0,0,0-.234-1.838,1.483,1.483,0,0,0-1.355-.645,1.99,1.99,0,0,0-1.512.674,3.333,3.333,0,0,0-.8,1.809L2.2-3.472a2.667,2.667,0,0,0,.231,1.846,1.479,1.479,0,0,0,1.351.652,1.993,1.993,0,0,0,1.52-.677,3.361,3.361,0,0,0,.8-1.82Z" transform="translate(1815.278 1222.866)"/>
        <path id="Trazado_110309" data-name="Trazado 110309" d="M4.49-6.958a2.686,2.686,0,0,1-.738,1.585,2,2,0,0,1-1.439.559A1.469,1.469,0,0,1,1.063-5.4,2.014,2.014,0,0,1,.775-6.958l.257-1.716a2.666,2.666,0,0,1,.738-1.581,2,2,0,0,1,1.439-.563,1.46,1.46,0,0,1,1.251.585,2.036,2.036,0,0,1,.289,1.559Zm-.509-1.88a1.467,1.467,0,0,0-.128-1.006.811.811,0,0,0-.742-.353,1.089,1.089,0,0,0-.828.369,1.824,1.824,0,0,0-.439.99L1.54-6.8a1.46,1.46,0,0,0,.126,1.01.809.809,0,0,0,.74.357A1.091,1.091,0,0,0,3.238-5.8a1.839,1.839,0,0,0,.439-1Z" transform="translate(1875.642 1233.478)"/>
        <path id="Trazado_110224" data-name="Trazado 110224" d="M3.9-5,6.021-7.925H7.654l.022.037L4.548-4.006,6.592,0H4.937L3.625-3l-2.2,3H-.2L-.22-.037,3-4.006,1.011-7.925H2.673Z" transform="translate(2202.278 1220.866)"/>
        <path id="Trazado_110212" data-name="Trazado 110212" d="M2.6-3.335,4.014-5.283H5.1l.015.024L3.032-2.671,4.395,0h-1.1L2.417-2,.947,0H-.132L-.146-.024,2-2.671.674-5.283H1.782Z" transform="translate(1906.278 1233.866)"/>
        <path id="Trazado_110308" data-name="Trazado 110308" d="M2.6-3.335,4.014-5.283H5.1l.015.024L3.032-2.671,4.395,0h-1.1L2.417-2,.947,0H-.132L-.146-.024,2-2.671.674-5.283H1.782Z" transform="translate(1880.278 1228.303)"/>
        <path id="Trazado_110213" data-name="Trazado 110213" d="M3.555,0q-.01-.273-.01-.442a3.116,3.116,0,0,1,.02-.344,2.852,2.852,0,0,1-.8.632A2,2,0,0,1,1.8.1,1.506,1.506,0,0,1,.623-.325a1.347,1.347,0,0,1-.271-1.16,1.615,1.615,0,0,1,.781-1.2A3.246,3.246,0,0,1,2.866-3.1H3.911l.078-.522a.856.856,0,0,0-.168-.745,1,1,0,0,0-.764-.261,1.334,1.334,0,0,0-.781.234.815.815,0,0,0-.381.562l-.918.01,0-.029a1.514,1.514,0,0,1,.7-1.067,2.564,2.564,0,0,1,1.553-.466,1.908,1.908,0,0,1,1.357.461,1.411,1.411,0,0,1,.371,1.311L4.57-1.064a4.178,4.178,0,0,0-.056.554A2.819,2.819,0,0,0,4.546,0ZM2.065-.7a1.9,1.9,0,0,0,.967-.273,1.633,1.633,0,0,0,.649-.615l.132-.854H2.734a1.588,1.588,0,0,0-.967.3,1.032,1.032,0,0,0-.459.684A.632.632,0,0,0,1.438-.9.838.838,0,0,0,2.065-.7Z" transform="translate(1862.278 1192.866)"/>
        <g id="Grupo_59632" data-name="Grupo 59632">
          <text id="A" transform="translate(1812.278 1073.866)" font-size="15" font-family="Roboto-Italic, Roboto" font-style="italic"><tspan x="0" y="0">A</tspan></text>
          <g id="Grupo_59630" data-name="Grupo 59630">
            <path id="Trazado_103199" data-name="Trazado 103199" d="M1821.568,1064.336v-1.8h1.8v1.568a4.776,4.776,0,0,1-.124,1.238,1.29,1.29,0,0,1-.531.721,2.1,2.1,0,0,1-1.147.3v-.761a.967.967,0,0,0,.879-1.092c0-.039,0-.1-.007-.176Z"/>
          </g>
          <g id="Grupo_59631" data-name="Grupo 59631">
            <path id="Trazado_103200" data-name="Trazado 103200" d="M1824.568,1064.336v-1.8h1.8v1.568a4.776,4.776,0,0,1-.124,1.238,1.29,1.29,0,0,1-.531.721,2.1,2.1,0,0,1-1.147.3v-.761a.967.967,0,0,0,.879-1.092c0-.039,0-.1-.007-.176Z"/>
          </g>
        </g>
        <g id="Grupo_59634" data-name="Grupo 59634">
          <text id="A-2" data-name="A" transform="translate(1963.278 1203.866)" font-size="15" font-family="Roboto-Italic, Roboto" font-style="italic"><tspan x="0" y="0">A</tspan></text>
          <g id="Grupo_59633" data-name="Grupo 59633">
            <path id="Trazado_103201" data-name="Trazado 103201" d="M1972.568,1194.336v-1.8h1.8v1.568a4.776,4.776,0,0,1-.124,1.238,1.29,1.29,0,0,1-.531.721,2.1,2.1,0,0,1-1.147.3v-.761a.967.967,0,0,0,.879-1.092c0-.039,0-.1-.007-.176Z"/>
          </g>
        </g>
        <g id="Grupo_59635" data-name="Grupo 59635">
          <rect id="Rectángulo_5407" data-name="Rectángulo 5407" width="10" height="1" transform="translate(1813 1130.5)"/>
        </g>
        <path id="Trazado_110211" data-name="Trazado 110211" d="M4.314-2.8l.11.879.044.007L4.841-2.8l3.933-7.866h1.56L4.775,0H3.538L1.172-10.664H2.739Z" transform="translate(1868.278 1226.366)"/>
        <text id="_0y" data-name="0y" transform="translate(1821.278 1146.053)" font-size="5.087" font-family="Roboto-Italic, Roboto" font-style="italic"><tspan x="0" y="0">0y</tspan></text>
        <path id="Trazado_110215" data-name="Trazado 110215" d="M4.314-2.8l.11.879.044.007L4.841-2.8l3.933-7.866h1.56L4.775,0H3.538L1.172-10.664H2.739Z" transform="translate(1911.278 1066.366)"/>
        <g id="Grupo_59636" data-name="Grupo 59636">
          <rect id="Rectángulo_5408" data-name="Rectángulo 5408" width="10" height="1" transform="translate(1911 1051)"/>
        </g>
        <path id="Trazado_110214" data-name="Trazado 110214" d="M2.576-1.277a1.665,1.665,0,0,1-.457.982,1.236,1.236,0,0,1-.892.347A.91.91,0,0,1,.452-.309a1.248,1.248,0,0,1-.179-.968L.432-2.34a1.652,1.652,0,0,1,.457-.98,1.237,1.237,0,0,1,.892-.349.9.9,0,0,1,.775.363,1.261,1.261,0,0,1,.179.966ZM2.26-2.442a.909.909,0,0,0-.079-.623.5.5,0,0,0-.46-.219.675.675,0,0,0-.513.229,1.13,1.13,0,0,0-.272.614L.748-1.177a.9.9,0,0,0,.078.626.5.5,0,0,0,.458.221A.676.676,0,0,0,1.8-.56a1.14,1.14,0,0,0,.272-.617Z" transform="translate(1919.278 1066.553)"/>
        <path id="Trazado_110219" data-name="Trazado 110219" d="M4.314-2.8l.11.879.044.007L4.841-2.8l3.933-7.866h1.56L4.775,0H3.538L1.172-10.664H2.739Z" transform="translate(2022.278 1074.366)"/>
        <path id="Trazado_110220" data-name="Trazado 110220" d="M6.584-2.747H2.563L1.2,0H-.271L5.171-10.664H6.409L8.577,0H7.1ZM3.164-3.955H6.35L5.486-8.533,5.442-8.54Z" transform="translate(1983.278 1074.366)"/>
        <g id="Grupo_59637" data-name="Grupo 59637">
          <rect id="Rectángulo_5409" data-name="Rectángulo 5409" width="10" height="1" transform="translate(2022 1059)"/>
        </g>
        <path id="Trazado_110310" data-name="Trazado 110310" d="M1.321-1.7l.72-.991H2.6l.007.012L1.543-1.359,2.236,0H1.674L1.23-1.016.482,0H-.067L-.075-.012l1.09-1.346L.343-2.688H.907Z" transform="translate(2030.278 1074.553)"/>
        <path id="Trazado_110217" data-name="Trazado 110217" d="M4.314-2.8l.11.879.044.007L4.841-2.8l3.933-7.866h1.56L4.775,0H3.538L1.172-10.664H2.739Z" transform="translate(1965.278 1018.366)"/>
        <g id="Grupo_59638" data-name="Grupo 59638">
          <rect id="Rectángulo_5410" data-name="Rectángulo 5410" width="10" height="1" transform="translate(1965 1003)"/>
        </g>
        <path id="Trazado_110218" data-name="Trazado 110218" d="M4.314-2.8l.11.879.044.007L4.841-2.8l3.933-7.866h1.56L4.775,0H3.538L1.172-10.664H2.739Z" transform="translate(2027.278 1006.366)"/>
        <g id="Grupo_59639" data-name="Grupo 59639">
          <rect id="Rectángulo_5411" data-name="Rectángulo 5411" width="10" height="1" transform="translate(2027 991)"/>
        </g>
        <path id="Trazado_110216" data-name="Trazado 110216" d="M1.128-1l.037.338.015,0,.964-2.032h.544L1.093.412A1.746,1.746,0,0,1,.729.884a.774.774,0,0,1-.543.2A1.01,1.01,0,0,1,.04,1.072Q-.05,1.058-.1,1.046L.007.661A.657.657,0,0,1,.1.666Q.2.673.224.673A.369.369,0,0,0,.5.528a1.626,1.626,0,0,0,.212-.3L.874-.055.268-2.688H.815Z" transform="translate(1973.278 1018.553)"/>
        <g id="Grupo_59640" data-name="Grupo 59640">
          <rect id="Rectángulo_5412" data-name="Rectángulo 5412" width="10" height="1" transform="translate(1868 1212)"/>
        </g>
      </g>
    </g>
  </g>
</svg>
