<svg xmlns="http://www.w3.org/2000/svg" width="610" height="372" viewBox="0 0 610 372">
  <g id="Grupo_63765" data-name="Grupo 63765" transform="translate(-810 -6021)">
    <path id="Trazado_110312" data-name="Trazado 110312" d="M0,0H610V372H0Z" transform="translate(810 6021)" fill="#fdd835" opacity="0.2"/>
    <g id="Grupo_59649" data-name="Grupo 59649" transform="translate(278.722 4690.134)">
      <g id="Grupo_59646" data-name="Grupo 59646">
        <path id="Trazado_103202" data-name="Trazado 103202" d="M967.827,1656.693,768.5,1598.123V1389.289h3v206.588l197.173,57.938Z" fill="#00897b"/>
      </g>
      <g id="Grupo_59647" data-name="Grupo 59647">
        <path id="Trazado_103203" data-name="Trazado 103203" d="M765.642,1392.261,770,1376l4.358,16.261Z" fill="#00897b"/>
      </g>
      <g id="Grupo_59684" data-name="Grupo 59684" transform="translate(0 21)">
        <path id="Trazado_103203-2" data-name="Trazado 103203" d="M765.642,1392.261,770,1376l4.358,16.261Z" fill="#00897b"/>
      </g>
      <g id="Grupo_59648" data-name="Grupo 59648">
        <path id="Trazado_103204" data-name="Trazado 103204" d="M964.17,1658.6l16.83.4-14.373-8.766Z" fill="#00897b"/>
      </g>
    </g>
    <g id="Grupo_59653" data-name="Grupo 59653" transform="translate(278.722 4690.134)">
      <g id="Grupo_59650" data-name="Grupo 59650">
        <path id="Trazado_103205" data-name="Trazado 103205" d="M615.417,1659.037l-1.1-2.793,155.52-61.1,127.452-75.187,1.524,2.584L771.16,1597.853l-.111.044Z" fill="#00897b"/>
      </g>
      <g id="Grupo_59651" data-name="Grupo 59651">
        <path id="Trazado_103206" data-name="Trazado 103206" d="M893.28,1519.009l16.22-4.509-11.792,12.016Z" fill="#00897b"/>
      </g>
      <g id="Grupo_59652" data-name="Grupo 59652">
        <path id="Trazado_103207" data-name="Trazado 103207" d="M616.042,1652.5l-13.542,10,16.729-1.89Z" fill="#00897b"/>
      </g>
    </g>
    <g id="Grupo_59657" data-name="Grupo 59657" transform="translate(278.722 4690.134)">
      <g id="Grupo_59654" data-name="Grupo 59654">
        <path id="Trazado_103208" data-name="Trazado 103208" d="M912.5,1511.027V1408.359h2v99.613l61.48-26.844.8,1.832Z" fill="#00897b"/>
      </g>
      <g id="Grupo_59655" data-name="Grupo 59655">
        <path id="Trazado_103209" data-name="Trazado 103209" d="M973.4,1480.175l11.1-1.675-8.773,7Z" fill="#00897b"/>
      </g>
      <g id="Grupo_59656" data-name="Grupo 59656">
        <path id="Trazado_103210" data-name="Trazado 103210" d="M916.405,1410.341,913.5,1399.5l-2.905,10.841Z" fill="#00897b"/>
      </g>
    </g>
    <g id="Grupo_59660" data-name="Grupo 59660" transform="translate(278.722 4690.134)">
      <g id="Grupo_59658" data-name="Grupo 59658">
        <rect id="Rectángulo_5417" data-name="Rectángulo 5417" width="2" height="120.746" transform="matrix(0.206, -0.979, 0.979, 0.206, 791.134, 1487.625)" fill="#00897b"/>
      </g>
      <g id="Grupo_59659" data-name="Grupo 59659">
        <path id="Trazado_103211" data-name="Trazado 103211" d="M794.021,1493.149,774,1483l22.413-1.223Z" fill="#00897b"/>
      </g>
    </g>
    <g id="Grupo_59661" data-name="Grupo 59661" transform="translate(278.722 4690.134)">
      <circle id="Elipse_4090" data-name="Elipse 4090" cx="4.375" cy="4.375" r="4.375" transform="translate(765.536 1476.125)" fill="#fff"/>
      <path id="Trazado_103212" data-name="Trazado 103212" d="M769.911,1485.375a4.875,4.875,0,1,1,4.875-4.875A4.881,4.881,0,0,1,769.911,1485.375Zm0-8.75a3.875,3.875,0,1,0,3.875,3.875A3.879,3.879,0,0,0,769.911,1476.625Z" fill="#00897b"/>
    </g>
    <g id="Grupo_59662" data-name="Grupo 59662" transform="translate(278.722 4690.134)">
      <circle id="Elipse_4091" data-name="Elipse 4091" cx="4.375" cy="4.375" r="4.375" transform="translate(906.536 1507.125)" fill="#fff"/>
      <path id="Trazado_103213" data-name="Trazado 103213" d="M910.911,1516.375a4.875,4.875,0,1,1,4.875-4.875A4.881,4.881,0,0,1,910.911,1516.375Zm0-8.75a3.875,3.875,0,1,0,3.875,3.875A3.879,3.879,0,0,0,910.911,1507.625Z" fill="#00897b"/>
    </g>
    <g id="Grupo_59663" data-name="Grupo 59663" transform="translate(278.722 4690.134)">
      <path id="Trazado_103214" data-name="Trazado 103214" d="M771.082,1537.5l-2,0,0-1,1.917,0Zm2-.005,0-1,1.994-.011.007,1Zm-6-.01-2-.018.012-1,2,.018Zm10-.019-.01-1,2-.026.015,1Zm-14-.024-2-.032.018-1,2,.032Zm18.005-.035-.018-1,2-.04.023,1Zm-22.008-.036-2-.047.025-1,2,.047Zm26.01-.052-.024-1,2-.054.029,1Zm-30.012-.049-2-.063.035-1,2,.063Zm34.013-.068-.032-1,2-.069.037,1Zm-38.014-.064-2-.077.041-1,1.995.077Zm42.016-.083-.041-1,2-.084.044,1Zm-46.017-.077-2-.093.049-1,2,.091Zm50.017-.1-.048-1,1.995-.1.052,1Zm-54.016-.092-2-.107.056-1,1.995.107Zm58.014-.116-.056-1,1.994-.115.061,1Zm-62.012-.106-2-.124.064-1,1.994.123Zm66.008-.133-.062-1,1.993-.131.067,1Zm-70-.119-2-.139.072-1,1.993.139Zm74-.151-.071-1,1.993-.146.075,1Zm-77.991-.135-2-.155.079-1,1.992.153Zm81.984-.168-.079-1,1.991-.163.084,1Zm-85.977-.15-2-.171.088-1,1.99.171Zm89.967-.185-.088-1,1.99-.179.093,1Zm-93.955-.165-1.994-.187.1-1,1.989.187Zm97.942-.2-.1-1,1.989-.2.1.994Zm-101.928-.182-1.992-.2.1-.995,1.986.2Zm105.912-.221-.1-.994,1.986-.213.108.994Zm-109.9-.2q-1-.109-1.99-.222l.113-.994q.99.113,1.985.222Zm113.875-.239-.112-.994q1-.112,1.984-.229l.118.992Q830.006,1534.206,829.008,1534.318Zm-117.854-.214q-1-.117-1.988-.239l.122-.992q.988.121,1.983.239Zm121.831-.257-.123-.993,1.984-.249.126.993Zm-125.8-.231-1.986-.258.131-.992,1.982.258Zm129.778-.278-.132-.992q.995-.13,1.98-.267l.136.99Q837.954,1533.206,836.958,1533.338Zm-133.749-.247q-.994-.136-1.983-.277l.141-.99q.985.141,1.978.277Zm137.716-.3-.14-.99q.993-.141,1.977-.286l.145.99Q841.92,1532.652,840.925,1532.792Zm-141.681-.263-1.979-.3.149-.988,1.976.295Zm145.643-.319-.15-.988q.99-.152,1.973-.307l.157.988Q845.88,1532.059,844.887,1532.21Zm-149.6-.283q-.993-.156-1.978-.317l.16-.986c.655.1,1.312.211,1.972.314Zm153.558-.34-.162-.986,1.971-.328.166.987Zm-157.512-.3q-.993-.165-1.975-.337l.171-.984c.653.112,1.309.225,1.969.335Zm161.461-.363-.171-.984q.987-.172,1.967-.348l.177.984Q853.784,1530.748,852.793,1530.921Zm-165.408-.321-1.97-.358.181-.984,1.966.357Zm169.351-.386-.182-.983q.985-.183,1.962-.37l.189.983Q857.725,1530.031,856.736,1530.214Zm-173.29-.342q-.987-.187-1.967-.381l.193-.98q.977.19,1.961.379Zm177.225-.411-.194-.981,1.959-.392.2.98Zm-181.155-.362q-.987-.2-1.962-.405l.2-.978q.973.2,1.956.4Zm185.08-.436-.205-.978q.981-.207,1.953-.416l.212.976Q865.581,1528.458,864.6,1528.663Zm-189-.386q-.984-.211-1.957-.427l.217-.977q.969.216,1.951.428Zm192.918-.462-.219-.976q.979-.219,1.949-.442l.223.975Q869.494,1527.6,868.512,1527.815Zm-196.829-.408q-.982-.225-1.951-.455l.23-.973q.966.228,1.945.454Zm200.734-.491-.231-.973q.977-.233,1.941-.467l.237.97Q873.4,1526.683,872.417,1526.916Zm-204.633-.433q-.98-.239-1.946-.483l.246-.969q.963.243,1.937.482Zm208.525-.519-.245-.969q.973-.246,1.934-.5l.252.967Q877.285,1525.718,876.309,1525.964ZM663.9,1525.5q-.975-.254-1.938-.512l.259-.966q.96.258,1.931.511Zm216.288-.551-.259-.967q.97-.259,1.926-.524l.267.963Q881.16,1524.692,880.186,1524.953Zm-220.159-.487q-.972-.27-1.93-.544l.276-.961q.953.273,1.92.54Zm224.022-.585-.275-.961c.643-.185,1.282-.37,1.916-.559l.284.959Q885.018,1523.6,884.049,1523.881Zm-227.877-.518q-.966-.285-1.919-.576l.292-.957q.948.289,1.912.574Zm231.721-.621-.292-.957q.96-.293,1.9-.592l.3.953Q888.858,1522.448,887.893,1522.742Zm-235.555-.55q-.963-.3-1.909-.612l.31-.951q.942.307,1.9.61Zm239.378-.658-.31-.951q.954-.312,1.893-.63l.32.947Q892.677,1521.22,891.716,1521.534Zm-243.19-.585q-.957-.322-1.9-.651l.329-.944q.934.326,1.887.648Zm246.989-.7-.331-.943q.948-.334,1.879-.671l.341.939Q896.47,1519.912,895.515,1520.247Zm-250.775-.623q-.951-.344-1.882-.694l.352-.936q.926.348,1.871.691Zm254.545-.749-.352-.936q.941-.354,1.86-.715l.366.931Q900.233,1518.516,899.285,1518.875Zm-258.3-.663q-.943-.369-1.864-.743l.376-.926q.914.371,1.852.737Zm262.036-.8-.376-.926q.931-.378,1.84-.763l.39.92Q903.96,1517.029,903.021,1517.411Zm-265.755-.709q-.934-.395-1.844-.8l.4-.914q.9.4,1.829.788Zm269.452-.857-.405-.914q.922-.408,1.816-.821l.419.909Q907.647,1515.435,906.718,1515.845Zm-273.126-.762q-.922-.423-1.819-.854l.435-.9q.887.426,1.8.847Zm276.773-.923-.436-.9q.909-.439,1.786-.882l.451.893Q911.28,1513.716,910.365,1514.16Zm-280.393-.82q-.909-.457-1.785-.921l.466-.885q.87.46,1.769.913Zm283.979-.995-.469-.883q.89-.473,1.746-.952l.488.873Q914.85,1511.868,913.951,1512.345Zm-287.532-.887q-.89-.5-1.745-1l.509-.861q.844.5,1.724.989Zm291.04-1.079-.51-.861q.867-.513,1.7-1.034l.532.846C918.618,1509.683,918.045,1510.031,917.459,1510.379Zm-294.505-.966q-.867-.543-1.691-1.092l.553-.832q.815.541,1.669,1.076Zm297.913-1.177-.555-.832q.837-.56,1.629-1.129l.583.813Q921.72,1507.666,920.867,1508.236ZM619.6,1507.178q-.836-.6-1.621-1.2l.611-.793q.77.594,1.591,1.178Zm304.539-1.295-.611-.791q.8-.617,1.54-1.241l.643.765Q924.956,1505.254,924.142,1505.883Zm-307.735-1.165q-.792-.662-1.522-1.33l.676-.737q.714.654,1.486,1.3Zm310.825-1.437-.678-.736q.739-.68,1.415-1.372l.715.7Q927.991,1502.581,927.232,1503.281Zm-313.8-1.3q-.726-.736-1.379-1.483l.753-.658q.634.725,1.339,1.44Zm316.631-1.6-.756-.654c.435-.5.85-1.016,1.233-1.526l.8.6C930.937,1499.331,930.508,1499.862,930.058,1500.381Zm-319.294-1.448c-.416-.546-.809-1.106-1.168-1.663l.841-.541c.345.535.723,1.073,1.123,1.6Zm321.729-1.8-.845-.535c.354-.56.68-1.128.969-1.69l.889.457C933.2,1495.951,932.863,1496.546,932.493,1497.131Zm-323.922-1.62a20.361,20.361,0,0,1-.854-1.853l.929-.371a19.129,19.129,0,0,0,.811,1.761Zm325.774-2.01-.932-.361a17.049,17.049,0,0,0,.594-1.837l.968.252A17.882,17.882,0,0,1,934.345,1493.5Zm-327.276-1.78a16.608,16.608,0,0,1-.413-2.008l.99-.141a15.755,15.755,0,0,0,.388,1.887Zm328.3-2.176-.991-.129a14.981,14.981,0,0,0,.124-1.916l0-.3,1-.019,0,.314A15.735,15.735,0,0,1,935.367,1489.545ZM606.5,1487.658v-.163a15.885,15.885,0,0,1,.113-1.884l.993.119a14.959,14.959,0,0,0-.106,1.77v.148Zm327.833-2.376a15.557,15.557,0,0,0-.405-1.883l.963-.269a16.708,16.708,0,0,1,.432,2Zm-326.377-1.442-.97-.242a17.5,17.5,0,0,1,.613-1.952l.935.353A16.913,16.913,0,0,0,607.956,1483.84Zm325.343-2.264a19.093,19.093,0,0,0-.824-1.755l.882-.468a19.775,19.775,0,0,1,.868,1.844Zm-323.982-1.35-.894-.45c.3-.588.634-1.186,1-1.775l.848.529C609.921,1479.094,609.6,1479.664,609.317,1480.226Zm322.165-2.079c-.343-.527-.724-1.062-1.132-1.592l.792-.61c.424.55.82,1.108,1.178,1.656Zm-320.107-1.23-.8-.6c.4-.532.822-1.065,1.268-1.586l.759.653C612.168,1475.89,611.757,1476.4,611.375,1476.917Zm317.726-1.874q-.637-.72-1.346-1.434l.71-.7q.729.735,1.385,1.477Zm-315.175-1.109-.718-.7q.688-.713,1.447-1.415l.679.733Q614.6,1473.24,613.926,1473.934Zm312.4-1.685q-.717-.653-1.492-1.3l.639-.769q.792.657,1.525,1.324Zm-309.515-1-.646-.764q.756-.638,1.568-1.271l.615.789Q617.555,1470.62,616.814,1471.247Zm306.475-1.524c-.516-.4-1.048-.785-1.6-1.175l.579-.815q.837.594,1.624,1.195Zm-303.352-.91-.586-.81q.8-.581,1.654-1.152l.558.83Q620.726,1468.244,619.937,1468.813Zm300.122-1.385q-.813-.54-1.67-1.073l.528-.849q.868.54,1.7,1.088Zm-296.833-.832-.534-.846q.838-.53,1.717-1.052l.51.86Q624.053,1466.073,623.226,1466.6Zm293.462-1.27q-.844-.5-1.726-.984l.486-.875q.891.495,1.747,1Zm-290.047-.763-.491-.871q.865-.486,1.765-.965l.47.882Q627.5,1464.083,626.641,1464.563Zm286.572-1.167q-.869-.461-1.769-.911l.449-.894q.909.458,1.787.92Zm-283.064-.7-.452-.892q.885-.448,1.8-.893l.437.9Q631.026,1462.246,630.149,1462.691Zm279.508-1.083q-.888-.425-1.8-.845l.417-.909q.922.424,1.818.852Zm-275.924-.656-.421-.906q.9-.419,1.831-.829l.4.914Q634.628,1460.537,633.733,1460.952Zm272.3-1q-.9-.394-1.831-.787l.389-.922q.933.394,1.843.793Zm-268.661-.609-.391-.92q.914-.388,1.853-.772l.377.926Q638.283,1458.953,637.375,1459.339Zm264.989-.938q-.917-.372-1.853-.736l.363-.932q.943.369,1.865.741Zm-261.3-.57-.365-.932q.926-.362,1.872-.721l.354.935Q641.983,1457.47,641.064,1457.831Zm257.585-.877q-.926-.346-1.872-.688l.34-.942q.951.345,1.883.693Zm-253.854-.535-.343-.94q.934-.341,1.888-.676l.333.943Q645.725,1456.081,644.795,1456.419Zm250.1-.822q-.934-.326-1.887-.647l.319-.947q.958.322,1.9.65Zm-246.34-.5-.322-.948q.942-.318,1.9-.634l.311.951Q649.494,1454.779,648.558,1455.1Zm242.559-.775q-.942-.307-1.9-.607l.3-.954q.963.3,1.91.61Zm-238.768-.469-.3-.954q.949-.3,1.914-.6l.294.955C653.614,1453.456,652.979,1453.653,652.349,1453.854Zm234.961-.728q-.948-.289-1.911-.573l.282-.959q.969.283,1.921.575Zm-231.146-.444-.284-.959q.954-.283,1.924-.562l.276.961C657.437,1452.308,656.8,1452.493,656.164,1452.682ZM883.482,1452q-.953-.271-1.921-.54l.266-.963q.972.268,1.93.542ZM660,1451.579l-.268-.963q.96-.267,1.933-.529l.261.965Q660.955,1451.315,660,1451.579Zm219.634-.644q-.958-.258-1.93-.509l.251-.969q.975.253,1.938.511Zm-215.779-.4-.253-.967q.963-.254,1.941-.5l.245.969Q664.814,1450.288,663.855,1450.539Zm211.915-.607q-.965-.242-1.938-.481l.237-.971q.98.24,1.945.483Zm-208.044-.372-.239-.971q.968-.237,1.948-.472l.232.973C669.016,1449.246,668.369,1449.4,667.726,1449.56Zm204.164-.575q-.966-.227-1.944-.452l.222-.974q.982.224,1.952.454Zm-200.28-.349-.225-.975q.972-.224,1.953-.444l.219.976Q672.577,1448.412,671.61,1448.636ZM868,1448.094q-.971-.216-1.952-.426l.21-.979q.984.213,1.957.428Zm-192.492-.33-.212-.977q.975-.211,1.96-.419l.205.979Q676.479,1447.552,675.507,1447.764Zm188.587-.511q-.973-.2-1.956-.4l.2-.981q.987.2,1.962.4Zm-184.677-.311-.2-.98q.978-.2,1.964-.394l.2.981Q680.391,1446.744,679.417,1446.942Zm180.763-.482-1.962-.379.187-.982,1.966.379Zm-176.846-.293-.188-.982q.978-.187,1.968-.372l.182.983Q684.31,1445.979,683.334,1446.167Zm172.922-.452q-.978-.18-1.965-.357l.174-.984q.99.175,1.972.356Zm-168.995-.277-.177-.984,1.972-.349.172.985Zm165.062-.425-1.969-.335.165-.987,1.973.335Zm-161.126-.26-.166-.986q.984-.166,1.976-.328l.16.987Q692.177,1444.586,691.2,1444.753Zm157.186-.4q-.982-.159-1.972-.314l.154-.988q.993.154,1.978.315Zm-153.243-.243-.157-.988q.987-.155,1.98-.307l.15.989Q696.123,1443.953,695.14,1444.109Zm149.3-.376q-.985-.148-1.977-.294l.145-.99c.663.1,1.323.2,1.981.3Zm-145.349-.227-.145-.99,1.981-.287.141.99Zm141.4-.352-1.979-.275.136-.99,1.983.275Zm-137.44-.213-.137-.99q.988-.137,1.985-.269l.131.992Q704.03,1442.8,703.044,1442.941Zm133.481-.328q-.987-.131-1.981-.257l.126-.992q1,.126,1.986.257Zm-129.52-.2-.128-.992q.99-.127,1.987-.25l.123.992Q707.992,1442.287,707.005,1442.414Zm125.556-.306q-.988-.122-1.983-.238l.117-.992q1,.117,1.988.238Zm-121.592-.184-.117-.992,1.988-.233.115.994Zm117.624-.282q-.988-.114-1.985-.221l.108-.994q1,.108,1.991.22Zm-113.654-.171-.108-.994,1.989-.214.106.994Zm109.682-.262q-.991-.1-1.987-.2l.1-.994q1,.1,1.992.2Zm-105.707-.157-.1-.994,1.993-.2.1,1Zm101.731-.241-1.989-.187.091-1,1.994.186Zm-97.754-.144-.093-1q.995-.093,2-.18l.086,1Q723.881,1440.574,722.891,1440.667Zm93.776-.221-1.991-.17.083-1,2,.17Zm-89.8-.132-.084-1,2-.163.079,1Zm85.814-.2-1.992-.153.075-1,2,.155Zm-81.83-.119-.077-1,2-.148.072,1Zm77.846-.181-1.994-.137.067-1,2,.137Zm-73.861-.106-.068-1,2-.132.064,1Zm69.873-.161-1.993-.122.058-1,2,.122Zm-65.885-.095-.06-1,2-.116.055,1Zm61.9-.141-1.995-.107.051-1,2,.106Zm-57.907-.083-.053-1,2-.1.048,1Zm53.915-.123-1.995-.091.044-1,2,.091Zm-49.924-.07-.044-1,2-.086.041,1Zm45.932-.1-2-.077.036-1,2,.077Zm-41.939-.06-.037-1,2-.07.033,1Zm37.946-.085-2-.061.029-1,2,.061Zm-33.953-.049-.029-1,2-.055.026,1Zm29.958-.065-2-.047.022-1,2,.047Zm-25.962-.038-.023-1,2-.04.018,1Zm21.967-.048-2-.032.014-1,2,.032Zm-17.972-.025-.015-1,2-.026.01,1Zm13.976-.032-2-.017.007-1,2,.017Zm-9.986-.014-.008-1,2-.012.005,1Zm5.991-.013-2,0v-1l2,0Z" fill="#4dd0e1"/>
    </g>
    <path id="Trazado_110227" data-name="Trazado 110227" d="M7.6-3.765a4.908,4.908,0,0,1-1.348,2.9A3.645,3.645,0,0,1,3.618.154,2.684,2.684,0,0,1,1.333-.912,3.68,3.68,0,0,1,.806-3.765L1.274-6.9A4.872,4.872,0,0,1,2.622-9.789a3.647,3.647,0,0,1,2.629-1.029A2.668,2.668,0,0,1,7.537-9.749,3.719,3.719,0,0,1,8.064-6.9ZM6.665-7.2a2.68,2.68,0,0,0-.234-1.838,1.483,1.483,0,0,0-1.355-.645,1.99,1.99,0,0,0-1.512.674,3.333,3.333,0,0,0-.8,1.809L2.2-3.472a2.667,2.667,0,0,0,.231,1.846,1.479,1.479,0,0,0,1.351.652,1.993,1.993,0,0,0,1.52-.677,3.361,3.361,0,0,0,.8-1.82Z" transform="translate(1030 6285)"/>
    <path id="Trazado_110228" data-name="Trazado 110228" d="M3.325-2.937l.11,1,.044.007L6.321-7.925h1.6l-4.7,9.141A5.148,5.148,0,0,1,2.15,2.607a2.282,2.282,0,0,1-1.6.593,2.977,2.977,0,0,1-.432-.04q-.264-.04-.41-.077L.022,1.948a1.937,1.937,0,0,1,.267.015q.289.022.37.022a1.087,1.087,0,0,0,.817-.428A4.8,4.8,0,0,0,2.1.667l.476-.828L.791-7.925H2.4Z" transform="translate(878 6342)"/>
    <path id="Trazado_110243" data-name="Trazado 110243" d="M5.208-6.65l-.732-.044a1.782,1.782,0,0,0-1,.282,2.334,2.334,0,0,0-.732.795L1.9,0H.461L1.648-7.925H2.937L2.908-6.8a3.33,3.33,0,0,1,.967-.934,2.235,2.235,0,0,1,1.194-.333,1.8,1.8,0,0,1,.3.026,1.675,1.675,0,0,1,.238.055Z" transform="translate(1118 6266)"/>
    <path id="Trazado_110229" data-name="Trazado 110229" d="M3.9-5,6.021-7.925H7.654l.022.037L4.548-4.006,6.592,0H4.937L3.625-3l-2.2,3H-.2L-.22-.037,3-4.006,1.011-7.925H2.673Z" transform="translate(1255 6338)"/>
    <path id="Trazado_110225" data-name="Trazado 110225" d="M2.029-1.165l.015.037H6.57L6.4,0H.1L.256-1.011,5.369-6.746l-.015-.037H1.172L1.34-7.925h6l-.146.981Z" transform="translate(1032 6076)"/>
    <path id="Trazado_110244" data-name="Trazado 110244" d="M6.584-2.747H2.563L1.2,0H-.271L5.171-10.664H6.409L8.577,0H7.1ZM3.164-3.955H6.35L5.486-8.533,5.442-8.54Z" transform="translate(1200 6216)"/>
    <g id="Grupo_59667" data-name="Grupo 59667" transform="translate(278.722 4690.134)">
      <g id="Grupo_59664" data-name="Grupo 59664">
        <path id="Trazado_103215" data-name="Trazado 103215" d="M801.946,1568.977c-6.293-7.671-17.515-5.006-23.645-2.737l-.694-1.875c6.628-2.456,18.806-5.286,25.885,3.342Z" fill="#00897b"/>
      </g>
      <g id="Grupo_59665" data-name="Grupo 59665">
        <path id="Trazado_103216" data-name="Trazado 103216" d="M779.93,1567.791,774,1567l3.649-4.741Z" fill="#00897b"/>
      </g>
      <g id="Grupo_59666" data-name="Grupo 59666">
        <path id="Trazado_103217" data-name="Trazado 103217" d="M799.662,1569.3,805,1572l-.328-5.974Z" fill="#00897b"/>
      </g>
    </g>
    <g id="Grupo_59669" data-name="Grupo 59669" transform="translate(278.722 4690.134)">
      <text id="_0" data-name="0" transform="translate(748.216 1487.324)" font-size="15" font-family="Roboto-Italic, Roboto" font-style="italic"><tspan x="0" y="0">0</tspan></text>
      <g id="Grupo_59668" data-name="Grupo 59668">
        <path id="Trazado_103218" data-name="Trazado 103218" d="M757.506,1477.794v-1.8h1.8v1.568a4.769,4.769,0,0,1-.125,1.238,1.289,1.289,0,0,1-.53.721,2.113,2.113,0,0,1-1.147.3v-.762a.966.966,0,0,0,.879-1.092c0-.039,0-.1-.007-.176Z"/>
      </g>
    </g>
    <g id="Grupo_59670" data-name="Grupo 59670" transform="translate(278.722 4690.134)">
      <rect id="Rectángulo_5418" data-name="Rectángulo 5418" width="11" height="1" transform="translate(838 1562.5)"/>
    </g>
    <path id="Trazado_110237" data-name="Trazado 110237" d="M5.208-6.65l-.732-.044a1.782,1.782,0,0,0-1,.282,2.334,2.334,0,0,0-.732.795L1.9,0H.461L1.648-7.925H2.937L2.908-6.8a3.33,3.33,0,0,1,.967-.934,2.235,2.235,0,0,1,1.194-.333,1.8,1.8,0,0,1,.3.026,1.675,1.675,0,0,1,.238.055Z" transform="translate(1343 6190.5)"/>
    <g id="Grupo_59671" data-name="Grupo 59671" transform="translate(278.722 4690.134)">
      <rect id="Rectángulo_5419" data-name="Rectángulo 5419" width="11" height="1" transform="translate(1063 1487)"/>
    </g>
    <path id="Trazado_110239" data-name="Trazado 110239" d="M3.457-2.336,3.5-1.78l.044.007.22-.564L6.423-7.925H7.9L3.794,0H2.7L.938-7.925H2.417Z" transform="translate(1155.315 6180.364) rotate(7.491)"/>
    <path id="Trazado_110240" data-name="Trazado 110240" d="M3.9-5,6.021-7.925H7.654l.022.037L4.548-4.006,6.592,0H4.937L3.625-3l-2.2,3H-.2L-.22-.037,3-4.006,1.011-7.925H2.673Z" transform="translate(1138.461 6178.148) rotate(7.491)"/>
    <g id="Grupo_59674" data-name="Grupo 59674" transform="translate(278.722 4690.134)">
      <rect id="Rectángulo_5422" data-name="Rectángulo 5422" width="1.001" height="11" transform="translate(876.929 1477.745) rotate(-82.511)"/>
    </g>
    <path id="Trazado_110236" data-name="Trazado 110236" d="M3.9-5,6.021-7.925H7.654l.022.037L4.548-4.006,6.592,0H4.937L3.625-3l-2.2,3H-.2L-.22-.037,3-4.006,1.011-7.925H2.673Z" transform="translate(1323 6190.5)"/>
    <path id="Trazado_110234" data-name="Trazado 110234" d="M7.537-6.028H1.428l.183-1.2H7.72ZM7.083-2.981H.974l.183-1.2H7.266Z" transform="translate(1281 6190.5)"/>
    <path id="Trazado_110233" data-name="Trazado 110233" d="M3.457-2.336,3.5-1.78l.044.007.22-.564L6.423-7.925H7.9L3.794,0H2.7L.938-7.925H2.417Z" transform="translate(1264 6190.5)"/>
    <g id="Grupo_59678" data-name="Grupo 59678" transform="translate(278.722 4690.134)">
      <rect id="Rectángulo_5426" data-name="Rectángulo 5426" width="11" height="1" transform="translate(984 1487)"/>
    </g>
    <g id="Grupo_63761" data-name="Grupo 63761">
      <g id="Grupo_59685" data-name="Grupo 59685" transform="translate(108.722 4690.134)">
        <rect id="Rectángulo_5421" data-name="Rectángulo 5421" width="11" height="1" transform="translate(922 1400)"/>
      </g>
      <path id="Trazado_110311" data-name="Trazado 110311" d="M2.421-4.755a8.613,8.613,0,0,0-.688,1.16A4.363,4.363,0,0,0,1.358-2.47,3.04,3.04,0,0,0,1.4-1.094a.679.679,0,0,0,.7.51,1.063,1.063,0,0,0,.793-.358,2.064,2.064,0,0,0,.459-1.123l.2-1.318h.87l-.2,1.318a1.689,1.689,0,0,0,.1,1.14.781.781,0,0,0,.7.341.977.977,0,0,0,.839-.527A3.525,3.525,0,0,0,6.324-2.47,3.919,3.919,0,0,0,6.282-3.6a6.02,6.02,0,0,0-.336-1.154h.91a3.778,3.778,0,0,1,.334,1.037,3.871,3.871,0,0,1,0,1.248A3.972,3.972,0,0,1,6.471-.611a1.79,1.79,0,0,1-1.5.7,1.386,1.386,0,0,1-.881-.27A1.321,1.321,0,0,1,3.63-.967a1.9,1.9,0,0,1-.688.8,1.838,1.838,0,0,1-.991.264A1.289,1.289,0,0,1,.679-.639,3.1,3.1,0,0,1,.492-2.47,4.37,4.37,0,0,1,.864-3.729a5.18,5.18,0,0,1,.653-1.026Z" transform="translate(1032 6098)"/>
    </g>
    <g id="Grupo_63762" data-name="Grupo 63762" transform="translate(945.295 -6.612) rotate(8)">
      <rect id="Rectángulo_5421-2" data-name="Rectángulo 5421" width="11" height="1" transform="translate(1034.885 6088.224)"/>
      <path id="Trazado_110311-2" data-name="Trazado 110311" d="M2.916-4.755a10.761,10.761,0,0,0-.859,1.449A5.451,5.451,0,0,0,1.587-1.9,3.8,3.8,0,0,0,1.634-.181.848.848,0,0,0,2.51.456,1.328,1.328,0,0,0,3.5.008a2.579,2.579,0,0,0,.574-1.4l.247-1.647H5.409L5.161-1.395A2.11,2.11,0,0,0,5.288.03a.976.976,0,0,0,.878.426A1.221,1.221,0,0,0,7.215-.2a4.4,4.4,0,0,0,.576-1.7,4.9,4.9,0,0,0-.052-1.414,7.521,7.521,0,0,0-.42-1.441H8.456a4.72,4.72,0,0,1,.417,1.3,4.837,4.837,0,0,1,0,1.559,4.962,4.962,0,0,1-.9,2.322A2.237,2.237,0,0,1,6.1,1.3,1.732,1.732,0,0,1,5,.963a1.651,1.651,0,0,1-.574-.986,2.37,2.37,0,0,1-.859.994A2.3,2.3,0,0,1,2.328,1.3,1.61,1.61,0,0,1,.739.387,3.868,3.868,0,0,1,.506-1.9,5.459,5.459,0,0,1,.969-3.473a6.471,6.471,0,0,1,.815-1.282Z" transform="translate(1035.234 6096.104)"/>
    </g>
    <g id="Grupo_63763" data-name="Grupo 63763" transform="translate(164.115 -1.181)">
      <rect id="Rectángulo_5421-3" data-name="Rectángulo 5421" width="11" height="1" transform="translate(1034.885 6088.224)"/>
      <path id="Trazado_110311-3" data-name="Trazado 110311" d="M2.916-4.755a10.761,10.761,0,0,0-.859,1.449A5.451,5.451,0,0,0,1.587-1.9,3.8,3.8,0,0,0,1.634-.181.848.848,0,0,0,2.51.456,1.328,1.328,0,0,0,3.5.008a2.579,2.579,0,0,0,.574-1.4l.247-1.647H5.409L5.161-1.395A2.11,2.11,0,0,0,5.288.03a.976.976,0,0,0,.878.426A1.221,1.221,0,0,0,7.215-.2a4.4,4.4,0,0,0,.576-1.7,4.9,4.9,0,0,0-.052-1.414,7.521,7.521,0,0,0-.42-1.441H8.456a4.72,4.72,0,0,1,.417,1.3,4.837,4.837,0,0,1,0,1.559,4.962,4.962,0,0,1-.9,2.322A2.237,2.237,0,0,1,6.1,1.3,1.732,1.732,0,0,1,5,.963a1.651,1.651,0,0,1-.574-.986,2.37,2.37,0,0,1-.859.994A2.3,2.3,0,0,1,2.328,1.3,1.61,1.61,0,0,1,.739.387,3.868,3.868,0,0,1,.506-1.9,5.459,5.459,0,0,1,.969-3.473a6.471,6.471,0,0,1,.815-1.282Z" transform="translate(1035.234 6096.104)"/>
    </g>
    <g id="Grupo_63764" data-name="Grupo 63764" transform="translate(272.115 92.7)">
      <rect id="Rectángulo_5421-4" data-name="Rectángulo 5421" width="11.472" height="1.043" transform="translate(1034.885 6088.224)"/>
      <path id="Trazado_110311-4" data-name="Trazado 110311" d="M3.022-4.755a11.222,11.222,0,0,0-.9,1.512,5.685,5.685,0,0,0-.49,1.466A3.961,3.961,0,0,0,1.685.015.884.884,0,0,0,2.6.679,1.385,1.385,0,0,0,3.632.212a2.69,2.69,0,0,0,.6-1.463l.258-1.718H5.622L5.364-1.251A2.2,2.2,0,0,0,5.5.235a1.018,1.018,0,0,0,.916.444A1.273,1.273,0,0,0,7.506-.008a4.593,4.593,0,0,0,.6-1.769,5.107,5.107,0,0,0-.054-1.474,7.844,7.844,0,0,0-.438-1.5H8.8A4.923,4.923,0,0,1,9.235-3.4a5.044,5.044,0,0,1,0,1.626A5.175,5.175,0,0,1,8.3.645a2.333,2.333,0,0,1-1.955.916A1.806,1.806,0,0,1,5.2,1.209,1.722,1.722,0,0,1,4.6.181a2.471,2.471,0,0,1-.9,1.036,2.4,2.4,0,0,1-1.291.344A1.679,1.679,0,0,1,.752.608,4.034,4.034,0,0,1,.508-1.777,5.694,5.694,0,0,1,.992-3.418a6.749,6.749,0,0,1,.85-1.337Z" transform="translate(1035.268 6096.237)"/>
    </g>
    <path id="Trazado_110313" data-name="Trazado 110313" d="M6-7.4H7.369L3.76-.424,3.268,2.851H1.921l.5-3.309L.875-7.4H2.256l.971,5.216.041.52.041.007.205-.526Z" transform="translate(1068 6244)"/>
  </g>
</svg>
