<svg xmlns="http://www.w3.org/2000/svg" xmlns:xlink="http://www.w3.org/1999/xlink" width="869" height="92" viewBox="0 0 869 92">
  <defs>
    <clipPath id="clip-path">
      <rect id="Rectángulo_5746" data-name="Rectángulo 5746" width="869" height="92" transform="translate(293 528)" fill="#00897b" stroke="#00897b" stroke-width="1"/>
    </clipPath>
  </defs>
  <g id="Enmascarar_grupo_59" data-name="Enmascarar grupo 59" transform="translate(-293 -528)" clip-path="url(#clip-path)">
    <g id="Grupo_16439" data-name="Grupo 16439" transform="translate(25.364 -1211.428)">
      <path id="Trazado_40585" data-name="Trazado 40585" d="M7.97-18.072a.281.281,0,0,1,.059.1,1.028,1.028,0,0,1,.007.152V-1.986q0,1.01.539,1.289a5.387,5.387,0,0,0,2.012.329V0H3.17V-.395A4.346,4.346,0,0,0,5.248-.828q.487-.355.487-1.539V-14.546a2.29,2.29,0,0,0-.158-.96.68.68,0,0,0-.684-.329,2.839,2.839,0,0,0-.888.191q-.546.191-1.02.4v-.368l4.826-2.463Zm5.55,17.7a3.232,3.232,0,0,0,1.664-.421,1.834,1.834,0,0,0,.4-1.42V-15.388q0-.934-.316-1.184a1.434,1.434,0,0,0-.908-.25q-.25,0-.434.013t-.407.04v-.368l1.184-.316q1.355-.355,2.3-.673a4.056,4.056,0,0,1,.673-.2q.079,0,.1.033a.357.357,0,0,1,.02.152V-7.078l3.643-3.209a3.347,3.347,0,0,0,.533-.566.7.7,0,0,0,.138-.368.36.36,0,0,0-.3-.381,5.953,5.953,0,0,0-1.064-.115v-.368h5.485v.368a5.644,5.644,0,0,0-2.368.585,24.491,24.491,0,0,0-3.434,2.821l-.774.709L22.1-4.444a23.165,23.165,0,0,0,2.815,3.216,3.579,3.579,0,0,0,2.011.887V0H21.07V-.368l.461-.026a1.207,1.207,0,0,0,.407-.092.269.269,0,0,0,.184-.263.57.57,0,0,0-.067-.269,2.166,2.166,0,0,0-.184-.283L17.8-6.667V-1.8a1.193,1.193,0,0,0,.673,1.212,3.629,3.629,0,0,0,1.355.2V0h-6.3Zm16.059,2.8a1.558,1.558,0,0,0,1.243,1.526,8.864,8.864,0,0,0,2.847.418,7.306,7.306,0,0,0,3.551-.756,2.174,2.174,0,0,0,1.365-1.859q0-.881-1.105-1.17a13.5,13.5,0,0,0-2.588-.2Q34.406.381,33.868.362T32.881.316Q32.593.3,31.947.211t-.96-.158q-.158,0-.776.828a2.661,2.661,0,0,0-.632,1.552Zm1.71-6.852a3.444,3.444,0,0,1-1.862-1.407A4.058,4.058,0,0,1,28.764-8.1a4.352,4.352,0,0,1,1.223-2.92A4.377,4.377,0,0,1,33.446-12.4a5.853,5.853,0,0,1,2.118.454,6.082,6.082,0,0,0,2.222.454q.276,0,.835-.02t.808-.02h.158v1.065H37.314q.237.552.368.96a5.148,5.148,0,0,1,.224,1.446,3.852,3.852,0,0,1-1.243,2.756,4.5,4.5,0,0,1-3.348,1.256,10.275,10.275,0,0,1-1.184-.119q-.381,0-1.006.644A1.773,1.773,0,0,0,30.5-2.472q0,.421.921.618a6.33,6.33,0,0,0,1.341.135,18.012,18.012,0,0,1,4.59.381,2.559,2.559,0,0,1,1.986,2.657,3.714,3.714,0,0,1-2.321,3.315,9.882,9.882,0,0,1-4.689,1.236,5.914,5.914,0,0,1-3.42-.875,2.374,2.374,0,0,1-1.263-1.835,1.549,1.549,0,0,1,.337-.927A10.943,10.943,0,0,1,29.3.885l.865-.78.158-.158a4.078,4.078,0,0,1-.908-.461,1.172,1.172,0,0,1-.526-.934,1.811,1.811,0,0,1,.454-1.072,17.4,17.4,0,0,1,1.943-1.9Zm2.5-.263A1.859,1.859,0,0,0,35-5.077a2.666,2.666,0,0,0,.787-2.2,7.564,7.564,0,0,0-.638-2.815,2.191,2.191,0,0,0-2.125-1.562,1.772,1.772,0,0,0-1.776,1.223A4.425,4.425,0,0,0,31-8.836a5.432,5.432,0,0,0,.776,2.88,2.3,2.3,0,0,0,2.013,1.273Zm27.752-.329V-3.17h-13.6V-5.011Zm0-5.432V-8.6h-13.6v-1.841Z" transform="translate(264.65 1790.594)" fill="#00897b"/>
      <path id="Trazado_40550" data-name="Trazado 40550" d="M1391.263,250.508H1818.2" transform="translate(-1049.845 1534.026)" fill="none" stroke="#00897b" stroke-width="1.347"/>
      <path id="Trazado_40586" data-name="Trazado 40586" d="M-81.677-5.985a6.775,6.775,0,0,1-1.545,4.34A4.9,4.9,0,0,1-87.241.29a5.548,5.548,0,0,1-4.216-2.17,8.45,8.45,0,0,1-1.9-5.774,10.38,10.38,0,0,1,3.683-7.968,11.133,11.133,0,0,1,7.392-2.789l.067.434a13,13,0,0,0-2.834.822A6.869,6.869,0,0,0-87.173-15.7a11.254,11.254,0,0,0-1.8,2.407,10.192,10.192,0,0,0-1.158,2.9,9.668,9.668,0,0,1,1.407-.737,5.661,5.661,0,0,1,2.118-.421A4.726,4.726,0,0,1-83.1-10.115a5.649,5.649,0,0,1,1.422,4.13Zm-2.407,1.01a8.167,8.167,0,0,0-.552-3.1,3.2,3.2,0,0,0-3.13-2.262,2.817,2.817,0,0,0-2.709,1.212A5.185,5.185,0,0,0-90.87-6.76a10.213,10.213,0,0,0,.914,4.2A3.025,3.025,0,0,0-87.072-.513,2.4,2.4,0,0,0-84.8-1.848a6.556,6.556,0,0,0,.712-3.124Zm9.874,4.7A3.774,3.774,0,0,1-75.17,2.2a5.919,5.919,0,0,1-2.061,1.642l-.25-.526a4.479,4.479,0,0,0,1.743-1.539,2.933,2.933,0,0,0,.48-1.381.231.231,0,0,0-.119-.237.606.606,0,0,0-.247-.051L-76.505.2a1.6,1.6,0,0,1-1.01-.362,1.251,1.251,0,0,1-.465-1.048A1.675,1.675,0,0,1-77.6-2.238a1.473,1.473,0,0,1,1.249-.5,2.061,2.061,0,0,1,1.486.651,2.43,2.43,0,0,1,.655,1.81Zm12.731-5.708a6.775,6.775,0,0,1-1.545,4.34A4.9,4.9,0,0,1-67.039.29a5.548,5.548,0,0,1-4.216-2.17,8.45,8.45,0,0,1-1.9-5.774,10.38,10.38,0,0,1,3.683-7.968,11.133,11.133,0,0,1,7.392-2.789l.067.434a13,13,0,0,0-2.837.82A6.869,6.869,0,0,0-66.973-15.7a11.254,11.254,0,0,0-1.8,2.407,10.191,10.191,0,0,0-1.158,2.9,9.668,9.668,0,0,1,1.407-.737,5.661,5.661,0,0,1,2.118-.421A4.726,4.726,0,0,1-62.9-10.115a5.649,5.649,0,0,1,1.422,4.13Zm-2.407,1.01a8.167,8.167,0,0,0-.552-3.1,3.2,3.2,0,0,0-3.13-2.262,2.817,2.817,0,0,0-2.709,1.212,5.185,5.185,0,0,0-.395,2.368,10.214,10.214,0,0,0,.914,4.2A3.025,3.025,0,0,0-66.87-.513a2.4,2.4,0,0,0,2.275-1.335,6.556,6.556,0,0,0,.712-3.124Zm4.077,4.669a85.578,85.578,0,0,0,6.537-7.34,7.735,7.735,0,0,0,1.723-4.564A3.943,3.943,0,0,0-52.6-15.172a3.485,3.485,0,0,0-2.512-1.02,3.649,3.649,0,0,0-2.92,1.315,7.632,7.632,0,0,0-1.184,2.222l-.566-.119a6.869,6.869,0,0,1,2.23-4.2,5.522,5.522,0,0,1,3.374-1.177,4.815,4.815,0,0,1,3.6,1.4,4.706,4.706,0,0,1,1.374,3.426,6.878,6.878,0,0,1-1.486,4.156A89.5,89.5,0,0,1-57.15-2.053h6.038a3.742,3.742,0,0,0,1.776-.3A3.944,3.944,0,0,0-48.178-3.83l.342.158L-49.294,0H-59.8Zm25.266-5.682a6.775,6.775,0,0,1-1.545,4.34A4.9,4.9,0,0,1-40.1.29a5.548,5.548,0,0,1-4.216-2.17,8.45,8.45,0,0,1-1.9-5.774,10.38,10.38,0,0,1,3.683-7.968,11.133,11.133,0,0,1,7.392-2.789l.067.434a13,13,0,0,0-2.837.82A6.869,6.869,0,0,0-40.037-15.7a11.254,11.254,0,0,0-1.8,2.407A10.192,10.192,0,0,0-43-10.4a9.668,9.668,0,0,1,1.407-.737,5.661,5.661,0,0,1,2.118-.421,4.726,4.726,0,0,1,3.511,1.445,5.649,5.649,0,0,1,1.422,4.13Zm-2.407,1.01a8.167,8.167,0,0,0-.552-3.1,3.2,3.2,0,0,0-3.13-2.262A2.817,2.817,0,0,0-43.339-9.13a5.185,5.185,0,0,0-.395,2.368,10.214,10.214,0,0,0,.914,4.2A3.025,3.025,0,0,0-39.933-.513a2.4,2.4,0,0,0,2.275-1.335,6.556,6.556,0,0,0,.712-3.124Zm16.456,4.49A2.69,2.69,0,0,0-17.835-2.6a19.945,19.945,0,0,0,.723-6.128,23.923,23.923,0,0,0-.434-5.1q-.815-3.551-3.051-3.551t-3.065,3.657A24.422,24.422,0,0,0-24.1-8.6a20.422,20.422,0,0,0,.447,4.774Q-22.806-.487-20.492-.487Zm-.04-17.611q3.025,0,4.7,3.17a12.629,12.629,0,0,1,1.329,5.892A14.737,14.737,0,0,1-15.323-4.1Q-16.861.25-20.649.25a5.038,5.038,0,0,1-4.261-2.357A11.567,11.567,0,0,1-26.7-8.933a13.167,13.167,0,0,1,1.2-5.84A5.258,5.258,0,0,1-20.531-18.1Zm19.15.276v.434L-7.089.25H-8.825L-3.5-15.836H-9.236a3.1,3.1,0,0,0-1.835.421,7.144,7.144,0,0,0-1.414,1.762l-.461-.21q.855-2.1,1.059-2.6t.533-1.361ZM6.445-.487A2.69,2.69,0,0,0,9.1-2.6a19.945,19.945,0,0,0,.723-6.128,23.922,23.922,0,0,0-.434-5.1q-.815-3.552-3.051-3.552T3.275-13.731A24.422,24.422,0,0,0,2.84-8.6a20.422,20.422,0,0,0,.447,4.774Q4.13-.487,6.445-.487ZM6.405-18.1q3.025,0,4.7,3.17A12.629,12.629,0,0,1,12.43-9.036,14.737,14.737,0,0,1,11.614-4.1Q10.075.25,6.287.25A5.038,5.038,0,0,1,2.026-2.107,11.554,11.554,0,0,1,.237-8.931a13.167,13.167,0,0,1,1.2-5.84A5.258,5.258,0,0,1,6.405-18.1Zm15.033.026a.281.281,0,0,1,.059.1,1.027,1.027,0,0,1,.007.152V-1.986q0,1.01.539,1.289a5.387,5.387,0,0,0,2.012.329V0H16.638V-.395a4.346,4.346,0,0,0,2.078-.434q.487-.355.487-1.539V-14.546a2.29,2.29,0,0,0-.158-.96.68.68,0,0,0-.684-.329,2.839,2.839,0,0,0-.888.191q-.546.191-1.02.4v-.368l4.826-2.463Zm7.51,15.665a3.816,3.816,0,0,1,1.966.848,3.805,3.805,0,0,0,1.874.848,3.381,3.381,0,0,0,2.644-1.335,4.9,4.9,0,0,0,1.133-3.282q0-3.407-3.63-4.906a9.893,9.893,0,0,0-3.748-.828,1.9,1.9,0,0,1-.362-.02.43.43,0,0,1-.178-.138q.026-.105.046-.178a1.273,1.273,0,0,1,.046-.138l2.867-6.287H37.25a1.225,1.225,0,0,0,.651-.145,3.4,3.4,0,0,0,.6-.539l.211.184-1.026,2.433q-.053.119-.29.152a3.738,3.738,0,0,1-.513.033H31.79l-1.118,2.3a24.017,24.017,0,0,1,3.157.7,7.105,7.105,0,0,1,2.749,1.631,6.393,6.393,0,0,1,1.434,2.1A6.33,6.33,0,0,1,38.5-6.509a6.386,6.386,0,0,1-2.071,4.853A7.351,7.351,0,0,1,31.185.29,7.071,7.071,0,0,1,29.107.04q-1.315-.408-1.315-1.46a.968.968,0,0,1,.283-.69,1.159,1.159,0,0,1,.874-.3Zm24.425-9.68v.368a2.744,2.744,0,0,0-.847.136.5.5,0,0,0-.349.519,4.885,4.885,0,0,0,.7,1.407q.368.606.934,1.486.776-1.065,1.158-1.67A3.473,3.473,0,0,0,55.61-11.1a.453.453,0,0,0-.276-.461,2.545,2.545,0,0,0-.776-.158v-.368h4.23v.368a3.145,3.145,0,0,0-1.249.362,2.61,2.61,0,0,0-.934.822L54.356-7.288l3.472,5.261A4.7,4.7,0,0,0,58.966-.7a2.1,2.1,0,0,0,1.072.329V0H54.609V-.368l.381-.026A.943.943,0,0,0,55.5-.578a.481.481,0,0,0,.2-.395,3.252,3.252,0,0,0-.5-1.105q-.237-.421-.71-1.145-.224-.355-.664-.987t-.741-1.077l-2.118,3.3a8.738,8.738,0,0,0-.471.789.818.818,0,0,0-.092.329.317.317,0,0,0,.2.329,4.9,4.9,0,0,0,.888.171V0H47.6V-.368a3.127,3.127,0,0,0,1.053-.368,4.139,4.139,0,0,0,.908-1.039l3.065-4.459L50.1-10.062a6.763,6.763,0,0,0-1.052-1.355,2.925,2.925,0,0,0-1.263-.3v-.368Zm21.938-5.985a.281.281,0,0,1,.059.1,1.026,1.026,0,0,1,.007.152V-1.986q0,1.01.539,1.289a5.387,5.387,0,0,0,2.012.329V0H70.511V-.395a4.346,4.346,0,0,0,2.078-.434q.487-.355.487-1.539V-14.546a2.289,2.289,0,0,0-.158-.96.68.68,0,0,0-.684-.329,2.839,2.839,0,0,0-.888.191q-.546.191-1.02.4v-.368l4.827-2.459ZM87.254-.487A2.69,2.69,0,0,0,89.91-2.6a19.945,19.945,0,0,0,.723-6.128,23.923,23.923,0,0,0-.434-5.1q-.815-3.551-3.051-3.551T84.083-13.73A24.423,24.423,0,0,0,83.649-8.6,20.421,20.421,0,0,0,84.1-3.826Q84.939-.487,87.254-.487ZM87.214-18.1q3.025,0,4.7,3.17a12.629,12.629,0,0,1,1.329,5.892A14.737,14.737,0,0,1,92.423-4.1Q90.884.25,87.1.25a5.038,5.038,0,0,1-4.261-2.357,11.567,11.567,0,0,1-1.789-6.826,13.167,13.167,0,0,1,1.2-5.84A5.258,5.258,0,0,1,87.215-18.1Z" transform="translate(449.164 1814.164)" fill="#00897b"/>
      <path id="Trazado_40555" data-name="Trazado 40555" d="M1331.357,220.2s12.022,14.441,0,34.9" transform="translate(-758.258 1568.925)" fill="none" stroke="#00897b" stroke-width="1.347"/>
      <path id="Trazado_40587" data-name="Trazado 40587" d="M-9.718-3.978h3.8v.968h-3.8Zm5.755,2.662a2.273,2.273,0,0,1,1.1.431A2.31,2.31,0,0,0-1.7-.454,1.809,1.809,0,0,0-.129-1.168,2.606,2.606,0,0,0,.386-2.723,2.47,2.47,0,0,0-.03-4.144,2.659,2.659,0,0,0-2.4-5.181q-.1,0-.189,0t-.211.019l-.015-.2A6.554,6.554,0,0,0-.914-6.36a1.836,1.836,0,0,0,.695-1.5A1.5,1.5,0,0,0-.768-9.113,1.97,1.97,0,0,0-2.02-9.544a2.051,2.051,0,0,0-1.467.613A4.682,4.682,0,0,0-4.236-7.9l-.234-.053A3.47,3.47,0,0,1-3.344-9.794a2.886,2.886,0,0,1,1.906-.688A2.411,2.411,0,0,1,.35-9.847,2.02,2.02,0,0,1,.982-8.38,2.03,2.03,0,0,1,.46-7.033a4.839,4.839,0,0,1-.914.778,3.906,3.906,0,0,1,1.165.727,2.674,2.674,0,0,1,.824,2.011A3.43,3.43,0,0,1,.4-.983,4.434,4.434,0,0,1-2.814.113a2.283,2.283,0,0,1-1.3-.276.76.76,0,0,1-.374-.594.658.658,0,0,1,.125-.378.456.456,0,0,1,.4-.18ZM7.094-8.833,3.381-3.585H7.094Zm.5-1.558h.719v6.806h1.58v1.005H8.311V0h-1.2V-2.579H2.753V-3.585Z" transform="translate(556.236 1805.409)" fill="#00897b"/>
      <path id="Trazado_40556" data-name="Trazado 40556" d="M1336.7,220.2s-12.022,14.441,0,34.9" transform="translate(-984.524 1568.925)" fill="none" stroke="#00897b" stroke-width="1.347"/>
      <path id="Trazado_40557" data-name="Trazado 40557" d="M1336.7,220.2s-12.022,14.441,0,34.9" transform="translate(-984.524 1568.925)" fill="none" stroke="#00897b" stroke-width="1.347"/>
      <path id="Trazado_40588" data-name="Trazado 40588" d="M-3.411-.174A49.206,49.206,0,0,0,.348-4.394,4.448,4.448,0,0,0,1.339-7.02,2.267,2.267,0,0,0,.733-8.725,2,2,0,0,0-.712-9.311a2.1,2.1,0,0,0-1.678.759,4.389,4.389,0,0,0-.681,1.279L-3.4-7.34A3.95,3.95,0,0,1-2.117-9.756a3.175,3.175,0,0,1,1.943-.681,2.768,2.768,0,0,1,2.069.808,2.706,2.706,0,0,1,.791,1.97A3.955,3.955,0,0,1,1.83-5.271,51.459,51.459,0,0,1-1.886-1.18H1.588a2.155,2.155,0,0,0,1.022-.174A2.268,2.268,0,0,0,3.275-2.2l.2.091L2.632,0H-3.411Z" transform="translate(606.741 1756.924)" fill="#00897b"/>
      <path id="Trazado_40589" data-name="Trazado 40589" d="M-67.354-7.536a3.973,3.973,0,0,0,1.848-.5q.954-.5,1.085-.842a5.262,5.262,0,0,0,.092-.98q.04-.848.04-1.374a9.353,9.353,0,0,0-.921-4.444,2.916,2.916,0,0,0-2.694-1.71,2.42,2.42,0,0,0-2.088,1.17,6.257,6.257,0,0,0-.8,3.5,8.463,8.463,0,0,0,.741,3.551A2.7,2.7,0,0,0-67.354-7.536Zm-.368-10.6a5.1,5.1,0,0,1,4.472,2.308,8.918,8.918,0,0,1,1.578,5.149,11.857,11.857,0,0,1-.753,4.064,11.328,11.328,0,0,1-2.183,3.683A10.069,10.069,0,0,1-68.843-.158a17.422,17.422,0,0,1-3.616.789l-.135-.526a16.633,16.633,0,0,0,2.275-.673A8.081,8.081,0,0,0-67.7-2.146a10.959,10.959,0,0,0,2.23-2.963,10.818,10.818,0,0,0,1.046-2.742l-.461.342a5.665,5.665,0,0,1-2.29,1.01,5.6,5.6,0,0,1-1.249.158,4.356,4.356,0,0,1-3.545-1.585,5.75,5.75,0,0,1-1.308-3.781,6.835,6.835,0,0,1,1.558-4.616,5.025,5.025,0,0,1,4-1.813Zm21.818.067a.281.281,0,0,1,.059.1,1.028,1.028,0,0,1,.007.152V-1.986q0,1.01.539,1.289a5.387,5.387,0,0,0,2.012.329V0H-50.7V-.395a4.346,4.346,0,0,0,2.078-.434q.487-.355.487-1.539V-14.546a2.289,2.289,0,0,0-.158-.96.68.68,0,0,0-.684-.329,2.839,2.839,0,0,0-.888.191q-.546.191-1.02.4v-.368l4.827-2.459Zm12.22,10.533a3.973,3.973,0,0,0,1.848-.5q.954-.5,1.085-.842a5.264,5.264,0,0,0,.092-.98q.04-.848.04-1.374a9.353,9.353,0,0,0-.921-4.444,2.916,2.916,0,0,0-2.694-1.71,2.42,2.42,0,0,0-2.088,1.17,6.257,6.257,0,0,0-.8,3.5,8.463,8.463,0,0,0,.741,3.551,2.7,2.7,0,0,0,2.692,1.627Zm-.368-10.6a5.1,5.1,0,0,1,4.472,2.308A8.918,8.918,0,0,1-28-10.68a11.857,11.857,0,0,1-.753,4.064,11.328,11.328,0,0,1-2.183,3.683A10.069,10.069,0,0,1-35.17-.158a17.422,17.422,0,0,1-3.618.789l-.135-.526a16.633,16.633,0,0,0,2.275-.673A8.081,8.081,0,0,0-34.03-2.146,10.96,10.96,0,0,0-31.8-5.109a10.818,10.818,0,0,0,1.046-2.742l-.461.342A5.665,5.665,0,0,1-33.5-6.5a5.6,5.6,0,0,1-1.249.158A4.356,4.356,0,0,1-38.3-7.927a5.75,5.75,0,0,1-1.308-3.781,6.835,6.835,0,0,1,1.558-4.616,5.025,5.025,0,0,1,4-1.813ZM-26.134-.3A85.577,85.577,0,0,0-19.6-7.643a7.735,7.735,0,0,0,1.723-4.564,3.943,3.943,0,0,0-1.052-2.963,3.485,3.485,0,0,0-2.512-1.02,3.649,3.649,0,0,0-2.92,1.315,7.632,7.632,0,0,0-1.184,2.222l-.566-.119a6.869,6.869,0,0,1,2.23-4.2A5.522,5.522,0,0,1-20.5-18.149a4.815,4.815,0,0,1,3.6,1.4,4.706,4.706,0,0,1,1.374,3.426,6.878,6.878,0,0,1-1.486,4.156,89.5,89.5,0,0,1-6.458,7.115h6.035a3.742,3.742,0,0,0,1.776-.306A3.944,3.944,0,0,0-14.507-3.83l.342.158L-15.623,0H-26.134Zm32-5.682A6.774,6.774,0,0,1,4.321-1.644,4.9,4.9,0,0,1,.3.29a5.548,5.548,0,0,1-4.216-2.17,8.45,8.45,0,0,1-1.9-5.774,10.38,10.38,0,0,1,3.683-7.968,11.133,11.133,0,0,1,7.392-2.791l.067.434a13,13,0,0,0-2.837.822A6.869,6.869,0,0,0,.368-15.7a11.254,11.254,0,0,0-1.8,2.407,10.192,10.192,0,0,0-1.158,2.9,9.668,9.668,0,0,1,1.407-.737,5.661,5.661,0,0,1,2.118-.421,4.726,4.726,0,0,1,3.51,1.444,5.649,5.649,0,0,1,1.422,4.13ZM3.459-4.974a8.167,8.167,0,0,0-.552-3.1,3.2,3.2,0,0,0-3.131-2.26A2.817,2.817,0,0,0-2.933-9.126a5.185,5.185,0,0,0-.395,2.368,10.214,10.214,0,0,0,.914,4.2A3.025,3.025,0,0,0,.471-.513,2.4,2.4,0,0,0,2.749-1.848a6.556,6.556,0,0,0,.71-3.124ZM8.825-2.29a3.954,3.954,0,0,1,1.914.75,4.017,4.017,0,0,0,2.02.75A3.145,3.145,0,0,0,15.5-2.034a4.532,4.532,0,0,0,.894-2.7,4.3,4.3,0,0,0-.725-2.469,4.625,4.625,0,0,0-4.13-1.8q-.171,0-.329.007t-.368.033l-.026-.342a11.4,11.4,0,0,0,3.315-1.751,3.194,3.194,0,0,0,1.212-2.6,2.611,2.611,0,0,0-.954-2.183,3.426,3.426,0,0,0-2.176-.75,3.569,3.569,0,0,0-2.552,1.065A8.142,8.142,0,0,0,8.35-13.744l-.407-.092a6.035,6.035,0,0,1,1.96-3.2,5.02,5.02,0,0,1,3.315-1.2,4.192,4.192,0,0,1,3.11,1.105,3.515,3.515,0,0,1,1.1,2.552,3.531,3.531,0,0,1-.908,2.341,8.418,8.418,0,0,1-1.591,1.355,6.793,6.793,0,0,1,2.026,1.263,4.651,4.651,0,0,1,1.434,3.5A5.966,5.966,0,0,1,16.42-1.706a7.717,7.717,0,0,1-5.6,1.9,3.973,3.973,0,0,1-2.269-.48A1.323,1.323,0,0,1,7.9-1.315a1.145,1.145,0,0,1,.217-.658A.793.793,0,0,1,8.825-2.29ZM28.172-18.072a.281.281,0,0,1,.059.1,1.028,1.028,0,0,1,.007.152V-1.986q0,1.01.539,1.289a5.387,5.387,0,0,0,2.012.329V0H23.372V-.395A4.346,4.346,0,0,0,25.45-.829q.487-.355.487-1.539V-14.546a2.29,2.29,0,0,0-.158-.96.68.68,0,0,0-.684-.329,2.839,2.839,0,0,0-.888.191q-.546.191-1.02.4v-.368l4.826-2.463Zm17.585.25v.434L40.05.25H38.314l5.323-16.086H37.906a3.1,3.1,0,0,0-1.835.421,7.144,7.144,0,0,0-1.414,1.762l-.461-.21q.855-2.1,1.059-2.6t.533-1.361Zm13.468,0v.434L53.518.25H51.782l5.323-16.086H51.374a3.1,3.1,0,0,0-1.835.421,7.144,7.144,0,0,0-1.414,1.762l-.461-.21q.855-2.1,1.059-2.6t.533-1.361ZM67.051-.487A2.69,2.69,0,0,0,69.708-2.6a19.945,19.945,0,0,0,.723-6.128,23.922,23.922,0,0,0-.434-5.1q-.816-3.551-3.051-3.551T63.881-13.73A24.423,24.423,0,0,0,63.447-8.6a20.422,20.422,0,0,0,.447,4.774Q64.737-.487,67.051-.487ZM67.012-18.1q3.025,0,4.7,3.17a12.63,12.63,0,0,1,1.329,5.892A14.737,14.737,0,0,1,72.22-4.1Q70.682.25,66.894.25a5.038,5.038,0,0,1-4.261-2.357,11.567,11.567,0,0,1-1.789-6.826,13.167,13.167,0,0,1,1.2-5.84A5.258,5.258,0,0,1,67.012-18.1Z" transform="translate(671.389 1816.184)" fill="#00897b"/>
      <path id="Trazado_40590" data-name="Trazado 40590" d="M-78.441-6.76A12.581,12.581,0,0,1-75.705-14.8,13.512,13.512,0,0,1-71.732-18.2l.25.434a12.012,12.012,0,0,0-3.025,3.275A14.82,14.82,0,0,0-76.1-7.1a21.958,21.958,0,0,0,.606,5.642,9.724,9.724,0,0,0,4.011,5.826l-.342.434a11.246,11.246,0,0,1-3.5-3.038A12.965,12.965,0,0,1-78.441-6.76ZM-63.171-.3a85.577,85.577,0,0,0,6.537-7.34,7.735,7.735,0,0,0,1.723-4.564,3.943,3.943,0,0,0-1.052-2.963,3.485,3.485,0,0,0-2.512-1.02,3.649,3.649,0,0,0-2.92,1.315,7.632,7.632,0,0,0-1.184,2.222l-.566-.119a6.869,6.869,0,0,1,2.23-4.2,5.522,5.522,0,0,1,3.374-1.177,4.815,4.815,0,0,1,3.6,1.4,4.706,4.706,0,0,1,1.374,3.426,6.877,6.877,0,0,1-1.486,4.156,89.494,89.494,0,0,1-6.458,7.115h6.034A3.742,3.742,0,0,0-52.7-2.357,3.944,3.944,0,0,0-51.545-3.83l.342.158L-52.661,0H-63.172Zm19.386-7.234a3.973,3.973,0,0,0,1.848-.5q.954-.5,1.085-.842a5.264,5.264,0,0,0,.092-.98q.04-.848.04-1.374a9.353,9.353,0,0,0-.921-4.444,2.916,2.916,0,0,0-2.694-1.71,2.42,2.42,0,0,0-2.088,1.17,6.257,6.257,0,0,0-.8,3.5,8.463,8.463,0,0,0,.741,3.551,2.7,2.7,0,0,0,2.692,1.627Zm-.368-10.6a5.1,5.1,0,0,1,4.472,2.308A8.918,8.918,0,0,1-38.1-10.68a11.857,11.857,0,0,1-.753,4.064,11.328,11.328,0,0,1-2.183,3.683A10.069,10.069,0,0,1-45.271-.158a17.422,17.422,0,0,1-3.618.789l-.135-.526a16.633,16.633,0,0,0,2.275-.673,8.081,8.081,0,0,0,2.618-1.578A10.96,10.96,0,0,0-41.9-5.109a10.818,10.818,0,0,0,1.046-2.742l-.461.342a5.665,5.665,0,0,1-2.29,1.01,5.6,5.6,0,0,1-1.249.158A4.356,4.356,0,0,1-48.4-7.927a5.75,5.75,0,0,1-1.308-3.781,6.835,6.835,0,0,1,1.558-4.616,5.025,5.025,0,0,1,4-1.813Zm13.837,10.6a3.973,3.973,0,0,0,1.848-.5q.954-.5,1.085-.842a5.264,5.264,0,0,0,.092-.98q.04-.848.04-1.374a9.353,9.353,0,0,0-.921-4.444,2.916,2.916,0,0,0-2.694-1.71,2.42,2.42,0,0,0-2.088,1.17,6.257,6.257,0,0,0-.8,3.5,8.463,8.463,0,0,0,.741,3.551A2.7,2.7,0,0,0-30.317-7.536Zm-.368-10.6a5.1,5.1,0,0,1,4.472,2.308,8.918,8.918,0,0,1,1.578,5.149,11.857,11.857,0,0,1-.753,4.064,11.328,11.328,0,0,1-2.183,3.683A10.069,10.069,0,0,1-31.8-.158a17.422,17.422,0,0,1-3.618.789l-.135-.526a16.633,16.633,0,0,0,2.275-.673,8.081,8.081,0,0,0,2.618-1.578,10.96,10.96,0,0,0,2.23-2.963,10.818,10.818,0,0,0,1.046-2.742l-.461.342a5.665,5.665,0,0,1-2.29,1.01,5.6,5.6,0,0,1-1.249.158,4.356,4.356,0,0,1-3.545-1.585,5.75,5.75,0,0,1-1.308-3.781,6.835,6.835,0,0,1,1.558-4.616,5.025,5.025,0,0,1,4-1.813Zm25.937.316v.434L-10.456.25h-1.736l5.327-16.086H-12.6a3.1,3.1,0,0,0-1.835.421,7.144,7.144,0,0,0-1.414,1.762l-.461-.21q.855-2.1,1.059-2.6t.533-1.361Zm8.1,10.285a3.973,3.973,0,0,0,1.848-.5q.954-.5,1.085-.842a5.264,5.264,0,0,0,.092-.98q.04-.848.04-1.374A9.353,9.353,0,0,0,5.5-15.676,2.916,2.916,0,0,0,2.8-17.386a2.42,2.42,0,0,0-2.088,1.17,6.257,6.257,0,0,0-.8,3.5A8.463,8.463,0,0,0,.661-9.163,2.7,2.7,0,0,0,3.354-7.536Zm-.368-10.6a5.1,5.1,0,0,1,4.472,2.308A8.918,8.918,0,0,1,9.036-10.68a11.857,11.857,0,0,1-.754,4.065A11.328,11.328,0,0,1,6.1-2.933,10.069,10.069,0,0,1,1.867-.158,17.422,17.422,0,0,1-1.751.632L-1.886.106A16.633,16.633,0,0,0,.39-.568,8.081,8.081,0,0,0,3.012-2.144a10.96,10.96,0,0,0,2.23-2.963A10.818,10.818,0,0,0,6.287-7.852l-.461.342A5.665,5.665,0,0,1,3.537-6.5a5.6,5.6,0,0,1-1.247.16A4.356,4.356,0,0,1-1.255-7.925a5.75,5.75,0,0,1-1.308-3.781,6.835,6.835,0,0,1,1.558-4.616,5.025,5.025,0,0,1,3.991-1.816ZM10.9-.3a85.576,85.576,0,0,0,6.537-7.34,7.735,7.735,0,0,0,1.723-4.564,3.943,3.943,0,0,0-1.052-2.963,3.485,3.485,0,0,0-2.512-1.02,3.649,3.649,0,0,0-2.92,1.315A7.632,7.632,0,0,0,11.5-12.651l-.566-.119a6.869,6.869,0,0,1,2.23-4.2,5.522,5.522,0,0,1,3.374-1.177,4.815,4.815,0,0,1,3.6,1.4,4.706,4.706,0,0,1,1.374,3.426,6.878,6.878,0,0,1-1.486,4.156,89.5,89.5,0,0,1-6.458,7.115H19.6a3.742,3.742,0,0,0,1.776-.306A3.944,3.944,0,0,0,22.53-3.83l.342.158L21.414,0H10.9ZM38.155-15.362,31.7-6.234h6.458Zm.868-2.709H40.27V-6.234h2.749v1.751H40.27V0H38.182V-4.485H30.606V-6.236Zm6.76,15.664a3.816,3.816,0,0,1,1.966.848,3.805,3.805,0,0,0,1.874.848,3.381,3.381,0,0,0,2.644-1.335A4.9,4.9,0,0,0,53.4-5.327q0-3.407-3.63-4.906a9.893,9.893,0,0,0-3.748-.828,1.9,1.9,0,0,1-.362-.02.43.43,0,0,1-.178-.138q.026-.105.046-.178a1.275,1.275,0,0,1,.046-.138l2.867-6.287h5.642a1.225,1.225,0,0,0,.651-.145,3.4,3.4,0,0,0,.6-.539l.211.184L54.52-15.888q-.053.119-.29.152a3.738,3.738,0,0,1-.513.033H48.625l-1.118,2.3a24.017,24.017,0,0,1,3.157.7,7.105,7.105,0,0,1,2.749,1.631,6.393,6.393,0,0,1,1.434,2.1,6.33,6.33,0,0,1,.487,2.466,6.386,6.386,0,0,1-2.071,4.853A7.351,7.351,0,0,1,48.02.29,7.071,7.071,0,0,1,45.942.04q-1.315-.408-1.315-1.46a.968.968,0,0,1,.283-.69,1.159,1.159,0,0,1,.874-.3ZM64.013-.447a2.963,2.963,0,0,0,2.29-.842,2.986,2.986,0,0,0,.776-2.1,3.281,3.281,0,0,0-.822-2.321A24.389,24.389,0,0,0,62.882-8.4a4.2,4.2,0,0,0-1.644,1.841,5.276,5.276,0,0,0-.513,2.186,4.215,4.215,0,0,0,.927,2.867A2.992,2.992,0,0,0,64.014-.447ZM64.184-10.5a8.644,8.644,0,0,0,1.71-1.46,3.778,3.778,0,0,0,.816-2.446,3.1,3.1,0,0,0-.77-2.124A2.947,2.947,0,0,0,63.6-17.4a2.761,2.761,0,0,0-2,.763,2.483,2.483,0,0,0-.789,1.855,3.419,3.419,0,0,0,.927,2.295A10.645,10.645,0,0,0,64.185-10.5ZM62.156-8.97a14.861,14.861,0,0,1-2.368-2.222,4.462,4.462,0,0,1-.973-2.789,3.715,3.715,0,0,1,1.44-2.946A5.62,5.62,0,0,1,64-18.139a4.793,4.793,0,0,1,3.367,1.145,3.505,3.505,0,0,1,1.249,2.657,3.742,3.742,0,0,1-1.276,2.761,12.144,12.144,0,0,1-2.377,1.61,17.178,17.178,0,0,1,3.2,2.887,4.554,4.554,0,0,1,.967,2.9A4.119,4.119,0,0,1,67.7-1,5.484,5.484,0,0,1,63.882.29,5.813,5.813,0,0,1,60.2-.9,3.78,3.78,0,0,1,58.673-4.04a4.462,4.462,0,0,1,1.065-2.946A12.091,12.091,0,0,1,62.156-8.97ZM78.373-6.628a13.118,13.118,0,0,1-.513,3.709,12.885,12.885,0,0,1-1.495,3.3,12.981,12.981,0,0,1-2.775,3.091A10.5,10.5,0,0,1,71.669,4.8l-.25-.434a11.129,11.129,0,0,0,2.96-3.143,14.829,14.829,0,0,0,1.656-7.51,20.745,20.745,0,0,0-.763-6.168,9.878,9.878,0,0,0-3.854-5.314l.342-.434a12.78,12.78,0,0,1,3.867,3.5,12.985,12.985,0,0,1,2.75,8.073Z" transform="translate(522.565 1773.086)" fill="#00897b"/>
      <path id="Trazado_40558" data-name="Trazado 40558" d="M1331.357,220.2s12.022,14.441,0,34.9" transform="translate(-580.479 1568.925)" fill="none" stroke="#00897b" stroke-width="1.347"/>
      <path id="Trazado_40559" data-name="Trazado 40559" d="M1336.7,220.2s-12.022,14.441,0,34.9" transform="translate(-746.137 1568.925)" fill="none" stroke="#00897b" stroke-width="1.347"/>
      <path id="Trazado_40591" data-name="Trazado 40591" d="M2.44-11.877a3.143,3.143,0,0,1,2.315.723,2.069,2.069,0,0,1,.71,1.407,1.245,1.245,0,0,1-.368.96,1.234,1.234,0,0,1-.868.342,1.159,1.159,0,0,1-.815-.3A.978.978,0,0,1,3.084-9.5a1.541,1.541,0,0,1,.215-.741,1.539,1.539,0,0,0,.217-.513.471.471,0,0,0-.269-.4,1.717,1.717,0,0,0-.86-.16q-2.118,0-3.676,2.409A9.15,9.15,0,0,0-2.847-3.854a3.8,3.8,0,0,0,.632,2.328A2.216,2.216,0,0,0-.323-.684a3.712,3.712,0,0,0,1.966-.585A7.772,7.772,0,0,0,3.4-2.761l.092-.105.381.29A9.62,9.62,0,0,1,2.1-.776,5.6,5.6,0,0,1-1.256.316,3.8,3.8,0,0,1-4.108-.808,4.222,4.222,0,0,1-5.2-3.88a7.766,7.766,0,0,1,2.433-5.5A7.164,7.164,0,0,1,2.44-11.877Z" transform="translate(806.071 1816.184)" fill="#00897b"/>
      <path id="Trazado_40592" data-name="Trazado 40592" d="M-3.411-.174A49.206,49.206,0,0,0,.348-4.394,4.448,4.448,0,0,0,1.339-7.02,2.267,2.267,0,0,0,.733-8.725,2,2,0,0,0-.712-9.311a2.1,2.1,0,0,0-1.678.759,4.389,4.389,0,0,0-.681,1.279L-3.4-7.34A3.95,3.95,0,0,1-2.117-9.756a3.175,3.175,0,0,1,1.943-.681,2.768,2.768,0,0,1,2.069.808,2.706,2.706,0,0,1,.791,1.97A3.955,3.955,0,0,1,1.83-5.271,51.459,51.459,0,0,1-1.886-1.18H1.588a2.155,2.155,0,0,0,1.022-.174A2.268,2.268,0,0,0,3.275-2.2l.2.091L2.632,0H-3.411Z" transform="translate(818.192 1805.409)" fill="#00897b"/>
      <path id="Trazado_40560" data-name="Trazado 40560" d="M1391.263,250.508h71.976" transform="translate(-608.762 1534.026)" fill="none" stroke="#00897b" stroke-width="1.347"/>
      <path id="Trazado_40593" data-name="Trazado 40593" d="M-18.721-17.637l1.361-.191q.519-.072.9-.138,1.549-.3,1.67-.329a.912.912,0,0,1,.184-.026q.158.079.158.2L-17.538-6.379a31.538,31.538,0,0,1,2.709-3.577q1.841-1.947,3.381-1.947a2.123,2.123,0,0,1,1.217.4,1.623,1.623,0,0,1,.585,1.44,4.086,4.086,0,0,1-.067.644,5.541,5.541,0,0,1-.158.7l-1.776,6.3q-.079.263-.135.506a2.1,2.1,0,0,0-.053.44.471.471,0,0,0,.105.337.4.4,0,0,0,.3.112,1.5,1.5,0,0,0,.96-.566q.342-.355,1.276-1.549l.342.316A13.359,13.359,0,0,1-10.41-.828,3.337,3.337,0,0,1-12.712.29a1.248,1.248,0,0,1-.881-.329,1.227,1.227,0,0,1-.355-.947,2.492,2.492,0,0,1,.02-.323,2.331,2.331,0,0,1,.072-.337l2.026-7.707q.026-.105.046-.217a1.322,1.322,0,0,0,.02-.23.667.667,0,0,0-.2-.513A.789.789,0,0,0-12.5-10.5q-.881,0-2.222,1.414A18.317,18.317,0,0,0-16.987-6.2a10.5,10.5,0,0,0-.954,1.96q-.322.921-1.242,4.236h-2.038l4.209-15.954a2.6,2.6,0,0,0,.053-.29,2.029,2.029,0,0,0,.013-.224q0-.566-.368-.677a4.9,4.9,0,0,0-1.407-.059ZM6.78-1.212,1.361-14.152l-5.5,12.94ZM10.463,0H-6L1.953-18.361h.526Zm3.564-12.219v.407a3.465,3.465,0,0,0-.967.211.57.57,0,0,0-.283.578,1.347,1.347,0,0,0,.059.4q.059.191.2.559l2.736,6.8,2.368-6.024q.171-.434.323-.908a2.607,2.607,0,0,0,.152-.723.76.76,0,0,0-.487-.737,2.706,2.706,0,0,0-.789-.158v-.407h3.737v.407a1.219,1.219,0,0,0-.927.428,9.074,9.074,0,0,0-.824,1.725l-3.8,9.47a1.987,1.987,0,0,1-.173.341A.213.213,0,0,1,15.17.25.264.264,0,0,1,14.95.1a4.04,4.04,0,0,1-.2-.374l-4.025-9.63A3.852,3.852,0,0,0,9.684-11.5a2.092,2.092,0,0,0-.96-.316v-.407Z" transform="translate(818.192 1773.759)" fill="#00897b"/>
      <path id="Trazado_40594" data-name="Trazado 40594" d="M-2.262-6.2a2.378,2.378,0,0,1,1.414.424,1.173,1.173,0,0,1,.6.929.632.632,0,0,1-.154.4.564.564,0,0,1-.467.187.584.584,0,0,1-.4-.158.914.914,0,0,1-.253-.461l-.079-.316a.8.8,0,0,0-.3-.493,1.053,1.053,0,0,0-.572-.138,1.56,1.56,0,0,0-1.266.655,2.729,2.729,0,0,0-.517,1.739,2.973,2.973,0,0,0,.569,1.782A1.8,1.8,0,0,0-2.15-.855,1.839,1.839,0,0,0-.933-1.3,4.175,4.175,0,0,0-.25-2.118l.184.112A5.214,5.214,0,0,1-.855-.756,2.418,2.418,0,0,1-2.694.125,2.467,2.467,0,0,1-4.512-.683,3.01,3.01,0,0,1-5.3-2.88a3.426,3.426,0,0,1,.861-2.341A2.774,2.774,0,0,1-2.262-6.2Zm3.327,4.13h.214A3.434,3.434,0,0,0,1.69-.921a1.492,1.492,0,0,0,1.347.737,1.082,1.082,0,0,0,.78-.273A.933.933,0,0,0,4.1-1.164.974.974,0,0,0,3.939-1.7a1.684,1.684,0,0,0-.578-.5l-.735-.421a4.2,4.2,0,0,1-1.191-.875,1.537,1.537,0,0,1-.381-1.039A1.556,1.556,0,0,1,1.58-5.744,1.9,1.9,0,0,1,2.9-6.216a2.568,2.568,0,0,1,.766.135,3.55,3.55,0,0,0,.471.135.337.337,0,0,0,.17-.038A.275.275,0,0,0,4.4-6.09H4.56l.046,1.835H4.4a3.042,3.042,0,0,0-.355-.993,1.305,1.305,0,0,0-1.181-.658.943.943,0,0,0-.723.283.943.943,0,0,0-.263.664q0,.606.908,1.077l.868.467q1.4.764,1.4,1.777A1.588,1.588,0,0,1,4.475-.368,2.274,2.274,0,0,1,2.953.125a3.557,3.557,0,0,1-.894-.135,4.04,4.04,0,0,0-.592-.135.2.2,0,0,0-.138.056.389.389,0,0,0-.092.135H1.065Z" transform="translate(845.128 1775.106)" fill="#00897b"/>
      <path id="Trazado_40595" data-name="Trazado 40595" d="M-10.236-9.944a6.985,6.985,0,0,1,1.69-1.177,4.267,4.267,0,0,1,1.879-.414,9.108,9.108,0,0,1,3.4.987,9.121,9.121,0,0,0,3.122.986A3.863,3.863,0,0,0,1.9-10.135,6.418,6.418,0,0,0,3.486-11.47V-9.22a7.713,7.713,0,0,1-1.434.96A4.731,4.731,0,0,1-.1-7.721a8.9,8.9,0,0,1-3.455-.986,8.794,8.794,0,0,0-3.15-.987,3.771,3.771,0,0,0-2.118.632,8.364,8.364,0,0,0-1.407,1.276Zm0,5.55A6.985,6.985,0,0,1-8.546-5.57a4.267,4.267,0,0,1,1.879-.414A9.108,9.108,0,0,1-3.269-5a9.121,9.121,0,0,0,3.124.987A3.863,3.863,0,0,0,1.9-4.584,6.418,6.418,0,0,0,3.486-5.919v2.249A8.375,8.375,0,0,1,1.841-2.6,4.345,4.345,0,0,1-.106-2.17a8.853,8.853,0,0,1-3.445-.987,8.744,8.744,0,0,0-3.157-.987A3.7,3.7,0,0,0-8.8-3.525a8.065,8.065,0,0,0-1.437,1.289Z" transform="translate(882.839 1790.594)" fill="#00897b"/>
      <path id="Trazado_40596" data-name="Trazado 40596" d="M-69.472-18.072a.282.282,0,0,1,.059.1,1.028,1.028,0,0,1,.007.152V-1.986q0,1.01.539,1.289a5.387,5.387,0,0,0,2.012.329V0h-7.418V-.395a4.346,4.346,0,0,0,2.078-.434q.487-.355.487-1.539V-14.546a2.29,2.29,0,0,0-.158-.96.68.68,0,0,0-.684-.329,2.839,2.839,0,0,0-.888.191q-.546.191-1.02.4v-.368l4.827-2.459Zm12.1,17.8a3.774,3.774,0,0,1-.96,2.473A5.919,5.919,0,0,1-60.4,3.838l-.25-.526A4.479,4.479,0,0,0-58.9,1.774,2.933,2.933,0,0,0-58.424.395a.231.231,0,0,0-.119-.237.606.606,0,0,0-.246-.053L-59.67.2a1.6,1.6,0,0,1-1.01-.362,1.25,1.25,0,0,1-.465-1.048,1.675,1.675,0,0,1,.381-1.026,1.473,1.473,0,0,1,1.249-.5,2.061,2.061,0,0,1,1.486.651,2.43,2.43,0,0,1,.655,1.81Zm7.983-15.084-6.455,9.126h6.458Zm.868-2.709h1.25V-6.234h2.749v1.751h-2.749V0h-2.088V-4.485h-7.576V-6.236Zm16.835.25v.434L-37.392.25h-1.736L-33.8-15.836h-5.735a3.1,3.1,0,0,0-1.835.421,7.144,7.144,0,0,0-1.414,1.762l-.461-.21q.855-2.1,1.059-2.6t.533-1.361ZM-28.295-2.4a3.816,3.816,0,0,1,1.966.848,3.805,3.805,0,0,0,1.874.848A3.381,3.381,0,0,0-21.81-2.042a4.9,4.9,0,0,0,1.137-3.284q0-3.407-3.63-4.906a9.893,9.893,0,0,0-3.748-.828,1.9,1.9,0,0,1-.362-.02.43.43,0,0,1-.178-.138q.026-.105.046-.178a1.274,1.274,0,0,1,.046-.138l2.867-6.287h5.642a1.225,1.225,0,0,0,.651-.145,3.4,3.4,0,0,0,.6-.539l.211.184-1.026,2.433q-.053.119-.29.152a3.738,3.738,0,0,1-.513.033h-5.09l-1.118,2.3a24.017,24.017,0,0,1,3.157.7,7.105,7.105,0,0,1,2.749,1.631,6.393,6.393,0,0,1,1.434,2.1A6.33,6.33,0,0,1-18.74-6.51a6.386,6.386,0,0,1-2.071,4.853A7.351,7.351,0,0,1-26.055.29,7.071,7.071,0,0,1-28.133.04q-1.315-.408-1.315-1.46a.968.968,0,0,1,.283-.69,1.159,1.159,0,0,1,.874-.3Zm13.468,0a3.816,3.816,0,0,1,1.966.848,3.805,3.805,0,0,0,1.874.848A3.381,3.381,0,0,0-8.342-2.042,4.9,4.9,0,0,0-7.205-5.327q0-3.407-3.63-4.906a9.893,9.893,0,0,0-3.748-.828,1.9,1.9,0,0,1-.362-.02.43.43,0,0,1-.178-.138q.026-.105.046-.178a1.275,1.275,0,0,1,.046-.138l2.867-6.287h5.642a1.225,1.225,0,0,0,.651-.145,3.4,3.4,0,0,0,.6-.539l.211.184-1.026,2.433q-.053.119-.29.152a3.737,3.737,0,0,1-.513.033h-5.09L-13.1-13.4a24.017,24.017,0,0,1,3.157.7,7.105,7.105,0,0,1,2.749,1.631,6.393,6.393,0,0,1,1.431,2.1,6.33,6.33,0,0,1,.487,2.466A6.386,6.386,0,0,1-7.346-1.657,7.351,7.351,0,0,1-12.587.29,7.071,7.071,0,0,1-14.665.04Q-15.98-.368-15.98-1.42a.968.968,0,0,1,.283-.69,1.159,1.159,0,0,1,.874-.3ZM-2.57-.3A85.577,85.577,0,0,0,3.973-7.642,7.735,7.735,0,0,0,5.7-12.206a3.943,3.943,0,0,0-1.052-2.963,3.485,3.485,0,0,0-2.512-1.02A3.649,3.649,0,0,0-.789-14.876a7.632,7.632,0,0,0-1.184,2.222l-.566-.119a6.869,6.869,0,0,1,2.23-4.2,5.522,5.522,0,0,1,3.374-1.177,4.815,4.815,0,0,1,3.6,1.4,4.706,4.706,0,0,1,1.374,3.426A6.878,6.878,0,0,1,6.55-9.168,89.5,89.5,0,0,1,.092-2.052H6.128A3.742,3.742,0,0,0,7.9-2.357,3.944,3.944,0,0,0,9.062-3.83l.342.158L7.946,0H-2.565ZM18.072-18.072a.281.281,0,0,1,.059.1,1.027,1.027,0,0,1,.007.152V-1.986q0,1.01.539,1.289a5.387,5.387,0,0,0,2.012.329V0H13.271V-.395a4.346,4.346,0,0,0,2.078-.434q.487-.355.487-1.539V-14.546a2.29,2.29,0,0,0-.158-.96.68.68,0,0,0-.684-.329,2.839,2.839,0,0,0-.888.191q-.546.191-1.02.4v-.368l4.826-2.463Zm13.35,2.71L24.963-6.234h6.458Zm.868-2.709h1.246V-6.234h2.749v1.751H33.536V0H31.448V-4.485H23.872V-6.236Zm10.983,5.985v.368a2.744,2.744,0,0,0-.847.135.5.5,0,0,0-.349.519,4.885,4.885,0,0,0,.7,1.407q.368.606.934,1.486.776-1.065,1.158-1.67a3.473,3.473,0,0,0,.644-1.263.453.453,0,0,0-.276-.461,2.545,2.545,0,0,0-.776-.158v-.368h4.23v.368a3.145,3.145,0,0,0-1.249.362,2.61,2.61,0,0,0-.934.822L44.255-7.288l3.472,5.261A4.7,4.7,0,0,0,48.865-.7a2.1,2.1,0,0,0,1.072.329V0H44.508V-.368l.381-.026A.943.943,0,0,0,45.4-.578a.481.481,0,0,0,.2-.395,3.253,3.253,0,0,0-.5-1.105q-.237-.421-.71-1.145-.224-.355-.664-.987t-.741-1.077l-2.118,3.3a8.735,8.735,0,0,0-.471.789.818.818,0,0,0-.092.329.317.317,0,0,0,.2.329,4.9,4.9,0,0,0,.888.171V0H37.5V-.368a3.128,3.128,0,0,0,1.053-.368,4.139,4.139,0,0,0,.908-1.039l3.065-4.459L40-10.062a6.763,6.763,0,0,0-1.052-1.355,2.925,2.925,0,0,0-1.263-.3v-.368Zm15.2-5.985a.281.281,0,0,1,.059.1,1.029,1.029,0,0,1,.007.152V-1.986q0,1.01.539,1.289a5.387,5.387,0,0,0,2.012.329V0H53.675V-.395a4.346,4.346,0,0,0,2.078-.434q.487-.355.487-1.539V-14.546a2.29,2.29,0,0,0-.158-.96.68.68,0,0,0-.684-.329,2.839,2.839,0,0,0-.888.191q-.546.191-1.02.4v-.368l4.826-2.463ZM70.418-.487A2.69,2.69,0,0,0,73.075-2.6,19.945,19.945,0,0,0,73.8-8.733a23.923,23.923,0,0,0-.434-5.1q-.815-3.551-3.051-3.551T67.248-13.73A24.423,24.423,0,0,0,66.814-8.6a20.421,20.421,0,0,0,.447,4.774Q68.1-.487,70.418-.487ZM70.379-18.1q3.025,0,4.7,3.17A12.63,12.63,0,0,1,76.4-9.036,14.737,14.737,0,0,1,75.587-4.1Q74.049.25,70.261.25A5.038,5.038,0,0,1,66-2.107a11.567,11.567,0,0,1-1.789-6.826,13.167,13.167,0,0,1,1.2-5.84A5.258,5.258,0,0,1,70.379-18.1Z" transform="translate(975.77 1791.268)" fill="#00897b"/>
      <path id="Trazado_40597" data-name="Trazado 40597" d="M-3.232-8.833l-3.71,5.249h3.71Zm.5-1.558h.719v6.806H-.431v1.005h-1.58V0h-1.2V-2.579H-7.57V-3.585ZM3.7-.28A1.549,1.549,0,0,0,5.233-1.5a11.469,11.469,0,0,0,.416-3.524A13.755,13.755,0,0,0,5.4-7.956Q4.928-10,3.645-10T1.886-7.9a14.043,14.043,0,0,0-.25,2.95A11.742,11.742,0,0,0,1.893-2.2Q2.374-.28,3.7-.28ZM3.683-10.406a2.963,2.963,0,0,1,2.7,1.823A7.262,7.262,0,0,1,7.146-5.2,8.473,8.473,0,0,1,6.675-2.36q-.884,2.5-3.06,2.5A2.9,2.9,0,0,1,1.164-1.212,6.651,6.651,0,0,1,.135-5.135,7.571,7.571,0,0,1,.823-8.492a3.024,3.024,0,0,1,2.86-1.914Z" transform="translate(1056.579 1772.412)" fill="#00897b"/>
      <path id="Trazado_40598" data-name="Trazado 40598" d="M2.44-11.877a3.143,3.143,0,0,1,2.315.723,2.069,2.069,0,0,1,.71,1.407,1.245,1.245,0,0,1-.368.96,1.234,1.234,0,0,1-.868.342,1.159,1.159,0,0,1-.815-.3A.978.978,0,0,1,3.084-9.5a1.541,1.541,0,0,1,.215-.741,1.539,1.539,0,0,0,.217-.513.471.471,0,0,0-.269-.4,1.717,1.717,0,0,0-.86-.16q-2.118,0-3.676,2.409A9.15,9.15,0,0,0-2.847-3.854a3.8,3.8,0,0,0,.632,2.328A2.216,2.216,0,0,0-.323-.684a3.712,3.712,0,0,0,1.966-.585A7.772,7.772,0,0,0,3.4-2.761l.092-.105.381.29A9.62,9.62,0,0,1,2.1-.776,5.6,5.6,0,0,1-1.256.316,3.8,3.8,0,0,1-4.108-.808,4.222,4.222,0,0,1-5.2-3.88a7.766,7.766,0,0,1,2.433-5.5A7.164,7.164,0,0,1,2.44-11.877Z" transform="translate(1088.229 1816.184)" fill="#00897b"/>
      <path id="Trazado_40599" data-name="Trazado 40599" d="M-3.411-.174A49.206,49.206,0,0,0,.348-4.394,4.448,4.448,0,0,0,1.339-7.02,2.267,2.267,0,0,0,.733-8.725,2,2,0,0,0-.712-9.311a2.1,2.1,0,0,0-1.678.759,4.389,4.389,0,0,0-.681,1.279L-3.4-7.34A3.95,3.95,0,0,1-2.117-9.756a3.175,3.175,0,0,1,1.943-.681,2.768,2.768,0,0,1,2.069.808,2.706,2.706,0,0,1,.791,1.97A3.955,3.955,0,0,1,1.83-5.271,51.459,51.459,0,0,1-1.886-1.18H1.588a2.155,2.155,0,0,0,1.022-.174A2.268,2.268,0,0,0,3.275-2.2l.2.091L2.632,0H-3.411Z" transform="translate(1100.35 1805.409)" fill="#00897b"/>
      <path id="Trazado_40561" data-name="Trazado 40561" d="M1391.263,250.508h71.976" transform="translate(-326.603 1534.026)" fill="none" stroke="#00897b" stroke-width="1.347"/>
      <path id="Trazado_40600" data-name="Trazado 40600" d="M-18.721-17.637l1.361-.191q.519-.072.9-.138,1.549-.3,1.67-.329a.912.912,0,0,1,.184-.026q.158.079.158.2L-17.538-6.379a31.538,31.538,0,0,1,2.709-3.577q1.841-1.947,3.381-1.947a2.123,2.123,0,0,1,1.217.4,1.623,1.623,0,0,1,.585,1.44,4.086,4.086,0,0,1-.067.644,5.541,5.541,0,0,1-.158.7l-1.776,6.3q-.079.263-.135.506a2.1,2.1,0,0,0-.053.44.471.471,0,0,0,.105.337.4.4,0,0,0,.3.112,1.5,1.5,0,0,0,.96-.566q.342-.355,1.276-1.549l.342.316A13.359,13.359,0,0,1-10.41-.828,3.337,3.337,0,0,1-12.712.29a1.248,1.248,0,0,1-.881-.329,1.227,1.227,0,0,1-.355-.947,2.492,2.492,0,0,1,.02-.323,2.331,2.331,0,0,1,.072-.337l2.026-7.707q.026-.105.046-.217a1.322,1.322,0,0,0,.02-.23.667.667,0,0,0-.2-.513A.789.789,0,0,0-12.5-10.5q-.881,0-2.222,1.414A18.317,18.317,0,0,0-16.987-6.2a10.5,10.5,0,0,0-.954,1.96q-.322.921-1.242,4.236h-2.038l4.209-15.954a2.6,2.6,0,0,0,.053-.29,2.029,2.029,0,0,0,.013-.224q0-.566-.368-.677a4.9,4.9,0,0,0-1.407-.059ZM6.78-1.212,1.361-14.152l-5.5,12.94ZM10.463,0H-6L1.953-18.361h.526Zm3.564-12.219v.407a3.465,3.465,0,0,0-.967.211.57.57,0,0,0-.283.578,1.347,1.347,0,0,0,.059.4q.059.191.2.559l2.736,6.8,2.368-6.024q.171-.434.323-.908a2.607,2.607,0,0,0,.152-.723.76.76,0,0,0-.487-.737,2.706,2.706,0,0,0-.789-.158v-.407h3.737v.407a1.219,1.219,0,0,0-.927.428,9.074,9.074,0,0,0-.824,1.725l-3.8,9.47a1.987,1.987,0,0,1-.173.341A.213.213,0,0,1,15.17.25.264.264,0,0,1,14.95.1a4.04,4.04,0,0,1-.2-.374l-4.025-9.63A3.852,3.852,0,0,0,9.684-11.5a2.092,2.092,0,0,0-.96-.316v-.407Z" transform="translate(1100.35 1773.759)" fill="#00897b"/>
      <path id="Trazado_40601" data-name="Trazado 40601" d="M-2.262-6.2a2.378,2.378,0,0,1,1.414.424,1.173,1.173,0,0,1,.6.929.632.632,0,0,1-.154.4.564.564,0,0,1-.467.187.584.584,0,0,1-.4-.158.914.914,0,0,1-.253-.461l-.079-.316a.8.8,0,0,0-.3-.493,1.053,1.053,0,0,0-.572-.138,1.56,1.56,0,0,0-1.266.655,2.729,2.729,0,0,0-.517,1.739,2.973,2.973,0,0,0,.569,1.782A1.8,1.8,0,0,0-2.15-.855,1.839,1.839,0,0,0-.933-1.3,4.175,4.175,0,0,0-.25-2.118l.184.112A5.214,5.214,0,0,1-.855-.756,2.418,2.418,0,0,1-2.694.125,2.467,2.467,0,0,1-4.512-.683,3.01,3.01,0,0,1-5.3-2.88a3.426,3.426,0,0,1,.861-2.341A2.774,2.774,0,0,1-2.262-6.2Zm3.327,4.13h.214A3.434,3.434,0,0,0,1.69-.921a1.492,1.492,0,0,0,1.347.737,1.082,1.082,0,0,0,.78-.273A.933.933,0,0,0,4.1-1.164.974.974,0,0,0,3.939-1.7a1.684,1.684,0,0,0-.578-.5l-.735-.421a4.2,4.2,0,0,1-1.191-.875,1.537,1.537,0,0,1-.381-1.039A1.556,1.556,0,0,1,1.58-5.744,1.9,1.9,0,0,1,2.9-6.216a2.568,2.568,0,0,1,.766.135,3.55,3.55,0,0,0,.471.135.337.337,0,0,0,.17-.038A.275.275,0,0,0,4.4-6.09H4.56l.046,1.835H4.4a3.042,3.042,0,0,0-.355-.993,1.305,1.305,0,0,0-1.181-.658.943.943,0,0,0-.723.283.943.943,0,0,0-.263.664q0,.606.908,1.077l.868.467q1.4.764,1.4,1.777A1.588,1.588,0,0,1,4.475-.368,2.274,2.274,0,0,1,2.953.125a3.557,3.557,0,0,1-.894-.135,4.04,4.04,0,0,0-.592-.135.2.2,0,0,0-.138.056.389.389,0,0,0-.092.135H1.065Z" transform="translate(1127.96 1774.433)" fill="#00897b"/>
    </g>
  </g>
</svg>
