<svg xmlns="http://www.w3.org/2000/svg" xmlns:xlink="http://www.w3.org/1999/xlink" width="105" height="105" viewBox="0 0 105 105">
  <defs>
    <clipPath id="clip-path">
      <rect id="Rectángulo_5432" data-name="Rectángulo 5432" width="105" height="105" transform="translate(390 3678)" fill="#fff" stroke="#707070" stroke-width="1"/>
    </clipPath>
  </defs>
  <g id="Enmascarar_grupo_46" data-name="Enmascarar grupo 46" transform="translate(-390 -3678)" clip-path="url(#clip-path)">
    <g id="gravedad" transform="translate(401.168 3678)">
      <path id="Trazado_105041" data-name="Trazado 105041" d="M62.7,91.481A13.021,13.021,0,0,0,79.1,80.858l.381-2.56q.093-.624.179-1.249a106.093,106.093,0,0,0,.1-27.612l-.6-4.818a22.612,22.612,0,0,0-43.41-5.642l-2.167,5.38-5.744-.812A22.611,22.611,0,0,0,11.018,83.96l3.872,2.931a106.108,106.108,0,0,0,23.962,13.719q.584.238,1.171.469l2.406.95a13.021,13.021,0,0,0,17.4-8.892,2.317,2.317,0,0,1,2.87-1.657Zm0,0" fill="#ff5d5d"/>
      <path id="Trazado_105042" data-name="Trazado 105042" d="M33.429,45.3A15.72,15.72,0,0,0,26.3,71.916,15.72,15.72,0,0,0,33.429,45.3Zm0,0" fill="#36d28f"/>
      <path id="Trazado_105043" data-name="Trazado 105043" d="M81.8,49.183l-.6-4.818A24.671,24.671,0,0,0,69.628,26.41c0-.031,0-.061,0-.092V2.051a2.051,2.051,0,1,0-4.1,0V24.394A24.659,24.659,0,0,0,33.846,38.212l-.338.839a18.755,18.755,0,0,1-.1-10.15,2.051,2.051,0,0,0-3.961-1.061A22.805,22.805,0,0,0,30.1,41.794l-1.975-.28A24.662,24.662,0,0,0,9.781,85.6l3.871,2.931a108.2,108.2,0,0,0,24.426,13.983q.595.243,1.192.478l2.407.95a15.071,15.071,0,0,0,20.14-10.292.254.254,0,0,1,.125-.164.257.257,0,0,1,.2-.026A15.157,15.157,0,0,0,73.758,92,14.992,14.992,0,0,0,81.13,81.16l.381-2.56q.095-.634.182-1.271a108.22,108.22,0,0,0,.1-28.145Zm-46.041,11A13.675,13.675,0,0,1,26.918,69.6a13.667,13.667,0,0,1,5.891-21.986,13.676,13.676,0,0,1,2.946,12.571ZM77.629,76.771c-.056.409-.115.818-.175,1.226l-.381,2.559a10.913,10.913,0,0,1-5.366,7.889,11.034,11.034,0,0,1-8.451,1.061,4.366,4.366,0,0,0-5.412,3.124A11.032,11.032,0,0,1,52.7,99.42a10.913,10.913,0,0,1-9.515.7l-2.407-.95q-.576-.228-1.15-.461a104.1,104.1,0,0,1-23.5-13.455l-3.871-2.931A20.646,20.646,0,0,1,4.98,60.008,20.429,20.429,0,0,1,24.6,45.366a21.12,21.12,0,0,1,2.954.209l.074.011a17.764,17.764,0,0,0-2.746,27.808,2.045,2.045,0,0,0,1.911.512A17.769,17.769,0,0,0,35.677,44.67c0-.013,0-.026,0-.038l1.969-4.887a20.561,20.561,0,0,1,39.474,5.131l.6,4.818a104.078,104.078,0,0,1-.1,27.077Zm0,0" fill="#12263f"/>
      <path id="Trazado_105044" data-name="Trazado 105044" d="M41.334,17.465a2.051,2.051,0,0,0,2.051-2.051V2.051a2.05,2.05,0,1,0-4.1,0V15.415A2.051,2.051,0,0,0,41.334,17.465Zm0,0" fill="#12263f"/>
      <path id="Trazado_105045" data-name="Trazado 105045" d="M15.086,28.368a2.05,2.05,0,0,0,2.051-2.05V2.051a2.051,2.051,0,1,0-4.1,0V26.318A2.05,2.05,0,0,0,15.086,28.368Zm0,0" fill="#12263f"/>
      <path id="Trazado_105046" data-name="Trazado 105046" d="M15.086,36.983a2.051,2.051,0,1,0-1.45-.6A2.067,2.067,0,0,0,15.086,36.983Zm0,0" fill="#12263f"/>
      <path id="Trazado_105047" data-name="Trazado 105047" d="M45.637,40.724a2.045,2.045,0,0,0-2.656,1.153c0,.007-.009.022-.011.029a2.051,2.051,0,1,0,3.812,1.512l.011-.03a2.056,2.056,0,0,0-1.156-2.664Zm0,0" fill="#12263f"/>
      <path id="Trazado_105048" data-name="Trazado 105048" d="M60.118,33a14.754,14.754,0,0,0-10.947,1.647,2.051,2.051,0,0,0,2.088,3.53,10.747,10.747,0,0,1,16.1,7.916,2.051,2.051,0,0,0,2.032,1.8,2.151,2.151,0,0,0,.257-.016,2.052,2.052,0,0,0,1.781-2.29A14.881,14.881,0,0,0,60.118,33Zm0,0" fill="#12263f"/>
    </g>
  </g>
</svg>
