<svg xmlns="http://www.w3.org/2000/svg" xmlns:xlink="http://www.w3.org/1999/xlink" width="105" height="105" viewBox="0 0 105 105">
  <defs>
    <clipPath id="clip-path">
      <rect id="Rectángulo_5436" data-name="Rectángulo 5436" width="105" height="105" transform="translate(143 96)" fill="#fff" stroke="#707070" stroke-width="1"/>
    </clipPath>
  </defs>
  <g id="Enmascarar_grupo_47" data-name="Enmascarar grupo 47" transform="translate(-143 -96)" clip-path="url(#clip-path)">
    <g id="bar" transform="translate(143.002 96)">
      <path id="Trazado_105049" data-name="Trazado 105049" d="M92.081,101.063H12.919c-2.047,0-7.78.841-9.088-.729s1.944-5.378,2.311-7.395l7.689-60.105a6.883,6.883,0,0,1,6.777-5.657L83.831,29C87.165,29,89.4,30.39,90,33.667l8.864,59.271c.367,2.017,3.782,6.549,2.469,8.124s-7.2,0-9.251,0Z" fill="#b0bec5"/>
      <path id="Trazado_105053" data-name="Trazado 105053" d="M96.478,105H8.523A7.658,7.658,0,0,1,.989,95.97L12.521,32.533a7.656,7.656,0,0,1,7.534-6.283H84.941a7.655,7.655,0,0,1,7.534,6.287l11.533,63.437A7.657,7.657,0,0,1,96.478,105ZM18.055,30.813a1.093,1.093,0,0,0-1.076.9L5.446,99.151a1.095,1.095,0,0,0,1.076,1.291H98.478a1.086,1.086,0,0,0,.84-.394,1.071,1.071,0,0,0,.236-.893L88.021,31.718a1.093,1.093,0,0,0-1.076-.906Z" fill="#12263f"/>
      <path id="Trazado_105054" data-name="Trazado 105054" d="M52.5,30.625A15.313,15.313,0,1,1,67.813,15.313,15.329,15.329,0,0,1,52.5,30.625Zm0-26.062c-4.826,0-10.75,5.924-10.75,10.75s5.924,10.75,10.75,10.75,10.75-5.924,10.75-10.75S57.326,4.563,52.5,4.563Z" fill="#12263f"/>
    </g>
  </g>
</svg>
