<svg xmlns="http://www.w3.org/2000/svg" xmlns:xlink="http://www.w3.org/1999/xlink" width="105" height="105" viewBox="0 0 105 105">
  <defs>
    <clipPath id="clip-path">
      <rect id="Rectángulo_5440" data-name="Rectángulo 5440" width="105" height="105" transform="translate(143 268)" fill="#fff" stroke="#707070" stroke-width="1"/>
    </clipPath>
  </defs>
  <g id="Enmascarar_grupo_48" data-name="Enmascarar grupo 48" transform="translate(-143 -268)" clip-path="url(#clip-path)">
    <g id="manzana" transform="translate(143 268)">
      <path id="Trazado_105055" data-name="Trazado 105055" d="M99.9,66.183a2.2,2.2,0,0,0-2.235-.417c-2.8,1.057-5.144,1.045-6.964-.047a6.983,6.983,0,0,1-3.119-4.866,2.186,2.186,0,0,0-2.517-1.882,5.591,5.591,0,0,1-6.315-5.377,5.411,5.411,0,0,1,1.025-3.162,2.195,2.195,0,0,0,.269-2.049c-.12-.308-.209-.626-.393-1.267a2.193,2.193,0,0,0-1.44-1.465A5.419,5.419,0,0,1,78.2,35.288a2.188,2.188,0,0,0,1.252-3.14,5.415,5.415,0,0,1,4.708-8.088s.517.075.521.077a2.149,2.149,0,0,0,2.324-1.574A2.191,2.191,0,0,0,85.873,20a25.826,25.826,0,0,0-11.5-2.5c-5.024,0-9.583,1.376-13.608,2.589a54.007,54.007,0,0,1-5.838,1.522c.564-4.992,2.623-8.5,4.561-11.558.526-.833,1.03-1.63,1.474-2.405a2.189,2.189,0,0,0-3.8-2.17c-.41.722-.88,1.461-1.367,2.235a46.293,46.293,0,0,0-3.149,5.6A21.369,21.369,0,0,0,32.813,0a2.186,2.186,0,0,0-2.188,2.188c0,6.593,1.739,11.843,5.248,15.818a31.121,31.121,0,0,0-5.248-.505c-16.928,0-26.25,12.431-26.25,35,0,23.778,16.59,52.5,37.187,52.5a18.365,18.365,0,0,0,7.455-1.363,9.818,9.818,0,0,1,3.4-.827,9.876,9.876,0,0,1,3.563.827A18.366,18.366,0,0,0,63.437,105c17.991,0,32.552-18.88,37.119-36.643A2.2,2.2,0,0,0,99.9,66.183Z" fill="#12263f"/>
      <path id="Trazado_105056" data-name="Trazado 105056" d="M50.176,21.277c-9.647-2.589-14.4-7.872-15.09-16.752C42.191,5.458,49.133,10.807,50.176,21.277Z" fill="#36d28f"/>
      <path id="Trazado_105057" data-name="Trazado 105057" d="M63.438,100.625a14.058,14.058,0,0,1-5.9-1.077,14.253,14.253,0,0,0-5.118-1.109,14.11,14.11,0,0,0-4.956,1.109,14.058,14.058,0,0,1-5.9,1.077C23.892,100.625,8.75,74.164,8.75,52.5c0-13.971,3.794-30.625,21.875-30.625,4.379,0,8.43,1.222,12.343,2.4,3.362,1.013,6.541,1.972,9.532,1.972s6.169-.959,9.532-1.972c3.914-1.181,7.964-2.4,12.343-2.4a25.807,25.807,0,0,1,3.4.22,9.832,9.832,0,0,0-3.4,7.436,9.437,9.437,0,0,0,.355,2.559,9.787,9.787,0,0,0,.679,17.133,9.731,9.731,0,0,0-1.034,4.371,9.857,9.857,0,0,0,9.344,9.831,11.241,11.241,0,0,0,4.73,6.043,10.805,10.805,0,0,0,6.81,1.374C90.145,86.039,77.55,100.625,63.438,100.625Z" fill="#ff5d5d"/>
      <path id="Trazado_105059" data-name="Trazado 105059" d="M30.625,26.25c-2.7,0-10.895,0-15.018,10.258a2.187,2.187,0,1,0,4.059,1.632c3.021-7.515,8.383-7.515,10.959-7.515a2.187,2.187,0,1,0,0-4.375Z" fill="#12263f"/>
    </g>
  </g>
</svg>
