<svg xmlns="http://www.w3.org/2000/svg" xmlns:xlink="http://www.w3.org/1999/xlink" width="105" height="105" viewBox="0 0 105 105">
  <defs>
    <clipPath id="clip-path">
      <rect id="Rectángulo_5451" data-name="Rectángulo 5451" width="105" height="105" transform="translate(143 784)" fill="#fff" stroke="#707070" stroke-width="1"/>
    </clipPath>
  </defs>
  <g id="Enmascarar_grupo_51" data-name="Enmascarar grupo 51" transform="translate(-143 -784)" clip-path="url(#clip-path)">
    <g id="fuerza_1_" data-name="fuerza (1)" transform="translate(143 784)">
      <g id="Grupo_62616" data-name="Grupo 62616" transform="translate(0.205 0.205)">
        <path id="Trazado_105064" data-name="Trazado 105064" d="M99.545,92.545v7a3.511,3.511,0,0,1-3.5,3.5H8.545a3.511,3.511,0,0,1-3.5-3.5v-7Z" fill="#1566c0"/>
        <path id="Trazado_105065" data-name="Trazado 105065" d="M59.295,3.295v38.5h-14V3.295a1.75,1.75,0,0,1,1.75-1.75h10.5A1.75,1.75,0,0,1,59.295,3.295Z" fill="#607d8b"/>
        <path id="Trazado_105066" data-name="Trazado 105066" d="M54.045,3.295v38.5h-8.75V3.295a1.75,1.75,0,0,1,1.75-1.75h5.25A1.75,1.75,0,0,1,54.045,3.295Z" fill="#cfd8dc"/>
        <path id="Trazado_105067" data-name="Trazado 105067" d="M99.545,40.045v7H5.045v-7a3.511,3.511,0,0,1,3.5-3.5h87.5A3.511,3.511,0,0,1,99.545,40.045Z" fill="#1566c0"/>
        <g id="Grupo_62613" data-name="Grupo 62613">
          <path id="Trazado_105068" data-name="Trazado 105068" d="M92.545,92.545v7a3.511,3.511,0,0,1-3.5,3.5H8.545a3.511,3.511,0,0,1-3.5-3.5v-7Z" fill="#2296f3"/>
          <path id="Trazado_105069" data-name="Trazado 105069" d="M92.545,40.045v7H5.045v-7a3.511,3.511,0,0,1,3.5-3.5h80.5A3.511,3.511,0,0,1,92.545,40.045Z" fill="#2296f3"/>
        </g>
        <g id="Grupo_62614" data-name="Grupo 62614">
          <path id="Trazado_105070" data-name="Trazado 105070" d="M3.295,43.545h98a1.75,1.75,0,0,1,1.75,1.75v10.5a1.75,1.75,0,0,1-1.75,1.75h-98a1.75,1.75,0,0,1-1.75-1.75v-10.5A1.75,1.75,0,0,1,3.295,43.545Z" fill="#37474f"/>
          <path id="Trazado_105071" data-name="Trazado 105071" d="M3.295,82.045h98a1.75,1.75,0,0,1,1.75,1.75v10.5a1.75,1.75,0,0,1-1.75,1.75h-98a1.75,1.75,0,0,1-1.75-1.75v-10.5A1.75,1.75,0,0,1,3.295,82.045Z" fill="#37474f"/>
        </g>
        <g id="Grupo_62615" data-name="Grupo 62615">
          <path id="Trazado_105072" data-name="Trazado 105072" d="M3.295,43.545h92.75a1.75,1.75,0,0,1,1.75,1.75v10.5a1.75,1.75,0,0,1-1.75,1.75H3.295a1.75,1.75,0,0,1-1.75-1.75v-10.5A1.75,1.75,0,0,1,3.295,43.545Z" fill="#607d8b"/>
          <path id="Trazado_105073" data-name="Trazado 105073" d="M3.295,82.045h92.75a1.75,1.75,0,0,1,1.75,1.75v10.5a1.75,1.75,0,0,1-1.75,1.75H3.295a1.75,1.75,0,0,1-1.75-1.75v-10.5A1.75,1.75,0,0,1,3.295,82.045Z" fill="#607d8b"/>
        </g>
        <path id="Trazado_105074" data-name="Trazado 105074" d="M78.545,69.795a12.25,12.25,0,0,1-12.25,12.25h-28a12.25,12.25,0,1,1,0-24.5h28a12.25,12.25,0,0,1,12.25,12.25Z" fill="#ad1457"/>
        <path id="Trazado_105075" data-name="Trazado 105075" d="M73.295,69.795a12.25,12.25,0,0,1-12.25,12.25H38.295a12.25,12.25,0,1,1,0-24.5h22.75a12.25,12.25,0,0,1,12.25,12.25Z" fill="#e91e63"/>
      </g>
      <g id="Grupo_62617" data-name="Grupo 62617">
        <path id="Trazado_105076" data-name="Trazado 105076" d="M101.5,42V40.25A5.25,5.25,0,0,0,96.25,35h-35V28.492l2.175-.544a1.75,1.75,0,0,0-.85-3.395l-1.325.331V21.492l2.175-.544a1.75,1.75,0,0,0-.85-3.395l-1.325.331V14.492l2.175-.544a1.75,1.75,0,1,0-.85-3.4l-1.325.331V7.492l2.175-.544a1.75,1.75,0,0,0-.85-3.395l-1.325.331V1.75A1.75,1.75,0,0,0,59.5,0h-14a1.75,1.75,0,0,0-1.75,1.75V8.258L41.575,8.8A1.75,1.75,0,0,0,42,12.25a1.7,1.7,0,0,0,.427-.053l1.323-.331v3.392l-2.175.544A1.75,1.75,0,0,0,42,19.25a1.7,1.7,0,0,0,.427-.052l1.323-.331v3.392l-2.175.544A1.75,1.75,0,0,0,42,26.25a1.7,1.7,0,0,0,.427-.052l1.323-.331v3.392l-2.175.544A1.75,1.75,0,0,0,42,33.25a1.7,1.7,0,0,0,.427-.052l1.323-.331V35h-35A5.25,5.25,0,0,0,3.5,40.25V42A3.5,3.5,0,0,0,0,45.5V56a3.5,3.5,0,0,0,3.5,3.5h25.77a13.941,13.941,0,0,0,0,21H3.5A3.5,3.5,0,0,0,0,84V94.5A3.5,3.5,0,0,0,3.5,98v1.75A5.25,5.25,0,0,0,8.75,105h87.5a5.25,5.25,0,0,0,5.25-5.25V98a3.5,3.5,0,0,0,3.5-3.5V84a3.5,3.5,0,0,0-3.5-3.5H75.729a13.941,13.941,0,0,0,0-21H101.5A3.5,3.5,0,0,0,105,56V45.5A3.5,3.5,0,0,0,101.5,42ZM47.25,3.5h10.5V4.758L47.25,7.383V3.5Zm0,7.492,10.5-2.625v3.392l-10.5,2.625V10.992Zm0,7,10.5-2.625v3.392l-10.5,2.625V17.992Zm0,7,10.5-2.625v3.392l-10.5,2.625V24.992Zm0,7,10.5-2.625V35H47.25V31.992ZM7,40.25A1.75,1.75,0,0,1,8.75,38.5h87.5A1.75,1.75,0,0,1,98,40.25V42H7Zm91,59.5a1.75,1.75,0,0,1-1.75,1.75H8.75A1.75,1.75,0,0,1,7,99.75V98H98ZM101.5,84V94.5H3.5V84ZM77,70A10.51,10.51,0,0,1,66.5,80.5h-28a10.5,10.5,0,0,1,0-21h28A10.511,10.511,0,0,1,77,70ZM66.5,56H3.5V45.5h98V56Z"/>
        <path id="Trazado_105077" data-name="Trazado 105077" d="M14,49H8.75a1.75,1.75,0,0,0,0,3.5H14A1.75,1.75,0,0,0,14,49Z"/>
        <path id="Trazado_105078" data-name="Trazado 105078" d="M45.5,49H21a1.75,1.75,0,0,0,0,3.5H45.5a1.75,1.75,0,0,0,0-3.5Z"/>
        <path id="Trazado_105079" data-name="Trazado 105079" d="M14,87.5H8.75a1.75,1.75,0,1,0,0,3.5H14a1.75,1.75,0,1,0,0-3.5Z"/>
        <path id="Trazado_105080" data-name="Trazado 105080" d="M19.25,89.25A1.75,1.75,0,0,0,21,91H45.5a1.75,1.75,0,1,0,0-3.5H21A1.75,1.75,0,0,0,19.25,89.25Z"/>
        <path id="Trazado_105081" data-name="Trazado 105081" d="M31.5,70a7,7,0,0,0,7,7,1.75,1.75,0,1,0,0-3.5,3.5,3.5,0,1,1,0-7h28a3.5,3.5,0,1,1,0,7,1.75,1.75,0,0,0,0,3.5,7,7,0,1,0,0-14h-28A7,7,0,0,0,31.5,70Z"/>
      </g>
    </g>
  </g>
</svg>
