<svg xmlns="http://www.w3.org/2000/svg" xmlns:xlink="http://www.w3.org/1999/xlink" width="105" height="105" viewBox="0 0 105 105">
  <defs>
    <clipPath id="clip-path">
      <rect id="Rectángulo_5455" data-name="Rectángulo 5455" width="105" height="105" transform="translate(143 956)" fill="#fff" stroke="#707070" stroke-width="1"/>
    </clipPath>
  </defs>
  <g id="Enmascarar_grupo_52" data-name="Enmascarar grupo 52" transform="translate(-143 -956)" clip-path="url(#clip-path)">
    <g id="prensado" transform="translate(143 956)">
      <g id="Grupo_62620" data-name="Grupo 62620">
        <path id="Trazado_105082" data-name="Trazado 105082" d="M53.179,71.944a7.568,7.568,0,0,1-15.137,0c0-4.178,7.568-11.348,7.568-11.348S53.179,67.766,53.179,71.944Z" fill="#b3dafe"/>
        <path id="Trazado_105083" data-name="Trazado 105083" d="M45.61,60.6s-1.447,1.371-3.076,3.264c2.1,2.435,4.492,5.733,4.492,8.084a7.565,7.565,0,0,1-4.492,6.912,7.568,7.568,0,0,0,10.644-6.912C53.179,67.766,45.61,60.6,45.61,60.6Z" fill="#8ac9fe"/>
        <path id="Trazado_105084" data-name="Trazado 105084" d="M40.63,97.9a5.561,5.561,0,0,1-11.123,0c0-3.07,5.561-8.339,5.561-8.339S40.63,94.832,40.63,97.9Z" fill="#b3dafe"/>
        <path id="Trazado_105085" data-name="Trazado 105085" d="M35.069,89.563s-.574.544-1.351,1.382c1.39,1.7,2.781,3.785,2.781,5.32a5.559,5.559,0,0,1-5.374,5.555A5.562,5.562,0,0,0,40.63,97.9c0-3.07-5.562-8.339-5.562-8.339Z" fill="#8ac9fe"/>
        <g id="Grupo_62619" data-name="Grupo 62619">
          <path id="Trazado_105086" data-name="Trazado 105086" d="M37.73,41.656a33.564,33.564,0,0,1-18.1,5.33l-18.188.019A1.435,1.435,0,0,1,0,45.57V6.125A1.436,1.436,0,0,1,1.435,4.69l18.238-.019A34.059,34.059,0,0,1,33.037,7.439a33.082,33.082,0,0,1,4.8,2.571q-.053,15.823-.105,31.646Z" fill="#c2bce0"/>
          <path id="Trazado_105087" data-name="Trazado 105087" d="M66.243,47.188a34.34,34.34,0,0,0,5.626,3.068,35.1,35.1,0,0,0,13.458,2.81l18.238-.019A1.436,1.436,0,0,0,105,51.611V12.166a1.435,1.435,0,0,0-1.437-1.436l-18.188.019a33.564,33.564,0,0,0-18.1,5.33q-.514,15.554-1.027,31.108Z" fill="#aca6d6"/>
          <path id="Trazado_105088" data-name="Trazado 105088" d="M103.562,10.731l-4.715,0V30.3A19.754,19.754,0,0,1,79.175,49.989a35.274,35.274,0,0,1-12.115-2.271,34.26,34.26,0,0,0,4.81,2.537,35.1,35.1,0,0,0,13.458,2.81l18.238-.019A1.436,1.436,0,0,0,105,51.611V12.166a1.436,1.436,0,0,0-1.437-1.436Z" fill="#978ecb"/>
          <g id="Grupo_62618" data-name="Grupo 62618">
            <path id="Trazado_105089" data-name="Trazado 105089" d="M49.5,1.833A9.312,9.312,0,0,0,38.16,8.6l-7.5,29.787A9.408,9.408,0,0,0,37.43,49.794a9.312,9.312,0,0,0,11.343-6.767l7.5-29.787A9.408,9.408,0,0,0,49.5,1.833Z" fill="#aca6d6"/>
            <path id="Trazado_105090" data-name="Trazado 105090" d="M49.5,1.833A9.346,9.346,0,0,0,48,1.577a9.414,9.414,0,0,1,2.123,8.588l-7.5,29.787a9.316,9.316,0,0,1-9.836,7.023,9.318,9.318,0,0,0,15.988-3.947l7.5-29.787A9.408,9.408,0,0,0,49.5,1.833Z" fill="#978ecb"/>
            <path id="Trazado_105091" data-name="Trazado 105091" d="M48.731,43.136A9.408,9.408,0,0,0,55.5,54.544a9.312,9.312,0,0,0,11.343-6.767l7.5-29.787A9.408,9.408,0,0,0,67.572,6.582a9.312,9.312,0,0,0-11.343,6.767" fill="#aca6d6"/>
            <path id="Trazado_105092" data-name="Trazado 105092" d="M67.572,6.582a9.369,9.369,0,0,0-1.507-.256,9.414,9.414,0,0,1,2.123,8.588L60.689,44.7a9.316,9.316,0,0,1-9.836,7.023,9.319,9.319,0,0,0,15.988-3.947l7.5-29.787A9.407,9.407,0,0,0,67.572,6.582Z" fill="#978ecb"/>
          </g>
        </g>
      </g>
      <path id="Trazado_105093" data-name="Trazado 105093" d="M36.126,88.448a1.538,1.538,0,0,0-2.116,0c-1.009.956-6.042,5.9-6.042,9.455a7.1,7.1,0,0,0,14.2,0c0-3.552-5.033-8.5-6.042-9.455Zm-1.058,13.477A4.027,4.027,0,0,1,31.045,97.9c0-1.373,2.128-4.15,4.023-6.158,1.9,2.008,4.023,4.785,4.023,6.158A4.027,4.027,0,0,1,35.069,101.924Zm11.6-42.443a1.538,1.538,0,0,0-2.116,0c-.824.781-8.049,7.76-8.049,12.464a9.106,9.106,0,0,0,18.213,0C54.717,67.241,47.492,60.261,46.668,59.481Zm4.972,12.464a6.03,6.03,0,0,1-12.06,0c0-2.245,3.351-6.431,6.024-9.179.7.725,1.665,1.766,2.619,2.935,3.084,3.779,3.417,5.625,3.417,6.243Zm23.583-37.83a30.177,30.177,0,0,1,5.578.71,1.538,1.538,0,0,0,.671-3,33.259,33.259,0,0,0-6.148-.783c-.895-.029-1.793-.019-2.689.025l1.524-6.055a15.134,15.134,0,0,1,6.7-.2,1.538,1.538,0,0,0,.583-3.02,18.335,18.335,0,0,0-6.252-.131c-.065.01-.13.023-.2.034l.838-3.328a10.88,10.88,0,0,0,.147-4.653,31.814,31.814,0,0,1,9.4-1.426l18.088-.021a1.538,1.538,0,0,0,0-3.076h0l-18.088.021A34.883,34.883,0,0,0,75,10.8a10.9,10.9,0,0,0-7.045-5.7,10.762,10.762,0,0,0-8.231,1.183,10.925,10.925,0,0,0-2.073,1.6A10.934,10.934,0,0,0,49.885.344,10.845,10.845,0,0,0,36.842,7.617a34.435,34.435,0,0,0-3.193-1.588,35.435,35.435,0,0,0-13.976-2.9L1.585,3.154a1.538,1.538,0,0,0,0,3.076h0L19.665,6.21a32.361,32.361,0,0,1,12.76,2.642,31.5,31.5,0,0,1,3.619,1.859L33.155,22.184a30.181,30.181,0,0,1-3.374.08,30.207,30.207,0,0,1-5.58-.712,1.538,1.538,0,0,0-.673,3,33.288,33.288,0,0,0,6.151.785c.9.03,1.793.02,2.689-.024l-1.524,6.054a15,15,0,0,1-6.7.2,1.538,1.538,0,0,0-.583,3.02,18.5,18.5,0,0,0,3.511.338,17.9,17.9,0,0,0,2.935-.24l-.838,3.328a10.89,10.89,0,0,0,.164,5.915,31.861,31.861,0,0,1-9.709,1.521l-18.088.021a1.538,1.538,0,0,0,0,3.076h0l18.088-.021a34.925,34.925,0,0,0,11.035-1.8,10.859,10.859,0,0,0,16.69,1.777,10.934,10.934,0,0,0,7.764,7.53,10.85,10.85,0,0,0,13.216-7.881L71.847,34.2a30.252,30.252,0,0,1,3.376-.08ZM65.35,47.4a7.808,7.808,0,0,1-15.181-3.655c.07-.318,5.2-20.627,5.288-20.971a1.538,1.538,0,1,0-2.983-.751c-.088.351-5.188,20.637-5.288,20.971a7.771,7.771,0,0,1-9.375,5.309,7.877,7.877,0,0,1-5.658-9.543l7.5-29.787a7.773,7.773,0,0,1,9.47-5.652,7.876,7.876,0,0,1,5.711,9.308c-.15.683-.726,2.91-.891,3.563a1.538,1.538,0,1,0,2.983.751c.067-.268.818-3.32.891-3.563a7.771,7.771,0,0,1,9.375-5.31,7.877,7.877,0,0,1,5.658,9.543Zm38.064,4.106h0l-18.076.02a33.6,33.6,0,0,1-12.278-2.441,1.538,1.538,0,0,0-1.158,2.85A36.657,36.657,0,0,0,85.308,54.6h.021l18.087-.02a1.538,1.538,0,0,0,0-3.076Z"/>
    </g>
  </g>
</svg>
