<svg id="Grupo_63744" data-name="Grupo 63744" xmlns="http://www.w3.org/2000/svg" xmlns:xlink="http://www.w3.org/1999/xlink" width="143.88" height="143.882" viewBox="0 0 143.88 143.882">
  <defs>
    <linearGradient id="linear-gradient" x1="-1.141" y1="0.938" x2="1.136" y2="0.342" gradientUnits="objectBoundingBox">
      <stop offset="0.285" stop-color="#9e9e9e"/>
      <stop offset="0.383" stop-color="#a9a9a9"/>
      <stop offset="0.559" stop-color="#c9c9c9"/>
      <stop offset="0.694" stop-color="#e6e6e6"/>
      <stop offset="0.737" stop-color="#ebebeb"/>
      <stop offset="0.873" stop-color="#f8f8f8"/>
      <stop offset="1" stop-color="#fdfdfd"/>
    </linearGradient>
  </defs>
  <g id="Grupo_63427" data-name="Grupo 63427">
    <g id="Grupo_63426" data-name="Grupo 63426" transform="translate(0 0)">
      <g id="Grupo_63425" data-name="Grupo 63425">
        <path id="Trazado_109202" data-name="Trazado 109202" d="M1731.881,103.814A71.94,71.94,0,1,1,1659.817,32,71.942,71.942,0,0,1,1731.881,103.814Z" transform="translate(-1588 -32)" fill="#323334"/>
        <path id="Trazado_109203" data-name="Trazado 109203" d="M1603.949,140.468a78.017,78.017,0,0,0-6.061,19.045c-1.025,5.455-.746,7.57,3.472,13.57,8.07,11.474,11.063,14.6,13.823,14.136s15.744-3.285,19.538-4.215c2.874-.7,2.872-1.4,4.013-6.389s2.969-11.959,3.422-15.791-.121-3.713-3.463-7.885-11.293-14.832-12.9-16.8-2.42-1.389-6.212-.8-9.54,2.106-12.3,2.806S1604.522,139.539,1603.949,140.468Z" transform="translate(-1591.908 -74.772)" fill="#fff"/>
        <path id="Trazado_109204" data-name="Trazado 109204" d="M1612.5,66.987a117.05,117.05,0,0,0-6.718,10.27c-1.768,3.226-1.227,7.882-.147,16.835s1.968,8.95,5.336,8.227,12.772-2.709,15.254-3.25,4.428-4.845,6.728-8.607A205.5,205.5,0,0,1,1646.3,72.936c1.755-1.565,1.236-3.13.712-7.3s-1.78-12.818-2.916-13.129-9.916-.305-13.219-.506S1619.2,58.557,1612.5,66.987Z" transform="translate(-1594.925 -40.323)" fill="#fff"/>
        <path id="Trazado_109205" data-name="Trazado 109205" d="M1672.477,173.588s-3.456,13.952-4.61,19.34c-.573,3.166-.688,3.87,5.82,8.2s9.761,6.893,11.854,8.06,3.947,1.168,9.984-.251,12.011-2.691,14.5-3.775c2.437-1.057,6.252-9.5,7.981-15.126s3.116-10.2.675-12.189-5.349-5.03-9.3-7.715-7.32-6.2-8.829-5.493-17.094,4.621-23.125,6.238C1674.565,171.682,1672.689,172.377,1672.477,173.588Z" transform="translate(-1621.135 -87.161)" fill="#fff"/>
        <path id="Trazado_109206" data-name="Trazado 109206" d="M1696.848,257.747s2.841-11.914,3.294-14.8,1.483-3.01,5.606-3.711,15.112-3.956,17.057-4.651,3.11-1.057,6.436,1.478,10.761,8.084,13.284,9.816c1.833,1.268-6.659,7.418-17.734,10.436C1711.967,259.8,1696.735,259.71,1696.848,257.747Z" transform="translate(-1633.3 -116.095)" fill="#fff"/>
        <path id="Trazado_109207" data-name="Trazado 109207" d="M1678.29,63.581s-1.53-8.621-2.09-13.347-.008-4.175,6.19-6.828,20.936-6.018,24.106-6.3,6.891.684,14.891,4.7,10.07,5.407,10.488,7.771,1.4,13.212,1.547,18.221c-.132,3.477-1.326,3.069-7.219,5.5-6.041,2.489-11.8,4.914-13.22,5.731-1.916.819-5.146-1.1-10.457-4.542a96.553,96.553,0,0,0-18.548-8.454C1679.839,64.814,1678.77,65.607,1678.29,63.581Z" transform="translate(-1624.637 -34.105)" fill="#fff"/>
        <path id="Trazado_109208" data-name="Trazado 109208" d="M1733.6,107.67s-2.958,13.462-4.362,20.337c-1.408,6.59-.98,7.59,3,10.59s8.523,7.285,10.938,9.143,3.983,4.013,11.636,1.842c9.638-2.737,12.194-3.46,15.167-4.466s3.543-2.154,4.668-7.6,1.962-13.6,2.521-18.046-.292-5.151-3.844-8.726-10.228-9.285-12.788-11.858-4.4-2.857-7.52-1.705-11.621,4.316-14.74,6.037S1734.022,105.092,1733.6,107.67Z" transform="translate(-1646.475 -58.859)" fill="#fff"/>
        <path id="Trazado_109209" data-name="Trazado 109209" d="M1817.784,124.254s-4.63,1.534-6.047,2.206-1.221,5.25-1.779,9.929a157.587,157.587,0,0,1-3.374,17.663c-.656,1.909,1.981,3.505,4.172,7.057,3.417,5.531,5.217,8.583,5.972,7.528s5.653-11.846,5.434-29.692C1821.578,130.926,1820.146,122.913,1817.784,124.254Z" transform="translate(-1678.927 -70.332)" fill="#fff"/>
        <path id="Trazado_109210" data-name="Trazado 109210" d="M1594.643,191.3s.676-1.963,1.27-.941,7.377,12.194,12.885,18.159c1.948,1.874,2.457,2.387,2.718,5.887s-.162,4.352-2.2,2.308S1597.457,202.305,1594.643,191.3Z" transform="translate(-1590.765 -97.781)" fill="#fff"/>
        <path id="Trazado_109211" data-name="Trazado 109211" d="M1735.291,34.695s-1.016-.34-1.437.088,1.947,1.108,6.094,2.892a100.411,100.411,0,0,1,13.289,6.891c1.864,1.105,2.624,1.36,4.231.674s2.112-.943.25-1.963S1744,35.96,1735.291,34.695Z" transform="translate(-1648.681 -33.068)" fill="#fff"/>
        <path id="Trazado_109212" data-name="Trazado 109212" d="M1719.282,238.538s-8.964,2.212-14.718,3.5c-3.783.485-3.307,6.847-4.964,13.869,0,0,2.277-8.12,3.423-11.032S1708.848,242.807,1719.282,238.538Z" transform="translate(-1634.445 -117.955)" fill="#979797" style="mix-blend-mode: screen;isolation: isolate"/>
        <path id="Trazado_109213" data-name="Trazado 109213" d="M1624.23,64.409s8.17-8.58,11.5-10.424,15.914-.608,15.914-.608-8.828.29-12.983.53S1624.23,64.409,1624.23,64.409Z" transform="translate(-1603.078 -40.728)" fill="#fff" style="mix-blend-mode: screen;isolation: isolate"/>
        <path id="Trazado_109214" data-name="Trazado 109214" d="M1701.486,41.911s12.677-3.68,16.632-3.854,11.868,3.14,20.606,8.111c-9.727-4.3-16.984-7.12-19.948-7.115S1701.486,41.911,1701.486,41.911Z" transform="translate(-1635.23 -34.518)" fill="#fff"/>
        <path id="Trazado_109215" data-name="Trazado 109215" d="M1620.171,139.2s11.342-2.885,13.045-2.6,15.068,18.584,15.068,18.584-11.656-14.294-15.064-16.007S1620.171,139.2,1620.171,139.2Z" transform="translate(-1601.389 -75.524)" fill="#fff"/>
        <path id="Trazado_109216" data-name="Trazado 109216" d="M1790.9,108.709s7.74,7.246,10.01,9.53,2.136,2.416.166,19.093c.914-10.624,1.438-15.062-.565-17.749S1790.9,108.709,1790.9,108.709Z" transform="translate(-1672.443 -63.924)" fill="url(#linear-gradient)"/>
        <g id="Grupo_63424" data-name="Grupo 63424" transform="translate(10.346 39.901)">
          <path id="Trazado_109217" data-name="Trazado 109217" d="M1659.415,191.282s-1.832,8.311-2.834,12.046-4.532,3.23-13.6,5.113c9.574-2.9,11.925-3.244,12.761-5.79S1659.415,191.282,1659.415,191.282Z" transform="translate(-1621.227 -138.19)" fill="#fff" style="mix-blend-mode: screen;isolation: isolate"/>
          <path id="Trazado_109218" data-name="Trazado 109218" d="M1671.378,189.261s1.973-8.165,2.676-11.458c.986-3.152,7.227-3.595,13.75-5.322,0,0-6.1,2.016-10.065,3.6S1673.778,182.959,1671.378,189.261Z" transform="translate(-1633.046 -130.365)" fill="#fff" style="mix-blend-mode: screen;isolation: isolate"/>
          <path id="Trazado_109219" data-name="Trazado 109219" d="M1677.872,226.053s7.152,5.092,10.293,7.2,4.885,2.279,13.074.5a85.6,85.6,0,0,0,10.455-2.656s-11.5,2.484-17.425,2.669S1677.872,226.053,1677.872,226.053Z" transform="translate(-1635.749 -152.661)" fill="#fff"/>
          <path id="Trazado_109220" data-name="Trazado 109220" d="M1730.406,131.742s3.229-17.679,4.253-21.84,8.4-6.426,16.121-9.558c0,0-8.747,4.522-12.176,6.78S1735.523,111.979,1730.406,131.742Z" transform="translate(-1657.612 -100.344)" fill="#fff" style="mix-blend-mode: screen;isolation: isolate"/>
          <path id="Trazado_109221" data-name="Trazado 109221" d="M1742.678,178.511s5.189,4.231,6.873,5.784,1.689,5.51-3.469,17.957c2.225-8.343,5.292-15.417,2.208-18.238S1742.678,178.511,1742.678,178.511Z" transform="translate(-1662.719 -132.875)" fill="#fff" style="mix-blend-mode: screen;isolation: isolate"/>
          <path id="Trazado_109222" data-name="Trazado 109222" d="M1605.722,205.85s4.141,5.65,7.023,8.843c2.511,2.6,3.03,3.05,3.039,8.332-.377-3.422-.829-5.089-2.452-6.8S1605.722,205.85,1605.722,205.85Z" transform="translate(-1605.722 -144.253)" fill="#fff" style="mix-blend-mode: screen;isolation: isolate"/>
        </g>
      </g>
    </g>
    <path id="Trazado_109223" data-name="Trazado 109223" d="M1659.817,32a71.941,71.941,0,1,0,72.063,71.814A71.94,71.94,0,0,0,1659.817,32Zm-.574,128.972c-36.259.065-65.7-27.824-65.76-62.291s29.281-62.459,65.541-62.522,65.7,27.825,65.756,62.291S1695.5,160.907,1659.243,160.972Z" transform="translate(-1588 -32)" fill="#cfd1d2" style="mix-blend-mode: multiply;isolation: isolate"/>
  </g>
  <g id="Grupo_63428" data-name="Grupo 63428" transform="translate(42.472 35.231)">
    <path id="Trazado_109224" data-name="Trazado 109224" d="M1683.587,94.038c2.006,2.37,1.2,6.345-1.787,8.879s-7.047,2.668-9.053.3-1.205-6.345,1.787-8.879S1681.581,91.669,1683.587,94.038Z" transform="translate(-1665.282 -92.345)" fill="#4a4b4c" style="mix-blend-mode: screen;isolation: isolate"/>
    <path id="Trazado_109225" data-name="Trazado 109225" d="M1666.041,116.817c.889,1.049.535,2.811-.791,3.934s-3.122,1.181-4.011.131-.535-2.811.792-3.933S1665.152,115.766,1666.041,116.817Z" transform="translate(-1660.749 -102.217)" fill="#4a4b4c" style="mix-blend-mode: screen;isolation: isolate"/>
  </g>
</svg>
