<svg xmlns="http://www.w3.org/2000/svg" xmlns:xlink="http://www.w3.org/1999/xlink" width="1227" height="577" viewBox="0 0 1227 577">
  <defs>
    <clipPath id="clip-path">
      <ellipse id="Elipse_4253" data-name="Elipse 4253" cx="151.727" cy="151.727" rx="151.727" ry="151.727" fill="none"/>
    </clipPath>
  </defs>
  <g id="Grupo_63767" data-name="Grupo 63767" transform="translate(-180 -5466)">
    <rect id="Rectángulo_5885" data-name="Rectángulo 5885" width="1227" height="577" transform="translate(180 5466)" fill="#f3f9ff"/>
    <g id="Grupo_63714" data-name="Grupo 63714" transform="translate(-5518.73 6804.729)">
      <g id="Grupo_63632" data-name="Grupo 63632" transform="translate(5872.128 -1263.478)">
        <g id="Grupo_63623" data-name="Grupo 63623" transform="translate(537.578 163.041)">
          <g id="Grupo_63622" data-name="Grupo 63622">
            <g id="Grupo_63611" data-name="Grupo 63611">
              <ellipse id="Elipse_4252" data-name="Elipse 4252" cx="151.727" cy="151.727" rx="151.727" ry="151.727" fill="#3dd4f2"/>
              <g id="Grupo_63610" data-name="Grupo 63610" transform="translate(5.164 29.115)">
                <path id="Trazado_110062" data-name="Trazado 110062" d="M6719.156-1049.141c-2.934-13.226-32.662-6.526-38.934.342-5.727,6.269-3.638,14-3.624,21.71.016,9.018-3.484,19.24-8.149,26.954-5.92,9.793-26.414,13.1-21.741,28.888,1.016,3.429,6.128,9.029,9.154,11.3,2.957,2.213,6.114,2.436,9.428,3.722,3.959,1.536,5.666,4.241,8.693,7.044,2.865,2.653,5.519,4.4,7.595,7.786,2.524,4.124,3.946,8.722,6.793,12.684,3.46,4.814,12.411,12.762,19.035,11.794,15.24-2.225,4.213-21.018,2.8-29.1-2.458-14.019,11.857-25.614,15.391-38.406a31.573,31.573,0,0,0,1.157-11.759c-.25-2.821-1.885-6.706-1.278-9.509.531-2.453,3.073-4.79,3.995-7.234a43.719,43.719,0,0,0,2.365-13.351c.288-6.368-4.37-25.177-14.486-21.054" transform="translate(-6514.619 1076.525)" fill="#61daf2"/>
                <path id="Trazado_110063" data-name="Trazado 110063" d="M6727.726-946.412c9.7,7.338,21.1,4.844,31.173,9.241,4.932,2.154,7.028,6.616,6.458,11.959-.254,2.385-2.782,5.109-3.031,7.435-.311,2.9.732,5.623,1.158,8.465,1.71,11.438-7.327,21.592-12.717,31.634-7.953,14.815-23.014,18.7-36.323,26.848-8.9,5.445-30.521,23.347-36.387,7.763-5.9-15.684,16.291-26.685,24.5-38.6,8.827-12.819,2.525-24.608,6.788-38.095,1.874-5.932,14.579-18,21.038-18.036" transform="translate(-6508.164 1099.462)" fill="#61daf2"/>
                <path id="Trazado_110064" data-name="Trazado 110064" d="M6550.108-1001.368c.145-3.527,3.143-13.911,8.479-11.824,4.5,1.76,4.115,14.684,4.106,18.3-.027,11.964,3.09,20.383,12.11,27.792,8.263,6.788,19.72,17.036,20.866,28.669,1.836,18.658-21.9,22.176-35.46,19.21-23.584-5.161-24.687-29.012-21.88-48.362,1.191-8.213,3.949-15.474,7.141-23.183,2.417-5.838,3.206-14.31,6.625-19.215" transform="translate(-6537.239 1085.519)" fill="#61daf2"/>
                <path id="Trazado_110065" data-name="Trazado 110065" d="M6626.033-945.409c-8.731-8.518-21.937,5.766-27.164,11.762-4.323,4.961-9.115,9.1-15.862,9.438-7.365.365-10.1-1.621-17.259,1.8-4.986,2.384-12.016,4-11.279,10.784.448,4.125,6.837,10.645,9.955,13.1,5.875,4.631,9.492,6.635,13.249,13.395,3.486,6.274,5.792,12.879,11.262,17.9,5.562,5.109,11.118,5.181,17.222,8.083,6.287,2.99,6.953,9.9,11.93,14.423,4.378,3.979,12.874,7.314,18.581,4.159,5.888-3.254,5.335-10.263,5.266-16.1-.088-7.251-2.083-11.629-5.136-18.018-2.517-5.262-2.3-10.028-4.273-15.09-4.291-11.013-17.762-16.981-12.289-30.475,1.864-4.6,5.993-8.068,7.968-12.587,2.148-4.916,1.289-14.832-6.144-14.575" transform="translate(-6533.667 1099.122)" fill="#61daf2"/>
                <path id="Trazado_110066" data-name="Trazado 110066" d="M6729.939-1071.807c-1.978-1.913-7.064-1.773-9.175.7-3.03,3.548.587,5.706.753,8.893.208,3.974-9.88,13.031.431,12.145,3.282-.281,4.734-3.188,7.419-4.6,2.052-1.08,7.267-.841,8.587-2.259,4.249-4.558-3.626-14.079-9.161-13.164" transform="translate(-6499.798 1073.117)" fill="#61daf2"/>
              </g>
            </g>
            <g id="Grupo_63621" data-name="Grupo 63621">
              <g id="Grupo_63614" data-name="Grupo 63614">
                <g id="Grupo_63613" data-name="Grupo 63613" clip-path="url(#clip-path)">
                  <path id="Trazado_110067" data-name="Trazado 110067" d="M6620.123-980.8c-.245-1.015,4.5-1.741,6.02-1.813s3.554.29,4.133.907a13.968,13.968,0,0,0,2.393,2.5c.944.58.437,1.016,1.886,1.306s1.958-.218,1.813.725-1.812,1.523-2.537,1.451a7.215,7.215,0,0,1-3.047-1.016c-.725-.58-3.7-2.683-4.641-2.828S6620.246-980.295,6620.123-980.8Z" transform="translate(-6514.841 1121.047)" fill="#5ed15a"/>
                  <path id="Trazado_110068" data-name="Trazado 110068" d="M6646.57-973.923c.043.51-1.668.725-2.612.87s-4.206.58-4.641.942-2.1,1.306-2.757,1.088a3.65,3.65,0,0,1-1.667-1.434,7.182,7.182,0,0,1,.581-2.772c.362-.581.87-1.233,1.667-1.161s1.74.424,2.322,0,1.159-.78,1.74-.5S6646.424-975.592,6646.57-973.923Z" transform="translate(-6511.772 1122.218)" fill="#5ed15a"/>
                  <g id="Grupo_63612" data-name="Grupo 63612" transform="translate(-30.693 -13.301)">
                    <path id="Trazado_110069" data-name="Trazado 110069" d="M6597.559-1075.949a52.552,52.552,0,0,1,12.621,3.155c2.839,1.261,8.519-.947,13.882,0s7.257-.317,9.781,2.208,5.679,3.786,6.942,3.155,2.524-2.84,3.47-1.578.314,8.2-4.417,10.412-8.519,2.523-8.519,6.31,2.524,4.1,5.048,5.363,4.1,4.1,6.942,4.733,6.311-.947,8.2,3.786,5.679,5.995,5.048,3.155-1.578-4.733,2.207-7.571,2.209-5.049,0-7.888-2.207-5.68.316-6.942,9.781-2.208,10.727,0,3.156,6.625,6.311,7.257,3.244-5.23,5.365-4.455c2.271.83,1.51,5.978,2.271,7.695s6.675,2.287,8.01,4.957.954,6.411,1.334,8.449.572,3.563,0,4.9-.191,3.242,2.29,4,2.288,2.1,0,2.86-6.1.191-6.294-2.1-1.715-4.2-3.813-4.2-9.344.191-10.1,1.526-.573,2.478,1.906,2.478,3.05,2.353,2.289,2.607-1.907,1.779-.955,2.16,8.5-2.67,9.778-1.526-.434,4-3.1,5.148-7.245,5.721-8.962,4.577,4.387-4.767,2.1-4.577-9.155,3.034-9.535,4.759,3.05,4.2,1.334,5.538-6.482-.382-7.055,1.906.953,7.056-3.052,11.06-10.3,6.865-10.3,10.106,1.907,7.627,1.907,9.343-.763,4.957-1.907,5.148-1.525-1.144-3.051-1.526-1.715-3.05-2.669-5.148.19-5.53-3.623-5.719-5.911-.191-6.483.953,1.144,2.86-1.525,2.86-4.195-1.335-5.72.191-5.339,3.241-6.1,5.339-2.1,6.483-.191,10.487.382,3.241.955,4.576,4.767,3.433,6.483,4,4.766-1.906,4.2-4.2,3.049-3.623,4.384-3.623,2.289,2.1,2.1,3.242-2.86,6.1-3.051,8.2,2.1,2.67,5.72,3.815,3.432,1.524,3.432,4.576-.894,8.581,2.89,8.39,7.978,1.526,9.5,1.335,4.576-6.1,6.292-5.721.382,4.2,2.479,4.386,6.292-2.86,10.869-.954,9.152,2.289,10.487,4.2,2.479,5.53,4.575,6.483,7.818.191,10.3,2.1,3.051,8.58,7.626,10.487,10.3,3.241,13.919,4.576,10.679,2.67,10.107,8.009-1.526,8.2-4,11.06-2.479,4,0,10.678.572,9.534-1.143,11.44-6.295,5.53-10.487,6.483-5.913,2.289-7.057,3.815-2.287,6.1-1.144,8.58,1.334,4,.19,5.339a11.884,11.884,0,0,1-6.483,3.623c-2.669.382-5.149,2.289-5.529,4.386s-1.144,6.292-5.149,8.2-6.674,1.526-7.627,3.05-1.906,5.721-.572,7.628,1.716,4.576,0,5.91-3.433,2.479-3.433,4.2-.381,3.623-1.715,3.813-6.483,6.1-8.772,5.721-2.861-3.622-2.1-5.148a7.5,7.5,0,0,0,.953-5.53c-.572-2.288-.953-3.813-1.335-5.721a13.73,13.73,0,0,1-.572-5.339,89.657,89.657,0,0,1,1.525-9.534,78.847,78.847,0,0,0,.573-13.919c-.191-4.577.573-4.767.762-8.962s.381-9.916.381-13.157,1.335-6.293-1.334-8.009-11.06-2.1-16.589-8.772-9.343-6.864-8.58-14.3,3.241-8.389,4.577-11.249,2.86-8.009,2.86-11.06,1.715-4.576,1.524-6.1a23.109,23.109,0,0,0-4-8.2,12.342,12.342,0,0,0-7.055-3.432c-2.479-.382-5.148-3.815-7.627-7.437s-4.768-3.623-7.246-3.623-4.386-3.051-7.247-3.813a59.927,59.927,0,0,1-9.724-3.433c-3.242-1.525-4.767-2.669-7.055-6.865s-3.624-12.966-4.767-15.063-3.242-10.3-5.148-10.869-4-2.479-4.386-.762.19,6.292,1.717,8.009a21.665,21.665,0,0,1,3.24,5.529c.573,1.335.382,3.433-.953,2.1s-4.2-6.292-5.338-7.056a13.792,13.792,0,0,1-4.958-7.436c-1.335-4.386-1.335-8.962-2.29-10.3s-1.524-3.242-3.813-5.53-2.478-5.721-1.525-9.344.445-11.251-.54-12.395a32.307,32.307,0,0,0-6.133-5.339c-1.22-.738-.637-2.594,0-4.28a23.94,23.94,0,0,0,.8-10.965c-.842-4.215.337-9.276-2.53-9.951s-5.228-.843-6.915-2.192-4.724-3.542-7.759-3.2-11.132-.337-12.481,1.18-4.892,2.194-5.735,3.711-3.036,2.868-5.4,3.88-6.579,2.868-7.928,1.517-1.686-4.385-3.2-5.228-4.385-.169-5.4-2.362-3.036-1.518-4.047-2.529,1.18-2.7,3.372-4.892,10.626-5.228,8.771-7.253-3.542.337-5.06-.169-4.048-.843-3.2-2.36,4.217-3.037,5.735-3.037,6.24.337,9.108-1.012,6.241-3.372,8.434-3.036,3.878,2.53,5.9.843,4.218-4.554,7.59-4.217,12.988,0,16.192,1.349,5.734,3.2,9.446,2.024S6593.456-1076.5,6597.559-1075.949Z" transform="translate(-6507.554 1114.012)" fill="#5ed15a"/>
                    <path id="Trazado_110070" data-name="Trazado 110070" d="M6790.065-1062.766c-7.81-9.188-18.606-11.944-22.051-11.715s-10.8,2.3-13.093,4.594-7.809,4.594-8.5,7.121-1.838,3.215-3.216,4.823-3.445,2.986-1.147,4.823,5.972,2.068,6.431,4.135.688,3.676,3.674,3.905,2.756,3.674,5.742,2.067,5.514-3.445,4.364-5.742-1.836-5.972-2.527-8.039-2.3-2.527-.458-3.905,2.526-2.757,4.594-2.757,2.527-1.837,3.445.69-.918,4.135-.459,6.431-.23,4.823,2.068,4.823,4.134-1.147,5.054-.229,2.756,1.378,1.148,2.757-3.676,1.378-4.364,2.527a12.332,12.332,0,0,0-.919,3.872,5.084,5.084,0,0,1-4.305,3.479c-3.5.459-10.165,2.986-11.543,2.3s0-3.9-1.608-4.594-4.134.69-3.675,1.608.918,1.844,0,3.1-6.885,1.26-7.692,1.949a15.846,15.846,0,0,0-3.1,3.9c-.69,1.378-2.527,4.364-3.446,4.364s.458,1.838,1.376,3.905,3.906,7.809,1.15,8.728-6.891-.46-9.418,1.149-2.755,8.039-.919,10.8,3.676,4.135,6.433,3.9,5.281,0,6.66-2.526a22.849,22.849,0,0,0,2.757-6.891c.688-2.986-1.608-5.282.919-5.513s2.986,1.839,4.594-.229,2.985-4.135,5.972-4.364-.23,4.135,1.836,5.054,5.054,1.608,6.2,3.215,2.986,4.594,1.838,6.2-2.986,5.1-1.609,5.078,3.216.435,4.136-2.321,2.526-5.513,1.378-7.121-1.378-4.823-2.757-5.282-2.066-1.839-2.986-3.217-4.823-2.755-1.378-2.3,8.729,2.3,9.188,4.135a49.315,49.315,0,0,0,1.378,5.741c.919,2.756-.459,4.824,2.527,5.513s3.445.919,3.9,2.527-.458,3.9.46,1.608.69-3.216.229-5.284-2.3-4.823,0-5.282,2.987-.919,3.906,0,.229,1.837,1.147,3.9.92,2.527,3.446,3.217,1.838,2.526,4.594,2.755,5.972-1.736,5.972,1.66-.918,4.083,0,6.38,0,4.364-2.3,3.674-5.053-1.608-8.04-1.378-4.134-3.215-6.66-2.526-5.742,1.417-5.973,4.039,1.607,4.229.23,4.229-6.2-2.067-8.5-3.9-5.284-1.608-6.891-2.756-4.594-3.446-4.135-4.364,3.676-2.527,2.068-3.905-4.823-1.378-7.58-.459-4.135,2.067-7.121,3.905-5.973,3.675-6.892,2.986-.229-2.068-2.066-1.609a7.084,7.084,0,0,0-3.906,2.3c-.687.919-4.247,4.594-4.19,6.661s-1.091,7.581-3.388,12.863-4.823,7.35-5.972,9.877-3.9,8.5-2.525,12.633,2.3,7.121,3.444,9.648,2.756,5.972,5.053,6.431,7.35,4.594,7.809,5.513,2.3,2.3,6.2,2.526,5.512.231,8.5-1.148,8.244-3.905,10.9-3.446,6.1.228,8.625,4.708.69,7.006,2.985,9.763,3.677,5.053,2.528,6.66-4.136,3.446-1.838,4.825,5.052,2.067,6.2,4.135,4.133,8.039,3.673,10.335-2.525,7.35-1.607,11.026-.688,5.743.92,8.268a85.977,85.977,0,0,0,5.971,8.27c1.608,1.837,5.513,5.743,4.824,8.039a11.137,11.137,0,0,0,2.068,8.958c2.066,2.527,5.986,5.972,7.931,6.662s1.486,2.526,3.094,2.526,2.985-2.526,5.742-3.675,7.121-2.3,8.729-5.972a16.977,16.977,0,0,0,1.837-7.809c0-2.3-2.986-5.054,0-7.35a20.194,20.194,0,0,0,5.743-6.662,27.818,27.818,0,0,0,2.066-10.106c0-3.676-1.147-5.742,1.149-7.581s4.824-2.755,3.676-4.594-2.068-2.986-3.905-9.417-3.9-7.809-3.216-9.877,0-4.594,1.149-8.039.918-4.594,3.674-6.431,7.682-5.972,7.682-9.648,1.249-2.756,0-7.35-.789-5.053-2.858-6.89-2.3-2.757-3.9-.69-2.755,7.58-5.053,5.742-5.513-7.58-7.121-9.417.46-2.3-2.756-4.823-3.9-2.986-6.432-6.891-3.674-5.513-3.674-7.809-2.3-4.824-.919-6.662,3.675,0,4.824,2.527,5.971,6.661,6.89,9.417,5.284,10.336,6.661,11.485,1.149,5.283,3.446,4.594,3.674-6.2,5.513-7.121,5.971,1.839,8.039-1.608,4.824-6.661,3.444-9.188-.688-5.972-2.066-7.35-5.972,1.837-8.958.23-8.729-5.743-8.5-9.187,8.269-15.849,6.2-20.9-16.077-32.846-21.59-34.683-11.485-6.662-10.8-12.4S6790.065-1062.766,6790.065-1062.766Z" transform="translate(-6464.793 1115.246)" fill="#5ed15a"/>
                    <path id="Trazado_110071" data-name="Trazado 110071" d="M6718.29-1099.4c-4.75-5.2-18.544-9.045-25.781-8.819s-17.413,1.13-21.257,1.582-9.292,1.584-11.2,1.358-7.564.226-10.053,2.939-7.688,3.619-7.01,7.011,2.94,3.618,6.1,4.3,6.785-1.582,7.69,0,0,5.427.9,6.558,4.522,2.489,5.654,4.3,4.3,1.583,5.2,4.524,1.13,14.472,2.261,16.508.226,4.3,1.356,5.88,8.367,6.332,10.4,6.332,0-5.654,2.261-8.593,8.82-4.75,13.568-6.106,7.463-3.544,11.308-5.843,9.271-3.666,8.593-7.165-1.81-3.5-1.13-5.083,1.808-1.131,3.167-4.3,3.166-4.3,1.356-8.593A50.093,50.093,0,0,0,6718.29-1099.4Z" transform="translate(-6479.406 1108.231)" fill="#5ed15a"/>
                    <path id="Trazado_110072" data-name="Trazado 110072" d="M6729.639-1053.079c-.689-.319-3.506,0-3.619.679a2.467,2.467,0,0,0,.79,1.809c.341.339,1.229,1.809,1.012,2.375s-.572,3.28,0,3.958,1.7,1.7,1.817,2.714a18.239,18.239,0,0,1-.452,4.184c-.227,1.13-.793,2.375-.114,3.28a1.614,1.614,0,0,0,2.036.678c.679-.226.484.114,1.051-1.017s1.776-2.263,2.229-3.167.905-1.47.792-2.375.113-1.357-.792-2.261a3.6,3.6,0,0,1-1.244-2.035c-.339-1.018.564-1.358-.452-2.262s-.565-1.356-1.583-1.244-1.244,1.244-1.356-.452,2.389-2.11,1.755-3.152A4.328,4.328,0,0,0,6729.639-1053.079Z" transform="translate(-6462.132 1119.673)" fill="#5ed15a"/>
                    <path id="Trazado_110073" data-name="Trazado 110073" d="M6727.037-1046.248a1.662,1.662,0,0,0-1.454-.885c-.887-.064-2.278.063-2.531.885a2.582,2.582,0,0,1-1.139,1.75c-.631.337-1.265.273-1.581,1.348s-.885,1.772-.758,2.531-.8.948-.018,1.9.84,1.328,1.472,1.328a3.69,3.69,0,0,0,2.111-.315,10.158,10.158,0,0,0,2.949-1.646,4.123,4.123,0,0,0,1.322-1.581,6.906,6.906,0,0,0,0-2.277c-.183-.379-.689-.674-.562-1.285S6727.434-1045.737,6727.037-1046.248Z" transform="translate(-6463.539 1120.932)" fill="#5ed15a"/>
                    <path id="Trazado_110074" data-name="Trazado 110074" d="M6632.852-1087.985a44.67,44.67,0,0,0-7.943,0c-1.4.312-2.958,1.87-4.049,2.648s-2.8.623-2.8,2.025-.155,3.271,1.246,3.583,2.487,1.671,6.149.913,6.622-1.267,8.179,0,2.959,1.423,4.36,3.6,4.36,3.27,4.984,5.606-2.492,4.2-1.246,5.919,5.762,1.245,7.008,3.114,1.713,4.36,3.426,4.828,4.361-.468,4.828-2.18,0-4.361-1.868-5.14-3.428-2.8-2.8-3.27,6.7,1.4,7.631-.156-.622-4.786-2.023-5.43-3.9-2.514-6.231-3.759-3.737-7.32-6.229-7.32-2.8,2.959-4.205,2.336-3.271-4.2-4.361-5.45A5.142,5.142,0,0,0,6632.852-1087.985Z" transform="translate(-6484.578 1112.403)" fill="#5ed15a"/>
                    <path id="Trazado_110075" data-name="Trazado 110075" d="M6715.914-1068.631c-1.437-.8-5.7-1.874-7.947-1.311s-4.121-.192-5.621.559-3.186,2.25-1.5,3.188,3.186-.75,3.748.749-.187,1.873,1.873,2.624,1.875.374,5.059,0,5.059-.563,5.622-2.25A2.741,2.741,0,0,0,6715.914-1068.631Z" transform="translate(-6467.507 1116.16)" fill="#5ed15a"/>
                  </g>
                </g>
              </g>
              <g id="Grupo_63617" data-name="Grupo 63617">
                <g id="Grupo_63616" data-name="Grupo 63616" clip-path="url(#clip-path)">
                  <path id="Trazado_110076" data-name="Trazado 110076" d="M6620.123-980.8c-.245-1.015,4.5-1.741,6.02-1.813s3.554.29,4.133.907a13.968,13.968,0,0,0,2.393,2.5c.944.58.437,1.016,1.886,1.306s1.958-.218,1.813.725-1.812,1.523-2.537,1.451a7.215,7.215,0,0,1-3.047-1.016c-.725-.58-3.7-2.683-4.641-2.828S6620.246-980.295,6620.123-980.8Z" transform="translate(-6514.841 1121.047)" fill="#5ed15a"/>
                  <path id="Trazado_110077" data-name="Trazado 110077" d="M6646.57-973.923c.043.51-1.668.725-2.612.87s-4.206.58-4.641.942-2.1,1.306-2.757,1.088a3.65,3.65,0,0,1-1.667-1.434,7.182,7.182,0,0,1,.581-2.772c.362-.581.87-1.233,1.667-1.161s1.74.424,2.322,0,1.159-.78,1.74-.5S6646.424-975.592,6646.57-973.923Z" transform="translate(-6511.772 1122.218)" fill="#5ed15a"/>
                  <g id="Grupo_63615" data-name="Grupo 63615" transform="translate(-30.693 -13.301)">
                    <path id="Trazado_110078" data-name="Trazado 110078" d="M6597.559-1075.949a52.552,52.552,0,0,1,12.621,3.155c2.839,1.261,8.519-.947,13.882,0s7.257-.317,9.781,2.208,5.679,3.786,6.942,3.155,2.524-2.84,3.47-1.578.314,8.2-4.417,10.412-8.519,2.523-8.519,6.31,2.524,4.1,5.048,5.363,4.1,4.1,6.942,4.733,6.311-.947,8.2,3.786,5.679,5.995,5.048,3.155-1.578-4.733,2.207-7.571,2.209-5.049,0-7.888-2.207-5.68.316-6.942,9.781-2.208,10.727,0,3.156,6.625,6.311,7.257,3.244-5.23,5.365-4.455c2.271.83,1.51,5.978,2.271,7.695s6.675,2.287,8.01,4.957.954,6.411,1.334,8.449.572,3.563,0,4.9-.191,3.242,2.29,4,2.288,2.1,0,2.86-6.1.191-6.294-2.1-1.715-4.2-3.813-4.2-9.344.191-10.1,1.526-.573,2.478,1.906,2.478,3.05,2.353,2.289,2.607-1.907,1.779-.955,2.16,8.5-2.67,9.778-1.526-.434,4-3.1,5.148-7.245,5.721-8.962,4.577,4.387-4.767,2.1-4.577-9.155,3.034-9.535,4.759,3.05,4.2,1.334,5.538-6.482-.382-7.055,1.906.953,7.056-3.052,11.06-10.3,6.865-10.3,10.106,1.907,7.627,1.907,9.343-.763,4.957-1.907,5.148-1.525-1.144-3.051-1.526-1.715-3.05-2.669-5.148.19-5.53-3.623-5.719-5.911-.191-6.483.953,1.144,2.86-1.525,2.86-4.195-1.335-5.72.191-5.339,3.241-6.1,5.339-2.1,6.483-.191,10.487.382,3.241.955,4.576,4.767,3.433,6.483,4,4.766-1.906,4.2-4.2,3.049-3.623,4.384-3.623,2.289,2.1,2.1,3.242-2.86,6.1-3.051,8.2,2.1,2.67,5.72,3.815,3.432,1.524,3.432,4.576-.894,8.581,2.89,8.39,7.978,1.526,9.5,1.335,4.576-6.1,6.292-5.721.382,4.2,2.479,4.386,6.292-2.86,10.869-.954,9.152,2.289,10.487,4.2,2.479,5.53,4.575,6.483,7.818.191,10.3,2.1,3.051,8.58,7.626,10.487,10.3,3.241,13.919,4.576,10.679,2.67,10.107,8.009-1.526,8.2-4,11.06-2.479,4,0,10.678.572,9.534-1.143,11.44-6.295,5.53-10.487,6.483-5.913,2.289-7.057,3.815-2.287,6.1-1.144,8.58,1.334,4,.19,5.339a11.884,11.884,0,0,1-6.483,3.623c-2.669.382-5.149,2.289-5.529,4.386s-1.144,6.292-5.149,8.2-6.674,1.526-7.627,3.05-1.906,5.721-.572,7.628,1.716,4.576,0,5.91-3.433,2.479-3.433,4.2-.381,3.623-1.715,3.813-6.483,6.1-8.772,5.721-2.861-3.622-2.1-5.148a7.5,7.5,0,0,0,.953-5.53c-.572-2.288-.953-3.813-1.335-5.721a13.73,13.73,0,0,1-.572-5.339,89.657,89.657,0,0,1,1.525-9.534,78.847,78.847,0,0,0,.573-13.919c-.191-4.577.573-4.767.762-8.962s.381-9.916.381-13.157,1.335-6.293-1.334-8.009-11.06-2.1-16.589-8.772-9.343-6.864-8.58-14.3,3.241-8.389,4.577-11.249,2.86-8.009,2.86-11.06,1.715-4.576,1.524-6.1a23.109,23.109,0,0,0-4-8.2,12.342,12.342,0,0,0-7.055-3.432c-2.479-.382-5.148-3.815-7.627-7.437s-4.768-3.623-7.246-3.623-4.386-3.051-7.247-3.813a59.927,59.927,0,0,1-9.724-3.433c-3.242-1.525-4.767-2.669-7.055-6.865s-3.624-12.966-4.767-15.063-3.242-10.3-5.148-10.869-4-2.479-4.386-.762.19,6.292,1.717,8.009a21.665,21.665,0,0,1,3.24,5.529c.573,1.335.382,3.433-.953,2.1s-4.2-6.292-5.338-7.056a13.792,13.792,0,0,1-4.958-7.436c-1.335-4.386-1.335-8.962-2.29-10.3s-1.524-3.242-3.813-5.53-2.478-5.721-1.525-9.344.445-11.251-.54-12.395a32.307,32.307,0,0,0-6.133-5.339c-1.22-.738-.637-2.594,0-4.28a23.94,23.94,0,0,0,.8-10.965c-.842-4.215.337-9.276-2.53-9.951s-5.228-.843-6.915-2.192-4.724-3.542-7.759-3.2-11.132-.337-12.481,1.18-4.892,2.194-5.735,3.711-3.036,2.868-5.4,3.88-6.579,2.868-7.928,1.517-1.686-4.385-3.2-5.228-4.385-.169-5.4-2.362-3.036-1.518-4.047-2.529,1.18-2.7,3.372-4.892,10.626-5.228,8.771-7.253-3.542.337-5.06-.169-4.048-.843-3.2-2.36,4.217-3.037,5.735-3.037,6.24.337,9.108-1.012,6.241-3.372,8.434-3.036,3.878,2.53,5.9.843,4.218-4.554,7.59-4.217,12.988,0,16.192,1.349,5.734,3.2,9.446,2.024S6593.456-1076.5,6597.559-1075.949Z" transform="translate(-6507.554 1114.012)" fill="#55c752"/>
                    <path id="Trazado_110079" data-name="Trazado 110079" d="M6790.065-1062.766c-7.81-9.188-18.606-11.944-22.051-11.715s-10.8,2.3-13.093,4.594-7.809,4.594-8.5,7.121-1.838,3.215-3.216,4.823-3.445,2.986-1.147,4.823,5.972,2.068,6.431,4.135.688,3.676,3.674,3.905,2.756,3.674,5.742,2.067,5.514-3.445,4.364-5.742-1.836-5.972-2.527-8.039-2.3-2.527-.458-3.905,2.526-2.757,4.594-2.757,2.527-1.837,3.445.69-.918,4.135-.459,6.431-.23,4.823,2.068,4.823,4.134-1.147,5.054-.229,2.756,1.378,1.148,2.757-3.676,1.378-4.364,2.527a12.332,12.332,0,0,0-.919,3.872,5.084,5.084,0,0,1-4.305,3.479c-3.5.459-10.165,2.986-11.543,2.3s0-3.9-1.608-4.594-4.134.69-3.675,1.608.918,1.844,0,3.1-6.885,1.26-7.692,1.949a15.846,15.846,0,0,0-3.1,3.9c-.69,1.378-2.527,4.364-3.446,4.364s.458,1.838,1.376,3.905,3.906,7.809,1.15,8.728-6.891-.46-9.418,1.149-2.755,8.039-.919,10.8,3.676,4.135,6.433,3.9,5.281,0,6.66-2.526a22.849,22.849,0,0,0,2.757-6.891c.688-2.986-1.608-5.282.919-5.513s2.986,1.839,4.594-.229,2.985-4.135,5.972-4.364-.23,4.135,1.836,5.054,5.054,1.608,6.2,3.215,2.986,4.594,1.838,6.2-2.986,5.1-1.609,5.078,3.216.435,4.136-2.321,2.526-5.513,1.378-7.121-1.378-4.823-2.757-5.282-2.066-1.839-2.986-3.217-4.823-2.755-1.378-2.3,8.729,2.3,9.188,4.135a49.315,49.315,0,0,0,1.378,5.741c.919,2.756-.459,4.824,2.527,5.513s3.445.919,3.9,2.527-.458,3.9.46,1.608.69-3.216.229-5.284-2.3-4.823,0-5.282,2.987-.919,3.906,0,.229,1.837,1.147,3.9.92,2.527,3.446,3.217,1.838,2.526,4.594,2.755,5.972-1.736,5.972,1.66-.918,4.083,0,6.38,0,4.364-2.3,3.674-5.053-1.608-8.04-1.378-4.134-3.215-6.66-2.526-5.742,1.417-5.973,4.039,1.607,4.229.23,4.229-6.2-2.067-8.5-3.9-5.284-1.608-6.891-2.756-4.594-3.446-4.135-4.364,3.676-2.527,2.068-3.905-4.823-1.378-7.58-.459-4.135,2.067-7.121,3.905-5.973,3.675-6.892,2.986-.229-2.068-2.066-1.609a7.084,7.084,0,0,0-3.906,2.3c-.687.919-4.247,4.594-4.19,6.661s-1.091,7.581-3.388,12.863-4.823,7.35-5.972,9.877-3.9,8.5-2.525,12.633,2.3,7.121,3.444,9.648,2.756,5.972,5.053,6.431,7.35,4.594,7.809,5.513,2.3,2.3,6.2,2.526,5.512.231,8.5-1.148,8.244-3.905,10.9-3.446,6.1.228,8.625,4.708.69,7.006,2.985,9.763,3.677,5.053,2.528,6.66-4.136,3.446-1.838,4.825,5.052,2.067,6.2,4.135,4.133,8.039,3.673,10.335-2.525,7.35-1.607,11.026-.688,5.743.92,8.268a85.977,85.977,0,0,0,5.971,8.27c1.608,1.837,5.513,5.743,4.824,8.039a11.137,11.137,0,0,0,2.068,8.958c2.066,2.527,5.986,5.972,7.931,6.662s1.486,2.526,3.094,2.526,2.985-2.526,5.742-3.675,7.121-2.3,8.729-5.972a16.977,16.977,0,0,0,1.837-7.809c0-2.3-2.986-5.054,0-7.35a20.194,20.194,0,0,0,5.743-6.662,27.818,27.818,0,0,0,2.066-10.106c0-3.676-1.147-5.742,1.149-7.581s4.824-2.755,3.676-4.594-2.068-2.986-3.905-9.417-3.9-7.809-3.216-9.877,0-4.594,1.149-8.039.918-4.594,3.674-6.431,7.682-5.972,7.682-9.648,1.249-2.756,0-7.35-.789-5.053-2.858-6.89-2.3-2.757-3.9-.69-2.755,7.58-5.053,5.742-5.513-7.58-7.121-9.417.46-2.3-2.756-4.823-3.9-2.986-6.432-6.891-3.674-5.513-3.674-7.809-2.3-4.824-.919-6.662,3.675,0,4.824,2.527,5.971,6.661,6.89,9.417,5.284,10.336,6.661,11.485,1.149,5.283,3.446,4.594,3.674-6.2,5.513-7.121,5.971,1.839,8.039-1.608,4.824-6.661,3.444-9.188-.688-5.972-2.066-7.35-5.972,1.837-8.958.23-8.729-5.743-8.5-9.187,8.269-15.849,6.2-20.9-16.077-32.846-21.59-34.683-11.485-6.662-10.8-12.4S6790.065-1062.766,6790.065-1062.766Z" transform="translate(-6464.793 1115.246)" fill="#5ed15a"/>
                    <path id="Trazado_110080" data-name="Trazado 110080" d="M6718.29-1099.4c-4.75-5.2-18.544-9.045-25.781-8.819s-17.413,1.13-21.257,1.582-9.292,1.584-11.2,1.358-7.564.226-10.053,2.939-7.688,3.619-7.01,7.011,2.94,3.618,6.1,4.3,6.785-1.582,7.69,0,0,5.427.9,6.558,4.522,2.489,5.654,4.3,4.3,1.583,5.2,4.524,1.13,14.472,2.261,16.508.226,4.3,1.356,5.88,8.367,6.332,10.4,6.332,0-5.654,2.261-8.593,8.82-4.75,13.568-6.106,7.463-3.544,11.308-5.843,9.271-3.666,8.593-7.165-1.81-3.5-1.13-5.083,1.808-1.131,3.167-4.3,3.166-4.3,1.356-8.593A50.093,50.093,0,0,0,6718.29-1099.4Z" transform="translate(-6479.406 1108.231)" fill="#5ed15a"/>
                    <path id="Trazado_110081" data-name="Trazado 110081" d="M6729.639-1053.079c-.689-.319-3.506,0-3.619.679a2.467,2.467,0,0,0,.79,1.809c.341.339,1.229,1.809,1.012,2.375s-.572,3.28,0,3.958,1.7,1.7,1.817,2.714a18.239,18.239,0,0,1-.452,4.184c-.227,1.13-.793,2.375-.114,3.28a1.614,1.614,0,0,0,2.036.678c.679-.226.484.114,1.051-1.017s1.776-2.263,2.229-3.167.905-1.47.792-2.375.113-1.357-.792-2.261a3.6,3.6,0,0,1-1.244-2.035c-.339-1.018.564-1.358-.452-2.262s-.565-1.356-1.583-1.244-1.244,1.244-1.356-.452,2.389-2.11,1.755-3.152A4.328,4.328,0,0,0,6729.639-1053.079Z" transform="translate(-6462.132 1119.673)" fill="#5ed15a"/>
                    <path id="Trazado_110082" data-name="Trazado 110082" d="M6727.037-1046.248a1.662,1.662,0,0,0-1.454-.885c-.887-.064-2.278.063-2.531.885a2.582,2.582,0,0,1-1.139,1.75c-.631.337-1.265.273-1.581,1.348s-.885,1.772-.758,2.531-.8.948-.018,1.9.84,1.328,1.472,1.328a3.69,3.69,0,0,0,2.111-.315,10.158,10.158,0,0,0,2.949-1.646,4.123,4.123,0,0,0,1.322-1.581,6.906,6.906,0,0,0,0-2.277c-.183-.379-.689-.674-.562-1.285S6727.434-1045.737,6727.037-1046.248Z" transform="translate(-6463.539 1120.932)" fill="#5ed15a"/>
                    <path id="Trazado_110083" data-name="Trazado 110083" d="M6632.852-1087.985a44.67,44.67,0,0,0-7.943,0c-1.4.312-2.958,1.87-4.049,2.648s-2.8.623-2.8,2.025-.155,3.271,1.246,3.583,2.487,1.671,6.149.913,6.622-1.267,8.179,0,2.959,1.423,4.36,3.6,4.36,3.27,4.984,5.606-2.492,4.2-1.246,5.919,5.762,1.245,7.008,3.114,1.713,4.36,3.426,4.828,4.361-.468,4.828-2.18,0-4.361-1.868-5.14-3.428-2.8-2.8-3.27,6.7,1.4,7.631-.156-.622-4.786-2.023-5.43-3.9-2.514-6.231-3.759-3.737-7.32-6.229-7.32-2.8,2.959-4.205,2.336-3.271-4.2-4.361-5.45A5.142,5.142,0,0,0,6632.852-1087.985Z" transform="translate(-6484.578 1112.403)" fill="#5ed15a"/>
                    <path id="Trazado_110084" data-name="Trazado 110084" d="M6715.914-1068.631c-1.437-.8-5.7-1.874-7.947-1.311s-4.121-.192-5.621.559-3.186,2.25-1.5,3.188,3.186-.75,3.748.749-.187,1.873,1.873,2.624,1.875.374,5.059,0,5.059-.563,5.622-2.25A2.741,2.741,0,0,0,6715.914-1068.631Z" transform="translate(-6467.507 1116.16)" fill="#5ed15a"/>
                  </g>
                </g>
              </g>
              <g id="Grupo_63620" data-name="Grupo 63620">
                <g id="Grupo_63619" data-name="Grupo 63619" clip-path="url(#clip-path)">
                  <g id="Grupo_63618" data-name="Grupo 63618" transform="translate(-19.233 -10.356)" opacity="0.2" style="mix-blend-mode: multiply;isolation: isolate">
                    <path id="Trazado_110085" data-name="Trazado 110085" d="M6673.842-825.086c-.5,3.45.988,4.566,1.684,7.559.632,2.7-.054,6.451-.75,8.987a110.236,110.236,0,0,1-3.6,11.119,4.157,4.157,0,0,1-2.552.96c-2.287-.376-2.856-3.624-2.1-5.143a7.524,7.524,0,0,0,.951-5.536c-.567-2.288-.951-3.807-1.337-5.72a13.842,13.842,0,0,1-.567-5.335,89.182,89.182,0,0,1,1.529-9.535,79.383,79.383,0,0,0,.567-13.92c-.192-4.576.577-4.768.768-8.959s.376-9.92.376-13.159,1.336-6.287-1.336-8.007-11.054-2.1-16.582-8.767-9.343-6.873-8.585-14.3,3.239-8.391,4.576-11.247,2.864-8.016,2.864-11.063,1.712-4.576,1.519-6.1a23.339,23.339,0,0,0-4-8.2,12.4,12.4,0,0,0-7.056-3.432c-2.479-.375-5.152-3.806-7.632-7.431s-4.768-3.624-7.238-3.624-4.394-3.056-7.248-3.816a59.127,59.127,0,0,1-9.729-3.432c-3.238-1.528-4.769-2.672-7.057-6.864s-3.624-12.967-4.767-15.063-3.24-10.3-5.144-10.873-4.008-2.48-4.384-.76.185,6.287,1.711,8.007a21.5,21.5,0,0,1,3.24,5.528c.576,1.337.385,3.432-.952,2.1s-4.191-6.286-5.334-7.046a13.86,13.86,0,0,1-4.961-7.441c-1.336-4.384-1.336-8.959-2.288-10.3s-1.528-3.24-3.816-5.527-2.479-5.728-1.52-9.343.44-11.256-.548-12.4a32.22,32.22,0,0,0-6.131-5.334c-1.218-.742-.632-2.6,0-4.283a23.88,23.88,0,0,0,.8-10.963c-.842-4.219.34-9.279-2.525-9.948s-5.234-.842-6.918-2.2-4.724-3.542-7.76-3.2-11.13-.339-12.483,1.18-4.887,2.2-5.729,3.706-3.039,2.874-5.4,3.88-6.579,2.874-7.925,1.519a8.338,8.338,0,0,1-1.446-2.554,7.126,7.126,0,0,0,5.417-.786c3.112-1.638,4.979-4.813,8-6.58a34.777,34.777,0,0,1,8.319-3.249c4.923-1.244,11.971-.814,16.976-.064,5.794.86,11.375.092,15.229,5.308,3.515,4.759,4.748,12.217,6.313,17.974,2.38,8.749,3.752,17.159,2.792,26.228,3.6-.769,3.688,9.362,3.954,12.025.211,2.142-.468,4.566-.01,6.662.292,1.364,1.894,5.317,3.048,2.05,5.838-.338,11.045-1.838,14.7,3.844,2.415,3.78,2.645,8.731,3.376,13.032,1.191,6.936,4.466,16.3,10.8,20.087,3.823,2.288,8.647,3.579,12.666,5.573,3.9,1.931,6.945,5.482,10.057,8.639a15.151,15.151,0,0,0,3.944,2.864c.311,1.5,1.071,2.581,2.78,2.5a16.555,16.555,0,0,1,3.553.256c.312.146.631.3.95.466,2.49,1.272,4.934,2.407,6.012,4.878,1.347,3.1,1.036,8.5,1.329,11.915.375,4.4.713,6.735,3.239,10.149,2.59,3.5,1.866,5.583,1.474,9.883-.559,6.123-.77,15.851,5.581,18.642,5.584,2.462,13.1-.12,14.974,7.229,1.655,6.461-.038,15.073-.989,21.46C6680.21-841.6,6675.077-833.707,6673.842-825.086Z" transform="translate(-6517.041 1114.738)" fill="#59a555"/>
                    <path id="Trazado_110086" data-name="Trazado 110086" d="M6822.682-921.356c-.687,2.068,1.381,3.45,3.211,9.883s2.764,7.578,3.907,9.417-1.381,2.754-3.679,4.594-1.145,3.9-1.145,7.577a27.794,27.794,0,0,1-2.068,10.1,20.109,20.109,0,0,1-5.737,6.662c-2.993,2.3,0,5.052,0,7.349a16.978,16.978,0,0,1-1.84,7.815c-1.61,3.67-5.976,4.823-8.73,5.967s-4.136,3.678-5.738,3.678-1.153-1.84-3.093-2.526-5.866-4.136-7.934-6.662a11.152,11.152,0,0,1-2.068-8.959c.686-2.3-3.211-6.205-4.824-8.035a86.508,86.508,0,0,1-5.975-8.273c-1.6-2.526,0-4.594-.916-8.273s1.144-8.721,1.612-11.017-2.536-8.273-3.68-10.341-3.908-2.755-6.2-4.137.694-3.212,1.838-4.822-.228-3.9-2.526-6.663-.457-5.28-2.982-9.755-5.977-4.255-8.63-4.713-7.907,2.069-10.9,3.451-4.594,1.372-8.492,1.144-5.748-1.6-6.206-2.526-5.509-5.052-7.806-5.509-3.908-3.908-5.061-6.433-2.068-5.509-3.441-9.645,1.373-10.113,2.525-12.639,3.679-4.594,5.976-9.875,3.44-10.8,3.387-12.857,3.5-5.747,4.19-6.663a7.038,7.038,0,0,1,3.908-2.3c1.831-.467,1.145.915,2.059,1.6s3.908-1.144,6.892-2.984,4.365-2.984,7.12-3.908a9.811,9.811,0,0,1,6.682-.092c-1.347,3.057-4.248,6.589-8.347,6.306-.868,1.648-1.94,4.85-3.194,6.131-1.931,1.958-4.887,1.784-6.919,4.027-5.033,5.572-3.642,10.194-4.548,16.865-.851,6.278-4.877,14.341-1.638,20.774,2.755,5.463,12.473,2.444,17.544,3.963,7.284,2.168,14.523,3.87,21,7.916,7.422,4.64,11.128,10.331,14.3,18.559,1.628,4.219,4.163,7.523,3.953,12.172-.183,3.916-2.516,5.7-1.939,9.636,1.327,9.06,7.852,13.544,9.15,22,.742,4.85-1.29,21.9,2.929,23.94,7.66,3.7,10.955-6.085,10.461-10.953-.33-3.3-.788-6.617.988-9.637s5.473-4.146,6.919-7.4c6.744-15.237-5.931-32.835,5.251-47.038,2.756-3.5,4.8-5.7,8.851-7.339a22.507,22.507,0,0,0,3.761-1.9c-1.171,3.158-5.024,6.325-7.34,7.871-2.755,1.84-2.526,2.983-3.678,6.433S6823.368-923.425,6822.682-921.356Z" transform="translate(-6476.254 1125.241)" fill="#59a555"/>
                    <path id="Trazado_110087" data-name="Trazado 110087" d="M6720.329-1084.534c-1.362,3.166-2.489,2.718-3.166,4.3s.448,1.584,1.126,5.079-4.75,4.869-8.593,7.165-6.553,4.485-11.3,5.848-11.312,3.167-13.572,6.1-.228,8.593-2.26,8.593-9.271-4.749-10.4-6.333-.23-3.844-1.356-5.884-1.354-13.563-2.26-16.5-4.072-2.718-5.208-4.53-4.739-3.167-5.646-4.293,0-4.978-.906-6.561-4.521.677-7.687,0-5.427-.906-6.113-4.292,4.53-4.3,7.02-7.01c1.821-2,5.353-2.764,7.861-2.947a6.63,6.63,0,0,1,3.633,4.943c.43,3.34-.585,4.338,2.031,6.5,2.124,1.749,4.759,1.145,6.883,2.407,3.075,1.84,6.213,6.881,7.311,10.177,1.374,4.127-.027,7.586,0,11.759.075,9.6,5.19,7.669,12.6,6.508,6.606-1.036,13.022-5.729,16.7-11.375,2.15-3.313,2.4-6.269,5.179-9.363a70.705,70.705,0,0,1,9.6-8.593C6723.414-1088.771,6721.657-1087.627,6720.329-1084.534Z" transform="translate(-6490.866 1105.793)" fill="#59a555"/>
                    <path id="Trazado_110088" data-name="Trazado 110088" d="M6795.456-1006.44a72.592,72.592,0,0,1-5.116,6.955,3.114,3.114,0,0,0-.138-.384c-.915-2.3,0-2.992,0-6.387s-3.211-1.428-5.967-1.656-2.067-2.069-4.593-2.755-2.536-1.152-3.45-3.212-.229-2.992-1.144-3.908-1.61-.458-3.908,0-.458,3.212,0,5.28.687,2.984-.229,5.281,0,0-.458-1.6-.923-1.84-3.907-2.526-1.612-2.764-2.526-5.518a47.863,47.863,0,0,1-1.381-5.739c-.457-1.839-5.738-3.678-9.189-4.136s.458.916,1.381,2.3,1.612,2.754,2.984,3.212,1.61,3.678,2.755,5.29-.458,4.365-1.375,7.12-2.752,2.3-4.135,2.316.458-3.469,1.611-5.07-.7-4.595-1.841-6.205-4.136-2.3-6.2-3.221c-1.456-.64-.294-3-.522-4.256.888-2.168.349-3.688,2.427-5.737,3.679-3.642,7.706-2.708,11.768-.211,2.215,1.354,3.1,2.37,5.253,2.636,2.26.264,4.475-.668,6.8-.092,5.894,1.455,7.1,4.914,9.005,10.067,2.663.32,4.191,2.214,6.827,2.526,2.417.292,4.842-2.224,7.294.064C6800.342-1013.34,6797.24-1009.057,6795.456-1006.44Z" transform="translate(-6469.042 1120.842)" fill="#59a555"/>
                    <path id="Trazado_110089" data-name="Trazado 110089" d="M6766.769-1046.52c-2.279,6.15-13.169,6.406-18.542,6.927-2.279.229-7.916.448-9.363,2.828-1.418,2.325,1.813,7.569,1.336,10.653-.476,3.056-1.309,6.369-4.026,8.1-2.049,1.308-8.9.714-9.463,3.166-.438,1.958,4.595,5.793,6.1,6.489a6.613,6.613,0,0,0,6.206-.486c-.375.824-.824,1.656-1.373,2.663-1.373,2.526-3.9,2.3-6.662,2.526s-4.594-1.154-6.423-3.908-1.612-9.189.914-10.8,6.663-.23,9.417-1.144-.229-6.663-1.144-8.731-2.3-3.908-1.382-3.908,2.756-2.984,3.442-4.356a15.8,15.8,0,0,1,3.111-3.908c.8-.686,6.771-.686,7.687-1.95a2.582,2.582,0,0,0,0-3.1c-.457-.924,2.068-2.3,3.678-1.61s.23,3.907,1.6,4.594,8.042-1.84,11.548-2.3A5.117,5.117,0,0,0,6766.769-1046.52Z" transform="translate(-6474.143 1117.965)" fill="#59a555"/>
                    <path id="Trazado_110090" data-name="Trazado 110090" d="M6753.116-1044.973c-2.983,1.611-2.753-1.84-5.737-2.068s-3.222-1.83-3.679-3.9-4.137-2.3-6.435-4.137-.228-3.212,1.154-4.822,2.525-2.3,3.211-4.823a3.086,3.086,0,0,1,.129-.358c4.319.815,2.763,7.679,5.509,10.863,3.771,4.384,7,1.894,8.447-1.84a29.2,29.2,0,0,0,1.767,5.345C6758.626-1048.413,6756.1-1046.575,6753.116-1044.973Z" transform="translate(-6471.463 1114.259)" fill="#59a555"/>
                    <path id="Trazado_110091" data-name="Trazado 110091" d="M6656.994-1058.449c-.467,1.712-3.122,2.645-4.833,2.179s-2.178-2.956-3.422-4.823-5.765-1.409-7.01-3.12,1.867-3.579,1.245-5.913-3.578-3.432-4.978-5.61-2.81-2.333-4.366-3.606-4.511-.76-8.181,0-4.741-.6-6.149-.914-1.246-2.178-1.246-3.579c0-1.262,1.391-1.262,2.472-1.82,3.193,1.382,9.855,1.052,10.862,1.29,3.019.723,7.65,5.106,10.021,6.927,4.191,3.2,4.659,7.083,7.111,11.257,2.645,4.494,4.557,4.722,7.715,3.432A5.151,5.151,0,0,1,6656.994-1058.449Z" transform="translate(-6496.039 1109.98)" fill="#59a555"/>
                  </g>
                </g>
              </g>
            </g>
          </g>
          <path id="Trazado_110092" data-name="Trazado 110092" d="M6589.639-822.88a151.025,151.025,0,0,0,83.269,24.874,151.728,151.728,0,0,0,151.721-151.731,151.564,151.564,0,0,0-68.818-127.077C6874.057-950.235,6793.071-764.668,6589.639-822.88Z" transform="translate(-6521.178 1101.462)" fill="#4287a5" opacity="0.2" style="mix-blend-mode: multiply;isolation: isolate"/>
        </g>
        <g id="Grupo_63624" data-name="Grupo 63624" transform="translate(727.139 210.1)">
          <path id="Trazado_110093" data-name="Trazado 110093" d="M6747.242-1047.27c.54,2.563-3.349,5.386-5.968,4.658s-10.19-1.8-13.249.118-11.062,4.832-18.2,4.977c-3.931,1.456-16.594,3.64-19.07-2.766s.583-10.044,6.26-11.791,9.9,1.891,11.937,0,6.7-6.842,13.684-6.115,9.462,4.513,12.374,5.532C6738.8-1051.783,6746.076-1052.8,6747.242-1047.27Z" transform="translate(-6689.893 1058.261)" fill="#fff"/>
          <path id="Trazado_110094" data-name="Trazado 110094" d="M6736.752-1044.413c-2.622-.726-10.194-1.8-13.246.118a40.261,40.261,0,0,1-11.864,4.234c1.521-.934,2.941-2.017,4.421-3.011,3.26-2.2,7.256-3.905,11.22-3.905a24.237,24.237,0,0,1,7.135,1.232c1.58.487,3.488.974,4.89-.228.825-.705,1.032-1.8,1.718-2.593a5.179,5.179,0,0,1,1.542-1.044,4.426,4.426,0,0,1,.148.547C6743.262-1046.5,6739.376-1043.679,6736.752-1044.413Z" transform="translate(-6685.371 1060.06)" fill="#7d8dff" opacity="0.2"/>
        </g>
        <g id="Grupo_63718" data-name="Grupo 63718" transform="translate(5.586 180.231)">
          <path id="Trazado_110093-2" data-name="Trazado 110093" d="M6818.1-1033.691c1.208,5.73-7.486,12.041-13.341,10.413s-22.781-4.026-29.616.265-24.73,10.8-40.678,11.125c-8.786,3.254-37.1,8.136-42.63-6.183s1.3-22.454,13.994-26.358,22.129,4.229,26.685,0,14.972-15.295,30.591-13.669,21.152,10.089,27.661,12.368C6799.224-1043.779,6815.492-1046.059,6818.1-1033.691Z" transform="translate(-6689.894 1058.261)" fill="#fff"/>
          <path id="Trazado_110094-2" data-name="Trazado 110094" d="M6767.777-1037.992c-5.863-1.623-22.79-4.021-29.612.265-4.842,3.043-15.216,7.177-26.522,9.465,3.4-2.088,6.576-4.51,9.881-6.732,7.289-4.909,16.22-8.73,25.082-8.73a54.2,54.2,0,0,1,15.951,2.754c3.532,1.088,7.8,2.177,10.93-.51,1.845-1.577,2.308-4.021,3.841-5.8a11.548,11.548,0,0,1,3.445-2.333,10.219,10.219,0,0,1,.334,1.223C6782.328-1042.658,6773.641-1036.35,6767.777-1037.992Z" transform="translate(-6652.915 1072.969)" fill="#7d8dff" opacity="0.2"/>
        </g>
        <g id="Grupo_63627" data-name="Grupo 63627" transform="translate(770.219 356.797)">
          <g id="Grupo_63625" data-name="Grupo 63625">
            <path id="Trazado_110095" data-name="Trazado 110095" d="M6745.672-924.767c-2.047.04-5.839-1.527-11.661.784s-10.64,8.885-7.418,13.582,13.316,3.3,19.618-1.065c3.476,1.832,7.71,4.5,15.622,4.059s13.847-8.027,15.648-7.828,8.673,5.459,20.979-.569,8.342-12.135,6.124-14.469-8.6-5.808-13.218-6.1-10.5,6.227-13.709,5.368-6.9-7.872-18.387-5.214S6748.378-924.819,6745.672-924.767Z" transform="translate(-6725.558 936.816)" fill="#fff"/>
          </g>
          <g id="Grupo_63626" data-name="Grupo 63626" transform="translate(2.041 18.797)" opacity="0.2">
            <path id="Trazado_110096" data-name="Trazado 110096" d="M6755.241-911.69a30.136,30.136,0,0,1-9.381-3.706c-5.744,3.974-14.648,5.495-18.612,2.166,4.054-.626,7.989-3.24,11.953-4.114,1.928-.426,4.99-.864,6.938-.278,1.729.527,2.572,1.818,3.955,2.762.684.477,1.62.6,2.315,1.063C6753.393-913.131,6754.277-912.335,6755.241-911.69Z" transform="translate(-6727.249 921.951)" fill="#7d8dff"/>
            <path id="Trazado_110097" data-name="Trazado 110097" d="M6781.6-916.181c-6.071.348-9.659-2.146-10.891-2.285-1.57-.179-6.229,5.485-12.591,7.293,3.449-2.027,6.42-5.664,9.133-8.1a7.44,7.44,0,0,1,4.88-1.979c1.948-.069,2.892.487,4.492,1.521C6778.355-918.6,6779.994-917.462,6781.6-916.181Z" transform="translate(-6720.828 921.255)" fill="#7d8dff"/>
          </g>
        </g>
        <g id="Grupo_63629" data-name="Grupo 63629" transform="translate(542.156 173.931)">
          <g id="Grupo_63628" data-name="Grupo 63628" transform="translate(0.001)">
            <path id="Trazado_110098" data-name="Trazado 110098" d="M6583.347-1080.235c-2.668.559-3.4-1.957-8.005-3.788s-12.651-4.435-17.984.748-4.282,5.028-6.485,4.98-12.62,1.181-13.723,4.558-.026,5.946,4.843,6.292,7-1.149,9.3.275,4.932,5.8,14.283,6.763,12.753-3.878,14.636-2.017,10.44,5.407,18.7,4.82c4.483.618,15.454,2.038,20.65-3.339,1.638-1.582,3.84-4.426.151-7.624s-8.17-3.817-8.821-4.951-3.6-13.384-13.248-14.572S6585.995-1080.79,6583.347-1080.235Z" transform="translate(-6536.753 1088.204)" fill="#fff"/>
          </g>
          <path id="Trazado_110099" data-name="Trazado 110099" d="M6619.566-1063.3c-5.2,5.376-16.167,3.956-20.65,3.34-8.257.586-16.824-2.962-18.7-4.82s-5.287,2.981-14.637,2.017-11.985-5.337-14.281-6.768-4.431.08-9.3-.268-5.942-2.9-4.859-6.261c.487-.118.973-.228,1.441-.358,6.191-1.649,11.317,1.54,15.611,5.843,2.047,2.048,3.975,4.422,7.075,4.77,2.792.308,5.792-.169,8.6-.288,3.737-.159,6.818-.388,10.5.308a6.559,6.559,0,0,0,2.981-.139,25.9,25.9,0,0,1,6.628-.606c4.79.268,8.586,3.4,13.138,4.551a21.389,21.389,0,0,0,10.942-.279c3.428-.974,6.229-5.227,5.435-8.844a1.934,1.934,0,0,1,.228.18C6623.4-1067.724,6621.206-1064.883,6619.566-1063.3Z" transform="translate(-6536.753 1090.563)" fill="#7d8dff" opacity="0.2"/>
        </g>
        <g id="Grupo_63716" data-name="Grupo 63716" transform="translate(-72.999 -40)">
          <g id="Grupo_63628-2" data-name="Grupo 63628" transform="translate(0.001)">
            <path id="Trazado_110098-2" data-name="Trazado 110098" d="M6583.347-1080.235c-2.668.559-3.4-1.957-8.005-3.788s-12.651-4.435-17.984.748-4.282,5.028-6.485,4.98-12.62,1.181-13.723,4.558-.026,5.946,4.843,6.292,7-1.149,9.3.275,4.932,5.8,14.283,6.763,12.753-3.878,14.636-2.017,10.44,5.407,18.7,4.82c4.483.618,15.454,2.038,20.65-3.339,1.638-1.582,3.84-4.426.151-7.624s-8.17-3.817-8.821-4.951-3.6-13.384-13.248-14.572S6585.995-1080.79,6583.347-1080.235Z" transform="translate(-6536.753 1088.204)" fill="#fff"/>
          </g>
          <path id="Trazado_110099-2" data-name="Trazado 110099" d="M6619.566-1063.3c-5.2,5.376-16.167,3.956-20.65,3.34-8.257.586-16.824-2.962-18.7-4.82s-5.287,2.981-14.637,2.017-11.985-5.337-14.281-6.768-4.431.08-9.3-.268-5.942-2.9-4.859-6.261c.487-.118.973-.228,1.441-.358,6.191-1.649,11.317,1.54,15.611,5.843,2.047,2.048,3.975,4.422,7.075,4.77,2.792.308,5.792-.169,8.6-.288,3.737-.159,6.818-.388,10.5.308a6.559,6.559,0,0,0,2.981-.139,25.9,25.9,0,0,1,6.628-.606c4.79.268,8.586,3.4,13.138,4.551a21.389,21.389,0,0,0,10.942-.279c3.428-.974,6.229-5.227,5.435-8.844a1.934,1.934,0,0,1,.228.18C6623.4-1067.724,6621.206-1064.883,6619.566-1063.3Z" transform="translate(-6536.753 1090.563)" fill="#7d8dff" opacity="0.2"/>
        </g>
        <g id="Grupo_63717" data-name="Grupo 63717" transform="translate(335.136 283.528)">
          <g id="Grupo_63628-3" data-name="Grupo 63628" transform="translate(0.001)">
            <path id="Trazado_110098-3" data-name="Trazado 110098" d="M6583.347-1080.235c-2.668.559-3.4-1.957-8.005-3.788s-12.651-4.435-17.984.748-4.282,5.028-6.485,4.98-12.62,1.181-13.723,4.558-.026,5.946,4.843,6.292,7-1.149,9.3.275,4.932,5.8,14.283,6.763,12.753-3.878,14.636-2.017,10.44,5.407,18.7,4.82c4.483.618,15.454,2.038,20.65-3.339,1.638-1.582,3.84-4.426.151-7.624s-8.17-3.817-8.821-4.951-3.6-13.384-13.248-14.572S6585.995-1080.79,6583.347-1080.235Z" transform="translate(-6536.753 1088.204)" fill="#fff"/>
          </g>
          <path id="Trazado_110099-3" data-name="Trazado 110099" d="M6619.566-1063.3c-5.2,5.376-16.167,3.956-20.65,3.34-8.257.586-16.824-2.962-18.7-4.82s-5.287,2.981-14.637,2.017-11.985-5.337-14.281-6.768-4.431.08-9.3-.268-5.942-2.9-4.859-6.261c.487-.118.973-.228,1.441-.358,6.191-1.649,11.317,1.54,15.611,5.843,2.047,2.048,3.975,4.422,7.075,4.77,2.792.308,5.792-.169,8.6-.288,3.737-.159,6.818-.388,10.5.308a6.559,6.559,0,0,0,2.981-.139,25.9,25.9,0,0,1,6.628-.606c4.79.268,8.586,3.4,13.138,4.551a21.389,21.389,0,0,0,10.942-.279c3.428-.974,6.229-5.227,5.435-8.844a1.934,1.934,0,0,1,.228.18C6623.4-1067.724,6621.206-1064.883,6619.566-1063.3Z" transform="translate(-6536.753 1090.563)" fill="#7d8dff" opacity="0.2"/>
        </g>
        <g id="Grupo_63631" data-name="Grupo 63631" transform="translate(521.792 328.235)">
          <g id="Grupo_63630" data-name="Grupo 63630">
            <path id="Trazado_110100" data-name="Trazado 110100" d="M6519.963-945.339c-.743,3.528,4.607,7.411,8.211,6.409s14.022-2.479,18.23.163,15.221,6.647,25.037,6.848c5.409,2,22.835,5.008,26.24-3.805s-.8-13.821-8.613-16.225-13.622,2.6-16.425,0-9.214-9.415-18.83-8.413-13.018,6.209-17.026,7.611C6531.581-951.549,6521.565-952.95,6519.963-945.339Z" transform="translate(-6519.894 960.462)" fill="#fff"/>
          </g>
          <path id="Trazado_110101" data-name="Trazado 110101" d="M6595.441-942.9a18.183,18.183,0,0,1-1.043,3.766c-3.409,8.814-20.828,5.8-26.244,3.806-9.807-.2-20.829-4.2-25.032-6.847-1.729-1.084-4.512-1.481-7.433-1.491,1.223-.159,2.425-.279,3.577-.358,3.23-.209,5.726.556,8.706,1.42,2.414.715,5,.536,7.4,1.382a21.053,21.053,0,0,0,6.479,1.291c4.979.219,9.042,2.008,13.673,3.6,3.667,1.272,8.616,2.156,11.686-.764,1.392-1.323,2.386-3.091,4.024-4.253A10.173,10.173,0,0,1,6595.441-942.9Z" transform="translate(-6516.611 963.873)" fill="#fff"/>
          <path id="Trazado_110102" data-name="Trazado 110102" d="M6595.441-942.9a18.183,18.183,0,0,1-1.043,3.766c-3.409,8.814-20.828,5.8-26.244,3.806-9.807-.2-20.829-4.2-25.032-6.847-1.729-1.084-4.512-1.481-7.433-1.491,1.223-.159,2.425-.279,3.577-.358,3.23-.209,5.726.556,8.706,1.42,2.414.715,5,.536,7.4,1.382a21.053,21.053,0,0,0,6.479,1.291c4.979.219,9.042,2.008,13.673,3.6,3.667,1.272,8.616,2.156,11.686-.764,1.392-1.323,2.386-3.091,4.024-4.253A10.173,10.173,0,0,1,6595.441-942.9Z" transform="translate(-6516.611 963.873)" fill="#7d8dff" opacity="0.2"/>
        </g>
      </g>
      <g id="Grupo_63642" data-name="Grupo 63642" transform="translate(6116.618 -1159.116)">
        <g id="Grupo_63641" data-name="Grupo 63641">
          <g id="Grupo_63640" data-name="Grupo 63640">
            <g id="Grupo_63635" data-name="Grupo 63635" transform="translate(7.231 131.379)">
              <g id="Grupo_63633" data-name="Grupo 63633">
                <path id="Trazado_110103" data-name="Trazado 110103" d="M6406.755-969.869s2.666,1.609.454,3.2-8.457,2.057-5.932,4.436,12.163,4.384,15.27,1.832c.9-.957-1.889-2.365-4.071-3.994s-.39-3.781,1.226-4.195C6414.241-968.724,6406.755-969.869,6406.755-969.869Z" transform="translate(-6400.686 969.869)" fill="#3ecea8"/>
              </g>
              <g id="Grupo_63634" data-name="Grupo 63634" transform="translate(5.78)">
                <path id="Trazado_110104" data-name="Trazado 110104" d="M6413.844-964.392c-2.183-1.629-.391-3.781,1.226-4.195.539-.137-6.947-1.282-6.947-1.282s1.77,1.067,1.228,2.326c.35,2.622,7.227,3.961,3.369,6.9a8.166,8.166,0,0,1-4.885.732c3.7.931,8.151,1.1,10.081-.483C6418.812-961.355,6416.026-962.763,6413.844-964.392Z" transform="translate(-6407.834 969.869)" fill="#24b58c"/>
              </g>
            </g>
            <g id="Grupo_63636" data-name="Grupo 63636">
              <path id="Trazado_110105" data-name="Trazado 110105" d="M6464.107-1079.109c-5.871,24.4-36.842,85.332-55.864,80.755s-18.889-72.927-13.018-97.327,26.048-40.47,45.069-35.892S6469.978-1103.509,6464.107-1079.109Z" transform="translate(-6391.742 1132.352)" fill="#3ecea8"/>
            </g>
            <g id="Grupo_63638" data-name="Grupo 63638" transform="translate(8.848 3.183)">
              <g id="Grupo_63637" data-name="Grupo 63637">
                <path id="Trazado_110106" data-name="Trazado 110106" d="M6448.784-1128.415c9,8.945,12.623,26.76,8.109,45.518-5.87,24.4-34.061,86-49.652,82.25a8.031,8.031,0,0,1-4.555-3.51c2.106,3.5,4.638,5.833,7.652,6.557,19.021,4.577,49.993-56.356,55.864-80.755C6471.378-1099.86,6463.7-1120.652,6448.784-1128.415Z" transform="translate(-6402.687 1128.415)" fill="#24b58c"/>
              </g>
            </g>
            <g id="Grupo_63639" data-name="Grupo 63639" transform="translate(6.069 7.146)">
              <path id="Trazado_110107" data-name="Trazado 110107" d="M6399.249-1068.478s.365-19.019,6.956-33.628,19.933-21.6,28.144-21.4,8.1,12.795-4.948,14.514S6403.405-1086.426,6399.249-1068.478Z" transform="translate(-6399.249 1123.514)" fill="#5de2bc"/>
            </g>
          </g>
        </g>
      </g>
      <g id="Grupo_63653" data-name="Grupo 63653" transform="translate(5922.438 -1276.073)">
        <g id="Grupo_63643" data-name="Grupo 63643" transform="translate(28.699 146.373)">
          <path id="Trazado_110108" data-name="Trazado 110108" d="M6264.85-909.791c.772-11.188-5.712-18.708-11.991-25.973-6.655-7.715-12.938-15-7.638-25.038,2.642-5,6.227-9.459,9.7-13.775,9.021-11.22,16.15-20.087,2.4-32.353a140.664,140.664,0,0,0-15.232-11.483c-7.9-5.376-13.615-9.26-14.228-15.129-.461-4.417,2.076-9.246,8.226-15.65,18.771-19.551,17.662-46.367,17.647-46.633l2.963-.147c.058,1.149,1.178,28.374-18.469,48.834-5.42,5.641-7.774,9.863-7.419,13.286.474,4.5,5.7,8.062,12.947,12.986a143.182,143.182,0,0,1,15.541,11.726c15.856,14.139,7.152,24.961-2.061,36.423-3.378,4.2-6.875,8.553-9.383,13.3-4.357,8.248.77,14.191,7.261,21.71,6.357,7.365,13.56,15.711,12.7,28.117Z" transform="translate(-6227.798 1095.973)" fill="#9b9b9b"/>
        </g>
        <g id="Grupo_63651" data-name="Grupo 63651">
          <g id="Grupo_63646" data-name="Grupo 63646" transform="translate(43.164 136.557)">
            <g id="Grupo_63644" data-name="Grupo 63644">
              <path id="Trazado_110109" data-name="Trazado 110109" d="M6253.84-1108.112s4.472,1.979,1.341,4.9-12.764,4.871-8.359,8.077,19.8,4.425,24.14-.165c1.2-1.662-3.407-3.309-7.129-5.417s-1.357-5.812,1.079-6.772C6265.727-1107.807,6253.84-1108.112,6253.84-1108.112Z" transform="translate(-6245.688 1108.112)" fill="#49cadb"/>
            </g>
            <g id="Grupo_63645" data-name="Grupo 63645" transform="translate(8.152)">
              <path id="Trazado_110110" data-name="Trazado 110110" d="M6265.763-1100.712c-3.721-2.107-1.357-5.812,1.079-6.772.815-.323-11.071-.628-11.071-.628s2.965,1.316,2.373,3.382c1.061,4.015,12.036,4.738,6.605,10.074-2.323,1.731-4.966,1.988-7.461,2.107,5.945.716,12.913.109,15.6-2.747C6274.094-1096.958,6269.484-1098.6,6265.763-1100.712Z" transform="translate(-6255.771 1108.112)" fill="#35b2bc"/>
            </g>
          </g>
          <g id="Grupo_63649" data-name="Grupo 63649">
            <g id="Grupo_63647" data-name="Grupo 63647">
              <path id="Trazado_110111" data-name="Trazado 110111" d="M6322.076-1204.785c-3.946,35.721-37.07,70.312-72.793,66.372s-60.507-44.931-56.566-80.653a65.069,65.069,0,0,1,71.819-57.535A65.067,65.067,0,0,1,6322.076-1204.785Z" transform="translate(-6192.305 1277)" fill="#4dd0e1"/>
            </g>
            <g id="Grupo_63648" data-name="Grupo 63648" transform="translate(33.306 1.711)">
              <path id="Trazado_110112" data-name="Trazado 110112" d="M6280.033-1274.884a64.121,64.121,0,0,1,39.436,66.635c-3.9,35.259-36.225,69.447-71.027,65.606a50.02,50.02,0,0,1-14.946-4.1,53.642,53.642,0,0,0,23.673,8.737c35.723,3.94,68.847-30.651,72.792-66.372A65.072,65.072,0,0,0,6280.033-1274.884Z" transform="translate(-6233.495 1274.884)" fill="#35b2bc"/>
            </g>
          </g>
        </g>
        <g id="Grupo_63652" data-name="Grupo 63652" transform="translate(51.159 138.594)">
          <path id="Trazado_110114" data-name="Trazado 110114" d="M6257.623-1102.311c-.974-.353-2.079-.881-2.047-1.823s1.19-1.277,1.627-1.4l.213-.06.215.066c.041.015,4.1,1.288,6.8,1l.168-.015.3.075a1.586,1.586,0,0,1,.876,1.834c-.164.666-.857,1.729-3.651,1.356A22.441,22.441,0,0,1,6257.623-1102.311Zm-.25-1.722a6.022,6.022,0,0,0,.76.331,21.255,21.255,0,0,0,4.174.954c1.449.192,1.945-.1,2.013-.225a.1.1,0,0,0,.009-.058,22.469,22.469,0,0,1-6.921-1.014C6257.4-1104.042,6257.382-1104.036,6257.373-1104.033Z" transform="translate(-6255.576 1105.594)" fill="#9b9b9b"/>
        </g>
      </g>
      <g id="Grupo_63654" data-name="Grupo 63654" transform="translate(6519.679 -1264.128)">
        <path id="Trazado_110115" data-name="Trazado 110115" d="M6636.849-1086.212a16.4,16.4,0,0,0,1.105-1.234c.325-.455.585-.78.845-1.17.325-.325.584-.715.911-1.04a7.8,7.8,0,0,1,1.039-1.04,12.857,12.857,0,0,1,1.561-1.04,21.187,21.187,0,0,1,2.47-1.365c.975-.519,2.016-.975,2.665-1.3a12.007,12.007,0,0,0,1.1-.585c.13-.2.26-.325.26-.39.065-.065.065-.065-.455-.26-.454-.2-1.364-.586-1.819-.846s-.521-.325-.456-.519a4.16,4.16,0,0,0,.392-1.04c.193-.715.454-2.015.649-2.8s.325-1.171.391-1.5a3.857,3.857,0,0,1,.453-1.3,18.335,18.335,0,0,1,1.365-2.015c.326-.455.326-.455.326-.846a14.288,14.288,0,0,1,.064-1.559,3.472,3.472,0,0,1,.455-1.234,6.865,6.865,0,0,1,.91-1.04c.261-.2.455-.325.715-.521.194.585.39,1.3,1.105,1.3a.552.552,0,0,0,.455-.129c.325-.2.26-.521.26-.78h0v-.195h0a6.2,6.2,0,0,1-.066-1.17c-.064-.715-.064-1.561-.128-1.95,0-.39,0-.39.063-.065.064.26.131.844.2,1.365s.129,1.04.194,1.43a2.287,2.287,0,0,0,.454.975.719.719,0,0,0,.651.26.78.78,0,0,0,.52-.131.507.507,0,0,0,.261-.519c.063-.195-.065-.846-.065-1.755-.066-1.365-.325-2.405-.261-2.405,0,.065.194.715.326,1.561a5.034,5.034,0,0,0,.129,1.04.8.8,0,0,0,1.3.585,1.674,1.674,0,0,0,.456-.845,2.855,2.855,0,0,0,.131-1.3,4.256,4.256,0,0,0-.2-1.04l-.194-.39c-.066-.065-.066-.065-.066-.26a5.552,5.552,0,0,0-.064-.845,7.717,7.717,0,0,0-.52-1.429,4.628,4.628,0,0,0-.911-1.236c-.26-.325-.39-.519-.584-.779a3.216,3.216,0,0,1-.325-1.105c-.129-.521-.194-1.236-.325-2.015-.065-.78-.2-1.561-.261-2.341a12.981,12.981,0,0,1-.13-2.274,21.517,21.517,0,0,1,0-2.925c0-1.171.13-2.666.13-3.77a16.136,16.136,0,0,1,.131-2.276,1.346,1.346,0,0,1,.649-.909c.325-.26.715-.585.91-.715.261-.13.261-.13.132-.065a3.526,3.526,0,0,0-.781.26,8.886,8.886,0,0,0-.91.715,1.484,1.484,0,0,0-.39.911v1.819c.063.715,0,1.5,0,2.145-.064.585-.064,1.04-.13,2.08,0,.975-.065,2.6,0,3.964.13,1.366.389,2.6.52,3.445s.13,1.365.194,1.885a2.841,2.841,0,0,0,.455,1.3,5.432,5.432,0,0,0,.78,1.04,4,4,0,0,1,.779,1.171,4.2,4.2,0,0,1,.456,1.365,1.521,1.521,0,0,1,0,.779c0,.065,0,.065.13.261a3.694,3.694,0,0,1,.39.975,3.41,3.41,0,0,1-.194,1.625c-.131.455-.325.78-.586.78-1.1,0-.909-1.236-.975-1.69a7.525,7.525,0,0,0-.325-1.3,2.751,2.751,0,0,0-.26-.715c-.064-.131-.064-.131-.064,0v.454a6.018,6.018,0,0,1,.13.846c.064.454.13,1.169.194,1.494a7.857,7.857,0,0,0,.131,1.3,2.189,2.189,0,0,1-.066.779.486.486,0,0,1-.455.325,1.131,1.131,0,0,1-.779-.26,2.538,2.538,0,0,1-.454-1.105c-.065-.519-.131-1.234-.194-1.884-.131-.65-.262-1.171-.325-1.43s-.065-.26-.065-.065c0,.261-.065.78-.065,1.5.065.65.131,1.43.194,2.015v.521c0,.26.064.52-.063.714a.489.489,0,0,1-.456.325c-.2.065-.324-.064-.456-.129-1.039-.846-.844-3.185-.844-4.355a2.85,2.85,0,0,0-.13-.976v-.129l-.065.195c-.065.13-.129.455-.26.78a3.7,3.7,0,0,1-.26.909c-.13.325-.261.456-.325.65a.7.7,0,0,0-.2.586c-.065.26,0,.715-.065.909-.129.26-.259.325-.454.325a.558.558,0,0,1-.586-.194,1.467,1.467,0,0,1-.323-.715,5.218,5.218,0,0,1-.065-1.04,8.013,8.013,0,0,1,.26-1.04,8.047,8.047,0,0,1,.455-1.04,3.416,3.416,0,0,0,.129-.911,6.807,6.807,0,0,1-.064-1.69,15.052,15.052,0,0,1,.13-1.885v-.065a3.641,3.641,0,0,0,2.6-.129,4.371,4.371,0,0,1-2.6-.261,7.783,7.783,0,0,0-.13-1.559c-.13-1.04-.391-2.664-.65-4.16s-.52-2.73-.715-4.095-.324-2.73-.454-3.966-.2-2.275-.2-2.99a3.931,3.931,0,0,1,.2-1.43,4.361,4.361,0,0,1,.779-1.3c.521-.65,1.3-1.625,1.755-2.08a3.683,3.683,0,0,1,4.225.586,3.249,3.249,0,0,0-3.834-1.105.063.063,0,0,0,.064-.065.7.7,0,0,1,.065-.325,3.166,3.166,0,0,1,.52-.715c.39-.521,1.105-1.43,1.69-2.08a13.107,13.107,0,0,1,1.234-1.559,7.838,7.838,0,0,1,.976-.845c.194-.195.194-.195.194-.26a1.467,1.467,0,0,1,.2-.585,9.719,9.719,0,0,1,.908-1.171c.456-.455.976-.975,1.366-1.3.325-.39.585-.65.846-.911a7.5,7.5,0,0,0,.649-1.04,9.966,9.966,0,0,1,.715-1.04,4.618,4.618,0,0,1,.845-.779l.455-.456a1.667,1.667,0,0,0,.26-.455c.064-.129.064-.26.194-.325.065-.065.262-.065.391-.195a2.028,2.028,0,0,0,.455-.584c.2-.261.26-.456.391-.586.065-.195.129-.26.26-.26a.39.39,0,0,0,.26-.065c.065-.065.065-.195.13-.454a5.226,5.226,0,0,0,.065-1.04,1.435,1.435,0,0,0-.26-.845c-.261-.325-.715-.65-1.365-1.5a23.317,23.317,0,0,1-2.275-3.055,8.077,8.077,0,0,1-1.234-2.924,12.959,12.959,0,0,1-.065-3.185,9.074,9.074,0,0,1,.715-2.99,13.186,13.186,0,0,1,2.08-3.38,8.047,8.047,0,0,1,2.6-2.015,9.659,9.659,0,0,1,2.276-.911,4.251,4.251,0,0,1,1.818-.195,14.709,14.709,0,0,1,2.926.52c1.04.325,2.145.846,2.795,1.105a7.9,7.9,0,0,0,1.1.39,3.106,3.106,0,0,0,.779,0,1.31,1.31,0,0,0,.585-.39.588.588,0,0,0,.2-.455v-.52c0-.13,0-.13.194.065s.649.584.976.844c.261.325.455.455.585.65a1.644,1.644,0,0,1,.26.456c0,.13,0,.13.065.065l.391-.2a1.393,1.393,0,0,1,.259-.325c0-.064,0-.064.129.13a3.2,3.2,0,0,1,.521.845c.131.26.194.52.259.65,0,.129,0,.129.131.129a1.257,1.257,0,0,1,.454.065,1.257,1.257,0,0,1,.327.585,4.322,4.322,0,0,1,.193,1.04,1.38,1.38,0,0,1-.065.78c0,.2,0,.2.065.13,0-.065.131-.2.2-.325a2.6,2.6,0,0,0,.2-.521v0c.065.065.065.26.065.455-.065.26-.261.585-.325.78s-.065.195,0,.129a1.406,1.406,0,0,1,.325-.26,1.736,1.736,0,0,0,.324-.39,1.115,1.115,0,0,0,.13-.325v.065a1.992,1.992,0,0,1-.065.585.939.939,0,0,1-.389.455c-.065.129-.065.129.063.26a5.366,5.366,0,0,1,.391,1.234,15.164,15.164,0,0,1-.065,2.47c-.064.586-.064.586-.064.455-.064-.065-.2-.26-.324-.39s-.261-.194-.325-.26c-.131,0-.131,0-.131.26a3.376,3.376,0,0,1-.39,1.04.785.785,0,0,1-.716.13c-.194,0-.194,0-.194.129a2.336,2.336,0,0,1-.2.715c-.13.39-.391.78-.52,1.1a1.309,1.309,0,0,0-.2.52,1.243,1.243,0,0,0,.066.455,2.4,2.4,0,0,0,.456.78c.193.325.455.585.583.844a1.529,1.529,0,0,1,.391.586.91.91,0,0,1-.065.584c0,.13-.129.26-.325.39a1.508,1.508,0,0,1-.52.129c-.2.065-.2.065-.063.261a8.1,8.1,0,0,0,.324.975c.064.325.064.454-.131.584a7.2,7.2,0,0,1-.845.325c-.2.065-.2.065-.13.13a2.192,2.192,0,0,1,.391.39.7.7,0,0,1,.193.454.4.4,0,0,1-.129.455c-.13.13-.259.194-.391.325a.876.876,0,0,0-.389.455,1.579,1.579,0,0,0-.066.585,1.6,1.6,0,0,1-.129.455,1.648,1.648,0,0,1-.324.52,2.39,2.39,0,0,1-1.04.65,8.346,8.346,0,0,1-1.82,0c-.78-.065-1.69-.129-2.146-.194-.455,0-.455,0-.52.065a1.112,1.112,0,0,1-.131.325,3.294,3.294,0,0,1-.39.454c-.13.13-.13.13.064.325a8.054,8.054,0,0,1,.521.78c.2.2.261.325.39.455.194.129.456.325.846.584a10.29,10.29,0,0,1,1.234,1.171,7.227,7.227,0,0,1,.779,1.365,3.559,3.559,0,0,1,.132,1.234c0,.521-.066,1.3-.132,1.886,0,.519-.13.91-.13,1.169a.73.73,0,0,0,0,.521,1.024,1.024,0,0,1-.063.585c-.065.325-.262.78-.325,1.17a7.4,7.4,0,0,0-.2.844v.521a1.538,1.538,0,0,0,.13.519,2.542,2.542,0,0,1,.26.846,14.045,14.045,0,0,1,.065,1.754,7.588,7.588,0,0,1-.2,1.886,1.456,1.456,0,0,1-.65,1.04,11.819,11.819,0,0,1-1.233.65l-.326.13v.715c-.064.195-.064.195.066.26s.391.26.779.52.976.65,1.626,1.04c.649.455,1.365.911,1.885,1.3a12.739,12.739,0,0,0,1.364.91,9.732,9.732,0,0,0,1.364.844c.456.261.781.521,1.04.65a6.317,6.317,0,0,0,.91.39c.391.13.911.325,1.431.521s.91.39,1.17.455h.065c-1.04.52-1.561,1.1-1.561,1.69a3.987,3.987,0,0,1,2.211-1.69h.064a4.024,4.024,0,0,1,.65-.2,6.058,6.058,0,0,1,1.039-.26,1.42,1.42,0,0,1,.91.065.85.85,0,0,1,.584.454,1.242,1.242,0,0,1,.2.65c0,.261,0,.455-.131.52a.715.715,0,0,1-.52,0c-.13,0-.13,0,0,.13.065.129.261.325.454.585a7.071,7.071,0,0,0,.716.585c.325.2.715.39,1.105.585.325.2.715.39.845.651a1,1,0,0,1,.2.714,2,2,0,0,1-.065.651.78.78,0,0,1-.325.325.974.974,0,0,1-.391.064c-.064,0-.064,0,0,.13a1.165,1.165,0,0,1,.326.519,1.071,1.071,0,0,1-.129.78,2.171,2.171,0,0,1-.521.39c-.065.065-.065.065,0,.13,0,.065.13.194.13.39a1.044,1.044,0,0,1-.2.585,1.223,1.223,0,0,1-.454.39,1.145,1.145,0,0,1-.391.065c-.065,0-.065,0,0,.064,0,.13.13.325.13.521a.8.8,0,0,1-.26.52.85.85,0,0,1-.716.13,4.243,4.243,0,0,1-1.168-.715c-.521-.455-1.235-1.105-1.561-1.43-.391-.325-.391-.325-.52-.325a2.108,2.108,0,0,1-.781-.519,8.548,8.548,0,0,1-1.494-1.561,6.03,6.03,0,0,1-.846-1.169c-.13-.2-.13-.2-.39-.325-.26-.065-.78-.325-1.82-.715s-2.664-.911-4.224-1.5-3.186-1.235-3.966-1.625c-.78-.325-.78-.325-.845-.26,0,.064-.131.26-.325.714-.131.52-.39,1.43-.586,1.951-.129.585-.194.779-.26,1.105-.064.389-.128.844-.193,1.3a6.637,6.637,0,0,1-.065,1.169,3.817,3.817,0,0,1-.261.911,1.6,1.6,0,0,0-.26.715,3.87,3.87,0,0,0,.13,1.04,14.828,14.828,0,0,1,.194,1.69c0,.52,0,.714-.129.91a1.593,1.593,0,0,1-.2.455c-.065.129-.065.129,0,.129s.2.065.39.39a7.714,7.714,0,0,1,.521,1.04c.129.26.129.26.2.325.064,0,.259.13.584.585s.78,1.236,1.17,1.885.585,1.169,1.04,1.82c.391.585.91,1.365,1.432,2.209s.974,1.755,1.233,2.21c.2.39.2.39.261.454.064,0,.13.065.325.325a5.884,5.884,0,0,1,.52,1.105,3.283,3.283,0,0,0,.26.911,9.6,9.6,0,0,0,.846,1.56,7.306,7.306,0,0,1,.585,1.3,3.362,3.362,0,0,1,.2,1.5c-.2,1.755-.78,3.77-2.991,3.12a2.014,2.014,0,0,0,2.016.26l-.13.13c-.13.389-.261.715-.39,1.04-.065.389-.26.844-.326,1.365a9.642,9.642,0,0,0-.2,2.144c0,.976.065,2.21.065,3.316-.065,1.1-.194,2.015-.194,3.055-.065,1.04-.065,2.275-.065,3.445,0,1.234.065,2.405.065,3.055v.585c.064,0,.129,0,.194.26a4.573,4.573,0,0,1,.065.974c.064.2.064.2.194.261a7.464,7.464,0,0,1,.977.065,18.547,18.547,0,0,1,2.339.454,15.218,15.218,0,0,1,2.86,1.561c.26.26.26.26.845.194.52,0,1.56-.065,2.34-.065a5.031,5.031,0,0,1,1.431,0,1.872,1.872,0,0,1,.908.2.989.989,0,0,1,.456.454.741.741,0,0,1,0,.39c0,.065,0,.065.065.13.065,0,.194.065.259.39.065.39.065.975-1.234,1.885a28.839,28.839,0,0,1-7.085,3.185c-3.381,1.17-7.6,2.34-9.685,2.34s-2.08-1.169-2.08-2.4c0-1.3,0-2.6.064-3.445a4.654,4.654,0,0,1,.065-1.235,3.033,3.033,0,0,1,.325-.65c.064-.13.064-.13.13-.065a2.794,2.794,0,0,0,.325.065c.194,0,.324,0,.391-.065.129,0,.129,0,.064-.521,0-.454-.064-1.494-.131-2.015v-.26a6.859,6.859,0,0,0,2.861-.78,6.52,6.52,0,0,1-2.861.455c.066-.065.066-.195,0-.585-.13-.65-.389-1.951-.779-3.641s-.78-3.7-.976-5.264a19.937,19.937,0,0,1-.259-3.575c.065-.975.065-1.69.194-2.536a11.088,11.088,0,0,1,.521-2.469,22.05,22.05,0,0,1,.715-2.21,2.814,2.814,0,0,0,.065-1.234,4.9,4.9,0,0,0-.586-1.171,4.929,4.929,0,0,0-.779-.844,12.108,12.108,0,0,1,3.38-2.73,10.54,10.54,0,0,0-3.836,2.534,11.335,11.335,0,0,1-1.105.911c-.584.389-1.3.91-1.755,1.169-.453.2-.585.2-.779.065-.194-.2-.389-.521-.909-1.234a23.569,23.569,0,0,0-2.665-3.056,10.619,10.619,0,0,1-2.34-4.81,9.817,9.817,0,0,0,2.729,5.59,1.91,1.91,0,0,0-.2.39,11.181,11.181,0,0,1-.976,1.43,13.5,13.5,0,0,1-.974.975c-.2.13-.2.13-.456.78-.194.715-.649,2.015-.845,2.665l-.259.65a.26.26,0,0,0-.261.13,2.039,2.039,0,0,1-.455.779,5.9,5.9,0,0,1-1.5,1.105c-.583.39-1.234.715-1.948,1.105-.78.39-1.886-.455-2.08-1.234,0,.65.454,1.169,1.43,1.494-.715.39-1.43.65-1.82.845a3.167,3.167,0,0,0-1.04.65c-.391.26-.975.715-1.688,1.3-.651.521-1.366,1.234-2.081,1.82s-1.431,1.04-2.8,2.015c-1.364,1.04-3.379,2.534-4.42,3.315l-.78.585a6.313,6.313,0,0,1-2.208-1.625,3.716,3.716,0,0,0,2.4,2.015c.065,0,.065,0-.2.2s-.778.65-1.169.975a6.022,6.022,0,0,0-.91.909c-.325.39-.715.781-.91.975s-.194.2-.065.261a2.208,2.208,0,0,1,.521.325c.2.065.2.194.13.325,0,.129-.065.325-.065.39-.064.129-.064.129.065.129.13.065.325.13.39.26.131.065.131.13.2.2l.063.065a1.694,1.694,0,0,1,.391.325.709.709,0,0,1,.131.65c-.065.26-.261.65-.391,1.04a2.768,2.768,0,0,1-.455.781c-.129.129-.26.064-.455-.065a2.222,2.222,0,0,1-.39-.39c-.131-.13-.131-.13-.131.13a3.974,3.974,0,0,1-.194,1.039,2.709,2.709,0,0,1-.455.78,1.453,1.453,0,0,0-.065.65,19.829,19.829,0,0,1,.13,2.341,6.3,6.3,0,0,1-.13,2.275,1.8,1.8,0,0,1-1.1,1.169,1.3,1.3,0,0,1-.977.065c-.194,0-.194,0-.26.065a.429.429,0,0,1-.261.325c-.194.065-.454,0-1.039-.975a40.9,40.9,0,0,1-2.34-4.55c-.78-1.755-1.365-3.25-1.886-4.485-.52-1.3-.974-2.34-1.43-3.314-.52-.975-.91-1.885-1.169-2.34-.2-.455-.2-.455-.13-.65a4.757,4.757,0,0,1,.389-.911,4.861,4.861,0,0,1,1.171-1.1,11.914,11.914,0,0,1,2.21-.976,10.18,10.18,0,0,1,2.664-.389c.779-.065,1.3-.065,1.56-.065s.261,0,.846-.521l2.341-2.34a12.216,12.216,0,0,0,1.624-1.755Z" transform="translate(-6624.004 1243.692)" fill="#636363" fill-rule="evenodd"/>
        <path id="Trazado_110116" data-name="Trazado 110116" d="M6680.412-1114.262c-14.365-23.27,12.479-71.433-10.2-97.173,20.539,28.859-5.006,78.064,9.684,97.173Z" transform="translate(-6614.398 1237.162)" fill="#636363" fill-rule="evenodd"/>
        <path id="Trazado_110117" data-name="Trazado 110117" d="M6661.515-1231.446c6.044-3.251,14.039-.131,17.81,6.955,3.7,6.954,2.014,15.144-3.771,18.46a6.189,6.189,0,0,0,.326.65,1.774,1.774,0,0,0,.52.65,2.153,2.153,0,0,0,.521.39c.129.129.259.194.259.26a.332.332,0,0,1-.259.325.91.91,0,0,1-.585.2c-.261.064-.456.129-.651.194a1.16,1.16,0,0,0-.454.325,1.535,1.535,0,0,1-.649.325.227.227,0,0,1-.326-.195,2.151,2.151,0,0,1,0-.65,2.892,2.892,0,0,0-.065-.78,1.551,1.551,0,0,0-.2-.585.9.9,0,0,0-.194-.261c-5.851,2.145-12.936-1.04-16.38-7.605-3.835-7.084-1.95-15.469,4.1-18.654Zm18.2,15.014c-.39-10.725-12.285-17.55-17.875-12.74,6.175-5.719,18.329,1.626,17.875,12.74Z" transform="translate(-6617.471 1232.734)" fill="#636363" fill-rule="evenodd"/>
      </g>
      <g id="Grupo_63658" data-name="Grupo 63658" transform="translate(6551.514 -1135.202)">
        <g id="Grupo_63655" data-name="Grupo 63655" transform="translate(5.001 4.659)">
          <path id="Trazado_110118" data-name="Trazado 110118" d="M6656.312-1063.662a1.812,1.812,0,0,1-1.812-1.812v-54.857a1.812,1.812,0,0,1,1.812-1.812,1.813,1.813,0,0,1,1.812,1.812v54.857A1.812,1.812,0,0,1,6656.312-1063.662Z" transform="translate(-6654.5 1122.143)" fill="#fdd835"/>
        </g>
        <g id="Grupo_63656" data-name="Grupo 63656" transform="translate(0.001 0)">
          <ellipse id="Elipse_4256" data-name="Elipse 4256" cx="6.812" cy="6.812" rx="6.812" ry="6.812" fill="#fdd835"/>
        </g>
        <g id="Grupo_63657" data-name="Grupo 63657" transform="translate(0.137 54.106)">
          <path id="Trazado_110119" data-name="Trazado 110119" d="M6657.149-1077.238l6.529-3.97.147.224-4.229,10.644q-1.222,5.563-2.447,11.126-1.222-5.562-2.448-11.126l-4.228-10.644.11-.224Z" transform="translate(-6650.474 1081.208)" fill="#fdd835"/>
        </g>
      </g>
      <g id="Grupo_63662" data-name="Grupo 63662" transform="translate(6552.117 -1050.042)">
        <g id="Grupo_63659" data-name="Grupo 63659" transform="translate(5.002 12.96)">
          <path id="Trazado_110120" data-name="Trazado 110120" d="M6656.812-969.38a1.812,1.812,0,0,1-1.812-1.812v-71.767a1.812,1.812,0,0,1,1.812-1.812,1.812,1.812,0,0,1,1.812,1.812v71.767A1.812,1.812,0,0,1,6656.812-969.38Z" transform="translate(-6655 1044.771)" fill="#fdd835"/>
        </g>
        <g id="Grupo_63660" data-name="Grupo 63660" transform="translate(0.001 79.386)">
          <path id="Trazado_110121" data-name="Trazado 110121" d="M6664.486-982.968a6.813,6.813,0,0,1-6.813,6.813,6.815,6.815,0,0,1-6.813-6.813,6.814,6.814,0,0,1,6.813-6.812A6.813,6.813,0,0,1,6664.486-982.968Z" transform="translate(-6650.859 989.779)" fill="#fdd835"/>
        </g>
        <g id="Grupo_63661" data-name="Grupo 63661" transform="translate(0.137 0)">
          <path id="Trazado_110122" data-name="Trazado 110122" d="M6657.65-1037.476l-6.529,3.971-.146-.224,4.229-10.644q1.221-5.563,2.447-11.126,1.222,5.562,2.448,11.126l4.228,10.644-.11.224Z" transform="translate(-6650.974 1055.5)" fill="#fdd835"/>
        </g>
      </g>
      <path id="Trazado_110283" data-name="Trazado 110283" d="M11.865-7.849H4.407V0H2.063V-17.773H13.074v1.917H4.407v6.091h7.458Z" transform="translate(6587.76 -1107.416)" fill="#12263f"/>
      <path id="Trazado_110284" data-name="Trazado 110284" d="M3.911,0H2.5V-5.447l-1.685.52V-6.064L3.76-7.119h.151Zm7.183,0H6.221V-.967l2.3-2.451a5.674,5.674,0,0,0,.7-.9,1.451,1.451,0,0,0,.227-.732A1.086,1.086,0,0,0,9.209-5.8a.864.864,0,0,0-.684-.271.931.931,0,0,0-.754.33,1.306,1.306,0,0,0-.276.867H6.079a2.331,2.331,0,0,1,.31-1.187A2.185,2.185,0,0,1,7.266-6.9,2.664,2.664,0,0,1,8.55-7.207a2.522,2.522,0,0,1,1.707.527,1.866,1.866,0,0,1,.608,1.489,2.39,2.39,0,0,1-.273,1.074,5.97,5.97,0,0,1-.937,1.274l-1.616,1.7h3.057Z" transform="translate(6602.256 -1102.317)" fill="#12263f"/>
      <g id="Grupo_63665" data-name="Grupo 63665" transform="translate(6584.735 -1132.393)">
        <g id="Grupo_63663" data-name="Grupo 63663" transform="translate(0.001 2.267)">
          <rect id="Rectángulo_5869" data-name="Rectángulo 5869" width="19.306" height="1.208" fill="#12263f"/>
        </g>
        <g id="Grupo_63664" data-name="Grupo 63664" transform="translate(17.789 0)">
          <path id="Trazado_110123" data-name="Trazado 110123" d="M6697.752-1120.8a18.263,18.263,0,0,0-5.162,2.872l1.041-2.872-1.041-2.871A18.23,18.23,0,0,0,6697.752-1120.8Z" transform="translate(-6692.59 1123.675)" fill="#12263f"/>
        </g>
      </g>
      <path id="Trazado_110285" data-name="Trazado 110285" d="M11.865-7.849H4.407V0H2.063V-17.773H13.074v1.917H4.407v6.091h7.458Z" transform="translate(6520.117 -982.999)" fill="#12263f"/>
      <path id="Trazado_110286" data-name="Trazado 110286" d="M5.356,0H.483V-.967l2.3-2.451a5.674,5.674,0,0,0,.7-.9,1.451,1.451,0,0,0,.227-.732A1.086,1.086,0,0,0,3.472-5.8a.864.864,0,0,0-.684-.271.931.931,0,0,0-.754.33,1.306,1.306,0,0,0-.276.867H.342A2.331,2.331,0,0,1,.652-6.06,2.185,2.185,0,0,1,1.528-6.9a2.664,2.664,0,0,1,1.284-.305,2.522,2.522,0,0,1,1.707.527A1.866,1.866,0,0,1,5.127-5.19a2.39,2.39,0,0,1-.273,1.074,5.97,5.97,0,0,1-.937,1.274L2.3-1.138H5.356ZM9.648,0H8.237V-5.447l-1.685.52V-6.064L9.5-7.119h.151Z" transform="translate(6534.612 -977.9)" fill="#12263f"/>
      <g id="Grupo_63668" data-name="Grupo 63668" transform="translate(6517.091 -1007.976)">
        <g id="Grupo_63666" data-name="Grupo 63666" transform="translate(0.001 2.267)">
          <rect id="Rectángulo_5870" data-name="Rectángulo 5870" width="19.306" height="1.208" fill="#12263f"/>
        </g>
        <g id="Grupo_63667" data-name="Grupo 63667" transform="translate(17.789 0)">
          <path id="Trazado_110124" data-name="Trazado 110124" d="M6641.751-1017.8a18.249,18.249,0,0,0-5.161,2.872l1.039-2.872-1.039-2.871A18.222,18.222,0,0,0,6641.751-1017.8Z" transform="translate(-6636.59 1020.675)" fill="#12263f"/>
        </g>
      </g>
      <path id="Trazado_110277" data-name="Trazado 110277" d="M20.883-13.814H7.756V0H3.631V-31.281H23.01v3.373H7.756v10.721H20.883Z" transform="translate(6642.975 -1184.369)" fill="#12263f"/>
      <path id="Trazado_110289" data-name="Trazado 110289" d="M8.367-2.637H3.744L2.865,0H.062L4.825-12.8H7.269L12.059,0h-2.8ZM4.456-4.772h3.2L6.047-9.562Zm12.586,2.9a1.666,1.666,0,0,0,1.143-.387,1.355,1.355,0,0,0,.457-1.028h2.382A3.258,3.258,0,0,1,20.5-1.516,3.48,3.48,0,0,1,19.077-.268a4.442,4.442,0,0,1-1.991.444,4.129,4.129,0,0,1-3.217-1.3A5.13,5.13,0,0,1,12.691-4.7v-.167A5.071,5.071,0,0,1,13.86-8.376a4.08,4.08,0,0,1,3.208-1.31A4,4,0,0,1,19.929-8.67a3.594,3.594,0,0,1,1.094,2.7H18.642a1.745,1.745,0,0,0-.457-1.206,1.524,1.524,0,0,0-1.16-.464,1.53,1.53,0,0,0-1.34.647,3.749,3.749,0,0,0-.453,2.1v.264a3.8,3.8,0,0,0,.448,2.113A1.549,1.549,0,0,0,17.042-1.872Zm9.387,0a1.666,1.666,0,0,0,1.143-.387,1.355,1.355,0,0,0,.457-1.028H30.41a3.258,3.258,0,0,1-.527,1.771A3.48,3.48,0,0,1,28.463-.268a4.442,4.442,0,0,1-1.991.444,4.129,4.129,0,0,1-3.217-1.3A5.13,5.13,0,0,1,22.078-4.7v-.167a5.071,5.071,0,0,1,1.169-3.507,4.08,4.08,0,0,1,3.208-1.31A4,4,0,0,1,29.316-8.67a3.594,3.594,0,0,1,1.094,2.7H28.028a1.745,1.745,0,0,0-.457-1.206,1.524,1.524,0,0,0-1.16-.464,1.53,1.53,0,0,0-1.34.647,3.749,3.749,0,0,0-.453,2.1v.264a3.8,3.8,0,0,0,.448,2.113A1.549,1.549,0,0,0,26.429-1.872ZM34.541,0H31.992V-9.51h2.549Zm-2.7-11.971a1.251,1.251,0,0,1,.382-.94,1.436,1.436,0,0,1,1.042-.369,1.44,1.44,0,0,1,1.037.369,1.244,1.244,0,0,1,.387.94,1.247,1.247,0,0,1-.391.949,1.443,1.443,0,0,1-1.033.369,1.443,1.443,0,0,1-1.033-.369A1.247,1.247,0,0,1,31.843-11.971Zm4.395,7.128a5.64,5.64,0,0,1,.545-2.522,3.989,3.989,0,0,1,1.569-1.714,4.577,4.577,0,0,1,2.377-.606,4.33,4.33,0,0,1,3.142,1.178,4.727,4.727,0,0,1,1.358,3.2l.018.65a4.97,4.97,0,0,1-1.222,3.511A4.247,4.247,0,0,1,40.746.176a4.268,4.268,0,0,1-3.283-1.318,5.058,5.058,0,0,1-1.226-3.586Zm2.54.18a3.555,3.555,0,0,0,.51,2.073,1.682,1.682,0,0,0,1.459.717,1.686,1.686,0,0,0,1.441-.709,3.89,3.89,0,0,0,.519-2.267,3.519,3.519,0,0,0-.519-2.06,1.686,1.686,0,0,0-1.459-.731,1.658,1.658,0,0,0-1.441.726A3.955,3.955,0,0,0,38.777-4.662ZM41.229-13.5H44l-2.435,2.725H39.5Zm7.919,3.99.079,1.1a3.32,3.32,0,0,1,2.733-1.274,2.759,2.759,0,0,1,2.25.888,4.142,4.142,0,0,1,.756,2.654V0h-2.54V-6.1a1.654,1.654,0,0,0-.352-1.176,1.572,1.572,0,0,0-1.169-.366,1.747,1.747,0,0,0-1.608.916V0h-2.54V-9.51Z" transform="translate(6081.546 -929.877)" fill="#4dd0e1"/>
      <path id="Trazado_110292" data-name="Trazado 110292" d="M32.074-10.107H14.353L10.983,0H.236L18.5-49.055h9.366L46.225,0H35.477ZM17.082-18.294H29.345L23.18-36.656Z" transform="translate(5872.129 -813.981)" fill="#4dd0e1"/>
      <path id="Trazado_110288" data-name="Trazado 110288" d="M32.074-10.107H14.353L10.983,0H.236L18.5-49.055h9.366L46.225,0H35.477ZM17.082-18.294H29.345L23.18-36.656Z" transform="translate(6170.491 -813.981)" fill="#4dd0e1"/>
      <path id="Trazado_110290" data-name="Trazado 110290" d="M4.38,0V-49.055H21.563q8.928,0,13.544,3.42t4.616,10.023a11.083,11.083,0,0,1-1.853,6.351,10.7,10.7,0,0,1-5.155,4.026,10.356,10.356,0,0,1,5.947,3.807,11.255,11.255,0,0,1,2.173,7.008q0,7.075-4.515,10.714T23.449,0ZM14.487-21.36V-8.12h8.659a8.356,8.356,0,0,0,5.576-1.7,5.834,5.834,0,0,0,2-4.7q0-6.738-6.974-6.839Zm0-7.143h7.479q7.648-.135,7.648-6.1,0-3.335-1.937-4.8t-6.115-1.466H14.487Z" transform="translate(5965.114 -813.981)" fill="#fdd835"/>
      <path id="Trazado_110287" data-name="Trazado 110287" d="M4.38,0V-49.055H21.563q8.928,0,13.544,3.42t4.616,10.023a11.083,11.083,0,0,1-1.853,6.351,10.7,10.7,0,0,1-5.155,4.026,10.356,10.356,0,0,1,5.947,3.807,11.255,11.255,0,0,1,2.173,7.008q0,7.075-4.515,10.714T23.449,0ZM14.487-21.36V-8.12h8.659a8.356,8.356,0,0,0,5.576-1.7,5.834,5.834,0,0,0,2-4.7q0-6.738-6.974-6.839Zm0-7.143h7.479q7.648-.135,7.648-6.1,0-3.335-1.937-4.8t-6.115-1.466H14.487Z" transform="translate(6086.399 -813.981)" fill="#fdd835"/>
      <path id="Trazado_110291" data-name="Trazado 110291" d="M5.88-4.685h-2.1V0H1.143V-12.8H5.9a5.375,5.375,0,0,1,3.5,1.011,3.488,3.488,0,0,1,1.23,2.856,3.937,3.937,0,0,1-.567,2.184A3.866,3.866,0,0,1,8.341-5.353L11.109-.123V0H8.279ZM3.779-6.82H5.906a2.178,2.178,0,0,0,1.538-.505,1.806,1.806,0,0,0,.545-1.393,1.933,1.933,0,0,0-.514-1.424A2.137,2.137,0,0,0,5.9-10.661H3.779Zm13.061,7a4.668,4.668,0,0,1-3.406-1.283A4.561,4.561,0,0,1,12.12-4.526v-.246a5.745,5.745,0,0,1,.554-2.562,4.064,4.064,0,0,1,1.569-1.74,4.4,4.4,0,0,1,2.316-.611,3.947,3.947,0,0,1,3.072,1.23,5,5,0,0,1,1.121,3.489v1.037H14.7a2.36,2.36,0,0,0,.743,1.494,2.245,2.245,0,0,0,1.569.563A2.742,2.742,0,0,0,19.3-2.936l1.248,1.4A3.813,3.813,0,0,1,19-.277,5.075,5.075,0,0,1,16.84.176Zm-.29-7.813a1.587,1.587,0,0,0-1.226.512,2.651,2.651,0,0,0-.6,1.466h3.533v-.2A1.891,1.891,0,0,0,17.8-7.174,1.638,1.638,0,0,0,16.55-7.638ZM27.7,0a2.821,2.821,0,0,1-.255-.853,3.073,3.073,0,0,1-2.4,1.028,3.376,3.376,0,0,1-2.316-.809,2.6,2.6,0,0,1-.918-2.039,2.687,2.687,0,0,1,1.121-2.32,5.529,5.529,0,0,1,3.239-.817h1.169v-.545A1.567,1.567,0,0,0,27-7.409a1.331,1.331,0,0,0-1.068-.4A1.513,1.513,0,0,0,24.93-7.5a1.045,1.045,0,0,0-.365.844h-2.54a2.551,2.551,0,0,1,.51-1.529,3.37,3.37,0,0,1,1.441-1.1,5.253,5.253,0,0,1,2.092-.4,4.15,4.15,0,0,1,2.791.883,3.09,3.09,0,0,1,1.033,2.483V-2.2A4.546,4.546,0,0,0,30.27-.149V0ZM25.6-1.767a2.188,2.188,0,0,0,1.037-.25,1.645,1.645,0,0,0,.7-.672V-4.324h-.949q-1.907,0-2.03,1.318l-.009.149a1.017,1.017,0,0,0,.334.782A1.3,1.3,0,0,0,25.6-1.767Zm10.2-.105a1.666,1.666,0,0,0,1.143-.387A1.355,1.355,0,0,0,37.4-3.287h2.382a3.258,3.258,0,0,1-.527,1.771A3.48,3.48,0,0,1,37.833-.268a4.442,4.442,0,0,1-1.991.444,4.129,4.129,0,0,1-3.217-1.3A5.13,5.13,0,0,1,31.447-4.7v-.167a5.071,5.071,0,0,1,1.169-3.507,4.08,4.08,0,0,1,3.208-1.31A4,4,0,0,1,38.685-8.67a3.594,3.594,0,0,1,1.094,2.7H37.4a1.745,1.745,0,0,0-.457-1.206,1.524,1.524,0,0,0-1.16-.464,1.53,1.53,0,0,0-1.34.647,3.749,3.749,0,0,0-.453,2.1v.264a3.8,3.8,0,0,0,.448,2.113A1.549,1.549,0,0,0,35.8-1.872Zm9.387,0a1.666,1.666,0,0,0,1.143-.387,1.355,1.355,0,0,0,.457-1.028h2.382a3.258,3.258,0,0,1-.527,1.771A3.48,3.48,0,0,1,47.219-.268a4.442,4.442,0,0,1-1.991.444,4.129,4.129,0,0,1-3.217-1.3A5.13,5.13,0,0,1,40.834-4.7v-.167A5.071,5.071,0,0,1,42-8.376a4.08,4.08,0,0,1,3.208-1.31A4,4,0,0,1,48.072-8.67a3.594,3.594,0,0,1,1.094,2.7H46.784a1.745,1.745,0,0,0-.457-1.206,1.524,1.524,0,0,0-1.16-.464,1.53,1.53,0,0,0-1.34.647,3.749,3.749,0,0,0-.453,2.1v.264a3.8,3.8,0,0,0,.448,2.113A1.549,1.549,0,0,0,45.185-1.872ZM53.3,0H50.748V-9.51H53.3ZM50.6-11.971a1.251,1.251,0,0,1,.382-.94,1.436,1.436,0,0,1,1.042-.369,1.44,1.44,0,0,1,1.037.369,1.244,1.244,0,0,1,.387.94,1.247,1.247,0,0,1-.391.949,1.443,1.443,0,0,1-1.033.369,1.443,1.443,0,0,1-1.033-.369A1.247,1.247,0,0,1,50.6-11.971Zm4.395,7.128a5.64,5.64,0,0,1,.545-2.522,3.989,3.989,0,0,1,1.569-1.714,4.577,4.577,0,0,1,2.377-.606,4.33,4.33,0,0,1,3.142,1.178,4.727,4.727,0,0,1,1.358,3.2l.018.65A4.97,4.97,0,0,1,62.78-1.147,4.247,4.247,0,0,1,59.5.176a4.268,4.268,0,0,1-3.283-1.318,5.058,5.058,0,0,1-1.226-3.586Zm2.54.18a3.555,3.555,0,0,0,.51,2.073,1.682,1.682,0,0,0,1.459.717,1.686,1.686,0,0,0,1.441-.709,3.89,3.89,0,0,0,.519-2.267,3.519,3.519,0,0,0-.519-2.06,1.686,1.686,0,0,0-1.459-.731,1.658,1.658,0,0,0-1.441.726A3.955,3.955,0,0,0,57.533-4.662ZM59.985-13.5h2.769l-2.435,2.725H58.254ZM67.9-9.51l.079,1.1a3.32,3.32,0,0,1,2.733-1.274,2.759,2.759,0,0,1,2.25.888,4.142,4.142,0,0,1,.756,2.654V0h-2.54V-6.1a1.654,1.654,0,0,0-.352-1.176,1.572,1.572,0,0,0-1.169-.366,1.747,1.747,0,0,0-1.608.916V0h-2.54V-9.51Z" transform="translate(6147.04 -1213.685)" fill="#00897b"/>
      <path id="Trazado_110278" data-name="Trazado 110278" d="M11.249,0H1.015V-2.03l4.83-5.147a11.915,11.915,0,0,0,1.471-1.9,3.048,3.048,0,0,0,.477-1.538,2.28,2.28,0,0,0-.5-1.564,1.814,1.814,0,0,0-1.436-.569,1.956,1.956,0,0,0-1.584.692,2.742,2.742,0,0,0-.579,1.82H.718a4.894,4.894,0,0,1,.651-2.492,4.589,4.589,0,0,1,1.841-1.769,5.594,5.594,0,0,1,2.7-.641A5.3,5.3,0,0,1,9.49-14.027,3.918,3.918,0,0,1,10.767-10.9a5.02,5.02,0,0,1-.574,2.256A12.536,12.536,0,0,1,8.224-5.968L4.83-2.389h6.419Zm9.013,0H17.3V-11.439l-3.538,1.092v-2.389l6.183-2.215h.318Z" transform="translate(6667.754 -1174.231)" fill="#12263f"/>
      <path id="Trazado_110279" data-name="Trazado 110279" d="M17.6-12.749H2.324v-4.033H17.6Zm0,7.4H2.324V-9.382H17.6Z" transform="translate(6710.698 -1187.084)" fill="#12263f"/>
      <path id="Trazado_110280" data-name="Trazado 110280" d="M11.173-8.417H1.826v-3.868h9.347Z" transform="translate(6745.801 -1188.084)" fill="#12263f"/>
      <g id="Grupo_63671" data-name="Grupo 63671" transform="translate(6637.803 -1228.04)">
        <g id="Grupo_63669" data-name="Grupo 63669" transform="translate(0.001 3.876)">
          <rect id="Rectángulo_5871" data-name="Rectángulo 5871" width="33.002" height="2.065" fill="#12263f"/>
        </g>
        <g id="Grupo_63670" data-name="Grupo 63670" transform="translate(30.41 0)">
          <path id="Trazado_110125" data-name="Trazado 110125" d="M6701.414-1304.767a31.211,31.211,0,0,0-8.823,4.91l1.777-4.91-1.777-4.909A31.158,31.158,0,0,0,6701.414-1304.767Z" transform="translate(-6692.591 1309.675)" fill="#12263f"/>
        </g>
      </g>
      <path id="Trazado_110281" data-name="Trazado 110281" d="M20.883-13.814H7.756V0H3.631V-31.281H23.01v3.373H7.756v10.721H20.883Z" transform="translate(6766.871 -1184.369)" fill="#12263f"/>
      <path id="Trazado_110282" data-name="Trazado 110282" d="M8.213,0H5.25V-11.439L1.712-10.346v-2.389L7.9-14.95h.318ZM23.3,0H13.063V-2.03l4.83-5.147a11.914,11.914,0,0,0,1.471-1.9,3.048,3.048,0,0,0,.477-1.538,2.28,2.28,0,0,0-.5-1.564,1.814,1.814,0,0,0-1.436-.569,1.956,1.956,0,0,0-1.584.692,2.742,2.742,0,0,0-.579,1.82H12.766a4.894,4.894,0,0,1,.651-2.492,4.589,4.589,0,0,1,1.841-1.769,5.594,5.594,0,0,1,2.7-.641,5.3,5.3,0,0,1,3.584,1.107A3.918,3.918,0,0,1,22.815-10.9a5.02,5.02,0,0,1-.574,2.256,12.536,12.536,0,0,1-1.969,2.676L16.878-2.389H23.3Z" transform="translate(6801.331 -1174.231)" fill="#12263f"/>
      <g id="Grupo_63674" data-name="Grupo 63674" transform="translate(6761.698 -1228.04)">
        <g id="Grupo_63672" data-name="Grupo 63672" transform="translate(0.001 3.876)">
          <rect id="Rectángulo_5872" data-name="Rectángulo 5872" width="33.002" height="2.065" fill="#12263f"/>
        </g>
        <g id="Grupo_63673" data-name="Grupo 63673" transform="translate(30.41 0)">
          <path id="Trazado_110126" data-name="Trazado 110126" d="M6761.413-1304.767a31.2,31.2,0,0,0-8.823,4.91l1.777-4.91-1.777-4.909A31.145,31.145,0,0,0,6761.413-1304.767Z" transform="translate(-6752.589 1309.675)" fill="#12263f"/>
        </g>
      </g>
      <g id="Grupo_63677" data-name="Grupo 63677" transform="translate(6112.402 -1016.735)">
        <g id="Grupo_63675" data-name="Grupo 63675" transform="translate(14.788)">
          <path id="Trazado_110127" data-name="Trazado 110127" d="M6409.818-954.26a8.309,8.309,0,0,1-5-1.679l.276-.323a7.887,7.887,0,0,0,7.026,1.232l.122.407A8.4,8.4,0,0,1,6409.818-954.26Z" transform="translate(-6404.818 956.262)" fill="#4dd0e1"/>
        </g>
        <path id="Trazado_110128" data-name="Trazado 110128" d="M6409.058-951.422a8.157,8.157,0,0,1-5.545-2.085l.311-.319a8.024,8.024,0,0,0,7.817,1.57l.128.434A9.6,9.6,0,0,1,6409.058-951.422Z" transform="translate(-6389.781 955.796)" fill="#4dd0e1"/>
        <path id="Trazado_110129" data-name="Trazado 110129" d="M6408.3-948.585a8.234,8.234,0,0,1-6.09-2.492l.346-.315c.045.078,3.053,3.494,8.609,1.908l.134.461A10.815,10.815,0,0,1,6408.3-948.585Z" transform="translate(-6389.53 955.33)" fill="#4dd0e1"/>
        <path id="Trazado_110130" data-name="Trazado 110130" d="M6407.535-945.746a8.434,8.434,0,0,1-6.636-2.9l.38-.312c.054.1,3.107,4.011,9.4,2.246l.14.488A12.037,12.037,0,0,1,6407.535-945.746Z" transform="translate(-6389.28 954.864)" fill="#4dd0e1"/>
        <path id="Trazado_110131" data-name="Trazado 110131" d="M6406.774-942.908a8.712,8.712,0,0,1-7.182-3.3l.415-.309c.062.132,3.163,4.53,10.194,2.584l.146.514A13.256,13.256,0,0,1,6406.774-942.908Z" transform="translate(-6389.029 954.397)" fill="#4dd0e1"/>
        <path id="Trazado_110132" data-name="Trazado 110132" d="M6406.013-940.071a9.035,9.035,0,0,1-7.726-3.711l.448-.306c.071.158,3.219,5.048,10.987,2.922l.151.541A14.48,14.48,0,0,1,6406.013-940.071Z" transform="translate(-6388.78 953.931)" fill="#4dd0e1"/>
        <path id="Trazado_110133" data-name="Trazado 110133" d="M6405.251-937.232c-5.933,0-8.244-4.067-8.271-4.117l.484-.3c.078.184,3.272,5.565,11.778,3.259l.157.568A15.713,15.713,0,0,1,6405.251-937.232Z" transform="translate(-6388.529 953.465)" fill="#4dd0e1"/>
        <path id="Trazado_110134" data-name="Trazado 110134" d="M6404.491-934.395c-6.423,0-8.789-4.469-8.817-4.523l.519-.3c.086.211,3.328,6.083,12.571,3.6l.162.6A16.975,16.975,0,0,1,6404.491-934.395Z" transform="translate(-6388.279 952.999)" fill="#4dd0e1"/>
        <path id="Trazado_110135" data-name="Trazado 110135" d="M6403.729-931.557c-6.912,0-9.333-4.87-9.362-4.929l.553-.3c.1.238,3.384,6.6,13.363,3.935l.168.622A18.211,18.211,0,0,1,6403.729-931.557Z" transform="translate(-6388.029 952.533)" fill="#4dd0e1"/>
        <path id="Trazado_110136" data-name="Trazado 110136" d="M6402.969-928.718c-7.4,0-9.878-5.272-9.907-5.336l.588-.292c.1.264,3.438,7.119,14.154,4.273l.175.648A19.449,19.449,0,0,1,6402.969-928.718Z" transform="translate(-6387.78 952.067)" fill="#4dd0e1"/>
        <path id="Trazado_110137" data-name="Trazado 110137" d="M6402.208-925.881c-7.89,0-10.423-5.673-10.453-5.742l.622-.289c.112.292,3.494,7.637,14.947,4.611l.18.675A20.678,20.678,0,0,1,6402.208-925.881Z" transform="translate(-6387.53 951.601)" fill="#4dd0e1"/>
        <path id="Trazado_110138" data-name="Trazado 110138" d="M6401.446-923.043c-8.379,0-10.967-6.075-11-6.147l.657-.285c.12.318,3.548,8.154,15.739,4.948l.186.7A21.91,21.91,0,0,1,6401.446-923.043Z" transform="translate(-6387.279 951.134)" fill="#4dd0e1"/>
        <path id="Trazado_110139" data-name="Trazado 110139" d="M6400.685-920.2c-8.868,0-11.512-6.477-11.543-6.554l.691-.281c.127.344,3.6,8.672,16.531,5.286l.192.729A23.153,23.153,0,0,1,6400.685-920.2Z" transform="translate(-6387.029 950.668)" fill="#4dd0e1"/>
        <path id="Trazado_110140" data-name="Trazado 110140" d="M6399.924-917.367c-9.358,0-12.058-6.878-12.088-6.96l.725-.278c.137.371,3.66,9.19,17.324,5.624l.2.755A24.391,24.391,0,0,1,6399.924-917.367Z" transform="translate(-6386.779 950.202)" fill="#4dd0e1"/>
        <g id="Grupo_63676" data-name="Grupo 63676" transform="translate(0 27.566)">
          <path id="Trazado_110141" data-name="Trazado 110141" d="M6399.163-914.529c-9.846,0-12.6-7.279-12.634-7.367l.761-.274c.144.4,3.713,9.708,18.115,5.962l.2.782A25.634,25.634,0,0,1,6399.163-914.529Z" transform="translate(-6386.529 922.17)" fill="#4dd0e1"/>
        </g>
      </g>
      <path id="Trazado_110142" data-name="Trazado 110142" d="M6455.277-1168.106l-7.277-1.617,14.554-7.277,7.277,12.937-6.469-1.617-4.852,20.214-8.894-2.426Z" transform="translate(-285.894 -18.217)" fill="#00897b"/>
      <path id="Trazado_110143" data-name="Trazado 110143" d="M6390.555-886.36l7.277,1.617-14.555,7.277L6376-890.4l6.469,1.617L6387.32-909l8.895,2.426Z" transform="translate(-272.111 -69.52)" fill="#4dd0e1"/>
      <g id="Grupo_63715" data-name="Grupo 63715" transform="translate(5927.044 -1271.222)">
        <g id="Grupo_63680" data-name="Grupo 63680" transform="translate(55.988)">
          <g id="Grupo_63678" data-name="Grupo 63678" transform="translate(3.441 4.88)">
            <rect id="Rectángulo_5873" data-name="Rectángulo 5873" width="0.809" height="37.974" fill="#fff"/>
          </g>
          <g id="Grupo_63679" data-name="Grupo 63679">
            <path id="Trazado_110144" data-name="Trazado 110144" d="M6271.09-1271a24.449,24.449,0,0,1-3.846,6.911l3.846-1.391,3.845,1.391A24.423,24.423,0,0,1,6271.09-1271Z" transform="translate(-6267.244 1271)" fill="#fff"/>
          </g>
        </g>
        <g id="Grupo_63683" data-name="Grupo 63683" transform="translate(76.466 11.32)">
          <g id="Grupo_63681" data-name="Grupo 63681" transform="translate(0 4.101)">
            <rect id="Rectángulo_5874" data-name="Rectángulo 5874" width="30.935" height="0.809" transform="translate(0 27.246) rotate(-61.733)" fill="#fff"/>
          </g>
          <g id="Grupo_63682" data-name="Grupo 63682" transform="translate(10.666)">
            <path id="Trazado_110145" data-name="Trazado 110145" d="M6312.423-1257a24.447,24.447,0,0,0,.109,7.908l-2.727-3.048-4.045-.6A24.411,24.411,0,0,0,6312.423-1257Z" transform="translate(-6305.761 1257)" fill="#fff"/>
          </g>
        </g>
        <g id="Grupo_63686" data-name="Grupo 63686" transform="translate(91.179 37.762)">
          <g id="Grupo_63684" data-name="Grupo 63684" transform="translate(0 2.128)">
            <rect id="Rectángulo_5875" data-name="Rectángulo 5875" width="21.52" height="0.809" transform="translate(0 9.875) rotate(-27.316)" fill="#fff"/>
          </g>
          <g id="Grupo_63685" data-name="Grupo 63685" transform="translate(15.733)">
            <path id="Trazado_110146" data-name="Trazado 110146" d="M6338.129-1224.057a24.436,24.436,0,0,0-4.372,6.591l-.531-4.054-3-2.777A24.409,24.409,0,0,0,6338.129-1224.057Z" transform="translate(-6330.224 1224.297)" fill="#fff"/>
          </g>
        </g>
        <g id="Grupo_63689" data-name="Grupo 63689" transform="translate(98.629 63.802)">
          <g id="Grupo_63687" data-name="Grupo 63687" transform="translate(0 2.906)">
            <rect id="Rectángulo_5876" data-name="Rectángulo 5876" width="0.808" height="15.351" transform="translate(0 0.808) rotate(-87.709)" fill="#fff"/>
          </g>
          <g id="Grupo_63688" data-name="Grupo 63688" transform="translate(13.172)">
            <path id="Trazado_110147" data-name="Trazado 110147" d="M6343.329-1187.975a24.427,24.427,0,0,0-7.059,3.566l1.543-3.787-1.237-3.9A24.435,24.435,0,0,0,6343.329-1187.975Z" transform="translate(-6336.27 1192.093)" fill="#fff"/>
          </g>
        </g>
        <g id="Grupo_63692" data-name="Grupo 63692" transform="translate(88.728 83.749)">
          <g id="Grupo_63690" data-name="Grupo 63690" transform="translate(0 0)">
            <rect id="Rectángulo_5877" data-name="Rectángulo 5877" width="0.808" height="18.005" transform="translate(0 0.685) rotate(-57.996)" fill="#fff"/>
          </g>
          <g id="Grupo_63691" data-name="Grupo 63691" transform="translate(11.721 5.548)">
            <path id="Trazado_110148" data-name="Trazado 110148" d="M6330.13-1153.639a24.43,24.43,0,0,0-7.9-.4l3.217-2.524.859-4A24.421,24.421,0,0,0,6330.13-1153.639Z" transform="translate(-6322.231 1160.562)" fill="#fff"/>
          </g>
        </g>
        <g id="Grupo_63695" data-name="Grupo 63695" transform="translate(74.034 93.6)">
          <g id="Grupo_63693" data-name="Grupo 63693" transform="translate(0 0)">
            <rect id="Rectángulo_5878" data-name="Rectángulo 5878" width="0.809" height="23.707" transform="matrix(0.877, -0.481, 0.481, 0.877, 0, 0.389)" fill="#fff"/>
          </g>
          <g id="Grupo_63694" data-name="Grupo 63694" transform="translate(7.405 17.351)">
            <path id="Trazado_110149" data-name="Trazado 110149" d="M6305.415-1125.873a24.468,24.468,0,0,0-6.7-4.211l4.041-.629,2.7-3.069A24.424,24.424,0,0,0,6305.415-1125.873Z" transform="translate(-6298.72 1133.781)" fill="#fff"/>
          </g>
        </g>
        <g id="Grupo_63698" data-name="Grupo 63698" transform="translate(55.584 95.411)">
          <g id="Grupo_63696" data-name="Grupo 63696" transform="translate(3.441)">
            <rect id="Rectángulo_5879" data-name="Rectángulo 5879" width="0.809" height="29.08" fill="#fff"/>
          </g>
          <g id="Grupo_63697" data-name="Grupo 63697" transform="translate(0 27.049)">
            <path id="Trazado_110150" data-name="Trazado 110150" d="M6270.59-1112.636a24.463,24.463,0,0,0-3.846-6.911l3.846,1.391,3.844-1.391A24.424,24.424,0,0,0,6270.59-1112.636Z" transform="translate(-6266.744 1119.547)" fill="#fff"/>
          </g>
        </g>
        <g id="Grupo_63701" data-name="Grupo 63701" transform="translate(29.808 88.746)">
          <g id="Grupo_63699" data-name="Grupo 63699" transform="translate(2.075 0)">
            <rect id="Rectángulo_5880" data-name="Rectángulo 5880" width="30.935" height="0.809" transform="translate(0 27.246) rotate(-61.733)" fill="#fff"/>
          </g>
          <g id="Grupo_63700" data-name="Grupo 63700" transform="translate(0 23.822)">
            <path id="Trazado_110151" data-name="Trazado 110151" d="M6234.975-1123.872a24.461,24.461,0,0,0-.109-7.908l2.727,3.048,4.044.6A24.418,24.418,0,0,0,6234.975-1123.872Z" transform="translate(-6234.865 1131.78)" fill="#fff"/>
          </g>
        </g>
        <g id="Grupo_63704" data-name="Grupo 63704" transform="translate(8.086 81.308)">
          <g id="Grupo_63702" data-name="Grupo 63702" transform="translate(4.065 0)">
            <rect id="Rectángulo_5881" data-name="Rectángulo 5881" width="26.613" height="0.809" transform="matrix(0.873, -0.488, 0.488, 0.873, 0, 12.99)" fill="#fff"/>
          </g>
          <g id="Grupo_63703" data-name="Grupo 63703" transform="translate(0 8.992)">
            <path id="Trazado_110152" data-name="Trazado 110152" d="M6208-1152.593a24.432,24.432,0,0,0,4.157-6.728l.662,4.036,3.09,2.677A24.422,24.422,0,0,0,6208-1152.593Z" transform="translate(-6208 1159.321)" fill="#fff"/>
          </g>
        </g>
        <g id="Grupo_63707" data-name="Grupo 63707" transform="translate(0 64.479)">
          <g id="Grupo_63705" data-name="Grupo 63705" transform="translate(4.88 3.441)">
            <rect id="Rectángulo_5882" data-name="Rectángulo 5882" width="20.994" height="0.809" fill="#fff"/>
          </g>
          <g id="Grupo_63706" data-name="Grupo 63706">
            <path id="Trazado_110153" data-name="Trazado 110153" d="M6198-1187.41a24.445,24.445,0,0,0,6.911-3.846l-1.391,3.846,1.391,3.845A24.419,24.419,0,0,0,6198-1187.41Z" transform="translate(-6198 1191.256)" fill="#fff"/>
          </g>
        </g>
        <g id="Grupo_63710" data-name="Grupo 63710" transform="translate(5.66 37.762)">
          <g id="Grupo_63708" data-name="Grupo 63708" transform="translate(4.149 2.123)">
            <rect id="Rectángulo_5883" data-name="Rectángulo 5883" width="0.809" height="21.52" transform="translate(0 0.718) rotate(-62.65)" fill="#fff"/>
          </g>
          <g id="Grupo_63709" data-name="Grupo 63709">
            <path id="Trazado_110154" data-name="Trazado 110154" d="M6205-1224.057a24.43,24.43,0,0,0,7.905-.24l-3,2.777-.531,4.053A24.418,24.418,0,0,0,6205-1224.057Z" transform="translate(-6205 1224.297)" fill="#fff"/>
          </g>
        </g>
        <g id="Grupo_63713" data-name="Grupo 63713" transform="translate(30.473 15.363)">
          <g id="Grupo_63711" data-name="Grupo 63711" transform="translate(2.128 4.153)">
            <rect id="Rectángulo_5884" data-name="Rectángulo 5884" width="0.808" height="25.135" transform="matrix(0.889, -0.458, 0.458, 0.889, 0, 0.37)" fill="#fff"/>
          </g>
          <g id="Grupo_63712" data-name="Grupo 63712">
            <path id="Trazado_110155" data-name="Trazado 110155" d="M6235.94-1252a24.467,24.467,0,0,1-.253,7.9l2.78-3,4.055-.524A24.427,24.427,0,0,1,6235.94-1252Z" transform="translate(-6235.688 1252)" fill="#fff"/>
          </g>
        </g>
      </g>
      <path id="Trazado_110156" data-name="Trazado 110156" d="M6356.812-738.723,6343.066-746v4.851H6318v4.851h25.066v4.043Z" transform="translate(-395.228 -100.724)" fill="#00897b"/>
      <path id="Trazado_110157" data-name="Trazado 110157" d="M6579-739.531l13.746,7.277v-4.851h25.065v-4.851h-25.065V-746Z" transform="translate(-445.192 -100.724)" fill="#00897b"/>
      <rect id="Rectángulo_5886" data-name="Rectángulo 5886" width="202.578" height="5.198" transform="translate(6631.153 -1247.395)" fill="#fdd835"/>
      <rect id="Rectángulo_5892" data-name="Rectángulo 5892" width="88.198" height="5.198" transform="translate(6838.929 -1247.395) rotate(90)" fill="#fdd835"/>
      <rect id="Rectángulo_5893" data-name="Rectángulo 5893" width="88.198" height="5.198" transform="translate(6633.899 -1247.395) rotate(90)" fill="#fdd835"/>
      <rect id="Rectángulo_5891" data-name="Rectángulo 5891" width="202.578" height="5.198" transform="translate(6631.153 -1164.395)" fill="#fdd835"/>
      <line id="Línea_162" data-name="Línea 162" x1="22.802" y2="38.527" transform="translate(6154.793 -1062.601)" fill="none" stroke="#3ecea8" stroke-width="1"/>
      <line id="Línea_163" data-name="Línea 163" x1="22.802" y2="38.527" transform="translate(6103.889 -1083.83)" fill="none" stroke="#3ecea8" stroke-width="1"/>
      <line id="Línea_164" data-name="Línea 164" x1="9.477" y2="14.153" transform="translate(6105.217 -1076.754)" fill="none" stroke="#3ecea8" stroke-width="1"/>
      <line id="Línea_165" data-name="Línea 165" x1="9.477" y2="14.153" transform="translate(6118.77 -1147.518)" fill="none" stroke="#3ecea8" stroke-width="1"/>
    </g>
  </g>
</svg>
