<svg xmlns="http://www.w3.org/2000/svg" xmlns:xlink="http://www.w3.org/1999/xlink" width="869" height="92" viewBox="0 0 869 92">
  <defs>
    <clipPath id="clip-path">
      <rect id="Rectángulo_5752" data-name="Rectángulo 5752" width="869" height="92" transform="translate(293 1504)" fill="#00897b" stroke="#00897b" stroke-width="1"/>
    </clipPath>
  </defs>
  <g id="Enmascarar_grupo_61" data-name="Enmascarar grupo 61" transform="translate(-293 -1504)" clip-path="url(#clip-path)">
    <g id="Grupo_16441" data-name="Grupo 16441" transform="translate(140.119 -1816.478)">
      <path id="Trazado_40606" data-name="Trazado 40606" d="M10.391-23.559a.367.367,0,0,1,.077.128,1.34,1.34,0,0,1,.009.2V-2.589q0,1.317.7,1.68A7.023,7.023,0,0,0,13.8-.48V0H4.132V-.514A5.666,5.666,0,0,0,6.841-1.08q.635-.463.635-2.006V-18.962a2.985,2.985,0,0,0-.205-1.252.887.887,0,0,0-.892-.428,3.7,3.7,0,0,0-1.157.248q-.712.248-1.329.527v-.48l6.291-3.211ZM33.23-9.019l-4.064-9.671L25.154-9.019ZM18.072,0V-.635A2.843,2.843,0,0,0,20.1-1.664a28.531,28.531,0,0,0,2.324-4.745l7.322-17.232h.686l8.745,19.9a8.458,8.458,0,0,0,1.4,2.458,3.32,3.32,0,0,0,1.756.643V0H33.4V-.635A7.875,7.875,0,0,0,35.39-.966q.446-.2.446-.966a4.266,4.266,0,0,0-.176-.909,9.885,9.885,0,0,0-.477-1.374L33.727-7.592H24.536Q23.165-4.145,22.9-3.382a3.937,3.937,0,0,0-.263,1.209,1.247,1.247,0,0,0,.72,1.234,5.729,5.729,0,0,0,1.68.309V0ZM68.551-6.532v2.4H50.817v-2.4Zm0-7.081v2.4H50.817v-2.4Z" transform="translate(345.009 3367.567)" fill="#00897b"/>
      <path id="Trazado_40550" data-name="Trazado 40550" d="M1813.71,326.573h301.12" transform="translate(-1359.593 3033.093)" fill="none" stroke="#00897b" stroke-width="1.756"/>
      <path id="Trazado_40607" data-name="Trazado 40607" d="M-6.7-4.544q0-3.807,3.429-7.374,3.395-3.567,7.013-3.566a3.36,3.36,0,0,1,2.126.615,2.187,2.187,0,0,1,.79,1.835q0,2.469-2.889,4.226A15.179,15.179,0,0,1-2.306-6.653l-.977.12A11.637,11.637,0,0,0-3.592-5.41,5.4,5.4,0,0,0-3.68-4.356a2.919,2.919,0,0,0,.988,2.35,3.491,3.491,0,0,0,2.34.84,5.364,5.364,0,0,0,2.726-.853A22.618,22.618,0,0,0,4.758-3.807l.446.394A10.811,10.811,0,0,1,2.992-1.4,8.745,8.745,0,0,1-2.135.428,4.518,4.518,0,0,1-5.323-.858,4.808,4.808,0,0,1-6.7-4.544ZM-3.044-7.3A10.008,10.008,0,0,0,2.289-9.611a5.045,5.045,0,0,0,2.058-3.627,1.614,1.614,0,0,0-.308-1.037,1.1,1.1,0,0,0-.909-.386,3.291,3.291,0,0,0-2.186.952A12.866,12.866,0,0,0-.988-11.557,16.885,16.885,0,0,0-2.426-8.867q-.295.688-.617,1.563Zm-122.641,45.2a.367.367,0,0,1,.077.128,1.339,1.339,0,0,1,.009.2V58.863q0,1.317.7,1.68a7.023,7.023,0,0,0,2.623.428v.48h-9.671v-.514a5.666,5.666,0,0,0,2.709-.566q.635-.463.635-2.006V42.49a2.985,2.985,0,0,0-.205-1.252.887.887,0,0,0-.892-.428,3.7,3.7,0,0,0-1.157.248q-.712.248-1.329.527V41.1l6.293-3.206Zm15.773,23.2a4.921,4.921,0,0,1-1.252,3.224,7.716,7.716,0,0,1-2.692,2.143l-.326-.686a5.839,5.839,0,0,0,2.272-2.006,3.824,3.824,0,0,0,.626-1.8.3.3,0,0,0-.155-.309.79.79,0,0,0-.326-.068l-1.149.12a2.089,2.089,0,0,1-1.317-.471,1.63,1.63,0,0,1-.6-1.366,2.184,2.184,0,0,1,.5-1.337,1.92,1.92,0,0,1,1.628-.651,2.686,2.686,0,0,1,1.938.849A3.168,3.168,0,0,1-109.911,61.092Zm16.6-7.442a8.832,8.832,0,0,1-2.015,5.658,6.394,6.394,0,0,1-5.238,2.52,7.233,7.233,0,0,1-5.5-2.829,11.016,11.016,0,0,1-2.477-7.527,13.532,13.532,0,0,1,4.806-10.387A14.513,14.513,0,0,1-94.1,37.45l.088.566a16.943,16.943,0,0,0-3.7,1.072,8.954,8.954,0,0,0-2.769,1.894,14.671,14.671,0,0,0-2.349,3.138,13.286,13.286,0,0,0-1.509,3.775,12.6,12.6,0,0,1,1.835-.96,7.38,7.38,0,0,1,2.761-.549,6.161,6.161,0,0,1,4.574,1.88A7.365,7.365,0,0,1-93.31,53.65Zm-3.138,1.317a10.647,10.647,0,0,0-.72-4.046,4.174,4.174,0,0,0-4.08-2.949q-2.657,0-3.532,1.58a6.76,6.76,0,0,0-.514,3.087,13.315,13.315,0,0,0,1.191,5.469,3.943,3.943,0,0,0,3.763,2.675,3.122,3.122,0,0,0,2.966-1.74,8.546,8.546,0,0,0,.93-4.072Zm12.671,5.847q2.52,0,3.463-2.761a26,26,0,0,0,.943-7.989,31.186,31.186,0,0,0-.566-6.653Q-81,38.782-83.918,38.782t-4,4.767a31.838,31.838,0,0,0-.566,6.687A26.622,26.622,0,0,0-87.9,56.46q1.1,4.357,4.12,4.357Zm-.052-22.958q3.943,0,6.121,4.132a16.465,16.465,0,0,1,1.732,7.681,19.212,19.212,0,0,1-1.063,6.43q-2.006,5.676-6.944,5.676A6.567,6.567,0,0,1-89.541,58.7q-2.332-3.275-2.332-8.9a17.165,17.165,0,0,1,1.56-7.613q2.112-4.331,6.485-4.331Zm10.254,23.2a111.558,111.558,0,0,0,8.522-9.569,10.084,10.084,0,0,0,2.246-5.949,5.14,5.14,0,0,0-1.371-3.863,4.543,4.543,0,0,0-3.275-1.329,4.757,4.757,0,0,0-3.807,1.715,9.95,9.95,0,0,0-1.543,2.9l-.737-.155q.858-3.943,2.907-5.478a7.2,7.2,0,0,1,4.4-1.535,6.277,6.277,0,0,1,4.69,1.826,6.135,6.135,0,0,1,1.792,4.467A8.966,8.966,0,0,1-61.694,49.5a116.673,116.673,0,0,1-8.419,9.276h7.871a4.878,4.878,0,0,0,2.315-.394,5.142,5.142,0,0,0,1.509-1.92l.446.205-1.9,4.785h-13.7ZM-37.9,37.89a.367.367,0,0,1,.077.128,1.34,1.34,0,0,1,.009.2V58.863q0,1.317.7,1.68a7.023,7.023,0,0,0,2.623.428v.48h-9.666v-.514a5.666,5.666,0,0,0,2.709-.566q.635-.463.635-2.006V42.49a2.985,2.985,0,0,0-.205-1.252.887.887,0,0,0-.892-.428,3.7,3.7,0,0,0-1.157.248q-.712.248-1.329.527V41.1L-38.1,37.9Zm22.924.326v.566l-7.442,22.993h-2.263l6.944-20.97h-7.476a4.038,4.038,0,0,0-2.392.549,9.313,9.313,0,0,0-1.844,2.3l-.6-.274q1.115-2.743,1.38-3.386t.694-1.774ZM3.258,53.65a8.832,8.832,0,0,1-2.015,5.658A6.394,6.394,0,0,1-4,61.829,7.233,7.233,0,0,1-9.491,59a11.016,11.016,0,0,1-2.477-7.527,13.532,13.532,0,0,1,4.8-10.388,14.513,14.513,0,0,1,9.637-3.638l.088.566a16.943,16.943,0,0,0-3.7,1.071,8.954,8.954,0,0,0-2.768,1.9,14.671,14.671,0,0,0-2.349,3.138,13.287,13.287,0,0,0-1.509,3.775,12.6,12.6,0,0,1,1.835-.96,7.38,7.38,0,0,1,2.761-.549A6.161,6.161,0,0,1,1.4,48.266,7.365,7.365,0,0,1,3.258,53.65ZM.12,54.967A10.647,10.647,0,0,0-.6,50.921a4.174,4.174,0,0,0-4.08-2.949q-2.657,0-3.532,1.58a6.76,6.76,0,0,0-.514,3.087,13.315,13.315,0,0,0,1.191,5.469,3.943,3.943,0,0,0,3.76,2.675,3.122,3.122,0,0,0,2.969-1.74A8.546,8.546,0,0,0,.12,54.971ZM29.594,53.65a8.832,8.832,0,0,1-2.015,5.658,6.394,6.394,0,0,1-5.238,2.52A7.233,7.233,0,0,1,16.846,59a11.016,11.016,0,0,1-2.477-7.527,13.532,13.532,0,0,1,4.8-10.387,14.513,14.513,0,0,1,9.637-3.635l.088.566a16.943,16.943,0,0,0-3.7,1.068,8.954,8.954,0,0,0-2.769,1.894,14.671,14.671,0,0,0-2.349,3.138,13.287,13.287,0,0,0-1.509,3.775,12.6,12.6,0,0,1,1.835-.96,7.38,7.38,0,0,1,2.761-.549,6.161,6.161,0,0,1,4.577,1.884,7.365,7.365,0,0,1,1.853,5.384Zm-3.138,1.317a10.647,10.647,0,0,0-.72-4.046,4.174,4.174,0,0,0-4.08-2.949q-2.657,0-3.532,1.58a6.76,6.76,0,0,0-.514,3.087A13.315,13.315,0,0,0,18.8,58.108a3.943,3.943,0,0,0,3.76,2.675,3.122,3.122,0,0,0,2.966-1.74,8.546,8.546,0,0,0,.929-4.073Zm6.995,3.5a5.154,5.154,0,0,1,2.495.977,5.237,5.237,0,0,0,2.634.977A4.1,4.1,0,0,0,42.147,58.8a5.908,5.908,0,0,0,1.166-3.524,5.6,5.6,0,0,0-.945-3.218q-1.594-2.349-5.384-2.349-.223,0-.428.009t-.48.043l-.034-.446a14.859,14.859,0,0,0,4.321-2.283,4.164,4.164,0,0,0,1.58-3.395A3.4,3.4,0,0,0,40.7,40.792a4.467,4.467,0,0,0-2.837-.977A4.653,4.653,0,0,0,34.536,41.2a10.615,10.615,0,0,0-1.7,2.331l-.531-.12a7.868,7.868,0,0,1,2.555-4.166,6.544,6.544,0,0,1,4.321-1.56,5.465,5.465,0,0,1,4.055,1.441,4.555,4.555,0,0,1,.248,6.379,10.974,10.974,0,0,1-2.074,1.766,8.855,8.855,0,0,1,2.641,1.646,6.063,6.063,0,0,1,1.869,4.565,7.777,7.777,0,0,1-2.563,5.744q-2.563,2.486-7.3,2.486a5.179,5.179,0,0,1-2.958-.626,1.724,1.724,0,0,1-.849-1.346,1.492,1.492,0,0,1,.283-.858,1.033,1.033,0,0,1,.919-.418ZM58.52,41.426,50.1,53.324H58.52Zm1.132-3.532h1.625V53.324H64.86v2.283H61.276v5.845H58.555V55.605H48.678V53.323Zm23.1,7.8v.481a3.578,3.578,0,0,0-1.1.176.651.651,0,0,0-.455.677,6.368,6.368,0,0,0,.909,1.835q.48.79,1.218,1.937,1.011-1.389,1.509-2.177a4.527,4.527,0,0,0,.84-1.646.59.59,0,0,0-.36-.6,3.318,3.318,0,0,0-1.011-.205v-.48h5.515v.485a4.1,4.1,0,0,0-1.628.471,3.4,3.4,0,0,0-1.218,1.072l-2.932,4.235,4.526,6.859a6.131,6.131,0,0,0,1.483,1.732,2.739,2.739,0,0,0,1.4.428v.478H84.359v-.48l.5-.034a1.229,1.229,0,0,0,.66-.24.627.627,0,0,0,.263-.514,4.24,4.24,0,0,0-.651-1.441q-.309-.549-.926-1.492-.291-.463-.866-1.286t-.966-1.4l-2.761,4.3A11.39,11.39,0,0,0,79,59.89a1.066,1.066,0,0,0-.12.428.413.413,0,0,0,.263.428,6.387,6.387,0,0,0,1.157.223v.482H75.221v-.48a4.077,4.077,0,0,0,1.372-.48,5.4,5.4,0,0,0,1.183-1.355l4-5.812-3.292-4.99a8.816,8.816,0,0,0-1.371-1.766,3.813,3.813,0,0,0-1.646-.394v-.48Zm28.6-7.8a.367.367,0,0,1,.077.128,1.34,1.34,0,0,1,.009.2V58.863q0,1.317.7,1.68a7.023,7.023,0,0,0,2.623.428v.48h-9.67v-.514a5.666,5.666,0,0,0,2.709-.566q.635-.463.635-2.006V42.49a2.985,2.985,0,0,0-.205-1.252.887.887,0,0,0-.892-.428,3.7,3.7,0,0,0-1.157.248q-.712.248-1.329.527V41.1l6.293-3.206Zm15.568,22.923q2.52,0,3.463-2.761a26,26,0,0,0,.943-7.989,31.187,31.187,0,0,0-.566-6.653q-1.063-4.629-3.978-4.629t-4,4.767a31.839,31.839,0,0,0-.566,6.687,26.622,26.622,0,0,0,.583,6.224Q123.9,60.817,126.916,60.817Zm-.052-22.958q3.943,0,6.122,4.132a16.464,16.464,0,0,1,1.732,7.681,19.211,19.211,0,0,1-1.063,6.43q-2.006,5.676-6.944,5.676a6.567,6.567,0,0,1-5.555-3.073q-2.332-3.275-2.332-8.9a17.165,17.165,0,0,1,1.56-7.613q2.109-4.334,6.481-4.334Z" transform="translate(589.939 3341.23)" fill="#00897b"/>
      <path id="Trazado_40608" data-name="Trazado 40608" d="M-12.669-5.186H-7.71v1.262h-4.959ZM-.759-13.547a.211.211,0,0,1,.045.074.771.771,0,0,1,.005.113V-1.492q0,.759.4.966A4.038,4.038,0,0,0,1.2-.276V0H-4.358V-.3A3.258,3.258,0,0,0-2.8-.622q.365-.263.365-1.154v-9.13a1.718,1.718,0,0,0-.119-.72.51.51,0,0,0-.513-.247,2.128,2.128,0,0,0-.665.143q-.409.143-.764.3V-11.7l3.617-1.844ZM8.4-5.646a2.978,2.978,0,0,0,1.385-.375q.715-.375.814-.631a3.95,3.95,0,0,0,.069-.735q.03-.636.03-1.031a7.011,7.011,0,0,0-.69-3.336,2.186,2.186,0,0,0-2.019-1.282,1.815,1.815,0,0,0-1.563.878,4.691,4.691,0,0,0-.6,2.622,6.344,6.344,0,0,0,.557,2.662A2.025,2.025,0,0,0,8.4-5.649Zm-.276-7.947a3.824,3.824,0,0,1,3.352,1.73A6.685,6.685,0,0,1,12.659-8,8.889,8.889,0,0,1,12.1-4.953a8.492,8.492,0,0,1-1.636,2.758A7.55,7.55,0,0,1,7.286-.119,13.059,13.059,0,0,1,4.575.473l-.1-.394a12.466,12.466,0,0,0,1.7-.5A6.057,6.057,0,0,0,8.143-1.607,8.215,8.215,0,0,0,9.811-3.83,8.109,8.109,0,0,0,10.6-5.882l-.345.256a4.246,4.246,0,0,1-1.715.759,4.194,4.194,0,0,1-.937.119A3.265,3.265,0,0,1,4.944-5.94a4.31,4.31,0,0,1-.981-2.839,5.123,5.123,0,0,1,1.168-3.461A3.766,3.766,0,0,1,8.124-13.6Z" transform="translate(736.545 3381.613)" fill="#00897b"/>
      <path id="Trazado_40562" data-name="Trazado 40562" d="M1749.546,287.068s-31.34,37.653,0,90.994" transform="translate(-1301.026 3033.97)" fill="none" stroke="#00897b" stroke-width="1.756"/>
      <path id="Trazado_40563" data-name="Trazado 40563" d="M1735.614,287.068s31.34,37.653,0,90.994" transform="translate(-975.33 3033.97)" fill="none" stroke="#00897b" stroke-width="1.756"/>
      <path id="Trazado_40609" data-name="Trazado 40609" d="M-5.015-5.4h.566a8.954,8.954,0,0,0,1.063,3A3.891,3.891,0,0,0,.126-.479a2.822,2.822,0,0,0,2.031-.712A2.433,2.433,0,0,0,2.9-3.035a2.538,2.538,0,0,0-.428-1.389,4.4,4.4,0,0,0-1.509-1.3l-1.92-1.1a10.947,10.947,0,0,1-3.1-2.282,4.007,4.007,0,0,1-.995-2.709A4.055,4.055,0,0,1-3.68-14.971,4.958,4.958,0,0,1-.232-16.2a6.7,6.7,0,0,1,2,.343,9.256,9.256,0,0,0,1.229.343A.878.878,0,0,0,3.44-15.6a.718.718,0,0,0,.24-.274h.412l.12,4.784H3.677a7.932,7.932,0,0,0-.926-2.589A3.4,3.4,0,0,0-.321-15.4a2.449,2.449,0,0,0-1.886.737,2.458,2.458,0,0,0-.686,1.732q0,1.58,2.37,2.809L1.741-8.9Q5.393-6.912,5.393-4.273A4.14,4.14,0,0,1,3.875-.963,5.929,5.929,0,0,1-.094.326,9.273,9.273,0,0,1-2.426-.018,10.529,10.529,0,0,0-3.969-.36a.508.508,0,0,0-.36.146,1.012,1.012,0,0,0-.24.351h-.446Z" transform="translate(797.997 3371.956)" fill="#00897b"/>
      <path id="Trazado_40610" data-name="Trazado 40610" d="M-8.284-5.637H-2.9v1.372h-5.39ZM4.662-14.724a.229.229,0,0,1,.048.081.838.838,0,0,1,.005.123v12.9q0,.825.439,1.053a4.389,4.389,0,0,0,1.64.268V0H.75V-.321A3.541,3.541,0,0,0,2.443-.672a1.506,1.506,0,0,0,.4-1.254v-9.925a1.868,1.868,0,0,0-.128-.782.554.554,0,0,0-.557-.268,2.313,2.313,0,0,0-.723.155q-.445.155-.83.327v-.3l3.933-2Z" transform="translate(819.067 3357.91)" fill="#00897b"/>
    </g>
  </g>
</svg>
