<svg xmlns="http://www.w3.org/2000/svg" width="66" height="66" viewBox="0 0 66 66">
  <g id="Grupo_63752" data-name="Grupo 63752" transform="translate(-831 -200)">
    <path id="Trazado_110304" data-name="Trazado 110304" d="M0,0H66V66H0Z" transform="translate(831 200)" fill="#fdd835"/>
    <path id="Trazado_110303" data-name="Trazado 110303" d="M22.661,0H1.825V-4.512l9.6-10.09q3.548-4.04,3.548-6.419a4.465,4.465,0,0,0-.841-2.933,3,3,0,0,0-2.44-1,3.039,3.039,0,0,0-2.563,1.343,5.52,5.52,0,0,0-.984,3.353H1.21a9.806,9.806,0,0,1,1.374-5.076A9.635,9.635,0,0,1,6.4-28.978a11.331,11.331,0,0,1,5.455-1.312q4.84,0,7.455,2.235a7.98,7.98,0,0,1,2.615,6.419,9.321,9.321,0,0,1-.656,3.435,15.064,15.064,0,0,1-2.041,3.507,51.4,51.4,0,0,1-4.46,4.912L10.91-5.332H22.661Z" transform="translate(852 248)" fill="#12263f"/>
  </g>
</svg>
