<svg xmlns="http://www.w3.org/2000/svg" width="66" height="66" viewBox="0 0 66 66">
  <g id="Grupo_63753" data-name="Grupo 63753" transform="translate(-1140 -200)">
    <path id="Trazado_110306" data-name="Trazado 110306" d="M0,0H66V66H0Z" transform="translate(1140 200)" fill="#fdd835"/>
    <path id="Trazado_110305" data-name="Trazado 110305" d="M8.142-17.821H11.4q3.876,0,3.876-3.794a3.281,3.281,0,0,0-.923-2.41,3.5,3.5,0,0,0-2.6-.933,3.746,3.746,0,0,0-2.389.8,2.44,2.44,0,0,0-1.015,1.989H1.436a7.075,7.075,0,0,1,1.313-4.2,8.667,8.667,0,0,1,3.64-2.881A12.446,12.446,0,0,1,11.5-30.29q4.983,0,7.834,2.276a7.567,7.567,0,0,1,2.851,6.255,6.307,6.307,0,0,1-1.179,3.64,8.4,8.4,0,0,1-3.435,2.779,8.028,8.028,0,0,1,3.732,2.615,6.886,6.886,0,0,1,1.354,4.337,7.7,7.7,0,0,1-3.076,6.4A12.769,12.769,0,0,1,11.5.41,13.242,13.242,0,0,1,6.06-.708a8.531,8.531,0,0,1-3.8-3.1,8.051,8.051,0,0,1-1.292-4.5H7.916A3.112,3.112,0,0,0,9.023-5.927a3.91,3.91,0,0,0,2.728,1,4.1,4.1,0,0,0,2.912-1.015A3.393,3.393,0,0,0,15.75-8.531a3.967,3.967,0,0,0-1.128-3.2,4.715,4.715,0,0,0-3.117-.943H8.142Z" transform="translate(1161 248)" fill="#12263f"/>
  </g>
</svg>
