<svg xmlns="http://www.w3.org/2000/svg" width="54.354" height="65.62" viewBox="0 0 54.354 65.62">
  <g id="Grupo_63755" data-name="Grupo 63755" transform="translate(-15.323 -9.69)">
    <path id="Trazado_108930" data-name="Trazado 108930" d="M67.617,37.735c-.027-.06-.051-.123-.077-.186l-7.455-18-3.194,1.323-4.409-6.6-3.235,2.162L42.5,9.69,27.123,50.625,42.5,75.31A27.185,27.185,0,0,0,67.617,37.735Z" fill="#ff4f75"/>
    <path id="Trazado_108931" data-name="Trazado 108931" d="M35.754,16.436l-3.235-2.162-4.409,6.6L24.916,19.55,17.383,37.736A27.168,27.168,0,0,0,42.5,75.31V9.69Z" fill="#ff776b"/>
    <path id="Trazado_108932" data-name="Trazado 108932" d="M54.741,38.078,42.5,25.837,27.123,50.625,42.5,67.619A17.3,17.3,0,0,0,54.741,38.078Z" fill="#ffcc4a"/>
    <path id="Trazado_108933" data-name="Trazado 108933" d="M30.259,38.078A17.3,17.3,0,0,0,42.5,67.619V25.837Z" fill="#ffe278"/>
    <path id="Trazado_108934" data-name="Trazado 108934" d="M42.5,44.546l-4.655,7.691L42.5,59.928a7.691,7.691,0,0,0,0-15.382Z" fill="#fff0bf"/>
    <path id="Trazado_108935" data-name="Trazado 108935" d="M34.809,52.237A7.7,7.7,0,0,0,42.5,59.928V44.546a7.7,7.7,0,0,0-7.691,7.691Z" fill="#fff"/>
  </g>
</svg>
