<svg xmlns="http://www.w3.org/2000/svg" xmlns:xlink="http://www.w3.org/1999/xlink" width="134" height="134" viewBox="0 0 134 134">
  <defs>
    <clipPath id="clip-path">
      <rect id="Rectángulo_5496" data-name="Rectángulo 5496" width="134" height="134" transform="translate(1076 3736)" fill="#fff" stroke="#707070" stroke-width="1"/>
    </clipPath>
  </defs>
  <g id="Enmascarar_grupo_55" data-name="Enmascarar grupo 55" transform="translate(-1076 -3736)" clip-path="url(#clip-path)">
    <g id="centigrado" transform="translate(1076 3736)">
      <g id="Grupo_62661" data-name="Grupo 62661">
        <g id="Grupo_62660" data-name="Grupo 62660">
          <g id="Grupo_62657" data-name="Grupo 62657">
            <path id="Trazado_105553" data-name="Trazado 105553" d="M130.074,23.555h-7.852a3.926,3.926,0,0,1,0-7.852h7.852a3.926,3.926,0,0,1,0,7.852Z" fill="#453d81"/>
            <path id="Trazado_105554" data-name="Trazado 105554" d="M126.148,39.258h-3.926a3.926,3.926,0,0,1,0-7.852h3.926a3.926,3.926,0,0,1,0,7.852Z" fill="#453d81"/>
            <path id="Trazado_105555" data-name="Trazado 105555" d="M130.074,54.961h-7.852a3.926,3.926,0,0,1,0-7.852h7.852a3.926,3.926,0,0,1,0,7.852Z" fill="#453d81"/>
            <path id="Trazado_105556" data-name="Trazado 105556" d="M126.148,70.664h-3.926a3.926,3.926,0,0,1,0-7.852h3.926a3.926,3.926,0,0,1,0,7.852Z" fill="#453d81"/>
            <path id="Trazado_105557" data-name="Trazado 105557" d="M130.074,86.367h-7.852a3.926,3.926,0,0,1,0-7.852h7.852a3.926,3.926,0,0,1,0,7.852Z" fill="#453d81"/>
          </g>
          <g id="Grupo_62659" data-name="Grupo 62659">
            <path id="Trazado_105558" data-name="Trazado 105558" d="M63.336,106.52a27.48,27.48,0,1,0,44.492-21.583V17.012a17.012,17.012,0,0,0-34.023,0V84.937A27.43,27.43,0,0,0,63.336,106.52Z" fill="#e2dff4"/>
            <path id="Trazado_105559" data-name="Trazado 105559" d="M118.3,106.52a27.431,27.431,0,0,0-10.469-21.583V17.012A17.012,17.012,0,0,0,90.816,0V134A27.48,27.48,0,0,0,118.3,106.52Z" fill="#bebcdd"/>
            <path id="Trazado_105560" data-name="Trazado 105560" d="M90.816,126.148A19.629,19.629,0,0,1,78.669,91.1l2.987-2.358V17.012a9.16,9.16,0,0,1,18.32,0V88.743l2.987,2.358a19.629,19.629,0,0,1-12.147,35.048Z" fill="#f9f9f9"/>
            <path id="Trazado_105561" data-name="Trazado 105561" d="M90.816,126.148A19.629,19.629,0,0,0,102.964,91.1l-2.987-2.358V17.012a9.171,9.171,0,0,0-9.16-9.16Z" fill="#e2dff4"/>
            <path id="Trazado_105562" data-name="Trazado 105562" d="M94.742,95.417V66.738a3.926,3.926,0,0,0-7.852,0V95.417a11.777,11.777,0,1,0,7.852,0Z" fill="#ff7d47"/>
            <g id="Grupo_62658" data-name="Grupo 62658">
              <path id="Trazado_105563" data-name="Trazado 105563" d="M94.742,95.417V66.738a3.926,3.926,0,0,0-3.926-3.926V118.3a11.776,11.776,0,0,0,3.926-22.879Z" fill="#ff405c"/>
            </g>
          </g>
        </g>
      </g>
      <g id="Grupo_62662" data-name="Grupo 62662">
        <path id="Trazado_105564" data-name="Trazado 105564" d="M44.048,94.219A27.48,27.48,0,1,1,59.415,43.953a3.926,3.926,0,0,1-4.4,6.506A19.63,19.63,0,1,0,44.048,86.367a14.626,14.626,0,0,0,11.831-5.246,3.926,3.926,0,1,1,6.016,5.045,22.46,22.46,0,0,1-17.847,8.053Z" fill="#5e54ac"/>
        <path id="Trazado_105565" data-name="Trazado 105565" d="M11.777,47.109A11.777,11.777,0,1,1,23.555,35.332,11.791,11.791,0,0,1,11.777,47.109Zm0-15.7A3.926,3.926,0,1,0,15.7,35.332,3.93,3.93,0,0,0,11.777,31.406Z" fill="#5e54ac"/>
      </g>
    </g>
  </g>
</svg>
