<svg xmlns="http://www.w3.org/2000/svg" xmlns:xlink="http://www.w3.org/1999/xlink" width="134" height="134" viewBox="0 0 134 134">
  <defs>
    <clipPath id="clip-path">
      <rect id="Rectángulo_5497" data-name="Rectángulo 5497" width="134" height="134" transform="translate(985 124)" fill="#fff" stroke="#707070" stroke-width="1"/>
    </clipPath>
  </defs>
  <g id="Enmascarar_grupo_56" data-name="Enmascarar grupo 56" transform="translate(-985 -124)" clip-path="url(#clip-path)">
    <g id="kelvin" transform="translate(985 124)">
      <g id="Grupo_62666" data-name="Grupo 62666">
        <path id="Trazado_105566" data-name="Trazado 105566" d="M63.336,106.52a27.48,27.48,0,1,0,44.492-21.583V17.012a17.012,17.012,0,0,0-34.023,0V84.937A27.43,27.43,0,0,0,63.336,106.52Z" fill="#e2dff4"/>
        <path id="Trazado_105567" data-name="Trazado 105567" d="M118.3,106.52a27.431,27.431,0,0,0-10.469-21.583V17.012A17.012,17.012,0,0,0,90.816,0V134A27.48,27.48,0,0,0,118.3,106.52Z" fill="#bebcdd"/>
        <path id="Trazado_105568" data-name="Trazado 105568" d="M90.816,126.148A19.629,19.629,0,0,1,78.669,91.1l2.987-2.358V17.012a9.16,9.16,0,0,1,18.32,0V88.743l2.987,2.358a19.629,19.629,0,0,1-12.147,35.048Z" fill="#f9f9f9"/>
        <path id="Trazado_105569" data-name="Trazado 105569" d="M90.816,126.148A19.629,19.629,0,0,0,102.964,91.1l-2.987-2.358V17.012a9.171,9.171,0,0,0-9.16-9.16Z" fill="#e2dff4"/>
        <g id="Grupo_62664" data-name="Grupo 62664">
          <path id="Trazado_105570" data-name="Trazado 105570" d="M94.742,95.417V51.035a3.926,3.926,0,0,0-7.852,0V95.417a11.777,11.777,0,1,0,7.852,0Z" fill="#ff7d47"/>
          <g id="Grupo_62663" data-name="Grupo 62663">
            <path id="Trazado_105571" data-name="Trazado 105571" d="M94.742,95.417V51.035a3.926,3.926,0,0,0-3.926-3.926V118.3a11.776,11.776,0,0,0,3.926-22.879Z" fill="#ff405c"/>
          </g>
        </g>
        <g id="Grupo_62665" data-name="Grupo 62665">
          <path id="Trazado_105572" data-name="Trazado 105572" d="M130.074,23.555h-7.852a3.926,3.926,0,0,1,0-7.852h7.852a3.926,3.926,0,0,1,0,7.852Z" fill="#453d81"/>
          <path id="Trazado_105573" data-name="Trazado 105573" d="M126.148,39.258h-3.926a3.926,3.926,0,0,1,0-7.852h3.926a3.926,3.926,0,0,1,0,7.852Z" fill="#453d81"/>
          <path id="Trazado_105574" data-name="Trazado 105574" d="M130.074,54.961h-7.852a3.926,3.926,0,0,1,0-7.852h7.852a3.926,3.926,0,0,1,0,7.852Z" fill="#453d81"/>
          <path id="Trazado_105575" data-name="Trazado 105575" d="M126.148,70.664h-3.926a3.926,3.926,0,0,1,0-7.852h3.926a3.926,3.926,0,0,1,0,7.852Z" fill="#453d81"/>
          <path id="Trazado_105576" data-name="Trazado 105576" d="M130.074,86.367h-7.852a3.926,3.926,0,0,1,0-7.852h7.852a3.926,3.926,0,0,1,0,7.852Z" fill="#453d81"/>
        </g>
      </g>
      <g id="Grupo_62667" data-name="Grupo 62667">
        <path id="Trazado_105577" data-name="Trazado 105577" d="M59.837,87.468,37.331,65.755,58.1,46.668a3.926,3.926,0,1,0-5.313-5.781L34.023,58.131V43.184a3.926,3.926,0,0,0-7.852,0V90.293a3.926,3.926,0,0,0,7.852,0V73.473L54.386,93.118a3.926,3.926,0,0,0,5.451-5.651Z" fill="#5e54ac"/>
        <path id="Trazado_105578" data-name="Trazado 105578" d="M11.777,23.555A11.777,11.777,0,1,0,23.555,35.332,11.791,11.791,0,0,0,11.777,23.555Zm0,15.7A3.926,3.926,0,1,1,15.7,35.332,3.93,3.93,0,0,1,11.777,39.258Z" fill="#5e54ac"/>
      </g>
    </g>
  </g>
</svg>
