<svg xmlns="http://www.w3.org/2000/svg" width="537.991" height="382.793" viewBox="0 0 537.991 382.793">
  <g id="Grupo_63608" data-name="Grupo 63608" transform="translate(-7472 -896.707)">
    <line id="Línea_160" data-name="Línea 160" x1="379.437" y2="312.269" transform="translate(7570.394 938.45)" fill="none" stroke="blue" stroke-miterlimit="10" stroke-width="0.75" stroke-dasharray="5"/>
    <circle id="Elipse_4251" data-name="Elipse 4251" cx="18.265" cy="18.265" r="18.265" transform="translate(7943.939 907.812)" fill="#fdd835" stroke="#00897b" stroke-miterlimit="10" stroke-width="1"/>
    <line id="Línea_161" data-name="Línea 161" x2="171.005" y2="91.872" transform="translate(7572.925 1016.049)" fill="none" stroke="blue" stroke-miterlimit="10" stroke-width="0.75" stroke-dasharray="5"/>
    <path id="Trazado_110322" data-name="Trazado 110322" d="M12.643-14.222,12.961-9.5h-.318a5.949,5.949,0,0,0-1.815-3.056A4.421,4.421,0,0,0,8-13.484a4.605,4.605,0,0,0-2.5.7,4.646,4.646,0,0,0-1.759,2.24A9.979,9.979,0,0,0,3.1-6.716a8.121,8.121,0,0,0,.6,3.271,4.533,4.533,0,0,0,1.82,2.123A5.235,5.235,0,0,0,8.3-.584a4.811,4.811,0,0,0,2.389-.579,7.875,7.875,0,0,0,2.276-2.3l.318.205a7.3,7.3,0,0,1-2.44,2.717A6.177,6.177,0,0,1,7.526.318,6.269,6.269,0,0,1,2.174-2.246,7.329,7.329,0,0,1,.759-6.737a7.976,7.976,0,0,1,.933-3.825,6.751,6.751,0,0,1,2.569-2.7,6.94,6.94,0,0,1,3.573-.959,6.549,6.549,0,0,1,2.974.738,1.613,1.613,0,0,0,.615.226.677.677,0,0,0,.482-.195,1.6,1.6,0,0,0,.379-.769ZM19.985-1.354A15.481,15.481,0,0,1,18.17-.062a2.773,2.773,0,0,1-1.179.256,2.113,2.113,0,0,1-1.6-.667,2.447,2.447,0,0,1-.631-1.753,2.233,2.233,0,0,1,.308-1.189,4.073,4.073,0,0,1,1.461-1.312,22.734,22.734,0,0,1,3.461-1.5v-.369a3.062,3.062,0,0,0-.446-1.928,1.61,1.61,0,0,0-1.3-.523,1.457,1.457,0,0,0-1.025.349,1.049,1.049,0,0,0-.39.8l.021.595a1.023,1.023,0,0,1-.241.728.826.826,0,0,1-.631.256.8.8,0,0,1-.62-.267,1.045,1.045,0,0,1-.241-.728,2.1,2.1,0,0,1,.9-1.62,3.9,3.9,0,0,1,2.533-.738,4.393,4.393,0,0,1,2.051.42,1.933,1.933,0,0,1,.892.995,5.6,5.6,0,0,1,.185,1.8v3.189a14.606,14.606,0,0,0,.051,1.646.691.691,0,0,0,.169.405.4.4,0,0,0,.272.1.559.559,0,0,0,.287-.072,6.405,6.405,0,0,0,.831-.749v.574Q22.138.185,21.092.185a1,1,0,0,1-.8-.349A1.883,1.883,0,0,1,19.985-1.354Zm0-.667V-5.6a20.247,20.247,0,0,0-2,.872,3.453,3.453,0,0,0-1.159.943,1.823,1.823,0,0,0-.349,1.077,1.757,1.757,0,0,0,.441,1.225,1.336,1.336,0,0,0,1.015.487A3.72,3.72,0,0,0,19.985-2.02Zm6.788-5.65Q27.8-8.7,27.983-8.849a3.661,3.661,0,0,1,.995-.6,2.8,2.8,0,0,1,1.056-.215,2.342,2.342,0,0,1,1.518.513A2.537,2.537,0,0,1,32.4-7.67a6.967,6.967,0,0,1,1.784-1.615,3.169,3.169,0,0,1,1.5-.385,2.346,2.346,0,0,1,1.328.385,2.556,2.556,0,0,1,.918,1.256,5.66,5.66,0,0,1,.226,1.866v4.04a3.677,3.677,0,0,0,.133,1.21.871.871,0,0,0,.379.385,1.906,1.906,0,0,0,.9.159V0H34.935V-.369h.195A1.631,1.631,0,0,0,36.073-.6a.914.914,0,0,0,.338-.523,6.574,6.574,0,0,0,.041-.995v-4.04a3.419,3.419,0,0,0-.277-1.62,1.388,1.388,0,0,0-1.282-.656,2.443,2.443,0,0,0-1.092.272,5.92,5.92,0,0,0-1.328,1.01l-.021.113.021.441v4.481a3.864,3.864,0,0,0,.108,1.2.872.872,0,0,0,.405.395A2.321,2.321,0,0,0,34-.369V0H29.254V-.369a2.175,2.175,0,0,0,1.072-.185.958.958,0,0,0,.405-.554,5.455,5.455,0,0,0,.051-1.015v-4.04a3.053,3.053,0,0,0-.338-1.651,1.445,1.445,0,0,0-1.261-.656,2.265,2.265,0,0,0-1.1.3,4.221,4.221,0,0,0-1.312,1.015v5.035a3.488,3.488,0,0,0,.128,1.2.882.882,0,0,0,.379.415,2.444,2.444,0,0,0,1.02.138V0H23.656V-.369a2.069,2.069,0,0,0,.9-.138.886.886,0,0,0,.39-.441,3.385,3.385,0,0,0,.133-1.174V-5.711a13.009,13.009,0,0,0-.092-2,.816.816,0,0,0-.226-.467.637.637,0,0,0-.42-.128,1.971,1.971,0,0,0-.687.154L23.5-8.521l2.83-1.148h.441Zm12.869-.79,2.892-1.169h.39v2.194a5.324,5.324,0,0,1,1.461-1.738,2.706,2.706,0,0,1,1.543-.5,2.972,2.972,0,0,1,2.358,1.107,5.234,5.234,0,0,1,1.159,3.527,5.872,5.872,0,0,1-1.395,4.02,3.692,3.692,0,0,1-2.892,1.3A3.617,3.617,0,0,1,43.846.072a3.074,3.074,0,0,1-.923-.615V2.317a3.81,3.81,0,0,0,.118,1.225.877.877,0,0,0,.41.415,2.522,2.522,0,0,0,1.061.154v.379H39.59V4.112h.256a1.862,1.862,0,0,0,.964-.215.738.738,0,0,0,.3-.364,4.366,4.366,0,0,0,.108-1.277v-8.88a4.832,4.832,0,0,0-.082-1.159.7.7,0,0,0-.261-.369.849.849,0,0,0-.487-.123,1.855,1.855,0,0,0-.625.144Zm3.281,1.63v3.507a7.519,7.519,0,0,0,.092,1.5,1.918,1.918,0,0,0,.7,1.046,2.172,2.172,0,0,0,1.41.451,2.022,2.022,0,0,0,1.661-.8,4.625,4.625,0,0,0,.831-2.943,5.125,5.125,0,0,0-.943-3.312,1.962,1.962,0,0,0-1.559-.8,2.122,2.122,0,0,0-.974.246A5.717,5.717,0,0,0,42.923-6.829Zm12.489-2.84a4.162,4.162,0,0,1,3.425,1.62,4.975,4.975,0,0,1,1.1,3.179,5.986,5.986,0,0,1-.6,2.553A4.413,4.413,0,0,1,57.663-.369,4.4,4.4,0,0,1,55.3.287,3.98,3.98,0,0,1,51.926-1.4,5.242,5.242,0,0,1,50.87-4.6a5.676,5.676,0,0,1,.641-2.569A4.377,4.377,0,0,1,53.2-9.059,4.328,4.328,0,0,1,55.412-9.669ZM55.094-9A2.138,2.138,0,0,0,54-8.68a2.265,2.265,0,0,0-.887,1.133,5.452,5.452,0,0,0-.338,2.082,7.252,7.252,0,0,0,.815,3.538A2.427,2.427,0,0,0,55.74-.441a2,2,0,0,0,1.641-.82,4.663,4.663,0,0,0,.646-2.82A6.428,6.428,0,0,0,56.95-8.019,2.219,2.219,0,0,0,55.094-9ZM68.147-5.855a4.824,4.824,0,0,0,1.015,3.281,3.1,3.1,0,0,0,2.41,1.189,2.613,2.613,0,0,0,1.6-.508A3.746,3.746,0,0,0,74.32-3.63l.318.205A4.889,4.889,0,0,1,73.387-.866,3.341,3.341,0,0,1,70.793.287a3.788,3.788,0,0,1-2.9-1.318,5.047,5.047,0,0,1-1.2-3.543,5.357,5.357,0,0,1,1.236-3.758,4.03,4.03,0,0,1,3.1-1.348,3.467,3.467,0,0,1,2.594,1.041,3.816,3.816,0,0,1,1.015,2.784Zm0-.595H72.5a4.019,4.019,0,0,0-.215-1.271,2.036,2.036,0,0,0-.764-.9,1.926,1.926,0,0,0-1.061-.328,2.115,2.115,0,0,0-1.523.661A2.87,2.87,0,0,0,68.147-6.45Zm10.972-8.131V-2.123a3.407,3.407,0,0,0,.128,1.169.909.909,0,0,0,.395.436,2.269,2.269,0,0,0,.995.149V0h-4.6V-.369A1.99,1.99,0,0,0,76.915-.5a.889.889,0,0,0,.369-.441,3.433,3.433,0,0,0,.133-1.179v-8.531a14.786,14.786,0,0,0-.072-1.953.855.855,0,0,0-.231-.5.609.609,0,0,0-.405-.133,1.915,1.915,0,0,0-.677.164l-.174-.359,2.8-1.148ZM83.3-5.855a4.824,4.824,0,0,0,1.015,3.281,3.1,3.1,0,0,0,2.41,1.189,2.613,2.613,0,0,0,1.6-.508A3.746,3.746,0,0,0,89.476-3.63l.318.205A4.889,4.889,0,0,1,88.542-.866,3.341,3.341,0,0,1,85.948.287a3.788,3.788,0,0,1-2.9-1.318,5.047,5.047,0,0,1-1.2-3.543,5.357,5.357,0,0,1,1.236-3.758,4.03,4.03,0,0,1,3.1-1.348,3.467,3.467,0,0,1,2.594,1.041,3.816,3.816,0,0,1,1.015,2.784Zm0-.595H87.65a4.019,4.019,0,0,0-.215-1.271,2.036,2.036,0,0,0-.764-.9,1.926,1.926,0,0,0-1.061-.328,2.115,2.115,0,0,0-1.523.661A2.87,2.87,0,0,0,83.3-6.45Zm4.891-7.8-3.025,3.538H84.82L85.9-14.253ZM99.022-3.568A5.088,5.088,0,0,1,97.535-.713a3.576,3.576,0,0,1-2.451,1A3.622,3.622,0,0,1,92.3-1.056a5.278,5.278,0,0,1-1.189-3.63,5.005,5.005,0,0,1,1.318-3.6,4.213,4.213,0,0,1,3.163-1.384,3.467,3.467,0,0,1,2.276.733,2.028,2.028,0,0,1,.892,1.523.834.834,0,0,1-.251.631.973.973,0,0,1-.7.241,1.092,1.092,0,0,1-.913-.39,1.62,1.62,0,0,1-.231-.82,1.344,1.344,0,0,0-.415-.923,1.48,1.48,0,0,0-.995-.308,2.034,2.034,0,0,0-1.651.759,4.035,4.035,0,0,0-.831,2.656A5.377,5.377,0,0,0,93.593-2.6a2.535,2.535,0,0,0,2.23,1.287A2.7,2.7,0,0,0,97.627-2a4.637,4.637,0,0,0,1.1-1.712Zm4.071-8.911v3.086h2.194v.718h-2.194v6.091a2.046,2.046,0,0,0,.261,1.23.831.831,0,0,0,.672.318,1.175,1.175,0,0,0,.656-.21,1.352,1.352,0,0,0,.492-.62h.4a3.217,3.217,0,0,1-1.015,1.512,2.19,2.19,0,0,1-1.354.508,1.82,1.82,0,0,1-.923-.261,1.581,1.581,0,0,1-.667-.749,3.93,3.93,0,0,1-.215-1.5V-8.675H99.914v-.338a3.893,3.893,0,0,0,1.154-.764,6.074,6.074,0,0,0,1.051-1.277,11.484,11.484,0,0,0,.656-1.425Zm5.855,2.81v2.112q1.179-2.112,2.42-2.112a1.316,1.316,0,0,1,.933.344,1.056,1.056,0,0,1,.369.795.939.939,0,0,1-.267.677.852.852,0,0,1-.636.277,1.354,1.354,0,0,1-.8-.354,1.329,1.329,0,0,0-.661-.354.61.61,0,0,0-.4.205,4.934,4.934,0,0,0-.954,1.384v4.5a2.787,2.787,0,0,0,.195,1.179,1.062,1.062,0,0,0,.472.461,2.072,2.072,0,0,0,.974.185V0h-4.809V-.369a2,2,0,0,0,1.066-.226.875.875,0,0,0,.359-.523,5.274,5.274,0,0,0,.051-.995v-3.64a15.127,15.127,0,0,0-.067-1.953.765.765,0,0,0-.246-.456.691.691,0,0,0-.446-.144,2.028,2.028,0,0,0-.718.154l-.1-.369,2.84-1.148Zm6.634-4.912a1,1,0,0,1,.733.3,1,1,0,0,1,.3.733,1.015,1.015,0,0,1-.3.738.99.99,0,0,1-.733.308,1.007,1.007,0,0,1-.738-.308,1.007,1.007,0,0,1-.308-.738,1,1,0,0,1,.3-.733A1.011,1.011,0,0,1,115.582-14.581Zm.851,4.912v7.547a3.457,3.457,0,0,0,.128,1.174.9.9,0,0,0,.379.436,2.031,2.031,0,0,0,.918.144V0H113.3V-.369a2.124,2.124,0,0,0,.923-.133.914.914,0,0,0,.374-.441,3.314,3.314,0,0,0,.138-1.179v-3.62a12.8,12.8,0,0,0-.092-1.979.8.8,0,0,0-.226-.456.637.637,0,0,0-.42-.128,2.053,2.053,0,0,0-.7.154l-.144-.369,2.83-1.148ZM127-3.568a5.088,5.088,0,0,1-1.487,2.856,3.576,3.576,0,0,1-2.451,1,3.622,3.622,0,0,1-2.789-1.343,5.278,5.278,0,0,1-1.189-3.63,5.005,5.005,0,0,1,1.318-3.6,4.213,4.213,0,0,1,3.163-1.384,3.467,3.467,0,0,1,2.276.733,2.028,2.028,0,0,1,.892,1.523.834.834,0,0,1-.251.631.973.973,0,0,1-.7.241,1.092,1.092,0,0,1-.913-.39,1.62,1.62,0,0,1-.231-.82,1.344,1.344,0,0,0-.415-.923,1.48,1.48,0,0,0-.995-.308,2.034,2.034,0,0,0-1.651.759,4.035,4.035,0,0,0-.831,2.656,5.377,5.377,0,0,0,.825,2.969,2.535,2.535,0,0,0,2.23,1.287A2.7,2.7,0,0,0,125.61-2a4.637,4.637,0,0,0,1.1-1.712Zm5.937-6.1a4.162,4.162,0,0,1,3.425,1.62,4.975,4.975,0,0,1,1.1,3.179,5.986,5.986,0,0,1-.6,2.553,4.413,4.413,0,0,1-1.666,1.948,4.4,4.4,0,0,1-2.364.656A3.98,3.98,0,0,1,129.456-1.4,5.242,5.242,0,0,1,128.4-4.6a5.676,5.676,0,0,1,.641-2.569,4.377,4.377,0,0,1,1.687-1.887A4.328,4.328,0,0,1,132.942-9.669ZM132.624-9a2.138,2.138,0,0,0-1.092.323,2.265,2.265,0,0,0-.887,1.133,5.452,5.452,0,0,0-.338,2.082,7.252,7.252,0,0,0,.815,3.538A2.427,2.427,0,0,0,133.27-.441a2,2,0,0,0,1.641-.82,4.663,4.663,0,0,0,.646-2.82,6.428,6.428,0,0,0-1.077-3.937A2.219,2.219,0,0,0,132.624-9Z" transform="translate(7826.482 1188.043)" fill="#12263f"/>
    <path id="Trazado_110336" data-name="Trazado 110336" d="M8.227-9.68h4v3.387h-4v4.582H4.535V-6.293H.527V-9.68H4.535v-4.453H8.227Z" transform="translate(7956.572 934.047)" fill="#12263f"/>
    <path id="Trazado_110319" data-name="Trazado 110319" d="M5.524-16.9v7.027H8.78a2.32,2.32,0,0,0,1.641-.494,3.271,3.271,0,0,0,.692-1.958H11.6v6.051h-.488a3.534,3.534,0,0,0-.27-1.529,1.71,1.71,0,0,0-.712-.732A2.942,2.942,0,0,0,8.78-8.78H5.524v5.616A5.92,5.92,0,0,0,5.7-1.371,1.18,1.18,0,0,0,6.249-.8a2.5,2.5,0,0,0,1.213.316h.646V0H.435V-.488h.633a1.909,1.909,0,0,0,1.608-.646,4.015,4.015,0,0,0,.316-2.03V-14.713a5.92,5.92,0,0,0-.171-1.793,1.188,1.188,0,0,0-.541-.567,2.45,2.45,0,0,0-1.213-.316H.435v-.488h13.3l.171,3.929h-.461a5.4,5.4,0,0,0-.8-1.839,2.619,2.619,0,0,0-1.121-.85A5.983,5.983,0,0,0,9.466-16.9Z" transform="translate(7915.663 1015.397)" fill="#00897b"/>
    <path id="Trazado_110320" data-name="Trazado 110320" d="M1.49-3.9a3.216,3.216,0,0,0,.677,2.188,2.064,2.064,0,0,0,1.606.793,1.742,1.742,0,0,0,1.07-.338A2.5,2.5,0,0,0,5.605-2.42l.212.137A3.26,3.26,0,0,1,4.983-.578,2.227,2.227,0,0,1,3.254.191,2.526,2.526,0,0,1,1.323-.687a3.365,3.365,0,0,1-.8-2.362,3.571,3.571,0,0,1,.824-2.505,2.686,2.686,0,0,1,2.068-.9,2.312,2.312,0,0,1,1.729.694A2.544,2.544,0,0,1,5.817-3.9Zm0-.4h2.9a2.679,2.679,0,0,0-.144-.848,1.357,1.357,0,0,0-.509-.6,1.284,1.284,0,0,0-.708-.219,1.41,1.41,0,0,0-1.015.441A1.913,1.913,0,0,0,1.49-4.3Z" transform="translate(7927.446 1022.251)" fill="#00897b"/>
    <path id="Trazado_110321" data-name="Trazado 110321" d="M6.863-3.325H3.018L2.344-1.758a2.481,2.481,0,0,0-.249.864.5.5,0,0,0,.216.4,1.888,1.888,0,0,0,.934.223V0H.117V-.271A1.685,1.685,0,0,0,.923-.557,4.487,4.487,0,0,0,1.75-1.985l3.494-8.174H5.5L8.958-1.9A3.766,3.766,0,0,0,9.716-.6a1.545,1.545,0,0,0,.948.333V0H6.746V-.271a1.469,1.469,0,0,0,.8-.2.51.51,0,0,0,.209-.41A3.037,3.037,0,0,0,7.463-1.9Zm-.205-.542L4.973-7.881,3.245-3.867Z" transform="translate(7934.517 1032.678)" fill="#00897b"/>
    <g id="Grupo_63592" data-name="Grupo 63592" transform="translate(7912.712 989.265)">
      <g id="Grupo_63590" data-name="Grupo 63590" transform="translate(0 2.212)">
        <rect id="Rectángulo_5863" data-name="Rectángulo 5863" width="18.833" height="1.178" fill="#00897b"/>
      </g>
      <g id="Grupo_63591" data-name="Grupo 63591" transform="translate(17.354)">
        <path id="Trazado_110055" data-name="Trazado 110055" d="M7865.761,976.424a17.8,17.8,0,0,0-5.035,2.8l1.012-2.8-1.012-2.8A17.765,17.765,0,0,0,7865.761,976.424Z" transform="translate(-7860.727 -973.623)" fill="#00897b"/>
      </g>
    </g>
    <path id="Trazado_110329" data-name="Trazado 110329" d="M5.524-16.9v7.027H8.78a2.32,2.32,0,0,0,1.641-.494,3.271,3.271,0,0,0,.692-1.958H11.6v6.051h-.488a3.534,3.534,0,0,0-.27-1.529,1.71,1.71,0,0,0-.712-.732A2.942,2.942,0,0,0,8.78-8.78H5.524v5.616A5.92,5.92,0,0,0,5.7-1.371,1.18,1.18,0,0,0,6.249-.8a2.5,2.5,0,0,0,1.213.316h.646V0H.435V-.488h.633a1.909,1.909,0,0,0,1.608-.646,4.015,4.015,0,0,0,.316-2.03V-14.713a5.92,5.92,0,0,0-.171-1.793,1.188,1.188,0,0,0-.541-.567,2.45,2.45,0,0,0-1.213-.316H.435v-.488h13.3l.171,3.929h-.461a5.4,5.4,0,0,0-.8-1.839,2.619,2.619,0,0,0-1.121-.85A5.983,5.983,0,0,0,9.466-16.9Z" transform="translate(7634.031 1246.948)" fill="#00897b"/>
    <path id="Trazado_110330" data-name="Trazado 110330" d="M1.49-3.9a3.216,3.216,0,0,0,.677,2.188,2.064,2.064,0,0,0,1.606.793,1.742,1.742,0,0,0,1.07-.338A2.5,2.5,0,0,0,5.605-2.42l.212.137A3.26,3.26,0,0,1,4.983-.578,2.227,2.227,0,0,1,3.254.191,2.526,2.526,0,0,1,1.323-.687a3.365,3.365,0,0,1-.8-2.362,3.571,3.571,0,0,1,.824-2.505,2.686,2.686,0,0,1,2.068-.9,2.312,2.312,0,0,1,1.729.694A2.544,2.544,0,0,1,5.817-3.9Zm0-.4h2.9a2.679,2.679,0,0,0-.144-.848,1.357,1.357,0,0,0-.509-.6,1.284,1.284,0,0,0-.708-.219,1.41,1.41,0,0,0-1.015.441A1.913,1.913,0,0,0,1.49-4.3Z" transform="translate(7645.815 1253.802)" fill="#00897b"/>
    <path id="Trazado_110331" data-name="Trazado 110331" d="M9.031-10.159l.227,3.376H9.031a4.25,4.25,0,0,0-1.3-2.183,3.158,3.158,0,0,0-2.021-.667,3.289,3.289,0,0,0-1.787.5,3.318,3.318,0,0,0-1.256,1.6A7.128,7.128,0,0,0,2.212-4.8a5.8,5.8,0,0,0,.432,2.336,3.238,3.238,0,0,0,1.3,1.516,3.739,3.739,0,0,0,1.981.527A3.436,3.436,0,0,0,7.632-.831,5.625,5.625,0,0,0,9.258-2.476l.227.146A5.214,5.214,0,0,1,7.742-.388,4.412,4.412,0,0,1,5.376.227,4.478,4.478,0,0,1,1.553-1.6,5.235,5.235,0,0,1,.542-4.812a5.7,5.7,0,0,1,.667-2.732,4.822,4.822,0,0,1,1.835-1.93A4.957,4.957,0,0,1,5.6-10.159a4.678,4.678,0,0,1,2.124.527,1.152,1.152,0,0,0,.439.161A.484.484,0,0,0,8.5-9.609a1.141,1.141,0,0,0,.271-.549Z" transform="translate(7652.885 1264.229)" fill="#00897b"/>
    <g id="Grupo_63595" data-name="Grupo 63595" transform="translate(7631.081 1220.815)">
      <g id="Grupo_63593" data-name="Grupo 63593" transform="translate(0 2.212)">
        <rect id="Rectángulo_5864" data-name="Rectángulo 5864" width="18.833" height="1.178" fill="#00897b"/>
      </g>
      <g id="Grupo_63594" data-name="Grupo 63594" transform="translate(17.354)">
        <path id="Trazado_110056" data-name="Trazado 110056" d="M7626.761,1172.924a17.794,17.794,0,0,0-5.036,2.8l1.013-2.8-1.013-2.8A17.773,17.773,0,0,0,7626.761,1172.924Z" transform="translate(-7621.726 -1170.123)" fill="#00897b"/>
      </g>
    </g>
    <path id="Trazado_110326" data-name="Trazado 110326" d="M5.524-16.9v7.027H8.78a2.32,2.32,0,0,0,1.641-.494,3.271,3.271,0,0,0,.692-1.958H11.6v6.051h-.488a3.534,3.534,0,0,0-.27-1.529,1.71,1.71,0,0,0-.712-.732A2.942,2.942,0,0,0,8.78-8.78H5.524v5.616A5.92,5.92,0,0,0,5.7-1.371,1.18,1.18,0,0,0,6.249-.8a2.5,2.5,0,0,0,1.213.316h.646V0H.435V-.488h.633a1.909,1.909,0,0,0,1.608-.646,4.015,4.015,0,0,0,.316-2.03V-14.713a5.92,5.92,0,0,0-.171-1.793,1.188,1.188,0,0,0-.541-.567,2.45,2.45,0,0,0-1.213-.316H.435v-.488h13.3l.171,3.929h-.461a5.4,5.4,0,0,0-.8-1.839,2.619,2.619,0,0,0-1.121-.85A5.983,5.983,0,0,0,9.466-16.9Z" transform="translate(7474.95 1008.916)" fill="#00897b"/>
    <path id="Trazado_110323" data-name="Trazado 110323" d="M11.892.2A10.509,10.509,0,0,0,14.8,3.612a7.049,7.049,0,0,0,3.553,1.252v.422a14.454,14.454,0,0,1-3.889-.732A16.911,16.911,0,0,1,10.54,2.709,19.123,19.123,0,0,1,7.343.2,12.71,12.71,0,0,1,4.337-1.424a8.81,8.81,0,0,1-2.5-3.144,10.15,10.15,0,0,1-.89-4.41,9.126,9.126,0,0,1,2.6-6.658,8.48,8.48,0,0,1,6.289-2.65,8.159,8.159,0,0,1,6.071,2.656,9.263,9.263,0,0,1,2.564,6.7,9.452,9.452,0,0,1-1.826,5.761A8.986,8.986,0,0,1,11.892.2ZM9.677-17.271a4.83,4.83,0,0,0-3.863,1.714Q3.968-13.408,3.968-8.978q0,4.337,1.872,6.684A4.676,4.676,0,0,0,9.677-.488a4.96,4.96,0,0,0,3.995-1.806q1.78-2.136,1.78-6.3a13.231,13.231,0,0,0-.976-5.392,5.49,5.49,0,0,0-2-2.485A5.085,5.085,0,0,0,9.677-17.271Z" transform="translate(7723.587 1013.63)" fill="#12263f"/>
    <path id="Trazado_110324" data-name="Trazado 110324" d="M8.849-1.244A5.368,5.368,0,0,1,7.4-.1,4,4,0,0,1,5.548.355,4.011,4.011,0,0,1,2.019-1.638,6.827,6.827,0,0,1,.99-5.434a7.86,7.86,0,0,1,.781-3.459,5.82,5.82,0,0,1,2.146-2.476A5.343,5.343,0,0,1,6.8-12.226a4.522,4.522,0,0,1,1.809.343,3.581,3.581,0,0,1,1.365,1.041l1.993-1.384H12.4V3.148a3.148,3.148,0,0,0,.2,1.46,1.569,1.569,0,0,0,1.333.482v.47H7.084v-.47a2.713,2.713,0,0,0,1.143-.178,1,1,0,0,0,.489-.47A3.413,3.413,0,0,0,8.849,3.25Zm0-1.155V-7.287a10.352,10.352,0,0,0-.222-2.7,2.471,2.471,0,0,0-.819-1.143,1.209,1.209,0,0,0-.774-.241,1.676,1.676,0,0,0-1.5.851Q4.7-9.217,4.7-5.662a7.389,7.389,0,0,0,.724,3.834A1.486,1.486,0,0,0,6.7-1.079,2.2,2.2,0,0,0,7.738-1.4,3.715,3.715,0,0,0,8.849-2.4Z" transform="translate(7538.583 1046.802)" fill="#12263f"/>
    <path id="Trazado_110327" data-name="Trazado 110327" d="M1.49-3.9a3.216,3.216,0,0,0,.677,2.188,2.064,2.064,0,0,0,1.606.793,1.742,1.742,0,0,0,1.07-.338A2.5,2.5,0,0,0,5.605-2.42l.212.137A3.26,3.26,0,0,1,4.983-.578,2.227,2.227,0,0,1,3.254.191,2.526,2.526,0,0,1,1.323-.687a3.365,3.365,0,0,1-.8-2.362,3.571,3.571,0,0,1,.824-2.505,2.686,2.686,0,0,1,2.068-.9,2.312,2.312,0,0,1,1.729.694A2.544,2.544,0,0,1,5.817-3.9Zm0-.4h2.9a2.679,2.679,0,0,0-.144-.848,1.357,1.357,0,0,0-.509-.6,1.284,1.284,0,0,0-.708-.219,1.41,1.41,0,0,0-1.015.441A1.913,1.913,0,0,0,1.49-4.3Z" transform="translate(7486.734 1015.77)" fill="#00897b"/>
    <path id="Trazado_110328" data-name="Trazado 110328" d="M6.929-5.068a3.187,3.187,0,0,1,1.545.7,2.184,2.184,0,0,1,.71,1.648A2.454,2.454,0,0,1,8.716-1.3,2.68,2.68,0,0,1,7.43-.311,7.456,7.456,0,0,1,4.937,0H.249V-.271H.623a1,1,0,0,0,.894-.4,2.283,2.283,0,0,0,.168-1.091V-8.174a2.012,2.012,0,0,0-.212-1.165,1.076,1.076,0,0,0-.85-.322H.249v-.271H4.541a8.477,8.477,0,0,1,1.926.176,3.093,3.093,0,0,1,1.677.934A2.29,2.29,0,0,1,8.723-7.28a2.133,2.133,0,0,1-.454,1.337A2.663,2.663,0,0,1,6.929-5.068Zm-3.838-.4a5.554,5.554,0,0,0,.619.077q.348.026.765.026a4.281,4.281,0,0,0,1.608-.231A1.723,1.723,0,0,0,6.907-6.3a1.984,1.984,0,0,0,.286-1.04,1.9,1.9,0,0,0-.71-1.487,3.081,3.081,0,0,0-2.073-.615,4.974,4.974,0,0,0-1.318.161Zm0,4.746a7.381,7.381,0,0,0,1.677.2,3.023,3.023,0,0,0,2.021-.6,1.869,1.869,0,0,0,.7-1.476A2.163,2.163,0,0,0,7.17-3.706a2.11,2.11,0,0,0-1.025-.842,4.428,4.428,0,0,0-1.758-.308q-.454,0-.776.015a3.956,3.956,0,0,0-.52.051Z" transform="translate(7497.34 1026.197)" fill="#00897b"/>
    <path id="Trazado_110325" data-name="Trazado 110325" d="M6.672-5.266a5.07,5.07,0,0,1,1.985.8,2.124,2.124,0,0,1,.82,1.729,2.288,2.288,0,0,1-.9,1.853A5.045,5.045,0,0,1,5.361,0H.315V-.271A2.28,2.28,0,0,0,1.249-.4a.748.748,0,0,0,.344-.333,3.035,3.035,0,0,0,.1-1.011V-8.188a3.072,3.072,0,0,0-.1-1.014.723.723,0,0,0-.348-.333,2.344,2.344,0,0,0-.93-.125v-.271H5.076a6.76,6.76,0,0,1,2.417.3,2.515,2.515,0,0,1,1.121.908,2.249,2.249,0,0,1,.41,1.285A1.827,1.827,0,0,1,8.5-6.156,3.734,3.734,0,0,1,6.672-5.266Zm-2.666-.2A3.776,3.776,0,0,0,5.541-5.7,1.746,1.746,0,0,0,6.3-6.357a2.025,2.025,0,0,0,.264-1.084,2.028,2.028,0,0,0-.26-1.08,1.651,1.651,0,0,0-.743-.641,3.951,3.951,0,0,0-1.553-.212Zm0,.571v3.186L4-1.34a.81.81,0,0,0,.2.6.81.81,0,0,0,.6.2A2.285,2.285,0,0,0,5.878-.8a1.78,1.78,0,0,0,.758-.754,2.305,2.305,0,0,0,.264-1.1,2.434,2.434,0,0,0-.322-1.249,1.737,1.737,0,0,0-.886-.773A4.81,4.81,0,0,0,4.006-4.893Z" transform="translate(7553.902 1058.013)" fill="#12263f"/>
    <path id="Trazado_110317" data-name="Trazado 110317" d="M8.849-1.244A5.368,5.368,0,0,1,7.4-.1,4,4,0,0,1,5.548.355,4.011,4.011,0,0,1,2.019-1.638,6.827,6.827,0,0,1,.99-5.434a7.86,7.86,0,0,1,.781-3.459,5.82,5.82,0,0,1,2.146-2.476A5.343,5.343,0,0,1,6.8-12.226a4.522,4.522,0,0,1,1.809.343,3.581,3.581,0,0,1,1.365,1.041l1.993-1.384H12.4V3.148a3.148,3.148,0,0,0,.2,1.46,1.569,1.569,0,0,0,1.333.482v.47H7.084v-.47a2.713,2.713,0,0,0,1.143-.178,1,1,0,0,0,.489-.47A3.413,3.413,0,0,0,8.849,3.25Zm0-1.155V-7.287a10.352,10.352,0,0,0-.222-2.7,2.471,2.471,0,0,0-.819-1.143,1.209,1.209,0,0,0-.774-.241,1.676,1.676,0,0,0-1.5.851Q4.7-9.217,4.7-5.662a7.389,7.389,0,0,0,.724,3.834A1.486,1.486,0,0,0,6.7-1.079,2.2,2.2,0,0,0,7.738-1.4,3.715,3.715,0,0,0,8.849-2.4Z" transform="translate(7984.009 908.933)" fill="#12263f"/>
    <path id="Trazado_110318" data-name="Trazado 110318" d="M6.24-2.827H2.732l-.417.967a2.151,2.151,0,0,0-.205.8.663.663,0,0,0,.337.615,2.834,2.834,0,0,0,.974.176V0H.117V-.271A1.477,1.477,0,0,0,1-.714a5.89,5.89,0,0,0,.85-1.5L5.4-10.137h.139L9.119-1.992A4.96,4.96,0,0,0,9.961-.535a1.15,1.15,0,0,0,.7.264V0h-4.8V-.271h.2A1.5,1.5,0,0,0,6.87-.432a.391.391,0,0,0,.161-.337.9.9,0,0,0-.044-.271q-.015-.066-.22-.549Zm-.249-.542L4.512-6.79,2.988-3.369Z" transform="translate(7999.327 920.143)" fill="#12263f"/>
    <path id="Trazado_110332" data-name="Trazado 110332" d="M8.849-1.244A5.368,5.368,0,0,1,7.4-.1,4,4,0,0,1,5.548.355,4.011,4.011,0,0,1,2.019-1.638,6.827,6.827,0,0,1,.99-5.434a7.86,7.86,0,0,1,.781-3.459,5.82,5.82,0,0,1,2.146-2.476A5.343,5.343,0,0,1,6.8-12.226a4.522,4.522,0,0,1,1.809.343,3.581,3.581,0,0,1,1.365,1.041l1.993-1.384H12.4V3.148a3.148,3.148,0,0,0,.2,1.46,1.569,1.569,0,0,0,1.333.482v.47H7.084v-.47a2.713,2.713,0,0,0,1.143-.178,1,1,0,0,0,.489-.47A3.413,3.413,0,0,0,8.849,3.25Zm0-1.155V-7.287a10.352,10.352,0,0,0-.222-2.7,2.471,2.471,0,0,0-.819-1.143,1.209,1.209,0,0,0-.774-.241,1.676,1.676,0,0,0-1.5.851Q4.7-9.217,4.7-5.662a7.389,7.389,0,0,0,.724,3.834A1.486,1.486,0,0,0,6.7-1.079,2.2,2.2,0,0,0,7.738-1.4,3.715,3.715,0,0,0,8.849-2.4Z" transform="translate(7507.945 1265.98)" fill="#12263f"/>
    <path id="Trazado_110333" data-name="Trazado 110333" d="M10.012-10.159v3.442H9.727a3.667,3.667,0,0,0-1.2-2.065A3.065,3.065,0,0,0,6.533-9.5a2.945,2.945,0,0,0-1.707.535,3.118,3.118,0,0,0-1.135,1.4A6.333,6.333,0,0,0,3.23-5.1a8.232,8.232,0,0,0,.337,2.428A3.23,3.23,0,0,0,4.622-1.022a2.936,2.936,0,0,0,1.86.56A3.633,3.633,0,0,0,8.2-.872,5.938,5.938,0,0,0,9.844-2.285v.857A5.426,5.426,0,0,1,8.1-.165,5.281,5.281,0,0,1,5.991.227,6.066,6.066,0,0,1,3.168-.41a4.5,4.5,0,0,1-1.9-1.831,5.112,5.112,0,0,1-.67-2.542,5.267,5.267,0,0,1,.743-2.7A5.238,5.238,0,0,1,3.344-9.456a5.437,5.437,0,0,1,2.684-.7A6.092,6.092,0,0,1,8.24-9.7a3.4,3.4,0,0,0,.857.264A.556.556,0,0,0,9.5-9.613a.935.935,0,0,0,.223-.546Z" transform="translate(7523.264 1277.191)" fill="#12263f"/>
    <g id="Grupo_63598" data-name="Grupo 63598" transform="translate(7472 982.784)">
      <g id="Grupo_63596" data-name="Grupo 63596" transform="translate(0 2.212)">
        <rect id="Rectángulo_5865" data-name="Rectángulo 5865" width="18.833" height="1.178" fill="#00897b"/>
      </g>
      <g id="Grupo_63597" data-name="Grupo 63597" transform="translate(17.354)">
        <path id="Trazado_110057" data-name="Trazado 110057" d="M7491.761,970.924a17.8,17.8,0,0,0-5.035,2.8l1.012-2.8-1.012-2.8A17.763,17.763,0,0,0,7491.761,970.924Z" transform="translate(-7486.727 -968.123)" fill="#00897b"/>
      </g>
    </g>
    <g id="Grupo_63601" data-name="Grupo 63601" transform="translate(7472 961.962)">
      <g id="Grupo_63599" data-name="Grupo 63599" transform="translate(8.708 3.904)">
        <rect id="Rectángulo_5866" data-name="Rectángulo 5866" width="3.535" height="67.328" transform="translate(0 3.151) rotate(-63.048)" fill="#fdd835"/>
      </g>
      <g id="Grupo_63600" data-name="Grupo 63600">
        <path id="Trazado_110058" data-name="Trazado 110058" d="M7472,951.1c3.63,3.936,7.741,9.591,9.657,14.341l1.1-8.871,6.521-6.115C7484.309,951.7,7477.318,951.714,7472,951.1Z" transform="translate(-7472 -950.453)" fill="#fdd835"/>
      </g>
    </g>
    <g id="Grupo_63604" data-name="Grupo 63604" transform="translate(7889.734 937.09)">
      <g id="Grupo_63602" data-name="Grupo 63602" transform="translate(7.108 0)">
        <rect id="Rectángulo_5867" data-name="Rectángulo 5867" width="67.185" height="3.534" transform="matrix(0.772, -0.636, 0.636, 0.772, 0, 42.703)" fill="#fdd835"/>
      </g>
      <g id="Grupo_63603" data-name="Grupo 63603" transform="translate(0 34.76)">
        <path id="Trazado_110059" data-name="Trazado 110059" d="M7826.5,974.936c5.059-1.753,11.887-3.259,17.007-3.116l-7.692-4.556-2.995-8.421C7831.979,963.9,7829.191,970.308,7826.5,974.936Z" transform="translate(-7826.5 -958.844)" fill="#fdd835"/>
      </g>
    </g>
    <g id="Grupo_63607" data-name="Grupo 63607" transform="translate(7569.268 1205.941)">
      <g id="Grupo_63605" data-name="Grupo 63605" transform="translate(0 5.433)">
        <rect id="Rectángulo_5868" data-name="Rectángulo 5868" width="59.641" height="3.534" transform="matrix(0.771, -0.637, 0.637, 0.771, 0, 37.982)" fill="#fdd835"/>
      </g>
      <g id="Grupo_63606" data-name="Grupo 63606" transform="translate(38.33)">
        <path id="Trazado_110060" data-name="Trazado 110060" d="M7604.073,1157.5c-5.057,1.76-11.882,3.277-17,3.141l7.7,4.544,3.009,8.416C7598.61,1168.547,7601.389,1162.131,7604.073,1157.5Z" transform="translate(-7587.071 -1157.5)" fill="#fdd835"/>
      </g>
    </g>
    <path id="Trazado_110061" data-name="Trazado 110061" d="M7771.8,1028.168s53.027,11.784,17.676,61.276c0,0-2.945,5.3-2.945,17.086l-4.714,14.141s-10.6,9.427-32.994,14.141c0,0-38.887,3.535-48.313,5.892,0,0-15.32-3.535-21.211-7.07a39.633,39.633,0,0,0-17.675-9.427,29.183,29.183,0,0,1-4.714-7.07l-14.141-7.07s-4.714-3.535-5.891-11.784A44.472,44.472,0,0,0,7619.2,1086.5s-11.784-11.784,2.357-23.568c0,0,1.179-35.351,22.389-32.995,0,0,4.714-3.535,24.746,1.178,0,0,28.281,2.357,68.346-10.605,0,0,12.961-1.178,22.389,7.07C7759.423,1027.579,7764.136,1031.114,7771.8,1028.168Z" transform="translate(25.436 23.995)" fill="#4dd0e1" stroke="#00897b" stroke-miterlimit="10" stroke-width="2"/>
    <path id="Trazado_110335" data-name="Trazado 110335" d="M1.013-6.531H7.324v1.843H1.013Z" transform="translate(7728.729 1108.23)" fill="blue"/>
    <circle id="Elipse_4250" data-name="Elipse 4250" cx="18.265" cy="18.265" r="18.265" transform="translate(7538.579 989.12)" fill="#4dd0e1" stroke="#00897b" stroke-miterlimit="10" stroke-width="1"/>
    <path id="Trazado_110337" data-name="Trazado 110337" d="M8.824-5.836H1.781V-8.883H8.824Z" transform="translate(7551.568 1014.819)" fill="#12263f"/>
    <circle id="Elipse_4249" data-name="Elipse 4249" cx="18.265" cy="18.265" r="18.265" transform="translate(7538.579 1242.47)" fill="#fdd835" stroke="#00897b" stroke-miterlimit="10" stroke-width="1"/>
    <path id="Trazado_110334" data-name="Trazado 110334" d="M8.227-9.68h4v3.387h-4v4.582H4.535V-6.293H.527V-9.68H4.535v-4.453H8.227Z" transform="translate(7550.344 1269.236)" fill="#12263f"/>
  </g>
</svg>
