<svg xmlns="http://www.w3.org/2000/svg" xmlns:xlink="http://www.w3.org/1999/xlink" width="869" height="92" viewBox="0 0 869 92">
  <defs>
    <clipPath id="clip-path">
      <rect id="Rectángulo_5751" data-name="Rectángulo 5751" width="869" height="92" transform="translate(293 3003)" fill="#00897b" stroke="#00897b" stroke-width="1"/>
    </clipPath>
  </defs>
  <g id="Enmascarar_grupo_64" data-name="Enmascarar grupo 64" transform="translate(-293 -3003)" clip-path="url(#clip-path)">
    <g id="Grupo_16444" data-name="Grupo 16444" transform="translate(120.639 -2253.213)">
      <path id="Trazado_40611" data-name="Trazado 40611" d="M10.391-23.559a.367.367,0,0,1,.077.128,1.34,1.34,0,0,1,.009.2V-2.589q0,1.317.7,1.68A7.023,7.023,0,0,0,13.8-.48V0H4.132V-.514A5.666,5.666,0,0,0,6.841-1.08q.635-.463.635-2.006V-18.962a2.985,2.985,0,0,0-.205-1.252.887.887,0,0,0-.892-.428,3.7,3.7,0,0,0-1.157.248q-.712.248-1.329.527v-.48l6.291-3.211Zm15.894,7.39a6.2,6.2,0,0,1,3.7,1.106,3.059,3.059,0,0,1,1.552,2.426,1.647,1.647,0,0,1-.394,1.053,1.471,1.471,0,0,1-1.218.489,1.523,1.523,0,0,1-1.053-.412,2.384,2.384,0,0,1-.66-1.2L28-13.528a2.086,2.086,0,0,0-.772-1.286,2.744,2.744,0,0,0-1.492-.36,4.066,4.066,0,0,0-3.3,1.706A7.117,7.117,0,0,0,21.09-8.933a7.752,7.752,0,0,0,1.483,4.647,4.685,4.685,0,0,0,4,2.058,4.8,4.8,0,0,0,3.172-1.166,10.877,10.877,0,0,0,1.783-2.126l.48.291a13.592,13.592,0,0,1-2.058,3.258,6.3,6.3,0,0,1-4.8,2.3A6.431,6.431,0,0,1,20.42-1.781a7.849,7.849,0,0,1-2.058-5.726,8.934,8.934,0,0,1,2.247-6.1,7.232,7.232,0,0,1,5.676-2.557ZM41.459-16.2a4.87,4.87,0,0,1,2.3.549,5.486,5.486,0,0,1,1.317.995v-5.453a3.112,3.112,0,0,0-.232-1.441q-.227-.394-1.1-.394a3.305,3.305,0,0,0-.36.018q-.155.018-.686.068v-.566l1.4-.36q.772-.205,1.543-.428T47-23.644q.274-.088.909-.326l.1.034-.034,1.8q-.018.977-.034,2.015t-.018,2.049L47.889-4.064a3.182,3.182,0,0,0,.275,1.56q.274.446,1.457.446.189,0,.377-.009a2.824,2.824,0,0,0,.377-.043v.566L47.89-.686,45.2.326l-.119-.15V-1.931A8.954,8.954,0,0,1,43.414-.439a5.409,5.409,0,0,1-2.9.772,5.769,5.769,0,0,1-4.725-2.264,8.1,8.1,0,0,1-1.809-5.221,9.8,9.8,0,0,1,2.169-6.387A6.607,6.607,0,0,1,41.46-16.2Zm.635,14.677a2.992,2.992,0,0,0,2.16-.79,2.184,2.184,0,0,0,.823-1.492v-7.356a3.736,3.736,0,0,0-1.192-3.145,3.835,3.835,0,0,0-2.323-.917A3.765,3.765,0,0,0,38.2-13.315,8.686,8.686,0,0,0,37-8.6a9.481,9.481,0,0,0,1.275,4.916,4.156,4.156,0,0,0,3.818,2.161Zm36.161-5v2.4H60.521v-2.4Zm0-7.081v2.4H60.521v-2.4Z" transform="translate(369.59 5303.303)" fill="#00897b"/>
      <path id="Trazado_40550" data-name="Trazado 40550" d="M1813.71,326.573h119.831" transform="translate(-1323.599 4968.829)" fill="none" stroke="#00897b" stroke-width="1.756"/>
      <path id="Trazado_40562" data-name="Trazado 40562" d="M1749.546,287.068s-31.34,37.653,0,90.994" transform="translate(-1260.643 4969.707)" fill="none" stroke="#00897b" stroke-width="1.756"/>
      <path id="Trazado_40563" data-name="Trazado 40563" d="M1735.614,287.068s31.34,37.653,0,90.994" transform="translate(-1123.693 4969.707)" fill="none" stroke="#00897b" stroke-width="1.756"/>
      <path id="Trazado_40612" data-name="Trazado 40612" d="M-4.446-.226a64.148,64.148,0,0,0,4.9-5.5A5.8,5.8,0,0,0,1.745-9.152a2.956,2.956,0,0,0-.79-2.223,2.612,2.612,0,0,0-1.883-.764,2.735,2.735,0,0,0-2.188.989A5.721,5.721,0,0,0-4-9.481l-.424-.088a5.149,5.149,0,0,1,1.668-3.15,4.139,4.139,0,0,1,2.533-.888,3.609,3.609,0,0,1,2.7,1.053A3.527,3.527,0,0,1,3.5-9.985,5.156,5.156,0,0,1,2.386-6.872,67.084,67.084,0,0,1-2.458-1.538H2.07A2.809,2.809,0,0,0,3.4-1.765a2.957,2.957,0,0,0,.867-1.1l.256.119L3.431,0H-4.446Z" transform="translate(733.034 5278.722)" fill="#00897b"/>
      <path id="Trazado_40613" data-name="Trazado 40613" d="M-9.91-7.8a8.832,8.832,0,0,1-2.015,5.658A6.394,6.394,0,0,1-17.164.377a7.233,7.233,0,0,1-5.5-2.829,11.016,11.016,0,0,1-2.477-7.527,13.532,13.532,0,0,1,4.8-10.388A14.513,14.513,0,0,1-10.7-24l.088.566a16.943,16.943,0,0,0-3.7,1.068,8.954,8.954,0,0,0-2.769,1.894,14.671,14.671,0,0,0-2.349,3.138,13.287,13.287,0,0,0-1.509,3.775,12.6,12.6,0,0,1,1.835-.96,7.38,7.38,0,0,1,2.761-.549,6.161,6.161,0,0,1,4.577,1.884A7.365,7.365,0,0,1-9.91-7.8Zm-3.138,1.317a10.647,10.647,0,0,0-.72-4.046,4.174,4.174,0,0,0-4.08-2.949q-2.657,0-3.532,1.58a6.76,6.76,0,0,0-.514,3.087A13.315,13.315,0,0,0-20.7-3.344a3.943,3.943,0,0,0,3.76,2.675,3.122,3.122,0,0,0,2.966-1.74,8.546,8.546,0,0,0,.929-4.073Zm13.1,5.9a3.863,3.863,0,0,0,2.985-1.1,3.893,3.893,0,0,0,1.01-2.743A4.277,4.277,0,0,0,2.975-7.45a31.794,31.794,0,0,0-4.4-3.506,5.476,5.476,0,0,0-2.143,2.4,6.878,6.878,0,0,0-.669,2.85A5.5,5.5,0,0,0-3.026-1.972,3.9,3.9,0,0,0,.052-.583Zm.223-13.1a11.268,11.268,0,0,0,2.229-1.9,4.925,4.925,0,0,0,1.063-3.189,4.046,4.046,0,0,0-1-2.769A3.842,3.842,0,0,0-.48-22.685a3.6,3.6,0,0,0-2.606.995,3.237,3.237,0,0,0-1.029,2.418,4.457,4.457,0,0,0,1.209,2.992,13.878,13.878,0,0,0,3.181,2.6ZM-2.37-11.693a19.373,19.373,0,0,1-3.087-2.9,5.817,5.817,0,0,1-1.269-3.635,4.842,4.842,0,0,1,1.878-3.841,7.327,7.327,0,0,1,4.878-1.58A6.248,6.248,0,0,1,4.42-22.154a4.569,4.569,0,0,1,1.628,3.463,4.878,4.878,0,0,1-1.659,3.6,15.832,15.832,0,0,1-3.1,2.1A22.393,22.393,0,0,1,5.461-9.229a5.936,5.936,0,0,1,1.26,3.777A5.37,5.37,0,0,1,4.861-1.3,7.149,7.149,0,0,1-.12.377a7.578,7.578,0,0,1-4.8-1.552A4.928,4.928,0,0,1-6.91-5.267,5.817,5.817,0,0,1-5.521-9.108,15.762,15.762,0,0,1-2.37-11.693ZM11.5-2.985A5.154,5.154,0,0,1,14-2.008a5.237,5.237,0,0,0,2.634.977A4.1,4.1,0,0,0,20.2-2.651a5.908,5.908,0,0,0,1.166-3.524,5.6,5.6,0,0,0-.945-3.218q-1.594-2.349-5.384-2.349-.223,0-.428.009t-.48.043l-.034-.446a14.859,14.859,0,0,0,4.321-2.283A4.164,4.164,0,0,0,20-17.814a3.4,3.4,0,0,0-1.243-2.846,4.467,4.467,0,0,0-2.837-.977,4.653,4.653,0,0,0-3.326,1.389,10.615,10.615,0,0,0-1.7,2.331l-.531-.12A7.868,7.868,0,0,1,12.909-22.2a6.544,6.544,0,0,1,4.321-1.56,5.465,5.465,0,0,1,4.055,1.441A4.582,4.582,0,0,1,22.717-19a4.6,4.6,0,0,1-1.183,3.052,10.974,10.974,0,0,1-2.074,1.766A8.855,8.855,0,0,1,22.1-12.533a6.063,6.063,0,0,1,1.869,4.565,7.777,7.777,0,0,1-2.563,5.744Q18.844.257,14.111.257a5.18,5.18,0,0,1-2.958-.626A1.724,1.724,0,0,1,10.3-1.715a1.492,1.492,0,0,1,.283-.858A1.033,1.033,0,0,1,11.5-2.985Z" transform="translate(550.434 5339.296)" fill="#00897b"/>
      <path id="Trazado_40614" data-name="Trazado 40614" d="M-12.045-.635A4.331,4.331,0,0,0-9.388-1.4a4.88,4.88,0,0,0,.514-2.821V-19.427a3.6,3.6,0,0,0-.574-2.458,4.477,4.477,0,0,0-2.6-.694v-.651H-2.031v.651a4.408,4.408,0,0,0-2.657.686,3.569,3.569,0,0,0-.6,2.469v7.2q3.24-2.76,5.3-4.7Q3.7-20.435,3.7-21.433a.891.891,0,0,0-.623-.926A5.517,5.517,0,0,0,1.3-22.582v-.651h9.186v.566A7.585,7.585,0,0,0,7.835-22a12.88,12.88,0,0,0-2.684,2.177L-1.52-13.289,6.661-4.458a30.558,30.558,0,0,0,3.1,3.06,5.07,5.07,0,0,0,2.418.8V0H1.449V-.635A7.879,7.879,0,0,0,3.424-.866a.7.7,0,0,0,.511-.715A2.142,2.142,0,0,0,3.6-2.469a7.8,7.8,0,0,0-1.053-1.39l-6.653-7.3L-5.29-10.151v6.344A3.482,3.482,0,0,0-4.7-1.329a4.9,4.9,0,0,0,2.58.694V0h-9.927Z" transform="translate(547.8 5279.6)" fill="#00897b"/>
      <path id="Trazado_40615" data-name="Trazado 40615" d="M-81.384-.48a4.214,4.214,0,0,0,2.169-.549,2.391,2.391,0,0,0,.527-1.851v-17.18q0-1.218-.412-1.543a1.869,1.869,0,0,0-1.183-.326q-.326,0-.566.018t-.531.052v-.48l1.543-.412q1.766-.463,3-.878a5.287,5.287,0,0,1,.878-.257q.1,0,.128.043a.465.465,0,0,1,.025.2v14.42l4.749-4.184a4.364,4.364,0,0,0,.694-.737.915.915,0,0,0,.18-.48.47.47,0,0,0-.385-.5,7.761,7.761,0,0,0-1.38-.155v-.48h7.15v.48a7.358,7.358,0,0,0-3.087.763,31.929,31.929,0,0,0-4.477,3.677l-1.011.926,3.167,4.119A30.2,30.2,0,0,0-66.536-1.6,4.665,4.665,0,0,0-63.91-.446V0h-7.63V-.48l.6-.034a1.574,1.574,0,0,0,.531-.12.351.351,0,0,0,.24-.343.743.743,0,0,0-.088-.351A2.823,2.823,0,0,0-70.5-1.7l-5.316-6.993v6.344a1.555,1.555,0,0,0,.878,1.58,4.731,4.731,0,0,0,1.766.257V0H-81.38Zm20.936,3.652a2.031,2.031,0,0,0,1.621,1.989,11.556,11.556,0,0,0,3.713.549,9.525,9.525,0,0,0,4.628-.986A2.841,2.841,0,0,0-48.7,2.3q0-1.149-1.441-1.526A17.6,17.6,0,0,0-53.522.514Q-54.157.5-54.859.471t-1.286-.06q-.377-.018-1.218-.137T-58.615.068q-.205,0-1.011,1.08a3.469,3.469,0,0,0-.823,2.024Zm2.229-8.933A4.489,4.489,0,0,1-60.646-7.6a5.29,5.29,0,0,1-.866-2.966,5.674,5.674,0,0,1,1.594-3.807,5.706,5.706,0,0,1,4.51-1.8,7.631,7.631,0,0,1,2.761.592,7.929,7.929,0,0,0,2.9.592q.36,0,1.089-.025t1.053-.025h.205v1.389h-2.966q.309.72.48,1.252a6.711,6.711,0,0,1,.291,1.886,5.022,5.022,0,0,1-1.619,3.592A5.863,5.863,0,0,1-55.58-5.281a13.4,13.4,0,0,1-1.543-.155q-.5,0-1.312.84a2.311,2.311,0,0,0-.815,1.372q0,.549,1.2.806a8.252,8.252,0,0,0,1.749.176,23.482,23.482,0,0,1,5.984.5,3.336,3.336,0,0,1,2.589,3.463q0,2.709-3.026,4.321a12.883,12.883,0,0,1-6.113,1.612A7.71,7.71,0,0,1-61.325,6.51a3.1,3.1,0,0,1-1.646-2.392,2.019,2.019,0,0,1,.439-1.209,14.266,14.266,0,0,1,1.723-1.756L-59.678.137l.205-.205a5.316,5.316,0,0,1-1.183-.6,1.528,1.528,0,0,1-.686-1.218,2.361,2.361,0,0,1,.592-1.4,22.681,22.681,0,0,1,2.53-2.477Zm3.258-.343a2.424,2.424,0,0,0,1.58-.514,3.476,3.476,0,0,0,1.025-2.862,9.861,9.861,0,0,0-.831-3.67,2.857,2.857,0,0,0-2.769-2.037,2.311,2.311,0,0,0-2.315,1.594,5.769,5.769,0,0,0-.326,2.074,7.082,7.082,0,0,0,1.008,3.751A3,3,0,0,0-54.962-6.1ZM-36.993-.446A3.92,3.92,0,0,0-35.21-.892a2.338,2.338,0,0,0,.686-1.989v-8.867a2.79,2.79,0,0,0-.334-1.664,1.377,1.377,0,0,0-1.106-.394,3.129,3.129,0,0,0-.54.034,2.879,2.879,0,0,0-.421.12v-.6l1.234-.412q.669-.223,2.195-.806t1.612-.583a.1.1,0,0,1,.1.088,2,2,0,0,1,.018.326v2.315a13.081,13.081,0,0,1,2.932-2.135,5.811,5.811,0,0,1,2.538-.592,3.541,3.541,0,0,1,2.809,1.2,5.21,5.21,0,0,1,.912,1.77,14.3,14.3,0,0,1,2.212-1.9,6.021,6.021,0,0,1,3.33-1.065A3.6,3.6,0,0,1-13.344-13.8a11.125,11.125,0,0,1,.531,4.012v7.115a2.05,2.05,0,0,0,.54,1.655,3.8,3.8,0,0,0,1.946.574V0H-18.06V-.48a3.38,3.38,0,0,0,1.959-.6,2.711,2.711,0,0,0,.474-1.887v-7.393a6.246,6.246,0,0,0-.36-2.452,2.458,2.458,0,0,0-2.486-1.4,3.936,3.936,0,0,0-2.212.737,10.955,10.955,0,0,0-1.56,1.372v8.779a3.76,3.76,0,0,0,.489,2.107,2.471,2.471,0,0,0,2.067.772V0h-7.876V-.446a3.14,3.14,0,0,0,2.074-.79A5.625,5.625,0,0,0-25.045-4.1V-8.9a12.856,12.856,0,0,0-.343-3.635,2.3,2.3,0,0,0-2.4-1.68,4.126,4.126,0,0,0-2.058.574,6.464,6.464,0,0,0-1.783,1.5v9.381a2.7,2.7,0,0,0,.455,1.8,2.809,2.809,0,0,0,1.981.514V0H-37ZM9.13-5.4H9.7a8.954,8.954,0,0,0,1.063,3A3.891,3.891,0,0,0,14.271-.479,2.822,2.822,0,0,0,16.3-1.191a2.433,2.433,0,0,0,.746-1.844,2.538,2.538,0,0,0-.428-1.389,4.4,4.4,0,0,0-1.509-1.3l-1.92-1.1a10.947,10.947,0,0,1-3.1-2.282,4.007,4.007,0,0,1-.995-2.709,4.055,4.055,0,0,1,1.372-3.155A4.958,4.958,0,0,1,13.912-16.2a6.7,6.7,0,0,1,2,.343,9.256,9.256,0,0,0,1.229.343.878.878,0,0,0,.446-.088.718.718,0,0,0,.24-.274h.412l.12,4.784h-.535a7.932,7.932,0,0,0-.926-2.589A3.4,3.4,0,0,0,13.822-15.4a2.449,2.449,0,0,0-1.886.737,2.458,2.458,0,0,0-.686,1.732q0,1.58,2.37,2.809L15.89-8.9Q19.542-6.91,19.542-4.27A4.14,4.14,0,0,1,18.024-.96,5.929,5.929,0,0,1,14.051.326,9.273,9.273,0,0,1,11.72-.018,10.529,10.529,0,0,0,10.176-.36a.508.508,0,0,0-.36.146,1.012,1.012,0,0,0-.24.351H9.13Zm48.781,0h.566a8.954,8.954,0,0,0,1.063,3A3.891,3.891,0,0,0,63.051-.479a2.822,2.822,0,0,0,2.031-.712,2.433,2.433,0,0,0,.746-1.844A2.538,2.538,0,0,0,65.4-4.424a4.4,4.4,0,0,0-1.509-1.3l-1.915-1.1a10.947,10.947,0,0,1-3.1-2.282,4.007,4.007,0,0,1-.995-2.709,4.055,4.055,0,0,1,1.372-3.155A4.958,4.958,0,0,1,62.7-16.2a6.7,6.7,0,0,1,2,.343,9.256,9.256,0,0,0,1.229.343.878.878,0,0,0,.446-.088.718.718,0,0,0,.24-.274h.412l.12,4.784h-.531a7.932,7.932,0,0,0-.926-2.589A3.4,3.4,0,0,0,62.613-15.4a2.449,2.449,0,0,0-1.886.737,2.458,2.458,0,0,0-.686,1.732q0,1.58,2.37,2.809L64.676-8.9q3.652,1.989,3.652,4.629A4.14,4.14,0,0,1,66.81-.965,5.929,5.929,0,0,1,62.832.326,9.273,9.273,0,0,1,60.5-.018,10.529,10.529,0,0,0,58.957-.36a.508.508,0,0,0-.36.146,1.012,1.012,0,0,0-.24.351h-.446Zm12,4.835a4.151,4.151,0,0,0,2.092-.557,2.3,2.3,0,0,0,.514-1.792v-7.733a6.62,6.62,0,0,0-.317-2.426,1.156,1.156,0,0,0-1.157-.729,3.187,3.187,0,0,0-.455.043q-.283.043-.592.111v-.566l2.006-.7q1.029-.36,1.423-.514.858-.326,1.766-.737.12,0,.146.088a1.562,1.562,0,0,1,.025.36v2.809A13.1,13.1,0,0,1,77.484-15.3a3.262,3.262,0,0,1,2.117-.858,1.978,1.978,0,0,1,1.423.527,1.736,1.736,0,0,1,.549,1.312,1.733,1.733,0,0,1-.421,1.183,1.342,1.342,0,0,1-1.053.48,1.973,1.973,0,0,1-1.312-.6,1.855,1.855,0,0,0-1.038-.6q-.6,0-1.475.966a2.972,2.972,0,0,0-.878,2v7.733a2.562,2.562,0,0,0,.689,2.051,3.444,3.444,0,0,0,2.282.54V0H69.914Z" transform="translate(739.179 5303.303)" fill="#00897b"/>
      <path id="Trazado_40616" data-name="Trazado 40616" d="M-7.621-5.186h4.959v1.262H-7.621Zm7.5,3.47a2.964,2.964,0,0,1,1.434.562,3.011,3.011,0,0,0,1.513.562A2.358,2.358,0,0,0,4.88-1.523a3.4,3.4,0,0,0,.671-2.026A3.22,3.22,0,0,0,5.008-5.4a3.467,3.467,0,0,0-3.1-1.351q-.128,0-.247.005t-.276.025L1.371-6.98A8.544,8.544,0,0,0,3.856-8.292a2.394,2.394,0,0,0,.907-1.952,1.957,1.957,0,0,0-.715-1.636,2.569,2.569,0,0,0-1.632-.562,2.674,2.674,0,0,0-1.913.8A6.1,6.1,0,0,0-.473-10.3l-.306-.069A4.524,4.524,0,0,1,.69-12.767a3.763,3.763,0,0,1,2.484-.9,3.143,3.143,0,0,1,2.332.828,2.634,2.634,0,0,1,.823,1.913,2.647,2.647,0,0,1-.68,1.756A6.308,6.308,0,0,1,4.456-8.154a5.092,5.092,0,0,1,1.519.947A3.486,3.486,0,0,1,7.049-4.584a4.472,4.472,0,0,1-1.474,3.3A5.78,5.78,0,0,1,1.38.147,2.976,2.976,0,0,1-.32-.212.991.991,0,0,1-.809-.986a.858.858,0,0,1,.162-.493.594.594,0,0,1,.528-.236Z" transform="translate(767.271 5278.722)" fill="#00897b"/>
      <path id="Trazado_40617" data-name="Trazado 40617" d="M-7.621-5.186h4.959v1.262H-7.621ZM4.288-13.547a.211.211,0,0,1,.045.074.771.771,0,0,1,.005.113V-1.492q0,.759.4.966a4.038,4.038,0,0,0,1.508.251V0H.69V-.3A3.258,3.258,0,0,0,2.248-.622q.365-.263.365-1.154v-9.13a1.718,1.718,0,0,0-.119-.72.51.51,0,0,0-.513-.247,2.128,2.128,0,0,0-.665.143q-.409.143-.764.3V-11.7l3.619-1.844Z" transform="translate(833.991 5278.722)" fill="#00897b"/>
      <path id="Trazado_40618" data-name="Trazado 40618" d="M-4.511-9.3a3.564,3.564,0,0,1,2.124.636,1.756,1.756,0,0,1,.894,1.395.947.947,0,0,1-.226.607.846.846,0,0,1-.7.281.878.878,0,0,1-.607-.237,1.371,1.371,0,0,1-.379-.69l-.119-.473a1.2,1.2,0,0,0-.442-.737,1.58,1.58,0,0,0-.86-.21,2.338,2.338,0,0,0-1.9.981A4.092,4.092,0,0,0-7.5-5.137a4.457,4.457,0,0,0,.852,2.671,2.694,2.694,0,0,0,2.3,1.184,2.757,2.757,0,0,0,1.824-.671A6.254,6.254,0,0,0-1.492-3.174l.276.168A7.813,7.813,0,0,1-2.4-1.134,3.625,3.625,0,0,1-5.161.187,3.7,3.7,0,0,1-7.883-1.025,4.513,4.513,0,0,1-9.066-4.318,5.137,5.137,0,0,1-7.775-7.83,4.159,4.159,0,0,1-4.511-9.3Zm8.724-.02A2.8,2.8,0,0,1,5.531-9a3.154,3.154,0,0,1,.759.572v-3.135a1.789,1.789,0,0,0-.133-.828q-.133-.226-.636-.226a1.9,1.9,0,0,0-.207.01l-.394.04V-12.9l.809-.207q.443-.119.888-.247t.779-.247q.158-.049.527-.187l.059.019-.018,1.035q-.01.562-.019,1.159t-.01,1.178L7.911-2.337a1.83,1.83,0,0,0,.158.9q.158.256.838.256.109,0,.217-.005a1.623,1.623,0,0,0,.217-.025v.326l-1.43.493L6.364.187,6.294.1V-1.114a5.147,5.147,0,0,1-.956.858A3.11,3.11,0,0,1,3.67.187a3.318,3.318,0,0,1-2.714-1.3,4.659,4.659,0,0,1-1.044-3A5.636,5.636,0,0,1,1.163-7.783,3.8,3.8,0,0,1,4.214-9.317ZM4.58-.878a1.721,1.721,0,0,0,1.242-.454A1.255,1.255,0,0,0,6.3-2.189V-6.418A2.148,2.148,0,0,0,5.61-8.228a2.205,2.205,0,0,0-1.336-.527,2.165,2.165,0,0,0-1.931,1.1,4.994,4.994,0,0,0-.69,2.707,5.453,5.453,0,0,0,.735,2.829A2.39,2.39,0,0,0,4.58-.878Z" transform="translate(578.526 5278.722)" fill="#00897b"/>
    </g>
  </g>
</svg>
