<svg xmlns="http://www.w3.org/2000/svg" xmlns:xlink="http://www.w3.org/1999/xlink" width="190" height="160" viewBox="0 0 190 160">
  <defs>
    <clipPath id="clip-path">
      <rect id="Rectángulo_5518" data-name="Rectángulo 5518" width="190" height="160" transform="translate(180 4159)" fill="#26a69a"/>
    </clipPath>
  </defs>
  <g id="Enmascarar_grupo_45" data-name="Enmascarar grupo 45" transform="translate(-180 -4159)" clip-path="url(#clip-path)">
    <g id="Grupo_59823" data-name="Grupo 59823" transform="translate(47.69 4017.486)">
      <g id="Grupo_59767" data-name="Grupo 59767" transform="translate(186.691 290.211)">
        <path id="Trazado_103769" data-name="Trazado 103769" d="M213.735,422.6l-3.57-50.948,3.635-31.93s30.29,3.962,67.366-4.661l.969,44.981-2.186,26.394c-17.778,5.805-34.917,13.547-54.127,15.476C221.8,422.32,217.767,422.541,213.735,422.6Z" transform="translate(-209.77 -334.682)" fill="#263238"/>
        <path id="Trazado_103770" data-name="Trazado 103770" d="M213.631,422.867h.006c4.119-.063,8.2-.295,12.122-.689,14.491-1.456,28-6.274,41.061-10.935,4.3-1.534,8.744-3.12,13.152-4.56a.386.386,0,0,0,.269-.331l2.186-26.393-.968-45.021a.38.38,0,0,0-.155-.3.418.418,0,0,0-.336-.069c-36.58,8.509-66.916,4.695-67.218,4.655a.4.4,0,0,0-.3.078.377.377,0,0,0-.151.258l-3.635,31.93,3.568,51.014A.392.392,0,0,0,213.631,422.867Zm65.839-16.826c-4.337,1.421-8.7,2.978-12.925,4.486-13.017,4.644-26.476,9.446-40.867,10.891-3.783.381-7.708.608-11.675.679l-3.544-50.585,3.589-31.477c3.713.419,32.407,3.264,66.628-4.606l.958,44.507Z" transform="translate(-209.667 -334.564)" fill="#263238"/>
      </g>
      <g id="Grupo_59779" data-name="Grupo 59779" transform="translate(189.656 290.211)">
        <g id="Grupo_59768" data-name="Grupo 59768">
          <path id="Trazado_103771" data-name="Trazado 103771" d="M211.91,339.725s30.29,3.962,67.365-4.661l.113,5.266c-3.042,2.158-10.977,6.44-27.98,8.485a108.671,108.671,0,0,1-40.165-3.229Z" transform="translate(-210.845 -334.682)" fill="#707070"/>
          <path id="Trazado_103772" data-name="Trazado 103772" d="M240.081,349.734a94.636,94.636,0,0,0,11.274-.658c16.871-2.029,24.889-6.232,28.167-8.557a.375.375,0,0,0,.161-.316l-.113-5.266a.38.38,0,0,0-.155-.3.418.418,0,0,0-.336-.069c-36.569,8.506-66.916,4.694-67.218,4.654a.407.407,0,0,0-.3.078.378.378,0,0,0-.151.258l-.667,5.862a.383.383,0,0,0,.286.409A113.06,113.06,0,0,0,240.081,349.734Zm38.8-9.713c-3.317,2.3-11.216,6.323-27.628,8.3-17.512,2.106-33.362-1.411-39.685-3.128l.587-5.156c3.717.42,32.41,3.264,66.628-4.605Z" transform="translate(-210.743 -334.564)" fill="#263238"/>
        </g>
        <g id="Grupo_59769" data-name="Grupo 59769" transform="translate(16.661 1.97)">
          <path id="Trazado_103773" data-name="Trazado 103773" d="M227.315,349.757q-2.056-.16-3.988-.383v-8.145a221.136,221.136,0,0,0,41.884-3.587l-.933,2.691v5.49q-1.583.508-3.425,1l-.21-6.255-33.682,2.564Z" transform="translate(-222.93 -337.26)" fill="#263238"/>
          <path id="Trazado_103774" data-name="Trazado 103774" d="M227.212,350.021a.4.4,0,0,0,.277-.108.371.371,0,0,0,.12-.293l-.334-6.257,32.882-2.5.2,5.856a.38.38,0,0,0,.161.295.4.4,0,0,0,.342.06c1.208-.321,2.368-.659,3.444-1a.384.384,0,0,0,.272-.362v-5.429l.911-2.631a.37.37,0,0,0-.077-.373.412.412,0,0,0-.373-.124,222.048,222.048,0,0,1-41.806,3.58.431.431,0,0,0-.284.11.376.376,0,0,0-.118.272v8.145a.387.387,0,0,0,.351.379c1.321.151,2.668.28,4,.384Zm33.329-9.954-.031,0-33.683,2.563a.387.387,0,0,0-.365.4l.33,6.19c-1.058-.086-2.121-.189-3.171-.306V341.5a222.79,222.79,0,0,0,40.9-3.476l-.719,2.073a.367.367,0,0,0-.02.121v5.214c-.84.264-1.727.525-2.648.776l-.193-5.769a.382.382,0,0,0-.132-.272A.408.408,0,0,0,260.541,340.067Z" transform="translate(-222.827 -337.143)" fill="#263238"/>
        </g>
        <g id="Grupo_59770" data-name="Grupo 59770" transform="translate(32.654 7.225)">
          <path id="Trazado_103775" data-name="Trazado 103775" d="M252.426,350.178q-2.784.477-5.979.867c-2.488.3-4.938.483-7.332.578l-.18-5.007,13.085-2.1Z" transform="translate(-238.538 -344.137)" fill="#fff"/>
          <path id="Trazado_103776" data-name="Trazado 103776" d="M239.012,351.887h.016c2.521-.1,5-.3,7.366-.582,2.062-.248,4.08-.54,6-.87a.385.385,0,0,0,.327-.4l-.406-5.66a.38.38,0,0,0-.15-.274.414.414,0,0,0-.311-.077l-13.085,2.1a.385.385,0,0,0-.332.39l.18,5.007a.375.375,0,0,0,.127.267A.409.409,0,0,0,239.012,351.887Zm12.89-2.143c-1.8.3-3.685.572-5.607.8-2.22.267-4.539.455-6.9.559l-.153-4.287,12.31-1.973Z" transform="translate(-238.435 -344.019)" fill="#263238"/>
        </g>
        <g id="Grupo_59778" data-name="Grupo 59778" transform="translate(10.118 12.119)">
          <g id="Grupo_59771" data-name="Grupo 59771" transform="translate(44.83)">
            <path id="Trazado_103777" data-name="Trazado 103777" d="M224.744,361.909a.393.393,0,0,0,.39-.312.382.382,0,0,0-.318-.445c-6.274-1.118-11.3-10.427-11.351-10.52a.4.4,0,0,0-.534-.166.374.374,0,0,0-.172.513c.211.4,5.254,9.737,11.912,10.923A.4.4,0,0,0,224.744,361.909Z" transform="translate(-212.715 -350.424)" fill="#858585"/>
          </g>
          <g id="Grupo_59772" data-name="Grupo 59772" transform="translate(0 17.365)">
            <path id="Trazado_103778" data-name="Trazado 103778" d="M282.155,375.193a.405.405,0,0,0,.233-.073,16.482,16.482,0,0,0,1.647-1.311.372.372,0,0,0,.017-.54.409.409,0,0,0-.562-.017,15.7,15.7,0,0,1-1.568,1.249.373.373,0,0,0-.09.533A.4.4,0,0,0,282.155,375.193Z" transform="translate(-281.758 -373.149)" fill="#858585"/>
          </g>
          <g id="Grupo_59773" data-name="Grupo 59773" transform="translate(3.597 4.427)">
            <path id="Trazado_103779" data-name="Trazado 103779" d="M273.808,367.789a.4.4,0,0,0,.316-.15,24.647,24.647,0,0,0,4.72-10.992.385.385,0,0,0-.345-.426.393.393,0,0,0-.443.331,24.361,24.361,0,0,1-4.564,10.623.373.373,0,0,0,.074.536A.409.409,0,0,0,273.808,367.789Z" transform="translate(-273.411 -356.218)" fill="#858585"/>
          </g>
          <g id="Grupo_59774" data-name="Grupo 59774" transform="translate(23.226 65.323)">
            <path id="Trazado_103780" data-name="Trazado 103780" d="M254.937,440.679a.389.389,0,0,0,.4-.381l.006-4a.39.39,0,0,0-.4-.383h0a.39.39,0,0,0-.4.381l-.006,4a.39.39,0,0,0,.4.383Z" transform="translate(-254.54 -435.91)" fill="#858585"/>
          </g>
          <g id="Grupo_59775" data-name="Grupo 59775" transform="translate(23.236 34.493)">
            <path id="Trazado_103781" data-name="Trazado 103781" d="M242.7,424.245a.39.39,0,0,0,.4-.381l.027-19.586,9.557-8.044a.372.372,0,0,0,.038-.539.408.408,0,0,0-.561-.036l-9.693,8.157a.377.377,0,0,0-.136.287l-.027,19.76a.39.39,0,0,0,.4.383Z" transform="translate(-242.301 -395.564)" fill="#858585"/>
          </g>
          <g id="Grupo_59776" data-name="Grupo 59776" transform="translate(27.14 11.439)">
            <path id="Trazado_103782" data-name="Trazado 103782" d="M242.753,386.649a.4.4,0,0,0,.241-.079l5.089-3.728a.377.377,0,0,0,.157-.289l.683-16.762a.388.388,0,0,0-.381-.4.4.4,0,0,0-.412.367l-.676,16.582-4.28,3.137.462-16.682a.4.4,0,0,0-.794-.021l-.485,17.48a.38.38,0,0,0,.216.351A.419.419,0,0,0,242.753,386.649Z" transform="translate(-242.356 -365.394)" fill="#858585"/>
          </g>
          <g id="Grupo_59777" data-name="Grupo 59777" transform="translate(33.075 4.428)">
            <path id="Trazado_103783" data-name="Trazado 103783" d="M242.393,359.994a.39.39,0,0,0,.4-.367l.123-3.012a.388.388,0,0,0-.381-.4.417.417,0,0,0-.412.367L242,359.6a.389.389,0,0,0,.381.4Z" transform="translate(-241.996 -356.219)" fill="#858585"/>
          </g>
        </g>
      </g>
      <g id="Grupo_59790" data-name="Grupo 59790" transform="translate(158.988 189.088)">
        <g id="Grupo_59780" data-name="Grupo 59780">
          <path id="Trazado_103784" data-name="Trazado 103784" d="M220.048,216.915s27.522.828,29.458,2.068,18.061,8.893,18.061,8.893-5.59-10.754-5.59-15.1,3.44-7.032,9.676-9.306,14.836,1.035,16.556,5.584S298.1,241.732,298.96,249.8s-10.321,15.1-15.051,14.684-28.813-8.893-28.813-8.893,1.72,45.5,1.72,46.739a3.788,3.788,0,0,1-2.58,4.136c-2.58,1.034-14.837,7.032-29.673,8.273s-31.608-1.655-33.758-1.861-4.085-4.55-4.085-6.411S185,290.333,185,290.333l-3.226,12.615s-2.15,2.275-9.03,2.9-12.256-2.688-13.762-6-1.5-4.136-1.5-4.136,13.977-51.288,15.051-55.838.86-4.55,3.87-7.858,22.578-10.754,27.953-12.2S220.048,216.915,220.048,216.915Z" transform="translate(-157.08 -202.348)" fill="#4dd0e1"/>
          <path id="Trazado_103785" data-name="Trazado 103785" d="M216.536,315.308c2.65,0,5.332-.091,7.96-.311,13.207-1.1,24.352-5.947,28.547-7.77.533-.232.952-.413,1.244-.531a4.161,4.161,0,0,0,2.824-4.489c0-1.173-1.491-40.7-1.7-46.185,3.719,1.3,23.976,8.336,28.358,8.72,2.961.245,7.759-2.056,11.178-5.384,3.121-3.036,4.649-6.488,4.3-9.719-.855-8.019-8.982-36.1-10.772-40.833-.757-2-2.814-3.866-5.644-5.113a15.751,15.751,0,0,0-11.426-.7c-6.963,2.54-9.933,5.43-9.933,9.663,0,3.64,3.725,11.458,5.12,14.259-3.6-1.716-15.367-7.342-16.974-8.372-1.973-1.265-26.837-2.048-29.666-2.133a.359.359,0,0,0-.07,0c-.1.014-10.408,1.468-15.746,2.906S179.074,228.26,176,231.642c-2.749,3.021-2.877,3.364-3.7,6.932l-.254,1.094c-1.062,4.492-14.909,55.312-15.049,55.825a.4.4,0,0,0-.013.1c0,.092.044,1,1.538,4.29,1.589,3.493,7.087,6.864,14.163,6.225,6.953-.627,9.2-2.921,9.288-3.019a.371.371,0,0,0,.091-.166l2.7-10.547c.477,4.042,1.465,12.585,1.465,13.972,0,1.846,1.923,6.549,4.443,6.792.307.03.912.115,1.768.234A177.1,177.1,0,0,0,216.536,315.308Zm38.458-60.221a.409.409,0,0,0-.234.073.378.378,0,0,0-.163.323c.017.455,1.719,45.5,1.719,46.724a3.429,3.429,0,0,1-2.335,3.783c-.3.119-.724.3-1.266.54-4.162,1.808-15.218,6.611-28.288,7.7-12.659,1.059-26.625-.889-31.883-1.623-.872-.122-1.49-.208-1.8-.238-1.856-.179-3.728-4.249-3.728-6.032,0-1.861-1.652-15.591-1.722-16.174a.392.392,0,0,0-.369-.338.381.381,0,0,0-.411.29l-3.2,12.509c-.4.354-2.734,2.173-8.71,2.712-6.448.586-11.862-2.477-13.361-5.77a16.835,16.835,0,0,1-1.467-3.95c.563-2.064,13.99-51.356,15.037-55.788l.257-1.1c.8-3.443.845-3.65,3.525-6.6,2.929-3.219,22.637-10.7,27.762-12.085s14.951-2.787,15.612-2.881c11.018.332,27.865,1.138,29.214,2,1.935,1.24,17.447,8.6,18.106,8.917a.41.41,0,0,0,.458-.073.371.371,0,0,0,.073-.44c-.055-.107-5.548-10.723-5.548-14.927,0-3.864,2.816-6.54,9.419-8.95a15.14,15.14,0,0,1,10.815.679c2.638,1.163,4.544,2.869,5.228,4.68,1.784,4.716,9.879,32.674,10.729,40.649.32,3-1.128,6.233-4.079,9.1-3.589,3.491-8.174,5.37-10.541,5.159-4.625-.4-28.471-8.786-28.712-8.871A.4.4,0,0,0,254.995,255.087Z" transform="translate(-156.979 -202.229)" fill="#263238"/>
        </g>
        <g id="Grupo_59783" data-name="Grupo 59783" transform="translate(110.09 25.146)">
          <g id="Grupo_59781" data-name="Grupo 59781" transform="translate(0)">
            <path id="Trazado_103786" data-name="Trazado 103786" d="M194.611,260.1a.407.407,0,0,0,.134-.023.378.378,0,0,0,.24-.488l-9.031-24.2a.4.4,0,0,0-.508-.23.378.378,0,0,0-.24.488l9.032,24.2A.4.4,0,0,0,194.611,260.1Z" transform="translate(-185.183 -235.136)" fill="#263238"/>
          </g>
          <g id="Grupo_59782" data-name="Grupo 59782" transform="translate(3.551 10.341)">
            <path id="Trazado_103787" data-name="Trazado 103787" d="M192.339,261.221a.378.378,0,0,0,.059,0,.384.384,0,0,0,.334-.434,61.992,61.992,0,0,1-.427-11.707.388.388,0,0,0-.37-.407.393.393,0,0,0-.423.356,62.9,62.9,0,0,0,.434,11.869A.394.394,0,0,0,192.339,261.221Z" transform="translate(-191.407 -248.668)" fill="#263238"/>
          </g>
        </g>
        <g id="Grupo_59786" data-name="Grupo 59786" transform="translate(96.974 30.316)">
          <g id="Grupo_59784" data-name="Grupo 59784" transform="translate(0)">
            <path id="Trazado_103788" data-name="Trazado 103788" d="M213.289,265.208h.011a.388.388,0,0,0,.386-.392l-.645-22.542a.4.4,0,0,0-.408-.372.39.39,0,0,0-.387.393l.645,22.542A.39.39,0,0,0,213.289,265.208Z" transform="translate(-212.247 -241.902)" fill="#263238"/>
          </g>
          <g id="Grupo_59785" data-name="Grupo 59785" transform="translate(0.646 2.482)">
            <path id="Trazado_103789" data-name="Trazado 103789" d="M207.23,262.045a.4.4,0,0,0,.367-.236c.037-.085,3.686-8.623,4.33-16.246a.388.388,0,0,0-.364-.412.4.4,0,0,0-.429.35c-.632,7.5-4.235,15.932-4.27,16.016a.377.377,0,0,0,.214.5A.409.409,0,0,0,207.23,262.045Z" transform="translate(-206.833 -245.15)" fill="#263238"/>
          </g>
        </g>
        <g id="Grupo_59789" data-name="Grupo 59789" transform="translate(18.07 46.281)">
          <g id="Grupo_59787" data-name="Grupo 59787" transform="translate(2.224)">
            <path id="Trazado_103790" data-name="Trazado 103790" d="M308.1,304.88a.395.395,0,0,0,.393-.445l-7.23-41.322a.4.4,0,0,0-.458-.313.383.383,0,0,0-.326.44l7.229,41.322A.393.393,0,0,0,308.1,304.88Z" transform="translate(-300.475 -262.794)" fill="#263238"/>
          </g>
          <g id="Grupo_59788" data-name="Grupo 59788" transform="translate(0 5.884)">
            <path id="Trazado_103791" data-name="Trazado 103791" d="M311.058,291a.418.418,0,0,0,.122-.018.379.379,0,0,0,.256-.481l-6.625-19.743a.4.4,0,0,0-.5-.246.379.379,0,0,0-.257.48l6.626,19.743A.4.4,0,0,0,311.058,291Z" transform="translate(-304.035 -270.494)" fill="#263238"/>
          </g>
        </g>
      </g>
      <g id="Grupo_59804" data-name="Grupo 59804" transform="translate(181.463 146.514)">
        <g id="Grupo_59791" data-name="Grupo 59791" transform="translate(27.035 67.018)">
          <path id="Trazado_103792" data-name="Trazado 103792" d="M252.685,241.709l-3.393,7.691,16.235,52.906-8.239,11.886-9.935-11.187-1.7-52.44-10.177-5.594,8-10.255Z" transform="translate(-235.084 -234.335)" fill="#263238"/>
          <path id="Trazado_103793" data-name="Trazado 103793" d="M257.186,314.457h.024a.4.4,0,0,0,.307-.17l8.24-11.887a.37.37,0,0,0,.05-.32l-16.2-52.774,3.337-7.565a.373.373,0,0,0-.119-.449l-9.209-6.992a.409.409,0,0,0-.3-.079.4.4,0,0,0-.267.149l-8,10.255a.372.372,0,0,0-.071.307.379.379,0,0,0,.191.254l9.984,5.487,1.689,52.227a.368.368,0,0,0,.1.236l9.935,11.188A.4.4,0,0,0,257.186,314.457Zm7.806-12.332-7.845,11.318-9.5-10.7-1.691-52.306a.383.383,0,0,0-.2-.32l-9.786-5.378,7.482-9.6,8.651,6.569-3.274,7.423a.365.365,0,0,0-.016.258Z" transform="translate(-234.98 -234.218)" fill="#263238"/>
        </g>
        <g id="Grupo_59792" data-name="Grupo 59792" transform="translate(14.413 52.8)">
          <path id="Trazado_103794" data-name="Trazado 103794" d="M271.648,216.112s3.877.7,4.119,2.1,3.635,3.962,4.362,9.323-.242,12.818-.242,12.818-7.512-3.263-8.966-3.5-5.573.233-6.3,1.4-4.6,8.39-6.543,7.225-11.147-10.954-11.631-18.878,7.512-7.225,8.481-7.691S271.648,216.112,271.648,216.112Z" transform="translate(-246.028 -215.73)" fill="#4dd0e1"/>
          <path id="Trazado_103795" data-name="Trazado 103795" d="M258.443,245.868a1.524,1.524,0,0,0,.369-.047c1.715-.42,3.833-3.707,5.68-6.866.16-.274.286-.49.37-.624.586-.938,4.5-1.442,5.894-1.219a90.884,90.884,0,0,1,8.868,3.468.408.408,0,0,0,.357-.014.38.38,0,0,0,.2-.286c.01-.076.968-7.569.242-12.916a16.235,16.235,0,0,0-3.365-7.663,5.7,5.7,0,0,1-1-1.673c-.273-1.582-3.745-2.286-4.439-2.41a.373.373,0,0,0-.133,0c-1.618.239-15.84,2.354-16.837,2.833a5.645,5.645,0,0,1-.924.15c-2.453.3-8.2.994-7.776,7.905.5,8.175,10.018,18.1,11.817,19.18A1.3,1.3,0,0,0,258.443,245.868ZM269.9,236.3c-1.9,0-5.015.5-5.724,1.641-.086.138-.215.36-.381.643-.883,1.509-3.569,6.1-5.184,6.5a.531.531,0,0,1-.427-.046c-1.742-1.047-10.961-10.659-11.445-18.576-.38-6.2,4.66-6.809,7.082-7.1a4.419,4.419,0,0,0,1.18-.225c.689-.322,10.478-1.854,16.536-2.751,1.494.28,3.6,1,3.735,1.773a5.733,5.733,0,0,0,1.129,1.984,15.578,15.578,0,0,1,3.23,7.326,57.649,57.649,0,0,1-.181,12.206,82.751,82.751,0,0,0-8.568-3.31A6.462,6.462,0,0,0,269.9,236.3Z" transform="translate(-245.929 -215.612)" fill="#263238"/>
        </g>
        <g id="Grupo_59803" data-name="Grupo 59803" transform="translate(0)">
          <g id="Grupo_59793" data-name="Grupo 59793" transform="translate(16.13 45.342)">
            <path id="Trazado_103796" data-name="Trazado 103796" d="M278.8,206.352s.727,6.759,1.212,12.352,1.212,11.42-1.212,14.45-5.089,3.5-10.9-.7-9.208-7.924-10.177-11.886-2.423-8.157-2.423-8.157S267.17,215.441,278.8,206.352Z" transform="translate(-254.898 -205.969)" fill="#fff"/>
            <path id="Trazado_103797" data-name="Trazado 103797" d="M274.589,235.783c1.691,0,3.09-.842,4.428-2.514,2.346-2.933,1.865-8.317,1.4-13.525l-.106-1.19c-.479-5.534-1.205-12.293-1.212-12.361a.384.384,0,0,0-.243-.313.407.407,0,0,0-.4.056,28.873,28.873,0,0,1-23.152,5.987.408.408,0,0,0-.392.108.373.373,0,0,0-.087.383c.015.042,1.46,4.225,2.414,8.124s4.141,7.643,10.326,12.1C270.47,234.742,272.71,235.783,274.589,235.783Zm3.791-28.816c.2,1.868.748,7.164,1.138,11.651l.106,1.192c.453,5.062.921,10.3-1.237,12.993s-4.534,3.424-10.35-.773c-6.025-4.346-9.119-7.946-10.03-11.668-.743-3.036-1.779-6.239-2.221-7.563A30.017,30.017,0,0,0,278.381,206.967Z" transform="translate(-254.8 -205.851)" fill="#263238"/>
          </g>
          <g id="Grupo_59794" data-name="Grupo 59794" transform="translate(16.13 45.342)">
            <path id="Trazado_103798" data-name="Trazado 103798" d="M279.573,206.352s.615,5.718,1.091,10.988a12.185,12.185,0,0,1-6.466,3.479c-7.833,1.586-14.909-4.08-17.785-7.381-.211-.641-.345-1.027-.345-1.027S267.942,215.441,279.573,206.352Z" transform="translate(-255.67 -205.969)" fill="#263238"/>
            <path id="Trazado_103799" data-name="Trazado 103799" d="M271.294,221.364a14.519,14.519,0,0,0,2.883-.289,12.654,12.654,0,0,0,6.674-3.591.373.373,0,0,0,.106-.295c-.47-5.213-1.086-10.937-1.092-10.994a.384.384,0,0,0-.243-.313.407.407,0,0,0-.4.056,28.874,28.874,0,0,1-23.152,5.987.409.409,0,0,0-.392.108.371.371,0,0,0-.087.382s.133.386.343,1.022a.368.368,0,0,0,.074.13C256.767,214.44,263.063,221.364,271.294,221.364Zm8.856-4.281a11.7,11.7,0,0,1-6.137,3.244c-9,1.821-16.316-6.024-17.348-7.194-.04-.121-.077-.232-.11-.332a30.016,30.016,0,0,0,22.594-5.833C279.325,208.627,279.779,212.992,280.15,217.083Z" transform="translate(-255.568 -205.851)" fill="#263238"/>
          </g>
          <g id="Grupo_59802" data-name="Grupo 59802">
            <g id="Grupo_59795" data-name="Grupo 59795" transform="translate(39.974 26.58)">
              <path id="Trazado_103800" data-name="Trazado 103800" d="M254.279,192.63a.7.7,0,0,0,.54-.267c1.378-1.592,2.308-7.561.247-10.039a2.121,2.121,0,0,0-1.948-1c-1.1.2-1.6,1.662-1.649,1.828a.361.361,0,0,0-.014.164c.472,3.328,1.444,8.96,2.652,9.294A.667.667,0,0,0,254.279,192.63Zm-.915-10.567c.384,0,.8.393,1.082.738,1.712,2.058.941,7.56-.182,9-.592-.69-1.482-4.823-2.01-8.508.133-.358.516-1.136,1.013-1.226A.522.522,0,0,1,253.363,182.064Z" transform="translate(-251.45 -181.299)" fill="#263238"/>
            </g>
            <g id="Grupo_59796" data-name="Grupo 59796" transform="translate(0)">
              <path id="Trazado_103801" data-name="Trazado 103801" d="M289.782,160.91s7.437,23.409,6.311,28.395-3.156,13.439-11.719,15.174-16.226-5.2-18.48-8.237c0,0-5.859.65-7.437-3.035s-3.831-7.586-1.578-8.454a10.5,10.5,0,0,1,3.156-.867s-6.311-9.537-6.761-12.789,1.8-14.09,9.014-19.292,19.381-5.853,18.705-3.468-2.253,2.6-2.253,2.6,14.2-1.518,15.325,2.168-4.958,5.852-4.958,5.852Z" transform="translate(-252.821 -146.632)" fill="#fff"/>
              <path id="Trazado_103802" data-name="Trazado 103802" d="M281.528,205.017a14.2,14.2,0,0,0,2.828-.283c8.94-1.81,10.948-10.693,12.026-15.466,1.136-5.025-6.013-27.628-6.318-28.587l0-.009-.559-1.611c1.347-.552,5.907-2.7,4.845-6.18-.987-3.225-10.187-2.884-14.118-2.587a4.731,4.731,0,0,0,1.048-1.975,1.025,1.025,0,0,0-.517-1.2c-2.229-1.458-12.345-.406-18.809,4.258-7.486,5.4-9.622,16.384-9.171,19.648.4,2.9,5.174,10.411,6.493,12.443a16.124,16.124,0,0,0-2.64.808,1.751,1.751,0,0,0-1.031.958c-.59,1.382.436,3.65,1.625,6.277.258.569.519,1.147.764,1.719,1.506,3.519,6.46,3.372,7.617,3.289C267.6,199.092,273.948,205.017,281.528,205.017Zm7.777-44.109c.138.434,7.388,23.387,6.3,28.2-1.04,4.6-2.977,13.172-11.413,14.881-8.566,1.733-16.107-5.437-18.074-8.085a.4.4,0,0,0-.369-.157c-.057,0-5.58.572-7.025-2.8-.247-.576-.51-1.158-.77-1.733-1.023-2.26-2.081-4.6-1.618-5.681a.968.968,0,0,1,.591-.539,10.6,10.6,0,0,1,3.012-.84.4.4,0,0,0,.344-.2.37.37,0,0,0-.013-.386c-.063-.095-6.269-9.5-6.7-12.634-.472-3.411,1.973-13.968,8.859-18.935,6.321-4.56,16.16-5.367,17.886-4.236.253.165.219.288.2.361-.59,2.085-1.876,2.316-1.931,2.325a.382.382,0,1,0,.106.757c3.854-.413,14.052-.874,14.9,1.9,1.008,3.3-4.659,5.366-4.716,5.386a.379.379,0,0,0-.239.479Z" transform="translate(-252.722 -146.514)" fill="#263238"/>
            </g>
            <g id="Grupo_59797" data-name="Grupo 59797" transform="translate(0)">
              <path id="Trazado_103803" data-name="Trazado 103803" d="M262.558,183.886s-6.311-9.537-6.761-12.789,1.8-14.09,9.014-19.292,19.381-5.853,18.705-3.468-2.253,2.6-2.253,2.6,14.2-1.518,15.325,2.168-4.958,5.852-4.958,5.852l.676,1.952s1.425,4.485,2.933,9.947l-.454.024s-.675-1.951-1.577-4.985-2.7-6.5-11.719-5.636-18.029,5.419-18.48,8.671,3.38,4.552,2.028,6.069-3.155,2.168-2.028,3.251,3.38,5.636,2.028,6.287-3.606-.434-3.606-.434l-.061,0A5.471,5.471,0,0,1,262.558,183.886Z" transform="translate(-255.345 -146.632)" fill="#263238"/>
              <path id="Trazado_103804" data-name="Trazado 103804" d="M263.89,185.006a2.807,2.807,0,0,0,1.217-.246,1.121,1.121,0,0,0,.61-.886c.273-1.62-1.556-5.069-2.535-6.012a.611.611,0,0,1-.238-.406c.01-.285.49-.692,1-1.121a12.255,12.255,0,0,0,1.288-1.206c.856-.961.132-1.87-.569-2.748a4.485,4.485,0,0,1-1.367-3.52c.408-2.947,9.025-7.466,18.125-8.341,8.7-.836,10.4,2.328,11.3,5.36.893,3.008,1.575,4.981,1.582,5a.387.387,0,0,0,.4.261l.454-.024a.4.4,0,0,0,.3-.157.37.37,0,0,0,.063-.322c-1.493-5.406-2.923-9.916-2.936-9.961l-.562-1.62c1.347-.552,5.907-2.7,4.845-6.18-.987-3.225-10.187-2.884-14.118-2.587a4.73,4.73,0,0,0,1.048-1.975,1.025,1.025,0,0,0-.517-1.2c-2.229-1.458-12.345-.406-18.809,4.258-7.486,5.4-9.622,16.384-9.171,19.648.4,2.9,5.174,10.409,6.493,12.442-.173.034-.382.08-.63.145a.383.383,0,0,0-.289.422.389.389,0,0,0,.365.328A7.169,7.169,0,0,0,263.89,185.006Zm20.17-25.385c-.829,0-1.732.045-2.719.14-8.828.849-18.333,5.391-18.834,9a5.22,5.22,0,0,0,1.525,4.086c.765.959,1,1.335.6,1.786a11.716,11.716,0,0,1-1.208,1.128c-.7.59-1.25,1.055-1.27,1.671a1.277,1.277,0,0,0,.47.97c.938.9,2.522,4.112,2.313,5.349-.044.259-.148.309-.182.325a3.223,3.223,0,0,1-2.059-.007.383.383,0,0,0,.106-.121.369.369,0,0,0-.013-.386c-.063-.095-6.269-9.5-6.7-12.634-.472-3.411,1.973-13.968,8.859-18.935,6.321-4.56,16.16-5.367,17.886-4.236.253.165.218.288.2.361-.59,2.085-1.876,2.316-1.931,2.325a.382.382,0,1,0,.106.757c3.854-.413,14.052-.874,14.9,1.9,1.008,3.3-4.659,5.366-4.716,5.386a.379.379,0,0,0-.239.479l.677,1.951c.006.017.323,1.019.813,2.636C291.428,161.32,289.157,159.621,284.059,159.621Z" transform="translate(-255.237 -146.514)" fill="#263238"/>
            </g>
            <g id="Grupo_59798" data-name="Grupo 59798" transform="translate(28.225 29.068)">
              <path id="Trazado_103805" data-name="Trazado 103805" d="M266.309,197.024a.408.408,0,0,0,.12-.018l4.281-1.3a.389.389,0,0,0,.238-.2.364.364,0,0,0,.015-.3l-4.057-10.4a.4.4,0,0,0-.511-.224.377.377,0,0,0-.232.492l3.909,10.028-3.883,1.179a.379.379,0,0,0-.259.479A.4.4,0,0,0,266.309,197.024Z" transform="translate(-265.913 -184.555)" fill="#263238"/>
            </g>
            <g id="Grupo_59799" data-name="Grupo 59799" transform="translate(21.915 42.291)">
              <path id="Trazado_103806" data-name="Trazado 103806" d="M273.544,205.117a8.969,8.969,0,0,0,3.782-.808.375.375,0,0,0,.16-.517.406.406,0,0,0-.539-.154,8.215,8.215,0,0,1-9.227-1.675.409.409,0,0,0-.562.014.372.372,0,0,0,.013.54A9.246,9.246,0,0,0,273.544,205.117Z" transform="translate(-267.048 -201.859)" fill="#263238"/>
            </g>
            <g id="Grupo_59800" data-name="Grupo 59800" transform="translate(28.955 23.05)">
              <path id="Trazado_103807" data-name="Trazado 103807" d="M261.1,179.942a.809.809,0,0,0,.393-.1c1.19-.654,5.416-1.408,6.944-1.643a.769.769,0,0,0,.659-.876.79.79,0,0,0-.911-.633c-.591.092-5.825.915-7.48,1.826a.749.749,0,0,0-.3,1.042A.8.8,0,0,0,261.1,179.942Z" transform="translate(-260.306 -176.679)" fill="#263238"/>
            </g>
            <g id="Grupo_59801" data-name="Grupo 59801" transform="translate(14.081 24.739)">
              <path id="Trazado_103808" data-name="Trazado 103808" d="M280.391,182.631a.806.806,0,0,0,.621-.287,5.7,5.7,0,0,1,5.892-1.7.8.8,0,0,0,1-.488.757.757,0,0,0-.5-.963,7.325,7.325,0,0,0-7.633,2.2.745.745,0,0,0,.125,1.074A.809.809,0,0,0,280.391,182.631Z" transform="translate(-279.597 -178.889)" fill="#263238"/>
            </g>
            <path id="Trazado_103809" data-name="Trazado 103809" d="M263.012,184.367c.131.949.687,1.662,1.243,1.591s.9-.9.768-1.848-.687-1.661-1.243-1.59S262.882,183.418,263.012,184.367Z" transform="translate(-229.423 -155.005)" fill="#263238"/>
            <path id="Trazado_103810" data-name="Trazado 103810" d="M279.478,189.043c.131.949.687,1.661,1.243,1.591s.9-.9.768-1.848-.687-1.661-1.243-1.59S279.347,188.094,279.478,189.043Z" transform="translate(-258.97 -156.108)" fill="#263238"/>
          </g>
        </g>
      </g>
      <g id="Grupo_59813" data-name="Grupo 59813" transform="translate(254.014 150.789)">
        <g id="Grupo_59805" data-name="Grupo 59805" transform="translate(0 7.684)">
          <path id="Trazado_103811" data-name="Trazado 103811" d="M205.517,189.265l3.871,7.238s0,3.309-5.805,4.343-7.741-2.276-7.741-2.276l-4.086-10.754s-3.225-2.068-3.655-4.343,0-9.1-.645-12.2-5.375-7.859-3.01-8.48,4.946,1.035,5.591,3.93,1.72,6.2,1.72,6.2,2.151-2.482,2.365-4.55-.86-3.1.645-3.516,11.4,6.617,11.827,8.892S205.517,189.265,205.517,189.265Z" transform="translate(-183.391 -162.282)" fill="#fff"/>
          <path id="Trazado_103812" data-name="Trazado 103812" d="M201.313,201.312a12.725,12.725,0,0,0,2.239-.208c6.06-1.08,6.13-4.571,6.13-4.719a.373.373,0,0,0-.044-.174l-3.816-7.137c.156-1.388,1.476-13.291,1.057-15.506-.359-1.9-5.9-6.061-8.893-7.855-2.611-1.561-3.208-1.4-3.432-1.337-1.285.353-1.152,1.217-1.023,2.053a6.69,6.69,0,0,1,.092,1.792,8.919,8.919,0,0,1-1.815,3.762c-.349-1.128-1.03-3.41-1.486-5.458a5.7,5.7,0,0,0-2.609-3.705,4.56,4.56,0,0,0-3.474-.513,1.19,1.19,0,0,0-.855.673c-.393.926.484,2.371,1.595,4.2a15.356,15.356,0,0,1,1.985,4.048,44.842,44.842,0,0,1,.4,7.065,37.822,37.822,0,0,0,.241,5.13c.413,2.189,3.125,4.122,3.716,4.521l4.042,10.639C195.462,198.758,197.013,201.312,201.313,201.312Zm7.569-4.845c-.048.5-.542,3.006-5.476,3.885-5.428.968-7.247-1.963-7.323-2.088l-4.057-10.7a.385.385,0,0,0-.153-.187c-.031-.02-3.091-2.007-3.485-4.094a37.97,37.97,0,0,1-.227-5,45.049,45.049,0,0,0-.419-7.207,15.527,15.527,0,0,0-2.078-4.284c-.84-1.383-1.791-2.95-1.545-3.527.018-.043.066-.157.328-.225a3.739,3.739,0,0,1,2.852.429,4.927,4.927,0,0,1,2.245,3.212c.641,2.879,1.719,6.2,1.73,6.238a.4.4,0,0,0,.3.261.4.4,0,0,0,.383-.13c.091-.105,2.23-2.6,2.455-4.757a7.258,7.258,0,0,0-.1-1.979c-.142-.92-.126-1.048.455-1.207.193-.051,1.086.2,3.124,1.45,3.586,2.208,7.95,5.808,8.2,7.143.415,2.195-1.065,15.269-1.08,15.4a.372.372,0,0,0,.042.216Z" transform="translate(-183.288 -162.164)" fill="#263238"/>
        </g>
        <g id="Grupo_59806" data-name="Grupo 59806" transform="translate(6.789)">
          <path id="Trazado_103813" data-name="Trazado 103813" d="M206.157,172.286a1.17,1.17,0,0,0,1.192-1.146V153.254a1.193,1.193,0,0,0-2.383,0V171.14A1.169,1.169,0,0,0,206.157,172.286Z" transform="translate(-204.965 -152.108)" fill="#263238"/>
        </g>
        <g id="Grupo_59807" data-name="Grupo 59807" transform="translate(11.409 31.803)">
          <path id="Trazado_103814" data-name="Trazado 103814" d="M196.675,198.975a3.163,3.163,0,0,0,2.947-1.385.375.375,0,0,0-.178-.513.4.4,0,0,0-.532.17c-.03.053-.791,1.378-3.432.832-2.785-.575-4.655-4.1-4.673-4.141a.4.4,0,0,0-.533-.17.376.376,0,0,0-.178.513c.083.158,2.057,3.894,5.217,4.545A6.744,6.744,0,0,0,196.675,198.975Z" transform="translate(-190.054 -193.728)" fill="#263238"/>
        </g>
        <g id="Grupo_59808" data-name="Grupo 59808" transform="translate(10.135 10.441)">
          <path id="Trazado_103815" data-name="Trazado 103815" d="M200.413,170.2s.833-.457-.119-1.143-4.279-2.172-5.349-2.744-2.734,4.916-3.328,6.86-.833,2.4,0,2.4,1.545,0,2.615-2.059a15.983,15.983,0,0,1,1.664-2.744l2.021.343" transform="translate(-190.679 -165.889)" fill="#fff"/>
          <path id="Trazado_103816" data-name="Trazado 103816" d="M191.515,175.839c1.049,0,1.875-.163,2.971-2.269a19.946,19.946,0,0,1,1.482-2.5l1.779.3a.4.4,0,0,0,.46-.31.383.383,0,0,0-.322-.442l-2.021-.343a.4.4,0,0,0-.374.131,16.2,16.2,0,0,0-1.714,2.818c-.96,1.847-1.506,1.847-2.26,1.847a.967.967,0,0,1-.144-.008,7.43,7.43,0,0,1,.353-1.348l.172-.555c1.776-5.811,2.546-6.569,2.8-6.629.319.187.934.483,1.628.817a35.325,35.325,0,0,1,3.635,1.894c.241.173.3.3.3.345s-.106.144-.137.16a.374.374,0,0,0-.148.521.406.406,0,0,0,.542.142,1.043,1.043,0,0,0,.535-.776,1.187,1.187,0,0,0-.613-1,34.421,34.421,0,0,0-3.756-1.965c-.682-.328-1.285-.618-1.639-.807a.759.759,0,0,0-.651-.031c-.868.342-1.8,2.386-3.232,7.055l-.19.614c-.369,1.187-.522,1.678-.238,2.046A.956.956,0,0,0,191.515,175.839Z" transform="translate(-190.578 -165.771)" fill="#263238"/>
        </g>
        <g id="Grupo_59809" data-name="Grupo 59809" transform="translate(12.75 12.385)">
          <path id="Trazado_103817" data-name="Trazado 103817" d="M197.122,172.744s.832-.458-.119-1.143-4.279-2.172-5.349-2.745-2.734,4.917-3.328,6.86-.833,2.4,0,2.4,1.545,0,2.615-2.058a16.009,16.009,0,0,1,1.664-2.744l2.021.343" transform="translate(-187.387 -168.434)" fill="#fff"/>
          <path id="Trazado_103818" data-name="Trazado 103818" d="M188.223,178.382c1.049,0,1.876-.163,2.971-2.269a20.041,20.041,0,0,1,1.481-2.5l1.78.3a.4.4,0,0,0,.46-.309.383.383,0,0,0-.323-.442l-2.02-.343a.4.4,0,0,0-.374.131,16.211,16.211,0,0,0-1.714,2.817c-.96,1.847-1.506,1.847-2.26,1.847a1.116,1.116,0,0,1-.143-.008,7.293,7.293,0,0,1,.353-1.348l.172-.556c1.778-5.811,2.547-6.569,2.8-6.628.318.186.931.481,1.624.815a35.624,35.624,0,0,1,3.638,1.9c.24.173.3.3.3.345s-.085.131-.141.164a.376.376,0,0,0-.137.522.4.4,0,0,0,.536.139,1.044,1.044,0,0,0,.535-.776,1.184,1.184,0,0,0-.613-1,34.319,34.319,0,0,0-3.759-1.968c-.68-.327-1.282-.616-1.635-.8a.764.764,0,0,0-.651-.031c-.868.342-1.8,2.383-3.23,7.048l-.191.62c-.369,1.187-.523,1.678-.238,2.045A.958.958,0,0,0,188.223,178.382Z" transform="translate(-187.286 -168.316)" fill="#263238"/>
        </g>
        <g id="Grupo_59810" data-name="Grupo 59810" transform="translate(16.031 15.253)">
          <path id="Trazado_103819" data-name="Trazado 103819" d="M191.167,177.33,188.8,179.4s-.86,2.275-2.151,2.482-1.29-1.035,0-3.309,1.935-5.791,2.8-6,4.3,2.688,4.3,2.688l-1.72,5.377" transform="translate(-185.285 -172.186)" fill="#fff"/>
          <path id="Trazado_103820" data-name="Trazado 103820" d="M186.29,182.167a2.1,2.1,0,0,0,.323-.027c1.365-.219,2.225-2.146,2.423-2.638l2.294-2.007a.372.372,0,0,0,.027-.54.411.411,0,0,0-.562-.026L188.431,179a.392.392,0,0,0-.106.151c-.2.536-.979,2.1-1.842,2.236-.132.021-.366.041-.442-.061-.039-.052-.344-.572.856-2.688a22.191,22.191,0,0,0,1.423-3.378,7.327,7.327,0,0,1,1.123-2.432c.394-.03,2.073,1.06,3.745,2.444l-1.645,5.14a.38.38,0,0,0,.263.478.4.4,0,0,0,.5-.253l1.72-5.377a.373.373,0,0,0-.118-.4c-1.08-.91-3.709-3-4.657-2.771-.663.159-1.031,1.112-1.68,2.924a21.582,21.582,0,0,1-1.369,3.261c-.99,1.747-1.254,2.89-.806,3.5A1.043,1.043,0,0,0,186.29,182.167Z" transform="translate(-185.183 -172.069)" fill="#263238"/>
        </g>
        <g id="Grupo_59811" data-name="Grupo 59811" transform="translate(7.456 8.391)">
          <path id="Trazado_103821" data-name="Trazado 103821" d="M202.794,163.719s2.171,0,2.378,1.79-1.138,2.287-3.1,1.89-2.9-2.188-2.171-3.183S202.794,163.719,202.794,163.719Z" transform="translate(-199.257 -163.208)" fill="#fff"/>
          <path id="Trazado_103822" data-name="Trazado 103822" d="M203.118,167.788a2.6,2.6,0,0,0,1.752-.536,2.062,2.062,0,0,0,.594-1.9,2.624,2.624,0,0,0-2.726-2.13c-.4-.086-2.452-.461-3.268.66a1.853,1.853,0,0,0-.145,1.829,3.467,3.467,0,0,0,2.56,1.946A6.266,6.266,0,0,0,203.118,167.788Zm-1.6-3.933a5.227,5.227,0,0,1,1.084.116.456.456,0,0,0,.091.01c.074,0,1.82.027,1.985,1.45a1.368,1.368,0,0,1-.338,1.254,2.8,2.8,0,0,1-2.286.219,2.658,2.658,0,0,1-1.985-1.479,1.131,1.131,0,0,1,.056-1.11A1.736,1.736,0,0,1,201.516,163.855Z" transform="translate(-199.154 -163.089)" fill="#263238"/>
        </g>
        <g id="Grupo_59812" data-name="Grupo 59812" transform="translate(10.079 37.053)">
          <path id="Trazado_103823" data-name="Trazado 103823" d="M185.762,207.636l-1.974-5.2c7.952,2.256,11.615.187,13.13-1.342l2.391,4.47s0,3.309-5.805,4.343S185.762,207.636,185.762,207.636Z" transform="translate(-183.39 -200.716)" fill="#4dd0e1"/>
          <path id="Trazado_103824" data-name="Trazado 103824" d="M191.232,210.377a12.77,12.77,0,0,0,2.241-.209c6.06-1.08,6.13-4.57,6.13-4.719a.373.373,0,0,0-.044-.174l-2.391-4.471a.4.4,0,0,0-.3-.2.406.406,0,0,0-.344.115c-1.4,1.414-4.918,3.455-12.73,1.239a.408.408,0,0,0-.4.1.37.37,0,0,0-.083.392l1.974,5.2a.3.3,0,0,0,.027.056C185.387,207.831,186.933,210.377,191.232,210.377Zm7.571-4.845c-.048.5-.542,3.006-5.475,3.885-5.215.929-7.13-1.788-7.308-2.065l-1.695-4.46c7.081,1.829,10.7.16,12.381-1.281Zm-13.143,1.985h0Z" transform="translate(-183.288 -200.598)" fill="#263238"/>
        </g>
      </g>
      <g id="Grupo_59822" data-name="Grupo 59822" transform="translate(156.979 278.831)">
        <g id="Grupo_59814" data-name="Grupo 59814" transform="translate(0)">
          <path id="Trazado_103825" data-name="Trazado 103825" d="M319.539,326.125s6.918.175,9.1,2.626,2.367,14.534,2.367,16.46-4,7.7-11.287,9.105-13.472-2.8-13.654-7.179-3.277-16.285-2.549-20.837a8.308,8.308,0,0,1,3.823-6.128" transform="translate(-303.011 -319.79)" fill="#4dd0e1"/>
          <path id="Trazado_103826" data-name="Trazado 103826" d="M316.787,354.852a15.378,15.378,0,0,0,2.906-.277c7.54-1.45,11.608-7.377,11.608-9.481,0-.569-.028-13.976-2.463-16.708-2.274-2.552-9.1-2.752-9.394-2.76a.4.4,0,0,0-.408.371.39.39,0,0,0,.387.393c.068,0,6.767.2,8.811,2.493,1.864,2.091,2.272,12.411,2.272,16.211,0,1.7-3.771,7.347-10.969,8.731a13.176,13.176,0,0,1-10.32-2.11,6.535,6.535,0,0,1-2.859-4.71,70.76,70.76,0,0,0-1.124-7.587c-.875-4.891-1.867-10.435-1.429-13.176a8.029,8.029,0,0,1,3.617-5.85.376.376,0,0,0,.163-.517.4.4,0,0,0-.536-.158,8.626,8.626,0,0,0-4.029,6.408c-.458,2.865.546,8.474,1.432,13.423a70.579,70.579,0,0,1,1.112,7.487,7.281,7.281,0,0,0,3.162,5.281A13.4,13.4,0,0,0,316.787,354.852Z" transform="translate(-302.906 -319.672)" fill="#263238"/>
        </g>
        <g id="Grupo_59815" data-name="Grupo 59815" transform="translate(8.408 18.714)">
          <ellipse id="Elipse_4105" data-name="Elipse 4105" cx="8.563" cy="8.047" rx="8.563" ry="8.047" transform="translate(0.397 0.382)" fill="#4dd0e1"/>
          <path id="Trazado_103827" data-name="Trazado 103827" d="M314.467,361.02a8.445,8.445,0,1,0-8.96-8.429A8.717,8.717,0,0,0,314.467,361.02Zm0-16.094a7.68,7.68,0,1,1-8.166,7.664A7.936,7.936,0,0,1,314.467,344.926Z" transform="translate(-305.507 -344.162)" fill="#263238"/>
        </g>
        <g id="Grupo_59821" data-name="Grupo 59821" transform="translate(14.087 23.359)">
          <g id="Grupo_59816" data-name="Grupo 59816">
            <path id="Trazado_103828" data-name="Trazado 103828" d="M285.759,361.527s-.91-3.852,0-6.128,6.918-5.253,8.739-4.553.91,1.926,2.549,2.626,7.828,1.576,9.1,3.152,2.185,4.553,4.188,8.055,4.369,5.078,1.638,5.253a6,6,0,0,1-5.644-3.326,6.7,6.7,0,0,0-2.731-2.627s4.915,10.681,4.188,11.732a2.855,2.855,0,0,1-1.457,1.226s.547,2.1-.728,2.626a2.731,2.731,0,0,1-2.367-.175,6.518,6.518,0,0,1-2.549,1.226,3.117,3.117,0,0,1-1.639-.525s-3.095.35-4.005-1.051-4.915-5.953-6.918-9.63A22.777,22.777,0,0,1,285.759,361.527Z" transform="translate(-284.955 -350.359)" fill="#fff"/>
            <path id="Trazado_103829" data-name="Trazado 103829" d="M300.582,380.877a5.883,5.883,0,0,0,2.583-1.155,3.115,3.115,0,0,0,2.489.073c1.237-.51,1.133-2.065,1.023-2.748a3.744,3.744,0,0,0,1.336-1.244c.683-.984-1.948-7.209-3.6-10.871a5.613,5.613,0,0,1,1.454,1.726,6.462,6.462,0,0,0,6.025,3.536c.578-.037,1.273-.143,1.521-.639.307-.612-.224-1.346-1.1-2.563a28.778,28.778,0,0,1-1.734-2.617c-.907-1.586-1.586-3.059-2.185-4.359a18.474,18.474,0,0,0-2.038-3.745c-.939-1.163-3.928-1.885-6.565-2.522A22.266,22.266,0,0,1,297.1,353a1.619,1.619,0,0,1-.98-1.062,2.478,2.478,0,0,0-1.583-1.57c-1.07-.414-2.921.235-3.928.658-2.133.9-4.71,2.564-5.329,4.112-.913,2.283-.11,5.948-.022,6.325a22.9,22.9,0,0,0,2.407,8,59.534,59.534,0,0,0,5.311,7.521c.75.952,1.343,1.7,1.622,2.134.919,1.414,3.57,1.3,4.239,1.241A3.5,3.5,0,0,0,300.582,380.877Zm2.549-1.989a.408.408,0,0,0-.244.08,5.814,5.814,0,0,1-2.3,1.145,2.726,2.726,0,0,1-1.4-.45.438.438,0,0,0-.284-.073c-.792.092-2.987.105-3.622-.872-.3-.461-.9-1.224-1.663-2.191a58.92,58.92,0,0,1-5.24-7.415,22.578,22.578,0,0,1-2.323-7.735.309.309,0,0,0-.009-.052c-.009-.037-.872-3.768-.016-5.907.452-1.133,2.515-2.683,4.9-3.687a5.7,5.7,0,0,1,3.315-.649,1.712,1.712,0,0,1,1.142,1.149,2.382,2.382,0,0,0,1.394,1.472,22.192,22.192,0,0,0,2.818.788c2.262.547,5.361,1.3,6.132,2.25a18.176,18.176,0,0,1,1.939,3.586c.6,1.314,1.291,2.8,2.214,4.418a29.549,29.549,0,0,0,1.778,2.684c.511.706,1.146,1.586,1.04,1.8,0,0-.088.159-.857.208a5.639,5.639,0,0,1-5.262-3.116,7.049,7.049,0,0,0-2.909-2.8.413.413,0,0,0-.451.066.37.37,0,0,0-.089.431c2.306,5.012,4.512,10.638,4.212,11.38a2.559,2.559,0,0,1-1.22,1.054.388.388,0,0,0-.283.462c0,.018.433,1.8-.5,2.182a2.3,2.3,0,0,1-1.992-.142A.417.417,0,0,0,303.131,378.888Z" transform="translate(-284.851 -350.24)" fill="#263238"/>
          </g>
          <g id="Grupo_59817" data-name="Grupo 59817" transform="translate(13.149 14.989)">
            <path id="Trazado_103830" data-name="Trazado 103830" d="M301.737,381.826a.412.412,0,0,0,.223-.064.374.374,0,0,0,.107-.531l-7.828-11.207a.409.409,0,0,0-.552-.1.374.374,0,0,0-.107.531l7.828,11.207A.4.4,0,0,0,301.737,381.826Z" transform="translate(-293.512 -369.856)" fill="#263238"/>
          </g>
          <g id="Grupo_59818" data-name="Grupo 59818" transform="translate(9.144 17.791)">
            <path id="Trazado_103831" data-name="Trazado 103831" d="M306.544,385.143a.4.4,0,0,0,.242-.079.372.372,0,0,0,.071-.536l-8.739-10.856a.408.408,0,0,0-.557-.069.372.372,0,0,0-.071.536l8.738,10.856A.4.4,0,0,0,306.544,385.143Z" transform="translate(-297.407 -373.523)" fill="#263238"/>
          </g>
          <g id="Grupo_59819" data-name="Grupo 59819" transform="translate(6.778 21.818)">
            <path id="Trazado_103832" data-name="Trazado 103832" d="M309.992,387.086a.407.407,0,0,0,.263-.1.373.373,0,0,0,.035-.54l-6.918-7.528a.407.407,0,0,0-.561-.034.373.373,0,0,0-.035.539l6.918,7.529A.406.406,0,0,0,309.992,387.086Z" transform="translate(-302.678 -378.792)" fill="#263238"/>
          </g>
          <g id="Grupo_59820" data-name="Grupo 59820" transform="translate(16.79 8.51)">
            <path id="Trazado_103833" data-name="Trazado 103833" d="M298.8,366.869a.4.4,0,0,0,.112-.015.379.379,0,0,0,.269-.475l-1.456-4.729a.4.4,0,0,0-.493-.258.381.381,0,0,0-.269.475l1.456,4.728A.4.4,0,0,0,298.8,366.869Z" transform="translate(-296.949 -361.378)" fill="#263238"/>
          </g>
        </g>
      </g>
    </g>
  </g>
</svg>
