<svg xmlns="http://www.w3.org/2000/svg" width="859.507" height="457.411" viewBox="0 0 859.507 457.411">
  <g id="Grupo_29522" data-name="Grupo 29522" transform="translate(-688.29 -899.261)">
    <g id="Grupo_29536" data-name="Grupo 29536" transform="translate(688.29 902.909)">
      <g id="Grupo_29535" data-name="Grupo 29535" transform="translate(0 0)">
        <path id="Trazado_58666" data-name="Trazado 58666" d="M1377.042,1179.819s4.313,18.71,16.882,18.71c10.774,0,25.554-24.354,25.554-24.354Z" transform="translate(-1357.596 -1024.535)" fill="#f99746"/>
        <path id="Trazado_58667" data-name="Trazado 58667" d="M1576.9,1509.03l-8.076,5.552s-38.838-41.4-48.215-81.078a61.717,61.717,0,0,1-1.632-20.7s-.567-1.8-1.559-4.975c-.044-.139-.088-.282-.132-.424-.434-1.394-.955-3.034-1.533-4.891-1.883-6-4.469-14.2-7.417-23.543-6.788-21.5-22.313-69.982-28.947-90.15l47.68-17.251s5.416,12.35,13.2,45.917c1.2,4.381,2.4,9.226,3.521,14.5,1.272,5.979,2.458,12.516,3.446,19.579a300.5,300.5,0,0,1,2.858,40.191c.027,6.006-.12,12.234-.477,18.66-.26,4.712.439,10.991,1.753,18.134C1557.378,1461.213,1576.9,1509.03,1576.9,1509.03Z" transform="translate(-1413.148 -1077.397)" fill="#2b478b"/>
        <path id="Trazado_58668" data-name="Trazado 58668" d="M1701.965,1810.8h-38.548s-1.441-6.148,1.09-10.333c2.24-3.7,1.382-5.811-.277-8.873a14.984,14.984,0,0,0,6.492,1.223,13.582,13.582,0,0,0,5.733-2.016c1.659,1.891,8.763,9.943,10.983,11.538C1689.956,1804.153,1701.189,1803.508,1701.965,1810.8Z" transform="translate(-1512.809 -1359.222)" fill="#233862"/>
        <path id="Trazado_58669" data-name="Trazado 58669" d="M1547.236,1351.569l-29.949,55.834c-.434-1.394-.955-3.034-1.533-4.891-1.883-6-4.469-14.2-7.417-23.543-6.788-21.5-22.313-69.982-28.947-90.15l47.68-17.251s5.416,12.35,13.2,45.917c1.2,4.381,2.4,9.226,3.521,14.5C1545.062,1337.969,1546.248,1344.506,1547.236,1351.569Z" transform="translate(-1413.148 -1077.397)" fill="#233862"/>
        <path id="Trazado_58670" data-name="Trazado 58670" d="M1476.229,1806.921s-2.668,6.546-.156,12.066h20.968s.435-4.978-7.174-10.751C1484.1,1803.865,1476.229,1806.921,1476.229,1806.921Z" transform="translate(-1410.762 -1367.405)" fill="#233862"/>
        <path id="Trazado_58671" data-name="Trazado 58671" d="M1495.317,860.2c.013-1.043.549-12.3,17.649-13.3,0,0-8.391,1.206-9.757,4.941,0,0,5.62-4.709,10.322-3.352s7.64,9.467,7.732,12.156-2.291,11.42-5.235,12.228a9.054,9.054,0,0,1-3.587.091,40.34,40.34,0,0,1,2.4,4.048c7.167,13.853.984,30.172-4.833,28.8-3.731-.881-6,5.585-6,5.585l-35.883-30.857S1480.694,852.844,1495.317,860.2Z" transform="translate(-1407.032 -846.903)" fill="#2c3a64"/>
        <path id="Trazado_58672" data-name="Trazado 58672" d="M1478.267,1024.65a43.572,43.572,0,0,0,15.229,6.481c23.475,5.424,32.471-14.417,35.85-28.036a20.178,20.178,0,0,0-7.954-2.443c-1.7-.2-3.481-.332-4.959-.406-2.636-2.019-6.563-10.283-7.432-23.112l-1.1.3-18.5,5.063s.848,5.881,1.263,11.44c.321,4.35.371,8.507-.453,9.524-1.443.313-2.31.518-2.31.518a.041.041,0,0,1-.009.017A119.126,119.126,0,0,0,1478.267,1024.65Z" transform="translate(-1412.538 -917.588)" fill="#ffb27d"/>
        <path id="Trazado_58673" data-name="Trazado 58673" d="M1502.6,982.854s.851,5.876,1.263,11.439c10.482-1.049,15.346-11.029,17.24-16.5Z" transform="translate(-1425.748 -917.945)" fill="#ed985f"/>
        <path id="Trazado_58674" data-name="Trazado 58674" d="M1482.981,955.584s24.132-6.2,20.039-21.17-3.735-25.851-19.316-22.524-17,9.853-16.85,15.182S1476.6,956.812,1482.981,955.584Z" transform="translate(-1406.338 -881.849)" fill="#ffb27d"/>
        <path id="Trazado_58675" data-name="Trazado 58675" d="M1462.288,915.392c2.478-5.521,5.555-5.3,7.5-4.383,11.149-10.825,22.541-2.475,22.541-2.475a29.644,29.644,0,0,0,13.988,14.32s-3.636,3.907-14.444,4.084c-3.3.054-6.656-1.382-9.726-3.4a58.136,58.136,0,0,0,12.881,9.133c-13.588-2.262-23.036-17.7-24.006-19.344-1.1,1.72-3.21,5.375-3.321,8.421-.151,4.14,1.465,12.132-.9,12.493C1466.805,934.244,1458.573,923.672,1462.288,915.392Z" transform="translate(-1403.342 -878.686)" fill="#2c3a64"/>
        <path id="Trazado_58676" data-name="Trazado 58676" d="M1451.439,1029.25s40.53-9.84,58.153,4.7l-8.808,122.828-79.265-19.149s2.23-7.772,17.429-28.44S1447.537,1058.2,1451.439,1029.25Z" transform="translate(-1381.737 -944.108)" fill="#ffb27d"/>
        <path id="Trazado_58677" data-name="Trazado 58677" d="M1469.906,1270.168s-.047.416-.129,1.21c-.036.341-.083.753-.133,1.234-.341,3.184-.987,9.292-1.82,17.234-2.175,20.831-5.588,54.289-7.914,80.7-1.82,20.648-2.975,36.989-2.351,39.612,1.877,7.9,0,102.289,0,102.289-6.736,3.231-16.951,0-16.951,0s-17.945-85.061-15.433-96.884a40.719,40.719,0,0,0-1.679-21.915c-13.933-64.888-12.408-100.851-9.641-118.067a72.625,72.625,0,0,1,2.383-10.512,21.871,21.871,0,0,1,.955-2.584C1447.926,1254.215,1469.906,1270.168,1469.906,1270.168Z" transform="translate(-1376.577 -1071.176)" fill="#2b478b"/>
        <path id="Trazado_58678" data-name="Trazado 58678" d="M1505.927,1070.09c-1.956,14.776-9.784,32.858-12.58,42.592,0,0,4.673,33.792.212,43.07a4.108,4.108,0,0,1-1.9,2.132c-16.528,7.2-80.895.208-83.611-20.555-.987-7.544,24.517-34.082,26-37.3.617-1.331,1.274-5.649-1.715-14.6-4.239,13.068-27.633,9.31-27.633,9.31,2.746-4.7,9.587-37.2,17.224-51.873,5.743-11.03,21.075-12.627,21.075-12.627s6.381,10.121,21.814,8.686,18.255-10.883,18.255-10.883,13.688,1.82,17.905,5.223C1501.705,1033.855,1508.493,1050.73,1505.927,1070.09Z" transform="translate(-1372.608 -945.22)" fill="#f99746"/>
        <path id="Trazado_58679" data-name="Trazado 58679" d="M1575.495,1181.452s4.673,33.792.212,43.07c-12.042-6.044-21.531-22.395-19.34-40.609,1.62-13.464,4.026-16.535,11.23-24.24,5.293-5.661,17.53-5.981,16.571-3.287C1581.312,1164.407,1576.972,1176.311,1575.495,1181.452Z" transform="translate(-1454.756 -1013.991)" fill="#ed7d2b"/>
        <g id="Grupo_29534" data-name="Grupo 29534" transform="translate(0 115.026)">
          <path id="Trazado_58680" data-name="Trazado 58680" d="M1434.445,1125.757l27.6,44.277h-46.959l-26.295-43.318Z" transform="translate(-1363.973 -1113.282)" fill="#1c468a"/>
          <path id="Trazado_58681" data-name="Trazado 58681" d="M1514.8,1166.155l.476-1.546-26.116-41.9-.524,1.394Z" transform="translate(-1418.169 -1111.627)" fill="#efdece"/>
          <path id="Trazado_58682" data-name="Trazado 58682" d="M1434.969,1122.708l-44.238,1.26-1.941,1.092,45.656-.958Z" transform="translate(-1363.973 -1111.627)" fill="#fcecdb"/>
          <path id="Trazado_58683" data-name="Trazado 58683" d="M1359.33,1111.906l-24.817-13.433,28.929,45.428,22.184,11.323Z" transform="translate(-1334.513 -1098.474)" fill="#163560"/>
        </g>
        <path id="Trazado_58684" data-name="Trazado 58684" d="M1593.551,1179.8c-2.658,1.215-9.481,9.252-11.917,10.068-10.95,3.663-57.552-6.086-57.552-6.086l1.443-8.162s45.74,1.215,50.768-.13c.947-.255,5.89-7.986,7.79-9.1Z" transform="translate(-1437.405 -1020.31)" fill="#ffb27d"/>
        <path id="Trazado_58685" data-name="Trazado 58685" d="M1496.342,1182.263s-5.516-4.49-9.243-3.474-9.211,5.729-11.247,6.845-7.569,5.108-4.765,7.522,11.534.341,14.992-1.509,8.82-1.219,8.82-1.219Z" transform="translate(-1408.219 -1026.959)" fill="#ffb27d"/>
        <path id="Trazado_58686" data-name="Trazado 58686" d="M1497.75,1177.74s-6.7-.8-8.535-.763-1.333.438-.323,1.859,4.5,1.964,4.661,2.461S1497.75,1177.74,1497.75,1177.74Z" transform="translate(-1417.814 -1026.055)" fill="#ffb27d"/>
        <path id="Trazado_58687" data-name="Trazado 58687" d="M1569.137,1028.043s19.879,2.358,25.353,10.883c6.921,10.778,23.253,53.706,22.727,64.523,0,0-11.942,20.323-52.89,17.071,0,0-4.26-15.047,4.353-20.016,0,0,21.032-3.74,23.455-5.874l-17.148-31.163Z" transform="translate(-1458.676 -945.22)" fill="#f99746"/>
        <path id="Trazado_58688" data-name="Trazado 58688" d="M1388.253,1161.68c-.616-2.5-6.078-.94-7.918.5a7.483,7.483,0,0,0-1.4,1.645c-.057-.419-.107-.82-.135-1.133-.1-1.177-1.474-3.284-1.814-1.706s-.9,8.207-.9,8.207c-.067,5.34,3.366,7.543,5.571,5.805S1388.869,1164.184,1388.253,1161.68Z" transform="translate(-1357.077 -1017.036)" fill="#ffb27d"/>
      </g>
      <g id="Grupo_29533" data-name="Grupo 29533" transform="translate(130.176 158.418)">
        <g id="Grupo_29524" data-name="Grupo 29524" transform="translate(66.429 114.633)">
          <g id="Grupo_29523" data-name="Grupo 29523">
            <path id="Rectángulo_6085" data-name="Rectángulo 6085" d="M0,0H254.538a49.684,49.684,0,0,1,49.684,49.684v0A50.811,50.811,0,0,1,253.411,100.5H0a0,0,0,0,1,0,0V0A0,0,0,0,1,0,0Z" transform="translate(14.114 0.001)" fill="#fcecdb"/>
            <path id="Trazado_58652" data-name="Trazado 58652" d="M2227.5,1485.434v15.118a46.12,46.12,0,0,1-5.579,22.147c-7.127,13.086-20.383,21.88-35.56,21.88H1688.234a6.185,6.185,0,0,1-5.967-6.381v-2.264a6.185,6.185,0,0,1,5.967-6.381H1991.89a41.606,41.606,0,0,0,4.262-6.854,43.167,43.167,0,0,0,4.451-19.213v-19.219a42.742,42.742,0,0,0-1.229-10.227,41.247,41.247,0,0,0-7.042-14.922h-304.1a6.186,6.186,0,0,1-5.967-6.387v-2.258a6.186,6.186,0,0,1,5.967-6.387h500.638c17.642,0,32.522,12.659,37.141,29.954A43.977,43.977,0,0,1,2227.5,1485.434Z" transform="translate(-1682.268 -1444.086)" fill="#699dee"/>
            <path id="Trazado_58653" data-name="Trazado 58653" d="M2226.013,1474.04h-226.64a41.247,41.247,0,0,0-7.042-14.922h-304.1a6.186,6.186,0,0,1-5.967-6.387v-2.258a6.186,6.186,0,0,1,5.967-6.387h500.638C2206.514,1444.086,2221.394,1456.745,2226.013,1474.04Z" transform="translate(-1682.268 -1444.086)" fill="#548ee2"/>
          </g>
          <path id="Trazado_58654" data-name="Trazado 58654" d="M1713.136,1553.983l36.883,1.689-36.883,1.018Z" transform="translate(-1699.022 -1503.734)" fill="#f4d2b8"/>
          <path id="Trazado_58655" data-name="Trazado 58655" d="M1713.136,1588.469l87.748,1.689-87.748,1.017Z" transform="translate(-1699.022 -1522.452)" fill="#f4d2b8"/>
        </g>
        <g id="Grupo_29528" data-name="Grupo 29528" transform="translate(4.382 214.918)">
          <g id="Grupo_29526" data-name="Grupo 29526" transform="translate(0 0)">
            <g id="Grupo_29525" data-name="Grupo 29525">
              <path id="Rectángulo_6086" data-name="Rectángulo 6086" d="M0,0H256.849a40.313,40.313,0,0,1,40.313,40.313v0a37.855,37.855,0,0,1-37.855,37.855H0a0,0,0,0,1,0,0V0A0,0,0,0,1,0,0Z" transform="translate(297.161 78.168) rotate(180)" fill="#f99746"/>
              <path id="Rectángulo_6087" data-name="Rectángulo 6087" d="M0,0H293.031a39.522,39.522,0,0,1,39.522,39.522v0a38.646,38.646,0,0,1-38.646,38.646H0a0,0,0,0,1,0,0V0A0,0,0,0,1,0,0Z" transform="translate(580.579 78.168) rotate(180)" fill="#fcecdb"/>
              <rect id="Rectángulo_6088" data-name="Rectángulo 6088" width="372.969" height="11.691" rx="5.845" transform="translate(596.005 78.168) rotate(180)" fill="#f99746"/>
              <rect id="Rectángulo_6089" data-name="Rectángulo 6089" width="372.969" height="11.691" rx="5.845" transform="translate(596.005 11.691) rotate(180)" fill="#f99746"/>
            </g>
            <path id="Trazado_58656" data-name="Trazado 58656" d="M2768.472,1748.9l-40.318,1.313,40.318.792Z" transform="translate(-2187.893 -1709.812)" fill="#f4d2b8"/>
            <path id="Trazado_58657" data-name="Trazado 58657" d="M2702.47,1709.552l-95.92,1.314,95.92.791Z" transform="translate(-2121.891 -1688.457)" fill="#f4d2b8"/>
          </g>
          <g id="Grupo_29527" data-name="Grupo 29527" transform="translate(485.647 22.147)">
            <path id="Trazado_58658" data-name="Trazado 58658" d="M2608.711,1711.853a18.146,18.146,0,0,1,5.471,8.879,14.52,14.52,0,0,1,.426,3.089c.227,7.335,0,23.936,0,23.936l12.136-8.3,12.1,8.3v-22.5c0-4.255-1.039-8.393-2.967-11.1-.935-1.313-2.069-2.3-3.353-2.3Z" transform="translate(-2608.711 -1711.853)" fill="#699dee"/>
            <path id="Trazado_58659" data-name="Trazado 58659" d="M2608.711,1711.853a18.146,18.146,0,0,1,5.471,8.879l24.32.329s-.954-7.9-5.973-9.208Z" transform="translate(-2608.711 -1711.853)" fill="#568cdb"/>
          </g>
        </g>
        <g id="Grupo_29532" data-name="Grupo 29532">
          <g id="Grupo_29530" data-name="Grupo 29530">
            <g id="Grupo_29529" data-name="Grupo 29529">
              <path id="Rectángulo_6090" data-name="Rectángulo 6090" d="M0,0H240.77a56.779,56.779,0,0,1,56.779,56.779v0a58.066,58.066,0,0,1-58.066,58.066H0a0,0,0,0,1,0,0V0A0,0,0,0,1,0,0Z" transform="translate(13.802)" fill="#fcecdb"/>
              <path id="Trazado_58660" data-name="Trazado 58660" d="M1848.481,1237.94v24.717c-.063,10.556-4.956,19.715-12.146,24.612a21.223,21.223,0,0,1-11.977,3.777h-281.4c-3.3,0-5.972,3.194-5.972,7.132v2.916c0,3.938,2.674,7.132,5.972,7.132h486.129c13.95,0,26.275-8.282,33.721-20.957a55.693,55.693,0,0,0,7.451-28.216v-19.5a53.461,53.461,0,0,0-3.839-20.079c-6.251-15.442-19.491-26.091-34.818-26.091H1542.954c-3.3,0-5.972,3.188-5.972,7.126v2.916c0,3.938,2.674,7.132,5.972,7.132h282.264c6.745,0,12.852,3.43,17.117,8.917A30.381,30.381,0,0,1,1848.481,1237.94Z" transform="translate(-1536.983 -1193.378)" fill="#afcdfb"/>
              <path id="Trazado_58661" data-name="Trazado 58661" d="M1536.983,1409.628v2.916c0,3.938,2.674,7.132,5.972,7.132h486.129c13.95,0,26.275-8.282,33.721-20.957H1836.335a21.223,21.223,0,0,1-11.977,3.777h-281.4C1539.657,1402.5,1536.983,1405.689,1536.983,1409.628Z" transform="translate(-1536.983 -1304.829)" fill="#a4c4f4"/>
            </g>
            <path id="Trazado_58662" data-name="Trazado 58662" d="M1567.17,1318.963l36.074,1.931-36.074,1.163Z" transform="translate(-1553.367 -1261.54)" fill="#f4d2b8"/>
            <path id="Trazado_58663" data-name="Trazado 58663" d="M1567.17,1261.158l85.823,1.931-85.823,1.163Z" transform="translate(-1553.367 -1230.165)" fill="#f4d2b8"/>
          </g>
          <g id="Grupo_29531" data-name="Grupo 29531" transform="translate(57.214 32.539)">
            <path id="Trazado_58664" data-name="Trazado 58664" d="M1703.642,1264.541s-5.664,3.642-7.54,9.628a12.648,12.648,0,0,0-.588,3.348c-.312,7.953,0,25.953,0,25.953l-16.722-9-16.679,9v-24.4c0-4.613,1.432-9.1,4.089-12.039a6.477,6.477,0,0,1,4.62-2.495Z" transform="translate(-1662.113 -1264.541)" fill="#f99746"/>
            <path id="Trazado_58665" data-name="Trazado 58665" d="M1704.208,1264.541s-5.664,3.642-7.54,9.628l-33.511.356s1.315-8.571,8.23-9.984Z" transform="translate(-1662.68 -1264.541)" fill="#ed7d2b"/>
          </g>
        </g>
      </g>
    </g>
    <g id="Grupo_29519" data-name="Grupo 29519" transform="translate(1326.957 917.698)">
      <path id="Trazado_58608" data-name="Trazado 58608" d="M2370.236,1645.514l-6.922,29.152-10.368-.059-.38-29.093Z" transform="translate(-2207.483 -1259.179)" fill="#e49963"/>
      <path id="Trazado_58609" data-name="Trazado 58609" d="M2201.275,1644.568l-19.695,27.91-7.676-9.855,11.854-21.891Z" transform="translate(-2125.732 -1256.99)" fill="#e49963"/>
      <path id="Trazado_58610" data-name="Trazado 58610" d="M2309.28,936.529c3.58-2.035,7.868-2.257,10.869-2.079a5.082,5.082,0,0,0-2.292-1.088c1.861-.277,6.013,1.569,6.013,1.569,25.878-9.972,29.945,28.132,29.4,36.984s8.7,11.743,22.16,18.717c25.689,13.308,27.945,31.128,27.945,31.128-.2.118-.409.253-.631.406-1.274-2.159-3.9-6.214-6.111-6.827a91.591,91.591,0,0,1,3.559,8.67c-7.578,5.765-21.755,18.538-31.636,27.6.044-1.77-.026-4.284-.673-5.61l-1.221,7.351c-5.287,4.861-8.933,8.28-8.933,8.28.653-7.153-32.354-44.9-49.574-56.211-4.192-6.171-5.682-17.073-5.793-17.932.724,8.644,2.2,13.493,3.524,16.223C2291.3,990.286,2299.793,941.92,2309.28,936.529Z" transform="translate(-2182.535 -933.281)" fill="#163560"/>
      <path id="Trazado_58611" data-name="Trazado 58611" d="M2318.564,1045.795c-.086.039,8.314,4.4,14.633,2.672,5.944-1.62,9.828-9.328,9.746-9.345-2.518-.5-3.243-3.958-3.19-18.823l-1.138.224-19.134,3.789s.436,6.021.449,11.694C2319.944,1040.769,2319.655,1045.286,2318.564,1045.795Z" transform="translate(-2191.925 -973.098)" fill="#e49963"/>
      <path id="Trazado_58612" data-name="Trazado 58612" d="M2340.5,946.873s-9.439-10.049-21.289-.514C2319.208,946.359,2326.1,945.166,2340.5,946.873Z" transform="translate(-2192.219 -937.385)" fill="#e37970"/>
      <path id="Trazado_58613" data-name="Trazado 58613" d="M2320.257,1024.5s.436,6.021.448,11.694c10.707-.3,16.366-10.068,18.685-15.482Z" transform="translate(-2192.699 -973.287)" fill="#d68d5d"/>
      <path id="Trazado_58614" data-name="Trazado 58614" d="M2331.2,983.709s5.611-8.865,6.958-16.446c.961-5.412-1.8-25.473-21.955-22.584a27.4,27.4,0,0,0-11.359,4.294c-4.377,2.956-10.693,9.338-3.631,26.844l1.835,5.914Z" transform="translate(-2182.535 -938.366)" fill="#163560"/>
      <path id="Trazado_58615" data-name="Trazado 58615" d="M2179.666,1481.861l10.142.31,10.978.336s25.358-28.232,39.581-73.491q.5-1.578,1.052-3.194c7.785-22.7,23.922-51.189,32.427-76.978,1.354-4.107,2.569-7.974,3.66-11.633.349-1.172.689-2.323,1.013-3.457,6.267-21.776,8.082-36.072,9.755-51.348l-61.409.491S2216.95,1367.206,2179.666,1481.861Z" transform="translate(-2128.369 -1083.879)" fill="#2b478b"/>
      <path id="Trazado_58616" data-name="Trazado 58616" d="M2275.019,1131.125c.155,29.222-4.287,41.759-4.287,41.759s26.292,13.359,57.542,3.526c.368-.116,25.875-5.937,25.875-5.937-.523-1.183-5.174-20.876-5.684-21.961-6.6-14.169-11.607-20.381-12.389-24.737a92.64,92.64,0,0,1-.76-24.483,196.5,196.5,0,0,1,7.577-38.447c-8.514-1.937-16.488-5.342-25.35-8.665-2.039,2.538-8.27,5.194-13.676,5.073-6.225-.137-8.243-2.8-7.92-5.712-6.634,3.692-11.926,7.178-11.926,7.178-5.638,9.793-17.072,19.3-17.9,34.325C2265.916,1096.739,2275.014,1130.307,2275.019,1131.125Z" transform="translate(-2167.927 -987.394)" fill="#e7f1fd"/>
      <path id="Trazado_58617" data-name="Trazado 58617" d="M2172.905,1087.713c9.014-10.531,32.371-33.369,56.473-36.171l-20.8,40.518a17.928,17.928,0,0,1-7.328,10.991c-15.086,9.914-34.267,14.3-34.267,14.3s-12.99-5.667-30.747-18.678c-5.573-4.084-15.367-19.661-15.367-19.661l2.642-8.839s16.628,9.3,22.568,11.977c3.386,1.529,11.178,5.177,16.669,7.756A8.569,8.569,0,0,0,2172.905,1087.713Z" transform="translate(-2101.466 -987.394)" fill="#a8d29f"/>
      <path id="Trazado_58618" data-name="Trazado 58618" d="M2306.548,1001.541s25.332.418,25.35-15.362,3.3-26.353-12.875-27.287-19.323,5.084-20.609,10.349S2299.959,1001.026,2306.548,1001.541Z" transform="translate(-2182.566 -944.956)" fill="#e49963"/>
      <path id="Trazado_58619" data-name="Trazado 58619" d="M2315.394,955.556s6.936,18.512,17.58,21.25,15.261-.115,15.261-.115a30.143,30.143,0,0,1-9.859-17.808S2320.626,946.745,2315.394,955.556Z" transform="translate(-2190.474 -942.006)" fill="#163560"/>
      <path id="Trazado_58620" data-name="Trazado 58620" d="M2307.743,958.486s-5.18,4.133-6.443,8.152-1.831,12.29-4.241,12.009c0,0-5.226-12.583.647-19.7C2303.933,951.4,2307.743,958.486,2307.743,958.486Z" transform="translate(-2181.104 -943.433)" fill="#163560"/>
      <path id="Trazado_58621" data-name="Trazado 58621" d="M2107.143,1076.409s-3.571-12.871-17.72-11.052c-1.623.509-6.368,2.4-3.335,7.481,2.235,3.745,3.2,1.813,6.72,6.845s7.333,6.168,11.694,5.566Z" transform="translate(-2085.096 -993.634)" fill="#e49963"/>
      <path id="Trazado_58622" data-name="Trazado 58622" d="M2361.709,1696.254a28.1,28.1,0,0,0,1.32,11.952s1.7,7.731-5.918,7.876-9.483-.575-8.62-5.316,2.5-12.941,2.5-12.941Z" transform="translate(-2205.53 -1282.396)" fill="#e49963"/>
      <path id="Trazado_58623" data-name="Trazado 58623" d="M2347.323,1729.3s.163.1.478.253h14.906a3.575,3.575,0,0,0,.421-.253c.861-3.88-.545-11.179-.545-11.179-8.625,7.9-14.021-.2-14.021-.2C2347.161,1721.3,2347.323,1729.3,2347.323,1729.3Z" transform="translate(-2205.082 -1292.312)" fill="#82b378"/>
      <path id="Trazado_58624" data-name="Trazado 58624" d="M2140.071,1704.6s14.039-15.583,18.349-23.512l10.439,5.348-23.336,21.915-5.459-.719Z" transform="translate(-2110.248 -1275.457)" fill="#e49963"/>
      <path id="Trazado_58625" data-name="Trazado 58625" d="M2124.017,1717.21h19.211c1.851-1.383,3.578-4.583,5.726-8.878,1.143-2.291,3.717-3.554,6.357-4.247v12.978h3.985l3.774-13.8c2.483-4.568.2-8.71-1.555-12.317-2.033,0-7.5,1.387-17.876,13.074-3.411,3.836-7.175,5.209-10.911,5.089a.942.942,0,0,1-.153.081C2126.318,1712.006,2124.529,1715.5,2124.017,1717.21Z" transform="translate(-2102.905 -1279.968)" fill="#82b378"/>
      <path id="Trazado_58626" data-name="Trazado 58626" d="M2288.748,1051.542s-14.656,36.208-15.088,43.535-1.724,119.826-1.724,119.826.862,5.173-9.052,3.018-12.5-4.311-12.5-4.311,9.483-69.4,6.9-93.533,19.827-63.506,19.827-63.506Z" transform="translate(-2160.728 -987.394)" fill="#a8d29f"/>
      <path id="Trazado_58627" data-name="Trazado 58627" d="M2198.363,1519.7l10.978.336s25.358-28.232,39.582-73.491q.5-1.578,1.052-3.194c7.784-22.7,23.922-51.189,32.427-76.978,1.354-4.107,2.57-7.974,3.66-11.633.349-1.172.689-2.323,1.013-3.457l-9.043-6.862s-27.151,43.965-35.556,85.339C2235.173,1465.7,2205.932,1508.944,2198.363,1519.7Z" transform="translate(-2136.924 -1121.407)" fill="#233862"/>
      <path id="Trazado_58628" data-name="Trazado 58628" d="M2251.507,1157.71l.533,1.64,28.421-9.238a1.1,1.1,0,0,0,.18-1.012.807.807,0,0,0-.713-.628Z" transform="translate(-2161.241 -1031.746)" fill="#163560"/>
      <path id="Trazado_58629" data-name="Trazado 58629" d="M2338.4,1423.77c-.156,20.12.862,66.378,3.482,85.529h9.724c5.375,0,8.056-.078,8.056-.078,6.573-33.3,11.25-60.849,14.655-84.589,2.793-19.483,5.276-36.185,7.186-50.564,1.922-14.47,3.258-26.587,3.737-36.823.073-1.612.13-3.181.159-4.7s.039-3.017.026-4.461l-53.06-5.173C2333.038,1358.163,2338.491,1412.077,2338.4,1423.77Z" transform="translate(-2198.242 -1111.564)" fill="#2b478b"/>
      <path id="Trazado_58630" data-name="Trazado 58630" d="M2367.842,1521.393c5.375,0,8.056-.078,8.056-.078,6.573-33.3,11.25-60.849,14.655-84.589,2.793-19.483,5.276-36.185,7.186-50.564,1.922-14.47,3.258-26.587,3.737-36.823l-19.469,11.452s12.427,4.383,7.685,37.573S2374.441,1516.695,2367.842,1521.393Z" transform="translate(-2214.473 -1123.658)" fill="#233862"/>
      <path id="Trazado_58631" data-name="Trazado 58631" d="M2347.927,1213.371s3.737,13.5,16.668,11.78,31.319-9.483,31.319-9.483-5.526-17.461-12.4-40.4c-8.319-27.771-18.617-63.572-23.47-86.154a139.851,139.851,0,0,1-2.638-15.4l-10.729-20.815s-16,35.9-16.858,44.952S2347.927,1213.371,2347.927,1213.371Z" transform="translate(-2197.064 -988.016)" fill="#a8d29f"/>
      <path id="Trazado_58632" data-name="Trazado 58632" d="M2344.865,1096.506l-14.159-43.6c.038.018,17.882,5.31,26.859,9.845,0,0,5.61,7.233,9.083,23.922,0,0,3.667,40.065-4.522,54.72,0,0-25.862,5.172-67.241-9.052v-9.483s45.258,2.371,54.525,3.449Z" transform="translate(-2181.089 -988.016)" fill="#e49963"/>
      <path id="Trazado_58633" data-name="Trazado 58633" d="M2364.27,1147.366c.578,14.655,4.026,43.1,34.771,58.332.081.038.164.082.246.116-8.319-27.771-18.617-63.572-23.47-86.154C2370.171,1128.1,2363.956,1139.3,2364.27,1147.366Z" transform="translate(-2212.833 -1018.563)" fill="#82b378"/>
      <path id="Trazado_58634" data-name="Trazado 58634" d="M2359.644,1052.9s26.247,1.849,32.569,15.93,8.333,60.919.288,74.712c0,0-11.077,3.155-30.669-.509l-.724-.138s-6.25-15.3-.647-18.319c0,0,16.523.862,14.8-4.6S2359.644,1052.9,2359.644,1052.9Z" transform="translate(-2210.027 -988.016)" fill="#a8d29f"/>
      <path id="Trazado_58635" data-name="Trazado 58635" d="M2284.344,1171.346s-3.605-4.37-4.374-8.831-3.155-7.77-9.378-8.587-8.9-.906-8.883.848,5.084,14,14.014,21.315S2284.344,1171.346,2284.344,1171.346Z" transform="translate(-2165.909 -1033.985)" fill="#e49963"/>
      <path id="Trazado_58636" data-name="Trazado 58636" d="M2247.739,1167.085l2.043-1.582.533,1.64Z" transform="translate(-2159.517 -1039.539)" fill="#163560"/>
    </g>
    <path id="Trazado_58637" data-name="Trazado 58637" d="M1968.5,1002.616a1.187,1.187,0,0,1-.621-.174L1801.888,901.508a1.2,1.2,0,0,1,1.243-2.043L1969.121,1000.4a1.2,1.2,0,0,1-.622,2.217Z" transform="translate(-628.288 -0.03)" fill="#163560"/>
    <path id="Rectángulo_6091" data-name="Rectángulo 6091" d="M.683,0H847.8a.683.683,0,0,1,.683.683v0a.683.683,0,0,1-.683.683H.683A.683.683,0,0,1,0,.683v0A.683.683,0,0,1,.683,0Z" transform="translate(693.543 1355.306)" fill="#2e3552"/>
  </g>
</svg>
