<svg id="Grupo_24038" data-name="Grupo 24038" xmlns="http://www.w3.org/2000/svg" width="277.547" height="363.249" viewBox="0 0 277.547 363.249">
  <path id="Trazado_49036" data-name="Trazado 49036" d="M2141.943,1576.68l-3.6,15.157-5.39-.03-.2-15.127Z" transform="translate(-1900.351 -1239.899)" fill="#e49963"/>
  <path id="Trazado_49037" data-name="Trazado 49037" d="M1975.5,1574.084l-10.24,14.511-3.991-5.124,6.162-11.382Z" transform="translate(-1779.25 -1236.656)" fill="#e49963"/>
  <path id="Trazado_49038" data-name="Trazado 49038" d="M2086.263,894.731a10.441,10.441,0,0,1,5.651-1.081,2.643,2.643,0,0,0-1.192-.566,8.756,8.756,0,0,1,3.126.816c13.455-5.184,15.57,14.626,15.287,19.229s4.521,6.1,11.522,9.731c13.356,6.919,14.529,16.184,14.529,16.184-.1.062-.213.131-.328.211-.662-1.122-2.026-3.23-3.177-3.549a47.738,47.738,0,0,1,1.851,4.508c-3.94,3-11.312,9.639-16.449,14.347a7.555,7.555,0,0,0-.349-2.917l-.635,3.823c-2.75,2.527-4.645,4.3-4.645,4.3.34-3.719-16.821-23.347-25.774-29.226-2.181-3.208-2.955-8.877-3.013-9.323.376,4.495,1.145,7.016,1.833,8.435C2076.917,922.68,2081.331,897.533,2086.263,894.731Z" transform="translate(-1863.394 -757.127)" fill="#163560"/>
  <path id="Trazado_49039" data-name="Trazado 49039" d="M2100.118,989.822c-.045.02,4.323,2.288,7.608,1.389,3.09-.842,5.109-4.85,5.067-4.859-1.309-.26-1.686-2.058-1.659-9.787l-.591.117-9.948,1.97s.226,3.131.233,6.08C2100.836,987.209,2100.685,989.557,2100.118,989.822Z" transform="translate(-1877.303 -816.111)" fill="#e49963"/>
  <path id="Trazado_49040" data-name="Trazado 49040" d="M2101.744,978.933s.226,3.131.233,6.08c5.566-.157,8.509-5.235,9.713-8.05Z" transform="translate(-1878.452 -816.391)" fill="#d68d5d"/>
  <path id="Trazado_49041" data-name="Trazado 49041" d="M2097.662,924.15s2.917-4.609,3.618-8.551c.5-2.814-.933-13.245-11.415-11.742a14.235,14.235,0,0,0-5.906,2.232c-2.275,1.537-5.56,4.855-1.888,13.957l.954,3.075Z" transform="translate(-1863.394 -764.662)" fill="#163560"/>
  <path id="Trazado_49042" data-name="Trazado 49042" d="M1966.8,1323.054l5.273.161,5.708.175a112.67,112.67,0,0,0,20.58-38.21q.257-.82.546-1.661c4.047-11.8,12.438-26.614,16.859-40.023.7-2.135,1.336-4.145,1.9-6.048.181-.609.359-1.208.527-1.8a142.2,142.2,0,0,0,5.072-26.7l-31.928.256A595.153,595.153,0,0,1,1966.8,1323.054Z" transform="translate(-1783.155 -980.217)" fill="#2b478b"/>
  <path id="Trazado_49043" data-name="Trazado 49043" d="M2054.406,1047.932c.081,15.194-2.229,21.712-2.229,21.712a42.9,42.9,0,0,0,29.918,1.833c.191-.06,12.219-2.474,12.219-2.474-.272-.615-3.589-11.125-3.855-11.69-3.431-7.366-3.9-10.939-4.309-13.2a48.227,48.227,0,0,1-.4-12.729,102.144,102.144,0,0,1,3.94-19.99c-4.427-1.007-8.573-2.777-13.18-4.505-1.06,1.319-4.3,2.7-7.111,2.638-3.236-.072-4.287-1.457-4.118-2.97-3.448,1.919-6.2,3.732-6.2,3.732-2.932,5.092-8.876,10.036-9.307,17.846C2049.674,1030.054,2054.4,1047.507,2054.406,1047.932Z" transform="translate(-1841.754 -837.288)" fill="#e7f1fd"/>
  <path id="Trazado_49044" data-name="Trazado 49044" d="M1937.417,1025.361c4.688-5.476,16.831-17.349,29.363-18.807l-10.813,21.067a9.325,9.325,0,0,1-3.811,5.714c-7.844,5.155-17.816,7.433-17.816,7.433a93.6,93.6,0,0,1-15.987-9.712c-2.9-2.123-7.989-10.222-7.989-10.222l1.373-4.6s8.646,4.833,11.734,6.227c1.76.795,5.812,2.692,8.666,4.033A4.456,4.456,0,0,0,1937.417,1025.361Z" transform="translate(-1743.303 -837.288)" fill="#699dee"/>
  <path id="Trazado_49045" data-name="Trazado 49045" d="M2084.873,939.757s13.171.217,13.181-7.987,1.715-13.7-6.694-14.187-10.046,2.643-10.715,5.381S2081.448,939.489,2084.873,939.757Z" transform="translate(-1863.44 -774.422)" fill="#e49963"/>
  <path id="Trazado_49046" data-name="Trazado 49046" d="M2097.076,913.012s3.606,9.625,9.141,11.048,7.935-.06,7.935-.06a15.669,15.669,0,0,1-5.125-9.259S2099.8,908.431,2097.076,913.012Z" transform="translate(-1875.155 -770.053)" fill="#163560"/>
  <path id="Trazado_49047" data-name="Trazado 49047" d="M2084.09,915.906s-2.694,2.149-3.35,4.238-.952,6.39-2.206,6.244c0,0-2.716-6.542.336-10.243C2082.109,912.221,2084.09,915.906,2084.09,915.906Z" transform="translate(-1861.275 -772.166)" fill="#163560"/>
  <path id="Trazado_49048" data-name="Trazado 49048" d="M1887.487,1025.484a8.221,8.221,0,0,0-9.214-5.746c-.844.264-3.311,1.248-1.734,3.889,1.162,1.947,1.666.942,3.494,3.558s3.813,3.207,6.08,2.894Z" transform="translate(-1719.053 -846.533)" fill="#e49963"/>
  <path id="Trazado_49049" data-name="Trazado 49049" d="M2135.631,1625.383a14.607,14.607,0,0,0,.687,6.214s.882,4.02-3.077,4.095-4.93-.3-4.482-2.764,1.3-6.729,1.3-6.729Z" transform="translate(-1897.458 -1274.292)" fill="#e49963"/>
  <path id="Trazado_49050" data-name="Trazado 49050" d="M2127.721,1652.1s.084.052.249.132h7.75a1.864,1.864,0,0,0,.219-.132c.447-2.017-.284-5.812-.284-5.812-4.484,4.109-7.29-.1-7.29-.1C2127.636,1647.939,2127.721,1652.1,2127.721,1652.1Z" transform="translate(-1896.794 -1288.98)" fill="#d86713"/>
  <path id="Trazado_49051" data-name="Trazado 49051" d="M1928.789,1623.051s7.3-8.1,9.54-12.225l5.428,2.781L1931.624,1625l-2.838-.374Z" transform="translate(-1756.311 -1264.012)" fill="#e49963"/>
  <path id="Trazado_49052" data-name="Trazado 49052" d="M1913.383,1633.943h9.989c.962-.719,1.86-2.382,2.977-4.616a4.893,4.893,0,0,1,3.3-2.208v6.747h2.072l1.962-7.173c1.291-2.375.1-4.528-.808-6.4-1.057,0-3.9.721-9.294,6.8a7.067,7.067,0,0,1-5.673,2.647.516.516,0,0,1-.08.042C1914.579,1631.238,1913.649,1633.056,1913.383,1633.943Z" transform="translate(-1745.435 -1270.694)" fill="#d86713"/>
  <path id="Trazado_49053" data-name="Trazado 49053" d="M2054.623,1006.555s-7.62,18.826-7.844,22.635-.9,62.3-.9,62.3.448,2.69-4.706,1.569-6.5-2.241-6.5-2.241,4.93-36.081,3.586-48.631,10.308-33.019,10.308-33.019Z" transform="translate(-1831.09 -837.288)" fill="#699dee"/>
  <path id="Trazado_49054" data-name="Trazado 49054" d="M1984.744,1378.807l5.708.174a112.657,112.657,0,0,0,20.58-38.21q.259-.82.547-1.66c4.047-11.8,12.438-26.615,16.859-40.023.7-2.136,1.335-4.146,1.9-6.049.181-.609.358-1.208.526-1.8l-4.7-3.568s-14.117,22.859-18.486,44.371C2003.883,1350.731,1988.679,1373.215,1984.744,1378.807Z" transform="translate(-1795.828 -1035.809)" fill="#233862"/>
  <path id="Trazado_49055" data-name="Trazado 49055" d="M2116.507,1319.468c-.08,10.461.449,34.512,1.812,44.469h5.056c2.795,0,4.189-.04,4.189-.04,3.417-17.313,5.849-31.637,7.619-43.981,1.452-10.13,2.743-18.813,3.736-26.289,1-7.524,1.693-13.823,1.942-19.146.039-.838.068-1.654.083-2.445s.021-1.569.014-2.32l-27.587-2.689C2113.717,1285.357,2116.553,1313.388,2116.507,1319.468Z" transform="translate(-1886.661 -1021.228)" fill="#2b478b"/>
  <path id="Trazado_49056" data-name="Trazado 49056" d="M2147.418,1381.851c2.794,0,4.189-.04,4.189-.04,3.417-17.313,5.849-31.637,7.619-43.981,1.453-10.13,2.744-18.813,3.736-26.29,1-7.523,1.695-13.823,1.944-19.145l-10.123,5.954s6.461,2.279,3.995,19.535S2150.849,1379.409,2147.418,1381.851Z" transform="translate(-1910.705 -1039.143)" fill="#233862"/>
  <path id="Trazado_49057" data-name="Trazado 49057" d="M2120.327,1091.293s1.944,7.022,8.667,6.125,16.283-4.93,16.283-4.93-2.873-9.078-6.446-21.005c-4.325-14.439-9.679-33.053-12.2-44.794a72.535,72.535,0,0,1-1.372-8.005l-5.578-10.822s-8.316,18.666-8.765,23.372S2120.327,1091.293,2120.327,1091.293Z" transform="translate(-1884.917 -838.211)" fill="#699dee"/>
  <path id="Trazado_49058" data-name="Trazado 49058" d="M2143.984,1086.343c.3,7.62,2.094,22.411,18.078,30.328.043.02.085.042.128.06-4.325-14.439-9.679-33.053-12.2-44.794C2147.053,1076.326,2143.82,1082.148,2143.984,1086.343Z" transform="translate(-1908.276 -883.461)" fill="#4a75cb"/>
  <g id="Grupo_24037" data-name="Grupo 24037">
    <rect id="Rect치ngulo_4966" data-name="Rect치ngulo 4966" width="7.13" height="28.353" transform="translate(140.769 145.81) rotate(-45)" fill="#2b478b"/>
    <rect id="Rect치ngulo_4967" data-name="Rect치ngulo 4967" width="20.208" height="156.47" rx="10.104" transform="translate(152.618 166.907) rotate(-45)" fill="#c65447"/>
    <path id="Trazado_49059" data-name="Trazado 49059" d="M1366.342,455.026a83.851,83.851,0,1,0,118.583,0A83.851,83.851,0,0,0,1366.342,455.026Zm112.052,112.052a74.614,74.614,0,1,1,0-105.52A74.613,74.613,0,0,1,1478.393,567.078Z" transform="translate(-1341.782 -430.467)" fill="#c65447"/>
  </g>
  <path id="Trazado_49060" data-name="Trazado 49060" d="M2103.376,1030.531l-7.361-22.67c.02.009,9.3,2.761,13.964,5.118,0,0,2.917,3.761,4.723,12.438,0,0,1.907,20.831-2.352,28.45,0,0-13.446,2.689-34.96-4.706v-4.931s23.532,1.233,28.35,1.793Z" transform="translate(-1861.253 -838.211)" fill="#e49963"/>
  <path id="Trazado_49061" data-name="Trazado 49061" d="M2138.881,1007.861s13.646.961,16.934,8.282,4.334,31.674.15,38.845c0,0-5.759,1.64-15.946-.264l-.377-.072s-3.249-7.956-.336-9.525c0,0,8.591.448,7.694-2.39S2138.881,1007.861,2138.881,1007.861Z" transform="translate(-1904.12 -838.211)" fill="#699dee"/>
  <path id="Trazado_49062" data-name="Trazado 49062" d="M2057.315,1113.639a11.761,11.761,0,0,1-2.274-4.591c-.4-2.32-1.64-4.04-4.876-4.465s-4.626-.471-4.618.441,2.643,7.28,7.286,11.082S2057.315,1113.639,2057.315,1113.639Z" transform="translate(-1838.765 -906.307)" fill="#e49963"/>
</svg>
