<svg xmlns="http://www.w3.org/2000/svg" width="56.296" height="60.467" viewBox="0 0 56.296 60.467">
  <g id="FilledOutline" transform="translate(-24 -24)">
    <path id="Trazado_5342" data-name="Trazado 5342" d="M67.128,32h43.786a3.128,3.128,0,0,1,3.128,3.128V87.254a3.128,3.128,0,0,1-3.128,3.128h-6.255a3.128,3.128,0,0,1-3.128-3.128V82.041H64V35.128A3.128,3.128,0,0,1,67.128,32Z" transform="translate(-34.787 -6.957)" fill="#ccdce5"/>
    <path id="Trazado_5343" data-name="Trazado 5343" d="M67.128,32h43.786a3.128,3.128,0,0,1,3.128,3.128V40.34H64V35.128A3.128,3.128,0,0,1,67.128,32Z" transform="translate(-34.787 -6.957)" fill="#0093ba"/>
    <path id="Trazado_5344" data-name="Trazado 5344" d="M160,32h12.51v8.34H160Z" transform="translate(-118.277 -6.957)" fill="#047fa7"/>
    <path id="Trazado_5345" data-name="Trazado 5345" d="M352,32h9.383a3.128,3.128,0,0,1,3.128,3.128V40.34H352Z" transform="translate(-285.257 -6.957)" fill="#047fa7"/>
    <g id="Grupo_22681" data-name="Grupo 22681" transform="translate(29.213 33.383)">
      <path id="Trazado_5346" data-name="Trazado 5346" d="M64,96H76.51v8.34H64Z" transform="translate(-64 -96)" fill="#abbac2"/>
      <path id="Trazado_5347" data-name="Trazado 5347" d="M256,96h12.51v8.34H256Z" transform="translate(-230.979 -96)" fill="#abbac2"/>
      <path id="Trazado_5348" data-name="Trazado 5348" d="M352,160h12.51v8.34H352Z" transform="translate(-314.469 -151.66)" fill="#abbac2"/>
      <path id="Trazado_5349" data-name="Trazado 5349" d="M256,224h12.51v8.34H256Z" transform="translate(-230.979 -207.32)" fill="#abbac2"/>
      <path id="Trazado_5350" data-name="Trazado 5350" d="M160,160h12.51v8.34H160Z" transform="translate(-147.49 -151.66)" fill="#abbac2"/>
      <path id="Trazado_5351" data-name="Trazado 5351" d="M64,224H76.51v8.34H64Z" transform="translate(-64 -207.32)" fill="#abbac2"/>
      <path id="Trazado_5352" data-name="Trazado 5352" d="M352,288h12.51v8.34H352Z" transform="translate(-314.469 -262.979)" fill="#abbac2"/>
      <path id="Trazado_5353" data-name="Trazado 5353" d="M256,352h12.51v8.34H256Z" transform="translate(-230.979 -318.639)" fill="#abbac2"/>
      <path id="Trazado_5354" data-name="Trazado 5354" d="M352,416h12.51v5.213a3.128,3.128,0,0,1-3.128,3.128h-6.255A3.128,3.128,0,0,1,352,421.213Z" transform="translate(-314.469 -374.299)" fill="#abbac2"/>
      <path id="Trazado_5355" data-name="Trazado 5355" d="M160,288h12.51v8.34H160Z" transform="translate(-147.49 -262.979)" fill="#abbac2"/>
    </g>
    <path id="Trazado_5356" data-name="Trazado 5356" d="M60.148,347.808H35.128A3.128,3.128,0,0,1,32,344.68V333.213a3.128,3.128,0,0,1,3.128-3.128H40.34L42.425,328l2.085,2.085H60.148a3.128,3.128,0,0,1,3.128,3.128V344.68A3.128,3.128,0,0,1,60.148,347.808Z" transform="translate(-6.957 -264.384)" fill="#88bf40"/>
    <path id="Trazado_5357" data-name="Trazado 5357" d="M108.126,80.3V28.17a4.175,4.175,0,0,0-4.17-4.17H60.17A4.175,4.175,0,0,0,56,28.17v34.4h2.085V59.446H68.51v3.128H70.6V59.446H81.021v3.128h2.085V59.446H93.531V65.7H87.276v2.085h6.255v6.255H87.276v2.085h6.255V80.3a4.175,4.175,0,0,0,4.17,4.17h6.255A4.175,4.175,0,0,0,108.126,80.3ZM93.531,40.68H83.106V34.425H93.531Zm2.085-6.255h10.425V40.68H95.616ZM83.106,32.34V26.085H93.531V32.34Zm-2.085,0H70.6V26.085H81.021Zm0,2.085V40.68H70.6V34.425ZM68.51,40.68H58.085V34.425H68.51Zm0,2.085v6.255H58.085V42.765Zm2.085,0H81.021v6.255H70.6Zm12.51,0H93.531v6.255H83.106Zm12.51,0h10.425v6.255H95.616Zm10.425,8.34v6.255H95.616V51.106Zm0-22.936v4.17H95.616V26.085h8.34A2.088,2.088,0,0,1,106.041,28.17ZM60.17,26.085h8.34V32.34H58.085V28.17A2.088,2.088,0,0,1,60.17,26.085ZM58.085,57.361V51.106H68.51v6.255Zm12.51,0V51.106H81.021v6.255Zm12.51,0V51.106H93.531v6.255Zm12.51,2.085h10.425V65.7H95.616Zm10.425,8.34v6.255H95.616V67.786ZM95.616,80.3v-4.17h10.425V80.3a2.088,2.088,0,0,1-2.085,2.085H97.7A2.088,2.088,0,0,1,95.616,80.3Z" transform="translate(-27.83)" fill="#00104e"/>
    <path id="Trazado_5358" data-name="Trazado 5358" d="M88,56h2.085v2.085H88Z" transform="translate(-55.66 -27.83)" fill="#00104e"/>
    <path id="Trazado_5359" data-name="Trazado 5359" d="M120,56h2.085v2.085H120Z" transform="translate(-83.49 -27.83)" fill="#00104e"/>
    <path id="Trazado_5360" data-name="Trazado 5360" d="M184,56h6.255v2.085H184Z" transform="translate(-139.15 -27.83)" fill="#00104e"/>
    <path id="Trazado_5361" data-name="Trazado 5361" d="M280,56h6.255v2.085H280Z" transform="translate(-222.639 -27.83)" fill="#00104e"/>
    <path id="Trazado_5362" data-name="Trazado 5362" d="M376,56h6.255v2.085H376Z" transform="translate(-306.129 -27.83)" fill="#00104e"/>
    <path id="Trazado_5363" data-name="Trazado 5363" d="M57.361,337.723V326.255a4.175,4.175,0,0,0-4.17-4.17H37.985l-1.78-1.78a1.043,1.043,0,0,0-1.474,0l-1.78,1.78H28.17a4.175,4.175,0,0,0-4.17,4.17v11.468a4.175,4.175,0,0,0,4.17,4.17H53.191A4.175,4.175,0,0,0,57.361,337.723Zm-31.276,0V326.255a2.087,2.087,0,0,1,2.085-2.085h5.213a1.043,1.043,0,0,0,.737-.305l1.348-1.348,1.348,1.348a1.043,1.043,0,0,0,.737.305H53.191a2.088,2.088,0,0,1,2.085,2.085v11.468a2.088,2.088,0,0,1-2.085,2.085H28.17A2.088,2.088,0,0,1,26.085,337.723Z" transform="translate(0 -257.426)" fill="#00104e"/>
    <path id="Trazado_5364" data-name="Trazado 5364" d="M80,376h2.085v2.085H80Z" transform="translate(-48.702 -306.129)" fill="#00104e"/>
    <path id="Trazado_5365" data-name="Trazado 5365" d="M112,376h16.68v2.085H112Z" transform="translate(-76.532 -306.129)" fill="#00104e"/>
    <path id="Trazado_5366" data-name="Trazado 5366" d="M64,408H86.936v2.085H64Z" transform="translate(-34.787 -333.959)" fill="#00104e"/>
    <path id="Trazado_5367" data-name="Trazado 5367" d="M64,440H82.765v2.085H64Z" transform="translate(-34.787 -361.789)" fill="#00104e"/>
  </g>
</svg>
