<svg xmlns="http://www.w3.org/2000/svg" width="90" height="90" viewBox="0 0 90 90">
  <g id="Grupo_32832" data-name="Grupo 32832" transform="translate(-228 -2540)">
    <rect id="Rectángulo_15244" data-name="Rectángulo 15244" width="90" height="90" transform="translate(228 2540)" fill="#fff" opacity="0.01"/>
    <g id="aprobado_1_" data-name="aprobado (1)" transform="translate(236 2546.024)">
      <g id="Grupo_22675" data-name="Grupo 22675" transform="translate(1.087 3.054)">
        <path id="Trazado_5321" data-name="Trazado 5321" d="M40.98,315.18H21.071a13.569,13.569,0,0,0,0,27.138H40.98a13.569,13.569,0,1,0,0-27.138Z" transform="translate(-7.502 -270.89)" fill="#d6f6b2"/>
        <g id="Grupo_22673" data-name="Grupo 22673" transform="translate(15.365 0)">
          <path id="Trazado_5322" data-name="Trazado 5322" d="M157.384,131.32,124.116,98.053l-6.562,6.562a13.569,13.569,0,0,0,0,19.189l14.078,14.078a13.569,13.569,0,0,0,19.189,0Z" transform="translate(-113.58 -85.215)" fill="#407093"/>
          <path id="Trazado_5323" data-name="Trazado 5323" d="M123.151,110.214a13.568,13.568,0,0,0-.024,19.165l-5.575-5.573a13.567,13.567,0,0,1,0-19.189l6.562-6.562,5.6,5.6Z" transform="translate(-113.578 -85.216)" fill="#365e7d"/>
          <path id="Trazado_5324" data-name="Trazado 5324" d="M196.122,88.669,182.044,74.591A13.569,13.569,0,1,0,162.855,93.78l14.078,14.078a13.569,13.569,0,0,0,19.189-19.189Z" transform="translate(-152.318 -61.752)" fill="#95d6a4"/>
          <path id="Trazado_5325" data-name="Trazado 5325" d="M187.944,80.483a13.569,13.569,0,0,0-19.189,19.19l-5.894-5.894a13.569,13.569,0,0,1,19.19-19.189Z" transform="translate(-152.325 -61.751)" fill="#78c2a4"/>
          <path id="Trazado_5326" data-name="Trazado 5326" d="M284.006,41.107l4.548-4.548a13.986,13.986,0,1,0-8.389-8.389l-4.548,4.548a5.932,5.932,0,0,0,8.389,8.389Z" transform="translate(-250.659 -9.423)" fill="#d8aa8b"/>
          <path id="Trazado_5327" data-name="Trazado 5327" d="M275.611,41.108a5.932,5.932,0,0,1,0-8.389l4.548-4.548A13.985,13.985,0,0,1,303.2,13.52c-2.291-2.291-8.576.279-14.037,5.741-3.962,3.962-6.4,8.356-6.567,11.344l-4.548,4.548c-2.317,2.317-3.407,4.983-2.436,5.955Z" transform="translate(-250.654 -9.423)" fill="#ce9875"/>
        </g>
        <g id="Grupo_22674" data-name="Grupo 22674" transform="translate(7.96 48.045)">
          <path id="Trazado_5328" data-name="Trazado 5328" d="M80.406,344.638a1.6,1.6,0,0,0-.721-2.141l-2.473-1.225a1.6,1.6,0,0,0-2.141.721l-4.895,9.876-2.384-3.986a1.6,1.6,0,0,0-2.191-.551l-2.369,1.416a1.6,1.6,0,0,0-.551,2.191l4.7,7.856a1.6,1.6,0,0,0,1.433.777l3.33-.131a1.6,1.6,0,0,0,1.367-.887Z" transform="translate(-62.455 -341.105)" fill="#95d6a4"/>
        </g>
      </g>
      <g id="Grupo_22676" data-name="Grupo 22676" transform="translate(0 1.976)">
        <path id="Trazado_5329" data-name="Trazado 5329" d="M74.128,15.989a15.053,15.053,0,0,0-29.578-2.8,14.649,14.649,0,0,0-18.33,1.935l0,0-6.557,6.557a14.672,14.672,0,0,0,0,20.726L23.5,46.257H16.829a1.086,1.086,0,1,0,0,2.173h8.847l8.06,8.06A14.61,14.61,0,0,0,44.1,60.775a14.761,14.761,0,0,0,2.941-.3q.008.217.008.433A12.5,12.5,0,0,1,34.564,73.395H14.656a12.483,12.483,0,0,1-1.994-24.806,1.086,1.086,0,1,0-.344-2.145,14.656,14.656,0,0,0,2.337,29.124H34.564A14.673,14.673,0,0,0,49.22,60.912c0-.346-.013-.694-.038-1.041a14.568,14.568,0,0,0,5.279-3.381L61,49.956l.028-.027a14.652,14.652,0,0,0,1.945-18.317A15,15,0,0,0,67.9,29.284a1.086,1.086,0,1,0-1.269-1.763A12.884,12.884,0,0,1,54.714,29.17a1.087,1.087,0,0,0-1.137.253L49.03,33.97a4.846,4.846,0,0,1-6.853-6.853l4.548-4.548a1.087,1.087,0,0,0,.253-1.138A12.954,12.954,0,0,1,49.986,7.919a12.9,12.9,0,0,1,18.243,0,12.98,12.98,0,0,1,1.246,16.795,1.086,1.086,0,0,0,1.747,1.292,15.1,15.1,0,0,0,2.906-10.017Zm-21.2,38.964a12.5,12.5,0,0,1-17.653,0L21.195,40.876a12.482,12.482,0,0,1,0-17.653L22.32,22.1a14.762,14.762,0,0,0-.393,3.391A14.558,14.558,0,0,0,26.22,35.85L40.3,49.929a14.69,14.69,0,0,0,13.766,3.886ZM40.64,25.582a7.018,7.018,0,1,0,9.926,9.925l4.071-4.071a15.1,15.1,0,0,0,5.981.6,12.482,12.482,0,0,1-1.132,16.353h0l-.014.014a12.5,12.5,0,0,1-17.64-.013L27.756,34.313a12.481,12.481,0,0,1,0-17.651l0,0A12.482,12.482,0,0,1,44.123,15.54a15.054,15.054,0,0,0,.591,5.969Z" transform="translate(0 -1.976)"/>
        <path id="Trazado_5330" data-name="Trazado 5330" d="M58.636,339.988l-2.37,1.416a2.688,2.688,0,0,0-.926,3.68l4.7,7.856a2.682,2.682,0,0,0,2.3,1.307l.107,0,3.33-.131a2.679,2.679,0,0,0,2.3-1.49l6.9-13.915a2.683,2.683,0,0,0-1.212-3.6l-2.473-1.225a2.687,2.687,0,0,0-3.6,1.212l-4.011,8.092-1.362-2.278A2.687,2.687,0,0,0,58.636,339.988Zm1.816,2.041,2.384,3.986a1.086,1.086,0,0,0,1.906-.075l4.895-9.875a.512.512,0,0,1,.685-.231l2.473,1.225a.51.51,0,0,1,.231.685h0l-6.9,13.917a.508.508,0,0,1-.436.282l-3.33.131a.508.508,0,0,1-.457-.249l-4.7-7.856a.512.512,0,0,1,.176-.7l2.369-1.416a.511.511,0,0,1,.7.176Z" transform="translate(-47 -285.571)"/>
      </g>
    </g>
  </g>
</svg>
