<svg xmlns="http://www.w3.org/2000/svg" width="246.234" height="229" viewBox="0 0 246.234 229">
  <g id="Grupo_23347" data-name="Grupo 23347" transform="translate(-12.467 -40.592)">
    <g id="Floor" transform="translate(12.467 127.429)">
      <ellipse id="Floor-2" data-name="Floor" cx="123.117" cy="71.082" rx="123.117" ry="71.082" fill="#f0f0f0"/>
    </g>
    <g id="Shadows" transform="translate(19.342 141.465)">
      <ellipse id="Shadow" cx="18.27" cy="10.548" rx="18.27" ry="10.548" transform="translate(168.542 79.848)" fill="#e0e0e0"/>
      <path id="Shadow-2" data-name="Shadow" d="M46.655,313.075l-20.435-11.8a.8.8,0,0,1,0-1.509l112.628-65.026a2.889,2.889,0,0,1,2.613,0l20.436,11.8a.8.8,0,0,1,0,1.509L49.269,313.075A2.891,2.891,0,0,1,46.655,313.075Z" transform="translate(-25.679 -234.429)" fill="#e0e0e0"/>
    </g>
    <g id="Device" transform="translate(33.941 40.592)">
      <g id="PC">
        <g id="Monitor">
          <g id="Grupo_23258" data-name="Grupo 23258" transform="translate(46.083 111.35)">
            <g id="Grupo_23256" data-name="Grupo 23256" transform="translate(0.003)">
              <path id="Trazado_7013" data-name="Trazado 7013" d="M173.464,304.253l16.455-9.515c1.7-.979,2.544-2.262,2.544-3.546s.007-2.289.007-2.289l-19.8-11.219a3.62,3.62,0,0,1-1.638-2.837V254.561l-28.74,16.608v20.287a3.621,3.621,0,0,0,1.638,2.837l17.252,9.961A13.577,13.577,0,0,0,173.464,304.253Z" transform="translate(-142.289 -254.561)" fill="#4dd0e1"/>
            </g>
            <g id="Grupo_23257" data-name="Grupo 23257" transform="translate(0.003)" opacity="0.5">
              <path id="Trazado_7014" data-name="Trazado 7014" d="M173.464,304.253l16.455-9.515c1.7-.979,2.544-2.262,2.544-3.546s.007-2.289.007-2.289l-19.8-11.219a3.62,3.62,0,0,1-1.638-2.837V254.561l-28.74,16.608v20.287a3.621,3.621,0,0,0,1.638,2.837l17.252,9.961A13.577,13.577,0,0,0,173.464,304.253Z" transform="translate(-142.289 -254.561)"/>
            </g>
            <path id="Trazado_7015" data-name="Trazado 7015" d="M149.188,307.443v2.279l-5.268-3.035a3.624,3.624,0,0,1-1.636-2.837V283.565l5.476-3.159c.113,1.39.236,2.828.35,4.227l-3.84,2.223v15.849a3.6,3.6,0,0,0,1.636,2.837Z" transform="translate(-142.284 -266.956)" fill="#27debf"/>
            <path id="Trazado_7016" data-name="Trazado 7016" d="M149.188,307.443v2.279l-5.268-3.035a3.624,3.624,0,0,1-1.636-2.837V283.565l5.476-3.159c.113,1.39.236,2.828.35,4.227l-3.84,2.223v15.849a3.6,3.6,0,0,0,1.636,2.837Z" transform="translate(-142.284 -266.956)" opacity="0.7"/>
            <path id="Trazado_7017" data-name="Trazado 7017" d="M146.1,293.348a3.622,3.622,0,0,0,1.638,2.837L163,305a13.581,13.581,0,0,0,12.285,0l16.463-9.513c3.393-1.958,3.394-5.133,0-7.092l-15.275-8.819a3.622,3.622,0,0,1-1.638-2.837V260.889L146.1,277.5Z" transform="translate(-144.114 -257.596)" fill="#4dd0e1"/>
            <path id="Trazado_7018" data-name="Trazado 7018" d="M146.1,293.348a3.622,3.622,0,0,0,1.638,2.837L163,305a13.581,13.581,0,0,0,12.285,0l16.463-9.513c3.393-1.958,3.394-5.133,0-7.092l-15.275-8.819a3.622,3.622,0,0,1-1.638-2.837V260.889L146.1,277.5Z" transform="translate(-144.114 -257.596)" opacity="0.3"/>
            <path id="Trazado_7019" data-name="Trazado 7019" d="M179.814,281.506v0l-3.336-1.926a3.621,3.621,0,0,1-1.638-2.837V260.889L146.1,277.5v15.852a3.622,3.622,0,0,0,1.638,2.837l3.279,1.893Z" transform="translate(-144.114 -257.596)" fill="#27debf" opacity="0.7"/>
            <path id="Trazado_7020" data-name="Trazado 7020" d="M179.814,281.506v0l-3.336-1.926a3.621,3.621,0,0,1-1.638-2.837V260.889L146.1,277.5v15.852a3.622,3.622,0,0,0,1.638,2.837l3.279,1.893Z" transform="translate(-144.114 -257.596)" opacity="0.6"/>
            <path id="Trazado_7021" data-name="Trazado 7021" d="M215.8,320.558v2.288c0,1.286-.851,2.563-2.544,3.546L196.794,335.9a12.316,12.316,0,0,1-5.863,1.456v-2.279a12.322,12.322,0,0,0,5.863-1.457l16.457-9.518C214.944,323.13,215.8,321.844,215.8,320.558Z" transform="translate(-165.615 -286.213)" fill="#4dd0e1"/>
            <path id="Trazado_7022" data-name="Trazado 7022" d="M215.8,320.558v2.288c0,1.286-.851,2.563-2.544,3.546L196.794,335.9a12.316,12.316,0,0,1-5.863,1.456v-2.279a12.322,12.322,0,0,0,5.863-1.457l16.457-9.518C214.944,323.13,215.8,321.844,215.8,320.558Z" transform="translate(-165.615 -286.213)" opacity="0.2"/>
          </g>
          <path id="Trazado_7023" data-name="Trazado 7023" d="M55.653,209.58a4.394,4.394,0,0,0,3.969-.073l111.148-64.17a4.525,4.525,0,0,0,2.047-3.546V44.5a3.846,3.846,0,0,0-5.888-3.4L55.782,105.274a4.527,4.527,0,0,0-2.048,3.547v97.286A4.391,4.391,0,0,0,55.653,209.58Z" transform="translate(-53.732 -40.592)" fill="#4dd0e1"/>
          <path id="Trazado_7024" data-name="Trazado 7024" d="M55.653,209.58a4.394,4.394,0,0,0,3.969-.073l111.148-64.17a4.525,4.525,0,0,0,2.047-3.546V44.5a3.846,3.846,0,0,0-5.888-3.4L55.782,105.274a4.527,4.527,0,0,0-2.048,3.547v97.286A4.391,4.391,0,0,0,55.653,209.58Z" transform="translate(-53.732 -40.592)" opacity="0.3"/>
          <path id="Trazado_7025" data-name="Trazado 7025" d="M63.163,211.76l111.148-64.17a4.525,4.525,0,0,0,2.048-3.546V46.757c0-1.306-.917-1.835-2.048-1.182L63.164,109.745a4.526,4.526,0,0,0-2.047,3.546l0,97.286C61.115,211.883,62.032,212.412,63.163,211.76Z" transform="translate(-57.272 -42.848)" fill="#27debf"/>
          <path id="Trazado_7026" data-name="Trazado 7026" d="M63.163,211.76l111.148-64.17a4.525,4.525,0,0,0,2.048-3.546V46.757c0-1.306-.917-1.835-2.048-1.182L63.164,109.745a4.526,4.526,0,0,0-2.047,3.546l0,97.286C61.115,211.883,62.032,212.412,63.163,211.76Z" transform="translate(-57.272 -42.848)" fill="#4dd0e1"/>
          <path id="Trazado_7027" data-name="Trazado 7027" d="M63.163,211.76l111.148-64.17a4.525,4.525,0,0,0,2.048-3.546V46.757c0-1.306-.917-1.835-2.048-1.182L63.164,109.745a4.526,4.526,0,0,0-2.047,3.546l0,97.286C61.115,211.883,62.032,212.412,63.163,211.76Z" transform="translate(-57.272 -42.848)" opacity="0.5"/>
          <path id="Trazado_7028" data-name="Trazado 7028" d="M59.32,352.109a3.827,3.827,0,0,1-5.589-3.556V337.612l3.84,2.222v10.942C57.571,351.967,58.327,352.506,59.32,352.109Z" transform="translate(-53.731 -183.043)" fill="#4dd0e1"/>
          <path id="Trazado_7029" data-name="Trazado 7029" d="M59.32,352.109a3.827,3.827,0,0,1-5.589-3.556V337.612l3.84,2.222v10.942C57.571,351.967,58.327,352.506,59.32,352.109Z" transform="translate(-53.731 -183.043)" opacity="0.7"/>
          <path id="Trazado_7030" data-name="Trazado 7030" d="M61.116,280.559V291.5c0,1.306.917,1.835,2.048,1.182l111.148-64.17a4.525,4.525,0,0,0,2.048-3.546V214.024Z" transform="translate(-57.272 -123.77)" fill="#4dd0e1"/>
          <path id="Trazado_7031" data-name="Trazado 7031" d="M61.116,280.559V291.5c0,1.306.917,1.835,2.048,1.182l111.148-64.17a4.525,4.525,0,0,0,2.048-3.546V214.024Z" transform="translate(-57.272 -123.77)" opacity="0.5"/>
          <path id="Trazado_7032" data-name="Trazado 7032" d="M68.5,197.367v-77a2.715,2.715,0,0,1,1.229-2.128l105.1-60.68c.678-.392,1.228-.074,1.228.709l0,77a2.717,2.717,0,0,1-1.228,2.128L69.724,198.076C69.045,198.468,68.5,198.151,68.5,197.367Z" transform="translate(-60.812 -48.65)" fill="#fafafa"/>
          <path id="Trazado_7033" data-name="Trazado 7033" d="M170.067,286.233a4.247,4.247,0,0,0-1.921,3.327c0,1.225.86,1.721,1.921,1.109a4.246,4.246,0,0,0,1.921-3.327C171.988,286.117,171.128,285.621,170.067,286.233Z" transform="translate(-108.604 -158.276)" fill="#27debf"/>
          <path id="Trazado_7034" data-name="Trazado 7034" d="M170.067,286.233a4.247,4.247,0,0,0-1.921,3.327c0,1.225.86,1.721,1.921,1.109a4.246,4.246,0,0,0,1.921-3.327C171.988,286.117,171.128,285.621,170.067,286.233Z" transform="translate(-108.604 -158.276)" fill="#fff" opacity="0.5"/>
          <path id="Trazado_7035" data-name="Trazado 7035" d="M58.176,170.025a4.35,4.35,0,0,0-.605,2.024V258.4l-3.84-2.222V169.835a4.236,4.236,0,0,1,.605-2.023Z" transform="translate(-53.731 -101.607)" fill="#4dd0e1"/>
          <path id="Trazado_7036" data-name="Trazado 7036" d="M58.176,170.025a4.35,4.35,0,0,0-.605,2.024V258.4l-3.84-2.222V169.835a4.236,4.236,0,0,1,.605-2.023Z" transform="translate(-53.731 -101.607)" opacity="0.7"/>
        </g>
      </g>
      <g id="Keyboard" transform="translate(43.676 138.966)">
        <path id="Shadow-3" data-name="Shadow" d="M138.3,362.347l27.772,16.08a3.437,3.437,0,0,0,3.112,0l82.047-47.3a.949.949,0,0,0,0-1.8l-27.772-16.08a3.437,3.437,0,0,0-3.112,0L138.3,360.55A.949.949,0,0,0,138.3,362.347Z" transform="translate(-137.658 -310.144)" fill="#e0e0e0"/>
        <g id="Keyboard-2" data-name="Keyboard" transform="translate(1.79)">
          <g id="Grupo_23259" data-name="Grupo 23259">
            <path id="Trazado_7037" data-name="Trazado 7037" d="M251.2,323.96a1.092,1.092,0,0,0-.644-.9L224.465,308a3.438,3.438,0,0,0-3.111,0l-79.612,46.04a1.093,1.093,0,0,0-.644.9c0,.325,0,2.412,0,2.736a1.093,1.093,0,0,0,.646.9l26.077,15.06a3.45,3.45,0,0,0,3.115,0l79.621-45.967a1.1,1.1,0,0,0,.644-.895C251.2,326.443,251.2,324.285,251.2,323.96Z" transform="translate(-141.097 -307.629)" fill="#4dd0e1"/>
            <path id="Trazado_7038" data-name="Trazado 7038" d="M251.2,323.96a1.092,1.092,0,0,0-.644-.9L224.465,308a3.438,3.438,0,0,0-3.111,0l-79.612,46.04a1.093,1.093,0,0,0-.644.9c0,.325,0,2.412,0,2.736a1.093,1.093,0,0,0,.646.9l26.077,15.06a3.45,3.45,0,0,0,3.115,0l79.621-45.967a1.1,1.1,0,0,0,.644-.895C251.2,326.443,251.2,324.285,251.2,323.96Z" transform="translate(-141.097 -307.629)" opacity="0.5"/>
            <path id="Trazado_7039" data-name="Trazado 7039" d="M167.821,370.827l-26.077-14.991a.947.947,0,0,1,0-1.795L221.353,308a3.439,3.439,0,0,1,3.112,0l26.091,15.061a.949.949,0,0,1,0,1.8l-79.621,45.966A3.448,3.448,0,0,1,167.821,370.827Z" transform="translate(-141.097 -307.629)" fill="#4dd0e1"/>
            <path id="Trazado_7040" data-name="Trazado 7040" d="M167.821,370.827l-26.077-14.991a.947.947,0,0,1,0-1.795L221.353,308a3.439,3.439,0,0,1,3.112,0l26.091,15.061a.949.949,0,0,1,0,1.8l-79.621,45.966A3.448,3.448,0,0,1,167.821,370.827Z" transform="translate(-141.097 -307.629)" opacity="0.3"/>
            <path id="Trazado_7041" data-name="Trazado 7041" d="M169.28,414.795v2.8a3.211,3.211,0,0,1-1.461-.36L141.75,402.174a1.1,1.1,0,0,1-.647-.9v-2.743a1.1,1.1,0,0,0,.647.9l26.069,15A3.22,3.22,0,0,0,169.28,414.795Z" transform="translate(-141.1 -351.226)" fill="#4dd0e1"/>
            <path id="Trazado_7042" data-name="Trazado 7042" d="M169.28,414.795v2.8a3.211,3.211,0,0,1-1.461-.36L141.75,402.174a1.1,1.1,0,0,1-.647-.9v-2.743a1.1,1.1,0,0,0,.647.9l26.069,15A3.22,3.22,0,0,0,169.28,414.795Z" transform="translate(-141.1 -351.226)" opacity="0.7"/>
          </g>
          <g id="Grupo_23260" data-name="Grupo 23260" transform="translate(4.058 2.804)">
            <path id="Trazado_7043" data-name="Trazado 7043" d="M259.239,344.166l2.973,1.715a.4.4,0,0,0,.189.046l2.74-1.526-3.2-1.8Z" transform="translate(-201.815 -327.207)" fill="#37474f"/>
            <path id="Trazado_7044" data-name="Trazado 7044" d="M266.114,340.2l2.985,1.724a.4.4,0,0,0,.176.037l.11-.007,2.63-1.519-3.2-1.8Z" transform="translate(-205.113 -325.304)" fill="#37474f"/>
            <path id="Trazado_7045" data-name="Trazado 7045" d="M247.668,349.948l2.983,1.723a.409.409,0,0,0,.175.038l4.437-2.5-3.2-1.8Z" transform="translate(-196.266 -329.511)" fill="#37474f"/>
            <path id="Trazado_7046" data-name="Trazado 7046" d="M240.8,354.817l2.98,1.721a.4.4,0,0,0,.178.04l2.743-1.525-3.2-1.8Z" transform="translate(-192.97 -332.315)" fill="#37474f"/>
            <path id="Trazado_7047" data-name="Trazado 7047" d="M206.489,405.117l2.74-1.526-3.2-1.8-2.705,1.561,2.985,1.723A.4.4,0,0,0,206.489,405.117Z" transform="translate(-175.001 -355.595)" fill="#37474f"/>
            <path id="Trazado_7048" data-name="Trazado 7048" d="M233.923,358.785l2.967,1.713a.383.383,0,0,0,.193.048l2.741-1.525-3.2-1.8Z" transform="translate(-189.674 -334.218)" fill="#37474f"/>
            <path id="Trazado_7049" data-name="Trazado 7049" d="M269.715,347.089l-2.706,1.562,2.978,1.72a.4.4,0,0,0,.183.042l2.741-1.527Z" transform="translate(-205.542 -329.358)" fill="#37474f"/>
            <path id="Trazado_7050" data-name="Trazado 7050" d="M250.084,370.978l2.742-1.526-3.2-1.8-2.706,1.56,2.98,1.721A.4.4,0,0,0,250.084,370.978Z" transform="translate(-195.909 -339.221)" fill="#37474f"/>
            <path id="Trazado_7051" data-name="Trazado 7051" d="M277.044,346.444l2.742-1.526-3.2-1.8-2.7,1.562,2.983,1.724A.405.405,0,0,0,277.044,346.444Z" transform="translate(-208.84 -327.455)" fill="#37474f"/>
            <path id="Trazado_7052" data-name="Trazado 7052" d="M243.213,374.946l2.742-1.525-3.2-1.8-2.7,1.561,2.968,1.714A.385.385,0,0,0,243.213,374.946Z" transform="translate(-192.613 -341.124)" fill="#37474f"/>
            <path id="Trazado_7053" data-name="Trazado 7053" d="M236.34,378.914l2.74-1.526-3.2-1.8-2.706,1.56,2.986,1.724A.406.406,0,0,0,236.34,378.914Z" transform="translate(-189.317 -343.027)" fill="#37474f"/>
            <path id="Trazado_7054" data-name="Trazado 7054" d="M262.533,359.288l5.751-3.265-7.236-4.131-3.084,1.779,3.782,2.183a.189.189,0,0,1,.108.156.168.168,0,0,1-.094.138l-2.387,1.378,2.965,1.711A.373.373,0,0,0,262.533,359.288Z" transform="translate(-201.204 -331.661)" fill="#37474f"/>
            <path id="Trazado_7055" data-name="Trazado 7055" d="M220.176,366.72l2.981,1.723a.4.4,0,0,0,.178.04l2.743-1.525-3.2-1.8Z" transform="translate(-183.081 -338.025)" fill="#37474f"/>
            <path id="Trazado_7056" data-name="Trazado 7056" d="M256.956,367.01l2.744-1.525-3.2-1.8-2.705,1.561,2.964,1.711A.385.385,0,0,0,256.956,367.01Z" transform="translate(-199.205 -337.318)" fill="#37474f"/>
            <path id="Trazado_7057" data-name="Trazado 7057" d="M178.654,403.247l2.741-1.525-3.2-1.8-2.706,1.562,2.969,1.713A.389.389,0,0,0,178.654,403.247Z" transform="translate(-161.651 -354.698)" fill="#37474f"/>
            <path id="Trazado_7058" data-name="Trazado 7058" d="M165.2,398.464l2.992,1.727a.418.418,0,0,0,.169.035l.111-.007,2.63-1.519-3.2-1.8Z" transform="translate(-156.712 -353.249)" fill="#37474f"/>
            <path id="Trazado_7059" data-name="Trazado 7059" d="M188.232,406.689l.111-.007,2.63-1.518-3.2-1.8-2.7,1.561,2.985,1.723A.4.4,0,0,0,188.232,406.689Z" transform="translate(-166.244 -356.349)" fill="#37474f"/>
            <path id="Trazado_7060" data-name="Trazado 7060" d="M192.744,413.052l2.741-1.526-3.2-1.8-2.7,1.562L192.551,413A.392.392,0,0,0,192.744,413.052Z" transform="translate(-168.408 -359.4)" fill="#37474f"/>
            <path id="Trazado_7061" data-name="Trazado 7061" d="M172.068,394.5l2.984,1.724a.413.413,0,0,0,.176.038l2.74-1.526-3.2-1.8Z" transform="translate(-160.008 -351.346)" fill="#37474f"/>
            <path id="Trazado_7062" data-name="Trazado 7062" d="M199.617,409.087l2.739-1.527-3.2-1.8-2.706,1.56,2.982,1.721A.4.4,0,0,0,199.617,409.087Z" transform="translate(-171.704 -357.498)" fill="#37474f"/>
            <path id="Trazado_7063" data-name="Trazado 7063" d="M192.685,382.592l2.982,1.722a.394.394,0,0,0,.18.04l2.741-1.524-3.2-1.8Z" transform="translate(-169.896 -345.637)" fill="#37474f"/>
            <path id="Trazado_7064" data-name="Trazado 7064" d="M199.558,378.624l2.975,1.718a.393.393,0,0,0,.187.045l2.74-1.525-3.2-1.8Z" transform="translate(-173.192 -343.734)" fill="#37474f"/>
            <path id="Trazado_7065" data-name="Trazado 7065" d="M206.431,374.657l2.968,1.714a.381.381,0,0,0,.193.048l2.741-1.525-3.2-1.8Z" transform="translate(-176.489 -341.831)" fill="#37474f"/>
            <path id="Trazado_7066" data-name="Trazado 7066" d="M185.813,386.56l2.968,1.714a.38.38,0,0,0,.191.048l2.743-1.525-3.2-1.8Z" transform="translate(-166.6 -347.539)" fill="#37474f"/>
            <path id="Trazado_7067" data-name="Trazado 7067" d="M213.306,370.689l2.982,1.722a.41.41,0,0,0,.177.039l2.742-1.525-3.2-1.8Z" transform="translate(-179.786 -339.927)" fill="#37474f"/>
            <path id="Trazado_7068" data-name="Trazado 7068" d="M178.94,390.528l2.982,1.721a.4.4,0,0,0,.181.041l2.74-1.525-3.2-1.8Z" transform="translate(-163.304 -349.443)" fill="#37474f"/>
            <path id="Trazado_7069" data-name="Trazado 7069" d="M227.048,362.752l2.989,1.727a.409.409,0,0,0,.171.036l2.743-1.525-3.2-1.8Z" transform="translate(-186.377 -336.122)" fill="#37474f"/>
            <path id="Trazado_7070" data-name="Trazado 7070" d="M244.219,361.808l2.973,1.715a.389.389,0,0,0,.19.046l.11-.007,2.629-1.518-3.2-1.8Z" transform="translate(-194.612 -335.669)" fill="#37474f"/>
            <path id="Trazado_7071" data-name="Trazado 7071" d="M281.308,331.428l2.971,1.716a.4.4,0,0,0,.188.046l2.741-1.526-3.2-1.8Z" transform="translate(-212.4 -321.098)" fill="#37474f"/>
            <path id="Trazado_7072" data-name="Trazado 7072" d="M288.18,327.46l2.974,1.715a.374.374,0,0,0,.186.046l2.742-1.526-3.2-1.8Z" transform="translate(-215.695 -319.195)" fill="#37474f"/>
            <path id="Trazado_7073" data-name="Trazado 7073" d="M237.349,365.775l2.975,1.717a.4.4,0,0,0,.186.044l2.741-1.526-3.2-1.8Z" transform="translate(-191.317 -337.571)" fill="#37474f"/>
            <path id="Trazado_7074" data-name="Trazado 7074" d="M295.053,323.492l2.971,1.715a.39.39,0,0,0,.188.046l2.742-1.525-3.2-1.8Z" transform="translate(-218.992 -317.292)" fill="#37474f"/>
            <path id="Trazado_7075" data-name="Trazado 7075" d="M254.253,359.6l.111-.007,2.63-1.517-3.2-1.8-2.706,1.56,2.973,1.716A.392.392,0,0,0,254.253,359.6Z" transform="translate(-197.908 -333.766)" fill="#37474f"/>
            <path id="Trazado_7076" data-name="Trazado 7076" d="M289.071,335.912l2.967,1.711a.376.376,0,0,0,.2.052l2.74-1.526-3.2-1.8Z" transform="translate(-216.123 -323.249)" fill="#37474f"/>
            <path id="Trazado_7077" data-name="Trazado 7077" d="M302.816,327.976l2.967,1.711a.38.38,0,0,0,.195.052l2.741-1.525-3.2-1.8Z" transform="translate(-222.715 -319.443)" fill="#37474f"/>
            <path id="Trazado_7078" data-name="Trazado 7078" d="M299.107,333.706l2.74-1.526-3.2-1.8-2.707,1.561,2.983,1.72A.386.386,0,0,0,299.107,333.706Z" transform="translate(-219.419 -321.346)" fill="#37474f"/>
            <path id="Trazado_7079" data-name="Trazado 7079" d="M316.725,328.068a.421.421,0,0,0,.169.034L317,328.1l2.629-1.518-7.237-4.131-2.707,1.561Z" transform="translate(-226.012 -317.539)" fill="#37474f"/>
            <path id="Trazado_7080" data-name="Trazado 7080" d="M230.475,369.743l2.972,1.715a.384.384,0,0,0,.188.046l.111-.007,2.631-1.519-3.2-1.8Z" transform="translate(-188.02 -339.474)" fill="#37474f"/>
            <path id="Trazado_7081" data-name="Trazado 7081" d="M306.873,338.191l.111-.007,2.629-1.519-3.2-1.8-2.706,1.56,2.973,1.715A.391.391,0,0,0,306.873,338.191Z" transform="translate(-223.144 -323.497)" fill="#37474f"/>
            <path id="Trazado_7082" data-name="Trazado 7082" d="M313.746,334.222l2.742-1.526-3.2-1.8-2.706,1.561,2.964,1.71A.382.382,0,0,0,313.746,334.222Z" transform="translate(-226.44 -321.594)" fill="#37474f"/>
            <path id="Trazado_7083" data-name="Trazado 7083" d="M196.111,389.583l2.969,1.713a.385.385,0,0,0,.194.048l2.74-1.526-3.2-1.8Z" transform="translate(-171.539 -348.989)" fill="#37474f"/>
            <path id="Trazado_7084" data-name="Trazado 7084" d="M182.369,397.519l2.967,1.713a.381.381,0,0,0,.192.048l.111-.007,2.631-1.519-3.2-1.8Z" transform="translate(-164.949 -352.795)" fill="#37474f"/>
            <path id="Trazado_7085" data-name="Trazado 7085" d="M201.978,398.754l2.74-1.525-3.2-1.8-2.7,1.561,2.988,1.723A.4.4,0,0,0,201.978,398.754Z" transform="translate(-172.836 -352.543)" fill="#37474f"/>
            <path id="Trazado_7086" data-name="Trazado 7086" d="M195.1,402.721l2.741-1.524-3.2-1.8-2.7,1.561,2.985,1.723A.405.405,0,0,0,195.1,402.721Z" transform="translate(-169.54 -354.446)" fill="#37474f"/>
            <path id="Trazado_7087" data-name="Trazado 7087" d="M208.849,394.785l.111-.007,2.631-1.517-3.2-1.8-2.706,1.561,2.969,1.713A.389.389,0,0,0,208.849,394.785Z" transform="translate(-176.132 -350.64)" fill="#37474f"/>
            <path id="Trazado_7088" data-name="Trazado 7088" d="M223.6,373.712l2.976,1.717a.387.387,0,0,0,.185.044l.111-.007,2.629-1.519-3.2-1.8Z" transform="translate(-184.723 -341.378)" fill="#37474f"/>
            <path id="Trazado_7089" data-name="Trazado 7089" d="M222.594,386.85l2.741-1.526-3.2-1.8-2.706,1.56L222.4,386.8A.391.391,0,0,0,222.594,386.85Z" transform="translate(-182.724 -346.834)" fill="#37474f"/>
            <path id="Trazado_7090" data-name="Trazado 7090" d="M215.723,390.818l2.74-1.525-3.2-1.8-2.706,1.561,2.986,1.723A.409.409,0,0,0,215.723,390.818Z" transform="translate(-179.428 -348.737)" fill="#37474f"/>
            <path id="Trazado_7091" data-name="Trazado 7091" d="M209.856,381.647l2.969,1.713a.388.388,0,0,0,.194.049l2.74-1.526-3.2-1.8Z" transform="translate(-178.131 -345.183)" fill="#37474f"/>
            <path id="Trazado_7092" data-name="Trazado 7092" d="M189.239,393.551l2.968,1.713a.385.385,0,0,0,.194.048l2.74-1.525-3.2-1.8Z" transform="translate(-168.243 -350.892)" fill="#37474f"/>
            <path id="Trazado_7093" data-name="Trazado 7093" d="M216.73,377.679l2.972,1.716a.392.392,0,0,0,.19.045l2.74-1.525-3.2-1.8Z" transform="translate(-181.428 -343.28)" fill="#37474f"/>
            <path id="Trazado_7094" data-name="Trazado 7094" d="M202.986,385.615l2.967,1.713a.392.392,0,0,0,.194.048l.111-.007,2.63-1.519-3.2-1.8Z" transform="translate(-174.836 -347.086)" fill="#37474f"/>
            <path id="Trazado_7095" data-name="Trazado 7095" d="M229.466,382.882l2.743-1.525-3.2-1.8-2.705,1.561,2.98,1.72A.383.383,0,0,0,229.466,382.882Z" transform="translate(-186.021 -344.93)" fill="#37474f"/>
            <path id="Trazado_7096" data-name="Trazado 7096" d="M272.986,336.23l2.986,1.723a.394.394,0,0,0,.175.039l2.74-1.526-3.2-1.8Z" transform="translate(-208.408 -323.401)" fill="#37474f"/>
            <path id="Trazado_7097" data-name="Trazado 7097" d="M161.026,400.872l-2.706,1.56,2.986,1.724a.4.4,0,0,0,.176.037l.111-.007,2.632-1.519Z" transform="translate(-153.415 -355.152)" fill="#37474f"/>
            <path id="Trazado_7098" data-name="Trazado 7098" d="M170.113,403.893l-4.023,2.322,2.985,1.724a.4.4,0,0,0,.176.038l.111-.007,3.948-2.279Z" transform="translate(-157.141 -356.601)" fill="#37474f"/>
            <path id="Trazado_7099" data-name="Trazado 7099" d="M152.164,394.8l-3.27,1.887,2.972,1.716a.4.4,0,0,0,.19.046l3.306-1.85Z" transform="translate(-148.894 -352.241)" fill="#37474f"/>
            <path id="Trazado_7100" data-name="Trazado 7100" d="M184.9,413.7l-3.269,1.888,2.967,1.713a.39.39,0,0,0,.193.048l3.307-1.852Z" transform="translate(-164.593 -361.303)" fill="#37474f"/>
            <path id="Trazado_7101" data-name="Trazado 7101" d="M178.821,407.335l-4.964,2.865,2.985,1.724a.4.4,0,0,0,.176.038l.111-.007,4.89-2.823Z" transform="translate(-160.866 -358.252)" fill="#37474f"/>
            <path id="Trazado_7102" data-name="Trazado 7102" d="M163,392.43l2.741-1.526-3.2-1.8-2.706,1.56,2.968,1.714A.385.385,0,0,0,163,392.43Z" transform="translate(-154.145 -349.51)" fill="#37474f"/>
            <path id="Trazado_7103" data-name="Trazado 7103" d="M189.394,419.67l2.971,1.715a.378.378,0,0,0,.187.046l4.059-2.288-3.2-1.8Z" transform="translate(-168.318 -363.054)" fill="#37474f"/>
            <path id="Trazado_7104" data-name="Trazado 7104" d="M169.878,388.462l2.74-1.525-3.2-1.8-2.7,1.562,2.983,1.723A.4.4,0,0,0,169.878,388.462Z" transform="translate(-157.442 -347.607)" fill="#37474f"/>
            <path id="Trazado_7105" data-name="Trazado 7105" d="M200.357,370.863l.111-.007,2.631-1.519-3.2-1.8-2.7,1.562,2.975,1.717A.387.387,0,0,0,200.357,370.863Z" transform="translate(-172.06 -339.166)" fill="#37474f"/>
            <path id="Trazado_7106" data-name="Trazado 7106" d="M207.23,366.9l2.74-1.526-3.2-1.8-2.705,1.562,2.976,1.717A.39.39,0,0,0,207.23,366.9Z" transform="translate(-175.355 -337.263)" fill="#37474f"/>
            <path id="Trazado_7107" data-name="Trazado 7107" d="M193.483,374.831l.111-.007,2.631-1.519-3.2-1.8-2.706,1.562,2.969,1.713A.39.39,0,0,0,193.483,374.831Z" transform="translate(-168.763 -341.069)" fill="#37474f"/>
            <path id="Trazado_7108" data-name="Trazado 7108" d="M183.622,380.526l.111-.007L186.363,379l-3.2-1.8-2.7,1.562,2.975,1.717A.381.381,0,0,0,183.622,380.526Z" transform="translate(-164.034 -343.801)" fill="#37474f"/>
            <path id="Trazado_7109" data-name="Trazado 7109" d="M176.75,384.494l2.741-1.526-3.2-1.8-2.7,1.562,2.98,1.722A.4.4,0,0,0,176.75,384.494Z" transform="translate(-160.738 -345.703)" fill="#37474f"/>
            <path id="Trazado_7110" data-name="Trazado 7110" d="M326.125,341.43l2.99,1.727a.421.421,0,0,0,.169.034l.111-.007,2.631-1.519-3.2-1.8Z" transform="translate(-233.894 -325.895)" fill="#37474f"/>
            <path id="Trazado_7111" data-name="Trazado 7111" d="M290.31,362.1l2.969,1.712a.373.373,0,0,0,.193.05l2.741-1.526-3.2-1.8Z" transform="translate(-216.717 -335.811)" fill="#37474f"/>
            <path id="Trazado_7112" data-name="Trazado 7112" d="M312.376,347.463l2.972,1.715a.392.392,0,0,0,.189.047l.111-.007,6.207-3.583-3.2-1.8Z" transform="translate(-227.3 -327.798)" fill="#37474f"/>
            <path id="Trazado_7113" data-name="Trazado 7113" d="M297.183,358.137l2.966,1.711a.382.382,0,0,0,.2.05l2.74-1.524-3.2-1.8Z" transform="translate(-220.013 -333.908)" fill="#37474f"/>
            <path id="Trazado_7114" data-name="Trazado 7114" d="M304.056,354.169l2.955,1.706a.378.378,0,0,0,.207.057l2.74-1.525-3.2-1.8Z" transform="translate(-223.31 -332.005)" fill="#37474f"/>
            <path id="Trazado_7115" data-name="Trazado 7115" d="M214.1,362.927l.111-.007,2.631-1.519-3.2-1.8-2.706,1.562,2.969,1.713A.385.385,0,0,0,214.1,362.927Z" transform="translate(-178.651 -335.36)" fill="#37474f"/>
            <path id="Trazado_7116" data-name="Trazado 7116" d="M327.933,331.414l-2.706,1.562,7.033,4.061a.412.412,0,0,0,.17.035l.111-.007,2.629-1.518Z" transform="translate(-233.463 -321.84)" fill="#37474f"/>
            <path id="Trazado_7117" data-name="Trazado 7117" d="M206.757,410.046l2.967,1.713a.391.391,0,0,0,.193.048l3.306-1.852-3.2-1.8Z" transform="translate(-176.645 -358.646)" fill="#37474f"/>
            <path id="Trazado_7118" data-name="Trazado 7118" d="M214.715,396.337l2.963,1.71a.377.377,0,0,0,.2.051l.11-.007,20.325-11.732-3.2-1.8Z" transform="translate(-180.462 -347.328)" fill="#37474f"/>
            <path id="Trazado_7119" data-name="Trazado 7119" d="M213.361,401.15l2.741-1.524-3.2-1.8-2.706,1.56,2.982,1.721A.393.393,0,0,0,213.361,401.15Z" transform="translate(-178.296 -353.692)" fill="#37474f"/>
            <path id="Trazado_7120" data-name="Trazado 7120" d="M198.8,414.64l2.968,1.714a.383.383,0,0,0,.192.049l3.307-1.852-3.2-1.8Z" transform="translate(-172.828 -360.85)" fill="#37474f"/>
            <path id="Trazado_7121" data-name="Trazado 7121" d="M255.586,381.853l2.973,1.715a.387.387,0,0,0,.189.046l.111-.007,3.2-1.843-3.2-1.8Z" transform="translate(-200.063 -345.126)" fill="#37474f"/>
            <path id="Trazado_7122" data-name="Trazado 7122" d="M271.5,372.664l2.978,1.719a.4.4,0,0,0,.183.042l.111-.007,3.195-1.844-3.2-1.8Z" transform="translate(-207.697 -340.718)" fill="#37474f"/>
            <path id="Trazado_7123" data-name="Trazado 7123" d="M263.545,377.258l2.984,1.723a.41.41,0,0,0,.177.039l3.306-1.853-3.2-1.8Z" transform="translate(-203.881 -342.922)" fill="#37474f"/>
            <path id="Trazado_7124" data-name="Trazado 7124" d="M279.459,367.669l2.973,1.715a.388.388,0,0,0,.189.046l.111-.007,3.947-2.279-3.2-1.8Z" transform="translate(-211.513 -338.114)" fill="#37474f"/>
            <path id="Trazado_7125" data-name="Trazado 7125" d="M283.915,342.476l.111-.007,2.631-1.519-3.2-1.8-2.706,1.562,2.979,1.72A.4.4,0,0,0,283.915,342.476Z" transform="translate(-212.134 -325.552)" fill="#37474f"/>
            <path id="Trazado_7126" data-name="Trazado 7126" d="M292.577,355.414l.111-.007,2.631-1.519-3.2-1.8-2.706,1.56,2.978,1.721A.4.4,0,0,0,292.577,355.414Z" transform="translate(-216.288 -331.757)" fill="#37474f"/>
            <path id="Trazado_7127" data-name="Trazado 7127" d="M268.344,366.9l7.445-4.243-3.2-1.8-7.411,4.279,2.987,1.723A.4.4,0,0,0,268.344,366.9Z" transform="translate(-204.666 -335.963)" fill="#37474f"/>
            <path id="Trazado_7128" data-name="Trazado 7128" d="M307.77,346.642l.111-.007,2.63-1.52-3.2-1.8-2.705,1.562,2.985,1.723A.4.4,0,0,0,307.77,346.642Z" transform="translate(-223.575 -327.55)" fill="#37474f"/>
            <path id="Trazado_7129" data-name="Trazado 7129" d="M314.642,342.674l.111-.007,2.629-1.519-3.2-1.8-2.705,1.562,2.978,1.72A.4.4,0,0,0,314.642,342.674Z" transform="translate(-226.871 -325.647)" fill="#37474f"/>
            <path id="Trazado_7130" data-name="Trazado 7130" d="M261.468,373.375l2.743-1.525-3.2-1.8-2.706,1.56,2.971,1.716A.381.381,0,0,0,261.468,373.375Z" transform="translate(-201.369 -340.371)" fill="#37474f"/>
            <path id="Trazado_7131" data-name="Trazado 7131" d="M300,342.158l.111-.007,2.63-1.518-3.2-1.8-2.706,1.561,2.964,1.71A.38.38,0,0,0,300,342.158Z" transform="translate(-219.848 -325.4)" fill="#37474f"/>
            <path id="Trazado_7132" data-name="Trazado 7132" d="M227.106,393.214l2.74-1.526-3.2-1.8-2.706,1.561,2.982,1.721A.4.4,0,0,0,227.106,393.214Z" transform="translate(-184.888 -349.886)" fill="#37474f"/>
            <path id="Trazado_7133" data-name="Trazado 7133" d="M254.6,377.343l2.738-1.527-3.2-1.8-2.706,1.561,2.992,1.726A.41.41,0,0,0,254.6,377.343Z" transform="translate(-198.073 -342.274)" fill="#37474f"/>
            <path id="Trazado_7134" data-name="Trazado 7134" d="M220.234,397.182l.11-.007,2.63-1.519-3.2-1.8-2.705,1.56,2.985,1.723A.4.4,0,0,0,220.234,397.182Z" transform="translate(-181.593 -351.789)" fill="#37474f"/>
            <path id="Trazado_7135" data-name="Trazado 7135" d="M233.98,389.247l2.74-1.525-3.2-1.8-2.706,1.56,2.994,1.727A.4.4,0,0,0,233.98,389.247Z" transform="translate(-188.185 -347.983)" fill="#37474f"/>
            <path id="Trazado_7136" data-name="Trazado 7136" d="M240.851,385.278l.111-.007,2.629-1.518-3.2-1.8-2.706,1.561,2.969,1.713A.383.383,0,0,0,240.851,385.278Z" transform="translate(-191.48 -346.08)" fill="#37474f"/>
            <path id="Trazado_7137" data-name="Trazado 7137" d="M247.724,381.31l.111-.007,2.631-1.517-3.2-1.8-2.706,1.56,2.985,1.724A.4.4,0,0,0,247.724,381.31Z" transform="translate(-194.777 -344.177)" fill="#37474f"/>
            <path id="Trazado_7138" data-name="Trazado 7138" d="M230.837,353.266l2.74-1.526-3.2-1.8-2.706,1.561,2.968,1.713A.389.389,0,0,0,230.837,353.266Z" transform="translate(-186.677 -330.727)" fill="#37474f"/>
            <path id="Trazado_7139" data-name="Trazado 7139" d="M321.515,338.706l.111-.007,2.631-1.518-3.2-1.8-2.7,1.562,2.985,1.723A.4.4,0,0,0,321.515,338.706Z" transform="translate(-230.167 -323.744)" fill="#37474f"/>
            <path id="Trazado_7140" data-name="Trazado 7140" d="M244.582,345.33l2.74-1.526-3.2-1.8-2.706,1.561,2.968,1.713A.389.389,0,0,0,244.582,345.33Z" transform="translate(-193.269 -326.921)" fill="#37474f"/>
            <path id="Trazado_7141" data-name="Trazado 7141" d="M259.847,336.516l2.74-1.525-3.2-1.8-2.706,1.562,2.973,1.716A.4.4,0,0,0,259.847,336.516Z" transform="translate(-200.59 -322.693)" fill="#37474f"/>
            <path id="Trazado_7142" data-name="Trazado 7142" d="M252.975,340.484l2.739-1.526-3.2-1.8-2.706,1.562,2.972,1.715A.392.392,0,0,0,252.975,340.484Z" transform="translate(-197.295 -324.596)" fill="#37474f"/>
            <path id="Trazado_7143" data-name="Trazado 7143" d="M223.966,357.233l2.74-1.525-3.2-1.8-2.7,1.562,2.975,1.717A.392.392,0,0,0,223.966,357.233Z" transform="translate(-183.382 -332.629)" fill="#37474f"/>
            <path id="Trazado_7144" data-name="Trazado 7144" d="M237.709,349.3l.111-.007,2.63-1.519-3.2-1.8-2.706,1.56,2.969,1.713A.389.389,0,0,0,237.709,349.3Z" transform="translate(-189.973 -328.825)" fill="#37474f"/>
            <path id="Trazado_7145" data-name="Trazado 7145" d="M266.721,332.548l2.739-1.526-3.2-1.8-2.706,1.562,2.973,1.715A.39.39,0,0,0,266.721,332.548Z" transform="translate(-203.887 -320.79)" fill="#37474f"/>
            <path id="Trazado_7146" data-name="Trazado 7146" d="M295.005,315.482l2.739-1.527-1.738-.938L293.3,314.58l1.523.86A.4.4,0,0,0,295.005,315.482Z" transform="translate(-218.151 -313.017)" fill="#37474f"/>
            <path id="Trazado_7147" data-name="Trazado 7147" d="M305.085,321.285l2.742-1.525-3.2-1.8-2.7,1.562,2.97,1.715A.393.393,0,0,0,305.085,321.285Z" transform="translate(-222.288 -315.389)" fill="#37474f"/>
            <path id="Trazado_7148" data-name="Trazado 7148" d="M274.388,327.384l.111-.007,2.628-1.518-1.737-.939-2.706,1.563,1.514.855A.387.387,0,0,0,274.388,327.384Z" transform="translate(-208.264 -318.726)" fill="#37474f"/>
            <path id="Trazado_7149" data-name="Trazado 7149" d="M281.261,323.417l.111-.007L284,321.891l-1.736-.938-2.706,1.563,1.528.863A.41.41,0,0,0,281.261,323.417Z" transform="translate(-211.56 -316.823)" fill="#37474f"/>
            <path id="Trazado_7150" data-name="Trazado 7150" d="M288.133,319.449l2.739-1.526-1.737-.939-2.706,1.563,1.527.863A.4.4,0,0,0,288.133,319.449Z" transform="translate(-214.856 -314.92)" fill="#37474f"/>
          </g>
        </g>
      </g>
    </g>
    <g id="Windows" transform="translate(51.42 49.823)">
      <g id="Grupo_23274" data-name="Grupo 23274">
        <g id="Grupo_23268" data-name="Grupo 23268">
          <g id="Grupo_23265" data-name="Grupo 23265" transform="translate(2.051 1.159)" opacity="0.8">
            <g id="Grupo_23262" data-name="Grupo 23262">
              <g id="Grupo_23261" data-name="Grupo 23261">
                <path id="Trazado_7151" data-name="Trazado 7151" d="M198.6,61.7v77.256a3.547,3.547,0,0,1-1.606,2.78L92.866,201.97a1.032,1.032,0,0,1-.532.152.917.917,0,0,1-.205-.026.626.626,0,0,1-.137-.047c-.031-.016-.058-.032-.084-.047l-.095-.064a.642.642,0,0,1-.09-.079,1.253,1.253,0,0,1-.295-.421,2.007,2.007,0,0,1-.169-.811V123.76a3.556,3.556,0,0,1,1.606-2.78L196.994,60.775a1.166,1.166,0,0,1,1.08-.137.72.72,0,0,1,.137.079l.01.01a.506.506,0,0,1,.106.105.273.273,0,0,1,.047.058.279.279,0,0,1,.053.084.72.72,0,0,1,.095.205.567.567,0,0,1,.037.142c.005.011.01.021.005.032a.671.671,0,0,1,.026.147C198.6,61.565,198.6,61.633,198.6,61.7Z" transform="translate(-91.26 -60.558)" fill="#455a64"/>
                <path id="Trazado_7152" data-name="Trazado 7152" d="M197.706,61.078a.346.346,0,0,1,.155.034l.018.009h0l.03.022.044.058v0l.039.058a.206.206,0,0,1,.014.023L198,61.3l.05.151,0,.017.011.023,0,.014c0,.015,0,.03,0,.037,0,.05.009.1.009.157v77.256a3.025,3.025,0,0,1-1.346,2.33L92.608,201.518a.53.53,0,0,1-.271.084h0a.483.483,0,0,1-.109-.018l-.039-.022-.066-.044-.012-.009L92.1,201.5l-.027-.024a.759.759,0,0,1-.171-.249,1.492,1.492,0,0,1-.123-.6V123.76a3.023,3.023,0,0,1,1.346-2.33l104.125-60.2a.971.971,0,0,1,.455-.148m0-.52a1.462,1.462,0,0,0-.712.216L92.866,120.98a3.556,3.556,0,0,0-1.606,2.781v76.867a2,2,0,0,0,.169.811,1.253,1.253,0,0,0,.295.421.614.614,0,0,0,.09.079l.095.063c.027.016.053.031.084.047a.633.633,0,0,0,.137.047.926.926,0,0,0,.206.026h.022a1.05,1.05,0,0,0,.509-.153l104.128-60.232a3.548,3.548,0,0,0,1.606-2.78V61.7c0-.069-.005-.137-.01-.2a.7.7,0,0,0-.027-.147c.005-.01,0-.021-.005-.032a.567.567,0,0,0-.037-.142.72.72,0,0,0-.095-.205.271.271,0,0,0-.053-.084.256.256,0,0,0-.047-.058.506.506,0,0,0-.106-.105l-.01-.01a.719.719,0,0,0-.137-.079.85.85,0,0,0-.367-.08Z" transform="translate(-91.26 -60.558)" fill="#455a64"/>
              </g>
            </g>
            <g id="Grupo_23264" data-name="Grupo 23264" transform="translate(0 0)">
              <g id="Grupo_23263" data-name="Grupo 23263" opacity="0.7">
                <path id="Trazado_7153" data-name="Trazado 7153" d="M198.6,61.7v77.256a3.547,3.547,0,0,1-1.606,2.78L92.866,201.97a1.032,1.032,0,0,1-.532.152.917.917,0,0,1-.205-.026.626.626,0,0,1-.137-.047c-.031-.016-.058-.032-.084-.047l-.095-.064a.642.642,0,0,1-.09-.079,1.253,1.253,0,0,1-.295-.421,2.007,2.007,0,0,1-.169-.811V123.76a3.556,3.556,0,0,1,1.606-2.78L196.994,60.775a1.166,1.166,0,0,1,1.08-.137.72.72,0,0,1,.137.079l.01.01a.506.506,0,0,1,.106.105.273.273,0,0,1,.047.058.279.279,0,0,1,.053.084.72.72,0,0,1,.095.205.567.567,0,0,1,.037.142c.005.011.01.021.005.032a.671.671,0,0,1,.026.147C198.6,61.565,198.6,61.633,198.6,61.7Z" transform="translate(-91.26 -60.559)" fill="#455a64"/>
              </g>
            </g>
          </g>
          <g id="Grupo_23266" data-name="Grupo 23266">
            <path id="Trazado_7154" data-name="Trazado 7154" d="M196.186,59.569a1.166,1.166,0,0,0-1.08.137L90.978,119.911a3.556,3.556,0,0,0-1.606,2.781v5.245l-2.048-1.2v-5.208a3.541,3.541,0,0,1,1.6-2.775L193.058,58.548a1.116,1.116,0,0,1,1.164-.095C194.511,58.627,195.844,59.39,196.186,59.569Z" transform="translate(-87.321 -58.33)" fill="#4dd0e1"/>
            <path id="Trazado_7155" data-name="Trazado 7155" d="M198.6,61.69c-.006-1.013-.721-1.423-1.6-.914l-104.129,60.2a3.547,3.547,0,0,0-1.6,2.779l0,5.247L198.6,66.956Z" transform="translate(-89.21 -59.399)" fill="#4dd0e1"/>
            <path id="Trazado_7156" data-name="Trazado 7156" d="M195.554,59.708l-104.126,60.2A3.3,3.3,0,0,0,90.3,121.1l-2.038-1.18a3.205,3.205,0,0,1,1.116-1.171L193.5,58.546a1.129,1.129,0,0,1,1.166-.095c.288.176,1.62.933,1.958,1.115A1.159,1.159,0,0,0,195.554,59.708Z" transform="translate(-87.77 -58.33)" fill="#fff" opacity="0.4"/>
            <path id="Trazado_7157" data-name="Trazado 7157" d="M87.319,183.506V178.29a3.307,3.307,0,0,1,.488-1.6l2.044,1.176a3.242,3.242,0,0,0-.479,1.594V184.7Z" transform="translate(-87.319 -115.094)" opacity="0.15"/>
          </g>
          <g id="Grupo_23267" data-name="Grupo 23267" transform="translate(98.818 4.395)">
            <path id="Trazado_7158" data-name="Trazado 7158" d="M278.114,74.124a2.392,2.392,0,0,0-.906,1.919c0,.771.405,1.161.906.872A2.392,2.392,0,0,0,279.021,75C279.021,74.226,278.615,73.835,278.114,74.124Z" transform="translate(-277.208 -70.254)" fill="#455a64"/>
            <path id="Trazado_7159" data-name="Trazado 7159" d="M284.385,70.5a2.392,2.392,0,0,0-.907,1.919c0,.771.406,1.161.907.872a2.392,2.392,0,0,0,.907-1.919C285.291,70.6,284.885,70.208,284.385,70.5Z" transform="translate(-280.215 -68.515)" fill="#455a64"/>
            <path id="Trazado_7160" data-name="Trazado 7160" d="M290.656,66.87a2.391,2.391,0,0,0-.907,1.919c0,.771.406,1.161.907.872a2.392,2.392,0,0,0,.906-1.919C291.562,66.972,291.156,66.581,290.656,66.87Z" transform="translate(-283.223 -66.775)" fill="#455a64"/>
          </g>
          <path id="Trazado_7161" data-name="Trazado 7161" d="M89.962,263.949c-.058-.037-.126-.074-.2-.116-.147-.09-.316-.184-.495-.279l-.005-.005c-.09-.053-.179-.105-.269-.152a.037.037,0,0,0-.021-.011c-.148-.084-.29-.169-.422-.242s-.258-.148-.353-.2-.169-.095-.2-.11a.9.9,0,0,1-.274-.221,1.224,1.224,0,0,1-.216-.327,1.989,1.989,0,0,1-.184-.848V189.778l2.048,1.2V262.6a2.385,2.385,0,0,0,.169.811,1.254,1.254,0,0,0,.295.421.261.261,0,0,0,.09.079A.12.12,0,0,0,89.962,263.949Z" transform="translate(-87.321 -121.373)" fill="#37474f" opacity="0.9"/>
        </g>
        <g id="Grupo_23273" data-name="Grupo 23273" transform="translate(14.115 46.138)">
          <g id="Grupo_23269" data-name="Grupo 23269" transform="translate(0 25.428)">
            <path id="Trazado_7162" data-name="Trazado 7162" d="M144.284,240.884A35.084,35.084,0,0,0,140,238.418l-10.768-.338,4.28,2.278v.188Z" transform="translate(-121.537 -216.104)" fill="#263238"/>
            <path id="Trazado_7163" data-name="Trazado 7163" d="M122.668,230.289v-6.745l18.466-22.953v8.951l-10.769,12.837v.188l10.769.338v8.951Z" transform="translate(-118.388 -198.124)" fill="#fafafa"/>
            <path id="Trazado_7164" data-name="Trazado 7164" d="M137.19,198.318l-4.281-2.466L114.443,218.8l4.281,2.466Z" transform="translate(-114.443 -195.851)" fill="#455a64"/>
            <path id="Trazado_7165" data-name="Trazado 7165" d="M114.443,239.957V246.7l4.281,2.466v-6.745Z" transform="translate(-114.443 -217.004)" fill="#37474f"/>
          </g>
          <g id="Grupo_23270" data-name="Grupo 23270" transform="translate(23.911)">
            <path id="Trazado_7166" data-name="Trazado 7166" d="M174.348,203.987l-5.732,3.309,14.29-52.375,5.528-3.192Z" transform="translate(-164.335 -149.263)" fill="#fafafa"/>
            <path id="Trazado_7167" data-name="Trazado 7167" d="M197.658,149.456l-4.281-2.466-5.528,3.191,4.281,2.466Z" transform="translate(-173.56 -146.99)" fill="#455a64"/>
            <path id="Trazado_7168" data-name="Trazado 7168" d="M174.68,153.122l4.281,2.466-14.29,52.375L160.39,205.5Z" transform="translate(-160.39 -149.931)" fill="#37474f"/>
          </g>
          <g id="Grupo_23272" data-name="Grupo 23272" transform="translate(49.174 7.699)">
            <path id="Trazado_7169" data-name="Trazado 7169" d="M208.935,192.717l4.281,2.466,10.768-12.961-4.281-2.466Z" transform="translate(-208.935 -170.403)" fill="#263238"/>
            <g id="Grupo_23271" data-name="Grupo 23271" transform="translate(4.281 2.467)">
              <path id="Trazado_7170" data-name="Trazado 7170" d="M227.929,175.876l-10.768-.4v-8.951l18.466,1.63V174.9l-18.466,22.89v-8.951l10.768-12.773Z" transform="translate(-217.161 -166.523)" fill="#fafafa"/>
            </g>
            <path id="Trazado_7171" data-name="Trazado 7171" d="M208.935,161.783l4.281,2.466,18.466,1.63-4.281-2.466Z" transform="translate(-208.935 -161.783)" fill="#455a64"/>
            <path id="Trazado_7172" data-name="Trazado 7172" d="M213.216,164.25V173.2l-4.281-2.466v-8.951" transform="translate(-208.935 -161.783)" fill="#37474f"/>
            <path id="Trazado_7173" data-name="Trazado 7173" d="M208.935,204.662l4.281,2.466v8.951l-4.281-2.466Z" transform="translate(-208.935 -182.348)" fill="#37474f"/>
          </g>
        </g>
      </g>
      <g id="Grupo_23296" data-name="Grupo 23296" transform="translate(93.365 13.324)">
        <g id="Grupo_23282" data-name="Grupo 23282">
          <g id="Grupo_23279" data-name="Grupo 23279" transform="translate(2.05 1.16)" opacity="0.8">
            <g id="Grupo_23276" data-name="Grupo 23276">
              <g id="Grupo_23275" data-name="Grupo 23275">
                <path id="Trazado_7174" data-name="Trazado 7174" d="M318.264,87.3v77.257a3.549,3.549,0,0,1-1.607,2.781l-44.383,25.607a1.032,1.032,0,0,1-.532.153.928.928,0,0,1-.206-.027.609.609,0,0,1-.137-.047c-.032-.016-.058-.032-.084-.047l-.095-.063a.648.648,0,0,1-.09-.079,1.27,1.27,0,0,1-.3-.422,2.011,2.011,0,0,1-.169-.811V114.74a3.555,3.555,0,0,1,1.607-2.78l44.383-25.582a1.166,1.166,0,0,1,1.08-.137.722.722,0,0,1,.137.079l.01.01a.506.506,0,0,1,.106.106.253.253,0,0,1,.047.058.289.289,0,0,1,.053.084.732.732,0,0,1,.095.206.566.566,0,0,1,.037.142.034.034,0,0,1,.005.031.718.718,0,0,1,.027.148C318.259,87.168,318.264,87.236,318.264,87.3Z" transform="translate(-270.668 -86.162)" fill="#455a64"/>
                <path id="Trazado_7175" data-name="Trazado 7175" d="M317.37,86.682a.343.343,0,0,1,.156.034l.018.008h0l.03.022.044.059v0l.039.058.013.022-.009.016.051.154,0,.015.011.021.005.017c0,.015,0,.03,0,.036,0,.049.009.1.009.157v77.257a3.024,3.024,0,0,1-1.346,2.329L272.016,192.5a.527.527,0,0,1-.271.084h0a.505.505,0,0,1-.109-.019.376.376,0,0,1-.039-.022l-.067-.044-.012-.009-.007-.009-.027-.024a.745.745,0,0,1-.171-.249,1.491,1.491,0,0,1-.124-.6V114.74a3.024,3.024,0,0,1,1.346-2.329l44.381-25.58a.97.97,0,0,1,.455-.148m0-.52a1.461,1.461,0,0,0-.712.216l-44.383,25.581a3.557,3.557,0,0,0-1.607,2.781v76.867a2.011,2.011,0,0,0,.169.811,1.27,1.27,0,0,0,.3.422.621.621,0,0,0,.09.079l.095.063c.027.016.053.032.084.047a.607.607,0,0,0,.137.047.928.928,0,0,0,.206.027h.022a1.05,1.05,0,0,0,.509-.153l44.383-25.608a3.547,3.547,0,0,0,1.607-2.78V87.3c0-.068-.005-.137-.01-.2a.717.717,0,0,0-.027-.148.034.034,0,0,0-.005-.031.566.566,0,0,0-.037-.142.718.718,0,0,0-.095-.206.279.279,0,0,0-.053-.084.241.241,0,0,0-.047-.058.491.491,0,0,0-.105-.106l-.01-.01a.721.721,0,0,0-.137-.079.857.857,0,0,0-.367-.079Z" transform="translate(-270.668 -86.162)" fill="#455a64"/>
              </g>
            </g>
            <g id="Grupo_23278" data-name="Grupo 23278">
              <g id="Grupo_23277" data-name="Grupo 23277" opacity="0.8">
                <path id="Trazado_7176" data-name="Trazado 7176" d="M318.264,87.3v77.257a3.549,3.549,0,0,1-1.607,2.781l-44.383,25.607a1.032,1.032,0,0,1-.532.153.928.928,0,0,1-.206-.027.609.609,0,0,1-.137-.047c-.032-.016-.058-.032-.084-.047l-.095-.063a.648.648,0,0,1-.09-.079,1.27,1.27,0,0,1-.3-.422,2.011,2.011,0,0,1-.169-.811V114.74a3.555,3.555,0,0,1,1.607-2.78l44.383-25.582a1.166,1.166,0,0,1,1.08-.137.722.722,0,0,1,.137.079l.01.01a.506.506,0,0,1,.106.106.253.253,0,0,1,.047.058.289.289,0,0,1,.053.084.732.732,0,0,1,.095.206.566.566,0,0,1,.037.142.034.034,0,0,1,.005.031.718.718,0,0,1,.027.148C318.259,87.168,318.264,87.236,318.264,87.3Z" transform="translate(-270.668 -86.162)" fill="#455a64"/>
              </g>
            </g>
          </g>
          <g id="Grupo_23280" data-name="Grupo 23280">
            <path id="Trazado_7177" data-name="Trazado 7177" d="M315.85,85.172a1.166,1.166,0,0,0-1.08.137l-44.383,25.582a3.555,3.555,0,0,0-1.606,2.78v5.245l-2.048-1.2v-5.208a3.541,3.541,0,0,1,1.6-2.775l44.389-25.581a1.117,1.117,0,0,1,1.164-.095C314.175,84.23,315.507,84.993,315.85,85.172Z" transform="translate(-266.73 -83.933)" fill="#4dd0e1"/>
            <path id="Trazado_7178" data-name="Trazado 7178" d="M318.262,87.294c-.006-1.014-.721-1.423-1.6-.914l-44.383,25.581a3.546,3.546,0,0,0-1.6,2.778l0,5.247,47.589-27.427Z" transform="translate(-268.619 -85.002)" fill="#4dd0e1"/>
            <path id="Trazado_7179" data-name="Trazado 7179" d="M315.217,85.311l-44.381,25.581a3.293,3.293,0,0,0-1.13,1.191l-2.038-1.181a3.205,3.205,0,0,1,1.116-1.171L313.169,84.15a1.128,1.128,0,0,1,1.166-.1c.288.177,1.62.934,1.958,1.115A1.161,1.161,0,0,0,315.217,85.311Z" transform="translate(-267.179 -83.934)" fill="#fff" opacity="0.4"/>
            <path id="Trazado_7180" data-name="Trazado 7180" d="M266.728,142.576V137.36a3.307,3.307,0,0,1,.488-1.6l2.044,1.176a3.236,3.236,0,0,0-.479,1.594v5.247Z" transform="translate(-266.728 -108.788)" opacity="0.15"/>
          </g>
          <g id="Grupo_23281" data-name="Grupo 23281" transform="translate(39.073 4.395)">
            <path id="Trazado_7181" data-name="Trazado 7181" d="M342.717,99.728a2.392,2.392,0,0,0-.906,1.919c0,.771.406,1.161.906.872a2.39,2.39,0,0,0,.907-1.919C343.624,99.83,343.218,99.439,342.717,99.728Z" transform="translate(-341.811 -95.858)" fill="#455a64"/>
            <path id="Trazado_7182" data-name="Trazado 7182" d="M348.988,96.1a2.39,2.39,0,0,0-.907,1.919c0,.771.406,1.161.907.872a2.391,2.391,0,0,0,.906-1.919C349.894,96.2,349.488,95.812,348.988,96.1Z" transform="translate(-344.818 -94.118)" fill="#455a64"/>
            <path id="Trazado_7183" data-name="Trazado 7183" d="M355.258,92.474a2.391,2.391,0,0,0-.907,1.919c0,.771.406,1.161.907.872a2.39,2.39,0,0,0,.907-1.919C356.165,92.576,355.759,92.185,355.258,92.474Z" transform="translate(-347.826 -92.379)" fill="#455a64"/>
          </g>
          <path id="Trazado_7184" data-name="Trazado 7184" d="M269.37,223.019c-.058-.037-.126-.073-.2-.116-.147-.09-.316-.185-.495-.279l-.005-.005c-.09-.053-.179-.105-.269-.152a.039.039,0,0,0-.021-.01c-.147-.084-.289-.169-.421-.242s-.258-.147-.353-.2-.169-.095-.2-.11a.908.908,0,0,1-.274-.221,1.219,1.219,0,0,1-.216-.326,1.992,1.992,0,0,1-.184-.848V148.849l2.048,1.2v71.622a2.41,2.41,0,0,0,.169.811,1.27,1.27,0,0,0,.3.422.265.265,0,0,0,.09.079A.12.12,0,0,0,269.37,223.019Z" transform="translate(-266.73 -115.067)" fill="#37474f" opacity="0.9"/>
        </g>
        <g id="Grupo_23295" data-name="Grupo 23295" transform="translate(5.909 22.869)">
          <g id="Grupo_23283" data-name="Grupo 23283" transform="translate(0.084 9.804)">
            <path id="Trazado_7185" data-name="Trazado 7185" d="M278.244,156.96a.641.641,0,0,1,.082-.3l1.154-2.387a.228.228,0,0,1,.052-.071l.03-.021a.069.069,0,0,1,.091.006.158.158,0,0,1,.038.117v.8a1.038,1.038,0,0,1-.024.248,1.183,1.183,0,0,1-.082.219l-.608,1.261.608.558a.307.307,0,0,1,.082.124.72.72,0,0,1,.024.221v.8a.381.381,0,0,1-.038.162.245.245,0,0,1-.091.111l-.03.012a.056.056,0,0,1-.052-.01l-1.154-1.055a.238.238,0,0,1-.082-.2Z" transform="translate(-278.244 -150.291)" fill="#4dd0e1"/>
            <path id="Trazado_7186" data-name="Trazado 7186" d="M284.534,147.4a1.2,1.2,0,0,1,.087-.235.423.423,0,0,1,.17-.184l.433-.25a.07.07,0,0,1,.091.006.159.159,0,0,1,.037.118.406.406,0,0,1-.011.088l-1.978,8.431a1.113,1.113,0,0,1-.082.228.426.426,0,0,1-.175.192l-.416.24a.069.069,0,0,1-.091-.006.158.158,0,0,1-.038-.118.407.407,0,0,1,.011-.087Z" transform="translate(-280.315 -146.718)" fill="#4dd0e1"/>
            <path id="Trazado_7187" data-name="Trazado 7187" d="M290.9,150.878a.64.64,0,0,1-.082.3l-1.153,2.387a.226.226,0,0,1-.053.071.251.251,0,0,1-.029.021.07.07,0,0,1-.091-.006.157.157,0,0,1-.037-.118v-.8a1.093,1.093,0,0,1,.023-.248,1.227,1.227,0,0,1,.082-.219l.609-1.261-.609-.558a.325.325,0,0,1-.082-.124.765.765,0,0,1-.023-.221v-.8a.371.371,0,0,1,.037-.161.245.245,0,0,1,.091-.111l.029-.012a.057.057,0,0,1,.053.009l1.153,1.056a.238.238,0,0,1,.082.205Z" transform="translate(-283.621 -147.817)" fill="#4dd0e1"/>
            <path id="Trazado_7188" data-name="Trazado 7188" d="M297.748,151.519a.086.086,0,0,1,.111.008.194.194,0,0,1,.047.144v.883a.459.459,0,0,1-.047.2.3.3,0,0,1-.111.136l-.544.314a.085.085,0,0,1-.111-.008.193.193,0,0,1-.047-.144v-.883a.462.462,0,0,1,.047-.2.3.3,0,0,1,.111-.136Z" transform="translate(-287.261 -149.013)" fill="#4dd0e1"/>
            <path id="Trazado_7189" data-name="Trazado 7189" d="M301.246,149.5a.085.085,0,0,1,.111.008.191.191,0,0,1,.047.144v.883a.455.455,0,0,1-.047.2.3.3,0,0,1-.111.136l-.545.314a.084.084,0,0,1-.111-.008.192.192,0,0,1-.047-.144v-.883a.461.461,0,0,1,.047-.2.3.3,0,0,1,.111-.136Z" transform="translate(-288.939 -148.044)" fill="#4dd0e1"/>
            <path id="Trazado_7190" data-name="Trazado 7190" d="M304.742,147.481a.087.087,0,0,1,.112.008.2.2,0,0,1,.046.144v.883a.469.469,0,0,1-.046.2.307.307,0,0,1-.112.136l-.544.314a.085.085,0,0,1-.111-.007.194.194,0,0,1-.047-.144v-.883a.461.461,0,0,1,.047-.2.3.3,0,0,1,.111-.136Z" transform="translate(-290.616 -147.076)" fill="#4dd0e1"/>
          </g>
          <path id="Trazado_7191" data-name="Trazado 7191" d="M278.652,157.64l26.667-15.4c.315-.182.57-.053.57.288a1.221,1.221,0,0,1-.57.947l-26.667,15.4c-.315.182-.57.053-.57-.288A1.222,1.222,0,0,1,278.652,157.64Z" transform="translate(-278.082 -134.728)" fill="#4dd0e1"/>
          <path id="Trazado_7192" data-name="Trazado 7192" d="M295.093,176.625l26.667-15.4c.315-.182.57-.053.57.288a1.223,1.223,0,0,1-.57.947l-26.667,15.4c-.315.182-.57.053-.57-.289A1.221,1.221,0,0,1,295.093,176.625Z" transform="translate(-285.967 -143.833)" fill="#e0e0e0"/>
          <path id="Trazado_7193" data-name="Trazado 7193" d="M295.093,193.52l12.764-7.364c.315-.182.57-.053.57.288a1.222,1.222,0,0,1-.57.947l-12.763,7.364c-.315.182-.57.053-.57-.288A1.222,1.222,0,0,1,295.093,193.52Z" transform="translate(-285.967 -155.789)" fill="#e0e0e0"/>
          <path id="Trazado_7194" data-name="Trazado 7194" d="M295.093,203.012l12.764-7.364c.315-.182.57-.053.57.288a1.221,1.221,0,0,1-.57.947l-12.763,7.364c-.315.182-.57.053-.57-.289A1.223,1.223,0,0,1,295.093,203.012Z" transform="translate(-285.967 -160.341)" fill="#e0e0e0"/>
          <path id="Trazado_7195" data-name="Trazado 7195" d="M334.141,134.117l10.624-6.156c.315-.182.57-.053.57.288a1.223,1.223,0,0,1-.57.947l-10.624,6.156c-.315.182-.57.053-.57-.288A1.224,1.224,0,0,1,334.141,134.117Z" transform="translate(-304.694 -127.878)" fill="#4dd0e1"/>
          <path id="Trazado_7196" data-name="Trazado 7196" d="M278.652,262.047l26.667-15.4c.315-.182.57-.053.57.288a1.221,1.221,0,0,1-.57.947l-26.667,15.4c-.315.182-.57.053-.57-.288A1.222,1.222,0,0,1,278.652,262.047Z" transform="translate(-278.082 -184.802)" fill="#4dd0e1"/>
          <path id="Trazado_7197" data-name="Trazado 7197" d="M334.141,238.524l10.624-6.156c.315-.182.57-.053.57.288a1.223,1.223,0,0,1-.57.947l-10.624,6.157c-.315.182-.57.053-.57-.289A1.224,1.224,0,0,1,334.141,238.524Z" transform="translate(-304.694 -177.952)" fill="#4dd0e1"/>
          <path id="Trazado_7198" data-name="Trazado 7198" d="M334.141,210.1l10.624-6.157c.315-.182.57-.053.57.288a1.222,1.222,0,0,1-.57.947l-10.624,6.157c-.315.182-.57.053-.57-.289A1.222,1.222,0,0,1,334.141,210.1Z" transform="translate(-304.694 -164.319)" fill="#4dd0e1"/>
          <path id="Trazado_7199" data-name="Trazado 7199" d="M334.141,219.589l10.624-6.157c.315-.182.57-.053.57.288a1.222,1.222,0,0,1-.57.947l-10.624,6.157c-.315.182-.57.053-.57-.288A1.222,1.222,0,0,1,334.141,219.589Z" transform="translate(-304.694 -168.87)" fill="#4dd0e1"/>
          <path id="Trazado_7200" data-name="Trazado 7200" d="M278.652,252.565l26.667-15.4c.315-.182.57-.053.57.288a1.221,1.221,0,0,1-.57.947l-26.667,15.4c-.315.182-.57.053-.57-.288A1.222,1.222,0,0,1,278.652,252.565Z" transform="translate(-278.082 -180.254)" fill="#f5f5f5"/>
          <path id="Trazado_7201" data-name="Trazado 7201" d="M316.733,222.619l5.97-3.446c.315-.182.57-.053.57.288a1.222,1.222,0,0,1-.57.947l-5.97,3.446c-.314.182-.57.053-.57-.288A1.221,1.221,0,0,1,316.733,222.619Z" transform="translate(-296.346 -171.623)" fill="#4dd0e1"/>
          <g id="Grupo_23284" data-name="Grupo 23284" transform="translate(0 18.793)">
            <path id="Trazado_7202" data-name="Trazado 7202" d="M278.652,173.061l15.555-8.987c.315-.182.57-.053.57.288a1.223,1.223,0,0,1-.57.947L278.652,174.3c-.315.182-.57.053-.57-.288A1.222,1.222,0,0,1,278.652,173.061Z" transform="translate(-278.082 -163.991)" fill="#27debf"/>
            <path id="Trazado_7203" data-name="Trazado 7203" d="M278.652,173.061l15.555-8.987c.315-.182.57-.053.57.288a1.223,1.223,0,0,1-.57.947L278.652,174.3c-.315.182-.57.053-.57-.288A1.222,1.222,0,0,1,278.652,173.061Z" transform="translate(-278.082 -163.991)" fill="#fff" opacity="0.6"/>
          </g>
          <g id="Grupo_23285" data-name="Grupo 23285" transform="translate(0 29.661)">
            <path id="Trazado_7204" data-name="Trazado 7204" d="M278.652,188.007l5.277-3.051c.315-.182.57-.053.57.288a1.222,1.222,0,0,1-.57.947l-5.277,3.051c-.315.182-.57.053-.57-.289A1.221,1.221,0,0,1,278.652,188.007Z" transform="translate(-278.082 -184.874)" fill="#27debf"/>
            <path id="Trazado_7205" data-name="Trazado 7205" d="M278.652,188.007l5.277-3.051c.315-.182.57-.053.57.288a1.222,1.222,0,0,1-.57.947l-5.277,3.051c-.315.182-.57.053-.57-.289A1.221,1.221,0,0,1,278.652,188.007Z" transform="translate(-278.082 -184.874)" fill="#fff" opacity="0.6"/>
          </g>
          <g id="Grupo_23286" data-name="Grupo 23286" transform="translate(0 34.6)">
            <path id="Trazado_7206" data-name="Trazado 7206" d="M278.652,197.5l5.277-3.05c.315-.182.57-.053.57.288a1.222,1.222,0,0,1-.57.947l-5.277,3.051c-.315.182-.57.053-.57-.289A1.223,1.223,0,0,1,278.652,197.5Z" transform="translate(-278.082 -194.366)" fill="#27debf"/>
            <path id="Trazado_7207" data-name="Trazado 7207" d="M278.652,197.5l5.277-3.05c.315-.182.57-.053.57.288a1.222,1.222,0,0,1-.57.947l-5.277,3.051c-.315.182-.57.053-.57-.289A1.223,1.223,0,0,1,278.652,197.5Z" transform="translate(-278.082 -194.366)" fill="#fff" opacity="0.6"/>
          </g>
          <g id="Grupo_23287" data-name="Grupo 23287" transform="translate(0 39.54)">
            <path id="Trazado_7208" data-name="Trazado 7208" d="M278.652,206.99l5.277-3.05c.315-.182.57-.053.57.288a1.222,1.222,0,0,1-.57.947l-5.277,3.051c-.315.182-.57.053-.57-.289A1.223,1.223,0,0,1,278.652,206.99Z" transform="translate(-278.082 -203.858)" fill="#27debf"/>
            <path id="Trazado_7209" data-name="Trazado 7209" d="M278.652,206.99l5.277-3.05c.315-.182.57-.053.57.288a1.222,1.222,0,0,1-.57.947l-5.277,3.051c-.315.182-.57.053-.57-.289A1.223,1.223,0,0,1,278.652,206.99Z" transform="translate(-278.082 -203.858)" fill="#fff" opacity="0.6"/>
          </g>
          <g id="Grupo_23288" data-name="Grupo 23288" transform="translate(0 44.48)">
            <path id="Trazado_7210" data-name="Trazado 7210" d="M278.652,216.482l5.277-3.05c.315-.182.57-.053.57.288a1.223,1.223,0,0,1-.57.947l-5.277,3.05c-.315.182-.57.053-.57-.288A1.222,1.222,0,0,1,278.652,216.482Z" transform="translate(-278.082 -213.35)" fill="#27debf"/>
            <path id="Trazado_7211" data-name="Trazado 7211" d="M278.652,216.482l5.277-3.05c.315-.182.57-.053.57.288a1.223,1.223,0,0,1-.57.947l-5.277,3.05c-.315.182-.57.053-.57-.288A1.222,1.222,0,0,1,278.652,216.482Z" transform="translate(-278.082 -213.35)" fill="#fff" opacity="0.6"/>
          </g>
          <g id="Grupo_23289" data-name="Grupo 23289" transform="translate(17.764 13.625)">
            <path id="Trazado_7212" data-name="Trazado 7212" d="M312.787,158.035l6.764-3.893c.315-.182.57-.053.57.288a1.222,1.222,0,0,1-.57.947l-6.764,3.893c-.315.182-.57.053-.57-.288A1.221,1.221,0,0,1,312.787,158.035Z" transform="translate(-312.217 -154.06)" fill="#27debf"/>
            <path id="Trazado_7213" data-name="Trazado 7213" d="M312.787,158.035l6.764-3.893c.315-.182.57-.053.57.288a1.222,1.222,0,0,1-.57.947l-6.764,3.893c-.315.182-.57.053-.57-.288A1.221,1.221,0,0,1,312.787,158.035Z" transform="translate(-312.217 -154.06)" fill="#fff" opacity="0.6"/>
          </g>
          <g id="Grupo_23290" data-name="Grupo 23290" transform="translate(14.973 34.829)">
            <path id="Trazado_7214" data-name="Trazado 7214" d="M307.425,203.875l15.554-8.987c.315-.182.57-.053.57.288a1.222,1.222,0,0,1-.57.947l-15.554,8.987c-.315.182-.57.053-.57-.289A1.222,1.222,0,0,1,307.425,203.875Z" transform="translate(-306.855 -194.806)" fill="#f5f5f5"/>
          </g>
          <g id="Grupo_23291" data-name="Grupo 23291" transform="translate(23.947 34.608)">
            <path id="Trazado_7215" data-name="Trazado 7215" d="M324.669,203.45l15.554-8.987c.315-.182.57-.053.57.288a1.223,1.223,0,0,1-.57.947l-15.554,8.987c-.315.182-.57.053-.57-.288A1.222,1.222,0,0,1,324.669,203.45Z" transform="translate(-324.099 -194.38)" fill="#f5f5f5"/>
          </g>
          <g id="Grupo_23292" data-name="Grupo 23292" transform="translate(32.737 29.661)">
            <path id="Trazado_7216" data-name="Trazado 7216" d="M341.56,188.849l6.764-3.893c.315-.182.57-.053.57.288a1.221,1.221,0,0,1-.57.947l-6.764,3.893c-.315.182-.57.053-.57-.288A1.222,1.222,0,0,1,341.56,188.849Z" transform="translate(-340.99 -184.874)" fill="#f5f5f5"/>
          </g>
          <g id="Grupo_23293" data-name="Grupo 23293" transform="translate(8.556 18.784)">
            <path id="Trazado_7217" data-name="Trazado 7217" d="M295.093,173.043l15.555-8.987c.315-.182.57-.053.57.288a1.221,1.221,0,0,1-.57.947l-15.555,8.987c-.315.182-.57.053-.57-.288A1.223,1.223,0,0,1,295.093,173.043Z" transform="translate(-294.523 -163.974)" fill="#27debf"/>
            <path id="Trazado_7218" data-name="Trazado 7218" d="M295.093,173.043l15.555-8.987c.315-.182.57-.053.57.288a1.221,1.221,0,0,1-.57.947l-15.555,8.987c-.315.182-.57.053-.57-.288A1.223,1.223,0,0,1,295.093,173.043Z" transform="translate(-294.523 -163.974)" fill="#fff" opacity="0.6"/>
          </g>
          <g id="Grupo_23294" data-name="Grupo 23294" transform="translate(26.32 13.616)">
            <path id="Trazado_7219" data-name="Trazado 7219" d="M329.228,158.017l6.764-3.893c.315-.182.57-.053.57.288a1.221,1.221,0,0,1-.57.947l-6.764,3.893c-.315.182-.57.053-.57-.288A1.221,1.221,0,0,1,329.228,158.017Z" transform="translate(-328.658 -154.042)" fill="#27debf"/>
            <path id="Trazado_7220" data-name="Trazado 7220" d="M329.228,158.017l6.764-3.893c.315-.182.57-.053.57.288a1.221,1.221,0,0,1-.57.947l-6.764,3.893c-.315.182-.57.053-.57-.288A1.221,1.221,0,0,1,329.228,158.017Z" transform="translate(-328.658 -154.042)" fill="#fff" opacity="0.6"/>
          </g>
        </g>
      </g>
    </g>
    <g id="Speech_Bubbles" data-name="Speech Bubbles" transform="translate(216.878 54.963)">
      <g id="Grupo_23305" data-name="Grupo 23305">
        <g id="Grupo_23302" data-name="Grupo 23302">
          <g id="Grupo_23297" data-name="Grupo 23297" transform="translate(0 7.804)">
            <path id="Trazado_7221" data-name="Trazado 7221" d="M415.642,89.566V83.641l-5-.436a.364.364,0,0,0-.208.042c-.194.106-4.929,2.815-4.991,2.852a.367.367,0,0,0-.081.565l5.3,5.748Z" transform="translate(-405.261 -83.203)" fill="#27debf"/>
            <path id="Trazado_7222" data-name="Trazado 7222" d="M410.663,95.035l-5.3-5.748a.366.366,0,0,1,.3-.614l5,.436Z" transform="translate(-405.262 -85.825)" fill="#4dd0e1"/>
            <path id="Trazado_7223" data-name="Trazado 7223" d="M415.848,83.638l-4.977,2.85-5-.438a.379.379,0,0,0-.173.025c.4-.236,4.762-2.732,4.944-2.828a.341.341,0,0,1,.21-.042Z" transform="translate(-405.469 -83.203)" fill="#27debf"/>
            <path id="Trazado_7224" data-name="Trazado 7224" d="M415.848,83.638l-4.977,2.85-5-.438a.379.379,0,0,0-.173.025c.4-.236,4.762-2.732,4.944-2.828a.341.341,0,0,1,.21-.042Z" transform="translate(-405.469 -83.203)" fill="#fff" opacity="0.5"/>
          </g>
          <g id="Grupo_23301" data-name="Grupo 23301" transform="translate(5.41)">
            <g id="Grupo_23300" data-name="Grupo 23300">
              <g id="Grupo_23299" data-name="Grupo 23299">
                <g id="Grupo_23298" data-name="Grupo 23298">
                  <path id="Trazado_7225" data-name="Trazado 7225" d="M415.658,72.609a3.986,3.986,0,0,1,1.8-3.123l1.468-.848a3.988,3.988,0,0,1,3.606,0l15.648,9.036a3.984,3.984,0,0,1,1.8,3.123V98.874a3.986,3.986,0,0,1-1.8,3.123l-1.469.848a3.984,3.984,0,0,1-3.606,0l-4.62-2.667-6-3.469-5.024-2.9a3.984,3.984,0,0,1-1.8-3.123Z" transform="translate(-415.658 -68.207)" fill="#4dd0e1"/>
                  <path id="Trazado_7226" data-name="Trazado 7226" d="M456.355,108.839a3.986,3.986,0,0,1-1.8,3.123l-1.469.848a4.027,4.027,0,0,1-3.3.145c.849.321,1.495-.158,1.495-1.186V93.691a3.686,3.686,0,0,0-.528-1.777l5.074-2.929a3.682,3.682,0,0,1,.528,1.777Z" transform="translate(-432.025 -78.172)" opacity="0.2"/>
                  <path id="Trazado_7227" data-name="Trazado 7227" d="M415.772,72.1c.21-.766.908-1.01,1.741-.53l15.652,9.038a3.58,3.58,0,0,1,1.27,1.346l5.072-2.927a3.637,3.637,0,0,0-1.27-1.346l-15.644-9.039a4.01,4.01,0,0,0-3.609,0l-1.472.85A3.976,3.976,0,0,0,415.772,72.1Z" transform="translate(-415.713 -68.21)" fill="#fff" opacity="0.5"/>
                </g>
              </g>
            </g>
          </g>
        </g>
      </g>
      <g id="Grupo_23313" data-name="Grupo 23313" transform="translate(0 33.744)">
        <g id="Grupo_23311" data-name="Grupo 23311">
          <g id="Grupo_23306" data-name="Grupo 23306" transform="translate(0 7.804)">
            <path id="Trazado_7231" data-name="Trazado 7231" d="M415.642,154.409v-5.925l-5-.436a.364.364,0,0,0-.208.042c-.194.106-4.929,2.815-4.991,2.852a.367.367,0,0,0-.081.565l5.3,5.748Z" transform="translate(-405.261 -148.046)" fill="#27debf"/>
            <path id="Trazado_7232" data-name="Trazado 7232" d="M410.663,159.878l-5.3-5.748a.366.366,0,0,1,.3-.614l5,.436Z" transform="translate(-405.262 -150.668)" fill="#ebebeb"/>
            <path id="Trazado_7233" data-name="Trazado 7233" d="M415.848,148.482l-4.977,2.85-5-.438a.386.386,0,0,0-.173.025c.4-.236,4.762-2.732,4.944-2.828a.344.344,0,0,1,.21-.042Z" transform="translate(-405.469 -148.046)" fill="#27debf"/>
            <path id="Trazado_7234" data-name="Trazado 7234" d="M415.848,148.482l-4.977,2.85-5-.438a.386.386,0,0,0-.173.025c.4-.236,4.762-2.732,4.944-2.828a.344.344,0,0,1,.21-.042Z" transform="translate(-405.469 -148.046)" fill="#f5f5f5"/>
          </g>
          <g id="Grupo_23310" data-name="Grupo 23310" transform="translate(5.41)">
            <g id="Grupo_23309" data-name="Grupo 23309">
              <g id="Grupo_23308" data-name="Grupo 23308">
                <g id="Grupo_23307" data-name="Grupo 23307">
                  <path id="Trazado_7235" data-name="Trazado 7235" d="M415.658,137.452a3.987,3.987,0,0,1,1.8-3.123l1.468-.847a3.985,3.985,0,0,1,3.606,0l15.648,9.035a3.985,3.985,0,0,1,1.8,3.123v18.077a3.986,3.986,0,0,1-1.8,3.123l-1.469.848a3.984,3.984,0,0,1-3.606,0l-4.62-2.667-6-3.469-5.024-2.9a3.985,3.985,0,0,1-1.8-3.123Z" transform="translate(-415.658 -133.05)" fill="#ebebeb"/>
                  <path id="Trazado_7236" data-name="Trazado 7236" d="M456.355,173.682a3.985,3.985,0,0,1-1.8,3.123l-1.469.848a4.029,4.029,0,0,1-3.3.146c.849.321,1.495-.158,1.495-1.187V158.535a3.686,3.686,0,0,0-.528-1.777l5.074-2.929a3.684,3.684,0,0,1,.528,1.777Z" transform="translate(-432.025 -143.015)" fill="#e0e0e0"/>
                  <path id="Trazado_7237" data-name="Trazado 7237" d="M415.772,136.942c.21-.766.908-1.01,1.741-.53l15.652,9.038a3.579,3.579,0,0,1,1.27,1.346l5.072-2.927a3.637,3.637,0,0,0-1.27-1.346l-15.644-9.039a4.01,4.01,0,0,0-3.609,0l-1.472.85A3.976,3.976,0,0,0,415.772,136.942Z" transform="translate(-415.713 -133.053)" fill="#f5f5f5"/>
                </g>
              </g>
            </g>
          </g>
        </g>
      </g>
      <g id="Grupo_23325" data-name="Grupo 23325" transform="translate(0 67.489)">
        <g id="Grupo_23319" data-name="Grupo 23319">
          <g id="Grupo_23314" data-name="Grupo 23314" transform="translate(0 7.804)">
            <path id="Trazado_7241" data-name="Trazado 7241" d="M415.642,219.253v-5.926l-5-.436a.364.364,0,0,0-.208.042c-.194.106-4.929,2.815-4.991,2.852a.367.367,0,0,0-.081.565l5.3,5.748Z" transform="translate(-405.261 -212.889)" fill="#27debf"/>
            <path id="Trazado_7242" data-name="Trazado 7242" d="M410.663,224.721l-5.3-5.748a.366.366,0,0,1,.3-.614l5,.436Z" transform="translate(-405.262 -215.511)" fill="#37474f"/>
            <path id="Trazado_7243" data-name="Trazado 7243" d="M415.848,213.325l-4.977,2.85-5-.438a.386.386,0,0,0-.173.025c.4-.236,4.762-2.732,4.944-2.828a.344.344,0,0,1,.21-.042Z" transform="translate(-405.469 -212.889)" fill="#27debf"/>
            <path id="Trazado_7244" data-name="Trazado 7244" d="M415.848,213.325l-4.977,2.85-5-.438a.386.386,0,0,0-.173.025c.4-.236,4.762-2.732,4.944-2.828a.344.344,0,0,1,.21-.042Z" transform="translate(-405.469 -212.889)" fill="#455a64"/>
          </g>
          <g id="Grupo_23318" data-name="Grupo 23318" transform="translate(5.41)">
            <g id="Grupo_23317" data-name="Grupo 23317">
              <g id="Grupo_23316" data-name="Grupo 23316">
                <g id="Grupo_23315" data-name="Grupo 23315">
                  <path id="Trazado_7245" data-name="Trazado 7245" d="M415.658,202.3a3.987,3.987,0,0,1,1.8-3.123l1.468-.847a3.985,3.985,0,0,1,3.606,0l15.648,9.035a3.985,3.985,0,0,1,1.8,3.123V228.56a3.985,3.985,0,0,1-1.8,3.123l-1.469.848a3.984,3.984,0,0,1-3.606,0l-4.62-2.667-6-3.469-5.024-2.9a3.985,3.985,0,0,1-1.8-3.123Z" transform="translate(-415.658 -197.893)" fill="#37474f"/>
                  <path id="Trazado_7246" data-name="Trazado 7246" d="M456.355,238.525a3.987,3.987,0,0,1-1.8,3.123l-1.469.847a4.029,4.029,0,0,1-3.3.146c.849.321,1.495-.158,1.495-1.187V223.378a3.686,3.686,0,0,0-.528-1.777l5.074-2.929a3.686,3.686,0,0,1,.528,1.777Z" transform="translate(-432.025 -207.858)" fill="#263238"/>
                  <path id="Trazado_7247" data-name="Trazado 7247" d="M415.772,201.785c.21-.766.908-1.009,1.741-.53l15.652,9.038a3.577,3.577,0,0,1,1.27,1.346l5.072-2.928a3.637,3.637,0,0,0-1.27-1.346l-15.644-9.038a4.007,4.007,0,0,0-3.609,0l-1.472.849A3.976,3.976,0,0,0,415.772,201.785Z" transform="translate(-415.713 -197.896)" fill="#455a64"/>
                </g>
              </g>
            </g>
          </g>
        </g>
        <g id="Grupo_23324" data-name="Grupo 23324" transform="translate(9.012 10.259)">
          <g id="Grupo_23321" data-name="Grupo 23321">
            <path id="Trazado_7248" data-name="Trazado 7248" d="M432.089,225.557a6.011,6.011,0,0,0-.523-4.572,1.736,1.736,0,0,0-1.413-.75q-.065,0-.13,0a2.817,2.817,0,0,0-1.381.543c-1.056-1.966-2.09-3.177-2.827-3.177a.65.65,0,0,0-.106.009.681.681,0,0,0-.473.355,6.333,6.333,0,0,0-.106,3.594,2.918,2.918,0,0,0-1.948.138,1.229,1.229,0,0,0-.6,1.135c0,1.129.995,2.681,2.539,4.16a6.011,6.011,0,0,0,.522,4.573,1.979,1.979,0,0,0,.585.531,1.628,1.628,0,0,0,.825.22,2.061,2.061,0,0,0,.552-.08,3.283,3.283,0,0,0,.992-.5,8.355,8.355,0,0,0,2.346,3.082,1.021,1.021,0,0,0,.5.157.606.606,0,0,0,.107-.009.682.682,0,0,0,.473-.355,6.36,6.36,0,0,0,.1-3.609,4.738,4.738,0,0,0,.83.085,2.125,2.125,0,0,0,1.066-.238,1.229,1.229,0,0,0,.6-1.136C434.628,228.587,433.633,227.036,432.089,225.557Zm-1.785,3.015a10.357,10.357,0,0,1-.574.911c-.345-.166-.708-.355-1.093-.578s-.752-.454-1.105-.693q-.3-.784-.6-1.644t-.509-1.621c.143-.323.3-.646.478-.966a10.684,10.684,0,0,1,.569-.911c.347.166.71.353,1.1.577q.606.351,1.162.731.3.777.593,1.637.269.795.483,1.529C430.659,227.889,430.492,228.232,430.3,228.572Zm.51-2.659c-.117-.345-.236-.681-.357-1.011.349.264.678.533.984.8-.091.361-.2.729-.338,1.1C431.012,226.511,430.916,226.214,430.814,225.913Zm-2.178-2.935c-.264-.152-.523-.29-.78-.421a6.481,6.481,0,0,1,.741-.782c.245.5.493,1.042.742,1.631C429.109,223.26,428.875,223.116,428.636,222.978Zm-2.212.459c-.095.171-.184.344-.27.518-.14-.543-.259-1.057-.353-1.533a9.429,9.429,0,0,1,1.017.356C426.684,222.988,426.552,223.207,426.424,223.437Zm.022,3.235c.118.349.24.691.365,1.028-.373-.28-.721-.565-1.046-.85a11.617,11.617,0,0,1,.362-1.169C426.228,226.007,426.333,226.337,426.447,226.672Zm2.124,2.9c.262.151.52.288.775.418a6.693,6.693,0,0,1-.706.756q-.354-.722-.713-1.564Q428.244,229.387,428.571,229.576Zm2.212-.459c.106-.19.205-.384.3-.579.149.572.274,1.112.373,1.61a9.478,9.478,0,0,1-1.07-.372C430.521,229.567,430.654,229.349,430.783,229.117Zm-.707-5.213c-.352-.887-.716-1.706-1.082-2.442a2.91,2.91,0,0,1,.87-.436,1.664,1.664,0,0,1,.447-.064,1.176,1.176,0,0,1,.594.151,1.188,1.188,0,0,1,.354.318,5.068,5.068,0,0,1,.321,3.656A18.144,18.144,0,0,0,430.075,223.9Zm-2.882-1.66a10.555,10.555,0,0,0-1.524-.555,5.892,5.892,0,0,1,.03-3.155.351.351,0,0,1,.234-.187.288.288,0,0,1,.048,0,.581.581,0,0,1,.282.092,7.442,7.442,0,0,1,1.982,2.66A7.17,7.17,0,0,0,427.194,222.244Zm-1.364,2.428a12.426,12.426,0,0,0-.573,1.708c-1.336-1.289-2.129-2.54-2.129-3.3a.755.755,0,0,1,.4-.7,1.785,1.785,0,0,1,.883-.186,4.522,4.522,0,0,1,.851.094C425.4,223.028,425.593,223.828,425.829,224.673Zm1.363,4.021c.341.853.7,1.651,1.057,2.375a2.5,2.5,0,0,1-1.25.52,1.148,1.148,0,0,1-1.05-.466,5.064,5.064,0,0,1-.321-3.656A18.267,18.267,0,0,0,427.192,228.693Zm2.821,1.62a10.593,10.593,0,0,0,1.576.572,5.9,5.9,0,0,1-.029,3.166.351.351,0,0,1-.235.187c-.471.083-1.361-.971-2.338-2.806A7.177,7.177,0,0,0,430.013,230.313Zm1.39-2.5a12.457,12.457,0,0,0,.546-1.641c1.336,1.289,2.129,2.54,2.129,3.3a.755.755,0,0,1-.4.7,2.579,2.579,0,0,1-1.684.1C431.851,229.515,431.651,228.687,431.4,227.815Z" transform="translate(-422.579 -217.606)" fill="#27debf"/>
            <g id="Grupo_23320" data-name="Grupo 23320" transform="translate(4.967 7.134)">
              <path id="Trazado_7249" data-name="Trazado 7249" d="M434.238,233.462c0,.779-.474,1.137-1.057.8a2.532,2.532,0,0,1-1.058-2.021c0-.779.474-1.137,1.058-.8A2.534,2.534,0,0,1,434.238,233.462Z" transform="translate(-432.123 -231.314)" fill="#27debf"/>
            </g>
          </g>
          <g id="Grupo_23323" data-name="Grupo 23323" opacity="0.65">
            <path id="Trazado_7250" data-name="Trazado 7250" d="M432.089,225.557a6.011,6.011,0,0,0-.523-4.572,1.736,1.736,0,0,0-1.413-.75q-.065,0-.13,0a2.817,2.817,0,0,0-1.381.543c-1.056-1.966-2.09-3.177-2.827-3.177a.65.65,0,0,0-.106.009.681.681,0,0,0-.473.355,6.333,6.333,0,0,0-.106,3.594,2.918,2.918,0,0,0-1.948.138,1.229,1.229,0,0,0-.6,1.135c0,1.129.995,2.681,2.539,4.16a6.011,6.011,0,0,0,.522,4.573,1.979,1.979,0,0,0,.585.531,1.628,1.628,0,0,0,.825.22,2.061,2.061,0,0,0,.552-.08,3.283,3.283,0,0,0,.992-.5,8.355,8.355,0,0,0,2.346,3.082,1.021,1.021,0,0,0,.5.157.606.606,0,0,0,.107-.009.682.682,0,0,0,.473-.355,6.36,6.36,0,0,0,.1-3.609,4.738,4.738,0,0,0,.83.085,2.125,2.125,0,0,0,1.066-.238,1.229,1.229,0,0,0,.6-1.136C434.628,228.587,433.633,227.036,432.089,225.557Zm-1.785,3.015a10.357,10.357,0,0,1-.574.911c-.345-.166-.708-.355-1.093-.578s-.752-.454-1.105-.693q-.3-.784-.6-1.644t-.509-1.621c.143-.323.3-.646.478-.966a10.684,10.684,0,0,1,.569-.911c.347.166.71.353,1.1.577q.606.351,1.162.731.3.777.593,1.637.269.795.483,1.529C430.659,227.889,430.492,228.232,430.3,228.572Zm.51-2.659c-.117-.345-.236-.681-.357-1.011.349.264.678.533.984.8-.091.361-.2.729-.338,1.1C431.012,226.511,430.916,226.214,430.814,225.913Zm-2.178-2.935c-.264-.152-.523-.29-.78-.421a6.481,6.481,0,0,1,.741-.782c.245.5.493,1.042.742,1.631C429.109,223.26,428.875,223.116,428.636,222.978Zm-2.212.459c-.095.171-.184.344-.27.518-.14-.543-.259-1.057-.353-1.533a9.429,9.429,0,0,1,1.017.356C426.684,222.988,426.552,223.207,426.424,223.437Zm.022,3.235c.118.349.24.691.365,1.028-.373-.28-.721-.565-1.046-.85a11.617,11.617,0,0,1,.362-1.169C426.228,226.007,426.333,226.337,426.447,226.672Zm2.124,2.9c.262.151.52.288.775.418a6.693,6.693,0,0,1-.706.756q-.354-.722-.713-1.564Q428.244,229.387,428.571,229.576Zm2.212-.459c.106-.19.205-.384.3-.579.149.572.274,1.112.373,1.61a9.478,9.478,0,0,1-1.07-.372C430.521,229.567,430.654,229.349,430.783,229.117Zm-.707-5.213c-.352-.887-.716-1.706-1.082-2.442a2.91,2.91,0,0,1,.87-.436,1.664,1.664,0,0,1,.447-.064,1.176,1.176,0,0,1,.594.151,1.188,1.188,0,0,1,.354.318,5.068,5.068,0,0,1,.321,3.656A18.144,18.144,0,0,0,430.075,223.9Zm-2.882-1.66a10.555,10.555,0,0,0-1.524-.555,5.892,5.892,0,0,1,.03-3.155.351.351,0,0,1,.234-.187.288.288,0,0,1,.048,0,.581.581,0,0,1,.282.092,7.442,7.442,0,0,1,1.982,2.66A7.17,7.17,0,0,0,427.194,222.244Zm-1.364,2.428a12.426,12.426,0,0,0-.573,1.708c-1.336-1.289-2.129-2.54-2.129-3.3a.755.755,0,0,1,.4-.7,1.785,1.785,0,0,1,.883-.186,4.522,4.522,0,0,1,.851.094C425.4,223.028,425.593,223.828,425.829,224.673Zm1.363,4.021c.341.853.7,1.651,1.057,2.375a2.5,2.5,0,0,1-1.25.52,1.148,1.148,0,0,1-1.05-.466,5.064,5.064,0,0,1-.321-3.656A18.267,18.267,0,0,0,427.192,228.693Zm2.821,1.62a10.593,10.593,0,0,0,1.576.572,5.9,5.9,0,0,1-.029,3.166.351.351,0,0,1-.235.187c-.471.083-1.361-.971-2.338-2.806A7.177,7.177,0,0,0,430.013,230.313Zm1.39-2.5a12.457,12.457,0,0,0,.546-1.641c1.336,1.289,2.129,2.54,2.129,3.3a.755.755,0,0,1-.4.7,2.579,2.579,0,0,1-1.684.1C431.851,229.515,431.651,228.687,431.4,227.815Z" transform="translate(-422.579 -217.606)" fill="#fff"/>
            <g id="Grupo_23322" data-name="Grupo 23322" transform="translate(4.967 7.134)">
              <path id="Trazado_7251" data-name="Trazado 7251" d="M434.238,233.462c0,.779-.474,1.137-1.057.8a2.532,2.532,0,0,1-1.058-2.021c0-.779.474-1.137,1.058-.8A2.534,2.534,0,0,1,434.238,233.462Z" transform="translate(-432.123 -231.314)" fill="#fff"/>
            </g>
          </g>
        </g>
      </g>
    </g>
    <g id="Character" transform="translate(179.118 146.442)">
      <g id="Character-2" data-name="Character">
        <g id="Grupo_23326" data-name="Grupo 23326" transform="translate(31.438 15.728)">
          <path id="Trazado_7252" data-name="Trazado 7252" d="M393.113,274.216c2.034.4,2.961,1.088,4.117,3.909s3.219,9.693,3.7,11.577c.215.845-5.131,8.4-4.9,8.29.07-.034-2.087-3.644-2.087-3.644l2.623-5.02-1.868-4.565Z" transform="translate(-393.113 -274.216)" fill="#ffa8a7"/>
        </g>
        <path id="Trazado_7253" data-name="Trazado 7253" d="M391.352,274.253a4.218,4.218,0,0,1,3.084.688c1.228,1.021,1.415,1.7,2.244,3.794s2.2,6.45,2.2,6.45-.392,2.344-4.207,2.8l-3.27-7.364S390.26,276.173,391.352,274.253Z" transform="translate(-360.603 -258.481)" fill="#4dd0e1"/>
        <g id="Grupo_23333" data-name="Grupo 23333" transform="translate(13.896 32.977)">
          <path id="Trazado_7254" data-name="Trazado 7254" d="M384.374,390.406a4.376,4.376,0,0,0,.12,1.982,4.473,4.473,0,0,0,1.6,1.933,7.865,7.865,0,0,1,1.332,1.614,6.788,6.788,0,0,0,1.39,1.738,2.782,2.782,0,0,0,2.246.162c.589-.248.787-.469.75-1.411-.035-.92-2.889-1.262-2.889-1.262Z" transform="translate(-371.353 -347.19)" fill="#455a64"/>
          <path id="Trazado_7255" data-name="Trazado 7255" d="M391.594,392.589c.244.092.3.556.342,1.477.028.7.321,1.719-.64,2.159a2.346,2.346,0,0,1-2.537-.539c-.654-.821-1.1-1.543-2.029-2.544-.809-.869-1.651-1.162-2.011-2.9-.231-1.116-.049-1.578.7-1.9,1.033-.44,2.656,1,3.465,1.225C389.582,389.765,391.35,392.5,391.594,392.589Z" transform="translate(-371.5 -346.162)" fill="#27debf"/>
          <path id="Trazado_7256" data-name="Trazado 7256" d="M391.594,392.589c.244.092.3.556.342,1.477.028.7.321,1.719-.64,2.159a2.346,2.346,0,0,1-2.537-.539c-.654-.821-1.1-1.543-2.029-2.544-.809-.869-1.651-1.162-2.011-2.9-.231-1.116-.049-1.578.7-1.9,1.033-.44,2.656,1,3.465,1.225C389.582,389.765,391.35,392.5,391.594,392.589Z" transform="translate(-371.5 -346.162)" opacity="0.2"/>
          <path id="Trazado_7257" data-name="Trazado 7257" d="M390.6,390.731c-.043-.012-.09-.029-.137-.048a2.663,2.663,0,0,0-2.236,1.466c-.138.3.287.54.539.3A2.842,2.842,0,0,1,391,391,1.185,1.185,0,0,0,390.6,390.731Z" transform="translate(-373.214 -347.323)" fill="#fafafa"/>
          <path id="Trazado_7258" data-name="Trazado 7258" d="M392.155,391.785a2.643,2.643,0,0,0-2.077,1.454c-.137.3.287.54.54.3a2.722,2.722,0,0,1,1.864-1.392C392.369,392.021,392.26,391.9,392.155,391.785Z" transform="translate(-374.103 -347.851)" fill="#fafafa"/>
          <g id="Grupo_23329" data-name="Grupo 23329" transform="translate(0 52.442)">
            <path id="Trazado_7259" data-name="Trazado 7259" d="M359.446,416.825c-.158.782.125,1.189,1.133,1.771a5.623,5.623,0,0,0,4.256.3c1.665-.484,2.46-1.211,3.153-1.384s2.4-.188,3.087-.388.673-.551.67-1.373Z" transform="translate(-359.405 -411.786)" fill="#455a64"/>
            <g id="Grupo_23327" data-name="Grupo 23327" transform="translate(0.074)">
              <path id="Trazado_7260" data-name="Trazado 7260" d="M371.143,408.134s.325.985.5,1.845a4.988,4.988,0,0,1,.1,2.343c-.239.515-1.174.847-2.623.836a8.5,8.5,0,0,0-3.4,1.189,5.21,5.21,0,0,1-3.251.451,4.077,4.077,0,0,1-2.834-1.433c-.209-.534-.263-.935,2.776-2.229.028-.012,3.526-1.3,5-2.925Z" transform="translate(-359.547 -408.134)" fill="#27debf"/>
            </g>
            <g id="Grupo_23328" data-name="Grupo 23328" transform="translate(0.074)" opacity="0.2">
              <path id="Trazado_7261" data-name="Trazado 7261" d="M371.143,408.134s.325.985.5,1.845a4.988,4.988,0,0,1,.1,2.343c-.239.515-1.174.847-2.623.836a8.5,8.5,0,0,0-3.4,1.189,5.21,5.21,0,0,1-3.251.451,4.077,4.077,0,0,1-2.834-1.433c-.209-.534-.263-.935,2.776-2.229.028-.012,3.526-1.3,5-2.925Z" transform="translate(-359.547 -408.134)"/>
            </g>
            <path id="Trazado_7262" data-name="Trazado 7262" d="M365.257,417.2s-.26-2.609-2.381-3.356c-1.917-.674-3.592.746-3.4,1.981C359.6,416.661,361.93,418.547,365.257,417.2Z" transform="translate(-359.43 -410.791)" fill="#fafafa"/>
            <path id="Trazado_7263" data-name="Trazado 7263" d="M367.058,412.734a2.471,2.471,0,0,1,1.448.643c.611.515.629.857.629.857a.321.321,0,0,0,.553-.264,1.992,1.992,0,0,0-1.874-1.586A.706.706,0,0,0,367.058,412.734Z" transform="translate(-363.075 -410.166)" fill="#fafafa"/>
            <path id="Trazado_7264" data-name="Trazado 7264" d="M369.389,411.619a2.17,2.17,0,0,1,1.461.581c.612.515.616.919.616.919a.322.322,0,0,0,.553-.265,1.993,1.993,0,0,0-1.875-1.586A.706.706,0,0,0,369.389,411.619Z" transform="translate(-364.193 -409.631)" fill="#fafafa"/>
            <path id="Trazado_7265" data-name="Trazado 7265" d="M371.7,410.259a2.169,2.169,0,0,1,1.5.48c.645.471.677.874.677.874a.322.322,0,0,0,.534-.3,1.993,1.993,0,0,0-1.979-1.453A.706.706,0,0,0,371.7,410.259Z" transform="translate(-365.302 -408.958)" fill="#fafafa"/>
          </g>
          <g id="Grupo_23330" data-name="Grupo 23330" transform="translate(17.04 44.935)">
            <path id="Trazado_7266" data-name="Trazado 7266" d="M395.2,393.709v1.77a2.771,2.771,0,0,1-2.86.077c-.05-.109-.193-1.847-.193-1.847Z" transform="translate(-392.149 -393.709)" fill="#ffa8a7"/>
          </g>
          <g id="Grupo_23331" data-name="Grupo 23331" transform="translate(7.929 51.218)">
            <path id="Trazado_7267" data-name="Trazado 7267" d="M378.382,405.783s0,.84,0,1.32-.563,1.2-2.03,1.143c-1.031-.037-1.751-.314-1.71-1.163v-1.223Z" transform="translate(-374.641 -405.783)" fill="#ffa8a7"/>
          </g>
          <g id="Grupo_23332" data-name="Grupo 23332" transform="translate(5.43)">
            <path id="Trazado_7268" data-name="Trazado 7268" d="M386.412,337.277a14.8,14.8,0,0,0-.863-5.372s.286-4.611.906-10.258c.945-8.6.51-10.261-1.186-14.128,0,0-14.469-1.466-14.91,4.546-.55,7.489-.615,22.72-.416,25.365s.2.2.838,5.556c.508,4.235,1.559,15.67,1.559,15.67a3.968,3.968,0,0,0,3.74-.076s1.183-13.993,1.059-17.045a34.467,34.467,0,0,0-.363-4.676s1.692-12.065,1.954-14.008c0,0,.235,3.477.434,6.122s.182,4.776.74,10.248c.437,4.292,1.5,13.558,1.5,13.558a3.553,3.553,0,0,0,3.155-.233S386.489,340.3,386.412,337.277Z" transform="translate(-369.84 -307.362)" fill="#455a64"/>
          </g>
          <path id="Trazado_7269" data-name="Trazado 7269" d="M385.08,391.386s.081-2.067,2.874-2.354l.16.091a2.409,2.409,0,0,0-1.374-1.061,1.9,1.9,0,0,0-2.15.618C384.1,389.308,384.6,390.983,385.08,391.386Z" transform="translate(-371.388 -346.019)" fill="#fafafa"/>
        </g>
        <g id="Grupo_23335" data-name="Grupo 23335" transform="translate(24.027 12.722)">
          <g id="Grupo_23334" data-name="Grupo 23334">
            <path id="Trazado_7270" data-name="Trazado 7270" d="M378.873,269.5l.68,5.591,4.915-.444-.562-6.206Z" transform="translate(-378.873 -268.441)" fill="#ffa8a7"/>
          </g>
        </g>
        <g id="Grupo_23337" data-name="Grupo 23337" transform="translate(19.296 15.722)">
          <g id="Grupo_23336" data-name="Grupo 23336">
            <path id="Trazado_7271" data-name="Trazado 7271" d="M384.9,276.915c-.54-1.471-1.778-3.011-3.668-2.66-.492.092-.925.163-1.388.257-.043,1.288-2.469,1.955-4.889,1.174q-1.091.312-2,.636c-1.73.618-2.426,3.492-2.464,8.3s-.714,14.461-.714,14.461,3.637,1.932,10.446.7,6.689-3.548,6.689-3.548-.136-2.82-3.2-7.557C386.318,281.743,385.7,279.1,384.9,276.915Z" transform="translate(-369.781 -274.204)" fill="#37474f"/>
          </g>
        </g>
        <g id="Grupo_23342" data-name="Grupo 23342" transform="translate(19.296)">
          <g id="Grupo_23338" data-name="Grupo 23338" transform="translate(0.714)">
            <path id="Trazado_7272" data-name="Trazado 7272" d="M371.518,250.673a4.313,4.313,0,0,1,.371-4.156c1.65-2.591,4.831-3.033,8.6-2.022a6.688,6.688,0,0,1,4.716,6.07c.181,2.764-7.529,4.8-7.353,6.7Z" transform="translate(-371.153 -243.993)" fill="#263238"/>
          </g>
          <g id="Grupo_23339" data-name="Grupo 23339" transform="translate(0 7.729)">
            <path id="Trazado_7273" data-name="Trazado 7273" d="M370.694,258.846s-1.046,1.678-.9,1.848a2.6,2.6,0,0,0,.845.338Z" transform="translate(-369.781 -258.846)" fill="#f28f8f"/>
          </g>
          <g id="Grupo_23340" data-name="Grupo 23340" transform="translate(0.802 1.919)">
            <path id="Trazado_7274" data-name="Trazado 7274" d="M374.624,248.179c-1.045.576-2.85,1.637-3.216,5.554-.375,4.021.554,5.39,1.115,5.9a5.168,5.168,0,0,0,3.269.087,10.328,10.328,0,0,0,5.093-3.924c1.419-2.474,1.638-5.726-.11-6.952A6.4,6.4,0,0,0,374.624,248.179Z" transform="translate(-371.321 -247.681)" fill="#ffa8a7"/>
          </g>
          <path id="Trazado_7275" data-name="Trazado 7275" d="M375.384,251.423a3.984,3.984,0,0,1-2.552-3.213c-.4-2.552,2.792-3.632,2.792-3.632Z" transform="translate(-371.228 -244.274)" fill="#263238"/>
          <g id="Grupo_23341" data-name="Grupo 23341" transform="translate(3.513 1.024)">
            <path id="Trazado_7276" data-name="Trazado 7276" d="M376.814,247.529s-.825,3.681.344,5.963c0,0,.609-1.445,1.847-1.068s1.177,2.028.228,2.9a1.839,1.839,0,0,1-1.9.458,8.258,8.258,0,0,0,1.839,2.777A6.033,6.033,0,0,0,386,256.607c2.879-3.249,2.344-8.917-2.065-10.253A7.509,7.509,0,0,0,376.814,247.529Z" transform="translate(-376.531 -245.962)" fill="#263238"/>
          </g>
          <path id="Trazado_7277" data-name="Trazado 7277" d="M401.634,264.36h0a5,5,0,0,1-5-5v-8.377h0a5,5,0,0,1,5,5Z" transform="translate(-382.658 -247.344)" fill="#263238"/>
          <path id="Trazado_7278" data-name="Trazado 7278" d="M397.15,248.852a.864.864,0,0,0-.558,1.087l1.645-.529A.863.863,0,0,0,397.15,248.852Z" transform="translate(-382.619 -246.304)" fill="#263238"/>
        </g>
        <g id="Grupo_23346" data-name="Grupo 23346" transform="translate(0 17.461)">
          <g id="Grupo_23343" data-name="Grupo 23343" transform="translate(5.523 3.314)">
            <path id="Trazado_7279" data-name="Trazado 7279" d="M347.825,289.834c-.713-.815-.832-2.615-1.782-3.854-.929-1.209-.777-2.487-1.374-1.931-.637.594-.15,2.586-.15,2.586a12.075,12.075,0,0,0-1.2,3.1c-.094,1.051,2.688,3.691,2.688,3.691Z" transform="translate(-343.315 -283.915)" fill="#ffa8a7"/>
          </g>
          <g id="Grupo_23344" data-name="Grupo 23344" transform="translate(0 5.341)">
            <path id="Trazado_7280" data-name="Trazado 7280" d="M339.579,288.362s-1.126,1.575-6.2-.482c-1.4-.568-.456,2.444,1.262,3.692,1.59,1.155,3.581,1.512,5.173,2.59C339.819,294.009,339.579,288.362,339.579,288.362Z" transform="translate(-332.702 -287.81)" fill="#ffa8a7"/>
          </g>
          <g id="Grupo_23345" data-name="Grupo 23345" transform="translate(7.702 0.229)">
            <path id="Trazado_7281" data-name="Trazado 7281" d="M362.7,277.987a6.359,6.359,0,0,0-4.059,3.619c-1.733,3.257-4.884,9.636-4.884,9.636l-3.927-4.252s-.571-.805-1.635.951-.593,2.242-.593,2.242,4.569,6.12,5.408,6.9,2.216.173,3.115-1.052,5.549-9.646,5.549-9.646S364.746,281.066,362.7,277.987Z" transform="translate(-347.503 -277.987)" fill="#ffa8a7"/>
          </g>
          <path id="Trazado_7282" data-name="Trazado 7282" d="M370.732,277.547a5.528,5.528,0,0,0-4.4,2.929c-1.727,3.125-3.547,6.65-3.547,6.65a5.549,5.549,0,0,0,4.444,3.25c.006-.311,2.614-4.942,3.595-6.926S371.708,278.439,370.732,277.547Z" transform="translate(-347.128 -277.547)" fill="#4dd0e1"/>
        </g>
        <path id="Trazado_7283" data-name="Trazado 7283" d="M386.922,332.893l.274-2.924a11.046,11.046,0,0,0,4.413-1.67,5.989,5.989,0,0,1-3.519,2.192l-.582,2.849-.152,5.676Z" transform="translate(-358.706 -284.426)" fill="#37474f"/>
      </g>
    </g>
  </g>
</svg>
