<svg xmlns="http://www.w3.org/2000/svg" width="168" height="168" viewBox="0 0 168 168">
  <g id="Grupo_31029" data-name="Grupo 31029" transform="translate(-179 -372)">
    <rect id="Rectángulo_7417" data-name="Rectángulo 7417" width="168" height="168" rx="10" transform="translate(179 372)" fill="#ecfafc"/>
    <g id="javascript" transform="translate(229.5 420)">
      <path id="Trazado_29766" data-name="Trazado 29766" d="M45.454,0H8.369C7.337,0,6.5.837,6.5,2.461V70.279a1.924,1.924,0,0,0,1.869,1.278H59.576a1.924,1.924,0,0,0,1.869-1.278v-53.7c0-.889-.119-1.176-.328-1.386L46.248.328A1.129,1.129,0,0,0,45.454,0Z" fill="#e9e9e0"/>
      <path id="Trazado_29767" data-name="Trazado 29767" d="M37.5.151V15.292H52.641Z" transform="translate(8.612 0.042)" fill="#d9d7ca"/>
      <path id="Trazado_29768" data-name="Trazado 29768" d="M59.576,60.723H8.369A1.869,1.869,0,0,1,6.5,58.853V39H61.445V58.853A1.869,1.869,0,0,1,59.576,60.723Z" transform="translate(0 10.834)" fill="#eeaf4b"/>
      <g id="Grupo_31020" data-name="Grupo 31020" transform="translate(23.565 54.585)">
        <path id="Trazado_29769" data-name="Trazado 29769" d="M27.734,42.719V52.747a3.206,3.206,0,0,1-.332,1.528,2.749,2.749,0,0,1-.891,1,3.549,3.549,0,0,1-1.284.524,7.478,7.478,0,0,1-1.494.148,6.059,6.059,0,0,1-.9-.079,7.685,7.685,0,0,1-1.066-.244q-.55-.167-1.057-.376a3.862,3.862,0,0,1-.856-.472l.891-1.415a2.609,2.609,0,0,0,.5.253c.216.087.451.169.708.244s.524.142.8.2a3.828,3.828,0,0,0,.786.087,2.686,2.686,0,0,0,1.476-.358,1.414,1.414,0,0,0,.585-1.214V42.718h2.131Z" transform="translate(-19.855 -42.718)" fill="#fff"/>
        <path id="Trazado_29770" data-name="Trazado 29770" d="M35.81,52.315a3.322,3.322,0,0,1-.289,1.354,3.533,3.533,0,0,1-.813,1.153,3.908,3.908,0,0,1-1.293.795,4.819,4.819,0,0,1-1.747.3c-.28,0-.567-.015-.865-.043a6.981,6.981,0,0,1-.9-.148,4.71,4.71,0,0,1-.865-.289,2.774,2.774,0,0,1-.708-.446l.367-1.5a3.684,3.684,0,0,0,.62.271c.25.087.509.169.777.244a7.84,7.84,0,0,0,.8.184,4.447,4.447,0,0,0,.751.07,2.4,2.4,0,0,0,1.633-.5,1.86,1.86,0,0,0,.567-1.476,1.415,1.415,0,0,0-.4-1.013,4.351,4.351,0,0,0-1-.76q-.6-.341-1.3-.681a7.888,7.888,0,0,1-1.31-.8,4.171,4.171,0,0,1-1.013-1.091,2.86,2.86,0,0,1-.4-1.572,3.51,3.51,0,0,1,.314-1.519,3.4,3.4,0,0,1,.847-1.127A3.75,3.75,0,0,1,30.82,43a4.527,4.527,0,0,1,1.494-.244,9.163,9.163,0,0,1,1.624.148,3.58,3.58,0,0,1,1.328.48c-.07.151-.152.317-.244.5s-.181.349-.262.506-.152.289-.21.394a1.616,1.616,0,0,1-.1.175,2.112,2.112,0,0,1-.236-.139,1.808,1.808,0,0,0-.376-.175,2.693,2.693,0,0,0-.647-.123,6.108,6.108,0,0,0-1.031.018,1.8,1.8,0,0,0-.664.2,2.275,2.275,0,0,0-.56.41,1.848,1.848,0,0,0-.385.551,1.406,1.406,0,0,0-.139.585,1.58,1.58,0,0,0,.4,1.127,3.894,3.894,0,0,0,1,.751c.4.216.825.426,1.293.629a7.052,7.052,0,0,1,1.3.742,3.751,3.751,0,0,1,1,1.091A3.153,3.153,0,0,1,35.81,52.315Z" transform="translate(-17.5 -42.706)" fill="#fff"/>
      </g>
      <g id="Grupo_31021" data-name="Grupo 31021" transform="translate(16.722 15.334)">
        <path id="Trazado_29771" data-name="Trazado 29771" d="M20.889,20.945V15.833a1.279,1.279,0,0,1,1.278-1.278,1.278,1.278,0,0,0,0-2.556,3.838,3.838,0,0,0-3.833,3.833v5.111A2.558,2.558,0,0,1,15.778,23.5a1.278,1.278,0,0,0,0,2.556,2.558,2.558,0,0,1,2.556,2.556v5.111a3.838,3.838,0,0,0,3.833,3.833,1.278,1.278,0,0,0,0-2.556,1.279,1.279,0,0,1-1.278-1.278V28.611a5.079,5.079,0,0,0-1.766-3.833A5.079,5.079,0,0,0,20.889,20.945Z" transform="translate(-14.5 -12)" fill="#eeaf4b"/>
        <circle id="Elipse_1618" data-name="Elipse 1618" cx="1.917" cy="1.917" r="1.917" transform="translate(14.695 6.389)" fill="#eeaf4b"/>
        <path id="Trazado_29772" data-name="Trazado 29772" d="M41.167,23.5a2.558,2.558,0,0,1-2.556-2.556V15.833A3.838,3.838,0,0,0,34.778,12a1.278,1.278,0,1,0,0,2.556,1.279,1.279,0,0,1,1.278,1.278v5.111a5.079,5.079,0,0,0,1.766,3.833,5.079,5.079,0,0,0-1.766,3.833v5.111A1.279,1.279,0,0,1,34.778,35a1.278,1.278,0,0,0,0,2.556,3.838,3.838,0,0,0,3.833-3.833V28.611a2.558,2.558,0,0,1,2.556-2.556,1.278,1.278,0,1,0,0-2.556Z" transform="translate(-9.222 -12)" fill="#eeaf4b"/>
        <path id="Trazado_29773" data-name="Trazado 29773" d="M27.778,24A1.277,1.277,0,0,0,26.5,25.278v3.833a1.278,1.278,0,0,0,2.556,0V25.278A1.277,1.277,0,0,0,27.778,24Z" transform="translate(-11.166 -8.666)" fill="#eeaf4b"/>
      </g>
    </g>
  </g>
</svg>
