<svg xmlns="http://www.w3.org/2000/svg" width="90" height="90" viewBox="0 0 90 90">
  <g id="Grupo_32831" data-name="Grupo 32831" transform="translate(-218 -1894)">
    <path id="Trazado_30722" data-name="Trazado 30722" d="M0,0H90V90H0Z" transform="translate(218 1894)" fill="#fff" opacity="0"/>
    <g id="hombre-de-negocios" transform="translate(223.256 1899.08)">
      <g id="Grupo_22671" data-name="Grupo 22671" transform="translate(1.181 1.39)">
        <path id="Trazado_5289" data-name="Trazado 5289" d="M200.437,125.754h32.73a5.631,5.631,0,0,1,5.631,5.631v.5a5.631,5.631,0,0,1-5.631,5.631h-32.73a5.631,5.631,0,0,1-5.631-5.631v-.5A5.631,5.631,0,0,1,200.437,125.754Z" transform="translate(-165.3 -107.158)" fill="#27394c"/>
        <path id="Trazado_5290" data-name="Trazado 5290" d="M220.394,206.235a6.134,6.134,0,0,1-5.637,6.115c-.165.014-.332.021-.5.021a6.08,6.08,0,0,1-1.253-.128h-36.96a6.08,6.08,0,0,1-1.253.128h0a6.135,6.135,0,0,1-.572-12.243,5.632,5.632,0,0,1,.576-.028,6.2,6.2,0,0,1,.76.046H213.5a6.2,6.2,0,0,1,.76-.046,6.136,6.136,0,0,1,6.136,6.135Z" transform="translate(-143.268 -169.793)" fill="#ffcbb3"/>
        <path id="Trazado_5291" data-name="Trazado 5291" d="M245.061,200.192v7.773a17.156,17.156,0,0,1-.568,4.384c-.165.014-.332.021-.5.021a6.078,6.078,0,0,1-1.253-.128h-36.96a6.078,6.078,0,0,1-1.253.128h0a17.192,17.192,0,0,1-.572-4.405v-7.838a5.628,5.628,0,0,1,.576-.028,6.213,6.213,0,0,1,.76.046h37.945a6.213,6.213,0,0,1,.76-.046A6.118,6.118,0,0,1,245.061,200.192Z" transform="translate(-173.005 -169.792)" fill="#e89876"/>
        <path id="Trazado_5292" data-name="Trazado 5292" d="M253.012,346.331v7.939H215.559v-7.939a18.726,18.726,0,1,1,37.453,0Z" transform="translate(-182.783 -277.211)" fill="#27394c"/>
        <path id="Trazado_5293" data-name="Trazado 5293" d="M298.519,348.927v7.939H269.575v-7.939a18.735,18.735,0,0,1,14.471-18.242,18.738,18.738,0,0,1,14.473,18.242Z" transform="translate(-228.29 -279.806)" fill="#3e5268"/>
        <path id="Trazado_5294" data-name="Trazado 5294" d="M276.378,367.723l9.145,18.558,9.145-18.558" transform="translate(-234.021 -311.01)" fill="#fff"/>
        <path id="Trazado_5295" data-name="Trazado 5295" d="M283.4,373.782l8.038,10.267,8.038-10.267" transform="translate(-239.942 -316.114)" fill="#fc74af"/>
        <path id="Trazado_5296" data-name="Trazado 5296" d="M294.808,368.137l-4.17,8.461-4.944-5.382h0l-4.944,5.382-4.17-8.461" transform="translate(-234.193 -311.359)" fill="#bbb8cc"/>
        <path id="Trazado_5297" data-name="Trazado 5297" d="M257.524,370.177v1.788h-4.6l-4.8-4.8,2-4.157h-4.62l-2.368-10.978a18.693,18.693,0,0,1,3.752-3.426Z" transform="translate(-206.022 -294.906)" fill="#172635"/>
        <path id="Trazado_5298" data-name="Trazado 5298" d="M334.427,370.177v1.788h4.6l4.8-4.8-2-4.157h4.62l2.368-10.978a18.693,18.693,0,0,0-3.752-3.426Z" transform="translate(-282.926 -294.906)" fill="#172635"/>
        <path id="Trazado_5299" data-name="Trazado 5299" d="M253.012,82.688V95.441a18.726,18.726,0,0,1-37.453,0V82.688a18.726,18.726,0,1,1,37.453,0Z" transform="translate(-182.783 -55.1)" fill="#e89876"/>
        <path id="Trazado_5300" data-name="Trazado 5300" d="M291.051,84.493V97.246a18.732,18.732,0,0,1-15.17,18.388,18.732,18.732,0,0,1-15.17-18.388V84.493A18.733,18.733,0,0,1,275.881,66.1a18.735,18.735,0,0,1,15.17,18.389Z" transform="translate(-220.823 -56.905)" fill="#ffcbb3"/>
        <path id="Trazado_5301" data-name="Trazado 5301" d="M242.673,8.049l-8.4,8.4a4.78,4.78,0,0,0-8.382-.887,11.981,11.981,0,1,0-1.967,17.016,15.575,15.575,0,0,0,18.75-24.53Z" transform="translate(-173.557 -7.995)" fill="#3e5268"/>
        <path id="Trazado_5302" data-name="Trazado 5302" d="M211.8,39.585a11.985,11.985,0,0,0,8.384,11.431,11.98,11.98,0,1,1,0-22.862A11.984,11.984,0,0,0,211.8,39.585Z" transform="translate(-173.557 -24.471)" fill="#27394c"/>
        <path id="Trazado_5303" data-name="Trazado 5303" d="M324.786,441.792l-2.218,4.5-2.218-4.5,2.218-2.834Z" transform="translate(-271.067 -371.023)" fill="#fc74af"/>
        <path id="Trazado_5304" data-name="Trazado 5304" d="M320.376,282.813c0-1.786-1.448-2.13-3.233-2.13s-3.233.345-3.233,2.13a3.233,3.233,0,0,0,6.467,0Z" transform="translate(-265.64 -237.681)" fill="#fc74af"/>
        <g id="Grupo_22669" data-name="Grupo 22669" transform="translate(9.773 59.587)">
          <path id="Trazado_5305" data-name="Trazado 5305" d="M132.251,388.073v5.082h-4.209v-5.082a2.1,2.1,0,1,1,4.209,0Z" transform="translate(-118.826 -385.968)" fill="#e89876"/>
          <path id="Trazado_5306" data-name="Trazado 5306" d="M141.956,389.168v2.719h-2.394v-2.719a2.1,2.1,0,0,1,1.2-1.9A2.106,2.106,0,0,1,141.956,389.168Z" transform="translate(-128.531 -387.063)" fill="#ffcbb3"/>
          <g id="Grupo_22668" data-name="Grupo 22668" transform="translate(0 4.824)">
            <path id="Trazado_5307" data-name="Trazado 5307" d="M114.758,423.494l5.656,5.694h14.112l-12.71-12.6-4.235,4.083Z" transform="translate(-107.635 -416.588)" fill="#3e5268"/>
            <path id="Trazado_5308" data-name="Trazado 5308" d="M83.721,416.6l-3.463,3.387L76.664,423.5,71.9,422.483a2.969,2.969,0,0,1-1.693-1.04c-.046-.057-.091-.117-.132-.178a2.976,2.976,0,0,1,2.448-4.671Z" transform="translate(-69.54 -416.594)" fill="#ffcbb3"/>
            <path id="Trazado_5309" data-name="Trazado 5309" d="M83.089,438.095l-3.595,3.518L74.726,440.6a2.969,2.969,0,0,1-1.693-1.04c-.046-.057-.091-.117-.132-.178a2.966,2.966,0,0,1,2.448-1.284Z" transform="translate(-72.371 -434.707)" fill="#e89876"/>
            <path id="Trazado_5310" data-name="Trazado 5310" d="M114.758,445.333l5.656,5.694h5.645l-8.479-8.517Z" transform="translate(-107.635 -438.427)" fill="#27394c"/>
          </g>
        </g>
        <g id="Grupo_22670" data-name="Grupo 22670">
          <path id="Trazado_5311" data-name="Trazado 5311" d="M7.5,12.414v25.03a4.7,4.7,0,0,0,4.7,4.7H35.214l7.445,7.591A1.765,1.765,0,0,0,45.684,48.5V12.414a4.7,4.7,0,0,0-4.7-4.7H12.2A4.7,4.7,0,0,0,7.5,12.414Z" transform="translate(-7.5 -7.709)" fill="#96efff"/>
        </g>
      </g>
      <g id="Grupo_22672" data-name="Grupo 22672" transform="translate(0 0.209)">
        <path id="Trazado_5312" data-name="Trazado 5312" d="M276.327,218.01a1.181,1.181,0,0,0,1.181-1.181v-4.6a1.181,1.181,0,1,0-2.363,0v4.6A1.182,1.182,0,0,0,276.327,218.01Z" transform="translate(-231.802 -177.831)"/>
        <path id="Trazado_5313" data-name="Trazado 5313" d="M379.9,218.01a1.182,1.182,0,0,0,1.181-1.181v-4.6a1.181,1.181,0,1,0-2.363,0v4.6A1.182,1.182,0,0,0,379.9,218.01Z" transform="translate(-319.062 -177.831)"/>
        <path id="Trazado_5314" data-name="Trazado 5314" d="M72.3,45.148a7.316,7.316,0,0,0,1.732-14.391,6.83,6.83,0,0,0,1.832-4.643v-.5a6.822,6.822,0,0,0-2.028-4.845A16.786,16.786,0,0,0,71.132.609a1.181,1.181,0,0,0-1.671,0L62.136,7.934a5.963,5.963,0,0,0-8.628-.745A13.174,13.174,0,0,0,40.152,3.981,5.9,5.9,0,0,0,34.661.209h-22.8a1.181,1.181,0,0,0,0,2.363h22.8A3.527,3.527,0,0,1,38.184,6.1v36.09a.583.583,0,0,1-1,.408L29.739,35a1.182,1.182,0,0,0-.843-.354H5.886a3.527,3.527,0,0,1-3.523-3.523V6.1A3.527,3.527,0,0,1,5.886,2.572H7.13a1.181,1.181,0,1,0,0-2.363H5.886A5.893,5.893,0,0,0,0,6.1v25.03a5.893,5.893,0,0,0,5.886,5.886H25.441a7.31,7.31,0,0,0,7.27,8.139c.119,0,.238,0,.357-.009a19.887,19.887,0,0,0,5.865,10.975,19.859,19.859,0,0,0-6.157,14.4v1.2l-6.809-6.749a1.178,1.178,0,0,0-.407-.263V63.082a3.286,3.286,0,0,0-6.571,0V64.62H13.931a4.158,4.158,0,0,0-.868,8.225l4.424.944L22.9,79.234a1.182,1.182,0,0,0,.838.349l47.676.048a1.182,1.182,0,0,0,1.181-1.181V70.511a1.181,1.181,0,1,0-2.363,0v6.756H60.135l2.779-2.778a1.181,1.181,0,0,0,.229-1.348l-1.186-2.463H64.7a1.182,1.182,0,0,0,1.155-.932l1.807-8.382a17.442,17.442,0,0,1,2.115,5.154,1.181,1.181,0,1,0,2.3-.536,19.877,19.877,0,0,0-5.314-9.551q-.157-.157-.32-.313A19.944,19.944,0,0,0,72.3,45.148Zm4.828-7.315a4.96,4.96,0,0,1-4.562,4.938c.018-.344.028-.69.028-1.038V37.677a1.391,1.391,0,0,1,1.286.812,1.181,1.181,0,0,0,2.167-.942,3.7,3.7,0,0,0-3.453-2.231V32.9A4.96,4.96,0,0,1,77.125,37.833ZM73.5,25.617v.5a4.453,4.453,0,0,1-.909,2.69,19.847,19.847,0,0,0-.749-5.251q.332-.375.638-.765A4.454,4.454,0,0,1,73.5,25.617ZM52.6,9.7a1.182,1.182,0,0,0,1.894-.079,3.6,3.6,0,0,1,6.312.667,1.181,1.181,0,0,0,1.929.389l7.532-7.532a14.394,14.394,0,0,1-18.128,21.8,1.181,1.181,0,0,0-1.311.092,10.788,10.788,0,0,1-10.277,1.621V6.347A10.791,10.791,0,0,1,52.6,9.7ZM32.711,42.788a4.958,4.958,0,0,1-4.886-5.776H28.4l4.376,4.462v.26q0,.53.028,1.052Zm2.578,1.249.207.211a2.946,2.946,0,0,0,5.049-2.063V29.146A13.152,13.152,0,0,0,51.64,27.369a16.792,16.792,0,0,0,18.228-1.927,17.581,17.581,0,0,1,.36,3.538V41.733a17.545,17.545,0,0,1-34.938,2.3ZM52.683,67.409l-1.865-2.383L52.683,63l1.865,2.031ZM48.037,64.56l-2-4.063A19.753,19.753,0,0,0,50.8,61.551Zm1.16,2.23,1.985,2.536-.489.625-1.536-3.117Zm3.486,4.453.831,1.061-.831,1.685L51.852,72.3Zm1.99-1.292-.489-.625,1.986-2.536.04.044ZM57.33,64.56l-2.764-3.009c.638-.06,1.272-.15,1.9-.271a19.824,19.824,0,0,0,2.866-.777ZM42.613,58.9l9.01,18.285c.014.029.032.056.049.084h-3.1l-3.857-3.857,1.638-3.4a1.182,1.182,0,0,0-1.064-1.694H41.624l-2.043-9.473q.551-.618,1.164-1.189A20.007,20.007,0,0,0,42.613,58.9ZM35.139,70.512a17.511,17.511,0,0,1,2.569-9.147l1.807,8.381a1.181,1.181,0,0,0,1.155.932h2.739l-1.186,2.463a1.181,1.181,0,0,0,.229,1.348l2.779,2.778H38.382l-3.243-3.215V70.512Zm-13.787-7.43a.923.923,0,0,1,1.845,0V64.62H21.352V63.082Zm-9.216,5.7a1.8,1.8,0,0,1,1.8-1.8h8.307L17.7,71.42l-4.148-.885A1.8,1.8,0,0,1,12.136,68.779Zm7.619,3.94L25.13,67.46l9.847,9.76H24.226ZM65.09,58.1c.24.24.47.488.695.74l-2.043,9.473H60.077a1.182,1.182,0,0,0-1.064,1.694l1.638,3.4-3.856,3.856h-3.1c.017-.028.035-.055.049-.084l9-18.27a19.847,19.847,0,0,0,1.882-1.253C64.786,57.807,64.941,57.954,65.09,58.1Z" transform="translate(0 -0.209)"/>
        <path id="Trazado_5315" data-name="Trazado 5315" d="M310.825,280.91a4.42,4.42,0,0,0,4.415-4.415c0-2.2-1.485-3.312-4.415-3.312s-4.415,1.114-4.415,3.312A4.42,4.42,0,0,0,310.825,280.91Zm0-5.364c2.052,0,2.052.483,2.052.949a2.052,2.052,0,1,1-4.1,0C308.773,276.029,308.773,275.546,310.825,275.546Z" transform="translate(-258.141 -230.181)"/>
        <path id="Trazado_5316" data-name="Trazado 5316" d="M67.928,50.721H42.882a1.181,1.181,0,0,0,0,2.363H67.928a1.181,1.181,0,1,0,0-2.363Z" transform="translate(-35.132 -42.764)"/>
        <path id="Trazado_5317" data-name="Trazado 5317" d="M67.928,88.215H42.882a1.181,1.181,0,1,0,0,2.363H67.928a1.181,1.181,0,1,0,0-2.363Z" transform="translate(-35.132 -74.351)"/>
        <path id="Trazado_5318" data-name="Trazado 5318" d="M182.5,125.709h-3.622a1.181,1.181,0,0,0,0,2.363H182.5a1.181,1.181,0,1,0,0-2.363Z" transform="translate(-149.701 -105.939)"/>
        <path id="Trazado_5319" data-name="Trazado 5319" d="M42.882,128.072h16.7a1.181,1.181,0,0,0,0-2.363h-16.7a1.181,1.181,0,0,0,0,2.363Z" transform="translate(-35.132 -105.939)"/>
        <path id="Trazado_5320" data-name="Trazado 5320" d="M42.882,165.566H67.928a1.181,1.181,0,1,0,0-2.363H42.882a1.181,1.181,0,0,0,0,2.363Z" transform="translate(-35.132 -137.526)"/>
      </g>
    </g>
  </g>
</svg>
