<svg xmlns="http://www.w3.org/2000/svg" width="317.304" height="199.975" viewBox="0 0 317.304 199.975"><g transform="translate(-837.376 -8896.289)"><path d="M99.007,23.24c4.608,0,6.792-2.3,6.792-4.992,0-6.168-9.96-3.84-9.96-7.416,0-1.272,1.056-2.28,3.648-2.28a9.336,9.336,0,0,1,4.632,1.32l.984-2.424A10.621,10.621,0,0,0,99.511,5.96c-4.608,0-6.768,2.3-6.768,5.016,0,6.24,9.984,3.864,9.984,7.488,0,1.248-1.1,2.184-3.72,2.184A9.309,9.309,0,0,1,93.463,18.8l-1.08,2.424A10.825,10.825,0,0,0,99.007,23.24ZM110.119,8.072a1.842,1.842,0,0,0,1.92-1.872,1.786,1.786,0,0,0-1.92-1.728,1.8,1.8,0,1,0,0,3.6ZM108.607,23h3V10.184h-3Zm25.608-6.336a6.25,6.25,0,0,0-6.48-6.624,6.374,6.374,0,0,0-6.624,6.552c0,3.816,2.784,6.576,7.08,6.576a6.5,6.5,0,0,0,5.16-2.088l-1.608-1.848a4.593,4.593,0,0,1-3.48,1.392,3.879,3.879,0,0,1-4.152-3.072h10.056C134.191,17.264,134.215,16.9,134.215,16.664Zm-6.48-4.224a3.489,3.489,0,0,1,3.624,3.12h-7.272A3.542,3.542,0,0,1,127.735,12.44Zm13.32,10.728c3.6,0,5.808-1.56,5.808-3.96,0-5.016-7.92-2.712-7.92-5.3,0-.84.864-1.44,2.688-1.44a7.015,7.015,0,0,1,3.672.96l1.152-2.28a10.2,10.2,0,0,0-4.8-1.1c-3.456,0-5.64,1.584-5.64,4.008,0,5.112,7.92,2.808,7.92,5.256,0,.888-.792,1.416-2.688,1.416a8.623,8.623,0,0,1-4.464-1.272l-1.152,2.28A10.183,10.183,0,0,0,141.055,23.168Zm15.264-3a2.7,2.7,0,0,1-1.68.528c-1.152,0-1.776-.672-1.776-1.92v-6.1h3.432v-2.4h-3.432V7.352h-3V10.28h-2.112v2.4h2.112v6.168c0,2.832,1.608,4.32,4.416,4.32a4.714,4.714,0,0,0,2.88-.864ZM169.543,5.144h-3.528l-3.24,3.288h2.592Zm-5.016,4.9a9.011,9.011,0,0,0-5.424,1.584l1.176,2.184a6.345,6.345,0,0,1,3.888-1.272c2.136,0,3.192,1.032,3.192,2.784v.192h-3.312c-3.888,0-5.328,1.68-5.328,3.816,0,2.232,1.848,3.84,4.776,3.84,1.92,0,3.312-.624,4.032-1.728V23h2.832V15.488C170.359,11.792,168.223,10.04,164.527,10.04Zm-.408,10.944c-1.536,0-2.448-.7-2.448-1.776,0-.936.552-1.7,2.592-1.7h3.1v1.488A3.267,3.267,0,0,1,164.119,20.984Zm21.6-10.944a9.011,9.011,0,0,0-5.424,1.584l1.176,2.184a6.345,6.345,0,0,1,3.888-1.272c2.136,0,3.192,1.032,3.192,2.784v.192h-3.312c-3.888,0-5.328,1.68-5.328,3.816,0,2.232,1.848,3.84,4.776,3.84,1.92,0,3.312-.624,4.032-1.728V23h2.832V15.488C191.551,11.792,189.415,10.04,185.719,10.04Zm-.408,10.944c-1.536,0-2.448-.7-2.448-1.776,0-.936.552-1.7,2.592-1.7h3.1v1.488A3.267,3.267,0,0,1,185.311,20.984ZM207.679,8.072A1.842,1.842,0,0,0,209.6,6.2a1.786,1.786,0,0,0-1.92-1.728,1.8,1.8,0,1,0,0,3.6ZM195.8,9.464v.816h-2.112v2.4H195.8V23h3V12.68h3.432v-2.4H198.7V9.512c0-1.368.648-2.064,1.9-2.064a2.954,2.954,0,0,1,1.656.528l.84-2.256a4.8,4.8,0,0,0-2.712-.7C197.407,5.024,195.8,6.776,195.8,9.464ZM206.167,23h3V10.184h-3Zm6.936,0h3V5.192h-3Zm8.448-14.928a1.842,1.842,0,0,0,1.92-1.872,1.786,1.786,0,0,0-1.92-1.728,1.8,1.8,0,1,0,0,3.6ZM220.039,23h3V10.184h-3Zm11.832-12.96a9.011,9.011,0,0,0-5.424,1.584l1.176,2.184a6.345,6.345,0,0,1,3.888-1.272c2.136,0,3.192,1.032,3.192,2.784v.192h-3.312c-3.888,0-5.328,1.68-5.328,3.816,0,2.232,1.848,3.84,4.776,3.84,1.92,0,3.312-.624,4.032-1.728V23H237.7V15.488C237.7,11.792,235.567,10.04,231.871,10.04Zm-.408,10.944c-1.536,0-2.448-.7-2.448-1.776,0-.936.552-1.7,2.592-1.7h3.1v1.488A3.267,3.267,0,0,1,231.463,20.984ZM251.215,5.192v6.576a5.248,5.248,0,0,0-4.128-1.728,6.217,6.217,0,0,0-6.48,6.552,6.237,6.237,0,0,0,6.48,6.576,5.284,5.284,0,0,0,4.248-1.824V23h2.88V5.192ZM247.447,20.6a3.746,3.746,0,0,1-3.816-4.008,3.821,3.821,0,1,1,7.632,0A3.746,3.746,0,0,1,247.447,20.6Zm16.464,2.568a6.463,6.463,0,0,0,6.84-6.576c0-3.84-2.856-6.552-6.84-6.552a6.451,6.451,0,0,0-6.816,6.552A6.47,6.47,0,0,0,263.911,23.168Zm0-2.568a3.727,3.727,0,0,1-3.792-4.008,3.809,3.809,0,1,1,7.608,0A3.732,3.732,0,0,1,263.911,20.6Zm21.24-10.56a9.011,9.011,0,0,0-5.424,1.584l1.176,2.184a6.345,6.345,0,0,1,3.888-1.272c2.136,0,3.192,1.032,3.192,2.784v.192h-3.312c-3.888,0-5.328,1.68-5.328,3.816,0,2.232,1.848,3.84,4.776,3.84,1.92,0,3.312-.624,4.032-1.728V23h2.832V15.488C290.983,11.792,288.847,10.04,285.151,10.04Zm-.408,10.944c-1.536,0-2.448-.7-2.448-1.776,0-.936.552-1.7,2.592-1.7h3.1v1.488A3.267,3.267,0,0,1,284.743,20.984ZM294.823,23h3V5.192h-3Zm16.416-10.944V10.184h-2.856V23h3V16.784c0-2.616,1.44-3.96,3.72-3.96a3.809,3.809,0,0,1,.7.072V10.04C313.663,10.04,312.1,10.712,311.239,12.056Zm17.232-6.912h-3.528L321.7,8.432h2.592Zm1.8,11.52a6.25,6.25,0,0,0-6.48-6.624,6.374,6.374,0,0,0-6.624,6.552c0,3.816,2.784,6.576,7.08,6.576a6.5,6.5,0,0,0,5.16-2.088L327.8,19.232a4.593,4.593,0,0,1-3.48,1.392,3.879,3.879,0,0,1-4.152-3.072h10.056C330.247,17.264,330.271,16.9,330.271,16.664Zm-6.48-4.224a3.489,3.489,0,0,1,3.624,3.12h-7.272A3.542,3.542,0,0,1,323.791,12.44Zm19.224-2.256v1.7a5.549,5.549,0,0,0-4.44-1.848c-3.672,0-6.48,2.448-6.48,6.168a6.122,6.122,0,0,0,6.48,6.216,5.641,5.641,0,0,0,4.3-1.7v.672c0,2.592-1.248,3.888-4.08,3.888a7.742,7.742,0,0,1-4.728-1.536L332.719,26a10.186,10.186,0,0,0,6.24,1.824c4.488,0,6.912-2.112,6.912-6.768V10.184Zm-3.984,9.7a3.655,3.655,0,1,1,3.888-3.672A3.634,3.634,0,0,1,339.031,19.88ZM351.319,8.072a1.842,1.842,0,0,0,1.92-1.872,1.786,1.786,0,0,0-1.92-1.728,1.8,1.8,0,1,0,0,3.6ZM349.807,23h3V10.184h-3Zm23.112-12.96a5.982,5.982,0,0,0-4.8,2.136,4.8,4.8,0,0,0-4.32-2.136,5.308,5.308,0,0,0-4.2,1.776V10.184h-2.856V23h3V16.5c0-2.544,1.344-3.84,3.336-3.84,1.824,0,2.88,1.1,2.88,3.384V23h3V16.5c0-2.544,1.368-3.84,3.336-3.84,1.824,0,2.88,1.1,2.88,3.384V23h3V15.656C378.175,11.792,376.015,10.04,372.919,10.04Zm21.264,6.624a6.25,6.25,0,0,0-6.48-6.624,6.374,6.374,0,0,0-6.624,6.552c0,3.816,2.784,6.576,7.08,6.576a6.5,6.5,0,0,0,5.16-2.088l-1.608-1.848a4.593,4.593,0,0,1-3.48,1.392,3.879,3.879,0,0,1-4.152-3.072h10.056C394.159,17.264,394.183,16.9,394.183,16.664ZM387.7,12.44a3.489,3.489,0,0,1,3.624,3.12h-7.272A3.542,3.542,0,0,1,387.7,12.44Zm16.632-2.4a5.573,5.573,0,0,0-4.416,1.8V10.184h-2.856V23h3V16.52c0-2.568,1.44-3.864,3.576-3.864,1.92,0,3.048,1.1,3.048,3.384V23h3V15.656C409.687,11.792,407.407,10.04,404.335,10.04ZM183.559,51.968a5.827,5.827,0,0,0,5.472-3l-2.3-1.344a3.627,3.627,0,0,1-3.192,1.776,3.749,3.749,0,0,1-3.888-4.008,3.762,3.762,0,0,1,3.888-4.008,3.627,3.627,0,0,1,3.192,1.776l2.3-1.344a5.767,5.767,0,0,0-5.472-2.976c-4.056,0-6.936,2.712-6.936,6.552S179.5,51.968,183.559,51.968Zm13.632,0a6.463,6.463,0,0,0,6.84-6.576c0-3.84-2.856-6.552-6.84-6.552a6.569,6.569,0,1,0,0,13.128Zm0-2.568a3.727,3.727,0,0,1-3.792-4.008,3.809,3.809,0,1,1,7.608,0A3.732,3.732,0,0,1,197.191,49.4Zm16.992-10.56a5.573,5.573,0,0,0-4.416,1.8V38.984h-2.856V51.8h3V45.32c0-2.568,1.44-3.864,3.576-3.864,1.92,0,3.048,1.1,3.048,3.384V51.8h3V44.456C219.535,40.592,217.255,38.84,214.183,38.84Zm16.032,10.128a2.7,2.7,0,0,1-1.68.528c-1.152,0-1.776-.672-1.776-1.92v-6.1h3.432v-2.4h-3.432V36.152h-3V39.08h-2.112v2.4h2.112v6.168c0,2.832,1.608,4.32,4.416,4.32a4.714,4.714,0,0,0,2.88-.864Zm6.168-8.112V38.984h-2.856V51.8h3V45.584c0-2.616,1.44-3.96,3.72-3.96a3.809,3.809,0,0,1,.7.072V38.84C238.807,38.84,237.247,39.512,236.383,40.856ZM245,36.872A1.842,1.842,0,0,0,246.919,35,1.786,1.786,0,0,0,245,33.272a1.8,1.8,0,1,0,0,3.6ZM243.487,51.8h3V38.984h-3Zm14.04-12.96a5.328,5.328,0,0,0-4.1,1.7V33.992h-3V51.8h2.856V50.144a5.284,5.284,0,0,0,4.248,1.824,6.243,6.243,0,0,0,6.5-6.576A6.223,6.223,0,0,0,257.527,38.84Zm-.336,10.56a3.746,3.746,0,0,1-3.816-4.008,3.809,3.809,0,1,1,7.608,0A3.727,3.727,0,0,1,257.191,49.4Zm19.1-10.416v6.48c0,2.568-1.416,3.864-3.5,3.864-1.9,0-3-1.1-3-3.432V38.984h-3V46.3c0,3.864,2.232,5.664,5.52,5.664a5.235,5.235,0,0,0,4.128-1.8V51.8h2.856V38.984Zm13.8,9.984a2.7,2.7,0,0,1-1.68.528c-1.152,0-1.776-.672-1.776-1.92v-6.1h3.432v-2.4h-3.432V36.152h-3V39.08h-2.112v2.4h2.112v6.168c0,2.832,1.608,4.32,4.416,4.32a4.714,4.714,0,0,0,2.88-.864Zm4.824-12.1A1.842,1.842,0,0,0,296.839,35a1.786,1.786,0,0,0-1.92-1.728,1.8,1.8,0,1,0,0,3.6ZM293.407,51.8h3V38.984h-3Zm16.056-12.816-4.1,9.5-3.984-9.5h-3.12l5.5,12.816h3.1l5.5-12.816Zm10.152,12.984a6.463,6.463,0,0,0,6.84-6.576c0-3.84-2.856-6.552-6.84-6.552a6.569,6.569,0,1,0,0,13.128Zm0-2.568a3.727,3.727,0,0,1-3.792-4.008,3.809,3.809,0,1,1,7.608,0A3.732,3.732,0,0,1,319.615,49.4Z" transform="translate(744.993 9044.296)" fill="#0f231a"/><g transform="translate(0 11)"><g opacity="0.8"><path d="M1000,8978.607a4.449,4.449,0,0,0,8.9,0c0-2.457-1.823-3.593-4.448-4.449-2.336-.762-4.449-1.991-4.449-4.448a4.449,4.449,0,0,1,8.9,0" fill="none" stroke="#0f231a" stroke-linecap="round" stroke-linejoin="round" stroke-width="3"/><line y2="2.51" transform="translate(1004.452 8962.782)" fill="none" stroke="#0f231a" stroke-linecap="round" stroke-linejoin="round" stroke-width="3"/><line y2="2.51" transform="translate(1004.452 8983.055)" fill="none" stroke="#0f231a" stroke-linecap="round" stroke-linejoin="round" stroke-width="3"/><path d="M999.378,8957.771c-1.34.757-3.049,1.29-4.892,2.476a16.085,16.085,0,0,0-5.668,6.667,17.353,17.353,0,0,0-.414,13.767" fill="none" stroke="#0f231a" stroke-linecap="round" stroke-linejoin="round" stroke-width="3"/><path d="M999.41,8955.106l2.875-.656.657,2.875" fill="none" stroke="#0f231a" stroke-linecap="round" stroke-linejoin="round" stroke-width="3"/><path d="M992.453,8986.964c1.274.782,2.563,1.94,4.434,2.9a16.1,16.1,0,0,0,8.607,1.575,17.352,17.352,0,0,0,12.13-6.525" fill="none" stroke="#0f231a" stroke-linecap="round" stroke-linejoin="round" stroke-width="3"/><path d="M989.973,8988.174l-2.006-2.161,2.161-2.007" fill="none" stroke="#0f231a" stroke-linecap="round" stroke-linejoin="round" stroke-width="3"/><path d="M1021.05,8978.017a42.991,42.991,0,0,0,.289-5.039,16.087,16.087,0,0,0-2.94-8.24,17.348,17.348,0,0,0-11.716-7.242" fill="none" stroke="#0f231a" stroke-linecap="round" stroke-linejoin="round" stroke-width="3"/><path d="M1023.328,8979.813l-.869,2.817-2.818-.868" fill="none" stroke="#0f231a" stroke-linecap="round" stroke-linejoin="round" stroke-width="3"/></g><g opacity="0.8"><circle cx="8.086" cy="8.086" r="8.086" transform="translate(962.052 8912.562) rotate(-22.5)" fill="none" stroke="#0f231a" stroke-linecap="round" stroke-linejoin="round" stroke-width="3"/><line y2="28.077" transform="translate(978.401 8961.253)" fill="none" stroke="#0f231a" stroke-linecap="round" stroke-linejoin="round" stroke-width="3"/><line y1="27.598" transform="translate(966.832 8961.253)" fill="none" stroke="#0f231a" stroke-linecap="round" stroke-linejoin="round" stroke-width="3"/><path d="M972.617,8937.45v3.373a5.97,5.97,0,0,0,5.97,5.97h16.869" fill="none" stroke="#0f231a" stroke-linecap="round" stroke-linejoin="round" stroke-width="3"/><path d="M983.432,8996.537h-16.6v-7.687h8.914a7.686,7.686,0,0,1,7.686,7.687Z" fill="none" stroke="#0f231a" stroke-linecap="round" stroke-linejoin="round" stroke-width="3"/><path d="M981.984,8942.4v-3.886a9.367,9.367,0,0,0-9.367-9.367h0a9.367,9.367,0,0,0-9.368,9.367v8.395a30.493,30.493,0,0,0,3.583,14.343H978.4a30.516,30.516,0,0,0,3.232-9.729" fill="none" stroke="#0f231a" stroke-linecap="round" stroke-linejoin="round" stroke-width="3"/></g><g opacity="0.8"><circle cx="8.086" cy="8.086" r="8.086" transform="translate(1027.481 8910.926) rotate(-13.282)" fill="none" stroke="#0f231a" stroke-linecap="round" stroke-linejoin="round" stroke-width="3"/><line y2="28.077" transform="translate(1031.423 8961.253)" fill="none" stroke="#0f231a" stroke-linecap="round" stroke-linejoin="round" stroke-width="3"/><line y1="27.598" transform="translate(1042.993 8961.253)" fill="none" stroke="#0f231a" stroke-linecap="round" stroke-linejoin="round" stroke-width="3"/><path d="M1037.208,8937.45v3.373a5.97,5.97,0,0,1-5.971,5.97h-16.868" fill="none" stroke="#0f231a" stroke-linecap="round" stroke-linejoin="round" stroke-width="3"/><path d="M1026.392,8996.537h16.6v-7.687h-8.915a7.687,7.687,0,0,0-7.686,7.687Z" fill="none" stroke="#0f231a" stroke-linecap="round" stroke-linejoin="round" stroke-width="3"/><path d="M1027.84,8942.4v-3.886a9.367,9.367,0,0,1,9.368-9.367h0a9.367,9.367,0,0,1,9.368,9.367v8.395a30.505,30.505,0,0,1-3.583,14.343h-11.57a30.49,30.49,0,0,1-3.232-9.729" fill="none" stroke="#0f231a" stroke-linecap="round" stroke-linejoin="round" stroke-width="3"/></g><path d="M1004.452,8922.8l-7.559,2.907,7.559,3.076,7.56-3.076Z" fill="#a3bd31"/><path d="M994.506,8937.412l8.557,3.482v-9.673l-8.557-3.482Z" fill="#efc33b"/><path d="M1005.841,8940.9l8.557-3.483v-9.673l-8.557,3.482Z" fill="#efc33b"/><circle cx="65.771" cy="65.771" r="65.771" transform="translate(938.879 8886.789)" fill="none" stroke="#0f231a" stroke-linecap="round" stroke-linejoin="round" stroke-width="3" opacity="0.8"/><circle cx="23.297" cy="23.297" r="23.297" transform="translate(1028.308 8972.571)" fill="#fff"/><path d="M1049.822,8998.109c-.238.25-.68.713-1.054.462l-10.021-6.708a1.677,1.677,0,0,0-2.031-.137c-1.04.864-.053,2.373.533,3.176l10.191,13.919a2.731,2.731,0,0,0,1.94,1.259c1.278.092,2.216-1.014,2.844-1.981l13.81-21.29c.621-.957,1.529-2.861.324-3.756-1.1-.813-2.441.333-3.175,1.1l-13.361,13.955Z" fill="#a3bd31" fill-rule="evenodd"/><circle cx="23.297" cy="23.297" r="23.297" transform="translate(1028.308 8972.571)" fill="none" stroke="#0f231a" stroke-linecap="round" stroke-linejoin="round" stroke-width="3" opacity="0.8"/></g></g></svg>