<svg xmlns="http://www.w3.org/2000/svg" xmlns:xlink="http://www.w3.org/1999/xlink" width="312.152" height="310.941" viewBox="0 0 312.152 310.941"><defs><clipPath id="a"><path d="M354.864,9846.632c0-45.157-23.063-70.815,15.868-87.734,7.649-3.324,37.1-55.732,45.537-57.25,6.358-1.145,59.337-6.126,66.025-6.126,10.519,0,13.1,22.964,22.733,25.723,38.556,11.043,107.767,30.53,116.4,70.045,1.659,7.594-36.965,44.892-36.965,52.983,0,5.057-10.071,12.394-10.732,17.269a109.979,109.979,0,0,1-157.6,83.684l-6.909-3.724-9.039-5.361-7.993-6.964s-10.294,30.784-10.634,29.082-5.482-30.817-5.482-30.817l6.2-8.191A109.509,109.509,0,0,1,354.864,9846.632Z" fill="none"/></clipPath></defs><g transform="translate(-309.327 -9691.161)"><path d="M465.89,9711.875q-6.588,0-13.146.646t-13.02,1.931q-6.463,1.285-12.768,3.2t-12.393,4.434q-6.088,2.521-11.9,5.627t-11.29,6.767q-5.478,3.662-10.572,7.842t-9.753,8.84q-4.659,4.658-8.839,9.752t-7.841,10.572q-3.66,5.479-6.767,11.29t-5.627,11.9q-2.521,6.088-4.435,12.394t-3.2,12.768q-1.286,6.461-1.931,13.02T331.765,9846q0,6.587.646,13.146t1.931,13.02q1.285,6.463,3.2,12.768t4.435,12.394q2.521,6.086,5.627,11.9t6.767,11.29q3.662,5.479,7.841,10.572t8.839,9.752q4.66,4.661,9.753,8.84t10.572,7.842q5.48,3.659,11.29,6.767t11.9,5.627q6.087,2.521,12.393,4.434t12.768,3.2q6.462,1.286,13.02,1.932t13.146.646q6.589,0,13.147-.646t13.02-1.932q6.462-1.285,12.768-3.2t12.393-4.434q6.087-2.521,11.9-5.627t11.289-6.767q5.48-3.662,10.573-7.842t9.752-8.84q4.659-4.658,8.84-9.752t7.84-10.572q3.661-5.479,6.767-11.29t5.628-11.9q2.521-6.088,4.434-12.394t3.2-12.768q1.285-6.461,1.932-13.02t.646-13.146q0-6.589-.646-13.147t-1.932-13.02q-1.285-6.463-3.2-12.768t-4.434-12.394q-2.522-6.086-5.628-11.9t-6.767-11.29q-3.66-5.479-7.84-10.572t-8.84-9.752q-4.659-4.661-9.752-8.84t-10.573-7.842q-5.478-3.659-11.289-6.767t-11.9-5.627q-6.089-2.521-12.393-4.434t-12.768-3.2q-6.462-1.286-13.02-1.931T465.89,9711.875Z" fill="#a3bd31"/><circle cx="119.699" cy="119.699" r="119.699" transform="translate(345.099 9727.394)" fill="#fff"/><g opacity="0.5"><circle cx="109.934" cy="109.934" r="109.934" transform="translate(309.327 9846.632) rotate(-45)" fill="#f2e75a"/></g><g clip-path="url(#a)"><ellipse cx="126.963" cy="8.894" rx="126.963" ry="8.894" transform="translate(371.665 10067.157)" opacity="0.1"/><path d="M606.848,9796.225a2.414,2.414,0,0,0-3.105-1.257l4.01-1.2c1.384-.414,2.281-1.5,1.908-2.754s-1.722-1.671-3.106-1.258l3.509-1.048a2.367,2.367,0,1,0-1.347-4.512l-3.008.9a2.367,2.367,0,1,0-1.347-4.512l-18.7,5.583,2.99-5.828a2.707,2.707,0,0,0-.97-3.73l-.069-.006a2.787,2.787,0,0,0-3.614,1.521l-7.271,10.5c-2.384,2.759-4.73,6.1-3.376,10.635a8.787,8.787,0,0,0,11.03,5.855l4.512-1.348,3.259-.973,12.782-3.818A2.41,2.41,0,0,0,606.848,9796.225Z" fill="#e4a083"/><path d="M580.776,9816.4l3.932-9.041c-3.814-9.285-13.554-8.844-13.554-8.844-1.854,2.331-3.713,5.606-5.281,7.769C569.462,9806.554,575.6,9808.331,580.776,9816.4Z" fill="#e7e9ed"/><path d="M513.146,9798.78s5.611,1.83,33.185,34.283c0,0,13.343-17.882,20.144-29.217,0,0,13.4,2.987,16.1,10.721,0,0-6.387,25.886-20.861,43.479,0,0-14.994,21.552-53.85-11.99C507.867,9846.057,503.694,9814.335,513.146,9798.78Z" fill="#252526"/><path d="M563.045,9916.818s7.169-19.876-12.964-18.6-83.27,7.053-83.27,7.053v11.5Z" fill="#314d7c"/><path d="M538.86,9994.769s9.85-27.307-17.811-25.551-114.4,9.688-114.4,9.688v15.806Z" fill="#314d7c"/><path d="M406.322,9978.986,361.1,9790.531h98.348s19.319,23.608,5.27,49.075c0,0,25.168,40.452,5.119,68.552,0,0,20.626,33.9,7.753,64.353Z" fill="#4169a3"/><path d="M412.049,9978.69s5.688-47.642-12.752-65.2c0,0,6.147-55.321-14.05-73.762,0,0,3.513-42.589-24.148-48.954l45.223,188.443Z" fill="#314d7c"/><path d="M461.862,9839.726s-6.207-.692-16.1-1.231c.939-3.678,3-14.7-2.559-25.111,0,0,3.256,17.523-.077,24.978-7.452-.359-16.647-.6-26.692-.433.621-4.218,1.349-14.794-4.776-24.224,0,0,4.493,16.307,2.241,24.277-8.6.205-17.755.726-26.918,1.744,0,0,11.931.966,26.731,1.538,1.93,3.453,7.3,13.785,7.471,22.082,0,0,2.762-8.331-4.258-21.966,8.573.288,17.854.42,26.209.149,1.782,4.027,5.854,14.207,5.337,22.125,0,0,3.46-8.062-2.372-22.24A102.785,102.785,0,0,0,461.862,9839.726Z" fill="#314d7c"/><path d="M468.009,9908s-7.372-.422-17.763-.384c1.353-3.472,4.91-14.7-.754-25.3,0,0,1.649,18.086-2.13,25.322-6.822.081-14.672.373-22.486,1.095.1-.31,4.62-14.123-3.156-26.1,0,0,4.145,19.686.088,26.372l.017.028a122.782,122.782,0,0,0-20.772,3.794s9.871-.048,22.556-.558c2.36,4.54,6.215,13,6.355,20.006,0,0,2.512-7.589-3.359-20.135,6.739-.3,14.082-.733,21.062-1.354,1.848,4.227,5.7,14.083,5.2,21.8,0,0,3.429-8-2.3-22.069A158.092,158.092,0,0,0,468.009,9908Z" fill="#314d7c"/><path d="M464.718,9994.563v64.872H453.3l-3.952-64.872Z" fill="#ccd6d5"/><path d="M514.091,10057.706l-103.259-5.738v10.083h103.1Z" fill="#99a1a0"/><path d="M497.865,10068.8a7.244,7.244,0,1,1,7.244,7.245A7.243,7.243,0,0,1,497.865,10068.8Z" fill="#323b39"/><path d="M412.688,10068.8a7.245,7.245,0,1,1,7.244,7.245A7.243,7.243,0,0,1,412.688,10068.8Z" fill="#323b39"/><path d="M442.105,10068.8a7.244,7.244,0,1,1,7.244,7.245A7.243,7.243,0,0,1,442.105,10068.8Z" fill="#323b39"/><path d="M464.718,9994.563v14.381l-13.867,10.332-1.5-24.713Z" fill="#99a1a0"/><path d="M522.5,9961.082s-5.993,17.439-51.508,10.813v-24.938h50.3Z" fill="#202122"/><path d="M594.152,9989.018s4.992,10.949,11.092,16.941l46.548-31.1s-5.36-11.105-25.645,2.479l-18.9-.1Z" fill="#2c2d2f"/><path d="M607.86,10009.873l15-10.021L621.231,9997a56.694,56.694,0,0,0,17.292-7.776c4.3-2.876,15.911-10.4,15.911-10.4l-2.642-3.957-46.548,31.1Z" fill="#1b1c1c"/><path d="M627.481,9976.5s5.493,6.736,21.377-4.369C648.858,9972.133,642.263,9967.067,627.481,9976.5Z" fill="#4a4b4d"/><path d="M613.023,9972.069s-1.481,20.055-25.547,23.978c0,0-45.589-40.257-61.4-54.5,0,0-37.612,31.854-56.315,32.056-28.963.311-31.668-33.667-31.663-45.472l23.538,1.44c25.46-13.677,68.813-33.545,85.64-18.715C567.858,9929,613.023,9972.069,613.023,9972.069Z" fill="#242526"/><path d="M522.007,10050.785s-1.931,11.789-.187,20.16H577.8s1.712-12.123-22.7-12.1l-15.663-10.587Z" fill="#2c2d2f"/><path d="M522.266,10075.653H539.86l.228-3.189a58.217,58.217,0,0,0,18.923,3.184c5.177,0,19.233.231,19.233.231v-4.934H522.266Z" fill="#1b1c1c"/><path d="M556.673,10058.98s.826,8.651,20.2,8.241C576.875,10067.222,574.206,10059.346,556.673,10058.98Z" fill="#4a4b4d"/><path d="M515.844,10051.552s17.369,5.185,32.541-1.405c0,0-2.286-58.94-1.783-72.187.712-18.707-2.937-39.2-19.43-36.806C504.032,9944.516,509.039,9977.837,515.844,10051.552Z" fill="#202122"/><path d="M470.66,9785.987s-11.069-4.688-25.737,2.451l-2.911,9.267,32.558-3.016Z" fill="#b7babe"/><path d="M473.971,9792.468s-13.3-1.717-31.126,2.883l22.867,46.919Z" fill="#e4a083"/><path d="M468.31,9785.771l1.548,12.854-21.3,2.566-2.015-16.725A42.193,42.193,0,0,0,468.31,9785.771Z" fill="#e4a083"/><path d="M446.548,9784.468l-1.553-12.882,21.3-2.564,2.018,16.75A42.193,42.193,0,0,1,446.548,9784.468Z" fill="#d78b73"/><path d="M452.778,9800.386a3.672,3.672,0,0,1,2.257,2.483c.243,1.112-.3,6.595,1.71,9.824s8.62,20.151,8.62,20.151.382-18.556.934-21.1-.155-7.341-1.484-8.926.325-3.576.325-3.576l8.208-8.291,8.634,3.644s6.43,39.171-9.44,94.105c0,0-29.929-51.425-39.687-88.7l11.361-6.351Z" fill="#e7e9ed"/><path d="M406.084,9808.247s16.99-6.233,31.5-10.832c6.474,32.15,33.466,84.553,33.466,84.553s10.548-70.33,9.143-88.5c6.84.437,23.942,3.206,32.951,5.313,0,0-.338,13.557-7.346,61.915a478.986,478.986,0,0,0,4.1,48.2c-7.838,2.884-9.635,3.53-20.358,8.9a109.386,109.386,0,0,1-15.4,6.619s.172,25.926-9.677,27.849c-10.3,2.012-16.16,1.171-28.208-2.178-1.557-12.421-1.911-61.942-8.551-81.02C427.7,9869.061,411.322,9823.712,406.084,9808.247Z" fill="#2c2d2f"/><path d="M439.137,9796.487l5.079-2.839,8.562,6.737a3.9,3.9,0,0,1,.461.222l-6.986,11.679S441.368,9807.3,439.137,9796.487Z" fill="#cacccf"/><path d="M464.925,9799.544a3.5,3.5,0,0,1,.215-.3l8.208-8.291,4.291,1.81c.176,2.682.4,10.4-4.526,17.39Z" fill="#cacccf"/><path d="M470.648,9785.857l5.928,4.968s1.152,7.117-4.057,15.218l-7.379-6.8A21.7,21.7,0,0,0,470.648,9785.857Z" fill="#eceff2"/><path d="M444.906,9788.243l-4.914,5.972s.175,7.208,6.783,14.214l6-8.043A21.7,21.7,0,0,1,444.906,9788.243Z" fill="#eceff2"/><path d="M477.178,9791.645l5.817,2.067s3.354,9.342,7.929,30.2l-6.959,4.06,5.675,4.606s-9.172,34.072-17.9,51.956c0,0-22.947-27.821-32-46.159l4.1-7.473-8.986-1.794s-1.209-23.825-.268-30.728l4.431-3.2s5.489,28.288,31.7,82.353C470.72,9877.533,480.564,9814.01,477.178,9791.645Z" fill="#1b1c1c"/><rect width="18.833" height="2.093" transform="matrix(1, -0.022, 0.022, 1, 441.584, 9925.28)" fill="#1b1c1c"/><rect width="18.834" height="2.093" transform="translate(425.758 9835.079) rotate(-6.145)" fill="#1b1c1c"/><path d="M488.756,9916.613s7.169-19.773-12.964-18.5-87.107,7.332-87.107,7.332l2.692,11.163Z" fill="#314d7c"/><path d="M406.084,9808.247s-25.6,8.964,1.959,77.937c8.79,22,61.792,16.331,61.792,16.331s12.886-6.821,6.435-20.2c-2.977-6.173-31.844-7.693-40.456-9.089C435.814,9873.226,427.407,9817.868,406.084,9808.247Z" fill="#353536"/><path d="M463.545,9887.569s-4.962,12.557,6.029,13.88c8.4,1.012,10.754-6.185,10.752-10.468,0-2.105-.7-8.295-5.755-9.254S465.424,9883.036,463.545,9887.569Z" fill="#e7e9ed"/><path d="M478.943,9884.921a9.162,9.162,0,0,0-9.1,9.2h0a9.161,9.161,0,0,0,9.7,8.575l9.124-.3c5.191-.174,6.225-4.191,6.061-9.1h0c-.164-4.908-2.017-8.831-7.208-8.657Z" fill="#e4a083"/><path d="M489.556,9888.771a2.586,2.586,0,0,0,.524,1.3c3.156,4.021,3.633,14.7,3.549,18.476a2.328,2.328,0,0,0,2.025,2.473,2.123,2.123,0,0,0,2.127-2.221c.035-1.582.2-15.634-4.629-21.793a1.921,1.921,0,0,0-2.934-.25A2.459,2.459,0,0,0,489.556,9888.771Z" fill="#e4a083"/><path d="M486.121,9890.377a2.4,2.4,0,0,0,.329,1.141c4.072,6.956,2.509,20.037,2.493,20.169a2.35,2.35,0,0,0,1.959,2.642,2.28,2.28,0,0,0,2.539-2.025c.076-.6,1.788-14.846-3.116-23.223a2.224,2.224,0,0,0-3.116-.795A2.367,2.367,0,0,0,486.121,9890.377Z" fill="#e4a083"/><path d="M483.678,9895.053a2.707,2.707,0,0,0,.143.844c2.1,6.157,1.366,13.743,1.359,13.819a2.313,2.313,0,0,0,1.774,2.618,2.106,2.106,0,0,0,2.241-2.058c.036-.358.852-8.856-1.617-16.105a1.947,1.947,0,0,0-2.625-1.327A2.377,2.377,0,0,0,483.678,9895.053Z" fill="#e4a083"/><path d="M479.614,9895.924a2.508,2.508,0,0,0,.1.67,32.816,32.816,0,0,1,1.3,10.693,2.321,2.321,0,0,0,2,2.551,2.235,2.235,0,0,0,2.366-2.14,37.861,37.861,0,0,0-1.5-12.535,2.17,2.17,0,0,0-2.756-1.527A2.34,2.34,0,0,0,479.614,9895.924Z" fill="#e4a083"/><path d="M485.157,9737.106s10.5-14.271,10.5-16.782-12.742-24-17.488-19.928-6.843,9.568-25.151,4.729c0,0-5.23-1.962-10.2,3.008s-10.987,7.944-9.417,12.212c0,0-6.463,4.095-5.455,9.412s4.408,20.517,4.408,20.517l19.369,9.652Z" fill="#b55f30"/><path d="M440.294,9731.676c2.093-5.668-6.888-11.33-6.888-11.33,16.654,8.985,33.657,1.128,46.106-5.292s16.15,5.271,16.15,5.271c0,2.511-10.5,16.782-10.5,16.782l-33.429,22.82-19.369-9.652s-1.827-8.167-3.2-14.623C433.543,9735.92,439.023,9735.117,440.294,9731.676Z" fill="#984a29"/><path d="M471.058,9724.221a50.907,50.907,0,0,0,8.735-3.618c4.621-2.441,6.486-4.194,9.417-3.052,5.536,2.158-6.627,16.043-6.627,16.043Z" fill="#853f24"/><path d="M431.992,9726.144c4.487,0,5.691-3.029,5.7-3.065a.392.392,0,0,0-.734-.278h0c-.059.15-1.507,3.672-7.713,2.212a.393.393,0,0,0-.18.765A12.792,12.792,0,0,0,431.992,9726.144Z" fill="#984a29"/><path d="M430.888,9732.283c8.162,0,10.2-6.707,10.219-6.78a.392.392,0,1,0-.754-.218c-.087.3-2.241,7.313-11.571,6.066a.393.393,0,0,0-.1.778A16.527,16.527,0,0,0,430.888,9732.283Z" fill="#984a29"/><path d="M443.739,9724.748c16.173,0,29.4-7.475,34.026-12.288,6.487-6.757,11.55-2.087,11.762-1.884a.392.392,0,1,0,.541-.568c-.057-.055-5.848-5.405-12.869,1.908-4.618,4.811-18.043,12.335-34.386,12.039a.393.393,0,0,0-.014.785C443.113,9724.746,443.427,9724.748,443.739,9724.748Z" fill="#984a29"/><path d="M438.146,9723.191l.035,0c27.871-2.443,36.274-12.456,39.863-16.732a5.532,5.532,0,0,1,3.916-2.271,5.47,5.47,0,0,1,3.682,1.446.392.392,0,1,0,.552-.558,6.181,6.181,0,0,0-4.27-1.672,6.271,6.271,0,0,0-4.481,2.549c-3.527,4.2-11.784,14.041-39.33,16.456a.392.392,0,0,0,.033.783Z" fill="#984a29"/><path d="M435.748,9721.892l.051,0c27.833-3.617,35.765-14.888,36.089-15.365a.392.392,0,1,0-.649-.441c-.077.114-8.106,11.462-35.541,15.029a.392.392,0,0,0,.05.78Z" fill="#984a29"/><path d="M434.729,9721.234a.351.351,0,0,0,.109-.016c23.218-6.642,22.558-14.345,22.518-14.669a.392.392,0,0,0-.779.091c.009.095.441,7.417-21.955,13.824a.392.392,0,0,0,.107.77Z" fill="#984a29"/><path d="M433.978,9720.608a.386.386,0,0,0,.134-.024c13.156-4.763,11.546-13.712,11.528-13.8a.392.392,0,0,0-.77.151c.066.341,1.469,8.39-11.025,12.913a.393.393,0,0,0,.133.762Z" fill="#984a29"/><path d="M434.687,9748.155l3.369,2.842c.708-1.683,1.472-9.231,2.412-10.8,4.622-7.732,1.745-14.16,1.745-14.16,19.792,2.591,25.56-2.521,31.563-1.856,8.245.913,10,5.819,10,5.819,2.082,7.76,1.465,11.707,1.465,11.707.015,9.2.207,24.813-6.114,34.141-2.666,3.936-6.036,7.237-11.691,8.123-24.632,3.857-30.963-20.241-30.963-20.241s-7.72,2.057-9.293-9.322C425.878,9744.977,434.687,9748.155,434.687,9748.155Z" fill="#e4a083"/><path d="M467.237,9728.642c-10.376,3.558-19.706.031-22.583-.951a12.515,12.515,0,0,1-3.307,10.861c3.34-6.979.866-12.519.866-12.519,19.792,2.591,25.56-2.521,31.563-1.856,8.245.913,10,5.819,10,5.819.1.356.18.7.264,1.039C480.8,9729.041,474.421,9726.179,467.237,9728.642Z" fill="#d78b73"/><path d="M438.349,9760.886c2.092,6.1,9.9,21.145,26.727,20.229,9.109-.5,13.731-6.5,16.768-10.7a24.792,24.792,0,0,1-2.714,5.43c-2.666,3.936-6.036,7.237-11.691,8.123-24.632,3.857-30.963-20.241-30.963-20.241s-5.909,1.65-8.525-5.879C432.547,9765.485,438.349,9760.886,438.349,9760.886Z" fill="#d78b73"/><path d="M471.717,9751.127c.02,2.119,1.306,3.736,2.874,3.61s2.819-1.946,2.8-4.065-1.307-3.737-2.874-3.611S471.7,9749.007,471.717,9751.127Z" fill="#4a332b"/><path d="M450.186,9750.5c.021,2.12,1.307,3.737,2.875,3.612s2.82-1.947,2.8-4.066-1.309-3.736-2.874-3.611S450.164,9748.381,450.186,9750.5Z" fill="#4a332b"/><path d="M464.083,9763.154c4.763,1.925,7.33-.316,7.521-2.569a3.232,3.232,0,0,0-2.116-3.323c-2.9-1.133-4.948-5.6-4.969-5.642h0a9.575,9.575,0,0,0,4.7,7.024c.8.464,1.292.951,1.232,1.678-.108,1.263-1.934,3.148-6.372,2.832Z" fill="#c47b66"/><path d="M481.4,9742.573l.208-2.289a24.183,24.183,0,0,0-10.995-1.4l-.051,3.589C475.284,9741.359,481.32,9742.564,481.4,9742.573Z" fill="#984a29"/><path d="M446.275,9742.854c3.994-1.709,11.128-.922,11.2-.935l-.247-3.335c-.286.043-6.753-.713-11.3,2.207Z" fill="#984a29"/><path d="M455.8,9766.466s8.964,1.831,17.3,0c0,0-1.476,7.667-8.65,7.651C457.689,9774.1,455.881,9767.948,455.8,9766.466Z" fill="#982c2c"/><path d="M464.642,9770.128c5.514,0,7.133-2.287,7.827-3.532-6.469,1.277-11.685.514-16.228-.048C456.732,9767.931,459.444,9770.128,464.642,9770.128Z" fill="#fff"/></g></g></svg>