<svg xmlns="http://www.w3.org/2000/svg" width="143.223" height="185.653" viewBox="0 0 143.223 185.653"><g transform="translate(-374.111 -6995.606)"><path d="M85.792,23l-3.864-5.52a5.371,5.371,0,0,0,3.576-5.3c0-3.72-2.736-5.976-7.152-5.976H71.44V23h3.12V18.1h3.792A5.849,5.849,0,0,0,79,18.08L82.432,23ZM82.36,12.176c0,2.112-1.416,3.36-4.152,3.36H74.56V8.84h3.648C80.944,8.84,82.36,10.064,82.36,12.176ZM98.944,5.144H95.416l-3.24,3.288h2.592Zm1.8,11.52a6.25,6.25,0,0,0-6.48-6.624,6.374,6.374,0,0,0-6.624,6.552c0,3.816,2.784,6.576,7.08,6.576a6.5,6.5,0,0,0,5.16-2.088l-1.608-1.848a4.593,4.593,0,0,1-3.48,1.392,3.879,3.879,0,0,1-4.152-3.072H100.7C100.72,17.264,100.744,16.9,100.744,16.664Zm-6.48-4.224a3.489,3.489,0,0,1,3.624,3.12H90.616A3.542,3.542,0,0,1,94.264,12.44Zm19.224-2.256v1.7a5.549,5.549,0,0,0-4.44-1.848c-3.672,0-6.48,2.448-6.48,6.168a6.122,6.122,0,0,0,6.48,6.216,5.641,5.641,0,0,0,4.3-1.7v.672c0,2.592-1.248,3.888-4.08,3.888a7.742,7.742,0,0,1-4.728-1.536L103.192,26a10.186,10.186,0,0,0,6.24,1.824c4.488,0,6.912-2.112,6.912-6.768V10.184Zm-3.984,9.7a3.655,3.655,0,1,1,3.888-3.672A3.634,3.634,0,0,1,109.5,19.88ZM121.792,8.072a1.842,1.842,0,0,0,1.92-1.872,1.786,1.786,0,0,0-1.92-1.728,1.8,1.8,0,1,0,0,3.6ZM120.28,23h3V10.184h-3Zm23.112-12.96a5.982,5.982,0,0,0-4.8,2.136,4.8,4.8,0,0,0-4.32-2.136,5.308,5.308,0,0,0-4.2,1.776V10.184h-2.856V23h3V16.5c0-2.544,1.344-3.84,3.336-3.84,1.824,0,2.88,1.1,2.88,3.384V23h3V16.5c0-2.544,1.368-3.84,3.336-3.84,1.824,0,2.88,1.1,2.88,3.384V23h3V15.656C148.648,11.792,146.488,10.04,143.392,10.04Zm21.264,6.624a6.25,6.25,0,0,0-6.48-6.624,6.374,6.374,0,0,0-6.624,6.552c0,3.816,2.784,6.576,7.08,6.576a6.5,6.5,0,0,0,5.16-2.088l-1.608-1.848a4.593,4.593,0,0,1-3.48,1.392,3.879,3.879,0,0,1-4.152-3.072h10.056C164.632,17.264,164.656,16.9,164.656,16.664Zm-6.48-4.224a3.489,3.489,0,0,1,3.624,3.12h-7.272A3.542,3.542,0,0,1,158.176,12.44Zm16.632-2.4a5.573,5.573,0,0,0-4.416,1.8V10.184h-2.856V23h3V16.52c0-2.568,1.44-3.864,3.576-3.864,1.92,0,3.048,1.1,3.048,3.384V23h3V15.656C180.16,11.792,177.88,10.04,174.808,10.04ZM64.252,51.968c3.6,0,5.808-1.56,5.808-3.96,0-5.016-7.92-2.712-7.92-5.3,0-.84.864-1.44,2.688-1.44a7.015,7.015,0,0,1,3.672.96l1.152-2.28a10.2,10.2,0,0,0-4.8-1.1c-3.456,0-5.64,1.584-5.64,4.008,0,5.112,7.92,2.808,7.92,5.256,0,.888-.792,1.416-2.688,1.416a8.623,8.623,0,0,1-4.464-1.272l-1.152,2.28A10.183,10.183,0,0,0,64.252,51.968ZM82.06,38.984v6.48c0,2.568-1.416,3.864-3.5,3.864-1.9,0-3-1.1-3-3.432V38.984h-3V46.3c0,3.864,2.232,5.664,5.52,5.664a5.235,5.235,0,0,0,4.128-1.8V51.8H85.06V38.984ZM96.1,38.84a5.328,5.328,0,0,0-4.1,1.7V33.992H89V51.8h2.856V50.144A5.284,5.284,0,0,0,96.1,51.968a6.243,6.243,0,0,0,6.5-6.576A6.223,6.223,0,0,0,96.1,38.84ZM95.764,49.4a3.746,3.746,0,0,1-3.816-4.008,3.809,3.809,0,1,1,7.608,0A3.727,3.727,0,0,1,95.764,49.4Zm13.656,2.568c3.6,0,5.808-1.56,5.808-3.96,0-5.016-7.92-2.712-7.92-5.3,0-.84.864-1.44,2.688-1.44a7.015,7.015,0,0,1,3.672.96l1.152-2.28a10.2,10.2,0,0,0-4.8-1.1c-3.456,0-5.64,1.584-5.64,4.008,0,5.112,7.92,2.808,7.92,5.256,0,.888-.792,1.416-2.688,1.416a8.623,8.623,0,0,1-4.464-1.272L104,50.528A10.183,10.183,0,0,0,109.42,51.968Zm9.912-15.1A1.842,1.842,0,0,0,121.252,35a1.786,1.786,0,0,0-1.92-1.728,1.8,1.8,0,1,0,0,3.6ZM117.82,51.8h3V38.984h-3Zm16.488-17.808v6.576a5.248,5.248,0,0,0-4.128-1.728,6.217,6.217,0,0,0-6.48,6.552,6.237,6.237,0,0,0,6.48,6.576,5.284,5.284,0,0,0,4.248-1.824V51.8h2.88V33.992ZM130.54,49.4a3.746,3.746,0,0,1-3.816-4.008,3.821,3.821,0,1,1,7.632,0A3.746,3.746,0,0,1,130.54,49.4Zm12.216-12.528A1.842,1.842,0,0,0,144.676,35a1.786,1.786,0,0,0-1.92-1.728,1.8,1.8,0,1,0,0,3.6ZM141.244,51.8h3V38.984h-3Zm11.832-12.96a9.011,9.011,0,0,0-5.424,1.584l1.176,2.184a6.345,6.345,0,0,1,3.888-1.272c2.136,0,3.192,1.032,3.192,2.784v.192H152.6c-3.888,0-5.328,1.68-5.328,3.816,0,2.232,1.848,3.84,4.776,3.84,1.92,0,3.312-.624,4.032-1.728V51.8h2.832V44.288C158.908,40.592,156.772,38.84,153.076,38.84Zm-.408,10.944c-1.536,0-2.448-.7-2.448-1.776,0-.936.552-1.7,2.592-1.7h3.1v1.488A3.267,3.267,0,0,1,152.668,49.784ZM172.42,33.992v6.576a5.248,5.248,0,0,0-4.128-1.728,6.217,6.217,0,0,0-6.48,6.552,6.237,6.237,0,0,0,6.48,6.576,5.284,5.284,0,0,0,4.248-1.824V51.8h2.88V33.992ZM168.652,49.4a3.746,3.746,0,0,1-3.816-4.008,3.821,3.821,0,1,1,7.632,0A3.746,3.746,0,0,1,168.652,49.4Zm16.464,2.568a6.463,6.463,0,0,0,6.84-6.576c0-3.84-2.856-6.552-6.84-6.552a6.569,6.569,0,1,0,0,13.128Zm0-2.568a3.727,3.727,0,0,1-3.792-4.008,3.809,3.809,0,1,1,7.608,0A3.732,3.732,0,0,1,185.116,49.4Z" transform="translate(322.321 7129.292)" fill="#0f231a"/><g opacity="0.8"><path d="M439.968,7094.688l-2.427-8.575a27.576,27.576,0,0,0-14.933-17.51l-6.019-2.792a13.465,13.465,0,0,1-7.287-8.538L406.39,7047l.229-1.73a8.851,8.851,0,0,0-4.114-8.691l-.148-.092" fill="none" stroke="#0f231a" stroke-linecap="round" stroke-linejoin="round" stroke-width="3"/><path d="M410.338,7077.6q-.645.089-1.267.142a20.66,20.66,0,0,1-17.95-8.029c-8.806-11.276-15.51-4.236-15.51-4.236a144.164,144.164,0,0,1,12.215,17.311,26.1,26.1,0,0,0,16.12,12.511q.636.159,1.3.3a15.188,15.188,0,0,1,10.341,7.819" fill="none" stroke="#0f231a" stroke-linecap="round" stroke-linejoin="round" stroke-width="3"/><path d="M382.183,7063.392l-3-13.705,8.8-27.027s5.051,1.266,3.747,8.977l-3.994,17.581,2.726,11.114" fill="none" stroke="#0f231a" stroke-linecap="round" stroke-linejoin="round" stroke-width="3"/><path d="M391.172,7025.508l2.364-7.3s6.537,2.4,4.332,11.113l-3.661,19.089,2.921,10.325" fill="none" stroke="#0f231a" stroke-linecap="round" stroke-linejoin="round" stroke-width="3"/><path d="M398.311,7025.485l.332.244a9.919,9.919,0,0,1,3.888,9.83l-2.118,11.3,3.023,10.515" fill="none" stroke="#0f231a" stroke-linecap="round" stroke-linejoin="round" stroke-width="3"/><path d="M436.967,7112.662,416.38,7119l-5.54-13.83,29.126-10.484v7.012" fill="none" stroke="#0f231a" stroke-linecap="round" stroke-linejoin="round" stroke-width="3"/><line y1="9.45" x2="26.732" transform="translate(413.234 7101.696)" fill="none" stroke="#0f231a" stroke-linecap="round" stroke-linejoin="round" stroke-width="3"/><path d="M451.477,7094.688l2.426-8.575a27.576,27.576,0,0,1,14.933-17.51l6.019-2.792a13.46,13.46,0,0,0,7.287-8.538L485.054,7047l-.229-1.73a8.854,8.854,0,0,1,4.115-8.691l.147-.092" fill="none" stroke="#0f231a" stroke-linecap="round" stroke-linejoin="round" stroke-width="3"/><path d="M481.106,7077.6q.645.089,1.267.142a20.663,20.663,0,0,0,17.952-8.029c8.8-11.276,15.509-4.236,15.509-4.236a143.965,143.965,0,0,0-12.214,17.311A26.11,26.11,0,0,1,487.5,7095.3c-.424.106-.857.205-1.3.3a15.184,15.184,0,0,0-10.34,7.819" fill="none" stroke="#0f231a" stroke-linecap="round" stroke-linejoin="round" stroke-width="3"/><path d="M509.261,7063.392l3-13.705-8.8-27.027s-5.05,1.266-3.748,8.977l3.995,17.581-2.725,11.114" fill="none" stroke="#0f231a" stroke-linecap="round" stroke-linejoin="round" stroke-width="3"/><path d="M500.273,7025.508l-2.365-7.3s-6.537,2.4-4.331,11.113l3.661,19.089-2.922,10.325" fill="none" stroke="#0f231a" stroke-linecap="round" stroke-linejoin="round" stroke-width="3"/><path d="M493.134,7025.485l-.333.244a9.921,9.921,0,0,0-3.888,9.83l2.118,11.3-3.022,10.515" fill="none" stroke="#0f231a" stroke-linecap="round" stroke-linejoin="round" stroke-width="3"/><path d="M454.477,7112.662,475.064,7119l5.542-13.83-29.128-10.484v7.012" fill="none" stroke="#0f231a" stroke-linecap="round" stroke-linejoin="round" stroke-width="3"/><line x1="26.732" y1="9.45" transform="translate(451.478 7101.696)" fill="none" stroke="#0f231a" stroke-linecap="round" stroke-linejoin="round" stroke-width="3"/></g><line y2="14.55" transform="translate(457.059 7051.037)" fill="none" stroke="#0f231a" stroke-linecap="round" stroke-linejoin="round" stroke-width="3" opacity="0.8"/><line y2="14.55" transform="translate(434.076 7051.037)" fill="none" stroke="#0f231a" stroke-linecap="round" stroke-linejoin="round" stroke-width="3" opacity="0.8"/><circle cx="10.669" cy="10.669" r="10.669" transform="translate(432.888 7018.177) rotate(-76.718)" fill="none" stroke="#0f231a" stroke-linecap="round" stroke-linejoin="round" stroke-width="3" opacity="0.8"/><path d="M425.414,7061.424v-26.953a6.939,6.939,0,0,1,6.939-6.939h26.739a6.939,6.939,0,0,1,6.939,6.939v24.348" fill="none" stroke="#0f231a" stroke-linecap="round" stroke-linejoin="round" stroke-width="3" opacity="0.8"/><path d="M459.092,7033.532H432.353a.939.939,0,0,0-.938.939v9.45l0,0a17.478,17.478,0,0,1,10.983-3.882h6.646a17.48,17.48,0,0,1,10.983,3.882l0,0v-9.45A.939.939,0,0,0,459.092,7033.532Z" fill="#a3bd31"/></g></svg>