<svg xmlns="http://www.w3.org/2000/svg" xmlns:xlink="http://www.w3.org/1999/xlink" width="310.941" height="310.941" viewBox="0 0 310.941 310.941"><defs><clipPath id="a"><path d="M1089.55,9535.545a109.961,109.961,0,0,0-66.158-100.872c-7.648-3.324,13.187-42.595,4.753-44.112-6.358-1.144-59.337-6.126-66.025-6.126-10.519,0-13.1,22.965-22.733,25.724-38.556,11.042-56.034,22.485-64.667,62-1.659,7.594-2,48.575-2,56.667,0,5.056-2.7,16.754-2.036,21.63a109.979,109.979,0,0,0,157.6,83.684l2.116,5.546v13.973l16.463,7.128s15.656-11.911,16-13.613,5.482-30.819,5.482-30.819l-6.2-8.19A109.506,109.506,0,0,0,1089.55,9535.545Z" fill="none"/></clipPath></defs><g transform="translate(-824.145 -9380.075)"><path d="M978.524,9400.789q6.588,0,13.146.646t13.02,1.932q6.464,1.285,12.768,3.2t12.393,4.434q6.087,2.522,11.9,5.628t11.29,6.767q5.478,3.661,10.572,7.842t9.753,8.839q4.659,4.658,8.839,9.753t7.841,10.572q3.66,5.477,6.767,11.29t5.627,11.9q2.522,6.088,4.435,12.395t3.2,12.768q1.285,6.461,1.931,13.02t.646,13.146q0,6.589-.646,13.146t-1.931,13.021q-1.286,6.461-3.2,12.768t-4.435,12.394q-2.521,6.086-5.627,11.9t-6.767,11.29q-3.662,5.479-7.841,10.572t-8.839,9.753q-4.66,4.66-9.753,8.839t-10.572,7.841q-5.48,3.662-11.29,6.768t-11.9,5.628q-6.087,2.521-12.393,4.434t-12.768,3.2q-6.462,1.286-13.02,1.932t-13.146.646q-6.59,0-13.147-.646t-13.02-1.932q-6.462-1.285-12.768-3.2T927.2,9658.83q-6.087-2.521-11.9-5.628t-11.289-6.768q-5.48-3.659-10.573-7.841t-9.752-8.839q-4.659-4.658-8.84-9.753T867,9609.43q-3.66-5.477-6.766-11.29t-5.628-11.9q-2.521-6.089-4.434-12.394t-3.2-12.768q-1.285-6.463-1.931-13.021t-.646-13.146q0-6.589.646-13.146t1.931-13.02q1.285-6.463,3.2-12.768t4.434-12.395q2.522-6.086,5.628-11.9T867,9460.4q3.661-5.479,7.841-10.572t8.84-9.753q4.659-4.66,9.752-8.839t10.573-7.842q5.478-3.659,11.289-6.767T927.2,9411q6.087-2.521,12.393-4.434t12.768-3.2q6.462-1.286,13.02-1.932T978.524,9400.789Z" fill="#a3bd31"/><circle cx="119.699" cy="119.699" r="119.699" transform="translate(859.917 9416.308)" fill="#fff"/><g opacity="0.5"><circle cx="109.934" cy="109.934" r="109.934" transform="translate(824.145 9535.546) rotate(-45)" fill="#f2e75a"/></g><g clip-path="url(#a)"><path d="M928.335,9511.273s-13.949,6.28-35.515,61.157c0,0-8.976,22.47,44.411,51.776,0,0,6.068-5.731,4.885-16.382L917.31,9580l19.8-25.7S939.414,9523.459,928.335,9511.273Z" fill="#252526"/><ellipse cx="83.632" cy="9.067" rx="83.632" ry="9.067" transform="translate(894.54 9851.338)" opacity="0.1"/><path d="M1003.773,9855.5h30.4s1.786-8.088-4.558-18.755l-20.484.258S1003.24,9845.369,1003.773,9855.5Z" fill="#2c2d2f"/><rect width="30.401" height="4.8" transform="translate(1003.635 9855.503)" fill="#1b1c1c"/><path d="M1030.441,9847.039c0,2.079-5.135,3.766-11.467,3.766s-11.467-1.687-11.467-3.766,5.134-3.767,11.467-3.767S1030.441,9844.959,1030.441,9847.039Z" fill="#4a4b4d"/><path d="M973.506,9834.886s2.355,12.083.578,20.617H916.837s-1.955-12.424,22.934-12.395l15.967-10.793Z" fill="#2c2d2f"/><path d="M973.768,9860.3h-19.53l-.233-3.315a52.126,52.126,0,0,1-18.494,3.215c-5.278,0-18.812.2-18.812.2v-4.9h57.069Z" fill="#1b1c1c"/><path d="M938.164,9843.177s-.841,8.82-20.6,8.4C917.568,9851.579,920.29,9843.549,938.164,9843.177Z" fill="#4a4b4d"/><path d="M945.1,9628.828l-1.067,207.92s15.556,7.816,30.223,1.716l5.6-165.512,4.331-.2,21.177,165.737s11.2,5.027,27.735-1.068l-16.784-208.59Z" fill="#2c2d2f"/><path d="M944.448,9760.377l-.41,76.423s15.556,7.79,30.223,1.69l3.462-102.241C969.513,9768.905,951.675,9763.963,944.448,9760.377Z" fill="#1b1c1c"/><path d="M1025.6,9748.276c-10.987,29.792-25.519,10.676-31.755.02l11.525,90.194s11.2,5.077,27.735-1.02Z" fill="#1b1c1c"/><path d="M1016.324,9628.828H945.1l-.2,39.783a101.706,101.706,0,0,0,34.933,5.295l.032-.954,4.331-.2.127,1a123.777,123.777,0,0,0,35.037-7.187Z" fill="#1b1c1c"/><path d="M970.261,9494.291s10.8-5.8,26.356.066l3.827,9.134H967.11Z" fill="#b7babe"/><path d="M967.51,9501.18s13.343-2.994,31.868,0l-18.8,49.779Z" fill="#e4a083"/><path d="M972.626,9493.85l-.362,13.2,21.858.6.473-17.166A43,43,0,0,1,972.626,9493.85Z" fill="#e4a083"/><path d="M994.595,9490.48l.364-13.224-21.86-.6-.473,17.193A43,43,0,0,0,994.595,9490.48Z" fill="#d78b73"/><path d="M989.767,9507.224a3.741,3.741,0,0,0-2.056,2.734c-.143,1.151.921,6.667-.813,10.133s-6.854,21.269-6.854,21.269-2.134-18.8-2.934-21.334-.533-7.468.667-9.2-.667-3.6-.667-3.6L968,9499.58l-8.423,4.511s-2.841,40.368,18.435,94.643c0,0,25.545-55.02,31.945-93.775l-12.131-5.378Z" fill="#e7e9ed"/><path d="M1037.908,9510.813s-17.834-4.729-33-8.033c-3.547,33.245-26.019,88.98-26.019,88.98s-17.323-70.4-17.606-88.98c-6.9,1.086-24,5.507-32.95,8.493,0,0,1.619,13.729,13.281,62.16,0,0,2.854,58.2,1.674,85.084,3.019,3.245,13.553,6.046,23.553,4.706,9.2-1.229,11.823-26.217,11.823-26.217s3.352,24.461,13.531,25.487c10.648,1.073,16.514-.331,28.429-4.865.413-12.755-3.886-63.058,1.06-83.049C1021.686,9574.58,1034.046,9527,1037.908,9510.813Z" fill="#2c2d2f"/><path d="M1003.249,9501.984l-5.424-2.4-8.058,7.644a3.853,3.853,0,0,0-.447.27l8.191,11.2S1002,9513.175,1003.249,9501.984Z" fill="#cacccf"/><path d="M977.358,9507.512a3.731,3.731,0,0,0-.248-.288L968,9499.58l-4.186,2.242c.074,2.736.569,10.593,6.23,17.225Z" fill="#cacccf"/><path d="M970.261,9494.157l-5.551,5.6s-.5,7.334,5.551,15.068l6.849-7.6A22.115,22.115,0,0,1,970.261,9494.157Z" fill="#eceff2"/><path d="M996.617,9494.157l5.55,5.6s.5,7.334-5.55,15.068l-6.85-7.6A22.114,22.114,0,0,0,996.617,9494.157Z" fill="#eceff2"/><path d="M964.177,9500.646l-5.711,2.646s-2.527,9.8-5.209,31.4l7.447,3.467-5.328,5.209s12.515,33.725,23.058,51.059c0,0,20.677-30.4,28.144-49.868l-4.865-7.2,8.954-2.667s-1.015-24.3-2.619-31.218l-4.8-2.828s-2.91,29.232-24.439,86.58C978.81,9587.227,962.843,9523.669,964.177,9500.646Z" fill="#1b1c1c"/><rect width="19.2" height="2.134" transform="matrix(0.998, -0.07, 0.07, 0.998, 993.727, 9634.306)" fill="#1b1c1c"/><rect width="2.133" height="19.201" transform="matrix(0.015, -1, 1, 0.015, 1001.23, 9541.749)" fill="#1b1c1c"/><rect width="2.133" height="19.2" transform="translate(946.792 9635.106) rotate(-86.098)" fill="#1b1c1c"/><path d="M1029.7,9611.119l-4.6-3.6-3.631.548c-3.334-1.272-4.715-3.58-6.4-3.928a14.9,14.9,0,0,1-4.244-2.262c-1.68,2.287,1.238,4.985,1.238,4.985-.234-.06-.466-.12-.7-.182-.575-.146-1.151-.3-1.727-.443-.735-.186-1.467-.383-2.2-.565-.711-.175-1.416-.379-2.131-.543a12.792,12.792,0,0,0-1.671-.321,7.213,7.213,0,0,0-1.746.122c-.73.108-4.6,1.261-5.244,1.373-.3.052-.925.156-.925.158a2.556,2.556,0,0,0-.083,2.173c.589,1.215,2.313,1.283,3.2,1.178a15.264,15.264,0,0,0,2.2-.535,1.8,1.8,0,0,1,1.367-.139,15.1,15.1,0,0,1,1.61.454q1.754.488,3.5,1l.8.231s-5.77.749-7.576,1.158c-1.352.306-5.29,3.725-5.29,3.725-2.845,2.438,1.348,3.659,1.348,3.659a1.772,1.772,0,0,0-.556,1,1.1,1.1,0,0,0,.352.74,2.668,2.668,0,0,0,1.116.665,4.225,4.225,0,0,0,2.327.259,5.366,5.366,0,0,0,.656-.189c.211-.073.421-.158.628-.246.264-.113.522-.236.781-.363a20.4,20.4,0,0,0,2.356-1.294c.091-.061.3-.273.414-.272l4.448-.03c-1.538.74-3.224,3.37-5.314,4.506a4.037,4.037,0,0,0-.9.63,1.382,1.382,0,0,0-.513,1.014c.031.389.382.52.644.639a4.454,4.454,0,0,0,2.683.251,5.643,5.643,0,0,0,1.391-.457,6.4,6.4,0,0,0,.96-.562,3.619,3.619,0,0,0,.4-.31c2.849-2.856,5.931-4.2,9.675-2.016,5.393,3.15,10.173-4.889,10.173-4.889Z" fill="#e4a083"/><path d="M1040.279,9612.815l-8.144,5.89c-10.078-1.769-11.767-11.564-11.767-11.564,1.917-2.354,4.771-4.922,6.582-6.956C1028,9603.7,1031.114,9609.424,1040.279,9612.815Z" fill="#e7e9ed"/><path d="M1037.908,9510.813s9.371,1.2,34.106,54.723c0,0,12.67,19.309-32.572,48.7,0,0-13.807-4.078-13.247-14.779l21.811-24.933-22.6-25.291S1027.559,9523.625,1037.908,9510.813Z" fill="#2c2d2f"/><path d="M955.6,9441.558s-10.71-14.549-10.71-17.108,12.99-24.473,17.829-20.317,6.976,9.756,25.642,4.822c0,0,5.331-2,10.4,3.067s11.2,8.1,9.6,12.449c0,0,6.589,4.174,5.561,9.6s-4.494,20.915-4.494,20.915l-19.746,9.841Z" fill="#b55f30"/><path d="M1001.334,9436.022c-2.133-5.778,7.022-11.552,7.022-11.552-16.978,9.161-34.312,1.151-47-5.395s-16.465,5.373-16.465,5.373c0,2.56,10.71,17.108,10.71,17.108l34.08,23.266,19.746-9.841s1.862-8.326,3.262-14.907C1008.216,9440.349,1002.629,9439.53,1001.334,9436.022Z" fill="#984a29"/><path d="M969.97,9428.422a51.929,51.929,0,0,1-8.9-3.688c-4.712-2.489-6.613-4.276-9.6-3.111-5.645,2.2,6.755,16.355,6.755,16.355Z" fill="#853f24"/><path d="M1009.8,9430.382c-4.574,0-5.8-3.088-5.816-3.125a.4.4,0,0,1,.748-.285h0c.059.154,1.535,3.744,7.864,2.256a.4.4,0,0,1,.183.779A13,13,0,0,1,1009.8,9430.382Z" fill="#984a29"/><path d="M1010.923,9436.641c-8.32,0-10.4-6.837-10.418-6.912a.4.4,0,0,1,.769-.223c.088.3,2.284,7.455,11.8,6.187a.4.4,0,0,1,.106.793A17.024,17.024,0,0,1,1010.923,9436.641Z" fill="#984a29"/><path d="M997.822,9428.96c-16.489,0-29.979-7.622-34.689-12.528-6.613-6.889-11.775-2.127-11.992-1.921a.4.4,0,1,1-.551-.58c.058-.055,5.962-5.509,13.12,1.947,4.708,4.9,18.395,12.574,35.055,12.273a.4.4,0,1,1,.015.8C998.46,9428.957,998.14,9428.96,997.822,9428.96Z" fill="#984a29"/><path d="M1003.523,9427.372l-.035,0c-28.413-2.491-36.981-12.7-40.64-17.06a5.642,5.642,0,0,0-3.992-2.313,5.582,5.582,0,0,0-3.754,1.475.4.4,0,1,1-.562-.568,6.3,6.3,0,0,1,4.352-1.705,6.4,6.4,0,0,1,4.569,2.6c3.6,4.284,12.014,14.314,40.1,16.776a.4.4,0,0,1-.035.8Z" fill="#984a29"/><path d="M1005.969,9426.048a.322.322,0,0,1-.053,0c-28.374-3.687-36.462-15.178-36.792-15.665a.4.4,0,0,1,.662-.45c.079.117,8.263,11.687,36.234,15.322a.4.4,0,0,1-.051.8Z" fill="#984a29"/><path d="M1007.006,9425.377a.431.431,0,0,1-.11-.015c-23.67-6.772-23-14.625-22.957-14.956a.4.4,0,0,1,.794.093c-.008.1-.448,7.561,22.383,14.093a.4.4,0,0,1-.11.785Z" fill="#984a29"/><path d="M1007.773,9424.738a.373.373,0,0,1-.137-.024c-13.413-4.855-11.77-13.979-11.752-14.071a.4.4,0,0,1,.784.155c-.066.347-1.5,8.552,11.241,13.164a.4.4,0,0,1-.136.776Z" fill="#984a29"/><path d="M1007.05,9452.823l-3.435,2.9c-.721-1.715-1.5-9.41-2.459-11.014-4.712-7.883-1.778-14.437-1.778-14.437-20.178,2.644-26.058-2.568-32.178-1.891-8.406.931-10.2,5.932-10.2,5.932-2.123,7.912-1.493,11.937-1.493,11.937-.017,9.374-.212,25.295,6.232,34.806,2.718,4.011,6.154,7.378,11.919,8.281,25.112,3.932,31.566-20.636,31.566-20.636s7.87,2.1,9.475-9.5C1016.031,9449.582,1007.05,9452.823,1007.05,9452.823Z" fill="#e4a083"/><path d="M973.866,9432.929c10.578,3.626,20.09.032,23.023-.971a12.759,12.759,0,0,0,3.371,11.073c-3.405-7.115-.882-12.764-.882-12.764-20.178,2.644-26.058-2.568-32.178-1.891-8.406.931-10.2,5.932-10.2,5.932-.1.365-.184.711-.27,1.06C960.04,9433.336,966.542,9430.418,973.866,9432.929Z" fill="#d78b73"/><path d="M1003.317,9465.8c-2.133,6.223-10.089,21.557-27.248,20.623-9.287-.506-14-6.632-17.094-10.909a25.252,25.252,0,0,0,2.766,5.536c2.718,4.011,6.154,7.378,11.919,8.281,25.112,3.932,31.566-20.636,31.566-20.636s6.025,1.682,8.691-5.993C1009.231,9470.49,1003.317,9465.8,1003.317,9465.8Z" fill="#d78b73"/><path d="M969.3,9455.852c-.021,2.16-1.333,3.81-2.93,3.681s-2.874-1.983-2.853-4.145,1.333-3.809,2.93-3.681S969.321,9453.69,969.3,9455.852Z" fill="#4a332b"/><path d="M991.249,9455.213c-.021,2.161-1.333,3.811-2.93,3.682s-2.876-1.984-2.853-4.145,1.334-3.809,2.93-3.681S991.271,9453.053,991.249,9455.213Z" fill="#4a332b"/><path d="M977.082,9468.113c-4.856,1.963-7.473-.322-7.668-2.619a3.292,3.292,0,0,1,2.157-3.387c2.959-1.156,5.045-5.705,5.065-5.752h0a9.756,9.756,0,0,1-4.795,7.16c-.811.473-1.317.971-1.255,1.71.109,1.288,1.97,3.211,6.5,2.888Z" fill="#c47b66"/><path d="M959.431,9447.131l-.212-2.333a24.657,24.657,0,0,1,11.209-1.427l.052,3.66C965.663,9445.894,959.509,9447.122,959.431,9447.131Z" fill="#984a29"/><path d="M995.236,9447.418c-4.071-1.743-11.344-.94-11.414-.953l.251-3.4c.291.044,6.884-.728,11.516,2.25Z" fill="#984a29"/><path d="M985.523,9471.49s-9.138,1.867-17.635,0c0,0,1.5,7.815,8.818,7.8C983.6,9479.275,985.443,9473,985.523,9471.49Z" fill="#fff"/><path d="M957.924,9612.072s-14.377-4.982-14.428-5.03l10.375.309a3.772,3.772,0,0,0,3.653-1.861,1.513,1.513,0,0,0-.3-1.924l-14.071-.855a3.8,3.8,0,0,0-3.28,2.559c-.045.134-1.423-1.273-5.135,14.5-1.078,4.577,4.107,6.312,4.107,6.312,4.306,1.39,5.705-.889,6.237-2.567l4.467,1.883a5.768,5.768,0,0,0,3.7.295c1.381-.726,1.273-1.383,1.273-1.383s-11.382-6.6-11.328-6.845l9.267,2.735a4.214,4.214,0,0,0,4.182-.031c1.16-.83,1.258-1.421,1.037-1.687l-12.369-5.355,8.8,1.937c1.47.033,2.5-.106,3.421-1.1A2.379,2.379,0,0,0,957.924,9612.072Z" fill="#e4a083"/></g></g></svg>