<svg xmlns="http://www.w3.org/2000/svg" width="130.26" height="130.26" viewBox="0 0 130.26 130.26"><g transform="translate(-660.824 -3503.329)"><circle cx="65.13" cy="65.13" r="65.13" transform="translate(660.824 3503.329)" fill="#78958a"/><path d="M711.074,3566.561l-17.985,7.636c-7.124,2.624-7.639,21.86-7.639,28.4l.03,1.806h50.4a22.534,22.534,0,0,1,7.187-35.9l-4.577-1.943a10.407,10.407,0,0,1-5.121-4.829,22.229,22.229,0,0,0,5.134-9.012l1.117-.654A27.385,27.385,0,0,0,741.4,3541l-.826-.635c.217-3.029.132-8.481-1.315-11.149-5.525-10.2-23.425-10.2-28.949,0-1.447,2.668-1.532,8.12-1.315,11.149l-.827.635a27.42,27.42,0,0,0,1.78,11.061l1.116.654a22.252,22.252,0,0,0,5.134,9.012,10.4,10.4,0,0,1-5.12,4.829Zm41.276,4.03a18.445,18.445,0,1,1-18.445,18.445,18.446,18.446,0,0,1,18.445-18.445Zm0,5.946a12.5,12.5,0,1,1-12.5,12.5,12.5,12.5,0,0,1,12.5-12.5Zm-8.621,9.277v6.444h5.4v5.4h6.445v-5.4h5.4v-6.444h-5.4v-5.4h-6.445v5.4Z" fill="#fff" fill-rule="evenodd" opacity="0.8"/></g></svg>