<svg xmlns="http://www.w3.org/2000/svg" width="130.26" height="130.26" viewBox="0 0 130.26 130.26"><g transform="translate(-1033.857 -3504.593)"><circle cx="65.13" cy="65.13" r="65.13" transform="translate(1033.857 3504.593)" fill="#78958a"/><path d="M1138.7,3581.368l5.7-12.51a12.364,12.364,0,1,0-11.4,0l5.7,12.51Zm0-30.125a6.642,6.642,0,1,1-6.641,6.642,6.642,6.642,0,0,1,6.641-6.642Zm-19.611,30.125-15.8,19.882h-31.308l6.88-15.1h18l15.8-15.8h17.417l5.007,11.013Zm-51.484,20.1,9.139-20.055a19.82,19.82,0,1,0-18.279,0l9.14,20.055Zm0-48.292a10.647,10.647,0,1,0,10.647,10.647A10.647,10.647,0,0,0,1067.609,3553.177Z" fill="#fff" fill-rule="evenodd" opacity="0.8"/></g></svg>