<svg xmlns="http://www.w3.org/2000/svg" width="130.26" height="130.26" viewBox="0 0 130.26 130.26"><g transform="translate(-287.503 -3804.159)"><circle cx="65.13" cy="65.13" r="65.13" transform="translate(287.503 3804.159)" fill="#78958a"/><path d="M385.118,3895.111l1.332,4.53-62.585,13.009-11.548-80.644,4.921.358,11.317,73.583,56.563-10.836ZM319.833,3826.3q5.734,37.794,11.472,75.586,28.576-5.331,57.156-10.653-3.809-12.957-7.609-25.916l-2.73,3.444q2.633,9.28,5.261,18.563-23.7,3.913-47.388,7.859-5.332-32.291-10.683-64.577,21.352,1.25,42.7,2.533l5.473,19.281,2.606-3.336-5.6-19.111q-25.33-1.816-50.658-3.673Zm19.357,54.3q.457,2.577.922,5.181,18.619-2.521,37.244-5.015-.61-2.238-1.214-4.445-18.475,2.139-36.952,4.279Zm-1.789-9.977c.3,1.63.588,3.268.884,4.934q11.854-1.177,23.713-2.322c.477-1.7.891-3.267,1.289-4.69q-12.945,1.025-25.886,2.078Zm-6.351-35.4c.242,1.346.486,2.715.729,4.075q17.262.5,34.52,1.048c-.325-1.2-.655-2.4-.983-3.593q-17.132-.769-34.266-1.53Zm1.482,8.245c.252,1.405.507,2.831.762,4.257q17.521.021,35.042.045c-.344-1.252-.688-2.5-1.028-3.744q-17.388-.294-34.776-.558Zm1.548,8.623q.4,2.217.805,4.476,17.781-.561,35.565-1.063c-.354-1.308-.711-2.617-1.066-3.908q-17.654.228-35.3.495Zm1.621,9.046c.278,1.55.563,3.114.843,4.686q14.112-.9,28.225-1.775a24.127,24.127,0,0,1,3.065-4.387q-16.067.72-32.133,1.476Zm62.521-22.2c2.009-2.534-4.577-7.746-6.581-5.219l-24.3,30.646a11.859,11.859,0,0,0,6.582,5.219l24.3-30.646ZM364.3,3875.718l8.2-4.352a13.1,13.1,0,0,1-6.581-5.219l-2.371,8.974C363.392,3875.837,363.657,3876.018,364.3,3875.718Z" fill="#fff" fill-rule="evenodd" opacity="0.8"/></g></svg>