<svg xmlns="http://www.w3.org/2000/svg" width="130.26" height="130.26" viewBox="0 0 130.26 130.26"><g transform="translate(-660.824 -3803.383)"><circle cx="65.13" cy="65.13" r="65.13" transform="translate(660.824 3803.383)" fill="#78958a"/><g opacity="0.8"><path d="M745.107,3880.346l-3.477,5.5H743.9a11.745,11.745,0,0,0,22.2,2.276l-1.638-2.444-.214-.318a9.1,9.1,0,0,1-17.63.486h1.965l-3.476-5.5Zm10.264-8.741a11.743,11.743,0,0,0-10.669,6.832l1.514,2.259.316.472a9.1,9.1,0,0,1,17.433-.822h-2.008l3.476,5.5,3.477-5.5h-2.185A11.746,11.746,0,0,0,755.371,3871.6Z" fill="#fff" fill-rule="evenodd"/><path d="M755.27,3862.008a21.008,21.008,0,1,0,21.009,21.008A21.009,21.009,0,0,0,755.27,3862.008Zm0,37.531a16.522,16.522,0,1,1,16.522-16.523A16.521,16.521,0,0,1,755.27,3899.539Z" fill="#fff"/><path d="M698.31,3864.829a19.544,19.544,0,0,0,2.438,4.6,7.718,7.718,0,0,0,3.3,2.94,7.441,7.441,0,0,0,3.772,0,7.728,7.728,0,0,0,3.3-2.94,19.616,19.616,0,0,0,2.438-4.6.9.9,0,0,0,.7-.547,19.366,19.366,0,0,0,.545-4.077c.007-.2-.411-.6-.584-.614.067-5.457-.962-10.3-8.291-10.3s-8.359,4.846-8.292,10.3c-.172.018-.59.41-.584.614a19.377,19.377,0,0,0,.546,4.077A.9.9,0,0,0,698.31,3864.829Z" fill="#fff"/><path d="M735.369,3889.745H681.083v-45.931H755.02v18.257a46.591,46.591,0,0,1,5.453.588v-22.582H675.629v53.843H737.31A20.912,20.912,0,0,1,735.369,3889.745Z" fill="#fff"/><path d="M687.638,3883.017h36.6c-2.136-4.744-6-8.9-12.658-11.412a7.93,7.93,0,0,1-3.159,2.358,8.936,8.936,0,0,1-4.965,0,7.937,7.937,0,0,1-3.159-2.358C693.642,3874.122,689.774,3878.273,687.638,3883.017Z" fill="#fff"/><rect width="25.606" height="3.436" transform="translate(721.459 3859.022)" fill="#fff"/><rect width="25.606" height="3.435" transform="translate(721.459 3852.584)" fill="#fff"/><rect width="13.951" height="3.436" transform="translate(721.459 3865.46)" fill="#fff"/></g></g></svg>