<svg xmlns="http://www.w3.org/2000/svg" width="130.26" height="130.26" viewBox="0 0 130.26 130.26"><g transform="translate(-1033.857 -3804.647)"><circle cx="65.13" cy="65.13" r="65.13" transform="translate(1033.857 3804.647)" fill="#78958a"/><path d="M1128.628,3849.794h-28.041v-4.36h28.041v4.36Zm-7.454,7.617h-20.587v-4.362h20.587v4.362Zm8.279-4.859a5.5,5.5,0,0,0-3.195,2.668l-12.821,18.314c-2.9,4.138-4.383,6.676-10.057,7.178-1.876.111-4.971.436-6.69-.424a5.09,5.09,0,0,1-1.734-1.193,16.725,16.725,0,0,0,2.712-5.295l.661-.386.129-.354a18.362,18.362,0,0,0,1.18-7.367l-.026-.48-.461-.354c.1-2.159-.042-5.276-.983-7.013-1.7-3.135-5.905-5.332-9.426-5.364h-1.19c-3.512.032-7.718,2.229-9.417,5.364-.942,1.737-1.085,4.854-.983,7.013l-.461.354-.026.48a18.379,18.379,0,0,0,1.179,7.367l.13.354.662.388a15.126,15.126,0,0,0,2.984,5.273,7.308,7.308,0,0,1-2.678,1.77c-3.707,1.574-7.386,3.215-11.093,4.789-5.153,1.938-5.459,14.18-5.459,18.835l.039,2.739h46.217a14.8,14.8,0,0,1,1.23-5.6,38.471,38.471,0,0,1,3.826-7.463l22.562-35.251a5.02,5.02,0,0,0-2.7-5.859l1.541-2.49a1.875,1.875,0,0,0-3.191-1.971l-2.461,3.976Z" fill="#fff" fill-rule="evenodd" opacity="0.8"/></g></svg>