<svg xmlns="http://www.w3.org/2000/svg" width="130.26" height="130.26" viewBox="0 0 130.26 130.26"><g transform="translate(-660.824 -4103.437)"><circle cx="65.13" cy="65.13" r="65.13" transform="translate(660.824 4103.437)" fill="#78958a"/><path d="M742.63,4136.1c5.277-4.419,12.246-5.843,18.207-1.423,7.134,5.29,6.647,14.366,2.19,21.239l-1.672,2.577A36.425,36.425,0,1,1,742.63,4136.1Zm-15.61,32.288c-.392.41-1.117,1.172-1.732.76l-16.457-11.018a2.76,2.76,0,0,0-3.337-.224c-1.708,1.42-.087,3.9.876,5.215l16.737,22.86a4.476,4.476,0,0,0,3.187,2.068c2.1.152,3.639-1.665,4.67-3.254l22.682-34.965c1.02-1.573,2.51-4.7.531-6.169-1.8-1.337-4.008.547-5.214,1.807l-21.943,22.92Zm-.642-28.653A28.956,28.956,0,1,0,753.11,4157.5l3.664-5.648c2.2-3.385,3.475-8.338-.376-11.193-3.571-2.648-7.488-.534-10.128,2.224l-2.517,2.63A28.859,28.859,0,0,0,726.378,4139.733Z" fill="#fff" fill-rule="evenodd" opacity="0.8"/></g></svg>