<svg xmlns="http://www.w3.org/2000/svg" width="485.518" height="307.52" viewBox="0 0 485.518 307.52">
  <g id="Sentiment_analysis-rafiki" data-name="Sentiment analysis-rafiki" transform="translate(-51.29 -165.48)">
    <g id="freepik--Shadow--inject-145" transform="translate(51.29 437.833)" style="isolation: isolate">
      <ellipse id="freepik--path--inject-145" cx="242.759" cy="17.584" rx="242.759" ry="17.584" transform="translate(0 0)" fill="#fff"/>
    </g>
    <g id="freepik--Screens--inject-145" transform="translate(91.103 165.48)">
      <path id="Trazado_105018" data-name="Trazado 105018" d="M252.385,280.238h-21.7l10.419-33.928h21.7Z" transform="translate(-62.812 -150.051)" fill="#008ec0"/>
      <path id="Trazado_105019" data-name="Trazado 105019" d="M237.06,256.218h21.7l3.045-9.908H240.1Z" transform="translate(-61.807 -150.051)" opacity="0.2"/>
      <rect id="Rectángulo_31670" data-name="Rectángulo 31670" width="41.515" height="5.156" transform="translate(165.227 128.031)" fill="#407bff"/>
      <rect id="Rectángulo_31671" data-name="Rectángulo 31671" width="41.515" height="5.156" transform="translate(165.227 128.031)" fill="#f6f6f6" opacity="0.5"/>
      <rect id="Rectángulo_31672" data-name="Rectángulo 31672" width="20.758" height="5.156" transform="translate(165.227 128.031)" fill="#fff" opacity="0.6"/>
      <path id="Trazado_105020" data-name="Trazado 105020" d="M453.285,254.367l-7.56-88.887L327.4,176.21H208.153L88,165.48l-2.315,2.382,7.56,88.887L213.4,267.479H332.641l118.329-10.73Z" transform="translate(-85.68 -165.48)" fill="#008ec0"/>
      <path id="Trazado_105021" data-name="Trazado 105021" d="M452.969,254.367l-7.56-88.887L327.081,176.21H207.838L87.68,165.48l7.56,88.887L215.4,265.1H334.641Z" transform="translate(-85.365 -165.48)" fill="#fff" opacity="0.2"/>
      <path id="Trazado_105178" data-name="Trazado 105178" d="M0,0,111.893-.278l-.2,82.034L-.2,82.034Z" transform="translate(245.457 13.943) rotate(-5)" fill="#fff" opacity="0.8"/>
      <path id="Trazado_105022" data-name="Trazado 105022" d="M315.954,184.956a1.254,1.254,0,0,1-1.349-1.161,1.269,1.269,0,0,1,1.129-1.387l28.028-2.537a1.249,1.249,0,0,1,1.354,1.143,1.265,1.265,0,0,1-1.111,1.393Z" transform="translate(-49.579 -162.734)" fill="#263238" opacity="0.5"/>
      <g id="Grupo_90815" data-name="Grupo 90815" transform="translate(265.022 17.13)" opacity="0.5">
        <path id="Trazado_105023" data-name="Trazado 105023" d="M315.954,184.956a1.254,1.254,0,0,1-1.349-1.161,1.269,1.269,0,0,1,1.129-1.387l28.028-2.537a1.249,1.249,0,0,1,1.354,1.143,1.265,1.265,0,0,1-1.111,1.393Z" transform="translate(-314.601 -179.865)" fill="#fff" opacity="0.5"/>
      </g>
      <path id="Trazado_105024" data-name="Trazado 105024" d="M355.344,181.485A1.254,1.254,0,0,1,354,180.324a1.269,1.269,0,0,1,1.129-1.387l28.028-2.537a1.252,1.252,0,0,1,1.28,1.166,1.266,1.266,0,0,1-1.071,1.37Z" transform="translate(-43.367 -163.396)" fill="#263238" opacity="0.5"/>
      <g id="Grupo_90816" data-name="Grupo 90816" transform="translate(310.624 13.004)" opacity="0.5">
        <path id="Trazado_105025" data-name="Trazado 105025" d="M355.344,181.485A1.254,1.254,0,0,1,354,180.324a1.269,1.269,0,0,1,1.129-1.387l28.028-2.537a1.252,1.252,0,0,1,1.28,1.166,1.266,1.266,0,0,1-1.071,1.37Z" transform="translate(-353.991 -176.399)" fill="#fff" opacity="0.5"/>
      </g>
      <path id="Trazado_105192" data-name="Trazado 105192" d="M14.264-.018a14.484,14.484,0,0,1,14.246,14.76,14.571,14.571,0,0,1-14.282,14.8A14.484,14.484,0,0,1-.018,14.778,14.571,14.571,0,0,1,14.264-.018Z" transform="translate(267.028 24.92) rotate(-2.51)" fill="#407bff"/>
      <g id="Grupo_90817" data-name="Grupo 90817" transform="translate(272.635 27.72)" opacity="0.9">
        <path id="Trazado_105026" data-name="Trazado 105026" d="M324.295,206.176l-1.621.143a.771.771,0,0,1-.822-.715l-.671-7.884a.789.789,0,0,1,.17-.569.746.746,0,0,1,.513-.276l1.621-.155a.771.771,0,0,1,.822.715l.671,7.884a.781.781,0,0,1-.683.857Z" transform="translate(-321.177 -187.237)" fill="#fff"/>
        <path id="Trazado_105027" data-name="Trazado 105027" d="M325.745,197.656c1.042-1.06,3.658-4.061,3.647-7.288a1.614,1.614,0,0,1,1.12-1.543,1.553,1.553,0,0,1,1.762.65c.579,1.036.718,3-.324,6.669l4.006-.357a2.67,2.67,0,0,1,2.6,1.453h0a2.881,2.881,0,0,1,.278,1.87l-1.158,6.216a2.724,2.724,0,0,1-2.836,2.251l-7.652-.56a1.316,1.316,0,0,1-1.158-1.191l-.6-7.086a1.336,1.336,0,0,1,.313-1.084Z" transform="translate(-320.508 -188.757)" fill="#fff"/>
      </g>
      <path id="Trazado_105193" data-name="Trazado 105193" d="M14.264-.018a14.484,14.484,0,0,1,14.246,14.76,14.571,14.571,0,0,1-14.282,14.8A14.484,14.484,0,0,1-.018,14.778,14.571,14.571,0,0,1,14.264-.018Z" transform="matrix(0.999, -0.044, 0.044, 0.999, 312.64, 20.766)" fill="#fff" opacity="0.9"/>
      <path id="Trazado_105028" data-name="Trazado 105028" d="M362.536,189.391l-1.621.143a.758.758,0,0,0-.521.28.8.8,0,0,0-.174.578l.671,7.872a.794.794,0,0,0,.264.539.75.75,0,0,0,.558.187l1.621-.155a.757.757,0,0,0,.521-.28.8.8,0,0,0,.174-.578l-.671-7.872a.782.782,0,0,0-.265-.535.739.739,0,0,0-.557-.179Z" transform="translate(-42.385 -160.917)" fill="#407bff"/>
      <path id="Trazado_105029" data-name="Trazado 105029" d="M365.642,199.206c1.158.869,4.284,3.346,4.816,6.526a1.594,1.594,0,0,0,1.37,1.329,1.569,1.569,0,0,0,1.629-.972c.394-1.119.2-3.084-1.447-6.5l3.994-.369a2.725,2.725,0,0,0,2.315-1.893h0a2.874,2.874,0,0,0,0-1.893l-2.2-5.954a2.682,2.682,0,0,0-3.172-1.7L365.5,189.7a1.331,1.331,0,0,0-.972,1.417l.6,7.074A1.346,1.346,0,0,0,365.642,199.206Z" transform="translate(-41.706 -161.24)" fill="#407bff"/>
      <path id="Trazado_105179" data-name="Trazado 105179" d="M0,0,8.488-.021l-.025,10.1L-.025,10.1Z" transform="translate(269.786 76.896) rotate(-5.04)" fill="#990f82"/>
      <path id="Trazado_105180" data-name="Trazado 105180" d="M0,0,8.488-.021,8.469,7.873l-8.488.021Z" transform="translate(278.431 78.32) rotate(-5.04)" fill="#fff" opacity="0.9"/>
      <path id="Trazado_105181" data-name="Trazado 105181" d="M0,0,8.488-.021,8.444,18.124l-8.488.021Z" transform="translate(294.461 66.565) rotate(-5.04)" fill="#fff" opacity="0.9"/>
      <path id="Trazado_105182" data-name="Trazado 105182" d="M0,0,8.488-.021l-.05,20.312-8.488.021Z" transform="translate(311.192 62.88) rotate(-5.04)" fill="#fff" opacity="0.9"/>
      <path id="Trazado_105183" data-name="Trazado 105183" d="M0,0,8.488-.021,8.449,15.766l-8.488.021Z" transform="translate(328.479 65.86) rotate(-5.04)" fill="#fff" opacity="0.9"/>
      <path id="Trazado_105184" data-name="Trazado 105184" d="M0,0,8.488-.021l-.04,16.514-8.488.021Z" transform="translate(286.154 68.957) rotate(-5.04)" fill="#990f82"/>
      <path id="Trazado_105185" data-name="Trazado 105185" d="M0,0,8.488-.021,8.433,22.458l-8.488.021Z" transform="translate(302.549 61.49) rotate(-5.04)" fill="#990f82"/>
      <path id="Trazado_105186" data-name="Trazado 105186" d="M0,0,8.488-.021,8.444,18.124l-8.488.021Z" transform="translate(319.821 64.27) rotate(-5.04)" fill="#990f82"/>
      <path id="Trazado_105187" data-name="Trazado 105187" d="M0,0,8.488-.021,8.419,28.173l-8.488.021Z" transform="translate(335.869 52.727) rotate(-5.04)" fill="#990f82"/>
      <path id="Trazado_105030" data-name="Trazado 105030" d="M90.96,168.74l6.958,81.742,113.154,10.111-6.946-81.742Z" transform="translate(-84.847 -164.858)" fill="#fff" opacity="0.8"/>
      <path id="Trazado_105031" data-name="Trazado 105031" d="M169.836,204.347l-60.721-5.383a5.872,5.872,0,0,1-5.036-5.145l-.764-9a3.914,3.914,0,0,1,1.074-3.233,3.676,3.676,0,0,1,3.151-1.078l60.733,5.359a5.779,5.779,0,0,1,5.024,5.145l.776,9A3.938,3.938,0,0,1,173,203.256a3.7,3.7,0,0,1-3.159,1.091Z" transform="translate(-82.904 -162.619)" fill="#fff"/>
      <path id="Trazado_105032" data-name="Trazado 105032" d="M118.516,189.994a4.7,4.7,0,0,1-1.3,3.86,4.416,4.416,0,0,1-3.764,1.3,6.94,6.94,0,0,1-6.032-6.145,4.713,4.713,0,0,1,1.3-3.868,4.427,4.427,0,0,1,3.772-1.3A6.941,6.941,0,0,1,118.516,189.994Z" transform="translate(-82.256 -161.984)" fill="rgba(153,15,130,0.55)"/>
      <path id="Trazado_105033" data-name="Trazado 105033" d="M123.289,187.286a1.515,1.515,0,0,1-1.308-1.334,1.017,1.017,0,0,1,.3-.868.954.954,0,0,1,.861-.251l37.22,3.323a1.5,1.5,0,0,1,1.308,1.334,1.017,1.017,0,0,1-.3.868.954.954,0,0,1-.861.251Z" transform="translate(-79.957 -161.79)" fill="#263238"/>
      <path id="Trazado_105034" data-name="Trazado 105034" d="M123.939,194.726a1.515,1.515,0,0,1-1.308-1.334,1.017,1.017,0,0,1,.3-.868.954.954,0,0,1,.861-.251l21.8,1.941a1.5,1.5,0,0,1,1.308,1.334,1.018,1.018,0,0,1-.28.84.956.956,0,0,1-.819.28Z" transform="translate(-79.854 -160.37)" fill="#263238"/>
      <path id="Trazado_105035" data-name="Trazado 105035" d="M123.619,191.006a1.5,1.5,0,0,1-1.308-1.334,1.017,1.017,0,0,1,.3-.868.954.954,0,0,1,.861-.251l31.571,2.822a1.515,1.515,0,0,1,1.308,1.334,1.018,1.018,0,0,1-.28.84.956.956,0,0,1-.819.279Z" transform="translate(-79.905 -161.08)" fill="#263238"/>
      <g id="Grupo_90818" data-name="Grupo 90818" transform="translate(42.015 23.023)" opacity="0.5">
        <path id="Trazado_105036" data-name="Trazado 105036" d="M123.289,187.286a1.515,1.515,0,0,1-1.308-1.334,1.017,1.017,0,0,1,.3-.868.954.954,0,0,1,.861-.251l37.22,3.323a1.5,1.5,0,0,1,1.308,1.334,1.017,1.017,0,0,1-.3.868.954.954,0,0,1-.861.251Z" transform="translate(-121.972 -184.813)" fill="#fff"/>
        <path id="Trazado_105037" data-name="Trazado 105037" d="M123.939,194.726a1.515,1.515,0,0,1-1.308-1.334,1.017,1.017,0,0,1,.3-.868.954.954,0,0,1,.861-.251l21.8,1.941a1.5,1.5,0,0,1,1.308,1.334,1.018,1.018,0,0,1-.28.84.956.956,0,0,1-.819.28Z" transform="translate(-121.869 -183.393)" fill="#fff"/>
        <path id="Trazado_105038" data-name="Trazado 105038" d="M123.619,191.006a1.5,1.5,0,0,1-1.308-1.334,1.017,1.017,0,0,1,.3-.868.954.954,0,0,1,.861-.251l31.571,2.822a1.515,1.515,0,0,1,1.308,1.334,1.018,1.018,0,0,1-.28.84.956.956,0,0,1-.819.279Z" transform="translate(-121.92 -184.103)" fill="#fff"/>
      </g>
      <path id="Trazado_105039" data-name="Trazado 105039" d="M164.7,177.941l-7.1-.56a1.424,1.424,0,0,0-1.193.434,1.515,1.515,0,0,0-.4,1.233l.579,6.085a2.23,2.23,0,0,0,1.933,1.941l2.061.167,1.007,1.489a.742.742,0,0,0,1.273.083l.718-1.358,2.049.167a1.412,1.412,0,0,0,1.2-.429,1.5,1.5,0,0,0,.4-1.238l-.579-6.073a2.229,2.229,0,0,0-1.945-1.941Z" transform="translate(-74.592 -163.21)" fill="#990f82"/>
      <g id="Grupo_90819" data-name="Grupo 90819" transform="translate(83.656 16.396)" opacity="0.9">
        <path id="Trazado_105040" data-name="Trazado 105040" d="M158.924,182.525a3.014,3.014,0,0,1-.949-1.8,1.214,1.214,0,0,1,.308-1.133,1.136,1.136,0,0,1,1.1-.308c.88.083,1.158.512,1.771,1.191.463-.548.718-.929,1.6-.857a1.82,1.82,0,0,1,1.679,1.715,2.054,2.054,0,0,1-.66,1.667l-2.211,2.239Z" transform="translate(-157.94 -179.248)" fill="#fff"/>
      </g>
      <path id="Trazado_105041" data-name="Trazado 105041" d="M184.177,223.775l-60.733-5.43a5.8,5.8,0,0,1-5.036-5.145l-.764-8.991a3.938,3.938,0,0,1,1.083-3.235,3.7,3.7,0,0,1,3.154-1.087l60.721,5.43a5.789,5.789,0,0,1,5.036,5.133l.764,9a3.926,3.926,0,0,1-1.074,3.236,3.687,3.687,0,0,1-3.151,1.087Z" transform="translate(-80.644 -158.919)" fill="#fff"/>
      <path id="Trazado_105042" data-name="Trazado 105042" d="M132.834,209.432a4.7,4.7,0,0,1-1.29,3.868,4.416,4.416,0,0,1-3.769,1.3,6.941,6.941,0,0,1-6.02-6.157,4.7,4.7,0,0,1,1.3-3.86,4.416,4.416,0,0,1,3.764-1.3,6.917,6.917,0,0,1,6.02,6.145Z" transform="translate(-79.997 -158.272)" fill="rgba(153,15,130,0.55)"/>
      <path id="Trazado_105043" data-name="Trazado 105043" d="M137.629,206.706a1.515,1.515,0,0,1-1.308-1.334,1.017,1.017,0,0,1,.3-.868.954.954,0,0,1,.861-.251l37.162,3.275a1.515,1.515,0,0,1,1.308,1.334,1.017,1.017,0,0,1-.3.868.954.954,0,0,1-.861.251Z" transform="translate(-77.695 -158.083)" fill="#263238"/>
      <path id="Trazado_105044" data-name="Trazado 105044" d="M138.279,214.146a1.527,1.527,0,0,1-1.308-1.346,1.029,1.029,0,0,1,.286-.835.967.967,0,0,1,.814-.285l21.8,1.953a1.5,1.5,0,0,1,1.308,1.334,1.018,1.018,0,0,1-.28.84.956.956,0,0,1-.819.28Z" transform="translate(-77.592 -156.663)" fill="#263238"/>
      <path id="Trazado_105045" data-name="Trazado 105045" d="M137.959,210.395a1.5,1.5,0,0,1-1.308-1.334,1.018,1.018,0,0,1,.28-.84.956.956,0,0,1,.819-.279l31.571,2.81a1.5,1.5,0,0,1,1.3,1.334,1.02,1.02,0,0,1-.244.885.957.957,0,0,1-.844.305Z" transform="translate(-77.643 -157.377)" fill="#263238"/>
      <g id="Grupo_90820" data-name="Grupo 90820" transform="translate(58.616 46.15)" opacity="0.5">
        <path id="Trazado_105046" data-name="Trazado 105046" d="M137.629,206.706a1.515,1.515,0,0,1-1.308-1.334,1.017,1.017,0,0,1,.3-.868.954.954,0,0,1,.861-.251l37.162,3.275a1.515,1.515,0,0,1,1.308,1.334,1.017,1.017,0,0,1-.3.868.954.954,0,0,1-.861.251Z" transform="translate(-136.312 -204.233)" fill="#fff"/>
        <path id="Trazado_105047" data-name="Trazado 105047" d="M138.279,214.146a1.527,1.527,0,0,1-1.308-1.346,1.029,1.029,0,0,1,.286-.835.967.967,0,0,1,.814-.285l21.8,1.953a1.5,1.5,0,0,1,1.308,1.334,1.018,1.018,0,0,1-.28.84.956.956,0,0,1-.819.28Z" transform="translate(-136.209 -202.813)" fill="#fff"/>
        <path id="Trazado_105048" data-name="Trazado 105048" d="M137.959,210.395a1.5,1.5,0,0,1-1.308-1.334,1.018,1.018,0,0,1,.28-.84.956.956,0,0,1,.819-.279l31.571,2.81a1.5,1.5,0,0,1,1.3,1.334,1.02,1.02,0,0,1-.244.885.957.957,0,0,1-.844.305Z" transform="translate(-136.26 -203.527)" fill="#fff"/>
      </g>
      <path id="Trazado_105049" data-name="Trazado 105049" d="M179.036,197.361l-7.1-.56a1.412,1.412,0,0,0-1.2.429,1.5,1.5,0,0,0-.4,1.238l.579,6.073a2.219,2.219,0,0,0,1.933,1.953l2.061.167,1.007,1.477a.731.731,0,0,0,1.262.1l.729-1.369,2.038.167a1.412,1.412,0,0,0,1.177-.436,1.5,1.5,0,0,0,.4-1.22l-.59-6.062a2.2,2.2,0,0,0-1.9-1.953Z" transform="translate(-72.331 -159.504)" fill="#990f82"/>
      <g id="Grupo_90821" data-name="Grupo 90821" transform="translate(100.26 39.512)" opacity="0.9">
        <path id="Trazado_105050" data-name="Trazado 105050" d="M173.264,201.935a2.955,2.955,0,0,1-.949-1.81,1.214,1.214,0,0,1,.315-1.124,1.136,1.136,0,0,1,1.1-.3c.868.071,1.158.512,1.771,1.191.452-.548.718-.941,1.586-.857a1.808,1.808,0,0,1,1.69,1.715,2.09,2.09,0,0,1-.66,1.655L175.9,204.65Z" transform="translate(-172.283 -198.659)" fill="#fff"/>
      </g>
      <path id="Trazado_105051" data-name="Trazado 105051" d="M177.327,242.585l-60.733-5.43a5.79,5.79,0,0,1-5.036-5.145l-.764-8.991a3.926,3.926,0,0,1,1.074-3.236,3.687,3.687,0,0,1,3.151-1.087l60.733,5.43a5.79,5.79,0,0,1,5.036,5.145l.764,8.991a3.926,3.926,0,0,1-1.074,3.236A3.687,3.687,0,0,1,177.327,242.585Z" transform="translate(-81.724 -155.329)" fill="#fff"/>
      <path id="Trazado_105052" data-name="Trazado 105052" d="M125.984,228.242a4.7,4.7,0,0,1-1.29,3.868,4.416,4.416,0,0,1-3.769,1.3,6.941,6.941,0,0,1-6.02-6.157,4.7,4.7,0,0,1,1.3-3.86,4.415,4.415,0,0,1,3.764-1.3,6.94,6.94,0,0,1,6.02,6.145Z" transform="translate(-81.077 -154.681)" fill="rgba(153,15,130,0.55)"/>
      <path id="Trazado_105053" data-name="Trazado 105053" d="M130.779,225.515a1.5,1.5,0,0,1-1.308-1.334,1.018,1.018,0,0,1,.28-.84.956.956,0,0,1,.819-.279l37.22,3.323a1.516,1.516,0,0,1,1.308,1.369,1.018,1.018,0,0,1-.28.84.956.956,0,0,1-.819.28Z" transform="translate(-78.775 -154.491)" fill="#263238"/>
      <path id="Trazado_105054" data-name="Trazado 105054" d="M131.429,232.956a1.515,1.515,0,0,1-1.308-1.334,1.03,1.03,0,0,1,.28-.843.968.968,0,0,1,.819-.288l30.019,2.679a1.515,1.515,0,0,1,1.308,1.334,1.017,1.017,0,0,1-.3.868.954.954,0,0,1-.861.251Z" transform="translate(-78.673 -153.072)" fill="#263238"/>
      <path id="Trazado_105055" data-name="Trazado 105055" d="M131.1,229.236a1.515,1.515,0,0,1-1.308-1.334,1.017,1.017,0,0,1,.3-.868.954.954,0,0,1,.861-.251l26.9,2.382a1.527,1.527,0,0,1,1.308,1.334,1.031,1.031,0,0,1-.269.914.966.966,0,0,1-.889.277Z" transform="translate(-78.725 -153.782)" fill="#263238"/>
      <g id="Grupo_90822" data-name="Grupo 90822" transform="translate(50.688 68.561)" opacity="0.5">
        <path id="Trazado_105056" data-name="Trazado 105056" d="M130.779,225.515a1.5,1.5,0,0,1-1.308-1.334,1.018,1.018,0,0,1,.28-.84.956.956,0,0,1,.819-.279l37.22,3.323a1.516,1.516,0,0,1,1.308,1.369,1.018,1.018,0,0,1-.28.84.956.956,0,0,1-.819.28Z" transform="translate(-129.463 -223.052)" fill="#fff"/>
        <path id="Trazado_105057" data-name="Trazado 105057" d="M131.429,232.956a1.515,1.515,0,0,1-1.308-1.334,1.03,1.03,0,0,1,.28-.843.968.968,0,0,1,.819-.288l30.019,2.679a1.515,1.515,0,0,1,1.308,1.334,1.017,1.017,0,0,1-.3.868.954.954,0,0,1-.861.251Z" transform="translate(-129.36 -221.633)" fill="#fff"/>
        <path id="Trazado_105058" data-name="Trazado 105058" d="M131.1,229.236a1.515,1.515,0,0,1-1.308-1.334,1.017,1.017,0,0,1,.3-.868.954.954,0,0,1,.861-.251l26.9,2.382a1.527,1.527,0,0,1,1.308,1.334,1.031,1.031,0,0,1-.269.914.966.966,0,0,1-.889.277Z" transform="translate(-129.413 -222.343)" fill="#fff"/>
      </g>
      <path id="Trazado_105059" data-name="Trazado 105059" d="M172.356,218.18l-7.1-.548a1.412,1.412,0,0,0-1.2.429,1.5,1.5,0,0,0-.4,1.238l.579,6.073a2.195,2.195,0,0,0,1.933,1.941l2.061.167,1.007,1.489a.753.753,0,0,0,1.273.1l.718-1.37,2.049.167a1.412,1.412,0,0,0,1.2-.429,1.5,1.5,0,0,0,.4-1.238l-.579-6.062a2.242,2.242,0,0,0-1.945-1.953Z" transform="translate(-73.384 -155.528)" fill="#990f82"/>
      <path id="Trazado_105060" data-name="Trazado 105060" d="M166.591,224.309h0a.646.646,0,0,1-.567-.572l-.174-2.048a.448.448,0,0,1,.123-.362.421.421,0,0,1,.352-.126h0a.669.669,0,0,1,.579.584l.174,2.036a.448.448,0,0,1-.126.367.421.421,0,0,1-.36.121Z" transform="translate(-73.037 -154.845)" fill="#fff" opacity="0.9"/>
      <path id="Trazado_105061" data-name="Trazado 105061" d="M167.356,221.614a2.994,2.994,0,0,0,1.227-2.144c0-.512.706-.607.972-.119a3,3,0,0,1-.116,2.144l1.343.119a1.159,1.159,0,0,1,.868.631h0a.9.9,0,0,1,.093.619l-.394,1.953a.761.761,0,0,1-.355.5.723.723,0,0,1-.595.064l-2.57-.631a.543.543,0,0,1-.394-.464l-.2-2.382a.423.423,0,0,1,.116-.286Z" transform="translate(-72.818 -155.258)" fill="#fff" opacity="0.9"/>
      <path id="Trazado_105062" data-name="Trazado 105062" d="M194.73,177.49l6.958,81.742h112.3l-6.958-81.742Z" transform="translate(-68.483 -163.188)" fill="#fff" opacity="0.8"/>
      <g id="Grupo_90823" data-name="Grupo 90823" transform="translate(126.556 68.142)" opacity="0.2">
        <path id="Trazado_105063" data-name="Trazado 105063" d="M198.138,250.221h0a1,1,0,0,1-.949-.893L195,223.593a.825.825,0,0,1,.2-.632.777.777,0,0,1,.6-.261h0a.961.961,0,0,1,.938.893l2.188,25.735a.825.825,0,0,1-.2.627.777.777,0,0,1-.587.266Z" transform="translate(-194.996 -222.7)"/>
      </g>
      <g id="Grupo_90824" data-name="Grupo 90824" transform="translate(123.083 26.854)" opacity="0.2">
        <path id="Trazado_105064" data-name="Trazado 105064" d="M196.018,226.34h0a.984.984,0,0,1-.949-.893L192,188.923a.825.825,0,0,1,.2-.627.777.777,0,0,1,.587-.266h0a.984.984,0,0,1,.949.893l3.1,36.524a.824.824,0,0,1-.211.641A.776.776,0,0,1,196.018,226.34Z" transform="translate(-191.996 -188.03)"/>
      </g>
      <g id="Grupo_90825" data-name="Grupo 90825" transform="translate(122.016 14.683)" opacity="0.2">
        <path id="Trazado_105065" data-name="Trazado 105065" d="M192.667,187.206h0a1,1,0,0,1-.949-.893l-.637-7.61a.813.813,0,0,1,.2-.631.766.766,0,0,1,.592-.262h0a.984.984,0,0,1,.949.893l.637,7.61a.825.825,0,0,1-.2.627.778.778,0,0,1-.587.266Z" transform="translate(-191.075 -177.81)"/>
      </g>
      <g id="Grupo_90826" data-name="Grupo 90826" transform="translate(244.803 56.424)" opacity="0.2">
        <path id="Trazado_105066" data-name="Trazado 105066" d="M301.274,252.1h0a.984.984,0,0,1-.949-.893l-3.184-37.453a.825.825,0,0,1,.2-.632.777.777,0,0,1,.6-.261h0a.984.984,0,0,1,.938.893l3.184,37.453a.825.825,0,0,1-.2.627.778.778,0,0,1-.587.266Z" transform="translate(-297.136 -212.86)"/>
      </g>
      <g id="Grupo_90827" data-name="Grupo 90827" transform="translate(241.954 22.888)" opacity="0.2">
        <path id="Trazado_105067" data-name="Trazado 105067" d="M298.108,215.663h0a.984.984,0,0,1-.949-.893l-2.478-29.176a.813.813,0,0,1,.2-.631.766.766,0,0,1,.592-.262h0a.972.972,0,0,1,.949.893l2.478,29.176a.825.825,0,0,1-.2.627A.778.778,0,0,1,298.108,215.663Z" transform="translate(-294.675 -184.7)"/>
      </g>
      <g id="Grupo_90828" data-name="Grupo 90828" transform="translate(241.249 14.683)" opacity="0.2">
        <path id="Trazado_105068" data-name="Trazado 105068" d="M295.263,182.5h0a.961.961,0,0,1-.938-.893l-.255-2.906a.825.825,0,0,1,.2-.632.777.777,0,0,1,.6-.261h0a.961.961,0,0,1,.938.893l.255,2.906a.825.825,0,0,1-.2.632.777.777,0,0,1-.6.261Z" transform="translate(-294.066 -177.81)"/>
      </g>
      <path id="Trazado_105069" data-name="Trazado 105069" d="M280.42,207.9a1.127,1.127,0,0,1,.289-.842,1.063,1.063,0,0,1,.8-.349,1.334,1.334,0,0,1,1.3,1.191l1.378,16.148a1.127,1.127,0,0,1-.289.842,1.062,1.062,0,0,1-.8.349,1.334,1.334,0,0,1-1.3-1.191Z" transform="translate(-54.97 -157.61)" fill="#407bff"/>
      <path id="Trazado_105070" data-name="Trazado 105070" d="M202.177,183.642a1.334,1.334,0,0,1-1.3-1.191,1.127,1.127,0,0,1,.289-.842,1.062,1.062,0,0,1,.8-.349h27.275a1.334,1.334,0,0,1,1.3,1.191,1.127,1.127,0,0,1-.289.842,1.062,1.062,0,0,1-.8.349Z" transform="translate(-67.513 -162.468)" fill="#263238"/>
      <path id="Trazado_105071" data-name="Trazado 105071" d="M202.857,191.082a1.334,1.334,0,0,1-1.3-1.191,1.127,1.127,0,0,1,.289-.842,1.062,1.062,0,0,1,.8-.349h22.645a1.334,1.334,0,0,1,1.3,1.191,1.127,1.127,0,0,1-.289.842,1.062,1.062,0,0,1-.8.349Z" transform="translate(-67.406 -161.048)" fill="#263238"/>
      <path id="Trazado_105072" data-name="Trazado 105072" d="M202.527,187.382a1.334,1.334,0,0,1-1.3-1.191,1.127,1.127,0,0,1,.289-.842,1.062,1.062,0,0,1,.8-.349h18.025a1.334,1.334,0,0,1,1.3,1.191,1.127,1.127,0,0,1-.289.842,1.062,1.062,0,0,1-.8.349Z" transform="translate(-67.458 -161.754)" fill="#263238"/>
      <g id="Grupo_90829" data-name="Grupo 90829" transform="translate(133.364 18.792)" opacity="0.5">
        <path id="Trazado_105073" data-name="Trazado 105073" d="M202.177,183.642a1.334,1.334,0,0,1-1.3-1.191,1.127,1.127,0,0,1,.289-.842,1.062,1.062,0,0,1,.8-.349h27.275a1.334,1.334,0,0,1,1.3,1.191,1.127,1.127,0,0,1-.289.842,1.062,1.062,0,0,1-.8.349Z" transform="translate(-200.877 -181.26)" fill="#fff"/>
        <path id="Trazado_105074" data-name="Trazado 105074" d="M202.857,191.082a1.334,1.334,0,0,1-1.3-1.191,1.127,1.127,0,0,1,.289-.842,1.062,1.062,0,0,1,.8-.349h22.645a1.334,1.334,0,0,1,1.3,1.191,1.127,1.127,0,0,1-.289.842,1.062,1.062,0,0,1-.8.349Z" transform="translate(-200.77 -179.84)" fill="#fff"/>
        <path id="Trazado_105075" data-name="Trazado 105075" d="M202.527,187.382a1.334,1.334,0,0,1-1.3-1.191,1.127,1.127,0,0,1,.289-.842,1.062,1.062,0,0,1,.8-.349h18.025a1.334,1.334,0,0,1,1.3,1.191,1.127,1.127,0,0,1-.289.842,1.062,1.062,0,0,1-.8.349Z" transform="translate(-200.822 -180.546)" fill="#fff"/>
      </g>
      <path id="Trazado_105076" data-name="Trazado 105076" d="M287.737,200.279a5.834,5.834,0,0,1-1.425,4.484,5.5,5.5,0,0,1-4.213,1.863,6.945,6.945,0,0,1-6.715-6.347,5.834,5.834,0,0,1,1.42-4.492,5.5,5.5,0,0,1,4.218-1.867A7.027,7.027,0,0,1,287.737,200.279Z" transform="translate(-55.769 -160.052)" fill="#407bff"/>
      <path id="Trazado_105077" data-name="Trazado 105077" d="M278.223,202.453h0a.75.75,0,0,1-.741-.7l-.232-2.668a.643.643,0,0,1,.157-.5.606.606,0,0,1,.468-.2h0a.773.773,0,0,1,.741.7l.22,2.668a.643.643,0,0,1-.153.493.606.606,0,0,1-.46.209Z" transform="translate(-55.47 -159.2)" fill="#fff"/>
      <path id="Trazado_105078" data-name="Trazado 105078" d="M279.212,198.838a4.5,4.5,0,0,0,1.586-2.977.684.684,0,0,1,.536-.615.666.666,0,0,1,.726.353,4,4,0,0,1-.151,2.834h1.713a1.281,1.281,0,0,1,1.158.726h0a1.319,1.319,0,0,1,.127.81l-.509,2.62a1.067,1.067,0,0,1-1.239.857l-3.323-.536a.636.636,0,0,1-.521-.572l-.266-3.061A.569.569,0,0,1,279.212,198.838Z" transform="translate(-55.185 -159.801)" fill="#fff"/>
      <path id="Trazado_105079" data-name="Trazado 105079" d="M290.4,230.739a6.946,6.946,0,0,0-6.715-6.359,5.5,5.5,0,0,0-4.218,1.867,5.834,5.834,0,0,0-1.42,4.492,7.028,7.028,0,0,0,6.715,6.359,5.5,5.5,0,0,0,4.218-1.867A5.834,5.834,0,0,0,290.4,230.739Z" transform="translate(-55.349 -154.238)" fill="#407bff"/>
      <path id="Trazado_105080" data-name="Trazado 105080" d="M280.4,227.17h0a.605.605,0,0,0-.468.2.643.643,0,0,0-.157.5l.266,2.668a.761.761,0,0,0,.741.7h0a.606.606,0,0,0,.46-.209.643.643,0,0,0,.153-.493l-.22-2.679A.783.783,0,0,0,280.4,227.17Z" transform="translate(-55.072 -153.705)" fill="#fff"/>
      <path id="Trazado_105081" data-name="Trazado 105081" d="M282.065,231.449a5.64,5.64,0,0,1,2.1,2.989c.1.679,1.065.881,1.3.262s.093-1.31-.625-2.846h1.737a1.055,1.055,0,0,0,1.019-.715h0a1.3,1.3,0,0,0,0-.81l-.961-2.62a1.282,1.282,0,0,0-1.378-.857l-3.23.536a.521.521,0,0,0-.428.572l.266,3.049a.59.59,0,0,0,.208.441Z" transform="translate(-54.785 -153.768)" fill="#fff"/>
      <path id="Trazado_105188" data-name="Trazado 105188" d="M31.02-.437C48.152-.679,61.827,14.268,61.563,32.947S47.2,66.965,30.065,67.207-.741,52.5-.478,33.822,13.888-.2,31.02-.437Z" transform="translate(140.702 57.413) rotate(-46.25)" fill="#990f82"/>
      <path id="Trazado_105082" data-name="Trazado 105082" d="M271.263,196.527a34.211,34.211,0,0,0-23.4-9.527c-17.632,0-30.679,14.707-29.139,32.844h31.929Z" transform="translate(-64.718 -161.372)" fill="#fff" opacity="0.6"/>
      <path id="Trazado_105083" data-name="Trazado 105083" d="M225.08,196.528l24.555,23.222L246.845,187a28.744,28.744,0,0,0-21.765,9.527Z" transform="translate(-63.696 -161.373)" opacity="0.2"/>
      <path id="Trazado_105084" data-name="Trazado 105084" d="M225.08,196.528l24.555,23.222L246.845,187a28.744,28.744,0,0,0-21.765,9.527Z" transform="translate(-63.696 -161.373)" fill="#990f82"/>
      <path id="Trazado_105085" data-name="Trazado 105085" d="M225.08,196.528l24.555,23.222L246.845,187a28.744,28.744,0,0,0-21.765,9.527Z" transform="translate(-63.696 -161.373)" opacity="0.3"/>
      <path id="Trazado_105086" data-name="Trazado 105086" d="M251.9,247.386c17.632,0,30.679-14.707,29.139-32.856H249.1L228.49,237.716a34.221,34.221,0,0,0,23.409,9.67Z" transform="translate(-63.159 -156.117)" fill="#fff" opacity="0.3"/>
      <path id="Trazado_105087" data-name="Trazado 105087" d="M268.881,238.679a7.35,7.35,0,0,1-1.792,5.638,6.926,6.926,0,0,1-5.294,2.353,8.749,8.749,0,0,1-8.44-7.991,7.278,7.278,0,0,1,1.77-5.655,6.855,6.855,0,0,1,5.315-2.324A8.749,8.749,0,0,1,268.881,238.679Z" transform="translate(-59.245 -153.031)" fill="#fff"/>
      <path id="Trazado_105088" data-name="Trazado 105088" d="M257.881,239.141a3.175,3.175,0,0,1-1.158-2.036,1.6,1.6,0,0,1,.379-1.329,1.506,1.506,0,0,1,1.254-.505c1.019,0,1.4.488,2.049,1.191.533-.691.834-1.191,1.852-1.191A1.9,1.9,0,0,1,264.2,237.1a2.661,2.661,0,0,1-.764,2.036l-2.559,2.87Z" transform="translate(-58.71 -152.16)" fill="#990f82"/>
      <path id="Trazado_105089" data-name="Trazado 105089" d="M231.051,205.079a7.278,7.278,0,0,1-1.765,5.663,6.855,6.855,0,0,1-5.32,2.328,8.749,8.749,0,0,1-8.44-7.991,7.278,7.278,0,0,1,1.77-5.655,6.855,6.855,0,0,1,5.315-2.324,8.737,8.737,0,0,1,8.44,7.979Z" transform="translate(-65.211 -159.445)" fill="#fff"/>
      <path id="Trazado_105090" data-name="Trazado 105090" d="M227.786,204.611a4.62,4.62,0,0,1-1.136,3.531,4.354,4.354,0,0,1-3.321,1.471A5.516,5.516,0,0,1,218,204.576a4.621,4.621,0,0,1,1.13-3.551,4.354,4.354,0,0,1,3.338-1.474A5.506,5.506,0,0,1,227.786,204.611Z" transform="translate(-64.816 -158.977)" fill="#407bff"/>
      <path id="Trazado_105091" data-name="Trazado 105091" d="M227.786,204.611a4.62,4.62,0,0,1-1.136,3.531,4.354,4.354,0,0,1-3.321,1.471A5.516,5.516,0,0,1,218,204.576a4.621,4.621,0,0,1,1.13-3.551,4.354,4.354,0,0,1,3.338-1.474A5.506,5.506,0,0,1,227.786,204.611Z" transform="translate(-64.816 -158.977)" fill="#fff" opacity="0.5"/>
      <path id="Trazado_105092" data-name="Trazado 105092" d="M224.33,204.724a2.394,2.394,0,0,1-3.392,0,.4.4,0,0,0-.416-.138.412.412,0,0,0-.3.33.422.422,0,0,0,.167.415,3.223,3.223,0,0,0,4.631,0c.37-.381-.278-.988-.648-.607Z" transform="translate(-64.463 -158.018)" fill="#407bff"/>
      <path id="Trazado_105093" data-name="Trazado 105093" d="M221.215,202.588c0,.548-.1.988-.336.988s-.452-.441-.5-.988.1-.988.336-.988S221.168,202.076,221.215,202.588Z" transform="translate(-64.439 -158.586)" fill="#407bff"/>
      <path id="Trazado_105094" data-name="Trazado 105094" d="M223.945,202.588c0,.548-.1.988-.324.988s-.451-.441-.509-.988.1-.988.336-.988S223.9,202.076,223.945,202.588Z" transform="translate(-64.009 -158.586)" fill="#407bff"/>
      <path id="Trazado_105095" data-name="Trazado 105095" d="M271.99,198.991a7.278,7.278,0,0,1-1.77,5.655,6.855,6.855,0,0,1-5.315,2.324,8.749,8.749,0,0,1-8.44-7.979,7.35,7.35,0,0,1,1.792-5.638A6.926,6.926,0,0,1,263.551,191a8.749,8.749,0,0,1,8.44,7.991Z" transform="translate(-58.753 -160.609)" fill="#fff"/>
      <path id="Trazado_105096" data-name="Trazado 105096" d="M268.726,198.518a4.621,4.621,0,0,1-1.127,3.547,4.354,4.354,0,0,1-3.33,1.479,5.516,5.516,0,0,1-5.325-5.025,4.633,4.633,0,0,1,1.13-3.555,4.366,4.366,0,0,1,3.339-1.482,5.517,5.517,0,0,1,5.314,5.037Z" transform="translate(-58.36 -160.136)" fill="#407bff"/>
      <path id="Trazado_105097" data-name="Trazado 105097" d="M268.726,198.518a4.621,4.621,0,0,1-1.127,3.547,4.354,4.354,0,0,1-3.33,1.479,5.516,5.516,0,0,1-5.325-5.025,4.633,4.633,0,0,1,1.13-3.555,4.366,4.366,0,0,1,3.339-1.482,5.517,5.517,0,0,1,5.314,5.037Z" transform="translate(-58.36 -160.136)" fill="#fff" opacity="0.5"/>
      <path id="Trazado_105098" data-name="Trazado 105098" d="M261.987,200.074a2.383,2.383,0,0,1,3.4,0,.4.4,0,0,0,.573-.03.426.426,0,0,0-.029-.59,3.257,3.257,0,0,0-4.631,0c-.359.381.289.988.648.619Z" transform="translate(-58 -159.179)" fill="#407bff"/>
      <path id="Trazado_105099" data-name="Trazado 105099" d="M262.115,196.488c0,.548-.1.988-.336.988s-.452-.441-.5-.988.1-.988.336-.988S262.115,195.941,262.115,196.488Z" transform="translate(-57.989 -159.75)" fill="#407bff"/>
      <path id="Trazado_105100" data-name="Trazado 105100" d="M264.883,196.488c0,.548-.1.988-.324.988s-.452-.441-.5-.988.093-.988.324-.988S264.837,195.941,264.883,196.488Z" transform="translate(-57.55 -159.75)" fill="#407bff"/>
      <path id="Trazado_105189" data-name="Trazado 105189" d="M7.544-.106C11.71-.165,15.035,3.465,14.971,8s-3.493,8.263-7.66,8.321S-.18,12.752-.116,8.215,3.377-.048,7.544-.106Z" transform="translate(147.725 69.941) rotate(-46.25)" fill="#fff"/>
      <path id="Trazado_105190" data-name="Trazado 105190" d="M4.747-.067A4.809,4.809,0,0,1,9.421,5.042,5.148,5.148,0,0,1,4.6,10.284,4.809,4.809,0,0,1-.073,5.175,5.148,5.148,0,0,1,4.747-.067Z" transform="translate(151.796 69.979) rotate(-46.25)" fill="#407bff"/>
      <path id="Trazado_105191" data-name="Trazado 105191" d="M4.747-.067A4.809,4.809,0,0,1,9.421,5.042,5.148,5.148,0,0,1,4.6,10.284,4.809,4.809,0,0,1-.073,5.175,5.148,5.148,0,0,1,4.747-.067Z" transform="translate(151.796 69.979) rotate(-46.25)" fill="#fff" opacity="0.5"/>
      <path id="Trazado_105101" data-name="Trazado 105101" d="M220.821,225.854a3.4,3.4,0,0,0,4.851,0l-.069-.834H220.74Z" transform="translate(-64.381 -154.115)" fill="#407bff"/>
      <path id="Trazado_105102" data-name="Trazado 105102" d="M222.532,223.191a1.509,1.509,0,0,0-2.13,0c-.289.262.2.726.486.453a.851.851,0,0,1,1.227,0C222.451,223.917,222.856,223.453,222.532,223.191Z" transform="translate(-64.448 -154.548)" fill="#407bff"/>
      <path id="Trazado_105103" data-name="Trazado 105103" d="M225.3,223.191a1.509,1.509,0,0,0-2.13,0c-.289.262.2.726.486.453a.874.874,0,0,1,1.239,0C225.221,223.917,225.638,223.453,225.3,223.191Z" transform="translate(-64.011 -154.548)" fill="#407bff"/>
      <path id="Trazado_105104" data-name="Trazado 105104" d="M303.77,272.28h-35.9v6h71.8v-2.465Z" transform="translate(-56.948 -145.094)" fill="#407bff"/>
      <path id="Trazado_105105" data-name="Trazado 105105" d="M303.77,272.28h-35.9v6h71.8v-2.465Z" transform="translate(-56.948 -145.094)" fill="#fff" opacity="0.6"/>
      <path id="Trazado_105106" data-name="Trazado 105106" d="M303.77,278.282h-35.9v-6l35.9,3.537Z" transform="translate(-56.948 -145.094)" fill="#fff" opacity="0.6"/>
      <g id="Grupo_90830" data-name="Grupo 90830" transform="translate(321.586 3.882)" opacity="0.5">
        <path id="Trazado_105107" data-name="Trazado 105107" d="M403.725,226.819l-4.943-58.079-6.692.607-28.63,84.969,31.964-2.906Z" transform="translate(-363.46 -168.74)" fill="#fff"/>
      </g>
      <g id="Grupo_90838" data-name="Grupo 90838" transform="translate(178.818 14.303)" opacity="0.5">
        <path id="Trazado_105108" data-name="Trazado 105108" d="M271.132,259.232l27.553-81.742H267.693L240.14,259.232Z" transform="translate(-240.14 -177.49)" fill="#fff"/>
      </g>
    </g>
    <g id="freepik--Table--inject-145" transform="translate(158.794 298.68)">
      <path id="Trazado_105110" data-name="Trazado 105110" d="M150.24,281.21H380.924v5.061a2.02,2.02,0,0,1-1.991,2.048H152.278a2.02,2.02,0,0,1-1.991-2.048V281.21Z" transform="translate(-143.19 -276.589)" fill="#636363"/>
      <path id="Trazado_105112" data-name="Trazado 105112" d="M150.24,281.21H254.665v7.145H152.278a2.02,2.02,0,0,1-1.991-2.048v-5.061Z" transform="translate(-143.19 -276.589)" fill="#fff" opacity="0.3"/>
      <rect id="Rectángulo_31683" data-name="Rectángulo 31683" width="244.784" height="5.954" rx="2.03" transform="translate(0 0)" fill="#afafaf"/>
      <path id="Trazado_105113" data-name="Trazado 105113" d="M146.5,277.33H255.62v5.954H146.5a2.349,2.349,0,0,1-2.315-2.382v-1.119a2.42,2.42,0,0,1,.653-1.731A2.284,2.284,0,0,1,146.5,277.33Z" transform="translate(-144.145 -277.33)" fill="#fff" opacity="0.4"/>
      <path id="Trazado_105114" data-name="Trazado 105114" d="M242.013,430.355H161.946a8.833,8.833,0,0,1-8.706-8.955V296.155a8.833,8.833,0,0,1,8.706-8.955h80.067a8.833,8.833,0,0,1,8.706,8.955V421.4a8.833,8.833,0,0,1-8.706,8.955ZM161.946,291.964a4.146,4.146,0,0,0-4.075,4.192V421.4a4.146,4.146,0,0,0,4.075,4.192h80.067a4.146,4.146,0,0,0,4.075-4.192V296.155a4.147,4.147,0,0,0-4.075-4.192Z" transform="translate(-142.716 -275.446)" fill="#045476"/>
      <g id="Grupo_90832" data-name="Grupo 90832" transform="translate(10.524 -8.246)" opacity="0.4">
        <path id="Trazado_105115" data-name="Trazado 105115" d="M242.013,430.355H161.946a8.833,8.833,0,0,1-8.706-8.955V296.155a8.833,8.833,0,0,1,8.706-8.955h80.067a8.833,8.833,0,0,1,8.706,8.955V421.4a8.833,8.833,0,0,1-8.706,8.955ZM161.946,291.964a4.146,4.146,0,0,0-4.075,4.192V421.4a4.146,4.146,0,0,0,4.075,4.192h80.067a4.146,4.146,0,0,0,4.075-4.192V296.155a4.147,4.147,0,0,0-4.075-4.192Z" transform="translate(-153.24 -267.2)" fill="#fff" opacity="0.2"/>
      </g>
      <path id="Trazado_105116" data-name="Trazado 105116" d="M242.006,287.2H161.94a8.814,8.814,0,0,0-8.66,8.05h4.689a4.1,4.1,0,0,1,3.971-3.287h80.067a4.1,4.1,0,0,1,3.971,3.287h4.689a8.814,8.814,0,0,0-8.66-8.05Z" transform="translate(-142.71 -275.446)" opacity="0.2"/>
      <path id="Trazado_105117" data-name="Trazado 105117" d="M349.672,430.355H269.606A8.833,8.833,0,0,1,260.9,421.4V296.155a8.833,8.833,0,0,1,8.706-8.955h80.067a8.845,8.845,0,0,1,8.706,8.955V421.4A8.845,8.845,0,0,1,349.672,430.355ZM269.606,291.964a4.147,4.147,0,0,0-4.075,4.192V421.4a4.146,4.146,0,0,0,4.075,4.192h80.067a4.146,4.146,0,0,0,4.075-4.192V296.155a4.146,4.146,0,0,0-4.075-4.192Z" transform="translate(-125.738 -275.446)" fill="#045476"/>
      <path id="Trazado_105118" data-name="Trazado 105118" d="M349.672,430.355H269.606A8.833,8.833,0,0,1,260.9,421.4V296.155a8.833,8.833,0,0,1,8.706-8.955h80.067a8.845,8.845,0,0,1,8.706,8.955V421.4A8.845,8.845,0,0,1,349.672,430.355ZM269.606,291.964a4.147,4.147,0,0,0-4.075,4.192V421.4a4.146,4.146,0,0,0,4.075,4.192h80.067a4.146,4.146,0,0,0,4.075-4.192V296.155a4.146,4.146,0,0,0-4.075-4.192Z" transform="translate(-125.738 -275.446)" fill="#fff" opacity="0.1"/>
      <path id="Trazado_105119" data-name="Trazado 105119" d="M349.666,287.2H269.6a8.814,8.814,0,0,0-8.66,8.05h4.631a4.114,4.114,0,0,1,3.982-3.287H349.62a4.1,4.1,0,0,1,4.006,3.334h4.689A8.816,8.816,0,0,0,349.666,287.2Z" transform="translate(-125.732 -275.446)" opacity="0.2"/>
    </g>
    <g id="freepik--Device--inject-145" transform="translate(139.449 339.86)">
      <rect id="Rectángulo_31684" data-name="Rectángulo 31684" width="109.044" height="114.193" rx="8.42" transform="translate(0)" fill="#00a7e3"/>
      <path id="Trazado_105120" data-name="Trazado 105120" d="M127.44,399.31v.071a10.176,10.176,0,0,0,2.851,7.1,9.612,9.612,0,0,0,6.9,2.941h89.548a9.612,9.612,0,0,0,6.9-2.941,10.175,10.175,0,0,0,2.851-7.1v-.071Z" transform="translate(-127.44 -295.227)" fill="#045476" opacity="0.15"/>
      <rect id="Rectángulo_31686" data-name="Rectángulo 31686" width="44.328" height="114.193" rx="8.42" transform="translate(64.716)" fill="#0084b3" opacity="0.7"/>
      <rect id="Rectángulo_31687" data-name="Rectángulo 31687" width="33.909" height="103.475" rx="3.92" transform="translate(69.925 5.359)" fill="#fff" opacity="0.3"/>
      <rect id="Rectángulo_31688" data-name="Rectángulo 31688" width="27.206" height="7.443" transform="translate(73.283 12.802)" fill="#fff" opacity="0.7"/>
      <rect id="Rectángulo_31689" data-name="Rectángulo 31689" width="27.206" height="7.443" transform="translate(73.283 21.734)" fill="#fff" opacity="0.7"/>
      <ellipse id="Elipse_4096" data-name="Elipse 4096" cx="5.661" cy="5.823" rx="5.661" ry="5.823" transform="translate(81.224 51.267)" fill="#407bff"/>
      <g id="Grupo_90833" data-name="Grupo 90833" transform="translate(83.777 53.141)" opacity="0.9">
        <path id="Trazado_105121" data-name="Trazado 105121" d="M204.222,359.055a1.957,1.957,0,0,1,.409,2.091,1.845,1.845,0,0,1-3.446,0,1.957,1.957,0,0,1,.409-2.091c.533-.6-.336-1.5-.88-.893a3.257,3.257,0,0,0,0,4.514,3.042,3.042,0,0,0,4.388,0,3.257,3.257,0,0,0,0-4.514C204.557,357.555,203.689,358.46,204.222,359.055Z" transform="translate(-199.805 -356.261)" fill="#fff"/>
        <path id="Trazado_105122" data-name="Trazado 105122" d="M202,357.089v2.906a.623.623,0,0,0,1.239,0v-2.906a.623.623,0,0,0-1.239,0Z" transform="translate(-199.459 -356.533)" fill="#fff"/>
      </g>
      <ellipse id="Elipse_4097" data-name="Elipse 4097" cx="1.737" cy="1.786" rx="1.737" ry="1.786" transform="translate(74.417 72.548)" fill="#407bff"/>
      <ellipse id="Elipse_4098" data-name="Elipse 4098" cx="1.737" cy="1.786" rx="1.737" ry="1.786" transform="translate(81.572 72.548)" fill="#407bff"/>
      <ellipse id="Elipse_4099" data-name="Elipse 4099" cx="1.737" cy="1.786" rx="1.737" ry="1.786" transform="translate(88.726 72.548)" fill="#407bff"/>
      <ellipse id="Elipse_4100" data-name="Elipse 4100" cx="1.737" cy="1.786" rx="1.737" ry="1.786" transform="translate(95.881 72.548)" fill="#407bff"/>
      <ellipse id="Elipse_4101" data-name="Elipse 4101" cx="1.737" cy="1.786" rx="1.737" ry="1.786" transform="translate(77.994 78.896)" fill="#407bff"/>
      <ellipse id="Elipse_4102" data-name="Elipse 4102" cx="1.737" cy="1.786" rx="1.737" ry="1.786" transform="translate(85.149 78.896)" fill="#407bff"/>
      <ellipse id="Elipse_4103" data-name="Elipse 4103" cx="1.737" cy="1.786" rx="1.737" ry="1.786" transform="translate(92.304 78.896)" fill="#407bff"/>
      <ellipse id="Elipse_4104" data-name="Elipse 4104" cx="1.737" cy="1.786" rx="1.737" ry="1.786" transform="translate(74.417 85.934)" fill="#407bff"/>
      <ellipse id="Elipse_4105" data-name="Elipse 4105" cx="1.737" cy="1.786" rx="1.737" ry="1.786" transform="translate(81.572 85.934)" fill="#407bff"/>
      <ellipse id="Elipse_4106" data-name="Elipse 4106" cx="1.737" cy="1.786" rx="1.737" ry="1.786" transform="translate(88.726 85.934)" fill="#407bff"/>
      <ellipse id="Elipse_4107" data-name="Elipse 4107" cx="1.737" cy="1.786" rx="1.737" ry="1.786" transform="translate(95.881 85.934)" fill="#407bff"/>
      <ellipse id="Elipse_4108" data-name="Elipse 4108" cx="1.737" cy="1.786" rx="1.737" ry="1.786" transform="translate(77.994 92.281)" fill="#407bff"/>
      <ellipse id="Elipse_4109" data-name="Elipse 4109" cx="1.737" cy="1.786" rx="1.737" ry="1.786" transform="translate(85.149 92.281)" fill="#407bff"/>
      <ellipse id="Elipse_4110" data-name="Elipse 4110" cx="1.737" cy="1.786" rx="1.737" ry="1.786" transform="translate(92.304 92.281)" fill="#407bff"/>
      <ellipse id="Elipse_4111" data-name="Elipse 4111" cx="1.737" cy="1.786" rx="1.737" ry="1.786" transform="translate(74.417 99.319)" fill="#407bff"/>
      <ellipse id="Elipse_4112" data-name="Elipse 4112" cx="1.737" cy="1.786" rx="1.737" ry="1.786" transform="translate(81.572 99.319)" fill="#407bff"/>
      <ellipse id="Elipse_4113" data-name="Elipse 4113" cx="1.737" cy="1.786" rx="1.737" ry="1.786" transform="translate(88.726 99.319)" fill="#407bff"/>
      <ellipse id="Elipse_4114" data-name="Elipse 4114" cx="1.737" cy="1.786" rx="1.737" ry="1.786" transform="translate(95.881 99.319)" fill="#407bff"/>
    </g>
    <g id="freepik--Character--inject-145" transform="translate(324.971 188.821)">
      <path id="Trazado_105123" data-name="Trazado 105123" d="M332.412,272.2l-6.946-3.239-9.806,4.2v5.025s15.224-.524,15.212-.5,17.169,5.883,23.513,4.978,26.5-29.855,26.5-29.855l-10.153-9.134-19.31,28.307Z" transform="translate(-283.279 -173.895)" fill="#fcc1bb"/>
      <path id="Trazado_105124" data-name="Trazado 105124" d="M332.412,268.149l-6.946-3.239-9.806,4.2v5.026s15.224-.524,15.212-.5l1.158.393,4.909-5.954Z" transform="translate(-283.279 -169.842)" opacity="0.1"/>
      <path id="Trazado_105125" data-name="Trazado 105125" d="M357.33,253.857s7.016-12.838,11.508-16.91c2.721-2.477,6.518-3.239,9.076-3.465a2.731,2.731,0,0,1,2.108.74,2.9,2.9,0,0,1,.9,2.094c0,5.085-1.25,16.124-11.4,27.5Z" transform="translate(-276.708 -175.843)" fill="#263238"/>
      <path id="Trazado_105126" data-name="Trazado 105126" d="M357.57,248.56a36.574,36.574,0,0,1,13.51,12.278l-2.732,2.167a52.453,52.453,0,0,0-12.538-11.373Z" transform="translate(-276.947 -172.963)" fill="#407bff"/>
      <path id="Trazado_105127" data-name="Trazado 105127" d="M342.973,209.62l-3.473,5.6a4.689,4.689,0,0,0,4.33.441Z" transform="translate(-279.52 -180.396)" fill="#eb827e"/>
      <path id="Trazado_105128" data-name="Trazado 105128" d="M342.6,213.961a4.117,4.117,0,0,1-4.011-2.417,4.345,4.345,0,0,1,.71-4.725,4.053,4.053,0,0,1,4.533-1.057,4.251,4.251,0,0,1,2.622,3.948,4.074,4.074,0,0,1-3.855,4.251Zm0-7.6a3.26,3.26,0,0,0-3.228,1.866A3.445,3.445,0,0,0,339.9,212a3.214,3.214,0,0,0,3.607.859,3.37,3.37,0,0,0,2.083-3.149,3.193,3.193,0,0,0-2.987-3.346Z" transform="translate(-279.726 -181.188)" fill="#407bff"/>
      <path id="Trazado_105129" data-name="Trazado 105129" d="M340.7,209.208c0,.726.347,1.322.81,1.322s.868-.6.857-1.3-.347-1.322-.81-1.322S340.712,208.446,340.7,209.208Z" transform="translate(-279.33 -180.722)" fill="#1a2e35"/>
      <path id="Trazado_105130" data-name="Trazado 105130" d="M367.7,207.226c.313,9.61.648,13.683-3.589,19.054-6.715,5.692-17.933,6.359-21.035-2.965-2.778-8.336-2.825-22.627,5.927-27.39a12.426,12.426,0,0,1,12.431.289,13.17,13.17,0,0,1,6.266,11.048Z" transform="translate(-279.217 -183.301)" fill="#fcc1bb"/>
      <path id="Trazado_105131" data-name="Trazado 105131" d="M353.607,224.916l-.069-.476a1.744,1.744,0,0,0-.75-1.211,1.651,1.651,0,0,0-1.38-.218l-3.8,1.06A12.049,12.049,0,0,0,353.607,224.916Z" transform="translate(-278.241 -177.852)" fill="#1a2e35" opacity="0.2"/>
      <path id="Trazado_105132" data-name="Trazado 105132" d="M343.315,206.53a.331.331,0,0,1-.324-.131,2.872,2.872,0,0,0-2.408-1.108.365.365,0,0,1-.379-.13.39.39,0,0,1-.044-.409.369.369,0,0,1,.342-.212,3.579,3.579,0,0,1,3.056,1.37.4.4,0,0,1,0,.536h0A.318.318,0,0,1,343.315,206.53Z" transform="translate(-279.422 -181.367)" fill="#1a2e35"/>
      <path id="Trazado_105133" data-name="Trazado 105133" d="M352.49,223.01l2.049,14.267,11.589-2.465L362.411,220.2Z" transform="translate(-277.471 -178.376)" fill="#fcc1bb"/>
      <path id="Trazado_105134" data-name="Trazado 105134" d="M342.62,201.216c3.948,7.717,6.68.655,5.951,6.883s1.447,8.241,1.447,8.241l7.942,12.183a1.526,1.526,0,0,0,1.922.536,5.092,5.092,0,0,1,4.121-.417,1.415,1.415,0,0,0,1.517-.226,25.05,25.05,0,0,0,7.351-14.886c2.558-16.791-9.991-19.364-9.991-19.364-6.946-1.489-5.187-9.086-9.331-9.086-3.161,0-2.234,5.347-2.234,5.347s-3.38-2.608-5.349-1.715c-2.535,1.191-.289,6.49-.289,6.49S338.753,193.642,342.62,201.216Z" transform="translate(-279.213 -185.08)" fill="#1a2e35"/>
      <path id="Trazado_105135" data-name="Trazado 105135" d="M351.087,207.721H339.51l.556-1.191h11.021Z" transform="translate(-279.518 -180.986)" fill="#407bff"/>
      <path id="Trazado_105136" data-name="Trazado 105136" d="M347.476,209.243a7.565,7.565,0,0,0,1.158,5.526c1.47,2.132,3.809,1.191,4.747-1.084.845-2.06,1.088-5.621-1.042-6.943a3.174,3.174,0,0,0-3.087-.1A3.345,3.345,0,0,0,347.476,209.243Z" transform="translate(-278.28 -181.031)" fill="#ffc3bd"/>
      <path id="Trazado_105137" data-name="Trazado 105137" d="M349.79,231.231s7.444-7.241,15.247-6.645c5.3.393,6.946,7.241,6.946,7.241Z" transform="translate(-277.897 -177.546)" fill="#263238"/>
      <path id="Trazado_105138" data-name="Trazado 105138" d="M349.79,231.231s7.444-7.241,15.247-6.645c5.3.393,6.946,7.241,6.946,7.241Z" transform="translate(-277.897 -177.546)" fill="#fff" opacity="0.2"/>
      <path id="Trazado_105139" data-name="Trazado 105139" d="M356.368,317.933l-16.3-81.885a5.505,5.505,0,0,1,.89-4.388,5.2,5.2,0,0,1,3.811-2.174c10.223-.881,30.841-1.727,37.741,4.764,16.069,15.172,17.366,84.85,17.366,84.85Z" transform="translate(-279.451 -176.718)" fill="#263238"/>
      <path id="Trazado_105140" data-name="Trazado 105140" d="M344.588,233.838a14.038,14.038,0,0,0-4.318,2.787l5.36,26.938c4.793-11.039,4.457-29.772,4.457-29.772Z" transform="translate(-279.398 -175.782)" opacity="0.5"/>
      <path id="Trazado_105141" data-name="Trazado 105141" d="M304.326,271.788l-6.946-3.573-9.69,4.621v5.5s15.05-.572,15.05-.536,16.972,6.443,23.247,5.454,26.245-32.749,26.245-32.749L342.195,240.48l-19.1,31.07Z" transform="translate(-287.69 -174.505)" fill="#fcc1bb"/>
      <path id="Trazado_105142" data-name="Trazado 105142" d="M329,251.679s6.946-14.1,11.38-18.566,11.774-3.858,11.774-3.858,2.6,16.339-11.091,33.345Z" transform="translate(-281.175 -176.653)" fill="#263238"/>
      <path id="Trazado_105143" data-name="Trazado 105143" d="M329.23,245.85a37.476,37.476,0,0,1,13.406,13.469l-2.7,2.382s-5.511-7.931-12.4-12.48Z" transform="translate(-281.406 -173.48)" fill="#263238"/>
      <path id="Trazado_105144" data-name="Trazado 105144" d="M329.23,245.85a37.476,37.476,0,0,1,13.406,13.469l-2.7,2.382s-5.511-7.931-12.4-12.48Z" transform="translate(-281.406 -173.48)" fill="#fff" opacity="0.2"/>
      <path id="Trazado_105145" data-name="Trazado 105145" d="M350.08,378.827l3.971,19.769,7.826-1.191L359.99,378.16Z" transform="translate(-277.851 -148.225)" fill="#fcc1bb"/>
      <path id="Trazado_105146" data-name="Trazado 105146" d="M361.229,390.843,359.99,378.16l-9.91.667,2.478,12.361Z" transform="translate(-277.851 -148.225)" opacity="0.2"/>
      <path id="Trazado_105147" data-name="Trazado 105147" d="M398.6,303.16s3.983,21.436-9.62,21.436-31.7,4.573-31.7,4.573,5.21,5.085,6.367,69.952l-11.288.5s-18.755-73.215-15.05-81.265c5.21-11.325,32.184-15.2,32.184-15.2Z" transform="translate(-279.94 -162.541)" fill="#990f82"/>
      <path id="Trazado_105148" data-name="Trazado 105148" d="M398.6,303.16s3.983,21.436-9.62,21.436-31.7,4.573-31.7,4.573,5.21,5.085,6.367,69.952l-11.288.5s-18.755-73.215-15.05-81.265c5.21-11.325,32.184-15.2,32.184-15.2Z" transform="translate(-279.94 -162.541)" opacity="0.2"/>
      <path id="Trazado_105149" data-name="Trazado 105149" d="M348.18,381.3l15.351-.393-.5,6.55-12.874.56Z" transform="translate(-278.151 -147.701)" fill="#7b0c68"/>
      <path id="Trazado_105150" data-name="Trazado 105150" d="M348.18,381.3l15.351-.393-.5,6.55-12.874.56Z" transform="translate(-278.151 -147.701)" fill="#fff" opacity="0.5"/>
      <path id="Trazado_105151" data-name="Trazado 105151" d="M350.831,396.672a3.467,3.467,0,0,1-2.478-.345.792.792,0,0,1-.081-.869,1,1,0,0,1,.556-.536c1.308-.548,4.353.762,4.48.822a.2.2,0,0,1,0,.381,13.645,13.645,0,0,1-2.477.548Zm-1.493-1.477a1.235,1.235,0,0,0-.359.1.515.515,0,0,0-.347.333.49.49,0,0,0,0,.429c.44.5,2.5.262,3.994-.119A9.044,9.044,0,0,0,349.338,395.2Z" transform="translate(-278.151 -145.052)" fill="#407bff"/>
      <path id="Trazado_105152" data-name="Trazado 105152" d="M353.009,396.48h-.081c-1.03-.322-3.2-1.893-3.137-2.858,0-.238.127-.524.66-.655a1.425,1.425,0,0,1,1.158.214,5.812,5.812,0,0,1,1.644,3.084.206.206,0,0,1-.069.191.158.158,0,0,1-.174.024Zm-2.385-3.144h-.116c-.347.071-.347.214-.359.274,0,.572,1.47,1.834,2.547,2.322a4.708,4.708,0,0,0-1.378-2.382.974.974,0,0,0-.695-.167Z" transform="translate(-277.897 -145.407)" fill="#407bff"/>
      <path id="Trazado_105153" data-name="Trazado 105153" d="M354.766,395.017l8.891-1.1a.694.694,0,0,1,.764.488l2.477,7.24a1.222,1.222,0,0,1-.023.953,1.169,1.169,0,0,1-.7.631l-.243.06c-3.218.345-6.09.512-10.084,1.012-4.712.584-3.473,1.012-8.984,1.774-3.334.464-4.4-3.37-3-3.727,6.379-1.643,6.819-3.739,9.03-6.431A2.907,2.907,0,0,1,354.766,395.017Z" transform="translate(-278.925 -145.219)" fill="#00759f"/>
      <path id="Trazado_105154" data-name="Trazado 105154" d="M330.3,383.613l7.386,18.435,7.189-1.477-4.943-19.721Z" transform="translate(-280.97 -147.712)" fill="#fcc1bb"/>
      <path id="Trazado_105155" data-name="Trazado 105155" d="M343.22,394l-3.288-13.147-9.632,2.763,4.8,11.98Z" transform="translate(-280.97 -147.712)" opacity="0.2"/>
      <path id="Trazado_105156" data-name="Trazado 105156" d="M403.7,303.16s8.4,22.353-19.368,21.436c-10.639-.357-56.727,10.718-56.727,10.718s8.3,4.466,18.72,64.307l-11.785,2.751s-33.434-67.951-29.741-75.99c5.21-11.337,60.038-23.222,60.038-23.222Z" transform="translate(-285.037 -162.541)" fill="#990f82"/>
      <path id="Trazado_105157" data-name="Trazado 105157" d="M329.21,386.312,343.2,383.24l1.447,5.954-13.406,3.18Z" transform="translate(-281.142 -147.256)" fill="#7b0c68"/>
      <path id="Trazado_105158" data-name="Trazado 105158" d="M329.21,386.312,343.2,383.24l1.447,5.954-13.406,3.18Z" transform="translate(-281.142 -147.256)" fill="#fff" opacity="0.5"/>
      <path id="Trazado_105159" data-name="Trazado 105159" d="M333.2,399.663a3.388,3.388,0,0,1-2.466-.345.779.779,0,0,1-.093-.869,1.031,1.031,0,0,1,.556-.536c1.32-.56,4.353.762,4.492.822a.215.215,0,0,1,.116.191.237.237,0,0,1-.139.191,14.489,14.489,0,0,1-2.466.548Zm-1.482-1.477a1.313,1.313,0,0,0-.37.1.585.585,0,0,0-.347.321.52.52,0,0,0,0,.441c.452.5,2.5.262,3.994-.119a8.716,8.716,0,0,0-3.276-.738Z" transform="translate(-280.931 -144.482)" fill="#407bff"/>
      <path id="Trazado_105160" data-name="Trazado 105160" d="M335.377,399.47a.09.09,0,0,1-.081,0c-1.019-.322-3.2-1.905-3.126-2.87,0-.226.127-.524.648-.643a1.458,1.458,0,0,1,1.158.2,5.741,5.741,0,0,1,1.644,3.1.178.178,0,0,1-.243.214Zm-2.385-3.156h-.116c-.336.071-.347.214-.359.274,0,.572,1.47,1.834,2.559,2.322a4.794,4.794,0,0,0-1.389-2.441,1.132,1.132,0,0,0-.695-.167Z" transform="translate(-280.676 -144.837)" fill="#407bff"/>
      <path id="Trazado_105161" data-name="Trazado 105161" d="M337.135,398.008l8.9-1.108a.728.728,0,0,1,.764.488l2.478,7.252a1.222,1.222,0,0,1-.027.957,1.168,1.168,0,0,1-.7.627h-.243c-3.218.333-6.09.512-10.084,1-4.712.584-3.473,1.024-8.972,1.786-3.334.453-4.4-3.37-3.01-3.739,6.379-1.632,6.819-3.727,9.042-6.431a2.777,2.777,0,0,1,1.852-.834Z" transform="translate(-281.704 -144.649)" fill="#00759f"/>
      <path id="Trazado_105162" data-name="Trazado 105162" d="M421.409,394.662c-7.074-1.191-17.574-2.882-22.251-3.239-1.019-.083-2.315-.143-3.728-.179V353.91h-8.88v37.334c-1.424,0-2.709.1-3.739.179-4.631.357-15.166,2.048-22.239,3.239a8.613,8.613,0,0,0-7.062,8.562v1.893h8.671l1.158-2.656s16.208-2.882,21.672-3.3a107.5,107.5,0,0,1,12.075,0c5.464.417,21.661,3.3,21.661,3.3l1.158,2.656h8.625v-1.893a8.611,8.611,0,0,0-7.12-8.562Z" transform="translate(-277.31 -152.854)" fill="#263238"/>
      <path id="Trazado_105163" data-name="Trazado 105163" d="M421.409,394.662c-7.074-1.191-17.574-2.882-22.251-3.239-1.019-.083-2.315-.143-3.728-.179V353.91h-8.88v37.334c-1.424,0-2.709.1-3.739.179-4.631.357-15.166,2.048-22.239,3.239a8.613,8.613,0,0,0-7.062,8.562v1.893h8.671l1.158-2.656s16.208-2.882,21.672-3.3a107.5,107.5,0,0,1,12.075,0c5.464.417,21.661,3.3,21.661,3.3l1.158,2.656h8.625v-1.893a8.611,8.611,0,0,0-7.12-8.562Z" transform="translate(-277.31 -152.854)" fill="#fff" opacity="0.1"/>
      <path id="Trazado_105164" data-name="Trazado 105164" d="M379.728,328.34h14.217V359.9a4.193,4.193,0,0,1-4.133,4.251H383.8a4.194,4.194,0,0,1-4.133-4.251V328.34Z" transform="translate(-273.185 -157.735)" fill="#263238"/>
      <rect id="Rectángulo_31690" data-name="Rectángulo 31690" width="14.274" height="8.717" transform="translate(106.543 170.605)" opacity="0.2"/>
      <ellipse id="Elipse_4115" data-name="Elipse 4115" cx="6.078" cy="6.252" rx="6.078" ry="6.252" transform="translate(141.471 252.263)" fill="#263238"/>
      <ellipse id="Elipse_4116" data-name="Elipse 4116" cx="6.078" cy="6.252" rx="6.078" ry="6.252" transform="translate(73.734 252.263)" fill="#263238"/>
      <path id="Trazado_105165" data-name="Trazado 105165" d="M442.5,322.708a114.689,114.689,0,0,0-26.037-3.692c-9.042-.226-42.835,0-50.939,0a114.655,114.655,0,0,0-29.024,3.692c-5.962,1.56-4.121,10.42,1.262,10.527H440.917C446.544,333.485,448.593,324.3,442.5,322.708Z" transform="translate(-280.576 -159.534)" fill="#00a7e3"/>
      <path id="Trazado_105166" data-name="Trazado 105166" d="M442.5,322.708a114.689,114.689,0,0,0-26.037-3.692c-9.042-.226-42.835,0-50.939,0a114.655,114.655,0,0,0-29.024,3.692c-5.962,1.56-4.121,10.42,1.262,10.527H440.917C446.544,333.485,448.593,324.3,442.5,322.708Z" transform="translate(-280.576 -159.534)" opacity="0.3"/>
      <path id="Trazado_105167" data-name="Trazado 105167" d="M339.262,333.035a103.746,103.746,0,0,1,52.571,0c6.506,1.7,9.262-8.634,2.767-10.337a114.9,114.9,0,0,0-58.105,0c-6.495,1.7-3.739,12.04,2.767,10.337Z" transform="translate(-280.578 -159.524)" fill="#00a7e3"/>
      <g id="Grupo_90834" data-name="Grupo 90834" transform="translate(52.211 159.44)" opacity="0.4">
        <path id="Trazado_105168" data-name="Trazado 105168" d="M339.262,333.035a103.746,103.746,0,0,1,52.571,0c6.506,1.7,9.262-8.634,2.767-10.337a114.9,114.9,0,0,0-58.105,0c-6.495,1.7-3.739,12.04,2.767,10.337Z" transform="translate(-332.789 -318.965)" fill="#fff"/>
      </g>
      <path id="Trazado_105169" data-name="Trazado 105169" d="M406.447,257.7a3.18,3.18,0,0,0-2.871,1.7,117.1,117.1,0,0,0-13.892,78.955,2.848,2.848,0,0,0,2.674,2.572c2.1.155,39.234,0,40.52,0a3.694,3.694,0,0,0,2.911-1.326,3.924,3.924,0,0,0,.863-3.152A109.38,109.38,0,0,1,449.872,263a3.547,3.547,0,0,0-3.114-5.311C445.7,257.678,408.855,257.75,406.447,257.7Z" transform="translate(-271.887 -171.221)" fill="#00a7e3"/>
      <path id="Trazado_105170" data-name="Trazado 105170" d="M406.447,257.7a3.18,3.18,0,0,0-2.871,1.7,117.1,117.1,0,0,0-13.892,78.955,2.848,2.848,0,0,0,2.674,2.572c2.1.155,39.234,0,40.52,0a3.694,3.694,0,0,0,2.911-1.326,3.924,3.924,0,0,0,.863-3.152A109.38,109.38,0,0,1,449.872,263a3.547,3.547,0,0,0-3.114-5.311C445.7,257.678,408.855,257.75,406.447,257.7Z" transform="translate(-271.887 -171.221)" opacity="0.2"/>
      <path id="Trazado_105171" data-name="Trazado 105171" d="M396.352,336.463a109.307,109.307,0,0,1,13.221-73.453c2.315-3.954-3.693-7.55-6-3.573a117.1,117.1,0,0,0-13.892,78.955c.8,4.525,7.49,2.608,6.7-1.894Z" transform="translate(-271.887 -171.217)" fill="#00a7e3"/>
      <g id="Grupo_90835" data-name="Grupo 90835" transform="translate(116.01 86.49)" opacity="0.4">
        <path id="Trazado_105172" data-name="Trazado 105172" d="M396.352,336.463a109.307,109.307,0,0,1,13.221-73.453c2.315-3.954-3.693-7.55-6-3.573a117.1,117.1,0,0,0-13.892,78.955c.8,4.525,7.49,2.608,6.7-1.894Z" transform="translate(-387.897 -257.707)" fill="#fff"/>
      </g>
      <path id="Trazado_105173" data-name="Trazado 105173" d="M356.022,298.477l35.785,33.642c2.466,2.382,6.171-1.453,3.681-3.787L359.7,294.667c-2.466-2.322-6.159,1.453-3.681,3.787Z" transform="translate(-277.043 -164.301)" fill="#263238"/>
      <g id="Grupo_90836" data-name="Grupo 90836" transform="translate(78.158 129.638)" opacity="0.5">
        <path id="Trazado_105174" data-name="Trazado 105174" d="M356.022,298.477l35.785,33.642c2.466,2.382,6.171-1.453,3.681-3.787L359.7,294.667c-2.466-2.322-6.159,1.453-3.681,3.787Z" transform="translate(-355.201 -293.939)" fill="#fff"/>
      </g>
      <path id="Trazado_105175" data-name="Trazado 105175" d="M359.7,294.687c-2.466-2.322-6.159,1.453-3.681,3.787l6.842,6.443h7.71Z" transform="translate(-277.043 -164.298)" opacity="0.2"/>
      <path id="Trazado_105176" data-name="Trazado 105176" d="M340.247,300.305h49.11c4.469,0,4.469-7.145,0-7.145h-49.11C335.778,293.16,335.767,300.305,340.247,300.305Z" transform="translate(-279.931 -164.45)" fill="#407bff"/>
      <g id="Grupo_90837" data-name="Grupo 90837" transform="translate(56.96 128.71)" opacity="0.3">
        <path id="Trazado_105177" data-name="Trazado 105177" d="M340.247,300.305h49.11c4.469,0,4.469-7.145,0-7.145h-49.11C335.778,293.16,335.767,300.305,340.247,300.305Z" transform="translate(-336.891 -293.16)" fill="#fff"/>
      </g>
    </g>
    <path id="Trazado_105194" data-name="Trazado 105194" d="M174.169,256.784l22.61-67.082-1.03-12.111-25.122-2.251L144.08,254.093Z" transform="translate(14.633 1.882)" fill="#fff" opacity="0.5"/>
  </g>
</svg>
