<svg xmlns="http://www.w3.org/2000/svg" width="140" height="140" viewBox="0 0 140 140">
  <g id="Grupo_90716" data-name="Grupo 90716" transform="translate(-871.07 427.288)">
    <circle id="Elipse_4066" data-name="Elipse 4066" cx="40.31" cy="40.31" r="40.31" transform="translate(900.378 -397.598)" fill="#fff"/>
    <path id="Trazado_104734" data-name="Trazado 104734" d="M988.551-218.8a40.313,40.313,0,0,1-40.065-35.867,40.756,40.756,0,0,0-.245,4.442,40.31,40.31,0,0,0,40.31,40.31,40.31,40.31,0,0,0,40.31-40.31,40.742,40.742,0,0,0-.245-4.442A40.314,40.314,0,0,1,988.551-218.8Z" transform="translate(-47.864 -107.066)" fill="#def0fb"/>
    <g id="Grupo_90711" data-name="Grupo 90711" transform="translate(898.481 -399.876)">
      <path id="Trazado_104735" data-name="Trazado 104735" d="M985.836-269.932a42.637,42.637,0,0,1-42.589-42.588,43.008,43.008,0,0,1,.617-7.261,2.277,2.277,0,0,1,2.631-1.86,2.279,2.279,0,0,1,1.86,2.632,38.426,38.426,0,0,0-.551,6.489,38.074,38.074,0,0,0,38.031,38.031,38.074,38.074,0,0,0,38.031-38.031,38.074,38.074,0,0,0-38.031-38.031A37.79,37.79,0,0,0,951.6-329.105a2.279,2.279,0,0,1-3.045,1.055A2.278,2.278,0,0,1,947.5-331.1a42.7,42.7,0,0,1,15.429-17.336,42.452,42.452,0,0,1,22.906-6.678,42.636,42.636,0,0,1,42.588,42.588A42.636,42.636,0,0,1,985.836-269.932Z" transform="translate(-943.247 355.109)"/>
    </g>
    <path id="Trazado_104611" data-name="Trazado 104611" d="M1022.809-255.336a4.648,4.648,0,0,1-3.5,1.794h-.174a4.649,4.649,0,0,1-3.449-1.532l-13.242-14.654a4.648,4.648,0,0,1,.332-6.566,4.648,4.648,0,0,1,6.566.332h0l9.522,10.535,15.2-19.558a4.648,4.648,0,0,1,6.511-.905,4.648,4.648,0,0,1,.9,6.512c-.024.032-.049.064-.074.1Z" transform="translate(-80.738 -87.115)" fill="#00a7e3"/>
    <path id="Trazado_104620" data-name="Trazado 104620" d="M1032.082-278.568a2.113,2.113,0,0,0,.344,2.968,2.113,2.113,0,0,0,2.968-.344l.025-.032,4.187-5.386a6.762,6.762,0,0,0-1.194-9.488,6.762,6.762,0,0,0-9.487,1.194l-13.654,17.575-7.832-8.665a6.761,6.761,0,0,0-9.55-.482,6.762,6.762,0,0,0-.482,9.55l13.242,14.653a6.8,6.8,0,0,0,9.612.41,6.765,6.765,0,0,0,.744-.8l8.363-10.77a2.113,2.113,0,0,0-.4-2.961,2.113,2.113,0,0,0-2.936.369l-8.363,10.77a2.551,2.551,0,0,1-3.583.423,2.549,2.549,0,0,1-.3-.278l-13.242-14.653a2.537,2.537,0,0,1,.181-3.582,2.536,2.536,0,0,1,3.582.181h0l9.522,10.536a2.129,2.129,0,0,0,3.008.125,2.1,2.1,0,0,0,.229-.247l15.193-19.566a2.541,2.541,0,0,1,3.566-.443,2.541,2.541,0,0,1,.443,3.566h0Z" transform="translate(-77.275 -83.741)"/>
    <g id="Grupo_90712" data-name="Grupo 90712" transform="translate(871.07 -359.401)">
      <path id="Trazado_104614" data-name="Trazado 104614" d="M887.431-248.532H873.186a2.113,2.113,0,0,0-2.116,2.11,2.113,2.113,0,0,0,2.11,2.116h14.252a2.113,2.113,0,0,0,2.11-2.116A2.113,2.113,0,0,0,887.431-248.532Z" transform="translate(-871.07 248.532)"/>
      <path id="Trazado_104617" data-name="Trazado 104617" d="M1207.417-248.532h-14.245a2.113,2.113,0,0,0-2.116,2.11,2.113,2.113,0,0,0,2.109,2.116h14.252a2.113,2.113,0,0,0,2.117-2.11,2.114,2.114,0,0,0-2.11-2.116Z" transform="translate(-1069.533 248.532)"/>
    </g>
    <g id="Grupo_90713" data-name="Grupo 90713" transform="translate(938.957 -427.288)">
      <path id="Trazado_104614-2" data-name="Trazado 104614" d="M1054.052-410.926v-14.245a2.113,2.113,0,0,0-2.11-2.117,2.113,2.113,0,0,0-2.117,2.11v14.252a2.113,2.113,0,0,0,2.117,2.109A2.113,2.113,0,0,0,1054.052-410.926Z" transform="translate(-1049.826 427.288)"/>
      <path id="Trazado_104617-2" data-name="Trazado 104617" d="M1054.052-90.942v-14.245a2.113,2.113,0,0,0-2.11-2.116,2.113,2.113,0,0,0-2.117,2.11v14.252a2.113,2.113,0,0,0,2.11,2.116,2.113,2.113,0,0,0,2.117-2.11Z" transform="translate(-1049.826 228.825)"/>
    </g>
    <g id="Grupo_90714" data-name="Grupo 90714" transform="translate(890.954 -407.404)">
      <path id="Trazado_104614-3" data-name="Trazado 104614" d="M1153.307-361.249l10.073-10.073a2.113,2.113,0,0,0,.005-2.988,2.113,2.113,0,0,0-2.988,0l0,0-10.073,10.073a2.113,2.113,0,0,0,0,2.988A2.113,2.113,0,0,0,1153.307-361.249Z" transform="translate(-1063.769 374.931)"/>
      <path id="Trazado_104617-3" data-name="Trazado 104617" d="M927.036-134.985l10.073-10.073a2.113,2.113,0,0,0,0-2.988,2.113,2.113,0,0,0-2.988,0l0,0-10.073,10.073a2.113,2.113,0,0,0,0,2.988,2.113,2.113,0,0,0,2.988,0Z" transform="translate(-923.426 234.597)"/>
    </g>
    <g id="Grupo_90715" data-name="Grupo 90715" transform="translate(890.954 -407.404)">
      <path id="Trazado_104614-4" data-name="Trazado 104614" d="M937.109-364.237,927.036-374.31a2.113,2.113,0,0,0-2.988,0,2.112,2.112,0,0,0,0,2.988l0,0,10.073,10.073a2.113,2.113,0,0,0,2.988,0A2.113,2.113,0,0,0,937.109-364.237Z" transform="translate(-923.426 374.931)"/>
      <path id="Trazado_104617-4" data-name="Trazado 104617" d="M1163.372-137.974,1153.3-148.047a2.113,2.113,0,0,0-2.988,0,2.113,2.113,0,0,0-.005,2.988l.005,0,10.073,10.073a2.113,2.113,0,0,0,2.988,0,2.113,2.113,0,0,0,0-2.988Z" transform="translate(-1063.761 234.597)"/>
    </g>
  </g>
</svg>
