<svg xmlns="http://www.w3.org/2000/svg" xmlns:xlink="http://www.w3.org/1999/xlink" width="400" height="280" viewBox="0 0 400 280">
  <defs>
    <clipPath id="clip-path">
      <rect id="Rectángulo_31075" data-name="Rectángulo 31075" width="400" height="280" transform="translate(180 6457)" fill="#990f82"/>
    </clipPath>
  </defs>
  <g id="Enmascarar_grupo_48" data-name="Enmascarar grupo 48" transform="translate(-180 -6457)" clip-path="url(#clip-path)">
    <g id="Analyze-rafiki" transform="translate(123.89 6380.941)">
      <g id="freepik--Shadow--inject-24" transform="translate(56.11 414.716)">
        <ellipse id="freepik--path--inject-24" cx="200" cy="11.677" rx="200" ry="11.677" fill="#f5f5f5"/>
      </g>
      <g id="freepik--News--inject-24" transform="translate(327.326 111.4)">
        <g id="freepik--monitor-screen--inject-24">
          <g id="freepik--PC--inject-24">
            <path id="Trazado_103921" data-name="Trazado 103921" d="M427.194,185.61l-108.154-.619,6.973-74.671,108.144.629Z" transform="translate(-319.04 -110.32)" fill="#990f82"/>
          </g>
        </g>
        <path id="Trazado_103922" data-name="Trazado 103922" d="M326.013,110.32l-6.973,74.671,108.154.619,6.963-74.661Z" transform="translate(-319.04 -110.32)" fill="#fff" opacity="0.5"/>
        <g id="Grupo_90655" data-name="Grupo 90655" transform="translate(7.695 16.032)" opacity="0.2">
          <path id="Trazado_103923" data-name="Trazado 103923" d="M350.741,149.657a20.3,20.3,0,0,0-2.641-.908,14.05,14.05,0,0,0-1.589-.34,2.352,2.352,0,0,1-.609-1.919,8.061,8.061,0,0,1,.526-1.413l-.1-.072a7.221,7.221,0,0,0,4.848-4.559,26.1,26.1,0,0,0,1.135-5.385c0-.268-.248-1.2-.206-1.465s.32-.9.351-1.124a7.489,7.489,0,0,0-.536-4.209c-.949-1.537-2.4-2.249-5.591-2.383-3.982-.186-7.128,1.032-7.582,3.373-2.259,11.553,1.186,13.245,2.063,14.225a7.87,7.87,0,0,1-1.815,5.023,13.72,13.72,0,0,0-4.054,1.4c-.887.475-4.477,2.311-5.013,3.156-1.908,3.095-3.425,10.129-3.425,10.129l30.419.155V156a8.879,8.879,0,0,0-.67-1.692,10.686,10.686,0,0,0-5.508-4.652Z" transform="translate(-326.5 -125.862)"/>
        </g>
        <path id="Trazado_103924" data-name="Trazado 103924" d="M340.6,180.109H324.22l1.341-15.359h16.267Z" transform="translate(-318.877 -108.605)" fill="#fff"/>
        <path id="Trazado_103925" data-name="Trazado 103925" d="M342.27,164.75h43.963l-1.341,15.359h-43.6Z" transform="translate(-318.339 -108.605)" opacity="0.1"/>
        <path id="Trazado_103926" data-name="Trazado 103926" d="M423.068,162.925h-59.5l3.569-40.765h59.5Z" transform="translate(-317.637 -109.947)" fill="#fff" opacity="0.3"/>
        <g id="Grupo_90656" data-name="Grupo 90656" transform="translate(51.77 21.38)" opacity="0.2">
          <path id="Trazado_103927" data-name="Trazado 103927" d="M419.867,154.228a1.537,1.537,0,0,1-.557-.113,3.2,3.2,0,0,1-1.589-3.218,13.521,13.521,0,0,1,.175-1.465,8.58,8.58,0,0,0,.165-2.063c-.083-1.083-.815-2.259-1.857-2.28a2.176,2.176,0,0,0-1.919,1.681,7.541,7.541,0,0,0-.289,1.95,4.443,4.443,0,0,1-.082,1.032,3.683,3.683,0,0,1-1.454,2.754,2.063,2.063,0,0,1-1.877.083,1.506,1.506,0,0,1-.774-.784l-1.537.918a.206.206,0,0,1-.175,0,.2.2,0,0,1-.145-.113,16.494,16.494,0,0,1-.763-1.815,1.032,1.032,0,0,0-1.032-.7h0a1.031,1.031,0,0,0-1.031.743l-.9,2.764a.217.217,0,0,1-.206.155h0a.237.237,0,0,1-.217-.155l-.433-1.238a1.577,1.577,0,0,1-.268.32,1.465,1.465,0,0,1-1.032.382,1.444,1.444,0,0,1-1.031-.516,1.505,1.505,0,0,1-.227-.361,1.783,1.783,0,0,1-.3.237,1.3,1.3,0,0,1-1.031.144,1.32,1.32,0,0,1-.774-.753.361.361,0,0,0-.619-.361,1.805,1.805,0,0,1-1.424-.774,2.857,2.857,0,0,1-.392-1.238,2.435,2.435,0,0,1-.433.34,2.785,2.785,0,0,1-2.806,0c-1.32-.846-1.846-2.465-2.269-4.044l-2.62-9.872a7.911,7.911,0,0,0-1.083-2.7,2.579,2.579,0,0,0-2.362-1.135,4.21,4.21,0,0,0-.866.32,3.528,3.528,0,0,1-1.186.361,1.372,1.372,0,0,1-1.279-.681v-.1l-2.414,2.28a.227.227,0,0,1-.3,0,.237.237,0,0,1,0-.3.237.237,0,0,0,0-.32.712.712,0,0,0-.732-.248,2.156,2.156,0,0,0-.908.8c-.1.124-.2.248-.3.361a1.454,1.454,0,0,1-1.888.454,1.671,1.671,0,0,1-.371-.454,1.576,1.576,0,0,0-.144-.217,1.6,1.6,0,0,0-2.063-.2,5.158,5.158,0,0,0-1.609,1.857.2.2,0,0,1-.175.1.237.237,0,0,1-.2-.093l-.97-1.372a.227.227,0,1,1,.361-.258l.784,1.093a4.941,4.941,0,0,1,1.578-1.723,1.888,1.888,0,0,1,2.806.567,1.279,1.279,0,0,0,.258.34c.382.289.98-.052,1.289-.4q.134-.155.279-.34a2.62,2.62,0,0,1,1.114-.949,1.155,1.155,0,0,1,1.228.4.847.847,0,0,1,.113.175l2.517-2.383a.217.217,0,0,1,.309,0,.227.227,0,0,1,0,.309.33.33,0,0,0-.062.4,1.032,1.032,0,0,0,.866.536,3.1,3.1,0,0,0,1.032-.33,4.507,4.507,0,0,1,.97-.34A2.96,2.96,0,0,1,387.55,133a8.251,8.251,0,0,1,1.155,2.847l2.62,9.872c.413,1.558.887,3.022,2.063,3.775a2.321,2.321,0,0,0,2.341,0,1.434,1.434,0,0,0,.66-.815v-.454a.227.227,0,0,1,.217-.206h0a.237.237,0,0,1,.227.206,1.724,1.724,0,0,1,0,.516,2.939,2.939,0,0,0,.33,1.795,1.331,1.331,0,0,0,1.031.567h0a.722.722,0,0,0,.629-.3.227.227,0,0,1,.3-.062.217.217,0,0,1,.082.3.866.866,0,0,0,0,.7.846.846,0,0,0,1.609-.186.227.227,0,0,1,.247-.186.217.217,0,0,1,.186.248,1,1,0,1,0,1.991.134.217.217,0,0,1,.186-.217.227.227,0,0,1,.248.144l.433,1.248.691-2.135a1.527,1.527,0,0,1,1.444-1.032h0a1.475,1.475,0,0,1,1.413,1.032c.2.526.413,1.032.65,1.558l1.578-.949a.229.229,0,0,1,.33.175,1.032,1.032,0,0,0,.609.743,1.537,1.537,0,0,0,1.454-.052,3.259,3.259,0,0,0,1.248-2.434c0-.32.062-.64.082-.959a8.409,8.409,0,0,1,.309-2.063,2.641,2.641,0,0,1,2.362-1.991,2.723,2.723,0,0,1,2.28,2.7,8.574,8.574,0,0,1-.165,2.125,11.412,11.412,0,0,0-.175,1.424,2.775,2.775,0,0,0,1.31,2.785,1.4,1.4,0,0,0,1.527-.505.825.825,0,0,0,.113-1.031.227.227,0,1,1,.361-.258,1.227,1.227,0,0,1-.124,1.537,1.96,1.96,0,0,1-1.537.629Z" transform="translate(-369.228 -131.047)"/>
        </g>
        <g id="Grupo_90657" data-name="Grupo 90657" transform="translate(70.473 60.403)" opacity="0.1">
          <path id="Trazado_103928" data-name="Trazado 103928" d="M395.416,169,394,176.056h-1.64l-2.28-3.848-.774,3.868h-1.95l1.4-7.056h1.65l2.331,3.858.763-3.858Z" transform="translate(-387.36 -168.874)"/>
          <path id="Trazado_103929" data-name="Trazado 103929" d="M398.243,170.567l-.237,1.186H401.1l-.289,1.485h-3.146l-.248,1.289h3.765l-.32,1.547H395.21l1.413-7.056h5.519l-.32,1.547Z" transform="translate(-387.113 -168.873)"/>
          <path id="Trazado_103930" data-name="Trazado 103930" d="M414.085,169l-3.693,7.056h-2.135l-.516-4.25-2.249,4.25h-2.146L402.48,169h1.97l.536,4.508L407.369,169h1.836l.5,4.57,2.4-4.57Z" transform="translate(-386.883 -168.874)"/>
          <path id="Trazado_103931" data-name="Trazado 103931" d="M412.75,175.461l.794-1.485a4.394,4.394,0,0,0,2.342.691c.763,0,1.207-.237,1.207-.619,0-.949-3.425-.433-3.425-2.641,0-1.527,1.3-2.527,3.383-2.527a4.982,4.982,0,0,1,2.548.609l-.732,1.485a3.528,3.528,0,0,0-1.929-.536c-.825,0-1.269.3-1.269.681,0,.97,3.425.413,3.425,2.589,0,1.516-1.331,2.507-3.394,2.507a5.529,5.529,0,0,1-2.95-.753Z" transform="translate(-386.56 -168.878)"/>
        </g>
      </g>
      <g id="freepik--Document--inject-24" transform="translate(224.291 78.288)">
        <path id="Trazado_103932" data-name="Trazado 103932" d="M271.778,94.35l-4.3,49.77a1.289,1.289,0,0,1-1.258,1.166l-46.026.083a1.031,1.031,0,0,1-1.032-1.155l5.55-64.738a1.289,1.289,0,0,1,1.258-1.166h31.007Z" transform="translate(-219.153 -78.217)" fill="#00a7e3"/>
        <g id="Grupo_90658" data-name="Grupo 90658" transform="translate(0 0.093)" opacity="0.5">
          <path id="Trazado_103933" data-name="Trazado 103933" d="M271.778,94.35l-4.3,49.77a1.289,1.289,0,0,1-1.258,1.166l-46.026.083a1.031,1.031,0,0,1-1.032-1.155l5.55-64.738a1.289,1.289,0,0,1,1.258-1.166h31.007Z" transform="translate(-219.153 -78.31)" fill="#fff"/>
        </g>
        <path id="Trazado_103934" data-name="Trazado 103934" d="M262.244,108.41l-32.493.155a1.031,1.031,0,0,0-1.032.918v.3a.825.825,0,0,0,.846.908l32.493-.155a1.032,1.032,0,0,0,1.032-.918v-.3a.825.825,0,0,0-.846-.908Z" transform="translate(-218.851 -77.269)" opacity="0.2"/>
        <path id="Trazado_103935" data-name="Trazado 103935" d="M261.545,116.84l-32.513.165a1.031,1.031,0,0,0-1.032.918v.3a.815.815,0,0,0,.836.908l32.493-.155a1.032,1.032,0,0,0,1.032-.918v-.3a.825.825,0,0,0-.815-.918Z" transform="translate(-218.874 -77.003)" opacity="0.2"/>
        <path id="Trazado_103936" data-name="Trazado 103936" d="M260.844,125.26l-32.493.155a1.032,1.032,0,0,0-1.032.918v.3a.825.825,0,0,0,.836.918l32.493-.165a1.032,1.032,0,0,0,1.032-.918v-.3a.825.825,0,0,0-.835-.908Z" transform="translate(-218.896 -76.738)" opacity="0.2"/>
        <path id="Trazado_103937" data-name="Trazado 103937" d="M255.889,78.22,254.61,93.239a1.032,1.032,0,0,0,1.032,1.155h14.967Z" transform="translate(-218.036 -78.22)" fill="#00a7e3"/>
        <path id="Trazado_103938" data-name="Trazado 103938" d="M255.889,78.22,254.61,93.239a1.032,1.032,0,0,0,1.032,1.155h14.967Z" transform="translate(-218.036 -78.22)" fill="#fff" opacity="0.7"/>
      </g>
      <g id="freepik--Info--inject-24" transform="translate(69.191 76.058)">
        <g id="Grupo_90659" data-name="Grupo 90659" opacity="0.7">
          <path id="Trazado_103939" data-name="Trazado 103939" d="M130.227,181.6H84.407a15.339,15.339,0,0,1-15.524-17.01L75.134,93.08A18.949,18.949,0,0,1,93.639,76.06h45.82a15.339,15.339,0,0,1,15.473,17.02l-6.261,71.515a18.928,18.928,0,0,1-18.443,17.01Z" transform="translate(-68.791 -76.058)" fill="#990f82"/>
          <path id="Trazado_103940" data-name="Trazado 103940" d="M130.227,181.6H84.407a15.339,15.339,0,0,1-15.524-17.01L75.134,93.08A18.949,18.949,0,0,1,93.639,76.06h45.82a15.339,15.339,0,0,1,15.473,17.02l-6.261,71.515a18.928,18.928,0,0,1-18.443,17.01Z" transform="translate(-68.791 -76.058)" fill="#fff" opacity="0.5"/>
        </g>
        <path id="Trazado_103941" data-name="Trazado 103941" d="M129.427,169.189H92.4a2.754,2.754,0,0,1-2.785-3.095h0A3.4,3.4,0,0,1,92.932,163h37.031a2.754,2.754,0,0,1,2.785,3.095h0A3.4,3.4,0,0,1,129.427,169.189Z" transform="translate(-68.136 -73.319)" fill="#fff"/>
        <path id="Trazado_103942" data-name="Trazado 103942" d="M132.975,124.589h-25.52a2.744,2.744,0,0,1-2.785-3.095h0a3.394,3.394,0,0,1,3.321-3.095h25.52a2.754,2.754,0,0,1,2.785,3.095h0a3.4,3.4,0,0,1-3.321,3.095Z" transform="translate(-67.661 -74.724)" fill="#fff"/>
        <path id="Trazado_103943" data-name="Trazado 103943" d="M132.216,136.189H98.176a2.744,2.744,0,0,1-2.785-3.095h0A3.394,3.394,0,0,1,98.7,130h34.04a2.754,2.754,0,0,1,2.785,3.095h0A3.394,3.394,0,0,1,132.216,136.189Z" transform="translate(-67.954 -74.359)" fill="#fff"/>
        <path id="Trazado_103944" data-name="Trazado 103944" d="M130.935,147.869h-25.52a2.754,2.754,0,0,1-2.785-3.095h0a3.394,3.394,0,0,1,3.321-3.095h25.52a2.754,2.754,0,0,1,2.785,3.095h0a3.394,3.394,0,0,1-3.321,3.095Z" transform="translate(-67.725 -73.991)" fill="#fff"/>
        <path id="Trazado_103945" data-name="Trazado 103945" d="M129.915,159.509H104.4a2.754,2.754,0,0,1-2.785-3.095h0a3.4,3.4,0,0,1,3.321-3.095h25.52a2.744,2.744,0,0,1,2.785,3.095h0a3.394,3.394,0,0,1-3.321,3.095Z" transform="translate(-67.758 -73.624)" fill="#fff"/>
        <path id="Trazado_103946" data-name="Trazado 103946" d="M136.284,113.75H87.72l2.5-28.49H138.78Z" transform="translate(-68.195 -75.768)" opacity="0.3"/>
      </g>
      <g id="freepik--character-2--inject-24" transform="translate(222.445 146.574)">
        <rect id="Rectángulo_31409" data-name="Rectángulo 31409" width="13.069" height="3.682" transform="translate(84.748 16.625) rotate(-15.16)" fill="#00a7e3"/>
        <rect id="Rectángulo_31410" data-name="Rectángulo 31410" width="13.069" height="3.682" transform="translate(84.748 16.625) rotate(-15.16)" fill="#fff" opacity="0.3"/>
        <path id="Trazado_103947" data-name="Trazado 103947" d="M302.123,159.868l-3.033-.268,1.516,5.622,2.455-1.795Z" transform="translate(-214.789 -143.942)" fill="#263238"/>
        <rect id="Rectángulo_31411" data-name="Rectángulo 31411" width="19.568" height="5.859" transform="translate(92.3 13.656) rotate(-15.16)" fill="#00a7e3"/>
        <rect id="Rectángulo_31412" data-name="Rectángulo 31412" width="19.568" height="5.859" transform="translate(92.3 13.656) rotate(-15.16)" fill="#fff" opacity="0.5"/>
        <path id="Trazado_103948" data-name="Trazado 103948" d="M340.235,160.615l-21.4,1.032-2-7.344,19.011-9.882,1.331,3.012a35.071,35.071,0,0,1,2.641,9.686Z" transform="translate(-214.23 -144.42)" fill="#263238"/>
        <path id="Trazado_103949" data-name="Trazado 103949" d="M275,208.741c0-6.829,3.414-10.315,6.086-14.689l9.655-15.71c.464-.753-2.486,4.044-.846,1.176.918-1.6,4.044-1.619,5.3,1.032-3.373,6.189-3.982,11.347-5.983,18.113a95.712,95.712,0,0,1-3.507,9.284C279.5,219.469,275,211.712,275,208.741Z" transform="translate(-215.548 -143.354)" fill="#263238"/>
        <path id="Trazado_103950" data-name="Trazado 103950" d="M289,180.763c.866-1.774,2.806-5.384,3.662-7.169a1.97,1.97,0,0,1,.567-.784,2.063,2.063,0,0,1,.712-.237,12.729,12.729,0,0,1,5.807-.186.6.6,0,0,1,.371.2.639.639,0,0,1,.113.351c.144,1.032.289,2.146.444,3.218a1.465,1.465,0,0,1,0,.7,1.568,1.568,0,0,1-.454.557l-2.754,2.424a3.558,3.558,0,0,1-1.568.959,4.724,4.724,0,0,1-2.723-.732C292.095,179.639,289,180.763,289,180.763Z" transform="translate(-215.107 -143.547)" fill="#cb7a63"/>
        <g id="Grupo_90660" data-name="Grupo 90660" transform="translate(73.893 28.592)" opacity="0.1">
          <path id="Trazado_103951" data-name="Trazado 103951" d="M289,180.763c.866-1.774,2.806-5.384,3.662-7.169a1.97,1.97,0,0,1,.567-.784,2.063,2.063,0,0,1,.712-.237,12.729,12.729,0,0,1,5.807-.186.6.6,0,0,1,.371.2.639.639,0,0,1,.113.351c.144,1.032.289,2.146.444,3.218a1.465,1.465,0,0,1,0,.7,1.568,1.568,0,0,1-.454.557l-2.754,2.424a3.558,3.558,0,0,1-1.568.959,4.724,4.724,0,0,1-2.723-.732C292.095,179.639,289,180.763,289,180.763Z" transform="translate(-289 -172.138)"/>
        </g>
        <g id="freepik--group--inject-24" transform="translate(0 7.396)">
          <path id="Trazado_103952" data-name="Trazado 103952" d="M297.554,161.81c.351-.062.722.309.825.836s-.093,1.032-.444,1.032a.925.925,0,0,1-.815-.836C297.018,162.316,297.214,161.872,297.554,161.81Z" transform="translate(-214.852 -151.268)" fill="#263238"/>
          <path id="Trazado_103953" data-name="Trazado 103953" d="M298.489,168.763a3.1,3.1,0,0,0,2.445-.959,19.413,19.413,0,0,1-3.4-4.054Z" transform="translate(-214.838 -151.207)" fill="#b74d3c"/>
          <path id="Trazado_103954" data-name="Trazado 103954" d="M294.917,160.347a2.507,2.507,0,0,1,2.135-.866h.1a.32.32,0,0,0,0-.64,3.1,3.1,0,0,0-2.7,1.032.31.31,0,0,0-.082.206.32.32,0,0,0,.309.33A.3.3,0,0,0,294.917,160.347Z" transform="translate(-214.937 -151.362)" fill="#263238"/>
          <path id="Trazado_103955" data-name="Trazado 103955" d="M291.168,192.015c-9.108-.093-10.4-5.075-10.4-5.075,2.764-2.589,3-7.448,2.507-11.79a10.129,10.129,0,0,0,2.661,2.641,8.3,8.3,0,0,0,6.643,1.331.237.237,0,0,0,.113,0,1.148,1.148,0,0,0-.052.258c-.619,3.466-.217,7.221,3.4,8.355C296.047,187.7,301.2,192.118,291.168,192.015Z" transform="translate(-215.366 -150.848)" fill="#cb7a63"/>
          <path id="Trazado_103956" data-name="Trazado 103956" d="M292.911,177.909a12.185,12.185,0,0,0-.279,1.279.237.237,0,0,1-.113,0,8.3,8.3,0,0,1-6.643-1.331,10.129,10.129,0,0,1-2.661-2.641c-.113-1.1-.289-2.187-.475-3.167l9.8,5.622Z" transform="translate(-215.304 -150.945)" fill="#cb7a63"/>
          <path id="Trazado_103957" data-name="Trazado 103957" d="M278.07,187.532s1.527-4.415,3.724-5.776,11.708.3,13.193.918,2.919,4.126,2.919,4.126Z" transform="translate(-215.451 -150.656)" fill="#00a7e3"/>
          <path id="Trazado_103958" data-name="Trazado 103958" d="M278.07,187.532s1.527-4.415,3.724-5.776,11.708.3,13.193.918,2.919,4.126,2.919,4.126Z" transform="translate(-215.451 -150.656)" fill="#fff" opacity="0.8"/>
          <path id="Trazado_103959" data-name="Trazado 103959" d="M301.217,186.031c-1.475-.279-3.095-.536-4.8-.7a129.6,129.6,0,0,0-15.246-.155l-3.352.248c-5.323.279-10.759,4.776-9.8,10.016,5.292,28.831,3.28,44.83,2.641,49.513l35.855.351c4.322-29.429,3.61-44.355,2.311-51.576A9.511,9.511,0,0,0,301.217,186.031Z" transform="translate(-215.771 -150.537)" fill="#263238"/>
          <path id="Trazado_103960" data-name="Trazado 103960" d="M306.922,234.487l-1.351,10.387c2.775-21.27,3.879-30.141,3.043-44.974l-9.284-2.95C305.086,216.363,303.013,221.149,306.922,234.487Z" transform="translate(-214.781 -150.161)" opacity="0.2"/>
          <path id="Trazado_103961" data-name="Trazado 103961" d="M299.689,171.186a9.222,9.222,0,0,1-4.642,7.654H295a7.8,7.8,0,0,1-2.259.908.237.237,0,0,1-.113,0,8.3,8.3,0,0,1-6.643-1.331,10.129,10.129,0,0,1-2.661-2.641c-1.733-2.486-2.4-5.776-3.59-10.387a9.088,9.088,0,0,1,10.6-11.233C297.2,155.528,299.957,165.038,299.689,171.186Z" transform="translate(-215.408 -151.515)" fill="#cb7a63"/>
          <path id="Trazado_103962" data-name="Trazado 103962" d="M294.589,178.186a7.8,7.8,0,0,1-2.259.908l.33-4.044S294.115,178.186,294.589,178.186Z" transform="translate(-215.002 -150.851)" opacity="0.2"/>
          <path id="Trazado_103963" data-name="Trazado 103963" d="M295.532,166.988c-2.383,1.093-1.382,6.364-3.538,7.932a2.588,2.588,0,0,1-.887.454c-1.032.237-5.488-5.859-5.859-7.344-.959-3.878-.949-6.344,1.98-7.994a28.667,28.667,0,0,1,6.5-2.486c1.031,0,2.063,1.743,2.29,3.445.083.774-1.032,1.774-.609,2.156a6.633,6.633,0,0,1,1.661,2.713A9.282,9.282,0,0,1,295.532,166.988Z" transform="translate(-215.243 -151.402)" fill="#263238"/>
          <path id="Trazado_103964" data-name="Trazado 103964" d="M290.772,175.552l-4.26.846-3.095-.505s-7.427-6.468-7.736-10.6,1.382-9.284,5.921-10.965a67.049,67.049,0,0,1,10.253-2.733s2.93.774,3.229,2.342a3.1,3.1,0,0,1-.474,2.486l-7.7,2.682a3.827,3.827,0,0,0-2.651,3.641h0C284.366,164.7,290.772,175.552,290.772,175.552Z" transform="translate(-215.527 -151.59)" fill="#263238"/>
          <path id="Trazado_103965" data-name="Trazado 103965" d="M292.8,162.454c1.908.609,2.847,3.445,2.888,5.24.052,1.98-1.289,3.208-2.991,1.846a7.551,7.551,0,0,1-2.558-4.126C289.709,163.5,290.906,161.856,292.8,162.454Z" transform="translate(-215.073 -151.252)" fill="#cb7a63"/>
          <path id="Trazado_103966" data-name="Trazado 103966" d="M285.394,408.266a.165.165,0,0,1-.134-.144.144.144,0,0,1,.072-.175c.134-.052,2.62-1.465,3.806-1.145a.846.846,0,0,1,.547.392.64.64,0,0,1,0,.732c-.289.423-1.135.536-2.063.536a13.077,13.077,0,0,1-2.228-.2Zm3.321-1.2a7.489,7.489,0,0,0-2.8.908c1.331.186,3.095.175,3.466-.278.072-.072.113-.165,0-.371a.444.444,0,0,0-.33-.237.887.887,0,0,0-.33,0Z" transform="translate(-215.225 -143.549)" fill="#00a7e3"/>
          <path id="Trazado_103967" data-name="Trazado 103967" d="M285.322,408.277a.216.216,0,0,1-.072-.155,4.508,4.508,0,0,1,1.093-2.744,1.217,1.217,0,0,1,.949-.279c.464,0,.629.279.629.475.144.825-1.547,2.331-2.414,2.723h-.072a.227.227,0,0,1-.113-.021Zm1.857-2.857a.867.867,0,0,0-.6.248,3.981,3.981,0,0,0-.939,2.187c.887-.526,2.063-1.733,1.95-2.218,0,0,0-.186-.33-.186h-.1Z" transform="translate(-215.225 -143.602)" fill="#00a7e3"/>
          <path id="Trazado_103968" data-name="Trazado 103968" d="M278.46,392.13l7.1.01-.6,16.391-7.138-.01Z" transform="translate(-215.459 -144.01)" fill="#cb7a63"/>
          <path id="Trazado_103969" data-name="Trazado 103969" d="M286.712,407.786c4.858,2.981,6.344,3.095,11.955,4.343,1.228.279.444,3.239-2.486,3.239-4.858,0-5.364-.237-9.511-.248-3.548,0-7.613.155-10.439.2a1.106,1.106,0,0,1-.258,0,1.032,1.032,0,0,1-.763-1.238l1.372-6.334a.629.629,0,0,1,.609-.485H285a3.27,3.27,0,0,1,1.712.526Z" transform="translate(-215.542 -143.533)" fill="#263238"/>
          <path id="Trazado_103970" data-name="Trazado 103970" d="M278.45,392.14l-.33,8.417,7.128.01.3-8.417Z" transform="translate(-215.449 -144.01)" opacity="0.2"/>
          <path id="Trazado_103971" data-name="Trazado 103971" d="M227.723,408.185a.2.2,0,0,1-.134.134.155.155,0,0,1-.175-.093c-.062-.124-1.423-2.62-1.032-3.8a.867.867,0,0,1,.392-.536.65.65,0,0,1,.743,0c.4.309.505,1.155.5,2.063a13.03,13.03,0,0,1-.289,2.228Zm-1.114-3.332a7.55,7.55,0,0,0,.825,2.8c.217-1.32.248-3.095-.206-3.445-.062-.083-.165-.113-.371,0a.454.454,0,0,0-.248.33,1.1,1.1,0,0,0,0,.32Z" transform="translate(-217.082 -143.643)" fill="#00a7e3"/>
          <path id="Trazado_103972" data-name="Trazado 103972" d="M227.766,408.19a.175.175,0,0,1-.155.072c-.072,0-2-.175-2.723-1.135a1.207,1.207,0,0,1-.268-.949c0-.454.3-.619.485-.619.815-.113,2.311,1.6,2.682,2.455v.062a.144.144,0,0,1-.021.113Zm-2.847-1.867a.959.959,0,0,0,.237.588,3.951,3.951,0,0,0,2.176.959c-.516-.887-1.7-2.063-2.187-1.97,0,0-.186,0-.2.32v.1Z" transform="translate(-217.136 -143.587)" fill="#00a7e3"/>
          <path id="Trazado_103973" data-name="Trazado 103973" d="M231.706,392.03l6.921.505-4.085,16.525-6.963-.505Z" transform="translate(-217.042 -144.013)" fill="#cb7a63"/>
          <path id="Trazado_103974" data-name="Trazado 103974" d="M226.272,407.2c-1.908,2.218-2.919,3.352-8.407,5.065-1.217.371-.186,3.26,2.744,3,4.848-.423,2.176-.413,6.3-.774,3.538-.309,7.6-.5,10.418-.691a.889.889,0,0,0,.279-.052,1.032,1.032,0,0,0,.691-1.3l-1.9-6.189a.6.6,0,0,0-.64-.423l-7.767.67a2.465,2.465,0,0,0-1.723.691Z" transform="translate(-217.364 -143.578)" fill="#263238"/>
          <path id="Trazado_103975" data-name="Trazado 103975" d="M231.635,392.04l-2.115,8.489,6.942.505,2.1-8.5Z" transform="translate(-216.981 -144.013)" opacity="0.2"/>
          <path id="Trazado_103976" data-name="Trazado 103976" d="M271.915,243.062a73.733,73.733,0,0,0-6.56,13.2c-3.806,10.315-2.455,15.658-3.724,22.621-2.238,12.244-5.58,21.662-7.932,30.945-7.324,29.078-25.5,90.484-25.5,90.484l12.5,2.754s25.891-71.339,32.472-92.145C279.105,292.2,294.33,243,294.33,243Z" transform="translate(-217.023 -148.709)" fill="#00a7e3"/>
          <path id="Trazado_103977" data-name="Trazado 103977" d="M271.915,243.062a73.733,73.733,0,0,0-6.56,13.2c-3.806,10.315-2.455,15.658-3.724,22.621-2.238,12.244-5.58,21.662-7.932,30.945-7.324,29.078-25.5,90.484-25.5,90.484l12.5,2.754s25.891-71.339,32.472-92.145C279.105,292.2,294.33,243,294.33,243Z" transform="translate(-217.023 -148.709)" opacity="0.4"/>
          <path id="Trazado_103978" data-name="Trazado 103978" d="M226.774,393.27l-.124,4.446,15.06,1.63s1.341-4.858,1.279-4.858Z" transform="translate(-217.071 -143.974)" fill="#00a7e3"/>
          <path id="Trazado_103979" data-name="Trazado 103979" d="M226.774,393.27l-.124,4.446,15.06,1.63s1.341-4.858,1.279-4.858Z" transform="translate(-217.071 -143.974)" fill="#fff" opacity="0.8"/>
          <path id="Trazado_103980" data-name="Trazado 103980" d="M285.936,265c-4.8,15.473-10.872,34.979-14.111,45.232-.155.5-.33,1.031-.5,1.558,1.279-17.123,4.642-45.83,13.245-46.882A3.1,3.1,0,0,1,285.936,265Z" transform="translate(-215.663 -148.02)" opacity="0.3"/>
          <path id="Trazado_103981" data-name="Trazado 103981" d="M281.932,243s-3.652,47.181-4.064,69.493c-.392,20.785-1.558,91.134-1.558,91.134h12.058s8.458-71.6,10.594-92.712c2.063-19.991,7.3-67.512,7.3-67.512Z" transform="translate(-215.506 -148.709)" fill="#00a7e3"/>
          <path id="Trazado_103982" data-name="Trazado 103982" d="M281.932,243s-3.652,47.181-4.064,69.493c-.392,20.785-1.558,91.134-1.558,91.134h12.058s8.458-71.6,10.594-92.712c2.063-19.991,7.3-67.512,7.3-67.512Z" transform="translate(-215.506 -148.709)" opacity="0.4"/>
          <path id="Trazado_103983" data-name="Trazado 103983" d="M271.808,232.585l-12.7,25.994,3.363-.97a33.266,33.266,0,0,1,16.6-.5h0l3.951-9.005-1.217,9.48h1.733a33.246,33.246,0,0,1,14.441,2.94,34.854,34.854,0,0,0,4.549,1.888c0-.289,4.25-18.443,4.25-18.443S301.144,214.069,271.808,232.585Z" transform="translate(-216.048 -149.228)" fill="#263238"/>
          <path id="Trazado_103984" data-name="Trazado 103984" d="M274.57,394.636l.413,4.425H289.64s.691-4.962.64-4.962Z" transform="translate(-215.561 -143.948)" fill="#00a7e3"/>
          <path id="Trazado_103985" data-name="Trazado 103985" d="M274.57,394.636l.413,4.425H289.64s.691-4.962.64-4.962Z" transform="translate(-215.561 -143.948)" fill="#fff" opacity="0.8"/>
          <path id="Trazado_103986" data-name="Trazado 103986" d="M308.736,165.694s-4.27-2.228-5-4.074l-1.032-2.589a1.032,1.032,0,0,1,.578-1.279,17.339,17.339,0,0,1,7.747-1.331,1.836,1.836,0,0,1,1.475,1.1s1.093,5.158.237,5.725Z" transform="translate(-214.677 -151.439)" fill="#cb7a63"/>
          <path id="Trazado_103987" data-name="Trazado 103987" d="M314.293,164.28l9.17,12.605c.3.4.588.815.856,1.217,6.643,9.665,7.4,18.041,4.59,19.186s-12.667,2.857-12.667,2.857l1.269-10.016,2.476-.413-10.759-22.332-.928-2.28S311.188,160.185,314.293,164.28Z" transform="translate(-214.498 -151.241)" fill="#263238"/>
          <path id="Trazado_103988" data-name="Trazado 103988" d="M302.063,185.761a68.008,68.008,0,0,1,20.579,2.445l1.166,9.366s-18.33,6.189-24.354-.268C294.832,192.363,293.347,185.132,302.063,185.761Z" transform="translate(-214.894 -150.515)" fill="#263238"/>
        </g>
      </g>
      <g id="freepik--character-1--inject-24" transform="translate(157.443 128.09)">
        <path id="Trazado_103989" data-name="Trazado 103989" d="M206.359,190c0,.567.072.9.093,1.32V192.5c0,.763,0,1.537-.052,2.29-.083,1.527-.248,3.095-.475,4.57a37.9,37.9,0,0,1-2.589,8.933,27.758,27.758,0,0,1-12.884,14.018,10.315,10.315,0,0,1-3.187,1.166,9.139,9.139,0,0,1-3.775-.134,12.853,12.853,0,0,1-5.219-2.837,31.069,31.069,0,0,1-5.859-7.221,73.6,73.6,0,0,1-6.921-15.473l4.487-1.867c1.279,2.249,2.63,4.58,4.126,6.777s2.888,4.374,4.466,6.354a25.953,25.953,0,0,0,4.91,4.951,4.353,4.353,0,0,0,1.939.9c.175,0,.186,0,.258-.052s-.1,0,.547-.4a19.96,19.96,0,0,0,8.252-9.954,31.072,31.072,0,0,0,1.764-6.725h0a8.51,8.51,0,0,1,6.973-7.221Z" transform="translate(-153.996 -124.5)" fill="#eec8c0"/>
        <path id="Trazado_103990" data-name="Trazado 103990" d="M166.245,199.649c-3.095-2.476-3.095-7.221-3.095-7.221l9.954-1.919-3.2,7.716Z" transform="translate(-154.07 -124.484)" fill="#eec8c0"/>
        <path id="Trazado_103991" data-name="Trazado 103991" d="M173.164,190.778l-9.954,1.908,1.114-7.262,7.138-2.775Z" transform="translate(-154.068 -124.731)" fill="#eec8c0"/>
        <path id="Trazado_103992" data-name="Trazado 103992" d="M166.037,179.623a14.442,14.442,0,0,0,3.352,1.032c.289,0,.567.093.856.113,10.377,1.248,20.692-9.1,23.333-23.6,2.682-14.864-3.755-28.521-14.441-30.44s-21.486,8.582-24.189,23.457C152.576,163.49,157.424,175.765,166.037,179.623ZM160.5,151.194c2.228-12.254,8.737-21.528,15.06-21.982a6.292,6.292,0,0,1,1.393,0h0a22.5,22.5,0,0,1,2.764.392c5.6,1.135,10.872,12.75,8.458,26.077-2.207,12.595-10.037,22.085-17.68,22.116a7.817,7.817,0,0,1-1.547-.113h-.464l-.227-.052a6.365,6.365,0,0,1-1.485-.526c-5.694-2.816-8.469-13.709-6.272-25.881Z" transform="translate(-154.347 -126.501)" fill="#00a7e3"/>
        <path id="Trazado_103993" data-name="Trazado 103993" d="M165.778,176.883a.414.414,0,0,1,0-.124l4.023.939c8.3,0,15.988-9.552,18.3-22.023,2.455-13.327-2.7-24.88-8.809-26.077a26.181,26.181,0,0,0-3-.423h0a21.177,21.177,0,0,0-2.538-.2c-6.87.382-14.214,9.7-16.184,22C155.71,162.411,158.526,175.027,165.778,176.883Z" transform="translate(-154.263 -126.423)" fill="#fafafa" opacity="0.4"/>
        <path id="Trazado_103994" data-name="Trazado 103994" d="M161.17,212.885c3.982,4,6.189.113,6.189.113l.32-4.033,1.444-18.165.444-5.611.093-1.032.382-4.848.237-3.022.062-.722-3.755-.165a.414.414,0,0,0,0,.124c-.093.309-.351,1.248-.722,2.62-.093.392-.217.815-.33,1.289-.691,2.62-1.609,6.292-2.5,10.264C160.891,199.3,158.962,210.667,161.17,212.885Z" transform="translate(-154.163 -124.96)" fill="#263238"/>
        <path id="Trazado_103995" data-name="Trazado 103995" d="M198.31,298.9s.825,28.975,1.032,36.567c.619,24.5,7.169,74.712,7.169,74.712l8.458-.237s2.5-50.482-1.31-70.782a6.674,6.674,0,0,1,0-2.352l5.89-36.258Z" transform="translate(-152.962 -121.068)" fill="#eec8c0"/>
        <path id="Trazado_103996" data-name="Trazado 103996" d="M219.38,297.97s5.5,22.693,11.14,36.155c6.829,16.257,36.1,68.977,36.1,68.977l5.632-5.292s-14.678-44.623-27.552-67.265a11.636,11.636,0,0,1-1.785-4.209c-.908-7.066-.949-27.748-4.126-34.927Z" transform="translate(-152.298 -121.304)" fill="#fbd3cd"/>
        <path id="Trazado_103997" data-name="Trazado 103997" d="M236.259,195.778v.34h0c-.093,1.032-.227,2.383-.371,3.858a.2.2,0,0,1,0,.083c-1.032,10.078-3.095,27.964-2.9,36.65a1.5,1.5,0,0,1,0,.371,2.8,2.8,0,0,1-.134.722,3.6,3.6,0,0,1-2.868,2.486,86.771,86.771,0,0,1-10.057,1.083h-.794a4.209,4.209,0,0,0,.062-.815,3.785,3.785,0,0,0-.4-1.609h-7.943c-4.673-.083-8.562-.268-10.253-.361a2.8,2.8,0,0,1,0,.3,2.528,2.528,0,0,1-.083-.3,1.589,1.589,0,0,1-.052-.32,107.546,107.546,0,0,0-3.971-21.053c-1.032-4.044-1.785-7.221-1.289-10.779.815-5.828,2.94-9.851,3-11.8a3.59,3.59,0,0,1,1.98-3.095,19.224,19.224,0,0,1,2.826-1.207h0a29.679,29.679,0,0,1,5.622-1.031h0v.052l.423,1.619.072.093h0l2.063,2.7.609.134,2.62.557,2.837-.526.475-.083,3.94-2.538h0l1.454-1.176.175-.186.093-.072h0a98.074,98.074,0,0,1,10.109,2.063,3.59,3.59,0,0,1,2.754,3.837Z" transform="translate(-153.065 -124.522)" fill="#990f82"/>
        <path id="Trazado_103998" data-name="Trazado 103998" d="M221.281,190.159c-2.692-2.672-2-15.029-2-15.029l-7.489,5.415s-.237,7.633-2.063,9.16c-.413.361-1.032.083-1.568.134l.516,1.929,1.5,2.362,2,1.341,2.888-.083,2.579-.815,2.909-2.156,2.362-2.063C222.436,190.314,221.673,190.541,221.281,190.159Z" transform="translate(-152.652 -124.968)" fill="#eec8c0"/>
        <path id="Trazado_103999" data-name="Trazado 103999" d="M211.22,182.671c5.013-.712,7.221-3.394,8.252-5.488l-.279-2.063-7.489,5.415Z" transform="translate(-152.555 -124.969)" opacity="0.1"/>
        <path id="Trazado_104000" data-name="Trazado 104000" d="M205.9,405.887l9.634-.557a.774.774,0,0,1,.794.557l2.187,7.736a1.279,1.279,0,0,1-.877,1.6,1.123,1.123,0,0,1-.268.052c-3.476.144-6.571.124-10.893.382-5.106.3-3.775.836-9.768,1.269-3.61.258-4.508-3.817-2.981-4.126,6.952-1.289,7.561-3.445,10.119-6.117a3.094,3.094,0,0,1,2.053-.794Z" transform="translate(-153.129 -117.714)" fill="#263238"/>
        <path id="Trazado_104001" data-name="Trazado 104001" d="M264.846,396.444l5.364-4.209a.774.774,0,0,1,.97,0l5.8,5.384a1.289,1.289,0,0,1,.258,1.805,1.155,1.155,0,0,1-.186.206c-2.682,2.207-3.579,2.62-6.87,5.426-3.889,3.311-2.507,2.94-7.025,6.9-2.723,2.383-5.9-.32-4.858-1.465,4.776-5.23,4.972-8.458,5.405-12.131a3.1,3.1,0,0,1,1.145-1.919Z" transform="translate(-151.078 -118.132)" fill="#263238"/>
        <path id="Trazado_104002" data-name="Trazado 104002" d="M234.386,238.147c-.371-.64-.753-1.248-1.166-1.846a5.157,5.157,0,0,0-.413-.6c-.144-.217-.289-.433-.444-.629l-32.276-1.723s.155,1.5.289,3.909c1.692.093,5.58.279,10.253.361h7.943a3.786,3.786,0,0,1,.4,1.609,4.208,4.208,0,0,1-.062.815,3.951,3.951,0,0,1-.815,1.774c-1.98.1-3.992.175-5.931.237h-1.032a91.154,91.154,0,0,1-10.645-.165,86.461,86.461,0,0,1-.774,13.472c-2.527,17.257-3.548,39.125-1.228,53.814v.144a2.286,2.286,0,0,0,.1.516,100,100,0,0,0,19.6,1.279,45.131,45.131,0,0,0,5.715-.485c5.622-.8,11.439-.34,18.031-4.064C242.061,306.536,247.848,261.046,234.386,238.147Z" transform="translate(-152.997 -123.134)" fill="#990f82"/>
        <path id="Trazado_104003" data-name="Trazado 104003" d="M218.919,239.111a4.211,4.211,0,0,1-.062.815,3.951,3.951,0,0,1-.815,1.774c-1.98.1-3.992.175-5.931.237H211.08a91.154,91.154,0,0,1-10.645-.165c0-1.63-.072-3.095-.144-4.353a2.8,2.8,0,0,0,0-.3c1.692.093,5.581.279,10.253.361h7.943a3.785,3.785,0,0,1,.433,1.63Z" transform="translate(-152.9 -123.015)" fill="#263238"/>
        <path id="Trazado_104004" data-name="Trazado 104004" d="M235.118,240.6s-8.19.681-16.638,1.032l-.98.052a3.951,3.951,0,0,0,.815-1.774,4.211,4.211,0,0,0,.062-.815,3.785,3.785,0,0,0-.4-1.609h.846a79.973,79.973,0,0,0,13.214-1.166,2.471,2.471,0,0,0,.547-.124l.485-.113h0a23.992,23.992,0,0,0,1.661,3.765Z" transform="translate(-152.357 -123.048)" fill="#263238"/>
        <path id="Trazado_104005" data-name="Trazado 104005" d="M208.13,189.2s2.734,9.81,14.864.753C222.994,189.953,210.482,205.013,208.13,189.2Z" transform="translate(-152.653 -124.525)" fill="#990f82"/>
        <path id="Trazado_104006" data-name="Trazado 104006" d="M208.13,189.2s2.734,9.81,14.864.753C222.994,189.953,210.482,205.013,208.13,189.2Z" transform="translate(-152.653 -124.525)" opacity="0.5"/>
        <path id="Trazado_104007" data-name="Trazado 104007" d="M212.09,194.85a1.558,1.558,0,1,1,.093,3.095Z" transform="translate(-152.528 -124.347)" fill="#fff"/>
        <path id="Trazado_104008" data-name="Trazado 104008" d="M222.366,167.716c-1.434,6.4-1.908,9.119-5.694,11.9-5.7,4.2-13.245,1.032-13.76-5.653-.444-6.024,1.97-15.473,8.706-17.01a8.943,8.943,0,0,1,10.748,10.759Z" transform="translate(-152.819 -125.548)" fill="#eec8c0"/>
        <path id="Trazado_104009" data-name="Trazado 104009" d="M211.569,167.442c-.093.526-.444.908-.774.856s-.557-.526-.475-1.032.433-.908.774-.856S211.62,166.936,211.569,167.442Z" transform="translate(-152.584 -125.243)" fill="#263238"/>
        <path id="Trazado_104010" data-name="Trazado 104010" d="M205.809,166.531c-.093.536-.433.908-.774.856s-.557-.526-.475-1.032.433-.908.774-.846S205.891,166.016,205.809,166.531Z" transform="translate(-152.766 -125.272)" fill="#263238"/>
        <path id="Trazado_104011" data-name="Trazado 104011" d="M205.487,165.557l-1.2-.567S204.775,166.083,205.487,165.557Z" transform="translate(-152.774 -125.288)" fill="#263238"/>
        <path id="Trazado_104012" data-name="Trazado 104012" d="M207.474,167.71a14.1,14.1,0,0,1-2.424,3.095,2.311,2.311,0,0,0,1.826.65Z" transform="translate(-152.75 -125.202)" fill="#ed893e"/>
        <path id="Trazado_104013" data-name="Trazado 104013" d="M214.084,166.715a.32.32,0,0,1-.3-.217,3.693,3.693,0,0,0-2.228-1.95.32.32,0,0,1-.206-.4.309.309,0,0,1,.382-.206h0a4.229,4.229,0,0,1,2.641,2.362.3.3,0,0,1-.206.382h0a.154.154,0,0,1-.083.031Z" transform="translate(-152.552 -125.321)" fill="#263238"/>
        <path id="Trazado_104014" data-name="Trazado 104014" d="M204.48,163.6a.33.33,0,0,1-.279-.165.32.32,0,0,1,.113-.423,3.1,3.1,0,0,1,2.878-.217.3.3,0,0,1,.144.4h0a.3.3,0,0,1-.413.134h0a2.476,2.476,0,0,0-2.249.2.32.32,0,0,1-.2.072Z" transform="translate(-152.778 -125.365)" fill="#263238"/>
        <path id="Trazado_104015" data-name="Trazado 104015" d="M211.247,166.507l-1.2-.557S210.535,167.033,211.247,166.507Z" transform="translate(-152.592 -125.258)" fill="#263238"/>
        <path id="Trazado_104016" data-name="Trazado 104016" d="M225.986,171.85c-3.352,2.29-3.672,7.076-6.86,9.583-.784-2.2.464-5.735,1.032-8.335a1.217,1.217,0,0,0,0-.856c-.258-.423-.97-.32-1.289.072a2.445,2.445,0,0,0-.34,1.444c-.1-.248-.2-.5-.289-.732-.227,1.032-.433,1.97-.66,2.95a11.037,11.037,0,0,1-.144-2.3,4.466,4.466,0,0,1,.413-1.619c-8.984-22.477-7.9-20.713,1.795-19.6,4.023.464,7.4,3.786,8.541,7.685S230.577,168.745,225.986,171.85Z" transform="translate(-152.54 -125.701)" fill="#263238"/>
        <path id="Trazado_104017" data-name="Trazado 104017" d="M222.849,172.561a4.724,4.724,0,0,1-2.785,2.269c-1.578.454-2.393-.959-1.97-2.476.4-1.362,1.692-3.229,3.291-3.095a2.125,2.125,0,0,1,1.465,3.26Z" transform="translate(-152.342 -125.154)" fill="#eec8c0"/>
        <path id="Trazado_104018" data-name="Trazado 104018" d="M206.35,173.609a18,18,0,0,1,.309,2.579l.464.052c2.063.217,3.095-.371,3.61-1.083a2.7,2.7,0,0,0,.413-1.135,2.549,2.549,0,0,0,0-.722,10.006,10.006,0,0,1-4.126.423Z" transform="translate(-152.709 -125.026)" fill="#2e353a"/>
        <path id="Trazado_104019" data-name="Trazado 104019" d="M207,173.673l.1.753c1.95.2,3.352.083,4.023-.454a2.549,2.549,0,0,0,0-.722A10.006,10.006,0,0,1,207,173.673Z" transform="translate(-152.688 -125.028)" fill="#fff"/>
        <path id="Trazado_104020" data-name="Trazado 104020" d="M207.1,176.184c2.063.217,3.095-.371,3.61-1.083a6.829,6.829,0,0,0-2.342.217,2.486,2.486,0,0,0-1.269.866Z" transform="translate(-152.685 -124.97)" fill="#de5753"/>
        <path id="Trazado_104021" data-name="Trazado 104021" d="M219.921,174.09l-.7,3.456.433.9.753-.939Z" transform="translate(-152.303 -125.001)" fill="#990f82"/>
        <path id="Trazado_104022" data-name="Trazado 104022" d="M235.764,197.652a44.427,44.427,0,0,1-.887,4.5c-8,24.282-19.114,23.849-22.054,18.928-1.888-.7-.856-28.294-2.063-33.834l4.632-1.454c1.032,2.352,3.146,28.965,5.065,24.983,1.032-2.063,4.291-8.809,4.827-11.068h0a8.5,8.5,0,0,1,7.592-6.55A4.126,4.126,0,0,1,235.764,197.652Z" transform="translate(-152.57 -124.632)" fill="#fbd3cd"/>
        <path id="Trazado_104023" data-name="Trazado 104023" d="M214.33,190.39c-3.868.856-7.53-2.166-7.53-2.166l4.755-8.954,4,7.334Z" transform="translate(-152.695 -124.838)" fill="#fbd3cd"/>
        <path id="Trazado_104024" data-name="Trazado 104024" d="M211.727,179.385l-4.755,8.954L202.01,182.9l2.331-7.293Z" transform="translate(-152.845 -124.953)" fill="#fbd3cd"/>
        <path id="Trazado_104025" data-name="Trazado 104025" d="M213.437,152.229a14.513,14.513,0,0,0-10.707,11.7c1.362-.258,1.97.7,3.311,1.032a12.017,12.017,0,0,1,5.333-5.333q.939,2.486,1.867,5c.34.908.815,2.971.815,2.971a30.734,30.734,0,0,1,3.951.4s1.723-6.674.093-11.13c-.691-1.9-1.537-3.909-3.27-4.941Z" transform="translate(-152.823 -125.699)" fill="#263238"/>
        <rect id="Rectángulo_31413" data-name="Rectángulo 31413" width="1.867" height="6.272" transform="translate(70.106 113.436) rotate(-1.18)" fill="#990f82"/>
        <rect id="Rectángulo_31414" data-name="Rectángulo 31414" width="1.867" height="6.272" transform="translate(51.252 113.834) rotate(-1.18)" fill="#990f82"/>
        <path id="Trazado_104026" data-name="Trazado 104026" d="M217.628,237.507a4.982,4.982,0,0,0-9.284,0l-.134.351H209.6l.072-.144a3.662,3.662,0,0,1,3.218-2.063,3.7,3.7,0,0,1,3.4,2.063,3.559,3.559,0,0,1,.361,1.506,3.94,3.94,0,0,1-.062.763,3.868,3.868,0,0,1-.774,1.65,3.682,3.682,0,0,1-5.55.175l-.072-.093h-1.6l.279.392a4.982,4.982,0,0,0,8.345-.258,4.673,4.673,0,0,0,.67-1.857,3.674,3.674,0,0,0,.062-.846,4.715,4.715,0,0,0-.33-1.64Z" transform="translate(-152.65 -123.103)" fill="#fff"/>
      </g>
      <g id="freepik--chart-2--inject-24" transform="translate(295.576 222.474)">
        <g id="Grupo_90662" data-name="Grupo 90662" transform="translate(17.545 0)" opacity="0.7">
          <path id="Trazado_104027" data-name="Trazado 104027" d="M376.6,265.45A42.364,42.364,0,0,1,340.816,293.4a37.072,37.072,0,0,1-12.78-1.145A33.524,33.524,0,0,1,310.3,280.6l30.626-24.849-35.659-9.7c6.437-18.206,24.756-29.759,42.746-27.851h0a37.184,37.184,0,0,1,5.776,1.031C373.525,224.54,383.717,245.232,376.6,265.45Z" transform="translate(-305.27 -218.001)" fill="#00a7e3"/>
          <path id="Trazado_104028" data-name="Trazado 104028" d="M376.6,265.45A42.364,42.364,0,0,1,340.816,293.4a37.072,37.072,0,0,1-12.78-1.145A33.524,33.524,0,0,1,310.3,280.6l30.626-24.849-35.659-9.7c6.437-18.206,24.756-29.759,42.746-27.851h0a37.184,37.184,0,0,1,5.776,1.031C373.525,224.54,383.717,245.232,376.6,265.45Z" transform="translate(-305.27 -218.001)" fill="#fff" opacity="0.5"/>
          <path id="Trazado_104029" data-name="Trazado 104029" d="M382.424,265.447c-6.416,18.175-24.756,29.718-42.694,27.851a42.364,42.364,0,0,0,35.783-27.851c7.117-20.166-3.095-40.858-22.766-46.212a37.19,37.19,0,0,0-5.776-1.032,36.546,36.546,0,0,1,12.688,1.145C379.35,224.61,389.521,245.281,382.424,265.447Z" transform="translate(-304.184 -217.999)" fill="#00a7e3"/>
          <g id="Grupo_90661" data-name="Grupo 90661" transform="translate(35.546 0.073)" opacity="0.3">
            <path id="Trazado_104030" data-name="Trazado 104030" d="M382.424,265.447c-6.416,18.175-24.756,29.718-42.694,27.851a42.364,42.364,0,0,0,35.783-27.851c7.117-20.166-3.095-40.858-22.766-46.212a37.19,37.19,0,0,0-5.776-1.032,36.546,36.546,0,0,1,12.688,1.145C379.35,224.61,389.521,245.281,382.424,265.447Z" transform="translate(-339.73 -218.072)" fill="#fff"/>
          </g>
        </g>
        <g id="Grupo_90664" data-name="Grupo 90664" transform="translate(0 29.407)" opacity="0.7">
          <path id="Trazado_104031" data-name="Trazado 104031" d="M333.051,256.288l-30.636,24.849-6.911-.062,30.626-24.849-35.659-9.7,6.911.052Z" transform="translate(-288.191 -246.509)" fill="#00a7e3"/>
          <path id="Trazado_104032" data-name="Trazado 104032" d="M333.051,256.288l-30.636,24.849-6.911-.062,30.626-24.849-35.659-9.7,6.911.052Z" transform="translate(-288.191 -246.509)" fill="#fff" opacity="0.3"/>
          <path id="Trazado_104033" data-name="Trazado 104033" d="M326.158,256.227l-30.584,24.828c-7.221-9.129-9.48-21.94-5.034-34.545Z" transform="translate(-288.261 -246.51)" fill="#00a7e3"/>
          <g id="Grupo_90663" data-name="Grupo 90663" opacity="0.5">
            <path id="Trazado_104034" data-name="Trazado 104034" d="M326.158,256.227l-30.584,24.828c-7.221-9.129-9.48-21.94-5.034-34.545Z" transform="translate(-288.261 -246.51)" fill="#fff"/>
          </g>
        </g>
      </g>
      <g id="freepik--chart-1--inject-24" transform="translate(85.582 231.817)">
        <g id="Grupo_90665" data-name="Grupo 90665" transform="translate(0 0)" opacity="0.8">
          <path id="Trazado_104035" data-name="Trazado 104035" d="M195.9,284.691H93.355a8.52,8.52,0,0,1-8.623-9.438L88.1,236.5A10.5,10.5,0,0,1,98.42,227.06H200.973a8.51,8.51,0,0,1,8.613,9.438l-3.394,38.754a10.511,10.511,0,0,1-10.294,9.438Z" transform="translate(-84.682 -227.059)" fill="#00a7e3"/>
          <path id="Trazado_104036" data-name="Trazado 104036" d="M195.9,284.691H93.355a8.52,8.52,0,0,1-8.623-9.438L88.1,236.5A10.5,10.5,0,0,1,98.42,227.06H200.973a8.51,8.51,0,0,1,8.613,9.438l-3.394,38.754a10.511,10.511,0,0,1-10.294,9.438Z" transform="translate(-84.682 -227.059)" fill="#fff" opacity="0.5"/>
        </g>
        <path id="Trazado_104037" data-name="Trazado 104037" d="M115.376,277.406h-8.541a.815.815,0,0,1-.825-.918l3.579-40.91a1.032,1.032,0,0,1,1.032-.918h8.531a.825.825,0,0,1,.836.918l-3.579,40.91A1.031,1.031,0,0,1,115.376,277.406Z" transform="translate(-84.01 -226.819)" fill="#fff"/>
        <path id="Trazado_104038" data-name="Trazado 104038" d="M183.166,277.406h-8.531a.825.825,0,0,1-.836-.918l3.579-40.91a1.031,1.031,0,0,1,1.032-.918h8.541a.825.825,0,0,1,.825.918l-3.579,40.91A1.032,1.032,0,0,1,183.166,277.406Z" transform="translate(-81.874 -226.819)" fill="#fff"/>
        <path id="Trazado_104039" data-name="Trazado 104039" d="M150.446,276.975h-8.531a.825.825,0,0,1-.835-.918l2.352-26.819a1.031,1.031,0,0,1,1.032-.918h8.531a.825.825,0,0,1,.836.918l-2.352,26.819A1.032,1.032,0,0,1,150.446,276.975Z" transform="translate(-82.905 -226.389)" fill="#fff"/>
        <path id="Trazado_104040" data-name="Trazado 104040" d="M133.056,276.765h-8.531a.825.825,0,0,1-.836-.918l1.754-19.939a1.032,1.032,0,0,1,1.032-.918h8.531a.825.825,0,0,1,.836.918L134.1,275.847A1.032,1.032,0,0,1,133.056,276.765Z" transform="translate(-83.453 -226.178)" fill="#fff"/>
        <path id="Trazado_104041" data-name="Trazado 104041" d="M166.806,276.254h-8.531a.825.825,0,0,1-.836-.918l.279-3.208a1.031,1.031,0,0,1,1.032-.918H167.3a.825.825,0,0,1,.836.918l-.289,3.208A1.032,1.032,0,0,1,166.806,276.254Z" transform="translate(-82.389 -225.667)" fill="#fff"/>
        <path id="Trazado_104042" data-name="Trazado 104042" d="M185.067,232a1.032,1.032,0,0,0-1.3.475L167.954,264.2a.918.918,0,0,1-1.64.124l-12.378-24.426a.866.866,0,0,0-1.269-.289l-16.793,10.635a.908.908,0,0,1-.949,0l-23.88-13.771a.97.97,0,0,0-1.31.423l-.062.1a.877.877,0,0,0,.34,1.2L134.77,252.54a.928.928,0,0,0,.949,0l16.123-10.212a.887.887,0,0,1,1.269.289L166.221,268.4a.928.928,0,0,0,1.64-.113L185.4,233.158a.856.856,0,0,0-.33-1.155Z" transform="translate(-83.898 -226.905)" opacity="0.3"/>
      </g>
    </g>
  </g>
</svg>
