<svg xmlns="http://www.w3.org/2000/svg" xmlns:xlink="http://www.w3.org/1999/xlink" width="1246" height="550" viewBox="0 0 1246 550">
  <defs>
    <linearGradient id="linear-gradient" x1="0.337" y1="0.336" x2="0.809" y2="0.832" gradientUnits="objectBoundingBox">
      <stop offset="0" stop-opacity="0.302"/>
      <stop offset="0.311" stop-opacity="0.051"/>
      <stop offset="1" stop-color="#fff" stop-opacity="0"/>
    </linearGradient>
    <linearGradient id="linear-gradient-2" x1="0.381" y1="0.384" x2="0.873" y2="0.874" gradientUnits="objectBoundingBox">
      <stop offset="0" stop-opacity="0.302"/>
      <stop offset="0.955" stop-opacity="0.051"/>
      <stop offset="1" stop-color="#fff" stop-opacity="0"/>
    </linearGradient>
    <linearGradient id="linear-gradient-3" x1="0.377" y1="0.383" x2="0.861" y2="0.874" xlink:href="#linear-gradient-2"/>
    <linearGradient id="linear-gradient-4" x1="0.384" y1="0.387" x2="0.921" y2="0.948" xlink:href="#linear-gradient-2"/>
    <linearGradient id="linear-gradient-5" x1="0.352" y1="0.32" x2="0.948" y2="1.073" xlink:href="#linear-gradient-2"/>
    <linearGradient id="linear-gradient-6" x1="0" y1="0.5" x2="1" y2="0.5" xlink:href="#linear-gradient-2"/>
    <radialGradient id="radial-gradient" cx="0.5" cy="0.5" r="5.248" gradientTransform="translate(0.454 0.466) scale(0.093 0.068)" gradientUnits="objectBoundingBox">
      <stop offset="0" stop-opacity="0.302"/>
      <stop offset="0.862" stop-opacity="0"/>
    </radialGradient>
  </defs>
  <g id="Grupo_90842" data-name="Grupo 90842" transform="translate(-209 -4229)">
    <rect id="Rectángulo_31067" data-name="Rectángulo 31067" width="1246" height="550" transform="translate(209 4229)" fill="#fff"/>
    <g id="Grupo_90725" data-name="Grupo 90725" transform="translate(2145.959 2696.146)">
      <path id="Trazado_104770" data-name="Trazado 104770" d="M-1327.034,1659.292l-28.459-5.257L-1528.06,1758.49l201.026,96.247,201.026-96.247-173.985-108.955Z" transform="translate(-18.467 -39.682)" fill="#043f59" fill-rule="evenodd"/>
      <path id="Trazado_104771" data-name="Trazado 104771" d="M-1327.034,1659.292l-201.026,99.2,201.026,96.247,201.026-96.247Z" transform="translate(-18.467 -39.682)" fill-rule="evenodd" fill="url(#linear-gradient)" style="mix-blend-mode: multiply;isolation: isolate"/>
      <path id="Trazado_104772" data-name="Trazado 104772" d="M-1288.816,1827.9l-71.459,12.292-89.35,67.052,160.809,76.989,160.809-76.989-113.768-77.052Z" transform="translate(-56.685 -121.836)" fill="#045476" fill-rule="evenodd"/>
      <path id="Trazado_104773" data-name="Trazado 104773" d="M-1288.816,1827.9l-160.809,79.344,160.809,76.989,160.809-76.989Z" transform="translate(-56.685 -121.836)" fill-rule="evenodd" fill="url(#linear-gradient-2)" style="mix-blend-mode: multiply;isolation: isolate"/>
      <path id="Trazado_104774" data-name="Trazado 104774" d="M-1251.082,1994.348h-34.459l-86.642,59.751,121.1,57.978,121.1-57.978-65.56-57.306Z" transform="translate(-94.419 -202.94)" fill="#009fd9" fill-rule="evenodd"/>
      <path id="Trazado_104775" data-name="Trazado 104775" d="M-1251.082,1994.348l-121.1,59.751,121.1,57.978,121.1-57.978Z" transform="translate(-94.419 -202.94)" fill-rule="evenodd" fill="url(#linear-gradient-3)" style="mix-blend-mode: multiply;isolation: isolate"/>
      <path id="Trazado_104777" data-name="Trazado 104777" d="M-1214.369,2156.319h-21.259l-61.21,40.7,82.468,39.476,82.454-39.476-61.313-39.7Z" transform="translate(-131.131 -281.862)" fill="#00bcff" fill-rule="evenodd"/>
      <path id="Trazado_104776" data-name="Trazado 104776" d="M-1333.6,2127.288l18.851,31.22,82.469-40.7v-40.522Z" transform="translate(-113.217 -243.354)" fill="#00bcff" fill-rule="evenodd"/>
      <path id="Trazado_104778" data-name="Trazado 104778" d="M-1214.369,2156.319l-82.468,40.7,82.468,39.476,82.454-39.476Z" transform="translate(-131.131 -281.862)" fill-rule="evenodd" fill="url(#linear-gradient-4)" style="mix-blend-mode: multiply;isolation: isolate"/>
      <path id="Trazado_104779" data-name="Trazado 104779" d="M-1182.892,2295.16l-21.292,5.705-28.052,18.64,49.344,23.633,49.344-23.633-24.637-17.14Z" transform="translate(-162.609 -349.513)" fill="#93cef1" fill-rule="evenodd"/>
      <path id="Trazado_104780" data-name="Trazado 104780" d="M-1182.892,2295.16l-49.344,24.345,49.344,23.633,49.344-23.633Z" transform="translate(-162.609 -349.513)" fill-rule="evenodd" fill="url(#linear-gradient-5)" style="mix-blend-mode: multiply;isolation: isolate"/>
      <path id="Trazado_104782" data-name="Trazado 104782" d="M-1307.283,1746.458v41.757l-160.809,79.344-19.432-32.165Z" transform="translate(-38.218 -82.154)" fill="#045476" fill-rule="evenodd"/>
      <path id="Trazado_104783" data-name="Trazado 104783" d="M-1409.09,1984.145l18.924,31.322,121.1-59.751v-40.653Z" transform="translate(-76.436 -164.308)" fill="#009fd9" fill-rule="evenodd"/>
      <path id="Trazado_104784" data-name="Trazado 104784" d="M-1267.471,2252.7l18.066,29.912,49.345-24.345v-38.822Z" transform="translate(-145.44 -312.621)" fill="#93cef1" fill-rule="evenodd"/>
      <path id="Trazado_104786" data-name="Trazado 104786" d="M-1136,1577.853l-13.459,14.5L-1136,1619.61l201.026,99.2,19.433-32.179Z" transform="translate(-209.501)" fill="#032b3d" fill-rule="evenodd"/>
      <path id="Trazado_104787" data-name="Trazado 104787" d="M-1136,1746.458v41.757l160.809,79.344,19.433-32.165Z" transform="translate(-209.501 -82.154)" fill="#03415c" fill-rule="evenodd"/>
      <path id="Trazado_104788" data-name="Trazado 104788" d="M-995.99,1984.145l-18.909,31.322-121.1-59.751v-40.653Z" transform="translate(-209.501 -164.308)" fill="#008cbf" fill-rule="evenodd"/>
      <path id="Trazado_104789" data-name="Trazado 104789" d="M-1034.695,2127.288l-18.851,31.22-82.454-40.7v-40.522Z" transform="translate(-209.501 -243.354)" fill="#009fd9" fill-rule="evenodd"/>
      <path id="Trazado_104790" data-name="Trazado 104790" d="M-1068.6,2252.7l-18.052,29.912L-1136,2258.268v-38.822Z" transform="translate(-209.501 -312.621)" fill="#7caecc" fill-rule="evenodd"/>
      <path id="Trazado_104791" data-name="Trazado 104791" d="M-1098.7,2364.046l-37.3-18.4-10.792,11.653,10.792,68.519Z" transform="translate(-209.501 -374.112)" fill="#800c6c" fill-rule="evenodd"/>
      <path id="Trazado_104792" data-name="Trazado 104792" d="M-1136,1577.853v41.757l201.026,99.2,19.433-32.179Z" transform="translate(-209.501)" fill-rule="evenodd" fill="url(#linear-gradient-6)" style="mix-blend-mode: multiply;isolation: isolate"/>
      <path id="Trazado_104793" data-name="Trazado 104793" d="M-1136,1746.458v41.757l160.809,79.344,19.433-32.165Z" transform="translate(-209.501 -82.154)" fill-rule="evenodd" fill="url(#linear-gradient-6)" style="mix-blend-mode: multiply;isolation: isolate"/>
      <path id="Trazado_104794" data-name="Trazado 104794" d="M-995.99,1984.145l-18.909,31.322-121.1-59.751v-40.653Z" transform="translate(-209.501 -164.308)" fill-rule="evenodd" fill="url(#linear-gradient-6)" style="mix-blend-mode: multiply;isolation: isolate"/>
      <path id="Trazado_104795" data-name="Trazado 104795" d="M-1034.695,2127.288l-18.851,31.22-82.454-40.7v-40.522Z" transform="translate(-209.501 -243.354)" fill-rule="evenodd" fill="url(#linear-gradient-6)" style="mix-blend-mode: multiply;isolation: isolate"/>
      <path id="Trazado_104796" data-name="Trazado 104796" d="M-1068.6,2252.7l-18.052,29.912L-1136,2258.268v-38.822Z" transform="translate(-209.501 -312.621)" fill-rule="evenodd" fill="url(#linear-gradient-6)" style="mix-blend-mode: multiply;isolation: isolate"/>
      <path id="Trazado_104797" data-name="Trazado 104797" d="M-1098.7,2364.046l-37.3-18.4v80.172Z" transform="translate(-209.501 -374.112)" fill-rule="evenodd" fill="url(#linear-gradient-6)" style="mix-blend-mode: multiply;isolation: isolate"/>
      <ellipse id="Elipse_4070" data-name="Elipse 4070" cx="215.865" cy="19.997" rx="215.865" ry="19.997" transform="translate(-1561.365 2037.859)" fill="url(#radial-gradient)"/>
      <path id="Trazado_104781" data-name="Trazado 104781" d="M-1345.5,1577.853v41.757l-201.026,99.2-19.433-32.179Z" transform="translate(0)" fill="#043f59" fill-rule="evenodd"/>
      <path id="Trazado_104785" data-name="Trazado 104785" d="M-1208.766,2364.046l37.31-18.4v80.172Z" transform="translate(-174.045 -374.112)" fill="#990f82" fill-rule="evenodd"/>
    </g>
    <path id="Trazado_104798" data-name="Trazado 104798" d="M-4934-7451h17.5" transform="translate(5502.5 11855)" fill="none" stroke="#707070" stroke-linecap="round" stroke-width="2" stroke-dasharray="0 6"/>
    <path id="Trazado_104803" data-name="Trazado 104803" d="M-4934-7451h135.5" transform="translate(5836 12048.4)" fill="none" stroke="#707070" stroke-linecap="round" stroke-width="2" stroke-dasharray="0 6"/>
    <path id="Trazado_104799" data-name="Trazado 104799" d="M-4934-7451h53.5" transform="translate(5918 11917)" fill="none" stroke="#707070" stroke-linecap="round" stroke-width="2" stroke-dasharray="0 6"/>
    <path id="Trazado_104802" data-name="Trazado 104802" d="M-4934-7451h160.5" transform="translate(5502.5 12110.4)" fill="none" stroke="#707070" stroke-linecap="round" stroke-width="2" stroke-dasharray="0 6"/>
    <path id="Trazado_104801" data-name="Trazado 104801" d="M-4924-7451h205.5" transform="translate(5756 12162.101)" fill="none" stroke="#707070" stroke-linecap="round" stroke-width="2" stroke-dasharray="0 6"/>
    <rect id="Rectángulo_31627" data-name="Rectángulo 31627" width="132" height="35" rx="7" transform="translate(434 4387)" fill="#e5f6fc"/>
    <rect id="Rectángulo_31632" data-name="Rectángulo 31632" width="132" height="35" rx="7" transform="translate(1035 4580.4)" fill="#e5f6fc"/>
    <rect id="Rectángulo_31628" data-name="Rectángulo 31628" width="132" height="35" rx="7" transform="translate(1035 4449)" fill="#e5f6fc"/>
    <rect id="Rectángulo_31631" data-name="Rectángulo 31631" width="132" height="35" rx="7" transform="translate(434 4642.4)" fill="#e5f6fc"/>
    <rect id="Rectángulo_31629" data-name="Rectángulo 31629" width="132" height="35" rx="7" transform="translate(434 4514.7)" fill="#e5f6fc"/>
    <rect id="Rectángulo_31630" data-name="Rectángulo 31630" width="132" height="35" rx="7" transform="translate(1035.083 4694.101)" fill="#e5f6fc"/>
    <path id="Trazado_105196" data-name="Trazado 105196" d="M19.121,10.172H14.809v2.719H19.9V15H12.066V3.625h7.852V5.742H14.809v2.4h4.313Zm5.2-1.3,1.227-2.328h2.734l-2.227,4.117L28.395,15h-2.75l-1.328-2.5-1.3,2.5H20.246l2.344-4.336L20.371,6.547h2.766ZM36.98,10.836a5.1,5.1,0,0,1-.887,3.145A2.843,2.843,0,0,1,33.7,15.156a2.437,2.437,0,0,1-1.914-.852V18.25H29.152V6.547h2.461l.078.781a2.437,2.437,0,0,1,1.992-.937,2.866,2.866,0,0,1,2.43,1.152,5.16,5.16,0,0,1,.867,3.168Zm-2.633-.164q0-2.25-1.312-2.25a1.239,1.239,0,0,0-1.25.672v3.328a1.279,1.279,0,0,0,1.266.7q1.258,0,1.3-2.172ZM40.918,15H38.277V3h2.641Zm1.289-4.3A4.989,4.989,0,0,1,42.7,8.441a3.52,3.52,0,0,1,1.414-1.52,4.259,4.259,0,0,1,2.164-.531A3.887,3.887,0,0,1,49.27,7.566a4.512,4.512,0,0,1,1.094,3.2v.094A4.378,4.378,0,0,1,49.266,14a3.9,3.9,0,0,1-2.973,1.16,3.942,3.942,0,0,1-2.9-1.082,4.232,4.232,0,0,1-1.18-2.934Zm2.633.164a3.145,3.145,0,0,0,.367,1.719,1.223,1.223,0,0,0,1.086.547q1.406,0,1.438-2.164V10.7q0-2.273-1.453-2.273-1.32,0-1.43,1.961Zm11.8-1.93-.867-.062a1.558,1.558,0,0,0-1.594.781V15H51.543V6.547h2.469L54.1,7.633a2.039,2.039,0,0,1,1.852-1.242,2.567,2.567,0,0,1,.734.094ZM62.113,15a2.973,2.973,0,0,1-.25-.758,2.448,2.448,0,0,1-2.031.914,3,3,0,0,1-2.031-.723,2.3,2.3,0,0,1-.836-1.816,2.364,2.364,0,0,1,1.016-2.078,5.174,5.174,0,0,1,2.953-.7h.813V9.388q0-1.17-1.008-1.17a.824.824,0,0,0-.937.926H57.168a2.36,2.36,0,0,1,1.043-1.99,4.383,4.383,0,0,1,2.66-.765,3.843,3.843,0,0,1,2.555.789,2.743,2.743,0,0,1,.961,2.164v3.742a3.832,3.832,0,0,0,.359,1.781V15Zm-1.648-1.719a1.469,1.469,0,0,0,.816-.211,1.322,1.322,0,0,0,.465-.477V11.242H60.98q-1.375,0-1.375,1.234a.754.754,0,0,0,.242.582A.876.876,0,0,0,60.465,13.281ZM68.91,4.445v2.1H70.3V8.375H68.91v3.867a.987.987,0,0,0,.172.664.922.922,0,0,0,.68.188,3.862,3.862,0,0,0,.656-.047V14.93a4.859,4.859,0,0,1-1.484.227,2.758,2.758,0,0,1-2.008-.641,2.626,2.626,0,0,1-.648-1.945v-4.2H65.2V6.547h1.078v-2.1ZM70.77,10.7a4.989,4.989,0,0,1,.492-2.254,3.52,3.52,0,0,1,1.414-1.52,4.259,4.259,0,0,1,2.164-.531,3.887,3.887,0,0,1,2.992,1.176,4.512,4.512,0,0,1,1.094,3.2v.094A4.378,4.378,0,0,1,77.828,14a3.9,3.9,0,0,1-2.973,1.16,3.942,3.942,0,0,1-2.9-1.082,4.232,4.232,0,0,1-1.18-2.934Zm2.633.164a3.145,3.145,0,0,0,.367,1.719,1.223,1.223,0,0,0,1.086.547q1.406,0,1.438-2.164V10.7q0-2.273-1.453-2.273-1.32,0-1.43,1.961ZM85.2,8.93l-.867-.062a1.558,1.558,0,0,0-1.594.781V15H80.105V6.547h2.469l.086,1.086a2.039,2.039,0,0,1,1.852-1.242,2.567,2.567,0,0,1,.734.094ZM88.926,15H86.285V6.547h2.641Zm-2.8-10.641a1.186,1.186,0,0,1,.406-.927,1.719,1.719,0,0,1,2.109,0,1.186,1.186,0,0,1,.406.927,1.186,1.186,0,0,1-.406.927,1.719,1.719,0,0,1-2.109,0A1.186,1.186,0,0,1,86.129,4.359ZM90.215,10.7a4.989,4.989,0,0,1,.492-2.254,3.52,3.52,0,0,1,1.414-1.52,4.259,4.259,0,0,1,2.164-.531,3.887,3.887,0,0,1,2.992,1.176,4.512,4.512,0,0,1,1.094,3.2v.094A4.378,4.378,0,0,1,97.273,14a3.9,3.9,0,0,1-2.973,1.16,3.942,3.942,0,0,1-2.9-1.082,4.232,4.232,0,0,1-1.18-2.934Zm2.633.164a3.145,3.145,0,0,0,.367,1.719,1.223,1.223,0,0,0,1.086.547q1.406,0,1.438-2.164V10.7q0-2.273-1.453-2.273-1.32,0-1.43,1.961Z" transform="translate(445 4395)" fill="#12263f"/>
    <path id="Trazado_105200" data-name="Trazado 105200" d="M23.5,10.172H19.191v2.719h5.094V15H16.449V3.625H24.3V5.742H19.191v2.4H23.5Zm5.2-1.3,1.227-2.328h2.734l-2.227,4.117L32.777,15h-2.75L28.7,12.5l-1.3,2.5H24.629l2.344-4.336L24.754,6.547H27.52Zm12.656,1.961a5.1,5.1,0,0,1-.887,3.145,2.843,2.843,0,0,1-2.395,1.176,2.437,2.437,0,0,1-1.914-.852V18.25H33.535V6.547H36l.078.781a2.437,2.437,0,0,1,1.992-.937A2.866,2.866,0,0,1,40.5,7.543a5.16,5.16,0,0,1,.867,3.168Zm-2.633-.164q0-2.25-1.312-2.25a1.239,1.239,0,0,0-1.25.672v3.328a1.279,1.279,0,0,0,1.266.7q1.258,0,1.3-2.172ZM45.3,15H42.66V3H45.3Zm4.4,0H47.059V6.547H49.7ZM46.9,4.359a1.186,1.186,0,0,1,.406-.927,1.719,1.719,0,0,1,2.109,0,1.186,1.186,0,0,1,.406.927,1.186,1.186,0,0,1-.406.927,1.719,1.719,0,0,1-2.109,0A1.186,1.186,0,0,1,46.9,4.359Zm7.992,8.766a1.171,1.171,0,0,0,.859-.3,1.1,1.1,0,0,0,.3-.84H58.52a2.922,2.922,0,0,1-1,2.281,3.705,3.705,0,0,1-2.566.891A3.751,3.751,0,0,1,52.051,14a4.556,4.556,0,0,1-1.062-3.2v-.109a5.149,5.149,0,0,1,.473-2.262,3.441,3.441,0,0,1,1.363-1.508,4.065,4.065,0,0,1,2.109-.527,3.658,3.658,0,0,1,2.617.914,3.242,3.242,0,0,1,.969,2.477H56.051a1.445,1.445,0,0,0-.32-1.008,1.106,1.106,0,0,0-.859-.352q-1.023,0-1.2,1.3a9.206,9.206,0,0,0-.055,1.141,3.616,3.616,0,0,0,.3,1.766A1.055,1.055,0,0,0,54.895,13.125ZM64.395,15a2.973,2.973,0,0,1-.25-.758,2.448,2.448,0,0,1-2.031.914,3,3,0,0,1-2.031-.723,2.3,2.3,0,0,1-.836-1.816,2.364,2.364,0,0,1,1.016-2.078,5.174,5.174,0,0,1,2.953-.7h.813V9.388q0-1.17-1.008-1.17a.824.824,0,0,0-.937.926H59.449a2.36,2.36,0,0,1,1.043-1.99,4.383,4.383,0,0,1,2.66-.765,3.843,3.843,0,0,1,2.555.789,2.743,2.743,0,0,1,.961,2.164v3.742a3.832,3.832,0,0,0,.359,1.781V15Zm-1.648-1.719a1.469,1.469,0,0,0,.816-.211,1.322,1.322,0,0,0,.465-.477V11.242h-.766q-1.375,0-1.375,1.234a.754.754,0,0,0,.242.582A.876.876,0,0,0,62.746,13.281Zm8.445-8.836v2.1h1.391V8.375H71.191v3.867a.987.987,0,0,0,.172.664.922.922,0,0,0,.68.188,3.862,3.862,0,0,0,.656-.047V14.93a4.859,4.859,0,0,1-1.484.227,2.758,2.758,0,0,1-2.008-.641,2.626,2.626,0,0,1-.648-1.945v-4.2H67.48V6.547h1.078v-2.1ZM76.395,15H73.754V6.547h2.641ZM73.6,4.359A1.186,1.186,0,0,1,74,3.432a1.719,1.719,0,0,1,2.109,0,1.186,1.186,0,0,1,.406.927,1.186,1.186,0,0,1-.406.927,1.719,1.719,0,0,1-2.109,0A1.186,1.186,0,0,1,73.6,4.359Zm7.789,7.508,1.336-5.32H85.5L82.738,15H80.051L77.293,6.547h2.781ZM85.832,10.7a4.989,4.989,0,0,1,.492-2.254,3.52,3.52,0,0,1,1.414-1.52A4.259,4.259,0,0,1,89.9,6.391a3.887,3.887,0,0,1,2.992,1.176,4.512,4.512,0,0,1,1.094,3.2v.094A4.378,4.378,0,0,1,92.891,14a3.9,3.9,0,0,1-2.973,1.16,3.942,3.942,0,0,1-2.9-1.082,4.232,4.232,0,0,1-1.18-2.934Zm2.633.164a3.145,3.145,0,0,0,.367,1.719,1.223,1.223,0,0,0,1.086.547q1.406,0,1.438-2.164V10.7q0-2.273-1.453-2.273-1.32,0-1.43,1.961Z" transform="translate(1046 4588.4)" fill="#12263f"/>
    <path id="Trazado_105199" data-name="Trazado 105199" d="M14.832,15V3.625H18.5a5.39,5.39,0,0,1,2.711.684,4.805,4.805,0,0,1,1.879,1.93,5.826,5.826,0,0,1,.684,2.793v.523a5.86,5.86,0,0,1-.66,2.8,4.826,4.826,0,0,1-1.859,1.938A5.271,5.271,0,0,1,18.574,15Zm2.742-9.258v7.148h.953a2.133,2.133,0,0,0,1.813-.84,4.116,4.116,0,0,0,.633-2.5V9.063a4.082,4.082,0,0,0-.633-2.484A2.17,2.17,0,0,0,18.5,5.742Zm11.57,9.414A4.345,4.345,0,0,1,26,14a4.006,4.006,0,0,1-1.2-3.02v-.219a5.191,5.191,0,0,1,.48-2.289,3.516,3.516,0,0,1,1.4-1.535,4.233,4.233,0,0,1,2.188-.543A3.659,3.659,0,0,1,31.676,7.5a4.344,4.344,0,0,1,1.031,3.082V11.6H27.473a1.9,1.9,0,0,0,.617,1.117,1.836,1.836,0,0,0,1.234.406,2.366,2.366,0,0,0,1.953-.875l1.2,1.422a3.363,3.363,0,0,1-1.395,1.082A4.713,4.713,0,0,1,29.145,15.156Zm-.3-6.734q-1.156,0-1.375,1.531h2.656v-.2a1.3,1.3,0,0,0-.32-.98A1.275,1.275,0,0,0,28.848,8.422Zm9.344,4.2a.608.608,0,0,0-.352-.539,5.348,5.348,0,0,0-1.336-.422,6.092,6.092,0,0,1-1.625-.574,2.722,2.722,0,0,1-.977-.863,2.061,2.061,0,0,1-.336-1.164,2.336,2.336,0,0,1,.961-1.918,3.958,3.958,0,0,1,2.516-.754,4.386,4.386,0,0,1,2.688.758,2.37,2.37,0,0,1,1.016,1.992H38.105q0-1.016-1.07-1.016a1.061,1.061,0,0,0-.7.23.714.714,0,0,0-.281.574.655.655,0,0,0,.344.57,3.248,3.248,0,0,0,1.1.359,9.485,9.485,0,0,1,1.324.336,2.406,2.406,0,0,1,1.906,2.352A2.214,2.214,0,0,1,39.7,14.43a4.505,4.505,0,0,1-2.66.727,4.6,4.6,0,0,1-1.937-.391A3.24,3.24,0,0,1,33.777,13.7a2.406,2.406,0,0,1-.477-1.414h2.461a1.017,1.017,0,0,0,.391.855,1.607,1.607,0,0,0,.961.27,1.264,1.264,0,0,0,.809-.219A.7.7,0,0,0,38.191,12.625Zm7.344.5a1.171,1.171,0,0,0,.859-.3,1.1,1.1,0,0,0,.3-.84H49.16a2.922,2.922,0,0,1-1,2.281,3.705,3.705,0,0,1-2.566.891A3.751,3.751,0,0,1,42.691,14a4.556,4.556,0,0,1-1.062-3.2v-.109A5.149,5.149,0,0,1,42.1,8.426a3.441,3.441,0,0,1,1.363-1.508,4.065,4.065,0,0,1,2.109-.527,3.658,3.658,0,0,1,2.617.914,3.242,3.242,0,0,1,.969,2.477H46.691a1.445,1.445,0,0,0-.32-1.008,1.106,1.106,0,0,0-.859-.352q-1.023,0-1.2,1.3a9.206,9.206,0,0,0-.055,1.141,3.616,3.616,0,0,0,.3,1.766A1.055,1.055,0,0,0,45.535,13.125Zm9.852-4.2-.867-.062a1.558,1.558,0,0,0-1.594.781V15H50.293V6.547h2.469l.086,1.086A2.039,2.039,0,0,1,54.7,6.391a2.567,2.567,0,0,1,.734.094ZM59.113,15H56.473V6.547h2.641Zm-2.8-10.641a1.186,1.186,0,0,1,.406-.927,1.719,1.719,0,0,1,2.109,0,1.186,1.186,0,0,1,.406.927,1.186,1.186,0,0,1-.406.927,1.719,1.719,0,0,1-2.109,0A1.186,1.186,0,0,1,56.316,4.359Zm12.266,6.477A5.1,5.1,0,0,1,67.7,13.98,2.843,2.843,0,0,1,65.3,15.156a2.437,2.437,0,0,1-1.914-.852V18.25H60.754V6.547h2.461l.078.781a2.437,2.437,0,0,1,1.992-.937,2.866,2.866,0,0,1,2.43,1.152,5.16,5.16,0,0,1,.867,3.168Zm-2.633-.164q0-2.25-1.312-2.25a1.239,1.239,0,0,0-1.25.672v3.328a1.279,1.279,0,0,0,1.266.7q1.258,0,1.3-2.172Zm6.859-6.227v2.1H74.2V8.375H72.809v3.867a.987.987,0,0,0,.172.664.922.922,0,0,0,.68.188,3.862,3.862,0,0,0,.656-.047V14.93a4.859,4.859,0,0,1-1.484.227,2.758,2.758,0,0,1-2.008-.641,2.626,2.626,0,0,1-.648-1.945v-4.2H69.1V6.547h1.078v-2.1ZM78.012,15H75.371V6.547h2.641Zm-2.8-10.641a1.186,1.186,0,0,1,.406-.927,1.719,1.719,0,0,1,2.109,0,1.186,1.186,0,0,1,.406.927,1.186,1.186,0,0,1-.406.927,1.719,1.719,0,0,1-2.109,0A1.186,1.186,0,0,1,75.215,4.359ZM83,11.867l1.336-5.32h2.773L84.355,15H81.668L78.91,6.547h2.781ZM87.449,10.7a4.989,4.989,0,0,1,.492-2.254,3.52,3.52,0,0,1,1.414-1.52,4.259,4.259,0,0,1,2.164-.531,3.887,3.887,0,0,1,2.992,1.176,4.512,4.512,0,0,1,1.094,3.2v.094A4.378,4.378,0,0,1,94.508,14a3.9,3.9,0,0,1-2.973,1.16,3.942,3.942,0,0,1-2.9-1.082,4.232,4.232,0,0,1-1.18-2.934Zm2.633.164a3.145,3.145,0,0,0,.367,1.719,1.223,1.223,0,0,0,1.086.547q1.406,0,1.438-2.164V10.7q0-2.273-1.453-2.273-1.32,0-1.43,1.961Z" transform="translate(1046 4457)" fill="#12263f"/>
    <path id="Trazado_105198" data-name="Trazado 105198" d="M9.4,15H6.668V3.625H9.4Zm4.2-8.453.086.992a2.867,2.867,0,0,1,2.414-1.148,2.412,2.412,0,0,1,1.973.789,3.757,3.757,0,0,1,.676,2.375V15H16.113V9.664a1.426,1.426,0,0,0-.258-.941,1.193,1.193,0,0,0-.937-.3,1.256,1.256,0,0,0-1.148.609V15H11.137V6.547Zm9.672-2.1v2.1h1.391V8.375H23.277v3.867a.987.987,0,0,0,.172.664.922.922,0,0,0,.68.188,3.862,3.862,0,0,0,.656-.047V14.93a4.859,4.859,0,0,1-1.484.227,2.758,2.758,0,0,1-2.008-.641,2.626,2.626,0,0,1-.648-1.945v-4.2H19.566V6.547h1.078v-2.1Zm6.516,10.711A4.345,4.345,0,0,1,26.645,14a4.006,4.006,0,0,1-1.2-3.02v-.219a5.191,5.191,0,0,1,.48-2.289,3.516,3.516,0,0,1,1.4-1.535,4.233,4.233,0,0,1,2.188-.543A3.659,3.659,0,0,1,32.324,7.5a4.344,4.344,0,0,1,1.031,3.082V11.6H28.121a1.9,1.9,0,0,0,.617,1.117,1.836,1.836,0,0,0,1.234.406,2.366,2.366,0,0,0,1.953-.875l1.2,1.422a3.363,3.363,0,0,1-1.395,1.082A4.713,4.713,0,0,1,29.793,15.156Zm-.3-6.734q-1.156,0-1.375,1.531h2.656v-.2a1.3,1.3,0,0,0-.32-.98A1.275,1.275,0,0,0,29.5,8.422Zm10.031.508-.867-.062a1.558,1.558,0,0,0-1.594.781V15H34.434V6.547H36.9l.086,1.086A2.039,2.039,0,0,1,38.84,6.391a2.567,2.567,0,0,1,.734.094Zm8.8,1.906a5.1,5.1,0,0,1-.887,3.145,2.843,2.843,0,0,1-2.395,1.176,2.437,2.437,0,0,1-1.914-.852V18.25H40.5V6.547h2.461l.078.781a2.437,2.437,0,0,1,1.992-.937,2.866,2.866,0,0,1,2.43,1.152,5.16,5.16,0,0,1,.867,3.168Zm-2.633-.164q0-2.25-1.312-2.25a1.239,1.239,0,0,0-1.25.672v3.328a1.279,1.279,0,0,0,1.266.7q1.258,0,1.3-2.172ZM54.6,8.93l-.867-.062a1.558,1.558,0,0,0-1.594.781V15H49.5V6.547h2.469l.086,1.086A2.039,2.039,0,0,1,53.91,6.391a2.567,2.567,0,0,1,.734.094Zm4.891,6.227A4.345,4.345,0,0,1,56.34,14a4.006,4.006,0,0,1-1.2-3.02v-.219a5.191,5.191,0,0,1,.48-2.289,3.516,3.516,0,0,1,1.4-1.535,4.233,4.233,0,0,1,2.188-.543A3.659,3.659,0,0,1,62.02,7.5a4.344,4.344,0,0,1,1.031,3.082V11.6H57.816a1.9,1.9,0,0,0,.617,1.117,1.836,1.836,0,0,0,1.234.406,2.366,2.366,0,0,0,1.953-.875l1.2,1.422a3.363,3.363,0,0,1-1.395,1.082A4.713,4.713,0,0,1,59.488,15.156Zm-.3-6.734q-1.156,0-1.375,1.531h2.656v-.2a1.3,1.3,0,0,0-.32-.98A1.275,1.275,0,0,0,59.191,8.422Zm7.984-3.977v2.1h1.391V8.375H67.176v3.867a.987.987,0,0,0,.172.664.922.922,0,0,0,.68.188,3.862,3.862,0,0,0,.656-.047V14.93a4.859,4.859,0,0,1-1.484.227,2.758,2.758,0,0,1-2.008-.641,2.626,2.626,0,0,1-.648-1.945v-4.2H63.465V6.547h1.078v-2.1ZM74.363,15a2.973,2.973,0,0,1-.25-.758,2.448,2.448,0,0,1-2.031.914,3,3,0,0,1-2.031-.723,2.3,2.3,0,0,1-.836-1.816,2.364,2.364,0,0,1,1.016-2.078,5.174,5.174,0,0,1,2.953-.7H74V9.388q0-1.17-1.008-1.17a.824.824,0,0,0-.937.926H69.418a2.36,2.36,0,0,1,1.043-1.99,4.383,4.383,0,0,1,2.66-.765,3.843,3.843,0,0,1,2.555.789,2.743,2.743,0,0,1,.961,2.164v3.742A3.832,3.832,0,0,0,77,14.867V15Zm-1.648-1.719a1.469,1.469,0,0,0,.816-.211A1.322,1.322,0,0,0,74,12.594V11.242H73.23q-1.375,0-1.375,1.234a.754.754,0,0,0,.242.582A.876.876,0,0,0,72.715,13.281ZM81.16,4.445v2.1h1.391V8.375H81.16v3.867a.987.987,0,0,0,.172.664.922.922,0,0,0,.68.188,3.862,3.862,0,0,0,.656-.047V14.93a4.859,4.859,0,0,1-1.484.227,2.758,2.758,0,0,1-2.008-.641,2.626,2.626,0,0,1-.648-1.945v-4.2H77.449V6.547h1.078v-2.1ZM86.363,15H83.723V6.547h2.641Zm-2.8-10.641a1.186,1.186,0,0,1,.406-.927,1.719,1.719,0,0,1,2.109,0,1.186,1.186,0,0,1,.406.927,1.186,1.186,0,0,1-.406.927,1.719,1.719,0,0,1-2.109,0A1.186,1.186,0,0,1,83.566,4.359Zm7.789,7.508,1.336-5.32h2.773L92.707,15H90.02L87.262,6.547h2.781ZM95.8,10.7a4.989,4.989,0,0,1,.492-2.254,3.52,3.52,0,0,1,1.414-1.52,4.259,4.259,0,0,1,2.164-.531,3.887,3.887,0,0,1,2.992,1.176,4.512,4.512,0,0,1,1.094,3.2v.094a4.378,4.378,0,0,1-1.1,3.137,3.9,3.9,0,0,1-2.973,1.16,3.942,3.942,0,0,1-2.9-1.082,4.232,4.232,0,0,1-1.18-2.934Zm2.633.164a3.145,3.145,0,0,0,.367,1.719,1.223,1.223,0,0,0,1.086.547q1.406,0,1.438-2.164V10.7q0-2.273-1.453-2.273-1.32,0-1.43,1.961Z" transform="translate(445 4650.4)" fill="#12263f"/>
    <path id="Trazado_105197" data-name="Trazado 105197" d="M30.227,12.875H26.469L25.813,15h-2.93L27.055,3.625h2.578L33.836,15H30.891Zm-3.1-2.117H29.57L28.344,6.813Zm9.461-4.211.086.992a2.867,2.867,0,0,1,2.414-1.148,2.412,2.412,0,0,1,1.973.789,3.757,3.757,0,0,1,.676,2.375V15H39.094V9.664a1.426,1.426,0,0,0-.258-.941,1.193,1.193,0,0,0-.937-.3,1.256,1.256,0,0,0-1.148.609V15H34.117V6.547ZM47.953,15a2.973,2.973,0,0,1-.25-.758,2.448,2.448,0,0,1-2.031.914,3,3,0,0,1-2.031-.723,2.3,2.3,0,0,1-.836-1.816,2.364,2.364,0,0,1,1.016-2.078,5.174,5.174,0,0,1,2.953-.7h.813V9.388q0-1.17-1.008-1.17a.824.824,0,0,0-.937.926H43.008a2.36,2.36,0,0,1,1.043-1.99,4.383,4.383,0,0,1,2.66-.765,3.843,3.843,0,0,1,2.555.789,2.743,2.743,0,0,1,.961,2.164v3.742a3.832,3.832,0,0,0,.359,1.781V15ZM46.3,13.281a1.469,1.469,0,0,0,.816-.211,1.322,1.322,0,0,0,.465-.477V11.242H46.82q-1.375,0-1.375,1.234a.754.754,0,0,0,.242.582A.876.876,0,0,0,46.3,13.281ZM54.461,15H51.82V3h2.641Zm4.492,0H56.3V6.547h2.648ZM57.969,3.156H60.75L58.578,5.609l-2.148,0Zm5.742,1.289v2.1H65.1V8.375H63.711v3.867a.987.987,0,0,0,.172.664.922.922,0,0,0,.68.188,3.862,3.862,0,0,0,.656-.047V14.93a4.859,4.859,0,0,1-1.484.227,2.758,2.758,0,0,1-2.008-.641,2.626,2.626,0,0,1-.648-1.945v-4.2H60V6.547h1.078v-2.1ZM68.914,15H66.273V6.547h2.641Zm-2.8-10.641a1.186,1.186,0,0,1,.406-.927,1.719,1.719,0,0,1,2.109,0,1.186,1.186,0,0,1,.406.927,1.186,1.186,0,0,1-.406.927,1.719,1.719,0,0,1-2.109,0A1.186,1.186,0,0,1,66.117,4.359Zm7.992,8.766a1.171,1.171,0,0,0,.859-.3,1.1,1.1,0,0,0,.3-.84h2.469a2.922,2.922,0,0,1-1,2.281,3.705,3.705,0,0,1-2.566.891A3.751,3.751,0,0,1,71.266,14,4.556,4.556,0,0,1,70.2,10.8v-.109a5.149,5.149,0,0,1,.473-2.262,3.441,3.441,0,0,1,1.363-1.508,4.065,4.065,0,0,1,2.109-.527,3.658,3.658,0,0,1,2.617.914,3.242,3.242,0,0,1,.969,2.477H75.266a1.445,1.445,0,0,0-.32-1.008,1.106,1.106,0,0,0-.859-.352q-1.023,0-1.2,1.3a9.206,9.206,0,0,0-.055,1.141,3.616,3.616,0,0,0,.3,1.766A1.055,1.055,0,0,0,74.109,13.125Zm4.406-2.43a4.989,4.989,0,0,1,.492-2.254,3.52,3.52,0,0,1,1.414-1.52,4.259,4.259,0,0,1,2.164-.531,3.887,3.887,0,0,1,2.992,1.176,4.512,4.512,0,0,1,1.094,3.2v.094A4.378,4.378,0,0,1,85.574,14a3.9,3.9,0,0,1-2.973,1.16,3.942,3.942,0,0,1-2.9-1.082,4.232,4.232,0,0,1-1.18-2.934Zm2.633.164a3.145,3.145,0,0,0,.367,1.719,1.223,1.223,0,0,0,1.086.547q1.406,0,1.438-2.164V10.7q0-2.273-1.453-2.273-1.32,0-1.43,1.961Z" transform="translate(445 4522.7)" fill="#12263f"/>
    <path id="Trazado_105201" data-name="Trazado 105201" d="M8.539,12.875H4.781L4.125,15H1.2L5.367,3.625H7.945L12.148,15H9.2Zm-3.1-2.117H7.883L6.656,6.813ZM17.969,8.93,17.1,8.867a1.558,1.558,0,0,0-1.594.781V15H12.875V6.547h2.469l.086,1.086a2.039,2.039,0,0,1,1.852-1.242,2.567,2.567,0,0,1,.734.094Zm.492,1.781a5.708,5.708,0,0,1,.422-2.266,3.4,3.4,0,0,1,1.211-1.52,3.192,3.192,0,0,1,1.836-.535,2.538,2.538,0,0,1,2.063.891l.094-.734h2.391V14.68a3.564,3.564,0,0,1-.52,1.941,3.334,3.334,0,0,1-1.5,1.266,5.528,5.528,0,0,1-2.281.441,4.769,4.769,0,0,1-1.8-.352,3.251,3.251,0,0,1-1.332-.914l1.1-1.547a2.414,2.414,0,0,0,1.938.867,1.568,1.568,0,0,0,1.75-1.8V14.32a2.472,2.472,0,0,1-1.914.836,3.055,3.055,0,0,1-2.5-1.184,4.9,4.9,0,0,1-.953-3.168Zm2.641.164a3.007,3.007,0,0,0,.391,1.645,1.232,1.232,0,0,0,1.094.605,1.4,1.4,0,0,0,1.242-.57V9A1.363,1.363,0,0,0,22.6,8.422a1.241,1.241,0,0,0-1.1.629A3.429,3.429,0,0,0,21.1,10.875Zm11.906,3.211a2.714,2.714,0,0,1-2.258,1.07,2.662,2.662,0,0,1-2.105-.809,3.4,3.4,0,0,1-.715-2.324V6.547h2.633v5.492a.946.946,0,0,0,1.055,1.086,1.376,1.376,0,0,0,1.289-.648V6.547h2.648V15H33.086Zm6.477-7.539.086.992a2.906,2.906,0,0,1,2.414-1.148,2.14,2.14,0,0,1,2.164,1.273,2.813,2.813,0,0,1,2.484-1.273q2.57,0,2.641,3.109V15H46.633V9.664a1.611,1.611,0,0,0-.219-.945.931.931,0,0,0-.8-.3,1.247,1.247,0,0,0-1.164.7l.008.109V15H41.82V9.68a1.694,1.694,0,0,0-.211-.961.929.929,0,0,0-.8-.3,1.263,1.263,0,0,0-1.156.7V15H37.016V6.547Zm15.383,8.609A4.345,4.345,0,0,1,51.719,14a4.006,4.006,0,0,1-1.2-3.02v-.219A5.191,5.191,0,0,1,51,8.469a3.516,3.516,0,0,1,1.4-1.535,4.233,4.233,0,0,1,2.188-.543A3.659,3.659,0,0,1,57.4,7.5a4.344,4.344,0,0,1,1.031,3.082V11.6H53.2a1.9,1.9,0,0,0,.617,1.117,1.836,1.836,0,0,0,1.234.406A2.366,2.366,0,0,0,57,12.25l1.2,1.422a3.363,3.363,0,0,1-1.395,1.082A4.713,4.713,0,0,1,54.867,15.156Zm-.3-6.734q-1.156,0-1.375,1.531h2.656v-.2a1.3,1.3,0,0,0-.32-.98A1.275,1.275,0,0,0,54.57,8.422Zm7.336-1.875.086.992a2.867,2.867,0,0,1,2.414-1.148,2.412,2.412,0,0,1,1.973.789,3.757,3.757,0,0,1,.676,2.375V15H64.414V9.664a1.426,1.426,0,0,0-.258-.941,1.193,1.193,0,0,0-.937-.3,1.256,1.256,0,0,0-1.148.609V15H59.438V6.547Zm9.672-2.1v2.1h1.391V8.375H71.578v3.867a.987.987,0,0,0,.172.664.922.922,0,0,0,.68.188,3.862,3.862,0,0,0,.656-.047V14.93a4.859,4.859,0,0,1-1.484.227,2.758,2.758,0,0,1-2.008-.641,2.626,2.626,0,0,1-.648-1.945v-4.2H67.867V6.547h1.078v-2.1ZM78.766,15a2.973,2.973,0,0,1-.25-.758,2.448,2.448,0,0,1-2.031.914,3,3,0,0,1-2.031-.723,2.3,2.3,0,0,1-.836-1.816,2.364,2.364,0,0,1,1.016-2.078,5.174,5.174,0,0,1,2.953-.7H78.4V9.388q0-1.17-1.008-1.17a.824.824,0,0,0-.937.926H73.82a2.36,2.36,0,0,1,1.043-1.99,4.383,4.383,0,0,1,2.66-.765,3.843,3.843,0,0,1,2.555.789,2.743,2.743,0,0,1,.961,2.164v3.742a3.832,3.832,0,0,0,.359,1.781V15Zm-1.648-1.719a1.469,1.469,0,0,0,.816-.211,1.322,1.322,0,0,0,.465-.477V11.242h-.766q-1.375,0-1.375,1.234a.754.754,0,0,0,.242.582A.876.876,0,0,0,77.117,13.281Zm8.445-8.836v2.1h1.391V8.375H85.563v3.867a.987.987,0,0,0,.172.664.922.922,0,0,0,.68.188,3.862,3.862,0,0,0,.656-.047V14.93a4.859,4.859,0,0,1-1.484.227,2.758,2.758,0,0,1-2.008-.641,2.626,2.626,0,0,1-.648-1.945v-4.2H81.852V6.547H82.93v-2.1ZM90.766,15H88.125V6.547h2.641Zm-2.8-10.641a1.186,1.186,0,0,1,.406-.927,1.719,1.719,0,0,1,2.109,0,1.186,1.186,0,0,1,.406.927,1.186,1.186,0,0,1-.406.927,1.719,1.719,0,0,1-2.109,0A1.186,1.186,0,0,1,87.969,4.359Zm7.789,7.508,1.336-5.32h2.773L97.109,15H94.422L91.664,6.547h2.781ZM100.2,10.7a4.989,4.989,0,0,1,.492-2.254,3.52,3.52,0,0,1,1.414-1.52,4.259,4.259,0,0,1,2.164-.531,3.887,3.887,0,0,1,2.992,1.176,4.512,4.512,0,0,1,1.094,3.2v.094a4.378,4.378,0,0,1-1.1,3.137,3.9,3.9,0,0,1-2.973,1.16,3.942,3.942,0,0,1-2.9-1.082,4.232,4.232,0,0,1-1.18-2.934Zm2.633.164a3.145,3.145,0,0,0,.367,1.719,1.223,1.223,0,0,0,1.086.547q1.406,0,1.438-2.164V10.7q0-2.273-1.453-2.273-1.32,0-1.43,1.961Z" transform="translate(1046.083 4702.101)" fill="#12263f"/>
  </g>
</svg>
