<svg xmlns="http://www.w3.org/2000/svg" width="142" height="110.942" viewBox="0 0 142 110.942">
  <g id="Grupo_90705" data-name="Grupo 90705" transform="translate(0 -123.544)">
    <g id="Grupo_90704" data-name="Grupo 90704" transform="translate(2.186 125.73)">
      <path id="Trazado_104638" data-name="Trazado 104638" d="M314.427,150.291l-.057,0H247.217V251.373a1.146,1.146,0,0,0,.985-.578,7.18,7.18,0,0,1,6.2-3.554H314.37l.057,0Z" transform="translate(-178.403 -144.793)" fill="#00a7e3"/>
      <g id="Grupo_90702" data-name="Grupo 90702" transform="translate(123.605 5.495)">
        <path id="Trazado_104639" data-name="Trazado 104639" d="M450.358,150.288H438a1.662,1.662,0,0,1,1.661,1.661v93.63A1.661,1.661,0,0,1,438,247.241h12.362a1.661,1.661,0,0,0,1.661-1.661v-93.63A1.662,1.662,0,0,0,450.358,150.288Z" transform="translate(-437.996 -150.288)" fill="#008fc2"/>
      </g>
      <path id="Trazado_104640" data-name="Trazado 104640" d="M304.4,131.155H251.371a4.154,4.154,0,0,0-4.154,4.154V224.68h.673a4.148,4.148,0,0,1,3.48-1.89H304.4Z" transform="translate(-178.403 -131.155)" fill="#fff"/>
      <path id="Trazado_104641" data-name="Trazado 104641" d="M76.425,251.373V150.288H9.273a1.662,1.662,0,0,0-1.662,1.661v93.629a1.661,1.661,0,0,0,1.662,1.661H69.241a7.18,7.18,0,0,1,6.2,3.554,1.146,1.146,0,0,0,.985.579Z" transform="translate(-7.611 -144.793)" fill="#00a7e3"/>
      <path id="Trazado_104642" data-name="Trazado 104642" d="M323.854,354.5H294.626a2.256,2.256,0,0,1-2.257-2.256V330.325a2.256,2.256,0,0,1,2.257-2.256h29.228a2.256,2.256,0,0,1,2.256,2.256v21.921A2.256,2.256,0,0,1,323.854,354.5Z" transform="translate(-210.587 -271.516)" fill="#afafaf"/>
      <path id="Trazado_104643" data-name="Trazado 104643" d="M98.432,224.68h.673V135.309a4.154,4.154,0,0,0-4.154-4.154H41.369a1.939,1.939,0,0,0-1.939,1.939v87.757a1.938,1.938,0,0,0,1.939,1.938H94.952a4.148,4.148,0,0,1,3.48,1.891Z" transform="translate(-30.292 -131.155)" fill="#def0fb"/>
      <path id="Trazado_104644" data-name="Trazado 104644" d="M157.891,296.452V312.57l9.573-6.741a1.612,1.612,0,0,0,0-2.636Z" transform="translate(-114.731 -248.979)" fill="#e5eef9"/>
      <g id="Grupo_90703" data-name="Grupo 90703" transform="translate(116.662 0)">
        <path id="Trazado_104645" data-name="Trazado 104645" d="M423.711,131.155h-9.89a1.939,1.939,0,0,1,1.939,1.939v87.757a1.939,1.939,0,0,1-1.939,1.938h9.89a1.938,1.938,0,0,0,1.938-1.938V133.094a1.938,1.938,0,0,0-1.938-1.939Z" transform="translate(-413.821 -131.155)" fill="#def0fb"/>
      </g>
      <path id="Trazado_104646" data-name="Trazado 104646" d="M157.891,296.452V312.57l9.573-6.741a1.612,1.612,0,0,0,0-2.636Z" transform="translate(-114.731 -248.979)" fill="#93cef1"/>
      <path id="Trazado_104647" data-name="Trazado 104647" d="M167.463,305.829a1.612,1.612,0,0,0,0-2.636l-9.573-6.741v7.417l6.178,4.35Z" transform="translate(-114.73 -248.979)" fill="#7caecc"/>
      <path id="Trazado_104648" data-name="Trazado 104648" d="M10.19,296.41a2.579,2.579,0,0,0-2.579,2.579v7.43a2.579,2.579,0,0,1,2.579-2.579H20.468v-7.43Z" transform="translate(-7.611 -248.949)" fill="#e94444"/>
      <path id="Trazado_104649" data-name="Trazado 104649" d="M52.379,302.191h30.3v14.47h-30.3Z" transform="translate(-39.522 -253.07)" fill="#00a7e3"/>
      <path id="Trazado_104650" data-name="Trazado 104650" d="M7.611,304.77v9.312a2.579,2.579,0,0,0,2.579,2.579H20.468v-14.47H10.19a2.579,2.579,0,0,0-2.579,2.579Z" transform="translate(-7.611 -253.07)" fill="#93cef1"/>
      <path id="Trazado_104651" data-name="Trazado 104651" d="M52.379,296.452h30.3v7.417h-30.3Z" transform="translate(-39.522 -248.979)" fill="#008fc2"/>
      <path id="Trazado_104652" data-name="Trazado 104652" d="M7.611,299.031v7.417a2.579,2.579,0,0,1,2.579-2.579H20.468v-7.417H10.19A2.579,2.579,0,0,0,7.611,299.031Z" transform="translate(-7.611 -248.979)" fill="#7caecc"/>
    </g>
    <path id="Trazado_104653" data-name="Trazado 104653" d="M284.685,287.872h20.34a2.418,2.418,0,0,0,0-4.836h-20.34a2.418,2.418,0,0,0,0,4.836Z" transform="translate(-201.201 -113.686)"/>
    <path id="Trazado_104654" data-name="Trazado 104654" d="M318.429,320.456H289.2a4.448,4.448,0,0,0-4.442,4.443V346.82a4.447,4.447,0,0,0,4.442,4.442h29.228a4.447,4.447,0,0,0,4.442-4.442V324.9A4.447,4.447,0,0,0,318.429,320.456Zm.07,26.364a.07.07,0,0,1-.07.07H289.2a.071.071,0,0,1-.071-.07V324.9a.071.071,0,0,1,.071-.071h29.228a.071.071,0,0,1,.07.071V346.82Z" transform="translate(-202.976 -140.359)"/>
    <path id="Trazado_104655" data-name="Trazado 104655" d="M76.9,173.327h34.708a2.418,2.418,0,0,0,0-4.836H76.9a2.418,2.418,0,0,0,0,4.836Z" transform="translate(-53.09 -32.038)"/>
    <path id="Trazado_104656" data-name="Trazado 104656" d="M76.9,211.509h34.708a2.418,2.418,0,1,0,0-4.835H76.9a2.418,2.418,0,1,0,0,4.835Z" transform="translate(-53.09 -59.255)"/>
    <path id="Trazado_104657" data-name="Trazado 104657" d="M114.024,247.272a2.418,2.418,0,0,0-2.418-2.418H76.9a2.418,2.418,0,0,0,0,4.836h34.708A2.418,2.418,0,0,0,114.024,247.272Z" transform="translate(-53.09 -86.47)"/>
    <path id="Trazado_104658" data-name="Trazado 104658" d="M284.685,173.327h34.708a2.418,2.418,0,0,0,0-4.836H284.685a2.418,2.418,0,0,0,0,4.836Z" transform="translate(-201.201 -32.038)"/>
    <path id="Trazado_104659" data-name="Trazado 104659" d="M284.685,211.509h34.708a2.418,2.418,0,1,0,0-4.835H284.685a2.418,2.418,0,1,0,0,4.835Z" transform="translate(-201.201 -59.255)"/>
    <path id="Trazado_104660" data-name="Trazado 104660" d="M321.811,247.272a2.418,2.418,0,0,0-2.418-2.418H284.685a2.418,2.418,0,0,0,0,4.836h34.708A2.418,2.418,0,0,0,321.811,247.272Z" transform="translate(-201.201 -86.47)"/>
    <path id="Trazado_104661" data-name="Trazado 104661" d="M76.9,392.87h34.708a2.418,2.418,0,0,0,0-4.836H76.9a2.418,2.418,0,0,0,0,4.836Z" transform="translate(-53.09 -188.529)"/>
    <path id="Trazado_104662" data-name="Trazado 104662" d="M137.629,166.283v58.406h0a1.3,1.3,0,0,1-1.3,1.3H78.185a9.38,9.38,0,0,0-5,1.452v-6.61c.4-.382.729-1.283,1.968-1.283h53.584a4.124,4.124,0,0,0,4.124-4.124V166.283H128.49v48.9H75.142a6.7,6.7,0,0,0-1.956.311V129.884a1.97,1.97,0,0,1,1.968-1.968H88.613A2.186,2.186,0,0,0,90.8,125.73h0a2.186,2.186,0,0,0-2.186-2.186H75.153A6.311,6.311,0,0,0,71,125.1a6.311,6.311,0,0,0-4.154-1.556H13.263a4.124,4.124,0,0,0-4.124,4.124v1.37H5.675A5.675,5.675,0,0,0,0,134.713v58.772a2.247,2.247,0,0,0,2.119,2.277,2.186,2.186,0,0,0,2.253-2.185v-2.086q.195.016.393.016H9.138c0,25.841-.037,24.159.084,24.749a4.132,4.132,0,0,0,4.041,3.294H66.847c1.227,0,1.582.913,1.968,1.283v6.61a9.375,9.375,0,0,0-5-1.452H5.675a1.3,1.3,0,0,1-1.3-1.3V203.87a2.247,2.247,0,0,0-2.118-2.277A2.186,2.186,0,0,0,0,203.778v20.911a5.675,5.675,0,0,0,5.675,5.675H63.815a5.023,5.023,0,0,1,4.314,2.474,3.323,3.323,0,0,0,5.741,0,5.023,5.023,0,0,1,4.315-2.474h58.14A5.675,5.675,0,0,0,142,224.688V166.283ZM4.372,134.714a1.3,1.3,0,0,1,1.3-1.3H9.138v37.606H4.765c-.132,0-.263.006-.393.016Zm8.486,52.421H4.765a.394.394,0,0,1-.393-.393v-10.96a.394.394,0,0,1,.393-.393h8.092ZM68.814,215.49a6.746,6.746,0,0,0-1.955-.311H13.51V191.507H45.346a2.228,2.228,0,0,0,1.247-.392l.012-.007,9.573-6.741a3.8,3.8,0,0,0,0-6.21L46.6,171.415l-.013-.008a2.184,2.184,0,0,0-1.147-.386c-.033,0-.065-.005-.1-.005H13.51v-43.1H66.847a1.97,1.97,0,0,1,1.968,1.968ZM17.229,187.135V175.389H43.16v11.746Zm30.3-2.027v-7.693l5.462,3.846Z"/>
    <path id="Trazado_104663" data-name="Trazado 104663" d="M386.6,129.039h-3.464v-1.37a4.124,4.124,0,0,0-4.124-4.124H353.3a2.186,2.186,0,0,0-2.186,2.186h0a2.186,2.186,0,0,0,2.186,2.186h25.466v38.367h4.372V133.411H386.6a1.3,1.3,0,0,1,1.3,1.3v31.569h4.372V134.713A5.674,5.674,0,0,0,386.6,129.039Z" transform="translate(-250.273)"/>
  </g>
</svg>
