<svg xmlns="http://www.w3.org/2000/svg" xmlns:xlink="http://www.w3.org/1999/xlink" width="400" height="250" viewBox="0 0 400 250">
  <defs>
    <clipPath id="clip-path">
      <rect id="Rectángulo_5158" data-name="Rectángulo 5158" width="400" height="250" transform="translate(180 983)" fill="#990f82"/>
    </clipPath>
  </defs>
  <g id="Enmascarar_grupo_50" data-name="Enmascarar grupo 50" transform="translate(-180 -983)" clip-path="url(#clip-path)">
    <g id="Bibliophile-rafiki" transform="translate(180 880.252)">
      <g id="freepik--background-complete--inject-71" transform="translate(0 55)">
        <rect id="Rectángulo_31430" data-name="Rectángulo 31430" width="400" height="0.2" transform="translate(0 261.92)" fill="#ebebeb"/>
        <rect id="Rectángulo_31431" data-name="Rectángulo 31431" width="20.984" height="0.2" transform="translate(40.08 274.792)" fill="#ebebeb"/>
        <rect id="Rectángulo_31432" data-name="Rectángulo 31432" width="27.384" height="0.2" transform="translate(114.592 272.192)" fill="#ebebeb"/>
        <rect id="Rectángulo_31433" data-name="Rectángulo 31433" width="21.152" height="0.2" transform="translate(67.384 267.368)" fill="#ebebeb"/>
        <rect id="Rectángulo_31434" data-name="Rectángulo 31434" width="34.552" height="0.2" transform="translate(311.288 268.712)" fill="#ebebeb"/>
        <rect id="Rectángulo_31435" data-name="Rectángulo 31435" width="5.064" height="0.2" transform="translate(352.968 268.712)" fill="#ebebeb"/>
        <rect id="Rectángulo_31436" data-name="Rectángulo 31436" width="44.96" height="0.2" transform="translate(249.864 272.088)" fill="#ebebeb"/>
        <path id="Trazado_104181" data-name="Trazado 104181" d="M42.778,281.24H197.25a4.568,4.568,0,0,0,4.56-4.568V59.528A4.568,4.568,0,0,0,197.25,55H42.778a4.568,4.568,0,0,0-4.568,4.568v217.1A4.568,4.568,0,0,0,42.778,281.24ZM197.25,55.16a4.368,4.368,0,0,1,4.36,4.368V276.672a4.368,4.368,0,0,1-4.36,4.368H42.778a4.376,4.376,0,0,1-4.368-4.368V59.528a4.376,4.376,0,0,1,4.368-4.368Z" transform="translate(167.622 -55)" fill="#ebebeb"/>
        <path id="Trazado_104182" data-name="Trazado 104182" d="M259.052,281.24h154.48a4.576,4.576,0,0,0,4.568-4.568V59.528A4.576,4.576,0,0,0,413.532,55H259.052a4.568,4.568,0,0,0-4.552,4.528V276.672A4.568,4.568,0,0,0,259.052,281.24ZM413.532,55.16a4.376,4.376,0,0,1,4.368,4.368V276.672a4.376,4.376,0,0,1-4.368,4.368H259.052a4.376,4.376,0,0,1-4.368-4.368V59.528a4.376,4.376,0,0,1,4.368-4.368Z" transform="translate(-221.7 -55)" fill="#ebebeb"/>
        <rect id="Rectángulo_31437" data-name="Rectángulo 31437" width="217.056" height="124.352" transform="translate(129.648 22.768)" fill="#e6e6e6"/>
        <rect id="Rectángulo_31438" data-name="Rectángulo 31438" width="218.776" height="124.352" transform="translate(126.416 22.768)" fill="#f0f0f0"/>
        <rect id="Rectángulo_31439" data-name="Rectángulo 31439" width="114.2" height="209.736" transform="translate(340.672 27.84) rotate(90)" fill="#fafafa"/>
        <path id="Trazado_104183" data-name="Trazado 104183" d="M167.636,204,141.116,89.8H106.34L132.868,204Z" transform="translate(147.292 -61.96)" fill="#fff"/>
        <path id="Trazado_104184" data-name="Trazado 104184" d="M199.064,204,172.544,89.8h-15.7L183.36,204Z" transform="translate(75.464 -61.96)" fill="#fff"/>
        <path id="Trazado_104185" data-name="Trazado 104185" d="M288.072,204,261.544,89.8H234.72L261.248,204Z" transform="translate(-75.848 -61.96)" fill="#fff"/>
        <rect id="Rectángulo_31440" data-name="Rectángulo 31440" width="114.2" height="0.576" transform="translate(130.936 27.848) rotate(90)" fill="#e6e6e6"/>
        <rect id="Rectángulo_31441" data-name="Rectángulo 31441" width="13.04" height="124.352" transform="translate(229.28 22.768)" fill="#f0f0f0"/>
        <rect id="Rectángulo_31442" data-name="Rectángulo 31442" width="114.2" height="0.576" transform="translate(242.32 27.84) rotate(90)" fill="#e6e6e6"/>
        <rect id="Rectángulo_31443" data-name="Rectángulo 31443" width="0.456" height="124.352" transform="translate(235.576 22.768)" fill="#e6e6e6"/>
        <g id="Grupo_90667" data-name="Grupo 90667" transform="translate(122.016 16.176)" opacity="0.7">
          <rect id="Rectángulo_31444" data-name="Rectángulo 31444" width="20.864" height="100.128" transform="translate(0 0.008)" fill="#ebebeb"/>
          <rect id="Rectángulo_31445" data-name="Rectángulo 31445" width="13.512" height="88.44" transform="translate(20.864)" fill="#e0e0e0"/>
          <rect id="Rectángulo_31446" data-name="Rectángulo 31446" width="20.864" height="100.128" transform="translate(34.376 0.008)" fill="#ebebeb"/>
          <rect id="Rectángulo_31447" data-name="Rectángulo 31447" width="13.512" height="88.44" transform="translate(55.24)" fill="#e0e0e0"/>
          <rect id="Rectángulo_31448" data-name="Rectángulo 31448" width="20.864" height="100.128" transform="translate(68.752 0.008)" fill="#ebebeb"/>
          <rect id="Rectángulo_31449" data-name="Rectángulo 31449" width="13.512" height="88.44" transform="translate(89.616)" fill="#e0e0e0"/>
          <rect id="Rectángulo_31450" data-name="Rectángulo 31450" width="20.864" height="100.128" transform="translate(103.128 0.008)" fill="#ebebeb"/>
          <rect id="Rectángulo_31451" data-name="Rectángulo 31451" width="13.512" height="88.44" transform="translate(123.992)" fill="#e0e0e0"/>
          <rect id="Rectángulo_31452" data-name="Rectángulo 31452" width="20.864" height="100.128" transform="translate(137.504 0.008)" fill="#ebebeb"/>
          <rect id="Rectángulo_31453" data-name="Rectángulo 31453" width="13.512" height="88.44" transform="translate(158.368)" fill="#e0e0e0"/>
          <rect id="Rectángulo_31454" data-name="Rectángulo 31454" width="20.864" height="100.128" transform="translate(171.88 0.008)" fill="#ebebeb"/>
          <rect id="Rectángulo_31455" data-name="Rectángulo 31455" width="20.864" height="100.128" transform="translate(206.256 0.008)" fill="#ebebeb"/>
          <rect id="Rectángulo_31456" data-name="Rectángulo 31456" width="13.512" height="88.44" transform="translate(192.744)" fill="#e0e0e0"/>
        </g>
        <rect id="Rectángulo_31457" data-name="Rectángulo 31457" width="26.84" height="78.456" transform="translate(53.448 183.464)" fill="#e6e6e6"/>
        <path id="Trazado_104186" data-name="Trazado 104186" d="M422,379.016H414.83V365.48h14.68Z" transform="translate(-361.374 -117.096)" fill="#f5f5f5"/>
        <rect id="Rectángulo_31458" data-name="Rectángulo 31458" width="26.84" height="78.456" transform="translate(217.592 183.464)" fill="#e6e6e6"/>
        <rect id="Rectángulo_31459" data-name="Rectángulo 31459" width="170.392" height="73.792" transform="translate(53.456 183.464)" fill="#f5f5f5"/>
        <path id="Trazado_104187" data-name="Trazado 104187" d="M227.71,379.016h7.16V365.48H220.19Z" transform="translate(-11.022 -117.096)" fill="#f5f5f5"/>
        <rect id="Rectángulo_31460" data-name="Rectángulo 31460" width="159.28" height="27.312" transform="translate(59.008 189.936)" fill="#e6e6e6"/>
        <rect id="Rectángulo_31461" data-name="Rectángulo 31461" width="159.28" height="27.312" transform="translate(59.008 223.096)" fill="#e6e6e6"/>
        <rect id="Rectángulo_31462" data-name="Rectángulo 31462" width="41.016" height="6.576" transform="translate(42.16 58.728)" fill="#f0f0f0"/>
        <rect id="Rectángulo_31463" data-name="Rectángulo 31463" width="19.56" height="6.576" transform="translate(83.168 58.728)" fill="#e6e6e6"/>
        <path id="Trazado_104188" data-name="Trazado 104188" d="M416.732,136.63H396.98l14.4,9.4h5.352Z" transform="translate(-334.316 -71.326)" fill="#ebebeb"/>
        <path id="Trazado_104189" data-name="Trazado 104189" d="M414.152,136.63H394.4l14.4,9.4h5.352Z" transform="translate(-329.672 -71.326)" fill="#e0e0e0"/>
        <rect id="Rectángulo_31464" data-name="Rectángulo 31464" width="12.84" height="28.16" transform="translate(54.92 30.568)" fill="#e6e6e6"/>
        <rect id="Rectángulo_31465" data-name="Rectángulo 31465" width="3.712" height="28.16" transform="translate(51.208 30.56)" fill="#f0f0f0"/>
        <path id="Trazado_104190" data-name="Trazado 104190" d="M415.156,96.31H398.612l-3.992,25.68h16.552Z" transform="translate(-330.852 -63.262)" fill="#e6e6e6"/>
        <path id="Trazado_104191" data-name="Trazado 104191" d="M419.292,96.31h4.784l-3.992,25.68H415.3Z" transform="translate(-356.316 -63.262)" fill="#f0f0f0"/>
        <rect id="Rectángulo_31466" data-name="Rectángulo 31466" width="18.752" height="29.104" transform="translate(54.432 29.624)" fill="#ebebeb"/>
        <rect id="Rectángulo_31467" data-name="Rectángulo 31467" width="5.424" height="29.104" transform="translate(67.76 29.624)" fill="#f5f5f5"/>
        <path id="Trazado_104192" data-name="Trazado 104192" d="M387.3,122.452h.8v-17.52a5.512,5.512,0,0,1,11.024,0v17.52h.8v-17.52a6.312,6.312,0,0,0-12.624,0Z" transform="translate(-309.764 -63.724)" fill="#e0e0e0"/>
        <rect id="Rectángulo_31468" data-name="Rectángulo 31468" width="41.016" height="6.576" transform="translate(42.16 115.776)" fill="#f0f0f0"/>
        <rect id="Rectángulo_31469" data-name="Rectángulo 31469" width="19.56" height="6.576" transform="translate(83.168 115.768)" fill="#e6e6e6"/>
        <path id="Trazado_104193" data-name="Trazado 104193" d="M416.732,207.93H396.98l14.4,9.408h5.352Z" transform="translate(-334.316 -85.586)" fill="#ebebeb"/>
        <path id="Trazado_104194" data-name="Trazado 104194" d="M414.152,207.93H394.4l14.4,9.408h5.352Z" transform="translate(-329.672 -85.586)" fill="#e0e0e0"/>
        <rect id="Rectángulo_31470" data-name="Rectángulo 31470" width="18.752" height="20.824" transform="translate(53.384 94.944)" fill="#e0e0e0"/>
        <rect id="Rectángulo_31471" data-name="Rectángulo 31471" width="4.808" height="20.824" transform="translate(48.576 94.944)" fill="#f0f0f0"/>
        <rect id="Rectángulo_31472" data-name="Rectángulo 31472" width="16.072" height="26.712" transform="translate(61.864 89.056)" fill="#e0e0e0"/>
        <rect id="Rectángulo_31473" data-name="Rectángulo 31473" width="3.272" height="26.712" transform="translate(58.592 89.056)" fill="#ebebeb"/>
        <rect id="Rectángulo_31474" data-name="Rectángulo 31474" width="14.088" height="24.04" transform="translate(54.944 91.728)" fill="#e6e6e6"/>
        <rect id="Rectángulo_31475" data-name="Rectángulo 31475" width="4.072" height="24.04" transform="translate(64.96 91.736)" fill="#f0f0f0"/>
        <rect id="Rectángulo_31476" data-name="Rectángulo 31476" width="18.752" height="20.824" transform="translate(54.432 94.944)" fill="#f0f0f0"/>
        <rect id="Rectángulo_31477" data-name="Rectángulo 31477" width="2.712" height="20.824" transform="translate(70.472 94.944)" fill="#fafafa"/>
        <path id="Trazado_104195" data-name="Trazado 104195" d="M387.3,193.754h.8V176.242a5.512,5.512,0,1,1,11.024,0v17.512h.8V176.242a6.312,6.312,0,0,0-12.624,0Z" transform="translate(-309.764 -77.986)" fill="#e0e0e0"/>
        <rect id="Rectángulo_31478" data-name="Rectángulo 31478" width="6.904" height="65.344" transform="translate(278.64 196.576)" fill="#f5f5f5"/>
        <rect id="Rectángulo_31479" data-name="Rectángulo 31479" width="6.008" height="65.344" transform="translate(275.632 196.576)" fill="#f0f0f0"/>
        <rect id="Rectángulo_31480" data-name="Rectángulo 31480" width="6.904" height="65.344" transform="translate(348.248 196.576)" fill="#f5f5f5"/>
        <rect id="Rectángulo_31481" data-name="Rectángulo 31481" width="6.008" height="65.344" transform="translate(345.24 196.576)" fill="#f0f0f0"/>
        <rect id="Rectángulo_31482" data-name="Rectángulo 31482" width="6.904" height="65.344" transform="translate(252.464 196.576)" fill="#f5f5f5"/>
        <rect id="Rectángulo_31483" data-name="Rectángulo 31483" width="6.008" height="65.344" transform="translate(249.464 196.576)" fill="#f0f0f0"/>
        <rect id="Rectángulo_31484" data-name="Rectángulo 31484" width="6.904" height="65.344" transform="translate(322.072 196.576)" fill="#f5f5f5"/>
        <rect id="Rectángulo_31485" data-name="Rectángulo 31485" width="105.688" height="8.288" transform="translate(249.456 189.936)" fill="#f0f0f0"/>
        <rect id="Rectángulo_31486" data-name="Rectángulo 31486" width="30.072" height="8.288" transform="translate(325.072 189.936)" fill="#e6e6e6"/>
        <rect id="Rectángulo_31487" data-name="Rectángulo 31487" width="6.008" height="65.344" transform="translate(319.064 196.576)" fill="#f0f0f0"/>
      </g>
      <g id="freepik--Shadow--inject-71" transform="translate(44.888 334.936)">
        <ellipse id="freepik--path--inject-71" cx="155.112" cy="9.056" rx="155.112" ry="9.056" transform="translate(0)" fill="#f5f5f5"/>
      </g>
      <g id="freepik--Books--inject-71" transform="translate(75.208 192.4)">
        <path id="Trazado_104196" data-name="Trazado 104196" d="M3.1,40.112H163.056V0H3.1A3.1,3.1,0,0,0,0,3.1v33.9a3.1,3.1,0,0,0,3.1,3.1Z" transform="translate(11.584 111.68)" fill="#990f82"/>
        <path id="Trazado_104197" data-name="Trazado 104197" d="M3.1,40.112H163.056V0H3.1A3.1,3.1,0,0,0,0,3.1v33.9a3.1,3.1,0,0,0,3.1,3.1Z" transform="translate(11.584 111.68)" opacity="0.2"/>
        <rect id="Rectángulo_31488" data-name="Rectángulo 31488" width="24.472" height="40.112" transform="translate(110.952 111.68)" opacity="0.2"/>
        <rect id="Rectángulo_31489" data-name="Rectángulo 31489" width="12.408" height="40.112" transform="translate(88.032 111.68)" opacity="0.2"/>
        <path id="Trazado_104198" data-name="Trazado 104198" d="M170.536,366.35H117.56v40.112h52.976a3.12,3.12,0,0,0,3.12-3.12V369.47a3.12,3.12,0,0,0-3.12-3.12Z" transform="translate(57.088 -254.67)" fill="#990f82"/>
        <path id="Trazado_104199" data-name="Trazado 104199" d="M167.976,371.74H121.632a4.072,4.072,0,0,0-4.072,4.072v23.336a4.072,4.072,0,0,0,4.072,4.072h46.344Z" transform="translate(62.768 -255.748)" fill="#fff" opacity="0.9"/>
        <circle id="Elipse_4056" data-name="Elipse 4056" cx="11.472" cy="11.472" r="11.472" transform="translate(22.528 120.264)" opacity="0.2"/>
        <path id="Trazado_104200" data-name="Trazado 104200" d="M3.1,29.112h160V0H3.1A3.1,3.1,0,0,0,0,3.1V26.04A3.1,3.1,0,0,0,3.1,29.112Z" transform="translate(0 82.536)" fill="#263238"/>
        <path id="Trazado_104201" data-name="Trazado 104201" d="M3.1,29.112h160V0H3.1A3.1,3.1,0,0,0,0,3.1V26.04A3.1,3.1,0,0,0,3.1,29.112Z" transform="translate(0 82.536)" opacity="0.2"/>
        <path id="Trazado_104202" data-name="Trazado 104202" d="M185.006,330H132.03v29.112h52.976a3.12,3.12,0,0,0,3.12-3.12v-22.9a3.12,3.12,0,0,0-3.12-3.088Z" transform="translate(31.042 -247.4)" fill="#263238"/>
        <path id="Trazado_104203" data-name="Trazado 104203" d="M182.472,335.35h-46.4A4.072,4.072,0,0,0,132,339.422v12.36a4.072,4.072,0,0,0,4.072,4.088h46.4Z" transform="translate(36.72 -248.47)" fill="#fff" opacity="0.9"/>
        <rect id="Rectángulo_31490" data-name="Rectángulo 31490" width="118.624" height="15.328" rx="4.19" transform="translate(14.312 89.456)" fill="#00a7e3" opacity="0.3"/>
        <rect id="Rectángulo_31491" data-name="Rectángulo 31491" width="4.248" height="29.112" transform="translate(152.752 82.568)" fill="#00a7e3" opacity="0.3"/>
        <rect id="Rectángulo_31492" data-name="Rectángulo 31492" width="4.248" height="29.112" transform="translate(145 82.568)" fill="#00a7e3" opacity="0.3"/>
        <path id="Trazado_104204" data-name="Trazado 104204" d="M3.1,30.064H163.048V0H3.1A3.1,3.1,0,0,0,0,3.1V26.96a3.1,3.1,0,0,0,3.1,3.1Z" transform="translate(17.712 52.504)" fill="#00a7e3"/>
        <path id="Trazado_104205" data-name="Trazado 104205" d="M3.1,30.064H163.048V0H3.1A3.1,3.1,0,0,0,0,3.1V26.96a3.1,3.1,0,0,0,3.1,3.1Z" transform="translate(17.712 52.504)" opacity="0.3"/>
        <rect id="Rectángulo_31493" data-name="Rectángulo 31493" width="55.536" height="30.032" transform="translate(86.008 52.536)" fill="#fff" opacity="0.9"/>
        <rect id="Rectángulo_31494" data-name="Rectángulo 31494" width="28.16" height="30.032" transform="translate(33.992 52.536)" fill="#fff" opacity="0.9"/>
        <path id="Trazado_104206" data-name="Trazado 104206" d="M162.864,292.42H109.92v30.064h52.944a3.12,3.12,0,0,0,3.12-3.12V295.54A3.12,3.12,0,0,0,162.864,292.42Z" transform="translate(70.872 -239.884)" fill="#00a7e3"/>
        <path id="Trazado_104207" data-name="Trazado 104207" d="M160.336,297.8H113.992a4.072,4.072,0,0,0-4.072,4.072v13.272a4.072,4.072,0,0,0,4.072,4.072h46.344Z" transform="translate(76.52 -240.96)" fill="#fff" opacity="0.9"/>
        <path id="Trazado_104208" data-name="Trazado 104208" d="M3.1,19.92H163.048V0H3.1A3.1,3.1,0,0,0,0,3.1V16.816A3.1,3.1,0,0,0,3.1,19.92Z" transform="translate(6.144 32.616)" fill="#00a7e3"/>
        <path id="Trazado_104209" data-name="Trazado 104209" d="M3.1,19.92H163.048V0H3.1A3.1,3.1,0,0,0,0,3.1V16.816A3.1,3.1,0,0,0,3.1,19.92Z" transform="translate(6.144 32.616)" fill="#fff" opacity="0.3"/>
        <path id="Trazado_104210" data-name="Trazado 104210" d="M3.1,19.92H163.048V0H3.1A3.1,3.1,0,0,0,0,3.1V16.816A3.1,3.1,0,0,0,3.1,19.92Z" transform="translate(6.144 32.616)" opacity="0.2"/>
        <path id="Trazado_104211" data-name="Trazado 104211" d="M177.356,267.52H124.38v19.92h52.976a3.12,3.12,0,0,0,3.12-3.12V270.64A3.12,3.12,0,0,0,177.356,267.52Z" transform="translate(44.812 -234.904)" fill="#00a7e3"/>
        <path id="Trazado_104212" data-name="Trazado 104212" d="M177.356,267.52H124.38v19.92h52.976a3.12,3.12,0,0,0,3.12-3.12V270.64A3.12,3.12,0,0,0,177.356,267.52Z" transform="translate(44.812 -234.904)" fill="#fff" opacity="0.3"/>
        <path id="Trazado_104213" data-name="Trazado 104213" d="M174.788,272.91H128.452a4.072,4.072,0,0,0-4.072,4.072v3.2a4.072,4.072,0,0,0,4.072,4h46.336Z" transform="translate(50.5 -235.982)" fill="#fff" opacity="0.9"/>
        <rect id="Rectángulo_31495" data-name="Rectángulo 31495" width="72.496" height="9.416" transform="translate(82.384 37.872)" fill="#263238" opacity="0.4"/>
        <path id="Trazado_104214" data-name="Trazado 104214" d="M251.132,259.28H228.26v6.6h22.872a.512.512,0,0,0,.512-.512v-5.6a.512.512,0,0,0-.512-.488Z" transform="translate(-109.46 -233.256)" fill="#00a7e3"/>
        <path id="Trazado_104215" data-name="Trazado 104215" d="M251.132,259.28H228.26v6.6h22.872a.512.512,0,0,0,.512-.512v-5.6a.512.512,0,0,0-.512-.488Z" transform="translate(-109.46 -233.256)" opacity="0.2"/>
        <path id="Trazado_104216" data-name="Trazado 104216" d="M.544,6.6H9.232V0H.512A.512.512,0,0,0,0,.512v5.6A.512.512,0,0,0,.544,6.6Z" transform="translate(109.536 26.032)" fill="#00a7e3"/>
        <path id="Trazado_104217" data-name="Trazado 104217" d="M0,5.184H7.624A.672.672,0,0,0,8.3,4.512V.672A.672.672,0,0,0,7.624,0H0V5.184Z" transform="translate(109.56 26.736)" fill="#fff" opacity="0.9"/>
        <path id="Trazado_104218" data-name="Trazado 104218" d="M248.752,253.29H225.88v4.8h22.872a.512.512,0,0,0,.512-.512V253.81a.512.512,0,0,0-.512-.52Z" transform="translate(-105.176 -232.058)" fill="#263238"/>
        <path id="Trazado_104219" data-name="Trazado 104219" d="M248.752,253.29H225.88v4.8h22.872a.512.512,0,0,0,.512-.512V253.81a.512.512,0,0,0-.512-.52Z" transform="translate(-105.176 -232.058)" opacity="0.2"/>
        <path id="Trazado_104220" data-name="Trazado 104220" d="M.512,4.8h8.72V0H.512A.512.512,0,0,0,0,.512V4.28a.512.512,0,0,0,.512.52Z" transform="translate(111.472 21.232)" fill="#263238"/>
        <path id="Trazado_104221" data-name="Trazado 104221" d="M0,3.376H7.624A.672.672,0,0,0,8.3,2.7V.672A.672.672,0,0,0,7.624,0H0Z" transform="translate(111.464 21.944)" fill="#fff" opacity="0.9"/>
        <path id="Trazado_104222" data-name="Trazado 104222" d="M252.392,247.12H229.52v4.944h22.872a.512.512,0,0,0,.512-.512v-3.92A.512.512,0,0,0,252.392,247.12Z" transform="translate(-111.728 -230.824)" fill="#00a7e3"/>
        <path id="Trazado_104223" data-name="Trazado 104223" d="M252.392,247.12H229.52v4.944h22.872a.512.512,0,0,0,.512-.512v-3.92A.512.512,0,0,0,252.392,247.12Z" transform="translate(-111.728 -230.824)" opacity="0.3"/>
        <path id="Trazado_104224" data-name="Trazado 104224" d="M.512,4.944h8.72V0H.512A.512.512,0,0,0,0,.512V4.424a.512.512,0,0,0,.512.52Z" transform="translate(108.56 16.288)" fill="#00a7e3"/>
        <path id="Trazado_104225" data-name="Trazado 104225" d="M0,3.528H7.624A.672.672,0,0,0,8.3,2.856V.672A.672.672,0,0,0,7.624,0H0Z" transform="translate(108.56 17)" fill="#fff" opacity="0.9"/>
        <path id="Trazado_104226" data-name="Trazado 104226" d="M250.012,243H227.14v3.28h22.872a.512.512,0,0,0,.512-.512v-2.256A.512.512,0,0,0,250.012,243Z" transform="translate(-107.444 -230)" fill="#00a7e3"/>
        <path id="Trazado_104227" data-name="Trazado 104227" d="M250.012,243H227.14v3.28h22.872a.512.512,0,0,0,.512-.512v-2.256A.512.512,0,0,0,250.012,243Z" transform="translate(-107.444 -230)" fill="#fff" opacity="0.3"/>
        <path id="Trazado_104228" data-name="Trazado 104228" d="M250.012,243H227.14v3.28h22.872a.512.512,0,0,0,.512-.512v-2.256A.512.512,0,0,0,250.012,243Z" transform="translate(-107.444 -230)" opacity="0.2"/>
        <path id="Trazado_104229" data-name="Trazado 104229" d="M.512,3.28h8.72V0H.512A.512.512,0,0,0,0,.512V2.76a.512.512,0,0,0,.512.52Z" transform="translate(110.456 13.032)" fill="#00a7e3"/>
        <path id="Trazado_104230" data-name="Trazado 104230" d="M.512,3.28h8.72V0H.512A.512.512,0,0,0,0,.512V2.76a.512.512,0,0,0,.512.52Z" transform="translate(110.456 13.032)" fill="#fff" opacity="0.3"/>
        <path id="Trazado_104231" data-name="Trazado 104231" d="M0,1.864H7.624A.672.672,0,0,0,8.3,1.192V.672A.672.672,0,0,0,7.624,0H0V1.864Z" transform="translate(110.464 13.72)" fill="#fff" opacity="0.9"/>
        <path id="Trazado_104232" data-name="Trazado 104232" d="M248.752,237H225.88v4.8h22.872a.512.512,0,0,0,.512-.512V237.52a.512.512,0,0,0-.512-.52Z" transform="translate(-105.176 -228.8)" fill="#263238"/>
        <path id="Trazado_104233" data-name="Trazado 104233" d="M248.752,237H225.88v4.8h22.872a.512.512,0,0,0,.512-.512V237.52a.512.512,0,0,0-.512-.52Z" transform="translate(-105.176 -228.8)" opacity="0.2"/>
        <path id="Trazado_104234" data-name="Trazado 104234" d="M.536,4.8H6.328V0H.512A.512.512,0,0,0,0,.512V4.28a.512.512,0,0,0,.536.52Z" transform="translate(114.352 8.24)" fill="#263238"/>
        <path id="Trazado_104235" data-name="Trazado 104235" d="M0,3.376H4.72A.672.672,0,0,0,5.392,2.7V.672A.672.672,0,0,0,4.72,0H0V3.376Z" transform="translate(114.368 8.928)" fill="#fff" opacity="0.9"/>
        <path id="Trazado_104236" data-name="Trazado 104236" d="M252.392,230.85H229.52v4.92h22.872a.512.512,0,0,0,.512-.512v-3.92a.512.512,0,0,0-.512-.488Z" transform="translate(-111.728 -227.57)" fill="#00a7e3"/>
        <path id="Trazado_104237" data-name="Trazado 104237" d="M252.392,230.85H229.52v4.92h22.872a.512.512,0,0,0,.512-.512v-3.92a.512.512,0,0,0-.512-.488Z" transform="translate(-111.728 -227.57)" opacity="0.3"/>
        <path id="Trazado_104238" data-name="Trazado 104238" d="M.512,4.92H6.328V0H.512A.512.512,0,0,0,0,.512V4.424a.512.512,0,0,0,.512.5Z" transform="translate(111.464 3.304)" fill="#00a7e3"/>
        <path id="Trazado_104239" data-name="Trazado 104239" d="M0,3.528H4.72a.672.672,0,0,0,.672-.672V.672A.672.672,0,0,0,4.72,0H0V3.528Z" transform="translate(111.464 3.984)" fill="#fff" opacity="0.9"/>
        <path id="Trazado_104240" data-name="Trazado 104240" d="M250.012,226.76H227.14v3.28h22.872a.512.512,0,0,0,.512-.512v-2.256A.512.512,0,0,0,250.012,226.76Z" transform="translate(-107.444 -226.752)" fill="#00a7e3"/>
        <path id="Trazado_104241" data-name="Trazado 104241" d="M250.012,226.76H227.14v3.28h22.872a.512.512,0,0,0,.512-.512v-2.256A.512.512,0,0,0,250.012,226.76Z" transform="translate(-107.444 -226.752)" fill="#fff" opacity="0.3"/>
        <path id="Trazado_104242" data-name="Trazado 104242" d="M250.012,226.76H227.14v3.28h22.872a.512.512,0,0,0,.512-.512v-2.256A.512.512,0,0,0,250.012,226.76Z" transform="translate(-107.444 -226.752)" opacity="0.2"/>
        <path id="Trazado_104243" data-name="Trazado 104243" d="M.512,3.28H6.328V0H.512A.512.512,0,0,0,0,.512V2.768A.512.512,0,0,0,.512,3.28Z" transform="translate(113.36)" fill="#00a7e3"/>
        <path id="Trazado_104244" data-name="Trazado 104244" d="M.512,3.28H6.328V0H.512A.512.512,0,0,0,0,.512V2.768A.512.512,0,0,0,.512,3.28Z" transform="translate(113.36)" fill="#fff" opacity="0.3"/>
        <path id="Trazado_104245" data-name="Trazado 104245" d="M0,1.864H4.72a.672.672,0,0,0,.672-.672V.672A.672.672,0,0,0,4.72,0H0V1.864Z" transform="translate(113.368 0.712)" fill="#fff" opacity="0.9"/>
      </g>
      <g id="freepik--Character--inject-71" transform="translate(218.521 115.912)">
        <path id="Trazado_104246" data-name="Trazado 104246" d="M104.438,332.558l5.28-2.648-4.288-13.12-5.28,2.648Z" transform="translate(-8.359 -168.27)" fill="#ffc3bd"/>
        <path id="Trazado_104247" data-name="Trazado 104247" d="M91.346,330.6l-6.48,1.36a.432.432,0,0,0-.352.488l.8,5.192a1.04,1.04,0,0,0,1.224.8c2.248-.512,3.3-.872,6.152-1.472,1.752-.368,7.808-1.6,10.144-2.4s1.48-3.1.416-2.96c-4.8.592-8.9.056-10.8-.88a1.68,1.68,0,0,0-1.1-.128Z" transform="translate(9.549 -171.023)" fill="#263238"/>
        <path id="Trazado_104248" data-name="Trazado 104248" d="M102.44,319.448l5.28-2.648,2.456,7.528-5.528,1.88Z" transform="translate(-10.649 -168.272)" opacity="0.2"/>
        <path id="Trazado_104249" data-name="Trazado 104249" d="M122.336,237.43s45.272,4.384,49.056,20.872c5.448,23.688,12.8,46.2,12.8,46.2l-10.128,1.784c-1.552-6.744-13.1-30.4-18.512-46.344-12.264-1.832-45.048,5.128-49.96-4.2a35.448,35.448,0,0,1-3.912-15.288Z" transform="translate(-84.057 -152.398)" fill="#990f82"/>
        <path id="Trazado_104250" data-name="Trazado 104250" d="M122.336,237.43s45.272,4.384,49.056,20.872c5.448,23.688,12.8,46.2,12.8,46.2l-10.128,1.784c-1.552-6.744-13.1-30.4-18.512-46.344-12.264-1.832-45.048,5.128-49.96-4.2a35.448,35.448,0,0,1-3.912-15.288Z" transform="translate(-84.057 -152.398)" opacity="0.3"/>
        <path id="Trazado_104251" data-name="Trazado 104251" d="M101.41,325.718l11.84-4.288-.568-4.76-12.392,3.264Z" transform="translate(-12.003 -168.246)" fill="#990f82"/>
        <path id="Trazado_104252" data-name="Trazado 104252" d="M98.272,330.925a6.889,6.889,0,0,1-1.6.112.144.144,0,0,1-.128-.08.152.152,0,0,1,0-.144c.16-.168,1.6-1.6,2.32-1.5a.536.536,0,0,1,.4.32.752.752,0,0,1,0,.8A1.6,1.6,0,0,1,98.272,330.925Zm-1.248-.16c1.072,0,1.824-.2,2.04-.528a.48.48,0,0,0,0-.5.232.232,0,0,0-.184-.16c-.424-.072-1.28.616-1.856,1.184Z" transform="translate(4.879 -170.773)" fill="#990f82"/>
        <path id="Trazado_104253" data-name="Trazado 104253" d="M98.956,330.768h-.064a.136.136,0,0,1-.088-.1c0-.064-.5-1.7,0-2.4a.68.68,0,0,1,.536-.3.512.512,0,0,1,.568.3,3.066,3.066,0,0,1-.84,2.448Zm.3-2.5a.408.408,0,0,0-.264.176,3.056,3.056,0,0,0,0,1.912,2.752,2.752,0,0,0,.64-1.96c0-.072-.1-.152-.3-.136Z" transform="translate(2.86 -170.497)" fill="#990f82"/>
        <path id="Trazado_104254" data-name="Trazado 104254" d="M150.32,185.388c.272,2.976.7,5.776,1.168,8.648s1.072,5.7,1.816,8.56a61.059,61.059,0,0,0,2.816,8.584,28.057,28.057,0,0,0,2.248,4.376,15.752,15.752,0,0,0,1.688,2.232,11.016,11.016,0,0,0,2.616,2.16l.336.192.184.064a9.192,9.192,0,0,0,5.384.176,16.376,16.376,0,0,0,3.776-1.488,24.643,24.643,0,0,0,3.088-2c.48-.36.928-.752,1.376-1.144a17.361,17.361,0,0,0,1.328-1.248l-2.512-3.64c-.936.3-1.944.7-2.912.984s-1.928.6-2.848.8a12,12,0,0,1-2.512.352c-.712,0-1.216-.192-1.088-.248l.52.256a6.44,6.44,0,0,1-1.32-1.776,23.4,23.4,0,0,1-1.432-3.2,64.913,64.913,0,0,1-2.136-7.52c-.584-2.616-1.088-5.28-1.528-8s-.8-5.44-1.168-8.048Z" transform="translate(-116.921 -141.804)" fill="#ffc3bd"/>
        <path id="Trazado_104255" data-name="Trazado 104255" d="M182.411,179.414c5.5,4.8,5.2,16.48,5.2,16.48l-14.544,5.248c-3.08-4.8-4.592-13.968-4.32-17.9C169.171,177.19,175.883,173.7,182.411,179.414Z" transform="translate(-141.108 -140.214)" fill="#263238"/>
        <path id="Trazado_104256" data-name="Trazado 104256" d="M174.039,185.033c2.616-1.256,6.192-.856,9.728,2.232,3.2,2.792,4.44,7.936,4.9,11.736l-10.3,3.712C175.343,197.993,173.831,189.073,174.039,185.033Z" transform="translate(-146.408 -141.785)" opacity="0.2"/>
        <path id="Trazado_104257" data-name="Trazado 104257" d="M90.7,315.952l1.76-5.632-12.24-6.64-1.752,5.632Z" transform="translate(26.241 -165.648)" fill="#ffc3bd"/>
        <path id="Trazado_104258" data-name="Trazado 104258" d="M67.857,309.8l-4.432,4.92a.416.416,0,0,0,0,.592l3.68,3.752A1.04,1.04,0,0,0,68.577,319c1.512-1.736,2.152-2.648,4.1-4.8,1.2-1.328,5.416-5.72,7.072-7.56s-.208-3.424-1.072-2.792c-3.888,2.824-7.784,5.088-9.872,5.448a1.712,1.712,0,0,0-.952.5Z" transform="translate(50.422 -165.652)" fill="#263238"/>
        <path id="Trazado_104259" data-name="Trazado 104259" d="M82.61,309.312l1.752-5.632,8.928,4.848L89.57,313.1Z" transform="translate(22.101 -165.648)" opacity="0.2"/>
        <path id="Trazado_104260" data-name="Trazado 104260" d="M109.9,239.5s31.04,4.16,37.44,12.656c11.144,14.792,46.4,39.2,46.4,39.2l-3.2,10.312S142.489,281.4,133.945,264.46c-15.7-1.208-41.232,3.96-45.256-5.784-2.68-6.488-1.368-16.176-1.368-16.176Z" transform="translate(-81.858 -152.812)" fill="#990f82"/>
        <path id="Trazado_104261" data-name="Trazado 104261" d="M109.9,239.5s31.04,4.16,37.44,12.656c11.144,14.792,46.4,39.2,46.4,39.2l-3.2,10.312S142.489,281.4,133.945,264.46c-15.7-1.208-41.232,3.96-45.256-5.784-2.68-6.488-1.368-16.176-1.368-16.176Z" transform="translate(-81.858 -152.812)" opacity="0.2"/>
        <path id="Trazado_104262" data-name="Trazado 104262" d="M87.352,315.428l6.832-11.016-4.368-3.592L83.24,312.676Z" transform="translate(20.703 -165.076)" fill="#990f82"/>
        <path id="Trazado_104263" data-name="Trazado 104263" d="M77.026,309.8a7.48,7.48,0,0,1-1.208,1.024.136.136,0,0,1-.152,0,.128.128,0,0,1-.064-.136c0-.224.3-2.232.992-2.576a.52.52,0,0,1,.5,0,.8.8,0,0,1,.44.624A1.6,1.6,0,0,1,77.026,309.8Zm-1.1.616c.864-.648,1.36-1.24,1.336-1.6a.5.5,0,0,0-.3-.4.248.248,0,0,0-.248,0c-.368.136-.656,1.192-.792,1.992Z" transform="translate(43.461 -166.521)" fill="#990f82"/>
        <path id="Trazado_104264" data-name="Trazado 104264" d="M79.269,310.843h-.056a.1.1,0,0,1-.128,0c-.064,0-1.408-1.08-1.44-1.9a.736.736,0,0,1,.248-.568.544.544,0,0,1,.648-.088,3.067,3.067,0,0,1,.76,2.48.16.16,0,0,1-.032.08Zm-1.24-2.2a.408.408,0,0,0-.1.3c0,.5.7,1.184,1.128,1.544a2.776,2.776,0,0,0-.648-1.944.264.264,0,0,0-.328.056Z" transform="translate(40.034 -166.554)" fill="#990f82"/>
        <path id="Trazado_104265" data-name="Trazado 104265" d="M145.43,217.7l4.7-4.544,3.264,6.4s-5.712,3.128-7.144,1.7Z" transform="translate(-88.263 -147.544)" fill="#ffc3bd"/>
        <path id="Trazado_104266" data-name="Trazado 104266" d="M146.888,213.1l.848,5.248-3.832,1.16-3.264-6.36Z" transform="translate(-78.769 -147.532)" fill="#ffc3bd"/>
        <path id="Trazado_104267" data-name="Trazado 104267" d="M179.906,174.43c.592-1.56,1.648-3.1,3.32-3.08.344,0,2.4,0,2.768.048,1.92.048,4.32.176,6.64.472a116.648,116.648,0,0,1,13.208,2.3c2,.544,3.92,1.224,5.456,1.808h.056a4.3,4.3,0,0,1,2.712,4.424c-.8,8.456-2.784,31.936-1.6,44.1l-32.8,4.32c-1.968-6.256-2.752-20.584-2.768-32.264C176.834,189.534,177.466,180.806,179.906,174.43Z" transform="translate(-174.123 -139.182)" fill="#263238"/>
        <path id="Trazado_104268" data-name="Trazado 104268" d="M193.53,195.34l.648.048,4.16,3.6,4.3,14.824,14.784,2.584c-3.592,1.816-14.04,2.184-20.216.544a4.92,4.92,0,0,1-3.616-4.576c-.152-3.7-.224-7.464-.224-10.992C193.37,199.46,193.41,197.42,193.53,195.34Z" transform="translate(-190.643 -143.98)" opacity="0.2"/>
        <path id="Trazado_104269" data-name="Trazado 104269" d="M176.442,201.209s-2.888-1.6-8.3-.048a13.968,13.968,0,0,1-9.224-.264l-2.024,3.792,18.4.64Z" transform="translate(-120.475 -145.008)" fill="#00a7e3"/>
        <path id="Trazado_104270" data-name="Trazado 104270" d="M176.442,201.209s-2.888-1.6-8.3-.048a13.968,13.968,0,0,1-9.224-.264l-2.024,3.792,18.4.64Z" transform="translate(-120.475 -145.008)" fill="#fff" opacity="0.8"/>
        <path id="Trazado_104271" data-name="Trazado 104271" d="M140.654,200.562s.12-1.16,3.616-1.28c7.032-.232,10-2.032,10-2.032l.288,1.816-15.048,5.6Z" transform="translate(-84.687 -144.362)" fill="#00a7e3"/>
        <path id="Trazado_104272" data-name="Trazado 104272" d="M140.654,200.562s.12-1.16,3.616-1.28c7.032-.232,10-2.032,10-2.032l.288,1.816-15.048,5.6Z" transform="translate(-84.687 -144.362)" fill="#fff" opacity="0.8"/>
        <path id="Trazado_104273" data-name="Trazado 104273" d="M138.769,227.788l13.024-3.712a1.048,1.048,0,0,0,.688-.7l6.664-24.128a.632.632,0,0,0-.8-.8L145.937,202Z" transform="translate(-88.714 -144.596)" fill="#990f82"/>
        <path id="Trazado_104274" data-name="Trazado 104274" d="M160.006,229.85l17.12-.952,7.128-25.808-17.36.968a.968.968,0,0,0-.848.7l-6.7,24.256a.616.616,0,0,0,.664.832Z" transform="translate(-130.215 -145.53)" fill="#990f82"/>
        <path id="Trazado_104275" data-name="Trazado 104275" d="M158.514,228.678l-3.144.176,7.128-25.808,3.144-.176Z" transform="translate(-108.459 -145.486)" fill="#990f82"/>
        <path id="Trazado_104276" data-name="Trazado 104276" d="M158.514,228.678l-3.144.176,7.128-25.808,3.144-.176Z" transform="translate(-108.459 -145.486)" opacity="0.3"/>
        <path id="Trazado_104277" data-name="Trazado 104277" d="M187.617,182.53c-.168,1.152-.28,2.128-.36,3.2s-.136,2.064-.184,3.1c-.072,2.064-.056,4.136.072,6.216a47.6,47.6,0,0,0,2.312,12.552,5.682,5.682,0,0,0,.24.672,8.24,8.24,0,0,0,.376.752,7.633,7.633,0,0,0,.9,1.256,8.52,8.52,0,0,0,1.976,1.64,14.4,14.4,0,0,0,3.632,1.536,30.625,30.625,0,0,0,6.5.984,59.8,59.8,0,0,0,12.224-.68l-.208-4.424a111.658,111.658,0,0,1-11.2-1.6,28.143,28.143,0,0,1-4.96-1.416,6.7,6.7,0,0,1-1.664-.92c-.168-.144-.248-.264-.232-.28s.04,0,.064.056a.8.8,0,0,1,.064.088h0a45.649,45.649,0,0,1-.88-5.16c-.168-1.776-.288-3.576-.312-5.4s0-3.664.08-5.5c.04-.92.088-1.84.16-2.752l.112-1.368.12-1.28Z" transform="translate(-183.442 -141.418)" fill="#ffc3bd"/>
        <path id="Trazado_104278" data-name="Trazado 104278" d="M210.389,173.239c3.888-2.968,9.256-2.88,11.456,4.936,1.44,5.12.672,15.424.672,15.424l-15.528-.312C205.253,185.1,206.453,176.247,210.389,173.239Z" transform="translate(-206.214 -139.199)" fill="#263238"/>
        <path id="Trazado_104279" data-name="Trazado 104279" d="M190.318,155.68l3.264,3.832,4.448,5.224a15.859,15.859,0,0,0-.7,2.048c-.8,2.768,1.72,3.328,4,4.728,0,0,3.416,4.52-4.8,3.2s-9.384-5.6-9.384-5.6C190.838,166.608,190.574,160.464,190.318,155.68Z" transform="translate(-170.279 -136.048)" fill="#ffc3bd"/>
        <path id="Trazado_104280" data-name="Trazado 104280" d="M189.426,178.8a20.525,20.525,0,0,0,2.52.552,13.745,13.745,0,0,0,3.328.2l.192.952c.3.208.368,1.32-1.5,2.64C191.986,182.736,188.922,181.048,189.426,178.8Z" transform="translate(-165.643 -140.672)" fill="#00a7e3"/>
        <path id="Trazado_104281" data-name="Trazado 104281" d="M197.194,170.75s1.552,4.152,7.2,5.672a6.662,6.662,0,0,0,.512,4.7s-7.88-2.7-9.52-5.392-.936-4.272-.936-4.272a6.808,6.808,0,0,1,2.744-.712Z" transform="translate(-178.867 -139.062)" fill="#263238"/>
        <path id="Trazado_104282" data-name="Trazado 104282" d="M187.776,181.4s-.056-3.44-1.064-4.592a3.787,3.787,0,0,0-.568-3.752,6.792,6.792,0,0,1,4.248,2.768C191.472,177.628,190.72,181.452,187.776,181.4Z" transform="translate(-158.297 -139.524)" fill="#263238"/>
        <path id="Trazado_104283" data-name="Trazado 104283" d="M196.86,165.694a15.857,15.857,0,0,0-.7,2.048c-1.872-.728-4.1-3.248-4-5.28a9.234,9.234,0,0,1,.28-1.992Z" transform="translate(-169.108 -137.006)" opacity="0.2"/>
        <path id="Trazado_104284" data-name="Trazado 104284" d="M187.346,143.827c1.544,3.24.216,10.936-7.1,7.872S184.834,138.571,187.346,143.827Z" transform="translate(-148.755 -133.378)" fill="#263238"/>
        <path id="Trazado_104285" data-name="Trazado 104285" d="M202.451,152.449c.672,1.4.1,4.728-3.064,3.408S201.4,150.177,202.451,152.449Z" transform="translate(-179.924 -135.273)" fill="#263238"/>
        <path id="Trazado_104286" data-name="Trazado 104286" d="M202.334,155.309c1.024,1.168,1.368,4.528-2.04,4.1S200.678,153.381,202.334,155.309Z" transform="translate(-180.695 -135.893)" fill="#263238"/>
        <path id="Trazado_104287" data-name="Trazado 104287" d="M181,142.805c-1.328,6.2-2.4,9.744-.248,13.832a8.24,8.24,0,0,0,14.592.1c2.816-5.056,4.52-14.344-.7-18.632a8.344,8.344,0,0,0-13.648,4.7Z" transform="translate(-160.16 -132.125)" fill="#ffc3bd"/>
        <path id="Trazado_104288" data-name="Trazado 104288" d="M180.074,134.612c1.264-5.5,8.64-3.592,12.4-.264s4.728,5.944,7.9,7.912c-5.848.8-14.128-1.52-15.68-3.488a6.176,6.176,0,0,1-2.528,5.008,40.8,40.8,0,0,1,0,5.176l-2.672-1.36-3.112-1.248C171.786,138.588,174.5,133.8,180.074,134.612Z" transform="translate(-158.131 -131.14)" fill="#263238"/>
        <path id="Trazado_104289" data-name="Trazado 104289" d="M199.707,149.343a.214.214,0,0,0,.04-.424l-8.672-1.48a.216.216,0,0,0-.248.176.208.208,0,0,0,.176.24l8.672,1.48Z" transform="translate(-171.1 -134.399)" fill="#fff"/>
        <path id="Trazado_104290" data-name="Trazado 104290" d="M186.64,154.32h0c1.6,0,3.36-1.72,3.928-3.808a3.544,3.544,0,0,0-.36-3.112,1.928,1.928,0,0,0-1.6-.8h0c-1.6,0-3.368,1.72-3.936,3.808h0a3.592,3.592,0,0,0,.368,3.12A1.92,1.92,0,0,0,186.64,154.32Zm2.008-7.264a1.52,1.52,0,0,1,1.24.6,3.2,3.2,0,0,1,.288,2.744c-.52,1.92-2.1,3.488-3.528,3.5a1.44,1.44,0,0,1-1.248-.6,3.2,3.2,0,0,1-.3-2.744c.52-1.92,2.1-3.488,3.528-3.5Z" transform="translate(-156.873 -134.232)" fill="#fff"/>
        <path id="Trazado_104291" data-name="Trazado 104291" d="M184.757,152.771a.256.256,0,0,0,.112,0,.208.208,0,0,0,.072-.3,1.6,1.6,0,0,0-1.6-.584.224.224,0,0,0-.16.256.216.216,0,0,0,.256.16,1.187,1.187,0,0,1,1.176.392A.2.2,0,0,0,184.757,152.771Z" transform="translate(-150.038 -135.283)" fill="#fff"/>
        <path id="Trazado_104292" data-name="Trazado 104292" d="M198.469,149.537a6.7,6.7,0,0,0,2.632,3.928c1.736,1.184,3.1-.288,3.024-2.352-.064-1.856-1.04-4.7-2.984-5.064S198.029,147.6,198.469,149.537Z" transform="translate(-181.35 -134.113)" fill="#ffc3bd"/>
        <path id="Trazado_104293" data-name="Trazado 104293" d="M187.067,150.852c-.232.456-.176.96.12,1.12s.72-.08.952-.544.168-.96-.12-1.12S187.3,150.388,187.067,150.852Z" transform="translate(-156.34 -134.963)" fill="#263238"/>
        <path id="Trazado_104294" data-name="Trazado 104294" d="M180.709,153.443c-.208.472-.128.968.176,1.112s.72-.12.92-.592.12-.976-.184-1.112S180.909,152.963,180.709,153.443Z" transform="translate(-144.91 -135.474)" fill="#263238"/>
        <path id="Trazado_104295" data-name="Trazado 104295" d="M180.343,149.472a.3.3,0,0,1-.208-.2,2.52,2.52,0,0,0-1.5-1.6.3.3,0,0,1-.2-.376.288.288,0,0,1,.368-.2h0a3.08,3.08,0,0,1,1.912,2.032.288.288,0,0,1-.192.376A.272.272,0,0,1,180.343,149.472Z" transform="translate(-141.984 -134.328)" fill="#263238"/>
        <path id="Trazado_104296" data-name="Trazado 104296" d="M179.186,156.556h0c1.456,0,3.064-1.6,3.584-3.472a3.264,3.264,0,0,0-.336-2.848,1.752,1.752,0,0,0-1.44-.7h0c-1.464,0-3.072,1.6-3.592,3.472h0a3.264,3.264,0,0,0,.336,2.84A1.752,1.752,0,0,0,179.186,156.556Zm1.824-6.6a1.336,1.336,0,0,1,1.1.544,2.848,2.848,0,0,1,.264,2.472c-.472,1.736-1.9,3.152-3.2,3.16h0a1.352,1.352,0,0,1-1.112-.536,2.88,2.88,0,0,1-.264-2.472h0c.472-1.736,1.9-3.152,3.2-3.2Z" transform="translate(-143.251 -134.82)" fill="#fff"/>
        <path id="Trazado_104297" data-name="Trazado 104297" d="M184.7,152.68a16.3,16.3,0,0,0,.7,4.288,2.5,2.5,0,0,1-2.08-.392Z" transform="translate(-150.577 -135.448)" fill="#ed847e"/>
        <path id="Trazado_104298" data-name="Trazado 104298" d="M188.985,159.253a4.424,4.424,0,0,1-2.7-2.176.152.152,0,0,1,.08-.2.16.16,0,0,1,.2.072,4.216,4.216,0,0,0,3.056,2.144.16.16,0,0,1,.128.176.152.152,0,0,1-.176.12,4.159,4.159,0,0,1-.584-.136Z" transform="translate(-157.282 -136.285)" fill="#263238"/>
        <path id="Trazado_104299" data-name="Trazado 104299" d="M185.9,146.083a.264.264,0,0,1-.1-.1.3.3,0,0,1,.1-.416,2.912,2.912,0,0,1,2.72-.168.3.3,0,0,1,.128.408.3.3,0,0,1-.408.128,2.3,2.3,0,0,0-2.136.152.28.28,0,0,1-.3,0Z" transform="translate(-155.91 -133.939)" fill="#263238"/>
        <path id="Trazado_104300" data-name="Trazado 104300" d="M183.944,215.818l5.016-2.128-.168,6.4s-4.968,2.008-5.792-.64Z" transform="translate(-153.881 -147.65)" fill="#ffc3bd"/>
        <path id="Trazado_104301" data-name="Trazado 104301" d="M181.618,215.122l-1.1,4.552-5.3.392.168-6.376Z" transform="translate(-140.307 -147.65)" fill="#ffc3bd"/>
      </g>
    </g>
  </g>
</svg>
