<svg xmlns="http://www.w3.org/2000/svg" width="142" height="127.794" viewBox="0 0 142 127.794">
  <g id="communications" transform="translate(-0.001)">
    <path id="Trazado_104684" data-name="Trazado 104684" d="M20.994,43.88,8,47.335V154.214l12.994-3.455a87.724,87.724,0,0,1,55.261,3.313l.379.142V47.335l-.379-.142A87.74,87.74,0,0,0,20.994,43.88Zm0,0" transform="translate(-5.633 -28.804)" fill="#a1d51c"/>
    <path id="Trazado_104685" data-name="Trazado 104685" d="M295.64,43.88l12.994,3.455V154.214l-12.994-3.455a87.724,87.724,0,0,0-55.261,3.313l-.379.142V47.335l.379-.142A87.74,87.74,0,0,1,295.64,43.88Zm0,0" transform="translate(-168.999 -28.804)" fill="#00a7e3"/>
    <path id="Trazado_104686" data-name="Trazado 104686" d="M44.873,140.678a23.88,23.88,0,0,1-23.879-23.667V50.957L8,54.412V161.291l12.994-3.455a87.724,87.724,0,0,1,55.261,3.313l.379.142v-14.2l-.379-.142a87.546,87.546,0,0,0-31.381-6.271Zm0,0" transform="translate(-5.633 -35.882)" fill="#008fc2"/>
    <path id="Trazado_104687" data-name="Trazado 104687" d="M274.838,142.144a23.667,23.667,0,0,1-23-23.644V49.679a86.106,86.106,0,0,0-11.454,3.691l-.379.142V160.391l.379-.142a87.724,87.724,0,0,1,55.261-3.313l12.994,3.455V148.558L295.64,145.1a87.687,87.687,0,0,0-20.8-2.958Zm0,0" transform="translate(-169 -34.982)" fill="#008fc2"/>
    <path id="Trazado_104688" data-name="Trazado 104688" d="M51.194,10.475,40,13.456V117.59l11.194-2.981a75.729,75.729,0,0,1,47.641,2.864l.332.118V13.456l-.332-.118a75.729,75.729,0,0,0-47.641-2.864Zm0,0" transform="translate(-28.166 -5.576)" fill="#fff"/>
    <path id="Trazado_104689" data-name="Trazado 104689" d="M73.985,105.851A23.666,23.666,0,0,1,51.194,82.185V15.918L40,19.089V123.222l11.194-2.981A75.729,75.729,0,0,1,98.835,123.1l.332.118V111.389l-.332-.118a75.319,75.319,0,0,0-24.85-5.42Zm0,0" transform="translate(-28.166 -11.209)" fill="#def0fb"/>
    <path id="Trazado_104690" data-name="Trazado 104690" d="M287.972,10.475l11.194,2.981V117.59l-11.194-2.981a75.729,75.729,0,0,0-47.641,2.864l-.332.118V13.456l.332-.118a75.729,75.729,0,0,1,47.641-2.864Zm0,0" transform="translate(-168.999 -5.576)" fill="#fff"/>
    <path id="Trazado_104691" data-name="Trazado 104691" d="M273.535,104.776a23.666,23.666,0,0,1-21.7-23.832V14.156a73.419,73.419,0,0,0-11.5,3.574l-.332.118V121.982l.332-.118A75.729,75.729,0,0,1,287.972,119l11.194,2.981V110.148l-11.194-2.981a77.309,77.309,0,0,0-14.437-2.391Zm0,0" transform="translate(-168.999 -9.968)" fill="#def0fb"/>
    <path id="Trazado_104692" data-name="Trazado 104692" d="M121.133,94.783a60.176,60.176,0,0,0-33.133,0v-28.4a60.176,60.176,0,0,1,33.133,0Zm0,0" transform="translate(-61.966 -45.107)" fill="#93cef1"/>
    <path id="Trazado_104693" data-name="Trazado 104693" d="M362.933,78.189l-5.088-1.657a26.676,26.676,0,0,0-13.7-.71H344v-21.3a26.764,26.764,0,0,1,13.8.71l5.135,1.657Zm0,0" transform="translate(-242.233 -37.98)" fill="#00a7e3"/>
    <path id="Trazado_104694" data-name="Trazado 104694" d="M280,278.189l5.088-1.657a26.675,26.675,0,0,1,13.7-.71h.142v-21.3a26.764,26.764,0,0,0-13.8.71L280,256.889Zm0,0" transform="translate(-197.166 -178.813)" fill="#93cef1"/>
    <path id="Trazado_104695" data-name="Trazado 104695" d="M298.933,282.345v-2.579A23.528,23.528,0,0,1,280.946,263.2l-.946.213v21.3l5.088-1.657a26.675,26.675,0,0,1,13.7-.71Zm0,0" transform="translate(-197.166 -185.336)" fill="#7caecc"/>
    <g id="Grupo_90706" data-name="Grupo 90706" transform="translate(0.001 0)">
      <path id="Trazado_104696" data-name="Trazado 104696" d="M139.634,16.164a2.367,2.367,0,0,0-2.367,2.367v103.8l-10.011-2.675a91.053,91.053,0,0,0-53.889,2.367v-8.449a73.845,73.845,0,0,1,44.967-2.367l11.194,2.981a2.614,2.614,0,0,0,.616,0,2.331,2.331,0,0,0,2.367-2.367V75.709a2.367,2.367,0,1,0-4.733,0v33.133l-8.237-2.2a78.675,78.675,0,0,0-46.173,1.965V9.443a73.845,73.845,0,0,1,44.967-2.367L127.8,9.585V66.243a2.367,2.367,0,1,0,4.733,0V7.881a2.367,2.367,0,0,0-1.752-2.367L119.565,2.6A78.435,78.435,0,0,0,71,5.372,78.772,78.772,0,0,0,22.437,2.6L11.219,5.609A2.367,2.367,0,0,0,9.467,7.975v27.5a2.367,2.367,0,1,0,4.733,0V9.7l9.467-2.509A73.844,73.844,0,0,1,68.634,9.443v99.163a78.674,78.674,0,0,0-46.2-1.87L14.2,108.843v-63.9a2.367,2.367,0,1,0-4.733,0v67.071a2.331,2.331,0,0,0,2.367,2.367,2.734,2.734,0,0,0,.615,0l11.219-3.053a73.845,73.845,0,0,1,44.967,2.367V122a91.035,91.035,0,0,0-53.889-2.367l-10.011,2.7V18.531a2.367,2.367,0,0,0-4.733,0V125.41a2.387,2.387,0,0,0,2.981,2.3l12.994-3.479a85.936,85.936,0,0,1,53.771,3.243l.33.118a2.366,2.366,0,0,0,1.752,0l.332-.118a85.932,85.932,0,0,1,53.865-3.243l12.994,3.55a2.734,2.734,0,0,0,.615,0A2.367,2.367,0,0,0,142,125.41V18.531a2.367,2.367,0,0,0-2.367-2.367Zm0,0" transform="translate(-0.001 0)"/>
      <path id="Trazado_104697" data-name="Trazado 104697" d="M359.665,51.187a2.368,2.368,0,0,0-1.633-2.249L352.9,47.282a29.187,29.187,0,0,0-15.029-.829A2.367,2.367,0,0,0,336,48.82v21.3a2.367,2.367,0,0,0,.946,1.822,2.534,2.534,0,0,0,2.059.474,24.247,24.247,0,0,1,12.472.662l5.088,1.657a2.683,2.683,0,0,0,.734.118,2.5,2.5,0,0,0,1.4-.45,2.365,2.365,0,0,0,.971-1.917Zm-4.733,18.034-1.988-.639A28.617,28.617,0,0,0,344,67.161a30.23,30.23,0,0,0-3.266.19V50.784a24.438,24.438,0,0,1,10.7.971l3.5,1.136Zm0,0" transform="translate(-236.599 -32.278)"/>
      <path id="Trazado_104698" data-name="Trazado 104698" d="M115.936,194.173a62.529,62.529,0,0,0-34.411,0,2.451,2.451,0,0,0,1.278,4.733,57.845,57.845,0,0,1,31.855,0,1.976,1.976,0,0,0,.639,0,2.388,2.388,0,0,0,.639-4.733Zm0,0" transform="translate(-56.131 -135.03)"/>
      <path id="Trazado_104699" data-name="Trazado 104699" d="M115.936,234.173a62.529,62.529,0,0,0-34.411,0,2.451,2.451,0,0,0,1.278,4.733,57.845,57.845,0,0,1,31.855,0,1.977,1.977,0,0,0,.639,0,2.388,2.388,0,0,0,.639-4.733Zm0,0" transform="translate(-56.131 -163.197)"/>
      <path id="Trazado_104700" data-name="Trazado 104700" d="M115.936,274.173a62.529,62.529,0,0,0-34.411,0,2.451,2.451,0,0,0,1.278,4.733,57.845,57.845,0,0,1,31.855,0,1.976,1.976,0,0,0,.639,0,2.388,2.388,0,0,0,.639-4.733Zm0,0" transform="translate(-56.131 -191.364)"/>
      <path id="Trazado_104701" data-name="Trazado 104701" d="M265.649,62.857h.569l9.467-2.367a2.434,2.434,0,1,0-1.137-4.733l-9.467,2.367a2.384,2.384,0,1,0,.569,4.733Zm0,0" transform="translate(-185.183 -39.215)"/>
      <path id="Trazado_104702" data-name="Trazado 104702" d="M263.8,93.076a2.368,2.368,0,0,0,2.864,1.728l9.467-2.367a2.392,2.392,0,1,0-1.065-4.663L265.6,90.141a2.367,2.367,0,0,0-1.8,2.935Zm0,0" transform="translate(-185.705 -61.765)"/>
      <path id="Trazado_104703" data-name="Trazado 104703" d="M263.8,133.076a2.367,2.367,0,0,0,2.864,1.728l9.467-2.367a2.392,2.392,0,1,0-1.065-4.663l-9.467,2.367a2.367,2.367,0,0,0-1.8,2.935Zm0,0" transform="translate(-185.705 -89.932)"/>
      <path id="Trazado_104704" data-name="Trazado 104704" d="M272.969,274.357a2.5,2.5,0,0,0,1.4.45,2.691,2.691,0,0,0,.734,0l5.088-1.657a24.483,24.483,0,0,1,12.615-.71,2.365,2.365,0,0,0,2.864-2.367v-21.3a2.367,2.367,0,0,0-1.87-2.367,29.17,29.17,0,0,0-15.029.781l-5.135,1.656a2.368,2.368,0,0,0-1.633,2.3v21.3a2.365,2.365,0,0,0,.971,1.917Zm3.763-21.49,3.5-1.136a24.455,24.455,0,0,1,10.7-.971v16.567a28.889,28.889,0,0,0-12.212,1.231l-1.988.639Zm0,0" transform="translate(-191.532 -173.065)"/>
      <path id="Trazado_104705" data-name="Trazado 104705" d="M271.749,173.178a2.367,2.367,0,0,0,2.911,1.633,57.845,57.845,0,0,1,31.855,0,1.976,1.976,0,0,0,.734.095,2.388,2.388,0,0,0,.639-4.733,62.529,62.529,0,0,0-34.411,0,2.367,2.367,0,0,0-1.728,3.006Zm0,0" transform="translate(-191.282 -118.13)"/>
      <path id="Trazado_104706" data-name="Trazado 104706" d="M307.3,214.906a2.388,2.388,0,0,0,.639-4.733,62.529,62.529,0,0,0-34.411,0,2.451,2.451,0,1,0,1.278,4.733,57.845,57.845,0,0,1,31.855,0,1.976,1.976,0,0,0,.639,0Zm0,0" transform="translate(-191.331 -146.297)"/>
      <path id="Trazado_104707" data-name="Trazado 104707" d="M369.637,260.49l9.467,2.367a2.434,2.434,0,1,0,1.137-4.733l-9.467-2.367a2.434,2.434,0,0,0-1.137,4.733Zm0,0" transform="translate(-258.973 -180.048)"/>
      <path id="Trazado_104708" data-name="Trazado 104708" d="M115.5,70.006a2.367,2.367,0,0,0,2.367-2.367v-7.1a2.367,2.367,0,0,0-1.728-2.367,62.529,62.529,0,0,0-34.411,0A2.367,2.367,0,0,0,80,60.539v28.4A2.359,2.359,0,0,0,83,91.211a57.845,57.845,0,0,1,31.855,0,2,2,0,0,0,.639.095,2.367,2.367,0,0,0,2.367-2.367V77.106a2.367,2.367,0,1,0-4.733,0v8.78a62.561,62.561,0,0,0-28.4,0V62.362a57.688,57.688,0,0,1,28.4,0v5.278a2.367,2.367,0,0,0,2.367,2.367Zm0,0" transform="translate(-56.33 -39.264)"/>
    </g>
  </g>
</svg>
