<svg xmlns="http://www.w3.org/2000/svg" width="394.334" height="248.01" viewBox="0 0 394.334 248.01">
  <g id="Search-rafiki" transform="translate(32.269 -46.55)">
    <g id="freepik--background-complete--inject-8" transform="translate(-32.269 52.05)">
      <rect id="Rectángulo_31134" data-name="Rectángulo 31134" width="390" height="0.163" transform="translate(0 213.113)" fill="#e0e0e0"/>
      <rect id="Rectángulo_31135" data-name="Rectángulo 31135" width="26.832" height="0.163" transform="translate(269.046 219.115)" fill="#e0e0e0"/>
      <rect id="Rectángulo_31136" data-name="Rectángulo 31136" width="15.101" height="0.163" transform="translate(312.344 218.653)" fill="#e0e0e0"/>
      <rect id="Rectángulo_31137" data-name="Rectángulo 31137" width="20.03" height="0.163" transform="translate(172.895 219.037)" fill="#e0e0e0"/>
      <rect id="Rectángulo_31138" data-name="Rectángulo 31138" width="13.681" height="0.163" transform="translate(193.713 221.348)" fill="#e0e0e0"/>
      <rect id="Rectángulo_31139" data-name="Rectángulo 31139" width="41.332" height="0.163" transform="translate(71.51 217.39)" fill="#e0e0e0"/>
      <path id="Trazado_103372" data-name="Trazado 103372" d="M193.266,239.082H42.656c-2.457,0-4.446-1.667-4.446-3.717V58.684c.021-2.037,2-3.681,4.446-3.684h150.61c2.46,0,4.454,1.664,4.454,3.717V235.365C197.72,237.418,195.726,239.082,193.266,239.082ZM42.656,55.13c-2.349,0-4.251,1.594-4.251,3.554V235.365c0,1.96,1.9,3.55,4.251,3.554h150.61c2.35,0,4.255-1.593,4.259-3.554V58.684c0-1.961-1.909-3.55-4.259-3.554Z" transform="translate(-8.406 -55)" fill="#e0e0e0"/>
      <path id="Trazado_103373" data-name="Trazado 103373" d="M409.572,239.082H258.954c-2.458,0-4.45-1.666-4.454-3.717V58.684c.026-2.039,2.011-3.681,4.454-3.684H409.572c2.439.007,4.417,1.649,4.438,3.684V235.365C414.01,237.413,412.026,239.075,409.572,239.082ZM258.954,55.13c-2.35,0-4.255,1.593-4.259,3.554V235.365c0,1.961,1.909,3.55,4.259,3.554H409.572c2.35,0,4.254-1.593,4.259-3.554V58.684c0-1.961-1.909-3.55-4.259-3.554Z" transform="translate(-55.99 -55)" fill="#e0e0e0"/>
      <rect id="Rectángulo_31140" data-name="Rectángulo 31140" width="117.546" height="84.334" transform="translate(220.998 15.798)" fill="#e0e0e0"/>
      <rect id="Rectángulo_31141" data-name="Rectángulo 31141" width="117.546" height="84.334" transform="translate(223.611 15.798)" fill="#f0f0f0"/>
      <rect id="Rectángulo_31142" data-name="Rectángulo 31142" width="76.419" height="108.171" transform="translate(336.469 19.756) rotate(90)" fill="#fafafa"/>
      <rect id="Rectángulo_31143" data-name="Rectángulo 31143" width="76.419" height="7.067" transform="translate(301.899 19.756) rotate(90)" fill="#e0e0e0"/>
      <rect id="Rectángulo_31144" data-name="Rectángulo 31144" width="76.419" height="7.067" transform="translate(264.724 19.756) rotate(90)" fill="#e0e0e0"/>
      <rect id="Rectángulo_31145" data-name="Rectángulo 31145" width="81.874" height="7.067" transform="translate(304.388 16.807) rotate(90)" fill="#f0f0f0"/>
      <rect id="Rectángulo_31146" data-name="Rectángulo 31146" width="81.874" height="7.067" transform="translate(267.205 16.813) rotate(90)" fill="#f0f0f0"/>
      <rect id="Rectángulo_31147" data-name="Rectángulo 31147" width="76.419" height="1.973" transform="translate(336.469 19.749) rotate(90)" fill="#e0e0e0"/>
      <path id="Trazado_103374" data-name="Trazado 103374" d="M175.934,161.77s-14.305-20.563,5.546-36.96c0,0,5.179,2.819,5.1,6.607s-5.554,4.745-4.376,7.909,6.334,6.255,2.948,8.872.546,4.934.32,8.137S175.934,161.77,175.934,161.77Z" transform="translate(-37.608 -79.369)" fill="#e0e0e0"/>
      <path id="Trazado_103375" data-name="Trazado 103375" d="M174.04,168.734s5.8-23.29-19.219-33.614c0,0-3.853,4.036-2.34,7.609s7.059,3.04,7.137,6.353-3.643,7.609.554,9.2,1.349,4.83,2.777,7.811S174.04,168.734,174.04,168.734Z" transform="translate(-33.468 -82.968)" fill="#e6e6e6"/>
      <path id="Trazado_103376" data-name="Trazado 103376" d="M163.89,177.67s.25,20.107,9.883,20.107,9.875-20.107,9.875-20.107Z" transform="translate(-36.056 -97.821)" fill="#f0f0f0"/>
      <path id="Trazado_103377" data-name="Trazado 103377" d="M89.69,196.94s.538,7.564,21.107,7.564,21.115-7.564,21.115-7.564Z" transform="translate(-19.732 -104.547)" fill="#e6e6e6"/>
      <rect id="Rectángulo_31148" data-name="Rectángulo 31148" width="15.756" height="19.072" rx="3.14" transform="translate(273.5 137.996)" fill="#f0f0f0"/>
      <rect id="Rectángulo_31149" data-name="Rectángulo 31149" width="10.6" height="12.836" rx="2.11" transform="translate(306.65 144.232)" fill="#e6e6e6"/>
      <rect id="Rectángulo_31150" data-name="Rectángulo 31150" width="10.6" height="1.445" rx="0.71" transform="translate(306.65 142.989)" fill="#f0f0f0"/>
      <path id="Trazado_103378" data-name="Trazado 103378" d="M318.42,280s.39,10.61,15.28,10.61S348.988,280,348.988,280Z" transform="translate(-70.052 -133.541)" fill="#e6e6e6"/>
      <rect id="Rectángulo_31151" data-name="Rectángulo 31151" width="22.534" height="3.71" transform="translate(233.868 132.444) rotate(180)" fill="#e0e0e0"/>
      <rect id="Rectángulo_31152" data-name="Rectángulo 31152" width="112.032" height="3.71" transform="translate(233.868 128.74)" fill="#f0f0f0"/>
      <rect id="Rectángulo_31153" data-name="Rectángulo 31153" width="22.534" height="3.71" transform="translate(233.868 160.779) rotate(180)" fill="#e0e0e0"/>
      <rect id="Rectángulo_31154" data-name="Rectángulo 31154" width="112.032" height="3.71" transform="translate(233.868 157.069)" fill="#f0f0f0"/>
      <rect id="Rectángulo_31155" data-name="Rectángulo 31155" width="4.157" height="80.663" transform="translate(215.296 132.444)" fill="#e0e0e0"/>
      <rect id="Rectángulo_31156" data-name="Rectángulo 31156" width="4.157" height="80.663" transform="translate(233.868 132.444)" fill="#f0f0f0"/>
      <rect id="Rectángulo_31157" data-name="Rectángulo 31157" width="4.157" height="80.663" transform="translate(327.327 132.444)" fill="#e0e0e0"/>
      <rect id="Rectángulo_31158" data-name="Rectángulo 31158" width="4.157" height="80.663" transform="translate(341.742 132.444)" fill="#f0f0f0"/>
      <rect id="Rectángulo_31159" data-name="Rectángulo 31159" width="21.31" height="103.556" transform="translate(48.649 104.676)" fill="#e6e6e6"/>
      <rect id="Rectángulo_31160" data-name="Rectángulo 31160" width="105.082" height="4.888" transform="translate(52.744 208.225)" fill="#e6e6e6"/>
      <rect id="Rectángulo_31161" data-name="Rectángulo 31161" width="91.954" height="103.556" transform="translate(161.913 208.225) rotate(180)" fill="#f0f0f0"/>
      <rect id="Rectángulo_31162" data-name="Rectángulo 31162" width="75.2" height="25.295" transform="translate(153.535 169.098) rotate(180)" fill="#e6e6e6"/>
      <rect id="Rectángulo_31163" data-name="Rectángulo 31163" width="75.2" height="25.295" transform="translate(153.535 199.001) rotate(180)" fill="#e6e6e6"/>
      <path id="Trazado_103379" data-name="Trazado 103379" d="M154.112,278.319H137.225a1.934,1.934,0,0,1-2.075-1.731h0a1.932,1.932,0,0,1,2.075-1.738h16.887a1.932,1.932,0,0,1,2.075,1.738h0a1.934,1.934,0,0,1-2.075,1.731Z" transform="translate(-29.733 -131.744)" fill="#f0f0f0"/>
      <rect id="Rectángulo_31164" data-name="Rectángulo 31164" width="75.2" height="25.295" transform="translate(153.535 139.188) rotate(180)" fill="#e6e6e6"/>
      <path id="Trazado_103380" data-name="Trazado 103380" d="M154.112,232.379H137.225a1.932,1.932,0,0,1-2.075-1.738h0a1.934,1.934,0,0,1,2.075-1.731h16.887a1.934,1.934,0,0,1,2.075,1.731h0A1.932,1.932,0,0,1,154.112,232.379Z" transform="translate(-29.733 -115.707)" fill="#f0f0f0"/>
      <path id="Trazado_103381" data-name="Trazado 103381" d="M154.112,324.259H137.225a1.934,1.934,0,0,1-2.075-1.731h0a1.932,1.932,0,0,1,2.075-1.738h16.887a1.932,1.932,0,0,1,2.075,1.738h0a1.934,1.934,0,0,1-2.075,1.731Z" transform="translate(-29.733 -147.78)" fill="#f0f0f0"/>
      <rect id="Rectángulo_31165" data-name="Rectángulo 31165" width="94.794" height="4.719" transform="translate(69.958 99.956)" fill="#e6e6e6"/>
      <rect id="Rectángulo_31166" data-name="Rectángulo 31166" width="24.289" height="4.719" transform="translate(69.958 104.669) rotate(180)" fill="#e0e0e0"/>
      <rect id="Rectángulo_31167" data-name="Rectángulo 31167" width="34.476" height="31.596" transform="translate(59.233 19.756)" fill="#e6e6e6"/>
      <rect id="Rectángulo_31168" data-name="Rectángulo 31168" width="35.615" height="31.596" transform="translate(61.831 19.756)" fill="#f0f0f0"/>
      <rect id="Rectángulo_31169" data-name="Rectángulo 31169" width="26.616" height="29.648" transform="translate(94.458 22.242) rotate(90)" fill="#fafafa"/>
      <rect id="Rectángulo_31170" data-name="Rectángulo 31170" width="13.715" height="15.272" transform="translate(87.274 28.693) rotate(90)" fill="#f0f0f0"/>
      <rect id="Rectángulo_31171" data-name="Rectángulo 31171" width="26.146" height="23.44" transform="translate(103.912 10.428)" fill="#e6e6e6"/>
      <rect id="Rectángulo_31172" data-name="Rectángulo 31172" width="26.419" height="23.44" transform="translate(106.416 10.428)" fill="#f0f0f0"/>
      <rect id="Rectángulo_31173" data-name="Rectángulo 31173" width="19.743" height="21.988" transform="translate(130.619 12.276) rotate(90)" fill="#fafafa"/>
      <path id="Trazado_103382" data-name="Trazado 103382" d="M151.664,81.35l-6.014,8.7h12.028Z" transform="translate(-32.043 -64.198)" fill="#f0f0f0"/>
    </g>
    <g id="freepik--Shadow--inject-8" transform="translate(15.398 279.823)">
      <ellipse id="Elipse_4053" data-name="Elipse 4053" cx="78.333" cy="7.368" rx="78.333" ry="7.368" fill="#f5f5f5"/>
    </g>
    <g id="freepik--Shadow--inject-8-2" data-name="freepik--Shadow--inject-8" transform="translate(248.232 279.823)">
      <ellipse id="Elipse_4053-2" data-name="Elipse 4053" cx="56.917" cy="7.368" rx="56.917" ry="7.368" fill="#f5f5f5"/>
    </g>
    <g id="freepik--speech-bubbles--inject-8" transform="translate(62.563 46.55)">
      <rect id="Rectángulo_31174" data-name="Rectángulo 31174" width="83.42" height="32.428" rx="9.37" transform="translate(145.913 70.875)" fill="#00a7e3"/>
      <rect id="Rectángulo_31175" data-name="Rectángulo 31175" width="57.053" height="3.627" rx="1.64" transform="translate(152.867 76.344)" fill="#00a7e3"/>
      <rect id="Rectángulo_31176" data-name="Rectángulo 31176" width="39.725" height="3.627" rx="1.64" transform="translate(152.867 85.083)" fill="#00a7e3"/>
      <rect id="Rectángulo_31177" data-name="Rectángulo 31177" width="29.701" height="3.627" rx="1.64" transform="translate(152.867 93.822)" fill="#00a7e3"/>
      <rect id="Rectángulo_31178" data-name="Rectángulo 31178" width="29.701" height="3.627" rx="1.64" transform="translate(186.774 93.822)" fill="#00a7e3"/>
      <g id="Grupo_90628" data-name="Grupo 90628" transform="translate(152.867 76.344)" opacity="0.5">
        <rect id="Rectángulo_31179" data-name="Rectángulo 31179" width="57.053" height="3.627" rx="1.64" fill="#fff"/>
        <rect id="Rectángulo_31180" data-name="Rectángulo 31180" width="39.725" height="3.627" rx="1.64" transform="translate(0 8.739)" fill="#fff"/>
        <rect id="Rectángulo_31181" data-name="Rectángulo 31181" width="29.701" height="3.627" rx="1.64" transform="translate(0 17.478)" fill="#fff"/>
        <rect id="Rectángulo_31182" data-name="Rectángulo 31182" width="29.701" height="3.627" rx="1.64" transform="translate(33.906 17.478)" fill="#fff"/>
      </g>
      <rect id="Rectángulo_31183" data-name="Rectángulo 31183" width="99.12" height="47.55" rx="13.74" transform="translate(77.23 63.315)" fill="#00a7e3"/>
      <rect id="Rectángulo_31184" data-name="Rectángulo 31184" width="83.648" height="5.319" rx="2.41" transform="translate(87.425 71.332)" fill="#00a7e3"/>
      <rect id="Rectángulo_31185" data-name="Rectángulo 31185" width="58.238" height="5.319" rx="2.41" transform="translate(87.425 84.148)" fill="#00a7e3"/>
      <rect id="Rectángulo_31186" data-name="Rectángulo 31186" width="43.545" height="5.319" rx="2.41" transform="translate(87.425 96.964)" fill="#00a7e3"/>
      <rect id="Rectángulo_31187" data-name="Rectángulo 31187" width="36.855" height="5.319" rx="2.41" transform="translate(137.139 96.964)" fill="#00a7e3"/>
      <g id="Grupo_90629" data-name="Grupo 90629" transform="translate(87.425 71.332)" opacity="0.5">
        <rect id="Rectángulo_31188" data-name="Rectángulo 31188" width="83.648" height="5.319" rx="2.41" fill="#fff"/>
        <rect id="Rectángulo_31189" data-name="Rectángulo 31189" width="58.238" height="5.319" rx="2.41" transform="translate(0 12.816)" fill="#fff"/>
        <rect id="Rectángulo_31190" data-name="Rectángulo 31190" width="43.545" height="5.319" rx="2.41" transform="translate(0 25.631)" fill="#fff"/>
        <rect id="Rectángulo_31191" data-name="Rectángulo 31191" width="36.855" height="5.319" rx="2.41" transform="translate(49.714 25.631)" fill="#fff"/>
      </g>
      <rect id="Rectángulo_31192" data-name="Rectángulo 31192" width="47.457" height="66.527" rx="6.42" transform="translate(74.238 119.482)" fill="#00a7e3"/>
      <rect id="Rectángulo_31193" data-name="Rectángulo 31193" width="47.457" height="66.527" rx="6.42" transform="translate(74.238 119.482)" opacity="0.4"/>
      <rect id="Rectángulo_31194" data-name="Rectángulo 31194" width="36.469" height="2.949" rx="1.18" transform="translate(79.729 126.422)" fill="#fafafa"/>
      <rect id="Rectángulo_31195" data-name="Rectángulo 31195" width="25.396" height="2.949" rx="1.18" transform="translate(79.729 133.519)" fill="#fafafa"/>
      <rect id="Rectángulo_31196" data-name="Rectángulo 31196" width="36.469" height="2.949" rx="1.18" transform="translate(79.729 140.623)" fill="#fafafa"/>
      <rect id="Rectángulo_31197" data-name="Rectángulo 31197" width="14.615" height="2.949" rx="1.18" transform="translate(79.729 147.72)" fill="#fafafa"/>
      <rect id="Rectángulo_31198" data-name="Rectángulo 31198" width="14.615" height="2.949" rx="1.18" transform="translate(97.821 147.72)" fill="#fafafa"/>
      <rect id="Rectángulo_31199" data-name="Rectángulo 31199" width="36.469" height="2.949" rx="1.18" transform="translate(79.729 154.824)" fill="#fafafa"/>
      <rect id="Rectángulo_31200" data-name="Rectángulo 31200" width="36.469" height="2.949" rx="1.18" transform="translate(79.729 161.921)" fill="#fafafa"/>
      <rect id="Rectángulo_31201" data-name="Rectángulo 31201" width="30.301" height="2.949" rx="1.18" transform="translate(79.729 169.025)" fill="#fafafa"/>
      <rect id="Rectángulo_31202" data-name="Rectángulo 31202" width="15.036" height="2.949" rx="1.18" transform="translate(79.729 176.121)" fill="#fafafa"/>
      <path id="Trazado_103383" data-name="Trazado 103383" d="M265.222,213.33H212.11l23.482,18.684L271.6,245.58V219.691A6.376,6.376,0,0,0,265.222,213.33Z" transform="translate(-137.75 -94.255)" fill="#00a7e3"/>
      <path id="Trazado_103384" data-name="Trazado 103384" d="M265.222,213.33H212.11l23.482,18.684L271.6,245.58V219.691A6.376,6.376,0,0,0,265.222,213.33Z" transform="translate(-137.75 -94.255)" opacity="0.4"/>
      <rect id="Rectángulo_31203" data-name="Rectángulo 31203" width="40.975" height="4.084" rx="1.48" transform="translate(85.233 128.7)" fill="#fafafa"/>
      <rect id="Rectángulo_31204" data-name="Rectángulo 31204" width="47.722" height="75.231" rx="7.26" transform="translate(219.323 127.115) rotate(90)" fill="#00a7e3"/>
      <rect id="Rectángulo_31205" data-name="Rectángulo 31205" width="47.722" height="75.231" rx="7.26" transform="translate(231.168 115.277) rotate(90)" fill="#00a7e3"/>
      <rect id="Rectángulo_31206" data-name="Rectángulo 31206" width="47.722" height="75.231" rx="7.26" transform="translate(231.168 115.277) rotate(90)" fill="#fff" opacity="0.5"/>
      <rect id="Rectángulo_31207" data-name="Rectángulo 31207" width="27.609" height="25.81" rx="3.23" transform="translate(224.585 119.711) rotate(90)" fill="#00a7e3"/>
      <rect id="Rectángulo_31208" data-name="Rectángulo 31208" width="27.609" height="25.81" rx="3.23" transform="translate(224.585 119.711) rotate(90)" fill="#fff" opacity="0.7"/>
      <rect id="Rectángulo_31209" data-name="Rectángulo 31209" width="21.162" height="19.784" rx="2.48" transform="translate(194.734 136.746) rotate(90)" fill="#00a7e3"/>
      <rect id="Rectángulo_31210" data-name="Rectángulo 31210" width="21.162" height="19.784" rx="2.48" transform="translate(194.734 136.746) rotate(90)" fill="#fff" opacity="0.3"/>
      <rect id="Rectángulo_31211" data-name="Rectángulo 31211" width="20.055" height="184.839" rx="7.38" transform="translate(184.839 29.63) rotate(90)" fill="#00a7e3"/>
      <rect id="Rectángulo_31212" data-name="Rectángulo 31212" width="20.055" height="184.839" rx="7.38" transform="translate(184.839 29.63) rotate(90)" fill="#fff" opacity="0.5"/>
      <rect id="Rectángulo_31213" data-name="Rectángulo 31213" width="6.904" height="50.156" transform="translate(151.861 46.137) rotate(90)" fill="#00a7e3"/>
      <rect id="Rectángulo_31214" data-name="Rectángulo 31214" width="6.904" height="50.156" transform="translate(151.861 46.137) rotate(90)" fill="#fff" opacity="0.5"/>
      <rect id="Rectángulo_31215" data-name="Rectángulo 31215" width="20.055" height="184.839" rx="7.38" transform="translate(202.824) rotate(90)" fill="#990f82"/>
    </g>
    <g id="freepik--Character--inject-8" transform="translate(39.593 77.938)">
      <path id="Trazado_103385" data-name="Trazado 103385" d="M123.63,192.536c-.573,1.3-1.2,2.708-1.757,4.081s-1.126,2.786-1.627,4.192a59.464,59.464,0,0,0-2.467,8.416l-.189,1.042-.065.391a1.351,1.351,0,0,1-.039.384,15.968,15.968,0,0,0,.039,1.9,38.341,38.341,0,0,0,.651,4.316c.547,2.949,1.243,5.989,1.953,8.983l-3.339,1.3a60.309,60.309,0,0,1-3.964-8.846,37.1,37.1,0,0,1-1.38-4.862,17.452,17.452,0,0,1-.365-2.773v-.788a3.9,3.9,0,0,1,.046-.775l.13-1.3a41.011,41.011,0,0,1,.892-4.98c.365-1.627.833-3.209,1.3-4.771s1.055-3.1,1.673-4.609c.306-.755.651-1.5.95-2.252a24.941,24.941,0,0,1,1.068-2.265Z" transform="translate(-95.368 -127.775)" fill="#e4897b"/>
      <path id="Trazado_103386" data-name="Trazado 103386" d="M122.7,244.69l2.539,2.48-5.539,2.6a5.572,5.572,0,0,1-.41-4.472Z" transform="translate(-98.121 -147.103)" fill="#e4897b"/>
      <path id="Trazado_103387" data-name="Trazado 103387" d="M127.693,252.191l-4.68,1.914-2.9-3.027,5.533-2.578Z" transform="translate(-98.52 -148.433)" fill="#e4897b"/>
      <path id="Trazado_103388" data-name="Trazado 103388" d="M255.079,199.958a46.867,46.867,0,1,1,51.807-41.379A46.867,46.867,0,0,1,255.079,199.958Z" transform="translate(-131.098 -98.87)" fill="#fafafa" opacity="0.4"/>
      <path id="Trazado_103389" data-name="Trazado 103389" d="M289.284,117.755,218.007,174.7c-.3-.651-.592-1.3-.866-1.953a46.372,46.372,0,0,1-3.391-13.331h0l61.565-49.191a46.313,46.313,0,0,1,13.969,7.525Z" transform="translate(-131.208 -100.167)" fill="#fafafa" opacity="0.4"/>
      <path id="Trazado_103390" data-name="Trazado 103390" d="M310.476,150.049l-67.013,53.539a46.776,46.776,0,0,1-16.123-13.852l73.171-58.466a46.867,46.867,0,0,1,9.966,18.779Z" transform="translate(-135.952 -107.511)" fill="#fafafa" opacity="0.4"/>
      <path id="Trazado_103391" data-name="Trazado 103391" d="M204.058,132.359l-.618-.208a57.074,57.074,0,0,1,4.023-9.146l.566.312a56.585,56.585,0,0,0-3.971,9.041Zm7.9-15.193-.527-.384a56.436,56.436,0,0,1,20.42-17.061l.293.586a55.811,55.811,0,0,0-20.185,16.879ZM283.3,101.2a54.419,54.419,0,0,0-6.587-2.988l.234-.612a55.733,55.733,0,0,1,6.652,3.046Z" transform="translate(-127.609 -95.758)" fill="#00a7e3"/>
      <path id="Trazado_103392" data-name="Trazado 103392" d="M204.058,132.359l-.618-.208a57.074,57.074,0,0,1,4.023-9.146l.566.312a56.585,56.585,0,0,0-3.971,9.041Zm7.9-15.193-.527-.384a56.436,56.436,0,0,1,20.42-17.061l.293.586a55.811,55.811,0,0,0-20.185,16.879ZM283.3,101.2a54.419,54.419,0,0,0-6.587-2.988l.234-.612a55.733,55.733,0,0,1,6.652,3.046Z" transform="translate(-127.609 -95.758)" opacity="0.3"/>
      <path id="Trazado_103393" data-name="Trazado 103393" d="M271.457,125.344a54.027,54.027,0,0,0-99.364,42.134c-4.348,1.523-8.644,3.157-12.914,4.843q-9.237,3.665-18.3,7.655c-6.041,2.675-12.055,5.4-18.011,8.254-2.988,1.4-5.936,2.877-8.911,4.309a12.882,12.882,0,0,0-4.127,2.832,12.466,12.466,0,0,0-1.673,2.194,11.229,11.229,0,0,0-1.3,3.014,8.28,8.28,0,0,0,4.771,9.666,11.431,11.431,0,0,0,3.164.82,12.289,12.289,0,0,0,2.766,0,12.862,12.862,0,0,0,4.752-1.556c2.949-1.491,5.917-2.929,8.846-4.459,5.858-2.988,11.717-6.106,17.5-9.269s11.58-6.477,17.23-9.875c3.906-2.363,7.85-4.778,11.717-7.3a54.027,54.027,0,0,0,93.87-53.259Zm-29.591,62.183a42.655,42.655,0,1,1,19.365-57.138A42.655,42.655,0,0,1,241.866,187.527Z" transform="translate(-93.802 -94.77)" fill="#990f82"/>
      <path id="Trazado_103394" data-name="Trazado 103394" d="M271.457,125.344a54.027,54.027,0,0,0-99.364,42.134c-4.348,1.523-8.644,3.157-12.914,4.843q-9.237,3.665-18.3,7.655c-6.041,2.675-12.055,5.4-18.011,8.254-2.988,1.4-5.936,2.877-8.911,4.309a12.882,12.882,0,0,0-4.127,2.832,12.466,12.466,0,0,0-1.673,2.194,11.229,11.229,0,0,0-1.3,3.014,8.28,8.28,0,0,0,4.771,9.666,11.431,11.431,0,0,0,3.164.82,12.289,12.289,0,0,0,2.766,0,12.862,12.862,0,0,0,4.752-1.556c2.949-1.491,5.917-2.929,8.846-4.459,5.858-2.988,11.717-6.106,17.5-9.269s11.58-6.477,17.23-9.875c3.906-2.363,7.85-4.778,11.717-7.3a54.027,54.027,0,0,0,93.87-53.259Zm-29.591,62.183a42.655,42.655,0,1,1,19.365-57.138A42.655,42.655,0,0,1,241.866,187.527Z" transform="translate(-93.802 -94.77)" opacity="0.15"/>
      <path id="Trazado_103395" data-name="Trazado 103395" d="M158,158.176c0,.384.2.7.456.7s.456-.312.456-.7-.2-.7-.456-.7S158,157.818,158,158.176Z" transform="translate(-111.747 -116.661)" fill="#263238"/>
      <path id="Trazado_103396" data-name="Trazado 103396" d="M158.28,159.62a13.884,13.884,0,0,0,1.842,3.3,2.22,2.22,0,0,1-1.842.345Z" transform="translate(-111.845 -117.408)" fill="#de5753"/>
      <path id="Trazado_103397" data-name="Trazado 103397" d="M155.807,154.8a.241.241,0,0,1-.189-.091.234.234,0,0,1,.052-.319,2.233,2.233,0,0,1,2.037-.345.228.228,0,1,1-.163.423,1.777,1.777,0,0,0-1.608.293A.234.234,0,0,1,155.807,154.8Z" transform="translate(-110.901 -115.422)" fill="#263238"/>
      <path id="Trazado_103398" data-name="Trazado 103398" d="M137.221,163c.651,3.5,1.367,9.907-1.081,12.244,0,0,.957,3.548,7.46,3.548,7.16,0,3.411-3.548,3.411-3.548-3.906-.937-3.795-3.827-3.118-6.548Z" transform="translate(-104.116 -118.588)" fill="#e4897b"/>
      <path id="Trazado_103399" data-name="Trazado 103399" d="M131.367,181.93c.775-1.2-.527-4.127-.527-4.127s11.508-2.9,16.215,1.549c.976.918-.1,2.272-.1,2.272Z" transform="translate(-102.266 -123.431)" fill="#00a7e3"/>
      <path id="Trazado_103400" data-name="Trazado 103400" d="M131.367,181.93c.775-1.2-.527-4.127-.527-4.127s11.508-2.9,16.215,1.549c.976.918-.1,2.272-.1,2.272Z" transform="translate(-102.266 -123.431)" opacity="0.1"/>
      <path id="Trazado_103401" data-name="Trazado 103401" d="M101.392,387.829c-.605,0-1.575-1.009-1.862-1.386a.111.111,0,0,1,0-.124.117.117,0,0,1,.1-.059c.072,0,1.666.143,2.1.71a.527.527,0,0,1,.1.43.469.469,0,0,1-.338.423Zm-1.51-1.3c.475.547,1.237,1.165,1.562,1.087,0,0,.13-.033.169-.241a.293.293,0,0,0-.065-.247,3.04,3.04,0,0,0-1.666-.612Z" transform="translate(-91.33 -196.522)" fill="#00a7e3"/>
      <path id="Trazado_103402" data-name="Trazado 103402" d="M99.945,385.994a1.744,1.744,0,0,1-.352,0,.1.1,0,0,1-.091-.072.13.13,0,0,1,0-.117c.046-.039,1-1.035,1.725-1.035h0a.612.612,0,0,1,.462.2.371.371,0,0,1,.091.456C101.592,385.785,100.6,385.994,99.945,385.994Zm-.085-.228c.651,0,1.595-.2,1.751-.488,0,0,.046-.085-.059-.189a.384.384,0,0,0-.3-.124h0a2.754,2.754,0,0,0-1.393.8Z" transform="translate(-91.322 -196.001)" fill="#00a7e3"/>
      <path id="Trazado_103403" data-name="Trazado 103403" d="M167.555,410.745a8.63,8.63,0,0,1-1.471-.137.1.1,0,0,1-.085-.1.117.117,0,0,1,.052-.117c.072-.039,1.738-1,2.539-.775a.56.56,0,0,1,.358.26.43.43,0,0,1,0,.495C168.759,410.66,168.167,410.745,167.555,410.745Zm-1.1-.306c.885.13,2.1.124,2.317-.189.033-.039.059-.111,0-.247a.364.364,0,0,0-.221-.163A4.084,4.084,0,0,0,166.455,410.439Z" transform="translate(-114.539 -204.662)" fill="#00a7e3"/>
      <path id="Trazado_103404" data-name="Trazado 103404" d="M166.109,410.017a.117.117,0,0,1-.065,0,.1.1,0,0,1-.046-.111,3.177,3.177,0,0,1,.742-1.842.814.814,0,0,1,.651-.189.375.375,0,0,1,.423.312c.085.54-1.054,1.575-1.634,1.836Zm1.165-1.953a.592.592,0,0,0-.391.143,2.6,2.6,0,0,0-.651,1.478c.586-.358,1.367-1.165,1.3-1.491,0,0,0-.111-.221-.13Z" transform="translate(-114.538 -204.064)" fill="#00a7e3"/>
      <path id="Trazado_103405" data-name="Trazado 103405" d="M158.09,405.052h4.784l.475-11.072h-4.784Z" transform="translate(-111.778 -199.217)" fill="#e4897b"/>
      <path id="Trazado_103406" data-name="Trazado 103406" d="M92.64,377.79l4,2.617,8.827-7.453-4-2.623Z" transform="translate(-88.931 -190.961)" fill="#e4897b"/>
      <path id="Trazado_103407" data-name="Trazado 103407" d="M95.305,383.554l-4.153-3.4a.41.41,0,0,0-.521,0l-3.424,2.688a.7.7,0,0,0,0,1.1c1.471,1.165,2.246,1.66,4.075,3.157,1.126.918,3.906,3.73,5.474,5s3.007-.1,2.487-.755a16.4,16.4,0,0,1-3.522-7.063,1.178,1.178,0,0,0-.417-.723Z" transform="translate(-86.943 -194.356)" fill="#263238"/>
      <path id="Trazado_103408" data-name="Trazado 103408" d="M161.862,410.14h-5.207a.423.423,0,0,0-.41.325l-.944,4.251a.7.7,0,0,0,.69.853c1.881-.033,4.6-.143,6.971-.143,2.766,0,5.162.15,8.4.15,1.953,0,2.513-1.985,1.686-2.161-3.736-.82-6.8-.9-10.024-2.9A2.239,2.239,0,0,0,161.862,410.14Z" transform="translate(-110.798 -204.858)" fill="#263238"/>
      <path id="Trazado_103409" data-name="Trazado 103409" d="M118.169,183.713c-4.146,1.953-6.509,15.036-6.509,15.036l10.135,4.042a75.4,75.4,0,0,0,3.587-11.163C126.775,185.6,122.413,181.695,118.169,183.713Z" transform="translate(-95.571 -125.631)" fill="#263238"/>
      <path id="Trazado_103410" data-name="Trazado 103410" d="M127.693,195.035c-2.506,2.539-3.652,7.512-4.153,10.747l2.428.97a75.962,75.962,0,0,0,3.515-10.838C129.268,194.534,128.734,193.98,127.693,195.035Z" transform="translate(-99.718 -129.578)" fill="#203048"/>
      <path id="Trazado_103411" data-name="Trazado 103411" d="M149.776,183.065s5.09,5.754.286,41.334H124.487c-.176-3.906,2.291-23.075-1.5-41.575a65.458,65.458,0,0,1,8.56-1.081,91.691,91.691,0,0,1,10.87,0A48.294,48.294,0,0,1,149.776,183.065Z" transform="translate(-99.526 -125.074)" fill="#263238"/>
      <path id="Trazado_103412" data-name="Trazado 103412" d="M164.857,201.1l-4.309-7.427a37.955,37.955,0,0,0-1.009,10.591c.117,2.552,2.454,12,4.556,13.383A150.263,150.263,0,0,0,164.857,201.1Z" transform="translate(-112.27 -129.294)" fill="#203048"/>
      <path id="Trazado_103413" data-name="Trazado 103413" d="M164.838,191.67c.651,3.163,1.3,6.405,2,9.582s1.419,6.366,2.259,9.445c.215.762.417,1.543.651,2.272l.176.56.085.28v-.033c-.046-.059-.1-.065-.059,0a2.181,2.181,0,0,0,.989.618,11.614,11.614,0,0,0,1.894.527,50.639,50.639,0,0,0,9.308.605l.618,3.541c-.872.28-1.686.482-2.545.683s-1.705.371-2.571.5a27.815,27.815,0,0,1-5.422.365,14.718,14.718,0,0,1-2.994-.391,8.717,8.717,0,0,1-3.437-1.595,6.282,6.282,0,0,1-1.608-1.953c-.1-.2-.2-.417-.28-.605l-.117-.306-.241-.651c-.332-.827-.605-1.64-.9-2.454-1.1-3.255-2.018-6.542-2.825-9.822s-1.5-6.555-2.083-9.92Z" transform="translate(-111.653 -128.595)" fill="#e4897b"/>
      <path id="Trazado_103414" data-name="Trazado 103414" d="M154.215,187.2c-1.347,4.368,4.114,17.393,4.114,17.393l10.877-2.734a39.4,39.4,0,0,0-2.9-12.14C162.573,181.617,155.83,181.955,154.215,187.2Z" transform="translate(-110.351 -125.715)" fill="#263238"/>
      <path id="Trazado_103415" data-name="Trazado 103415" d="M193.421,228.247l5.416-.137-2.6,5.637s-2.207.293-4.016-2.682l-1.907-2.278,2.194-.436a4.895,4.895,0,0,1,.918-.1Z" transform="translate(-123.025 -141.316)" fill="#e4897b"/>
      <path id="Trazado_103416" data-name="Trazado 103416" d="M205.431,229.158l-3.1,4.674-2.923-.085,2.6-5.637Z" transform="translate(-126.202 -141.316)" fill="#e4897b"/>
      <path id="Trazado_103417" data-name="Trazado 103417" d="M163.472,393.98l-.247,5.709H158.44l.247-5.709Z" transform="translate(-111.9 -199.217)" fill="#ce6f64"/>
      <path id="Trazado_103418" data-name="Trazado 103418" d="M103.75,370.33l4,2.623-4.556,3.84-4-2.617Z" transform="translate(-91.221 -190.961)" fill="#ce6f64"/>
      <path id="Trazado_103419" data-name="Trazado 103419" d="M138.252,153.553c.286,4.732.215,7.525,2.6,9.953,3.593,3.665,9.445,1.5,10.578-3.255,1.022-4.257.384-11.287-4.251-13.175a6.509,6.509,0,0,0-8.931,6.477Z" transform="translate(-104.848 -112.864)" fill="#e4897b"/>
      <path id="Trazado_103420" data-name="Trazado 103420" d="M129.62,149.859c1.178,4.316,3.951,9.289,7.538,9.608,4.452.391,6.464-4.212,7.05-8.963,2.669-1.829,1.269-3.84,3.945-4.094,3.437-.325,2.337-6.613-2.187-7.622,0,0,1.517,2.832-1.666,1.4a18.369,18.369,0,0,0-9.725-1.686s4.062,2.031.091,2.936-5.155,3.352-3.326,4.83A2.761,2.761,0,0,0,129.62,149.859Z" transform="translate(-101.788 -110.003)" fill="#263238"/>
      <path id="Trazado_103421" data-name="Trazado 103421" d="M147.937,157.419a5.351,5.351,0,0,0,1.347,3.17c1.042,1.152,2.129.436,2.311-.963.169-1.256-.176-3.372-1.452-4.01S147.853,156,147.937,157.419Z" transform="translate(-108.233 -115.942)" fill="#e4897b"/>
      <path id="Trazado_103422" data-name="Trazado 103422" d="M132.073,247.357s4.661,33.751.989,47.277c-5.819,21.415-28.068,39.492-28.068,39.492l-7.544-4.947s18.948-15.264,21.266-33.2c2.083-16.1-3.144-35.567-3.144-48.631Z" transform="translate(-90.61 -148.032)" fill="#00a7e3"/>
      <path id="Trazado_103423" data-name="Trazado 103423" d="M132.073,247.357s4.661,33.751.989,47.277c-5.819,21.415-28.068,39.492-28.068,39.492l-7.544-4.947s18.948-15.264,21.266-33.2c2.083-16.1-3.144-35.567-3.144-48.631Z" transform="translate(-90.61 -148.032)" opacity="0.1"/>
      <path id="Trazado_103424" data-name="Trazado 103424" d="M151.411,274.906A31.505,31.505,0,0,0,147.33,271c.794,10.955,1.445,27.183.723,38.711a49.742,49.742,0,0,0,2.421-6.815C152.264,296.289,152.075,284.878,151.411,274.906Z" transform="translate(-108.022 -156.287)" fill="#00a7e3"/>
      <path id="Trazado_103425" data-name="Trazado 103425" d="M151.411,274.906A31.505,31.505,0,0,0,147.33,271c.794,10.955,1.445,27.183.723,38.711a49.742,49.742,0,0,0,2.421-6.815C152.264,296.289,152.075,284.878,151.411,274.906Z" transform="translate(-108.022 -156.287)" opacity="0.3"/>
      <path id="Trazado_103426" data-name="Trazado 103426" d="M107.723,375.065c.033,0-2.923,1.953-2.923,1.953l-8.241-5.4,2.6-2.155Z" transform="translate(-90.3 -190.657)" fill="#00a7e3"/>
      <path id="Trazado_103427" data-name="Trazado 103427" d="M107.723,375.065c.033,0-2.923,1.953-2.923,1.953l-8.241-5.4,2.6-2.155Z" transform="translate(-90.3 -190.657)" opacity="0.3"/>
      <path id="Trazado_103428" data-name="Trazado 103428" d="M155.563,247.36s7.2,30.528,7.707,45.116c.573,16.351-5.136,54.925-5.136,54.925h-8.1s-1-38.873-1.354-53.767c-.4-16.241-9.927-46.274-9.927-46.274Z" transform="translate(-105.027 -148.035)" fill="#00a7e3"/>
      <path id="Trazado_103429" data-name="Trazado 103429" d="M155.563,247.36s7.2,30.528,7.707,45.116c.573,16.351-5.136,54.925-5.136,54.925h-8.1s-1-38.873-1.354-53.767c-.4-16.241-9.927-46.274-9.927-46.274Z" transform="translate(-105.027 -148.035)" opacity="0.1"/>
      <path id="Trazado_103430" data-name="Trazado 103430" d="M165.248,396.1c.039,0-.456,3.359-.456,3.359h-9.855l-.267-3Z" transform="translate(-110.584 -199.957)" fill="#00a7e3"/>
      <path id="Trazado_103431" data-name="Trazado 103431" d="M165.248,396.1c.039,0-.456,3.359-.456,3.359h-9.855l-.267-3Z" transform="translate(-110.584 -199.957)" opacity="0.3"/>
    </g>
    <g id="freepik--character--inject-8-2" data-name="freepik--character--inject-8" transform="translate(277.647 118.676)">
      <path id="Trazado_103432" data-name="Trazado 103432" d="M354.171,202.29c.553.521.989.963,1.445,1.458s.885.976,1.3,1.478c.846,1,1.64,2.044,2.408,3.1A49.641,49.641,0,0,1,363.408,215l.241.475a4.589,4.589,0,0,1,.293.716,5.936,5.936,0,0,1,.286,1.471,7.16,7.16,0,0,1-.358,2.6,13.123,13.123,0,0,1-2.09,3.853,27.783,27.783,0,0,1-5.728,5.507l-1.621-1.862c.762-.892,1.556-1.849,2.265-2.806a23.923,23.923,0,0,0,1.953-2.929,10.173,10.173,0,0,0,1.185-2.877,2.982,2.982,0,0,0,.046-1.107,1.443,1.443,0,0,0-.117-.358,1.031,1.031,0,0,0-.085-.143l-.208-.352a68.384,68.384,0,0,0-4.081-5.93c-.723-.957-1.5-1.875-2.278-2.779-.384-.456-.781-.9-1.178-1.341s-.827-.885-1.172-1.23Z" transform="translate(-320.088 -173.041)" fill="#e4897b"/>
      <path id="Trazado_103433" data-name="Trazado 103433" d="M354.752,240.164l-4.862-.794,2.545,4.257s3.131-.111,4.023-1.953Z" transform="translate(-319.784 -185.985)" fill="#e4897b"/>
      <path id="Trazado_103434" data-name="Trazado 103434" d="M344.37,241.336l2.317,3.456,3.821-1.165-2.545-4.257Z" transform="translate(-317.857 -185.985)" fill="#e4897b"/>
      <path id="Trazado_103435" data-name="Trazado 103435" d="M356.392,410.618a1.4,1.4,0,0,1-.931-.254.651.651,0,0,1-.189-.612.384.384,0,0,1,.228-.325c.566-.254,2.05.7,2.22.807a.118.118,0,0,1-.039.208,5.761,5.761,0,0,1-1.289.176Zm-.651-1.009a.47.47,0,0,0-.143,0,.169.169,0,0,0-.1.15.436.436,0,0,0,.117.41,2.341,2.341,0,0,0,1.738.085A4.289,4.289,0,0,0,355.741,409.609Z" transform="translate(-321.658 -245.332)" fill="#00a7e3"/>
      <path id="Trazado_103436" data-name="Trazado 103436" d="M358.3,409.82h-.059c-.462-.267-1.354-1.3-1.243-1.868a.423.423,0,0,1,.391-.325.586.586,0,0,1,.488.156c.534.469.54,1.875.54,1.953a.124.124,0,0,1-.059.1Zm-.833-1.953h-.052c-.143,0-.176.078-.189.137-.065.332.488,1.126.95,1.5a2.662,2.662,0,0,0-.449-1.536.371.371,0,0,0-.293-.1Z" transform="translate(-322.261 -244.716)" fill="#00a7e3"/>
      <path id="Trazado_103437" data-name="Trazado 103437" d="M322.171,410.618a1.8,1.8,0,0,1-1.178-.3.651.651,0,0,1-.215-.56.378.378,0,0,1,.2-.306c.605-.339,2.545.651,2.766.775a.13.13,0,0,1,.059.124.111.111,0,0,1-.091.091A8.111,8.111,0,0,1,322.171,410.618Zm-.866-1.009a.4.4,0,0,0-.215.046.137.137,0,0,0-.078.124.423.423,0,0,0,.13.371,3.1,3.1,0,0,0,2.181.13,6.333,6.333,0,0,0-2.018-.671Z" transform="translate(-309.62 -245.331)" fill="#00a7e3"/>
      <path id="Trazado_103438" data-name="Trazado 103438" d="M324.34,409.821h-.052c-.579-.26-1.731-1.3-1.64-1.868,0-.13.117-.293.436-.325a.859.859,0,0,1,.651.2,3.221,3.221,0,0,1,.729,1.881.111.111,0,0,1-.046.1.124.124,0,0,1-.078.007Zm-1.165-1.953H323.1c-.208,0-.221.1-.228.13-.052.332.729,1.159,1.3,1.517a2.708,2.708,0,0,0-.651-1.5A.605.605,0,0,0,323.175,407.868Z" transform="translate(-310.273 -244.717)" fill="#00a7e3"/>
      <path id="Trazado_103439" data-name="Trazado 103439" d="M332.8,179.3c-.189,2.942-.7,8.918,1.562,10.571,0,0-.41,3.014-5.741,3.717-5.858.762-3.183-2.545-3.183-2.545,3.1-1.185,2.708-3.548,1.862-5.709Z" transform="translate(-311.034 -165.016)" fill="#e4897b"/>
      <path id="Trazado_103440" data-name="Trazado 103440" d="M317.385,170.67a.221.221,0,0,1-.169-.078,1.842,1.842,0,0,0-1.53-.651.228.228,0,0,1-.267-.2.234.234,0,0,1,.2-.26,2.285,2.285,0,0,1,1.953.82.234.234,0,0,1-.176.384Z" transform="translate(-307.751 -161.587)" fill="#263238"/>
      <path id="Trazado_103441" data-name="Trazado 103441" d="M316.311,175.74a10.6,10.6,0,0,1-1.061,2.669,1.679,1.679,0,0,0,1.426.078Z" transform="translate(-307.692 -163.773)" fill="#de5753"/>
      <path id="Trazado_103442" data-name="Trazado 103442" d="M316.784,174.293c.052.391-.111.729-.365.768s-.508-.26-.553-.651.111-.729.365-.762S316.738,173.876,316.784,174.293Z" transform="translate(-307.904 -163.042)" fill="#263238"/>
      <path id="Trazado_103443" data-name="Trazado 103443" d="M316.09,173.58l-.97-.15S315.693,174.1,316.09,173.58Z" transform="translate(-307.647 -162.967)" fill="#263238"/>
      <path id="Trazado_103444" data-name="Trazado 103444" d="M330.7,404.784h-4.882l-.325-11.294h4.882Z" transform="translate(-311.267 -239.784)" fill="#e4897b"/>
      <path id="Trazado_103445" data-name="Trazado 103445" d="M364.081,404.784H359.2L357.63,393.49h4.882Z" transform="translate(-322.486 -239.784)" fill="#e4897b"/>
      <path id="Trazado_103446" data-name="Trazado 103446" d="M355.824,410H361.3a.384.384,0,0,1,.384.332l.651,4.342a.781.781,0,0,1-.781.866c-1.907-.033-2.832-.143-5.24-.143-1.484,0-3.652.15-5.7.15s-2.155-2.024-1.3-2.207a9.473,9.473,0,0,0,5.709-3.04A1.3,1.3,0,0,1,355.824,410Z" transform="translate(-319.41 -245.547)" fill="#263238"/>
      <path id="Trazado_103447" data-name="Trazado 103447" d="M321.5,410h5.474a.391.391,0,0,1,.391.332l.651,4.342a.781.781,0,0,1-.781.866c-1.907-.033-2.832-.143-5.24-.143-1.484,0-4.556.15-6.6.15s-2.155-2.024-1.3-2.207a13.162,13.162,0,0,0,6.613-3.04A1.3,1.3,0,0,1,321.5,410Z" transform="translate(-307.112 -245.547)" fill="#263238"/>
      <path id="Trazado_103448" data-name="Trazado 103448" d="M325.49,393.49l.169,5.826h4.882l-.169-5.826Z" transform="translate(-311.267 -239.784)" fill="#ce6f64"/>
      <path id="Trazado_103449" data-name="Trazado 103449" d="M362.512,393.49H357.63l.814,5.826h4.875Z" transform="translate(-322.486 -239.784)" fill="#ce6f64"/>
      <path id="Trazado_103450" data-name="Trazado 103450" d="M329.922,166.6c.332,4.83.573,6.867-1.523,9.647-3.157,4.172-9.159,3.528-10.929-1.107-1.595-4.172-1.868-11.365,2.571-13.891a6.607,6.607,0,0,1,9.881,5.351Z" transform="translate(-308.096 -158.41)" fill="#e4897b"/>
      <path id="Trazado_103451" data-name="Trazado 103451" d="M332.081,170.032c2.708,1.51,4.719-2.213,4.719-2.213s-4.856.527-4.42-2.363c.573-3.834-2.174-8.495-9.061-7.9-.384.033-.749.078-1.107.137a3.541,3.541,0,0,0-4.283.989,3.64,3.64,0,0,0-2.8,5.572,2.831,2.831,0,0,1,.573-.957c.15,1.8,1.725,4.667,3.691,4.856.423,2.467-1.217,5.325-.651,7.9.84,3.717,7.108,4.556,7.108,4.556a2.714,2.714,0,0,1,.365-2.871c4.257,1.953,7.063.046,7.063.046-2.9-1.081-2.024-3.007-2.024-3.007a4.238,4.238,0,0,0,5.526-2.011A5,5,0,0,1,332.081,170.032Z" transform="translate(-307.443 -157.355)" fill="#263238"/>
      <path id="Trazado_103452" data-name="Trazado 103452" d="M322.849,174.2a3.515,3.515,0,0,1-.976,2.519c-.859.892-1.914.267-2.2-.872-.254-1.028-.111-2.727,1.009-3.2a1.588,1.588,0,0,1,2.168,1.549Z" transform="translate(-309.198 -162.656)" fill="#e4897b"/>
      <path id="Trazado_103453" data-name="Trazado 103453" d="M330.84,243.211s1.237,32.13,4.179,50.994c2.369,15.245,12.895,50.863,12.895,50.863h6.652s-5.487-34.4-6.692-49.47c-3.046-38.138,4.862-46.326-2.6-54.268Z" transform="translate(-313.134 -186.669)" fill="#263238"/>
      <path id="Trazado_103454" data-name="Trazado 103454" d="M336.825,259.823s-3.007-.521-4.765,5.207c.651,10.851,1.764,25.249,3.385,35.625.358,2.311.9,5.1,1.575,8.15C335.751,290.476,336.825,259.823,336.825,259.823Z" transform="translate(-313.56 -193.12)" fill="#161f33"/>
      <path id="Trazado_103455" data-name="Trazado 103455" d="M320.095,244.258s-5.481,35.547-5.162,50.421c.332,15.473,6,50.772,6,50.772h6.594s-1.042-34.382-.462-49.575c.651-16.566,7.414-53.487,7.414-53.487Z" transform="translate(-307.577 -187.039)" fill="#263238"/>
      <path id="Trazado_103456" data-name="Trazado 103456" d="M363.656,399.588H354.81l-.69-2.968,9.471.065Z" transform="translate(-321.261 -240.876)" fill="#00a7e3"/>
      <path id="Trazado_103457" data-name="Trazado 103457" d="M363.656,399.588H354.81l-.69-2.968,9.471.065Z" transform="translate(-321.261 -240.876)" opacity="0.2"/>
      <path id="Trazado_103458" data-name="Trazado 103458" d="M349.952,195.543c2.545.247,6.412,7.479,6.412,7.479l-6.425,4.928s-5.318-4.667-4.687-7.29C345.91,197.931,347.511,195.315,349.952,195.543Z" transform="translate(-318.147 -170.681)" fill="#990f82"/>
      <path id="Trazado_103459" data-name="Trazado 103459" d="M349.952,195.543c2.545.247,6.412,7.479,6.412,7.479l-6.425,4.928s-5.318-4.667-4.687-7.29C345.91,197.931,347.511,195.315,349.952,195.543Z" transform="translate(-318.147 -170.681)" opacity="0.1"/>
      <path id="Trazado_103460" data-name="Trazado 103460" d="M348.03,200.208a6.593,6.593,0,0,0-1.992-.221,11.006,11.006,0,0,0-.788,2.226c-.651,2.6,4.687,7.29,4.687,7.29l.475-.365Z" transform="translate(-318.145 -172.235)" fill="#990f82"/>
      <path id="Trazado_103461" data-name="Trazado 103461" d="M348.03,200.208a6.593,6.593,0,0,0-1.992-.221,11.006,11.006,0,0,0-.788,2.226c-.651,2.6,4.687,7.29,4.687,7.29l.475-.365Z" transform="translate(-318.145 -172.235)" opacity="0.3"/>
      <path id="Trazado_103462" data-name="Trazado 103462" d="M313.976,209.953c-1.855,4.693-3.808,9.464-5.364,14.171-.1.3-.189.586-.28.879l-.221.723a1.191,1.191,0,0,0,0,.651,4.9,4.9,0,0,0,1.686,2.018,27.463,27.463,0,0,0,6.307,3.378l-.586,2.4a22.58,22.58,0,0,1-7.863-2.565,8.417,8.417,0,0,1-3.509-3.554,5.448,5.448,0,0,1-.449-3.1,3.627,3.627,0,0,1,.065-.384l.065-.273.111-.495c.078-.332.156-.651.241-.976.651-2.6,1.484-5.077,2.363-7.531s1.8-4.875,2.832-7.29Z" transform="translate(-303.639 -175.034)" fill="#e4897b"/>
      <path id="Trazado_103463" data-name="Trazado 103463" d="M313.309,198.938s-2.2,1.113,6.132,28.888l19.645-2.565c-1.38-7.954-2.031-12.882-.358-29.793a59.229,59.229,0,0,0-8.462,0,62.167,62.167,0,0,0-8.924,1.172C317.573,197.48,313.309,198.938,313.309,198.938Z" transform="translate(-306.923 -170.607)" fill="#990f82"/>
      <path id="Trazado_103465" data-name="Trazado 103465" d="M342.261,239.425l1.126,1.634c.085.13-.059.286-.28.319l-20.6,2.695c-.176,0-.339-.046-.365-.156l-.4-1.738c-.033-.117.111-.241.306-.267l19.892-2.6A.358.358,0,0,1,342.261,239.425Z" transform="translate(-309.955 -185.961)" fill="#00a7e3"/>
      <path id="Trazado_103466" data-name="Trazado 103466" d="M342.261,239.425l1.126,1.634c.085.13-.059.286-.28.319l-20.6,2.695c-.176,0-.339-.046-.365-.156l-.4-1.738c-.033-.117.111-.241.306-.267l19.892-2.6A.358.358,0,0,1,342.261,239.425Z" transform="translate(-309.955 -185.961)" opacity="0.2"/>
      <path id="Trazado_103467" data-name="Trazado 103467" d="M349.2,242.064l.534-.072c.1,0,.176-.078.163-.143l-.547-2.252a.189.189,0,0,0-.221-.091l-.534.065c-.111,0-.182.078-.163.15l.547,2.246C348.988,242.038,349.092,242.077,349.2,242.064Z" transform="translate(-319.273 -186.029)" fill="#263238"/>
      <path id="Trazado_103468" data-name="Trazado 103468" d="M329.356,244.622l.534-.072c.1,0,.182-.078.163-.143l-.547-2.252a.2.2,0,0,0-.221-.1l-.534.072c-.1,0-.182.078-.163.143l.547,2.252C329.148,244.622,329.252,244.661,329.356,244.622Z" transform="translate(-312.347 -186.921)" fill="#263238"/>
      <path id="Trazado_103469" data-name="Trazado 103469" d="M314.86,215.1c.54,2.513,1.3,5.7,2.415,9.725l.241-10.213Z" transform="translate(-307.556 -177.341)" fill="#990f82"/>
      <path id="Trazado_103470" data-name="Trazado 103470" d="M314.86,215.1c.54,2.513,1.3,5.7,2.415,9.725l.241-10.213Z" transform="translate(-307.556 -177.341)" opacity="0.3"/>
      <path id="Trazado_103471" data-name="Trazado 103471" d="M311.007,200.54c-2.441.983-4.556,9.334-4.556,9.334l8.4,4.088s4.055-10.213,2.239-12.2S313.818,199.413,311.007,200.54Z" transform="translate(-304.62 -172.208)" fill="#990f82"/>
      <path id="Trazado_103472" data-name="Trazado 103472" d="M311.007,200.54c-2.441.983-4.556,9.334-4.556,9.334l8.4,4.088s4.055-10.213,2.239-12.2S313.818,199.413,311.007,200.54Z" transform="translate(-304.62 -172.208)" opacity="0.1"/>
      <path id="Trazado_103473" data-name="Trazado 103473" d="M330.906,399.588H322.06l-.69-2.968,9.849.065Z" transform="translate(-309.829 -240.876)" fill="#00a7e3"/>
      <path id="Trazado_103474" data-name="Trazado 103474" d="M330.906,399.588H322.06l-.69-2.968,9.849.065Z" transform="translate(-309.829 -240.876)" opacity="0.2"/>
      <path id="Trazado_103475" data-name="Trazado 103475" d="M321.831,243.081l-.71-.293a1.068,1.068,0,0,0-1.458,1.146l.514,3.391a1.159,1.159,0,0,0,1.536.924,2.6,2.6,0,0,0,.716-.4,1.953,1.953,0,0,0,.7-1.614l-.072-1.406a1.953,1.953,0,0,0-1.23-1.751Z" transform="translate(-309.229 -187.15)" fill="#e4897b"/>
    </g>
  </g>
</svg>
