<svg xmlns="http://www.w3.org/2000/svg" xmlns:xlink="http://www.w3.org/1999/xlink" width="400" height="300" viewBox="0 0 400 300">
  <defs>
    <clipPath id="clip-path">
      <rect id="Rectángulo_5158" data-name="Rectángulo 5158" width="400" height="300" transform="translate(180 1422)" fill="#990f82"/>
    </clipPath>
  </defs>
  <g id="Enmascarar_grupo_46" data-name="Enmascarar grupo 46" transform="translate(-180 -1422)" clip-path="url(#clip-path)">
    <g id="New_idea-rafiki" data-name="New idea-rafiki" transform="translate(63 1354.667)">
      <g id="freepik--background-complete--inject-126" transform="translate(0 55)">
        <rect id="Rectángulo_31319" data-name="Rectángulo 31319" width="42.422" height="45.159" transform="translate(83.937 237.449)" fill="#e6e6e6"/>
        <rect id="Rectángulo_31320" data-name="Rectángulo 31320" width="10.866" height="45.159" transform="translate(73.071 237.449)" fill="#f0f0f0"/>
        <rect id="Rectángulo_31321" data-name="Rectángulo 31321" width="31.868" height="52.124" transform="translate(105.616 230.485)" fill="#e6e6e6"/>
        <rect id="Rectángulo_31322" data-name="Rectángulo 31322" width="9.213" height="52.124" transform="translate(96.416 230.485)" fill="#f0f0f0"/>
        <rect id="Rectángulo_31323" data-name="Rectángulo 31323" width="26.868" height="45.159" transform="translate(115.005 237.449)" fill="#f0f0f0"/>
        <rect id="Rectángulo_31324" data-name="Rectángulo 31324" width="6.138" height="45.159" transform="translate(108.868 237.449)" fill="#f5f5f5"/>
        <rect id="Rectángulo_31325" data-name="Rectángulo 31325" width="35.241" height="37.518" transform="translate(136.996 245.091)" fill="#e6e6e6"/>
        <rect id="Rectángulo_31326" data-name="Rectángulo 31326" width="9.024" height="37.518" transform="translate(127.972 245.091)" fill="#f5f5f5"/>
        <rect id="Rectángulo_31327" data-name="Rectángulo 31327" width="26.475" height="43.303" transform="translate(155.002 239.305)" fill="#e6e6e6"/>
        <rect id="Rectángulo_31328" data-name="Rectángulo 31328" width="7.655" height="43.303" transform="translate(147.361 239.305)" fill="#f0f0f0"/>
        <rect id="Rectángulo_31329" data-name="Rectángulo 31329" width="25.716" height="37.518" transform="translate(162.807 245.091)" fill="#f0f0f0"/>
        <rect id="Rectángulo_31330" data-name="Rectángulo 31330" width="5.094" height="37.518" transform="translate(157.699 245.091)" fill="#f5f5f5"/>
        <rect id="Rectángulo_31331" data-name="Rectángulo 31331" width="42.422" height="45.159" transform="translate(244.915 237.693)" fill="#e6e6e6"/>
        <rect id="Rectángulo_31332" data-name="Rectángulo 31332" width="10.866" height="45.159" transform="translate(234.048 237.693)" fill="#f0f0f0"/>
        <rect id="Rectángulo_31333" data-name="Rectángulo 31333" width="31.868" height="52.124" transform="translate(266.593 230.729)" fill="#e6e6e6"/>
        <rect id="Rectángulo_31334" data-name="Rectángulo 31334" width="9.213" height="52.124" transform="translate(257.393 230.729)" fill="#f0f0f0"/>
        <rect id="Rectángulo_31335" data-name="Rectángulo 31335" width="26.868" height="45.159" transform="translate(275.983 237.693)" fill="#f0f0f0"/>
        <rect id="Rectángulo_31336" data-name="Rectángulo 31336" width="6.138" height="45.159" transform="translate(269.845 237.693)" fill="#f5f5f5"/>
        <rect id="Rectángulo_31337" data-name="Rectángulo 31337" width="276.403" height="13.075" transform="translate(73.179 282.825)" fill="#e0e0e0"/>
        <rect id="Rectángulo_31338" data-name="Rectángulo 31338" width="35.241" height="37.518" transform="translate(297.973 245.335)" fill="#e6e6e6"/>
        <rect id="Rectángulo_31339" data-name="Rectángulo 31339" width="9.024" height="37.518" transform="translate(288.949 245.335)" fill="#f5f5f5"/>
        <rect id="Rectángulo_31340" data-name="Rectángulo 31340" width="26.475" height="43.303" transform="translate(315.98 239.549)" fill="#e6e6e6"/>
        <rect id="Rectángulo_31341" data-name="Rectángulo 31341" width="7.655" height="43.303" transform="translate(308.338 239.549)" fill="#f0f0f0"/>
        <rect id="Rectángulo_31342" data-name="Rectángulo 31342" width="25.716" height="37.518" transform="translate(323.784 245.335)" fill="#f0f0f0"/>
        <rect id="Rectángulo_31343" data-name="Rectángulo 31343" width="5.094" height="37.518" transform="translate(318.676 245.335)" fill="#f5f5f5"/>
        <path id="Trazado_103737" data-name="Trazado 103737" d="M279.844,419.007h0a3.834,3.834,0,0,1-3.834-3.834V278.8h7.682V415.172a3.848,3.848,0,0,1-3.848,3.834Z" transform="translate(97.96 24.43)" fill="#f0f0f0"/>
        <path id="Trazado_103738" data-name="Trazado 103738" d="M396.884,273.613H379.27v-1.572a5.42,5.42,0,0,1,5.664-5.42l6.91.379a5.42,5.42,0,0,1,5.094,5.42Z" transform="translate(134.609 20.106)" fill="#f0f0f0"/>
        <path id="Trazado_103739" data-name="Trazado 103739" d="M376.048,245.079a2.6,2.6,0,0,0-2.6-2.479H355.575a2.615,2.615,0,0,0-2.615,2.479l4.241,37.206h26.651Z" transform="translate(125.271 11.582)" fill="#e0e0e0"/>
        <path id="Trazado_103740" data-name="Trazado 103740" d="M409.482,202.21h-6.653l-7.479,70.266H402a2.29,2.29,0,0,0,2.208-1.992l7.046-66.269a1.761,1.761,0,0,0-1.775-2.005Z" transform="translate(140.316 -2.753)" fill="#e0e0e0"/>
        <path id="Trazado_103741" data-name="Trazado 103741" d="M424.767,272.476H325.072a1.761,1.761,0,0,1-1.788-1.992l7.059-66.269a2.263,2.263,0,0,1,2.208-2.005h99.695a1.775,1.775,0,0,1,1.788,2.005l-7.059,66.269a2.276,2.276,0,0,1-2.209,1.992Z" transform="translate(114.733 -2.753)" fill="#f5f5f5"/>
        <path id="Trazado_103742" data-name="Trazado 103742" d="M421.849,265.337H327.832a1.531,1.531,0,0,1-1.558-1.734l6.151-57.828a1.978,1.978,0,0,1,1.924-1.734h94.018a1.531,1.531,0,0,1,1.558,1.734L423.773,263.6a1.978,1.978,0,0,1-1.924,1.734Z" transform="translate(115.795 -2.103)" fill="#ebebeb"/>
        <rect id="Rectángulo_31344" data-name="Rectángulo 31344" width="35.661" height="2.886" rx="0.96" transform="translate(475.901 290.982)" fill="#e0e0e0"/>
        <path id="Trazado_103743" data-name="Trazado 103743" d="M327.16,256.093l27.938-24.28c2.71-2.3,6.056-2.3,7.588,0l16.191,24.28Z" transform="translate(116.114 7.14)" fill="#e6e6e6"/>
        <path id="Trazado_103744" data-name="Trazado 103744" d="M355.1,231.779l-27.938,24.28h26.787c-2.71-1.355-8.956-2.073-8.211-5.162.976-4.065,13.427-2.615,14.362-6.436s-7.967-2.615-6.842-7.249c.583-2.425,2.886-5.067,4.945-7.032a7.181,7.181,0,0,0-3.1,1.6Z" transform="translate(116.114 7.174)" fill="#f5f5f5"/>
        <path id="Trazado_103745" data-name="Trazado 103745" d="M357.5,252.7l12.384-12.194c1.179-1.165,2.71-1.165,3.374,0l7.168,12.194Z" transform="translate(126.882 10.53)" fill="#e6e6e6"/>
        <path id="Trazado_103746" data-name="Trazado 103746" d="M369.884,240.464,357.5,252.658h11.883c-1.192-.677-3.97-1.043-3.645-2.6.434-2.032,5.948-1.355,6.368-3.252s-3.536-1.355-3.035-3.645a8.509,8.509,0,0,1,2.195-3.55,2.981,2.981,0,0,0-1.382.854Z" transform="translate(126.882 10.521)" fill="#f5f5f5"/>
        <path id="Trazado_103747" data-name="Trazado 103747" d="M373.15,252.7l17.343-12.194c1.653-1.165,3.753-1.165,4.715,0L405.262,252.7Z" transform="translate(132.437 10.53)" fill="#f0f0f0"/>
        <path id="Trazado_103748" data-name="Trazado 103748" d="M390.543,240.464,373.2,252.658h16.625c-1.653-.677-5.555-1.043-5.095-2.6.6-2.032,8.333-1.355,8.915-3.252s-4.945-1.355-4.254-3.645a8.821,8.821,0,0,1,3.076-3.55A4.823,4.823,0,0,0,390.543,240.464Z" transform="translate(132.455 10.521)" fill="#fafafa"/>
        <path id="Trazado_103749" data-name="Trazado 103749" d="M395.118,225.125a14.552,14.552,0,0,1-13.549,11.164c-6.165,0-10.094-4.986-8.793-11.164a14.565,14.565,0,0,1,13.549-11.165C392.489,214.014,396.418,218.96,395.118,225.125Z" transform="translate(132.216 1.417)" fill="#f0f0f0"/>
        <path id="Trazado_103750" data-name="Trazado 103750" d="M395.118,225.125a14.552,14.552,0,0,1-13.549,11.164c-6.165,0-10.094-4.986-8.793-11.164a14.565,14.565,0,0,1,13.549-11.165C392.489,214.014,396.418,218.96,395.118,225.125Z" transform="translate(132.216 1.417)" fill="#fafafa" opacity="0.8"/>
        <path id="Trazado_103751" data-name="Trazado 103751" d="M319.694,270.987h-2.479a.474.474,0,0,1-.474-.474v-2.629a.461.461,0,0,1,.474-.474h1.775a.461.461,0,0,1,.461.352l.7,2.629a.474.474,0,0,1-.461.6Z" transform="translate(112.416 20.388)" fill="#f5f5f5"/>
        <path id="Trazado_103752" data-name="Trazado 103752" d="M322.237,270.987h-2.493a.474.474,0,0,1-.474-.474v-2.629a.474.474,0,0,1,.474-.474h1.788a.461.461,0,0,1,.461.352l.7,2.629a.474.474,0,0,1-.461.6Z" transform="translate(113.314 20.388)" fill="#f5f5f5"/>
        <path id="Trazado_103753" data-name="Trazado 103753" d="M324.774,270.987h-2.479a.474.474,0,0,1-.474-.474v-2.629a.461.461,0,0,1,.474-.474h1.788a.461.461,0,0,1,.447.352l.7,2.629a.474.474,0,0,1-.461.6Z" transform="translate(114.219 20.388)" fill="#f5f5f5"/>
        <path id="Trazado_103754" data-name="Trazado 103754" d="M327.307,270.987h-2.493a.474.474,0,0,1-.474-.474v-2.629a.474.474,0,0,1,.474-.474h1.775a.461.461,0,0,1,.461.352l.7,2.629a.474.474,0,0,1-.447.6Z" transform="translate(115.113 20.388)" fill="#f5f5f5"/>
        <path id="Trazado_103755" data-name="Trazado 103755" d="M329.847,270.987h-2.493a.474.474,0,0,1-.474-.474v-2.629a.474.474,0,0,1,.474-.474h1.788a.461.461,0,0,1,.461.352l.691,2.629a.474.474,0,0,1-.447.6Z" transform="translate(116.015 20.388)" fill="#f5f5f5"/>
        <path id="Trazado_103756" data-name="Trazado 103756" d="M332.374,270.987h-2.479a.474.474,0,0,1-.474-.474v-2.629a.461.461,0,0,1,.474-.474h1.775a.461.461,0,0,1,.461.352l.7,2.629a.474.474,0,0,1-.461.6Z" transform="translate(116.916 20.388)" fill="#f5f5f5"/>
        <path id="Trazado_103757" data-name="Trazado 103757" d="M334.917,270.987h-2.493a.474.474,0,0,1-.474-.474v-2.629a.474.474,0,0,1,.474-.474h1.788a.461.461,0,0,1,.461.352l.7,2.629a.488.488,0,0,1-.461.6Z" transform="translate(117.814 20.388)" fill="#f5f5f5"/>
        <path id="Trazado_103758" data-name="Trazado 103758" d="M337.444,270.987h-2.479a.474.474,0,0,1-.474-.474v-2.629a.461.461,0,0,1,.474-.474h1.788a.461.461,0,0,1,.447.352l.7,2.629a.474.474,0,0,1-.461.6Z" transform="translate(118.716 20.388)" fill="#f5f5f5"/>
        <path id="Trazado_103759" data-name="Trazado 103759" d="M339.987,270.987h-2.493a.474.474,0,0,1-.474-.474v-2.629a.474.474,0,0,1,.474-.474h1.788a.461.461,0,0,1,.461.352l.7,2.629a.474.474,0,0,1-.461.6Z" transform="translate(119.614 20.388)" fill="#f5f5f5"/>
        <path id="Trazado_103760" data-name="Trazado 103760" d="M342.514,270.987h-2.479a.474.474,0,0,1-.474-.474v-2.629a.474.474,0,0,1,.474-.474h1.788a.474.474,0,0,1,.461.352l.691,2.628a.474.474,0,0,1-.461.6Z" transform="translate(120.515 20.388)" fill="#f5f5f5"/>
        <path id="Trazado_103761" data-name="Trazado 103761" d="M345.054,270.987h-2.479a.474.474,0,0,1-.474-.474v-2.629a.461.461,0,0,1,.474-.474h1.775a.461.461,0,0,1,.461.352l.7,2.629a.474.474,0,0,1-.461.6Z" transform="translate(121.417 20.388)" fill="#f5f5f5"/>
        <path id="Trazado_103762" data-name="Trazado 103762" d="M347.59,270.987h-2.466a.474.474,0,0,1-.474-.474v-2.629a.474.474,0,0,1,.474-.474h1.788a.461.461,0,0,1,.461.352l.7,2.629a.488.488,0,0,1-.488.6Z" transform="translate(122.322 20.388)" fill="#f5f5f5"/>
        <path id="Trazado_103763" data-name="Trazado 103763" d="M350.124,270.987h-2.479a.474.474,0,0,1-.474-.474v-2.629a.461.461,0,0,1,.474-.474h1.788a.461.461,0,0,1,.447.352l.7,2.629a.474.474,0,0,1-.461.6Z" transform="translate(123.216 20.388)" fill="#f5f5f5"/>
        <path id="Trazado_103764" data-name="Trazado 103764" d="M352.667,270.987h-2.493a.474.474,0,0,1-.474-.474v-2.629a.474.474,0,0,1,.474-.474h1.789a.461.461,0,0,1,.461.352l.7,2.629a.474.474,0,0,1-.461.6Z" transform="translate(124.114 20.388)" fill="#f5f5f5"/>
        <path id="Trazado_103765" data-name="Trazado 103765" d="M355.194,270.987h-2.479a.474.474,0,0,1-.474-.474v-2.629a.474.474,0,0,1,.474-.474H354.5a.474.474,0,0,1,.461.352l.691,2.628a.474.474,0,0,1-.461.6Z" transform="translate(125.016 20.388)" fill="#f5f5f5"/>
        <rect id="Rectángulo_31345" data-name="Rectángulo 31345" width="55.592" height="4.146" transform="translate(427.124 289.586)" fill="#ebebeb"/>
        <rect id="Rectángulo_31346" data-name="Rectángulo 31346" width="66.608" height="10.053" transform="translate(539.175 293.177)" fill="#e6e6e6"/>
        <path id="Trazado_103766" data-name="Trazado 103766" d="M310.518,419.007h0a3.848,3.848,0,0,1-3.848-3.834V278.8h7.682V415.172a3.834,3.834,0,0,1-3.834,3.834Z" transform="translate(108.842 24.43)" fill="#e6e6e6"/>
        <path id="Trazado_103767" data-name="Trazado 103767" d="M442.008,419.007h0a3.848,3.848,0,0,1-3.848-3.834V278.8h7.682V415.172a3.834,3.834,0,0,1-3.834,3.834Z" transform="translate(155.51 24.43)" fill="#e6e6e6"/>
        <rect id="Rectángulo_31347" data-name="Rectángulo 31347" width="188.659" height="10.053" transform="translate(369.526 293.177)" fill="#f0f0f0"/>
        <path id="Trazado_103768" data-name="Trazado 103768" d="M406.854,419.007h0a3.834,3.834,0,0,1-3.834-3.834V278.8H410.7V415.172a3.848,3.848,0,0,1-3.848,3.834Z" transform="translate(143.038 24.43)" fill="#f0f0f0"/>
        <circle id="Elipse_4054" data-name="Elipse 4054" cx="27.708" cy="27.708" r="27.708" transform="translate(462.13 114.927) rotate(-80.78)" fill="#e0e0e0"/>
        <circle id="Elipse_4055" data-name="Elipse 4055" cx="22.234" cy="22.234" r="22.234" transform="translate(471.321 69.778)" fill="#fff" opacity="0.8"/>
        <path id="Trazado_103769" data-name="Trazado 103769" d="M367.068,124.859a2.249,2.249,0,1,1-2.249-2.249,2.249,2.249,0,0,1,2.249,2.249Z" transform="translate(128.682 -31.004)" fill="#e0e0e0"/>
        <path id="Trazado_103770" data-name="Trazado 103770" d="M366.546,128.954l-9.566-9,.921-.989,8.671,8.157L382.114,113.4l.894,1.016Z" transform="translate(126.698 -34.273)" fill="#e0e0e0"/>
        <rect id="Rectángulo_31348" data-name="Rectángulo 31348" width="221.976" height="135.261" transform="translate(90.115 65.144)" fill="#ebebeb"/>
        <rect id="Rectángulo_31349" data-name="Rectángulo 31349" width="1.626" height="135.261" transform="translate(312.118 65.09)" fill="#e0e0e0"/>
        <rect id="Rectángulo_31350" data-name="Rectángulo 31350" width="1.341" height="121.712" transform="translate(96.836 71.025)" fill="#e0e0e0"/>
        <rect id="Rectángulo_31351" data-name="Rectángulo 31351" width="208.156" height="121.712" transform="translate(96.7 71.025)" fill="#fff"/>
        <rect id="Rectángulo_31352" data-name="Rectángulo 31352" width="17.153" height="24.632" transform="translate(220.458 111.577)" fill="#f5f5f5"/>
        <rect id="Rectángulo_31353" data-name="Rectángulo 31353" width="17.153" height="24.632" transform="translate(106.727 150.612)" fill="#f5f5f5"/>
        <rect id="Rectángulo_31354" data-name="Rectángulo 31354" width="17.153" height="17.153" transform="translate(105.047 99.234)" fill="#f5f5f5"/>
        <rect id="Rectángulo_31355" data-name="Rectángulo 31355" width="17.153" height="17.153" transform="translate(190.379 158.471)" fill="#f5f5f5"/>
        <rect id="Rectángulo_31356" data-name="Rectángulo 31356" width="43.926" height="61.73" transform="translate(247.855 113.705)" fill="#f5f5f5"/>
        <rect id="Rectángulo_31357" data-name="Rectángulo 31357" width="31.556" height="0.677" transform="translate(253.871 122.633)" fill="#e0e0e0"/>
        <rect id="Rectángulo_31358" data-name="Rectángulo 31358" width="0.677" height="45.715" transform="translate(269.303 123.297)" fill="#e0e0e0"/>
        <rect id="Rectángulo_31359" data-name="Rectángulo 31359" width="0.677" height="45.715" transform="translate(283.787 123.297)" fill="#e0e0e0"/>
        <rect id="Rectángulo_31360" data-name="Rectángulo 31360" width="0.677" height="45.715" transform="translate(256.431 123.297)" fill="#e0e0e0"/>
        <rect id="Rectángulo_31361" data-name="Rectángulo 31361" width="0.677" height="45.715" transform="translate(254.169 123.297)" fill="#e0e0e0"/>
        <rect id="Rectángulo_31362" data-name="Rectángulo 31362" width="29.293" height="0.677" transform="translate(254.507 125.709)" fill="#e0e0e0"/>
        <rect id="Rectángulo_31363" data-name="Rectángulo 31363" width="5.799" height="13.522" transform="translate(176.383 100.874) rotate(-90)" fill="#f5f5f5"/>
        <rect id="Rectángulo_31364" data-name="Rectángulo 31364" width="4.512" height="13.522" transform="translate(179.025 143.215) rotate(-90)" fill="#f5f5f5"/>
        <rect id="Rectángulo_31365" data-name="Rectángulo 31365" width="43.926" height="61.73" transform="translate(137.294 93.178)" fill="#f0f0f0"/>
        <rect id="Rectángulo_31366" data-name="Rectángulo 31366" width="4.512" height="13.522" transform="translate(175.99 153.2) rotate(-90)" fill="#f5f5f5"/>
        <rect id="Rectángulo_31367" data-name="Rectángulo 31367" width="4.512" height="13.522" transform="translate(178.239 111.943) rotate(-90)" fill="#f5f5f5"/>
        <rect id="Rectángulo_31368" data-name="Rectángulo 31368" width="4.512" height="13.522" transform="translate(175.285 123.148) rotate(-90)" fill="#f5f5f5"/>
        <rect id="Rectángulo_31369" data-name="Rectángulo 31369" width="29.944" height="5.311" transform="translate(142.469 100.765)" fill="#e6e6e6"/>
        <path id="Trazado_103771" data-name="Trazado 103771" d="M135.581,146.752H105.638l-.488-2.412h29.944Z" transform="translate(37.319 -23.292)" fill="#e6e6e6"/>
        <rect id="Rectángulo_31370" data-name="Rectángulo 31370" width="10.623" height="5.311" transform="translate(142.469 111.388)" fill="#e6e6e6"/>
        <rect id="Rectángulo_31371" data-name="Rectángulo 31371" width="44.875" height="0.339" transform="translate(564.702 465.4)" fill="#ebebeb"/>
        <rect id="Rectángulo_31372" data-name="Rectángulo 31372" width="11.774" height="0.339" transform="translate(437.001 469.086)" fill="#ebebeb"/>
        <rect id="Rectángulo_31373" data-name="Rectángulo 31373" width="26.001" height="0.339" transform="translate(537.346 452.827)" fill="#ebebeb"/>
        <rect id="Rectángulo_31374" data-name="Rectángulo 31374" width="58.519" height="0.339" transform="translate(71.079 455.103)" fill="#ebebeb"/>
        <rect id="Rectángulo_31375" data-name="Rectángulo 31375" width="8.577" height="0.339" transform="translate(141.67 455.103)" fill="#ebebeb"/>
        <rect id="Rectángulo_31376" data-name="Rectángulo 31376" width="126.929" height="0.339" transform="translate(178.131 460.821)" fill="#ebebeb"/>
        <path id="Trazado_103772" data-name="Trazado 103772" d="M308.961,438.17H47.327a7.737,7.737,0,0,1-7.737-7.737V62.669A7.737,7.737,0,0,1,47.327,55H308.961a7.737,7.737,0,0,1,7.737,7.737v367.7A7.737,7.737,0,0,1,308.961,438.17ZM47.327,55.271a7.411,7.411,0,0,0-7.4,7.4V430.434a7.411,7.411,0,0,0,7.4,7.4H308.961a7.411,7.411,0,0,0,7.4-7.4V62.669a7.411,7.411,0,0,0-7.4-7.4Z" transform="translate(14.051 -55)" fill="#ebebeb"/>
        <path id="Trazado_103773" data-name="Trazado 103773" d="M525.261,438.17H263.627a7.737,7.737,0,0,1-7.737-7.737V62.669A7.737,7.737,0,0,1,263.627,55H525.261A7.737,7.737,0,0,1,533,62.737v367.7A7.737,7.737,0,0,1,525.261,438.17ZM263.627,55.271a7.411,7.411,0,0,0-7.4,7.4V430.434a7.411,7.411,0,0,0,7.4,7.4H525.261a7.411,7.411,0,0,0,7.4-7.4V62.669a7.411,7.411,0,0,0-7.4-7.4Z" transform="translate(90.819 -55)" fill="#ebebeb"/>
        <rect id="Rectángulo_31377" data-name="Rectángulo 31377" width="677.458" height="0.339" transform="translate(0 443.6)" fill="#ebebeb"/>
      </g>
      <g id="freepik--Shadow--inject-126" transform="translate(76.024 523.991)">
        <ellipse id="freepik--shadow--inject-126-2" data-name="freepik--shadow--inject-126" cx="262.705" cy="15.338" rx="262.705" ry="15.338" fill="#f5f5f5"/>
      </g>
      <g id="freepik--Plant--inject-126" transform="translate(398.25 368.853)">
        <path id="Trazado_103774" data-name="Trazado 103774" d="M320.432,399.859s-4.268-47.883-26.5-93.869c0,0,32.83,30.648,33.981,93.869Z" transform="translate(-293.93 -279.772)" fill="#00a7e3"/>
        <path id="Trazado_103775" data-name="Trazado 103775" d="M325.8,397.725s3.712-53.912,12.1-80.875c0,0,4.593,33.453-7.384,79.357Z" transform="translate(-282.619 -275.918)" fill="#00a7e3"/>
        <path id="Trazado_103776" data-name="Trazado 103776" d="M325.8,397.725s3.712-53.912,12.1-80.875c0,0,4.593,33.453-7.384,79.357Z" transform="translate(-282.619 -275.918)" opacity="0.3"/>
        <path id="Trazado_103777" data-name="Trazado 103777" d="M323.522,405.247s-5.758-72.556,10.365-105.087c0,0,1.734,65.944-2.3,105.087Z" transform="translate(-283.782 -281.842)" fill="#00a7e3"/>
        <path id="Trazado_103778" data-name="Trazado 103778" d="M323.522,405.247s-5.758-72.556,10.365-105.087c0,0,1.734,65.944-2.3,105.087Z" transform="translate(-283.782 -281.842)" opacity="0.2"/>
        <path id="Trazado_103779" data-name="Trazado 103779" d="M335.273,402.589s4.254-47.883,26.5-93.869c0,0-32.843,30.648-33.995,93.869Z" transform="translate(-281.916 -278.803)" fill="#00a7e3"/>
        <path id="Trazado_103780" data-name="Trazado 103780" d="M321.257,414.138s-17.871-83.354-14.687-127.5c0,0,23.9,49.143,22.749,123.406Z" transform="translate(-289.579 -286.64)" fill="#00a7e3"/>
        <path id="Trazado_103781" data-name="Trazado 103781" d="M321.257,414.138s-17.871-83.354-14.687-127.5c0,0,23.9,49.143,22.749,123.406Z" transform="translate(-289.579 -286.64)" fill="#fff" opacity="0.1"/>
        <path id="Trazado_103782" data-name="Trazado 103782" d="M337.856,426.09H321.2a10.907,10.907,0,0,1-10.839-9.85L306.11,372.3h46.867l-4.254,43.94A10.839,10.839,0,0,1,337.856,426.09Z" transform="translate(-289.607 -256.238)" fill="#00a7e3"/>
        <path id="Trazado_103783" data-name="Trazado 103783" d="M336.4,426.09H322.656a12.519,12.519,0,0,1-12.452-11.3L306.14,372.3h46.867l-4.065,42.49A12.52,12.52,0,0,1,336.4,426.09Z" transform="translate(-289.596 -256.238)" fill="#fff" opacity="0.3"/>
      </g>
      <g id="freepik--Character--inject-126" transform="translate(265.764 176.561)">
        <path id="Trazado_103784" data-name="Trazado 103784" d="M255.632,202.37l2.629-11.422-3.035-6.544a3.225,3.225,0,0,1-.406-2.1,66.2,66.2,0,0,1,1.49-6.626,1.653,1.653,0,0,1,2.032-1.07l5.989,1.694c1.26.2,2.466,9.091,2.466,9.091a3.089,3.089,0,0,1-.081,1.788l-1.789,5.6-1.07,13.847Z" transform="translate(-175.337 -134.134)" fill="#ffc3bd"/>
        <path id="Trazado_103785" data-name="Trazado 103785" d="M238.327,186.636a69.67,69.67,0,0,1,21.232,22.817c.759-2.615,4.376-13.644,3.74-16.747a4.282,4.282,0,0,1-.149-1.978c.176-.637.948-1.165,1.517-.827,4.444-.488,8.13.312,12.519.894-1.206,10.013-3.211,42.151-19.673,35.621-12.262-4.851-21.177-16.259-25.906-28.6a15.365,15.365,0,0,1-1.247-6.111,7,7,0,0,1,2.71-5.42C234.75,185.064,236.647,185.471,238.327,186.636Z" transform="translate(-184.006 -130.229)" fill="#990f82"/>
        <path id="Trazado_103786" data-name="Trazado 103786" d="M238.327,186.636a69.67,69.67,0,0,1,21.232,22.817c.759-2.615,4.376-13.644,3.74-16.747a4.282,4.282,0,0,1-.149-1.978c.176-.637.948-1.165,1.517-.827,4.444-.488,8.13.312,12.519.894-1.206,10.013-3.211,42.151-19.673,35.621-12.262-4.851-21.177-16.259-25.906-28.6a15.365,15.365,0,0,1-1.247-6.111,7,7,0,0,1,2.71-5.42C234.75,185.064,236.647,185.471,238.327,186.636Z" transform="translate(-184.006 -130.229)" opacity="0.2"/>
        <path id="Trazado_103787" data-name="Trazado 103787" d="M225.518,261a417.165,417.165,0,0,1-.271,55.213s-3.469-29.334-5.257-41.067Z" transform="translate(-187.686 -103.449)"/>
        <path id="Trazado_103788" data-name="Trazado 103788" d="M218.333,187.572c1.694-5.8,1.07-14.037.3-19.172l12.8,11.95a15.134,15.134,0,0,0-.6,6.869,2.493,2.493,0,0,0,2.195,2.046l5.352,1.5.732,4.065-3.171.921-4.173,4.512-10.5-4.065L210,191.339a20.743,20.743,0,0,1,5.149-1.111,4.5,4.5,0,0,0,3.184-2.656Z" transform="translate(-191.232 -136.314)" fill="#ffc3bd"/>
        <path id="Trazado_103789" data-name="Trazado 103789" d="M220.512,172.7l7.384,6.775a16.263,16.263,0,0,0-.569,4.065,10.745,10.745,0,0,1-7.628-6.531C219.035,174.99,219.74,172.9,220.512,172.7Z" transform="translate(-187.883 -134.788)" opacity="0.2"/>
        <path id="Trazado_103790" data-name="Trazado 103790" d="M214.807,165.275c.8,9.484.8,15.012,5.7,19.741,7.357,7.14,18.969,2.493,20.947-6.978,1.816-8.59.176-22.559-9.173-26.082a12.9,12.9,0,0,0-17.478,13.319Z" transform="translate(-189.549 -142.457)" fill="#ffc3bd"/>
        <path id="Trazado_103791" data-name="Trazado 103791" d="M224.514,162.313c.095.759.569,1.355,1.07,1.274s.827-.732.732-1.5-.569-1.355-1.07-1.26S224.419,161.554,224.514,162.313Z" transform="translate(-186.086 -139.007)" fill="#263238"/>
        <path id="Trazado_103792" data-name="Trazado 103792" d="M231.324,161.482c.095.759.569,1.355,1.07,1.274s.827-.732.732-1.49-.569-1.355-1.07-1.274S231.229,160.71,231.324,161.482Z" transform="translate(-183.669 -139.301)" fill="#263238"/>
        <path id="Trazado_103793" data-name="Trazado 103793" d="M223.86,161.842a.65.65,0,0,1-.23,0,.474.474,0,0,1-.23-.61,4.593,4.593,0,0,1,3.211-2.6.474.474,0,0,1,.515.393.461.461,0,0,1-.379.515h0a3.591,3.591,0,0,0-2.52,2.087.434.434,0,0,1-.366.217Z" transform="translate(-186.489 -139.782)" fill="#263238"/>
        <path id="Trazado_103794" data-name="Trazado 103794" d="M234.909,160.419a.461.461,0,0,1-.406-.135,3.563,3.563,0,0,0-2.994-1.233.453.453,0,1,1-.149-.894,4.512,4.512,0,0,1,3.848,1.517.447.447,0,0,1,0,.623h0A.379.379,0,0,1,234.909,160.419Z" transform="translate(-183.786 -139.958)" fill="#263238"/>
        <path id="Trazado_103795" data-name="Trazado 103795" d="M219.421,159.83a10.839,10.839,0,0,1,.149,7.33,3.576,3.576,0,0,0-1.355-.325,1.748,1.748,0,0,0-1.572.7,2.574,2.574,0,0,0,0,2.005q1.246,4.471,2.71,8.861a28.968,28.968,0,0,1-8.753-17.614C213.323,160.426,216.629,160.169,219.421,159.83Z" transform="translate(-191.019 -139.355)" fill="#263238"/>
        <path id="Trazado_103796" data-name="Trazado 103796" d="M211.75,169.857a8.983,8.983,0,0,0,5.7,3.834c3.1.6,4.39-2.236,3.32-5.027-.962-2.507-3.74-5.853-6.775-5.2S210.151,167.391,211.75,169.857Z" transform="translate(-190.895 -138.096)" fill="#ffc3bd"/>
        <path id="Trazado_103797" data-name="Trazado 103797" d="M229.78,162.85a26.365,26.365,0,0,0,4.7,5.677,4.471,4.471,0,0,1-3.455,1.45Z" transform="translate(-184.212 -138.284)" fill="#ed893e"/>
        <path id="Trazado_103798" data-name="Trazado 103798" d="M252.28,388.153l8.712-3.143,4.973,21.015-8.726,3.157Z" transform="translate(-176.226 -59.435)" fill="#ffc3bd"/>
        <path id="Trazado_103799" data-name="Trazado 103799" d="M205.747,389.83l9.254.528-1.707,21.394-9.254-.528Z" transform="translate(-193.347 -57.725)" fill="#ffc3bd"/>
        <path id="Trazado_103800" data-name="Trazado 103800" d="M217.083,406.07c2.181,2.181,7.357,4.647,14.471,6.626,1.558.434.84,4.241-3.049,4.065s-12.357-1-15.161-1.165c-4.566-.257-7.262-.136-10.839-.352a1.153,1.153,0,0,1-.312,0,1.355,1.355,0,0,1-.948-1.68l2.3-8.13a.8.8,0,0,1,.827-.583l11.273.637A2.249,2.249,0,0,1,217.083,406.07Z" transform="translate(-194.358 -52.394)" fill="#263238"/>
        <path id="Trazado_103801" data-name="Trazado 103801" d="M267.2,399.63c7.262,1.233,8.577.65,15.866-.6,1.572-.271,2.032,3.685-1.49,5.108-5.84,2.358-6.029,2.344-10.961,4.363-4.254,1.694-9.064,3.875-12.425,5.3a1.165,1.165,0,0,1-.312.081,1.355,1.355,0,0,1-1.545-1.111L255,404.413a.84.84,0,0,1,.5-.894l9.376-3.78a4.337,4.337,0,0,1,2.317-.108Z" transform="translate(-175.263 -54.463)" fill="#263238"/>
        <path id="Trazado_103802" data-name="Trazado 103802" d="M252.27,388.163,254.831,399l8.726-3.157L261,385.02Z" transform="translate(-176.229 -59.432)" opacity="0.2"/>
        <path id="Trazado_103803" data-name="Trazado 103803" d="M204.65,400.859l9.254.542.881-11.043-9.254-.528Z" transform="translate(-193.131 -57.725)" opacity="0.2"/>
        <path id="Trazado_103804" data-name="Trazado 103804" d="M278.267,441.311l-14.538,5.867s-18.481-69.019-23.508-93.069S217.58,247.07,217.58,247.07l32.518.257s10.46,73.734,13.725,101.822C267.278,378.4,278.267,441.311,278.267,441.311Z" transform="translate(-188.542 -108.392)" fill="#263238"/>
        <path id="Trazado_103805" data-name="Trazado 103805" d="M232.508,318.682l-9.918-46.894,4.81-3.889C233.985,277.1,234.581,302.152,232.508,318.682Z" transform="translate(-186.763 -101)" opacity="0.2"/>
        <path id="Trazado_103806" data-name="Trazado 103806" d="M206.063,247s-.488,79.764-1.748,112.756c-1.152,29.212-2.005,89.424-2.005,89.424l16.95.976s6.775-65.619,9.484-95.237c2.371-27.1,13.238-107.689,13.238-107.689Z" transform="translate(-193.961 -108.417)" fill="#263238"/>
        <path id="Trazado_103807" data-name="Trazado 103807" d="M222.184,392.863l-20.974-.813.488,6,18.6,1.07Z" transform="translate(-194.352 -56.937)" fill="#00a7e3"/>
        <path id="Trazado_103808" data-name="Trazado 103808" d="M267.411,385.63,248.7,393.218l3.116,5.569,16.422-6.639Z" transform="translate(-177.497 -59.215)" fill="#00a7e3"/>
        <path id="Trazado_103809" data-name="Trazado 103809" d="M214.668,407.207a2.845,2.845,0,0,0,1.816-.379,1.274,1.274,0,0,0,.515-1.165.664.664,0,0,0-.339-.65c-.989-.583-4.065,1.07-4.431,1.274a.19.19,0,0,0-.108.2.217.217,0,0,0,.149.19A10.392,10.392,0,0,0,214.668,407.207Zm1.49-1.843a.676.676,0,0,1,.285,0,.325.325,0,0,1,.122.271.894.894,0,0,1-.352.786,4.39,4.39,0,0,1-3.292,0,8.821,8.821,0,0,1,3.238-1.043Z" transform="translate(-190.48 -52.38)" fill="#00a7e3"/>
        <path id="Trazado_103810" data-name="Trazado 103810" d="M212.357,407.317h.095c.989-.447,2.967-2.371,2.818-3.442a.691.691,0,0,0-.664-.61,1.192,1.192,0,0,0-.948.217c-1.111.826-1.5,3.523-1.518,3.591a.23.23,0,0,0,.095.2Zm2.073-3.631h.108c.271,0,.3.19.3.257.081.6-1.179,2.073-2.181,2.71a5.42,5.42,0,0,1,1.26-2.832A.787.787,0,0,1,214.43,403.686Z" transform="translate(-190.472 -52.964)" fill="#00a7e3"/>
        <path id="Trazado_103811" data-name="Trazado 103811" d="M263.31,401.224h0c1.5-.3,4.065-.976,4.7-2.141a1.233,1.233,0,0,0,0-1.206.718.718,0,0,0-.555-.406c-1.274-.135-4.065,2.981-4.336,3.36a.23.23,0,0,0,0,.257.217.217,0,0,0,.19.136Zm4.065-3.292h0a.23.23,0,0,1,.2.163.813.813,0,0,1,0,.745c-.352.691-1.734,1.355-3.712,1.8,1.125-1.219,2.71-2.71,3.469-2.71Z" transform="translate(-172.393 -55.014)" fill="#00a7e3"/>
        <path id="Trazado_103812" data-name="Trazado 103812" d="M263.386,401.518a.176.176,0,0,0,.149-.068c.867-.894,2.154-3.577,1.612-4.5-.135-.2-.406-.42-.989-.257a1.64,1.64,0,0,0-.989.813,6.287,6.287,0,0,0,0,3.848.23.23,0,0,0,.163.149Zm1.152-4.444a.244.244,0,0,1,.23.108c.325.555-.474,2.574-1.274,3.631a5.013,5.013,0,0,1,.068-3.089,1.1,1.1,0,0,1,.718-.6.787.787,0,0,1,.257,0Z" transform="translate(-172.468 -55.308)" fill="#00a7e3"/>
        <path id="Trazado_103813" data-name="Trazado 103813" d="M212.177,185.476s.366-.149,1.125-.366l1.6-.2,2.412-.637h0c.813.528,12.533,8.13,16.259,9.593l1.152.176a20.323,20.323,0,0,0,3.021-10.379H239.1a3.306,3.306,0,0,0,1.545.759l1.111.122,3.5,2.452s7.7,15.568,10.568,54.7l1.355,29.618-55.714,1.585Z" transform="translate(-194.263 -130.898)" fill="#fff"/>
        <g id="Grupo_90645" data-name="Grupo 90645" transform="translate(42.127 59.998)" opacity="0.4">
          <path id="Trazado_103814" data-name="Trazado 103814" d="M227.24,189a.484.484,0,0,1,0,.122v-.108Z" transform="translate(-227.24 -189)"/>
        </g>
        <path id="Trazado_103815" data-name="Trazado 103815" d="M227.24,189a.484.484,0,0,1,0,.122v-.108Z" transform="translate(-185.113 -129.002)" fill="#00a7e3"/>
        <path id="Trazado_103816" data-name="Trazado 103816" d="M228.3,183.64s7.98,3.1,11.49,24.388,2.6,25.378,3.78,55.552c.3,7.682.271,15.311,6.029,14.362,0,0,.339,1.477-1.138-31.908S249.084,183.667,228.3,183.64Z" transform="translate(-184.737 -130.905)" fill="#990f82"/>
        <path id="Trazado_103818" data-name="Trazado 103818" d="M215.383,184.14s9.62,4.986,11.625,38.263,8.2,55.7-2.994,57.069-23.643-4.58-23.643-4.58-1.043,3.049.61-12.316c1.355-12.831.677-2.4,1.49-14.552.935-14.05-7.818-52.422-3.021-56.419S215.383,184.14,215.383,184.14Z" transform="translate(-195.49 -130.727)" fill="#990f82"/>
        <g id="Grupo_90648" data-name="Grupo 90648" transform="translate(11.953 119.863)" opacity="0.3">
          <path id="Trazado_103820" data-name="Trazado 103820" d="M4.431,0h6.91a4.431,4.431,0,0,1,4.431,4.431v1H0v-1A4.431,4.431,0,0,1,4.431,0Z" transform="translate(15.668 7.197) rotate(-173.45)"/>
        </g>
        <path id="Trazado_103821" data-name="Trazado 103821" d="M231.15,212.664l12.6-2.032,3.889-5.094a3.17,3.17,0,0,1,1.8-1.165l4.4-1.07a3.252,3.252,0,0,1,2.791.65l1.6,1.355a3.089,3.089,0,0,1,1.084,1.775l.461,2.073a3.211,3.211,0,0,1-1.26,3.292L252.192,217a3.089,3.089,0,0,1-1.694.6l-5.542.312-14.647,3.983Z" transform="translate(-184.023 -123.956)" fill="#ffc3bd"/>
        <path id="Trazado_103822" data-name="Trazado 103822" d="M229.584,171.433a6.463,6.463,0,0,1-4.187-2.845.225.225,0,1,1,.393-.217,6.111,6.111,0,0,0,4.688,2.71.224.224,0,1,1,0,.447h0A3.774,3.774,0,0,1,229.584,171.433Z" transform="translate(-185.776 -136.366)" fill="#263238"/>
        <path id="Trazado_103823" data-name="Trazado 103823" d="M213.19,184.24,231.2,200.309l.7-1.274a22.64,22.64,0,0,0,1.816-15.405,20.106,20.106,0,0,1-1.355,7.262l-2.222-4.986a18.454,18.454,0,0,1-.583,4.065l-1.206-1.206-3.36,2.71C219.992,188.657,213.773,184.633,213.19,184.24Z" transform="translate(-190.1 -130.908)" fill="#e8e8e8"/>
        <path id="Trazado_103825" data-name="Trazado 103825" d="M225.18,190.925a41.9,41.9,0,0,1,7.452,5c-.244-1.87-.488-3.726-.718-5.582a17.79,17.79,0,0,0-1.423-5.772,5.934,5.934,0,0,0-4.566-3.455c-.163,0-.5-.325-.664-.325A23.033,23.033,0,0,1,225.18,190.925Z" transform="translate(-185.844 -131.916)" fill="#93cef1"/>
        <path id="Trazado_103827" data-name="Trazado 103827" d="M229.446,191.241l-6.327,6.639s-10.067-10.839-9.959-13.915l4.783-4.065Z" transform="translate(-190.11 -132.232)" fill="#93cef1"/>
        <path id="Trazado_103829" data-name="Trazado 103829" d="M222.79,191.654,225.96,195a1.965,1.965,0,0,0,1.572.637l2.236-.312a.867.867,0,0,0,.664-.759l-.935-4.254-3.482-2.032Z" transform="translate(-186.692 -129.258)" fill="#00a7e3"/>
        <path id="Trazado_103830" data-name="Trazado 103830" d="M226.191,233.541s4.2,10.772,5.785,9.484,5.013-8.455,5.013-8.6a148.635,148.635,0,0,0-8.319-41.122l-2.561.325a333.705,333.705,0,0,1,.081,39.916Z" transform="translate(-185.514 -127.476)" fill="#00a7e3"/>
        <path id="Trazado_103831" data-name="Trazado 103831" d="M249.44,215.391c1.531,1.03,4.241,9.932-.257,11.232-4.525,1.843-24.47,8.942-34.374,7.344-2.6-.406-5.122-1.274-6.6-3.455a70,70,0,0,1-12-33.521c-.257-2.967.19-6.775,4.973-7.6a13.17,13.17,0,0,1,9.254,5.528c5.3,8.82,5.677,15.893,9.877,25.161Z" transform="translate(-196.148 -128.864)" fill="#990f82"/>
        <g id="Grupo_90649" data-name="Grupo 90649" transform="translate(0 60.526)" opacity="0.2">
          <path id="Trazado_103832" data-name="Trazado 103832" d="M249.44,215.391c1.531,1.03,4.241,9.932-.257,11.232-4.525,1.843-24.47,8.942-34.374,7.344-2.6-.406-5.122-1.274-6.6-3.455a70,70,0,0,1-12-33.521c-.257-2.967.19-6.775,4.973-7.6a13.17,13.17,0,0,1,9.254,5.528c5.3,8.82,5.677,15.893,9.877,25.161Z" transform="translate(-196.148 -189.39)"/>
        </g>
        <path id="Trazado_103833" data-name="Trazado 103833" d="M234.292,167.627a4.065,4.065,0,0,1-3.916-3.171L229.36,159.8l9.484-.976v4.769a4.065,4.065,0,0,1-3.6,3.97h-.474Zm-3.225-6.585.677,3.116a2.6,2.6,0,0,0,2.818,2.046h.474a2.615,2.615,0,0,0,2.344-2.588v-3.2Z" transform="translate(-184.361 -139.714)" fill="#00a7e3"/>
        <path id="Trazado_103834" data-name="Trazado 103834" d="M227.352,168.307a4.065,4.065,0,0,1-3.929-3.17l-1-4.661,9.484-.976v4.769a4.065,4.065,0,0,1-3.6,3.97h-.474Zm-3.225-6.6.677,3.13a2.615,2.615,0,0,0,2.818,2.046h.474a2.615,2.615,0,0,0,2.344-2.574v-3.2Z" transform="translate(-186.824 -139.472)" fill="#00a7e3"/>
        <rect id="Rectángulo_31378" data-name="Rectángulo 31378" width="3.211" height="1.409" transform="translate(43.301 20.247) rotate(-5.94)" fill="#00a7e3"/>
        <path id="Trazado_103835" data-name="Trazado 103835" d="M214.673,164.668l-.393-1.341,8.82-2.629,3.387-.528.2,1.382-3.279.5Z" transform="translate(-189.713 -139.235)" fill="#00a7e3"/>
        <path id="Trazado_103836" data-name="Trazado 103836" d="M242.061,162.714c1.68-.135,2.71-2.507,1.992-4.065s-1.626-2.48-2.249-3.916a29.485,29.485,0,0,0-3.211-6.016,9.932,9.932,0,0,0-5.42-3.889c-2.208-.528-3.848.948-5.772,2.181a16.869,16.869,0,0,1-6.273,1.938,15.08,15.08,0,0,0-6.219,2.059,5.42,5.42,0,0,0-2.4,5.677C227.265,152.714,223.132,164.407,242.061,162.714Z" transform="translate(-190.381 -144.719)" fill="#263238"/>
        <path id="Trazado_103837" data-name="Trazado 103837" d="M258.792,178.8c0-1.707,0-3.414.095-5.108,0-.61,0-1.355-.515-1.639a1.441,1.441,0,0,0-1.816.718c-.3.718-.962,6.341-1.057,7.195C256.286,180.869,258.779,179.975,258.792,178.8Z" transform="translate(-175.083 -135.057)" fill="#ffc3bd"/>
        <path id="Trazado_103838" data-name="Trazado 103838" d="M210.332,163.611a7.317,7.317,0,0,1,8.4-11.043c2.9.989,5.948-.352,8.983-.759-2.073,2.209-1.951,9.891-2.425,10.392a4.064,4.064,0,0,1-1.8.948C219.437,164.424,214.4,164.262,210.332,163.611Z" transform="translate(-191.563 -142.202)" fill="#263238"/>
      </g>
      <g id="freepik--light-bulb--inject-126" transform="translate(200.32 70.826)">
        <path id="Trazado_103839" data-name="Trazado 103839" d="M181.94,91.15a2.087,2.087,0,0,1-2.209-1.355l-8.211-20.215a2.106,2.106,0,1,1,3.9-1.585l8.211,20.215a2.114,2.114,0,0,1-1.152,2.71,1.992,1.992,0,0,1-.542.23Z" transform="translate(-139.5 -66.68)" fill="#00a7e3"/>
        <path id="Trazado_103840" data-name="Trazado 103840" d="M234.491,129.365a2.141,2.141,0,0,1-1.084-.149l-20.568-8.685a2.114,2.114,0,0,1,1.639-3.889l20.568,8.658a2.114,2.114,0,0,1-.556,4.065Z" transform="translate(-125.199 -48.991)" fill="#00a7e3"/>
        <path id="Trazado_103841" data-name="Trazado 103841" d="M170.148,102.187a2.154,2.154,0,0,1-1.084-.149l-19.728-8.319a2.1,2.1,0,1,1,1.639-3.875l19.673,8.306a2.114,2.114,0,0,1-.556,4.065Z" transform="translate(-147.774 -58.518)" fill="#00a7e3"/>
        <path id="Trazado_103842" data-name="Trazado 103842" d="M214.049,102.873a2.1,2.1,0,1,1-1.057-4.065l20.893-8.427a2.106,2.106,0,1,1,1.585,3.9l-20.839,8.455A1.9,1.9,0,0,1,214.049,102.873Z" transform="translate(-125.284 -58.324)" fill="#00a7e3"/>
        <path id="Trazado_103843" data-name="Trazado 103843" d="M150.236,128.639a2.114,2.114,0,0,1-1.043-4.065l19.592-7.953a2.106,2.106,0,1,1,1.585,3.9l-19.606,7.967a1.9,1.9,0,0,1-.528.149Z" transform="translate(-147.847 -49.011)" fill="#00a7e3"/>
        <path id="Trazado_103844" data-name="Trazado 103844" d="M200.006,91.741a2.032,2.032,0,0,1-1.084-.149,2.087,2.087,0,0,1-1.111-2.71l8.671-20.527a2.1,2.1,0,1,1,3.834,1.6l-8.671,20.527A2.073,2.073,0,0,1,200.006,91.741Z" transform="translate(-130.169 -66.649)" fill="#00a7e3"/>
        <path id="Trazado_103845" data-name="Trazado 103845" d="M173.178,154.977a2.14,2.14,0,0,1-1.084-.163,2.1,2.1,0,0,1-1.125-2.71l8.319-19.8a2.114,2.114,0,0,1,3.889,1.639l-8.319,19.7A2.141,2.141,0,0,1,173.178,154.977Z" transform="translate(-139.694 -43.806)" fill="#00a7e3"/>
        <path id="Trazado_103846" data-name="Trazado 103846" d="M220.931,104.932a27.192,27.192,0,1,0-50.283,20.718c4.148,10.066,14.906,13.548,23.32,19.469,2.588,1.829,6.219,11.137,6.219,11.137l21.326-8.78s-3.97-9.173-3.428-12.289C219.874,125.133,225.077,115.066,220.931,104.932Z" transform="translate(-140.485 -59.082)" fill="#00a7e3"/>
        <path id="Trazado_103847" data-name="Trazado 103847" d="M220.931,104.932a27.192,27.192,0,1,0-50.283,20.718c4.148,10.066,14.906,13.548,23.32,19.469,2.588,1.829,6.219,11.137,6.219,11.137l21.326-8.78s-3.97-9.173-3.428-12.289C219.874,125.133,225.077,115.066,220.931,104.932Z" transform="translate(-140.485 -59.082)" fill="#fff" opacity="0.5"/>
        <path id="Trazado_103848" data-name="Trazado 103848" d="M210.076,141.59l-9.105,3.753a6.626,6.626,0,0,1-8.631-3.6h0L213.666,133h0A6.612,6.612,0,0,1,210.076,141.59Z" transform="translate(-132.056 -43.142)" fill="#263238"/>
        <path id="Trazado_103849" data-name="Trazado 103849" d="M205.842,147.295h0a5.42,5.42,0,0,1-7.032-2.94h0l9.972-4.065h0a5.42,5.42,0,0,1-2.94,7Z" transform="translate(-129.759 -40.555)" fill="#263238"/>
        <path id="Trazado_103850" data-name="Trazado 103850" d="M205.842,147.295h0a5.42,5.42,0,0,1-7.032-2.94h0l9.972-4.065h0a5.42,5.42,0,0,1-2.94,7Z" transform="translate(-129.759 -40.555)" fill="#fff" opacity="0.5"/>
        <g id="Grupo_90650" data-name="Grupo 90650" transform="translate(60.284 89.858)" opacity="0.7">
          <path id="Trazado_103851" data-name="Trazado 103851" d="M210.076,141.59l-9.105,3.753a6.626,6.626,0,0,1-8.631-3.6h0L213.666,133h0A6.612,6.612,0,0,1,210.076,141.59Z" transform="translate(-192.34 -133)" fill="#fff"/>
        </g>
        <path id="Trazado_103852" data-name="Trazado 103852" d="M215.466,100.319c6.436,15.853,3.807,37.856-8.441,42.842s-30.35-11.1-35.919-24.836c-3.441-8.455,3.712-19.348,15.961-24.388S212.038,91.837,215.466,100.319Z" transform="translate(-139.898 -57.883)" fill="#fff" opacity="0.3"/>
        <path id="Trazado_103853" data-name="Trazado 103853" d="M210.262,114.239a15.405,15.405,0,1,1-8.282-8.4,15.419,15.419,0,0,1,8.282,8.4Z" transform="translate(-136.238 -53.214)" fill="#fff" opacity="0.4"/>
        <path id="Trazado_103854" data-name="Trazado 103854" d="M205.778,116.885c2.249,5.542-1.558,9.051-7.1,11.3s-10.717,2.385-12.967-3.157,1.585-8.97,7.127-11.219S203.515,111.343,205.778,116.885Z" transform="translate(-134.641 -50.481)" fill="#fff" opacity="0.4"/>
        <rect id="Rectángulo_31379" data-name="Rectángulo 31379" width="1.409" height="28.67" transform="translate(53.139 68.981) rotate(-26.13)" fill="#00a7e3"/>
        <rect id="Rectángulo_31380" data-name="Rectángulo 31380" width="1.409" height="28.67" transform="matrix(0.951, -0.31, 0.31, 0.951, 64.663, 64.189)" fill="#00a7e3"/>
        <path id="Trazado_103855" data-name="Trazado 103855" d="M197.08,125.643l-7.94-3.36.542-1.287,6.653,2.8,2.764-6.531,1.287.542Z" transform="translate(-133.191 -48.725)" fill="#00a7e3"/>
      </g>
      <g id="freepik--Icons--inject-126" transform="translate(255.971 165.117)">
        <path id="Trazado_103856" data-name="Trazado 103856" d="M195.525,182.249a2.005,2.005,0,0,1-2.005-2.005V167.792a2.032,2.032,0,0,1,4.065,0v12.452a2.019,2.019,0,0,1-2.059,2.005Z" transform="translate(-187.287 -125.807)" fill="#990f82"/>
        <path id="Trazado_103857" data-name="Trazado 103857" d="M203.4,174.4H190.952a2.032,2.032,0,1,1,0-4.065H203.4a2.032,2.032,0,0,1,0,4.065Z" transform="translate(-188.92 -124.181)" fill="#990f82"/>
        <path id="Trazado_103860" data-name="Trazado 103860" d="M252.483,161.755a3.143,3.143,0,0,1-3.143-3.143v-19.4a3.143,3.143,0,0,1,6.273,0v19.4a3.13,3.13,0,0,1-3.13,3.143Z" transform="translate(-167.476 -136.272)" fill="#990f82"/>
        <path id="Trazado_103861" data-name="Trazado 103861" d="M264.78,149.565h-19.4a3.143,3.143,0,1,1,0-6.273h19.4a3.143,3.143,0,0,1,0,6.273Z" transform="translate(-170.071 -133.783)" fill="#990f82"/>
      </g>
    </g>
  </g>
</svg>
