<svg xmlns="http://www.w3.org/2000/svg" xmlns:xlink="http://www.w3.org/1999/xlink" width="1030" height="450" viewBox="0 0 1030 450">
  <defs>
    <radialGradient id="radial-gradient" cx="0.5" cy="0.5" r="0.5" gradientTransform="translate(0)" gradientUnits="objectBoundingBox">
      <stop offset="0"/>
      <stop offset="0.724"/>
      <stop offset="1" stop-color="#fff" stop-opacity="0"/>
    </radialGradient>
  </defs>
  <g id="Grupo_90841" data-name="Grupo 90841" transform="translate(-285 -2063)">
    <rect id="Rectángulo_5204" data-name="Rectángulo 5204" width="1030" height="450" transform="translate(285 2063)" fill="#fff"/>
    <g id="Grupo_90724" data-name="Grupo 90724" transform="translate(1157.286 2601.209)">
      <path id="Trazado_104737" data-name="Trazado 104737" d="M-354.959-341.734l8.2-135.467a19.146,19.146,0,0,1,22.651-17.669,168.629,168.629,0,0,1,106.3,68.534h0l21.932,4.192-7.257,20.924h0A168.361,168.361,0,0,1-186.964-329.1a168.752,168.752,0,0,1-9.377,55.451,19.14,19.14,0,0,1-26.626,10.795l-121.428-60.593A19.148,19.148,0,0,1-354.959-341.734Z" fill="#00a7e3" fill-rule="evenodd"/>
      <path id="Trazado_104738" data-name="Trazado 104738" d="M-356.488-341.731-364.675-477.2a19.146,19.146,0,0,0-22.651-17.671,168.635,168.635,0,0,0-106.3,68.534h-.02l-21.912,4.192,7.257,20.924h0A168.361,168.361,0,0,0-524.464-329.1a168.721,168.721,0,0,0,9.369,55.456,19.14,19.14,0,0,0,26.626,10.792l121.418-60.6A19.148,19.148,0,0,0-356.488-341.731Z" fill="#93cef1" fill-rule="evenodd"/>
      <path id="Trazado_104739" data-name="Trazado 104739" d="M-345.164-322.11a19.147,19.147,0,0,0-21.123,0l-99.019,65.455-14.189,9.379a19.145,19.145,0,0,0-3.976,28.449,168.71,168.71,0,0,0,112.487,57.809h0l14.615,16.872L-341.9-160.88v-.02a167.786,167.786,0,0,0,70.552-22.053A168.456,168.456,0,0,0-228-218.779a19.14,19.14,0,0,0-3.964-28.456l-13.675-9.046Z" fill="#990f82" fill-rule="evenodd"/>
      <path id="Trazado_104740" data-name="Trazado 104740" d="M-475.714-322.551A126.557,126.557,0,0,1-349.181-449.106,126.562,126.562,0,0,1-222.625-322.551,126.548,126.548,0,0,1-349.181-196,126.543,126.543,0,0,1-475.714-322.551Z" transform="translate(-6.544 -6.545)" fill-rule="evenodd" fill="url(#radial-gradient)" style="mix-blend-mode: multiply;isolation: isolate"/>
      <g id="Grupo_90718" data-name="Grupo 90718">
        <g id="Grupo_90717" data-name="Grupo 90717">
          <path id="Trazado_104741" data-name="Trazado 104741" d="M-375.337-202l2.172,10.722,5.041-9.7,3.81.539-1.991,14.078-2.911-.411.544-3.848,1.23-6.6-5.284,9.955-1.992-.282-2.308-11.018-.648,6.675-.544,3.848-2.9-.41,1.991-14.079Z" fill="#fefefe"/>
          <path id="Trazado_104742" data-name="Trazado 104742" d="M-360.013-186.215l-2.829-.125.465-10.556,2.829.125Zm-2.409-13.42a1.387,1.387,0,0,1,.47-1.025,1.592,1.592,0,0,1,1.174-.359,1.6,1.6,0,0,1,1.133.46,1.387,1.387,0,0,1,.384,1.063,1.385,1.385,0,0,1-.481,1.035,1.6,1.6,0,0,1-1.164.359,1.6,1.6,0,0,1-1.129-.461A1.383,1.383,0,0,1-362.422-199.635Z" fill="#fefefe"/>
          <path id="Trazado_104743" data-name="Trazado 104743" d="M-353.139-193.592l1.71-3.191,3.017-.063-2.9,5.238,3.247,5.323-3.027.064-1.954-3.28-1.8,3.358-3.036.064,3.021-5.455-3.106-5.112,3.027-.063Z" fill="#fefefe"/>
          <path id="Trazado_104744" data-name="Trazado 104744" d="M-343.979-199.907l.239,2.587,1.8-.167.191,2.062-1.8.166.486,5.251a1.259,1.259,0,0,0,.3.816,1.126,1.126,0,0,0,.879.173,4.49,4.49,0,0,0,.82-.144l.2,2.129a5.761,5.761,0,0,1-1.678.41q-2.957.274-3.291-2.706l-.524-5.669-1.537.143-.191-2.062,1.537-.143-.24-2.586Z" fill="#fefefe"/>
          <path id="Trazado_104745" data-name="Trazado 104745" d="M-340.3-192.4a6.263,6.263,0,0,1,.133-2.864,4.436,4.436,0,0,1,1.4-2.167,5.084,5.084,0,0,1,2.494-1.1,4.81,4.81,0,0,1,3.66.712,5.248,5.248,0,0,1,2.076,3.255l.139.709a5.519,5.519,0,0,1-.691,4.073,4.722,4.722,0,0,1-3.349,2.053,4.743,4.743,0,0,1-3.84-.84,5.623,5.623,0,0,1-2-3.7Zm2.817-.27a3.954,3.954,0,0,0,.94,2.178,1.872,1.872,0,0,0,1.731.517,1.874,1.874,0,0,0,1.449-1.042,4.321,4.321,0,0,0,.151-2.579,3.9,3.9,0,0,0-.948-2.161,1.869,1.869,0,0,0-1.733-.532,1.841,1.841,0,0,0-1.446,1.061A4.4,4.4,0,0,0-337.484-192.665Z" fill="#fefefe"/>
        </g>
      </g>
      <g id="Grupo_90720" data-name="Grupo 90720">
        <g id="Grupo_90719" data-name="Grupo 90719">
          <path id="Trazado_104746" data-name="Trazado 104746" d="M-483.841-361.336a5.031,5.031,0,0,1,3.2,2.39,5.95,5.95,0,0,1,.476,4.212,5.346,5.346,0,0,1-2.673,3.84,7.548,7.548,0,0,1-5.266.513l-.851-.176a8.526,8.526,0,0,1-3.393-1.438,5.424,5.424,0,0,1-1.93-2.508,5.794,5.794,0,0,1-.187-3.225,5.8,5.8,0,0,1,2.094-3.616,5.414,5.414,0,0,1,3.976-.954l-.592,2.87a2.97,2.97,0,0,0-2.112.347,2.843,2.843,0,0,0-1.013,1.839,2.492,2.492,0,0,0,.585,2.36,5.888,5.888,0,0,0,3.038,1.39l1.052.217a6.284,6.284,0,0,0,3.442,0,2.441,2.441,0,0,0,1.486-1.942,2.89,2.89,0,0,0-.2-2.109,2.8,2.8,0,0,0-1.725-1.139Z"/>
          <path id="Trazado_104747" data-name="Trazado 104747" d="M-477.93-368.2a3.545,3.545,0,0,1,.366,3.136,3.343,3.343,0,0,1-1.7,2.192,4.167,4.167,0,0,1-3,.032l-6.619-2.033.829-2.7,6.533,2.007q1.578.483,2.021-.954a2.034,2.034,0,0,0-.375-2.178l-7.158-2.2.831-2.707,10.1,3.1-.78,2.54Z"/>
          <path id="Trazado_104748" data-name="Trazado 104748" d="M-473.146-378.021a3.126,3.126,0,0,1-.985-.091,3.414,3.414,0,0,1,.064,2.9,3.755,3.755,0,0,1-1.8,2.051,2.889,2.889,0,0,1-2.483.1,2.981,2.981,0,0,1-1.926-2.118,6.128,6.128,0,0,1,.5-3.676l.486-1.206-.561-.226a1.74,1.74,0,0,0-1.228-.089,1.475,1.475,0,0,0-.851.936,1.676,1.676,0,0,0-.1,1.165,1.16,1.16,0,0,0,.717.726l-1.054,2.617a2.827,2.827,0,0,1-1.364-1.16,3.737,3.737,0,0,1-.539-1.943,5.856,5.856,0,0,1,.457-2.322,4.612,4.612,0,0,1,2.07-2.509,3.431,3.431,0,0,1,2.987-.033l4.248,1.712a5.051,5.051,0,0,0,2.268.46l.153.062Zm-2.694,1.431a2.423,2.423,0,0,0,.173-1.173,1.833,1.833,0,0,0-.4-1l-1.685-.679-.394.978q-.793,1.967.515,2.64l.151.071a1.127,1.127,0,0,0,.944-.019A1.44,1.44,0,0,0-475.84-376.59Z"/>
          <path id="Trazado_104749" data-name="Trazado 104749" d="M-470.051-384.815l-1.219,2.556-13.54-6.456,1.22-2.556Z"/>
          <path id="Trazado_104750" data-name="Trazado 104750" d="M-480.8-393.046a1.384,1.384,0,0,1-.724-.863,1.588,1.588,0,0,1,.176-1.215,1.6,1.6,0,0,1,.9-.827,1.377,1.377,0,0,1,1.124.108,1.38,1.38,0,0,1,.729.876,1.6,1.6,0,0,1-.173,1.206,1.6,1.6,0,0,1-.9.823A1.384,1.384,0,0,1-480.8-393.046Zm13.162,3.561-1.323,2.5-9.343-4.935,1.323-2.5Z"/>
          <path id="Trazado_104751" data-name="Trazado 104751" d="M-476.167-401.086l2.232,1.327.924-1.553,1.78,1.058-.923,1.553,4.534,2.694a1.267,1.267,0,0,0,.836.236c.222-.042.441-.247.658-.61a4.462,4.462,0,0,0,.364-.749l1.839,1.093a5.752,5.752,0,0,1-.656,1.6q-1.515,2.553-4.123,1.071l-4.895-2.908-.788,1.326-1.779-1.057.788-1.327-2.233-1.327Z"/>
          <path id="Trazado_104752" data-name="Trazado 104752" d="M-459.736-402.253a3.129,3.129,0,0,1-.942-.3,3.42,3.42,0,0,1-.558,2.847,3.759,3.759,0,0,1-2.193,1.62,2.894,2.894,0,0,1-2.447-.434A2.988,2.988,0,0,1-467.3-401a6.14,6.14,0,0,1,1.278-3.484l.732-1.073-.5-.342a1.737,1.737,0,0,0-1.18-.349,1.483,1.483,0,0,0-1.032.732,1.694,1.694,0,0,0-.348,1.117,1.166,1.166,0,0,0,.547.863l-1.591,2.331a2.83,2.83,0,0,1-1.084-1.425,3.732,3.732,0,0,1-.11-2.014,5.822,5.822,0,0,1,.943-2.17,4.6,4.6,0,0,1,2.557-2.009,3.433,3.433,0,0,1,2.926.607l3.784,2.581a5.062,5.062,0,0,0,2.116.936l.137.093Zm-2.937.821a2.41,2.41,0,0,0,.419-1.108,1.824,1.824,0,0,0-.176-1.066l-1.5-1.024-.594.871q-1.194,1.75-.062,2.689l.133.1a1.133,1.133,0,0,0,.927.183A1.439,1.439,0,0,0-462.673-401.432Z"/>
          <path id="Trazado_104753" data-name="Trazado 104753" d="M-465.359-416.67l2.042,1.606,1.117-1.42,1.627,1.279-1.116,1.42,4.146,3.26a1.263,1.263,0,0,0,.8.342,1.126,1.126,0,0,0,.73-.519,4.433,4.433,0,0,0,.46-.694l1.681,1.321a5.792,5.792,0,0,1-.857,1.5q-1.834,2.332-4.227.527l-4.477-3.519-.954,1.212-1.627-1.279.954-1.213-2.042-1.6Z"/>
          <path id="Trazado_104754" data-name="Trazado 104754" d="M-462.991-419.772a1.39,1.39,0,0,1-.512-1.005,1.6,1.6,0,0,1,.447-1.144,1.6,1.6,0,0,1,1.063-.6,1.384,1.384,0,0,1,1.072.358,1.389,1.389,0,0,1,.514,1.019,1.607,1.607,0,0,1-.442,1.136,1.6,1.6,0,0,1-1.059.6A1.391,1.391,0,0,1-462.991-419.772Zm12.02,6.434-1.853,2.141-7.991-6.912,1.853-2.142Z"/>
          <path id="Trazado_104755" data-name="Trazado 104755" d="M-449.229-420.266l-3.724-6.377,2.06-2.11,5.073,9.932-1.884,1.928-10.051-4.83,2.06-2.11Z"/>
          <path id="Trazado_104756" data-name="Trazado 104756" d="M-446.516-425.765a6.27,6.27,0,0,1-1.381-2.512,4.435,4.435,0,0,1,.067-2.581,5.087,5.087,0,0,1,1.552-2.242,4.809,4.809,0,0,1,3.494-1.3,5.252,5.252,0,0,1,3.471,1.693l.488.533a5.521,5.521,0,0,1,1.534,3.835,4.721,4.721,0,0,1-1.786,3.5,4.745,4.745,0,0,1-3.714,1.287,5.621,5.621,0,0,1-3.641-2.115Zm2.262-1.7a3.945,3.945,0,0,0,1.938,1.366,1.869,1.869,0,0,0,1.748-.461,1.874,1.874,0,0,0,.692-1.644,4.326,4.326,0,0,0-1.218-2.279,3.9,3.9,0,0,0-1.935-1.35,1.871,1.871,0,0,0-1.756.45,1.836,1.836,0,0,0-.68,1.659A4.4,4.4,0,0,0-444.254-427.464Z"/>
        </g>
      </g>
      <g id="Grupo_90722" data-name="Grupo 90722">
        <g id="Grupo_90721" data-name="Grupo 90721">
          <path id="Trazado_104757" data-name="Trazado 104757" d="M-267.356-427.158a5.037,5.037,0,0,1-3.6,1.717,5.956,5.956,0,0,1-3.95-1.539,5.351,5.351,0,0,1-2.155-4.154,7.54,7.54,0,0,1,2-4.9l.552-.672a8.5,8.5,0,0,1,2.852-2.332,5.41,5.41,0,0,1,3.118-.542,5.787,5.787,0,0,1,2.941,1.335,5.806,5.806,0,0,1,2.226,3.536,5.407,5.407,0,0,1-1.006,3.963l-2.264-1.859a2.975,2.975,0,0,0,.675-2.031,2.842,2.842,0,0,0-1.156-1.752,2.488,2.488,0,0,0-2.361-.581,5.886,5.886,0,0,0-2.644,2.042l-.682.83a6.3,6.3,0,0,0-1.6,3.046,2.442,2.442,0,0,0,1.026,2.221,2.9,2.9,0,0,0,1.959.808,2.813,2.813,0,0,0,1.811-1Z"/>
          <path id="Trazado_104758" data-name="Trazado 104758" d="M-264.034-418.734a3.538,3.538,0,0,1-2.945-1.137,3.333,3.333,0,0,1-1.151-2.52,4.169,4.169,0,0,1,1.368-2.673l4.88-4.912,2,1.988-4.816,4.849a1.4,1.4,0,0,0-.1,2.232,2.043,2.043,0,0,0,2.1.683l5.278-5.313,2.009,1.995-7.448,7.5-1.883-1.873Z"/>
          <path id="Trazado_104759" data-name="Trazado 104759" d="M-257.581-409.942a3.137,3.137,0,0,1,.54-.828,3.42,3.42,0,0,1-2.6-1.294,3.759,3.759,0,0,1-.979-2.543,2.886,2.886,0,0,1,1.067-2.245,2.993,2.993,0,0,1,2.772-.718,6.141,6.141,0,0,1,3.02,2.157l.841.99.461-.391a1.741,1.741,0,0,0,.651-1.045,1.481,1.481,0,0,0-.432-1.189,1.682,1.682,0,0,0-.985-.632,1.16,1.16,0,0,0-.977.3l-1.825-2.153a2.849,2.849,0,0,1,1.662-.666,3.739,3.739,0,0,1,1.97.429,5.811,5.811,0,0,1,1.842,1.484,4.61,4.61,0,0,1,1.258,3,3.433,3.433,0,0,1-1.361,2.66l-3.493,2.963a5.055,5.055,0,0,0-1.463,1.792l-.126.108Zm-.013-3.049a2.442,2.442,0,0,0,.958.7,1.837,1.837,0,0,0,1.075.112l1.385-1.175-.682-.8q-1.371-1.614-2.576-.772l-.133.1a1.129,1.129,0,0,0-.423.845A1.441,1.441,0,0,0-257.594-412.991Z"/>
          <path id="Trazado_104760" data-name="Trazado 104760" d="M-244.662-410.533l-.943.78a3.689,3.689,0,0,1,2.915,1.652,3.068,3.068,0,0,1,.646,2.608,4.594,4.594,0,0,1-1.916,2.4l-5.561,3.959-1.636-2.3,5.517-3.928a1.843,1.843,0,0,0,.839-1.077,1.748,1.748,0,0,0-.423-1.293,1.943,1.943,0,0,0-1.866-.867l-6.084,4.332-1.637-2.3,8.608-6.129Z"/>
          <path id="Trazado_104761" data-name="Trazado 104761" d="M-235.483-401.408l-2.215,1.358.944,1.539-1.765,1.082-.944-1.541-4.5,2.756a1.267,1.267,0,0,0-.6.63,1.129,1.129,0,0,0,.233.865,4.405,4.405,0,0,0,.492.672l-1.824,1.118a5.823,5.823,0,0,1-1.109-1.325q-1.551-2.531.975-4.148l4.854-2.973-.806-1.316,1.766-1.082.806,1.316,2.215-1.357Z"/>
          <path id="Trazado_104762" data-name="Trazado 104762" d="M-243.607-389.08l-1.362-2.484,9.266-5.079,1.361,2.484Zm10.222-9.023a1.389,1.389,0,0,1,1.12-.129,1.6,1.6,0,0,1,.916.817,1.6,1.6,0,0,1,.195,1.208,1.39,1.39,0,0,1-.71.88A1.391,1.391,0,0,1-233-395.2a1.6,1.6,0,0,1-.911-.809,1.6,1.6,0,0,1-.193-1.2A1.387,1.387,0,0,1-233.385-398.1Z"/>
          <path id="Trazado_104763" data-name="Trazado 104763" d="M-229.234-389.864l-2.331,1.148.8,1.62-1.857.916-.8-1.622-4.73,2.33a1.26,1.26,0,0,0-.654.573,1.116,1.116,0,0,0,.152.882,4.423,4.423,0,0,0,.427.715l-1.918.945a5.823,5.823,0,0,1-.983-1.421q-1.311-2.662,1.352-4.04l5.108-2.515-.682-1.384,1.858-.915.681,1.384,2.331-1.148Z"/>
          <path id="Trazado_104764" data-name="Trazado 104764" d="M-237.275-375.457a3.19,3.19,0,0,1,.768-.622,3.413,3.413,0,0,1-2.07-2.03,3.755,3.755,0,0,1-.148-2.723,2.887,2.887,0,0,1,1.707-1.8,2.985,2.985,0,0,1,2.858.17,6.144,6.144,0,0,1,2.209,2.982l.494,1.2.56-.23a1.748,1.748,0,0,0,.941-.794,1.484,1.484,0,0,0-.045-1.265,1.686,1.686,0,0,0-.742-.9,1.162,1.162,0,0,0-1.021-.018l-1.074-2.61a2.842,2.842,0,0,1,1.787-.123,3.751,3.751,0,0,1,1.743,1.016,5.811,5.811,0,0,1,1.295,1.98,4.62,4.62,0,0,1,.272,3.241,3.436,3.436,0,0,1-2.115,2.11l-4.236,1.742a5.045,5.045,0,0,0-1.945,1.255l-.153.062Zm.928-2.9a2.433,2.433,0,0,0,.7.96,1.822,1.822,0,0,0,.987.437l1.681-.691-.4-.974q-.806-1.962-2.213-1.53l-.157.054a1.126,1.126,0,0,0-.662.675A1.436,1.436,0,0,0-236.347-378.361Z"/>
          <path id="Trazado_104765" data-name="Trazado 104765" d="M-222.144-372.237l-2.464.821.572,1.715-1.963.655-.573-1.713-5,1.671a1.257,1.257,0,0,0-.726.479,1.13,1.13,0,0,0,.032.9,4.435,4.435,0,0,0,.328.766l-2.029.676a5.776,5.776,0,0,1-.782-1.54q-.94-2.815,1.884-3.821l5.4-1.805-.488-1.462,1.964-.657.489,1.464,2.464-.823Z"/>
          <path id="Trazado_104766" data-name="Trazado 104766" d="M-232.833-362.035l-.77-2.725,10.169-2.871.769,2.725Zm11.985-6.5a1.39,1.39,0,0,1,1.121.124,1.6,1.6,0,0,1,.709,1,1.6,1.6,0,0,1-.081,1.221,1.385,1.385,0,0,1-.888.7,1.388,1.388,0,0,1-1.134-.132,1.6,1.6,0,0,1-.706-.992,1.6,1.6,0,0,1,.082-1.216A1.387,1.387,0,0,1-220.848-368.534Z"/>
          <path id="Trazado_104767" data-name="Trazado 104767" d="M-228.005-356.758l7.374.4.629,2.881-11.084-1.229-.574-2.632,9.562-5.737.63,2.882Z"/>
          <path id="Trazado_104768" data-name="Trazado 104768" d="M-224.9-351.462a6.269,6.269,0,0,1,2.858.229,4.43,4.43,0,0,1,2.118,1.476,5.083,5.083,0,0,1,1.018,2.529,4.812,4.812,0,0,1-.835,3.633,5.257,5.257,0,0,1-3.323,1.968l-.714.114a5.522,5.522,0,0,1-4.047-.829,4.723,4.723,0,0,1-1.939-3.417,4.735,4.735,0,0,1,.969-3.808,5.619,5.619,0,0,1,3.769-1.878Zm.175,2.823a3.949,3.949,0,0,0-2.208.868,1.868,1.868,0,0,0-.576,1.711,1.872,1.872,0,0,0,.992,1.483,4.322,4.322,0,0,0,2.573.239,3.915,3.915,0,0,0,2.192-.875,1.873,1.873,0,0,0,.591-1.713,1.845,1.845,0,0,0-1.013-1.482A4.4,4.4,0,0,0-224.729-348.639Z"/>
        </g>
      </g>
      <path id="Trazado_104769" data-name="Trazado 104769" d="M-465.8-329.1A110.082,110.082,0,0,1-355.724-439.177,110.07,110.07,0,0,1-245.643-329.1,110.069,110.069,0,0,1-355.724-219.015,110.081,110.081,0,0,1-465.8-329.1Z" fill="#fefefe" fill-rule="evenodd"/>
      <path id="Trazado_105195" data-name="Trazado 105195" d="M-50.558-6.8h-6.187v4.211h7.262V0H-59.968V-15.641h10.463v2.61h-7.24V-9.3h6.188Zm5.618-4.823.1,1.343A4.058,4.058,0,0,1-41.5-11.838a3.372,3.372,0,0,1,2.75,1.085,5.062,5.062,0,0,1,.924,3.244V0h-3.1V-7.451a2.022,2.022,0,0,0-.43-1.437,1.921,1.921,0,0,0-1.429-.447,2.135,2.135,0,0,0-1.966,1.12V0h-3.1V-11.623ZM-34.627,0V-9.346h-1.729v-2.277h1.729v-.988A4.013,4.013,0,0,1-33.5-15.646a4.347,4.347,0,0,1,3.142-1.08,7.317,7.317,0,0,1,1.579.213l-.032,2.387a3.958,3.958,0,0,0-.945-.1q-1.751,0-1.751,1.657v.942h2.31v2.277h-2.31V0Zm6.553-5.919A6.893,6.893,0,0,1-27.409-9,4.876,4.876,0,0,1-25.491-11.1a5.594,5.594,0,0,1,2.906-.741,5.293,5.293,0,0,1,3.84,1.439,5.777,5.777,0,0,1,1.66,3.91l.021.795A6.075,6.075,0,0,1-18.557-1.4,5.19,5.19,0,0,1-22.564.215,5.216,5.216,0,0,1-26.576-1.4a6.182,6.182,0,0,1-1.5-4.383Zm3.1.22a4.345,4.345,0,0,0,.623,2.534,2.055,2.055,0,0,0,1.783.877A2.06,2.06,0,0,0-20.8-3.154a4.754,4.754,0,0,0,.634-2.77A4.3,4.3,0,0,0-20.8-8.442a2.06,2.06,0,0,0-1.783-.893,2.027,2.027,0,0,0-1.762.888A4.834,4.834,0,0,0-24.97-5.7Zm9.335-.22a6.948,6.948,0,0,1,1.219-4.329,3.986,3.986,0,0,1,3.346-1.59,3.569,3.569,0,0,1,2.976,1.429l.2-1.214h2.729V4.469H-8.277V-1A3.579,3.579,0,0,1-11.091.215,3.957,3.957,0,0,1-14.4-1.4,7.288,7.288,0,0,1-15.635-5.919Zm3.1.22a4.557,4.557,0,0,0,.585,2.539,1.874,1.874,0,0,0,1.649.871,2.088,2.088,0,0,0,2.02-1.14V-8.238a2.071,2.071,0,0,0-2-1.1,1.9,1.9,0,0,0-1.665.871A5.033,5.033,0,0,0-12.531-5.7ZM4.238-1.182a3.893,3.893,0,0,1-3.18,1.4A3.672,3.672,0,0,1-1.794-.859a4.586,4.586,0,0,1-1-3.147v-7.616h3.1v7.518q0,1.817,1.654,1.817a2.242,2.242,0,0,0,2.17-1.1v-8.238H7.246V0H4.324Zm10.7,1.4a5.706,5.706,0,0,1-4.163-1.568A5.575,5.575,0,0,1,9.168-5.532v-.3a7.021,7.021,0,0,1,.677-3.131,4.967,4.967,0,0,1,1.917-2.127,5.382,5.382,0,0,1,2.831-.747,4.824,4.824,0,0,1,3.754,1.5,6.111,6.111,0,0,1,1.37,4.265V-4.8h-7.4a2.884,2.884,0,0,0,.908,1.826,2.744,2.744,0,0,0,1.917.688,3.351,3.351,0,0,0,2.8-1.3L19.47-1.88A4.66,4.66,0,0,1,17.58-.338,6.2,6.2,0,0,1,14.937.215Zm-.354-9.55a1.94,1.94,0,0,0-1.5.626,3.241,3.241,0,0,0-.736,1.791h4.318v-.248a2.311,2.311,0,0,0-.559-1.6A2,2,0,0,0,14.583-9.335ZM27.774-3.212a1,1,0,0,0-.564-.9,6.406,6.406,0,0,0-1.81-.585q-4.146-.87-4.146-3.523A3.194,3.194,0,0,1,22.537-10.8a5.178,5.178,0,0,1,3.357-1.037,5.573,5.573,0,0,1,3.54,1.042A3.284,3.284,0,0,1,30.76-8.089h-3.1a1.5,1.5,0,0,0-.43-1.1,1.818,1.818,0,0,0-1.343-.435,1.858,1.858,0,0,0-1.214.354,1.119,1.119,0,0,0-.43.9.957.957,0,0,0,.489.833,5.028,5.028,0,0,0,1.649.548,13.468,13.468,0,0,1,1.955.521,3.212,3.212,0,0,1,2.46,3.126A3.032,3.032,0,0,1,29.428-.768,5.885,5.885,0,0,1,25.9.215a6.147,6.147,0,0,1-2.594-.521,4.353,4.353,0,0,1-1.778-1.429,3.32,3.32,0,0,1-.645-1.96h2.943a1.621,1.621,0,0,0,.612,1.268,2.429,2.429,0,0,0,1.525.44,2.248,2.248,0,0,0,1.348-.338A1.053,1.053,0,0,0,27.774-3.212ZM37.786-5.9A7,7,0,0,1,39-10.227a3.956,3.956,0,0,1,3.335-1.611,3.56,3.56,0,0,1,2.8,1.268V-16.5h3.115V0h-2.8l-.15-1.235A3.653,3.653,0,0,1,42.319.215,3.945,3.945,0,0,1,39.026-1.4,7.23,7.23,0,0,1,37.786-5.9Zm3.1.221a4.613,4.613,0,0,0,.569,2.514,1.853,1.853,0,0,0,1.654.874,2.077,2.077,0,0,0,2.03-1.219V-8.116a2.047,2.047,0,0,0-2.009-1.219Q40.89-9.335,40.89-5.677ZM56.015.215a5.706,5.706,0,0,1-4.163-1.568,5.575,5.575,0,0,1-1.606-4.179v-.3a7.021,7.021,0,0,1,.677-3.131,4.967,4.967,0,0,1,1.917-2.127,5.382,5.382,0,0,1,2.831-.747,4.824,4.824,0,0,1,3.754,1.5A6.111,6.111,0,0,1,60.8-6.069V-4.8h-7.4A2.884,2.884,0,0,0,54.3-2.976a2.744,2.744,0,0,0,1.917.688,3.351,3.351,0,0,0,2.8-1.3L60.548-1.88A4.66,4.66,0,0,1,58.658-.338,6.2,6.2,0,0,1,56.015.215Zm-.354-9.55a1.94,1.94,0,0,0-1.5.626,3.241,3.241,0,0,0-.736,1.791h4.318v-.248a2.311,2.311,0,0,0-.559-1.6A2,2,0,0,0,55.661-9.335ZM-75.834,25H-78.95V8.5h3.115Zm9.292,0a3.448,3.448,0,0,1-.312-1.042,3.756,3.756,0,0,1-2.933,1.257,4.127,4.127,0,0,1-2.831-.988,3.178,3.178,0,0,1-1.123-2.492A3.285,3.285,0,0,1-72.37,18.9a6.758,6.758,0,0,1,3.958-1h1.429v-.666a1.915,1.915,0,0,0-.414-1.289,1.627,1.627,0,0,0-1.305-.483,1.85,1.85,0,0,0-1.23.376,1.277,1.277,0,0,0-.446,1.031h-3.1A3.118,3.118,0,0,1-72.859,15,4.118,4.118,0,0,1-71.1,13.651a6.42,6.42,0,0,1,2.557-.489,5.073,5.073,0,0,1,3.411,1.08,3.777,3.777,0,0,1,1.262,3.035v5.038a5.557,5.557,0,0,0,.462,2.5V25Zm-2.567-2.159a2.674,2.674,0,0,0,1.268-.306,2.011,2.011,0,0,0,.859-.822v-2h-1.16q-2.331,0-2.481,1.611l-.011.183a1.243,1.243,0,0,0,.408.956A1.586,1.586,0,0,0-69.11,22.841ZM-52.728,25h-3.115V13.377h3.115Zm-3.3-14.631a1.529,1.529,0,0,1,.467-1.149,1.755,1.755,0,0,1,1.273-.451,1.759,1.759,0,0,1,1.268.451,1.52,1.52,0,0,1,.473,1.149,1.524,1.524,0,0,1-.478,1.16,1.764,1.764,0,0,1-1.262.451,1.764,1.764,0,0,1-1.262-.451A1.524,1.524,0,0,1-56.026,10.369Zm8.712,3.008.1,1.343a4.058,4.058,0,0,1,3.341-1.558,3.372,3.372,0,0,1,2.75,1.085,5.062,5.062,0,0,1,.924,3.244V25h-3.1V17.549a2.022,2.022,0,0,0-.43-1.437,1.921,1.921,0,0,0-1.429-.447,2.135,2.135,0,0,0-1.966,1.12V25h-3.1V13.377ZM-33.5,21.208l2.159-7.831H-28.1L-32.017,25h-2.965L-38.9,13.377h3.244Zm11.978,4.007a5.706,5.706,0,0,1-4.163-1.568,5.575,5.575,0,0,1-1.606-4.179v-.3a7.021,7.021,0,0,1,.677-3.131A4.967,4.967,0,0,1-24.7,13.909a5.382,5.382,0,0,1,2.831-.747,4.824,4.824,0,0,1,3.754,1.5,6.111,6.111,0,0,1,1.37,4.265V20.2h-7.4a2.884,2.884,0,0,0,.908,1.826,2.744,2.744,0,0,0,1.917.688,3.351,3.351,0,0,0,2.8-1.3l1.525,1.708a4.66,4.66,0,0,1-1.891,1.542A6.2,6.2,0,0,1-21.522,25.215Zm-.354-9.55a1.94,1.94,0,0,0-1.5.626,3.241,3.241,0,0,0-.736,1.791h4.318v-.248a2.311,2.311,0,0,0-.559-1.6A2,2,0,0,0-21.876,15.665Zm13.191,6.123a1,1,0,0,0-.564-.9,6.406,6.406,0,0,0-1.81-.585q-4.146-.87-4.146-3.523A3.194,3.194,0,0,1-13.922,14.2a5.178,5.178,0,0,1,3.357-1.037A5.573,5.573,0,0,1-7.025,14.2,3.284,3.284,0,0,1-5.7,16.911H-8.8a1.5,1.5,0,0,0-.43-1.1,1.818,1.818,0,0,0-1.343-.435,1.858,1.858,0,0,0-1.214.354,1.119,1.119,0,0,0-.43.9.957.957,0,0,0,.489.833,5.028,5.028,0,0,0,1.649.548,13.468,13.468,0,0,1,1.955.521,3.212,3.212,0,0,1,2.46,3.126,3.032,3.032,0,0,1-1.364,2.573,5.885,5.885,0,0,1-3.523.983,6.147,6.147,0,0,1-2.594-.521,4.353,4.353,0,0,1-1.778-1.429,3.32,3.32,0,0,1-.645-1.96h2.943a1.621,1.621,0,0,0,.612,1.268,2.429,2.429,0,0,0,1.525.44,2.248,2.248,0,0,0,1.348-.338A1.053,1.053,0,0,0-8.685,21.788ZM.048,10.52v2.857H2.036v2.277H.048v5.8a1.385,1.385,0,0,0,.247.924,1.241,1.241,0,0,0,.945.279,4.951,4.951,0,0,0,.913-.075v2.353a6.391,6.391,0,0,1-1.88.279q-3.266,0-3.33-3.3V15.654h-1.7V13.377h1.7V10.52ZM7.042,25H3.926V13.377H7.042Zm-3.3-14.631A1.529,1.529,0,0,1,4.211,9.22a1.755,1.755,0,0,1,1.273-.451,1.759,1.759,0,0,1,1.268.451,1.64,1.64,0,0,1-.005,2.31,1.764,1.764,0,0,1-1.262.451,1.764,1.764,0,0,1-1.262-.451A1.524,1.524,0,0,1,3.744,10.369Zm5.4,8.733a6.812,6.812,0,0,1,1.273-4.308,4.125,4.125,0,0,1,3.432-1.633,3.617,3.617,0,0,1,2.976,1.311l.129-1.1h2.814V24.613a4.968,4.968,0,0,1-.693,2.653,4.45,4.45,0,0,1-1.95,1.719,6.854,6.854,0,0,1-2.943.591,6.373,6.373,0,0,1-2.492-.51A4.423,4.423,0,0,1,9.856,27.75l1.375-1.891a3.637,3.637,0,0,0,2.814,1.3,2.662,2.662,0,0,0,1.923-.661,2.478,2.478,0,0,0,.688-1.875V24a3.591,3.591,0,0,1-2.825,1.214,4.114,4.114,0,0,1-3.389-1.638,6.81,6.81,0,0,1-1.294-4.345Zm3.1.221a4.264,4.264,0,0,0,.634,2.487,2.014,2.014,0,0,0,1.74.9,2.154,2.154,0,0,0,2.03-1.068v-4.91a2.149,2.149,0,0,0-2.009-1.068,2.027,2.027,0,0,0-1.756.917A4.807,4.807,0,0,0,12.251,19.323ZM28.891,25a3.448,3.448,0,0,1-.312-1.042,3.756,3.756,0,0,1-2.933,1.257,4.127,4.127,0,0,1-2.831-.988,3.178,3.178,0,0,1-1.123-2.492,3.285,3.285,0,0,1,1.37-2.836,6.758,6.758,0,0,1,3.958-1h1.429v-.666a1.915,1.915,0,0,0-.414-1.289,1.627,1.627,0,0,0-1.305-.483,1.85,1.85,0,0,0-1.23.376,1.277,1.277,0,0,0-.446,1.031h-3.1A3.118,3.118,0,0,1,22.575,15a4.118,4.118,0,0,1,1.762-1.348,6.42,6.42,0,0,1,2.557-.489,5.073,5.073,0,0,1,3.411,1.08,3.777,3.777,0,0,1,1.262,3.035v5.038a5.557,5.557,0,0,0,.462,2.5V25Zm-2.567-2.159a2.674,2.674,0,0,0,1.268-.306,2.011,2.011,0,0,0,.859-.822v-2h-1.16q-2.331,0-2.481,1.611l-.011.183a1.243,1.243,0,0,0,.408.956A1.586,1.586,0,0,0,26.324,22.841Zm12.461-.129a2.036,2.036,0,0,0,1.4-.473,1.656,1.656,0,0,0,.559-1.257h2.911a3.982,3.982,0,0,1-.645,2.165,4.253,4.253,0,0,1-1.735,1.525,5.43,5.43,0,0,1-2.433.542,5.046,5.046,0,0,1-3.932-1.584,6.27,6.27,0,0,1-1.439-4.377v-.2A6.2,6.2,0,0,1,34.9,14.763a4.987,4.987,0,0,1,3.921-1.6,4.889,4.889,0,0,1,3.5,1.241,4.393,4.393,0,0,1,1.337,3.3H40.74a2.133,2.133,0,0,0-.559-1.474,2.076,2.076,0,0,0-3.056.224,4.583,4.583,0,0,0-.553,2.566v.323a4.641,4.641,0,0,0,.548,2.582A1.893,1.893,0,0,0,38.785,22.712ZM48.7,25H45.584V13.377H48.7ZM45.4,10.369a1.529,1.529,0,0,1,.467-1.149,2.014,2.014,0,0,1,2.541,0,1.64,1.64,0,0,1-.005,2.31,1.991,1.991,0,0,1-2.524,0A1.524,1.524,0,0,1,45.4,10.369Zm5.371,8.712A6.893,6.893,0,0,1,51.439,16,4.876,4.876,0,0,1,53.356,13.9a5.594,5.594,0,0,1,2.906-.741A5.293,5.293,0,0,1,60.1,14.6a5.777,5.777,0,0,1,1.66,3.91l.021.795A6.075,6.075,0,0,1,60.291,23.6a5.787,5.787,0,0,1-8.019.005,6.182,6.182,0,0,1-1.5-4.383Zm3.1.22a4.345,4.345,0,0,0,.623,2.534,2.238,2.238,0,0,0,3.545.011,4.754,4.754,0,0,0,.634-2.77,4.3,4.3,0,0,0-.634-2.518,2.06,2.06,0,0,0-1.783-.893,2.027,2.027,0,0,0-1.762.888A4.834,4.834,0,0,0,53.877,19.3Zm3-10.8h3.384l-2.976,3.33H54.758Zm9.679,4.877.1,1.343a4.058,4.058,0,0,1,3.341-1.558,3.372,3.372,0,0,1,2.75,1.085,5.062,5.062,0,0,1,.924,3.244V25h-3.1V17.549a2.022,2.022,0,0,0-.43-1.437,1.921,1.921,0,0,0-1.429-.447,2.135,2.135,0,0,0-1.966,1.12V25h-3.1V13.377Z" transform="translate(-355.779 -310.217)"/>
      <g id="Grupo_90723" data-name="Grupo 90723">
        <rect id="Rectángulo_31621" data-name="Rectángulo 31621" width="39.729" height="1.736" transform="translate(-419.377 -268.969)" fill="#93cef1"/>
        <rect id="Rectángulo_31622" data-name="Rectángulo 31622" width="39.729" height="1.736" transform="translate(-375.589 -268.969)" fill="#00a7e3"/>
        <rect id="Rectángulo_31623" data-name="Rectángulo 31623" width="39.729" height="1.736" transform="translate(-331.8 -268.969)" fill="#990f82"/>
      </g>
      <g id="magnifying-glass">
        <path id="Trazado_104675" data-name="Trazado 104675" d="M-350.433-358.22l16.807,16.808a2.382,2.382,0,0,0,3.368,0l2.577-2.578a2.38,2.38,0,0,0,0-3.367l-16.807-16.807Z" fill="#990f82"/>
        <path id="Trazado_104676" data-name="Trazado 104676" d="M-340.2-359.879l-5.945,5.945-4.286-4.286,5.945-5.944Z" fill="#fefefe"/>
        <path id="Trazado_104677" data-name="Trazado 104677" d="M-340.79-376.908a22.382,22.382,0,0,1-22.382,22.382,22.381,22.381,0,0,1-22.382-22.382,22.382,22.382,0,0,1,22.379-22.382,22.381,22.381,0,0,1,22.385,22.379Z" fill="#00a7e3"/>
        <path id="Trazado_104678" data-name="Trazado 104678" d="M-347.459-376.911A15.713,15.713,0,0,1-363.172-361.2a15.713,15.713,0,0,1-15.713-15.713,15.713,15.713,0,0,1,15.707-15.712,15.713,15.713,0,0,1,15.719,15.707Z" fill="#fff"/>
        <path id="Trazado_104681" data-name="Trazado 104681" d="M-373.524-366.716a1.19,1.19,0,0,0-1.683-.048,1.19,1.19,0,0,0-.048,1.683c.012.013.025.026.038.038l.089.09a1.192,1.192,0,0,0,1.684-.021,1.191,1.191,0,0,0,0-1.663Z"/>
        <path id="Trazado_104682" data-name="Trazado 104682" d="M-351.221-388.862a16.909,16.909,0,0,0-23.912.013,16.908,16.908,0,0,0-3.111,19.612,1.192,1.192,0,0,0,1.6.519,1.192,1.192,0,0,0,.519-1.6,14.524,14.524,0,0,1,6.358-19.532,14.525,14.525,0,0,1,19.532,6.358,14.524,14.524,0,0,1-6.358,19.532,14.525,14.525,0,0,1-12.706.228,1.189,1.189,0,0,0-1.593.545,1.19,1.19,0,0,0,.544,1.593l.046.021a16.908,16.908,0,0,0,22.452-8.225A16.909,16.909,0,0,0-351.221-388.862Z"/>
        <path id="Trazado_104683" data-name="Trazado 104683" d="M-326.838-348.2l-16.3-16.3a23.592,23.592,0,0,0-7.628-32.481,23.592,23.592,0,0,0-32.481,7.629,23.592,23.592,0,0,0,7.628,32.481,23.593,23.593,0,0,0,24.853,0l16.3,16.3a3.577,3.577,0,0,0,5.051,0l2.578-2.578A3.577,3.577,0,0,0-326.838-348.2Zm-57.529-28.712A21.192,21.192,0,0,1-363.175-398.1a21.192,21.192,0,0,1,21.192,21.192,21.191,21.191,0,0,1-21.192,21.191h0A21.216,21.216,0,0,1-384.367-376.911Zm39.846,14.4,2.635,2.636-4.261,4.261-2.635-2.635A23.778,23.778,0,0,0-344.521-362.515Zm16,17.683-2.577,2.578a1.193,1.193,0,0,1-1.684,0l-11.68-11.68,4.261-4.261,11.68,11.68A1.191,1.191,0,0,1-328.522-344.832Z"/>
      </g>
    </g>
  </g>
</svg>
