<svg xmlns="http://www.w3.org/2000/svg" width="124" height="124" viewBox="0 0 124 124">
  <g id="Grupo_60698" data-name="Grupo 60698" transform="translate(-304 -577)">
    <rect id="Rectángulo_7660" data-name="Rectángulo 7660" width="124" height="124" rx="11" transform="translate(304 577)" fill="#dee4f0"/>
    <g id="github" transform="translate(326.965 600.616)">
      <g id="Grupo_60697" data-name="Grupo 60697" transform="translate(0 0)">
        <path id="Trazado_105216" data-name="Trazado 105216" d="M39.091,5.329a39.275,39.275,0,0,0-12.349,76.5c1.955.362,2.668-.85,2.668-1.891,0-.933-.034-3.4-.054-6.676-10.873,2.37-13.17-5.263-13.17-5.263-1.774-4.535-4.34-5.742-4.34-5.742-3.553-2.434.264-2.385.264-2.385,3.924.279,5.987,4.046,5.987,4.046,3.489,6,9.153,4.266,11.382,3.26a8.379,8.379,0,0,1,2.483-5.249c-8.679-.992-17.808-4.359-17.808-19.4a15.214,15.214,0,0,1,4.027-10.536,14.144,14.144,0,0,1,.381-10.385s3.284-1.056,10.751,4.022a36.9,36.9,0,0,1,19.577,0c7.462-5.078,10.742-4.022,10.742-4.022A14.165,14.165,0,0,1,60.021,32a15.185,15.185,0,0,1,4.017,10.536c0,15.076-9.139,18.394-17.847,19.367,1.4,1.212,2.654,3.607,2.654,7.267,0,5.249-.049,9.481-.049,10.766,0,1.051.7,2.272,2.688,1.886A39.278,39.278,0,0,0,39.091,5.329Z" transform="translate(0 -5.329)"/>
      </g>
    </g>
  </g>
</svg>
