<svg xmlns="http://www.w3.org/2000/svg" width="750.72" height="315.882" viewBox="0 0 750.72 315.882">
  <g id="Grupo_31281" data-name="Grupo 31281" transform="translate(-24.64 -86.295)">
    <g id="Grupo_31182" data-name="Grupo 31182">
      <g id="Grupo_31170" data-name="Grupo 31170">
        <g id="Grupo_31145" data-name="Grupo 31145">
          <rect id="Rectángulo_6328" data-name="Rectángulo 6328" width="154.692" height="106.428" transform="translate(24.64 124.552)" fill="#185177" opacity="0.2"/>
          <rect id="Rectángulo_6329" data-name="Rectángulo 6329" width="154.692" height="12.473" transform="translate(24.64 218.507)" fill="#185177" opacity="0.2"/>
          <g id="Grupo_31144" data-name="Grupo 31144">
            <g id="Grupo_31140" data-name="Grupo 31140">
              <path id="Trazado_65356" data-name="Trazado 65356" d="M136.011,126.25l-31.928-25.206a3.386,3.386,0,0,0-4.194,0L67.962,126.25" fill="none" stroke="#185177" stroke-linecap="round" stroke-linejoin="round" stroke-width="0.981" opacity="0.2"/>
              <path id="Trazado_65357" data-name="Trazado 65357" d="M105.972,103.261a3.986,3.986,0,1,1-3.986-3.987A3.986,3.986,0,0,1,105.972,103.261Z" fill="#ffaa3f"/>
            </g>
            <rect id="Rectángulo_6330" data-name="Rectángulo 6330" width="147.126" height="98.469" transform="translate(28.423 128.532)" fill="#f3e8e2"/>
            <g id="Grupo_31143" data-name="Grupo 31143">
              <g id="Grupo_31141" data-name="Grupo 31141" opacity="0.2">
                <rect id="Rectángulo_6331" data-name="Rectángulo 6331" width="14.804" height="14.804" transform="translate(42.491 148.13)" fill="#ffaa3f"/>
                <path id="Trazado_65358" data-name="Trazado 65358" d="M84.622,148.13a7.4,7.4,0,1,0,7.4,7.4A7.4,7.4,0,0,0,84.622,148.13Z" fill="#ffaa3f"/>
                <rect id="Rectángulo_6332" data-name="Rectángulo 6332" width="14.804" height="14.804" transform="translate(111.949 148.13)" fill="#ffaa3f"/>
                <rect id="Rectángulo_6333" data-name="Rectángulo 6333" width="14.804" height="14.804" transform="translate(146.678 148.13)" fill="#ffaa3f"/>
              </g>
              <g id="Grupo_31142" data-name="Grupo 31142">
                <rect id="Rectángulo_6334" data-name="Rectángulo 6334" width="14.804" height="14.804" rx="5.588" transform="translate(42.491 181.318)" fill="#ffaa3f" opacity="0.2"/>
                <rect id="Rectángulo_6335" data-name="Rectángulo 6335" width="14.804" height="14.804" transform="translate(77.22 181.318)" fill="#ffaa3f" opacity="0.2"/>
                <rect id="Rectángulo_6336" data-name="Rectángulo 6336" width="14.804" height="14.804" transform="translate(111.949 181.318)" fill="#ffaa3f" opacity="0.2"/>
                <path id="Trazado_65359" data-name="Trazado 65359" d="M154.08,196.122h0a7.4,7.4,0,0,1-7.4-7.4h0a7.4,7.4,0,0,1,7.4-7.4h0a7.4,7.4,0,0,1,7.4,7.4h0A7.4,7.4,0,0,1,154.08,196.122Z" fill="#ffaa3f" opacity="0.5"/>
              </g>
            </g>
          </g>
        </g>
        <g id="Grupo_31156" data-name="Grupo 31156">
          <rect id="Rectángulo_6337" data-name="Rectángulo 6337" width="247.38" height="170.878" transform="translate(199.112 102.138)" fill="#ffaa3f" opacity="0.5"/>
          <rect id="Rectángulo_6338" data-name="Rectángulo 6338" width="247.38" height="170.878" transform="translate(201.976 99.274)" fill="#f3e8e2"/>
          <g id="Grupo_31154" data-name="Grupo 31154">
            <g id="Grupo_31147" data-name="Grupo 31147">
              <g id="Grupo_31146" data-name="Grupo 31146">
                <path id="Trazado_65360" data-name="Trazado 65360" d="M419.246,164.378h0a26.457,26.457,0,1,0-41.891,0h0c.216.279.435.556.661.826l12.333,15.4h15.9l12.333-15.4c.226-.27.446-.547.661-.826Z" fill="#ffaa3f" opacity="0.5"/>
                <path id="Trazado_65361" data-name="Trazado 65361" d="M405.7,184.775H390.97a2.083,2.083,0,0,1-2.083-2.083h0a2.084,2.084,0,0,1,2.083-2.083H405.7a2.083,2.083,0,0,1,2.083,2.083h0A2.082,2.082,0,0,1,405.7,184.775Z" fill="#ffaa3f"/>
                <path id="Trazado_65362" data-name="Trazado 65362" d="M405.7,188.942H390.97a2.084,2.084,0,0,1-2.083-2.084h0a2.084,2.084,0,0,1,2.083-2.083H405.7a2.083,2.083,0,0,1,2.083,2.083h0A2.083,2.083,0,0,1,405.7,188.942Z" fill="#ffaa3f" opacity="0.5"/>
                <path id="Trazado_65363" data-name="Trazado 65363" d="M405.7,193.108H390.97a2.084,2.084,0,0,1-2.083-2.083h0a2.083,2.083,0,0,1,2.083-2.083H405.7a2.082,2.082,0,0,1,2.083,2.083h0A2.083,2.083,0,0,1,405.7,193.108Z" fill="#ffaa3f"/>
                <path id="Trazado_65364" data-name="Trazado 65364" d="M403.5,194.944H393.169a1.836,1.836,0,0,1-1.836-1.836h14A1.836,1.836,0,0,1,403.5,194.944Z" fill="#ffaa3f" opacity="0.5"/>
                <path id="Trazado_65365" data-name="Trazado 65365" d="M398.75,197.825h-.833a2.881,2.881,0,0,1-2.881-2.881h6.6A2.881,2.881,0,0,1,398.75,197.825Z" fill="#ffaa3f"/>
              </g>
              <path id="Trazado_65366" data-name="Trazado 65366" d="M401.564,180.609V159.316s.568-7.235,4.972-8.809,8.7,8.967-5.768,8.967h-4.936c-14.471,0-10.172-10.539-5.767-8.967s4.971,8.809,4.971,8.809v21.293" fill="none" stroke="#ffaa3f" stroke-linecap="round" stroke-linejoin="round" stroke-width="0.703"/>
            </g>
            <g id="Grupo_31148" data-name="Grupo 31148">
              <line id="Línea_91" data-name="Línea 91" x2="53.902" y2="24.48" transform="translate(330.55 123.904)" fill="none" stroke="#ffaa3f" stroke-linecap="round" stroke-linejoin="round" stroke-width="0.703"/>
              <circle id="Elipse_1429" data-name="Elipse 1429" cx="13.038" cy="13.038" r="13.038" transform="translate(314.865 133.597) rotate(-76.718)" fill="#ffaa3f"/>
            </g>
            <g id="Grupo_31149" data-name="Grupo 31149">
              <line id="Línea_92" data-name="Línea 92" x2="37.012" transform="translate(350.398 163.99)" fill="none" stroke="#ffaa3f" stroke-linecap="round" stroke-linejoin="round" stroke-width="0.703"/>
              <circle id="Elipse_1430" data-name="Elipse 1430" cx="9.846" cy="9.846" r="9.846" transform="translate(339.102 172.132) rotate(-80.783)" fill="#ffaa3f" opacity="0.5"/>
            </g>
            <g id="Grupo_31150" data-name="Grupo 31150">
              <line id="Línea_93" data-name="Línea 93" x1="21.016" y2="21.016" transform="translate(408.776 113.396)" fill="none" stroke="#ffaa3f" stroke-linecap="round" stroke-linejoin="round" stroke-width="0.703"/>
              <path id="Trazado_65367" data-name="Trazado 65367" d="M434.5,113.4a4.709,4.709,0,1,1-4.709-4.709A4.709,4.709,0,0,1,434.5,113.4Z" fill="#ffaa3f"/>
            </g>
            <g id="Grupo_31151" data-name="Grupo 31151">
              <path id="Trazado_65368" data-name="Trazado 65368" d="M411.607,182.692h5.961v25.8H379.1v-25.8h5.961" fill="none" stroke="#ffaa3f" stroke-linecap="round" stroke-linejoin="round" stroke-width="0.703"/>
              <line id="Línea_94" data-name="Línea 94" y2="9.06" transform="translate(398.334 208.49)" fill="none" stroke="#ffaa3f" stroke-linecap="round" stroke-linejoin="round" stroke-width="0.703"/>
            </g>
            <g id="Grupo_31153" data-name="Grupo 31153">
              <path id="Trazado_65369" data-name="Trazado 65369" d="M421.734,228.628l-1.452-1.452a2.053,2.053,0,0,0-2.9,0h0a2.054,2.054,0,0,1-2.9,0h0a2.053,2.053,0,0,0-2.9,0h0a2.053,2.053,0,0,1-2.9,0h0a2.053,2.053,0,0,0-2.9,0h0a2.053,2.053,0,0,1-2.9,0h0a2.053,2.053,0,0,0-2.9,0h0a2.053,2.053,0,0,1-2.9,0h0a2.053,2.053,0,0,0-2.9,0h0a2.053,2.053,0,0,1-2.9,0h0a2.053,2.053,0,0,0-2.9,0h0a2.053,2.053,0,0,1-2.9,0h0a2.053,2.053,0,0,0-2.9,0l-1.452,1.452" fill="none" stroke="#ffaa3f" stroke-linecap="round" stroke-linejoin="round" stroke-width="0.703"/>
              <path id="Trazado_65370" data-name="Trazado 65370" d="M421.734,234.207l-1.452-1.452a2.053,2.053,0,0,0-2.9,0h0a2.056,2.056,0,0,1-2.9,0h0a2.053,2.053,0,0,0-2.9,0h0a2.055,2.055,0,0,1-2.9,0h0a2.053,2.053,0,0,0-2.9,0h0a2.055,2.055,0,0,1-2.9,0h0a2.053,2.053,0,0,0-2.9,0h0a2.055,2.055,0,0,1-2.9,0h0a2.053,2.053,0,0,0-2.9,0h0a2.055,2.055,0,0,1-2.9,0h0a2.053,2.053,0,0,0-2.9,0h0a2.055,2.055,0,0,1-2.9,0h0a2.053,2.053,0,0,0-2.9,0l-1.452,1.452" fill="none" stroke="#ffaa3f" stroke-linecap="round" stroke-linejoin="round" stroke-width="0.703"/>
              <path id="Trazado_65371" data-name="Trazado 65371" d="M398.5,239.785l-1.452-1.452a2.053,2.053,0,0,0-2.9,0h0a2.053,2.053,0,0,1-2.9,0h0a2.053,2.053,0,0,0-2.9,0h0a2.053,2.053,0,0,1-2.9,0h0a2.053,2.053,0,0,0-2.9,0l-1.452,1.452" fill="none" stroke="#ffaa3f" stroke-linecap="round" stroke-linejoin="round" stroke-width="0.703"/>
              <path id="Trazado_65372" data-name="Trazado 65372" d="M421.734,239.785l-1.452-1.452a2.053,2.053,0,0,0-2.9,0h0a2.054,2.054,0,0,1-2.9,0h0a2.053,2.053,0,0,0-2.9,0h0a2.053,2.053,0,0,1-2.9,0h0a2.053,2.053,0,0,0-2.9,0l-1.452,1.452" fill="none" stroke="#ffaa3f" stroke-linecap="round" stroke-linejoin="round" stroke-width="0.703"/>
              <g id="Grupo_31152" data-name="Grupo 31152">
                <path id="Trazado_65373" data-name="Trazado 65373" d="M414.407,249.609l-1.452-1.452a2.053,2.053,0,0,0-2.9,0h0a2.053,2.053,0,0,1-2.9,0h0a2.053,2.053,0,0,0-2.9,0h0a2.053,2.053,0,0,1-2.9,0h0a2.053,2.053,0,0,0-2.9,0l-1.452,1.452" fill="none" stroke="#ffaa3f" stroke-linecap="round" stroke-linejoin="round" stroke-width="0.703"/>
                <circle id="Elipse_1431" data-name="Elipse 1431" cx="2.561" cy="2.561" r="2.561" transform="translate(382.915 246.021)" fill="#ffaa3f" opacity="0.5"/>
                <path id="Trazado_65374" data-name="Trazado 65374" d="M414.407,259.2l-1.452-1.452a2.053,2.053,0,0,0-2.9,0h0a2.053,2.053,0,0,1-2.9,0h0a2.053,2.053,0,0,0-2.9,0h0a2.053,2.053,0,0,1-2.9,0h0a2.053,2.053,0,0,0-2.9,0l-1.452,1.452" fill="none" stroke="#ffaa3f" stroke-linecap="round" stroke-linejoin="round" stroke-width="0.703"/>
                <path id="Trazado_65375" data-name="Trazado 65375" d="M382.915,258.179a2.561,2.561,0,1,1,2.561,2.561A2.561,2.561,0,0,1,382.915,258.179Z" fill="#ffaa3f" opacity="0.5"/>
              </g>
            </g>
          </g>
          <g id="Grupo_31155" data-name="Grupo 31155">
            <rect id="Rectángulo_6339" data-name="Rectángulo 6339" width="29.677" height="29.677" transform="translate(221.375 108.517)" fill="#ffaa3f"/>
            <rect id="Rectángulo_6340" data-name="Rectángulo 6340" width="29.677" height="29.677" transform="translate(221.375 149.422)" fill="#ffaa3f" opacity="0.5"/>
            <rect id="Rectángulo_6341" data-name="Rectángulo 6341" width="29.677" height="29.677" transform="translate(221.375 190.327)" fill="#ffaa3f"/>
            <rect id="Rectángulo_6342" data-name="Rectángulo 6342" width="29.677" height="29.677" transform="translate(221.375 231.232)" fill="#ffaa3f"/>
          </g>
        </g>
        <g id="Grupo_31161" data-name="Grupo 31161">
          <g id="Grupo_31158" data-name="Grupo 31158">
            <path id="Trazado_65376" data-name="Trazado 65376" d="M510.457,141.33a8.238,8.238,0,0,1-8.241,8.069h-.939l-3.67,3.67a2.127,2.127,0,0,1-3.007,0l-3.67-3.67H463.577a8.535,8.535,0,0,1-8.6-8.418,8.236,8.236,0,0,1,8.242-8.069h38.638A8.533,8.533,0,0,1,510.457,141.33Z" fill="#ffaa3f" opacity="0.5"/>
            <g id="Grupo_31157" data-name="Grupo 31157">
              <path id="Trazado_65377" data-name="Trazado 65377" d="M467.26,141.152a1.762,1.762,0,1,1-1.761-1.762A1.761,1.761,0,0,1,467.26,141.152Z" fill="#ffaa3f"/>
              <path id="Trazado_65378" data-name="Trazado 65378" d="M478.741,141.152a1.762,1.762,0,1,1-1.762-1.762A1.761,1.761,0,0,1,478.741,141.152Z" fill="#ffaa3f"/>
              <path id="Trazado_65379" data-name="Trazado 65379" d="M490.222,141.152a1.761,1.761,0,1,1-1.762-1.762A1.761,1.761,0,0,1,490.222,141.152Z" fill="#ffaa3f"/>
              <path id="Trazado_65380" data-name="Trazado 65380" d="M501.7,141.152a1.762,1.762,0,1,1-1.761-1.762A1.76,1.76,0,0,1,501.7,141.152Z" fill="#ffaa3f"/>
            </g>
          </g>
          <path id="Trazado_65381" data-name="Trazado 65381" d="M533.61,123.563a.561.561,0,0,0,.995,0c1.722-3.117,7.32-2.622,7.32,2.055,0,7.3-7.817,11.97-7.817,11.97s-7.817-4.671-7.817-11.97C526.291,120.941,531.888,120.446,533.61,123.563Z" fill="#ffaa3f"/>
          <path id="Trazado_65382" data-name="Trazado 65382" d="M494.667,87.569a.551.551,0,0,0,.931,0,2.859,2.859,0,0,1,5.251,1.671c0,3.874-3.01,6.735-4.662,8.014a1.717,1.717,0,0,1-2.108,0c-1.652-1.279-4.662-4.14-4.662-8.014A2.858,2.858,0,0,1,494.667,87.569Z" fill="#cb1c3e" opacity="0.3"/>
          <path id="Trazado_65383" data-name="Trazado 65383" d="M525.174,93.928a.648.648,0,0,0,1.139,0c1.853-3.158,7.594-2.607,7.594,2.233,0,5.667-4.514,9.817-6.828,11.573a2.2,2.2,0,0,1-2.671,0c-2.314-1.756-6.827-5.906-6.827-11.573C517.581,91.321,523.321,90.77,525.174,93.928Z" fill="#cb1c3e" opacity="0.3"/>
          <path id="Trazado_65384" data-name="Trazado 65384" d="M573.69,151.677a.633.633,0,0,0,1.046,0,2.782,2.782,0,0,1,5.041,1.728c0,5.2-5.564,8.519-5.564,8.519s-5.563-3.324-5.563-8.519A2.781,2.781,0,0,1,573.69,151.677Z" fill="#ffaa3f" opacity="0.5"/>
          <path id="Trazado_65385" data-name="Trazado 65385" d="M513.086,118.857a4.753,4.753,0,1,1-4.753-4.753A4.753,4.753,0,0,1,513.086,118.857Z" fill="#fe9329"/>
          <circle id="Elipse_1432" data-name="Elipse 1432" cx="2.729" cy="2.729" r="2.729" transform="translate(462.77 118.861)" fill="#fe9329"/>
          <path id="Trazado_65386" data-name="Trazado 65386" d="M560.291,142.913a2.6,2.6,0,1,1-2.6-2.6A2.6,2.6,0,0,1,560.291,142.913Z" fill="#fe9329"/>
          <circle id="Elipse_1433" data-name="Elipse 1433" cx="3.902" cy="3.902" r="3.902" transform="translate(574.213 129.009)" fill="#fe9329"/>
          <circle id="Elipse_1434" data-name="Elipse 1434" cx="2.171" cy="2.171" r="2.171" transform="translate(591.789 144.733)" fill="#ffaa3f" opacity="0.5"/>
          <circle id="Elipse_1435" data-name="Elipse 1435" cx="3.022" cy="3.022" r="3.022" transform="translate(608.013 118.567)" fill="#fe9329"/>
          <rect id="Rectángulo_6343" data-name="Rectángulo 6343" width="9.976" height="9.976" rx="1.491" transform="translate(587.81 116.601)" fill="#d9e7ff"/>
          <path id="Trazado_65387" data-name="Trazado 65387" d="M603.22,104.16h3.174a1.617,1.617,0,0,1,1.367,2.479l-3.173,5.034a1.617,1.617,0,0,1-2.735,0l-3.173-5.034a1.617,1.617,0,0,1,1.367-2.479Z" fill="#d9e7ff"/>
          <path id="Trazado_65388" data-name="Trazado 65388" d="M603.221,138.956h-3.81l3.81-6.044,3.81,6.044Z" fill="#d9e7ff"/>
          <path id="Trazado_65389" data-name="Trazado 65389" d="M476.979,106.308h-2.665a1,1,0,0,1-.85-1.541l2.665-4.228a1,1,0,0,1,1.7,0l2.666,4.228a1,1,0,0,1-.85,1.541Z" fill="#d9e7ff"/>
          <g id="Grupo_31159" data-name="Grupo 31159">
            <path id="Trazado_65390" data-name="Trazado 65390" d="M579.149,90.823V112.46a2.514,2.514,0,0,1-2.507,2.506h-7.079L567.295,119A1.891,1.891,0,0,1,564,119l-2.268-4.03H543.94a2.506,2.506,0,0,1-2.507-2.506V90.823a2.507,2.507,0,0,1,2.507-2.507h32.7A2.508,2.508,0,0,1,579.149,90.823Z" fill="#ffaa3f"/>
          </g>
          <g id="Grupo_31160" data-name="Grupo 31160">
            <path id="Trazado_65391" data-name="Trazado 65391" d="M556.121,97a6.284,6.284,0,0,1-1.289-3.915c.143-2.148,2.435-1.957,3.007-.429a10.908,10.908,0,0,0,5.755,5.171,1.556,1.556,0,0,1,.994,1.454v9.132a1.572,1.572,0,0,1-1.571,1.571h-8.853a1.2,1.2,0,0,1-1.194-1.194v-1.1h0a1.193,1.193,0,0,1-1.193-1.193v-2.387h-.095a1.193,1.193,0,0,1-1.194-1.193v-1.957h0a1.11,1.11,0,0,1-.907-1.091V98.148a1.11,1.11,0,0,1,1.1-1.109Z" fill="#fff"/>
            <path id="Rectángulo_6344" data-name="Rectángulo 6344" d="M1.812,0H3.574A1.813,1.813,0,0,1,5.387,1.813v8.213a1.813,1.813,0,0,1-1.812,1.813H1.813A1.813,1.813,0,0,1,0,10.026V1.812A1.812,1.812,0,0,1,1.812,0Z" transform="translate(565.957 98.145)" fill="#fff"/>
          </g>
          <path id="Trazado_65392" data-name="Trazado 65392" d="M489.324,112.087l.963,2.963a.907.907,0,0,0,.863.627h3.116a.908.908,0,0,1,.534,1.643l-2.521,1.831a.911.911,0,0,0-.33,1.016l.963,2.963a.908.908,0,0,1-1.4,1.015l-2.52-1.831a.91.91,0,0,0-1.068,0l-2.52,1.831a.908.908,0,0,1-1.4-1.015l.963-2.963a.911.911,0,0,0-.33-1.016l-2.52-1.831a.908.908,0,0,1,.534-1.643h3.115a.907.907,0,0,0,.863-.627l.963-2.963A.908.908,0,0,1,489.324,112.087Z" fill="#ffaa3f" opacity="0.5"/>
        </g>
        <g id="Grupo_31169" data-name="Grupo 31169">
          <g id="Grupo_31162" data-name="Grupo 31162">
            <path id="Trazado_65393" data-name="Trazado 65393" d="M746.538,125.185l-39.213-23.032-39.213,23.032" fill="none" stroke="#185177" stroke-linecap="round" stroke-linejoin="round" stroke-width="0.703" opacity="0.2"/>
            <circle id="Elipse_1436" data-name="Elipse 1436" cx="2.878" cy="2.878" r="2.878" transform="translate(704.446 99.274)" fill="#ffaa3f"/>
          </g>
          <g id="Grupo_31163" data-name="Grupo 31163">
            <rect id="Rectángulo_6345" data-name="Rectángulo 6345" width="136.07" height="108.469" transform="translate(639.289 122.511)" fill="#185177" opacity="0.2"/>
            <rect id="Rectángulo_6346" data-name="Rectángulo 6346" width="128.674" height="100.984" transform="translate(642.987 126.254)" fill="#f3e8e2"/>
            <rect id="Rectángulo_6347" data-name="Rectángulo 6347" width="71.373" height="91.054" transform="translate(646.879 131.219)" fill="#ffaa3f" opacity="0.5"/>
          </g>
          <g id="Grupo_31168" data-name="Grupo 31168">
            <g id="Grupo_31166" data-name="Grupo 31166">
              <path id="Trazado_65394" data-name="Trazado 65394" d="M763.384,190.1l-1.344-1.344a1.9,1.9,0,0,0-2.689,0h0a1.9,1.9,0,0,1-2.689,0h0a1.9,1.9,0,0,0-2.688,0h0a1.9,1.9,0,0,1-2.689,0h0a1.9,1.9,0,0,0-2.689,0h0a1.9,1.9,0,0,1-2.688,0h0a1.9,1.9,0,0,0-2.689,0h0a1.9,1.9,0,0,1-2.689,0h0a1.9,1.9,0,0,0-2.688,0h0a1.9,1.9,0,0,1-2.689,0h0a1.9,1.9,0,0,0-2.689,0L731.12,190.1" fill="none" stroke="#ffaa3f" stroke-linecap="round" stroke-linejoin="round" stroke-width="0.703"/>
              <path id="Trazado_65395" data-name="Trazado 65395" d="M763.384,195.268l-1.344-1.345a1.9,1.9,0,0,0-2.689,0h0a1.9,1.9,0,0,1-2.689,0h0a1.9,1.9,0,0,0-2.688,0h0a1.9,1.9,0,0,1-2.689,0h0a1.9,1.9,0,0,0-2.689,0h0a1.9,1.9,0,0,1-2.688,0h0a1.9,1.9,0,0,0-2.689,0h0a1.9,1.9,0,0,1-2.689,0h0a1.9,1.9,0,0,0-2.688,0h0a1.9,1.9,0,0,1-2.689,0h0a1.9,1.9,0,0,0-2.689,0l-1.344,1.345" fill="none" stroke="#ffaa3f" stroke-linecap="round" stroke-linejoin="round" stroke-width="0.703"/>
              <path id="Trazado_65396" data-name="Trazado 65396" d="M747.252,200.433l-1.344-1.345a1.9,1.9,0,0,0-2.689,0h0a1.9,1.9,0,0,1-2.689,0h0a1.9,1.9,0,0,0-2.688,0h0a1.9,1.9,0,0,1-2.689,0h0a1.9,1.9,0,0,0-2.689,0l-1.344,1.345" fill="none" stroke="#ffaa3f" stroke-linecap="round" stroke-linejoin="round" stroke-width="0.703"/>
              <path id="Trazado_65397" data-name="Trazado 65397" d="M747.252,205.6l-1.344-1.344a1.9,1.9,0,0,0-2.689,0h0a1.9,1.9,0,0,1-2.689,0h0a1.9,1.9,0,0,0-2.688,0h0a1.9,1.9,0,0,1-2.689,0h0a1.9,1.9,0,0,0-2.689,0L731.12,205.6" fill="none" stroke="#ffaa3f" stroke-linecap="round" stroke-linejoin="round" stroke-width="0.703"/>
              <g id="Grupo_31164" data-name="Grupo 31164">
                <circle id="Elipse_1437" data-name="Elipse 1437" cx="2.371" cy="2.371" r="2.371" transform="translate(732.822 212.549)" fill="#ffaa3f" opacity="0.5"/>
              </g>
              <g id="Grupo_31165" data-name="Grupo 31165">
                <path id="Trazado_65398" data-name="Trazado 65398" d="M743.3,214.92a2.371,2.371,0,1,1,2.371,2.372A2.372,2.372,0,0,1,743.3,214.92Z" fill="#ffaa3f" opacity="0.5"/>
              </g>
            </g>
            <g id="Grupo_31167" data-name="Grupo 31167">
              <path id="Trazado_65399" data-name="Trazado 65399" d="M745.8,136.108a19.215,19.215,0,0,0-13.587,32.8L745.8,155.323Z" fill="#ffaa3f" opacity="0.5"/>
              <path id="Trazado_65400" data-name="Trazado 65400" d="M759.384,141.736,745.8,155.323,732.21,168.91a19.215,19.215,0,1,0,27.174-27.174Z" fill="#ffaa3f" opacity="0.5"/>
              <path id="Trazado_65401" data-name="Trazado 65401" d="M745.8,136.108v19.215l13.587-13.587A19.155,19.155,0,0,0,745.8,136.108Z" fill="#fff"/>
              <path id="Trazado_65402" data-name="Trazado 65402" d="M752.852,148.268l-7.055,7.055-7.055,7.055a9.977,9.977,0,0,0,14.11-14.11Z" fill="#ffaa3f"/>
              <path id="Trazado_65403" data-name="Trazado 65403" d="M745.8,145.346a9.977,9.977,0,0,0-7.055,17.032l7.055-7.055Z" fill="#fff"/>
              <path id="Trazado_65404" data-name="Trazado 65404" d="M745.8,145.346v9.977l7.055-7.055A9.949,9.949,0,0,0,745.8,145.346Z" fill="#ffaa3f" opacity="0.5"/>
            </g>
          </g>
        </g>
      </g>
      <g id="Grupo_31181" data-name="Grupo 31181">
        <g id="Grupo_31180" data-name="Grupo 31180">
          <g id="Grupo_31179" data-name="Grupo 31179">
            <path id="Trazado_65408" data-name="Trazado 65408" d="M735.243,365.474h-19.2l4.978,34.435c0,1.253,6.365,2.268,14.217,2.268s14.218-1.015,14.218-2.268h0l4.978-34.435Z" fill="#ffaa3f"/>
            <path id="Trazado_65409" data-name="Trazado 65409" d="M737.279,365.474,732.91,395.7c-1.564,3.5-4.563,4.965-10.252,5.262,2.379.722,7.118,1.214,12.585,1.214,7.852,0,14.218-1.015,14.218-2.268l4.978-34.435Z" fill="#d98609" opacity="0.5" style="mix-blend-mode: multiply;isolation: isolate"/>
            <g id="Grupo_31178" data-name="Grupo 31178">
              <path id="Trazado_65410" data-name="Trazado 65410" d="M757.106,357.107c0,1.926-9.788,3.488-21.863,3.488s-21.863-1.562-21.863-3.488,9.789-3.487,21.863-3.487S757.106,355.181,757.106,357.107Z" fill="#56114a"/>
              <path id="Trazado_65411" data-name="Trazado 65411" d="M735.243,360.6c7.7,0,14.468-.636,18.362-1.6a.9.9,0,0,0,.16-1.691c-2.875-1.3-10.084-2.228-18.522-2.228-8.158,0-15.167.864-18.221,2.1a.988.988,0,0,0,.118,1.882A88.115,88.115,0,0,0,735.243,360.6Z" fill="#0c1a3c"/>
              <g id="Grupo_31176" data-name="Grupo 31176">
                <g id="Grupo_31172" data-name="Grupo 31172">
                  <path id="Trazado_65412" data-name="Trazado 65412" d="M741.906,362.055s-7.731-16.25-7.524-25.78,5.784-9.7,5.784-9.7-.577-10.463,1.938-15.332,6.943-3.667,6.943-3.667.725-16.414,7.108-17.958,6.98,6.94,6.98,6.94,9.3.542,6.007,17.4.942,13.681-3.274,23.493C761.6,347.4,750.162,360.837,741.906,362.055Z" fill="#0c1a3c"/>
                </g>
                <g id="Grupo_31174" data-name="Grupo 31174">
                  <path id="Trazado_65413" data-name="Trazado 65413" d="M733.241,279.044s-14.667-5.314-12.329,19.556c0,0-7.864,3.826-4.038,19.343,0,0-5.952.85.212,18.918s6.291,24.705,18.281,25.082c15.05.474,24.444-27.42,16.792-32.1,0,0,10.416-19.343,4.251-24.019,0,0,7.227-20.194-6.8-22.319C749.608,283.508,745.57,271.817,733.241,279.044Z" fill="#346e94"/>
                  <g id="Grupo_31173" data-name="Grupo 31173">
                    <circle id="Elipse_1438" data-name="Elipse 1438" cx="1.721" cy="1.721" r="1.721" transform="translate(737.981 285.446)" fill="#ffaa3f"/>
                    <path id="Trazado_65414" data-name="Trazado 65414" d="M752.505,298.131a4.728,4.728,0,1,1-4.727-4.728A4.727,4.727,0,0,1,752.505,298.131Z" fill="#ffaa3f"/>
                    <path id="Trazado_65415" data-name="Trazado 65415" d="M750.179,313.288a2.11,2.11,0,1,1-2.11-2.11A2.11,2.11,0,0,1,750.179,313.288Z" fill="#ffaa3f"/>
                    <circle id="Elipse_1439" data-name="Elipse 1439" cx="1.055" cy="1.055" r="1.055" transform="translate(749.124 333.901)" fill="#ffaa3f"/>
                    <circle id="Elipse_1440" data-name="Elipse 1440" cx="1.055" cy="1.055" r="1.055" transform="translate(742.751 332.847)" fill="#ffaa3f"/>
                    <path id="Trazado_65416" data-name="Trazado 65416" d="M740.758,314.893a1.055,1.055,0,1,1-1.055-1.055A1.055,1.055,0,0,1,740.758,314.893Z" fill="#ffaa3f"/>
                    <circle id="Elipse_1441" data-name="Elipse 1441" cx="1.055" cy="1.055" r="1.055" transform="translate(734.378 296.508)" fill="#ffaa3f"/>
                    <circle id="Elipse_1442" data-name="Elipse 1442" cx="1.055" cy="1.055" r="1.055" transform="translate(741.424 304.258)" fill="#ffaa3f"/>
                    <circle id="Elipse_1443" data-name="Elipse 1443" cx="1.055" cy="1.055" r="1.055" transform="translate(727.862 284.695)" fill="#ffaa3f"/>
                    <circle id="Elipse_1444" data-name="Elipse 1444" cx="1.055" cy="1.055" r="1.055" transform="translate(740.941 344.958)" fill="#ffaa3f"/>
                    <circle id="Elipse_1445" data-name="Elipse 1445" cx="1.055" cy="1.055" r="1.055" transform="translate(744.101 351.51)" fill="#ffaa3f"/>
                    <circle id="Elipse_1446" data-name="Elipse 1446" cx="2.954" cy="2.954" r="2.954" transform="translate(742.751 321.851)" fill="#ffaa3f"/>
                  </g>
                </g>
                <g id="Grupo_31175" data-name="Grupo 31175">
                  <path id="Trazado_65417" data-name="Trazado 65417" d="M726.1,363.117s-15.964-12.4-20.568-22.072.907-12.652.907-12.652-5.862-10.209-5.8-16.365,5.115-7.186,5.115-7.186S698.193,288,703.82,283.231s10.508,3.44,10.508,3.44,9.611-4.155,14.818,14.433,7.739,13.261,8.578,25.229C738.5,337.459,733.829,356.408,726.1,363.117Z" fill="#0c1a3c"/>
                </g>
              </g>
              <g id="Grupo_31177" data-name="Grupo 31177">
                <path id="Trazado_65418" data-name="Trazado 65418" d="M757.106,357.107h0v0Z" fill="#56114a"/>
                <path id="Trazado_65419" data-name="Trazado 65419" d="M735.243,360.6c-11.665,0-21.194-1.458-21.827-3.293l1.44,7.868c0,1.8,9.128,3.252,20.387,3.252s20.388-1.456,20.388-3.252l1.44-7.868C756.439,359.137,746.909,360.6,735.243,360.6Z" fill="#56114a"/>
              </g>
            </g>
          </g>
        </g>
      </g>
    </g>
    <g id="Grupo_31200" data-name="Grupo 31200">
      <g id="Grupo_31185" data-name="Grupo 31185">
        <g id="Grupo_31184" data-name="Grupo 31184">
          <path id="Trazado_65420" data-name="Trazado 65420" d="M634.879,218.262c-8.008-.64-11.867-10.946-13.28-21.132a70.853,70.853,0,0,1-.64-11.073c.281-11.965,2.524-18.9,6.882-21.245,5.449-2.946,9.674,10.8,12.676,23.263.555,2.32,1.1,4.851,1.532,7.431C643.947,206.8,643.877,218.986,634.879,218.262Z" fill="#93405c"/>
          <path id="Trazado_65421" data-name="Trazado 65421" d="M642.049,195.506a50.785,50.785,0,0,1-20.45,1.624,70.853,70.853,0,0,1-.64-11.073c.281-11.965,2.524-18.9,6.882-21.245,5.449-2.946,9.674,10.8,12.676,23.263C641.072,190.4,641.613,192.926,642.049,195.506Z" fill="#ffaa3f"/>
          <g id="Grupo_31183" data-name="Grupo 31183">
            <path id="Trazado_65422" data-name="Trazado 65422" d="M625.768,179.164a98.8,98.8,0,0,0,12.16-.746c-.413-1.355-.842-2.667-1.287-3.908a94.673,94.673,0,0,1-14.6.572q-.373,1.831-.619,3.978C622.889,179.122,624.344,179.164,625.768,179.164Z" fill="#d98609" opacity="0.5" style="mix-blend-mode: multiply;isolation: isolate"/>
            <path id="Trazado_65423" data-name="Trazado 65423" d="M640.361,187.437c-.324-1.333-.661-2.675-1.014-4.008a116.272,116.272,0,0,1-18.308.369q-.052,1.1-.08,2.259c-.013.564-.008,1.163-.005,1.757,1.58.11,4.069.237,7.23.237A121.818,121.818,0,0,0,640.361,187.437Z" fill="#d98609" opacity="0.5" style="mix-blend-mode: multiply;isolation: isolate"/>
          </g>
        </g>
        <path id="Trazado_65424" data-name="Trazado 65424" d="M616.217,189.574a2.4,2.4,0,0,0,.787,2.978c3.267,2.313,10.644,7.431,16.245,10.521,7.408,4.088,9.09,14.981,1.753,16.03s-18.5-4.538-27.837-21.588c0,0-3.529-5.239-4.141-8.012-1.592-7.216,6.717-20.072,9.294-21.327s-.705,8.782-.705,8.782,4.825,2.7,6.079,5.307C618.529,184,617.2,187.461,616.217,189.574Z" fill="#93405c"/>
        <path id="Trazado_65425" data-name="Trazado 65425" d="M614.87,183.462c1.625.875-.749,5.124,1.143,7.425h0a2.4,2.4,0,0,1,.2-1.314c.98-2.113,2.312-5.572,1.475-7.309-1.254-2.6-6.079-5.307-6.079-5.307C610.745,180.212,613.245,182.587,614.87,183.462Z" fill="#56114a"/>
        <path id="Trazado_65426" data-name="Trazado 65426" d="M633.249,203.073c-3.049-1.682-6.62-3.963-9.772-6.067a67.674,67.674,0,0,0,2.263,11.12,18.827,18.827,0,0,0,8.866,11.022c.133-.015.267-.026.4-.045C642.339,218.054,640.657,207.161,633.249,203.073Z" fill="#56114a"/>
      </g>
      <g id="Grupo_31189" data-name="Grupo 31189">
        <g id="Grupo_31186" data-name="Grupo 31186">
          <path id="Trazado_65427" data-name="Trazado 65427" d="M671.7,364.636v2.91l-3.979-2.812a41.853,41.853,0,0,1-.95,11.974.889.889,0,0,1-1.733.044c-1.269-5.035-4.167-14.01-9.57-19.048-3.9-3.634-13.857-12.429-22.708-22.693-8.843-10.243-16.591-21.955-16.127-31.439.935-18.981,20.859-70.2,20.859-70.2,7.8-17.6,34.293-9.4,36.071,1.968S663.435,258.6,663.435,258.6l-18.686,50.42a103.55,103.55,0,0,1,6.524,13.139c5.42,12.7,10.032,27.242,12.049,30.862C668.328,362.007,671.7,364.636,671.7,364.636Z" fill="#439da3"/>
          <path id="Trazado_65428" data-name="Trazado 65428" d="M650.348,264.792S639.1,295.775,638.33,303.525s8.433,28.214,8.433,28.214l9.667,3.457c-1.581-4.226-3.322-8.736-5.157-13.036a103.55,103.55,0,0,0-6.524-13.139l18.686-50.42s11.9-11.9,10.123-23.263a11.211,11.211,0,0,0-3.833-6.377h0a7.582,7.582,0,0,0-7.978,4.91Z" fill="#378085" opacity="0.3" style="mix-blend-mode: multiply;isolation: isolate"/>
          <path id="Trazado_65429" data-name="Trazado 65429" d="M646.763,265.807l-10.057,30.97a28.632,28.632,0,0,0-.18,17.112l3.2,10.619" fill="none" stroke="#378085" stroke-linecap="round" stroke-linejoin="round" stroke-width="0.698"/>
          <path id="Trazado_65430" data-name="Trazado 65430" d="M650.991,240.065s-4.664,9.71-4.224,20.005c.138,3.227,4.224,2.962,4.224,2.962" fill="none" stroke="#378085" stroke-linecap="round" stroke-linejoin="round" stroke-width="0.698"/>
          <path id="Trazado_65431" data-name="Trazado 65431" d="M671.7,367.546l-3.979-2.812a42.181,42.181,0,0,1-1,12.189.888.888,0,0,1-1.724.052c-1.34-4.845-4.377-13.618-9.814-18.688-3.9-3.634-14.225-12.393-22.427-23.276,4.83-1.75,13.716-5.758,18.518-12.851,6.534,13.087,10.032,27.242,12.049,30.862,5.006,8.985,8.373,11.614,8.373,11.614Z" fill="#346e94"/>
          <path id="Trazado_65432" data-name="Trazado 65432" d="M660.921,346.811c-2.126-6.237-5.176-15.694-9.648-24.651-4.8,7.093-13.688,11.1-18.518,12.851,8.2,10.884,18.525,19.642,22.427,23.276a28.542,28.542,0,0,1,5.557,7.649q.258-.672.482-1.351A27.987,27.987,0,0,0,660.921,346.811Z" fill="#185177" opacity="0.3" style="mix-blend-mode: multiply;isolation: isolate"/>
        </g>
        <g id="Grupo_31188" data-name="Grupo 31188">
          <path id="Trazado_65433" data-name="Trazado 65433" d="M689.46,249.588c-2.91,20.134-19.515,58.533-19.515,58.533-.232,11.283-3.515,23.72-7.508,34.827A226.934,226.934,0,0,1,647.322,376a162.977,162.977,0,0,1-2.151,17.638l-3.038,1.666v-3.529s-14.116,9.336-14.32,7.262,9.547-16.605,11-25.948c.739-4.766,1.807-21.146,2.672-36.057.829-14.307,1.476-27.249,1.476-27.249,1.99-20.767,12.24-73.127,16.127-76.909l23.931-13.765S692.364,229.454,689.46,249.588Z" fill="#439da3"/>
          <path id="Trazado_65434" data-name="Trazado 65434" d="M680.664,243.633s-8.706,41.244-16.908,63.139c0,0-.7,15.058-3.281,25.624" fill="none" stroke="#378085" stroke-linecap="round" stroke-linejoin="round" stroke-width="0.698"/>
          <path id="Trazado_65435" data-name="Trazado 65435" d="M641.948,328.9c.6-10.733,1.015-19.119,1.015-19.119,1.6-16.7,8.546-53.854,13.225-69.715" fill="none" stroke="#378085" stroke-linecap="round" stroke-linejoin="round" stroke-width="0.698"/>
          <path id="Trazado_65436" data-name="Trazado 65436" d="M675.2,232.712s.965,5.256,8.17,3.828a2.318,2.318,0,0,0,1.685-3.2l-2.24-5.054A32.39,32.39,0,0,1,675.2,232.712Z" fill="#378085"/>
          <g id="Grupo_31187" data-name="Grupo 31187">
            <path id="Trazado_65437" data-name="Trazado 65437" d="M662.437,342.948A142.65,142.65,0,0,1,647.322,376a56.134,56.134,0,0,1-2.151,17.638l-3.038,1.666v-3.529s-10.326,10.18-14.32,7.262c-1.683-1.229,9.547-16.605,11-25.948.739-4.766.742-21.534,2.672-36.057C646.4,335.855,656.777,334.617,662.437,342.948Z" fill="#346e94"/>
            <path id="Trazado_65438" data-name="Trazado 65438" d="M627.81,398.4a1.5,1.5,0,0,0-.153.021c-.03.3.013.509.156.613,3.994,2.918,14.321-7.262,14.321-7.262V395.3l3.036-1.666A56.117,56.117,0,0,0,647.322,376C643.932,390.15,636.313,395.775,627.81,398.4Z" fill="#185177" opacity="0.3" style="mix-blend-mode: multiply;isolation: isolate"/>
          </g>
        </g>
      </g>
      <g id="Grupo_31190" data-name="Grupo 31190">
        <path id="Trazado_65439" data-name="Trazado 65439" d="M633.375,143.724c-5.289.281-10.549-4.22-8.6-10.225s-2.694-7.871-.414-14.119,11.937-3.914,16.156-6.33,6.626-9.274,14.039-9.331c5.112-.04,9.088,4.3,9.088,4.3s7.859-2.5,11.557,1.547,1.67,9.895,1.345,13.384,4.544,6.653,2.84,11.766-7.465,5.3-9.656,9.631-4.283,13.939-14.268,13.4C644.316,157.145,642.545,143.237,633.375,143.724Z" fill="#0c1a3c"/>
        <path id="Trazado_65440" data-name="Trazado 65440" d="M686.128,222.417c-19.017,19.354-50.026,14.264-50.026,14.264,1.244-8.942-3.621-31.692-3.621-31.692s-5.434-6.678-7.135-13.013.907-26.032,2.495-27.164a57.2,57.2,0,0,1,7.136-5.033,39.305,39.305,0,0,1,10.18-4.134,46.646,46.646,0,0,1,12.52-1.125c3.192.134,5.941.6,7.4,1.35,3.283,1.7,7.7,8.485,10.524,22.749S686.128,222.417,686.128,222.417Z" fill="#ffaa3f"/>
        <path id="Trazado_65441" data-name="Trazado 65441" d="M658.915,161.153c-.358,13.122,3.206,26.308.174,31.215s-8.452,8.56-13.325,8.233a37.509,37.509,0,0,1,4.031,7.369c1.936,4.69,3.994,14.637,1.481,29.087,10.532-.8,24.474-4.078,34.852-14.64,0,0-7.7-29.541-10.531-43.8-.345-1.742-.715-3.369-1.1-4.893C669.289,166.961,663.822,162.157,658.915,161.153Z" fill="#d98609" opacity="0.5" style="mix-blend-mode: multiply;isolation: isolate"/>
        <path id="Trazado_65442" data-name="Trazado 65442" d="M632.481,204.989s-5.434-6.678-7.135-13.013c-1.311-4.9-.051-17.8,1.321-23.908" fill="none" stroke="#fff" stroke-linecap="round" stroke-linejoin="round" stroke-width="0.703"/>
        <path id="Trazado_65443" data-name="Trazado 65443" d="M657.677,154.52c-.745,3.593-3.381,11.832-11.916,13.125-9.1,1.385-10.559-5.49-10.784-7.866a39.535,39.535,0,0,1,10.221-4.285A46.276,46.276,0,0,1,657.677,154.52Z" fill="#fff"/>
      </g>
      <path id="Trazado_65444" data-name="Trazado 65444" d="M637.838,153.137a27.075,27.075,0,0,1,2.11,4.138c.163.893-2.191,2.191-2.191,2.191s.812,6.735,7.709,5.193a10.274,10.274,0,0,0,8.318-9.977.257.257,0,0,0-.283-.244,15.251,15.251,0,0,1-2.76,0c-1.093-.156-5.437-8.033-5.437-8.033Z" fill="#93405c"/>
      <path id="Trazado_65445" data-name="Trazado 65445" d="M645.3,146.4h0l-7.466,6.736a27.028,27.028,0,0,1,2.11,4.138.91.91,0,0,1-.244.678,8.427,8.427,0,0,0,5.571-4.2A7.265,7.265,0,0,0,645.3,146.4Z" fill="#56114a"/>
      <g id="Grupo_31195" data-name="Grupo 31195">
        <g id="Grupo_31192" data-name="Grupo 31192">
          <path id="Trazado_65446" data-name="Trazado 65446" d="M681.333,216.722c-6.467,1.737-8.527-11.494-12.26-24.654-.8-2.8-1.673-5.589-2.679-8.239-5.736-15.094-11.227-27.158-3.472-28.522,5.082-.9,18.6,7.087,25.6,28.36.071.2.141.408.2.612C695.668,206.008,689.179,214.606,681.333,216.722Z" fill="#93405c"/>
          <path id="Trazado_65447" data-name="Trazado 65447" d="M688.684,184.143q-.077-.239-.159-.476l-.019-.058a5.217,5.217,0,0,0-7.149-3.06l-13.871,6.414c.56,1.683,1.095,3.386,1.587,5.1.408,1.44.8,2.88,1.173,4.3C673.569,195.495,683.2,192.342,688.684,184.143Z" fill="#56114a"/>
          <path id="Trazado_65448" data-name="Trazado 65448" d="M688.525,183.667c-6.151,6.756-15.276,8.134-19.452,8.4-.8-2.8-1.673-5.589-2.679-8.239-5.736-15.094-11.868-28.618-4-28.8C670.182,154.858,681.523,162.394,688.525,183.667Z" fill="#ffaa3f"/>
          <g id="Grupo_31191" data-name="Grupo 31191">
            <path id="Trazado_65449" data-name="Trazado 65449" d="M661.952,172.121a81.264,81.264,0,0,0,15.517-8.426,38.193,38.193,0,0,0-2.892-2.906,79.694,79.694,0,0,1-13.932,7.464C661.028,169.48,661.468,170.771,661.952,172.121Z" fill="#d98609" opacity="0.5" style="mix-blend-mode: multiply;isolation: isolate"/>
            <path id="Trazado_65450" data-name="Trazado 65450" d="M683.367,171.952q-1.035-1.809-2.122-3.407a64.865,64.865,0,0,1-17.121,9.374q.711,1.851,1.459,3.789A69.4,69.4,0,0,0,683.367,171.952Z" fill="#d98609" opacity="0.5" style="mix-blend-mode: multiply;isolation: isolate"/>
          </g>
          <path id="Trazado_65451" data-name="Trazado 65451" d="M671.815,201.65c-.8-2.8-4.415-15.171-5.421-17.821-3.454-9.09-8.176-19.473-7.181-24.893" fill="none" stroke="#fff" stroke-linecap="round" stroke-linejoin="round" stroke-width="0.703"/>
        </g>
        <g id="Grupo_31194" data-name="Grupo 31194">
          <g id="Grupo_31193" data-name="Grupo 31193">
            <path id="Trazado_65452" data-name="Trazado 65452" d="M649.215,199.057s-19.529-5.168-24.785-6.586a3.457,3.457,0,0,0-2.5.274l-8.443,4.391a2.167,2.167,0,0,0-1.167,1.922v.6l8.232.293c7.641,2.032,17.842,4.731,17.842,4.731l7.372-3.834,3.451.123Z" fill="#0c1a3c"/>
            <path id="Trazado_65453" data-name="Trazado 65453" d="M649.215,200.974s-19.53-5.167-24.786-6.585a3.454,3.454,0,0,0-2.5.274l-9.61,5c-.164,0,26.074,6.942,26.074,6.942Z" fill="#cb1c3e"/>
          </g>
          <path id="Trazado_65454" data-name="Trazado 65454" d="M648.143,196.038a8.7,8.7,0,0,0,6,2.719c5.525.215,15.678.639,21.3,1.064,8,.6,13.429,14.94,5.884,16.9S649.8,207.97,649.8,207.97s-6.693,3.364-8.06,3.488a4.475,4.475,0,0,1-2.486-.559s-2.362.808-2.983.559a8.841,8.841,0,0,1-1.8-1.429s-4.971-.808-6.276-1.8-2.362-2.548-1.865-3.542a2.066,2.066,0,0,1,2.606-.785,5.541,5.541,0,0,0,4.066-.113c1.4-.646,3.139-1.49,4.452-2.271a6.979,6.979,0,0,0,3.107-4.412s-4.412-.746-6.09-2.237-.311-3.977.559-3.605,2.36.442,6.152.5C643.634,191.8,646.323,194.109,648.143,196.038Z" fill="#93405c"/>
          <path id="Trazado_65455" data-name="Trazado 65455" d="M633.873,192.145a2.341,2.341,0,0,0,.592,2.722c1.678,1.491,6.09,2.237,6.09,2.237C640.481,195.393,636.09,192.477,633.873,192.145Z" fill="#56114a"/>
          <path id="Trazado_65456" data-name="Trazado 65456" d="M636.473,211.5s4.084-.557,6.339-2.372" fill="none" stroke="#56114a" stroke-linecap="round" stroke-linejoin="round" stroke-width="0.698"/>
          <path id="Trazado_65457" data-name="Trazado 65457" d="M626.328,204.093c-.938,1.932.556,3.14,1.861,4.134.848.646,3.244,1.214,4.819,1.532a15.8,15.8,0,0,0,5.322-1.116" fill="none" stroke="#56114a" stroke-linecap="round" stroke-linejoin="round" stroke-width="0.698"/>
          <path id="Trazado_65458" data-name="Trazado 65458" d="M671.205,199.545c1.333.079,3.175.2,4.244.276,3,.226,5.637,2.384,7.366,5.1" fill="none" stroke="#56114a" stroke-linecap="round" stroke-linejoin="round" stroke-width="0.698"/>
        </g>
      </g>
      <g id="Grupo_31199" data-name="Grupo 31199">
        <path id="Trazado_65459" data-name="Trazado 65459" d="M637.151,125.14c-7.441,0-9.326,5.655-8.731,12.8s3.572,16.37,8.731,16.37,8.83-4.663,9.723-13.195S644.592,125.14,637.151,125.14Z" fill="#93405c"/>
        <path id="Trazado_65460" data-name="Trazado 65460" d="M628.005,137.472s.14-6.44,2.595-7.745,1.684.028,6.034-.884,6.173.491,6.945,3.789,3.246,4.714,3.482,7.092c0,0,2.621-13.687-8.416-15.682S626.967,134.066,628.005,137.472Z" fill="#0c1a3c"/>
        <path id="Trazado_65461" data-name="Trazado 65461" d="M628.655,140.015a14.326,14.326,0,0,1-1.352-9.137c.982-5.122,4.667-7.928,10.366-7.928s13.1,7.1,9.352,17.749c0,0,1.315-15.546-10.464-15.546C626.04,125.153,628.655,140.015,628.655,140.015Z" fill="#ffaa3f"/>
        <g id="Grupo_31198" data-name="Grupo 31198">
          <g id="Grupo_31197" data-name="Grupo 31197">
            <path id="Trazado_65462" data-name="Trazado 65462" d="M645.964,140.208s1.894-3.3,4.49-2.245-.7,8.91-5.472,7.857Z" fill="#93405c"/>
            <g id="Grupo_31196" data-name="Grupo 31196">
              <path id="Trazado_65463" data-name="Trazado 65463" d="M649.484,139.293s-2.782,1.54-2.888,4.234" fill="none" stroke="#56114a" stroke-linecap="round" stroke-linejoin="round" stroke-width="0.698"/>
              <path id="Trazado_65464" data-name="Trazado 65464" d="M649.306,142.866s-.653-1.543-1.741-1.873" fill="none" stroke="#56114a" stroke-linecap="round" stroke-linejoin="round" stroke-width="0.698"/>
            </g>
          </g>
          <path id="Trazado_65465" data-name="Trazado 65465" d="M648.819,146.588a2.241,2.241,0,1,1-2.241-2.241A2.242,2.242,0,0,1,648.819,146.588Z" fill="#fff"/>
        </g>
      </g>
    </g>
    <g id="Grupo_31220" data-name="Grupo 31220">
      <g id="Grupo_31201" data-name="Grupo 31201">
        <path id="Trazado_65466" data-name="Trazado 65466" d="M509.581,285.791V394.325c0,2.891,13.217,5.235,29.52,5.235s29.52-2.344,29.52-5.235V285.791Z" fill="#ffaa3f"/>
        <path id="Trazado_65467" data-name="Trazado 65467" d="M531.965,399.4V285.791H516.56V397.7A100.268,100.268,0,0,0,531.965,399.4Z" fill="#d98609" opacity="0.5" style="mix-blend-mode: multiply;isolation: isolate"/>
        <path id="Trazado_65468" data-name="Trazado 65468" d="M509.581,343.842a133.87,133.87,0,0,0,25.227-7.315,54.8,54.8,0,0,0,33.813-50.736h-59.04Z" fill="#d98609" opacity="0.5" style="mix-blend-mode: multiply;isolation: isolate"/>
        <path id="Trazado_65469" data-name="Trazado 65469" d="M506.135,275.92v10.828c0,3.228,14.759,5.846,32.966,5.846s32.967-2.618,32.967-5.846V275.92Z" fill="#ffaa3f"/>
        <path id="Trazado_65470" data-name="Trazado 65470" d="M572.068,275.92c0,3.228-14.76,5.846-32.967,5.846s-32.966-2.618-32.966-5.846,14.759-5.846,32.966-5.846S572.068,272.691,572.068,275.92Z" fill="#56114a"/>
      </g>
      <g id="Grupo_31219" data-name="Grupo 31219">
        <path id="Trazado_65471" data-name="Trazado 65471" d="M529.081,146.373s-8.436.352-10.9,12.127c-2.255,10.79-4.878,19.883-8.817,24.169a1.467,1.467,0,0,0,.264,2.178c2.687,1.912,9.545,5.618,22.613,5.9,13.894.3,22.358-2.831,25.49-4.273a1.474,1.474,0,0,0,.7-2.01,94.319,94.319,0,0,1-7.736-21.574C548.062,150.5,541.3,143.034,529.081,146.373Z" fill="#0c1a3c"/>
        <path id="Trazado_65472" data-name="Trazado 65472" d="M525.126,187.7c-8.813-3.68-19.178,8.446-23.888,20.111s-9.891,27.733-10.548,33.794c-1.014,9.365,7.073,13.467,16.539,6.681C515.1,242.645,538.863,193.441,525.126,187.7Z" fill="#439da3"/>
        <g id="Grupo_31208" data-name="Grupo 31208">
          <path id="Trazado_65473" data-name="Trazado 65473" d="M515.476,250.4s-25.854,7.34-37.4,17.527-4.984,27.617,11.2,26.485,55.349-28.523,55.349-28.523l-.679-8.293S526.164,248.723,515.476,250.4Z" fill="#346e94"/>
          <path id="Trazado_65474" data-name="Trazado 65474" d="M489.28,294.416c3.567-.25,8.251-1.775,13.384-4l-.258-8.649,21.857-20.376s-21.572,1.067-34.372,14.53c-3.584,3.77-5.274,10.473-5.851,18.168A19.243,19.243,0,0,0,489.28,294.416Z" fill="#185177" opacity="0.3" style="mix-blend-mode: multiply;isolation: isolate"/>
          <g id="Grupo_31204" data-name="Grupo 31204">
            <g id="Grupo_31202" data-name="Grupo 31202">
              <path id="Trazado_65475" data-name="Trazado 65475" d="M547.573,288.3c-16.3,12.45-43.931,28.978-43.931,28.978s-6.475,10.784-13.751,22.869c-1.068,1.785-2.158,3.6-3.247,5.406q-1.234,2.046-2.454,4.063c-5.694,9.456-10.974,18.215-13.132,21.765a48.183,48.183,0,0,0-4.7,10.588,54.708,54.708,0,0,0-2.053,8.98.916.916,0,0,1-.234.5l-.2.157a1.042,1.042,0,0,1-1.663-.569l-.43-1.776s-11.768,6.369-15.164,7.6c-2.341.843,1.132-5.47,4.408-11.846v-.007a84.959,84.959,0,0,0,3.74-7.972c1.357-3.628,4.457-19.3,8.464-35.945.429-1.8.879-3.614,1.329-5.427q.611-2.447,1.244-4.872c3.431-13.147,7.319-25.471,11.234-31.46,9.871-15.108,52.22-41.878,56.171-42.87s29.758,0,29.758,0S563.869,275.85,547.573,288.3Z" fill="#ffad91"/>
              <path id="Trazado_65476" data-name="Trazado 65476" d="M464.6,335.513c-.013.052-.027.1-.04.157-.45,1.813-.9,3.627-1.329,5.426,0,0,3.345,9.177,17.634,14.05,1.08-1.793,2.2-3.645,3.33-5.529q1.223-2.015,2.454-4.063,1.108-1.84,2.2-3.669Z" fill="#f1624f"/>
              <path id="Trazado_65477" data-name="Trazado 65477" d="M466.354,381.97a54.708,54.708,0,0,0-2.053,8.98.916.916,0,0,1-.234.5l-.2.157a1.042,1.042,0,0,1-1.663-.569l-.43-1.776s-11.768,6.369-15.164,7.6c-2.341.843,1.132-5.47,4.408-11.846a2.071,2.071,0,0,0,1.4,2.123C454.825,388.058,462.783,383.938,466.354,381.97Z" fill="#0c1a3c"/>
            </g>
            <g id="Grupo_31203" data-name="Grupo 31203">
              <path id="Trazado_65478" data-name="Trazado 65478" d="M547.573,288.3c-16.3,12.45-43.931,28.978-43.931,28.978s-8.527,14.2-17,28.275a33.509,33.509,0,0,1-22.089-9.884c3.719-14.89,8.03-29.64,12.478-36.332,11.226-16.888,52.22-41.878,56.171-42.87s29.758,0,29.758,0S563.869,275.85,547.573,288.3Z" fill="#346e94"/>
              <path id="Trazado_65479" data-name="Trazado 65479" d="M474.1,304.921c-3.395,7.686-6.647,19.166-9.54,30.749a33.509,33.509,0,0,0,22.089,9.884c8.471-14.075,17-28.275,17-28.275C496.57,318.509,480.976,309.284,474.1,304.921Z" fill="#185177" opacity="0.3" style="mix-blend-mode: multiply;isolation: isolate"/>
              <path id="Trazado_65480" data-name="Trazado 65480" d="M546.041,272.33s-12.324,13.4-39.906,31.055l-7.65,5.472-15.33,27.417" fill="none" stroke="#185177" stroke-linecap="round" stroke-linejoin="round" stroke-width="0.698"/>
              <path id="Trazado_65481" data-name="Trazado 65481" d="M494.2,282.45a321.182,321.182,0,0,1,31.745-22.085" fill="none" stroke="#185177" stroke-linecap="round" stroke-linejoin="round" stroke-width="0.698"/>
              <path id="Trazado_65482" data-name="Trazado 65482" d="M550.519,258.122s-2.936,8.049,2.383,11.054a4.29,4.29,0,0,0,6.27-2.791c.586-2.542,1.544-9.52,1.544-9.52Z" fill="#185177"/>
              <path id="Trazado_65483" data-name="Trazado 65483" d="M489.891,340.148c-1.068,1.785-2.158,3.6-3.247,5.406q-1.234,2.046-2.454,4.063a26.743,26.743,0,0,1-20.964-8.52,24.869,24.869,0,0,1,2.573-10.3C468.639,334.221,476.358,341.512,489.891,340.148Z" fill="#fff"/>
            </g>
          </g>
          <g id="Grupo_31207" data-name="Grupo 31207">
            <g id="Grupo_31205" data-name="Grupo 31205">
              <path id="Trazado_65484" data-name="Trazado 65484" d="M498.2,367.55l-.018.045a1.079,1.079,0,0,1-1.751.377l-.928-.892s-7.473,15.164-8.281,13.807c-.5-.829-.338-6.657-.626-12.049-.19-3.417-.555-6.651-1.392-8.324-1.293-2.587-6.235-13.463-10.9-25.808-.844-2.221-1.674-4.485-2.468-6.756-.387-1.089-.759-2.179-1.125-3.268-1.687-5-3.156-9.948-4.183-14.419-4.3-18.792,1.589-36.9,11.544-42.336l13.582,13.815c5.223,10.861,6.348,24.816,6.067,37.47-.035,1.708-.1,3.389-.183,5.041-.105,2.08-.239,4.112-.387,6.06-.766,9.863-1.961,17.772-1.87,20.921a42.6,42.6,0,0,0,.626,5.962,58.238,58.238,0,0,0,2.325,8.977A1.955,1.955,0,0,1,498.2,367.55Z" fill="#ffad91"/>
              <path id="Trazado_65485" data-name="Trazado 65485" d="M466.53,310.263c1.027,4.471,2.5,9.42,4.183,14.419.366,1.089.738,2.179,1.125,3.268.794,2.271,1.624,4.535,2.468,6.756q.432,1.145.867,2.27l1.386,1.68c9.34,1.161,15.927-1.451,20.268-4.5q.171-1.864.326-3.845c.148-1.948.282-3.98.387-6.06q.127-2.478.183-5.041A107.689,107.689,0,0,0,495.5,293l-30.285,1.373A55.763,55.763,0,0,0,466.53,310.263Z" fill="#f1624f"/>
              <path id="Trazado_65486" data-name="Trazado 65486" d="M498.2,367.55l-.018.045a1.079,1.079,0,0,1-1.751.377l-.928-.892s-7.473,15.164-8.281,13.807c-.5-.829-.338-6.657-.626-12.049.513.906,1.364,1.511,2.735.435,2.046-1.6,5.062-8.436,6.573-12.077a58.238,58.238,0,0,0,2.325,8.977A1.955,1.955,0,0,1,498.2,367.55Z" fill="#0c1a3c"/>
            </g>
            <g id="Grupo_31206" data-name="Grupo 31206">
              <path id="Trazado_65487" data-name="Trazado 65487" d="M497.723,319.212c-.035,1.708-.1,3.389-.183,5.041l-12.331,5.673-13.371-1.976c-.387-1.089-.671-2.212-1.125-3.268-2.7-6.3-3.156-9.948-4.183-14.419-4.3-18.792,1.589-36.9,11.544-42.336,7.138-3.878,13.582,2.147,13.582,13.814C496.879,292.6,498,306.558,497.723,319.212Z" fill="#346e94"/>
              <path id="Trazado_65488" data-name="Trazado 65488" d="M486.415,329.371l11.125-5.118q.127-2.478.183-5.041c.281-12.654-.844-26.609-6.067-37.471a25.153,25.153,0,0,0-.848-6.738c-.309.3-.617.6-.917.917C480.836,285.445,483.867,313.671,486.415,329.371Z" fill="#185177" opacity="0.3" style="mix-blend-mode: multiply;isolation: isolate"/>
              <path id="Trazado_65489" data-name="Trazado 65489" d="M491.656,281.742c4.913,10.215,6.165,25.438,6.067,37.47" fill="none" stroke="#185177" stroke-linecap="round" stroke-linejoin="round" stroke-width="0.698"/>
              <path id="Trazado_65490" data-name="Trazado 65490" d="M497.723,319.212a29.214,29.214,0,0,1-.57,11.1,64.838,64.838,0,0,1-22.847,4.393c-1.245-3.283-2.468-6.664-3.593-10.024A64.012,64.012,0,0,0,497.723,319.212Z" fill="#fff"/>
            </g>
          </g>
        </g>
        <g id="Grupo_31210" data-name="Grupo 31210">
          <path id="Trazado_65491" data-name="Trazado 65491" d="M538.273,181.908c-24.761-3.172-32.22,19.431-34.31,33.7s6.641,18.267,6.641,18.267-2.46,10.264-1.353,15.183,30.853,15.778,52.634,9.715c11.929-3.321,9.346-45.871,5.042-59.029S547.866,183.137,538.273,181.908Z" fill="#439da3"/>
          <path id="Trazado_65492" data-name="Trazado 65492" d="M556.02,194.282s-9.761,1.851-10.761,13.726-18.224,14.919-18.112,19.709a4.588,4.588,0,0,0,2.124,3.7,12.738,12.738,0,0,1,5.433,8.635c.859,6.494,4.031,15.971,14.818,20.476a52.1,52.1,0,0,0,12.363-1.757c2.7-.753,4.66-3.519,6.021-7.5a30.143,30.143,0,0,0,.064-18.7Z" fill="#378085" opacity="0.3" style="mix-blend-mode: multiply;isolation: isolate"/>
          <path id="Trazado_65493" data-name="Trazado 65493" d="M510.876,194.806c-4.028,6.606-5.992,14.512-6.913,20.8-2.091,14.265,6.641,18.267,6.641,18.267" fill="none" stroke="#378085" stroke-linecap="round" stroke-linejoin="round" stroke-width="0.698"/>
          <path id="Trazado_65494" data-name="Trazado 65494" d="M526.951,201.13s-10.7,14.982-3.964,27.36c6.33,11.627-.478,20.535,3.633,29.231" fill="none" stroke="#fff" stroke-linecap="round" stroke-linejoin="round" stroke-width="0.703"/>
          <g id="Grupo_31209" data-name="Grupo 31209">
            <path id="Trazado_65495" data-name="Trazado 65495" d="M535.671,176.866c-10.915-.285-14.323,7.294-15.993,16.873a4.612,4.612,0,0,0,1.3,1.229,13.832,13.832,0,0,1,4.56,5.392,10.952,10.952,0,0,0,1.087,1.815s.974-1.122,2.183-2.472A15.282,15.282,0,0,1,536.9,195a13.654,13.654,0,0,0,3.779-1.258C542.614,192.508,549.117,177.218,535.671,176.866Z" fill="#fff"/>
            <path id="Trazado_65496" data-name="Trazado 65496" d="M527.323,180.293l-.967,9.4a40.75,40.75,0,0,0,.264,10.9s5.536-5.888,7.47-7.645,4.745-7.206,4.306-13.445-.791-8.349-.791-8.349S528.466,170.363,527.323,180.293Z" fill="#ffad91"/>
            <path id="Trazado_65497" data-name="Trazado 65497" d="M538.1,175.7c-.29-3.321-.493-4.545-.493-4.545s-9.139-.791-10.282,9.14l-.811,7.892C531.332,188.106,536.121,183.156,538.1,175.7Z" fill="#f1624f"/>
          </g>
        </g>
        <g id="Grupo_31212" data-name="Grupo 31212">
          <path id="Trazado_65498" data-name="Trazado 65498" d="M557.827,193.679c-9.311,2.13-9.469,15.141-6.518,27.37s6.518,29.568,11.068,33.627,14.019,4.919,17.34-4.182S572.338,190.359,557.827,193.679Z" fill="#439da3"/>
          <path id="Trazado_65499" data-name="Trazado 65499" d="M557.827,193.679c-9.311,2.13-9.469,15.141-6.518,27.37,2.582,10.7,5.636,25.313,9.407,31.518" fill="none" stroke="#378085" stroke-linecap="round" stroke-linejoin="round" stroke-width="0.698"/>
          <g id="Grupo_31211" data-name="Grupo 31211">
            <path id="Trazado_65500" data-name="Trazado 65500" d="M526.11,204.508c-2.386,1.158,4.358,8.138,4.358,8.138s-4.957.333-3.517,4.325c0,0-2.16,1.964.2,5.3,0,0-3.119,2.889,0,5.445a5.194,5.194,0,0,0,4.843.773,5.511,5.511,0,0,0,4.123.982s13.58,26.856,27.925,28.128,17.628-14.506-17.9-37.281C546.143,220.319,530.915,202.175,526.11,204.508Z" fill="#ffad91"/>
            <path id="Trazado_65501" data-name="Trazado 65501" d="M527.478,213.806a5.149,5.149,0,0,1,2.99-1.16,8.551,8.551,0,0,1,3.416.58" fill="none" stroke="#d23d1e" stroke-linecap="round" stroke-linejoin="round" stroke-width="0.698"/>
            <path id="Trazado_65502" data-name="Trazado 65502" d="M528.842,226.716a21.037,21.037,0,0,0,4.363-.208" fill="none" stroke="#d23d1e" stroke-linecap="round" stroke-linejoin="round" stroke-width="0.698"/>
            <path id="Trazado_65503" data-name="Trazado 65503" d="M531.023,226.744a2.1,2.1,0,0,1,.967,1.746" fill="none" stroke="#d23d1e" stroke-linecap="round" stroke-linejoin="round" stroke-width="0.698"/>
            <path id="Trazado_65504" data-name="Trazado 65504" d="M527.147,222.272s4.174-.769,5.886-.384" fill="none" stroke="#d23d1e" stroke-linecap="round" stroke-linejoin="round" stroke-width="0.698"/>
            <path id="Trazado_65505" data-name="Trazado 65505" d="M533.205,216.8a16.435,16.435,0,0,0-6.254.167" fill="none" stroke="#d23d1e" stroke-linecap="round" stroke-linejoin="round" stroke-width="0.698"/>
          </g>
        </g>
        <g id="Grupo_31215" data-name="Grupo 31215">
          <g id="Grupo_31213" data-name="Grupo 31213">
            <path id="Trazado_65506" data-name="Trazado 65506" d="M503.218,201.808,517.365,241a2.127,2.127,0,0,1-1.278,2.722l-2.011.726a2.124,2.124,0,0,0,1.273-2.72L501.2,202.536a2.123,2.123,0,0,0-2.717-1.28l2.011-.726A2.126,2.126,0,0,1,503.218,201.808Z" fill="#0c1a3c"/>
            <rect id="Rectángulo_6348" data-name="Rectángulo 6348" width="29.928" height="45.917" rx="2.127" transform="translate(472.33 210.698) rotate(-19.849)" fill="#cb1c3e"/>
            <path id="Trazado_65507" data-name="Trazado 65507" d="M495.552,225.754a2.684,2.684,0,1,1-3.436-1.613A2.682,2.682,0,0,1,495.552,225.754Z" fill="#f3e8e2"/>
          </g>
          <g id="Grupo_31214" data-name="Grupo 31214">
            <path id="Trazado_65508" data-name="Trazado 65508" d="M484.231,228.49c-1.606-2.523-6.911,1.81-8.391,3.373s-1.07,5.759,3.537,3.949S485.383,230.3,484.231,228.49Z" fill="#ffad91"/>
            <path id="Trazado_65509" data-name="Trazado 65509" d="M484.257,231.546c-2.2-.228-6.017,2.425-6.35,4.223a2.619,2.619,0,0,0-.041.452,6.4,6.4,0,0,0,1.511-.409A8.391,8.391,0,0,0,484.257,231.546Z" fill="#f1624f"/>
            <path id="Trazado_65510" data-name="Trazado 65510" d="M484.642,234c-1.431-2.211-7.157,1.316-7.568,3.538s2.146,3.888,4.936,2.3C485.63,237.786,485.547,235.4,484.642,234Z" fill="#ffad91"/>
            <path id="Trazado_65511" data-name="Trazado 65511" d="M485.162,235.705c-2.167.521-4.869,2.612-5.147,4.113a2.483,2.483,0,0,0-.029.646,4.528,4.528,0,0,0,2.024-.621C484.408,238.48,485.177,236.974,485.162,235.705Z" fill="#f1624f"/>
            <path id="Trazado_65512" data-name="Trazado 65512" d="M486.7,238.28c-1.431-2.211-7.157,1.316-7.569,3.538s2.147,3.888,4.937,2.3C487.686,242.064,487.6,239.679,486.7,238.28Z" fill="#ffad91"/>
            <path id="Trazado_65513" data-name="Trazado 65513" d="M487.218,240.117c-2.161.533-4.838,2.61-5.114,4.1a2.51,2.51,0,0,0-.037.521,4.543,4.543,0,0,0,2-.621C486.381,242.806,487.178,241.357,487.218,240.117Z" fill="#f1624f"/>
            <path id="Trazado_65514" data-name="Trazado 65514" d="M488.756,242.558c-1.431-2.211-7.158,1.316-7.569,3.538s2.147,3.888,4.936,2.3C489.743,246.342,489.661,243.957,488.756,242.558Z" fill="#ffad91"/>
          </g>
        </g>
        <path id="Trazado_65515" data-name="Trazado 65515" d="M494.2,260.568" fill="#fff" stroke="#231f20" stroke-linecap="round" stroke-linejoin="round" stroke-width="0.703"/>
        <g id="Grupo_31218" data-name="Grupo 31218">
          <path id="Trazado_65516" data-name="Trazado 65516" d="M531.1,150.328c-9.492,0-11.073,9.49-11.248,17.048s2.109,15.114,8,15.114,11.776-7.293,12.567-17.575S537.956,150.328,531.1,150.328Z" fill="#ffad91"/>
          <g id="Grupo_31217" data-name="Grupo 31217">
            <path id="Trazado_65517" data-name="Trazado 65517" d="M539.274,167.639s1.055-2.636,3.252-2.46,1.23,9.4-4.745,8.875Z" fill="#ffad91"/>
            <g id="Grupo_31216" data-name="Grupo 31216">
              <path id="Trazado_65518" data-name="Trazado 65518" d="M541.977,167.286s-2.782,1.541-2.887,4.234" fill="none" stroke="#d23d1e" stroke-linecap="round" stroke-linejoin="round" stroke-width="0.698"/>
              <path id="Trazado_65519" data-name="Trazado 65519" d="M541.8,170.859s-.652-1.542-1.741-1.873" fill="none" stroke="#d23d1e" stroke-linecap="round" stroke-linejoin="round" stroke-width="0.698"/>
            </g>
          </g>
          <path id="Trazado_65520" data-name="Trazado 65520" d="M520.239,162.264s1.332-6.256,5.5-5.17a26.546,26.546,0,0,0,9.666,8.955c3.035,1.54,5.8,1.409,6.384-.623a18.262,18.262,0,0,0,.032-8.332c-1.846-9.93-10.633-10.984-16.7-7.294S520.239,162.264,520.239,162.264Z" fill="#0c1a3c"/>
        </g>
      </g>
    </g>
    <g id="Grupo_31236" data-name="Grupo 31236">
      <g id="Grupo_31222" data-name="Grupo 31222">
        <path id="Trazado_65521" data-name="Trazado 65521" d="M295.92,163.845c-10.319,1.474-13.628,9.881-14.309,18.228s-.341,11.754-4.259,15.842.17,8.347.17,8.347-4.429,22.316,8.347,25.552a20.408,20.408,0,0,0,12.266-10.732c4.429-8.858,6.643-32.536,7.154-41.224S301.882,162.994,295.92,163.845Z" fill="#346e94"/>
        <path id="Trazado_65522" data-name="Trazado 65522" d="M279.949,211.5a17.523,17.523,0,0,0-.925-7.163,6.146,6.146,0,0,1,1.308-6.412c3.918-4.43,3.577-8.121,4.259-17.164.41-5.45,1.789-10.911,5.068-14.749-5.483,3.342-7.53,9.714-8.048,16.061-.682,8.347-.341,11.754-4.259,15.842s.17,8.347.17,8.347-3.793,19.156,5.819,24.54C279.522,225.593,279.517,216.825,279.949,211.5Z" fill="#6aa0c2"/>
        <path id="Trazado_65523" data-name="Trazado 65523" d="M289.778,204.062c-4.022,2.211-6.689,2.044-2.689,12.211,3.961,10.067-4,14.207-4.162,14.287a10.208,10.208,0,0,0,2.942,1.254,20.408,20.408,0,0,0,12.266-10.732c4.429-8.858,6.643-32.536,7.154-41.224.04-.671.044-1.337.031-2l-2.9-.587C291.589,187.106,293.8,201.851,289.778,204.062Z" fill="#185177" opacity="0.3" style="mix-blend-mode: multiply;isolation: isolate"/>
        <g id="Grupo_31221" data-name="Grupo 31221">
          <path id="Trazado_65524" data-name="Trazado 65524" d="M278.885,206.6s6.254,6.117,6.859,19.082a4.888,4.888,0,0,1-5.258,5.108c-6.184-.484-17.082-3.418-28.346-16.354,0,0-7.91,1.126-9.371-5.933s3.408-15.335,3.408-15.335l12.252,5.761S271.266,202.346,278.885,206.6Z" fill="#ff8b61"/>
          <path id="Trazado_65525" data-name="Trazado 65525" d="M281.084,230.83l.086.005a4.38,4.38,0,0,0,4.6-4.487c-.418-13.419-6.885-19.745-6.885-19.745A39.558,39.558,0,0,1,281.084,230.83Z" fill="#f1624f"/>
          <path id="Trazado_65526" data-name="Trazado 65526" d="M251.776,204.53c3.387,3.886,8.763,0,8.763-3.894s-2.272-8.2-.081-14.768c0,0-.081-2.515-3-1.866s-3.084,7.87-3.084,7.87S246.258,198.2,251.776,204.53Z" fill="#ff8b61"/>
          <path id="Trazado_65527" data-name="Trazado 65527" d="M252.4,205.143c3.212,2.667,7.658-.489,8.1-3.949" fill="none" stroke="#d23d1e" stroke-linecap="round" stroke-linejoin="round" stroke-width="0.698"/>
          <path id="Trazado_65528" data-name="Trazado 65528" d="M245.572,208.01c2.477.769,2.477,6.065-3.417,4.869s-4.271-7.346-.939-6.15A21.9,21.9,0,0,0,245.572,208.01Z" fill="#ff8b61"/>
          <path id="Trazado_65529" data-name="Trazado 65529" d="M245.853,203.394c2.539.788,2.539,6.217-3.5,4.991s-4.378-7.53-.963-6.3A22.444,22.444,0,0,0,245.853,203.394Z" fill="#ff8b61"/>
          <path id="Trazado_65530" data-name="Trazado 65530" d="M246.9,198.814c2.756.855,2.756,6.748-3.8,5.418s-4.752-8.174-1.045-6.844A24.391,24.391,0,0,0,246.9,198.814Z" fill="#ff8b61"/>
          <path id="Trazado_65531" data-name="Trazado 65531" d="M248.444,193.378c2.757.855,2.757,6.748-3.8,5.417s-4.753-8.174-1.046-6.843A24.414,24.414,0,0,0,248.444,193.378Z" fill="#ff8b61"/>
          <path id="Trazado_65532" data-name="Trazado 65532" d="M245.93,208.167a2.566,2.566,0,0,1-.154,4.439" fill="none" stroke="#d23d1e" stroke-linecap="round" stroke-linejoin="round" stroke-width="0.698"/>
          <path id="Trazado_65533" data-name="Trazado 65533" d="M246.851,204.062a2.657,2.657,0,0,1-.921,4.105,6.736,6.736,0,0,1-6.609-1.293" fill="none" stroke="#d23d1e" stroke-linecap="round" stroke-linejoin="round" stroke-width="0.698"/>
          <path id="Trazado_65534" data-name="Trazado 65534" d="M247.2,198.937a2.85,2.85,0,0,1-.351,5.125,7.456,7.456,0,0,1-6.918-1.352" fill="none" stroke="#d23d1e" stroke-linecap="round" stroke-linejoin="round" stroke-width="0.698"/>
          <path id="Trazado_65535" data-name="Trazado 65535" d="M250.117,195.324c.328,1.493-.454,3.306-2.915,3.613a7.657,7.657,0,0,1-2.559-.141,8.031,8.031,0,0,1-1.273-.363" fill="none" stroke="#d23d1e" stroke-linecap="round" stroke-linejoin="round" stroke-width="0.698"/>
        </g>
      </g>
      <g id="Grupo_31225" data-name="Grupo 31225">
        <g id="Grupo_31224" data-name="Grupo 31224">
          <g id="Grupo_31223" data-name="Grupo 31223">
            <path id="Trazado_65536" data-name="Trazado 65536" d="M362.616,380.324c.406,1.759.6,2.893.6,2.893-18.111,13.746-41.763,14.975-41.763,14.975.326-1.05.709-2.106,1.137-3.141,3.827-9.468,10.961-17.918,10.961-17.918,5.219-6.315,21.067-15.27,24.657-8.842A49.285,49.285,0,0,1,362.616,380.324Z" fill="#0c1a3c"/>
            <path id="Trazado_65537" data-name="Trazado 65537" d="M363.212,383.217h0c-18.111,13.746-41.763,14.975-41.763,14.975.326-1.05.709-2.106,1.137-3.141,6.417-.829,23.439-3.792,37.685-13.115A1.916,1.916,0,0,1,363.212,383.217Z" fill="#185177"/>
            <path id="Trazado_65538" data-name="Trazado 65538" d="M339.672,379.793l-4.135-3.395-1.311-.033c-.24.259-.471.516-.679.768,0,0-7.134,8.451-10.961,17.918-.428,1.035-.811,2.091-1.137,3.141a88.271,88.271,0,0,0,20.649-4.216Z" fill="#0c1a3c" opacity="0.4" style="mix-blend-mode: multiply;isolation: isolate"/>
          </g>
        </g>
        <path id="Trazado_65539" data-name="Trazado 65539" d="M358.151,370.357c-10.329,10.166-28.247,11.02-28.247,11.02-.6-1.659-1.617-4.021-2.939-6.911-7.887-17.336-26.342-53.52-26.742-68.227-.464-17.153,1.7-66.469,1.7-66.469l37.562-.465-4.633,67.862c7.157,16.331,16.823,41.4,21.618,54.012,1.025,2.7,1.828,4.821,2.338,6.172A2.823,2.823,0,0,1,358.151,370.357Z" fill="#cb1c3e"/>
        <path id="Trazado_65540" data-name="Trazado 65540" d="M358.915,369.573c-10.181,10.907-29.011,11.8-29.011,11.8-.6-1.659-1.617-4.021-2.939-6.911,5.639-2.074,19.807-4.191,29.506-13.287,1.309,3.442,2.257,5.957,2.692,7.114A1.234,1.234,0,0,1,358.915,369.573Z" fill="#99162b"/>
        <path id="Trazado_65541" data-name="Trazado 65541" d="M343.108,326.953c-2.848-7.065-5.71-13.978-8.255-19.786l1.468-21.5c-19.616,5.162-30.472,16.489-33.373,33.413,5.5,17.3,17.916,41.98,24.017,55.389,1.322,2.89,2.341,5.252,2.939,6.911a58.067,58.067,0,0,0,16.409-3.679C345.021,372.461,341.93,356.46,343.108,326.953Z" fill="#99162b" opacity="0.3" style="mix-blend-mode: multiply;isolation: isolate"/>
        <path id="Trazado_65542" data-name="Trazado 65542" d="M342.135,324.546c-1.139-2.807-2.273-5.57-3.383-8.232l-16.319,48.438c1.7,3.615,3.258,6.913,4.532,9.714,1.322,2.89,2.341,5.252,2.939,6.911a56.628,56.628,0,0,0,9.768-1.584C336.268,354.41,341.087,329.489,342.135,324.546Z" fill="#99162b" opacity="0.3" style="mix-blend-mode: multiply;isolation: isolate"/>
        <path id="Trazado_65543" data-name="Trazado 65543" d="M317.291,278.482s-.892,23.583-.446,29.052,28.3,61.027,28.3,61.027" fill="none" stroke="#99162b" stroke-linecap="round" stroke-linejoin="round" stroke-width="0.698"/>
        <path id="Trazado_65544" data-name="Trazado 65544" d="M316.718,240.812s-2.42,14.006-3.183,18.08a7.045,7.045,0,0,0,2.164,6.494" fill="none" stroke="#99162b" stroke-linecap="round" stroke-linejoin="round" stroke-width="0.698"/>
      </g>
      <g id="Grupo_31228" data-name="Grupo 31228">
        <g id="Grupo_31227" data-name="Grupo 31227">
          <g id="Grupo_31226" data-name="Grupo 31226">
            <path id="Trazado_65545" data-name="Trazado 65545" d="M329.959,397.065a118.829,118.829,0,0,1-46.078.458c.66-.879,2.3-4.232,3.048-5.061,6.8-7.621,16.366-13.167,16.366-13.167,7.045-4.183,24.985-7.263,26.195,0C330.263,383.906,329.959,397.065,329.959,397.065Z" fill="#0c1a3c"/>
          </g>
        </g>
        <path id="Trazado_65546" data-name="Trazado 65546" d="M326.9,394.428c-6.173,1.078-21.106,2.845-40.939-.492-.758,1.306-1.636,3-2.078,3.587a118.829,118.829,0,0,0,46.078-.458h0A2.612,2.612,0,0,0,326.9,394.428Z" fill="#185177"/>
        <path id="Trazado_65547" data-name="Trazado 65547" d="M323.132,239.522s-18.974,75.265-22.153,140.432l29.228.512s13.686-68.532,21-99.05,3.123-48.388,3.123-48.388Z" fill="#cb1c3e"/>
        <path id="Trazado_65548" data-name="Trazado 65548" d="M320.931,248.744c-3.31,14.329-9.688,43.741-14.436,76.7" fill="none" stroke="#99162b" stroke-linecap="round" stroke-linejoin="round" stroke-width="0.698"/>
        <path id="Trazado_65549" data-name="Trazado 65549" d="M332.439,369.384c2.1-10.364,5.431-26.7,8.925-43.3" fill="none" stroke="#99162b" stroke-linecap="round" stroke-linejoin="round" stroke-width="0.698"/>
        <path id="Trazado_65550" data-name="Trazado 65550" d="M346.851,256.354s-1.037,19.345-12.437,61.319c0,0-7.082,31.264-10.191,54.237" fill="none" stroke="#99162b" stroke-linecap="round" stroke-linejoin="round" stroke-width="0.698"/>
        <path id="Trazado_65551" data-name="Trazado 65551" d="M352.481,233.412h0l-9.516,1.981,1.048,5.275s-1.15,7.411,3.9,9.344C347.918,250.012,352.482,244.416,352.481,233.412Z" fill="#99162b"/>
        <path id="Trazado_65552" data-name="Trazado 65552" d="M316.845,307.534c-7.1-.592-11.484,20.125-3.2,21.191S325.027,308.216,316.845,307.534Z" fill="#99162b"/>
        <path id="Trazado_65553" data-name="Trazado 65553" d="M302.032,371.2a117.7,117.7,0,0,0,29.27,1.733.91.91,0,0,1,.977,1.031l-1.046,7.374a1.625,1.625,0,0,1-1.37,1.383c-4.054.605-17.628,2.2-29.359-1.434a1.088,1.088,0,0,1-.756-1.11l.478-7.569A1.527,1.527,0,0,1,302.032,371.2Z" fill="#99162b"/>
      </g>
      <path id="Trazado_65554" data-name="Trazado 65554" d="M294.65,164.036s16.078-5.72,19.325-6.184,24.271.155,28.6,2.783c4.262,2.587,18.561,49.973,13.7,71.8a2.536,2.536,0,0,1-1.185,1.62c-3.809,2.276-19.463,10.039-51.931,7.124,0,0-5.411-2.319-5.565-4.329s2.473-8.657,1.855-10.667-9.585-29.527-9.74-39.266S294.65,164.036,294.65,164.036Z" fill="#346e94"/>
      <path id="Trazado_65555" data-name="Trazado 65555" d="M289.778,188.3c.407,5.122,2.492,13.551,4.629,21.178,43.79,1.025,50.349-6.455,50.349-6.455l-3.663-20.806S326.526,189.738,289.778,188.3Z" fill="#f3e8e2"/>
      <path id="Trazado_65556" data-name="Trazado 65556" d="M356.269,232.434c4-17.942-4.95-53.149-10.629-66.552a23.631,23.631,0,0,0-11.232-1.087s-10.468,9.468-10.185,24.1a175.409,175.409,0,0,0,2.647,24.681,39.623,39.623,0,0,1-.118,13.768,58.376,58.376,0,0,0-.946,14.179c17.374-1.215,26.495-5.8,29.278-7.467A2.538,2.538,0,0,0,356.269,232.434Z" fill="#185177" opacity="0.3" style="mix-blend-mode: multiply;isolation: isolate"/>
      <path id="Trazado_65557" data-name="Trazado 65557" d="M297.248,219.153c-2.851-9.333-7.434-25.3-7.545-32.237-.112-7.1,2.57-16.013,4.031-20.318" fill="none" stroke="#185177" stroke-linecap="round" stroke-linejoin="round" stroke-width="0.698"/>
      <g id="Grupo_31232" data-name="Grupo 31232">
        <path id="Trazado_65558" data-name="Trazado 65558" d="M342.574,160.635c-10.627-1.252-14.526,18.991-13.688,24.014s7.032,5.357,8.539,9.041.837,10.715,2.344,13.227,6.864,5.692,17.579,6.864,14.064-5.693,14.4-8.037-3.516-4.185-4.186-7.032.335-6.7-1-8.2-5.693-2.177-6.362-2.344S354.756,162.07,342.574,160.635Z" fill="#346e94"/>
        <path id="Trazado_65559" data-name="Trazado 65559" d="M358.092,188.217a104.845,104.845,0,0,1-15.229-2.813" fill="none" stroke="#185177" stroke-linecap="round" stroke-linejoin="round" stroke-width="0.698"/>
        <path id="Trazado_65560" data-name="Trazado 65560" d="M365.649,199.767s-11.16-2.06-18.718-1.094" fill="none" stroke="#185177" stroke-linecap="round" stroke-linejoin="round" stroke-width="0.698"/>
        <path id="Trazado_65561" data-name="Trazado 65561" d="M339.326,160.947c-3.586,1.176-6.178,5.02-7.895,9.342" fill="none" stroke="#185177" stroke-linecap="round" stroke-linejoin="round" stroke-width="0.698"/>
        <path id="Trazado_65562" data-name="Trazado 65562" d="M330.92,188.217c2.2,1.987,5.466,2.935,6.5,5.473,1.13,2.762,1.035,7.408,1.553,10.618" fill="none" stroke="#185177" stroke-linecap="round" stroke-linejoin="round" stroke-width="0.698"/>
        <g id="Grupo_31231" data-name="Grupo 31231">
          <path id="Trazado_65563" data-name="Trazado 65563" d="M342.553,206.985s16.367-5.13,25.649,3.664c0,0-8.672,16.978-21.13,26.627,0,0-3.69,6.032-12.729,9.942s-19.28-6.6-15.577-9.487c1.122-.876-4.1-4.937,3.974-7.5s11.594-1.854,11.594-1.854S338.39,212.972,342.553,206.985Z" fill="#ff8b61"/>
          <path id="Trazado_65564" data-name="Trazado 65564" d="M320.931,238.372c.79-2.056-2.646-3.067.246-7.554-5.774,2.556-1.371,6.1-2.411,6.913-3.7,2.888,6.538,13.4,15.577,9.487C327.306,248.414,320.056,240.648,320.931,238.372Z" fill="#f1624f"/>
          <path id="Trazado_65565" data-name="Trazado 65565" d="M368.2,210.649c-9.282-8.794-25.649-3.664-25.649-3.664a34.215,34.215,0,0,1,23.018,8.291C367.264,212.482,368.2,210.649,368.2,210.649Z" fill="#f1624f"/>
          <g id="Grupo_31230" data-name="Grupo 31230">
            <path id="Trazado_65566" data-name="Trazado 65566" d="M334.334,228.376a26.721,26.721,0,0,1,12,10l2.534-1.784a1.2,1.2,0,0,0,.315-1.645c-1.593-2.426-6.247-8.6-13.433-10.513a1.115,1.115,0,0,0-1.311.688l-.707,1.814A1.122,1.122,0,0,0,334.334,228.376Z" fill="#0c1a3c"/>
            <g id="Grupo_31229" data-name="Grupo 31229">
              <path id="Trazado_65567" data-name="Trazado 65567" d="M347.918,233.412a3.162,3.162,0,1,1-3.162-3.162A3.162,3.162,0,0,1,347.918,233.412Z" fill="#ffaa3f"/>
              <circle id="Elipse_1447" data-name="Elipse 1447" cx="1.893" cy="1.893" r="1.893" transform="translate(342.863 231.52)" fill="#f3e8e2"/>
            </g>
          </g>
        </g>
      </g>
      <g id="Grupo_31235" data-name="Grupo 31235">
        <path id="Trazado_65568" data-name="Trazado 65568" d="M300.687,159.3l.908,5.072s1.969,3.332,5.6,3.559a18.215,18.215,0,0,0,8.555-7.8l-6.284-13.7Z" fill="#ff8b61"/>
        <path id="Trazado_65569" data-name="Trazado 65569" d="M309.76,152.077a48.405,48.405,0,0,0-.579-5.226L300.687,159.3l.909,5.072.014.024a2.713,2.713,0,0,0,4.263.41C308.942,161.567,310.035,156.322,309.76,152.077Z" fill="#f1624f"/>
        <path id="Trazado_65570" data-name="Trazado 65570" d="M292.132,131.742c-6.751,2.061-7.117,8.555-5.224,14.915s6.738,18.473,13.1,16.656,8.555-9.54,8.176-15.369S306.516,127.351,292.132,131.742Z" fill="#ff8b61"/>
        <path id="Trazado_65571" data-name="Trazado 65571" d="M292.738,140.6a10.564,10.564,0,0,1-10.373,2.65c-6.435-1.742-9.236-11.508-4.164-16.581,3.805-3.8,9.526-3.478,13.649-1.384a9.487,9.487,0,0,0,9.145-.164c.149-.088.3-.177.449-.269,3.1-1.892,8.177-.832,8.631,5.451,0,0,7.116,2.12,5.224,10.9s-2.624,11.607-2.624,11.607l-5.25-5.551-1.287.152-.185-1.211a6.71,6.71,0,0,0-3.078-4.755c-.908-.55-1.753-1.645-1.885-3.8C300.99,137.647,297.734,142.265,292.738,140.6Z" fill="#0c1a3c"/>
        <g id="Grupo_31234" data-name="Grupo 31234">
          <path id="Trazado_65572" data-name="Trazado 65572" d="M307.274,145.9s-.076-3.558,2.347-4.088,2.271,8.782-1.969,9.54Z" fill="#ff8b61"/>
          <g id="Grupo_31233" data-name="Grupo 31233">
            <path id="Trazado_65573" data-name="Trazado 65573" d="M308.322,149.237s-.6-4.336,1.479-5.814" fill="none" stroke="#d23d1e" stroke-linecap="round" stroke-linejoin="round" stroke-width="0.698"/>
            <path id="Trazado_65574" data-name="Trazado 65574" d="M308.6,145.854a2.667,2.667,0,0,1,1.529,1.378" fill="none" stroke="#d23d1e" stroke-linecap="round" stroke-linejoin="round" stroke-width="0.698"/>
          </g>
        </g>
      </g>
    </g>
    <g id="Grupo_31280" data-name="Grupo 31280">
      <g id="Grupo_31244" data-name="Grupo 31244">
        <rect id="Rectángulo_6349" data-name="Rectángulo 6349" width="5.027" height="36.893" transform="translate(68.763 278.419)" fill="#231f20"/>
        <g id="Grupo_31237" data-name="Grupo 31237">
          <path id="Trazado_65575" data-name="Trazado 65575" d="M94.408,251.067H48.145v49.662H94.408c2.571,0,4.655-11.117,4.655-24.831S96.979,251.067,94.408,251.067Z" fill="#56114a"/>
          <ellipse id="Elipse_1448" data-name="Elipse 1448" cx="4.656" cy="24.831" rx="4.656" ry="24.831" transform="translate(43.489 251.067)" fill="#93405c"/>
        </g>
        <g id="Grupo_31241" data-name="Grupo 31241">
          <rect id="Rectángulo_6350" data-name="Rectángulo 6350" width="5.027" height="55.72" transform="translate(86.664 316.387)" fill="#56114a"/>
          <g id="Grupo_31240" data-name="Grupo 31240">
            <path id="Trazado_65576" data-name="Trazado 65576" d="M127.733,379.392v1.99H50.626v-1.99a2.9,2.9,0,0,1,2.384-2.861l36.169-6.658,36.17,6.658A2.91,2.91,0,0,1,127.733,379.392Z" fill="#56114a"/>
            <g id="Grupo_31238" data-name="Grupo 31238">
              <path id="Trazado_65577" data-name="Trazado 65577" d="M123.449,390.417a1.5,1.5,0,0,1-1.5-1.5v-9.748a1.5,1.5,0,0,1,3,0v9.748A1.5,1.5,0,0,1,123.449,390.417Z" fill="#56114a"/>
            </g>
            <g id="Grupo_31239" data-name="Grupo 31239">
              <path id="Trazado_65578" data-name="Trazado 65578" d="M54.906,390.417a1.5,1.5,0,0,1-1.5-1.5v-9.748a1.5,1.5,0,0,1,3,0v9.748A1.5,1.5,0,0,1,54.906,390.417Z" fill="#56114a"/>
            </g>
            <path id="Trazado_65579" data-name="Trazado 65579" d="M59.747,388.917a4.841,4.841,0,1,1-4.841-4.841A4.841,4.841,0,0,1,59.747,388.917Z" fill="#56114a"/>
            <path id="Trazado_65580" data-name="Trazado 65580" d="M118.608,388.917a4.841,4.841,0,1,0,4.841-4.841A4.841,4.841,0,0,0,118.608,388.917Z" fill="#56114a"/>
          </g>
        </g>
        <g id="Grupo_31243" data-name="Grupo 31243">
          <path id="Trazado_65581" data-name="Trazado 65581" d="M107.814,310.175H78.8v1.786c-4.137.9-6.644,2.07-6.644,3.351s2.507,2.452,6.644,3.351v1.786h29.013c15.131,0,27.4-2.3,27.4-5.137S122.945,310.175,107.814,310.175Z" fill="#1a0d77"/>
          <g id="Grupo_31242" data-name="Grupo 31242">
            <path id="Trazado_65582" data-name="Trazado 65582" d="M78.8,310.175c15.131,0,27.4,2.3,27.4,5.137s-12.266,5.137-27.4,5.137-27.4-2.3-27.4-5.137S63.669,310.175,78.8,310.175Z" fill="#56114a"/>
          </g>
        </g>
      </g>
      <g id="Grupo_31249" data-name="Grupo 31249">
        <g id="Grupo_31245" data-name="Grupo 31245">
          <path id="Trazado_65583" data-name="Trazado 65583" d="M222.488,305.009H125.4l5.123-13.841h91.963Z" fill="#56114a"/>
          <path id="Trazado_65584" data-name="Trazado 65584" d="M245.094,305.009H153.076l5.123-13.841h86.895a5.068,5.068,0,0,1,5.068,5.068v3.705A5.068,5.068,0,0,1,245.094,305.009Z" fill="#ffaa3f"/>
        </g>
        <g id="Grupo_31246" data-name="Grupo 31246">
          <rect id="Rectángulo_6351" data-name="Rectángulo 6351" width="4.345" height="94.551" transform="translate(239.391 305.009)" fill="#ffaa3f"/>
          <path id="Trazado_65585" data-name="Trazado 65585" d="M239.391,315.634c1.812-2.724,3.258-4.672,4.346-6.021v-4.6h-4.346Z" fill="#d98609" opacity="0.5" style="mix-blend-mode: multiply;isolation: isolate"/>
          <rect id="Rectángulo_6352" data-name="Rectángulo 6352" width="5.504" height="94.551" transform="translate(233.887 305.009)" fill="#56114a"/>
        </g>
        <g id="Grupo_31247" data-name="Grupo 31247">
          <rect id="Rectángulo_6353" data-name="Rectángulo 6353" width="4.345" height="94.551" transform="translate(204.95 305.009)" fill="#ffaa3f"/>
          <path id="Trazado_65586" data-name="Trazado 65586" d="M204.95,323.374a47.72,47.72,0,0,1,4.346,4.953V305.009H204.95Z" fill="#d98609" opacity="0.5" style="mix-blend-mode: multiply;isolation: isolate"/>
          <rect id="Rectángulo_6354" data-name="Rectángulo 6354" width="5.504" height="94.551" transform="translate(199.446 305.009)" fill="#56114a"/>
        </g>
        <g id="Grupo_31248" data-name="Grupo 31248">
          <path id="Trazado_65587" data-name="Trazado 65587" d="M109.287,399.56h2l30.381-94.551H137.32Z" fill="#ffaa3f"/>
          <path id="Trazado_65588" data-name="Trazado 65588" d="M121.56,367.582l20.1-62.573H137.32l-20.654,69.664,1.761-1.837A13.618,13.618,0,0,0,121.56,367.582Z" fill="#d98609" opacity="0.5" style="mix-blend-mode: multiply;isolation: isolate"/>
          <path id="Trazado_65589" data-name="Trazado 65589" d="M106.608,399.56h2.679l28.033-94.551h-5.5Z" fill="#56114a"/>
        </g>
      </g>
      <g id="Grupo_31271" data-name="Grupo 31271">
        <g id="Grupo_31254" data-name="Grupo 31254">
          <g id="Grupo_31253" data-name="Grupo 31253">
            <path id="Trazado_65590" data-name="Trazado 65590" d="M99.471,224.229c-7.687,5.948-1.691,24.829,3.564,35.1,0,0,9.939,2.18,22.287-14.673C125.322,244.652,111.058,215.264,99.471,224.229Z" fill="#ffaa3f"/>
            <path id="Trazado_65591" data-name="Trazado 65591" d="M122.809,247.861c-2.426-4.7-15.007-27.653-25.429-19.589a7.647,7.647,0,0,0-.995.941c-2.213,8.211,2.451,21.909,6.65,30.112C103.035,259.325,111.654,261.207,122.809,247.861Z" fill="#d98609" opacity="0.5" style="mix-blend-mode: multiply;isolation: isolate"/>
            <g id="Grupo_31252" data-name="Grupo 31252">
              <path id="Trazado_65592" data-name="Trazado 65592" d="M105,258.728s6.926-11.477,19.716-13.712c0,0,8.4,11.887,11.749,15.97s8.154,12.861.707,19.152S117.008,276.977,105,258.728Z" fill="#93405c"/>
              <path id="Trazado_65593" data-name="Trazado 65593" d="M114.057,251.55s2.185-2.162,14.131-1.665c-1.979-2.752-3.476-4.869-3.476-4.869a27.189,27.189,0,0,0-11.192,4.831Z" fill="#56114a"/>
              <path id="Trazado_65594" data-name="Trazado 65594" d="M122.964,264.806a148.748,148.748,0,0,1,25.28-30.557s2.324-3.559,10.983-6.582,12.213-4.093,13.207-2.946-1.818,3.43-4.824,4.953c0,0,3.17.806,2.917,3.189s-2.871,3.1-2.871,3.1,3.035,1.542,1.982,3.536a6.14,6.14,0,0,1-2.759,2.7s3.638,2.2-.554,5.423c-3.153,2.424-7.953,2.411-7.953,2.411S152.8,265.625,142.933,276.1c-10.519,11.17-17.145,4.132-20.551,1.985S119.8,269.711,122.964,264.806Z" fill="#93405c"/>
              <path id="Trazado_65595" data-name="Trazado 65595" d="M151.691,244.725c10.292,4.839,14.826-.06,14.826-.06l-1.358-10.915-4.072,1.821S161.664,242.993,151.691,244.725Z" fill="#56114a"/>
              <path id="Trazado_65596" data-name="Trazado 65596" d="M124.886,261.747c1.245-1.894,3.087-4.57,5.507-7.748" fill="none" stroke="#56114a" stroke-linecap="round" stroke-linejoin="round" stroke-width="0.698"/>
              <g id="Grupo_31251" data-name="Grupo 31251">
                <path id="Trazado_65597" data-name="Trazado 65597" d="M182.769,242.107a48.35,48.35,0,0,1,11.043-33.285.9.9,0,0,0-.784-1.471L171.491,209.6a.9.9,0,0,0-.55.266,47.821,47.821,0,0,0-12.394,34.666.908.908,0,0,0,1,.857l22.425-2.346A.9.9,0,0,0,182.769,242.107Z" fill="#ffaa3f"/>
                <g id="Grupo_31250" data-name="Grupo 31250">
                  <path id="Trazado_65598" data-name="Trazado 65598" d="M172.149,211.654c-.317.337-.774.843-1.322,1.518a43.153,43.153,0,0,0-4.155,6.088A46.542,46.542,0,0,0,160.6,242.3c0,.281.007.569.014.858l20.008-2.1c-.014-.436-.021-.872-.021-1.294a51.475,51.475,0,0,1,1.012-10.208,50.656,50.656,0,0,1,5.6-14.925,48.091,48.091,0,0,1,3.178-4.892Zm6.828,5.3a3.578,3.578,0,0,1-2.96,1.985c-1.138,0-1.658-.889-1.161-1.985a3.574,3.574,0,0,1,2.959-1.986C178.953,214.964,179.473,215.853,178.977,216.95Z" fill="#346e94"/>
                  <path id="Trazado_65599" data-name="Trazado 65599" d="M180.606,239.774c0,.422.007.858.021,1.294l-20.008,2.1c-.007-.289-.014-.577-.014-.858a46.746,46.746,0,0,1,1.224-10.672c2.762-2.193,11.909-9.392,13.1-9.42.745,0,5.364,5.7,6.685,7.353A51.475,51.475,0,0,0,180.606,239.774Z" fill="#185177"/>
                </g>
              </g>
            </g>
          </g>
          <path id="Trazado_65600" data-name="Trazado 65600" d="M147.991,235.169s2.722-5.444,6.289-7.979,9.95-4.036,10.794-2.534-4.88,5.35-4.88,5.35.411,12.3-4.788,13.8C146.011,246.513,145.363,239.956,147.991,235.169Z" fill="#93405c"/>
          <path id="Trazado_65601" data-name="Trazado 65601" d="M157.969,242.512c-5.287,3.832-9.733,2.071-10.735-.024" fill="none" stroke="#56114a" stroke-linecap="round" stroke-linejoin="round" stroke-width="0.698"/>
        </g>
        <path id="Trazado_65602" data-name="Trazado 65602" d="M104.73,219.11c-8.9-1.779-23.531,9.51-33.362,33.846s-9.348,44.322-6.286,52.22,49.8,13.377,50.124-12.249,2.754-40.833,2.9-53.187C118.268,226.2,111.983,220.561,104.73,219.11Z" fill="#ffaa3f"/>
        <path id="Trazado_65603" data-name="Trazado 65603" d="M116.713,261.484a37.128,37.128,0,0,0-.853-11.3c-.453-1.941-.832-3.7-1.1-5.165-2.091-11.349-14.209-29.051-23.067-13.784-19.534,28.186-12.89,64.6-12.89,64.6l36.52-8.766C115.584,277,116.155,268.659,116.713,261.484Z" fill="#d98609" opacity="0.5" style="mix-blend-mode: multiply;isolation: isolate"/>
        <g id="Grupo_31263" data-name="Grupo 31263">
          <g id="Grupo_31258" data-name="Grupo 31258">
            <g id="Grupo_31256" data-name="Grupo 31256">
              <g id="Grupo_31255" data-name="Grupo 31255">
                <path id="Trazado_65604" data-name="Trazado 65604" d="M186.363,391.667a7.207,7.207,0,0,1,1.488,2.484c-17.089,8.766-43.822,4.241-43.822,4.241a26.4,26.4,0,0,1-.813-2.7,46.2,46.2,0,0,1-1.057-12.325l24.174-4.79s3.781,2.531,12.169,7.077A25.935,25.935,0,0,1,186.363,391.667Z" fill="#0c1a3c"/>
                <path id="Trazado_65605" data-name="Trazado 65605" d="M186.363,391.667a7.207,7.207,0,0,1,1.488,2.484c-17.089,8.766-43.822,4.241-43.822,4.241a26.4,26.4,0,0,1-.813-2.7C149.863,396.623,173.2,399.178,186.363,391.667Z" fill="#185177"/>
              </g>
            </g>
            <g id="Grupo_31257" data-name="Grupo 31257">
              <path id="Trazado_65606" data-name="Trazado 65606" d="M171.706,379.863l-30.251,3.606-8.33-49.576C116.927,327.672,82.2,311,82.2,311l27.628-21.934c23.108,6.363,36.9,13.843,36.9,13.843,5.631,2.734,9.371,8.119,12.162,15.459C166.286,337.8,171.706,379.863,171.706,379.863Z" fill="#185177"/>
              <path id="Trazado_65607" data-name="Trazado 65607" d="M170.217,369.478a99.545,99.545,0,0,1-30.765,2.071l1.472,8.76,30.063-5.644C170.774,373.185,170.517,371.438,170.217,369.478Z" fill="#185177" opacity="0.3" style="mix-blend-mode: multiply;isolation: isolate"/>
              <path id="Trazado_65608" data-name="Trazado 65608" d="M155.091,315.226a15.347,15.347,0,0,0-8.279-12.28l-.084-.041s-10.715-5.809-29.072-11.542L95.879,315.312,124.886,329.5l.347,1.177c2.9,1.23,5.588,2.331,7.891,3.216l2.9,17.249C146,344.34,156.815,331.842,155.091,315.226Z" fill="#185177" opacity="0.3" style="mix-blend-mode: multiply;isolation: isolate"/>
              <path id="Trazado_65609" data-name="Trazado 65609" d="M152.014,370.127l-8.316-53.3-47.819-19.09" fill="none" stroke="#346e94" stroke-linecap="round" stroke-linejoin="round" stroke-width="0.698"/>
              <path id="Trazado_65610" data-name="Trazado 65610" d="M134.716,332.518a70.029,70.029,0,0,1,10.43-11.04" fill="#fff" stroke="#231f20" stroke-linecap="round" stroke-linejoin="round" stroke-width="0.703"/>
              <path id="Trazado_65611" data-name="Trazado 65611" d="M142.542,374.927c5.541-.282,17.146-1.126,25.41-3.459a2.8,2.8,0,0,1,3.532,2.224l.919,5.5a2.792,2.792,0,0,1-1.9,3.121c-4.817,1.541-16.462,4.667-27.337,2.976a2.819,2.819,0,0,1-2.347-2.268l-.883-4.8A2.792,2.792,0,0,1,142.542,374.927Z" fill="#346e94"/>
              <path id="Trazado_65612" data-name="Trazado 65612" d="M154.52,385.564a30.016,30.016,0,0,1-1.587-11.455c-4.124.445-7.881.69-10.391.818a2.792,2.792,0,0,0-2.6,3.3l.883,4.8a2.819,2.819,0,0,0,2.347,2.268A47.985,47.985,0,0,0,154.52,385.564Z" fill="#185177" opacity="0.3" style="mix-blend-mode: multiply;isolation: isolate"/>
            </g>
          </g>
          <g id="Grupo_31262" data-name="Grupo 31262">
            <g id="Grupo_31260" data-name="Grupo 31260">
              <g id="Grupo_31259" data-name="Grupo 31259">
                <path id="Trazado_65613" data-name="Trazado 65613" d="M97.306,394.359a7.211,7.211,0,0,1-1.3,2.587c-16.556-9.736-27.052-34.735-27.052-34.735A26.242,26.242,0,0,1,70.8,360.08a46.181,46.181,0,0,1,9.842-7.494l16.992,17.85s-.113,4.548.541,14.067A25.925,25.925,0,0,1,97.306,394.359Z" fill="#0c1a3c"/>
                <path id="Trazado_65614" data-name="Trazado 65614" d="M97.306,394.359a7.211,7.211,0,0,1-1.3,2.587c-16.556-9.736-27.052-34.735-27.052-34.735A26.242,26.242,0,0,1,70.8,360.08C73.573,366.19,83.914,387.266,97.306,394.359Z" fill="#185177"/>
              </g>
            </g>
            <g id="Grupo_31261" data-name="Grupo 31261">
              <path id="Trazado_65615" data-name="Trazado 65615" d="M69.079,311.287c7.85,7.65,29.269,11.633,38.31,13.7L80.055,351.674,99.3,375.288s33.481-27.658,45.935-44.317,9.219-31.216-41.568-43.994c0,0-19.109-2.895-34.866,14.6A7.027,7.027,0,0,0,69.079,311.287Z" fill="#346e94"/>
              <path id="Trazado_65616" data-name="Trazado 65616" d="M79.625,298.115s2.646,7.561,39.313,17.767l7.372,2.079L94.745,348.013" fill="none" stroke="#185177" stroke-linecap="round" stroke-linejoin="round" stroke-width="0.698"/>
              <path id="Trazado_65617" data-name="Trazado 65617" d="M109.063,324.7s10.137-2.313,17.247-6.74" fill="none" stroke="#185177" stroke-linecap="round" stroke-linejoin="round" stroke-width="0.698"/>
              <path id="Trazado_65618" data-name="Trazado 65618" d="M87.8,348.141c3.159,4.477,10.353,14.24,16.93,20.054a2.521,2.521,0,0,1,.012,3.771l-4.55,4.078a2.525,2.525,0,0,1-3.3.066c-3.8-3.155-12.984-11.5-17.418-21.838a2.543,2.543,0,0,1,.6-2.871l3.942-3.652A2.525,2.525,0,0,1,87.8,348.141Z" fill="#185177"/>
            </g>
          </g>
        </g>
        <g id="Grupo_31268" data-name="Grupo 31268">
          <path id="Trazado_65619" data-name="Trazado 65619" d="M103.441,207.667l-2.418,13.378s4.029,5,12.41,4.673l1.29-11.926Z" fill="#93405c"/>
          <path id="Trazado_65620" data-name="Trazado 65620" d="M102.9,210.656c1.475,3.218,4.875,8.789,11.093,9.886l.73-6.75-11.282-6.125Z" fill="#56114a"/>
          <g id="Grupo_31267" data-name="Grupo 31267">
            <g id="Grupo_31264" data-name="Grupo 31264">
              <path id="Trazado_65621" data-name="Trazado 65621" d="M121.9,216.758c-6.047,2.9-18.672-3.038-22.8-13.463-.1-.239-.19-.478-.274-.71-3.754-10.039-1.582-17.09,9.174-19.7a12.224,12.224,0,0,1,11.818,3.423,17.481,17.481,0,0,1,4.253,7.431C126.063,200.478,127.438,214.1,121.9,216.758Z" fill="#93405c"/>
              <path id="Trazado_65622" data-name="Trazado 65622" d="M109.159,188.946a11.458,11.458,0,0,1-3.223,9.588,3.75,3.75,0,0,0-.592,4.329l.49.924-1.35.83-5.652-2.032c-3.754-10.039-1.582-17.09,9.174-19.7a12.224,12.224,0,0,1,11.818,3.423A16.8,16.8,0,0,0,109.159,188.946Z" fill="#56114a"/>
            </g>
            <g id="Grupo_31266" data-name="Grupo 31266">
              <path id="Trazado_65623" data-name="Trazado 65623" d="M102.306,200.986s-6.123-2.18-4.878,2.49,6.123,6.02,8.2,4.359S102.306,200.986,102.306,200.986Z" fill="#93405c"/>
              <g id="Grupo_31265" data-name="Grupo 31265">
                <path id="Trazado_65624" data-name="Trazado 65624" d="M99.122,202.237s3.691.176,5.185,2.929" fill="none" stroke="#56114a" stroke-linecap="round" stroke-linejoin="round" stroke-width="0.698"/>
                <path id="Trazado_65625" data-name="Trazado 65625" d="M101.144,205.869a4.2,4.2,0,0,1,.851-2.846" fill="none" stroke="#56114a" stroke-linecap="round" stroke-linejoin="round" stroke-width="0.698"/>
              </g>
            </g>
          </g>
        </g>
        <g id="Grupo_31270" data-name="Grupo 31270">
          <path id="Trazado_65626" data-name="Trazado 65626" d="M98.1,223.008c-9.323,2.745-10.6,22.515-9.441,33.99,0,0,8.465,5.644,26.1-5.565C114.758,251.433,112.156,218.87,98.1,223.008Z" fill="#ffaa3f"/>
          <path id="Trazado_65627" data-name="Trazado 65627" d="M95.775,258.4a6.316,6.316,0,0,1-5.99-6.123c-.394-11.5,1.616-26.872,9.755-29.269a8.662,8.662,0,0,1,1.654-.307,8.04,8.04,0,0,0-3.092.307c-9.323,2.745-10.6,22.515-9.441,33.99,0,0,2.376,1.583,7.23,1.406Z" fill="#ffc882"/>
          <path id="Trazado_65628" data-name="Trazado 65628" d="M114.057,251.55l.7-.117s-.777-12.462-4.74-20.159" fill="none" stroke="#d98609" stroke-linecap="round" stroke-linejoin="round" stroke-width="0.698"/>
          <g id="Grupo_31269" data-name="Grupo 31269">
            <path id="Trazado_65629" data-name="Trazado 65629" d="M90.7,257.154s10.626-8.173,23.353-5.6c0,0,3.5,14.128,5.138,19.149s2.919,14.946-6.306,18.1S95.258,278.522,90.7,257.154Z" fill="#93405c"/>
            <path id="Trazado_65630" data-name="Trazado 65630" d="M119.195,270.7c-.671-2.06-4.21-15.629-5.138-19.149a30.291,30.291,0,0,0-23.353,5.6" fill="none" stroke="#56114a" stroke-linecap="round" stroke-linejoin="round" stroke-width="0.698"/>
            <path id="Trazado_65631" data-name="Trazado 65631" d="M110.087,270.349A148.727,148.727,0,0,1,149.2,263.81s4.087-1.168,12.61,2.218,11.91,4.9,11.91,6.422-3.619,1.4-6.889.584c0,0,1.869,2.686.117,4.32s-4.2.467-4.2.467,1.284,3.153-.818,3.97a6.135,6.135,0,0,1-3.853.234s1.308,4.047-3.97,3.736c-3.97-.233-7.59-3.386-7.59-3.386s-13.427,8.29-27.789,9.225-17.048-7.357-18.216-11.21S104.482,271.983,110.087,270.349Z" fill="#93405c"/>
            <path id="Trazado_65632" data-name="Trazado 65632" d="M155.877,285.669c-.585-2.971-4.608-5.206-7.218-6.364a4.675,4.675,0,0,0-4.14.176c-5.162,2.808-20.041,10.294-33.954,11.465h0a24.978,24.978,0,0,0,8.162.653c14.363-.934,27.79-9.224,27.79-9.224s3.62,3.153,7.59,3.386A7.1,7.1,0,0,0,155.877,285.669Z" fill="#56114a"/>
            <path id="Trazado_65633" data-name="Trazado 65633" d="M110.087,270.349s17.551-6.983,41.927-7.009" fill="none" stroke="#56114a" stroke-linecap="round" stroke-linejoin="round" stroke-width="0.698"/>
          </g>
        </g>
      </g>
      <g id="Grupo_31272" data-name="Grupo 31272">
        <path id="Trazado_65634" data-name="Trazado 65634" d="M136.2,399.56h2l30.381-94.551h-4.346Z" fill="#ffaa3f"/>
        <path id="Trazado_65635" data-name="Trazado 65635" d="M164.235,305.009,163,309.177a6.64,6.64,0,0,1,4.353-.346l1.228-3.822Z" fill="#d98609" opacity="0.5" style="mix-blend-mode: multiply;isolation: isolate"/>
        <path id="Trazado_65636" data-name="Trazado 65636" d="M133.523,399.56H136.2l28.033-94.551h-5.5Z" fill="#56114a"/>
      </g>
      <g id="Grupo_31279" data-name="Grupo 31279">
        <g id="Grupo_31273" data-name="Grupo 31273">
          <path id="Rectángulo_6355" data-name="Rectángulo 6355" d="M1.048,0H48.369a0,0,0,0,1,0,0V4a0,0,0,0,1,0,0H0A0,0,0,0,1,0,4V1.048A1.048,1.048,0,0,1,1.048,0Z" transform="translate(131.693 287.167)" fill="#185177"/>
          <path id="Rectángulo_6356" data-name="Rectángulo 6356" d="M0,0H48.369a0,0,0,0,1,0,0V1.56A2.441,2.441,0,0,1,45.928,4H0A0,0,0,0,1,0,4V0A0,0,0,0,1,0,0Z" transform="translate(161.664 287.167)" fill="#346e94"/>
          <rect id="Rectángulo_6357" data-name="Rectángulo 6357" width="5.75" height="1.063" transform="translate(200.688 288.5)" fill="#56114a"/>
          <rect id="Rectángulo_6358" data-name="Rectángulo 6358" width="4.013" height="1.063" rx="0.531" transform="translate(194.799 288.5)" fill="#185177"/>
          <rect id="Rectángulo_6359" data-name="Rectángulo 6359" width="4.013" height="1.063" rx="0.531" transform="translate(189.941 288.5)" fill="#185177"/>
          <rect id="Rectángulo_6360" data-name="Rectángulo 6360" width="4.013" height="1.063" rx="0.531" transform="translate(185.083 288.5)" fill="#185177"/>
        </g>
        <g id="Grupo_31278" data-name="Grupo 31278">
          <path id="Trazado_65637" data-name="Trazado 65637" d="M169.115,287.167h40.918l15.7-36.117H184.813Z" fill="#ffaa3f"/>
          <g id="Grupo_31277" data-name="Grupo 31277">
            <path id="Trazado_65638" data-name="Trazado 65638" d="M186.025,252.786H223.01l-14.189,32.646H171.836Z" fill="#f3e8e2"/>
            <g id="Grupo_31276" data-name="Grupo 31276">
              <g id="Grupo_31274" data-name="Grupo 31274">
                <path id="Trazado_65639" data-name="Trazado 65639" d="M177.634,283.433h-2.511l6.093-14.018h2.511Z" fill="#cb1c3e"/>
                <path id="Trazado_65640" data-name="Trazado 65640" d="M182.573,283.433h-2.512l3.046-7.009h2.512Z" fill="#cb1c3e"/>
                <path id="Trazado_65641" data-name="Trazado 65641" d="M187.513,283.433H185l6.093-14.018h2.512Z" fill="#cb1c3e"/>
                <path id="Trazado_65642" data-name="Trazado 65642" d="M192.452,283.433h-2.512l6.865-15.964h2.512Z" fill="#cb1c3e"/>
                <path id="Trazado_65643" data-name="Trazado 65643" d="M197.392,283.433h-2.512l5.482-12.558h2.512Z" fill="#cb1c3e"/>
                <path id="Trazado_65644" data-name="Trazado 65644" d="M202.332,283.433H199.82l4.3-10h2.511Z" fill="#cb1c3e"/>
                <path id="Trazado_65645" data-name="Trazado 65645" d="M207.271,283.433H204.76l6.093-14.018h2.511Z" fill="#cb1c3e"/>
              </g>
              <g id="Grupo_31275" data-name="Grupo 31275">
                <path id="Trazado_65646" data-name="Trazado 65646" d="M183.317,267.469l7.688-5.359,2.508,4.437,8.742-6.094,2.254,3.987,12.073-8.415" fill="none" stroke="#185177" stroke-linecap="round" stroke-linejoin="round" stroke-width="0.698"/>
                <path id="Trazado_65647" data-name="Trazado 65647" d="M213.519,256.025h3.064l-1.332,3.064" fill="none" stroke="#185177" stroke-linecap="round" stroke-linejoin="round" stroke-width="0.698"/>
              </g>
            </g>
          </g>
          <path id="Trazado_65648" data-name="Trazado 65648" d="M225.731,251.05l-15.7,36.117h1.178a1.074,1.074,0,0,0,.985-.646l14.556-33.488a1.074,1.074,0,0,0-.226-1.188Z" fill="#185177"/>
        </g>
      </g>
    </g>
  </g>
</svg>
