<svg id="Componente_2_1" data-name="Componente 2 – 1" xmlns="http://www.w3.org/2000/svg" width="810.668" height="480.078" viewBox="0 0 810.668 480.078">
  <path id="Trazado_62707" data-name="Trazado 62707" d="M1173.736,716.3v339a5.953,5.953,0,0,1-5.953,5.954H906.539a5.957,5.957,0,0,1-5.957-5.954v-339a5.954,5.954,0,0,1,5.957-5.953h261.244A5.951,5.951,0,0,1,1173.736,716.3Z" transform="translate(-830.222 -581.481)" fill="#b1709b"/>
  <path id="Trazado_62708" data-name="Trazado 62708" d="M928.755,710.346v350.9H906.539a5.957,5.957,0,0,1-5.957-5.954v-339a5.954,5.954,0,0,1,5.957-5.953Z" transform="translate(-830.222 -581.481)" fill="#ec407a"/>
  <path id="Trazado_62709" data-name="Trazado 62709" d="M1007.885,688.95s-6.994-.149-7.231,6.682h14.7s1.541-5.1,6.046-3.341V688.95Z" transform="translate(-883.038 -566.768)" fill="#7999e2"/>
  <path id="Trazado_62710" data-name="Trazado 62710" d="M1023.806,688.951s12.447,1.186,12.921,11.854,0,32.007,0,32.007l9.484-3.556,7.587,3.556V700.331s-.711-9.721-10.906-11.38Z" transform="translate(-914.959 -566.769)" fill="#aec3ff"/>
  <rect id="Rectángulo_6089" data-name="Rectángulo 6089" width="810.668" height="2.31" rx="1.155" transform="translate(0 477.768)" fill="#2e3552"/>
  <g id="Grupo_29807" data-name="Grupo 29807" transform="translate(-191.275 -1216.107)">
    <path id="Trazado_62794" data-name="Trazado 62794" d="M1185.249,2037.155c.4-9.591-1.015-19.062-5.305-27.99-3.692-7.682-12.827-12.042-21.157-12.052-26.452-.034-29.816,34.916-46.655,48.4-5.145,4.119-10.9,7.474-15.764,11.917-17.978,16.4-9.88,46.769,6.628,61.149,11.455,9.979,29.458,15.65,43.577,7.848,7.37-4.073,12.964-10.842,16.95-18.259,5.657-10.526,9.3-22.671,13.327-33.89C1181.132,2062.334,1184.72,2049.9,1185.249,2037.155Z" transform="translate(-662.903 -516.908)" fill="#ff862d"/>
    <g id="Grupo_29785" data-name="Grupo 29785" transform="translate(236.343 1316.107)">
      <g id="Grupo_29768" data-name="Grupo 29768" transform="translate(44.705 59.701)">
        <path id="Trazado_62795" data-name="Trazado 62795" d="M507.164,1608.889c-2.355.412-4.139-1.413-4.559-3.808-.779-4.451,3.542-6.236,6.006-4.218C511.265,1603.041,510.855,1608.244,507.164,1608.889Zm-1.092-15.034q.095,1.231-1.34,1.482c-1.058.185-1.577.221-1.941-.748q-3.415-9-3.866-11.574c-2.76-16.4-3.4-17.893-2.787-18,.914-.16,2.354-.092,3.3-.258s2.311-.724,3.225-.884c.494-.086.563,1.066,1.211,4.506C506.237,1580.911,505.871,1587.316,506.073,1593.855Z" transform="translate(-495.926 -1563.867)" fill="#ff862d"/>
      </g>
      <g id="Grupo_29769" data-name="Grupo 29769" transform="translate(315.973 139.348)">
        <path id="Trazado_62796" data-name="Trazado 62796" d="M1641.2,1908.289a1.5,1.5,0,1,1-1.9-.935A1.5,1.5,0,0,1,1641.2,1908.289Z" transform="translate(-1634.286 -1904.172)" fill="#ff862d"/>
        <path id="Trazado_62797" data-name="Trazado 62797" d="M1671.959,1985.672a1.5,1.5,0,1,1-1.9-.935A1.5,1.5,0,0,1,1671.959,1985.672Z" transform="translate(-1657.631 -1962.909)" fill="#ff862d"/>
        <path id="Trazado_62798" data-name="Trazado 62798" d="M1720.432,1951.648a1.5,1.5,0,1,1-1.9-.935A1.5,1.5,0,0,1,1720.432,1951.648Z" transform="translate(-1694.423 -1937.083)" fill="#ff862d"/>
        <path id="Trazado_62799" data-name="Trazado 62799" d="M1678.465,1895.62a1.8,1.8,0,1,1-2.283-1.12A1.8,1.8,0,0,1,1678.465,1895.62Z" transform="translate(-1662.128 -1894.403)" fill="#ff862d"/>
        <path id="Trazado_62800" data-name="Trazado 62800" d="M1661.912,1906.793a1.028,1.028,0,1,1-1.207-.809A1.028,1.028,0,0,1,1661.912,1906.793Z" transform="translate(-1650.675 -1903.178)" fill="#ff862d"/>
        <path id="Trazado_62801" data-name="Trazado 62801" d="M1714.134,1931.765a1.028,1.028,0,1,1-1.3-.64A1.028,1.028,0,0,1,1714.134,1931.765Z" transform="translate(-1690.341 -1922.234)" fill="#ff862d"/>
        <path id="Trazado_62802" data-name="Trazado 62802" d="M1646.006,1975.321a1.028,1.028,0,1,1-1.3-.641A1.028,1.028,0,0,1,1646.006,1975.321Z" transform="translate(-1638.629 -1955.295)" fill="#ff862d"/>
        <path id="Trazado_62803" data-name="Trazado 62803" d="M1626.2,1939.85a2.312,2.312,0,1,1-2.936-1.44A2.312,2.312,0,0,1,1626.2,1939.85Z" transform="translate(-1621.694 -1927.711)" fill="#ff862d"/>
        <path id="Trazado_62804" data-name="Trazado 62804" d="M1699.925,1977.011a2.313,2.313,0,1,1-2.936-1.441A2.312,2.312,0,0,1,1699.925,1977.011Z" transform="translate(-1677.658 -1955.917)" fill="#ff862d"/>
        <path id="Trazado_62805" data-name="Trazado 62805" d="M1710.908,1904.712a2.313,2.313,0,1,1-2.936-1.441A2.313,2.313,0,0,1,1710.908,1904.712Z" transform="translate(-1685.994 -1901.04)" fill="#ff862d"/>
        <path id="Trazado_62806" data-name="Trazado 62806" d="M1651.3,1904.358a4.851,4.851,0,0,1-.759,1.175,8.239,8.239,0,0,1-1.5,1.36c-.12.083-.47.334-1.047.718a7.284,7.284,0,0,0-4.172-1.894q-.041-.179-.078-.357-.086-.419-.149-.837a4.343,4.343,0,0,1,.286-2.476l-1-.048a2.179,2.179,0,0,1,.13.421,3.529,3.529,0,0,1,.063.418,4.585,4.585,0,0,1,0,.83,5.815,5.815,0,0,1-.139.823c-.069.273-.144.546-.228.819q-.059.192-.123.382a7.3,7.3,0,0,0-2.351.561,7.576,7.576,0,0,1-.742-2.391l-.7.24a7.74,7.74,0,0,1,.891,2.413,7.191,7.191,0,0,0-1.682,1.224,12.194,12.194,0,0,1-3.128-3.166l-.721.692a12.452,12.452,0,0,1,3.1,3.335,7.275,7.275,0,0,0-1.423,3.9,10.44,10.44,0,0,1-4.011.019,3.543,3.543,0,0,1-.566-.188l-.043,1.455a3.553,3.553,0,0,1,.577-.154,10.662,10.662,0,0,1,4.1.274,7.28,7.28,0,0,0,1.739,3.815,9.132,9.132,0,0,1-1.745,2.031,3.614,3.614,0,0,1-.805.5l.5.547a2.713,2.713,0,0,1,.265-.4,8.187,8.187,0,0,1,2.533-1.944,7.289,7.289,0,0,0,3.074,1.544,5.689,5.689,0,0,1-.115,3.12l1,.056a3.666,3.666,0,0,1-.1-1.66c.048-.352.223-1.041.306-1.35a7.273,7.273,0,0,0,4.055-.892,7.848,7.848,0,0,1,1.212,1.653,4.734,4.734,0,0,1,.595,1.934l1.263-.724a4.73,4.73,0,0,1-1.367-1.491,7.937,7.937,0,0,1-.831-1.941,7.264,7.264,0,0,0,2.487-3.476,14.282,14.282,0,0,1,3.283.284l.148-.988a13.954,13.954,0,0,1-3.117-.66,7.214,7.214,0,0,0-.3-3.2,5.478,5.478,0,0,1,1.87-.277l-.183-.719a5.541,5.541,0,0,1-1.808.656,7.22,7.22,0,0,0-1.129-1.959c.427-.514.7-.822.812-.95a6.806,6.806,0,0,1,2.76-1.979Z" transform="translate(-1628.912 -1900.169)" fill="#ff862d"/>
      </g>
      <g id="Grupo_29770" data-name="Grupo 29770" transform="translate(306.721 97.812)">
        <path id="Trazado_62807" data-name="Trazado 62807" d="M1625.812,1724.156a2.126,2.126,0,1,1-2.126-2.126A2.126,2.126,0,0,1,1625.812,1724.156Z" transform="translate(-1612.34 -1722.03)" fill="#e9faff"/>
        <path id="Trazado_62808" data-name="Trazado 62808" d="M1631.6,1842.036a2.126,2.126,0,1,1-2.127-2.126A2.127,2.127,0,0,1,1631.6,1842.036Z" transform="translate(-1616.737 -1811.505)" fill="#e9faff"/>
        <path id="Trazado_62809" data-name="Trazado 62809" d="M1712.207,1818.612a2.126,2.126,0,1,1-2.126-2.127A2.126,2.126,0,0,1,1712.207,1818.612Z" transform="translate(-1677.917 -1793.725)" fill="#e9faff"/>
        <path id="Trazado_62810" data-name="Trazado 62810" d="M1681.089,1724.6a2.549,2.549,0,1,1-2.549-2.549A2.549,2.549,0,0,1,1681.089,1724.6Z" transform="translate(-1653.656 -1722.043)" fill="#e9faff"/>
        <path id="Trazado_62811" data-name="Trazado 62811" d="M1655.064,1731.067a1.457,1.457,0,1,1-1.248-1.638A1.457,1.457,0,0,1,1655.064,1731.067Z" transform="translate(-1635.57 -1727.636)" fill="#e9faff"/>
        <path id="Trazado_62812" data-name="Trazado 62812" d="M1713.664,1788.489a1.457,1.457,0,1,1-1.457-1.457A1.457,1.457,0,0,1,1713.664,1788.489Z" transform="translate(-1680.04 -1771.369)" fill="#e9faff"/>
        <path id="Trazado_62813" data-name="Trazado 62813" d="M1602.333,1815.692a1.457,1.457,0,1,1-1.457-1.457A1.457,1.457,0,0,1,1602.333,1815.692Z" transform="translate(-1595.536 -1792.017)" fill="#e9faff"/>
        <path id="Trazado_62814" data-name="Trazado 62814" d="M1589.855,1760.588a3.277,3.277,0,1,1-3.278-3.277A3.278,3.278,0,0,1,1589.855,1760.588Z" transform="translate(-1583.3 -1748.81)" fill="#e9faff"/>
        <circle id="Elipse_1390" data-name="Elipse 1390" cx="3.277" cy="3.277" r="3.277" transform="translate(19.725 28.652)" fill="#e9faff"/>
        <path id="Trazado_62815" data-name="Trazado 62815" d="M1719.573,1752.276A3.278,3.278,0,1,1,1716.3,1749,3.278,3.278,0,0,1,1719.573,1752.276Z" transform="translate(-1681.761 -1742.5)" fill="#e9faff"/>
        <path id="Trazado_62816" data-name="Trazado 62816" d="M1626.672,1737.869a6.845,6.845,0,0,1-1.556,1.229,11.682,11.682,0,0,1-2.636,1.136c-.2.056-.784.233-1.734.483a10.323,10.323,0,0,0-4.727-4.452q.027-.258.06-.514.076-.6.184-1.191a6.155,6.155,0,0,1,1.519-3.19l-1.317-.521a3.115,3.115,0,0,1-.019.625,5.153,5.153,0,0,1-.107.589,6.463,6.463,0,0,1-.386,1.111,8.212,8.212,0,0,1-.564,1.041q-.326.5-.681.994-.166.23-.34.457a10.338,10.338,0,0,0-3.41-.325,10.743,10.743,0,0,1,.1-3.547h-1.052a10.964,10.964,0,0,1,.09,3.645,10.211,10.211,0,0,0-2.817.871c-.993-1.56-2.46-3.806-2.746-5.68l-1.284.6c1.259,1.432,2.042,4.026,2.626,5.892a10.311,10.311,0,0,0-3.694,4.575,14.8,14.8,0,0,1-5.388-1.813,4.968,4.968,0,0,1-.673-.512l-.725,1.932a5.014,5.014,0,0,1,.844.057,15.1,15.1,0,0,1,5.369,2.245,10.322,10.322,0,0,0,.584,5.914,12.976,12.976,0,0,1-3.27,1.925,5.141,5.141,0,0,1-1.312.307l.422.964a3.883,3.883,0,0,1,.54-.419,11.6,11.6,0,0,1,4.287-1.447,10.335,10.335,0,0,0,3.416,3.479c-.182,1.02-.514,3.094-1.584,4.132l1.312.532a5.205,5.205,0,0,1,.629-2.272c.226-.451.777-1.294,1.029-1.671a10.314,10.314,0,0,0,5.847.662,11.152,11.152,0,0,1,.868,2.772,6.711,6.711,0,0,1-.088,2.866l2.026-.392a6.715,6.715,0,0,1-1.151-2.626,11.251,11.251,0,0,1-.224-2.984,10.3,10.3,0,0,0,4.928-3.523,20.245,20.245,0,0,1,4.272,1.886l.652-1.257a19.8,19.8,0,0,1-3.878-2.313,10.232,10.232,0,0,0,1.058-4.425,7.762,7.762,0,0,1,2.634.486l.085-1.049a7.856,7.856,0,0,1-2.725.052,10.241,10.241,0,0,0-.616-3.145c.808-.494,1.316-.781,1.524-.9a9.645,9.645,0,0,1,4.609-1.39Z" transform="translate(-1592.482 -1728.557)" fill="#e9faff"/>
      </g>
      <g id="Grupo_29771" data-name="Grupo 29771" transform="translate(269.246 93.317)">
        <path id="Trazado_62817" data-name="Trazado 62817" d="M1461.143,1705.045a1.669,1.669,0,1,1-1.669-1.669A1.669,1.669,0,0,1,1461.143,1705.045Z" transform="translate(-1450.569 -1703.376)" fill="#5858c6"/>
        <path id="Trazado_62818" data-name="Trazado 62818" d="M1465.69,1797.568a1.669,1.669,0,1,1-1.669-1.669A1.669,1.669,0,0,1,1465.69,1797.568Z" transform="translate(-1454.02 -1773.604)" fill="#5858c6"/>
        <path id="Trazado_62819" data-name="Trazado 62819" d="M1528.953,1779.182a1.669,1.669,0,1,1-1.669-1.669A1.669,1.669,0,0,1,1528.953,1779.182Z" transform="translate(-1502.039 -1759.649)" fill="#5858c6"/>
        <path id="Trazado_62820" data-name="Trazado 62820" d="M1504.53,1705.39a2,2,0,1,1-2-2A2,2,0,0,1,1504.53,1705.39Z" transform="translate(-1482.997 -1703.386)" fill="#5858c6"/>
        <path id="Trazado_62821" data-name="Trazado 62821" d="M1484.1,1710.469a1.143,1.143,0,1,1-.98-1.286A1.143,1.143,0,0,1,1484.1,1710.469Z" transform="translate(-1468.802 -1707.776)" fill="#5858c6"/>
        <path id="Trazado_62822" data-name="Trazado 62822" d="M1530.1,1755.539a1.143,1.143,0,1,1-1.143-1.143A1.143,1.143,0,0,1,1530.1,1755.539Z" transform="translate(-1503.705 -1742.102)" fill="#5858c6"/>
        <path id="Trazado_62823" data-name="Trazado 62823" d="M1442.715,1776.89a1.143,1.143,0,1,1-1.143-1.143A1.143,1.143,0,0,1,1442.715,1776.89Z" transform="translate(-1437.379 -1758.308)" fill="#5858c6"/>
        <circle id="Elipse_1391" data-name="Elipse 1391" cx="2.572" cy="2.572" r="2.572" transform="translate(0 6.672)" fill="#5858c6"/>
        <circle id="Elipse_1392" data-name="Elipse 1392" cx="2.572" cy="2.572" r="2.572" transform="translate(15.482 22.488)" fill="#5858c6"/>
        <path id="Trazado_62824" data-name="Trazado 62824" d="M1534.735,1727.115a2.573,2.573,0,1,1-2.572-2.573A2.573,2.573,0,0,1,1534.735,1727.115Z" transform="translate(-1505.057 -1719.443)" fill="#5858c6"/>
        <path id="Trazado_62825" data-name="Trazado 62825" d="M1461.819,1715.808a5.378,5.378,0,0,1-1.222.964,9.167,9.167,0,0,1-2.069.892c-.157.044-.615.183-1.361.379a8.1,8.1,0,0,0-3.71-3.494c.014-.135.029-.27.047-.4q.06-.472.144-.935a4.832,4.832,0,0,1,1.192-2.5l-1.033-.409a2.433,2.433,0,0,1-.015.49,4.022,4.022,0,0,1-.084.463,5.085,5.085,0,0,1-.3.872,6.461,6.461,0,0,1-.443.817q-.256.395-.535.781-.13.18-.267.358a8.12,8.12,0,0,0-2.677-.255,8.444,8.444,0,0,1,.079-2.784h-.826a8.614,8.614,0,0,1,.071,2.861,8.01,8.01,0,0,0-2.211.683,13.567,13.567,0,0,1-2.155-4.458l-1.007.47a13.861,13.861,0,0,1,2.061,4.625,8.093,8.093,0,0,0-2.9,3.591,11.614,11.614,0,0,1-4.229-1.423,3.941,3.941,0,0,1-.529-.4l-.569,1.517a3.944,3.944,0,0,1,.663.045,11.851,11.851,0,0,1,4.214,1.762,8.1,8.1,0,0,0,.458,4.641,10.153,10.153,0,0,1-2.567,1.511,4.029,4.029,0,0,1-1.03.241l.331.757a3.056,3.056,0,0,1,.424-.329,9.109,9.109,0,0,1,3.365-1.135,8.109,8.109,0,0,0,2.68,2.73,6.326,6.326,0,0,1-1.243,3.244l1.03.418a4.088,4.088,0,0,1,.494-1.783c.177-.354.61-1.016.808-1.312a8.093,8.093,0,0,0,4.589.519,8.769,8.769,0,0,1,.682,2.176,5.268,5.268,0,0,1-.07,2.249l1.59-.307a5.261,5.261,0,0,1-.9-2.061,8.794,8.794,0,0,1-.176-2.342,8.083,8.083,0,0,0,3.868-2.765,15.9,15.9,0,0,1,3.353,1.48l.511-.987a15.544,15.544,0,0,1-3.043-1.815,8.031,8.031,0,0,0,.83-3.473,6.09,6.09,0,0,1,2.068.382l.066-.823a6.165,6.165,0,0,1-2.139.041,8.034,8.034,0,0,0-.483-2.468c.634-.387,1.033-.613,1.2-.708a7.568,7.568,0,0,1,3.617-1.091Z" transform="translate(-1434.983 -1708.499)" fill="#5858c6"/>
      </g>
      <g id="Grupo_29772" data-name="Grupo 29772" transform="translate(78.551 85.511)">
        <path id="Rectángulo_6090" data-name="Rectángulo 6090" d="M16.944,0h0A16.944,16.944,0,0,1,33.889,16.944v0A16.944,16.944,0,0,1,16.944,33.889h0A16.944,16.944,0,0,1,0,16.944v0A16.944,16.944,0,0,1,16.944,0Z" fill="#7473e8"/>
        <path id="Trazado_62826" data-name="Trazado 62826" d="M674.8,1701.573l1.65-1.31a1.362,1.362,0,0,0,.365-1.688,13.026,13.026,0,0,0-3.322-4.237,1.36,1.36,0,0,0-1.675,0l-2.892,2.265a1.363,1.363,0,0,0-.517,1.2,16.952,16.952,0,0,0,5.309,10.972,28.043,28.043,0,0,0,12.255,6.626,1.364,1.364,0,0,0,1.317-.431l2.5-2.845a1.363,1.363,0,0,0,.036-1.757,10.7,10.7,0,0,0-5.219-3.493,1.362,1.362,0,0,0-1.491.5l-.9,1.225a1.363,1.363,0,0,1-1.6.457c-1.242-.5-3.466-1.865-6.086-5.642A1.362,1.362,0,0,1,674.8,1701.573Z" transform="translate(-660.692 -1688.492)" fill="#fff"/>
      </g>
      <path id="Trazado_62827" data-name="Trazado 62827" d="M916.061,1567.624s2.73-4.828,8.2-4.869c4.874-.036,8.27,4.873,8.313,10.621.05,6.653-4.47,14.558-16.306,21.488-11.939-6.752-16.576-14.589-16.626-21.242-.043-5.747,3.279-10.708,8.153-10.744C913.259,1562.838,916.061,1567.624,916.061,1567.624Z" transform="translate(-757.654 -1503.322)" fill="#ff862d"/>
      <g id="Grupo_29776" data-name="Grupo 29776" transform="translate(203.97 93.076)">
        <path id="Trazado_62828" data-name="Trazado 62828" d="M1215.471,1770.4l4.9.031q-.024,2.843-.125,5.685l3.793.105q.1-2.882.126-5.766l4.9.031q.014-1.761,0-3.523l-4.9.031q-.024-2.883-.126-5.766l-3.793.105q.1,2.842.125,5.685l-4.9.032Q1215.485,1768.729,1215.471,1770.4Z" transform="translate(-1201.353 -1747.05)" fill="#5858c6"/>
        <g id="Grupo_29773" data-name="Grupo 29773" transform="translate(28.321 0.318)">
          <path id="Trazado_62829" data-name="Trazado 62829" d="M1283.447,1727.134a1.24,1.24,0,0,1-1.092-.651l-7.174-13.294a6.347,6.347,0,0,1,2.641-8.637l1.367-.716a1.239,1.239,0,1,1,1.15,2.2l-1.367.716a3.869,3.869,0,0,0-1.609,5.265l7.174,13.294a1.24,1.24,0,0,1-1.089,1.828Z" transform="translate(-1274.416 -1703.694)" fill="#e9faff"/>
        </g>
        <g id="Grupo_29774" data-name="Grupo 29774" transform="translate(36.252 0.602)">
          <path id="Trazado_62830" data-name="Trazado 62830" d="M1308.568,1728.309a1.24,1.24,0,0,0,1.092-.651l7.174-13.294a6.347,6.347,0,0,0-2.641-8.637l-1.367-.716a1.239,1.239,0,1,0-1.15,2.2l1.367.716a3.869,3.869,0,0,1,1.61,5.264l-7.175,13.294a1.24,1.24,0,0,0,1.09,1.828Z" transform="translate(-1307.329 -1704.87)" fill="#e9faff"/>
        </g>
        <path id="Trazado_62831" data-name="Trazado 62831" d="M1297.374,1704a1.559,1.559,0,1,1-1.558-1.629A1.594,1.594,0,0,1,1297.374,1704Z" transform="translate(-1261.155 -1702.373)" fill="#e9faff"/>
        <path id="Trazado_62832" data-name="Trazado 62832" d="M1321.471,1704a1.559,1.559,0,1,1-1.558-1.629A1.594,1.594,0,0,1,1321.471,1704Z" transform="translate(-1279.446 -1702.373)" fill="#e9faff"/>
        <path id="Trazado_62833" data-name="Trazado 62833" d="M1233.878,1706.42a3.753,3.753,0,1,1-3.753-3.753A3.753,3.753,0,0,1,1233.878,1706.42Z" transform="translate(-1209.627 -1702.596)" fill="#e9faff"/>
        <g id="Grupo_29775" data-name="Grupo 29775" transform="translate(0 2.203)">
          <path id="Trazado_62834" data-name="Trazado 62834" d="M1176.179,1750.112a19.3,19.3,0,0,1,0-38.6v2.478a16.82,16.82,0,1,0,16.82,16.82h2.478a19.3,19.3,0,0,1-19.3,19.3Z" transform="translate(-1156.881 -1711.516)" fill="#e9faff"/>
        </g>
      </g>
      <g id="Grupo_29779" data-name="Grupo 29779" transform="translate(10.727 122.97)">
        <path id="Trazado_62835" data-name="Trazado 62835" d="M359.02,1883.13h0a4.1,4.1,0,0,0-4.1,4.1v28.936a4.1,4.1,0,0,0,2.052,3.553v5.286a2.052,2.052,0,0,0,4.1,0v-5.286a4.1,4.1,0,0,0,2.052-3.553v-28.936A4.1,4.1,0,0,0,359.02,1883.13Z" transform="translate(-354.916 -1869.469)" fill="#5858c6"/>
        <path id="Trazado_62836" data-name="Trazado 62836" d="M363.991,1930.454a.474.474,0,0,1-.473-.474v-6.2l-.788-.456a2.536,2.536,0,0,1-1.264-2.187v-28.936a2.525,2.525,0,0,1,5.051,0v28.936a2.535,2.535,0,0,1-1.264,2.187l-.788.456v6.2A.474.474,0,0,1,363.991,1930.454Z" transform="translate(-359.888 -1874.442)" fill="#e9faff"/>
        <path id="Trazado_62837" data-name="Trazado 62837" d="M363.974,1916.463h0a2.543,2.543,0,0,0-2.508,2.123v22.884a2.536,2.536,0,0,0,1.264,2.187l.788.456v6.2a.473.473,0,1,0,.947,0v-6.2l.788-.456a2.535,2.535,0,0,0,1.264-2.187v-22.465A2.543,2.543,0,0,0,363.974,1916.463Z" transform="translate(-359.888 -1894.77)" fill="#ff862d"/>
        <g id="Grupo_29778" data-name="Grupo 29778" transform="translate(11.61)">
          <path id="Trazado_62838" data-name="Trazado 62838" d="M419.484,1826.437a16.389,16.389,0,0,0-13.141,26.181l-2.4,4.68,6.687-.677a16.389,16.389,0,1,0,8.849-30.183Z" transform="translate(-403.096 -1826.437)" fill="#5858c6"/>
          <g id="Grupo_29777" data-name="Grupo 29777" transform="translate(6.863 10.735)">
            <path id="Trazado_62839" data-name="Trazado 62839" d="M431.955,1883.635a4.647,4.647,0,0,0,2.274.648c1.785,0,2.338-1.137,2.322-1.99-.016-1.437-1.311-2.053-2.654-2.053h-.774V1879.2h.774c1.011,0,2.29-.521,2.29-1.737,0-.821-.521-1.548-1.8-1.548a3.768,3.768,0,0,0-2.053.679l-.363-1.011a4.881,4.881,0,0,1,2.685-.79c2.022,0,2.938,1.2,2.938,2.448a2.549,2.549,0,0,1-1.9,2.417v.031a2.674,2.674,0,0,1,2.29,2.638c0,1.642-1.279,3.08-3.743,3.08a5.217,5.217,0,0,1-2.669-.695Z" transform="translate(-431.576 -1873.875)" fill="#fff"/>
            <path id="Trazado_62840" data-name="Trazado 62840" d="M464.868,1882.625a2.932,2.932,0,0,1,2.037-2.748l-.016-.048a2.542,2.542,0,0,1-1.626-2.306c0-1.627,1.374-2.732,3.174-2.732,1.99,0,2.985,1.248,2.985,2.527a2.607,2.607,0,0,1-1.69,2.4v.047a2.846,2.846,0,0,1,2.069,2.653c0,1.785-1.532,2.985-3.49,2.985C466.163,1885.4,464.868,1884.125,464.868,1882.625Zm5.528-.063c0-1.248-.869-1.848-2.259-2.243a2.231,2.231,0,0,0-1.848,2.117,1.9,1.9,0,0,0,2.053,1.958A1.858,1.858,0,0,0,470.4,1882.561Zm-3.822-5.133c0,1.026.774,1.579,1.958,1.9a2.023,2.023,0,0,0,1.564-1.864,1.6,1.6,0,0,0-1.738-1.674A1.633,1.633,0,0,0,466.574,1877.428Z" transform="translate(-456.846 -1873.875)" fill="#fff"/>
            <path id="Trazado_62841" data-name="Trazado 62841" d="M510.276,1873.563a2.479,2.479,0,0,1-2.527,2.637,2.443,2.443,0,0,1-2.511-2.558,2.52,2.52,0,0,1,2.543-2.653A2.409,2.409,0,0,1,510.276,1873.563Zm-3.98.047a1.645,1.645,0,0,0,1.469,1.8c.837,0,1.453-.727,1.453-1.816,0-.79-.426-1.816-1.469-1.816C506.738,1871.778,506.3,1872.757,506.3,1873.61Z" transform="translate(-487.488 -1870.988)" fill="#fff"/>
          </g>
        </g>
      </g>
      <g id="Grupo_29780" data-name="Grupo 29780" transform="translate(236.027 37.13)">
        <path id="Trazado_62842" data-name="Trazado 62842" d="M1312.6,1471.3a1.1,1.1,0,1,1-1.1-1.105A1.1,1.1,0,0,1,1312.6,1471.3Z" transform="translate(-1305.461 -1470.196)" fill="#7473e8"/>
        <path id="Trazado_62843" data-name="Trazado 62843" d="M1315.614,1532.56a1.105,1.105,0,1,1-1.105-1.105A1.1,1.1,0,0,1,1315.614,1532.56Z" transform="translate(-1307.745 -1516.694)" fill="#7473e8"/>
        <path id="Trazado_62844" data-name="Trazado 62844" d="M1357.5,1520.387a1.1,1.1,0,1,1-1.105-1.1A1.105,1.105,0,0,1,1357.5,1520.387Z" transform="translate(-1339.539 -1507.454)" fill="#7473e8"/>
        <path id="Trazado_62845" data-name="Trazado 62845" d="M1341.33,1471.531a1.325,1.325,0,1,1-1.325-1.325A1.325,1.325,0,0,1,1341.33,1471.531Z" transform="translate(-1326.931 -1470.204)" fill="#7473e8"/>
        <path id="Trazado_62846" data-name="Trazado 62846" d="M1327.806,1474.894a.757.757,0,1,1-.649-.852A.757.757,0,0,1,1327.806,1474.894Z" transform="translate(-1317.532 -1473.11)" fill="#7473e8"/>
        <path id="Trazado_62847" data-name="Trazado 62847" d="M1358.258,1504.734a.757.757,0,1,1-.757-.756A.757.757,0,0,1,1358.258,1504.734Z" transform="translate(-1340.641 -1495.838)" fill="#7473e8"/>
        <path id="Trazado_62848" data-name="Trazado 62848" d="M1300.4,1518.87a.757.757,0,1,1-.757-.756A.757.757,0,0,1,1300.4,1518.87Z" transform="translate(-1296.728 -1506.568)" fill="#7473e8"/>
        <circle id="Elipse_1393" data-name="Elipse 1393" cx="1.703" cy="1.703" r="1.703" transform="matrix(0.996, -0.088, 0.088, 0.996, 0, 4.575)" fill="#7473e8"/>
        <path id="Trazado_62849" data-name="Trazado 62849" d="M1336.459,1533.69a1.7,1.7,0,1,1-1.7-1.7A1.7,1.7,0,0,1,1336.459,1533.69Z" transform="translate(-1322.659 -1517.098)" fill="#7473e8"/>
        <path id="Trazado_62850" data-name="Trazado 62850" d="M1361.328,1485.914a1.7,1.7,0,1,1-1.7-1.7A1.7,1.7,0,0,1,1361.328,1485.914Z" transform="translate(-1341.536 -1480.834)" fill="#7473e8"/>
        <path id="Trazado_62851" data-name="Trazado 62851" d="M1313.052,1478.428a3.558,3.558,0,0,1-.809.638,6.058,6.058,0,0,1-1.37.591c-.1.029-.407.121-.9.251a5.363,5.363,0,0,0-2.457-2.314c.01-.089.02-.179.031-.267.027-.208.059-.414.1-.619a3.2,3.2,0,0,1,.789-1.658l-.684-.271a1.6,1.6,0,0,1-.01.324,2.625,2.625,0,0,1-.056.306,3.365,3.365,0,0,1-.2.577,4.288,4.288,0,0,1-.293.541q-.169.262-.354.517c-.057.08-.116.159-.177.237a5.38,5.38,0,0,0-1.772-.169,5.592,5.592,0,0,1,.052-1.843h-.546a5.71,5.71,0,0,1,.047,1.894,5.3,5.3,0,0,0-1.464.453,8.994,8.994,0,0,1-1.427-2.952l-.667.311a9.174,9.174,0,0,1,1.365,3.062,5.359,5.359,0,0,0-1.92,2.378,7.682,7.682,0,0,1-2.8-.942,2.643,2.643,0,0,1-.35-.266l-.376,1a2.676,2.676,0,0,1,.439.03,7.848,7.848,0,0,1,2.79,1.167,5.364,5.364,0,0,0,.3,3.073,6.753,6.753,0,0,1-1.7,1,2.661,2.661,0,0,1-.682.16l.219.5a2.048,2.048,0,0,1,.281-.218,6.025,6.025,0,0,1,2.228-.752,5.372,5.372,0,0,0,1.775,1.808,4.2,4.2,0,0,1-.823,2.147l.682.277a2.7,2.7,0,0,1,.326-1.181c.118-.234.4-.672.535-.868a5.359,5.359,0,0,0,3.038.344,5.779,5.779,0,0,1,.451,1.441,3.482,3.482,0,0,1-.046,1.49l1.053-.2a3.482,3.482,0,0,1-.6-1.365,5.853,5.853,0,0,1-.117-1.55,5.351,5.351,0,0,0,2.561-1.831,10.55,10.55,0,0,1,2.22.98l.339-.653a10.285,10.285,0,0,1-2.015-1.2,5.31,5.31,0,0,0,.549-2.3,4.043,4.043,0,0,1,1.369.253l.044-.545a4.091,4.091,0,0,1-1.416.027,5.331,5.331,0,0,0-.32-1.635c.42-.256.684-.406.792-.469a5.012,5.012,0,0,1,2.395-.723Z" transform="translate(-1295.141 -1473.589)" fill="#7473e8"/>
      </g>
      <g id="Grupo_29781" data-name="Grupo 29781" transform="translate(0 30.421)">
        <path id="Trazado_62852" data-name="Trazado 62852" d="M332.491,1443.46a1.105,1.105,0,1,1-1.105-1.1A1.105,1.105,0,0,1,332.491,1443.46Z" transform="translate(-325.49 -1442.355)" fill="#7473e8"/>
        <path id="Trazado_62853" data-name="Trazado 62853" d="M335.5,1504.718a1.105,1.105,0,1,1-1.105-1.105A1.1,1.1,0,0,1,335.5,1504.718Z" transform="translate(-327.776 -1488.852)" fill="#7473e8"/>
        <path id="Trazado_62854" data-name="Trazado 62854" d="M377.388,1492.545a1.105,1.105,0,1,1-1.105-1.1A1.105,1.105,0,0,1,377.388,1492.545Z" transform="translate(-359.569 -1479.612)" fill="#7473e8"/>
        <path id="Trazado_62855" data-name="Trazado 62855" d="M361.218,1443.689a1.325,1.325,0,1,1-1.325-1.325A1.325,1.325,0,0,1,361.218,1443.689Z" transform="translate(-346.961 -1442.362)" fill="#7473e8"/>
        <path id="Trazado_62856" data-name="Trazado 62856" d="M347.693,1447.052a.757.757,0,1,1-.649-.852A.757.757,0,0,1,347.693,1447.052Z" transform="translate(-337.563 -1445.269)" fill="#7473e8"/>
        <path id="Trazado_62857" data-name="Trazado 62857" d="M378.146,1476.892a.757.757,0,1,1-.757-.756A.757.757,0,0,1,378.146,1476.892Z" transform="translate(-360.672 -1467.996)" fill="#7473e8"/>
        <path id="Trazado_62858" data-name="Trazado 62858" d="M320.291,1491.029a.757.757,0,1,1-.757-.756A.757.757,0,0,1,320.291,1491.029Z" transform="translate(-316.758 -1478.727)" fill="#7473e8"/>
        <path id="Trazado_62859" data-name="Trazado 62859" d="M313.805,1462.393a1.7,1.7,0,1,1-1.7-1.7A1.7,1.7,0,0,1,313.805,1462.393Z" transform="translate(-310.399 -1456.272)" fill="#7473e8"/>
        <path id="Trazado_62860" data-name="Trazado 62860" d="M356.346,1505.849a1.7,1.7,0,1,1-1.7-1.7A1.7,1.7,0,0,1,356.346,1505.849Z" transform="translate(-342.689 -1489.257)" fill="#7473e8"/>
        <path id="Trazado_62861" data-name="Trazado 62861" d="M381.216,1458.073a1.7,1.7,0,1,1-1.7-1.7A1.7,1.7,0,0,1,381.216,1458.073Z" transform="translate(-361.566 -1452.993)" fill="#7473e8"/>
        <path id="Trazado_62862" data-name="Trazado 62862" d="M332.939,1450.586a3.562,3.562,0,0,1-.809.638,6.054,6.054,0,0,1-1.37.591c-.1.029-.407.121-.9.251a5.362,5.362,0,0,0-2.456-2.313c.009-.089.02-.179.031-.267.026-.208.059-.414.1-.619a3.2,3.2,0,0,1,.789-1.658l-.684-.271a1.608,1.608,0,0,1-.01.324,2.667,2.667,0,0,1-.056.307,3.361,3.361,0,0,1-.2.577,4.34,4.34,0,0,1-.293.541q-.17.261-.354.516c-.058.079-.117.159-.177.237a5.38,5.38,0,0,0-1.772-.169,5.594,5.594,0,0,1,.052-1.843h-.547a5.7,5.7,0,0,1,.047,1.894,5.3,5.3,0,0,0-1.464.452,8.983,8.983,0,0,1-1.427-2.952l-.667.311a9.182,9.182,0,0,1,1.365,3.062,5.361,5.361,0,0,0-1.92,2.378,7.69,7.69,0,0,1-2.8-.942,2.637,2.637,0,0,1-.35-.266l-.377,1a2.674,2.674,0,0,1,.439.03,7.849,7.849,0,0,1,2.79,1.167,5.361,5.361,0,0,0,.3,3.073,6.728,6.728,0,0,1-1.7,1,2.659,2.659,0,0,1-.682.16l.219.5a2.019,2.019,0,0,1,.281-.218,6.019,6.019,0,0,1,2.228-.752,5.379,5.379,0,0,0,1.775,1.808,4.191,4.191,0,0,1-.823,2.147l.682.277a2.7,2.7,0,0,1,.327-1.181c.117-.234.4-.672.535-.868a5.364,5.364,0,0,0,3.039.344,5.793,5.793,0,0,1,.451,1.441,3.481,3.481,0,0,1-.046,1.49l1.053-.2a3.484,3.484,0,0,1-.6-1.365,5.832,5.832,0,0,1-.116-1.55,5.351,5.351,0,0,0,2.561-1.831,10.546,10.546,0,0,1,2.22.98l.339-.653a10.271,10.271,0,0,1-2.015-1.2,5.313,5.313,0,0,0,.55-2.3,4.041,4.041,0,0,1,1.369.253l.044-.545a4.093,4.093,0,0,1-1.416.027,5.331,5.331,0,0,0-.32-1.635c.42-.256.684-.405.792-.468a5.01,5.01,0,0,1,2.395-.723Z" transform="translate(-315.171 -1445.747)" fill="#7473e8"/>
      </g>
      <g id="Grupo_29782" data-name="Grupo 29782" transform="translate(172.509 0)">
        <path id="Trazado_62863" data-name="Trazado 62863" d="M1048.408,1317.212a1.1,1.1,0,1,1-1.105-1.105A1.1,1.1,0,0,1,1048.408,1317.212Z" transform="translate(-1041.407 -1316.107)" fill="#ff862d"/>
        <path id="Trazado_62864" data-name="Trazado 62864" d="M1051.418,1378.471a1.105,1.105,0,1,1-1.1-1.105A1.105,1.105,0,0,1,1051.418,1378.471Z" transform="translate(-1043.692 -1362.605)" fill="#ff862d"/>
        <path id="Trazado_62865" data-name="Trazado 62865" d="M1093.3,1366.3a1.1,1.1,0,1,1-1.1-1.1A1.105,1.105,0,0,1,1093.3,1366.3Z" transform="translate(-1075.486 -1353.365)" fill="#ff862d"/>
        <path id="Trazado_62866" data-name="Trazado 62866" d="M1077.134,1317.442a1.325,1.325,0,1,1-1.325-1.325A1.325,1.325,0,0,1,1077.134,1317.442Z" transform="translate(-1062.877 -1316.115)" fill="#ff862d"/>
        <path id="Trazado_62867" data-name="Trazado 62867" d="M1063.609,1320.8a.757.757,0,1,1-.649-.852A.757.757,0,0,1,1063.609,1320.8Z" transform="translate(-1053.479 -1319.021)" fill="#ff862d"/>
        <path id="Trazado_62868" data-name="Trazado 62868" d="M1094.063,1350.645a.757.757,0,1,1-.757-.757A.757.757,0,0,1,1094.063,1350.645Z" transform="translate(-1076.589 -1341.748)" fill="#ff862d"/>
        <path id="Trazado_62869" data-name="Trazado 62869" d="M1036.207,1364.782a.757.757,0,1,1-.757-.757A.757.757,0,0,1,1036.207,1364.782Z" transform="translate(-1032.674 -1352.479)" fill="#ff862d"/>
        <path id="Trazado_62870" data-name="Trazado 62870" d="M1029.723,1336.145a1.7,1.7,0,1,1-1.7-1.7A1.7,1.7,0,0,1,1029.723,1336.145Z" transform="translate(-1026.316 -1330.024)" fill="#ff862d"/>
        <circle id="Elipse_1394" data-name="Elipse 1394" cx="1.703" cy="1.703" r="1.703" transform="translate(10.251 14.889)" fill="#ff862d"/>
        <path id="Trazado_62871" data-name="Trazado 62871" d="M1097.133,1331.825a1.7,1.7,0,1,1-1.7-1.7A1.7,1.7,0,0,1,1097.133,1331.825Z" transform="translate(-1077.484 -1326.745)" fill="#ff862d"/>
        <path id="Trazado_62872" data-name="Trazado 62872" d="M1048.857,1324.339a3.555,3.555,0,0,1-.809.638,6.069,6.069,0,0,1-1.37.591c-.1.029-.407.121-.9.251a5.362,5.362,0,0,0-2.456-2.314q.014-.134.031-.267.04-.312.1-.619a3.2,3.2,0,0,1,.789-1.657l-.684-.271a1.612,1.612,0,0,1-.01.325,2.685,2.685,0,0,1-.056.306,3.359,3.359,0,0,1-.2.577,4.254,4.254,0,0,1-.293.541q-.169.262-.354.517c-.057.079-.116.159-.177.237a5.376,5.376,0,0,0-1.772-.169,5.585,5.585,0,0,1,.052-1.843h-.547a5.707,5.707,0,0,1,.047,1.894,5.3,5.3,0,0,0-1.464.453,8.987,8.987,0,0,1-1.427-2.952l-.667.311a9.185,9.185,0,0,1,1.365,3.062,5.361,5.361,0,0,0-1.92,2.378,7.688,7.688,0,0,1-2.8-.942,2.62,2.62,0,0,1-.35-.266l-.376,1a2.618,2.618,0,0,1,.438.03,7.854,7.854,0,0,1,2.79,1.166,5.364,5.364,0,0,0,.3,3.073,6.736,6.736,0,0,1-1.7,1,2.65,2.65,0,0,1-.682.16l.219.5a2.044,2.044,0,0,1,.281-.218,6.026,6.026,0,0,1,2.228-.751,5.379,5.379,0,0,0,1.775,1.808,4.188,4.188,0,0,1-.823,2.147l.682.276a2.708,2.708,0,0,1,.327-1.181c.117-.234.4-.672.535-.868a5.364,5.364,0,0,0,3.038.344,5.8,5.8,0,0,1,.451,1.441,3.485,3.485,0,0,1-.046,1.49l1.053-.2a3.487,3.487,0,0,1-.6-1.365,5.854,5.854,0,0,1-.116-1.551,5.35,5.35,0,0,0,2.561-1.831,10.518,10.518,0,0,1,2.22.98l.339-.653a10.289,10.289,0,0,1-2.015-1.2,5.314,5.314,0,0,0,.549-2.3,4.036,4.036,0,0,1,1.369.253l.044-.545a4.092,4.092,0,0,1-1.416.027,5.321,5.321,0,0,0-.32-1.635c.42-.256.684-.406.792-.469a5.014,5.014,0,0,1,2.395-.723Z" transform="translate(-1031.089 -1319.5)" fill="#ff862d"/>
      </g>
      <g id="Grupo_29783" data-name="Grupo 29783" transform="translate(95.018 33.152)">
        <path id="Trazado_62873" data-name="Trazado 62873" d="M720.221,1454.464a.775.775,0,1,1-.775-.775A.775.775,0,0,1,720.221,1454.464Z" transform="translate(-715.311 -1453.689)" fill="#e9faff"/>
        <path id="Trazado_62874" data-name="Trazado 62874" d="M722.332,1497.434a.775.775,0,1,1-.775-.775A.775.775,0,0,1,722.332,1497.434Z" transform="translate(-716.913 -1486.305)" fill="#e9faff"/>
        <path id="Trazado_62875" data-name="Trazado 62875" d="M751.714,1488.9a.775.775,0,1,1-.775-.775A.776.776,0,0,1,751.714,1488.9Z" transform="translate(-739.215 -1479.823)" fill="#e9faff"/>
        <path id="Trazado_62876" data-name="Trazado 62876" d="M740.372,1454.624a.929.929,0,1,1-.929-.929A.929.929,0,0,1,740.372,1454.624Z" transform="translate(-730.371 -1453.693)" fill="#e9faff"/>
        <path id="Trazado_62877" data-name="Trazado 62877" d="M730.885,1456.983a.531.531,0,1,1-.455-.6A.531.531,0,0,1,730.885,1456.983Z" transform="translate(-723.779 -1455.732)" fill="#e9faff"/>
        <path id="Trazado_62878" data-name="Trazado 62878" d="M752.246,1477.916a.531.531,0,1,1-.531-.531A.531.531,0,0,1,752.246,1477.916Z" transform="translate(-739.989 -1471.675)" fill="#e9faff"/>
        <path id="Trazado_62879" data-name="Trazado 62879" d="M711.663,1487.832a.531.531,0,1,1-.531-.531A.531.531,0,0,1,711.663,1487.832Z" transform="translate(-709.185 -1479.202)" fill="#e9faff"/>
        <path id="Trazado_62880" data-name="Trazado 62880" d="M707.114,1467.745a1.195,1.195,0,1,1-1.195-1.195A1.195,1.195,0,0,1,707.114,1467.745Z" transform="translate(-704.725 -1463.451)" fill="#e9faff"/>
        <path id="Trazado_62881" data-name="Trazado 62881" d="M736.954,1498.227a1.195,1.195,0,1,1-1.195-1.195A1.195,1.195,0,0,1,736.954,1498.227Z" transform="translate(-727.375 -1486.588)" fill="#e9faff"/>
        <path id="Trazado_62882" data-name="Trazado 62882" d="M754.4,1464.715a1.195,1.195,0,1,1-1.195-1.195A1.195,1.195,0,0,1,754.4,1464.715Z" transform="translate(-740.616 -1461.151)" fill="#e9faff"/>
        <path id="Trazado_62883" data-name="Trazado 62883" d="M720.535,1459.463a2.493,2.493,0,0,1-.567.448,4.258,4.258,0,0,1-.961.415c-.073.02-.286.085-.632.176a3.762,3.762,0,0,0-1.723-1.623c.007-.063.014-.125.022-.187.019-.146.041-.291.067-.434a2.247,2.247,0,0,1,.554-1.163l-.48-.19a1.147,1.147,0,0,1-.007.228,1.974,1.974,0,0,1-.039.215,2.348,2.348,0,0,1-.141.4,3,3,0,0,1-.205.38q-.119.183-.248.362c-.04.056-.082.112-.124.166a3.775,3.775,0,0,0-1.243-.118,3.923,3.923,0,0,1,.037-1.293h-.384a4,4,0,0,1,.033,1.329,3.709,3.709,0,0,0-1.027.317,6.3,6.3,0,0,1-1-2.07l-.468.218a6.438,6.438,0,0,1,.957,2.148,3.762,3.762,0,0,0-1.347,1.668,5.4,5.4,0,0,1-1.964-.661,1.864,1.864,0,0,1-.246-.187l-.264.7a1.866,1.866,0,0,1,.307.021,5.5,5.5,0,0,1,1.957.818,3.764,3.764,0,0,0,.213,2.156,4.722,4.722,0,0,1-1.192.7,1.866,1.866,0,0,1-.478.112l.154.351a1.431,1.431,0,0,1,.2-.153,4.224,4.224,0,0,1,1.563-.527,3.772,3.772,0,0,0,1.245,1.268,2.941,2.941,0,0,1-.577,1.506l.479.194a1.9,1.9,0,0,1,.229-.828c.082-.164.283-.472.375-.609a3.76,3.76,0,0,0,2.131.241,4.077,4.077,0,0,1,.317,1.011,2.448,2.448,0,0,1-.032,1.045l.739-.143a2.445,2.445,0,0,1-.419-.957,4.094,4.094,0,0,1-.082-1.088,3.754,3.754,0,0,0,1.8-1.284,7.384,7.384,0,0,1,1.557.688l.237-.459a7.2,7.2,0,0,1-1.413-.843,3.73,3.73,0,0,0,.385-1.613,2.836,2.836,0,0,1,.96.177l.031-.382a2.869,2.869,0,0,1-.993.019,3.738,3.738,0,0,0-.224-1.147c.294-.18.48-.284.555-.328a3.515,3.515,0,0,1,1.68-.507Z" transform="translate(-708.072 -1456.069)" fill="#e9faff"/>
      </g>
      <g id="Grupo_29784" data-name="Grupo 29784" transform="translate(311.175 22.029)">
        <path id="Trazado_62884" data-name="Trazado 62884" d="M1617.279,1408.3a.775.775,0,1,1-.775-.775A.775.775,0,0,1,1617.279,1408.3Z" transform="translate(-1612.369 -1407.529)" fill="#e9faff"/>
        <path id="Trazado_62885" data-name="Trazado 62885" d="M1619.39,1451.274a.775.775,0,1,1-.775-.775A.775.775,0,0,1,1619.39,1451.274Z" transform="translate(-1613.971 -1440.145)" fill="#e9faff"/>
        <path id="Trazado_62886" data-name="Trazado 62886" d="M1648.772,1442.735a.775.775,0,1,1-.775-.775A.775.775,0,0,1,1648.772,1442.735Z" transform="translate(-1636.273 -1433.663)" fill="#e9faff"/>
        <path id="Trazado_62887" data-name="Trazado 62887" d="M1637.428,1408.465a.929.929,0,1,1-.929-.929A.929.929,0,0,1,1637.428,1408.465Z" transform="translate(-1627.429 -1407.534)" fill="#e9faff"/>
        <path id="Trazado_62888" data-name="Trazado 62888" d="M1627.942,1410.824a.531.531,0,1,1-.455-.6A.531.531,0,0,1,1627.942,1410.824Z" transform="translate(-1620.836 -1409.573)" fill="#e9faff"/>
        <path id="Trazado_62889" data-name="Trazado 62889" d="M1649.3,1431.756a.531.531,0,1,1-.531-.531A.531.531,0,0,1,1649.3,1431.756Z" transform="translate(-1637.046 -1425.515)" fill="#e9faff"/>
        <path id="Trazado_62890" data-name="Trazado 62890" d="M1608.72,1441.672a.531.531,0,1,1-.531-.531A.531.531,0,0,1,1608.72,1441.672Z" transform="translate(-1606.242 -1433.042)" fill="#e9faff"/>
        <path id="Trazado_62891" data-name="Trazado 62891" d="M1604.172,1421.585a1.195,1.195,0,1,1-1.195-1.195A1.195,1.195,0,0,1,1604.172,1421.585Z" transform="translate(-1601.783 -1417.291)" fill="#e9faff"/>
        <path id="Trazado_62892" data-name="Trazado 62892" d="M1634.012,1452.068a1.195,1.195,0,1,1-1.195-1.195A1.195,1.195,0,0,1,1634.012,1452.068Z" transform="translate(-1624.433 -1440.429)" fill="#e9faff"/>
        <path id="Trazado_62893" data-name="Trazado 62893" d="M1651.456,1418.555a1.195,1.195,0,1,1-1.195-1.195A1.195,1.195,0,0,1,1651.456,1418.555Z" transform="translate(-1637.673 -1414.991)" fill="#e9faff"/>
        <path id="Trazado_62894" data-name="Trazado 62894" d="M1617.593,1413.3a2.5,2.5,0,0,1-.567.448,4.262,4.262,0,0,1-.961.414c-.073.02-.286.085-.632.176a3.762,3.762,0,0,0-1.723-1.623c.006-.062.014-.125.022-.187q.028-.219.067-.434a2.243,2.243,0,0,1,.554-1.163l-.48-.19a1.121,1.121,0,0,1-.007.227,1.849,1.849,0,0,1-.039.215,2.364,2.364,0,0,1-.141.4,2.967,2.967,0,0,1-.206.379c-.079.122-.161.243-.248.362-.04.056-.082.112-.124.166a3.777,3.777,0,0,0-1.243-.118,3.918,3.918,0,0,1,.037-1.293h-.384a4,4,0,0,1,.033,1.329,3.709,3.709,0,0,0-1.027.317,6.306,6.306,0,0,1-1-2.07l-.468.218a6.435,6.435,0,0,1,.958,2.148,3.761,3.761,0,0,0-1.347,1.668,5.389,5.389,0,0,1-1.964-.661,1.822,1.822,0,0,1-.246-.186l-.264.7a1.8,1.8,0,0,1,.308.021,5.507,5.507,0,0,1,1.957.818,3.761,3.761,0,0,0,.213,2.156,4.718,4.718,0,0,1-1.192.7,1.851,1.851,0,0,1-.478.112l.154.352a1.416,1.416,0,0,1,.2-.153,4.22,4.22,0,0,1,1.563-.527,3.771,3.771,0,0,0,1.245,1.268,2.938,2.938,0,0,1-.577,1.506l.478.194a1.9,1.9,0,0,1,.229-.828c.082-.164.283-.472.375-.609a3.759,3.759,0,0,0,2.131.241,4.061,4.061,0,0,1,.316,1.011,2.442,2.442,0,0,1-.032,1.045l.739-.143a2.436,2.436,0,0,1-.419-.957,4.078,4.078,0,0,1-.082-1.088,3.754,3.754,0,0,0,1.8-1.284,7.379,7.379,0,0,1,1.557.687l.238-.458a7.224,7.224,0,0,1-1.413-.843,3.733,3.733,0,0,0,.386-1.613,2.833,2.833,0,0,1,.96.177l.031-.382a2.873,2.873,0,0,1-.994.019,3.738,3.738,0,0,0-.225-1.146c.295-.18.48-.285.555-.329a3.515,3.515,0,0,1,1.68-.507Z" transform="translate(-1605.13 -1409.909)" fill="#e9faff"/>
      </g>
    </g>
    <g id="Grupo_29802" data-name="Grupo 29802" transform="translate(241.67 1474.694)">
      <g id="Grupo_29791" data-name="Grupo 29791" transform="translate(214.079 11.954)">
        <path id="Trazado_62895" data-name="Trazado 62895" d="M1361.882,2136.759l12.763-13.465s13.661,7.513,29.587,14.692c4.378-7.62,11.524-32.685,11.908-33.881s-8.369-16.257-6.411-16.634,4.5,8.041,6.571,7.188,7.393-20.384,8.638-19.318c2.331,1.995-2.8,12.148-1.571,12.887s4.345-11.254,6.719-10.743-4.007,10.919-3.307,11.919,7.368-8.764,8.746-6.5c.748,1.228-6.151,8.5-4.732,9.316s7.636-3.768,8.379-2.284-5.8,3.031-7.618,6.787-5.12,5.218-6.216,12.319-4.093,45.055-11.831,48.1C1406.749,2159.8,1361.882,2136.759,1361.882,2136.759Z" transform="translate(-1327.92 -2062.902)" fill="#f48c7f"/>
        <path id="Trazado_62896" data-name="Trazado 62896" d="M1392.4,2257.359a40.4,40.4,0,0,1,3.916,1.362c6.26,3.158,23.152,15.832,23.152,15.832s-3.745,13.278-7.831,18.386l-28.6-11.746Z" transform="translate(-1343.974 -2201.093)" fill="#a4e5ff"/>
        <path id="Trazado_62897" data-name="Trazado 62897" d="M1578.729,2082.54c-1.557-.893,6.071-8.476,5.25-9.823-1.512-2.482-8.83,8.233-9.6,7.135s6.234-12.519,3.629-13.081-6.025,12.6-7.373,11.79,4.282-11.954,1.724-14.143c-1.367-1.17-6.937,18.845-9.208,19.781s-5.333-6.884-7.482-6.47,7.458,16.938,7.035,18.254c-.069.216-.339,1.14-.763,2.571a46.277,46.277,0,0,1,10.987,2.074c1.316-7.133,4.765-8.765,6.691-12.747,1.993-4.122,9.175-5.819,8.36-7.448S1580.287,2083.433,1578.729,2082.54Z" transform="translate(-1474.775 -2054.606)" fill="#5858c6"/>
        <path id="Trazado_62898" data-name="Trazado 62898" d="M1588.143,2196.1s5.479-1.779,8.429,1.545C1596.572,2197.647,1594.277,2195.868,1588.143,2196.1Z" transform="translate(-1499.661 -2154.236)" fill="#271651"/>
        <g id="Grupo_29789" data-name="Grupo 29789">
          <g id="Grupo_29788" data-name="Grupo 29788">
            <path id="Trazado_62899" data-name="Trazado 62899" d="M1410.606,2709.586c.526-4.486.957-7.771,1.26-9.485,2.737-15.484-1.432-39.1-1.432-39.1l-9.707-3.645-15.135,52.234Z" transform="translate(-1345.917 -2504.703)" fill="#5858c6"/>
            <path id="Trazado_62900" data-name="Trazado 62900" d="M1290.547,2688.537l6.531-19.016,6.816-39.9-41.062,5.36s-11.5,17.271-14.235,31.564c-.907,4.739-.992,12.736-.892,21.992Z" transform="translate(-1241.23 -2483.654)" fill="#7473e8"/>
            <path id="Trazado_62901" data-name="Trazado 62901" d="M1278.642,2243.9s-15.223-.968-21.245,5.583,13.36,58.374,14.454,66.712-5.583,30.507-5.583,30.507,35.761,7.181,45.981.431c0,0,1.095-59.955,0-65.911s-10.22-30.176-12.41-32.558S1278.642,2243.9,1278.642,2243.9Z" transform="translate(-1247.733 -2190.84)" fill="#e9faff"/>
            <path id="Trazado_62902" data-name="Trazado 62902" d="M1352.655,2158.745s-.079.448-.22,1.209c-.679,3.652-3.293,15.77-5.058,19.1-2.134,4.025,7.305,16.864,16.39,15.3,2.7-.466-2.286-11.8-2.046-13,.459-2.3,1.082-5.432,1.719-8.646.359-1.813.723-3.651,1.065-5.378.972-4.909,1.764-8.925,1.764-8.925Z" transform="translate(-1316.678 -2125.984)" fill="#f7a491"/>
            <path id="Trazado_62903" data-name="Trazado 62903" d="M1368.028,2159.954c.141-.761.22-1.209.22-1.209l13.614-.339s-.792,4.015-1.764,8.925c-.34,1.718-.7,3.545-1.059,5.348a12.761,12.761,0,0,1-6.5-3.252,17.144,17.144,0,0,1-4.924-7.308C1367.782,2161.26,1367.922,2160.52,1368.028,2159.954Z" transform="translate(-1332.271 -2125.984)" fill="#f47458"/>
            <path id="Trazado_62904" data-name="Trazado 62904" d="M1361.258,2031.536s-6.417-.74-10.439,4.452-8.357,21.247,1.634,29.975,19.864-1.152,21.327-11.627S1375.814,2031.158,1361.258,2031.536Z" transform="translate(-1316.119 -2029.658)" fill="#f7a491"/>
            <path id="Trazado_62905" data-name="Trazado 62905" d="M1455.258,2107.6c-1.192,2.314-3.194,3.595-4.471,2.862s-1.345-3.2-.153-5.518,3.194-3.595,4.471-2.862S1456.451,2105.282,1455.258,2107.6Z" transform="translate(-1394.64 -2083.073)" fill="#f7a491"/>
            <path id="Trazado_62906" data-name="Trazado 62906" d="M1343.071,2024.017s-8.572,15.268-14.705,15.973-6.938,8.818-6.938,8.818,2.193-18.693,8.264-22.3S1343.071,2024.017,1343.071,2024.017Z" transform="translate(-1297.214 -2023.855)" fill="#ff862d"/>
            <g id="Grupo_29786" data-name="Grupo 29786" transform="translate(28.222 15.633)">
              <path id="Trazado_62907" data-name="Trazado 62907" d="M1343.041,2104.424c-.484-.668-4.73-6.578-4.915-8.422-.005-.052-.5-5.185,1.3-6.8a1.831,1.831,0,0,1,1.661-.427c2.754.58,5.16,4.82,5.261,5l-.867.474c-.023-.041-2.245-4.071-4.587-4.564a.9.9,0,0,0-.849.209c-1.107.993-1.148,4.479-1,6.011.121,1.208,2.9,5.428,4.743,7.969Z" transform="translate(-1338.061 -2088.732)" fill="#e9faff"/>
            </g>
            <path id="Trazado_62908" data-name="Trazado 62908" d="M1336.688,2093.168c.5,2.711-.489,5.317-2.225,5.673s-3.564-1.673-4.062-4.384.5-5.2,2.24-5.554S1336.189,2090.456,1336.688,2093.168Z" transform="translate(-1303.928 -2073.196)" fill="#f7a491"/>
            <g id="Grupo_29787" data-name="Grupo 29787" transform="translate(0 58.291)">
              <path id="Trazado_62909" data-name="Trazado 62909" d="M1391.336,2337.192c-6.581,5.293-17.206,16.976-25.65,22.62-9.537-6.052-25.63-21.594-25.63-21.594l-12.917,15.888c-.318.065,36.021,25.257,41.676,23.977,6.674-1.511,20.989-22,28.65-35.955Z" transform="translate(-1301.547 -2319.98)" fill="#f7a491"/>
              <path id="Trazado_62910" data-name="Trazado 62910" d="M1271.54,2292.56s-22.908-22.8-32.2-26a13.853,13.853,0,0,0-18.391,12.344c-.58,8.714,36.051,33.667,36.051,33.667Z" transform="translate(-1220.94 -2265.764)" fill="#a4e5ff"/>
            </g>
            <path id="Trazado_62911" data-name="Trazado 62911" d="M1458.038,2100.552a3.486,3.486,0,0,1,.218.907l-1.3,2.8-.627,0,1.593-3.785A.52.52,0,0,1,1458.038,2100.552Z" transform="translate(-1399.611 -2082.009)" fill="#e9faff"/>
            <path id="Trazado_62912" data-name="Trazado 62912" d="M1374.554,2106.224a60.662,60.662,0,0,1-10.039-1.523c-5.671-1.329-13-.388-13-.388l-4.193,8.229s1.329,11.031,13.645,14.22c0,0,3.987.8,8.949-3.633S1374.554,2106.224,1374.554,2106.224Z" transform="translate(-1316.872 -2084.679)" fill="#e9faff"/>
          </g>
        </g>
        <g id="Grupo_29790" data-name="Grupo 29790" transform="translate(91.366 55.639)">
          <path id="Trazado_62913" data-name="Trazado 62913" d="M1609.117,2259.81c-1.293.043-4,.36-4.64,1.487,0,.009-1.032,2.41-1.2,14.545l-3.167-.225c1.028-13.853,2.345-15.465,2.269-15.3.992-2.027,4.219-2.509,6.468-2.476l.381.012Z" transform="translate(-1600.111 -2257.099)" fill="#ff862d"/>
          <rect id="Rectángulo_6091" data-name="Rectángulo 6091" width="2.707" height="3.316" transform="translate(35.756 4.444) rotate(180)" fill="#ff862d"/>
          <path id="Trazado_62914" data-name="Trazado 62914" d="M1629.83,2347.666a31.22,31.22,0,0,0-3.36-14.089l-.435-.86-10.632-.075-1.005,2.337a31.222,31.222,0,0,0-2.539,12.455l.123,31.584h0v0c0,1.081,4,1.958,8.923,1.958s8.923-.877,8.923-1.958Z" transform="translate(-1609.028 -2313.875)" fill="#7473e8"/>
          <rect id="Rectángulo_6092" data-name="Rectángulo 6092" width="9.857" height="8.03" transform="translate(17.056 21.294) rotate(180)" fill="#466eb6"/>
          <path id="Trazado_62915" data-name="Trazado 62915" d="M1634.574,2254.757h25.9v4.85a3.722,3.722,0,0,1-3.722,3.722h-8.267c-1.5,0-4.126,1.322-4.126,2.823l-.638,4.341-7.338.054v-7.218h-1.8Z" transform="translate(-1626.27 -2254.757)" fill="#e9faff"/>
        </g>
        <path id="Trazado_62916" data-name="Trazado 62916" d="M1570.04,2279.193s5.711-9.9,7.116-11.81,1.438-8.106,1.949-9.638,4.214.511,3.064,3.319-.093,3.51.929,4.021,10.214-.851,12,.511,1.021,3.745,0,4.086c0,0,1.447,1.447.936,2.979s-1.192,1.787-1.192,1.787.6.255.341,1.872a2.131,2.131,0,0,1-1.532,1.873,2.559,2.559,0,0,0-.426,1.787c.085,1.191-1.532,1.021-5.192,1.447s-4.75-.3-6.027.639-2.383,4.468-2.383,4.468Z" transform="translate(-1485.92 -2200.988)" fill="#5858c6"/>
      </g>
      <g id="Grupo_29801" data-name="Grupo 29801" transform="translate(0 0)">
        <g id="Grupo_29794" data-name="Grupo 29794">
          <path id="Trazado_62917" data-name="Trazado 62917" d="M384.13,2472.4s-17.078,7.3-19.766,6.845a25.706,25.706,0,0,0-3.957-1.3c-2.66-.693-9.463-.977-13.228.469s-7.026,1.438-7.071,2.615.549,1.554,2.211,1.491,6.1-1.193,6.117-1.144c.23.637.385.14-.756.6-.962.384-10.724,4.852-13.766,6.245a1.015,1.015,0,0,0-.51,1.323h0a1.016,1.016,0,0,0,1.307.545l10.16-4.006a.109.109,0,0,1,.13.041h0a.109.109,0,0,1-.046.16l-11.707,5.155a1.242,1.242,0,0,0-.693,1.483h0a1.243,1.243,0,0,0,1.666.8l12.137-4.994a.106.106,0,0,1,.14.062h0a.106.106,0,0,1-.057.133l-11.587,5.064a1.181,1.181,0,0,0-.656,1.426h0a1.18,1.18,0,0,0,1.566.752l11.182-4.459a.1.1,0,0,1,.135.069h0a.1.1,0,0,1-.058.117l-9.308,4.039a1.267,1.267,0,0,0-.7,1.554h0a1.266,1.266,0,0,0,1.218.873c2.249-.025,8.355-2.263,14.106-3.824,7.279-1.975,36.309-10,36.309-10s.349-6.083-2.258-8.425S384.12,2474.481,384.13,2472.4Z" transform="translate(-332.506 -2352.365)" fill="#f48c7f"/>
          <path id="Trazado_62918" data-name="Trazado 62918" d="M536.408,2259.009l-9.866,44.574-22.936,8.424,6.186,13.64,32.281-6.773-4.736-23.681Z" transform="translate(-462.378 -2190.392)" fill="#e27023"/>
          <g id="Grupo_29792" data-name="Grupo 29792" transform="translate(77.022 159.765)">
            <path id="Trazado_62919" data-name="Trazado 62919" d="M787.256,2759.467c0,.012.008.028.013.05Z" transform="translate(-754.7 -2730.023)" fill="#f7cc7f"/>
            <path id="Trazado_62920" data-name="Trazado 62920" d="M683.626,2694.346c.933-10.9.906-28.19,1.079-27.628l-7.44-29.444c-8.481.037-16.724.078-24.031.073-.241,1.605-.482,3.31-.721,5.147-1.567,12.251,2.234,33.377,5.681,51.852Z" transform="translate(-652.149 -2637.275)" fill="#5858c6"/>
          </g>
          <path id="Trazado_62921" data-name="Trazado 62921" d="M750.3,2694.344h26.689c-1.337-12.6,10.092-41.839,8.73-52.905-12.216-.2-28.635-4.226-42.765-4.166l-4.262,14.1c2.48,11.28,2.791,41.555,3.554,42.89Z" transform="translate(-640.815 -2477.508)" fill="#7473e8"/>
          <path id="Trazado_62922" data-name="Trazado 62922" d="M640.028,2232.4l9.031-3.059s16.262-4.626,19.318-5.261c.265-.055,9.579,28.165,17.219,49.358s16.495,66.3,16.495,66.3a87.238,87.238,0,0,1-27.171,8.332c-15.8,2-37.421,1.37-37.421,1.37s4.893-58.754,4.67-72.419S640.028,2232.4,640.028,2232.4Z" transform="translate(-564.008 -2163.881)" fill="#e9faff"/>
          <path id="Trazado_62923" data-name="Trazado 62923" d="M607.415,2290.431l6.7-49.394,11.8-5.705s-4.725,22.7-4.613,41.5-1.821,89.671-1.821,89.671-8.442,3.135-11.911-1.577S607.415,2290.431,607.415,2290.431Z" transform="translate(-540.087 -2172.42)" fill="#ff862d"/>
          <path id="Trazado_62924" data-name="Trazado 62924" d="M770.016,2291.972c2.221-52.973-9.726-65.5-9.726-65.5l-25.036-2.309s-13.432,31.48-8.435,74.306c2.657,22.771,8.163,43.312,17.592,53.618,6.874,7.515,33.4-1.67,38.13-11.411C783.4,2339.334,768.914,2318.278,770.016,2291.972Z" transform="translate(-630.959 -2163.944)" fill="#ff862d"/>
          <path id="Trazado_62925" data-name="Trazado 62925" d="M698.708,2151.534l2.62,17.5s-3.8,17.057-10.838,16.175c-5.907-.74-8.141-10.622-8.141-10.622s.041-3.9-.056-8.406a31.284,31.284,0,0,0-1.15-8.763C679.218,2151.91,698.708,2151.534,698.708,2151.534Z" transform="translate(-597.032 -2108.814)" fill="#f48c7f"/>
          <path id="Trazado_62926" data-name="Trazado 62926" d="M681.068,2160.317c-1.924-5.51,14.455-4.6,14.455-4.6l3-.362a16.052,16.052,0,0,1-2.528,5.724c-3.149,4.165-9.065,6.96-13.78,7.975A31.224,31.224,0,0,0,681.068,2160.317Z" transform="translate(-596.958 -2111.711)" fill="#f47458"/>
          <g id="Grupo_29793" data-name="Grupo 29793" transform="translate(67.769)">
            <path id="Trazado_62927" data-name="Trazado 62927" d="M622.081,2034.086s-1.474,11.593,1.727,19.153a42.511,42.511,0,0,0,7.236,11.8l7.6-31.4Z" transform="translate(-619.816 -2019.329)" fill="#271651"/>
            <path id="Trazado_62928" data-name="Trazado 62928" d="M652.86,2027.769c.381-.3,10.672,21.027,6.963,29.125s-14.036,13.95-19.693,10.439c-6.257-3.883-14.086-28.055-7.234-37.4S652.86,2027.769,652.86,2027.769Z" transform="translate(-626.263 -2012.872)" fill="#f7a491"/>
            <path id="Trazado_62929" data-name="Trazado 62929" d="M750.092,2133.762a14.19,14.19,0,0,0,.617-7.356l-.283.073-1.265,9.046A18.065,18.065,0,0,0,750.092,2133.762Z" transform="translate(-716.532 -2089.741)" fill="#f47458"/>
            <path id="Trazado_62930" data-name="Trazado 62930" d="M635.36,1975.106c6.783,1.808,10.573,3.706,17.422,9.5,8.421,7.122,5.259,20.381.556,27.354s-2.781,12.364-2.781,12.364l-1.927-2.377c-1.473-1.953-1.58-12.636-1.414-14.059.437-3.753.5-4.548-1.749-6.8-1.729-1.734-3.185-6.718-5.962-9.61l-9.756,2.458s-6.172,1.4-10.547-.434C606.638,1988.229,617.363,1970.119,635.36,1975.106Z" transform="translate(-613.749 -1974.246)" fill="#271651"/>
            <path id="Trazado_62931" data-name="Trazado 62931" d="M634.1,2120.713s1.586,14.274,8.191,17.821c4.135,2.221,14.788-1.145,19.654-9.732,0,0-4.866-7.537-5.152-11.067,0,0-8.736.917-15.4,1.868C636.915,2120.243,634.1,2120.713,634.1,2120.713Z" transform="translate(-629.196 -2083.16)" fill="#e9faff"/>
            <path id="Trazado_62932" data-name="Trazado 62932" d="M726.3,2082.1l-5.152,10.018,1.145.1,4.723-9.779Z" transform="translate(-695.27 -2056.112)" fill="#e9faff"/>
            <path id="Trazado_62933" data-name="Trazado 62933" d="M746.888,2119.843l-1.717,10.3,1.081.159,1.654-10.59Z" transform="translate(-713.503 -2084.663)" fill="#e9faff"/>
            <path id="Trazado_62934" data-name="Trazado 62934" d="M741.465,2082.955c.075,2.884,1.494,5.187,3.17,5.143s2.974-2.416,2.9-5.3-1.494-5.186-3.17-5.143S741.391,2080.072,741.465,2082.955Z" transform="translate(-710.688 -2052.738)" fill="#f7a491"/>
          </g>
          <path id="Trazado_62935" data-name="Trazado 62935" d="M396.133,2538.8a4.086,4.086,0,0,1,2.286-4.3,3.583,3.583,0,1,1,6.831-1.957l1.393,9.192a3.087,3.087,0,1,1-6.1.925,3.011,3.011,0,0,1-.034-.41A4.084,4.084,0,0,1,396.133,2538.8Z" transform="translate(-380.766 -2395.706)" fill="#e9faff"/>
          <path id="Trazado_62936" data-name="Trazado 62936" d="M407.363,2497.673a3.744,3.744,0,0,1,.443,4.533,2.9,2.9,0,0,1,.663.493,3.6,3.6,0,0,1-5.049,5.084l-5.925-5.884a3.1,3.1,0,0,1,4.35-4.38,2.415,2.415,0,0,1,.242.28A3.859,3.859,0,0,1,407.363,2497.673Z" transform="translate(-381.261 -2370.801)" fill="#e9faff"/>
          <path id="Trazado_62937" data-name="Trazado 62937" d="M422.335,2516.138a1.6,1.6,0,1,1-1.818-1.477A1.658,1.658,0,0,1,422.335,2516.138Z" transform="translate(-398.276 -2384.431)" fill="#e9faff"/>
          <path id="Trazado_62938" data-name="Trazado 62938" d="M397.915,2526.451h0a5.758,5.758,0,0,1-8.132-.414l-4.532-5.018a5.758,5.758,0,0,1,.414-8.132h0a5.758,5.758,0,0,1,8.132.414l4.532,5.018A5.758,5.758,0,0,1,397.915,2526.451Z" transform="translate(-371.415 -2381.968)" fill="#5858c6"/>
          <path id="Trazado_62939" data-name="Trazado 62939" d="M401.586,2522.969c-4.649,1.515-13.471,2.292-15.362,1.62,0,0-.923-.323-3.551-1.52s-9.149-1.6-13.305-.779-7.531.223-7.789,1.433.288,1.708,2.02,1.941,6.531-.138,6.536-.083c.022.234-.553.415-.89.48-1.068.208-11.972,3.09-15.371,3.985a1.067,1.067,0,0,0,.488,2.077l11.236-2.317a.114.114,0,0,1,.05.222l-13.043,3.228a1.305,1.305,0,0,0,.6,2.541l13.459-2.984a.112.112,0,0,1,.051.217l-12.9,3.156a1.24,1.24,0,0,0,.55,2.418l12.476-2.394c.063-.013.116.064.12.128s.091.43.041.443l-10.575,1.933a1.33,1.33,0,0,0-1,1.482h0a1.33,1.33,0,0,0,1.1,1.123c2.332.379,7.805-.82,14.038-1.4,2.694-.251,9.11-2.359,14.981-3.286a35.312,35.312,0,0,1,17.679,1.512c.511-1.758,2.2-6.217,1.579-8.072C403.95,2527.567,402.545,2525.365,401.586,2522.969Z" transform="translate(-347.009 -2389.906)" fill="#f7a491"/>
          <path id="Trazado_62940" data-name="Trazado 62940" d="M422.206,2560.151a2.082,2.082,0,1,1-2.365-1.91A2.152,2.152,0,0,1,422.206,2560.151Z" transform="translate(-397.45 -2417.506)" fill="#e9faff"/>
          <path id="Trazado_62941" data-name="Trazado 62941" d="M413.6,2564.009a2.082,2.082,0,1,1-2.365-1.91A2.152,2.152,0,0,1,413.6,2564.009Z" transform="translate(-390.914 -2420.434)" fill="#e9faff"/>
          <path id="Trazado_62942" data-name="Trazado 62942" d="M408.819,2575.927a1.409,1.409,0,1,1-1.59-1.2A1.409,1.409,0,0,1,408.819,2575.927Z" transform="translate(-388.302 -2430.023)" fill="#e9faff"/>
          <path id="Trazado_62943" data-name="Trazado 62943" d="M418.286,2586.544a1.684,1.684,0,1,1-1.829-1.131A1.534,1.534,0,0,1,418.286,2586.544Z" transform="translate(-395.119 -2438.13)" fill="#e9faff"/>
          <path id="Trazado_62944" data-name="Trazado 62944" d="M419.228,2576.378a1.684,1.684,0,1,1-1.829-1.131A1.535,1.535,0,0,1,419.228,2576.378Z" transform="translate(-395.834 -2430.414)" fill="#e9faff"/>
          <path id="Trazado_62945" data-name="Trazado 62945" d="M534.542,2301.892l1.745,17.129s59.424-1.747,63.231-3.333,20.3-51.07,20.3-51.07,4.383-29.665-4.628-32.12-15.038,6.744-18.845,20.384-11.419,40.285-11.419,40.285Z" transform="translate(-485.859 -2169.968)" fill="#e27023"/>
        </g>
        <g id="Grupo_29800" data-name="Grupo 29800" transform="translate(85.137 9.631)">
          <path id="Trazado_62946" data-name="Trazado 62946" d="M876.145,2072.812c2.953-9.425,1.1-27.045-3.489-35.49-9.052-16.66-35.281-31.272-49.678-17.854-14.643,3.22-26.115,18.116-26.542,33.051-15.891,8.755-25.813,28.92-11.3,44.87-4.482,13.848,6.566,33.64,17.113,43.316,2.532,2.322-1.572,18.464,13.845,25.7C826.987,2171.516,913.986,2166.843,876.145,2072.812Z" transform="translate(-755.85 -2014.216)" fill="#271651"/>
          <g id="Grupo_29799" data-name="Grupo 29799" transform="translate(0 9.897)">
            <path id="Trazado_62947" data-name="Trazado 62947" d="M956.557,2063.143a17.84,17.84,0,0,1,9.8,7.307c3.776,5.847,6.686,24.126-5.431,31.95s-21.911-4.738-22.2-15.74S940.561,2061.009,956.557,2063.143Z" transform="translate(-877.768 -2061.092)" fill="#f7a491"/>
            <path id="Trazado_62948" data-name="Trazado 62948" d="M927.774,2135.887c.249,2.6,1.679,4.591,3.194,4.446s2.541-2.371,2.292-4.971-1.679-4.591-3.194-4.446S927.524,2133.286,927.774,2135.887Z" transform="translate(-869.445 -2112.687)" fill="#f7a491"/>
            <path id="Trazado_62949" data-name="Trazado 62949" d="M993.62,2055.288s9.407,20.639,15.7,22.075,6.206,9.526,6.206,9.526-1.6-21.888-7.506-26.173S993.62,2055.288,993.62,2055.288Z" transform="translate(-919.453 -2055.288)" fill="#271651"/>
            <path id="Trazado_62950" data-name="Trazado 62950" d="M1046.6,2150.605c-.829,2.611-.07,5.182,1.694,5.742s3.868-1.1,4.7-3.713.07-5.182-1.695-5.742S1047.43,2147.995,1046.6,2150.605Z" transform="translate(-959.412 -2124.737)" fill="#f7a491"/>
            <g id="Grupo_29795" data-name="Grupo 29795" transform="translate(0 14.672)">
              <path id="Trazado_62951" data-name="Trazado 62951" d="M686.3,2157.455c-3.389-5.822,12.125-16.442,23.544-25.562a61.324,61.324,0,0,1,8.092-6.034c3.162-2.745,8.89-7.454,14.389-9.573.9-.345,8.846.247,9.578.26s5.388,1.431,4.261,3.166c-.267.411-3.406-.051-5.47-.375,2.326.5,6.559,1.911,6.907,2.657.813,1.743-7.047.791-9.328.264-1.824-.421-4.826,2.892-5.956,4.237l-.008.01a1.152,1.152,0,0,0,.622,1.848,2.782,2.782,0,0,0,1.7-.035c.237-.1,1.226-1.941,2.07-2.4,1.341-.726,2.515.087,1.245,2.106a40.03,40.03,0,0,1-2.491,3.494c-1.5,1.9-8.323,2.8-9.956,2.531-.819.013-3.11.671-3.563.669a132.112,132.112,0,0,0-16.839,17.812c9.571,2.654,25.629,7.977,25.629,7.977s1.051,20.312.041,19.7S690.249,2164.239,686.3,2157.455Z" transform="translate(-685.826 -2116.179)" fill="#f7a491"/>
            </g>
            <g id="Grupo_29796" data-name="Grupo 29796" transform="translate(98.195 14.218)">
              <path id="Trazado_62952" data-name="Trazado 62952" d="M1103.614,2114.295c.013,0-4.918.316-4.906.313-2.284.665-5.026,2.019-5.32,2.789-.687,1.8,5.808-.3,8.046-.992,1.479-.455,6.591,1.411,8.565,2.58Z" transform="translate(-1093.338 -2114.295)" fill="#f48c7f"/>
              <path id="Trazado_62953" data-name="Trazado 62953" d="M1162.483,2133.76l.956.7A4.754,4.754,0,0,0,1162.483,2133.76Z" transform="translate(-1145.822 -2129.07)" fill="#f79c8d"/>
            </g>
            <path id="Trazado_62954" data-name="Trazado 62954" d="M959.648,2736.718c.022-34.784-13.622-44.888-15.673-43.5l-50.838,5.287-10.492,38.209Z" transform="translate(-835.219 -2539.41)" fill="#271651"/>
            <path id="Trazado_62955" data-name="Trazado 62955" d="M779.627,2283.821l4.917-19.09,41.844,5.162s11.751-.753,18.08-.553c4.486.143,30.054-3.649,47.056-7.857.1.225,3.072,15.6,6.054,21.294-12.763,6.387-19.181,7.055-27.974,14.613,0,.032-.905,37.7-1.8,59.878,1.911,5.513,6.717,16.679,6.717,16.679s-15.658,8.948-39.45,6.914a127.255,127.255,0,0,1-24.605-4.474s4.39-15.881,5.563-25.151c-5.112-22.736-12.816-55.1-12.816-55.1Z" transform="translate(-757.025 -2211.798)" fill="#7473e8"/>
            <path id="Trazado_62956" data-name="Trazado 62956" d="M985.867,2210.675s1.344,15.5,3.073,19.794,1.468,19.742-7.878,22.53-9.178-17.035-9.565-21.627-.813-19.613-.813-19.613Z" transform="translate(-902.043 -2173.233)" fill="#f7a491"/>
            <path id="Trazado_62957" data-name="Trazado 62957" d="M986.337,2215.378a16.967,16.967,0,0,1-3.362,2.8c-4.527,2.883-8.678,2.842-12.05,1.117-.145-4.093-.242-7.535-.242-7.535l15.184-1.084S986.038,2212.646,986.337,2215.378Z" transform="translate(-902.043 -2173.233)" fill="#f47458"/>
            <path id="Trazado_62958" data-name="Trazado 62958" d="M934.754,2144.326l-2.922,14.821s5.914,7.654,11.9,8.35,4.732.418,7.932-.139,10.251-5.427,10.251-5.427-.835-12.385-.139-14.612C961.775,2147.318,946.583,2150.727,934.754,2144.326Z" transform="translate(-872.554 -2122.871)" fill="#e9faff"/>
            <g id="Grupo_29797" data-name="Grupo 29797" transform="translate(85.827 18.007)">
              <path id="Trazado_62959" data-name="Trazado 62959" d="M1042.757,2152.861l-.595-.941c.033-.021,3.288-2.083,6.659-4.436,5.848-4.082,7.193-5.635,7.474-6.2,1.094-2.188.771-8.259-.524-9.842-.314-.384-.535-.325-.641-.3-2.016.545-8.317,5.53-10.575,7.405l-.01.008c-.282.223-1.7,1.344-1.915,1.488l-.618-.926c.132-.088,1.152-.888,1.837-1.43.406-.337,8.341-6.9,10.99-7.62a1.683,1.683,0,0,1,1.794.666c1.693,2.07,1.866,8.63.658,11.044-.217.435-.88,1.759-7.836,6.615C1046.064,2150.766,1042.79,2152.84,1042.757,2152.861Z" transform="translate(-1042.012 -2130.016)" fill="#e9faff"/>
            </g>
            <g id="Grupo_29798" data-name="Grupo 29798" transform="translate(50.262 17.026)">
              <path id="Trazado_62960" data-name="Trazado 62960" d="M906.034,2146.529c-.026-.013-2.643-1.334-5.327-2.97a38.137,38.137,0,0,1-3.87-2.64,6.465,6.465,0,0,1-2.287-2.655c-.491-1.6.489-4.5.933-5.68a17.023,17.023,0,0,1,3.251-5.637,2.4,2.4,0,0,1,2.355-.929c2.634.8,7.3,6.41,7.5,6.648l-.857.711c-1.287-1.552-5.048-5.706-6.971-6.294-.288-.088-.74.149-1.241.65a16.163,16.163,0,0,0-3,5.245c-.816,2.159-1.174,4.106-.911,4.959.557,1.811,6.994,5.622,10.92,7.6Z" transform="translate(-894.415 -2125.948)" fill="#e9faff"/>
            </g>
            <ellipse id="Elipse_1395" data-name="Elipse 1395" cx="12.688" cy="15.86" rx="12.688" ry="15.86" transform="translate(45.874 74.021)" fill="#7473e8"/>
            <path id="Trazado_62961" data-name="Trazado 62961" d="M1079.3,2374.387c0,8.759-5.681,15.86-12.688,15.86s-12.688-7.1-12.688-15.86,5.681-15.86,12.688-15.86S1079.3,2365.628,1079.3,2374.387Z" transform="translate(-965.224 -2285.458)" fill="#7473e8"/>
            <path id="Trazado_62962" data-name="Trazado 62962" d="M1095.821,2111.55c-3.235.208-4.651-.789-5.8-.163s2.714,2.645,4.175,3.271,8.87,2.261,10.436,1.53,5.74,1.878,9.6,5.636,17.541,17.191,17.541,17.191l-8.879,4.621,5.219,15.551s23.493-10.569,25.58-15.579c.57-1.369-6.786-10.857-15.866-17.954s-25.578-15.311-26.935-16.772-9.184-5.427-9.81-5.844-7.954.163-7.954.163-7.276,3.755-6.865,4.917c.626,1.774,6.912-1.716,7.19-1.716.155,0,2.074.774,4.453,1.762,1.8.748,1.3,2.227.464,2.691A6.284,6.284,0,0,1,1095.821,2111.55Z" transform="translate(-989.762 -2091.417)" fill="#f79c8d"/>
            <path id="Trazado_62963" data-name="Trazado 62963" d="M1203.2,2261.483c-3.976.984-8.42,1.945-12.953,2.838l7.413,23.658c3.267-1.624,7.1-2.953,11.594-5.2C1206.27,2277.083,1203.3,2261.708,1203.2,2261.483Z" transform="translate(-1068.699 -2211.798)" fill="#7473e8"/>
            <path id="Trazado_62964" data-name="Trazado 62964" d="M890.423,2155.781c-.844.457-1.833,2.3-2.07,2.4l.825,3.2a40.009,40.009,0,0,0,2.491-3.494C892.939,2155.868,891.764,2155.055,890.423,2155.781Z" transform="translate(-839.552 -2131.367)" fill="#f7a491"/>
          </g>
        </g>
      </g>
    </g>
    <path id="Trazado_62965" data-name="Trazado 62965" d="M956.584,1639.525l5.422.035q-.026,3.144-.138,6.288l4.2.116q.113-3.188.14-6.377l5.422.035q.016-1.948,0-3.9l-5.422.034q-.026-3.189-.14-6.377l-4.2.116q.112,3.143.138,6.288l-5.422.035Q956.6,1637.673,956.584,1639.525Z" transform="translate(-564.535 -237.787)" fill="#5858c6"/>
    <g id="Grupo_29806" data-name="Grupo 29806" transform="translate(212.833 1550.363)">
      <g id="Grupo_29803" data-name="Grupo 29803" transform="translate(39.259 86.3)">
        <path id="Trazado_62966" data-name="Trazado 62966" d="M414.553,2658.1a.665.665,0,1,1,.579-.742A.666.666,0,0,1,414.553,2658.1Z" transform="translate(-404.638 -2654.28)" fill="#ff862d"/>
        <path id="Trazado_62967" data-name="Trazado 62967" d="M378.165,2664.43a.665.665,0,1,1,.579-.742A.665.665,0,0,1,378.165,2664.43Z" transform="translate(-377.018 -2659.083)" fill="#ff862d"/>
        <path id="Trazado_62968" data-name="Trazado 62968" d="M388.537,2688.563a.665.665,0,1,1,.579-.742A.666.666,0,0,1,388.537,2688.563Z" transform="translate(-384.89 -2677.402)" fill="#ff862d"/>
        <path id="Trazado_62969" data-name="Trazado 62969" d="M415.762,2675.334a.8.8,0,1,1,.694-.89A.8.8,0,0,1,415.762,2675.334Z" transform="translate(-405.442 -2667.16)" fill="#ff862d"/>
        <path id="Trazado_62970" data-name="Trazado 62970" d="M414.766,2667.376a.456.456,0,1,1,.461-.451A.456.456,0,0,1,414.766,2667.376Z" transform="translate(-405.024 -2661.635)" fill="#ff862d"/>
        <path id="Trazado_62971" data-name="Trazado 62971" d="M399.183,2687.783a.456.456,0,1,1,.4-.509A.456.456,0,0,1,399.183,2687.783Z" transform="translate(-393.15 -2677.126)" fill="#ff862d"/>
        <path id="Trazado_62972" data-name="Trazado 62972" d="M386.456,2654.25a.456.456,0,1,1,.4-.508A.455.455,0,0,1,386.456,2654.25Z" transform="translate(-383.49 -2651.674)" fill="#ff862d"/>
        <path id="Trazado_62973" data-name="Trazado 62973" d="M399.735,2648.463a1.026,1.026,0,1,1,.892-1.144A1.025,1.025,0,0,1,399.735,2648.463Z" transform="translate(-393.083 -2646.419)" fill="#ff862d"/>
        <path id="Trazado_62974" data-name="Trazado 62974" d="M376.909,2677.1a1.026,1.026,0,1,1,.892-1.144A1.026,1.026,0,0,1,376.909,2677.1Z" transform="translate(-375.757 -2668.157)" fill="#ff862d"/>
        <path id="Trazado_62975" data-name="Trazado 62975" d="M407.3,2688.432a1.026,1.026,0,1,1,.892-1.144A1.026,1.026,0,0,1,407.3,2688.432Z" transform="translate(-398.827 -2676.757)" fill="#ff862d"/>
        <path id="Trazado_62976" data-name="Trazado 62976" d="M386.478,2659.945a2.135,2.135,0,0,1-.441-.436,3.658,3.658,0,0,1-.454-.775c-.025-.06-.1-.234-.217-.52a3.228,3.228,0,0,0,1.2-1.639h.162q.19,0,.377.011a1.925,1.925,0,0,1,1.049.349l.111-.429a.976.976,0,0,1-.195.018,1.749,1.749,0,0,1-.187-.01,2.087,2.087,0,0,1-.36-.077,2.582,2.582,0,0,1-.345-.135c-.112-.055-.224-.112-.335-.173-.052-.028-.1-.058-.155-.088a3.224,3.224,0,0,0-.03-1.072,3.361,3.361,0,0,1,1.106-.105l-.04-.327a3.441,3.441,0,0,1-1.128.168,3.191,3.191,0,0,0-.379-.842,5.4,5.4,0,0,1,1.659-1.071l-.235-.376a5.535,5.535,0,0,1-1.729,1.042,3.226,3.226,0,0,0-1.563-.972,4.635,4.635,0,0,1,.356-1.743,1.546,1.546,0,0,1,.133-.229l-.628-.151a1.567,1.567,0,0,1,.015.265,4.73,4.73,0,0,1-.491,1.754,3.229,3.229,0,0,0-1.814.409,4.061,4.061,0,0,1-.723-.942,1.6,1.6,0,0,1-.146-.4l-.283.168a1.217,1.217,0,0,1,.151.152,3.631,3.631,0,0,1,.614,1.276,3.229,3.229,0,0,0-.949,1.195,2.525,2.525,0,0,1-1.344-.333l-.115.428a1.625,1.625,0,0,1,.73.108c.149.052.432.192.559.256a3.226,3.226,0,0,0,.019,1.841,3.49,3.49,0,0,1-.828.376,2.094,2.094,0,0,1-.894.083l.2.614a2.1,2.1,0,0,1,.772-.458,3.531,3.531,0,0,1,.918-.184,3.222,3.222,0,0,0,1.283,1.4,6.326,6.326,0,0,1-.421,1.4l.415.154a6.2,6.2,0,0,1,.57-1.293,3.2,3.2,0,0,0,1.415.158,2.427,2.427,0,0,1-.05.837l.329-.014a2.46,2.46,0,0,1-.121-.844,3.206,3.206,0,0,0,.953-.312c.185.232.293.379.339.439a3.015,3.015,0,0,1,.609,1.377Z" transform="translate(-377.999 -2649.413)" fill="#ff862d"/>
      </g>
      <g id="Grupo_29804" data-name="Grupo 29804" transform="translate(47.148 106.795)">
        <path id="Trazado_62977" data-name="Trazado 62977" d="M421.8,2732.139a.665.665,0,1,1-.666-.666A.665.665,0,0,1,421.8,2732.139Z" transform="translate(-417.588 -2731.473)" fill="#ff862d"/>
        <path id="Trazado_62978" data-name="Trazado 62978" d="M423.617,2769.029a.666.666,0,1,1-.666-.666A.666.666,0,0,1,423.617,2769.029Z" transform="translate(-418.964 -2759.474)" fill="#ff862d"/>
        <path id="Trazado_62979" data-name="Trazado 62979" d="M448.841,2761.7a.666.666,0,1,1-.666-.665A.666.666,0,0,1,448.841,2761.7Z" transform="translate(-438.11 -2753.91)" fill="#ff862d"/>
        <path id="Trazado_62980" data-name="Trazado 62980" d="M439.1,2732.276a.8.8,0,1,1-.8-.8A.8.8,0,0,1,439.1,2732.276Z" transform="translate(-430.518 -2731.477)" fill="#ff862d"/>
        <path id="Trazado_62981" data-name="Trazado 62981" d="M430.958,2734.3a.456.456,0,1,1-.391-.513A.456.456,0,0,1,430.958,2734.3Z" transform="translate(-424.858 -2733.228)" fill="#ff862d"/>
        <path id="Trazado_62982" data-name="Trazado 62982" d="M449.3,2752.272a.456.456,0,1,1-.456-.456A.456.456,0,0,1,449.3,2752.272Z" transform="translate(-438.775 -2746.914)" fill="#ff862d"/>
        <path id="Trazado_62983" data-name="Trazado 62983" d="M414.457,2760.786a.456.456,0,1,1-.456-.456A.456.456,0,0,1,414.457,2760.786Z" transform="translate(-412.329 -2753.376)" fill="#ff862d"/>
        <path id="Trazado_62984" data-name="Trazado 62984" d="M410.551,2743.541a1.026,1.026,0,1,1-1.026-1.026A1.026,1.026,0,0,1,410.551,2743.541Z" transform="translate(-408.5 -2739.854)" fill="#ff862d"/>
        <path id="Trazado_62985" data-name="Trazado 62985" d="M436.17,2769.71a1.026,1.026,0,1,1-1.026-1.025A1.026,1.026,0,0,1,436.17,2769.71Z" transform="translate(-427.946 -2759.718)" fill="#ff862d"/>
        <path id="Trazado_62986" data-name="Trazado 62986" d="M451.146,2740.939a1.026,1.026,0,1,1-1.026-1.026A1.026,1.026,0,0,1,451.146,2740.939Z" transform="translate(-439.313 -2737.879)" fill="#ff862d"/>
        <path id="Trazado_62987" data-name="Trazado 62987" d="M422.074,2736.431a2.142,2.142,0,0,1-.487.385,3.655,3.655,0,0,1-.825.356c-.062.017-.245.073-.543.151a3.23,3.23,0,0,0-1.479-1.394c.006-.053.012-.107.019-.161q.024-.188.058-.372a1.926,1.926,0,0,1,.475-1l-.412-.163a.97.97,0,0,1-.006.2,1.6,1.6,0,0,1-.033.184,2.032,2.032,0,0,1-.121.348,2.565,2.565,0,0,1-.176.326q-.1.158-.213.311c-.035.048-.07.1-.107.143a3.243,3.243,0,0,0-1.067-.1,3.354,3.354,0,0,1,.032-1.11h-.329a3.431,3.431,0,0,1,.028,1.141,3.188,3.188,0,0,0-.882.272,5.411,5.411,0,0,1-.859-1.777l-.4.187a5.523,5.523,0,0,1,.822,1.844,3.227,3.227,0,0,0-1.156,1.431,4.623,4.623,0,0,1-1.686-.567,1.621,1.621,0,0,1-.211-.16l-.227.6a1.613,1.613,0,0,1,.264.018,4.718,4.718,0,0,1,1.68.7,3.227,3.227,0,0,0,.183,1.85,4.038,4.038,0,0,1-1.023.6,1.592,1.592,0,0,1-.41.1l.132.3a1.214,1.214,0,0,1,.169-.131,3.626,3.626,0,0,1,1.342-.453,3.235,3.235,0,0,0,1.069,1.089,2.524,2.524,0,0,1-.5,1.293l.411.167a1.628,1.628,0,0,1,.2-.711c.071-.141.243-.405.322-.523a3.224,3.224,0,0,0,1.83.207,3.515,3.515,0,0,1,.272.868,2.1,2.1,0,0,1-.028.9l.634-.123a2.1,2.1,0,0,1-.36-.822,3.512,3.512,0,0,1-.07-.934,3.224,3.224,0,0,0,1.542-1.1,6.34,6.34,0,0,1,1.337.59l.2-.394a6.187,6.187,0,0,1-1.214-.724,3.2,3.2,0,0,0,.331-1.385,2.435,2.435,0,0,1,.825.152l.027-.328a2.464,2.464,0,0,1-.853.017,3.219,3.219,0,0,0-.193-.984c.253-.155.412-.244.477-.282a3.023,3.023,0,0,1,1.442-.435Z" transform="translate(-411.374 -2733.516)" fill="#ff862d"/>
      </g>
      <g id="Grupo_29805" data-name="Grupo 29805" transform="translate(2.223)">
        <path id="Trazado_62988" data-name="Trazado 62988" d="M391.586,2325.8H383.98l-.7-6.958h9Z" transform="translate(-344.435 -2311.473)" fill="#7473e8"/>
        <path id="Trazado_62989" data-name="Trazado 62989" d="M265.208,2288.273H245.7a23.644,23.644,0,0,0-23.644,23.644l.023,47.271h7.839l.06-47.271A15.721,15.721,0,0,1,245.7,2296.2h24.882v-2.544A5.378,5.378,0,0,0,265.208,2288.273Z" transform="translate(-222.06 -2288.273)" fill="#e9faff"/>
      </g>
      <path id="Trazado_62990" data-name="Trazado 62990" d="M235.237,2503.586l-10.425,8.484a8.253,8.253,0,1,0,4.5,6.73l11.013-8.963a4.03,4.03,0,0,0-5.087-6.251Z" transform="translate(-212.833 -2451.018)" fill="#7473e8"/>
      <path id="Trazado_62991" data-name="Trazado 62991" d="M409.3,2447.119a2.057,2.057,0,1,1-4.113,0c0-1.136,2.057-13.258,2.057-13.258S409.3,2445.983,409.3,2447.119Z" transform="translate(-358.838 -2398.78)" fill="#e9faff"/>
      <path id="Trazado_62992" data-name="Trazado 62992" d="M396.6,2368a2.057,2.057,0,0,1-4.114,0c0-1.136,2.057-15.275,2.057-15.275S396.6,2366.859,396.6,2368Z" transform="translate(-349.193 -2337.191)" fill="#e9faff"/>
      <path id="Trazado_62993" data-name="Trazado 62993" d="M380.425,2415.115a2.057,2.057,0,0,1-4.114,0c0-1.136,2.057-13.884,2.057-13.884S380.425,2413.979,380.425,2415.115Z" transform="translate(-336.919 -2374.012)" fill="#e9faff"/>
    </g>
  </g>
</svg>
