<svg xmlns="http://www.w3.org/2000/svg" xmlns:xlink="http://www.w3.org/1999/xlink" width="307.14" height="307.14" viewBox="0 0 307.14 307.14">
  <defs>
    <clipPath id="clip-path">
      <path id="Trazado_58215" data-name="Trazado 58215" d="M1120.8,70.8q0,6.18-.49,12.24v.01c-.01.26-.03.52-.06.77a153.573,153.573,0,0,1-306,.46v-.01c.01-.01,0-.01-.01-.02-.05-.54-.09-1.08-.131-1.63v-.01q-.448-5.85-.449-11.81c0-1.62.03-3.23.08-4.84v-.27c.05-1.29.1-2.56.18-3.83q.225-4.095.679-8.13c.181-1.65.391-3.3.631-4.93a.34.34,0,0,1,.01-.1q.435-3.075,1.01-6.12c.17-.94.359-1.88.55-2.82v-.02l.01-.01v-.01c.039-.2.08-.4.13-.6.35-1.72.74-3.42,1.159-5.12l.871-3.39q.9-3.285,1.93-6.53c.86-2.72,1.81-5.42,2.83-8.07q.568-1.515,1.17-3c.68-1.66,1.38-3.29,2.11-4.91V8.09a150.369,150.369,0,0,1,6.98-13.7q1.3-2.265,2.67-4.48c1.27-2.03,2.57-4.03,3.93-5.99q1.514-2.22,3.12-4.38a153.652,153.652,0,0,1,247.08.05c1.069,1.44,2.12,2.91,3.14,4.4V-16q2.025,2.955,3.929,6.01,1.382,2.235,2.691,4.52a149.55,149.55,0,0,1,6.91,13.6q1.11,2.445,2.11,4.93c.41.99.8,1.99,1.18,3,1.02,2.65,1.96,5.35,2.83,8.07q1.035,3.27,1.94,6.59c.25.94.49,1.87.72,2.81.01.04.02.08.03.13.06.22.12.43.17.65v.01l.09.36c0,.02.01.04.01.06.36,1.5.7,3,1.01,4.52.04.17.08.35.11.52.01.01.01.01.01.02v.02q.269,1.3.51,2.61.585,3.1,1.04,6.25c0,.03.01.07.01.1.23,1.61.44,3.23.619,4.86.131,1.14.241,2.28.341,3.43v.03c.15,1.59.26,3.17.35,4.78v.01c.02.21.03.43.04.65.05.98.1,1.97.13,2.96v.08Q1120.8,68.175,1120.8,70.8Z" transform="translate(-6.729 859.77)" fill="#9fd7f4"/>
    </clipPath>
  </defs>
  <g id="Enmascarar_grupo_1" data-name="Enmascarar grupo 1" transform="translate(-806.93 -777)" clip-path="url(#clip-path)">
    <g id="Rect치ngulo_6059" data-name="Rect치ngulo 6059" transform="translate(742 755)" fill="#b8e3fe" stroke="#707070" stroke-width="1">
      <rect width="491" height="384" stroke="none"/>
      <rect x="0.5" y="0.5" width="490" height="383" fill="none"/>
    </g>
    <path id="Trazado_62319" data-name="Trazado 62319" d="M3391.2,1296.658c12.651-64.847,24.246-126.926,24.246-126.926s-36.013,5.456-51.518,18.377-17.074,95.2-22.242,118.455a182.027,182.027,0,0,0-2.716,20.921c-2.939,33.451.72,83.543,3.489,97.587-.183,1.35-1.329,7.979-7.434,20.7,0,0-3.159,9.762,17.515,24.406C3365.718,1479.508,3377.46,1367.145,3391.2,1296.658Z" transform="translate(-2476.862 -230.397)" fill="#d9935c"/>
    <path id="Trazado_62320" data-name="Trazado 62320" d="M3419.937,1169.732s-6.684,35.777-15.437,81.38c-2.774,14.472-5.76,29.925-8.809,45.546-12.393,24.292-23.029,40.808-26.313,37.7-6.7-6.329-18.469-7.11-25.917-6.874a182.027,182.027,0,0,1,2.716-20.921c.408-1.838.793-4.043,1.166-6.553,4.335-29.265,6.793-100,21.076-111.9C3383.924,1175.188,3419.937,1169.732,3419.937,1169.732Z" transform="translate(-2481.351 -230.397)" fill="#739af0"/>
    <path id="Trazado_62321" data-name="Trazado 62321" d="M3404.5,1295.348c-2.774,14.472-5.76,29.925-8.809,45.546-12.393,24.292-23.029,40.808-26.313,37.7-6.7-6.329-18.469-7.11-25.917-6.874a182.021,182.021,0,0,1,2.716-20.921c.408-1.838.793-4.043,1.166-6.553l37.157-89.7Z" transform="translate(-2481.351 -274.633)" fill="#4a75cb"/>
    <path id="Trazado_62322" data-name="Trazado 62322" d="M3554.536,1124.115c.274-12.521.067-27.47-1.624-40.1l-49.974,8.167s0,15.249.219,32.171l-.049.007s-1.363,15.7,17.971,17.995S3555.057,1136.229,3554.536,1124.115Z" transform="translate(-2564.522 -185.694)" fill="#d9935c"/>
    <path id="Trazado_62323" data-name="Trazado 62323" d="M3502.647,1107.525s11.772,24.12,25.267,24.12,26.13-22.684,26.13-22.684Z" transform="translate(-2564.37 -197.955)" fill="#cb7d45"/>
    <path id="Trazado_62324" data-name="Trazado 62324" d="M3572.26,2522.6s1.818-14.165,6.029-22.588,31.011-3.063,31.011-3.063,5.36,4.594,6.509,26.034Z" transform="translate(-2600.675 -921.697)" fill="#233862"/>
    <path id="Trazado_62325" data-name="Trazado 62325" d="M3288.48,2503.165c6.3-3.844,2.713-32.517,2.713-32.517s-29.343-23.475-33.377-5.5-27.876,26.042-41.447,28.243c-9.368,1.519-12.269,6.708-13.167,9.776Z" transform="translate(-2408.202 -902.456)" fill="#233862"/>
    <path id="Trazado_62326" data-name="Trazado 62326" d="M3545.708,989.926s33.36-52.6-30.7-56.08c0,0-24.026,2.828-29.466-2.611,0,0-18.636,28.325-1.231,58.691S3545.708,989.926,3545.708,989.926Z" transform="translate(-2550.934 -106.015)" fill="#233862"/>
    <path id="Trazado_62327" data-name="Trazado 62327" d="M3498.928,1042.512c4.856,3.821,19.094,7.614,23.21,8.058,0,0,21.112-4.708,24.95-7.022,5.943-3.6,5.561-10.9,5.865-21.034.365-12,1.575-21.426.235-28.344-1.593-8.276-6.84-12.984-21.531-14.264-26.969-2.341-38.2,4.413-38.674,13.455-.122,2.428-.235,4.743-.313,6.936C3491.592,1028.492,3493.819,1038.491,3498.928,1042.512Z" transform="translate(-2559.029 -131.154)" fill="#d9935c"/>
    <path id="Trazado_62328" data-name="Trazado 62328" d="M3399.494,1868.122a135.382,135.382,0,0,0-2.154,15.85c-2.727,53.206-44.787,174.86-52.311,177.7-11.64,4.393-29.971-4.944-39.562-8a8.226,8.226,0,0,1-5.771-9.344c20.829-95.755,28.484-233.638,31.269-315.271,1.408-41.119,8.465-69.522,8.465-69.522s102.583-27.37,103.192,7.253C3443.163,1697.424,3408.642,1817.58,3399.494,1868.122Z" transform="translate(-2458.438 -480.485)" fill="#2b478b"/>
    <path id="Trazado_62329" data-name="Trazado 62329" d="M3433.761,1868.122l-68.529-139.066c1.408-41.119,8.465-69.522,8.465-69.522s102.583-27.37,103.191,7.253C3477.429,1697.424,3442.908,1817.58,3433.761,1868.122Z" transform="translate(-2492.705 -480.485)" fill="#233862"/>
    <path id="Trazado_62330" data-name="Trazado 62330" d="M3460.754,1672.512l54.229,393.038s23.814,5.743,42.337,1.148c0,0,15.876-209.036,14.553-259.572s11.395-135.225-2.9-144.565S3460.754,1672.512,3460.754,1672.512Z" transform="translate(-2542.522 -486.089)" fill="#2b478b"/>
    <path id="Trazado_62331" data-name="Trazado 62331" d="M3532.332,1406.855a8.1,8.1,0,0,1-7.977,8.419l-85.458,1.3-62.768.959c-2.94.051,6.351-23.465,6.541-176.8.045-34.215,53.017-71.032,53.993-71.032l.011.011c0,4.927,7.765,14.024,19.727,14.8,14.2.93,31.614-6.134,31.614-14.311a38.017,38.017,0,0,1,4.3,5.553c7.087,10.326,21.363,35.5,30.476,79.33,7.2,34.611,4.428,80.887,9.607,140.594C3532.779,1400,3532.222,1403.835,3532.332,1406.855Z" transform="translate(-2498.088 -230.385)" fill="#ffa412"/>
    <path id="Trazado_62332" data-name="Trazado 62332" d="M3529.179,1415.751s-11.359,5.088-32.607,9.492a321.349,321.349,0,0,1-63.176,6.346c-41.538.265-57.267-14.052-57.267-14.052-2.94.051,6.351-23.465,6.541-176.8.045-34.215,53.017-71.032,53.993-71.032l.011.011s-1.361,45.563,12.422,58.961c0,0,19.33-14.931,44.409-57.427,7.086,10.325,20.174,40.015,29.288,83.844a237.144,237.144,0,0,1,3.883,29.1c2.417,30.241,1.877,67.167,5.725,111.5.379,4.313-.177,8.143-.068,11.164C3532.51,1411.409,3533.733,1415.682,3529.179,1415.751Z" transform="translate(-2498.088 -230.385)" fill="#739af0"/>
    <path id="Trazado_62333" data-name="Trazado 62333" d="M3643.279,1509.239s-11.36,5.088-32.607,9.492c-6.685-10.193-15.11-28.593-16.275-57.588-1.975-49.032,44.6-112.175,44.6-112.175l1.777,28.716c2.417,30.241,1.877,67.167,5.724,111.5.379,4.313-.177,8.143-.068,11.164C3646.61,1504.9,3647.833,1509.17,3643.279,1509.239Z" transform="translate(-2612.188 -323.874)" fill="#4a75cb"/>
    <rect id="Rect치ngulo_6058" data-name="Rect치ngulo 6058" width="91.675" height="125.753" transform="matrix(0.866, -0.5, 0.5, 0.866, 911.356, 1065.177)" fill="#2b478b"/>
    <path id="Trazado_62334" data-name="Trazado 62334" d="M3581.316,1186.735c-9.723-7.351-32.561-12.565-43.8-14.782-3.962-.781-6.483-1.189-6.483-1.189,1.171,5.4,3.808,13.88,7.253,24.056,14.437,42.652,43.053,115.177,37.288,116.721a158.668,158.668,0,0,1-17.3,3.331c-25.1,3.675-58.875,5.3-62.407,5.464-.278-.259-12.308-11.473-16.992-11.473-4.739,0-18.4,4.977-19.792,8.806s-1.952,10.72,1.951,12.251,20.071,5.36,24.252,5.743a11.082,11.082,0,0,0,2.011-.018,423.5,423.5,0,0,0,75.807,15.211c27.795,2.854,44.052,1.27,44.052,1.27C3627.292,1308.792,3594.467,1196.676,3581.316,1186.735Z" transform="translate(-2541.106 -230.936)" fill="#d9935c"/>
    <path id="Trazado_62335" data-name="Trazado 62335" d="M3692.7,1353.259s-16.258,1.585-44.052-1.269c1.532-7.551,2.958-22.3-4.83-35.984a158.507,158.507,0,0,0,17.3-3.331c5.765-1.544-22.851-74.07-37.288-116.721-1.154-13.788-1.763-23.017-1.763-23.017l.993.149c11.239,2.217,34.078,7.431,43.8,14.782C3680.012,1197.809,3712.838,1309.924,3692.7,1353.259Z" transform="translate(-2626.651 -232.069)" fill="#739af0"/>
    <path id="Trazado_62336" data-name="Trazado 62336" d="M3529.251,1223.577s38.668-17.037,39.242-18.377-1.915-11.677-4.594-14.739c0,0,18.568,1.723,19.717-.575s2.009-21.2,2.009-21.2-7.728-8-17.3-8.767c0,0-8.4,20.881-11.51,27.092C3548.584,1203.478,3529.251,1223.577,3529.251,1223.577Z" transform="translate(-2578.245 -225.282)" fill="#4a75cb"/>
    <path id="Trazado_62337" data-name="Trazado 62337" d="M3488.02,1189.975s2.488,19.908,9.188,33.691c0,0-20.2-14.069-21.918-18.664s4.882-13.5,4.882-13.5-12.06-.287-12.347-4.307,3.732-19.812,3.732-19.812,10.373-7.573,13.244-7.287Z" transform="translate(-2546.202 -225.37)" fill="#4a75cb"/>
    <path id="Trazado_62338" data-name="Trazado 62338" d="M3553.23,933.332l-85.872.918s-1.26-25.894,13.622-42.4q1.019-1.146,2.16-2.222A38.306,38.306,0,0,1,3494.87,882c17.164-7.16,31.4-.552,40.3,6.216.878.662,1.7,1.329,2.468,1.991a51.694,51.694,0,0,1,7.537,7.777S3553.509,909.359,3553.23,933.332Z" transform="translate(-2545.952 -78.724)" fill="#ffa412"/>
    <path id="Trazado_62339" data-name="Trazado 62339" d="M3529.138,944.758c-.236-3.487-1.751-33.182,8.679-43.25a16.251,16.251,0,0,0-1.423-1.189c-11.122,11.576-12.007,40.8-11.96,44.489l-27.452.294c-.814-21.031-12.421-41.973-13.814-44.31a19.145,19.145,0,0,0-1.583,1.625c2.015,3.544,9.593,23.819,10.318,42.739l-24.516.262s22.872,5.913,40.1,5.7,45.774-6.617,45.774-6.617Z" transform="translate(-2545.981 -89.892)" fill="#e27f2b"/>
  </g>
</svg>
