<svg xmlns="http://www.w3.org/2000/svg" xmlns:xlink="http://www.w3.org/1999/xlink" width="603.885" height="392.64" viewBox="0 0 603.885 392.64">
  <defs>
    <linearGradient id="linear-gradient" x1="1.772" y1="-3.62" x2="0.081" y2="2.301" gradientUnits="objectBoundingBox">
      <stop offset="0" stop-color="#cb236d"/>
      <stop offset="1" stop-color="#4c246d"/>
    </linearGradient>
    <linearGradient id="linear-gradient-2" x1="1401.782" y1="-10.09" x2="1402.79" y2="-10.09" gradientUnits="objectBoundingBox">
      <stop offset="0" stop-color="#f9b776"/>
      <stop offset="1" stop-color="#f47960"/>
    </linearGradient>
    <linearGradient id="linear-gradient-3" x1="868.421" y1="-10.974" x2="861.401" y2="-3.41" xlink:href="#linear-gradient"/>
    <linearGradient id="linear-gradient-4" x1="1625.373" y1="-7.562" x2="1626.387" y2="-7.562" xlink:href="#linear-gradient-2"/>
    <linearGradient id="linear-gradient-5" x1="-1.346" y1="-0.657" x2="2.694" y2="1.898" gradientUnits="objectBoundingBox">
      <stop offset="0" stop-color="#2b3582"/>
      <stop offset="1" stop-color="#150e42"/>
    </linearGradient>
    <linearGradient id="linear-gradient-6" x1="-0.669" y1="-0.679" x2="2.299" y2="1.813" xlink:href="#linear-gradient-5"/>
    <linearGradient id="linear-gradient-7" x1="0.319" y1="0.023" x2="1.451" y2="1.361" gradientUnits="objectBoundingBox">
      <stop offset="0" stop-color="#53d8ff"/>
      <stop offset="1" stop-color="#3840f7"/>
    </linearGradient>
    <linearGradient id="linear-gradient-8" x1="1.262" y1="1.164" x2="-0.368" y2="-0.263" xlink:href="#linear-gradient-2"/>
    <linearGradient id="linear-gradient-9" x1="0.032" y1="-0.606" x2="2.36" y2="4.363" xlink:href="#linear-gradient-5"/>
    <linearGradient id="linear-gradient-10" x1="4.668" y1="3.11" x2="-0.175" y2="0.182" xlink:href="#linear-gradient-2"/>
    <linearGradient id="linear-gradient-11" x1="0.5" y1="-1.443" x2="0.5" y2="2.419" xlink:href="#linear-gradient-2"/>
    <linearGradient id="linear-gradient-12" x1="-0.605" y1="-0.673" x2="2.24" y2="2.736" xlink:href="#linear-gradient-7"/>
    <linearGradient id="linear-gradient-13" x1="214.317" y1="-2.705" x2="215.319" y2="-2.705" xlink:href="#linear-gradient-2"/>
    <linearGradient id="linear-gradient-14" x1="538.523" y1="-3.379" x2="539.514" y2="-3.379" xlink:href="#linear-gradient-2"/>
    <linearGradient id="linear-gradient-15" x1="-1.152" y1="-0.724" x2="18.14" y2="13.542" xlink:href="#linear-gradient-5"/>
    <linearGradient id="linear-gradient-16" x1="-0.383" y1="-1.162" x2="7.432" y2="13.568" xlink:href="#linear-gradient-5"/>
    <linearGradient id="linear-gradient-17" x1="-0.96" y1="0.598" x2="0.93" y2="0.47" xlink:href="#linear-gradient-7"/>
    <linearGradient id="linear-gradient-18" x1="679.035" y1="0.5" x2="680.035" y2="0.5" xlink:href="#linear-gradient-2"/>
    <linearGradient id="linear-gradient-19" x1="50.252" y1="84.723" x2="49.189" y2="86.006" xlink:href="#linear-gradient-2"/>
    <linearGradient id="linear-gradient-20" x1="111.715" y1="-0.973" x2="110.816" y2="0.992" xlink:href="#linear-gradient"/>
    <linearGradient id="linear-gradient-21" x1="137.417" y1="283.71" x2="139.857" y2="281.049" xlink:href="#linear-gradient-2"/>
    <linearGradient id="linear-gradient-22" x1="-0.811" y1="-0.23" x2="-3.684" y2="3.588" xlink:href="#linear-gradient-5"/>
    <linearGradient id="linear-gradient-23" x1="-13.779" y1="-4.394" x2="-12.728" y2="-4.394" xlink:href="#linear-gradient-5"/>
    <linearGradient id="linear-gradient-24" x1="105.382" y1="0.072" x2="106.551" y2="3.84" xlink:href="#linear-gradient-2"/>
    <linearGradient id="linear-gradient-25" x1="0.985" y1="0.274" x2="-1.872" y2="2.03" gradientUnits="objectBoundingBox">
      <stop offset="0" stop-color="#fdf53f"/>
      <stop offset="0.665" stop-color="#e57a58"/>
      <stop offset="1" stop-color="#d93c65"/>
    </linearGradient>
    <linearGradient id="linear-gradient-26" x1="1.006" y1="-2.114" x2="-0.422" y2="5.875" xlink:href="#linear-gradient-7"/>
    <linearGradient id="linear-gradient-27" x1="24.19" y1="0.5" x2="25.19" y2="0.5" xlink:href="#linear-gradient-5"/>
    <linearGradient id="linear-gradient-28" x1="1.759" y1="-2.193" x2="-1.44" y2="5.738" xlink:href="#linear-gradient-7"/>
    <linearGradient id="linear-gradient-29" x1="53.244" y1="0.5" x2="54.244" y2="0.5" xlink:href="#linear-gradient-5"/>
    <linearGradient id="linear-gradient-30" x1="79.624" y1="0.5" x2="80.624" y2="0.5" xlink:href="#linear-gradient-2"/>
    <linearGradient id="linear-gradient-31" x1="95.533" y1="0.5" x2="96.533" y2="0.5" xlink:href="#linear-gradient-2"/>
    <linearGradient id="linear-gradient-32" x1="-35.015" y1="1.045" x2="-34.401" y2="-0.006" xlink:href="#linear-gradient-5"/>
    <linearGradient id="linear-gradient-33" x1="137.584" y1="-3.524" x2="131.847" y2="3.756" xlink:href="#linear-gradient-5"/>
    <linearGradient id="linear-gradient-34" x1="58.715" y1="14.288" x2="56.728" y2="15.191" xlink:href="#linear-gradient-25"/>
    <linearGradient id="linear-gradient-35" x1="46.012" y1="1.331" x2="46.247" y2="0.355" xlink:href="#linear-gradient-2"/>
    <linearGradient id="linear-gradient-36" x1="34.156" y1="0.35" x2="33.044" y2="1.106" xlink:href="#linear-gradient-2"/>
    <linearGradient id="linear-gradient-37" x1="203.814" y1="-1.689" x2="202.895" y2="2.023" xlink:href="#linear-gradient"/>
    <linearGradient id="linear-gradient-38" x1="139.147" y1="-0.685" x2="134.597" y2="1.784" xlink:href="#linear-gradient-2"/>
    <linearGradient id="linear-gradient-39" x1="126.795" y1="0.087" x2="124.781" y2="1.559" xlink:href="#linear-gradient-2"/>
    <linearGradient id="linear-gradient-40" x1="96.153" y1="0.199" x2="98.343" y2="1.546" xlink:href="#linear-gradient-5"/>
    <linearGradient id="linear-gradient-41" x1="392.862" y1="0.273" x2="395.758" y2="1.337" xlink:href="#linear-gradient-5"/>
    <linearGradient id="linear-gradient-42" x1="578.156" y1="0.346" x2="581.392" y2="1.099" xlink:href="#linear-gradient-5"/>
    <linearGradient id="linear-gradient-43" x1="181.328" y1="-0.23" x2="178.455" y2="3.588" xlink:href="#linear-gradient-5"/>
    <linearGradient id="linear-gradient-44" x1="186.011" y1="-72.231" x2="187.062" y2="-72.231" xlink:href="#linear-gradient-5"/>
    <linearGradient id="linear-gradient-45" x1="108.557" y1="35.924" x2="104.895" y2="38.211" xlink:href="#linear-gradient-25"/>
    <linearGradient id="linear-gradient-46" x1="14.276" y1="1.899" x2="14.886" y2="-0.263" xlink:href="#linear-gradient-7"/>
    <linearGradient id="linear-gradient-47" x1="16.721" y1="10.361" x2="17.424" y2="11.984" xlink:href="#linear-gradient-7"/>
    <linearGradient id="linear-gradient-48" x1="17.265" y1="12.014" x2="17.77" y2="13.614" xlink:href="#linear-gradient-7"/>
    <linearGradient id="linear-gradient-49" x1="7.944" y1="10.88" x2="8.154" y2="12.848" xlink:href="#linear-gradient-7"/>
    <linearGradient id="linear-gradient-50" x1="174.613" y1="-0.777" x2="176.584" y2="6.835" xlink:href="#linear-gradient-2"/>
    <linearGradient id="linear-gradient-51" x1="211.312" y1="-0.364" x2="213.842" y2="2.061" xlink:href="#linear-gradient-2"/>
    <linearGradient id="linear-gradient-52" x1="-0.202" y1="0.238" x2="1.147" y2="0.854" xlink:href="#linear-gradient-5"/>
    <linearGradient id="linear-gradient-53" x1="-29.015" y1="0.086" x2="-30.18" y2="1.632" gradientUnits="objectBoundingBox">
      <stop offset="0" stop-color="#fdf53f"/>
      <stop offset="1" stop-color="#d93c65"/>
    </linearGradient>
    <linearGradient id="linear-gradient-54" x1="-370.935" y1="30.566" x2="-370.716" y2="29.656" xlink:href="#linear-gradient-2"/>
    <linearGradient id="linear-gradient-55" x1="-221.146" y1="24.861" x2="-219.927" y2="26.022" xlink:href="#linear-gradient-2"/>
    <linearGradient id="linear-gradient-56" x1="-0.816" y1="-0.19" x2="6.041" y2="2.878" xlink:href="#linear-gradient-5"/>
    <linearGradient id="linear-gradient-57" x1="-614.739" y1="89.382" x2="-611.359" y2="93.67" xlink:href="#linear-gradient-2"/>
    <linearGradient id="linear-gradient-58" x1="44.317" y1="1.384" x2="45.688" y2="0.241" xlink:href="#linear-gradient-2"/>
    <linearGradient id="linear-gradient-59" x1="109.785" y1="0.846" x2="110.788" y2="0.846" xlink:href="#linear-gradient-5"/>
    <linearGradient id="linear-gradient-60" x1="90.64" y1="0.493" x2="86.553" y2="0.823" xlink:href="#linear-gradient-2"/>
    <linearGradient id="linear-gradient-61" x1="93.983" y1="0.9" x2="94.988" y2="0.9" xlink:href="#linear-gradient-5"/>
    <linearGradient id="linear-gradient-62" x1="41.569" y1="0.114" x2="40.526" y2="1.689" xlink:href="#linear-gradient-7"/>
    <linearGradient id="linear-gradient-63" x1="58.061" y1="2.363" x2="61.05" y2="0.186" xlink:href="#linear-gradient-2"/>
  </defs>
  <g id="Grupo_29096" data-name="Grupo 29096" transform="translate(-248.296 -439.39)">
    <g id="Grupo_29094" data-name="Grupo 29094" transform="translate(465.116 439.39)">
      <path id="Trazado_61193" data-name="Trazado 61193" d="M1748.815,1500.386s1.421,7.62,2.154,15.17a5.206,5.206,0,0,1-4.926,5.688c-10.058.515-31.574,1.535-39.3,1.265a1.694,1.694,0,0,1-1.513-2.307,3.793,3.793,0,0,1,1.921-2.061l35.4-16.679Z" transform="translate(-1626.758 -1135.684)" fill="url(#linear-gradient)"/>
      <path id="Trazado_61194" data-name="Trazado 61194" d="M1763.592,1493.492l-1,9.14s-6.2,2.959-10.484-.266l2.481-10.2Z" transform="translate(-1640.474 -1133.286)" fill="url(#linear-gradient-2)"/>
      <path id="Trazado_61195" data-name="Trazado 61195" d="M1818.812,1505.458s2.183,3.833,4.359,14.053a3.177,3.177,0,0,1-2.758,3.831c-3.319.358-8.43.827-12.528.838a3.167,3.167,0,0,1-3.168-3.5c.418-3.742,1.773-9.887,6.1-14.708Z" transform="translate(-1655.82 -1137.164)" fill="url(#linear-gradient-3)"/>
      <path id="Trazado_61196" data-name="Trazado 61196" d="M1823.074,1488.663l-2.4,13.831s-2.485,1.885-7.449.583l1.067-14.867Z" transform="translate(-1658.309 -1132.131)" fill="url(#linear-gradient-4)"/>
      <path id="Trazado_61197" data-name="Trazado 61197" d="M1759.893,1251.559c.49,2.379-.091,128.224-12.056,180.595-.2.854,9.863,5.931,15.624,3.022,0,0,22.095-76.737,23.964-141.6s-.02-2.208-.02-2.208l-1.842-40.063Z" transform="translate(-1639.226 -1062.995)" fill="url(#linear-gradient-5)"/>
      <path id="Trazado_61198" data-name="Trazado 61198" d="M1813.79,1253.589c11.194,63.777-1.083,170.573-4.606,183.05-.061.019-8.434,1.3-13.721-1.036-.879-5.884,1.552-112.932-8.834-149.561a7.9,7.9,0,0,0-3.087-4.326l-18.56-12.929-1.615-21.171Z" transform="translate(-1643.759 -1061.917)" fill="url(#linear-gradient-6)"/>
      <g id="Grupo_29088" data-name="Grupo 29088" transform="translate(13.305 29.233)">
        <path id="Trazado_61199" data-name="Trazado 61199" d="M1723.193,1090.388c30.543-.8,64.33,7.408,64.33,7.408,9.612,53.044,2.683,114.4,2.683,114.4-23.59,6.427-50.363-3.311-50.363-3.311-4.143-22.171-23.078-84.495-23.078-84.495a100.624,100.624,0,0,1-37.459-11.495c7.638-9.026,11.171-20.453,12.688-27.2C1702.827,1088.946,1713.773,1090.634,1723.193,1090.388Z" transform="translate(-1632.532 -1043.895)" fill="url(#linear-gradient-7)"/>
        <path id="Trazado_61200" data-name="Trazado 61200" d="M1613.256,1029.03a5.845,5.845,0,0,1,6.781-1.974c4.677,18.946,28.394,34.117,52.682,41.412-1.517,6.749-5.049,18.176-12.687,27.2C1619.627,1073.456,1613.256,1029.03,1613.256,1029.03Z" transform="translate(-1613.256 -1026.67)" fill="url(#linear-gradient-8)"/>
      </g>
      <path id="Trazado_61201" data-name="Trazado 61201" d="M1780.259,1140.1a.5.5,0,0,1,.329.246l29.749,28.375a1.24,1.24,0,0,1,.374.678c1.021,5.742-1.586,59.353-2.408,58.546,2.94,3.908-49.01,4.285-49.958-.768,0,0-17.834-63.83-17.57-64.182l4.77-25.844a1.287,1.287,0,0,1,1.381-1.212C1753.259,1136.4,1780.259,1140.1,1780.259,1140.1Z" transform="translate(-1637.165 -1029.324)" fill="url(#linear-gradient-9)"/>
      <g id="Grupo_29089" data-name="Grupo 29089">
        <path id="Trazado_61202" data-name="Trazado 61202" d="M1608.51,1017.9c-.3,1,3.346,2.486,5.448-1.616.057-1.958,1.166-10.351-.018-11.935-6.308-8.43-18.482-18.957-18.482-18.957a2.873,2.873,0,0,0-.322,3.995l5.915,6.045c-1.2,2.226-2.68,4.109-3.355,6.793a8.2,8.2,0,0,0,.876,6.032c1.045,1.843,2.471,4.237,3.815,6.108A8.1,8.1,0,0,0,1608.51,1017.9Z" transform="translate(-1594.468 -985.39)" fill="url(#linear-gradient-10)"/>
        <path id="Trazado_61203" data-name="Trazado 61203" d="M1606.955,1005.123l5.38,4.474,1.719,4.488-4.708,5.325s-1.685-8.923-2.893-10.846S1605.853,1005.7,1606.955,1005.123Z" transform="translate(-1597.772 -991.149)" fill="url(#linear-gradient-11)"/>
      </g>
      <path id="Trazado_61204" data-name="Trazado 61204" d="M1815.973,1132.476l11.435-29.691s28.718,19.115,33.645,43.651a67.526,67.526,0,0,0-24.741,6.885C1834.091,1141.734,1815.973,1132.476,1815.973,1132.476Z" transform="translate(-1659.111 -1019.65)" fill="url(#linear-gradient-12)"/>
      <path id="Trazado_61205" data-name="Trazado 61205" d="M1779.421,1178.536s32.209,17.8,42.87,2.236a12.151,12.151,0,0,0,2.138-9.463,67.529,67.529,0,0,1,24.741-6.885,33.924,33.924,0,0,1-3.466,23.292c-18.6,34.817-70.447-1.242-70.447-1.242Z" transform="translate(-1647.229 -1037.639)" fill="url(#linear-gradient-13)"/>
      <path id="Trazado_61206" data-name="Trazado 61206" d="M1776.486,1056.887l9.988,28.016a1.014,1.014,0,0,1-.45,1.224c-2.635,1.49-12.14,5.815-23.714-1.368a4.772,4.772,0,0,1-2.229-3.385l-3.379-24.3Z" transform="translate(-1641.814 -1006.255)" fill="url(#linear-gradient-14)"/>
      <path id="Trazado_61207" data-name="Trazado 61207" d="M1748.461,1091.747l0,32.554,7.411.53,1.049-32.726Z" transform="translate(-1639.409 -1016.429)" fill="url(#linear-gradient-15)"/>
      <path id="Trazado_61208" data-name="Trazado 61208" d="M1792.421,1129.057s12.646-32.042,13.451-31l-8.747-1.04c-.3-.047-12.148,31.132-12.148,31.132Z" transform="translate(-1650.065 -1017.967)" fill="url(#linear-gradient-16)"/>
      <g id="Grupo_29091" data-name="Grupo 29091" transform="translate(82.528 115.317)">
        <g id="Grupo_29090" data-name="Grupo 29090">
          <path id="Trazado_61209" data-name="Trazado 61209" d="M1765.389,1198.546l-11.881-46.457a1.259,1.259,0,0,0-1.023-.975c-2.152-.281-8.39-1.071-15.592-1.753-8.674-.822-18.748-1.487-24.768-.921a1.373,1.373,0,0,0-.992,1.956c3.423,7.755,17.5,39.3,24.556,49.632a1.177,1.177,0,0,0,.979.539l27.565-.287A1.339,1.339,0,0,0,1765.389,1198.546Z" transform="translate(-1711.005 -1148.23)" fill="url(#linear-gradient-17)"/>
          <path id="Trazado_61210" data-name="Trazado 61210" d="M1775.511,1194.56s2.445-10.05,1.459-13.616-2.9-8.15-9.263-7.13a93.1,93.1,0,0,0-13.877,3.7s.379,4.644,5.219,3.146l-3,2.322s.429,3.719,4.517,1.731l-2.791,3.079a3.253,3.253,0,0,0,4.762,1.1C1765.541,1186.929,1766.983,1195.77,1775.511,1194.56Z" transform="translate(-1723.503 -1155.654)" fill="url(#linear-gradient-18)"/>
        </g>
        <path id="Trazado_61211" data-name="Trazado 61211" d="M1756.943,1164.977l.915-.27-2.507-8.5a3.869,3.869,0,0,0-2.914-2.712c-7.945-1.658-28.87-2-29.757-2.011l-.014.955c.216,0,21.721.351,29.576,1.99a2.919,2.919,0,0,1,2.194,2.049Z" transform="translate(-1714.408 -1149.179)" fill="#fff"/>
      </g>
      <g id="Grupo_29092" data-name="Grupo 29092" transform="translate(101.458 21.355)">
        <path id="Trazado_61212" data-name="Trazado 61212" d="M1758.062,1021.5c-.33.3-14.18,26.272-14.18,26.272l15,7.593,16.784-22.667S1763.584,1016.491,1758.062,1021.5Z" transform="translate(-1739.53 -1017.002)" fill="url(#linear-gradient-19)"/>
        <path id="Trazado_61213" data-name="Trazado 61213" d="M1767.162,1031.747a2.422,2.422,0,0,1-.222,2.117l-7.786,12.442a2.337,2.337,0,0,1-.424.508c-.914.819-4.035,3.194-6.349-.164-1.972-2.861-3.825-5.464-5.842-6.56a2.413,2.413,0,0,0-3.277,1.01,90.125,90.125,0,0,0-5.4,12.158,2.4,2.4,0,0,0,1.343,2.974,66.912,66.912,0,0,0,14.417,4.5,2.418,2.418,0,0,0,2.3-.928c2.372-3.124,9.057-11.855,11.324-14.029,2.177-2.088,4.4-.493,6.918-.664,2.554-.173,4.424-2.773,5.57-4.9,2.089-3.872,4.307-9.925,2.216-14.165-2.536-5.141-7.744-2.508-10.567-5.811-3.876-4.535-11.214-5.56-16.852-4.036-8.76,2.369,3.316,8.89,6.775,9.4C1764.673,1026.092,1766.454,1029.809,1767.162,1031.747Z" transform="translate(-1737.737 -1015.545)" fill="url(#linear-gradient-20)"/>
        <path id="Trazado_61214" data-name="Trazado 61214" d="M1775.283,1061.361s3.065-8.443,6.776-8.06,6.567,4.141,1.882,8.216C1778.113,1066.587,1775.283,1061.361,1775.283,1061.361Z" transform="translate(-1748.694 -1026.56)" fill="url(#linear-gradient-21)"/>
      </g>
      <g id="Grupo_29093" data-name="Grupo 29093" transform="translate(101.25 16.807)">
        <path id="Trazado_61215" data-name="Trazado 61215" d="M1753.313,1019.972c13.094-24.733,47.031-2.264,31.237,18.571C1772.807,1030.735,1759.537,1019.128,1753.313,1019.972Z" transform="translate(-1742.074 -1009.123)" fill="url(#linear-gradient-22)"/>
        <path id="Trazado_61216" data-name="Trazado 61216" d="M1749.537,1020.626c-26.472-1.347-4.681,8.468,19.427,13.706C1762.963,1027.962,1756.964,1023.214,1749.537,1020.626Z" transform="translate(-1737.443 -1012.443)" fill="url(#linear-gradient-23)"/>
      </g>
    </g>
    <g id="Grupo_29087" data-name="Grupo 29087" transform="translate(248.296 464.962)">
      <g id="Grupo_29083" data-name="Grupo 29083" transform="translate(157.198 91.962)">
        <path id="Trazado_61165" data-name="Trazado 61165" d="M536.485,682.427l-8.24,8.126c-11.7-1.125-20.712-4.764-27.635-9.38,4.166-10.362,8.4-16.508,11.723-20.11C523.222,676.379,536.485,682.427,536.485,682.427Z" transform="translate(-479.128 -621.616)" fill="url(#linear-gradient-24)"/>
        <path id="Trazado_61166" data-name="Trazado 61166" d="M470.276,635.766l19.448-30.406c1.275,17.151,7.069,30.043,13.756,39.447-3.325,3.6-7.557,9.748-11.723,20.11A53.5,53.5,0,0,1,470.276,635.766Z" transform="translate(-470.276 -605.36)" fill="url(#linear-gradient-25)"/>
      </g>
      <path id="Trazado_61167" data-name="Trazado 61167" d="M434.675,980.621c9.7.445,19.081.166,25.347-.156-5.7-4.061-18.849-12.9-29.847-16.414l-7.55-.451s-2.558,3.891-3.471,12.794C420.4,977.956,424.061,980.133,434.675,980.621Z" transform="translate(-298.158 -617.945)" fill="url(#linear-gradient-26)"/>
      <path id="Trazado_61168" data-name="Trazado 61168" d="M460.045,985.793l-.079-.055c-6.266.322-15.65.6-25.347.156-10.613-.489-14.27-2.666-15.522-4.227-.043.41-.086.818-.12,1.249a3.536,3.536,0,0,0,3.248,3.818c7.941.6,27.628,1.959,37.123,1.462A1.325,1.325,0,0,0,460.045,985.793Z" transform="translate(-298.104 -623.218)" fill="url(#linear-gradient-27)"/>
      <path id="Trazado_61169" data-name="Trazado 61169" d="M335.133,978.207c-.71-4.551-1.848-11.132-2.728-12.814-1.38-2.639-6.1,0-6.1,0a12.543,12.543,0,0,0-4.843,4.124c-.973,1.644-3.664,6.319-5.488,9.493a2.133,2.133,0,0,0-.286,1.13l18.917.662A3.78,3.78,0,0,0,335.133,978.207Z" transform="translate(-267.962 -618.126)" fill="url(#linear-gradient-28)"/>
      <path id="Trazado_61170" data-name="Trazado 61170" d="M315.684,986.7a2.155,2.155,0,0,0,2.1,2.093l13.477.371a3.8,3.8,0,0,0,3.343-1.8Z" transform="translate(-267.962 -624.687)" fill="url(#linear-gradient-29)"/>
      <path id="Trazado_61171" data-name="Trazado 61171" d="M339.976,943.541c-.163.546-2.607,12.4-3.677,17.6a2.971,2.971,0,0,1-3.056,2.374c-.8-.04-1.731-.113-2.709-.239a3.585,3.585,0,0,1-3.119-3.418c-.173-4.556-.258-13.3,1.414-16.691C331.137,938.487,339.976,943.541,339.976,943.541Z" transform="translate(-271.36 -611.402)" fill="url(#linear-gradient-30)"/>
      <path id="Trazado_61172" data-name="Trazado 61172" d="M421.958,947.751c1.048-.034-.419,5.413,1.168,10.766a2.752,2.752,0,0,0,2.52,2.171c.816.011,1.783,0,2.765-.083a3.042,3.042,0,0,0,2.8-2.74l1.29-13.885Z" transform="translate(-298.977 -612.219)" fill="url(#linear-gradient-31)"/>
      <path id="Trazado_61173" data-name="Trazado 61173" d="M421.5,738.1c-.472,2.3-13.474,111.122-14.184,160.539,2.5,2.794-16.633,7.734-17.128,4.747-2.032-12.275-4.48-104.165,1.206-141.14,0,0-48.928,116.761-54.984,142.306-.011,0-13.111,4.064-16.5-2.272,0,0,35.21-144.208,55.629-170.921Z" transform="translate(-269.197 -550.17)" fill="url(#linear-gradient-32)"/>
      <path id="Trazado_61174" data-name="Trazado 61174" d="M420.6,772.69a.616.616,0,0,1-.44-1.047l6.289-6.43a.616.616,0,1,1,.881.862l-6.289,6.43A.612.612,0,0,1,420.6,772.69Z" transform="translate(-298.401 -559.995)" fill="url(#linear-gradient-33)"/>
      <path id="Trazado_61175" data-name="Trazado 61175" d="M471.273,567.592c-12.063-3.16-34.315-8.109-52.028-7.052a8.016,8.016,0,0,0-7.56,7.528c-2.675,47.177-6.332,89.041-13.218,113.4,15.478,6.125,21.139,3.27,36.277,1.045,11.341-24.291,30.94-46.639,39.411-78.487,0,0,4.971-25.4.144-33.869A4.993,4.993,0,0,0,471.273,567.592Z" transform="translate(-292.121 -500.276)" fill="url(#linear-gradient-34)"/>
      <path id="Trazado_61176" data-name="Trazado 61176" d="M458.666,523.892s-3.046,18.173-3.954,26.577a3.292,3.292,0,0,0,1.787,3.286c3.33,1.714,10.437,4.474,18.181,1.941a3.073,3.073,0,0,0,2.082-2.993l-.531-24.261Z" transform="translate(-308.53 -489.623)" fill="url(#linear-gradient-35)"/>
      <g id="Grupo_29084" data-name="Grupo 29084" transform="translate(138.068 4.943)">
        <path id="Trazado_61177" data-name="Trazado 61177" d="M478.643,495.459s5.878,13.5,6.272,20.588,1.921,11.685-6.272,13.112-15.1-2.655-18.836-9.714c0,0-5.859-10.877-4.544-15.331S478.643,495.459,478.643,495.459Z" transform="translate(-446.708 -486.268)" fill="url(#linear-gradient-36)"/>
        <path id="Trazado_61178" data-name="Trazado 61178" d="M459.161,510.582H460.2s-4.268-8.754-.518-10.292c4.644-1.9,9.661-2.78,14.306-4.738,1.568-.661,2.821-1.042,3.1-2.917a9.216,9.216,0,0,0-2.69-7.844c-3.2-3.068-6.635-2.437-10.521-1.719-5,.923-10.822,2.486-14.342,6.439-1.59,1.787-1.656,3.546-2.554,5.57-.84,1.891-3.143,2.726-3.611,5.275a7.65,7.65,0,0,0,1.033,5.129,34.227,34.227,0,0,1,1.887,3.088,6.315,6.315,0,0,1,.458,3.539c-.194,1.207-1.217.618-.8,1.97.275.9,1.773,1.638,2.508,2.031,4.359,2.331,6.939,2.076,7.912,1.827a.557.557,0,0,0,.421-.576l-.382-6.191a.556.556,0,0,1,.555-.591Z" transform="translate(-443.262 -482.481)" fill="url(#linear-gradient-37)"/>
        <path id="Trazado_61179" data-name="Trazado 61179" d="M463.03,521.258s-2.242-8.625-6.109-6.206,2.007,9.663,5.115,9.986Z" transform="translate(-446.876 -491.861)" fill="url(#linear-gradient-38)"/>
      </g>
      <path id="Trazado_61180" data-name="Trazado 61180" d="M347.063,628.664c.261-3.015.672-6.206,1.282-9.6,5.313-29.571,43.223-52.317,52.143-57.3a1.219,1.219,0,0,1,1.809,1.111l-1.267,40.2c-21.113,2.838-31.106,14.918-35.663,27.7-5.966,16.737-2.606,34.681-2.606,34.681l-7.863,2.1S344.738,655.476,347.063,628.664Z" transform="translate(-277.019 -500.631)" fill="url(#linear-gradient-39)"/>
      <path id="Trazado_61181" data-name="Trazado 61181" d="M463.043,614.24l-32.53-3.071a.555.555,0,0,0-.434.149l-23.1,21.729c-.322.3-6.346,64.42-6.346,64.42-1.995-1.425-1.784-1.149-1.482-1.105l47.334-13.842,24.2-47.944a2.189,2.189,0,0,0,.006-1.439l-6.063-17.643A1.868,1.868,0,0,0,463.043,614.24Z" transform="translate(-292.265 -515.093)" fill="url(#linear-gradient-40)"/>
      <path id="Trazado_61182" data-name="Trazado 61182" d="M496.295,570.945,487.581,603.1l-8.649-2.127,8.89-32.849,7.313,1.052A1.411,1.411,0,0,1,496.295,570.945Z" transform="translate(-315.604 -502.532)" fill="url(#linear-gradient-41)"/>
      <path id="Trazado_61183" data-name="Trazado 61183" d="M441.606,595.842l-3.772-36.116a.9.9,0,0,1,1.041-.984l6.669,1.074a.758.758,0,0,1,.634.674l3.592,36.123Z" transform="translate(-303.609 -499.79)" fill="url(#linear-gradient-42)"/>
      <g id="Grupo_29085" data-name="Grupo 29085" transform="translate(135.885)">
        <path id="Trazado_61184" data-name="Trazado 61184" d="M478.34,487.213c-14.137-26.7-50.778-2.444-33.726,20.051C457.294,498.834,471.62,486.3,478.34,487.213Z" transform="translate(-440.18 -475.5)" fill="url(#linear-gradient-43)"/>
        <path id="Trazado_61185" data-name="Trazado 61185" d="M484.118,487.92c28.581-1.455,5.053,9.142-20.975,14.8C469.622,495.84,476.1,490.714,484.118,487.92Z" transform="translate(-446.882 -479.085)" fill="url(#linear-gradient-44)"/>
      </g>
      <path id="Trazado_61186" data-name="Trazado 61186" d="M365.477,594.928c13.527-17.32,34.2-29.649,40.485-33.158a1.219,1.219,0,0,1,1.809,1.111l-1.267,40.2c-8.851,1.189-15.74,4.007-21.1,7.815A67.075,67.075,0,0,0,365.477,594.928Z" transform="translate(-282.494 -500.631)" fill="url(#linear-gradient-45)"/>
      <g id="Grupo_29086" data-name="Grupo 29086" transform="translate(0 66.874)">
        <path id="Trazado_61187" data-name="Trazado 61187" d="M277.052,701.656l-7.938,2.007c-13.62,3.442-22.78,13.678-20.459,22.862l2.76,10.919c2.321,9.184,15.245,13.838,28.865,10.4l7.938-2.007q.788-.2,1.568-.432L522.54,675.758l-6.012-23.787-237.89,49.322Q277.842,701.457,277.052,701.656Zm3.418,10.9c10.255-2.592,19.817.246,21.357,6.339s-5.524,13.135-15.779,15.727-19.817-.246-21.357-6.339S270.216,715.146,280.471,712.554Z" transform="translate(-248.296 -593.875)" fill="url(#linear-gradient-46)"/>
        <path id="Trazado_61188" data-name="Trazado 61188" d="M698.658,595.709,652.6,607.351a10.9,10.9,0,0,0-7.332,6.237L638.377,629.5a10.9,10.9,0,0,0,3.26,12.9l13.624,10.724a10.9,10.9,0,0,0,9.415,2l46.057-11.641a8.379,8.379,0,0,1,9.569,11.865,62.7,62.7,0,0,1-40.569,31.928c-33.122,8.372-62.435-11.7-70.488-43.555s8.2-63.445,41.326-71.817a62.7,62.7,0,0,1,50.868,8.816A8.379,8.379,0,0,1,698.658,595.709Z" transform="translate(-353.04 -569.934)" fill="url(#linear-gradient-47)"/>
        <path id="Trazado_61189" data-name="Trazado 61189" d="M700.208,601.838,654.151,613.48a10.9,10.9,0,0,0-7.332,6.237l-6.891,15.91a10.9,10.9,0,0,0,3.26,12.9l13.624,10.725a10.9,10.9,0,0,0,9.415,2l46.058-11.642a8.379,8.379,0,0,1,9.569,11.866,62.7,62.7,0,0,1-40.569,31.927c-33.122,8.373-62.435-11.7-70.488-43.554s8.2-63.445,41.326-71.817a62.7,62.7,0,0,1,50.867,8.815A8.379,8.379,0,0,1,700.208,601.838Z" transform="translate(-353.492 -571.723)" fill="url(#linear-gradient-48)"/>
        <path id="Trazado_61190" data-name="Trazado 61190" d="M278.288,706.547l-7.938,2.006c-13.621,3.443-22.78,13.679-20.459,22.862l2.76,10.918c2.321,9.184,15.245,13.838,28.865,10.4l7.938-2.006q.788-.2,1.568-.433l232.753-69.642-6.013-23.787L279.873,706.182Q279.078,706.348,278.288,706.547Zm3.418,10.9c10.255-2.593,19.817.246,21.357,6.339s-5.524,13.134-15.779,15.726-19.817-.246-21.357-6.339S271.452,720.036,281.707,717.444Z" transform="translate(-248.657 -595.302)" fill="url(#linear-gradient-49)"/>
      </g>
      <path id="Trazado_61191" data-name="Trazado 61191" d="M567.856,707.31a5.1,5.1,0,0,0,3.294-2.851c1.207-2.705,2.567-7.039-.337-8.358-4.325-1.966-12.188,6.094-12.188,6.094l-3.842,6.227-3.514,1.709C554.488,711.017,560.695,709.541,567.856,707.31Z" transform="translate(-336.714 -539.789)" fill="url(#linear-gradient-50)"/>
      <path id="Trazado_61192" data-name="Trazado 61192" d="M364.866,702.706h9.722s-7.887,4.73-8.149,9.7,3.131,15.277,4.718,18.082c1.736,3.068-22.015-4.568-13.63-27.786Z" transform="translate(-279.649 -541.807)" fill="url(#linear-gradient-51)"/>
    </g>
    <g id="Grupo_29095" data-name="Grupo 29095" transform="translate(708.609 461.096)">
      <path id="Trazado_61217" data-name="Trazado 61217" d="M1935.753,1097.976c2.7-4.451,7.4-7.375,10.235-11.738,3.573-5.5,3.7-12.773,1.354-18.9-1.942-5.08-5.4-9.467-7.383-14.532-2.666-6.818-2.716-9.751-1.5-16.594,1.07-6.029,3.413-12.45,9.2-15.907,7.158-4.277,15.914-5.087,24.107-3.539,8.5,1.606,16.75,5.217,22.971,11.234s10.277,14.458,10.174,23.112c-.07,5.855-1.954,11.891-.077,17.437a13.714,13.714,0,0,0,9.686,8.791c4.927,1.151,10.05-.533,15.109-.467a22.032,22.032,0,0,1,13.818,5.165,18.233,18.233,0,0,1,6.475,11.3,13.637,13.637,0,0,1-4.349,12.023c-2.316,1.967-5.576,3.3-6.431,6.213-.957,3.262,1.851,6.54,4.982,7.865s6.654,1.438,9.84,2.624c7.128,2.654,11.448,10.687,10.891,18.273s-5.356,14.452-11.65,18.723-13.932,6.188-21.513,6.806-15.2.014-22.8-.344c-8.691-.409-17.553-.524-25.795-3.311-8.334-2.819-15.534-8.213-22.248-13.9-3.179-2.692-6.4-5.636-7.83-9.55-1.036-2.841-1.041-6-2.233-8.778-2.556-5.966-9.645-8.5-13.745-13.533A16.505,16.505,0,0,1,1935.753,1097.976Z" transform="translate(-1921.329 -1016.041)" fill="url(#linear-gradient-52)"/>
      <path id="Trazado_61218" data-name="Trazado 61218" d="M2047.155,1110.992a.281.281,0,0,0,.048,0,10.721,10.721,0,0,0,6.553-17.087c-3.312-4.3-9.143-5.412-14.833-6.184l-10.309-1.4c-5.818-.788-11.778-1.918-15.124-6.217-3.568-4.587-2.856-10.851-2.168-16.911.079-.693.157-1.382.228-2.061.9-8.656,0-16.182-2.693-22.366-3.281-7.546-9.4-13.1-16.359-14.85a.259.259,0,0,0-.319.19.262.262,0,0,0,.19.318c6.806,1.714,12.789,7.152,16,14.551,2.653,6.1,3.545,13.538,2.653,22.1-.071.678-.149,1.365-.227,2.057-.7,6.164-1.425,12.537,2.275,17.293,3.468,4.456,9.542,5.613,15.468,6.416l10.309,1.4c5.581.756,11.3,1.841,14.487,5.983a10.2,10.2,0,0,1-6.232,16.25.263.263,0,0,0,.047.521Z" transform="translate(-1938.446 -1018.335)" fill="#fff"/>
      <path id="Trazado_61219" data-name="Trazado 61219" d="M2049.225,1121.186a.526.526,0,0,0,.359-.142,15.681,15.681,0,0,0,3.536-4.216,5.652,5.652,0,0,0-.078-5.628,7.466,7.466,0,0,0-3.412-2.4,42.66,42.66,0,0,0-9.835-2.848c-2.2-.359-4.448-.546-6.624-.727a64.224,64.224,0,0,1-8.494-1.09c-3.323-.733-9.287-2.744-11.881-7.964-2.1-4.219-1.318-8.925-.494-13.906.668-4.039,1.359-8.216.411-12.185a.525.525,0,0,0-1.021.244c.9,3.763.225,7.834-.427,11.77-.815,4.927-1.658,10.021.59,14.545,2.789,5.612,9.088,7.748,12.6,8.523a65.2,65.2,0,0,0,8.633,1.111c2.156.179,4.384.365,6.541.716a41.643,41.643,0,0,1,9.594,2.779,6.551,6.551,0,0,1,2.957,2.023,4.613,4.613,0,0,1,.005,4.565,14.656,14.656,0,0,1-3.314,3.918.525.525,0,0,0-.024.743A.52.52,0,0,0,2049.225,1121.186Z" transform="translate(-1943.768 -1031.694)" fill="#fff"/>
      <path id="Trazado_61220" data-name="Trazado 61220" d="M1939.642,1116.8c4.908-1.559,19.225-4.52,33.089,7.866a8.46,8.46,0,0,1,2.573,8.39c-3.452,13.567-12.489,53.63-3.723,70.76,0,0-14.692,16.73-31.224,3.7,0,0-7.836-31.792-17.651-45.646-6.777-9.565,9.972-36.488,14.214-43A5.091,5.091,0,0,1,1939.642,1116.8Z" transform="translate(-1917.707 -1045.017)" fill="url(#linear-gradient-53)"/>
      <path id="Trazado_61221" data-name="Trazado 61221" d="M1961.894,1079.2s7.627,20.516,8.322,29.609a15.6,15.6,0,0,1-15.7-2.27s-1.129-20.6-2.34-24.267Z" transform="translate(-1926.774 -1034.474)" fill="url(#linear-gradient-54)"/>
      <path id="Trazado_61222" data-name="Trazado 61222" d="M1946.467,1039.619s-18.649,27.008-7.119,34.58,24.806-11.622,24.806-11.622,4.192-14.686-.517-19.569S1946.467,1039.619,1946.467,1039.619Z" transform="translate(-1921.932 -1022.859)" fill="url(#linear-gradient-55)"/>
      <path id="Trazado_61223" data-name="Trazado 61223" d="M1959.17,1030.325s-8.732,2.218-9.9,6.2,12.552,7.443,16.382,7.561l3.342,15.954s8.873-15.2,5.121-23.837S1959.17,1030.325,1959.17,1030.325Z" transform="translate(-1925.906 -1020.087)" fill="url(#linear-gradient-56)"/>
      <path id="Trazado_61224" data-name="Trazado 61224" d="M1970.66,1067.37s7.288-8.72,10.332-3.161-6.527,9.924-9.907,7.225Z" transform="translate(-1932.167 -1029.557)" fill="url(#linear-gradient-57)"/>
      <path id="Trazado_61225" data-name="Trazado 61225" d="M1921.354,1340.556c.079,1.447-2.279,12.979-3.564,19.131a10.093,10.093,0,0,0,1.2,7.223l49.238,79.911a11,11,0,0,1,1.309,3.118c.94,3.772,2.911,13.022,2.1,21.479l-2.4,5.19,10.686-2.607,1.87-28.841-3.066-1.8a14.439,14.439,0,0,1-5.945-6.738c-4.5-10.46-15.7-37.089-18.686-50.106-3.392-14.794-20.072-26.586-20.072-26.586l2.786-6.894Z" transform="translate(-1916.676 -1110.746)" fill="url(#linear-gradient-58)"/>
      <path id="Trazado_61226" data-name="Trazado 61226" d="M2011.652,1506.11s-5.939-9.089-6.679-12.653-2.738-9.844-6.278-7.887c0,0-1.4,17.39-.714,24.165s-7.564,6.69-7.564,6.69a7.7,7.7,0,0,0-3.906,2.047,1.932,1.932,0,0,0,1.347,3.228,46.455,46.455,0,0,0,11.48-.836,3.515,3.515,0,0,0,2.783-3.289l.867-20,7.454,9.108Z" transform="translate(-1936.643 -1152.958)" fill="url(#linear-gradient-59)"/>
      <path id="Trazado_61227" data-name="Trazado 61227" d="M1960.344,1357.21s2.853,72.143,3.247,82.389-1.087,32.991-11.253,39.946l4.524,3.239a59.738,59.738,0,0,0,10.823-14.067c5.967-10.367,7.791-12.272,7.791-12.272l-2.1-4.134a9.164,9.164,0,0,1-.837-5.865c2.044-10.783,8.876-46.648,10.773-54.379,2.239-9.125,2.213-21.263-6.249-31.287S1960.344,1357.21,1960.344,1357.21Z" transform="translate(-1926.82 -1115.009)" fill="url(#linear-gradient-60)"/>
      <path id="Trazado_61228" data-name="Trazado 61228" d="M1969.859,1526.823a.63.63,0,0,0,.626-.551c.3-2.411,1.571-12.08,2.7-14.6,1.288-2.882,5.453-14.992-.259-15.922,0,0-13.826,20.914-16.5,23.747a5.329,5.329,0,0,1-6.133,1.073,10.239,10.239,0,0,0-4.592,3.41,1.875,1.875,0,0,0,1.526,2.989l9.538-.063a6.711,6.711,0,0,0,6.223-4.328c1.611-4.221,4.4-10.417,7.713-13.2l-1.477,16.75A.635.635,0,0,0,1969.859,1526.823Z" transform="translate(-1924.774 -1156.038)" fill="url(#linear-gradient-61)"/>
      <path id="Trazado_61229" data-name="Trazado 61229" d="M1936.571,1232.417s2.26,6.815-.86,18.152l-19.329,71.852a2.214,2.214,0,0,0,1.428,2.672c6.162,2.1,26.4,7.99,53.863,5.653a3.122,3.122,0,0,0,2.807-2.476c1.68-8.183,7.413-36.1,8.594-41.839,4.5-21.859,9.534-45.435-14.513-59.254C1957.658,1232.055,1947.465,1234.992,1936.571,1232.417Z" transform="translate(-1916.305 -1077.658)" fill="url(#linear-gradient-62)"/>
      <path id="Trazado_61230" data-name="Trazado 61230" d="M1989.241,1131.624s23.615,18.991,29.824,45.362-33.58,29.824-33.58,29.824-5.505-5.952-11.891-3.694-.666-10.531,6.846-10.619,4.128,5.908,14.677.923c10.276-4.856,16.441-19.46-10.324-41.017a11.962,11.962,0,0,1-3.565-4.694C1975.888,1134.875,1979.821,1126.344,1989.241,1131.624Z" transform="translate(-1932.219 -1049.308)" fill="url(#linear-gradient-63)"/>
    </g>
  </g>
</svg>
