<svg xmlns="http://www.w3.org/2000/svg" width="811.777" height="325.384" viewBox="0 0 811.777 325.384">
  <g id="Grupo_29766" data-name="Grupo 29766" transform="translate(170.066 -126.161)">
    <path id="Trazado_62699" data-name="Trazado 62699" d="M227.139,449.756s-33.089-41.673-11.8-100.99c17.931-49.96,69.132-17.846,55.11-81.005-12.719-57.292.223-106.946,118.465-132.8,76.322-16.686,195.408-22.427,168.685,103.854-9.514,44.959,143.142,7.585,79.14,210.938Z" transform="translate(-10.755)" fill="#ebf3fa"/>
    <path id="Trazado_62700" data-name="Trazado 62700" d="M1739.85,1498.983c-2.041-11.115-20.666-9.243-20.666-9.243s-14.037,17.987-17.7,18.139,9-17.722,9-17.722c-6.964-1.263-25.569,5.855-25.569,5.855s-.713,22.287-4.3,21.533,1.638-19.7,1.638-19.7c-6.963,1.473-13.963,8.872-13.963,8.872-9,12.249,7.194,23.172,7.194,23.172a36.251,36.251,0,0,1-5.9,16.155h0a26.29,26.29,0,0,0-2.53,4.223l1.852.154c.193-.484.4-.95.622-1.4a.012.012,0,0,1,0-.008l.01-.019c.151-.276.367-.668.635-1.145v0c.658-1.061,1.108-1.847,1.4-2.418l0-.005c1.984-3.336,4.8-7.664,6.512-8.478a3.619,3.619,0,0,1-.326-.883l.326.883c2.606,7.057,18.364,9.507,27.346,8.43s5.34-3.888.92-8.327-14.472-4.2-17.284-6.031,1.622-3.057,7.473-2.115,8.3,7.075,17.741,8.771,18.17-15.591,18.17-15.591c-6.737,1.492-18.211-3.11-18.476-5.412s17.154-.626,19.928-1.08S1741.89,1510.1,1739.85,1498.983Z" transform="translate(-1192.41 -1105.51)" fill="#cde0fb"/>
    <path id="Trazado_62701" data-name="Trazado 62701" d="M305.787,1433.919c-8.767-13.308,12.024-29.574,12.024-29.574s31.842,4.619,35.717,1.2-26.453-9.265-26.453-9.265c5.858-8.08,31.747-18.986,31.747-18.986s22.471,22,25.386,17.731-20.891-18.463-20.891-18.463c8.527-5.294,22.874-4.59,22.874-4.59,21.114,3.692,15.283,30.614,15.283,30.614s7.952,7.455,21.773,10.689h0a37.059,37.059,0,0,1,6.7,1.831l-1.736,1.964q-1-.458-2-.814a.015.015,0,0,0-.012,0l-.029-.01c-.422-.134-1.025-.322-1.764-.546H424.4c-1.7-.438-2.931-.8-3.784-1.1l-.008,0c-5.276-1.461-24.324,25.318-34.521,32.985s-9.231,1.25-9.061-7.581,10.637-18.4,11.715-23-4.635-1.53-9.672,5.137-1.553,15.307-9.506,26.241-33.713,1.853-33.713,1.853c8.315-5.054,15.508-20.935,13.532-23.538s-18.077,16.1-21.344,18.344S314.554,1447.226,305.787,1433.919Z" transform="translate(-88.132 -1010.095)" fill="#cde0fb"/>
    <g id="Grupo_29740" data-name="Grupo 29740" transform="translate(468.683 246.403)">
      <path id="Trazado_62702" data-name="Trazado 62702" d="M1710.274,795.352s17.986-36.672,28.045-33.417S1710.274,795.352,1710.274,795.352Z" transform="translate(-1697.339 -761.73)" fill="#cde0fb"/>
      <path id="Trazado_62703" data-name="Trazado 62703" d="M1641.9,875.136s43.085-42.231,59.827-34.53-10.206,15.96-20.484,18.21S1641.9,875.136,1641.9,875.136Z" transform="translate(-1641.904 -824.923)" fill="#cde0fb"/>
    </g>
    <g id="Grupo_29741" data-name="Grupo 29741" transform="translate(284.19 254.918)">
      <path id="Trazado_62704" data-name="Trazado 62704" d="M815.436,840.361s-17.986-36.672-28.045-33.417S815.436,840.361,815.436,840.361Z" transform="translate(-763.189 -806.739)" fill="#dfebfd"/>
      <path id="Trazado_62705" data-name="Trazado 62705" d="M731.9,920.145s-43.085-42.231-59.827-34.53,10.205,15.96,20.484,18.21S731.9,920.145,731.9,920.145Z" transform="translate(-666.718 -869.932)" fill="#dfebfd"/>
    </g>
    <path id="Trazado_62706" data-name="Trazado 62706" d="M756.465,439.969c6.153-13.744,29.672-5.436,29.672-5.436s12.488,27.719,17.179,29.072-6.049-25.784-6.049-25.784c9.414.565,31.25,15.658,31.25,15.658s-6.119,29.076-1.239,29.233,4.1-26.022,4.1-26.022c8.548,4.107,15.272,15.9,15.272,15.9,7.779,18.7-16.635,27.724-16.635,27.724s-1.9,10.122,2.538,22.778h0a35.04,35.04,0,0,1,1.941,6.265l-2.446-.386q-.144-1.031-.364-2a.015.015,0,0,0,0-.012l-.007-.028c-.108-.4-.264-.98-.461-1.683v0s0,0,0,0c-.516-1.581-.851-2.741-1.047-3.572a.028.028,0,0,1,0-.008c-1.515-4.946-3.8-11.439-5.751-13.033a4.8,4.8,0,0,0,.7-1.039l-.7,1.039c-5.6,8.312-26.776,6.506-38.063,2.273s-5.684-6.721,1.439-11.07,20.062-.866,24.28-2.346-1.134-4.471-9.005-5.1-12.986,6.535-25.737,5.75-18.6-25.924-18.6-25.924c8.249,4.06,24.557,1.728,25.627-1.169s-22.008-6.23-25.456-7.694S750.312,453.713,756.465,439.969Z" transform="translate(-452.971 -248.015)" fill="#dfebfd"/>
    <path id="Trazado_62707" data-name="Trazado 62707" d="M1066.04,713.952V919.293a3.606,3.606,0,0,1-3.606,3.606H904.19a3.608,3.608,0,0,1-3.608-3.606V713.952a3.607,3.607,0,0,1,3.608-3.606h158.244A3.6,3.6,0,0,1,1066.04,713.952Z" transform="translate(-572.148 -473.665)" fill="#f78248"/>
    <path id="Trazado_62708" data-name="Trazado 62708" d="M917.647,710.346V922.9H904.19a3.608,3.608,0,0,1-3.608-3.606V713.952a3.607,3.607,0,0,1,3.608-3.606Z" transform="translate(-572.148 -473.665)" fill="#ea642f"/>
    <path id="Trazado_62709" data-name="Trazado 62709" d="M1005.034,688.95s-4.236-.09-4.38,4.048h8.9s.933-3.088,3.662-2.024V688.95Z" transform="translate(-653.288 -456.316)" fill="#7999e2"/>
    <path id="Trazado_62710" data-name="Trazado 62710" d="M1023.806,688.951s7.54.718,7.827,7.181,0,19.388,0,19.388l5.745-2.154,4.6,2.154V695.844a7.765,7.765,0,0,0-6.606-6.893Z" transform="translate(-672.06 -456.317)" fill="#aec3ff"/>
    <g id="Grupo_29745" data-name="Grupo 29745" transform="translate(394.484 152.596)">
      <path id="Trazado_62711" data-name="Trazado 62711" d="M1528.023,676.062h-15.861a21.093,21.093,0,0,1-5.136-5.332q-.569-.827-1.114-1.788C1503.877,665.341,1522.7,673.658,1528.023,676.062Z" transform="translate(-1457.318 -591.968)" fill="#233862"/>
      <g id="Grupo_29742" data-name="Grupo 29742" transform="translate(0)">
        <path id="Trazado_62712" data-name="Trazado 62712" d="M1513.369,838.22a1.52,1.52,0,0,1,.26,1.628.014.014,0,0,1,0,.008c-.4,1.081-1.7,2.282-3.218,3.48-.194.154-.365.294-.516.424-.039.034-.079.068-.116.1l-.089.079c-1.413,1.284-.886,1.584-3.427,4.191-2.9,2.971-4.876,3.011-5.437,2.735-.475-.236.5-1.815,1.589-3.591.052-.085.1-.172.158-.259.145-.236.288-.476.432-.713,1.272-2.137.956-3.147.681-6.343-.224-2.6-3.935-14.529-3.935-14.529l5.516-.91s1.592,9.491,3.411,10.964c.972.785,2.066.8,3,1.386q.1.061.195.125A7.24,7.24,0,0,1,1513.369,838.22Z" transform="translate(-1452.443 -718.837)" fill="#ffb27d"/>
        <path id="Trazado_62713" data-name="Trazado 62713" d="M1517.452,891.151a1.52,1.52,0,0,1,.26,1.628.013.013,0,0,1,0,.008,11.7,11.7,0,0,1-3.223,3.469c-.191.156-.36.3-.51.435-.039.034-.079.068-.116.1l-.089.079c-1.413,1.284-.887,1.584-3.427,4.191-2.9,2.971-4.876,3.011-5.437,2.735-.475-.236.5-1.815,1.59-3.591a12.253,12.253,0,0,0,5.152-3.74c1.747-2.2,2.922-5.027,4.112-6.663q.1.061.195.125A7.243,7.243,0,0,1,1517.452,891.151Z" transform="translate(-1456.525 -771.768)" fill="#233862"/>
        <path id="Trazado_62714" data-name="Trazado 62714" d="M1266.232,826.157c-.352,1.7-2.774,1.4-5.478.716s-2.066.11-5.917-.344-5.009-1.9-5.123-2.473c-.1-.509,1.8-.675,3.849-.9.257-.027.516-.057.774-.087,2.309-.273,4.009-1.75,6.112-2.957,1.993-1.144,4.988-5.84,4.988-5.84l5.283.456s-2.8,4.194-3.89,6.018a6.389,6.389,0,0,0-.544,3.6A6.777,6.777,0,0,1,1266.232,826.157Z" transform="translate(-1249.709 -710.529)" fill="#ffb27d"/>
        <path id="Trazado_62715" data-name="Trazado 62715" d="M1260.753,864.951c-2.7-.681-2.066.11-5.917-.344s-5.009-1.9-5.123-2.473c-.1-.509,1.8-.675,3.849-.9l.019.039a10.868,10.868,0,0,0,5.509,1.755c2.615.082,5.39-.648,7.2-.606a6.777,6.777,0,0,1-.053,1.808C1265.88,865.933,1263.457,865.632,1260.753,864.951Z" transform="translate(-1249.709 -748.606)" fill="#233862"/>
        <path id="Trazado_62716" data-name="Trazado 62716" d="M1463.324,691.918s-.369.239-.918.543a12.3,12.3,0,0,1-2.408,1.047,9.8,9.8,0,0,1-2.479.323c-.573,0-.95-.034-.95-.034l-6.331-17.41-1.144-3.147-1.217-3.35-.424-1.165-2.062-5.67s5.039-12.919,10.176-6.76a12.481,12.481,0,0,1,1.76,3.182c.375.913.73,1.943,1.071,3.059.254.838.5,1.723.737,2.645.64,2.507,1.206,5.278,1.7,8.059C1462.489,682.525,1463.324,691.918,1463.324,691.918Z" transform="translate(-1408.37 -581.086)" fill="#233862"/>
        <path id="Trazado_62717" data-name="Trazado 62717" d="M1392.668,599.332a2.752,2.752,0,0,1-1.465,1.532h-23.366a61.249,61.249,0,0,1-14.222-5.332c-.267-.134-.517-.258-.752-.373a15.387,15.387,0,0,0-2.169-.984c-1.954-.407-2.958,2.774-4.612,6.689-.338.8-.7,1.622-1.1,2.456a12.6,12.6,0,0,1-1.564,2.253c-.136.164-.276.332-.424.5-5.68,6.635-20.305,18.991-20.305,18.991s-.172,0-.45-.006a14.788,14.788,0,0,1-3.843-.465,5.857,5.857,0,0,1-1.245-.646,2.818,2.818,0,0,1-.593-.532s17.5-34.217,26.561-43.538v0c.132-.136.261-.265.39-.388a7.371,7.371,0,0,1,2.6-1.835c3.087-.972,23.058.112,23.058.112l.638-1.036,1.066-.076.183-.013.89-.065h0l1.228-.086,1.824-.129,4.935-.351.793-.056,9.125-.648s.416.939.978,2.495c.22.607.461,1.307.709,2.083C1393.159,584.978,1395.059,593.289,1392.668,599.332Z" transform="translate(-1303.906 -516.769)" fill="#2b478b"/>
        <path id="Trazado_62718" data-name="Trazado 62718" d="M1606.218,290.416c-4.56-3.893-7.813-4.855-8.266-11.019-.246-3.345-4.737-14.411-12.335-13.444a11.388,11.388,0,0,1-1.915.112,7.1,7.1,0,0,0-3.86.969c-3.658,2.141-10.394,21.943-5.853,28.9a5.042,5.042,0,0,0,3.621,2.329l.586.33h0c.816.459,1.715.963,2.665,1.5,5.368,3.027,12.4,7.029,16,9.052h0l.614.347,1.047.582c.422.23.668.36.687.36a15.664,15.664,0,0,0,2.227.627c1.81.377,4.345.588,6.112-.567a9.711,9.711,0,0,0,1.935-1.676C1613.137,304.733,1614.1,297.142,1606.218,290.416Z" transform="translate(-1511.407 -265.894)" fill="#233862"/>
        <path id="Trazado_62719" data-name="Trazado 62719" d="M1627.739,371.664c-.031.02,3.5,1.254,5.877.222,2.235-.969,3.948-4.622,3.916-4.625-1.013-.054-2.12-.948-2.936-6.768l-.433.152-7.275,2.56s.509,2.332.834,4.551C1628,369.619,1628.137,371.4,1627.739,371.664Z" transform="translate(-1555.531 -342.596)" fill="#ffb27d"/>
        <path id="Trazado_62720" data-name="Trazado 62720" d="M1626.889,363.855s.31,1.634.74,3.97c4.173-.721,5.931-4.281,6.534-6.53Z" transform="translate(-1555.531 -343.246)" fill="#ed975d"/>
        <path id="Trazado_62721" data-name="Trazado 62721" d="M1599.6,312.26s9.938-1.262,9.056-7.439-.193-10.5-6.574-9.954-7.276,3.077-7.483,5.21S1597,312.429,1599.6,312.26Z" transform="translate(-1529.343 -289.348)" fill="#ffb27d"/>
        <path id="Trazado_62722" data-name="Trazado 62722" d="M1596.691,294.328s6.317,5.522,10.637,5.994,5.966-.9,5.966-.9a16.88,16.88,0,0,1-4.042-5.559,3.039,3.039,0,0,0-2.493-1.81C1603.673,291.761,1597.823,291.6,1596.691,294.328Z" transform="translate(-1531.046 -286.978)" fill="#233862"/>
        <path id="Trazado_62723" data-name="Trazado 62723" d="M1595.622,297.139a15.653,15.653,0,0,0-2.821,3.561,12.017,12.017,0,0,0-.37,6.386s-3.267-6.465-1.369-9.581C1593.073,294.2,1595.622,297.139,1595.622,297.139Z" transform="translate(-1526.001 -290.252)" fill="#233862"/>
        <path id="Trazado_62724" data-name="Trazado 62724" d="M1586.645,414.211c.158,20.1-.03,15.9,2.155,17.82.526.463,2.014.747,3.973.89,6.159.453,17-.486,17.419-1.622,1.449-3.93.455-5.162,1.683-11.186.128-.641.286-1.334.471-2.089,1.018-4.137,1.99-5.539-1.471-12.221-3.139-6.052-6.409-10.97-6.708-10.8-8.428,4.923-9.076.731-9.076.731S1586.567,404.407,1586.645,414.211Z" transform="translate(-1522.9 -370.577)" fill="#aec3ff"/>
        <path id="Trazado_62725" data-name="Trazado 62725" d="M1484.1,725.8s-.369.239-.918.543a12.3,12.3,0,0,1-2.408,1.047,9.8,9.8,0,0,1-2.479.323c-.573,0-.95-.034-.95-.034l-6.331-17.41,1.855-3.147,4.748-8.059,1.557-2.645c.254.838.5,1.723.737,2.645.64,2.507,1.206,5.278,1.7,8.059C1483.261,716.4,1484.1,725.8,1484.1,725.8Z" transform="translate(-1429.143 -614.964)" fill="#2b478b"/>
        <path id="Trazado_62726" data-name="Trazado 62726" d="M1559.083,398.883s-8.646,1.4-9.687,5.115-7.163,25.528-7.163,25.528,4.385.82,6.427-1.194,7.19-18.767,7.19-18.767Z" transform="translate(-1486.892 -373.723)" fill="#aec3ff"/>
        <path id="Trazado_62727" data-name="Trazado 62727" d="M1619.037,504.576c6.159.453,17-.486,17.419-1.622,1.449-3.93.455-5.162,1.683-11.186l-2.913-8.391s.426,9.324-2.34,11.756-11.287,4.653-12.637,6.692A7.5,7.5,0,0,0,1619.037,504.576Z" transform="translate(-1549.165 -442.232)" fill="#95b3ef"/>
        <path id="Trazado_62728" data-name="Trazado 62728" d="M1610.3,570.752s-6.07-1.4-7.055-.864a14.286,14.286,0,0,0-3.7,3.162c-.3.682,2.188-.5,3-.715a7.193,7.193,0,0,1,2.578.584,8.585,8.585,0,0,0,4.625.5Z" transform="translate(-1533.335 -512.278)" fill="#ffb27d"/>
        <path id="Trazado_62729" data-name="Trazado 62729" d="M1656.557,395s8.16.561,10.958,4.522c3.939,5.576,11.663,29.277,7.119,32.4-5.119,3.515-23.187.765-23.187.765s-.582-2.818.265-4.173,14.471-3.457,15.1-4.081-7.765-12.3-7.752-14.188S1656.557,395,1656.557,395Z" transform="translate(-1575.285 -370.578)" fill="#aec3ff"/>
        <path id="Trazado_62730" data-name="Trazado 62730" d="M1607.34,579.34a11.753,11.753,0,0,1-1.7,1.827,1.245,1.245,0,0,1-.688.142l.869-1.539Z" transform="translate(-1537.74 -520.04)" fill="#ffb27d"/>
        <path id="Trazado_62731" data-name="Trazado 62731" d="M1603.286,570.407l-3.716,1.772a.661.661,0,0,0,.612.241,8.827,8.827,0,0,0,1.609-.43Z" transform="translate(-1533.38 -512.797)" fill="#ffb27d"/>
      </g>
      <g id="Grupo_29744" data-name="Grupo 29744" transform="translate(30.733 40.679)">
        <g id="Grupo_29743" data-name="Grupo 29743">
          <path id="Trazado_62732" data-name="Trazado 62732" d="M1450.11,503.1l-29.3-.207-8.658-21.977,29.251.206Z" transform="translate(-1412.155 -480.912)" fill="#f99746"/>
          <path id="Trazado_62733" data-name="Trazado 62733" d="M1456.138,592.553l38.686.273-.006.854-38.343-.271Z" transform="translate(-1447.817 -571.432)" fill="#ed7d2b"/>
        </g>
        <path id="Trazado_62734" data-name="Trazado 62734" d="M1497.189,533.488a1.015,1.015,0,0,1,1-1.388,2,2,0,0,1,1.785,1.408,1.015,1.015,0,0,1-1,1.388A2,2,0,0,1,1497.189,533.488Z" transform="translate(-1481.058 -522.416)" fill="#fff"/>
      </g>
    </g>
    <g id="Grupo_29751" data-name="Grupo 29751" transform="translate(292.029 418.778)">
      <g id="Grupo_29750" data-name="Grupo 29750">
        <rect id="Rectángulo_6081" data-name="Rectángulo 6081" width="148.175" height="30.435" rx="15.218" transform="translate(148.175 30.455) rotate(180)" fill="#2b478b"/>
        <path id="Trazado_62735" data-name="Trazado 62735" d="M1141.06,1687.068l-.106,6.652a10.656,10.656,0,0,0,10.484,10.824l78.666,1.257.021-1.325a13.559,13.559,0,0,1-7.308-12.254l.037-2.339a13.559,13.559,0,0,1,7.7-12.015v-.027l-78.666-1.256A10.657,10.657,0,0,0,1141.06,1687.068Z" transform="translate(-1059.073 -1675.879)" fill="#ffeddc"/>
        <g id="Grupo_29746" data-name="Grupo 29746" transform="translate(80.683)">
          <path id="Trazado_62736" data-name="Trazado 62736" d="M1227.033,1703.32h-82.876c-5.345,0-9.532-6.689-9.532-15.228s4.187-15.228,9.532-15.228h82.876a1.246,1.246,0,1,1,0,2.492h-82.876c-3.816,0-7.04,5.832-7.04,12.735s3.224,12.736,7.04,12.736h82.876a1.246,1.246,0,1,1,0,2.492Z" transform="translate(-1134.625 -1672.865)" fill="#1b3770"/>
        </g>
        <g id="Grupo_29747" data-name="Grupo 29747" transform="translate(105.343 8.116)">
          <rect id="Rectángulo_6082" data-name="Rectángulo 6082" width="59.841" height="0.18" fill="#e8c2a3"/>
        </g>
        <g id="Grupo_29748" data-name="Grupo 29748" transform="translate(137.116 10.888)">
          <rect id="Rectángulo_6083" data-name="Rectángulo 6083" width="27.056" height="0.18" fill="#e8c2a3"/>
        </g>
        <g id="Grupo_29749" data-name="Grupo 29749" transform="translate(116.973 20.339)">
          <rect id="Rectángulo_6084" data-name="Rectángulo 6084" width="47.199" height="0.18" fill="#e8c2a3"/>
        </g>
      </g>
      <path id="Trazado_62737" data-name="Trazado 62737" d="M1314.357,1716.242a5.312,5.312,0,0,1,2.81,4.6,25.212,25.212,0,0,1,0,5.437l-3.031-1.442-3.06,1.442v-5.545s-.112-4.49-4.289-4.49Z" transform="translate(-1193.532 -1708.036)" fill="#f78248"/>
    </g>
    <g id="girl_2" data-name="girl 2" transform="translate(278.655 307.285)">
      <path id="Trazado_62738" data-name="Trazado 62738" d="M857.135,1083.894a10.418,10.418,0,0,1,10.905,3.668c4.739,5.7,11.684,13.406,9.881,15.586s-2.162,3.977.423,5.377,3.949,3.255.144,9.076c-2.484,3.8-3.013-1.257-10.555-1.007s-13.312-3.555-15.833-1.464C842.583,1123.02,843.968,1083.678,857.135,1083.894Z" transform="translate(-806.499 -1083.541)" fill="#233862"/>
      <path id="Trazado_62739" data-name="Trazado 62739" d="M697.591,1239.266s-17.332,8.2-20.667,8.051-24.849-7.159-24.849-7.159l.523,3.535s15.859,9.121,21.4,9.638c5.459.51,24.123-4.9,25.925-6.041S702.828,1240.422,697.591,1239.266Z" transform="translate(-649.312 -1209.805)" fill="#ed985f"/>
      <path id="Trazado_62740" data-name="Trazado 62740" d="M881.258,1199.145a17.675,17.675,0,0,0,6.176,2.629c9.521,2.2,13.169-5.847,14.539-11.37a8.181,8.181,0,0,0-3.225-.991c-.688-.081-1.412-.135-2.011-.165-1.069-.819-2.662-4.17-3.014-9.373l-.448.12-7.5,2.054s.344,2.385.512,4.639c.13,1.764.151,3.45-.183,3.863-.586.127-.937.21-.937.21a.023.023,0,0,1,0,.007A48.292,48.292,0,0,0,881.258,1199.145Z" transform="translate(-835.135 -1161.649)" fill="#ffb27d"/>
      <path id="Trazado_62741" data-name="Trazado 62741" d="M905.114,1182.571s.345,2.383.512,4.64c4.251-.426,6.224-4.473,6.992-6.693Z" transform="translate(-854.478 -1162.171)" fill="#ed985f"/>
      <path id="Trazado_62742" data-name="Trazado 62742" d="M880.395,1128.957s10.09-.557,9.647-6.835.56-10.578-5.9-10.488-7.542,2.574-7.9,4.706S877.759,1128.94,880.395,1128.957Z" transform="translate(-831.028 -1106.318)" fill="#ffb27d"/>
      <path id="Trazado_62743" data-name="Trazado 62743" d="M870.227,1107.283c1.422-2,2.629-1.67,3.33-1.15a7.062,7.062,0,0,1,9.162.8,12.023,12.023,0,0,0,4.431,6.8s-1.756,1.266-6.068.481a7.216,7.216,0,0,1-3.6-2.121,23.573,23.573,0,0,0,4.4,4.652c-5.226-1.975-7.762-8.865-8.018-9.594a7.917,7.917,0,0,0-1.988,3.087c-.388,1.635-2.06,4.19-3.028,4.147C868.849,1114.388,868.094,1110.283,870.227,1107.283Z" transform="translate(-824.968 -1100.774)" fill="#233862"/>
      <path id="Trazado_62744" data-name="Trazado 62744" d="M854.074,1234.3c-.545,4.862.265,7.007,5.308,18.237a21.35,21.35,0,0,1-.575,18.037s10.366,8.334,17.809,11.559c4.136,1.795,7.372,2.01,7.421-1.659.056-4.151-1.893-9.386-3.528-14.265-1.411-4.207-2.589-8.151-2.051-10.909.911-4.657,3.882-23.267.911-29.256-1.066-2.152-5.254-2.346-9.847-2.156-1.43.922-6.876,4.41-9.114,3.974-.024,0-.067-.015-.125-.028-1.053-.265-1.053-.894-.573-1.643a21.173,21.173,0,0,0-4.843.776,20.507,20.507,0,0,0-6.157,3.206A15.183,15.183,0,0,0,854.074,1234.3Z" transform="translate(-808.745 -1197.29)" fill="#ffeddc"/>
      <path id="Trazado_62745" data-name="Trazado 62745" d="M794.913,1350.327a4.665,4.665,0,0,1-3.356-2.043q-.182-.272-.388-.584c-2.856-4.323-3.967-17.563-10.391-31.668-1.565-3.434-7.181-4.051-8.712-7.933,0,0-3.769-12.582,7.215-12.953s29.417,35.008,29.708,38.719C809.271,1337.459,816.251,1352.735,794.913,1350.327Z" transform="translate(-746.095 -1255.11)" fill="#1b3770"/>
      <path id="Trazado_62746" data-name="Trazado 62746" d="M664.743,1550.543h15.634a6.5,6.5,0,0,0-.442-4.19c-.908-1.5-.56-2.356.113-3.6a6.07,6.07,0,0,1-2.633.5,5.506,5.506,0,0,1-2.325-.818,56.288,56.288,0,0,1-4.454,4.679C669.613,1547.845,665.058,1547.584,664.743,1550.543Z" transform="translate(-659.582 -1455.615)" fill="#233862"/>
      <path id="Trazado_62747" data-name="Trazado 62747" d="M723.668,1296.653c-.941,7.058-4.618,29.333-11.1,40.2-2.091,3.5,5.268,5.468,5.307,5.458.987-.258,2.631-1.832,3.389-2.515,5.265-4.745,15.952-18.18,15.952-28.952,0-5.252.092-15.283-3.727-17.832C731.135,1291.443,724.042,1293.85,723.668,1296.653Z" transform="translate(-698.054 -1252.981)" fill="#1b3770"/>
      <path id="Trazado_62748" data-name="Trazado 62748" d="M822.415,1304.736c1.532,3.882,5.836,3.408,7.4,6.842.067.144.131.291.2.435.8,1.782,1.562,3.563,2.279,5.325,1.5,3.677,3.725,11.372,5.4,17.606,1.138,4.231,2.019,7.789,2.241,8.959a17.4,17.4,0,0,0,.935,3.188c23.948,3.694,20.928-12.807,19.614-16.663-1.2-3.522-22.07-39.893-33.054-39.521S822.415,1304.736,822.415,1304.736Z" transform="translate(-786.11 -1251.674)" fill="#2b478b"/>
      <path id="Trazado_62749" data-name="Trazado 62749" d="M725.4,1550.543h15.634a6.5,6.5,0,0,0-.442-4.19c-.909-1.5-.56-2.356.113-3.6a6.07,6.07,0,0,1-2.633.5,5.509,5.509,0,0,1-2.325-.818,56.206,56.206,0,0,1-4.454,4.679C730.274,1547.845,725.719,1547.584,725.4,1550.543Z" transform="translate(-708.767 -1455.615)" fill="#1e3d7c"/>
      <path id="Trazado_62750" data-name="Trazado 62750" d="M869.524,1380.648c.8,1.781,1.562,3.563,2.279,5.325,1.5,3.677,3.725,11.372,5.4,17.606.013.026.028.052.041.078,6.226-9.709-2.745-28.1-2.745-28.1A10.9,10.9,0,0,0,869.524,1380.648Z" transform="translate(-825.621 -1320.31)" fill="#1e3d7c"/>
      <path id="Trazado_62751" data-name="Trazado 62751" d="M781.979,1297.352c-.941,7.058-2.267,29.834-8.752,40.7-2.091,3.5,5.268,5.468,5.307,5.458.987-.258,2.631-1.831,3.389-2.515,5.265-4.745,15.952-18.18,15.952-28.952,0-5.252-6.164-14.861-9.983-17.411A3.842,3.842,0,0,0,781.979,1297.352Z" transform="translate(-747.239 -1254.18)" fill="#2b478b"/>
      <g id="Grupo_29753" data-name="Grupo 29753" transform="translate(0 16.182)">
        <g id="Grupo_29752" data-name="Grupo 29752">
          <path id="Trazado_62752" data-name="Trazado 62752" d="M637.464,1174.922l3.241-5.848,2.544,7.1,15.223,13.873-14.891,3.035Z" transform="translate(-637.464 -1169.074)" fill="#ea642f"/>
          <path id="Trazado_62753" data-name="Trazado 62753" d="M655.5,1203.885l5.942,18.142-17.866-3.883-6.116-18.158Z" transform="translate(-637.464 -1194.137)" fill="#f78248"/>
          <path id="Trazado_62754" data-name="Trazado 62754" d="M654.818,1202.349l-16.62-3.732-.733.259L654.7,1202.6Z" transform="translate(-637.464 -1193.028)" fill="#fcecdb"/>
          <path id="Trazado_62755" data-name="Trazado 62755" d="M728.672,1218.342l.2.322-.32-.069Z" transform="translate(-711.319 -1209.021)" fill="#eac5a4"/>
        </g>
        <path id="Trazado_62756" data-name="Trazado 62756" d="M637.464,1176.141l3.5-5.564,2.292,6.441-5.063-1.137Z" transform="translate(-637.464 -1170.293)" fill="#efdece"/>
      </g>
      <path id="Trazado_62757" data-name="Trazado 62757" d="M691.933,1225.831c.563-.108,1.772-.564,3-.9a2.51,2.51,0,0,1-.885-.99c-.219-.69-.364-.912.364-.693s3.274,1.386,3.274,1.386l-.006,0c1.447.423,2.78,2.468,2.78,2.468s17.913,6.3,20.068,6.4c3.334.167,25.524-8,25.524-8,5.237,1.156,4.062,7.59,2.26,8.732s-17.769,6.95-27.232,7.06c-4.793.055-22.228-11.15-22.228-11.15a7.419,7.419,0,0,0-3.639-.64c-1.6.291-5.313,0-6.114-1.31S690.987,1226.013,691.933,1225.831Z" transform="translate(-679.208 -1196.751)" fill="#ffb27d"/>
      <path id="Trazado_62758" data-name="Trazado 62758" d="M930.328,1237.35a12.191,12.191,0,0,0,8.8,7.712s11.256-3.468,5.651-11.135C944.78,1233.926,939.239,1229.809,930.328,1237.35Z" transform="translate(-874.922 -1204.566)" fill="#ffeddc"/>
      <path id="Trazado_62759" data-name="Trazado 62759" d="M643.245,1226.1h0a1.72,1.72,0,0,1,.06-.511s1.605-2.539,2.131-2.643c1.6-.316,1.6,1.792,1.262,3.153a7.621,7.621,0,0,1-1.069,2.81l.681,2.021A5.09,5.09,0,0,1,643.245,1226.1Z" transform="translate(-642.15 -1196.549)" fill="#ffb27d"/>
      <path id="Trazado_62760" data-name="Trazado 62760" d="M976.351,1453.648c4.136,1.794,7.372,2.01,7.421-1.659.056-4.151-1.893-9.386-3.528-14.265,0,0-2.251,1.553-7.1-2C969.322,1432.92,974.143,1447.4,976.351,1453.648Z" transform="translate(-908.481 -1368.806)" fill="#2b478b"/>
    </g>
    <g id="Grupo_29755" data-name="Grupo 29755" transform="translate(255.293 429.551)">
      <path id="Trazado_62761" data-name="Trazado 62761" d="M513.979,1758.273a7.564,7.564,0,0,0,.06.969,7.948,7.948,0,0,0,7.893,6.984H633.79a7.954,7.954,0,0,0,0-15.909H521.932A7.954,7.954,0,0,0,513.979,1758.273Z" transform="translate(-513.979 -1746.437)" fill="#f78248"/>
      <path id="Trazado_62762" data-name="Trazado 62762" d="M553.845,1732.249H592.2a1.224,1.224,0,0,0,1.221-1.221h0a1.224,1.224,0,0,0-1.221-1.221H553.845a1.224,1.224,0,0,0-1.221,1.221h0A1.224,1.224,0,0,0,553.845,1732.249Z" transform="translate(-545.313 -1729.807)" fill="#f78248"/>
      <rect id="Rectángulo_6085" data-name="Rectángulo 6085" width="4.157" height="1.44" transform="translate(14.807 3.881) rotate(180)" fill="#ea642f"/>
      <path id="Trazado_62763" data-name="Trazado 62763" d="M519.08,1812.477a7.967,7.967,0,0,0,6.988,4.149h23.694v-4.149Z" transform="translate(-518.115 -1796.837)" fill="#ea642f"/>
      <path id="Trazado_62764" data-name="Trazado 62764" d="M720.016,1755.943v4.659a5.621,5.621,0,0,1-5.622,5.625H597.873a5.62,5.62,0,0,1-5.622-5.625v-4.659a5.623,5.623,0,0,1,5.622-5.625h116.52A5.623,5.623,0,0,1,720.016,1755.943Z" transform="translate(-577.443 -1746.438)" fill="#f99746"/>
      <path id="Trazado_62765" data-name="Trazado 62765" d="M720.659,1812.477a5.621,5.621,0,0,1-5.426,4.149H598.713a5.622,5.622,0,0,1-5.426-4.149Z" transform="translate(-578.283 -1796.837)" fill="#ef873a"/>
      <g id="Grupo_29754" data-name="Grupo 29754" transform="translate(131 3.88)">
        <path id="Trazado_62766" data-name="Trazado 62766" d="M1206.413,1758.3a8.841,8.841,0,0,0,2.314,6.142l.095.1a5.644,5.644,0,0,0,3.992,1.743c2.359,0,8.205-3.559,11.829-5.922,1.805-1.178,3.059-2.059,3.059-2.059s-1.254-.881-3.059-2.059c-3.623-2.365-9.47-5.924-11.829-5.924a5.281,5.281,0,0,0-1.958.379,6.41,6.41,0,0,0-2.7,2.128,8.782,8.782,0,0,0-1.62,3.893.413.413,0,0,0-.006.052A9.872,9.872,0,0,0,1206.413,1758.3Z" transform="translate(-1206.413 -1750.317)" fill="#cde0fb"/>
        <path id="Trazado_62767" data-name="Trazado 62767" d="M1206.413,1785.952a8.842,8.842,0,0,0,2.314,6.142l17.933-6.17-20.129-1.5A9.874,9.874,0,0,0,1206.413,1785.952Z" transform="translate(-1206.413 -1777.968)" fill="#a6c7ed"/>
        <path id="Trazado_62768" data-name="Trazado 62768" d="M1215.636,1754.45l17.891,4.886-15.194-7.014A6.408,6.408,0,0,0,1215.636,1754.45Z" transform="translate(-1213.891 -1751.943)" fill="#e3f0ff"/>
        <path id="Trazado_62769" data-name="Trazado 62769" d="M1296.594,1783.69a2.208,2.208,0,0,0,1.167,2.059c1.805-1.178,3.059-2.059,3.059-2.059s-1.254-.881-3.059-2.059A2.2,2.2,0,0,0,1296.594,1783.69Z" transform="translate(-1279.533 -1775.707)" fill="#2e3552"/>
      </g>
    </g>
    <g id="Grupo_29759" data-name="Grupo 29759" transform="translate(464.337 291.728)">
      <path id="Trazado_62770" data-name="Trazado 62770" d="M1940,1180.531s-.543-1.221-.895-1.8-1.854-2.272-2.11-1.889-1.279,2.965-.735,3.688-.035,1.981,2.667,2.742Z" transform="translate(-1876.103 -1143.588)" fill="#ffb27d"/>
      <path id="Trazado_62771" data-name="Trazado 62771" d="M1981.669,1155.82s-13.835,11.548-19.229,10.479a106.4,106.4,0,0,1-10.692-3.056l-1.295,3.312s5.806,7.875,11.859,7.927a34.479,34.479,0,0,0,16.451-4.1Z" transform="translate(-1887.735 -1126.588)" fill="#95b3ef"/>
      <path id="Trazado_62772" data-name="Trazado 62772" d="M2175.49,1790.733s-.4,6.478-1.655,6.571c-.167.012-6.357.012-6.357.012l-7.9-.046a2.565,2.565,0,0,1,2.362-2.307c2.31-.4,6.176-2.026,7.576-5.079C2170.985,1786.674,2175.49,1790.733,2175.49,1790.733Z" transform="translate(-2057.293 -1639.693)" fill="#1c3d72"/>
      <path id="Trazado_62773" data-name="Trazado 62773" d="M2131.206,1459.262a16.476,16.476,0,0,1-4.278.8,15.7,15.7,0,0,1-3.993-.57,109.4,109.4,0,0,0-2.941-14.01c-1.3-5.051-3.168-11.546-5.819-19.616-7.33-22.3-9.559-35.351-9.762-36.587-.011-.065-.015-.1-.015-.1l.024-.011,22.535-9.894s-2.785,30.739.768,42.538a49.776,49.776,0,0,1,1.29,5.653C2131.258,1440.287,2131.206,1459.262,2131.206,1459.262Z" transform="translate(-2012.553 -1307.772)" fill="#2b478b"/>
      <path id="Trazado_62774" data-name="Trazado 62774" d="M2120.059,1445.485c-1.3-5.051-3.168-11.546-5.819-19.616-7.33-22.3-9.559-35.351-9.762-36.587,0-.037,0-.071.008-.108l22.535-9.894s-2.785,30.739.769,42.538C2128.287,1423.467,2120.059,1445.485,2120.059,1445.485Z" transform="translate(-2012.618 -1307.772)" fill="#233862"/>
      <path id="Trazado_62775" data-name="Trazado 62775" d="M2082.456,1790.733s-.4,6.478-1.655,6.571c-.167.012-6.357.012-6.357.012l-7.9-.046a2.564,2.564,0,0,1,2.361-2.307c2.31-.4,6.176-2.026,7.575-5.079C2077.951,1786.674,2082.456,1790.733,2082.456,1790.733Z" transform="translate(-1981.86 -1639.693)" fill="#1c3d72"/>
      <path id="Trazado_62776" data-name="Trazado 62776" d="M2083.1,1383.108a320.83,320.83,0,0,0,3.154,44.377c3.447,24.458,2.278,34.839,2.278,34.839a23.464,23.464,0,0,0,3.323.845,15.08,15.08,0,0,0,4.931-.571s4.933-24.466,3.519-36.708,6.755-42.006,6.755-42.006Z" transform="translate(-1995.282 -1310.876)" fill="#2b478b"/>
      <path id="Trazado_62777" data-name="Trazado 62777" d="M2127.546,1094.519l-4.4,2.885-4.007-1.133c-.732-1.045-.926-3.059-.937-4.8a29.8,29.8,0,0,1,.157-3.2l5.935-2.62,2.214-.976c-.006.034-.172,1.818-.2,2.079A15.153,15.153,0,0,0,2127.546,1094.519Z" transform="translate(-2023.748 -1068.9)" fill="#ffb27d"/>
      <path id="Trazado_62778" data-name="Trazado 62778" d="M2082.2,1181.709c5.475,5.286,26.2,4.4,27.474-1.427s-1.393-49.581-10.746-52.33c-1.941-.57-12.317,2.783-12.317,2.783a65.809,65.809,0,0,0-2.7,9.682c-.207,1.056-.812,12.238-1.265,22.7-.211,4.892-.39,9.629-.481,13.1A37.835,37.835,0,0,0,2082.2,1181.709Z" transform="translate(-1994.486 -1103.938)" fill="#afcdfb"/>
      <path id="Trazado_62779" data-name="Trazado 62779" d="M2125.871,1091.011c-1.2,2.036-5.429,3.818-7.667,4.634a29.8,29.8,0,0,1,.157-3.2l5.935-2.619C2125.608,1089.809,2126.407,1090.1,2125.871,1091.011Z" transform="translate(-2023.748 -1073.079)" fill="#fca56b"/>
      <path id="Trazado_62780" data-name="Trazado 62780" d="M2102.082,1034.313s9.562,2.983,11.328-3,4.189-9.628-1.841-11.786-7.9-.226-8.971,1.628S2099.64,1033.383,2102.082,1034.313Z" transform="translate(-2009.707 -1015.308)" fill="#ffb27d"/>
      <path id="Trazado_62781" data-name="Trazado 62781" d="M2108.063,1006.577s.61,6.963,2.05,6.661,3.025-.949,2.814,1.15,1.4,5.7,3.477,5.688c4.453-.019,9.292-11.446,8.073-13.613C2120.958,1000.211,2102.979,998.949,2108.063,1006.577Z" transform="translate(-2014.797 -1001.306)" fill="#163560"/>
      <path id="Trazado_62782" data-name="Trazado 62782" d="M2108.453,1116.446c.123-.052,7.119-3.19,7.937-2.919s1.838,2.768,1.838,2.768l-12.318,2.785A6.116,6.116,0,0,1,2108.453,1116.446Z" transform="translate(-2013.78 -1092.282)" fill="#95b3ef"/>
      <g id="Grupo_29757" data-name="Grupo 29757" transform="translate(0 4.41)">
        <path id="Trazado_62783" data-name="Trazado 62783" d="M1885.593,1292.083,1924.806,1329c.769.724,1.738.954,2.154.512l1.324-1.406c.416-.442.127-1.4-.641-2.119l-39.213-36.919c-.768-.724-1.738-.954-2.154-.512l-1.324,1.406C1884.536,1290.405,1884.825,1291.359,1885.593,1292.083Z" transform="translate(-1834.47 -1238.441)" fill="#1f4d84"/>
        <path id="Trazado_62784" data-name="Trazado 62784" d="M2005.472,1404.753l17.208,16.2c.768.724,1.738.954,2.154.512l1.324-1.406c.416-.442.127-1.4-.641-2.119l-17.207-16.2Z" transform="translate(-1932.344 -1330.392)" fill="#f78248"/>
        <path id="Trazado_62785" data-name="Trazado 62785" d="M1672.052,1034.287a30.73,30.73,0,0,0-43.441-1.323c-.164.153-.325.308-.482.465a30.736,30.736,0,1,0,43.924.857Zm-2.985,41.679a28.311,28.311,0,1,1,1.219-40.016A28.275,28.275,0,0,1,1669.066,1075.967Z" transform="translate(-1618.935 -1024.614)" fill="#1f4d84"/>
        <g id="Grupo_29756" data-name="Grupo 29756" transform="translate(2.427 2.427)" opacity="0.5">
          <path id="Trazado_62786" data-name="Trazado 62786" d="M1639.452,1085.146a28.31,28.31,0,1,0,1.22-40.014A28.193,28.193,0,0,0,1639.452,1085.146Z" transform="translate(-1631.761 -1037.442)" fill="#b3cff9"/>
        </g>
      </g>
      <path id="Trazado_62787" data-name="Trazado 62787" d="M2082.434,1229.286c21.606-15.4,19.81-35.941,19.81-35.941-7.9,4.454-15.733,14.3-19.329,22.845C2082.7,1221.082,2082.525,1225.819,2082.434,1229.286Z" transform="translate(-1994.746 -1157.014)" fill="#95b3ef"/>
      <g id="Grupo_29758" data-name="Grupo 29758" transform="translate(60.157 26.797)">
        <path id="Trazado_62788" data-name="Trazado 62788" d="M1943.114,1338.955a5.9,5.9,0,0,1-2.76-1.7s-.65.044.106,1.43c.063.116.2.414.31.625a.135.135,0,0,1-.113.194,14.372,14.372,0,0,0-3.457.072c-.234.049-.3.608-.293.847a2.163,2.163,0,0,0,.455,1.476,7.554,7.554,0,0,0,2.73,1.43,8.256,8.256,0,0,0,4.224-.531l1.383-.64-.429-2.571-.348.073C1944.373,1339.769,1943.689,1339.1,1943.114,1338.955Z" transform="translate(-1936.907 -1300.491)" fill="#ffb27d"/>
        <path id="Trazado_62789" data-name="Trazado 62789" d="M2010.933,1142.95s19.414,3.7-5.712,31.81c-4.019,4.5-25.729,10.351-25.729,10.351s-2.2-1.874-1.092-3.391c0,0,14.948-10.855,18.237-12.581,1.48-.777,5.742-17.326,8.155-21.311A10.874,10.874,0,0,1,2010.933,1142.95Z" transform="translate(-1970.296 -1142.95)" fill="#afcdfb"/>
      </g>
      <path id="Trazado_62790" data-name="Trazado 62790" d="M1942.639,1178.1a9.887,9.887,0,0,1-.759-1.854,10.242,10.242,0,0,0-1.253-2.836c-.132-.132-.567.039-.618.6a3.284,3.284,0,0,0,.312,1.228,13.831,13.831,0,0,1,.411,2.44C1941.033,1178.662,1942.639,1178.1,1942.639,1178.1Z" transform="translate(-1879.264 -1140.817)" fill="#ffb27d"/>
    </g>
    <g id="Grupo_29765" data-name="Grupo 29765" transform="translate(276.145 402.162)">
      <g id="Grupo_29764" data-name="Grupo 29764">
        <path id="Trazado_62791" data-name="Trazado 62791" d="M632.511,1601.719h93.958a8.313,8.313,0,0,0,8.313-8.313h0a8.313,8.313,0,0,0-8.313-8.312H632.511a8.313,8.313,0,0,0-8.313,8.313h0A8.313,8.313,0,0,0,632.511,1601.719Z" transform="translate(-624.198 -1585.083)" fill="#699dee"/>
        <path id="Trazado_62792" data-name="Trazado 62792" d="M947.275,1592.783l-.079,3.628c-.07,3.209,3.433,5.853,7.824,5.9l58.709.686.016-.723c-3.294-1.252-5.518-3.787-5.454-6.684l.028-1.276c.063-2.9,2.4-5.379,5.744-6.554v-.015l-58.709-.686C950.962,1587.013,947.345,1589.573,947.275,1592.783Z" transform="translate(-886.087 -1586.679)" fill="#ffeddc"/>
        <g id="Grupo_29760" data-name="Grupo 29760" transform="translate(60.214)">
          <path id="Trazado_62793" data-name="Trazado 62793" d="M1011.436,1601.648h-61.85c-3.989,0-7.114-3.649-7.114-8.307s3.125-8.307,7.114-8.307h61.85c.514,0,.93.3.93.68s-.416.68-.93.68h-61.85c-2.848,0-5.254,3.181-5.254,6.947s2.406,6.947,5.254,6.947h61.85c.514,0,.93.3.93.68S1011.95,1601.648,1011.436,1601.648Z" transform="translate(-942.472 -1585.035)" fill="#4b87dd"/>
        </g>
        <g id="Grupo_29761" data-name="Grupo 29761" transform="translate(78.618 4.419)">
          <rect id="Rectángulo_6086" data-name="Rectángulo 6086" width="44.66" height="0.115" fill="#e8c2a3"/>
        </g>
        <g id="Grupo_29762" data-name="Grupo 29762" transform="translate(102.33 5.931)">
          <rect id="Rectángulo_6087" data-name="Rectángulo 6087" width="20.192" height="0.115" fill="#e8c2a3"/>
        </g>
        <g id="Grupo_29763" data-name="Grupo 29763" transform="translate(87.297 11.087)">
          <rect id="Rectángulo_6088" data-name="Rectángulo 6088" width="35.224" height="0.115" fill="#e8c2a3"/>
        </g>
      </g>
    </g>
    <rect id="Rectángulo_6089" data-name="Rectángulo 6089" width="810.668" height="2.31" rx="1.155" transform="translate(-170.066 449.234)" fill="#2e3552"/>
  </g>
</svg>
