<svg xmlns="http://www.w3.org/2000/svg" width="812" height="313.324" viewBox="0 0 812 313.324">
  <g id="Grupo_29550" data-name="Grupo 29550" transform="translate(-127.803 -459.093)">
    <path id="Trazado_61937" data-name="Trazado 61937" d="M877.562,737.345a75.449,75.449,0,0,1-9.583,11.865c-.8.8-1.6,1.521-2.4,2.244a40.718,40.718,0,0,1-14.831,8.556l-29.851.152-40.727.19-27.227.114-19.355.076h-.875l-12.777.076H713.1L553.08,760.2h-1.293l-41.145-.114-110.011-.266-44.872-.114h-1.065l-174.657-.419s-53.5-29.28-52.211-80.312c.836-32.627,11.9-101.456,127.808-117.58,41.221-5.7,62.668-23.083,82.1-41.9,4.107-3.955,8.1-7.948,12.168-11.941,27.722-27.113,59.056-52.933,145.833-47.8,5.209.3,10.153.837,14.906,1.559,15.553,2.32,28.9,6.58,41.145,11.181,29.471,11.142,52.4,24.451,84.115,18.063,61.033-12.283,108-13.386,144.273-6.693A171.564,171.564,0,0,1,820.9,496.407c54.492,24.945,73.468,74.419,82.48,123.016C907.717,642.772,899.96,703.273,877.562,737.345Z" transform="translate(0 0)" fill="#ebf3fa"/>
    <g id="Grupo_29499" data-name="Grupo 29499" transform="translate(506.87 461.289)" opacity="0.5">
      <path id="Trazado_61938" data-name="Trazado 61938" d="M1561.25,478.366V767.188h-40.714V467.164A192.772,192.772,0,0,1,1561.25,478.366Z" transform="translate(-1520.537 -467.164)" fill="#afcdfb"/>
      <g id="Grupo_29498" data-name="Grupo 29498" transform="translate(0 10.732)">
        <path id="Trazado_61939" data-name="Trazado 61939" d="M1561.25,521.438l-40.714-14.844V524.35l40.714,14.845Z" transform="translate(-1520.536 -506.594)" fill="#f99746"/>
        <g id="Grupo_29497" data-name="Grupo 29497" transform="translate(0 37.142)">
          <path id="Trazado_61940" data-name="Trazado 61940" d="M1561.25,657.9v17.756l-40.714-14.845V643.059Z" transform="translate(-1520.536 -643.059)" fill="#f99746"/>
          <path id="Trazado_61941" data-name="Trazado 61941" d="M1561.25,797.674V815.43l-40.714-14.845V782.829Z" transform="translate(-1520.536 -744.787)" fill="#f99746"/>
          <path id="Trazado_61942" data-name="Trazado 61942" d="M1561.25,937.454v17.753l-40.714-14.845V922.61Z" transform="translate(-1520.536 -846.523)" fill="#f99746"/>
          <path id="Trazado_61943" data-name="Trazado 61943" d="M1561.25,1077.224v17.756l-40.714-14.845V1062.38Z" transform="translate(-1520.536 -948.251)" fill="#f99746"/>
        </g>
      </g>
    </g>
    <g id="Grupo_29502" data-name="Grupo 29502" transform="translate(780.185 483.877)" opacity="0.5">
      <path id="Trazado_61944" data-name="Trazado 61944" d="M2524.725,550.154a172.7,172.7,0,0,1,40.714,12.522V827.59h-40.714Z" transform="translate(-2524.725 -550.154)" fill="#afcdfb"/>
      <g id="Grupo_29501" data-name="Grupo 29501" transform="translate(0 0)">
        <path id="Trazado_61945" data-name="Trazado 61945" d="M2565.439,562.676V570.9l-40.714-14.845v-5.9A172.7,172.7,0,0,1,2565.439,562.676Z" transform="translate(-2524.725 -550.154)" fill="#f99746"/>
        <g id="Grupo_29500" data-name="Grupo 29500" transform="translate(0 25.286)">
          <path id="Trazado_61946" data-name="Trazado 61946" d="M2565.438,657.9v17.756l-40.714-14.845V643.059Z" transform="translate(-2524.725 -643.059)" fill="#f99746"/>
          <path id="Trazado_61947" data-name="Trazado 61947" d="M2565.438,797.674V815.43l-40.714-14.845V782.829Z" transform="translate(-2524.725 -744.787)" fill="#f99746"/>
          <path id="Trazado_61948" data-name="Trazado 61948" d="M2565.438,937.454v17.753l-40.714-14.845V922.61Z" transform="translate(-2524.725 -846.523)" fill="#f99746"/>
          <path id="Trazado_61949" data-name="Trazado 61949" d="M2565.438,1077.224v17.756l-40.714-14.845V1062.38Z" transform="translate(-2524.725 -948.251)" fill="#f99746"/>
        </g>
      </g>
    </g>
    <g id="Grupo_29526" data-name="Grupo 29526" transform="translate(333.418 488.551)">
      <path id="Trazado_61950" data-name="Trazado 61950" d="M1050.714,1245.1h373.769l126.232-11.371s-22.589-56.28-28.746-57.126-459.417,0-459.417,0Z" transform="translate(-1005.136 -1010.499)" fill="#1d2949"/>
      <path id="Trazado_61951" data-name="Trazado 61951" d="M1482.762,983.326c-9.3,3.805-65.527,4.65-65.527,4.65s1.268-68.91-56.649-60.877-47.793,65.225-47.793,65.225l-278.448,4.969s4.524-72.644-56.953-65c-51.077,6.347-37.957,64.729-37.957,64.729-50.919,2.632-56.181-14.656-56.181-14.656v-7.139h3.193V956.435h-3.193v-14l10.71-24.521,0,0c18.044-31,159.524-39.456,159.524-39.456,21.488-12.353,39.3-21.533,53.238-28.2,22.232-10.637,47.576-21.009,72.1-23.433,66.409-6.564,121.018.874,134.406,3.044,15.64,2.537,94.273,36.779,100.192,39.738s54.191,6.973,60.392,7.725,6.014,6.951,6.014,6.951l.851,5.5,3.241,20.953.792,5.113c4.51,2.255,4.515,8.715,4.515,8.715S1492.06,979.521,1482.762,983.326Z" transform="translate(-883.254 -754.267)" fill="#f99746"/>
      <g id="Grupo_29508" data-name="Grupo 29508" transform="translate(41.734 162.591)">
        <circle id="Elipse_1378" data-name="Elipse 1378" cx="42.877" cy="42.877" r="42.877" transform="translate(0 60.637) rotate(-45)" fill="#2c3a64"/>
        <g id="Grupo_29503" data-name="Grupo 29503" transform="translate(27.105 27.105)">
          <path id="Trazado_61952" data-name="Trazado 61952" d="M1169.707,1331.355a33.532,33.532,0,1,1,33.532-33.532A33.57,33.57,0,0,1,1169.707,1331.355Zm0-63.964a30.432,30.432,0,1,0,30.432,30.432A30.466,30.466,0,0,0,1169.707,1267.392Z" transform="translate(-1136.175 -1264.291)" fill="#afcdfb"/>
        </g>
        <g id="Grupo_29507" data-name="Grupo 29507" transform="translate(29.704 28.451)">
          <g id="Grupo_29504" data-name="Grupo 29504" transform="translate(24.093)">
            <path id="Trazado_61953" data-name="Trazado 61953" d="M1246.808,1333.438h-12.014l3.856-32.927-4.407-31.274,13.73.847-4.577,30.427Z" transform="translate(-1234.243 -1269.236)" fill="#afcdfb"/>
          </g>
          <g id="Grupo_29505" data-name="Grupo 29505" transform="translate(0 10.107)">
            <path id="Trazado_61954" data-name="Trazado 61954" d="M1151.728,1349.349l-6.006-10.405,30.445-13.12,24.883-19.451,6.13,12.315-28.64,11.247Z" transform="translate(-1145.722 -1306.372)" fill="#afcdfb"/>
          </g>
          <g id="Grupo_29506" data-name="Grupo 29506" transform="translate(1.189 9.74)">
            <path id="Trazado_61955" data-name="Trazado 61955" d="M1150.092,1315.059l6.6-10.038,25.394,21.313,28.553,13.5-8.252,11.007-22.909-20.541Z" transform="translate(-1150.092 -1305.02)" fill="#afcdfb"/>
          </g>
          <circle id="Elipse_1379" data-name="Elipse 1379" cx="11.188" cy="11.188" r="11.188" transform="translate(19.68 20.939)" fill="#afcdfb"/>
        </g>
      </g>
      <g id="Grupo_29514" data-name="Grupo 29514" transform="translate(421.927 162.591)">
        <circle id="Elipse_1380" data-name="Elipse 1380" cx="42.877" cy="42.877" r="42.877" transform="translate(0 60.637) rotate(-45)" fill="#2c3a64"/>
        <g id="Grupo_29509" data-name="Grupo 29509" transform="translate(27.105 27.105)">
          <path id="Trazado_61956" data-name="Trazado 61956" d="M2566.58,1331.355a33.532,33.532,0,1,1,33.532-33.532A33.57,33.57,0,0,1,2566.58,1331.355Zm0-63.964a30.432,30.432,0,1,0,30.432,30.432A30.466,30.466,0,0,0,2566.58,1267.392Z" transform="translate(-2533.048 -1264.291)" fill="#afcdfb"/>
        </g>
        <g id="Grupo_29513" data-name="Grupo 29513" transform="translate(29.704 28.451)">
          <g id="Grupo_29510" data-name="Grupo 29510" transform="translate(24.093)">
            <path id="Trazado_61957" data-name="Trazado 61957" d="M2643.681,1333.438h-12.014l3.856-32.927-4.407-31.274,13.73.847-4.577,30.427Z" transform="translate(-2631.116 -1269.236)" fill="#afcdfb"/>
          </g>
          <g id="Grupo_29511" data-name="Grupo 29511" transform="translate(0 10.107)">
            <path id="Trazado_61958" data-name="Trazado 61958" d="M2548.6,1349.349l-6.006-10.405,30.445-13.12,24.883-19.451,6.13,12.315-28.64,11.247Z" transform="translate(-2542.595 -1306.372)" fill="#afcdfb"/>
          </g>
          <g id="Grupo_29512" data-name="Grupo 29512" transform="translate(1.189 9.74)">
            <path id="Trazado_61959" data-name="Trazado 61959" d="M2546.965,1315.059l6.6-10.038,25.394,21.313,28.553,13.5-8.252,11.007-22.909-20.541Z" transform="translate(-2546.965 -1305.02)" fill="#afcdfb"/>
          </g>
          <circle id="Elipse_1381" data-name="Elipse 1381" cx="11.188" cy="11.188" r="11.188" transform="translate(19.68 20.939)" fill="#afcdfb"/>
        </g>
      </g>
      <path id="Trazado_61960" data-name="Trazado 61960" d="M962.319,1168.073h-28.05a25.623,25.623,0,0,0-22.366,13.122l-.962,1.721a2.607,2.607,0,0,0,2.276,3.879h33.757a8.346,8.346,0,0,0,6.134-2.687l11.008-11.932A2.446,2.446,0,0,0,962.319,1168.073Z" transform="translate(-903.162 -1004.565)" fill="#f9ddbf"/>
      <path id="Trazado_61961" data-name="Trazado 61961" d="M928.255,1387.492h-9.573a8.745,8.745,0,0,0-7.633,4.478l-.328.588a.89.89,0,0,0,.777,1.324h11.521a2.849,2.849,0,0,0,2.093-.917l3.757-4.072A.835.835,0,0,0,928.255,1387.492Z" transform="translate(-903.161 -1164.264)" fill="#1d2949"/>
      <path id="Trazado_61962" data-name="Trazado 61962" d="M2282.438,903.81l-143.129,3.4a5,5,0,0,1-5.116-4.994V869.238a4.651,4.651,0,0,1,4.718-4.651c61.034.849,81.951,2.55,94.5,6.877,11.064,3.817,36.937,19.512,50.31,27.478A2.619,2.619,0,0,1,2282.438,903.81Z" transform="translate(-1793.719 -783.68)" fill="#afcdfb"/>
      <path id="Trazado_61963" data-name="Trazado 61963" d="M1732.479,863.772q3.483.038,6.818.082v43.01l-138.081,3.278a1.8,1.8,0,0,1-1.051-3.295C1616.3,895.973,1670.336,863.068,1732.479,863.772Z" transform="translate(-1404.459 -783.079)" fill="#afcdfb"/>
      <path id="Trazado_61964" data-name="Trazado 61964" d="M2676.864,992.759l-.076,0v-5.978c.488.293.964.575,1.423.848A2.758,2.758,0,0,1,2676.864,992.759Z" transform="translate(-2188.633 -872.618)" fill="#afcdfb"/>
      <path id="Trazado_61965" data-name="Trazado 61965" d="M2088.971,901.916l-16.911-1.34,1.127-46h15.784Z" transform="translate(-1748.497 -776.395)" fill="#f99746"/>
      <path id="Trazado_61966" data-name="Trazado 61966" d="M2506.605,918.045h-7.892V876.74l7.892,4.736Z" transform="translate(-2059.026 -792.525)" fill="#f99746"/>
      <path id="Trazado_61967" data-name="Trazado 61967" d="M1615.378,981.059l4.21,13.946-23.033.547a1.366,1.366,0,0,1-.832-2.475C1600.923,989.336,1610.56,982.672,1615.378,981.059Z" transform="translate(-1401.391 -868.451)" fill="#2c3a64"/>
      <g id="Grupo_29515" data-name="Grupo 29515" transform="translate(191.995 79.618)">
        <path id="Trazado_61968" data-name="Trazado 61968" d="M1590.832,908.483a2.167,2.167,0,0,1-1.24-3.944l.48-.331c.5-.346,1.057-.726,1.67-1.141q.759-.511,1.624-1.083l.872-.573q.992-.65,2.1-1.357.793-.5,1.644-1.043l.093-.057c.081-.05.162-.1.244-.151.477-.3.982-.613,1.5-.93l.114-.071c.171-.106.344-.213.519-.318.256-.158.527-.323.8-.489q.569-.344,1.158-.7c1.106-.665,2.3-1.367,3.534-2.082q.575-.334,1.168-.673,1.17-.675,2.409-1.364h0l.579-.325c1.664-.924,3.35-1.841,5.01-2.724l.546-.288.761-.4c3.167-1.659,6.42-3.286,9.675-4.839l1.011-.479q1.522-.721,3.093-1.437c.346-.16.7-.32,1.056-.48.7-.318,1.408-.635,2.128-.953l1.079-.475c1.075-.474,2.221-.967,3.5-1.505q.994-.417,2-.832c4.513-1.861,9.113-3.61,13.673-5.2l1-.347c.375-.13.754-.257,1.131-.385l1.422-.477q.576-.192,1.154-.379l.045-.015c.4-.133.806-.264,1.21-.392.733-.234,1.469-.469,2.212-.7.5-.158,1.014-.314,1.528-.469.783-.236,1.565-.47,2.355-.7L1667,868q1.237-.353,2.486-.694c1.647-.453,3.327-.894,4.989-1.308l.1-.025c.148-.038.294-.075.442-.11.707-.176,1.431-.352,2.158-.522.428-.1.865-.206,1.3-.306l.329-.075c.325-.075.652-.15.978-.222q.65-.147,1.309-.291t1.318-.283c.444-.094.885-.185,1.328-.275s.882-.181,1.33-.269l.072-.014q.631-.125,1.262-.247c.418-.081.838-.161,1.26-.24.475-.088.948-.173,1.425-.258.3-.056.609-.109.917-.162l.431-.075q1.35-.231,2.7-.446c.449-.072.9-.142,1.36-.213l.07-.011q1.2-.18,2.4-.346c1.491-.206,2.99-.4,4.455-.567l.1-.011c.412-.048.822-.1,1.234-.137.286-.033.59-.065.89-.094s.613-.068.933-.1.688-.07,1.041-.1c.462-.045.931-.087,1.4-.127.446-.039.9-.076,1.351-.111.359-.029.7-.057,1.049-.082l2-.136c.4-.026.79-.048,1.188-.071l.174-.009c.433-.025.878-.048,1.319-.068.349-.017.7-.034,1.06-.048h.034c.318-.014.634-.027.952-.038l.785-.028.936-.028a4.493,4.493,0,0,1,4.617,4.49v35.643a5.535,5.535,0,0,1-5.371,5.5l-126.228,3Zm20.846-14.922-.781.436q-1.365.761-2.656,1.5c-.4.226-.78.448-1.161.669-1.229.711-2.408,1.405-3.505,2.066-.394.235-.775.465-1.151.692q-.4.243-.794.485c-.179.107-.344.209-.507.31l-.119.073q-.775.474-1.5.93l-.32.2c-.558.353-1.1.7-1.63,1.034q-1.1.7-2.076,1.339l-.867.57q-.856.567-1.606,1.071-.9.611-1.649,1.127l-.229.158,23.713-.562,102.223-2.427a3.266,3.266,0,0,0,3.17-3.246V864.343a2.239,2.239,0,0,0-2.3-2.236l-.923.028-.785.028c-.309.011-.618.024-.929.038l-.037,0c-.353.014-.7.031-1.048.048-.436.02-.871.042-1.3.067l-.175.009c-.384.022-.773.044-1.162.069l-1.989.135c-.338.024-.676.052-1.016.079-.468.035-.911.072-1.352.111-.468.039-.928.081-1.388.126-.349.031-.69.065-1.031.1-.316.029-.615.059-.912.094-.312.03-.6.06-.887.093-.417.043-.818.089-1.222.136l-.095.011c-1.448.168-2.931.357-4.405.56-.791.109-1.582.224-2.366.342l-.066.01c-.45.069-.9.139-1.348.211q-1.344.211-2.669.441l-.429.075c-.3.052-.6.1-.9.159-.476.085-.944.169-1.412.256-.416.078-.83.157-1.248.238s-.836.162-1.253.244l-.072.014c-.437.086-.872.173-1.307.265s-.882.181-1.32.274-.868.185-1.3.28-.866.19-1.3.289c-.325.072-.645.146-.963.219l-.333.077c-.431.1-.857.2-1.283.3-.724.17-1.438.343-2.146.519-.148.036-.283.07-.419.1l-.106.027c-1.649.411-3.311.847-4.944,1.3-.827.225-1.646.455-2.461.688l-1.3.375c-.775.228-1.554.461-2.329.695q-.757.229-1.51.464c-.739.229-1.468.461-2.2.694-.4.126-.794.254-1.189.385l-.05.016q-.57.186-1.14.375l-1.415.474c-.372.125-.744.251-1.113.379l-.993.345c-4.522,1.575-9.083,3.309-13.556,5.153q-1,.413-1.987.826c-1.267.533-2.4,1.021-3.468,1.491l-1.076.474q-1.067.471-2.109.944c-.355.159-.7.315-1.042.473-1.044.477-2.065.951-3.073,1.428l-1.008.477c-3.225,1.539-6.452,3.153-9.588,4.8l-.763.4-.54.285C1614.685,891.914,1613.175,892.733,1611.678,893.561Z" transform="translate(-1588.664 -859.851)" fill="#1d2949"/>
      </g>
      <g id="Grupo_29516" data-name="Grupo 29516" transform="translate(446.581 90.468)">
        <path id="Trazado_61969" data-name="Trazado 61969" d="M2527.4,931.473a3.231,3.231,0,0,1-2.266-.938,3.7,3.7,0,0,1-1.092-2.642V903.827c0-1.369.2-3.117,1.311-3.808,1-.626,2.692-.17,3.75.349,1.179.578,2,.993,2.442,1.232.047.024.112.059.177.1l.48.261c6,3.276,14.537,8.433,25.38,15.328.462.292.922.585,1.377.875,1.094.7,2.157,1.379,3.181,2.037l3.8,2.454q.992.643,1.9,1.236l.27.174.083.054a3.489,3.489,0,0,1,1.4,3.914,3.2,3.2,0,0,1-3,2.428l-.414.01-38.7,1.005Zm.211-29.461a1.421,1.421,0,0,0-.743.22,1.845,1.845,0,0,0-.829,1.594v24.067a1.692,1.692,0,0,0,.489,1.212,1.26,1.26,0,0,0,.9.37l39.114-1.015a1.249,1.249,0,0,0,1.13-.976,1.5,1.5,0,0,0-.566-1.7l-.083-.054-.262-.169c-.615-.4-1.247-.812-1.906-1.24l-3.8-2.45q-1.535-.988-3.177-2.034-.679-.434-1.372-.872c-10.81-6.872-19.311-12.006-25.269-15.261l-.485-.264-.146-.079c-.432-.233-1.252-.647-2.391-1.206A1.377,1.377,0,0,0,2527.609,902.012Z" transform="translate(-2524.04 -899.715)" fill="#1d2949"/>
      </g>
      <path id="Trazado_61970" data-name="Trazado 61970" d="M1615.378,981.059l4.21,13.946-23.033.547a1.366,1.366,0,0,1-.832-2.475C1600.923,989.336,1610.56,982.672,1615.378,981.059Z" transform="translate(-1401.391 -868.451)" fill="#2c3a64"/>
      <g id="Grupo_29517" data-name="Grupo 29517" transform="translate(339.346 79.78)">
        <path id="Trazado_61971" data-name="Trazado 61971" d="M2136.163,905.324a6.121,6.121,0,0,1-6.115-6.121V866.225a5.779,5.779,0,0,1,5.861-5.776c63,.876,82.505,2.3,94.877,6.95l.731.275v35.391l-95.2,2.258Zm-.336-42.621a3.525,3.525,0,0,0-3.524,3.522V899.2a3.866,3.866,0,0,0,3.96,3.865l93-2.206v-31.62c-12.038-4.273-32.685-5.695-93.385-6.539Z" transform="translate(-2130.047 -860.448)" fill="#1d2949"/>
      </g>
      <path id="Trazado_61972" data-name="Trazado 61972" d="M2962.327,1086.18h-26.948a13.076,13.076,0,0,1-10.276-4.99l-10.192-12.951a1.861,1.861,0,0,1,1.462-3.011h42.712Z" transform="translate(-2361.653 -929.711)" fill="#a9453d"/>
      <path id="Trazado_61973" data-name="Trazado 61973" d="M1082.139,1023.618l-1.1,1.838a25.378,25.378,0,0,1-20,12.292c-22.3,1.572-67.3,4.743-91.081,6.4-32.159,2.238-47.117,18.672-47.348,18.929C940.659,1032.074,1082.139,1023.618,1082.139,1023.618Z" transform="translate(-911.902 -899.427)" fill="#1d2949"/>
      <g id="Grupo_29518" data-name="Grupo 29518" transform="translate(332.013 80.343)">
        <rect id="Rectángulo_5886" data-name="Rectángulo 5886" width="144.417" height="1.127" transform="matrix(0.012, -1, 1, 0.012, 0, 144.407)" fill="#1d2949"/>
      </g>
      <g id="Grupo_29519" data-name="Grupo 29519" transform="translate(150.534 222.671)">
        <rect id="Rectángulo_5887" data-name="Rectángulo 5887" width="278.638" height="1.128" transform="translate(0 5.482) rotate(-1.127)" fill="#1d2949"/>
      </g>
      <path id="Trazado_61974" data-name="Trazado 61974" d="M1966.947,1124.653c0,1.527-6.814,2.766-15.219,2.766s-15.219-1.238-15.219-2.766,6.813-2.765,15.219-2.765S1966.947,1123.126,1966.947,1124.653Z" transform="translate(-1649.839 -970.95)" fill="#ed823a"/>
      <path id="Trazado_61975" data-name="Trazado 61975" d="M2487.733,1124.653c0,1.527-6.813,2.766-15.219,2.766s-15.219-1.238-15.219-2.766,6.814-2.765,15.219-2.765S2487.733,1123.126,2487.733,1124.653Z" transform="translate(-2028.881 -970.95)" fill="#ed823a"/>
      <g id="Grupo_29520" data-name="Grupo 29520" transform="translate(417.138 120.13)">
        <path id="Trazado_61976" data-name="Trazado 61976" d="M2416.99,1111.825l-1.126-.061c.778-14.356,5.033-26.456,12.646-35.962,6.091-7.606,14.328-13.57,24.48-17.725a92.711,92.711,0,0,1,33.891-6.439V1008.7h1.127V1052.8l-.587-.025a91.111,91.111,0,0,0-34.037,6.357c-9.965,4.084-18.042,9.935-24.007,17.388C2421.922,1085.839,2417.755,1097.717,2416.99,1111.825Z" transform="translate(-2415.864 -1008.696)" fill="#1d2949"/>
      </g>
      <g id="Grupo_29521" data-name="Grupo 29521" transform="translate(184.441 125.917)">
        <path id="Trazado_61977" data-name="Trazado 61977" d="M1560.97,1132.092c-.437-37.247,1.637-63.018,3.454-78.078,1.971-16.341,4.079-23.979,4.1-24.054l1.086.3c-.083.3-8.347,30.708-7.513,101.815Z" transform="translate(-1560.911 -1029.96)" fill="#1d2949"/>
      </g>
      <g id="Grupo_29522" data-name="Grupo 29522" transform="translate(323.14 80.343)">
        <rect id="Rectángulo_5888" data-name="Rectángulo 5888" width="22.052" height="1.127" fill="#1d2949"/>
      </g>
      <g id="Grupo_29524" data-name="Grupo 29524" transform="translate(133.706 95.663)">
        <g id="Grupo_29523" data-name="Grupo 29523" transform="translate(1.342)">
          <rect id="Rectángulo_5889" data-name="Rectángulo 5889" width="43.308" height="1.445" transform="translate(0 40.215) rotate(-68.212)" fill="#2b478b"/>
        </g>
        <path id="Trazado_61978" data-name="Trazado 61978" d="M1374.5,1066.688c0-.593.9-1.073,2.017-1.073s2.017.48,2.017,1.073-.9,1.072-2.017,1.072S1374.5,1067.28,1374.5,1066.688Z" transform="translate(-1374.504 -1025.656)" fill="#2b478b"/>
      </g>
      <g id="Grupo_29525" data-name="Grupo 29525" transform="translate(56.39 0)">
        <path id="Trazado_61979" data-name="Trazado 61979" d="M1203.614,696.078a2.345,2.345,0,0,1-1.622-1.173,479.436,479.436,0,0,0-32.743-49.68c-18.307-24.4-46.626-56.957-77.571-73.478a2.348,2.348,0,0,1,2.212-4.143c14.04,7.5,28.685,18.753,43.528,33.459a376.346,376.346,0,0,1,35.629,41.4,484.378,484.378,0,0,1,33.057,50.175,2.348,2.348,0,0,1-2.49,3.442Z" transform="translate(-1090.436 -567.326)" fill="#f99746"/>
      </g>
    </g>
    <g id="Grupo_29527" data-name="Grupo 29527" transform="translate(352.261 751.453)">
      <path id="Trazado_61980" data-name="Trazado 61980" d="M1465.807,1533.258a40.716,40.716,0,0,1-14.83,8.556l-29.851.152-40.727.19-27.227.114-19.355.076h-.875l-19.622.076h-23.652l-25.63-.038h-20.116l-26.238-.038h-20.116l-25.63-.038h-20.154l-30.916-.038h-3.46l-20.078-.038h-25.706l-20.078-.038-26.239-.038h-20.078l-25.668-.038H952.484l2.433-.419,1.065-.19,5.894-1.026,27.265-4.792h.038l13.956-2.433Z" transform="translate(-952.484 -1533.258)" fill="#afcdfb"/>
    </g>
    <path id="Rectángulo_5890" data-name="Rectángulo 5890" d="M5.966,0H110.612a5.966,5.966,0,0,1,5.966,5.966v0a5.966,5.966,0,0,1-5.966,5.966H5.967A5.967,5.967,0,0,1,0,5.966v0A5.966,5.966,0,0,1,5.966,0Z" transform="translate(600.532 507.564)" fill="#f9ddbf"/>
    <g id="Grupo_29542" data-name="Grupo 29542" transform="translate(143.054 634.421)">
      <g id="Grupo_29532" data-name="Grupo 29532" transform="translate(0 11.724)">
        <path id="Trazado_61981" data-name="Trazado 61981" d="M185.435,1146.435l6.175-.092a1.621,1.621,0,0,1,1.645,1.6l.459,30.773a1.621,1.621,0,0,1-1.6,1.646l-6.175.092a1.622,1.622,0,0,1-1.646-1.6l-.459-30.773A1.621,1.621,0,0,1,185.435,1146.435Z" transform="translate(-183.837 -1146.342)" fill="#d2e4ff"/>
        <g id="Grupo_29528" data-name="Grupo 29528" transform="translate(2.17 18.039)">
          <path id="Trazado_61982" data-name="Trazado 61982" d="M197.461,1215.4a2.826,2.826,0,1,1-2.868-2.784A2.825,2.825,0,0,1,197.461,1215.4Z" transform="translate(-191.81 -1212.618)" fill="#aed3ff"/>
          <path id="Trazado_61983" data-name="Trazado 61983" d="M206,1221.365a.582.582,0,1,1-.591-.573A.582.582,0,0,1,206,1221.365Z" transform="translate(-201.292 -1218.567)" fill="#d2e4ff"/>
          <path id="Trazado_61984" data-name="Trazado 61984" d="M196.129,1221.513a.582.582,0,1,1-.591-.573A.582.582,0,0,1,196.129,1221.513Z" transform="translate(-194.107 -1218.675)" fill="#d2e4ff"/>
        </g>
        <g id="Grupo_29529" data-name="Grupo 29529" transform="translate(2.047 9.79)">
          <path id="Trazado_61985" data-name="Trazado 61985" d="M197.009,1185.1a2.826,2.826,0,1,1-2.868-2.783A2.826,2.826,0,0,1,197.009,1185.1Z" transform="translate(-191.358 -1182.313)" fill="#aed3ff"/>
          <path id="Trazado_61986" data-name="Trazado 61986" d="M205.549,1191.059a.582.582,0,1,1-.59-.573A.582.582,0,0,1,205.549,1191.059Z" transform="translate(-200.84 -1188.261)" fill="#d2e4ff"/>
          <path id="Trazado_61987" data-name="Trazado 61987" d="M195.677,1191.206a.582.582,0,1,1-.59-.573A.582.582,0,0,1,195.677,1191.206Z" transform="translate(-193.655 -1188.368)" fill="#d2e4ff"/>
        </g>
        <g id="Grupo_29530" data-name="Grupo 29530" transform="translate(1.924 1.542)">
          <path id="Trazado_61988" data-name="Trazado 61988" d="M196.556,1154.79a2.826,2.826,0,1,1-2.868-2.783A2.826,2.826,0,0,1,196.556,1154.79Z" transform="translate(-190.905 -1152.007)" fill="#aed3ff"/>
          <path id="Trazado_61989" data-name="Trazado 61989" d="M205.1,1160.753a.582.582,0,1,1-.59-.573A.582.582,0,0,1,205.1,1160.753Z" transform="translate(-200.388 -1157.955)" fill="#d2e4ff"/>
          <path id="Trazado_61990" data-name="Trazado 61990" d="M195.225,1160.9a.582.582,0,1,1-.59-.573A.582.582,0,0,1,195.225,1160.9Z" transform="translate(-193.203 -1158.062)" fill="#d2e4ff"/>
        </g>
        <g id="Grupo_29531" data-name="Grupo 29531" transform="translate(2.293 26.287)">
          <path id="Trazado_61991" data-name="Trazado 61991" d="M197.914,1245.708a2.826,2.826,0,1,1-2.868-2.783A2.826,2.826,0,0,1,197.914,1245.708Z" transform="translate(-192.263 -1242.925)" fill="#aed3ff"/>
          <path id="Trazado_61992" data-name="Trazado 61992" d="M206.454,1251.671a.582.582,0,1,1-.59-.573A.582.582,0,0,1,206.454,1251.671Z" transform="translate(-201.745 -1248.873)" fill="#d2e4ff"/>
          <path id="Trazado_61993" data-name="Trazado 61993" d="M196.582,1251.818a.582.582,0,1,1-.59-.573A.582.582,0,0,1,196.582,1251.818Z" transform="translate(-194.56 -1248.98)" fill="#d2e4ff"/>
        </g>
      </g>
      <circle id="Elipse_1382" data-name="Elipse 1382" cx="3.368" cy="3.368" r="3.368" transform="translate(1.032 20.812)" fill="#2a4e96"/>
      <g id="Grupo_29533" data-name="Grupo 29533" transform="translate(5.36 25.2)">
        <path id="Trazado_61994" data-name="Trazado 61994" d="M221.893,1234.788c-7.193-1.328-6.881-13.795-6.631-23.812a76.657,76.657,0,0,0-.055-8.321,5.906,5.906,0,0,0-2.34-4.392c-3.349-2.448-9.1-1.273-9.161-1.261l-.174-.827c.25-.052,6.183-1.263,9.834,1.406a6.715,6.715,0,0,1,2.682,4.99,76.926,76.926,0,0,1,.06,8.427c-.243,9.7-.544,21.763,5.939,22.96Z" transform="translate(-203.532 -1195.855)" fill="#2a4e96"/>
      </g>
      <g id="Grupo_29541" data-name="Grupo 29541" transform="translate(24.517)">
        <g id="Grupo_29540" data-name="Grupo 29540">
          <rect id="Rectángulo_5891" data-name="Rectángulo 5891" width="70.914" height="70.914" transform="translate(10.14 43.779)" fill="#cde0fb"/>
          <rect id="Rectángulo_5892" data-name="Rectángulo 5892" width="2.723" height="5.285" transform="translate(16.882 114.693)" fill="#afcdfb"/>
          <rect id="Rectángulo_5893" data-name="Rectángulo 5893" width="2.723" height="5.285" transform="translate(74.648 114.693)" fill="#afcdfb"/>
          <rect id="Rectángulo_5894" data-name="Rectángulo 5894" width="2.723" height="5.285" transform="translate(4.262 114.693)" fill="#afcdfb"/>
          <g id="Grupo_29539" data-name="Grupo 29539">
            <path id="Trazado_61995" data-name="Trazado 61995" d="M354.968,1147.047H284.054l-10.14-43.292,71.172-.487Z" transform="translate(-273.915 -1103.269)" fill="#afcdfb"/>
            <path id="Trazado_61996" data-name="Trazado 61996" d="M345.984,1145.109l-36,.247-5.13-21.9,36-.246Z" transform="translate(-296.43 -1117.781)" fill="#cde0fb"/>
            <g id="Grupo_29534" data-name="Grupo 29534" transform="translate(51.723 4.61)">
              <path id="Trazado_61997" data-name="Trazado 61997" d="M464.091,1127.533a5.854,5.854,0,0,1,5.892-7.326,9.346,9.346,0,0,1,8.759,7.326,5.854,5.854,0,0,1-5.892,7.325A9.346,9.346,0,0,1,464.091,1127.533Z" transform="translate(-463.95 -1120.207)" fill="#f99746"/>
              <path id="Trazado_61998" data-name="Trazado 61998" d="M467.887,1127.533a5.854,5.854,0,0,1,5.892-7.326,9.346,9.346,0,0,1,8.759,7.326,5.854,5.854,0,0,1-5.891,7.325A9.346,9.346,0,0,1,467.887,1127.533Z" transform="translate(-466.713 -1120.207)" fill="#7c9af2"/>
              <path id="Trazado_61999" data-name="Trazado 61999" d="M470.738,1129.58a5.242,5.242,0,0,1,5.276-6.56,8.369,8.369,0,0,1,7.844,6.56,5.242,5.242,0,0,1-5.276,6.56A8.369,8.369,0,0,1,470.738,1129.58Z" transform="translate(-468.799 -1122.254)" fill="#afcdfb"/>
            </g>
            <g id="Grupo_29535" data-name="Grupo 29535" transform="translate(55.335 23.065)">
              <path id="Trazado_62000" data-name="Trazado 62000" d="M477.363,1195.336a5.854,5.854,0,0,1,5.891-7.325,9.345,9.345,0,0,1,8.759,7.325,5.854,5.854,0,0,1-5.891,7.326A9.347,9.347,0,0,1,477.363,1195.336Z" transform="translate(-477.222 -1188.011)" fill="#f99746"/>
              <path id="Trazado_62001" data-name="Trazado 62001" d="M481.159,1195.336a5.854,5.854,0,0,1,5.891-7.325,9.346,9.346,0,0,1,8.759,7.325,5.854,5.854,0,0,1-5.891,7.326A9.347,9.347,0,0,1,481.159,1195.336Z" transform="translate(-479.985 -1188.011)" fill="#7c9af2"/>
              <path id="Trazado_62002" data-name="Trazado 62002" d="M484.365,1197.637a5.166,5.166,0,0,1,5.2-6.465,8.248,8.248,0,0,1,7.73,6.465,5.166,5.166,0,0,1-5.2,6.465A8.248,8.248,0,0,1,484.365,1197.637Z" transform="translate(-482.33 -1190.312)" fill="#afcdfb"/>
            </g>
            <g id="Grupo_29536" data-name="Grupo 29536" transform="translate(16.01 30.864)">
              <path id="Trazado_62003" data-name="Trazado 62003" d="M332.8,1220.093a2.737,2.737,0,0,1,2.755-3.426,4.371,4.371,0,0,1,4.1,3.426,2.738,2.738,0,0,1-2.755,3.426A4.371,4.371,0,0,1,332.8,1220.093Z" transform="translate(-332.737 -1216.667)" fill="#f99746"/>
              <path id="Trazado_62004" data-name="Trazado 62004" d="M334.577,1220.093a2.737,2.737,0,0,1,2.755-3.426,4.371,4.371,0,0,1,4.1,3.426,2.738,2.738,0,0,1-2.755,3.426A4.371,4.371,0,0,1,334.577,1220.093Z" transform="translate(-334.029 -1216.667)" fill="#7c9af2"/>
              <path id="Trazado_62005" data-name="Trazado 62005" d="M336.077,1221.169a2.416,2.416,0,0,1,2.431-3.023,3.857,3.857,0,0,1,3.615,3.023,2.416,2.416,0,0,1-2.431,3.023A3.857,3.857,0,0,1,336.077,1221.169Z" transform="translate(-335.126 -1217.743)" fill="#afcdfb"/>
            </g>
            <g id="Grupo_29537" data-name="Grupo 29537" transform="translate(25.683 30.864)">
              <path id="Trazado_62006" data-name="Trazado 62006" d="M368.343,1220.093a2.737,2.737,0,0,1,2.755-3.426,4.37,4.37,0,0,1,4.1,3.426,2.738,2.738,0,0,1-2.755,3.426A4.371,4.371,0,0,1,368.343,1220.093Z" transform="translate(-368.278 -1216.667)" fill="#f99746"/>
              <path id="Trazado_62007" data-name="Trazado 62007" d="M370.118,1220.093a2.737,2.737,0,0,1,2.755-3.426,4.37,4.37,0,0,1,4.1,3.426,2.738,2.738,0,0,1-2.755,3.426A4.371,4.371,0,0,1,370.118,1220.093Z" transform="translate(-369.569 -1216.667)" fill="#7c9af2"/>
              <path id="Trazado_62008" data-name="Trazado 62008" d="M371.617,1221.169a2.416,2.416,0,0,1,2.432-3.023,3.857,3.857,0,0,1,3.615,3.023,2.416,2.416,0,0,1-2.432,3.023A3.857,3.857,0,0,1,371.617,1221.169Z" transform="translate(-370.666 -1217.743)" fill="#afcdfb"/>
            </g>
            <g id="Grupo_29538" data-name="Grupo 29538" transform="translate(36.923 30.864)">
              <path id="Trazado_62009" data-name="Trazado 62009" d="M409.639,1220.093a2.737,2.737,0,0,1,2.755-3.426,4.37,4.37,0,0,1,4.1,3.426,2.738,2.738,0,0,1-2.755,3.426A4.37,4.37,0,0,1,409.639,1220.093Z" transform="translate(-409.574 -1216.667)" fill="#f99746"/>
              <path id="Trazado_62010" data-name="Trazado 62010" d="M411.414,1220.093a2.738,2.738,0,0,1,2.755-3.426,4.371,4.371,0,0,1,4.1,3.426,2.738,2.738,0,0,1-2.755,3.426A4.371,4.371,0,0,1,411.414,1220.093Z" transform="translate(-410.865 -1216.667)" fill="#7c9af2"/>
              <path id="Trazado_62011" data-name="Trazado 62011" d="M412.913,1221.169a2.416,2.416,0,0,1,2.432-3.023,3.857,3.857,0,0,1,3.615,3.023,2.416,2.416,0,0,1-2.432,3.023A3.857,3.857,0,0,1,412.913,1221.169Z" transform="translate(-411.962 -1217.743)" fill="#afcdfb"/>
            </g>
          </g>
          <path id="Trazado_62012" data-name="Trazado 62012" d="M273.915,1105.059v114.206h10.14V1148.35Z" transform="translate(-273.915 -1104.571)" fill="#7c9af2"/>
          <path id="Trazado_62013" data-name="Trazado 62013" d="M329.191,1541.167a3.2,3.2,0,1,1,3.2,3.2A3.2,3.2,0,0,1,329.191,1541.167Z" transform="translate(-314.146 -1419.655)" fill="#afcdfb"/>
          <path id="Trazado_62014" data-name="Trazado 62014" d="M335.3,1545.616a1.534,1.534,0,1,1,1.534,1.534A1.534,1.534,0,0,1,335.3,1545.616Z" transform="translate(-318.596 -1424.104)" fill="#f99746"/>
          <path id="Trazado_62015" data-name="Trazado 62015" d="M541.431,1541.167a3.2,3.2,0,1,1,3.2,3.2A3.2,3.2,0,0,1,541.431,1541.167Z" transform="translate(-468.62 -1419.655)" fill="#afcdfb"/>
          <path id="Trazado_62016" data-name="Trazado 62016" d="M547.544,1545.616a1.534,1.534,0,1,1,1.534,1.534A1.534,1.534,0,0,1,547.544,1545.616Z" transform="translate(-473.069 -1424.104)" fill="#f99746"/>
          <path id="Trazado_62017" data-name="Trazado 62017" d="M282.826,1541.167a3.2,3.2,0,1,1,3.2,3.2A3.2,3.2,0,0,1,282.826,1541.167Z" transform="translate(-280.401 -1419.655)" fill="#afcdfb"/>
          <path id="Trazado_62018" data-name="Trazado 62018" d="M288.939,1545.616a1.534,1.534,0,1,1,1.534,1.534A1.534,1.534,0,0,1,288.939,1545.616Z" transform="translate(-284.85 -1424.104)" fill="#f99746"/>
          <rect id="Rectángulo_5895" data-name="Rectángulo 5895" width="21.051" height="15.6" transform="translate(19.604 50.33)" fill="#dde7fe"/>
          <rect id="Rectángulo_5896" data-name="Rectángulo 5896" width="31.18" height="15.6" transform="translate(44.83 50.33)" fill="#7c9af2"/>
        </g>
        <path id="Trazado_62019" data-name="Trazado 62019" d="M349.071,1458.94H326.813a.636.636,0,0,1-.634-.634h0a.636.636,0,0,1,.634-.634h22.258a.636.636,0,0,1,.634.634h0A.636.636,0,0,1,349.071,1458.94Z" transform="translate(-311.954 -1361.212)" fill="#7c9af2"/>
        <path id="Trazado_62020" data-name="Trazado 62020" d="M326.813,1471.56h22.258a.636.636,0,0,1,.634.634h0a.636.636,0,0,1-.634.634H326.813a.636.636,0,0,1-.634-.634h0A.636.636,0,0,1,326.813,1471.56Z" transform="translate(-311.954 -1371.32)" fill="#7c9af2"/>
        <path id="Trazado_62021" data-name="Trazado 62021" d="M326.813,1485.449h22.258a.636.636,0,0,1,.634.634h0a.636.636,0,0,1-.634.634H326.813a.636.636,0,0,1-.634-.634h0A.636.636,0,0,1,326.813,1485.449Z" transform="translate(-311.954 -1381.429)" fill="#7c9af2"/>
      </g>
    </g>
    <g id="Grupo_29546" data-name="Grupo 29546" transform="translate(254.773 532.542)">
      <g id="Grupo_29545" data-name="Grupo 29545" transform="translate(0 0)">
        <path id="Trazado_62022" data-name="Trazado 62022" d="M1023.49,1076.448a57.556,57.556,0,0,1,8.68.529c2.977.592,8.074,2.415,6.429,2.857s-8.186,1.089-9.961,1.384-3.292,2.268-5.148,1.973-4.449-2.86-4.449-2.86Z" transform="translate(-903.438 -981.868)" fill="#ffb27d"/>
        <path id="Trazado_62023" data-name="Trazado 62023" d="M1042.015,1096.6l-6.627-.986s1.236-2.71,2.312-1.972a17.529,17.529,0,0,0,3.8,1.553C1042.138,1095.41,1042.015,1096.6,1042.015,1096.6Z" transform="translate(-915.336 -994.29)" fill="#ffb27d"/>
        <path id="Trazado_62024" data-name="Trazado 62024" d="M910.623,925.414c1.766-2.1,1.749-2.557,1.749-2.557s-16.586-20.533-18.058-22.527-13.771-34.8-13.771-34.8h0a12.555,12.555,0,0,0-12.407,18.828c6.334,10.747,13.008,21.88,14.878,24.314,6.324,8.229,24.448,18.96,24.448,18.96A7.641,7.641,0,0,0,910.623,925.414Z" transform="translate(-792.319 -828.277)" fill="#233862"/>
        <g id="Grupo_29543" data-name="Grupo 29543" transform="translate(89.456 87.888)">
          <rect id="Rectángulo_5897" data-name="Rectángulo 5897" width="3.244" height="13.889" transform="matrix(0.774, 0.634, -0.634, 0.774, 12.363, 4.945)" fill="#aed3ff"/>
          <path id="Trazado_62025" data-name="Trazado 62025" d="M972.848,1055.8l-.027.031a2.455,2.455,0,0,1-3.761-3.155l.015-.018a.478.478,0,0,0-.533-.759,3.826,3.826,0,1,0,5.168,4.307A.491.491,0,0,0,972.848,1055.8Z" transform="translate(-954.389 -1051.866)" fill="#aed3ff"/>
          <path id="Trazado_62026" data-name="Trazado 62026" d="M927.653,1110.5l.026-.032a2.455,2.455,0,0,0-3.833-3.068l-.015.018a.478.478,0,0,1-.849-.373,3.826,3.826,0,1,1,5.238,4.22A.491.491,0,0,1,927.653,1110.5Z" transform="translate(-922.972 -1089.749)" fill="#aed3ff"/>
        </g>
        <path id="Trazado_62027" data-name="Trazado 62027" d="M920.785,1082.826a68.585,68.585,0,0,1,7.374-.072c1.017.252,4,1.66,3.993,1.96s-.028,1.209-.657,1.141-1.19-.516-1.1-.246,2.462.508,2.318,1.706-1.718,4.646-4.473,4.315-7.563-4.445-8.016-4.566C916.38,1086.039,920.785,1082.826,920.785,1082.826Z" transform="translate(-830.37 -986.39)" fill="#ffb27d"/>
        <g id="Grupo_29544" data-name="Grupo 29544" transform="translate(0 75.373)">
          <path id="Trazado_62028" data-name="Trazado 62028" d="M597.584,1489.275s-3.953,3.664-3.182,6.267,4.339,4.34,4.821,7.521,2.411,4.918,4.146,4.918h8.275s1.277-2.24-1.808-2.914-4.249-4.414-4.056-7.885a62.109,62.109,0,0,0-.289-8.1l-6.557-1.543Z" transform="translate(-594.302 -1356.445)" fill="#2c3a64"/>
          <path id="Trazado_62029" data-name="Trazado 62029" d="M783.846,1521.991s-.964,7.714.772,8.582,22.467.578,22.467.578,0-2.6-3.567-3.182-9.836-2.7-10.9-7.424S783.846,1521.991,783.846,1521.991Z" transform="translate(-732.063 -1379.171)" fill="#2c3a64"/>
          <path id="Trazado_62030" data-name="Trazado 62030" d="M765.926,1092.421s-1.171,14.617-2.548,32.187c-1.872,23.868-4.122,53.186-4.345,58.74-.385,9.644-1.929,25.071-1.929,25.071s-3.662,3.665-10.992,2.12a252.361,252.361,0,0,1-8.4-45.323c-.029-.382-.058-.767-.087-1.152-1.736-23.72-4.435-73.669-4.435-73.669Z" transform="translate(-695.39 -1067.394)" fill="#f99746"/>
          <path id="Trazado_62031" data-name="Trazado 62031" d="M756.529,1104.109l-18.815,61.108c-.029-.382-.058-.767-.087-1.152-1.736-23.72-4.435-73.669-4.435-73.669Z" transform="translate(-695.39 -1067.394)" fill="#ed823a"/>
          <path id="Trazado_62032" data-name="Trazado 62032" d="M668.264,1032.648s-21.117,52.937-35,77.815-18.224,31.82-18.224,31.82-7.955-3.182-8.679-5.352c0,0,5.31-48.027,14.608-59.735,5.254-6.616,5.427-19.64,7.794-33.075,3.247-18.428,10.252-38.236,10.252-38.236Z" transform="translate(-603.077 -1005.886)" fill="#f99746"/>
        </g>
        <path id="Trazado_62033" data-name="Trazado 62033" d="M869.336,802.161s8.8,15.055,17.244,16.932a25.287,25.287,0,0,0-1.727-7.028,2.859,2.859,0,0,1,.367-2.929q.557-.7,1.037-1.33a50.862,50.862,0,0,0,3.075-4.417l-2.951-7.649-2-5.19a25.08,25.08,0,0,1-2.977,4.4A20.615,20.615,0,0,1,869.336,802.161Z" transform="translate(-794.479 -773.786)" fill="#ffb27d"/>
        <path id="Trazado_62034" data-name="Trazado 62034" d="M913.518,806.716s-.936,7.609,4.856,12.852a50.9,50.9,0,0,0,3.075-4.417L918.5,807.5A16.323,16.323,0,0,0,913.518,806.716Z" transform="translate(-826.594 -785.549)" fill="#ed975d"/>
        <path id="Trazado_62035" data-name="Trazado 62035" d="M923.716,775.378s-12.933-4.863-9.781-12.87,3.606-14.028,12-11.262,8.783,6.45,8.38,9.378S927.162,776.437,923.716,775.378Z" transform="translate(-826.579 -744.683)" fill="#ffb27d"/>
        <path id="Trazado_62036" data-name="Trazado 62036" d="M771.718,877.984q.572-1.145,1.193-2.308a78.241,78.241,0,0,0,5.236-12.161,59.788,59.788,0,0,0,2.312-9.148,28.868,28.868,0,0,0-.136-10.954c-.005-.026-1.31-5.151-1.32-5.171-8.159-3.654-10.182-13.064-10.182-13.064s-27.628,5.3-42.691,42.4c0,0-.974,2.747-2.228,6.788-.271.877-.555,1.816-.847,2.8C721.068,883.861,766.613,888.156,771.718,877.984Z" transform="translate(-687.965 -798.989)" fill="#2a4e96"/>
        <path id="Trazado_62037" data-name="Trazado 62037" d="M792.229,923.125s-7.859,13.758-3.058,24.262,16.367-5.622,16.367-5.622Z" transform="translate(-735.002 -870.277)" fill="#233862"/>
        <path id="Trazado_62038" data-name="Trazado 62038" d="M903.4,732c-.092-.177-.357-.365-1-.552a2.679,2.679,0,0,1,1.3-.064c.35-.886,1.211-2.4,2.859-2.43a2.03,2.03,0,0,0-1.279,1.208c2.241-1.459,6.421-1.925,16.911,1.429,13.825,4.42,7.042,12.5,4.963,13.163s-5.971-3.4-9.433-3.92-5.274,4.316-6.586,4.732-.577-.689-1.969-1.769-2.154,1.51-2.1,3.322-2.617,3.563-2.617,3.563l-1.613-2.875c-1.613-2.875-1.311-13.385.174-15.294C903.134,732.345,903.265,732.174,903.4,732Z" transform="translate(-818.069 -728.956)" fill="#2b478b"/>
        <path id="Trazado_62039" data-name="Trazado 62039" d="M747.43,968.34c.491-15.582,8.6-17.381,13.707-27.554q.572-1.145,1.193-2.308a78.263,78.263,0,0,0,5.236-12.161,59.8,59.8,0,0,0,2.312-9.148l-14.032-5.33a5.713,5.713,0,0,0-7.076,2.663c-3.472,6.535-10.928,18.075-21.178,20.231a138.377,138.377,0,0,1-14.273,2.432c-.271.877-.555,1.816-.847,2.8-1.986,6.7-4.737,15.086-3.848,21.313C709.311,966.081,747.391,969.59,747.43,968.34Z" transform="translate(-677.384 -861.791)" fill="#f99746"/>
        <path id="Trazado_62040" data-name="Trazado 62040" d="M878.387,827.1s2.768,3.378,3.847,12.183a40.669,40.669,0,0,1-.521,13.3l-2.4-.757s3.144-12.707-3.055-24.012C876.257,827.825,876.4,827.629,878.387,827.1Z" transform="translate(-799.516 -800.391)" fill="#f99746"/>
        <path id="Trazado_62041" data-name="Trazado 62041" d="M837.617,931.037a6.328,6.328,0,0,0,0-4.734S822.483,912.47,821.577,910s2.963-31.269,2.963-31.269-10.2-10.594-16.451-9.333c-2.811.567-6.593,6.745-6.565,7.007,1.251,11.772,3.519,31.588,5.316,36.209,4,10.286,26.794,20.793,26.794,20.793S836.8,933.274,837.617,931.037Z" transform="translate(-745.123 -831.095)" fill="#2a4e96"/>
      </g>
      <path id="Trazado_62042" data-name="Trazado 62042" d="M890.033,927.865a1.209,1.209,0,1,0-.87,1.472A1.209,1.209,0,0,0,890.033,927.865Z" transform="translate(-807.81 -873.065)" fill="#ed823a"/>
    </g>
    <g id="Grupo_29547" data-name="Grupo 29547" transform="translate(359.219 751.453)">
      <path id="Trazado_62043" data-name="Trazado 62043" d="M1349.94,1533.258l-13.423,8.974-20.078-.038,13.348-8.936Z" transform="translate(-1224.338 -1533.258)" fill="#f99746"/>
      <path id="Trazado_62044" data-name="Trazado 62044" d="M1518.2,1533.258l-13.462,9.012-20.078-.038,13.385-8.974Z" transform="translate(-1346.771 -1533.258)" fill="#f99746"/>
      <path id="Trazado_62045" data-name="Trazado 62045" d="M1007.75,1542.2l-9.583,6.426H978.051l2.434-1.635Z" transform="translate(-978.051 -1539.765)" fill="#f99746"/>
      <path id="Trazado_62046" data-name="Trazado 62046" d="M1179.654,1533.258l-13.309,8.9h-20.078l13.271-8.9Z" transform="translate(-1100.482 -1533.258)" fill="#f99746"/>
    </g>
    <g id="Grupo_29548" data-name="Grupo 29548" transform="translate(551.559 751.453)">
      <path id="Trazado_62047" data-name="Trazado 62047" d="M2056.984,1533.258l-13.614,9.126h-20.117l13.614-9.126Z" transform="translate(-1931.115 -1533.257)" fill="#f99746"/>
      <path id="Trazado_62048" data-name="Trazado 62048" d="M2225.137,1533.258l-13.689,9.164h-20.116l13.69-9.164Z" transform="translate(-2053.446 -1533.257)" fill="#f99746"/>
      <path id="Trazado_62049" data-name="Trazado 62049" d="M1718.38,1533.258l-13.5,9.05h-20.154l13.538-9.05Z" transform="translate(-1684.727 -1533.257)" fill="#f99746"/>
      <path id="Trazado_62050" data-name="Trazado 62050" d="M1866.519,1533.256l-13.576,9.088h20.116l13.576-9.088Z" transform="translate(-1807.159 -1533.256)" fill="#f99746"/>
    </g>
    <g id="Grupo_29549" data-name="Grupo 29549" transform="translate(732.718 751.453)">
      <path id="Trazado_62051" data-name="Trazado 62051" d="M2724.148,1533.258l-12.967,8.708h-.038l-20.193.076,13.081-8.784Z" transform="translate(-2598.242 -1533.258)" fill="#f99746"/>
      <path id="Trazado_62052" data-name="Trazado 62052" d="M2384.018,1533.258l-13.461,9.012-19.355.076h-.875l13.575-9.088Z" transform="translate(-2350.327 -1533.258)" fill="#f99746"/>
      <path id="Trazado_62053" data-name="Trazado 62053" d="M2552.984,1533.258l-13.233,8.86-18.823.076h-1.407l13.348-8.936Z" transform="translate(-2473.47 -1533.258)" fill="#f99746"/>
    </g>
    <path id="Rectángulo_5898" data-name="Rectángulo 5898" d="M.811,0H753.392a.811.811,0,0,1,.811.811v0a.811.811,0,0,1-.811.811H.811A.811.811,0,0,1,0,.811v0A.811.811,0,0,1,.811,0Z" transform="translate(136.49 759.131)" fill="#2e3552"/>
  </g>
</svg>
