<svg xmlns="http://www.w3.org/2000/svg" width="131.514" height="421.837" viewBox="0 0 131.514 421.837">
  <g id="Grupo_29631" data-name="Grupo 29631" transform="translate(-2203.31 -1420.543)">
    <g id="Grupo_29628" data-name="Grupo 29628" transform="translate(2203.31 1641.131)">
      <g id="Grupo_29627" data-name="Grupo 29627" transform="translate(0 8.95)">
        <rect id="Rect치ngulo_6060" data-name="Rect치ngulo 6060" width="64.415" height="50.995" rx="14.403" fill="#ffa412"/>
        <path id="Rect치ngulo_6061" data-name="Rect치ngulo 6061" d="M14.4,0H50.011a14.4,14.4,0,0,1,14.4,14.4v22.19A14.4,14.4,0,0,1,50.012,51H14.4A14.4,14.4,0,0,1,0,36.592V14.4A14.4,14.4,0,0,1,14.4,0Z" transform="translate(17.446)" fill="#e27f2b"/>
      </g>
      <path id="Trazado_62340" data-name="Trazado 62340" d="M2233.315,2021.579s12.749-9.394,14.65-9.169,4.92.894,4.92.894l-11.407,8.611Z" transform="translate(-2222.132 -2012.406)" fill="#ffa412"/>
    </g>
    <path id="Trazado_62341" data-name="Trazado 62341" d="M2355.516,1625.053c-5.113-3.865-17.047-7.095-23.028-7.775-1.4-.157-5.605-.174-5.65-.174,0,4.3-9.156,8.011-16.618,7.524-6.29-.411-10.373-5.193-10.373-7.783l0-.009c-.483,0-24.992,17.011-28.074,33.961a18.875,18.875,0,0,0-.318,3.386c-.1,80.621-4.983,92.985-3.44,92.958,0,0,9.17,7.054,26.186,8.723,2.2.219,4.531.344,6.992.353a100.408,100.408,0,0,0,20.555-2.04,93.025,93.025,0,0,0,9.447-2.451c11.912-3.776,19.007-8.772,18.953-10.2-.059-1.588.232-3.605.035-5.869-.742-8.535-1.15-15.992-1.462-23.5,12.927,1.136,20.384-.143,20.384-.143C2379.69,1689.23,2362.432,1630.277,2355.516,1625.053Zm-3.02,65.622c-.787.21-1.642.412-2.554.6-.631.138-1.288.268-1.968.393-.013-.308-.022-.622-.036-.926-.174-4.223-.371-8.244-.648-12.068-.232-3.2-.519-6.267-.894-9.193C2350.855,1681.245,2353.964,1690.281,2352.5,1690.675Z" transform="translate(-40.398 -123.134)" fill="#9ed9f0"/>
    <path id="Trazado_62342" data-name="Trazado 62342" d="M2284.625,1616.854s-18.936,2.869-27.088,9.662-8.977,50.054-11.695,62.283a95.7,95.7,0,0,0-1.428,11c-1.458,16.6.289,39.61,1.734,48.12a18.272,18.272,0,0,1-1.112,8.03c-2.087,5.219-2.535,6.71,1.193,9.692s7.753,7.157,10.586,5.964c2.186-.92,1.8-15.414,1.506-21.993,3.271-14.06,8.568-40.449,13.554-66.022C2278.528,1649.495,2284.625,1616.854,2284.625,1616.854Z" transform="translate(-25.176 -123.145)" fill="#d9935c"/>
    <path id="Trazado_62343" data-name="Trazado 62343" d="M2286.26,1616.859s-3.516,18.81-8.119,42.786c-1.458,7.609-3.028,15.737-4.63,23.95-6.517,12.771-12.109,21.453-13.836,19.821-3.525-3.328-9.711-3.74-13.625-3.615a95.714,95.714,0,0,1,1.427-11c.215-.966.417-2.125.613-3.445,2.282-15.388,3.574-52.583,11.08-58.836,3.95-3.288,10.427-5.659,16.059-7.233h0c2.876-.8,5.534-1.392,7.52-1.794C2284.9,1617.065,2286.26,1616.859,2286.26,1616.859Z" transform="translate(-26.811 -123.149)" fill="#9ed9f0"/>
    <path id="Trazado_62344" data-name="Trazado 62344" d="M2259.674,1739.328c-3.524-3.327-9.711-3.738-13.627-3.614a95.7,95.7,0,0,1,1.428-11c.215-.966.417-2.126.613-3.446l19.537-47.161S2261.4,1740.962,2259.674,1739.328Z" transform="translate(-26.809 -159.061)" fill="#74acbe"/>
    <path id="Trazado_62345" data-name="Trazado 62345" d="M2380.825,1580.078a144.309,144.309,0,0,0-.854-21.083l-26.276,4.294s0,8.017.116,16.915l-.026,0s-.716,8.254,9.449,9.462S2381.1,1586.447,2380.825,1580.078Z" transform="translate(-94.337 -86.85)" fill="#d9935c"/>
    <path id="Trazado_62346" data-name="Trazado 62346" d="M2292.034,2512.466c3.3-2.033,1.371-17.207,1.371-17.207s-15.475-12.284-17.561-2.827-14.605,13.748-21.736,14.932c-4.923.817-6.437,3.551-6.9,5.166Z" transform="translate(-27.535 -670.15)" fill="#233862"/>
    <path id="Trazado_62347" data-name="Trazado 62347" d="M2460.715,1779.917s-4.921,6.651-5.927,6.651-13.42-4.809-9.859-15.562,12.235-12.905,12.235-12.905c.375,2.925.662,5.99.895,9.193.277,3.824.474,7.845.648,12.068.013.3.022.618.036.926.68-.125,1.338-.255,1.968-.394Z" transform="translate(-151.166 -211.75)" fill="#74acbe"/>
    <path id="Trazado_62348" data-name="Trazado 62348" d="M2419.257,2512.466c3.3-2.033,1.371-17.207,1.371-17.207s-15.474-12.284-17.56-2.827-14.6,13.748-21.736,14.932c-4.923.817-6.437,3.551-6.9,5.166Z" transform="translate(-107.342 -670.15)" fill="#233862"/>
    <path id="Trazado_62349" data-name="Trazado 62349" d="M2372.3,1486.725s17.541-27.656-16.141-29.486c0,0-12.633,1.487-15.492-1.373,0,0-9.8,14.893-.648,30.859S2372.3,1486.725,2372.3,1486.725Z" transform="translate(-83.305 -22.158)" fill="#b64c41"/>
    <path id="Trazado_62350" data-name="Trazado 62350" d="M2350.016,1521.567c2.553,2.008,10.039,4,12.2,4.237,0,0,11.1-2.475,13.118-3.693,3.125-1.894,2.924-5.728,3.084-11.06.192-6.31.829-11.265.124-14.9-.837-4.351-3.6-6.827-11.32-7.5-14.18-1.231-20.088,2.32-20.335,7.074-.064,1.276-.123,2.494-.165,3.646C2346.158,1514.2,2347.33,1519.453,2350.016,1521.567Z" transform="translate(-89.877 -42.569)" fill="#d9935c"/>
    <path id="Trazado_62351" data-name="Trazado 62351" d="M2346.6,1530.867c.137,8.589,2.454,13.673,4.132,14.315a35.481,35.481,0,0,0,6.577,1.758c.8.094,1.563.067,1.555-.386-.026-1.355-1.836-3.025-.491-4.225,1.411-1.258,8.984-1.682,9.594,1.064.3,1.338-2.144,3.7-.471,3.756.508-.087,1.006-.184,1.482-.309a22.108,22.108,0,0,0,5.834-2.573c3.125-1.895,2.92-4.8,3.612-10.087.448-3.421.448-1.567,0,3.51-.469,5.313.448,8.722-3.084,11.059-1.965,1.3-13.283,6.385-13.283,6.385.165-2.693-9.485-4.921-12.039-6.929C2347.646,1546.342,2346.456,1542.032,2346.6,1530.867Z" transform="translate(-89.877 -69.206)" fill="#b64c41"/>
    <path id="Trazado_62352" data-name="Trazado 62352" d="M2352.7,1798.686c.053,1.427-7.041,6.423-18.954,10.2-.959.307-1.954.6-2.974.884a.033.033,0,0,0-.025.029c-1.111,13.038-4.119,31.456-6.833,49.232v0c-.7,4.607-1.382,9.17-2.008,13.585-1.655,11.684-2.895,22.331-3.028,29.993v.081c-.059,3.516,2.907,12.288,3.131,14.314.139,1.239.251,2.55.331,3.923a159.283,159.283,0,0,1-.25,18.9c-1.946,30.221-9.93,68.888-12.78,70.534-5.663,3.275-15.97,0-21.208-.769a4.328,4.328,0,0,1-3.793-4.357c2.559-50.154-4.791-120-10.284-162.942-.143-1.118-.286-2.214-.424-3.292-.658-5.064-1.092-9.792-1.365-14.055-.25-3.74-.372-7.135-.425-10.078-.014-.917-.022-1.793-.027-2.621-.013-2.688,2.125-20.286,2.223-100.907h0a3.4,3.4,0,0,1,3.39-3.386h49.3a8.545,8.545,0,0,1,8.538,8.663,137.41,137.41,0,0,0,1.48,22.932c1.82,11.194,5.717,21.652,13.759,24.169a.031.031,0,0,1,.02.016c.036.081.256.571.609,1.387a.027.027,0,0,1,0,.012q.114,3.037.255,6.185c.018.421.036.845.058,1.27.009.251.022.5.036.747.018.425.04.855.063,1.284.031.707.067,1.418.107,2.139.032.564.063,1.127.094,1.7q.087,1.638.2,3.31c.018.358.04.711.067,1.074.094,1.44.192,2.9.3,4.374.031.452.067.9.1,1.36.013.219.031.438.049.657.045.577.089,1.154.138,1.736.049.613.1,1.23.156,1.852C2352.931,1795.081,2352.64,1797.1,2352.7,1798.686Z" transform="translate(-42.953 -180.293)" fill="#2b478b"/>
    <path id="Trazado_62353" data-name="Trazado 62353" d="M2322.849,2117.485c-1.946,30.221-9.931,68.888-12.78,70.533-5.663,3.275-15.969,0-21.208-.769a4.328,4.328,0,0,1-3.793-4.357c2.559-50.154-4.791-120-10.284-162.942q-.214-1.677-.425-3.292c-.658-5.064-1.091-9.792-1.364-14.055,2.612-17.025,17.356-17.937,30.727,17.28C2309.452,2033.527,2323.292,2110.56,2322.849,2117.485Z" transform="translate(-43.714 -357.948)" fill="#233862"/>
    <path id="Trazado_62354" data-name="Trazado 62354" d="M2390.026,2036.2c.405,3.494,4.495,11.8,4.985,13.779,6.76,27.185,3.025,91.64-.326,94.217-5.184,3.989-15.833,2.093-21.125,2.022a4.324,4.324,0,0,1-4.331-3.819c-4.156-51.356-21.379-121.893-32.454-163.388a194.759,194.759,0,0,1-6.367-36.269s51.764-31.715,57.362-14.39C2392.723,1943.682,2386.9,2009.372,2390.026,2036.2Z" transform="translate(-79.728 -315.3)" fill="#2b478b"/>
    <g id="Grupo_29630" data-name="Grupo 29630" transform="translate(2250.401 1420.543)">
      <path id="Trazado_62355" data-name="Trazado 62355" d="M2370.588,1430.575a27.189,27.189,0,0,0-3.963-4.089c-.4-.348-.836-.7-1.3-1.047-4.677-3.559-12.163-7.033-21.187-3.269a20.136,20.136,0,0,0-6.167,4.008q-.6.567-1.136,1.168c-7.825,8.681-7.163,22.3-7.163,22.3l45.151-.483C2374.972,1436.555,2370.588,1430.575,2370.588,1430.575Z" transform="translate(-2329.66 -1420.543)" fill="#ffa412"/>
      <g id="Grupo_29629" data-name="Grupo 29629" transform="translate(0.014 5.308)">
        <path id="Trazado_62356" data-name="Trazado 62356" d="M2412.663,1458.225c-.013-.169-1.334-17.2,4.469-22.8a8.919,8.919,0,0,0-.768-.635c-6.112,6.362-6.235,22.749-6.182,23.468Z" transform="translate(-2380.182 -1434.785)" fill="#e27f2b"/>
        <path id="Trazado_62357" data-name="Trazado 62357" d="M2345.26,1458.962c-.428-11.058-6.531-22.069-7.264-23.3a10.111,10.111,0,0,0-.833.854c1.059,1.864,5.044,12.524,5.425,22.472l-12.89.138s12.026,3.109,21.083,3,24.068-3.479,24.068-3.479Z" transform="translate(-2329.698 -1435.336)" fill="#e27f2b"/>
      </g>
    </g>
    <path id="Trazado_62358" data-name="Trazado 62358" d="M2419.1,1618.669s-15.256,17.771-16.15,33.279h7.754a74.254,74.254,0,0,1,13.456-32.216Z" transform="translate(-125.232 -124.284)" fill="#2b478b"/>
    <path id="Trazado_62359" data-name="Trazado 62359" d="M2310.9,1618.563a77.92,77.92,0,0,0-12.225,33.316h-7.752c.644-12.189,8.226-25.171,12.453-31.522h0C2306.26,1619.556,2308.917,1618.965,2310.9,1618.563Z" transform="translate(-54.962 -124.218)" fill="#2b478b"/>
    <path id="Trazado_62360" data-name="Trazado 62360" d="M2420.358,1705.122a161.971,161.971,0,0,0-2.64-21.286,67.8,67.8,0,0,1-.856,11.276c1.918,15.289,1.177,26.974-2.229,33.59a22.8,22.8,0,0,1-8.571,9.357,27.063,27.063,0,0,0,4.738-6.255c2.619-4.693,5.03-13.428,4.136-29.54-.18.459-.369.9-.57,1.332,0,0-.664.115-1.943.246.525,11.781-.734,20.8-3.742,26.2a22.265,22.265,0,0,1-9.067,9.087,26.627,26.627,0,0,0,3.226-3.894c3.107-4.566,6.349-13.542,6.489-31.159-.775.045-1.636.082-2.578.106-.144,13.506-2.135,23.556-5.886,29.049-.172.254-.353.508-.537.754,2.845-4.882,5.566-13.731,5.706-29.791-.808.013-1.668.021-2.582.013-.135,13.493-2.135,23.535-5.882,29.024a21.262,21.262,0,0,1-8.673,7.513c-1.033-.176-2.091-.41-3.152-.693-.143-.032-.287-.069-.426-.115l-.045-.012c-.139-.037-.283-.078-.422-.118q-1.943-.565-3.771-1.292c-14.915-5.923-23.474-19.26-24.306-30.225-.59-7.788.041-19.384,1.615-32,3.1-24.855,9.85-53.67,18.06-65.122.139-.193.27-.381.41-.562,0,0,0,0,0,0,.172-.225.344-.447.52-.652.3-.365.6-.7.91-1.016l.008-.008a10.078,10.078,0,0,1,1.914-1.566,4.886,4.886,0,0,1,.565.394,10.908,10.908,0,0,1,1.9,1.959c0,.009.012.012.017.021.856.184,1.746.4,2.656.627.422.115.856.226,1.291.353a.283.283,0,0,1,.082.021c.1.021.205.053.3.082.533.148,1.065.3,1.6.464l.914.282c.36.115.717.23,1.073.349.389.131.779.262,1.164.4.41.143.82.291,1.221.443l-.025-.037c-4.833-7.615-8.267-9.39-10.5-9.284a6.14,6.14,0,0,0-1.045.139,4.391,4.391,0,0,0-1.119-.152,6.709,6.709,0,0,0-2.246.414c-2.3.222-4.709,1.672-7.21,4.341-.172.176-.34.365-.512.558a44.345,44.345,0,0,0-4.165,5.656l-.024.037c-13.219,20.892-25.544,67.3-26.278,89.027-.578,17.191,12.657,32.562,26.032,38.857a40.306,40.306,0,0,0,3.889,1.594c.726.254,1.443.48,2.156.681l.045.012a29.731,29.731,0,0,0,8.046,1.164c.554,0,1.1-.017,1.64-.053.557.037,1.111.053,1.66.053a23.716,23.716,0,0,0,6.972-1.016c.349-.016.7-.042,1.041-.066.3-.029.59-.053.877-.09.566-.065,1.127-.152,1.68-.254a27.953,27.953,0,0,0,4.722-.365,23.828,23.828,0,0,0,12.554-6.1,27.084,27.084,0,0,0,5.607-7.5C2419.038,1726.026,2421.014,1718.394,2420.358,1705.122Zm-77.9-1.542c.647-19.227,11.161-60.064,22.785-82.112-.406.976-.816,1.984-1.217,3.021-10.985,23.266-20.212,60.265-20.839,78.965a37.384,37.384,0,0,0,6.5,21.642C2344.661,1718.05,2342.23,1710.167,2342.455,1703.58Zm27.68,35.808c-16.543-7.788-24.79-23.908-24.385-35.808.353-10.562,3.689-27.655,8.55-44.566-3.792,18.281-5.906,36.824-5.385,48.215.655,14.424,10.9,26.417,22.347,32.664C2370.885,1739.737,2370.517,1739.569,2370.135,1739.388Zm-18.663-32.331c-.754-16.494,4.46-49.7,12.17-73.525.865-2.665,1.758-5.213,2.681-7.612.344-.73.688-1.438,1.033-2.139-5.935,16.256-10.395,39.488-12.329,59a159.18,159.18,0,0,0-.808,25.8c.9,11.9,8.321,21.846,17.437,28.172C2358.945,1729.727,2351.936,1717.226,2351.473,1707.057Z" transform="translate(-85.662 -114.719)" fill="#ffa412"/>
    <path id="Trazado_62361" data-name="Trazado 62361" d="M2384.874,1813.961c-.42.063-8.347,1.51-8.781,1.572-13.2,1.936-30.967,2.788-32.816,2.874-.173-.162-6.475-6.032-8.932-6.032-2.491,0-9.674,2.617-10.407,4.63s-1.026,5.636,1.026,6.441a92.31,92.31,0,0,0,12.752,3.02,5.851,5.851,0,0,0,1.056-.01,222.8,222.8,0,0,0,39.858,8,95.24,95.24,0,0,0,11.135.751A58.257,58.257,0,0,0,2384.874,1813.961Z" transform="translate(-75.325 -245.796)" fill="#d9935c"/>
  </g>
</svg>
