<svg xmlns="http://www.w3.org/2000/svg" xmlns:xlink="http://www.w3.org/1999/xlink" width="388.008" height="296.596" viewBox="0 0 388.008 296.596">
  <defs>
    <linearGradient id="linear-gradient" x1="-34.89" y1="-1.092" x2="-35.164" y2="0.898" gradientUnits="objectBoundingBox">
      <stop offset="0" stop-color="#f9b776"/>
      <stop offset="1" stop-color="#f47960"/>
    </linearGradient>
    <linearGradient id="linear-gradient-2" x1="3.008" y1="-8.259" x2="0.602" y2="0.343" xlink:href="#linear-gradient"/>
    <linearGradient id="linear-gradient-3" x1="-27.937" y1="0.213" x2="-28.414" y2="5.397" gradientUnits="objectBoundingBox">
      <stop offset="0" stop-color="#fdf53f"/>
      <stop offset="1" stop-color="#d93c65"/>
    </linearGradient>
    <linearGradient id="linear-gradient-4" x1="-47.795" y1="-2.103" x2="-51.119" y2="2.563" xlink:href="#linear-gradient"/>
    <linearGradient id="linear-gradient-5" x1="-13.166" y1="0.513" x2="-15.595" y2="0.498" xlink:href="#linear-gradient-3"/>
    <linearGradient id="linear-gradient-6" x1="-11.067" y1="0.307" x2="-9.73" y2="0.551" xlink:href="#linear-gradient-3"/>
    <linearGradient id="linear-gradient-7" x1="-9.952" y1="0.818" x2="-11.83" y2="5.572" xlink:href="#linear-gradient-3"/>
    <linearGradient id="linear-gradient-8" x1="-14.542" y1="0.049" x2="-17.241" y2="1.984" xlink:href="#linear-gradient-3"/>
    <linearGradient id="linear-gradient-9" x1="6.936" y1="-36.303" x2="10.934" y2="-31.736" xlink:href="#linear-gradient"/>
    <linearGradient id="linear-gradient-10" x1="-66.661" y1="-4.123" x2="-66.628" y2="0.581" gradientUnits="objectBoundingBox">
      <stop offset="0" stop-color="#cb236d"/>
      <stop offset="1" stop-color="#4c246d"/>
    </linearGradient>
    <linearGradient id="linear-gradient-11" x1="-65.937" y1="-18.853" x2="-69.638" y2="3.057" gradientUnits="objectBoundingBox">
      <stop offset="0" stop-color="#53d8ff"/>
      <stop offset="1" stop-color="#3840f7"/>
    </linearGradient>
    <linearGradient id="linear-gradient-12" x1="-175.779" y1="-2.649" x2="-176.276" y2="0.575" xlink:href="#linear-gradient"/>
    <linearGradient id="linear-gradient-13" x1="-43.009" y1="-12.702" x2="-45.524" y2="10.289" xlink:href="#linear-gradient-11"/>
    <linearGradient id="linear-gradient-14" x1="-43.859" y1="-4.768" x2="-43.836" y2="0.572" xlink:href="#linear-gradient-10"/>
    <linearGradient id="linear-gradient-15" x1="-170.098" y1="-1.713" x2="-170.602" y2="1.036" xlink:href="#linear-gradient"/>
    <linearGradient id="linear-gradient-16" x1="-23.93" y1="-0.883" x2="-25.395" y2="1.035" gradientUnits="objectBoundingBox">
      <stop offset="0" stop-color="#2b3582"/>
      <stop offset="1" stop-color="#150e42"/>
    </linearGradient>
    <linearGradient id="linear-gradient-17" x1="-2918.759" y1="0.097" x2="-2919.346" y2="2.17" gradientUnits="objectBoundingBox">
      <stop offset="0" stop-color="#fdf53f"/>
      <stop offset="0.665" stop-color="#e57a58"/>
      <stop offset="1" stop-color="#d93c65"/>
    </linearGradient>
    <linearGradient id="linear-gradient-18" x1="-15.323" y1="0.074" x2="-15.541" y2="2.244" xlink:href="#linear-gradient-3"/>
    <linearGradient id="linear-gradient-19" x1="-75.22" y1="-1.157" x2="-76.04" y2="2.014" xlink:href="#linear-gradient"/>
    <linearGradient id="linear-gradient-20" x1="-53.47" y1="0.756" x2="-49.278" y2="-0.156" xlink:href="#linear-gradient"/>
    <linearGradient id="linear-gradient-21" x1="-36.764" y1="-1.149" x2="-36.953" y2="1.265" xlink:href="#linear-gradient-10"/>
    <linearGradient id="linear-gradient-22" x1="-160.213" y1="0.869" x2="-145.211" y2="0.128" xlink:href="#linear-gradient"/>
    <linearGradient id="linear-gradient-23" x1="-351.574" y1="-1.666" x2="-359.241" y2="0.771" xlink:href="#linear-gradient-3"/>
    <linearGradient id="linear-gradient-24" x1="-105.357" y1="-11.888" x2="-113.509" y2="-0.744" xlink:href="#linear-gradient-16"/>
    <linearGradient id="linear-gradient-25" x1="-25.277" y1="-0.698" x2="-26.842" y2="3.751" xlink:href="#linear-gradient-16"/>
    <linearGradient id="linear-gradient-26" x1="-93.815" y1="-0.854" x2="-99.389" y2="9.012" xlink:href="#linear-gradient-16"/>
    <linearGradient id="linear-gradient-27" x1="-141.232" y1="-0.571" x2="-149.919" y2="9.1" xlink:href="#linear-gradient-16"/>
    <linearGradient id="linear-gradient-28" x1="26.064" y1="-0.23" x2="23.192" y2="3.588" xlink:href="#linear-gradient-16"/>
    <linearGradient id="linear-gradient-29" x1="23.684" y1="-13.124" x2="24.734" y2="-13.124" xlink:href="#linear-gradient-16"/>
    <linearGradient id="linear-gradient-30" x1="-9.546" y1="4.606" x2="-8.454" y2="4.606" gradientUnits="objectBoundingBox">
      <stop offset="0" stop-color="#b37cff"/>
      <stop offset="1" stop-color="#f895e7"/>
    </linearGradient>
    <linearGradient id="linear-gradient-31" x1="-125.746" y1="63.645" x2="-124.777" y2="63.645" xlink:href="#linear-gradient-30"/>
    <linearGradient id="linear-gradient-32" x1="-158.69" y1="62.708" x2="-157.772" y2="62.708" xlink:href="#linear-gradient-30"/>
    <linearGradient id="linear-gradient-33" x1="-8.339" y1="6.326" x2="-7.249" y2="6.326" xlink:href="#linear-gradient-30"/>
    <linearGradient id="linear-gradient-34" x1="-150.613" y1="110.218" x2="-149.646" y2="110.218" xlink:href="#linear-gradient-30"/>
    <linearGradient id="linear-gradient-35" x1="-5.081" y1="5.441" x2="-8.568" y2="3.91" gradientUnits="objectBoundingBox">
      <stop offset="0" stop-color="#a737d5"/>
      <stop offset="1" stop-color="#ef497a"/>
    </linearGradient>
    <linearGradient id="linear-gradient-36" x1="-336.447" y1="115.964" x2="-335.554" y2="115.964" xlink:href="#linear-gradient-30"/>
    <linearGradient id="linear-gradient-37" x1="-20.677" y1="8.578" x2="-19.557" y2="8.578" xlink:href="#linear-gradient-30"/>
    <linearGradient id="linear-gradient-38" x1="-15.931" y1="17.931" x2="-14.878" y2="17.931" xlink:href="#linear-gradient-30"/>
    <linearGradient id="linear-gradient-39" x1="-227.485" y1="171.297" x2="-226.527" y2="171.297" xlink:href="#linear-gradient-30"/>
    <linearGradient id="linear-gradient-40" x1="-9.351" y1="9.552" x2="-14.561" y2="7.265" xlink:href="#linear-gradient-35"/>
  </defs>
  <g id="Grupo_31186" data-name="Grupo 31186" transform="translate(-554 -5969.207)">
    <g id="Grupo_28971" data-name="Grupo 28971" transform="translate(554 5969.207)" opacity="0.29">
      <path id="Rectángulo_5727" data-name="Rectángulo 5727" d="M15,0H373.008a15,15,0,0,1,15,15V280.782a15,15,0,0,1-15,15H15a15,15,0,0,1-15-15V15A15,15,0,0,1,15,0Z" transform="translate(0)" fill="#87a3f2"/>
      <g id="Grupo_28953" data-name="Grupo 28953" transform="translate(193.962 71.087)">
        <g id="Grupo_28952" data-name="Grupo 28952">
          <g id="Grupo_28951" data-name="Grupo 28951">
            <g id="Grupo_28950" data-name="Grupo 28950">
              <path id="Trazado_60727" data-name="Trazado 60727" d="M525,154.816" transform="translate(-525 -108.449)" fill="#87a3f2" stroke="#6c80e2" stroke-miterlimit="10" stroke-width="1.043"/>
              <path id="Trazado_60728" data-name="Trazado 60728" d="M525,129.816" transform="translate(-525 -129.816)" fill="#87a3f2" stroke="#6c80e2" stroke-miterlimit="10" stroke-width="1.043"/>
            </g>
          </g>
        </g>
      </g>
    </g>
    <g id="Grupo_28995" data-name="Grupo 28995" transform="translate(571.316 5975.535)">
      <g id="Grupo_28985" data-name="Grupo 28985" transform="translate(150.55 0)">
        <path id="Trazado_60824" data-name="Trazado 60824" d="M2948.977,2128a26.25,26.25,0,0,0,1.147-14.086,40.913,40.913,0,0,0,16.459-6.57c.583,8.408-1.65,17.693-9.393,26.9h0a69.177,69.177,0,0,1-15.478,13.249l-1.962,4.19-5.9-7.345S2944.781,2139.158,2948.977,2128Z" transform="translate(-2795.347 -1976.53)" fill="url(#linear-gradient)"/>
        <g id="Grupo_28981" data-name="Grupo 28981" transform="translate(47.752 95.841)">
          <path id="Trazado_60825" data-name="Trazado 60825" d="M2430.827,1983.594a30.122,30.122,0,0,0,16.012-1.466,29.106,29.106,0,0,0,.541,3.133,60.792,60.792,0,0,0,4.4,13.154c-9.059,1.339-17.238-1.289-23.337-4.425A22.143,22.143,0,0,1,2430.827,1983.594Z" transform="translate(-2407.909 -1964.551)" fill="url(#linear-gradient-2)"/>
          <path id="Trazado_60826" data-name="Trazado 60826" d="M2560.867,1873.2c7.854-2.913,13.968-8.489,18.99-12.441,10.58-8.325,18.608-4.026,18.608-4.026l-11.526,21.8c-7.2,6.783-14.406,9.962-21.13,10.957a60.792,60.792,0,0,1-4.4-13.154A29.35,29.35,0,0,1,2560.867,1873.2Z" transform="translate(-2521.936 -1855.62)" fill="url(#linear-gradient-3)"/>
          <path id="Trazado_60827" data-name="Trazado 60827" d="M2280.938,1917.173l5.331,3.111c6.384,4.205,12.126,6.472,17.314,7.38a22.142,22.142,0,0,0-2.383,10.4,49.658,49.658,0,0,1-10.968-7.579C2278.168,1922.7,2280.938,1917.173,2280.938,1917.173Z" transform="translate(-2280.663 -1908.621)" fill="url(#linear-gradient-4)"/>
        </g>
        <g id="Grupo_28982" data-name="Grupo 28982">
          <path id="Trazado_60828" data-name="Trazado 60828" d="M2332.524,1870.437l-43.5-182.67-18.62,3.594L2298,1877.1q.092.621.211,1.239l1.2,6.213c2.058,10.662,9.554,18.181,16.743,16.793l8.546-1.65c7.189-1.388,11.349-11.156,9.291-21.817l-1.2-6.214Q2332.67,1871.049,2332.524,1870.437Zm-14.315,18.612c-4.77.921-9.892-4.841-11.441-12.868s1.062-15.281,5.832-16.2,9.892,4.841,11.441,12.868S2322.979,1888.128,2318.209,1889.049Z" transform="translate(-2224.073 -1615.248)" fill="url(#linear-gradient-5)"/>
          <path id="Trazado_60829" data-name="Trazado 60829" d="M2020.212,1173.573l6.958,36.053a8.425,8.425,0,0,1-1.96,7.177l-8.875,10.042a8.427,8.427,0,0,1-10.1,1.949l-11.974-6.018a8.426,8.426,0,0,1-4.49-5.932l-6.958-36.053a6.476,6.476,0,0,0-11.443-2.806,48.465,48.465,0,0,0-9.04,38.865c5,25.927,28.663,39.861,53.6,35.048s41.713-26.55,36.709-52.477a48.464,48.464,0,0,0-22.853-32.71A6.476,6.476,0,0,0,2020.212,1173.573Z" transform="translate(-1958.026 -1165.815)" fill="url(#linear-gradient-6)"/>
          <path id="Trazado_60830" data-name="Trazado 60830" d="M1995.757,1178.292l6.958,36.053a8.428,8.428,0,0,1-1.96,7.177l-8.875,10.042a8.426,8.426,0,0,1-10.1,1.948l-11.975-6.017a8.426,8.426,0,0,1-4.49-5.932l-6.958-36.053a6.476,6.476,0,0,0-11.443-2.806,48.466,48.466,0,0,0-9.04,38.865c5,25.927,28.663,39.861,53.6,35.048s41.713-26.55,36.709-52.478a48.464,48.464,0,0,0-22.854-32.71A6.476,6.476,0,0,0,1995.757,1178.292Z" transform="translate(-1936.968 -1169.879)" fill="url(#linear-gradient-7)"/>
          <path id="Trazado_60831" data-name="Trazado 60831" d="M2313.017,1874.2l-43.5-182.67-18.62,3.593,27.6,185.74q.092.621.211,1.239l1.2,6.214c2.058,10.662,9.554,18.181,16.743,16.793l8.546-1.649c7.188-1.387,11.348-11.155,9.291-21.817l-1.2-6.213Q2313.163,1874.813,2313.017,1874.2Zm-14.314,18.612c-4.77.921-9.892-4.841-11.441-12.868s1.062-15.281,5.832-16.2,9.893,4.841,11.441,12.868S2303.473,1891.893,2298.7,1892.814Z" transform="translate(-2207.277 -1618.49)" fill="url(#linear-gradient-8)"/>
        </g>
        <path id="Trazado_60832" data-name="Trazado 60832" d="M2277.289,1936.151a3.94,3.94,0,0,1,.915-3.241c1.5-1.732,4.084-4.1,5.961-2.506,2.794,2.382-.268,10.529-.268,10.529l-3.1,4.731-.043,3.02C2279.079,1946.722,2278.077,1941.894,2277.289,1936.151Z" transform="translate(-2229.958 -1823.718)" fill="url(#linear-gradient-9)"/>
        <path id="Trazado_60833" data-name="Trazado 60833" d="M2791.686,3159.735a1.5,1.5,0,0,1,.047-.392c2.1-7.71,11.89-12.353,11.89-12.353l3.838.374c2.081,6.87,1.718,11.053,1.328,12.911-.011.052-.028.1-.043.152A91.247,91.247,0,0,1,2791.686,3159.735Z" transform="translate(-2672.933 -2871.728)" fill="url(#linear-gradient-10)"/>
        <path id="Trazado_60834" data-name="Trazado 60834" d="M2808.747,3239.408a1.666,1.666,0,0,1-1.243,1.208c-4.528.863-11.682-.035-14.684-.485a1.4,1.4,0,0,1-1.134-1.416A91.29,91.29,0,0,0,2808.747,3239.408Z" transform="translate(-2672.933 -2950.71)" fill="url(#linear-gradient-11)"/>
        <path id="Trazado_60835" data-name="Trazado 60835" d="M2875.726,3108.06l-1.776,7.806a1.281,1.281,0,0,1-1.115,1.034,10.876,10.876,0,0,1-2.521-.088,1.611,1.611,0,0,1-1.24-1.917l1.263-6.937Z" transform="translate(-2739.544 -2838.119)" fill="url(#linear-gradient-12)"/>
        <path id="Trazado_60836" data-name="Trazado 60836" d="M2563.358,3232.592c4.247-.039,6.452-.5,7.6-.939-.005.422-.016.852-.038,1.3a.837.837,0,0,1-.816.837l-23.3-.591a1.065,1.065,0,0,1-.827-1.565C2549.021,3231.94,2556.793,3232.652,2563.358,3232.592Z" transform="translate(-2461.255 -2944.608)" fill="url(#linear-gradient-13)"/>
        <path id="Trazado_60837" data-name="Trazado 60837" d="M2546.7,3163.52a1.084,1.084,0,0,1,.1-.174c2.113-2.837,7.463-8.465,17.869-10.753l4.973-.063s2.14,3.888,2.047,11.012c-1.144.443-3.348.9-7.6.94C2557.518,3164.542,2549.746,3163.829,2546.7,3163.52Z" transform="translate(-2461.981 -2876.498)" fill="url(#linear-gradient-14)"/>
        <path id="Trazado_60838" data-name="Trazado 60838" d="M2678.63,3090.227c-.062.37-.85,5.986-1.154,8.164a1.081,1.081,0,0,1-.931.959,11.356,11.356,0,0,1-3.412-.117,1.47,1.47,0,0,1-1.086-1.5l.167-8.837Z" transform="translate(-2569.916 -2821.709)" fill="url(#linear-gradient-15)"/>
        <path id="Trazado_60839" data-name="Trazado 60839" d="M2674.373,2337.1s-13.814,57.344-14.68,114.669c-.016,1.045,7.978,1.967,8.162,1,1.866-9.824,14.171-73.811,19.836-82.721,0,0-.127,56.393-1.767,82.026-.041.637,7.209,2.726,8.723,1.1,0,0,10.217-62.413,10.636-101.579.021-2.017-3.619-14.5-3.619-14.5Z" transform="translate(-2559.279 -2174.36)" fill="url(#linear-gradient-16)"/>
        <path id="Trazado_60840" data-name="Trazado 60840" d="M2691.6,1896.625c.854-1.095-.223,2.225,0,0Z" transform="translate(-2586.728 -1794.89)" fill="url(#linear-gradient-17)"/>
        <path id="Trazado_60841" data-name="Trazado 60841" d="M2661.469,1855.308c.021-.207.052-.461.1-.772,15.112-10.477,37.459-4.608,46.123-3.35a11.6,11.6,0,0,1,7.254,4.073c4.414,5.307,11.99,16.178,12.887,29.13a40.932,40.932,0,0,1-16.459,6.57,38.156,38.156,0,0,0-2.867-9,21.877,21.877,0,0,1-.611,2.2c-6.509,19.342-9.9,30.387-9.961,34.119-.007.507-29.817-.728-24.538-.883,2.206-.065-10.278-44.1-16.8-51.916C2656.206,1865.01,2662.324,1854.213,2661.469,1855.308Z" transform="translate(-2556.594 -1753.574)" fill="url(#linear-gradient-18)"/>
        <path id="Trazado_60842" data-name="Trazado 60842" d="M2838.192,1750.054l1.258,15.946s-9.006,2.528-15.431-2.19l4.851-14.38Z" transform="translate(-2700.773 -1668.343)" fill="url(#linear-gradient-19)"/>
        <g id="Grupo_28983" data-name="Grupo 28983" transform="translate(115.05 58.656)">
          <path id="Trazado_60843" data-name="Trazado 60843" d="M2795.285,1617.979c-.22.2-9.429,17.469-9.429,17.469l9.973,5.048,11.16-15.071S2798.957,1614.651,2795.285,1617.979Z" transform="translate(-2782.963 -1613.263)" fill="url(#linear-gradient-20)"/>
          <path id="Trazado_60844" data-name="Trazado 60844" d="M2780.706,1596.4c2.237.328,3.42,2.8,3.891,4.087a1.61,1.61,0,0,1-.147,1.408l-5.178,8.273a1.576,1.576,0,0,1-.281.338c-.608.545-2.683,2.124-4.222-.109-1.312-1.9-2.543-3.633-3.885-4.362a1.6,1.6,0,0,0-2.179.672,59.915,59.915,0,0,0-3.589,8.084,1.6,1.6,0,0,0,.893,1.977,44.514,44.514,0,0,0,9.586,2.994,1.6,1.6,0,0,0,1.53-.617c1.578-2.077,6.023-7.883,7.53-9.328,1.4-1.343,3.926-.779,5.063-.429a1.614,1.614,0,0,0,1.286-.144c1.173-.677,3.229-2.377,1.434-5.357a1.607,1.607,0,0,1,.538-2.173,3.552,3.552,0,0,0,1.456-5.013c-1.629-3.3-6.246-2.991-8.837-5.422a12.372,12.372,0,0,0-4.191-3.1,3.27,3.27,0,0,0-1.1-.2c-1.63.033-4.1,2.719-4.209,4.342C2775.931,1594.646,2778.758,1596.115,2780.706,1596.4Z" transform="translate(-2765.032 -1587.986)" fill="url(#linear-gradient-21)"/>
          <path id="Trazado_60845" data-name="Trazado 60845" d="M2892.279,1733.7s2.038-5.614,4.505-5.36,4.366,2.753,1.251,5.463C2894.161,1737.18,2892.279,1733.7,2892.279,1733.7Z" transform="translate(-2874.6 -1708.836)" fill="url(#linear-gradient-22)"/>
        </g>
        <path id="Trazado_60846" data-name="Trazado 60846" d="M3031.162,1957.072c3.426-8.855,2.448-19.644,2.438-19.751l-.9.085c.01.106.967,10.688-2.381,19.34Z" transform="translate(-2878.411 -1830.128)" fill="url(#linear-gradient-23)"/>
        <path id="Trazado_60847" data-name="Trazado 60847" d="M2861.786,2509.528a.453.453,0,0,0,.443-.331c1.066-3.815,8.588-7.887,8.664-7.928a.452.452,0,0,0-.427-.8c-.324.174-7.938,4.3-9.107,8.481a.452.452,0,0,0,.313.557A.483.483,0,0,0,2861.786,2509.528Z" transform="translate(-2732.91 -2314.991)" fill="url(#linear-gradient-24)"/>
        <path id="Trazado_60848" data-name="Trazado 60848" d="M2755.379,2025.348l-11.123-16.757a.431.431,0,0,0-.358-.192h-20.363a.946.946,0,0,0-.813.464l-9.678,16.378a1.37,1.37,0,0,0-.168.944c3.832,11.633,7.538,23.081,7.271,28.652,6.94,5.422,19.151,4.289,27.486,1.8.429-7.269,4-18.709,7.889-30.557A.975.975,0,0,0,2755.379,2025.348Z" transform="translate(-2605.053 -1891.332)" fill="url(#linear-gradient-25)"/>
        <path id="Trazado_60849" data-name="Trazado 60849" d="M2917.551,1856.656l-7.475,21.481h-4.5l6.647-22.369a.442.442,0,0,1,.513-.307l4.683.965A.175.175,0,0,1,2917.551,1856.656Z" transform="translate(-2771 -1759.635)" fill="url(#linear-gradient-26)"/>
        <path id="Trazado_60850" data-name="Trazado 60850" d="M2771.2,1851.779l1.835,22.4-4.152.509-3.534-22.331a.283.283,0,0,1,.254-.326l5.317-.486A.257.257,0,0,1,2771.2,1851.779Z" transform="translate(-2650.253 -1756.269)" fill="url(#linear-gradient-27)"/>
        <g id="Grupo_28984" data-name="Grupo 28984" transform="translate(114.057 57.125)">
          <path id="Trazado_60851" data-name="Trazado 60851" d="M2812.716,1584.319c8.876-16.765,31.881-1.535,21.175,12.589C2825.93,1591.615,2816.936,1583.747,2812.716,1584.319Z" transform="translate(-2805.098 -1576.965)" fill="url(#linear-gradient-28)"/>
          <path id="Trazado_60852" data-name="Trazado 60852" d="M2766.084,1616.361c-17.945-.914-3.173,5.74,13.168,9.291C2775.185,1621.333,2771.118,1618.115,2766.084,1616.361Z" transform="translate(-2757.885 -1610.814)" fill="url(#linear-gradient-29)"/>
        </g>
      </g>
      <g id="Grupo_28994" data-name="Grupo 28994" transform="translate(0 87.755)">
        <g id="Grupo_28989" data-name="Grupo 28989" transform="translate(0 25.137)">
          <g id="Grupo_28986" data-name="Grupo 28986" transform="translate(32.353 45.639)" opacity="0.3">
            <path id="Trazado_60853" data-name="Trazado 60853" d="M840.368,975.229a1.535,1.535,0,0,1,1.693,1.161c.407,1.686.747,3.414,1.01,5.137a1.535,1.535,0,0,1-1.286,1.749l-.029,0a1.535,1.535,0,0,1-1.72-1.29c-.25-1.637-.573-3.279-.959-4.88a1.535,1.535,0,0,1,1.132-1.853A1.509,1.509,0,0,1,840.368,975.229Zm1.668,13.269a1.561,1.561,0,0,1,.182-.013A1.535,1.535,0,0,1,843.776,990c.025,1.741-.023,3.5-.145,5.23a1.535,1.535,0,1,1-3.062-.215c.115-1.643.162-3.315.137-4.97A1.535,1.535,0,0,1,842.036,988.5Zm-1.295,13.306a1.536,1.536,0,0,1,1.7,1.842c-.362,1.7-.8,3.405-1.308,5.068a1.535,1.535,0,0,1-2.937-.895c.481-1.579.9-3.2,1.243-4.813A1.535,1.535,0,0,1,840.742,1001.8ZM836.5,1014.49a1.535,1.535,0,0,1,1.593,2.169c-.734,1.577-1.544,3.141-2.408,4.649a1.535,1.535,0,0,1-2.663-1.528c.821-1.432,1.591-2.917,2.288-4.416A1.535,1.535,0,0,1,836.5,1014.49Zm-6.961,11.421a1.535,1.535,0,0,1,1.416,2.461c-1.062,1.371-2.2,2.717-3.377,4a1.535,1.535,0,1,1-2.26-2.078c1.12-1.218,2.2-2.5,3.209-3.8A1.529,1.529,0,0,1,829.543,1025.911Zm-9.313,9.6a1.535,1.535,0,0,1,1.18,2.707c-1.341,1.1-2.747,2.165-4.178,3.152a1.535,1.535,0,0,1-1.743-2.527c1.36-.938,2.695-1.945,3.97-2.995A1.524,1.524,0,0,1,820.229,1035.507Zm-55.274,11.053a1.529,1.529,0,0,1,.647.053c1.578.478,3.2.894,4.817,1.235a1.535,1.535,0,1,1-.634,3c-1.7-.359-3.411-.8-5.073-1.3a1.536,1.536,0,0,1,.243-2.992Zm44.074-3.764a1.535,1.535,0,0,1,.891,2.894c-1.554.779-3.16,1.5-4.774,2.141a1.535,1.535,0,1,1-1.135-2.853c1.533-.609,3.059-1.294,4.534-2.033A1.535,1.535,0,0,1,809.029,1042.8Zm-30.92,6.172a1.562,1.562,0,0,1,.309-.01c1.646.113,3.32.155,4.973.128a1.535,1.535,0,0,1,.051,3.07c-1.74.028-3.5-.016-5.233-.135a1.535,1.535,0,0,1-.1-3.053Zm18.371-1.568a1.535,1.535,0,0,1,.564,3.014c-1.687.411-3.414.754-5.133,1.019l-.032,0a1.535,1.535,0,0,1-.437-3.038c1.633-.253,3.274-.579,4.876-.969C796.372,1047.418,796.426,1047.408,796.48,1047.4Z" transform="translate(-753.629 -975.216)" fill="url(#linear-gradient-30)"/>
            <path id="Trazado_60854" data-name="Trazado 60854" d="M693.038,1459.517a1.525,1.525,0,0,1,.9.157c.7.362,1.427.715,2.149,1.051a1.535,1.535,0,1,1-1.293,2.784c-.76-.353-1.52-.724-2.261-1.105a1.535,1.535,0,0,1,.5-2.887Z" transform="translate(-691.703 -1392.217)" fill="url(#linear-gradient-31)"/>
          </g>
          <g id="Grupo_28987" data-name="Grupo 28987" opacity="0.3">
            <path id="Trazado_60855" data-name="Trazado 60855" d="M477.467,1200.687a1.535,1.535,0,0,1,1.671,1.081c.227.758.474,1.524.734,2.276a1.535,1.535,0,1,1-2.9,1c-.274-.792-.534-1.6-.773-2.4a1.534,1.534,0,0,1,1.27-1.963Z" transform="translate(-473.73 -1123.71)" fill="url(#linear-gradient-32)"/>
            <path id="Trazado_60856" data-name="Trazado 60856" d="M511.875,647.239q1.05-.14,2.113-.245a1.535,1.535,0,0,1,.3,3.055c-1.635.162-3.26.391-4.847.682a1.535,1.535,0,1,1-.554-3.02C509.872,647.531,510.876,647.373,511.875,647.239Zm10.214-.492a1.553,1.553,0,0,1,.261-.012c1.711.063,3.439.2,5.135.405a1.535,1.535,0,1,1-.37,3.047c-1.611-.2-3.252-.325-4.879-.385a1.535,1.535,0,0,1-.148-3.055Zm-21.024,2.97a1.535,1.535,0,0,1,.682,2.98c-1.54.508-3.08,1.088-4.576,1.727a1.535,1.535,0,1,1-1.2-2.824c1.576-.672,3.2-1.284,4.819-1.819A1.559,1.559,0,0,1,501.065,649.718Zm34.045-1.04a1.533,1.533,0,0,1,.594.038c1.655.437,3.31.95,4.921,1.525a1.535,1.535,0,0,1-1.032,2.891c-1.529-.546-3.1-1.033-4.673-1.448a1.535,1.535,0,0,1,.19-3.006Zm-46,6.517a1.535,1.535,0,0,1,.993,2.839c-1.39.834-2.764,1.739-4.084,2.69a1.535,1.535,0,1,1-1.8-2.49c1.389-1,2.836-1.955,4.3-2.833A1.53,1.53,0,0,1,489.108,655.195Zm-10.466,7.969A1.535,1.535,0,0,1,479.9,665.8c-1.177,1.121-2.322,2.305-3.4,3.518a1.535,1.535,0,0,1-2.295-2.04c1.135-1.277,2.339-2.523,3.578-3.7A1.527,1.527,0,0,1,478.642,663.163Zm-8.48,10.061a1.535,1.535,0,0,1,1.477,2.377c-.906,1.352-1.765,2.756-2.553,4.175a1.535,1.535,0,1,1-2.684-1.491c.829-1.493,1.733-2.971,2.687-4.394A1.533,1.533,0,0,1,470.162,673.224Zm-6.084,11.67a1.535,1.535,0,0,1,1.633,2.077c-.589,1.516-1.119,3.074-1.576,4.632a1.535,1.535,0,1,1-2.946-.864c.481-1.641,1.04-3.282,1.659-4.878A1.535,1.535,0,0,1,464.078,684.893ZM460.7,697.619a1.537,1.537,0,0,1,1.722,1.748c-.239,1.6-.413,3.24-.516,4.863a1.535,1.535,0,0,1-3.064-.2c.109-1.708.291-3.431.543-5.12A1.536,1.536,0,0,1,460.7,697.619Zm-.5,13.147.095-.01a1.534,1.534,0,0,1,1.641,1.421c.086,1.194.209,2.4.367,3.583q.086.643.185,1.281a1.535,1.535,0,0,1-1.281,1.753,1.518,1.518,0,0,1-1.753-1.281q-.1-.671-.195-1.347c-.166-1.245-.3-2.513-.386-3.769A1.535,1.535,0,0,1,460.207,710.766Z" transform="translate(-458.842 -646.734)" fill="url(#linear-gradient-33)"/>
            <path id="Trazado_60857" data-name="Trazado 60857" d="M1088.094,694.954a1.528,1.528,0,0,1,.911.16c.737.384,1.48.791,2.208,1.209a1.535,1.535,0,0,1-1.529,2.662c-.692-.4-1.4-.783-2.1-1.148a1.535,1.535,0,0,1,.508-2.883Z" transform="translate(-999.518 -688.243)" fill="url(#linear-gradient-34)"/>
          </g>
          <g id="Grupo_28988" data-name="Grupo 28988" transform="translate(15.084 15.615)">
            <path id="Trazado_60858" data-name="Trazado 60858" d="M641.2,768.141a.717.717,0,0,0-.825-.112l-7.726,4.07a38.047,38.047,0,0,0-11.527-4.359l-3.1-8.156a.718.718,0,0,0-.693-.462l-10.469.33a.718.718,0,0,0-.663.5l-2.583,8.335a38.041,38.041,0,0,0-11.229,5.077l-7.967-3.575a.718.718,0,0,0-.817.163l-7.169,7.636a.718.718,0,0,0-.112.825l4.07,7.726a38.034,38.034,0,0,0-4.359,11.527l-8.156,3.1a.717.717,0,0,0-.462.693l.33,10.469a.717.717,0,0,0,.5.662l8.335,2.583a38.032,38.032,0,0,0,5.077,11.229l-3.575,7.967a.717.717,0,0,0,.164.817l7.636,7.169a.717.717,0,0,0,.825.112l7.726-4.07a38.027,38.027,0,0,0,11.527,4.359l3.1,8.156a.718.718,0,0,0,.693.462l10.469-.33a.717.717,0,0,0,.663-.5l2.583-8.335a38.028,38.028,0,0,0,11.23-5.077l7.967,3.575a.718.718,0,0,0,.817-.164l7.169-7.636a.718.718,0,0,0,.112-.826l-4.07-7.725a38.03,38.03,0,0,0,4.359-11.527l8.156-3.1a.717.717,0,0,0,.462-.693l-.33-10.469a.717.717,0,0,0-.5-.663l-8.335-2.583a38.039,38.039,0,0,0-5.077-11.23L649,776.127a.718.718,0,0,0-.164-.817Z" transform="translate(-567.408 -759.122)" fill="url(#linear-gradient-35)"/>
            <path id="Trazado_60859" data-name="Trazado 60859" d="M832.795,1015.454a10.533,10.533,0,1,1-1.514.316A10.544,10.544,0,0,1,832.795,1015.454Zm2.434,18.443a8.2,8.2,0,0,0,1.172-.245,8.044,8.044,0,1,0-1.172.245Z" transform="translate(-788.048 -979.761)" fill="#fff" opacity="0.56"/>
            <path id="Trazado_60860" data-name="Trazado 60860" d="M734.53,906.307a26.358,26.358,0,0,1,2.651-.218h0q.422-.014.844-.013a26.057,26.057,0,0,1,4.133.332l.056.009.158.027.307.054a.614.614,0,0,1,.5.522.627.627,0,0,1,0,.193.615.615,0,0,1-.715.493,24.688,24.688,0,0,0-25.675,11.7,24.507,24.507,0,0,0-3.432,13.334,25,25,0,0,0,.208,2.53,24.661,24.661,0,0,0,49.087-4.084,24.67,24.67,0,0,0-3.892-12.546.614.614,0,1,1,1.033-.664,25.814,25.814,0,0,1,3.871,10.55,25.894,25.894,0,0,1-24.843,29.312,25.895,25.895,0,0,1-26.473-22.4,26.475,26.475,0,0,1-.218-2.655,25.893,25.893,0,0,1,22.407-26.474Z" transform="translate(-692.004 -885.659)" fill="#fff" opacity="0.56"/>
          </g>
        </g>
        <g id="Grupo_28993" data-name="Grupo 28993" transform="translate(90.465)">
          <g id="Grupo_28990" data-name="Grupo 28990" transform="translate(36.065 23.762)" opacity="0.3">
            <path id="Trazado_60861" data-name="Trazado 60861" d="M1646.157,636.85a.947.947,0,0,1,.991.555c.327.736.636,1.491.918,2.246a.948.948,0,1,1-1.776.664c-.269-.719-.563-1.439-.875-2.141a.949.949,0,0,1,.481-1.251A.965.965,0,0,1,1646.157,636.85Z" transform="translate(-1607.014 -636.842)" fill="url(#linear-gradient-36)"/>
            <path id="Trazado_60862" data-name="Trazado 60862" d="M1411.013,686.577a.948.948,0,0,1,1.046.72,41.123,41.123,0,0,1,.76,4.1q.058.434.107.871a.982.982,0,0,1-.837,1.049.949.949,0,0,1-1.048-.837q-.047-.418-.1-.833a39.443,39.443,0,0,0-.725-3.911.948.948,0,0,1,.7-1.143C1410.95,686.587,1410.982,686.581,1411.013,686.577Zm1.094,9.783a.963.963,0,0,1,.136-.009.949.949,0,0,1,.939.958,41.147,41.147,0,0,1-.362,5.033.948.948,0,0,1-1.879-.252,39.273,39.273,0,0,0,.345-4.8A.948.948,0,0,1,1412.107,696.36Zm-1.312,9.756a.948.948,0,0,1,1.042,1.182,40.88,40.88,0,0,1-1.589,4.793.948.948,0,0,1-1.76-.707,38.883,38.883,0,0,0,1.515-4.571A.95.95,0,0,1,1410.8,706.116Zm-3.67,9.136a.948.948,0,0,1,.954,1.4,41.2,41.2,0,0,1-2.713,4.257.948.948,0,0,1-1.533-1.116,39.129,39.129,0,0,0,2.587-4.06A.946.946,0,0,1,1407.125,715.252Zm-5.79,7.962a.948.948,0,0,1,.818,1.587,41.483,41.483,0,0,1-3.664,3.469.948.948,0,0,1-1.218-1.453,39.5,39.5,0,0,0,3.5-3.31A.946.946,0,0,1,1401.336,723.214Zm-7.546,6.315a.948.948,0,0,1,.64,1.736,40.8,40.8,0,0,1-4.4,2.47.948.948,0,0,1-.824-1.708,38.875,38.875,0,0,0,4.193-2.355A.939.939,0,0,1,1393.79,729.529Zm-8.858,4.277a.948.948,0,0,1,.427,1.838,41.058,41.058,0,0,1-4.872,1.316.949.949,0,0,1-.381-1.858,38.984,38.984,0,0,0,4.647-1.254A.94.94,0,0,1,1384.931,733.806Zm-14.575,2.064a.956.956,0,0,1,.167-.007,39.346,39.346,0,0,0,4.187-.044c.212-.012.419-.027.626-.044a.948.948,0,0,1,.153,1.891c-.221.017-.441.034-.663.046a41.24,41.24,0,0,1-4.385.045.948.948,0,0,1-.085-1.887Z" transform="translate(-1369.534 -679.659)" fill="url(#linear-gradient-37)"/>
          </g>
          <g id="Grupo_28991" data-name="Grupo 28991" opacity="0.3">
            <path id="Trazado_60863" data-name="Trazado 60863" d="M1142.763,466.248a.948.948,0,0,1,.262,1.878,39.225,39.225,0,0,0-4.634.968.948.948,0,1,1-.5-1.829,41.274,41.274,0,0,1,4.858-1.015Zm4.833-.413a.936.936,0,0,1,.1-.008,41.483,41.483,0,0,1,4.961.171.948.948,0,0,1-.179,1.888,39.648,39.648,0,0,0-4.735-.164.948.948,0,0,1-.151-1.887Zm-14.171,2.965a.948.948,0,0,1,.485,1.817,39.334,39.334,0,0,0-4.264,2.061.948.948,0,0,1-.927-1.655,41.146,41.146,0,0,1,4.47-2.159A.951.951,0,0,1,1133.425,468.8Zm23.813-2.044a.954.954,0,0,1,.33.014,40.618,40.618,0,0,1,4.776,1.365.948.948,0,1,1-.631,1.788,38.979,38.979,0,0,0-4.554-1.3.948.948,0,0,1,.079-1.866Zm-32.257,6.778a.948.948,0,0,1,.687,1.7,39.022,39.022,0,0,0-3.642,3.024.948.948,0,1,1-1.3-1.383,41.243,41.243,0,0,1,3.819-3.171A.946.946,0,0,1,1124.981,473.534Zm-7.062,6.621a.948.948,0,0,1,.853,1.548,39.6,39.6,0,0,0-2.815,3.809.948.948,0,1,1-1.59-1.032,41.411,41.411,0,0,1,2.951-3.993A.945.945,0,0,1,1117.919,480.155Zm-5.273,8.123a.938.938,0,0,1,.541.088.948.948,0,0,1,.435,1.268,38.865,38.865,0,0,0-1.819,4.373.948.948,0,0,1-1.792-.62,40.962,40.962,0,0,1,1.907-4.586A.947.947,0,0,1,1112.646,488.278Z" transform="translate(-1109.959 -465.813)" fill="url(#linear-gradient-38)"/>
            <path id="Trazado_60864" data-name="Trazado 60864" d="M1511.161,495.891a.946.946,0,0,1,.548.092c.726.362,1.445.747,2.137,1.144a.948.948,0,1,1-.945,1.645c-.66-.379-1.345-.746-2.039-1.092a.948.948,0,0,1,.3-1.788Z" transform="translate(-1454.709 -491.705)" fill="url(#linear-gradient-39)"/>
          </g>
          <g id="Grupo_28992" data-name="Grupo 28992" transform="translate(7.911 10.396)">
            <path id="Trazado_60865" data-name="Trazado 60865" d="M1216.277,546.673a.48.48,0,0,0-.552-.075l-5.169,2.724a25.454,25.454,0,0,0-7.714-2.917l-2.077-5.458a.48.48,0,0,0-.464-.309l-7.005.221a.481.481,0,0,0-.444.338l-1.729,5.578a25.447,25.447,0,0,0-7.514,3.4l-5.331-2.392a.48.48,0,0,0-.546.109l-4.8,5.11a.48.48,0,0,0-.075.552l2.723,5.17a25.456,25.456,0,0,0-2.917,7.714l-5.458,2.077a.481.481,0,0,0-.309.464l.221,7.005a.479.479,0,0,0,.338.443l5.578,1.729a25.452,25.452,0,0,0,3.4,7.514L1174.042,591a.479.479,0,0,0,.109.546l5.11,4.8a.48.48,0,0,0,.552.075l5.169-2.724a25.438,25.438,0,0,0,7.714,2.917l2.077,5.458a.48.48,0,0,0,.464.309l7.005-.221a.48.48,0,0,0,.444-.338l1.728-5.578a25.451,25.451,0,0,0,7.515-3.4l5.331,2.392a.48.48,0,0,0,.547-.109l4.8-5.11a.48.48,0,0,0,.075-.552l-2.723-5.169a25.457,25.457,0,0,0,2.917-7.714l5.458-2.077a.48.48,0,0,0,.309-.464l-.221-7.005a.481.481,0,0,0-.338-.444l-5.578-1.729a25.454,25.454,0,0,0-3.4-7.514l2.392-5.331a.48.48,0,0,0-.109-.547Z" transform="translate(-1166.9 -540.638)" fill="url(#linear-gradient-40)"/>
            <path id="Trazado_60866" data-name="Trazado 60866" d="M1343.678,711.239a7.188,7.188,0,1,1-1.041.217A7.32,7.32,0,0,1,1343.678,711.239Zm1.626,12.342a5.35,5.35,0,0,0,.759-.158,5.276,5.276,0,0,0-2.9-10.144h0a5.276,5.276,0,0,0,2.146,10.3Z" transform="translate(-1313.742 -687.482)" fill="#fff" opacity="0.56"/>
            <path id="Trazado_60867" data-name="Trazado 60867" d="M1275.349,635.265a18.024,18.024,0,0,1,5.441.1l.161.029a.949.949,0,0,1,.77.806.966.966,0,0,1-.008.3.95.95,0,0,1-1.1.762,16.013,16.013,0,0,0-3.39-.252h0l-.187.007a15.809,15.809,0,0,0-7.492,2.232,16.059,16.059,0,0,0-3.357,2.684l-.025.026-.074.079a15.861,15.861,0,0,0-4.318,11.43,16.225,16.225,0,0,0,.134,1.637,15.965,15.965,0,0,0,31.778-2.644,15.96,15.96,0,0,0-2.52-8.121.948.948,0,1,1,1.6-1.025,17.862,17.862,0,1,1-32.732,12.045,18.244,18.244,0,0,1-.151-1.831A17.886,17.886,0,0,1,1275.349,635.265Z" transform="translate(-1246.946 -621.982)" fill="#fff" opacity="0.56"/>
          </g>
        </g>
      </g>
    </g>
  </g>
</svg>
