<svg xmlns="http://www.w3.org/2000/svg" width="624.577" height="383.223" viewBox="0 0 624.577 383.223">
  <g id="Grupo_29275" data-name="Grupo 29275" transform="translate(-103.855 -524.317)">
    <path id="Trazado_61639" data-name="Trazado 61639" d="M703.237,659.4l-24.323,1.762s-.815-15.084-.407-23.559-2.155-11.173-2.155-11.173h-4.005l-14.6,15.285s5.52,28.893,8.37,31.743c1.67,1.67,40.093-5.514,40.093-5.514Z" transform="translate(-364.719 -75.796)" fill="#bed1f9"/>
    <g id="Grupo_29260" data-name="Grupo 29260" transform="translate(548.498 623.919)">
      <rect id="Rectángulo_5868" data-name="Rectángulo 5868" width="26.402" height="36.001" transform="translate(12.386 0)" fill="#f47458"/>
      <path id="Trazado_61640" data-name="Trazado 61640" d="M1461.814,870.748v190.785a20.373,20.373,0,0,1-20.373,20.374h0a20.374,20.374,0,0,1-20.374-20.374V870.748Z" transform="translate(-1415.833 -847.591)" fill="#4951ec"/>
      <path id="Trazado_61641" data-name="Trazado 61641" d="M1453.344,1081.594a14.329,14.329,0,0,0,14.2-14.423V879.656h-28.4v187.516A14.328,14.328,0,0,0,1453.344,1081.594Z" transform="translate(-1427.736 -853.457)" fill="#92b5f9"/>
      <rect id="Rectángulo_5869" data-name="Rectángulo 5869" width="26.402" height="9.801" transform="translate(12.386 26.199)" fill="#fa7167"/>
      <path id="Trazado_61642" data-name="Trazado 61642" d="M1413.149,868.376h36.4a7.409,7.409,0,0,0,7.409-7.409H1405.74A7.409,7.409,0,0,0,1413.149,868.376Z" transform="translate(-1405.74 -841.151)" fill="#4951ec"/>
      <rect id="Rectángulo_5870" data-name="Rectángulo 5870" width="6.476" height="81.985" transform="translate(22.593 35.977)" fill="#7c9af2"/>
      <path id="Trazado_61643" data-name="Trazado 61643" d="M1439.145,1105.03v110.542a14.2,14.2,0,1,0,28.4,0V1105.03Z" transform="translate(-1427.736 -1001.857)" fill="#fa7167"/>
    </g>
    <g id="Grupo_29261" data-name="Grupo 29261" transform="translate(427.87 622.658)">
      <rect id="Rectángulo_5871" data-name="Rectángulo 5871" width="25.684" height="40.624" transform="translate(13.041 0)" fill="#fa7167"/>
      <path id="Trazado_61644" data-name="Trazado 61644" d="M1108.622,868.7v190.785a20.373,20.373,0,0,1-20.373,20.373h0a20.374,20.374,0,0,1-20.374-20.373V868.7Z" transform="translate(-1062.641 -844.984)" fill="#4951ec"/>
      <path id="Trazado_61645" data-name="Trazado 61645" d="M1100.153,1079.551a14.328,14.328,0,0,0,14.2-14.423V877.612h-28.4v187.515A14.329,14.329,0,0,0,1100.153,1079.551Z" transform="translate(-1074.545 -850.85)" fill="#92b5f9"/>
      <rect id="Rectángulo_5872" data-name="Rectángulo 5872" width="25.684" height="8.014" transform="translate(13.041 26.762)" fill="#f47458"/>
      <path id="Trazado_61646" data-name="Trazado 61646" d="M1114.352,986.668v150.269a14.2,14.2,0,1,1-28.4,0V986.668Z" transform="translate(-1074.545 -922.659)" fill="#dde8fe"/>
      <path id="Trazado_61647" data-name="Trazado 61647" d="M1059.958,866.331h36.4a7.409,7.409,0,0,0,7.409-7.409h-51.216A7.409,7.409,0,0,0,1059.958,866.331Z" transform="translate(-1052.549 -838.543)" fill="#4951ec"/>
    </g>
    <path id="Trazado_61648" data-name="Trazado 61648" d="M1033.942,940.361h175.114a2.663,2.663,0,0,1,2.663,2.663h0a2.663,2.663,0,0,1-2.663,2.663H1033.942a2.663,2.663,0,0,1-2.663-2.663h0A2.663,2.663,0,0,1,1033.942,940.361Z" transform="translate(-610.674 -282.509)" fill="#0b0754"/>
    <rect id="Rectángulo_5873" data-name="Rectángulo 5873" width="6.818" height="214.486" transform="translate(508.178 873.915) rotate(180)" fill="#0b0754"/>
    <path id="Trazado_61649" data-name="Trazado 61649" d="M939.754,1581.736h204.365a14.981,14.981,0,0,0-14.981-14.981h-174.4a14.981,14.981,0,0,0-14.982,14.981Z" transform="translate(-550.408 -681.966)" fill="#0b0754"/>
    <g id="Grupo_29263" data-name="Grupo 29263" transform="translate(208.117 574.83)">
      <path id="Trazado_61650" data-name="Trazado 61650" d="M449.706,953.292c-15.58-46.746,15.906-78.558,48.506-78.365h1.462c-.163-.006,14.476.526,27.961,1.019l1.623-48.753-30.824,1.363c-32.048,1.589-63.341,20.093-80.35,54.243-13.117,26.721-9.246,53.886-4.547,70.494Z" transform="translate(-409.128 -769.822)" fill="#92b5f9"/>
      <rect id="Rectángulo_5874" data-name="Rectángulo 5874" width="39.149" height="37.674" transform="translate(166.859 163.818) rotate(179.763)" fill="#92b5f9"/>
      <rect id="Rectángulo_5875" data-name="Rectángulo 5875" width="34.075" height="13.088" transform="translate(187.328 187.903) rotate(179.763)" fill="#92b5f9"/>
      <path id="Trazado_61651" data-name="Trazado 61651" d="M748.328,732.118A11.321,11.321,0,0,0,759.6,720.751l-.085-20.632,39.256-.162.085,20.632a11.32,11.32,0,0,0,11.367,11.273l.276,66.876a10.559,10.559,0,0,1-10.516,10.6l-40.776.169a10.563,10.563,0,0,1-9.821-6.565C749.092,796.091,748.328,732.118,748.328,732.118Z" transform="translate(-632.478 -686.042)" fill="#92b5f9"/>
      <path id="Trazado_61652" data-name="Trazado 61652" d="M764.362,673.286l36.227-.15a10.918,10.918,0,0,0,10.872-10.963l-.012-2.958-58.062.239.012,2.959A10.918,10.918,0,0,0,764.362,673.286Z" transform="translate(-635.809 -659.215)" fill="#92b5f9"/>
      <path id="Trazado_61653" data-name="Trazado 61653" d="M595.115,1577.75H419.971a11.772,11.772,0,0,1,11.772-11.772h151.6a11.772,11.772,0,0,1,11.772,11.772Z" transform="translate(-416.268 -1256.284)" fill="#92b5f9"/>
      <rect id="Rectángulo_5876" data-name="Rectángulo 5876" width="116.346" height="11.747" transform="matrix(-1, 0.004, -0.004, -1, 210.586, 248.471)" fill="#92b5f9"/>
      <g id="Grupo_29262" data-name="Grupo 29262" transform="translate(88.647 239.563)">
        <rect id="Rectángulo_5877" data-name="Rectángulo 5877" width="80.209" height="14.016" transform="translate(0 54.109) rotate(-42.423)" fill="#92b5f9"/>
      </g>
      <rect id="Rectángulo_5878" data-name="Rectángulo 5878" width="72.828" height="13.033" transform="translate(110.868 223.951)" fill="#92b5f9"/>
    </g>
    <g id="Grupo_29269" data-name="Grupo 29269" transform="translate(303.319 669.365)">
      <path id="Trazado_61654" data-name="Trazado 61654" d="M1438.092,1601.7s2.638,2.6,2.7,3.551.234,11.167-.844,12.12-4.24,1.63-3.223,2.7c.769.811,6.682.637,10.6.419,1.144-.063,2.579-9.276,3.032-10.629.658-1.967,3.029-6.246,2.431-7.617-.292-.668-2.457-2.19-4.422-3.471a18.062,18.062,0,0,1-4.045-4.347Z" transform="translate(-1180.831 -1382.553)" fill="#fb9390"/>
      <path id="Trazado_61655" data-name="Trazado 61655" d="M1318.64,1634.123s2.045,5.83,2.331,6.652a40.678,40.678,0,0,1,.9,4.766c0,3.641-16.274-3.092-12.627-4.705a3.9,3.9,0,0,0,1.475-2.552c.167-1.91-1.371-4.305-1.371-4.305Z" transform="translate(-1096.671 -1408.595)" fill="#fb9390"/>
      <g id="Grupo_29264" data-name="Grupo 29264" transform="translate(191.314 97.742)">
        <path id="Trazado_61656" data-name="Trazado 61656" d="M1256.221,1260.252l-5.892,15.192s-3.844,36.256-1.606,57.96c.936,9.076,21.2,57.665,21.2,57.665l10.066-1.432L1266.51,1332.1l4.962-22,7.021-43.494Z" transform="translate(-1248.024 -1260.252)" fill="#4951ec"/>
        <path id="Trazado_61657" data-name="Trazado 61657" d="M1302.654,1262.57l5.055,16.917,7.688,51.058,26,47.761s-3.91,5.976-8.107,6.916l-36.9-48.272-20-60.431.7-13.426Z" transform="translate(-1266.7 -1261.778)" fill="#4951ec"/>
      </g>
      <path id="Trazado_61658" data-name="Trazado 61658" d="M1225.034,1083.384c-2.234.694-4.751,1.507-6.6,4.072-6.4,8.876-11.392,42.669-11.392,42.669l-17.488,25.5,9.122,6.832,19.724-16.737,8.042-29.595s.658-11.869.658-17.532C1227.1,1091.729,1225.84,1083.134,1225.034,1083.384Z" transform="translate(-1018.209 -1046.046)" fill="#7c9af2"/>
      <path id="Trazado_61659" data-name="Trazado 61659" d="M1446.213,1606.9s-5.554,16.964-7.934,17.8c-.632.222-4.188,1.119-4.76,2.472a.652.652,0,0,0-.036.12,1.411,1.411,0,0,0,1.42,1.649h11.289s1.6-7.612,2.237-10.957c0,0,3.355-8.172,2.982-8.915S1446.213,1606.9,1446.213,1606.9Z" transform="translate(-1178.809 -1390.766)" fill="#0b0754"/>
      <path id="Trazado_61660" data-name="Trazado 61660" d="M1298.485,1659.85l-1.825-5.966s-3.953,1.7-5.91,1.417a58.919,58.919,0,0,1-5.777-1.392c-7.811,2.595-14.21,3.854-13.047,5.941h26.559Z" transform="translate(-1072.359 -1421.702)" fill="#0b0754"/>
      <path id="Trazado_61661" data-name="Trazado 61661" d="M1286.586,1080.26s7.595,1.051,9.594,2.513c2.251,1.646,9.223,9.324,9.223,9.324s-14.51,41.382-13.948,48.745,2.153,18.267,2.153,18.267-28.177,1.771-38.849-2.423c0,0,3.37-16.683,3.37-21.064s1.892-48.166,3.24-50.46,4.062-3.6,9.211-4.716S1286.586,1080.26,1286.586,1080.26Z" transform="translate(-1061.145 -1043.752)" fill="#dde8fe"/>
      <path id="Trazado_61662" data-name="Trazado 61662" d="M1259.385,1080.212l-7.638,58.988-2.39,60.573-16.975-1.355,9.967-73.941s.692-31.376,4.122-38.641c0,0,.734-2.406,4.339-3.815A26.112,26.112,0,0,1,1259.385,1080.212Z" transform="translate(-1046.41 -1043.961)" fill="#92b5f9"/>
      <path id="Trazado_61663" data-name="Trazado 61663" d="M1320.573,1044.969l1.873,11.814s-6.859,15.031-10.957,13.766c-3.438-1.062-1.323-13.972-1.323-13.972s1.874-6.932,1.312-10.4S1320.573,1044.969,1320.573,1044.969Z" transform="translate(-1097.205 -1020.276)" fill="#fb9390"/>
      <path id="Trazado_61664" data-name="Trazado 61664" d="M1314.785,1046.174c-.562-3.469,9.095-1.205,9.095-1.205l.156,1.017a5.638,5.638,0,0,1-1.047,1.708,12.781,12.781,0,0,1-8.444,3.779A18.713,18.713,0,0,0,1314.785,1046.174Z" transform="translate(-1100.512 -1020.276)" fill="#ef7f7f"/>
      <path id="Trazado_61665" data-name="Trazado 61665" d="M1314.725,988.229c.272-.1,2.188,13.957-1.446,17.824s-10.713,5.133-13.253,2.087c-2.809-3.369-2.668-18.474,2.982-22.452S1314.725,988.229,1314.725,988.229Z" transform="translate(-1089.773 -980.873)" fill="#fb9390"/>
      <path id="Trazado_61666" data-name="Trazado 61666" d="M1319.037,976.012c1.982.232,4.677,1.315,7.46,5.872,3.422,5.6.9,11.811-3.088,14.857s-3.913,6.506-3.913,6.506l-.644-1.762a10.069,10.069,0,0,1-.5-4.286,8.305,8.305,0,0,1,.644-2.577c.958-2.034-2.058-3.385-2.9-5.078-.651-1.3-.682-4.284-1.708-6.438l-1.225-1.645s-2.827-2.175-5.592-1.561S1309.788,969.808,1319.037,976.012Z" transform="translate(-1095.417 -974.071)" fill="#fa7167"/>
      <path id="Trazado_61667" data-name="Trazado 61667" d="M1334.541,1020.771c-.029,1.715.76,3.119,1.76,3.135s1.836-1.359,1.865-3.074-.759-3.119-1.76-3.135S1334.569,1019.056,1334.541,1020.771Z" transform="translate(-1113.678 -1002.797)" fill="#fb9390"/>
      <path id="Trazado_61668" data-name="Trazado 61668" d="M1330.55,1080.949a509.076,509.076,0,0,0-8.185,56.572c-2.689,31.046,5.622,66,5.622,66l24.446-3.178s-13.445-58.914-12.957-63.8,3.422-23.712,3.422-23.712l12.131,14.084-4.176,30.334,8.413,1.936,9.725-36.263s-22.111-36.507-28.141-39.359S1330.55,1080.949,1330.55,1080.949Z" transform="translate(-1105.309 -1044.443)" fill="#92b5f9"/>
      <g id="Grupo_29268" data-name="Grupo 29268" transform="translate(0 13.22)">
        <path id="Trazado_61669" data-name="Trazado 61669" d="M1142.876,1271.105l-1.463,16.268,120.1,10.8,1.365-16.277Z" transform="translate(-986.511 -1182.877)" fill="#0b0754"/>
        <rect id="Rectángulo_5879" data-name="Rectángulo 5879" width="29.208" height="16.975" transform="translate(145.872 110.148) rotate(-84.864)" fill="#0b0754"/>
        <circle id="Elipse_1373" data-name="Elipse 1373" cx="63.241" cy="63.241" r="63.241" transform="translate(0 89.437) rotate(-45)" fill="#0b0754"/>
        <path id="Trazado_61670" data-name="Trazado 61670" d="M832.19,1218.759c-43.2-1.012-71.075-45.844-53.476-84.878a60.195,60.195,0,0,1,110.87,2.6C905.313,1176.239,875.424,1219.772,832.19,1218.759Z" transform="translate(-744.164 -1069.161)" fill="#fff"/>
        <g id="Grupo_29265" data-name="Grupo 29265" transform="translate(85.204 55.423)">
          <path id="Trazado_61671" data-name="Trazado 61671" d="M977.2,1177.765a2.713,2.713,0,1,1-2.713-2.713A2.713,2.713,0,0,1,977.2,1177.765Z" transform="translate(-960.017 -1175.052)" fill="#fa7167"/>
          <path id="Trazado_61672" data-name="Trazado 61672" d="M982.417,1283.864a2.713,2.713,0,1,1-2.713-2.713A2.713,2.713,0,0,1,982.417,1283.864Z" transform="translate(-963.45 -1244.914)" fill="#fa7167"/>
          <path id="Trazado_61673" data-name="Trazado 61673" d="M1054.964,1262.78a2.713,2.713,0,1,1-2.713-2.713A2.712,2.712,0,0,1,1054.964,1262.78Z" transform="translate(-1011.219 -1231.031)" fill="#fa7167"/>
          <path id="Trazado_61674" data-name="Trazado 61674" d="M1027.274,1178.32a3.252,3.252,0,1,1-3.252-3.252A3.251,3.251,0,0,1,1027.274,1178.32Z" transform="translate(-992.276 -1175.063)" fill="#fa7167"/>
          <path id="Trazado_61675" data-name="Trazado 61675" d="M1003.025,1183.807a1.858,1.858,0,1,1-1.593-2.09A1.858,1.858,0,0,1,1003.025,1183.807Z" transform="translate(-978.155 -1179.429)" fill="#fa7167"/>
          <path id="Trazado_61676" data-name="Trazado 61676" d="M1055.773,1235.417a1.858,1.858,0,1,1-1.858-1.858A1.858,1.858,0,0,1,1055.773,1235.417Z" transform="translate(-1012.877 -1213.577)" fill="#fa7167"/>
          <path id="Trazado_61677" data-name="Trazado 61677" d="M955.568,1259.9a1.858,1.858,0,1,1-1.858-1.858A1.858,1.858,0,0,1,955.568,1259.9Z" transform="translate(-946.896 -1229.699)" fill="#fa7167"/>
          <path id="Trazado_61678" data-name="Trazado 61678" d="M945.7,1210.988a4.181,4.181,0,1,1-4.181-4.181A4.182,4.182,0,0,1,945.7,1210.988Z" transform="translate(-937.342 -1195.961)" fill="#fa7167"/>
          <circle id="Elipse_1374" data-name="Elipse 1374" cx="4.181" cy="4.181" r="4.181" transform="translate(25.165 36.552)" fill="#fa7167"/>
          <path id="Trazado_61679" data-name="Trazado 61679" d="M1062.459,1203.506a4.181,4.181,0,1,1-4.181-4.181A4.181,4.181,0,0,1,1062.459,1203.506Z" transform="translate(-1014.221 -1191.035)" fill="#fa7167"/>
          <path id="Trazado_61680" data-name="Trazado 61680" d="M988.13,1192.029a8.751,8.751,0,0,1-1.986,1.567,14.894,14.894,0,0,1-3.363,1.45c-.254.072-1,.3-2.212.616a13.165,13.165,0,0,0-6.029-5.679q.034-.33.076-.656c.065-.512.144-1.018.235-1.519a7.852,7.852,0,0,1,1.938-4.069l-1.68-.665a3.936,3.936,0,0,1-.025.8,6.428,6.428,0,0,1-.137.752,8.328,8.328,0,0,1-.492,1.418,10.466,10.466,0,0,1-.719,1.327q-.415.642-.868,1.269-.212.294-.434.582a13.186,13.186,0,0,0-4.35-.414,13.719,13.719,0,0,1,.127-4.525h-1.342a14.006,14.006,0,0,1,.115,4.649,13.015,13.015,0,0,0-3.593,1.111c-1.268-1.991-3.138-4.856-3.5-7.246l-1.638.763c1.606,1.828,2.6,5.136,3.35,7.517a13.157,13.157,0,0,0-4.713,5.837,18.888,18.888,0,0,1-6.873-2.313,6.411,6.411,0,0,1-.859-.653l-.925,2.465a6.366,6.366,0,0,1,1.077.073,19.267,19.267,0,0,1,6.849,2.864,13.166,13.166,0,0,0,.745,7.544,16.53,16.53,0,0,1-4.172,2.455,6.542,6.542,0,0,1-1.674.392l.538,1.23a4.982,4.982,0,0,1,.689-.534,14.8,14.8,0,0,1,5.47-1.846,13.18,13.18,0,0,0,4.357,4.439c-.233,1.3-.655,3.947-2.021,5.272l1.674.679a6.638,6.638,0,0,1,.8-2.9c.288-.575.992-1.651,1.313-2.132a13.156,13.156,0,0,0,7.46.844,14.249,14.249,0,0,1,1.107,3.537,8.557,8.557,0,0,1-.113,3.656l2.585-.5a8.555,8.555,0,0,1-1.468-3.351,14.34,14.34,0,0,1-.286-3.807,13.137,13.137,0,0,0,6.287-4.494,25.827,25.827,0,0,1,5.45,2.406l.831-1.6a25.233,25.233,0,0,1-4.947-2.951,13.05,13.05,0,0,0,1.349-5.645,9.879,9.879,0,0,1,3.361.62l.108-1.338a10.019,10.019,0,0,1-3.477.067,13.063,13.063,0,0,0-.786-4.012c1.031-.63,1.679-1,1.944-1.151a12.3,12.3,0,0,1,5.879-1.774Z" transform="translate(-944.512 -1180.149)" fill="#fa7167"/>
        </g>
        <g id="Grupo_29266" data-name="Grupo 29266" transform="translate(40.117 58.518)">
          <path id="Trazado_61681" data-name="Trazado 61681" d="M840.394,1186.5a2.386,2.386,0,1,1-2.386-2.386A2.386,2.386,0,0,1,840.394,1186.5Z" transform="translate(-825.276 -1184.114)" fill="#4951ec"/>
          <path id="Trazado_61682" data-name="Trazado 61682" d="M844.981,1279.832a2.386,2.386,0,1,1-2.386-2.386A2.386,2.386,0,0,1,844.981,1279.832Z" transform="translate(-828.296 -1245.57)" fill="#4951ec"/>
          <path id="Trazado_61683" data-name="Trazado 61683" d="M908.8,1261.285a2.386,2.386,0,1,1-2.386-2.386A2.386,2.386,0,0,1,908.8,1261.285Z" transform="translate(-870.317 -1233.357)" fill="#4951ec"/>
          <circle id="Elipse_1375" data-name="Elipse 1375" cx="2.861" cy="2.861" r="2.861" transform="translate(25.065 0.005)" fill="#4951ec"/>
          <path id="Trazado_61684" data-name="Trazado 61684" d="M863.108,1191.816a1.635,1.635,0,1,1-1.4-1.839A1.635,1.635,0,0,1,863.108,1191.816Z" transform="translate(-841.231 -1187.965)" fill="#4951ec"/>
          <path id="Trazado_61685" data-name="Trazado 61685" d="M909.509,1237.214a1.635,1.635,0,1,1-1.635-1.635A1.635,1.635,0,0,1,909.509,1237.214Z" transform="translate(-871.775 -1218.002)" fill="#4951ec"/>
          <path id="Trazado_61686" data-name="Trazado 61686" d="M821.362,1258.753a1.635,1.635,0,1,1-1.635-1.635A1.634,1.634,0,0,1,821.362,1258.753Z" transform="translate(-813.734 -1232.184)" fill="#4951ec"/>
          <path id="Trazado_61687" data-name="Trazado 61687" d="M812.686,1215.726a3.678,3.678,0,1,1-3.678-3.678A3.678,3.678,0,0,1,812.686,1215.726Z" transform="translate(-805.33 -1202.507)" fill="#4951ec"/>
          <path id="Trazado_61688" data-name="Trazado 61688" d="M877.5,1281.936a3.678,3.678,0,1,1-3.678-3.678A3.678,3.678,0,0,1,877.5,1281.936Z" transform="translate(-848.007 -1246.104)" fill="#4951ec"/>
          <path id="Trazado_61689" data-name="Trazado 61689" d="M915.391,1209.145a3.678,3.678,0,1,1-3.678-3.678A3.678,3.678,0,0,1,915.391,1209.145Z" transform="translate(-872.957 -1198.174)" fill="#4951ec"/>
          <path id="Trazado_61690" data-name="Trazado 61690" d="M850.006,1199.047a7.693,7.693,0,0,1-1.747,1.378,13.106,13.106,0,0,1-2.958,1.275c-.224.063-.879.262-1.946.542a11.585,11.585,0,0,0-5.3-5q.03-.29.067-.577.086-.676.207-1.336a6.907,6.907,0,0,1,1.7-3.58l-1.478-.585a3.5,3.5,0,0,1-.021.7,5.74,5.74,0,0,1-.121.662,7.313,7.313,0,0,1-.433,1.247,9.181,9.181,0,0,1-.633,1.167q-.366.564-.764,1.116-.187.258-.381.512a11.6,11.6,0,0,0-3.827-.365,12.065,12.065,0,0,1,.113-3.981H831.3a12.318,12.318,0,0,1,.1,4.09,11.447,11.447,0,0,0-3.161.977c-1.115-1.751-2.761-4.271-3.081-6.374l-1.441.672c1.413,1.608,2.291,4.518,2.947,6.612a11.568,11.568,0,0,0-4.145,5.134,16.61,16.61,0,0,1-6.046-2.035,5.672,5.672,0,0,1-.756-.574l-.813,2.168a5.591,5.591,0,0,1,.947.065,16.942,16.942,0,0,1,6.025,2.519,11.583,11.583,0,0,0,.656,6.636,14.537,14.537,0,0,1-3.67,2.16,5.765,5.765,0,0,1-1.472.345l.473,1.082a4.391,4.391,0,0,1,.606-.47,13.016,13.016,0,0,1,4.812-1.623,11.586,11.586,0,0,0,3.833,3.9c-.2,1.145-.576,3.473-1.778,4.637l1.473.6a5.832,5.832,0,0,1,.705-2.55c.253-.505.872-1.452,1.155-1.875a11.573,11.573,0,0,0,6.562.743,12.525,12.525,0,0,1,.974,3.111,7.529,7.529,0,0,1-.1,3.217l2.274-.44a7.529,7.529,0,0,1-1.291-2.948,12.6,12.6,0,0,1-.251-3.348,11.562,11.562,0,0,0,5.53-3.954,22.744,22.744,0,0,1,4.795,2.116l.731-1.411a22.218,22.218,0,0,1-4.352-2.6,11.482,11.482,0,0,0,1.186-4.966,8.714,8.714,0,0,1,2.957.546l.095-1.177a8.822,8.822,0,0,1-3.058.058,11.494,11.494,0,0,0-.691-3.529c.907-.555,1.477-.876,1.71-1.012a10.827,10.827,0,0,1,5.172-1.561Z" transform="translate(-811.637 -1188.597)" fill="#4951ec"/>
        </g>
        <g id="Grupo_29267" data-name="Grupo 29267" transform="translate(66.083 97.472)">
          <path id="Trazado_61691" data-name="Trazado 61691" d="M913.7,1300.242a2.072,2.072,0,1,1-2.072-2.072A2.072,2.072,0,0,1,913.7,1300.242Z" transform="translate(-899.925 -1298.17)" fill="#92b5f9"/>
          <circle id="Elipse_1376" data-name="Elipse 1376" cx="2.072" cy="2.072" r="2.072" transform="translate(10.99 27.68)" fill="#92b5f9"/>
          <path id="Trazado_61692" data-name="Trazado 61692" d="M973.1,1365.182a2.072,2.072,0,1,1-2.072-2.072A2.072,2.072,0,0,1,973.1,1365.182Z" transform="translate(-939.037 -1340.931)" fill="#92b5f9"/>
          <path id="Trazado_61693" data-name="Trazado 61693" d="M951.947,1300.666a2.484,2.484,0,1,1-2.484-2.484A2.484,2.484,0,0,1,951.947,1300.666Z" transform="translate(-924.567 -1298.178)" fill="#92b5f9"/>
          <path id="Trazado_61694" data-name="Trazado 61694" d="M933.423,1304.857a1.419,1.419,0,1,1-1.217-1.6A1.419,1.419,0,0,1,933.423,1304.857Z" transform="translate(-913.78 -1301.513)" fill="#92b5f9"/>
          <path id="Trazado_61695" data-name="Trazado 61695" d="M973.716,1344.28a1.42,1.42,0,1,1-1.42-1.42A1.42,1.42,0,0,1,973.716,1344.28Z" transform="translate(-940.303 -1327.597)" fill="#92b5f9"/>
          <path id="Trazado_61696" data-name="Trazado 61696" d="M897.172,1362.982a1.42,1.42,0,1,1-1.419-1.419A1.419,1.419,0,0,1,897.172,1362.982Z" transform="translate(-889.902 -1339.912)" fill="#92b5f9"/>
          <circle id="Elipse_1377" data-name="Elipse 1377" cx="3.194" cy="3.194" r="3.194" transform="translate(0 13.856) rotate(-76.771)" fill="#92b5f9"/>
          <path id="Trazado_61697" data-name="Trazado 61697" d="M945.92,1383.114a3.194,3.194,0,1,1-3.194-3.194A3.194,3.194,0,0,1,945.92,1383.114Z" transform="translate(-919.664 -1351.999)" fill="#92b5f9"/>
          <path id="Trazado_61698" data-name="Trazado 61698" d="M978.823,1319.9a3.194,3.194,0,1,1-3.194-3.193A3.194,3.194,0,0,1,978.823,1319.9Z" transform="translate(-941.329 -1310.379)" fill="#92b5f9"/>
          <path id="Trazado_61699" data-name="Trazado 61699" d="M922.046,1311.137a6.682,6.682,0,0,1-1.517,1.2,11.382,11.382,0,0,1-2.569,1.108c-.195.055-.764.227-1.69.471a10.061,10.061,0,0,0-4.606-4.338q.026-.251.058-.5.075-.586.179-1.161a6,6,0,0,1,1.48-3.109l-1.283-.508a3,3,0,0,1-.018.609,4.916,4.916,0,0,1-.1.575,6.3,6.3,0,0,1-.376,1.083,7.93,7.93,0,0,1-.549,1.014q-.318.491-.664.969-.162.224-.331.445a10.082,10.082,0,0,0-3.323-.317,10.468,10.468,0,0,1,.1-3.457H905.8a10.692,10.692,0,0,1,.087,3.552,9.952,9.952,0,0,0-2.745.848c-.968-1.52-2.4-3.709-2.676-5.535l-1.251.583c1.226,1.4,1.99,3.924,2.559,5.742a10.051,10.051,0,0,0-3.6,4.458,14.424,14.424,0,0,1-5.25-1.767,4.839,4.839,0,0,1-.656-.5l-.706,1.883a4.912,4.912,0,0,1,.822.056,14.722,14.722,0,0,1,5.232,2.188,10.059,10.059,0,0,0,.569,5.763,12.646,12.646,0,0,1-3.187,1.876,5.032,5.032,0,0,1-1.278.3l.411.939a3.8,3.8,0,0,1,.527-.408,11.307,11.307,0,0,1,4.178-1.41,10.058,10.058,0,0,0,3.328,3.391c-.177.994-.5,3.016-1.544,4.027l1.279.519a5.068,5.068,0,0,1,.612-2.214c.22-.439.757-1.261,1-1.629a10.051,10.051,0,0,0,5.7.645,10.863,10.863,0,0,1,.846,2.7,6.54,6.54,0,0,1-.086,2.793l1.974-.381a6.541,6.541,0,0,1-1.121-2.56,10.962,10.962,0,0,1-.218-2.908,10.035,10.035,0,0,0,4.8-3.433,19.747,19.747,0,0,1,4.163,1.837l.635-1.225a19.283,19.283,0,0,1-3.779-2.254,9.97,9.97,0,0,0,1.03-4.312,7.554,7.554,0,0,1,2.567.474l.082-1.022a7.653,7.653,0,0,1-2.656.051,9.975,9.975,0,0,0-.6-3.065c.788-.481,1.283-.761,1.485-.879a9.4,9.4,0,0,1,4.49-1.355Z" transform="translate(-888.081 -1302.063)" fill="#92b5f9"/>
        </g>
      </g>
      <path id="Trazado_61700" data-name="Trazado 61700" d="M1171.676,1314.177a1.2,1.2,0,0,1,.972.3c-.982-1.122-1.771-2.238-1.24-2.443a14.081,14.081,0,0,1,2.3,1.288c-.479-.521-1.978-1.6-1.347-2.026.38-.258,2.157.948,3.157,1.665-.574-.483-1.182-1.3-.877-1.381,1.449-.4,4.488,4.044,5.519,3.73s.767,1-.481,2.152c-.536.695-2.7.292-3.247.607a2.771,2.771,0,0,1-2.523.2S1170.673,1314.531,1171.676,1314.177Z" transform="translate(-1006.149 -1196.098)" fill="#4951ec"/>
      <path id="Trazado_61701" data-name="Trazado 61701" d="M1388.486,1307.284c.287-.3.645-.668.932-.969s.927-.014,1.358.136c.286.1-1.015,2.183-1.777,3.9a11.245,11.245,0,0,0,9.491,1.182,41.471,41.471,0,0,0,1.86-6.989c.25-2.38.277-3.52.277-3.52.229-.515.937-2.015,1.937-4.121l-6.72-2.619a47.12,47.12,0,0,1-2.5,6.285c-.419.336-.693-.315-4.03,2.219a6.994,6.994,0,0,0-1.663,2.335s-.847,1.978-.462,2.3A1.02,1.02,0,0,0,1388.486,1307.284Z" transform="translate(-1148.281 -1184.917)" fill="#4951ec"/>
      <path id="Trazado_61702" data-name="Trazado 61702" d="M1413.614,1301.021c.229-.515.937-2.015,1.937-4.121l-6.72-2.619c-.615,1.735-1.467,4.084-2.02,5.368a21.746,21.746,0,0,0,6.777,1.924C1413.609,1301.205,1413.614,1301.021,1413.614,1301.021Z" transform="translate(-1161.266 -1184.917)" fill="#fb9390"/>
      <path id="Trazado_61703" data-name="Trazado 61703" d="M1410.987,1207.848l-4.176,30.334,8.413,1.936,9.725-36.263Z" transform="translate(-1161.266 -1125.375)" fill="#92b5f9"/>
    </g>
    <g id="Grupo_29270" data-name="Grupo 29270" transform="translate(606.837 638.838)">
      <path id="Trazado_61704" data-name="Trazado 61704" d="M1597.018,888.332l-17.07-29.616,30.9-12.088,6.346,34.149Z" transform="translate(-1578.787 -846.628)" fill="#fa7167"/>
      <path id="Trazado_61705" data-name="Trazado 61705" d="M1805.88,983.832a11.146,11.146,0,0,0,1.979,2.748c1.906,1.747,4.19,2.18,6.458,3.212,2.431,1.107,3.231,5.586,2.408,8.709-2.084,7.91,4.48,5.5,8.934,9.767,10.73,10.268-6.326,21.346-8.863,22.972s-12.778,3.277-14.465,3.519c-5.089.729-11.707-1.993-15.916-7.854s-.544-10.082-1.209-13.9-6.658-4.8-6.384-12.4c.3-8.23,2.835-15.312,6.52-18.743a14.529,14.529,0,0,1,14.533-3.1,11.8,11.8,0,0,1,4.93,3.492A11.365,11.365,0,0,1,1805.88,983.832Z" transform="translate(-1709.732 -933.11)" fill="#0b0754"/>
      <path id="Trazado_61706" data-name="Trazado 61706" d="M1693.415,1161.5s-5.534-1.861-6.01-2.815-1.956-3.768-3.291-4.293-4.1-1.192-4.579-.334,2.528,1,2.957,1.432l.429.429h0s.954,1.1-.143,1.384a52.5,52.5,0,0,1-6.917,1.049c-1.288,0-2.146-1.384-2.91-1.049s0,2.337,0,2.337a2.694,2.694,0,0,0,.382,2.146,4.51,4.51,0,0,0,.954,2.147c.74.739,10.495.191,11.83.573s6.106,1.669,6.106,1.669Z" transform="translate(-1639.804 -1048.788)" fill="#7c9af2"/>
      <path id="Trazado_61707" data-name="Trazado 61707" d="M1741.759,1111.034s-8.443,17.3-12.64,18.537c-3.505,1.036-24.3-3.775-24.3-3.775l2.017-7.76s14.858,2.544,16.873,1.59,13.479-30.695,13.479-30.695Z" transform="translate(-1661.013 -1006.176)" fill="#7c9af2"/>
      <path id="Trazado_61708" data-name="Trazado 61708" d="M1788.234,1301.026l-5.3,47.926s2.59,10.135,2.278,13.014-5.76,40.65-5.76,40.65l.246,2.075.132,6.146-20.365.155a90.819,90.819,0,0,0,10.3-5.79,4.19,4.19,0,0,0,1.716-3c1.6-11.642-1.569-50.474-1.569-50.474l-2.5-50.547Z" transform="translate(-1696.994 -1145.832)" fill="#fb9390"/>
      <path id="Trazado_61709" data-name="Trazado 61709" d="M1857.933,1326.863c1.142.292,2.9,41.424,3.846,43.247,6,11.557,7.421,46.7,7.421,46.7l2.473,4.92-.567,4.741s-4.475,2.6-7.615.845l.486-4.748.37-6.342-15.128-43.777-8.278-44.652Z" transform="translate(-1750.642 -1162.844)" fill="#fb9390"/>
      <path id="Trazado_61710" data-name="Trazado 61710" d="M1777.281,1612.259h-21.023c-.777-.071-.967-.714-.7-1.111.555-.816,3.008-1.415,5.765-2.714,4.835.515,14.962-2.772,15.725-3.908C1777.49,1606.8,1777.713,1612.162,1777.281,1612.259Z" transform="translate(-1694.346 -1345.675)" fill="#fa7167"/>
      <path id="Trazado_61711" data-name="Trazado 61711" d="M1915.136,1604.577s-1.868,5.367-3.887,5.212-3.785-4.386-3.785-4.386a19.319,19.319,0,0,0-.4,5.522c.353,1.961,3.23,3.974,5.2,3.1S1916.9,1608.6,1915.136,1604.577Z" transform="translate(-1794.117 -1345.709)" fill="#fa7167"/>
      <path id="Trazado_61712" data-name="Trazado 61712" d="M1808.45,1123.445c0,7.8,5.577,17.326,7.738,31.472,1.8,11.758,6.812,34.342,6.812,34.342l-48.062,1.093s6.8-53.384,8.135-59.68c.823-3.878-.366-47.139.318-48.263,1.781-2.926,22.2-4.056,23.533-2.721S1808.45,1115.645,1808.45,1123.445Z" transform="translate(-1707.181 -999.723)" fill="#92b5f9"/>
      <path id="Trazado_61713" data-name="Trazado 61713" d="M1796.916,1092.518l-1.843-3.791s-2.394,13.244-2.394,15.688,3.077,22.084,3.077,22.084l1.567-34.063Z" transform="translate(-1718.863 -1006.041)" fill="#92b5f9"/>
      <path id="Trazado_61714" data-name="Trazado 61714" d="M1819.751,1045.164s.306,7,1.2,9.583-1.871,11.934-7.454,13.3c-5.033,1.231-1.4-7.509-.7-11.233.076-.407-.9-13.378-.9-13.378Z" transform="translate(-1730.842 -976.218)" fill="#fb9390"/>
      <path id="Trazado_61715" data-name="Trazado 61715" d="M1819.916,1094.923c-4.475,1.829-6.916.839-8.178-.319-1.016,3.826-1.829,8.011,1.757,7.135C1816.49,1101.007,1818.673,1097.975,1819.916,1094.923Z" transform="translate(-1730.842 -1009.911)" fill="#fa7167"/>
      <path id="Trazado_61716" data-name="Trazado 61716" d="M1813.324,1047.569c-.437-2.213-.845-4.047-.845-4.047l8.331,1.7s.063,1.432.213,3.24A6.731,6.731,0,0,1,1813.324,1047.569Z" transform="translate(-1731.901 -976.275)" fill="#ef7f7f"/>
      <path id="Trazado_61717" data-name="Trazado 61717" d="M1809,992.144c1.612.36,3.272.912,5.159,4.132s2.827,12.47-4.117,16.417-11.874-2.377-11.664-8.293S1800.342,990.208,1809,992.144Z" transform="translate(-1722.613 -942.256)" fill="#fb9390"/>
      <path id="Trazado_61718" data-name="Trazado 61718" d="M1796.136,1016.519c.5,1.455,1.6,2.4,2.445,2.1s1.127-1.71.625-3.165-1.6-2.4-2.445-2.105S1795.634,1015.063,1796.136,1016.519Z" transform="translate(-1720.975 -956.375)" fill="#fb9390"/>
      <path id="Trazado_61719" data-name="Trazado 61719" d="M1628.492,899.275l60.72,166.132a18.889,18.889,0,0,1-11.256,24.225h0a18.89,18.89,0,0,1-24.226-11.257l-60.72-166.132Z" transform="translate(-1587.389 -881.294)" fill="#4951ec"/>
      <path id="Trazado_61720" data-name="Trazado 61720" d="M1688.221,1093.149A13.284,13.284,0,0,0,1696,1076.07l-59.68-163.286-24.729,9.038,59.68,163.286A13.285,13.285,0,0,0,1688.221,1093.149Z" transform="translate(-1599.62 -890.19)" fill="#92b5f9"/>
      <path id="Trazado_61721" data-name="Trazado 61721" d="M1612.7,921.976l5.885,10.209,20.171-7.555-2.119-11.4Z" transform="translate(-1600.353 -890.481)" fill="#f48c7f"/>
      <path id="Trazado_61722" data-name="Trazado 61722" d="M1722.029,1163.416l-42.822-117.163c-9.4-.075-18.834-.035-28.331-.817l46.424,127.019a13.166,13.166,0,1,0,24.729-9.039Z" transform="translate(-1625.491 -977.536)" fill="#dde8fe"/>
      <path id="Trazado_61723" data-name="Trazado 61723" d="M1584.766,906.49l32.883-12.018a6.237,6.237,0,0,0,3.717-8l-.217-.594-44.6,16.3.217.594A6.236,6.236,0,0,0,1584.766,906.49Z" transform="translate(-1576.551 -872.473)" fill="#4951ec"/>
      <path id="Trazado_61724" data-name="Trazado 61724" d="M1758.288,1209.517s-6.563-.253-7.245-.892a4.229,4.229,0,0,0-2.891-1.107c-1.257-.024-4.866.113-5,.964s2.486.63,2.819.821c.548.313.386,1.18-.428,1.749a12.719,12.719,0,0,1-2.867,1.345,17.532,17.532,0,0,1-5,.619c-2.607-.041-5.02-.321-5.02.536,0,1,7.682,1.323,7.682,1.323s-6.715-.03-6.944.473c-.476,1.047,7.591.927,7.911,1.174,0,0-4.976.6-5.293.777-.131.071-.272.523.048.571a51.788,51.788,0,0,0,6.682.124c.979-.172,8.678-3.036,9.892-3.128s5.935-.279,5.935-.279Z" transform="translate(-1679.344 -1084.259)" fill="#7c9af2"/>
      <path id="Trazado_61725" data-name="Trazado 61725" d="M1799.235,1213.015s-1.492-.058-3.128-.187a13.7,13.7,0,0,1-1.259,5.461c1.841-.094,4.672-.2,4.672-.2Z" transform="translate(-1720.291 -1087.756)" fill="#f79c8d"/>
      <path id="Trazado_61726" data-name="Trazado 61726" d="M1816.25,1218.269l19.245-2.556a30.545,30.545,0,0,1-.678-4.612l-19.871,3.365Z" transform="translate(-1733.525 -1086.62)" fill="#7c9af2"/>
      <path id="Trazado_61727" data-name="Trazado 61727" d="M1836.706,1084.793l-1.671-4.332s1.344,29.676-1.263,32.365-15.564,10.431-15.564,10.431l3.341,1.956,17.846-6.764s1.793-8.964,1.793-9.29S1836.706,1084.793,1836.706,1084.793Z" transform="translate(-1735.673 -1000.598)" fill="#7c9af2"/>
      <path id="Trazado_61728" data-name="Trazado 61728" d="M1833.512,1086.349c3.709,8.9,5.853,37.886,1.315,39.871-3.79,1.657-31.4,7.184-31.4,7.184l-.5-8.562s19.891-7.32,22.02-8.675.012-35.983.012-35.983S1831.5,1081.514,1833.512,1086.349Z" transform="translate(-1725.613 -1000.416)" fill="#bed1f9"/>
      <path id="Trazado_61729" data-name="Trazado 61729" d="M1675.869,1154.53a6.313,6.313,0,0,0-3.178,3.572,1.236,1.236,0,0,0,.937,1.684s2.61-3.085,3.1-4.589C1676.947,1154.541,1676.783,1154.189,1675.869,1154.53Z" transform="translate(-1639.81 -1049.282)" fill="#7c9af2"/>
      <path id="Trazado_61730" data-name="Trazado 61730" d="M1675.146,1166.861c.109-.163,4.1-4.319,3.776-5.3s-4.427,3.015-4.427,3.015Z" transform="translate(-1641.043 -1053.901)" fill="#7c9af2"/>
      <path id="Trazado_61731" data-name="Trazado 61731" d="M1676.88,1172.579l.9-1.738s2.119-1.575,2.581-1.44.489.788-.489,1.766l-.978.978-.788.706.3,1.385Z" transform="translate(-1642.614 -1059.156)" fill="#7c9af2"/>
      <path id="Trazado_61732" data-name="Trazado 61732" d="M1845.656,1024.539c-.565,1.512-.194,3.048.828,3.429s2.309-.534,2.874-2.046.194-3.048-.828-3.43S1846.22,1023.027,1845.656,1024.539Z" transform="translate(-1753.572 -962.371)" fill="#fb9390"/>
    </g>
    <g id="Grupo_29273" data-name="Grupo 29273" transform="translate(103.855 754.636)">
      <path id="Trazado_61733" data-name="Trazado 61733" d="M350.9,1423.42H165.165c-7.094,0-12.845-5.218-12.845-11.654v-6.929c0-6.436,5.751-11.654,12.845-11.654H350.9a20.874,20.874,0,0,0-.341,29.885Z" transform="translate(-135.767 -1322.312)" fill="#92b5f9"/>
      <path id="Trazado_61734" data-name="Trazado 61734" d="M430,1426.634h93.2a20.652,20.652,0,0,1-.005-23.308H430a11.654,11.654,0,0,0,0,23.308Z" transform="translate(-310.936 -1328.99)" fill="#dde8fe"/>
      <g id="Grupo_29271" data-name="Grupo 29271" transform="translate(36.708 36.308)">
        <path id="Trazado_61735" data-name="Trazado 61735" d="M381.392,1293.492c.407-.7-.211-1.508-1.151-1.508H232.325c-11.593,0-20.992,7.756-20.992,17.323h0c0,9.568,9.4,17.323,20.992,17.323H380.282c.944,0,1.564-.814,1.153-1.516h0A30.779,30.779,0,0,1,381.392,1293.492Z" transform="translate(-211.333 -1291.984)" fill="#4951ec"/>
        <path id="Trazado_61736" data-name="Trazado 61736" d="M488.878,1302.9H389.635a13.274,13.274,0,0,0-13.274,13.274v1a13.274,13.274,0,0,0,13.274,13.274h99.454A30.6,30.6,0,0,1,488.878,1302.9Z" transform="translate(-319.998 -1299.172)" fill="#4951ec"/>
      </g>
      <path id="Trazado_61737" data-name="Trazado 61737" d="M488.873,1302.9H389.635a13.274,13.274,0,0,0-13.274,13.274v1a13.274,13.274,0,0,0,13.274,13.274h99.454A30.607,30.607,0,0,1,488.873,1302.9Z" transform="translate(-283.29 -1262.864)" fill="#dde8fe"/>
      <path id="Trazado_61738" data-name="Trazado 61738" d="M277.622,1223.746h95.457c8.465,0,15.327-7.4,15.327-16.528h0c0-9.128-6.862-16.528-15.327-16.528H277.622a26.887,26.887,0,0,1,.681,32.117Z" transform="translate(-218.274 -1188.978)" fill="#dde8fe"/>
      <path id="Trazado_61739" data-name="Trazado 61739" d="M382.253,1203.917h0c0-9.128-6.941-16.528-15.5-16.528h-95.76a.831.831,0,0,1-.8-.864h0a.831.831,0,0,1,.8-.848H422.9c9.45,0,17.11,8.167,17.11,18.241h0c0,10.074-7.66,18.241-17.11,18.241H270.99a.831.831,0,0,1-.8-.849h0a.832.832,0,0,1,.8-.865h95.76C375.312,1220.445,382.253,1213.045,382.253,1203.917Z" transform="translate(-213.378 -1185.676)" fill="#7c9af2"/>
      <g id="Grupo_29272" data-name="Grupo 29272" transform="translate(128.853 53.917)">
        <path id="Trazado_61740" data-name="Trazado 61740" d="M495.32,1343.541H485.1c-2.2,0-3.978.681-3.978,1.522v.136H495.32Z" transform="translate(-481.127 -1343.541)" fill="#fa7167"/>
        <path id="Trazado_61741" data-name="Trazado 61741" d="M511.434,1347.357c0-2.108-2.668-3.816-5.959-3.816h-13.11c2.5,0,4.519,1.3,4.519,2.895l-.061,40.907,7.243-5.261,7.383,5.261Z" transform="translate(-488.527 -1343.541)" fill="#fa7167"/>
      </g>
      <path id="Trazado_61742" data-name="Trazado 61742" d="M395.352,1481.534H119.372a15.518,15.518,0,0,0-15.517,15.517V1510.1a15.518,15.518,0,0,0,15.517,15.517h275.98l-.144-.15A31.6,31.6,0,0,1,395.352,1481.534Z" transform="translate(-103.855 -1380.487)" fill="#fa7167"/>
      <path id="Trazado_61743" data-name="Trazado 61743" d="M628.682,1500.643H481.148a15.518,15.518,0,0,0-15.518,15.517h0a15.518,15.518,0,0,0,15.518,15.517H628.679A31.645,31.645,0,0,1,628.682,1500.643Z" transform="translate(-342.07 -1393.07)" fill="#dde8fe"/>
    </g>
    <g id="Grupo_29274" data-name="Grupo 29274" transform="translate(223.686 524.317)">
      <path id="Trazado_61744" data-name="Trazado 61744" d="M549.434,1145.339s-.457,8.067-.459,8.084c-.168,1.024-.829,3.555-.829,4.486,0,3.5,15.564-2.969,12.075-4.52-.315-.14-1.969-1.2-2.073-2.392-.16-1.834-.566-5.545-.566-5.545Z" transform="translate(-516.235 -928.796)" fill="#fb9390"/>
      <path id="Trazado_61745" data-name="Trazado 61745" d="M559.121,1168.536a56.2,56.2,0,0,1-5.526,1.338c-1.871.267-4.339-1.985-5.662-1.376-1.457.669-1.4,6.7-1.4,6.7s19.6,1.716,25.105-.059C573.821,1174.432,566.591,1171.028,559.121,1168.536Z" transform="translate(-515.172 -943.976)" fill="#0b0754"/>
      <path id="Trazado_61746" data-name="Trazado 61746" d="M476.195,1143.915s-.457,8.068-.459,8.085c-.168,1.024-.829,3.555-.829,4.486,0,3.5,15.564-2.97,12.075-4.52-.316-.14-2.46-1.994-2.564-3.184-.16-1.834-.075-4.753-.075-4.753Z" transform="translate(-468.01 -927.859)" fill="#fb9390"/>
      <path id="Trazado_61747" data-name="Trazado 61747" d="M485.659,1167.113a56.126,56.126,0,0,1-5.525,1.338c-1.871.267-4.339-1.985-5.662-1.377-1.457.67-1.515,6.7-1.515,6.7s19.456.8,25.221-.059C500.445,1173.375,493.129,1169.6,485.659,1167.113Z" transform="translate(-466.725 -943.039)" fill="#0b0754"/>
      <path id="Trazado_61748" data-name="Trazado 61748" d="M480.312,768.848s-2.638,13.609-1.563,23.928,1.16,46.975,1.16,46.975l-4.1,58.649,9.732.226S497.08,840,496.865,841.51s3.869-41.276,3.869-41.276l-13.758-32.676Z" transform="translate(-468.603 -680.042)" fill="#0b0754"/>
      <path id="Trazado_61749" data-name="Trazado 61749" d="M483.113,760.35s-8.131,14.068-5.981,19.443S495.57,837.9,495.785,842.2s5.632,51.822,5.632,51.822l11.317-.34,2.448-52.836-5.127-66.406-4.977-16.79Z" transform="translate(-469.236 -673.518)" fill="#0b0754"/>
      <path id="Trazado_61750" data-name="Trazado 61750" d="M542.659,597.865c-3.912-4.353-12.429-10.693-12.429-10.693s-3.942-3.47-7.142-3.823-9.469-2.247-18.128,10.778c-5.414,8.145-33.459,41.719-33.459,41.719s-7.688,6.6-9.97,15.079c-1.206,4.479-4.233,26.349-6.819,45.975,6.46,1.665,13.127,2.186,19.906,2.592a180.284,180.284,0,0,0,35.615-1.3c-.508-19.763-1.066-41.74-1.109-44.718,1-8.318,8.67-18.587,11.267-21.519C526.195,625.4,546.363,601.986,542.659,597.865Z" transform="translate(-454.713 -558.55)" fill="#7c9af2"/>
      <path id="Trazado_61751" data-name="Trazado 61751" d="M752.972,684.579c-.42-.844-8.753,2.443-9.65,2.751.487-.263,3.9-1.715,4.23-1.871,0,0,4.951-2.647,4.763-3.226-.376-1.155-4.8,1.139-5.785,1.859-2.393.6-2.649.907-4.61,1.305,3.681-2.3,8.739-4.075,8.167-5.239-.644-1.31-7.178,2.362-11.579,3.665a.316.316,0,0,1-.276-.559c1.247-.91,3.984-2.008,3.432-3.118-.456-.915-5.489,1.313-6.272,1.8a30.82,30.82,0,0,0-4.709,3.472c-.175.183-.468.864-.542.94-.589.246-3.643.667-8.356,1.406l-1.026,8.593c8.127-2.671,10.112-3.4,11.052-3.681a28.161,28.161,0,0,0,3.855.648,18.717,18.717,0,0,0,4.967-.82c1.52-.132,9.69-3.081,9.01-4.446-.163-.326-5.827,1.665-6.581,1.63C743.381,689.549,753.571,685.781,752.972,684.579Z" transform="translate(-629.894 -622.309)" fill="#4951ec"/>
      <path id="Trazado_61752" data-name="Trazado 61752" d="M721.785,700.719l-1.026,8.593c6.085-2,8.727-2.909,10.064-3.359a16.213,16.213,0,0,0-1.7-6.4C727.766,699.812,725.216,700.181,721.785,700.719Z" transform="translate(-629.894 -635.265)" fill="#fb9390"/>
      <path id="Trazado_61753" data-name="Trazado 61753" d="M685.292,574.2l-11.372,6.639s-.32,9.679,3.4,12.193c3.12,2.11,5.493-2.953,5.493-2.953s4.229-5.843,7.441-7.663S685.292,574.2,685.292,574.2Z" transform="translate(-599.048 -552.72)" fill="#fb9390"/>
      <path id="Trazado_61754" data-name="Trazado 61754" d="M701.032,578.455a23.71,23.71,0,0,0,2.952,7.344,18.438,18.438,0,0,1,3.916-3.389c1.483-.84.539-2.654-.906-4.364-2.04-2.118-4.054-3.851-4.054-3.851l-2.185,1.276A10.136,10.136,0,0,0,701.032,578.455Z" transform="translate(-616.697 -552.72)" fill="#ef7f7f"/>
      <path id="Trazado_61755" data-name="Trazado 61755" d="M708.214,524.53c-.191-.236-9.539,11.367-8.386,16.81s6.8,10.409,10.731,9.043c4.344-1.511,12.422-15.17,9.525-21.8S708.214,524.53,708.214,524.53Z" transform="translate(-616.047 -519.692)" fill="#fb9390"/>
      <path id="Trazado_61756" data-name="Trazado 61756" d="M715.673,512.282a16.433,16.433,0,0,0-9.895-.276c-1.9-.864-4.9-1.346-9.869,1.246-6.107,3.188-7.216,10.137-5.3,15.03s-.277,7.659-.277,7.659l3.239-1.886a15.36,15.36,0,0,0,2.139-5.292c.247-2.347,3.681-1.931,5.358-3,1.29-.82,2.938-3.483,5.026-4.865,0,0,5.258-.643,7.844.8C718.343,524.172,721.3,514.3,715.673,512.282Z" transform="translate(-609.477 -511.317)" fill="#0b0754"/>
      <path id="Trazado_61757" data-name="Trazado 61757" d="M710.776,552.338c-.906,1.558-2.374,2.394-3.279,1.867s-.905-2.215,0-3.773,2.374-2.394,3.279-1.867S711.681,550.781,710.776,552.338Z" transform="translate(-620.714 -535.74)" fill="#fb9390"/>
      <path id="Trazado_61758" data-name="Trazado 61758" d="M625.481,580.388c-1.549-3.121-8.574-3.362-11.808-.625-10.982,9.293-5.753,55.589,4.229,56.829,9.422,1.169,37.723-8.53,37.723-8.53l-2.575-9.537s-23.5,3.771-25.206,2.064C626.012,618.757,629.5,588.486,625.481,580.388Z" transform="translate(-555.345 -555.138)" fill="#92b5f9"/>
    </g>
  </g>
</svg>
