<svg xmlns="http://www.w3.org/2000/svg" xmlns:xlink="http://www.w3.org/1999/xlink" width="388.008" height="296.617" viewBox="0 0 388.008 296.617">
  <defs>
    <linearGradient id="linear-gradient" x1="16.759" y1="17.813" x2="17.367" y2="17.813" gradientUnits="objectBoundingBox">
      <stop offset="0" stop-color="#f9b776"/>
      <stop offset="1" stop-color="#f47960"/>
    </linearGradient>
    <linearGradient id="linear-gradient-2" x1="0.146" y1="0.702" x2="1.312" y2="0.702" gradientUnits="objectBoundingBox">
      <stop offset="0" stop-color="#b37cff"/>
      <stop offset="1" stop-color="#f895e7"/>
    </linearGradient>
    <linearGradient id="linear-gradient-3" x1="-61.089" y1="-7.832" x2="-59.845" y2="-7.832" xlink:href="#linear-gradient-2"/>
    <linearGradient id="linear-gradient-4" x1="-35.057" y1="-8.9" x2="-34.406" y2="-8.9" xlink:href="#linear-gradient-2"/>
    <linearGradient id="linear-gradient-5" x1="0.333" y1="0.911" x2="1.611" y2="0.911" xlink:href="#linear-gradient-2"/>
    <linearGradient id="linear-gradient-6" x1="-50.411" y1="20.874" x2="-49.212" y2="20.874" xlink:href="#linear-gradient-2"/>
    <linearGradient id="linear-gradient-7" x1="1.27" y1="0.782" x2="0.741" y2="1.783" gradientUnits="objectBoundingBox">
      <stop offset="0" stop-color="#cb236d"/>
      <stop offset="1" stop-color="#4c246d"/>
    </linearGradient>
    <linearGradient id="linear-gradient-8" x1="-42.562" y1="24.522" x2="-41.878" y2="24.522" xlink:href="#linear-gradient-2"/>
    <linearGradient id="linear-gradient-9" x1="1.273" y1="1.976" x2="2.1" y2="1.976" xlink:href="#linear-gradient-2"/>
    <linearGradient id="linear-gradient-10" x1="1.691" y1="1.638" x2="3.028" y2="1.638" xlink:href="#linear-gradient-2"/>
    <linearGradient id="linear-gradient-11" x1="-57.624" y1="19.88" x2="-55.916" y2="19.88" xlink:href="#linear-gradient-2"/>
    <linearGradient id="linear-gradient-12" x1="2.088" y1="0.992" x2="2.318" y2="2.384" xlink:href="#linear-gradient-7"/>
    <linearGradient id="linear-gradient-13" x1="-66.25" y1="0.5" x2="-65.25" y2="0.5" gradientUnits="objectBoundingBox">
      <stop offset="0" stop-color="#2b3582"/>
      <stop offset="1" stop-color="#150e42"/>
    </linearGradient>
    <linearGradient id="linear-gradient-14" x1="-164.32" y1="0.5" x2="-163.32" y2="0.5" xlink:href="#linear-gradient"/>
    <linearGradient id="linear-gradient-15" x1="-39.15" y1="0.5" x2="-38.15" y2="0.5" xlink:href="#linear-gradient-13"/>
    <linearGradient id="linear-gradient-16" x1="-155.075" y1="0.5" x2="-154.074" y2="0.5" xlink:href="#linear-gradient"/>
    <linearGradient id="linear-gradient-17" x1="-23.567" y1="0.5" x2="-22.567" y2="0.5" xlink:href="#linear-gradient-13"/>
    <linearGradient id="linear-gradient-18" x1="0.603" y1="-3.932" x2="0.437" y2="3.056" gradientUnits="objectBoundingBox">
      <stop offset="0" stop-color="#53d8ff"/>
      <stop offset="1" stop-color="#3840f7"/>
    </linearGradient>
    <linearGradient id="linear-gradient-19" x1="-38" y1="-2.067" x2="-36.692" y2="-2.067" xlink:href="#linear-gradient"/>
    <linearGradient id="linear-gradient-20" x1="-10.204" y1="-0.21" x2="-10.348" y2="1.394" xlink:href="#linear-gradient-18"/>
    <linearGradient id="linear-gradient-21" x1="-36.639" y1="-1.615" x2="-38.923" y2="1.548" xlink:href="#linear-gradient"/>
    <linearGradient id="linear-gradient-22" x1="-28.266" y1="-2.795" x2="-30.105" y2="5.663" xlink:href="#linear-gradient"/>
    <linearGradient id="linear-gradient-23" x1="-49.732" y1="-1.142" x2="-52.382" y2="2.815" xlink:href="#linear-gradient"/>
    <linearGradient id="linear-gradient-24" x1="-50.088" y1="2.882" x2="-51.306" y2="4.177" xlink:href="#linear-gradient"/>
    <linearGradient id="linear-gradient-25" x1="-36.555" y1="2.286" x2="-35.511" y2="2.286" xlink:href="#linear-gradient-13"/>
    <linearGradient id="linear-gradient-26" x1="-145.741" y1="10.475" x2="-143.04" y2="7.937" xlink:href="#linear-gradient"/>
    <linearGradient id="linear-gradient-27" x1="0.916" y1="-0.591" x2="-0.415" y2="2.992" gradientUnits="objectBoundingBox">
      <stop offset="0" stop-color="#fdf53f"/>
      <stop offset="1" stop-color="#d93c65"/>
    </linearGradient>
    <linearGradient id="linear-gradient-28" x1="-7.34" y1="-0.346" x2="-6.977" y2="0.297" xlink:href="#linear-gradient-13"/>
    <linearGradient id="linear-gradient-29" x1="-17.508" y1="0.5" x2="-16.508" y2="0.5" gradientUnits="objectBoundingBox">
      <stop offset="0" stop-color="#a737d5"/>
      <stop offset="1" stop-color="#ef497a"/>
    </linearGradient>
    <linearGradient id="linear-gradient-30" x1="-18.547" y1="1.602" x2="-17.512" y2="-1.187" xlink:href="#linear-gradient"/>
    <linearGradient id="linear-gradient-31" x1="-16.181" y1="0.5" x2="-15.181" y2="0.5" xlink:href="#linear-gradient-29"/>
    <linearGradient id="linear-gradient-32" x1="-6.125" y1="1.698" x2="-5.662" y2="-1.193" xlink:href="#linear-gradient"/>
    <linearGradient id="linear-gradient-33" x1="1.368" y1="-1.368" x2="-0.884" y2="3.031" xlink:href="#linear-gradient-18"/>
    <linearGradient id="linear-gradient-34" x1="1.822" y1="-1.633" x2="-0.086" y2="1.62" xlink:href="#linear-gradient-18"/>
    <linearGradient id="linear-gradient-35" x1="-24.87" y1="1.857" x2="-24.615" y2="0.807" xlink:href="#linear-gradient"/>
    <linearGradient id="linear-gradient-36" x1="-16.802" y1="1.328" x2="-15.341" y2="-1.033" xlink:href="#linear-gradient"/>
    <linearGradient id="linear-gradient-37" x1="-15.547" y1="-0.334" x2="-14.846" y2="0.994" xlink:href="#linear-gradient-13"/>
    <linearGradient id="linear-gradient-38" x1="-59.828" y1="3.259" x2="-54.512" y2="-4.349" xlink:href="#linear-gradient"/>
    <linearGradient id="linear-gradient-39" x1="3.318" y1="2.967" x2="2.218" y2="3.381" xlink:href="#linear-gradient"/>
  </defs>
  <g id="Grupo_31187" data-name="Grupo 31187" transform="translate(-977.992 -5969.207)">
    <g id="Grupo_28970" data-name="Grupo 28970" transform="translate(977.992 5969.207)" opacity="0.29">
      <path id="Rect치ngulo_5726" data-name="Rect치ngulo 5726" d="M15,0H373.008a15,15,0,0,1,15,15V280.782a15,15,0,0,1-15,15H15a15,15,0,0,1-15-15V15A15,15,0,0,1,15,0Z" transform="translate(0)" fill="#404589"/>
    </g>
    <g id="Grupo_29009" data-name="Grupo 29009" transform="translate(1034.084 5988.806)">
      <path id="Trazado_60869" data-name="Trazado 60869" d="M1027.4,1460.492s28.586,24.25,40.093-11.428a4.082,4.082,0,0,0-.246-2.052,19.672,19.672,0,0,1-.19-3.943.615.615,0,0,0-.67-.622h0a.841.841,0,0,0-.672.446l-2.445,4.644a1.73,1.73,0,0,0,1.272,1.855h0a.853.853,0,0,1,.543,1.211c-10.088,19.831-35.787,4.8-36.152,5.1C1027.636,1456.763,1026.132,1457.948,1027.4,1460.492Z" transform="translate(-969.204 -1352.835)" fill="url(#linear-gradient)"/>
      <g id="Grupo_29004" data-name="Grupo 29004" transform="translate(20.372 0)">
        <g id="Grupo_28999" data-name="Grupo 28999" transform="translate(64.966 12.025)">
          <g id="Grupo_28996" data-name="Grupo 28996" transform="translate(66.153)" opacity="0.3">
            <path id="Trazado_60870" data-name="Trazado 60870" d="M1927,703.285a2.275,2.275,0,0,1,1.676-2.54c2.487-.648,5.04-1.2,7.586-1.633a2.275,2.275,0,0,1,2.626,1.859c0,.015,0,.029.007.044a2.274,2.274,0,0,1-1.865,2.583c-2.419.414-4.844.936-7.206,1.551a2.274,2.274,0,0,1-2.775-1.629A2.1,2.1,0,0,1,1927,703.285Zm19.619-2.824a2.162,2.162,0,0,1-.025-.269,2.275,2.275,0,0,1,2.2-2.349c2.58-.084,5.188-.058,7.754.076a2.275,2.275,0,1,1-.238,4.544c-2.438-.128-4.917-.152-7.368-.072A2.275,2.275,0,0,1,1946.622,700.461Zm19.752,1.566a2.276,2.276,0,0,1,2.684-2.574c2.528.491,5.067,1.1,7.545,1.8a2.275,2.275,0,1,1-1.248,4.376c-2.354-.671-4.763-1.248-7.165-1.714A2.277,2.277,0,0,1,1966.374,702.027Zm18.91,5.945a2.276,2.276,0,0,1,3.173-2.418c2.356,1.045,4.7,2.2,6.952,3.446a2.275,2.275,0,1,1-2.193,3.987c-2.144-1.179-4.365-2.281-6.6-3.273A2.274,2.274,0,0,1,1985.284,707.972Zm17.11,10.012a2.275,2.275,0,0,1,3.61-2.164c2.06,1.538,4.084,3.186,6.014,4.9a2.275,2.275,0,1,1-3.02,3.4c-1.833-1.628-3.757-3.194-5.715-4.656A2.266,2.266,0,0,1,2002.394,717.984Zm14.468,13.547a2.275,2.275,0,0,1,3.979-1.82c1.672,1.959,3.281,4.014,4.782,6.108a2.275,2.275,0,0,1-3.7,2.65c-1.426-1.99-2.954-3.942-4.543-5.8A2.265,2.265,0,0,1,2016.862,731.531Zm17.844,81.619a2.265,2.265,0,0,1,.061-.96c.667-2.352,1.24-4.764,1.7-7.171a2.275,2.275,0,0,1,4.469.859c-.487,2.534-1.09,5.075-1.792,7.552a2.276,2.276,0,0,1-4.44-.281Zm-6.746-65.213a2.276,2.276,0,0,1,4.266-1.4c1.195,2.281,2.305,4.643,3.3,7.018a2.275,2.275,0,1,1-4.2,1.757c-.944-2.256-2-4.5-3.133-6.664A2.288,2.288,0,0,1,2027.96,747.937Zm9.965,45.656a2.286,2.286,0,0,1-.023-.457c.123-2.443.142-4.924.057-7.373a2.275,2.275,0,0,1,4.548-.157c.088,2.577.068,5.187-.061,7.758a2.275,2.275,0,0,1-4.521.229Zm-2.809-27.183a2.275,2.275,0,0,1,4.451-.916c.653,2.489,1.207,5.039,1.646,7.58,0,.016.006.032.008.048a2.275,2.275,0,0,1-4.491.728c-.418-2.414-.945-4.836-1.565-7.2C2035.145,766.57,2035.128,766.49,2035.116,766.41Z" transform="translate(-1926.977 -697.795)" fill="url(#linear-gradient-2)"/>
            <path id="Trazado_60871" data-name="Trazado 60871" d="M2905.751,1897.291a2.261,2.261,0,0,1,.208-1.343c.519-1.053,1.023-2.133,1.5-3.213a2.275,2.275,0,0,1,4.161,1.842c-.5,1.135-1.033,2.272-1.578,3.379a2.275,2.275,0,0,1-4.292-.666Z" transform="translate(-2803.751 -1767.023)" fill="url(#linear-gradient-3)"/>
          </g>
          <g id="Grupo_28997" data-name="Grupo 28997" transform="translate(0 45.907)" opacity="0.3">
            <path id="Trazado_60872" data-name="Trazado 60872" d="M2401.875,2350.643a2.276,2.276,0,0,1,1.558-2.505c1.117-.357,2.246-.743,3.354-1.148a2.275,2.275,0,0,1,1.563,4.273c-1.167.427-2.355.834-3.532,1.21a2.275,2.275,0,0,1-2.859-1.475A2.3,2.3,0,0,1,2401.875,2350.643Z" transform="translate(-2286.219 -2220.945)" fill="url(#linear-gradient-4)"/>
            <path id="Trazado_60873" data-name="Trazado 60873" d="M1293.064,1321.229q-.235-1.553-.419-3.125a2.276,2.276,0,0,1,4.52-.53c.284,2.419.665,4.82,1.138,7.165a2.275,2.275,0,1,1-4.46.9C1293.55,1324.19,1293.288,1322.705,1293.064,1321.229Zm-1-15.122a2.276,2.276,0,0,1-.025-.387c.048-2.538.2-5.1.464-7.621a2.275,2.275,0,1,1,4.526.468c-.247,2.392-.4,4.828-.441,7.24a2.275,2.275,0,0,1-4.523.3Zm4.958,31.077a2.275,2.275,0,0,1,4.4-1.089c.793,2.269,1.695,4.535,2.681,6.735a2.275,2.275,0,0,1-4.153,1.86c-1.038-2.317-1.987-4.7-2.823-7.093A2.329,2.329,0,0,1,1297.023,1337.183Zm-2.443-50.424a2.273,2.273,0,0,1,.041-.882c.6-2.463,1.32-4.93,2.129-7.332a2.275,2.275,0,0,1,4.312,1.452c-.768,2.281-1.449,4.624-2.022,6.963a2.276,2.276,0,0,1-4.46-.2Zm10.876,68a2.276,2.276,0,0,1,4.18-1.547c1.272,2.038,2.65,4.049,4.095,5.98a2.275,2.275,0,0,1-3.643,2.727c-1.521-2.033-2.972-4.151-4.312-6.3A2.269,2.269,0,0,1,1305.456,1354.757Zm12.086,15.3a2.275,2.275,0,0,1,3.868-1.94c1.693,1.715,3.478,3.379,5.3,4.945a2.275,2.275,0,1,1-2.962,3.455c-1.922-1.649-3.8-3.4-5.581-5.205A2.263,2.263,0,0,1,1317.542,1370.056Zm15.133,12.3a2.275,2.275,0,0,1,3.483-2.252c2.027,1.307,4.131,2.543,6.254,3.673a2.275,2.275,0,0,1-2.138,4.017c-2.234-1.189-4.449-2.49-6.582-3.866A2.27,2.27,0,0,1,1332.675,1382.356Zm17.455,8.707a2.275,2.275,0,0,1,3.034-2.474c2.263.832,4.586,1.576,6.906,2.212a2.275,2.275,0,1,1-1.2,4.388c-2.444-.67-4.891-1.454-7.273-2.33A2.274,2.274,0,0,1,1350.13,1391.062Zm18.947,4.664a2.278,2.278,0,0,1,2.545-2.6c2.385.311,4.813.525,7.221.635a2.275,2.275,0,0,1-.208,4.546c-2.534-.116-5.092-.341-7.6-.669A2.278,2.278,0,0,1,1369.078,1395.726Zm19.5.387c-.007-.046-.012-.093-.017-.14a2.275,2.275,0,0,1,2.063-2.469c1.767-.158,3.549-.373,5.3-.638q.95-.144,1.893-.308a2.275,2.275,0,0,1,2.631,1.852,2.25,2.25,0,0,1-1.851,2.631q-.992.172-1.991.324c-1.841.28-3.717.5-5.575.671A2.275,2.275,0,0,1,1388.574,1396.113Z" transform="translate(-1292.039 -1262.557)" fill="url(#linear-gradient-5)"/>
            <path id="Trazado_60874" data-name="Trazado 60874" d="M1380.889,1144.249a2.27,2.27,0,0,1,.213-1.353c.549-1.1,1.132-2.214,1.733-3.3a2.275,2.275,0,0,1,3.986,2.2c-.57,1.036-1.124,2.092-1.646,3.138a2.275,2.275,0,0,1-4.286-.676Z" transform="translate(-1371.609 -1138.413)" fill="url(#linear-gradient-6)"/>
          </g>
          <g id="Grupo_28998" data-name="Grupo 28998" transform="translate(23.099 22.368)">
            <path id="Trazado_60875" data-name="Trazado 60875" d="M1526.473,940.942a1.063,1.063,0,0,0-.144,1.226l6.236,11.341a56.392,56.392,0,0,0-6.154,17.2l-12,4.815a1.063,1.063,0,0,0-.666,1.04l.766,15.5a1.064,1.064,0,0,0,.765.969l12.421,3.607a56.369,56.369,0,0,0,7.821,16.507l-5.087,11.9a1.064,1.064,0,0,0,.264,1.206l11.506,10.422a1.062,1.062,0,0,0,1.226.143l11.341-6.236a56.389,56.389,0,0,0,17.2,6.154l4.815,12a1.063,1.063,0,0,0,1.039.666l15.505-.767a1.063,1.063,0,0,0,.969-.766l3.607-12.42a56.382,56.382,0,0,0,16.507-7.821l11.9,5.087a1.064,1.064,0,0,0,1.206-.264l10.422-11.506a1.063,1.063,0,0,0,.144-1.226l-6.236-11.341a56.369,56.369,0,0,0,6.154-17.2l12-4.815a1.064,1.064,0,0,0,.667-1.039l-.767-15.505a1.063,1.063,0,0,0-.766-.969l-12.42-3.607a56.367,56.367,0,0,0-7.821-16.507l5.087-11.9a1.063,1.063,0,0,0-.264-1.206l-11.506-10.422a1.064,1.064,0,0,0-1.226-.144l-11.341,6.236a56.375,56.375,0,0,0-17.2-6.154l-4.815-12a1.064,1.064,0,0,0-1.04-.666l-15.5.767a1.064,1.064,0,0,0-.969.765l-3.607,12.421a56.382,56.382,0,0,0-16.507,7.82l-11.9-5.087a1.064,1.064,0,0,0-1.206.264Z" transform="translate(-1513.74 -912.484)" fill="url(#linear-gradient-7)"/>
            <path id="Trazado_60876" data-name="Trazado 60876" d="M2021.236,1437.74a15.613,15.613,0,1,1,.509,2.235A15.788,15.788,0,0,1,2021.236,1437.74Zm27.266-4.094a12.2,12.2,0,0,0-.394-1.731,11.925,11.925,0,1,0,.394,1.731Z" transform="translate(-1968.204 -1366.95)" fill="#fff" opacity="0.56"/>
            <path id="Trazado_60877" data-name="Trazado 60877" d="M1805.528,1247.432a39.111,39.111,0,0,1-.393-3.923h0q-.031-.625-.042-1.25a38.65,38.65,0,0,1,.382-6.133c0-.028.008-.055.012-.083.012-.078.023-.156.036-.235q.034-.228.072-.456a.912.912,0,0,1,.761-.753.93.93,0,0,1,.285,0,.91.91,0,0,1,.75,1.046,36.592,36.592,0,0,0,18.022,37.738,36.32,36.32,0,0,0,19.85,4.732,36.932,36.932,0,0,0,3.743-.375,36.551,36.551,0,0,0-7.353-72.634,36.569,36.569,0,0,0-18.489,6.1.91.91,0,1,1-1.011-1.513,38.373,38.373,0,1,1,27.13,69.847,39.314,39.314,0,0,1-3.929.394,38.378,38.378,0,0,1-39.825-32.5Z" transform="translate(-1774.732 -1172.95)" fill="#fff" opacity="0.56"/>
          </g>
        </g>
        <g id="Grupo_29003" data-name="Grupo 29003">
          <g id="Grupo_29000" data-name="Grupo 29000" transform="translate(17.824)" opacity="0.3">
            <path id="Trazado_60878" data-name="Trazado 60878" d="M839.727,720.555a1.378,1.378,0,0,1,.267-1.63c.843-.812,1.722-1.609,2.613-2.369a1.378,1.378,0,1,1,1.789,2.1c-.849.725-1.687,1.484-2.491,2.259a1.379,1.379,0,0,1-1.949-.037A1.4,1.4,0,0,1,839.727,720.555Z" transform="translate(-839.571 -702.28)" fill="url(#linear-gradient-8)"/>
            <path id="Trazado_60879" data-name="Trazado 60879" d="M919.213,594.029a1.378,1.378,0,0,1,.464-1.787,59.832,59.832,0,0,1,5.226-3.075q.564-.294,1.138-.578a1.427,1.427,0,0,1,1.848.623,1.379,1.379,0,0,1-.623,1.847q-.548.271-1.088.552a57.221,57.221,0,0,0-4.985,2.932,1.379,1.379,0,0,1-1.91-.392C919.259,594.111,919.234,594.071,919.213,594.029Zm12.826-6.351a1.428,1.428,0,0,1-.079-.181,1.379,1.379,0,0,1,.844-1.758,59.765,59.765,0,0,1,7.058-2,1.378,1.378,0,0,1,.588,2.693,57.147,57.147,0,0,0-6.732,1.911A1.378,1.378,0,0,1,932.039,587.679Zm13.983-3.051a1.378,1.378,0,0,1,1.1-2.01,59.506,59.506,0,0,1,7.339-.208,1.379,1.379,0,0,1-.093,2.755,56.6,56.6,0,0,0-7,.2A1.38,1.38,0,0,1,946.021,584.628Zm14.306.48a1.378,1.378,0,0,1,1.439-2,59.771,59.771,0,0,1,7.164,1.594,1.379,1.379,0,0,1-.765,2.649,56.87,56.87,0,0,0-6.831-1.52A1.376,1.376,0,0,1,960.327,585.108Zm13.754,3.959a1.379,1.379,0,0,1,1.762-1.906,60.311,60.311,0,0,1,6.559,3.284,1.378,1.378,0,0,1-1.382,2.385,57.43,57.43,0,0,0-6.258-3.133A1.375,1.375,0,0,1,974.081,589.068Zm12.375,7.177a1.379,1.379,0,0,1,2.055-1.737,59.327,59.327,0,0,1,5.558,4.784,1.379,1.379,0,0,1-1.924,1.974,56.569,56.569,0,0,0-5.3-4.561A1.37,1.37,0,0,1,986.455,596.244Zm10.242,9.982a1.378,1.378,0,0,1,2.3-1.5,59.764,59.764,0,0,1,4.217,6,1.379,1.379,0,0,1-2.35,1.444,56.621,56.621,0,0,0-4.021-5.727A1.372,1.372,0,0,1,996.7,606.226Zm10.055,18.892a1.36,1.36,0,0,1-.093-.225,57.186,57.186,0,0,0-2.139-5.7c-.122-.283-.245-.56-.371-.834a1.379,1.379,0,0,1,2.508-1.147c.133.293.265.587.393.883a59.96,59.96,0,0,1,2.238,5.969,1.378,1.378,0,0,1-2.536,1.053Z" transform="translate(-910.776 -582.377)" fill="url(#linear-gradient-9)"/>
          </g>
          <g id="Grupo_29001" data-name="Grupo 29001" transform="translate(0 48.202)" opacity="0.3">
            <path id="Trazado_60880" data-name="Trazado 60880" d="M675.633,1175.031a1.378,1.378,0,0,1,2.436-1.291,56.975,56.975,0,0,0,3.623,5.852,1.379,1.379,0,0,1-2.252,1.591,60.033,60.033,0,0,1-3.8-6.135Zm-2.964-6.4a1.361,1.361,0,0,1-.062-.136,60.293,60.293,0,0,1-2.229-6.865,1.379,1.379,0,0,1,2.669-.693,57.641,57.641,0,0,0,2.126,6.551,1.378,1.378,0,0,1-2.5,1.143Zm11.087,17.892A1.378,1.378,0,0,1,686,1184.96a57.233,57.233,0,0,0,4.933,4.8,1.379,1.379,0,0,1-1.8,2.088,59.881,59.881,0,0,1-5.17-5.037A1.39,1.39,0,0,1,683.756,1186.525ZM669.142,1155a1.387,1.387,0,0,1-.145-.457,59.111,59.111,0,0,1-.505-7.2,1.378,1.378,0,1,1,2.757-.025,56.6,56.6,0,0,0,.482,6.869,1.378,1.378,0,0,1-2.589.817Zm25.273,40.714a1.379,1.379,0,0,1,1.988-1.785,56.728,56.728,0,0,0,5.941,3.476,1.379,1.379,0,0,1-1.246,2.46,59.951,59.951,0,0,1-6.229-3.645A1.375,1.375,0,0,1,694.416,1195.713Zm12.553,6.363a1.378,1.378,0,0,1,1.692-1.934,57.641,57.641,0,0,0,6.6,1.957,1.378,1.378,0,1,1-.621,2.685,60.273,60.273,0,0,1-6.921-2.05A1.373,1.373,0,0,1,706.969,1202.077Zm13.717,3.173a1.379,1.379,0,0,1,1.37-2.008,56.325,56.325,0,0,0,6.878.315,1.379,1.379,0,0,1,.042,2.757,59.607,59.607,0,0,1-7.214-.329A1.378,1.378,0,0,1,720.686,1205.25Z" transform="translate(-668.492 -1135.431)" fill="url(#linear-gradient-10)"/>
            <path id="Trazado_60881" data-name="Trazado 60881" d="M672.225,1050.443a1.373,1.373,0,0,1-.147-.793c.134-1.172.3-2.345.5-3.488a1.379,1.379,0,0,1,2.716.475c-.191,1.09-.352,2.209-.48,3.328a1.378,1.378,0,0,1-2.592.479Z" transform="translate(-671.697 -1045.02)" fill="url(#linear-gradient-11)"/>
          </g>
          <g id="Grupo_29002" data-name="Grupo 29002" transform="translate(16.479 15.88)">
            <path id="Trazado_60882" data-name="Trazado 60882" d="M827.027,765.319a.7.7,0,0,0,.172.792l6.287,5.712a37.008,37.008,0,0,0-.157,11.988l-6.427,5.547a.7.7,0,0,0-.192.787l3.779,9.463a.7.7,0,0,0,.682.438l8.48-.407a36.995,36.995,0,0,0,8.372,8.582l-.623,8.472a.7.7,0,0,0,.421.693l9.363,4.019a.7.7,0,0,0,.792-.172l5.712-6.287a37.008,37.008,0,0,0,11.988.157l5.547,6.427a.7.7,0,0,0,.787.192l9.463-3.779a.7.7,0,0,0,.438-.682l-.406-8.48a37,37,0,0,0,8.582-8.372l8.473.623a.7.7,0,0,0,.692-.421l4.019-9.364a.7.7,0,0,0-.172-.792l-6.288-5.712a36.991,36.991,0,0,0,.157-11.988l6.427-5.547a.7.7,0,0,0,.192-.787l-3.779-9.463a.7.7,0,0,0-.682-.438l-8.48.407a37.006,37.006,0,0,0-8.372-8.582l.623-8.472a.7.7,0,0,0-.421-.693l-9.363-4.019a.7.7,0,0,0-.792.172l-5.712,6.287a37.014,37.014,0,0,0-11.988-.157l-5.547-6.427a.7.7,0,0,0-.787-.192l-9.463,3.779a.7.7,0,0,0-.439.682l.407,8.48a37.01,37.01,0,0,0-8.582,8.372l-8.472-.623a.7.7,0,0,0-.693.421Z" transform="translate(-826.661 -734.795)" fill="url(#linear-gradient-12)"/>
            <path id="Trazado_60883" data-name="Trazado 60883" d="M1145.14,1067.384a10.449,10.449,0,1,1,.813,1.314A10.641,10.641,0,0,1,1145.14,1067.384Zm16.057-8.349a7.67,7.67,0,0,0-11.3-2.665,7.67,7.67,0,0,0-1.708,10.711h0a7.67,7.67,0,0,0,13.012-8.046Z" transform="translate(-1110.907 -1019.092)" fill="#fff" opacity="0.56"/>
            <path id="Trazado_60884" data-name="Trazado 60884" d="M1002.656,941.506q-.605-1.16-1.1-2.4a26.114,26.114,0,0,1-1.456-5.087l-.04-.234a1.378,1.378,0,1,1,2.718-.46,23.279,23.279,0,0,0,1.339,4.757h0c.034.084.068.168.1.252a22.979,22.979,0,0,0,6.77,9.13,23.345,23.345,0,0,0,5.335,3.255l.047.021.145.063a23.058,23.058,0,0,0,17.762.226,23.512,23.512,0,0,0,2.171-1,23.211,23.211,0,1,0-29.234-34.637,1.378,1.378,0,1,1-2.193-1.671,25.968,25.968,0,1,1,32.706,38.75,26.623,26.623,0,0,1-2.427,1.115A26,26,0,0,1,1002.656,941.506Z" transform="translate(-981.975 -885.92)" fill="#fff" opacity="0.56"/>
          </g>
        </g>
      </g>
      <g id="Grupo_29006" data-name="Grupo 29006" transform="translate(197.92 123.438)">
        <path id="Trazado_60885" data-name="Trazado 60885" d="M3098.4,3162.478s1.09,1.718,1.364,6.528a.783.783,0,0,1-.778.83h-8.523a.5.5,0,0,1-.479-.662,13.633,13.633,0,0,1,5.379-7.141Z" transform="translate(-3015.216 -3016.701)" fill="url(#linear-gradient-13)"/>
        <path id="Trazado_60886" data-name="Trazado 60886" d="M3140.34,3131.177l-.482,4.042a.759.759,0,0,1-.664.668,6.716,6.716,0,0,1-1.8-.017,1.248,1.248,0,0,1-1.03-1.238v-3.9Z" transform="translate(-3056.788 -2988.659)" fill="url(#linear-gradient-14)"/>
        <path id="Trazado_60887" data-name="Trazado 60887" d="M2849.995,3162.033a11.9,11.9,0,0,1,1.6,6.016,1.5,1.5,0,0,1-1.514,1.473h-13.239a.634.634,0,0,1-.364-1.153c2.5-1.758,7.429-5.045,10.989-6.336Z" transform="translate(-2787.901 -3016.701)" fill="url(#linear-gradient-15)"/>
        <path id="Trazado_60888" data-name="Trazado 60888" d="M2947.646,3103.459l-1.028,4.993a1.028,1.028,0,0,1-1.217.81,3.722,3.722,0,0,1-1.165-.487,1.182,1.182,0,0,1-.528-1.207l1.064-6.048Z" transform="translate(-2884.191 -2962.492)" fill="url(#linear-gradient-16)"/>
        <path id="Trazado_60889" data-name="Trazado 60889" d="M2962.034,2453.909s3.575,3.152,4.249,6.945-1.907,65.433-1.907,65.433-3.576.594-5.418-.522c0,0-2.186-40-3.848-49.249,0,0-8.713,41.439-11.127,48.926,0,0-3.445.419-4.556-.236,0,0,2.283-53.717,5.151-63.267Z" transform="translate(-2880.37 -2382.355)" fill="url(#linear-gradient-17)"/>
        <path id="Trazado_60890" data-name="Trazado 60890" d="M3087.688,2583.612a.38.38,0,0,0,.367-.284l1.481-5.683,3.157-2.025a.379.379,0,1,0-.41-.638l-3.282,2.1a.377.377,0,0,0-.162.224l-1.518,5.826a.379.379,0,0,0,.366.476Z" transform="translate(-3012.845 -2490.76)" fill="#666694"/>
        <path id="Trazado_60891" data-name="Trazado 60891" d="M2697,2006.237c14.6,3.87,17.26,8.124,17.26,8.124l-10.644,8.333s-13.835-5.235-21.08-16.484a25.863,25.863,0,0,0,6.123-4.544A19.923,19.923,0,0,0,2697,2006.237Z" transform="translate(-2650.242 -1977.23)" fill="url(#linear-gradient-18)"/>
        <path id="Trazado_60892" data-name="Trazado 60892" d="M2638.219,1767.423a.462.462,0,0,1,.888.129l.435,4.5a4.274,4.274,0,0,1-.531,2.508l-1.435,2.021a4.117,4.117,0,0,0-.309,3.369,28.665,28.665,0,0,0,7.407,11.615,25.852,25.852,0,0,1-6.122,4.544,25.954,25.954,0,0,1-4.3-14.849,2.014,2.014,0,0,1-.667-2.363Z" transform="translate(-2606.261 -1767.135)" fill="url(#linear-gradient-19)"/>
        <path id="Trazado_60893" data-name="Trazado 60893" d="M2649.461,2094.472c5.3-5.71,15.392-8.289,21.235-9.349a5.36,5.36,0,0,1,5.991,3.4c2.629,7.069,9.782,25.459,11.167,28.62,1.138,2.593,2.325,5.125,3.079,6.709a1.9,1.9,0,0,1-.888,2.533c-4.916,2.369-13.762,5.051-17.348,6.1a1.23,1.23,0,0,1-1.574-1.184,3.843,3.843,0,0,0-.549-1.978l-13.582-22.635c-8.466,9.387-15.88,10.245-21.576,8.191a42.837,42.837,0,0,0,1.885-8.9C2645.715,2104.538,2649.461,2094.472,2649.461,2094.472Z" transform="translate(-2608.035 -2051.914)" fill="url(#linear-gradient-20)"/>
        <path id="Trazado_60894" data-name="Trazado 60894" d="M2520.03,2253.523l1.518-2.025c4.916,3.376,9.025,4.176,12.388,3.6a42.834,42.834,0,0,1-1.885,8.9C2524.549,2261.287,2520.03,2253.523,2520.03,2253.523Z" transform="translate(-2504.67 -2201.033)" fill="url(#linear-gradient-21)"/>
        <path id="Trazado_60895" data-name="Trazado 60895" d="M2389.036,2233.976l-8.554.333-7.876-4.4c1.131-.708,7.524.74,7.524.74s6.683-1.011,8.492-1.013c1.5,0,1.288,2.158,1.172,2.89-.024.149-.043.24-.043.24Z" transform="translate(-2372.605 -2181.45)" fill="url(#linear-gradient-22)"/>
        <path id="Trazado_60896" data-name="Trazado 60896" d="M2835.854,1985.231l4.513,11.014s-5.186,3.589-9.358,3.248l-2.253-9.9Z" transform="translate(-2781.23 -1962.508)" fill="url(#linear-gradient-23)"/>
        <g id="Grupo_29005" data-name="Grupo 29005" transform="translate(42.666 10.125)">
          <path id="Trazado_60897" data-name="Trazado 60897" d="M2795.624,1907.6c-.1.146-3.265,11.569-3.265,11.569l6.561,1.667,4.6-10.381S2797.355,1905.149,2795.624,1907.6Z" transform="translate(-2791.291 -1902.512)" fill="url(#linear-gradient-24)"/>
          <path id="Trazado_60898" data-name="Trazado 60898" d="M2791.873,1873.839l-2,5.654a.818.818,0,0,1-.1.2c-.271.385-1.3,1.641-2.521.509a7.534,7.534,0,0,0-3.082-2.114.837.837,0,0,0-.953.6,36.212,36.212,0,0,0-1.1,5.511.835.835,0,0,0,.679.9,26.98,26.98,0,0,0,6.267.521.836.836,0,0,0,.706-.486c.625-1.366,2.541-5.51,3.253-6.582.668-1.007,2.308-.978,3-.918a.823.823,0,0,0,.617-.2,2.171,2.171,0,0,0,.135-3.484.84.84,0,0,1,.02-1.208,2.176,2.176,0,0,0,.28-3.232,3.07,3.07,0,0,0-3.664-.876.839.839,0,0,1-1.008-.373.662.662,0,0,0-.683-.319.825.825,0,0,1-.88-.846,2.5,2.5,0,0,0-1.932-2.61c-2.866-.892-4.653,1.876-4.831,3.943s2.985,2.856,4.845,2.717c1.414-.106,2.463,1.3,2.885,1.973A.831.831,0,0,1,2791.873,1873.839Z" transform="translate(-2782.11 -1864.318)" fill="url(#linear-gradient-25)"/>
          <path id="Trazado_60899" data-name="Trazado 60899" d="M2879.634,1988.187s.462-3.587,1.955-3.762,2.945,1.05,1.461,3.063C2881.2,1989.992,2879.634,1988.187,2879.634,1988.187Z" transform="translate(-2869.473 -1971.896)" fill="url(#linear-gradient-26)"/>
        </g>
      </g>
      <path id="Rect치ngulo_5728" data-name="Rect치ngulo 5728" d="M48.659,0H59.016a48.659,48.659,0,0,1,48.659,48.659v12.43a0,0,0,0,1,0,0H0a0,0,0,0,1,0,0V48.659A48.659,48.659,0,0,1,48.659,0Z" transform="translate(0 215.929)" fill="url(#linear-gradient-27)"/>
      <g id="Grupo_29008" data-name="Grupo 29008" transform="translate(15.842 77.113)">
        <path id="Trazado_60900" data-name="Trazado 60900" d="M792.322,1377.67s-3.054,1.485-3.615,3.192c-.45,1.369-3.827,1.545-4.161,4.238a3.09,3.09,0,0,1-2.586,2.716c-3.449.528-8.764,2.319-9.614,8.307-.649,4.57,1.681,6.3,4.126,6.9a3.463,3.463,0,0,1,2.626,4c-.348,1.739.171,3.75,3.184,5.34,6.752,3.563,13.495-8.44,13.495-8.44l1.382-20.958Z" transform="translate(-756.897 -1371.923)" fill="url(#linear-gradient-28)"/>
        <path id="Trazado_60901" data-name="Trazado 60901" d="M632.689,2627.147l-.437,3.592a1.485,1.485,0,0,1-1.3,1.3,22.972,22.972,0,0,1-4.807.074,1.27,1.27,0,0,1-1.067-1.648,13.1,13.1,0,0,1,2.409-4.692h3.984A1.228,1.228,0,0,1,632.689,2627.147Z" transform="translate(-625.017 -2489.986)" fill="url(#linear-gradient-29)"/>
        <path id="Trazado_60902" data-name="Trazado 60902" d="M932.076,2235.134l.673,3.956s-2.252,22.812-2.653,31.937a7.145,7.145,0,0,0,1.058,4.063l3.916,6.36-9.953-5.873-.2-1.215,1.629-2.24-2.134-25.555a7.838,7.838,0,0,1,.892-4.336l2.059-3.868Z" transform="translate(-893.197 -2140.05)" fill="url(#linear-gradient-30)"/>
        <path id="Trazado_60903" data-name="Trazado 60903" d="M933.565,2607.324h-3.176a1.914,1.914,0,0,1-1.518-.744c-.99-1.287-3.041-3.8-4.022-3.862-1.32-.088-1.151,4.606-1.151,4.606h-.74l-.937-5.833a3.453,3.453,0,0,1,1.812-3.609h0a4.883,4.883,0,0,0,1.938,3.22c1.637.987,6.66,4.523,6.66,4.523a4.534,4.534,0,0,1,1.291.034A.84.84,0,0,1,933.565,2607.324Z" transform="translate(-891.036 -2465.003)" fill="url(#linear-gradient-31)"/>
        <path id="Trazado_60904" data-name="Trazado 60904" d="M662.262,2239.032s-13.193,25.027-15.291,30.741a54.913,54.913,0,0,0-2.86,10.932c-.044.706-.921,1.382-3.339,1.382a2.32,2.32,0,0,1-2.159-.984,1.41,1.41,0,0,1-.053-1.365c.763-1.544,3.185-6.48,4.082-8.72,1.071-2.672,3.375-14.785,4.638-19s2.691-8.779,8.193-12.988C655.473,2239.032,659.25,2235.333,662.262,2239.032Z" transform="translate(-637.014 -2142.068)" fill="url(#linear-gradient-32)"/>
        <path id="Trazado_60905" data-name="Trazado 60905" d="M902.475,1600.128c3.4-14.421-5.218-22.578-5.218-22.578,5.44-5.222,15.352-7.6,15.352-7.6s9.458,6.915,8.336,12.327c-.658,3.172-6.648,19-6.648,19A13.163,13.163,0,0,1,902.475,1600.128Z" transform="translate(-868.893 -1544.172)" fill="url(#linear-gradient-33)"/>
        <path id="Trazado_60906" data-name="Trazado 60906" d="M806.165,1866.717c1.385-4.172,7.546-7.139,7.546-7.139a13.162,13.162,0,0,0,11.821,1.152,23.706,23.706,0,0,1,.385,9.16c-.857,4.413-6.237,32.772-6.237,32.772-8.476,1.718-21.512-1.728-21.512-1.728C803.567,1891.35,804.78,1870.89,806.165,1866.717Z" transform="translate(-780.128 -1803.622)" fill="url(#linear-gradient-34)"/>
        <path id="Trazado_60907" data-name="Trazado 60907" d="M961.1,1468.294l-2.767,12.428c-.265,1.095.733.916,1.84.707,1.813-.342,4.149-1.046,4.93-2.456a1.344,1.344,0,0,0,.142-.468l1.189-8.619a1.548,1.548,0,0,0-.906-1.627l-2.294-1.017A1.548,1.548,0,0,0,961.1,1468.294Z" transform="translate(-923.564 -1452.044)" fill="url(#linear-gradient-35)"/>
        <g id="Grupo_29007" data-name="Grupo 29007" transform="translate(31.337)">
          <path id="Trazado_60908" data-name="Trazado 60908" d="M966.245,1363.219s3.277,1.384,5.505,6.119.564,6.922-1.526,7.222a9.783,9.783,0,0,1-8.522-2.8C958.4,1370.7,961.985,1361.579,966.245,1363.219Z" transform="translate(-956.802 -1358.803)" fill="url(#linear-gradient-36)"/>
          <path id="Trazado_60909" data-name="Trazado 60909" d="M932.908,1334.937s-2.472-6.928,3.67-7.01l1.445,1.01s2.254-3.841-1.445-5.675-8.028-.319-9.6,4.665-1.843,8.319.776,10.7,3.7-.319,3.7-.319-1.426-2.23-.845-3.423,1.92.247,1.92.247Z" transform="translate(-925.785 -1322.511)" fill="url(#linear-gradient-37)"/>
          <path id="Trazado_60910" data-name="Trazado 60910" d="M958.234,1427.834s-1.25-3.569-2.918-2.147,1.355,3.3,2.539,3.9Z" transform="translate(-951.8 -1414.637)" fill="url(#linear-gradient-38)"/>
        </g>
        <path id="Trazado_60911" data-name="Trazado 60911" d="M891.3,1473.14c6.423,3,30.928,12.043,38.6-20.313a4.35,4.35,0,0,0-.582-2.124,20.956,20.956,0,0,1-.821-4.126.655.655,0,0,0-.8-.551h0a.9.9,0,0,0-.638.576l-1.846,5.279a1.844,1.844,0,0,0,1.633,1.755h0a.909.909,0,0,1,.763,1.191c-7.511,22.489-36.962,10.693-37.3,11.065a5.857,5.857,0,0,0-1.332,2.554A4.172,4.172,0,0,0,891.3,1473.14Z" transform="translate(-861.385 -1433.141)" fill="url(#linear-gradient-39)"/>
      </g>
    </g>
  </g>
</svg>
