<svg xmlns="http://www.w3.org/2000/svg" width="482.495" height="338.16" viewBox="0 0 482.495 338.16">
  <g id="Grupo_31097" data-name="Grupo 31097" transform="translate(-236.637 -214.752)">
    <g id="Grupo_31086" data-name="Grupo 31086" transform="translate(236.637 214.753)">
      <g id="Grupo_31085" data-name="Grupo 31085" transform="translate(0 0)">
        <g id="Grupo_31071" data-name="Grupo 31071" transform="translate(0 335.182)">
          <path id="Trazado_65133" data-name="Trazado 65133" d="M717.292,1793.222H238.541a1.777,1.777,0,0,0-1.9,1.39,1.664,1.664,0,0,0,1.837,1.588H717.292a1.693,1.693,0,0,0,1.841-1.489h0A1.693,1.693,0,0,0,717.292,1793.222Z" transform="translate(-236.637 -1793.222)" fill="#86b1f2"/>
        </g>
        <g id="Grupo_31084" data-name="Grupo 31084" transform="translate(10.1)">
          <g id="Grupo_31078" data-name="Grupo 31078" transform="translate(71.682)">
            <g id="Grupo_31077" data-name="Grupo 31077">
              <path id="Rectángulo_6243" data-name="Rectángulo 6243" d="M112.034,0H209.72A112.034,112.034,0,0,1,321.754,112.034v21.5A112.035,112.035,0,0,1,209.72,245.566H112.035A112.035,112.035,0,0,1,0,133.531v-21.5A112.034,112.034,0,0,1,112.034,0Z" transform="translate(0 89.681)" fill="#466eb6"/>
              <path id="Rectángulo_6244" data-name="Rectángulo 6244" d="M59.048,0H250.469a59.047,59.047,0,0,1,59.047,59.047V173.355A59.047,59.047,0,0,1,250.469,232.4H59.048A59.048,59.048,0,0,1,0,173.355V59.048A59.048,59.048,0,0,1,59.048,0Z" transform="translate(7.049 95.447)" fill="#184655"/>
              <path id="Trazado_65134" data-name="Trazado 65134" d="M621.77,1723.86v8.334c0,3.568,7.87,6.459,17.577,6.459H976.872c9.708,0,17.577-2.892,17.577-6.459v-8.334Z" transform="translate(-621.77 -1403.406)" fill="#355389"/>
              <rect id="Rectángulo_6245" data-name="Rectángulo 6245" width="267.638" height="199.415" transform="translate(28.385 103.485)" fill="#96d9c9"/>
              <rect id="Rectángulo_6246" data-name="Rectángulo 6246" width="244.514" height="174.171" transform="translate(37.534 119.289)" fill="#f47458"/>
              <rect id="Rectángulo_6247" data-name="Rectángulo 6247" width="229.478" height="187.315" transform="translate(36.884 106.146)" fill="#86b1f2"/>
              <rect id="Rectángulo_6248" data-name="Rectángulo 6248" width="217.658" height="15.248" transform="translate(41.391 114.591)" fill="#9bc1f9"/>
              <g id="Grupo_31076" data-name="Grupo 31076" transform="translate(37.534)">
                <rect id="Rectángulo_6249" data-name="Rectángulo 6249" width="190.333" height="271.004" fill="#fae0b2"/>
                <rect id="Rectángulo_6250" data-name="Rectángulo 6250" width="175.642" height="15.386" transform="translate(5.019 127.682)" fill="#f48c7f"/>
                <g id="Grupo_31072" data-name="Grupo 31072" transform="translate(14.02 157.393)">
                  <rect id="Rectángulo_6251" data-name="Rectángulo 6251" width="74.93" height="3.281" fill="#96d9c9"/>
                  <rect id="Rectángulo_6252" data-name="Rectángulo 6252" width="69.737" height="3.281" transform="translate(91.202)" fill="#96d9c9"/>
                  <rect id="Rectángulo_6253" data-name="Rectángulo 6253" width="74.93" height="3.281" transform="translate(0 8.297)" fill="#96d9c9"/>
                  <rect id="Rectángulo_6254" data-name="Rectángulo 6254" width="69.737" height="3.281" transform="translate(91.202 8.297)" fill="#96d9c9"/>
                  <rect id="Rectángulo_6255" data-name="Rectángulo 6255" width="74.93" height="3.281" transform="translate(0 16.594)" fill="#96d9c9"/>
                  <rect id="Rectángulo_6256" data-name="Rectángulo 6256" width="69.737" height="3.281" transform="translate(91.202 16.594)" fill="#96d9c9"/>
                  <rect id="Rectángulo_6257" data-name="Rectángulo 6257" width="74.93" height="3.281" transform="translate(0 24.892)" fill="#96d9c9"/>
                  <rect id="Rectángulo_6258" data-name="Rectángulo 6258" width="69.737" height="3.281" transform="translate(91.202 24.892)" fill="#96d9c9"/>
                  <rect id="Rectángulo_6259" data-name="Rectángulo 6259" width="69.737" height="3.281" transform="translate(91.202 33.189)" fill="#96d9c9"/>
                  <rect id="Rectángulo_6260" data-name="Rectángulo 6260" width="74.93" height="3.281" transform="translate(0 33.189)" fill="#96d9c9"/>
                  <rect id="Rectángulo_6261" data-name="Rectángulo 6261" width="74.93" height="3.281" transform="translate(0 41.486)" fill="#96d9c9"/>
                  <rect id="Rectángulo_6262" data-name="Rectángulo 6262" width="69.737" height="3.281" transform="translate(91.202 41.486)" fill="#96d9c9"/>
                  <rect id="Rectángulo_6263" data-name="Rectángulo 6263" width="74.93" height="3.281" transform="translate(0 49.784)" fill="#96d9c9"/>
                  <rect id="Rectángulo_6264" data-name="Rectángulo 6264" width="69.737" height="3.281" transform="translate(91.202 49.784)" fill="#96d9c9"/>
                  <rect id="Rectángulo_6265" data-name="Rectángulo 6265" width="74.93" height="3.281" transform="translate(0 58.081)" fill="#96d9c9"/>
                  <rect id="Rectángulo_6266" data-name="Rectángulo 6266" width="69.737" height="3.281" transform="translate(91.202 58.081)" fill="#96d9c9"/>
                  <rect id="Rectángulo_6267" data-name="Rectángulo 6267" width="74.93" height="3.281" transform="translate(0 66.378)" fill="#96d9c9"/>
                  <rect id="Rectángulo_6268" data-name="Rectángulo 6268" width="69.737" height="3.281" transform="translate(91.202 66.378)" fill="#96d9c9"/>
                  <rect id="Rectángulo_6269" data-name="Rectángulo 6269" width="74.93" height="3.281" transform="translate(0 74.676)" fill="#96d9c9"/>
                  <rect id="Rectángulo_6270" data-name="Rectángulo 6270" width="69.737" height="3.281" transform="translate(91.202 74.676)" fill="#96d9c9"/>
                </g>
                <g id="Grupo_31073" data-name="Grupo 31073" transform="translate(114.17 16.259)">
                  <rect id="Rectángulo_6271" data-name="Rectángulo 6271" width="59.139" height="3.281" fill="#96d9c9"/>
                  <rect id="Rectángulo_6272" data-name="Rectángulo 6272" width="59.139" height="3.281" transform="translate(0 8.297)" fill="#96d9c9"/>
                  <rect id="Rectángulo_6273" data-name="Rectángulo 6273" width="59.139" height="3.281" transform="translate(0 16.595)" fill="#96d9c9"/>
                  <rect id="Rectángulo_6274" data-name="Rectángulo 6274" width="59.139" height="3.281" transform="translate(0 24.892)" fill="#96d9c9"/>
                  <rect id="Rectángulo_6275" data-name="Rectángulo 6275" width="59.139" height="3.281" transform="translate(0 33.189)" fill="#96d9c9"/>
                </g>
                <g id="Grupo_31074" data-name="Grupo 31074" transform="translate(114.433 63.612)">
                  <rect id="Rectángulo_6276" data-name="Rectángulo 6276" width="59.14" height="3.281" fill="#96d9c9"/>
                  <rect id="Rectángulo_6277" data-name="Rectángulo 6277" width="59.14" height="3.281" transform="translate(0 8.297)" fill="#96d9c9"/>
                  <rect id="Rectángulo_6278" data-name="Rectángulo 6278" width="59.14" height="3.281" transform="translate(0 16.595)" fill="#96d9c9"/>
                  <rect id="Rectángulo_6279" data-name="Rectángulo 6279" width="59.14" height="3.281" transform="translate(0 24.892)" fill="#96d9c9"/>
                  <rect id="Rectángulo_6280" data-name="Rectángulo 6280" width="59.14" height="3.281" transform="translate(0 33.189)" fill="#96d9c9"/>
                </g>
                <rect id="Rectángulo_6281" data-name="Rectángulo 6281" width="80.814" height="100.122" transform="translate(17.712 17.051)" fill="#96d9c9"/>
                <g id="Grupo_31075" data-name="Grupo 31075" transform="translate(29.814 36.563)">
                  <path id="Trazado_65135" data-name="Trazado 65135" d="M954.7,432.46l-6.9,20.889h-8.868L961.5,386.938h10.346l22.662,66.411h-9.163l-7.094-20.889Zm21.776-6.7-6.5-19.115c-1.478-4.335-2.463-8.277-3.449-12.119h-.2c-.986,3.941-2.069,7.981-3.35,12.021l-6.5,19.214Z" transform="translate(-938.933 -386.938)" fill="#b75742"/>
                </g>
              </g>
            </g>
          </g>
          <g id="Grupo_31081" data-name="Grupo 31081" transform="translate(0 100.318)">
            <path id="Trazado_65136" data-name="Trazado 65136" d="M322.465,1020.277a6.763,6.763,0,0,0,.66,1.679,63.524,63.524,0,0,0,6.309,8.811l3.411-8.066s-.556-2.533-1.52-6.153C328.03,1017.451,324.893,1017.973,322.465,1020.277Z" transform="translate(-314.34 -946.608)" fill="#f8a492"/>
            <path id="Trazado_65137" data-name="Trazado 65137" d="M312.472,896.554s-19.021,8.6-19.636,8.434c-.4-.106-7.8-13.119-7.881-25.357-.036-5.652,5.555-12.451,11.794-11.106,3.141.677,3.092,1.594,7.739,8.682S312.472,896.554,312.472,896.554Z" transform="translate(-284.794 -829.882)" fill="#13375b"/>
            <path id="Trazado_65138" data-name="Trazado 65138" d="M486.287,1727.164s-.451,7.842-.454,7.858c-.166,1-.819,3.455-.819,4.36,0,3.4,15.381-2.886,11.934-4.393-.312-.136-1.947-1.168-2.049-2.325-.158-1.783-.559-5.391-.559-5.391Z" transform="translate(-442.372 -1506.327)" fill="#f7a491"/>
            <path id="Trazado_65139" data-name="Trazado 65139" d="M494.89,1763.347a56.091,56.091,0,0,1-5.461,1.3c-1.85.26-4.288-1.93-5.6-1.338-1.44.651-1.383,6.51-1.383,6.51s19.365,1.668,24.81-.058C509.418,1769.078,502.272,1765.77,494.89,1763.347Z" transform="translate(-440.352 -1534.717)" fill="#184655"/>
            <path id="Trazado_65140" data-name="Trazado 65140" d="M338.113,1727.164s-.451,7.842-.454,7.858c-.166,1-.819,3.455-.819,4.36,0,3.4,15.381-2.886,11.934-4.393-.312-.136-2.431-1.938-2.534-3.1-.158-1.783-.075-4.62-.075-4.62Z" transform="translate(-325.662 -1506.327)" fill="#f7a491"/>
            <path id="Trazado_65141" data-name="Trazado 65141" d="M346.293,1763.347a56.08,56.08,0,0,1-5.46,1.3c-1.85.26-4.288-1.93-5.6-1.338-1.44.651-1.5,6.51-1.5,6.51s19.453,1.945,24.925-.058C360.788,1768.985,353.676,1765.77,346.293,1763.347Z" transform="translate(-323.22 -1534.717)" fill="#184655"/>
            <g id="Grupo_31079" data-name="Grupo 31079" transform="translate(17.152 16.443)">
              <path id="Trazado_65142" data-name="Trazado 65142" d="M364.973,826.186l13.547-19.921c.057-.175.18-.531.368-1.077.682-1.977,2.1-6.09,3.339-10.182l.013-.043c.389-1.43,1.212-3.925,2.009-6.339.886-2.684,1.984-6.012,2.023-6.58-.034-.1-.1-.271-.183-.5a47.754,47.754,0,0,1-1.406-5.978c-.151-.892-.3-3.062.708-3.062,1.589,0,.832,2.167,1.564,3.52a35.559,35.559,0,0,0,1.1-4.514l.266-4.235c.051-.319-.273-2.656.842-2.656l.053,0c1,.077.979,2.561,1.4,6.762.131-.484.263-1.066.362-1.6a16.072,16.072,0,0,1,.339-2.217c-.2-1.17-.084-3.017,1.1-2.843.6.088.546,2.664.546,2.664-.006.354-.041,3.078-.023,3.617.123-.914.6-4.813,1.53-4.813.773,0,.835,1.05.819,1.88-.01.491-.495,4.716-.522,5.207.364-.641.8-4.364,1.156-4.364,1.507,0,.962,5.293.409,6.672a6.438,6.438,0,0,0-.171.739,13.443,13.443,0,0,1-1.292,3.938c-.946,1.7-2.251,4.4-2.45,4.814-.146.844-.6,3.878-1.169,7.7-.244,1.633-.511,3.424-.79,5.279l-.015,0c-.051.4-.334,1.678-1.405,6.467-1.466,6.553-1.618,6.837-1.684,6.958-.637,1.183-15.242,22.005-15.864,22.891l-.367.523Z" transform="translate(-364.973 -764.615)" fill="#f7a491"/>
              <path id="Trazado_65143" data-name="Trazado 65143" d="M472.29,824.39s-1.1-2.952-3.057-2.957a2.161,2.161,0,0,1,2.032.365A4.188,4.188,0,0,1,472.29,824.39Z" transform="translate(-447.094 -809.281)" fill="#f47458"/>
            </g>
            <g id="Grupo_31080" data-name="Grupo 31080">
              <path id="Trazado_65144" data-name="Trazado 65144" d="M343.091,806.4l-1.744,11.577s6.645,5.6,10.518,4.42c3.25-.991,1.021-5.451,1.021-5.451s-1.731-6.181-1.2-9.42S343.091,806.4,343.091,806.4Z" transform="translate(-329.212 -780.547)" fill="#f7a491"/>
              <path id="Trazado_65145" data-name="Trazado 65145" d="M349.567,809.9a26.175,26.175,0,0,0,7.52,2.225,16.133,16.133,0,0,1-.177-4.6c.245-1.5-1.567-1.849-3.589-1.8-2.647.238-5.006.672-5.006.672l-.335,2.225A5.518,5.518,0,0,0,349.567,809.9Z" transform="translate(-334.437 -780.55)" fill="#fe875e"/>
              <path id="Trazado_65146" data-name="Trazado 65146" d="M310,722.94c-.274,0,2.627,12.934,7.116,15.159s11.184,1.066,12.44-2.418c1.389-3.853-3.679-17.047-9.993-18.723S310,722.94,310,722.94Z" transform="translate(-304.51 -710.445)" fill="#f7a491"/>
              <path id="Trazado_65147" data-name="Trazado 65147" d="M294.888,687.792a14.655,14.655,0,0,0-5.785,6.71c-1.683.838-3.72,2.652-4.7,7.538-1.2,6.008,3.071,10.639,7.6,12.032s5.245,4.447,5.245,4.447l.5-3.276a13.638,13.638,0,0,0-2.528-4.442c-1.516-1.476.718-3.627.914-5.381.151-1.351-.8-3.974-.591-6.191,0,0,2.517-4,5-4.994C304.781,692.547,299.489,685.006,294.888,687.792Z" transform="translate(-284.201 -687.181)" fill="#13375b"/>
              <path id="Trazado_65148" data-name="Trazado 65148" d="M330.473,775.645c.587,1.494.347,2.977-.536,3.312s-2.074-.6-2.66-2.1-.347-2.977.536-3.312S329.886,774.152,330.473,775.645Z" transform="translate(-317.876 -755.155)" fill="#f7a491"/>
            </g>
            <path id="Trazado_65149" data-name="Trazado 65149" d="M422.268,1010.345l26.13-4.472s-2.973-7.857-4.035-7.857-19.758,8.568-19.758,8.568l-1.487,3.135Z" transform="translate(-392.95 -932.011)" fill="#f8a492"/>
            <path id="Trazado_65150" data-name="Trazado 65150" d="M342.722,1140s-2.607,13.228-1.545,23.259,1.146,45.662,1.146,45.662l-4.054,57.011,9.618.219s11.4-56.983,11.193-55.521,3.824-40.122,3.824-40.122l-13.6-31.763Z" transform="translate(-326.789 -1042.855)" fill="#3c8f7c"/>
            <path id="Trazado_65151" data-name="Trazado 65151" d="M366.77,1125.784s-1.7,11.911.425,17.136,18.222,56.484,18.435,60.663,5.566,50.374,5.566,50.374l11.184-.33,2.419-51.36-5.066-64.551-4.919-16.32Z" transform="translate(-348.73 -1029.192)" fill="#50bfa5"/>
            <path id="Trazado_65152" data-name="Trazado 65152" d="M341.347,849.534s2.758,1.9,5.33,1.68,6.209-2.711,6.209-2.711l-.505-1.8s-6.655-1.018-6.822-.907S341.347,849.534,341.347,849.534Z" transform="translate(-329.212 -812.108)" fill="#f7a491"/>
            <path id="Trazado_65153" data-name="Trazado 65153" d="M479.773,960.184s9.884,9.792,14.346,8.12,6.308-7.386-4.578-15.747C479.8,945.074,479.773,960.184,479.773,960.184Z" transform="translate(-438.244 -894.567)" fill="#f8a492"/>
            <path id="Trazado_65154" data-name="Trazado 65154" d="M343.22,899.184c-1.469-8.385-12.11-34.48-12.96-39.286-.413-2.338-6.153-2.389-11.62-2.084-5.775.322-11.512,1.089-11.512,1.089s-5.112.882-7.362,3.094-2.847,8.331.386,19.947c2.552,9.169,5.717,14.2,7.283,20.882.317,2.24.589,4.451.949,7.033.576,9.986-.007,23.179-.007,23.179s27.831,6.06,38.241-3.135C346.619,929.9,344.725,907.775,343.22,899.184Z" transform="translate(-294.994 -821.477)" fill="#355389"/>
            <path id="Trazado_65155" data-name="Trazado 65155" d="M429.229,882.4s-10.92,9.463-11.558,9.463c-.411,0-15.584-11.717-19.087-21.343-1.936-5.322,2.125-11.276,6.764-11.256,3.215.014,4.645.884,11.019,6.526S429.229,882.4,429.229,882.4Z" transform="translate(-373.906 -822.719)" fill="#13375b"/>
          </g>
          <g id="Grupo_31083" data-name="Grupo 31083" transform="translate(348.635 194.708)">
            <path id="Trazado_65156" data-name="Trazado 65156" d="M1933.855,1703.2l7.041-1.644a48.462,48.462,0,0,0,11.039-.72,17.426,17.426,0,0,1,.767,4.338c.04.5-.684,3.014-1.184,3.091-1.812.279-5-.037-10.659.094,0,0-8.909,1.052-13.676-.521S1933.855,1703.2,1933.855,1703.2Z" transform="translate(-1926.021 -1579.981)" fill="#3c8f7c"/>
            <path id="Trazado_65157" data-name="Trazado 65157" d="M2214.8,1139.675c.391,4.086,3.821,5.527,7.018,8.113,2.146,1.736,1.777,6.425.137,9.337-4.155,7.377-.616,8.287,2.734,13.7,8.067,13.048-16.931,15.932-19.9,16.9s-4.979,2.149-6.733,1.955c-5.289-.586-10.128-8.1-12.813-15.056s3.834-7.32,4.166-11.314-7.3-4.851-5.033-12.394c2.447-8.16,5.9-15.077,10.488-17.557,7.591-4.1,16.818.188,18.916,3.485A6.353,6.353,0,0,1,2214.8,1139.675Z" transform="translate(-2129.19 -1131.687)" fill="#b75742"/>
            <path id="Trazado_65158" data-name="Trazado 65158" d="M2156.589,1541.13c.656,1.636,4.274,7.423,4.274,7.423l-50.764.5-.792-10.414c13.937-.112,27.714-6.275,40.556-10.684C2150.189,1528.747,2156.27,1540.337,2156.589,1541.13Z" transform="translate(-2070.387 -1443.813)" fill="#fae0b2"/>
            <path id="Trazado_65159" data-name="Trazado 65159" d="M2160.979,1320.532s2.726-19.242,7.11-21.24,28.128.771,31.682,2.941-2.366,24.768-3.274,31.09c-.054.378-.113.756-.174,1.132a52.964,52.964,0,0,0,2.586,27.1c-12.992,3.945-16.362,6.114-30.3,5.726l-5.2-30.435S2159.276,1322.116,2160.979,1320.532Z" transform="translate(-2110.763 -1263.158)" fill="#50bfa5"/>
            <path id="Trazado_65160" data-name="Trazado 65160" d="M2251.148,1236.274s1.092,10.594,2.027,13.192-2.506,7.885-8.122,9.348-1.53-5.645-1.662-8.392-.675-15.749-.675-15.749Z" transform="translate(-2174.966 -1212.805)" fill="#f7a491"/>
            <path id="Trazado_65161" data-name="Trazado 65161" d="M2253.642,1237.492a10.464,10.464,0,0,1-2.567,2.117,7.743,7.743,0,0,1-5.741,1.14c-.138-3.275-.256-6.075-.256-6.075l8.432,1.6S2253.558,1236.738,2253.642,1237.492Z" transform="translate(-2177.327 -1212.805)" fill="#f47458"/>
            <path id="Trazado_65162" data-name="Trazado 65162" d="M2236.4,1150.5a9.635,9.635,0,0,1,5.265,4.11c1.95,3.234,3.031,12.587-3.921,16.685s-12.018-2.234-11.89-8.228S2227.546,1149.124,2236.4,1150.5Z" transform="translate(-2162.182 -1146.381)" fill="#f7a491"/>
            <path id="Trazado_65163" data-name="Trazado 65163" d="M2215.9,1187.667c.076,1.557.871,2.781,1.776,2.734s1.576-1.346,1.5-2.9-.872-2.781-1.776-2.734S2215.828,1186.11,2215.9,1187.667Z" transform="translate(-2154.344 -1173.493)" fill="#f7a491"/>
            <path id="Trazado_65164" data-name="Trazado 65164" d="M2298.5,1201.526c-.548,1.54-.153,3.089.884,3.461s2.323-.575,2.872-2.114.153-3.089-.884-3.461S2299.053,1199.987,2298.5,1201.526Z" transform="translate(-2219.214 -1184.968)" fill="#f7a491"/>
            <path id="Trazado_65165" data-name="Trazado 65165" d="M2319.281,1315.7s-4.049,2.124-6.531,8.05,5.972,36.164,7.775,38.1,6.79,2.24,7.641-2.5S2326.149,1317.194,2319.281,1315.7Z" transform="translate(-2230.272 -1276.625)" fill="#3c8f7c"/>
            <path id="Trazado_65166" data-name="Trazado 65166" d="M2124.256,1295.6l6.98,41.921-27.173,4.381-8.626-39.215S2117.793,1293.637,2124.256,1295.6Z" transform="translate(-2059.463 -1260.575)" fill="#fff"/>
            <path id="Trazado_65167" data-name="Trazado 65167" d="M1984.171,1298.948a14.63,14.63,0,0,1,8.167-.746c5.086.994,13.169,3.055,16.414,6.541,4.9,5.262,9.427,40.07,9.427,40.07l-21.123-4.736-12.885-41.129Z" transform="translate(-1971.823 -1262.629)" fill="#fff"/>
            <path id="Trazado_65168" data-name="Trazado 65168" d="M2124.4,1480.321c-3.552-9.865-43.8-45.775-54.457-43.013l5.722,21.9s11.839,35.969,23.677,40.25c11.867,4.292,22.69-.592,22.69-.592S2127.947,1490.186,2124.4,1480.321Z" transform="translate(-2039.378 -1372.291)" fill="#f7cc7f"/>
            <path id="Trazado_65169" data-name="Trazado 65169" d="M2258.135,1368.458c-.5,1,2.7,2.791,3.629,3.468s4.789-.02,4.789-.02S2258.692,1367.343,2258.135,1368.458Z" transform="translate(-2187.57 -1318.042)" fill="#f7a491"/>
            <path id="Trazado_65170" data-name="Trazado 65170" d="M2013.657,1573.669s-10.228,21.254-10.262,23.467c-.05,3.188-14.789,2.313-11.587.949.737-.313,3.056-1.488,3.234-1.641.952-.821,9.441-27.215,9.441-27.215Z" transform="translate(-1977.48 -1476.319)" fill="#f48c7f"/>
            <path id="Trazado_65171" data-name="Trazado 65171" d="M2032.71,1467.1c-.494-.545-5.678-2.6-9.668,2.367s-11.641,43.671-11.641,43.671l9.405.921S2044.217,1479.792,2032.71,1467.1Z" transform="translate(-1993.271 -1395.178)" fill="#f7cc7f"/>
            <path id="Trazado_65172" data-name="Trazado 65172" d="M1967.62,1313.848l12.1,35.276a3.912,3.912,0,0,0,3.13,2.635c11.343,1.605,17.262,2.421,17.262,2.421s2.214.115,4.56.145l25.968-2.772a3.994,3.994,0,0,0,3.414-4.739l-6.321-34.636a3.893,3.893,0,0,0-4.434-3.218l-24.982,4.2-6.566-.177-19.654-4.4A3.966,3.966,0,0,0,1967.62,1313.848Z" transform="translate(-1958.606 -1270.943)" fill="#f47458"/>
            <path id="Trazado_65173" data-name="Trazado 65173" d="M2208.686,1384.194s6.969,1.292,9.35,1.22a24.93,24.93,0,0,1,5.466.681s7.779,18.291,8.895,20.332c3.331,6.091,12.569,5.373,12.416.292-.121-4.036-15.9-29.347-20.094-29.221s-17.326-2.613-17.719-.944c-.212.9,12.093,1.317,10.152,2.079-1.206.474-10.836-.609-10.8.524s8.7,1.241,9.634,2.121-9.223-1.077-9.165.847c.029.969,8.947.27,9.924,1.74C2217.147,1384.476,2207.948,1382.288,2208.686,1384.194Z" transform="translate(-2146.821 -1324.131)" fill="#f7a491"/>
            <g id="Grupo_31082" data-name="Grupo 31082" transform="translate(13.368 56.997)">
              <path id="Trazado_65174" data-name="Trazado 65174" d="M1990.826,1400.184a.959.959,0,0,0-1.318.652,1.95,1.95,0,0,0,.274,1.782c.874.939,6.97,1.839,7,.933C1996.811,1402.854,1992.72,1401,1990.826,1400.184Z" transform="translate(-1989.325 -1400.104)" fill="#f7a491"/>
              <path id="Trazado_65175" data-name="Trazado 65175" d="M1989.358,1411.359s-.612,2.286-.083,2.3,7.126.672,7.419-.112S1990.207,1410.9,1989.358,1411.359Z" transform="translate(-1989.042 -1408.912)" fill="#f7a491"/>
              <path id="Trazado_65176" data-name="Trazado 65176" d="M1989.007,1421.49a2.089,2.089,0,0,0,.359,1.6c.547.587,6.688.2,6.913-.773S1989.224,1420.74,1989.007,1421.49Z" transform="translate(-1988.976 -1416.683)" fill="#f7a491"/>
              <path id="Trazado_65177" data-name="Trazado 65177" d="M1993.535,1430.121a1.98,1.98,0,0,0,.3,1.108c.31.332,4.847-.129,5.3-1.1S1994.063,1429.119,1993.535,1430.121Z" transform="translate(-1992.567 -1423.17)" fill="#f7a491"/>
            </g>
            <path id="Trazado_65178" data-name="Trazado 65178" d="M2000.717,1671.4a134.076,134.076,0,0,1-4.342,13.022c-1.424,3.393-2.463,6.163-3.406,7.856-2.384,4.283-5.608,5.067-8.7,2.494s1.056-13.423,1.056-13.423l9.771-13.748Z" transform="translate(-1970.995 -1553.805)" fill="#f7a491"/>
            <path id="Trazado_65179" data-name="Trazado 65179" d="M1990.32,1743.891c.838-1.505,1.224-4.343,2.3-7.337-1.495.868-4,1.521-5.365,1.157-5-1.336-5.251-5.362-5.251-5.362s-5.212,11.122-2.117,13.694A6.8,6.8,0,0,0,1990.32,1743.891Z" transform="translate(-1967.673 -1604.801)" fill="#3c8f7c"/>
            <path id="Trazado_65180" data-name="Trazado 65180" d="M2088.688,1329.839l8,41.41-4.815-.289-1.394-.1-8.358-41.2Z" transform="translate(-2048.974 -1287.624)" fill="#b75742"/>
            <path id="Trazado_65181" data-name="Trazado 65181" d="M2066.711,1505.672c2.74,5.04,8.182,4.322,13.114,4.322,5.642,0,11.421-2.342,13.028-8.582,1.715-6.664-.542-14.914-4.5-20.143-20.257-26.766-20.415-29.4-28.478-32.96-8.707-3.839-41.04,51.4-41.04,51.4l8.879,4.538s13.318-11.131,21.827-20.891c1-1.148,3.847-7.085,3.847-7.085S2064.9,1502.341,2066.711,1505.672Z" transform="translate(-1999.126 -1380.925)" fill="#fae0b2"/>
          </g>
        </g>
      </g>
    </g>
    <g id="Grupo_31096" data-name="Grupo 31096" transform="translate(256.499 218.707)">
      <path id="Trazado_65182" data-name="Trazado 65182" d="M2365.269,1066.492l-4.4,1.439-3.01-3.5.847-.729,2.524,2.933,4.535-1.482,2.792,4.569,2.888-1.354.39,1.051-3.71,1.739Z" transform="translate(-1927.285 -887.387)" fill="#50bfa5"/>
      <path id="Trazado_65183" data-name="Trazado 65183" d="M1910.189,295.8l4.881-.14,2.174-5.671,6.8.912.974-3.921,1,.34-1.181,4.754-6.91-.927-2.127,5.549-5.585.16Z" transform="translate(-1574.679 -275.595)" fill="#f48c7f"/>
      <path id="Trazado_65184" data-name="Trazado 65184" d="M1784.447,437.3l-3.584.926-1.754-4.526-3.625,1.521-1.566-4.549-3.33.131-1.415-3.414-2.094.621-.212-1.065,2.787-.826,1.479,3.566,3.376-.133,1.48,4.3,3.591-1.507,1.794,4.63,3.475-.9,2.029,3.589-.74.622Z" transform="translate(-1461.789 -385.191)" fill="#f7cc7f"/>
      <path id="Trazado_65185" data-name="Trazado 65185" d="M2236.438,780.368l1.1,3.535-4.437,1.97,1.694,3.548-4.469,1.783.291,3.32-3.342,1.578.721,2.062-1.053.263-.959-2.744,3.491-1.648-.3-3.366,4.223-1.684-1.677-3.514,4.538-2.015-1.063-3.428,3.488-2.2.656.709Z" transform="translate(-1823.413 -662.216)" fill="#f7cc7f"/>
      <g id="Grupo_31094" data-name="Grupo 31094" transform="translate(362.874 5.474)">
        <path id="Trazado_65186" data-name="Trazado 65186" d="M2193.375,372.934c-16.362-4.959-30.634,12.694-22.425,27.773a12.872,12.872,0,0,1,1.2,8.892l-2.257,10.368a5.609,5.609,0,0,0,3.854,6.561l6.2,1.878a5.609,5.609,0,0,0,6.848-3.318c3.9-9.932,4.619-13.877,9.814-16.605C2211.806,400.5,2209.74,377.893,2193.375,372.934Z" transform="translate(-2141.059 -348.102)" fill="#f7cc7f"/>
        <g id="Grupo_31087" data-name="Grupo 31087" transform="translate(33.984 37.65)">
          <path id="Trazado_65187" data-name="Trazado 65187" d="M2199.09,464.79c3.037-8.659,5.9-17.968,6.635-20.647-8.911-3.791-1.113-11.314,1.06-5.625a8.445,8.445,0,0,1,.032,5.074,25,25,0,0,0,9.451,1.66c.854-2.084,1.407-3.709,2.6-4.722,1.809-1.53,4.539-.846,4.609,1.548a3.383,3.383,0,0,1-1,2.464c-1.375,1.326-3.651,1.528-5.586,1.611-2.743,6.722-5.333,13.581-7.71,20.422l-.869-.3c2.34-6.73,4.884-13.478,7.576-20.1a25.92,25.92,0,0,1-9.307-1.688c-.947,3.421-3.775,12.478-6.626,20.607Zm3.464-24.6c.362,1.21,1.473,2.211,3.4,3.052a7.483,7.483,0,0,0-.029-4.393C2204.756,435.784,2201.946,438.157,2202.554,440.187Zm16.913,1.045c-1.007.851-1.51,2.329-2.187,3.979,1.586-.1,3.461-.269,4.563-1.332.773-.745,1.035-2.207.229-2.9A3.722,3.722,0,0,0,2219.467,441.232Z" transform="translate(-2199.09 -436.462)" fill="#fae0b2"/>
        </g>
        <path id="Trazado_65188" data-name="Trazado 65188" d="M2176.673,547.529c-.017.087-.026.175-.045.261l-2.257,10.368a5.609,5.609,0,0,0,3.854,6.561l6.2,1.878a5.609,5.609,0,0,0,6.847-3.318c1.735-4.418,2.84-7.65,3.99-10.118Z" transform="translate(-2145.534 -486.294)" fill="#96d9c9"/>
        <g id="Grupo_31088" data-name="Grupo 31088" transform="translate(44.032)">
          <path id="Trazado_65189" data-name="Trazado 65189" d="M2246.869,271.565l-.459-10.489a1.84,1.84,0,0,1,3.677-.161l.459,10.489a1.84,1.84,0,1,1-3.677.161Z" transform="translate(-2246.408 -259.155)" fill="#fae0b2"/>
        </g>
        <g id="Grupo_31089" data-name="Grupo 31089" transform="translate(14.436 18.393)">
          <path id="Trazado_65190" data-name="Trazado 65190" d="M2117.362,354.9l-9.441-5.718a1.84,1.84,0,1,1,1.906-3.148l9.441,5.718a1.84,1.84,0,1,1-1.906,3.148Z" transform="translate(-2107.033 -345.772)" fill="#fae0b2"/>
        </g>
        <g id="Grupo_31090" data-name="Grupo 31090" transform="translate(0 48.049)">
          <path id="Trazado_65191" data-name="Trazado 65191" d="M2039.145,490.339a1.84,1.84,0,0,1,1.163-2.328,60.1,60.1,0,0,1,11.109-2.565,1.84,1.84,0,0,1,.483,3.648,56.42,56.42,0,0,0-10.428,2.407A1.84,1.84,0,0,1,2039.145,490.339Z" transform="translate(-2039.05 -485.431)" fill="#fae0b2"/>
        </g>
        <g id="Grupo_31091" data-name="Grupo 31091" transform="translate(68.46 8.606)">
          <path id="Trazado_65192" data-name="Trazado 65192" d="M2362.075,315.038a1.84,1.84,0,0,1-.174-2.6,69.987,69.987,0,0,0,8.344-11.817,1.84,1.84,0,1,1,3.209,1.8,73.652,73.652,0,0,1-8.784,12.439A1.84,1.84,0,0,1,2362.075,315.038Z" transform="translate(-2361.446 -299.684)" fill="#fae0b2"/>
        </g>
        <g id="Grupo_31092" data-name="Grupo 31092" transform="translate(72.981 40.104)">
          <path id="Trazado_65193" data-name="Trazado 65193" d="M2382.766,449.556a1.84,1.84,0,0,1,2.117-1.513L2396.661,450a1.84,1.84,0,1,1-.6,3.63l-11.778-1.957A1.84,1.84,0,0,1,2382.766,449.556Z" transform="translate(-2382.74 -448.018)" fill="#fae0b2"/>
        </g>
        <g id="Grupo_31093" data-name="Grupo 31093" transform="translate(67.414 64.856)">
          <path id="Trazado_65194" data-name="Trazado 65194" d="M2365.531,576.954a1.827,1.827,0,0,1-.417-.282,57.735,57.735,0,0,1-8.245-9.172,1.84,1.84,0,1,1,2.984-2.153,54.052,54.052,0,0,0,7.718,8.586,1.84,1.84,0,0,1-2.041,3.021Z" transform="translate(-2356.522 -564.583)" fill="#fae0b2"/>
        </g>
      </g>
      <g id="Grupo_31095" data-name="Grupo 31095" transform="translate(52.291 20.915)">
        <path id="Trazado_65195" data-name="Trazado 65195" d="M594.847,337.579a9.625,9.625,0,1,1-12.713-4.87A9.623,9.623,0,0,1,594.847,337.579Z" transform="translate(-576.429 -331.872)" fill="#f7cc7f"/>
        <path id="Trazado_65196" data-name="Trazado 65196" d="M602.565,378.09a5.146,5.146,0,1,0,9.4-4.192Z" transform="translate(-597.015 -364.974)" fill="#efefef"/>
      </g>
      <path id="Trazado_65197" data-name="Trazado 65197" d="M371.022,317.65l-2.349-2.057-3.027.769a.429.429,0,0,1-.5-.585l1.23-2.87-1.667-2.641a.429.429,0,0,1,.4-.656l3.11.283,2-2.4a.429.429,0,0,1,.749.179l.692,3.045,2.9,1.157a.429.429,0,0,1,.061.767l-2.682,1.6-.2,3.116A.429.429,0,0,1,371.022,317.65Z" transform="translate(-357.323 -291.632)" fill="#96d9c9"/>
      <path id="Trazado_65198" data-name="Trazado 65198" d="M668.54,243.69l-2.349-2.057-3.027.769a.429.429,0,0,1-.5-.585l1.231-2.87-1.667-2.641a.429.429,0,0,1,.4-.656l3.11.283,2-2.4a.429.429,0,0,1,.748.179l.692,3.045,2.9,1.157a.429.429,0,0,1,.061.767l-2.683,1.6-.2,3.116A.429.429,0,0,1,668.54,243.69Z" transform="translate(-591.664 -233.377)" fill="#f47458"/>
      <path id="Trazado_65199" data-name="Trazado 65199" d="M333.754,406.948l-3.58,2.179,3.714,16.685a2.156,2.156,0,0,0,3.225,1.374h0a2.156,2.156,0,0,0,.98-2.329l-.908-3.917,3.758-2.286,3.106,2.6a2.156,2.156,0,0,0,2.5.189l.068-.042a2.156,2.156,0,0,0,.261-3.5ZM336.176,417l-.686-3.065,2.411,2.016Z" transform="translate(-330.174 -370.091)" fill="#f48c7f"/>
      <path id="Trazado_65200" data-name="Trazado 65200" d="M550.7,542.215a35.92,35.92,0,0,1,5.715,1.2c2.644.756,4.192,1.475,5.349,2.7A4.338,4.338,0,0,1,563,550.527a4.5,4.5,0,0,1-4.326,3.192l-.016.057a4.987,4.987,0,0,1,2.461,5.809,5.31,5.31,0,0,1-3.152,3.5c-1.71.711-4.22.67-8.03-.419a34.864,34.864,0,0,1-4.61-1.625Zm2.2,8.563,1.422.406c2.275.65,3.765.061,4.171-1.36.415-1.45-.475-2.535-2.437-3.1a12.37,12.37,0,0,0-1.88-.415Zm-2.429,8.5a14.168,14.168,0,0,0,1.661.536c1.962.561,3.907.317,4.485-1.7.553-1.933-.962-3.2-3.123-3.814l-1.478-.423Z" transform="translate(-499.637 -476.634)" fill="#96d9c9"/>
      <path id="Trazado_65201" data-name="Trazado 65201" d="M2313.392,893.781a1.8,1.8,0,0,1-1.321,2.147,16.789,16.789,0,0,1-3.322.427c-6.772.228-10.4-3.868-10.59-9.449-.225-6.685,4.416-10.566,10.345-10.766a15.015,15.015,0,0,1,3.05.193,1.8,1.8,0,0,1,1.441,2.159l-.014.062a1.793,1.793,0,0,1-2.057,1.386,9.97,9.97,0,0,0-2.093-.146c-3.517.119-6.177,2.333-6.03,6.692.132,3.924,2.541,6.316,6.493,6.182a11.666,11.666,0,0,0,1.982-.25,1.794,1.794,0,0,1,2.116,1.361Z" transform="translate(-1880.258 -739.644)" fill="#f48c7f"/>
    </g>
  </g>
</svg>
