<svg xmlns="http://www.w3.org/2000/svg" width="298.039" height="298.039" viewBox="0 0 298.039 298.039">
  <g id="lupa" transform="translate(149.019) rotate(45)">
    <path id="Trazado_62414" data-name="Trazado 62414" d="M411.43,393.969a12.346,12.346,0,1,1-17.461,17.461L354.22,371.681a103.977,103.977,0,0,0,17.461-17.461Z" transform="translate(-208.419 -208.419)" fill="#4dbbeb"/>
    <path id="Trazado_62415" data-name="Trazado 62415" d="M328.871,311.41l17.621,17.621a103.977,103.977,0,0,1-17.461,17.461L311.41,328.871v0a78.737,78.737,0,0,0,17.456-17.456Z" transform="translate(-183.23 -183.23)" fill="#fff5cd"/>
    <path id="Trazado_62416" data-name="Trazado 62416" d="M166.412,88.206a77.783,77.783,0,0,1-14.892,45.858,78.737,78.737,0,0,1-17.456,17.456,78.182,78.182,0,1,1,32.349-63.314Z" transform="translate(-5.884 -5.884)" fill="#4dbbeb"/>
    <path id="Trazado_62417" data-name="Trazado 62417" d="M111.742,50A61.742,61.742,0,1,1,50,111.742,61.812,61.812,0,0,1,111.742,50Z" transform="translate(-29.419 -29.419)" fill="#bee7f4"/>
    <path id="Trazado_62418" data-name="Trazado 62418" d="M205.921,182.64,150.98,127.7a81.583,81.583,0,0,0,13.665-45.376,82.322,82.322,0,1,0-82.322,82.322A81.587,81.587,0,0,0,127.7,150.98l15.186,15.186.007.007,39.749,39.749a16.463,16.463,0,1,0,23.282-23.282Zm-71.524-36.6A82.6,82.6,0,0,0,146.037,134.4l11.678,11.678a99.91,99.91,0,0,1-11.639,11.639ZM8.232,82.322a74.078,74.078,0,1,1,117.53,59.983h0A74.052,74.052,0,0,1,8.232,82.322ZM200.1,200.1a8.226,8.226,0,0,1-11.64,0l-36.549-36.549a108.16,108.16,0,0,0,11.639-11.639l36.55,36.55a8.225,8.225,0,0,1,0,11.638Z"/>
    <path id="Trazado_62419" data-name="Trazado 62419" d="M171.716,105.858a65.858,65.858,0,1,0-65.858,65.858A65.932,65.932,0,0,0,171.716,105.858Zm-65.858,57.626a57.626,57.626,0,1,1,57.626-57.626A57.691,57.691,0,0,1,105.858,163.483Z" transform="translate(-23.536 -23.536)"/>
    <path id="Trazado_62420" data-name="Trazado 62420" d="M237.877,117.043a4.116,4.116,0,0,0,2.366-5.319A49.471,49.471,0,0,0,194.116,80a4.116,4.116,0,1,0,0,8.232,41.442,41.442,0,0,1,38.443,26.445,4.112,4.112,0,0,0,5.318,2.366Z" transform="translate(-111.794 -47.071)"/>
    <path id="Trazado_62421" data-name="Trazado 62421" d="M304.116,190a4.116,4.116,0,1,0,4.116,4.116A4.118,4.118,0,0,0,304.116,190Z" transform="translate(-176.517 -111.794)"/>
  </g>
</svg>
