<svg xmlns="http://www.w3.org/2000/svg" width="414" height="365.183" viewBox="0 0 414 365.183">
  <g id="Grupo_29739" data-name="Grupo 29739" transform="translate(-366.657 -566.379)">
    <g id="Grupo_29735" data-name="Grupo 29735" transform="translate(433.453 566.379)">
      <rect id="Rectángulo_6077" data-name="Rectángulo 6077" width="244.282" height="172.28" transform="translate(0)" fill="#7a97f3"/>
      <rect id="Rectángulo_6078" data-name="Rectángulo 6078" width="227.366" height="154.371" transform="translate(8.458 8.954)" fill="#35488b"/>
      <path id="Trazado_62659" data-name="Trazado 62659" d="M910.415,1328.983h-5.362L871.544,1317.4a35.4,35.4,0,0,1-23.835-33.457V1141.476a3.8,3.8,0,0,0-3.551-3.832,3.731,3.731,0,0,0-3.912,3.727v142.572A35.4,35.4,0,0,1,816.41,1317.4L782.9,1328.983h-6.1a3.8,3.8,0,0,0-3.832,3.551,3.731,3.731,0,0,0,3.727,3.911h21.8a3.794,3.794,0,0,0,3.816-3.461,3.711,3.711,0,0,0-.77-2.546l24.624-8.511a54.551,54.551,0,0,1,35.64,0l24.048,8.312a3.712,3.712,0,0,0-.942,2.61,3.8,3.8,0,0,0,3.834,3.6H910.52a3.732,3.732,0,0,0,3.727-3.911A3.8,3.8,0,0,0,910.415,1328.983Z" transform="translate(-721.836 -971.849)" fill="#7a97f3"/>
      <rect id="Rectángulo_6079" data-name="Rectángulo 6079" width="3.234" height="172.28" transform="translate(244.282)" fill="#35488b"/>
      <rect id="Rectángulo_6080" data-name="Rectángulo 6080" width="7.463" height="6.925" transform="translate(118.409 172.28)" fill="#35488b"/>
    </g>
    <g id="Grupo_29736" data-name="Grupo 29736" transform="translate(366.657 626.241)">
      <path id="Trazado_62660" data-name="Trazado 62660" d="M740.408,1724.593l6.5-.088s-9.771-10.845-12.77-16.363l-8.249-15.236-10.8,2.671L728.793,1715Z" transform="translate(-613.966 -1425.829)" fill="#e49963"/>
      <path id="Trazado_62661" data-name="Trazado 62661" d="M432.143,774.917a13.977,13.977,0,0,0-7.564-1.447,3.538,3.538,0,0,1,1.6-.757c-1.295-.192-4.184,1.091-4.184,1.091-18.01-6.939-13.636,19.271-13.257,25.432s-13.257,8.48-22.628,13.334c-17.878,9.262-19.448,21.664-19.448,21.664.139.082.285.176.439.282.887-1.5,2.713-4.325,4.253-4.751a63.666,63.666,0,0,0-2.477,6.033c5.274,4.012,15.141,12.9,22.017,19.2a10.1,10.1,0,0,1,.468-3.9l.849,5.116c3.68,3.383,6.217,5.763,6.217,5.763-.454-4.979,22.517-31.252,34.5-39.12,2.918-4.295,3.955-11.882,4.032-12.48-.5,6.016-1.533,9.391-2.452,11.291C444.654,812.329,438.746,778.669,432.143,774.917Z" transform="translate(-366.657 -772.645)" fill="#163560"/>
      <path id="Trazado_62662" data-name="Trazado 62662" d="M551.057,903.618c.06.027-5.787,3.063-10.184,1.86-4.137-1.128-6.839-6.492-6.782-6.5,1.752-.348,2.257-2.755,2.22-13.1l.792.156,13.316,2.637s-.3,4.191-.312,8.139C550.1,900.12,550.3,903.264,551.057,903.618Z" transform="translate(-485.497 -853.013)" fill="#e49963"/>
      <path id="Trazado_62663" data-name="Trazado 62663" d="M540.667,787.569s6.569-6.993,14.816-.358C555.483,787.211,550.683,786.381,540.667,787.569Z" transform="translate(-490.166 -780.954)" fill="#e37970"/>
      <path id="Trazado_62664" data-name="Trazado 62664" d="M557.786,889.049s-.3,4.191-.312,8.139c-7.452-.21-11.39-7.008-13-10.775Z" transform="translate(-492.865 -853.394)" fill="#d68d5d"/>
      <path id="Trazado_62665" data-name="Trazado 62665" d="M527.609,814.5s-3.9-6.17-4.842-11.446c-.669-3.767,1.249-17.728,15.28-15.718a19.061,19.061,0,0,1,7.9,2.989c3.046,2.057,7.443,6.5,2.527,18.682l-1.277,4.116Z" transform="translate(-477.38 -782.934)" fill="#163560"/>
      <path id="Trazado_62666" data-name="Trazado 62666" d="M588.371,1353.529l-7.058.216-7.64.234s-17.648-19.648-27.547-51.146q-.347-1.1-.732-2.223c-5.417-15.8-16.649-35.625-22.567-53.573-.942-2.859-1.788-5.55-2.547-8.1-.243-.816-.48-1.617-.7-2.406a190.36,190.36,0,0,1-6.789-35.736l37.793.3A1156.1,1156.1,0,0,0,588.371,1353.529Z" transform="translate(-470.377 -1076.54)" fill="#2b478b"/>
      <path id="Trazado_62667" data-name="Trazado 62667" d="M548.724,981.9c.5,20.331,2.983,29.063,2.983,29.063a57.428,57.428,0,0,1-40.047,2.453c-.256-.08,1.41-84.014,7.578-86.328,1.419,1.767,5.646,3.484,9.409,3.4,4.332-.1,5.737-1.95,5.512-3.975C538.775,929.084,548.007,952.791,548.724,981.9Z" transform="translate(-469.56 -881.859)" fill="#e7f1fd"/>
      <path id="Trazado_62668" data-name="Trazado 62668" d="M555.3,835.622s-17.63.291-17.642-10.691-2.3-18.34,8.96-18.991,13.448,3.538,14.343,7.2S559.881,835.263,555.3,835.622Z" transform="translate(-487.886 -796.23)" fill="#e49963"/>
      <path id="Trazado_62669" data-name="Trazado 62669" d="M546.568,801.088c-2.721-3.3-4.778-2.581-5.933-1.59-3.81-5.693-15.852,2.54-15.852,2.54a23.282,23.282,0,0,0-6.861,12.394s3.213,1.985,10.621.08c5.83-1.5,10.061-9.8,11.6-13.265,1.048.932,3.261,3.086,3.923,5.194.879,2.8,1.274,8.554,2.952,8.358C547.019,814.8,550.656,806.042,546.568,801.088Z" transform="translate(-474.023 -790.281)" fill="#163560"/>
      <path id="Trazado_62670" data-name="Trazado 62670" d="M843.371,952.069s2.485-8.957,12.333-7.692c1.13.354,4.432,1.671,2.322,5.206-1.556,2.606-2.23,1.262-4.677,4.764s-5.1,4.293-8.139,3.874Z" transform="translate(-705.019 -894.45)" fill="#e49963"/>
      <path id="Trazado_62671" data-name="Trazado 62671" d="M519.727,1728.383c-.6-3.3-1.741-9.006-1.741-9.006l.265-20.248h-12.3l4.6,19.38a19.721,19.721,0,0,1-.945,8.093s-1.181,5.381,4.118,5.481S520.327,1731.683,519.727,1728.383Z" transform="translate(-465.527 -1430.245)" fill="#e49963"/>
      <path id="Trazado_62672" data-name="Trazado 62672" d="M517,1793.455s-1.05,5.679-.45,8.379H527.68s.047-6.167-.928-8.517C526.752,1793.318,523,1798.955,517,1793.455Z" transform="translate(-472.914 -1497.099)" fill="#233862"/>
      <path id="Trazado_62673" data-name="Trazado 62673" d="M771.174,1771.076a.657.657,0,0,1-.108-.057,9.464,9.464,0,0,1-7.592-3.543c-7.218-8.132-11.275-9.041-12.691-9.037-1.218,2.51-2.563,5.333-.832,8.512l2.584,10.127h2.787l.028-9.56c1.836.483,3.627,1.362,4.425,2.958,1.95,3.9,3.3,6.6,5.115,6.6h12.526S777.173,1773.776,771.174,1771.076Z" transform="translate(-638.126 -1472.342)" fill="#233862"/>
      <path id="Trazado_62674" data-name="Trazado 62674" d="M663,939.478s-11.573,6.47-15.706,8.336c-2.356,1.064-7.779,3.6-11.6,5.4a5.964,5.964,0,0,1-7.068-1.524c-6.274-7.329-22.529-23.223-39.3-25.173l.021.042-.1-.042s10.2,25.2,10.5,30.3,1.2,83.394,1.2,83.394-.6,3.6,6.3,2.1,8.7-3,8.7-3-6.6-48.3-4.8-65.1a37.442,37.442,0,0,0-.713-10.878,85.9,85.9,0,0,0,22.311,8.978s9.04-3.943,21.4-13c3.879-2.842,10.7-13.684,10.7-13.684Z" transform="translate(-524.644 -881.859)" fill="#ffa412"/>
      <path id="Trazado_62675" data-name="Trazado 62675" d="M597.915,1429.464l-7.64.234s-17.648-19.648-27.547-51.146q-.347-1.1-.732-2.223c-5.418-15.8-16.649-35.625-22.567-53.573-.942-2.859-1.788-5.55-2.547-8.1-.243-.816-.48-1.617-.7-2.406l6.294-4.776s18.9,30.6,24.745,59.392C572.3,1391.883,592.648,1421.979,597.915,1429.464Z" transform="translate(-486.979 -1152.259)" fill="#233862"/>
      <path id="Trazado_62676" data-name="Trazado 62676" d="M480.075,1349.692c.108,14-.6,46.2-2.424,59.524h-6.767c-3.741,0-5.607-.054-5.607-.054-4.575-23.173-7.829-42.348-10.2-58.871-1.944-13.559-3.672-25.183-5-35.191-1.338-10.07-2.268-18.5-2.6-25.627-.051-1.121-.09-2.214-.111-3.272s-.027-2.1-.018-3.105l36.927-3.6C483.81,1304.032,480.015,1341.553,480.075,1349.692Z" transform="translate(-423.927 -1132.399)" fill="#2b478b"/>
      <path id="Trazado_62677" data-name="Trazado 62677" d="M471.209,1433.617c-3.741,0-5.607-.054-5.607-.054-4.575-23.173-7.829-42.348-10.2-58.871-1.944-13.559-3.672-25.183-5-35.191-1.338-10.07-2.268-18.5-2.6-25.627l13.55,7.971S452.7,1324.9,456,1347.995,466.617,1430.347,471.209,1433.617Z" transform="translate(-424.252 -1156.799)" fill="#233862"/>
      <path id="Trazado_62678" data-name="Trazado 62678" d="M452.788,1040.113s-2.6,9.4-11.6,8.2-21.8-6.6-21.8-6.6,3.846-12.152,8.627-28.117c5.79-19.328,12.956-44.244,16.334-59.96a97.242,97.242,0,0,0,1.836-10.715l7.577-14.425s11.022,24.924,11.622,31.223S452.788,1040.113,452.788,1040.113Z" transform="translate(-404.087 -883.265)" fill="#ffa412"/>
      <path id="Trazado_62679" data-name="Trazado 62679" d="M473.488,1034.4c-.4,10.2-2.8,30-24.2,40.6-.057.027-.114.057-.171.081,5.79-19.328,12.956-44.244,16.334-59.96C469.381,1020.992,473.707,1028.786,473.488,1034.4Z" transform="translate(-425.186 -944.748)" fill="#e27f2b"/>
      <path id="Trazado_62680" data-name="Trazado 62680" d="M571.832,1059.941c-.011,1.222-3.537,9.746-9.751,14.836a6.763,6.763,0,0,1-2.935,1.6,129.133,129.133,0,0,1-26.025,6.137v-11.288c8.8-.564,19.651-1.154,24.117-1.393a13.192,13.192,0,0,0,1.886-4.5c.534-3.105,2.2-5.407,6.528-5.977S571.843,1058.721,571.832,1059.941Z" transform="translate(-484.81 -975.866)" fill="#e49963"/>
      <path id="Trazado_62681" data-name="Trazado 62681" d="M472.657,928.5s-18.376,1.225-22.776,11.025-5.8,42.4-.2,52c0,0,7.709,2.2,21.344-.354l.5-.1s4.35-10.649.45-12.749c0,0-11.5.6-10.3-3.2S472.657,928.5,472.657,928.5Z" transform="translate(-422.979 -883.265)" fill="#ffa412"/>
    </g>
    <path id="Trazado_62682" data-name="Trazado 62682" d="M517.71,760.387a20.025,20.025,0,0,0-8.368,4.115c-.2.173-.4.351-.585.531l0,0c-7.507,7.159-4.512,18.554-4.512,18.554a29.991,29.991,0,0,0,1.687,4c.688,1.117,10.656-.172,11.172-2.32a12.568,12.568,0,0,1,2.492-4.383s10.507-.722,11.214-.773c2.374-.172,9.149-2.529,9.149-2.529C539.878,776.915,536.065,755.778,517.71,760.387Z" transform="translate(-97.236 -137.237)" fill="#ffa412"/>
    <path id="Trazado_62683" data-name="Trazado 62683" d="M558.292,786.961a35.7,35.7,0,0,0-6.952-.781s-6.851,2.673-12.764,4.551c-2.779-3.5-6.817-12.148-17.124-14.616l-.09-.023c-.219.276-.343.369-.495.554l0,0a2.129,2.129,0,0,0-.149.2c8.391,1.462,12.84,11.2,15.577,14.727-2.349.578-1.524.721-4.588.922,0,0,18.365.342,26.758-4.077A.785.785,0,0,0,558.292,786.961Z" transform="translate(-109.348 -148.85)" fill="#e27f2b"/>
    <g id="Grupo_29738" data-name="Grupo 29738" transform="translate(702.525 622.445)">
      <g id="Grupo_29737" data-name="Grupo 29737" transform="translate(0 3.985)">
        <path id="Trazado_62684" data-name="Trazado 62684" d="M1705.59,929.355s23.062,23.808,24.169,32.785-10.972,23.021-10.972,23.021Z" transform="translate(-1652.874 -884.063)" fill="#4a75cb"/>
        <path id="Trazado_62685" data-name="Trazado 62685" d="M1595.576,1770.4s-.784,12.656-3.233,12.838c-.326.024-12.419.024-12.419.024l-15.438-.09s.1-3.72,4.614-4.506,12.066-3.958,14.8-9.922C1586.774,1762.472,1595.576,1770.4,1595.576,1770.4Z" transform="translate(-1552.72 -1478.132)" fill="#163560"/>
        <path id="Trazado_62686" data-name="Trazado 62686" d="M1713.946,1770.4s-.785,12.656-3.233,12.838c-.326.024-12.42.024-12.42.024l-15.485-.055s.147-3.754,4.66-4.541,12.066-3.958,14.8-9.922C1705.144,1762.472,1713.946,1770.4,1713.946,1770.4Z" transform="translate(-1636.704 -1478.132)" fill="#163560"/>
        <path id="Trazado_62687" data-name="Trazado 62687" d="M1612.7,1265.369s4.038,25.824,19.1,71.666,17.115,65.693,17.115,65.693a66.347,66.347,0,0,0,8.378.591,53.056,53.056,0,0,0,7.781-1.044s.138-50.1-6.8-73.152-1.5-83.105-1.5-83.105Z" transform="translate(-1586.943 -1108.824)" fill="#233862"/>
        <path id="Trazado_62688" data-name="Trazado 62688" d="M1585.579,1250.892a626.8,626.8,0,0,0,6.161,86.7c6.733,47.781,4.451,68.063,4.451,68.063s5.543.993,7.491,1.058c2.084.069,8.635-.522,8.635-.522s9.637-47.8,6.874-71.714,13.2-82.064,13.2-82.064Z" transform="translate(-1567.683 -1112.283)" fill="#2b478b"/>
        <path id="Trazado_62689" data-name="Trazado 62689" d="M1647.689,890.054l-7.606,5.633-10.992-2.314c.152-1,.878-5.157,1.538-8.92.04-.222.08-.444.117-.661.566-3.2,1.055-5.952,1.055-5.952l10.267-5.117,3.828-1.908c-.01.067-.3,3.554-.337,4.062A32.874,32.874,0,0,0,1647.689,890.054Z" transform="translate(-1598.576 -842.512)" fill="#ffb27d"/>
        <path id="Trazado_62690" data-name="Trazado 62690" d="M1619.59,917.628c.241-.1,14.953-4.443,16.551-3.915s2.544,3.62,2.544,3.62l-24.064,5.44S1616.516,918.923,1619.59,917.628Z" transform="translate(-1588.306 -872.929)" fill="#4a75cb"/>
        <path id="Trazado_62691" data-name="Trazado 62691" d="M1631.835,1024.993c-2.494,11.376-44,12.725-54.695,2.4-1.217-1.177-1.277-6.653-.818-14.037.9-14.426,3.781-36.126,3.893-47.213a87.786,87.786,0,0,1,1.771-15.8,128.338,128.338,0,0,1,5.264-18.915s20.271-6.553,24.064-5.439C1629.588,931.354,1634.328,1013.617,1631.835,1024.993Z" transform="translate(-1560.935 -881.58)" fill="#739af0"/>
        <path id="Trazado_62692" data-name="Trazado 62692" d="M1576.968,1067.964c.9-14.426,3.781-36.126,3.893-47.214a87.774,87.774,0,0,1,1.771-15.8l12.194-2.152S1606.748,1051.493,1576.968,1067.964Z" transform="translate(-1561.58 -936.19)" fill="#4a75cb"/>
        <path id="Trazado_62693" data-name="Trazado 62693" d="M1591.228,1153.423a2.869,2.869,0,0,1-.914,3.321c-1.746,1.334-2.878,3.5-2.478,5.075s4.229,4.156,5.556,3.741,4.029-2.5,3.738-3.329,1.817-7.311-1.419-9.8S1591.228,1153.423,1591.228,1153.423Z" transform="translate(-1569.237 -1041.756)" fill="#ffb27d"/>
        <path id="Trazado_62694" data-name="Trazado 62694" d="M1559.574,934.98s-11.893,2.225-21.369,16.19-15.71,24.347-13.965,29.38,17.657,22.489,20.4,22.489,7.17-1.995,7.419-6.483c0,0-11.2-16.79-9-19.3.943-1.075,14.544-12.116,16.486-7.129C1562.763,978.375,1559.574,934.98,1559.574,934.98Z" transform="translate(-1523.948 -888.055)" fill="#739af0"/>
        <path id="Trazado_62695" data-name="Trazado 62695" d="M1648.551,879.7c-2.254,4.314-10.655,8.045-14.159,9.417.04-.222.08-.444.117-.661.566-3.2,1.055-5.952,1.055-5.952l10.267-5.117C1648.1,877.349,1649.481,877.923,1648.551,879.7Z" transform="translate(-1602.339 -847.174)" fill="#fca56b"/>
        <path id="Trazado_62696" data-name="Trazado 62696" d="M1616.759,824.98s18.131,2.084,19.256-9.227,4.222-18.66-7.307-20.469-14.211,2.283-15.5,5.967S1612.072,824.146,1616.759,824.98Z" transform="translate(-1586.806 -788.588)" fill="#ffb27d"/>
        <path id="Trazado_62697" data-name="Trazado 62697" d="M1610.42,784.8s3.462,12.255,5.936,11.224,4.736-1.877,5.073,1.952-2.412,8.847,5.658,8,15.593-23.5,12.673-26.966C1631.335,769.013,1598.724,772.874,1610.42,784.8Z" transform="translate(-1583.547 -773.292)" fill="#233862"/>
      </g>
      <path id="Trazado_62698" data-name="Trazado 62698" d="M1622.208,782.288l-39.925-8.037,4.481-1.206s4.1-16.9,24.319-12.859C1627.9,763.547,1622.208,782.288,1622.208,782.288Z" transform="translate(-1565.353 -759.562)" fill="#ffa412"/>
    </g>
  </g>
</svg>
