<svg xmlns="http://www.w3.org/2000/svg" width="552.273" height="305.067" viewBox="0 0 552.273 305.067">
  <g id="Grupo_29614" data-name="Grupo 29614" transform="translate(-109.603 -231.966)">
    <g id="Grupo_29581" data-name="Grupo 29581" transform="translate(128.664 384.172)">
      <g id="Grupo_29580" data-name="Grupo 29580" transform="translate(211.768 66.708)">
        <path id="Trazado_62170" data-name="Trazado 62170" d="M1521.9,1416.971l-101.032-2.1-76.816-.243-2.337-.008-5.407-.016c-49.392-28.358-64.444-58.094-64.444-58.094,1.769-.457,128.169-27.411,213.441-21.4,6.837,4.472,15.478,8.311,24.094,12.813a125.424,125.424,0,0,1,13.937,8.28C1539.137,1367.276,1528.042,1385.382,1521.9,1416.971Z" transform="translate(-1271.865 -1334.238)" fill="#e1efff"/>
      </g>
      <path id="Trazado_62171" data-name="Trazado 62171" d="M689.029,1094.8c-3.972-20.961-7.463-24.266-7.463-24.266s4.171-53.418-17.278-69.021-20.742,48.917-46.142,15.482c-62.355-82.079-80.991,135.138-185.049,106.78-91.565-24.954-97.183-63.6-128.562-65.5s-34.16,67.968-52.828,52.966-56.8,4.923-43.3,34.621l463.936.868S693.985,1120.955,689.029,1094.8Z" transform="translate(-205.576 -998.353)" fill="#a8d29f"/>
    </g>
    <g id="Grupo_29583" data-name="Grupo 29583" transform="translate(470.197 431.149)">
      <path id="Trazado_62172" data-name="Trazado 62172" d="M1971.725,1235.959v2.783a1.059,1.059,0,0,1-.184.6,1.079,1.079,0,0,1-.5.4.983.983,0,0,1-.2.055,1.038,1.038,0,0,1-.189.017H1926.33a1.076,1.076,0,0,1-1.071-1.017c0-.019,0-.037,0-.055v-2.783c0-.018,0-.037,0-.055a1.076,1.076,0,0,1,1.071-1.017h44.322a1.038,1.038,0,0,1,.189.017.991.991,0,0,1,.2.055,1.077,1.077,0,0,1,.5.4A1.059,1.059,0,0,1,1971.725,1235.959Z" transform="translate(-1925.258 -1234.887)" fill="#ffb93e"/>
      <path id="Trazado_62173" data-name="Trazado 62173" d="M1949.961,1239.814h-23.745a1.016,1.016,0,0,1-.956-1.017c0-.019,0-.037,0-.055v-2.783c0-.018,0-.037,0-.055a1.016,1.016,0,0,1,.956-1.017h20.829A8.829,8.829,0,0,0,1949.961,1239.814Z" transform="translate(-1925.258 -1234.887)" fill="#ffa412"/>
      <g id="Grupo_29582" data-name="Grupo 29582" transform="translate(16.285 0)">
        <rect id="Rectángulo_5926" data-name="Rectángulo 5926" width="0.504" height="4.927" transform="translate(24.285)" fill="#ffa412"/>
        <rect id="Rectángulo_5927" data-name="Rectángulo 5927" width="0.504" height="4.927" transform="translate(22.58)" fill="#ffa412"/>
        <rect id="Rectángulo_5928" data-name="Rectángulo 5928" width="0.504" height="4.927" transform="translate(20.535)" fill="#ffa412"/>
        <rect id="Rectángulo_5929" data-name="Rectángulo 5929" width="0.504" height="4.927" transform="translate(17.401)" fill="#ffa412"/>
        <rect id="Rectángulo_5930" data-name="Rectángulo 5930" width="0.504" height="4.927" transform="translate(14.087)" fill="#ffa412"/>
        <rect id="Rectángulo_5931" data-name="Rectángulo 5931" width="0.504" height="4.927" transform="translate(9.006)" fill="#ffa412"/>
        <rect id="Rectángulo_5932" data-name="Rectángulo 5932" width="0.504" height="4.927" transform="translate(4.248)" fill="#ffa412"/>
        <rect id="Rectángulo_5933" data-name="Rectángulo 5933" width="0.504" height="4.927" fill="#ffa412"/>
        <rect id="Rectángulo_5934" data-name="Rectángulo 5934" width="0.504" height="4.927" transform="translate(25.909)" fill="#ffa412"/>
        <rect id="Rectángulo_5935" data-name="Rectángulo 5935" width="0.504" height="4.927" transform="translate(26.981)" fill="#ffa412"/>
        <rect id="Rectángulo_5936" data-name="Rectángulo 5936" width="0.504" height="4.927" transform="translate(28.016)" fill="#ffa412"/>
        <path id="Trazado_62174" data-name="Trazado 62174" d="M2152.748,1234.9v4.893a1.037,1.037,0,0,1-.189.017h-.315v-4.927h.315A1.037,1.037,0,0,1,2152.748,1234.9Z" transform="translate(-2123.449 -1234.887)" fill="#ffa412"/>
        <path id="Trazado_62175" data-name="Trazado 62175" d="M2156.272,1235.652v3.98a1.081,1.081,0,0,1-.5.4v-4.783A1.081,1.081,0,0,1,2156.272,1235.652Z" transform="translate(-2126.274 -1235.178)" fill="#ffa412"/>
      </g>
    </g>
    <g id="Grupo_29585" data-name="Grupo 29585" transform="translate(465.458 426.221)">
      <path id="Trazado_62176" data-name="Trazado 62176" d="M1947.864,1211.149v2.782a1.061,1.061,0,0,1-.184.6,1.081,1.081,0,0,1-.5.4,1.008,1.008,0,0,1-.2.055,1.055,1.055,0,0,1-.189.017h-44.322a1.076,1.076,0,0,1-1.071-1.017c0-.018,0-.037,0-.055v-2.782c0-.018,0-.037,0-.055a1.076,1.076,0,0,1,1.071-1.017h44.322q.043,0,.085,0l.036,0,.04.005.029,0a1,1,0,0,1,.2.055l.028.011.027.012.054.026.031.017.027.016.05.032c.019.013.037.026.055.041a.531.531,0,0,1,.041.034l0,0,.027.024a.962.962,0,0,1,.078.08l.021.025.021.026c.014.018.027.036.04.055A1.062,1.062,0,0,1,1947.864,1211.149Z" transform="translate(-1901.397 -1210.076)" fill="#ffb93e"/>
      <path id="Trazado_62177" data-name="Trazado 62177" d="M1926.1,1215h-23.745a1.016,1.016,0,0,1-.956-1.017c0-.018,0-.037,0-.055v-2.782c0-.018,0-.037,0-.055a1.016,1.016,0,0,1,.956-1.017h20.828l.029.122A8.785,8.785,0,0,0,1926.1,1215Z" transform="translate(-1901.397 -1210.076)" fill="#ffa412"/>
      <g id="Grupo_29584" data-name="Grupo 29584" transform="translate(16.285)">
        <rect id="Rectángulo_5937" data-name="Rectángulo 5937" width="0.504" height="4.927" transform="translate(24.285 0)" fill="#ffa412"/>
        <rect id="Rectángulo_5938" data-name="Rectángulo 5938" width="0.504" height="4.927" transform="translate(22.58 0)" fill="#ffa412"/>
        <rect id="Rectángulo_5939" data-name="Rectángulo 5939" width="0.504" height="4.927" transform="translate(20.535 0)" fill="#ffa412"/>
        <rect id="Rectángulo_5940" data-name="Rectángulo 5940" width="0.504" height="4.927" transform="translate(17.401 0)" fill="#ffa412"/>
        <rect id="Rectángulo_5941" data-name="Rectángulo 5941" width="0.504" height="4.927" transform="translate(14.087 0)" fill="#ffa412"/>
        <rect id="Rectángulo_5942" data-name="Rectángulo 5942" width="0.504" height="4.927" transform="translate(9.006 0)" fill="#ffa412"/>
        <rect id="Rectángulo_5943" data-name="Rectángulo 5943" width="0.504" height="4.927" transform="translate(4.248 0)" fill="#ffa412"/>
        <rect id="Rectángulo_5944" data-name="Rectángulo 5944" width="0.504" height="4.927" transform="translate(0 0)" fill="#ffa412"/>
        <rect id="Rectángulo_5945" data-name="Rectángulo 5945" width="0.504" height="4.927" transform="translate(25.909 0)" fill="#ffa412"/>
        <rect id="Rectángulo_5946" data-name="Rectángulo 5946" width="0.504" height="4.927" transform="translate(26.981 0)" fill="#ffa412"/>
        <rect id="Rectángulo_5947" data-name="Rectángulo 5947" width="0.504" height="4.927" transform="translate(28.016 0)" fill="#ffa412"/>
        <path id="Trazado_62178" data-name="Trazado 62178" d="M2128.887,1210.093v4.893a1.068,1.068,0,0,1-.189.017h-.315v-4.927h.315A1.035,1.035,0,0,1,2128.887,1210.093Z" transform="translate(-2099.588 -1210.076)" fill="#ffa412"/>
        <path id="Trazado_62179" data-name="Trazado 62179" d="M2132.411,1210.841v3.98a1.085,1.085,0,0,1-.5.4v-4.783A1.081,1.081,0,0,1,2132.411,1210.841Z" transform="translate(-2102.412 -1210.368)" fill="#ffa412"/>
      </g>
    </g>
    <g id="Grupo_29587" data-name="Grupo 29587" transform="translate(467.748 421.415)">
      <path id="Trazado_62180" data-name="Trazado 62180" d="M1959.4,1186.95v2.783a1.062,1.062,0,0,1-.184.6,1.08,1.08,0,0,1-.5.4,1.009,1.009,0,0,1-.2.055,1.073,1.073,0,0,1-.189.017H1914a1.06,1.06,0,0,1-.494-.122,1.078,1.078,0,0,1-.573-.848c0-.016,0-.032,0-.048s0-.037,0-.055v-2.783c0-.018,0-.037,0-.055a1.076,1.076,0,0,1,1.071-1.017h44.323a1.05,1.05,0,0,1,.189.017.991.991,0,0,1,.2.055,1.082,1.082,0,0,1,.5.4A1.061,1.061,0,0,1,1959.4,1186.95Z" transform="translate(-1912.928 -1185.878)" fill="#ffb93e"/>
      <path id="Trazado_62181" data-name="Trazado 62181" d="M1937.631,1190.806h-23.745a.864.864,0,0,1-.441-.122,1.084,1.084,0,0,1-.512-.848c0-.016,0-.032,0-.048s0-.037,0-.055v-2.783c0-.018,0-.037,0-.055a1.017,1.017,0,0,1,.956-1.017h20.829a8.885,8.885,0,0,0,2.77,4.806C1937.532,1190.725,1937.581,1190.765,1937.631,1190.806Z" transform="translate(-1912.928 -1185.878)" fill="#ffa412"/>
      <g id="Grupo_29586" data-name="Grupo 29586" transform="translate(16.285)">
        <rect id="Rectángulo_5948" data-name="Rectángulo 5948" width="0.504" height="4.927" transform="translate(24.285)" fill="#ffa412"/>
        <rect id="Rectángulo_5949" data-name="Rectángulo 5949" width="0.504" height="4.927" transform="translate(22.58)" fill="#ffa412"/>
        <rect id="Rectángulo_5950" data-name="Rectángulo 5950" width="0.504" height="4.927" transform="translate(20.535)" fill="#ffa412"/>
        <rect id="Rectángulo_5951" data-name="Rectángulo 5951" width="0.504" height="4.927" transform="translate(17.401)" fill="#ffa412"/>
        <rect id="Rectángulo_5952" data-name="Rectángulo 5952" width="0.504" height="4.927" transform="translate(14.087)" fill="#ffa412"/>
        <rect id="Rectángulo_5953" data-name="Rectángulo 5953" width="0.504" height="4.927" transform="translate(9.006)" fill="#ffa412"/>
        <rect id="Rectángulo_5954" data-name="Rectángulo 5954" width="0.504" height="4.927" transform="translate(4.248)" fill="#ffa412"/>
        <rect id="Rectángulo_5955" data-name="Rectángulo 5955" width="0.504" height="4.927" fill="#ffa412"/>
        <rect id="Rectángulo_5956" data-name="Rectángulo 5956" width="0.504" height="4.927" transform="translate(25.909)" fill="#ffa412"/>
        <rect id="Rectángulo_5957" data-name="Rectángulo 5957" width="0.504" height="4.927" transform="translate(26.981)" fill="#ffa412"/>
        <rect id="Rectángulo_5958" data-name="Rectángulo 5958" width="0.504" height="4.927" transform="translate(28.016)" fill="#ffa412"/>
        <path id="Trazado_62182" data-name="Trazado 62182" d="M2140.418,1185.9v4.893a1.083,1.083,0,0,1-.189.017h-.315v-4.927h.315A1.048,1.048,0,0,1,2140.418,1185.9Z" transform="translate(-2111.119 -1185.878)" fill="#ffa412"/>
        <path id="Trazado_62183" data-name="Trazado 62183" d="M2143.942,1186.642v3.98a1.081,1.081,0,0,1-.5.4v-4.783A1.082,1.082,0,0,1,2143.942,1186.642Z" transform="translate(-2113.944 -1186.169)" fill="#ffa412"/>
      </g>
    </g>
    <g id="Grupo_29589" data-name="Grupo 29589" transform="translate(468.81 416.488)">
      <path id="Trazado_62184" data-name="Trazado 62184" d="M1964.74,1162.14v2.782a1.064,1.064,0,0,1-.184.6,1.081,1.081,0,0,1-.5.4,1,1,0,0,1-.2.055,1.067,1.067,0,0,1-.189.017h-44.322a1.076,1.076,0,0,1-1.071-1.017c0-.019,0-.037,0-.055v-2.782c0-.019,0-.037,0-.055a1.077,1.077,0,0,1,.944-1.01.985.985,0,0,1,.127-.008h44.322a1.067,1.067,0,0,1,.189.017,1.02,1.02,0,0,1,.2.055,1.081,1.081,0,0,1,.5.4A1.064,1.064,0,0,1,1964.74,1162.14Z" transform="translate(-1918.273 -1161.067)" fill="#ffb93e"/>
      <path id="Trazado_62185" data-name="Trazado 62185" d="M1942.976,1165.995H1919.23a1.017,1.017,0,0,1-.956-1.017c0-.019,0-.037,0-.055v-2.782c0-.019,0-.037,0-.055a1.035,1.035,0,0,1,.843-1.01.792.792,0,0,1,.114-.008h20.829v.008A8.83,8.83,0,0,0,1942.976,1165.995Z" transform="translate(-1918.273 -1161.067)" fill="#ffa412"/>
      <g id="Grupo_29588" data-name="Grupo 29588" transform="translate(16.285 0)">
        <rect id="Rectángulo_5959" data-name="Rectángulo 5959" width="0.504" height="4.927" transform="translate(24.285 0)" fill="#ffa412"/>
        <rect id="Rectángulo_5960" data-name="Rectángulo 5960" width="0.504" height="4.927" transform="translate(22.58 0)" fill="#ffa412"/>
        <rect id="Rectángulo_5961" data-name="Rectángulo 5961" width="0.504" height="4.927" transform="translate(20.536 0)" fill="#ffa412"/>
        <rect id="Rectángulo_5962" data-name="Rectángulo 5962" width="0.504" height="4.927" transform="translate(17.401 0)" fill="#ffa412"/>
        <rect id="Rectángulo_5963" data-name="Rectángulo 5963" width="0.504" height="4.927" transform="translate(14.087 0)" fill="#ffa412"/>
        <rect id="Rectángulo_5964" data-name="Rectángulo 5964" width="0.504" height="4.927" transform="translate(9.006 0)" fill="#ffa412"/>
        <rect id="Rectángulo_5965" data-name="Rectángulo 5965" width="0.503" height="4.927" transform="translate(4.248 0)" fill="#ffa412"/>
        <rect id="Rectángulo_5966" data-name="Rectángulo 5966" width="0.504" height="4.927" transform="translate(0 0)" fill="#ffa412"/>
        <rect id="Rectángulo_5967" data-name="Rectángulo 5967" width="0.504" height="4.927" transform="translate(25.909 0)" fill="#ffa412"/>
        <rect id="Rectángulo_5968" data-name="Rectángulo 5968" width="0.504" height="4.927" transform="translate(26.981 0)" fill="#ffa412"/>
        <rect id="Rectángulo_5969" data-name="Rectángulo 5969" width="0.504" height="4.927" transform="translate(28.016 0)" fill="#ffa412"/>
        <path id="Trazado_62186" data-name="Trazado 62186" d="M2145.763,1161.084v4.893a1.053,1.053,0,0,1-.189.017h-.315v-4.927h.315A1.064,1.064,0,0,1,2145.763,1161.084Z" transform="translate(-2116.464 -1161.067)" fill="#ffa412"/>
        <path id="Trazado_62187" data-name="Trazado 62187" d="M2149.287,1161.832v3.98a1.08,1.08,0,0,1-.5.4v-4.783A1.08,1.08,0,0,1,2149.287,1161.832Z" transform="translate(-2119.288 -1161.359)" fill="#ffa412"/>
      </g>
    </g>
    <g id="Grupo_29591" data-name="Grupo 29591" transform="translate(465.551 411.568)">
      <path id="Trazado_62188" data-name="Trazado 62188" d="M1948.332,1137.369v2.783a1.061,1.061,0,0,1-.184.6,1.079,1.079,0,0,1-.5.4,1.019,1.019,0,0,1-.2.055c-.021,0-.042.007-.062.009l-.035,0-.035,0-.057,0h-44.322a1.077,1.077,0,0,1-1.071-1.018c0-.018,0-.037,0-.055v-2.783c0-.019,0-.037,0-.055s0-.03,0-.045a1.079,1.079,0,0,1,.8-.939l.033-.008a1.074,1.074,0,0,1,.232-.025h44.322c.033,0,.065,0,.1,0l.043,0h0l.05.008a1.009,1.009,0,0,1,.2.055,1.078,1.078,0,0,1,.5.4A1.06,1.06,0,0,1,1948.332,1137.369Z" transform="translate(-1901.865 -1136.297)" fill="#ffb93e"/>
      <path id="Trazado_62189" data-name="Trazado 62189" d="M1926.568,1141.224h-23.745a1.017,1.017,0,0,1-.956-1.018c0-.018,0-.037,0-.055v-2.783c0-.019,0-.037,0-.055s0-.03,0-.045a1.044,1.044,0,0,1,.743-.945.285.285,0,0,1,.041-.01.836.836,0,0,1,.169-.017h20.829c0,.012.005.023.008.035a8.817,8.817,0,0,0,2.9,4.884Z" transform="translate(-1901.865 -1136.297)" fill="#ffa412"/>
      <g id="Grupo_29590" data-name="Grupo 29590" transform="translate(16.285 0)">
        <rect id="Rectángulo_5970" data-name="Rectángulo 5970" width="0.503" height="4.927" transform="translate(24.285 0)" fill="#ffa412"/>
        <rect id="Rectángulo_5971" data-name="Rectángulo 5971" width="0.504" height="4.927" transform="translate(22.58 0)" fill="#ffa412"/>
        <rect id="Rectángulo_5972" data-name="Rectángulo 5972" width="0.504" height="4.927" transform="translate(20.535 0)" fill="#ffa412"/>
        <rect id="Rectángulo_5973" data-name="Rectángulo 5973" width="0.504" height="4.927" transform="translate(17.401 0)" fill="#ffa412"/>
        <rect id="Rectángulo_5974" data-name="Rectángulo 5974" width="0.504" height="4.927" transform="translate(14.086 0)" fill="#ffa412"/>
        <rect id="Rectángulo_5975" data-name="Rectángulo 5975" width="0.504" height="4.927" transform="translate(9.005 0)" fill="#ffa412"/>
        <rect id="Rectángulo_5976" data-name="Rectángulo 5976" width="0.504" height="4.927" transform="translate(4.248 0)" fill="#ffa412"/>
        <rect id="Rectángulo_5977" data-name="Rectángulo 5977" width="0.504" height="4.927" transform="translate(0 0)" fill="#ffa412"/>
        <rect id="Rectángulo_5978" data-name="Rectángulo 5978" width="0.504" height="4.927" transform="translate(25.908 0)" fill="#ffa412"/>
        <rect id="Rectángulo_5979" data-name="Rectángulo 5979" width="0.504" height="4.927" transform="translate(26.981 0)" fill="#ffa412"/>
        <rect id="Rectángulo_5980" data-name="Rectángulo 5980" width="0.504" height="4.927" transform="translate(28.016 0)" fill="#ffa412"/>
        <path id="Trazado_62190" data-name="Trazado 62190" d="M2129.356,1136.313v4.893a1.05,1.05,0,0,1-.189.017h-.315V1136.3h.315A1.039,1.039,0,0,1,2129.356,1136.313Z" transform="translate(-2100.057 -1136.296)" fill="#ffa412"/>
        <path id="Trazado_62191" data-name="Trazado 62191" d="M2132.88,1137.062v3.98a1.079,1.079,0,0,1-.5.4v-4.783A1.077,1.077,0,0,1,2132.88,1137.062Z" transform="translate(-2102.882 -1136.588)" fill="#ffa412"/>
      </g>
    </g>
    <g id="Grupo_29593" data-name="Grupo 29593" transform="translate(465.458 406.676)">
      <path id="Trazado_62192" data-name="Trazado 62192" d="M1947.864,1112.735v2.782a1.062,1.062,0,0,1-.184.6,1.079,1.079,0,0,1-.5.4.987.987,0,0,1-.153.047h0l-.042.009a1.044,1.044,0,0,1-.189.017h-44.322a.958.958,0,0,1-.139-.01.5.5,0,0,1-.053-.008,1.076,1.076,0,0,1-.88-1c0-.018,0-.037,0-.055v-2.782c0-.018,0-.037,0-.055a1.076,1.076,0,0,1,1.071-1.017h44.322c.028,0,.057,0,.085,0l.036,0,.04.005.029,0a.975.975,0,0,1,.2.055l.028.011.027.012.054.026.058.033.05.032.055.041.041.034,0,0,.027.024a.965.965,0,0,1,.078.08l.021.025.021.026c.014.018.027.036.04.055A1.061,1.061,0,0,1,1947.864,1112.735Z" transform="translate(-1901.397 -1111.663)" fill="#ffb93e"/>
      <path id="Trazado_62193" data-name="Trazado 62193" d="M1926.1,1116.59h-23.745l-.056,0-.061-.006a1.034,1.034,0,0,1-.839-1.009c0-.018,0-.037,0-.055v-2.782c0-.018,0-.037,0-.055a1.016,1.016,0,0,1,.956-1.017h20.828l.029.122a8.8,8.8,0,0,0,2.845,4.771Z" transform="translate(-1901.397 -1111.663)" fill="#ffa412"/>
      <g id="Grupo_29592" data-name="Grupo 29592" transform="translate(16.285 0)">
        <rect id="Rectángulo_5981" data-name="Rectángulo 5981" width="0.504" height="4.927" transform="translate(24.285 0)" fill="#ffa412"/>
        <rect id="Rectángulo_5982" data-name="Rectángulo 5982" width="0.504" height="4.927" transform="translate(22.58 0)" fill="#ffa412"/>
        <rect id="Rectángulo_5983" data-name="Rectángulo 5983" width="0.504" height="4.927" transform="translate(20.535 0)" fill="#ffa412"/>
        <rect id="Rectángulo_5984" data-name="Rectángulo 5984" width="0.504" height="4.927" transform="translate(17.401 0)" fill="#ffa412"/>
        <rect id="Rectángulo_5985" data-name="Rectángulo 5985" width="0.504" height="4.927" transform="translate(14.087 0)" fill="#ffa412"/>
        <rect id="Rectángulo_5986" data-name="Rectángulo 5986" width="0.504" height="4.927" transform="translate(9.006 0)" fill="#ffa412"/>
        <rect id="Rectángulo_5987" data-name="Rectángulo 5987" width="0.504" height="4.927" transform="translate(4.248 0)" fill="#ffa412"/>
        <rect id="Rectángulo_5988" data-name="Rectángulo 5988" width="0.504" height="4.927" transform="translate(0 0)" fill="#ffa412"/>
        <rect id="Rectángulo_5989" data-name="Rectángulo 5989" width="0.504" height="4.927" transform="translate(25.909 0)" fill="#ffa412"/>
        <rect id="Rectángulo_5990" data-name="Rectángulo 5990" width="0.504" height="4.927" transform="translate(26.981 0)" fill="#ffa412"/>
        <rect id="Rectángulo_5991" data-name="Rectángulo 5991" width="0.504" height="4.927" transform="translate(28.016 0)" fill="#ffa412"/>
        <path id="Trazado_62194" data-name="Trazado 62194" d="M2128.887,1111.68v4.893a1.068,1.068,0,0,1-.189.017h-.315v-4.928h.315A1.046,1.046,0,0,1,2128.887,1111.68Z" transform="translate(-2099.588 -1111.663)" fill="#ffa412"/>
        <path id="Trazado_62195" data-name="Trazado 62195" d="M2132.411,1112.428v3.98a1.081,1.081,0,0,1-.5.4v-4.783A1.084,1.084,0,0,1,2132.411,1112.428Z" transform="translate(-2102.412 -1111.954)" fill="#ffa412"/>
      </g>
    </g>
    <g id="Grupo_29595" data-name="Grupo 29595" transform="translate(467.748 401.87)">
      <path id="Trazado_62196" data-name="Trazado 62196" d="M1959.4,1088.537v2.783a1.063,1.063,0,0,1-.184.6,1.08,1.08,0,0,1-.5.4,1,1,0,0,1-.2.055,1.061,1.061,0,0,1-.189.017H1914a1.063,1.063,0,0,1-.494-.121,1.078,1.078,0,0,1-.573-.848c0-.016,0-.032,0-.048s0-.037,0-.055v-2.783c0-.018,0-.037,0-.055a1.076,1.076,0,0,1,1.071-1.017h44.323a1.039,1.039,0,0,1,.189.017.983.983,0,0,1,.2.055,1.08,1.08,0,0,1,.5.4A1.061,1.061,0,0,1,1959.4,1088.537Z" transform="translate(-1912.928 -1087.465)" fill="#ffb93e"/>
      <path id="Trazado_62197" data-name="Trazado 62197" d="M1937.631,1092.392h-23.745a.866.866,0,0,1-.441-.121,1.084,1.084,0,0,1-.512-.848c0-.016,0-.032,0-.048s0-.037,0-.055v-2.783c0-.018,0-.037,0-.055a1.017,1.017,0,0,1,.956-1.017h20.829a8.886,8.886,0,0,0,2.77,4.806C1937.532,1092.312,1937.581,1092.352,1937.631,1092.392Z" transform="translate(-1912.928 -1087.465)" fill="#ffa412"/>
      <g id="Grupo_29594" data-name="Grupo 29594" transform="translate(16.285)">
        <rect id="Rectángulo_5992" data-name="Rectángulo 5992" width="0.504" height="4.927" transform="translate(24.285 0)" fill="#ffa412"/>
        <rect id="Rectángulo_5993" data-name="Rectángulo 5993" width="0.504" height="4.927" transform="translate(22.58 0)" fill="#ffa412"/>
        <rect id="Rectángulo_5994" data-name="Rectángulo 5994" width="0.504" height="4.927" transform="translate(20.535 0)" fill="#ffa412"/>
        <rect id="Rectángulo_5995" data-name="Rectángulo 5995" width="0.504" height="4.927" transform="translate(17.401 0)" fill="#ffa412"/>
        <rect id="Rectángulo_5996" data-name="Rectángulo 5996" width="0.504" height="4.927" transform="translate(14.087 0)" fill="#ffa412"/>
        <rect id="Rectángulo_5997" data-name="Rectángulo 5997" width="0.504" height="4.927" transform="translate(9.006 0)" fill="#ffa412"/>
        <rect id="Rectángulo_5998" data-name="Rectángulo 5998" width="0.504" height="4.927" transform="translate(4.248 0)" fill="#ffa412"/>
        <rect id="Rectángulo_5999" data-name="Rectángulo 5999" width="0.504" height="4.927" transform="translate(0 0)" fill="#ffa412"/>
        <rect id="Rectángulo_6000" data-name="Rectángulo 6000" width="0.504" height="4.927" transform="translate(25.909 0)" fill="#ffa412"/>
        <rect id="Rectángulo_6001" data-name="Rectángulo 6001" width="0.504" height="4.927" transform="translate(26.981 0)" fill="#ffa412"/>
        <rect id="Rectángulo_6002" data-name="Rectángulo 6002" width="0.504" height="4.927" transform="translate(28.016 0)" fill="#ffa412"/>
        <path id="Trazado_62198" data-name="Trazado 62198" d="M2140.418,1087.482v4.893a1.059,1.059,0,0,1-.189.017h-.315v-4.927h.315A1.048,1.048,0,0,1,2140.418,1087.482Z" transform="translate(-2111.119 -1087.465)" fill="#ffa412"/>
        <path id="Trazado_62199" data-name="Trazado 62199" d="M2143.942,1088.23v3.98a1.081,1.081,0,0,1-.5.4v-4.783A1.079,1.079,0,0,1,2143.942,1088.23Z" transform="translate(-2113.944 -1087.757)" fill="#ffa412"/>
      </g>
    </g>
    <g id="Grupo_29597" data-name="Grupo 29597" transform="translate(471.37 396.943)">
      <path id="Trazado_62200" data-name="Trazado 62200" d="M1977.632,1063.726v2.783a1.063,1.063,0,0,1-.184.6,1.079,1.079,0,0,1-.5.4,1.012,1.012,0,0,1-.2.055,1.033,1.033,0,0,1-.189.017h-44.322a1.076,1.076,0,0,1-1.071-1.017c0-.018,0-.037,0-.055v-2.783c0-.018,0-.037,0-.055a1.077,1.077,0,0,1,.944-1.01,1.016,1.016,0,0,1,.127-.008h44.322a1.066,1.066,0,0,1,.189.017,1.021,1.021,0,0,1,.2.055,1.077,1.077,0,0,1,.5.4A1.063,1.063,0,0,1,1977.632,1063.726Z" transform="translate(-1931.165 -1062.654)" fill="#ffb93e"/>
      <path id="Trazado_62201" data-name="Trazado 62201" d="M1955.868,1067.582h-23.745a1.017,1.017,0,0,1-.956-1.017c0-.018,0-.037,0-.055v-2.783c0-.018,0-.037,0-.055a1.034,1.034,0,0,1,.843-1.01.806.806,0,0,1,.113-.008h20.829l0,.008A8.829,8.829,0,0,0,1955.868,1067.582Z" transform="translate(-1931.165 -1062.654)" fill="#ffa412"/>
      <g id="Grupo_29596" data-name="Grupo 29596" transform="translate(16.285 0)">
        <rect id="Rectángulo_6003" data-name="Rectángulo 6003" width="0.504" height="4.927" transform="translate(24.285 0)" fill="#ffa412"/>
        <rect id="Rectángulo_6004" data-name="Rectángulo 6004" width="0.504" height="4.927" transform="translate(22.58 0)" fill="#ffa412"/>
        <rect id="Rectángulo_6005" data-name="Rectángulo 6005" width="0.504" height="4.927" transform="translate(20.535 0)" fill="#ffa412"/>
        <rect id="Rectángulo_6006" data-name="Rectángulo 6006" width="0.503" height="4.927" transform="translate(17.401 0)" fill="#ffa412"/>
        <rect id="Rectángulo_6007" data-name="Rectángulo 6007" width="0.504" height="4.927" transform="translate(14.087 0)" fill="#ffa412"/>
        <rect id="Rectángulo_6008" data-name="Rectángulo 6008" width="0.504" height="4.927" transform="translate(9.006 0)" fill="#ffa412"/>
        <rect id="Rectángulo_6009" data-name="Rectángulo 6009" width="0.504" height="4.927" transform="translate(4.248 0)" fill="#ffa412"/>
        <rect id="Rectángulo_6010" data-name="Rectángulo 6010" width="0.504" height="4.927" transform="translate(0 0)" fill="#ffa412"/>
        <rect id="Rectángulo_6011" data-name="Rectángulo 6011" width="0.504" height="4.927" transform="translate(25.908 0)" fill="#ffa412"/>
        <rect id="Rectángulo_6012" data-name="Rectángulo 6012" width="0.504" height="4.927" transform="translate(26.981 0)" fill="#ffa412"/>
        <rect id="Rectángulo_6013" data-name="Rectángulo 6013" width="0.504" height="4.927" transform="translate(28.016 0)" fill="#ffa412"/>
        <path id="Trazado_62202" data-name="Trazado 62202" d="M2158.655,1062.671v4.893a1.031,1.031,0,0,1-.189.017h-.315v-4.927h.315A1.064,1.064,0,0,1,2158.655,1062.671Z" transform="translate(-2129.356 -1062.654)" fill="#ffa412"/>
        <path id="Trazado_62203" data-name="Trazado 62203" d="M2162.18,1063.42v3.98a1.081,1.081,0,0,1-.5.4v-4.783A1.078,1.078,0,0,1,2162.18,1063.42Z" transform="translate(-2132.182 -1062.947)" fill="#ffa412"/>
      </g>
    </g>
    <g id="Grupo_29599" data-name="Grupo 29599" transform="translate(440.209 431.162)">
      <path id="Trazado_62204" data-name="Trazado 62204" d="M1820.731,1236.024v2.782a1.062,1.062,0,0,1-.184.6,1.08,1.08,0,0,1-.5.4,1.01,1.01,0,0,1-.2.055,1.052,1.052,0,0,1-.189.017h-44.323a1.076,1.076,0,0,1-1.071-1.017c0-.019,0-.037,0-.055v-2.782c0-.018,0-.037,0-.055a1.077,1.077,0,0,1,.944-1.01.994.994,0,0,1,.127-.008h44.323a1.052,1.052,0,0,1,.189.017,1.027,1.027,0,0,1,.2.055,1.082,1.082,0,0,1,.5.4A1.061,1.061,0,0,1,1820.731,1236.024Z" transform="translate(-1774.264 -1234.951)" fill="#ffb93e"/>
      <path id="Trazado_62205" data-name="Trazado 62205" d="M1798.967,1239.879h-23.745a1.017,1.017,0,0,1-.956-1.017c0-.019,0-.037,0-.055v-2.782c0-.018,0-.037,0-.055a1.034,1.034,0,0,1,.843-1.01.784.784,0,0,1,.113-.008h20.829l0,.008A8.827,8.827,0,0,0,1798.967,1239.879Z" transform="translate(-1774.264 -1234.951)" fill="#ffa412"/>
      <g id="Grupo_29598" data-name="Grupo 29598" transform="translate(16.285 0)">
        <rect id="Rectángulo_6014" data-name="Rectángulo 6014" width="0.504" height="4.927" transform="translate(24.285 0)" fill="#ffa412"/>
        <rect id="Rectángulo_6015" data-name="Rectángulo 6015" width="0.504" height="4.927" transform="translate(22.58 0)" fill="#ffa412"/>
        <rect id="Rectángulo_6016" data-name="Rectángulo 6016" width="0.504" height="4.927" transform="translate(20.535 0)" fill="#ffa412"/>
        <rect id="Rectángulo_6017" data-name="Rectángulo 6017" width="0.504" height="4.927" transform="translate(17.401 0)" fill="#ffa412"/>
        <rect id="Rectángulo_6018" data-name="Rectángulo 6018" width="0.504" height="4.927" transform="translate(14.087 0)" fill="#ffa412"/>
        <rect id="Rectángulo_6019" data-name="Rectángulo 6019" width="0.504" height="4.927" transform="translate(9.006 0)" fill="#ffa412"/>
        <rect id="Rectángulo_6020" data-name="Rectángulo 6020" width="0.504" height="4.927" transform="translate(4.248 0)" fill="#ffa412"/>
        <rect id="Rectángulo_6021" data-name="Rectángulo 6021" width="0.504" height="4.927" transform="translate(0 0)" fill="#ffa412"/>
        <rect id="Rectángulo_6022" data-name="Rectángulo 6022" width="0.504" height="4.927" transform="translate(25.908 0)" fill="#ffa412"/>
        <rect id="Rectángulo_6023" data-name="Rectángulo 6023" width="0.504" height="4.927" transform="translate(26.981 0)" fill="#ffa412"/>
        <rect id="Rectángulo_6024" data-name="Rectángulo 6024" width="0.504" height="4.927" transform="translate(28.016 0)" fill="#ffa412"/>
        <path id="Trazado_62206" data-name="Trazado 62206" d="M2001.754,1234.968v4.893a1.078,1.078,0,0,1-.189.017h-.315v-4.928h.315A1.055,1.055,0,0,1,2001.754,1234.968Z" transform="translate(-1972.455 -1234.951)" fill="#ffa412"/>
        <path id="Trazado_62207" data-name="Trazado 62207" d="M2005.279,1235.716v3.98a1.081,1.081,0,0,1-.5.4v-4.783A1.082,1.082,0,0,1,2005.279,1235.716Z" transform="translate(-1975.28 -1235.243)" fill="#ffa412"/>
      </g>
    </g>
    <g id="Grupo_29601" data-name="Grupo 29601" transform="translate(434.39 426.242)">
      <path id="Trazado_62208" data-name="Trazado 62208" d="M1791.432,1211.252v2.783a1.062,1.062,0,0,1-.184.6,1.08,1.08,0,0,1-.5.4,1.014,1.014,0,0,1-.2.055l-.062.01-.05,0-.025,0h-44.375a1.076,1.076,0,0,1-1.071-1.017c0-.018,0-.036,0-.055v-2.783c0-.018,0-.037,0-.055a1.076,1.076,0,0,1,1.071-1.017h44.322l.057,0a1.045,1.045,0,0,1,.132.015.989.989,0,0,1,.2.055.878.878,0,0,1,.093.041c.019.01.038.019.055.03l.006,0,.054.034.009.006a.567.567,0,0,1,.048.035.929.929,0,0,1,.107.093l.03.031.005.006.018.02,0,0,.031.039c.015.019.029.038.043.058A1.063,1.063,0,0,1,1791.432,1211.252Z" transform="translate(-1744.965 -1210.18)" fill="#ffb93e"/>
      <path id="Trazado_62209" data-name="Trazado 62209" d="M1769.667,1215.107h-23.745a1.016,1.016,0,0,1-.956-1.017c0-.018,0-.036,0-.055v-2.783c0-.018,0-.037,0-.055a1.017,1.017,0,0,1,.956-1.017h20.829c.008.037.017.075.027.114a8.785,8.785,0,0,0,2.879,4.806Z" transform="translate(-1744.965 -1210.18)" fill="#ffa412"/>
      <g id="Grupo_29600" data-name="Grupo 29600" transform="translate(16.285 0)">
        <rect id="Rectángulo_6025" data-name="Rectángulo 6025" width="0.503" height="4.927" transform="translate(24.286 0)" fill="#ffa412"/>
        <rect id="Rectángulo_6026" data-name="Rectángulo 6026" width="0.504" height="4.927" transform="translate(22.58 0)" fill="#ffa412"/>
        <rect id="Rectángulo_6027" data-name="Rectángulo 6027" width="0.504" height="4.927" transform="translate(20.535 0)" fill="#ffa412"/>
        <rect id="Rectángulo_6028" data-name="Rectángulo 6028" width="0.504" height="4.927" transform="translate(17.401 0)" fill="#ffa412"/>
        <rect id="Rectángulo_6029" data-name="Rectángulo 6029" width="0.504" height="4.927" transform="translate(14.087 0)" fill="#ffa412"/>
        <rect id="Rectángulo_6030" data-name="Rectángulo 6030" width="0.504" height="4.927" transform="translate(9.006 0)" fill="#ffa412"/>
        <rect id="Rectángulo_6031" data-name="Rectángulo 6031" width="0.504" height="4.927" transform="translate(4.248 0)" fill="#ffa412"/>
        <rect id="Rectángulo_6032" data-name="Rectángulo 6032" width="0.504" height="4.927" transform="translate(0 0)" fill="#ffa412"/>
        <rect id="Rectángulo_6033" data-name="Rectángulo 6033" width="0.504" height="4.927" transform="translate(25.909 0)" fill="#ffa412"/>
        <rect id="Rectángulo_6034" data-name="Rectángulo 6034" width="0.504" height="4.927" transform="translate(26.981 0)" fill="#ffa412"/>
        <rect id="Rectángulo_6035" data-name="Rectángulo 6035" width="0.504" height="4.927" transform="translate(28.016 0)" fill="#ffa412"/>
        <path id="Trazado_62210" data-name="Trazado 62210" d="M1972.454,1210.2v4.893a1.029,1.029,0,0,1-.189.017h-.315v-4.927h.315A1.051,1.051,0,0,1,1972.454,1210.2Z" transform="translate(-1943.155 -1210.18)" fill="#ffa412"/>
        <path id="Trazado_62211" data-name="Trazado 62211" d="M1975.979,1210.946v3.98a1.081,1.081,0,0,1-.5.4v-4.783A1.079,1.079,0,0,1,1975.979,1210.946Z" transform="translate(-1945.981 -1210.472)" fill="#ffa412"/>
      </g>
    </g>
    <g id="Grupo_29603" data-name="Grupo 29603" transform="translate(437.649 421.428)">
      <path id="Trazado_62212" data-name="Trazado 62212" d="M1807.839,1187.015v2.782a1.062,1.062,0,0,1-.184.6,1.083,1.083,0,0,1-.5.4,1.021,1.021,0,0,1-.2.055,1.058,1.058,0,0,1-.189.017h-44.322a1.061,1.061,0,0,1-.479-.114,1.076,1.076,0,0,1-.589-.859c0-.014,0-.029,0-.044s0-.037,0-.055v-2.782c0-.018,0-.037,0-.055a1.076,1.076,0,0,1,.944-1.01.985.985,0,0,1,.127-.008h44.322a1.069,1.069,0,0,1,.189.017,1.03,1.03,0,0,1,.2.055,1.082,1.082,0,0,1,.5.4A1.062,1.062,0,0,1,1807.839,1187.015Z" transform="translate(-1761.372 -1185.943)" fill="#ffb93e"/>
      <path id="Trazado_62213" data-name="Trazado 62213" d="M1786.074,1190.87h-23.745a.863.863,0,0,1-.427-.114,1.083,1.083,0,0,1-.526-.859c0-.014,0-.029,0-.044s0-.037,0-.055v-2.782c0-.018,0-.037,0-.055a1.034,1.034,0,0,1,.843-1.01.779.779,0,0,1,.113-.008h20.829l0,.008a8.88,8.88,0,0,0,2.778,4.806C1785.982,1190.795,1786.028,1190.833,1786.074,1190.87Z" transform="translate(-1761.372 -1185.943)" fill="#ffa412"/>
      <g id="Grupo_29602" data-name="Grupo 29602" transform="translate(16.285 0)">
        <rect id="Rectángulo_6036" data-name="Rectángulo 6036" width="0.504" height="4.927" transform="translate(24.286 0)" fill="#ffa412"/>
        <rect id="Rectángulo_6037" data-name="Rectángulo 6037" width="0.504" height="4.927" transform="translate(22.58 0)" fill="#ffa412"/>
        <rect id="Rectángulo_6038" data-name="Rectángulo 6038" width="0.504" height="4.927" transform="translate(20.536 0)" fill="#ffa412"/>
        <rect id="Rectángulo_6039" data-name="Rectángulo 6039" width="0.504" height="4.927" transform="translate(17.401 0)" fill="#ffa412"/>
        <rect id="Rectángulo_6040" data-name="Rectángulo 6040" width="0.504" height="4.927" transform="translate(14.087 0)" fill="#ffa412"/>
        <rect id="Rectángulo_6041" data-name="Rectángulo 6041" width="0.504" height="4.927" transform="translate(9.006 0)" fill="#ffa412"/>
        <rect id="Rectángulo_6042" data-name="Rectángulo 6042" width="0.504" height="4.927" transform="translate(4.248 0)" fill="#ffa412"/>
        <rect id="Rectángulo_6043" data-name="Rectángulo 6043" width="0.504" height="4.927" transform="translate(0 0)" fill="#ffa412"/>
        <rect id="Rectángulo_6044" data-name="Rectángulo 6044" width="0.504" height="4.927" transform="translate(25.909 0)" fill="#ffa412"/>
        <rect id="Rectángulo_6045" data-name="Rectángulo 6045" width="0.504" height="4.927" transform="translate(26.981 0)" fill="#ffa412"/>
        <rect id="Rectángulo_6046" data-name="Rectángulo 6046" width="0.504" height="4.927" transform="translate(28.016 0)" fill="#ffa412"/>
        <path id="Trazado_62214" data-name="Trazado 62214" d="M1988.861,1185.959v4.893a1.058,1.058,0,0,1-.189.017h-.315v-4.927h.315A1.058,1.058,0,0,1,1988.861,1185.959Z" transform="translate(-1959.562 -1185.942)" fill="#ffa412"/>
        <path id="Trazado_62215" data-name="Trazado 62215" d="M1992.386,1186.708v3.98a1.082,1.082,0,0,1-.5.4v-4.783A1.081,1.081,0,0,1,1992.386,1186.708Z" transform="translate(-1962.388 -1186.234)" fill="#ffa412"/>
      </g>
    </g>
    <g id="Grupo_29605" data-name="Grupo 29605" transform="translate(434.39 416.509)">
      <path id="Trazado_62216" data-name="Trazado 62216" d="M1791.432,1162.244v2.783a1.062,1.062,0,0,1-.184.6,1.081,1.081,0,0,1-.5.4,1.023,1.023,0,0,1-.2.055l-.062.009-.035,0-.035,0-.057,0h-44.322a1.076,1.076,0,0,1-1.071-1.017c0-.018,0-.037,0-.055v-2.783c0-.018,0-.037,0-.055a1.076,1.076,0,0,1,1.071-1.017h44.322a1.053,1.053,0,0,1,.189.017,1,1,0,0,1,.2.055,1.078,1.078,0,0,1,.5.4A1.061,1.061,0,0,1,1791.432,1162.244Z" transform="translate(-1744.965 -1161.172)" fill="#ffb93e"/>
      <path id="Trazado_62217" data-name="Trazado 62217" d="M1769.667,1166.1h-23.745a1.017,1.017,0,0,1-.956-1.017c0-.018,0-.037,0-.055v-2.783c0-.018,0-.037,0-.055a1.016,1.016,0,0,1,.956-1.017h20.829a8.83,8.83,0,0,0,2.907,4.92Z" transform="translate(-1744.965 -1161.172)" fill="#ffa412"/>
      <g id="Grupo_29604" data-name="Grupo 29604" transform="translate(16.285)">
        <rect id="Rectángulo_6047" data-name="Rectángulo 6047" width="0.503" height="4.927" transform="translate(24.286)" fill="#ffa412"/>
        <rect id="Rectángulo_6048" data-name="Rectángulo 6048" width="0.504" height="4.927" transform="translate(22.58)" fill="#ffa412"/>
        <rect id="Rectángulo_6049" data-name="Rectángulo 6049" width="0.504" height="4.927" transform="translate(20.535)" fill="#ffa412"/>
        <rect id="Rectángulo_6050" data-name="Rectángulo 6050" width="0.504" height="4.927" transform="translate(17.401)" fill="#ffa412"/>
        <rect id="Rectángulo_6051" data-name="Rectángulo 6051" width="0.504" height="4.927" transform="translate(14.087)" fill="#ffa412"/>
        <rect id="Rectángulo_6052" data-name="Rectángulo 6052" width="0.504" height="4.927" transform="translate(9.006)" fill="#ffa412"/>
        <rect id="Rectángulo_6053" data-name="Rectángulo 6053" width="0.504" height="4.927" transform="translate(4.248)" fill="#ffa412"/>
        <rect id="Rectángulo_6054" data-name="Rectángulo 6054" width="0.504" height="4.927" fill="#ffa412"/>
        <rect id="Rectángulo_6055" data-name="Rectángulo 6055" width="0.504" height="4.927" transform="translate(25.909)" fill="#ffa412"/>
        <rect id="Rectángulo_6056" data-name="Rectángulo 6056" width="0.504" height="4.927" transform="translate(26.981)" fill="#ffa412"/>
        <rect id="Rectángulo_6057" data-name="Rectángulo 6057" width="0.504" height="4.927" transform="translate(28.016)" fill="#ffa412"/>
        <path id="Trazado_62218" data-name="Trazado 62218" d="M1972.454,1161.189v4.893a1.062,1.062,0,0,1-.189.017h-.315v-4.927h.315A1.04,1.04,0,0,1,1972.454,1161.189Z" transform="translate(-1943.155 -1161.172)" fill="#ffa412"/>
        <path id="Trazado_62219" data-name="Trazado 62219" d="M1975.979,1161.937v3.98a1.081,1.081,0,0,1-.5.4v-4.783A1.078,1.078,0,0,1,1975.979,1161.937Z" transform="translate(-1945.981 -1161.464)" fill="#ffa412"/>
      </g>
    </g>
    <g id="Grupo_29606" data-name="Grupo 29606" transform="translate(121.716 422.771)">
      <path id="Trazado_62220" data-name="Trazado 62220" d="M170.6,1435.025l287.813-.213,2.689-32.4-29.288-36.282-37.34-.022L362.245,1354l-64.962,24.262-23.529,30.847-40.921-6.715Z" transform="translate(-170.596 -1321.964)" fill="#bdd8ff"/>
      <path id="Trazado_62221" data-name="Trazado 62221" d="M1405.5,1206.007h35.294l11.818,7.443,4.551-7.422,85.422-.021,23.359,9.115,27.281-22.42,47.017,24.509,32.433,51.3-32.789,37.041H1407.8l23.586-37.041-45.372-20.31Z" transform="translate(-1144.625 -1192.701)" fill="#bdd8ff"/>
      <path id="Trazado_62222" data-name="Trazado 62222" d="M1728.151,1316.107l-31.9,44.068-79-24.408-97.959,31.638-23.586,37.041h232.086l32.789-37.041Z" transform="translate(-1232.537 -1291.599)" fill="#9fc1f4"/>
      <path id="Trazado_62223" data-name="Trazado 62223" d="M170.6,1582.892l70.688-23.667,70.514,10.9,38.182-24.709,59.847-6.9,47.525,7.128,1.056,37.041Z" transform="translate(-170.596 -1469.831)" fill="#9fc1f4"/>
      <path id="Trazado_62224" data-name="Trazado 62224" d="M1760.584,1545.226l-64.331-7.231-66.939,30.536-110.02-23.305-23.586,37.041h232.086Z" transform="translate(-1232.537 -1469.419)" fill="#77a4e5"/>
      <path id="Trazado_62225" data-name="Trazado 62225" d="M1000.6,1574.4l-38.574,26.716-48.284-17.187-65.271,27.512h153.185Z" transform="translate(-713.841 -1498.595)" fill="#77a4e5"/>
      <path id="Trazado_62226" data-name="Trazado 62226" d="M690.012,1507.011l54.232-18.465-30.7-12.382Z" transform="translate(-586.855 -1419.867)" fill="#9fc1f4"/>
      <path id="Trazado_62227" data-name="Trazado 62227" d="M1553.7,1259.7l-153.818,40.559,68.4-40.538Z" transform="translate(-1155.744 -1246.392)" fill="#9fc1f4"/>
      <path id="Trazado_62228" data-name="Trazado 62228" d="M1360.724,1446.647l-62.883-31.66,37.992.022Z" transform="translate(-1073.967 -1370.84)" fill="#9fc1f4"/>
    </g>
    <g id="Grupo_29609" data-name="Grupo 29609" transform="translate(274.967 257.109)">
      <path id="Trazado_62229" data-name="Trazado 62229" d="M1125.341,478.627l-.007,1.37s.373,4.284-4.9,4.909-9.6.545-9.458-2.761a69.792,69.792,0,0,0,1.362-8.65,14.859,14.859,0,0,0-.188-2.565l10.222-.2,3.011.492Z" transform="translate(-1077.459 -448.451)" fill="#ffb27d"/>
      <path id="Trazado_62230" data-name="Trazado 62230" d="M1130.13,471.218l-.039,7.409a8.642,8.642,0,0,1-3.684.813c-4.7,0-7.734-3.445-9.321-5.945a14.871,14.871,0,0,0-.188-2.565l10.222-.2Z" transform="translate(-1082.21 -448.451)" fill="#e2915a"/>
      <path id="Trazado_62231" data-name="Trazado 62231" d="M1106.218,398.607c1.186,6.383,9.422,6.173,12.981,5.772,1-.111,1.632-.239,1.632-.239,1.129-.3,1.76-2.081,2.052-4.411.581-4.611-.153-11.38-.932-13.112-1.172-2.605-3.381-5.423-11.674-3.39S1104.7,390.429,1106.218,398.607Z" transform="translate(-1072.313 -377.772)" fill="#ffb27d"/>
      <path id="Trazado_62232" data-name="Trazado 62232" d="M1079.024,1386.148h11.67a28.166,28.166,0,0,0-.931-4.189,11.908,11.908,0,0,0-.661-1.681c-1.135-2.266-8.344-.825-8.344-.825a5.552,5.552,0,0,0-1.193,2.765A23.25,23.25,0,0,0,1079.024,1386.148Z" transform="translate(-1051.858 -1176.34)" fill="#233862"/>
      <path id="Trazado_62233" data-name="Trazado 62233" d="M1256.574,1363.3c.032,1.588.232,3.09.808,3.683h23.084c-.293-.835-1.124-2.091-3.494-2.476-2.693-.436-6.891-1.732-9.341-4.323a6.95,6.95,0,0,1-1.809-3.275c-1.086-4.835-8.98,1.481-8.98,1.481A39.116,39.116,0,0,0,1256.574,1363.3Z" transform="translate(-1194.142 -1157.173)" fill="#233862"/>
      <path id="Trazado_62234" data-name="Trazado 62234" d="M1132.462,895.678a36.431,36.431,0,0,1,.579,4.264c.734,14.314,12.049,47.042,14.073,47.806,3.131,1.182,8.063-1.33,10.643-2.152a2.213,2.213,0,0,0,1.553-2.513c-5.6-25.761-7.663-62.855-8.412-84.816a99.653,99.653,0,0,0-2.277-18.7s-27.6-7.363-27.761,1.951C1120.714,849.756,1130,882.081,1132.462,895.678Z" transform="translate(-1085.384 -741.821)" fill="#2b478b"/>
      <path id="Trazado_62235" data-name="Trazado 62235" d="M1132.462,895.678l18.436-37.413a99.653,99.653,0,0,0-2.277-18.7s-27.6-7.363-27.761,1.951C1120.714,849.756,1130,882.081,1132.462,895.678Z" transform="translate(-1085.384 -741.821)" fill="#233862"/>
      <path id="Trazado_62236" data-name="Trazado 62236" d="M1085.286,847.126,1070.7,952.864s-6.407,1.545-11.39.309c0,0-4.271-56.236-3.915-69.831s-3.065-36.38.781-38.892S1085.286,847.126,1085.286,847.126Z" transform="translate(-1032.068 -747.401)" fill="#2b478b"/>
      <path id="Trazado_62237" data-name="Trazado 62237" d="M1109.914,361.335a27.436,27.436,0,0,1-7.956-2.153c-3.495-1.519-7.9.154-9.335.908a2.126,2.126,0,0,1,.349-.861,1.922,1.922,0,0,0-.738,1.093c-.066.049-.1.082-.079.094a2.462,2.462,0,0,0-1.2.077s.327-.047.444.164a.2.2,0,0,0,.053.058c-5.452,2.634-5.955,11.25-4.2,13.243,2.111,2.4,4.642,7.8,4.642,7.8a4.631,4.631,0,0,0,.539-3.387c-.384-2.111,1.439-2.111,3.742-3.07s.384-3.646,2.4-5.277,9.4-.672,9.306-1.919C1110.625,367.106,1109.914,361.616,1109.914,361.335Z" transform="translate(-1057.732 -358.565)" fill="#233862"/>
      <path id="Trazado_62238" data-name="Trazado 62238" d="M1104.723,537.476l3.359,72.07s28.034.458,27.234-5.886-10.105-63.977-10.105-63.977l-20.488-2.207Z" transform="translate(-1072.454 -501.944)" fill="#e9f3fe"/>
      <path id="Trazado_62239" data-name="Trazado 62239" d="M1032.589,567.512c1.668,5-1.476,21.793-2.6,27.481-.246,1.2-.41,1.914-.41,1.914,3.883,6.316,18.1,6.234,18.1,6.234,2.734-12.086,4.156-31.336,4.156-31.336l-10.91-47.825L1027.2,536.668s1.039,7.739,2.324,15.613C1030.538,558.516,1031.686,564.859,1032.589,567.512Z" transform="translate(-1010.328 -491.128)" fill="#22407a"/>
      <path id="Trazado_62240" data-name="Trazado 62240" d="M1171.8,465.684s.266.823,2.344.523c0,0,1.745-.252,1.615-1.17A5.659,5.659,0,0,0,1171.8,465.684Z" transform="translate(-1126.209 -443.799)" fill="#fff"/>
      <path id="Trazado_62241" data-name="Trazado 62241" d="M1203.03,528.277l.006.03c.663.643,19.378,18.813,23,25.93,3.692,7.219-16.871,21.6-16.871,21.6a4.783,4.783,0,0,1-2.241.318c.969,7.982,2.058,15.348,1.413,18.492-1.165,5.682-6.421,7.59-6.421,7.153,0-.139-1.354-20.719-2.967-31.349-3.578-23.594-7.845-45.737-7.845-45.737A39.461,39.461,0,0,1,1203.03,528.277Zm11.143,29.078a.164.164,0,0,0,.028-.109c0-1.04-3.965-3.337-8.258-6.043l-.082-.083-.008-.005c.076,2.211.068,4.381-.064,6.4a81.887,81.887,0,0,0,.482,12.783C1208.314,567.107,1213.773,558.531,1214.172,557.355Z" transform="translate(-1141.681 -491.717)" fill="#22407a"/>
      <g id="Grupo_29608" data-name="Grupo 29608" transform="translate(31.475 30.306)">
        <path id="Trazado_62242" data-name="Trazado 62242" d="M1100.721,516.937c-.034-.688,3.224-1.638,3.224-1.638s3.729,5.17,9.872,5.259c0,0-1.75,3.407-3.814,4.289C1110,524.848,1100.924,521.022,1100.721,516.937Z" transform="translate(-1100.721 -514.477)" fill="#d9e9f9"/>
        <g id="Grupo_29607" data-name="Grupo 29607" transform="translate(12.632 7.032)">
          <path id="Trazado_62243" data-name="Trazado 62243" d="M1173.418,594.327a6.8,6.8,0,0,1-2.167,4.4l-1.955,1.8a1.145,1.145,0,0,1-1.675-.134l-2.422-3.075a4.083,4.083,0,0,1-.855-2.913c.227-2.327.649-6.81.986-11.137.275-3.506.5-6.912.512-8.984.053-6.616-1.259-27.713-1.259-27.713l1.586.083a84.947,84.947,0,0,1,6,19.332,73.731,73.731,0,0,1,1.1,8.686S1174.094,586.718,1173.418,594.327Z" transform="translate(-1164.326 -546.567)" fill="#c65447"/>
          <path id="Trazado_62244" data-name="Trazado 62244" d="M1173.418,672.669a6.8,6.8,0,0,1-2.167,4.4l-1.955,1.8a1.145,1.145,0,0,1-1.675-.134l-2.422-3.075a4.083,4.083,0,0,1-.855-2.913c.227-2.327.649-6.81.986-11.137,4.383-4.924,6.159-11.729,6.84-17.283a73.73,73.73,0,0,1,1.1,8.686S1174.094,665.06,1173.418,672.669Z" transform="translate(-1164.326 -624.909)" fill="#ba4c43"/>
        </g>
        <path id="Trazado_62245" data-name="Trazado 62245" d="M1166.662,524.824s3.255-1.929,3.266-4.021c0,0,2.1-.263,3.02.756,0,0,.772,3.585-.252,5.667C1172.7,527.226,1168.009,526.512,1166.662,524.824Z" transform="translate(-1153.566 -518.863)" fill="#d9e9f9"/>
        <path id="Trazado_62246" data-name="Trazado 62246" d="M1154.791,535.343l4.413-1.058a.668.668,0,0,1,.561.769,5.617,5.617,0,0,1-1.786,2.987C1157.435,538.209,1153.747,536.8,1154.791,535.343Z" transform="translate(-1143.904 -529.693)" fill="#ba4c43"/>
        <path id="Trazado_62247" data-name="Trazado 62247" d="M1103.308,513.266c-.034-.688,2.171-2.1,2.171-2.1s4.268,4.988,10.411,5.077c0,0-1.75,3.407-3.814,4.289C1112.076,520.528,1103.511,517.35,1103.308,513.266Z" transform="translate(-1102.794 -511.161)" fill="#e9f3fe"/>
        <path id="Trazado_62248" data-name="Trazado 62248" d="M1166.662,521.245s3.292-1.745,3.3-3.836a10.508,10.508,0,0,1,2.9,1.893,6.039,6.039,0,0,1-.174,4.345S1168.009,522.933,1166.662,521.245Z" transform="translate(-1153.566 -516.168)" fill="#e9f3fe"/>
      </g>
      <path id="Trazado_62249" data-name="Trazado 62249" d="M1263.76,775.641a3.034,3.034,0,0,0-3.432-3.036,1.877,1.877,0,0,0-1.274.7c-1.25,1.664-2.439,6.5-.224,6.731a4.864,4.864,0,0,0,2.951-1.218c.906-.689,1.979-1.767,1.979-2.9Z" transform="translate(-1194.962 -690.349)" fill="#ffb27d"/>
      <path id="Trazado_62250" data-name="Trazado 62250" d="M1039.37,709.192c4.019-4.184,10.965-12.414,10.719-19.169-.328-9.461-11.184-23.542-11.184-23.542,1.012,6.234,2.16,12.578,3.062,15.231C1043.635,686.715,1040.491,703.5,1039.37,709.192Z" transform="translate(-1019.707 -605.328)" fill="#233862"/>
      <path id="Trazado_62251" data-name="Trazado 62251" d="M1037.565,798.679s2.89,1.445,4.644.722,3.818-1.265,5.779.967,2.374,3.78,1.961,4.605-4.984.516-5.743,0-1.958-1.786-2.719-1.565c-2.1.61-3.868-.992-4.858-2.267C1036.031,800.372,1037.643,800,1037.565,798.679Z" transform="translate(-1017.776 -711.271)" fill="#ffb27d"/>
      <path id="Trazado_62252" data-name="Trazado 62252" d="M972.84,523.98s-11.509,1.274-14.224,6.286-16.828,25.324-16.366,33.765S961.5,581.938,961.5,581.938s4.162-1.758,4.224-3.651-12.991-13.2-12.2-15.311,15.165-18.8,16.551-24.3S972.84,523.98,972.84,523.98Z" transform="translate(-942.24 -491.128)" fill="#22407a"/>
      <path id="Trazado_62253" data-name="Trazado 62253" d="M1265.315,636.8l.082.083c4.293,2.706,8.258,5,8.258,6.043.574-1.833-5-9.489-6.809-11.047C1265.014,630.3,1265.315,636.8,1265.315,636.8Z" transform="translate(-1201.137 -577.401)" fill="#233862"/>
      <path id="Trazado_62254" data-name="Trazado 62254" d="M1093.845,511.161s8.737,36.6,7.347,50.38c0,0-3.213-14.731-10.943-26.8,0,0,2.821-2.481,2.668-3.4a9.656,9.656,0,0,0-4.126-.2s.224-15.775,1.491-17.441A9.232,9.232,0,0,1,1093.845,511.161Z" transform="translate(-1059.686 -480.855)" fill="#233862"/>
      <path id="Trazado_62255" data-name="Trazado 62255" d="M1183.287,517.409c-.118.055,8.659,35.76,9.4,47.188,0,0-.876-20.394-.789-26.271,0,0-3.629-1.921-3.629-2.6s3.871-2.5,3.871-2.5-2.451-12.559-3.789-13.943S1183.287,517.409,1183.287,517.409Z" transform="translate(-1135.414 -485.862)" fill="#233862"/>
    </g>
    <path id="Trazado_62256" data-name="Trazado 62256" d="M977.814,1414.986h67.922l-60.661,31.437-21.995-6.9Z" transform="translate(-683.974 -948.069)" fill="#9fc1f4"/>
    <g id="Grupo_29610" data-name="Grupo 29610" transform="translate(275.09 435.557)">
      <path id="Trazado_62257" data-name="Trazado 62257" d="M968.882,1309.216l28.875-.034a6.853,6.853,0,0,0,6.825-6.841l-.015-12.513a6.853,6.853,0,0,0-6.841-6.824l-28.875.033a6.853,6.853,0,0,0-6.825,6.841l.015,12.513A6.853,6.853,0,0,0,968.882,1309.216Z" transform="translate(-958.22 -1277.856)" fill="#a03732"/>
      <path id="Trazado_62258" data-name="Trazado 62258" d="M984.487,1265.49v0a6.884,6.884,0,0,0-5.276-3.421H979.2c-.221-.021-.444-.033-.672-.033l-5.749.008,0-2.7a2.264,2.264,0,0,0-2.265-2.26h-1.5l-6.037.007h-1.088a2.265,2.265,0,0,0-2.26,2.265l0,2.7-9.925.011a6.88,6.88,0,0,0-6.851,6.866l.016,12.659a6.877,6.877,0,0,0,6.866,6.849l28.823-.032a6.7,6.7,0,0,0,1.48-.165h.005a6.742,6.742,0,0,0,2.125-.873,6.871,6.871,0,0,0,3.241-5.828l-.014-12.657A6.8,6.8,0,0,0,984.487,1265.49Zm-23.44-6.135a.849.849,0,0,1,.845-.846l1.282,0,4.752,0,2.59,0a.845.845,0,0,1,.846.843l0,2.7-10.314.01Z" transform="translate(-942.857 -1257.082)" fill="#c65447"/>
    </g>
    <path id="Trazado_62259" data-name="Trazado 62259" d="M2003.876,437.556H2000.3V235.6a1.787,1.787,0,0,1,1.787-1.788h0a1.788,1.788,0,0,1,1.788,1.788Z" transform="translate(-1515.2 -1.48)" fill="#233862"/>
    <path id="Trazado_62260" data-name="Trazado 62260" d="M1662.27,272.7s15.094-11.718,34.259-4.766a55.574,55.574,0,0,0,36.45,0V234.169a55.574,55.574,0,0,1-36.45,0c-19.165-6.951-34.259,4.766-34.259,4.766Z" transform="translate(-1244.303 0)" fill="#ffb93e"/>
    <path id="Trazado_62261" data-name="Trazado 62261" d="M1693.351,261.223c-23.336-5.967-31.081,20.366-31.081,20.366s15.094-11.718,34.259-4.766a55.574,55.574,0,0,0,36.45,0V243.06S1716.687,267.19,1693.351,261.223Z" transform="translate(-1244.303 -8.891)" fill="#ffa412"/>
    <g id="Grupo_29613" data-name="Grupo 29613" transform="translate(431.828 375.645)">
      <circle id="Elipse_1383" data-name="Elipse 1383" cx="25.084" cy="25.084" r="25.084" transform="translate(2.188 35.475) rotate(-45)" fill="#e2810e"/>
      <circle id="Elipse_1384" data-name="Elipse 1384" cx="25.084" cy="25.084" r="25.084" transform="translate(0 35.475) rotate(-45)" fill="#ffb93e"/>
      <g id="Grupo_29611" data-name="Grupo 29611" transform="translate(12.62 12.916)">
        <path id="Trazado_62262" data-name="Trazado 62262" d="M1818.459,1066.16a22.855,22.855,0,1,1,16.161-6.694A22.7,22.7,0,0,1,1818.459,1066.16Zm0-44.346a21.491,21.491,0,1,0,15.2,6.294A21.351,21.351,0,0,0,1818.459,1021.814Z" transform="translate(-1795.604 -1020.451)" fill="#ffa412"/>
      </g>
      <g id="Grupo_29612" data-name="Grupo 29612" transform="translate(25.465 18.892)">
        <path id="Trazado_62263" data-name="Trazado 62263" d="M1873.437,1074.053a3.773,3.773,0,0,0-.054-1.327,2.754,2.754,0,0,0-.561-1.1,5.2,5.2,0,0,0-1.122-.99,13.684,13.684,0,0,0-1.739-.974,36.073,36.073,0,0,1-3.211-1.765,11.376,11.376,0,0,1-2.4-1.954,6.69,6.69,0,0,1-1.418-2.381,7.554,7.554,0,0,1,.61-5.712,6.353,6.353,0,0,1,1.771-1.967,7.924,7.924,0,0,1,2.536-1.208,10.58,10.58,0,0,1,3.166-.365l.447-3.767,3.032.36-.453,3.82a9.491,9.491,0,0,1,2.854,1.213,7.17,7.17,0,0,1,3.194,4.583,9.543,9.543,0,0,1,.125,3.237l-5.476-.65a4.647,4.647,0,0,0-.563-3.271,3.229,3.229,0,0,0-2.386-1.345,4.1,4.1,0,0,0-1.5.064,2.781,2.781,0,0,0-1.091.531,2.592,2.592,0,0,0-.7.907,3.807,3.807,0,0,0-.334,1.192,3.5,3.5,0,0,0,.05,1.2,2.583,2.583,0,0,0,.538,1.055,5.216,5.216,0,0,0,1.131.991,17.661,17.661,0,0,0,1.807,1.045q1.756.9,3.178,1.8a11.507,11.507,0,0,1,2.389,1.971,6.462,6.462,0,0,1,1.663,5.419,6.907,6.907,0,0,1-.87,2.717,6.279,6.279,0,0,1-1.778,1.949,7.662,7.662,0,0,1-2.55,1.161,11.425,11.425,0,0,1-3.182.337l-.416,3.5-3.013-.357.414-3.485a12.8,12.8,0,0,1-2.96-1.047,8.11,8.11,0,0,1-2.425-1.832,7.262,7.262,0,0,1-1.521-2.724,8.837,8.837,0,0,1-.252-3.707l5.476.65a5.445,5.445,0,0,0,.1,2.128,3.52,3.52,0,0,0,.779,1.449,3.418,3.418,0,0,0,1.252.863,5.874,5.874,0,0,0,1.5.383,4.9,4.9,0,0,0,1.59-.043,3.256,3.256,0,0,0,1.2-.5,2.594,2.594,0,0,0,.8-.878A3.164,3.164,0,0,0,1873.437,1074.053Z" transform="translate(-1860.281 -1050.541)" fill="#ffa412"/>
      </g>
    </g>
    <path id="Trazado_62264" data-name="Trazado 62264" d="M661.186,1762.463H110.293a.692.692,0,0,1-.69-.69h0a.692.692,0,0,1,.69-.69H661.186a.692.692,0,0,1,.69.69h0A.692.692,0,0,1,661.186,1762.463Z" transform="translate(0 -1225.43)" fill="#2e3552"/>
  </g>
</svg>
