<svg xmlns="http://www.w3.org/2000/svg" width="634" height="394.973" viewBox="0 0 634 394.973">
  <g id="Grupo_29496" data-name="Grupo 29496" transform="translate(-148.081 -168.074)">
    <g id="Grupo_29276" data-name="Grupo 29276" transform="translate(170.639 168.074)">
      <path id="Trazado_61759" data-name="Trazado 61759" d="M832.659,562.138H285.624s-74.212-72.709-27-158.254,110.626-42.526,107.556-142.091S512.019,153.672,559.417,182.54s47.113,63.641,144.959,52.136,116.539,84.4,91.083,133.273a63.5,63.5,0,0,0-4.034,9.4c-.2.585-.374,1.163-.54,1.734C774.2,436.473,904.279,444.121,832.659,562.138Z" transform="translate(-242.91 -168.074)" fill="#ebf3fa"/>
    </g>
    <g id="Grupo_29277" data-name="Grupo 29277" transform="translate(255.137 525.881)">
      <path id="Trazado_61760" data-name="Trazado 61760" d="M599.71,1707.576h31.846c1.707-1.448-1.181-4.735-4.2-4.956a18.608,18.608,0,0,0-4.861.575c-.438-5.821-2.941-31.987-12.373-30.936-10.605,1.177,0,11.523,3,17.649a145.664,145.664,0,0,1,5.634,14.114c-.861.187-1.752.37-2.663.537-1.406-4.316-6.636-18.833-13.287-17.988-7.809.99-4.67,6.811.865,10.266,4.061,2.541,9.047,6.152,11.417,7.9a33.831,33.831,0,0,1-6.228.5C603.405,1705.1,600.742,1706.712,599.71,1707.576Z" transform="translate(-598.126 -1672.229)" fill="#a8d29f"/>
    </g>
    <g id="Grupo_29278" data-name="Grupo 29278" transform="translate(712.924 533.348)">
      <path id="Trazado_61761" data-name="Trazado 61761" d="M2548.1,1731.5h-25.118c-1.346-1.142.931-3.734,3.311-3.909a14.658,14.658,0,0,1,3.834.454c.346-4.591,2.319-25.229,9.759-24.4,8.364.928,0,9.089-2.365,13.92a114.829,114.829,0,0,0-4.444,11.132c.679.147,1.382.292,2.1.424,1.109-3.4,5.234-14.854,10.48-14.187,6.159.781,3.684,5.372-.682,8.1-3.2,2-7.136,4.852-9,6.228a26.708,26.708,0,0,0,4.912.394C2545.188,1729.552,2547.288,1730.82,2548.1,1731.5Z" transform="translate(-2522.583 -1703.623)" fill="#a8d29f"/>
    </g>
    <g id="Grupo_29281" data-name="Grupo 29281" transform="translate(261.141 351.497)">
      <g id="Grupo_29279" data-name="Grupo 29279" transform="translate(5.564 0)">
        <path id="Trazado_61762" data-name="Trazado 61762" d="M700.8,998.526s-5.35-49.211-42.753-59.189c0,0-7.292-1.828-10.768,6.02s11.237,9.732,19.93,14.14S695.389,980.439,700.8,998.526Z" transform="translate(-646.754 -939.152)" fill="#dfebfd"/>
      </g>
      <g id="Grupo_29280" data-name="Grupo 29280" transform="translate(0 28.973)">
        <path id="Trazado_61763" data-name="Trazado 61763" d="M683.3,1086.277s-26.561-29.157-46.393-24.906-13.68,13.658-7.7,12.63,17.552-5.332,28.544-.526S683.3,1086.277,683.3,1086.277Z" transform="translate(-623.364 -1060.948)" fill="#dfebfd"/>
      </g>
    </g>
    <g id="Grupo_29284" data-name="Grupo 29284" transform="translate(642.081 459.32)">
      <g id="Grupo_29282" data-name="Grupo 29282" transform="translate(0.387)">
        <path id="Trazado_61764" data-name="Trazado 61764" d="M2226.393,1463.141s6.372-58.617,50.924-70.5c0,0,8.685-2.177,12.826,7.17s-13.385,11.593-23.74,16.843S2232.834,1441.6,2226.393,1463.141Z" transform="translate(-2226.393 -1392.419)" fill="#dfebfd"/>
      </g>
      <g id="Grupo_29283" data-name="Grupo 29283" transform="translate(0 34.51)">
        <path id="Trazado_61765" data-name="Trazado 61765" d="M2224.768,1567.662s31.637-34.73,55.259-29.666,16.294,16.268,9.177,15.044-20.907-6.352-34-.626S2224.768,1567.662,2224.768,1567.662Z" transform="translate(-2224.768 -1537.492)" fill="#dfebfd"/>
      </g>
    </g>
    <g id="Grupo_29285" data-name="Grupo 29285" transform="translate(235.023 405.296)">
      <path id="Trazado_61766" data-name="Trazado 61766" d="M594.058,1188.719s1.7,27-3.34,27.008.271-30.225.271-30.225-23.066-14.83-32.8-15.089c0,0,12.025,27.648,7.135,26.413S546.58,1167.4,546.58,1167.4s-24.57-7.767-30.448,6.635-.281,22.659,3.329,24.051,27.552,4.038,26.548,7.066-17.762,6-26.419,2.091c0,0,6.9,25.753,20.093,26.124s18.226-7.2,26.374-6.824,13.778,3.28,9.474,4.954-17.783-1.476-24.988,3.26-12.9,7.5-1.1,11.479,33.723,5.116,39.221-3.66l.688-1.1a4.956,4.956,0,0,1-.687,1.1c2.073,1.579,4.653,8.207,6.388,13.261.231.852.616,2.04,1.206,3.66h0c.23.728.413,1.323.539,1.738,2.947,11.206-1.595,29.367-1.595,29.367l2.5,1.015c8.03-17.875-.136-34.386-.136-34.386-5.022-12.913-3.406-23.43-3.406-23.43s24.9-10.159,16.219-29.2C610.375,1204.6,603.026,1192.664,594.058,1188.719Z" transform="translate(-513.571 -1165.311)" fill="#cddff9"/>
    </g>
    <g id="Grupo_29286" data-name="Grupo 29286" transform="translate(560.734 371.105)">
      <path id="Trazado_61767" data-name="Trazado 61767" d="M2008.929,1036.212c-4.44-18.869-36.23-14.09-36.23-14.09s-22.554,32-28.821,32.568,13.934-31.12,13.934-31.12c-12.052-1.576-43.363,12.189-43.363,12.189s.664,38.242-5.55,37.252,1.142-33.891,1.142-33.891c-11.819,3.112-23.2,16.378-23.2,16.378-14.4,21.745,14.3,39.091,14.3,39.091s-.056,13.258-8.759,28.174h0a45.064,45.064,0,0,0-3.983,7.447l3.19.107q.434-1.268.949-2.444a.019.019,0,0,1,.007-.014l.015-.033c.235-.485.573-1.175.993-2.015l0,0s0,0,0,0c1.039-1.873,1.745-3.258,2.2-4.26a.031.031,0,0,0,0-.009c3.122-5.883,7.591-13.535,10.452-15.075a6.175,6.175,0,0,1-.634-1.484l.634,1.484c5.067,11.871,32.3,14.738,47.62,12.134s8.83-7.112.874-14.343-25.179-5.976-30.158-8.873,2.524-5.375,12.639-4.254,14.844,11.42,31.173,13.53,29.847-28.244,29.847-28.244c-11.429,3.125-31.5-3.791-32.15-7.713s29.371-2.52,34.09-3.531S2013.37,1055.081,2008.929,1036.212Z" transform="translate(-1882.799 -1021.581)" fill="#dfebfd"/>
    </g>
    <g id="Grupo_29391" data-name="Grupo 29391" transform="translate(296.539 193.937)">
      <g id="Grupo_29289" data-name="Grupo 29289" transform="translate(254.709 103.338)">
        <g id="Grupo_29287" data-name="Grupo 29287" transform="translate(0.009)">
          <path id="Trazado_61768" data-name="Trazado 61768" d="M1842.965,713.826s17.389-6.345,19.76.731-19.76-.731-19.76-.731Z" transform="translate(-1842.965 -711.211)" fill="#a0d694"/>
        </g>
        <g id="Grupo_29288" data-name="Grupo 29288" transform="translate(0 2.622)">
          <path id="Trazado_61769" data-name="Trazado 61769" d="M1856.735,732.57c-2.613,5.963-13.81-10.338-13.81-10.338S1859.347,726.607,1856.735,732.57Z" transform="translate(-1842.925 -722.232)" fill="#a0d694"/>
        </g>
      </g>
      <g id="Grupo_29292" data-name="Grupo 29292" transform="translate(205.52 47.444)">
        <g id="Grupo_29290" data-name="Grupo 29290">
          <path id="Trazado_61770" data-name="Trazado 61770" d="M1636.441,497.53s-2.32-20.557,5.989-21.271-5.989,21.271-5.989,21.271Z" transform="translate(-1636.143 -476.242)" fill="#a8d29f"/>
        </g>
        <g id="Grupo_29291" data-name="Grupo 29291" transform="translate(0.302 8.277)">
          <path id="Trazado_61771" data-name="Trazado 61771" d="M1652.273,511.78c5.791,4.406-14.86,12.282-14.86,12.282S1646.483,507.374,1652.273,511.78Z" transform="translate(-1637.413 -511.039)" fill="#a8d29f"/>
        </g>
      </g>
      <g id="Grupo_29295" data-name="Grupo 29295" transform="translate(94.17 22.036)">
        <g id="Grupo_29293" data-name="Grupo 29293">
          <path id="Trazado_61772" data-name="Trazado 61772" d="M1180.1,393.006s-17.117-15.845-10.548-22.573,10.548,22.573,10.548,22.573Z" transform="translate(-1168.047 -369.43)" fill="#a0d694"/>
        </g>
        <g id="Grupo_29294" data-name="Grupo 29294" transform="translate(10.805 2.147)">
          <path id="Trazado_61773" data-name="Trazado 61773" d="M1218.37,378.463c8.188-.5-3.646,21.429-3.646,21.429S1210.182,378.964,1218.37,378.463Z" transform="translate(-1213.468 -378.454)" fill="#a0d694"/>
        </g>
      </g>
      <g id="Grupo_29296" data-name="Grupo 29296" transform="translate(0 94.591)">
        <path id="Trazado_61774" data-name="Trazado 61774" d="M1137.43,947.141l-310.1,1.04a1.849,1.849,0,0,1-.349-.347.589.589,0,0,1-.046-.074c-.447-.817-2.544-2.4-5.682-4.65v0c-6.39-4.588-17.093-11.956-26.874-21.216q-.828-.782-1.641-1.582c-.485-.475-.968-.957-1.443-1.443-19.124-19.375-32.294-46.024,2.762-72.873,57.723-44.211-76.1-47.377,32.635-169.77.837-.942,174.842-3.13,177.15-.621,38.224,41.559,28.957,94.032,32.952,118.9C1048.088,864.828,1171.318,823.79,1137.43,947.141Z" transform="translate(-772.173 -674.44)" fill="#6385db"/>
      </g>
      <g id="Grupo_29297" data-name="Grupo 29297" transform="translate(3.759 280.725)">
        <path id="Trazado_61775" data-name="Trazado 61775" d="M1105.973,1544.52h-318c5.508-15.344,24.05-52.577,45.749-65.3,33.5-19.639,111.5-27.751,174.054-18.484C1080.558,1471.521,1104.433,1527.374,1105.973,1544.52Z" transform="translate(-787.976 -1456.913)" fill="#ef873a"/>
      </g>
      <g id="Grupo_29301" data-name="Grupo 29301" transform="translate(59.812 87.892)">
        <g id="Grupo_29298" data-name="Grupo 29298" transform="translate(40.051 102.234)">
          <path id="Trazado_61776" data-name="Trazado 61776" d="M1236.682,1206.132c-35.706.551-37.617-12-39.189-25.441-.651-5.566-1.073-15.181-1.523-26.716-.19-4.831-.385-10-.6-15.344-.414-10.3-1.208-20.9-1.92-29.148-.782-9.023-1.47-15.248-1.47-15.248l72.206-17.165,4.294-1.015c1.94,56.523,18.918,81.751,20.764,91.34C1293.126,1187.567,1260.121,1205.77,1236.682,1206.132Z" transform="translate(-1191.979 -1076.055)" fill="#ffb27d"/>
        </g>
        <g id="Grupo_29299" data-name="Grupo 29299" transform="translate(41.521 128.909)">
          <path id="Trazado_61777" data-name="Trazado 61777" d="M1268.828,1188.19c-8,20.817-27.883,48.326-68.148,51.246-.19-4.831-.385-10-.6-15.344-.414-10.3-1.208-20.9-1.92-29.148Z" transform="translate(-1198.159 -1188.19)" fill="#f4a269"/>
        </g>
        <g id="Grupo_29300" data-name="Grupo 29300">
          <path id="Trazado_61778" data-name="Trazado 61778" d="M1048.026,806.26s95.99,8.9,100.61-50.966,20.121-99.031-40.971-107.243-74.777,13.711-81.179,33.317S1023.176,802.4,1048.026,806.26Z" transform="translate(-1023.61 -646.28)" fill="#ffb27d"/>
        </g>
      </g>
      <g id="Grupo_29302" data-name="Grupo 29302" transform="translate(54.505 99.033)">
        <path id="Trazado_61779" data-name="Trazado 61779" d="M1154.223,778.279c-9.494,8.636-13.193,21.724-23.1,17.047,0,0,.008-.046.023-.133,0-.046.015-.108.026-.177s.021-.126.031-.2c.008-.054.018-.11.026-.172a132.318,132.318,0,0,0,1.322-14.03V780.6c.067-1.8.093-3.658.054-5.515-.231-11.109-2.76-22.156-12.364-19.573a38.495,38.495,0,0,1-5.954,1.124c-30.214,3.194-43.949-35.069-57.572-53.687-4.385-5.995-8.759-9.953-13.668-9.833-5.33.128-10.762,2.76-15.755,7.212-10.852,9.673-19.617,27.955-20.677,47.908,0,.018,0,.036,0,.051v0c-.88,15.871-13.332-22.828,3.268-50.994,3.548-6.018,156.551-5.533,159.524,1.656.383.922.752,1.866,1.109,2.826C1186.333,744.458,1173.92,760.367,1154.223,778.279Z" transform="translate(-1001.303 -693.112)" fill="#6385db"/>
      </g>
      <g id="Grupo_29303" data-name="Grupo 29303" transform="translate(54.504 83.285)">
        <path id="Trazado_61780" data-name="Trazado 61780" d="M1178.632,640.208a2.277,2.277,0,0,1-.334,1.16,3.942,3.942,0,0,1-.606.783c-.016.015-.031.033-.049.049a14.5,14.5,0,0,1-4.819,2.75c-.975.383-2.069.757-3.273,1.124l-.257.077q-.789.238-1.64.472c-.128.036-.257.069-.388.105q-1.348.354-2.834.7-2.4.555-5.14,1.068-.8.15-1.635.3c-.2.034-.4.069-.6.105q-1.837.32-3.8.619-2.079.316-4.3.614h0q-1.579.211-3.224.411l-1.471.177q-.84.1-1.694.19-.928.1-1.874.2-4.2.443-8.742.811c-.206.018-.411.033-.619.049a.113.113,0,0,1-.028,0c-.408.034-.816.064-1.23.1q-3.208.247-6.559.452l-.138.008q-.9.054-1.81.105-3.157.181-6.426.329l-1.122.046c-.816.036-1.638.067-2.465.1q-1.972.077-3.979.136c-.4.013-.793.023-1.191.034s-.788.023-1.181.031q-3.2.085-6.475.133-4.321.062-8.754.064-2.707,0-5.373-.026-.816-.008-1.63-.018-1.044-.011-2.079-.028c-.38-.005-.76-.01-1.137-.018q-.9-.015-1.8-.033-6.061-.123-11.843-.365-5.176-.216-10.079-.524c-.814-.051-1.623-.1-2.426-.159-.408-.026-.816-.054-1.222-.082-.665-.046-1.327-.095-1.982-.144q-1.51-.112-2.986-.234c-.624-.051-1.24-.1-1.854-.157q-3.628-.315-7.032-.68c-.354-.036-.706-.074-1.055-.113q-4.425-.489-8.41-1.052c-2.772-.4-5.379-.814-7.8-1.258-.814-.149-1.607-.3-2.377-.457q-1.074-.216-2.087-.436-1.96-.432-3.694-.881c-.244-.064-.488-.128-.724-.193a49.045,49.045,0,0,1-5.589-1.825c-.026-.01-.054-.023-.082-.034-.136-.054-.272-.11-.4-.167a.365.365,0,0,0-.046-.02c-3.212-1.376-4.958-2.855-4.958-4.4a1.356,1.356,0,0,1,.013-.205,2.988,2.988,0,0,1,.978-1.784,8.028,8.028,0,0,1,1.369-1.068,30.657,30.657,0,0,1,7.653-3.086q1.953-.558,4.244-1.089c3.289-.76,7.08-1.466,11.3-2.108q1.625-.246,3.335-.483c5.522-.755,11.681-1.407,18.346-1.936l1.974-.154.275-.02c.529-.036,1.063-.074,1.6-.113l1.661-.116q3.878-.254,7.948-.459,2.977-.147,6.049-.265h0c4.96-.19,10.087-.318,15.34-.375.382-.005.768-.008,1.153-.01q2.692-.027,5.43-.026c.4,0,.8,0,1.2,0q4.409.008,8.713.082c6.079.1,11.971.293,17.617.567l2.4.123,1.116.062c.9.051,1.784.1,2.668.159q2.6.158,5.119.344,4.409.324,8.534.716,3.535.335,6.832.719,1.332.154,2.626.316,1.067.135,2.1.272c3.456.462,6.667.96,9.6,1.5q1.46.266,2.827.544c2.324.47,4.444.965,6.341,1.484q1.048.285,2,.578c.367.113.724.226,1.07.342a35.147,35.147,0,0,1,3.484,1.34,14.455,14.455,0,0,1,2.755,1.587c.087.067.172.136.254.2a4.139,4.139,0,0,1,1.225,1.533A2.159,2.159,0,0,1,1178.632,640.208Z" transform="translate(-1001.299 -626.912)" fill="#23569e"/>
      </g>
      <g id="Grupo_29304" data-name="Grupo 29304" transform="translate(64.461 78.422)">
        <path id="Trazado_61781" data-name="Trazado 61781" d="M1069.366,635.345q-4.425-.489-8.41-1.052c-2.772-.4-5.379-.814-7.8-1.258-.814-.149-1.607-.3-2.377-.457q-1.074-.216-2.087-.436s0,0,0,0c-3.184-4.955-5.21-9.563-5.481-13.655a35.062,35.062,0,0,1,1.565-12.016c8.485,1.923,13.077,5.684,16.8,10.341A35.142,35.142,0,0,1,1069.366,635.345Z" transform="translate(-1043.154 -606.467)" fill="#1e3d70"/>
      </g>
      <g id="Grupo_29305" data-name="Grupo 29305" transform="translate(163.609 154.908)">
        <path id="Trazado_61782" data-name="Trazado 61782" d="M1462.259,938.424s5.688-12.991,17.342-9.967,9.095,13.7,5.411,20.622-8.419,15.316-19.133,14S1462.259,938.424,1462.259,938.424Z" transform="translate(-1459.956 -928)" fill="#ffb27d"/>
      </g>
      <g id="Grupo_29306" data-name="Grupo 29306" transform="translate(222.5 88.799)">
        <path id="Trazado_61783" data-name="Trazado 61783" d="M1723.968,657.112c-1.841.265-4.108,2.405-7.327,3.948a20.692,20.692,0,0,1-5.586,1.554c-.975.383-2.069.757-3.273,1.124l-.257.077a38.391,38.391,0,0,1,7.689-8.506,21.941,21.941,0,0,1,15.288-5.175,4.082,4.082,0,0,1,3.574,3.951C1734.411,657.775,1728.132,656.511,1723.968,657.112Z" transform="translate(-1707.524 -650.089)" fill="#82b378"/>
      </g>
      <g id="Grupo_29318" data-name="Grupo 29318" transform="translate(51.706 35.284)">
        <g id="Grupo_29308" data-name="Grupo 29308" transform="translate(17.029 16.58)">
          <g id="Grupo_29307" data-name="Grupo 29307">
            <path id="Trazado_61784" data-name="Trazado 61784" d="M1078.269,549.691c-1.2-5.787-2.46-11.209-3.73-16.22q-.393-1.532-.781-3.014c-.038-.147-.077-.293-.115-.436-1.933-7.327-3.851-13.681-5.553-18.893-2.393-7.34-4.349-12.426-5.3-14.8-.213-.536-.377-.932-.483-1.186-.054-.128-.093-.218-.113-.272a.531.531,0,0,1-.023-.051l-.159.069-.239.1-.442.19-.118.051-.09.039c.008.018.031.069.069.159s.105.254.188.454.175.426.288.7c.937,2.326,3,7.653,5.525,15.447,1.641,5.06,3.474,11.158,5.325,18.151.891,3.373,1.787,6.952,2.665,10.726v0c.028.118.054.236.082.354q.924,3.99,1.818,8.264Z" transform="translate(-1061.122 -494.823)" fill="#a8d29f"/>
          </g>
        </g>
        <g id="Grupo_29315" data-name="Grupo 29315">
          <g id="Grupo_29309" data-name="Grupo 29309" transform="translate(3.385 1.111)">
            <path id="Trazado_61785" data-name="Trazado 61785" d="M1005.276,439.821c2.205,2.5,12.533,6.518,13.246,5.888s-1.993-11.377-4.2-13.875a6.034,6.034,0,0,0-9.048,7.987Z" transform="translate(-1003.766 -429.793)" fill="#f77d48"/>
          </g>
          <g id="Grupo_29310" data-name="Grupo 29310" transform="translate(17.506)">
            <path id="Trazado_61786" data-name="Trazado 61786" d="M1066.344,427.551c-1.991,2.672-3.8,13.606-3.038,14.174s10.723-4.29,12.715-6.962a6.035,6.035,0,0,0-9.677-7.212Z" transform="translate(-1063.128 -425.122)" fill="#f77d48"/>
          </g>
          <g id="Grupo_29311" data-name="Grupo 29311" transform="translate(18.293 13.859)">
            <path id="Trazado_61787" data-name="Trazado 61787" d="M1080.745,483.579c-3.216-.876-14.053,1.439-14.3,2.357s7.914,8.411,11.13,9.287a6.034,6.034,0,1,0,3.174-11.644Z" transform="translate(-1066.436 -483.384)" fill="#f77d48"/>
          </g>
          <g id="Grupo_29312" data-name="Grupo 29312" transform="translate(13.249 16.01)">
            <path id="Trazado_61788" data-name="Trazado 61788" d="M1057.264,504.963c-.321-3.317-6.328-12.63-7.275-12.539s-5.059,10.383-4.738,13.7a6.034,6.034,0,1,0,12.013-1.161Z" transform="translate(-1045.233 -492.423)" fill="#f77d48"/>
          </g>
          <g id="Grupo_29313" data-name="Grupo 29313" transform="translate(0 15.832)">
            <path id="Trazado_61789" data-name="Trazado 61789" d="M998.377,503.681c2.95-1.549,9.307-10.628,8.865-11.47s-11.524-.765-14.475.784a6.035,6.035,0,0,0,5.61,10.686Z" transform="translate(-989.536 -491.677)" fill="#f77d48"/>
          </g>
          <g id="Grupo_29314" data-name="Grupo 29314" transform="translate(15.718 14.378)">
            <path id="Trazado_61790" data-name="Trazado 61790" d="M1055.638,487.242a1.987,1.987,0,1,1,1.65,2.275A1.987,1.987,0,0,1,1055.638,487.242Z" transform="translate(-1055.613 -485.567)" fill="#fff"/>
          </g>
        </g>
        <g id="Grupo_29316" data-name="Grupo 29316" transform="translate(29.159 28.034)">
          <path id="Trazado_61791" data-name="Trazado 61791" d="M1118,546.445c-3.279,4.032-6.818,20.95-5.667,21.886s16.991-5.978,20.271-10.011a9.411,9.411,0,0,0-14.6-11.875Z" transform="translate(-1112.115 -542.971)" fill="#a8d29f"/>
        </g>
        <g id="Grupo_29317" data-name="Grupo 29317" transform="translate(10.821 49.727)">
          <path id="Trazado_61792" data-name="Trazado 61792" d="M1044.9,634.862c3.405,1.66,10.935,11.76,10.461,12.732s-13.068,1.26-16.473-.4a6.859,6.859,0,0,1,6.013-12.331Z" transform="translate(-1035.028 -634.167)" fill="#a8d29f"/>
        </g>
      </g>
      <g id="Grupo_29319" data-name="Grupo 29319" transform="translate(23.915 92.85)">
        <path id="Trazado_61793" data-name="Trazado 61793" d="M914.373,677.293a49.062,49.062,0,0,1-5.589-1.825c-.025-.01-.054-.023-.082-.034-.133-.056-.267-.113-.4-.167a.378.378,0,0,0-.046-.02,30.861,30.861,0,0,0-5.34-1.623c-10.261-2.164-22.664,15.319-28.5,9.312s3.9-13.951,19.432-15.684a19.722,19.722,0,0,1,10.439,1.61A26.6,26.6,0,0,1,914.373,677.293Z" transform="translate(-872.706 -667.121)" fill="#a8d29f"/>
      </g>
      <g id="Grupo_29320" data-name="Grupo 29320" transform="translate(91.728 79.552)">
        <path id="Trazado_61794" data-name="Trazado 61794" d="M1172.854,640.377c-.408-.026-.816-.054-1.222-.082-.665-.046-1.327-.095-1.982-.144q-1.51-.112-2.986-.234c-.624-.051-1.24-.1-1.854-.157q-3.627-.315-7.032-.68c.041-2.133.773-14.682,11.992-22.744a34.06,34.06,0,0,1,11.063-5.117,25.219,25.219,0,0,1,.418,4.408A39.11,39.11,0,0,1,1172.854,640.377Z" transform="translate(-1157.779 -611.22)" fill="#1e3d70"/>
      </g>
      <g id="Grupo_29321" data-name="Grupo 29321" transform="translate(174.69 73.714)">
        <path id="Trazado_61795" data-name="Trazado 61795" d="M1529.31,620.06q-.84.1-1.694.19-.928.1-1.874.2-4.2.443-8.742.811c-.206.018-.411.033-.619.049a.113.113,0,0,1-.028,0c-.408.034-.816.064-1.23.1q-3.273.25-6.7.46-.9.054-1.81.105a37.006,37.006,0,0,1,7.242-24.384,44.551,44.551,0,0,1,11.884-10.911,45.957,45.957,0,0,1,3.481,12.346A71.792,71.792,0,0,1,1529.31,620.06Z" transform="translate(-1506.538 -586.678)" fill="#1e3d70"/>
      </g>
      <g id="Grupo_29334" data-name="Grupo 29334" transform="translate(153.691 36.603)">
        <g id="Grupo_29323" data-name="Grupo 29323" transform="translate(13.528 15.921)">
          <g id="Grupo_29322" data-name="Grupo 29322">
            <path id="Trazado_61796" data-name="Trazado 61796" d="M1492.44,498.031c-.008.015-.029.067-.064.152s-.1.241-.18.431-.169.411-.277.678c-.9,2.231-2.88,7.345-5.307,14.831-1.387,4.28-2.919,9.337-4.478,15.072q-.7,2.565-1.4,5.314-.451,1.775-.9,3.622c-1.23,5.045-2.442,10.487-3.576,16.279l-1.122.046c1.209-6.2,2.508-12,3.825-17.355.2-.824.408-1.641.611-2.442q.728-2.857,1.451-5.527c1.651-6.089,3.276-11.422,4.729-15.886,2.3-7.05,4.18-11.933,5.091-14.2.208-.516.367-.9.465-1.14.054-.123.09-.208.113-.259.008-.023.015-.039.018-.046l.146.064.241.1.423.182.113.049Z" transform="translate(-1475.131 -497.597)" fill="#a8d29f"/>
          </g>
        </g>
        <g id="Grupo_29330" data-name="Grupo 29330" transform="translate(11.612)">
          <g id="Grupo_29324" data-name="Grupo 29324" transform="translate(18.044 1.067)">
            <path id="Trazado_61797" data-name="Trazado 61797" d="M1555.76,444.781c-2.118,2.4-12.034,6.259-12.719,5.654s1.914-10.923,4.031-13.322a5.794,5.794,0,0,1,8.688,7.668Z" transform="translate(-1542.929 -435.153)" fill="#f77d48"/>
          </g>
          <g id="Grupo_29325" data-name="Grupo 29325" transform="translate(5.238)">
            <path id="Trazado_61798" data-name="Trazado 61798" d="M1499.536,433c1.912,2.566,3.649,13.064,2.917,13.61s-10.3-4.119-12.208-6.685a5.794,5.794,0,0,1,9.292-6.925Z" transform="translate(-1489.096 -430.668)" fill="#f77d48"/>
          </g>
          <g id="Grupo_29326" data-name="Grupo 29326" transform="translate(0 13.307)">
            <path id="Trazado_61799" data-name="Trazado 61799" d="M1471.346,486.8c3.087-.841,13.493,1.381,13.734,2.263s-7.6,8.076-10.687,8.918a5.794,5.794,0,0,1-3.047-11.181Z" transform="translate(-1467.074 -486.609)" fill="#f77d48"/>
          </g>
          <g id="Grupo_29327" data-name="Grupo 29327" transform="translate(11.275 15.372)">
            <path id="Trazado_61800" data-name="Trazado 61800" d="M1514.5,507.328c.308-3.185,6.076-12.127,6.985-12.039s4.857,9.969,4.549,13.154a5.794,5.794,0,1,1-11.534-1.115Z" transform="translate(-1514.472 -495.288)" fill="#f77d48"/>
          </g>
          <g id="Grupo_29328" data-name="Grupo 29328" transform="translate(18.554 15.201)">
            <path id="Trazado_61801" data-name="Trazado 61801" d="M1553.6,506.1c-2.833-1.487-8.936-10.2-8.512-11.013s11.065-.735,13.9.753a5.794,5.794,0,1,1-5.387,10.26Z" transform="translate(-1545.071 -494.571)" fill="#f77d48"/>
          </g>
          <g id="Grupo_29329" data-name="Grupo 29329" transform="translate(16.666 13.806)">
            <path id="Trazado_61802" data-name="Trazado 61802" d="M1540.93,490.313a1.908,1.908,0,1,0-1.584,2.184A1.908,1.908,0,0,0,1540.93,490.313Z" transform="translate(-1537.137 -488.705)" fill="#fff"/>
          </g>
        </g>
        <g id="Grupo_29331" data-name="Grupo 29331" transform="translate(8.243 34.855)">
          <path id="Trazado_61803" data-name="Trazado 61803" d="M1461.7,579.017c1.724,2.12,3.585,11.014,2.979,11.507s-8.933-3.143-10.657-5.263a4.948,4.948,0,0,1,7.678-6.243Z" transform="translate(-1452.912 -577.191)" fill="#a8d29f"/>
        </g>
        <g id="Grupo_29332" data-name="Grupo 29332" transform="translate(0 44.13)">
          <path id="Trazado_61804" data-name="Trazado 61804" d="M1429.393,618.139c2.5,2.565,5.987,13.959,5.255,14.674s-12.039-3.046-14.542-5.611a6.488,6.488,0,1,1,9.287-9.063Z" transform="translate(-1418.261 -616.183)" fill="#a8d29f"/>
        </g>
        <g id="Grupo_29333" data-name="Grupo 29333" transform="translate(19.929 38.831)">
          <path id="Trazado_61805" data-name="Trazado 61805" d="M1509.417,594.4c-2.4,1.168-7.7,8.276-7.362,8.96s9.2.886,11.593-.282a4.828,4.828,0,0,0-4.232-8.679Z" transform="translate(-1502.04 -593.906)" fill="#a8d29f"/>
        </g>
      </g>
      <g id="Grupo_29335" data-name="Grupo 29335" transform="translate(206.272 81.588)">
        <path id="Trazado_61806" data-name="Trazado 61806" d="M1655.911,628.941a47.484,47.484,0,0,1-2.408,12.351q-1.348.354-2.834.7-2.4.554-5.14,1.068-.8.15-1.635.3c-.2.034-.4.069-.6.105q-1.837.32-3.8.619a22.542,22.542,0,0,1,5.25-17.75,26.188,26.188,0,0,1,9.44-6.557S1656.176,622.366,1655.911,628.941Z" transform="translate(-1639.303 -619.778)" fill="#1e3d70"/>
      </g>
      <g id="Grupo_29336" data-name="Grupo 29336" transform="translate(217.638 65.536)">
        <path id="Trazado_61807" data-name="Trazado 61807" d="M1706.821,568.827a53.59,53.59,0,0,0-9.941,10.367,65.42,65.42,0,0,0-6.575,10.564q-1.518.412-3.222.806a68.718,68.718,0,0,1,3.24-13.63c3.36-9.448,9.553-19.137,20.941-24.189,0,0,5.212-2.218,8.724,3.212S1712.77,564.524,1706.821,568.827Z" transform="translate(-1687.084 -552.297)" fill="#82b378"/>
      </g>
      <g id="Grupo_29365" data-name="Grupo 29365" transform="translate(182.909 95.652)">
        <g id="Grupo_29338" data-name="Grupo 29338" transform="translate(1.623 6.422)">
          <g id="Grupo_29337" data-name="Grupo 29337">
            <path id="Trazado_61808" data-name="Trazado 61808" d="M1590.25,741.324q-.012.166-.023.323c-.013.157-.028.319-.044.486v0c-.206,2.174-.637,5.178-1.127,8.616-.151,1.065-.31,2.172-.47,3.317-.033.229-.064.454-.1.686v.005c-.434,3.127-.883,6.513-1.268,10.023q-.054.489-.105.978v0c-.236,2.213-.444,4.467-.606,6.737-.016.2-.028.4-.041.593v0c-.226,3.291-.352,6.6-.323,9.825,0,.2,0,.4.005.593.033,2.4.154,4.752.388,7.014.041.4.085.8.134,1.194a.009.009,0,0,0,0,.008c.185,1.546.428,3.047.737,4.485q.166.794.362,1.564l-.4.1q-.189-.744-.352-1.51s0,0,0,0c-.288-1.335-.519-2.724-.7-4.151a.027.027,0,0,0,0-.013q-.1-.816-.19-1.654v-.008c-.215-2.1-.336-4.277-.38-6.5,0,0,0,0,0-.005-.005-.365-.01-.729-.013-1.1-.028-3.3.1-6.693.336-10.061v0c.005-.1.013-.19.021-.285.187-2.668.442-5.319.727-7.9v0c0-.039.008-.077.013-.116.4-3.576.855-7.016,1.3-10.185.021-.146.041-.29.059-.431q.239-1.69.465-3.263c.529-3.7.983-6.891,1.165-9.081l.008-.092c.008-.105.015-.216.02-.329a35.427,35.427,0,0,0-1.923-11.663v0c-.039-.12-.079-.241-.118-.362a47.4,47.4,0,0,0-4.77-10.315c-.11-.177-.221-.352-.334-.526a35.446,35.446,0,0,0-3.1-4.126,26.59,26.59,0,0,0-4.9-4.416c-.128-.09-.257-.175-.385-.259-.223-.146-.447-.288-.673-.424a19.266,19.266,0,0,0-4.922-2.136,0,0,0,0,1-.005,0,18.532,18.532,0,0,0-4.007-.629q-.354-.015-.7-.023-.324-.008-.64-.008c-.077,0-.154,0-.231,0h0c-7.029.054-11.64,2.783-14.6,5.815-.206.018-.411.033-.619.049,3.055-3.284,7.954-6.318,15.6-6.272,0,0,0,0,0,0,.393,0,.8.01,1.2.028a18.67,18.67,0,0,1,5.3,1.019,19.956,19.956,0,0,1,4.216,2.049c.113.067.223.141.334.213a.034.034,0,0,1,.01.008.235.235,0,0,1,.028.018s0,0,0,0c.6.4,1.2.837,1.784,1.309l.008.008a28.646,28.646,0,0,1,3.492,3.376,35.626,35.626,0,0,1,3.122,4.149c.008.01.013.021.021.031s0,0,0,0a47.525,47.525,0,0,1,5.163,11c.069.218.139.434.205.65A35.1,35.1,0,0,1,1590.25,741.324Z" transform="translate(-1547.915 -705.897)" fill="#a0d694"/>
          </g>
        </g>
        <g id="Grupo_29339" data-name="Grupo 29339" transform="translate(30.704 65.091)">
          <path id="Trazado_61809" data-name="Trazado 61809" d="M1680.063,952.529s-6.939.68-9.9,6.735C1670.165,959.264,1675.641,960.012,1680.063,952.529Z" transform="translate(-1670.165 -952.529)" fill="#a0d694"/>
        </g>
        <g id="Grupo_29340" data-name="Grupo 29340" transform="translate(31.406 73.089)">
          <path id="Trazado_61810" data-name="Trazado 61810" d="M1681.609,986.153s-6.7,1.942-8.494,8.437C1673.115,994.59,1678.635,994.32,1681.609,986.153Z" transform="translate(-1673.115 -986.153)" fill="#a0d694"/>
        </g>
        <g id="Grupo_29341" data-name="Grupo 29341" transform="translate(34.468 83.354)">
          <path id="Trazado_61811" data-name="Trazado 61811" d="M1691.14,1029.3s-5.04,2.969-5.153,8.621C1685.987,1037.925,1690.419,1036.56,1691.14,1029.3Z" transform="translate(-1685.987 -1029.304)" fill="#a0d694"/>
        </g>
        <g id="Grupo_29342" data-name="Grupo 29342" transform="translate(36.865 90.898)">
          <path id="Trazado_61812" data-name="Trazado 61812" d="M1699.01,1061.02s-4.057,4.213-2.648,9.689C1696.362,1070.709,1700.264,1068.2,1699.01,1061.02Z" transform="translate(-1696.065 -1061.02)" fill="#a0d694"/>
        </g>
        <g id="Grupo_29343" data-name="Grupo 29343" transform="translate(40.565 96.384)">
          <path id="Trazado_61813" data-name="Trazado 61813" d="M1711.891,1084.08s-1.476,5.66,2.433,9.745C1714.324,1093.825,1716.5,1089.73,1711.891,1084.08Z" transform="translate(-1711.618 -1084.08)" fill="#a0d694"/>
        </g>
        <g id="Grupo_29344" data-name="Grupo 29344" transform="translate(39.855 90.898)">
          <path id="Trazado_61814" data-name="Trazado 61814" d="M1708.635,1061.02s1.555,5.639,6.983,7.219C1715.618,1068.24,1715.453,1063.605,1708.635,1061.02Z" transform="translate(-1708.635 -1061.02)" fill="#a0d694"/>
        </g>
        <g id="Grupo_29345" data-name="Grupo 29345" transform="translate(39.621 83.354)">
          <path id="Trazado_61815" data-name="Trazado 61815" d="M1707.651,1029.3s1.555,5.639,6.983,7.219C1714.634,1036.523,1714.469,1031.889,1707.651,1029.3Z" transform="translate(-1707.651 -1029.304)" fill="#a0d694"/>
        </g>
        <g id="Grupo_29346" data-name="Grupo 29346" transform="translate(40.059 72.93)">
          <path id="Trazado_61816" data-name="Trazado 61816" d="M1709.49,985.485s.611,5.817,5.708,8.265C1715.2,993.75,1715.794,989.151,1709.49,985.485Z" transform="translate(-1709.49 -985.485)" fill="#a0d694"/>
        </g>
        <g id="Grupo_29347" data-name="Grupo 29347" transform="translate(40.602 65.112)">
          <path id="Trazado_61817" data-name="Trazado 61817" d="M1711.774,952.62s.71,6.755,6.628,9.6C1718.4,962.216,1719.094,956.877,1711.774,952.62Z" transform="translate(-1711.774 -952.62)" fill="#a0d694"/>
        </g>
        <g id="Grupo_29348" data-name="Grupo 29348" transform="translate(31.292 54.48)">
          <path id="Trazado_61818" data-name="Trazado 61818" d="M1683.549,907.936s-6.952-.529-10.912,4.924C1672.637,912.86,1677.9,914.543,1683.549,907.936Z" transform="translate(-1672.637 -907.922)" fill="#a0d694"/>
        </g>
        <g id="Grupo_29349" data-name="Grupo 29349" transform="translate(42.19 54.515)">
          <path id="Trazado_61819" data-name="Trazado 61819" d="M1718.462,908.071s-.468,6.776,4.871,10.6C1723.333,918.668,1724.936,913.528,1718.462,908.071Z" transform="translate(-1718.451 -908.071)" fill="#a0d694"/>
        </g>
        <g id="Grupo_29350" data-name="Grupo 29350" transform="translate(33.601 41.701)">
          <path id="Trazado_61820" data-name="Trazado 61820" d="M1692.507,854.2s-6.96.4-10.163,6.328C1682.344,860.531,1687.785,861.5,1692.507,854.2Z" transform="translate(-1682.344 -854.203)" fill="#a0d694"/>
        </g>
        <g id="Grupo_29351" data-name="Grupo 29351" transform="translate(43.764 41.723)">
          <path id="Trazado_61821" data-name="Trazado 61821" d="M1725.065,854.294s.435,6.778,6.233,9.858C1731.3,864.152,1732.206,858.844,1725.065,854.294Z" transform="translate(-1725.065 -854.294)" fill="#a0d694"/>
        </g>
        <g id="Grupo_29352" data-name="Grupo 29352" transform="translate(34.76 29.58)">
          <path id="Trazado_61822" data-name="Trazado 61822" d="M1694.177,803.247s-6.277,3.034-6.964,9.738C1687.213,812.985,1692.611,811.8,1694.177,803.247Z" transform="translate(-1687.213 -803.247)" fill="#a0d694"/>
        </g>
        <g id="Grupo_29353" data-name="Grupo 29353" transform="translate(41.731 29.6)">
          <path id="Trazado_61823" data-name="Trazado 61823" d="M1716.522,803.333s3,6.094,9.534,6.718C1726.056,810.051,1724.861,804.8,1716.522,803.333Z" transform="translate(-1716.522 -803.333)" fill="#a0d694"/>
        </g>
        <g id="Grupo_29356" data-name="Grupo 29356" transform="translate(31.066 18.55)">
          <g id="Grupo_29354" data-name="Grupo 29354" transform="translate(0 0.031)">
            <path id="Trazado_61824" data-name="Trazado 61824" d="M1677.33,757.012s-6.65,5.479-5.515,13.73C1671.816,770.742,1677.95,767.736,1677.33,757.012Z" transform="translate(-1671.685 -757.012)" fill="#a0d694"/>
          </g>
          <g id="Grupo_29355" data-name="Grupo 29355" transform="translate(5.66)">
            <path id="Trazado_61825" data-name="Trazado 61825" d="M1695.479,756.934s5.382,6.441,13.413,5.279C1708.892,762.213,1705.922,756.258,1695.479,756.934Z" transform="translate(-1695.479 -756.881)" fill="#a0d694"/>
          </g>
        </g>
        <g id="Grupo_29359" data-name="Grupo 29359" transform="translate(23.738 9.188)">
          <g id="Grupo_29357" data-name="Grupo 29357" transform="translate(0 0.538)">
            <path id="Trazado_61826" data-name="Trazado 61826" d="M1645.438,719.784s-6.531,7.155-3.956,16.158C1641.482,735.942,1647.832,731.622,1645.438,719.784Z" transform="translate(-1640.881 -719.784)" fill="#a0d694"/>
          </g>
          <g id="Grupo_29358" data-name="Grupo 29358" transform="translate(4.577)">
            <path id="Trazado_61827" data-name="Trazado 61827" d="M1660.123,718.082s7.015,6.314,15.767,3.744C1675.89,721.826,1671.638,715.67,1660.123,718.082Z" transform="translate(-1660.123 -717.522)" fill="#a0d694"/>
          </g>
        </g>
        <g id="Grupo_29362" data-name="Grupo 29362" transform="translate(15.97 2.846)">
          <g id="Grupo_29360" data-name="Grupo 29360" transform="translate(0 3.751)">
            <path id="Trazado_61828" data-name="Trazado 61828" d="M1609.178,706.629s-3.33,9.1,2.466,16.451C1611.644,723.08,1615.882,716.675,1609.178,706.629Z" transform="translate(-1608.226 -706.629)" fill="#a0d694"/>
          </g>
          <g id="Grupo_29361" data-name="Grupo 29361" transform="translate(0.979)">
            <path id="Trazado_61829" data-name="Trazado 61829" d="M1612.343,694.625s8.885,3.183,16.009-2.514C1628.352,692.111,1622.084,688.026,1612.343,694.625Z" transform="translate(-1612.343 -690.861)" fill="#a0d694"/>
          </g>
        </g>
        <g id="Grupo_29364" data-name="Grupo 29364">
          <g id="Grupo_29363" data-name="Grupo 29363">
            <path id="Trazado_61830" data-name="Trazado 61830" d="M1542.685,691.6c-.408.034-.816.064-1.23.1-1.653-9.034,2.837-12.793,2.837-12.793C1546.033,684.314,1544,689.225,1542.685,691.6Z" transform="translate(-1541.09 -678.899)" fill="#a0d694"/>
          </g>
        </g>
      </g>
      <g id="Grupo_29366" data-name="Grupo 29366" transform="translate(193.893 74.488)">
        <path id="Trazado_61831" data-name="Trazado 61831" d="M1615.608,590.022a68.59,68.59,0,0,1-7.7,14.11c-2.12,2.814-4.546,5.188-7.109,6.115-8.063,2.914-10.238,3.743-10.549,4.336-.182.349-.709,4.662-1.112,8.146q-.928.1-1.874.2c.662-5.181,2.305-14.382,6.108-21.111a21.41,21.41,0,0,1,3.353-4.565A23.749,23.749,0,0,1,1615.608,590.022Z" transform="translate(-1587.265 -589.931)" fill="#82b378"/>
      </g>
      <g id="Grupo_29367" data-name="Grupo 29367" transform="translate(130.049 99.387)">
        <path id="Trazado_61832" data-name="Trazado 61832" d="M1325,705.051q-1.044-.011-2.08-.028c-.38-.005-.76-.01-1.137-.018q-.9-.015-1.8-.033c-2.3-6.8-.288-10.369-.288-10.369C1324.993,698.027,1325.008,704.453,1325,705.051Z" transform="translate(-1318.878 -694.602)" fill="#82b378"/>
      </g>
      <g id="Grupo_29368" data-name="Grupo 29368" transform="translate(164.754 97.452)">
        <path id="Trazado_61833" data-name="Trazado 61833" d="M1476.731,697.91l-.138.008q-.9.054-1.81.105-3.158.181-6.426.329l-1.122.046c-.816.036-1.638.067-2.465.1.709-3.1,3.33-8.811,12.932-12.03A20.92,20.92,0,0,1,1476.731,697.91Z" transform="translate(-1464.77 -686.465)" fill="#82b378"/>
      </g>
      <g id="Grupo_29371" data-name="Grupo 29371" transform="translate(156.217 97.744)">
        <g id="Grupo_29369" data-name="Grupo 29369" transform="translate(0 1.361)">
          <path id="Trazado_61834" data-name="Trazado 61834" d="M1435.454,698.923s-7.349-1.9-6.5-4.842,6.5,4.842,6.5,4.842Z" transform="translate(-1428.883 -693.417)" fill="#a0d694"/>
        </g>
        <g id="Grupo_29370" data-name="Grupo 29370" transform="translate(3.68)">
          <path id="Trazado_61835" data-name="Trazado 61835" d="M1444.989,687.86c2.269-1.406,2.26,6.7,2.26,6.7S1442.72,689.266,1444.989,687.86Z" transform="translate(-1444.353 -687.696)" fill="#a0d694"/>
        </g>
      </g>
      <g id="Grupo_29372" data-name="Grupo 29372" transform="translate(119.308 96.441)">
        <path id="Trazado_61836" data-name="Trazado 61836" d="M1314,695.426c-.393.013-.788.023-1.181.031q-3.2.085-6.475.133-4.321.062-8.755.064-2.707,0-5.373-.026c-.544-.005-1.089-.01-1.63-.018q-1.044-.011-2.08-.028c-.38-.005-.76-.01-1.137-.018q-.9-.015-1.8-.033-6.061-.123-11.843-.365c.47-3.512,3.207-14.3,19-12.811C1306.106,683.621,1311.815,691.167,1314,695.426Z" transform="translate(-1273.722 -682.215)" fill="#1e3d70"/>
      </g>
      <g id="Grupo_29384" data-name="Grupo 29384" transform="translate(123.349 0)">
        <g id="Grupo_29374" data-name="Grupo 29374" transform="translate(9.604 16.582)">
          <g id="Grupo_29373" data-name="Grupo 29373">
            <path id="Trazado_61837" data-name="Trazado 61837" d="M1354.133,346.955c-.008.018-.031.069-.067.157-.043.1-.108.254-.19.455s-.174.426-.287.7c-.937,2.323-3,7.648-5.525,15.447-2.428,7.5-5.288,17.283-7.989,28.879v0c-.026.118-.054.236-.082.354v.01c-1.451,6.256-2.855,13.037-4.118,20.269-1.446,8.28-2.711,17.149-3.653,26.5-.38-.005-.76-.01-1.137-.018.937-9.335,2.2-18.194,3.638-26.469,2.164-12.431,4.739-23.542,7.268-32.967.172-.637.341-1.263.513-1.882,1.625-5.946,3.222-11.175,4.662-15.588,2.393-7.343,4.352-12.426,5.3-14.8.216-.536.38-.935.485-1.186.051-.128.09-.218.11-.272a.522.522,0,0,0,.023-.049l.151.067.249.105.444.192.116.049Z" transform="translate(-1331.084 -346.503)" fill="#a8d29f"/>
          </g>
        </g>
        <g id="Grupo_29381" data-name="Grupo 29381" transform="translate(12.631)">
          <g id="Grupo_29375" data-name="Grupo 29375" transform="translate(18.793 1.111)">
            <path id="Trazado_61838" data-name="Trazado 61838" d="M1436.174,291.5c-2.205,2.5-12.533,6.518-13.246,5.888s1.993-11.376,4.2-13.875a6.034,6.034,0,1,1,9.048,7.987Z" transform="translate(-1422.811 -281.468)" fill="#f99746"/>
          </g>
          <g id="Grupo_29376" data-name="Grupo 29376" transform="translate(5.456)">
            <path id="Trazado_61839" data-name="Trazado 61839" d="M1377.617,279.225c1.992,2.672,3.8,13.606,3.038,14.174s-10.723-4.29-12.715-6.962a6.034,6.034,0,0,1,9.677-7.212Z" transform="translate(-1366.743 -276.796)" fill="#f99746"/>
          </g>
          <g id="Grupo_29377" data-name="Grupo 29377" transform="translate(0 13.86)">
            <path id="Trazado_61840" data-name="Trazado 61840" d="M1348.258,335.254c3.215-.876,14.053,1.439,14.3,2.356s-7.915,8.411-11.13,9.288a6.034,6.034,0,0,1-3.173-11.644Z" transform="translate(-1343.809 -335.059)" fill="#f99746"/>
          </g>
          <g id="Grupo_29378" data-name="Grupo 29378" transform="translate(11.743 16.01)">
            <path id="Trazado_61841" data-name="Trazado 61841" d="M1393.2,356.637c.321-3.317,6.328-12.63,7.275-12.539s5.059,10.383,4.738,13.7a6.034,6.034,0,0,1-12.013-1.161Z" transform="translate(-1393.173 -344.098)" fill="#f99746"/>
          </g>
          <g id="Grupo_29379" data-name="Grupo 29379" transform="translate(19.324 15.832)">
            <path id="Trazado_61842" data-name="Trazado 61842" d="M1433.928,355.355c-2.95-1.549-9.307-10.627-8.865-11.47s11.524-.765,14.475.784a6.035,6.035,0,0,1-5.61,10.686Z" transform="translate(-1425.042 -343.352)" fill="#f99746"/>
          </g>
          <g id="Grupo_29380" data-name="Grupo 29380" transform="translate(17.358 14.379)">
            <path id="Trazado_61843" data-name="Trazado 61843" d="M1420.728,338.916a1.987,1.987,0,1,0-1.65,2.275A1.987,1.987,0,0,0,1420.728,338.916Z" transform="translate(-1416.778 -337.242)" fill="#2a4e96"/>
          </g>
        </g>
        <g id="Grupo_29382" data-name="Grupo 29382" transform="translate(0 31.192)">
          <path id="Trazado_61844" data-name="Trazado 61844" d="M1303.7,409.759c3.358,2.8,9.012,16.195,8.213,17.153s-14.993-2.192-18.351-4.992a7.917,7.917,0,1,1,10.139-12.162Z" transform="translate(-1290.711 -407.922)" fill="#a8d29f"/>
        </g>
        <g id="Grupo_29383" data-name="Grupo 29383" transform="translate(18.511 49.727)">
          <path id="Trazado_61845" data-name="Trazado 61845" d="M1379.01,486.537c-3.4,1.66-10.935,11.76-10.461,12.732s13.068,1.259,16.473-.4a6.859,6.859,0,0,0-6.013-12.331Z" transform="translate(-1368.528 -485.841)" fill="#a8d29f"/>
        </g>
      </g>
      <g id="Grupo_29388" data-name="Grupo 29388" transform="translate(97.881 52.366)">
        <g id="Grupo_29385" data-name="Grupo 29385" transform="translate(15.934 26.843)">
          <path id="Trazado_61846" data-name="Trazado 61846" d="M1288.768,621.923s-4.46,2.93-16.019,2.341-14.708-6.793-15.55-5.952a20.579,20.579,0,0,0-1.238,3.94c-.713,2.725-1.611,6.48-2.445,10.055-.437,1.868-.854,3.687-1.215,5.282a10.3,10.3,0,0,1-1.671-.573c.188-.986.4-2.04.629-3.142.9-4.385,2.052-9.45,3.226-13.258.886-2.87,1.783-5.026,2.6-5.647,3.21-2.441,10.817-7.022,18.292-4.413S1288.768,621.923,1288.768,621.923Z" transform="translate(-1250.63 -609.779)" fill="#a8d29f"/>
        </g>
        <g id="Grupo_29386" data-name="Grupo 29386" transform="translate(5.585)">
          <path id="Trazado_61847" data-name="Trazado 61847" d="M1227.071,514.973c-8.382,8.169-16.955,8.757-17.234,10.244-.221,1.168-.406,2.375-.552,3.6-.013.095-.023.19-.033.288a91.507,91.507,0,0,0-.593,10.2c-.038,5.3.272,10.295.583,13.886-.665-.046-1.327-.095-1.982-.144-.131-4.364-.224-10.59.015-17.06.08-2.254.205-4.534.38-6.775.008-.121.015-.239.026-.357.734-9.129,2.336-17.553,5.622-20.639,8.433-7.912,24.677-11.17,25.254-11.286S1235.451,506.809,1227.071,514.973Z" transform="translate(-1207.127 -496.935)" fill="#a8d29f"/>
        </g>
        <g id="Grupo_29387" data-name="Grupo 29387" transform="translate(0 31.871)">
          <path id="Trazado_61848" data-name="Trazado 61848" d="M1213.176,650.945s-.062.044-.182.121a18.693,18.693,0,0,1-9.417,2.937,9.228,9.228,0,0,1-2.326-.306,10.113,10.113,0,0,1-1.671-.573,13.309,13.309,0,0,1-2.208-1.209,14.026,14.026,0,0,1-5.679-7.568c-.249-.945-.57-1.938-.929-2.929-.421-1.15-.9-2.287-1.384-3.317-1.222-2.611-2.472-4.529-2.922-4.192-.78.585-1.515,3.273-1.581,7.4a131.925,131.925,0,0,0,1.5,13.622c-.624-.051-1.24-.1-1.854-.157-1.058-8.236-1.928-20.777,2.2-22.918a6.64,6.64,0,0,1,.791-.352,8.781,8.781,0,0,1,2.275-.531,11.41,11.41,0,0,1,1.6-.044,13.3,13.3,0,0,1,1.628.172,20,20,0,0,1,10.418,5.628,20.3,20.3,0,0,1,1.476,1.635,18.785,18.785,0,0,1,2.865,4.808s.185.39.5,1c.883,1.692,2.8,5.091,4.626,6.572C1212.994,650.812,1213.086,650.881,1213.176,650.945Z" transform="translate(-1183.647 -630.915)" fill="#82b378"/>
        </g>
      </g>
      <g id="Grupo_29389" data-name="Grupo 29389" transform="translate(137.196 100.932)">
        <path id="Trazado_61849" data-name="Trazado 61849" d="M1372.5,709.782c-.788.023-1.579.046-2.372.064a8.579,8.579,0,0,0-3.15-2.436c-1.132-.4-2.316.059-3.325,2.57a29.508,29.508,0,0,0-1.553,6.786c-1.155,8.472-11.04,7.573-11.04,7.573-2.29-5.494-2.639-10.426-1.535-14.32a11.8,11.8,0,0,1,9.923-8.806C1367.563,700.024,1371.812,708.314,1372.5,709.782Z" transform="translate(-1348.918 -701.097)" fill="#a8d29f"/>
      </g>
      <g id="Grupo_29390" data-name="Grupo 29390" transform="translate(89.747 88.223)">
        <path id="Trazado_61850" data-name="Trazado 61850" d="M1149.492,649.571a2.429,2.429,0,0,1,4.741,1.057c-.292,1.309-3.593,4.956-3.593,4.956S1149.2,650.88,1149.492,649.571Z" transform="translate(-1149.453 -647.67)" fill="#a8d29f"/>
      </g>
    </g>
    <g id="Grupo_29434" data-name="Grupo 29434" transform="translate(480.188 480.737)">
      <g id="Grupo_29397" data-name="Grupo 29397" transform="translate(23.883 38.115)">
        <g id="Grupo_29392" data-name="Grupo 29392">
          <path id="Trazado_61851" data-name="Trazado 61851" d="M1647.492,1651.609c2.37.96,10.84.184,11.114-.493s-5.265-7.13-7.635-8.091a4.631,4.631,0,0,0-3.479,8.584Z" transform="translate(-1644.599 -1642.685)" fill="#a8d29f"/>
        </g>
        <g id="Grupo_29393" data-name="Grupo 29393" transform="translate(22.703 10.745)">
          <path id="Trazado_61852" data-name="Trazado 61852" d="M1741.6,1690.078c-1.331,2.184-1.932,10.668-1.308,11.048s7.887-4.044,9.218-6.229a4.631,4.631,0,1,0-7.91-4.819Z" transform="translate(-1740.04 -1687.855)" fill="#a8d29f"/>
        </g>
        <g id="Grupo_29394" data-name="Grupo 29394" transform="translate(9.619 20.526)">
          <path id="Trazado_61853" data-name="Trazado 61853" d="M1688.261,1738.015c2.437.778,10.822-.642,11.044-1.337s-5.792-6.709-8.229-7.487a4.631,4.631,0,1,0-2.816,8.824Z" transform="translate(-1685.036 -1728.971)" fill="#a8d29f"/>
        </g>
        <g id="Grupo_29396" data-name="Grupo 29396" transform="translate(13.72 8.236)">
          <g id="Grupo_29395" data-name="Grupo 29395">
            <path id="Trazado_61854" data-name="Trazado 61854" d="M1713.736,1706.852c-.008-.193-.945-19.394-11.459-29.308l.224-.237c10.61,10.005,11.552,29.337,11.561,29.531Z" transform="translate(-1702.277 -1677.307)" fill="#a8d29f"/>
          </g>
        </g>
      </g>
      <g id="Grupo_29403" data-name="Grupo 29403" transform="translate(64.648 41.571)">
        <g id="Grupo_29398" data-name="Grupo 29398" transform="translate(11.874)">
          <path id="Trazado_61855" data-name="Trazado 61855" d="M1873.52,1663.095c-1.476.98-7.334,1.625-7.614,1.2s2.588-5.57,4.064-6.55a3.209,3.209,0,1,1,3.55,5.347Z" transform="translate(-1865.887 -1657.212)" fill="#a8d29f"/>
        </g>
        <g id="Grupo_29399" data-name="Grupo 29399" transform="translate(0 10.559)">
          <path id="Trazado_61856" data-name="Trazado 61856" d="M1821.53,1702.625c1.206,1.3,2.788,6.976,2.417,7.32s-5.915-1.654-7.121-2.953a3.209,3.209,0,0,1,4.7-4.367Z" transform="translate(-1815.97 -1701.599)" fill="#a8d29f"/>
        </g>
        <g id="Grupo_29400" data-name="Grupo 29400" transform="translate(7.911 15.267)">
          <path id="Trazado_61857" data-name="Trazado 61857" d="M1856.924,1727.4c-1.547.865-7.437,1.062-7.684.621s3-5.357,4.551-6.222a3.209,3.209,0,0,1,3.133,5.6Z" transform="translate(-1849.227 -1721.391)" fill="#a8d29f"/>
        </g>
        <g id="Grupo_29402" data-name="Grupo 29402" transform="translate(7.785 6.944)">
          <g id="Grupo_29401" data-name="Grupo 29401">
            <path id="Trazado_61858" data-name="Trazado 61858" d="M1849.28,1708.019c-.021-.132-2.042-13.3,3.724-21.484l-.185-.13c-5.819,8.262-3.784,21.517-3.762,21.65Z" transform="translate(-1848.695 -1686.405)" fill="#a8d29f"/>
          </g>
        </g>
      </g>
      <g id="Grupo_29413" data-name="Grupo 29413" transform="translate(38.84 5.878)">
        <g id="Grupo_29405" data-name="Grupo 29405" transform="translate(9.911 9.65)">
          <g id="Grupo_29404" data-name="Grupo 29404">
            <path id="Trazado_61859" data-name="Trazado 61859" d="M1763,1606.981l-.669-.107c-2.635-34.086-13.043-58.547-13.189-58.879l.609-.263C1749.893,1548.069,1760.377,1572.69,1763,1606.981Z" transform="translate(-1749.138 -1547.732)" fill="#a8d29f"/>
          </g>
        </g>
        <g id="Grupo_29406" data-name="Grupo 29406" transform="translate(1.97 0.647)">
          <path id="Trazado_61860" data-name="Trazado 61860" d="M1716.636,1515.718c1.284,1.454,7.294,3.793,7.709,3.427s-1.16-6.621-2.443-8.075a3.512,3.512,0,0,0-5.266,4.648Z" transform="translate(-1715.757 -1509.882)" fill="#fff"/>
        </g>
        <g id="Grupo_29407" data-name="Grupo 29407" transform="translate(10.188)">
          <path id="Trazado_61861" data-name="Trazado 61861" d="M1752.177,1508.577c-1.159,1.556-2.212,7.919-1.768,8.249s6.241-2.5,7.4-4.052a3.512,3.512,0,0,0-5.632-4.2Z" transform="translate(-1750.305 -1507.163)" fill="#fff"/>
        </g>
        <g id="Grupo_29408" data-name="Grupo 29408" transform="translate(10.646 8.066)">
          <path id="Trazado_61862" data-name="Trazado 61862" d="M1760.558,1541.185c-1.871-.51-8.179.837-8.324,1.372s4.606,4.9,6.478,5.405a3.512,3.512,0,1,0,1.847-6.777Z" transform="translate(-1752.23 -1541.072)" fill="#fff"/>
        </g>
        <g id="Grupo_29409" data-name="Grupo 29409" transform="translate(7.711 9.317)">
          <path id="Trazado_61863" data-name="Trazado 61863" d="M1746.892,1553.63c-.187-1.931-3.683-7.351-4.234-7.3s-2.944,6.043-2.758,7.973a3.512,3.512,0,1,0,6.991-.676Z" transform="translate(-1739.89 -1546.332)" fill="#fff"/>
        </g>
        <g id="Grupo_29410" data-name="Grupo 29410" transform="translate(0 9.214)">
          <path id="Trazado_61864" data-name="Trazado 61864" d="M1712.621,1552.884c1.717-.9,5.417-6.185,5.159-6.676s-6.707-.445-8.424.457a3.512,3.512,0,0,0,3.265,6.219Z" transform="translate(-1707.476 -1545.898)" fill="#fff"/>
        </g>
        <g id="Grupo_29411" data-name="Grupo 29411" transform="translate(9.148 8.368)">
          <path id="Trazado_61865" data-name="Trazado 61865" d="M1745.945,1543.316a1.157,1.157,0,1,1,.96,1.324A1.156,1.156,0,0,1,1745.945,1543.316Z" transform="translate(-1745.931 -1542.341)" fill="#f77d48"/>
        </g>
        <g id="Grupo_29412" data-name="Grupo 29412" transform="translate(20.15 32.027)">
          <path id="Trazado_61866" data-name="Trazado 61866" d="M1795.61,1643.82c-1.909,2.347-3.969,12.193-3.3,12.737s9.889-3.479,11.8-5.826a5.477,5.477,0,1,0-8.5-6.911Z" transform="translate(-1792.182 -1641.799)" fill="#a8d29f"/>
        </g>
      </g>
      <g id="Grupo_29415" data-name="Grupo 29415" transform="translate(8.302 46.423)">
        <g id="Grupo_29414" data-name="Grupo 29414">
          <path id="Trazado_61867" data-name="Trazado 61867" d="M1579.571,1677.609c.135.2,6.238,10.519,11.969,27.106-.236-.068-.438-.1-.674-.169-5.664-16.318-11.631-26.432-11.766-26.634Z" transform="translate(-1579.099 -1677.609)" fill="#a8d29f"/>
        </g>
      </g>
      <g id="Grupo_29416" data-name="Grupo 29416" transform="translate(0.686 39.13)">
        <path id="Trazado_61868" data-name="Trazado 61868" d="M1548.144,1652.361c1.285,1.118,6.787,2.462,7.106,2.1s-1.772-5.63-3.057-6.748a3.084,3.084,0,0,0-4.049,4.653Z" transform="translate(-1547.084 -1646.951)" fill="#fff"/>
      </g>
      <g id="Grupo_29417" data-name="Grupo 29417" transform="translate(8.371 37.485)">
        <path id="Trazado_61869" data-name="Trazado 61869" d="M1580.2,1641.617c-.83,1.487-1.014,7.148-.589,7.385s5.145-2.892,5.975-4.38a3.084,3.084,0,1,0-5.386-3.005Z" transform="translate(-1579.389 -1640.035)" fill="#fff"/>
      </g>
      <g id="Grupo_29418" data-name="Grupo 29418" transform="translate(8.889 44.142)">
        <path id="Trazado_61870" data-name="Trazado 61870" d="M1588.656,1668.037c-1.688-.228-7.024,1.671-7.089,2.153s4.574,3.731,6.262,3.959a3.084,3.084,0,1,0,.827-6.112Z" transform="translate(-1581.567 -1668.018)" fill="#fff"/>
      </g>
      <g id="Grupo_29419" data-name="Grupo 29419" transform="translate(7.165 46.128)">
        <path id="Trazado_61871" data-name="Trazado 61871" d="M1580.4,1682.235c-.385-1.659-4.052-5.975-4.526-5.865s-1.867,5.6-1.482,7.259a3.084,3.084,0,0,0,6.008-1.393Z" transform="translate(-1574.322 -1676.368)" fill="#fff"/>
      </g>
      <g id="Grupo_29420" data-name="Grupo 29420" transform="translate(0 46.225)">
        <path id="Trazado_61872" data-name="Trazado 61872" d="M1549.063,1683.286c1.391-.983,4-6.008,3.723-6.405s-5.89.385-7.281,1.367a3.084,3.084,0,0,0,3.559,5.038Z" transform="translate(-1544.2 -1676.775)" fill="#fff"/>
      </g>
      <g id="Grupo_29421" data-name="Grupo 29421" transform="translate(7.571 45.315)">
        <path id="Trazado_61873" data-name="Trazado 61873" d="M1576.026,1673.938a1.016,1.016,0,1,1,.988,1.042A1.016,1.016,0,0,1,1576.026,1673.938Z" transform="translate(-1576.026 -1672.95)" fill="#f77d48"/>
      </g>
      <g id="Grupo_29422" data-name="Grupo 29422" transform="translate(17.716 55.777)">
        <path id="Trazado_61874" data-name="Trazado 61874" d="M1619.949,1718.693c-1.071,1.742-1.578,8.521-1.081,8.827s6.318-3.208,7.388-4.949a3.7,3.7,0,1,0-6.307-3.878Z" transform="translate(-1618.676 -1716.929)" fill="#a8d29f"/>
      </g>
      <g id="Grupo_29424" data-name="Grupo 29424" transform="translate(99.239 10.547)">
        <g id="Grupo_29423" data-name="Grupo 29423">
          <path id="Trazado_61875" data-name="Trazado 61875" d="M1961.384,1591.551l.731-.117c2.88-37.255,14.256-63.99,14.416-64.353l-.666-.287C1975.706,1527.162,1964.246,1554.072,1961.384,1591.551Z" transform="translate(-1961.384 -1526.794)" fill="#a8d29f"/>
        </g>
      </g>
      <g id="Grupo_29425" data-name="Grupo 29425" transform="translate(113.604 0.707)">
        <path id="Trazado_61876" data-name="Trazado 61876" d="M2030.271,1491.8c-1.4,1.589-7.973,4.146-8.426,3.746s1.267-7.237,2.67-8.826a3.839,3.839,0,0,1,5.756,5.08Z" transform="translate(-2021.771 -1485.426)" fill="#fff"/>
      </g>
      <g id="Grupo_29426" data-name="Grupo 29426" transform="translate(105.12)">
        <path id="Trazado_61877" data-name="Trazado 61877" d="M1993.022,1484c1.267,1.7,2.417,8.655,1.932,9.016s-6.821-2.729-8.088-4.429a3.838,3.838,0,0,1,6.156-4.588Z" transform="translate(-1986.106 -1482.454)" fill="#fff"/>
      </g>
      <g id="Grupo_29427" data-name="Grupo 29427" transform="translate(101.65 8.816)">
        <path id="Trazado_61878" data-name="Trazado 61878" d="M1974.347,1519.638c2.046-.558,8.939.915,9.1,1.5s-5.034,5.35-7.08,5.908a3.839,3.839,0,0,1-2.019-7.407Z" transform="translate(-1971.517 -1519.515)" fill="#fff"/>
      </g>
      <g id="Grupo_29428" data-name="Grupo 29428" transform="translate(109.119 10.184)">
        <path id="Trazado_61879" data-name="Trazado 61879" d="M2002.936,1533.24c.2-2.11,4.025-8.034,4.627-7.976s3.218,6.6,3.014,8.714a3.838,3.838,0,0,1-7.641-.739Z" transform="translate(-2002.918 -1525.264)" fill="#fff"/>
      </g>
      <g id="Grupo_29429" data-name="Grupo 29429" transform="translate(113.941 10.071)">
        <path id="Trazado_61880" data-name="Trazado 61880" d="M2028.841,1532.425c-1.877-.986-5.92-6.76-5.639-7.3s7.331-.487,9.207.5a3.838,3.838,0,1,1-3.568,6.8Z" transform="translate(-2023.188 -1524.789)" fill="#fff"/>
      </g>
      <g id="Grupo_29430" data-name="Grupo 29430" transform="translate(112.691 9.146)">
        <path id="Trazado_61881" data-name="Trazado 61881" d="M2020.445,1521.969a1.264,1.264,0,1,0-1.049,1.447A1.264,1.264,0,0,0,2020.445,1521.969Z" transform="translate(-2017.933 -1520.903)" fill="#f77d48"/>
      </g>
      <g id="Grupo_29431" data-name="Grupo 29431" transform="translate(86.911 44.98)">
        <path id="Trazado_61882" data-name="Trazado 61882" d="M1920.189,1673.751c2.086,2.565,4.337,13.326,3.6,13.921s-10.808-3.8-12.894-6.367a5.986,5.986,0,0,1,9.289-7.554Z" transform="translate(-1909.558 -1671.541)" fill="#a8d29f"/>
      </g>
      <g id="Grupo_29432" data-name="Grupo 29432" transform="translate(100.784 48.965)">
        <path id="Trazado_61883" data-name="Trazado 61883" d="M1976.785,1688.958c-2.94,1.513-9.32,10.466-8.888,11.305s11.426.854,14.365-.659a5.986,5.986,0,1,0-5.478-10.646Z" transform="translate(-1967.876 -1688.293)" fill="#a8d29f"/>
      </g>
      <g id="Grupo_29433" data-name="Grupo 29433" transform="translate(0.653 67.012)">
        <path id="Trazado_61884" data-name="Trazado 61884" d="M1546.946,1777.758s3.367-8.853,15.594-9.408,20.645,6.669,30.746,3.334,26.82-10.864,42.636-5.849,18.483,11.923,18.483,11.923Z" transform="translate(-1546.946 -1764.161)" fill="#a8d29f"/>
      </g>
    </g>
    <g id="Grupo_29460" data-name="Grupo 29460" transform="translate(602.522 345.91)">
      <g id="Grupo_29435" data-name="Grupo 29435" transform="translate(4.012 34.454)">
        <path id="Trazado_61885" data-name="Trazado 61885" d="M2096.866,1106.672c-10.255-2.61-21.527-18.519-21.527-18.519l2.888-2.5c2.989,3.524,15.419,9.595,15.419,9.595-.067-3.225.018-6.167.221-8.845,1.379-18.2,8.24-24.261,10.112-25.591a4.477,4.477,0,0,1,.476-.306s.007.132.018.382c.027.541.077,1.63.128,3.126C2104.981,1075.147,2105.435,1108.855,2096.866,1106.672Z" transform="translate(-2075.339 -1060.501)" fill="#ffb27d"/>
      </g>
      <g id="Grupo_29436" data-name="Grupo 29436" transform="translate(16.353 32.995)">
        <path id="Trazado_61886" data-name="Trazado 61886" d="M2144.625,1077.157q-.036,1.495-.1,3c-.331,8.1-1.211,16.145-3.2,20.855a10.141,10.141,0,0,1-1.675,2.816,3.527,3.527,0,0,1-3.255,1.339c-6.927-1.011-8.732-7.478-9.1-12.285a27.5,27.5,0,0,1,.1-5.342s3.409-.014,3.96-.524c1.134-1.047,1.631-6.081,1.935-11.66.4-7.311.5-15.531,1.2-16.946,2-4.044,9.708-4.044,9.708-4.044S2144.926,1065.382,2144.625,1077.157Z" transform="translate(-2127.219 -1054.367)" fill="#f99746"/>
      </g>
      <g id="Grupo_29437" data-name="Grupo 29437" transform="translate(27.658)">
        <path id="Trazado_61887" data-name="Trazado 61887" d="M2189.009,930.14s-5.711,3.364-2.207,9.883c0,0-5-.915-6.08-2.408a3.925,3.925,0,0,0,.311.935s-4.6-1.042-6.1-2.96,5.872-24.9,17.821-18.946c0,0,10.927,2.027,6.647,14.158s-.235,13.2-.235,13.2a5.952,5.952,0,0,1-1.815.113s-.713-.513-.754-.993a2.922,2.922,0,0,0,.12,1s-4.476-.742-6.219-2.968S2187.71,932.533,2189.009,930.14Z" transform="translate(-2174.739 -915.664)" fill="#233862"/>
      </g>
      <g id="Grupo_29438" data-name="Grupo 29438" transform="translate(33.639 34.006)">
        <path id="Trazado_61888" data-name="Trazado 61888" d="M2199.925,1058.62l-.02.008C2199.869,1058.623,2199.877,1058.62,2199.925,1058.62Z" transform="translate(-2199.883 -1058.62)" fill="#ffb27d"/>
      </g>
      <g id="Grupo_29439" data-name="Grupo 29439" transform="translate(33.681 19.958)">
        <path id="Trazado_61889" data-name="Trazado 61889" d="M2213.943,1009.615c.168,1.5.369,2.853.458,3.5.2,1.44-13.467.5-14.338.5.607-.264,2.461-6.145,3.048-8.389.711-2.721,1.271-5.66,1.271-5.66l9.651.61.574.035a33.626,33.626,0,0,0-.785,3.712c-.022.155-.045.312-.066.465A25.107,25.107,0,0,0,2213.943,1009.615Z" transform="translate(-2200.062 -999.562)" fill="#ffb27d"/>
      </g>
      <g id="Grupo_29440" data-name="Grupo 29440" transform="translate(35.379 1.214)">
        <path id="Trazado_61890" data-name="Trazado 61890" d="M2208.487,938.537s-1.564-4.962-1.248-8.767c.226-2.717,4.094-11.984,13.391-8.04a13.587,13.587,0,0,1,4.9,3.5c1.723,1.973,3.941,5.834-1.667,13.33l-1.63,2.6Z" transform="translate(-2207.197 -920.767)" fill="#233862"/>
      </g>
      <g id="Grupo_29441" data-name="Grupo 29441" transform="translate(16.353 51.314)">
        <path id="Trazado_61891" data-name="Trazado 61891" d="M2145.775,1136.629l-.512,16.381s-1.809,3.1-3.935,6.694c-.545.922-1.113,1.875-1.675,2.816a3.527,3.527,0,0,1-3.255,1.339c-6.927-1.011-8.732-7.478-9.1-12.285a27.5,27.5,0,0,1,.1-5.342s3.409-.014,3.96-.524c1.134-1.047,1.631-6.081,1.935-11.66l4.729-2.671,6.6,4.471Z" transform="translate(-2127.219 -1131.378)" fill="#ed7d2b"/>
      </g>
      <g id="Grupo_29442" data-name="Grupo 29442" transform="translate(37.946 20.234)">
        <path id="Trazado_61892" data-name="Trazado 61892" d="M2227.607,1010.5c-6.751-1.977-9.616-9.776-9.616-9.776,2.856.084,6.575,2.066,9.494,4.081-.022.155-.045.312-.066.465A25.107,25.107,0,0,0,2227.607,1010.5Z" transform="translate(-2217.991 -1000.724)" fill="#ed975d"/>
      </g>
      <g id="Grupo_29443" data-name="Grupo 29443" transform="translate(37.617 4.962)">
        <path id="Trazado_61893" data-name="Trazado 61893" d="M2227.029,958.831s-12.2-3.015-10.2-10.582,1.763-13.052,9.635-11.447,8.618,4.889,8.567,7.577S2230.253,959.42,2227.029,958.831Z" transform="translate(-2216.605 -936.522)" fill="#ffb27d"/>
      </g>
      <g id="Grupo_29444" data-name="Grupo 29444" transform="translate(34.626 1.679)">
        <path id="Trazado_61894" data-name="Trazado 61894" d="M2226.2,929.561c-3.631-5.744-7.959-6.34-7.979-6.34-3.1-2.078-7.2,3.022-7.2,3.022a14.947,14.947,0,0,1-6.987,7.286s1.851,1.953,7.3,1.992a8.974,8.974,0,0,0,4.888-1.758,29.307,29.307,0,0,1-6.453,4.665c6.54-1.151,11.116-8.357,11.927-9.716a10.952,10.952,0,0,1,1.8,4.082c.1,2.086-.682,6.124.509,6.3C2224.007,939.088,2228.642,933.429,2226.2,929.561Z" transform="translate(-2204.032 -922.723)" fill="#233862"/>
      </g>
      <g id="Grupo_29445" data-name="Grupo 29445" transform="translate(46.136 22.41)">
        <path id="Trazado_61895" data-name="Trazado 61895" d="M2252.42,1009.879s.152,1.152.887,1.424a10.645,10.645,0,0,0,2.884.644,9.791,9.791,0,0,0,.929-1.02A15.2,15.2,0,0,0,2252.42,1009.879Z" transform="translate(-2252.42 -1009.869)" fill="#fff"/>
      </g>
      <g id="Grupo_29446" data-name="Grupo 29446" transform="translate(18.924 99.889)">
        <path id="Trazado_61896" data-name="Trazado 61896" d="M2160.681,1373.859q-.232.972-.462,1.923c-.92,3.821-1.776,7.365-2.314,10.33-.7,3.859-.866,6.729.053,7.936,3.788,4.966,0,44.379,0,44.379l-4.311,4.441s-7.494-38.912-9.527-45.009c-.924-2.772-2.271-14.61-3.46-26.7q-.092-.907-.178-1.814c-.206-2.114-.4-4.219-.594-6.275-1.067-11.435-1.865-21.225-1.865-21.225s7.949-5.589,15.172-6.212c4.255-.371,8.257.983,10.233,6.212C2166.306,1349.455,2163.39,1362.589,2160.681,1373.859Z" transform="translate(-2138.023 -1335.58)" fill="#ffb27d"/>
      </g>
      <g id="Grupo_29447" data-name="Grupo 29447" transform="translate(24.304 99.889)">
        <path id="Trazado_61897" data-name="Trazado 61897" d="M2176.706,1376.475c-5.564-6.066-9.228-14.753-16.019-26.916-.577-6.186,4.3-12.065,9.745-13.922,4.255-.371,8.256.983,10.233,6.212C2183.543,1349.455,2179.415,1365.206,2176.706,1376.475Z" transform="translate(-2160.64 -1335.58)" fill="#ed975d"/>
      </g>
      <g id="Grupo_29448" data-name="Grupo 29448" transform="translate(60.863 63.012)">
        <path id="Trazado_61898" data-name="Trazado 61898" d="M2316.586,1180.553l29.027,7.5v3.389s-28.886-.339-30.749-3.557S2316.586,1180.553,2316.586,1180.553Z" transform="translate(-2314.328 -1180.553)" fill="#ffb27d"/>
      </g>
      <g id="Grupo_29449" data-name="Grupo 29449" transform="translate(32.218 92.934)">
        <path id="Trazado_61899" data-name="Trazado 61899" d="M2253.839,1388.134l-1.356,5.6s-39.266-20.281-44.344-24.175c-2.04-1.565-4.735-10.062-7.233-19.676-3.719-14.328-7-31.133-7-31.133s5.505-21.17,20.24-8.214c8.818,7.754,7.446,22.694,6.48,34.314-.642,7.8-1.1,14.1,1.819,15.733,5.7,3.183,22.44,17.847,27.737,27.935Z" transform="translate(-2193.91 -1306.34)" fill="#ffb27d"/>
      </g>
      <g id="Grupo_29450" data-name="Grupo 29450" transform="translate(22.423 28.416)">
        <path id="Trazado_61900" data-name="Trazado 61900" d="M2207.677,1069.715c1.878,2.667.844,7.838-3.095,12-2.446,2.585-5.758,4.115-11.149,3.32-2.35-.346-6.493-2.974-8.656-7.319-.323-.649-1.144-2.554-1.144-2.554s-2.989,2.994-3.1,3.559c-.05.254-.308,2.516-.348,2.825a10.89,10.89,0,0,0,.219,1.748s-14.282,6.246-26.089-.867c0,0-2.794-18.135-.948-33.65.354-2.974,7.941-7.03,10.288-9.082a3.746,3.746,0,0,0,.917-2.749c-.119-.757.752-2.034,1.482-1.8,1.411.452,5.4,2.428,8.214,1.674,1.4-.372,3.174-1.99,4.531-1.619,1.658.453-.094,4.444.846,4.5,1.295.064,7.112.155,8.877,2.591,1.446,2,2.214,5.716,4.733,12.76a.087.087,0,0,1,0,.018C2197.986,1068.28,2204.921,1065.8,2207.677,1069.715Z" transform="translate(-2152.735 -1035.119)" fill="#f99746"/>
      </g>
      <g id="Grupo_29451" data-name="Grupo 29451" transform="translate(40.925 59.353)">
        <path id="Trazado_61901" data-name="Trazado 61901" d="M2242.909,1174.28a46.843,46.843,0,0,1-2.486-8.967c-.3-1.583-12.469,10.579-9.421,15.519S2242.909,1174.28,2242.909,1174.28Z" transform="translate(-2230.512 -1165.172)" fill="#ed7d2b"/>
      </g>
      <g id="Grupo_29452" data-name="Grupo 29452" transform="translate(17.848 74.604)">
        <path id="Trazado_61902" data-name="Trazado 61902" d="M2186.521,1273.813s-3.824,1.1-9.57,2.307c-11.872,2.5-31.95,5.506-43.448.379,0,0,.735-16.912,2.733-29.7,1.6-10.227,3.08-16.941,3.08-16.941a56.485,56.485,0,0,0,21.545.6c.1-.019.205-.039.309-.06a35.147,35.147,0,0,0,4.244-1.117s8.195,11.746,12.422,19.919C2180.761,1254.857,2186.521,1273.813,2186.521,1273.813Z" transform="translate(-2133.503 -1229.284)" fill="#23569e"/>
      </g>
      <g id="Grupo_29453" data-name="Grupo 29453" transform="translate(44.004 74.604)">
        <path id="Trazado_61903" data-name="Trazado 61903" d="M2270.318,1273.813s-3.824,1.1-9.57,2.307q-1.853.2-3.849.379c-19.268-24.6-12.164-45.977-12.164-45.977.077-.041.155-.082.232-.121a35.147,35.147,0,0,0,4.244-1.117s8.195,11.746,12.422,19.919C2264.558,1254.857,2270.318,1273.813,2270.318,1273.813Z" transform="translate(-2243.456 -1229.284)" fill="#163560"/>
      </g>
      <g id="Grupo_29454" data-name="Grupo 29454" transform="translate(92.149 67.409)">
        <path id="Trazado_61904" data-name="Trazado 61904" d="M2445.848,1202.138s5.325-2.623,7.443-2.877,5.674-.339,5.674,0-3.811,2.706-4.827,2.877-2.964,1.611-2.371,1.781,3.726-.551,3.768,0-1.905.889-2.244,1.312-1.524.932-3.43.678-4.013-.381-4.013-.381Z" transform="translate(-2445.848 -1199.037)" fill="#ffb27d"/>
      </g>
      <g id="Grupo_29455" data-name="Grupo 29455" transform="translate(88.494 169.192)">
        <path id="Trazado_61905" data-name="Trazado 61905" d="M2442.509,1635.1a.934.934,0,0,0-.5-.43l-.147-.053a2.451,2.451,0,0,1-1.519-1.595c-.353-.846-.459-1.54-.782-2.377l-1.326-2.288c-1.387-1.826-1.873-1.4-1.873-1.4s-.362.465-.9,1.078a11.182,11.182,0,0,1-3.2,2.785,2.789,2.789,0,0,0-1.371,1.073,2.643,2.643,0,0,0-.409.941s2.847.5,2.6,1.9c-.483,2.716-.369,3.209-.32,3.3l.017.018s4.856,2.542,6.408,3.041a12.113,12.113,0,0,1,5.1,3.621,1.6,1.6,0,0,0,1.359.428,5.706,5.706,0,0,0,1.3-.34.671.671,0,0,0,.316-.936Z" transform="translate(-2430.486 -1626.917)" fill="#2b478b"/>
      </g>
      <g id="Grupo_29456" data-name="Grupo 29456" transform="translate(25.143 201.273)">
        <path id="Trazado_61906" data-name="Trazado 61906" d="M2182.216,1769.658l-2.326,1.259c-.846.3-1.543.385-2.4.713a4.955,4.955,0,0,0-2.258,1.653c-.656,2.667-1.616,2.586-1.616,2.586H2164.3c-.441-.22.306-2.107.664-2.459.884-.87,3.527-.433,4.492-3.169.544-1.538,3.225-6.318,3.225-6.318l.019-.017c.09-.047.587-.146,3.288.415,1.4.289,1.974-2.543,1.974-2.543a2.646,2.646,0,0,1,.928.436,2.787,2.787,0,0,1,1.033,1.4,11.183,11.183,0,0,0,2.691,3.28c.6.553,1.052.929,1.052.929S2184.082,1768.324,2182.216,1769.658Z" transform="translate(-2164.168 -1761.778)" fill="#2b478b"/>
      </g>
      <g id="Grupo_29457" data-name="Grupo 29457" transform="translate(0 49.603)">
        <path id="Trazado_61907" data-name="Trazado 61907" d="M2065.372,1134.185a11.7,11.7,0,0,0-.331-4.893c-.8-2.051-.982-4.279-1.625-3.394s-.1,3.383-.664,3.3a2.114,2.114,0,0,1-1.31-1.668c-.381-1.525.544-3.529-.724-3.332-1.211.188-2.835,5.815-2.031,7.344a50.345,50.345,0,0,0,3.8,5.146Z" transform="translate(-2058.472 -1124.187)" fill="#ffb27d"/>
      </g>
      <g id="Grupo_29459" data-name="Grupo 29459" transform="translate(23.076 71.693)">
        <g id="Grupo_29458" data-name="Grupo 29458">
          <path id="Trazado_61908" data-name="Trazado 61908" d="M2167.415,1223.689c-7.918,0-11.182-2.725-11.424-2.911l-.512-3.729c.076.056,10.7,6.436,27.144.326l-.348,2.825C2175.951,1222.55,2171.528,1223.689,2167.415,1223.689Z" transform="translate(-2155.479 -1217.049)" fill="#ea7147"/>
        </g>
      </g>
    </g>
    <g id="Grupo_29469" data-name="Grupo 29469" transform="translate(185.519 327.275)">
      <g id="Grupo_29461" data-name="Grupo 29461" transform="translate(53.873 0.252)">
        <path id="Trazado_61909" data-name="Trazado 61909" d="M532.736,1072.974a.739.739,0,0,0,.175.021,1.459,1.459,0,0,0,1.254-1.231l6.01-25.374.533-2.253,9.01-38.042.533-2.253,7.546-31.867.533-2.253,7.529-31.785.533-2.253,9.653-40.767.533-2.25,7.965-33.628.533-2.25,3.955-16.7a1.311,1.311,0,0,0-.746-1.682c-.6-.133-1.24.41-1.429,1.211l-4.069,17.174-.533,2.25-7.962,33.628-.533,2.25L564.1,935.683l-.533,2.253-7.526,31.785-.536,2.253-7.546,31.867-.533,2.253-9.01,38.042-.533,2.253-5.9,24.9A1.3,1.3,0,0,0,532.736,1072.974Z" transform="translate(-531.936 -838.383)" fill="#2b478b"/>
      </g>
      <g id="Grupo_29462" data-name="Grupo 29462" transform="translate(0 0)">
        <path id="Trazado_61910" data-name="Trazado 61910" d="M306.26,1072.168a.78.78,0,0,0,.175.021,1.449,1.449,0,0,0,1.254-1.232l5.948-25.148.536-2.256,9.007-38.083.536-2.256,7.546-31.9.533-2.256,7.529-31.819.533-2.256,9.656-40.811.533-2.252,7.966-33.664.532-2.252,4.014-16.971a1.312,1.312,0,0,0-.746-1.684c-.6-.137-1.241.411-1.429,1.212L356.256,856l-.533,2.252-7.965,33.664-.533,2.252-9.653,40.811-.536,2.256-7.526,31.819-.533,2.256-7.55,31.9-.532,2.256-9.01,38.083-.533,2.256-5.838,24.675A1.312,1.312,0,0,0,306.26,1072.168Z" transform="translate(-305.462 -837.326)" fill="#2b478b"/>
      </g>
      <g id="Grupo_29463" data-name="Grupo 29463" transform="translate(53.357 8.413)">
        <path id="Trazado_61911" data-name="Trazado 61911" d="M529.767,874.952h54.768l.519-2.261H530.286Z" transform="translate(-529.767 -872.69)" fill="#2b478b"/>
      </g>
      <g id="Grupo_29464" data-name="Grupo 29464" transform="translate(43.65 49.058)">
        <path id="Trazado_61912" data-name="Trazado 61912" d="M488.958,1045.818h54.35l.515-2.261h-54.35Z" transform="translate(-488.958 -1043.557)" fill="#2b478b"/>
      </g>
      <g id="Grupo_29465" data-name="Grupo 29465" transform="translate(31.574 98.039)">
        <path id="Trazado_61913" data-name="Trazado 61913" d="M438.2,1251.729H493.89l.528-2.265H438.726Z" transform="translate(-438.195 -1249.465)" fill="#2b478b"/>
      </g>
      <g id="Grupo_29466" data-name="Grupo 29466" transform="translate(23.516 132.248)">
        <path id="Trazado_61914" data-name="Trazado 61914" d="M404.32,1395.537h55.691l.528-2.265H404.847Z" transform="translate(-404.32 -1393.272)" fill="#2b478b"/>
      </g>
      <g id="Grupo_29467" data-name="Grupo 29467" transform="translate(15.434 166.539)">
        <path id="Trazado_61915" data-name="Trazado 61915" d="M370.344,1539.692h55.694l.528-2.265H370.871Z" transform="translate(-370.344 -1537.427)" fill="#2b478b"/>
      </g>
      <g id="Grupo_29468" data-name="Grupo 29468" transform="translate(5.891 207.037)">
        <path id="Trazado_61916" data-name="Trazado 61916" d="M330.227,1709.935h55.694l.528-2.265H330.755Z" transform="translate(-330.227 -1707.671)" fill="#2b478b"/>
      </g>
    </g>
    <g id="Grupo_29493" data-name="Grupo 29493" transform="translate(225.116 196.72)">
      <g id="Grupo_29470" data-name="Grupo 29470" transform="translate(93.707 58.295)">
        <path id="Trazado_61917" data-name="Trazado 61917" d="M869.159,534.489s-2.343,1.284-3.145,0,1.572-.866,1.572-.866Z" transform="translate(-865.848 -533.558)" fill="#ef9e67"/>
      </g>
      <g id="Grupo_29474" data-name="Grupo 29474" transform="translate(74.298 56.764)">
        <g id="Grupo_29471" data-name="Grupo 29471">
          <path id="Trazado_61918" data-name="Trazado 61918" d="M789.995,557.972l2.376.582,11.4,2.794a8.48,8.48,0,0,0,10.227-6.2l.667-2.725q.921-.818,1.883-1.752c10.466-10.193,24.375-3.88,24.375-3.88a2.123,2.123,0,0,0,.035-.91,2.206,2.206,0,0,0-.716-1.259c-8.721-4.3-20.079-3.277-25.032-2.535-1.568.235-2.493.439-2.493.439l-.318-.077c.991-7.086-2.494-13.629-8.3-15.051a9.7,9.7,0,0,0-3.721-.174,12.074,12.074,0,0,0-6.439,3.242,16.212,16.212,0,0,0-4.163,6.459,2.63,2.63,0,0,0-2.864,1.978l-2.442,9.959A7.554,7.554,0,0,0,789.995,557.972ZM802.557,535.5l-.643-.158a2.188,2.188,0,0,0-2.64,1.6l-4.646-1.139a2.6,2.6,0,0,0-3.012,1.549l-.685-.168a14.9,14.9,0,0,1,4.249-6.261,10.313,10.313,0,0,1,6.455-2.625,8.314,8.314,0,0,1,2.187.241c5.183,1.271,8.287,7.18,7.433,13.628l-.5-.122a2.592,2.592,0,0,0-1.956-2.768l-4.643-1.14A2.189,2.189,0,0,0,802.557,535.5Z" transform="translate(-784.256 -527.12)" fill="#c94c43"/>
        </g>
        <g id="Grupo_29472" data-name="Grupo 29472" transform="translate(29.694 16.493)">
          <path id="Trazado_61919" data-name="Trazado 61919" d="M909.8,605.264q.921-.819,1.883-1.752c10.466-10.193,24.375-3.88,24.375-3.88a2.122,2.122,0,0,0,.035-.91,24.741,24.741,0,0,0-17.23-1.234C909.437,600.491,907.89,602.1,909.8,605.264Z" transform="translate(-909.083 -596.452)" fill="#b23b38"/>
        </g>
        <g id="Grupo_29473" data-name="Grupo 29473" transform="translate(0 0.104)">
          <path id="Trazado_61920" data-name="Trazado 61920" d="M789.995,558.3l2.376.582c-3.63-1.33-.633-9.692,1.033-15.166s5.692-3.689,5.692-3.689a2.955,2.955,0,0,1,2.4-2.016,2.064,2.064,0,0,1,1.057-2.184l-.643-.158a2.188,2.188,0,0,0-2.64,1.6l-4.646-1.139a2.6,2.6,0,0,0-3.012,1.549l-.685-.168a14.9,14.9,0,0,1,4.249-6.261,10.313,10.313,0,0,1,6.455-2.625,4.81,4.81,0,0,1-1.254-1.076,12.074,12.074,0,0,0-6.439,3.242,16.212,16.212,0,0,0-4.163,6.459,2.63,2.63,0,0,0-2.864,1.978l-2.442,9.958A7.554,7.554,0,0,0,789.995,558.3Z" transform="translate(-784.256 -527.555)" fill="#b23b38"/>
        </g>
      </g>
      <g id="Grupo_29475" data-name="Grupo 29475" transform="translate(87.824 55.916)">
        <path id="Trazado_61921" data-name="Trazado 61921" d="M843.508,524.331c6.323-2.589,7.6,2.137,7.6,2.137-.66-.155-1.1-1.035-2.372.109-1.859,1.674-3.209,2.6-5.1,1.958l-2.263.023-.255-3.385A9.052,9.052,0,0,1,843.508,524.331Z" transform="translate(-841.118 -523.556)" fill="#ffb27d"/>
      </g>
      <g id="Grupo_29476" data-name="Grupo 29476" transform="translate(36.265 17.974)">
        <path id="Trazado_61922" data-name="Trazado 61922" d="M624.37,374.884s4.851,5.755,11.029,3.348a18.711,18.711,0,0,0,1.348-5.584c0-.292.006-.574.01-.843.033-2.668.123-4.165.123-4.165h-.006c-.281-.117-9.444-3.879-9.436-3.567C627.595,371.288,624.37,374.884,624.37,374.884Z" transform="translate(-624.37 -364.053)" fill="#ffb27d"/>
      </g>
      <g id="Grupo_29477" data-name="Grupo 29477" transform="translate(40.246 19.645)">
        <path id="Trazado_61923" data-name="Trazado 61923" d="M641.114,371.148a14.332,14.332,0,0,0,8.4,6.013c.033-2.668.123-4.165.123-4.165h-.006C649.377,372.926,640.851,370.666,641.114,371.148Z" transform="translate(-641.108 -371.081)" fill="#ed975d"/>
      </g>
      <g id="Grupo_29478" data-name="Grupo 29478" transform="translate(37.417 4.299)">
        <path id="Trazado_61924" data-name="Trazado 61924" d="M642.492,323.552s-10.3,2.423-11.715-4.018-3.69-10.465,2.83-12.285,8.34.358,9.334,2.393S645.136,322.755,642.492,323.552Z" transform="translate(-629.215 -306.568)" fill="#ffb27d"/>
      </g>
      <g id="Grupo_29479" data-name="Grupo 29479" transform="translate(32.165 0)">
        <path id="Trazado_61925" data-name="Trazado 61925" d="M614.3,307.515c-.141.09-2.358.771-6.557-7.594a7.286,7.286,0,0,1,.428-6.664c1.536-2.51,5.692-4.2,10.274-4.687,4.113-.437,6.339,1.122,7.341,2.5,1.685,2.31,2.91,6.578.153,5.819a12.779,12.779,0,0,0-5.46-.249c-1.639.479-2.2,3.08-2.326,3.9s-.31,1.507-2.358.772-.926,2.9-.6,3.6C615.2,304.91,615.479,306.763,614.3,307.515Z" transform="translate(-607.138 -288.496)" fill="#a9453d"/>
      </g>
      <g id="Grupo_29485" data-name="Grupo 29485" transform="translate(0 78.364)">
        <g id="Grupo_29480" data-name="Grupo 29480" transform="translate(0 85.857)">
          <path id="Trazado_61926" data-name="Trazado 61926" d="M485,994.263h-6.24c-1.308,0-2.762-1.31-3.125-3.708s-3.052-3.707-3.635-5.67,2.4-4.726,2.4-4.726l.5-.64.519-.668,4.943,1.163s.122,1.177.2,2.676a34.229,34.229,0,0,1,.02,3.431c-.145,2.618.733,5.436,3.058,5.945S485,994.263,485,994.263Z" transform="translate(-471.92 -978.851)" fill="#202e51"/>
        </g>
        <g id="Grupo_29481" data-name="Grupo 29481" transform="translate(38.839 92.264)">
          <path id="Trazado_61927" data-name="Trazado 61927" d="M652.868,1014.79h-16.54a1.511,1.511,0,0,1-.351-.1c-1.1-.553-.759-4.781-.626-6.087.025-.242.044-.384.044-.384s5.816-4.652,6.616-1.09c.026.111.055.22.086.327v0c1.01,3.333,5.523,4.846,8.13,5.268C652.219,1013.049,652.735,1014.21,652.868,1014.79Z" transform="translate(-635.194 -1005.785)" fill="#202e51"/>
        </g>
        <g id="Grupo_29482" data-name="Grupo 29482" transform="translate(28.5 4.362)">
          <path id="Trazado_61928" data-name="Trazado 61928" d="M616.409,637.788s-.883,11.02-1.921,24.267c-1.411,18-3.108,40.1-3.276,44.286-.29,7.271-1.455,18.9-1.455,18.9s-2.761,2.763-8.288,1.6a190.288,190.288,0,0,1-6.331-34.171c-.022-.288-.044-.578-.065-.868-1.309-17.884-3.344-55.542-3.344-55.542Z" transform="translate(-591.73 -636.261)" fill="#f99746"/>
        </g>
        <g id="Grupo_29483" data-name="Grupo 29483" transform="translate(28.5 4.362)">
          <path id="Trazado_61929" data-name="Trazado 61929" d="M616.409,637.788s-.883,11.02-1.921,24.267l-19.349,30.616c-.022-.288-.044-.578-.065-.868-1.309-17.884-3.344-55.542-3.344-55.542Z" transform="translate(-591.73 -636.261)" fill="#ed7d2b"/>
        </g>
        <g id="Grupo_29484" data-name="Grupo 29484" transform="translate(2.474)">
          <path id="Trazado_61930" data-name="Trazado 61930" d="M528.993,625.122s-15.921,39.911-26.389,58.667-13.74,23.99-13.74,23.99-6-2.4-6.543-4.035c0,0,4-36.209,11.014-45.036,3.961-4.988,8.615-19.956,8.833-25.19s1.418-15.594,1.418-15.594Z" transform="translate(-482.321 -617.925)" fill="#f99746"/>
        </g>
      </g>
      <g id="Grupo_29488" data-name="Grupo 29488" transform="translate(7.212 29.442)">
        <g id="Grupo_29486" data-name="Grupo 29486" transform="translate(0 47.929)">
          <path id="Trazado_61931" data-name="Trazado 61931" d="M507.575,614.688l-.168,2.567s-.034,1.049.021,1.94c.095,1.54-.065,3.477-3.072,4.959,0,0-2.03.819-2.113-.762s.7-1.234.531-3.46.191-4.081,1.664-4.79l1.208-1.394Z" transform="translate(-502.237 -613.749)" fill="#ffb27d"/>
        </g>
        <g id="Grupo_29487" data-name="Grupo 29487" transform="translate(1.293)">
          <path id="Trazado_61932" data-name="Trazado 61932" d="M509.864,463c1.762.566,2.044.438,2.044.438s8.577-15.616,9.446-17.045,18.211-17.511,18.211-17.511l-4.457-16.619s-19.724,25.542-21.854,29.207c-3.52,6.057-5.582,20.123-5.582,20.123A5.157,5.157,0,0,0,509.864,463Z" transform="translate(-507.672 -412.265)" fill="#1e3d70"/>
        </g>
      </g>
      <g id="Grupo_29489" data-name="Grupo 29489" transform="translate(22.165 25.698)">
        <path id="Trazado_61933" data-name="Trazado 61933" d="M599.185,423.414c-.062,3.413-.26,7.249-.528,11.146l-.049.693c-.171,2.414-.357,4.833-.569,7.193q-.128,1.419-.271,2.8l-.014.124c-.007.344-.049.716-.087,1.057-.87,8.838-1.781,15.82-1.95,15.927a.992.992,0,0,1-.679.173c-2.318-.291-9.232.235-14.894-1a42.918,42.918,0,0,1-13.249-5.494c-.578-.342-1.9-1.248-1.79-1.924.106-.744.3-1.819.548-3.171a171.543,171.543,0,0,0,2.847-22.25q.148-2.644.428-5.215a79.138,79.138,0,0,1,2.308-12.456c1.941-6.989,6.136-12.37,9.715-14.464.468-.262,1.641,1.367,3.951,2.85,2.134,1.368,4.071.929,6.255.738l2.233,2.944a21.475,21.475,0,0,1,5.485,11.434q.077.568.131,1.208A75.168,75.168,0,0,1,599.185,423.414Z" transform="translate(-565.098 -396.526)" fill="#2a4e96"/>
      </g>
      <g id="Grupo_29490" data-name="Grupo 29490" transform="translate(40.398 40.975)">
        <path id="Trazado_61934" data-name="Trazado 61934" d="M657.6,472.359c-.062,3.413-.26,7.249-.528,11.146l-.049.693c-13.238-8.286-15.277-23.449-15.277-23.449a36.211,36.211,0,0,1,15.674,3.924A75.168,75.168,0,0,1,657.6,472.359Z" transform="translate(-641.745 -460.749)" fill="#1e3d70"/>
      </g>
      <g id="Grupo_29491" data-name="Grupo 29491" transform="translate(34.678 31.958)">
        <path id="Trazado_61935" data-name="Trazado 61935" d="M672.723,450c.137-1.963-.88-2.29-.88-2.29s-19.96-3.617-21.657-4.151-16.206-15.626-16.206-15.626-5.561-6.272-10.115-4.887c-3.957,1.2-5.5,4.29-6.03,7.231a8.661,8.661,0,0,0,4.022,8.891c6.812,4.178,20.448,12.41,23.66,13.351,7.148,2.1,26.353.168,26.353.168A6.193,6.193,0,0,0,672.723,450Z" transform="translate(-617.702 -422.842)" fill="#2a4e96"/>
      </g>
      <g id="Grupo_29492" data-name="Grupo 29492" transform="translate(11.883 81.757)">
        <path id="Trazado_61936" data-name="Trazado 61936" d="M522.363,632.189s.48,2.247.769,2.985-.9.321-1.187-.674A3.737,3.737,0,0,1,522.363,632.189Z" transform="translate(-521.876 -632.189)" fill="#ffb27d"/>
      </g>
    </g>
    <g id="Grupo_29494" data-name="Grupo 29494" transform="translate(271.172 426.193)">
      <rect id="Rectngulo_5880" data-name="Rectngulo 5880" width="2.054" height="140.153" transform="matrix(0.969, -0.247, 0.247, 0.969, 0, 0.507)" fill="#2b478b"/>
    </g>
    <g id="Grupo_29495" data-name="Grupo 29495" transform="translate(148.081 561.228)">
      <path id="Rectngulo_5881" data-name="Rectngulo 5881" d="M.91,0H626.184a.91.91,0,0,1,.91.91v0a.91.91,0,0,1-.91.91H.91A.91.91,0,0,1,0,.91v0A.91.91,0,0,1,.91,0Z" transform="translate(0 0)" fill="#2e3552"/>
    </g>
  </g>
</svg>
