<svg xmlns="http://www.w3.org/2000/svg" width="828" height="937.505" viewBox="0 0 828 937.505">
  <g id="Grupo_31098" data-name="Grupo 31098" transform="translate(-538 -4384.495)">
    <g id="Grupo_28926" data-name="Grupo 28926" transform="translate(883 4384.495)">
      <path id="Trazado_60710" data-name="Trazado 60710" d="M72.816,232.788V108.39h-28.6v-51.1h93.518v175.5Z" transform="translate(-39.879 -52.955)" fill="#f0a700"/>
      <path id="Trazado_60711" data-name="Trazado 60711" d="M135.865,64.1V230.917H79.624V106.52h-28.6V64.1h84.838m8.679-8.679H42.348V115.2h28.6V239.6h73.6V55.423Z" transform="translate(-42.348 -55.423)" fill="#fff"/>
    </g>
    <g id="Grupo_28928" data-name="Grupo 28928" transform="translate(538 4622.688)">
      <path id="Trazado_60713" data-name="Trazado 60713" d="M247.256,232.636V192.756l60.307-55.779c4.706-4.416,7.855-8.168,9.337-11.131a18.218,18.218,0,0,0,2.116-8.119c0-2.768-.81-4.731-2.546-6.17-1.924-1.592-4.973-2.4-9.057-2.4a22.108,22.108,0,0,0-11.776,3.346,21.624,21.624,0,0,0-8.4,9.4l-1.873,3.868-49.208-24.606,2.047-3.843A72.522,72.522,0,0,1,267.119,68.02c12.547-7.089,27.829-10.686,45.421-10.686,13.4,0,25.476,2.23,35.9,6.625,10.623,4.483,19.067,11,25.093,19.369a49.059,49.059,0,0,1,9.187,29.273,61.67,61.67,0,0,1-6.133,27.131c-4.091,8.423-11.688,17.573-23.228,27.975l-15.174,13.807h48.261v51.122Z" transform="translate(-230.361 -53.092)" fill="#ff3648"/>
      <path id="Trazado_60714" data-name="Trazado 60714" d="M315.837,63.992q19.335,0,34.248,6.288t23.3,17.942a44.68,44.68,0,0,1,8.389,26.792,57.168,57.168,0,0,1-5.708,25.279q-5.715,11.768-22.251,26.676l-23.3,21.2H385.5v42.636H254.8V197.024l58.944-54.517q7.689-7.219,10.252-12.347a22.324,22.324,0,0,0,2.564-10.02q0-6.056-4.077-9.435t-11.767-3.379a26.458,26.458,0,0,0-13.979,3.961,25.976,25.976,0,0,0-10.017,11.182l-41.471-20.736A68.037,68.037,0,0,1,272.5,74.125q17.939-10.132,43.335-10.133m0-8.486c-18.332,0-34.315,3.78-47.509,11.233a76.714,76.714,0,0,0-30.572,31l-4.1,7.685,7.792,3.894,41.469,20.736,7.688,3.845,3.745-7.736a17.532,17.532,0,0,1,6.787-7.63,17.99,17.99,0,0,1,9.572-2.727c2.984,0,5.242.508,6.356,1.429.371.309,1,.833,1,2.9a14.076,14.076,0,0,1-1.666,6.226c-.708,1.409-2.75,4.585-8.47,9.955l-58.9,54.475-2.724,2.52v45.978H393.983V179.685H352.447l7.077-6.439C371.447,162.5,379.364,152.924,383.7,144a65.845,65.845,0,0,0,6.56-28.985,53.212,53.212,0,0,0-9.985-31.749c-6.49-9.013-15.538-16.011-26.887-20.8-10.948-4.618-23.581-6.959-37.547-6.959Z" transform="translate(-233.658 -55.506)" fill="#fff"/>
    </g>
    <g id="Grupo_28930" data-name="Grupo 28930" transform="translate(538 4851.104)">
      <path id="Trazado_60716" data-name="Trazado 60716" d="M110.249,339.691a166.36,166.36,0,0,1-35.266-3.824,111.564,111.564,0,0,1-31.12-11.4l-3.4-1.917,22.223-48.331,4.035,2.348a82.313,82.313,0,0,0,20.494,8.416,83.727,83.727,0,0,0,21.174,2.889c5.606,0,10.082-.914,13.3-2.72,2.564-1.436,3.657-3.116,3.657-5.62,0-1.717,0-6.94-15.095-6.94H84.339V232.833l18.139-18.489H50.091V164.389h130.1v39.763l-26.553,26.961c10.147,3.555,18.3,9,24.3,16.239,7.374,8.9,11.113,19.724,11.113,32.178a54.649,54.649,0,0,1-8.7,29.646c-5.771,9.119-14.716,16.584-26.586,22.186C142.056,336.887,127.416,339.691,110.249,339.691Z" transform="translate(-34.973 -160.147)" fill="#0068a2"/>
      <path id="Trazado_60717" data-name="Trazado 60717" d="M179.072,171.045v33.784l-30.289,30.753q18.872,4.664,29.008,16.893t10.133,29.47a50.25,50.25,0,0,1-8.038,27.377q-8.037,12.7-24.813,20.62t-41.7,7.922A161.253,161.253,0,0,1,79,334.134a106.9,106.9,0,0,1-29.936-10.95l18.638-40.538a86.047,86.047,0,0,0,21.55,8.853,87.529,87.529,0,0,0,22.251,3.031q9.551,0,15.375-3.263t5.827-9.321q0-11.183-19.339-11.182H91.7V236.98l24-24.465H57.455V171.045H179.072m8.484-8.484H48.969V221H95.494l-9.848,10.038-2.427,2.476v45.734h30.152c8.92,0,10.755,2.014,10.781,2.047h0a1.973,1.973,0,0,1,.072.65c0,.631,0,1.086-1.485,1.917-2.583,1.448-6.36,2.181-11.231,2.181a79.379,79.379,0,0,1-20.1-2.752,77.928,77.928,0,0,1-19.438-7.98l-8.075-4.7L60,279.1,41.36,319.64l-3.265,7.1,6.806,3.836a115.878,115.878,0,0,0,32.3,11.851,170.424,170.424,0,0,0,36.169,3.922c17.8,0,33.046-2.938,45.326-8.732,12.609-5.954,22.151-13.946,28.361-23.755a58.833,58.833,0,0,0,9.354-31.916c0-13.468-4.068-25.2-12.087-34.883a55.82,55.82,0,0,0-20.074-15.09l20.868-21.188,2.439-2.478V162.561Z" transform="translate(-38.095 -162.561)" fill="#fff"/>
    </g>
    <g id="Grupo_28932" data-name="Grupo 28932" transform="translate(830 5125.473)">
      <path id="Trazado_60719" data-name="Trazado 60719" d="M322.659,340.966v-28.82h-87.18V270.19l73.48-106.382H377.89l-46.314,69.646H386.7v25.7h22.334v52.995H386.7v28.82Zm1.68-81.815V244.337l-9.85,14.814Z" transform="translate(-230.956 -159.283)" fill="#00aa56"/>
      <path id="Trazado_60720" data-name="Trazado 60720" d="M372.022,170.905l-63.4,95.343h22.817v-25.7H384.75v25.7h22.337V310.2H384.75v28.818H329.755V310.2H242.578V274.173L313.9,170.905h58.118m16.881-9.047H309.159l-2.7,3.905L235.133,269.031l-1.6,2.323v47.892h87.177v28.82H393.8v-28.82h22.334V257.2H393.8V231.5H342.592l36.965-55.589,9.347-14.057Z" transform="translate(-233.53 -161.858)" fill="#fff"/>
    </g>
    <text id="La_situación_de_exposición_se_presenta_sin_interrupción_o_varias_veces_con_tiempo_prolongado_durante_la_jornada_laboral" data-name="La situación de exposición se presenta sin interrupción o varias veces con tiempo prolongado durante la jornada laboral" transform="translate(1060 4435)" fill="#4d1c0d" font-size="18" font-family="SegoeUI, Segoe UI"><tspan x="0" y="19">La situación de exposición </tspan><tspan x="0" y="43">se presenta sin </tspan><tspan x="0" y="67">interrupción o varias veces </tspan><tspan x="0" y="91">con tiempo prolongado </tspan><tspan x="0" y="115">durante la jornada laboral</tspan></text>
    <text id="Continua" transform="translate(1098 4410)" fill="#027878" font-size="18" font-family="SegoeUI-Bold, Segoe UI" font-weight="700"><tspan x="-38.355" y="0">Continua</tspan></text>
    <text id="La_situación_de_exposición_se_presenta_varias_veces_durante_la_jornada_laboral_por_tiempos_cortos" data-name="La situación de exposición se presenta varias veces durante la jornada laboral por tiempos cortos" transform="translate(786 4694)" fill="#4d1c0d" font-size="18" font-family="SegoeUI, Segoe UI"><tspan x="0" y="19">La situación de exposición </tspan><tspan x="0" y="43">se presenta varias veces </tspan><tspan x="0" y="67">durante la jornada laboral </tspan><tspan x="0" y="91">por tiempos cortos</tspan></text>
    <text id="Frecuente" transform="translate(830 4659)" fill="#027878" font-size="18" font-family="SegoeUI-Bold, Segoe UI" font-weight="700"><tspan x="-41.511" y="0">Frecuente</tspan></text>
    <text id="La_situación_de_exposición_se_presenta_alguna_vez_durante_la_jornada_laboral_y_por_un_periodo_de_tiempo_corto" data-name="La situación de exposición se presenta alguna vez durante la jornada laboral y por un periodo de tiempo corto" transform="translate(783.5 4902)" fill="#4d1c0d" font-size="18" font-family="SegoeUI, Segoe UI"><tspan x="0" y="19">La situación de exposición </tspan><tspan x="0" y="43">se presenta alguna vez </tspan><tspan x="0" y="67">durante la jornada laboral </tspan><tspan x="0" y="91">y por un periodo de </tspan><tspan x="0" y="115">tiempo corto</tspan></text>
    <text id="Ocasional" transform="translate(827.5 4870)" fill="#027878" font-size="18" font-family="SegoeUI-Bold, Segoe UI" font-weight="700"><tspan x="-40.852" y="0">Ocasional</tspan></text>
    <text id="La_situación_de_exposición_se_presenta_de_manera_eventual_GTC_45_2012_" data-name="La situación de exposición se presenta de manera eventual
(GTC 45, 2012)" transform="translate(1071 5195)" fill="#4d1c0d" font-size="18" font-family="SegoeUI, Segoe UI"><tspan x="0" y="19">La situación de exposición </tspan><tspan x="0" y="43">se presenta de manera </tspan><tspan x="0" y="67">eventual</tspan><tspan x="0" y="91">(GTC 45, 2012)</tspan></text>
    <text id="Esporádica" transform="translate(1117 5165)" fill="#027878" font-size="18" font-family="SegoeUI-Bold, Segoe UI" font-weight="700"><tspan x="-45.549" y="0">Esporádica</tspan></text>
    <g id="Grupo_29620" data-name="Grupo 29620" transform="translate(385 58)">
      <g id="Rectángulo_5721" data-name="Rectángulo 5721" transform="translate(692 4646)" fill="#b7cfdf" stroke="rgba(112,112,112,0)" stroke-width="1">
        <rect width="289" height="273" rx="83" stroke="none"/>
        <rect x="0.5" y="0.5" width="288" height="272" rx="82.5" fill="none"/>
      </g>
      <text id="Situación_en_la_cual_las_personas_se_encuentran_en_contacto_con_los_peligros._Estos_pueden_ser:" data-name="Situación en la cual las personas se encuentran en contacto con los peligros. Estos pueden ser:" transform="translate(725 4771)" fill="#4d1c0d" font-size="18" font-family="SegoeUI, Segoe UI"><tspan x="-89.394" y="19">Situación en la cual las </tspan><tspan x="-106.132" y="43">personas se encuentran en </tspan><tspan x="-101.654" y="67">contacto con los peligros. </tspan><tspan x="-69.24" y="91">Estos pueden ser:</tspan></text>
      <text id="EXPOSICIÓN" transform="translate(837 4727)" fill="#027878" font-size="18" font-family="SegoeUI-Bold, Segoe UI" font-weight="700"><tspan x="-53.517" y="0">EXPOSICIÓN</tspan></text>
    </g>
    <g id="Elipse_1385" data-name="Elipse 1385" transform="translate(934 4455)" fill="#b7cfdf" stroke="rgba(112,112,112,0)" stroke-width="1">
      <circle cx="57.5" cy="57.5" r="57.5" stroke="none"/>
      <circle cx="57.5" cy="57.5" r="57" fill="none"/>
    </g>
    <g id="reciclar" transform="translate(948.001 4469.996)">
      <g id="Grupo_29615" data-name="Grupo 29615" transform="translate(2.151 1.687)">
        <path id="Trazado_62265" data-name="Trazado 62265" d="M12.8,37.321,38.85,32.737,34.041,26.7a31.494,31.494,0,0,1,50.4,31.281l10.24-1.8a41.311,41.311,0,0,0-66.749-37.16L23.12,12.972Z" transform="translate(-12.804 -10.027)" fill="#bfdbff" fill-rule="evenodd"/>
      </g>
      <g id="Grupo_29616" data-name="Grupo 29616" transform="translate(1.685 36.365)">
        <path id="Trazado_62266" data-name="Trazado 62266" d="M10.313,218.293a41.311,41.311,0,0,0,66.749,37.164l4.808,6.041,10.316-24.349-26.046,4.579,4.808,6.046a31.494,31.494,0,0,1-50.4-31.281Z" transform="translate(-10.028 -216.494)" fill="#bfdbff" fill-rule="evenodd"/>
      </g>
      <g id="Grupo_29619" data-name="Grupo 29619" transform="translate(0 0.004)">
        <path id="Trazado_62269" data-name="Trazado 62269" d="M78.974,16.235A42.994,42.994,0,0,0,19.9,8.338L16.114,3.586a1.679,1.679,0,0,0-2.86.391L2.938,28.326a1.68,1.68,0,0,0,1.837,2.309l26.046-4.584a1.679,1.679,0,0,0,1.023-2.7l-3.733-4.69a29.8,29.8,0,0,1,29.047-3.033,1.679,1.679,0,1,0,1.329-3.085,33.15,33.15,0,0,0-33.811,4.5,1.679,1.679,0,0,0-.268,2.36l3.049,3.831L7.235,26.792l8.01-18.9,3.05,3.831a1.68,1.68,0,0,0,2.359.268A39.632,39.632,0,0,1,84.816,46.4l-6.628,1.168a33.059,33.059,0,0,0-6.9-25.219,1.679,1.679,0,0,0-2.628,2.091,29.731,29.731,0,0,1,5.813,24.846,1.68,1.68,0,0,0,1.933,2.007l10.24-1.8a1.679,1.679,0,0,0,1.376-1.458,42.687,42.687,0,0,0-9.051-31.794Z" transform="translate(-2.333 -0.004)"/>
        <path id="Trazado_62270" data-name="Trazado 62270" d="M83.553,227.176l-26.046,4.58a1.679,1.679,0,0,0-1.024,2.7l3.734,4.695a29.647,29.647,0,0,1-15.541,5.413,8.951,8.951,0,0,1-3.359,0,29.787,29.787,0,0,1-27.466-36.032,1.679,1.679,0,0,0-1.933-2.007l-10.24,1.8A1.679,1.679,0,0,0,.3,209.778a42.986,42.986,0,0,0,37.832,47.747,43.646,43.646,0,0,0,4.948.282,42.628,42.628,0,0,0,25.349-8.333l3.783,4.752a1.679,1.679,0,0,0,2.86-.391L85.39,229.486a1.68,1.68,0,0,0-1.837-2.309Zm-10.47,22.748-3.05-3.831a1.68,1.68,0,0,0-2.359-.268A39.632,39.632,0,0,1,3.511,211.409l6.628-1.165A33.186,33.186,0,0,0,63.652,240.77a1.679,1.679,0,0,0,.269-2.36l-3.05-3.835,20.222-3.556Z" transform="translate(0 -171.814)"/>
        <path id="Trazado_62271" data-name="Trazado 62271" d="M361.4,100.227a1.683,1.683,0,1,0-1.189-.5l0,0A1.669,1.669,0,0,0,361.4,100.227Z" transform="translate(-299.303 -80.597)"/>
      </g>
    </g>
    <g id="Elipse_1386" data-name="Elipse 1386" transform="translate(658 4693)" fill="#b7cfdf" stroke="rgba(112,112,112,0)" stroke-width="1">
      <circle cx="57.5" cy="57.5" r="57.5" stroke="none"/>
      <circle cx="57.5" cy="57.5" r="57" fill="none"/>
    </g>
    <g id="engranaje" transform="translate(671.973 4706.5)">
      <path id="Trazado_62272" data-name="Trazado 62272" d="M133.591,101.582a26.776,26.776,0,0,0-3.693-8.913l3.483-3.483-8.039-8.033-3.48,3.48a26.772,26.772,0,0,0-8.913-3.693V76.018H101.583v4.921a26.772,26.772,0,0,0-8.913,3.693l-3.48-3.48-8.039,8.033,3.483,3.483a26.769,26.769,0,0,0-3.693,8.913H76.006L76,112.947h4.941a26.772,26.772,0,0,0,3.693,8.913l-3.5,3.5,8.033,8.039,3.5-3.5a26.772,26.772,0,0,0,8.913,3.694v4.954h11.365V133.59a26.769,26.769,0,0,0,8.913-3.694l3.5,3.5,8.033-8.039-3.5-3.5a26.776,26.776,0,0,0,3.693-8.913h4.94V101.582Zm-26.325,18.9a13.2,13.2,0,1,1,13.2-13.2A13.2,13.2,0,0,1,107.266,120.482Z" transform="translate(-63.242 -63.257)" fill="#ffb954"/>
      <path id="Trazado_62279" data-name="Trazado 62279" d="M91.621,126.709v3.58a1.737,1.737,0,0,0,1.737,1.737h0l11.365,0a1.737,1.737,0,0,0,1.736-1.737v-3.576a28.38,28.38,0,0,0,6.916-2.864l2.526,2.526a1.738,1.738,0,0,0,2.457,0l8.036-8.036a1.737,1.737,0,0,0,0-2.457l-2.526-2.526a28.372,28.372,0,0,0,2.863-6.916h3.557a1.737,1.737,0,0,0,1.737-1.738l0-11.365a1.737,1.737,0,0,0-1.737-1.736h-3.553a28.378,28.378,0,0,0-2.863-6.916l2.513-2.513a1.737,1.737,0,0,0,0-2.457l-8.036-8.036a1.738,1.738,0,0,0-2.457,0l-2.513,2.513a28.371,28.371,0,0,0-6.916-2.863V67.772a1.737,1.737,0,0,0-1.736-1.737l-11.365,0h0a1.737,1.737,0,0,0-1.737,1.737v3.557A28.372,28.372,0,0,0,84.7,74.189l-2.522-2.522a1.737,1.737,0,0,0-2.456,0L71.686,79.7a1.737,1.737,0,0,0,0,2.457l2.526,2.526A28.377,28.377,0,0,0,71.348,91.6H67.772a1.737,1.737,0,0,0-1.737,1.736l0,11.365a1.737,1.737,0,0,0,1.737,1.738h3.58a28.378,28.378,0,0,0,2.864,6.917l-2.535,2.535a1.737,1.737,0,0,0,0,2.457l8.036,8.036a1.738,1.738,0,0,0,2.457,0l2.535-2.535A28.368,28.368,0,0,0,91.621,126.709Zm-8.406-6.287L80.94,122.7l-5.58-5.58,2.274-2.274a1.737,1.737,0,0,0,.231-2.171,24.959,24.959,0,0,1-3.452-8.336,1.737,1.737,0,0,0-1.7-1.372h-3.21l0-7.891h3.208a1.737,1.737,0,0,0,1.7-1.372,24.965,24.965,0,0,1,3.452-8.336,1.737,1.737,0,0,0-.23-2.171l-2.265-2.265,5.583-5.577,2.262,2.262a1.737,1.737,0,0,0,2.171.231,24.969,24.969,0,0,1,8.336-3.452,1.737,1.737,0,0,0,1.372-1.7V69.506l7.891,0v3.185a1.737,1.737,0,0,0,1.372,1.7,24.961,24.961,0,0,1,8.336,3.452,1.737,1.737,0,0,0,2.171-.23l2.252-2.252,5.58,5.58-2.252,2.252a1.737,1.737,0,0,0-.23,2.171,24.962,24.962,0,0,1,3.452,8.336,1.737,1.737,0,0,0,1.7,1.372h3.185l0,7.891h-3.188a1.737,1.737,0,0,0-1.7,1.372,24.965,24.965,0,0,1-3.452,8.336,1.737,1.737,0,0,0,.231,2.171l2.265,2.265-5.58,5.58-2.265-2.265a1.737,1.737,0,0,0-2.171-.231,24.965,24.965,0,0,1-8.336,3.452,1.737,1.737,0,0,0-1.372,1.7v3.208l-7.891,0v-3.21a1.737,1.737,0,0,0-1.372-1.7,24.962,24.962,0,0,1-8.336-3.452,1.737,1.737,0,0,0-2.171.23Z" transform="translate(-55.004 -55.004)"/>
      <path id="Trazado_62280" data-name="Trazado 62280" d="M184.972,199.86A14.931,14.931,0,0,0,199.2,180.354a1.737,1.737,0,1,0-3.308,1.061,11.464,11.464,0,1,1-7.633-7.474,1.737,1.737,0,1,0,.991-3.33,14.937,14.937,0,1,0-4.273,29.247Z" transform="translate(-140.948 -140.905)"/>
      <path id="Trazado_62281" data-name="Trazado 62281" d="M300.372,195.351a1.737,1.737,0,0,0,2.493-2.419l-.16-.162a1.737,1.737,0,0,0-2.459,2.454Z" transform="translate(-248.118 -159.307)"/>
    </g>
    <g id="Elipse_1387" data-name="Elipse 1387" transform="translate(658 4921)" fill="#b7cfdf" stroke="rgba(112,112,112,0)" stroke-width="1">
      <circle cx="57.5" cy="57.5" r="57.5" stroke="none"/>
      <circle cx="57.5" cy="57.5" r="57" fill="none"/>
    </g>
    <g id="cita" transform="translate(673 4933.005)">
      <path id="Trazado_62282" data-name="Trazado 62282" d="M108.229,117.118v4.143a4.485,4.485,0,0,0,4.485,4.485h0a4.485,4.485,0,0,0,4.485-4.485V60.406A6.406,6.406,0,0,0,110.794,54H50.23a6.406,6.406,0,0,0-6.406,6.406v56.712Z" transform="translate(-36.806 -45.352)" fill="#fff"/>
      <path id="Trazado_62283" data-name="Trazado 62283" d="M79.824,452.269v-4.14l0,0H10v4.144a4.484,4.484,0,0,0,4.484,4.484H84.307A4.484,4.484,0,0,1,79.824,452.269Z" transform="translate(-8.399 -376.359)" fill="#c7eaff"/>
      <path id="Trazado_62284" data-name="Trazado 62284" d="M117.687,67.292H44.5V60.406A6.406,6.406,0,0,1,50.906,54h60.375a6.406,6.406,0,0,1,6.406,6.406Z" transform="translate(-37.373 -45.352)" fill="#baee83"/>
      <g id="Grupo_29621" data-name="Grupo 29621" transform="translate(31.748 50.286)">
        <path id="Trazado_62285" data-name="Trazado 62285" d="M202.729,322.968h0a4.484,4.484,0,0,1-4.484-4.484h0A4.484,4.484,0,0,1,202.729,314h0a4.484,4.484,0,0,1,4.484,4.484h0A4.484,4.484,0,0,1,202.729,322.968Z" transform="translate(-198.245 -314)" fill="#a5ddff"/>
        <path id="Trazado_62286" data-name="Trazado 62286" d="M296.062,322.968h0a4.484,4.484,0,0,1-4.484-4.484h0A4.484,4.484,0,0,1,296.062,314h0a4.484,4.484,0,0,1,4.484,4.484h0A4.484,4.484,0,0,1,296.062,322.968Z" transform="translate(-276.631 -314)" fill="#a5ddff"/>
      </g>
      <path id="Trazado_62287" data-name="Trazado 62287" d="M389.4,322.968h0a4.484,4.484,0,0,1-4.484-4.484h0A4.484,4.484,0,0,1,389.4,314h0a4.484,4.484,0,0,1,4.484,4.484h0A4.484,4.484,0,0,1,389.4,322.968Z" transform="translate(-323.27 -263.714)" fill="#fe6663"/>
      <g id="Grupo_29622" data-name="Grupo 29622" transform="translate(16.801 33.631)">
        <path id="Trazado_62288" data-name="Trazado 62288" d="M109.4,218.968h0a4.484,4.484,0,0,1-4.484-4.484h0A4.484,4.484,0,0,1,109.4,210h0a4.484,4.484,0,0,1,4.484,4.484h0A4.484,4.484,0,0,1,109.4,218.968Z" transform="translate(-104.912 -210)" fill="#a5ddff"/>
        <path id="Trazado_62289" data-name="Trazado 62289" d="M296.062,218.968h0a4.484,4.484,0,0,1-4.484-4.484h0A4.484,4.484,0,0,1,296.062,210h0a4.484,4.484,0,0,1,4.484,4.484h0A4.484,4.484,0,0,1,296.062,218.968Z" transform="translate(-261.684 -210)" fill="#a5ddff"/>
        <path id="Trazado_62290" data-name="Trazado 62290" d="M202.729,218.968h0a4.484,4.484,0,0,1-4.484-4.484h0A4.484,4.484,0,0,1,202.729,210h0a4.484,4.484,0,0,1,4.484,4.484h0A4.484,4.484,0,0,1,202.729,218.968Z" transform="translate(-183.298 -210)" fill="#a5ddff"/>
      </g>
      <g id="Grupo_29623" data-name="Grupo 29623" transform="translate(2.96 33.631)">
        <path id="Trazado_62291" data-name="Trazado 62291" d="M389.4,218.968h0a4.484,4.484,0,0,1-4.484-4.484h0A4.484,4.484,0,0,1,389.4,210h0a4.484,4.484,0,0,1,4.484,4.484h0A4.484,4.484,0,0,1,389.4,218.968Z" transform="translate(-326.229 -210)" fill="#fe6663"/>
        <circle id="Elipse_1388" data-name="Elipse 1388" cx="11.531" cy="11.531" r="11.531" transform="translate(0 15.054)" fill="#fe6663"/>
      </g>
      <g id="Grupo_29624" data-name="Grupo 29624" transform="translate(21.833 1.601)">
        <path id="Trazado_62292" data-name="Trazado 62292" d="M139.536,23.853a3.2,3.2,0,0,1-3.2-3.2V13.2a3.2,3.2,0,1,1,6.406,0V20.65A3.2,3.2,0,0,1,139.536,23.853Z" transform="translate(-136.333 -10)" fill="#fff"/>
        <path id="Trazado_62293" data-name="Trazado 62293" d="M367.536,23.853a3.2,3.2,0,0,1-3.2-3.2V13.2a3.2,3.2,0,0,1,6.406,0V20.65A3.2,3.2,0,0,1,367.536,23.853Z" transform="translate(-327.82 -10)" fill="#fff"/>
      </g>
      <path id="Trazado_62294" data-name="Trazado 62294" d="M73.988,7.046H66.354V4.8a4.8,4.8,0,0,0-9.609,0V7.046h-26.9V4.8a4.8,4.8,0,1,0-9.609,0v2.3a1.6,1.6,0,0,0-.427-.059H13.424a8.016,8.016,0,0,0-8.007,8.007V42.332a1.6,1.6,0,1,0,3.2,0V23.542H66.354a1.6,1.6,0,0,0,0-3.2H8.62V15.054a4.81,4.81,0,0,1,4.8-4.8H19.8a1.6,1.6,0,0,0,.427-.059v2.061a4.8,4.8,0,1,0,9.609,0v-2h26.9v2a4.8,4.8,0,0,0,9.609,0v-2h7.634a4.81,4.81,0,0,1,4.8,4.8V75.909a2.884,2.884,0,0,1-5.767,0V71.766a1.6,1.6,0,0,0-1.6-1.6H52.8a1.6,1.6,0,1,0,0,3.2H69.822v2.541a6.049,6.049,0,0,0,.728,2.884H6.086A2.886,2.886,0,0,1,3.2,75.91V73.367H39.048a1.6,1.6,0,1,0,0-3.2h-16a13.132,13.132,0,1,0-17.113,0H1.6a1.6,1.6,0,0,0-1.6,1.6V75.91A6.093,6.093,0,0,0,6.086,82H75.909A6.093,6.093,0,0,0,82,75.909V15.054A8.016,8.016,0,0,0,73.988,7.046Zm-47.35,5.2a1.6,1.6,0,0,1-3.2,0V4.8a1.6,1.6,0,0,1,3.2,0Zm36.513,0a1.6,1.6,0,1,1-3.2,0V4.8a1.6,1.6,0,0,1,3.2,0ZM4.561,60.215a9.929,9.929,0,1,1,9.929,9.929A9.94,9.94,0,0,1,4.561,60.215Z"/>
      <path id="Trazado_62295" data-name="Trazado 62295" d="M452.841,130.2a1.6,1.6,0,1,0-1.132-.469A1.613,1.613,0,0,0,452.841,130.2Z" transform="translate(-378.975 -106.661)"/>
      <path id="Trazado_62296" data-name="Trazado 62296" d="M282.049,438.6a1.6,1.6,0,1,0,1.132-.468A1.616,1.616,0,0,0,282.049,438.6Z" transform="translate(-236.486 -367.965)"/>
      <path id="Trazado_62297" data-name="Trazado 62297" d="M194.331,316.171a6.086,6.086,0,1,0-6.086-6.086A6.093,6.093,0,0,0,194.331,316.171Zm0-8.968a2.883,2.883,0,1,1-2.883,2.883A2.886,2.886,0,0,1,194.331,307.2Z" transform="translate(-158.098 -255.315)"/>
      <path id="Trazado_62298" data-name="Trazado 62298" d="M287.664,316.171a6.086,6.086,0,1,0-6.086-6.086A6.093,6.093,0,0,0,287.664,316.171Zm0-8.968a2.883,2.883,0,1,1-2.883,2.883A2.886,2.886,0,0,1,287.664,307.2Z" transform="translate(-236.484 -255.315)"/>
      <path id="Trazado_62299" data-name="Trazado 62299" d="M381,316.171a6.086,6.086,0,1,0-6.086-6.086A6.093,6.093,0,0,0,381,316.171Zm0-8.968a2.883,2.883,0,1,1-2.883,2.883A2.886,2.886,0,0,1,381,307.2Z" transform="translate(-314.871 -255.315)"/>
      <path id="Trazado_62300" data-name="Trazado 62300" d="M107.083,206.086A6.086,6.086,0,1,0,101,212.171,6.093,6.093,0,0,0,107.083,206.086Zm-8.968,0A2.883,2.883,0,1,1,101,208.968,2.886,2.886,0,0,1,98.115,206.086Z" transform="translate(-79.712 -167.971)"/>
      <path id="Trazado_62301" data-name="Trazado 62301" d="M287.664,212.171a6.086,6.086,0,1,0-6.086-6.086A6.093,6.093,0,0,0,287.664,212.171Zm0-8.968a2.883,2.883,0,1,1-2.883,2.883A2.886,2.886,0,0,1,287.664,203.2Z" transform="translate(-236.484 -167.971)"/>
      <path id="Trazado_62302" data-name="Trazado 62302" d="M381,212.171a6.086,6.086,0,1,0-6.086-6.086A6.093,6.093,0,0,0,381,212.171Zm0-8.968a2.883,2.883,0,1,1-2.883,2.883A2.886,2.886,0,0,1,381,203.2Z" transform="translate(-314.871 -167.971)"/>
      <path id="Trazado_62303" data-name="Trazado 62303" d="M194.331,212.171a6.086,6.086,0,1,0-6.086-6.086A6.093,6.093,0,0,0,194.331,212.171Zm0-8.968a2.883,2.883,0,1,1-2.883,2.883A2.886,2.886,0,0,1,194.331,203.2Z" transform="translate(-158.098 -167.971)"/>
      <path id="Trazado_62304" data-name="Trazado 62304" d="M54.578,357.782a1.6,1.6,0,0,0,2.265,0l6.348-6.348a1.6,1.6,0,0,0-2.265-2.265l-5.215,5.215L53.928,352.6a1.6,1.6,0,1,0-2.265,2.265Z" transform="translate(-42.996 -292.857)"/>
    </g>
    <g id="Elipse_1389" data-name="Elipse 1389" transform="translate(943 5207)" fill="#b7cfdf" stroke="rgba(112,112,112,0)" stroke-width="1">
      <circle cx="57.5" cy="57.5" r="57.5" stroke="none"/>
      <circle cx="57.5" cy="57.5" r="57" fill="none"/>
    </g>
    <g id="portapapeles" transform="translate(969 5214.895)">
      <path id="Trazado_62305" data-name="Trazado 62305" d="M437.591,101a3.429,3.429,0,0,1,0,4.849l-4.849,4.851-7.275-7.275,4.849-4.849a3.428,3.428,0,0,1,4.851,0Z" transform="translate(-352.484 -80.746)" fill="#feb756"/>
      <g id="Grupo_29625" data-name="Grupo 29625" transform="translate(1.715 15.537)">
        <path id="Trazado_62306" data-name="Trazado 62306" d="M408.951,138.976l-4.928,4.772-7.2-7.2-.077-.079,4.926-4.77Z" transform="translate(-330.407 -124.559)" fill="#4dbbeb"/>
        <path id="Trazado_62307" data-name="Trazado 62307" d="M66.923,157.282c0,1.895-2.049,3.429-3.944,3.429H13.425A3.428,3.428,0,0,1,10,157.282V93.5a3.428,3.428,0,0,1,3.429-3.429H62.979c1.895,0,3.944,1.535,3.944,3.429Z" transform="translate(-9.996 -90.067)" fill="#4dbbeb"/>
      </g>
      <path id="Trazado_62308" data-name="Trazado 62308" d="M92.533,189.869a2.988,2.988,0,0,1-3.017,2.624H51.6a2.623,2.623,0,0,1-2.624-2.624v-48.8a2.623,2.623,0,0,1,2.624-2.624H89.515a2.988,2.988,0,0,1,3.017,2.624v48.8Z" transform="translate(-40.578 -114.61)" fill="#fff"/>
      <path id="Trazado_62309" data-name="Trazado 62309" d="M263.4,159.588l7.2,7.2-17.03,16.492-10.595,10.259-3.637-3.637-3.639-3.637,10.948-10.6,7.318-7.087,9.36-9.064Z" transform="translate(-195.264 -132.06)" fill="#fd3c65"/>
      <g id="Grupo_29626" data-name="Grupo 29626" transform="translate(16.461 1.819)">
        <path id="Trazado_62310" data-name="Trazado 62310" d="M225.405,322.75l-10.912,3.638,3.637-10.912,3.639,3.637Z" transform="translate(-194.16 -263.093)" fill="#feb756"/>
        <path id="Trazado_62311" data-name="Trazado 62311" d="M123.4,23.816V31.19H95.961V23.816a3.428,3.428,0,0,1,3.429-3.429h4.383a6.788,6.788,0,0,1-.953-3.429,6.859,6.859,0,1,1,13.717,0,6.788,6.788,0,0,1-.953,3.429h4.383A3.429,3.429,0,0,1,123.4,23.816Z" transform="translate(-95.961 -10.099)" fill="#feb756"/>
      </g>
      <path id="Trazado_62312" data-name="Trazado 62312" d="M167.648,43.517a1.715,1.715,0,1,0-1.715-1.715A1.715,1.715,0,0,0,167.648,43.517Z" transform="translate(-137.469 -33.124)"/>
      <path id="Trazado_62313" data-name="Trazado 62313" d="M44.7,229.441a1.715,1.715,0,1,0-1.715-1.715A1.715,1.715,0,0,0,44.7,229.441Z" transform="translate(-35.609 -187.156)"/>
      <path id="Trazado_62314" data-name="Trazado 62314" d="M89.9,175.822a1.715,1.715,0,0,0,2.425,0l6.859-6.859a1.715,1.715,0,1,0-2.425-2.425l-5.646,5.646-2.217-2.217a1.715,1.715,0,0,0-2.425,2.425Z" transform="translate(-71.219 -137.468)"/>
      <path id="Trazado_62315" data-name="Trazado 62315" d="M89.9,275.782a1.715,1.715,0,0,0,2.425,0l6.859-6.859a1.715,1.715,0,1,0-2.425-2.425l-5.646,5.646-2.217-2.217a1.715,1.715,0,0,0-2.425,2.425Z" transform="translate(-71.219 -220.281)"/>
      <path id="Trazado_62316" data-name="Trazado 62316" d="M89.9,375.741a1.714,1.714,0,0,0,2.425,0l6.859-6.859a1.715,1.715,0,1,0-2.425-2.425L91.109,372.1l-2.217-2.217a1.715,1.715,0,1,0-2.425,2.425Z" transform="translate(-71.219 -303.093)"/>
      <path id="Trazado_62317" data-name="Trazado 62317" d="M187.639,189.457h10.288a1.715,1.715,0,0,0,0-3.429H187.639a1.715,1.715,0,0,0,0,3.429Z" transform="translate(-154.031 -154.03)"/>
      <path id="Trazado_62318" data-name="Trazado 62318" d="M87.827,22.679a5.109,5.109,0,0,0-1.507-3.637L83.9,16.618a5.142,5.142,0,0,0-7.276,0l-4.84,4.84L60.357,32.52V18.966c0-3.032-2.982-5.144-5.658-5.144H45.315a5.152,5.152,0,0,0-4.849-3.429H38.572a8.238,8.238,0,0,0,.179-1.715,8.573,8.573,0,1,0-17.147,0,8.238,8.238,0,0,0,.179,1.715H19.89a5.153,5.153,0,0,0-4.849,3.429h-9.9A5.149,5.149,0,0,0,0,18.966V82.752A5.15,5.15,0,0,0,5.144,87.9H54.7c2.676,0,5.658-2.112,5.658-5.144V51.613l15.738-15.24a1.691,1.691,0,0,0,.859-.832l3.285-3.181,1.231,1.231a1.714,1.714,0,0,1,0,2.424l-9.7,9.7A1.715,1.715,0,1,0,74.2,48.14l9.7-9.7a5.143,5.143,0,0,0,0-7.274l-1.212-1.212,3.637-3.638A5.111,5.111,0,0,0,87.827,22.679ZM75.35,32.32,70.5,27.47l2.463-2.385,4.85,4.85ZM47.725,59.071l-4.85-4.849L68.037,29.855l4.849,4.851ZM41.18,57.376l3.352,3.351L39.5,62.4Zm15.747-38.41V35.84l-3.944,3.819V22.91A1.715,1.715,0,0,0,51.269,21.2H45.61V17.251H54.7C55.76,17.251,56.927,18.149,56.927,18.966ZM19.89,13.822h4.383a1.715,1.715,0,0,0,1.482-2.577,5.058,5.058,0,0,1-.721-2.567,5.144,5.144,0,0,1,10.288,0,5.058,5.058,0,0,1-.721,2.567,1.715,1.715,0,0,0,1.482,2.577h4.383a1.717,1.717,0,0,1,1.715,1.715V21.2H18.176V15.537A1.717,1.717,0,0,1,19.89,13.822Zm37.037,68.93c0,.817-1.167,1.715-2.229,1.715H5.144a1.717,1.717,0,0,1-1.715-1.715V18.966a1.717,1.717,0,0,1,1.715-1.715h9.6V21.2H9.088A1.715,1.715,0,0,0,7.373,22.91v10.8a1.715,1.715,0,0,0,3.429,0V24.625H49.554V42.98l-6.365,6.164H33.607a1.715,1.715,0,0,0,0,3.429h6.04l-.41.4c-.035.034-.068.07-.1.107l-.016.017a1.726,1.726,0,0,0-.121.162l-.021.035q-.044.07-.08.142l-.022.045a1.665,1.665,0,0,0-.065.16c0,.008-.006.014-.009.022l-.008.024,0,0-3.5,10.5-2.138,2.138a1.715,1.715,0,1,0,2.425,2.425l2.139-2.138L48.248,63.1l.024-.01a1.694,1.694,0,0,0,.158-.064l.032-.015a1.7,1.7,0,0,0,.178-.1l.013-.01A1.7,1.7,0,0,0,48.8,62.8l.048-.042c.018-.016.036-.03.054-.047l.656-.635v15.02H10.8V47.429a1.715,1.715,0,0,0-3.429,0V78.808a1.715,1.715,0,0,0,1.715,1.715H51.269a1.715,1.715,0,0,0,1.715-1.715V58.752l3.944-3.819ZM83.895,23.891l-3.637,3.638-4.85-4.85,3.637-3.637a1.712,1.712,0,0,1,2.425,0l2.425,2.424a1.714,1.714,0,0,1,0,2.424Z" transform="translate(0 0)"/>
    </g>
    <g id="Rectángulo_6283" data-name="Rectángulo 6283" transform="translate(1241 4588) rotate(180)" fill="#b7cfdf" stroke="rgba(236,220,220,0)" stroke-width="1">
      <rect width="358" height="10" rx="5" stroke="none"/>
      <rect x="0.5" y="0.5" width="357" height="9" rx="4.5" fill="none"/>
    </g>
    <g id="Rectángulo_6284" data-name="Rectángulo 6284" transform="translate(1234 4730.5) rotate(-90)" fill="#b7cfdf" stroke="rgba(236,220,220,0)" stroke-width="1">
      <rect width="152" height="10" rx="5" stroke="none"/>
      <rect x="0.5" y="0.5" width="151" height="9" rx="4.5" fill="none"/>
    </g>
    <g id="Rectángulo_6285" data-name="Rectángulo 6285" transform="translate(1085 4836) rotate(180)" fill="#b7cfdf" stroke="rgba(236,220,220,0)" stroke-width="1">
      <rect width="531" height="10" rx="5" stroke="none"/>
      <rect x="0.5" y="0.5" width="530" height="9" rx="4.5" fill="none"/>
    </g>
    <g id="Rectángulo_6286" data-name="Rectángulo 6286" transform="translate(1241 5108) rotate(180)" fill="#b7cfdf" stroke="rgba(236,220,220,0)" stroke-width="1">
      <rect width="358" height="10" rx="5" stroke="none"/>
      <rect x="0.5" y="0.5" width="357" height="9" rx="4.5" fill="none"/>
    </g>
    <g id="Rectángulo_6287" data-name="Rectángulo 6287" transform="translate(1234 5107.5) rotate(-90)" fill="#b7cfdf" stroke="rgba(236,220,220,0)" stroke-width="1">
      <rect width="152" height="10" rx="5" stroke="none"/>
      <rect x="0.5" y="0.5" width="151" height="9" rx="4.5" fill="none"/>
    </g>
  </g>
</svg>
