<svg xmlns="http://www.w3.org/2000/svg" width="117.82" height="85.264" viewBox="0 0 117.82 85.264">
  <g id="Grupo_29632" data-name="Grupo 29632" transform="translate(-4301.905 -2056.697)">
    <path id="Trazado_62362" data-name="Trazado 62362" d="M4426.788,2068.564h-9.066c-4.215-1.913-26.917-11.747-48.74-11.867-15.745-.086-33.687,11.677-34.766,11.8-2.736.322,9.121.43,9.121.43s17.77-7.862,25.753-8.048c7.61-.177,24.505,5.354,31.255,7.682h-50.816a7.749,7.749,0,0,0-7.725,7.726v57.944a7.748,7.748,0,0,0,7.725,7.726h77.26a7.748,7.748,0,0,0,7.726-7.726v-57.944A7.749,7.749,0,0,0,4426.788,2068.564Z" transform="translate(-14.788)" fill="#ffa412"/>
    <path id="Rectángulo_6062" data-name="Rectángulo 6062" d="M14.4,0H78.308a14.4,14.4,0,0,1,14.4,14.4V58.994a14.4,14.4,0,0,1-14.4,14.4H14.4A14.4,14.4,0,0,1,0,58.993V14.4A14.4,14.4,0,0,1,14.4,0Z" transform="translate(4301.905 2068.564)" fill="#e27f2b"/>
  </g>
</svg>
