<svg xmlns="http://www.w3.org/2000/svg" xmlns:xlink="http://www.w3.org/1999/xlink" width="523.381" height="530.425" viewBox="0 0 523.381 530.425">
  <defs>
    <linearGradient id="linear-gradient" x1="1.13" y1="1.295" x2="0.236" y2="0.19" gradientUnits="objectBoundingBox">
      <stop offset="0" stop-color="#b37cff"/>
      <stop offset="1" stop-color="#f895e7"/>
    </linearGradient>
    <linearGradient id="linear-gradient-2" x1="0.5" y1="0.941" x2="0.429" y2="-0.71" gradientUnits="objectBoundingBox">
      <stop offset="0" stop-color="#2b3582"/>
      <stop offset="1" stop-color="#150e42"/>
    </linearGradient>
    <linearGradient id="linear-gradient-3" x1="0.906" y1="0.032" x2="-0.056" y2="1.117" gradientUnits="objectBoundingBox">
      <stop offset="0" stop-color="#53d8ff"/>
      <stop offset="0.206" stop-color="#4db9fd"/>
      <stop offset="1" stop-color="#3840f7"/>
    </linearGradient>
    <linearGradient id="linear-gradient-4" x1="1.519" y1="-0.775" x2="-1.484" y2="2.907" xlink:href="#linear-gradient-2"/>
    <linearGradient id="linear-gradient-5" x1="1.004" y1="-2.464" x2="-0.074" y2="4.125" xlink:href="#linear-gradient-2"/>
    <linearGradient id="linear-gradient-6" x1="0.615" y1="-6.294" x2="0.48" y2="1.719" xlink:href="#linear-gradient-3"/>
    <linearGradient id="linear-gradient-7" x1="-0.376" y1="0.832" x2="0.818" y2="0.418" xlink:href="#linear-gradient"/>
    <linearGradient id="linear-gradient-8" x1="-14.409" y1="-2.036" x2="-11.559" y2="-2.036" xlink:href="#linear-gradient"/>
    <linearGradient id="linear-gradient-9" y1="0.5" x2="1" y2="0.5" gradientUnits="objectBoundingBox">
      <stop offset="0" stop-color="#18459f"/>
      <stop offset="1" stop-color="#2874b5"/>
    </linearGradient>
    <linearGradient id="linear-gradient-10" x1="-88.201" y1="0.5" x2="-87.201" y2="0.5" xlink:href="#linear-gradient-9"/>
    <linearGradient id="linear-gradient-11" x1="-9.778" y1="0.5" x2="-8.778" y2="0.5" xlink:href="#linear-gradient-2"/>
    <linearGradient id="linear-gradient-12" x1="0.509" y1="0.431" x2="0.639" y2="-0.602" xlink:href="#linear-gradient-2"/>
    <linearGradient id="linear-gradient-13" x1="-7.934" y1="0.5" x2="-6.934" y2="0.5" xlink:href="#linear-gradient-9"/>
    <linearGradient id="linear-gradient-14" x1="-23.298" y1="0.5" x2="-22.298" y2="0.5" xlink:href="#linear-gradient-9"/>
    <linearGradient id="linear-gradient-15" x1="-62.373" y1="0.356" x2="-62.604" y2="0.685" gradientUnits="objectBoundingBox">
      <stop offset="0" stop-color="#cb236d"/>
      <stop offset="1" stop-color="#4c246d"/>
    </linearGradient>
    <linearGradient id="linear-gradient-16" x1="-23.41" y1="0.5" x2="-22.41" y2="0.5" gradientUnits="objectBoundingBox">
      <stop offset="0" stop-color="#f9b776"/>
      <stop offset="1" stop-color="#f47960"/>
    </linearGradient>
    <linearGradient id="linear-gradient-17" x1="-51.523" y1="-14.91" x2="-51.301" y2="-15.971" xlink:href="#linear-gradient-16"/>
    <linearGradient id="linear-gradient-18" x1="-37.976" y1="-13.75" x2="-38.917" y2="-12.988" xlink:href="#linear-gradient-16"/>
    <linearGradient id="linear-gradient-19" x1="-42.111" y1="-9.836" x2="-41.165" y2="-8.993" xlink:href="#linear-gradient-2"/>
    <linearGradient id="linear-gradient-20" x1="-149.274" y1="-59.459" x2="-152.898" y2="-56.342" xlink:href="#linear-gradient-16"/>
    <linearGradient id="linear-gradient-21" x1="0.401" y1="0.142" x2="0.661" y2="0.982" gradientUnits="objectBoundingBox">
      <stop offset="0" stop-color="#5ab6ff"/>
      <stop offset="1" stop-color="#2f68e3"/>
    </linearGradient>
    <linearGradient id="linear-gradient-22" x1="-31.32" y1="-3.244" x2="-32.245" y2="-0.695" xlink:href="#linear-gradient-16"/>
    <linearGradient id="linear-gradient-23" x1="0.434" y1="0.14" x2="0.157" y2="-1.838" xlink:href="#linear-gradient-21"/>
    <linearGradient id="linear-gradient-24" x1="-18.716" y1="-23.181" x2="-17.083" y2="-23.181" xlink:href="#linear-gradient-2"/>
    <linearGradient id="linear-gradient-25" x1="-13.601" y1="-25.727" x2="-13.895" y2="-24.852" xlink:href="#linear-gradient-15"/>
    <linearGradient id="linear-gradient-26" x1="-31.865" y1="-50.638" x2="-31.12" y2="-50.638" xlink:href="#linear-gradient-16"/>
    <linearGradient id="linear-gradient-27" x1="-7.23" y1="-1.926" x2="-7.64" y2="-0.174" xlink:href="#linear-gradient-2"/>
    <linearGradient id="linear-gradient-29" x1="1.006" y1="-0.745" x2="-0.478" y2="2.466" gradientUnits="objectBoundingBox">
      <stop offset="0" stop-color="#53eac9"/>
      <stop offset="0.996" stop-color="#45aed8"/>
    </linearGradient>
    <linearGradient id="linear-gradient-30" x1="-6.055" y1="-3.701" x2="-9.58" y2="1.922" xlink:href="#linear-gradient-16"/>
    <linearGradient id="linear-gradient-31" x1="0.806" y1="-0.229" x2="0.069" y2="2.127" xlink:href="#linear-gradient-29"/>
    <linearGradient id="linear-gradient-32" x1="-4.94" y1="-0.358" x2="-4.544" y2="0.293" xlink:href="#linear-gradient-2"/>
    <linearGradient id="linear-gradient-33" x1="-20.011" y1="0.5" x2="-19.011" y2="0.5" xlink:href="#linear-gradient-2"/>
    <linearGradient id="linear-gradient-34" x1="-20.348" y1="1.602" x2="-19.313" y2="-1.187" xlink:href="#linear-gradient-16"/>
    <linearGradient id="linear-gradient-35" x1="-17.728" y1="0.5" x2="-16.728" y2="0.5" xlink:href="#linear-gradient-2"/>
    <linearGradient id="linear-gradient-36" x1="-6.931" y1="1.698" x2="-6.468" y2="-1.193" xlink:href="#linear-gradient-16"/>
    <linearGradient id="linear-gradient-37" x1="2.492" y1="-3.348" x2="1.591" y2="-1.683" xlink:href="#linear-gradient-21"/>
    <linearGradient id="linear-gradient-38" x1="1.166" y1="-0.116" x2="0.032" y2="1.105" xlink:href="#linear-gradient-2"/>
    <linearGradient id="linear-gradient-39" x1="-27.227" y1="1.857" x2="-26.973" y2="0.807" xlink:href="#linear-gradient-16"/>
    <linearGradient id="linear-gradient-40" x1="-18.281" y1="0.509" x2="-16.663" y2="-1.669" xlink:href="#linear-gradient-16"/>
    <linearGradient id="linear-gradient-41" x1="-12.353" y1="-1.109" x2="-11.786" y2="0.457" xlink:href="#linear-gradient-2"/>
    <linearGradient id="linear-gradient-42" x1="-74.612" y1="1.174" x2="-67.876" y2="-5.721" xlink:href="#linear-gradient-16"/>
    <linearGradient id="linear-gradient-43" x1="1.333" y1="0.097" x2="-0.915" y2="1.297" gradientUnits="objectBoundingBox">
      <stop offset="0" stop-color="#9cfffb"/>
      <stop offset="1" stop-color="#9bfffa"/>
    </linearGradient>
    <linearGradient id="linear-gradient-44" x1="0" y1="0.5" x2="1" y2="0.5" xlink:href="#linear-gradient-29"/>
    <linearGradient id="linear-gradient-45" x1="0" y1="0.5" x2="1" y2="0.5" xlink:href="#linear-gradient-43"/>
    <linearGradient id="linear-gradient-46" x1="0.663" y1="-0.11" x2="1.456" y2="-2.569" xlink:href="#linear-gradient-2"/>
    <linearGradient id="linear-gradient-47" x1="0.932" y1="-3.497" x2="0.359" y2="1.805" gradientUnits="objectBoundingBox">
      <stop offset="0" stop-color="#53d8ff"/>
      <stop offset="1" stop-color="#3840f7"/>
    </linearGradient>
    <linearGradient id="linear-gradient-48" x1="1.839" y1="-9.616" x2="0.061" y2="3.801" xlink:href="#linear-gradient-47"/>
    <linearGradient id="linear-gradient-49" x1="0" y1="0.5" x2="1" y2="0.5" xlink:href="#linear-gradient-16"/>
    <linearGradient id="linear-gradient-50" x1="0.541" y1="0.409" x2="0.404" y2="0.747" xlink:href="#linear-gradient-29"/>
    <linearGradient id="linear-gradient-51" x1="0.982" y1="0.241" x2="0.055" y2="0.763" xlink:href="#linear-gradient-29"/>
    <linearGradient id="linear-gradient-52" x1="1.056" y1="0.195" x2="-0.167" y2="0.784" xlink:href="#linear-gradient-29"/>
    <linearGradient id="linear-gradient-53" x1="1.307" y1="0.174" x2="-1.057" y2="0.826" xlink:href="#linear-gradient-43"/>
    <linearGradient id="linear-gradient-54" x1="2.054" y1="-3.459" x2="1.383" y2="-1.82" gradientUnits="objectBoundingBox">
      <stop offset="0" stop-color="#fdf53f"/>
      <stop offset="1" stop-color="#d93c65"/>
    </linearGradient>
  </defs>
  <g id="Grupo_29199" data-name="Grupo 29199" transform="translate(-438.726 -403.155)">
    <path id="Trazado_61433" data-name="Trazado 61433" d="M906.4,893.663c-10.684,11.247-20.793,18.5-28.78,24.232-93.885,67.363-204.975,47.727-228.585,42.932-34.864-7.081-102.256-20.769-150.979-78.066C424.34,796.074,435.819,659.5,493,569.349c10.459-16.49,65.7-108.017,177.991-122.695,67.955-8.883,147.168,9.033,204.532,57.093C995.933,604.629,987.361,808.429,906.4,893.663Z" transform="translate(-6.266 -33.674)" opacity="0.3" fill="url(#linear-gradient)"/>
    <g id="Grupo_29180" data-name="Grupo 29180" transform="translate(562.781 403.155)">
      <path id="Trazado_61434" data-name="Trazado 61434" d="M1110.117,707.718a27.424,27.424,0,0,1,27.424-27.424h233.212a24.161,24.161,0,0,1,24.13,22.932l17.214,338.114a17.817,17.817,0,0,1-17.47,18.72l-267.291,4.858a16.912,16.912,0,0,1-17.219-16.909Z" transform="translate(-1110.117 -629.087)" fill="url(#linear-gradient-2)"/>
      <path id="Trazado_61435" data-name="Trazado 61435" d="M1155.3,2274.726a.639.639,0,0,1-.639-.639v-7.313a.639.639,0,0,1,1.277,0v7.313A.639.639,0,0,1,1155.3,2274.726Z" transform="translate(-1146.432 -1921.906)" fill="#fff"/>
      <g id="Grupo_29179" data-name="Grupo 29179" transform="translate(19.106 48.394)">
        <path id="Trazado_61436" data-name="Trazado 61436" d="M1213.519,673.082a7.966,7.966,0,0,1,9.035-7.945c31.847,4.319,141.362,17.676,231.907,10.725a7.366,7.366,0,0,1,7.933,6.947l18.05,339.622a8.476,8.476,0,0,1-7.964,8.914c-38.082,2.254-194.914,10.966-250.853,5.107a6.716,6.716,0,0,1-6.009-6.646Z" transform="translate(-1213.518 -665.063)" fill="url(#linear-gradient-3)"/>
        <path id="Trazado_61437" data-name="Trazado 61437" d="M1233.82,720.474a7.666,7.666,0,0,1,8.695-7.646c30.648,4.156,136.039,17.01,223.174,10.321a7.089,7.089,0,0,1,7.634,6.686l17.371,326.833a8.158,8.158,0,0,1-7.664,8.579c-36.648,2.169-187.574,10.553-241.407,4.914a6.463,6.463,0,0,1-5.783-6.4Z" transform="translate(-1230.069 -703.945)" fill="#fff" opacity="0.6"/>
      </g>
      <path id="Trazado_61438" data-name="Trazado 61438" d="M1843.235,408.263c-8.424-5.86-15.749-5.744-20.905-4.223a10.285,10.285,0,0,0-7.3,10.813l2.224,24.271,26.461,2.348S1859.756,419.756,1843.235,408.263ZM1831.6,427.844a6.6,6.6,0,1,1,6.6-6.6A6.6,6.6,0,0,1,1831.6,427.844Z" transform="translate(-1684.741 -403.155)" fill="url(#linear-gradient-4)"/>
      <path id="Trazado_61439" data-name="Trazado 61439" d="M1834.324,444.6a.638.638,0,0,1-.635-.581l-.354-3.865a.638.638,0,1,1,1.271-.116l.354,3.865a.638.638,0,0,1-.577.694A.569.569,0,0,1,1834.324,444.6Zm-.694-7.575a.638.638,0,0,1-.635-.581l-.269-2.934a9.817,9.817,0,0,1,6.96-10.3,19.776,19.776,0,0,1,9.671-.4.638.638,0,0,1-.256,1.251,18.535,18.535,0,0,0-9.053.371,8.538,8.538,0,0,0-6.05,8.96l.269,2.934a.638.638,0,0,1-.577.694C1833.669,437.02,1833.649,437.02,1833.63,437.02Z" transform="translate(-1699.173 -418.836)" fill="#fff"/>
      <path id="Trazado_61440" data-name="Trazado 61440" d="M1631.8,596.018v-12.2a7.446,7.446,0,0,1,7.7-7.442l84.134,2.883a7.242,7.242,0,0,1,6.981,6.8l.7,11.725Z" transform="translate(-1535.407 -544.364)" fill="url(#linear-gradient-5)"/>
      <path id="Trazado_61441" data-name="Trazado 61441" d="M1782.8,595.643h-3.618a.639.639,0,1,1,0-1.277h3.618a.639.639,0,0,1,0,1.277Z" transform="translate(-1655.037 -559.035)" fill="#fff"/>
      <path id="Trazado_61442" data-name="Trazado 61442" d="M1653.63,606.858a.638.638,0,0,1-.638-.639v-4.937a6.925,6.925,0,0,1,6.917-6.917h13.3a.639.639,0,0,1,0,1.277h-13.3a5.647,5.647,0,0,0-5.64,5.64v4.937A.638.638,0,0,1,1653.63,606.858Z" transform="translate(-1552.682 -559.035)" fill="#fff"/>
      <path id="Trazado_61443" data-name="Trazado 61443" d="M1444.808,666.071a7.928,7.928,0,0,1,7.919-7.547l147.123,0a10.874,10.874,0,0,1,10.715,9.019l.125.72a9.339,9.339,0,0,1-9.2,10.932h-150.94a6.072,6.072,0,0,1-6.065-6.363Z" transform="translate(-1382.695 -611.334)" fill="url(#linear-gradient-6)"/>
    </g>
    <g id="Grupo_29181" data-name="Grupo 29181" transform="translate(821.142 414.588)">
      <path id="Trazado_61444" data-name="Trazado 61444" d="M2639.379,468.272c.724-2.4-2.594-4.225-4.795-2.659-22.346,15.908-76.675,64.336-69.605,155.368,8.871,114.213-21.033,153.809-56.609,176.874,0,0,47.43-8.92,79.434-48.994C2666.38,650.469,2626.513,510.857,2639.379,468.272Z" transform="translate(-2508.37 -465.03)" fill="url(#linear-gradient-7)"/>
      <path id="Trazado_61445" data-name="Trazado 61445" d="M2690.516,664.774c-3.451,12.436-6.615,24.929-9.244,37.513q-4.057,18.852-6.769,37.9c-1.745,12.7-3.212,25.423-4.053,38.2-.905,12.767-1.175,25.563-1.395,38.413-.3,12.84-.521,25.777-2.274,38.71a114.971,114.971,0,0,1-11.471,37.736c-1.545,2.971-3.16,5.927-4.962,8.769-1.742,2.873-3.631,5.678-5.58,8.451a138.645,138.645,0,0,1-13.1,15.835,152.46,152.46,0,0,1-33.5,25.8,3.187,3.187,0,0,1-3.993-.709,2.258,2.258,0,0,1,.678-3.4l.009-.005c2.966-1.817,5.9-3.661,8.732-5.614,1.434-.957,2.814-1.967,4.216-2.954,1.356-1.033,2.761-2.019,4.078-3.087a138.287,138.287,0,0,0,37.637-45.367,112.1,112.1,0,0,0,7.145-17.675,123.4,123.4,0,0,0,4.074-18.515c1.814-12.546,2.153-25.348,2.562-38.183.428-12.838.96-25.734,2.106-38.581q.829-9.637,2.058-19.235c.388-3.2.848-6.393,1.3-9.586q.733-4.783,1.537-9.555,3.277-19.08,7.911-37.92c3.163-12.538,6.711-24.993,10.812-37.3a.781.781,0,0,1,.953-.442A.676.676,0,0,1,2690.516,664.774Z" transform="translate(-2577.907 -627.188)" fill="#fff" style="mix-blend-mode: soft-light;isolation: isolate"/>
    </g>
    <g id="Grupo_29183" data-name="Grupo 29183" transform="translate(826.368 415.689)">
      <g id="Grupo_29182" data-name="Grupo 29182">
        <path id="Trazado_61446" data-name="Trazado 61446" d="M2551.765,713.488a5.363,5.363,0,0,0,8.663,2.057c15.467-14.227,55.561-58.407,51.121-130.818-3.749-61.148.029-94.662,2.8-109.757a3.363,3.363,0,0,0-5.611-3.056C2582.624,496.411,2503.925,584.036,2551.765,713.488Z" transform="translate(-2536.651 -470.991)" fill="url(#linear-gradient-8)"/>
        <path id="Trazado_61447" data-name="Trazado 61447" d="M2643.394,1012.981a1.489,1.489,0,0,0,2.192-.684c.351-.862,35.074-87.207,33.7-172.465a1.487,1.487,0,1,0-2.974.048c1.362,84.638-33.134,170.439-33.483,171.3A1.487,1.487,0,0,0,2643.394,1012.981Z" transform="translate(-2623.122 -770.487)" fill="#fff" style="mix-blend-mode: soft-light;isolation: isolate"/>
      </g>
    </g>
    <g id="Grupo_29190" data-name="Grupo 29190" transform="translate(664.22 685.689)">
      <path id="Trazado_61448" data-name="Trazado 61448" d="M2342.708,2450.991a13.218,13.218,0,0,1,9.426-2.745l95.451,8.5c1.757.158,3.688,1.453,3.688,3v1.564c0,.858-1.011,1.675-1.741,2.247a4.582,4.582,0,0,1-2.975.75l-87.232-8.456a8.757,8.757,0,0,0-6.4,1.89,6.468,6.468,0,0,0-2.413,5.471l2.418,27.935c-2.739,4.957-6.188,4.833-8.892,3.535a7.628,7.628,0,0,1-4.554-6.578l-.668-29.113A10,10,0,0,1,2342.708,2450.991Z" transform="translate(-2213.218 -2352.855)" fill="url(#linear-gradient-9)"/>
      <path id="Trazado_61449" data-name="Trazado 61449" d="M3058.182,2123.5c-1.693-.576-9.533-6.911-12.71-1.778s-12.5,35.927-.63,36.663S3058.182,2123.5,3058.182,2123.5Z" transform="translate(-2784.018 -2085.086)" fill="url(#linear-gradient-10)"/>
      <rect id="Rectángulo_5824" data-name="Rectángulo 5824" width="152.19" height="88.673" transform="translate(85.865 153.559)" fill="url(#linear-gradient-11)"/>
      <path id="Trazado_61450" data-name="Trazado 61450" d="M1717.589,2208.671c1.323-2.674,55.969-32.665,73.566-42.272a24.678,24.678,0,0,1,11.566-3.021l120.285-1.555a8.961,8.961,0,0,0,7.629-4.455l39.968-68.746,10.725-38.878a11.034,11.034,0,0,1,13.377-7.754l1.115.286a11.033,11.033,0,0,1,7.995,13.237l-8.267,34.81-42.95,86.436a8.957,8.957,0,0,1-7.81,4.969l-132.63,3.146a24.831,24.831,0,0,0-10.261,2.488l-67.348,32.7a12.572,12.572,0,0,1-13.749-1.834C1717.924,2215.715,1715.753,2212.386,1717.589,2208.671Z" transform="translate(-1706.23 -2021.425)" fill="url(#linear-gradient-12)"/>
      <path id="Trazado_61451" data-name="Trazado 61451" d="M2025.105,3211.933a6.294,6.294,0,0,0,6.08,6.4h175.252a6.291,6.291,0,0,0,6.076-6.4v-.04a6.063,6.063,0,0,0-6.076-6.139H2031.185a6.067,6.067,0,0,0-6.08,6.139Z" transform="translate(-1957.478 -2970.44)" fill="url(#linear-gradient-13)"/>
      <path id="Trazado_61452" data-name="Trazado 61452" d="M2438.749,2979.417h-55.207a4.475,4.475,0,0,1-4.469-4.47v-19.989a4.475,4.475,0,0,1,4.469-4.47h55.207a4.475,4.475,0,0,1,4.469,4.47v19.989A4.475,4.475,0,0,1,2438.749,2979.417Zm-55.207-28.3a3.845,3.845,0,0,0-3.84,3.841v19.989a3.845,3.845,0,0,0,3.84,3.841h55.207a3.845,3.845,0,0,0,3.841-3.841v-19.989a3.845,3.845,0,0,0-3.841-3.841Z" transform="translate(-2246.041 -2762.341)" fill="url(#linear-gradient-14)"/>
      <g id="Grupo_29184" data-name="Grupo 29184" transform="translate(210.512 79.745)">
        <path id="Trazado_61453" data-name="Trazado 61453" d="M2799.182,2390.661a.773.773,0,0,0,.094-.005c12.318-1.469,24.125-24.719,24.621-25.709a.782.782,0,0,0-1.4-.7c-.118.235-11.923,23.487-23.409,24.857a.782.782,0,0,0,.091,1.558Z" transform="translate(-2798.401 -2363.815)" fill="url(#linear-gradient-15)"/>
      </g>
      <g id="Grupo_29189" data-name="Grupo 29189">
        <path id="Trazado_61454" data-name="Trazado 61454" d="M2384.086,2408.98c-1.823-.853-18.247-1.3-25.153,0s-23.588,0-23.588,0-6.777-5.473-9.9-2.084c0,0-3.91,2.867-3.91,4.431s-1.434,5.41,1.824,6.224,10.166,0,10.166,0l43.92,3.03Z" transform="translate(-2198.875 -2318.287)" fill="url(#linear-gradient-16)"/>
        <g id="Grupo_29188" data-name="Grupo 29188">
          <g id="Grupo_29186" data-name="Grupo 29186" transform="translate(158.488)">
            <path id="Trazado_61455" data-name="Trazado 61455" d="M2888.283,2153.6s-6.269,18.014-7.169,23.78a1.92,1.92,0,0,1-1.735,1.617c-3.078.278-9.972-.126-16.183-7.715a4,4,0,0,1-.452-4.341l8.342-16.363Z" transform="translate(-2798.472 -2110.234)" fill="url(#linear-gradient-17)"/>
            <g id="Grupo_29185" data-name="Grupo 29185" transform="translate(66.574)">
              <path id="Trazado_61456" data-name="Trazado 61456" d="M2894.775,2008.455s-10.715,9.608-13.948,15.745-6.46,9.6.241,14.2,14.5,3.781,20.69-.971c0,0,9.631-7.283,10.275-11.777S2894.775,2008.455,2894.775,2008.455Z" transform="translate(-2877.142 -1994.371)" fill="url(#linear-gradient-18)"/>
              <path id="Trazado_61457" data-name="Trazado 61457" d="M2956.382,1969.643l-.331-.373a1.1,1.1,0,0,1,.14-1.6c1.935-1.514,6.017-5.145,3.917-7.389-2.708-2.892-14.677-11.626-15.381-17.614-.677-5.755,4.408-10.456,8.81-10.441a.552.552,0,0,1,.559.515l.041.714a.544.544,0,0,0,.956.324h0a.542.542,0,0,1,.949.28c.234,1.8,1.558,5.156,7.345,9.215,8.225,5.77,12.5,12.123,9.807,18.4a.545.545,0,0,0,.579.759c.848-.1,2,.2,2.869,2.038,1.518,3.2-1.955,8.123-9.389,10.074a.54.54,0,0,0-.339.8c.688,1.087,1.455,3.275-3.259,3.566-4.876.3-7.722-1.209-8.764-1.911a.542.542,0,0,1-.127-.778l3.7-4.906a.544.544,0,0,0-.208-.823Z" transform="translate(-2932.189 -1932.231)" fill="url(#linear-gradient-19)"/>
              <path id="Trazado_61458" data-name="Trazado 61458" d="M3001.111,2122.068s5.5-6.752,7.953-3.031-5.713,7.772-8.607,6.794Z" transform="translate(-2977.671 -2083.608)" fill="url(#linear-gradient-20)"/>
            </g>
            <path id="Trazado_61459" data-name="Trazado 61459" d="M2610.2,2240.679s-19.274-11.489-29.8-7.181-55.06,62.921-55.06,62.921l33.06,20.643S2633.814,2253.082,2610.2,2240.679Z" transform="translate(-2523.77 -2177.044)" fill="url(#linear-gradient-21)"/>
            <path id="Trazado_61460" data-name="Trazado 61460" d="M2516.922,2472.076a2.551,2.551,0,0,1,2.164-1.9l5.609-.685a6.633,6.633,0,0,1,7,4.2,19.2,19.2,0,0,1,1.255,5.916s16.191,4.715,30.047-1.173a78.223,78.223,0,0,1-2.4,16.113c-7.939-.82-17.011-3.543-27.376-8.794l-15.318-10.968A2.551,2.551,0,0,1,2516.922,2472.076Z" transform="translate(-2516.843 -2370.178)" fill="url(#linear-gradient-22)"/>
            <path id="Trazado_61461" data-name="Trazado 61461" d="M2810.753,2283.22a25.679,25.679,0,0,1,2.617,26.439c-6.905,15.088-21.214,34.312-45.285,34.292l2.4-16.113S2811.592,2290.68,2810.753,2283.22Z" transform="translate(-2721.662 -2218.366)" fill="url(#linear-gradient-23)"/>
          </g>
          <g id="Grupo_29187" data-name="Grupo 29187" transform="translate(0 162.016)">
            <path id="Trazado_61462" data-name="Trazado 61462" d="M1661.37,2809.092c2.734,4.7,7.521,12.822,11.519,19.069,2.4,3.756,4.235,5.6,5.569,6.469-.138.094-.269.18-.392.259a1.532,1.532,0,0,1-2.022-.358,260.221,260.221,0,0,1-16.771-23.781,1.091,1.091,0,0,1,.829-1.67A8.971,8.971,0,0,1,1661.37,2809.092Z" transform="translate(-1659.106 -2809.063)" fill="url(#linear-gradient-24)"/>
            <path id="Trazado_61463" data-name="Trazado 61463" d="M1682.879,2828.291c-4-6.247-8.785-14.371-11.519-19.07,8.406.6,21.733,11.882,21.733,11.882l2.747,3.9a20.017,20.017,0,0,1-7.392,9.753C1687.114,2833.892,1685.282,2832.046,1682.879,2828.291Z" transform="translate(-1669.096 -2809.192)" fill="url(#linear-gradient-25)"/>
            <path id="Trazado_61464" data-name="Trazado 61464" d="M1788.1,2841.807l-7.486,4.721a2.018,2.018,0,0,1-2.544-.316,7.855,7.855,0,0,1-1.82-3.1,2.387,2.387,0,0,1,.577-2.369l6.148-6.214Z" transform="translate(-1754.518 -2829.82)" fill="url(#linear-gradient-26)"/>
          </g>
          <path id="Trazado_61465" data-name="Trazado 61465" d="M1797.255,2624.792c8.156-5.817,70.242-49.857,79.006-48.762,9.383,1.173,55.127.4,55.127.4l31.318,19.555s-8.368,15.621-50.925,6.238L1879,2600.606l-76.094,33.53a1.162,1.162,0,0,1-1.459-.455l-4.506-7.335A1.161,1.161,0,0,1,1797.255,2624.792Z" transform="translate(-1771.33 -2457.056)" fill="url(#linear-gradient-27)"/>
        </g>
      </g>
      <path id="Trazado_61466" data-name="Trazado 61466" d="M2423.116,2493.311a13.217,13.217,0,0,1,9.427-2.745l95.569,8.5c1.757.158,3.806,1.453,3.806,3v1.564c0,.858-1.13,1.674-1.859,2.247a4.751,4.751,0,0,1-3.034.75l-87.261-8.456a8.789,8.789,0,0,0-6.419,1.89,6.475,6.475,0,0,0-2.421,5.471l2.415,27.935c-2.739,4.956-6.19,4.833-8.894,3.535a7.63,7.63,0,0,1-4.554-6.578l-.668-29.113A10,10,0,0,1,2423.116,2493.311Z" transform="translate(-2278.77 -2387.356)" fill="url(#linear-gradient-9)"/>
    </g>
    <g id="Grupo_29197" data-name="Grupo 29197" transform="translate(438.726 564.712)">
      <g id="Grupo_29191" data-name="Grupo 29191" transform="translate(110.82 64.509)">
        <path id="Trazado_61467" data-name="Trazado 61467" d="M1121.712,1658.694l-6.92,1.688c-8.433,2.54-15.557,3.188-21.649,2.544-19.02-2.013-27.948-16.665-35.018-25.984-9.333-12.3-19.638-10.177-19.638-10.177l6.307,27.146c14.112,22.486,34.3,23.556,47.866,20.986a57.914,57.914,0,0,0,14.595-4.746C1123.14,1665.525,1121.712,1658.694,1121.712,1658.694Z" transform="translate(-1038.488 -1626.624)" fill="url(#linear-gradient-29)"/>
        <path id="Trazado_61468" data-name="Trazado 61468" d="M1465.341,1795.222a4.626,4.626,0,0,0-1.873-3.545l-11.032-8.158s.225-1.629,3.293-1.977,3.228-3.642,3.228-3.642-4.262.748-10.558,2.054a13.5,13.5,0,0,0-7.608,4.914l2.087,5a58.245,58.245,0,0,0,22.555,7.8Z" transform="translate(-1366.457 -1749.948)" fill="url(#linear-gradient-30)"/>
      </g>
      <path id="Trazado_61469" data-name="Trazado 61469" d="M682.985,2586.992l54.77,2.117v-20.021l-46.25-4.235Z" transform="translate(-637.853 -2326.985)" fill="url(#linear-gradient-31)"/>
      <path id="Trazado_61470" data-name="Trazado 61470" d="M584.958,1289.31s-13.923,4.641-22.943,24.532c-2.466,5.439-15.857,6.4-17.239,17.56a12.8,12.8,0,0,1-10.713,11.252c-14.289,2.19-36.309,9.609-39.832,34.418-2.689,18.936,6.964,26.116,17.095,28.6a14.35,14.35,0,0,1,10.881,16.575c-1.444,7.205.709,15.535,13.191,22.121,27.973,14.76,55.908-34.968,55.908-34.968l5.725-86.829Z" transform="translate(-483.604 -1287.128)" fill="url(#linear-gradient-32)"/>
      <path id="Trazado_61471" data-name="Trazado 61471" d="M458.557,3166.888l-1.129,9.284a3.836,3.836,0,0,1-3.364,3.355,59.406,59.406,0,0,1-12.425.194,3.284,3.284,0,0,1-2.758-4.259c1.139-3.584,3.223-8.964,6.228-12.13h10.3A3.173,3.173,0,0,1,458.557,3166.888Z" transform="translate(-438.726 -2814.879)" fill="url(#linear-gradient-33)"/>
      <path id="Trazado_61472" data-name="Trazado 61472" d="M894.931,2593.98l1.739,10.225s-5.821,58.965-6.857,82.55a18.479,18.479,0,0,0,2.735,10.5L902.67,2713.7l-25.725-15.18-.512-3.139,4.211-5.79-5.516-66.055a20.265,20.265,0,0,1,2.306-11.209l5.321-10Z" transform="translate(-794.435 -2350.729)" fill="url(#linear-gradient-34)"/>
      <path id="Trazado_61473" data-name="Trazado 61473" d="M901.5,3147.09h-8.21a4.944,4.944,0,0,1-3.923-1.923c-2.559-3.326-7.862-9.813-10.4-9.983-3.413-.228-2.976,11.906-2.976,11.906h-1.913l-2.423-15.078a8.926,8.926,0,0,1,4.684-9.33h0s.78,5.77,5.011,8.323,17.216,11.692,17.216,11.692a11.716,11.716,0,0,1,3.337.089A2.171,2.171,0,0,1,901.5,3147.09Z" transform="translate(-791.568 -2781.74)" fill="url(#linear-gradient-35)"/>
      <path id="Trazado_61474" data-name="Trazado 61474" d="M519.9,2601.515s-34.1,64.689-39.524,79.459a141.9,141.9,0,0,0-7.393,28.258c-.114,1.823-2.381,3.571-8.632,3.571-3.226,0-4.806-1.293-5.579-2.544a3.645,3.645,0,0,1-.138-3.53c1.973-3.992,8.233-16.751,10.551-22.537,2.768-6.909,8.723-38.219,11.988-49.1s6.957-22.695,21.178-33.572C502.351,2601.515,512.114,2591.954,519.9,2601.515Z" transform="translate(-454.638 -2353.407)" fill="url(#linear-gradient-36)"/>
      <path id="Trazado_61475" data-name="Trazado 61475" d="M849,1709.781c8.8-37.276-13.488-58.359-13.488-58.359,9-8.642,22.745-14.269,31.466-17.2a15.009,15.009,0,0,1,14.9,3.127c7.005,6.392,16.749,17.169,14.857,26.295-1.7,8.2-17.184,49.112-17.184,49.112S865.24,1719.534,849,1709.781Z" transform="translate(-762.198 -1567.67)" fill="url(#linear-gradient-37)"/>
      <path id="Trazado_61476" data-name="Trazado 61476" d="M711.761,2065.063c3.58-10.785,19.5-18.454,19.5-18.454,16.238,9.753,30.556,2.977,30.556,2.977s3.211,12.273.995,23.679-16.121,84.709-16.121,84.709c-21.909,4.439-55.6-4.466-55.6-4.466C705.046,2128.732,708.181,2075.848,711.761,2065.063Z" transform="translate(-644.461 -1904.498)" fill="url(#linear-gradient-38)"/>
      <path id="Trazado_61477" data-name="Trazado 61477" d="M931.727,1477.651l-7.152,32.125c-.685,2.83,1.9,2.366,4.756,1.827,4.685-.883,10.724-2.7,12.742-6.348a3.463,3.463,0,0,0,.366-1.21l3.073-22.277a4,4,0,0,0-2.343-4.206l-5.929-2.629A4,4,0,0,0,931.727,1477.651Z" transform="translate(-834.712 -1438.171)" fill="url(#linear-gradient-39)"/>
      <g id="Grupo_29192" data-name="Grupo 29192" transform="translate(83.958 0)">
        <path id="Trazado_61478" data-name="Trazado 61478" d="M963.081,1342.147s6.036,6.936,5.83,20.461-6.554,16.712-11.747,15.034-12.4-5.334-16.6-16.193S955.054,1333.5,963.081,1342.147Z" transform="translate(-931.301 -1328.277)" fill="url(#linear-gradient-40)"/>
        <path id="Trazado_61479" data-name="Trazado 61479" d="M910.406,1307.328s2.13-18.894,16.484-12.106l2.208,3.987s9.6-6.358,3.091-14.817-18.277-9.861-27.594-.079-13.731,17.223-10.359,25.734,8.949,3.46,8.949,3.46-.778-6.8,1.926-8.909,4.177,2.754,4.177,2.754Z" transform="translate(-893.11 -1277.501)" fill="url(#linear-gradient-41)"/>
        <path id="Trazado_61480" data-name="Trazado 61480" d="M943.082,1407.152s1.152-9.706-4.334-8.3-.6,9.194,1.459,11.948Z" transform="translate(-928.263 -1376.316)" fill="url(#linear-gradient-42)"/>
      </g>
      <path id="Trazado_61481" data-name="Trazado 61481" d="M636.34,1293.736a28.91,28.91,0,0,0-9.073,5.329,38.895,38.895,0,0,0-11.835,17.169,38.3,38.3,0,0,0-1.338,5.094,49.352,49.352,0,0,1-1.157,5.245,11.54,11.54,0,0,1-2.684,4.777,17.287,17.287,0,0,1-4.425,3.18c-1.582.851-3.2,1.589-4.717,2.451a19.354,19.354,0,0,0-9.333,11.941c-.479,1.683-.844,3.439-1.478,5.162a10.445,10.445,0,0,1-3.085,4.621,13.335,13.335,0,0,1-4.947,2.455A50.055,50.055,0,0,1,577,1362.25a43.65,43.65,0,0,0-10.124,2.818,34.99,34.99,0,0,0-8.958,5.411,25.635,25.635,0,0,0-6.508,8.106,17.507,17.507,0,0,0-1.835,10.089,15.087,15.087,0,0,0,4.562,9.1,11.275,11.275,0,0,0,4.444,2.557,11.826,11.826,0,0,0,5.155.239,10.208,10.208,0,0,0,7.981-6.026l.259.1a10.589,10.589,0,0,1-8.153,6.412,12.359,12.359,0,0,1-5.4-.145,11.925,11.925,0,0,1-4.759-2.61,15.718,15.718,0,0,1-4.873-9.521,18.341,18.341,0,0,1,1.842-10.577,26.519,26.519,0,0,1,6.676-8.44,35.941,35.941,0,0,1,9.17-5.629,44.727,44.727,0,0,1,10.332-2.956,49.19,49.19,0,0,0,5.147-1.1,12.218,12.218,0,0,0,4.514-2.265,9.594,9.594,0,0,0,2.761-4.133c.607-1.61.983-3.339,1.487-5.067a20.395,20.395,0,0,1,9.91-12.5c1.577-.879,3.2-1.606,4.753-2.427a16.391,16.391,0,0,0,4.214-2.973,10.64,10.64,0,0,0,2.509-4.408,48.733,48.733,0,0,0,1.171-5.145,39.17,39.17,0,0,1,1.4-5.191,37.749,37.749,0,0,1,12.276-17.3,29.272,29.272,0,0,1,9.306-5.206Z" transform="translate(-528.322 -1290.521)" fill="#fff" opacity="0.44"/>
      <path id="Trazado_61482" data-name="Trazado 61482" d="M644.481,1426.514a51.251,51.251,0,0,1-.671,6.861,19.12,19.12,0,0,1-2.314,6.577,13.163,13.163,0,0,1-2.235,2.76,23.34,23.34,0,0,1-2.763,2.164,54.354,54.354,0,0,0-5.484,4.012c-3.392,2.907-6.241,6.548-7.134,10.9-1.02,4.309-.742,9.077-2.658,13.581a14.6,14.6,0,0,1-4.473,5.612,23,23,0,0,1-6.226,3.361c-4.434,1.6-9.031,2.164-13.437,3.168-4.367.991-8.74,2.658-11.831,5.893-1.5,1.594-2.818,3.569-2.844,5.77s1.005,4.334,2.012,6.363l-.243.131c-1.128-1.966-2.318-4.061-2.4-6.491a7.452,7.452,0,0,1,.806-3.473,13.479,13.479,0,0,1,1.981-2.932c3.2-3.549,7.761-5.392,12.209-6.533,4.473-1.181,9.045-1.718,13.226-3.3a21.486,21.486,0,0,0,5.782-3.181,13.056,13.056,0,0,0,3.959-5.04c1.776-3.993,1.59-8.694,2.682-13.272a18.286,18.286,0,0,1,2.906-6.471,24.92,24.92,0,0,1,4.848-5.088,55.434,55.434,0,0,1,5.7-3.942,15.008,15.008,0,0,0,4.835-4.491,18.345,18.345,0,0,0,2.483-6.2,62.15,62.15,0,0,0,1.013-6.757Z" transform="translate(-555.343 -1398.963)" fill="#fff" opacity="0.44"/>
      <path id="Trazado_61483" data-name="Trazado 61483" d="M683.263,1667.624l-13.449-29.7c-5.735,1.471-17.812,17.485-17.812,17.485s11.652,48.168.15,61c-10.21,11.392-35.8,94.781-41.424,113.374a3.16,3.16,0,0,0,2.7,4.06l27.989,2.881a3.159,3.159,0,0,0,3.375-2.327l39.9-149.445A25.846,25.846,0,0,0,683.263,1667.624Z" transform="translate(-578.836 -1571.326)" fill="url(#linear-gradient-43)"/>
      <path id="Trazado_61484" data-name="Trazado 61484" d="M977.778,1661.886s4.729-16.307-16.714-32.024c0,0-9.25-7.042-10.342-2.524l7.635,36.566-23.7,161.646a3.159,3.159,0,0,0,3.892,3.523l5.834-1.458a3.161,3.161,0,0,0,2.325-2.41c3.317-15.607,25.356-120.68,18.891-127.6C965.6,1697.6,978.305,1665.123,977.778,1661.886Z" transform="translate(-842.995 -1561.464)" fill="url(#linear-gradient-44)"/>
      <path id="Trazado_61485" data-name="Trazado 61485" d="M820.225,1732.553s-14.016,56.533,15.886,67.28,68.214-16.82,68.214-16.82,6.541-3.27,10.279-2.336,3.271-13.082-3.738-16.82S895.915,1776,895.915,1776s-65.708,32.736-59.719-23.579C836.2,1752.425,844.988,1733.488,820.225,1732.553Z" transform="translate(-747.059 -1648.471)" fill="url(#linear-gradient-45)"/>
      <g id="Grupo_29193" data-name="Grupo 29193" transform="translate(115.209 99.321)">
        <path id="Trazado_61486" data-name="Trazado 61486" d="M1062.3,1906.367l16.257-56.773a1.655,1.655,0,0,1,1.4-1.192c2.946-.344,11.48-1.308,21.335-2.142,11.87-1,25.654-1.818,33.892-1.125a1.661,1.661,0,0,1,1.358,2.39c-4.684,9.477-23.952,48.026-33.6,60.654a1.666,1.666,0,0,1-1.34.658l-37.719-.351A1.661,1.661,0,0,1,1062.3,1906.367Z" transform="translate(-1062.238 -1839.362)" fill="url(#linear-gradient-46)"/>
        <path id="Trazado_61487" data-name="Trazado 61487" d="M1276.436,1817.006l11.786-1.964a.846.846,0,0,1,.943,1.1l-1.167,3.536a.846.846,0,0,1-.692.573l-11.342,1.515a.846.846,0,0,1-.936-1.031l.722-3.087A.846.846,0,0,1,1276.436,1817.006Z" transform="translate(-1235.692 -1815.03)" fill="url(#linear-gradient-47)"/>
        <path id="Trazado_61488" data-name="Trazado 61488" d="M1234.885,1842.568l.971-5.058a1.169,1.169,0,0,1,1.03-.943l23.806-2.416a1.17,1.17,0,0,1,1.255,1.437l-1.514,6.3a1.169,1.169,0,0,1-1.078.895l-23.264,1.171A1.169,1.169,0,0,1,1234.885,1842.568Z" transform="translate(-1202.967 -1830.613)" fill="url(#linear-gradient-48)"/>
        <path id="Trazado_61489" data-name="Trazado 61489" d="M1076.929,2018.027s-2.265-9.312-1.351-12.616,2.683-7.552,8.583-6.607a86.3,86.3,0,0,1,12.859,3.429s-.352,4.3-4.835,2.915l2.781,2.151s-.4,3.446-4.185,1.6l2.586,2.853a3.014,3.014,0,0,1-4.413,1.015C1086.167,2010.957,1084.831,2019.149,1076.929,2018.027Z" transform="translate(-1072.936 -1964.739)" fill="url(#linear-gradient-49)"/>
      </g>
      <g id="Grupo_29196" data-name="Grupo 29196" transform="translate(76.347 101.923)">
        <g id="Grupo_29194" data-name="Grupo 29194" transform="translate(0 38.964)">
          <path id="Trazado_61490" data-name="Trazado 61490" d="M870.9,2050.981h-.036c-13.613,0-18.82-10.3-18.871-10.411-.182-.384-.019-.358.365-.541s.842.223,1.026.606a20.752,20.752,0,0,0,17.551,10.624c.425.02.754-.529.734-.1S871.308,2050.981,870.9,2050.981Z" transform="translate(-851.917 -2039.985)" fill="url(#linear-gradient-50)"/>
        </g>
        <g id="Grupo_29195" data-name="Grupo 29195" transform="translate(11.946)">
          <path id="Trazado_61491" data-name="Trazado 61491" d="M928.57,1861.209a.764.764,0,0,1-.355-.087c-15.139-7.894-11.245-30.425-11.072-31.381a.77.77,0,0,1,1.515.275c-.04.223-3.862,22.373,10.269,29.741a.77.77,0,0,1-.357,1.453Z" transform="translate(-916.568 -1829.108)" fill="url(#linear-gradient-51)"/>
        </g>
      </g>
      <path id="Trazado_61492" data-name="Trazado 61492" d="M923.382,1672.133c-2.6-8.278-15.75-34.21-15.75-34.21l-5.32,3.423,9.738,30.513a3.159,3.159,0,0,0,3.009,2.2,1.386,1.386,0,0,1,1.383,1.3l1.686,26S925.978,1680.411,923.382,1672.133Z" transform="translate(-816.653 -1571.326)" fill="url(#linear-gradient-52)"/>
      <path id="Trazado_61493" data-name="Trazado 61493" d="M1036.228,1637.813a4.594,4.594,0,0,0,.135-3.157l-8.1-25.434-4.968-3.969-.547,3.969,4.5,23.765-1.59,43.313,8.412-23.261a4.593,4.593,0,0,0-.147-3.485l-.511-1.111a4.592,4.592,0,0,1-.07-3.686Z" transform="translate(-914.838 -1544.692)" fill="url(#linear-gradient-53)"/>
    </g>
    <g id="Grupo_29198" data-name="Grupo 29198" transform="translate(604.992 542.115)">
      <path id="Trazado_61494" data-name="Trazado 61494" d="M1592.575,1155.206c-15.4,0-29.118,8.077-38.013,20.66-8.9-12.583-22.611-20.66-38.013-20.66-26.816,0-48.555,24.456-48.555,54.624,0,26.918,46.54,76.246,76.764,95.638a16.684,16.684,0,0,0,19.158-.814c26-19.927,77.213-68.275,77.213-94.824C1641.13,1179.662,1619.391,1155.206,1592.575,1155.206Z" transform="translate(-1444.079 -1155.206)" fill="url(#linear-gradient-54)"/>
      <path id="Trazado_61495" data-name="Trazado 61495" d="M1452.277,1407.724q-.1,0-.2,0a5.169,5.169,0,0,1-4.5-3.026l-22.6-49.726-21.854,23.937a5.168,5.168,0,0,1-3.817,1.683h-55.565a5.169,5.169,0,0,1,0-10.338h53.285l25.6-28.037a5.169,5.169,0,0,1,8.523,1.347l21.588,47.5,22.163-40.1a5.169,5.169,0,0,1,9.288.494l9.006,21.389h48.256a5.169,5.169,0,0,1,0,10.338H1489.75a5.169,5.169,0,0,1-4.764-3.163l-6.2-14.733-21.983,39.779A5.168,5.168,0,0,1,1452.277,1407.724Z" transform="translate(-1338.563 -1306.287)" fill="#fff"/>
    </g>
  </g>
</svg>
