<svg xmlns="http://www.w3.org/2000/svg" width="398" height="305.503" viewBox="0 0 398 305.503">
  <g id="Grupo_29835" data-name="Grupo 29835" transform="translate(-108.684 -2414)">
    <path id="Trazado_62994" data-name="Trazado 62994" d="M440.438,2575.5v-4.491a29.364,29.364,0,0,1,29.364-29.364h0a31.413,31.413,0,0,0,31.412-31.413h0a31.413,31.413,0,0,0-31.412-31.414H249.28a28.223,28.223,0,0,0-28.223,28.223h0a33.821,33.821,0,0,1-33.821,33.822h-5.68a34.67,34.67,0,0,0-34.671,34.671h0a34.67,34.67,0,0,0,34.671,34.671h0a33.821,33.821,0,0,1,33.821,33.822v6.447a28.223,28.223,0,0,0,28.223,28.223H474.26a34.67,34.67,0,0,0,34.671-34.67v-.034a34.637,34.637,0,0,0-34.637-34.637h0A33.855,33.855,0,0,1,440.438,2575.5Z" transform="translate(-2.247 -3.813)" fill="#97ffe1"/>
    <path id="Trazado_62995" data-name="Trazado 62995" d="M344.742,2466.875h0a7.548,7.548,0,0,0-7.547,7.548v11.306h15.1v-11.306c0-3.752-2.361-7.548-6-7.548Zm0,9.572a2.983,2.983,0,1,1,2.984-2.982A2.983,2.983,0,0,1,344.742,2476.447Z" transform="translate(-13.444 -3.111)" fill="#5858c6"/>
    <rect id="Rectángulo_6095" data-name="Rectángulo 6095" width="80.541" height="34.103" rx="17.052" transform="translate(394.639 2435.87)" fill="#97ffe1"/>
    <path id="Trazado_62996" data-name="Trazado 62996" d="M404.962,2452.938a15.783,15.783,0,1,0,12.244,18.663A15.783,15.783,0,0,0,404.962,2452.938Z" transform="translate(-16.313 -2.271)" fill="#97ffe1"/>
    <path id="Trazado_62997" data-name="Trazado 62997" d="M487.063,2478.031a17.5,17.5,0,1,0-17.81,17.19A17.5,17.5,0,0,0,487.063,2478.031Z" transform="translate(-20.201 -2.719)" fill="#97ffe1"/>
    <path id="Trazado_62998" data-name="Trazado 62998" d="M268.759,2735.359H222.322a17.052,17.052,0,0,1-17.051-17.051h0a17.051,17.051,0,0,1,17.051-17.052h46.437a17.052,17.052,0,0,1,17.052,17.052h0A17.052,17.052,0,0,1,268.759,2735.359Z" transform="translate(-5.682 -16.9)" fill="#97ffe1"/>
    <path id="Trazado_62999" data-name="Trazado 62999" d="M494.507,2735.37H110.2a1.519,1.519,0,0,0,0,3.039h384.3a1.519,1.519,0,0,0,0-3.039Z" transform="translate(0 -18.907)" fill="#271651"/>
    <g id="Grupo_29816" data-name="Grupo 29816" transform="translate(130.878 2483.164)">
      <g id="Grupo_29813" data-name="Grupo 29813" transform="translate(13.897 111.637)">
        <path id="Trazado_63000" data-name="Trazado 63000" d="M153.143,2714.716s-.735,7.352-2.624,8.7-4.408,6.346-3.149,9.046a3.163,3.163,0,0,0,2.077,1.6,5.533,5.533,0,0,0,6.608-3.051,15.269,15.269,0,0,0,1.3-5.606c.283-5.975,2.172-9.012,2.172-9.012Z" transform="translate(-147.031 -2612.493)" fill="#f7a491"/>
        <path id="Trazado_63001" data-name="Trazado 63001" d="M184.3,2717.913s.595,7.42.112,9.83c-.259,1.292-1.7,3.949-1.039,5.164a3.292,3.292,0,0,0,1.416,1.519l17.138.271c.934.015.316-.576-.436-1.12a34.805,34.805,0,0,0-6.162-3.351c-.257-.123-1.192-.707-1.528-.909a11.791,11.791,0,0,1-2.452-2.129c-1.23-1.348-1.337-7.881-1.337-7.881Z" transform="translate(-149.159 -2612.681)" fill="#f7a491"/>
        <path id="Trazado_63002" data-name="Trazado 63002" d="M197.58,2613.012s2.158,12.046.742,19.943-8.218,81.1-8.218,81.1l-7.558.419s-1.584-30.579-1.3-34.831,2.526-11.368,2.526-11.368l-.752-24.689,9.537-32.434Z" transform="translate(-149.042 -2606.4)" fill="#271651"/>
        <path id="Trazado_63003" data-name="Trazado 63003" d="M177.817,2606.1s-9.463,11.739-10.88,19.028.415,30.841-2.311,40.394c-1.476,5.172-7.067,13.158-7.918,19.84s-4.184,24.188-4.184,24.188l7.554,1.472,17.037-39.827,9.692-36.849,8.126-26.9Z" transform="translate(-147.354 -2606.103)" fill="#312066"/>
        <path id="Trazado_63004" data-name="Trazado 63004" d="M156.57,2730.425a8.5,8.5,0,0,1-8.281-3.4c-1.047,2.009-1.688,4.515-.919,6.166.679,1.453,2.524,1.851,4.084,1.907a4.442,4.442,0,0,0,4.01-2.2A13.355,13.355,0,0,0,156.57,2730.425Z" transform="translate(-147.031 -2613.217)" fill="#271651"/>
        <path id="Trazado_63005" data-name="Trazado 63005" d="M193.8,2730.006a15.756,15.756,0,0,1-9.757-.378c-.484,1.347-1.124,3.037-.784,4.011.416,1.194,1.008,1.562,1.531,1.575,4.14.107,15.164.155,18.321.195a.507.507,0,0,0,.4-.834C202.729,2733.655,194.138,2730.208,193.8,2730.006Z" transform="translate(-149.157 -2613.37)" fill="#271651"/>
      </g>
      <path id="Trazado_63006" data-name="Trazado 63006" d="M196.913,2533.888c-1.339-8.728-9.235-15-17.493-10.768a19.575,19.575,0,0,0-5.655,4.531c-3.528,4.528-4.383,10.139-8.122,14.493-3.224,3.753-11.83,3.046-15.848,5.932a17.387,17.387,0,0,0-6.835,14.256c0,6.924,1.563,14.275,6.929,18.653s12.991,5.469,19.662,3.614,12.4-6.4,16.517-11.967a60.412,60.412,0,0,0,9.086-18.281A47.263,47.263,0,0,0,196.913,2533.888Z" transform="translate(-132.895 -2489.504)" fill="#271651"/>
      <path id="Trazado_63007" data-name="Trazado 63007" d="M166.068,2543.708s-10.137-18.093-12.6-21.939-8.891-19.13-9.121-19.733,4.424-7.835,3.385-8.084-2.188,3.814-3.3,3.329-4.346-10.262-4.978-9.777c-1.182.907,1.746,6.065,1.115,6.389s-2.538-5.674-3.776-5.5,2.353,5.5,2.008,5.968-4.073-4.544-4.748-3.475c-.366.581,3.428,4.377,2.7,4.732s-4.1-2.1-4.46-1.388,3.12,1.674,4.16,3.58,2.811,2.729,3.547,6.257,1.834,16.3,5.6,22.665,12.053,20.468,12.053,20.468Z" transform="translate(-132.266 -2487.488)" fill="#f79c8d"/>
      <g id="Grupo_29814" data-name="Grupo 29814" transform="translate(51.25 65.573)">
        <path id="Trazado_63008" data-name="Trazado 63008" d="M197.994,2570.053l-8.125,4.669s15.422,20.3,16.31,21.23l6.491-5.741Z" transform="translate(-186.904 -2557.918)" fill="#f48c7f"/>
        <path id="Trazado_63009" data-name="Trazado 63009" d="M191.062,2557.16s6.307,1.2,14.167,20.67l-10.807,5.784-7.7-11.961Z" transform="translate(-186.719 -2557.16)" fill="#a4e5ff"/>
        <path id="Trazado_63010" data-name="Trazado 63010" d="M212.447,2558.521s-1.425-.408-3.779,1.617c-2.906,2.5-3.071,21.705-2.307,28.42l.764,6.714a12.356,12.356,0,0,0,7.318-9.291c1.395-7.209,1.928-25.958,1.928-25.958Z" transform="translate(-187.852 -2557.238)" fill="#f48c7f"/>
      </g>
      <path id="Trazado_63011" data-name="Trazado 63011" d="M179.871,2555.046s-7.943-.506-11.086,2.914,6.971,30.46,7.543,34.81-6.609,20.465-6.609,20.465,23.782,2.784,29.116-.738a116.6,116.6,0,0,1-1.216-13.868c-.153-11.638.65-25.844.284-27.831-.571-3.108-5.828-12.022-6.97-13.266S179.871,2555.046,179.871,2555.046Z" transform="translate(-134.379 -2491.461)" fill="#e9faff"/>
      <path id="Trazado_63012" data-name="Trazado 63012" d="M183.23,2543.78s-.041.234-.115.631c-.354,1.906-1.718,8.229-2.639,9.966-1.113,2.1,3.812,8.8,8.552,7.983,1.411-.244-1.193-6.155-1.068-6.782.24-1.2.565-2.834.9-4.511l.556-2.806.92-4.657Z" transform="translate(-135.093 -2490.789)" fill="#f7a491"/>
      <path id="Trazado_63013" data-name="Trazado 63013" d="M183.277,2544.411c.073-.4.115-.631.115-.631l7.1-.176-.92,4.657c-.178.9-.366,1.849-.553,2.791a6.655,6.655,0,0,1-3.391-1.7,8.941,8.941,0,0,1-2.569-3.814C183.149,2545.093,183.222,2544.707,183.277,2544.411Z" transform="translate(-135.254 -2490.789)" fill="#f47458"/>
      <path id="Trazado_63014" data-name="Trazado 63014" d="M188.005,2526.668a6.412,6.412,0,0,0-5.447,2.324c-2.1,2.709-4.36,11.087.854,15.641s10.365-.6,11.128-6.068S195.6,2526.471,188.005,2526.668Z" transform="translate(-135.087 -2489.791)" fill="#f7a491"/>
      <path id="Trazado_63015" data-name="Trazado 63015" d="M196.9,2539.038c-.622,1.207-1.667,1.876-2.333,1.493s-.7-1.672-.079-2.879,1.667-1.876,2.333-1.493S197.518,2537.831,196.9,2539.038Z" transform="translate(-135.9 -2490.345)" fill="#f7a491"/>
      <path id="Trazado_63016" data-name="Trazado 63016" d="M188.184,2525.713s-4.473,7.967-7.673,8.335-3.621,4.6-3.621,4.6,1.144-9.755,4.312-11.635A11.787,11.787,0,0,1,188.184,2525.713Z" transform="translate(-134.891 -2489.731)" fill="#271651"/>
      <path id="Trazado_63017" data-name="Trazado 63017" d="M181.42,2536.56c.26,1.415-.264,2.713-1.17,2.9s-1.851-.81-2.111-2.226.264-2.712,1.169-2.9S181.159,2535.146,181.42,2536.56Z" transform="translate(-134.961 -2490.242)" fill="#f7a491"/>
      <path id="Trazado_63018" data-name="Trazado 63018" d="M164.7,2540.993s11.214,12.034,12.881,16.884-1.625,11.788-6.172,12.092-14.665-21.359-14.665-21.359Z" transform="translate(-133.706 -2490.635)" fill="#e9faff"/>
      <g id="Grupo_29815" data-name="Grupo 29815" transform="translate(69.238 68.473)">
        <path id="Trazado_63019" data-name="Trazado 63019" d="M222.96,2560.241H215.2a7.866,7.866,0,0,0-7.866,7.866v111.427h23.489V2568.107A7.866,7.866,0,0,0,222.96,2560.241Z" transform="translate(-205.92 -2560.241)" fill="#5858c6"/>
        <rect id="Rectángulo_6096" data-name="Rectángulo 6096" width="9.117" height="119.293" transform="translate(8.604)" fill="#7473e8"/>
        <path id="Trazado_63020" data-name="Trazado 63020" d="M216.405,2730.119l2.834,4.093,2.622-4.093,3.248-14.442H213.369Z" transform="translate(-206.275 -2569.385)" fill="#5858c6"/>
        <path id="Trazado_63021" data-name="Trazado 63021" d="M213.014,2713.988h11.741l6.072-27H207.338Z" transform="translate(-205.92 -2567.698)" fill="#fccaa7"/>
        <path id="Trazado_63022" data-name="Trazado 63022" d="M226.24,2560.241H211.924a4.587,4.587,0,0,0-4.586,4.586v16.332h23.489v-16.332A4.587,4.587,0,0,0,226.24,2560.241Z" transform="translate(-205.92 -2560.241)" fill="#ff862d"/>
        <rect id="Rectángulo_6097" data-name="Rectángulo 6097" width="26.324" height="4.925" rx="0.944" transform="translate(26.324 25.843) rotate(180)" fill="#7473e8"/>
      </g>
    </g>
    <path id="Trazado_63023" data-name="Trazado 63023" d="M462.21,2549.437a1.084,1.084,0,0,0,.764.849c1.938.56,4.544,3.062,5.718,4.488l-3.256,9.021c-1.815.347-5.418.606-7.267-.2a1.082,1.082,0,0,0-1.129.164l-5.763,4.861a1.083,1.083,0,0,0-.353,1.086c.484,1.958-.379,5.466-1.028,7.2l-9.441,1.69c-1.208-1.4-3.234-4.388-3.46-6.393a1.083,1.083,0,0,0-.708-.9l-7.091-2.56a1.082,1.082,0,0,0-1.116.238c-1.454,1.4-4.924,2.4-6.745,2.708l-6.184-7.332c.607-1.744,2.184-4.995,3.806-6.193a1.081,1.081,0,0,0,.423-1.06l-1.328-7.421a1.081,1.081,0,0,0-.764-.848c-1.938-.561-4.544-3.062-5.718-4.489l3.256-9.021c1.815-.347,5.417-.607,7.267.2a1.082,1.082,0,0,0,1.129-.164l5.763-4.861a1.085,1.085,0,0,0,.353-1.086c-.484-1.958.379-5.467,1.028-7.2l9.441-1.69c1.207,1.4,3.234,4.388,3.46,6.393a1.082,1.082,0,0,0,.707.9l7.092,2.56a1.082,1.082,0,0,0,1.116-.238c1.454-1.4,4.924-2.4,6.745-2.708l6.184,7.332c-.607,1.744-2.184,4.995-3.806,6.193a1.081,1.081,0,0,0-.423,1.06Zm-14.859-5.967a9.445,9.445,0,1,0-1.13,13.31A9.446,9.446,0,0,0,447.35,2543.47Zm4.631-3.906a15.5,15.5,0,1,0-1.855,21.846A15.5,15.5,0,0,0,451.981,2539.564Z" transform="translate(-17.819 -6.267)" fill="#e9faff"/>
    <path id="Trazado_63024" data-name="Trazado 63024" d="M418.52,2453.559a1.1,1.1,0,0,0,1.144.2c1.9-.768,5.564-.4,7.4,0l3.06,9.272c-1.235,1.417-3.958,3.89-5.945,4.406a1.1,1.1,0,0,0-.8.841l-1.56,7.515a1.1,1.1,0,0,0,.4,1.091c1.618,1.265,3.131,4.617,3.7,6.41l-6.5,7.286c-1.846-.36-5.348-1.482-6.789-2.946a1.1,1.1,0,0,0-1.129-.273l-7.288,2.4a1.1,1.1,0,0,0-.745.892c-.286,2.034-2.433,5.02-3.7,6.408l-9.559-1.986c-.611-1.779-1.391-5.373-.843-7.353a1.1,1.1,0,0,0-.328-1.115l-5.727-5.109a1.1,1.1,0,0,0-1.144-.2c-1.9.769-5.564.4-7.4,0l-3.06-9.272c1.235-1.418,3.958-3.89,5.945-4.406a1.1,1.1,0,0,0,.8-.841l1.56-7.514a1.1,1.1,0,0,0-.4-1.091c-1.617-1.265-3.13-4.617-3.7-6.41l6.5-7.285c1.845.36,5.348,1.482,6.789,2.946a1.1,1.1,0,0,0,1.129.273l7.288-2.406a1.1,1.1,0,0,0,.744-.892c.287-2.033,2.434-5.02,3.7-6.407l9.56,1.986c.61,1.778,1.39,5.372.842,7.352a1.1,1.1,0,0,0,.328,1.115Zm-15.653,4.558a9.616,9.616,0,1,0,7.46,11.37A9.614,9.614,0,0,0,402.868,2458.117Zm1.255-6.039a15.783,15.783,0,1,0,12.244,18.663A15.783,15.783,0,0,0,404.122,2452.079Z" transform="translate(-15.473 -1.412)" fill="#5858c6"/>
    <g id="Grupo_29817" data-name="Grupo 29817" transform="translate(416.942 2444.1)">
      <path id="Trazado_63025" data-name="Trazado 63025" d="M493.3,2469.332a1.221,1.221,0,0,1-1.126-.627l-4.125-7.445a1.225,1.225,0,0,1,.065-1.288c1.3-1.871,1.8-5.92,1.81-8l-9.28-5.579c-1.836.989-5.177,3.33-6.221,5.354a1.224,1.224,0,0,1-1.107.661l-8.51-.151a1.221,1.221,0,0,1-1.082-.7c-.972-2.059-4.228-4.516-6.027-5.57l-9.472,5.248c-.062,2.083.295,6.148,1.526,8.064a1.223,1.223,0,0,1,.019,1.289l-4.386,7.295a1.224,1.224,0,0,1-1.146.587c-2.27-.188-6.025,1.4-7.837,2.436l-.192,10.826c1.774,1.1,5.472,2.818,7.747,2.711a1.223,1.223,0,0,1,1.126.628l4.124,7.445a1.221,1.221,0,0,1-.065,1.287c-1.3,1.872-1.8,5.92-1.809,8.006l9.28,5.578c1.836-.988,5.176-3.329,6.221-5.353a1.223,1.223,0,0,1,1.106-.661l8.511.15a1.225,1.225,0,0,1,1.082.7c.972,2.059,4.228,4.517,6.027,5.569l9.472-5.247c.061-2.084-.295-6.148-1.526-8.064a1.221,1.221,0,0,1-.019-1.289l4.385-7.295a1.222,1.222,0,0,1,1.147-.587c2.269.187,6.025-1.4,7.837-2.436l.191-10.826C499.275,2470.948,495.578,2469.224,493.3,2469.332Zm-7.173,7.863a17.5,17.5,0,1,1-17.19-17.81A17.5,17.5,0,0,1,486.131,2477.194Z" transform="translate(-436.211 -2445.982)" fill="#ff862d"/>
      <path id="Trazado_63026" data-name="Trazado 63026" d="M470.179,2467.488a10.664,10.664,0,1,0,10.473,10.85A10.663,10.663,0,0,0,470.179,2467.488Z" transform="translate(-437.571 -2447.247)" fill="#ff862d"/>
    </g>
    <g id="Grupo_29818" data-name="Grupo 29818" transform="translate(150.73 2414)">
      <path id="Trazado_63027" data-name="Trazado 63027" d="M172.824,2459.448l-1.546-3.521-3.92-.086-1.453-4.069-4.2,1.2-1.847-4.529-4.007.624L153.358,2445l1.539-.942,1.861,3.041,4.228-.658,1.775,4.354,4.274-1.216,1.6,4.49,3.828.084,1.433,3.263,2.525-.471.331,1.774Z" transform="translate(-153.358 -2415.768)" fill="#ff862d"/>
      <path id="Trazado_63028" data-name="Trazado 63028" d="M508.72,2650.971l-1.546-3.521-3.92-.086L501.8,2643.3l-4.2,1.2-1.847-4.529-4.007.624-2.489-4.067,1.539-.943,1.861,3.041,4.228-.658,1.775,4.354,4.274-1.216,1.6,4.49,3.828.084,1.433,3.263,2.526-.471.331,1.774Z" transform="translate(-173.119 -2427.035)" fill="#e9faff"/>
      <path id="Trazado_63029" data-name="Trazado 63029" d="M482.635,2684.848l-1.572-1.376-2.025.515a.287.287,0,0,1-.334-.392l.823-1.92-1.114-1.767a.287.287,0,0,1,.268-.44l2.081.189,1.335-1.605a.287.287,0,0,1,.5.119l.463,2.038,1.94.774a.287.287,0,0,1,.041.513l-1.795,1.07-.136,2.085A.287.287,0,0,1,482.635,2684.848Z" transform="translate(-172.479 -2429.528)" fill="#ff862d"/>
      <path id="Trazado_63030" data-name="Trazado 63030" d="M318.1,2426.289l-2.8-2.451-3.607.917a.511.511,0,0,1-.6-.7l1.466-3.42-1.987-3.146a.511.511,0,0,1,.479-.782l3.705.338,2.379-2.862a.512.512,0,0,1,.892.214l.824,3.629,3.457,1.378a.512.512,0,0,1,.072.915l-3.2,1.9-.243,3.713A.511.511,0,0,1,318.1,2426.289Z" transform="translate(-162.602 -2414)" fill="#ff862d"/>
      <path id="Trazado_63031" data-name="Trazado 63031" d="M309.166,2472.568l-2.8-2.452-3.607.917a.511.511,0,0,1-.6-.7l1.466-3.42-1.986-3.146a.511.511,0,0,1,.478-.782l3.706.337,2.378-2.861a.512.512,0,0,1,.892.213l.824,3.628,3.457,1.379a.511.511,0,0,1,.073.914l-3.2,1.905-.243,3.714A.511.511,0,0,1,309.166,2472.568Z" transform="translate(-162.077 -2416.722)" fill="#7473e8"/>
      <path id="Trazado_63032" data-name="Trazado 63032" d="M456.456,2711.627l-2.8-2.452-3.607.917a.511.511,0,0,1-.6-.7l1.466-3.42-1.986-3.147a.51.51,0,0,1,.478-.781l3.706.337,2.378-2.861a.512.512,0,0,1,.892.214l.824,3.629,3.456,1.378a.511.511,0,0,1,.072.914l-3.2,1.906-.243,3.712A.512.512,0,0,1,456.456,2711.627Z" transform="translate(-170.742 -2430.787)" fill="#e9faff"/>
      <path id="Trazado_63033" data-name="Trazado 63033" d="M182.854,2481.771l-6.8.169-.521,5.006-6.7.4-1.242,4.764-4.992.946.485,1.977,6.677-1.265,1.177-4.515,6.971-.416.512-4.924,6.16-.153Z" transform="translate(-153.902 -2417.987)" fill="#7473e8"/>
    </g>
    <g id="Grupo_29819" data-name="Grupo 29819" transform="translate(436.049 2628.323)">
      <path id="Trazado_63034" data-name="Trazado 63034" d="M477.108,2657.543a10.891,10.891,0,1,1-4.784-14.642A10.889,10.889,0,0,1,477.108,2657.543Z" transform="translate(-456.512 -2641.719)" fill="#ff862d"/>
      <path id="Trazado_63035" data-name="Trazado 63035" d="M461.69,2652.131a5.823,5.823,0,1,0,10.386,5.271Z" transform="translate(-456.78 -2642.332)" fill="#efefef"/>
    </g>
    <rect id="Rectángulo_6098" data-name="Rectángulo 6098" width="185.063" height="234.629" rx="15.797" transform="translate(237.248 2482.707)" fill="#ff862d"/>
    <rect id="Rectángulo_6099" data-name="Rectángulo 6099" width="159.936" height="208.049" rx="15.993" transform="translate(249.812 2498.636)" fill="#e9faff"/>
    <g id="Grupo_29828" data-name="Grupo 29828" transform="translate(263.538 2533.422)">
      <g id="Grupo_29821" data-name="Grupo 29821">
        <g id="Grupo_29820" data-name="Grupo 29820" transform="translate(5.364 8.023)">
          <rect id="Rectángulo_6100" data-name="Rectángulo 6100" width="15.847" height="20.581" transform="translate(15.847 20.581) rotate(180)" fill="#a4e5ff"/>
          <rect id="Rectángulo_6101" data-name="Rectángulo 6101" width="16.839" height="12.546" transform="translate(14.196 1.871) rotate(90)" fill="#e9faff"/>
        </g>
        <path id="Trazado_63036" data-name="Trazado 63036" d="M273.754,2541.038a.983.983,0,0,1,1.422.456l11.48,23.285,3.364-9.432a1.007,1.007,0,0,1,1.361-.654,1.244,1.244,0,0,1,.577,1.543l-5,14.016-13.608-27.6A1.271,1.271,0,0,1,273.754,2541.038Z" transform="translate(-273.218 -2540.886)" fill="#ff862d"/>
      </g>
      <g id="Grupo_29823" data-name="Grupo 29823" transform="translate(0 31.875)">
        <g id="Grupo_29822" data-name="Grupo 29822" transform="translate(5.364 9.974)">
          <rect id="Rectángulo_6102" data-name="Rectángulo 6102" width="15.847" height="20.581" transform="translate(15.847 20.581) rotate(180)" fill="#a4e5ff"/>
          <rect id="Rectángulo_6103" data-name="Rectángulo 6103" width="16.84" height="12.546" transform="translate(14.196 1.871) rotate(90)" fill="#e9faff"/>
        </g>
        <path id="Trazado_63037" data-name="Trazado 63037" d="M273.754,2574.906a.982.982,0,0,1,1.422.455l11.48,23.285,3.364-9.431a1.008,1.008,0,0,1,1.361-.655,1.244,1.244,0,0,1,.577,1.542l-5,14.016-13.608-27.6A1.271,1.271,0,0,1,273.754,2574.906Z" transform="translate(-273.218 -2574.754)" fill="#ff862d"/>
      </g>
      <g id="Grupo_29825" data-name="Grupo 29825" transform="translate(0 64.346)">
        <g id="Grupo_29824" data-name="Grupo 29824" transform="translate(5.364 9.974)">
          <rect id="Rectángulo_6104" data-name="Rectángulo 6104" width="15.847" height="20.581" transform="translate(15.847 20.581) rotate(180)" fill="#a4e5ff"/>
          <rect id="Rectángulo_6105" data-name="Rectángulo 6105" width="16.839" height="12.546" transform="translate(14.196 1.871) rotate(90)" fill="#e9faff"/>
        </g>
        <path id="Trazado_63038" data-name="Trazado 63038" d="M273.754,2609.406a.983.983,0,0,1,1.422.456l11.48,23.285,3.364-9.431a1.008,1.008,0,0,1,1.361-.655,1.244,1.244,0,0,1,.577,1.542l-5,14.017-13.608-27.6A1.272,1.272,0,0,1,273.754,2609.406Z" transform="translate(-273.218 -2609.254)" fill="#ff862d"/>
      </g>
      <g id="Grupo_29827" data-name="Grupo 29827" transform="translate(0 96.817)">
        <g id="Grupo_29826" data-name="Grupo 29826" transform="translate(5.364 9.973)">
          <rect id="Rectángulo_6106" data-name="Rectángulo 6106" width="15.847" height="20.581" transform="translate(15.847 20.581) rotate(180)" fill="#a4e5ff"/>
          <rect id="Rectángulo_6107" data-name="Rectángulo 6107" width="16.84" height="12.546" transform="translate(14.196 1.871) rotate(90)" fill="#e9faff"/>
        </g>
        <path id="Trazado_63039" data-name="Trazado 63039" d="M273.754,2643.906a.983.983,0,0,1,1.422.456l11.48,23.284,3.364-9.431a1.008,1.008,0,0,1,1.361-.654,1.244,1.244,0,0,1,.577,1.543l-5,14.016-13.608-27.6A1.271,1.271,0,0,1,273.754,2643.906Z" transform="translate(-273.218 -2643.755)" fill="#ff862d"/>
      </g>
    </g>
    <g id="Grupo_29829" data-name="Grupo 29829" transform="translate(292.493 2545.497)">
      <path id="Trazado_63040" data-name="Trazado 63040" d="M398.658,2555.748H305a1.015,1.015,0,0,1-1.016-1.016h0a1.015,1.015,0,0,1,1.016-1.015h93.659a1.015,1.015,0,0,1,1.015,1.015h0A1.015,1.015,0,0,1,398.658,2555.748Z" transform="translate(-303.983 -2553.717)" fill="#a4e5ff"/>
      <path id="Trazado_63041" data-name="Trazado 63041" d="M398.658,2562.006H305a1.016,1.016,0,0,1-1.016-1.016h0a1.015,1.015,0,0,1,1.016-1.015h93.659a1.015,1.015,0,0,1,1.015,1.015h0A1.015,1.015,0,0,1,398.658,2562.006Z" transform="translate(-303.983 -2554.085)" fill="#a4e5ff"/>
      <path id="Trazado_63042" data-name="Trazado 63042" d="M351.239,2566.233h-46.2a1.046,1.046,0,0,0-1.055.916,1.016,1.016,0,0,0,1.011,1.115h46.241a1.016,1.016,0,0,0,1.016-1.016h0A1.016,1.016,0,0,0,351.239,2566.233Z" transform="translate(-303.983 -2554.453)" fill="#a4e5ff"/>
    </g>
    <g id="Grupo_29830" data-name="Grupo 29830" transform="translate(292.92 2580.111)">
      <path id="Trazado_63043" data-name="Trazado 63043" d="M399.11,2592.524H305.452a1.015,1.015,0,0,1-1.016-1.014h0a1.015,1.015,0,0,1,1.016-1.016H399.11a1.015,1.015,0,0,1,1.016,1.016h0A1.015,1.015,0,0,1,399.11,2592.524Z" transform="translate(-304.436 -2590.494)" fill="#a4e5ff"/>
      <path id="Trazado_63044" data-name="Trazado 63044" d="M399.11,2598.783H305.452a1.015,1.015,0,0,1-1.016-1.015h0a1.015,1.015,0,0,1,1.016-1.016H399.11a1.015,1.015,0,0,1,1.016,1.016h0A1.015,1.015,0,0,1,399.11,2598.783Z" transform="translate(-304.436 -2590.862)" fill="#a4e5ff"/>
      <path id="Trazado_63045" data-name="Trazado 63045" d="M351.692,2603.01h-46.2a1.045,1.045,0,0,0-1.054.916,1.016,1.016,0,0,0,1.011,1.115h46.241a1.015,1.015,0,0,0,1.015-1.015h0A1.015,1.015,0,0,0,351.692,2603.01Z" transform="translate(-304.436 -2591.23)" fill="#a4e5ff"/>
    </g>
    <g id="Grupo_29831" data-name="Grupo 29831" transform="translate(292.493 2611.127)">
      <path id="Trazado_63046" data-name="Trazado 63046" d="M398.658,2625.479H305a1.015,1.015,0,0,1-1.016-1.015h0a1.015,1.015,0,0,1,1.016-1.015h93.659a1.015,1.015,0,0,1,1.015,1.015h0A1.015,1.015,0,0,1,398.658,2625.479Z" transform="translate(-303.983 -2623.449)" fill="#a4e5ff"/>
      <path id="Trazado_63047" data-name="Trazado 63047" d="M398.658,2631.738H305a1.015,1.015,0,0,1-1.016-1.016h0a1.015,1.015,0,0,1,1.016-1.015h93.659a1.015,1.015,0,0,1,1.015,1.015h0A1.015,1.015,0,0,1,398.658,2631.738Z" transform="translate(-303.983 -2623.817)" fill="#a4e5ff"/>
      <path id="Trazado_63048" data-name="Trazado 63048" d="M351.239,2635.965h-46.2a1.046,1.046,0,0,0-1.055.916A1.016,1.016,0,0,0,305,2638h46.241a1.015,1.015,0,0,0,1.016-1.015h0A1.015,1.015,0,0,0,351.239,2635.965Z" transform="translate(-303.983 -2624.185)" fill="#a4e5ff"/>
    </g>
    <g id="Grupo_29832" data-name="Grupo 29832" transform="translate(292.92 2644.04)">
      <path id="Trazado_63049" data-name="Trazado 63049" d="M399.11,2660.451H305.452a1.015,1.015,0,0,1-1.016-1.015h0a1.016,1.016,0,0,1,1.016-1.016H399.11a1.016,1.016,0,0,1,1.016,1.016h0A1.015,1.015,0,0,1,399.11,2660.451Z" transform="translate(-304.436 -2658.42)" fill="#a4e5ff"/>
      <path id="Trazado_63050" data-name="Trazado 63050" d="M399.11,2666.709H305.452a1.015,1.015,0,0,1-1.016-1.016h0a1.016,1.016,0,0,1,1.016-1.016H399.11a1.016,1.016,0,0,1,1.016,1.016h0A1.015,1.015,0,0,1,399.11,2666.709Z" transform="translate(-304.436 -2658.788)" fill="#a4e5ff"/>
      <path id="Trazado_63051" data-name="Trazado 63051" d="M351.692,2670.937h-46.2a1.046,1.046,0,0,0-1.054.916,1.015,1.015,0,0,0,1.011,1.114h46.241a1.015,1.015,0,0,0,1.015-1.014h0A1.015,1.015,0,0,0,351.692,2670.937Z" transform="translate(-304.436 -2659.156)" fill="#a4e5ff"/>
    </g>
    <path id="Trazado_63052" data-name="Trazado 63052" d="M306.99,2502.931h59.716L366.088,2487H307.608Z" transform="translate(-11.667 -4.295)" fill="#e27023"/>
    <path id="Trazado_63053" data-name="Trazado 63053" d="M373.206,2502.823H313.49l.914-17.661h57.889Z" transform="translate(-12.049 -4.187)" fill="#7473e8"/>
    <path id="Trazado_63054" data-name="Trazado 63054" d="M346.262,2466.875h0a7.548,7.548,0,0,0-7.547,7.548v11.306h15.1v-11.306A7.548,7.548,0,0,0,346.262,2466.875Zm0,9.572a2.983,2.983,0,1,1,2.983-2.982A2.983,2.983,0,0,1,346.262,2476.447Z" transform="translate(-13.533 -3.111)" fill="#7473e8"/>
    <g id="Grupo_29834" data-name="Grupo 29834" transform="translate(438.34 2573.639)">
      <g id="Grupo_29833" data-name="Grupo 29833" transform="translate(0)">
        <path id="Trazado_63055" data-name="Trazado 63055" d="M459.818,2597.312l4.867-.682s5.586-5.339,5.575-6.984-1.435-4.955-.536-5.5a3.219,3.219,0,0,1,4.416.857c1.116,1.447,1.04,7.231,1.659,7.542.388.194,3.2-.119,5.243-.381a3.645,3.645,0,0,1,3.452,1.53l0,0a1.942,1.942,0,0,1-.176,2.44l-.976,1.042.995,1.032a1.943,1.943,0,0,1-.043,2.738l-.779.76.67.6a1.942,1.942,0,0,1,.006,2.892l-.7.628.14.2a1.941,1.941,0,0,1-.322,2.6l-.7.6-12.962,1.816a9.007,9.007,0,0,1-3.633-.234l-4.663-.116a1.013,1.013,0,0,1-.981-.886l-1.417-11.367A1.014,1.014,0,0,1,459.818,2597.312Z" transform="translate(-458.947 -2583.618)" fill="#ff862d"/>
      </g>
    </g>
    <path id="Trazado_63056" data-name="Trazado 63056" d="M211.688,2558.866l1.069-.3s3.736.587,4.066,1.521c.609,1.731-3.424,5.867-4.406,5.867s1.347-3.835,1.347-3.835-2.032,3.607-2.876,3.1.89-3.355.89-3.355-1.86,2.775-2.215,2.42.868-4.092.868-4.092Z" transform="translate(-5.931 -8.505)" fill="#f48c7f"/>
  </g>
</svg>
