<svg id="Grupo_29637" data-name="Grupo 29637" xmlns="http://www.w3.org/2000/svg" width="124.842" height="390.293" viewBox="0 0 124.842 390.293">
  <path id="Trazado_62371" data-name="Trazado 62371" d="M4101.229,2522.486s.35-7.581,2.383-11.647,18.3-1.271,18.3-1.271,3.749,6.782,3.24,12.882Z" transform="translate(-4028.231 -2132.193)" fill="#233862"/>
  <path id="Trazado_62372" data-name="Trazado 62372" d="M3963.8,2522.486s.35-7.581,2.383-11.647,18.3-1.271,18.3-1.271,3.749,6.782,3.241,12.882Z" transform="translate(-3934.456 -2132.193)" fill="#233862"/>
  <path id="Trazado_62373" data-name="Trazado 62373" d="M4048.879,1503.16c-2.031,1.472-20.422,11.071-20.422,11.071l-19.392-13.826s5.89-.858,6.046-.9c1.749-.488,1.669-5.181,1.89-10.179.035-.77.077-1.548.133-2.318l18.988-.69.016.236c.015.24.034.492.053.755l.038.542c.011.187.027.373.042.568.343,4.391,1.075,10.594,2.478,11.318C4039.547,1500.144,4044.952,1500.08,4048.879,1503.16Z" transform="translate(-3965.341 -1434.587)" fill="#d9935c"/>
  <path id="Trazado_62374" data-name="Trazado 62374" d="M4053.324,1488.415c-1.567,3.133-5.055,8.589-10.229,8.41-4.94-.175-7.754-4.666-9.042-7.5.035-.77.077-1.548.134-2.318l18.988-.69.016.236.053.755.038.542C4053.293,1488.033,4053.309,1488.22,4053.324,1488.415Z" transform="translate(-3982.392 -1434.587)" fill="#cb7d45"/>
  <path id="Trazado_62375" data-name="Trazado 62375" d="M4027.362,1346.606s9.159-9.12,19.965.185C4047.327,1346.792,4040.9,1345.458,4027.362,1346.606Z" transform="translate(-3977.826 -1336.525)" fill="#2b478b"/>
  <path id="Trazado_62376" data-name="Trazado 62376" d="M4005.8,1384.09a78.551,78.551,0,0,1-4.689-13c-1.279-4.992-.109-23.942,18.942-22.655a25.675,25.675,0,0,1,10.921,3.218c4.3,2.457,10.653,7.98,5.277,24.843l-1.3,5.658Z" transform="translate(-3959.665 -1340.46)" fill="#b64c41"/>
  <path id="Trazado_62377" data-name="Trazado 62377" d="M4040.7,1418.95c-4.918,4.7-11.027,10.968-24.2-.62-2.577-2.267-2.4-5.753-2.552-10.758-.181-5.925-1.607-9.554-.945-12.969.787-4.086,4.281-5.932,11.534-6.564,13.315-1.156,20.046,1.844,19.151,8.452C4041.693,1411.238,4045.7,1414.168,4040.7,1418.95Z" transform="translate(-3967.909 -1367.361)" fill="#d9935c"/>
  <path id="Trazado_62378" data-name="Trazado 62378" d="M4066.4,1385.228s7.894-.166,9.7,2.473,2.053,5.592,2.96,7.08a5.734,5.734,0,0,1,.759,3.157l1.751-11.782-10.683-2.124Z" transform="translate(-4004.466 -1364.792)" fill="#b64c41"/>
  <path id="Trazado_62379" data-name="Trazado 62379" d="M4015.879,1549.1s-3.371,9.934-17.037,11.753c-.37.049-.75.091-1.136.129h-55.658s-.1-.03-.3-.091c-2.161-.686-15.458-5.242-16.857-13.762,0,0,6.991-14.356,12.329-16.137a33.877,33.877,0,0,1,5.974-1.2c2.314-.3,4.75-.5,6.793-.625,2.814-.175,4.88-.221,4.88-.221a16.771,16.771,0,0,0,14.883,8.657c10.548-.126,12.992-8.528,12.992-8.528s2.962.084,6.9.511c2.169.232,4.631.568,7.06,1.052,4.114.819,8.12,2.055,10.411,3.915C4013.21,1539.509,4015.879,1549.1,4015.879,1549.1Z" transform="translate(-3907.904 -1463.678)" fill="#9ed9f0"/>
  <path id="Trazado_62380" data-name="Trazado 62380" d="M4008.963,1626.414c-.592-3.291-1.473-8.3-2.165-12.7,0-.059,2.063-24.87,2.825-29.058s-4.418-27.009-4.418-27.009c-1.2-3.492-3.249-4.559-4.815-4.559l2.634-21.969c-2.428-.484-4.891-.82-7.06-1.052l-1.262,23.021-.019.332c-2.886.16-6.485.354-9.835.5s-6.454.263-8.364.263c-3.884,0-12.8-.446-18.717-.77l-.023-.328-1.43-23.441c-2.043.13-4.479.328-6.793.625l2.516,22.816v0c-1.658,0-3.565,2.943-3.828,4.578l-.256,7.139c-1.253,3.593-3.849,11.576-4.28,17.18-.57,7.408,2.524,33.178,2.545,33.355-.113,3.072-.331,7-.75,10.8-2.326,6.3-12.245,35.606-11.234,75.009.941,36.783,1.5,99.634,5.833,130.151a83.338,83.338,0,0,0,2.428,12.054,4.068,4.068,0,0,0,3.339,2.825c4.97.689,16.173,1.959,20.995.206,2.311-.843,3.965-13.671,5.135-30.208,1.121-15.855,1.8-35.121,2.169-50.5,0,0,0,0,0-.008.3-12.26.415-22.046.415-25.667,0-8.2,1.937-32.243,2.577-46.387a.315.315,0,0,1,.629-.008v0c.973,16.793,4.365,42.258,4.419,47.915.125,13.724-.673,101.9,5.325,104.858,4.586,2.264,15.394.553,20.557-.146a4.757,4.757,0,0,0,3.929-3.394c6.45-22.185,7.021-99.274,8.109-141.7C4021.089,1662.294,4011.464,1633.261,4008.963,1626.414Z" transform="translate(-3914.228 -1464.153)" fill="#2b478b"/>
  <path id="Trazado_62381" data-name="Trazado 62381" d="M3915.589,1686.35c-1.906,1.525-8.131.888-10.544-1.143s-7.243-1.4-8.387-2.162c-.08-.053-22.557-26.689-24.992-37.9-2.459-11.311,13.1-42.437,17.5-50.923,3.26,6.885,14.116,10.6,16.053,11.215.194.061.3.092.3.092h.6c-3.663,9.9-14.615,27.734-18.835,34.45a5.829,5.829,0,0,0-.351,5.551c5.42,11.624,10.724,21.428,13.045,28.221.461.755,1.453,2.1,2.649,1.922,1.655-.255,6.992-1.4,9.661,2.539S3917.5,1684.826,3915.589,1686.35Z" transform="translate(-3871.404 -1508.224)" fill="#d9935c"/>
  <g id="Grupo_29636" data-name="Grupo 29636" transform="translate(36.175 0)">
    <path id="Trazado_62382" data-name="Trazado 62382" d="M4027.522,1333.808a28.062,28.062,0,0,0-4.088-4.219c-.416-.359-.863-.721-1.339-1.08-4.826-3.672-12.549-7.256-21.859-3.372a20.763,20.763,0,0,0-6.362,4.135c-.413.39-.8.791-1.172,1.206-8.073,8.956-7.389,23-7.389,23l46.582-.5C4032.046,1339.977,4027.522,1333.808,4027.522,1333.808Z" transform="translate(-3985.299 -1323.458)" fill="#ffa412"/>
    <path id="Trazado_62383" data-name="Trazado 62383" d="M4018.841,1364.888c-.131-1.959-1.022-18.031,4.625-23.527a9.253,9.253,0,0,0-.792-.66c-6.021,6.319-6.407,22.147-6.384,24.215l-14.891.159c-.441-11.409-6.738-22.768-7.494-24.036a10.239,10.239,0,0,0-.859.881c1.092,1.922,5.2,12.921,5.6,23.184l-13.3.142s12.406,3.207,21.75,3.091,24.831-3.589,24.831-3.589Z" transform="translate(-3985.33 -1335.223)" fill="#e27f2b"/>
  </g>
  <path id="Trazado_62384" data-name="Trazado 62384" d="M3949.094,1512.573c-4.765,9.149-18.3,10.865-18.3,10.865,4.384-10.674-4.449-14.041-9.912-24.97s4.193-18.173,4.193-18.173c-5.973,1.144-7.117,9.149-7.117,9.149-.507-5.337,3.941-14.356,18.047-16.137,10.327-1.3,12.82-4.784,13.415-6.557.232,2.3.79,4.1,2.333,5.455,1.091.961,2.135,1.8,3.13,2.524-.023.416-.042.831-.061,1.243-.062,1.406-.1,2.79-.165,4.06a6.875,6.875,0,0,0-1.479,6.012,6.66,6.66,0,0,0,.488,1.494,12.6,12.6,0,0,1,2.447,6.1C3956.772,1499.681,3952.666,1505.715,3949.094,1512.573Z" transform="translate(-3903.147 -1421.238)" fill="#b64c41"/>
  <path id="Trazado_62385" data-name="Trazado 62385" d="M4033.179,1806.431l-2.058-12.1a94.39,94.39,0,0,1-27.866,5.785,6.731,6.731,0,0,0-4.961-3.464l-7.392-1.069a6.737,6.737,0,0,0-6.946,3.578,73.271,73.271,0,0,1-13.41-3.263l0,.065-.736,10.628v.027c4.269,1.135,8.365,2.018,12.278,2.69l-.218,1.479a6.739,6.739,0,0,0,5.667,7.648l8.192,1.228a6.738,6.738,0,0,0,7.724-6.243l.143-2.28C4019.207,1811.056,4029.584,1807.772,4033.179,1806.431Z" transform="translate(-3938.551 -1644.768)" fill="#233862"/>
  <path id="Trazado_62386" data-name="Trazado 62386" d="M4167.833,1646.5c-2.436,11.208-24.913,37.843-24.992,37.9a2.449,2.449,0,0,1-.881.29c-.015,0-.027,0-.042.008-1.857.32-5.479.187-7.464,1.865-2.413,2.031-8.642,2.668-10.548,1.143s.637-4.193,3.305-8.135,8.005-2.794,9.656-2.539c.983.149,1.833-.736,2.356-1.475.012-.015.019-.027.031-.042.1-.145.191-.282.263-.4,2.272-6.645,7.392-16.16,12.683-27.447a7.352,7.352,0,0,0-.419-7.019c-3.534-5.645-10.708-17.376-15.326-26.788-.537-2.722-1.074-5.28-1.49-7.216,10.141-1.632,14.338-7.8,15.7-10.43C4155.45,1605.5,4170.234,1635.453,4167.833,1646.5Z" transform="translate(-4043.252 -1509.575)" fill="#d9935c"/>
</svg>
