<svg xmlns="http://www.w3.org/2000/svg" width="165.514" height="369.114" viewBox="0 0 165.514 369.114">
  <g id="P297LW" transform="translate(-4301.905 -1423.736)">
    <g id="Grupo_29646" data-name="Grupo 29646" transform="translate(4301.905 1423.736)">
      <path id="Trazado_62422" data-name="Trazado 62422" d="M4608.308,1713.029c-3.5.808-19.295,1-30.389-1.493a33.89,33.89,0,0,1-6.173-1.925,9.531,9.531,0,0,1-4.469-3.375c-1.254-2.089-3.548-9.24-6.245-18.616-7.428-25.83-17.883-68.512-17.883-68.512s20.992,4.285,25.434,7.942,8.366,61.675,12.545,63.243c.615.231,1.678.717,3.038,1.388.067.031.133.067.2.1.811.4,1.725.863,2.712,1.372,8.667,4.453,23.011,12.478,24.5,14.261C4613.534,1709.763,4613.4,1711.853,4608.308,1713.029Z" transform="translate(-4464.354 -1555.296)" fill="#739af0"/>
      <path id="Trazado_62423" data-name="Trazado 62423" d="M4464.418,1652.138a16.575,16.575,0,0,0-.278-2.968c-2.7-14.853-24.18-30.063-24.6-30.063l0,.31c0,2.27-3.58,6.46-9.091,6.82-6.539.428-14.609-3.3-14.609-7.069-.04,0-3.674.492-4.9.629-5.242.6-15.7,3.426-20.181,6.813-4.261,3.219,1.76,23.513,5.488,37.884,1.579,6.081,2.744,11.1,2.552,13.321-.094,1.086-1.071,15.838-1.941,29.181-.722,11.008-1.372,21.055-1.392,21.686-.047,1.25,6.17,5.629,16.609,8.938a81.475,81.475,0,0,0,8.28,2.148,88.034,88.034,0,0,0,18.013,1.788c2.156-.008,4.2-.118,6.127-.31C4459.4,1739.783,4464.5,1722.79,4464.418,1652.138Z" transform="translate(-4360.744 -1555.296)" fill="#739af0"/>
      <path id="Trazado_62424" data-name="Trazado 62424" d="M4470.5,1580.664a126.54,126.54,0,0,1,.748-18.477l23.027,3.763s.024,7.03-.077,14.828c.014,0,.626,7.232-8.283,8.291S4470.254,1586.246,4470.5,1580.664Z" transform="translate(-4415.4 -1516.967)" fill="#d9935c"/>
      <path id="Trazado_62425" data-name="Trazado 62425" d="M4526.084,2509.785c-2.9-1.782-1.194-14.988-1.194-14.988s13.561-10.766,15.389-2.477,12.8,12.048,19.049,13.085c4.314.716,5.906,2.948,6.315,4.363Z" transform="translate(-4451.726 -2141.192)" fill="#233862"/>
      <path id="Trazado_62426" data-name="Trazado 62426" d="M4429.606,1753.071c0,22.082-10.7,16.131-17.162,10.169.87-13.344,1.482-60.608,1.482-60.608S4429.606,1721.447,4429.606,1753.071Z" transform="translate(-4376.34 -1611.539)" fill="#4a75cb"/>
      <path id="Trazado_62427" data-name="Trazado 62427" d="M4623.947,1771.352c-.428,3.1-5.32,12.113-9.158,18.385a33.9,33.9,0,0,1-6.174-1.925,9.528,9.528,0,0,1-4.468-3.375c-1.254-2.089-3.548-9.24-6.246-18.616,2-11.541,3.893-22.937,3.893-22.937l.589-7.644c0,.588,8.949,34.172,13,34.956a14.383,14.383,0,0,0,5.649-.313c.066.031.133.066.2.1C4622.045,1770.38,4622.959,1770.843,4623.947,1771.352Z" transform="translate(-4501.224 -1633.498)" fill="#4a75cb"/>
      <path id="Trazado_62428" data-name="Trazado 62428" d="M4398.861,2509.785c-2.9-1.782-1.194-14.988-1.194-14.988s13.561-10.766,15.389-2.477,12.8,12.048,19.048,13.085c4.314.716,5.882,2.948,6.291,4.363Z" transform="translate(-4366.055 -2141.192)" fill="#233862"/>
      <path id="Trazado_62429" data-name="Trazado 62429" d="M4455.626,1486.1s-15.371-24.236,14.146-25.84c0,0,11.071,1.3,13.577-1.2,0,0,8.587,13.051.567,27.043S4455.626,1486.1,4455.626,1486.1Z" transform="translate(-4402.725 -1447.523)" fill="#233862"/>
      <path id="Trazado_62430" data-name="Trazado 62430" d="M4489.159,1520.66c-2.237,1.761-8.8,3.509-10.694,3.713,0,0-9.729-2.169-11.5-3.236-2.739-1.66-2.562-5.02-2.7-9.692-.168-5.53-.726-9.872-.108-13.06.733-3.814,3.151-5.983,9.92-6.572,12.427-1.078,17.6,2.033,17.82,6.2.056,1.119.108,2.186.145,3.2C4492.539,1514.2,4491.513,1518.808,4489.159,1520.66Z" transform="translate(-4410.972 -1469.433)" fill="#d9935c"/>
      <path id="Trazado_62431" data-name="Trazado 62431" d="M4492.356,1534.06c-.12,7.527-2.15,11.982-3.621,12.545a31.109,31.109,0,0,1-5.763,1.54c-.7.082-1.371.059-1.363-.338.023-1.187,1.609-2.651.431-3.7-1.237-1.1-7.874-1.474-8.408.932-.261,1.173,1.879,3.244.413,3.292-.445-.075-.882-.162-1.3-.271a19.377,19.377,0,0,1-5.113-2.255c-2.739-1.66-2.559-4.206-3.166-8.84-.393-3-.393-1.373,0,3.075.41,4.656-.393,7.644,2.7,9.692,1.721,1.14,11.64,5.6,11.64,5.6-.144-2.36,8.313-4.313,10.551-6.073C4491.438,1547.622,4492.48,1543.845,4492.356,1534.06Z" transform="translate(-4411.174 -1498.027)" fill="#233862"/>
      <path id="Trazado_62432" data-name="Trazado 62432" d="M4408,1790.661c-.047,1.25,6.17,5.629,16.609,8.938.841.268,1.712.525,2.607.775a.029.029,0,0,1,.021.026c.974,11.426,3.61,27.567,5.988,43.145v0c.616,4.038,1.211,8.036,1.76,11.905,1.45,10.239,2.536,19.569,2.653,26.284v.071c.052,3.081-2.547,10.769-2.744,12.544-.121,1.086-.219,2.234-.29,3.438a139.577,139.577,0,0,0,.22,16.563c1.705,26.484,8.7,60.37,11.2,61.813,4.963,2.869,14,0,18.586-.674a3.794,3.794,0,0,0,3.324-3.818c-2.243-43.952,4.2-105.165,9.013-142.794q.188-1.47.372-2.885c.577-4.437.957-8.582,1.2-12.317.22-3.277.326-6.253.373-8.832.012-.8.02-1.573.023-2.3.012-2.356-1.862-17.777-1.948-88.43h0a2.98,2.98,0,0,0-2.971-2.968h-43.206a7.488,7.488,0,0,0-7.482,7.592,120.353,120.353,0,0,1-1.3,20.1c-1.594,9.81-5.01,18.975-12.057,21.18a.026.026,0,0,0-.017.014c-.032.071-.225.5-.534,1.215a.043.043,0,0,0,0,.011q-.1,2.661-.223,5.42c-.016.369-.031.741-.051,1.113-.008.22-.019.435-.031.655-.015.373-.035.749-.055,1.125-.027.619-.059,1.243-.094,1.874-.028.494-.055.988-.082,1.486q-.077,1.434-.172,2.9c-.016.314-.036.624-.06.941-.082,1.263-.168,2.544-.266,3.834-.027.4-.059.791-.09,1.191-.011.192-.027.384-.043.577-.039.506-.078,1.011-.121,1.521q-.065.805-.138,1.623C4407.8,1787.5,4408.05,1789.269,4408,1790.661Z" transform="translate(-4373.285 -1617.275)" fill="#2b478b"/>
      <path id="Trazado_62433" data-name="Trazado 62433" d="M4490.306,2105.059c1.706,26.485,8.7,60.37,11.2,61.813,4.963,2.869,14,0,18.585-.675a3.793,3.793,0,0,0,3.324-3.818c-2.242-43.952,4.2-105.165,9.013-142.794q.188-1.47.372-2.885c.577-4.437.957-8.582,1.2-12.317-2.29-14.92-15.209-15.719-26.927,15.144C4508.519,2029.765,4489.918,2098.99,4490.306,2105.059Z" transform="translate(-4428.768 -1807.982)" fill="#233862"/>
      <path id="Trazado_62434" data-name="Trazado 62434" d="M4390.884,2025.416c-.355,3.062-3.938,10.342-4.369,12.076-5.924,23.822-2.651,80.308.286,82.567,4.543,3.5,13.876,1.834,18.513,1.772a3.79,3.79,0,0,0,3.8-3.346c3.643-45.006,18.735-106.821,28.441-143.184a170.654,170.654,0,0,0,5.58-31.785s-45.363-27.793-50.269-12.61C4388.521,1944.34,4393.62,2001.907,4390.884,2025.416Z" transform="translate(-4356.654 -1762.2)" fill="#2b478b"/>
      <g id="Grupo_29642" data-name="Grupo 29642" transform="translate(47.137)">
        <path id="Trazado_62435" data-name="Trazado 62435" d="M4479.52,1429.7q-.469-.528-1-1.024a17.633,17.633,0,0,0-5.4-3.513c-7.908-3.3-14.469-.254-18.568,2.865-.4.305-.784.613-1.137.917a23.859,23.859,0,0,0-3.473,3.584s-3.841,5.241-3.713,16.287l39.568.423S4486.377,1437.307,4479.52,1429.7Z" transform="translate(-4446.226 -1423.736)" fill="#ffa412"/>
        <g id="Grupo_29641" data-name="Grupo 29641" transform="translate(0.003 4.652)">
          <path id="Trazado_62436" data-name="Trazado 62436" d="M4472.154,1458.52l2.174.024c.045-.63-.062-14.991-5.418-20.566a7.853,7.853,0,0,0-.673.557C4473.324,1443.444,4472.165,1458.371,4472.154,1458.52Z" transform="translate(-4461.051 -1437.978)" fill="#e27f2b"/>
          <path id="Trazado_62437" data-name="Trazado 62437" d="M4474.533,1459.3a60.812,60.812,0,0,1,4.728-19.674,8.8,8.8,0,0,0-.73-.769c-.629,1.085-5.791,10.653-6.336,20.417l-25.959-.278s13.155,2.95,21.092,3.049,18.477-2.626,18.477-2.626Z" transform="translate(-4446.235 -1438.571)" fill="#e27f2b"/>
        </g>
      </g>
      <path id="Trazado_62438" data-name="Trazado 62438" d="M4441.656,1621.862s13.369,15.574,14.153,29.164l-6.811.362a65.487,65.487,0,0,0-11.777-28.594s1.574-.382,2.1-.485C4440.02,1622.169,4441.656,1621.862,4441.656,1621.862Z" transform="translate(-4393.025 -1557.151)" fill="#2b478b"/>
      <path id="Trazado_62439" data-name="Trazado 62439" d="M4552.852,1621.208a68.108,68.108,0,0,1,10.6,29.672l6.874-.119c-.564-10.682-7.275-22.432-10.98-28C4559.35,1622.762,4554.593,1621.561,4552.852,1621.208Z" transform="translate(-4470.889 -1556.711)" fill="#2b478b"/>
      <g id="Grupo_29643" data-name="Grupo 29643" transform="translate(0 206.735)">
        <path id="Trazado_62440" data-name="Trazado 62440" d="M4390.421,2063.923H4384.9c-2.566-1.165-16.389-7.152-29.677-7.225-9.587-.052-20.511,7.11-21.168,7.187-1.667.2,5.554.262,5.554.262s10.819-4.787,15.68-4.9c4.634-.108,14.921,3.26,19.031,4.677h-30.94a4.718,4.718,0,0,0-4.7,4.7v35.281a4.718,4.718,0,0,0,4.7,4.7h47.042a4.718,4.718,0,0,0,4.7-4.7v-35.281A4.718,4.718,0,0,0,4390.421,2063.923Z" transform="translate(-4323.387 -2056.697)" fill="#ffa412"/>
        <path id="Rectángulo_6067" data-name="Rectángulo 6067" d="M14.4,0H42.047a14.4,14.4,0,0,1,14.4,14.4V30.287a14.4,14.4,0,0,1-14.4,14.4H14.4A14.4,14.4,0,0,1,0,30.286V14.4A14.4,14.4,0,0,1,14.4,0Z" transform="translate(0 7.226)" fill="#e27f2b"/>
      </g>
      <path id="Trazado_62441" data-name="Trazado 62441" d="M4382.847,1707.386c.337,15.947-1.651,47.7-1.651,47.7h-9.407c-4.442-22.345-6.01-36.72-6.01-44.56q0-2.317.02-4.312c.059-6.7.239-10.584.239-10.584-1.764-40.569,6.339-62.263,8.883-65.25s14.191-5.672,14.191-5.672a160.076,160.076,0,0,1,5.414,20.224c1.568,9.016-12.333,46.9-11.761,59.848C4382.8,1705.591,4382.827,1706.461,4382.847,1707.386Z" transform="translate(-4344.917 -1559.069)" fill="#739af0"/>
      <g id="Grupo_29645" data-name="Grupo 29645" transform="translate(151.06 159.172)">
        <path id="Trazado_62442" data-name="Trazado 62442" d="M4773.385,1911.072h-7.609a1.382,1.382,0,0,0-1.373,1.378v207.189a1.379,1.379,0,0,0,1.373,1.375h7.609a1.376,1.376,0,0,0,1.372-1.375V1912.45A1.379,1.379,0,0,0,4773.385,1911.072Z" transform="translate(-4764.404 -1911.072)" fill="#f1a34f"/>
        <g id="Grupo_29644" data-name="Grupo 29644">
          <path id="Trazado_62443" data-name="Trazado 62443" d="M4773.385,1911.072h-7.609a1.382,1.382,0,0,0-1.373,1.378v6.42h10.353v-6.42A1.379,1.379,0,0,0,4773.385,1911.072Z" transform="translate(-4764.404 -1911.072)" fill="#2b478b"/>
          <path id="Trazado_62444" data-name="Trazado 62444" d="M4764.4,2538.223a1.379,1.379,0,0,0,1.373,1.375h7.609a1.376,1.376,0,0,0,1.372-1.375v-5.538H4764.4Z" transform="translate(-4764.404 -2329.656)" fill="#2b478b"/>
        </g>
        <path id="Trazado_62445" data-name="Trazado 62445" d="M4778.835,1952.641a.786.786,0,0,0-.784.784v182.37a.784.784,0,1,0,1.568,0v-182.37A.786.786,0,0,0,4778.835,1952.641Z" transform="translate(-4773.593 -1939.064)" fill="#e27f2b"/>
      </g>
      <path id="Trazado_62446" data-name="Trazado 62446" d="M4381.2,1921.875s1.988-31.757,1.651-47.7A33.337,33.337,0,0,0,4365.8,1873q-.018,1.993-.02,4.313c0,7.84,1.568,22.215,6.01,44.56-1.96,8.232-1.83,17.118,1.567,18.686s14.635-4.312,14.5-6.925S4381.2,1921.875,4381.2,1921.875Z" transform="translate(-4344.917 -1725.854)" fill="#d9935c"/>
      <path id="Trazado_62447" data-name="Trazado 62447" d="M4688.321,1864.423c-.917-3.363-1.6-5.227-3.913-6.86-3.364-2.374-7.358-1.731-10.334-1.209a11.428,11.428,0,0,1-5.657-.747c-5.271-3.513-18.5-10.757-25.093-14-4.5,2.607-10.02,7.766-12.619,17.833,10.142,4.473,32.337,4.395,36.563,3.418,0,0,3.912,2.844,6.889,3.1a10.346,10.346,0,0,0,3.876-.674,5.27,5.27,0,0,1,5.839,1.856c1.447,1.789,3.335,2.771,4.119,2.771C4689.2,1869.911,4688.9,1866.541,4688.321,1864.423Z" transform="translate(-4523.313 -1705.121)" fill="#d9935c"/>
    </g>
  </g>
</svg>
