<svg id="P297LW" xmlns="http://www.w3.org/2000/svg" width="153.42" height="380.173" viewBox="0 0 153.42 380.173">
  <path id="Trazado_62387" data-name="Trazado 62387" d="M2955.084,1456.808c-3.854,11.8-24.859,32.19-27.762,34.223,0,0-4.887-8.145-3.909-12.707.8-3.724,8.976-17,11.775-23.52.146-.339.276-.661.391-.961a5.867,5.867,0,0,0,.541-2.235c-.14-1.417-4.594-4.864-9.771-8.953-6.728-5.317-14.678-11.713-15.968-16.134-2.28-7.819-10.181-38.781-10.181-38.781s19.63,4.245,25.169,9.132,29.323,45.614,30.3,56.039A9.78,9.78,0,0,1,2955.084,1456.808Z" transform="translate(-2815.537 -1323.876)" fill="#ffa412"/>
  <path id="Trazado_62388" data-name="Trazado 62388" d="M3017.039,1632.968c-3.854,11.8-24.859,32.19-27.762,34.223,0,0-4.887-8.145-3.91-12.707.84-3.916,9.846-18.4,12.166-24.481C3001.022,1629.4,3009.216,1628.654,3017.039,1632.968Z" transform="translate(-2877.492 -1500.035)" fill="#d9935c"/>
  <path id="Trazado_62389" data-name="Trazado 62389" d="M2834.186,1340.495l-.013,2.4s.655,7.52-8.6,8.618-16.232-2.258-15.981-8.06c.834-4.493,1.707-8.253,1.769-11.97a26.164,26.164,0,0,0-.329-4.5l17.942-.358,5.285.864Z" transform="translate(-2749.519 -1279.351)" fill="#d9935c"/>
  <path id="Trazado_62390" data-name="Trazado 62390" d="M2838.137,1327.489l-.069,13.006a15.174,15.174,0,0,1-6.467,1.427c-8.246,0-13.576-6.047-16.362-10.435a26.188,26.188,0,0,0-.329-4.5l17.942-.358Z" transform="translate(-2753.401 -1279.351)" fill="#cb7d45"/>
  <path id="Trazado_62391" data-name="Trazado 62391" d="M2785.989,2517.157s-.871-6.785-2.888-10.818-14.851-1.467-14.851-1.467-2.567,2.2-3.117,12.467Z" transform="translate(-2717.137 -2137.167)" fill="#233862"/>
  <path id="Trazado_62392" data-name="Trazado 62392" d="M2998.254,2494.633c-3.016-1.841-1.3-15.573-1.3-15.573s14.052-11.242,15.985-2.635,13.35,12.472,19.849,13.526c4.487.728,5.875,3.212,6.306,4.682Z" transform="translate(-2885.674 -2114.665)" fill="#233862"/>
  <path id="Trazado_62393" data-name="Trazado 62393" d="M2840.381,1897.359a64.834,64.834,0,0,1,1.031,7.591c1.306,25.481,21.449,83.742,25.052,85.1,5.575,2.1,14.354-2.368,18.947-3.831a3.939,3.939,0,0,0,2.764-4.474c-9.975-45.858-13.641-111.891-14.975-150.987a177.379,177.379,0,0,0-4.054-33.294s-49.127-13.108-49.419,3.473C2819.468,1815.61,2836,1873.153,2840.381,1897.359Z" transform="translate(-2756.909 -1618.793)" fill="#2b478b"/>
  <path id="Trazado_62394" data-name="Trazado 62394" d="M2840.381,1897.359l32.819-66.6a177.379,177.379,0,0,0-4.054-33.294s-49.127-13.108-49.419,3.473C2819.468,1815.61,2836,1873.153,2840.381,1897.359Z" transform="translate(-2756.909 -1618.793)" fill="#233862"/>
  <path id="Trazado_62395" data-name="Trazado 62395" d="M2788.186,1807.6l-25.971,188.229s-11.405,2.75-20.275.55c0,0-7.6-100.109-6.97-124.311s-5.457-64.761,1.39-69.234S2788.186,1807.6,2788.186,1807.6Z" transform="translate(-2693.782 -1625.4)" fill="#2b478b"/>
  <path id="Trazado_62396" data-name="Trazado 62396" d="M2805.24,1506.426s-13.27,7.738-32.493,7.519a144.079,144.079,0,0,1-19.546-1.469c-15.417-2.287-23.2-6.591-23.135-8.194.052-1.447.153-6.253.335-8.318,2.45-28.254,1.183-50.23,4.48-66.739.039-.2.078-.4.121-.593,4.362-20.989,11.2-33.047,14.6-37.993a18.77,18.77,0,0,1,2.059-2.658c0,3.916,8.341,7.3,15.141,6.855,5.728-.375,9.445-4.731,9.445-7.09l.007-.006c.469,0,25.836,17.633,25.859,34.018C2802.2,1495.189,2806.647,1506.452,2805.24,1506.426Z" transform="translate(-2691.589 -1323.876)" fill="#ffa412"/>
  <path id="Trazado_62397" data-name="Trazado 62397" d="M2753.238,1623.574c-.013.081-.023.163-.036.241-15.417-2.287-23.2-6.591-23.135-8.194.052-1.447.153-6.252.335-8.318,2.45-28.254,1.183-50.23,4.48-66.739C2742.974,1551.381,2759.61,1579.71,2753.238,1623.574Z" transform="translate(-2691.589 -1435.214)" fill="#e27f2b"/>
  <g id="Grupo_29638" data-name="Grupo 29638" transform="translate(8.599 126.111)">
    <path id="Trazado_62398" data-name="Trazado 62398" d="M2715.283,1644.172l-2.072,6.894-2.059,6.842-89.435-26.9a1.064,1.064,0,0,1-.368-.043,1.163,1.163,0,0,1-.345-.169c-1.127-.8-1.333-3.72-.466-7.014.046-.182.1-.365.153-.551,1.046-3.542,2.949-6.161,4.408-6.184a1.134,1.134,0,0,1,.349.046,1.179,1.179,0,0,1,.329.16Z" transform="translate(-2620.002 -1617.046)" fill="#e9f3fe"/>
    <path id="Trazado_62399" data-name="Trazado 62399" d="M2713.211,1669.141l-2.059,6.842-89.435-26.9a1.067,1.067,0,0,1-.368-.043,1.169,1.169,0,0,1-.345-.169c-1.127-.8-1.333-3.721-.466-7.014,3.656,2.743,21.115,14.88,50.917,20.783C2702.26,1668.74,2711.794,1669.122,2713.211,1669.141Z" transform="translate(-2620.002 -1635.12)" fill="#bed4f4"/>
    <path id="Trazado_62400" data-name="Trazado 62400" d="M2957.018,1716.7c-1.5-.442-3.626,2.306-4.757,6.138s-.837,7.3.659,7.738,3.626-2.307,4.758-6.138S2958.514,1717.146,2957.018,1716.7Z" transform="translate(-2861.565 -1689.617)" fill="#afcdfb"/>
  </g>
  <g id="Grupo_29639" data-name="Grupo 29639" transform="translate(0 121.953)">
    <path id="Trazado_62401" data-name="Trazado 62401" d="M2603.346,1603.563l-10.543-1.71a1.236,1.236,0,0,0-.349-.114,1.153,1.153,0,0,0-.349,0c-1.446.215-2.988,3.059-3.561,6.709-.033.192-.059.378-.082.567a14.583,14.583,0,0,0,.039,4.307,3.644,3.644,0,0,0,1.307,2.561c.013.01.026.016.036.023a1.151,1.151,0,0,0,.365.124,1.112,1.112,0,0,0,.371-.006l92.188,14.958,1.144-7.051,1.15-7.105Z" transform="translate(-2588.324 -1601.726)" fill="#e9f3fe"/>
    <path id="Trazado_62402" data-name="Trazado 62402" d="M2641.665,1622.949c-19.718-1.267-30.17-11.693-38.319-19.386l-10.543-1.71a1.236,1.236,0,0,0-.349-.114,1.153,1.153,0,0,0-.349,0c-1.446.215-2.988,3.059-3.561,6.709-.033.192-.059.378-.082.567a14.583,14.583,0,0,0,.039,4.307,6.857,6.857,0,0,0,1.307,2.561c.013.01.026.016.036.023a1.151,1.151,0,0,0,.365.124,1.112,1.112,0,0,0,.371-.006l92.188,14.958,1.144-7.051C2682.505,1624.1,2673,1624.966,2641.665,1622.949Z" transform="translate(-2588.324 -1601.726)" fill="#bed4f4"/>
    <path id="Trazado_62403" data-name="Trazado 62403" d="M2934.218,1657.075c-1.541-.242-3.292,2.761-3.912,6.708s.125,7.343,1.666,7.585,3.292-2.761,3.913-6.708S2935.758,1657.318,2934.218,1657.075Z" transform="translate(-2837.313 -1642.04)" fill="#afcdfb"/>
  </g>
  <path id="Trazado_62404" data-name="Trazado 62404" d="M2696.8,1488.639c-21.383-3.4-35.516-12.361-41.319-16.694-1.981-1.479-2.991-2.421-2.991-2.421-10.957-23.035,8.865-63.422,12.489-70.268,3.909-7.383,27.781-10.628,27.781-10.628a129.949,129.949,0,0,0-5.3,25.833c-1.489,14.619-17.375,43.114-16.723,45.506.163.6,2.082,1.867,4.881,3.463,8.3,4.725,24.335,12.342,25.309,14.131C2702.23,1479.95,2696.8,1488.639,2696.8,1488.639Z" transform="translate(-2632.694 -1324.523)" fill="#d9935c"/>
  <path id="Trazado_62405" data-name="Trazado 62405" d="M2828.611,1707.4s11.946-4.778,14.879-2.824,7.82,4.887,7.82,6.842-6.19,7.168-11.4,8.8-15.421-1.738-15.421-1.738Z" transform="translate(-2760.376 -1554.36)" fill="#d9935c"/>
  <path id="Trazado_62406" data-name="Trazado 62406" d="M2687.461,1414.462c-1.489,14.619-17.375,43.114-16.723,45.506.163.6,2.082,1.867,4.881,3.463a4.9,4.9,0,0,1-.537.01c-12.5-.551-18.155,6.363-19.6,8.5-1.981-1.479-2.991-2.421-2.991-2.421-10.957-23.035,8.865-63.422,12.489-70.268,3.909-7.383,27.781-10.628,27.781-10.628A129.949,129.949,0,0,0,2687.461,1414.462Z" transform="translate(-2632.694 -1324.523)" fill="#ffa412"/>
  <path id="Trazado_62407" data-name="Trazado 62407" d="M2827.627,1251.292s-22.979,4.642-25.65-9.713-7.435-23.424,7.124-26.995,18.437,1.375,20.494,5.95S2833.536,1249.715,2827.627,1251.292Z" transform="translate(-2741.844 -1196.835)" fill="#d9935c"/>
  <path id="Trazado_62408" data-name="Trazado 62408" d="M2785.409,1229.779s-4.443-9.481-8.147-13.692-1.684-25.261,14.314-24.587,21.725,12.125,21.893,14.315-12.8.5-16.335,3.368-.169,7.579-4.21,9.262-7.242,1.684-6.568,5.389A8.126,8.126,0,0,1,2785.409,1229.779Z" transform="translate(-2724.817 -1180.895)" fill="#233862"/>
  <path id="Trazado_62409" data-name="Trazado 62409" d="M2782.04,1153.306a25.3,25.3,0,0,0-10.576,5.2c-.254.218-.5.443-.74.671l0,0c-9.488,9.048-5.7,23.449-5.7,23.449a37.93,37.93,0,0,0,2.132,5.05c.869,1.412,13.467-.217,14.119-2.932a15.883,15.883,0,0,1,3.149-5.539s13.28-.913,14.173-.977c3-.218,11.562-3.2,11.562-3.2C2810.056,1174.193,2805.238,1147.48,2782.04,1153.306Z" transform="translate(-2716.511 -1152.476)" fill="#ffa412"/>
  <path id="Trazado_62410" data-name="Trazado 62410" d="M2834.818,1188.317a45.117,45.117,0,0,0-8.786-.987s-3.759,3.114-11.23,5.486c-3.511-4.425-13.515-15.087-26.541-18.206l-.114-.029c-.277.349-.434.466-.625.7l0,0a2.719,2.719,0,0,0-.189.251c10.6,1.848,20.683,13.757,24.142,18.215a59.1,59.1,0,0,1-10.255,1.561s23.209.433,33.817-5.153A.992.992,0,0,0,2834.818,1188.317Z" transform="translate(-2733.308 -1168.58)" fill="#e27f2b"/>
  <path id="Trazado_62411" data-name="Trazado 62411" d="M3008.822,1553.978a6.632,6.632,0,0,1-5.493,5.8c.146-.339.277-.661.391-.961a5.87,5.87,0,0,0,.541-2.235c-.14-1.417-4.594-4.864-9.771-8.953-.427-2.32-1.469-9.2,0-14.668C2996.278,1526.285,3009.31,1551.209,3008.822,1553.978Z" transform="translate(-2883.679 -1428.852)" fill="#e27f2b"/>
  <path id="Trazado_62412" data-name="Trazado 62412" d="M2680.432,1657.958s-15.965-1.3-21.178,7.982a2.594,2.594,0,0,0,3.535,2.177s13.5-9.23,20.135-8.514A3.6,3.6,0,0,0,2680.432,1657.958Z" transform="translate(-2640 -1520.695)" fill="#e27f2b"/>
  <path id="Trazado_62413" data-name="Trazado 62413" d="M3029.09,1629.34a57.91,57.91,0,0,1,18.709,4.888s2.314-2.274,1.391-3.577S3033.588,1624.663,3029.09,1629.34Z" transform="translate(-2909.44 -1498.411)" fill="#e27f2b"/>
</svg>
