<svg xmlns="http://www.w3.org/2000/svg" width="105.078" height="72.412" viewBox="0 0 105.078 72.412">
  <path id="Trazado_65487" data-name="Trazado 65487" d="M28.369,1.221q-25,0-25-35.107,0-18.213,6.763-27.759t19.6-9.546q24.414,0,24.414,35.693,0,17.773-6.665,27.246T28.369,1.221Zm.684-60.645q-10.01,0-10.01,25.146,0,23.682,9.814,23.682,9.57,0,9.57-24.414T29.053-59.424Zm35.4,57.617V-14.99A28.783,28.783,0,0,0,79.736-10.6q6.1,0,9.546-2.905a9.779,9.779,0,0,0,3.442-7.886q0-10.4-14.7-10.4a108.832,108.832,0,0,0-12.5.83L68.164-70.02h37.061v12.6H79.932l-.977,14.014q3.76-.293,6.494-.293,10.791,0,16.895,5.664t6.1,15.234q0,10.6-7.275,17.31T81.445,1.221Q71.338,1.221,64.453-1.807Z" transform="translate(-3.369 71.191)" fill="#4d1c0d"/>
</svg>
