<svg xmlns="http://www.w3.org/2000/svg" width="104.492" height="72.412" viewBox="0 0 104.492 72.412">
  <path id="Trazado_65483" data-name="Trazado 65483" d="M28.369,1.221q-25,0-25-35.107,0-18.213,6.763-27.759t19.6-9.546q24.414,0,24.414,35.693,0,17.773-6.665,27.246T28.369,1.221Zm.684-60.645q-10.01,0-10.01,25.146,0,23.682,9.814,23.682,9.57,0,9.57-24.414T29.053-59.424ZM63.232-2.295V-15.723A27.1,27.1,0,0,0,79.639-10.6q5.908,0,9.2-2.539a8.43,8.43,0,0,0,3.3-7.08,8.048,8.048,0,0,0-4.077-7.227Q83.984-29.98,76.855-29.98H70.361V-41.8h6.006q13.672,0,13.672-9.082,0-8.545-10.5-8.545a23.934,23.934,0,0,0-13.672,4.541v-12.6a37.76,37.76,0,0,1,17.188-3.711q10.742,0,16.724,4.834a15.384,15.384,0,0,1,5.981,12.549q0,13.721-13.916,17.188v.244q7.422.928,11.719,5.4a15.213,15.213,0,0,1,4.3,10.962q0,9.814-7.178,15.527T80.859,1.221Q70.02,1.221,63.232-2.295Z" transform="translate(-3.369 71.191)" fill="#4d1c0d"/>
</svg>
