<svg xmlns="http://www.w3.org/2000/svg" width="10" height="222" viewBox="0 0 10 222">
  <g id="Trazado_65491" data-name="Trazado 65491" transform="translate(10) rotate(90)" fill="#b7cfdf">
    <path d="M5,0H217a5,5,0,0,1,0,10H5A5,5,0,0,1,5,0Z" stroke="none"/>
    <path d="M 5 1 C 2.794387817382813 1 1 2.794388771057129 1 5 C 1 7.205611228942871 2.794387817382813 9 5 9 L 217 9 C 219.2056121826172 9 221 7.205611228942871 221 5 C 221 2.794388771057129 219.2056121826172 1 217 1 L 5 1 M 5 0 L 217 0 C 219.7614135742188 0 222 2.238583564758301 222 5 C 222 7.761416435241699 219.7614135742188 10 217 10 L 5 10 C 2.238555908203125 10 0 7.761416435241699 0 5 C 0 2.238583564758301 2.238555908203125 0 5 0 Z" stroke="none" fill="rgba(236,220,220,0)"/>
  </g>
</svg>
