<svg xmlns="http://www.w3.org/2000/svg" width="94.775" height="72.803" viewBox="0 0 94.775 72.803">
  <path id="Trazado_65478" data-name="Trazado 65478" d="M28.369,1.221q-25,0-25-35.107,0-18.213,6.763-27.759t19.6-9.546q24.414,0,24.414,35.693,0,17.773-6.665,27.246T28.369,1.221Zm.684-60.645q-10.01,0-10.01,25.146,0,23.682,9.814,23.682,9.57,0,9.57-24.414T29.053-59.424ZM98.145-71.582V0H82.764V-54.2a18.419,18.419,0,0,1-3,2.124,31,31,0,0,1-3.687,1.807A32.917,32.917,0,0,1,72.021-48.9a29.6,29.6,0,0,1-4.15.806V-61.084A64.16,64.16,0,0,0,79.2-65.576a64.467,64.467,0,0,0,9.619-6.006Z" transform="translate(-3.369 71.582)" fill="#4d1c0d"/>
</svg>
