<svg xmlns="http://www.w3.org/2000/svg" width="10" height="168" viewBox="0 0 10 168">
  <g id="Trazado_65490" data-name="Trazado 65490" transform="translate(10) rotate(90)" fill="#b7cfdf">
    <path d="M5,0H163a5,5,0,0,1,0,10H5A5,5,0,0,1,5,0Z" stroke="none"/>
    <path d="M 5 1 C 2.794387817382813 1 1 2.79439115524292 1 5 C 1 7.205608367919922 2.794387817382813 9 5 9 L 163 9 C 165.2056121826172 9 167 7.205608367919922 167 5 C 167 2.79439115524292 165.2056121826172 1 163 1 L 5 1 M 5 0 L 163 0 C 165.7614288330078 0 168 2.238565444946289 168 5 C 168 7.761434555053711 165.7614288330078 10 163 10 L 5 10 C 2.238571166992188 10 0 7.761434555053711 0 5 C 0 2.238565444946289 2.238571166992188 0 5 0 Z" stroke="none" fill="rgba(236,220,220,0)"/>
  </g>
</svg>
