<svg xmlns="http://www.w3.org/2000/svg" width="844" height="10" viewBox="0 0 844 10">
  <g id="Trazado_65477" data-name="Trazado 65477" fill="#b7cfdf">
    <path d="M5,0H839a5,5,0,0,1,0,10H5A5,5,0,0,1,5,0Z" stroke="none"/>
    <path d="M 5 1 C 2.79443359375 1 1 2.794444561004639 1 5 C 1 7.205555438995361 2.79443359375 9 5 9 L 839 9 C 841.20556640625 9 843 7.205555438995361 843 5 C 843 2.794444561004639 841.20556640625 1 839 1 L 5 1 M 5 0 L 839 0 C 841.761474609375 0 844 2.238555431365967 844 5 C 844 7.761444091796875 841.761474609375 10 839 10 L 5 10 C 2.238525390625 10 0 7.761444091796875 0 5 C 0 2.238555431365967 2.238525390625 0 5 0 Z" stroke="none" fill="rgba(236,220,220,0)"/>
  </g>
</svg>
