<svg xmlns="http://www.w3.org/2000/svg" width="244.257" height="113.561" viewBox="0 0 244.257 113.561">
  <path id="Trazado_65476" data-name="Trazado 65476" d="M14.749,19H8.069V6.4h6.4V7.732H9.546v4.192H14.1v1.327H9.546v4.412h5.2Zm1.688-.325V17.128a4.266,4.266,0,0,0,2.593.87q1.9,0,1.9-1.266a1.1,1.1,0,0,0-.163-.611,1.62,1.62,0,0,0-.439-.444,3.383,3.383,0,0,0-.65-.347q-.374-.154-.8-.321a10.357,10.357,0,0,1-1.05-.479,3.173,3.173,0,0,1-.756-.545,2.028,2.028,0,0,1-.457-.69,2.441,2.441,0,0,1-.154-.905,2.15,2.15,0,0,1,.29-1.121,2.572,2.572,0,0,1,.773-.817,3.607,3.607,0,0,1,1.1-.5A4.893,4.893,0,0,1,19.9,9.789a5.164,5.164,0,0,1,2.092.4v1.459A4.077,4.077,0,0,0,19.706,11a2.671,2.671,0,0,0-.729.092,1.786,1.786,0,0,0-.558.259,1.2,1.2,0,0,0-.36.4,1.053,1.053,0,0,0-.127.514,1.233,1.233,0,0,0,.127.589,1.3,1.3,0,0,0,.374.422,2.855,2.855,0,0,0,.6.334q.352.149.8.325a11.131,11.131,0,0,1,1.072.47,3.678,3.678,0,0,1,.809.545,2.129,2.129,0,0,1,.514.7,2.254,2.254,0,0,1,.18.94,2.217,2.217,0,0,1-.294,1.16,2.523,2.523,0,0,1-.787.817,3.6,3.6,0,0,1-1.134.483,5.6,5.6,0,0,1-1.345.158A5.106,5.106,0,0,1,16.437,18.675Zm12.357.237a2.779,2.779,0,0,1-1.345.281q-2.364,0-2.364-2.637V11.23H23.538V10h1.547V7.8l1.441-.466V10h2.268v1.23H26.526V16.3a2.1,2.1,0,0,0,.308,1.292,1.228,1.228,0,0,0,1.02.387,1.515,1.515,0,0,0,.94-.3ZM37.161,19H35.72V17.594h-.035a3.018,3.018,0,0,1-2.769,1.617,2.959,2.959,0,0,1-2.1-.712,2.466,2.466,0,0,1-.76-1.89q0-2.522,2.971-2.936l2.7-.378Q35.72,11,33.865,11a4.431,4.431,0,0,0-2.936,1.107V10.633a5.577,5.577,0,0,1,3.059-.844q3.173,0,3.173,3.357ZM35.72,14.447l-2.171.3a3.525,3.525,0,0,0-1.512.5,1.432,1.432,0,0,0-.51,1.261A1.374,1.374,0,0,0,32,17.581,1.817,1.817,0,0,0,33.25,18a2.314,2.314,0,0,0,1.771-.751,2.685,2.685,0,0,0,.7-1.9ZM41.354,17.7h-.035V19H39.877V5.676h1.441v5.906h.035a3.408,3.408,0,0,1,3.111-1.793A3.3,3.3,0,0,1,47.176,11a4.99,4.99,0,0,1,.98,3.239,5.578,5.578,0,0,1-1.1,3.617,3.658,3.658,0,0,1-3.006,1.358A2.96,2.96,0,0,1,41.354,17.7Zm-.035-3.63v1.257a2.676,2.676,0,0,0,.725,1.894A2.587,2.587,0,0,0,45.937,17a4.6,4.6,0,0,0,.743-2.786,3.629,3.629,0,0,0-.694-2.355A2.3,2.3,0,0,0,44.1,11a2.554,2.554,0,0,0-2.021.875A3.211,3.211,0,0,0,41.318,14.069ZM51.9,19H50.459V5.676H51.9Zm10.151-4.14H55.7a3.366,3.366,0,0,0,.809,2.32A2.788,2.788,0,0,0,58.633,18a4.422,4.422,0,0,0,2.795-1V18.35a5.224,5.224,0,0,1-3.138.861,3.8,3.8,0,0,1-3-1.226,5.018,5.018,0,0,1-1.09-3.45,4.921,4.921,0,0,1,1.191-3.423,3.819,3.819,0,0,1,2.958-1.323,3.384,3.384,0,0,1,2.733,1.143,4.764,4.764,0,0,1,.967,3.173Zm-1.477-1.222a2.933,2.933,0,0,0-.6-1.942A2.051,2.051,0,0,0,58.325,11a2.328,2.328,0,0,0-1.731.729,3.31,3.31,0,0,0-.879,1.907Zm9.791,4.948a4.684,4.684,0,0,1-2.461.624A4.074,4.074,0,0,1,64.8,17.958a4.539,4.539,0,0,1-1.182-3.248,4.99,4.99,0,0,1,1.274-3.573,4.458,4.458,0,0,1,3.4-1.349,4.735,4.735,0,0,1,2.092.439v1.477a3.665,3.665,0,0,0-2.145-.7,2.9,2.9,0,0,0-2.263.989,3.752,3.752,0,0,0-.883,2.6,3.573,3.573,0,0,0,.831,2.5A2.863,2.863,0,0,0,68.151,18a3.613,3.613,0,0,0,2.215-.782Zm9.413-3.727H73.425a3.366,3.366,0,0,0,.809,2.32A2.788,2.788,0,0,0,76.36,18a4.422,4.422,0,0,0,2.795-1V18.35a5.224,5.224,0,0,1-3.138.861,3.8,3.8,0,0,1-3-1.226,5.018,5.018,0,0,1-1.09-3.45,4.921,4.921,0,0,1,1.191-3.423,3.819,3.819,0,0,1,2.958-1.323,3.384,3.384,0,0,1,2.733,1.143,4.764,4.764,0,0,1,.967,3.173ZM78.3,13.639a2.933,2.933,0,0,0-.6-1.942A2.051,2.051,0,0,0,76.053,11a2.328,2.328,0,0,0-1.731.729,3.31,3.31,0,0,0-.879,1.907Zm8.35-2.18a1.763,1.763,0,0,0-1.09-.29,1.839,1.839,0,0,0-1.542.87,4.023,4.023,0,0,0-.62,2.373V19H81.959V10H83.4v1.854h.035a3.143,3.143,0,0,1,.94-1.481,2.144,2.144,0,0,1,1.415-.532,2.353,2.353,0,0,1,.861.123Zm13.729,3.4H94.026a3.366,3.366,0,0,0,.809,2.32A2.788,2.788,0,0,0,96.962,18a4.422,4.422,0,0,0,2.795-1V18.35a5.224,5.224,0,0,1-3.138.861,3.8,3.8,0,0,1-3-1.226,5.018,5.018,0,0,1-1.09-3.45,4.921,4.921,0,0,1,1.191-3.423,3.819,3.819,0,0,1,2.958-1.323,3.384,3.384,0,0,1,2.733,1.143,4.764,4.764,0,0,1,.967,3.173ZM98.9,13.639a2.933,2.933,0,0,0-.6-1.942A2.051,2.051,0,0,0,96.654,11a2.328,2.328,0,0,0-1.731.729,3.31,3.31,0,0,0-.879,1.907ZM104,19h-1.441V5.676H104Zm13.983-.413a4.684,4.684,0,0,1-2.461.624,4.074,4.074,0,0,1-3.107-1.252,4.539,4.539,0,0,1-1.182-3.248,4.99,4.99,0,0,1,1.274-3.573,4.458,4.458,0,0,1,3.4-1.349,4.735,4.735,0,0,1,2.092.439v1.477a3.665,3.665,0,0,0-2.145-.7,2.9,2.9,0,0,0-2.263.989,3.752,3.752,0,0,0-.883,2.6,3.573,3.573,0,0,0,.831,2.5,2.863,2.863,0,0,0,2.228.914,3.613,3.613,0,0,0,2.215-.782Zm5.941.624a4.175,4.175,0,0,1-3.186-1.261,4.672,4.672,0,0,1-1.191-3.344,4.867,4.867,0,0,1,1.239-3.542,4.455,4.455,0,0,1,3.349-1.274,4.037,4.037,0,0,1,3.142,1.239,4.914,4.914,0,0,1,1.129,3.437,4.835,4.835,0,0,1-1.217,3.45A4.265,4.265,0,0,1,123.927,19.211ZM124.032,11a2.742,2.742,0,0,0-2.2.945,3.88,3.88,0,0,0-.809,2.606,3.67,3.67,0,0,0,.817,2.522,2.778,2.778,0,0,0,2.188.923,2.635,2.635,0,0,0,2.149-.905,3.928,3.928,0,0,0,.751-2.575,4,4,0,0,0-.751-2.6A2.623,2.623,0,0,0,124.032,11Zm19.459,8H142.05V13.832a3.9,3.9,0,0,0-.461-2.162A1.75,1.75,0,0,0,140.037,11a1.921,1.921,0,0,0-1.569.844,3.228,3.228,0,0,0-.646,2.021V19h-1.441V13.656q0-2.654-2.048-2.654a1.9,1.9,0,0,0-1.564.8,3.288,3.288,0,0,0-.615,2.07V19h-1.441V10h1.441v1.424h.035a3.058,3.058,0,0,1,2.795-1.635,2.6,2.6,0,0,1,2.549,1.863,3.212,3.212,0,0,1,2.988-1.863q2.971,0,2.971,3.665Zm4.2-1.3h-.035v5.44h-1.441V10h1.441v1.582h.035A3.408,3.408,0,0,1,150.8,9.789,3.3,3.3,0,0,1,153.52,11a5.005,5.005,0,0,1,.976,3.239,5.578,5.578,0,0,1-1.1,3.617,3.658,3.658,0,0,1-3.006,1.358A3.011,3.011,0,0,1,147.692,17.7Zm-.035-3.63v1.257a2.676,2.676,0,0,0,.725,1.894A2.587,2.587,0,0,0,152.276,17a4.6,4.6,0,0,0,.743-2.786,3.629,3.629,0,0,0-.694-2.355A2.3,2.3,0,0,0,150.443,11a2.554,2.554,0,0,0-2.021.875A3.211,3.211,0,0,0,147.657,14.069Zm13.834-2.61a1.763,1.763,0,0,0-1.09-.29,1.839,1.839,0,0,0-1.542.87,4.023,4.023,0,0,0-.62,2.373V19H156.8V10h1.441v1.854h.035a3.143,3.143,0,0,1,.94-1.481,2.144,2.144,0,0,1,1.415-.532,2.353,2.353,0,0,1,.861.123Zm5.326,7.752a4.175,4.175,0,0,1-3.186-1.261,4.672,4.672,0,0,1-1.191-3.344,4.867,4.867,0,0,1,1.239-3.542,4.455,4.455,0,0,1,3.349-1.274,4.037,4.037,0,0,1,3.142,1.239,4.914,4.914,0,0,1,1.129,3.437,4.835,4.835,0,0,1-1.217,3.45A4.265,4.265,0,0,1,166.817,19.211ZM166.923,11a2.742,2.742,0,0,0-2.2.945,3.88,3.88,0,0,0-.809,2.606,3.67,3.67,0,0,0,.817,2.522,2.778,2.778,0,0,0,2.188.923,2.635,2.635,0,0,0,2.149-.905,3.928,3.928,0,0,0,.751-2.575,4,4,0,0,0-.751-2.6A2.623,2.623,0,0,0,166.923,11Zm19.459,8H184.94V13.832a3.9,3.9,0,0,0-.461-2.162A1.75,1.75,0,0,0,182.928,11a1.921,1.921,0,0,0-1.569.844,3.228,3.228,0,0,0-.646,2.021V19h-1.441V13.656q0-2.654-2.048-2.654a1.9,1.9,0,0,0-1.564.8,3.288,3.288,0,0,0-.615,2.07V19H173.6V10h1.441v1.424h.035a3.058,3.058,0,0,1,2.795-1.635,2.6,2.6,0,0,1,2.549,1.863,3.212,3.212,0,0,1,2.988-1.863q2.971,0,2.971,3.665Zm3.463-11.285a.913.913,0,0,1-.659-.264.89.89,0,0,1-.272-.668.923.923,0,0,1,.932-.94.931.931,0,0,1,.672.268.939.939,0,0,1,0,1.332A.923.923,0,0,1,189.845,7.715Zm.7,11.285h-1.441V10h1.441Zm2.373-.325V17.128a4.266,4.266,0,0,0,2.593.87q1.9,0,1.9-1.266a1.1,1.1,0,0,0-.163-.611,1.62,1.62,0,0,0-.439-.444,3.383,3.383,0,0,0-.65-.347q-.374-.154-.8-.321a10.357,10.357,0,0,1-1.05-.479,3.173,3.173,0,0,1-.756-.545,2.028,2.028,0,0,1-.457-.69,2.441,2.441,0,0,1-.154-.905,2.15,2.15,0,0,1,.29-1.121,2.572,2.572,0,0,1,.773-.817,3.607,3.607,0,0,1,1.1-.5,4.893,4.893,0,0,1,1.279-.167,5.164,5.164,0,0,1,2.092.4v1.459A4.077,4.077,0,0,0,196.19,11a2.671,2.671,0,0,0-.729.092,1.786,1.786,0,0,0-.558.259,1.2,1.2,0,0,0-.36.4,1.053,1.053,0,0,0-.127.514,1.233,1.233,0,0,0,.127.589,1.3,1.3,0,0,0,.374.422,2.855,2.855,0,0,0,.6.334q.352.149.8.325a11.131,11.131,0,0,1,1.072.47,3.678,3.678,0,0,1,.809.545,2.129,2.129,0,0,1,.514.7,2.254,2.254,0,0,1,.18.94,2.217,2.217,0,0,1-.294,1.16,2.523,2.523,0,0,1-.787.817,3.6,3.6,0,0,1-1.134.483,5.6,5.6,0,0,1-1.345.158A5.106,5.106,0,0,1,192.921,18.675Zm11.944.536a4.175,4.175,0,0,1-3.186-1.261,4.672,4.672,0,0,1-1.191-3.344,4.867,4.867,0,0,1,1.239-3.542,4.455,4.455,0,0,1,3.349-1.274,4.037,4.037,0,0,1,3.142,1.239,4.914,4.914,0,0,1,1.129,3.437,4.835,4.835,0,0,1-1.217,3.45A4.265,4.265,0,0,1,204.865,19.211ZM204.971,11a2.742,2.742,0,0,0-2.2.945,3.88,3.88,0,0,0-.809,2.606,3.67,3.67,0,0,0,.817,2.522,2.778,2.778,0,0,0,2.188.923,2.635,2.635,0,0,0,2.149-.905,3.928,3.928,0,0,0,.751-2.575,4,4,0,0,0-.751-2.6A2.623,2.623,0,0,0,204.971,11Zm19.292,8h-1.441V17.471h-.035a3.327,3.327,0,0,1-3.094,1.74A3.362,3.362,0,0,1,216.981,18a4.958,4.958,0,0,1-1.015-3.292,5.394,5.394,0,0,1,1.125-3.577,3.71,3.71,0,0,1,3-1.345,2.885,2.885,0,0,1,2.7,1.459h.035V5.676h1.441Zm-1.441-4.069V13.6a2.575,2.575,0,0,0-.721-1.846A2.417,2.417,0,0,0,220.272,11a2.489,2.489,0,0,0-2.074.967,4.237,4.237,0,0,0-.756,2.672,3.81,3.81,0,0,0,.725,2.457,2.37,2.37,0,0,0,1.947.9,2.462,2.462,0,0,0,1.956-.87A3.242,3.242,0,0,0,222.821,14.931Zm11.593-.07H228.06a3.366,3.366,0,0,0,.809,2.32A2.788,2.788,0,0,0,231,18a4.422,4.422,0,0,0,2.795-1V18.35a5.224,5.224,0,0,1-3.138.861,3.8,3.8,0,0,1-3-1.226,5.018,5.018,0,0,1-1.09-3.45,4.921,4.921,0,0,1,1.191-3.423,3.819,3.819,0,0,1,2.958-1.323,3.384,3.384,0,0,1,2.733,1.143,4.764,4.764,0,0,1,.967,3.173Zm-1.477-1.222a2.933,2.933,0,0,0-.6-1.942A2.051,2.051,0,0,0,230.688,11a2.328,2.328,0,0,0-1.731.729,3.31,3.31,0,0,0-.879,1.907ZM242.966,19h-1.441V5.676h1.441Zm9.36,0h-1.441V17.594h-.035a3.018,3.018,0,0,1-2.769,1.617,2.959,2.959,0,0,1-2.1-.712,2.466,2.466,0,0,1-.76-1.89q0-2.522,2.971-2.936l2.7-.378q0-2.294-1.854-2.294a4.431,4.431,0,0,0-2.936,1.107V10.633a5.577,5.577,0,0,1,3.059-.844q3.173,0,3.173,3.357Zm-1.441-4.553-2.171.3a3.525,3.525,0,0,0-1.512.5,1.432,1.432,0,0,0-.51,1.261,1.374,1.374,0,0,0,.47,1.077,1.817,1.817,0,0,0,1.252.417,2.314,2.314,0,0,0,1.771-.751,2.685,2.685,0,0,0,.7-1.9ZM72.432,38.86H66.077a3.366,3.366,0,0,0,.809,2.32A2.788,2.788,0,0,0,69.013,42a4.422,4.422,0,0,0,2.795-1V42.35a5.224,5.224,0,0,1-3.138.861,3.8,3.8,0,0,1-3-1.226,5.018,5.018,0,0,1-1.09-3.45,4.921,4.921,0,0,1,1.191-3.423,3.819,3.819,0,0,1,2.958-1.323,3.384,3.384,0,0,1,2.733,1.143,4.764,4.764,0,0,1,.967,3.173Zm-1.477-1.222a2.933,2.933,0,0,0-.6-1.942A2.051,2.051,0,0,0,68.705,35a2.328,2.328,0,0,0-1.731.729,3.31,3.31,0,0,0-.879,1.907ZM87.391,43H85.949V37.832a3.9,3.9,0,0,0-.461-2.162A1.75,1.75,0,0,0,83.937,35a1.921,1.921,0,0,0-1.569.844,3.228,3.228,0,0,0-.646,2.021V43H80.28V37.656Q80.28,35,78.232,35a1.9,1.9,0,0,0-1.564.8,3.288,3.288,0,0,0-.615,2.07V43H74.611V34h1.441v1.424h.035a3.058,3.058,0,0,1,2.795-1.635,2.6,2.6,0,0,1,2.549,1.863,3.212,3.212,0,0,1,2.988-1.863q2.971,0,2.971,3.665Zm4.2-1.3h-.035v5.44H90.115V34h1.441v1.582h.035A3.408,3.408,0,0,1,94.7,33.789,3.3,3.3,0,0,1,97.419,35a5.005,5.005,0,0,1,.976,3.239,5.578,5.578,0,0,1-1.1,3.617,3.658,3.658,0,0,1-3.006,1.358A3.011,3.011,0,0,1,91.592,41.7Zm-.035-3.63v1.257a2.676,2.676,0,0,0,.725,1.894A2.587,2.587,0,0,0,96.175,41a4.6,4.6,0,0,0,.743-2.786,3.629,3.629,0,0,0-.694-2.355A2.3,2.3,0,0,0,94.343,35a2.554,2.554,0,0,0-2.021.875A3.211,3.211,0,0,0,91.557,38.069Zm13.834-2.61a1.763,1.763,0,0,0-1.09-.29,1.839,1.839,0,0,0-1.542.87,4.023,4.023,0,0,0-.62,2.373V43H100.7V34h1.441v1.854h.035a3.143,3.143,0,0,1,.94-1.481,2.144,2.144,0,0,1,1.415-.532,2.353,2.353,0,0,1,.861.123Zm8.8,3.4h-6.354a3.366,3.366,0,0,0,.809,2.32A2.788,2.788,0,0,0,110.77,42a4.422,4.422,0,0,0,2.795-1V42.35a5.224,5.224,0,0,1-3.138.861,3.8,3.8,0,0,1-3-1.226,5.018,5.018,0,0,1-1.09-3.45,4.921,4.921,0,0,1,1.191-3.423,3.819,3.819,0,0,1,2.958-1.323,3.384,3.384,0,0,1,2.733,1.143,4.764,4.764,0,0,1,.967,3.173Zm-1.477-1.222a2.933,2.933,0,0,0-.6-1.942A2.051,2.051,0,0,0,110.462,35a2.328,2.328,0,0,0-1.731.729,3.31,3.31,0,0,0-.879,1.907Zm3.111,5.036V41.128a4.266,4.266,0,0,0,2.593.87q1.9,0,1.9-1.266a1.1,1.1,0,0,0-.163-.611,1.62,1.62,0,0,0-.439-.444,3.383,3.383,0,0,0-.65-.347q-.374-.154-.8-.321a10.357,10.357,0,0,1-1.05-.479,3.173,3.173,0,0,1-.756-.545,2.028,2.028,0,0,1-.457-.69,2.441,2.441,0,0,1-.154-.905,2.15,2.15,0,0,1,.29-1.121,2.572,2.572,0,0,1,.773-.817,3.607,3.607,0,0,1,1.1-.5,4.893,4.893,0,0,1,1.279-.167,5.164,5.164,0,0,1,2.092.4v1.459a4.077,4.077,0,0,0-2.285-.65,2.671,2.671,0,0,0-.729.092,1.786,1.786,0,0,0-.558.259,1.2,1.2,0,0,0-.36.4,1.053,1.053,0,0,0-.127.514,1.233,1.233,0,0,0,.127.589,1.3,1.3,0,0,0,.374.422,2.855,2.855,0,0,0,.6.334q.352.149.8.325a11.131,11.131,0,0,1,1.072.47,3.678,3.678,0,0,1,.809.545,2.129,2.129,0,0,1,.514.7,2.254,2.254,0,0,1,.18.94,2.217,2.217,0,0,1-.294,1.16,2.523,2.523,0,0,1-.787.817,3.6,3.6,0,0,1-1.134.483,5.6,5.6,0,0,1-1.345.158A5.106,5.106,0,0,1,115.823,42.675ZM130.448,43h-1.441V41.594h-.035a3.018,3.018,0,0,1-2.769,1.617,2.959,2.959,0,0,1-2.1-.712,2.466,2.466,0,0,1-.76-1.89q0-2.522,2.971-2.936l2.7-.378q0-2.294-1.854-2.294a4.431,4.431,0,0,0-2.936,1.107V34.633a5.577,5.577,0,0,1,3.059-.844q3.173,0,3.173,3.357Zm-1.441-4.553-2.171.3a3.525,3.525,0,0,0-1.512.5,1.432,1.432,0,0,0-.51,1.261,1.374,1.374,0,0,0,.47,1.077,1.817,1.817,0,0,0,1.252.417,2.314,2.314,0,0,0,1.771-.751,2.685,2.685,0,0,0,.7-1.9ZM145.565,43h-1.441V37.814q0-2.812-2.092-2.812a2.28,2.28,0,0,0-1.775.813,3.03,3.03,0,0,0-.721,2.087V43h-1.441V29.676h1.441v5.818h.035a3.273,3.273,0,0,1,2.953-1.705q3.041,0,3.041,3.665Zm9.158,0h-1.441V41.594h-.035a3.018,3.018,0,0,1-2.769,1.617,2.959,2.959,0,0,1-2.1-.712,2.466,2.466,0,0,1-.76-1.89q0-2.522,2.971-2.936l2.7-.378q0-2.294-1.854-2.294a4.431,4.431,0,0,0-2.936,1.107V34.633a5.577,5.577,0,0,1,3.059-.844q3.173,0,3.173,3.357Zm-1.441-4.553-2.171.3a3.525,3.525,0,0,0-1.512.5,1.432,1.432,0,0,0-.51,1.261,1.374,1.374,0,0,0,.47,1.077,1.817,1.817,0,0,0,1.252.417,2.314,2.314,0,0,0,1.771-.751,2.685,2.685,0,0,0,.7-1.9Zm10.292,4.14a4.684,4.684,0,0,1-2.461.624,4.074,4.074,0,0,1-3.107-1.252,4.539,4.539,0,0,1-1.182-3.248,4.99,4.99,0,0,1,1.274-3.573,4.458,4.458,0,0,1,3.4-1.349,4.735,4.735,0,0,1,2.092.439v1.477a3.665,3.665,0,0,0-2.145-.7,2.9,2.9,0,0,0-2.263.989,3.752,3.752,0,0,0-.883,2.6,3.573,3.573,0,0,0,.831,2.5,2.863,2.863,0,0,0,2.228.914,3.613,3.613,0,0,0,2.215-.782Zm2.918-10.872a.913.913,0,0,1-.659-.264.89.89,0,0,1-.272-.668.923.923,0,0,1,.932-.94.931.931,0,0,1,.672.268.939.939,0,0,1,0,1.332A.923.923,0,0,1,166.492,31.715ZM167.2,43h-1.441V34H167.2Zm9.36,0h-1.441V41.594h-.035a3.018,3.018,0,0,1-2.769,1.617,2.959,2.959,0,0,1-2.1-.712,2.466,2.466,0,0,1-.76-1.89q0-2.522,2.971-2.936l2.7-.378q0-2.294-1.854-2.294a4.431,4.431,0,0,0-2.936,1.107V34.633a5.577,5.577,0,0,1,3.059-.844q3.173,0,3.173,3.357Zm-1.441-4.553-2.171.3a3.525,3.525,0,0,0-1.512.5,1.432,1.432,0,0,0-.51,1.261,1.374,1.374,0,0,0,.47,1.077,1.817,1.817,0,0,0,1.252.417,2.314,2.314,0,0,0,1.771-.751,2.685,2.685,0,0,0,.7-1.9ZM185.644,43H184.2V29.676h1.441ZM195,43h-1.441V41.594h-.035a3.018,3.018,0,0,1-2.769,1.617,2.959,2.959,0,0,1-2.1-.712,2.466,2.466,0,0,1-.76-1.89q0-2.522,2.971-2.936l2.7-.378q0-2.294-1.854-2.294a4.431,4.431,0,0,0-2.936,1.107V34.633a5.577,5.577,0,0,1,3.059-.844q3.173,0,3.173,3.357Zm-1.441-4.553-2.171.3a3.525,3.525,0,0,0-1.512.5,1.432,1.432,0,0,0-.51,1.261,1.374,1.374,0,0,0,.47,1.077,1.817,1.817,0,0,0,1.252.417,2.314,2.314,0,0,0,1.771-.751,2.685,2.685,0,0,0,.7-1.9ZM15.114,55.715a.913.913,0,0,1-.659-.264.89.89,0,0,1-.272-.668.923.923,0,0,1,.932-.94.931.931,0,0,1,.672.268.939.939,0,0,1,0,1.332A.923.923,0,0,1,15.114,55.715ZM15.817,67H14.375V58h1.441Zm15.7,0H30.073V61.832a3.9,3.9,0,0,0-.461-2.162A1.75,1.75,0,0,0,28.06,59a1.921,1.921,0,0,0-1.569.844,3.228,3.228,0,0,0-.646,2.021V67H24.4V61.656Q24.4,59,22.356,59a1.9,1.9,0,0,0-1.564.8,3.288,3.288,0,0,0-.615,2.07V67H18.735V58h1.441v1.424h.035a3.058,3.058,0,0,1,2.795-1.635,2.6,2.6,0,0,1,2.549,1.863,3.212,3.212,0,0,1,2.988-1.863q2.971,0,2.971,3.665Zm4.2-1.3H35.68v5.44H34.239V58H35.68v1.582h.035a3.408,3.408,0,0,1,3.111-1.793A3.3,3.3,0,0,1,41.542,59a5.005,5.005,0,0,1,.976,3.239,5.578,5.578,0,0,1-1.1,3.617,3.658,3.658,0,0,1-3.006,1.358A3.011,3.011,0,0,1,35.715,65.7Zm-.035-3.63v1.257a2.676,2.676,0,0,0,.725,1.894A2.587,2.587,0,0,0,40.3,65a4.6,4.6,0,0,0,.743-2.786,3.629,3.629,0,0,0-.694-2.355A2.3,2.3,0,0,0,38.466,59a2.554,2.554,0,0,0-2.021.875A3.211,3.211,0,0,0,35.68,62.069ZM46.262,67H44.821V53.676h1.441Zm10.151-4.14H50.059a3.366,3.366,0,0,0,.809,2.32A2.788,2.788,0,0,0,52.995,66a4.422,4.422,0,0,0,2.795-1V66.35a5.224,5.224,0,0,1-3.138.861,3.8,3.8,0,0,1-3-1.226,5.018,5.018,0,0,1-1.09-3.45,4.921,4.921,0,0,1,1.191-3.423,3.819,3.819,0,0,1,2.958-1.323,3.384,3.384,0,0,1,2.733,1.143,4.764,4.764,0,0,1,.967,3.173Zm-1.477-1.222a2.933,2.933,0,0,0-.6-1.942A2.051,2.051,0,0,0,52.687,59a2.328,2.328,0,0,0-1.731.729,3.31,3.31,0,0,0-.879,1.907ZM71.373,67H69.931V61.832a3.9,3.9,0,0,0-.461-2.162A1.75,1.75,0,0,0,67.918,59a1.921,1.921,0,0,0-1.569.844,3.228,3.228,0,0,0-.646,2.021V67H64.262V61.656Q64.262,59,62.214,59a1.9,1.9,0,0,0-1.564.8,3.288,3.288,0,0,0-.615,2.07V67H58.593V58h1.441v1.424h.035a3.058,3.058,0,0,1,2.795-1.635,2.6,2.6,0,0,1,2.549,1.863A3.212,3.212,0,0,1,68.4,57.789q2.971,0,2.971,3.665Zm9.958-4.14H74.976a3.366,3.366,0,0,0,.809,2.32A2.788,2.788,0,0,0,77.912,66a4.422,4.422,0,0,0,2.795-1V66.35a5.224,5.224,0,0,1-3.138.861,3.8,3.8,0,0,1-3-1.226,5.018,5.018,0,0,1-1.09-3.45,4.921,4.921,0,0,1,1.191-3.423,3.819,3.819,0,0,1,2.958-1.323,3.384,3.384,0,0,1,2.733,1.143,4.764,4.764,0,0,1,.967,3.173Zm-1.477-1.222a2.933,2.933,0,0,0-.6-1.942A2.051,2.051,0,0,0,77.6,59a2.328,2.328,0,0,0-1.731.729,3.31,3.31,0,0,0-.879,1.907ZM90.981,67H89.54V61.867Q89.54,59,87.448,59a2.269,2.269,0,0,0-1.789.813,3.013,3.013,0,0,0-.708,2.052V67H83.51V58h1.441v1.494h.035a3.248,3.248,0,0,1,2.953-1.705,2.753,2.753,0,0,1,2.259.954,4.248,4.248,0,0,1,.782,2.755Zm6.891-.088a2.779,2.779,0,0,1-1.345.281q-2.364,0-2.364-2.637V59.23H92.616V58h1.547V55.8l1.441-.466V58h2.268v1.23H95.6V64.3a2.1,2.1,0,0,0,.308,1.292,1.228,1.228,0,0,0,1.02.387,1.515,1.515,0,0,0,.94-.3Zm8.367.088H104.8V65.594h-.035a3.018,3.018,0,0,1-2.769,1.617,2.959,2.959,0,0,1-2.1-.712,2.466,2.466,0,0,1-.76-1.89q0-2.522,2.971-2.936l2.7-.378Q104.8,59,102.943,59a4.431,4.431,0,0,0-2.936,1.107V58.633a5.577,5.577,0,0,1,3.059-.844q3.173,0,3.173,3.357ZM104.8,62.447l-2.171.3a3.525,3.525,0,0,0-1.512.5,1.432,1.432,0,0,0-.51,1.261,1.374,1.374,0,0,0,.47,1.077,1.817,1.817,0,0,0,1.252.417,2.314,2.314,0,0,0,1.771-.751,2.685,2.685,0,0,0,.7-1.9Zm10.292,4.14a4.684,4.684,0,0,1-2.461.624,4.074,4.074,0,0,1-3.107-1.252,4.539,4.539,0,0,1-1.182-3.248,4.99,4.99,0,0,1,1.274-3.573,4.458,4.458,0,0,1,3.4-1.349,4.735,4.735,0,0,1,2.092.439v1.477a3.665,3.665,0,0,0-2.145-.7,2.9,2.9,0,0,0-2.263.989,3.752,3.752,0,0,0-.883,2.6,3.573,3.573,0,0,0,.831,2.5,2.863,2.863,0,0,0,2.228.914,3.613,3.613,0,0,0,2.215-.782Zm2.918-10.872a.913.913,0,0,1-.659-.264.89.89,0,0,1-.272-.668.923.923,0,0,1,.932-.94.931.931,0,0,1,.672.268.939.939,0,0,1,0,1.332A.923.923,0,0,1,118.007,55.715ZM118.71,67h-1.441V58h1.441Zm6.68.211A4.175,4.175,0,0,1,122.2,65.95a4.672,4.672,0,0,1-1.191-3.344,4.867,4.867,0,0,1,1.239-3.542,4.455,4.455,0,0,1,3.349-1.274,4.037,4.037,0,0,1,3.142,1.239,4.914,4.914,0,0,1,1.129,3.437,4.835,4.835,0,0,1-1.217,3.45A4.265,4.265,0,0,1,125.39,67.211ZM125.5,59a2.742,2.742,0,0,0-2.2.945,3.88,3.88,0,0,0-.809,2.606,3.67,3.67,0,0,0,.817,2.522A2.778,2.778,0,0,0,125.5,66a2.635,2.635,0,0,0,2.149-.905,3.928,3.928,0,0,0,.751-2.575,4,4,0,0,0-.751-2.6A2.623,2.623,0,0,0,125.5,59Zm2.109-5.59-2.3,2.883h-1.116l1.96-2.883ZM139.646,67H138.2V61.867Q138.2,59,136.113,59a2.269,2.269,0,0,0-1.789.813,3.013,3.013,0,0,0-.708,2.052V67h-1.441V58h1.441v1.494h.035a3.248,3.248,0,0,1,2.953-1.705,2.753,2.753,0,0,1,2.259.954,4.248,4.248,0,0,1,.782,2.755Zm15.328,0h-1.441V65.471H153.5a3.327,3.327,0,0,1-3.094,1.74A3.362,3.362,0,0,1,147.692,66a4.958,4.958,0,0,1-1.015-3.292,5.394,5.394,0,0,1,1.125-3.577,3.71,3.71,0,0,1,3-1.345,2.885,2.885,0,0,1,2.7,1.459h.035V53.676h1.441Zm-1.441-4.069V61.6a2.575,2.575,0,0,0-.721-1.846A2.417,2.417,0,0,0,150.984,59a2.489,2.489,0,0,0-2.074.967,4.237,4.237,0,0,0-.756,2.672,3.81,3.81,0,0,0,.725,2.457,2.37,2.37,0,0,0,1.947.9,2.462,2.462,0,0,0,1.956-.87A3.242,3.242,0,0,0,153.533,62.931Zm11.593-.07h-6.354a3.366,3.366,0,0,0,.809,2.32,2.788,2.788,0,0,0,2.127.817,4.422,4.422,0,0,0,2.795-1V66.35a5.224,5.224,0,0,1-3.138.861,3.8,3.8,0,0,1-3-1.226,5.018,5.018,0,0,1-1.09-3.45,4.921,4.921,0,0,1,1.191-3.423,3.819,3.819,0,0,1,2.958-1.323,3.384,3.384,0,0,1,2.733,1.143,4.764,4.764,0,0,1,.967,3.173Zm-1.477-1.222a2.933,2.933,0,0,0-.6-1.942A2.051,2.051,0,0,0,161.4,59a2.328,2.328,0,0,0-1.731.729,3.31,3.31,0,0,0-.879,1.907Zm5.1,5.361h-1.441V53.676h1.441Zm7.453-.51V64.75a3.38,3.38,0,0,0,.716.475,5.8,5.8,0,0,0,.879.356,7,7,0,0,0,.927.224,5.17,5.17,0,0,0,.861.079,3.374,3.374,0,0,0,2.035-.505,1.9,1.9,0,0,0,.448-2.342,2.525,2.525,0,0,0-.62-.69,6.148,6.148,0,0,0-.936-.6q-.541-.286-1.165-.6-.659-.334-1.23-.677a5.332,5.332,0,0,1-.993-.756,3.153,3.153,0,0,1-.664-.936,3.191,3.191,0,0,1,.136-2.725,3.242,3.242,0,0,1,.993-1.05,4.5,4.5,0,0,1,1.4-.615,6.419,6.419,0,0,1,1.6-.2,6.147,6.147,0,0,1,2.716.448v1.661a4.923,4.923,0,0,0-2.865-.773,4.712,4.712,0,0,0-.967.1,2.731,2.731,0,0,0-.861.33,1.908,1.908,0,0,0-.615.589,1.563,1.563,0,0,0-.237.879,1.809,1.809,0,0,0,.18.835,2.046,2.046,0,0,0,.532.642,5.3,5.3,0,0,0,.857.563q.505.272,1.165.6.677.334,1.283.7a5.865,5.865,0,0,1,1.063.817,3.632,3.632,0,0,1,.725.993,2.792,2.792,0,0,1,.268,1.248,3.165,3.165,0,0,1-.365,1.578,2.993,2.993,0,0,1-.984,1.05,4.3,4.3,0,0,1-1.428.584,7.822,7.822,0,0,1-1.705.18,6.948,6.948,0,0,1-.738-.048q-.439-.048-.9-.141a7.315,7.315,0,0,1-.866-.229A2.694,2.694,0,0,1,176.2,66.49Zm9.563,0V64.75a3.38,3.38,0,0,0,.716.475,5.8,5.8,0,0,0,.879.356,7,7,0,0,0,.927.224,5.17,5.17,0,0,0,.861.079,3.374,3.374,0,0,0,2.035-.505,1.9,1.9,0,0,0,.448-2.342,2.525,2.525,0,0,0-.62-.69,6.148,6.148,0,0,0-.936-.6q-.541-.286-1.165-.6-.659-.334-1.23-.677a5.332,5.332,0,0,1-.993-.756,3.153,3.153,0,0,1-.664-.936,3.191,3.191,0,0,1,.136-2.725,3.242,3.242,0,0,1,.993-1.05,4.5,4.5,0,0,1,1.4-.615,6.419,6.419,0,0,1,1.6-.2,6.147,6.147,0,0,1,2.716.448v1.661a4.923,4.923,0,0,0-2.865-.773,4.712,4.712,0,0,0-.967.1,2.731,2.731,0,0,0-.861.33,1.908,1.908,0,0,0-.615.589,1.563,1.563,0,0,0-.237.879,1.809,1.809,0,0,0,.18.835,2.046,2.046,0,0,0,.532.642,5.3,5.3,0,0,0,.857.563q.505.272,1.165.6.677.334,1.283.7a5.865,5.865,0,0,1,1.063.817,3.632,3.632,0,0,1,.725.993,2.792,2.792,0,0,1,.268,1.248,3.165,3.165,0,0,1-.365,1.578,2.993,2.993,0,0,1-.984,1.05,4.3,4.3,0,0,1-1.428.584,7.822,7.822,0,0,1-1.705.18,6.948,6.948,0,0,1-.738-.048q-.439-.048-.9-.141a7.315,7.315,0,0,1-.866-.229A2.694,2.694,0,0,1,185.762,66.49Zm17.6-10.758h-3.639V67h-1.477V55.732h-3.63V54.4h8.745ZM217.763,67h-1.441V65.471h-.035a3.327,3.327,0,0,1-3.094,1.74A3.362,3.362,0,0,1,210.481,66a4.958,4.958,0,0,1-1.015-3.292,5.394,5.394,0,0,1,1.125-3.577,3.71,3.71,0,0,1,3-1.345,2.885,2.885,0,0,1,2.7,1.459h.035V53.676h1.441Zm-1.441-4.069V61.6a2.575,2.575,0,0,0-.721-1.846A2.417,2.417,0,0,0,213.773,59a2.489,2.489,0,0,0-2.074.967,4.237,4.237,0,0,0-.756,2.672,3.81,3.81,0,0,0,.725,2.457,2.37,2.37,0,0,0,1.947.9,2.462,2.462,0,0,0,1.956-.87A3.242,3.242,0,0,0,216.322,62.931Zm11.593-.07H221.56a3.366,3.366,0,0,0,.809,2.32A2.788,2.788,0,0,0,224.5,66a4.422,4.422,0,0,0,2.795-1V66.35a5.224,5.224,0,0,1-3.138.861,3.8,3.8,0,0,1-3-1.226,5.018,5.018,0,0,1-1.09-3.45,4.921,4.921,0,0,1,1.191-3.423,3.819,3.819,0,0,1,2.958-1.323,3.384,3.384,0,0,1,2.733,1.143,4.764,4.764,0,0,1,.967,3.173Zm-1.477-1.222a2.933,2.933,0,0,0-.6-1.942A2.051,2.051,0,0,0,224.188,59a2.328,2.328,0,0,0-1.731.729,3.31,3.31,0,0,0-.879,1.907ZM236.466,67h-1.441V53.676h1.441Zm9.36,0h-1.441V65.594h-.035a3.018,3.018,0,0,1-2.769,1.617,2.959,2.959,0,0,1-2.1-.712,2.466,2.466,0,0,1-.76-1.89q0-2.522,2.971-2.936l2.7-.378q0-2.294-1.854-2.294a4.431,4.431,0,0,0-2.936,1.107V58.633a5.577,5.577,0,0,1,3.059-.844q3.173,0,3.173,3.357Zm-1.441-4.553-2.171.3a3.525,3.525,0,0,0-1.512.5,1.432,1.432,0,0,0-.51,1.261,1.374,1.374,0,0,0,.47,1.077,1.817,1.817,0,0,0,1.252.417,2.314,2.314,0,0,0,1.771-.751,2.685,2.685,0,0,0,.7-1.9ZM17.346,86.86H10.992a3.366,3.366,0,0,0,.809,2.32A2.788,2.788,0,0,0,13.927,90a4.422,4.422,0,0,0,2.795-1V90.35a5.224,5.224,0,0,1-3.138.861,3.8,3.8,0,0,1-3-1.226,5.018,5.018,0,0,1-1.09-3.45,4.921,4.921,0,0,1,1.191-3.423,3.819,3.819,0,0,1,2.958-1.323,3.384,3.384,0,0,1,2.733,1.143,4.764,4.764,0,0,1,.967,3.173ZM15.87,85.639a2.933,2.933,0,0,0-.6-1.942A2.051,2.051,0,0,0,13.62,83a2.328,2.328,0,0,0-1.731.729,3.31,3.31,0,0,0-.879,1.907ZM32.305,91H30.864V85.832A3.9,3.9,0,0,0,30.4,83.67,1.75,1.75,0,0,0,28.851,83a1.921,1.921,0,0,0-1.569.844,3.228,3.228,0,0,0-.646,2.021V91H25.195V85.656Q25.195,83,23.147,83a1.9,1.9,0,0,0-1.564.8,3.288,3.288,0,0,0-.615,2.07V91H19.526V82h1.441v1.424H21A3.058,3.058,0,0,1,23.8,81.789a2.6,2.6,0,0,1,2.549,1.863,3.212,3.212,0,0,1,2.988-1.863q2.971,0,2.971,3.665Zm4.2-1.3h-.035v5.44H35.03V82h1.441v1.582h.035a3.408,3.408,0,0,1,3.111-1.793A3.3,3.3,0,0,1,42.333,83a5.005,5.005,0,0,1,.976,3.239,5.578,5.578,0,0,1-1.1,3.617A3.658,3.658,0,0,1,39.2,91.211,3.011,3.011,0,0,1,36.506,89.7Zm-.035-3.63v1.257A2.676,2.676,0,0,0,37.2,89.22,2.587,2.587,0,0,0,41.09,89a4.6,4.6,0,0,0,.743-2.786,3.629,3.629,0,0,0-.694-2.355A2.3,2.3,0,0,0,39.257,83a2.554,2.554,0,0,0-2.021.875A3.211,3.211,0,0,0,36.471,86.069Zm13.834-2.61a1.763,1.763,0,0,0-1.09-.29,1.839,1.839,0,0,0-1.542.87,4.023,4.023,0,0,0-.62,2.373V91H45.612V82h1.441v1.854h.035a3.143,3.143,0,0,1,.94-1.481,2.144,2.144,0,0,1,1.415-.532,2.353,2.353,0,0,1,.861.123Zm8.8,3.4H52.749a3.366,3.366,0,0,0,.809,2.32A2.788,2.788,0,0,0,55.684,90a4.422,4.422,0,0,0,2.795-1V90.35a5.224,5.224,0,0,1-3.138.861,3.8,3.8,0,0,1-3-1.226,5.018,5.018,0,0,1-1.09-3.45,4.921,4.921,0,0,1,1.191-3.423A3.819,3.819,0,0,1,55.4,81.789a3.384,3.384,0,0,1,2.733,1.143A4.764,4.764,0,0,1,59.1,86.1Zm-1.477-1.222a2.933,2.933,0,0,0-.6-1.942A2.051,2.051,0,0,0,55.376,83a2.328,2.328,0,0,0-1.731.729,3.31,3.31,0,0,0-.879,1.907Zm3.111,5.036V89.128a4.266,4.266,0,0,0,2.593.87q1.9,0,1.9-1.266a1.1,1.1,0,0,0-.163-.611,1.62,1.62,0,0,0-.439-.444,3.383,3.383,0,0,0-.65-.347q-.374-.154-.8-.321a10.357,10.357,0,0,1-1.05-.479,3.173,3.173,0,0,1-.756-.545,2.028,2.028,0,0,1-.457-.69,2.441,2.441,0,0,1-.154-.905,2.15,2.15,0,0,1,.29-1.121,2.572,2.572,0,0,1,.773-.817,3.607,3.607,0,0,1,1.1-.5,4.893,4.893,0,0,1,1.279-.167,5.164,5.164,0,0,1,2.092.4v1.459A4.077,4.077,0,0,0,64.007,83a2.671,2.671,0,0,0-.729.092,1.786,1.786,0,0,0-.558.259,1.2,1.2,0,0,0-.36.4,1.053,1.053,0,0,0-.127.514,1.233,1.233,0,0,0,.127.589,1.3,1.3,0,0,0,.374.422,2.855,2.855,0,0,0,.6.334q.352.149.8.325a11.131,11.131,0,0,1,1.072.47,3.678,3.678,0,0,1,.809.545,2.129,2.129,0,0,1,.514.7,2.254,2.254,0,0,1,.18.94,2.217,2.217,0,0,1-.294,1.16,2.523,2.523,0,0,1-.787.817,3.6,3.6,0,0,1-1.134.483,5.6,5.6,0,0,1-1.345.158A5.106,5.106,0,0,1,60.738,90.675ZM75.363,91H73.921V89.594h-.035a3.018,3.018,0,0,1-2.769,1.617,2.959,2.959,0,0,1-2.1-.712,2.466,2.466,0,0,1-.76-1.89q0-2.522,2.971-2.936l2.7-.378Q73.921,83,72.067,83a4.431,4.431,0,0,0-2.936,1.107V82.633a5.577,5.577,0,0,1,3.059-.844q3.173,0,3.173,3.357Zm-1.441-4.553-2.171.3a3.525,3.525,0,0,0-1.512.5,1.432,1.432,0,0,0-.51,1.261,1.374,1.374,0,0,0,.47,1.077A1.817,1.817,0,0,0,71.452,90a2.314,2.314,0,0,0,1.771-.751,2.685,2.685,0,0,0,.7-1.9ZM84.486,89.7h-.035v5.44H83.009V82h1.441v1.582h.035A3.408,3.408,0,0,1,87.6,81.789,3.3,3.3,0,0,1,90.313,83a5.005,5.005,0,0,1,.976,3.239,5.578,5.578,0,0,1-1.1,3.617,3.658,3.658,0,0,1-3.006,1.358A3.011,3.011,0,0,1,84.486,89.7Zm-.035-3.63v1.257a2.676,2.676,0,0,0,.725,1.894A2.587,2.587,0,0,0,89.069,89a4.6,4.6,0,0,0,.743-2.786,3.629,3.629,0,0,0-.694-2.355A2.3,2.3,0,0,0,87.237,83a2.554,2.554,0,0,0-2.021.875A3.211,3.211,0,0,0,84.451,86.069ZM100.034,91H98.592V89.594h-.035a3.018,3.018,0,0,1-2.769,1.617,2.959,2.959,0,0,1-2.1-.712,2.466,2.466,0,0,1-.76-1.89q0-2.522,2.971-2.936l2.7-.378Q98.592,83,96.738,83A4.431,4.431,0,0,0,93.8,84.109V82.633a5.577,5.577,0,0,1,3.059-.844q3.173,0,3.173,3.357Zm-1.441-4.553-2.171.3a3.525,3.525,0,0,0-1.512.5A1.432,1.432,0,0,0,94.4,88.5a1.374,1.374,0,0,0,.47,1.077A1.817,1.817,0,0,0,96.123,90a2.314,2.314,0,0,0,1.771-.751,2.685,2.685,0,0,0,.7-1.9Zm8.851-2.988a1.763,1.763,0,0,0-1.09-.29,1.839,1.839,0,0,0-1.542.87,4.023,4.023,0,0,0-.62,2.373V91H102.75V82h1.441v1.854h.035a3.143,3.143,0,0,1,.94-1.481,2.144,2.144,0,0,1,1.415-.532,2.353,2.353,0,0,1,.861.123ZM115.45,91h-1.441V89.594h-.035a3.018,3.018,0,0,1-2.769,1.617,2.959,2.959,0,0,1-2.1-.712,2.466,2.466,0,0,1-.76-1.89q0-2.522,2.971-2.936l2.7-.378q0-2.294-1.854-2.294a4.431,4.431,0,0,0-2.936,1.107V82.633a5.577,5.577,0,0,1,3.059-.844q3.173,0,3.173,3.357Zm-1.441-4.553-2.171.3a3.525,3.525,0,0,0-1.512.5,1.432,1.432,0,0,0-.51,1.261,1.374,1.374,0,0,0,.47,1.077,1.817,1.817,0,0,0,1.252.417,2.314,2.314,0,0,0,1.771-.751,2.685,2.685,0,0,0,.7-1.9ZM124.538,91H123.1V77.676h1.441Zm9.36,0h-1.441V89.594h-.035a3.018,3.018,0,0,1-2.769,1.617,2.959,2.959,0,0,1-2.1-.712,2.466,2.466,0,0,1-.76-1.89q0-2.522,2.971-2.936l2.7-.378Q132.457,83,130.6,83a4.431,4.431,0,0,0-2.936,1.107V82.633a5.577,5.577,0,0,1,3.059-.844q3.173,0,3.173,3.357Zm-1.441-4.553-2.171.3a3.525,3.525,0,0,0-1.512.5,1.432,1.432,0,0,0-.51,1.261,1.374,1.374,0,0,0,.47,1.077,1.817,1.817,0,0,0,1.252.417,2.314,2.314,0,0,0,1.771-.751,2.685,2.685,0,0,0,.7-1.9Zm16.77,3.832q0,4.957-4.746,4.957a6.372,6.372,0,0,1-2.918-.633V93.162a5.993,5.993,0,0,0,2.9.844q3.322,0,3.322-3.533v-.984h-.035a3.641,3.641,0,0,1-5.8.523,4.8,4.8,0,0,1-1.024-3.221,5.6,5.6,0,0,1,1.1-3.647,3.685,3.685,0,0,1,3.019-1.354,2.934,2.934,0,0,1,2.7,1.459h.035V82h1.441Zm-1.441-3.349V85.6a2.575,2.575,0,0,0-.725-1.837A2.387,2.387,0,0,0,145.253,83a2.5,2.5,0,0,0-2.092.971,4.335,4.335,0,0,0-.756,2.72,3.721,3.721,0,0,0,.725,2.4,2.343,2.343,0,0,0,1.92.9,2.509,2.509,0,0,0,1.973-.861A3.21,3.21,0,0,0,147.785,86.931Zm11.593-.07h-6.354a3.366,3.366,0,0,0,.809,2.32,2.788,2.788,0,0,0,2.127.817,4.422,4.422,0,0,0,2.795-1V90.35a5.224,5.224,0,0,1-3.138.861,3.8,3.8,0,0,1-3-1.226,5.018,5.018,0,0,1-1.09-3.45,4.921,4.921,0,0,1,1.191-3.423,3.819,3.819,0,0,1,2.958-1.323,3.384,3.384,0,0,1,2.733,1.143,4.764,4.764,0,0,1,.967,3.173ZM157.9,85.639a2.933,2.933,0,0,0-.6-1.942A2.051,2.051,0,0,0,155.651,83a2.328,2.328,0,0,0-1.731.729,3.31,3.31,0,0,0-.879,1.907Zm3.111,5.036V89.128A4.266,4.266,0,0,0,163.6,90q1.9,0,1.9-1.266a1.1,1.1,0,0,0-.163-.611,1.62,1.62,0,0,0-.439-.444,3.383,3.383,0,0,0-.65-.347q-.374-.154-.8-.321a10.357,10.357,0,0,1-1.05-.479,3.173,3.173,0,0,1-.756-.545,2.028,2.028,0,0,1-.457-.69,2.441,2.441,0,0,1-.154-.905,2.15,2.15,0,0,1,.29-1.121,2.572,2.572,0,0,1,.773-.817,3.607,3.607,0,0,1,1.1-.5,4.893,4.893,0,0,1,1.279-.167,5.164,5.164,0,0,1,2.092.4v1.459a4.077,4.077,0,0,0-2.285-.65,2.671,2.671,0,0,0-.729.092,1.786,1.786,0,0,0-.558.259,1.2,1.2,0,0,0-.36.4,1.053,1.053,0,0,0-.127.514,1.233,1.233,0,0,0,.127.589,1.3,1.3,0,0,0,.374.422,2.855,2.855,0,0,0,.6.334q.352.149.8.325a11.131,11.131,0,0,1,1.072.47,3.678,3.678,0,0,1,.809.545,2.129,2.129,0,0,1,.514.7,2.254,2.254,0,0,1,.18.94,2.217,2.217,0,0,1-.294,1.16,2.523,2.523,0,0,1-.787.817,3.6,3.6,0,0,1-1.134.483,5.6,5.6,0,0,1-1.345.158A5.106,5.106,0,0,1,161.012,90.675Zm12.357.237a2.779,2.779,0,0,1-1.345.281q-2.364,0-2.364-2.637V83.23h-1.547V82h1.547V79.8l1.441-.466V82h2.268v1.23H171.1V88.3a2.1,2.1,0,0,0,.308,1.292,1.228,1.228,0,0,0,1.02.387,1.515,1.515,0,0,0,.94-.3Zm2.663-11.2a.913.913,0,0,1-.659-.264.89.89,0,0,1-.272-.668.923.923,0,0,1,.932-.94.931.931,0,0,1,.672.268.939.939,0,0,1,0,1.332A.923.923,0,0,1,176.033,79.715Zm.7,11.285h-1.441V82h1.441Zm6.68.211a4.175,4.175,0,0,1-3.186-1.261,4.672,4.672,0,0,1-1.191-3.344,4.867,4.867,0,0,1,1.239-3.542,4.455,4.455,0,0,1,3.349-1.274,4.037,4.037,0,0,1,3.142,1.239,4.914,4.914,0,0,1,1.129,3.437,4.835,4.835,0,0,1-1.217,3.45A4.265,4.265,0,0,1,183.416,91.211ZM183.521,83a2.742,2.742,0,0,0-2.2.945,3.88,3.88,0,0,0-.809,2.606,3.67,3.67,0,0,0,.817,2.522,2.778,2.778,0,0,0,2.188.923,2.635,2.635,0,0,0,2.149-.905,3.928,3.928,0,0,0,.751-2.575,4,4,0,0,0-.751-2.6A2.623,2.623,0,0,0,183.521,83Zm2.109-5.59-2.3,2.883h-1.116l1.96-2.883ZM197.671,91H196.23V85.867q0-2.865-2.092-2.865a2.269,2.269,0,0,0-1.789.813,3.013,3.013,0,0,0-.708,2.052V91H190.2V82h1.441v1.494h.035a3.248,3.248,0,0,1,2.953-1.705,2.753,2.753,0,0,1,2.259.954,4.248,4.248,0,0,1,.782,2.755ZM213,91h-1.441V89.471h-.035a3.327,3.327,0,0,1-3.094,1.74A3.362,3.362,0,0,1,205.718,90a4.958,4.958,0,0,1-1.015-3.292,5.394,5.394,0,0,1,1.125-3.577,3.71,3.71,0,0,1,3-1.345,2.885,2.885,0,0,1,2.7,1.459h.035V77.676H213Zm-1.441-4.069V85.6a2.575,2.575,0,0,0-.721-1.846A2.417,2.417,0,0,0,209.009,83a2.489,2.489,0,0,0-2.074.967,4.237,4.237,0,0,0-.756,2.672A3.81,3.81,0,0,0,206.9,89.1a2.37,2.37,0,0,0,1.947.9,2.462,2.462,0,0,0,1.956-.87A3.242,3.242,0,0,0,211.558,86.931Zm11.593-.07H216.8a3.366,3.366,0,0,0,.809,2.32,2.788,2.788,0,0,0,2.127.817,4.422,4.422,0,0,0,2.795-1V90.35a5.224,5.224,0,0,1-3.138.861,3.8,3.8,0,0,1-3-1.226,5.018,5.018,0,0,1-1.09-3.45,4.921,4.921,0,0,1,1.191-3.423,3.819,3.819,0,0,1,2.958-1.323,3.384,3.384,0,0,1,2.733,1.143,4.764,4.764,0,0,1,.967,3.173Zm-1.477-1.222a2.933,2.933,0,0,0-.6-1.942A2.051,2.051,0,0,0,219.424,83a2.328,2.328,0,0,0-1.731.729,3.31,3.31,0,0,0-.879,1.907ZM231.7,91h-1.441V77.676H231.7Zm6.68.211A4.175,4.175,0,0,1,235.2,89.95a4.672,4.672,0,0,1-1.191-3.344,4.867,4.867,0,0,1,1.239-3.542,4.455,4.455,0,0,1,3.349-1.274,4.037,4.037,0,0,1,3.142,1.239,4.914,4.914,0,0,1,1.129,3.437,4.835,4.835,0,0,1-1.217,3.45A4.265,4.265,0,0,1,238.382,91.211ZM238.488,83a2.742,2.742,0,0,0-2.2.945,3.88,3.88,0,0,0-.809,2.606,3.67,3.67,0,0,0,.817,2.522,2.778,2.778,0,0,0,2.188.923,2.635,2.635,0,0,0,2.149-.905,3.928,3.928,0,0,0,.751-2.575,4,4,0,0,0-.751-2.6A2.623,2.623,0,0,0,238.488,83Zm6.135,7.673V89.128a4.266,4.266,0,0,0,2.593.87q1.9,0,1.9-1.266a1.1,1.1,0,0,0-.163-.611,1.62,1.62,0,0,0-.439-.444,3.383,3.383,0,0,0-.65-.347q-.374-.154-.8-.321a10.357,10.357,0,0,1-1.05-.479,3.173,3.173,0,0,1-.756-.545,2.028,2.028,0,0,1-.457-.69,2.441,2.441,0,0,1-.154-.905,2.15,2.15,0,0,1,.29-1.121,2.572,2.572,0,0,1,.773-.817,3.607,3.607,0,0,1,1.1-.5,4.893,4.893,0,0,1,1.279-.167,5.164,5.164,0,0,1,2.092.4v1.459a4.077,4.077,0,0,0-2.285-.65,2.671,2.671,0,0,0-.729.092,1.786,1.786,0,0,0-.558.259,1.2,1.2,0,0,0-.36.4,1.053,1.053,0,0,0-.127.514,1.233,1.233,0,0,0,.127.589,1.3,1.3,0,0,0,.374.422,2.855,2.855,0,0,0,.6.334q.352.149.8.325a11.131,11.131,0,0,1,1.072.47,3.678,3.678,0,0,1,.809.545,2.129,2.129,0,0,1,.514.7,2.254,2.254,0,0,1,.18.94,2.217,2.217,0,0,1-.294,1.16,2.523,2.523,0,0,1-.787.817,3.6,3.6,0,0,1-1.134.483,5.6,5.6,0,0,1-1.345.158A5.106,5.106,0,0,1,244.623,90.675ZM67.773,107.459a1.763,1.763,0,0,0-1.09-.29,1.839,1.839,0,0,0-1.542.87,4.023,4.023,0,0,0-.62,2.373V115H63.08v-9h1.441v1.854h.035a3.143,3.143,0,0,1,.94-1.481,2.144,2.144,0,0,1,1.415-.532,2.353,2.353,0,0,1,.861.123Zm2.3-3.744a.913.913,0,0,1-.659-.264.89.89,0,0,1-.272-.668.923.923,0,0,1,.932-.94.931.931,0,0,1,.672.268.939.939,0,0,1,0,1.332A.923.923,0,0,1,70.076,103.715Zm.7,11.285H69.338v-9h1.441Zm10.151-4.14H74.576a3.366,3.366,0,0,0,.809,2.32,2.788,2.788,0,0,0,2.127.817,4.422,4.422,0,0,0,2.795-1v1.354a5.224,5.224,0,0,1-3.138.861,3.8,3.8,0,0,1-3-1.226,5.018,5.018,0,0,1-1.09-3.45,4.921,4.921,0,0,1,1.191-3.423,3.819,3.819,0,0,1,2.958-1.323,3.384,3.384,0,0,1,2.733,1.143,4.764,4.764,0,0,1,.967,3.173Zm-1.477-1.222a2.933,2.933,0,0,0-.6-1.942A2.051,2.051,0,0,0,77.2,107a2.328,2.328,0,0,0-1.731.729,3.31,3.31,0,0,0-.879,1.907Zm3.111,5.036v-1.547a4.266,4.266,0,0,0,2.593.87q1.9,0,1.9-1.266a1.1,1.1,0,0,0-.163-.611,1.62,1.62,0,0,0-.439-.444,3.383,3.383,0,0,0-.65-.347q-.374-.154-.8-.321a10.357,10.357,0,0,1-1.05-.479,3.173,3.173,0,0,1-.756-.545,2.028,2.028,0,0,1-.457-.69,2.441,2.441,0,0,1-.154-.905,2.15,2.15,0,0,1,.29-1.121,2.572,2.572,0,0,1,.773-.817,3.607,3.607,0,0,1,1.1-.5,4.893,4.893,0,0,1,1.279-.167,5.164,5.164,0,0,1,2.092.4v1.459a4.077,4.077,0,0,0-2.285-.65,2.671,2.671,0,0,0-.729.092,1.786,1.786,0,0,0-.558.259,1.2,1.2,0,0,0-.36.4,1.053,1.053,0,0,0-.127.514,1.233,1.233,0,0,0,.127.589,1.3,1.3,0,0,0,.374.422,2.855,2.855,0,0,0,.6.334q.352.149.8.325a11.131,11.131,0,0,1,1.072.47,3.678,3.678,0,0,1,.809.545,2.129,2.129,0,0,1,.514.7,2.254,2.254,0,0,1,.18.94,2.217,2.217,0,0,1-.294,1.16,2.523,2.523,0,0,1-.787.817,3.6,3.6,0,0,1-1.134.483,5.6,5.6,0,0,1-1.345.158A5.106,5.106,0,0,1,82.565,114.675Zm15.864-.4q0,4.957-4.746,4.957a6.372,6.372,0,0,1-2.918-.633v-1.441a5.993,5.993,0,0,0,2.9.844q3.322,0,3.322-3.533v-.984h-.035a3.641,3.641,0,0,1-5.8.523,4.8,4.8,0,0,1-1.024-3.221,5.6,5.6,0,0,1,1.1-3.647,3.685,3.685,0,0,1,3.019-1.354,2.934,2.934,0,0,1,2.7,1.459h.035V106H98.43Zm-1.441-3.349V109.6a2.575,2.575,0,0,0-.725-1.837A2.387,2.387,0,0,0,94.457,107a2.5,2.5,0,0,0-2.092.971,4.335,4.335,0,0,0-.756,2.72,3.721,3.721,0,0,0,.725,2.4,2.343,2.343,0,0,0,1.92.9,2.509,2.509,0,0,0,1.973-.861A3.21,3.21,0,0,0,96.988,110.931Zm8.121,4.28a4.175,4.175,0,0,1-3.186-1.261,4.672,4.672,0,0,1-1.191-3.344,4.867,4.867,0,0,1,1.239-3.542,4.455,4.455,0,0,1,3.349-1.274,4.037,4.037,0,0,1,3.142,1.239,4.914,4.914,0,0,1,1.129,3.437,4.835,4.835,0,0,1-1.217,3.45A4.265,4.265,0,0,1,105.109,115.211Zm.105-8.209a2.742,2.742,0,0,0-2.2.945,3.88,3.88,0,0,0-.809,2.606,3.67,3.67,0,0,0,.817,2.522,2.778,2.778,0,0,0,2.188.923,2.635,2.635,0,0,0,2.149-.905,3.928,3.928,0,0,0,.751-2.575,4,4,0,0,0-.751-2.6A2.623,2.623,0,0,0,105.215,107Zm6.135,7.673v-1.547a4.266,4.266,0,0,0,2.593.87q1.9,0,1.9-1.266a1.1,1.1,0,0,0-.163-.611,1.62,1.62,0,0,0-.439-.444,3.383,3.383,0,0,0-.65-.347q-.374-.154-.8-.321a10.357,10.357,0,0,1-1.05-.479,3.173,3.173,0,0,1-.756-.545,2.028,2.028,0,0,1-.457-.69,2.441,2.441,0,0,1-.154-.905,2.15,2.15,0,0,1,.29-1.121,2.572,2.572,0,0,1,.773-.817,3.607,3.607,0,0,1,1.1-.5,4.893,4.893,0,0,1,1.279-.167,5.164,5.164,0,0,1,2.092.4v1.459a4.077,4.077,0,0,0-2.285-.65,2.671,2.671,0,0,0-.729.092,1.786,1.786,0,0,0-.558.259,1.2,1.2,0,0,0-.36.4,1.053,1.053,0,0,0-.127.514,1.233,1.233,0,0,0,.127.589,1.3,1.3,0,0,0,.374.422,2.855,2.855,0,0,0,.6.334q.352.149.8.325a11.131,11.131,0,0,1,1.072.47,3.678,3.678,0,0,1,.809.545,2.129,2.129,0,0,1,.514.7,2.254,2.254,0,0,1,.18.94,2.217,2.217,0,0,1-.294,1.16,2.523,2.523,0,0,1-.787.817,3.6,3.6,0,0,1-1.134.483,5.6,5.6,0,0,1-1.345.158A5.106,5.106,0,0,1,111.35,114.675ZM125.9,115h-1.441V101.676H125.9Zm9.36,0h-1.441v-1.406h-.035a3.018,3.018,0,0,1-2.769,1.617,2.959,2.959,0,0,1-2.1-.712,2.466,2.466,0,0,1-.76-1.89q0-2.522,2.971-2.936l2.7-.378q0-2.294-1.854-2.294a4.431,4.431,0,0,0-2.936,1.107v-1.477a5.577,5.577,0,0,1,3.059-.844q3.173,0,3.173,3.357Zm-1.441-4.553-2.171.3a3.525,3.525,0,0,0-1.512.5,1.432,1.432,0,0,0-.51,1.261,1.374,1.374,0,0,0,.47,1.077,1.817,1.817,0,0,0,1.252.417,2.314,2.314,0,0,0,1.771-.751,2.685,2.685,0,0,0,.7-1.9Zm5.634,3.252h-.035V115H137.98V101.676h1.441v5.906h.035a3.408,3.408,0,0,1,3.111-1.793A3.3,3.3,0,0,1,145.28,107a4.99,4.99,0,0,1,.98,3.239,5.578,5.578,0,0,1-1.1,3.617,3.658,3.658,0,0,1-3.006,1.358A2.96,2.96,0,0,1,139.457,113.7Zm-.035-3.63v1.257a2.676,2.676,0,0,0,.725,1.894,2.587,2.587,0,0,0,3.894-.224,4.6,4.6,0,0,0,.743-2.786,3.629,3.629,0,0,0-.694-2.355,2.3,2.3,0,0,0-1.881-.853,2.554,2.554,0,0,0-2.021.875A3.211,3.211,0,0,0,139.422,110.069Zm12.9,5.142a4.175,4.175,0,0,1-3.186-1.261,4.672,4.672,0,0,1-1.191-3.344,4.867,4.867,0,0,1,1.239-3.542,4.455,4.455,0,0,1,3.349-1.274,4.037,4.037,0,0,1,3.142,1.239,4.914,4.914,0,0,1,1.129,3.437,4.835,4.835,0,0,1-1.217,3.45A4.265,4.265,0,0,1,152.324,115.211ZM152.43,107a2.742,2.742,0,0,0-2.2.945,3.88,3.88,0,0,0-.809,2.606,3.67,3.67,0,0,0,.817,2.522,2.778,2.778,0,0,0,2.188.923,2.635,2.635,0,0,0,2.149-.905,3.928,3.928,0,0,0,.751-2.575,4,4,0,0,0-.751-2.6A2.623,2.623,0,0,0,152.43,107Zm11.373.457a1.763,1.763,0,0,0-1.09-.29,1.839,1.839,0,0,0-1.542.87,4.023,4.023,0,0,0-.62,2.373V115h-1.441v-9h1.441v1.854h.035a3.143,3.143,0,0,1,.94-1.481,2.144,2.144,0,0,1,1.415-.532,2.353,2.353,0,0,1,.861.123ZM171.81,115h-1.441v-1.406h-.035a3.018,3.018,0,0,1-2.769,1.617,2.959,2.959,0,0,1-2.1-.712,2.466,2.466,0,0,1-.76-1.89q0-2.522,2.971-2.936l2.7-.378q0-2.294-1.854-2.294a4.431,4.431,0,0,0-2.936,1.107v-1.477a5.577,5.577,0,0,1,3.059-.844q3.173,0,3.173,3.357Zm-1.441-4.553-2.171.3a3.525,3.525,0,0,0-1.512.5,1.432,1.432,0,0,0-.51,1.261,1.374,1.374,0,0,0,.47,1.077A1.817,1.817,0,0,0,167.9,114a2.314,2.314,0,0,0,1.771-.751,2.685,2.685,0,0,0,.7-1.9Zm5.6,4.553h-1.441V101.676h1.441Zm10.151-4.14h-6.354a3.366,3.366,0,0,0,.809,2.32A2.788,2.788,0,0,0,182.7,114a4.422,4.422,0,0,0,2.795-1v1.354a5.224,5.224,0,0,1-3.138.861,3.8,3.8,0,0,1-3-1.226,5.018,5.018,0,0,1-1.09-3.45,4.921,4.921,0,0,1,1.191-3.423,3.819,3.819,0,0,1,2.958-1.323,3.384,3.384,0,0,1,2.733,1.143,4.764,4.764,0,0,1,.967,3.173Zm-1.477-1.222a2.933,2.933,0,0,0-.6-1.942,2.051,2.051,0,0,0-1.648-.694,2.328,2.328,0,0,0-1.731.729,3.31,3.31,0,0,0-.879,1.907Zm3.111,5.036v-1.547a4.266,4.266,0,0,0,2.593.87q1.9,0,1.9-1.266a1.1,1.1,0,0,0-.163-.611,1.62,1.62,0,0,0-.439-.444,3.383,3.383,0,0,0-.65-.347q-.374-.154-.8-.321a10.357,10.357,0,0,1-1.05-.479,3.173,3.173,0,0,1-.756-.545,2.028,2.028,0,0,1-.457-.69,2.441,2.441,0,0,1-.154-.905,2.15,2.15,0,0,1,.29-1.121,2.572,2.572,0,0,1,.773-.817,3.607,3.607,0,0,1,1.1-.5,4.893,4.893,0,0,1,1.279-.167,5.164,5.164,0,0,1,2.092.4v1.459a4.077,4.077,0,0,0-2.285-.65,2.671,2.671,0,0,0-.729.092,1.786,1.786,0,0,0-.558.259,1.2,1.2,0,0,0-.36.4,1.053,1.053,0,0,0-.127.514,1.233,1.233,0,0,0,.127.589,1.3,1.3,0,0,0,.374.422,2.855,2.855,0,0,0,.6.334q.352.149.8.325a11.131,11.131,0,0,1,1.072.47,3.678,3.678,0,0,1,.809.545,2.129,2.129,0,0,1,.514.7,2.254,2.254,0,0,1,.18.94,2.217,2.217,0,0,1-.294,1.16,2.523,2.523,0,0,1-.787.817,3.6,3.6,0,0,1-1.134.483,5.6,5.6,0,0,1-1.345.158A5.106,5.106,0,0,1,187.753,114.675Zm8.684.519a.933.933,0,0,1-.69-.29.955.955,0,0,1-.286-.694.969.969,0,0,1,.286-.7.926.926,0,0,1,.69-.294.95.95,0,0,1,.7.294.962.962,0,0,1,.29.7.947.947,0,0,1-.29.694A.958.958,0,0,1,196.437,115.193Z" transform="translate(-8.069 -5.676)" fill="#4d1c0d"/>
</svg>
