<svg xmlns="http://www.w3.org/2000/svg" width="260" height="10" viewBox="0 0 260 10">
  <g id="Trazado_65489" data-name="Trazado 65489" fill="#b7cfdf">
    <path d="M5,0H255a5,5,0,0,1,0,10H5A5,5,0,0,1,5,0Z" stroke="none"/>
    <path d="M 5 1 C 2.794403076171875 1 1 2.794400215148926 1 5 C 1 7.205599784851074 2.794403076171875 9 5 9 L 255 9 C 257.2055969238281 9 259 7.205599784851074 259 5 C 259 2.794400215148926 257.2055969238281 1 255 1 L 5 1 M 5 0 L 255 0 C 257.7614135742188 0 260 2.238566875457764 260 5 C 260 7.761433601379395 257.7614135742188 10 255 10 L 5 10 C 2.238555908203125 10 0 7.761433601379395 0 5 C 0 2.238566875457764 2.238555908203125 0 5 0 Z" stroke="none" fill="rgba(236,220,220,0)"/>
  </g>
</svg>
