<svg xmlns="http://www.w3.org/2000/svg" width="70" height="70" viewBox="0 0 70 70">
  <g id="Grupo_24658" data-name="Grupo 24658" transform="translate(14858 9903)">
    <path id="Trazado_6332" data-name="Trazado 6332" d="M29,0A29,29,0,1,1,0,29,29,29,0,0,1,29,0Z" transform="translate(-14852 -9897)" fill="#fff"/>
    <g id="Trazado_6333" data-name="Trazado 6333" transform="translate(-14858 -9903)" fill="none">
      <path d="M35,0A35,35,0,1,1,0,35,35,35,0,0,1,35,0Z" stroke="none"/>
      <path d="M 35 2 C 30.54414367675781 2 26.2226448059082 2.872230529785156 22.15552139282227 4.592475891113281 C 18.22614288330078 6.254467010498047 14.6967887878418 8.634166717529297 11.66547775268555 11.66547775268555 C 8.634166717529297 14.6967887878418 6.254467010498047 18.22614288330078 4.592475891113281 22.15552139282227 C 2.872230529785156 26.2226448059082 2 30.54414367675781 2 35 C 2 39.45585632324219 2.872230529785156 43.7773551940918 4.592475891113281 47.84447860717773 C 6.254467010498047 51.77385711669922 8.634166717529297 55.3032112121582 11.66547775268555 58.33452224731445 C 14.6967887878418 61.3658332824707 18.22614288330078 63.74553298950195 22.15552139282227 65.40752410888672 C 26.2226448059082 67.12776947021484 30.54414367675781 68 35 68 C 39.45585632324219 68 43.7773551940918 67.12776947021484 47.84447860717773 65.40752410888672 C 51.77385711669922 63.74553298950195 55.3032112121582 61.3658332824707 58.33452224731445 58.33452224731445 C 61.3658332824707 55.3032112121582 63.74553298950195 51.77385711669922 65.40752410888672 47.84447860717773 C 67.12776947021484 43.7773551940918 68 39.45585632324219 68 35 C 68 30.54414367675781 67.12776947021484 26.2226448059082 65.40752410888672 22.15552139282227 C 63.74553298950195 18.22614288330078 61.3658332824707 14.6967887878418 58.33452224731445 11.66547775268555 C 55.3032112121582 8.634166717529297 51.77385711669922 6.254467010498047 47.84447860717773 4.592475891113281 C 43.7773551940918 2.872230529785156 39.45585632324219 2 35 2 M 35 0 C 54.3299674987793 0 70 15.6700325012207 70 35 C 70 54.3299674987793 54.3299674987793 70 35 70 C 15.6700325012207 70 0 54.3299674987793 0 35 C 0 15.6700325012207 15.6700325012207 0 35 0 Z" stroke="none" fill="#93f5e5"/>
    </g>
    <path id="Trazado_6334" data-name="Trazado 6334" d="M-8.545,0H-16.8V-26.27L-24.9-23.9v-6.25l15.6-5.4h.757Zm35.4-14.526q0,7.2-3.235,11.108T14.5.488q-5.933,0-9.18-3.931T2.075-14.526v-6.494q0-7.2,3.235-11.108t9.143-3.906q5.908,0,9.155,3.931T26.855-21ZM18.628-22.07a12.678,12.678,0,0,0-1-5.725,3.346,3.346,0,0,0-3.174-1.892,3.266,3.266,0,0,0-3.088,1.758,11.943,11.943,0,0,0-1.038,5.322v9.082a12.774,12.774,0,0,0,1,5.823A3.359,3.359,0,0,0,14.5-5.859a3.313,3.313,0,0,0,3.1-1.794,12.2,12.2,0,0,0,1.025-5.627Z" transform="translate(-14823 -9852)" fill="#5dc2ae"/>
  </g>
</svg>
