<svg xmlns="http://www.w3.org/2000/svg" width="70" height="70" viewBox="0 0 70 70">
  <g id="Grupo_24661" data-name="Grupo 24661" transform="translate(15089 9820)">
    <path id="Trazado_6324" data-name="Trazado 6324" d="M29,0A29,29,0,1,1,0,29,29,29,0,0,1,29,0Z" transform="translate(-15083 -9814)" fill="#fff"/>
    <g id="Trazado_6325" data-name="Trazado 6325" transform="translate(-15089 -9820)" fill="none">
      <path d="M35,0A35,35,0,1,1,0,35,35,35,0,0,1,35,0Z" stroke="none"/>
      <path d="M 35 2 C 30.54414367675781 2 26.2226448059082 2.872230529785156 22.15552139282227 4.592475891113281 C 18.22614288330078 6.254467010498047 14.6967887878418 8.634166717529297 11.66547775268555 11.66547775268555 C 8.634166717529297 14.6967887878418 6.254467010498047 18.22614288330078 4.592475891113281 22.15552139282227 C 2.872230529785156 26.2226448059082 2 30.54414367675781 2 35 C 2 39.45585632324219 2.872230529785156 43.7773551940918 4.592475891113281 47.84447860717773 C 6.254467010498047 51.77385711669922 8.634166717529297 55.3032112121582 11.66547775268555 58.33452224731445 C 14.6967887878418 61.3658332824707 18.22614288330078 63.74553298950195 22.15552139282227 65.40752410888672 C 26.2226448059082 67.12776947021484 30.54414367675781 68 35 68 C 39.45585632324219 68 43.7773551940918 67.12776947021484 47.84447860717773 65.40752410888672 C 51.77385711669922 63.74553298950195 55.3032112121582 61.3658332824707 58.33452224731445 58.33452224731445 C 61.3658332824707 55.3032112121582 63.74553298950195 51.77385711669922 65.40752410888672 47.84447860717773 C 67.12776947021484 43.7773551940918 68 39.45585632324219 68 35 C 68 30.54414367675781 67.12776947021484 26.2226448059082 65.40752410888672 22.15552139282227 C 63.74553298950195 18.22614288330078 61.3658332824707 14.6967887878418 58.33452224731445 11.66547775268555 C 55.3032112121582 8.634166717529297 51.77385711669922 6.254467010498047 47.84447860717773 4.592475891113281 C 43.7773551940918 2.872230529785156 39.45585632324219 2 35 2 M 35 0 C 54.3299674987793 0 70 15.6700325012207 70 35 C 70 54.3299674987793 54.3299674987793 70 35 70 C 15.6700325012207 70 0 54.3299674987793 0 35 C 0 15.6700325012207 15.6700325012207 0 35 0 Z" stroke="none" fill="#93f5e5"/>
    </g>
    <path id="Trazado_6326" data-name="Trazado 6326" d="M-8.545,0H-16.8V-26.27L-24.9-23.9v-6.25l15.6-5.4h.757ZM9.692-21.216h3.882q4.614,0,4.614-4.517a3.905,3.905,0,0,0-1.1-2.869,4.166,4.166,0,0,0-3.1-1.111,4.46,4.46,0,0,0-2.844.952,2.9,2.9,0,0,0-1.208,2.368H1.709a8.422,8.422,0,0,1,1.563-5A10.318,10.318,0,0,1,7.6-34.827,14.816,14.816,0,0,1,13.7-36.06q5.933,0,9.326,2.71A9.009,9.009,0,0,1,26.416-25.9a7.509,7.509,0,0,1-1.4,4.333,10.005,10.005,0,0,1-4.089,3.308,9.557,9.557,0,0,1,4.443,3.113,8.2,8.2,0,0,1,1.611,5.164,9.172,9.172,0,0,1-3.662,7.617Q19.653.488,13.7.488A15.764,15.764,0,0,1,7.214-.842,10.156,10.156,0,0,1,2.686-4.529,9.584,9.584,0,0,1,1.147-9.888H9.424a3.7,3.7,0,0,0,1.318,2.832,4.654,4.654,0,0,0,3.247,1.2,4.875,4.875,0,0,0,3.467-1.208,4.039,4.039,0,0,0,1.294-3.088,4.722,4.722,0,0,0-1.343-3.809A5.613,5.613,0,0,0,13.7-15.088h-4Z" transform="translate(-15054 -9769)" fill="#5dc2ae"/>
  </g>
</svg>
