<svg xmlns="http://www.w3.org/2000/svg" width="70" height="70" viewBox="0 0 70 70">
  <g id="Grupo_24667" data-name="Grupo 24667" transform="translate(15082 9514)">
    <path id="Trazado_6354" data-name="Trazado 6354" d="M29,0A29,29,0,1,1,0,29,29,29,0,0,1,29,0Z" transform="translate(-15076 -9508)" fill="#fff"/>
    <g id="Trazado_6355" data-name="Trazado 6355" transform="translate(-15082 -9514)" fill="none">
      <path d="M35,0A35,35,0,1,1,0,35,35,35,0,0,1,35,0Z" stroke="none"/>
      <path d="M 35 2 C 30.54414367675781 2 26.2226448059082 2.872230529785156 22.15552139282227 4.592475891113281 C 18.22614288330078 6.254467010498047 14.6967887878418 8.634166717529297 11.66547775268555 11.66547775268555 C 8.634166717529297 14.6967887878418 6.254467010498047 18.22614288330078 4.592475891113281 22.15552139282227 C 2.872230529785156 26.2226448059082 2 30.54414367675781 2 35 C 2 39.45585632324219 2.872230529785156 43.7773551940918 4.592475891113281 47.84447860717773 C 6.254467010498047 51.77385711669922 8.634166717529297 55.3032112121582 11.66547775268555 58.33452224731445 C 14.6967887878418 61.3658332824707 18.22614288330078 63.74553298950195 22.15552139282227 65.40752410888672 C 26.2226448059082 67.12776947021484 30.54414367675781 68 35 68 C 39.45585632324219 68 43.7773551940918 67.12776947021484 47.84447860717773 65.40752410888672 C 51.77385711669922 63.74553298950195 55.3032112121582 61.3658332824707 58.33452224731445 58.33452224731445 C 61.3658332824707 55.3032112121582 63.74553298950195 51.77385711669922 65.40752410888672 47.84447860717773 C 67.12776947021484 43.7773551940918 68 39.45585632324219 68 35 C 68 30.54414367675781 67.12776947021484 26.2226448059082 65.40752410888672 22.15552139282227 C 63.74553298950195 18.22614288330078 61.3658332824707 14.6967887878418 58.33452224731445 11.66547775268555 C 55.3032112121582 8.634166717529297 51.77385711669922 6.254467010498047 47.84447860717773 4.592475891113281 C 43.7773551940918 2.872230529785156 39.45585632324219 2 35 2 M 35 0 C 54.3299674987793 0 70 15.6700325012207 70 35 C 70 54.3299674987793 54.3299674987793 70 35 70 C 15.6700325012207 70 0 54.3299674987793 0 35 C 0 15.6700325012207 15.6700325012207 0 35 0 Z" stroke="none" fill="#e8397c"/>
    </g>
    <path id="Trazado_6356" data-name="Trazado 6356" d="M-11.816-17.383l2.173-18.164H11.133v6.4H-2.954l-.806,7.056A9.73,9.73,0,0,1-1.453-23a10.57,10.57,0,0,1,2.8-.391q5.3,0,8.142,3.137t2.844,8.8A12.614,12.614,0,0,1,10.8-5.261,10.488,10.488,0,0,1,6.519-1,13.527,13.527,0,0,1,0,.488,14.545,14.545,0,0,1-6.274-.891a11.259,11.259,0,0,1-4.59-3.784A9.2,9.2,0,0,1-12.5-10.107h8.252A4.682,4.682,0,0,0-3-7.007,3.948,3.948,0,0,0-.049-5.859q4.15,0,4.15-6.152Q4.1-17.7-.977-17.7a5.063,5.063,0,0,0-4.3,1.855Z" transform="translate(-15047 -9463)" fill="#e8397c"/>
  </g>
</svg>
