<svg xmlns="http://www.w3.org/2000/svg" width="70" height="70" viewBox="0 0 70 70">
  <g id="Grupo_24654" data-name="Grupo 24654" transform="translate(14696 9986)">
    <path id="Trazado_6344" data-name="Trazado 6344" d="M29,0A29,29,0,1,1,0,29,29,29,0,0,1,29,0Z" transform="translate(-14690 -9980)" fill="#fff"/>
    <g id="Trazado_6342" data-name="Trazado 6342" transform="translate(-14696 -9986)" fill="none">
      <path d="M35,0A35,35,0,1,1,0,35,35,35,0,0,1,35,0Z" stroke="none"/>
      <path d="M 35 2 C 30.54414367675781 2 26.2226448059082 2.872230529785156 22.15552139282227 4.592475891113281 C 18.22614288330078 6.254467010498047 14.6967887878418 8.634166717529297 11.66547775268555 11.66547775268555 C 8.634166717529297 14.6967887878418 6.254467010498047 18.22614288330078 4.592475891113281 22.15552139282227 C 2.872230529785156 26.2226448059082 2 30.54414367675781 2 35 C 2 39.45585632324219 2.872230529785156 43.7773551940918 4.592475891113281 47.84447860717773 C 6.254467010498047 51.77385711669922 8.634166717529297 55.3032112121582 11.66547775268555 58.33452224731445 C 14.6967887878418 61.3658332824707 18.22614288330078 63.74553298950195 22.15552139282227 65.40752410888672 C 26.2226448059082 67.12776947021484 30.54414367675781 68 35 68 C 39.45585632324219 68 43.7773551940918 67.12776947021484 47.84447860717773 65.40752410888672 C 51.77385711669922 63.74553298950195 55.3032112121582 61.3658332824707 58.33452224731445 58.33452224731445 C 61.3658332824707 55.3032112121582 63.74553298950195 51.77385711669922 65.40752410888672 47.84447860717773 C 67.12776947021484 43.7773551940918 68 39.45585632324219 68 35 C 68 30.54414367675781 67.12776947021484 26.2226448059082 65.40752410888672 22.15552139282227 C 63.74553298950195 18.22614288330078 61.3658332824707 14.6967887878418 58.33452224731445 11.66547775268555 C 55.3032112121582 8.634166717529297 51.77385711669922 6.254467010498047 47.84447860717773 4.592475891113281 C 43.7773551940918 2.872230529785156 39.45585632324219 2 35 2 M 35 0 C 54.3299674987793 0 70 15.6700325012207 70 35 C 70 54.3299674987793 54.3299674987793 70 35 70 C 15.6700325012207 70 0 54.3299674987793 0 35 C 0 15.6700325012207 15.6700325012207 0 35 0 Z" stroke="none" fill="#93f5e5"/>
    </g>
    <path id="Trazado_6347" data-name="Trazado 6347" d="M7.568-36.06v6.47H7.2A12.352,12.352,0,0,0-.378-27.38a9.329,9.329,0,0,0-3.65,6.14A9.621,9.621,0,0,1,3-23.975a8.974,8.974,0,0,1,7.349,3.369,13.589,13.589,0,0,1,2.734,8.838,12.444,12.444,0,0,1-1.6,6.226A11.41,11.41,0,0,1,7.019-1.111,12.838,12.838,0,0,1,.659.488,13.268,13.268,0,0,1-6.1-1.233a11.834,11.834,0,0,1-4.639-4.919,16.2,16.2,0,0,1-1.709-7.373v-3.3A20.521,20.521,0,0,1-10.1-26.7a17.08,17.08,0,0,1,6.726-6.873,19.23,19.23,0,0,1,9.692-2.49ZM.146-17.676a4.707,4.707,0,0,0-2.734.757,4.8,4.8,0,0,0-1.636,1.855V-12.6q0,6.738,4.663,6.738A3.783,3.783,0,0,0,3.577-7.544a6.866,6.866,0,0,0,1.257-4.224,6.739,6.739,0,0,0-1.282-4.26A4.1,4.1,0,0,0,.146-17.676Z" transform="translate(-14661 -9935)" fill="#5dc2ae"/>
  </g>
</svg>
