<svg xmlns="http://www.w3.org/2000/svg" width="70" height="70" viewBox="0 0 70 70">
  <g id="Grupo_24668" data-name="Grupo 24668" transform="translate(14833 9514)">
    <path id="Trazado_6378" data-name="Trazado 6378" d="M29,0A29,29,0,1,1,0,29,29,29,0,0,1,29,0Z" transform="translate(-14827 -9508)" fill="#fff"/>
    <g id="Trazado_6379" data-name="Trazado 6379" transform="translate(-14833 -9514)" fill="none">
      <path d="M35,0A35,35,0,1,1,0,35,35,35,0,0,1,35,0Z" stroke="none"/>
      <path d="M 35 2 C 30.54414367675781 2 26.2226448059082 2.872230529785156 22.15552139282227 4.592475891113281 C 18.22614288330078 6.254467010498047 14.6967887878418 8.634166717529297 11.66547775268555 11.66547775268555 C 8.634166717529297 14.6967887878418 6.254467010498047 18.22614288330078 4.592475891113281 22.15552139282227 C 2.872230529785156 26.2226448059082 2 30.54414367675781 2 35 C 2 39.45585632324219 2.872230529785156 43.7773551940918 4.592475891113281 47.84447860717773 C 6.254467010498047 51.77385711669922 8.634166717529297 55.3032112121582 11.66547775268555 58.33452224731445 C 14.6967887878418 61.3658332824707 18.22614288330078 63.74553298950195 22.15552139282227 65.40752410888672 C 26.2226448059082 67.12776947021484 30.54414367675781 68 35 68 C 39.45585632324219 68 43.7773551940918 67.12776947021484 47.84447860717773 65.40752410888672 C 51.77385711669922 63.74553298950195 55.3032112121582 61.3658332824707 58.33452224731445 58.33452224731445 C 61.3658332824707 55.3032112121582 63.74553298950195 51.77385711669922 65.40752410888672 47.84447860717773 C 67.12776947021484 43.7773551940918 68 39.45585632324219 68 35 C 68 30.54414367675781 67.12776947021484 26.2226448059082 65.40752410888672 22.15552139282227 C 63.74553298950195 18.22614288330078 61.3658332824707 14.6967887878418 58.33452224731445 11.66547775268555 C 55.3032112121582 8.634166717529297 51.77385711669922 6.254467010498047 47.84447860717773 4.592475891113281 C 43.7773551940918 2.872230529785156 39.45585632324219 2 35 2 M 35 0 C 54.3299674987793 0 70 15.6700325012207 70 35 C 70 54.3299674987793 54.3299674987793 70 35 70 C 15.6700325012207 70 0 54.3299674987793 0 35 C 0 15.6700325012207 15.6700325012207 0 35 0 Z" stroke="none" fill="#e8397c"/>
    </g>
    <path id="Trazado_6380" data-name="Trazado 6380" d="M11.67-26.05a8.206,8.206,0,0,1-1.282,4.565A9.335,9.335,0,0,1,6.86-18.311,10.273,10.273,0,0,1,10.889-14.9,8.789,8.789,0,0,1,12.378-9.79a9.3,9.3,0,0,1-3.284,7.52Q5.811.488.049.488q-5.786,0-9.131-2.771A9.237,9.237,0,0,1-12.427-9.79a8.9,8.9,0,0,1,1.465-5.054,9.961,9.961,0,0,1,4.15-3.467,9.388,9.388,0,0,1-3.564-3.174A8.149,8.149,0,0,1-11.67-26.05a9.121,9.121,0,0,1,3.149-7.324q3.149-2.686,8.5-2.686,5.4,0,8.545,2.686A9.121,9.121,0,0,1,11.67-26.05Zm-7.544,15.6a4.693,4.693,0,0,0-1.135-3.381A3.953,3.953,0,0,0,0-15.015a3.993,3.993,0,0,0-3,1.184A4.662,4.662,0,0,0-4.15-10.449a4.7,4.7,0,0,0,1.16,3.357A3.98,3.98,0,0,0,.049-5.859,3.825,3.825,0,0,0,3-7.08,4.787,4.787,0,0,0,4.126-10.449ZM-.024-29.712a3.041,3.041,0,0,0-2.527,1.086,4.715,4.715,0,0,0-.867,3.015,5,5,0,0,0,.879,3.076A3.032,3.032,0,0,0,.049-21.362a2.908,2.908,0,0,0,2.527-1.172,5.155,5.155,0,0,0,.842-3.076,4.725,4.725,0,0,0-.867-3A3.081,3.081,0,0,0-.024-29.712Z" transform="translate(-14798 -9463)" fill="#e8397c"/>
  </g>
</svg>
