<svg xmlns="http://www.w3.org/2000/svg" width="70" height="70" viewBox="0 0 70 70">
  <g id="Grupo_24657" data-name="Grupo 24657" transform="translate(14935 9903)">
    <path id="Trazado_6321" data-name="Trazado 6321" d="M29,0A29,29,0,1,1,0,29,29,29,0,0,1,29,0Z" transform="translate(-14929 -9897)" fill="#fff"/>
    <g id="Trazado_6322" data-name="Trazado 6322" transform="translate(-14935 -9903)" fill="none">
      <path d="M35,0A35,35,0,1,1,0,35,35,35,0,0,1,35,0Z" stroke="none"/>
      <path d="M 35 2 C 30.54414367675781 2 26.2226448059082 2.872230529785156 22.15552139282227 4.592475891113281 C 18.22614288330078 6.254467010498047 14.6967887878418 8.634166717529297 11.66547775268555 11.66547775268555 C 8.634166717529297 14.6967887878418 6.254467010498047 18.22614288330078 4.592475891113281 22.15552139282227 C 2.872230529785156 26.2226448059082 2 30.54414367675781 2 35 C 2 39.45585632324219 2.872230529785156 43.7773551940918 4.592475891113281 47.84447860717773 C 6.254467010498047 51.77385711669922 8.634166717529297 55.3032112121582 11.66547775268555 58.33452224731445 C 14.6967887878418 61.3658332824707 18.22614288330078 63.74553298950195 22.15552139282227 65.40752410888672 C 26.2226448059082 67.12776947021484 30.54414367675781 68 35 68 C 39.45585632324219 68 43.7773551940918 67.12776947021484 47.84447860717773 65.40752410888672 C 51.77385711669922 63.74553298950195 55.3032112121582 61.3658332824707 58.33452224731445 58.33452224731445 C 61.3658332824707 55.3032112121582 63.74553298950195 51.77385711669922 65.40752410888672 47.84447860717773 C 67.12776947021484 43.7773551940918 68 39.45585632324219 68 35 C 68 30.54414367675781 67.12776947021484 26.2226448059082 65.40752410888672 22.15552139282227 C 63.74553298950195 18.22614288330078 61.3658332824707 14.6967887878418 58.33452224731445 11.66547775268555 C 55.3032112121582 8.634166717529297 51.77385711669922 6.254467010498047 47.84447860717773 4.592475891113281 C 43.7773551940918 2.872230529785156 39.45585632324219 2 35 2 M 35 0 C 54.3299674987793 0 70 15.6700325012207 70 35 C 70 54.3299674987793 54.3299674987793 70 35 70 C 15.6700325012207 70 0 54.3299674987793 0 35 C 0 15.6700325012207 15.6700325012207 0 35 0 Z" stroke="none" fill="#93f5e5"/>
    </g>
    <path id="Trazado_6323" data-name="Trazado 6323" d="M3.906-13.745a8.69,8.69,0,0,1-5.957,2.393,9.619,9.619,0,0,1-7.666-3.271,12.889,12.889,0,0,1-2.832-8.74,13.117,13.117,0,0,1,1.587-6.348,11.907,11.907,0,0,1,4.456-4.639A12.147,12.147,0,0,1-.171-36.06a11.792,11.792,0,0,1,6.36,1.77,11.917,11.917,0,0,1,4.431,5,17.192,17.192,0,0,1,1.636,7.458v3.149A21.369,21.369,0,0,1,9.949-8.472a15.927,15.927,0,0,1-6.58,6.641A20.559,20.559,0,0,1-6.592.488H-7.1V-6.1l1.563-.024Q2.954-6.543,3.906-13.745ZM.171-17.285A4.005,4.005,0,0,0,4.028-19.6v-3.418a8.887,8.887,0,0,0-1.147-5.054,3.6,3.6,0,0,0-3.1-1.636,3.4,3.4,0,0,0-2.905,1.855A8.243,8.243,0,0,0-4.3-23.364a7.391,7.391,0,0,0,1.2,4.431A3.827,3.827,0,0,0,.171-17.285Z" transform="translate(-14900 -9852)" fill="#5dc2ae"/>
  </g>
</svg>
