<svg xmlns="http://www.w3.org/2000/svg" width="1313" height="223" viewBox="0 0 1313 223">
  <g id="Grupo_24649" data-name="Grupo 24649" transform="translate(14511 4723)">
    <path id="Trazado_6313" data-name="Trazado 6313" d="M5,0H391a5,5,0,0,1,5,5V53a5,5,0,0,1-5,5H5a5,5,0,0,1-5-5V5A5,5,0,0,1,5,0Z" transform="translate(-14046 -4723)" fill="#022644"/>
    <path id="Trazado_6314" data-name="Trazado 6314" d="M12.344-1.846A4.724,4.724,0,0,1,10.205-.322,8.726,8.726,0,0,1,7.1.2,6.119,6.119,0,0,1,3.936-.615,5.4,5.4,0,0,1,1.812-2.935a8.114,8.114,0,0,1-.776-3.521V-7.568A7.525,7.525,0,0,1,2.578-12.6a5.351,5.351,0,0,1,4.307-1.812,5.678,5.678,0,0,1,3.77,1.172,5.051,5.051,0,0,1,1.68,3.379H9.912a2.725,2.725,0,0,0-2.979-2.568,2.919,2.919,0,0,0-2.524,1.2,6.1,6.1,0,0,0-.894,3.511v1.094a5.792,5.792,0,0,0,.972,3.579,3.2,3.2,0,0,0,2.7,1.274,3.56,3.56,0,0,0,2.7-.859V-5.42H6.953V-7.295h5.391ZM19.482.2a4.91,4.91,0,0,1-3.657-1.421,5.154,5.154,0,0,1-1.4-3.784V-5.3a6.34,6.34,0,0,1,.61-2.827,4.645,4.645,0,0,1,1.714-1.938,4.531,4.531,0,0,1,2.461-.693,4.147,4.147,0,0,1,3.335,1.377,5.823,5.823,0,0,1,1.177,3.9v.957h-6.9a3.173,3.173,0,0,0,.874,2.07,2.624,2.624,0,0,0,1.929.762,3.213,3.213,0,0,0,2.656-1.318L23.555-1.8A4.272,4.272,0,0,1,21.86-.327,5.3,5.3,0,0,1,19.482.2ZM19.2-8.857a2,2,0,0,0-1.577.684,3.543,3.543,0,0,0-.767,1.9h4.521v-.176a2.884,2.884,0,0,0-.635-1.8A1.983,1.983,0,0,0,19.2-8.857ZM31.094-8.4a5.872,5.872,0,0,0-.967-.078,2.177,2.177,0,0,0-2.2,1.25V0H25.557V-10.566h2.266l.059,1.182a2.674,2.674,0,0,1,2.383-1.377,2.222,2.222,0,0,1,.84.137ZM37.061.2A4.91,4.91,0,0,1,33.4-1.226,5.154,5.154,0,0,1,32-5.01V-5.3a6.34,6.34,0,0,1,.61-2.827,4.646,4.646,0,0,1,1.714-1.938,4.531,4.531,0,0,1,2.461-.693,4.147,4.147,0,0,1,3.335,1.377,5.823,5.823,0,0,1,1.177,3.9v.957h-6.9a3.173,3.173,0,0,0,.874,2.07A2.624,2.624,0,0,0,37.2-1.7a3.213,3.213,0,0,0,2.656-1.318L41.133-1.8a4.272,4.272,0,0,1-1.694,1.47A5.3,5.3,0,0,1,37.061.2Zm-.283-9.053a2,2,0,0,0-1.577.684,3.543,3.543,0,0,0-.767,1.9h4.521v-.176a2.884,2.884,0,0,0-.635-1.8A1.983,1.983,0,0,0,36.777-8.857Zm8.564-1.709.068,1.221a3.8,3.8,0,0,1,3.076-1.416q3.3,0,3.359,3.779V0H49.473V-6.846a2.176,2.176,0,0,0-.435-1.489,1.828,1.828,0,0,0-1.421-.483,2.287,2.287,0,0,0-2.139,1.3V0H43.105V-10.566ZM58.6-1.7a2.146,2.146,0,0,0,1.475-.518A1.768,1.768,0,0,0,60.7-3.5h2.236a3.486,3.486,0,0,1-.615,1.841A4.035,4.035,0,0,1,60.762-.3a4.656,4.656,0,0,1-2.129.5A4.505,4.505,0,0,1,55.117-1.24a5.694,5.694,0,0,1-1.3-3.965v-.244a5.6,5.6,0,0,1,1.289-3.862,4.464,4.464,0,0,1,3.516-1.45,4.341,4.341,0,0,1,3.071,1.1,3.935,3.935,0,0,1,1.245,2.886H60.7a2.173,2.173,0,0,0-.62-1.494A2,2,0,0,0,58.6-8.857a2.088,2.088,0,0,0-1.777.835,4.261,4.261,0,0,0-.635,2.534v.381a4.331,4.331,0,0,0,.62,2.563A2.086,2.086,0,0,0,58.6-1.7ZM67.256,0H64.883V-10.566h2.373Zm-2.52-13.311a1.259,1.259,0,0,1,.347-.908,1.309,1.309,0,0,1,.991-.361,1.326,1.326,0,0,1,1,.361,1.25,1.25,0,0,1,.352.908,1.221,1.221,0,0,1-.352.894,1.336,1.336,0,0,1-1,.356,1.32,1.32,0,0,1-.991-.356A1.23,1.23,0,0,1,64.736-13.311ZM76.152,0a3.662,3.662,0,0,1-.273-.986A3.694,3.694,0,0,1,73.105.2a3.728,3.728,0,0,1-2.6-.908A2.906,2.906,0,0,1,69.5-2.959a3,3,0,0,1,1.255-2.593,6.081,6.081,0,0,1,3.589-.9H75.8v-.693a1.851,1.851,0,0,0-.459-1.313,1.819,1.819,0,0,0-1.4-.493,2.09,2.09,0,0,0-1.328.405A1.254,1.254,0,0,0,72.1-7.52H69.727A2.634,2.634,0,0,1,70.3-9.146a3.839,3.839,0,0,1,1.567-1.187,5.506,5.506,0,0,1,2.212-.43,4.434,4.434,0,0,1,2.959.933,3.326,3.326,0,0,1,1.133,2.622v4.766a5.4,5.4,0,0,0,.4,2.275V0ZM73.545-1.709a2.7,2.7,0,0,0,1.323-.342,2.284,2.284,0,0,0,.933-.918V-4.961H74.521a3.5,3.5,0,0,0-1.982.459,1.487,1.487,0,0,0-.664,1.3,1.387,1.387,0,0,0,.454,1.089A1.758,1.758,0,0,0,73.545-1.709Zm20.283-1.6H88.32L87.168,0H84.6l5.371-14.219h2.217L97.568,0H94.99ZM89.014-5.3h4.121l-2.061-5.9Zm9.492-.059a6.282,6.282,0,0,1,1.133-3.921,3.63,3.63,0,0,1,3.037-1.479,3.449,3.449,0,0,1,2.715,1.172V-15h2.373V0h-2.148L105.5-1.094A3.5,3.5,0,0,1,102.656.2a3.609,3.609,0,0,1-3-1.494A6.512,6.512,0,0,1,98.506-5.361Zm2.373.205a4.4,4.4,0,0,0,.62,2.515,2.012,2.012,0,0,0,1.763.9,2.241,2.241,0,0,0,2.129-1.3V-7.549a2.207,2.207,0,0,0-2.109-1.27,2.027,2.027,0,0,0-1.777.913A4.9,4.9,0,0,0,100.879-5.156Zm11.592-5.41.068,1.1a3.8,3.8,0,0,1,3.047-1.3,2.921,2.921,0,0,1,2.9,1.621,3.748,3.748,0,0,1,3.242-1.621,3.294,3.294,0,0,1,2.6.967,4.257,4.257,0,0,1,.874,2.852V0h-2.373V-6.875a2.1,2.1,0,0,0-.439-1.475,1.924,1.924,0,0,0-1.455-.469,1.976,1.976,0,0,0-1.323.435,2.292,2.292,0,0,0-.718,1.138L118.906,0h-2.373V-6.953a1.693,1.693,0,0,0-1.9-1.865,2.089,2.089,0,0,0-2.021,1.162V0h-2.373V-10.566ZM130.166,0h-2.373V-10.566h2.373Zm-2.52-13.311a1.259,1.259,0,0,1,.347-.908,1.309,1.309,0,0,1,.991-.361,1.326,1.326,0,0,1,1,.361,1.25,1.25,0,0,1,.352.908,1.221,1.221,0,0,1-.352.894,1.336,1.336,0,0,1-1,.356,1.32,1.32,0,0,1-.991-.356A1.23,1.23,0,0,1,127.646-13.311Zm7.3,2.744.068,1.221a3.8,3.8,0,0,1,3.076-1.416q3.3,0,3.359,3.779V0h-2.373V-6.846a2.176,2.176,0,0,0-.435-1.489,1.828,1.828,0,0,0-1.421-.483,2.287,2.287,0,0,0-2.139,1.3V0h-2.373V-10.566ZM146.4,0h-2.373V-10.566H146.4Zm-2.52-13.311a1.259,1.259,0,0,1,.347-.908,1.309,1.309,0,0,1,.991-.361,1.326,1.326,0,0,1,1,.361,1.25,1.25,0,0,1,.352.908,1.221,1.221,0,0,1-.352.894,1.336,1.336,0,0,1-1,.356,1.32,1.32,0,0,1-.991-.356A1.23,1.23,0,0,1,143.877-13.311ZM154.9-2.871a1.076,1.076,0,0,0-.522-.967,5.557,5.557,0,0,0-1.733-.586,8.911,8.911,0,0,1-2.021-.645,2.7,2.7,0,0,1-1.777-2.49A2.813,2.813,0,0,1,150-9.844a4.556,4.556,0,0,1,2.93-.918,4.74,4.74,0,0,1,3.062.938,2.975,2.975,0,0,1,1.167,2.432h-2.373a1.462,1.462,0,0,0-.508-1.138,1.946,1.946,0,0,0-1.348-.454,2.1,2.1,0,0,0-1.274.361,1.139,1.139,0,0,0-.493.967.962.962,0,0,0,.459.85,6.312,6.312,0,0,0,1.855.61,8.783,8.783,0,0,1,2.192.732,3.1,3.1,0,0,1,1.182,1.021A2.6,2.6,0,0,1,157.236-3a2.753,2.753,0,0,1-1.182,2.31,5.039,5.039,0,0,1-3.1.884,5.464,5.464,0,0,1-2.314-.469,3.809,3.809,0,0,1-1.582-1.289A3.051,3.051,0,0,1,148.5-3.33h2.3a1.672,1.672,0,0,0,.635,1.294,2.467,2.467,0,0,0,1.553.454,2.4,2.4,0,0,0,1.426-.356A1.1,1.1,0,0,0,154.9-2.871Zm7.373-10.264v2.568h1.865v1.758h-1.865v5.9a1.3,1.3,0,0,0,.239.874,1.109,1.109,0,0,0,.854.269,3.656,3.656,0,0,0,.83-.1V-.029A5.845,5.845,0,0,1,162.637.2Q159.9.2,159.9-2.822V-8.809h-1.738v-1.758H159.9v-2.568ZM171.484-8.4a5.872,5.872,0,0,0-.967-.078,2.177,2.177,0,0,0-2.2,1.25V0h-2.373V-10.566h2.266l.059,1.182a2.674,2.674,0,0,1,2.383-1.377,2.222,2.222,0,0,1,.84.137ZM179,0a3.662,3.662,0,0,1-.273-.986A3.694,3.694,0,0,1,175.957.2a3.728,3.728,0,0,1-2.6-.908,2.906,2.906,0,0,1-1.006-2.246,3,3,0,0,1,1.255-2.593,6.081,6.081,0,0,1,3.589-.9h1.455v-.693a1.851,1.851,0,0,0-.459-1.313,1.819,1.819,0,0,0-1.4-.493,2.09,2.09,0,0,0-1.328.405,1.254,1.254,0,0,0-.518,1.03h-2.373a2.634,2.634,0,0,1,.576-1.626,3.838,3.838,0,0,1,1.567-1.187,5.506,5.506,0,0,1,2.212-.43,4.434,4.434,0,0,1,2.959.933,3.326,3.326,0,0,1,1.133,2.622v4.766a5.4,5.4,0,0,0,.4,2.275V0ZM176.4-1.709a2.7,2.7,0,0,0,1.323-.342,2.284,2.284,0,0,0,.933-.918V-4.961h-1.279a3.5,3.5,0,0,0-1.982.459,1.487,1.487,0,0,0-.664,1.3,1.387,1.387,0,0,0,.454,1.089A1.758,1.758,0,0,0,176.4-1.709Zm10.088-11.426v2.568h1.865v1.758h-1.865v5.9a1.3,1.3,0,0,0,.239.874,1.109,1.109,0,0,0,.854.269,3.656,3.656,0,0,0,.83-.1V-.029A5.845,5.845,0,0,1,186.846.2q-2.734,0-2.734-3.018V-8.809h-1.738v-1.758h1.738v-2.568ZM192.686,0h-2.373V-10.566h2.373Zm-2.52-13.311a1.259,1.259,0,0,1,.347-.908,1.309,1.309,0,0,1,.991-.361,1.326,1.326,0,0,1,1,.361,1.25,1.25,0,0,1,.352.908,1.221,1.221,0,0,1-.352.894,1.336,1.336,0,0,1-1,.356,1.32,1.32,0,0,1-.991-.356A1.23,1.23,0,0,1,190.166-13.311Zm8.828,10.3,2.236-7.559h2.451L200.02,0h-2.061l-3.691-10.566h2.461ZM211.328,0a3.662,3.662,0,0,1-.273-.986A3.694,3.694,0,0,1,208.281.2a3.728,3.728,0,0,1-2.6-.908,2.906,2.906,0,0,1-1.006-2.246,3,3,0,0,1,1.255-2.593,6.081,6.081,0,0,1,3.589-.9h1.455v-.693a1.851,1.851,0,0,0-.459-1.313,1.819,1.819,0,0,0-1.4-.493,2.09,2.09,0,0,0-1.328.405,1.254,1.254,0,0,0-.518,1.03H204.9a2.634,2.634,0,0,1,.576-1.626,3.838,3.838,0,0,1,1.567-1.187,5.506,5.506,0,0,1,2.212-.43,4.434,4.434,0,0,1,2.959.933,3.326,3.326,0,0,1,1.133,2.622v4.766a5.4,5.4,0,0,0,.4,2.275V0Zm-2.607-1.709a2.7,2.7,0,0,0,1.323-.342,2.284,2.284,0,0,0,.933-.918V-4.961H209.7a3.5,3.5,0,0,0-1.982.459,1.487,1.487,0,0,0-.664,1.3,1.387,1.387,0,0,0,.454,1.089A1.758,1.758,0,0,0,208.721-1.709ZM224.512-3.4l2.148-7.168h2.529L224.99,1.6q-.967,2.666-3.281,2.666a4.251,4.251,0,0,1-1.143-.176V2.256l.449.029a2.309,2.309,0,0,0,1.353-.327,2.169,2.169,0,0,0,.718-1.1l.342-.908-3.711-10.518h2.559Zm19.443-2.627h-5.723V0h-2.471V-14.219h9.033v1.992h-6.562V-8h5.723ZM249.043,0H246.67V-10.566h2.373Zm-2.52-13.311a1.259,1.259,0,0,1,.347-.908,1.309,1.309,0,0,1,.991-.361,1.326,1.326,0,0,1,1,.361,1.25,1.25,0,0,1,.352.908,1.221,1.221,0,0,1-.352.894,1.336,1.336,0,0,1-1,.356,1.32,1.32,0,0,1-.991-.356A1.23,1.23,0,0,1,246.523-13.311Zm7.3,2.744.068,1.221a3.8,3.8,0,0,1,3.076-1.416q3.3,0,3.359,3.779V0h-2.373V-6.846a2.176,2.176,0,0,0-.435-1.489,1.828,1.828,0,0,0-1.421-.483,2.287,2.287,0,0,0-2.139,1.3V0h-2.373V-10.566ZM269.063,0a3.663,3.663,0,0,1-.273-.986A3.694,3.694,0,0,1,266.016.2a3.728,3.728,0,0,1-2.6-.908,2.906,2.906,0,0,1-1.006-2.246,3,3,0,0,1,1.255-2.593,6.081,6.081,0,0,1,3.589-.9h1.455v-.693a1.851,1.851,0,0,0-.459-1.313,1.819,1.819,0,0,0-1.4-.493,2.09,2.09,0,0,0-1.328.405,1.254,1.254,0,0,0-.518,1.03h-2.373a2.634,2.634,0,0,1,.576-1.626,3.839,3.839,0,0,1,1.567-1.187,5.505,5.505,0,0,1,2.212-.43,4.434,4.434,0,0,1,2.959.933,3.326,3.326,0,0,1,1.133,2.622v4.766a5.4,5.4,0,0,0,.4,2.275V0Zm-2.607-1.709a2.7,2.7,0,0,0,1.323-.342,2.284,2.284,0,0,0,.933-.918V-4.961h-1.279a3.5,3.5,0,0,0-1.982.459,1.487,1.487,0,0,0-.664,1.3,1.387,1.387,0,0,0,.454,1.089A1.758,1.758,0,0,0,266.455-1.709Zm9.316-8.857.068,1.221a3.8,3.8,0,0,1,3.076-1.416q3.3,0,3.359,3.779V0H279.9V-6.846a2.176,2.176,0,0,0-.435-1.489,1.828,1.828,0,0,0-1.421-.483,2.287,2.287,0,0,0-2.139,1.3V0h-2.373V-10.566ZM289.033-1.7a2.146,2.146,0,0,0,1.475-.518,1.768,1.768,0,0,0,.625-1.279h2.236a3.485,3.485,0,0,1-.615,1.841A4.035,4.035,0,0,1,291.191-.3a4.656,4.656,0,0,1-2.129.5,4.505,4.505,0,0,1-3.516-1.436,5.694,5.694,0,0,1-1.3-3.965v-.244a5.6,5.6,0,0,1,1.289-3.862,4.464,4.464,0,0,1,3.516-1.45,4.341,4.341,0,0,1,3.071,1.1,3.935,3.935,0,0,1,1.245,2.886h-2.236a2.173,2.173,0,0,0-.62-1.494,2,2,0,0,0-1.479-.586,2.088,2.088,0,0,0-1.777.835,4.261,4.261,0,0,0-.635,2.534v.381a4.331,4.331,0,0,0,.62,2.563A2.086,2.086,0,0,0,289.033-1.7ZM297.686,0h-2.373V-10.566h2.373Zm-2.52-13.311a1.259,1.259,0,0,1,.347-.908,1.309,1.309,0,0,1,.991-.361,1.326,1.326,0,0,1,1,.361,1.25,1.25,0,0,1,.352.908,1.221,1.221,0,0,1-.352.894,1.336,1.336,0,0,1-1,.356,1.32,1.32,0,0,1-.991-.356A1.23,1.23,0,0,1,295.166-13.311ZM304.922.2a4.91,4.91,0,0,1-3.657-1.421,5.154,5.154,0,0,1-1.4-3.784V-5.3a6.34,6.34,0,0,1,.61-2.827,4.645,4.645,0,0,1,1.714-1.938,4.531,4.531,0,0,1,2.461-.693,4.147,4.147,0,0,1,3.335,1.377,5.822,5.822,0,0,1,1.177,3.9v.957h-6.9a3.173,3.173,0,0,0,.874,2.07,2.624,2.624,0,0,0,1.929.762,3.213,3.213,0,0,0,2.656-1.318L308.994-1.8A4.272,4.272,0,0,1,307.3-.327,5.3,5.3,0,0,1,304.922.2Zm-.283-9.053a2,2,0,0,0-1.577.684,3.543,3.543,0,0,0-.767,1.9h4.521v-.176a2.884,2.884,0,0,0-.635-1.8A1.983,1.983,0,0,0,304.639-8.857Zm11.895.459a5.872,5.872,0,0,0-.967-.078,2.177,2.177,0,0,0-2.2,1.25V0H311V-10.566h2.266l.059,1.182a2.674,2.674,0,0,1,2.383-1.377,2.222,2.222,0,0,1,.84.137Zm7.52,8.4a3.663,3.663,0,0,1-.273-.986A3.694,3.694,0,0,1,321.006.2a3.728,3.728,0,0,1-2.6-.908A2.906,2.906,0,0,1,317.4-2.959a3,3,0,0,1,1.255-2.593,6.081,6.081,0,0,1,3.589-.9H323.7v-.693a1.851,1.851,0,0,0-.459-1.313,1.819,1.819,0,0,0-1.4-.493,2.09,2.09,0,0,0-1.328.405A1.254,1.254,0,0,0,320-7.52h-2.373a2.634,2.634,0,0,1,.576-1.626,3.839,3.839,0,0,1,1.567-1.187,5.505,5.505,0,0,1,2.212-.43,4.434,4.434,0,0,1,2.959.933,3.326,3.326,0,0,1,1.133,2.622v4.766a5.4,5.4,0,0,0,.4,2.275V0Zm-2.607-1.709a2.7,2.7,0,0,0,1.323-.342,2.284,2.284,0,0,0,.933-.918V-4.961h-1.279a3.5,3.5,0,0,0-1.982.459,1.487,1.487,0,0,0-.664,1.3,1.387,1.387,0,0,0,.454,1.089A1.758,1.758,0,0,0,321.445-1.709Z" transform="translate(-14011 -4688)" fill="#93f5e5"/>
    <path id="Trazado_6315" data-name="Trazado 6315" d="M5,0H168a5,5,0,0,1,5,5V57a5,5,0,0,1-5,5H5a5,5,0,0,1-5-5V5A5,5,0,0,1,5,0Z" transform="translate(-14511 -4562)" fill="#c0faf1"/>
    <path id="Trazado_6320" data-name="Trazado 6320" d="M12.295-4.629a5.134,5.134,0,0,1-1.68,3.55A5.726,5.726,0,0,1,6.719.2,5.545,5.545,0,0,1,3.726-.61a5.288,5.288,0,0,1-2-2.29A8.264,8.264,0,0,1,1-6.348V-7.676a8.324,8.324,0,0,1,.713-3.545,5.373,5.373,0,0,1,2.046-2.363,5.707,5.707,0,0,1,3.081-.83,5.483,5.483,0,0,1,3.789,1.279,5.344,5.344,0,0,1,1.67,3.613H9.834a3.512,3.512,0,0,0-.894-2.212,2.953,2.953,0,0,0-2.1-.679A2.886,2.886,0,0,0,4.36-11.235a5.877,5.877,0,0,0-.884,3.452v1.26A6.235,6.235,0,0,0,4.3-3.008,2.739,2.739,0,0,0,6.719-1.8a3.194,3.194,0,0,0,2.188-.654,3.412,3.412,0,0,0,.928-2.178Zm1.533-.752a6.231,6.231,0,0,1,.615-2.8,4.493,4.493,0,0,1,1.729-1.914,4.87,4.87,0,0,1,2.559-.669A4.615,4.615,0,0,1,22.2-9.385a5.416,5.416,0,0,1,1.44,3.652l.01.557a6.286,6.286,0,0,1-.6,2.793,4.439,4.439,0,0,1-1.719,1.9A4.906,4.906,0,0,1,18.75.2a4.584,4.584,0,0,1-3.579-1.489,5.7,5.7,0,0,1-1.343-3.97Zm2.373.205a4.258,4.258,0,0,0,.674,2.554A2.191,2.191,0,0,0,18.75-1.7a2.167,2.167,0,0,0,1.87-.937,4.7,4.7,0,0,0,.669-2.744A4.2,4.2,0,0,0,20.6-7.92a2.2,2.2,0,0,0-1.87-.937,2.178,2.178,0,0,0-1.846.923A4.614,4.614,0,0,0,16.2-5.176Zm11.66-5.391.068,1.221a3.8,3.8,0,0,1,3.076-1.416q3.3,0,3.359,3.779V0H31.992V-6.846a2.176,2.176,0,0,0-.435-1.489,1.828,1.828,0,0,0-1.421-.483A2.287,2.287,0,0,0,28-7.52V0H25.625V-10.566Zm11.895-2.568v2.568h1.865v1.758H39.756v5.9A1.3,1.3,0,0,0,40-2.036a1.109,1.109,0,0,0,.854.269,3.656,3.656,0,0,0,.83-.1V-.029A5.845,5.845,0,0,1,40.117.2q-2.734,0-2.734-3.018V-8.809H35.645v-1.758h1.738v-2.568ZM49.746,0a3.662,3.662,0,0,1-.273-.986A3.694,3.694,0,0,1,46.7.2a3.728,3.728,0,0,1-2.6-.908A2.906,2.906,0,0,1,43.1-2.959a3,3,0,0,1,1.255-2.593,6.081,6.081,0,0,1,3.589-.9h1.455v-.693a1.851,1.851,0,0,0-.459-1.313,1.819,1.819,0,0,0-1.4-.493,2.09,2.09,0,0,0-1.328.405,1.254,1.254,0,0,0-.518,1.03H43.32A2.634,2.634,0,0,1,43.9-9.146a3.838,3.838,0,0,1,1.567-1.187,5.506,5.506,0,0,1,2.212-.43,4.434,4.434,0,0,1,2.959.933,3.326,3.326,0,0,1,1.133,2.622v4.766a5.4,5.4,0,0,0,.4,2.275V0ZM47.139-1.709a2.7,2.7,0,0,0,1.323-.342,2.284,2.284,0,0,0,.933-.918V-4.961H48.115a3.5,3.5,0,0,0-1.982.459,1.487,1.487,0,0,0-.664,1.3,1.387,1.387,0,0,0,.454,1.089A1.758,1.758,0,0,0,47.139-1.709ZM63.525-5.176a6.347,6.347,0,0,1-1.1,3.916A3.579,3.579,0,0,1,59.4.2a3.447,3.447,0,0,1-2.891-1.338L56.4,0H54.248V-15h2.373v5.449a3.435,3.435,0,0,1,2.764-1.211,3.62,3.62,0,0,1,3.037,1.436,6.452,6.452,0,0,1,1.1,4.014Zm-2.373-.205a4.486,4.486,0,0,0-.605-2.578,2.016,2.016,0,0,0-1.758-.859,2.2,2.2,0,0,0-2.168,1.348v4.355a2.226,2.226,0,0,0,2.188,1.377,2,2,0,0,0,1.719-.83,4.347,4.347,0,0,0,.625-2.51ZM68.037,0H65.664V-10.566h2.373Zm-2.52-13.311a1.259,1.259,0,0,1,.347-.908,1.309,1.309,0,0,1,.991-.361,1.326,1.326,0,0,1,1,.361,1.25,1.25,0,0,1,.352.908,1.221,1.221,0,0,1-.352.894,1.336,1.336,0,0,1-1,.356,1.32,1.32,0,0,1-.991-.356A1.23,1.23,0,0,1,65.518-13.311ZM73.145,0H70.771V-15h2.373Zm5.107,0H75.879V-10.566h2.373Zm-2.52-13.311a1.259,1.259,0,0,1,.347-.908,1.309,1.309,0,0,1,.991-.361,1.326,1.326,0,0,1,1,.361,1.25,1.25,0,0,1,.352.908,1.221,1.221,0,0,1-.352.894,1.336,1.336,0,0,1-1,.356,1.32,1.32,0,0,1-.991-.356A1.23,1.23,0,0,1,75.732-13.311Zm4.658,7.949a6.282,6.282,0,0,1,1.133-3.921,3.63,3.63,0,0,1,3.037-1.479A3.449,3.449,0,0,1,87.275-9.59V-15h2.373V0H87.5l-.117-1.094A3.5,3.5,0,0,1,84.541.2a3.609,3.609,0,0,1-3-1.494A6.512,6.512,0,0,1,80.391-5.361Zm2.373.205a4.4,4.4,0,0,0,.62,2.515,2.012,2.012,0,0,0,1.763.9,2.241,2.241,0,0,0,2.129-1.3V-7.549a2.207,2.207,0,0,0-2.109-1.27,2.027,2.027,0,0,0-1.777.913A4.9,4.9,0,0,0,82.764-5.156ZM98.438,0a3.662,3.662,0,0,1-.273-.986A3.694,3.694,0,0,1,95.391.2a3.728,3.728,0,0,1-2.6-.908,2.906,2.906,0,0,1-1.006-2.246,3,3,0,0,1,1.255-2.593,6.081,6.081,0,0,1,3.589-.9h1.455v-.693a1.851,1.851,0,0,0-.459-1.313,1.819,1.819,0,0,0-1.4-.493A2.09,2.09,0,0,0,94.9-8.55a1.254,1.254,0,0,0-.518,1.03H92.012a2.634,2.634,0,0,1,.576-1.626,3.839,3.839,0,0,1,1.567-1.187,5.506,5.506,0,0,1,2.212-.43,4.434,4.434,0,0,1,2.959.933,3.326,3.326,0,0,1,1.133,2.622v4.766a5.4,5.4,0,0,0,.4,2.275V0ZM95.83-1.709a2.7,2.7,0,0,0,1.323-.342,2.284,2.284,0,0,0,.933-.918V-4.961H96.807a3.5,3.5,0,0,0-1.982.459,1.487,1.487,0,0,0-.664,1.3,1.387,1.387,0,0,0,.454,1.089A1.758,1.758,0,0,0,95.83-1.709Zm6.67-3.652a6.282,6.282,0,0,1,1.133-3.921,3.63,3.63,0,0,1,3.037-1.479,3.449,3.449,0,0,1,2.715,1.172V-15h2.373V0h-2.148l-.117-1.094A3.5,3.5,0,0,1,106.65.2a3.609,3.609,0,0,1-3-1.494A6.512,6.512,0,0,1,102.5-5.361Zm2.373.205a4.4,4.4,0,0,0,.62,2.515,2.012,2.012,0,0,0,1.763.9,2.241,2.241,0,0,0,2.129-1.3V-7.549a2.207,2.207,0,0,0-2.109-1.27,2.027,2.027,0,0,0-1.777.913A4.9,4.9,0,0,0,104.873-5.156Z" transform="translate(-14481 -4524)" fill="#022644"/>
    <path id="Trazado_6306" data-name="Trazado 6306" d="M-14092.327-7375v-50.941h1127.438V-7375" transform="translate(-319.173 2813)" fill="none" stroke="#022644" stroke-width="1.5"/>
    <path id="Trazado_6307" data-name="Trazado 6307" d="M-13686.5-7478v51.926" transform="translate(-165 2813)" fill="none" stroke="#022644" stroke-width="1.5"/>
    <path id="Trazado_6308" data-name="Trazado 6308" d="M-13686.5-7478v51.926" transform="translate(-540 2864.926)" fill="none" stroke="#022644" stroke-width="1.5"/>
    <path id="Trazado_6309" data-name="Trazado 6309" d="M-13686.5-7478v51.926" transform="translate(-349.5 2864.926)" fill="none" stroke="#022644" stroke-width="1.5"/>
    <path id="Trazado_6316" data-name="Trazado 6316" d="M5,0H168a5,5,0,0,1,5,5V57a5,5,0,0,1-5,5H5a5,5,0,0,1-5-5V5A5,5,0,0,1,5,0Z" transform="translate(-14321 -4562)" fill="#c0faf1"/>
    <path id="Trazado_6321" data-name="Trazado 6321" d="M11.719-12.227H7.285V0H4.834V-12.227H.439v-1.992H11.719ZM17.139.2a4.91,4.91,0,0,1-3.657-1.421,5.154,5.154,0,0,1-1.4-3.784V-5.3a6.34,6.34,0,0,1,.61-2.827A4.645,4.645,0,0,1,14.4-10.068a4.531,4.531,0,0,1,2.461-.693A4.147,4.147,0,0,1,20.2-9.385a5.823,5.823,0,0,1,1.177,3.9v.957h-6.9a3.173,3.173,0,0,0,.874,2.07,2.624,2.624,0,0,0,1.929.762,3.213,3.213,0,0,0,2.656-1.318L21.211-1.8a4.272,4.272,0,0,1-1.694,1.47A5.3,5.3,0,0,1,17.139.2Zm-.283-9.053a2,2,0,0,0-1.577.684,3.543,3.543,0,0,0-.767,1.9h4.521v-.176a2.884,2.884,0,0,0-.635-1.8A1.983,1.983,0,0,0,16.855-8.857ZM29.141-2.871a1.076,1.076,0,0,0-.522-.967,5.557,5.557,0,0,0-1.733-.586,8.911,8.911,0,0,1-2.021-.645,2.7,2.7,0,0,1-1.777-2.49,2.813,2.813,0,0,1,1.152-2.285,4.556,4.556,0,0,1,2.93-.918,4.74,4.74,0,0,1,3.062.938A2.975,2.975,0,0,1,31.4-7.393H29.023a1.462,1.462,0,0,0-.508-1.138,1.946,1.946,0,0,0-1.348-.454,2.1,2.1,0,0,0-1.274.361,1.139,1.139,0,0,0-.493.967.962.962,0,0,0,.459.85,6.312,6.312,0,0,0,1.855.61,8.783,8.783,0,0,1,2.192.732,3.1,3.1,0,0,1,1.182,1.021A2.6,2.6,0,0,1,31.475-3a2.753,2.753,0,0,1-1.182,2.31A5.039,5.039,0,0,1,27.2.2a5.464,5.464,0,0,1-2.314-.469A3.809,3.809,0,0,1,23.3-1.562a3.051,3.051,0,0,1-.566-1.768h2.3a1.672,1.672,0,0,0,.635,1.294,2.467,2.467,0,0,0,1.553.454,2.4,2.4,0,0,0,1.426-.356A1.1,1.1,0,0,0,29.141-2.871ZM33.1-5.381a6.231,6.231,0,0,1,.615-2.8,4.493,4.493,0,0,1,1.729-1.914A4.87,4.87,0,0,1,38-10.762,4.615,4.615,0,0,1,41.47-9.385a5.416,5.416,0,0,1,1.44,3.652l.01.557a6.286,6.286,0,0,1-.6,2.793A4.439,4.439,0,0,1,40.6-.479,4.906,4.906,0,0,1,38.018.2a4.584,4.584,0,0,1-3.579-1.489A5.7,5.7,0,0,1,33.1-5.264Zm2.373.205a4.258,4.258,0,0,0,.674,2.554,2.191,2.191,0,0,0,1.875.923,2.167,2.167,0,0,0,1.87-.937,4.7,4.7,0,0,0,.669-2.744,4.2,4.2,0,0,0-.688-2.539A2.2,2.2,0,0,0,38-8.857a2.178,2.178,0,0,0-1.846.923A4.614,4.614,0,0,0,35.469-5.176ZM50.459-8.4a5.872,5.872,0,0,0-.967-.078,2.177,2.177,0,0,0-2.2,1.25V0H44.922V-10.566h2.266l.059,1.182a2.674,2.674,0,0,1,2.383-1.377,2.222,2.222,0,0,1,.84.137ZM56.426.2a4.91,4.91,0,0,1-3.657-1.421,5.154,5.154,0,0,1-1.4-3.784V-5.3a6.34,6.34,0,0,1,.61-2.827,4.646,4.646,0,0,1,1.714-1.938,4.531,4.531,0,0,1,2.461-.693,4.147,4.147,0,0,1,3.335,1.377,5.823,5.823,0,0,1,1.177,3.9v.957h-6.9a3.173,3.173,0,0,0,.874,2.07,2.624,2.624,0,0,0,1.929.762,3.213,3.213,0,0,0,2.656-1.318L60.5-1.8A4.272,4.272,0,0,1,58.8-.327,5.3,5.3,0,0,1,56.426.2Zm-.283-9.053a2,2,0,0,0-1.577.684,3.543,3.543,0,0,0-.767,1.9H58.32v-.176a2.884,2.884,0,0,0-.635-1.8A1.983,1.983,0,0,0,56.143-8.857ZM68.037-8.4a5.872,5.872,0,0,0-.967-.078,2.177,2.177,0,0,0-2.2,1.25V0H62.5V-10.566h2.266l.059,1.182a2.674,2.674,0,0,1,2.383-1.377,2.222,2.222,0,0,1,.84.137ZM72.09,0H69.717V-10.566H72.09Zm-.449-14.932h2.705l-2.705,2.959h-1.9ZM81.1,0a3.662,3.662,0,0,1-.273-.986A3.694,3.694,0,0,1,78.057.2a3.728,3.728,0,0,1-2.6-.908,2.906,2.906,0,0,1-1.006-2.246,3,3,0,0,1,1.255-2.593,6.081,6.081,0,0,1,3.589-.9h1.455v-.693a1.851,1.851,0,0,0-.459-1.313,1.819,1.819,0,0,0-1.4-.493,2.09,2.09,0,0,0-1.328.405,1.254,1.254,0,0,0-.518,1.03H74.678a2.634,2.634,0,0,1,.576-1.626,3.839,3.839,0,0,1,1.567-1.187,5.506,5.506,0,0,1,2.212-.43,4.434,4.434,0,0,1,2.959.933,3.326,3.326,0,0,1,1.133,2.622v4.766a5.4,5.4,0,0,0,.4,2.275V0ZM78.5-1.709a2.7,2.7,0,0,0,1.323-.342,2.284,2.284,0,0,0,.933-.918V-4.961H79.473A3.5,3.5,0,0,0,77.49-4.5a1.487,1.487,0,0,0-.664,1.3,1.387,1.387,0,0,0,.454,1.089A1.758,1.758,0,0,0,78.5-1.709Z" transform="translate(-14279 -4524)" fill="#022644"/>
    <path id="Trazado_6317" data-name="Trazado 6317" d="M5,0H168a5,5,0,0,1,5,5V57a5,5,0,0,1-5,5H5a5,5,0,0,1-5-5V5A5,5,0,0,1,5,0Z" transform="translate(-14131 -4562)" fill="#c0faf1"/>
    <path id="Trazado_6322" data-name="Trazado 6322" d="M12.295-4.629a5.134,5.134,0,0,1-1.68,3.55A5.726,5.726,0,0,1,6.719.2,5.545,5.545,0,0,1,3.726-.61a5.288,5.288,0,0,1-2-2.29A8.264,8.264,0,0,1,1-6.348V-7.676a8.324,8.324,0,0,1,.713-3.545,5.373,5.373,0,0,1,2.046-2.363,5.707,5.707,0,0,1,3.081-.83,5.483,5.483,0,0,1,3.789,1.279,5.344,5.344,0,0,1,1.67,3.613H9.834a3.512,3.512,0,0,0-.894-2.212,2.953,2.953,0,0,0-2.1-.679A2.886,2.886,0,0,0,4.36-11.235a5.877,5.877,0,0,0-.884,3.452v1.26A6.235,6.235,0,0,0,4.3-3.008,2.739,2.739,0,0,0,6.719-1.8a3.194,3.194,0,0,0,2.188-.654,3.412,3.412,0,0,0,.928-2.178ZM20.586,0a3.662,3.662,0,0,1-.273-.986A3.694,3.694,0,0,1,17.539.2a3.728,3.728,0,0,1-2.6-.908,2.906,2.906,0,0,1-1.006-2.246A3,3,0,0,1,15.19-5.552a6.081,6.081,0,0,1,3.589-.9h1.455v-.693a1.851,1.851,0,0,0-.459-1.313,1.819,1.819,0,0,0-1.4-.493,2.09,2.09,0,0,0-1.328.405,1.254,1.254,0,0,0-.518,1.03H14.16a2.634,2.634,0,0,1,.576-1.626A3.838,3.838,0,0,1,16.3-10.332a5.506,5.506,0,0,1,2.212-.43,4.434,4.434,0,0,1,2.959.933,3.326,3.326,0,0,1,1.133,2.622v4.766a5.4,5.4,0,0,0,.4,2.275V0ZM17.979-1.709A2.7,2.7,0,0,0,19.3-2.051a2.284,2.284,0,0,0,.933-.918V-4.961H18.955a3.5,3.5,0,0,0-1.982.459,1.487,1.487,0,0,0-.664,1.3,1.387,1.387,0,0,0,.454,1.089A1.758,1.758,0,0,0,17.979-1.709ZM30.625-8.4a5.872,5.872,0,0,0-.967-.078,2.177,2.177,0,0,0-2.2,1.25V0H25.088V-10.566h2.266l.059,1.182a2.674,2.674,0,0,1,2.383-1.377,2.222,2.222,0,0,1,.84.137Zm4.961-4.736v2.568h1.865v1.758H35.586v5.9a1.3,1.3,0,0,0,.239.874,1.109,1.109,0,0,0,.854.269,3.656,3.656,0,0,0,.83-.1V-.029A5.845,5.845,0,0,1,35.947.2q-2.734,0-2.734-3.018V-8.809H31.475v-1.758h1.738v-2.568ZM43.916.2a4.91,4.91,0,0,1-3.657-1.421,5.154,5.154,0,0,1-1.4-3.784V-5.3a6.34,6.34,0,0,1,.61-2.827,4.646,4.646,0,0,1,1.714-1.938,4.531,4.531,0,0,1,2.461-.693,4.147,4.147,0,0,1,3.335,1.377,5.823,5.823,0,0,1,1.177,3.9v.957h-6.9a3.173,3.173,0,0,0,.874,2.07,2.624,2.624,0,0,0,1.929.762,3.213,3.213,0,0,0,2.656-1.318L47.988-1.8a4.272,4.272,0,0,1-1.694,1.47A5.3,5.3,0,0,1,43.916.2Zm-.283-9.053a2,2,0,0,0-1.577.684,3.543,3.543,0,0,0-.767,1.9h4.521v-.176a2.884,2.884,0,0,0-.635-1.8A1.983,1.983,0,0,0,43.633-8.857ZM55.527-8.4a5.872,5.872,0,0,0-.967-.078,2.177,2.177,0,0,0-2.2,1.25V0H49.99V-10.566h2.266l.059,1.182A2.674,2.674,0,0,1,54.7-10.762a2.222,2.222,0,0,1,.84.137ZM63.047,0a3.662,3.662,0,0,1-.273-.986A3.694,3.694,0,0,1,60,.2a3.728,3.728,0,0,1-2.6-.908A2.906,2.906,0,0,1,56.4-2.959a3,3,0,0,1,1.255-2.593,6.081,6.081,0,0,1,3.589-.9H62.7v-.693a1.851,1.851,0,0,0-.459-1.313,1.819,1.819,0,0,0-1.4-.493,2.09,2.09,0,0,0-1.328.405,1.254,1.254,0,0,0-.518,1.03H56.621A2.634,2.634,0,0,1,57.2-9.146a3.838,3.838,0,0,1,1.567-1.187,5.506,5.506,0,0,1,2.212-.43,4.434,4.434,0,0,1,2.959.933,3.326,3.326,0,0,1,1.133,2.622v4.766a5.4,5.4,0,0,0,.4,2.275V0ZM60.439-1.709a2.7,2.7,0,0,0,1.323-.342,2.284,2.284,0,0,0,.933-.918V-4.961H61.416a3.5,3.5,0,0,0-1.982.459,1.487,1.487,0,0,0-.664,1.3,1.387,1.387,0,0,0,.454,1.089A1.758,1.758,0,0,0,60.439-1.709Z" transform="translate(-14084 -4524)" fill="#022644"/>
    <path id="Trazado_6318" data-name="Trazado 6318" d="M5,0H168a5,5,0,0,1,5,5V57a5,5,0,0,1-5,5H5a5,5,0,0,1-5-5V5A5,5,0,0,1,5,0Z" transform="translate(-13941 -4562)" fill="#c0faf1"/>
    <path id="Trazado_6323" data-name="Trazado 6323" d="M-43.037-6.025H-48.76V0H-51.23V-14.219H-42.2v1.992H-48.76V-8h5.723ZM-34.492,0a3.662,3.662,0,0,1-.273-.986A3.694,3.694,0,0,1-37.539.2a3.728,3.728,0,0,1-2.6-.908,2.906,2.906,0,0,1-1.006-2.246,3,3,0,0,1,1.255-2.593,6.081,6.081,0,0,1,3.589-.9h1.455v-.693A1.851,1.851,0,0,0-35.3-8.462a1.819,1.819,0,0,0-1.4-.493,2.09,2.09,0,0,0-1.328.405,1.254,1.254,0,0,0-.518,1.03h-2.373a2.634,2.634,0,0,1,.576-1.626,3.838,3.838,0,0,1,1.567-1.187,5.506,5.506,0,0,1,2.212-.43,4.434,4.434,0,0,1,2.959.933,3.326,3.326,0,0,1,1.133,2.622v4.766a5.4,5.4,0,0,0,.4,2.275V0ZM-37.1-1.709a2.7,2.7,0,0,0,1.323-.342,2.284,2.284,0,0,0,.933-.918V-4.961h-1.279a3.5,3.5,0,0,0-1.982.459,1.487,1.487,0,0,0-.664,1.3,1.387,1.387,0,0,0,.454,1.089A1.758,1.758,0,0,0-37.1-1.709Zm11.455.01a2.146,2.146,0,0,0,1.475-.518A1.768,1.768,0,0,0-23.545-3.5h2.236a3.486,3.486,0,0,1-.615,1.841A4.035,4.035,0,0,1-23.486-.3a4.656,4.656,0,0,1-2.129.5A4.505,4.505,0,0,1-29.131-1.24a5.694,5.694,0,0,1-1.3-3.965v-.244a5.6,5.6,0,0,1,1.289-3.862,4.464,4.464,0,0,1,3.516-1.45,4.341,4.341,0,0,1,3.071,1.1,3.935,3.935,0,0,1,1.245,2.886h-2.236a2.173,2.173,0,0,0-.62-1.494,2,2,0,0,0-1.479-.586,2.088,2.088,0,0,0-1.777.835,4.261,4.261,0,0,0-.635,2.534v.381a4.331,4.331,0,0,0,.62,2.563A2.086,2.086,0,0,0-25.645-1.7Zm9.1-11.436v2.568h1.865v1.758h-1.865v5.9a1.3,1.3,0,0,0,.239.874,1.109,1.109,0,0,0,.854.269,3.656,3.656,0,0,0,.83-.1V-.029A5.845,5.845,0,0,1-16.182.2q-2.734,0-2.734-3.018V-8.809h-1.738v-1.758h1.738v-2.568Zm10.078,12.1A3.68,3.68,0,0,1-9.434.2a3.28,3.28,0,0,1-2.6-1.006,4.279,4.279,0,0,1-.884-2.91v-6.846h2.373V-3.75q0,2.012,1.67,2.012a2.345,2.345,0,0,0,2.334-1.24v-7.588H-4.17V0H-6.406ZM3.779-8.4a5.872,5.872,0,0,0-.967-.078,2.177,2.177,0,0,0-2.2,1.25V0H-1.758V-10.566H.508L.566-9.385a2.674,2.674,0,0,1,2.383-1.377,2.222,2.222,0,0,1,.84.137ZM11.3,0a3.662,3.662,0,0,1-.273-.986A3.694,3.694,0,0,1,8.252.2a3.728,3.728,0,0,1-2.6-.908A2.906,2.906,0,0,1,4.648-2.959,3,3,0,0,1,5.9-5.552a6.081,6.081,0,0,1,3.589-.9h1.455v-.693a1.851,1.851,0,0,0-.459-1.313,1.819,1.819,0,0,0-1.4-.493,2.09,2.09,0,0,0-1.328.405,1.254,1.254,0,0,0-.518,1.03H4.873a2.634,2.634,0,0,1,.576-1.626,3.838,3.838,0,0,1,1.567-1.187,5.506,5.506,0,0,1,2.212-.43,4.434,4.434,0,0,1,2.959.933A3.326,3.326,0,0,1,13.32-7.207v4.766a5.4,5.4,0,0,0,.4,2.275V0ZM8.691-1.709a2.7,2.7,0,0,0,1.323-.342,2.284,2.284,0,0,0,.933-.918V-4.961H9.668A3.5,3.5,0,0,0,7.686-4.5a1.487,1.487,0,0,0-.664,1.3,1.387,1.387,0,0,0,.454,1.089A1.758,1.758,0,0,0,8.691-1.709Zm11.455.01a2.146,2.146,0,0,0,1.475-.518A1.768,1.768,0,0,0,22.246-3.5h2.236a3.486,3.486,0,0,1-.615,1.841A4.035,4.035,0,0,1,22.3-.3a4.656,4.656,0,0,1-2.129.5A4.505,4.505,0,0,1,16.66-1.24a5.694,5.694,0,0,1-1.3-3.965v-.244A5.6,5.6,0,0,1,16.65-9.312a4.464,4.464,0,0,1,3.516-1.45,4.341,4.341,0,0,1,3.071,1.1,3.935,3.935,0,0,1,1.245,2.886H22.246a2.173,2.173,0,0,0-.62-1.494,2,2,0,0,0-1.479-.586,2.088,2.088,0,0,0-1.777.835,4.261,4.261,0,0,0-.635,2.534v.381a4.331,4.331,0,0,0,.62,2.563A2.086,2.086,0,0,0,20.146-1.7ZM28.8,0H26.426V-10.566H28.8Zm-2.52-13.311a1.259,1.259,0,0,1,.347-.908,1.309,1.309,0,0,1,.991-.361,1.326,1.326,0,0,1,1,.361,1.25,1.25,0,0,1,.352.908,1.221,1.221,0,0,1-.352.894,1.336,1.336,0,0,1-1,.356,1.32,1.32,0,0,1-.991-.356A1.23,1.23,0,0,1,26.279-13.311Zm4.658,7.93a6.231,6.231,0,0,1,.615-2.8,4.493,4.493,0,0,1,1.729-1.914,4.87,4.87,0,0,1,2.559-.669,4.615,4.615,0,0,1,3.472,1.377,5.416,5.416,0,0,1,1.44,3.652l.01.557a6.286,6.286,0,0,1-.6,2.793,4.439,4.439,0,0,1-1.719,1.9A4.906,4.906,0,0,1,35.859.2,4.584,4.584,0,0,1,32.28-1.294a5.7,5.7,0,0,1-1.343-3.97Zm2.373.205a4.258,4.258,0,0,0,.674,2.554,2.191,2.191,0,0,0,1.875.923,2.167,2.167,0,0,0,1.87-.937A4.7,4.7,0,0,0,38.4-5.381,4.2,4.2,0,0,0,37.71-7.92a2.2,2.2,0,0,0-1.87-.937,2.178,2.178,0,0,0-1.846.923A4.614,4.614,0,0,0,33.311-5.176ZM36.494-15H39.2l-2.705,2.959h-1.9Zm8.477,4.434.068,1.221a3.8,3.8,0,0,1,3.076-1.416q3.3,0,3.359,3.779V0H49.1V-6.846a2.176,2.176,0,0,0-.435-1.489,1.828,1.828,0,0,0-1.421-.483,2.287,2.287,0,0,0-2.139,1.3V0H42.734V-10.566Z" transform="translate(-13852 -4524)" fill="#022644"/>
    <path id="Trazado_6319" data-name="Trazado 6319" d="M5,0H168a5,5,0,0,1,5,5V57a5,5,0,0,1-5,5H5a5,5,0,0,1-5-5V5A5,5,0,0,1,5,0Z" transform="translate(-13751 -4562)" fill="#c0faf1"/>
    <path id="Trazado_6324" data-name="Trazado 6324" d="M-40.605-3.311h-5.508L-47.266,0h-2.568l5.371-14.219h2.217L-36.865,0h-2.578ZM-45.42-5.3H-41.3l-2.061-5.9ZM-32.959,0h-2.373V-15h2.373Zm4.814-10.566.068,1.1a3.8,3.8,0,0,1,3.047-1.3,2.921,2.921,0,0,1,2.9,1.621,3.748,3.748,0,0,1,3.242-1.621,3.294,3.294,0,0,1,2.6.967,4.257,4.257,0,0,1,.874,2.852V0h-2.373V-6.875a2.1,2.1,0,0,0-.439-1.475,1.924,1.924,0,0,0-1.455-.469A1.976,1.976,0,0,0-21-8.384a2.292,2.292,0,0,0-.718,1.138L-21.709,0h-2.373V-6.953a1.693,1.693,0,0,0-1.9-1.865,2.089,2.089,0,0,0-2.021,1.162V0h-2.373V-10.566ZM-6.66,0a3.662,3.662,0,0,1-.273-.986A3.694,3.694,0,0,1-9.707.2a3.728,3.728,0,0,1-2.6-.908,2.906,2.906,0,0,1-1.006-2.246,3,3,0,0,1,1.255-2.593,6.081,6.081,0,0,1,3.589-.9h1.455v-.693a1.851,1.851,0,0,0-.459-1.313,1.819,1.819,0,0,0-1.4-.493A2.09,2.09,0,0,0-10.2-8.55a1.254,1.254,0,0,0-.518,1.03h-2.373a2.634,2.634,0,0,1,.576-1.626,3.838,3.838,0,0,1,1.567-1.187,5.506,5.506,0,0,1,2.212-.43,4.434,4.434,0,0,1,2.959.933A3.326,3.326,0,0,1-4.639-7.207v4.766a5.4,5.4,0,0,0,.4,2.275V0ZM-9.268-1.709a2.7,2.7,0,0,0,1.323-.342,2.284,2.284,0,0,0,.933-.918V-4.961H-8.291a3.5,3.5,0,0,0-1.982.459,1.487,1.487,0,0,0-.664,1.3,1.387,1.387,0,0,0,.454,1.089A1.758,1.758,0,0,0-9.268-1.709ZM2.188-1.7a2.146,2.146,0,0,0,1.475-.518A1.768,1.768,0,0,0,4.287-3.5H6.523a3.486,3.486,0,0,1-.615,1.841A4.035,4.035,0,0,1,4.346-.3,4.656,4.656,0,0,1,2.217.2,4.505,4.505,0,0,1-1.3-1.24,5.694,5.694,0,0,1-2.6-5.205v-.244A5.6,5.6,0,0,1-1.309-9.312a4.464,4.464,0,0,1,3.516-1.45,4.341,4.341,0,0,1,3.071,1.1A3.935,3.935,0,0,1,6.523-6.777H4.287a2.173,2.173,0,0,0-.62-1.494,2,2,0,0,0-1.479-.586A2.088,2.088,0,0,0,.41-8.022,4.261,4.261,0,0,0-.225-5.488v.381A4.331,4.331,0,0,0,.4-2.544,2.086,2.086,0,0,0,2.188-1.7ZM12.969.2A4.91,4.91,0,0,1,9.312-1.226,5.154,5.154,0,0,1,7.91-5.01V-5.3a6.34,6.34,0,0,1,.61-2.827,4.645,4.645,0,0,1,1.714-1.938,4.531,4.531,0,0,1,2.461-.693A4.147,4.147,0,0,1,16.03-9.385a5.823,5.823,0,0,1,1.177,3.9v.957H10.3a3.173,3.173,0,0,0,.874,2.07,2.624,2.624,0,0,0,1.929.762,3.213,3.213,0,0,0,2.656-1.318L17.041-1.8a4.272,4.272,0,0,1-1.694,1.47A5.3,5.3,0,0,1,12.969.2Zm-.283-9.053a2,2,0,0,0-1.577.684,3.543,3.543,0,0,0-.767,1.9h4.521v-.176a2.884,2.884,0,0,0-.635-1.8A1.983,1.983,0,0,0,12.686-8.857Zm8.564-1.709.068,1.221a3.8,3.8,0,0,1,3.076-1.416q3.3,0,3.359,3.779V0H25.381V-6.846a2.176,2.176,0,0,0-.435-1.489,1.828,1.828,0,0,0-1.421-.483,2.287,2.287,0,0,0-2.139,1.3V0H19.014V-10.566ZM34.824.2a4.91,4.91,0,0,1-3.657-1.421,5.154,5.154,0,0,1-1.4-3.784V-5.3a6.34,6.34,0,0,1,.61-2.827,4.645,4.645,0,0,1,1.714-1.938,4.531,4.531,0,0,1,2.461-.693,4.147,4.147,0,0,1,3.335,1.377,5.823,5.823,0,0,1,1.177,3.9v.957h-6.9a3.173,3.173,0,0,0,.874,2.07,2.624,2.624,0,0,0,1.929.762,3.213,3.213,0,0,0,2.656-1.318L38.9-1.8A4.272,4.272,0,0,1,37.2-.327,5.3,5.3,0,0,1,34.824.2Zm-.283-9.053a2,2,0,0,0-1.577.684,3.543,3.543,0,0,0-.767,1.9h4.521v-.176a2.884,2.884,0,0,0-.635-1.8A1.983,1.983,0,0,0,34.541-8.857ZM46.826-2.871a1.076,1.076,0,0,0-.522-.967,5.557,5.557,0,0,0-1.733-.586,8.911,8.911,0,0,1-2.021-.645,2.7,2.7,0,0,1-1.777-2.49,2.813,2.813,0,0,1,1.152-2.285,4.556,4.556,0,0,1,2.93-.918,4.74,4.74,0,0,1,3.062.938,2.975,2.975,0,0,1,1.167,2.432H46.709A1.462,1.462,0,0,0,46.2-8.53a1.946,1.946,0,0,0-1.348-.454,2.1,2.1,0,0,0-1.274.361,1.139,1.139,0,0,0-.493.967.962.962,0,0,0,.459.85A6.312,6.312,0,0,0,45.4-6.2a8.783,8.783,0,0,1,2.192.732,3.1,3.1,0,0,1,1.182,1.021A2.6,2.6,0,0,1,49.16-3a2.753,2.753,0,0,1-1.182,2.31,5.039,5.039,0,0,1-3.1.884,5.464,5.464,0,0,1-2.314-.469,3.809,3.809,0,0,1-1.582-1.289A3.051,3.051,0,0,1,40.42-3.33h2.3a1.672,1.672,0,0,0,.635,1.294,2.467,2.467,0,0,0,1.553.454,2.4,2.4,0,0,0,1.426-.356A1.1,1.1,0,0,0,46.826-2.871Z" transform="translate(-13657 -4524)" fill="#022644"/>
    <path id="Trazado_6325" data-name="Trazado 6325" d="M5,0H168a5,5,0,0,1,5,5V57a5,5,0,0,1-5,5H5a5,5,0,0,1-5-5V5A5,5,0,0,1,5,0Z" transform="translate(-13561 -4562)" fill="#c0faf1"/>
    <path id="Trazado_6326" data-name="Trazado 6326" d="M-32.837-3.662A1.717,1.717,0,0,0-33.5-5.107a7.931,7.931,0,0,0-2.378-1.025,11.483,11.483,0,0,1-2.734-1.152,3.649,3.649,0,0,1-1.943-3.184,3.465,3.465,0,0,1,1.4-2.832,5.672,5.672,0,0,1,3.638-1.113,6.145,6.145,0,0,1,2.646.547A4.344,4.344,0,0,1-31.04-12.31a4,4,0,0,1,.664,2.241h-2.461a2.228,2.228,0,0,0-.7-1.743,2.882,2.882,0,0,0-2-.63,3.01,3.01,0,0,0-1.88.518,1.723,1.723,0,0,0-.669,1.445,1.559,1.559,0,0,0,.723,1.3,8.325,8.325,0,0,0,2.383,1.016A10.961,10.961,0,0,1-32.31-7.036a4.241,4.241,0,0,1,1.475,1.445,3.764,3.764,0,0,1,.469,1.909A3.384,3.384,0,0,1-31.729-.854,5.909,5.909,0,0,1-35.425.2a6.946,6.946,0,0,1-2.837-.571,4.766,4.766,0,0,1-2.012-1.577A3.93,3.93,0,0,1-40.991-4.3h2.471a2.3,2.3,0,0,0,.8,1.875,3.507,3.507,0,0,0,2.295.664,3.047,3.047,0,0,0,1.938-.522A1.686,1.686,0,0,0-32.837-3.662ZM-25.9,0h-2.373V-10.566H-25.9Zm-2.52-13.311a1.259,1.259,0,0,1,.347-.908,1.309,1.309,0,0,1,.991-.361,1.326,1.326,0,0,1,1,.361,1.25,1.25,0,0,1,.352.908,1.221,1.221,0,0,1-.352.894,1.336,1.336,0,0,1-1,.356,1.32,1.32,0,0,1-.991-.356A1.23,1.23,0,0,1-28.423-13.311ZM-17.4-2.871a1.076,1.076,0,0,0-.522-.967,5.557,5.557,0,0,0-1.733-.586,8.911,8.911,0,0,1-2.021-.645,2.7,2.7,0,0,1-1.777-2.49A2.813,2.813,0,0,1-22.3-9.844a4.556,4.556,0,0,1,2.93-.918,4.74,4.74,0,0,1,3.062.938,2.975,2.975,0,0,1,1.167,2.432h-2.373a1.462,1.462,0,0,0-.508-1.138,1.946,1.946,0,0,0-1.348-.454,2.1,2.1,0,0,0-1.274.361,1.139,1.139,0,0,0-.493.967.962.962,0,0,0,.459.85,6.312,6.312,0,0,0,1.855.61,8.783,8.783,0,0,1,2.192.732,3.1,3.1,0,0,1,1.182,1.021A2.6,2.6,0,0,1-15.063-3a2.753,2.753,0,0,1-1.182,2.31,5.039,5.039,0,0,1-3.1.884,5.464,5.464,0,0,1-2.314-.469,3.809,3.809,0,0,1-1.582-1.289A3.051,3.051,0,0,1-23.8-3.33h2.3a1.672,1.672,0,0,0,.635,1.294,2.467,2.467,0,0,0,1.553.454,2.4,2.4,0,0,0,1.426-.356A1.1,1.1,0,0,0-17.4-2.871Zm7.373-10.264v2.568h1.865v1.758h-1.865v5.9a1.3,1.3,0,0,0,.239.874,1.109,1.109,0,0,0,.854.269,3.656,3.656,0,0,0,.83-.1V-.029A5.845,5.845,0,0,1-9.663.2Q-12.4.2-12.4-2.822V-8.809h-1.738v-1.758H-12.4v-2.568ZM-1.694.2A4.91,4.91,0,0,1-5.352-1.226a5.154,5.154,0,0,1-1.4-3.784V-5.3a6.34,6.34,0,0,1,.61-2.827,4.645,4.645,0,0,1,1.714-1.938,4.531,4.531,0,0,1,2.461-.693A4.147,4.147,0,0,1,1.367-9.385a5.823,5.823,0,0,1,1.177,3.9v.957h-6.9a3.173,3.173,0,0,0,.874,2.07A2.624,2.624,0,0,0-1.558-1.7,3.213,3.213,0,0,0,1.1-3.018L2.378-1.8A4.272,4.272,0,0,1,.684-.327,5.3,5.3,0,0,1-1.694.2Zm-.283-9.053a2,2,0,0,0-1.577.684,3.543,3.543,0,0,0-.767,1.9H.2v-.176a2.884,2.884,0,0,0-.635-1.8A1.983,1.983,0,0,0-1.978-8.857Zm8.594-1.709.068,1.1a3.8,3.8,0,0,1,3.047-1.3,2.921,2.921,0,0,1,2.9,1.621,3.748,3.748,0,0,1,3.242-1.621,3.294,3.294,0,0,1,2.6.967,4.257,4.257,0,0,1,.874,2.852V0H16.978V-6.875a2.1,2.1,0,0,0-.439-1.475,1.924,1.924,0,0,0-1.455-.469,1.976,1.976,0,0,0-1.323.435,2.292,2.292,0,0,0-.718,1.138L13.052,0H10.679V-6.953a1.693,1.693,0,0,0-1.9-1.865A2.089,2.089,0,0,0,6.753-7.656V0H4.38V-10.566ZM28.1,0a3.662,3.662,0,0,1-.273-.986A3.694,3.694,0,0,1,25.054.2a3.728,3.728,0,0,1-2.6-.908A2.906,2.906,0,0,1,21.45-2.959a3,3,0,0,1,1.255-2.593,6.081,6.081,0,0,1,3.589-.9h1.455v-.693a1.851,1.851,0,0,0-.459-1.313,1.819,1.819,0,0,0-1.4-.493,2.09,2.09,0,0,0-1.328.405,1.254,1.254,0,0,0-.518,1.03H21.675a2.634,2.634,0,0,1,.576-1.626,3.839,3.839,0,0,1,1.567-1.187,5.506,5.506,0,0,1,2.212-.43,4.434,4.434,0,0,1,2.959.933,3.326,3.326,0,0,1,1.133,2.622v4.766a5.4,5.4,0,0,0,.4,2.275V0ZM25.493-1.709a2.7,2.7,0,0,0,1.323-.342,2.284,2.284,0,0,0,.933-.918V-4.961H26.47a3.5,3.5,0,0,0-1.982.459,1.487,1.487,0,0,0-.664,1.3,1.387,1.387,0,0,0,.454,1.089A1.758,1.758,0,0,0,25.493-1.709ZM38.53-2.871a1.076,1.076,0,0,0-.522-.967,5.557,5.557,0,0,0-1.733-.586,8.911,8.911,0,0,1-2.021-.645,2.7,2.7,0,0,1-1.777-2.49,2.813,2.813,0,0,1,1.152-2.285,4.556,4.556,0,0,1,2.93-.918,4.74,4.74,0,0,1,3.062.938,2.975,2.975,0,0,1,1.167,2.432H38.413a1.462,1.462,0,0,0-.508-1.138,1.946,1.946,0,0,0-1.348-.454,2.1,2.1,0,0,0-1.274.361,1.139,1.139,0,0,0-.493.967.962.962,0,0,0,.459.85A6.312,6.312,0,0,0,37.1-6.2a8.783,8.783,0,0,1,2.192.732,3.1,3.1,0,0,1,1.182,1.021A2.6,2.6,0,0,1,40.864-3a2.753,2.753,0,0,1-1.182,2.31,5.039,5.039,0,0,1-3.1.884,5.464,5.464,0,0,1-2.314-.469A3.809,3.809,0,0,1,32.69-1.562a3.051,3.051,0,0,1-.566-1.768h2.3a1.672,1.672,0,0,0,.635,1.294,2.467,2.467,0,0,0,1.553.454,2.4,2.4,0,0,0,1.426-.356A1.1,1.1,0,0,0,38.53-2.871Z" transform="translate(-13463 -4524)" fill="#022644"/>
    <path id="Trazado_6327" data-name="Trazado 6327" d="M5,0H168a5,5,0,0,1,5,5V57a5,5,0,0,1-5,5H5a5,5,0,0,1-5-5V5A5,5,0,0,1,5,0Z" transform="translate(-13371 -4562)" fill="#c0faf1"/>
    <path id="Trazado_6328" data-name="Trazado 6328" d="M-37.168-1.973h6.455V0h-8.926V-14.219h2.471Zm7.676-3.408a6.231,6.231,0,0,1,.615-2.8,4.493,4.493,0,0,1,1.729-1.914,4.87,4.87,0,0,1,2.559-.669,4.615,4.615,0,0,1,3.472,1.377,5.416,5.416,0,0,1,1.44,3.652l.01.557a6.286,6.286,0,0,1-.6,2.793,4.439,4.439,0,0,1-1.719,1.9A4.906,4.906,0,0,1-24.57.2a4.584,4.584,0,0,1-3.579-1.489,5.7,5.7,0,0,1-1.343-3.97Zm2.373.205a4.258,4.258,0,0,0,.674,2.554A2.191,2.191,0,0,0-24.57-1.7a2.167,2.167,0,0,0,1.87-.937,4.7,4.7,0,0,0,.669-2.744A4.2,4.2,0,0,0-22.72-7.92a2.2,2.2,0,0,0-1.87-.937,2.178,2.178,0,0,0-1.846.923A4.614,4.614,0,0,0-27.119-5.176Zm9.043-.186a6.18,6.18,0,0,1,1.157-3.931,3.714,3.714,0,0,1,3.071-1.47A3.48,3.48,0,0,1-11.006-9.5l.107-1.064H-8.76V-.322a4.258,4.258,0,0,1-1.294,3.281,4.928,4.928,0,0,1-3.491,1.2,5.627,5.627,0,0,1-2.271-.483A4.034,4.034,0,0,1-17.5,2.412L-16.377.986a3.392,3.392,0,0,0,2.7,1.3,2.621,2.621,0,0,0,1.865-.64,2.451,2.451,0,0,0,.684-1.88V-.947A3.494,3.494,0,0,1-13.867.2,3.705,3.705,0,0,1-16.9-1.279,6.38,6.38,0,0,1-18.076-5.361Zm2.363.205a4.254,4.254,0,0,0,.649,2.5,2.088,2.088,0,0,0,1.8.913,2.284,2.284,0,0,0,2.129-1.23V-7.617a2.251,2.251,0,0,0-2.109-1.2,2.1,2.1,0,0,0-1.821.928A4.763,4.763,0,0,0-15.713-5.156ZM-3.77,0H-6.143V-10.566H-3.77Zm-.449-14.932h2.705l-2.705,2.959h-1.9ZM4.854-2.871a1.076,1.076,0,0,0-.522-.967A5.557,5.557,0,0,0,2.6-4.424,8.911,8.911,0,0,1,.576-5.068,2.7,2.7,0,0,1-1.2-7.559,2.813,2.813,0,0,1-.049-9.844a4.556,4.556,0,0,1,2.93-.918,4.74,4.74,0,0,1,3.062.938A2.975,2.975,0,0,1,7.109-7.393H4.736A1.462,1.462,0,0,0,4.229-8.53a1.946,1.946,0,0,0-1.348-.454,2.1,2.1,0,0,0-1.274.361,1.139,1.139,0,0,0-.493.967.962.962,0,0,0,.459.85,6.312,6.312,0,0,0,1.855.61,8.783,8.783,0,0,1,2.192.732A3.1,3.1,0,0,1,6.8-4.443,2.6,2.6,0,0,1,7.188-3,2.753,2.753,0,0,1,6.006-.688,5.039,5.039,0,0,1,2.91.2,5.464,5.464,0,0,1,.6-.273,3.809,3.809,0,0,1-.986-1.562,3.051,3.051,0,0,1-1.553-3.33h2.3a1.672,1.672,0,0,0,.635,1.294,2.467,2.467,0,0,0,1.553.454,2.4,2.4,0,0,0,1.426-.356A1.1,1.1,0,0,0,4.854-2.871Zm7.373-10.264v2.568h1.865v1.758H12.227v5.9a1.3,1.3,0,0,0,.239.874,1.109,1.109,0,0,0,.854.269,3.656,3.656,0,0,0,.83-.1V-.029A5.845,5.845,0,0,1,12.588.2Q9.854.2,9.854-2.822V-8.809H8.115v-1.758H9.854v-2.568ZM18.428,0H16.055V-10.566h2.373Zm-2.52-13.311a1.259,1.259,0,0,1,.347-.908,1.309,1.309,0,0,1,.991-.361,1.326,1.326,0,0,1,1,.361,1.25,1.25,0,0,1,.352.908,1.221,1.221,0,0,1-.352.894,1.336,1.336,0,0,1-1,.356,1.32,1.32,0,0,1-.991-.356A1.23,1.23,0,0,1,15.908-13.311ZM25.352-1.7a2.146,2.146,0,0,0,1.475-.518A1.768,1.768,0,0,0,27.451-3.5h2.236a3.486,3.486,0,0,1-.615,1.841A4.035,4.035,0,0,1,27.51-.3a4.656,4.656,0,0,1-2.129.5A4.505,4.505,0,0,1,21.865-1.24a5.694,5.694,0,0,1-1.3-3.965v-.244a5.6,5.6,0,0,1,1.289-3.862,4.464,4.464,0,0,1,3.516-1.45,4.341,4.341,0,0,1,3.071,1.1,3.935,3.935,0,0,1,1.245,2.886H27.451a2.173,2.173,0,0,0-.62-1.494,2,2,0,0,0-1.479-.586,2.088,2.088,0,0,0-1.777.835,4.261,4.261,0,0,0-.635,2.534v.381a4.331,4.331,0,0,0,.62,2.563A2.086,2.086,0,0,0,25.352-1.7ZM37.793,0a3.662,3.662,0,0,1-.273-.986A3.694,3.694,0,0,1,34.746.2a3.728,3.728,0,0,1-2.6-.908,2.906,2.906,0,0,1-1.006-2.246A3,3,0,0,1,32.4-5.552a6.081,6.081,0,0,1,3.589-.9h1.455v-.693a1.851,1.851,0,0,0-.459-1.313,1.819,1.819,0,0,0-1.4-.493,2.09,2.09,0,0,0-1.328.405,1.254,1.254,0,0,0-.518,1.03H31.367a2.634,2.634,0,0,1,.576-1.626,3.838,3.838,0,0,1,1.567-1.187,5.506,5.506,0,0,1,2.212-.43,4.434,4.434,0,0,1,2.959.933,3.326,3.326,0,0,1,1.133,2.622v4.766a5.4,5.4,0,0,0,.4,2.275V0ZM35.186-1.709a2.7,2.7,0,0,0,1.323-.342,2.284,2.284,0,0,0,.933-.918V-4.961H36.162A3.5,3.5,0,0,0,34.18-4.5a1.487,1.487,0,0,0-.664,1.3,1.387,1.387,0,0,0,.454,1.089A1.758,1.758,0,0,0,35.186-1.709Z" transform="translate(-13284 -4524)" fill="#022644"/>
    <path id="Trazado_6310" data-name="Trazado 6310" d="M-13686.5-7478v51.926" transform="translate(-165.5 2864.926)" fill="none" stroke="#022644" stroke-width="1.5"/>
    <path id="Trazado_6311" data-name="Trazado 6311" d="M-13686.5-7478v51.926" transform="translate(25 2864.926)" fill="none" stroke="#022644" stroke-width="1.5"/>
    <path id="Trazado_6312" data-name="Trazado 6312" d="M-13686.5-7478v51.926" transform="translate(212 2864.926)" fill="none" stroke="#022644" stroke-width="1.5"/>
  </g>
</svg>
