<svg xmlns="http://www.w3.org/2000/svg" xmlns:xlink="http://www.w3.org/1999/xlink" width="112" height="112" viewBox="0 0 112 112">
  <defs>
    <clipPath id="clip-path">
      <rect id="Rectángulo_4825" data-name="Rectángulo 4825" width="57.465" height="29.25" transform="translate(0 0)" fill="#fff" stroke="#707070" stroke-width="1"/>
    </clipPath>
  </defs>
  <g id="Grupo_20541" data-name="Grupo 20541" transform="translate(-69 -1352.93)">
    <g id="Grupo_20540" data-name="Grupo 20540" transform="translate(77.253 1357.562)">
      <g id="Enmascarar_grupo_41" data-name="Enmascarar grupo 41" transform="translate(11.969 61.607)" clip-path="url(#clip-path)">
        <g id="Grupo_20533" data-name="Grupo 20533" transform="translate(-70.584 10.42)">
          <rect id="Rectángulo_4818" data-name="Rectángulo 4818" width="6.438" height="114.751" transform="matrix(0.74, 0.673, -0.673, 0.74, 81.117, 3.541)" fill="#f8f8a6"/>
          <rect id="Rectángulo_4819" data-name="Rectángulo 4819" width="2.88" height="114.751" transform="matrix(0.74, 0.673, -0.673, 0.74, 87.641, 9.477)" fill="#f8f8a6"/>
          <rect id="Rectángulo_4820" data-name="Rectángulo 4820" width="2.88" height="114.751" transform="matrix(0.74, 0.673, -0.673, 0.74, 77.225, 0)" fill="#f8f8a6"/>
        </g>
      </g>
      <g id="Grupo_20534" data-name="Grupo 20534" transform="translate(0 0)">
        <g id="Grupo_20526" data-name="Grupo 20526" transform="translate(16.473 57.767)">
          <path id="Trazado_2110" data-name="Trazado 2110" d="M355.869,398.048a39.313,39.313,0,0,0-2.27-4.329,12.125,12.125,0,0,1-2.05-4.614L348,392.03a.572.572,0,0,0-.113.093c-.937,1.03,2.2,5.414,7.016,9.792q.665.605,1.324,1.167a4.768,4.768,0,0,0,.467-1.684A7.139,7.139,0,0,0,355.869,398.048Z" transform="translate(-347.724 -380.581)" fill="#93f5e5"/>
          <path id="Trazado_2111" data-name="Trazado 2111" d="M377.331,381.2a.563.563,0,0,0,.082-.121l10.091-14.9L373.9,353.8l-10.332,8.524a12.125,12.125,0,0,0,2.05,4.614,39.306,39.306,0,0,1,2.27,4.329,7.14,7.14,0,0,1,.828,3.35,4.769,4.769,0,0,1-.467,1.684C372.561,379.985,376.481,382.136,377.331,381.2Z" transform="translate(-359.74 -353.803)" fill="#5dc2ae"/>
        </g>
        <g id="Grupo_20527" data-name="Grupo 20527" transform="translate(0 25.271)">
          <path id="Trazado_2112" data-name="Trazado 2112" d="M323.159,234.106c-6.128,7.529-12.583,14.826-20.459,20.445a35.6,35.6,0,0,1-10.253,5.343,20.482,20.482,0,0,1-8.005.834l-4.943,5.784h0c4.123,3.751,9.976,4.409,14.168,1.564l38.28-25.975Z" transform="translate(-279.499 -230.511)" fill="#164377"/>
          <path id="Trazado_2113" data-name="Trazado 2113" d="M307.975,248.6a35.607,35.607,0,0,0,10.253-5.343c7.876-5.62,14.332-12.916,20.46-20.445l-.646-.588c-4.6-4.188-11.425-3.967-15.2.446L299.97,249.435A20.483,20.483,0,0,0,307.975,248.6Z" transform="translate(-295.027 -219.217)" fill="#105697"/>
        </g>
        <g id="Grupo_20528" data-name="Grupo 20528" transform="translate(39.491 46.456)">
          <path id="Trazado_2114" data-name="Trazado 2114" d="M474.037,333.2l11.881-11.215a11.364,11.364,0,0,0-3.595-6.441l-9.434-8.583L451.4,346.122a23.592,23.592,0,0,0,9.795-2.82C466.026,340.746,470.063,336.948,474.037,333.2Z" transform="translate(-449.386 -306.958)" fill="#105697"/>
          <path id="Trazado_2115" data-name="Trazado 2115" d="M479.585,369.181,467.7,380.4c-3.973,3.751-8.011,7.548-12.84,10.1a23.592,23.592,0,0,1-9.795,2.82l-.765,1.394c-2.437,4.442-1.231,10.207,2.892,13.958l29.781-30.761A9.966,9.966,0,0,0,479.585,369.181Z" transform="translate(-443.053 -354.157)" fill="#164377"/>
        </g>
        <path id="Trazado_2116" data-name="Trazado 2116" d="M450.942,430.94a14.472,14.472,0,0,0,2.077.782A14.472,14.472,0,0,1,450.942,430.94Z" transform="translate(-409.546 -354.547)" fill="none"/>
        <path id="Trazado_2117" data-name="Trazado 2117" d="M434.208,421.362q.859.578,1.684,1.067Q435.069,421.941,434.208,421.362Z" transform="translate(-396.853 -347.282)" fill="none"/>
        <path id="Trazado_2118" data-name="Trazado 2118" d="M441.182,425.781c.548.325,1.082.619,1.6.88C442.264,426.4,441.73,426.106,441.182,425.781Z" transform="translate(-402.143 -350.634)" fill="none"/>
        <path id="Trazado_2119" data-name="Trazado 2119" d="M373.571,363.491c-2.977-3.271-4.965-6.427-5.425-8.59l-2.247,2.986c-.845,1.079.025,3.491,2.051,6.345a11.436,11.436,0,0,1,2.768-.659A25.887,25.887,0,0,1,373.571,363.491Z" transform="translate(-344.794 -296.868)" fill="#93f5e5"/>
        <path id="Trazado_2120" data-name="Trazado 2120" d="M393.643,400.235q-.372-.17-.759-.366c-.515-.261-1.049-.555-1.6-.88s-1.111-.682-1.684-1.067a46.929,46.929,0,0,1-5.311-4.2c-1.185-1.078-2.28-2.175-3.267-3.259a25.9,25.9,0,0,0-2.853.081,11.438,11.438,0,0,0-2.767.659,39.7,39.7,0,0,0,5.572,6.162c5.618,5.111,11.5,8,13.169,6.411l2.761-2.518a7.674,7.674,0,0,1-1.187-.243A14.475,14.475,0,0,1,393.643,400.235Z" transform="translate(-352.247 -323.842)" fill="#5dc2ae"/>
        <path id="Trazado_2121" data-name="Trazado 2121" d="M385.512,221c2.606-.583,4.784-2.313,6.837-4.02a291.568,291.568,0,0,0,36.423-36.189q-1.156-.921-2.295-1.954a39.538,39.538,0,0,1-8.9-11.429,85.428,85.428,0,0,0-22.814,20.629l-18.546,24.644c.459,2.163,2.447,5.319,5.425,8.59A17.071,17.071,0,0,0,385.512,221Z" transform="translate(-352.863 -154.644)" fill="#fff"/>
        <path id="Trazado_2122" data-name="Trazado 2122" d="M455.737,228.665a37.426,37.426,0,0,1-9.923-5.832,291.563,291.563,0,0,1-36.423,36.189c-2.053,1.707-4.231,3.437-6.837,4.021a17.069,17.069,0,0,1-3.872.27c.987,1.084,2.082,2.181,3.267,3.259a46.941,46.941,0,0,0,5.311,4.2q.86.578,1.684,1.067c.548.325,1.082.619,1.6.88q.387.2.759.366a14.488,14.488,0,0,0,2.077.782,7.691,7.691,0,0,0,1.187.243l22.786-20.786A85.433,85.433,0,0,0,455.737,228.665Z" transform="translate(-369.905 -196.689)" fill="#d2d3d3"/>
        <path id="Trazado_2123" data-name="Trazado 2123" d="M558.709,140.757a291.384,291.384,0,0,0,19.64-26.126,100.057,100.057,0,0,0-30.837,12.742,39.539,39.539,0,0,0,8.9,11.429C557.171,139.491,557.938,140.143,558.709,140.757Z" transform="translate(-482.799 -114.613)" fill="#93f5e5"/>
        <path id="Trazado_2124" data-name="Trazado 2124" d="M603.808,146.534a100.064,100.064,0,0,0,9.791-31.976h0l-.073.018a291.425,291.425,0,0,1-19.64,26.126A37.426,37.426,0,0,0,603.808,146.534Z" transform="translate(-517.975 -114.558)" fill="#5dc2ae"/>
        <path id="Trazado_2125" data-name="Trazado 2125" d="M498.342,251.229a12.41,12.41,0,1,0-3.164,9.623A12.363,12.363,0,0,0,498.342,251.229Z" transform="translate(-426.723 -209.777)" opacity="0.21" style="mix-blend-mode: multiply;isolation: isolate"/>
        <g id="Grupo_20529" data-name="Grupo 20529" transform="translate(47.323 27.033)">
          <path id="Trazado_2126" data-name="Trazado 2126" d="M489.7,244.059a18.781,18.781,0,0,0,10.948-6.4,12.412,12.412,0,0,0-24.629-.511,16.079,16.079,0,0,0,1.626,2.59A13,13,0,0,0,489.7,244.059Z" transform="translate(-475.892 -226.517)" fill="#93f5e5"/>
          <path id="Trazado_2127" data-name="Trazado 2127" d="M500.248,271.054a18.781,18.781,0,0,1-10.948,6.4,13,13,0,0,1-12.055-4.322,16.087,16.087,0,0,1-1.626-2.59,12.412,12.412,0,1,0,24.63.511Z" transform="translate(-475.491 -259.913)" fill="#5dc2ae"/>
        </g>
        <g id="Grupo_20530" data-name="Grupo 20530" transform="translate(50.058 29.767)">
          <path id="Trazado_2128" data-name="Trazado 2128" d="M506.764,255.831l-16.172-.048a9.605,9.605,0,0,0-.918,1.751l18,.053A9.615,9.615,0,0,0,506.764,255.831Z" transform="translate(-488.985 -251.45)" fill="#fff"/>
          <path id="Trazado_2129" data-name="Trazado 2129" d="M505.679,263.086l-17.995-.053a9.646,9.646,0,0,0-.634,2.552l19.248.057A9.706,9.706,0,0,0,505.679,263.086Z" transform="translate(-486.994 -256.949)" fill="#182b3a"/>
          <path id="Trazado_2130" data-name="Trazado 2130" d="M508.057,240.357a9.686,9.686,0,0,0-14.583,1.813l16.172.048A9.7,9.7,0,0,0,508.057,240.357Z" transform="translate(-491.867 -237.838)" fill="#182b3a"/>
          <path id="Trazado_2131" data-name="Trazado 2131" d="M515.175,311.069l-10.859-.032A9.684,9.684,0,0,0,515.175,311.069Z" transform="translate(-500.091 -293.362)" fill="#fff"/>
          <path id="Trazado_2132" data-name="Trazado 2132" d="M506.119,296.438a9.664,9.664,0,0,0,1.711-2.641l-17.762-.052a9.643,9.643,0,0,0,2.379,3.339,9.745,9.745,0,0,0,1.062.836l10.859.032A9.7,9.7,0,0,0,506.119,296.438Z" transform="translate(-489.283 -280.246)" fill="#182b3a"/>
          <path id="Trazado_2133" data-name="Trazado 2133" d="M506.123,273.658l-19.248-.056a9.713,9.713,0,0,0,.729,4.864l17.762.052A9.686,9.686,0,0,0,506.123,273.658Z" transform="translate(-486.819 -264.966)" fill="#fff"/>
        </g>
      </g>
    </g>
    <rect id="Rectángulo_4826" data-name="Rectángulo 4826" width="112" height="112" transform="translate(69 1352.93)" fill="none"/>
  </g>
</svg>
