<svg xmlns="http://www.w3.org/2000/svg" width="610" height="200" viewBox="0 0 610 200">
  <g id="Grupo_82525" data-name="Grupo 82525" transform="translate(-495 -2783)">
    <g id="Grupo_82524" data-name="Grupo 82524">
      <path id="Trazado_142008" data-name="Trazado 142008" d="M0,0H610V50H0Z" transform="translate(495 2833)" fill="#ffedb7"/>
      <path id="Trazado_142009" data-name="Trazado 142009" d="M0,0H610V50H0Z" transform="translate(495 2783)" fill="#ffa726"/>
      <path id="Trazado_142011" data-name="Trazado 142011" d="M0,0H610V50H0Z" transform="translate(495 2883)" fill="#fff6db"/>
      <path id="Trazado_142017" data-name="Trazado 142017" d="M0,0H610V50H0Z" transform="translate(495 2933)" fill="#ffedb7"/>
      <path id="Trazado_142010" data-name="Trazado 142010" d="M-35.578-6.012V0h-3.516V-17.062h6.656a7.7,7.7,0,0,1,3.381.7,5.181,5.181,0,0,1,2.244,2,5.571,5.571,0,0,1,.785,2.947,4.9,4.9,0,0,1-1.717,3.955A7.15,7.15,0,0,1-32.5-6.012Zm0-2.848h3.141a3.088,3.088,0,0,0,2.127-.656,2.387,2.387,0,0,0,.732-1.875,2.814,2.814,0,0,0-.738-2.027,2.758,2.758,0,0,0-2.039-.8h-3.223Zm19.336,7.57A4.247,4.247,0,0,1-19.711.234,4.005,4.005,0,0,1-22.822-.937a5,5,0,0,1-1.1-3.434V-12.68h3.387v8.2q0,1.983,1.8,1.983a2.445,2.445,0,0,0,2.367-1.2V-12.68h3.4V0h-3.187ZM-17.754-18h3.691l-3.246,3.633h-2.754ZM1.02-6.223a7.678,7.678,0,0,1-1.3,4.752A4.309,4.309,0,0,1-3.914.234,3.959,3.959,0,0,1-7.207-1.348L-7.359,0h-3.047V-18H-7.02v6.457a3.857,3.857,0,0,1,3.082-1.371A4.344,4.344,0,0,1-.3-11.209,7.689,7.689,0,0,1,1.02-6.41Zm-3.387-.258A5.072,5.072,0,0,0-2.977-9.3a2.058,2.058,0,0,0-1.816-.888A2.233,2.233,0,0,0-7.02-8.855v5.019A2.263,2.263,0,0,0-4.77-2.5,2.092,2.092,0,0,0-2.613-4.118,8.392,8.392,0,0,0-2.367-6.481ZM6.68,0h-3.4V-18h3.4Zm6.363,0h-3.4V-12.68h3.4Zm-3.6-15.961a1.668,1.668,0,0,1,.51-1.254,1.915,1.915,0,0,1,1.389-.492,1.919,1.919,0,0,1,1.383.492,1.658,1.658,0,0,1,.516,1.254,1.663,1.663,0,0,1-.521,1.266,1.924,1.924,0,0,1-1.377.492A1.924,1.924,0,0,1,9.967-14.7,1.663,1.663,0,0,1,9.445-15.961ZM21.105-2.5a2.221,2.221,0,0,0,1.523-.516,1.807,1.807,0,0,0,.609-1.371h3.176a4.344,4.344,0,0,1-.7,2.361A4.64,4.64,0,0,1,23.818-.357a5.923,5.923,0,0,1-2.654.592,5.5,5.5,0,0,1-4.289-1.729A6.84,6.84,0,0,1,15.3-6.27v-.223a6.762,6.762,0,0,1,1.559-4.676,5.441,5.441,0,0,1,4.277-1.746,5.333,5.333,0,0,1,3.814,1.354,4.792,4.792,0,0,1,1.459,3.6H23.238a2.327,2.327,0,0,0-.609-1.608,2.032,2.032,0,0,0-1.547-.619,2.04,2.04,0,0,0-1.787.863,5,5,0,0,0-.6,2.8v.352a5.063,5.063,0,0,0,.6,2.817A2.065,2.065,0,0,0,21.105-2.5ZM27.82-6.457a7.52,7.52,0,0,1,.727-3.363,5.319,5.319,0,0,1,2.092-2.285,6.1,6.1,0,0,1,3.17-.809A5.774,5.774,0,0,1,38-11.344a6.3,6.3,0,0,1,1.811,4.266l.023.867A6.627,6.627,0,0,1,38.2-1.529,5.662,5.662,0,0,1,33.832.234a5.69,5.69,0,0,1-4.377-1.758A6.744,6.744,0,0,1,27.82-6.3Zm3.387.24a4.74,4.74,0,0,0,.68,2.764,2.242,2.242,0,0,0,1.945.957,2.247,2.247,0,0,0,1.922-.945,5.186,5.186,0,0,0,.691-3.022,4.692,4.692,0,0,0-.691-2.746,2.248,2.248,0,0,0-1.945-.974,2.211,2.211,0,0,0-1.922.968A5.274,5.274,0,0,0,31.207-6.217Z" transform="translate(643 2866)" fill="#00104e"/>
      <path id="Trazado_142015" data-name="Trazado 142015" d="M1.846-11.143H6.781v3.568H1.846V-2h-3.76V-7.574H-6.863v-3.568h4.949v-5.346h3.76Z" transform="translate(958 2866)" fill="#00104e"/>
      <path id="Trazado_142013" data-name="Trazado 142013" d="M-36.217-6.012V0h-3.516V-17.062h6.656a7.7,7.7,0,0,1,3.381.7,5.181,5.181,0,0,1,2.244,2,5.571,5.571,0,0,1,.785,2.947,4.9,4.9,0,0,1-1.717,3.955,7.15,7.15,0,0,1-4.752,1.447Zm0-2.848h3.141a3.088,3.088,0,0,0,2.127-.656,2.387,2.387,0,0,0,.732-1.875,2.814,2.814,0,0,0-.738-2.027,2.758,2.758,0,0,0-2.039-.8h-3.223ZM-17.35-9.5A9.2,9.2,0,0,0-18.568-9.6a2.481,2.481,0,0,0-2.52,1.3V0h-3.387V-12.68h3.2l.094,1.512a3.138,3.138,0,0,1,2.824-1.746,3.549,3.549,0,0,1,1.055.152Zm5.2,9.5h-3.4V-12.68h3.4Zm-3.6-15.961a1.668,1.668,0,0,1,.51-1.254,1.915,1.915,0,0,1,1.389-.492,1.919,1.919,0,0,1,1.383.492,1.658,1.658,0,0,1,.516,1.254,1.663,1.663,0,0,1-.521,1.266,1.924,1.924,0,0,1-1.377.492,1.924,1.924,0,0,1-1.377-.492A1.663,1.663,0,0,1-15.744-15.961ZM-4.611-4.137l2.355-8.543H1.283L-2.994,0H-6.229l-4.277-12.68h3.539ZM9.943,0A3.761,3.761,0,0,1,9.6-1.137,4.1,4.1,0,0,1,6.4.234,4.5,4.5,0,0,1,3.316-.844,3.467,3.467,0,0,1,2.092-3.562,3.583,3.583,0,0,1,3.586-6.656,7.373,7.373,0,0,1,7.9-7.746H9.463v-.727a2.089,2.089,0,0,0-.451-1.406,1.775,1.775,0,0,0-1.424-.527A2.018,2.018,0,0,0,6.246-10,1.393,1.393,0,0,0,5.76-8.871H2.373a3.4,3.4,0,0,1,.68-2.039,4.493,4.493,0,0,1,1.922-1.471,7,7,0,0,1,2.789-.533,5.534,5.534,0,0,1,3.721,1.178,4.12,4.12,0,0,1,1.377,3.311v5.5a6.062,6.062,0,0,0,.5,2.73V0Zm-2.8-2.355a2.917,2.917,0,0,0,1.383-.334,2.194,2.194,0,0,0,.938-.9v-2.18H8.2q-2.543,0-2.707,1.758l-.012.2a1.356,1.356,0,0,0,.445,1.043A1.73,1.73,0,0,0,7.143-2.355Zm7.793-4.078a7.641,7.641,0,0,1,1.33-4.723A4.316,4.316,0,0,1,19.9-12.914a3.884,3.884,0,0,1,3.059,1.383V-18h3.4V0H23.3l-.164-1.348A3.985,3.985,0,0,1,19.881.234a4.3,4.3,0,0,1-3.592-1.764A7.887,7.887,0,0,1,14.936-6.434Zm3.387.241a5.033,5.033,0,0,0,.621,2.743,2.022,2.022,0,0,0,1.8.954,2.265,2.265,0,0,0,2.215-1.33V-8.853a2.233,2.233,0,0,0-2.191-1.33Q18.322-10.184,18.322-6.193Zm10.137-.264a7.52,7.52,0,0,1,.727-3.363,5.319,5.319,0,0,1,2.092-2.285,6.1,6.1,0,0,1,3.17-.809,5.774,5.774,0,0,1,4.189,1.57,6.3,6.3,0,0,1,1.811,4.266l.023.867a6.627,6.627,0,0,1-1.629,4.682A5.662,5.662,0,0,1,34.471.234a5.69,5.69,0,0,1-4.377-1.758A6.744,6.744,0,0,1,28.459-6.3Zm3.387.24a4.74,4.74,0,0,0,.68,2.764,2.242,2.242,0,0,0,1.945.957,2.247,2.247,0,0,0,1.922-.945,5.186,5.186,0,0,0,.691-3.022,4.692,4.692,0,0,0-.691-2.746,2.248,2.248,0,0,0-1.945-.974,2.211,2.211,0,0,0-1.922.968A5.274,5.274,0,0,0,31.846-6.217Z" transform="translate(642 2916)" fill="#00104e"/>
      <path id="Trazado_142016" data-name="Trazado 142016" d="M3.773-6.932h-7.7v-3.186h7.7Z" transform="translate(957 2916)" fill="#00104e"/>
      <path id="Trazado_142020" data-name="Trazado 142020" d="M-47.771-6.012V0h-3.516V-17.062h6.656a7.7,7.7,0,0,1,3.381.7,5.181,5.181,0,0,1,2.244,2,5.571,5.571,0,0,1,.785,2.947,4.9,4.9,0,0,1-1.717,3.955,7.15,7.15,0,0,1-4.752,1.447Zm0-2.848h3.141A3.088,3.088,0,0,0-42.5-9.516a2.387,2.387,0,0,0,.732-1.875,2.814,2.814,0,0,0-.738-2.027,2.758,2.758,0,0,0-2.039-.8h-3.223ZM-28.9-9.5A9.2,9.2,0,0,0-30.123-9.6a2.481,2.481,0,0,0-2.52,1.3V0h-3.387V-12.68h3.2l.094,1.512a3.138,3.138,0,0,1,2.824-1.746,3.549,3.549,0,0,1,1.055.152Zm.68,3.047A7.52,7.52,0,0,1-27.5-9.82a5.319,5.319,0,0,1,2.092-2.285,6.1,6.1,0,0,1,3.17-.809,5.774,5.774,0,0,1,4.189,1.57,6.3,6.3,0,0,1,1.811,4.266l.023.867a6.627,6.627,0,0,1-1.629,4.682A5.662,5.662,0,0,1-22.213.234,5.69,5.69,0,0,1-26.59-1.523,6.744,6.744,0,0,1-28.225-6.3Zm3.387.24a4.74,4.74,0,0,0,.68,2.764,2.242,2.242,0,0,0,1.945.957,2.247,2.247,0,0,0,1.922-.945A5.186,5.186,0,0,0-19.6-6.463a4.692,4.692,0,0,0-.691-2.746,2.248,2.248,0,0,0-1.945-.974,2.211,2.211,0,0,0-1.922.968A5.274,5.274,0,0,0-24.838-6.217Zm14.766-9.58v3.117H-7.9V-10.2h-2.168v6.328A1.511,1.511,0,0,0-9.8-2.859a1.354,1.354,0,0,0,1.031.3,5.4,5.4,0,0,0,1-.082V-.07a6.972,6.972,0,0,1-2.051.3q-3.562,0-3.633-3.6V-10.2h-1.852V-12.68h1.852V-15.8ZM-.182.234A6.225,6.225,0,0,1-4.723-1.477,6.082,6.082,0,0,1-6.475-6.035v-.328a7.66,7.66,0,0,1,.738-3.416A5.418,5.418,0,0,1-3.645-12.1a5.871,5.871,0,0,1,3.088-.814,5.262,5.262,0,0,1,4.1,1.641A6.667,6.667,0,0,1,5.033-6.621v1.383H-3.041a3.146,3.146,0,0,0,.99,1.992A2.993,2.993,0,0,0,.041-2.5,3.656,3.656,0,0,0,3.1-3.914L4.764-2.051A5.084,5.084,0,0,1,2.7-.369,6.767,6.767,0,0,1-.182.234ZM-.568-10.184A2.116,2.116,0,0,0-2.2-9.5a3.535,3.535,0,0,0-.8,1.954H1.705v-.271A2.521,2.521,0,0,0,1.1-9.566,2.183,2.183,0,0,0-.568-10.184Zm7.031,3.75a7.431,7.431,0,0,1,1.389-4.7A4.5,4.5,0,0,1,11.6-12.914a3.946,3.946,0,0,1,3.246,1.43l.141-1.2h3.07V-.422A5.419,5.419,0,0,1,17.3,2.473,4.854,4.854,0,0,1,15.17,4.348a7.477,7.477,0,0,1-3.211.645A6.953,6.953,0,0,1,9.24,4.436,4.825,4.825,0,0,1,7.236,3L8.736.938a3.967,3.967,0,0,0,3.07,1.418,2.9,2.9,0,0,0,2.1-.721,2.7,2.7,0,0,0,.75-2.045v-.68A3.917,3.917,0,0,1,11.572.234a4.488,4.488,0,0,1-3.7-1.787,7.429,7.429,0,0,1-1.412-4.74Zm3.387.241a4.652,4.652,0,0,0,.691,2.714,2.2,2.2,0,0,0,1.9.983,2.35,2.35,0,0,0,2.215-1.165V-9.018a2.345,2.345,0,0,0-2.191-1.165,2.211,2.211,0,0,0-1.916,1A5.244,5.244,0,0,0,9.85-6.193ZM24.229,0h-3.4V-12.68h3.4Zm-3.6-15.961a1.668,1.668,0,0,1,.51-1.254,1.915,1.915,0,0,1,1.389-.492,1.919,1.919,0,0,1,1.383.492,1.658,1.658,0,0,1,.516,1.254,1.663,1.663,0,0,1-.521,1.266,1.924,1.924,0,0,1-1.377.492,1.924,1.924,0,0,1-1.377-.492A1.663,1.663,0,0,1,20.631-15.961ZM26.49-6.434a7.641,7.641,0,0,1,1.33-4.723,4.316,4.316,0,0,1,3.639-1.758,3.884,3.884,0,0,1,3.059,1.383V-18h3.4V0H34.857l-.164-1.348A3.985,3.985,0,0,1,31.436.234a4.3,4.3,0,0,1-3.592-1.764A7.887,7.887,0,0,1,26.49-6.434Zm3.387.241A5.033,5.033,0,0,0,30.5-3.45a2.022,2.022,0,0,0,1.8.954,2.265,2.265,0,0,0,2.215-1.33V-8.853a2.233,2.233,0,0,0-2.191-1.33Q29.877-10.184,29.877-6.193Zm10.137-.264A7.52,7.52,0,0,1,40.74-9.82a5.319,5.319,0,0,1,2.092-2.285A6.1,6.1,0,0,1,46-12.914a5.774,5.774,0,0,1,4.189,1.57A6.3,6.3,0,0,1,52-7.078l.023.867A6.627,6.627,0,0,1,50.4-1.529,5.662,5.662,0,0,1,46.025.234a5.69,5.69,0,0,1-4.377-1.758A6.744,6.744,0,0,1,40.014-6.3Zm3.387.24a4.74,4.74,0,0,0,.68,2.764,2.242,2.242,0,0,0,1.945.957,2.247,2.247,0,0,0,1.922-.945,5.186,5.186,0,0,0,.691-3.022,4.692,4.692,0,0,0-.691-2.746A2.248,2.248,0,0,0,46-10.184a2.211,2.211,0,0,0-1.922.968A5.274,5.274,0,0,0,43.4-6.217Z" transform="translate(643 2967)" fill="#00104e"/>
      <path id="Trazado_142019" data-name="Trazado 142019" d="M.779-5.605H-1.859L-2.844,0h-2.5l.984-5.605h-3.1V-7.957h3.514l.684-3.91H-6.439v-2.352h3.6l1-5.687H.643l-1,5.688H2.3l1-5.687H5.8l-1,5.688H7.793v2.352H4.375l-.684,3.91H6.754v2.352H3.281L2.3,0h-2.5ZM-1.449-7.957H1.189l.684-3.91H-.779Z" transform="translate(958 2967)" fill="#00104e"/>
      <path id="Trazado_142012" data-name="Trazado 142012" d="M0,0H610" transform="translate(495 2884)" fill="none" stroke="#fc9c25" stroke-width="1"/>
      <path id="Trazado_142014" data-name="Trazado 142014" d="M0,0V200" transform="translate(800 2783)" fill="none" stroke="#fc9c25" stroke-width="1"/>
      <path id="Trazado_142018" data-name="Trazado 142018" d="M0,0H610" transform="translate(495 2934)" fill="none" stroke="#fc9c25" stroke-width="1"/>
    </g>
  </g>
</svg>
