<svg xmlns="http://www.w3.org/2000/svg" width="820" height="566.451" viewBox="0 0 820 566.451">
  <g id="Grupo_82652" data-name="Grupo 82652" transform="translate(-390 -4829)">
    <path id="Trazado_142735" data-name="Trazado 142735" d="M7.438-2.344H3.328L2.547,0H.055L4.289-11.375H6.461L10.719,0H8.227Zm-3.477-1.9H6.8L5.375-8.5Zm12.25,1.906a.727.727,0,0,0-.41-.652,4.659,4.659,0,0,0-1.316-.426q-3.016-.633-3.016-2.562A2.323,2.323,0,0,1,12.4-7.855a3.766,3.766,0,0,1,2.441-.754,4.053,4.053,0,0,1,2.574.758,2.388,2.388,0,0,1,.965,1.969H16.125a1.092,1.092,0,0,0-.312-.8A1.322,1.322,0,0,0,14.836-7a1.351,1.351,0,0,0-.883.258.814.814,0,0,0-.312.656A.7.7,0,0,0,14-5.48a3.657,3.657,0,0,0,1.2.4,9.8,9.8,0,0,1,1.422.379A2.336,2.336,0,0,1,18.406-2.43a2.2,2.2,0,0,1-.992,1.871,4.28,4.28,0,0,1-2.562.715,4.47,4.47,0,0,1-1.887-.379,3.166,3.166,0,0,1-1.293-1.039A2.414,2.414,0,0,1,11.2-2.687h2.141a1.179,1.179,0,0,0,.445.922,1.766,1.766,0,0,0,1.109.32,1.635,1.635,0,0,0,.98-.246A.766.766,0,0,0,16.211-2.336Zm3.3-1.969a5.013,5.013,0,0,1,.484-2.242A3.546,3.546,0,0,1,21.387-8.07,4.069,4.069,0,0,1,23.5-8.609a3.849,3.849,0,0,1,2.793,1.047A4.2,4.2,0,0,1,27.5-4.719l.016.578A4.418,4.418,0,0,1,26.43-1.02,3.775,3.775,0,0,1,23.516.156,3.793,3.793,0,0,1,20.6-1.016,4.5,4.5,0,0,1,19.508-4.2Zm2.258.16A3.16,3.16,0,0,0,22.219-2.3a1.5,1.5,0,0,0,1.3.638,1.5,1.5,0,0,0,1.281-.63,3.457,3.457,0,0,0,.461-2.015A3.128,3.128,0,0,0,24.8-6.14a1.5,1.5,0,0,0-1.3-.649,1.474,1.474,0,0,0-1.281.646A3.516,3.516,0,0,0,21.766-4.144Zm10.656,2.48a1.481,1.481,0,0,0,1.016-.344,1.2,1.2,0,0,0,.406-.914h2.117a2.9,2.9,0,0,1-.469,1.574A3.093,3.093,0,0,1,34.23-.238a3.949,3.949,0,0,1-1.77.395A3.67,3.67,0,0,1,29.6-1,4.56,4.56,0,0,1,28.555-4.18v-.148a4.508,4.508,0,0,1,1.039-3.117,3.627,3.627,0,0,1,2.852-1.164,3.555,3.555,0,0,1,2.543.9,3.2,3.2,0,0,1,.973,2.4H33.844a1.551,1.551,0,0,0-.406-1.072,1.354,1.354,0,0,0-1.031-.412,1.36,1.36,0,0,0-1.191.575,3.333,3.333,0,0,0-.4,1.866v.235a3.375,3.375,0,0,0,.4,1.878A1.377,1.377,0,0,0,32.422-1.664ZM39.633,0H37.367V-8.453h2.266Zm-2.4-10.641a1.112,1.112,0,0,1,.34-.836A1.277,1.277,0,0,1,38.5-11.8a1.28,1.28,0,0,1,.922.328,1.105,1.105,0,0,1,.344.836,1.108,1.108,0,0,1-.348.844,1.283,1.283,0,0,1-.918.328,1.283,1.283,0,0,1-.918-.328A1.108,1.108,0,0,1,37.234-10.641ZM46.391,0a2.507,2.507,0,0,1-.227-.758,2.732,2.732,0,0,1-2.133.914,3,3,0,0,1-2.059-.719,2.312,2.312,0,0,1-.816-1.812,2.389,2.389,0,0,1,1-2.062,4.915,4.915,0,0,1,2.879-.727H46.07v-.484a1.393,1.393,0,0,0-.3-.937,1.183,1.183,0,0,0-.949-.352,1.345,1.345,0,0,0-.895.273.929.929,0,0,0-.324.75H41.344A2.268,2.268,0,0,1,41.8-7.273a3,3,0,0,1,1.281-.98,4.669,4.669,0,0,1,1.859-.355,3.689,3.689,0,0,1,2.48.785,2.747,2.747,0,0,1,.918,2.207v3.664a4.041,4.041,0,0,0,.336,1.82V0ZM44.523-1.57a1.945,1.945,0,0,0,.922-.223,1.462,1.462,0,0,0,.625-.6V-3.844h-.844q-1.7,0-1.8,1.172l-.008.133a.9.9,0,0,0,.3.7A1.153,1.153,0,0,0,44.523-1.57Zm9.063-.094A1.481,1.481,0,0,0,54.6-2.008a1.2,1.2,0,0,0,.406-.914h2.117a2.9,2.9,0,0,1-.469,1.574A3.093,3.093,0,0,1,55.395-.238a3.949,3.949,0,0,1-1.77.395A3.67,3.67,0,0,1,50.766-1,4.56,4.56,0,0,1,49.719-4.18v-.148a4.508,4.508,0,0,1,1.039-3.117,3.627,3.627,0,0,1,2.852-1.164,3.555,3.555,0,0,1,2.543.9,3.2,3.2,0,0,1,.973,2.4H55.008A1.551,1.551,0,0,0,54.6-6.377a1.354,1.354,0,0,0-1.031-.412,1.36,1.36,0,0,0-1.191.575,3.333,3.333,0,0,0-.4,1.866v.235a3.375,3.375,0,0,0,.4,1.878A1.377,1.377,0,0,0,53.586-1.664ZM60.8,0H58.531V-8.453H60.8ZM58.4-10.641a1.112,1.112,0,0,1,.34-.836,1.277,1.277,0,0,1,.926-.328,1.28,1.28,0,0,1,.922.328,1.105,1.105,0,0,1,.344.836,1.108,1.108,0,0,1-.348.844,1.283,1.283,0,0,1-.918.328,1.283,1.283,0,0,1-.918-.328A1.108,1.108,0,0,1,58.4-10.641ZM62.3-4.3a5.013,5.013,0,0,1,.484-2.242A3.546,3.546,0,0,1,64.184-8.07,4.069,4.069,0,0,1,66.3-8.609,3.849,3.849,0,0,1,69.09-7.562,4.2,4.2,0,0,1,70.3-4.719l.016.578A4.418,4.418,0,0,1,69.227-1.02,3.775,3.775,0,0,1,66.313.156a3.793,3.793,0,0,1-2.918-1.172A4.5,4.5,0,0,1,62.3-4.2Zm2.258.16A3.16,3.16,0,0,0,65.016-2.3a1.5,1.5,0,0,0,1.3.638,1.5,1.5,0,0,0,1.281-.63,3.457,3.457,0,0,0,.461-2.015,3.128,3.128,0,0,0-.461-1.831,1.5,1.5,0,0,0-1.3-.649,1.474,1.474,0,0,0-1.281.646A3.516,3.516,0,0,0,64.563-4.144ZM66.742-12H69.2L67.039-9.578H65.2Zm7.039,3.547.07.977a2.951,2.951,0,0,1,2.43-1.133,2.453,2.453,0,0,1,2,.789,3.682,3.682,0,0,1,.672,2.359V0H76.7V-5.419a1.47,1.47,0,0,0-.312-1.045,1.4,1.4,0,0,0-1.039-.325,1.553,1.553,0,0,0-1.43.814V0H71.656V-8.453ZM90.039,0H87.781V-8.715l-2.7.832V-9.7L89.8-11.391h.242Z" transform="translate(754 4899)" fill="#12263f"/>
    <path id="Trazado_142736" data-name="Trazado 142736" d="M5.492-4.6H2.82V0H1.313V-11.375H5.078a4.457,4.457,0,0,1,2.957.875A3.148,3.148,0,0,1,9.07-7.953,3.062,3.062,0,0,1,8.5-6.1a3.428,3.428,0,0,1-1.6,1.18L9.57-.094V0H7.961ZM2.82-5.828h2.3A2.6,2.6,0,0,0,6.9-6.407a1.959,1.959,0,0,0,.66-1.55,2.062,2.062,0,0,0-.629-1.62,2.663,2.663,0,0,0-1.816-.571H2.82ZM10.563-4.3a4.993,4.993,0,0,1,.488-2.234A3.643,3.643,0,0,1,12.41-8.07,3.7,3.7,0,0,1,14.4-8.609a3.565,3.565,0,0,1,2.793,1.2,4.6,4.6,0,0,1,1.066,3.18v.1a5.036,5.036,0,0,1-.473,2.215A3.589,3.589,0,0,1,16.434-.391a3.743,3.743,0,0,1-2.02.547,3.556,3.556,0,0,1-2.785-1.2A4.575,4.575,0,0,1,10.563-4.2Zm1.453.172a3.616,3.616,0,0,0,.652,2.258,2.088,2.088,0,0,0,1.746.852,2.075,2.075,0,0,0,1.75-.863A3.955,3.955,0,0,0,16.813-4.3a3.61,3.61,0,0,0-.66-2.254A2.1,2.1,0,0,0,14.4-7.422a2.075,2.075,0,0,0-1.727.852A3.925,3.925,0,0,0,12.016-4.133ZM21.641,0H20.2V-12h1.445Zm6.5,0V-11.375h3.719a4.317,4.317,0,0,1,2.785.766,2.759,2.759,0,0,1,.934,2.266,2.31,2.31,0,0,1-.453,1.41,2.937,2.937,0,0,1-1.234.949A2.638,2.638,0,0,1,35.348-5a2.814,2.814,0,0,1,.535,1.723,3.042,3.042,0,0,1-.992,2.406,4.1,4.1,0,0,1-2.8.875Zm1.5-5.32v4.094h2.477A2.385,2.385,0,0,0,33.77-1.77a1.907,1.907,0,0,0,.605-1.5q0-2.055-2.234-2.055Zm0-1.2h2.266a2.375,2.375,0,0,0,1.574-.493,1.654,1.654,0,0,0,.59-1.339,1.626,1.626,0,0,0-.547-1.366,2.686,2.686,0,0,0-1.664-.427H29.641Z" transform="translate(878 4939)" fill="#12263f"/>
    <path id="Trazado_142737" data-name="Trazado 142737" d="M5.492-4.6H2.82V0H1.313V-11.375H5.078a4.457,4.457,0,0,1,2.957.875A3.148,3.148,0,0,1,9.07-7.953,3.062,3.062,0,0,1,8.5-6.1a3.428,3.428,0,0,1-1.6,1.18L9.57-.094V0H7.961ZM2.82-5.828h2.3A2.6,2.6,0,0,0,6.9-6.407a1.959,1.959,0,0,0,.66-1.55,2.062,2.062,0,0,0-.629-1.62,2.663,2.663,0,0,0-1.816-.571H2.82ZM10.563-4.3a4.993,4.993,0,0,1,.488-2.234A3.643,3.643,0,0,1,12.41-8.07,3.7,3.7,0,0,1,14.4-8.609a3.565,3.565,0,0,1,2.793,1.2,4.6,4.6,0,0,1,1.066,3.18v.1a5.036,5.036,0,0,1-.473,2.215A3.589,3.589,0,0,1,16.434-.391a3.743,3.743,0,0,1-2.02.547,3.556,3.556,0,0,1-2.785-1.2A4.575,4.575,0,0,1,10.563-4.2Zm1.453.172a3.616,3.616,0,0,0,.652,2.258,2.088,2.088,0,0,0,1.746.852,2.075,2.075,0,0,0,1.75-.863A3.955,3.955,0,0,0,16.813-4.3a3.61,3.61,0,0,0-.66-2.254A2.1,2.1,0,0,0,14.4-7.422a2.075,2.075,0,0,0-1.727.852A3.925,3.925,0,0,0,12.016-4.133ZM21.641,0H20.2V-12h1.445ZM34.422-2.977H29.656L28.586,0H27.039l4.344-11.375H32.7L37.047,0H35.508ZM30.109-4.2h3.867l-1.937-5.32Z" transform="translate(705 4939)" fill="#12263f"/>
    <path id="Trazado_142738" data-name="Trazado 142738" d="M5.492-4.6H2.82V0H1.313V-11.375H5.078a4.457,4.457,0,0,1,2.957.875A3.148,3.148,0,0,1,9.07-7.953,3.062,3.062,0,0,1,8.5-6.1a3.428,3.428,0,0,1-1.6,1.18L9.57-.094V0H7.961ZM2.82-5.828h2.3A2.6,2.6,0,0,0,6.9-6.407a1.959,1.959,0,0,0,.66-1.55,2.062,2.062,0,0,0-.629-1.62,2.663,2.663,0,0,0-1.816-.571H2.82ZM10.563-4.3a4.993,4.993,0,0,1,.488-2.234A3.643,3.643,0,0,1,12.41-8.07,3.7,3.7,0,0,1,14.4-8.609a3.565,3.565,0,0,1,2.793,1.2,4.6,4.6,0,0,1,1.066,3.18v.1a5.036,5.036,0,0,1-.473,2.215A3.589,3.589,0,0,1,16.434-.391a3.743,3.743,0,0,1-2.02.547,3.556,3.556,0,0,1-2.785-1.2A4.575,4.575,0,0,1,10.563-4.2Zm1.453.172a3.616,3.616,0,0,0,.652,2.258,2.088,2.088,0,0,0,1.746.852,2.075,2.075,0,0,0,1.75-.863A3.955,3.955,0,0,0,16.813-4.3a3.61,3.61,0,0,0-.66-2.254A2.1,2.1,0,0,0,14.4-7.422a2.075,2.075,0,0,0-1.727.852A3.925,3.925,0,0,0,12.016-4.133ZM21.641,0H20.2V-12h1.445Zm6.5,0V-11.375h3.719a4.317,4.317,0,0,1,2.785.766,2.759,2.759,0,0,1,.934,2.266,2.31,2.31,0,0,1-.453,1.41,2.937,2.937,0,0,1-1.234.949A2.638,2.638,0,0,1,35.348-5a2.814,2.814,0,0,1,.535,1.723,3.042,3.042,0,0,1-.992,2.406,4.1,4.1,0,0,1-2.8.875Zm1.5-5.32v4.094h2.477A2.385,2.385,0,0,0,33.77-1.77a1.907,1.907,0,0,0,.605-1.5q0-2.055-2.234-2.055Zm0-1.2h2.266a2.375,2.375,0,0,0,1.574-.493,1.654,1.654,0,0,0,.59-1.339,1.626,1.626,0,0,0-.547-1.366,2.686,2.686,0,0,0-1.664-.427H29.641Z" transform="translate(878 5143)" fill="#12263f"/>
    <path id="Trazado_142739" data-name="Trazado 142739" d="M5.492-4.6H2.82V0H1.313V-11.375H5.078a4.457,4.457,0,0,1,2.957.875A3.148,3.148,0,0,1,9.07-7.953,3.062,3.062,0,0,1,8.5-6.1a3.428,3.428,0,0,1-1.6,1.18L9.57-.094V0H7.961ZM2.82-5.828h2.3A2.6,2.6,0,0,0,6.9-6.407a1.959,1.959,0,0,0,.66-1.55,2.062,2.062,0,0,0-.629-1.62,2.663,2.663,0,0,0-1.816-.571H2.82ZM10.563-4.3a4.993,4.993,0,0,1,.488-2.234A3.643,3.643,0,0,1,12.41-8.07,3.7,3.7,0,0,1,14.4-8.609a3.565,3.565,0,0,1,2.793,1.2,4.6,4.6,0,0,1,1.066,3.18v.1a5.036,5.036,0,0,1-.473,2.215A3.589,3.589,0,0,1,16.434-.391a3.743,3.743,0,0,1-2.02.547,3.556,3.556,0,0,1-2.785-1.2A4.575,4.575,0,0,1,10.563-4.2Zm1.453.172a3.616,3.616,0,0,0,.652,2.258,2.088,2.088,0,0,0,1.746.852,2.075,2.075,0,0,0,1.75-.863A3.955,3.955,0,0,0,16.813-4.3a3.61,3.61,0,0,0-.66-2.254A2.1,2.1,0,0,0,14.4-7.422a2.075,2.075,0,0,0-1.727.852A3.925,3.925,0,0,0,12.016-4.133ZM21.641,0H20.2V-12h1.445ZM34.422-2.977H29.656L28.586,0H27.039l4.344-11.375H32.7L37.047,0H35.508ZM30.109-4.2h3.867l-1.937-5.32Z" transform="translate(705 5143)" fill="#12263f"/>
    <path id="Trazado_142740" data-name="Trazado 142740" d="M5.492-4.6H2.82V0H1.313V-11.375H5.078a4.457,4.457,0,0,1,2.957.875A3.148,3.148,0,0,1,9.07-7.953,3.062,3.062,0,0,1,8.5-6.1a3.428,3.428,0,0,1-1.6,1.18L9.57-.094V0H7.961ZM2.82-5.828h2.3A2.6,2.6,0,0,0,6.9-6.407a1.959,1.959,0,0,0,.66-1.55,2.062,2.062,0,0,0-.629-1.62,2.663,2.663,0,0,0-1.816-.571H2.82ZM10.563-4.3a4.993,4.993,0,0,1,.488-2.234A3.643,3.643,0,0,1,12.41-8.07,3.7,3.7,0,0,1,14.4-8.609a3.565,3.565,0,0,1,2.793,1.2,4.6,4.6,0,0,1,1.066,3.18v.1a5.036,5.036,0,0,1-.473,2.215A3.589,3.589,0,0,1,16.434-.391a3.743,3.743,0,0,1-2.02.547,3.556,3.556,0,0,1-2.785-1.2A4.575,4.575,0,0,1,10.563-4.2Zm1.453.172a3.616,3.616,0,0,0,.652,2.258,2.088,2.088,0,0,0,1.746.852,2.075,2.075,0,0,0,1.75-.863A3.955,3.955,0,0,0,16.813-4.3a3.61,3.61,0,0,0-.66-2.254A2.1,2.1,0,0,0,14.4-7.422a2.075,2.075,0,0,0-1.727.852A3.925,3.925,0,0,0,12.016-4.133ZM21.641,0H20.2V-12h1.445Zm6.5,0V-11.375h3.719a4.317,4.317,0,0,1,2.785.766,2.759,2.759,0,0,1,.934,2.266,2.31,2.31,0,0,1-.453,1.41,2.937,2.937,0,0,1-1.234.949A2.638,2.638,0,0,1,35.348-5a2.814,2.814,0,0,1,.535,1.723,3.042,3.042,0,0,1-.992,2.406,4.1,4.1,0,0,1-2.8.875Zm1.5-5.32v4.094h2.477A2.385,2.385,0,0,0,33.77-1.77a1.907,1.907,0,0,0,.605-1.5q0-2.055-2.234-2.055Zm0-1.2h2.266a2.375,2.375,0,0,0,1.574-.493,1.654,1.654,0,0,0,.59-1.339,1.626,1.626,0,0,0-.547-1.366,2.686,2.686,0,0,0-1.664-.427H29.641Z" transform="translate(878 5335)" fill="#12263f"/>
    <path id="Trazado_142741" data-name="Trazado 142741" d="M5.492-4.6H2.82V0H1.313V-11.375H5.078a4.457,4.457,0,0,1,2.957.875A3.148,3.148,0,0,1,9.07-7.953,3.062,3.062,0,0,1,8.5-6.1a3.428,3.428,0,0,1-1.6,1.18L9.57-.094V0H7.961ZM2.82-5.828h2.3A2.6,2.6,0,0,0,6.9-6.407a1.959,1.959,0,0,0,.66-1.55,2.062,2.062,0,0,0-.629-1.62,2.663,2.663,0,0,0-1.816-.571H2.82ZM10.563-4.3a4.993,4.993,0,0,1,.488-2.234A3.643,3.643,0,0,1,12.41-8.07,3.7,3.7,0,0,1,14.4-8.609a3.565,3.565,0,0,1,2.793,1.2,4.6,4.6,0,0,1,1.066,3.18v.1a5.036,5.036,0,0,1-.473,2.215A3.589,3.589,0,0,1,16.434-.391a3.743,3.743,0,0,1-2.02.547,3.556,3.556,0,0,1-2.785-1.2A4.575,4.575,0,0,1,10.563-4.2Zm1.453.172a3.616,3.616,0,0,0,.652,2.258,2.088,2.088,0,0,0,1.746.852,2.075,2.075,0,0,0,1.75-.863A3.955,3.955,0,0,0,16.813-4.3a3.61,3.61,0,0,0-.66-2.254A2.1,2.1,0,0,0,14.4-7.422a2.075,2.075,0,0,0-1.727.852A3.925,3.925,0,0,0,12.016-4.133ZM21.641,0H20.2V-12h1.445ZM34.422-2.977H29.656L28.586,0H27.039l4.344-11.375H32.7L37.047,0H35.508ZM30.109-4.2h3.867l-1.937-5.32Z" transform="translate(705 5335)" fill="#12263f"/>
    <path id="Trazado_142742" data-name="Trazado 142742" d="M7.438-2.344H3.328L2.547,0H.055L4.289-11.375H6.461L10.719,0H8.227Zm-3.477-1.9H6.8L5.375-8.5Zm12.25,1.906a.727.727,0,0,0-.41-.652,4.659,4.659,0,0,0-1.316-.426q-3.016-.633-3.016-2.562A2.323,2.323,0,0,1,12.4-7.855a3.766,3.766,0,0,1,2.441-.754,4.053,4.053,0,0,1,2.574.758,2.388,2.388,0,0,1,.965,1.969H16.125a1.092,1.092,0,0,0-.312-.8A1.322,1.322,0,0,0,14.836-7a1.351,1.351,0,0,0-.883.258.814.814,0,0,0-.312.656A.7.7,0,0,0,14-5.48a3.657,3.657,0,0,0,1.2.4,9.8,9.8,0,0,1,1.422.379A2.336,2.336,0,0,1,18.406-2.43a2.2,2.2,0,0,1-.992,1.871,4.28,4.28,0,0,1-2.562.715,4.47,4.47,0,0,1-1.887-.379,3.166,3.166,0,0,1-1.293-1.039A2.414,2.414,0,0,1,11.2-2.687h2.141a1.179,1.179,0,0,0,.445.922,1.766,1.766,0,0,0,1.109.32,1.635,1.635,0,0,0,.98-.246A.766.766,0,0,0,16.211-2.336Zm3.3-1.969a5.013,5.013,0,0,1,.484-2.242A3.546,3.546,0,0,1,21.387-8.07,4.069,4.069,0,0,1,23.5-8.609a3.849,3.849,0,0,1,2.793,1.047A4.2,4.2,0,0,1,27.5-4.719l.016.578A4.418,4.418,0,0,1,26.43-1.02,3.775,3.775,0,0,1,23.516.156,3.793,3.793,0,0,1,20.6-1.016,4.5,4.5,0,0,1,19.508-4.2Zm2.258.16A3.16,3.16,0,0,0,22.219-2.3a1.5,1.5,0,0,0,1.3.638,1.5,1.5,0,0,0,1.281-.63,3.457,3.457,0,0,0,.461-2.015A3.128,3.128,0,0,0,24.8-6.14a1.5,1.5,0,0,0-1.3-.649,1.474,1.474,0,0,0-1.281.646A3.516,3.516,0,0,0,21.766-4.144Zm10.656,2.48a1.481,1.481,0,0,0,1.016-.344,1.2,1.2,0,0,0,.406-.914h2.117a2.9,2.9,0,0,1-.469,1.574A3.093,3.093,0,0,1,34.23-.238a3.949,3.949,0,0,1-1.77.395A3.67,3.67,0,0,1,29.6-1,4.56,4.56,0,0,1,28.555-4.18v-.148a4.508,4.508,0,0,1,1.039-3.117,3.627,3.627,0,0,1,2.852-1.164,3.555,3.555,0,0,1,2.543.9,3.2,3.2,0,0,1,.973,2.4H33.844a1.551,1.551,0,0,0-.406-1.072,1.354,1.354,0,0,0-1.031-.412,1.36,1.36,0,0,0-1.191.575,3.333,3.333,0,0,0-.4,1.866v.235a3.375,3.375,0,0,0,.4,1.878A1.377,1.377,0,0,0,32.422-1.664ZM39.633,0H37.367V-8.453h2.266Zm-2.4-10.641a1.112,1.112,0,0,1,.34-.836A1.277,1.277,0,0,1,38.5-11.8a1.28,1.28,0,0,1,.922.328,1.105,1.105,0,0,1,.344.836,1.108,1.108,0,0,1-.348.844,1.283,1.283,0,0,1-.918.328,1.283,1.283,0,0,1-.918-.328A1.108,1.108,0,0,1,37.234-10.641ZM46.391,0a2.507,2.507,0,0,1-.227-.758,2.732,2.732,0,0,1-2.133.914,3,3,0,0,1-2.059-.719,2.312,2.312,0,0,1-.816-1.812,2.389,2.389,0,0,1,1-2.062,4.915,4.915,0,0,1,2.879-.727H46.07v-.484a1.393,1.393,0,0,0-.3-.937,1.183,1.183,0,0,0-.949-.352,1.345,1.345,0,0,0-.895.273.929.929,0,0,0-.324.75H41.344A2.268,2.268,0,0,1,41.8-7.273a3,3,0,0,1,1.281-.98,4.669,4.669,0,0,1,1.859-.355,3.689,3.689,0,0,1,2.48.785,2.747,2.747,0,0,1,.918,2.207v3.664a4.041,4.041,0,0,0,.336,1.82V0ZM44.523-1.57a1.945,1.945,0,0,0,.922-.223,1.462,1.462,0,0,0,.625-.6V-3.844h-.844q-1.7,0-1.8,1.172l-.008.133a.9.9,0,0,0,.3.7A1.153,1.153,0,0,0,44.523-1.57Zm9.063-.094A1.481,1.481,0,0,0,54.6-2.008a1.2,1.2,0,0,0,.406-.914h2.117a2.9,2.9,0,0,1-.469,1.574A3.093,3.093,0,0,1,55.395-.238a3.949,3.949,0,0,1-1.77.395A3.67,3.67,0,0,1,50.766-1,4.56,4.56,0,0,1,49.719-4.18v-.148a4.508,4.508,0,0,1,1.039-3.117,3.627,3.627,0,0,1,2.852-1.164,3.555,3.555,0,0,1,2.543.9,3.2,3.2,0,0,1,.973,2.4H55.008A1.551,1.551,0,0,0,54.6-6.377a1.354,1.354,0,0,0-1.031-.412,1.36,1.36,0,0,0-1.191.575,3.333,3.333,0,0,0-.4,1.866v.235a3.375,3.375,0,0,0,.4,1.878A1.377,1.377,0,0,0,53.586-1.664ZM60.8,0H58.531V-8.453H60.8ZM58.4-10.641a1.112,1.112,0,0,1,.34-.836,1.277,1.277,0,0,1,.926-.328,1.28,1.28,0,0,1,.922.328,1.105,1.105,0,0,1,.344.836,1.108,1.108,0,0,1-.348.844,1.283,1.283,0,0,1-.918.328,1.283,1.283,0,0,1-.918-.328A1.108,1.108,0,0,1,58.4-10.641ZM62.3-4.3a5.013,5.013,0,0,1,.484-2.242A3.546,3.546,0,0,1,64.184-8.07,4.069,4.069,0,0,1,66.3-8.609,3.849,3.849,0,0,1,69.09-7.562,4.2,4.2,0,0,1,70.3-4.719l.016.578A4.418,4.418,0,0,1,69.227-1.02,3.775,3.775,0,0,1,66.313.156a3.793,3.793,0,0,1-2.918-1.172A4.5,4.5,0,0,1,62.3-4.2Zm2.258.16A3.16,3.16,0,0,0,65.016-2.3a1.5,1.5,0,0,0,1.3.638,1.5,1.5,0,0,0,1.281-.63,3.457,3.457,0,0,0,.461-2.015,3.128,3.128,0,0,0-.461-1.831,1.5,1.5,0,0,0-1.3-.649,1.474,1.474,0,0,0-1.281.646A3.516,3.516,0,0,0,64.563-4.144ZM66.742-12H69.2L67.039-9.578H65.2Zm7.039,3.547.07.977a2.951,2.951,0,0,1,2.43-1.133,2.453,2.453,0,0,1,2,.789,3.682,3.682,0,0,1,.672,2.359V0H76.7V-5.419a1.47,1.47,0,0,0-.312-1.045,1.4,1.4,0,0,0-1.039-.325,1.553,1.553,0,0,0-1.43.814V0H71.656V-8.453ZM92.352,0h-7.8V-1.547l3.68-3.922a9.078,9.078,0,0,0,1.121-1.445,2.322,2.322,0,0,0,.363-1.172,1.738,1.738,0,0,0-.383-1.191,1.382,1.382,0,0,0-1.094-.434,1.49,1.49,0,0,0-1.207.527A2.089,2.089,0,0,0,86.594-7.8H84.328a3.729,3.729,0,0,1,.5-1.9,3.5,3.5,0,0,1,1.4-1.348,4.262,4.262,0,0,1,2.055-.488,4.036,4.036,0,0,1,2.73.844A2.985,2.985,0,0,1,91.984-8.3a3.825,3.825,0,0,1-.437,1.719,9.551,9.551,0,0,1-1.5,2.039L87.461-1.82h4.891Z" transform="translate(754 5094)" fill="#12263f"/>
    <path id="Trazado_142743" data-name="Trazado 142743" d="M7.438-2.344H3.328L2.547,0H.055L4.289-11.375H6.461L10.719,0H8.227Zm-3.477-1.9H6.8L5.375-8.5Zm12.25,1.906a.727.727,0,0,0-.41-.652,4.659,4.659,0,0,0-1.316-.426q-3.016-.633-3.016-2.562A2.323,2.323,0,0,1,12.4-7.855a3.766,3.766,0,0,1,2.441-.754,4.053,4.053,0,0,1,2.574.758,2.388,2.388,0,0,1,.965,1.969H16.125a1.092,1.092,0,0,0-.312-.8A1.322,1.322,0,0,0,14.836-7a1.351,1.351,0,0,0-.883.258.814.814,0,0,0-.312.656A.7.7,0,0,0,14-5.48a3.657,3.657,0,0,0,1.2.4,9.8,9.8,0,0,1,1.422.379A2.336,2.336,0,0,1,18.406-2.43a2.2,2.2,0,0,1-.992,1.871,4.28,4.28,0,0,1-2.562.715,4.47,4.47,0,0,1-1.887-.379,3.166,3.166,0,0,1-1.293-1.039A2.414,2.414,0,0,1,11.2-2.687h2.141a1.179,1.179,0,0,0,.445.922,1.766,1.766,0,0,0,1.109.32,1.635,1.635,0,0,0,.98-.246A.766.766,0,0,0,16.211-2.336Zm3.3-1.969a5.013,5.013,0,0,1,.484-2.242A3.546,3.546,0,0,1,21.387-8.07,4.069,4.069,0,0,1,23.5-8.609a3.849,3.849,0,0,1,2.793,1.047A4.2,4.2,0,0,1,27.5-4.719l.016.578A4.418,4.418,0,0,1,26.43-1.02,3.775,3.775,0,0,1,23.516.156,3.793,3.793,0,0,1,20.6-1.016,4.5,4.5,0,0,1,19.508-4.2Zm2.258.16A3.16,3.16,0,0,0,22.219-2.3a1.5,1.5,0,0,0,1.3.638,1.5,1.5,0,0,0,1.281-.63,3.457,3.457,0,0,0,.461-2.015A3.128,3.128,0,0,0,24.8-6.14a1.5,1.5,0,0,0-1.3-.649,1.474,1.474,0,0,0-1.281.646A3.516,3.516,0,0,0,21.766-4.144Zm10.656,2.48a1.481,1.481,0,0,0,1.016-.344,1.2,1.2,0,0,0,.406-.914h2.117a2.9,2.9,0,0,1-.469,1.574A3.093,3.093,0,0,1,34.23-.238a3.949,3.949,0,0,1-1.77.395A3.67,3.67,0,0,1,29.6-1,4.56,4.56,0,0,1,28.555-4.18v-.148a4.508,4.508,0,0,1,1.039-3.117,3.627,3.627,0,0,1,2.852-1.164,3.555,3.555,0,0,1,2.543.9,3.2,3.2,0,0,1,.973,2.4H33.844a1.551,1.551,0,0,0-.406-1.072,1.354,1.354,0,0,0-1.031-.412,1.36,1.36,0,0,0-1.191.575,3.333,3.333,0,0,0-.4,1.866v.235a3.375,3.375,0,0,0,.4,1.878A1.377,1.377,0,0,0,32.422-1.664ZM39.633,0H37.367V-8.453h2.266Zm-2.4-10.641a1.112,1.112,0,0,1,.34-.836A1.277,1.277,0,0,1,38.5-11.8a1.28,1.28,0,0,1,.922.328,1.105,1.105,0,0,1,.344.836,1.108,1.108,0,0,1-.348.844,1.283,1.283,0,0,1-.918.328,1.283,1.283,0,0,1-.918-.328A1.108,1.108,0,0,1,37.234-10.641ZM46.391,0a2.507,2.507,0,0,1-.227-.758,2.732,2.732,0,0,1-2.133.914,3,3,0,0,1-2.059-.719,2.312,2.312,0,0,1-.816-1.812,2.389,2.389,0,0,1,1-2.062,4.915,4.915,0,0,1,2.879-.727H46.07v-.484a1.393,1.393,0,0,0-.3-.937,1.183,1.183,0,0,0-.949-.352,1.345,1.345,0,0,0-.895.273.929.929,0,0,0-.324.75H41.344A2.268,2.268,0,0,1,41.8-7.273a3,3,0,0,1,1.281-.98,4.669,4.669,0,0,1,1.859-.355,3.689,3.689,0,0,1,2.48.785,2.747,2.747,0,0,1,.918,2.207v3.664a4.041,4.041,0,0,0,.336,1.82V0ZM44.523-1.57a1.945,1.945,0,0,0,.922-.223,1.462,1.462,0,0,0,.625-.6V-3.844h-.844q-1.7,0-1.8,1.172l-.008.133a.9.9,0,0,0,.3.7A1.153,1.153,0,0,0,44.523-1.57Zm9.063-.094A1.481,1.481,0,0,0,54.6-2.008a1.2,1.2,0,0,0,.406-.914h2.117a2.9,2.9,0,0,1-.469,1.574A3.093,3.093,0,0,1,55.395-.238a3.949,3.949,0,0,1-1.77.395A3.67,3.67,0,0,1,50.766-1,4.56,4.56,0,0,1,49.719-4.18v-.148a4.508,4.508,0,0,1,1.039-3.117,3.627,3.627,0,0,1,2.852-1.164,3.555,3.555,0,0,1,2.543.9,3.2,3.2,0,0,1,.973,2.4H55.008A1.551,1.551,0,0,0,54.6-6.377a1.354,1.354,0,0,0-1.031-.412,1.36,1.36,0,0,0-1.191.575,3.333,3.333,0,0,0-.4,1.866v.235a3.375,3.375,0,0,0,.4,1.878A1.377,1.377,0,0,0,53.586-1.664ZM60.8,0H58.531V-8.453H60.8ZM58.4-10.641a1.112,1.112,0,0,1,.34-.836,1.277,1.277,0,0,1,.926-.328,1.28,1.28,0,0,1,.922.328,1.105,1.105,0,0,1,.344.836,1.108,1.108,0,0,1-.348.844,1.283,1.283,0,0,1-.918.328,1.283,1.283,0,0,1-.918-.328A1.108,1.108,0,0,1,58.4-10.641ZM62.3-4.3a5.013,5.013,0,0,1,.484-2.242A3.546,3.546,0,0,1,64.184-8.07,4.069,4.069,0,0,1,66.3-8.609,3.849,3.849,0,0,1,69.09-7.562,4.2,4.2,0,0,1,70.3-4.719l.016.578A4.418,4.418,0,0,1,69.227-1.02,3.775,3.775,0,0,1,66.313.156a3.793,3.793,0,0,1-2.918-1.172A4.5,4.5,0,0,1,62.3-4.2Zm2.258.16A3.16,3.16,0,0,0,65.016-2.3a1.5,1.5,0,0,0,1.3.638,1.5,1.5,0,0,0,1.281-.63,3.457,3.457,0,0,0,.461-2.015,3.128,3.128,0,0,0-.461-1.831,1.5,1.5,0,0,0-1.3-.649,1.474,1.474,0,0,0-1.281.646A3.516,3.516,0,0,0,64.563-4.144ZM66.742-12H69.2L67.039-9.578H65.2Zm7.039,3.547.07.977a2.951,2.951,0,0,1,2.43-1.133,2.453,2.453,0,0,1,2,.789,3.682,3.682,0,0,1,.672,2.359V0H76.7V-5.419a1.47,1.47,0,0,0-.312-1.045,1.4,1.4,0,0,0-1.039-.325,1.553,1.553,0,0,0-1.43.814V0H71.656V-8.453Zm13.07,1.766h1.2a1.7,1.7,0,0,0,1.273-.43,1.575,1.575,0,0,0,.414-1.141,1.392,1.392,0,0,0-.41-1.07A1.59,1.59,0,0,0,88.2-9.711a1.666,1.666,0,0,0-1.086.355,1.137,1.137,0,0,0-.437.926H84.422a2.777,2.777,0,0,1,.48-1.6,3.2,3.2,0,0,1,1.344-1.105,4.485,4.485,0,0,1,1.9-.4,4.253,4.253,0,0,1,2.828.863A2.945,2.945,0,0,1,92-8.289a2.394,2.394,0,0,1-.477,1.438,3.1,3.1,0,0,1-1.25,1.008,2.826,2.826,0,0,1,1.434,1.031,2.8,2.8,0,0,1,.473,1.625,2.994,2.994,0,0,1-1.105,2.43,4.445,4.445,0,0,1-2.926.914,4.214,4.214,0,0,1-2.785-.9,2.934,2.934,0,0,1-1.082-2.375h2.258a1.308,1.308,0,0,0,.48,1.047,1.771,1.771,0,0,0,1.184.406,1.779,1.779,0,0,0,1.262-.426,1.47,1.47,0,0,0,.457-1.129q0-1.7-1.875-1.7h-1.2Z" transform="translate(754 5295)" fill="#12263f"/>
    <g id="Grupo_56580" data-name="Grupo 56580" transform="translate(-195.23 5151.733)">
      <g id="Grupo_56565" data-name="Grupo 56565" transform="translate(1145.066 -297.522)">
        <rect id="Rectángulo_31315" data-name="Rectángulo 31315" width="234.701" height="120.475" rx="4.86" transform="translate(237.001 122.777) rotate(-180)" fill="#ffa726"/>
        <path id="Trazado_105570" data-name="Trazado 105570" d="M848.82-198.407v-99.832a12.637,12.637,0,0,1,12.622-12.624H1075.5a12.637,12.637,0,0,1,12.622,12.624v99.832a12.637,12.637,0,0,1-12.622,12.622H861.442A12.637,12.637,0,0,1,848.82-198.407Zm12.622-107.856a8.032,8.032,0,0,0-8.022,8.024v99.832a8.03,8.03,0,0,0,8.022,8.022H1075.5a8.03,8.03,0,0,0,8.022-8.022v-99.832a8.032,8.032,0,0,0-8.022-8.024Z" transform="translate(-848.82 310.863)" fill="#26a69a"/>
      </g>
      <g id="Grupo_56569" data-name="Grupo 56569" transform="translate(1124.203 -322.733)">
        <g id="Grupo_56566" data-name="Grupo 56566" transform="translate(0 140.513)">
          <path id="Trazado_105571" data-name="Trazado 105571" d="M841.3-247.374a2.3,2.3,0,0,0,2.3-2.3v-4.6a2.3,2.3,0,0,0-2.3-2.3,2.3,2.3,0,0,0-2.3,2.3v4.6A2.3,2.3,0,0,0,841.3-247.374Z" transform="translate(-838.997 256.575)" fill="#6d3fd3"/>
        </g>
        <g id="Grupo_56567" data-name="Grupo 56567">
          <path id="Trazado_105572" data-name="Trazado 105572" d="M839-198.218v-9.148a2.3,2.3,0,0,1,2.3-2.3,2.3,2.3,0,0,1,2.3,2.3v9.148a2.3,2.3,0,0,1-2.3,2.3A2.3,2.3,0,0,1,839-198.218Zm276.427-.032v-9.15a2.3,2.3,0,0,1,2.3-2.3,2.3,2.3,0,0,1,2.3,2.3v9.15a2.3,2.3,0,0,1-2.3,2.3A2.3,2.3,0,0,1,1115.424-198.249ZM839-225.665v-9.15a2.3,2.3,0,0,1,2.3-2.3,2.3,2.3,0,0,1,2.3,2.3v9.15a2.3,2.3,0,0,1-2.3,2.3A2.3,2.3,0,0,1,839-225.665Zm276.427-.032v-9.15a2.3,2.3,0,0,1,2.3-2.3,2.3,2.3,0,0,1,2.3,2.3v9.15a2.3,2.3,0,0,1-2.3,2.3A2.3,2.3,0,0,1,1115.424-225.7ZM839-253.114v-9.148a2.3,2.3,0,0,1,2.3-2.3,2.3,2.3,0,0,1,2.3,2.3v9.148a2.3,2.3,0,0,1-2.3,2.3A2.3,2.3,0,0,1,839-253.114Zm276.427-.03V-262.3a2.3,2.3,0,0,1,2.3-2.3,2.3,2.3,0,0,1,2.3,2.3v9.152a2.3,2.3,0,0,1-2.3,2.3A2.3,2.3,0,0,1,1115.424-253.144ZM839-280.559v-9.152a2.3,2.3,0,0,1,2.3-2.3,2.3,2.3,0,0,1,2.3,2.3v9.152a2.3,2.3,0,0,1-2.3,2.3A2.3,2.3,0,0,1,839-280.559Zm276.427-.034v-9.15a2.3,2.3,0,0,1,2.3-2.3,2.3,2.3,0,0,1,2.3,2.3v9.15a2.3,2.3,0,0,1-2.3,2.3A2.3,2.3,0,0,1,1115.424-280.593ZM841.99-305.678a2.3,2.3,0,0,1-1.238-3.007,22.8,22.8,0,0,1,4.938-7.361c.3-.293.6-.582.909-.86a2.3,2.3,0,0,1,3.247.178,2.3,2.3,0,0,1-.178,3.25c-.248.223-.493.452-.726.688A18.173,18.173,0,0,0,845-306.914a2.3,2.3,0,0,1-2.124,1.414A2.241,2.241,0,0,1,841.99-305.678Zm272.024-1.262a18.13,18.13,0,0,0-3.931-5.851c-.242-.242-.493-.48-.748-.707a2.3,2.3,0,0,1-.185-3.247,2.291,2.291,0,0,1,3.245-.183q.484.427.939.886a22.719,22.719,0,0,1,4.923,7.327,2.3,2.3,0,0,1-1.234,3.01,2.348,2.348,0,0,1-.888.179A2.3,2.3,0,0,1,1114.014-306.94ZM862.829-320.433a2.3,2.3,0,0,1,2.3-2.3h9.15a2.3,2.3,0,0,1,2.3,2.3,2.3,2.3,0,0,1-2.3,2.3h-9.15A2.3,2.3,0,0,1,862.829-320.433Zm27.447,0a2.3,2.3,0,0,1,2.3-2.3h9.15a2.3,2.3,0,0,1,2.3,2.3,2.3,2.3,0,0,1-2.3,2.3h-9.15A2.3,2.3,0,0,1,890.276-320.433Zm27.449,0a2.3,2.3,0,0,1,2.3-2.3h9.148a2.3,2.3,0,0,1,2.3,2.3,2.3,2.3,0,0,1-2.3,2.3h-9.148A2.3,2.3,0,0,1,917.725-320.433Zm27.447,0a2.3,2.3,0,0,1,2.3-2.3h9.15a2.3,2.3,0,0,1,2.3,2.3,2.3,2.3,0,0,1-2.3,2.3h-9.15A2.3,2.3,0,0,1,945.172-320.433Zm27.447,0a2.3,2.3,0,0,1,2.3-2.3h9.15a2.3,2.3,0,0,1,2.3,2.3,2.3,2.3,0,0,1-2.3,2.3h-9.15A2.3,2.3,0,0,1,972.62-320.433Zm27.447,0a2.3,2.3,0,0,1,2.3-2.3h9.15a2.3,2.3,0,0,1,2.3,2.3,2.3,2.3,0,0,1-2.3,2.3h-9.15A2.3,2.3,0,0,1,1000.067-320.433Zm27.449,0a2.3,2.3,0,0,1,2.3-2.3h9.15a2.3,2.3,0,0,1,2.3,2.3,2.3,2.3,0,0,1-2.3,2.3h-9.15A2.3,2.3,0,0,1,1027.516-320.433Zm27.447,0a2.3,2.3,0,0,1,2.3-2.3h9.15a2.3,2.3,0,0,1,2.3,2.3,2.3,2.3,0,0,1-2.3,2.3h-9.15A2.3,2.3,0,0,1,1054.963-320.433Zm27.447,0a2.3,2.3,0,0,1,2.3-2.3h9.15a2.3,2.3,0,0,1,2.3,2.3,2.3,2.3,0,0,1-2.3,2.3h-9.15A2.3,2.3,0,0,1,1082.41-320.433Z" transform="translate(-838.997 322.733)" fill="#26a69a"/>
        </g>
        <g id="Grupo_56568" data-name="Grupo 56568" transform="translate(276.427 140.513)">
          <path id="Trazado_105573" data-name="Trazado 105573" d="M971.448-247.374a2.3,2.3,0,0,0,2.3-2.3v-4.6a2.3,2.3,0,0,0-2.3-2.3,2.3,2.3,0,0,0-2.3,2.3v4.6A2.3,2.3,0,0,0,971.448-247.374Z" transform="translate(-969.148 256.575)" fill="#6d3fd3"/>
        </g>
      </g>
      <g id="Grupo_56572" data-name="Grupo 56572" transform="translate(876.029 -251.404)">
        <g id="Grupo_56570" data-name="Grupo 56570" transform="translate(15.515 9.168)">
          <path id="Trazado_105574" data-name="Trazado 105574" d="M984.949-194.18h234.6a23.842,23.842,0,0,0,16.178-5.994,22.713,22.713,0,0,0,7.415-16.842v-65.516h-4.6v64.876A19.1,19.1,0,0,1,1234-204.969a18.147,18.147,0,0,1-13.693,6.189H985.588a19.091,19.091,0,0,1-12.68-4.537,18.155,18.155,0,0,1-6.2-13.7v-67.816H729.453v4.6h232.66v62.464a23.844,23.844,0,0,0,6,16.184A22.7,22.7,0,0,0,984.949-194.18Z" transform="translate(-729.453 284.832)" fill="#26a69a"/>
        </g>
        <g id="Grupo_56571" data-name="Grupo 56571">
          <path id="Trazado_105575" data-name="Trazado 105575" d="M742.009-266.212,722.148-277.68l19.861-11.468Z" transform="translate(-722.148 289.149)" fill="#26a69a"/>
        </g>
      </g>
      <g id="Grupo_56573" data-name="Grupo 56573" transform="translate(606.092 -301.872)">
        <rect id="Rectángulo_31316" data-name="Rectángulo 31316" width="234.701" height="120.475" rx="4.86" transform="translate(2.301 2.302)" fill="#ffca28"/>
        <path id="Trazado_105576" data-name="Trazado 105576" d="M834.354-300.287v99.831a12.636,12.636,0,0,1-12.62,12.622H607.677a12.637,12.637,0,0,1-12.624-12.622v-99.831a12.638,12.638,0,0,1,12.624-12.624l214.057,0A12.636,12.636,0,0,1,834.354-300.287Zm-12.62,107.853a8.03,8.03,0,0,0,8.02-8.022v-99.831a8.03,8.03,0,0,0-8.02-8.022l-214.057,0a8.034,8.034,0,0,0-8.024,8.024v99.831a8.032,8.032,0,0,0,8.024,8.022Z" transform="translate(-595.053 312.911)" fill="#26a69a"/>
      </g>
      <g id="Grupo_56577" data-name="Grupo 56577" transform="translate(585.231 -301.297)">
        <g id="Grupo_56574" data-name="Grupo 56574" transform="translate(276.425)">
          <path id="Trazado_105577" data-name="Trazado 105577" d="M717.681-312.64a2.3,2.3,0,0,0-2.3,2.3v4.6a2.3,2.3,0,0,0,2.3,2.3,2.3,2.3,0,0,0,2.3-2.3v-4.6A2.3,2.3,0,0,0,717.681-312.64Z" transform="translate(-715.381 312.64)" fill="#26a69a"/>
        </g>
        <g id="Grupo_56575" data-name="Grupo 56575" transform="translate(0 22.898)">
          <path id="Trazado_105578" data-name="Trazado 105578" d="M866.256-299.559v9.15a2.3,2.3,0,0,1-2.3,2.3,2.3,2.3,0,0,1-2.3-2.3v-9.15a2.3,2.3,0,0,1,2.3-2.3A2.3,2.3,0,0,1,866.256-299.559Zm-276.425.032v9.15a2.3,2.3,0,0,1-2.3,2.3,2.3,2.3,0,0,1-2.3-2.3v-9.15a2.3,2.3,0,0,1,2.3-2.3A2.3,2.3,0,0,1,589.831-299.527Zm276.425,27.415v9.152a2.3,2.3,0,0,1-2.3,2.3,2.3,2.3,0,0,1-2.3-2.3v-9.152a2.3,2.3,0,0,1,2.3-2.3A2.3,2.3,0,0,1,866.256-272.112Zm-276.425.034v9.148a2.3,2.3,0,0,1-2.3,2.3,2.3,2.3,0,0,1-2.3-2.3v-9.148a2.3,2.3,0,0,1,2.3-2.3A2.3,2.3,0,0,1,589.831-272.078Zm276.425,27.415v9.148a2.3,2.3,0,0,1-2.3,2.3,2.3,2.3,0,0,1-2.3-2.3v-9.148a2.3,2.3,0,0,1,2.3-2.3A2.3,2.3,0,0,1,866.256-244.662Zm-276.425.032v9.15a2.3,2.3,0,0,1-2.3,2.3,2.3,2.3,0,0,1-2.3-2.3v-9.15a2.3,2.3,0,0,1,2.3-2.3A2.3,2.3,0,0,1,589.831-244.631Zm276.425,27.415v9.15a2.3,2.3,0,0,1-2.3,2.3,2.3,2.3,0,0,1-2.3-2.3v-9.15a2.3,2.3,0,0,1,2.3-2.3A2.3,2.3,0,0,1,866.256-217.215Zm-276.425.032v9.15a2.3,2.3,0,0,1-2.3,2.3,2.3,2.3,0,0,1-2.3-2.3v-9.15a2.3,2.3,0,0,1,2.3-2.3A2.3,2.3,0,0,1,589.831-217.184ZM863.266-192.1a2.3,2.3,0,0,1,1.236,3.007,22.749,22.749,0,0,1-4.938,7.364c-.293.291-.6.58-.907.858a2.3,2.3,0,0,1-3.247-.178,2.3,2.3,0,0,1,.176-3.247c.251-.225.495-.455.729-.69a18.145,18.145,0,0,0,3.942-5.877,2.3,2.3,0,0,1,2.124-1.414A2.244,2.244,0,0,1,863.266-192.1Zm-272.024,1.264a18.116,18.116,0,0,0,3.929,5.849q.366.366.748.707a2.3,2.3,0,0,1,.187,3.247,2.3,2.3,0,0,1-3.247.185q-.481-.43-.939-.886A22.7,22.7,0,0,1,587-189.059a2.3,2.3,0,0,1,1.234-3.01,2.291,2.291,0,0,1,.886-.178A2.3,2.3,0,0,1,591.242-190.835Zm251.182,13.491a2.3,2.3,0,0,1-2.3,2.3h-9.148a2.3,2.3,0,0,1-2.3-2.3,2.3,2.3,0,0,1,2.3-2.3h9.148A2.3,2.3,0,0,1,842.424-177.344Zm-27.447,0a2.3,2.3,0,0,1-2.3,2.3h-9.15a2.3,2.3,0,0,1-2.3-2.3,2.3,2.3,0,0,1,2.3-2.3h9.15A2.3,2.3,0,0,1,814.977-177.344Zm-27.447,0a2.3,2.3,0,0,1-2.3,2.3h-9.15a2.3,2.3,0,0,1-2.3-2.3,2.3,2.3,0,0,1,2.3-2.3h9.15A2.3,2.3,0,0,1,787.53-177.344Zm-27.449,0a2.3,2.3,0,0,1-2.3,2.3h-9.148a2.3,2.3,0,0,1-2.3-2.3,2.3,2.3,0,0,1,2.3-2.3h9.148A2.3,2.3,0,0,1,760.081-177.344Zm-27.447,0a2.3,2.3,0,0,1-2.3,2.3h-9.15a2.3,2.3,0,0,1-2.3-2.3,2.3,2.3,0,0,1,2.3-2.3h9.15A2.3,2.3,0,0,1,732.633-177.344Zm-27.447,0a2.3,2.3,0,0,1-2.3,2.3h-9.15a2.3,2.3,0,0,1-2.3-2.3,2.3,2.3,0,0,1,2.3-2.3h9.15A2.3,2.3,0,0,1,705.186-177.344Zm-27.447,0a2.3,2.3,0,0,1-2.3,2.3h-9.15a2.3,2.3,0,0,1-2.3-2.3,2.3,2.3,0,0,1,2.3-2.3h9.15A2.3,2.3,0,0,1,677.739-177.344Zm-27.449,0a2.3,2.3,0,0,1-2.3,2.3h-9.15a2.3,2.3,0,0,1-2.3-2.3,2.3,2.3,0,0,1,2.3-2.3h9.15A2.3,2.3,0,0,1,650.29-177.344Zm-27.447,0a2.3,2.3,0,0,1-2.3,2.3h-9.15a2.3,2.3,0,0,1-2.3-2.3,2.3,2.3,0,0,1,2.3-2.3h9.15A2.3,2.3,0,0,1,622.843-177.344Z" transform="translate(-585.231 301.859)" fill="#26a69a"/>
        </g>
        <g id="Grupo_56576" data-name="Grupo 56576">
          <path id="Trazado_105579" data-name="Trazado 105579" d="M587.531-312.64a2.3,2.3,0,0,0-2.3,2.3v4.6a2.3,2.3,0,0,0,2.3,2.3,2.3,2.3,0,0,0,2.3-2.3v-4.6A2.3,2.3,0,0,0,587.531-312.64Z" transform="translate(-585.231 312.64)" fill="#26a69a"/>
        </g>
      </g>
      <g id="Grupo_56579" data-name="Grupo 56579" transform="translate(585.231 -322.733)">
        <g id="Grupo_56578" data-name="Grupo 56578">
          <path id="Trazado_105580" data-name="Trazado 105580" d="M843.42-322.733H608.067a22.679,22.679,0,0,0-16.148,6.69,22.677,22.677,0,0,0-6.688,16.146v65.516h4.6V-299.9a18.123,18.123,0,0,1,5.339-12.894,18.117,18.117,0,0,1,12.9-5.341H843.42a18.112,18.112,0,0,1,12.894,5.341,18.116,18.116,0,0,1,5.342,12.894v63.534l4.6-.319V-299.9a22.686,22.686,0,0,0-6.688-16.146A22.679,22.679,0,0,0,843.42-322.733Z" transform="translate(-585.231 322.733)" fill="#26a69a"/>
        </g>
      </g>
    </g>
    <g id="Grupo_56581" data-name="Grupo 56581" transform="translate(-195.23 5547.034)">
      <g id="Grupo_56565-2" data-name="Grupo 56565" transform="translate(1145.066 -297.522)">
        <rect id="Rectángulo_31315-2" data-name="Rectángulo 31315" width="234.701" height="120.475" rx="4.86" transform="translate(237.001 122.777) rotate(-180)" fill="#ffa726"/>
        <path id="Trazado_105570-2" data-name="Trazado 105570" d="M848.82-198.407v-99.832a12.637,12.637,0,0,1,12.622-12.624H1075.5a12.637,12.637,0,0,1,12.622,12.624v99.832a12.637,12.637,0,0,1-12.622,12.622H861.442A12.637,12.637,0,0,1,848.82-198.407Zm12.622-107.856a8.032,8.032,0,0,0-8.022,8.024v99.832a8.03,8.03,0,0,0,8.022,8.022H1075.5a8.03,8.03,0,0,0,8.022-8.022v-99.832a8.032,8.032,0,0,0-8.022-8.024Z" transform="translate(-848.82 310.863)" fill="#26a69a"/>
      </g>
      <g id="Grupo_56569-2" data-name="Grupo 56569" transform="translate(1124.203 -322.733)">
        <g id="Grupo_56566-2" data-name="Grupo 56566" transform="translate(0 140.513)">
          <path id="Trazado_105571-2" data-name="Trazado 105571" d="M841.3-247.374a2.3,2.3,0,0,0,2.3-2.3v-4.6a2.3,2.3,0,0,0-2.3-2.3,2.3,2.3,0,0,0-2.3,2.3v4.6A2.3,2.3,0,0,0,841.3-247.374Z" transform="translate(-838.997 256.575)" fill="#6d3fd3"/>
        </g>
        <g id="Grupo_56567-2" data-name="Grupo 56567">
          <path id="Trazado_105572-2" data-name="Trazado 105572" d="M839-198.218v-9.148a2.3,2.3,0,0,1,2.3-2.3,2.3,2.3,0,0,1,2.3,2.3v9.148a2.3,2.3,0,0,1-2.3,2.3A2.3,2.3,0,0,1,839-198.218Zm276.427-.032v-9.15a2.3,2.3,0,0,1,2.3-2.3,2.3,2.3,0,0,1,2.3,2.3v9.15a2.3,2.3,0,0,1-2.3,2.3A2.3,2.3,0,0,1,1115.424-198.249ZM839-225.665v-9.15a2.3,2.3,0,0,1,2.3-2.3,2.3,2.3,0,0,1,2.3,2.3v9.15a2.3,2.3,0,0,1-2.3,2.3A2.3,2.3,0,0,1,839-225.665Zm276.427-.032v-9.15a2.3,2.3,0,0,1,2.3-2.3,2.3,2.3,0,0,1,2.3,2.3v9.15a2.3,2.3,0,0,1-2.3,2.3A2.3,2.3,0,0,1,1115.424-225.7ZM839-253.114v-9.148a2.3,2.3,0,0,1,2.3-2.3,2.3,2.3,0,0,1,2.3,2.3v9.148a2.3,2.3,0,0,1-2.3,2.3A2.3,2.3,0,0,1,839-253.114Zm276.427-.03V-262.3a2.3,2.3,0,0,1,2.3-2.3,2.3,2.3,0,0,1,2.3,2.3v9.152a2.3,2.3,0,0,1-2.3,2.3A2.3,2.3,0,0,1,1115.424-253.144ZM839-280.559v-9.152a2.3,2.3,0,0,1,2.3-2.3,2.3,2.3,0,0,1,2.3,2.3v9.152a2.3,2.3,0,0,1-2.3,2.3A2.3,2.3,0,0,1,839-280.559Zm276.427-.034v-9.15a2.3,2.3,0,0,1,2.3-2.3,2.3,2.3,0,0,1,2.3,2.3v9.15a2.3,2.3,0,0,1-2.3,2.3A2.3,2.3,0,0,1,1115.424-280.593ZM841.99-305.678a2.3,2.3,0,0,1-1.238-3.007,22.8,22.8,0,0,1,4.938-7.361c.3-.293.6-.582.909-.86a2.3,2.3,0,0,1,3.247.178,2.3,2.3,0,0,1-.178,3.25c-.248.223-.493.452-.726.688A18.173,18.173,0,0,0,845-306.914a2.3,2.3,0,0,1-2.124,1.414A2.241,2.241,0,0,1,841.99-305.678Zm272.024-1.262a18.13,18.13,0,0,0-3.931-5.851c-.242-.242-.493-.48-.748-.707a2.3,2.3,0,0,1-.185-3.247,2.291,2.291,0,0,1,3.245-.183q.484.427.939.886a22.719,22.719,0,0,1,4.923,7.327,2.3,2.3,0,0,1-1.234,3.01,2.348,2.348,0,0,1-.888.179A2.3,2.3,0,0,1,1114.014-306.94ZM862.829-320.433a2.3,2.3,0,0,1,2.3-2.3h9.15a2.3,2.3,0,0,1,2.3,2.3,2.3,2.3,0,0,1-2.3,2.3h-9.15A2.3,2.3,0,0,1,862.829-320.433Zm27.447,0a2.3,2.3,0,0,1,2.3-2.3h9.15a2.3,2.3,0,0,1,2.3,2.3,2.3,2.3,0,0,1-2.3,2.3h-9.15A2.3,2.3,0,0,1,890.276-320.433Zm27.449,0a2.3,2.3,0,0,1,2.3-2.3h9.148a2.3,2.3,0,0,1,2.3,2.3,2.3,2.3,0,0,1-2.3,2.3h-9.148A2.3,2.3,0,0,1,917.725-320.433Zm27.447,0a2.3,2.3,0,0,1,2.3-2.3h9.15a2.3,2.3,0,0,1,2.3,2.3,2.3,2.3,0,0,1-2.3,2.3h-9.15A2.3,2.3,0,0,1,945.172-320.433Zm27.447,0a2.3,2.3,0,0,1,2.3-2.3h9.15a2.3,2.3,0,0,1,2.3,2.3,2.3,2.3,0,0,1-2.3,2.3h-9.15A2.3,2.3,0,0,1,972.62-320.433Zm27.447,0a2.3,2.3,0,0,1,2.3-2.3h9.15a2.3,2.3,0,0,1,2.3,2.3,2.3,2.3,0,0,1-2.3,2.3h-9.15A2.3,2.3,0,0,1,1000.067-320.433Zm27.449,0a2.3,2.3,0,0,1,2.3-2.3h9.15a2.3,2.3,0,0,1,2.3,2.3,2.3,2.3,0,0,1-2.3,2.3h-9.15A2.3,2.3,0,0,1,1027.516-320.433Zm27.447,0a2.3,2.3,0,0,1,2.3-2.3h9.15a2.3,2.3,0,0,1,2.3,2.3,2.3,2.3,0,0,1-2.3,2.3h-9.15A2.3,2.3,0,0,1,1054.963-320.433Zm27.447,0a2.3,2.3,0,0,1,2.3-2.3h9.15a2.3,2.3,0,0,1,2.3,2.3,2.3,2.3,0,0,1-2.3,2.3h-9.15A2.3,2.3,0,0,1,1082.41-320.433Z" transform="translate(-838.997 322.733)" fill="#26a69a"/>
        </g>
        <g id="Grupo_56568-2" data-name="Grupo 56568" transform="translate(276.427 140.513)">
          <path id="Trazado_105573-2" data-name="Trazado 105573" d="M971.448-247.374a2.3,2.3,0,0,0,2.3-2.3v-4.6a2.3,2.3,0,0,0-2.3-2.3,2.3,2.3,0,0,0-2.3,2.3v4.6A2.3,2.3,0,0,0,971.448-247.374Z" transform="translate(-969.148 256.575)" fill="#6d3fd3"/>
        </g>
      </g>
      <g id="Grupo_56572-2" data-name="Grupo 56572" transform="translate(876.029 -251.404)">
        <g id="Grupo_56570-2" data-name="Grupo 56570" transform="translate(15.515 9.168)">
          <path id="Trazado_105574-2" data-name="Trazado 105574" d="M984.949-194.18h234.6a23.842,23.842,0,0,0,16.178-5.994,22.713,22.713,0,0,0,7.415-16.842v-65.516h-4.6v64.876A19.1,19.1,0,0,1,1234-204.969a18.147,18.147,0,0,1-13.693,6.189H985.588a19.091,19.091,0,0,1-12.68-4.537,18.155,18.155,0,0,1-6.2-13.7v-67.816H729.453v4.6h232.66v62.464a23.844,23.844,0,0,0,6,16.184A22.7,22.7,0,0,0,984.949-194.18Z" transform="translate(-729.453 284.832)" fill="#26a69a"/>
        </g>
        <g id="Grupo_56571-2" data-name="Grupo 56571">
          <path id="Trazado_105575-2" data-name="Trazado 105575" d="M742.009-266.212,722.148-277.68l19.861-11.468Z" transform="translate(-722.148 289.149)" fill="#26a69a"/>
        </g>
      </g>
      <g id="Grupo_56573-2" data-name="Grupo 56573" transform="translate(606.092 -301.872)">
        <rect id="Rectángulo_31316-2" data-name="Rectángulo 31316" width="234.701" height="120.475" rx="4.86" transform="translate(2.301 2.302)" fill="#ffca28"/>
        <path id="Trazado_105576-2" data-name="Trazado 105576" d="M834.354-300.287v99.831a12.636,12.636,0,0,1-12.62,12.622H607.677a12.637,12.637,0,0,1-12.624-12.622v-99.831a12.638,12.638,0,0,1,12.624-12.624l214.057,0A12.636,12.636,0,0,1,834.354-300.287Zm-12.62,107.853a8.03,8.03,0,0,0,8.02-8.022v-99.831a8.03,8.03,0,0,0-8.02-8.022l-214.057,0a8.034,8.034,0,0,0-8.024,8.024v99.831a8.032,8.032,0,0,0,8.024,8.022Z" transform="translate(-595.053 312.911)" fill="#26a69a"/>
      </g>
      <g id="Grupo_56577-2" data-name="Grupo 56577" transform="translate(585.231 -301.297)">
        <g id="Grupo_56574-2" data-name="Grupo 56574" transform="translate(276.425)">
          <path id="Trazado_105577-2" data-name="Trazado 105577" d="M717.681-312.64a2.3,2.3,0,0,0-2.3,2.3v4.6a2.3,2.3,0,0,0,2.3,2.3,2.3,2.3,0,0,0,2.3-2.3v-4.6A2.3,2.3,0,0,0,717.681-312.64Z" transform="translate(-715.381 312.64)" fill="#26a69a"/>
        </g>
        <g id="Grupo_56575-2" data-name="Grupo 56575" transform="translate(0 22.898)">
          <path id="Trazado_105578-2" data-name="Trazado 105578" d="M866.256-299.559v9.15a2.3,2.3,0,0,1-2.3,2.3,2.3,2.3,0,0,1-2.3-2.3v-9.15a2.3,2.3,0,0,1,2.3-2.3A2.3,2.3,0,0,1,866.256-299.559Zm-276.425.032v9.15a2.3,2.3,0,0,1-2.3,2.3,2.3,2.3,0,0,1-2.3-2.3v-9.15a2.3,2.3,0,0,1,2.3-2.3A2.3,2.3,0,0,1,589.831-299.527Zm276.425,27.415v9.152a2.3,2.3,0,0,1-2.3,2.3,2.3,2.3,0,0,1-2.3-2.3v-9.152a2.3,2.3,0,0,1,2.3-2.3A2.3,2.3,0,0,1,866.256-272.112Zm-276.425.034v9.148a2.3,2.3,0,0,1-2.3,2.3,2.3,2.3,0,0,1-2.3-2.3v-9.148a2.3,2.3,0,0,1,2.3-2.3A2.3,2.3,0,0,1,589.831-272.078Zm276.425,27.415v9.148a2.3,2.3,0,0,1-2.3,2.3,2.3,2.3,0,0,1-2.3-2.3v-9.148a2.3,2.3,0,0,1,2.3-2.3A2.3,2.3,0,0,1,866.256-244.662Zm-276.425.032v9.15a2.3,2.3,0,0,1-2.3,2.3,2.3,2.3,0,0,1-2.3-2.3v-9.15a2.3,2.3,0,0,1,2.3-2.3A2.3,2.3,0,0,1,589.831-244.631Zm276.425,27.415v9.15a2.3,2.3,0,0,1-2.3,2.3,2.3,2.3,0,0,1-2.3-2.3v-9.15a2.3,2.3,0,0,1,2.3-2.3A2.3,2.3,0,0,1,866.256-217.215Zm-276.425.032v9.15a2.3,2.3,0,0,1-2.3,2.3,2.3,2.3,0,0,1-2.3-2.3v-9.15a2.3,2.3,0,0,1,2.3-2.3A2.3,2.3,0,0,1,589.831-217.184ZM863.266-192.1a2.3,2.3,0,0,1,1.236,3.007,22.749,22.749,0,0,1-4.938,7.364c-.293.291-.6.58-.907.858a2.3,2.3,0,0,1-3.247-.178,2.3,2.3,0,0,1,.176-3.247c.251-.225.495-.455.729-.69a18.145,18.145,0,0,0,3.942-5.877,2.3,2.3,0,0,1,2.124-1.414A2.244,2.244,0,0,1,863.266-192.1Zm-272.024,1.264a18.116,18.116,0,0,0,3.929,5.849q.366.366.748.707a2.3,2.3,0,0,1,.187,3.247,2.3,2.3,0,0,1-3.247.185q-.481-.43-.939-.886A22.7,22.7,0,0,1,587-189.059a2.3,2.3,0,0,1,1.234-3.01,2.291,2.291,0,0,1,.886-.178A2.3,2.3,0,0,1,591.242-190.835Zm251.182,13.491a2.3,2.3,0,0,1-2.3,2.3h-9.148a2.3,2.3,0,0,1-2.3-2.3,2.3,2.3,0,0,1,2.3-2.3h9.148A2.3,2.3,0,0,1,842.424-177.344Zm-27.447,0a2.3,2.3,0,0,1-2.3,2.3h-9.15a2.3,2.3,0,0,1-2.3-2.3,2.3,2.3,0,0,1,2.3-2.3h9.15A2.3,2.3,0,0,1,814.977-177.344Zm-27.447,0a2.3,2.3,0,0,1-2.3,2.3h-9.15a2.3,2.3,0,0,1-2.3-2.3,2.3,2.3,0,0,1,2.3-2.3h9.15A2.3,2.3,0,0,1,787.53-177.344Zm-27.449,0a2.3,2.3,0,0,1-2.3,2.3h-9.148a2.3,2.3,0,0,1-2.3-2.3,2.3,2.3,0,0,1,2.3-2.3h9.148A2.3,2.3,0,0,1,760.081-177.344Zm-27.447,0a2.3,2.3,0,0,1-2.3,2.3h-9.15a2.3,2.3,0,0,1-2.3-2.3,2.3,2.3,0,0,1,2.3-2.3h9.15A2.3,2.3,0,0,1,732.633-177.344Zm-27.447,0a2.3,2.3,0,0,1-2.3,2.3h-9.15a2.3,2.3,0,0,1-2.3-2.3,2.3,2.3,0,0,1,2.3-2.3h9.15A2.3,2.3,0,0,1,705.186-177.344Zm-27.447,0a2.3,2.3,0,0,1-2.3,2.3h-9.15a2.3,2.3,0,0,1-2.3-2.3,2.3,2.3,0,0,1,2.3-2.3h9.15A2.3,2.3,0,0,1,677.739-177.344Zm-27.449,0a2.3,2.3,0,0,1-2.3,2.3h-9.15a2.3,2.3,0,0,1-2.3-2.3,2.3,2.3,0,0,1,2.3-2.3h9.15A2.3,2.3,0,0,1,650.29-177.344Zm-27.447,0a2.3,2.3,0,0,1-2.3,2.3h-9.15a2.3,2.3,0,0,1-2.3-2.3,2.3,2.3,0,0,1,2.3-2.3h9.15A2.3,2.3,0,0,1,622.843-177.344Z" transform="translate(-585.231 301.859)" fill="#26a69a"/>
        </g>
        <g id="Grupo_56576-2" data-name="Grupo 56576">
          <path id="Trazado_105579-2" data-name="Trazado 105579" d="M587.531-312.64a2.3,2.3,0,0,0-2.3,2.3v4.6a2.3,2.3,0,0,0,2.3,2.3,2.3,2.3,0,0,0,2.3-2.3v-4.6A2.3,2.3,0,0,0,587.531-312.64Z" transform="translate(-585.231 312.64)" fill="#26a69a"/>
        </g>
      </g>
      <g id="Grupo_56579-2" data-name="Grupo 56579" transform="translate(585.231 -322.733)">
        <g id="Grupo_56578-2" data-name="Grupo 56578">
          <path id="Trazado_105580-2" data-name="Trazado 105580" d="M843.42-322.733H608.067a22.679,22.679,0,0,0-16.148,6.69,22.677,22.677,0,0,0-6.688,16.146v65.516h4.6V-299.9a18.123,18.123,0,0,1,5.339-12.894,18.117,18.117,0,0,1,12.9-5.341H843.42a18.112,18.112,0,0,1,12.894,5.341,18.116,18.116,0,0,1,5.342,12.894v63.534l4.6-.319V-299.9a22.686,22.686,0,0,0-6.688-16.146A22.679,22.679,0,0,0,843.42-322.733Z" transform="translate(-585.231 322.733)" fill="#26a69a"/>
        </g>
      </g>
    </g>
    <g id="Grupo_56582" data-name="Grupo 56582" transform="translate(1795.23 4872.567) rotate(180)">
      <g id="Grupo_56565-3" data-name="Grupo 56565" transform="translate(1145.066 -297.522)">
        <rect id="Rectángulo_31315-3" data-name="Rectángulo 31315" width="234.701" height="120.475" rx="4.86" transform="translate(237.001 122.777) rotate(-180)" fill="#ffca28"/>
        <path id="Trazado_105570-3" data-name="Trazado 105570" d="M848.82-198.407v-99.832a12.637,12.637,0,0,1,12.622-12.624H1075.5a12.637,12.637,0,0,1,12.622,12.624v99.832a12.637,12.637,0,0,1-12.622,12.622H861.442A12.637,12.637,0,0,1,848.82-198.407Zm12.622-107.856a8.032,8.032,0,0,0-8.022,8.024v99.832a8.03,8.03,0,0,0,8.022,8.022H1075.5a8.03,8.03,0,0,0,8.022-8.022v-99.832a8.032,8.032,0,0,0-8.022-8.024Z" transform="translate(-848.82 310.863)" fill="#26a69a"/>
      </g>
      <g id="Grupo_56569-3" data-name="Grupo 56569" transform="translate(1124.203 -322.733)">
        <g id="Grupo_56566-3" data-name="Grupo 56566" transform="translate(0 140.513)">
          <path id="Trazado_105571-3" data-name="Trazado 105571" d="M841.3-247.374a2.3,2.3,0,0,0,2.3-2.3v-4.6a2.3,2.3,0,0,0-2.3-2.3,2.3,2.3,0,0,0-2.3,2.3v4.6A2.3,2.3,0,0,0,841.3-247.374Z" transform="translate(-838.997 256.575)" fill="#6d3fd3"/>
        </g>
        <g id="Grupo_56567-3" data-name="Grupo 56567">
          <path id="Trazado_105572-3" data-name="Trazado 105572" d="M839-198.218v-9.148a2.3,2.3,0,0,1,2.3-2.3,2.3,2.3,0,0,1,2.3,2.3v9.148a2.3,2.3,0,0,1-2.3,2.3A2.3,2.3,0,0,1,839-198.218Zm276.427-.032v-9.15a2.3,2.3,0,0,1,2.3-2.3,2.3,2.3,0,0,1,2.3,2.3v9.15a2.3,2.3,0,0,1-2.3,2.3A2.3,2.3,0,0,1,1115.424-198.249ZM839-225.665v-9.15a2.3,2.3,0,0,1,2.3-2.3,2.3,2.3,0,0,1,2.3,2.3v9.15a2.3,2.3,0,0,1-2.3,2.3A2.3,2.3,0,0,1,839-225.665Zm276.427-.032v-9.15a2.3,2.3,0,0,1,2.3-2.3,2.3,2.3,0,0,1,2.3,2.3v9.15a2.3,2.3,0,0,1-2.3,2.3A2.3,2.3,0,0,1,1115.424-225.7ZM839-253.114v-9.148a2.3,2.3,0,0,1,2.3-2.3,2.3,2.3,0,0,1,2.3,2.3v9.148a2.3,2.3,0,0,1-2.3,2.3A2.3,2.3,0,0,1,839-253.114Zm276.427-.03V-262.3a2.3,2.3,0,0,1,2.3-2.3,2.3,2.3,0,0,1,2.3,2.3v9.152a2.3,2.3,0,0,1-2.3,2.3A2.3,2.3,0,0,1,1115.424-253.144ZM839-280.559v-9.152a2.3,2.3,0,0,1,2.3-2.3,2.3,2.3,0,0,1,2.3,2.3v9.152a2.3,2.3,0,0,1-2.3,2.3A2.3,2.3,0,0,1,839-280.559Zm276.427-.034v-9.15a2.3,2.3,0,0,1,2.3-2.3,2.3,2.3,0,0,1,2.3,2.3v9.15a2.3,2.3,0,0,1-2.3,2.3A2.3,2.3,0,0,1,1115.424-280.593ZM841.99-305.678a2.3,2.3,0,0,1-1.238-3.007,22.8,22.8,0,0,1,4.938-7.361c.3-.293.6-.582.909-.86a2.3,2.3,0,0,1,3.247.178,2.3,2.3,0,0,1-.178,3.25c-.248.223-.493.452-.726.688A18.173,18.173,0,0,0,845-306.914a2.3,2.3,0,0,1-2.124,1.414A2.241,2.241,0,0,1,841.99-305.678Zm272.024-1.262a18.13,18.13,0,0,0-3.931-5.851c-.242-.242-.493-.48-.748-.707a2.3,2.3,0,0,1-.185-3.247,2.291,2.291,0,0,1,3.245-.183q.484.427.939.886a22.719,22.719,0,0,1,4.923,7.327,2.3,2.3,0,0,1-1.234,3.01,2.348,2.348,0,0,1-.888.179A2.3,2.3,0,0,1,1114.014-306.94ZM862.829-320.433a2.3,2.3,0,0,1,2.3-2.3h9.15a2.3,2.3,0,0,1,2.3,2.3,2.3,2.3,0,0,1-2.3,2.3h-9.15A2.3,2.3,0,0,1,862.829-320.433Zm27.447,0a2.3,2.3,0,0,1,2.3-2.3h9.15a2.3,2.3,0,0,1,2.3,2.3,2.3,2.3,0,0,1-2.3,2.3h-9.15A2.3,2.3,0,0,1,890.276-320.433Zm27.449,0a2.3,2.3,0,0,1,2.3-2.3h9.148a2.3,2.3,0,0,1,2.3,2.3,2.3,2.3,0,0,1-2.3,2.3h-9.148A2.3,2.3,0,0,1,917.725-320.433Zm27.447,0a2.3,2.3,0,0,1,2.3-2.3h9.15a2.3,2.3,0,0,1,2.3,2.3,2.3,2.3,0,0,1-2.3,2.3h-9.15A2.3,2.3,0,0,1,945.172-320.433Zm27.447,0a2.3,2.3,0,0,1,2.3-2.3h9.15a2.3,2.3,0,0,1,2.3,2.3,2.3,2.3,0,0,1-2.3,2.3h-9.15A2.3,2.3,0,0,1,972.62-320.433Zm27.447,0a2.3,2.3,0,0,1,2.3-2.3h9.15a2.3,2.3,0,0,1,2.3,2.3,2.3,2.3,0,0,1-2.3,2.3h-9.15A2.3,2.3,0,0,1,1000.067-320.433Zm27.449,0a2.3,2.3,0,0,1,2.3-2.3h9.15a2.3,2.3,0,0,1,2.3,2.3,2.3,2.3,0,0,1-2.3,2.3h-9.15A2.3,2.3,0,0,1,1027.516-320.433Zm27.447,0a2.3,2.3,0,0,1,2.3-2.3h9.15a2.3,2.3,0,0,1,2.3,2.3,2.3,2.3,0,0,1-2.3,2.3h-9.15A2.3,2.3,0,0,1,1054.963-320.433Zm27.447,0a2.3,2.3,0,0,1,2.3-2.3h9.15a2.3,2.3,0,0,1,2.3,2.3,2.3,2.3,0,0,1-2.3,2.3h-9.15A2.3,2.3,0,0,1,1082.41-320.433Z" transform="translate(-838.997 322.733)" fill="#26a69a"/>
        </g>
        <g id="Grupo_56568-3" data-name="Grupo 56568" transform="translate(276.427 140.513)">
          <path id="Trazado_105573-3" data-name="Trazado 105573" d="M971.448-247.374a2.3,2.3,0,0,0,2.3-2.3v-4.6a2.3,2.3,0,0,0-2.3-2.3,2.3,2.3,0,0,0-2.3,2.3v4.6A2.3,2.3,0,0,0,971.448-247.374Z" transform="translate(-969.148 256.575)" fill="#6d3fd3"/>
        </g>
      </g>
      <g id="Grupo_56572-3" data-name="Grupo 56572" transform="translate(876.029 -251.404)">
        <g id="Grupo_56570-3" data-name="Grupo 56570" transform="translate(15.515 9.168)">
          <path id="Trazado_105574-3" data-name="Trazado 105574" d="M984.949-194.18h234.6a23.842,23.842,0,0,0,16.178-5.994,22.713,22.713,0,0,0,7.415-16.842v-65.516h-4.6v64.876A19.1,19.1,0,0,1,1234-204.969a18.147,18.147,0,0,1-13.693,6.189H985.588a19.091,19.091,0,0,1-12.68-4.537,18.155,18.155,0,0,1-6.2-13.7v-67.816H729.453v4.6h232.66v62.464a23.844,23.844,0,0,0,6,16.184A22.7,22.7,0,0,0,984.949-194.18Z" transform="translate(-729.453 284.832)" fill="#26a69a"/>
        </g>
        <g id="Grupo_56571-3" data-name="Grupo 56571">
          <path id="Trazado_105575-3" data-name="Trazado 105575" d="M742.009-266.212,722.148-277.68l19.861-11.468Z" transform="translate(-722.148 289.149)" fill="#26a69a"/>
        </g>
      </g>
      <g id="Grupo_56573-3" data-name="Grupo 56573" transform="translate(606.092 -301.872)">
        <rect id="Rectángulo_31316-3" data-name="Rectángulo 31316" width="234.701" height="120.475" rx="4.86" transform="translate(2.301 2.302)" fill="#ffa726"/>
        <path id="Trazado_105576-3" data-name="Trazado 105576" d="M834.354-300.287v99.831a12.636,12.636,0,0,1-12.62,12.622H607.677a12.637,12.637,0,0,1-12.624-12.622v-99.831a12.638,12.638,0,0,1,12.624-12.624l214.057,0A12.636,12.636,0,0,1,834.354-300.287Zm-12.62,107.853a8.03,8.03,0,0,0,8.02-8.022v-99.831a8.03,8.03,0,0,0-8.02-8.022l-214.057,0a8.034,8.034,0,0,0-8.024,8.024v99.831a8.032,8.032,0,0,0,8.024,8.022Z" transform="translate(-595.053 312.911)" fill="#26a69a"/>
      </g>
      <g id="Grupo_56577-3" data-name="Grupo 56577" transform="translate(585.231 -301.297)">
        <g id="Grupo_56574-3" data-name="Grupo 56574" transform="translate(276.425)">
          <path id="Trazado_105577-3" data-name="Trazado 105577" d="M717.681-312.64a2.3,2.3,0,0,0-2.3,2.3v4.6a2.3,2.3,0,0,0,2.3,2.3,2.3,2.3,0,0,0,2.3-2.3v-4.6A2.3,2.3,0,0,0,717.681-312.64Z" transform="translate(-715.381 312.64)" fill="#26a69a"/>
        </g>
        <g id="Grupo_56575-3" data-name="Grupo 56575" transform="translate(0 22.898)">
          <path id="Trazado_105578-3" data-name="Trazado 105578" d="M866.256-299.559v9.15a2.3,2.3,0,0,1-2.3,2.3,2.3,2.3,0,0,1-2.3-2.3v-9.15a2.3,2.3,0,0,1,2.3-2.3A2.3,2.3,0,0,1,866.256-299.559Zm-276.425.032v9.15a2.3,2.3,0,0,1-2.3,2.3,2.3,2.3,0,0,1-2.3-2.3v-9.15a2.3,2.3,0,0,1,2.3-2.3A2.3,2.3,0,0,1,589.831-299.527Zm276.425,27.415v9.152a2.3,2.3,0,0,1-2.3,2.3,2.3,2.3,0,0,1-2.3-2.3v-9.152a2.3,2.3,0,0,1,2.3-2.3A2.3,2.3,0,0,1,866.256-272.112Zm-276.425.034v9.148a2.3,2.3,0,0,1-2.3,2.3,2.3,2.3,0,0,1-2.3-2.3v-9.148a2.3,2.3,0,0,1,2.3-2.3A2.3,2.3,0,0,1,589.831-272.078Zm276.425,27.415v9.148a2.3,2.3,0,0,1-2.3,2.3,2.3,2.3,0,0,1-2.3-2.3v-9.148a2.3,2.3,0,0,1,2.3-2.3A2.3,2.3,0,0,1,866.256-244.662Zm-276.425.032v9.15a2.3,2.3,0,0,1-2.3,2.3,2.3,2.3,0,0,1-2.3-2.3v-9.15a2.3,2.3,0,0,1,2.3-2.3A2.3,2.3,0,0,1,589.831-244.631Zm276.425,27.415v9.15a2.3,2.3,0,0,1-2.3,2.3,2.3,2.3,0,0,1-2.3-2.3v-9.15a2.3,2.3,0,0,1,2.3-2.3A2.3,2.3,0,0,1,866.256-217.215Zm-276.425.032v9.15a2.3,2.3,0,0,1-2.3,2.3,2.3,2.3,0,0,1-2.3-2.3v-9.15a2.3,2.3,0,0,1,2.3-2.3A2.3,2.3,0,0,1,589.831-217.184ZM863.266-192.1a2.3,2.3,0,0,1,1.236,3.007,22.749,22.749,0,0,1-4.938,7.364c-.293.291-.6.58-.907.858a2.3,2.3,0,0,1-3.247-.178,2.3,2.3,0,0,1,.176-3.247c.251-.225.495-.455.729-.69a18.145,18.145,0,0,0,3.942-5.877,2.3,2.3,0,0,1,2.124-1.414A2.244,2.244,0,0,1,863.266-192.1Zm-272.024,1.264a18.116,18.116,0,0,0,3.929,5.849q.366.366.748.707a2.3,2.3,0,0,1,.187,3.247,2.3,2.3,0,0,1-3.247.185q-.481-.43-.939-.886A22.7,22.7,0,0,1,587-189.059a2.3,2.3,0,0,1,1.234-3.01,2.291,2.291,0,0,1,.886-.178A2.3,2.3,0,0,1,591.242-190.835Zm251.182,13.491a2.3,2.3,0,0,1-2.3,2.3h-9.148a2.3,2.3,0,0,1-2.3-2.3,2.3,2.3,0,0,1,2.3-2.3h9.148A2.3,2.3,0,0,1,842.424-177.344Zm-27.447,0a2.3,2.3,0,0,1-2.3,2.3h-9.15a2.3,2.3,0,0,1-2.3-2.3,2.3,2.3,0,0,1,2.3-2.3h9.15A2.3,2.3,0,0,1,814.977-177.344Zm-27.447,0a2.3,2.3,0,0,1-2.3,2.3h-9.15a2.3,2.3,0,0,1-2.3-2.3,2.3,2.3,0,0,1,2.3-2.3h9.15A2.3,2.3,0,0,1,787.53-177.344Zm-27.449,0a2.3,2.3,0,0,1-2.3,2.3h-9.148a2.3,2.3,0,0,1-2.3-2.3,2.3,2.3,0,0,1,2.3-2.3h9.148A2.3,2.3,0,0,1,760.081-177.344Zm-27.447,0a2.3,2.3,0,0,1-2.3,2.3h-9.15a2.3,2.3,0,0,1-2.3-2.3,2.3,2.3,0,0,1,2.3-2.3h9.15A2.3,2.3,0,0,1,732.633-177.344Zm-27.447,0a2.3,2.3,0,0,1-2.3,2.3h-9.15a2.3,2.3,0,0,1-2.3-2.3,2.3,2.3,0,0,1,2.3-2.3h9.15A2.3,2.3,0,0,1,705.186-177.344Zm-27.447,0a2.3,2.3,0,0,1-2.3,2.3h-9.15a2.3,2.3,0,0,1-2.3-2.3,2.3,2.3,0,0,1,2.3-2.3h9.15A2.3,2.3,0,0,1,677.739-177.344Zm-27.449,0a2.3,2.3,0,0,1-2.3,2.3h-9.15a2.3,2.3,0,0,1-2.3-2.3,2.3,2.3,0,0,1,2.3-2.3h9.15A2.3,2.3,0,0,1,650.29-177.344Zm-27.447,0a2.3,2.3,0,0,1-2.3,2.3h-9.15a2.3,2.3,0,0,1-2.3-2.3,2.3,2.3,0,0,1,2.3-2.3h9.15A2.3,2.3,0,0,1,622.843-177.344Z" transform="translate(-585.231 301.859)" fill="#26a69a"/>
        </g>
        <g id="Grupo_56576-3" data-name="Grupo 56576">
          <path id="Trazado_105579-3" data-name="Trazado 105579" d="M587.531-312.64a2.3,2.3,0,0,0-2.3,2.3v4.6a2.3,2.3,0,0,0,2.3,2.3,2.3,2.3,0,0,0,2.3-2.3v-4.6A2.3,2.3,0,0,0,587.531-312.64Z" transform="translate(-585.231 312.64)" fill="#26a69a"/>
        </g>
      </g>
      <g id="Grupo_56579-3" data-name="Grupo 56579" transform="translate(585.231 -322.733)">
        <g id="Grupo_56578-3" data-name="Grupo 56578">
          <path id="Trazado_105580-3" data-name="Trazado 105580" d="M843.42-322.733H608.067a22.679,22.679,0,0,0-16.148,6.69,22.677,22.677,0,0,0-6.688,16.146v65.516h4.6V-299.9a18.123,18.123,0,0,1,5.339-12.894,18.117,18.117,0,0,1,12.9-5.341H843.42a18.112,18.112,0,0,1,12.894,5.341,18.116,18.116,0,0,1,5.342,12.894v63.534l4.6-.319V-299.9a22.686,22.686,0,0,0-6.688-16.146A22.679,22.679,0,0,0,843.42-322.733Z" transform="translate(-585.231 322.733)" fill="#26a69a"/>
        </g>
      </g>
    </g>
    <g id="Grupo_56584" data-name="Grupo 56584" transform="translate(490.002 4871)">
      <ellipse id="Elipse_4065" data-name="Elipse 4065" cx="42.267" cy="42.267" rx="42.267" ry="42.267" fill="#039be5"/>
    </g>
    <path id="Trazado_105581" data-name="Trazado 105581" d="M190.329,153.343,156.286,119.3,128.24,164.634,148,184.389c.475.016.951.027,1.429.027A42.465,42.465,0,0,0,190.329,153.343Z" transform="translate(383.023 4771.344)" fill="#1565c0" opacity="0.443" style="mix-blend-mode: multiply;isolation: isolate"/>
    <path id="Trazado_105582" data-name="Trazado 105582" d="M156.286,119.3H142.563L128.24,164.634h10.086l3.4-10.761h15.4l3.4,10.761h10.086Zm-11.522,24.955,4.661-14.751,4.661,14.751Z" transform="translate(383.023 4771.344)" fill="#f8fffb"/>
    <path id="Trazado_105583" data-name="Trazado 105583" d="M262.861,119.3H256v10.2l4.661,14.751H256v9.617h7.7l3.4,10.761h10.087Z" transform="translate(276.447 4771.344)" fill="#e8e8e8"/>
    <g id="Grupo_56584-2" data-name="Grupo 56584" transform="translate(490.002 5070)">
      <ellipse id="Elipse_4065-2" data-name="Elipse 4065" cx="42.267" cy="42.267" rx="42.267" ry="42.267" fill="#039be5"/>
    </g>
    <path id="Trazado_105581-2" data-name="Trazado 105581" d="M190.329,153.343,156.286,119.3,128.24,164.634,148,184.389c.475.016.951.027,1.429.027A42.465,42.465,0,0,0,190.329,153.343Z" transform="translate(383.023 4970.344)" fill="#1565c0" opacity="0.443" style="mix-blend-mode: multiply;isolation: isolate"/>
    <path id="Trazado_105582-2" data-name="Trazado 105582" d="M156.286,119.3H142.563L128.24,164.634h10.086l3.4-10.761h15.4l3.4,10.761h10.086Zm-11.522,24.955,4.661-14.751,4.661,14.751Z" transform="translate(383.023 4970.344)" fill="#f8fffb"/>
    <path id="Trazado_105583-2" data-name="Trazado 105583" d="M262.861,119.3H256v10.2l4.661,14.751H256v9.617h7.7l3.4,10.761h10.087Z" transform="translate(276.447 4970.344)" fill="#e8e8e8"/>
    <g id="Grupo_56584-3" data-name="Grupo 56584" transform="translate(490.002 5269)">
      <ellipse id="Elipse_4065-3" data-name="Elipse 4065" cx="42.267" cy="42.267" rx="42.267" ry="42.267" fill="#039be5"/>
    </g>
    <path id="Trazado_105581-3" data-name="Trazado 105581" d="M190.329,153.343,156.286,119.3,128.24,164.634,148,184.389c.475.016.951.027,1.429.027A42.465,42.465,0,0,0,190.329,153.343Z" transform="translate(383.023 5169.344)" fill="#1565c0" opacity="0.443" style="mix-blend-mode: multiply;isolation: isolate"/>
    <path id="Trazado_105582-3" data-name="Trazado 105582" d="M156.286,119.3H142.563L128.24,164.634h10.086l3.4-10.761h15.4l3.4,10.761h10.086Zm-11.522,24.955,4.661-14.751,4.661,14.751Z" transform="translate(383.023 5169.344)" fill="#f8fffb"/>
    <path id="Trazado_105583-3" data-name="Trazado 105583" d="M262.861,119.3H256v10.2l4.661,14.751H256v9.617h7.7l3.4,10.761h10.087Z" transform="translate(276.447 5169.344)" fill="#e8e8e8"/>
    <g id="Grupo_56585" data-name="Grupo 56585" transform="translate(1024.756 4871.467)">
      <ellipse id="Elipse_4066" data-name="Elipse 4066" cx="42" cy="42.5" rx="42" ry="42.5" transform="translate(0.245 -0.466)" fill="#039be5"/>
    </g>
    <path id="Trazado_105584" data-name="Trazado 105584" d="M218.936,165.184l-27.218-27.218c-2.509-3.1-26.518-1.909-26.518-1.909l-3.257,42.577,19.4,19.4A42.474,42.474,0,0,0,218.936,165.184Z" transform="translate(889.305 4757.932)" fill="#1565c0" opacity="0.5" style="mix-blend-mode: multiply;isolation: isolate"/>
    <g id="Grupo_56586" data-name="Grupo 56586" transform="translate(1051.248 4890.814)">
      <path id="Trazado_105585" data-name="Trazado 105585" d="M183.928,163.789H161.942V118.036h19.147a13.689,13.689,0,0,1,13.673,13.673v.339a13.591,13.591,0,0,1-2,7.12,14.1,14.1,0,0,1,1.049.959,13.893,13.893,0,0,1-9.878,23.662Zm-12.369-9.617h12.369a4.276,4.276,0,0,0,.048-8.551l-1.125-.013a13.741,13.741,0,0,1-1.763.113h-9.529Zm0-18.068h9.529a4.06,4.06,0,0,0,4.056-4.056v-.339a4.06,4.06,0,0,0-4.056-4.056h-9.529Z" transform="translate(-161.942 -118.036)" fill="#f8fffb"/>
    </g>
    <g id="Grupo_56587" data-name="Grupo 56587" transform="translate(1066.844 4890.814)">
      <path id="Trazado_105586" data-name="Trazado 105586" d="M272.268,140.13q-.5-.507-1.048-.958a13.6,13.6,0,0,0,2-7.12v-.338A13.688,13.688,0,0,0,259.55,118.04H256v9.617h3.55a4.06,4.06,0,0,1,4.056,4.056v.338a4.06,4.06,0,0,1-4.056,4.056H256v9.617h3.55a13.715,13.715,0,0,0,1.763-.113l1.126.012a4.276,4.276,0,0,1-.048,8.551H256v9.617h6.39a13.893,13.893,0,0,0,9.878-23.662Z" transform="translate(-256 -118.04)" fill="#e8e8e8"/>
    </g>
    <g id="Grupo_56585-2" data-name="Grupo 56585" transform="translate(1024.756 5070.467)">
      <ellipse id="Elipse_4066-2" data-name="Elipse 4066" cx="42" cy="42.5" rx="42" ry="42.5" transform="translate(0.245 -0.466)" fill="#039be5"/>
    </g>
    <path id="Trazado_105584-2" data-name="Trazado 105584" d="M218.936,165.184l-27.218-27.218c-2.509-3.1-26.518-1.909-26.518-1.909l-3.257,42.577,19.4,19.4A42.474,42.474,0,0,0,218.936,165.184Z" transform="translate(889.305 4956.932)" fill="#1565c0" opacity="0.5" style="mix-blend-mode: multiply;isolation: isolate"/>
    <g id="Grupo_56586-2" data-name="Grupo 56586" transform="translate(1051.248 5089.814)">
      <path id="Trazado_105585-2" data-name="Trazado 105585" d="M183.928,163.789H161.942V118.036h19.147a13.689,13.689,0,0,1,13.673,13.673v.339a13.591,13.591,0,0,1-2,7.12,14.1,14.1,0,0,1,1.049.959,13.893,13.893,0,0,1-9.878,23.662Zm-12.369-9.617h12.369a4.276,4.276,0,0,0,.048-8.551l-1.125-.013a13.741,13.741,0,0,1-1.763.113h-9.529Zm0-18.068h9.529a4.06,4.06,0,0,0,4.056-4.056v-.339a4.06,4.06,0,0,0-4.056-4.056h-9.529Z" transform="translate(-161.942 -118.036)" fill="#f8fffb"/>
    </g>
    <g id="Grupo_56587-2" data-name="Grupo 56587" transform="translate(1066.844 5089.814)">
      <path id="Trazado_105586-2" data-name="Trazado 105586" d="M272.268,140.13q-.5-.507-1.048-.958a13.6,13.6,0,0,0,2-7.12v-.338A13.688,13.688,0,0,0,259.55,118.04H256v9.617h3.55a4.06,4.06,0,0,1,4.056,4.056v.338a4.06,4.06,0,0,1-4.056,4.056H256v9.617h3.55a13.715,13.715,0,0,0,1.763-.113l1.126.012a4.276,4.276,0,0,1-.048,8.551H256v9.617h6.39a13.893,13.893,0,0,0,9.878-23.662Z" transform="translate(-256 -118.04)" fill="#e8e8e8"/>
    </g>
    <g id="Grupo_56585-3" data-name="Grupo 56585" transform="translate(1024.756 5269.467)">
      <ellipse id="Elipse_4066-3" data-name="Elipse 4066" cx="42" cy="42.5" rx="42" ry="42.5" transform="translate(0.245 -0.466)" fill="#039be5"/>
    </g>
    <path id="Trazado_105584-3" data-name="Trazado 105584" d="M218.936,165.184l-27.218-27.218c-2.509-3.1-26.518-1.909-26.518-1.909l-3.257,42.577,19.4,19.4A42.474,42.474,0,0,0,218.936,165.184Z" transform="translate(889.305 5155.932)" fill="#1565c0" opacity="0.5" style="mix-blend-mode: multiply;isolation: isolate"/>
    <g id="Grupo_56586-3" data-name="Grupo 56586" transform="translate(1051.248 5288.814)">
      <path id="Trazado_105585-3" data-name="Trazado 105585" d="M183.928,163.789H161.942V118.036h19.147a13.689,13.689,0,0,1,13.673,13.673v.339a13.591,13.591,0,0,1-2,7.12,14.1,14.1,0,0,1,1.049.959,13.893,13.893,0,0,1-9.878,23.662Zm-12.369-9.617h12.369a4.276,4.276,0,0,0,.048-8.551l-1.125-.013a13.741,13.741,0,0,1-1.763.113h-9.529Zm0-18.068h9.529a4.06,4.06,0,0,0,4.056-4.056v-.339a4.06,4.06,0,0,0-4.056-4.056h-9.529Z" transform="translate(-161.942 -118.036)" fill="#f8fffb"/>
    </g>
    <g id="Grupo_56587-3" data-name="Grupo 56587" transform="translate(1066.844 5288.814)">
      <path id="Trazado_105586-3" data-name="Trazado 105586" d="M272.268,140.13q-.5-.507-1.048-.958a13.6,13.6,0,0,0,2-7.12v-.338A13.688,13.688,0,0,0,259.55,118.04H256v9.617h3.55a4.06,4.06,0,0,1,4.056,4.056v.338a4.06,4.06,0,0,1-4.056,4.056H256v9.617h3.55a13.715,13.715,0,0,0,1.763-.113l1.126.012a4.276,4.276,0,0,1-.048,8.551H256v9.617h6.39a13.893,13.893,0,0,0,9.878-23.662Z" transform="translate(-256 -118.04)" fill="#e8e8e8"/>
    </g>
  </g>
</svg>
