<svg xmlns="http://www.w3.org/2000/svg" xmlns:xlink="http://www.w3.org/1999/xlink" width="505" height="300.459" viewBox="0 0 505 300.459">
  <defs>
    <clipPath id="clip-path">
      <path id="Trazado_140860" data-name="Trazado 140860" d="M633.385,1936.713a12.005,12.005,0,0,1,6.647-1.8c15.536.175,15.138,32.646,12.178,39.667s-1.621,9.516,10.234,14.291,5.422,11.563,3.59,15.692-5.063,7.478,3.458,12.43,5.224,7.316,5.224,7.316-17.729,15.385-16.385,10.1.371-13.5-14.241-15.322c-6.294-.784-15.718-4.591-17.3-11.529a12.212,12.212,0,0,1-.005-5.648c.712-2.218,2.342-3.877,3.341-5.938,2.328-4.8-2.19-8.829-4.69-12.371a37.033,37.033,0,0,1-3.551-5.807c-1.964-4.285-.742-8.608,2.073-12.178,1.35-1.712,3.177-3.5,3.879-5.613.753-2.274.523-5.484.586-7.882a50.225,50.225,0,0,1,.283-5.628C629.183,1943.028,630.351,1938.83,633.385,1936.713Z" transform="translate(-620.919 -1934.917)" fill="#ffa726"/>
    </clipPath>
    <clipPath id="clip-path-2">
      <path id="Trazado_140867" data-name="Trazado 140867" d="M462.773,2145.3a12,12,0,0,1,6.011-3.358c15.112-3.609,22.623,27.984,21.459,35.514s.742,9.625,13.4,11.373,8.071,9.9,7.3,14.348-3.092,8.485,6.377,11.216,6.847,5.825,6.847,5.825-13.455,19.235-13.436,13.785-2.924-13.188-17.54-11.4c-6.3.771-16.363-.63-19.589-6.975a12.211,12.211,0,0,1-1.379-5.477c.151-2.324,1.329-4.331,1.8-6.572,1.09-5.223-4.272-8.031-7.557-10.859a37.011,37.011,0,0,1-4.857-4.769c-2.947-3.679-2.813-8.169-.951-12.316.893-1.989,2.232-4.164,2.4-6.387.178-2.389-.826-5.447-1.349-7.787a50.208,50.208,0,0,1-1.094-5.528C460.234,2152.442,460.345,2148.087,462.773,2145.3Z" transform="translate(-459.315 -2141.651)" fill="#ffca28"/>
    </clipPath>
    <clipPath id="clip-path-3">
      <path id="Trazado_140933" data-name="Trazado 140933" d="M2595.757,2373.726s.5,3.87,3.514,5.213c3.7,1.649,10.392,2.555,10.828,4.484a3.3,3.3,0,0,0,1.772,2.438l18.946,2.94,28.372-27.875,3.173-42.061-21.839-3.47v-9.1H2611.4v40.692l-15.569,10.357Z" transform="translate(-2595.757 -2306.297)" fill="#ffa726"/>
    </clipPath>
    <clipPath id="clip-path-4">
      <path id="Trazado_140925" data-name="Trazado 140925" d="M2614.617,2308.7a10.226,10.226,0,0,0-5.663-1.53c-13.236.149-12.9,27.811-10.375,33.792s1.381,8.107-8.718,12.174-4.619,9.851-3.058,13.369,4.313,6.371-2.946,10.589-4.451,6.232-4.451,6.232,15.1,13.107,13.959,8.607-.316-11.5,12.132-13.053c5.362-.667,13.391-3.911,14.742-9.822a10.4,10.4,0,0,0,0-4.812c-.606-1.889-2-3.3-2.846-5.058-1.983-4.091,1.866-7.521,3.995-10.539a31.559,31.559,0,0,0,3.026-4.947c1.673-3.65.632-7.333-1.766-10.375-1.15-1.458-2.707-2.978-3.3-4.781-.642-1.937-.446-4.672-.5-6.714a42.7,42.7,0,0,0-.241-4.794C2618.2,2314.08,2617.2,2310.5,2614.617,2308.7Z" transform="translate(-2578.873 -2307.17)" fill="#ffa726"/>
    </clipPath>
    <clipPath id="clip-path-5">
      <path id="Trazado_140932" data-name="Trazado 140932" d="M2659.6,2418.527a10.229,10.229,0,0,0-4.52-3.739c-12.108-5.348-23.259,19.97-23.442,26.458s-2.1,7.951-12.979,7.469-8.285,7.052-8.322,10.9,1.286,7.585-7.069,8.417-6.633,3.828-6.633,3.828,8.316,18.186,9.139,13.617,4.478-10.6,16.45-6.854c5.156,1.614,13.807,1.988,17.486-2.832a10.406,10.406,0,0,0,2-4.377c.23-1.971-.448-3.833-.5-5.783-.11-4.544,4.814-6.073,8-7.937a31.513,31.513,0,0,0,4.8-3.249c3.035-2.629,3.614-6.412,2.69-10.174-.442-1.8-1.23-3.832-1.027-5.721.218-2.029,1.53-4.437,2.328-6.318a42.725,42.725,0,0,0,1.767-4.463C2660.628,2424.906,2661.2,2421.239,2659.6,2418.527Z" transform="translate(-2596.489 -2414.052)" fill="#ffa726"/>
    </clipPath>
    <linearGradient id="linear-gradient" y1="0.5" x2="1" y2="0.5" gradientUnits="objectBoundingBox">
      <stop offset="0" stop-color="#40447e"/>
      <stop offset="0.996" stop-color="#3c3b6b"/>
    </linearGradient>
  </defs>
  <g id="Grupo_82525" data-name="Grupo 82525" transform="translate(-915 -3884.83)">
    <rect id="Rectángulo_31406" data-name="Rectángulo 31406" width="505" height="130" rx="65" transform="translate(915 3982)" fill="#4dd0e1" opacity="0.149"/>
    <g id="Illustration" transform="translate(1020 3884.83)">
      <g id="Grupo_82400" data-name="Grupo 82400">
        <path id="Trazado_140853" data-name="Trazado 140853" d="M745.085,666.582c-8.8,33.838-33.582,65.179-93.611,81.393-21.692,5.862-46.937,8.74-69.443,6.962-33.123-2.618-67.839-17.571-95.427-34.524-19.093-11.732-26.692-27.562-29.381-45.457-1.665-11.065-1.454-22.917-.923-35.078.8-18.294-2.11-36.716-6.416-54.517a98.657,98.657,0,0,1,15.182-79.732c16.35-23.576,42.187-39.979,71.655-45.491,49.646-9.283,100.011-3.157,100.011-3.157,66.335,6.89,99.914,72.747,108.1,126.353C748.581,607.835,752.495,638.094,745.085,666.582Z" transform="translate(-447.133 -455)" fill="#fff6db"/>
        <g id="Grupo_82334" data-name="Grupo 82334" transform="translate(1.307 158.805)">
          <g id="Grupo_82324" data-name="Grupo 82324" transform="translate(17.341)">
            <g id="Grupo_82323" data-name="Grupo 82323">
              <path id="Trazado_140854" data-name="Trazado 140854" d="M633.385,1936.713a12.005,12.005,0,0,1,6.647-1.8c15.536.175,15.138,32.646,12.178,39.667s-1.621,9.516,10.234,14.291,5.422,11.563,3.59,15.692-5.063,7.478,3.458,12.43,5.224,7.316,5.224,7.316-17.729,15.385-16.385,10.1.371-13.5-14.241-15.322c-6.294-.784-15.718-4.591-17.3-11.529a12.212,12.212,0,0,1-.005-5.648c.712-2.218,2.342-3.877,3.341-5.938,2.328-4.8-2.19-8.829-4.69-12.371a37.033,37.033,0,0,1-3.551-5.807c-1.964-4.285-.742-8.608,2.073-12.178,1.35-1.712,3.177-3.5,3.879-5.613.753-2.274.523-5.484.586-7.882a50.225,50.225,0,0,1,.283-5.628C629.183,1943.028,630.351,1938.83,633.385,1936.713Z" transform="translate(-620.919 -1934.917)" fill="#ffa726"/>
              <g id="Grupo_82322" data-name="Grupo 82322" clip-path="url(#clip-path)">
                <g id="Grupo_82321" data-name="Grupo 82321" transform="translate(-5.594 -4.1)" opacity="0.8" style="mix-blend-mode: soft-light;isolation: isolate">
                  <g id="Grupo_82316" data-name="Grupo 82316" transform="translate(22.951)">
                    <path id="Trazado_140855" data-name="Trazado 140855" d="M819.622,1999.7a.229.229,0,0,0,.217-.4A110.534,110.534,0,0,1,806,1988.472c-6.625-6.077-15.133-15.5-18.039-25.882-2.427-8.67-4.127-22.813-4.666-38.8-.483-14.338.119-24.863.981-26.756a.229.229,0,0,0-.417-.19c-1.007,2.214-1.456,14.056-1.021,26.961.54,16.025,2.247,30.207,4.682,38.911,2.935,10.487,11.5,19.983,18.176,26.1a111.031,111.031,0,0,0,13.9,10.868Z" transform="translate(-782.667 -1896.708)" fill="#ffa726"/>
                  </g>
                  <g id="Grupo_82317" data-name="Grupo 82317" transform="translate(23.23 11.258)">
                    <path id="Trazado_140856" data-name="Trazado 140856" d="M785.409,2020.2a.206.206,0,0,0,.291-.085c.07-.151,7.1-15.17,14.813-18.058a.22.22,0,0,0,.131-.288.229.229,0,0,0-.3-.131c-7.889,2.954-14.773,17.657-15.063,18.282a.206.206,0,0,0,.123.279Z" transform="translate(-785.265 -2001.621)" fill="#ffa726"/>
                  </g>
                  <g id="Grupo_82318" data-name="Grupo 82318" transform="translate(0 35.311)">
                    <path id="Trazado_140857" data-name="Trazado 140857" d="M593.492,2238.494a.229.229,0,0,0,.255-.373,72.68,72.68,0,0,0-8.984-7.212c-6.744-4.524-12.07-6.069-15.83-4.594a.229.229,0,0,0,.167.427c8.652-3.394,24.172,11.557,24.328,11.708A.235.235,0,0,0,593.492,2238.494Z" transform="translate(-568.787 -2225.774)" fill="#ffa726"/>
                  </g>
                  <g id="Grupo_82319" data-name="Grupo 82319" transform="translate(40.012 56.479)">
                    <path id="Trazado_140858" data-name="Trazado 140858" d="M941.795,2452.827a.239.239,0,0,0,.073.02.229.229,0,0,0,.25-.206,87.415,87.415,0,0,1,2.637-13.593c1.8-6.316,5.1-14.143,10.554-15.561a.229.229,0,1,0-.115-.444c-4.549,1.182-8.21,6.526-10.881,15.884a87.889,87.889,0,0,0-2.65,13.668A.229.229,0,0,0,941.795,2452.827Z" transform="translate(-941.661 -2423.036)" fill="#ffa726"/>
                  </g>
                  <g id="Grupo_82320" data-name="Grupo 82320" transform="translate(7.771 60.23)">
                    <path id="Trazado_140859" data-name="Trazado 140859" d="M665.022,2472.521a.229.229,0,0,0,.246-.381c-.691-.6-16.993-14.784-23.859-14.122a.229.229,0,1,0,.044.456c6.671-.644,23.345,13.865,23.513,14.011A.224.224,0,0,0,665.022,2472.521Z" transform="translate(-641.202 -2457.995)" fill="#ffa726"/>
                  </g>
                </g>
              </g>
            </g>
          </g>
          <g id="Grupo_82333" data-name="Grupo 82333" transform="translate(0 22.184)">
            <g id="Grupo_82332" data-name="Grupo 82332">
              <path id="Trazado_140861" data-name="Trazado 140861" d="M462.773,2145.3a12,12,0,0,1,6.011-3.358c15.112-3.609,22.623,27.984,21.459,35.514s.742,9.625,13.4,11.373,8.071,9.9,7.3,14.348-3.092,8.485,6.377,11.216,6.847,5.825,6.847,5.825-13.455,19.235-13.436,13.785-2.924-13.188-17.54-11.4c-6.3.771-16.363-.63-19.589-6.975a12.211,12.211,0,0,1-1.379-5.477c.151-2.324,1.329-4.331,1.8-6.572,1.09-5.223-4.272-8.031-7.557-10.859a37.011,37.011,0,0,1-4.857-4.769c-2.947-3.679-2.813-8.169-.951-12.316.893-1.989,2.232-4.164,2.4-6.387.178-2.389-.826-5.447-1.349-7.787a50.208,50.208,0,0,1-1.094-5.528C460.234,2152.442,460.345,2148.087,462.773,2145.3Z" transform="translate(-459.315 -2141.651)" fill="#ffca28"/>
              <g id="Grupo_82331" data-name="Grupo 82331" clip-path="url(#clip-path-2)">
                <g id="Grupo_82330" data-name="Grupo 82330" transform="translate(-6.729 -3.611)" opacity="0.8" style="mix-blend-mode: soft-light;isolation: isolate">
                  <g id="Grupo_82325" data-name="Grupo 82325" transform="translate(14.63)">
                    <path id="Trazado_140862" data-name="Trazado 140862" d="M592.711,2199.259a.229.229,0,0,0,.113-.443,110.581,110.581,0,0,1-16.061-7.132c-7.9-4.283-18.449-11.355-23.792-20.718-4.462-7.82-9.551-21.124-13.963-36.5-3.956-13.79-5.931-24.146-5.556-26.191a.229.229,0,1,0-.451-.083c-.439,2.392,2.006,13.989,5.566,26.4,4.421,15.412,9.526,28.754,14.005,36.6,5.4,9.459,16.019,16.585,23.979,20.9a111.017,111.017,0,0,0,16.129,7.161A.17.17,0,0,0,592.711,2199.259Z" transform="translate(-532.95 -2108.002)" fill="#ffca28"/>
                  </g>
                  <g id="Grupo_82326" data-name="Grupo 82326" transform="translate(21.003 7.465)">
                    <path id="Trazado_140863" data-name="Trazado 140863" d="M592.559,2198.847c.124,0,.208.189.231.065.031-.164,3.183-16.332,9.962-21.009a.161.161,0,0,0,.05-.257.23.23,0,0,0-.323-.028c-6.934,4.784-10.007,20.515-10.136,21.192-.024.125.091.036.216.036Z" transform="translate(-592.339 -2177.567)" fill="#ffca28"/>
                  </g>
                  <g id="Grupo_82327" data-name="Grupo 82327" transform="translate(0 39.049)">
                    <path id="Trazado_140864" data-name="Trazado 140864" d="M423.489,2479.364a.229.229,0,0,0,.156-.424,72.673,72.673,0,0,0-10.469-4.811c-7.642-2.748-13.184-2.951-16.472-.606a.229.229,0,0,0,.266.373c7.566-5.4,26.257,5.331,26.445,5.44A.222.222,0,0,0,423.489,2479.364Z" transform="translate(-396.608 -2471.904)" fill="#ffca28"/>
                  </g>
                  <g id="Grupo_82328" data-name="Grupo 82328" transform="translate(50.183 47.668)">
                    <path id="Trazado_140865" data-name="Trazado 140865" d="M865.242,2584.4a.222.222,0,0,0,.075,0,.229.229,0,0,0,.193-.26,87.392,87.392,0,0,1-.748-13.826c.213-6.565,1.5-14.958,6.452-17.66a.229.229,0,0,0-.22-.4c-4.125,2.253-6.377,8.327-6.691,18.054a87.9,87.9,0,0,0,.753,13.9A.229.229,0,0,0,865.242,2584.4Z" transform="translate(-864.268 -2552.22)" fill="#ffca28"/>
                  </g>
                  <g id="Grupo_82329" data-name="Grupo 82329" transform="translate(13.475 62.078)">
                    <path id="Trazado_140866" data-name="Trazado 140866" d="M548.768,2695.19a.229.229,0,0,0,.146-.43c-.817-.418-20.078-10.208-26.577-7.9a.229.229,0,0,0,.154.432c6.315-2.247,26.016,7.77,26.214,7.872A.238.238,0,0,0,548.768,2695.19Z" transform="translate(-522.184 -2686.512)" fill="#ffca28"/>
                  </g>
                </g>
              </g>
            </g>
          </g>
        </g>
        <g id="Grupo_82364" data-name="Grupo 82364" transform="translate(88.99 119.403)">
          <g id="Grupo_82351" data-name="Grupo 82351" transform="translate(35.951)">
            <g id="Grupo_82348" data-name="Grupo 82348" transform="translate(7.063)">
              <path id="Trazado_140898" data-name="Trazado 140898" d="M1678.769,1575.377a1.493,1.493,0,0,1-1.493-1.493v-4.666a1.493,1.493,0,0,1,2.987,0v4.666A1.493,1.493,0,0,1,1678.769,1575.377Z" transform="translate(-1677.276 -1567.724)" fill="#ffa726"/>
            </g>
            <g id="Grupo_82349" data-name="Grupo 82349" transform="translate(7.063 13.387)">
              <path id="Trazado_140899" data-name="Trazado 140899" d="M1678.769,1773.957a1.493,1.493,0,0,1-1.493-1.493v-8.721a1.493,1.493,0,1,1,2.987,0v8.721A1.493,1.493,0,0,1,1678.769,1773.957Zm0-17.442a1.493,1.493,0,0,1-1.493-1.493V1746.3a1.493,1.493,0,1,1,2.987,0v8.721A1.493,1.493,0,0,1,1678.769,1756.515Zm0-17.442a1.493,1.493,0,0,1-1.493-1.493v-8.721a1.493,1.493,0,0,1,2.987,0v8.721A1.493,1.493,0,0,1,1678.769,1739.073Zm0-17.442a1.493,1.493,0,0,1-1.493-1.493v-8.721a1.493,1.493,0,1,1,2.987,0v8.721A1.493,1.493,0,0,1,1678.769,1721.631Zm0-17.442a1.493,1.493,0,0,1-1.493-1.493v-8.721a1.493,1.493,0,1,1,2.987,0v8.721A1.493,1.493,0,0,1,1678.769,1704.189Z" transform="translate(-1677.276 -1692.482)" fill="#ffa726"/>
            </g>
            <g id="Grupo_82350" data-name="Grupo 82350" transform="translate(0 100.597)">
              <path id="Trazado_140900" data-name="Trazado 140900" d="M1621.508,2512.879l-8.586-.17a1.493,1.493,0,0,1,.059-2.986l5.54.11v-3.143a1.493,1.493,0,1,1,2.987,0Z" transform="translate(-1611.459 -2505.196)" fill="#ffa726"/>
            </g>
          </g>
          <g id="Grupo_82355" data-name="Grupo 82355" transform="translate(105.571 4.093)">
            <g id="Grupo_82352" data-name="Grupo 82352">
              <path id="Trazado_140901" data-name="Trazado 140901" d="M2261.752,1613.522a1.493,1.493,0,0,1-1.493-1.493v-4.667a1.493,1.493,0,0,1,2.986,0v4.667A1.493,1.493,0,0,1,2261.752,1613.522Z" transform="translate(-2260.259 -1605.869)" fill="#ffa726"/>
            </g>
            <g id="Grupo_82353" data-name="Grupo 82353" transform="translate(0 12.431)">
              <path id="Trazado_140902" data-name="Trazado 140902" d="M2261.752,1732.466a1.493,1.493,0,0,1-1.493-1.493v-7.764a1.493,1.493,0,1,1,2.986,0v7.764A1.493,1.493,0,0,1,2261.752,1732.466Z" transform="translate(-2260.259 -1721.715)" fill="#ffa726"/>
            </g>
            <g id="Grupo_82354" data-name="Grupo 82354" transform="translate(0 27.96)">
              <path id="Trazado_140903" data-name="Trazado 140903" d="M2261.752,1874.085a1.493,1.493,0,0,1-1.493-1.493v-4.666a1.493,1.493,0,1,1,2.986,0v4.666A1.493,1.493,0,0,1,2261.752,1874.085Z" transform="translate(-2260.259 -1866.432)" fill="#ffa726"/>
            </g>
          </g>
          <g id="Grupo_82359" data-name="Grupo 82359" transform="translate(144.227 9.551)">
            <g id="Grupo_82356" data-name="Grupo 82356">
              <path id="Trazado_140904" data-name="Trazado 140904" d="M2621.993,1664.384a1.493,1.493,0,0,1-1.493-1.493v-4.667a1.493,1.493,0,1,1,2.987,0v4.667A1.493,1.493,0,0,1,2621.993,1664.384Z" transform="translate(-2620.5 -1656.731)" fill="#ffa726"/>
            </g>
            <g id="Grupo_82357" data-name="Grupo 82357" transform="translate(0 10.953)">
              <path id="Trazado_140905" data-name="Trazado 140905" d="M2621.993,1768.075a1.493,1.493,0,0,1-1.493-1.493V1760.3a1.493,1.493,0,0,1,2.987,0v6.286A1.493,1.493,0,0,1,2621.993,1768.075Z" transform="translate(-2620.5 -1758.802)" fill="#ffa726"/>
            </g>
            <g id="Grupo_82358" data-name="Grupo 82358" transform="translate(0 23.526)">
              <path id="Trazado_140906" data-name="Trazado 140906" d="M2621.993,1883.622a1.493,1.493,0,0,1-1.493-1.493v-4.666a1.493,1.493,0,1,1,2.987,0v4.666A1.493,1.493,0,0,1,2621.993,1883.622Z" transform="translate(-2620.5 -1875.969)" fill="#ffa726"/>
            </g>
          </g>
          <g id="Grupo_82363" data-name="Grupo 82363" transform="translate(0 44.985)">
            <g id="Grupo_82360" data-name="Grupo 82360">
              <path id="Trazado_140907" data-name="Trazado 140907" d="M1277.927,1994.594a1.493,1.493,0,0,1-1.493-1.493v-4.667a1.493,1.493,0,1,1,2.986,0v4.667A1.493,1.493,0,0,1,1277.927,1994.594Z" transform="translate(-1276.434 -1986.941)" fill="#ffa726"/>
            </g>
            <g id="Grupo_82361" data-name="Grupo 82361" transform="translate(0 10.953)">
              <path id="Trazado_140908" data-name="Trazado 140908" d="M1277.927,2098.286a1.493,1.493,0,0,1-1.493-1.493v-6.286a1.493,1.493,0,0,1,2.986,0v6.286A1.493,1.493,0,0,1,1277.927,2098.286Z" transform="translate(-1276.434 -2089.013)" fill="#ffa726"/>
            </g>
            <g id="Grupo_82362" data-name="Grupo 82362" transform="translate(0 23.526)">
              <path id="Trazado_140909" data-name="Trazado 140909" d="M1277.927,2213.831a1.493,1.493,0,0,1-1.493-1.493v-4.667a1.493,1.493,0,1,1,2.986,0v4.667A1.493,1.493,0,0,1,1277.927,2213.831Z" transform="translate(-1276.434 -2206.178)" fill="#ffa726"/>
            </g>
          </g>
        </g>
        <g id="Grupo_82374" data-name="Grupo 82374" transform="translate(50.114 13.767)">
          <g id="Grupo_82368" data-name="Grupo 82368" transform="translate(0)">
            <g id="Grupo_82367" data-name="Grupo 82367" style="isolation: isolate">
              <g id="Grupo_82365" data-name="Grupo 82365" transform="translate(0 3.465)">
                <path id="Trazado_140910" data-name="Trazado 140910" d="M1103.372,711.333a29.825,29.825,0,0,1-9.172,12.689,27.534,27.534,0,0,1-15.915,6.018c-.84.037-1.691.045-2.55.015l-146.136-5.9c-8.411-1.923-15.056-9.867-15.433-19.133-.336-8.265,4.416-15.082,11.323-17.359a16.422,16.422,0,0,1,5.854-.8,17.841,17.841,0,0,1,6.018,1.329,46.478,46.478,0,0,1-1.527-10.076c-.694-17.087,8.142-31.377,21.473-37.631a36.3,36.3,0,0,1,17.311-3.341c.041,0,.082,0,.123.007a40.025,40.025,0,0,1,11.823,2.464,37.834,37.834,0,0,1,1.99-4.722,34.963,34.963,0,0,1,16.419-16.139,34.433,34.433,0,0,1,16.441-3.121c21.19,1.116,39,20.3,39.908,42.865a42.818,42.818,0,0,1-.2,6.294,27.988,27.988,0,0,1,11.927-2.012c17.247.8,31.762,16.441,32.5,34.939A34.165,34.165,0,0,1,1103.372,711.333Z" transform="translate(-914.149 -615.585)" fill="#1565c0"/>
              </g>
              <g id="Grupo_82366" data-name="Grupo 82366" transform="translate(5.984)">
                <path id="Trazado_140911" data-name="Trazado 140911" d="M1156.749,683.39a28.552,28.552,0,0,1-12.767,11.8,27.611,27.611,0,0,1-10.2,2.486c-.84.041-1.687.049-2.546.015L985.343,691.73c-8.4-1.926-15.034-9.867-15.411-19.125a17.767,17.767,0,0,1,5.339-13.768,15.938,15.938,0,0,1,10.845-4.375c.321-.007.642,0,.967.011a17.818,17.818,0,0,1,6.007,1.329,46.425,46.425,0,0,1-1.523-10.069c-.586-14.391,5.592-26.8,15.523-34.073a35.446,35.446,0,0,1,18.173-6.764,37.4,37.4,0,0,1,5.021-.082,39.172,39.172,0,0,1,8.053,1.254q1.971.515,3.875,1.224a36.12,36.12,0,0,1,12.543-17.363,33.972,33.972,0,0,1,22.25-6.585c21.156,1.127,38.941,20.309,39.841,42.85a42.735,42.735,0,0,1-.2,6.291,27.979,27.979,0,0,1,11.913-2.009c17.217.81,31.706,16.445,32.441,34.928A33.317,33.317,0,0,1,1156.749,683.39Z" transform="translate(-969.915 -583.292)" fill="#039be5"/>
              </g>
            </g>
          </g>
          <g id="Grupo_82373" data-name="Grupo 82373" transform="translate(69.817 33.874)">
            <g id="Grupo_82370" data-name="Grupo 82370">
              <g id="Grupo_82369" data-name="Grupo 82369" transform="translate(0 27.168)">
                <path id="Trazado_140912" data-name="Trazado 140912" d="M1576.614,1152.146l-4.374,7.578-7.465-3.973,1.312,4.9,7.464,3.969,4.375-7.575Z" transform="translate(-1564.775 -1152.146)" fill="#ffca28"/>
              </g>
              <path id="Trazado_140913" data-name="Trazado 140913" d="M1671.632,914.454l-5.746-2.313a24.206,24.206,0,0,0-6.043-5.58c-11.748-7.633-28.046-4.089-36.333,7.9a26.168,26.168,0,0,0-4.731,16.49,25.222,25.222,0,0,0,.422,3.363,1.878,1.878,0,0,1-1.437,2.149,1.713,1.713,0,0,1-2.109-1.318q-.235-1.219-.367-2.439a29.727,29.727,0,0,1,5.274-20.163c9.433-13.646,27.987-17.68,41.36-8.992a27.88,27.88,0,0,1,4.524,3.663A27.361,27.361,0,0,1,1671.632,914.454Z" transform="translate(-1609.719 -898.968)" fill="#ffca28"/>
            </g>
            <g id="Grupo_82372" data-name="Grupo 82372" transform="translate(9.229 21.81)">
              <g id="Grupo_82371" data-name="Grupo 82371" transform="translate(48.667)">
                <path id="Trazado_140914" data-name="Trazado 140914" d="M2105.617,1114.7l4.374-7.578,7.465,3.973-1.311-4.9-7.464-3.969-4.375,7.575Z" transform="translate(-2104.306 -1102.219)" fill="#ffca28"/>
              </g>
              <path id="Trazado_140915" data-name="Trazado 140915" d="M1701.755,1145.766c-9.435,13.646-27.989,17.678-41.362,8.99a27.758,27.758,0,0,1-4.524-3.661,27.4,27.4,0,0,1-5.09-7.05l6.081,2.667a24.218,24.218,0,0,0,5.614,5.035c11.746,7.633,28.044,4.089,36.331-7.9a26.17,26.17,0,0,0,4.731-16.492,25.215,25.215,0,0,0-.422-3.361,1.878,1.878,0,0,1,1.437-2.149,1.713,1.713,0,0,1,2.109,1.318q.235,1.219.368,2.439A29.736,29.736,0,0,1,1701.755,1145.766Z" transform="translate(-1650.779 -1119.696)" fill="#ffca28"/>
            </g>
          </g>
        </g>
        <g id="Grupo_82378" data-name="Grupo 82378" transform="translate(213.38 100.747)">
          <g id="Grupo_82377" data-name="Grupo 82377" style="isolation: isolate">
            <g id="Grupo_82375" data-name="Grupo 82375" transform="translate(0 2.656)">
              <path id="Trazado_140917" data-name="Trazado 140917" d="M2472.777,1418.64c7.47.392,13.788,7.079,14.108,14.935a14.92,14.92,0,0,1-.072,2.192,10.133,10.133,0,0,1,4.247-.672c6.166.323,11.377,5.84,11.642,12.324.251,6.161-4.054,10.977-9.773,11.166-.3.008-.6.007-.911-.009l-51.1-2.851a7.164,7.164,0,0,1-5.276-6.609,5.639,5.639,0,0,1,5.874-6.132,6.161,6.161,0,0,1,2.064.475,16.047,16.047,0,0,1-.524-3.452c-.331-8.122,5.659-14.38,13.383-13.975a14.043,14.043,0,0,1,4.151.868A12.075,12.075,0,0,1,2472.777,1418.64Z" transform="translate(-2435.633 -1418.622)" fill="#1565c0"/>
            </g>
            <g id="Grupo_82376" data-name="Grupo 82376" transform="translate(3.241)">
              <path id="Trazado_140918" data-name="Trazado 140918" d="M2502.976,1393.89c7.47.391,13.788,7.079,14.108,14.935a14.991,14.991,0,0,1-.072,2.192,10.131,10.131,0,0,1,4.247-.672c6.166.323,11.377,5.84,11.642,12.324.251,6.161-4.054,10.976-9.773,11.166-.3.008-.6.007-.911-.009l-51.1-2.851a7.163,7.163,0,0,1-5.276-6.609,5.638,5.638,0,0,1,5.874-6.132,6.163,6.163,0,0,1,2.065.475,16.045,16.045,0,0,1-.524-3.452c-.331-8.122,5.659-14.379,13.383-13.975a14.05,14.05,0,0,1,4.151.868A12.075,12.075,0,0,1,2502.976,1393.89Z" transform="translate(-2465.833 -1393.872)" fill="#4dd0e1"/>
            </g>
          </g>
        </g>
        <g id="Grupo_82399" data-name="Grupo 82399" transform="translate(230.562 198.657)">
          <g id="Grupo_82398" data-name="Grupo 82398" clip-path="url(#clip-path-3)">
            <g id="Grupo_82397" data-name="Grupo 82397" transform="translate(-1.812 0.094)">
              <g id="Grupo_82387" data-name="Grupo 82387">
                <g id="Grupo_82386" data-name="Grupo 82386">
                  <path id="Trazado_140919" data-name="Trazado 140919" d="M2614.617,2308.7a10.226,10.226,0,0,0-5.663-1.53c-13.236.149-12.9,27.811-10.375,33.792s1.381,8.107-8.718,12.174-4.619,9.851-3.058,13.369,4.313,6.371-2.946,10.589-4.451,6.232-4.451,6.232,15.1,13.107,13.959,8.607-.316-11.5,12.132-13.053c5.362-.667,13.391-3.911,14.742-9.822a10.4,10.4,0,0,0,0-4.812c-.606-1.889-2-3.3-2.846-5.058-1.983-4.091,1.866-7.521,3.995-10.539a31.559,31.559,0,0,0,3.026-4.947c1.673-3.65.632-7.333-1.766-10.375-1.15-1.458-2.707-2.978-3.3-4.781-.642-1.937-.446-4.672-.5-6.714a42.7,42.7,0,0,0-.241-4.794C2618.2,2314.08,2617.2,2310.5,2614.617,2308.7Z" transform="translate(-2578.873 -2307.17)" fill="#ffa726"/>
                  <g id="Grupo_82385" data-name="Grupo 82385" clip-path="url(#clip-path-4)">
                    <g id="Grupo_82384" data-name="Grupo 82384" transform="translate(-0.18 -3.493)" opacity="0.8" style="mix-blend-mode: soft-light;isolation: isolate">
                      <g id="Grupo_82379" data-name="Grupo 82379">
                        <path id="Trazado_140920" data-name="Trazado 140920" d="M2577.471,2362.358a.2.2,0,0,1-.185-.343,94.211,94.211,0,0,0,11.794-9.221c5.645-5.177,12.892-13.206,15.367-22.049,2.067-7.386,3.516-19.435,3.975-33.057.412-12.215-.1-21.181-.835-22.794a.2.2,0,0,1,.355-.162c.858,1.886,1.241,11.975.87,22.969-.46,13.652-1.914,25.734-3.989,33.149-2.5,8.934-9.8,17.023-15.485,22.236a94.56,94.56,0,0,1-11.844,9.259Z" transform="translate(-2577.195 -2274.619)" fill="#ffa726"/>
                      </g>
                      <g id="Grupo_82380" data-name="Grupo 82380" transform="translate(18.406 9.591)">
                        <path id="Trazado_140921" data-name="Trazado 140921" d="M2761.717,2379.822a.175.175,0,0,1-.248-.073c-.06-.129-6.049-12.924-12.62-15.384a.187.187,0,0,1-.112-.245.2.2,0,0,1,.252-.112c6.721,2.516,12.586,15.042,12.833,15.575a.176.176,0,0,1-.1.238Z" transform="translate(-2748.725 -2363.996)" fill="#ffa726"/>
                      </g>
                      <g id="Grupo_82381" data-name="Grupo 82381" transform="translate(29.987 30.082)">
                        <path id="Trazado_140922" data-name="Trazado 140922" d="M2856.925,2565.791a.2.2,0,0,1-.217-.318,61.931,61.931,0,0,1,7.654-6.144c5.746-3.854,10.283-5.171,13.486-3.914a.2.2,0,0,1-.143.364c-7.371-2.892-20.593,9.845-20.725,9.974A.2.2,0,0,1,2856.925,2565.791Z" transform="translate(-2856.649 -2554.954)" fill="#ffa726"/>
                      </g>
                      <g id="Grupo_82382" data-name="Grupo 82382" transform="translate(5.451 48.115)">
                        <path id="Trazado_140923" data-name="Trazado 140923" d="M2639.651,2748.384a.206.206,0,0,1-.062.017.2.2,0,0,1-.213-.176,74.477,74.477,0,0,0-2.246-11.58c-1.536-5.381-4.343-12.049-8.991-13.256a.2.2,0,1,1,.1-.378c3.876,1.007,6.994,5.56,9.27,13.532a74.889,74.889,0,0,1,2.258,11.644A.2.2,0,0,1,2639.651,2748.384Z" transform="translate(-2627.992 -2723.004)" fill="#ffa726"/>
                      </g>
                      <g id="Grupo_82383" data-name="Grupo 82383" transform="translate(24.122 51.311)">
                        <path id="Trazado_140924" data-name="Trazado 140924" d="M2802.264,2765.16a.2.2,0,0,1-.209-.325c.588-.515,14.477-12.595,20.326-12.031a.2.2,0,0,1-.038.389c-5.684-.548-19.888,11.811-20.031,11.936A.2.2,0,0,1,2802.264,2765.16Z" transform="translate(-2801.988 -2752.786)" fill="#ffa726"/>
                      </g>
                    </g>
                  </g>
                </g>
              </g>
              <g id="Grupo_82396" data-name="Grupo 82396" transform="translate(1.89 11.469)">
                <g id="Grupo_82395" data-name="Grupo 82395">
                  <path id="Trazado_140926" data-name="Trazado 140926" d="M2659.6,2418.527a10.229,10.229,0,0,0-4.52-3.739c-12.108-5.348-23.259,19.97-23.442,26.458s-2.1,7.951-12.979,7.469-8.285,7.052-8.322,10.9,1.286,7.585-7.069,8.417-6.633,3.828-6.633,3.828,8.316,18.186,9.139,13.617,4.478-10.6,16.45-6.854c5.156,1.614,13.807,1.988,17.486-2.832a10.406,10.406,0,0,0,2-4.377c.23-1.971-.448-3.833-.5-5.783-.11-4.544,4.814-6.073,8-7.937a31.513,31.513,0,0,0,4.8-3.249c3.035-2.629,3.614-6.412,2.69-10.174-.442-1.8-1.23-3.832-1.027-5.721.218-2.029,1.53-4.437,2.328-6.318a42.725,42.725,0,0,0,1.767-4.463C2660.628,2424.906,2661.2,2421.239,2659.6,2418.527Z" transform="translate(-2596.489 -2414.052)" fill="#ffa726"/>
                  <g id="Grupo_82394" data-name="Grupo 82394" clip-path="url(#clip-path-5)">
                    <g id="Grupo_82393" data-name="Grupo 82393" transform="translate(-3.798 -2.334)" opacity="0.8" style="mix-blend-mode: soft-light;isolation: isolate">
                      <g id="Grupo_82388" data-name="Grupo 82388">
                        <path id="Trazado_140927" data-name="Trazado 140927" d="M2561.287,2459.628a.2.2,0,0,1-.026-.389,94.186,94.186,0,0,0,14.554-3.507c7.282-2.374,17.2-6.678,23.121-13.7,4.942-5.866,11.252-16.232,17.313-28.439,5.435-10.947,8.683-19.32,8.683-21.092a.2.2,0,1,1,.39,0c0,2.072-3.832,11.413-8.723,21.265-6.074,12.234-12.4,22.628-17.364,28.517-5.977,7.1-15.973,11.434-23.305,13.823a94.573,94.573,0,0,1-14.615,3.52Z" transform="translate(-2561.092 -2392.305)" fill="#ffa726"/>
                      </g>
                      <g id="Grupo_82389" data-name="Grupo 82389" transform="translate(48.975 3.747)">
                        <path id="Trazado_140928" data-name="Trazado 140928" d="M3022.858,2446.724c-.107,0-.195.061-.2-.046,0-.142-.151-14.208-5.113-19.168a.154.154,0,0,1,0-.239.2.2,0,0,1,.276.019c5.074,5.074,5.223,18.79,5.227,19.377,0,.108-.086.058-.194.058Z" transform="translate(-3017.493 -2427.221)" fill="#ffa726"/>
                      </g>
                      <g id="Grupo_82390" data-name="Grupo 82390" transform="translate(46.69 33.805)">
                        <path id="Trazado_140929" data-name="Trazado 140929" d="M2996.393,2710.661a.2.2,0,0,1-.066-.379,61.889,61.889,0,0,1,9.512-2.421c6.826-1.127,11.5-.446,13.9,2.025a.2.2,0,1,1-.28.272c-5.51-5.685-22.821.43-23,.492A.193.193,0,0,1,2996.393,2710.661Z" transform="translate(-2996.198 -2707.333)" fill="#ffa726"/>
                      </g>
                      <g id="Grupo_82391" data-name="Grupo 82391" transform="translate(21.222 33.466)">
                        <path id="Trazado_140930" data-name="Trazado 140930" d="M2759.059,2732.046a.178.178,0,0,1-.063-.011.2.2,0,0,1-.122-.248,74.522,74.522,0,0,0,2.753-11.47c.831-5.534,1.039-12.765-2.691-15.79a.2.2,0,0,1,.246-.3c3.11,2.522,4.063,7.958,2.831,16.156a74.93,74.93,0,0,1-2.769,11.533A.2.2,0,0,1,2759.059,2732.046Z" transform="translate(-2758.864 -2704.181)" fill="#ffa726"/>
                      </g>
                      <g id="Grupo_82392" data-name="Grupo 82392" transform="translate(31.919 51.621)">
                        <path id="Trazado_140931" data-name="Trazado 140931" d="M2858.747,2877.167a.2.2,0,0,1-.056-.382c.749-.225,18.393-5.466,23.483-2.53a.2.2,0,1,1-.2.338c-4.946-2.854-22.994,2.511-23.176,2.565A.2.2,0,0,1,2858.747,2877.167Z" transform="translate(-2858.552 -2873.364)" fill="#ffa726"/>
                      </g>
                    </g>
                  </g>
                </g>
              </g>
            </g>
          </g>
        </g>
        <g id="Grupo_82347" data-name="Grupo 82347" transform="translate(37.326 131.217)">
          <g id="Grupo_82346" data-name="Grupo 82346" style="isolation: isolate">
            <g id="Grupo_82344" data-name="Grupo 82344" transform="translate(0 3.042)">
              <path id="Trazado_140896" data-name="Trazado 140896" d="M838.625,1706.189c8.21.422,15.016,8.093,15.357,17.132a18.084,18.084,0,0,1-.077,2.525,10.172,10.172,0,0,1,4.5-.907c6.441.176,11.8,6.228,12.068,13.516.256,6.924-4.157,12.632-10.1,13.235-.315.03-.634.05-.956.053l-57.922.3a8.229,8.229,0,0,1-6.507-7.813,7.336,7.336,0,0,1,7.237-7.922,7.239,7.239,0,0,1,2.508.478,19.574,19.574,0,0,1-.636-4.214c-.4-9.968,6.815-17.767,15.927-17.415a15.654,15.654,0,0,1,4.811.964C826.89,1709.978,832.253,1705.862,838.625,1706.189Z" transform="translate(-794.981 -1706.171)" fill="#1565c0"/>
            </g>
            <g id="Grupo_82345" data-name="Grupo 82345" transform="translate(4.213)">
              <path id="Trazado_140897" data-name="Trazado 140897" d="M877.441,1677.843c8.129.453,14.868,8.113,15.207,17.109a18.081,18.081,0,0,1-.076,2.513,10.005,10.005,0,0,1,4.459-.884c6.379.2,11.685,6.247,11.952,13.5.254,6.892-4.117,12.554-10.007,13.129-.312.029-.628.047-.947.048l-57.341.055a8.218,8.218,0,0,1-6.439-7.8,7.246,7.246,0,0,1,7.161-7.85,7.149,7.149,0,0,1,2.482.486,19.6,19.6,0,0,1-.629-4.194c-.4-9.918,6.744-17.647,15.764-17.26a15.461,15.461,0,0,1,4.762.978C865.823,1681.566,871.131,1677.491,877.441,1677.843Z" transform="translate(-834.242 -1677.822)" fill="#4dd0e1"/>
            </g>
          </g>
        </g>
        <g id="Grupo_82343" data-name="Grupo 82343" transform="translate(144.608 154.128)">
          <path id="Trazado_140883" data-name="Trazado 140883" d="M2293.858,2811.326a6.975,6.975,0,0,1-4.624-5.251l-3.437-17.011-29.4,1.044-3.619,17.721c-.507,2.482,1.522,4.972,3.858,5.886l12.3,4.813a15.994,15.994,0,0,0,7.191,1.043l26-2.224a1.613,1.613,0,0,0,1.458-1.429c.089-.766.621-1.627-.1-1.867Z" transform="translate(-2203.558 -2692.73)" fill="#1565c0"/>
          <path id="Trazado_140884" data-name="Trazado 140884" d="M2302.4,2804.013a6.914,6.914,0,0,1-4.62-5.185l-3.433-16.8-28.685,1.032-3.615,17.5a5.12,5.12,0,0,0,3.167,5.811l12.289,4.752a16.148,16.148,0,0,0,7.185,1.029l25.97-2.2a1.6,1.6,0,0,0,.364-3.119Z" transform="translate(-2211.804 -2686.452)" fill="#039be5"/>
          <path id="Trazado_140885" data-name="Trazado 140885" d="M1932.291,1975.832v-76.276a3.007,3.007,0,0,0-2.869-2.959l-131.043-5.268a3.289,3.289,0,0,0-3.631,3.062v84.3Z" transform="translate(-1794.748 -1891.326)" fill="#1565c0"/>
          <g id="Grupo_82339" data-name="Grupo 82339" transform="translate(4.053 4.434)">
            <path id="Trazado_140886" data-name="Trazado 140886" d="M1832.52,2029.222v65.848a3.1,3.1,0,0,0,3.371,2.893l124.369-3.537a2.782,2.782,0,0,0,2.7-2.742v-58.729Z" transform="translate(-1832.52 -2018.859)" fill="#fff"/>
            <path id="Trazado_140887" data-name="Trazado 140887" d="M1962.955,1946.742V1940a2.755,2.755,0,0,0-2.64-2.709l-124.493-4.644a3.005,3.005,0,0,0-3.3,2.8v7.557Z" transform="translate(-1832.52 -1932.646)" fill="#039be5"/>
            <g id="Grupo_82338" data-name="Grupo 82338" transform="translate(6.792 4.172)">
              <path id="Trazado_140888" data-name="Trazado 140888" d="M1898.121,1972.589a1.053,1.053,0,0,1-1.153.988,1.14,1.14,0,0,1-1.156-1.064,1.054,1.054,0,0,1,1.156-.988A1.14,1.14,0,0,1,1898.121,1972.589Z" transform="translate(-1895.813 -1971.525)" fill="#4dd0e1"/>
              <path id="Trazado_140889" data-name="Trazado 140889" d="M1944.648,1974.164a1.044,1.044,0,0,1-1.139.983,1.13,1.13,0,0,1-1.142-1.057,1.044,1.044,0,0,1,1.142-.982A1.129,1.129,0,0,1,1944.648,1974.164Z" transform="translate(-1937.371 -1972.936)" fill="#4dd0e1"/>
              <path id="Trazado_140890" data-name="Trazado 140890" d="M1990.632,1975.72a1.034,1.034,0,0,1-1.126.977,1.119,1.119,0,0,1-1.129-1.051,1.034,1.034,0,0,1,1.129-.977A1.119,1.119,0,0,1,1990.632,1975.72Z" transform="translate(-1978.444 -1974.331)" fill="#4dd0e1"/>
            </g>
          </g>
          <path id="Trazado_140891" data-name="Trazado 140891" d="M1794.748,2677.63v16.834a3.282,3.282,0,0,0,3.631,3.055l131.043-5.541a3.015,3.015,0,0,0,2.869-2.965v-14.73Z" transform="translate(-1794.748 -2590.268)" fill="#1565c0"/>
          <g id="Grupo_82341" data-name="Grupo 82341" transform="translate(13.602 21.921)">
            <g id="Grupo_82340" data-name="Grupo 82340">
              <path id="Trazado_140892" data-name="Trazado 140892" d="M1993.769,2125.386l-72.26.392v-30.172l72.26,1.315Z" transform="translate(-1921.509 -2095.606)" fill="#26a69a"/>
              <path id="Trazado_140893" data-name="Trazado 140893" d="M2670.979,2136.743l-36.564.2v-28.366l36.564.665Z" transform="translate(-2557.916 -2107.183)" fill="#ffedb7"/>
              <path id="Trazado_140894" data-name="Trazado 140894" d="M2034.573,2421.368l-113.064,2.594v-18.456l113.064-.961Z" transform="translate(-1921.509 -2371.394)" fill="#4dd0e1"/>
            </g>
          </g>
          <g id="Grupo_82342" data-name="Grupo 82342" transform="translate(137.543 87.862)" opacity="0.48" style="mix-blend-mode: soft-light;isolation: isolate">
            <path id="Trazado_140895" data-name="Trazado 140895" d="M1973.368,2005.427Z" transform="translate(-1973.368 -2005.427)" fill="#fff"/>
          </g>
        </g>
        <g id="Grupo_82337" data-name="Grupo 82337" transform="translate(18.52 195.823)">
          <path id="Trazado_140868" data-name="Trazado 140868" d="M787.566,2999.016l-152.711-1.33v3.935a2.087,2.087,0,0,0,1.568,2.138l43.182,7.749a5.93,5.93,0,0,0,1.549.073l104.752-8.835a1.987,1.987,0,0,0,1.659-2.087Z" transform="translate(-633.231 -2920.662)" fill="#1565c0"/>
          <path id="Trazado_140869" data-name="Trazado 140869" d="M724.893,2351.865l-101.87,7.2a3.034,3.034,0,0,1-3.305-3.058v-72.825a3.3,3.3,0,0,1,3.305-3.291h101.87a2.853,2.853,0,0,1,2.716,2.975V2348.7A3.11,3.11,0,0,1,724.893,2351.865Z" transform="translate(-619.718 -2279.89)" fill="#039be5"/>
          <path id="Trazado_140870" data-name="Trazado 140870" d="M740.03,2351.865l-101.87,7.2a3.034,3.034,0,0,1-3.305-3.058v-72.825a3.3,3.3,0,0,1,3.305-3.291H740.03a2.853,2.853,0,0,1,2.716,2.975V2348.7A3.11,3.11,0,0,1,740.03,2351.865Z" transform="translate(-633.231 -2279.89)" fill="#1565c0"/>
          <path id="Trazado_140871" data-name="Trazado 140871" d="M773.722,2382.4l-94.882,6.254a2.486,2.486,0,0,1-2.689-2.51v-63.759a2.7,2.7,0,0,1,2.689-2.7l94.882-.393a2.338,2.338,0,0,1,2.241,2.438V2379.8A2.546,2.546,0,0,1,773.722,2382.4Z" transform="translate(-670.095 -2315.065)" fill="#fff"/>
          <path id="Trazado_140872" data-name="Trazado 140872" d="M1154.334,2288.267a1.174,1.174,0,1,1-1.172-1.224A1.2,1.2,0,0,1,1154.334,2288.267Z" transform="translate(-1094.872 -2286.275)" fill="#fff"/>
          <path id="Trazado_140873" data-name="Trazado 140873" d="M737.489,2947.414l-102.634,7.578,44.75,8.03a5.909,5.909,0,0,0,1.549.073l106.411-8.975-48.444-6.654A7.788,7.788,0,0,0,737.489,2947.414Z" transform="translate(-633.231 -2875.765)" fill="#039be5"/>
          <path id="Trazado_140874" data-name="Trazado 140874" d="M774.416,2966.718l85.445-6.4,26.445,3.6-84.709,6.844Z" transform="translate(-757.816 -2887.301)" opacity="0.3" fill="url(#linear-gradient)" style="mix-blend-mode: multiply;isolation: isolate"/>
          <g id="Grupo_82336" data-name="Grupo 82336" transform="translate(6.044 4.228)">
            <path id="Trazado_140875" data-name="Trazado 140875" d="M775.878,2331.622l-99.835,1.24v-11.278a2.29,2.29,0,0,1,2.29-2.29h95.255a2.29,2.29,0,0,1,2.29,2.29Z" transform="translate(-676.043 -2319.294)" fill="#039be5"/>
            <g id="Grupo_82335" data-name="Grupo 82335" transform="translate(6.146 16.727)">
              <path id="Trazado_140876" data-name="Trazado 140876" d="M789.761,2505.465l-56.445,2.332v-26.663l56.445-.947Z" transform="translate(-733.316 -2479.65)" fill="#ffca28"/>
              <path id="Trazado_140877" data-name="Trazado 140877" d="M1319.136,2499.658l-28.787,1.189v-25.2l28.787-.483Z" transform="translate(-1230.576 -2475.169)" fill="#ffa726"/>
              <path id="Trazado_140878" data-name="Trazado 140878" d="M821.876,2748.161l-88.56,5.273v-16.309l88.56-3.943Z" transform="translate(-733.316 -2705.496)" fill="#26a69a"/>
            </g>
            <path id="Trazado_140879" data-name="Trazado 140879" d="M719.728,2367.584a1.337,1.337,0,0,1-1.382,1.272,1.319,1.319,0,0,1-1.385-1.256,1.337,1.337,0,0,1,1.385-1.272A1.318,1.318,0,0,1,719.728,2367.584Z" transform="translate(-712.57 -2361.282)" fill="#4dd0e1"/>
            <path id="Trazado_140880" data-name="Trazado 140880" d="M766.509,2367.362a1.327,1.327,0,0,1-1.369,1.266,1.309,1.309,0,0,1-1.373-1.25,1.327,1.327,0,0,1,1.373-1.266A1.309,1.309,0,0,1,766.509,2367.362Z" transform="translate(-754.354 -2361.088)" fill="#4dd0e1"/>
            <path id="Trazado_140881" data-name="Trazado 140881" d="M812.858,2367.141a1.317,1.317,0,0,1-1.356,1.26,1.3,1.3,0,0,1-1.36-1.244,1.318,1.318,0,0,1,1.36-1.26A1.3,1.3,0,0,1,812.858,2367.141Z" transform="translate(-795.752 -2360.896)" fill="#4dd0e1"/>
          </g>
        </g>
      </g>
    </g>
  </g>
</svg>
