<svg xmlns="http://www.w3.org/2000/svg" width="610" height="260" viewBox="0 0 610 260">
  <g id="Grupo_82524" data-name="Grupo 82524" transform="translate(-495 -3463)">
    <path id="Trazado_142012" data-name="Trazado 142012" d="M0,0H610V50H0Z" transform="translate(495 3463)" fill="#ffa726"/>
    <path id="Trazado_142009" data-name="Trazado 142009" d="M0,0H610V114H0Z" transform="translate(495 3513)" fill="#fff6db"/>
    <path id="Trazado_142008" data-name="Trazado 142008" d="M0,0H610V96H0Z" transform="translate(495 3627)" fill="#ffedb7"/>
    <path id="Trazado_142013" data-name="Trazado 142013" d="M-44.051-6.012V0h-3.516V-17.062h6.656a7.7,7.7,0,0,1,3.381.7,5.181,5.181,0,0,1,2.244,2,5.571,5.571,0,0,1,.785,2.947,4.9,4.9,0,0,1-1.717,3.955,7.15,7.15,0,0,1-4.752,1.447Zm0-2.848h3.141a3.088,3.088,0,0,0,2.127-.656,2.387,2.387,0,0,0,.732-1.875,2.814,2.814,0,0,0-.738-2.027,2.758,2.758,0,0,0-2.039-.8h-3.223ZM-25.184-9.5A9.2,9.2,0,0,0-26.4-9.6a2.481,2.481,0,0,0-2.52,1.3V0h-3.387V-12.68h3.2l.094,1.512a3.138,3.138,0,0,1,2.824-1.746,3.549,3.549,0,0,1,1.055.152Zm.68,3.047a7.52,7.52,0,0,1,.727-3.363,5.319,5.319,0,0,1,2.092-2.285,6.1,6.1,0,0,1,3.17-.809,5.774,5.774,0,0,1,4.189,1.57,6.3,6.3,0,0,1,1.811,4.266l.023.867a6.627,6.627,0,0,1-1.629,4.682A5.662,5.662,0,0,1-18.492.234a5.69,5.69,0,0,1-4.377-1.758A6.744,6.744,0,0,1-24.5-6.3Zm3.387.24a4.74,4.74,0,0,0,.68,2.764,2.242,2.242,0,0,0,1.945.957,2.247,2.247,0,0,0,1.922-.945,5.186,5.186,0,0,0,.691-3.022,4.692,4.692,0,0,0-.691-2.746,2.248,2.248,0,0,0-1.945-.974,2.211,2.211,0,0,0-1.922.968A5.274,5.274,0,0,0-21.117-6.217Zm10.184-.217A7.641,7.641,0,0,1-9.6-11.156a4.316,4.316,0,0,1,3.639-1.758,3.884,3.884,0,0,1,3.059,1.383V-18h3.4V0H-2.566L-2.73-1.348A3.985,3.985,0,0,1-5.988.234,4.3,4.3,0,0,1-9.58-1.529,7.887,7.887,0,0,1-10.934-6.434Zm3.387.241A5.033,5.033,0,0,0-6.926-3.45a2.022,2.022,0,0,0,1.8.954,2.265,2.265,0,0,0,2.215-1.33V-8.853A2.233,2.233,0,0,0-5.1-10.184Q-7.547-10.184-7.547-6.193Zm18.258,4.9A4.247,4.247,0,0,1,7.242.234,4.005,4.005,0,0,1,4.131-.937a5,5,0,0,1-1.1-3.434V-12.68H6.422v8.2q0,1.983,1.8,1.983a2.445,2.445,0,0,0,2.367-1.2V-12.68h3.4V0H10.8ZM21.82-2.5a2.221,2.221,0,0,0,1.523-.516,1.807,1.807,0,0,0,.609-1.371h3.176a4.344,4.344,0,0,1-.7,2.361A4.64,4.64,0,0,1,24.533-.357a5.923,5.923,0,0,1-2.654.592A5.5,5.5,0,0,1,17.59-1.494,6.84,6.84,0,0,1,16.02-6.27v-.223a6.762,6.762,0,0,1,1.559-4.676,5.441,5.441,0,0,1,4.277-1.746,5.333,5.333,0,0,1,3.814,1.354,4.792,4.792,0,0,1,1.459,3.6H23.953a2.327,2.327,0,0,0-.609-1.608,2.032,2.032,0,0,0-1.547-.619,2.04,2.04,0,0,0-1.787.863,5,5,0,0,0-.6,2.8v.352A5.063,5.063,0,0,0,20-3.353,2.065,2.065,0,0,0,21.82-2.5Zm11.3-13.3v3.117h2.168V-10.2H33.117v6.328a1.511,1.511,0,0,0,.27,1.008,1.354,1.354,0,0,0,1.031.3,5.4,5.4,0,0,0,1-.082V-.07a6.972,6.972,0,0,1-2.051.3q-3.562,0-3.633-3.6V-10.2H27.879V-12.68H29.73V-15.8Zm3.176,9.34A7.52,7.52,0,0,1,37.02-9.82a5.319,5.319,0,0,1,2.092-2.285,6.1,6.1,0,0,1,3.17-.809,5.774,5.774,0,0,1,4.189,1.57,6.3,6.3,0,0,1,1.811,4.266l.023.867a6.627,6.627,0,0,1-1.629,4.682A5.662,5.662,0,0,1,42.3.234a5.69,5.69,0,0,1-4.377-1.758A6.744,6.744,0,0,1,36.293-6.3Zm3.387.24a4.74,4.74,0,0,0,.68,2.764A2.242,2.242,0,0,0,42.3-2.5a2.247,2.247,0,0,0,1.922-.945,5.186,5.186,0,0,0,.691-3.022,4.692,4.692,0,0,0-.691-2.746,2.248,2.248,0,0,0-1.945-.974,2.211,2.211,0,0,0-1.922.968A5.274,5.274,0,0,0,39.68-6.217Z" transform="translate(800 3492)" fill="#fff"/>
    <g id="Grupo_56537" data-name="Grupo 56537" transform="translate(97)">
      <text id="int_String_double" data-name="int
String
double" transform="translate(728 3542)" fill="#00104e" font-size="24" font-family="Roboto-Regular, Roboto"><tspan x="0" y="0">int</tspan><tspan x="0" y="34">String</tspan><tspan x="0" y="68">double</tspan></text>
      <text id="_-codigo:_-nombre:_-precio:" data-name="-codigo:
-nombre:
-precio:" transform="translate(705 3542)" fill="#00104e" font-size="24" font-family="Roboto-Bold, Roboto" font-weight="700"><tspan x="-89.32" y="0">-codigo:</tspan><tspan x="-98.883" y="34">-nombre:</tspan><tspan x="-83.543" y="68">-precio:</tspan></text>
    </g>
    <path id="Trazado_142011" data-name="Trazado 142011" d="M-89.221-9.551h4.23v3.059h-4.23v4.781h-3.223V-6.492h-4.242V-9.551h4.242v-4.582h3.223Zm5.742,3.094a7.52,7.52,0,0,1,.727-3.363,5.319,5.319,0,0,1,2.092-2.285,6.1,6.1,0,0,1,3.17-.809,5.774,5.774,0,0,1,4.189,1.57A6.3,6.3,0,0,1-71.49-7.078l.023.867A6.627,6.627,0,0,1-73.1-1.529,5.662,5.662,0,0,1-77.467.234a5.69,5.69,0,0,1-4.377-1.758A6.744,6.744,0,0,1-83.479-6.3Zm3.387.24a4.74,4.74,0,0,0,.68,2.764,2.242,2.242,0,0,0,1.945.957,2.247,2.247,0,0,0,1.922-.945,5.186,5.186,0,0,0,.691-3.022,4.692,4.692,0,0,0-.691-2.746,2.248,2.248,0,0,0-1.945-.974,2.211,2.211,0,0,0-1.922.968A5.274,5.274,0,0,0-80.092-6.217Zm22.137-.006a7.678,7.678,0,0,1-1.3,4.752A4.309,4.309,0,0,1-62.889.234a3.959,3.959,0,0,1-3.293-1.582L-66.334,0h-3.047V-18h3.387v6.457a3.857,3.857,0,0,1,3.082-1.371,4.344,4.344,0,0,1,3.639,1.705,7.689,7.689,0,0,1,1.318,4.8Zm-3.387-.258A5.072,5.072,0,0,0-61.951-9.3a2.058,2.058,0,0,0-1.816-.888,2.233,2.233,0,0,0-2.227,1.328v5.019a2.263,2.263,0,0,0,2.25,1.34,2.092,2.092,0,0,0,2.156-1.622A8.392,8.392,0,0,0-61.342-6.481Zm9.527-9.316v3.117h2.168V-10.2h-2.168v6.328a1.511,1.511,0,0,0,.27,1.008,1.354,1.354,0,0,0,1.031.3,5.4,5.4,0,0,0,1-.082V-.07a6.972,6.972,0,0,1-2.051.3q-3.562,0-3.633-3.6V-10.2h-1.852V-12.68H-55.2V-15.8ZM-41.924.234a6.225,6.225,0,0,1-4.541-1.711,6.082,6.082,0,0,1-1.752-4.559v-.328a7.66,7.66,0,0,1,.738-3.416,5.418,5.418,0,0,1,2.092-2.32,5.871,5.871,0,0,1,3.088-.814,5.262,5.262,0,0,1,4.1,1.641,6.667,6.667,0,0,1,1.494,4.652v1.383h-8.074a3.146,3.146,0,0,0,.99,1.992A2.993,2.993,0,0,0-41.7-2.5a3.656,3.656,0,0,0,3.059-1.418l1.664,1.863A5.084,5.084,0,0,1-39.041-.369,6.767,6.767,0,0,1-41.924.234Zm-.387-10.418a2.116,2.116,0,0,0-1.635.683,3.535,3.535,0,0,0-.8,1.954h4.711v-.271a2.521,2.521,0,0,0-.609-1.748A2.183,2.183,0,0,0-42.311-10.184Zm10.641-2.5.105,1.465a4.427,4.427,0,0,1,3.645-1.7,3.679,3.679,0,0,1,3,1.184,5.522,5.522,0,0,1,1.008,3.539V0H-27.3V-8.128A2.206,2.206,0,0,0-27.768-9.7a2.1,2.1,0,0,0-1.559-.487,2.329,2.329,0,0,0-2.145,1.221V0h-3.387V-12.68ZM-15.51.234a6.225,6.225,0,0,1-4.541-1.711A6.082,6.082,0,0,1-21.8-6.035v-.328a7.66,7.66,0,0,1,.738-3.416,5.418,5.418,0,0,1,2.092-2.32,5.871,5.871,0,0,1,3.088-.814,5.262,5.262,0,0,1,4.1,1.641,6.667,6.667,0,0,1,1.494,4.652v1.383h-8.074a3.146,3.146,0,0,0,.99,1.992,2.993,2.993,0,0,0,2.092.75,3.656,3.656,0,0,0,3.059-1.418l1.664,1.863A5.084,5.084,0,0,1-12.627-.369,6.767,6.767,0,0,1-15.51.234ZM-15.9-10.184a2.116,2.116,0,0,0-1.635.683,3.535,3.535,0,0,0-.8,1.954h4.711v-.271a2.521,2.521,0,0,0-.609-1.748A2.183,2.183,0,0,0-15.9-10.184Zm14.648.68A9.2,9.2,0,0,0-2.467-9.6a2.481,2.481,0,0,0-2.52,1.3V0H-8.373V-12.68h3.2l.094,1.512a3.138,3.138,0,0,1,2.824-1.746,3.549,3.549,0,0,1,1.055.152ZM10.1-6.012V0H6.58V-17.062h6.656a7.7,7.7,0,0,1,3.381.7,5.181,5.181,0,0,1,2.244,2,5.571,5.571,0,0,1,.785,2.947A4.9,4.9,0,0,1,17.93-7.459a7.15,7.15,0,0,1-4.752,1.447Zm0-2.848h3.141a3.088,3.088,0,0,0,2.127-.656,2.387,2.387,0,0,0,.732-1.875,2.814,2.814,0,0,0-.738-2.027,2.758,2.758,0,0,0-2.039-.8H10.1ZM28.963-9.5A9.2,9.2,0,0,0,27.744-9.6a2.481,2.481,0,0,0-2.52,1.3V0H21.838V-12.68h3.2l.094,1.512a3.138,3.138,0,0,1,2.824-1.746,3.549,3.549,0,0,1,1.055.152ZM36.205.234a6.225,6.225,0,0,1-4.541-1.711,6.082,6.082,0,0,1-1.752-4.559v-.328a7.66,7.66,0,0,1,.738-3.416,5.418,5.418,0,0,1,2.092-2.32,5.871,5.871,0,0,1,3.088-.814,5.262,5.262,0,0,1,4.1,1.641A6.667,6.667,0,0,1,41.42-6.621v1.383H33.346a3.146,3.146,0,0,0,.99,1.992,2.993,2.993,0,0,0,2.092.75,3.656,3.656,0,0,0,3.059-1.418L41.15-2.051A5.084,5.084,0,0,1,39.088-.369,6.767,6.767,0,0,1,36.205.234Zm-.387-10.418a2.116,2.116,0,0,0-1.635.683,3.535,3.535,0,0,0-.8,1.954h4.711v-.271a2.521,2.521,0,0,0-.609-1.748A2.183,2.183,0,0,0,35.818-10.184ZM48.615-2.5a2.221,2.221,0,0,0,1.523-.516,1.807,1.807,0,0,0,.609-1.371h3.176a4.344,4.344,0,0,1-.7,2.361A4.64,4.64,0,0,1,51.328-.357a5.923,5.923,0,0,1-2.654.592,5.5,5.5,0,0,1-4.289-1.729,6.84,6.84,0,0,1-1.57-4.775v-.223a6.762,6.762,0,0,1,1.559-4.676,5.441,5.441,0,0,1,4.277-1.746,5.333,5.333,0,0,1,3.814,1.354,4.792,4.792,0,0,1,1.459,3.6H50.748a2.327,2.327,0,0,0-.609-1.608,2.032,2.032,0,0,0-1.547-.619,2.04,2.04,0,0,0-1.787.863,5,5,0,0,0-.6,2.8v.352a5.063,5.063,0,0,0,.6,2.817A2.065,2.065,0,0,0,48.615-2.5ZM59.432,0h-3.4V-12.68h3.4Zm-3.6-15.961a1.668,1.668,0,0,1,.51-1.254,1.915,1.915,0,0,1,1.389-.492,1.919,1.919,0,0,1,1.383.492,1.658,1.658,0,0,1,.516,1.254,1.663,1.663,0,0,1-.521,1.266,1.924,1.924,0,0,1-1.377.492,1.924,1.924,0,0,1-1.377-.492A1.663,1.663,0,0,1,55.834-15.961Zm5.859,9.5A7.52,7.52,0,0,1,62.42-9.82a5.319,5.319,0,0,1,2.092-2.285,6.1,6.1,0,0,1,3.17-.809,5.774,5.774,0,0,1,4.189,1.57,6.3,6.3,0,0,1,1.811,4.266l.023.867a6.627,6.627,0,0,1-1.629,4.682A5.662,5.662,0,0,1,67.705.234a5.69,5.69,0,0,1-4.377-1.758A6.744,6.744,0,0,1,61.693-6.3Zm3.387.24a4.74,4.74,0,0,0,.68,2.764,2.242,2.242,0,0,0,1.945.957,2.247,2.247,0,0,0,1.922-.945,5.186,5.186,0,0,0,.691-3.022,4.692,4.692,0,0,0-.691-2.746,2.248,2.248,0,0,0-1.945-.974,2.211,2.211,0,0,0-1.922.968A5.274,5.274,0,0,0,65.08-6.217Zm16.84-.721a17.984,17.984,0,0,1,.715-5.109,13.483,13.483,0,0,1,2.109-4.295,7.876,7.876,0,0,1,3.023-2.6l.656,1.828A8.157,8.157,0,0,0,85.752-13.2a18.123,18.123,0,0,0-.961,6.188v.363A18.469,18.469,0,0,0,85.74-.434a8.316,8.316,0,0,0,2.684,3.973l-.656,1.793A7.879,7.879,0,0,1,84.8,2.807a13.258,13.258,0,0,1-2.1-4.178,17.877,17.877,0,0,1-.773-4.945Zm14.109.27a17.066,17.066,0,0,1-.762,5.1,13.838,13.838,0,0,1-2.191,4.324,7.9,7.9,0,0,1-3.059,2.578l-.656-1.793A8.24,8.24,0,0,0,91.986-.328a17.908,17.908,0,0,0,1-6.012v-.621a18.313,18.313,0,0,0-.955-6.176,8.59,8.59,0,0,0-2.666-4.008l.656-1.793a7.9,7.9,0,0,1,3.006,2.508,13.659,13.659,0,0,1,2.191,4.23,16.944,16.944,0,0,1,.814,5ZM-79.348,24.449h4.23v3.059h-4.23v4.781H-82.57V27.508h-4.242V24.449h4.242V19.867h3.223ZM-67.8,31.5a2.221,2.221,0,0,0,1.523-.516,1.807,1.807,0,0,0,.609-1.371H-62.5a4.344,4.344,0,0,1-.7,2.361,4.64,4.64,0,0,1-1.893,1.664,5.923,5.923,0,0,1-2.654.592,5.5,5.5,0,0,1-4.289-1.729,6.84,6.84,0,0,1-1.57-4.775v-.223a6.762,6.762,0,0,1,1.559-4.676,5.441,5.441,0,0,1,4.277-1.746,5.333,5.333,0,0,1,3.814,1.354,4.792,4.792,0,0,1,1.459,3.6h-3.176a2.327,2.327,0,0,0-.609-1.608,2.032,2.032,0,0,0-1.547-.619,2.04,2.04,0,0,0-1.787.863,5,5,0,0,0-.6,2.8v.352a5.063,5.063,0,0,0,.6,2.817A2.065,2.065,0,0,0-67.8,31.5Zm14.59,2.5a3.761,3.761,0,0,1-.34-1.137,4.1,4.1,0,0,1-3.2,1.371,4.5,4.5,0,0,1-3.088-1.078,3.467,3.467,0,0,1-1.225-2.719,3.583,3.583,0,0,1,1.494-3.094,7.373,7.373,0,0,1,4.318-1.09H-53.7v-.727a2.089,2.089,0,0,0-.451-1.406,1.775,1.775,0,0,0-1.424-.527,2.018,2.018,0,0,0-1.342.41,1.393,1.393,0,0,0-.486,1.125h-3.387a3.4,3.4,0,0,1,.68-2.039,4.493,4.493,0,0,1,1.922-1.471,7,7,0,0,1,2.789-.533,5.534,5.534,0,0,1,3.721,1.178A4.12,4.12,0,0,1-50.3,25.574v5.5a6.062,6.062,0,0,0,.5,2.73V34Zm-2.8-2.355a2.917,2.917,0,0,0,1.383-.334,2.194,2.194,0,0,0,.938-.9v-2.18h-1.266q-2.543,0-2.707,1.758l-.012.2a1.356,1.356,0,0,0,.445,1.043A1.73,1.73,0,0,0-56.016,31.645ZM-44.121,34h-3.4V16h3.4Zm8.063-2.5a2.221,2.221,0,0,0,1.523-.516,1.807,1.807,0,0,0,.609-1.371h3.176a4.344,4.344,0,0,1-.7,2.361,4.64,4.64,0,0,1-1.893,1.664A5.923,5.923,0,0,1-36,34.234a5.5,5.5,0,0,1-4.289-1.729,6.84,6.84,0,0,1-1.57-4.775v-.223A6.762,6.762,0,0,1-40.3,22.832a5.441,5.441,0,0,1,4.277-1.746,5.333,5.333,0,0,1,3.814,1.354,4.792,4.792,0,0,1,1.459,3.6h-3.176a2.327,2.327,0,0,0-.609-1.608,2.032,2.032,0,0,0-1.547-.619,2.04,2.04,0,0,0-1.787.863,5,5,0,0,0-.6,2.8v.352a5.063,5.063,0,0,0,.6,2.817A2.065,2.065,0,0,0-36.059,31.5Zm14.836,1.207a4.247,4.247,0,0,1-3.469,1.523A4.005,4.005,0,0,1-27.8,33.063a5,5,0,0,1-1.1-3.434V21.32h3.387v8.2q0,1.983,1.8,1.983a2.445,2.445,0,0,0,2.367-1.2V21.32h3.4V34h-3.187ZM-11.812,34h-3.4V16h3.4Zm10.137,0a3.761,3.761,0,0,1-.34-1.137,4.1,4.1,0,0,1-3.2,1.371A4.5,4.5,0,0,1-8.3,33.156a3.467,3.467,0,0,1-1.225-2.719,3.583,3.583,0,0,1,1.494-3.094,7.373,7.373,0,0,1,4.318-1.09h1.559v-.727a2.089,2.089,0,0,0-.451-1.406,1.775,1.775,0,0,0-1.424-.527A2.018,2.018,0,0,0-5.373,24a1.393,1.393,0,0,0-.486,1.125H-9.246a3.4,3.4,0,0,1,.68-2.039,4.493,4.493,0,0,1,1.922-1.471,7,7,0,0,1,2.789-.533A5.534,5.534,0,0,1-.135,22.264a4.12,4.12,0,0,1,1.377,3.311v5.5a6.062,6.062,0,0,0,.5,2.73V34Zm-2.8-2.355a2.917,2.917,0,0,0,1.383-.334,2.194,2.194,0,0,0,.938-.9v-2.18H-3.422q-2.543,0-2.707,1.758l-.012.2A1.356,1.356,0,0,0-5.7,31.234,1.73,1.73,0,0,0-4.477,31.645ZM10.969,24.5A9.2,9.2,0,0,0,9.75,24.4a2.481,2.481,0,0,0-2.52,1.3V34H3.844V21.32h3.2l.094,1.512a3.138,3.138,0,0,1,2.824-1.746,3.549,3.549,0,0,1,1.055.152Zm14.7-4.711H20.438V34H16.922V19.785H11.766V16.938h13.9ZM24.48,27.543a7.52,7.52,0,0,1,.727-3.363A5.319,5.319,0,0,1,27.3,21.895a6.1,6.1,0,0,1,3.17-.809,5.774,5.774,0,0,1,4.189,1.57,6.3,6.3,0,0,1,1.811,4.266l.023.867a6.627,6.627,0,0,1-1.629,4.682,5.662,5.662,0,0,1-4.371,1.764,5.69,5.69,0,0,1-4.377-1.758A6.744,6.744,0,0,1,24.48,27.7Zm3.387.24a4.74,4.74,0,0,0,.68,2.764,2.442,2.442,0,0,0,3.867.012,5.186,5.186,0,0,0,.691-3.022,4.692,4.692,0,0,0-.691-2.746,2.248,2.248,0,0,0-1.945-.974,2.211,2.211,0,0,0-1.922.968A5.274,5.274,0,0,0,27.867,27.783ZM42.633,18.2V21.32H44.8V23.8H42.633v6.328a1.511,1.511,0,0,0,.27,1.008,1.354,1.354,0,0,0,1.031.3,5.4,5.4,0,0,0,1-.082V33.93a6.972,6.972,0,0,1-2.051.3q-3.562,0-3.633-3.6V23.8H37.395V21.32h1.852V18.2ZM54.035,34a3.761,3.761,0,0,1-.34-1.137,4.1,4.1,0,0,1-3.2,1.371,4.5,4.5,0,0,1-3.088-1.078,3.467,3.467,0,0,1-1.225-2.719,3.583,3.583,0,0,1,1.494-3.094A7.373,7.373,0,0,1,52,26.254h1.559v-.727a2.089,2.089,0,0,0-.451-1.406,1.775,1.775,0,0,0-1.424-.527,2.018,2.018,0,0,0-1.342.41,1.393,1.393,0,0,0-.486,1.125H46.465a3.4,3.4,0,0,1,.68-2.039,4.493,4.493,0,0,1,1.922-1.471,7,7,0,0,1,2.789-.533,5.534,5.534,0,0,1,3.721,1.178,4.12,4.12,0,0,1,1.377,3.311v5.5a6.062,6.062,0,0,0,.5,2.73V34Zm-2.8-2.355a2.917,2.917,0,0,0,1.383-.334,2.194,2.194,0,0,0,.938-.9v-2.18H52.289q-2.543,0-2.707,1.758l-.012.2a1.356,1.356,0,0,0,.445,1.043A1.73,1.73,0,0,0,51.234,31.645ZM63.129,34h-3.4V16h3.4Zm8.918-6.937a17.984,17.984,0,0,1,.715-5.109,13.483,13.483,0,0,1,2.109-4.295,7.876,7.876,0,0,1,3.023-2.6l.656,1.828A8.157,8.157,0,0,0,75.879,20.8a18.123,18.123,0,0,0-.961,6.188v.363a18.469,18.469,0,0,0,.949,6.211,8.316,8.316,0,0,0,2.684,3.973l-.656,1.793a7.879,7.879,0,0,1-2.971-2.525,13.258,13.258,0,0,1-2.1-4.178,17.877,17.877,0,0,1-.773-4.945Zm14.109.27a17.066,17.066,0,0,1-.762,5.1A13.838,13.838,0,0,1,83.2,36.754a7.9,7.9,0,0,1-3.059,2.578l-.656-1.793a8.24,8.24,0,0,0,2.625-3.867,17.908,17.908,0,0,0,1-6.012v-.621a18.313,18.313,0,0,0-.955-6.176,8.59,8.59,0,0,0-2.666-4.008l.656-1.793A7.9,7.9,0,0,1,83.15,17.57a13.659,13.659,0,0,1,2.191,4.23,16.944,16.944,0,0,1,.814,5Z" transform="translate(800 3664)" fill="#00104e"/>
    <path id="Trazado_142010" data-name="Trazado 142010" d="M0,0H610" transform="translate(495 3627)" fill="none" stroke="#fc9c25" stroke-width="1"/>
  </g>
</svg>
