<svg xmlns="http://www.w3.org/2000/svg" width="925" height="578" viewBox="0 0 925 578">
  <g id="Grupo_82654" data-name="Grupo 82654" transform="translate(-390 -11675.157)">
    <path id="Trazado_142855" data-name="Trazado 142855" d="M0,0H310.945V39H0Z" transform="translate(652.697 11675.157)" fill="#ffa726"/>
    <path id="Trazado_142854" data-name="Trazado 142854" d="M0,0H310.945V43.5H0Z" transform="translate(652.697 11714.157)" fill="#fff6db"/>
    <path id="Trazado_142848" data-name="Trazado 142848" d="M0,0H310.945V49.5H0Z" transform="translate(652.697 11757.657)" fill="#ffedb7"/>
    <path id="Trazado_142856" data-name="Trazado 142856" d="M-34.648-5.26V0h-3.076V-14.93H-31.9a6.738,6.738,0,0,1,2.958.615,4.534,4.534,0,0,1,1.964,1.748,4.875,4.875,0,0,1,.687,2.579,4.287,4.287,0,0,1-1.5,3.461A6.257,6.257,0,0,1-31.951-5.26Zm0-2.492H-31.9a2.7,2.7,0,0,0,1.861-.574A2.088,2.088,0,0,0-29.4-9.967a2.463,2.463,0,0,0-.646-1.774,2.413,2.413,0,0,0-1.784-.7h-2.82ZM-19.4.205a5.447,5.447,0,0,1-3.973-1.5,5.321,5.321,0,0,1-1.533-3.989v-.287a6.7,6.7,0,0,1,.646-2.989,4.741,4.741,0,0,1,1.83-2.03,5.137,5.137,0,0,1,2.7-.713,4.6,4.6,0,0,1,3.584,1.436,5.833,5.833,0,0,1,1.307,4.071v1.21H-21.9a2.753,2.753,0,0,0,.866,1.743,2.619,2.619,0,0,0,1.83.656,3.2,3.2,0,0,0,2.676-1.241l1.456,1.63a4.449,4.449,0,0,1-1.8,1.471A5.921,5.921,0,0,1-19.4.205Zm-.338-9.116a1.852,1.852,0,0,0-1.43.6,3.093,3.093,0,0,0-.7,1.71h4.122V-6.84a2.206,2.206,0,0,0-.533-1.529A1.91,1.91,0,0,0-19.739-8.911Zm12.817.595A8.051,8.051,0,0,0-7.988-8.4a2.171,2.171,0,0,0-2.2,1.138V0h-2.963V-11.095h2.8l.082,1.323A2.746,2.746,0,0,1-7.8-11.3a3.105,3.105,0,0,1,.923.133ZM.513-3.066a.955.955,0,0,0-.538-.856,6.115,6.115,0,0,0-1.728-.559q-3.958-.831-3.958-3.363A3.049,3.049,0,0,1-4.486-10.31a4.943,4.943,0,0,1,3.2-.99,5.32,5.32,0,0,1,3.379.995A3.135,3.135,0,0,1,3.363-7.721H.4A1.434,1.434,0,0,0-.01-8.772a1.736,1.736,0,0,0-1.282-.415,1.774,1.774,0,0,0-1.159.338,1.068,1.068,0,0,0-.41.861.913.913,0,0,0,.467.795A4.8,4.8,0,0,0-.82-6.67a12.856,12.856,0,0,1,1.866.5A3.066,3.066,0,0,1,3.394-3.189a2.894,2.894,0,0,1-1.3,2.456A5.618,5.618,0,0,1-1.271.205a5.867,5.867,0,0,1-2.476-.5,4.155,4.155,0,0,1-1.7-1.364A3.169,3.169,0,0,1-6.06-3.527h2.81a1.547,1.547,0,0,0,.584,1.21A2.318,2.318,0,0,0-1.21-1.9,2.146,2.146,0,0,0,.077-2.22,1,1,0,0,0,.513-3.066ZM4.84-5.65a6.58,6.58,0,0,1,.636-2.943,4.654,4.654,0,0,1,1.83-2A5.34,5.34,0,0,1,10.08-11.3a5.052,5.052,0,0,1,3.666,1.374A5.515,5.515,0,0,1,15.33-6.193l.021.759a5.8,5.8,0,0,1-1.425,4.1A4.954,4.954,0,0,1,10.1.205,4.979,4.979,0,0,1,6.27-1.333,5.9,5.9,0,0,1,4.84-5.517ZM7.8-5.44A4.147,4.147,0,0,0,8.4-3.021a1.962,1.962,0,0,0,1.7.837,1.966,1.966,0,0,0,1.682-.827,4.538,4.538,0,0,0,.6-2.644,4.106,4.106,0,0,0-.6-2.4,1.967,1.967,0,0,0-1.7-.852A1.934,1.934,0,0,0,8.4-8.063,4.614,4.614,0,0,0,7.8-5.44Zm12.1-5.655L20-9.813A3.874,3.874,0,0,1,23.184-11.3a3.219,3.219,0,0,1,2.625,1.036,4.832,4.832,0,0,1,.882,3.1V0H23.728V-7.112a1.93,1.93,0,0,0-.41-1.372,1.833,1.833,0,0,0-1.364-.426,2.038,2.038,0,0,0-1.876,1.069V0H17.114V-11.095ZM35.366,0a3.291,3.291,0,0,1-.3-.995,3.586,3.586,0,0,1-2.8,1.2,3.939,3.939,0,0,1-2.7-.943A3.034,3.034,0,0,1,28.5-3.117,3.135,3.135,0,0,1,29.8-5.824a6.451,6.451,0,0,1,3.779-.954h1.364v-.636a1.828,1.828,0,0,0-.395-1.23A1.553,1.553,0,0,0,33.3-9.105a1.766,1.766,0,0,0-1.174.359,1.219,1.219,0,0,0-.426.984H28.742a2.977,2.977,0,0,1,.595-1.784,3.931,3.931,0,0,1,1.682-1.287,6.129,6.129,0,0,1,2.44-.467,4.842,4.842,0,0,1,3.256,1.031,3.605,3.605,0,0,1,1.2,2.9v4.809A5.3,5.3,0,0,0,38.36-.174V0ZM32.915-2.061a2.552,2.552,0,0,0,1.21-.292,1.919,1.919,0,0,0,.82-.784V-5.045H33.838q-2.225,0-2.369,1.538l-.01.174a1.186,1.186,0,0,0,.39.913A1.514,1.514,0,0,0,32.915-2.061Z" transform="translate(807.697 11700.157)" fill="#fff"/>
    <path id="Trazado_142850" data-name="Trazado 142850" d="M-36.133-6.367h2.82v2.039h-2.82v3.188h-2.148V-4.328h-2.828V-6.367h2.828V-9.422h2.148ZM-27.422,0V-6.8H-28.68V-8.453h1.258v-.391a3.17,3.17,0,0,1,.98-2.457,3.945,3.945,0,0,1,2.723-.863,9.031,9.031,0,0,1,2.563.461l-.328,1.867a10,10,0,0,0-1.187-.293,5.835,5.835,0,0,0-.906-.066q-1.578,0-1.578,1.4v.344h1.664V-6.8h-1.664V0Zm7.32,0h-2.266V-8.453H-20.1Zm5.758.156A4.15,4.15,0,0,1-17.371-.984a4.054,4.054,0,0,1-1.168-3.039v-.219a5.106,5.106,0,0,1,.492-2.277,3.612,3.612,0,0,1,1.395-1.547,3.914,3.914,0,0,1,2.059-.543,3.508,3.508,0,0,1,2.73,1.094,4.444,4.444,0,0,1,1,3.1v.922H-16.25a2.1,2.1,0,0,0,.66,1.328,2,2,0,0,0,1.395.5,2.437,2.437,0,0,0,2.039-.945l1.109,1.242A3.389,3.389,0,0,1-12.422-.246,4.511,4.511,0,0,1-14.344.156ZM-14.6-6.789a1.411,1.411,0,0,0-1.09.455,2.357,2.357,0,0,0-.535,1.3h3.141v-.181a1.681,1.681,0,0,0-.406-1.165A1.456,1.456,0,0,0-14.6-6.789ZM-7.2,0H-9.469V-12H-7.2ZM-5.7-4.289a5.094,5.094,0,0,1,.887-3.148A2.877,2.877,0,0,1-2.383-8.609a2.589,2.589,0,0,1,2.039.922V-12H1.922V0H-.117L-.227-.9A2.657,2.657,0,0,1-2.4.156,2.869,2.869,0,0,1-4.793-1.02,5.258,5.258,0,0,1-5.7-4.289Zm2.258.161A3.355,3.355,0,0,0-3.023-2.3a1.348,1.348,0,0,0,1.2.636A1.51,1.51,0,0,0-.344-2.551V-5.9A1.489,1.489,0,0,0-1.8-6.789Q-3.438-6.789-3.437-4.128ZM3.781-1.109a1.137,1.137,0,0,1,.363-.875,1.289,1.289,0,0,1,.91-.336,1.3,1.3,0,0,1,.918.336,1.137,1.137,0,0,1,.363.875,1.121,1.121,0,0,1-.359.863,1.305,1.305,0,0,1-.922.332,1.294,1.294,0,0,1-.914-.332A1.121,1.121,0,0,1,3.781-1.109Zm0-6.4a1.137,1.137,0,0,1,.363-.875,1.289,1.289,0,0,1,.91-.336,1.3,1.3,0,0,1,.918.336,1.137,1.137,0,0,1,.363.875,1.121,1.121,0,0,1-.359.863,1.305,1.305,0,0,1-.922.332,1.294,1.294,0,0,1-.914-.332A1.121,1.121,0,0,1,3.781-7.508ZM14.359-10.5v2.047h1.578v1.117H14.359v5.249a1.173,1.173,0,0,0,.211.763.888.888,0,0,0,.719.254,3.5,3.5,0,0,0,.688-.094V0a4.215,4.215,0,0,1-1.109.155A1.8,1.8,0,0,1,13.406-.43a2.517,2.517,0,0,1-.492-1.664V-7.336H11.375V-8.453h1.539V-10.5Zm6.031,8.383,1.969-6.336h1.547L20.508,1.3Q19.719,3.414,18,3.414l-.273-.023-.539-.1V2.117l.391.031a1.923,1.923,0,0,0,1.145-.3A2.148,2.148,0,0,0,19.4.766l.32-.859L16.7-8.453h1.578ZM32.336-4.133a5.062,5.062,0,0,1-.883,3.109A2.829,2.829,0,0,1,29.063.156,3.1,3.1,0,0,1,26.641-.82V3.25H25.2v-11.7h1.32l.07.938a2.977,2.977,0,0,1,2.453-1.094,2.882,2.882,0,0,1,2.41,1.148,5.117,5.117,0,0,1,.887,3.2ZM30.891-4.3a3.735,3.735,0,0,0-.609-2.258,1.963,1.963,0,0,0-1.672-.828,2.125,2.125,0,0,0-1.969,1.164V-2.18a2.129,2.129,0,0,0,1.984,1.156,1.954,1.954,0,0,0,1.652-.824A4.077,4.077,0,0,0,30.891-4.3ZM37.68.156a3.693,3.693,0,0,1-2.8-1.129A4.19,4.19,0,0,1,33.8-3.992v-.266a5.073,5.073,0,0,1,.48-2.246,3.748,3.748,0,0,1,1.344-1.547A3.378,3.378,0,0,1,37.5-8.609a3.166,3.166,0,0,1,2.563,1.086,4.7,4.7,0,0,1,.914,3.109v.6H35.25a3,3,0,0,0,.73,2.02,2.3,2.3,0,0,0,1.777.77,2.517,2.517,0,0,0,1.3-.312,3.259,3.259,0,0,0,.93-.828l.883.688A3.55,3.55,0,0,1,37.68.156ZM37.5-7.422a1.928,1.928,0,0,0-1.469.637A3.1,3.1,0,0,0,35.3-5h4.234v-.109a2.753,2.753,0,0,0-.594-1.707A1.815,1.815,0,0,0,37.5-7.422ZM-51.41,37.633h2.82v2.039h-2.82v3.188h-2.148V39.672h-2.828V37.633h2.828V34.578h2.148Zm10.281-2.086.07.945a2.971,2.971,0,0,1,2.43-1.1,2.255,2.255,0,0,1,2.242,1.289,2.9,2.9,0,0,1,2.539-1.289,2.521,2.521,0,0,1,2.047.8,3.681,3.681,0,0,1,.672,2.41V44h-2.266V38.6a1.616,1.616,0,0,0-.281-1.053,1.245,1.245,0,0,0-.992-.333,1.409,1.409,0,0,0-1.406.971L-36.066,44h-2.258V38.6a1.6,1.6,0,0,0-.289-1.065,1.257,1.257,0,0,0-.984-.329,1.463,1.463,0,0,0-1.391.8V44h-2.258V35.547ZM-25.5,44.156a4.15,4.15,0,0,1-3.027-1.141A4.054,4.054,0,0,1-29.7,39.977v-.219a5.106,5.106,0,0,1,.492-2.277,3.612,3.612,0,0,1,1.395-1.547,3.914,3.914,0,0,1,2.059-.543,3.508,3.508,0,0,1,2.73,1.094,4.444,4.444,0,0,1,1,3.1v.922H-27.41a2.1,2.1,0,0,0,.66,1.328,2,2,0,0,0,1.395.5,2.437,2.437,0,0,0,2.039-.945l1.109,1.242a3.389,3.389,0,0,1-1.375,1.121A4.511,4.511,0,0,1-25.5,44.156Zm-.258-6.945a1.411,1.411,0,0,0-1.09.455,2.357,2.357,0,0,0-.535,1.3h3.141v-.181a1.681,1.681,0,0,0-.406-1.165A1.456,1.456,0,0,0-25.762,37.211Zm7.719-3.742v2.078H-16.6V37.2h-1.445v4.219a1.007,1.007,0,0,0,.18.672.9.9,0,0,0,.688.2,3.6,3.6,0,0,0,.664-.055v1.711a4.648,4.648,0,0,1-1.367.2,2.156,2.156,0,0,1-2.422-2.4V37.2h-1.234V35.547H-20.3V33.469Zm4.906,3a2.818,2.818,0,0,1,2.258-1.078q2.75,0,2.789,3.2V44h-2.258V38.636a1.577,1.577,0,0,0-.312-1.077,1.338,1.338,0,0,0-1.039-.348,1.536,1.536,0,0,0-1.437.767V44h-2.258V32h2.258Zm6.4,3.227a5.013,5.013,0,0,1,.484-2.242A3.546,3.546,0,0,1-4.859,35.93a4.069,4.069,0,0,1,2.113-.539A3.849,3.849,0,0,1,.047,36.438a4.2,4.2,0,0,1,1.207,2.844l.016.578A4.418,4.418,0,0,1,.184,42.98,3.775,3.775,0,0,1-2.73,44.156a3.793,3.793,0,0,1-2.918-1.172A4.5,4.5,0,0,1-6.738,39.8Zm2.258.16A3.16,3.16,0,0,0-4.027,41.7a1.5,1.5,0,0,0,1.3.638,1.5,1.5,0,0,0,1.281-.63,3.457,3.457,0,0,0,.461-2.015,3.128,3.128,0,0,0-.461-1.831,1.5,1.5,0,0,0-1.3-.649,1.474,1.474,0,0,0-1.281.646A3.516,3.516,0,0,0-4.48,39.856Zm6.789-.145A5.094,5.094,0,0,1,3.2,36.563a2.877,2.877,0,0,1,2.426-1.172,2.589,2.589,0,0,1,2.039.922V32H9.926V44H7.887l-.109-.9a2.657,2.657,0,0,1-2.172,1.055A2.869,2.869,0,0,1,3.211,42.98,5.258,5.258,0,0,1,2.309,39.711Zm2.258.161A3.355,3.355,0,0,0,4.98,41.7a1.348,1.348,0,0,0,1.2.636,1.51,1.51,0,0,0,1.477-.887V38.1A1.489,1.489,0,0,0,6.2,37.211Q4.566,37.211,4.566,39.872Zm7.211-.5a11.99,11.99,0,0,1,.477-3.406,8.989,8.989,0,0,1,1.406-2.863,5.251,5.251,0,0,1,2.016-1.73l.438,1.219A5.438,5.438,0,0,0,14.332,35.2a12.082,12.082,0,0,0-.641,4.125v.242a12.313,12.313,0,0,0,.633,4.141,5.544,5.544,0,0,0,1.789,2.648l-.437,1.2a5.253,5.253,0,0,1-1.98-1.684,8.838,8.838,0,0,1-1.4-2.785,11.918,11.918,0,0,1-.516-3.3Zm9.406.18a11.377,11.377,0,0,1-.508,3.4,9.225,9.225,0,0,1-1.461,2.883,5.264,5.264,0,0,1-2.039,1.719l-.437-1.2a5.494,5.494,0,0,0,1.75-2.578,11.939,11.939,0,0,0,.664-4.008v-.414a12.208,12.208,0,0,0-.637-4.117,5.727,5.727,0,0,0-1.777-2.672l.438-1.2a5.265,5.265,0,0,1,2,1.672,9.106,9.106,0,0,1,1.461,2.82,11.3,11.3,0,0,1,.543,3.336Zm1.859,3.336a1.137,1.137,0,0,1,.363-.875,1.412,1.412,0,0,1,1.828,0,1.137,1.137,0,0,1,.363.875,1.121,1.121,0,0,1-.359.863,1.435,1.435,0,0,1-1.836,0A1.121,1.121,0,0,1,23.043,42.891Zm0-6.4a1.137,1.137,0,0,1,.363-.875,1.412,1.412,0,0,1,1.828,0,1.137,1.137,0,0,1,.363.875,1.121,1.121,0,0,1-.359.863,1.435,1.435,0,0,1-1.836,0A1.121,1.121,0,0,1,23.043,36.492ZM33.621,33.5v2.047H35.2v1.117H33.621v5.249a1.173,1.173,0,0,0,.211.763.888.888,0,0,0,.719.254,3.5,3.5,0,0,0,.688-.094V44a4.215,4.215,0,0,1-1.109.155,1.8,1.8,0,0,1-1.461-.586,2.517,2.517,0,0,1-.492-1.664V36.664H30.637V35.547h1.539V33.5Zm6.031,8.383,1.969-6.336h1.547L39.77,45.3q-.789,2.109-2.508,2.109l-.273-.023-.539-.1V46.117l.391.031a1.923,1.923,0,0,0,1.145-.3,2.148,2.148,0,0,0,.676-1.086l.32-.859-3.016-8.359h1.578ZM51.6,39.867a5.062,5.062,0,0,1-.883,3.109,2.829,2.829,0,0,1-2.391,1.18A3.1,3.1,0,0,1,45.9,43.18v4.07H44.457v-11.7h1.32l.07.938A2.977,2.977,0,0,1,48.3,35.391a2.882,2.882,0,0,1,2.41,1.148,5.117,5.117,0,0,1,.887,3.2ZM50.152,39.7a3.735,3.735,0,0,0-.609-2.258,1.963,1.963,0,0,0-1.672-.828A2.125,2.125,0,0,0,45.9,37.781V41.82a2.129,2.129,0,0,0,1.984,1.156,1.954,1.954,0,0,0,1.652-.824A4.077,4.077,0,0,0,50.152,39.7Zm6.789,4.453a3.693,3.693,0,0,1-2.8-1.129,4.19,4.19,0,0,1-1.078-3.02v-.266a5.073,5.073,0,0,1,.48-2.246,3.748,3.748,0,0,1,1.344-1.547,3.378,3.378,0,0,1,1.871-.559,3.166,3.166,0,0,1,2.563,1.086,4.7,4.7,0,0,1,.914,3.109v.6H54.512a3,3,0,0,0,.73,2.02,2.3,2.3,0,0,0,1.777.77,2.517,2.517,0,0,0,1.3-.312,3.258,3.258,0,0,0,.93-.828l.883.688A3.55,3.55,0,0,1,56.941,44.156Zm-.18-7.578a1.928,1.928,0,0,0-1.469.637A3.1,3.1,0,0,0,54.559,39h4.234v-.109a2.753,2.753,0,0,0-.594-1.707A1.815,1.815,0,0,0,56.762,36.578Z" transform="translate(807.697 11741.157)" fill="#00104e"/>
    <path id="Trazado_142853" data-name="Trazado 142853" d="M0,0H310" transform="translate(653.197 11758.13)" fill="none" stroke="#fc9c25" stroke-width="1"/>
    <path id="Trazado_105622" data-name="Trazado 105622" d="M0,0H310.945V10H0Z" transform="translate(652.697 11807.157)" fill="#ffa726"/>
    <path id="Trazado_142828" data-name="Trazado 142828" d="M0,0H233V39H0Z" transform="translate(688 11877.157)" fill="#26a69a"/>
    <path id="Trazado_142841" data-name="Trazado 142841" d="M-20.467-12.438H-25.04V0h-3.076V-12.438h-4.512V-14.93h12.161Zm7.126,4.122A8.051,8.051,0,0,0-14.407-8.4a2.171,2.171,0,0,0-2.2,1.138V0h-2.963V-11.095h2.8l.082,1.323A2.746,2.746,0,0,1-14.222-11.3a3.105,3.105,0,0,1,.923.133Zm.595,2.666a6.58,6.58,0,0,1,.636-2.943,4.654,4.654,0,0,1,1.83-2A5.34,5.34,0,0,1-7.506-11.3,5.052,5.052,0,0,1-3.84-9.926,5.515,5.515,0,0,1-2.256-6.193l.021.759a5.8,5.8,0,0,1-1.425,4.1A4.954,4.954,0,0,1-7.485.205a4.979,4.979,0,0,1-3.83-1.538,5.9,5.9,0,0,1-1.43-4.184Zm2.963.21a4.147,4.147,0,0,0,.595,2.418,1.962,1.962,0,0,0,1.7.837A1.966,1.966,0,0,0-5.8-3.011a4.538,4.538,0,0,0,.6-2.644,4.106,4.106,0,0,0-.6-2.4,1.967,1.967,0,0,0-1.7-.852,1.934,1.934,0,0,0-1.682.847A4.614,4.614,0,0,0-9.782-5.44Zm12.1-5.655L2.41-9.813A3.874,3.874,0,0,1,5.6-11.3a3.219,3.219,0,0,1,2.625,1.036,4.832,4.832,0,0,1,.882,3.1V0H6.142V-7.112a1.93,1.93,0,0,0-.41-1.372,1.833,1.833,0,0,0-1.364-.426A2.038,2.038,0,0,0,2.492-7.842V0H-.472V-11.095ZM15.965-2.184A1.944,1.944,0,0,0,17.3-2.635a1.581,1.581,0,0,0,.533-1.2H20.61A3.8,3.8,0,0,1,20-1.769,4.06,4.06,0,0,1,18.339-.313a5.183,5.183,0,0,1-2.323.518,4.817,4.817,0,0,1-3.753-1.512A5.985,5.985,0,0,1,10.89-5.486v-.195a5.917,5.917,0,0,1,1.364-4.091A4.761,4.761,0,0,1,16-11.3a4.667,4.667,0,0,1,3.338,1.184A4.193,4.193,0,0,1,20.61-6.962H17.832A2.036,2.036,0,0,0,17.3-8.369a1.778,1.778,0,0,0-1.354-.541,1.785,1.785,0,0,0-1.564.755,4.374,4.374,0,0,0-.528,2.449V-5.4a4.43,4.43,0,0,0,.523,2.465A1.807,1.807,0,0,0,15.965-2.184ZM21.841-5.65a6.58,6.58,0,0,1,.636-2.943,4.654,4.654,0,0,1,1.83-2,5.34,5.34,0,0,1,2.774-.708,5.052,5.052,0,0,1,3.666,1.374,5.514,5.514,0,0,1,1.584,3.732l.021.759a5.8,5.8,0,0,1-1.425,4.1A4.954,4.954,0,0,1,27.1.205a4.979,4.979,0,0,1-3.83-1.538,5.9,5.9,0,0,1-1.43-4.184Zm2.963.21A4.147,4.147,0,0,0,25.4-3.021a1.962,1.962,0,0,0,1.7.837,1.966,1.966,0,0,0,1.682-.827,4.538,4.538,0,0,0,.6-2.644,4.106,4.106,0,0,0-.6-2.4,1.967,1.967,0,0,0-1.7-.852,1.934,1.934,0,0,0-1.682.847A4.614,4.614,0,0,0,24.8-5.44Z" transform="translate(805 11902.157)" fill="#fff"/>
    <path id="Trazado_142829" data-name="Trazado 142829" d="M0,0H233V39H0Z" transform="translate(976.5 11877.157)" fill="#26a69a"/>
    <path id="Trazado_142842" data-name="Trazado 142842" d="M-54.3-6.491h-5.906v4.02h6.932V0H-63.282V-14.93h9.987v2.492h-6.911V-8.88H-54.3Zm6.86-1.292,1.866-3.312h3.168L-45.563-5.66-42.272,0H-45.45l-1.979-3.486L-49.4,0h-3.189L-49.3-5.66l-3.148-5.435h3.179Zm10.008-6.04v2.728h1.9v2.174h-1.9v5.537A1.322,1.322,0,0,0-37.2-2.5a1.184,1.184,0,0,0,.9.267,4.726,4.726,0,0,0,.872-.072V-.062a6.1,6.1,0,0,1-1.794.267q-3.117,0-3.179-3.148V-8.921h-1.62v-2.174h1.62v-2.728Zm9.782,5.506A8.051,8.051,0,0,0-28.716-8.4a2.171,2.171,0,0,0-2.2,1.138V0h-2.963V-11.095h2.8L-31-9.772A2.746,2.746,0,0,1-28.531-11.3a3.105,3.105,0,0,1,.923.133ZM-21.313.205a5.447,5.447,0,0,1-3.973-1.5,5.321,5.321,0,0,1-1.533-3.989v-.287a6.7,6.7,0,0,1,.646-2.989,4.741,4.741,0,0,1,1.83-2.03,5.137,5.137,0,0,1,2.7-.713,4.6,4.6,0,0,1,3.584,1.436A5.833,5.833,0,0,1-16.75-5.793v1.21h-7.065a2.753,2.753,0,0,0,.866,1.743,2.619,2.619,0,0,0,1.83.656,3.2,3.2,0,0,0,2.676-1.241l1.456,1.63a4.449,4.449,0,0,1-1.8,1.471A5.921,5.921,0,0,1-21.313.205Zm-.338-9.116a1.852,1.852,0,0,0-1.43.6,3.093,3.093,0,0,0-.7,1.71h4.122V-6.84A2.206,2.206,0,0,0-20.2-8.37,1.91,1.91,0,0,0-21.651-8.911Zm9.362-2.184.092,1.241A3.9,3.9,0,0,1-9.008-11.3,2.959,2.959,0,0,1-6.065-9.608,3.809,3.809,0,0,1-2.733-11.3,3.309,3.309,0,0,1-.046-10.249,4.831,4.831,0,0,1,.836-7.085V0H-2.138V-7.092a2.121,2.121,0,0,0-.369-1.382,1.634,1.634,0,0,0-1.3-.437A1.85,1.85,0,0,0-5.655-7.636L-5.645,0H-8.608V-7.081a2.1,2.1,0,0,0-.379-1.4,1.65,1.65,0,0,0-1.292-.432A1.92,1.92,0,0,0-12.1-7.862V0h-2.963V-11.095ZM6.24,0H3.266V-11.095H6.24ZM3.092-13.966a1.459,1.459,0,0,1,.446-1.1,1.676,1.676,0,0,1,1.215-.431,1.679,1.679,0,0,1,1.21.431,1.451,1.451,0,0,1,.451,1.1,1.455,1.455,0,0,1-.456,1.107,1.684,1.684,0,0,1-1.2.431,1.684,1.684,0,0,1-1.2-.431A1.455,1.455,0,0,1,3.092-13.966ZM8.219-5.629A6.686,6.686,0,0,1,9.382-9.762,3.776,3.776,0,0,1,12.566-11.3a3.4,3.4,0,0,1,2.676,1.21v-5.66h2.974V0H15.54L15.4-1.179A3.487,3.487,0,0,1,12.546.205,3.766,3.766,0,0,1,9.4-1.338,6.9,6.9,0,0,1,8.219-5.629Zm2.963.211a4.4,4.4,0,0,0,.543,2.4,1.769,1.769,0,0,0,1.579.834,1.982,1.982,0,0,0,1.938-1.164v-4.4a1.954,1.954,0,0,0-1.917-1.164Q11.182-8.911,11.182-5.419ZM26.942,0a3.291,3.291,0,0,1-.3-.995,3.586,3.586,0,0,1-2.8,1.2,3.939,3.939,0,0,1-2.7-.943,3.034,3.034,0,0,1-1.072-2.379,3.135,3.135,0,0,1,1.307-2.707,6.451,6.451,0,0,1,3.779-.954h1.364v-.636a1.828,1.828,0,0,0-.395-1.23,1.553,1.553,0,0,0-1.246-.461,1.766,1.766,0,0,0-1.174.359,1.219,1.219,0,0,0-.426.984H20.318a2.977,2.977,0,0,1,.595-1.784,3.931,3.931,0,0,1,1.682-1.287,6.129,6.129,0,0,1,2.44-.467,4.842,4.842,0,0,1,3.256,1.031,3.605,3.605,0,0,1,1.2,2.9v4.809a5.3,5.3,0,0,0,.441,2.389V0ZM24.491-2.061a2.552,2.552,0,0,0,1.21-.292,1.919,1.919,0,0,0,.82-.784V-5.045H25.414q-2.225,0-2.369,1.538l-.01.174a1.186,1.186,0,0,0,.39.913A1.514,1.514,0,0,0,24.491-2.061ZM31.31-5.629a6.686,6.686,0,0,1,1.164-4.132A3.776,3.776,0,0,1,35.658-11.3a3.4,3.4,0,0,1,2.676,1.21v-5.66h2.974V0H38.632l-.144-1.179A3.487,3.487,0,0,1,35.637.205a3.766,3.766,0,0,1-3.143-1.543A6.9,6.9,0,0,1,31.31-5.629Zm2.963.211a4.4,4.4,0,0,0,.543,2.4,1.769,1.769,0,0,0,1.579.834,1.982,1.982,0,0,0,1.938-1.164v-4.4a1.954,1.954,0,0,0-1.917-1.164Q34.274-8.911,34.274-5.419ZM48.711.205a5.447,5.447,0,0,1-3.973-1.5A5.321,5.321,0,0,1,43.2-5.281v-.287a6.7,6.7,0,0,1,.646-2.989,4.741,4.741,0,0,1,1.83-2.03,5.137,5.137,0,0,1,2.7-.713,4.6,4.6,0,0,1,3.584,1.436,5.833,5.833,0,0,1,1.307,4.071v1.21H46.209a2.753,2.753,0,0,0,.866,1.743,2.619,2.619,0,0,0,1.83.656,3.2,3.2,0,0,0,2.676-1.241l1.456,1.63a4.449,4.449,0,0,1-1.8,1.471A5.921,5.921,0,0,1,48.711.205Zm-.338-9.116a1.852,1.852,0,0,0-1.43.6,3.093,3.093,0,0,0-.7,1.71h4.122V-6.84a2.206,2.206,0,0,0-.533-1.529A1.91,1.91,0,0,0,48.373-8.911ZM60.965-3.066a.955.955,0,0,0-.538-.856A6.115,6.115,0,0,0,58.7-4.481Q54.74-5.312,54.74-7.844a3.049,3.049,0,0,1,1.225-2.466,4.943,4.943,0,0,1,3.2-.99,5.32,5.32,0,0,1,3.379.995,3.135,3.135,0,0,1,1.266,2.584H60.852a1.434,1.434,0,0,0-.41-1.051,1.736,1.736,0,0,0-1.282-.415A1.774,1.774,0,0,0,58-8.849a1.068,1.068,0,0,0-.41.861.913.913,0,0,0,.467.795,4.8,4.8,0,0,0,1.574.523,12.856,12.856,0,0,1,1.866.5,3.066,3.066,0,0,1,2.348,2.984,2.894,2.894,0,0,1-1.3,2.456A5.618,5.618,0,0,1,59.18.205a5.867,5.867,0,0,1-2.476-.5,4.155,4.155,0,0,1-1.7-1.364,3.169,3.169,0,0,1-.615-1.871H57.2a1.547,1.547,0,0,0,.584,1.21,2.318,2.318,0,0,0,1.456.42,2.146,2.146,0,0,0,1.287-.323A1,1,0,0,0,60.965-3.066Z" transform="translate(1093.5 11902.157)" fill="#fff"/>
    <path id="Trazado_142843" data-name="Trazado 142843" d="M0,0H233V39H0Z" transform="translate(390 11877.157)" fill="#26a69a"/>
    <path id="Trazado_142851" data-name="Trazado 142851" d="M-22-4.973a5.283,5.283,0,0,1-1.779,3.794A6.248,6.248,0,0,1-28.014.205a5.618,5.618,0,0,1-4.517-1.933,7.925,7.925,0,0,1-1.646-5.306v-.913a8.95,8.95,0,0,1,.759-3.794,5.686,5.686,0,0,1,2.169-2.517,6.075,6.075,0,0,1,3.276-.877A6.087,6.087,0,0,1-23.81-13.75a5.677,5.677,0,0,1,1.825,3.886h-3.076a3.118,3.118,0,0,0-.8-2.1,2.981,2.981,0,0,0-2.107-.651,2.614,2.614,0,0,0-2.3,1.1,6.178,6.178,0,0,0-.784,3.42v1.128a6.612,6.612,0,0,0,.733,3.538,2.565,2.565,0,0,0,2.312,1.118,3.037,3.037,0,0,0,2.128-.651,2.941,2.941,0,0,0,.8-2.015ZM-13.75,0a3.291,3.291,0,0,1-.3-.995,3.586,3.586,0,0,1-2.8,1.2,3.939,3.939,0,0,1-2.7-.943,3.034,3.034,0,0,1-1.072-2.379,3.135,3.135,0,0,1,1.307-2.707,6.451,6.451,0,0,1,3.779-.954h1.364v-.636a1.828,1.828,0,0,0-.395-1.23,1.553,1.553,0,0,0-1.246-.461,1.766,1.766,0,0,0-1.174.359,1.219,1.219,0,0,0-.426.984h-2.963a2.977,2.977,0,0,1,.595-1.784A3.931,3.931,0,0,1-18.1-10.833a6.129,6.129,0,0,1,2.44-.467A4.842,4.842,0,0,1-12.4-10.269a3.605,3.605,0,0,1,1.2,2.9v4.809a5.3,5.3,0,0,0,.441,2.389V0ZM-16.2-2.061a2.552,2.552,0,0,0,1.21-.292,1.919,1.919,0,0,0,.82-.784V-5.045h-1.107q-2.225,0-2.369,1.538l-.01.174a1.186,1.186,0,0,0,.39.913A1.514,1.514,0,0,0-16.2-2.061ZM1.077-5.445A6.718,6.718,0,0,1-.062-1.287,3.77,3.77,0,0,1-3.24.205,3.464,3.464,0,0,1-6.122-1.179L-6.255,0H-8.921V-15.75h2.963v5.65a3.375,3.375,0,0,1,2.7-1.2A3.8,3.8,0,0,1-.077-9.808a6.728,6.728,0,0,1,1.154,4.2Zm-2.963-.226A4.438,4.438,0,0,0-2.42-8.134a1.8,1.8,0,0,0-1.589-.777A1.954,1.954,0,0,0-5.958-7.748v4.392A1.981,1.981,0,0,0-3.989-2.184,1.83,1.83,0,0,0-2.1-3.6,7.343,7.343,0,0,0-1.887-5.671ZM8.008.205a5.447,5.447,0,0,1-3.973-1.5A5.321,5.321,0,0,1,2.5-5.281v-.287a6.7,6.7,0,0,1,.646-2.989,4.741,4.741,0,0,1,1.83-2.03,5.137,5.137,0,0,1,2.7-.713,4.6,4.6,0,0,1,3.584,1.436,5.833,5.833,0,0,1,1.307,4.071v1.21H5.506A2.753,2.753,0,0,0,6.373-2.84a2.619,2.619,0,0,0,1.83.656,3.2,3.2,0,0,0,2.676-1.241l1.456,1.63a4.449,4.449,0,0,1-1.8,1.471A5.921,5.921,0,0,1,8.008.205ZM7.67-8.911a1.852,1.852,0,0,0-1.43.6,3.093,3.093,0,0,0-.7,1.71H9.659V-6.84A2.206,2.206,0,0,0,9.126-8.37,1.91,1.91,0,0,0,7.67-8.911Zm9.987,6.521h5.424V0H13.874V-1.8l5.219-6.9H14.027v-2.389h8.89v1.746ZM31.367,0a3.291,3.291,0,0,1-.3-.995,3.586,3.586,0,0,1-2.8,1.2,3.939,3.939,0,0,1-2.7-.943A3.034,3.034,0,0,1,24.5-3.117,3.135,3.135,0,0,1,25.8-5.824a6.451,6.451,0,0,1,3.779-.954h1.364v-.636a1.828,1.828,0,0,0-.395-1.23,1.553,1.553,0,0,0-1.246-.461,1.766,1.766,0,0,0-1.174.359,1.219,1.219,0,0,0-.426.984H24.743a2.977,2.977,0,0,1,.595-1.784,3.931,3.931,0,0,1,1.682-1.287,6.129,6.129,0,0,1,2.44-.467,4.842,4.842,0,0,1,3.256,1.031,3.605,3.605,0,0,1,1.2,2.9v4.809a5.3,5.3,0,0,0,.441,2.389V0ZM28.916-2.061a2.552,2.552,0,0,0,1.21-.292,1.919,1.919,0,0,0,.82-.784V-5.045H29.839q-2.225,0-2.369,1.538l-.01.174a1.186,1.186,0,0,0,.39.913A1.514,1.514,0,0,0,28.916-2.061Z" transform="translate(507 11902.157)" fill="#fff"/>
    <path id="Trazado_142844" data-name="Trazado 142844" d="M0,0V49.167" transform="translate(799.828 11880.657) rotate(180)" fill="none" stroke="#309d90" stroke-width="2"/>
    <g id="Grupo_82186" data-name="Grupo 82186" transform="translate(805.604 11833.18) rotate(180)">
      <path id="Trazado_140656" data-name="Trazado 140656" d="M732.718,1107.386l7.7,13.338,7.7-13.338-7.7-13.039Z" transform="translate(-734.647 -1107.424)" fill="#26a69a"/>
    </g>
    <path id="Trazado_140657" data-name="Trazado 140657" d="M9.792,158.179-147.466,351.713" transform="translate(446.146 11998.181) rotate(-135)" fill="none" stroke="#309d90" stroke-width="2"/>
    <path id="Trazado_140670" data-name="Trazado 140670" d="M157.257,193.534,0,0" transform="translate(801.045 11853.756) rotate(-45)" fill="none" stroke="#309d90" stroke-width="2"/>
    <path id="Trazado_142845" data-name="Trazado 142845" d="M0,0H233V10H0Z" transform="translate(390 12025.157)" fill="#26a69a"/>
    <path id="Trazado_142830" data-name="Trazado 142830" d="M0,0H233V10H0Z" transform="translate(688 12025.157)" fill="#26a69a"/>
    <path id="Trazado_142831" data-name="Trazado 142831" d="M0,0H233V10H0Z" transform="translate(976.5 12025.157)" fill="#26a69a"/>
    <path id="Trazado_142846" data-name="Trazado 142846" d="M0,0H233V52H0Z" transform="translate(390 11916.157)" fill="#e8e8e8"/>
    <path id="Trazado_142832" data-name="Trazado 142832" d="M0,0H233V52H0Z" transform="translate(688 11916.157)" fill="#e8e8e8"/>
    <path id="Trazado_142833" data-name="Trazado 142833" d="M0,0H233V52H0Z" transform="translate(976.5 11916.157)" fill="#e8e8e8"/>
    <path id="Trazado_142847" data-name="Trazado 142847" d="M0,0H233V57H0Z" transform="translate(390 11968.157)" fill="#afafaf" opacity="0.55"/>
    <path id="Trazado_142834" data-name="Trazado 142834" d="M0,0H233V57H0Z" transform="translate(688 11968.157)" fill="#afafaf" opacity="0.55"/>
    <path id="Trazado_142835" data-name="Trazado 142835" d="M0,0H233V57H0Z" transform="translate(976.5 11968.157)" fill="#afafaf" opacity="0.55"/>
    <path id="Trazado_142852" data-name="Trazado 142852" d="M-36.133-6.367h2.82v2.039h-2.82v3.188h-2.148V-4.328h-2.828V-6.367h2.828V-9.422h2.148ZM-27.422,0V-6.8H-28.68V-8.453h1.258v-.391a3.17,3.17,0,0,1,.98-2.457,3.945,3.945,0,0,1,2.723-.863,9.031,9.031,0,0,1,2.563.461l-.328,1.867a10,10,0,0,0-1.187-.293,5.835,5.835,0,0,0-.906-.066q-1.578,0-1.578,1.4v.344h1.664V-6.8h-1.664V0Zm7.32,0h-2.266V-8.453H-20.1Zm5.758.156A4.15,4.15,0,0,1-17.371-.984a4.054,4.054,0,0,1-1.168-3.039v-.219a5.106,5.106,0,0,1,.492-2.277,3.612,3.612,0,0,1,1.395-1.547,3.914,3.914,0,0,1,2.059-.543,3.508,3.508,0,0,1,2.73,1.094,4.444,4.444,0,0,1,1,3.1v.922H-16.25a2.1,2.1,0,0,0,.66,1.328,2,2,0,0,0,1.395.5,2.437,2.437,0,0,0,2.039-.945l1.109,1.242A3.389,3.389,0,0,1-12.422-.246,4.511,4.511,0,0,1-14.344.156ZM-14.6-6.789a1.411,1.411,0,0,0-1.09.455,2.357,2.357,0,0,0-.535,1.3h3.141v-.181a1.681,1.681,0,0,0-.406-1.165A1.456,1.456,0,0,0-14.6-6.789ZM-7.2,0H-9.469V-12H-7.2ZM-5.7-4.289a5.094,5.094,0,0,1,.887-3.148A2.877,2.877,0,0,1-2.383-8.609a2.589,2.589,0,0,1,2.039.922V-12H1.922V0H-.117L-.227-.9A2.657,2.657,0,0,1-2.4.156,2.869,2.869,0,0,1-4.793-1.02,5.258,5.258,0,0,1-5.7-4.289Zm2.258.161A3.355,3.355,0,0,0-3.023-2.3a1.348,1.348,0,0,0,1.2.636A1.51,1.51,0,0,0-.344-2.551V-5.9A1.489,1.489,0,0,0-1.8-6.789Q-3.438-6.789-3.437-4.128ZM3.781-1.109a1.137,1.137,0,0,1,.363-.875,1.289,1.289,0,0,1,.91-.336,1.3,1.3,0,0,1,.918.336,1.137,1.137,0,0,1,.363.875,1.121,1.121,0,0,1-.359.863,1.305,1.305,0,0,1-.922.332,1.294,1.294,0,0,1-.914-.332A1.121,1.121,0,0,1,3.781-1.109Zm0-6.4a1.137,1.137,0,0,1,.363-.875,1.289,1.289,0,0,1,.91-.336,1.3,1.3,0,0,1,.918.336,1.137,1.137,0,0,1,.363.875,1.121,1.121,0,0,1-.359.863,1.305,1.305,0,0,1-.922.332,1.294,1.294,0,0,1-.914-.332A1.121,1.121,0,0,1,3.781-7.508ZM14.359-10.5v2.047h1.578v1.117H14.359v5.249a1.173,1.173,0,0,0,.211.763.888.888,0,0,0,.719.254,3.5,3.5,0,0,0,.688-.094V0a4.215,4.215,0,0,1-1.109.155A1.8,1.8,0,0,1,13.406-.43a2.517,2.517,0,0,1-.492-1.664V-7.336H11.375V-8.453h1.539V-10.5Zm6.031,8.383,1.969-6.336h1.547L20.508,1.3Q19.719,3.414,18,3.414l-.273-.023-.539-.1V2.117l.391.031a1.923,1.923,0,0,0,1.145-.3A2.148,2.148,0,0,0,19.4.766l.32-.859L16.7-8.453h1.578ZM32.336-4.133a5.062,5.062,0,0,1-.883,3.109A2.829,2.829,0,0,1,29.063.156,3.1,3.1,0,0,1,26.641-.82V3.25H25.2v-11.7h1.32l.07.938a2.977,2.977,0,0,1,2.453-1.094,2.882,2.882,0,0,1,2.41,1.148,5.117,5.117,0,0,1,.887,3.2ZM30.891-4.3a3.735,3.735,0,0,0-.609-2.258,1.963,1.963,0,0,0-1.672-.828,2.125,2.125,0,0,0-1.969,1.164V-2.18a2.129,2.129,0,0,0,1.984,1.156,1.954,1.954,0,0,0,1.652-.824A4.077,4.077,0,0,0,30.891-4.3ZM37.68.156a3.693,3.693,0,0,1-2.8-1.129A4.19,4.19,0,0,1,33.8-3.992v-.266a5.073,5.073,0,0,1,.48-2.246,3.748,3.748,0,0,1,1.344-1.547A3.378,3.378,0,0,1,37.5-8.609a3.166,3.166,0,0,1,2.563,1.086,4.7,4.7,0,0,1,.914,3.109v.6H35.25a3,3,0,0,0,.73,2.02,2.3,2.3,0,0,0,1.777.77,2.517,2.517,0,0,0,1.3-.312,3.259,3.259,0,0,0,.93-.828l.883.688A3.55,3.55,0,0,1,37.68.156ZM37.5-7.422a1.928,1.928,0,0,0-1.469.637A3.1,3.1,0,0,0,35.3-5h4.234v-.109a2.753,2.753,0,0,0-.594-1.707A1.815,1.815,0,0,0,37.5-7.422Z" transform="translate(507 11947.657)" fill="#00104e"/>
    <path id="Trazado_142836" data-name="Trazado 142836" d="M-36.133-6.367h2.82v2.039h-2.82v3.188h-2.148V-4.328h-2.828V-6.367h2.828V-9.422h2.148ZM-27.422,0V-6.8H-28.68V-8.453h1.258v-.391a3.17,3.17,0,0,1,.98-2.457,3.945,3.945,0,0,1,2.723-.863,9.031,9.031,0,0,1,2.563.461l-.328,1.867a10,10,0,0,0-1.187-.293,5.835,5.835,0,0,0-.906-.066q-1.578,0-1.578,1.4v.344h1.664V-6.8h-1.664V0Zm7.32,0h-2.266V-8.453H-20.1Zm5.758.156A4.15,4.15,0,0,1-17.371-.984a4.054,4.054,0,0,1-1.168-3.039v-.219a5.106,5.106,0,0,1,.492-2.277,3.612,3.612,0,0,1,1.395-1.547,3.914,3.914,0,0,1,2.059-.543,3.508,3.508,0,0,1,2.73,1.094,4.444,4.444,0,0,1,1,3.1v.922H-16.25a2.1,2.1,0,0,0,.66,1.328,2,2,0,0,0,1.395.5,2.437,2.437,0,0,0,2.039-.945l1.109,1.242A3.389,3.389,0,0,1-12.422-.246,4.511,4.511,0,0,1-14.344.156ZM-14.6-6.789a1.411,1.411,0,0,0-1.09.455,2.357,2.357,0,0,0-.535,1.3h3.141v-.181a1.681,1.681,0,0,0-.406-1.165A1.456,1.456,0,0,0-14.6-6.789ZM-7.2,0H-9.469V-12H-7.2ZM-5.7-4.289a5.094,5.094,0,0,1,.887-3.148A2.877,2.877,0,0,1-2.383-8.609a2.589,2.589,0,0,1,2.039.922V-12H1.922V0H-.117L-.227-.9A2.657,2.657,0,0,1-2.4.156,2.869,2.869,0,0,1-4.793-1.02,5.258,5.258,0,0,1-5.7-4.289Zm2.258.161A3.355,3.355,0,0,0-3.023-2.3a1.348,1.348,0,0,0,1.2.636A1.51,1.51,0,0,0-.344-2.551V-5.9A1.489,1.489,0,0,0-1.8-6.789Q-3.438-6.789-3.437-4.128ZM3.781-1.109a1.137,1.137,0,0,1,.363-.875,1.289,1.289,0,0,1,.91-.336,1.3,1.3,0,0,1,.918.336,1.137,1.137,0,0,1,.363.875,1.121,1.121,0,0,1-.359.863,1.305,1.305,0,0,1-.922.332,1.294,1.294,0,0,1-.914-.332A1.121,1.121,0,0,1,3.781-1.109Zm0-6.4a1.137,1.137,0,0,1,.363-.875,1.289,1.289,0,0,1,.91-.336,1.3,1.3,0,0,1,.918.336,1.137,1.137,0,0,1,.363.875,1.121,1.121,0,0,1-.359.863,1.305,1.305,0,0,1-.922.332,1.294,1.294,0,0,1-.914-.332A1.121,1.121,0,0,1,3.781-7.508ZM14.359-10.5v2.047h1.578v1.117H14.359v5.249a1.173,1.173,0,0,0,.211.763.888.888,0,0,0,.719.254,3.5,3.5,0,0,0,.688-.094V0a4.215,4.215,0,0,1-1.109.155A1.8,1.8,0,0,1,13.406-.43a2.517,2.517,0,0,1-.492-1.664V-7.336H11.375V-8.453h1.539V-10.5Zm6.031,8.383,1.969-6.336h1.547L20.508,1.3Q19.719,3.414,18,3.414l-.273-.023-.539-.1V2.117l.391.031a1.923,1.923,0,0,0,1.145-.3A2.148,2.148,0,0,0,19.4.766l.32-.859L16.7-8.453h1.578ZM32.336-4.133a5.062,5.062,0,0,1-.883,3.109A2.829,2.829,0,0,1,29.063.156,3.1,3.1,0,0,1,26.641-.82V3.25H25.2v-11.7h1.32l.07.938a2.977,2.977,0,0,1,2.453-1.094,2.882,2.882,0,0,1,2.41,1.148,5.117,5.117,0,0,1,.887,3.2ZM30.891-4.3a3.735,3.735,0,0,0-.609-2.258,1.963,1.963,0,0,0-1.672-.828,2.125,2.125,0,0,0-1.969,1.164V-2.18a2.129,2.129,0,0,0,1.984,1.156,1.954,1.954,0,0,0,1.652-.824A4.077,4.077,0,0,0,30.891-4.3ZM37.68.156a3.693,3.693,0,0,1-2.8-1.129A4.19,4.19,0,0,1,33.8-3.992v-.266a5.073,5.073,0,0,1,.48-2.246,3.748,3.748,0,0,1,1.344-1.547A3.378,3.378,0,0,1,37.5-8.609a3.166,3.166,0,0,1,2.563,1.086,4.7,4.7,0,0,1,.914,3.109v.6H35.25a3,3,0,0,0,.73,2.02,2.3,2.3,0,0,0,1.777.77,2.517,2.517,0,0,0,1.3-.312,3.259,3.259,0,0,0,.93-.828l.883.688A3.55,3.55,0,0,1,37.68.156ZM37.5-7.422a1.928,1.928,0,0,0-1.469.637A3.1,3.1,0,0,0,35.3-5h4.234v-.109a2.753,2.753,0,0,0-.594-1.707A1.815,1.815,0,0,0,37.5-7.422Z" transform="translate(805 11947.657)" fill="#00104e"/>
    <path id="Trazado_142837" data-name="Trazado 142837" d="M-36.133-6.367h2.82v2.039h-2.82v3.188h-2.148V-4.328h-2.828V-6.367h2.828V-9.422h2.148ZM-27.422,0V-6.8H-28.68V-8.453h1.258v-.391a3.17,3.17,0,0,1,.98-2.457,3.945,3.945,0,0,1,2.723-.863,9.031,9.031,0,0,1,2.563.461l-.328,1.867a10,10,0,0,0-1.187-.293,5.835,5.835,0,0,0-.906-.066q-1.578,0-1.578,1.4v.344h1.664V-6.8h-1.664V0Zm7.32,0h-2.266V-8.453H-20.1Zm5.758.156A4.15,4.15,0,0,1-17.371-.984a4.054,4.054,0,0,1-1.168-3.039v-.219a5.106,5.106,0,0,1,.492-2.277,3.612,3.612,0,0,1,1.395-1.547,3.914,3.914,0,0,1,2.059-.543,3.508,3.508,0,0,1,2.73,1.094,4.444,4.444,0,0,1,1,3.1v.922H-16.25a2.1,2.1,0,0,0,.66,1.328,2,2,0,0,0,1.395.5,2.437,2.437,0,0,0,2.039-.945l1.109,1.242A3.389,3.389,0,0,1-12.422-.246,4.511,4.511,0,0,1-14.344.156ZM-14.6-6.789a1.411,1.411,0,0,0-1.09.455,2.357,2.357,0,0,0-.535,1.3h3.141v-.181a1.681,1.681,0,0,0-.406-1.165A1.456,1.456,0,0,0-14.6-6.789ZM-7.2,0H-9.469V-12H-7.2ZM-5.7-4.289a5.094,5.094,0,0,1,.887-3.148A2.877,2.877,0,0,1-2.383-8.609a2.589,2.589,0,0,1,2.039.922V-12H1.922V0H-.117L-.227-.9A2.657,2.657,0,0,1-2.4.156,2.869,2.869,0,0,1-4.793-1.02,5.258,5.258,0,0,1-5.7-4.289Zm2.258.161A3.355,3.355,0,0,0-3.023-2.3a1.348,1.348,0,0,0,1.2.636A1.51,1.51,0,0,0-.344-2.551V-5.9A1.489,1.489,0,0,0-1.8-6.789Q-3.438-6.789-3.437-4.128ZM3.781-1.109a1.137,1.137,0,0,1,.363-.875,1.289,1.289,0,0,1,.91-.336,1.3,1.3,0,0,1,.918.336,1.137,1.137,0,0,1,.363.875,1.121,1.121,0,0,1-.359.863,1.305,1.305,0,0,1-.922.332,1.294,1.294,0,0,1-.914-.332A1.121,1.121,0,0,1,3.781-1.109Zm0-6.4a1.137,1.137,0,0,1,.363-.875,1.289,1.289,0,0,1,.91-.336,1.3,1.3,0,0,1,.918.336,1.137,1.137,0,0,1,.363.875,1.121,1.121,0,0,1-.359.863,1.305,1.305,0,0,1-.922.332,1.294,1.294,0,0,1-.914-.332A1.121,1.121,0,0,1,3.781-7.508ZM14.359-10.5v2.047h1.578v1.117H14.359v5.249a1.173,1.173,0,0,0,.211.763.888.888,0,0,0,.719.254,3.5,3.5,0,0,0,.688-.094V0a4.215,4.215,0,0,1-1.109.155A1.8,1.8,0,0,1,13.406-.43a2.517,2.517,0,0,1-.492-1.664V-7.336H11.375V-8.453h1.539V-10.5Zm6.031,8.383,1.969-6.336h1.547L20.508,1.3Q19.719,3.414,18,3.414l-.273-.023-.539-.1V2.117l.391.031a1.923,1.923,0,0,0,1.145-.3A2.148,2.148,0,0,0,19.4.766l.32-.859L16.7-8.453h1.578ZM32.336-4.133a5.062,5.062,0,0,1-.883,3.109A2.829,2.829,0,0,1,29.063.156,3.1,3.1,0,0,1,26.641-.82V3.25H25.2v-11.7h1.32l.07.938a2.977,2.977,0,0,1,2.453-1.094,2.882,2.882,0,0,1,2.41,1.148,5.117,5.117,0,0,1,.887,3.2ZM30.891-4.3a3.735,3.735,0,0,0-.609-2.258,1.963,1.963,0,0,0-1.672-.828,2.125,2.125,0,0,0-1.969,1.164V-2.18a2.129,2.129,0,0,0,1.984,1.156,1.954,1.954,0,0,0,1.652-.824A4.077,4.077,0,0,0,30.891-4.3ZM37.68.156a3.693,3.693,0,0,1-2.8-1.129A4.19,4.19,0,0,1,33.8-3.992v-.266a5.073,5.073,0,0,1,.48-2.246,3.748,3.748,0,0,1,1.344-1.547A3.378,3.378,0,0,1,37.5-8.609a3.166,3.166,0,0,1,2.563,1.086,4.7,4.7,0,0,1,.914,3.109v.6H35.25a3,3,0,0,0,.73,2.02,2.3,2.3,0,0,0,1.777.77,2.517,2.517,0,0,0,1.3-.312,3.259,3.259,0,0,0,.93-.828l.883.688A3.55,3.55,0,0,1,37.68.156ZM37.5-7.422a1.928,1.928,0,0,0-1.469.637A3.1,3.1,0,0,0,35.3-5h4.234v-.109a2.753,2.753,0,0,0-.594-1.707A1.815,1.815,0,0,0,37.5-7.422Z" transform="translate(1093.5 11947.657)" fill="#00104e"/>
    <path id="Trazado_142849" data-name="Trazado 142849" d="M-66.957-6.367h2.82v2.039h-2.82v3.188h-2.148V-4.328h-2.828V-6.367h2.828V-9.422h2.148Zm10.281-2.086.07.945a2.971,2.971,0,0,1,2.43-1.1A2.255,2.255,0,0,1-51.934-7.32a2.9,2.9,0,0,1,2.539-1.289,2.521,2.521,0,0,1,2.047.8,3.681,3.681,0,0,1,.672,2.41V0h-2.266V-5.4a1.616,1.616,0,0,0-.281-1.053,1.245,1.245,0,0,0-.992-.333,1.409,1.409,0,0,0-1.406.971L-51.613,0h-2.258V-5.4A1.6,1.6,0,0,0-54.16-6.46a1.257,1.257,0,0,0-.984-.329,1.463,1.463,0,0,0-1.391.8V0h-2.258V-8.453ZM-41.051.156A4.15,4.15,0,0,1-44.078-.984a4.054,4.054,0,0,1-1.168-3.039v-.219a5.106,5.106,0,0,1,.492-2.277,3.612,3.612,0,0,1,1.395-1.547A3.914,3.914,0,0,1-41.3-8.609a3.508,3.508,0,0,1,2.73,1.094,4.444,4.444,0,0,1,1,3.1v.922h-5.383a2.1,2.1,0,0,0,.66,1.328,2,2,0,0,0,1.395.5,2.437,2.437,0,0,0,2.039-.945l1.109,1.242A3.389,3.389,0,0,1-39.129-.246,4.511,4.511,0,0,1-41.051.156Zm-.258-6.945a1.411,1.411,0,0,0-1.09.455,2.357,2.357,0,0,0-.535,1.3h3.141v-.181A1.681,1.681,0,0,0-40.2-6.377,1.456,1.456,0,0,0-41.309-6.789Zm7.719-3.742v2.078h1.445V-6.8H-33.59v4.219a1.007,1.007,0,0,0,.18.672.9.9,0,0,0,.688.2,3.6,3.6,0,0,0,.664-.055V-.047a4.648,4.648,0,0,1-1.367.2,2.156,2.156,0,0,1-2.422-2.4V-6.8h-1.234V-8.453h1.234v-2.078Zm4.906,3a2.818,2.818,0,0,1,2.258-1.078q2.75,0,2.789,3.2V0h-2.258V-5.364a1.577,1.577,0,0,0-.312-1.077,1.338,1.338,0,0,0-1.039-.348,1.536,1.536,0,0,0-1.437.767V0h-2.258V-12h2.258Zm6.4,3.227A5.013,5.013,0,0,1-21.8-6.547,3.546,3.546,0,0,1-20.406-8.07a4.069,4.069,0,0,1,2.113-.539A3.849,3.849,0,0,1-15.5-7.562a4.2,4.2,0,0,1,1.207,2.844l.016.578A4.418,4.418,0,0,1-15.363-1.02,3.775,3.775,0,0,1-18.277.156,3.793,3.793,0,0,1-21.2-1.016,4.5,4.5,0,0,1-22.285-4.2Zm2.258.16A3.16,3.16,0,0,0-19.574-2.3a1.5,1.5,0,0,0,1.3.638A1.5,1.5,0,0,0-17-2.294a3.457,3.457,0,0,0,.461-2.015A3.128,3.128,0,0,0-17-6.14a1.5,1.5,0,0,0-1.3-.649,1.474,1.474,0,0,0-1.281.646A3.516,3.516,0,0,0-20.027-4.144Zm6.789-.145a5.094,5.094,0,0,1,.887-3.148A2.877,2.877,0,0,1-9.926-8.609a2.589,2.589,0,0,1,2.039.922V-12h2.266V0H-7.66L-7.77-.9A2.657,2.657,0,0,1-9.941.156,2.869,2.869,0,0,1-12.336-1.02,5.258,5.258,0,0,1-13.238-4.289Zm2.258.161A3.355,3.355,0,0,0-10.566-2.3a1.348,1.348,0,0,0,1.2.636,1.51,1.51,0,0,0,1.477-.887V-5.9a1.489,1.489,0,0,0-1.461-.887Q-10.98-6.789-10.98-4.128Zm7.211-.5a11.99,11.99,0,0,1,.477-3.406,8.989,8.989,0,0,1,1.406-2.863,5.251,5.251,0,0,1,2.016-1.73l.438,1.219A5.438,5.438,0,0,0-1.215-8.8a12.082,12.082,0,0,0-.641,4.125v.242A12.313,12.313,0,0,0-1.223-.289,5.544,5.544,0,0,0,.566,2.359l-.437,1.2a5.253,5.253,0,0,1-1.98-1.684,8.838,8.838,0,0,1-1.4-2.785,11.918,11.918,0,0,1-.516-3.3Zm8.219-5.906v2.078H5.895V-6.8H4.449v4.219a1.007,1.007,0,0,0,.18.672.9.9,0,0,0,.688.2,3.6,3.6,0,0,0,.664-.055V-.047a4.648,4.648,0,0,1-1.367.2,2.156,2.156,0,0,1-2.422-2.4V-6.8H.957V-8.453H2.191v-2.078ZM10.309-3.2l1.563-5.258h2.422l-3.4,9.766-.187.445a2.577,2.577,0,0,1-2.5,1.656,3.552,3.552,0,0,1-1-.148V1.555l.344.008a1.857,1.857,0,0,0,.957-.2A1.283,1.283,0,0,0,9,.719l.266-.7L6.309-8.453h2.43Zm12.484-.953a5.07,5.07,0,0,1-.887,3.129A2.843,2.843,0,0,1,19.512.156a2.633,2.633,0,0,1-2.07-.891V3.25H15.184v-11.7h2.094l.078.828A2.654,2.654,0,0,1,19.5-8.609a2.862,2.862,0,0,1,2.43,1.156,5.207,5.207,0,0,1,.867,3.188Zm-2.258-.172a3.345,3.345,0,0,0-.418-1.826A1.36,1.36,0,0,0,18.9-6.789a1.478,1.478,0,0,0-1.461.815V-2.5a1.5,1.5,0,0,0,1.477.839Q20.535-1.664,20.535-4.321ZM28.082.156A4.15,4.15,0,0,1,25.055-.984a4.054,4.054,0,0,1-1.168-3.039v-.219a5.106,5.106,0,0,1,.492-2.277,3.612,3.612,0,0,1,1.395-1.547,3.914,3.914,0,0,1,2.059-.543,3.508,3.508,0,0,1,2.73,1.094,4.444,4.444,0,0,1,1,3.1v.922H26.176a2.1,2.1,0,0,0,.66,1.328,2,2,0,0,0,1.395.5,2.437,2.437,0,0,0,2.039-.945l1.109,1.242A3.389,3.389,0,0,1,30-.246,4.511,4.511,0,0,1,28.082.156Zm-.258-6.945a1.411,1.411,0,0,0-1.09.455,2.357,2.357,0,0,0-.535,1.3H29.34v-.181a1.681,1.681,0,0,0-.406-1.165A1.456,1.456,0,0,0,27.824-6.789ZM36.73-4.445a11.377,11.377,0,0,1-.508,3.4,9.225,9.225,0,0,1-1.461,2.883,5.264,5.264,0,0,1-2.039,1.719l-.437-1.2a5.494,5.494,0,0,0,1.75-2.578A11.939,11.939,0,0,0,34.7-4.227v-.414a12.208,12.208,0,0,0-.637-4.117,5.727,5.727,0,0,0-1.777-2.672l.438-1.2a5.265,5.265,0,0,1,2,1.672,9.106,9.106,0,0,1,1.461,2.82A11.3,11.3,0,0,1,36.73-4.8ZM38.59-1.109a1.137,1.137,0,0,1,.363-.875,1.289,1.289,0,0,1,.91-.336,1.3,1.3,0,0,1,.918.336,1.137,1.137,0,0,1,.363.875,1.121,1.121,0,0,1-.359.863,1.305,1.305,0,0,1-.922.332,1.294,1.294,0,0,1-.914-.332A1.121,1.121,0,0,1,38.59-1.109Zm0-6.4a1.137,1.137,0,0,1,.363-.875,1.289,1.289,0,0,1,.91-.336,1.3,1.3,0,0,1,.918.336,1.137,1.137,0,0,1,.363.875,1.121,1.121,0,0,1-.359.863,1.305,1.305,0,0,1-.922.332,1.294,1.294,0,0,1-.914-.332A1.121,1.121,0,0,1,38.59-7.508ZM49.168-10.5v2.047h1.578v1.117H49.168v5.249a1.173,1.173,0,0,0,.211.763.888.888,0,0,0,.719.254,3.5,3.5,0,0,0,.688-.094V0a4.215,4.215,0,0,1-1.109.155A1.8,1.8,0,0,1,48.215-.43a2.517,2.517,0,0,1-.492-1.664V-7.336H46.184V-8.453h1.539V-10.5ZM55.2-2.117l1.969-6.336h1.547L55.316,1.3q-.789,2.109-2.508,2.109l-.273-.023L52,3.289V2.117l.391.031a1.923,1.923,0,0,0,1.145-.3A2.148,2.148,0,0,0,54.207.766l.32-.859L51.512-8.453H53.09ZM67.145-4.133a5.062,5.062,0,0,1-.883,3.109A2.829,2.829,0,0,1,63.871.156,3.1,3.1,0,0,1,61.449-.82V3.25H60v-11.7h1.32l.07.938a2.977,2.977,0,0,1,2.453-1.094,2.882,2.882,0,0,1,2.41,1.148,5.117,5.117,0,0,1,.887,3.2ZM65.7-4.3a3.735,3.735,0,0,0-.609-2.258,1.963,1.963,0,0,0-1.672-.828,2.125,2.125,0,0,0-1.969,1.164V-2.18a2.129,2.129,0,0,0,1.984,1.156,1.954,1.954,0,0,0,1.652-.824A4.077,4.077,0,0,0,65.7-4.3ZM72.488.156a3.693,3.693,0,0,1-2.8-1.129,4.19,4.19,0,0,1-1.078-3.02v-.266a5.073,5.073,0,0,1,.48-2.246,3.748,3.748,0,0,1,1.344-1.547,3.378,3.378,0,0,1,1.871-.559,3.166,3.166,0,0,1,2.563,1.086,4.7,4.7,0,0,1,.914,3.109v.6H70.059a3,3,0,0,0,.73,2.02,2.3,2.3,0,0,0,1.777.77,2.517,2.517,0,0,0,1.3-.312,3.259,3.259,0,0,0,.93-.828l.883.688A3.55,3.55,0,0,1,72.488.156Zm-.18-7.578a1.928,1.928,0,0,0-1.469.637A3.1,3.1,0,0,0,70.105-5H74.34v-.109a2.753,2.753,0,0,0-.594-1.707A1.815,1.815,0,0,0,72.309-7.422Z" transform="translate(507 11999.656)" fill="#00104e"/>
    <path id="Trazado_142838" data-name="Trazado 142838" d="M-66.957-6.367h2.82v2.039h-2.82v3.188h-2.148V-4.328h-2.828V-6.367h2.828V-9.422h2.148Zm10.281-2.086.07.945a2.971,2.971,0,0,1,2.43-1.1A2.255,2.255,0,0,1-51.934-7.32a2.9,2.9,0,0,1,2.539-1.289,2.521,2.521,0,0,1,2.047.8,3.681,3.681,0,0,1,.672,2.41V0h-2.266V-5.4a1.616,1.616,0,0,0-.281-1.053,1.245,1.245,0,0,0-.992-.333,1.409,1.409,0,0,0-1.406.971L-51.613,0h-2.258V-5.4A1.6,1.6,0,0,0-54.16-6.46a1.257,1.257,0,0,0-.984-.329,1.463,1.463,0,0,0-1.391.8V0h-2.258V-8.453ZM-41.051.156A4.15,4.15,0,0,1-44.078-.984a4.054,4.054,0,0,1-1.168-3.039v-.219a5.106,5.106,0,0,1,.492-2.277,3.612,3.612,0,0,1,1.395-1.547A3.914,3.914,0,0,1-41.3-8.609a3.508,3.508,0,0,1,2.73,1.094,4.444,4.444,0,0,1,1,3.1v.922h-5.383a2.1,2.1,0,0,0,.66,1.328,2,2,0,0,0,1.395.5,2.437,2.437,0,0,0,2.039-.945l1.109,1.242A3.389,3.389,0,0,1-39.129-.246,4.511,4.511,0,0,1-41.051.156Zm-.258-6.945a1.411,1.411,0,0,0-1.09.455,2.357,2.357,0,0,0-.535,1.3h3.141v-.181A1.681,1.681,0,0,0-40.2-6.377,1.456,1.456,0,0,0-41.309-6.789Zm7.719-3.742v2.078h1.445V-6.8H-33.59v4.219a1.007,1.007,0,0,0,.18.672.9.9,0,0,0,.688.2,3.6,3.6,0,0,0,.664-.055V-.047a4.648,4.648,0,0,1-1.367.2,2.156,2.156,0,0,1-2.422-2.4V-6.8h-1.234V-8.453h1.234v-2.078Zm4.906,3a2.818,2.818,0,0,1,2.258-1.078q2.75,0,2.789,3.2V0h-2.258V-5.364a1.577,1.577,0,0,0-.312-1.077,1.338,1.338,0,0,0-1.039-.348,1.536,1.536,0,0,0-1.437.767V0h-2.258V-12h2.258Zm6.4,3.227A5.013,5.013,0,0,1-21.8-6.547,3.546,3.546,0,0,1-20.406-8.07a4.069,4.069,0,0,1,2.113-.539A3.849,3.849,0,0,1-15.5-7.562a4.2,4.2,0,0,1,1.207,2.844l.016.578A4.418,4.418,0,0,1-15.363-1.02,3.775,3.775,0,0,1-18.277.156,3.793,3.793,0,0,1-21.2-1.016,4.5,4.5,0,0,1-22.285-4.2Zm2.258.16A3.16,3.16,0,0,0-19.574-2.3a1.5,1.5,0,0,0,1.3.638A1.5,1.5,0,0,0-17-2.294a3.457,3.457,0,0,0,.461-2.015A3.128,3.128,0,0,0-17-6.14a1.5,1.5,0,0,0-1.3-.649,1.474,1.474,0,0,0-1.281.646A3.516,3.516,0,0,0-20.027-4.144Zm6.789-.145a5.094,5.094,0,0,1,.887-3.148A2.877,2.877,0,0,1-9.926-8.609a2.589,2.589,0,0,1,2.039.922V-12h2.266V0H-7.66L-7.77-.9A2.657,2.657,0,0,1-9.941.156,2.869,2.869,0,0,1-12.336-1.02,5.258,5.258,0,0,1-13.238-4.289Zm2.258.161A3.355,3.355,0,0,0-10.566-2.3a1.348,1.348,0,0,0,1.2.636,1.51,1.51,0,0,0,1.477-.887V-5.9a1.489,1.489,0,0,0-1.461-.887Q-10.98-6.789-10.98-4.128Zm7.211-.5a11.99,11.99,0,0,1,.477-3.406,8.989,8.989,0,0,1,1.406-2.863,5.251,5.251,0,0,1,2.016-1.73l.438,1.219A5.438,5.438,0,0,0-1.215-8.8a12.082,12.082,0,0,0-.641,4.125v.242A12.313,12.313,0,0,0-1.223-.289,5.544,5.544,0,0,0,.566,2.359l-.437,1.2a5.253,5.253,0,0,1-1.98-1.684,8.838,8.838,0,0,1-1.4-2.785,11.918,11.918,0,0,1-.516-3.3Zm8.219-5.906v2.078H5.895V-6.8H4.449v4.219a1.007,1.007,0,0,0,.18.672.9.9,0,0,0,.688.2,3.6,3.6,0,0,0,.664-.055V-.047a4.648,4.648,0,0,1-1.367.2,2.156,2.156,0,0,1-2.422-2.4V-6.8H.957V-8.453H2.191v-2.078ZM10.309-3.2l1.563-5.258h2.422l-3.4,9.766-.187.445a2.577,2.577,0,0,1-2.5,1.656,3.552,3.552,0,0,1-1-.148V1.555l.344.008a1.857,1.857,0,0,0,.957-.2A1.283,1.283,0,0,0,9,.719l.266-.7L6.309-8.453h2.43Zm12.484-.953a5.07,5.07,0,0,1-.887,3.129A2.843,2.843,0,0,1,19.512.156a2.633,2.633,0,0,1-2.07-.891V3.25H15.184v-11.7h2.094l.078.828A2.654,2.654,0,0,1,19.5-8.609a2.862,2.862,0,0,1,2.43,1.156,5.207,5.207,0,0,1,.867,3.188Zm-2.258-.172a3.345,3.345,0,0,0-.418-1.826A1.36,1.36,0,0,0,18.9-6.789a1.478,1.478,0,0,0-1.461.815V-2.5a1.5,1.5,0,0,0,1.477.839Q20.535-1.664,20.535-4.321ZM28.082.156A4.15,4.15,0,0,1,25.055-.984a4.054,4.054,0,0,1-1.168-3.039v-.219a5.106,5.106,0,0,1,.492-2.277,3.612,3.612,0,0,1,1.395-1.547,3.914,3.914,0,0,1,2.059-.543,3.508,3.508,0,0,1,2.73,1.094,4.444,4.444,0,0,1,1,3.1v.922H26.176a2.1,2.1,0,0,0,.66,1.328,2,2,0,0,0,1.395.5,2.437,2.437,0,0,0,2.039-.945l1.109,1.242A3.389,3.389,0,0,1,30-.246,4.511,4.511,0,0,1,28.082.156Zm-.258-6.945a1.411,1.411,0,0,0-1.09.455,2.357,2.357,0,0,0-.535,1.3H29.34v-.181a1.681,1.681,0,0,0-.406-1.165A1.456,1.456,0,0,0,27.824-6.789ZM36.73-4.445a11.377,11.377,0,0,1-.508,3.4,9.225,9.225,0,0,1-1.461,2.883,5.264,5.264,0,0,1-2.039,1.719l-.437-1.2a5.494,5.494,0,0,0,1.75-2.578A11.939,11.939,0,0,0,34.7-4.227v-.414a12.208,12.208,0,0,0-.637-4.117,5.727,5.727,0,0,0-1.777-2.672l.438-1.2a5.265,5.265,0,0,1,2,1.672,9.106,9.106,0,0,1,1.461,2.82A11.3,11.3,0,0,1,36.73-4.8ZM38.59-1.109a1.137,1.137,0,0,1,.363-.875,1.289,1.289,0,0,1,.91-.336,1.3,1.3,0,0,1,.918.336,1.137,1.137,0,0,1,.363.875,1.121,1.121,0,0,1-.359.863,1.305,1.305,0,0,1-.922.332,1.294,1.294,0,0,1-.914-.332A1.121,1.121,0,0,1,38.59-1.109Zm0-6.4a1.137,1.137,0,0,1,.363-.875,1.289,1.289,0,0,1,.91-.336,1.3,1.3,0,0,1,.918.336,1.137,1.137,0,0,1,.363.875,1.121,1.121,0,0,1-.359.863,1.305,1.305,0,0,1-.922.332,1.294,1.294,0,0,1-.914-.332A1.121,1.121,0,0,1,38.59-7.508ZM49.168-10.5v2.047h1.578v1.117H49.168v5.249a1.173,1.173,0,0,0,.211.763.888.888,0,0,0,.719.254,3.5,3.5,0,0,0,.688-.094V0a4.215,4.215,0,0,1-1.109.155A1.8,1.8,0,0,1,48.215-.43a2.517,2.517,0,0,1-.492-1.664V-7.336H46.184V-8.453h1.539V-10.5ZM55.2-2.117l1.969-6.336h1.547L55.316,1.3q-.789,2.109-2.508,2.109l-.273-.023L52,3.289V2.117l.391.031a1.923,1.923,0,0,0,1.145-.3A2.148,2.148,0,0,0,54.207.766l.32-.859L51.512-8.453H53.09ZM67.145-4.133a5.062,5.062,0,0,1-.883,3.109A2.829,2.829,0,0,1,63.871.156,3.1,3.1,0,0,1,61.449-.82V3.25H60v-11.7h1.32l.07.938a2.977,2.977,0,0,1,2.453-1.094,2.882,2.882,0,0,1,2.41,1.148,5.117,5.117,0,0,1,.887,3.2ZM65.7-4.3a3.735,3.735,0,0,0-.609-2.258,1.963,1.963,0,0,0-1.672-.828,2.125,2.125,0,0,0-1.969,1.164V-2.18a2.129,2.129,0,0,0,1.984,1.156,1.954,1.954,0,0,0,1.652-.824A4.077,4.077,0,0,0,65.7-4.3ZM72.488.156a3.693,3.693,0,0,1-2.8-1.129,4.19,4.19,0,0,1-1.078-3.02v-.266a5.073,5.073,0,0,1,.48-2.246,3.748,3.748,0,0,1,1.344-1.547,3.378,3.378,0,0,1,1.871-.559,3.166,3.166,0,0,1,2.563,1.086,4.7,4.7,0,0,1,.914,3.109v.6H70.059a3,3,0,0,0,.73,2.02,2.3,2.3,0,0,0,1.777.77,2.517,2.517,0,0,0,1.3-.312,3.259,3.259,0,0,0,.93-.828l.883.688A3.55,3.55,0,0,1,72.488.156Zm-.18-7.578a1.928,1.928,0,0,0-1.469.637A3.1,3.1,0,0,0,70.105-5H74.34v-.109a2.753,2.753,0,0,0-.594-1.707A1.815,1.815,0,0,0,72.309-7.422Z" transform="translate(805 11999.656)" fill="#00104e"/>
    <path id="Trazado_142839" data-name="Trazado 142839" d="M-66.957-6.367h2.82v2.039h-2.82v3.188h-2.148V-4.328h-2.828V-6.367h2.828V-9.422h2.148Zm10.281-2.086.07.945a2.971,2.971,0,0,1,2.43-1.1A2.255,2.255,0,0,1-51.934-7.32a2.9,2.9,0,0,1,2.539-1.289,2.521,2.521,0,0,1,2.047.8,3.681,3.681,0,0,1,.672,2.41V0h-2.266V-5.4a1.616,1.616,0,0,0-.281-1.053,1.245,1.245,0,0,0-.992-.333,1.409,1.409,0,0,0-1.406.971L-51.613,0h-2.258V-5.4A1.6,1.6,0,0,0-54.16-6.46a1.257,1.257,0,0,0-.984-.329,1.463,1.463,0,0,0-1.391.8V0h-2.258V-8.453ZM-41.051.156A4.15,4.15,0,0,1-44.078-.984a4.054,4.054,0,0,1-1.168-3.039v-.219a5.106,5.106,0,0,1,.492-2.277,3.612,3.612,0,0,1,1.395-1.547A3.914,3.914,0,0,1-41.3-8.609a3.508,3.508,0,0,1,2.73,1.094,4.444,4.444,0,0,1,1,3.1v.922h-5.383a2.1,2.1,0,0,0,.66,1.328,2,2,0,0,0,1.395.5,2.437,2.437,0,0,0,2.039-.945l1.109,1.242A3.389,3.389,0,0,1-39.129-.246,4.511,4.511,0,0,1-41.051.156Zm-.258-6.945a1.411,1.411,0,0,0-1.09.455,2.357,2.357,0,0,0-.535,1.3h3.141v-.181A1.681,1.681,0,0,0-40.2-6.377,1.456,1.456,0,0,0-41.309-6.789Zm7.719-3.742v2.078h1.445V-6.8H-33.59v4.219a1.007,1.007,0,0,0,.18.672.9.9,0,0,0,.688.2,3.6,3.6,0,0,0,.664-.055V-.047a4.648,4.648,0,0,1-1.367.2,2.156,2.156,0,0,1-2.422-2.4V-6.8h-1.234V-8.453h1.234v-2.078Zm4.906,3a2.818,2.818,0,0,1,2.258-1.078q2.75,0,2.789,3.2V0h-2.258V-5.364a1.577,1.577,0,0,0-.312-1.077,1.338,1.338,0,0,0-1.039-.348,1.536,1.536,0,0,0-1.437.767V0h-2.258V-12h2.258Zm6.4,3.227A5.013,5.013,0,0,1-21.8-6.547,3.546,3.546,0,0,1-20.406-8.07a4.069,4.069,0,0,1,2.113-.539A3.849,3.849,0,0,1-15.5-7.562a4.2,4.2,0,0,1,1.207,2.844l.016.578A4.418,4.418,0,0,1-15.363-1.02,3.775,3.775,0,0,1-18.277.156,3.793,3.793,0,0,1-21.2-1.016,4.5,4.5,0,0,1-22.285-4.2Zm2.258.16A3.16,3.16,0,0,0-19.574-2.3a1.5,1.5,0,0,0,1.3.638A1.5,1.5,0,0,0-17-2.294a3.457,3.457,0,0,0,.461-2.015A3.128,3.128,0,0,0-17-6.14a1.5,1.5,0,0,0-1.3-.649,1.474,1.474,0,0,0-1.281.646A3.516,3.516,0,0,0-20.027-4.144Zm6.789-.145a5.094,5.094,0,0,1,.887-3.148A2.877,2.877,0,0,1-9.926-8.609a2.589,2.589,0,0,1,2.039.922V-12h2.266V0H-7.66L-7.77-.9A2.657,2.657,0,0,1-9.941.156,2.869,2.869,0,0,1-12.336-1.02,5.258,5.258,0,0,1-13.238-4.289Zm2.258.161A3.355,3.355,0,0,0-10.566-2.3a1.348,1.348,0,0,0,1.2.636,1.51,1.51,0,0,0,1.477-.887V-5.9a1.489,1.489,0,0,0-1.461-.887Q-10.98-6.789-10.98-4.128Zm7.211-.5a11.99,11.99,0,0,1,.477-3.406,8.989,8.989,0,0,1,1.406-2.863,5.251,5.251,0,0,1,2.016-1.73l.438,1.219A5.438,5.438,0,0,0-1.215-8.8a12.082,12.082,0,0,0-.641,4.125v.242A12.313,12.313,0,0,0-1.223-.289,5.544,5.544,0,0,0,.566,2.359l-.437,1.2a5.253,5.253,0,0,1-1.98-1.684,8.838,8.838,0,0,1-1.4-2.785,11.918,11.918,0,0,1-.516-3.3Zm8.219-5.906v2.078H5.895V-6.8H4.449v4.219a1.007,1.007,0,0,0,.18.672.9.9,0,0,0,.688.2,3.6,3.6,0,0,0,.664-.055V-.047a4.648,4.648,0,0,1-1.367.2,2.156,2.156,0,0,1-2.422-2.4V-6.8H.957V-8.453H2.191v-2.078ZM10.309-3.2l1.563-5.258h2.422l-3.4,9.766-.187.445a2.577,2.577,0,0,1-2.5,1.656,3.552,3.552,0,0,1-1-.148V1.555l.344.008a1.857,1.857,0,0,0,.957-.2A1.283,1.283,0,0,0,9,.719l.266-.7L6.309-8.453h2.43Zm12.484-.953a5.07,5.07,0,0,1-.887,3.129A2.843,2.843,0,0,1,19.512.156a2.633,2.633,0,0,1-2.07-.891V3.25H15.184v-11.7h2.094l.078.828A2.654,2.654,0,0,1,19.5-8.609a2.862,2.862,0,0,1,2.43,1.156,5.207,5.207,0,0,1,.867,3.188Zm-2.258-.172a3.345,3.345,0,0,0-.418-1.826A1.36,1.36,0,0,0,18.9-6.789a1.478,1.478,0,0,0-1.461.815V-2.5a1.5,1.5,0,0,0,1.477.839Q20.535-1.664,20.535-4.321ZM28.082.156A4.15,4.15,0,0,1,25.055-.984a4.054,4.054,0,0,1-1.168-3.039v-.219a5.106,5.106,0,0,1,.492-2.277,3.612,3.612,0,0,1,1.395-1.547,3.914,3.914,0,0,1,2.059-.543,3.508,3.508,0,0,1,2.73,1.094,4.444,4.444,0,0,1,1,3.1v.922H26.176a2.1,2.1,0,0,0,.66,1.328,2,2,0,0,0,1.395.5,2.437,2.437,0,0,0,2.039-.945l1.109,1.242A3.389,3.389,0,0,1,30-.246,4.511,4.511,0,0,1,28.082.156Zm-.258-6.945a1.411,1.411,0,0,0-1.09.455,2.357,2.357,0,0,0-.535,1.3H29.34v-.181a1.681,1.681,0,0,0-.406-1.165A1.456,1.456,0,0,0,27.824-6.789ZM36.73-4.445a11.377,11.377,0,0,1-.508,3.4,9.225,9.225,0,0,1-1.461,2.883,5.264,5.264,0,0,1-2.039,1.719l-.437-1.2a5.494,5.494,0,0,0,1.75-2.578A11.939,11.939,0,0,0,34.7-4.227v-.414a12.208,12.208,0,0,0-.637-4.117,5.727,5.727,0,0,0-1.777-2.672l.438-1.2a5.265,5.265,0,0,1,2,1.672,9.106,9.106,0,0,1,1.461,2.82A11.3,11.3,0,0,1,36.73-4.8ZM38.59-1.109a1.137,1.137,0,0,1,.363-.875,1.289,1.289,0,0,1,.91-.336,1.3,1.3,0,0,1,.918.336,1.137,1.137,0,0,1,.363.875,1.121,1.121,0,0,1-.359.863,1.305,1.305,0,0,1-.922.332,1.294,1.294,0,0,1-.914-.332A1.121,1.121,0,0,1,38.59-1.109Zm0-6.4a1.137,1.137,0,0,1,.363-.875,1.289,1.289,0,0,1,.91-.336,1.3,1.3,0,0,1,.918.336,1.137,1.137,0,0,1,.363.875,1.121,1.121,0,0,1-.359.863,1.305,1.305,0,0,1-.922.332,1.294,1.294,0,0,1-.914-.332A1.121,1.121,0,0,1,38.59-7.508ZM49.168-10.5v2.047h1.578v1.117H49.168v5.249a1.173,1.173,0,0,0,.211.763.888.888,0,0,0,.719.254,3.5,3.5,0,0,0,.688-.094V0a4.215,4.215,0,0,1-1.109.155A1.8,1.8,0,0,1,48.215-.43a2.517,2.517,0,0,1-.492-1.664V-7.336H46.184V-8.453h1.539V-10.5ZM55.2-2.117l1.969-6.336h1.547L55.316,1.3q-.789,2.109-2.508,2.109l-.273-.023L52,3.289V2.117l.391.031a1.923,1.923,0,0,0,1.145-.3A2.148,2.148,0,0,0,54.207.766l.32-.859L51.512-8.453H53.09ZM67.145-4.133a5.062,5.062,0,0,1-.883,3.109A2.829,2.829,0,0,1,63.871.156,3.1,3.1,0,0,1,61.449-.82V3.25H60v-11.7h1.32l.07.938a2.977,2.977,0,0,1,2.453-1.094,2.882,2.882,0,0,1,2.41,1.148,5.117,5.117,0,0,1,.887,3.2ZM65.7-4.3a3.735,3.735,0,0,0-.609-2.258,1.963,1.963,0,0,0-1.672-.828,2.125,2.125,0,0,0-1.969,1.164V-2.18a2.129,2.129,0,0,0,1.984,1.156,1.954,1.954,0,0,0,1.652-.824A4.077,4.077,0,0,0,65.7-4.3ZM72.488.156a3.693,3.693,0,0,1-2.8-1.129,4.19,4.19,0,0,1-1.078-3.02v-.266a5.073,5.073,0,0,1,.48-2.246,3.748,3.748,0,0,1,1.344-1.547,3.378,3.378,0,0,1,1.871-.559,3.166,3.166,0,0,1,2.563,1.086,4.7,4.7,0,0,1,.914,3.109v.6H70.059a3,3,0,0,0,.73,2.02,2.3,2.3,0,0,0,1.777.77,2.517,2.517,0,0,0,1.3-.312,3.259,3.259,0,0,0,.93-.828l.883.688A3.55,3.55,0,0,1,72.488.156Zm-.18-7.578a1.928,1.928,0,0,0-1.469.637A3.1,3.1,0,0,0,70.105-5H74.34v-.109a2.753,2.753,0,0,0-.594-1.707A1.815,1.815,0,0,0,72.309-7.422Z" transform="translate(1093.5 11999.656)" fill="#00104e"/>
    <path id="Trazado_140658" data-name="Trazado 140658" d="M0,0H233" transform="translate(390.5 11968.157)" fill="#039be5" stroke="#1891e0" stroke-width="1"/>
    <path id="Trazado_140659" data-name="Trazado 140659" d="M0,0H233" transform="translate(688.5 11968.157)" fill="#039be5" stroke="#1891e0" stroke-width="1"/>
    <path id="Trazado_140660" data-name="Trazado 140660" d="M0,0H233" transform="translate(977 11968.157)" fill="#039be5" stroke="#1891e0" stroke-width="1"/>
    <path id="Trazado_142840" data-name="Trazado 142840" d="M0,165.579,2.123,0" transform="matrix(0.326, 0.946, -0.946, 0.326, 1078.059, 12044.593)" fill="none" stroke="#fc9c25" stroke-width="2"/>
    <g id="Grupo_82186-2" data-name="Grupo 82186" transform="matrix(0.326, 0.946, -0.946, 0.326, 1081.653, 12039.148)">
      <path id="Trazado_140656-2" data-name="Trazado 140656" d="M0,10,5.773,0l5.774,10Z" transform="translate(0 0)" fill="#fc9c25"/>
    </g>
    <path id="Trazado_142817" data-name="Trazado 142817" d="M0,0,2.123,165.579" transform="translate(1238.792 12137.928) rotate(124)" fill="none" stroke="#fc9c25" stroke-width="2"/>
    <g id="Grupo_82186-3" data-name="Grupo 82186" transform="translate(1107.746 12044.739) rotate(124)">
      <path id="Trazado_140656-3" data-name="Trazado 140656" d="M0,0,5.773,10,11.547,0Z" transform="translate(0 0)" fill="#fc9c25"/>
    </g>
    <path id="Trazado_142818" data-name="Trazado 142818" d="M0,0H233V39H0Z" transform="translate(810 12095.157)" fill="#ffa726"/>
    <path id="Trazado_142819" data-name="Trazado 142819" d="M-80.2-6.491h-5.906v4.02h6.932V0H-89.183V-14.93H-79.2v2.492h-6.911V-8.88H-80.2Zm6.86-1.292,1.866-3.312h3.168L-71.465-5.66-68.173,0h-3.179l-1.979-3.486L-75.3,0h-3.189L-75.2-5.66l-3.148-5.435h3.179Zm10.008-6.04v2.728h1.9v2.174h-1.9v5.537A1.322,1.322,0,0,0-63.1-2.5a1.184,1.184,0,0,0,.9.267,4.726,4.726,0,0,0,.872-.072V-.062a6.1,6.1,0,0,1-1.794.267q-3.117,0-3.179-3.148V-8.921h-1.62v-2.174h1.62v-2.728Zm9.782,5.506A8.051,8.051,0,0,0-54.617-8.4a2.171,2.171,0,0,0-2.2,1.138V0h-2.963V-11.095h2.8l.082,1.323A2.746,2.746,0,0,1-54.433-11.3a3.105,3.105,0,0,1,.923.133ZM-47.214.205a5.447,5.447,0,0,1-3.973-1.5A5.321,5.321,0,0,1-52.72-5.281v-.287a6.7,6.7,0,0,1,.646-2.989,4.741,4.741,0,0,1,1.83-2.03,5.137,5.137,0,0,1,2.7-.713,4.6,4.6,0,0,1,3.584,1.436,5.833,5.833,0,0,1,1.307,4.071v1.21h-7.065A2.753,2.753,0,0,0-48.85-2.84a2.619,2.619,0,0,0,1.83.656,3.2,3.2,0,0,0,2.676-1.241l1.456,1.63a4.449,4.449,0,0,1-1.8,1.471A5.921,5.921,0,0,1-47.214.205Zm-.338-9.116a1.852,1.852,0,0,0-1.43.6,3.093,3.093,0,0,0-.7,1.71h4.122V-6.84A2.206,2.206,0,0,0-46.1-8.37,1.91,1.91,0,0,0-47.552-8.911Zm9.362-2.184.092,1.241A3.9,3.9,0,0,1-34.909-11.3a2.959,2.959,0,0,1,2.943,1.692A3.809,3.809,0,0,1-28.634-11.3a3.309,3.309,0,0,1,2.687,1.051,4.831,4.831,0,0,1,.882,3.163V0h-2.974V-7.092a2.121,2.121,0,0,0-.369-1.382,1.634,1.634,0,0,0-1.3-.437,1.85,1.85,0,0,0-1.846,1.274L-31.546,0H-34.51V-7.081a2.1,2.1,0,0,0-.379-1.4,1.65,1.65,0,0,0-1.292-.432,1.92,1.92,0,0,0-1.825,1.048V0h-2.963V-11.095ZM-19.662,0h-2.974V-11.095h2.974ZM-22.81-13.966a1.459,1.459,0,0,1,.446-1.1,1.676,1.676,0,0,1,1.215-.431,1.679,1.679,0,0,1,1.21.431,1.451,1.451,0,0,1,.451,1.1,1.455,1.455,0,0,1-.456,1.107,1.684,1.684,0,0,1-1.2.431,1.684,1.684,0,0,1-1.2-.431A1.455,1.455,0,0,1-22.81-13.966Zm5.127,8.336a6.686,6.686,0,0,1,1.164-4.132A3.776,3.776,0,0,1-13.335-11.3a3.4,3.4,0,0,1,2.676,1.21v-5.66h2.974V0h-2.676l-.144-1.179A3.487,3.487,0,0,1-13.356.205,3.766,3.766,0,0,1-16.5-1.338,6.9,6.9,0,0,1-17.683-5.629Zm2.963.211a4.4,4.4,0,0,0,.543,2.4,1.769,1.769,0,0,0,1.579.834,1.982,1.982,0,0,0,1.938-1.164v-4.4a1.954,1.954,0,0,0-1.917-1.164Q-14.719-8.911-14.719-5.419ZM1.041,0a3.291,3.291,0,0,1-.3-.995,3.586,3.586,0,0,1-2.8,1.2,3.939,3.939,0,0,1-2.7-.943A3.034,3.034,0,0,1-5.829-3.117,3.135,3.135,0,0,1-4.522-5.824,6.451,6.451,0,0,1-.743-6.778H.62v-.636a1.828,1.828,0,0,0-.395-1.23A1.553,1.553,0,0,0-1.02-9.105a1.766,1.766,0,0,0-1.174.359,1.219,1.219,0,0,0-.426.984H-5.583a2.977,2.977,0,0,1,.595-1.784,3.931,3.931,0,0,1,1.682-1.287A6.129,6.129,0,0,1-.866-11.3a4.842,4.842,0,0,1,3.256,1.031,3.605,3.605,0,0,1,1.2,2.9v4.809A5.3,5.3,0,0,0,4.035-.174V0ZM-1.41-2.061A2.552,2.552,0,0,0-.2-2.353a1.919,1.919,0,0,0,.82-.784V-5.045H-.487q-2.225,0-2.369,1.538l-.01.174a1.186,1.186,0,0,0,.39.913A1.514,1.514,0,0,0-1.41-2.061ZM5.409-5.629A6.686,6.686,0,0,1,6.573-9.762,3.776,3.776,0,0,1,9.757-11.3a3.4,3.4,0,0,1,2.676,1.21v-5.66h2.974V0H12.73l-.144-1.179A3.487,3.487,0,0,1,9.736.205,3.766,3.766,0,0,1,6.593-1.338,6.9,6.9,0,0,1,5.409-5.629Zm2.963.211a4.4,4.4,0,0,0,.543,2.4,1.769,1.769,0,0,0,1.579.834,1.982,1.982,0,0,0,1.938-1.164v-4.4a1.954,1.954,0,0,0-1.917-1.164Q8.372-8.911,8.372-5.419ZM26.06,0H23.087V-11.095H26.06ZM22.912-13.966a1.459,1.459,0,0,1,.446-1.1,1.676,1.676,0,0,1,1.215-.431,1.679,1.679,0,0,1,1.21.431,1.451,1.451,0,0,1,.451,1.1,1.455,1.455,0,0,1-.456,1.107,1.684,1.684,0,0,1-1.2.431,1.684,1.684,0,0,1-1.2-.431A1.455,1.455,0,0,1,22.912-13.966Zm8.316,2.871.092,1.282A3.874,3.874,0,0,1,34.51-11.3a3.219,3.219,0,0,1,2.625,1.036,4.832,4.832,0,0,1,.882,3.1V0H35.053V-7.112a1.93,1.93,0,0,0-.41-1.372,1.833,1.833,0,0,0-1.364-.426A2.038,2.038,0,0,0,31.4-7.842V0H28.439V-11.095ZM41.072,0V-8.921H39.421v-2.174h1.651v-.943a3.83,3.83,0,0,1,1.072-2.9,4.15,4.15,0,0,1,3-1.031,6.984,6.984,0,0,1,1.507.2l-.031,2.278a3.778,3.778,0,0,0-.9-.092q-1.671,0-1.671,1.582v.9h2.2v2.174h-2.2V0ZM52.649.205a5.447,5.447,0,0,1-3.973-1.5,5.321,5.321,0,0,1-1.533-3.989v-.287a6.7,6.7,0,0,1,.646-2.989,4.741,4.741,0,0,1,1.83-2.03,5.137,5.137,0,0,1,2.7-.713A4.6,4.6,0,0,1,55.9-9.864a5.833,5.833,0,0,1,1.307,4.071v1.21H50.147a2.753,2.753,0,0,0,.866,1.743,2.619,2.619,0,0,0,1.83.656A3.2,3.2,0,0,0,55.52-3.425l1.456,1.63a4.449,4.449,0,0,1-1.8,1.471A5.921,5.921,0,0,1,52.649.205ZM52.31-8.911a1.852,1.852,0,0,0-1.43.6,3.093,3.093,0,0,0-.7,1.71H54.3V-6.84a2.206,2.206,0,0,0-.533-1.529A1.91,1.91,0,0,0,52.31-8.911Zm12.817.595A8.051,8.051,0,0,0,64.061-8.4a2.171,2.171,0,0,0-2.2,1.138V0H58.893V-11.095h2.8l.082,1.323A2.746,2.746,0,0,1,64.246-11.3a3.105,3.105,0,0,1,.923.133ZM69.68,0H66.707V-11.095H69.68ZM66.532-13.966a1.459,1.459,0,0,1,.446-1.1,1.676,1.676,0,0,1,1.215-.431,1.679,1.679,0,0,1,1.21.431,1.451,1.451,0,0,1,.451,1.1,1.455,1.455,0,0,1-.456,1.107,1.684,1.684,0,0,1-1.2.431,1.684,1.684,0,0,1-1.2-.431A1.455,1.455,0,0,1,66.532-13.966ZM71.659-5.65A6.58,6.58,0,0,1,72.3-8.593a4.654,4.654,0,0,1,1.83-2A5.34,5.34,0,0,1,76.9-11.3a5.052,5.052,0,0,1,3.666,1.374,5.514,5.514,0,0,1,1.584,3.732l.021.759a5.8,5.8,0,0,1-1.425,4.1A4.954,4.954,0,0,1,76.92.205a4.979,4.979,0,0,1-3.83-1.538,5.9,5.9,0,0,1-1.43-4.184Zm2.963.21a4.147,4.147,0,0,0,.595,2.418,1.962,1.962,0,0,0,1.7.837A1.966,1.966,0,0,0,78.6-3.011a4.538,4.538,0,0,0,.6-2.644,4.106,4.106,0,0,0-.6-2.4,1.967,1.967,0,0,0-1.7-.852,1.934,1.934,0,0,0-1.682.847A4.614,4.614,0,0,0,74.623-5.44ZM90.229-8.316A8.051,8.051,0,0,0,89.163-8.4a2.171,2.171,0,0,0-2.2,1.138V0H83.995V-11.095h2.8l.082,1.323A2.746,2.746,0,0,1,89.347-11.3a3.105,3.105,0,0,1,.923.133Z" transform="translate(927 12120.157)" fill="#fff"/>
    <path id="Trazado_142820" data-name="Trazado 142820" d="M0,0H233V39H0Z" transform="translate(1081.5 12095.157)" fill="#ffa726"/>
    <path id="Trazado_142821" data-name="Trazado 142821" d="M-85.082-6.491h-5.906v4.02h6.932V0H-94.064V-14.93h9.987v2.492h-6.911V-8.88h5.906Zm6.86-1.292,1.866-3.312h3.168L-76.345-5.66-73.054,0h-3.179l-1.979-3.486L-80.18,0h-3.189l3.292-5.66-3.148-5.435h3.179Zm10.008-6.04v2.728h1.9v2.174h-1.9v5.537a1.322,1.322,0,0,0,.236.882,1.184,1.184,0,0,0,.9.267,4.726,4.726,0,0,0,.872-.072V-.062A6.1,6.1,0,0,1-68,.205q-3.117,0-3.179-3.148V-8.921H-72.8v-2.174h1.62v-2.728Zm9.782,5.506A8.051,8.051,0,0,0-59.5-8.4,2.171,2.171,0,0,0-61.7-7.26V0h-2.963V-11.095h2.8l.082,1.323A2.746,2.746,0,0,1-59.314-11.3a3.105,3.105,0,0,1,.923.133ZM-52.095.205a5.447,5.447,0,0,1-3.973-1.5A5.321,5.321,0,0,1-57.6-5.281v-.287a6.7,6.7,0,0,1,.646-2.989,4.741,4.741,0,0,1,1.83-2.03,5.137,5.137,0,0,1,2.7-.713,4.6,4.6,0,0,1,3.584,1.436,5.833,5.833,0,0,1,1.307,4.071v1.21H-54.6A2.753,2.753,0,0,0-53.73-2.84a2.619,2.619,0,0,0,1.83.656,3.2,3.2,0,0,0,2.676-1.241l1.456,1.63a4.449,4.449,0,0,1-1.8,1.471A5.921,5.921,0,0,1-52.095.205Zm-.338-9.116a1.852,1.852,0,0,0-1.43.6,3.093,3.093,0,0,0-.7,1.71h4.122V-6.84a2.206,2.206,0,0,0-.533-1.529A1.91,1.91,0,0,0-52.433-8.911Zm9.362-2.184.092,1.241A3.9,3.9,0,0,1-39.79-11.3a2.959,2.959,0,0,1,2.943,1.692A3.809,3.809,0,0,1-33.515-11.3a3.309,3.309,0,0,1,2.687,1.051,4.831,4.831,0,0,1,.882,3.163V0H-32.92V-7.092a2.121,2.121,0,0,0-.369-1.382,1.634,1.634,0,0,0-1.3-.437,1.85,1.85,0,0,0-1.846,1.274L-36.427,0H-39.39V-7.081a2.1,2.1,0,0,0-.379-1.4,1.65,1.65,0,0,0-1.292-.432,1.92,1.92,0,0,0-1.825,1.048V0H-45.85V-11.095ZM-24.543,0h-2.974V-11.095h2.974Zm-3.148-13.966a1.459,1.459,0,0,1,.446-1.1,1.676,1.676,0,0,1,1.215-.431,1.679,1.679,0,0,1,1.21.431,1.451,1.451,0,0,1,.451,1.1,1.455,1.455,0,0,1-.456,1.107,1.684,1.684,0,0,1-1.2.431,1.684,1.684,0,0,1-1.2-.431A1.455,1.455,0,0,1-27.691-13.966Zm5.127,8.336A6.686,6.686,0,0,1-21.4-9.762,3.776,3.776,0,0,1-18.216-11.3a3.4,3.4,0,0,1,2.676,1.21v-5.66h2.974V0h-2.676l-.144-1.179A3.487,3.487,0,0,1-18.237.205a3.766,3.766,0,0,1-3.143-1.543A6.9,6.9,0,0,1-22.564-5.629Zm2.963.211a4.4,4.4,0,0,0,.543,2.4,1.769,1.769,0,0,0,1.579.834A1.982,1.982,0,0,0-15.54-3.348v-4.4a1.954,1.954,0,0,0-1.917-1.164Q-19.6-8.911-19.6-5.419ZM-3.84,0a3.291,3.291,0,0,1-.3-.995,3.586,3.586,0,0,1-2.8,1.2,3.939,3.939,0,0,1-2.7-.943A3.034,3.034,0,0,1-10.71-3.117,3.135,3.135,0,0,1-9.4-5.824a6.451,6.451,0,0,1,3.779-.954H-4.26v-.636a1.828,1.828,0,0,0-.395-1.23A1.553,1.553,0,0,0-5.9-9.105a1.766,1.766,0,0,0-1.174.359,1.219,1.219,0,0,0-.426.984h-2.963a2.977,2.977,0,0,1,.595-1.784,3.931,3.931,0,0,1,1.682-1.287,6.129,6.129,0,0,1,2.44-.467,4.842,4.842,0,0,1,3.256,1.031,3.605,3.605,0,0,1,1.2,2.9v4.809A5.3,5.3,0,0,0-.846-.174V0ZM-6.291-2.061a2.552,2.552,0,0,0,1.21-.292,1.919,1.919,0,0,0,.82-.784V-5.045H-5.368q-2.225,0-2.369,1.538l-.01.174a1.186,1.186,0,0,0,.39.913A1.514,1.514,0,0,0-6.291-2.061ZM.528-5.629A6.686,6.686,0,0,1,1.692-9.762,3.776,3.776,0,0,1,4.876-11.3a3.4,3.4,0,0,1,2.676,1.21v-5.66h2.974V0H7.849L7.706-1.179A3.487,3.487,0,0,1,4.855.205,3.766,3.766,0,0,1,1.712-1.338,6.9,6.9,0,0,1,.528-5.629Zm2.963.211a4.4,4.4,0,0,0,.543,2.4,1.769,1.769,0,0,0,1.579.834A1.982,1.982,0,0,0,7.552-3.348v-4.4A1.954,1.954,0,0,0,5.635-8.911Q3.491-8.911,3.491-5.419ZM24.061-3.066a.955.955,0,0,0-.538-.856,6.115,6.115,0,0,0-1.728-.559q-3.958-.831-3.958-3.363a3.049,3.049,0,0,1,1.225-2.466,4.943,4.943,0,0,1,3.2-.99,5.32,5.32,0,0,1,3.379.995,3.135,3.135,0,0,1,1.266,2.584H23.948a1.434,1.434,0,0,0-.41-1.051,1.736,1.736,0,0,0-1.282-.415,1.774,1.774,0,0,0-1.159.338,1.068,1.068,0,0,0-.41.861.913.913,0,0,0,.467.795,4.8,4.8,0,0,0,1.574.523,12.856,12.856,0,0,1,1.866.5,3.066,3.066,0,0,1,2.348,2.984,2.894,2.894,0,0,1-1.3,2.456,5.618,5.618,0,0,1-3.363.938,5.867,5.867,0,0,1-2.476-.5,4.155,4.155,0,0,1-1.7-1.364,3.169,3.169,0,0,1-.615-1.871H20.3a1.547,1.547,0,0,0,.584,1.21,2.318,2.318,0,0,0,1.456.42,2.146,2.146,0,0,0,1.287-.323A1,1,0,0,0,24.061-3.066ZM35.494-1.128A3.716,3.716,0,0,1,32.459.205,3.5,3.5,0,0,1,29.736-.82a4.377,4.377,0,0,1-.959-3v-7.27h2.963v7.176q0,1.735,1.579,1.735a2.14,2.14,0,0,0,2.071-1.047v-7.863h2.974V0H35.576ZM50.588-5.445a6.654,6.654,0,0,1-1.164,4.107A3.731,3.731,0,0,1,46.281.205,3.456,3.456,0,0,1,43.564-.964V4.266H40.6v-15.36h2.748l.1,1.087A3.483,3.483,0,0,1,46.26-11.3a3.757,3.757,0,0,1,3.189,1.518A6.834,6.834,0,0,1,50.588-5.6Zm-2.963-.226a4.391,4.391,0,0,0-.549-2.4,1.785,1.785,0,0,0-1.594-.843,1.94,1.94,0,0,0-1.917,1.07v4.556a1.972,1.972,0,0,0,1.938,1.1Q47.624-2.184,47.624-5.671ZM57.53.205a5.447,5.447,0,0,1-3.973-1.5,5.321,5.321,0,0,1-1.533-3.989v-.287a6.7,6.7,0,0,1,.646-2.989,4.741,4.741,0,0,1,1.83-2.03,5.137,5.137,0,0,1,2.7-.713,4.6,4.6,0,0,1,3.584,1.436,5.833,5.833,0,0,1,1.307,4.071v1.21H55.028a2.753,2.753,0,0,0,.866,1.743,2.619,2.619,0,0,0,1.83.656A3.2,3.2,0,0,0,60.4-3.425l1.456,1.63a4.449,4.449,0,0,1-1.8,1.471A5.921,5.921,0,0,1,57.53.205Zm-.338-9.116a1.852,1.852,0,0,0-1.43.6,3.093,3.093,0,0,0-.7,1.71H59.18V-6.84a2.206,2.206,0,0,0-.533-1.529A1.91,1.91,0,0,0,57.191-8.911Zm12.817.595A8.051,8.051,0,0,0,68.942-8.4a2.171,2.171,0,0,0-2.2,1.138V0H63.774V-11.095h2.8l.082,1.323A2.746,2.746,0,0,1,69.127-11.3a3.105,3.105,0,0,1,.923.133ZM74.561,0H71.588V-11.095h2.974ZM71.413-13.966a1.459,1.459,0,0,1,.446-1.1,1.676,1.676,0,0,1,1.215-.431,1.679,1.679,0,0,1,1.21.431,1.451,1.451,0,0,1,.451,1.1,1.455,1.455,0,0,1-.456,1.107,1.684,1.684,0,0,1-1.2.431,1.684,1.684,0,0,1-1.2-.431A1.455,1.455,0,0,1,71.413-13.966ZM76.54-5.65a6.58,6.58,0,0,1,.636-2.943,4.654,4.654,0,0,1,1.83-2A5.34,5.34,0,0,1,81.78-11.3a5.052,5.052,0,0,1,3.666,1.374A5.514,5.514,0,0,1,87.03-6.193l.021.759a5.8,5.8,0,0,1-1.425,4.1A4.954,4.954,0,0,1,81.8.205a4.979,4.979,0,0,1-3.83-1.538,5.9,5.9,0,0,1-1.43-4.184Zm2.963.21A4.147,4.147,0,0,0,80.1-3.021a1.962,1.962,0,0,0,1.7.837,1.966,1.966,0,0,0,1.682-.827,4.538,4.538,0,0,0,.6-2.644,4.106,4.106,0,0,0-.6-2.4,1.967,1.967,0,0,0-1.7-.852,1.934,1.934,0,0,0-1.682.847A4.614,4.614,0,0,0,79.5-5.44ZM95.11-8.316A8.051,8.051,0,0,0,94.044-8.4a2.171,2.171,0,0,0-2.2,1.138V0H88.876V-11.095h2.8l.082,1.323A2.746,2.746,0,0,1,94.228-11.3a3.105,3.105,0,0,1,.923.133Z" transform="translate(1198.5 12120.157)" fill="#fff"/>
    <path id="Trazado_142822" data-name="Trazado 142822" d="M0,0H233V10H0Z" transform="translate(810 12243.157)" fill="#ffa726"/>
    <path id="Trazado_142813" data-name="Trazado 142813" d="M0,0H233V10H0Z" transform="translate(1081.5 12243.157)" fill="#ffa726"/>
    <path id="Trazado_142823" data-name="Trazado 142823" d="M0,0H233V52H0Z" transform="translate(810 12134.157)" fill="#fff6db"/>
    <path id="Trazado_142814" data-name="Trazado 142814" d="M0,0H233V52H0Z" transform="translate(1081.5 12134.157)" fill="#fff6db"/>
    <path id="Trazado_142824" data-name="Trazado 142824" d="M0,0H233V57H0Z" transform="translate(810 12186.157)" fill="#ffedb7"/>
    <path id="Trazado_142815" data-name="Trazado 142815" d="M0,0H233V57H0Z" transform="translate(1081.5 12186.157)" fill="#ffedb7"/>
    <path id="Trazado_142825" data-name="Trazado 142825" d="M-36.133-6.367h2.82v2.039h-2.82v3.188h-2.148V-4.328h-2.828V-6.367h2.828V-9.422h2.148ZM-27.422,0V-6.8H-28.68V-8.453h1.258v-.391a3.17,3.17,0,0,1,.98-2.457,3.945,3.945,0,0,1,2.723-.863,9.031,9.031,0,0,1,2.563.461l-.328,1.867a10,10,0,0,0-1.187-.293,5.835,5.835,0,0,0-.906-.066q-1.578,0-1.578,1.4v.344h1.664V-6.8h-1.664V0Zm7.32,0h-2.266V-8.453H-20.1Zm5.758.156A4.15,4.15,0,0,1-17.371-.984a4.054,4.054,0,0,1-1.168-3.039v-.219a5.106,5.106,0,0,1,.492-2.277,3.612,3.612,0,0,1,1.395-1.547,3.914,3.914,0,0,1,2.059-.543,3.508,3.508,0,0,1,2.73,1.094,4.444,4.444,0,0,1,1,3.1v.922H-16.25a2.1,2.1,0,0,0,.66,1.328,2,2,0,0,0,1.395.5,2.437,2.437,0,0,0,2.039-.945l1.109,1.242A3.389,3.389,0,0,1-12.422-.246,4.511,4.511,0,0,1-14.344.156ZM-14.6-6.789a1.411,1.411,0,0,0-1.09.455,2.357,2.357,0,0,0-.535,1.3h3.141v-.181a1.681,1.681,0,0,0-.406-1.165A1.456,1.456,0,0,0-14.6-6.789ZM-7.2,0H-9.469V-12H-7.2ZM-5.7-4.289a5.094,5.094,0,0,1,.887-3.148A2.877,2.877,0,0,1-2.383-8.609a2.589,2.589,0,0,1,2.039.922V-12H1.922V0H-.117L-.227-.9A2.657,2.657,0,0,1-2.4.156,2.869,2.869,0,0,1-4.793-1.02,5.258,5.258,0,0,1-5.7-4.289Zm2.258.161A3.355,3.355,0,0,0-3.023-2.3a1.348,1.348,0,0,0,1.2.636A1.51,1.51,0,0,0-.344-2.551V-5.9A1.489,1.489,0,0,0-1.8-6.789Q-3.438-6.789-3.437-4.128ZM3.781-1.109a1.137,1.137,0,0,1,.363-.875,1.289,1.289,0,0,1,.91-.336,1.3,1.3,0,0,1,.918.336,1.137,1.137,0,0,1,.363.875,1.121,1.121,0,0,1-.359.863,1.305,1.305,0,0,1-.922.332,1.294,1.294,0,0,1-.914-.332A1.121,1.121,0,0,1,3.781-1.109Zm0-6.4a1.137,1.137,0,0,1,.363-.875,1.289,1.289,0,0,1,.91-.336,1.3,1.3,0,0,1,.918.336,1.137,1.137,0,0,1,.363.875,1.121,1.121,0,0,1-.359.863,1.305,1.305,0,0,1-.922.332,1.294,1.294,0,0,1-.914-.332A1.121,1.121,0,0,1,3.781-7.508ZM14.359-10.5v2.047h1.578v1.117H14.359v5.249a1.173,1.173,0,0,0,.211.763.888.888,0,0,0,.719.254,3.5,3.5,0,0,0,.688-.094V0a4.215,4.215,0,0,1-1.109.155A1.8,1.8,0,0,1,13.406-.43a2.517,2.517,0,0,1-.492-1.664V-7.336H11.375V-8.453h1.539V-10.5Zm6.031,8.383,1.969-6.336h1.547L20.508,1.3Q19.719,3.414,18,3.414l-.273-.023-.539-.1V2.117l.391.031a1.923,1.923,0,0,0,1.145-.3A2.148,2.148,0,0,0,19.4.766l.32-.859L16.7-8.453h1.578ZM32.336-4.133a5.062,5.062,0,0,1-.883,3.109A2.829,2.829,0,0,1,29.063.156,3.1,3.1,0,0,1,26.641-.82V3.25H25.2v-11.7h1.32l.07.938a2.977,2.977,0,0,1,2.453-1.094,2.882,2.882,0,0,1,2.41,1.148,5.117,5.117,0,0,1,.887,3.2ZM30.891-4.3a3.735,3.735,0,0,0-.609-2.258,1.963,1.963,0,0,0-1.672-.828,2.125,2.125,0,0,0-1.969,1.164V-2.18a2.129,2.129,0,0,0,1.984,1.156,1.954,1.954,0,0,0,1.652-.824A4.077,4.077,0,0,0,30.891-4.3ZM37.68.156a3.693,3.693,0,0,1-2.8-1.129A4.19,4.19,0,0,1,33.8-3.992v-.266a5.073,5.073,0,0,1,.48-2.246,3.748,3.748,0,0,1,1.344-1.547A3.378,3.378,0,0,1,37.5-8.609a3.166,3.166,0,0,1,2.563,1.086,4.7,4.7,0,0,1,.914,3.109v.6H35.25a3,3,0,0,0,.73,2.02,2.3,2.3,0,0,0,1.777.77,2.517,2.517,0,0,0,1.3-.312,3.259,3.259,0,0,0,.93-.828l.883.688A3.55,3.55,0,0,1,37.68.156ZM37.5-7.422a1.928,1.928,0,0,0-1.469.637A3.1,3.1,0,0,0,35.3-5h4.234v-.109a2.753,2.753,0,0,0-.594-1.707A1.815,1.815,0,0,0,37.5-7.422Z" transform="translate(927 12165.657)" fill="#00104e"/>
    <path id="Trazado_142826" data-name="Trazado 142826" d="M-36.133-6.367h2.82v2.039h-2.82v3.188h-2.148V-4.328h-2.828V-6.367h2.828V-9.422h2.148ZM-27.422,0V-6.8H-28.68V-8.453h1.258v-.391a3.17,3.17,0,0,1,.98-2.457,3.945,3.945,0,0,1,2.723-.863,9.031,9.031,0,0,1,2.563.461l-.328,1.867a10,10,0,0,0-1.187-.293,5.835,5.835,0,0,0-.906-.066q-1.578,0-1.578,1.4v.344h1.664V-6.8h-1.664V0Zm7.32,0h-2.266V-8.453H-20.1Zm5.758.156A4.15,4.15,0,0,1-17.371-.984a4.054,4.054,0,0,1-1.168-3.039v-.219a5.106,5.106,0,0,1,.492-2.277,3.612,3.612,0,0,1,1.395-1.547,3.914,3.914,0,0,1,2.059-.543,3.508,3.508,0,0,1,2.73,1.094,4.444,4.444,0,0,1,1,3.1v.922H-16.25a2.1,2.1,0,0,0,.66,1.328,2,2,0,0,0,1.395.5,2.437,2.437,0,0,0,2.039-.945l1.109,1.242A3.389,3.389,0,0,1-12.422-.246,4.511,4.511,0,0,1-14.344.156ZM-14.6-6.789a1.411,1.411,0,0,0-1.09.455,2.357,2.357,0,0,0-.535,1.3h3.141v-.181a1.681,1.681,0,0,0-.406-1.165A1.456,1.456,0,0,0-14.6-6.789ZM-7.2,0H-9.469V-12H-7.2ZM-5.7-4.289a5.094,5.094,0,0,1,.887-3.148A2.877,2.877,0,0,1-2.383-8.609a2.589,2.589,0,0,1,2.039.922V-12H1.922V0H-.117L-.227-.9A2.657,2.657,0,0,1-2.4.156,2.869,2.869,0,0,1-4.793-1.02,5.258,5.258,0,0,1-5.7-4.289Zm2.258.161A3.355,3.355,0,0,0-3.023-2.3a1.348,1.348,0,0,0,1.2.636A1.51,1.51,0,0,0-.344-2.551V-5.9A1.489,1.489,0,0,0-1.8-6.789Q-3.438-6.789-3.437-4.128ZM3.781-1.109a1.137,1.137,0,0,1,.363-.875,1.289,1.289,0,0,1,.91-.336,1.3,1.3,0,0,1,.918.336,1.137,1.137,0,0,1,.363.875,1.121,1.121,0,0,1-.359.863,1.305,1.305,0,0,1-.922.332,1.294,1.294,0,0,1-.914-.332A1.121,1.121,0,0,1,3.781-1.109Zm0-6.4a1.137,1.137,0,0,1,.363-.875,1.289,1.289,0,0,1,.91-.336,1.3,1.3,0,0,1,.918.336,1.137,1.137,0,0,1,.363.875,1.121,1.121,0,0,1-.359.863,1.305,1.305,0,0,1-.922.332,1.294,1.294,0,0,1-.914-.332A1.121,1.121,0,0,1,3.781-7.508ZM14.359-10.5v2.047h1.578v1.117H14.359v5.249a1.173,1.173,0,0,0,.211.763.888.888,0,0,0,.719.254,3.5,3.5,0,0,0,.688-.094V0a4.215,4.215,0,0,1-1.109.155A1.8,1.8,0,0,1,13.406-.43a2.517,2.517,0,0,1-.492-1.664V-7.336H11.375V-8.453h1.539V-10.5Zm6.031,8.383,1.969-6.336h1.547L20.508,1.3Q19.719,3.414,18,3.414l-.273-.023-.539-.1V2.117l.391.031a1.923,1.923,0,0,0,1.145-.3A2.148,2.148,0,0,0,19.4.766l.32-.859L16.7-8.453h1.578ZM32.336-4.133a5.062,5.062,0,0,1-.883,3.109A2.829,2.829,0,0,1,29.063.156,3.1,3.1,0,0,1,26.641-.82V3.25H25.2v-11.7h1.32l.07.938a2.977,2.977,0,0,1,2.453-1.094,2.882,2.882,0,0,1,2.41,1.148,5.117,5.117,0,0,1,.887,3.2ZM30.891-4.3a3.735,3.735,0,0,0-.609-2.258,1.963,1.963,0,0,0-1.672-.828,2.125,2.125,0,0,0-1.969,1.164V-2.18a2.129,2.129,0,0,0,1.984,1.156,1.954,1.954,0,0,0,1.652-.824A4.077,4.077,0,0,0,30.891-4.3ZM37.68.156a3.693,3.693,0,0,1-2.8-1.129A4.19,4.19,0,0,1,33.8-3.992v-.266a5.073,5.073,0,0,1,.48-2.246,3.748,3.748,0,0,1,1.344-1.547A3.378,3.378,0,0,1,37.5-8.609a3.166,3.166,0,0,1,2.563,1.086,4.7,4.7,0,0,1,.914,3.109v.6H35.25a3,3,0,0,0,.73,2.02,2.3,2.3,0,0,0,1.777.77,2.517,2.517,0,0,0,1.3-.312,3.259,3.259,0,0,0,.93-.828l.883.688A3.55,3.55,0,0,1,37.68.156ZM37.5-7.422a1.928,1.928,0,0,0-1.469.637A3.1,3.1,0,0,0,35.3-5h4.234v-.109a2.753,2.753,0,0,0-.594-1.707A1.815,1.815,0,0,0,37.5-7.422Z" transform="translate(1198.5 12165.657)" fill="#00104e"/>
    <path id="Trazado_142827" data-name="Trazado 142827" d="M-66.957-6.367h2.82v2.039h-2.82v3.188h-2.148V-4.328h-2.828V-6.367h2.828V-9.422h2.148Zm10.281-2.086.07.945a2.971,2.971,0,0,1,2.43-1.1A2.255,2.255,0,0,1-51.934-7.32a2.9,2.9,0,0,1,2.539-1.289,2.521,2.521,0,0,1,2.047.8,3.681,3.681,0,0,1,.672,2.41V0h-2.266V-5.4a1.616,1.616,0,0,0-.281-1.053,1.245,1.245,0,0,0-.992-.333,1.409,1.409,0,0,0-1.406.971L-51.613,0h-2.258V-5.4A1.6,1.6,0,0,0-54.16-6.46a1.257,1.257,0,0,0-.984-.329,1.463,1.463,0,0,0-1.391.8V0h-2.258V-8.453ZM-41.051.156A4.15,4.15,0,0,1-44.078-.984a4.054,4.054,0,0,1-1.168-3.039v-.219a5.106,5.106,0,0,1,.492-2.277,3.612,3.612,0,0,1,1.395-1.547A3.914,3.914,0,0,1-41.3-8.609a3.508,3.508,0,0,1,2.73,1.094,4.444,4.444,0,0,1,1,3.1v.922h-5.383a2.1,2.1,0,0,0,.66,1.328,2,2,0,0,0,1.395.5,2.437,2.437,0,0,0,2.039-.945l1.109,1.242A3.389,3.389,0,0,1-39.129-.246,4.511,4.511,0,0,1-41.051.156Zm-.258-6.945a1.411,1.411,0,0,0-1.09.455,2.357,2.357,0,0,0-.535,1.3h3.141v-.181A1.681,1.681,0,0,0-40.2-6.377,1.456,1.456,0,0,0-41.309-6.789Zm7.719-3.742v2.078h1.445V-6.8H-33.59v4.219a1.007,1.007,0,0,0,.18.672.9.9,0,0,0,.688.2,3.6,3.6,0,0,0,.664-.055V-.047a4.648,4.648,0,0,1-1.367.2,2.156,2.156,0,0,1-2.422-2.4V-6.8h-1.234V-8.453h1.234v-2.078Zm4.906,3a2.818,2.818,0,0,1,2.258-1.078q2.75,0,2.789,3.2V0h-2.258V-5.364a1.577,1.577,0,0,0-.312-1.077,1.338,1.338,0,0,0-1.039-.348,1.536,1.536,0,0,0-1.437.767V0h-2.258V-12h2.258Zm6.4,3.227A5.013,5.013,0,0,1-21.8-6.547,3.546,3.546,0,0,1-20.406-8.07a4.069,4.069,0,0,1,2.113-.539A3.849,3.849,0,0,1-15.5-7.562a4.2,4.2,0,0,1,1.207,2.844l.016.578A4.418,4.418,0,0,1-15.363-1.02,3.775,3.775,0,0,1-18.277.156,3.793,3.793,0,0,1-21.2-1.016,4.5,4.5,0,0,1-22.285-4.2Zm2.258.16A3.16,3.16,0,0,0-19.574-2.3a1.5,1.5,0,0,0,1.3.638A1.5,1.5,0,0,0-17-2.294a3.457,3.457,0,0,0,.461-2.015A3.128,3.128,0,0,0-17-6.14a1.5,1.5,0,0,0-1.3-.649,1.474,1.474,0,0,0-1.281.646A3.516,3.516,0,0,0-20.027-4.144Zm6.789-.145a5.094,5.094,0,0,1,.887-3.148A2.877,2.877,0,0,1-9.926-8.609a2.589,2.589,0,0,1,2.039.922V-12h2.266V0H-7.66L-7.77-.9A2.657,2.657,0,0,1-9.941.156,2.869,2.869,0,0,1-12.336-1.02,5.258,5.258,0,0,1-13.238-4.289Zm2.258.161A3.355,3.355,0,0,0-10.566-2.3a1.348,1.348,0,0,0,1.2.636,1.51,1.51,0,0,0,1.477-.887V-5.9a1.489,1.489,0,0,0-1.461-.887Q-10.98-6.789-10.98-4.128Zm7.211-.5a11.99,11.99,0,0,1,.477-3.406,8.989,8.989,0,0,1,1.406-2.863,5.251,5.251,0,0,1,2.016-1.73l.438,1.219A5.438,5.438,0,0,0-1.215-8.8a12.082,12.082,0,0,0-.641,4.125v.242A12.313,12.313,0,0,0-1.223-.289,5.544,5.544,0,0,0,.566,2.359l-.437,1.2a5.253,5.253,0,0,1-1.98-1.684,8.838,8.838,0,0,1-1.4-2.785,11.918,11.918,0,0,1-.516-3.3Zm8.219-5.906v2.078H5.895V-6.8H4.449v4.219a1.007,1.007,0,0,0,.18.672.9.9,0,0,0,.688.2,3.6,3.6,0,0,0,.664-.055V-.047a4.648,4.648,0,0,1-1.367.2,2.156,2.156,0,0,1-2.422-2.4V-6.8H.957V-8.453H2.191v-2.078ZM10.309-3.2l1.563-5.258h2.422l-3.4,9.766-.187.445a2.577,2.577,0,0,1-2.5,1.656,3.552,3.552,0,0,1-1-.148V1.555l.344.008a1.857,1.857,0,0,0,.957-.2A1.283,1.283,0,0,0,9,.719l.266-.7L6.309-8.453h2.43Zm12.484-.953a5.07,5.07,0,0,1-.887,3.129A2.843,2.843,0,0,1,19.512.156a2.633,2.633,0,0,1-2.07-.891V3.25H15.184v-11.7h2.094l.078.828A2.654,2.654,0,0,1,19.5-8.609a2.862,2.862,0,0,1,2.43,1.156,5.207,5.207,0,0,1,.867,3.188Zm-2.258-.172a3.345,3.345,0,0,0-.418-1.826A1.36,1.36,0,0,0,18.9-6.789a1.478,1.478,0,0,0-1.461.815V-2.5a1.5,1.5,0,0,0,1.477.839Q20.535-1.664,20.535-4.321ZM28.082.156A4.15,4.15,0,0,1,25.055-.984a4.054,4.054,0,0,1-1.168-3.039v-.219a5.106,5.106,0,0,1,.492-2.277,3.612,3.612,0,0,1,1.395-1.547,3.914,3.914,0,0,1,2.059-.543,3.508,3.508,0,0,1,2.73,1.094,4.444,4.444,0,0,1,1,3.1v.922H26.176a2.1,2.1,0,0,0,.66,1.328,2,2,0,0,0,1.395.5,2.437,2.437,0,0,0,2.039-.945l1.109,1.242A3.389,3.389,0,0,1,30-.246,4.511,4.511,0,0,1,28.082.156Zm-.258-6.945a1.411,1.411,0,0,0-1.09.455,2.357,2.357,0,0,0-.535,1.3H29.34v-.181a1.681,1.681,0,0,0-.406-1.165A1.456,1.456,0,0,0,27.824-6.789ZM36.73-4.445a11.377,11.377,0,0,1-.508,3.4,9.225,9.225,0,0,1-1.461,2.883,5.264,5.264,0,0,1-2.039,1.719l-.437-1.2a5.494,5.494,0,0,0,1.75-2.578A11.939,11.939,0,0,0,34.7-4.227v-.414a12.208,12.208,0,0,0-.637-4.117,5.727,5.727,0,0,0-1.777-2.672l.438-1.2a5.265,5.265,0,0,1,2,1.672,9.106,9.106,0,0,1,1.461,2.82A11.3,11.3,0,0,1,36.73-4.8ZM38.59-1.109a1.137,1.137,0,0,1,.363-.875,1.289,1.289,0,0,1,.91-.336,1.3,1.3,0,0,1,.918.336,1.137,1.137,0,0,1,.363.875,1.121,1.121,0,0,1-.359.863,1.305,1.305,0,0,1-.922.332,1.294,1.294,0,0,1-.914-.332A1.121,1.121,0,0,1,38.59-1.109Zm0-6.4a1.137,1.137,0,0,1,.363-.875,1.289,1.289,0,0,1,.91-.336,1.3,1.3,0,0,1,.918.336,1.137,1.137,0,0,1,.363.875,1.121,1.121,0,0,1-.359.863,1.305,1.305,0,0,1-.922.332,1.294,1.294,0,0,1-.914-.332A1.121,1.121,0,0,1,38.59-7.508ZM49.168-10.5v2.047h1.578v1.117H49.168v5.249a1.173,1.173,0,0,0,.211.763.888.888,0,0,0,.719.254,3.5,3.5,0,0,0,.688-.094V0a4.215,4.215,0,0,1-1.109.155A1.8,1.8,0,0,1,48.215-.43a2.517,2.517,0,0,1-.492-1.664V-7.336H46.184V-8.453h1.539V-10.5ZM55.2-2.117l1.969-6.336h1.547L55.316,1.3q-.789,2.109-2.508,2.109l-.273-.023L52,3.289V2.117l.391.031a1.923,1.923,0,0,0,1.145-.3A2.148,2.148,0,0,0,54.207.766l.32-.859L51.512-8.453H53.09ZM67.145-4.133a5.062,5.062,0,0,1-.883,3.109A2.829,2.829,0,0,1,63.871.156,3.1,3.1,0,0,1,61.449-.82V3.25H60v-11.7h1.32l.07.938a2.977,2.977,0,0,1,2.453-1.094,2.882,2.882,0,0,1,2.41,1.148,5.117,5.117,0,0,1,.887,3.2ZM65.7-4.3a3.735,3.735,0,0,0-.609-2.258,1.963,1.963,0,0,0-1.672-.828,2.125,2.125,0,0,0-1.969,1.164V-2.18a2.129,2.129,0,0,0,1.984,1.156,1.954,1.954,0,0,0,1.652-.824A4.077,4.077,0,0,0,65.7-4.3ZM72.488.156a3.693,3.693,0,0,1-2.8-1.129,4.19,4.19,0,0,1-1.078-3.02v-.266a5.073,5.073,0,0,1,.48-2.246,3.748,3.748,0,0,1,1.344-1.547,3.378,3.378,0,0,1,1.871-.559,3.166,3.166,0,0,1,2.563,1.086,4.7,4.7,0,0,1,.914,3.109v.6H70.059a3,3,0,0,0,.73,2.02,2.3,2.3,0,0,0,1.777.77,2.517,2.517,0,0,0,1.3-.312,3.259,3.259,0,0,0,.93-.828l.883.688A3.55,3.55,0,0,1,72.488.156Zm-.18-7.578a1.928,1.928,0,0,0-1.469.637A3.1,3.1,0,0,0,70.105-5H74.34v-.109a2.753,2.753,0,0,0-.594-1.707A1.815,1.815,0,0,0,72.309-7.422Z" transform="translate(927 12217.656)" fill="#00104e"/>
    <path id="Trazado_142816" data-name="Trazado 142816" d="M-66.957-6.367h2.82v2.039h-2.82v3.188h-2.148V-4.328h-2.828V-6.367h2.828V-9.422h2.148Zm10.281-2.086.07.945a2.971,2.971,0,0,1,2.43-1.1A2.255,2.255,0,0,1-51.934-7.32a2.9,2.9,0,0,1,2.539-1.289,2.521,2.521,0,0,1,2.047.8,3.681,3.681,0,0,1,.672,2.41V0h-2.266V-5.4a1.616,1.616,0,0,0-.281-1.053,1.245,1.245,0,0,0-.992-.333,1.409,1.409,0,0,0-1.406.971L-51.613,0h-2.258V-5.4A1.6,1.6,0,0,0-54.16-6.46a1.257,1.257,0,0,0-.984-.329,1.463,1.463,0,0,0-1.391.8V0h-2.258V-8.453ZM-41.051.156A4.15,4.15,0,0,1-44.078-.984a4.054,4.054,0,0,1-1.168-3.039v-.219a5.106,5.106,0,0,1,.492-2.277,3.612,3.612,0,0,1,1.395-1.547A3.914,3.914,0,0,1-41.3-8.609a3.508,3.508,0,0,1,2.73,1.094,4.444,4.444,0,0,1,1,3.1v.922h-5.383a2.1,2.1,0,0,0,.66,1.328,2,2,0,0,0,1.395.5,2.437,2.437,0,0,0,2.039-.945l1.109,1.242A3.389,3.389,0,0,1-39.129-.246,4.511,4.511,0,0,1-41.051.156Zm-.258-6.945a1.411,1.411,0,0,0-1.09.455,2.357,2.357,0,0,0-.535,1.3h3.141v-.181A1.681,1.681,0,0,0-40.2-6.377,1.456,1.456,0,0,0-41.309-6.789Zm7.719-3.742v2.078h1.445V-6.8H-33.59v4.219a1.007,1.007,0,0,0,.18.672.9.9,0,0,0,.688.2,3.6,3.6,0,0,0,.664-.055V-.047a4.648,4.648,0,0,1-1.367.2,2.156,2.156,0,0,1-2.422-2.4V-6.8h-1.234V-8.453h1.234v-2.078Zm4.906,3a2.818,2.818,0,0,1,2.258-1.078q2.75,0,2.789,3.2V0h-2.258V-5.364a1.577,1.577,0,0,0-.312-1.077,1.338,1.338,0,0,0-1.039-.348,1.536,1.536,0,0,0-1.437.767V0h-2.258V-12h2.258Zm6.4,3.227A5.013,5.013,0,0,1-21.8-6.547,3.546,3.546,0,0,1-20.406-8.07a4.069,4.069,0,0,1,2.113-.539A3.849,3.849,0,0,1-15.5-7.562a4.2,4.2,0,0,1,1.207,2.844l.016.578A4.418,4.418,0,0,1-15.363-1.02,3.775,3.775,0,0,1-18.277.156,3.793,3.793,0,0,1-21.2-1.016,4.5,4.5,0,0,1-22.285-4.2Zm2.258.16A3.16,3.16,0,0,0-19.574-2.3a1.5,1.5,0,0,0,1.3.638A1.5,1.5,0,0,0-17-2.294a3.457,3.457,0,0,0,.461-2.015A3.128,3.128,0,0,0-17-6.14a1.5,1.5,0,0,0-1.3-.649,1.474,1.474,0,0,0-1.281.646A3.516,3.516,0,0,0-20.027-4.144Zm6.789-.145a5.094,5.094,0,0,1,.887-3.148A2.877,2.877,0,0,1-9.926-8.609a2.589,2.589,0,0,1,2.039.922V-12h2.266V0H-7.66L-7.77-.9A2.657,2.657,0,0,1-9.941.156,2.869,2.869,0,0,1-12.336-1.02,5.258,5.258,0,0,1-13.238-4.289Zm2.258.161A3.355,3.355,0,0,0-10.566-2.3a1.348,1.348,0,0,0,1.2.636,1.51,1.51,0,0,0,1.477-.887V-5.9a1.489,1.489,0,0,0-1.461-.887Q-10.98-6.789-10.98-4.128Zm7.211-.5a11.99,11.99,0,0,1,.477-3.406,8.989,8.989,0,0,1,1.406-2.863,5.251,5.251,0,0,1,2.016-1.73l.438,1.219A5.438,5.438,0,0,0-1.215-8.8a12.082,12.082,0,0,0-.641,4.125v.242A12.313,12.313,0,0,0-1.223-.289,5.544,5.544,0,0,0,.566,2.359l-.437,1.2a5.253,5.253,0,0,1-1.98-1.684,8.838,8.838,0,0,1-1.4-2.785,11.918,11.918,0,0,1-.516-3.3Zm8.219-5.906v2.078H5.895V-6.8H4.449v4.219a1.007,1.007,0,0,0,.18.672.9.9,0,0,0,.688.2,3.6,3.6,0,0,0,.664-.055V-.047a4.648,4.648,0,0,1-1.367.2,2.156,2.156,0,0,1-2.422-2.4V-6.8H.957V-8.453H2.191v-2.078ZM10.309-3.2l1.563-5.258h2.422l-3.4,9.766-.187.445a2.577,2.577,0,0,1-2.5,1.656,3.552,3.552,0,0,1-1-.148V1.555l.344.008a1.857,1.857,0,0,0,.957-.2A1.283,1.283,0,0,0,9,.719l.266-.7L6.309-8.453h2.43Zm12.484-.953a5.07,5.07,0,0,1-.887,3.129A2.843,2.843,0,0,1,19.512.156a2.633,2.633,0,0,1-2.07-.891V3.25H15.184v-11.7h2.094l.078.828A2.654,2.654,0,0,1,19.5-8.609a2.862,2.862,0,0,1,2.43,1.156,5.207,5.207,0,0,1,.867,3.188Zm-2.258-.172a3.345,3.345,0,0,0-.418-1.826A1.36,1.36,0,0,0,18.9-6.789a1.478,1.478,0,0,0-1.461.815V-2.5a1.5,1.5,0,0,0,1.477.839Q20.535-1.664,20.535-4.321ZM28.082.156A4.15,4.15,0,0,1,25.055-.984a4.054,4.054,0,0,1-1.168-3.039v-.219a5.106,5.106,0,0,1,.492-2.277,3.612,3.612,0,0,1,1.395-1.547,3.914,3.914,0,0,1,2.059-.543,3.508,3.508,0,0,1,2.73,1.094,4.444,4.444,0,0,1,1,3.1v.922H26.176a2.1,2.1,0,0,0,.66,1.328,2,2,0,0,0,1.395.5,2.437,2.437,0,0,0,2.039-.945l1.109,1.242A3.389,3.389,0,0,1,30-.246,4.511,4.511,0,0,1,28.082.156Zm-.258-6.945a1.411,1.411,0,0,0-1.09.455,2.357,2.357,0,0,0-.535,1.3H29.34v-.181a1.681,1.681,0,0,0-.406-1.165A1.456,1.456,0,0,0,27.824-6.789ZM36.73-4.445a11.377,11.377,0,0,1-.508,3.4,9.225,9.225,0,0,1-1.461,2.883,5.264,5.264,0,0,1-2.039,1.719l-.437-1.2a5.494,5.494,0,0,0,1.75-2.578A11.939,11.939,0,0,0,34.7-4.227v-.414a12.208,12.208,0,0,0-.637-4.117,5.727,5.727,0,0,0-1.777-2.672l.438-1.2a5.265,5.265,0,0,1,2,1.672,9.106,9.106,0,0,1,1.461,2.82A11.3,11.3,0,0,1,36.73-4.8ZM38.59-1.109a1.137,1.137,0,0,1,.363-.875,1.289,1.289,0,0,1,.91-.336,1.3,1.3,0,0,1,.918.336,1.137,1.137,0,0,1,.363.875,1.121,1.121,0,0,1-.359.863,1.305,1.305,0,0,1-.922.332,1.294,1.294,0,0,1-.914-.332A1.121,1.121,0,0,1,38.59-1.109Zm0-6.4a1.137,1.137,0,0,1,.363-.875,1.289,1.289,0,0,1,.91-.336,1.3,1.3,0,0,1,.918.336,1.137,1.137,0,0,1,.363.875,1.121,1.121,0,0,1-.359.863,1.305,1.305,0,0,1-.922.332,1.294,1.294,0,0,1-.914-.332A1.121,1.121,0,0,1,38.59-7.508ZM49.168-10.5v2.047h1.578v1.117H49.168v5.249a1.173,1.173,0,0,0,.211.763.888.888,0,0,0,.719.254,3.5,3.5,0,0,0,.688-.094V0a4.215,4.215,0,0,1-1.109.155A1.8,1.8,0,0,1,48.215-.43a2.517,2.517,0,0,1-.492-1.664V-7.336H46.184V-8.453h1.539V-10.5ZM55.2-2.117l1.969-6.336h1.547L55.316,1.3q-.789,2.109-2.508,2.109l-.273-.023L52,3.289V2.117l.391.031a1.923,1.923,0,0,0,1.145-.3A2.148,2.148,0,0,0,54.207.766l.32-.859L51.512-8.453H53.09ZM67.145-4.133a5.062,5.062,0,0,1-.883,3.109A2.829,2.829,0,0,1,63.871.156,3.1,3.1,0,0,1,61.449-.82V3.25H60v-11.7h1.32l.07.938a2.977,2.977,0,0,1,2.453-1.094,2.882,2.882,0,0,1,2.41,1.148,5.117,5.117,0,0,1,.887,3.2ZM65.7-4.3a3.735,3.735,0,0,0-.609-2.258,1.963,1.963,0,0,0-1.672-.828,2.125,2.125,0,0,0-1.969,1.164V-2.18a2.129,2.129,0,0,0,1.984,1.156,1.954,1.954,0,0,0,1.652-.824A4.077,4.077,0,0,0,65.7-4.3ZM72.488.156a3.693,3.693,0,0,1-2.8-1.129,4.19,4.19,0,0,1-1.078-3.02v-.266a5.073,5.073,0,0,1,.48-2.246,3.748,3.748,0,0,1,1.344-1.547,3.378,3.378,0,0,1,1.871-.559,3.166,3.166,0,0,1,2.563,1.086,4.7,4.7,0,0,1,.914,3.109v.6H70.059a3,3,0,0,0,.73,2.02,2.3,2.3,0,0,0,1.777.77,2.517,2.517,0,0,0,1.3-.312,3.259,3.259,0,0,0,.93-.828l.883.688A3.55,3.55,0,0,1,72.488.156Zm-.18-7.578a1.928,1.928,0,0,0-1.469.637A3.1,3.1,0,0,0,70.105-5H74.34v-.109a2.753,2.753,0,0,0-.594-1.707A1.815,1.815,0,0,0,72.309-7.422Z" transform="translate(1198.5 12217.656)" fill="#00104e"/>
    <path id="Trazado_140667" data-name="Trazado 140667" d="M0,0H233" transform="translate(810.5 12186.157)" fill="#039be5" stroke="#fc9c25" stroke-width="1"/>
    <path id="Trazado_140668" data-name="Trazado 140668" d="M0,0H233" transform="translate(1082 12186.157)" fill="#039be5" stroke="#fc9c25" stroke-width="1"/>
  </g>
</svg>
