<svg xmlns="http://www.w3.org/2000/svg" width="174.415" height="174.398" viewBox="0 0 174.415 174.398">
  <g id="Layer_7" data-name="Layer 7" transform="translate(-1 -1)">
    <path id="Trazado_140732" data-name="Trazado 140732" d="M2,127.539a85.175,85.175,0,0,0,25.316,3.854c52.826,0,95.638-48.494,95.638-108.3A123.766,123.766,0,0,0,121.125,2H2Z" transform="translate(1.813 1.813)" fill="#ebf7fe"/>
    <path id="Trazado_140733" data-name="Trazado 140733" d="M7,6H108.264V51.006H7Z" transform="translate(10.877 9.064)" fill="#4dd0e1"/>
    <g id="Grupo_82276" data-name="Grupo 82276" transform="translate(15.064 76.948)">
      <path id="Trazado_140734" data-name="Trazado 140734" d="M6,28H22.877V44.877H6Z" transform="translate(-6 -28)" fill="#ffedb7"/>
      <path id="Trazado_140735" data-name="Trazado 140735" d="M6,38H22.877V54.877H6Z" transform="translate(-6 -9.871)" fill="#ffedb7"/>
      <path id="Trazado_140736" data-name="Trazado 140736" d="M6,48H22.877V64.877H6Z" transform="translate(-6 8.258)" fill="#ffedb7"/>
    </g>
    <path id="Trazado_140737" data-name="Trazado 140737" d="M0,0H95.469V15.921H0Z" transform="translate(93.792 119.146) rotate(-45)" fill="#26a69a"/>
    <path id="Trazado_140738" data-name="Trazado 140738" d="M39.439,43,31,62.69l19.69-8.439Z" transform="translate(54.386 76.141)" fill="#c1c8d1"/>
    <path id="Trazado_140739" data-name="Trazado 140739" d="M0,0H15.921V15.921H0Z" transform="translate(150.041 62.897) rotate(-45)" fill="#ffca28"/>
    <path id="Trazado_140740" data-name="Trazado 140740" d="M10,14.626h5.626v22.5h5.626v-22.5h5.626V9H10Z" transform="translate(16.316 14.503)"/>
    <path id="Trazado_140741" data-name="Trazado 140741" d="M34,14.626h5.626v22.5h5.626v-22.5h5.626V9H34Z" transform="translate(59.825 14.503)"/>
    <path id="Trazado_140742" data-name="Trazado 140742" d="M18,11.813v22.5a2.813,2.813,0,0,0,2.813,2.813H34.877V31.5H23.626V25.877H34.877V20.252H23.626V14.626H34.877V9H20.813A2.813,2.813,0,0,0,18,11.813Z" transform="translate(30.819 14.503)"/>
    <path id="Trazado_140743" data-name="Trazado 140743" d="M26,17.439a8.439,8.439,0,0,0,8.439,8.439,2.813,2.813,0,1,1,0,5.626H26v5.626h8.439a8.439,8.439,0,1,0,0-16.877,2.813,2.813,0,0,1,0-5.626h8.439V9H34.439A8.439,8.439,0,0,0,26,17.439Z" transform="translate(45.322 14.503)"/>
    <path id="Trazado_140744" data-name="Trazado 140744" d="M8.813,55.632H110.076a2.813,2.813,0,0,0,2.813-2.813V7.813A2.813,2.813,0,0,0,110.076,5H8.813A2.813,2.813,0,0,0,6,7.813V52.819A2.813,2.813,0,0,0,8.813,55.632Zm2.813-45.006h95.638v39.38H11.626Z" transform="translate(9.064 7.252)"/>
    <path id="Trazado_140745" data-name="Trazado 140745" d="M7.813,54.416H24.69A2.813,2.813,0,0,0,27.5,51.6V35.879l7.623-7.595L31.132,24.29l-7.595,7.623H7.813A2.813,2.813,0,0,0,5,34.726V51.6A2.813,2.813,0,0,0,7.813,54.416ZM21.877,48.79H14.592L21.877,41.5ZM17.911,37.539l-7.285,7.285V37.539Z" transform="translate(7.252 42.222)"/>
    <path id="Trazado_140746" data-name="Trazado 140746" d="M24.69,47H7.813A2.813,2.813,0,0,0,5,49.813V66.69A2.813,2.813,0,0,0,7.813,69.5H24.69A2.813,2.813,0,0,0,27.5,66.69V49.813A2.813,2.813,0,0,0,24.69,47ZM21.877,63.877H10.626V52.626H21.877Z" transform="translate(7.252 83.392)"/>
    <path id="Trazado_140747" data-name="Trazado 140747" d="M28.319,35.29,23.537,40.1H7.813A2.813,2.813,0,0,0,5,42.913V59.79A2.813,2.813,0,0,0,7.813,62.6H24.69A2.813,2.813,0,0,0,27.5,59.79V44.066l4.81-4.782ZM17.911,45.726l-7.285,7.285V45.726Zm3.966,11.252H14.592l7.285-7.285Z" transform="translate(7.252 62.164)"/>
    <path id="Trazado_140748" data-name="Trazado 140748" d="M15,28H96.573v5.626H15Z" transform="translate(25.38 48.948)"/>
    <path id="Trazado_140749" data-name="Trazado 140749" d="M15,48H51.567v5.626H15Z" transform="translate(25.38 85.205)"/>
    <path id="Trazado_140750" data-name="Trazado 140750" d="M15,52H96.573v5.626H15Z" transform="translate(25.38 92.457)"/>
    <path id="Trazado_140751" data-name="Trazado 140751" d="M174.583,60.886,163.331,49.635a2.813,2.813,0,0,0-3.994,0L136.018,72.982V3.813A2.813,2.813,0,0,0,133.205,1H3.813A2.813,2.813,0,0,0,1,3.813V172.586A2.813,2.813,0,0,0,3.813,175.4H133.205a2.813,2.813,0,0,0,2.813-2.813V103.417L174.583,64.88a2.813,2.813,0,0,0,0-3.994Zm-79.8,63.177,5.373,5.373-9.423,4.051Zm3.01-4.923,52.291-52.291,7.285,7.285-52.291,52.291Zm32.6,50.632H6.626V6.626H130.392V78.607L120.8,88.2H40.38v5.626h74.794l-11.252,11.252H40.38V110.7H98.3l-5.626,5.626H40.38v5.626H89.549L82.8,137.734a2.808,2.808,0,0,0,3.685,3.685l19.69-8.439a3.122,3.122,0,0,0,.9-.591l23.319-23.347Zm30.942-99.6-7.285-7.285,7.285-7.285,7.285,7.285Z" transform="translate(0 0)"/>
  </g>
</svg>
