<svg xmlns="http://www.w3.org/2000/svg" width="75.629" height="75.631" viewBox="0 0 75.629 75.631">
  <g id="coding-cloud-web_design-programing-server" data-name="coding-cloud-web design-programing-server" transform="translate(-2 -1.997)">
    <path id="Trazado_140712" data-name="Trazado 140712" d="M7,22H70.023V50.991H7Z" transform="translate(1.302 5.21)" fill="#ffa726"/>
    <path id="Trazado_140713" data-name="Trazado 140713" d="M27,51H39.6v7.563H27Z" transform="translate(6.512 12.764)" fill="#808285"/>
    <path id="Trazado_140714" data-name="Trazado 140714" d="M21.521,57A2.521,2.521,0,0,0,19,59.521v2.521H51.772V59.521A2.521,2.521,0,0,0,49.251,57Z" transform="translate(4.428 14.326)" fill="#58595b"/>
    <path id="Trazado_140715" data-name="Trazado 140715" d="M27,51H39.6v2.521H27Z" transform="translate(6.512 12.764)" fill="#6d6e71"/>
    <path id="Trazado_140716" data-name="Trazado 140716" d="M76.106,30.732A13.854,13.854,0,0,1,62.241,44.6H16.864a13.865,13.865,0,1,1,5.256-26.7,17.647,17.647,0,0,1,34.865,0,13.713,13.713,0,0,1,5.256-1.034A13.858,13.858,0,0,1,76.106,30.732Z" transform="translate(0.261 0.26)" fill="#4dd0e1"/>
    <path id="Trazado_140719" data-name="Trazado 140719" d="M20,25H50.251V50.209H20Z" transform="translate(4.688 5.991)" fill="#fff6db"/>
    <path id="Trazado_140721" data-name="Trazado 140721" d="M53.637,45H7v5.042a2.529,2.529,0,0,0,2.521,2.521H67.5a2.529,2.529,0,0,0,2.521-2.521V45Z" transform="translate(1.302 11.201)" fill="#039be5"/>
    <path id="Trazado_140722" data-name="Trazado 140722" d="M47.73,19H22.521A2.521,2.521,0,0,0,20,21.521v5.042H50.251V21.521A2.521,2.521,0,0,0,47.73,19Z" transform="translate(4.688 4.429)" fill="#039be5"/>
    <g id="Grupo_82272" data-name="Grupo 82272" transform="translate(2 1.997)">
      <path id="Trazado_140723" data-name="Trazado 140723" d="M24.521,21H23.26a1.26,1.26,0,1,0,0,2.521h1.26a1.26,1.26,0,1,0,0-2.521Z" transform="translate(3.209 2.952)" fill="#231f20"/>
      <path id="Trazado_140724" data-name="Trazado 140724" d="M28.521,21H27.26a1.26,1.26,0,0,0,0,2.521h1.26a1.26,1.26,0,1,0,0-2.521Z" transform="translate(4.251 2.952)" fill="#231f20"/>
      <path id="Trazado_140725" data-name="Trazado 140725" d="M32.521,21H31.26a1.26,1.26,0,0,0,0,2.521h1.26a1.26,1.26,0,1,0,0-2.521Z" transform="translate(5.293 2.952)" fill="#231f20"/>
      <path id="Trazado_140726" data-name="Trazado 140726" d="M40.741,34.733,36.96,32.212a1.261,1.261,0,1,0-1.4,2.1l2.212,1.472-2.208,1.472a1.261,1.261,0,1,0,1.4,2.1l3.781-2.521a1.26,1.26,0,0,0,0-2.1Z" transform="translate(6.595 5.817)" fill="#231f20"/>
      <path id="Trazado_140727" data-name="Trazado 140727" d="M30.091,32.561a1.26,1.26,0,0,0-1.748-.349l-3.781,2.521a1.26,1.26,0,0,0,0,2.1l3.781,2.521a1.261,1.261,0,1,0,1.4-2.1l-2.212-1.472,2.208-1.472a1.26,1.26,0,0,0,.353-1.748Z" transform="translate(3.73 5.817)" fill="#231f20"/>
      <path id="Trazado_140728" data-name="Trazado 140728" d="M34.086,30.038a1.26,1.26,0,0,0-1.528.916L30.038,41.038a1.26,1.26,0,0,0,.916,1.529,1.23,1.23,0,0,0,.306.038,1.26,1.26,0,0,0,1.221-.954L35,31.567a1.26,1.26,0,0,0-.916-1.529Z" transform="translate(5.293 5.296)" fill="#231f20"/>
      <path id="Trazado_140729" data-name="Trazado 140729" d="M62.5,15.866a15.271,15.271,0,0,0-4.3.617,18.917,18.917,0,0,0-36.782,0A15.119,15.119,0,0,0,7.042,42.247v19a3.793,3.793,0,0,0,3.781,3.781H32.251v5.042h-6.3a3.793,3.793,0,0,0-3.781,3.781v2.521a1.26,1.26,0,0,0,1.26,1.26H56.2a1.26,1.26,0,0,0,1.26-1.26V73.847a3.793,3.793,0,0,0-3.781-3.781h-6.3V65.024H68.8a3.793,3.793,0,0,0,3.781-3.781V42.235A15.1,15.1,0,0,0,62.5,15.866ZM53.679,72.587a1.26,1.26,0,0,1,1.26,1.26v1.26H24.688v-1.26a1.26,1.26,0,0,1,1.26-1.26ZM34.772,70.066V65.024H44.856v5.042Zm35.293-8.823A1.26,1.26,0,0,1,68.8,62.5H10.823a1.26,1.26,0,0,1-1.26-1.26V57.461h60.5ZM53.679,32.252V54.94H25.949V32.252Zm-27.73-2.521V25.95a1.26,1.26,0,0,1,1.26-1.26H52.419a1.26,1.26,0,0,1,1.26,1.26v3.781Zm37.814,13.8V36.55l1.626,1.639a1.266,1.266,0,0,0,1.79-1.79L63.4,32.617a1.271,1.271,0,0,0-1.79,0L57.826,36.4a1.266,1.266,0,1,0,1.79,1.79l1.626-1.639v8.306a1.26,1.26,0,0,0,1.26,1.26,15.085,15.085,0,0,0,7.563-2.042V54.94H56.2V25.95a3.793,3.793,0,0,0-3.781-3.781H27.209a3.793,3.793,0,0,0-3.781,3.781V54.94H9.563V44.075a15,15,0,0,0,6.3,1.992v4.576L14.239,49a1.266,1.266,0,0,0-1.79,1.79l3.781,3.781a1.278,1.278,0,0,0,1.79,0L21.8,50.793A1.266,1.266,0,0,0,20.012,49l-1.626,1.639V44.857a1.26,1.26,0,0,0-1.26-1.26A12.6,12.6,0,1,1,21.9,19.32a1.26,1.26,0,0,0,1.727-.971,16.386,16.386,0,0,1,32.369,0,1.26,1.26,0,0,0,1.727.971,12.6,12.6,0,1,1,6.038,24.214Z" transform="translate(-2 -1.997)" fill="#231f20"/>
      <path id="Trazado_140730" data-name="Trazado 140730" d="M33.781,47H31.26a1.26,1.26,0,0,0,0,2.521h2.521a1.26,1.26,0,0,0,0-2.521Z" transform="translate(5.293 9.724)" fill="#231f20"/>
    </g>
  </g>
</svg>
