<svg xmlns="http://www.w3.org/2000/svg" width="130.706" height="130.706" viewBox="0 0 130.706 130.706">
  <g id="flujo-de-trabajo" transform="translate(-2 -2)">
    <path id="Trazado_105457" data-name="Trazado 105457" d="M55.5,37.855H25V3H42.427L55.5,16.071Z" transform="translate(27.104 1.178)" fill="#4dd0e1"/>
    <path id="Trazado_105458" data-name="Trazado 105458" d="M33.5,37.855H3V3H20.427L33.5,16.071Z" transform="translate(1.178 1.178)" fill="#4dd0e1"/>
    <path id="Trazado_105459" data-name="Trazado 105459" d="M11,3V16.071H24.071Z" transform="translate(10.606 1.178)" fill="#3cadc9"/>
    <path id="Trazado_105460" data-name="Trazado 105460" d="M77.5,37.855H47V3H64.427L77.5,16.071Z" transform="translate(53.03 1.178)" fill="#4dd0e1"/>
    <path id="Trazado_105461" data-name="Trazado 105461" d="M33,3V16.071H46.071Z" transform="translate(36.531 1.178)" fill="#3cadc9"/>
    <path id="Trazado_105462" data-name="Trazado 105462" d="M55,3V16.071H68.071Z" transform="translate(62.457 1.178)" fill="#3cadc9"/>
    <g id="Grupo_56529" data-name="Grupo 56529" transform="translate(49.926 60.818)">
      <path id="Trazado_105463" data-name="Trazado 105463" d="M24,29H58.855V46.427H24Z" transform="translate(-24 -29)" fill="#ffca28"/>
      <path id="Trazado_105464" data-name="Trazado 105464" d="M24,41H58.855V58.427H24Z" transform="translate(-24 -14.859)" fill="#ffca28"/>
      <path id="Trazado_105465" data-name="Trazado 105465" d="M24,53H58.855V70.427H24Z" transform="translate(-24 -0.718)" fill="#ffca28"/>
    </g>
    <path id="Trazado_105472" data-name="Trazado 105472" d="M119,2.638A2.179,2.179,0,0,0,117.457,2H100.03a2.179,2.179,0,0,0-2.178,2.178V39.033a2.179,2.179,0,0,0,2.178,2.178H113.1v6.535H69.531V41.212H82.6a2.179,2.179,0,0,0,2.178-2.178V17.249a2.179,2.179,0,0,0-.638-1.54L71.072,2.638A2.179,2.179,0,0,0,69.531,2H52.1a2.179,2.179,0,0,0-2.178,2.178V39.033A2.179,2.179,0,0,0,52.1,41.212H65.175v6.535H21.606V41.212H34.677a2.179,2.179,0,0,0,2.178-2.178V17.249a2.179,2.179,0,0,0-.638-1.54L23.146,2.638A2.179,2.179,0,0,0,21.606,2H4.178A2.179,2.179,0,0,0,2,4.178V39.033a2.179,2.179,0,0,0,2.178,2.178H17.249v8.714A2.179,2.179,0,0,0,19.427,52.1H65.175v6.535H49.926a2.179,2.179,0,0,0-2.178,2.178V78.245a2.179,2.179,0,0,0,2.178,2.178H84.781a2.179,2.179,0,0,0,2.178-2.178V71.71h17.427a10.892,10.892,0,0,1,0,21.784H94.4l2.817-2.817-3.08-3.08L87.6,94.132a2.178,2.178,0,0,0,0,3.08l6.535,6.535,3.08-3.08L94.4,97.851h9.99a15.249,15.249,0,0,0,0-30.5H86.959V60.818a2.179,2.179,0,0,0-2.178-2.178H69.531V52.1h45.747a2.179,2.179,0,0,0,2.178-2.178V41.212h13.071a2.179,2.179,0,0,0,2.178-2.178V17.249a2.179,2.179,0,0,0-.638-1.54ZM54.282,6.357H68.629l8.714,8.714H71.71V10.714H67.353v6.535a2.179,2.179,0,0,0,2.178,2.178H80.424V36.855H54.282Zm-47.926,0H20.7l8.714,8.714H23.784V10.714H19.427v6.535a2.179,2.179,0,0,0,2.178,2.178H32.5V36.855H6.357ZM82.6,76.067H52.1V63H82.6Zm19.606-39.212V6.357h14.347l8.714,8.714h-5.633V10.714h-4.357v6.535a2.179,2.179,0,0,0,2.178,2.178h10.892V36.855Z" transform="translate(0 0)" fill="#0d0f23"/>
    <path id="Trazado_105473" data-name="Trazado 105473" d="M77.71,40H42.855a2.179,2.179,0,0,0-2.178,2.178v6.535H23.249a15.249,15.249,0,0,0,0,30.5h9.99l-2.817,2.817,3.08,3.08,6.535-6.535a2.178,2.178,0,0,0,0-3.08L33.5,68.958l-3.08,3.08,2.817,2.817h-9.99a10.892,10.892,0,0,1,0-21.784H40.677v6.535a2.179,2.179,0,0,0,2.178,2.178H77.71a2.179,2.179,0,0,0,2.178-2.178V42.178A2.179,2.179,0,0,0,77.71,40ZM75.531,57.427h-30.5V44.357h30.5Z" transform="translate(7.071 44.78)" fill="#0d0f23"/>
    <path id="Trazado_105474" data-name="Trazado 105474" d="M25.178,73.784H60.033a2.179,2.179,0,0,0,2.178-2.178V54.178A2.179,2.179,0,0,0,60.033,52H25.178A2.179,2.179,0,0,0,23,54.178V71.606A2.179,2.179,0,0,0,25.178,73.784Zm2.178-17.427h30.5V69.427h-30.5Z" transform="translate(24.747 58.922)" fill="#0d0f23"/>
  </g>
</svg>
