<svg id="group" xmlns="http://www.w3.org/2000/svg" width="136.068" height="136.068" viewBox="0 0 136.068 136.068">
  <path id="Trazado_105482" data-name="Trazado 105482" d="M65.068,315.507a15.8,15.8,0,0,0-7.714-4.415l-10.934-2.62,0,.007,0-.007V301.8H33.068v6.7h0L22.162,311.1A15.843,15.843,0,0,0,10,326.508v17.865H34.174Z" transform="translate(-7.342 -221.592)" fill="#1565c0"/>
  <path id="Trazado_105483" data-name="Trazado 105483" d="M109.851,301.8v6.855l-6.929,16.6L96,308.676V301.8Z" transform="translate(-70.487 -221.592)" fill="#ffb487"/>
  <path id="Trazado_105484" data-name="Trazado 105484" d="M95.717,215.261v9.246a14.883,14.883,0,0,1-14.883,14.882h0a14.883,14.883,0,0,1-14.883-14.882v-9.246Z" transform="translate(-48.424 -158.054)" fill="#ffcdac"/>
  <path id="Trazado_105485" data-name="Trazado 105485" d="M95.717,175.25v-3.583a14.883,14.883,0,0,0-14.883-14.882h0a14.883,14.883,0,0,0-14.883,14.882v3.583H76.21A35.486,35.486,0,0,0,94.449,170.2h0" transform="translate(-48.424 -115.118)" fill="#878791"/>
  <path id="Trazado_105486" data-name="Trazado 105486" d="M294.79,315.507a15.8,15.8,0,0,1,7.714-4.415l10.934-2.62,0,.007,0-.007V301.8H326.79v6.7h0L337.7,311.1a15.843,15.843,0,0,1,12.162,15.409v17.865H325.684Z" transform="translate(-216.447 -221.592)" fill="#ffa726"/>
  <path id="Trazado_105487" data-name="Trazado 105487" d="M132.116,352.4l-15.23,3.649a22.067,22.067,0,0,0-16.925,21.459V392.16h82.882V377.524a22.067,22.067,0,0,0-16.94-21.463l-15.19-3.629Z" transform="translate(-73.396 -258.749)" fill="#26a69a"/>
  <g id="Grupo_56533" data-name="Grupo 56533" transform="translate(58.114 80.205)">
    <path id="Trazado_105488" data-name="Trazado 105488" d="M377.731,301.8v6.879l-6.922,16.574-6.929-16.6V301.8Z" transform="translate(-325.29 -301.797)" fill="#ffb487"/>
    <path id="Trazado_105489" data-name="Trazado 105489" d="M228.6,352.969l9.915-22.512a8.185,8.185,0,0,1-1.155-4.2V324.1H219.826v2.164a8.184,8.184,0,0,1-1.152,4.191Z" transform="translate(-218.674 -318.17)" fill="#ffb487"/>
  </g>
  <path id="Trazado_105490" data-name="Trazado 105490" d="M219.459,191.525v14.3a20.729,20.729,0,0,1-20.729,20.729h0A20.729,20.729,0,0,1,178,205.828v-14.3Z" transform="translate(-130.696 -140.626)" fill="#ffcdac"/>
  <path id="Trazado_105491" data-name="Trazado 105491" d="M198.728,115.437h0A20.729,20.729,0,0,0,178,136.166v4.99h10.135a22.775,22.775,0,0,0,17.456-8.147h0l13.867,8.147v-4.99A20.728,20.728,0,0,0,198.728,115.437Z" transform="translate(-130.694 -84.759)" fill="#f5b955"/>
  <path id="Trazado_105492" data-name="Trazado 105492" d="M334.045,215.261v9.246a14.883,14.883,0,0,0,14.883,14.882h0a14.883,14.883,0,0,0,14.883-14.882v-9.246Z" transform="translate(-245.27 -158.054)" fill="#ffcdac"/>
  <path id="Trazado_105493" data-name="Trazado 105493" d="M334.045,175.25v-3.583a14.883,14.883,0,0,1,14.883-14.882h0a14.883,14.883,0,0,1,14.883,14.882v3.583H353.552a35.486,35.486,0,0,1-18.239-5.046h0" transform="translate(-245.27 -115.118)" fill="#878791"/>
  <path id="Trazado_105494" data-name="Trazado 105494" d="M248.4,492a2.659,2.659,0,1,0,1.879.779A2.677,2.677,0,0,0,248.4,492Z" transform="translate(-180.433 -361.247)"/>
  <path id="Trazado_105495" data-name="Trazado 105495" d="M121.866,164.338,113,162.22V158.7a17.54,17.54,0,0,0,8.2-14.834v-9.9a17.53,17.53,0,0,0-30.664-11.62,23.429,23.429,0,0,0-22.474-16.908h0a23.429,23.429,0,0,0-22.487,16.955,17.529,17.529,0,0,0-30.7,11.574v9.9a17.539,17.539,0,0,0,8.2,14.834v3.516L14.2,164.338A18.441,18.441,0,0,0,0,182.332V200.2a2.658,2.658,0,0,0,2.658,2.658H23.908v7.973a2.658,2.658,0,0,0,2.658,2.658H55.721a2.658,2.658,0,1,0,0-5.315H43.857v-11.7a2.658,2.658,0,1,0-5.315,0v11.7H29.223v-11.99A19.348,19.348,0,0,1,44.11,177.3l13.071-3.132,8.41,19.134a2.657,2.657,0,0,0,2.432,1.588h0a2.657,2.657,0,0,0,2.433-1.588l8.4-19.106,13.033,3.113a19.346,19.346,0,0,1,14.9,18.878v2.966a2.662,2.662,0,0,0,0,2.079v6.934H97.527v-11.7a2.658,2.658,0,1,0-5.315,0v11.7H79.2a2.658,2.658,0,1,0,0,5.315h30.252a2.658,2.658,0,0,0,2.658-2.658v-7.973h21.305a2.658,2.658,0,0,0,2.658-2.658V182.332A18.441,18.441,0,0,0,121.866,164.338Zm-14.174.123-4.058,9.716-4-9.588a2.652,2.652,0,0,0,.018-.291c0-.025,0-.05,0-.074v-3.282a17.419,17.419,0,0,0,8.037,0v3.38C107.686,164.366,107.689,164.414,107.692,164.461ZM56.063,166.6a18.453,18.453,0,0,0-5.432-2.264l-8.9-2.132v-3.485a17.666,17.666,0,0,0,5.492-5.476,23.555,23.555,0,0,0,8.835,9.447Zm-6.073-23.978v-6.147h7.478a25.364,25.364,0,0,0,17.962-7.426l10.689,6.28v7.917a18.07,18.07,0,0,1-36.129-.624Zm29.987,20.117a23.553,23.553,0,0,0,8.9-9.45,17.676,17.676,0,0,0,5.462,5.43V162.2l-8.9,2.132a18.458,18.458,0,0,0-5.462,2.283v-3.88Zm23.683-6.641A12.239,12.239,0,0,1,91.433,143.87v-.434c.009-.271.016-7.146.016-7.146a38.153,38.153,0,0,0,16.834,3.916h7.6v3.664A12.239,12.239,0,0,1,103.658,156.095Zm0-34.354a12.239,12.239,0,0,1,12.225,12.225v.925h-7.6a32.836,32.836,0,0,1-16.357-4.365A12.248,12.248,0,0,1,103.658,121.741Zm-53.669,7.083a18.072,18.072,0,0,1,36.144,0v.347l-9.864-5.795a2.657,2.657,0,0,0-3.383.584,20.07,20.07,0,0,1-15.42,7.2H49.989Zm-29.8,5.142a12.226,12.226,0,0,1,23.958-3.44,32.838,32.838,0,0,1-16.357,4.365h-7.6v-.925Zm0,6.24h7.6a38.152,38.152,0,0,0,16.849-3.923v7.587a12.225,12.225,0,0,1-24.451,0Zm12.225,21.2a17.527,17.527,0,0,0,4.01-.468v3.208c0,.05,0,.1,0,.15,0,.084.008.167.016.25l-4.021,9.628-4.036-9.668c0-.064.008-.127.008-.191v-3.38A17.525,17.525,0,0,0,32.41,161.41Zm-8.5,34.769v1.36H15.946V185.732a2.658,2.658,0,0,0-5.315,0v11.807H5.315V182.332a13.142,13.142,0,0,1,10.122-12.824l8.424-2.013,5.5,13.17A24.671,24.671,0,0,0,23.908,196.179Zm18.963-24.043a24.979,24.979,0,0,0-4.493,1.545l2.588-6.2,8.425,2.019a13.168,13.168,0,0,1,1.907.615Zm25.153,13.5-6.646-15.121v-5.481a23.406,23.406,0,0,0,13.283.025v5.486Zm16.7-15.5a13.194,13.194,0,0,1,1.955-.635l8.4-2.014,2.6,6.226a24.984,24.984,0,0,0-4.555-1.569Zm46.032,27.4h-5.315V185.732a2.658,2.658,0,0,0-5.315,0v11.807h-8.017v-1.347a24.67,24.67,0,0,0-5.434-15.5l5.515-13.206,8.444,2.017a13.142,13.142,0,0,1,10.122,12.824Z" transform="translate(0 -77.416)"/>
  <path id="Trazado_105496" data-name="Trazado 105496" d="M215.118,231.25a2.659,2.659,0,1,0,1.879.779A2.678,2.678,0,0,0,215.118,231.25Z" transform="translate(-155.997 -169.793)"/>
  <path id="Trazado_105497" data-name="Trazado 105497" d="M281.988,236.565a2.659,2.659,0,1,0-1.879-.779A2.677,2.677,0,0,0,281.988,236.565Z" transform="translate(-205.096 -169.793)"/>
  <path id="Trazado_105498" data-name="Trazado 105498" d="M244.453,265.692a2.658,2.658,0,0,0-3.759,0,2.018,2.018,0,0,1-2.85,0,2.658,2.658,0,1,0-3.759,3.759,7.339,7.339,0,0,0,10.367,0A2.658,2.658,0,0,0,244.453,265.692Z" transform="translate(-171.304 -194.51)"/>
  <path id="Trazado_105499" data-name="Trazado 105499" d="M399.278,59.315H401.1a2.658,2.658,0,1,0,0-5.315h-1.823a2.658,2.658,0,1,0,0,5.315Z" transform="translate(-291.215 -39.649)"/>
  <path id="Trazado_105500" data-name="Trazado 105500" d="M447.8,59.315h1.823a2.658,2.658,0,1,0,0-5.315H447.8a2.658,2.658,0,1,0,0,5.315Z" transform="translate(-326.841 -39.649)"/>
  <path id="Trazado_105501" data-name="Trazado 105501" d="M426.969,81.969a2.658,2.658,0,0,0,2.658-2.658V77.489a2.658,2.658,0,1,0-5.315,0v1.823A2.657,2.657,0,0,0,426.969,81.969Z" transform="translate(-311.547 -54.944)"/>
  <path id="Trazado_105502" data-name="Trazado 105502" d="M426.969,33.448a2.658,2.658,0,0,0,2.658-2.658V28.968a2.658,2.658,0,1,0-5.315,0V30.79A2.657,2.657,0,0,0,426.969,33.448Z" transform="translate(-311.547 -19.318)"/>
  <path id="Trazado_105503" data-name="Trazado 105503" d="M42.1,59.315h1.823a2.658,2.658,0,0,0,0-5.315H42.1a2.658,2.658,0,0,0,0,5.315Z" transform="translate(-28.961 -39.649)"/>
  <path id="Trazado_105504" data-name="Trazado 105504" d="M90.623,59.315h1.823a2.658,2.658,0,0,0,0-5.315H90.623a2.658,2.658,0,0,0,0,5.315Z" transform="translate(-64.588 -39.649)"/>
  <path id="Trazado_105505" data-name="Trazado 105505" d="M69.792,81.969a2.658,2.658,0,0,0,2.658-2.658V77.489a2.658,2.658,0,0,0-5.315,0v1.823A2.658,2.658,0,0,0,69.792,81.969Z" transform="translate(-49.293 -54.944)"/>
  <path id="Trazado_105506" data-name="Trazado 105506" d="M69.792,33.448a2.658,2.658,0,0,0,2.658-2.658V28.968a2.658,2.658,0,0,0-5.315,0V30.79A2.658,2.658,0,0,0,69.792,33.448Z" transform="translate(-49.293 -19.318)"/>
  <path id="Trazado_105507" data-name="Trazado 105507" d="M248.658,50.394a2.658,2.658,0,0,0,2.658-2.658V40.745a2.658,2.658,0,0,0-5.315,0v6.992A2.658,2.658,0,0,0,248.658,50.394Z" transform="translate(-180.623 -27.965)"/>
  <path id="Trazado_105508" data-name="Trazado 105508" d="M248.658,5.315a2.659,2.659,0,0,0,2.658-2.658,2.658,2.658,0,1,0-4.536,1.879A2.678,2.678,0,0,0,248.658,5.315Z" transform="translate(-180.623 0)"/>
  <path id="Trazado_105509" data-name="Trazado 105509" d="M193.917,30.982a2.658,2.658,0,1,0,3.758-3.759l-3.889-3.889a2.658,2.658,0,1,0-3.759,3.759Z" transform="translate(-138.955 -16.562)"/>
  <path id="Trazado_105510" data-name="Trazado 105510" d="M290.283,31.341a2.649,2.649,0,0,0,1.879-.778l4.019-4.019a2.658,2.658,0,0,0-3.759-3.759L288.4,26.8a2.658,2.658,0,0,0,1.879,4.537Z" transform="translate(-211.186 -16.158)"/>
</svg>
