<svg xmlns="http://www.w3.org/2000/svg" width="505" height="280.458" viewBox="0 0 505 280.458">
  <g id="Grupo_56382" data-name="Grupo 56382" transform="translate(-152.794 -237.236)">
    <g id="Grupo_56169" data-name="Grupo 56169" transform="translate(152.794 237.236)" style="isolation: isolate">
      <path id="Trazado_104906" data-name="Trazado 104906" d="M635.332,517.005c-27.321,0-437.489.1-437.719-.615l-.039-.09a.481.481,0,0,1-.039-.132c-.152-.356-78.982-32.109-27.019-103.134,27.233-37.223-21.384-94.212,36.5-144.5,90.706-78.8,177.267,18.259,213.959,0,30.841-15.348,80.4-37.341,130.71-17.619,13.823,5.419,43.756,32.6,18.9,78.312-12.42,22.841,42.695,25.492,62.856,49.761C677.345,431.839,651.67,517.005,635.332,517.005Z" transform="translate(-152.794 -237.236)" fill="#fff6db"/>
    </g>
    <g id="Grupo_56172" data-name="Grupo 56172" transform="translate(481.346 276.41)" opacity="0.5">
      <g id="Grupo_56170" data-name="Grupo 56170" transform="translate(0 2.722)" opacity="0.5">
        <path id="Trazado_104907" data-name="Trazado 104907" d="M1760.758,515.8s-5.267-41.722,9.464-71.078a4.67,4.67,0,0,1,8.715,1.084c.016.071.032.143.047.216C1780.518,453.311,1764.876,489.595,1760.758,515.8Z" transform="translate(-1759.842 -442.163)" fill="#26a69a"/>
      </g>
      <g id="Grupo_56171" data-name="Grupo 56171" transform="translate(1.285 0)" opacity="0.5">
        <path id="Trazado_104908" data-name="Trazado 104908" d="M1766.128,517.433s8.058-55.8,37.808-87.009a4.954,4.954,0,0,1,6.825-.393c1.282,1.135,2.239,3.169,2.016,6.772C1812.183,446.412,1780.251,486.222,1766.128,517.433Z" transform="translate(-1766.128 -428.85)" fill="#26a69a"/>
      </g>
    </g>
    <g id="Grupo_56255" data-name="Grupo 56255" transform="translate(204.218 288.832)" opacity="0.4">
      <g id="Grupo_56185" data-name="Grupo 56185" transform="translate(9.025 11.068)" style="isolation: isolate">
        <g id="Grupo_56173" data-name="Grupo 56173" transform="translate(0)">
          <path id="Rectángulo_30799" data-name="Rectángulo 30799" d="M11.637,0h0A11.638,11.638,0,0,1,23.275,11.638V68.274A11.637,11.637,0,0,1,11.638,79.911h0A11.637,11.637,0,0,1,0,68.274V11.637A11.637,11.637,0,0,1,11.637,0Z" transform="translate(23.275 79.911) rotate(180)" fill="#ffca28"/>
        </g>
        <g id="Grupo_56174" data-name="Grupo 56174" transform="translate(6.182 57.221)">
          <path id="Trazado_104909" data-name="Trazado 104909" d="M489.621,829.087a5.455,5.455,0,1,0-5.455,5.455A5.455,5.455,0,0,0,489.621,829.087Z" transform="translate(-478.71 -823.632)" fill="#505aba"/>
        </g>
        <g id="Grupo_56175" data-name="Grupo 56175" transform="translate(5.605 56.675)">
          <path id="Trazado_104910" data-name="Trazado 104910" d="M481.918,833.027a6.033,6.033,0,1,1,6.033-6.033A6.04,6.04,0,0,1,481.918,833.027Zm0-10.911a4.878,4.878,0,1,0,4.878,4.878A4.883,4.883,0,0,0,481.918,822.116Z" transform="translate(-475.885 -820.961)" fill="#fff"/>
        </g>
        <g id="Grupo_56176" data-name="Grupo 56176" transform="translate(4.819 3.657)">
          <path id="Rectángulo_30800" data-name="Rectángulo 30800" d="M5.081,0H8.548A5.082,5.082,0,0,1,13.63,5.082V39.836a5.082,5.082,0,0,1-5.082,5.082H5.081A5.081,5.081,0,0,1,0,39.837V5.081A5.081,5.081,0,0,1,5.081,0Z" transform="translate(13.63 44.918) rotate(180)" fill="#aec3ff"/>
        </g>
        <g id="Grupo_56177" data-name="Grupo 56177" transform="translate(6.416 5.282)">
          <rect id="Rectángulo_30801" data-name="Rectángulo 30801" width="10.159" height="1.801" rx="0.901" transform="translate(10.159 1.801) rotate(180)" fill="#f99746"/>
        </g>
        <g id="Grupo_56184" data-name="Grupo 56184" transform="translate(8.211 14.912)">
          <g id="Grupo_56178" data-name="Grupo 56178" transform="translate(5.165 18.627)">
            <path id="Trazado_104911" data-name="Trazado 104911" d="M513.9,708.245V717.5a.45.45,0,0,0,.45.45h0a.451.451,0,0,0,.45-.45v-9.258a.451.451,0,0,0-.45-.45h0A.45.45,0,0,0,513.9,708.245Z" transform="translate(-513.896 -707.795)" fill="#505aba"/>
          </g>
          <g id="Grupo_56179" data-name="Grupo 56179" transform="translate(5.165 5.889)">
            <path id="Trazado_104912" data-name="Trazado 104912" d="M513.9,645.941V655.2a.451.451,0,0,0,.45.45h0a.451.451,0,0,0,.45-.45v-9.258a.451.451,0,0,0-.45-.451h0A.451.451,0,0,0,513.9,645.941Z" transform="translate(-513.896 -645.491)" fill="#505aba"/>
          </g>
          <g id="Grupo_56180" data-name="Grupo 56180" transform="translate(0 18.627)">
            <path id="Trazado_104913" data-name="Trazado 104913" d="M488.633,708.245V717.5a.45.45,0,0,0,.45.45h0a.45.45,0,0,0,.45-.45v-9.258a.45.45,0,0,0-.45-.45h0A.45.45,0,0,0,488.633,708.245Z" transform="translate(-488.633 -707.795)" fill="#505aba"/>
          </g>
          <g id="Grupo_56181" data-name="Grupo 56181" transform="translate(0 5.889)">
            <path id="Trazado_104914" data-name="Trazado 104914" d="M488.633,645.941V655.2a.45.45,0,0,0,.45.45h0a.451.451,0,0,0,.45-.45v-9.258a.45.45,0,0,0-.45-.451h0A.45.45,0,0,0,488.633,645.941Z" transform="translate(-488.633 -645.491)" fill="#505aba"/>
          </g>
          <g id="Grupo_56182" data-name="Grupo 56182" transform="translate(2.687 16.014)">
            <path id="Trazado_104915" data-name="Trazado 104915" d="M501.778,695.465v11.871a.45.45,0,0,0,.45.45h0a.45.45,0,0,0,.45-.45V695.465a.45.45,0,0,0-.45-.45h0A.45.45,0,0,0,501.778,695.465Z" transform="translate(-501.778 -695.015)" fill="#505aba"/>
          </g>
          <g id="Grupo_56183" data-name="Grupo 56183" transform="translate(2.687)">
            <path id="Trazado_104916" data-name="Trazado 104916" d="M501.778,617.135v11.871a.45.45,0,0,0,.45.45h0a.45.45,0,0,0,.45-.45V617.135a.45.45,0,0,0-.45-.45h0A.45.45,0,0,0,501.778,617.135Z" transform="translate(-501.778 -616.685)" fill="#505aba"/>
          </g>
        </g>
      </g>
      <g id="Grupo_56198" data-name="Grupo 56198" transform="translate(38.052 11.068)">
        <g id="Grupo_56186" data-name="Grupo 56186" transform="translate(0 0)">
          <path id="Trazado_105045" data-name="Trazado 105045" d="M5.248,0H18.027a5.248,5.248,0,0,1,5.248,5.248V74.663a5.248,5.248,0,0,1-5.248,5.248H5.248A5.248,5.248,0,0,1,0,74.663V5.248A5.248,5.248,0,0,1,5.248,0Z" transform="translate(23.276 79.911) rotate(-180)" fill="#ffca28"/>
        </g>
        <g id="Grupo_56187" data-name="Grupo 56187" transform="translate(6.183 57.221)">
          <path id="Trazado_104917" data-name="Trazado 104917" d="M631.6,829.087a5.455,5.455,0,1,0-5.455,5.455A5.455,5.455,0,0,0,631.6,829.087Z" transform="translate(-620.691 -823.632)" fill="#505aba"/>
        </g>
        <g id="Grupo_56188" data-name="Grupo 56188" transform="translate(5.605 56.675)">
          <path id="Trazado_104918" data-name="Trazado 104918" d="M623.9,833.027a6.033,6.033,0,1,1,6.033-6.033A6.04,6.04,0,0,1,623.9,833.027Zm0-10.911a4.878,4.878,0,1,0,4.877,4.878A4.883,4.883,0,0,0,623.9,822.116Z" transform="translate(-617.865 -820.961)" fill="#fff"/>
        </g>
        <g id="Grupo_56189" data-name="Grupo 56189" transform="translate(4.819 3.657)">
          <rect id="Rectángulo_30803" data-name="Rectángulo 30803" width="13.631" height="44.918" rx="5.082" transform="translate(13.631 44.918) rotate(180)" fill="#aec3ff"/>
        </g>
        <g id="Grupo_56190" data-name="Grupo 56190" transform="translate(6.417 5.282)">
          <rect id="Rectángulo_30804" data-name="Rectángulo 30804" width="10.159" height="1.801" rx="0.901" transform="translate(10.159 1.801) rotate(180)" fill="#f99746"/>
        </g>
        <g id="Grupo_56197" data-name="Grupo 56197" transform="translate(8.211 14.912)">
          <g id="Grupo_56191" data-name="Grupo 56191" transform="translate(5.165 18.627)">
            <path id="Trazado_104919" data-name="Trazado 104919" d="M655.877,708.245V717.5a.45.45,0,0,0,.45.45h0a.45.45,0,0,0,.45-.45v-9.258a.45.45,0,0,0-.45-.45h0A.45.45,0,0,0,655.877,708.245Z" transform="translate(-655.877 -707.795)" fill="#505aba"/>
          </g>
          <g id="Grupo_56192" data-name="Grupo 56192" transform="translate(5.165 5.889)">
            <path id="Trazado_104920" data-name="Trazado 104920" d="M655.877,645.941V655.2a.45.45,0,0,0,.45.45h0a.45.45,0,0,0,.45-.45v-9.258a.45.45,0,0,0-.45-.451h0A.45.45,0,0,0,655.877,645.941Z" transform="translate(-655.877 -645.491)" fill="#505aba"/>
          </g>
          <g id="Grupo_56193" data-name="Grupo 56193" transform="translate(0 18.627)">
            <path id="Trazado_104921" data-name="Trazado 104921" d="M630.612,708.245V717.5a.45.45,0,0,0,.45.45h0a.45.45,0,0,0,.451-.45v-9.258a.451.451,0,0,0-.451-.45h0A.45.45,0,0,0,630.612,708.245Z" transform="translate(-630.612 -707.795)" fill="#505aba"/>
          </g>
          <g id="Grupo_56194" data-name="Grupo 56194" transform="translate(0 5.889)">
            <path id="Trazado_104922" data-name="Trazado 104922" d="M630.612,645.941V655.2a.451.451,0,0,0,.45.45h0a.451.451,0,0,0,.451-.45v-9.258a.451.451,0,0,0-.451-.451h0A.45.45,0,0,0,630.612,645.941Z" transform="translate(-630.612 -645.491)" fill="#505aba"/>
          </g>
          <g id="Grupo_56195" data-name="Grupo 56195" transform="translate(2.688 16.014)">
            <path id="Trazado_104923" data-name="Trazado 104923" d="M643.759,695.465v11.871a.45.45,0,0,0,.45.45h0a.45.45,0,0,0,.45-.45V695.465a.45.45,0,0,0-.45-.45h0A.45.45,0,0,0,643.759,695.465Z" transform="translate(-643.759 -695.015)" fill="#505aba"/>
          </g>
          <g id="Grupo_56196" data-name="Grupo 56196" transform="translate(2.688)">
            <path id="Trazado_104924" data-name="Trazado 104924" d="M643.759,617.135v11.871a.45.45,0,0,0,.45.45h0a.45.45,0,0,0,.45-.45V617.135a.45.45,0,0,0-.45-.45h0A.45.45,0,0,0,643.759,617.135Z" transform="translate(-643.759 -616.685)" fill="#505aba"/>
          </g>
        </g>
      </g>
      <g id="Grupo_56211" data-name="Grupo 56211" transform="translate(67.633 11.068)">
        <g id="Grupo_56199" data-name="Grupo 56199" transform="translate(0 0)">
          <path id="Trazado_105046" data-name="Trazado 105046" d="M5.248,0H18.027a5.248,5.248,0,0,1,5.248,5.248V74.663a5.248,5.248,0,0,1-5.248,5.248H5.248A5.248,5.248,0,0,1,0,74.663V5.248A5.248,5.248,0,0,1,5.248,0Z" transform="translate(23.276 79.911) rotate(180)" fill="#ffca28"/>
        </g>
        <g id="Grupo_56200" data-name="Grupo 56200" transform="translate(6.183 57.221)">
          <path id="Trazado_104925" data-name="Trazado 104925" d="M776.294,829.087a5.455,5.455,0,1,0-5.455,5.455A5.455,5.455,0,0,0,776.294,829.087Z" transform="translate(-765.384 -823.632)" fill="#505aba"/>
        </g>
        <g id="Grupo_56201" data-name="Grupo 56201" transform="translate(5.605 56.675)">
          <path id="Trazado_104926" data-name="Trazado 104926" d="M768.591,833.027a6.033,6.033,0,1,1,6.033-6.033A6.04,6.04,0,0,1,768.591,833.027Zm0-10.911a4.878,4.878,0,1,0,4.878,4.878A4.883,4.883,0,0,0,768.591,822.116Z" transform="translate(-762.558 -820.961)" fill="#fff"/>
        </g>
        <g id="Grupo_56202" data-name="Grupo 56202" transform="translate(4.819 3.657)">
          <rect id="Rectángulo_30806" data-name="Rectángulo 30806" width="13.631" height="44.918" rx="5.082" transform="translate(13.631 44.918) rotate(180)" fill="#aec3ff"/>
        </g>
        <g id="Grupo_56203" data-name="Grupo 56203" transform="translate(6.417 5.282)">
          <rect id="Rectángulo_30807" data-name="Rectángulo 30807" width="10.159" height="1.801" rx="0.901" transform="translate(10.159 1.801) rotate(180)" fill="#f99746"/>
        </g>
        <g id="Grupo_56210" data-name="Grupo 56210" transform="translate(8.211 14.912)">
          <g id="Grupo_56204" data-name="Grupo 56204" transform="translate(5.165 18.627)">
            <path id="Trazado_104927" data-name="Trazado 104927" d="M800.569,708.245V717.5a.45.45,0,0,0,.45.45h0a.45.45,0,0,0,.451-.45v-9.258a.451.451,0,0,0-.451-.45h0A.45.45,0,0,0,800.569,708.245Z" transform="translate(-800.569 -707.795)" fill="#505aba"/>
          </g>
          <g id="Grupo_56205" data-name="Grupo 56205" transform="translate(5.165 5.889)">
            <path id="Trazado_104928" data-name="Trazado 104928" d="M800.569,645.941V655.2a.451.451,0,0,0,.45.45h0a.451.451,0,0,0,.451-.45v-9.258a.451.451,0,0,0-.451-.451h0A.451.451,0,0,0,800.569,645.941Z" transform="translate(-800.569 -645.491)" fill="#505aba"/>
          </g>
          <g id="Grupo_56206" data-name="Grupo 56206" transform="translate(0 18.627)">
            <path id="Trazado_104929" data-name="Trazado 104929" d="M775.3,708.245V717.5a.45.45,0,0,0,.45.45h0a.45.45,0,0,0,.45-.45v-9.258a.45.45,0,0,0-.45-.45h0A.45.45,0,0,0,775.3,708.245Z" transform="translate(-775.305 -707.795)" fill="#505aba"/>
          </g>
          <g id="Grupo_56207" data-name="Grupo 56207" transform="translate(0 5.889)">
            <path id="Trazado_104930" data-name="Trazado 104930" d="M775.3,645.941V655.2a.451.451,0,0,0,.45.45h0a.451.451,0,0,0,.45-.45v-9.258a.451.451,0,0,0-.45-.451h0A.451.451,0,0,0,775.3,645.941Z" transform="translate(-775.305 -645.491)" fill="#505aba"/>
          </g>
          <g id="Grupo_56208" data-name="Grupo 56208" transform="translate(2.688 16.014)">
            <path id="Trazado_104931" data-name="Trazado 104931" d="M788.451,695.465v11.871a.45.45,0,0,0,.45.45h0a.45.45,0,0,0,.45-.45V695.465a.45.45,0,0,0-.45-.45h0A.45.45,0,0,0,788.451,695.465Z" transform="translate(-788.451 -695.015)" fill="#505aba"/>
          </g>
          <g id="Grupo_56209" data-name="Grupo 56209" transform="translate(2.688)">
            <path id="Trazado_104932" data-name="Trazado 104932" d="M788.451,617.135v11.871a.45.45,0,0,0,.45.45h0a.45.45,0,0,0,.45-.45V617.135a.45.45,0,0,0-.45-.45h0A.45.45,0,0,0,788.451,617.135Z" transform="translate(-788.451 -616.685)" fill="#505aba"/>
          </g>
        </g>
      </g>
      <g id="Grupo_56215" data-name="Grupo 56215" transform="translate(98.097 11.068)">
        <g id="Grupo_56212" data-name="Grupo 56212" transform="translate(0)">
          <path id="Rectángulo_30808" data-name="Rectángulo 30808" d="M11.638,0h0A11.637,11.637,0,0,1,23.275,11.637V68.273A11.638,11.638,0,0,1,11.638,79.911h0A11.638,11.638,0,0,1,0,68.273V11.638A11.638,11.638,0,0,1,11.638,0Z" transform="translate(23.275 79.911) rotate(180)" fill="#ffca28"/>
        </g>
        <g id="Grupo_56213" data-name="Grupo 56213" transform="translate(4.819 3.657)">
          <path id="Rectángulo_30809" data-name="Rectángulo 30809" d="M5.082,0H8.548a5.083,5.083,0,0,1,5.083,5.083V39.836a5.082,5.082,0,0,1-5.082,5.082H5.082A5.082,5.082,0,0,1,0,39.836V5.082A5.082,5.082,0,0,1,5.082,0Z" transform="translate(13.631 44.918) rotate(180)" fill="#aec3ff"/>
        </g>
        <g id="Grupo_56214" data-name="Grupo 56214" transform="translate(6.417 5.282)">
          <path id="Rectángulo_30810" data-name="Rectángulo 30810" d="M.9,0H9.258a.9.9,0,0,1,.9.9v0a.9.9,0,0,1-.9.9H.9A.9.9,0,0,1,0,.9v0A.9.9,0,0,1,.9,0Z" transform="translate(10.159 1.801) rotate(180)" fill="#f99746"/>
        </g>
      </g>
      <g id="Grupo_56219" data-name="Grupo 56219" transform="translate(127.497 11.068)">
        <g id="Grupo_56216" data-name="Grupo 56216" transform="translate(0)">
          <path id="Rectángulo_30811" data-name="Rectángulo 30811" d="M11.637,0h0A11.638,11.638,0,0,1,23.275,11.638V68.274A11.637,11.637,0,0,1,11.638,79.911h0A11.637,11.637,0,0,1,0,68.274V11.637A11.637,11.637,0,0,1,11.637,0Z" transform="translate(23.275 79.911) rotate(180)" fill="#8c9df4"/>
        </g>
        <g id="Grupo_56217" data-name="Grupo 56217" transform="translate(4.819 3.657)">
          <path id="Rectángulo_30812" data-name="Rectángulo 30812" d="M5.082,0H8.549a5.082,5.082,0,0,1,5.082,5.082V39.836a5.082,5.082,0,0,1-5.082,5.082H5.081A5.081,5.081,0,0,1,0,39.837V5.082A5.082,5.082,0,0,1,5.082,0Z" transform="translate(13.631 44.918) rotate(180)" fill="#aec3ff"/>
        </g>
        <g id="Grupo_56218" data-name="Grupo 56218" transform="translate(6.416 5.282)">
          <rect id="Rectángulo_30813" data-name="Rectángulo 30813" width="10.159" height="1.801" rx="0.901" transform="translate(10.159 1.801) rotate(180)" fill="#f99746"/>
        </g>
      </g>
      <g id="Grupo_56232" data-name="Grupo 56232" transform="translate(9.025 101.455)">
        <g id="Grupo_56220" data-name="Grupo 56220" transform="translate(0 0)">
          <path id="Rectángulo_30814" data-name="Rectángulo 30814" d="M11.637,0h0A11.638,11.638,0,0,1,23.275,11.638V68.275A11.636,11.636,0,0,1,11.639,79.911h0A11.637,11.637,0,0,1,0,68.274V11.637A11.637,11.637,0,0,1,11.637,0Z" transform="translate(23.275 79.911) rotate(180)" fill="#ffca28"/>
        </g>
        <g id="Grupo_56221" data-name="Grupo 56221" transform="translate(6.182 57.221)">
          <circle id="Elipse_4056" data-name="Elipse 4056" cx="5.455" cy="5.455" r="5.455" fill="#505aba"/>
        </g>
        <g id="Grupo_56222" data-name="Grupo 56222" transform="translate(5.605 56.675)">
          <path id="Trazado_104933" data-name="Trazado 104933" d="M481.918,1275.134a6.033,6.033,0,1,1,6.033-6.033A6.04,6.04,0,0,1,481.918,1275.134Zm0-10.911a4.878,4.878,0,1,0,4.878,4.878A4.883,4.883,0,0,0,481.918,1264.223Z" transform="translate(-475.885 -1263.068)" fill="#fff"/>
        </g>
        <g id="Grupo_56223" data-name="Grupo 56223" transform="translate(4.819 3.657)">
          <path id="Rectángulo_30815" data-name="Rectángulo 30815" d="M5.082,0H8.549A5.082,5.082,0,0,1,13.63,5.082V39.836a5.082,5.082,0,0,1-5.082,5.082H5.081A5.081,5.081,0,0,1,0,39.837V5.082A5.082,5.082,0,0,1,5.082,0Z" transform="translate(13.63 44.918) rotate(180)" fill="#aec3ff"/>
        </g>
        <g id="Grupo_56224" data-name="Grupo 56224" transform="translate(6.416 5.282)">
          <path id="Rectángulo_30816" data-name="Rectángulo 30816" d="M.9,0H9.259a.9.9,0,0,1,.9.9v0a.9.9,0,0,1-.9.9H.9A.9.9,0,0,1,0,.9v0A.9.9,0,0,1,.9,0Z" transform="translate(10.159 1.801) rotate(180)" fill="#f99746"/>
        </g>
        <g id="Grupo_56231" data-name="Grupo 56231" transform="translate(8.211 14.912)">
          <g id="Grupo_56225" data-name="Grupo 56225" transform="translate(5.165 18.627)">
            <path id="Trazado_104934" data-name="Trazado 104934" d="M513.9,1150.353v9.259a.45.45,0,0,0,.45.45h0a.451.451,0,0,0,.45-.45v-9.259a.451.451,0,0,0-.45-.45h0A.45.45,0,0,0,513.9,1150.353Z" transform="translate(-513.896 -1149.903)" fill="#505aba"/>
          </g>
          <g id="Grupo_56226" data-name="Grupo 56226" transform="translate(5.165 5.889)">
            <path id="Trazado_104935" data-name="Trazado 104935" d="M513.9,1088.049v9.259a.45.45,0,0,0,.45.45h0a.45.45,0,0,0,.45-.45v-9.259a.45.45,0,0,0-.45-.45h0A.45.45,0,0,0,513.9,1088.049Z" transform="translate(-513.896 -1087.599)" fill="#505aba"/>
          </g>
          <g id="Grupo_56227" data-name="Grupo 56227" transform="translate(0 18.627)">
            <path id="Trazado_104936" data-name="Trazado 104936" d="M488.633,1150.353v9.259a.45.45,0,0,0,.45.45h0a.45.45,0,0,0,.45-.45v-9.259a.45.45,0,0,0-.45-.45h0A.45.45,0,0,0,488.633,1150.353Z" transform="translate(-488.633 -1149.903)" fill="#505aba"/>
          </g>
          <g id="Grupo_56228" data-name="Grupo 56228" transform="translate(0 5.889)">
            <path id="Trazado_104937" data-name="Trazado 104937" d="M488.633,1088.049v9.259a.45.45,0,0,0,.45.45h0a.45.45,0,0,0,.45-.45v-9.259a.45.45,0,0,0-.45-.45h0A.45.45,0,0,0,488.633,1088.049Z" transform="translate(-488.633 -1087.599)" fill="#505aba"/>
          </g>
          <g id="Grupo_56229" data-name="Grupo 56229" transform="translate(2.687 16.014)">
            <path id="Trazado_104938" data-name="Trazado 104938" d="M501.778,1137.572v11.871a.451.451,0,0,0,.45.45h0a.451.451,0,0,0,.45-.45v-11.871a.45.45,0,0,0-.45-.45h0A.45.45,0,0,0,501.778,1137.572Z" transform="translate(-501.778 -1137.122)" fill="#505aba"/>
          </g>
          <g id="Grupo_56230" data-name="Grupo 56230" transform="translate(2.687)">
            <path id="Trazado_104939" data-name="Trazado 104939" d="M501.778,1059.243v11.871a.451.451,0,0,0,.45.451h0a.45.45,0,0,0,.45-.451v-11.871a.45.45,0,0,0-.45-.45h0A.45.45,0,0,0,501.778,1059.243Z" transform="translate(-501.778 -1058.793)" fill="#505aba"/>
          </g>
        </g>
      </g>
      <g id="Grupo_56245" data-name="Grupo 56245" transform="translate(38.052 101.455)">
        <g id="Grupo_56233" data-name="Grupo 56233" transform="translate(0 0)">
          <path id="Rectángulo_30817" data-name="Rectángulo 30817" d="M11.638,0h0A11.638,11.638,0,0,1,23.276,11.638V68.274A11.637,11.637,0,0,1,11.639,79.911h0A11.638,11.638,0,0,1,0,68.273V11.638A11.638,11.638,0,0,1,11.638,0Z" transform="translate(23.276 79.911) rotate(180)" fill="#ffca28"/>
        </g>
        <g id="Grupo_56234" data-name="Grupo 56234" transform="translate(6.183 57.22)">
          <path id="Trazado_104940" data-name="Trazado 104940" d="M631.6,1271.193a5.455,5.455,0,1,0-5.455,5.455A5.456,5.456,0,0,0,631.6,1271.193Z" transform="translate(-620.691 -1265.738)" fill="#505aba"/>
        </g>
        <g id="Grupo_56235" data-name="Grupo 56235" transform="translate(5.605 56.675)">
          <path id="Trazado_104941" data-name="Trazado 104941" d="M623.9,1275.134a6.033,6.033,0,1,1,6.033-6.033A6.039,6.039,0,0,1,623.9,1275.134Zm0-10.911a4.878,4.878,0,1,0,4.877,4.878A4.883,4.883,0,0,0,623.9,1264.223Z" transform="translate(-617.865 -1263.068)" fill="#fff"/>
        </g>
        <g id="Grupo_56236" data-name="Grupo 56236" transform="translate(4.819 3.657)">
          <rect id="Rectángulo_30818" data-name="Rectángulo 30818" width="13.631" height="44.918" rx="5.082" transform="translate(13.631 44.918) rotate(180)" fill="#aec3ff"/>
        </g>
        <g id="Grupo_56237" data-name="Grupo 56237" transform="translate(6.417 5.282)">
          <path id="Rectángulo_30819" data-name="Rectángulo 30819" d="M.9,0H9.258a.9.9,0,0,1,.9.9v0a.9.9,0,0,1-.9.9H.9A.9.9,0,0,1,0,.9v0A.9.9,0,0,1,.9,0Z" transform="translate(10.159 1.801) rotate(180)" fill="#f99746"/>
        </g>
        <g id="Grupo_56244" data-name="Grupo 56244" transform="translate(8.211 14.912)">
          <g id="Grupo_56238" data-name="Grupo 56238" transform="translate(5.165 18.627)">
            <path id="Trazado_104942" data-name="Trazado 104942" d="M655.877,1150.353v9.259a.45.45,0,0,0,.45.45h0a.45.45,0,0,0,.45-.45v-9.259a.45.45,0,0,0-.45-.45h0A.45.45,0,0,0,655.877,1150.353Z" transform="translate(-655.877 -1149.903)" fill="#505aba"/>
          </g>
          <g id="Grupo_56239" data-name="Grupo 56239" transform="translate(5.165 5.889)">
            <path id="Trazado_104943" data-name="Trazado 104943" d="M655.877,1088.049v9.259a.45.45,0,0,0,.45.45h0a.45.45,0,0,0,.45-.45v-9.259a.45.45,0,0,0-.45-.45h0A.45.45,0,0,0,655.877,1088.049Z" transform="translate(-655.877 -1087.599)" fill="#505aba"/>
          </g>
          <g id="Grupo_56240" data-name="Grupo 56240" transform="translate(0 18.627)">
            <path id="Trazado_104944" data-name="Trazado 104944" d="M630.612,1150.353v9.259a.45.45,0,0,0,.45.45h0a.45.45,0,0,0,.451-.45v-9.259a.45.45,0,0,0-.451-.45h0A.45.45,0,0,0,630.612,1150.353Z" transform="translate(-630.612 -1149.903)" fill="#505aba"/>
          </g>
          <g id="Grupo_56241" data-name="Grupo 56241" transform="translate(0 5.889)">
            <path id="Trazado_104945" data-name="Trazado 104945" d="M630.612,1088.049v9.259a.45.45,0,0,0,.45.45h0a.45.45,0,0,0,.451-.45v-9.259a.45.45,0,0,0-.451-.45h0A.45.45,0,0,0,630.612,1088.049Z" transform="translate(-630.612 -1087.599)" fill="#505aba"/>
          </g>
          <g id="Grupo_56242" data-name="Grupo 56242" transform="translate(2.688 16.014)">
            <path id="Trazado_104946" data-name="Trazado 104946" d="M643.759,1137.572v11.871a.45.45,0,0,0,.45.45h0a.45.45,0,0,0,.45-.45v-11.871a.45.45,0,0,0-.45-.45h0A.45.45,0,0,0,643.759,1137.572Z" transform="translate(-643.759 -1137.122)" fill="#505aba"/>
          </g>
          <g id="Grupo_56243" data-name="Grupo 56243" transform="translate(2.688)">
            <path id="Trazado_104947" data-name="Trazado 104947" d="M643.759,1059.243v11.871a.45.45,0,0,0,.45.451h0a.45.45,0,0,0,.45-.451v-11.871a.45.45,0,0,0-.45-.45h0A.45.45,0,0,0,643.759,1059.243Z" transform="translate(-643.759 -1058.793)" fill="#505aba"/>
          </g>
        </g>
      </g>
      <g id="Grupo_56247" data-name="Grupo 56247" transform="translate(67.633 101.455)">
        <g id="Grupo_56246" data-name="Grupo 56246" transform="translate(0 0)">
          <path id="Rectángulo_30820" data-name="Rectángulo 30820" d="M11.638,0h0A11.638,11.638,0,0,1,23.276,11.638V68.274A11.637,11.637,0,0,1,11.639,79.911h0A11.638,11.638,0,0,1,0,68.273V11.638A11.638,11.638,0,0,1,11.638,0Z" transform="translate(23.276 79.911) rotate(180)" fill="#ffca28"/>
        </g>
      </g>
      <g id="Grupo_56249" data-name="Grupo 56249" transform="translate(98.097 101.455)">
        <g id="Grupo_56248" data-name="Grupo 56248" transform="translate(0 0)">
          <path id="Rectángulo_30821" data-name="Rectángulo 30821" d="M11.638,0h0A11.637,11.637,0,0,1,23.275,11.637V68.274A11.637,11.637,0,0,1,11.638,79.911h0A11.638,11.638,0,0,1,0,68.273V11.638A11.638,11.638,0,0,1,11.638,0Z" transform="translate(23.275 79.911) rotate(180)" fill="#ffca28"/>
        </g>
      </g>
      <g id="Grupo_56251" data-name="Grupo 56251" transform="translate(127.497 101.455)">
        <g id="Grupo_56250" data-name="Grupo 56250" transform="translate(0 0)">
          <path id="Rectángulo_30822" data-name="Rectángulo 30822" d="M11.637,0h0A11.638,11.638,0,0,1,23.275,11.638V68.275A11.636,11.636,0,0,1,11.639,79.911h0A11.637,11.637,0,0,1,0,68.274V11.637A11.637,11.637,0,0,1,11.637,0Z" transform="translate(23.275 79.911) rotate(180)" fill="#8c9df4"/>
        </g>
      </g>
      <g id="Grupo_56252" data-name="Grupo 56252" transform="translate(0)">
        <path id="Trazado_104948" data-name="Trazado 104948" d="M407.126,717.787h0a2.8,2.8,0,0,1-2.8-2.8V492.407a2.8,2.8,0,0,1,2.8-2.8h0a2.8,2.8,0,0,1,2.8,2.8V714.989A2.8,2.8,0,0,1,407.126,717.787Z" transform="translate(-404.328 -489.609)" fill="#ffa726"/>
      </g>
      <g id="Grupo_56253" data-name="Grupo 56253" transform="translate(0 90.99)">
        <rect id="Rectángulo_30823" data-name="Rectángulo 30823" width="161.682" height="2.247" transform="translate(161.682 2.247) rotate(180)" fill="#ffa726"/>
      </g>
      <g id="Grupo_56254" data-name="Grupo 56254" transform="translate(0 181.33)">
        <rect id="Rectángulo_30824" data-name="Rectángulo 30824" width="171.722" height="2.247" transform="translate(171.722 2.247) rotate(180)" fill="#ffa726"/>
      </g>
    </g>
    <g id="Grupo_56256" data-name="Grupo 56256" transform="translate(490.755 364.62)">
      <path id="Trazado_104949" data-name="Trazado 104949" d="M1862.938,861.622s-15.372,13.344-12.712,16.051,16.057-16.1,16.057-16.1,20.127,4.532,25.408,9.615c0,0-21.167,8.153-17.923,10.122s25.665-5.492,25.665-5.492,17.136,9.068,12.521,19.823-12,12.114-14.649,10.914-16.712-12.635-17.8-10.5,6.164,12.687,12.829,15.264c0,0-17.447,9.9-24.611,3.024s-5.763-13.571-10.268-17.739-9.033-5.653-7.657-2.462,10.181,8.752,11.446,15.114,2.795,10.876-5.569,6.653-20.548-15.373-18.747-22.953q.118-.5.225-.948a3.717,3.717,0,0,0-.225.948c-1.941-.277-6.855,1.839-10.48,3.578-.578.326-1.418.747-2.6,1.286h0c-.512.261-.927.477-1.216.629-7.562,4.337-14.9,16.36-14.9,16.36l-1.864-.8c5.34-13.742,18.5-18.083,18.5-18.083a37.543,37.543,0,0,0,14.356-10.546s-7.7-18.707,7.086-24.109C1845.808,861.265,1856.088,858.9,1862.938,861.622Z" transform="translate(-1805.865 -860.312)" fill="#26a69a"/>
    </g>
    <g id="Grupo_56262" data-name="Grupo 56262" transform="translate(571.625 433.259)">
      <g id="Grupo_56257" data-name="Grupo 56257" transform="translate(31.883 0)">
        <rect id="Rectángulo_30825" data-name="Rectángulo 30825" width="13.221" height="42.651" transform="translate(13.221 42.651) rotate(180)" fill="#039be5"/>
      </g>
      <g id="Grupo_56258" data-name="Grupo 56258" transform="translate(0 0)">
        <rect id="Rectángulo_30826" data-name="Rectángulo 30826" width="31.883" height="42.651" transform="translate(31.883 42.651) rotate(180)" fill="#1565c0"/>
      </g>
      <g id="Grupo_56259" data-name="Grupo 56259" transform="translate(36.287 3.12)">
        <path id="Trazado_104950" data-name="Trazado 104950" d="M2383.329,1213.513a2.207,2.207,0,1,0-2.207,2.207A2.207,2.207,0,0,0,2383.329,1213.513Z" transform="translate(-2378.916 -1211.306)" fill="#dde7fe"/>
      </g>
      <g id="Grupo_56260" data-name="Grupo 56260" transform="translate(36.933 3.767)">
        <path id="Trazado_104951" data-name="Trazado 104951" d="M2385.2,1216.028a1.56,1.56,0,1,0-1.56,1.56A1.56,1.56,0,0,0,2385.2,1216.028Z" transform="translate(-2382.078 -1214.468)" fill="#039be5"/>
      </g>
      <g id="Grupo_56261" data-name="Grupo 56261" transform="translate(35.336 10.643)">
        <rect id="Rectángulo_30827" data-name="Rectángulo 30827" width="6.219" height="11.234" transform="translate(6.219 11.234) rotate(180)" fill="#4dd0e1"/>
      </g>
    </g>
    <g id="Grupo_56268" data-name="Grupo 56268" transform="translate(546.961 433.259)">
      <g id="Grupo_56263" data-name="Grupo 56263" transform="translate(31.883 0)">
        <rect id="Rectángulo_30828" data-name="Rectángulo 30828" width="13.221" height="42.651" transform="translate(13.221 42.651) rotate(180)" fill="#039be5"/>
      </g>
      <g id="Grupo_56264" data-name="Grupo 56264" transform="translate(0 0)">
        <rect id="Rectángulo_30829" data-name="Rectángulo 30829" width="31.883" height="42.651" transform="translate(31.883 42.651) rotate(180)" fill="#1565c0"/>
      </g>
      <g id="Grupo_56265" data-name="Grupo 56265" transform="translate(36.287 3.12)">
        <path id="Trazado_104952" data-name="Trazado 104952" d="M2262.69,1213.513a2.207,2.207,0,1,0-2.207,2.207A2.207,2.207,0,0,0,2262.69,1213.513Z" transform="translate(-2258.277 -1211.306)" fill="#dde7fe"/>
      </g>
      <g id="Grupo_56266" data-name="Grupo 56266" transform="translate(36.933 3.767)">
        <path id="Trazado_104953" data-name="Trazado 104953" d="M2264.561,1216.028a1.56,1.56,0,1,0-1.561,1.56A1.56,1.56,0,0,0,2264.561,1216.028Z" transform="translate(-2261.44 -1214.468)" fill="#039be5"/>
      </g>
      <g id="Grupo_56267" data-name="Grupo 56267" transform="translate(35.336 10.643)">
        <rect id="Rectángulo_30830" data-name="Rectángulo 30830" width="6.219" height="11.234" transform="translate(6.219 11.234) rotate(180)" fill="#4dd0e1"/>
      </g>
    </g>
    <g id="Grupo_56274" data-name="Grupo 56274" transform="translate(524.41 433.259)">
      <g id="Grupo_56269" data-name="Grupo 56269" transform="translate(31.883 0)">
        <rect id="Rectángulo_30831" data-name="Rectángulo 30831" width="13.221" height="42.651" transform="translate(13.221 42.651) rotate(180)" fill="#039be5"/>
      </g>
      <g id="Grupo_56270" data-name="Grupo 56270" transform="translate(0 0)">
        <rect id="Rectángulo_30832" data-name="Rectángulo 30832" width="31.883" height="42.651" transform="translate(31.883 42.651) rotate(180)" fill="#1565c0"/>
      </g>
      <g id="Grupo_56271" data-name="Grupo 56271" transform="translate(36.287 3.12)">
        <path id="Trazado_104954" data-name="Trazado 104954" d="M2152.382,1213.513a2.207,2.207,0,1,0-2.206,2.207A2.206,2.206,0,0,0,2152.382,1213.513Z" transform="translate(-2147.969 -1211.306)" fill="#dde7fe"/>
      </g>
      <g id="Grupo_56272" data-name="Grupo 56272" transform="translate(36.933 3.767)">
        <path id="Trazado_104955" data-name="Trazado 104955" d="M2154.252,1216.028a1.56,1.56,0,1,0-1.561,1.56A1.56,1.56,0,0,0,2154.252,1216.028Z" transform="translate(-2151.131 -1214.468)" fill="#039be5"/>
      </g>
      <g id="Grupo_56273" data-name="Grupo 56273" transform="translate(35.336 10.643)">
        <rect id="Rectángulo_30833" data-name="Rectángulo 30833" width="6.219" height="11.234" transform="translate(6.219 11.234) rotate(180)" fill="#4dd0e1"/>
      </g>
    </g>
    <g id="Grupo_56278" data-name="Grupo 56278" transform="translate(522.423 461.034)">
      <g id="Grupo_56275" data-name="Grupo 56275" transform="translate(0 0)">
        <rect id="Rectángulo_30834" data-name="Rectángulo 30834" width="74.697" height="55.189" transform="translate(74.697 55.189) rotate(180)" fill="#ffa726"/>
      </g>
      <g id="Grupo_56276" data-name="Grupo 56276" transform="translate(40.029 0)">
        <rect id="Rectángulo_30835" data-name="Rectángulo 30835" width="59.225" height="55.189" transform="translate(59.225 55.189) rotate(180)" fill="#ffca28"/>
      </g>
      <g id="Grupo_56277" data-name="Grupo 56277" transform="translate(63.621 5.332)">
        <rect id="Rectángulo_30836" data-name="Rectángulo 30836" width="18.795" height="3.678" rx="1.839" transform="translate(18.795 3.678) rotate(180)" fill="#1565c0"/>
      </g>
    </g>
    <g id="Grupo_56289" data-name="Grupo 56289" transform="translate(300.215 323.492)">
      <g id="Grupo_56279" data-name="Grupo 56279" transform="translate(99.505 64.275)">
        <path id="Trazado_104956" data-name="Trazado 104956" d="M1370.771,974.667l-10.1,120.11s-1.058,7.281,4.357,7.294c8.9.021,44.321,0,44.321,0s-6.7-1.516-6.621-4.926c.1-4.019,11.806-123.615,11.806-123.615Z" transform="translate(-1360.586 -973.531)" fill="#039be5"/>
      </g>
      <g id="Grupo_56280" data-name="Grupo 56280" transform="translate(102.416 62.044)">
        <path id="Trazado_104957" data-name="Trazado 104957" d="M1424.01,1091.2c-1.143,0-16.161.029-28.979.016-6.629-.007-12.723-.025-15.732-.064-3.779-.047-4.442-3.36-4.473-5.5a10.738,10.738,0,0,1,.115-1.788l.263-3.122.669-7.957.592-7.03.76-9.033.64-7.625,7.178-85.347,43.763-1.136s-4.932,50.05-8.421,86.482c-.389,4.059-.76,7.952-1.1,11.585q-.167,1.74-.322,3.4c-.324,3.447-.619,6.612-.876,9.407-.136,1.473-.261,2.842-.374,4.1-.445,4.913-.706,8.051-.709,8.647a5.052,5.052,0,0,0,.085.972C1417.8,1091.031,1423.353,1091.2,1424.01,1091.2Z" transform="translate(-1374.825 -962.616)" fill="#4dd0e1"/>
      </g>
      <g id="Grupo_56281" data-name="Grupo 56281" transform="translate(3.41 0)">
        <path id="Trazado_104958" data-name="Trazado 104958" d="M890.558,659.143l24.606,98.836,3.369,13.536,11.46,46.035H1142.9l-42.24-158.407Z" transform="translate(-890.558 -659.143)" fill="#4dd0e1"/>
      </g>
      <g id="Grupo_56282" data-name="Grupo 56282" transform="translate(0)">
        <path id="Trazado_104959" data-name="Trazado 104959" d="M877.286,659.142l-3.41,1.137,38.312,160.708,4.534-3.438Z" transform="translate(-873.876 -659.142)" fill="#039be5"/>
      </g>
      <g id="Grupo_56283" data-name="Grupo 56283" transform="translate(38.312 158.407)">
        <path id="Trazado_104960" data-name="Trazado 104960" d="M1061.271,1437.4h211.6l5.843-3.438H1065.8Z" transform="translate(-1061.271 -1433.96)" fill="#039be5"/>
      </g>
      <g id="Grupo_56284" data-name="Grupo 56284" transform="translate(112.619 190.633)">
        <rect id="Rectángulo_30837" data-name="Rectángulo 30837" width="45.815" height="2.177" transform="translate(45.815 2.177) rotate(180)" fill="#039be5"/>
      </g>
      <g id="Grupo_56285" data-name="Grupo 56285" transform="translate(103.465 161.845)">
        <path id="Trazado_104961" data-name="Trazado 104961" d="M1423.276,1450.772l-.236,1.664-43.086,8.7.591-7.03.282-3.339Z" transform="translate(-1379.953 -1450.772)" fill="#1565c0"/>
      </g>
      <g id="Grupo_56286" data-name="Grupo 56286" transform="translate(102.418 177.012)" opacity="0.5">
        <path id="Trazado_104962" data-name="Trazado 104962" d="M1424.016,1538.581c-1.751.005-36.039.063-44.71-.048-3.779-.047-4.442-3.36-4.473-5.5l42.883-8.068c-.445,4.913-.706,8.051-.71,8.647a5.062,5.062,0,0,0,.085.972C1417.809,1538.407,1423.358,1538.581,1424.016,1538.581Z" transform="translate(-1374.832 -1524.96)" fill="#039be5"/>
      </g>
      <g id="Grupo_56287" data-name="Grupo 56287" transform="translate(3.41)">
        <path id="Trazado_104963" data-name="Trazado 104963" d="M890.556,659.142h210.105l34.09,127.309h-212.5Z" transform="translate(-890.556 -659.142)" fill="#4dd0e1"/>
      </g>
      <g id="Grupo_56288" data-name="Grupo 56288" transform="translate(12.112 6.82)">
        <path id="Trazado_104964" data-name="Trazado 104964" d="M1158.7,807.474H961.98l-7.03-28-2.72-10.836-1.109-4.419-7.226-28.78-.373-1.5-3.82-15.212-1.709-6.807-1.457-5.806-1.19-4.735-2.228-8.874h193.888l2.447,8.874,1.3,4.735,1.6,5.806,1.876,6.807,12.363,44.842v0l1.046,3.8.488,1.763,8.534,30.958Z" transform="translate(-933.119 -692.502)" fill="#1565c0"/>
      </g>
    </g>
    <g id="Grupo_56311" data-name="Grupo 56311" transform="translate(217.731 386.293)">
      <g id="Grupo_56310" data-name="Grupo 56310" transform="translate(0)">
        <g id="Grupo_56290" data-name="Grupo 56290" transform="translate(54.14)">
          <path id="Trazado_104965" data-name="Trazado 104965" d="M755.26,971.911s.513-5.592-5.735-5.592a7.334,7.334,0,0,1,2.872,1.54s-3.985-2.339-8.321,1.255-1.642,12.61-2.961,14.322-6.454,2.054-5.826,7.589,16.3,12.467,15.292,17.047c0,0,6.141-9.027,1.75-13.148a8.139,8.139,0,0,1,2.359,4.413s.581-4.679-2.4-6.176c-2.635-1.324-4.793-6.168-4.565-7.034S755.26,971.911,755.26,971.911Z" transform="translate(-735.235 -966.319)" fill="#2c3a64"/>
        </g>
        <g id="Grupo_56291" data-name="Grupo 56291" transform="translate(61.394 32.44)">
          <path id="Trazado_104966" data-name="Trazado 104966" d="M777.336,1124.994s4.667,19.31,9.249,23.171c2.754,2.32,10.943,7.645,10.943,7.645l-3.406,1.236s-11.358-3.836-13.9-6.825-9.505-17.971-9.505-17.971Z" transform="translate(-770.716 -1124.994)" fill="#ffb27d"/>
        </g>
        <g id="Grupo_56292" data-name="Grupo 56292" transform="translate(66.487 62.778)">
          <path id="Trazado_104967" data-name="Trazado 104967" d="M824.107,1280.921l-1.1-2.716a7.7,7.7,0,0,0-7.144-4.819H795.631v67.656h83.706v-54.816H831.969A8.479,8.479,0,0,1,824.107,1280.921Z" transform="translate(-795.631 -1273.385)" fill="#ffca28"/>
        </g>
        <g id="Grupo_56293" data-name="Grupo 56293" transform="translate(21.234 48.111)">
          <path id="Trazado_104968" data-name="Trazado 104968" d="M577.195,1219.9c.041.074.085.15.128.226,1.022,1.776,3.365,6.126,5.946,10.886,1.221,2.258,2.5,4.61,3.712,6.822,2.089,3.818,3.99,7.218,5.1,9.015,1.128,1.827,1.958,3.111,2.294,3.624l0,0a.849.849,0,0,1,.109.53,27.712,27.712,0,0,0,.074,4.787,36.728,36.728,0,0,0,12,23.787l3.105.459s-4.394-16.28-5.689-25.483a17.7,17.7,0,0,1-.238-3.648,38.1,38.1,0,0,0-1-9.96,223.176,223.176,0,0,0-6.349-23.055c-.145-.45-4.512-16.247-4.512-16.247-3.665,3.2-17.033,4.525-17.033,4.525S572.574,1211.682,577.195,1219.9Z" transform="translate(-574.285 -1201.646)" fill="#039be5"/>
        </g>
        <g id="Grupo_56294" data-name="Grupo 56294" transform="translate(50.099 123.223)">
          <path id="Trazado_104969" data-name="Trazado 104969" d="M728.5,1576.249h-12.96a7.115,7.115,0,0,1,.366-3.473c.649-1.438,1.573-1.484.118-3.738.823.848,3.471,1.2,5.344.947.23.372,1.48,2.869,2.247,3.42C724.466,1574.013,728.243,1573.8,728.5,1576.249Z" transform="translate(-715.473 -1569.038)" fill="#233862"/>
        </g>
        <g id="Grupo_56295" data-name="Grupo 56295" transform="translate(24.144 58.724)">
          <path id="Trazado_104970" data-name="Trazado 104970" d="M588.518,1261.2c.041.074.085.15.128.226,1.022,1.775,6.546,11.978,9.126,16.738a69.013,69.013,0,0,1-.911-24.606Z" transform="translate(-588.518 -1253.554)" fill="#1565c0"/>
        </g>
        <g id="Grupo_56296" data-name="Grupo 56296" transform="translate(62.29 4.715)">
          <path id="Trazado_104971" data-name="Trazado 104971" d="M785.208,989.471c.085-.34-7.4,3.384-7.781,3.8-3.511,3.894-2.51,8.977-.5,9.026,1.288.032,1.039,2.174,1.039,2.174l14.355-6.072S790.591,988.324,785.208,989.471Z" transform="translate(-775.102 -989.38)" fill="#2c3a64"/>
        </g>
        <g id="Grupo_56297" data-name="Grupo 56297" transform="translate(60.019 29.54)">
          <path id="Trazado_104972" data-name="Trazado 104972" d="M771.547,1110.81s2.184,4.363,1.911,7.905c0,0-2.634,4.158-9.465,5.21C763.993,1123.925,769.866,1110.807,771.547,1110.81Z" transform="translate(-763.993 -1110.81)" fill="#4dd0e1"/>
        </g>
        <g id="Grupo_56298" data-name="Grupo 56298" transform="translate(1.718 45.407)">
          <path id="Trazado_104973" data-name="Trazado 104973" d="M511.354,1196.612l.044-2.424c-4.829.609-16.651-5.771-16.651-5.771s-5.052,3.36-5.744,12.957c-.338,4.684-2.473,24.493-2.71,30.408-.086,2.144-.115,3.674-.125,4.285a.01.01,0,0,1,0,.006.843.843,0,0,1-.205.5,27.666,27.666,0,0,0-2.617,4.011c-7.369,13.711-3.515,32.34-3.515,32.34l1.711-.435s6.231-19.313,10.3-27.667a17.451,17.451,0,0,1,1.844-3.157,38.119,38.119,0,0,0,4.737-8.819C501.436,1225.66,511.354,1196.612,511.354,1196.612Z" transform="translate(-478.825 -1188.417)" fill="#039be5"/>
        </g>
        <g id="Grupo_56299" data-name="Grupo 56299" transform="translate(0 123.129)">
          <path id="Trazado_104974" data-name="Trazado 104974" d="M483.452,1575.885h-12.96a7.115,7.115,0,0,1,.366-3.474c.649-1.438,1.665-2.091,1.421-3.831a4.666,4.666,0,0,0,4.039,1.545,14.237,14.237,0,0,0,2.249,2.915C479.415,1573.649,483.192,1573.432,483.452,1575.885Z" transform="translate(-470.422 -1568.58)" fill="#233862"/>
        </g>
        <g id="Grupo_56300" data-name="Grupo 56300" transform="translate(17.125 22.195)">
          <path id="Trazado_104975" data-name="Trazado 104975" d="M596.2,1098.127c-1.741.3.284,1.681-2.11,1.941-3.407.372-6.926.626-8.769,1.362a1.979,1.979,0,0,0-1.262,1.022c-.8,2.4-5.858,6.53-5.858,6.53-22.566-1.027-24.02-11.085-24.02-11.085,14.646-14.224,27.106-21.978,37.4-22.937a18.318,18.318,0,0,1,7.469.786c3.6,1.6,5.575,6.483,5.575,6.483S602.818,1097,596.2,1098.127Z" transform="translate(-554.184 -1074.884)" fill="#4dd0e1"/>
        </g>
        <g id="Grupo_56301" data-name="Grupo 56301" transform="translate(48.192 29.021)">
          <path id="Trazado_104976" data-name="Trazado 104976" d="M714.985,1126.629c-3.407.372-6.926.626-8.769,1.362a35.936,35.936,0,0,1,4.558-19.72S714.239,1122.369,714.985,1126.629Z" transform="translate(-706.143 -1108.27)" fill="#039be5"/>
        </g>
        <g id="Grupo_56302" data-name="Grupo 56302" transform="translate(49.564 27.106)">
          <path id="Trazado_104977" data-name="Trazado 104977" d="M723.263,1098.911s-8.57-.468-10.092,4.912,2.857,26.855,3.8,29.072c1.718,4.035,10.382,16.054,10.382,16.054l2.777-1.438s-5.577-17.594-6.823-19.336C721.353,1125.442,725.828,1101.252,723.263,1098.911Z" transform="translate(-712.852 -1098.901)" fill="#ffb27d"/>
        </g>
        <g id="Grupo_56303" data-name="Grupo 56303" transform="translate(63.692 75.341)">
          <path id="Trazado_104978" data-name="Trazado 104978" d="M785.108,1335.21a12.651,12.651,0,0,1,1.293,1.327c.577.7.069.959,1.725,4.147,0,0-.085.443-.444.362s-1.609-1.318-2.25-1.229c0,0-.458.377-.508,1.627a30.193,30.193,0,0,1-.254,4.241c-.2.486-1.691-2.037-2.423-3.86-.642-1.6-.016-6.991-.016-6.991Z" transform="translate(-781.957 -1334.836)" fill="#ffb27d"/>
        </g>
        <g id="Grupo_56304" data-name="Grupo 56304" transform="translate(48.192 25.516)">
          <path id="Trazado_104979" data-name="Trazado 104979" d="M706.144,1104.834c.022.126,8.109,1.488,13.168-1.08,0,0,4.226-13.238-1.813-12.6s-9.615,2.536-9.767,5.426A55.669,55.669,0,0,1,706.144,1104.834Z" transform="translate(-706.144 -1091.127)" fill="#4dd0e1"/>
        </g>
        <g id="Grupo_56305" data-name="Grupo 56305" transform="translate(61.795 18.819)">
          <path id="Trazado_104980" data-name="Trazado 104980" d="M772.69,1063.532a5.381,5.381,0,0,0,1.626,3.77c1.074,1.106,2.626,1.97,3.717.879a11.83,11.83,0,0,0,1.686-2.038c.943-1.619,2.065-3.274,2.065-3.274l-4.85-4.25-.289-.254a12.356,12.356,0,0,1-3.613,4.1A1.125,1.125,0,0,0,772.69,1063.532Z" transform="translate(-772.68 -1058.366)" fill="#ffb27d"/>
        </g>
        <g id="Grupo_56306" data-name="Grupo 56306" transform="translate(65.959 19.072)">
          <path id="Trazado_104981" data-name="Trazado 104981" d="M797.989,1063.859s-1.121,1.651-2.064,3.273c-3.015-1.859-3.018-5.591-2.786-7.524Z" transform="translate(-793.049 -1059.608)" fill="#ed985f"/>
        </g>
        <g id="Grupo_56307" data-name="Grupo 56307" transform="translate(65.758 10.405)">
          <path id="Trazado_104982" data-name="Trazado 104982" d="M797.34,1032.262s-7.32-4.073-4.713-8.592,3.418-8.089,8.2-5.679,4.689,4.653,4.186,6.373S799.312,1033.2,797.34,1032.262Z" transform="translate(-792.066 -1017.214)" fill="#ffb27d"/>
        </g>
        <g id="Grupo_56308" data-name="Grupo 56308" transform="translate(64.989 9.793)">
          <path id="Trazado_104983" data-name="Trazado 104983" d="M803.258,1019.344c-.335-2.007-1.354-2.2-2.065-2.064a5.854,5.854,0,0,0-7.12-2.726,9.966,9.966,0,0,1-5.769,3.466s.849,1.581,4.349,2.559a5.985,5.985,0,0,0,3.453-.276,19.533,19.533,0,0,1-4.967,1.872c4.612.422,9-3.794,9.455-4.245a6.567,6.567,0,0,1,.362,3.022c-.3,1.359-1.51,3.821-.773,4.139C800.183,1025.09,803.761,1022.354,803.258,1019.344Z" transform="translate(-788.304 -1014.219)" fill="#2c3a64"/>
        </g>
        <g id="Grupo_56309" data-name="Grupo 56309" transform="translate(88.467 63.127)">
          <path id="Trazado_104984" data-name="Trazado 104984" d="M904.22,1275.228s-2.043,1.532-.5,2.534,4.288,1.272,4.3.615C908.054,1276.171,906.954,1274.6,904.22,1275.228Z" transform="translate(-903.143 -1275.09)" fill="#ffb27d"/>
        </g>
      </g>
    </g>
    <g id="Grupo_56312" data-name="Grupo 56312" transform="translate(174.968 516.317)">
      <rect id="Rectángulo_30838" data-name="Rectángulo 30838" width="477.718" height="1.377" rx="0.688" fill="#233862"/>
    </g>
    <g id="Grupo_56313" data-name="Grupo 56313" transform="translate(326.071 356.726)">
      <path id="Trazado_104985" data-name="Trazado 104985" d="M1030.464,829.132l-1.815-2.679a10.593,10.593,0,0,0-8.346-4.753h-19.957l3.463,12.663,13.742,50.249a5.181,5.181,0,0,0,5,3.814h71.814a5.18,5.18,0,0,0,5-6.547l-12.995-47.516h-46.717A11.657,11.657,0,0,1,1030.464,829.132Z" transform="translate(-1000.346 -821.7)" fill="#ffca28"/>
    </g>
    <g id="Grupo_56338" data-name="Grupo 56338" transform="translate(329.526 261.835)">
      <g id="Grupo_56334" data-name="Grupo 56334" transform="translate(0 0)">
        <g id="Grupo_56314" data-name="Grupo 56314" transform="translate(28.447 77.292)">
          <path id="Trazado_104986" data-name="Trazado 104986" d="M1156.676,745.574a1.111,1.111,0,0,0-.2,1.187.009.009,0,0,0,0,.006,7.377,7.377,0,0,0,2.331,2.559c.141.113.266.217.374.312.028.025.057.05.084.075l.065.059c1.024.945.638,1.161,2.479,3.079,2.1,2.185,3.544,2.225,3.956,2.026.348-.17-.359-1.328-1.142-2.631-.038-.063-.075-.126-.114-.19-.1-.173-.208-.349-.311-.523-.917-1.568-.681-2.3-.463-4.635.177-1.9,2.952-10.588,2.952-10.588l-4.023-.695s-1.214,6.922-2.549,7.988c-.714.568-1.513.575-2.2,1-.049.029-.1.059-.143.09A5.291,5.291,0,0,0,1156.676,745.574Z" transform="translate(-1156.39 -735.616)" fill="#ffb27d"/>
        </g>
        <g id="Grupo_56315" data-name="Grupo 56315" transform="translate(28.447 86.366)">
          <path id="Trazado_104987" data-name="Trazado 104987" d="M1156.676,780.882a1.111,1.111,0,0,0-.2,1.187.009.009,0,0,0,0,.006,8.545,8.545,0,0,0,2.335,2.551c.139.115.261.221.37.32.028.025.057.05.084.075l.065.058c1.024.945.638,1.161,2.479,3.079,2.1,2.185,3.544,2.225,3.956,2.026.348-.169-.359-1.328-1.142-2.631a8.947,8.947,0,0,1-3.741-2.759c-1.218-1.555-2.044-3.537-2.873-4.753l-.236-.044A5.287,5.287,0,0,0,1156.676,780.882Z" transform="translate(-1156.39 -779.998)" fill="#233862"/>
        </g>
        <g id="Grupo_56316" data-name="Grupo 56316" transform="translate(57.962 76.077)">
          <path id="Trazado_104988" data-name="Trazado 104988" d="M1303.971,738.344c.248,1.242,2.019,1.035,4,.553s1.508.092,4.323-.219,3.668-1.36,3.754-1.779c.077-.371-1.314-.5-2.806-.675-.187-.021-.376-.044-.564-.068-1.684-.212-2.918-1.3-4.447-2.192-1.449-.846-3.61-4.292-3.61-4.292l-3.861.3s2.025,3.077,2.808,4.415a4.666,4.666,0,0,1,.378,2.631A4.953,4.953,0,0,0,1303.971,738.344Z" transform="translate(-1300.756 -729.673)" fill="#ffb27d"/>
        </g>
        <g id="Grupo_56317" data-name="Grupo 56317" transform="translate(61.118 82.629)">
          <path id="Trazado_104989" data-name="Trazado 104989" d="M1320.25,764.391c1.978-.483,1.508.092,4.323-.219s3.668-1.36,3.754-1.779c.077-.371-1.314-.5-2.806-.675l-.014.028a7.933,7.933,0,0,1-4.032,1.252c-1.91.046-3.932-.5-5.251-.481a4.954,4.954,0,0,0,.029,1.32C1316.5,765.081,1318.272,764.874,1320.25,764.391Z" transform="translate(-1316.195 -761.719)" fill="#233862"/>
        </g>
        <g id="Grupo_56318" data-name="Grupo 56318" transform="translate(33.14 53.869)">
          <path id="Trazado_104990" data-name="Trazado 104990" d="M1192.6,627.236l-3.612,9.71-4.716,12.678a7.627,7.627,0,0,1-2.5-.23,10.856,10.856,0,0,1-2.42-1.179s1.313-13.614,3.756-21.428a13.921,13.921,0,0,1,2.1-4.541C1188.989,617.776,1192.6,627.236,1192.6,627.236Z" transform="translate(-1179.347 -621.046)" fill="#ffa726"/>
        </g>
        <g id="Grupo_56319" data-name="Grupo 56319" transform="translate(7.818 42.685)">
          <path id="Trazado_104991" data-name="Trazado 104991" d="M1090.4,568.3c-2.054-.663-7.414-.013-13.228,1.037a3.943,3.943,0,0,1-4.071-1.84h0l-14.63-1.148s-4.832,10.7-2.191,17.528a2.567,2.567,0,0,0,2.557,1.65h0s8.841.015,11.668.016c7.276,0,15.4-5,16.452-5.206,1.72-.343,2.407,3.1,4.125,6.709s16.161,16,16.161,16a12.7,12.7,0,0,0,3.138-.321,3.091,3.091,0,0,0,1.348-.85S1095.728,570.017,1090.4,568.3Z" transform="translate(-1055.487 -566.345)" fill="#ffca28"/>
        </g>
        <g id="Grupo_56320" data-name="Grupo 56320" transform="translate(0.059)">
          <path id="Trazado_104992" data-name="Trazado 104992" d="M1041.366,358.427a5.19,5.19,0,0,0-2.795-.728,7.763,7.763,0,0,1-1.349-.082c-5.584-.821-8.949,7.289-9.147,9.74-.363,4.5-2.744,5.185-6.095,8-6.72,5.648-4.752,12.214-1.08,14.655,2.2,1.464,6.089,0,6.089,0,.055.038,10.626-5.9,15.837-8.772C1050.637,380.134,1044.5,360.3,1041.366,358.427Z" transform="translate(-1017.536 -357.558)" fill="#233862"/>
        </g>
        <g id="Grupo_56321" data-name="Grupo 56321" transform="translate(13.856 13.047)">
          <path id="Trazado_104993" data-name="Trazado 104993" d="M1092.149,429.568c.023.015-2.564.9-4.293.13-1.626-.72-2.858-3.4-2.834-3.4.74-.034,1.553-.681,2.18-4.926l.315.113,5.3,1.909s-.385,1.7-.633,3.319C1091.972,428.074,1091.859,429.375,1092.149,429.568Z" transform="translate(-1085.021 -421.374)" fill="#ffb27d"/>
        </g>
        <g id="Grupo_56322" data-name="Grupo 56322" transform="translate(16.352 13.16)">
          <path id="Trazado_104994" data-name="Trazado 104994" d="M1102.527,423.836s-.212.917-.521,2.631a5.983,5.983,0,0,1-4.777-4.539Z" transform="translate(-1097.229 -421.928)" fill="#ed975d"/>
        </g>
        <g id="Grupo_56323" data-name="Grupo 56323" transform="translate(15.821 4.003)">
          <path id="Trazado_104995" data-name="Trazado 104995" d="M1101.251,389.891s-7.249-.976-6.572-5.481.2-7.665,4.855-7.233,5.3,2.287,5.436,3.845S1103.155,390.028,1101.251,389.891Z" transform="translate(-1094.635 -377.138)" fill="#ffb27d"/>
        </g>
        <g id="Grupo_56324" data-name="Grupo 56324" transform="translate(13.742 3.605)">
          <path id="Trazado_104996" data-name="Trazado 104996" d="M1096.616,377s-4.643,4-7.8,4.319-4.352-.692-4.352-.692a12.331,12.331,0,0,0,2.982-4.037,2.22,2.22,0,0,1,1.83-1.308C1091.531,375.092,1095.8,375,1096.616,377Z" transform="translate(-1084.465 -375.191)" fill="#233862"/>
        </g>
        <g id="Grupo_56325" data-name="Grupo 56325" transform="translate(22.992 4.192)">
          <path id="Trazado_104997" data-name="Trazado 104997" d="M1129.709,378.929a11.428,11.428,0,0,1,2.041,2.615,8.775,8.775,0,0,1,.236,4.665s2.421-4.7,1.052-6.989C1131.586,376.8,1129.709,378.929,1129.709,378.929Z" transform="translate(-1129.709 -378.062)" fill="#233862"/>
        </g>
        <g id="Grupo_56326" data-name="Grupo 56326" transform="translate(7.63 17.802)">
          <path id="Trazado_104998" data-name="Trazado 104998" d="M1074.023,458.754c-.224,14.675-.064,11.609-1.67,13a6.167,6.167,0,0,1-2.906.628c-4.5.3-12.41-.447-12.711-1.278-1.037-2.878-.3-3.771-1.168-8.177-.09-.469-.2-.976-.333-1.528-.721-3.026-1.424-4.056,1.14-8.916,2.324-4.4,4.739-7.975,4.956-7.846,6.128,3.64,6.623.582,6.623.582S1074.133,451.6,1074.023,458.754Z" transform="translate(-1054.568 -444.634)" fill="#039be5"/>
        </g>
        <g id="Grupo_56327" data-name="Grupo 56327" transform="translate(33.14 59.61)">
          <path id="Trazado_104999" data-name="Trazado 104999" d="M1188.986,659.286l-4.716,12.678a7.625,7.625,0,0,1-2.5-.23,10.848,10.848,0,0,1-2.42-1.179s1.313-13.614,3.756-21.428Z" transform="translate(-1179.347 -649.127)" fill="#ffca28"/>
        </g>
        <g id="Grupo_56328" data-name="Grupo 56328" transform="translate(21.017 18.387)">
          <path id="Trazado_105000" data-name="Trazado 105000" d="M1120.046,447.5s6.306,1.071,7.046,3.787,3.171,19.2,3.171,19.2-1.779,1.736-3.259.254-4.656-15.422-4.656-15.422Z" transform="translate(-1120.046 -447.496)" fill="#039be5"/>
        </g>
        <g id="Grupo_56329" data-name="Grupo 56329" transform="translate(8.63 29.985)">
          <path id="Trazado_105001" data-name="Trazado 105001" d="M1073.338,519.79c-4.5.3-12.41-.447-12.711-1.279-1.037-2.878-.3-3.771-1.168-8.177l2.173-6.111s-.361,6.806,1.645,8.6,8.217,3.459,9.192,4.954A5.477,5.477,0,0,1,1073.338,519.79Z" transform="translate(-1059.459 -504.223)" fill="#1565c0"/>
        </g>
        <g id="Grupo_56330" data-name="Grupo 56330" transform="translate(17.354 42.002)">
          <path id="Trazado_105002" data-name="Trazado 105002" d="M1102.131,563.688s4.44-.987,5.156-.593a10.418,10.418,0,0,1,2.685,2.329c.219.5-1.594-.38-2.184-.538a5.254,5.254,0,0,0-1.886.412,6.271,6.271,0,0,1-3.379.338Z" transform="translate(-1102.131 -563.002)" fill="#ffb27d"/>
        </g>
        <g id="Grupo_56331" data-name="Grupo 56331" transform="translate(0 17.803)">
          <path id="Trazado_105003" data-name="Trazado 105003" d="M1031.637,444.636s-5.961.365-8.026,3.242c-2.906,4.051-8.675,21.315-5.373,23.619,3.718,2.595,16.927.684,16.927.684s.44-2.054-.171-3.048-10.548-2.6-11.007-3.061,5.736-8.942,5.737-10.318S1031.637,444.636,1031.637,444.636Z" transform="translate(-1017.247 -444.636)" fill="#039be5"/>
        </g>
        <g id="Grupo_56332" data-name="Grupo 56332" transform="translate(22.725 43.331)">
          <path id="Trazado_105004" data-name="Trazado 105004" d="M1128.4,569.5a8.58,8.58,0,0,0,1.235,1.343.913.913,0,0,0,.5.108l-.626-1.129Z" transform="translate(-1128.4 -569.502)" fill="#ffb27d"/>
        </g>
        <g id="Grupo_56333" data-name="Grupo 56333" transform="translate(22.51 42.095)">
          <path id="Trazado_105005" data-name="Trazado 105005" d="M1127.352,563.457l2.7,1.314a.481.481,0,0,1-.448.173,6.433,6.433,0,0,1-1.173-.323Z" transform="translate(-1127.352 -563.457)" fill="#ffb27d"/>
        </g>
      </g>
      <g id="Grupo_56335" data-name="Grupo 56335" transform="translate(17.353 45.18)">
        <path id="Trazado_105006" data-name="Trazado 105006" d="M1130.376,578.559l-28.25-.01v.623l28,.01Z" transform="translate(-1102.126 -578.549)" fill="#636363"/>
      </g>
      <g id="Grupo_56336" data-name="Grupo 56336" transform="translate(23.959 29.805)">
        <path id="Trazado_105007" data-name="Trazado 105007" d="M1134.438,519.345l21.393.007,6.441-16-21.361-.007Z" transform="translate(-1134.438 -503.344)" fill="#afafaf"/>
      </g>
      <g id="Grupo_56337" data-name="Grupo 56337" transform="translate(37.876 36.791)">
        <path id="Trazado_105008" data-name="Trazado 105008" d="M1204.589,538.535a.741.741,0,0,0-.726-1.019,1.459,1.459,0,0,0-1.311,1.018.742.742,0,0,0,.726,1.019A1.46,1.46,0,0,0,1204.589,538.535Z" transform="translate(-1202.51 -537.516)" fill="#fff"/>
      </g>
    </g>
    <g id="Grupo_56339" data-name="Grupo 56339" transform="translate(431.975 347.547)" opacity="0.5">
      <path id="Trazado_105009" data-name="Trazado 105009" d="M1561.382,789.8l-5.917-7.559-.279-.356-.333-.061-27.31-5.025-9.19,49.952,35.4,6.514,7.861-42.731.065-.35Z" transform="translate(-1518.351 -776.803)" fill="#4dd0e1"/>
    </g>
    <g id="Grupo_56341" data-name="Grupo 56341" transform="translate(420.999 338.375)">
      <g id="Grupo_56340" data-name="Grupo 56340" transform="translate(0)">
        <path id="Trazado_105010" data-name="Trazado 105010" d="M1500.907,738.615l.013.355,1.685,43.415-35.972,1.4-1.969-50.752,27.748-1.076.338-.013.351.287,7.428,6.08Z" transform="translate(-1464.665 -731.939)" fill="#039be5"/>
      </g>
    </g>
    <g id="Grupo_56356" data-name="Grupo 56356" transform="translate(373.341 354.052)">
      <g id="Grupo_56342" data-name="Grupo 56342" transform="translate(0 3.43)">
        <path id="Trazado_105011" data-name="Trazado 105011" d="M1291.793,825.4l-60.03,3.346a.22.22,0,0,0-.207.232l4.381,78.609a.22.22,0,0,0,.232.208l59.945-3.341a.22.22,0,0,0,.207-.232l-4.386-78.694A.134.134,0,0,0,1291.793,825.4Z" transform="translate(-1231.555 -825.399)" fill="#233862"/>
      </g>
      <g id="Grupo_56343" data-name="Grupo 56343" transform="translate(2.003 5.38)">
        <path id="Trazado_105012" data-name="Trazado 105012" d="M1299.477,909.555l-50.848,3.19a2.766,2.766,0,0,1-2.935-2.588l-4.336-69.092a2.767,2.767,0,0,1,2.589-2.935l50.848-3.191a2.767,2.767,0,0,1,2.935,2.589l4.336,69.092A2.767,2.767,0,0,1,1299.477,909.555Z" transform="translate(-1241.353 -834.934)" fill="#ebf3fa"/>
      </g>
      <g id="Grupo_56354" data-name="Grupo 56354" transform="translate(7.992 15.923)">
        <g id="Grupo_56344" data-name="Grupo 56344">
          <path id="Trazado_105013" data-name="Trazado 105013" d="M1302.713,887.364l-31.987,2.007a.03.03,0,0,1-.031-.028l-.05-.8a.029.029,0,0,1,.027-.032l31.987-2.007a.03.03,0,0,1,.031.028l.05.8A.03.03,0,0,1,1302.713,887.364Z" transform="translate(-1270.645 -886.506)" fill="#bdd1f9"/>
        </g>
        <g id="Grupo_56345" data-name="Grupo 56345" transform="translate(0.431 6.868)">
          <path id="Trazado_105014" data-name="Trazado 105014" d="M1304.82,920.956l-31.987,2.007a.03.03,0,0,1-.031-.028l-.05-.8a.029.029,0,0,1,.028-.031l31.987-2.007a.03.03,0,0,1,.031.028l.05.8A.03.03,0,0,1,1304.82,920.956Z" transform="translate(-1272.751 -920.098)" fill="#bdd1f9"/>
        </g>
        <g id="Grupo_56346" data-name="Grupo 56346" transform="translate(0.215 2.667)">
          <path id="Trazado_105015" data-name="Trazado 105015" d="M1315.987,900.41l-44.208,2.774a.03.03,0,0,1-.032-.028l-.05-.8a.03.03,0,0,1,.028-.031l44.208-2.774a.03.03,0,0,1,.032.027l.05.8A.029.029,0,0,1,1315.987,900.41Z" transform="translate(-1271.698 -899.552)" fill="#bdd1f9"/>
        </g>
        <g id="Grupo_56347" data-name="Grupo 56347" transform="translate(2.929 28.7)">
          <path id="Trazado_105016" data-name="Trazado 105016" d="M1306.813,1027.745l-21.763,1.366a.025.025,0,0,1-.026-.023l-.051-.81a.024.024,0,0,1,.023-.026l21.763-1.366a.025.025,0,0,1,.026.023l.051.81A.024.024,0,0,1,1306.813,1027.745Z" transform="translate(-1284.973 -1026.887)" fill="#bdd1f9"/>
        </g>
        <g id="Grupo_56348" data-name="Grupo 56348" transform="translate(2.714 24.745)">
          <path id="Trazado_105017" data-name="Trazado 105017" d="M1314.077,1008.4,1284,1010.285a.025.025,0,0,1-.026-.023l-.051-.81a.024.024,0,0,1,.023-.026l30.081-1.888a.024.024,0,0,1,.026.023l.051.81A.024.024,0,0,1,1314.077,1008.4Z" transform="translate(-1283.919 -1007.539)" fill="#bdd1f9"/>
        </g>
        <g id="Grupo_56349" data-name="Grupo 56349" transform="translate(3.02 31.89)">
          <path id="Trazado_105018" data-name="Trazado 105018" d="M1317.487,1043.347l-31.987,2.007a.03.03,0,0,1-.031-.028l-.05-.8a.03.03,0,0,1,.028-.031l31.987-2.007a.029.029,0,0,1,.031.028l.05.8A.03.03,0,0,1,1317.487,1043.347Z" transform="translate(-1285.418 -1042.489)" fill="#bdd1f9"/>
        </g>
        <g id="Grupo_56350" data-name="Grupo 56350" transform="translate(3.236 35.099)">
          <path id="Trazado_105019" data-name="Trazado 105019" d="M1322.118,1059.045l-35.567,2.232a.027.027,0,0,1-.028-.025l-.051-.806a.027.027,0,0,1,.025-.028l35.568-2.232a.027.027,0,0,1,.028.025l.051.805A.027.027,0,0,1,1322.118,1059.045Z" transform="translate(-1286.472 -1058.186)" fill="#bdd1f9"/>
        </g>
        <g id="Grupo_56351" data-name="Grupo 56351" transform="translate(3.809 41.912)">
          <path id="Trazado_105020" data-name="Trazado 105020" d="M1312.246,1092.369l-22.891,1.436a.026.026,0,0,1-.027-.024l-.051-.808a.026.026,0,0,1,.024-.027l22.891-1.437a.025.025,0,0,1,.026.024l.051.808A.025.025,0,0,1,1312.246,1092.369Z" transform="translate(-1289.277 -1091.511)" fill="#bdd1f9"/>
        </g>
        <g id="Grupo_56352" data-name="Grupo 56352" transform="translate(4.241 48.78)">
          <path id="Trazado_105021" data-name="Trazado 105021" d="M1314.355,1125.961l-22.891,1.436a.026.026,0,0,1-.027-.023l-.05-.808a.025.025,0,0,1,.023-.027l22.892-1.437a.025.025,0,0,1,.027.023l.051.808A.025.025,0,0,1,1314.355,1125.961Z" transform="translate(-1291.387 -1125.103)" fill="#bdd1f9"/>
        </g>
        <g id="Grupo_56353" data-name="Grupo 56353" transform="translate(4.025 44.797)">
          <path id="Trazado_105022" data-name="Trazado 105022" d="M1322.05,1106.48l-31.64,1.985a.025.025,0,0,1-.027-.024l-.051-.808a.025.025,0,0,1,.023-.027l31.64-1.985a.025.025,0,0,1,.026.023l.051.808A.025.025,0,0,1,1322.05,1106.48Z" transform="translate(-1290.332 -1105.622)" fill="#bdd1f9"/>
        </g>
      </g>
      <g id="Grupo_56355" data-name="Grupo 56355" transform="translate(12.715)">
        <path id="Trazado_105023" data-name="Trazado 105023" d="M1324.917,808.626l-27.995,1.56a3.234,3.234,0,0,0-3.169,3.29l.236,4.231a.747.747,0,0,0,.812.674l33.134-1.847a.748.748,0,0,0,.732-.761l-.236-4.23A3.234,3.234,0,0,0,1324.917,808.626Z" transform="translate(-1293.749 -808.62)" fill="#ffca28"/>
      </g>
    </g>
    <g id="Grupo_56381" data-name="Grupo 56381" transform="translate(399.324 348.446)">
      <g id="Grupo_56357" data-name="Grupo 56357" transform="translate(64.303 35.576)">
        <path id="Trazado_105024" data-name="Trazado 105024" d="M1677.351,959.228s-.582-1.309-.959-1.928-1.987-2.435-2.261-2.024-1.37,3.178-.787,3.952-.038,2.123,2.858,2.938Z" transform="translate(-1673.175 -955.216)" fill="#ffb27d"/>
      </g>
      <g id="Grupo_56358" data-name="Grupo 56358" transform="translate(66.942 31.326)">
        <path id="Trazado_105025" data-name="Trazado 105025" d="M1719.8,934.426s-14.825,12.375-20.606,11.229c-4.52-.9-11.667-3.163-11.667-3.163s-1.886,1.794-1.353,3.944c0,0,9.1,8.567,15.591,8.622,10.139.086,14.921-5.025,14.921-5.025Z" transform="translate(-1686.084 -934.426)" fill="#ffca28"/>
      </g>
      <g id="Grupo_56359" data-name="Grupo 56359" transform="translate(109.609 159.624)">
        <path id="Trazado_105026" data-name="Trazado 105026" d="M1911.831,1564.2s-.431,6.943-1.774,7.042c-.178.013-6.812.013-6.812.013l-8.468-.049a2.748,2.748,0,0,1,2.531-2.472c2.476-.431,6.618-2.171,8.118-5.442C1907,1559.854,1911.831,1564.2,1911.831,1564.2Z" transform="translate(-1894.777 -1561.971)" fill="#113c68"/>
      </g>
      <g id="Grupo_56360" data-name="Grupo 56360" transform="translate(98.422 76.63)">
        <path id="Trazado_105027" data-name="Trazado 105027" d="M1868.787,1241.729a17.656,17.656,0,0,1-4.584.861,16.834,16.834,0,0,1-4.28-.611,117.271,117.271,0,0,0-3.152-15.014c-1.4-5.412-3.4-12.372-6.236-21.02-7.855-23.9-10.244-37.883-10.462-39.207-.012-.07-.016-.1-.016-.1l.026-.012,24.149-10.6s-2.985,32.941.823,45.584a53.33,53.33,0,0,1,1.382,6.058C1868.843,1221.395,1868.787,1241.729,1868.787,1241.729Z" transform="translate(-1840.058 -1156.019)" fill="#2a4e96"/>
      </g>
      <g id="Grupo_56361" data-name="Grupo 56361" transform="translate(98.438 76.63)">
        <path id="Trazado_105028" data-name="Trazado 105028" d="M1856.835,1226.965c-1.4-5.412-3.4-12.372-6.236-21.02-7.855-23.9-10.244-37.883-10.461-39.207,0-.039,0-.077.009-.116l24.149-10.6s-2.985,32.941.823,45.584C1865.653,1203.371,1856.835,1226.965,1856.835,1226.965Z" transform="translate(-1840.138 -1156.019)" fill="#233862"/>
      </g>
      <g id="Grupo_56362" data-name="Grupo 56362" transform="translate(90.747 159.624)">
        <path id="Trazado_105029" data-name="Trazado 105029" d="M1819.574,1564.2s-.431,6.943-1.774,7.042c-.178.013-6.812.013-6.812.013l-8.468-.049a2.747,2.747,0,0,1,2.53-2.472c2.476-.431,6.619-2.171,8.118-5.442C1814.746,1559.854,1819.574,1564.2,1819.574,1564.2Z" transform="translate(-1802.52 -1561.971)" fill="#15447c"/>
      </g>
      <g id="Grupo_56363" data-name="Grupo 56363" transform="translate(94.103 77.406)">
        <path id="Trazado_105030" data-name="Trazado 105030" d="M1818.941,1159.815a343.806,343.806,0,0,0,3.38,47.555c3.693,26.209,2.442,37.334,2.442,37.334a25.165,25.165,0,0,0,3.561.906,16.163,16.163,0,0,0,5.284-.612s5.286-26.219,3.771-39.337,7.239-45.015,7.239-45.015Z" transform="translate(-1818.934 -1159.815)" fill="#2a4e96"/>
      </g>
      <g id="Grupo_56364" data-name="Grupo 56364" transform="translate(101.221 16.901)">
        <path id="Trazado_105031" data-name="Trazado 105031" d="M1863.762,874.422l-4.714,3.091-4.294-1.214c-.785-1.12-.993-3.278-1-5.148a31.938,31.938,0,0,1,.169-3.428l6.36-2.807,2.373-1.046c-.007.037-.185,1.948-.21,2.228A16.231,16.231,0,0,0,1863.762,874.422Z" transform="translate(-1853.749 -863.87)" fill="#ffb27d"/>
      </g>
      <g id="Grupo_56365" data-name="Grupo 56365" transform="translate(93.904 25.662)">
        <path id="Trazado_105032" data-name="Trazado 105032" d="M1818.057,964.4c5.868,5.665,28.073,4.712,29.441-1.53s-1.492-53.132-11.515-56.078c-2.08-.611-13.2,2.983-13.2,2.983a70.5,70.5,0,0,0-2.889,10.375c-.222,1.131-.87,13.114-1.355,24.325-.227,5.243-.418,10.318-.516,14.034A40.561,40.561,0,0,0,1818.057,964.4Z" transform="translate(-1817.96 -906.724)" fill="#ffca28"/>
      </g>
      <g id="Grupo_56366" data-name="Grupo 56366" transform="translate(101.221 17.946)">
        <path id="Trazado_105033" data-name="Trazado 105033" d="M1861.965,870.252c-1.291,2.181-5.817,4.091-8.216,4.966a31.938,31.938,0,0,1,.169-3.428l6.36-2.807C1861.684,868.964,1862.54,869.278,1861.965,870.252Z" transform="translate(-1853.749 -868.981)" fill="#fca56b"/>
      </g>
      <g id="Grupo_56367" data-name="Grupo 56367" transform="translate(97.71 3.501)">
        <path id="Trazado_105034" data-name="Trazado 105034" d="M1837.857,815.191s10.247,3.2,12.14-3.215,4.489-10.318-1.973-12.63-8.462-.242-9.614,1.745S1835.241,814.194,1837.857,815.191Z" transform="translate(-1836.577 -798.326)" fill="#ffb27d"/>
      </g>
      <g id="Grupo_56368" data-name="Grupo 56368" transform="translate(98.983)">
        <path id="Trazado_105035" data-name="Trazado 105035" d="M1843.766,786.848s.653,7.462,2.2,7.138,3.241-1.017,3.016,1.233,1.5,6.1,3.725,6.1c4.772-.02,9.958-12.265,8.651-14.587C1857.585,780.027,1838.317,778.675,1843.766,786.848Z" transform="translate(-1842.802 -781.201)" fill="#163560"/>
      </g>
      <g id="Grupo_56369" data-name="Grupo 56369" transform="translate(98.728 22.748)">
        <path id="Trazado_105036" data-name="Trazado 105036" d="M1844.283,895.613c.132-.055,7.629-3.418,8.5-3.129s1.969,2.967,1.969,2.967l-13.2,2.984A6.558,6.558,0,0,1,1844.283,895.613Z" transform="translate(-1841.558 -892.467)" fill="#ffa726"/>
      </g>
      <g id="Grupo_56375" data-name="Grupo 56375" transform="translate(0 4.726)">
        <g id="Grupo_56370" data-name="Grupo 56370" transform="translate(53.893 53.465)">
          <path id="Trazado_105037" data-name="Trazado 105037" d="M1623.147,1069.849l42.021,39.563c.824.776,1.863,1.023,2.308.549l1.418-1.507c.445-.473.136-1.5-.687-2.271l-42.021-39.563c-.824-.776-1.862-1.023-2.308-.549l-1.418,1.506C1622.014,1068.051,1622.324,1069.073,1623.147,1069.849Z" transform="translate(-1622.256 -1065.83)" fill="#1f4d84"/>
        </g>
        <g id="Grupo_56371" data-name="Grupo 56371" transform="translate(78.366 76.457)">
          <path id="Trazado_105038" data-name="Trazado 105038" d="M1741.959,1181.519l18.44,17.361c.823.776,1.862,1.023,2.308.549l1.419-1.506c.445-.473.136-1.495-.687-2.271L1745,1178.291Z" transform="translate(-1741.959 -1178.291)" fill="#739af0"/>
        </g>
        <g id="Grupo_56372" data-name="Grupo 56372">
          <path id="Trazado_105039" data-name="Trazado 105039" d="M1415.57,814.681a32.932,32.932,0,0,0-46.553-1.417c-.175.164-.348.33-.517.5a32.937,32.937,0,1,0,47.07.919Zm-3.2,44.664a30.338,30.338,0,1,1,1.307-42.882A30.3,30.3,0,0,1,1412.37,859.345Z" transform="translate(-1358.648 -804.315)" fill="#1f4d84"/>
        </g>
        <g id="Grupo_56374" data-name="Grupo 56374" transform="translate(2.601 2.6)" opacity="0.5">
          <g id="Grupo_56373" data-name="Grupo 56373">
            <path id="Trazado_105040" data-name="Trazado 105040" d="M1379.61,868.155a30.337,30.337,0,1,0,1.308-42.88A30.21,30.21,0,0,0,1379.61,868.155Z" transform="translate(-1371.369 -817.034)" fill="#b3cff9"/>
          </g>
        </g>
      </g>
      <g id="Grupo_56376" data-name="Grupo 56376" transform="translate(93.969 38.933)">
        <path id="Trazado_105041" data-name="Trazado 105041" d="M1818.277,1010.151c23.154-16.5,21.229-38.515,21.229-38.515-8.463,4.773-16.86,15.327-20.713,24.481C1818.566,1001.36,1818.375,1006.436,1818.277,1010.151Z" transform="translate(-1818.277 -971.636)" fill="#ffa726"/>
      </g>
      <g id="Grupo_56379" data-name="Grupo 56379" transform="translate(64.465 28.717)">
        <g id="Grupo_56377" data-name="Grupo 56377" transform="translate(0 39.392)">
          <path id="Trazado_105042" data-name="Trazado 105042" d="M1680.618,1116.166a6.32,6.32,0,0,1-2.957-1.827s-.7.048.115,1.533c.068.124.218.444.332.669a.144.144,0,0,1-.121.207,15.437,15.437,0,0,0-3.7.077c-.251.052-.323.652-.314.908a2.316,2.316,0,0,0,.488,1.581c.292.386,1.109.8,2.926,1.532.693.279,2.672.068,4.527-.569l1.483-.687-.46-2.755-.373.078C1681.967,1117.039,1681.235,1116.317,1680.618,1116.166Z" transform="translate(-1673.967 -1114.339)" fill="#ffb27d"/>
        </g>
        <g id="Grupo_56378" data-name="Grupo 56378" transform="translate(8.349)">
          <path id="Trazado_105043" data-name="Trazado 105043" d="M1750,921.662s20.8,3.961-6.121,34.088c-4.306,4.819-27.572,11.092-27.572,11.092s-2.36-2.007-1.17-3.633c0,0,16.019-11.632,19.543-13.482,1.586-.832,6.154-18.566,8.738-22.837A11.653,11.653,0,0,1,1750,921.662Z" transform="translate(-1714.802 -921.662)" fill="#ffca28"/>
        </g>
      </g>
      <g id="Grupo_56380" data-name="Grupo 56380" transform="translate(65.093 34.883)">
        <path id="Trazado_105044" data-name="Trazado 105044" d="M1679.861,956.9a10.612,10.612,0,0,1-.814-1.987,10.976,10.976,0,0,0-1.343-3.039c-.141-.141-.607.042-.662.648a3.514,3.514,0,0,0,.334,1.316,14.8,14.8,0,0,1,.44,2.615C1678.139,957.5,1679.861,956.9,1679.861,956.9Z" transform="translate(-1677.04 -951.826)" fill="#ffb27d"/>
      </g>
    </g>
  </g>
</svg>
