<svg xmlns="http://www.w3.org/2000/svg" xmlns:xlink="http://www.w3.org/1999/xlink" width="505" height="302.986" viewBox="0 0 505 302.986">
  <defs>
    <clipPath id="clip-path">
      <path id="Trazado_140759" data-name="Trazado 140759" d="M498.969,1105.68c6.47-10.6.694-28.539-6.58-39.112-8.492-12.344-15.616-9.69-21.474-19.8-10.905-18.831,9.32-35.754-.172-55.617-7.759-16.238-24.22-11.089-31.995-29.462-5.61-13.258.265-22.311-8.421-32.241-.743-.849-8.882-9.889-18.988-8.458-10.2,1.445-16.438,12.713-18.552,20.531-3.908,14.453,5.691,19.276,7.346,38.109,2.252,25.64-14.207,31.876-8.646,50.413,4.592,15.307,16.875,14.585,21.629,31.658,4.415,15.854-4.572,22.238-.58,32.619C421.721,1118.2,485.772,1127.295,498.969,1105.68Z" transform="translate(-390.334 -920.833)" fill="#ffca28"/>
    </clipPath>
    <clipPath id="clip-path-2">
      <path id="Trazado_140766" data-name="Trazado 140766" d="M884.078,630.136c2.275.015,7.238-1.958,8.319-3.006,7.2-6.973,21.523-19.153,22.33-29.716.138-1.8-7.635-4.553-8.533-6.348-4.53-2.955-6.285-3.7-9.212-8.625-8.64-14.541,18.482-35.953-8-48.374-19.4-9.1-37.46-4.444-31.005-35.6s-10.7-91.862-46.892-74.436c-20.772,10-5.058,39.378-17.547,57.774-11.868,17.481-6.018,34,12.369,47.953s6.572,21.161-1.637,38.191c-9.861,20.456,22.544,28.722,37.83,31.262C854.409,601.255,884.374,614.769,884.078,630.136Z" transform="translate(-787.365 -420.945)" fill="#ffedb7"/>
    </clipPath>
    <linearGradient id="linear-gradient" x1="1.332" y1="1.213" x2="0.096" y2="0.028" gradientUnits="objectBoundingBox">
      <stop offset="0" stop-color="#311944"/>
      <stop offset="1" stop-color="#893976"/>
    </linearGradient>
    <linearGradient id="linear-gradient-2" x1="0.501" y1="0.845" x2="0.498" y2="-0.238" gradientUnits="objectBoundingBox">
      <stop offset="0" stop-color="#ff9085"/>
      <stop offset="1" stop-color="#fb6fbb"/>
    </linearGradient>
    <linearGradient id="linear-gradient-15" x1="-92.366" y1="1.387" x2="-89.625" y2="-4.63" gradientUnits="objectBoundingBox">
      <stop offset="0" stop-color="#ffc444"/>
      <stop offset="0.996" stop-color="#f36f56"/>
    </linearGradient>
    <linearGradient id="linear-gradient-16" x1="-80.04" y1="1.387" x2="-77.299" y2="-4.63" xlink:href="#linear-gradient-15"/>
    <linearGradient id="linear-gradient-17" x1="1.958" y1="-1.046" x2="2.01" y2="-2.866" xlink:href="#linear-gradient-15"/>
    <linearGradient id="linear-gradient-18" x1="-6.302" y1="-0.288" x2="-6.942" y2="-1.927" gradientUnits="objectBoundingBox">
      <stop offset="0" stop-color="#311944"/>
      <stop offset="1" stop-color="#6b3976"/>
    </linearGradient>
    <linearGradient id="linear-gradient-19" x1="-6.523" y1="-2.608" x2="-6.555" y2="0.584" xlink:href="#linear-gradient-15"/>
    <linearGradient id="linear-gradient-20" x1="-8.581" y1="-0.8" x2="-9.389" y2="-2.753" xlink:href="#linear-gradient-18"/>
    <linearGradient id="linear-gradient-21" x1="-40.021" y1="-35.396" x2="-39.841" y2="-30.252" gradientUnits="objectBoundingBox">
      <stop offset="0" stop-color="#ffc444"/>
      <stop offset="1" stop-color="#f36f56"/>
    </linearGradient>
    <linearGradient id="linear-gradient-22" y1="0.5" x2="1" y2="0.5" gradientUnits="objectBoundingBox">
      <stop offset="0.004" stop-color="#26264f"/>
      <stop offset="1" stop-color="#444b8c"/>
    </linearGradient>
    <linearGradient id="linear-gradient-23" x1="0.469" y1="0.164" x2="0.739" y2="0.594" gradientUnits="objectBoundingBox">
      <stop offset="0" stop-color="#444b8c"/>
      <stop offset="0.996" stop-color="#26264f"/>
    </linearGradient>
    <linearGradient id="linear-gradient-24" x1="0" y1="0.5" x2="1" y2="0.5" xlink:href="#linear-gradient-23"/>
    <linearGradient id="linear-gradient-26" x1="0.417" y1="-0.015" x2="0.649" y2="1.891" xlink:href="#linear-gradient-15"/>
  </defs>
  <g id="Grupo_82524" data-name="Grupo 82524" transform="translate(-915 -2138.131)">
    <rect id="Rectángulo_30877" data-name="Rectángulo 30877" width="505" height="130" rx="65" transform="translate(915 2223)" fill="#4dd0e1" opacity="0.149"/>
    <g id="Grupo_82313" data-name="Grupo 82313" transform="translate(1000 2138.131)">
      <path id="Trazado_140752" data-name="Trazado 140752" d="M474.58,445.328c-10.159,14.6,1.753,38.262-13.322,49.24-14.674,10.686-32.7-6.83-46.529,2.369-20.515,13.646-16.768,76.086,13.225,114.882,9.02,11.667,16.557,16.207,19.9,29.4,7.168,28.333-18.023,45.187-13.229,59.2,10.794,31.552,176.8,58.028,243.4-36.8,31.109-44.287,35.763-108.238,7.969-156.81C635.769,419.047,497.375,412.575,474.58,445.328Z" transform="translate(-400.662 -426.508)" fill="#fff6db"/>
      <g id="Grupo_82282" data-name="Grupo 82282" transform="translate(0 52.128)">
        <g id="Grupo_82281" data-name="Grupo 82281">
          <path id="Trazado_140753" data-name="Trazado 140753" d="M498.969,1105.68c6.47-10.6.694-28.539-6.58-39.112-8.492-12.344-15.616-9.69-21.474-19.8-10.905-18.831,9.32-35.754-.172-55.617-7.759-16.238-24.22-11.089-31.995-29.462-5.61-13.258.265-22.311-8.421-32.241-.743-.849-8.882-9.889-18.988-8.458-10.2,1.445-16.438,12.713-18.552,20.531-3.908,14.453,5.691,19.276,7.346,38.109,2.252,25.64-14.207,31.876-8.646,50.413,4.592,15.307,16.875,14.585,21.629,31.658,4.415,15.854-4.572,22.238-.58,32.619C421.721,1118.2,485.772,1127.295,498.969,1105.68Z" transform="translate(-390.334 -920.833)" fill="#ffca28"/>
          <g id="Grupo_82280" data-name="Grupo 82280" clip-path="url(#clip-path)">
            <g id="Grupo_82279" data-name="Grupo 82279" transform="translate(0 -8.979)">
              <path id="Trazado_140754" data-name="Trazado 140754" d="M592.719,1096.081l-.026,0a73.6,73.6,0,0,1-30.236-10.65c-8.654-5.416-17.6-11.017-21.461-21.165-2.931-7.708-1.154-13.281,1.1-20.337,2.158-6.765,4.843-15.184,3.675-28.13-.667-7.39-1.5-16.587-7.712-25.356a31.667,31.667,0,0,0-10.316-9.279c-3.256-2.032-6.069-3.788-7.587-8.208-2.445-7.115-.663-13.117,1.4-20.067a74.463,74.463,0,0,0,3.112-13.818c1.56-14.631-5.1-30.534-19.789-47.267a.206.206,0,0,1,.31-.272c14.77,16.823,21.462,32.831,19.89,47.582A74.819,74.819,0,0,1,521.948,953c-2.044,6.882-3.808,12.826-1.406,19.816,1.471,4.282,4.095,5.919,7.416,7.992a32.017,32.017,0,0,1,10.434,9.39c6.28,8.859,7.115,18.118,7.786,25.557,1.175,13.029-1.524,21.492-3.692,28.292-2.226,6.979-3.984,12.492-1.1,20.066,3.81,10.018,12.7,15.582,21.294,20.961a73.187,73.187,0,0,0,30.069,10.591.206.206,0,0,1-.025.411Z" transform="translate(-492.886 -885.544)" fill="#26a69a" opacity="0.7" style="mix-blend-mode: soft-light;isolation: isolate"/>
              <path id="Trazado_140755" data-name="Trazado 140755" d="M848.812,1361.476a.2.2,0,0,1-.086-.019.206.206,0,0,1-.1-.273c9.115-19.681,10.765-35,10.544-44.389-.239-10.154-2.652-15.721-2.677-15.776a.206.206,0,0,1,.377-.167c.025.056,2.471,5.7,2.712,15.933.222,9.431-1.434,24.819-10.582,44.572A.205.205,0,0,1,848.812,1361.476Z" transform="translate(-800.818 -1252.135)" fill="#ffca28" opacity="0.7" style="mix-blend-mode: soft-light;isolation: isolate"/>
              <path id="Trazado_140756" data-name="Trazado 140756" d="M470.69,1701.571a.2.2,0,0,1-.056-.008,75.379,75.379,0,0,1-28.466-14.67,61.539,61.539,0,0,1-14.9-18.7,58.821,58.821,0,0,1-6.648-22.94.206.206,0,0,1,.2-.211.213.213,0,0,1,.211.2,58.4,58.4,0,0,0,6.612,22.778,61.124,61.124,0,0,0,14.8,18.568,74.973,74.973,0,0,0,28.3,14.579.206.206,0,0,1-.056.4Z" transform="translate(-417.458 -1560.542)" fill="#ffca28" opacity="0.7" style="mix-blend-mode: soft-light;isolation: isolate"/>
              <path id="Trazado_140757" data-name="Trazado 140757" d="M965.156,2140.441a.206.206,0,0,1-.132-.365c19.092-15.86,25.463-32.445,27.447-43.566,2.149-12.049-.247-20.459-.271-20.543a.206.206,0,0,1,.4-.116c.025.084,2.446,8.569.286,20.708-1.992,11.194-8.4,27.885-27.593,43.833A.206.206,0,0,1,965.156,2140.441Z" transform="translate(-905.029 -1946.297)" fill="#ffca28" opacity="0.7" style="mix-blend-mode: soft-light;isolation: isolate"/>
              <path id="Trazado_140758" data-name="Trazado 140758" d="M422.089,885.944a.2.2,0,0,1-.083-.018c-18.292-8.125-25.9-21.562-29.057-31.4a52.687,52.687,0,0,1-2.5-19.61.206.206,0,0,1,.41.045,52.262,52.262,0,0,0,2.484,19.456c3.135,9.755,10.681,23.075,28.826,31.136a.206.206,0,0,1-.084.394Z" transform="translate(-390.334 -834.73)" fill="#ffca28" opacity="0.7" style="mix-blend-mode: soft-light;isolation: isolate"/>
            </g>
          </g>
        </g>
      </g>
      <g id="Grupo_82288" data-name="Grupo 82288" transform="translate(41.402)">
        <g id="Grupo_82287" data-name="Grupo 82287">
          <g id="Grupo_82286" data-name="Grupo 82286">
            <path id="Trazado_140760" data-name="Trazado 140760" d="M884.078,630.136c2.275.015,7.238-1.958,8.319-3.006,7.2-6.973,21.523-19.153,22.33-29.716.138-1.8-7.635-4.553-8.533-6.348-4.53-2.955-6.285-3.7-9.212-8.625-8.64-14.541,18.482-35.953-8-48.374-19.4-9.1-37.46-4.444-31.005-35.6s-10.7-91.862-46.892-74.436c-20.772,10-5.058,39.378-17.547,57.774-11.868,17.481-6.018,34,12.369,47.953s6.572,21.161-1.637,38.191c-9.861,20.456,22.544,28.722,37.83,31.262C854.409,601.255,884.374,614.769,884.078,630.136Z" transform="translate(-787.365 -420.945)" fill="#ffedb7"/>
            <g id="Grupo_82285" data-name="Grupo 82285" clip-path="url(#clip-path-2)">
              <g id="Grupo_82284" data-name="Grupo 82284" transform="translate(-4.228 -5.555)" opacity="0.7" style="mix-blend-mode: soft-light;isolation: isolate">
                <g id="Grupo_82283" data-name="Grupo 82283">
                  <path id="Trazado_140761" data-name="Trazado 140761" d="M1171.379,565.711l-.171-.114a185.757,185.757,0,0,1-69.481-86.4c-13.5-33.915-17.994-72.405-13-111.309l.026-.2.889.115-.026.2c-10.515,81.936,20.173,155.526,82.091,196.854l.171.114Zm-31.3-26.921a182.777,182.777,0,0,0,31.19,26.35l.04-.06A184.647,184.647,0,0,1,1140.074,538.79ZM1089.108,368.14a240.618,240.618,0,0,0-1.925,33.913,246.107,246.107,0,0,1,2-33.9Z" transform="translate(-1051.299 -367.679)" fill="#ffedb7"/>
                  <path id="Trazado_140762" data-name="Trazado 140762" d="M969.71,1899.883l-.187-.085c-19.4-8.825-51.471-13.01-71.484-9.328l-.2.037-.162-.881.2-.037c20.164-3.709,52.471.5,72.016,9.393l.188.085Zm-55.06-11.16c18.411,0,40.186,3.994,54.855,10.615l.03-.065c-19.433-8.772-51.338-12.935-71.381-9.315l.013.071A94.287,94.287,0,0,1,914.65,1888.724Z" transform="translate(-881.944 -1729.679)" fill="#ffedb7"/>
                  <path id="Trazado_140763" data-name="Trazado 140763" d="M1707.076,1568.131l-.133-.158c-7.294-8.635-9.948-20.59-7.887-35.534,1.5-10.878,5.422-23.07,11.655-36.236l.088-.186.81.383-.088.186c-6.194,13.083-10.089,25.187-11.577,35.975-2.025,14.682.56,26.4,7.683,34.834l.133.157Zm3.919-71.565c-6.165,13.058-10.044,25.144-11.531,35.93-2.032,14.732.546,26.525,7.661,35.054l.055-.046c-7.1-8.513-9.673-20.287-7.644-35,1.486-10.779,5.364-22.86,11.525-35.909Z" transform="translate(-1599.152 -1378.355)" fill="#ffedb7"/>
                  <path id="Trazado_140764" data-name="Trazado 140764" d="M795.676,1159.055l-.125-.164c-12.544-16.5-33.312-23.283-48.525-26.067l-.2-.037.161-.882.2.037c15.369,2.813,36.359,9.678,49.077,26.406l.125.164Zm-48.373-26.6c15.215,2.811,35.87,9.608,48.451,26.022l.057-.044c-12.6-16.431-33.267-23.236-48.5-26.049Z" transform="translate(-746.824 -1052.212)" fill="#ffedb7"/>
                  <path id="Trazado_140765" data-name="Trazado 140765" d="M1104.221,496.953l-.894-.056.013-.206c1.494-23.788,17.832-42.669,27.439-51.807l.149-.142.617.65-.149.142c-9.511,9.047-25.687,27.731-27.162,51.214Zm-.457-.441.072,0c1.557-23.4,17.581-42.024,27.127-51.139l-.05-.052C1121.36,454.447,1105.323,473.084,1103.764,496.511Z" transform="translate(-1066.151 -436.706)" fill="#ffedb7"/>
                </g>
              </g>
            </g>
          </g>
        </g>
      </g>
      <g id="Grupo_82296" data-name="Grupo 82296" transform="translate(116.265 29.967)">
        <g id="Grupo_82289" data-name="Grupo 82289" transform="translate(0 163.178)">
          <path id="Trazado_140767" data-name="Trazado 140767" d="M1505.277,2432.286v14.32h.02c.833,8.643,35.155,24.517,85.005,24.81,73.3.431,98.05-16.808,99.2-25.635h.028v-13.2Z" transform="translate(-1505.277 -2415.69)" fill="#1565c0"/>
          <path id="Trazado_140768" data-name="Trazado 140768" d="M1689.531,2298.147c0,8.9-42.292,15.93-93.617,15.7-50.417-.223-90.637-7.387-90.637-16.006s40.22-15.651,90.637-15.708C1647.24,2282.078,1689.531,2289.246,1689.531,2298.147Z" transform="translate(-1505.277 -2281.198)" fill="url(#linear-gradient)"/>
          <path id="Trazado_140769" data-name="Trazado 140769" d="M1694.182,2289c0,8.835-41.969,15.826-92.915,15.618-50.058-.2-90-7.3-90-15.862s39.943-15.552,90-15.622C1652.214,2273.065,1694.182,2280.167,1694.182,2289Z" transform="translate(-1510.642 -2273.136)" fill="url(#linear-gradient-2)"/>
          <path id="Trazado_140770" data-name="Trazado 140770" d="M1689.532,2445.781v-13.2l-184.254-.3v14.32Z" transform="translate(-1505.277 -2415.689)" fill="#1565c0"/>
          <path id="Trazado_140771" data-name="Trazado 140771" d="M1689.531,2298.147c0,8.9-42.292,15.93-93.617,15.7-50.417-.223-90.637-7.387-90.637-16.006s40.22-15.651,90.637-15.708C1647.24,2282.078,1689.531,2289.246,1689.531,2298.147Z" transform="translate(-1505.277 -2281.198)" fill="#4dd0e1"/>
          <path id="Trazado_140772" data-name="Trazado 140772" d="M1694.182,2289c0,8.835-41.969,15.826-92.915,15.618-50.058-.2-90-7.3-90-15.862s39.943-15.552,90-15.622C1652.214,2273.065,1694.182,2280.167,1694.182,2289Z" transform="translate(-1510.642 -2273.136)" fill="#039be5"/>
        </g>
        <g id="Grupo_82290" data-name="Grupo 82290" transform="translate(0 136.037)">
          <path id="Trazado_140773" data-name="Trazado 140773" d="M1505.277,2172.015v14.321h.02c.833,8.643,35.155,23.764,85.005,23.494,79-.427,98.05-15.492,99.2-24.319h.028v-13.2Z" transform="translate(-1505.277 -2155.419)" fill="#1565c0"/>
          <path id="Trazado_140774" data-name="Trazado 140774" d="M1689.531,2037.877c0,8.9-42.292,15.931-93.617,15.7-50.417-.223-90.637-7.388-90.637-16.006s40.22-15.651,90.637-15.708C1647.24,2021.808,1689.531,2028.976,1689.531,2037.877Z" transform="translate(-1505.277 -2020.928)" fill="url(#linear-gradient)"/>
          <path id="Trazado_140775" data-name="Trazado 140775" d="M1694.182,2028.732c0,8.834-41.969,15.826-92.915,15.618-50.058-.2-90-7.3-90-15.862s39.943-15.551,90-15.622C1652.214,2012.794,1694.182,2019.9,1694.182,2028.732Z" transform="translate(-1510.642 -2012.866)" fill="url(#linear-gradient-2)"/>
          <path id="Trazado_140776" data-name="Trazado 140776" d="M1689.532,2185.511v-13.2l-184.254-.3v14.32Z" transform="translate(-1505.277 -2155.42)" fill="#1565c0"/>
          <path id="Trazado_140777" data-name="Trazado 140777" d="M1689.531,2037.877c0,8.9-42.292,15.931-93.617,15.7-50.417-.223-90.637-7.388-90.637-16.006s40.22-15.651,90.637-15.708C1647.24,2021.808,1689.531,2028.976,1689.531,2037.877Z" transform="translate(-1505.277 -2020.928)" fill="#4dd0e1"/>
          <path id="Trazado_140778" data-name="Trazado 140778" d="M1694.182,2028.732c0,8.834-41.969,15.826-92.915,15.618-50.058-.2-90-7.3-90-15.862s39.943-15.551,90-15.622C1652.214,2012.794,1694.182,2019.9,1694.182,2028.732Z" transform="translate(-1510.642 -2012.866)" fill="#039be5"/>
        </g>
        <g id="Grupo_82291" data-name="Grupo 82291" transform="translate(0 108.83)">
          <path id="Trazado_140779" data-name="Trazado 140779" d="M1505.277,1911.106v14.32h.02c.833,8.643,35.155,23.764,85.005,23.494,79-.428,98.05-15.493,99.2-24.32h.028v-13.2Z" transform="translate(-1505.277 -1894.51)" fill="#1565c0"/>
          <path id="Trazado_140780" data-name="Trazado 140780" d="M1689.531,1776.967c0,8.9-42.292,15.931-93.617,15.7-50.417-.223-90.637-7.387-90.637-16.006s40.22-15.651,90.637-15.708C1647.24,1760.9,1689.531,1768.065,1689.531,1776.967Z" transform="translate(-1505.277 -1760.017)" fill="url(#linear-gradient)"/>
          <path id="Trazado_140781" data-name="Trazado 140781" d="M1694.182,1767.822c0,8.835-41.969,15.826-92.915,15.618-50.058-.2-90-7.3-90-15.862s39.943-15.552,90-15.622C1652.214,1751.884,1694.182,1758.987,1694.182,1767.822Z" transform="translate(-1510.642 -1751.956)" fill="url(#linear-gradient-2)"/>
          <path id="Trazado_140782" data-name="Trazado 140782" d="M1689.532,1924.6v-13.2l-184.254-.3v14.32Z" transform="translate(-1505.277 -1894.51)" fill="#1565c0"/>
          <path id="Trazado_140783" data-name="Trazado 140783" d="M1689.531,1776.967c0,8.9-42.292,15.931-93.617,15.7-50.417-.223-90.637-7.387-90.637-16.006s40.22-15.651,90.637-15.708C1647.24,1760.9,1689.531,1768.065,1689.531,1776.967Z" transform="translate(-1505.277 -1760.017)" fill="#4dd0e1"/>
          <path id="Trazado_140784" data-name="Trazado 140784" d="M1694.182,1767.822c0,8.835-41.969,15.826-92.915,15.618-50.058-.2-90-7.3-90-15.862s39.943-15.552,90-15.622C1652.214,1751.884,1694.182,1758.987,1694.182,1767.822Z" transform="translate(-1510.642 -1751.956)" fill="#039be5"/>
        </g>
        <g id="Grupo_82292" data-name="Grupo 82292" transform="translate(0 81.622)">
          <path id="Trazado_140785" data-name="Trazado 140785" d="M1505.277,1650.2v14.32h.02c.833,8.643,35.155,23.764,85.005,23.494,79-.428,98.05-15.493,99.2-24.32h.028v-13.2Z" transform="translate(-1505.277 -1633.599)" fill="#1565c0"/>
          <path id="Trazado_140786" data-name="Trazado 140786" d="M1689.531,1516.056c0,8.9-42.292,15.931-93.617,15.7-50.417-.223-90.637-7.387-90.637-16.005s40.22-15.651,90.637-15.708C1647.24,1499.987,1689.531,1507.155,1689.531,1516.056Z" transform="translate(-1505.277 -1499.107)" fill="url(#linear-gradient)"/>
          <path id="Trazado_140787" data-name="Trazado 140787" d="M1694.182,1506.911c0,8.835-41.969,15.826-92.915,15.618-50.058-.2-90-7.3-90-15.862s39.943-15.552,90-15.622C1652.214,1490.974,1694.182,1498.076,1694.182,1506.911Z" transform="translate(-1510.642 -1491.045)" fill="url(#linear-gradient-2)"/>
          <path id="Trazado_140788" data-name="Trazado 140788" d="M1689.532,1663.691v-13.2l-184.254-.3v14.32Z" transform="translate(-1505.277 -1633.599)" fill="#1565c0"/>
          <path id="Trazado_140789" data-name="Trazado 140789" d="M1689.531,1516.056c0,8.9-42.292,15.931-93.617,15.7-50.417-.223-90.637-7.387-90.637-16.005s40.22-15.651,90.637-15.708C1647.24,1499.987,1689.531,1507.155,1689.531,1516.056Z" transform="translate(-1505.277 -1499.107)" fill="#4dd0e1"/>
          <path id="Trazado_140790" data-name="Trazado 140790" d="M1694.182,1506.911c0,8.835-41.969,15.826-92.915,15.618-50.058-.2-90-7.3-90-15.862s39.943-15.552,90-15.622C1652.214,1490.974,1694.182,1498.076,1694.182,1506.911Z" transform="translate(-1510.642 -1491.045)" fill="#039be5"/>
        </g>
        <g id="Grupo_82293" data-name="Grupo 82293" transform="translate(0 54.415)">
          <path id="Trazado_140791" data-name="Trazado 140791" d="M1505.277,1389.285v14.32h.02c.833,8.643,35.155,23.764,85.005,23.494,79-.428,98.05-15.492,99.2-24.32h.028v-13.2Z" transform="translate(-1505.277 -1372.689)" fill="#1565c0"/>
          <path id="Trazado_140792" data-name="Trazado 140792" d="M1689.531,1255.147c0,8.9-42.292,15.931-93.617,15.7-50.417-.223-90.637-7.387-90.637-16.005s40.22-15.651,90.637-15.708C1647.24,1239.078,1689.531,1246.246,1689.531,1255.147Z" transform="translate(-1505.277 -1238.198)" fill="url(#linear-gradient)"/>
          <path id="Trazado_140793" data-name="Trazado 140793" d="M1694.182,1246c0,8.835-41.969,15.826-92.915,15.618-50.058-.2-90-7.3-90-15.862s39.943-15.551,90-15.622C1652.214,1230.064,1694.182,1237.167,1694.182,1246Z" transform="translate(-1510.642 -1230.136)" fill="url(#linear-gradient-2)"/>
          <path id="Trazado_140794" data-name="Trazado 140794" d="M1689.532,1402.781v-13.2l-184.254-.3v14.32Z" transform="translate(-1505.277 -1372.689)" fill="#1565c0"/>
          <path id="Trazado_140795" data-name="Trazado 140795" d="M1689.531,1255.147c0,8.9-42.292,15.931-93.617,15.7-50.417-.223-90.637-7.387-90.637-16.005s40.22-15.651,90.637-15.708C1647.24,1239.078,1689.531,1246.246,1689.531,1255.147Z" transform="translate(-1505.277 -1238.198)" fill="#4dd0e1"/>
          <path id="Trazado_140796" data-name="Trazado 140796" d="M1694.182,1246c0,8.835-41.969,15.826-92.915,15.618-50.058-.2-90-7.3-90-15.862s39.943-15.551,90-15.622C1652.214,1230.064,1694.182,1237.167,1694.182,1246Z" transform="translate(-1510.642 -1230.136)" fill="#039be5"/>
        </g>
        <g id="Grupo_82294" data-name="Grupo 82294" transform="translate(0 27.207)">
          <path id="Trazado_140797" data-name="Trazado 140797" d="M1505.277,1128.375v14.32h.02c.833,8.643,35.155,23.764,85.005,23.494,79-.428,98.05-15.492,99.2-24.32h.028v-13.2Z" transform="translate(-1505.277 -1111.779)" fill="#1565c0"/>
          <path id="Trazado_140798" data-name="Trazado 140798" d="M1689.531,994.237c0,8.9-42.292,15.931-93.617,15.7-50.417-.223-90.637-7.388-90.637-16.006s40.22-15.651,90.637-15.708C1647.24,978.167,1689.531,985.335,1689.531,994.237Z" transform="translate(-1505.277 -977.287)" fill="url(#linear-gradient)"/>
          <path id="Trazado_140799" data-name="Trazado 140799" d="M1694.182,985.091c0,8.835-41.969,15.826-92.915,15.618-50.058-.2-90-7.3-90-15.862s39.943-15.552,90-15.622C1652.214,969.153,1694.182,976.256,1694.182,985.091Z" transform="translate(-1510.642 -969.225)" fill="url(#linear-gradient-2)"/>
          <path id="Trazado_140800" data-name="Trazado 140800" d="M1689.532,1141.871v-13.2l-184.254-.3v14.32Z" transform="translate(-1505.277 -1111.779)" fill="#1565c0"/>
          <path id="Trazado_140801" data-name="Trazado 140801" d="M1689.531,994.237c0,8.9-42.292,15.931-93.617,15.7-50.417-.223-90.637-7.388-90.637-16.006s40.22-15.651,90.637-15.708C1647.24,978.167,1689.531,985.335,1689.531,994.237Z" transform="translate(-1505.277 -977.287)" fill="#4dd0e1"/>
          <path id="Trazado_140802" data-name="Trazado 140802" d="M1694.182,985.091c0,8.835-41.969,15.826-92.915,15.618-50.058-.2-90-7.3-90-15.862s39.943-15.552,90-15.622C1652.214,969.153,1694.182,976.256,1694.182,985.091Z" transform="translate(-1510.642 -969.225)" fill="#039be5"/>
        </g>
        <g id="Grupo_82295" data-name="Grupo 82295">
          <path id="Trazado_140803" data-name="Trazado 140803" d="M1505.277,867.465v14.32h.02c.833,8.643,35.155,23.764,85.005,23.494,79-.428,98.05-15.493,99.2-24.32h.028v-13.2Z" transform="translate(-1505.277 -850.869)" fill="#1565c0"/>
          <path id="Trazado_140804" data-name="Trazado 140804" d="M1689.531,733.326c0,8.9-42.292,15.931-93.617,15.7-50.417-.223-90.637-7.387-90.637-16.006s40.22-15.651,90.637-15.708C1647.24,717.257,1689.531,724.425,1689.531,733.326Z" transform="translate(-1505.277 -716.377)" fill="url(#linear-gradient)"/>
          <path id="Trazado_140805" data-name="Trazado 140805" d="M1694.182,724.181c0,8.835-41.969,15.826-92.915,15.618-50.058-.2-90-7.3-90-15.862s39.943-15.552,90-15.622C1652.214,708.244,1694.182,715.346,1694.182,724.181Z" transform="translate(-1510.642 -708.315)" fill="url(#linear-gradient-2)"/>
          <path id="Trazado_140806" data-name="Trazado 140806" d="M1689.532,880.96v-13.2l-184.254-.3v14.32Z" transform="translate(-1505.277 -850.869)" fill="#1565c0"/>
          <path id="Trazado_140807" data-name="Trazado 140807" d="M1689.531,733.326c0,8.9-42.292,15.931-93.617,15.7-50.417-.223-90.637-7.387-90.637-16.006s40.22-15.651,90.637-15.708C1647.24,717.257,1689.531,724.425,1689.531,733.326Z" transform="translate(-1505.277 -716.377)" fill="#4dd0e1"/>
          <path id="Trazado_140808" data-name="Trazado 140808" d="M1694.182,724.181c0,8.835-41.969,15.826-92.915,15.618-50.058-.2-90-7.3-90-15.862s39.943-15.552,90-15.622C1652.214,708.244,1694.182,715.346,1694.182,724.181Z" transform="translate(-1510.642 -708.315)" fill="#039be5"/>
        </g>
      </g>
      <g id="Grupo_82310" data-name="Grupo 82310" transform="translate(47.964 125.918)">
        <g id="Grupo_82305" data-name="Grupo 82305" transform="translate(21.638)">
          <ellipse id="Elipse_4069" data-name="Elipse 4069" cx="23.668" cy="9.659" rx="23.668" ry="9.659" transform="translate(14.445 116.609)" fill="#b7c0ce"/>
          <path id="Trazado_140809" data-name="Trazado 140809" d="M1196.321,2714.44c0,5.036,10.6,9.118,23.668,9.118s23.668-4.082,23.668-9.118-10.6-13.276-23.668-13.276S1196.321,2709.4,1196.321,2714.44Z" transform="translate(-1181.876 -2589.303)" fill="#ebeff2"/>
          <path id="Trazado_140810" data-name="Trazado 140810" d="M1196.321,2714.44c0-5.036,10.6-13.276,23.668-13.276a32.115,32.115,0,0,1,15.721,4.145,3.435,3.435,0,0,1,.374,1.8c-.271,2.833-4.893,4.575-7.545,5.15-6.68,1.447-9.942-2.547-15.449-2.4-3.405.094-8.124,1.8-13.72,9.049C1197.432,2717.592,1196.321,2716.066,1196.321,2714.44Z" transform="translate(-1181.876 -2589.303)" fill="#ebeff2" opacity="0.3" style="mix-blend-mode: multiply;isolation: isolate"/>
          <path id="Trazado_140811" data-name="Trazado 140811" d="M1399.388,2552.456a5.363,5.363,0,0,0,2.658.015,1.711,1.711,0,0,0,1.27-1.665V2528.1h-5.263v22.677A1.743,1.743,0,0,0,1399.388,2552.456Z" transform="translate(-1362.571 -2434.285)" fill="#d8dee8"/>
          <g id="Grupo_82297" data-name="Grupo 82297" transform="translate(0 5.993)">
            <path id="Trazado_140812" data-name="Trazado 140812" d="M1123.715,1767.113l-8.04-5.082c-.334-1.9-.441-68.865-15.827-75.1-6.257-2.536-22.605.529-26.3.694-7.377.33-12.638.565-15.169,4.083-3.25,4.518,8.132,52.956,7,65.88-.46,5.27-1.63,7.611-.173,11.1,1.746,4.183,5.8,6.5,8.945,7.806a45.823,45.823,0,0,0,18.973,6.059,47.219,47.219,0,0,0,29.208-7.37,4.817,4.817,0,0,0,3.269-3.618A4.248,4.248,0,0,0,1123.715,1767.113Z" transform="translate(-1057.794 -1685.927)" fill="#26a69a"/>
            <path id="Trazado_140813" data-name="Trazado 140813" d="M1098.542,1696.709c-5.456.162-8.846.1-10.721,2.534-1.968,2.557,5.952,49.077,6.321,58.181.336,8.3-1.127,11.581,1.555,16.181a17.108,17.108,0,0,0,3.514,4.093c7.6,6.2,27.22,6.129,35.477-6.823,6.587-10.333-2.091-69.9-9.83-74.944C1121.067,1693.46,1120.2,1696.068,1098.542,1696.709Z" transform="translate(-1084.409 -1693.953)" fill="#26a69a" style="mix-blend-mode: multiply;isolation: isolate"/>
            <path id="Trazado_140814" data-name="Trazado 140814" d="M1239.282,2356.121l-8.04-5.083s-21.535-7.08-41.461,2.9a6.615,6.615,0,0,0-3.62,5.922,4.749,4.749,0,0,0,2.917,4.381,43.277,43.277,0,0,0,19.616,7.317,44.583,44.583,0,0,0,29.208-7.37,4.818,4.818,0,0,0,3.269-3.618A4.249,4.249,0,0,0,1239.282,2356.121Z" transform="translate(-1172.776 -2279.5)" fill="#26a69a" style="mix-blend-mode: multiply;isolation: isolate"/>
          </g>
          <g id="Grupo_82304" data-name="Grupo 82304" transform="translate(17.204)">
            <g id="Grupo_82298" data-name="Grupo 82298" transform="translate(73.44 137.085)">
              <path id="Trazado_140815" data-name="Trazado 140815" d="M1937.947,2990.351l-6.865-4.125h-3.1a37.211,37.211,0,0,0-.936,4.125c1.38,2.262,7.807,3.983,11.818,4.125.666.023,1.595.027,1.835-.456C1941.108,2993.2,1939.292,2991.489,1937.947,2990.351Z" transform="translate(-1927.039 -2981.725)" fill="#1565c0"/>
              <path id="Trazado_140816" data-name="Trazado 140816" d="M1935.28,2943.062c-.011,2.4.091,4.1.693,4.845.423.525-3.647,1.706-3.67-.344a23.481,23.481,0,0,0-.442-4.342Z" transform="translate(-1931.358 -2943.062)" fill="url(#linear-gradient-15)"/>
            </g>
            <g id="Grupo_82299" data-name="Grupo 82299" transform="translate(47.908 142.884)">
              <path id="Trazado_140817" data-name="Trazado 140817" d="M1693.111,3045.962l-6.865-4.125h-3.1a37.169,37.169,0,0,0-.936,4.125c1.38,2.262,7.807,3.983,11.818,4.125.666.024,1.6.027,1.835-.455C1696.272,3048.814,1694.456,3047.1,1693.111,3045.962Z" transform="translate(-1682.203 -3037.335)" fill="#1565c0"/>
              <path id="Trazado_140818" data-name="Trazado 140818" d="M1690.443,2998.673c-.011,2.4.091,4.1.693,4.844.423.525-3.647,1.706-3.67-.343a23.467,23.467,0,0,0-.442-4.343Z" transform="translate(-1686.521 -2998.673)" fill="url(#linear-gradient-16)"/>
            </g>
            <path id="Trazado_140819" data-name="Trazado 140819" d="M1323.616,2250.974c1.943-11.722.045-24.242-.4-30.976-.7-10.709-1.055-16.063-4.153-20.561-4.057-5.891-12.36-11.781-19.377-16.759a35.443,35.443,0,0,1-3.341-2.629,38.336,38.336,0,0,1-7.621-9.393c-15.887-4.66-30.54-2.772-37.006,5.748a12.367,12.367,0,0,0-2.979,6.269c-.816,7.1,6.164,15.658,14,17.444,9.955,2.271,15.731-7.952,24.551-4.551.879.339,3.477,2.954,8.743,8.024,3.824,3.682,5.736,5.523,6.345,6.254,5.636,6.773,8.995,17.2,9.4,25.266a16.911,16.911,0,0,0,1.86,7.642,37.653,37.653,0,0,0,6.28,7.942Z" transform="translate(-1245.976 -2111.893)" fill="#ffa726"/>
            <path id="Trazado_140820" data-name="Trazado 140820" d="M1299.145,2391.008s3.4,1.6,5.921,0c-.083-4.25-.09-10.9.454-19.035,1.19-17.8,3.709-23.186,1.473-30.789-1.614-5.486-5.949-12.961-18.741-19.949l-32.485-3.186a10.175,10.175,0,0,0-1.158,5.944c.682,6.319,7.946,10.193,14.019,13.36,11.994,6.254,14.527,3.377,18.433,7.592,5.28,5.7,1.992,12.4,4.877,26.491A70.32,70.32,0,0,0,1299.145,2391.008Z" transform="translate(-1251.236 -2246.139)" fill="#ffca28"/>
            <g id="Grupo_82303" data-name="Grupo 82303">
              <g id="Grupo_82302" data-name="Grupo 82302">
                <path id="Trazado_140821" data-name="Trazado 140821" d="M1531.606,1818.8c4.448-.385,11.185-21.444,1.845-35.043-6.879-10.015-21.216-14.149-23.718-11.111-1.452,1.763,1.532,5.391,7.063,15.8C1528.143,1809.805,1528.609,1819.055,1531.606,1818.8Z" transform="translate(-1479.483 -1756.73)" fill="#fff"/>
                <path id="Trazado_140822" data-name="Trazado 140822" d="M1225.488,1765.406a60.1,60.1,0,0,1,17.624-2.885c8.4-.1,15.121-.179,19.743,3.363,11.166,8.554-1.337,29.665,5.08,44.984a19.337,19.337,0,0,1,.967,12.822,13.184,13.184,0,0,1-2.154,3.624c-6.784,9.425-25.99,10.842-34.862,3.095-4.708-4.111-8.952-3.2-9.066-8.065C1222.372,1803.132,1225.672,1783.9,1225.488,1765.406Z" transform="translate(-1222.778 -1748.513)" fill="#fff"/>
                <path id="Trazado_140823" data-name="Trazado 140823" d="M1239.813,1919.248c-1.616-3.976.058-8.593-3.546-10.534-1.323-.712-4.563-2.715-4.761-.931a270.845,270.845,0,0,0-2.108,38.715c.125,4.861,3.807,9.29,9.012,13.385,6.01,4.729,16.317,5.985,25.107,4.084-11.521-6.08-19.79-12.533-18.6-18.322,1.381-6.737,14.836-9.055,14.3-13.785C1258.638,1926.846,1243.338,1927.926,1239.813,1919.248Z" transform="translate(-1228.643 -1878.01)" fill="#4dd0e1" opacity="0.3" style="mix-blend-mode: multiply;isolation: isolate"/>
                <g id="Grupo_82301" data-name="Grupo 82301" transform="translate(10.844)">
                  <path id="Trazado_140824" data-name="Trazado 140824" d="M1337.046,1662.435a30.327,30.327,0,0,1-.652,6.635c-.377,1.77-.649,2.229-1,2.6-.523.563-1.316,1.041-5.8,2.1-2.447.58-2.761.569-2.816.79-.264,1.078,6.4,4.647,13.261,3.674,4.184-.594,7.982-2.813,7.749-3.95s-4.406-.478-5.651-2.54c-.867-1.436.1-3.5,1.253-5.209C1342.279,1664.658,1338.161,1664.324,1337.046,1662.435Z" transform="translate(-1326.771 -1658.892)" fill="url(#linear-gradient-17)"/>
                  <g id="Grupo_82300" data-name="Grupo 82300" transform="translate(8.886)">
                    <path id="Trazado_140825" data-name="Trazado 140825" d="M1422.4,1635.523a3.792,3.792,0,0,0,1.183-4.473,4.693,4.693,0,0,0-2.939-2.111c-2.508-.865-6.058-.629-7.818,1.286-1.044,1.136-.35,4.149-.259,4.683.1.6.519.9.835,1.407.438.708,1.121,1.829,2.223,3.7a10.113,10.113,0,0,1,1.046-1.471,9.508,9.508,0,0,1,1.767-1.605C1420.217,1635.739,1421.186,1636.416,1422.4,1635.523Z" transform="translate(-1412.231 -1628.46)" fill="url(#linear-gradient-18)"/>
                    <path id="Trazado_140826" data-name="Trazado 140826" d="M1413.559,1680.235a5.653,5.653,0,0,0,4.424,3.5c3.081.5,5.29-5.6,3.734-7.353a4.117,4.117,0,0,0-2.888-1.033c-.667.017-.944.2-2.035.214-1.007.009-1.246-.147-1.593.006-.434.192-.887.8-.81,2.754a1.715,1.715,0,0,0-1.619-.93,1.122,1.122,0,0,0-.508.268C1411.636,1678.274,1412.089,1679.342,1413.559,1680.235Z" transform="translate(-1411.989 -1670.457)" fill="url(#linear-gradient-19)"/>
                    <path id="Trazado_140827" data-name="Trazado 140827" d="M1421.2,1673.331c.118.133-.472.529-.707,1.227a3.378,3.378,0,0,0,2.1,3.833c.892.29,1.287-.157,2.841.039a7.577,7.577,0,0,1,2.17.615,3.44,3.44,0,0,1-2.121,3.448,5.058,5.058,0,0,1-5.369-2.872c-.4-1.35.528-1.9-.092-2.891a6.474,6.474,0,0,1-1.148-1.708,3.621,3.621,0,0,1-.158-.6C1419.716,1673.847,1421.024,1673.139,1421.2,1673.331Z" transform="translate(-1418.014 -1668.623)" fill="url(#linear-gradient-20)"/>
                    <path id="Trazado_140828" data-name="Trazado 140828" d="M1474.768,1729.986a4.162,4.162,0,0,1-1.858-.15c-.054-.015-.119-.014-.134.01-.054.092.547.7,1.264.675.509-.015,1-.341.961-.46C1474.987,1730.011,1474.878,1729.992,1474.768,1729.986Z" transform="translate(-1466.435 -1719.256)" fill="url(#linear-gradient-21)"/>
                  </g>
                </g>
              </g>
            </g>
          </g>
        </g>
        <g id="Grupo_82307" data-name="Grupo 82307" transform="translate(0 57.442)">
          <path id="Trazado_140829" data-name="Trazado 140829" d="M2271.586,2268.4h-.042a.549.549,0,0,1-.506-.547v-87.994a.548.548,0,0,1,1.1,0v80.876l12.246-79.054a.548.548,0,1,1,1.083.168l-13.335,86.088A.549.549,0,0,1,2271.586,2268.4Z" transform="translate(-2122.884 -2179.313)" fill="#b7c0ce"/>
          <g id="Grupo_82306" data-name="Grupo 82306" transform="translate(0 0.362)">
            <path id="Trazado_140830" data-name="Trazado 140830" d="M850.3,2194.051l146.3-11.266,71.854,6.345-102.8,15.022Z" transform="translate(-850.296 -2182.785)" fill="#f4f7fa" opacity="0.81"/>
            <path id="Trazado_140831" data-name="Trazado 140831" d="M965.648,2258.652,850.3,2248.55v4.879l115.352,10.1,102.8-15.023v-4.879Z" transform="translate(-850.296 -2237.285)" fill="#b7c0ce"/>
          </g>
          <path id="Trazado_140832" data-name="Trazado 140832" d="M1833.306,2507.961a.548.548,0,0,1-.543-.475l-12.682-93.625a.548.548,0,1,1,1.086-.147l11.591,85.57v-85.5a.548.548,0,1,1,1.1,0v93.625a.548.548,0,0,1-.511.547Z" transform="translate(-1718.949 -2388.846)" fill="#b7c0ce"/>
          <path id="Trazado_140833" data-name="Trazado 140833" d="M2821.193,2353.811a.548.548,0,0,1-.542-.474l-11.754-86.012a.548.548,0,0,1,1.086-.148l10.663,78.029v-81.36a.548.548,0,0,1,1.1,0v89.418a.548.548,0,0,1-.51.547Z" transform="translate(-2604.652 -2254.539)" fill="#b7c0ce"/>
          <path id="Trazado_140834" data-name="Trazado 140834" d="M858.874,2418.295h-.041a.548.548,0,0,1-.508-.546V2332.9a.548.548,0,0,1,1.1,0v77.358l11.39-77.438a.548.548,0,1,1,1.084.159l-12.48,84.85A.548.548,0,0,1,858.874,2418.295Z" transform="translate(-857.488 -2316.39)" fill="#b7c0ce"/>
        </g>
        <g id="Grupo_82308" data-name="Grupo 82308" transform="translate(16.667 16.165)">
          <path id="Trazado_140835" data-name="Trazado 140835" d="M1046.982,1834.725l2.715-3.034c-7.049-9.25-12.645-13.259-16.607-15.17-2.714-1.309-2.6-2.155-2.715-2.475-.672-1.924,6.717-10.372,8.647-12.935,3.552-4.716,6.915-12.763,4.3-15.993-2.723-3.363-11.4-.856-15.994,1.376a26.413,26.413,0,0,0-8.148,6.172c-4.325,4.867-12.648,17.968-7.33,29.771C1016.791,1833.4,1031.939,1839.77,1046.982,1834.725Z" transform="translate(-1010.131 -1783.481)" fill="#fff"/>
        </g>
        <path id="Trazado_140836" data-name="Trazado 140836" d="M1554.256,2238.407v-1.252l53.884-2.9v1.24l-38.077,3.747Z" transform="translate(-1480.848 -2171.081)" fill="#afafaf"/>
        <path id="Trazado_140837" data-name="Trazado 140837" d="M1554.256,2231.682l16.714.213,37.169-3.116-10.393-.637Z" transform="translate(-1480.848 -2165.607)" fill="#636363"/>
        <g id="Grupo_82309" data-name="Grupo 82309" transform="translate(80.553 11.817)">
          <path id="Trazado_140838" data-name="Trazado 140838" d="M1622.772,1791.722l15.154-47.415a2.149,2.149,0,0,1,2.057-1.307l66.353-1.218a3.348,3.348,0,0,1,1.891.76c.344.357.813.422.684.884l-12.372,41.724a2.04,2.04,0,0,1-1.8,1.312l-70.748,6.484Z" transform="translate(-1622.772 -1741.782)" fill="#e8e8e8"/>
          <path id="Trazado_140839" data-name="Trazado 140839" d="M1634.435,1800.359l15.368-47.737a2.148,2.148,0,0,1,2.052-1.3l66.213-1.26a1.939,1.939,0,0,1,1.435.546,1.32,1.32,0,0,1,.339,1.292l-11.568,41.441a2.036,2.036,0,0,1-1.837,1.335L1689.628,1796Z" transform="translate(-1633.219 -1749.195)" fill="#afafaf"/>
          <path id="Trazado_140840" data-name="Trazado 140840" d="M1634.435,2064.652l72-5.686a2.035,2.035,0,0,0,1.837-1.335l3.492-12.51c-21.943,7.672-48.016,6.83-73.867,8.775Z" transform="translate(-1633.219 -2013.488)" opacity="0.3" fill="url(#linear-gradient-22)" style="mix-blend-mode: multiply;isolation: isolate"/>
          <path id="Trazado_140841" data-name="Trazado 140841" d="M1886.517,2274.189l-2.731.943s-14.359-2.7-14.984-3.137c-.1-.07-.444-.738.2-.848,3.389-.583,15.76-1.012,15.76-1.012l1.133.063Z" transform="translate(-1842.984 -2215.039)" fill="url(#linear-gradient-23)"/>
          <path id="Trazado_140842" data-name="Trazado 140842" d="M1889.826,2266.147l-2.73.941s-14.357-2.7-14.982-3.145,15.956-1.85,15.956-1.85l1.132.067Z" transform="translate(-1846.097 -2207.836)" fill="#636363"/>
          <path id="Trazado_140843" data-name="Trazado 140843" d="M2027.482,1984.714s6.969,29.977,7.174,31.732c.19,1.618-16.939,3.206-21.042,3.346a1.945,1.945,0,0,1-.931-.318c-1.135-.131,4.178-34.328,4.178-34.328l.391.015Z" transform="translate(-1971.881 -1959.381)" fill="url(#linear-gradient-24)"/>
          <path id="Trazado_140844" data-name="Trazado 140844" d="M2035.816,1984.714s7.924,30.28,8.129,32.034-20.16,3.09-21.941,3.031c-1.134-.13,3.581-34.618,3.581-34.618Z" transform="translate(-1980.215 -1959.381)" fill="#636363"/>
        </g>
        <path id="Trazado_140845" data-name="Trazado 140845" d="M1374.16,2245.811s4.521-2.069,7.13-1.884,6.283,2.56,6.921,3.967-8.831,1.254-8.831,1.254S1368.092,2248.708,1374.16,2245.811Z" transform="translate(-1317.927 -2179.736)" fill="url(#linear-gradient-22)"/>
        <path id="Trazado_140846" data-name="Trazado 140846" d="M1358.353,2223.189c2.523-3.207,8.537-1.248,8.877-1.132,1.438.488,3.365,1.48,3.23,2.113-.13.613-2.068.293-5.266.834-4.679.79-6.754,2.526-7.582,1.643C1356.98,2225.97,1357.525,2224.242,1358.353,2223.189Z" transform="translate(-1304.463 -2159.532)" fill="url(#linear-gradient-26)"/>
      </g>
      <g id="Grupo_82311" data-name="Grupo 82311" transform="translate(165.306 85.356)">
        <path id="Trazado_140847" data-name="Trazado 140847" d="M2013.665,1267.483a3.523,3.523,0,0,0,.59-7c-.093-.008-.184-.009-.275-.008a20.254,20.254,0,0,0-.465-2.926c.085-.035.169-.071.252-.113a3.674,3.674,0,0,0,1.586-4.681,3.112,3.112,0,0,0-4.307-1.653c-.085.044-.166.093-.246.143a18.574,18.574,0,0,0-1.76-2.26c.059-.077.117-.155.171-.239a3.674,3.674,0,0,0-.78-4.88,3.112,3.112,0,0,0-4.522.909c-.053.082-.1.166-.146.251a16.477,16.477,0,0,0-2.583-.988c.016-.1.03-.2.039-.3.163-1.932.515-4.115-1.272-4.237-4.134-.283-5.029,1.76-5.191,3.692-.009.1-.01.2-.011.3a16.476,16.476,0,0,0-2.712.542c-.031-.091-.063-.182-.1-.272-.751-1.749-.616-2.915-2.324-2.26-3.724,1.429-4.32,3.539-3.568,5.288.039.091.083.178.129.264a18.579,18.579,0,0,0-2.113,1.934c-.07-.063-.142-.125-.219-.182a3.111,3.111,0,0,0-4.522.909,3.674,3.674,0,0,0,.78,4.88c.075.056.152.106.23.154a20.239,20.239,0,0,0-.948,2.807c-.09-.016-.18-.03-.273-.038a3.523,3.523,0,0,0-.59,7c.093.008.184.009.275.008a20.254,20.254,0,0,0,.465,2.926c-.085.034-.169.071-.252.113a3.675,3.675,0,0,0-1.586,4.681,3.112,3.112,0,0,0,4.307,1.653c.085-.044.166-.093.246-.143a18.55,18.55,0,0,0,1.76,2.26c-.059.077-.117.155-.171.239a3.674,3.674,0,0,0,.78,4.879c1.464,1.1,4.634.595,5.667-1,.053-.082-1.045-.072-1-.156a16.5,16.5,0,0,0,2.583.988c-.016.1-.03.2-.039.3a3.253,3.253,0,1,0,6.463.544c.009-.1.01-.2.011-.3a16.476,16.476,0,0,0,2.712-.542c.031.091.063.182.1.272a3.112,3.112,0,0,0,4.307,1.653,3.675,3.675,0,0,0,1.585-4.68c-.039-.091-.083-.178-.129-.264a18.625,18.625,0,0,0,2.113-1.934c.07.063.142.125.219.182a3.111,3.111,0,0,0,4.522-.909,3.674,3.674,0,0,0-.78-4.88c-.075-.056-.152-.106-.23-.154a20.261,20.261,0,0,0,.948-2.807C2013.482,1267.461,2013.573,1267.475,2013.665,1267.483Zm-18.351,7.725c-6.48-.546-11.255-6.676-10.664-13.693s6.323-12.263,12.8-11.717,11.255,6.677,10.664,13.693S2001.795,1275.754,1995.314,1275.208Z" transform="translate(-1975.563 -1239.482)" fill="#bfc6d1"/>
        <path id="Trazado_140848" data-name="Trazado 140848" d="M2216.921,1270.627a3.675,3.675,0,0,0,1.586-4.681,3.112,3.112,0,0,0-4.307-1.653c-.085.044-.166.093-.246.143a18.566,18.566,0,0,0-1.76-2.26c.059-.077.117-.155.172-.239,1.033-1.6,1.827-4.769.258-5.71-2.978-1.785-4.527.141-5.561,1.739-.053.082-.1.166-.146.251a16.446,16.446,0,0,0-2.583-.988c.016-.1.031-.2.039-.3a3.627,3.627,0,0,0-.887-2.728q-.6,4.533-1.118,9.075c5.562,1.4,9.44,7.035,8.9,13.4a12.768,12.768,0,0,1-8.481,11.212c.01.59.026,1.18.02,1.771-.015,1.6-.119,3.207-.224,4.811q.66-.133,1.3-.319c.031.091.063.182.1.272.751,1.749,2.43,2.812,5.424,1.407,1.656-.777,1.219-2.686.468-4.435-.039-.091-.083-.178-.129-.264a18.558,18.558,0,0,0,2.113-1.934c.071.063.143.125.219.182,1.465,1.1,4.75.481,5.783-1.118s-.576-3.575-2.041-4.671c-.075-.056-.152-.106-.23-.154a20.28,20.28,0,0,0,.948-2.807c.09.016.18.03.273.038a3.523,3.523,0,0,0,.589-7c-.093-.008-.184-.009-.275-.008a20.248,20.248,0,0,0-.465-2.926C2216.753,1270.706,2216.838,1270.67,2216.921,1270.627Z" transform="translate(-2178.717 -1252.672)" fill="#bfc6d1"/>
        <path id="Trazado_140849" data-name="Trazado 140849" d="M2029.632,1267.152a3.523,3.523,0,0,0,.589-7c-.093-.008-.184-.009-.275-.008a20.235,20.235,0,0,0-.465-2.926c.085-.035.169-.071.253-.114a3.674,3.674,0,0,0,1.585-4.68,3.112,3.112,0,0,0-4.307-1.653c-.085.044-.166.093-.246.143a18.606,18.606,0,0,0-1.76-2.26c.059-.077.117-.155.171-.239a3.674,3.674,0,0,0-.78-4.88,3.112,3.112,0,0,0-4.522.909c-.053.082-.1.166-.146.251a16.453,16.453,0,0,0-2.583-.988c.016-.1.03-.2.039-.3a3.254,3.254,0,1,0-6.464-.544c-.008.1-.01.2-.011.3a16.456,16.456,0,0,0-2.712.542c-.031-.091-.063-.182-.1-.272a3.112,3.112,0,0,0-4.307-1.653,3.675,3.675,0,0,0-1.585,4.681c.039.091.083.178.129.264a18.6,18.6,0,0,0-2.113,1.934c-.07-.063-.142-.125-.219-.182a3.112,3.112,0,0,0-4.522.909,3.675,3.675,0,0,0,.78,4.88c.075.056.152.106.23.154a20.238,20.238,0,0,0-.948,2.807c-.09-.016-.18-.03-.273-.038a3.523,3.523,0,0,0-.59,7c.092.008.184.009.275.008a20.232,20.232,0,0,0,.465,2.926c-.085.035-.169.071-.252.114a3.674,3.674,0,0,0-1.586,4.68,3.112,3.112,0,0,0,4.307,1.653c.085-.044.166-.093.246-.143a18.567,18.567,0,0,0,1.76,2.26c-.059.077-.117.155-.172.239a3.674,3.674,0,0,0,.78,4.88,3.112,3.112,0,0,0,4.523-.909c.053-.082.1-.166.145-.251a16.465,16.465,0,0,0,2.583.988c-.016.1-.03.2-.039.3a3.253,3.253,0,1,0,6.463.544c.008-.1.01-.2.011-.3a16.468,16.468,0,0,0,2.712-.542c.031.091.063.182.1.272a3.112,3.112,0,0,0,4.307,1.652,3.674,3.674,0,0,0,1.586-4.68c-.039-.092-.083-.178-.129-.264a18.59,18.59,0,0,0,2.113-1.934c.07.063.142.125.219.182a3.112,3.112,0,0,0,4.523-.909,3.675,3.675,0,0,0-.78-4.88c-.075-.056-.152-.106-.23-.154a20.276,20.276,0,0,0,.948-2.807C2029.449,1267.13,2029.54,1267.145,2029.632,1267.152Zm-18.351,7.726c-6.48-.546-11.255-6.677-10.664-13.693s6.323-12.263,12.8-11.717,11.255,6.677,10.663,13.693S2017.762,1275.424,2011.281,1274.878Z" transform="translate(-1989.865 -1239.616)" fill="#fff"/>
      </g>
      <g id="Grupo_82312" data-name="Grupo 82312" transform="translate(208.392 36.139)">
        <path id="Trazado_140850" data-name="Trazado 140850" d="M2453.352,814.983a5.973,5.973,0,0,0,1-11.867c-.157-.013-.312-.015-.467-.014a34.358,34.358,0,0,0-.788-4.962c.144-.059.287-.12.428-.193a6.231,6.231,0,0,0,2.688-7.936,5.276,5.276,0,0,0-7.3-2.8c-.144.074-.282.157-.417.243a31.493,31.493,0,0,0-2.984-3.832c.1-.131.2-.263.291-.405a6.23,6.23,0,0,0-1.323-8.274,5.277,5.277,0,0,0-7.668,1.541c-.09.139-.169.282-.247.426a27.909,27.909,0,0,0-4.38-1.675c.027-.165.052-.331.066-.5.276-3.277.873-6.976-2.157-7.184-7.01-.48-8.527,2.984-8.8,6.261-.014.17-.018.338-.019.5a27.926,27.926,0,0,0-4.6.919c-.052-.155-.107-.309-.172-.461-1.274-2.965-1.044-4.943-3.94-3.832-6.315,2.423-7.325,6-6.051,8.966.067.155.142.3.219.448a31.476,31.476,0,0,0-3.583,3.279c-.119-.107-.241-.212-.371-.309a5.276,5.276,0,0,0-7.668,1.541,6.23,6.23,0,0,0,1.323,8.274c.127.1.258.18.39.262a34.381,34.381,0,0,0-1.607,4.76c-.152-.027-.305-.051-.462-.064a5.973,5.973,0,0,0-1,11.867c.157.013.312.015.467.014a34.329,34.329,0,0,0,.788,4.962c-.144.059-.287.12-.428.192a6.23,6.23,0,0,0-2.688,7.936,5.276,5.276,0,0,0,7.3,2.8c.144-.074.281-.157.417-.243a31.484,31.484,0,0,0,2.984,3.832c-.1.131-.2.263-.291.405a6.231,6.231,0,0,0,1.323,8.274c2.483,1.859,7.857,1.009,9.609-1.7.09-.139-1.772-.121-1.695-.265a27.93,27.93,0,0,0,4.38,1.675c-.027.165-.052.331-.066.5a5.517,5.517,0,1,0,10.96.923c.014-.17.018-.338.019-.505a27.9,27.9,0,0,0,4.6-.919c.052.155.107.309.172.461a5.277,5.277,0,0,0,7.3,2.8,6.231,6.231,0,0,0,2.688-7.936c-.067-.155-.142-.3-.219-.448a31.487,31.487,0,0,0,3.583-3.279c.119.107.241.212.371.309a5.276,5.276,0,0,0,7.668-1.541,6.231,6.231,0,0,0-1.323-8.274c-.127-.1-.258-.179-.39-.261a34.317,34.317,0,0,0,1.607-4.76C2453.042,814.946,2453.195,814.97,2453.352,814.983Zm-31.116,13.1c-10.988-.925-19.083-11.321-18.081-23.219s10.722-20.792,21.71-19.867,19.083,11.321,18.081,23.219S2433.224,829.008,2422.236,828.083Z" transform="translate(-2388.746 -767.504)" fill="#bfc6d1"/>
        <path id="Trazado_140851" data-name="Trazado 140851" d="M2797.989,820.314a6.231,6.231,0,0,0,2.688-7.936,5.276,5.276,0,0,0-7.3-2.8c-.144.074-.281.157-.417.243a31.505,31.505,0,0,0-2.984-3.832c.1-.13.2-.263.291-.405,1.752-2.71,3.1-8.086.438-9.681-5.049-3.027-7.677.238-9.429,2.949-.09.139-.169.282-.247.425a27.945,27.945,0,0,0-4.38-1.675c.027-.165.052-.331.066-.5a6.154,6.154,0,0,0-1.5-4.625q-1.012,7.686-1.9,15.387c9.43,2.374,16.006,11.929,15.1,22.721-.77,9.145-6.693,16.51-14.381,19.011.018,1,.043,2,.034,3-.025,2.716-.2,5.438-.38,8.158q1.119-.226,2.211-.541c.052.155.107.309.172.461,1.274,2.965,4.121,4.768,9.2,2.386,2.808-1.318,2.068-4.555.794-7.52-.067-.155-.142-.3-.219-.448a31.516,31.516,0,0,0,3.583-3.279c.119.107.241.212.371.309,2.483,1.859,8.053.815,9.805-1.9s-.977-6.061-3.46-7.92c-.127-.1-.258-.179-.39-.261a34.35,34.35,0,0,0,1.607-4.76c.152.027.305.051.462.064a5.973,5.973,0,0,0,1-11.867c-.157-.013-.312-.015-.467-.014a34.316,34.316,0,0,0-.788-4.962C2797.7,820.447,2797.848,820.386,2797.989,820.314Z" transform="translate(-2733.211 -789.869)" fill="#bfc6d1"/>
        <path id="Trazado_140852" data-name="Trazado 140852" d="M2480.425,814.422a5.973,5.973,0,0,0,1-11.867c-.156-.013-.312-.015-.467-.014a34.323,34.323,0,0,0-.788-4.962c.144-.059.287-.12.428-.193a6.231,6.231,0,0,0,2.688-7.936,5.277,5.277,0,0,0-7.3-2.8c-.144.074-.281.157-.417.243a31.5,31.5,0,0,0-2.984-3.832c.1-.13.2-.263.291-.4a6.23,6.23,0,0,0-1.323-8.274,5.276,5.276,0,0,0-7.668,1.541c-.09.139-.169.282-.247.426a27.9,27.9,0,0,0-4.38-1.675c.027-.165.052-.331.066-.5a5.517,5.517,0,1,0-10.959-.923c-.014.17-.018.338-.019.505a27.9,27.9,0,0,0-4.6.919c-.053-.155-.107-.309-.172-.461a5.277,5.277,0,0,0-7.3-2.8,6.231,6.231,0,0,0-2.688,7.936c.067.155.142.3.219.448a31.527,31.527,0,0,0-3.583,3.279c-.119-.107-.241-.212-.371-.309a5.276,5.276,0,0,0-7.668,1.542,6.23,6.23,0,0,0,1.323,8.274c.127.1.259.179.39.261a34.381,34.381,0,0,0-1.607,4.76c-.152-.027-.305-.051-.462-.065a5.973,5.973,0,0,0-1,11.867c.157.013.312.015.467.014a34.324,34.324,0,0,0,.788,4.962c-.144.059-.287.12-.428.192a6.231,6.231,0,0,0-2.688,7.936,5.276,5.276,0,0,0,7.3,2.8c.144-.074.281-.157.417-.243a31.468,31.468,0,0,0,2.984,3.832c-.1.13-.2.263-.291.4a6.231,6.231,0,0,0,1.323,8.274,5.276,5.276,0,0,0,7.668-1.541c.09-.139.169-.282.247-.426a27.945,27.945,0,0,0,4.38,1.675c-.027.165-.052.331-.066.5a5.517,5.517,0,1,0,10.959.923c.014-.17.018-.338.019-.5a27.9,27.9,0,0,0,4.6-.919c.053.155.107.309.172.461a5.277,5.277,0,0,0,7.3,2.8,6.23,6.23,0,0,0,2.688-7.936c-.067-.155-.142-.3-.219-.448a31.505,31.505,0,0,0,3.583-3.279c.12.107.241.212.371.309a5.276,5.276,0,0,0,7.668-1.541,6.23,6.23,0,0,0-1.323-8.274c-.127-.1-.258-.179-.39-.261a34.315,34.315,0,0,0,1.607-4.76C2480.115,814.385,2480.268,814.409,2480.425,814.422Zm-31.116,13.1c-10.988-.925-19.083-11.321-18.081-23.218s10.722-20.792,21.71-19.867,19.083,11.321,18.081,23.218S2460.3,828.447,2449.309,827.522Z" transform="translate(-2412.996 -767.733)" fill="#fff"/>
      </g>
    </g>
  </g>
</svg>
