<svg xmlns="http://www.w3.org/2000/svg" xmlns:xlink="http://www.w3.org/1999/xlink" width="243.79" height="287.787" viewBox="0 0 243.79 287.787">
  <defs>
    <clipPath id="clip-path">
      <path id="Trazado_105272" data-name="Trazado 105272" d="M166.968,84.609,167,70.194,183.449,79.3l-.027,14.415Z" transform="translate(-166.968 -70.194)" fill="none"/>
    </clipPath>
    <clipPath id="clip-path-2">
      <path id="Trazado_105279" data-name="Trazado 105279" d="M120.562,122.628l.025-13.4,14.77,8.179-.025,13.4Z" transform="translate(-120.562 -109.227)" fill="none"/>
    </clipPath>
  </defs>
  <g id="Grupo_56502" data-name="Grupo 56502" transform="translate(-82.199 -48.41)">
    <path id="Trazado_105080" data-name="Trazado 105080" d="M165.654,281.182l-46.533,26.979a4.805,4.805,0,0,0,.034,8.335l127.1,71.948a4.805,4.805,0,0,0,4.817-.037l45.854-27.031a4.806,4.806,0,0,0-.056-8.312l-126.418-71.9A4.807,4.807,0,0,0,165.654,281.182Z" transform="translate(-7.865 -52.875)" fill="#ffedb7"/>
    <g id="Grupo_56407" data-name="Grupo 56407" transform="translate(120.409 289.149)">
      <ellipse id="Elipse_4058" data-name="Elipse 4058" cx="38.424" cy="20.88" rx="38.424" ry="20.88" transform="translate(0)" fill="#ffedb7"/>
    </g>
    <g id="Grupo_56420" data-name="Grupo 56420" transform="translate(133.339 294.641)">
      <g id="Grupo_56410" data-name="Grupo 56410" transform="translate(3.396 0.502)">
        <g id="Grupo_56408" data-name="Grupo 56408" transform="translate(0.257)">
          <path id="Trazado_105081" data-name="Trazado 105081" d="M158.844,368.36c-1.732-1-3.136-.223-3.136,1.731a6.849,6.849,0,0,0,3.136,5.348c1.732,1,3.136.223,3.136-1.731A6.848,6.848,0,0,0,158.844,368.36Z" transform="translate(-153.737 -367.925)" fill="#263364"/>
          <path id="Trazado_105082" data-name="Trazado 105082" d="M157.722,377.159c1.819-.192,2.771-.978,3.131-1.759l-4.436-7.407c-.991.239-2.775,1.084-3.262,2.186Z" transform="translate(-153.155 -367.94)" fill="#263364"/>
        </g>
        <g id="Grupo_56409" data-name="Grupo 56409" transform="translate(0 1.292)">
          <path id="Trazado_105083" data-name="Trazado 105083" d="M155.958,370.033c-1.732-1-3.136-.224-3.136,1.731a6.847,6.847,0,0,0,3.136,5.348c1.732,1,3.136.224,3.136-1.73A6.847,6.847,0,0,0,155.958,370.033Z" transform="translate(-152.822 -369.597)" fill="#263364"/>
          <path id="Trazado_105084" data-name="Trazado 105084" d="M156.193,371.231c-1.292-.745-2.339-.167-2.339,1.291a5.106,5.106,0,0,0,2.339,3.988c1.292.745,2.339.167,2.339-1.291A5.107,5.107,0,0,0,156.193,371.231Z" transform="translate(-153.057 -369.895)" fill="#fff"/>
        </g>
      </g>
      <g id="Grupo_56413" data-name="Grupo 56413" transform="translate(34.906)">
        <g id="Grupo_56411" data-name="Grupo 56411">
          <path id="Trazado_105085" data-name="Trazado 105085" d="M196.762,367.711c1.732-1,3.137-.224,3.137,1.731a6.849,6.849,0,0,1-3.137,5.348c-1.732,1-3.136.224-3.136-1.731A6.847,6.847,0,0,1,196.762,367.711Z" transform="translate(-193.626 -367.275)" fill="#263364"/>
          <path id="Trazado_105086" data-name="Trazado 105086" d="M197.464,376.509c-1.82-.192-2.771-.978-3.132-1.759l4.437-7.406c.99.239,2.775,1.084,3.261,2.185Z" transform="translate(-193.787 -367.291)" fill="#263364"/>
        </g>
        <g id="Grupo_56412" data-name="Grupo 56412" transform="translate(2.229 1.292)">
          <path id="Trazado_105087" data-name="Trazado 105087" d="M199.648,369.383c1.732-1,3.137-.223,3.137,1.731a6.849,6.849,0,0,1-3.137,5.348c-1.732,1-3.136.223-3.136-1.731A6.849,6.849,0,0,1,199.648,369.383Z" transform="translate(-196.512 -368.948)" fill="#263364"/>
          <path id="Trazado_105088" data-name="Trazado 105088" d="M199.932,370.828c1.2-.693,2.175-.155,2.175,1.2a4.749,4.749,0,0,1-2.175,3.708c-1.2.693-2.175.155-2.175-1.2A4.75,4.75,0,0,1,199.932,370.828Z" transform="translate(-196.796 -369.307)" fill="#fff"/>
        </g>
      </g>
      <g id="Grupo_56416" data-name="Grupo 56416" transform="translate(0 20.409)">
        <g id="Grupo_56414" data-name="Grupo 56414">
          <path id="Trazado_105089" data-name="Trazado 105089" d="M151.56,394.14c1.732-1,3.137-.224,3.137,1.73a6.849,6.849,0,0,1-3.137,5.348c-1.732,1-3.136.224-3.136-1.731A6.846,6.846,0,0,1,151.56,394.14Z" transform="translate(-148.424 -393.704)" fill="#263364"/>
          <path id="Trazado_105090" data-name="Trazado 105090" d="M152.262,402.938c-1.82-.192-2.771-.978-3.132-1.759l4.437-7.407c.99.239,2.775,1.085,3.261,2.186Z" transform="translate(-148.585 -393.72)" fill="#263364"/>
        </g>
        <g id="Grupo_56415" data-name="Grupo 56415" transform="translate(2.229 1.291)">
          <path id="Trazado_105091" data-name="Trazado 105091" d="M154.446,395.812c1.732-1,3.137-.224,3.137,1.731a6.85,6.85,0,0,1-3.137,5.348c-1.732,1-3.136.223-3.136-1.731A6.848,6.848,0,0,1,154.446,395.812Z" transform="translate(-151.31 -395.376)" fill="#263364"/>
          <path id="Trazado_105092" data-name="Trazado 105092" d="M154.735,397.283c1.192-.686,2.158-.154,2.158,1.191a4.71,4.71,0,0,1-2.158,3.679c-1.192.687-2.158.154-2.158-1.191A4.712,4.712,0,0,1,154.735,397.283Z" transform="translate(-151.599 -395.742)" fill="#fff"/>
        </g>
      </g>
      <g id="Grupo_56419" data-name="Grupo 56419" transform="translate(37.613 18.13)">
        <g id="Grupo_56417" data-name="Grupo 56417" transform="translate(0.257 0)">
          <ellipse id="Elipse_4059" data-name="Elipse 4059" cx="2.532" cy="4.384" rx="2.532" ry="4.384" transform="translate(0.673 2.618) rotate(-31.14)" fill="#263364"/>
          <path id="Trazado_105093" data-name="Trazado 105093" d="M202.032,401.4c1.819-.192,2.771-.978,3.131-1.759l-4.436-7.407c-.991.239-2.775,1.084-3.262,2.185Z" transform="translate(-197.465 -391.09)" fill="#263364"/>
        </g>
        <g id="Grupo_56418" data-name="Grupo 56418" transform="translate(0 2.378)">
          <path id="Trazado_105094" data-name="Trazado 105094" d="M200.268,394.269c-1.732-1-3.136-.224-3.136,1.731a6.847,6.847,0,0,0,3.136,5.348c1.732,1,3.136.224,3.136-1.73A6.847,6.847,0,0,0,200.268,394.269Z" transform="translate(-197.132 -393.833)" fill="#263364"/>
          <path id="Trazado_105095" data-name="Trazado 105095" d="M200.521,395.56c-1.258-.725-2.277-.163-2.277,1.257a4.971,4.971,0,0,0,2.277,3.883c1.258.725,2.277.162,2.277-1.257A4.971,4.971,0,0,0,200.521,395.56Z" transform="translate(-197.385 -394.154)" fill="#fff"/>
        </g>
      </g>
    </g>
    <path id="Trazado_105096" data-name="Trazado 105096" d="M314.85,138.717c-9.126-20.686-35.4-13.035-39.547-31.333-6.017-26.545-66.856-57.114-84.264-21.9-15.573,31.5-36.41-23.238-60.044-12.474-18.457,8.406-78.146,40.549-31.148,91.634,10.111,10.989-8.05,71.471,9.724,84.167,17.343,12.388,98.448,35,126.763,42.435s87.591-17.953,68.443-86.926C299.856,186.593,326.556,165.253,314.85,138.717Z" transform="translate(0 -4.826)" fill="#fff6db"/>
    <g id="Grupo_56423" data-name="Grupo 56423" transform="translate(235.955 217.574)">
      <g id="Grupo_56421" data-name="Grupo 56421" transform="translate(0 8.174)">
        <path id="Trazado_105097" data-name="Trazado 105097" d="M285.91,323.819l-4.6,73.207c0,.92,1.372,1.666,3.066,1.666s3.066-.746,3.066-1.666l4.6-73.207Z" transform="translate(-281.31 -288.483)" fill="#4dd0e1"/>
        <path id="Trazado_105098" data-name="Trazado 105098" d="M288.746,278.059,286.262,313.4c0,1.153,1.72,2.087,3.842,2.087s3.842-.934,3.842-2.087l3.125-35.336Z" transform="translate(-282.438 -278.059)" fill="#1565c0"/>
      </g>
      <g id="Grupo_56422" data-name="Grupo 56422" transform="translate(42.331)">
        <path id="Trazado_105099" data-name="Trazado 105099" d="M344.924,286.243l4.6,73.207c0,.92-1.373,1.666-3.066,1.666s-3.066-.746-3.066-1.666l-4.6-73.207Z" transform="translate(-336.735 -271.749)" fill="#4dd0e1"/>
        <path id="Trazado_105100" data-name="Trazado 105100" d="M336.128,267.474l1.282,14.494c0,1.153,1.72,2.088,3.842,2.088s3.842-.935,3.842-2.088l-1.019-14.494Z" transform="translate(-336.128 -267.474)" fill="#1565c0"/>
      </g>
    </g>
    <g id="Grupo_56425" data-name="Grupo 56425" transform="translate(108.854 153.002)">
      <g id="Grupo_56424" data-name="Grupo 56424">
        <path id="Trazado_105101" data-name="Trazado 105101" d="M121.317,229.615l-4.6,73.206c0,.921,1.373,1.666,3.066,1.666s3.066-.746,3.066-1.666l4.6-73.206Z" transform="translate(-116.717 -194.279)" fill="#4dd0e1"/>
        <path id="Trazado_105102" data-name="Trazado 105102" d="M124.154,183.855l-2.484,35.336c0,1.153,1.72,2.087,3.842,2.087s3.842-.934,3.842-2.087l3.124-35.336Z" transform="translate(-117.845 -183.855)" fill="#1565c0"/>
      </g>
    </g>
    <path id="Trazado_105103" data-name="Trazado 105103" d="M248.626,269.86,114.81,193.29v11.433l133.815,76.57Z" transform="translate(-7.428 -33.002)" fill="#1565c0"/>
    <path id="Trazado_105104" data-name="Trazado 105104" d="M288.1,282.676l49.091-28.823v12.413L288.1,295.089Z" transform="translate(-46.901 -46.797)" fill="#039be5"/>
    <path id="Trazado_105105" data-name="Trazado 105105" d="M340.463,243.234l-55.384,32.649v6.263l54.748-32.3Z" transform="translate(-46.214 -44.379)" fill="#4dd0e1"/>
    <path id="Trazado_105106" data-name="Trazado 105106" d="M243.9,262.09,104.315,182.682v6.263L243.9,268.353Z" transform="translate(-5.038 -30.586)" fill="#039be5"/>
    <path id="Trazado_105107" data-name="Trazado 105107" d="M160.48,140.514l-56.166,32.563L243.9,252.485l55.384-32.649Z" transform="translate(-5.038 -20.98)" fill="#fff"/>
    <path id="Trazado_105108" data-name="Trazado 105108" d="M259.994,240.167s-1.693,1.693-2.354,2.574a16.438,16.438,0,0,1-3.629,3.959c-1.649,1.1-15.688,8.785-15.688,8.785l-6.551-3.719Z" transform="translate(-34.071 -43.68)" fill="#a0ebff"/>
    <g id="Grupo_56432" data-name="Grupo 56432" transform="translate(163.401 167.276)">
      <path id="Trazado_105109" data-name="Trazado 105109" d="M203.823,206.657l-12.9,7.589a.883.883,0,0,0,.011,1.527l31.361,17.867a1.824,1.824,0,0,0,1.836-.018l12.751-7.6a.882.882,0,0,0-.014-1.524l-31.215-17.854A1.823,1.823,0,0,0,203.823,206.657Z" transform="translate(-188.068 -203.265)" fill="#a0ebff"/>
      <rect id="Rectángulo_30844" data-name="Rectángulo 30844" width="1.165" height="1.983" transform="translate(0 8.576)" fill="#4b6ebc"/>
      <rect id="Rectángulo_30845" data-name="Rectángulo 30845" width="1.165" height="1.983" transform="translate(45.659 18.796)" fill="#263364"/>
      <path id="Trazado_105110" data-name="Trazado 105110" d="M200.689,205.037l-12.9,7.589a.883.883,0,0,0,.011,1.527l31.361,17.867A1.825,1.825,0,0,0,221,232l12.751-7.6a.882.882,0,0,0-.014-1.524l-31.215-17.854A1.823,1.823,0,0,0,200.689,205.037Z" transform="translate(-187.354 -202.896)" fill="#1565c0"/>
      <path id="Trazado_105111" data-name="Trazado 105111" d="M200.689,202.591l-12.9,7.59a.882.882,0,0,0,.011,1.527l31.361,17.867a1.825,1.825,0,0,0,1.836-.018l12.751-7.6a.882.882,0,0,0-.014-1.524L202.519,202.58A1.823,1.823,0,0,0,200.689,202.591Z" transform="translate(-187.354 -202.339)" fill="#4dd0e1"/>
      <g id="Grupo_56431" data-name="Grupo 56431" transform="translate(2.602 1.52)">
        <g id="Grupo_56426" data-name="Grupo 56426" transform="translate(0 6.163)">
          <path id="Trazado_105112" data-name="Trazado 105112" d="M229.536,233.657l-1.092.636a.231.231,0,0,0,0,.4l1.174.666a.421.421,0,0,0,.423,0l1.073-.637a.231.231,0,0,0,0-.4l-1.155-.663A.42.42,0,0,0,229.536,233.657Z" transform="translate(-199.29 -217.143)" fill="#1565c0"/>
          <path id="Trazado_105113" data-name="Trazado 105113" d="M226.4,231.881l-1.092.636a.231.231,0,0,0,0,.4l1.174.666a.421.421,0,0,0,.423,0l1.073-.637a.231.231,0,0,0,0-.4l-1.156-.663A.421.421,0,0,0,226.4,231.881Z" transform="translate(-198.576 -216.739)" fill="#1565c0"/>
          <path id="Trazado_105114" data-name="Trazado 105114" d="M223.268,230.105l-1.091.636a.23.23,0,0,0,0,.4l1.173.666a.423.423,0,0,0,.423,0l1.073-.637a.231.231,0,0,0,0-.4l-1.156-.664A.423.423,0,0,0,223.268,230.105Z" transform="translate(-197.862 -216.334)" fill="#1565c0"/>
          <path id="Trazado_105115" data-name="Trazado 105115" d="M220.134,228.329l-1.091.636a.231.231,0,0,0,0,.4l1.173.666a.424.424,0,0,0,.424,0l1.073-.637a.231.231,0,0,0,0-.4l-1.156-.664A.423.423,0,0,0,220.134,228.329Z" transform="translate(-197.148 -215.93)" fill="#1565c0"/>
          <path id="Trazado_105116" data-name="Trazado 105116" d="M217,226.553l-1.091.636a.231.231,0,0,0,0,.4l1.173.666a.422.422,0,0,0,.424,0l1.073-.637a.23.23,0,0,0,0-.4l-1.156-.664A.423.423,0,0,0,217,226.553Z" transform="translate(-196.434 -215.525)" fill="#1565c0"/>
          <path id="Trazado_105117" data-name="Trazado 105117" d="M213.866,224.777l-1.091.636a.231.231,0,0,0,0,.4l1.173.666a.422.422,0,0,0,.424,0l1.073-.638a.23.23,0,0,0,0-.4l-1.156-.663A.421.421,0,0,0,213.866,224.777Z" transform="translate(-195.72 -215.121)" fill="#1565c0"/>
          <path id="Trazado_105118" data-name="Trazado 105118" d="M210.732,223l-1.091.636a.232.232,0,0,0,0,.4l1.173.666a.422.422,0,0,0,.424,0l1.073-.637a.231.231,0,0,0,0-.4L211.156,223A.421.421,0,0,0,210.732,223Z" transform="translate(-195.007 -214.716)" fill="#1565c0"/>
          <path id="Trazado_105119" data-name="Trazado 105119" d="M207.6,221.226l-1.092.636a.231.231,0,0,0,0,.4l1.174.666a.421.421,0,0,0,.423,0l1.073-.637a.231.231,0,0,0,0-.4l-1.155-.663A.421.421,0,0,0,207.6,221.226Z" transform="translate(-194.293 -214.312)" fill="#1565c0"/>
          <path id="Trazado_105120" data-name="Trazado 105120" d="M204.465,219.45l-1.092.636a.231.231,0,0,0,0,.4l1.174.666a.421.421,0,0,0,.423,0l1.073-.637a.231.231,0,0,0,0-.4l-1.156-.663A.421.421,0,0,0,204.465,219.45Z" transform="translate(-193.579 -213.907)" fill="#1565c0"/>
          <path id="Trazado_105121" data-name="Trazado 105121" d="M201.331,217.674l-1.091.636a.23.23,0,0,0,0,.4l1.173.666a.421.421,0,0,0,.423,0l1.073-.637a.231.231,0,0,0,0-.4l-1.156-.663A.421.421,0,0,0,201.331,217.674Z" transform="translate(-192.865 -213.503)" fill="#1565c0"/>
          <path id="Trazado_105122" data-name="Trazado 105122" d="M198.2,215.9l-1.091.636a.23.23,0,0,0,0,.4l1.173.666a.424.424,0,0,0,.424,0l1.073-.637a.231.231,0,0,0,0-.4l-1.156-.664A.423.423,0,0,0,198.2,215.9Z" transform="translate(-192.151 -213.098)" fill="#1565c0"/>
          <path id="Trazado_105123" data-name="Trazado 105123" d="M195.063,214.122l-1.091.636a.231.231,0,0,0,0,.4l1.173.666a.42.42,0,0,0,.424,0l1.073-.637a.23.23,0,0,0,0-.4l-1.156-.664A.423.423,0,0,0,195.063,214.122Z" transform="translate(-191.437 -212.694)" fill="#1565c0"/>
          <path id="Trazado_105124" data-name="Trazado 105124" d="M191.929,212.346l-1.091.636a.231.231,0,0,0,0,.4l1.173.666a.422.422,0,0,0,.424,0l1.073-.638a.23.23,0,0,0,0-.4l-1.156-.663A.421.421,0,0,0,191.929,212.346Z" transform="translate(-190.723 -212.289)" fill="#1565c0"/>
        </g>
        <g id="Grupo_56427" data-name="Grupo 56427" transform="translate(2.42 4.622)">
          <path id="Trazado_105125" data-name="Trazado 105125" d="M232.669,231.661l-1.091.636a.232.232,0,0,0,0,.4l1.173.666a.421.421,0,0,0,.424,0l1.073-.637a.23.23,0,0,0,0-.4l-1.155-.664A.425.425,0,0,0,232.669,231.661Z" transform="translate(-202.424 -215.148)" fill="#1565c0"/>
          <path id="Trazado_105126" data-name="Trazado 105126" d="M229.536,229.886l-1.092.636a.232.232,0,0,0,0,.4l1.174.666a.421.421,0,0,0,.423,0l1.073-.638a.23.23,0,0,0,0-.4l-1.155-.663A.419.419,0,0,0,229.536,229.886Z" transform="translate(-201.71 -214.744)" fill="#1565c0"/>
          <path id="Trazado_105127" data-name="Trazado 105127" d="M226.4,228.11l-1.092.636a.232.232,0,0,0,0,.4l1.174.666a.421.421,0,0,0,.423,0l1.073-.637a.231.231,0,0,0,0-.4l-1.156-.663A.421.421,0,0,0,226.4,228.11Z" transform="translate(-200.996 -214.339)" fill="#1565c0"/>
          <path id="Trazado_105128" data-name="Trazado 105128" d="M223.268,226.334l-1.091.636a.23.23,0,0,0,0,.4l1.173.666a.421.421,0,0,0,.423,0l1.073-.637a.231.231,0,0,0,0-.4l-1.156-.663A.421.421,0,0,0,223.268,226.334Z" transform="translate(-200.282 -213.935)" fill="#1565c0"/>
          <path id="Trazado_105129" data-name="Trazado 105129" d="M220.134,224.558l-1.091.636a.23.23,0,0,0,0,.4l1.173.666a.422.422,0,0,0,.424,0l1.073-.637a.232.232,0,0,0,0-.4l-1.156-.663A.421.421,0,0,0,220.134,224.558Z" transform="translate(-199.568 -213.53)" fill="#1565c0"/>
          <path id="Trazado_105130" data-name="Trazado 105130" d="M217,222.782l-1.091.636a.231.231,0,0,0,0,.4l1.173.666a.424.424,0,0,0,.424,0l1.073-.637a.23.23,0,0,0,0-.4l-1.156-.664A.423.423,0,0,0,217,222.782Z" transform="translate(-198.854 -213.126)" fill="#1565c0"/>
          <path id="Trazado_105131" data-name="Trazado 105131" d="M213.866,221.006l-1.091.636a.231.231,0,0,0,0,.4l1.173.666a.422.422,0,0,0,.424,0l1.073-.637a.23.23,0,0,0,0-.4L214.289,221A.423.423,0,0,0,213.866,221.006Z" transform="translate(-198.141 -212.721)" fill="#1565c0"/>
          <path id="Trazado_105132" data-name="Trazado 105132" d="M210.732,219.23l-1.091.636a.232.232,0,0,0,0,.4l1.173.666a.422.422,0,0,0,.424,0l1.073-.638a.23.23,0,0,0,0-.4l-1.155-.663A.423.423,0,0,0,210.732,219.23Z" transform="translate(-197.427 -212.316)" fill="#1565c0"/>
          <path id="Trazado_105133" data-name="Trazado 105133" d="M207.6,217.454l-1.092.636a.232.232,0,0,0,0,.4l1.174.666a.421.421,0,0,0,.423,0l1.073-.637a.231.231,0,0,0,0-.4l-1.155-.663A.421.421,0,0,0,207.6,217.454Z" transform="translate(-196.713 -211.912)" fill="#1565c0"/>
          <path id="Trazado_105134" data-name="Trazado 105134" d="M204.465,215.679l-1.092.636a.231.231,0,0,0,0,.4l1.174.666a.421.421,0,0,0,.423,0l1.073-.637a.231.231,0,0,0,0-.4l-1.156-.663A.419.419,0,0,0,204.465,215.679Z" transform="translate(-195.999 -211.507)" fill="#1565c0"/>
          <path id="Trazado_105135" data-name="Trazado 105135" d="M201.331,213.9l-1.091.636a.23.23,0,0,0,0,.4l1.173.666a.421.421,0,0,0,.423,0l1.073-.637a.231.231,0,0,0,0-.4l-1.156-.663A.421.421,0,0,0,201.331,213.9Z" transform="translate(-195.285 -211.103)" fill="#1565c0"/>
          <path id="Trazado_105136" data-name="Trazado 105136" d="M198.2,212.127l-1.091.636a.23.23,0,0,0,0,.4l1.173.666a.424.424,0,0,0,.424,0l1.073-.637a.232.232,0,0,0,0-.4l-1.156-.663A.423.423,0,0,0,198.2,212.127Z" transform="translate(-194.571 -210.698)" fill="#1565c0"/>
          <path id="Trazado_105137" data-name="Trazado 105137" d="M195.063,210.351l-1.091.636a.231.231,0,0,0,0,.4l1.173.666a.424.424,0,0,0,.424,0l1.073-.637a.23.23,0,0,0,0-.4l-1.156-.664A.423.423,0,0,0,195.063,210.351Z" transform="translate(-193.857 -210.294)" fill="#1565c0"/>
        </g>
        <g id="Grupo_56428" data-name="Grupo 56428" transform="translate(4.84 3.082)">
          <path id="Trazado_105138" data-name="Trazado 105138" d="M235.8,229.666l-1.091.636a.231.231,0,0,0,0,.4l1.173.666a.422.422,0,0,0,.424,0l1.073-.637a.23.23,0,0,0,0-.4l-1.156-.664A.421.421,0,0,0,235.8,229.666Z" transform="translate(-205.557 -213.153)" fill="#1565c0"/>
          <path id="Trazado_105139" data-name="Trazado 105139" d="M232.669,227.89l-1.091.636a.231.231,0,0,0,0,.4l1.173.666a.424.424,0,0,0,.424,0l1.073-.637a.23.23,0,0,0,0-.4l-1.155-.664A.425.425,0,0,0,232.669,227.89Z" transform="translate(-204.844 -212.748)" fill="#1565c0"/>
          <path id="Trazado_105140" data-name="Trazado 105140" d="M229.536,226.114l-1.092.636a.232.232,0,0,0,0,.4l1.174.666a.421.421,0,0,0,.423,0l1.073-.638a.23.23,0,0,0,0-.4l-1.155-.663A.421.421,0,0,0,229.536,226.114Z" transform="translate(-204.13 -212.344)" fill="#1565c0"/>
          <path id="Trazado_105141" data-name="Trazado 105141" d="M226.4,224.338l-1.092.636a.232.232,0,0,0,0,.4l1.174.666a.421.421,0,0,0,.423,0l1.073-.637a.231.231,0,0,0,0-.4l-1.156-.663A.421.421,0,0,0,226.4,224.338Z" transform="translate(-203.416 -211.939)" fill="#1565c0"/>
          <path id="Trazado_105142" data-name="Trazado 105142" d="M223.268,222.563l-1.091.636a.23.23,0,0,0,0,.4l1.173.666a.421.421,0,0,0,.423,0l1.073-.637a.231.231,0,0,0,0-.4l-1.156-.663A.419.419,0,0,0,223.268,222.563Z" transform="translate(-202.702 -211.535)" fill="#1565c0"/>
          <path id="Trazado_105143" data-name="Trazado 105143" d="M220.134,220.787l-1.091.636a.23.23,0,0,0,0,.4l1.173.666a.422.422,0,0,0,.424,0l1.073-.637a.232.232,0,0,0,0-.4l-1.156-.663A.421.421,0,0,0,220.134,220.787Z" transform="translate(-201.988 -211.13)" fill="#1565c0"/>
          <path id="Trazado_105144" data-name="Trazado 105144" d="M217,219.011l-1.091.636a.231.231,0,0,0,0,.4l1.173.666a.423.423,0,0,0,.424,0l1.073-.637a.231.231,0,0,0,0-.4l-1.156-.663A.421.421,0,0,0,217,219.011Z" transform="translate(-201.274 -210.726)" fill="#1565c0"/>
          <path id="Trazado_105145" data-name="Trazado 105145" d="M213.866,217.235l-1.091.636a.231.231,0,0,0,0,.4l1.173.666a.424.424,0,0,0,.424,0l1.073-.637a.23.23,0,0,0,0-.4l-1.156-.664A.423.423,0,0,0,213.866,217.235Z" transform="translate(-200.56 -210.321)" fill="#1565c0"/>
          <path id="Trazado_105146" data-name="Trazado 105146" d="M210.732,215.459l-1.091.636a.232.232,0,0,0,0,.4l1.173.666a.422.422,0,0,0,.424,0l1.073-.637a.23.23,0,0,0,0-.4l-1.155-.664A.425.425,0,0,0,210.732,215.459Z" transform="translate(-199.847 -209.917)" fill="#1565c0"/>
          <path id="Trazado_105147" data-name="Trazado 105147" d="M207.6,213.683l-1.092.636a.232.232,0,0,0,0,.4l1.174.666a.421.421,0,0,0,.423,0l1.073-.638a.23.23,0,0,0,0-.4l-1.155-.663A.421.421,0,0,0,207.6,213.683Z" transform="translate(-199.133 -209.512)" fill="#1565c0"/>
          <path id="Trazado_105148" data-name="Trazado 105148" d="M204.465,211.908l-1.092.636a.232.232,0,0,0,0,.4l1.174.666a.421.421,0,0,0,.423,0l1.073-.638a.231.231,0,0,0,0-.4l-1.156-.663A.419.419,0,0,0,204.465,211.908Z" transform="translate(-198.419 -209.108)" fill="#1565c0"/>
          <path id="Trazado_105149" data-name="Trazado 105149" d="M201.331,210.132l-1.091.636a.231.231,0,0,0,0,.4l1.173.666a.421.421,0,0,0,.423,0l1.073-.637a.231.231,0,0,0,0-.4l-1.156-.663A.42.42,0,0,0,201.331,210.132Z" transform="translate(-197.705 -208.703)" fill="#1565c0"/>
          <path id="Trazado_105150" data-name="Trazado 105150" d="M198.2,208.356l-1.091.636a.23.23,0,0,0,0,.4l1.173.666a.422.422,0,0,0,.424,0l1.073-.637a.232.232,0,0,0,0-.4l-1.156-.663A.421.421,0,0,0,198.2,208.356Z" transform="translate(-196.991 -208.298)" fill="#1565c0"/>
        </g>
        <g id="Grupo_56429" data-name="Grupo 56429" transform="translate(7.26 1.541)">
          <path id="Trazado_105151" data-name="Trazado 105151" d="M238.937,227.671l-1.091.636a.231.231,0,0,0,0,.4l1.173.666a.422.422,0,0,0,.424,0l1.073-.637a.231.231,0,0,0,0-.4l-1.156-.663A.419.419,0,0,0,238.937,227.671Z" transform="translate(-208.691 -211.157)" fill="#1565c0"/>
          <path id="Trazado_105152" data-name="Trazado 105152" d="M235.8,225.9l-1.091.636a.231.231,0,0,0,0,.4l1.173.666a.422.422,0,0,0,.424,0l1.073-.637a.231.231,0,0,0,0-.4l-1.156-.663A.421.421,0,0,0,235.8,225.9Z" transform="translate(-207.978 -210.753)" fill="#1565c0"/>
          <path id="Trazado_105153" data-name="Trazado 105153" d="M232.669,224.119l-1.091.636a.231.231,0,0,0,0,.4l1.173.666a.424.424,0,0,0,.424,0l1.073-.637a.23.23,0,0,0,0-.4l-1.155-.664A.425.425,0,0,0,232.669,224.119Z" transform="translate(-207.264 -210.348)" fill="#1565c0"/>
          <path id="Trazado_105154" data-name="Trazado 105154" d="M229.536,222.343l-1.092.636a.232.232,0,0,0,0,.4l1.174.666a.423.423,0,0,0,.423,0l1.073-.637a.23.23,0,0,0,0-.4l-1.155-.664A.423.423,0,0,0,229.536,222.343Z" transform="translate(-206.55 -209.944)" fill="#1565c0"/>
          <path id="Trazado_105155" data-name="Trazado 105155" d="M226.4,220.567l-1.092.636a.232.232,0,0,0,0,.4l1.174.666a.421.421,0,0,0,.423,0l1.073-.637a.231.231,0,0,0,0-.4l-1.156-.663A.421.421,0,0,0,226.4,220.567Z" transform="translate(-205.836 -209.539)" fill="#1565c0"/>
          <path id="Trazado_105156" data-name="Trazado 105156" d="M223.268,218.791l-1.091.636a.231.231,0,0,0,0,.4l1.173.666a.421.421,0,0,0,.423,0l1.073-.638a.231.231,0,0,0,0-.4l-1.156-.663A.421.421,0,0,0,223.268,218.791Z" transform="translate(-205.122 -209.135)" fill="#1565c0"/>
          <path id="Trazado_105157" data-name="Trazado 105157" d="M220.134,217.016l-1.091.636a.231.231,0,0,0,0,.4l1.173.666a.422.422,0,0,0,.424,0l1.073-.637a.232.232,0,0,0,0-.4l-1.156-.663A.42.42,0,0,0,220.134,217.016Z" transform="translate(-204.408 -208.73)" fill="#1565c0"/>
          <path id="Trazado_105158" data-name="Trazado 105158" d="M217,215.24l-1.091.636a.231.231,0,0,0,0,.4l1.173.666a.422.422,0,0,0,.424,0l1.073-.637a.231.231,0,0,0,0-.4l-1.156-.663A.421.421,0,0,0,217,215.24Z" transform="translate(-203.694 -208.326)" fill="#1565c0"/>
          <path id="Trazado_105159" data-name="Trazado 105159" d="M213.866,213.464l-1.091.636a.231.231,0,0,0,0,.4l1.173.666a.423.423,0,0,0,.424,0l1.073-.637a.231.231,0,0,0,0-.4l-1.156-.663A.421.421,0,0,0,213.866,213.464Z" transform="translate(-202.981 -207.921)" fill="#1565c0"/>
          <path id="Trazado_105160" data-name="Trazado 105160" d="M210.732,211.688l-1.091.636a.231.231,0,0,0,0,.4l1.173.666a.422.422,0,0,0,.424,0l1.073-.637a.23.23,0,0,0,0-.4l-1.155-.664A.423.423,0,0,0,210.732,211.688Z" transform="translate(-202.267 -207.517)" fill="#1565c0"/>
          <path id="Trazado_105161" data-name="Trazado 105161" d="M207.6,209.912l-1.092.636a.231.231,0,0,0,0,.4l1.174.666a.423.423,0,0,0,.423,0l1.073-.637a.23.23,0,0,0,0-.4l-1.155-.664A.423.423,0,0,0,207.6,209.912Z" transform="translate(-201.553 -207.112)" fill="#1565c0"/>
          <path id="Trazado_105162" data-name="Trazado 105162" d="M204.465,208.136l-1.092.636a.232.232,0,0,0,0,.4l1.174.666a.419.419,0,0,0,.423,0l1.073-.637a.231.231,0,0,0,0-.4l-1.156-.664A.423.423,0,0,0,204.465,208.136Z" transform="translate(-200.839 -206.708)" fill="#1565c0"/>
          <path id="Trazado_105163" data-name="Trazado 105163" d="M201.331,206.36,200.24,207a.231.231,0,0,0,0,.4l1.173.666a.421.421,0,0,0,.423,0l1.073-.637a.231.231,0,0,0,0-.4l-1.156-.663A.421.421,0,0,0,201.331,206.36Z" transform="translate(-200.125 -206.303)" fill="#1565c0"/>
        </g>
        <g id="Grupo_56430" data-name="Grupo 56430" transform="translate(9.68)">
          <path id="Trazado_105164" data-name="Trazado 105164" d="M242.071,225.675l-1.091.636a.231.231,0,0,0,0,.4l1.173.666a.421.421,0,0,0,.424,0l1.073-.637a.231.231,0,0,0,0-.4l-1.156-.663A.421.421,0,0,0,242.071,225.675Z" transform="translate(-211.825 -209.162)" fill="#1565c0"/>
          <path id="Trazado_105165" data-name="Trazado 105165" d="M238.937,223.9l-1.091.636a.231.231,0,0,0,0,.4l1.173.666a.422.422,0,0,0,.424,0l1.073-.637a.231.231,0,0,0,0-.4l-1.156-.663A.419.419,0,0,0,238.937,223.9Z" transform="translate(-211.111 -208.758)" fill="#1565c0"/>
          <path id="Trazado_105166" data-name="Trazado 105166" d="M235.8,222.124l-1.091.636a.231.231,0,0,0,0,.4l1.173.666a.422.422,0,0,0,.424,0l1.073-.637a.231.231,0,0,0,0-.4l-1.156-.663A.422.422,0,0,0,235.8,222.124Z" transform="translate(-210.397 -208.353)" fill="#1565c0"/>
          <path id="Trazado_105167" data-name="Trazado 105167" d="M216.568,211.419l-1.092.636a.231.231,0,0,0,0,.4l13.607,7.561a.422.422,0,0,0,.424,0l1.073-.637a.231.231,0,0,0,0-.4l-13.589-7.558A.419.419,0,0,0,216.568,211.419Z" transform="translate(-206.016 -205.915)" fill="#1565c0"/>
          <path id="Trazado_105168" data-name="Trazado 105168" d="M213.866,209.693l-1.091.636a.231.231,0,0,0,0,.4l1.173.666a.422.422,0,0,0,.424,0l1.073-.637a.231.231,0,0,0,0-.4l-1.156-.663A.419.419,0,0,0,213.866,209.693Z" transform="translate(-205.4 -205.521)" fill="#1565c0"/>
          <path id="Trazado_105169" data-name="Trazado 105169" d="M210.732,207.917l-1.091.636a.231.231,0,0,0,0,.4l1.173.666a.422.422,0,0,0,.424,0l1.073-.637a.231.231,0,0,0,0-.4l-1.155-.663A.423.423,0,0,0,210.732,207.917Z" transform="translate(-204.687 -205.117)" fill="#1565c0"/>
          <path id="Trazado_105170" data-name="Trazado 105170" d="M207.6,206.141l-1.092.636a.231.231,0,0,0,0,.4l1.174.666a.423.423,0,0,0,.423,0l1.073-.637a.23.23,0,0,0,0-.4l-1.155-.664A.423.423,0,0,0,207.6,206.141Z" transform="translate(-203.973 -204.712)" fill="#4b6ebc"/>
          <path id="Trazado_105171" data-name="Trazado 105171" d="M204.465,204.365l-1.092.636a.232.232,0,0,0,0,.4l1.174.666a.423.423,0,0,0,.423,0l1.073-.637a.231.231,0,0,0,0-.4l-1.156-.664A.423.423,0,0,0,204.465,204.365Z" transform="translate(-203.259 -204.308)" fill="#4b6ebc"/>
        </g>
      </g>
    </g>
    <g id="Grupo_56433" data-name="Grupo 56433" transform="translate(192.577 160.354)">
      <path id="Trazado_105172" data-name="Trazado 105172" d="M244.609,200.027l23.9,13.986-13.861,8.1-23.921-14.027Z" transform="translate(-226.409 -194.891)" fill="#a0ebff"/>
      <path id="Trazado_105173" data-name="Trazado 105173" d="M239.023,193.376l23.9,13.986-13.861,8.1-23.921-14.027Z" transform="translate(-225.136 -193.376)" fill="#039be5"/>
      <path id="Trazado_105174" data-name="Trazado 105174" d="M256.114,219.585l13.861-8.1v2.355l-13.862,8.284Z" transform="translate(-232.192 -197.501)" fill="#263364"/>
      <path id="Trazado_105175" data-name="Trazado 105175" d="M225.136,203.809l23.921,14.027v2.541l-23.92-14.139Z" transform="translate(-225.136 -195.752)" fill="#1565c0"/>
    </g>
    <g id="Grupo_56436" data-name="Grupo 56436" transform="translate(119.305 134.397)">
      <g id="Grupo_56435" data-name="Grupo 56435">
        <path id="Trazado_105176" data-name="Trazado 105176" d="M152.033,168.2l13.733,7.72a.6.6,0,0,1,.008,1.035l-16.825,9.829a1.442,1.442,0,0,1-1.438.011l-13.952-7.877Z" transform="translate(-131.004 -161.684)" fill="#a0ebff"/>
        <path id="Trazado_105177" data-name="Trazado 105177" d="M130.251,178.236l33.113-2.489v1.047l-18.439,10.773-14.674-8.284Z" transform="translate(-130.251 -163.403)" fill="#39ae96"/>
        <path id="Trazado_105178" data-name="Trazado 105178" d="M148.723,165.09l14.64,8.229-18.439,10.773-14.674-8.284Z" transform="translate(-130.251 -160.976)" fill="#13e275"/>
        <path id="Trazado_105179" data-name="Trazado 105179" d="M131.891,173.841l30.579-2.464v3.472L145.442,184.8l-13.551-7.65Z" transform="translate(-130.624 -162.408)" fill="#a0ebff"/>
        <path id="Trazado_105180" data-name="Trazado 105180" d="M145.466,173.152l-13.574,1.094v3.306l13.551,7.65.024-.014Z" transform="translate(-130.624 -162.812)" fill="#fff"/>
        <path id="Trazado_105181" data-name="Trazado 105181" d="M131.385,178.344l.732-.4v-3.9l-.732.494Z" transform="translate(-130.509 -163.016)" fill="#297f58"/>
        <g id="Grupo_56434" data-name="Grupo 56434">
          <path id="Trazado_105182" data-name="Trazado 105182" d="M130.251,172.908l33.113-2.489v1.047l-18.439,10.773-14.674-8.284Z" transform="translate(-130.251 -162.189)" fill="#39ae96"/>
          <path id="Trazado_105183" data-name="Trazado 105183" d="M148.723,159.762l14.64,8.229-18.439,10.773-14.674-8.284Z" transform="translate(-130.251 -159.762)" fill="#26a69a"/>
        </g>
        <path id="Trazado_105184" data-name="Trazado 105184" d="M131.127,178.751h-.876v-4.683l.876.478Z" transform="translate(-130.251 -163.021)" fill="#39ae96"/>
      </g>
    </g>
    <g id="Grupo_56437" data-name="Grupo 56437" transform="translate(222.651 161.556)">
      <path id="Trazado_105185" data-name="Trazado 105185" d="M265.047,204.769l-.965-1.517,12.068-7.671a4.1,4.1,0,0,1,6.3,3.46v2.772l-1.8-1.027V199.04a2.3,2.3,0,0,0-3.536-1.942Z" transform="translate(-264.082 -194.932)" fill="#263364"/>
    </g>
    <g id="Grupo_56438" data-name="Grupo 56438" transform="translate(229.464 166.095)">
      <path id="Trazado_105186" data-name="Trazado 105186" d="M273.386,209.817l-.482-.759,12.068-7.671a3.65,3.65,0,0,1,5.609,3.08v2.183l-.9-.514v-1.669a2.751,2.751,0,0,0-4.226-2.322Z" transform="translate(-272.904 -200.809)" fill="#4b6ebc"/>
    </g>
    <g id="Grupo_56441" data-name="Grupo 56441" transform="translate(210.896 174.051)">
      <g id="Grupo_56439" data-name="Grupo 56439" transform="translate(11.36)">
        <path id="Trazado_105187" data-name="Trazado 105187" d="M264.034,231.542l-.464-.77L295.546,211.5a2.673,2.673,0,0,1,4.052,2.289v1.087l-.9-.513v-.574a1.772,1.772,0,0,0-2.688-1.519Z" transform="translate(-263.57 -211.112)" fill="#4b6ebc"/>
      </g>
      <g id="Grupo_56440" data-name="Grupo 56440" transform="translate(0 18.191)">
        <path id="Trazado_105188" data-name="Trazado 105188" d="M261.3,235.74l2.583,1.473c-4.626.688-7.991,2.612-10.012,5.85l-5.016-2.879a12.4,12.4,0,0,1,5.825-5.019A7.718,7.718,0,0,1,261.3,235.74Z" transform="translate(-248.859 -234.669)" fill="#557dd6"/>
        <path id="Trazado_105189" data-name="Trazado 105189" d="M255.354,243.814c1.605-4.09,5.248-5.663,10.012-5.85v1.7l-8.438,5.042a1.04,1.04,0,0,1-1.574-.893Z" transform="translate(-250.339 -235.42)" fill="#263364"/>
        <path id="Trazado_105190" data-name="Trazado 105190" d="M248.859,241.811l5.015,2.879v1.835l-5.014-2.96Z" transform="translate(-248.859 -236.296)" fill="#4b6ebc"/>
      </g>
    </g>
    <g id="Grupo_56444" data-name="Grupo 56444" transform="translate(183.605 102.739)">
      <g id="Grupo_56442" data-name="Grupo 56442" transform="translate(20.933 51.226)">
        <path id="Trazado_105191" data-name="Trazado 105191" d="M245.719,185.1l8.767,5.131L249.4,193.2l-8.777-5.146Z" transform="translate(-240.625 -185.102)" fill="#1565c0"/>
        <path id="Trazado_105192" data-name="Trazado 105192" d="M254.016,194.061l-2.026,1.184v13.622l2.027-1.184Z" transform="translate(-243.213 -187.142)" fill="#00104e" opacity="0.536"/>
        <path id="Trazado_105193" data-name="Trazado 105193" d="M240.625,188.93l8.777,5.146V207.7l-8.776-5.149Z" transform="translate(-240.625 -185.974)" fill="#1565c0"/>
        <path id="Trazado_105194" data-name="Trazado 105194" d="M240.625,188.93l8.777,5.146v8.863l-8.776-5.149Z" transform="translate(-240.625 -185.974)" fill="#00104e" opacity="0.595"/>
      </g>
      <path id="Trazado_105195" data-name="Trazado 105195" d="M262.434,148.751l-48.917-28.2v48.262l48.917,27.949Z" transform="translate(-213.517 -119.173)" fill="#1565c0"/>
      <path id="Trazado_105196" data-name="Trazado 105196" d="M260.042,152.073l-42.13-24.285v39.128l42.13,24.071Z" transform="translate(-214.518 -120.82)" fill="#00104e"/>
      <path id="Trazado_105197" data-name="Trazado 105197" d="M234.054,143.105l-6.884-3.968v3.076l6.884,3.933Z" transform="translate(-216.627 -123.405)" fill="#e16450"/>
      <path id="Trazado_105198" data-name="Trazado 105198" d="M240.273,146.69l-2.625-1.513v3.035l2.625,1.5Z" transform="translate(-219.014 -124.781)" fill="#05cdff"/>
      <path id="Trazado_105199" data-name="Trazado 105199" d="M242.753,162.09l-5.436-3.133v3.036l5.436,3.106Z" transform="translate(-218.939 -127.92)" fill="#e16450"/>
      <path id="Trazado_105200" data-name="Trazado 105200" d="M232.267,163.031l-3.221-1.857v3.069l3.221,1.84Z" transform="translate(-217.054 -128.425)" fill="#e16450"/>
      <path id="Trazado_105201" data-name="Trazado 105201" d="M239.45,167.171l-4.669-2.691v3.046l4.669,2.668Z" transform="translate(-218.361 -129.178)" fill="#05cdff"/>
      <path id="Trazado_105202" data-name="Trazado 105202" d="M260.149,179.1v2.947l6.542,3.738V183.03a.554.554,0,0,1,.029-.139Z" transform="translate(-224.139 -132.509)" fill="#e16450"/>
      <path id="Trazado_105203" data-name="Trazado 105203" d="M250.772,180.683l-1.433-.826v2.989l1.433.819Z" transform="translate(-221.677 -132.681)" fill="#05cdff"/>
      <g id="Grupo_56443" data-name="Grupo 56443" transform="translate(6.114 13.179)">
        <path id="Trazado_105204" data-name="Trazado 105204" d="M224.656,137.688l-3.221-1.857v3.1l3.221,1.84Z" transform="translate(-221.435 -135.831)" fill="#55c7a6"/>
        <path id="Trazado_105205" data-name="Trazado 105205" d="M265.641,161.313l-2.625-1.513v2.935l2.625,1.5Z" transform="translate(-230.907 -141.291)" fill="#55c7a6"/>
        <path id="Trazado_105206" data-name="Trazado 105206" d="M259.7,157.887l-5.947-3.428v2.972l5.947,3.4Z" transform="translate(-228.796 -140.074)" fill="#55c7a6"/>
        <path id="Trazado_105207" data-name="Trazado 105207" d="M250.006,152.3l-7.395-4.262v3.016l7.395,4.225Z" transform="translate(-226.259 -138.612)" fill="#55c7a6"/>
        <path id="Trazado_105208" data-name="Trazado 105208" d="M229.852,147.668l-8.417-4.852v3.1l8.417,4.809Z" transform="translate(-221.435 -137.422)" fill="#55c7a6"/>
        <path id="Trazado_105209" data-name="Trazado 105209" d="M240.7,153.919,233.9,150v3.05l6.8,3.884Z" transform="translate(-224.274 -139.059)" fill="#55c7a6"/>
        <path id="Trazado_105210" data-name="Trazado 105210" d="M247.828,158.03l-3.562-2.053v3.009l3.562,2.035Z" transform="translate(-226.636 -140.42)" fill="#55c7a6"/>
        <path id="Trazado_105211" data-name="Trazado 105211" d="M253.408,161.247l-2.966-1.71v2.985l2.966,1.694Z" transform="translate(-228.043 -141.231)" fill="#55c7a6"/>
        <path id="Trazado_105212" data-name="Trazado 105212" d="M233.773,156.914l-6.713-3.87v3.076l6.713,3.836Z" transform="translate(-222.716 -139.752)" fill="#55c7a6"/>
        <path id="Trazado_105213" data-name="Trazado 105213" d="M248.12,165.183l-2.2-1.268v3l2.2,1.257Z" transform="translate(-227.012 -142.229)" fill="#55c7a6"/>
        <path id="Trazado_105214" data-name="Trazado 105214" d="M256.693,170.126l-1.177-.678v2.965l1.177.673Z" transform="translate(-229.198 -143.488)" fill="#55c7a6"/>
        <path id="Trazado_105215" data-name="Trazado 105215" d="M253.128,168.07l-2.8-1.611v2.985l2.8,1.6Z" transform="translate(-228.017 -142.808)" fill="#55c7a6"/>
        <path id="Trazado_105216" data-name="Trazado 105216" d="M224.571,151.61l-3.136-1.808v3.1l3.136,1.792Z" transform="translate(-221.435 -139.014)" fill="#55c7a6"/>
        <path id="Trazado_105217" data-name="Trazado 105217" d="M248.593,172.442l-6.2-3.575v3.016l6.2,3.544Z" transform="translate(-226.209 -143.356)" fill="#55c7a6"/>
        <path id="Trazado_105218" data-name="Trazado 105218" d="M257.082,177.335l-5.1-2.937v2.979l5.1,2.911Z" transform="translate(-228.394 -144.616)" fill="#55c7a6"/>
        <path id="Trazado_105219" data-name="Trazado 105219" d="M226.1,159.479l-4.669-2.691v3.1l4.669,2.668Z" transform="translate(-221.435 -140.605)" fill="#55c7a6"/>
        <path id="Trazado_105220" data-name="Trazado 105220" d="M223.8,165.138l-2.37-1.366v3.1l2.37,1.354Z" transform="translate(-221.435 -142.196)" fill="#55c7a6"/>
        <path id="Trazado_105221" data-name="Trazado 105221" d="M233.547,170.754l-7.48-4.312v3.08l7.48,4.274Z" transform="translate(-222.49 -142.804)" fill="#55c7a6"/>
        <path id="Trazado_105222" data-name="Trazado 105222" d="M241.476,175.324l-4.158-2.4v3.036l4.158,2.376Z" transform="translate(-225.053 -144.281)" fill="#55c7a6"/>
        <path id="Trazado_105223" data-name="Trazado 105223" d="M246.976,178.5l-2.71-1.562v3.009l2.71,1.548Z" transform="translate(-226.636 -145.194)" fill="#55c7a6"/>
        <path id="Trazado_105224" data-name="Trazado 105224" d="M226.275,173.547l-4.84-2.79v3.1l4.84,2.765Z" transform="translate(-221.435 -143.787)" fill="#55c7a6"/>
      </g>
      <path id="Trazado_105225" data-name="Trazado 105225" d="M232.147,176.932l-2.881-1.66v3.068l2.881,1.646Z" transform="translate(-217.105 -131.636)" fill="#e16450"/>
      <path id="Trazado_105226" data-name="Trazado 105226" d="M239.144,180.966l-4.584-2.642v3.047l4.584,2.619Z" transform="translate(-218.31 -132.332)" fill="#05cdff"/>
      <path id="Trazado_105227" data-name="Trazado 105227" d="M276.864,156.606l2.075-1.569V203.3l-2.075,1.32Z" transform="translate(-227.947 -127.027)" fill="#039be5"/>
      <path id="Trazado_105228" data-name="Trazado 105228" d="M262.434,148.344l2.075-1.569-48.638-28.01-2.354,1.382Z" transform="translate(-213.517 -118.765)" fill="#4dd0e1"/>
    </g>
    <path id="Trazado_105229" data-name="Trazado 105229" d="M203.654,346.941c-1.107-.744-1.222-2.195-.6-4.172a7.3,7.3,0,0,1,2.306-3.4,4.8,4.8,0,0,0,1.133-1.389c-.075-10.453,6.677-42.929,6.677-42.929s14.509-13.111,16.4-8.375c5.145,12.912-3.867,32.81-6.1,40.769-1.25,4.452-3.214,10.186-5,15.169a11.982,11.982,0,0,0-.683,4.2,58.341,58.341,0,0,1-1.493,11.432Z" transform="translate(-27.444 -54.039)" fill="#2c313f"/>
    <g id="Grupo_56445" data-name="Grupo 56445" transform="translate(175.841 292.003)">
      <path id="Trazado_105230" data-name="Trazado 105230" d="M203.871,364.791h0a7.812,7.812,0,0,0,2.056,8.185l1.476,1.387a4.263,4.263,0,0,1,1.015,4.505c-2.7,6.283,5.759,12.957,8.844,10.09,5.062-4.7-2.605-18.922-2.605-18.922C211.334,365.338,207.867,362.2,203.871,364.791Z" transform="translate(-203.463 -363.859)" fill="#bc723f"/>
      <path id="Trazado_105231" data-name="Trazado 105231" d="M203.871,365.066h0a7.812,7.812,0,0,0,2.056,8.185l1.476,1.387a4.263,4.263,0,0,1,1.015,4.505c-2.7,6.283,5.377,12.48,8.844,10.09,2.514-1.733-2.731-13.339-7.524-19.907A10.809,10.809,0,0,0,203.871,365.066Z" transform="translate(-203.463 -364.134)" fill="#965224"/>
    </g>
    <g id="Grupo_56446" data-name="Grupo 56446" transform="translate(143.301 224.73)">
      <path id="Trazado_105232" data-name="Trazado 105232" d="M162,335.785c-.828-1.436-.986-3.282.061-5.866l1.542-2.6.714-40.143s10.682-13.7,12.9-9.707c6.056,10.9,1.04,30.01-.037,37.346-1.351,9.193-5.146,24.512-5.146,24.512Z" transform="translate(-161.325 -276.741)" fill="#2c313f"/>
      <path id="Trazado_105233" data-name="Trazado 105233" d="M161.935,351.221h0a7.006,7.006,0,0,0,2.767,7.046l1.473,1.065a3.824,3.824,0,0,1,1.418,3.891c-1.681,5.9,6.607,10.868,9.023,7.965,3.965-4.765-4.484-16.535-4.484-16.535C168.9,351.249,165.575,349.022,161.935,351.221Z" transform="translate(-161.434 -293.507)" fill="#bc723f"/>
      <path id="Trazado_105234" data-name="Trazado 105234" d="M161.935,351.447h0a7.006,7.006,0,0,0,2.767,7.046l1.473,1.065a3.824,3.824,0,0,1,1.418,3.891c-1.681,5.9,6.212,10.488,9.023,7.965,2.176-1.955-4.491-13.13-9.543-18.373A5.586,5.586,0,0,0,161.935,351.447Z" transform="translate(-161.434 -293.732)" fill="#965224"/>
    </g>
    <g id="Grupo_56448" data-name="Grupo 56448" transform="translate(127.36 229.618)">
      <path id="Trazado_105235" data-name="Trazado 105235" d="M181.807,367.8h.018v-48.64h-9.554V367.8h.024c0,.04-.024.078-.024.118,0,1.3,2.14,2.349,4.78,2.349s4.781-1.052,4.781-2.349A1.07,1.07,0,0,0,181.807,367.8Z" transform="translate(-147.877 -291.29)" fill="#1565c0"/>
      <path id="Trazado_105236" data-name="Trazado 105236" d="M181.807,349.551h.018v-27.3h-9.554v27.3h.024c0,.039-.024.077-.024.117,0,1.3,2.14,2.349,4.78,2.349s4.781-1.052,4.781-2.349A1.02,1.02,0,0,0,181.807,349.551Z" transform="translate(-147.877 -291.996)" fill="#4dd0e1"/>
      <path id="Trazado_105237" data-name="Trazado 105237" d="M181.825,330.075V313.706h-9.554v16.369h.024c0,.04-.024.078-.024.118,0,1.3,2.14,2.349,4.78,2.349s4.781-1.052,4.781-2.349a1.072,1.072,0,0,0-.025-.118Z" transform="translate(-147.877 -290.049)" fill="#039be5"/>
      <g id="Grupo_56447" data-name="Grupo 56447" transform="translate(0)">
        <path id="Trazado_105238" data-name="Trazado 105238" d="M140.681,301.632v5.486c0,7.917,13.062,14.334,29.174,14.334s29.174-6.417,29.174-14.334v-5.486Z" transform="translate(-140.681 -287.299)" fill="#1565c0"/>
        <ellipse id="Elipse_4060" data-name="Elipse 4060" cx="29.174" cy="14.334" rx="29.174" ry="14.334" transform="translate(0)" fill="#039be5"/>
      </g>
    </g>
    <g id="Grupo_56458" data-name="Grupo 56458" transform="translate(133.899 117.607)">
      <path id="Trazado_105239" data-name="Trazado 105239" d="M200.088,157.78l2.9,1.359s0,4.531-1.632,5.89c-.849.708-4.168.181-4.44-.725S200.088,157.78,200.088,157.78Z" transform="translate(-160.026 -142.521)" fill="none" stroke="#263364" stroke-miterlimit="10" stroke-width="1.746"/>
      <path id="Trazado_105240" data-name="Trazado 105240" d="M151.894,278.976s-2.2,9.193-.846,13.246c1.994,5.97,17.641,10.884,25.824,10.889,13.27.008,33.934-7.513,33.934-7.513s12.048-4.612,6.009-14.343c-1.15-1.853-6.016-3.714-8.951-4.178-2.992-.473-11.709.84-13.572.124l-8.337-7.68Z" transform="translate(-149.481 -167.974)" fill="#2c313f"/>
      <g id="Grupo_56449" data-name="Grupo 56449" transform="translate(0 32.537)">
        <path id="Trazado_105241" data-name="Trazado 105241" d="M170.432,180.88c18.167,4.894,23.15,15.505,23.15,15.505,2.086,27.861,1.266,46.626.888,62.287a5.163,5.163,0,0,1-2.942,4.507c-3.349,1.6-9.387,3.989-16.336,3.155a41.053,41.053,0,0,1-21.561-9.206,12.623,12.623,0,0,1-4.223-8.629c-.27-9.531-.906-30.05,1.876-52.4C151.284,192.639,154.468,176.58,170.432,180.88Z" transform="translate(-149.149 -180.154)" fill="#ffca28"/>
      </g>
      <path id="Trazado_105242" data-name="Trazado 105242" d="M197.388,248.251c-8.1-10.125-9.158-32.68-8.874-36.936.321-4.826,3.422-9.229,8.193-8.443a6.523,6.523,0,0,1,5.412,5.631l1.222,3.912c.58,13.811.564,26.331.4,36.846a50.113,50.113,0,0,1-6.328-.988" transform="translate(-158.107 -152.771)" fill="#ffa726"/>
      <g id="Grupo_56453" data-name="Grupo 56453" transform="translate(31.026 46.201)">
        <g id="Grupo_56451" data-name="Grupo 56451" transform="translate(9.635 27.953)">
          <g id="Grupo_56450" data-name="Grupo 56450">
            <path id="Trazado_105243" data-name="Trazado 105243" d="M251.872,235.851s5.025-2.345,6.455-1.686c.975.449-3.75,2.594-3.75,2.594Z" transform="translate(-213.209 -234.048)" fill="#ecdecc"/>
            <path id="Trazado_105244" data-name="Trazado 105244" d="M242.874,243.249c2.808-.363,5.775-6.307,6.762-6.9,2.137-1.289,8.969.442,9.694,1.126s-.556,2.834-.966,3.269-1.307,2.772-2.58,3.318c-1.036.443-10.476,3.269-10.476,3.269Z" transform="translate(-211.159 -234.465)" fill="#f3e0c8"/>
            <path id="Trazado_105245" data-name="Trazado 105245" d="M205.716,245.223s25.831.554,30.546-1.015l.65,4.779s-15.658,8.141-33.76,5.3Z" transform="translate(-202.111 -236.362)" fill="#ffca28"/>
            <path id="Trazado_105246" data-name="Trazado 105246" d="M211.194,243.719c4.756-2.156,16.4,1.167,22.426.28,1.637,1.828,2.721,4.362,1.483,6.5,0,0-12.668,8.01-33.3,4.767Z" transform="translate(-201.804 -236.082)" fill="#ffca28"/>
          </g>
        </g>
        <g id="Grupo_56452" data-name="Grupo 56452">
          <path id="Trazado_105247" data-name="Trazado 105247" d="M208.909,233.792c.795-8.076-1.993-19.727-5.573-31.309-.54-2.839-2.893-4.287-5.769-4.573-4.812-.48-5.278,1.9-7.441,6.224-3.609,7.218,6.024,40.6,8.759,40.656C204,245.234,209.132,236,208.909,233.792Z" transform="translate(-189.326 -197.849)" fill="#ffca28"/>
        </g>
      </g>
      <g id="Grupo_56457" data-name="Grupo 56457" transform="translate(13.881)">
        <g id="Grupo_56455" data-name="Grupo 56455" transform="translate(4.851 20.476)">
          <g id="Grupo_56454" data-name="Grupo 56454">
            <path id="Trazado_105248" data-name="Trazado 105248" d="M175.432,184.962c3.492,2.15,6.823,1.666,10.06-.369a3.526,3.526,0,0,0,1.641-2.985V164.535l-13.725,3.044v13.583A4.445,4.445,0,0,0,175.432,184.962Z" transform="translate(-173.407 -164.535)" fill="#edcdab"/>
          </g>
        </g>
        <path id="Trazado_105249" data-name="Trazado 105249" d="M194.946,159.336c0,8.448-1.514,14.192-6.534,14.4-4.889.2-2.541-9.819-6.078-12.8-.775-.654-6.193.2-7.019-.451-3.2-2.522-.856-17.209,6.245-17.209,4.439,0,10.271.553,12.647,4.3C195.12,149.015,194.946,158.2,194.946,159.336Z" transform="translate(-168.671 -139.217)" fill="#fce3c3"/>
        <path id="Trazado_105250" data-name="Trazado 105250" d="M195.218,172.261c-2.4-.332-2.639-8.941-1.224-14.026-.388.241-1.13,3.791-1.5,4.062-1.526,4.887-5.082,16.444-.263,16.242,3.192-.134,6.084-3.246,5.641-7.706C197.018,171.642,196.483,172.436,195.218,172.261Z" transform="translate(-172.288 -142.624)" fill="#263364"/>
        <path id="Trazado_105251" data-name="Trazado 105251" d="M189.287,140.7c1.217.463,2.112-2.751,4.607-1.316,6,3.455-1.988,12.254-3.981,13.251s-2.282,6.833-2.128,8.442a8.17,8.17,0,0,1-.735-1.736c-.739-1.878-3.421-4.483-3.727-1.648s-1.459,2.714-2.379,4.629-5.848,5.1-9.747,2.173c1.383-7.1-8.219-11-1.891-20.541C171.732,140.3,178.592,134.612,189.287,140.7Z" transform="translate(-167.125 -138.019)" fill="#263364"/>
        <g id="Grupo_56456" data-name="Grupo 56456" transform="translate(13.879 16.391)">
          <path id="Trazado_105252" data-name="Trazado 105252" d="M190.507,165.307c-.158,2.423-.761,4.405-2.331,4.3s-3.225-3.446-3.066-5.87.691-3.274,2.263-3.171S190.665,162.884,190.507,165.307Z" transform="translate(-185.098 -159.545)" fill="#edcdab"/>
          <path id="Trazado_105253" data-name="Trazado 105253" d="M191.057,163.991c-.158,2.423-.761,4.405-2.332,4.3s-3.671-3.147-3.513-5.571,1.138-3.574,2.709-3.471S191.216,161.567,191.057,163.991Z" transform="translate(-185.122 -159.246)" fill="#fce3c3"/>
        </g>
      </g>
      <path id="Trazado_105254" data-name="Trazado 105254" d="M187.2,190.751s-8.636,1.317-11.385,6.96c-2.11,4.332-5.9,13.385-14.18,12.444s-8.167-14.749-6.286-20.77c2.24-7.17,13.582-8.909,13.582-8.909s-.192,4.956,3.165,5.877c3.827,1.051,10.213-1.246,10.213-1.246S187.2,185.859,187.2,190.751Z" transform="translate(-150.322 -147.691)" fill="#ffa726"/>
      <path id="Trazado_105255" data-name="Trazado 105255" d="M187.248,190.751s-8.918,2.233-11.929,6-4.569,11.623-12.848,10.683-8.955-12.024-7.073-18.045c2.24-7.17,13.582-8.909,13.582-8.909s-.192,4.956,3.165,5.877c3.827,1.051,10.213-1.246,10.213-1.246S187.248,185.859,187.248,190.751Z" transform="translate(-150.374 -147.691)" fill="#ffca28"/>
      <path id="Trazado_105256" data-name="Trazado 105256" d="M171.961,191.021c-3.941,3.136-9.562,2.3-10.574-.517-1.578-4.392,6.05-8.4,9.131-8.965.108,1.448.639,4.37,3.139,5.056a19.273,19.273,0,0,0,5.346.024C175.865,187.615,173.836,189.528,171.961,191.021Z" transform="translate(-151.888 -147.933)" fill="#ffa726"/>
      <line id="Línea_137" data-name="Línea 137" x1="10.204" y1="0.475" transform="translate(33.079 16.725)" fill="none" stroke="#263364" stroke-miterlimit="10" stroke-width="2.444"/>
    </g>
    <g id="Grupo_56459" data-name="Grupo 56459" transform="translate(118.19 174.758)">
      <path id="Trazado_105257" data-name="Trazado 105257" d="M167.261,226.424C161.5,222.732,142.1,212.26,142.1,212.26c-5.5-1.334-12.369,3.236-12.442,9.575-.11,9.6,4.24,31.2,4.24,31.2a14.912,14.912,0,0,0,7.04,12.213c7.05,4.381,13.525,11.189,22.161,15.253,5.1,2.4,12.34-3.459,12.34-9.1V241.045C175.439,232.4,174.544,231.089,167.261,226.424Z" transform="translate(-129 -212.028)" fill="#039be5"/>
      <path id="Trazado_105258" data-name="Trazado 105258" d="M163.157,229.458C157.392,225.765,138,215.294,138,215.294c-5.5-1.334-9.108,2.769-9.181,9.109-.11,9.6.979,31.668.979,31.668a14.911,14.911,0,0,0,7.04,12.213,230.5,230.5,0,0,0,23.526,13.091,7.685,7.685,0,0,0,10.975-6.938V244.078C171.335,235.43,170.439,234.122,163.157,229.458Z" transform="translate(-128.807 -212.715)" fill="#1565c0"/>
    </g>
    <path id="Trazado_105259" data-name="Trazado 105259" d="M152.611,366.126h0L196.2,391.07h0a13.186,13.186,0,0,0-6.637-11.444l-30.318-17.349A4.435,4.435,0,0,0,152.611,366.126Z" transform="translate(-16.039 -71.36)" fill="#1565c0"/>
    <path id="Trazado_105260" data-name="Trazado 105260" d="M147.907,391.213h0a13.186,13.186,0,0,1,6.637-11.444l30.319-17.349a4.435,4.435,0,0,1,6.636,3.849h0Z" transform="translate(-14.967 -71.393)" fill="#1565c0"/>
    <g id="Grupo_56462" data-name="Grupo 56462" transform="translate(261.08 156.719)">
      <g id="Grupo_56461" data-name="Grupo 56461" transform="translate(0.041 23.852)">
        <g id="Grupo_56460" data-name="Grupo 56460">
          <ellipse id="Elipse_4061" data-name="Elipse 4061" cx="10.458" cy="5.138" rx="10.458" ry="5.138" transform="translate(3.449 13.361)" fill="#a0ebff"/>
          <path id="Trazado_105261" data-name="Trazado 105261" d="M336.737,226.821H313.9l3.544,12.32h.027c.278,2.013,3.68,3.6,7.848,3.6s7.57-1.592,7.848-3.6h.028Z" transform="translate(-313.899 -221.211)" fill="#1565c0"/>
          <ellipse id="Elipse_4062" data-name="Elipse 4062" cx="11.419" cy="5.61" rx="11.419" ry="5.61" fill="#039be5"/>
          <path id="Trazado_105262" data-name="Trazado 105262" d="M335.385,225.628c0,2.234-4.254,4.045-9.5,4.045s-9.5-1.811-9.5-4.045,4.254-4.045,9.5-4.045S335.385,223.394,335.385,225.628Z" transform="translate(-314.464 -220.018)" fill="#d89d4e"/>
        </g>
      </g>
      <path id="Trazado_105263" data-name="Trazado 105263" d="M325.629,219.558s-13.988-12.831-4.816-30.89C320.813,188.668,339.407,202.864,325.629,219.558Z" transform="translate(-314.723 -188.668)" fill="#ffca28"/>
      <path id="Trazado_105264" data-name="Trazado 105264" d="M327.956,221.889S326.484,203.63,340.53,198.9C340.53,198.9,350.161,215.9,327.956,221.889Z" transform="translate(-317.05 -190.999)" fill="#26a69a"/>
      <path id="Trazado_105265" data-name="Trazado 105265" d="M313.887,207.781s-1.308,13.616,10.865,16.131C324.752,223.912,324.692,212.41,313.887,207.781Z" transform="translate(-313.846 -193.022)" fill="#26a69a"/>
    </g>
    <g id="Grupo_56472" data-name="Grupo 56472" transform="translate(141.293 48.41)">
      <g id="Grupo_56463" data-name="Grupo 56463" transform="translate(0)">
        <path id="Trazado_105266" data-name="Trazado 105266" d="M193.553,69.76l-9.792-5.644L158.725,49.684V87.117l34.828,19.9Z" transform="translate(-158.725 -48.7)" fill="#1565c0"/>
        <path id="Trazado_105267" data-name="Trazado 105267" d="M203.827,75.352l1.477-1.117v37.433l-1.477.94Z" transform="translate(-168.998 -54.292)" fill="#039be5"/>
        <path id="Trazado_105268" data-name="Trazado 105268" d="M193.553,69.469l1.477-1.117-8.247-4.75L160.4,48.41l-1.676.984Z" transform="translate(-158.725 -48.41)" fill="#039be5"/>
      </g>
      <g id="Grupo_56471" data-name="Grupo 56471" transform="translate(6.366 16.822)">
        <g id="Grupo_56470" data-name="Grupo 56470">
          <g id="Grupo_56469" data-name="Grupo 56469" style="isolation: isolate">
            <g id="Grupo_56468" data-name="Grupo 56468" clip-path="url(#clip-path)">
              <g id="Grupo_56467" data-name="Grupo 56467" transform="translate(0.013 1.6)">
                <g id="Grupo_56466" data-name="Grupo 56466">
                  <g id="Grupo_56465" data-name="Grupo 56465">
                    <g id="Grupo_56464" data-name="Grupo 56464">
                      <path id="Trazado_105269" data-name="Trazado 105269" d="M170.414,72.556c-2.028-1.123-3.42,1.073-3.429,5.453-.008,4.581,1.374,7.839,3.217,8.86a1.974,1.974,0,0,0,1.729.289l-.172-1.525a1.577,1.577,0,0,1-1.379-.182c-1.59-.88-2.507-3.588-2.5-7.012.006-3.666,1.029-5.2,2.563-4.349a3.8,3.8,0,0,1,1.317,1.311l.206-1.364a4.313,4.313,0,0,0-1.551-1.48" transform="translate(-166.985 -72.266)" fill="#fff"/>
                      <path id="Trazado_105270" data-name="Trazado 105270" d="M177.142,80.279l-.619-.343-.009,4.874L174.321,83.6l0,1.249,2.193,1.214-.009,4.914.619.343.009-4.914,2.193,1.214,0-1.249-2.193-1.214.009-4.874" transform="translate(-168.656 -74.013)" fill="#fff"/>
                      <path id="Trazado_105271" data-name="Trazado 105271" d="M184.63,84.426l-.619-.343L184,88.957l-2.193-1.214,0,1.249L184,90.206l-.009,4.914.619.343.009-4.914,2.193,1.214,0-1.249L184.621,89.3l.009-4.874" transform="translate(-170.361 -74.957)" fill="#fff"/>
                    </g>
                  </g>
                </g>
              </g>
            </g>
          </g>
        </g>
      </g>
    </g>
    <g id="Grupo_56482" data-name="Grupo 56482" transform="translate(106.661 79.093)">
      <g id="Grupo_56473" data-name="Grupo 56473" transform="translate(0 0)">
        <path id="Trazado_105273" data-name="Trazado 105273" d="M144.9,107.162,113.877,89.278v33.346L144.9,140.351Z" transform="translate(-113.877 -88.402)" fill="#ffca28"/>
        <path id="Trazado_105274" data-name="Trazado 105274" d="M154.054,112.144l1.316-.995V144.5l-1.316.837Z" transform="translate(-123.029 -93.384)" fill="#ffa726"/>
        <path id="Trazado_105275" data-name="Trazado 105275" d="M144.9,106.9l1.316-.995L115.369,88.144l-1.493.876Z" transform="translate(-113.877 -88.144)" fill="#ffa726"/>
      </g>
      <g id="Grupo_56481" data-name="Grupo 56481" transform="translate(5.163 16.281)">
        <g id="Grupo_56480" data-name="Grupo 56480">
          <g id="Grupo_56479" data-name="Grupo 56479" style="isolation: isolate">
            <g id="Grupo_56478" data-name="Grupo 56478" clip-path="url(#clip-path-2)">
              <g id="Grupo_56477" data-name="Grupo 56477" transform="translate(0 0.254)">
                <g id="Grupo_56476" data-name="Grupo 56476">
                  <g id="Grupo_56475" data-name="Grupo 56475">
                    <g id="Grupo_56474" data-name="Grupo 56474">
                      <path id="Trazado_105276" data-name="Trazado 105276" d="M122.043,116.925a2.466,2.466,0,0,1-.666-.508l.01-5.175a1.981,1.981,0,0,1,.756.285c.887.491,1.47,1.663,1.466,3.419,0,1.836-.6,2.516-1.567,1.979m.087-6.768a5.253,5.253,0,0,0-1.544-.6l-.025,13.146.8.445.01-5.328a2.433,2.433,0,0,0,.646.479,1.268,1.268,0,0,0,1.905-.409,5.158,5.158,0,0,0,.486-2.578,8.2,8.2,0,0,0-.541-3.087,3.979,3.979,0,0,0-1.741-2.067" transform="translate(-120.562 -109.556)" fill="#fff"/>
                      <path id="Trazado_105277" data-name="Trazado 105277" d="M131.577,115.434l-.812-.45-.01,5.568-3.012-1.668.01-5.568-.8-.445-.025,13.307.8.445.012-6.236,3.012,1.668-.012,6.236.812.45.025-13.307" transform="translate(-122.012 -110.311)" fill="#fff"/>
                      <path id="Trazado_105278" data-name="Trazado 105278" d="M136.206,124.768a2.445,2.445,0,0,1-.662-.507l.009-5.175a1.981,1.981,0,0,1,.756.285c.887.491,1.467,1.661,1.463,3.417,0,1.836-.6,2.517-1.567,1.979m.087-6.768a5.293,5.293,0,0,0-1.544-.6l-.025,13.147.806.446.01-5.328a2.458,2.458,0,0,0,.646.479,1.269,1.269,0,0,0,1.906-.409,5.211,5.211,0,0,0,.483-2.579,8.238,8.238,0,0,0-.538-3.086A3.985,3.985,0,0,0,136.293,118" transform="translate(-123.788 -111.342)" fill="#fff"/>
                    </g>
                  </g>
                </g>
              </g>
            </g>
          </g>
        </g>
      </g>
    </g>
    <g id="Grupo_56486" data-name="Grupo 56486" transform="translate(242.168 81.72)">
      <g id="Grupo_56483" data-name="Grupo 56483">
        <path id="Trazado_105280" data-name="Trazado 105280" d="M329.808,116.343l-11.986-6.909L289.356,93.026v64.139l40.452,23.113Z" transform="translate(-289.356 -91.883)" fill="#039be5"/>
        <path id="Trazado_105281" data-name="Trazado 105281" d="M341.741,122.839l1.716-1.3v64.139l-1.716,1.092Z" transform="translate(-301.288 -98.379)" fill="#1565c0"/>
        <path id="Trazado_105282" data-name="Trazado 105282" d="M329.808,116.006l1.716-1.3L291.3,91.546l-1.946,1.143Z" transform="translate(-289.356 -91.546)" fill="#4dd0e1"/>
      </g>
      <g id="Grupo_56485" data-name="Grupo 56485" transform="translate(5.235 17.16)">
        <path id="Trazado_105283" data-name="Trazado 105283" d="M309.949,121.731l-7.536-4.344v3.367l7.536,4.306Z" transform="translate(-297.565 -114.592)" fill="#ffca28"/>
        <path id="Trazado_105284" data-name="Trazado 105284" d="M316.758,125.656,313.884,124v3.322l2.874,1.642Z" transform="translate(-300.177 -116.098)" fill="#4dd0e1"/>
        <path id="Trazado_105285" data-name="Trazado 105285" d="M319.472,142.515l-5.951-3.43v3.324l5.951,3.4Z" transform="translate(-300.095 -119.535)" fill="#ffca28"/>
        <path id="Trazado_105286" data-name="Trazado 105286" d="M307.992,143.544l-3.526-2.033v3.359l3.526,2.015Z" transform="translate(-298.032 -120.087)" fill="#ffca28"/>
        <path id="Trazado_105287" data-name="Trazado 105287" d="M315.856,148.077l-5.112-2.946v3.335l5.112,2.921Z" transform="translate(-299.462 -120.912)" fill="#4dd0e1"/>
        <path id="Trazado_105288" data-name="Trazado 105288" d="M328.251,162.869l-1.568-.9v3.272l1.568.9Z" transform="translate(-303.093 -124.747)" fill="#4dd0e1"/>
        <g id="Grupo_56484" data-name="Grupo 56484">
          <path id="Trazado_105289" data-name="Trazado 105289" d="M299.661,115.8l-3.526-2.033v3.392l3.526,2.015Z" transform="translate(-296.134 -113.768)" fill="#fff6db"/>
          <path id="Trazado_105290" data-name="Trazado 105290" d="M327.412,131.8l-8.1-4.666v3.3l8.1,4.625Z" transform="translate(-301.415 -116.812)" fill="#fff6db"/>
          <path id="Trazado_105291" data-name="Trazado 105291" d="M305.349,126.726l-9.214-5.311v3.392l9.214,5.264Z" transform="translate(-296.134 -115.51)" fill="#fff6db"/>
          <path id="Trazado_105292" data-name="Trazado 105292" d="M317.221,133.57l-7.442-4.29v3.339l7.442,4.252Z" transform="translate(-299.242 -117.301)" fill="#fff6db"/>
          <path id="Trazado_105293" data-name="Trazado 105293" d="M325.028,138.07l-3.9-2.248v3.294l3.9,2.228Z" transform="translate(-301.828 -118.792)" fill="#fff6db"/>
          <path id="Trazado_105294" data-name="Trazado 105294" d="M331.137,141.591l-3.247-1.871v3.268l3.247,1.855Z" transform="translate(-303.368 -119.679)" fill="#fff6db"/>
          <path id="Trazado_105295" data-name="Trazado 105295" d="M309.642,136.848l-7.349-4.236v3.368l7.349,4.2Z" transform="translate(-297.537 -118.06)" fill="#fff"/>
          <path id="Trazado_105296" data-name="Trazado 105296" d="M325.347,145.9l-2.407-1.388V147.8l2.407,1.376Z" transform="translate(-302.24 -120.771)" fill="#fff6db"/>
          <path id="Trazado_105297" data-name="Trazado 105297" d="M330.83,149.061l-3.06-1.764v3.268l3.06,1.748Z" transform="translate(-303.34 -121.405)" fill="#fff6db"/>
          <path id="Trazado_105298" data-name="Trazado 105298" d="M299.568,131.041l-3.433-1.979v3.392l3.433,1.962Z" transform="translate(-296.134 -117.252)" fill="#fff6db"/>
          <path id="Trazado_105299" data-name="Trazado 105299" d="M325.866,153.847l-6.79-3.914v3.3l6.79,3.879Z" transform="translate(-301.36 -122.006)" fill="#fff6db"/>
          <path id="Trazado_105300" data-name="Trazado 105300" d="M301.246,139.656l-5.112-2.946V140.1l5.112,2.921Z" transform="translate(-296.134 -118.994)" fill="#fff6db"/>
          <path id="Trazado_105301" data-name="Trazado 105301" d="M298.728,145.852l-2.594-1.5v3.392l2.594,1.482Z" transform="translate(-296.134 -120.735)" fill="#fff6db"/>
          <path id="Trazado_105302" data-name="Trazado 105302" d="M309.394,152l-8.188-4.72v3.372l8.188,4.678Z" transform="translate(-297.29 -121.401)" fill="#fff6db"/>
          <path id="Trazado_105303" data-name="Trazado 105303" d="M318.074,157l-4.552-2.624V157.7l4.552,2.6Z" transform="translate(-300.095 -123.018)" fill="#fff"/>
          <path id="Trazado_105304" data-name="Trazado 105304" d="M324.1,160.474l-2.967-1.71v3.294l2.967,1.7Z" transform="translate(-301.828 -124.017)" fill="#fff6db"/>
          <path id="Trazado_105305" data-name="Trazado 105305" d="M301.432,155.057l-5.3-3.054V155.4l5.3,3.027Z" transform="translate(-296.134 -122.477)" fill="#fff"/>
        </g>
        <path id="Trazado_105306" data-name="Trazado 105306" d="M307.861,158.763l-3.153-1.818V160.3l3.153,1.8Z" transform="translate(-298.087 -123.603)" fill="#ffca28"/>
        <path id="Trazado_105307" data-name="Trazado 105307" d="M315.521,163.179l-5.018-2.893v3.336l5.018,2.867Z" transform="translate(-299.407 -124.364)" fill="#4dd0e1"/>
      </g>
    </g>
    <g id="Grupo_56487" data-name="Grupo 56487" transform="translate(206.32 67.718)">
      <path id="Trazado_105308" data-name="Trazado 105308" d="M248.517,76.987l4.043-2.5L250.539,82.4Z" transform="translate(-244.205 -73.658)" fill="#1565c0"/>
      <path id="Trazado_105309" data-name="Trazado 105309" d="M242.957,89.638l4.031-2.52-2.108,3.573Z" transform="translate(-242.938 -76.535)" fill="#1565c0"/>
      <path id="Trazado_105310" data-name="Trazado 105310" d="M266.181,103.612,266.2,93.9l-1.924-1.053c-.122-.89-.277-1.762-.458-2.614l1.365-2.116-3.233-8.642-1.365,2.11a14.715,14.715,0,0,0-1.113-1.6l.008-4.068-4.588-2.511-.008,4.068a3.3,3.3,0,0,0-1.117.375l-1.354-3.623-2.563,5.22.663,3.5a18.907,18.907,0,0,0-.47,2.106l-1.924-1.053-.019,9.71-.23,1.248c.122.89.278,1.762.461,2.621l.786,1.939,3.232,8.647,1.365-2.141a14.657,14.657,0,0,0,1.113,1.6l-.008,4.068,4.588,2.511.008-4.068a3.3,3.3,0,0,0,1.116-.375l1.365,3.611,3.257-5.1-1.364-3.6a20.425,20.425,0,0,0,.466-2.113Zm-9.046-.442c-2.439-1.334-4.412-6.622-4.4-11.779s2-8.276,4.437-6.941,2.612,6.57,2.6,11.728S259.571,104.5,257.136,103.169Z" transform="translate(-244.058 -73.413)" fill="#1565c0"/>
      <path id="Trazado_105311" data-name="Trazado 105311" d="M248.435,120.736l3.716-2.281-2.427-.9Z" transform="translate(-244.186 -83.468)" fill="#1565c0"/>
      <path id="Trazado_105312" data-name="Trazado 105312" d="M257.575,127.4l4.045-3.009.008-4.068-4.045,3.009Z" transform="translate(-246.268 -84.098)" fill="#1565c0"/>
      <path id="Trazado_105313" data-name="Trazado 105313" d="M261.011,106.862l.019-9.71L259.105,96.1c-.122-.89-.277-1.762-.458-2.613l1.365-2.141L256.781,82.7l-1.365,2.135a14.794,14.794,0,0,0-1.113-1.595l.008-4.068-4.588-2.512-.008,4.069a3.294,3.294,0,0,0-1.116.375l-1.354-3.623-3.257,5.09,1.357,3.631a18.861,18.861,0,0,0-.469,2.106l-1.924-1.053-.019,9.71,1.924,1.053c.122.89.277,1.762.46,2.621l-1.368,2.134,3.232,8.647,1.365-2.141a14.791,14.791,0,0,0,1.113,1.595l-.008,4.069,4.588,2.511.008-4.068a3.312,3.312,0,0,0,1.116-.375l1.354,3.629,3.257-5.1-1.354-3.623a20.2,20.2,0,0,0,.466-2.113Zm-9.046-.442c-2.439-1.334-4.412-6.622-4.4-11.779s2-8.276,4.437-6.941,4.409,6.62,4.4,11.779S254.4,107.753,251.966,106.42Z" transform="translate(-242.933 -74.153)" fill="#039be5"/>
      <path id="Trazado_105314" data-name="Trazado 105314" d="M260.866,83.751l4.045-2.485,3.232,8.642L264.1,92.393Z" transform="translate(-247.018 -75.202)" fill="#4dd0e1"/>
      <path id="Trazado_105315" data-name="Trazado 105315" d="M268.1,118.56l-3.257,5.1-4.056,2.529,3.257-5.1Z" transform="translate(-246.999 -83.697)" fill="#4dd0e1"/>
      <path id="Trazado_105316" data-name="Trazado 105316" d="M256.314,78.447l4.1-2.466-4.588-2.511-4.1,2.466Z" transform="translate(-244.936 -73.426)" fill="#4dd0e1"/>
      <path id="Trazado_105317" data-name="Trazado 105317" d="M266.344,112.161l4.045-2.526.018-9.71-4.045,2.526Z" transform="translate(-248.266 -79.452)" fill="#4dd0e1"/>
    </g>
    <g id="Grupo_56494" data-name="Grupo 56494" transform="translate(298.731 178.823)">
      <g id="Grupo_56490" data-name="Grupo 56490" transform="translate(2.101 0)">
        <g id="Grupo_56489" data-name="Grupo 56489" style="isolation: isolate">
          <g id="Grupo_56488" data-name="Grupo 56488">
            <path id="Trazado_105318" data-name="Trazado 105318" d="M371.033,220.525,368.1,218.9l-2.78,4.9,3.583,10.327,2.1-.738-2.767-7.974,2.791-4.9" transform="translate(-365.324 -217.659)" fill="#41a0d7"/>
            <path id="Trazado_105319" data-name="Trazado 105319" d="M381.01,217.292l-2.468,26.468,2.1-.738,2.979-24.162Z" transform="translate(-368.335 -217.292)" fill="#41a0d7"/>
            <path id="Trazado_105320" data-name="Trazado 105320" d="M393.468,232.887l-2.932-1.623,2.771,7.976-1.964,7.257,2.1-.738,2.78-4.9-2.756-7.968" transform="translate(-371.067 -220.475)" fill="#41a0d7"/>
          </g>
        </g>
      </g>
      <g id="Grupo_56493" data-name="Grupo 56493" transform="translate(0 0.738)">
        <g id="Grupo_56492" data-name="Grupo 56492" style="isolation: isolate">
          <g id="Grupo_56491" data-name="Grupo 56491">
            <path id="Trazado_105321" data-name="Trazado 105321" d="M368.312,221.48l-2.791,4.9,2.767,7.974-2.928-1.621-2.756-7.968,2.78-4.9,2.928,1.621" transform="translate(-362.604 -218.615)" fill="#05cdff"/>
            <path id="Trazado_105322" data-name="Trazado 105322" d="M378.138,218.248l-2.982,24.16,2.615,1.569,2.979-24.162Z" transform="translate(-365.463 -218.248)" fill="#05cdff"/>
            <path id="Trazado_105323" data-name="Trazado 105323" d="M390.741,233.843l-2.932-1.623,2.771,7.976-2.795,4.9,2.932,1.623,2.78-4.9-2.756-7.968" transform="translate(-368.34 -221.431)" fill="#05cdff"/>
          </g>
        </g>
      </g>
      <path id="Trazado_105324" data-name="Trazado 105324" d="M366.2,219.642l2.928,1.621,2.1-.738L368.3,218.9Z" transform="translate(-363.424 -217.659)" fill="#8ae8ff"/>
      <path id="Trazado_105325" data-name="Trazado 105325" d="M379.018,218.03l2.1-.738,2.612,1.567-2.1.738Z" transform="translate(-366.343 -217.292)" fill="#8ae8ff"/>
      <path id="Trazado_105326" data-name="Trazado 105326" d="M387.816,232l2.1-.738,2.932,1.623-2.1.738Z" transform="translate(-368.347 -220.475)" fill="#8ae8ff"/>
    </g>
    <g id="Grupo_56500" data-name="Grupo 56500" transform="translate(233.579 186.647)">
      <path id="Trazado_105327" data-name="Trazado 105327" d="M306.868,263.668l3.937-2.382-5.294-3.794-3.421,2.633Z" transform="translate(-283.668 -234.273)" fill="#a0ebff"/>
      <path id="Trazado_105328" data-name="Trazado 105328" d="M299.839,267.359l3.875-2.228-6.123-4.582-3.421,2.633Z" transform="translate(-281.864 -234.97)" fill="#a0ebff"/>
      <path id="Trazado_105329" data-name="Trazado 105329" d="M293.22,271.738l3.8-2.323-5.094-3.794-3.421,2.633Z" transform="translate(-280.572 -236.125)" fill="#a0ebff"/>
      <path id="Trazado_105330" data-name="Trazado 105330" d="M286.1,276.216l3.9-2.279-4.368-3.244-3.421,2.633Z" transform="translate(-279.139 -237.281)" fill="#a0ebff"/>
      <g id="Grupo_56499" data-name="Grupo 56499">
        <g id="Grupo_56495" data-name="Grupo 56495" transform="translate(15.904 13.459)">
          <path id="Trazado_105331" data-name="Trazado 105331" d="M302.716,251.153l-3.887-2.889v8.211l3.887,2.48Z" transform="translate(-298.828 -245.63)" fill="#fa870a"/>
          <path id="Trazado_105332" data-name="Trazado 105332" d="M303.862,251.241l3.427-2.591v8.211l-3.427,2.181Z" transform="translate(-299.975 -245.718)" fill="#ffa50a"/>
          <path id="Trazado_105333" data-name="Trazado 105333" d="M302.716,250.376l3.427-2.591-3.893-2.932-3.421,2.633Z" transform="translate(-298.828 -244.853)" fill="#ffdc64"/>
        </g>
        <g id="Grupo_56496" data-name="Grupo 56496" transform="translate(10.771)">
          <path id="Trazado_105334" data-name="Trazado 105334" d="M296.069,233.724l-3.887-2.889v24.656l3.887,2.479Z" transform="translate(-292.182 -228.201)" fill="#0091c8"/>
          <path id="Trazado_105335" data-name="Trazado 105335" d="M297.216,233.812l3.427-2.591v24.656l-3.427,2.181Z" transform="translate(-293.329 -228.289)" fill="#05cdff"/>
          <path id="Trazado_105336" data-name="Trazado 105336" d="M296.069,232.947l3.427-2.591-3.893-2.932-3.421,2.633Z" transform="translate(-292.182 -227.424)" fill="#a0ebff"/>
        </g>
        <g id="Grupo_56497" data-name="Grupo 56497" transform="translate(5.37 6.475)">
          <path id="Trazado_105337" data-name="Trazado 105337" d="M289.075,242.108l-3.887-2.889v21.367l3.887,2.48Z" transform="translate(-285.188 -236.586)" fill="#1565c0"/>
          <path id="Trazado_105338" data-name="Trazado 105338" d="M290.222,242.2l3.427-2.591v21.367l-3.427,2.181Z" transform="translate(-286.335 -236.674)" fill="#039be5"/>
          <path id="Trazado_105339" data-name="Trazado 105339" d="M289.075,241.331l3.427-2.591-3.893-2.932-3.421,2.633Z" transform="translate(-285.188 -235.809)" fill="#4dd0e1"/>
        </g>
        <g id="Grupo_56498" data-name="Grupo 56498" transform="translate(0 19.246)">
          <path id="Trazado_105340" data-name="Trazado 105340" d="M282.121,258.647l-3.887-2.889V268.08l3.887,2.479Z" transform="translate(-278.234 -253.124)" fill="#39ae96"/>
          <path id="Trazado_105341" data-name="Trazado 105341" d="M283.267,258.735l3.427-2.591v12.323l-3.427,2.181Z" transform="translate(-279.38 -253.212)" fill="#13e275"/>
          <path id="Trazado_105342" data-name="Trazado 105342" d="M282.121,257.87l3.427-2.591-3.893-2.932-3.421,2.633Z" transform="translate(-278.234 -252.347)" fill="#96dbbf"/>
        </g>
      </g>
    </g>
    <g id="Grupo_56501" data-name="Grupo 56501" transform="translate(133.019 207.121)">
      <path id="Trazado_105343" data-name="Trazado 105343" d="M157.547,311.126h.018V262.487H148.01v48.639h.025a1.068,1.068,0,0,0-.025.118c0,1.3,2.141,2.349,4.781,2.349s4.781-1.052,4.781-2.349C157.572,311.2,157.551,311.167,157.547,311.126Z" transform="translate(-148.01 -255.885)" fill="#039be5"/>
      <path id="Trazado_105344" data-name="Trazado 105344" d="M157.547,292.883h.018V265.588H148.01v27.295h.025a1.033,1.033,0,0,0-.025.118c0,1.3,2.141,2.348,4.781,2.348s4.781-1.052,4.781-2.348C157.572,292.96,157.551,292.923,157.547,292.883Z" transform="translate(-148.01 -256.592)" fill="#1565c0"/>
      <path id="Trazado_105345" data-name="Trazado 105345" d="M157.565,273.406V257.037H148.01v16.369h.025a1.047,1.047,0,0,0-.025.119c0,1.3,2.141,2.348,4.781,2.348s4.781-1.052,4.781-2.348c0-.041-.021-.079-.025-.119Z" transform="translate(-148.01 -254.644)" fill="#039be5"/>
      <path id="Trazado_105346" data-name="Trazado 105346" d="M148.017,256.4v16.37h9.555V256.4h-.025a1.181,1.181,0,0,0,.025-.118c0-1.3-2.141-2.348-4.781-2.348s-4.781,1.052-4.781,2.348a1,1,0,0,0,.025.118Z" transform="translate(-148.01 -253.938)" fill="#039be5"/>
    </g>
    <path id="Trazado_105347" data-name="Trazado 105347" d="M3.781,0C5.87,0,7.563.659,7.563,1.473S5.87,2.946,3.781,2.946,0,2.286,0,1.473,1.693,0,3.781,0Z" transform="translate(133.86 207.821)" fill="#1565c0"/>
  </g>
</svg>
