<svg xmlns="http://www.w3.org/2000/svg" width="72.887" height="72.886" viewBox="0 0 72.887 72.886">
  <g id="investigacion" transform="translate(0 -0.001)">
    <path id="Trazado_140679" data-name="Trazado 140679" d="M397.618,270.149a2.136,2.136,0,0,1-3.02,0l-13.992-13.992,3.02-3.02,13.992,13.992A2.136,2.136,0,0,1,397.618,270.149Zm0,0" transform="translate(-326.424 -217.1)" fill="#484b63"/>
    <path id="Trazado_140680" data-name="Trazado 140680" d="M7.5,62.5H52.342v62.922H7.5Zm0,0" transform="translate(-6.432 -53.602)" fill="#d8d5ed"/>
    <path id="Trazado_140681" data-name="Trazado 140681" d="M40,307.727h8.541v23.062H40Zm0,0" transform="translate(-34.306 -263.919)" fill="#ffca28"/>
    <path id="Trazado_140682" data-name="Trazado 140682" d="M134,247.727h8.541v31.6H134Zm0,0" transform="translate(-114.924 -212.46)" fill="#26a69a"/>
    <path id="Trazado_140683" data-name="Trazado 140683" d="M230,269.727h8.541V298.2H230Zm0,0" transform="translate(-197.258 -231.328)" fill="#1565c0"/>
    <path id="Trazado_140687" data-name="Trazado 140687" d="M175.552,14.133a22.634,22.634,0,1,0,0,32.01A22.635,22.635,0,0,0,175.552,14.133Zm0,0" transform="translate(-117.423 -6.435)" fill="#50536e"/>
    <path id="Trazado_140688" data-name="Trazado 140688" d="M198.313,68.9a18.364,18.364,0,1,1,0-25.971A18.385,18.385,0,0,1,198.313,68.9Zm0,0" transform="translate(-143.203 -32.213)" fill="#4dd0e1"/>
    <path id="Trazado_140690" data-name="Trazado 140690" d="M71.951,48.993,61,38.038a23.71,23.71,0,0,0,.95-27.351,1.068,1.068,0,1,0-1.784,1.174,21.587,21.587,0,1,1-2.789-3.42l.058.059a1.068,1.068,0,0,0,1.515-1.5l-.061-.062a23.728,23.728,0,0,0-33.521,0q-.435.435-.843.888H1.068A1.068,1.068,0,0,0,0,8.888V13.61a1.068,1.068,0,1,0,2.135,0V9.956H22.81A23.519,23.519,0,0,0,20.7,13.549H7.4a1.068,1.068,0,1,0,0,2.135H19.821a23.653,23.653,0,0,0-.766,2.61H7.4a1.068,1.068,0,1,0,0,2.135H18.66a23.858,23.858,0,0,0-.215,2.61H7.4a1.068,1.068,0,0,0,0,2.136H18.482a23.726,23.726,0,0,0,2.39,9.018h-1.8a1.068,1.068,0,0,0-1.068,1.068V66.869a1.068,1.068,0,0,0,1.068,1.068h8.541a1.068,1.068,0,0,0,1.068-1.068V43.224a23.524,23.524,0,0,0,2.989,1.751V66.869a1.068,1.068,0,0,0,1.068,1.068h8.541a1.068,1.068,0,0,0,1.068-1.068V47.388a24.088,24.088,0,0,0,2.492-.153V63.728a1.068,1.068,0,1,0,2.135,0V46.891a23.542,23.542,0,0,0,9.489-4.321L67.419,53.523a3.2,3.2,0,0,0,4.532-4.53ZM26.55,65.8H20.144V36.329h1.923a23.717,23.717,0,0,0,3.3,4.129q.577.577,1.184,1.1Zm7.261,0V45.893a23.767,23.767,0,0,0,6.406,1.42V65.8Zm36.63-13.789a1.068,1.068,0,0,1-1.511,0L58.114,41.2c.262-.24.52-.484.773-.737s.5-.51.738-.773L70.44,50.5A1.069,1.069,0,0,1,70.441,52.013Zm0,0" transform="translate(0 0)"/>
    <path id="Trazado_140691" data-name="Trazado 140691" d="M45.911,170.7a1.068,1.068,0,0,0-1.068,1.068v2.421H2.135V121.677a1.068,1.068,0,0,0-2.135,0v53.582a1.068,1.068,0,0,0,1.068,1.068H45.911a1.067,1.067,0,0,0,1.068-1.068V171.77A1.067,1.067,0,0,0,45.911,170.7Zm0,0" transform="translate(0 -103.439)"/>
    <path id="Trazado_140692" data-name="Trazado 140692" d="M32.5,301.263v23.066a1.068,1.068,0,0,0,1.068,1.068H42.11a1.068,1.068,0,0,0,1.068-1.068V301.263A1.068,1.068,0,0,0,42.11,300.2H33.568A1.068,1.068,0,0,0,32.5,301.263Zm2.135,1.068h6.407V323.26H34.635Zm0,0" transform="translate(-27.873 -257.46)"/>
    <path id="Trazado_140693" data-name="Trazado 140693" d="M53.551,197.316a1.068,1.068,0,0,0,0-2.136H45.568a1.068,1.068,0,0,0,0,2.136Zm0,0" transform="translate(-38.165 -167.394)"/>
    <path id="Trazado_140694" data-name="Trazado 140694" d="M178.9,29.988a19.4,19.4,0,1,0,13.741,5.684A19.3,19.3,0,0,0,178.9,29.988Zm12.23,31.658a17.322,17.322,0,1,1,5.058-12.232A17.177,17.177,0,0,1,191.131,61.647Zm0,0" transform="translate(-136.774 -25.718)"/>
  </g>
</svg>
