<svg xmlns="http://www.w3.org/2000/svg" width="610" height="150" viewBox="0 0 610 150">
  <g id="Grupo_82527" data-name="Grupo 82527" transform="translate(-495 -1876)">
    <g id="Grupo_82526" data-name="Grupo 82526">
      <g id="Grupo_82525" data-name="Grupo 82525">
        <g id="Grupo_82524" data-name="Grupo 82524">
          <path id="Trazado_142010" data-name="Trazado 142010" d="M0,0H610V50H0Z" transform="translate(495 1876)" fill="#ffedb7"/>
          <path id="Trazado_142011" data-name="Trazado 142011" d="M0,0H610V50H0Z" transform="translate(495 1926)" fill="#fff6db"/>
          <path id="Trazado_142008" data-name="Trazado 142008" d="M0,0H610V50H0Z" transform="translate(495 1976)" fill="#ffedb7"/>
          <path id="Trazado_142012" data-name="Trazado 142012" d="M15.4,0H11.883L5.039-11.227V0H1.523V-17.062H5.039l6.855,11.25v-11.25h3.5Zm2.32-6.457a7.52,7.52,0,0,1,.727-3.363,5.319,5.319,0,0,1,2.092-2.285,6.1,6.1,0,0,1,3.17-.809,5.774,5.774,0,0,1,4.189,1.57,6.3,6.3,0,0,1,1.811,4.266l.023.867A6.627,6.627,0,0,1,28.1-1.529,5.662,5.662,0,0,1,23.73.234a5.69,5.69,0,0,1-4.377-1.758A6.744,6.744,0,0,1,17.719-6.3Zm3.387.24a4.74,4.74,0,0,0,.68,2.764A2.242,2.242,0,0,0,23.73-2.5a2.247,2.247,0,0,0,1.922-.945,5.186,5.186,0,0,0,.691-3.022,4.692,4.692,0,0,0-.691-2.746,2.248,2.248,0,0,0-1.945-.974,2.211,2.211,0,0,0-1.922.968A5.274,5.274,0,0,0,21.105-6.217ZM34.992-12.68l.105,1.418a4.456,4.456,0,0,1,3.645-1.652,3.382,3.382,0,0,1,3.363,1.934,4.354,4.354,0,0,1,3.809-1.934,3.782,3.782,0,0,1,3.07,1.2A5.521,5.521,0,0,1,49.992-8.1V0h-3.4V-8.1a2.424,2.424,0,0,0-.422-1.58,1.867,1.867,0,0,0-1.488-.5,2.114,2.114,0,0,0-2.109,1.456L42.586,0H39.2V-8.093a2.394,2.394,0,0,0-.434-1.6,1.885,1.885,0,0,0-1.477-.493,2.194,2.194,0,0,0-2.086,1.2V0H31.816V-12.68ZM64.02-6.223a7.678,7.678,0,0,1-1.3,4.752A4.309,4.309,0,0,1,59.086.234a3.959,3.959,0,0,1-3.293-1.582L55.641,0H52.594V-18H55.98v6.457a3.857,3.857,0,0,1,3.082-1.371A4.344,4.344,0,0,1,62.7-11.209a7.689,7.689,0,0,1,1.318,4.8Zm-3.387-.258A5.072,5.072,0,0,0,60.023-9.3a2.058,2.058,0,0,0-1.816-.888A2.233,2.233,0,0,0,55.98-8.855v5.019A2.263,2.263,0,0,0,58.23-2.5a2.092,2.092,0,0,0,2.156-1.622A8.392,8.392,0,0,0,60.633-6.481ZM73.23-9.5A9.2,9.2,0,0,0,72.012-9.6a2.481,2.481,0,0,0-2.52,1.3V0H66.105V-12.68h3.2l.094,1.512a3.138,3.138,0,0,1,2.824-1.746,3.549,3.549,0,0,1,1.055.152ZM80.473.234a6.225,6.225,0,0,1-4.541-1.711A6.082,6.082,0,0,1,74.18-6.035v-.328a7.66,7.66,0,0,1,.738-3.416A5.418,5.418,0,0,1,77.01-12.1a5.871,5.871,0,0,1,3.088-.814,5.262,5.262,0,0,1,4.1,1.641,6.667,6.667,0,0,1,1.494,4.652v1.383H77.613a3.146,3.146,0,0,0,.99,1.992A2.993,2.993,0,0,0,80.7-2.5a3.656,3.656,0,0,0,3.059-1.418l1.664,1.863A5.084,5.084,0,0,1,83.355-.369,6.767,6.767,0,0,1,80.473.234Zm-.387-10.418a2.116,2.116,0,0,0-1.635.683,3.535,3.535,0,0,0-.8,1.954h4.711v-.271a2.521,2.521,0,0,0-.609-1.748A2.183,2.183,0,0,0,80.086-10.184Zm12.973,3.75a7.641,7.641,0,0,1,1.33-4.723,4.316,4.316,0,0,1,3.639-1.758,3.884,3.884,0,0,1,3.059,1.383V-18h3.4V0h-3.059l-.164-1.348A3.985,3.985,0,0,1,98,.234a4.3,4.3,0,0,1-3.592-1.764A7.887,7.887,0,0,1,93.059-6.434Zm3.387.241a5.033,5.033,0,0,0,.621,2.743,2.022,2.022,0,0,0,1.8.954,2.265,2.265,0,0,0,2.215-1.33V-8.853a2.233,2.233,0,0,0-2.191-1.33Q96.445-10.184,96.445-6.193Zm16.5,6.427A6.225,6.225,0,0,1,108.4-1.477a6.082,6.082,0,0,1-1.752-4.559v-.328a7.66,7.66,0,0,1,.738-3.416,5.418,5.418,0,0,1,2.092-2.32,5.871,5.871,0,0,1,3.088-.814,5.262,5.262,0,0,1,4.1,1.641,6.667,6.667,0,0,1,1.494,4.652v1.383h-8.074a3.146,3.146,0,0,0,.99,1.992,2.993,2.993,0,0,0,2.092.75,3.656,3.656,0,0,0,3.059-1.418l1.664,1.863a5.084,5.084,0,0,1-2.062,1.682A6.767,6.767,0,0,1,112.945.234Zm-.387-10.418a2.116,2.116,0,0,0-1.635.683,3.535,3.535,0,0,0-.8,1.954h4.711v-.271a2.521,2.521,0,0,0-.609-1.748A2.183,2.183,0,0,0,112.559-10.184ZM129.633,0h-3.4V-18h3.4ZM139.77,0a3.761,3.761,0,0,1-.34-1.137,4.1,4.1,0,0,1-3.2,1.371,4.5,4.5,0,0,1-3.088-1.078,3.467,3.467,0,0,1-1.225-2.719,3.583,3.583,0,0,1,1.494-3.094,7.373,7.373,0,0,1,4.318-1.09h1.559v-.727a2.089,2.089,0,0,0-.451-1.406,1.775,1.775,0,0,0-1.424-.527,2.018,2.018,0,0,0-1.342.41,1.393,1.393,0,0,0-.486,1.125H132.2a3.4,3.4,0,0,1,.68-2.039,4.493,4.493,0,0,1,1.922-1.471,7,7,0,0,1,2.789-.533,5.534,5.534,0,0,1,3.721,1.178,4.12,4.12,0,0,1,1.377,3.311v5.5a6.062,6.062,0,0,0,.5,2.73V0Zm-2.8-2.355a2.917,2.917,0,0,0,1.383-.334,2.194,2.194,0,0,0,.938-.9v-2.18h-1.266q-2.543,0-2.707,1.758l-.012.2a1.356,1.356,0,0,0,.445,1.043A1.73,1.73,0,0,0,136.969-2.355Zm27.914-3.328a6.038,6.038,0,0,1-2.033,4.336A7.141,7.141,0,0,1,158.016.234a6.421,6.421,0,0,1-5.162-2.209,9.058,9.058,0,0,1-1.881-6.064V-9.082a10.228,10.228,0,0,1,.867-4.336,6.5,6.5,0,0,1,2.479-2.877,6.943,6.943,0,0,1,3.744-1,6.956,6.956,0,0,1,4.758,1.582,6.488,6.488,0,0,1,2.086,4.441h-3.516a3.563,3.563,0,0,0-.92-2.4,3.407,3.407,0,0,0-2.408-.744,2.987,2.987,0,0,0-2.631,1.26,7.06,7.06,0,0,0-.9,3.908v1.289a7.556,7.556,0,0,0,.838,4.043,2.932,2.932,0,0,0,2.643,1.277,3.471,3.471,0,0,0,2.432-.744,3.361,3.361,0,0,0,.92-2.3ZM170.543,0h-3.4V-18h3.4ZM180.68,0a3.761,3.761,0,0,1-.34-1.137,4.1,4.1,0,0,1-3.2,1.371,4.5,4.5,0,0,1-3.088-1.078,3.467,3.467,0,0,1-1.225-2.719,3.583,3.583,0,0,1,1.494-3.094,7.373,7.373,0,0,1,4.318-1.09H180.2v-.727a2.089,2.089,0,0,0-.451-1.406,1.775,1.775,0,0,0-1.424-.527,2.018,2.018,0,0,0-1.342.41,1.393,1.393,0,0,0-.486,1.125h-3.387a3.4,3.4,0,0,1,.68-2.039,4.493,4.493,0,0,1,1.922-1.471,7,7,0,0,1,2.789-.533,5.534,5.534,0,0,1,3.721,1.178A4.12,4.12,0,0,1,183.6-8.426v5.5a6.062,6.062,0,0,0,.5,2.73V0Zm-2.8-2.355a2.917,2.917,0,0,0,1.383-.334,2.194,2.194,0,0,0,.938-.9v-2.18h-1.266q-2.543,0-2.707,1.758l-.012.2a1.356,1.356,0,0,0,.445,1.043A1.73,1.73,0,0,0,177.879-2.355ZM193.066-3.5a1.091,1.091,0,0,0-.615-.979,6.989,6.989,0,0,0-1.975-.639q-4.523-.949-4.523-3.844a3.484,3.484,0,0,1,1.4-2.818,5.649,5.649,0,0,1,3.662-1.131,6.08,6.08,0,0,1,3.861,1.137,3.582,3.582,0,0,1,1.447,2.953h-3.387a1.639,1.639,0,0,0-.469-1.2A1.984,1.984,0,0,0,191-10.5a2.027,2.027,0,0,0-1.324.387,1.221,1.221,0,0,0-.469.984,1.044,1.044,0,0,0,.533.908,5.485,5.485,0,0,0,1.8.6,14.693,14.693,0,0,1,2.133.568q2.684.984,2.684,3.41a3.307,3.307,0,0,1-1.488,2.807A6.42,6.42,0,0,1,191.027.234a6.706,6.706,0,0,1-2.83-.568,4.748,4.748,0,0,1-1.939-1.559,3.621,3.621,0,0,1-.7-2.139h3.211a1.768,1.768,0,0,0,.668,1.383,2.649,2.649,0,0,0,1.664.48,2.452,2.452,0,0,0,1.471-.369A1.149,1.149,0,0,0,193.066-3.5ZM204.375.234a6.225,6.225,0,0,1-4.541-1.711,6.082,6.082,0,0,1-1.752-4.559v-.328a7.66,7.66,0,0,1,.738-3.416,5.418,5.418,0,0,1,2.092-2.32A5.871,5.871,0,0,1,204-12.914a5.262,5.262,0,0,1,4.1,1.641,6.667,6.667,0,0,1,1.494,4.652v1.383h-8.074a3.146,3.146,0,0,0,.99,1.992,2.993,2.993,0,0,0,2.092.75,3.656,3.656,0,0,0,3.059-1.418l1.664,1.863a5.084,5.084,0,0,1-2.062,1.682A6.767,6.767,0,0,1,204.375.234Zm-.387-10.418a2.116,2.116,0,0,0-1.635.683,3.535,3.535,0,0,0-.8,1.954h4.711v-.271a2.521,2.521,0,0,0-.609-1.748A2.183,2.183,0,0,0,203.988-10.184Z" transform="translate(695 1909)" fill="#00104e"/>
          <path id="Trazado_142013" data-name="Trazado 142013" d="M7.887-5.941h-6.6v-2.73h6.6ZM26.438-3.516H20.273L19.1,0H15.363l6.352-17.062h3.258L31.359,0H27.621ZM21.223-6.363h4.266L23.344-12.75ZM36.586-15.8v3.117h2.168V-10.2H36.586v6.328a1.511,1.511,0,0,0,.27,1.008,1.354,1.354,0,0,0,1.031.3,5.4,5.4,0,0,0,1-.082V-.07a6.972,6.972,0,0,1-2.051.3q-3.562,0-3.633-3.6V-10.2H31.348V-12.68H33.2V-15.8ZM47.766-9.5A9.2,9.2,0,0,0,46.547-9.6a2.481,2.481,0,0,0-2.52,1.3V0H40.641V-12.68h3.2l.094,1.512a3.138,3.138,0,0,1,2.824-1.746,3.549,3.549,0,0,1,1.055.152Zm5.2,9.5h-3.4V-12.68h3.4Zm-3.6-15.961a1.668,1.668,0,0,1,.51-1.254,1.915,1.915,0,0,1,1.389-.492,1.919,1.919,0,0,1,1.383.492,1.658,1.658,0,0,1,.516,1.254,1.663,1.663,0,0,1-.521,1.266,1.924,1.924,0,0,1-1.377.492,1.924,1.924,0,0,1-1.377-.492A1.663,1.663,0,0,1,49.371-15.961ZM67.184-6.223a7.678,7.678,0,0,1-1.3,4.752A4.309,4.309,0,0,1,62.25.234a3.959,3.959,0,0,1-3.293-1.582L58.8,0H55.758V-18h3.387v6.457a3.857,3.857,0,0,1,3.082-1.371,4.344,4.344,0,0,1,3.639,1.705,7.689,7.689,0,0,1,1.318,4.8ZM63.8-6.481A5.072,5.072,0,0,0,63.188-9.3a2.058,2.058,0,0,0-1.816-.888,2.233,2.233,0,0,0-2.227,1.328v5.019a2.263,2.263,0,0,0,2.25,1.34,2.092,2.092,0,0,0,2.156-1.622A8.392,8.392,0,0,0,63.8-6.481ZM76.863-1.289A4.247,4.247,0,0,1,73.395.234,4.005,4.005,0,0,1,70.283-.937a5,5,0,0,1-1.1-3.434V-12.68h3.387v8.2q0,1.983,1.8,1.983a2.445,2.445,0,0,0,2.367-1.2V-12.68h3.4V0H76.957ZM86.754-15.8v3.117h2.168V-10.2H86.754v6.328a1.511,1.511,0,0,0,.27,1.008,1.354,1.354,0,0,0,1.031.3,5.4,5.4,0,0,0,1-.082V-.07A6.972,6.972,0,0,1,87,.234q-3.562,0-3.633-3.6V-10.2H81.516V-12.68h1.852V-15.8Zm3.176,9.34a7.52,7.52,0,0,1,.727-3.363,5.319,5.319,0,0,1,2.092-2.285,6.1,6.1,0,0,1,3.17-.809,5.774,5.774,0,0,1,4.189,1.57,6.3,6.3,0,0,1,1.811,4.266l.023.867a6.627,6.627,0,0,1-1.629,4.682A5.662,5.662,0,0,1,95.941.234a5.69,5.69,0,0,1-4.377-1.758A6.744,6.744,0,0,1,89.93-6.3Zm3.387.24A4.74,4.74,0,0,0,94-3.453a2.242,2.242,0,0,0,1.945.957,2.247,2.247,0,0,0,1.922-.945,5.186,5.186,0,0,0,.691-3.022,4.692,4.692,0,0,0-.691-2.746,2.248,2.248,0,0,0-1.945-.974A2.211,2.211,0,0,0,94-9.215,5.274,5.274,0,0,0,93.316-6.217ZM110.895-3.5a1.091,1.091,0,0,0-.615-.979,6.989,6.989,0,0,0-1.975-.639q-4.523-.949-4.523-3.844a3.484,3.484,0,0,1,1.4-2.818,5.649,5.649,0,0,1,3.662-1.131,6.08,6.08,0,0,1,3.861,1.137,3.582,3.582,0,0,1,1.447,2.953h-3.387a1.639,1.639,0,0,0-.469-1.2,1.984,1.984,0,0,0-1.465-.475,2.027,2.027,0,0,0-1.324.387,1.221,1.221,0,0,0-.469.984,1.044,1.044,0,0,0,.533.908,5.485,5.485,0,0,0,1.8.6,14.693,14.693,0,0,1,2.133.568q2.684.984,2.684,3.41A3.307,3.307,0,0,1,112.7-.838,6.42,6.42,0,0,1,108.855.234a6.706,6.706,0,0,1-2.83-.568,4.748,4.748,0,0,1-1.939-1.559,3.621,3.621,0,0,1-.7-2.139h3.211a1.768,1.768,0,0,0,.668,1.383,2.649,2.649,0,0,0,1.664.48,2.452,2.452,0,0,0,1.471-.369A1.149,1.149,0,0,0,110.895-3.5Z" transform="translate(743 1959)" fill="#00104e"/>
          <path id="Trazado_142009" data-name="Trazado 142009" d="M8.133-9.551h4.23v3.059H8.133v4.781H4.91V-6.492H.668V-9.551H4.91v-4.582H8.133ZM28.641-8.145a10.3,10.3,0,0,1-.891,4.418A6.707,6.707,0,0,1,25.2-.8,7.051,7.051,0,0,1,21.4.234a7.1,7.1,0,0,1-3.785-1.02A6.773,6.773,0,0,1,15.035-3.7a10.005,10.005,0,0,1-.926-4.354v-.844a10.246,10.246,0,0,1,.908-4.436,6.762,6.762,0,0,1,2.566-2.941A7.059,7.059,0,0,1,21.375-17.3a7.059,7.059,0,0,1,3.791,1.025,6.762,6.762,0,0,1,2.566,2.941,10.217,10.217,0,0,1,.908,4.424Zm-3.562-.773A7.18,7.18,0,0,0,24.117-13a3.132,3.132,0,0,0-2.742-1.395,3.133,3.133,0,0,0-2.73,1.377,7.1,7.1,0,0,0-.973,4.037v.832a7.27,7.27,0,0,0,.961,4.055A3.123,3.123,0,0,0,21.4-2.648a3.1,3.1,0,0,0,2.719-1.389,7.228,7.228,0,0,0,.961-4.049Zm17.309,2.7a7.6,7.6,0,0,1-1.33,4.693A4.264,4.264,0,0,1,37.465.234,3.95,3.95,0,0,1,34.359-1.1V4.875H30.973V-12.68h3.141l.117,1.242a3.98,3.98,0,0,1,3.211-1.477,4.294,4.294,0,0,1,3.645,1.734,7.811,7.811,0,0,1,1.3,4.781ZM39-6.481a5.018,5.018,0,0,0-.627-2.739,2.04,2.04,0,0,0-1.822-.964,2.217,2.217,0,0,0-2.191,1.222v5.207A2.254,2.254,0,0,0,36.574-2.5Q39-2.5,39-6.481ZM50.32.234a6.225,6.225,0,0,1-4.541-1.711,6.082,6.082,0,0,1-1.752-4.559v-.328a7.66,7.66,0,0,1,.738-3.416,5.418,5.418,0,0,1,2.092-2.32,5.871,5.871,0,0,1,3.088-.814,5.262,5.262,0,0,1,4.1,1.641,6.667,6.667,0,0,1,1.494,4.652v1.383H47.461a3.146,3.146,0,0,0,.99,1.992,2.993,2.993,0,0,0,2.092.75A3.656,3.656,0,0,0,53.6-3.914l1.664,1.863A5.084,5.084,0,0,1,53.2-.369,6.767,6.767,0,0,1,50.32.234Zm-.387-10.418A2.116,2.116,0,0,0,48.3-9.5a3.535,3.535,0,0,0-.8,1.954h4.711v-.271A2.521,2.521,0,0,0,51.6-9.566,2.183,2.183,0,0,0,49.934-10.184Zm14.648.68A9.2,9.2,0,0,0,63.363-9.6a2.481,2.481,0,0,0-2.52,1.3V0H57.457V-12.68h3.2l.094,1.512a3.138,3.138,0,0,1,2.824-1.746,3.549,3.549,0,0,1,1.055.152ZM73.207,0a3.761,3.761,0,0,1-.34-1.137,4.1,4.1,0,0,1-3.2,1.371A4.5,4.5,0,0,1,66.58-.844a3.467,3.467,0,0,1-1.225-2.719A3.583,3.583,0,0,1,66.85-6.656a7.373,7.373,0,0,1,4.318-1.09h1.559v-.727a2.089,2.089,0,0,0-.451-1.406,1.775,1.775,0,0,0-1.424-.527A2.018,2.018,0,0,0,69.51-10a1.393,1.393,0,0,0-.486,1.125H65.637a3.4,3.4,0,0,1,.68-2.039,4.493,4.493,0,0,1,1.922-1.471,7,7,0,0,1,2.789-.533,5.534,5.534,0,0,1,3.721,1.178,4.12,4.12,0,0,1,1.377,3.311v5.5a6.062,6.062,0,0,0,.5,2.73V0Zm-2.8-2.355a2.917,2.917,0,0,0,1.383-.334,2.194,2.194,0,0,0,.938-.9v-2.18H71.461q-2.543,0-2.707,1.758l-.012.2a1.356,1.356,0,0,0,.445,1.043A1.73,1.73,0,0,0,70.406-2.355ZM84-2.5a2.221,2.221,0,0,0,1.523-.516,1.807,1.807,0,0,0,.609-1.371h3.176a4.344,4.344,0,0,1-.7,2.361A4.64,4.64,0,0,1,86.713-.357a5.923,5.923,0,0,1-2.654.592A5.5,5.5,0,0,1,79.77-1.494,6.84,6.84,0,0,1,78.2-6.27v-.223a6.762,6.762,0,0,1,1.559-4.676,5.441,5.441,0,0,1,4.277-1.746,5.333,5.333,0,0,1,3.814,1.354,4.792,4.792,0,0,1,1.459,3.6H86.133a2.327,2.327,0,0,0-.609-1.608,2.032,2.032,0,0,0-1.547-.619,2.04,2.04,0,0,0-1.787.863,5,5,0,0,0-.6,2.8v.352a5.063,5.063,0,0,0,.6,2.817A2.065,2.065,0,0,0,84-2.5ZM94.816,0h-3.4V-12.68h3.4Zm-3.6-15.961a1.668,1.668,0,0,1,.51-1.254,1.915,1.915,0,0,1,1.389-.492,1.919,1.919,0,0,1,1.383.492,1.658,1.658,0,0,1,.516,1.254,1.663,1.663,0,0,1-.521,1.266,1.924,1.924,0,0,1-1.377.492A1.924,1.924,0,0,1,91.74-14.7,1.663,1.663,0,0,1,91.219-15.961Zm5.859,9.5A7.52,7.52,0,0,1,97.8-9.82,5.319,5.319,0,0,1,99.9-12.105a6.1,6.1,0,0,1,3.17-.809,5.774,5.774,0,0,1,4.189,1.57,6.3,6.3,0,0,1,1.811,4.266l.023.867a6.627,6.627,0,0,1-1.629,4.682A5.662,5.662,0,0,1,103.09.234a5.69,5.69,0,0,1-4.377-1.758A6.744,6.744,0,0,1,97.078-6.3Zm3.387.24a4.74,4.74,0,0,0,.68,2.764,2.242,2.242,0,0,0,1.945.957,2.247,2.247,0,0,0,1.922-.945,5.186,5.186,0,0,0,.691-3.022,4.692,4.692,0,0,0-.691-2.746,2.248,2.248,0,0,0-1.945-.974,2.211,2.211,0,0,0-1.922.968A5.274,5.274,0,0,0,100.465-6.217Zm13.828-6.463.105,1.465a4.427,4.427,0,0,1,3.645-1.7,3.679,3.679,0,0,1,3,1.184,5.522,5.522,0,0,1,1.008,3.539V0h-3.387V-8.128A2.206,2.206,0,0,0,118.2-9.7a2.1,2.1,0,0,0-1.559-.487,2.329,2.329,0,0,0-2.145,1.221V0h-3.387V-12.68ZM130.453.234a6.225,6.225,0,0,1-4.541-1.711,6.082,6.082,0,0,1-1.752-4.559v-.328a7.66,7.66,0,0,1,.738-3.416,5.418,5.418,0,0,1,2.092-2.32,5.871,5.871,0,0,1,3.088-.814,5.262,5.262,0,0,1,4.1,1.641,6.667,6.667,0,0,1,1.494,4.652v1.383h-8.074a3.146,3.146,0,0,0,.99,1.992,2.993,2.993,0,0,0,2.092.75,3.656,3.656,0,0,0,3.059-1.418L135.4-2.051a5.084,5.084,0,0,1-2.062,1.682A6.767,6.767,0,0,1,130.453.234Zm-.387-10.418a2.116,2.116,0,0,0-1.635.683,3.535,3.535,0,0,0-.8,1.954h4.711v-.271a2.521,2.521,0,0,0-.609-1.748A2.183,2.183,0,0,0,130.066-10.184ZM144.457-3.5a1.091,1.091,0,0,0-.615-.979,6.989,6.989,0,0,0-1.975-.639q-4.523-.949-4.523-3.844a3.484,3.484,0,0,1,1.4-2.818,5.649,5.649,0,0,1,3.662-1.131,6.08,6.08,0,0,1,3.861,1.137,3.582,3.582,0,0,1,1.447,2.953h-3.387a1.639,1.639,0,0,0-.469-1.2,1.984,1.984,0,0,0-1.465-.475,2.027,2.027,0,0,0-1.324.387,1.221,1.221,0,0,0-.469.984,1.044,1.044,0,0,0,.533.908,5.485,5.485,0,0,0,1.8.6,14.693,14.693,0,0,1,2.133.568q2.684.984,2.684,3.41a3.307,3.307,0,0,1-1.488,2.807A6.42,6.42,0,0,1,142.418.234a6.706,6.706,0,0,1-2.83-.568,4.748,4.748,0,0,1-1.939-1.559,3.621,3.621,0,0,1-.7-2.139h3.211a1.768,1.768,0,0,0,.668,1.383,2.649,2.649,0,0,0,1.664.48,2.452,2.452,0,0,0,1.471-.369A1.149,1.149,0,0,0,144.457-3.5Zm10.922-2.953a7.52,7.52,0,0,1,.727-3.363,5.319,5.319,0,0,1,2.092-2.285,6.1,6.1,0,0,1,3.17-.809,5.774,5.774,0,0,1,4.189,1.57,6.3,6.3,0,0,1,1.811,4.266l.023.867a6.627,6.627,0,0,1-1.629,4.682A5.662,5.662,0,0,1,161.391.234a5.69,5.69,0,0,1-4.377-1.758A6.744,6.744,0,0,1,155.379-6.3Zm3.387.24a4.74,4.74,0,0,0,.68,2.764,2.242,2.242,0,0,0,1.945.957,2.247,2.247,0,0,0,1.922-.945A5.186,5.186,0,0,0,164-6.463a4.692,4.692,0,0,0-.691-2.746,2.248,2.248,0,0,0-1.945-.974,2.211,2.211,0,0,0-1.922.968A5.274,5.274,0,0,0,158.766-6.217Zm21.5-10.846,4.383,12.375,4.359-12.375h4.617V0H190.1V-4.664l.352-8.051L185.848,0h-2.414L178.84-12.7l.352,8.039V0h-3.516V-17.062ZM202.313.234a6.225,6.225,0,0,1-4.541-1.711,6.082,6.082,0,0,1-1.752-4.559v-.328a7.66,7.66,0,0,1,.738-3.416,5.418,5.418,0,0,1,2.092-2.32,5.871,5.871,0,0,1,3.088-.814,5.262,5.262,0,0,1,4.1,1.641,6.667,6.667,0,0,1,1.494,4.652v1.383h-8.074a3.146,3.146,0,0,0,.99,1.992,2.993,2.993,0,0,0,2.092.75,3.656,3.656,0,0,0,3.059-1.418l1.664,1.863A5.084,5.084,0,0,1,205.2-.369,6.767,6.767,0,0,1,202.313.234Zm-.387-10.418a2.116,2.116,0,0,0-1.635.683,3.535,3.535,0,0,0-.8,1.954H204.2v-.271a2.521,2.521,0,0,0-.609-1.748A2.183,2.183,0,0,0,201.926-10.184Zm.3-7.816h3.691l-3.246,3.633h-2.754ZM213.5-15.8v3.117h2.168V-10.2H213.5v6.328a1.511,1.511,0,0,0,.27,1.008,1.354,1.354,0,0,0,1.031.3,5.4,5.4,0,0,0,1-.082V-.07a6.972,6.972,0,0,1-2.051.3q-3.562,0-3.633-3.6V-10.2h-1.852V-12.68h1.852V-15.8Zm3.176,9.34a7.52,7.52,0,0,1,.727-3.363,5.319,5.319,0,0,1,2.092-2.285,6.1,6.1,0,0,1,3.17-.809,5.774,5.774,0,0,1,4.189,1.57,6.3,6.3,0,0,1,1.811,4.266l.023.867a6.627,6.627,0,0,1-1.629,4.682A5.662,5.662,0,0,1,222.691.234a5.69,5.69,0,0,1-4.377-1.758A6.744,6.744,0,0,1,216.68-6.3Zm3.387.24a4.74,4.74,0,0,0,.68,2.764,2.242,2.242,0,0,0,1.945.957,2.247,2.247,0,0,0,1.922-.945,5.186,5.186,0,0,0,.691-3.022,4.692,4.692,0,0,0-.691-2.746,2.248,2.248,0,0,0-1.945-.974,2.211,2.211,0,0,0-1.922.968A5.274,5.274,0,0,0,220.066-6.217Zm10.184-.217a7.641,7.641,0,0,1,1.33-4.723,4.316,4.316,0,0,1,3.639-1.758,3.884,3.884,0,0,1,3.059,1.383V-18h3.4V0h-3.059l-.164-1.348A3.985,3.985,0,0,1,235.2.234,4.3,4.3,0,0,1,231.6-1.529,7.887,7.887,0,0,1,230.25-6.434Zm3.387.241a5.033,5.033,0,0,0,.621,2.743,2.022,2.022,0,0,0,1.8.954,2.265,2.265,0,0,0,2.215-1.33V-8.853a2.233,2.233,0,0,0-2.191-1.33Q233.637-10.184,233.637-6.193Zm10.137-.264A7.52,7.52,0,0,1,244.5-9.82a5.319,5.319,0,0,1,2.092-2.285,6.1,6.1,0,0,1,3.17-.809,5.774,5.774,0,0,1,4.189,1.57,6.3,6.3,0,0,1,1.811,4.266l.023.867a6.627,6.627,0,0,1-1.629,4.682A5.662,5.662,0,0,1,249.785.234a5.69,5.69,0,0,1-4.377-1.758A6.744,6.744,0,0,1,243.773-6.3Zm3.387.24a4.74,4.74,0,0,0,.68,2.764,2.242,2.242,0,0,0,1.945.957,2.247,2.247,0,0,0,1.922-.945,5.186,5.186,0,0,0,.691-3.022,4.692,4.692,0,0,0-.691-2.746,2.248,2.248,0,0,0-1.945-.974,2.211,2.211,0,0,0-1.922.968A5.274,5.274,0,0,0,247.16-6.217ZM264.738-3.5a1.091,1.091,0,0,0-.615-.979,6.989,6.989,0,0,0-1.975-.639q-4.523-.949-4.523-3.844a3.484,3.484,0,0,1,1.4-2.818,5.649,5.649,0,0,1,3.662-1.131,6.08,6.08,0,0,1,3.861,1.137A3.582,3.582,0,0,1,268-8.824h-3.387a1.639,1.639,0,0,0-.469-1.2,1.984,1.984,0,0,0-1.465-.475,2.027,2.027,0,0,0-1.324.387,1.221,1.221,0,0,0-.469.984,1.044,1.044,0,0,0,.533.908,5.485,5.485,0,0,0,1.8.6,14.693,14.693,0,0,1,2.133.568q2.684.984,2.684,3.41a3.307,3.307,0,0,1-1.488,2.807A6.42,6.42,0,0,1,262.7.234a6.706,6.706,0,0,1-2.83-.568,4.748,4.748,0,0,1-1.939-1.559,3.621,3.621,0,0,1-.7-2.139h3.211a1.768,1.768,0,0,0,.668,1.383,2.649,2.649,0,0,0,1.664.48,2.452,2.452,0,0,0,1.471-.369A1.149,1.149,0,0,0,264.738-3.5Zm11.6-3.434a17.984,17.984,0,0,1,.715-5.109,13.483,13.483,0,0,1,2.109-4.295,7.876,7.876,0,0,1,3.023-2.6l.656,1.828a8.157,8.157,0,0,0-2.672,3.914,18.123,18.123,0,0,0-.961,6.188v.363a18.469,18.469,0,0,0,.949,6.211,8.316,8.316,0,0,0,2.684,3.973l-.656,1.793a7.879,7.879,0,0,1-2.971-2.525,13.258,13.258,0,0,1-2.1-4.178,17.877,17.877,0,0,1-.773-4.945Zm14.109.27a17.066,17.066,0,0,1-.762,5.1A13.838,13.838,0,0,1,287.5,2.754a7.9,7.9,0,0,1-3.059,2.578l-.656-1.793a8.24,8.24,0,0,0,2.625-3.867,17.908,17.908,0,0,0,1-6.012v-.621a18.313,18.313,0,0,0-.955-6.176,8.59,8.59,0,0,0-2.666-4.008l.656-1.793a7.9,7.9,0,0,1,3.006,2.508,13.659,13.659,0,0,1,2.191,4.23,16.944,16.944,0,0,1,.814,5Z" transform="translate(654 2009)" fill="#00104e"/>
          <path id="Trazado_142014" data-name="Trazado 142014" d="M0,0H610" transform="translate(495 1926)" fill="none" stroke="#fc9c25" stroke-width="1"/>
          <path id="Trazado_142015" data-name="Trazado 142015" d="M0,0H610" transform="translate(495 1976)" fill="none" stroke="#fc9c25" stroke-width="1"/>
        </g>
      </g>
    </g>
  </g>
</svg>
