<svg id="surface1" xmlns="http://www.w3.org/2000/svg" width="123.332" height="135.598" viewBox="0 0 123.332 135.598">
  <path id="Trazado_105451" data-name="Trazado 105451" d="M223.966,229.582a35.938,35.938,0,1,1-5.031-.367A42.6,42.6,0,0,1,223.966,229.582Zm0,0" transform="translate(-134.463 -168.51)" fill="#4dd0e1"/>
  <path id="Trazado_105452" data-name="Trazado 105452" d="M97.033,69A37.064,37.064,0,0,0,92,68.656a36.046,36.046,0,0,0-31.68,53.216l-.057.029H22.678a12.436,12.436,0,0,1-12.436-12.435V23.212A12.436,12.436,0,0,1,22.678,10.777H68.292V31.352A9.6,9.6,0,0,0,77.9,40.961H97.033Zm0,0" transform="translate(-7.53 -7.923)" fill="#e8e8e8"/>
  <path id="Trazado_105453" data-name="Trazado 105453" d="M229.43,10.777l28.741,30.183H239.038a9.6,9.6,0,0,1-9.609-9.609Zm0,0" transform="translate(-168.668 -7.923)" fill="#afafaf"/>
  <path id="Trazado_105454" data-name="Trazado 105454" d="M92.414,58.7V33.038a2.968,2.968,0,0,0-.819-1.95L62.825.876A2.868,2.868,0,0,0,60.762,0H15.149A15.2,15.2,0,0,0,0,15.289v86.254A15.1,15.1,0,0,0,15.149,116.72h36A38.424,38.424,0,0,0,84.473,135.6a38.853,38.853,0,0,0,7.941-76.9ZM63.588,9.92l19.3,20.319H70.371a6.827,6.827,0,0,1-6.783-6.81V9.92ZM5.653,101.543V15.289a9.546,9.546,0,0,1,9.5-9.637H57.936V23.429A12.46,12.46,0,0,0,70.371,35.892H86.763V57.964c-.848-.028-1.527-.141-2.261-.141a39.433,39.433,0,0,0-25.774,9.721H22.835a2.826,2.826,0,1,0,0,5.653H53.471A44.964,44.964,0,0,0,48.5,81.958H22.835a2.826,2.826,0,1,0,0,5.652H46.659a38.045,38.045,0,0,0-1.074,9.1,38.7,38.7,0,0,0,2.741,14.356H15.149A9.468,9.468,0,0,1,5.653,101.543Zm78.821,28.431a33.207,33.207,0,1,1-.029-66.415,36.162,36.162,0,0,1,4.635.311,33.215,33.215,0,0,1-4.606,66.1Zm0,0"/>
  <path id="Trazado_105455" data-name="Trazado 105455" d="M78.377,207.336h28.628a2.826,2.826,0,1,0,0-5.653H78.377a2.826,2.826,0,1,0,0,5.653Zm0,0" transform="translate(-55.542 -148.27)"/>
  <path id="Trazado_105456" data-name="Trazado 105456" d="M290.451,323.1H281.8v-8.789a2.826,2.826,0,0,0-5.653,0V323.1h-8.789a2.826,2.826,0,1,0,0,5.653h8.789V337.4a2.826,2.826,0,1,0,5.653,0v-8.648h8.648a2.826,2.826,0,1,0,0-5.653Zm0,0" transform="translate(-194.476 -228.994)" fill="#363636"/>
</svg>
