<svg xmlns="http://www.w3.org/2000/svg" width="1263" height="300" viewBox="0 0 1263 300">
  <g id="Grupo_82580" data-name="Grupo 82580" transform="translate(-180 -851)">
    <rect id="Rectángulo_30798" data-name="Rectángulo 30798" width="1263" height="300" transform="translate(180 851)" fill="#f6f6f6"/>
    <g id="UML_logo" transform="translate(613.443 858.84)">
      <path id="Trazado_104877" data-name="Trazado 104877" d="M208.1,234.5V158.167L222.729,240.6l23.824,11.874,15.314-68.528v74.974l26.886,13.228V145.616l-40.839-19.338-12.932,60.385L221.937,113.84,181.323,94.391V221.04Z" fill="#fbbd16"/>
      <path id="Trazado_104878" data-name="Trazado 104878" d="M292.5,145.583l42.656-22.165v91.82l58.99-30.529.227,34.6L292.611,272.8Z" fill="#452e7f"/>
      <path id="Trazado_104879" data-name="Trazado 104879" d="M275.3,12.158,245.135,38.827s58.851,30.25,66,33.825S328.46,83.1,317.46,93.277s-23.1,8.8-31.35,4.675-69.3-34.925-69.3-34.925l-31.074,26.4s59.949,30.525,69.85,35.75,46.75,18.15,81.675-9.075,29.976-37.125,29.976-39.05-.825-12.1-6.875-18.425-23.65-15.4-31.075-19.25S275.3,12.158,275.3,12.158Z" fill="#962444"/>
      <path id="Trazado_104880" data-name="Trazado 104880" d="M50.154,100.832v18.721a39.691,39.691,0,0,1-.17,4.473,6.741,6.741,0,0,1-1.006,2.646,5.48,5.48,0,0,1-2.2,2.06,6.964,6.964,0,0,1-3.222.7,7.647,7.647,0,0,1-3.626-.829,5.76,5.76,0,0,1-2.352-2.163,6.812,6.812,0,0,1-.92-2.812q-.142-1.48-.141-6.221V100.832h5.968v21a10.155,10.155,0,0,0,.162,2.344.642.642,0,0,0,.653.511.7.7,0,0,0,.725-.563,12.891,12.891,0,0,0,.161-2.655V100.832Z" fill="#4a2469"/>
      <path id="Trazado_104881" data-name="Trazado 104881" d="M69.866,100.832v28.007H64.629l-3.1-12.732v12.732h-4.98V100.832h5l3.34,12.611V100.832Z" fill="#4a2469"/>
      <path id="Trazado_104882" data-name="Trazado 104882" d="M82.308,100.832v28.007H76.339V100.832Z" fill="#4a2469"/>
      <path id="Trazado_104883" data-name="Trazado 104883" d="M86.875,100.832H98.892v5.612H93.963v5.3h4.39v5.337h-4.39v11.761H86.875Z" fill="#4a2469"/>
      <path id="Trazado_104884" data-name="Trazado 104884" d="M110.365,100.832v28.007H104.4V100.832Z" fill="#4a2469"/>
      <path id="Trazado_104885" data-name="Trazado 104885" d="M116.83,100.832h9.942v5.612H122.8v5.3h3.717v5.337H122.8v6.148h4.368v5.612H116.83Z" fill="#4a2469"/>
      <path id="Trazado_104886" data-name="Trazado 104886" d="M132.965,100.832h4.47a23.006,23.006,0,0,1,5.854.483,4.378,4.378,0,0,1,2.32,1.592,5.571,5.571,0,0,1,.994,2.466,45.472,45.472,0,0,1,.2,5.336v9.809a27.644,27.644,0,0,1-.291,5.043,3.976,3.976,0,0,1-1.015,1.99,3.936,3.936,0,0,1-1.788,1,13.408,13.408,0,0,1-3.207.284h-7.535V100.832Zm5.97,4.782v18.442q1.3,0,1.6-.633a11.143,11.143,0,0,0,.3-3.437V109.094a17.6,17.6,0,0,0-.1-2.441,1.186,1.186,0,0,0-.456-.789A2.535,2.535,0,0,0,138.935,105.614Z" fill="#4a2469"/>
      <path id="Trazado_104887" data-name="Trazado 104887" d="M20.979,146.977v28.009H15.762l-.009-18.909-2.067,18.909H9.969L7.783,156.492l-.008,18.494H2.557V146.977h7.725q.342,2.532.709,5.959l.847,7.119L13.2,146.977Z" fill="#4a2469"/>
      <path id="Trazado_104888" data-name="Trazado 104888" d="M41.391,163.386q0,4.22-.163,5.976a7.6,7.6,0,0,1-1.021,3.207,5.835,5.835,0,0,1-2.318,2.231,7.138,7.138,0,0,1-3.4.778,7.285,7.285,0,0,1-3.312-.736,5.718,5.718,0,0,1-2.362-2.2,7.5,7.5,0,0,1-1.063-3.2q-.17-1.731-.17-6.053V158.6q0-4.22.162-5.974a7.622,7.622,0,0,1,1.022-3.209,5.845,5.845,0,0,1,2.318-2.23,7.125,7.125,0,0,1,3.4-.778,7.309,7.309,0,0,1,3.313.735,5.743,5.743,0,0,1,2.361,2.205,7.477,7.477,0,0,1,1.063,3.2q.169,1.728.17,6.052v4.791Zm-5.969-9.2a10.482,10.482,0,0,0-.178-2.5.713.713,0,0,0-.732-.545.787.787,0,0,0-.719.44,7.494,7.494,0,0,0-.249,2.6v13.066a15.653,15.653,0,0,0,.163,3.007.721.721,0,0,0,.762.572.763.763,0,0,0,.783-.658,16.926,16.926,0,0,0,.17-3.128V154.189Z" fill="#4a2469"/>
      <path id="Trazado_104889" data-name="Trazado 104889" d="M47.959,146.977h4.47a22.987,22.987,0,0,1,5.854.484,4.374,4.374,0,0,1,2.32,1.593,5.55,5.55,0,0,1,.993,2.464,44.976,44.976,0,0,1,.2,5.337v9.809a27.657,27.657,0,0,1-.291,5.044,3.961,3.961,0,0,1-1.015,1.988,3.92,3.92,0,0,1-1.788,1,13.324,13.324,0,0,1-3.207.287H47.959V146.977Zm5.97,4.783V170.2q1.3,0,1.6-.633a11.1,11.1,0,0,0,.3-3.438V155.24a17.619,17.619,0,0,0-.1-2.441,1.175,1.175,0,0,0-.457-.788A2.506,2.506,0,0,0,53.929,151.76Z" fill="#4a2469"/>
      <path id="Trazado_104890" data-name="Trazado 104890" d="M68.369,146.977H80.441v5.613H75.617v5.3h4.512v5.337H75.617v6.147h5.3v5.614H68.369Z" fill="#4a2469"/>
      <path id="Trazado_104891" data-name="Trazado 104891" d="M92.532,146.977v22.4h4.715v5.614H84.795V146.977Z" fill="#4a2469"/>
      <path id="Trazado_104892" data-name="Trazado 104892" d="M106.169,146.977v28.009H100.2V146.977Z" fill="#4a2469"/>
      <path id="Trazado_104893" data-name="Trazado 104893" d="M126.245,146.977v28.009h-5.238l-3.1-12.733v12.733h-4.981V146.977h5l3.341,12.612V146.977Z" fill="#4a2469"/>
      <path id="Trazado_104894" data-name="Trazado 104894" d="M146.705,157.294h-5.969v-2.538a15.393,15.393,0,0,0-.17-3.005.759.759,0,0,0-.8-.6.739.739,0,0,0-.747.519,10.258,10.258,0,0,0-.2,2.662v13.43a9.755,9.755,0,0,0,.2,2.479.778.778,0,0,0,.789.6.875.875,0,0,0,.877-.675,9.594,9.594,0,0,0,.232-2.629v-3.319h-1.186v-4.25H146.7v15.023h-3.765l-.555-2.007a4.779,4.779,0,0,1-1.535,1.947,3.7,3.7,0,0,1-2.186.652,4.881,4.881,0,0,1-2.81-.893,5.936,5.936,0,0,1-1.987-2.2,8.049,8.049,0,0,1-.85-2.758,40.773,40.773,0,0,1-.17-4.333v-8.319a33.88,33.88,0,0,1,.354-5.826,6.042,6.042,0,0,1,2.034-3.329,6.236,6.236,0,0,1,4.342-1.514,6.985,6.985,0,0,1,4.349,1.313,6.017,6.017,0,0,1,2.252,3.121,19.9,19.9,0,0,1,.525,5.247v1.21Z" fill="#4a2469"/>
      <path id="Trazado_104895" data-name="Trazado 104895" d="M11.112,192.022v22.4h4.833v5.613H3.177V192.022h7.935Z" fill="#4a2469"/>
      <path id="Trazado_104896" data-name="Trazado 104896" d="M31.58,191.705,35,219.714H28.9l-.318-5.04H26.454l-.349,5.04H19.922l3.048-28.009Zm-3.151,18.008q-.446-4.752-.907-11.767Q26.633,206,26.4,209.713Z" fill="#4a2469"/>
      <path id="Trazado_104897" data-name="Trazado 104897" d="M53.164,192.022V220.03H47.181L43.636,207.3V220.03h-5.69V192.022h5.712l3.817,12.61v-12.61Z" fill="#4a2469"/>
      <path id="Trazado_104898" data-name="Trazado 104898" d="M73.392,202.34H66.607V199.8a13.5,13.5,0,0,0-.193-3.005.852.852,0,0,0-.913-.6.843.843,0,0,0-.85.519,9.09,9.09,0,0,0-.225,2.661V212.8a8.56,8.56,0,0,0,.225,2.479.87.87,0,0,0,.895.6.989.989,0,0,0,1-.675,8.522,8.522,0,0,0,.264-2.63v-3.317H65.46V205.01h7.932v15.021H69.113l-.631-2.007a4.947,4.947,0,0,1-1.744,1.947,4.633,4.633,0,0,1-2.487.652,6.085,6.085,0,0,1-3.192-.893,6.284,6.284,0,0,1-2.26-2.2,7.309,7.309,0,0,1-.965-2.757,35.4,35.4,0,0,1-.193-4.334v-8.318a29.932,29.932,0,0,1,.4-5.827,5.982,5.982,0,0,1,2.313-3.33,7.7,7.7,0,0,1,4.937-1.512,8.7,8.7,0,0,1,4.945,1.314,6.079,6.079,0,0,1,2.561,3.12,17.661,17.661,0,0,1,.6,5.246v1.211Z" fill="#4a2469"/>
      <path id="Trazado_104899" data-name="Trazado 104899" d="M92.757,192.022v18.721a36.414,36.414,0,0,1-.186,4.472,6.427,6.427,0,0,1-1.1,2.647,5.832,5.832,0,0,1-2.4,2.059,8.211,8.211,0,0,1-3.521.7,8.992,8.992,0,0,1-3.962-.83,6.064,6.064,0,0,1-2.568-2.164,6.391,6.391,0,0,1-1.008-2.812q-.154-1.479-.153-6.22V192.022h6.522v21a9.142,9.142,0,0,0,.178,2.344.692.692,0,0,0,.713.513.748.748,0,0,0,.789-.564,11.748,11.748,0,0,0,.178-2.655V192.023h6.522Z" fill="#4a2469"/>
      <path id="Trazado_104900" data-name="Trazado 104900" d="M108.235,192.022l3.424,28.008h-6.1l-.319-5.04h-2.128l-.349,5.04H96.577l3.048-28.008Zm-3.15,18.006q-.447-4.751-.908-11.765-.89,8.052-1.126,11.765Z" fill="#4a2469"/>
      <path id="Trazado_104901" data-name="Trazado 104901" d="M130.512,202.34h-6.65V199.8a13.894,13.894,0,0,0-.188-3.005.835.835,0,0,0-.9-.6.823.823,0,0,0-.832.519,9.276,9.276,0,0,0-.22,2.661V212.8a8.785,8.785,0,0,0,.219,2.479.855.855,0,0,0,.878.6.968.968,0,0,0,.979-.675,8.635,8.635,0,0,0,.259-2.63v-3.317H122.74V205.01h7.773v15.021h-4.194l-.617-2.007a4.9,4.9,0,0,1-1.711,1.947,4.46,4.46,0,0,1-2.435.652,5.869,5.869,0,0,1-3.129-.893,6.2,6.2,0,0,1-2.216-2.2,7.413,7.413,0,0,1-.946-2.757,36.687,36.687,0,0,1-.188-4.334v-8.318a30.356,30.356,0,0,1,.4-5.827,5.975,5.975,0,0,1,2.264-3.33,7.449,7.449,0,0,1,4.838-1.512,8.4,8.4,0,0,1,4.846,1.314,6.06,6.06,0,0,1,2.51,3.12,17.97,17.97,0,0,1,.584,5.246v1.211Z" fill="#4a2469"/>
      <path id="Trazado_104902" data-name="Trazado 104902" d="M134.736,192.022h12.071v5.612h-4.823v5.3H146.5v5.336h-4.512v6.147h5.3v5.613H134.736Z" fill="#4a2469"/>
      <g id="Grupo_56167" data-name="Grupo 56167">
        <path id="Trazado_104903" data-name="Trazado 104903" d="M393.1,167.064a8.1,8.1,0,1,1-8.076-7.884A7.921,7.921,0,0,1,393.1,167.064Zm-14.18,0a6.109,6.109,0,0,0,6.153,6.3,6.038,6.038,0,0,0,6.009-6.25,6.086,6.086,0,1,0-12.162-.048Zm4.855,4.134h-1.827v-7.883a15.821,15.821,0,0,1,3.029-.241,4.912,4.912,0,0,1,2.739.577,2.183,2.183,0,0,1,.769,1.73,2.02,2.02,0,0,1-1.634,1.827v.1a2.324,2.324,0,0,1,1.442,1.923,6.052,6.052,0,0,0,.576,1.971H386.9a6.744,6.744,0,0,1-.626-1.923c-.144-.865-.625-1.25-1.635-1.25h-.864V171.2Zm.048-4.47h.865c1.01,0,1.827-.336,1.827-1.153,0-.721-.528-1.2-1.683-1.2a4.318,4.318,0,0,0-1.01.1v2.258Z" fill="#6d6e71"/>
      </g>
      <g id="Grupo_56168" data-name="Grupo 56168">
        <path id="Trazado_104904" data-name="Trazado 104904" d="M156.248,210.816h-3.273v-1.182h7.967v1.182h-3.289v9.577h-1.4v-9.577Z" fill="#4a2469"/>
        <path id="Trazado_104905" data-name="Trazado 104905" d="M171.209,215.668c-.08-1.5-.176-3.3-.159-4.645H171c-.367,1.261-.814,2.6-1.355,4.086l-1.9,5.221h-1.053l-1.741-5.124c-.511-1.517-.941-2.906-1.245-4.183h-.032c-.03,1.342-.11,3.145-.207,4.758l-.288,4.612h-1.324l.75-10.759h1.772l1.835,5.2c.448,1.323.814,2.505,1.086,3.623h.048c.271-1.085.654-2.267,1.134-3.623l1.916-5.2h1.771l.671,10.759h-1.356Z" fill="#4a2469"/>
      </g>
    </g>
  </g>
</svg>
