<svg xmlns="http://www.w3.org/2000/svg" xmlns:xlink="http://www.w3.org/1999/xlink" width="481.212" height="492" viewBox="0 0 481.212 492">
  <defs>
    <clipPath id="clip-path">
      <path id="Trazado_104758" data-name="Trazado 104758" d="M372.67,211.009s-14.246-5.4-21.859-4.421-14.246,4.667-19.4,7.615-21.123,15.474-24.316,17.931-2.7,15.718,7.86,14.246S340,233.116,340,233.116l2.457,32.667s-5.649,8.6-11.79,24.808-9.334,39.3-10.316,46.667-10.316,66.072-10.316,66.072l-11.789,55.264s3.438,2.456,10.807,1.474l38.071-105.862,12.528-34.879,2.456-.982,21.056,141.632,9.579-1.474s4-53.7,4-79.246-3.193-63.861-5.9-79.58-6.633-30.211-6.633-30.211l11.544-19.9s13.756,28,16.948,35.124,17.931,36.6,17.931,36.6-3.439,4.667-3.685,6.385-.982,5.159-1.228,6.633,1.72,1.965,2.7.982,2.457-5.649,2.457-5.649l3.93,7.861s0,7.859,1.474,7.369,1.72-2.948,1.964-3.685,2.211-1.965,2.211-6.141-.982-10.807-2.7-13.263a36.893,36.893,0,0,1-2.948-5.159s-11.79-35.861-13.018-40.772-6.631-23.088-8.843-32.421-5.4-15.475-10.807-19.4S372.67,211.009,372.67,211.009Z" transform="translate(-298.248 -206.469)" fill="#263238" stroke="#263238" stroke-linecap="round" stroke-linejoin="round" stroke-width="1"/>
    </clipPath>
    <clipPath id="clip-path-2">
      <path id="Trazado_104763" data-name="Trazado 104763" d="M411.278,243.431c-2.21-9.333-5.4-15.474-10.807-19.4S371,211.009,371,211.009s-14.246-5.4-21.859-4.421-14.246,4.667-19.4,7.615-21.123,15.474-24.316,17.93-2.7,15.72,7.86,14.247,25.053-13.264,25.053-13.264l2.457,32.667s-5.649,8.6-11.79,24.808c-.065.17-.127.346-.191.519,4.872,7.838,14.352,17.757,31.384,18.638,15.078.779,24.031-4.287,29.122-9.231-.047-.281-.093-.571-.139-.84-2.7-15.72-6.633-30.211-6.633-30.211l11.544-19.9s13.755,28,16.948,35.124c.481,1.072,1.228,2.659,2.142,4.568a22.849,22.849,0,0,0,9.627-4.56c-1.34-4.245-2.364-7.582-2.681-8.85C418.892,270.94,413.489,252.765,411.278,243.431Z" transform="translate(-303.688 -206.469)" fill="#c6ff00" stroke="#263238" stroke-linecap="round" stroke-linejoin="round" stroke-width="1"/>
    </clipPath>
  </defs>
  <g id="Grupo_60144" data-name="Grupo 60144" transform="translate(-237 -529)">
    <rect id="Rectángulo_7536" data-name="Rectángulo 7536" width="427" height="492" rx="20" transform="translate(237 529)" fill="#c4f8ff"/>
    <g id="Grupo_60143" data-name="Grupo 60143" transform="translate(202.194 466.833)">
      <g id="Character" transform="translate(352.965 191.456)">
        <g id="Grupo_60128" data-name="Grupo 60128">
          <path id="Trazado_104753" data-name="Trazado 104753" d="M303.034,399.272s-20.34,14.54-20.34,15.478,2.189,2.189,3.439,1.877c1.092-.273,20.043-.071,24.849-.014a1.281,1.281,0,0,0,1.283-1.095,58.881,58.881,0,0,0,.756-7.959,29.331,29.331,0,0,1,.82-6.813Z" transform="translate(-282.694 -96.965)" fill="#fff" stroke="#263238" stroke-linecap="round" stroke-linejoin="round" stroke-width="1"/>
          <path id="Trazado_104754" data-name="Trazado 104754" d="M373.6,399.272s20.338,14.54,20.338,15.478-2.189,2.189-3.439,1.877c-1.092-.273-20.043-.071-24.849-.014a1.279,1.279,0,0,1-1.281-1.095,58.652,58.652,0,0,1-.757-7.959,29.329,29.329,0,0,0-.82-6.813Z" transform="translate(-258.051 -96.965)" fill="#fff" stroke="#263238" stroke-linecap="round" stroke-linejoin="round" stroke-width="1"/>
          <g id="Grupo_60119" data-name="Grupo 60119" transform="translate(20.34 50.182)">
            <path id="Trazado_104755" data-name="Trazado 104755" d="M372.67,211.009s-14.246-5.4-21.859-4.421-14.246,4.667-19.4,7.615-21.123,15.474-24.316,17.931-2.7,15.718,7.86,14.246S340,233.116,340,233.116l2.457,32.667s-5.649,8.6-11.79,24.808-9.334,39.3-10.316,46.667-10.316,66.072-10.316,66.072l-11.789,55.264s3.438,2.456,10.807,1.474l38.071-105.862,12.528-34.879,2.456-.982,21.056,141.632,9.579-1.474s4-53.7,4-79.246-3.193-63.861-5.9-79.58-6.633-30.211-6.633-30.211l11.544-19.9s13.756,28,16.948,35.124,17.931,36.6,17.931,36.6-3.439,4.667-3.685,6.385-.982,5.159-1.228,6.633,1.72,1.965,2.7.982,2.457-5.649,2.457-5.649l3.93,7.861s0,7.859,1.474,7.369,1.72-2.948,1.964-3.685,2.211-1.965,2.211-6.141-.982-10.807-2.7-13.263a36.893,36.893,0,0,1-2.948-5.159s-11.79-35.861-13.018-40.772-6.631-23.088-8.843-32.421-5.4-15.475-10.807-19.4S372.67,211.009,372.67,211.009Z" transform="translate(-298.248 -206.469)" fill="#21214b"/>
            <g id="Grupo_60118" data-name="Grupo 60118" clip-path="url(#clip-path)">
              <g id="Grupo_60117" data-name="Grupo 60117" transform="translate(0 59.314)" opacity="0.2">
                <path id="Trazado_104756" data-name="Trazado 104756" d="M367.9,432.028l.581-.089-6.053-55.265s7.192,9.808,7.192,6.538c0-2.828-17.135-68.319-21.749-85.906Z" transform="translate(-282.981 -237.834)" fill="#fff"/>
                <path id="Trazado_104757" data-name="Trazado 104757" d="M320.353,323.3c-.982,7.369-10.316,66.072-10.316,66.072l-11.789,55.264a4.86,4.86,0,0,0,.476.277c5.076-12.586,32.666-81.245,33.853-89.555,1.308-9.154-10.461,13.077-10.461,13.077l16.346-86.307c1.962-10.461,4-30.3,4-30.3s-5.649,8.6-11.79,24.808S321.335,315.934,320.353,323.3Z" transform="translate(-298.248 -251.827)" fill="#fff"/>
              </g>
            </g>
            <path id="Trazado_104759" data-name="Trazado 104759" d="M372.67,211.009s-14.246-5.4-21.859-4.421-14.246,4.667-19.4,7.615-21.123,15.474-24.316,17.931-2.7,15.718,7.86,14.246S340,233.116,340,233.116l2.457,32.667s-5.649,8.6-11.79,24.808-9.334,39.3-10.316,46.667-10.316,66.072-10.316,66.072l-11.789,55.264s3.438,2.456,10.807,1.474l38.071-105.862,12.528-34.879,2.456-.982,21.056,141.632,9.579-1.474s4-53.7,4-79.246-3.193-63.861-5.9-79.58-6.633-30.211-6.633-30.211l11.544-19.9s13.756,28,16.948,35.124,17.931,36.6,17.931,36.6-3.439,4.667-3.685,6.385-.982,5.159-1.228,6.633,1.72,1.965,2.7.982,2.457-5.649,2.457-5.649l3.93,7.861s0,7.859,1.474,7.369,1.72-2.948,1.964-3.685,2.211-1.965,2.211-6.141-.982-10.807-2.7-13.263a36.893,36.893,0,0,1-2.948-5.159s-11.79-35.861-13.018-40.772-6.631-23.088-8.843-32.421-5.4-15.475-10.807-19.4S372.67,211.009,372.67,211.009Z" transform="translate(-298.248 -206.469)" fill="none" stroke="#263238" stroke-linecap="round" stroke-linejoin="round" stroke-width="1"/>
          </g>
          <path id="Trazado_104760" data-name="Trazado 104760" d="M399.008,316.957c-.246,1.474,1.72,1.965,2.7.982s2.457-5.649,2.457-5.649l3.93,7.861s0,7.859,1.474,7.367,1.72-2.946,1.964-3.684,2.211-1.965,2.211-6.141-.982-10.807-2.7-13.263a36.893,36.893,0,0,1-2.948-5.159s-8.365-25.445-11.736-36.4l-11.283,2.482c.357.766.669,1.445.913,1.99,3.193,7.123,17.931,36.6,17.931,36.6s-3.439,4.667-3.685,6.385S399.254,315.483,399.008,316.957Z" transform="translate(-251.193 -138.933)" fill="#fff" stroke="#263238" stroke-linecap="round" stroke-linejoin="round" stroke-width="1"/>
          <g id="Grupo_60122" data-name="Grupo 60122" transform="translate(27.453 50.182)">
            <g id="Grupo_60121" data-name="Grupo 60121">
              <path id="Trazado_104761" data-name="Trazado 104761" d="M411.278,243.431c-2.21-9.333-5.4-15.474-10.807-19.4S371,211.009,371,211.009s-14.246-5.4-21.859-4.421-14.246,4.667-19.4,7.615-21.123,15.474-24.316,17.93-2.7,15.72,7.86,14.247,25.053-13.264,25.053-13.264l2.457,32.667s-5.649,8.6-11.79,24.808c-.065.17-.127.346-.191.519,4.872,7.838,14.352,17.757,31.384,18.638,15.078.779,24.031-4.287,29.122-9.231-.047-.281-.093-.571-.139-.84-2.7-15.72-6.633-30.211-6.633-30.211l11.544-19.9s13.755,28,16.948,35.124c.481,1.072,1.228,2.659,2.142,4.568a22.849,22.849,0,0,0,9.627-4.56c-1.34-4.245-2.364-7.582-2.681-8.85C418.892,270.94,413.489,252.765,411.278,243.431Z" transform="translate(-303.688 -206.469)" fill="#ffca28"/>
              <path id="Trazado_104764" data-name="Trazado 104764" d="M411.278,243.431c-2.21-9.333-5.4-15.474-10.807-19.4S371,211.009,371,211.009s-14.246-5.4-21.859-4.421-14.246,4.667-19.4,7.615-21.123,15.474-24.316,17.93-2.7,15.72,7.86,14.247,25.053-13.264,25.053-13.264l2.457,32.667s-5.649,8.6-11.79,24.808c-.065.17-.127.346-.191.519,4.872,7.838,14.352,17.757,31.384,18.638,15.078.779,24.031-4.287,29.122-9.231-.047-.281-.093-.571-.139-.84-2.7-15.72-6.633-30.211-6.633-30.211l11.544-19.9s13.755,28,16.948,35.124c.481,1.072,1.228,2.659,2.142,4.568a22.849,22.849,0,0,0,9.627-4.56c-1.34-4.245-2.364-7.582-2.681-8.85C418.892,270.94,413.489,252.765,411.278,243.431Z" transform="translate(-303.688 -206.469)" fill="none" stroke="#263238" stroke-linecap="round" stroke-linejoin="round" stroke-width="1"/>
            </g>
            <path id="Trazado_104765" data-name="Trazado 104765" d="M369.108,254.036s-8.042,9.766-27,13.787" transform="translate(-291.866 -191.833)" fill="none" stroke="#263238" stroke-linecap="round" stroke-linejoin="round" stroke-width="1"/>
            <path id="Trazado_104766" data-name="Trazado 104766" d="M361.759,254.7s-8.9,4.309-24.7,6.606" transform="translate(-293.42 -191.63)" fill="none" stroke="#263238" stroke-linecap="round" stroke-linejoin="round" stroke-width="1"/>
            <path id="Trazado_104767" data-name="Trazado 104767" d="M347.5,216.259s-2.584,11.488,3.733,20.68" transform="translate(-290.367 -203.457)" fill="none" stroke="#263238" stroke-linecap="round" stroke-linejoin="round" stroke-width="1"/>
            <path id="Trazado_104768" data-name="Trazado 104768" d="M368.331,218.9s1.148,5.169-3.159,12.062" transform="translate(-284.77 -202.645)" fill="none" stroke="#263238" stroke-linecap="round" stroke-linejoin="round" stroke-width="1"/>
            <path id="Trazado_104769" data-name="Trazado 104769" d="M378.9,233.678l-6.089,7.611,10.684-7.9" transform="translate(-282.418 -198.185)" fill="none" stroke="#263238" stroke-linecap="round" stroke-linejoin="round" stroke-width="1"/>
          </g>
          <g id="Grupo_60123" data-name="Grupo 60123" transform="translate(29.936 60.729)">
            <path id="Trazado_104770" data-name="Trazado 104770" d="M324.726,225.581l-2.946,11.3a9.335,9.335,0,0,1-10.316,2.456c-6.633-2.21-6.633-7.613-4.913-10.561s10.316-7.615,10.316-7.615S326.938,218.212,324.726,225.581Z" transform="translate(-305.586 -212.674)" fill="#fff" stroke="#263238" stroke-linecap="round" stroke-linejoin="round" stroke-width="1"/>
            <path id="Trazado_104771" data-name="Trazado 104771" d="M330.289,215.16s-1.964,4.175-3.684,7.859-5.9,4.913-5.9,4.913-.246,7.123-3.93,7.613-6.387-2.21-4.913-9.333a14.343,14.343,0,0,1,10.316-11.3A18.016,18.016,0,0,1,330.289,215.16Z" transform="translate(-303.78 -214.534)" fill="#fff" stroke="#263238" stroke-linecap="round" stroke-linejoin="round" stroke-width="1"/>
          </g>
          <path id="Trazado_104772" data-name="Trazado 104772" d="M351.514,201.187s-.49,10.562-.736,17.931,5.9,16.7,12.772,12.772,8.656-24.216,8.656-24.216-1.778,3.829-9.638-1.329S351.514,201.187,351.514,201.187Z" transform="translate(-261.748 -157.912)" fill="#fff" stroke="#263238" stroke-linecap="round" stroke-linejoin="round" stroke-width="1"/>
          <path id="Trazado_104773" data-name="Trazado 104773" d="M309.8,225.026s-2.7,3.192,0,5.9,4.175,2.21,3.685-.492-.492-4.175,0-5.159S311.027,223.061,309.8,225.026Z" transform="translate(-274.724 -150.899)" fill="#fff" stroke="#263238" stroke-linecap="round" stroke-linejoin="round" stroke-width="1"/>
          <path id="Trazado_104774" data-name="Trazado 104774" d="M310.3,219.708a11.409,11.409,0,0,0-1.72,4.913c0,2.21,6.631,6.385,8.351,5.4s.492-2.7-1.474-5.158S311.526,219.708,310.3,219.708Z" transform="translate(-274.73 -152.213)" fill="#fff" stroke="#263238" stroke-linecap="round" stroke-linejoin="round" stroke-width="1"/>
          <path id="Trazado_104775" data-name="Trazado 104775" d="M312.339,213.886s-4.667,5.158-3.931,7.367,6.877,8.6,9.088,7.86-.982-4.913-1.72-7.615S313.813,214.132,312.339,213.886Z" transform="translate(-274.806 -154.005)" fill="#fff" stroke="#263238" stroke-linecap="round" stroke-linejoin="round" stroke-width="1"/>
          <g id="Grupo_60124" data-name="Grupo 60124" transform="translate(41.217 46.256)">
            <path id="Trazado_104776" data-name="Trazado 104776" d="M319.616,204.32l-5.4,19.158.982,6.141,4.421-4.667,5.9-18.175s-.246-2.7-2.21-3.193A4.918,4.918,0,0,0,319.616,204.32Z" transform="translate(-314.213 -203.466)" fill="#fff" stroke="#263238" stroke-linecap="round" stroke-linejoin="round" stroke-width="1"/>
            <path id="Trazado_104777" data-name="Trazado 104777" d="M322.274,203.582a4.912,4.912,0,0,0-3.685.738L317.551,208a6.577,6.577,0,0,1,6.015,1.607l.918-2.831S324.238,204.074,322.274,203.582Z" transform="translate(-313.186 -203.466)" fill="#263238" stroke="#263238" stroke-linecap="round" stroke-linejoin="round" stroke-width="1"/>
            <path id="Trazado_104778" data-name="Trazado 104778" d="M315.158,224.687l3.73-3.937a7.011,7.011,0,0,0-4.555-1.227Z" transform="translate(-314.176 -198.535)" fill="#263238" stroke="#263238" stroke-linecap="round" stroke-linejoin="round" stroke-width="1"/>
          </g>
          <path id="Trazado_104779" data-name="Trazado 104779" d="M327.626,209.582s-8.843,4.912-9.088,7.367,1.965,3.439,5.4,2.457,4.913-2.211,6.387-5.159S329.1,209.09,327.626,209.582Z" transform="translate(-271.671 -155.35)" fill="#fff" stroke="#263238" stroke-linecap="round" stroke-linejoin="round" stroke-width="1"/>
          <path id="Trazado_104780" data-name="Trazado 104780" d="M318.331,219.708s-.738-8.105-1.72-10.807-5.4-.246-5.4,2.7.49,10.315,3.93,10.561S318.331,219.708,318.331,219.708Z" transform="translate(-273.921 -155.897)" fill="#fff" stroke="#263238" stroke-linecap="round" stroke-linejoin="round" stroke-width="1"/>
          <g id="Grupo_60126" data-name="Grupo 60126" transform="translate(68.568)">
            <path id="Trazado_104781" data-name="Trazado 104781" d="M370.507,169.126s-15.816,2.894-22.567,10.03-4.243,21.409-5.594,27.775-4.436,9.258-6.364,9.258-.772,5.979,5.4,6.365,7.33-.965,7.33-.965-3.086,4.051-3.665,4.051,1.543,1.543,5.786,1.35a8.67,8.67,0,0,0,8.1-7.715c.386-4.05-1.929-8.871.772-12.537s14.273-7.908,15.237-8.873,7.33,7.715,5.594,13.31-4.629,10.994-4.437,13.115a6.194,6.194,0,0,0,3.858,4.823c1.929.772,3.665,1.35,3.665,1.35s-1.737-3.472-.194-5.593,6.75-.772,7.908-5.98a30.951,30.951,0,0,0,.579-9.643s2.121,1.929,4.05,2.121a6.05,6.05,0,0,0,3.472-.772l-2.7-2.121s3.858-.965,5.4-2.315a4.944,4.944,0,0,0,1.737-2.315s-4.823-1.157-7.137-9.452-1.735-14.851-8.873-20.638S373.593,167,370.507,169.126Z" transform="translate(-335.129 -168.094)" fill="#21214b" stroke="#263238" stroke-linecap="round" stroke-linejoin="round" stroke-width="1"/>
            <g id="Grupo_60125" data-name="Grupo 60125" transform="translate(9.656 7.364)">
              <path id="Trazado_104782" data-name="Trazado 104782" d="M372.88,174.282a29.9,29.9,0,0,1,.364,6.918c-.364,2.547-11.287,11.65-20.753,13.834s-8.01,16.384-8.01,16.384" transform="translate(-341.932 -173.554)" fill="none" stroke="#fff" stroke-linecap="round" stroke-linejoin="round" stroke-width="1"/>
              <path id="Trazado_104783" data-name="Trazado 104783" d="M370.547,173.725s-.363,4.369-12.379,7.281-15.656,6.189-15.656,14.564" transform="translate(-342.513 -173.725)" fill="none" stroke="#fff" stroke-linecap="round" stroke-linejoin="round" stroke-width="1"/>
              <path id="Trazado_104784" data-name="Trazado 104784" d="M368.5,178.458s-2.912,8.738,6.918,16.747,14.2,7.281,14.2,7.281" transform="translate(-334.641 -172.269)" fill="none" stroke="#fff" stroke-linecap="round" stroke-linejoin="round" stroke-width="1"/>
            </g>
          </g>
          <g id="Grupo_60127" data-name="Grupo 60127" transform="translate(84.366 20.899)">
            <path id="Trazado_104785" data-name="Trazado 104785" d="M373.54,184.076a15.05,15.05,0,0,1-6.75,6.171c-5.015,2.508-11.959,5.208-12.73,6.558a8.6,8.6,0,0,0-.964,2.315s-1.157-5.207-3.858-2.315-2.508,8.1-.579,10.222,3.28,1.929,3.28,1.929.772,5.594,3.086,9.066,8.486,8.1,10.414,7.715,11.573-6.944,13.31-10.8,3.278-10.994,4.242-13.116a14.34,14.34,0,0,0,1.157-4.05S374.12,187.547,373.54,184.076Z" transform="translate(-347.21 -184.076)" fill="#fff" stroke="#263238" stroke-linecap="round" stroke-linejoin="round" stroke-width="1"/>
            <path id="Trazado_104786" data-name="Trazado 104786" d="M367.935,198.53a11.81,11.81,0,0,0-.578,3.665c.192,1.156.578,3.086-1.929,2.507l-2.508-.579" transform="translate(-342.376 -179.629)" fill="none" stroke="#263238" stroke-linecap="round" stroke-linejoin="round" stroke-width="1"/>
            <path id="Trazado_104787" data-name="Trazado 104787" d="M358.643,204.725A8.769,8.769,0,0,0,365.779,208" transform="translate(-343.692 -177.723)" fill="none" stroke="#263238" stroke-linecap="round" stroke-linejoin="round" stroke-width="1"/>
            <path id="Trazado_104788" data-name="Trazado 104788" d="M366.177,194.085s-2.508-3.858-6.944-2.894" transform="translate(-343.51 -181.934)" fill="none" stroke="#263238" stroke-linecap="round" stroke-linejoin="round" stroke-width="1"/>
            <path id="Trazado_104789" data-name="Trazado 104789" d="M368.083,194.333s4.629-1.543,5.979,1.929" transform="translate(-340.787 -181.025)" fill="none" stroke="#263238" stroke-linecap="round" stroke-linejoin="round" stroke-width="1"/>
            <path id="Trazado_104790" data-name="Trazado 104790" d="M361.885,197.123c-.1,1.114-.735,1.969-1.424,1.909s-1.17-1.012-1.074-2.126.735-1.969,1.424-1.909S361.981,196.009,361.885,197.123Z" transform="translate(-343.467 -180.717)" fill="#263238"/>
            <path id="Trazado_104791" data-name="Trazado 104791" d="M369.555,199.188c-.1,1.114-.735,1.969-1.424,1.909s-1.17-1.012-1.074-2.126.735-1.969,1.424-1.909S369.651,198.074,369.555,199.188Z" transform="translate(-341.107 -180.081)" fill="#263238"/>
          </g>
        </g>
      </g>
      <g id="Sketch_Lines" data-name="Sketch Lines" transform="translate(93.405 92.164)">
        <g id="Grupo_60142" data-name="Grupo 60142">
          <g id="Grupo_60130" data-name="Grupo 60130" transform="translate(21.936 77.286)">
            <g id="Grupo_60129" data-name="Grupo 60129">
              <path id="Trazado_104792" data-name="Trazado 104792" d="M143.158,179.227a7.637,7.637,0,0,1-.855-.047,6.908,6.908,0,0,1-5.314-3.493,3.174,3.174,0,0,1-.405-1.227c-4.041,2.635-6.583,3.634-8.682,3.212a4.108,4.108,0,0,1-2.783-1.984,3.3,3.3,0,0,1-.26-3.412l-7.931,4.579a3.183,3.183,0,0,1-4.348-1.165c-1.027-1.777-.605-3.5.9-5.409q-1.595,1.185-3.346,2.449c-1.13.819-2.384,1.726-3,2.218l-.354.4a3.185,3.185,0,0,1-5.139-.522c-.918-1.593-.639-2.712.672-4.034.265-.3.591-.656.97-1.068a3.133,3.133,0,0,1-1.534-1.346c-.037-.056-.073-.115-.107-.174-1.425-2.47-.258-5.033.985-7.11a3.241,3.241,0,0,1-.985-1.053,3.185,3.185,0,0,1,1.986-4.682c.466-.265,1.369-.84,2.163-1.38a3.182,3.182,0,0,1,4.548,1.04,5.281,5.281,0,0,1,.426,4.242l9.367-5.41a3.184,3.184,0,0,1,2.324-.34c2.834-1.514,5.576-2.387,7.908-2.159a7.072,7.072,0,0,1,5.592,3.663,3.524,3.524,0,0,1,.231,3.374l7.864-4.54a3.184,3.184,0,0,1,4.531,3.981c5.283-3.812,7.715-5.037,9.856-4.6a3.7,3.7,0,0,1,2.5,1.785c.579,1,1.832,3.175-1.542,7.554,2.873-2.56,5.747-5.367,8.326-8.135a3.183,3.183,0,0,1,5.086.579c1.415,2.451.466,3.712-7.626,11.495a165.862,165.862,0,0,0,15.491-12.28,3.183,3.183,0,0,1,4.875.783,2.966,2.966,0,0,1,.262,2.954l7.137-4.121a3.183,3.183,0,0,1,3.662,5.174c-3.68,3.152-7.668,6.752-10.782,9.753,1.4-.859,3.073-1.958,5.074-3.362,3.975-4.455,10.375-8.708,15.156-11.547l.005.01a2.651,2.651,0,0,1,2.2-.405,3.185,3.185,0,0,1,1.083,5.847c-.259.2-.762.607-1.461,1.168-4.943,3.979-9.181,7.224-12.818,9.795a9.788,9.788,0,0,0-1.146,1.535c3.881-1.291,12.749-8.582,16.775-11.892,6.857-5.639,8.56-6.954,10.749-6.561A3.41,3.41,0,0,1,223.784,155a6.246,6.246,0,0,1,.917,3.355l7.833-4.522a3.183,3.183,0,0,1,4.307,4.419l7.656-4.42a3.183,3.183,0,0,1,4.768,2.546c4.565-2.81,6.91-3.617,8.811-3.2a3.881,3.881,0,0,1,1.67.815c3.259-1.85,6.41-2.966,9.054-2.691a7.1,7.1,0,0,1,5.361,3.259c2.924-1.882,5.407-2.77,7.685-2.406a5.649,5.649,0,0,1,4.055,2.834c1.495,2.592.612,5.508-3.374,9.64a131.188,131.188,0,0,0,11.306-10.28,3.185,3.185,0,0,1,5.029.638,6.662,6.662,0,0,1,.727,4.743c2.72-1.87,5.466-3.818,8.063-5.721a3.183,3.183,0,0,1,4.638.976,5.994,5.994,0,0,1,.808,2.877l7.005-4.043a3.18,3.18,0,0,1,4.348,1.165A3.461,3.461,0,0,1,324.83,158l7.245-4.182a3.18,3.18,0,0,1,4.347,1.165,4.4,4.4,0,0,1-.19,4.971c2.286-1.819,4.615-3.764,6.9-5.771a3.185,3.185,0,0,1,4.583.395c2.687-2.052,5.231-3.235,7.728-2.945a6.221,6.221,0,0,1,4.647,3.094c2.759-2.06,5.343-3.242,7.82-2.934a6.044,6.044,0,0,1,4.572,3.186,3.187,3.187,0,0,1,.415,1.865c4.586-3.043,7.314-4.217,9.457-3.771a3.955,3.955,0,0,1,2.659,1.9,5.535,5.535,0,0,1,.69,3.851l8.693-5.019a3.183,3.183,0,0,1,4.349,1.166c2.347,4.069-2.4,6.885-7.888,10.145-2.583,1.533-8.343,4.952-9.393,6.885,3.809-.625,15.037-8.484,25.253-17.794a3.183,3.183,0,0,1,4.9.762c1.1,1.911.884,4.007-.2,6.15a5.408,5.408,0,0,1,.658.91q1.381,2.393-.439,6.023a3.188,3.188,0,0,1-.709,4.959l-6.574,3.8a3.183,3.183,0,0,1-4.1-4.71c-2.551,1.785-5.147,3.393-7.392,4.7a3.186,3.186,0,0,1-4.113-.787c-.056-.072-.109-.145-.158-.221-3.42,1.809-6.545,2.869-8.819,2.517a5.434,5.434,0,0,1-3.967-2.665,6.387,6.387,0,0,1-.928-3.218l-7.6,4.385a3.185,3.185,0,0,1-4.348-1.164,5.945,5.945,0,0,1-.83-3.206c-6.051,4.311-8.317,5.407-10.456,4.963a3.635,3.635,0,0,1-2.444-1.755,5.365,5.365,0,0,1-.543-1.291c-3.2,2.795-5.72,4.2-8.211,3.883a5.053,5.053,0,0,1-3.779-2.589,3.2,3.2,0,0,1-.371-1c-2.982,2.621-5.464,4-7.9,3.712a5.229,5.229,0,0,1-3.9-2.606c-3.386,1.754-6.427,2.76-8.6,2.4a5.154,5.154,0,0,1-3.71-2.508,5.1,5.1,0,0,1-.744-2.571l-6.474,3.737a3.183,3.183,0,0,1-4.348-1.165,4.061,4.061,0,0,1-.52-2.932l-1.369.79c-2.64,1.648-4.871,2.857-5.836,3.366a3.185,3.185,0,0,1-4.645-2.415q-6.655,3.56-9.16,3.043a3.926,3.926,0,0,1-2.145-1.219c-3.337,1.826-6.49,2.9-9.019,2.585a6.425,6.425,0,0,1-4.863-3.213c-1.462-2.52.689-4.071,2.417-5.316,8.414-6.064,12.052-9.465,13.608-11.328-3.327,1.746-9.181,7.018-12.291,9.818-7.034,6.333-10.546,9.363-13.763,8.848a4.067,4.067,0,0,1-2.933-2.02,6.836,6.836,0,0,1-.642-5.368q-1.151,1.114-2.273,2.256l-3.484,3.7A3.184,3.184,0,0,1,239,171.951c.51-.566,1.35-1.484,2.441-2.628-.109.076-.216.15-.32.225-10.009,7.012-11.968,8.22-14.145,7.74a3.408,3.408,0,0,1-2.213-1.614,3.187,3.187,0,0,1-.069-3.059l-7.318,4.226a3.182,3.182,0,0,1-4.348-1.165,3.492,3.492,0,0,1-.517-2.933l-7.1,4.1a3.184,3.184,0,0,1-4.349-1.165c-.071-.124-.136-.246-.195-.369-3.669,2.26-6.737,3.4-9.211,2.958a5.282,5.282,0,0,1-3.692-2.588,5.779,5.779,0,0,1-.316-.629c-4.378,2.473-7.459,3.386-9.657,2.974a4.849,4.849,0,0,1-3.379-2.343c-.557-.964-1.081-1.871.131-3.986l-8.926,5.154a3.186,3.186,0,0,1-4.085-.778c-3.2,1.616-6.083,2.523-8.2,2.181a5.389,5.389,0,0,1-2.859-1.368A16.9,16.9,0,0,1,143.158,179.227Zm-18.6-19.661a11.863,11.863,0,0,1-1.729,2.622l.034-.027c1.674-1.284,3.881-2.978,5.469-4.332A14.853,14.853,0,0,0,124.563,159.566Zm-17.42-2.719v0Zm0-.007,0,0Zm0-.007,0,0Zm-.343-.477a3.232,3.232,0,0,1,.341.476A3.272,3.272,0,0,0,106.793,156.357Z" transform="translate(-100.98 -151.265)" fill="#4dd0e1"/>
            </g>
          </g>
          <g id="Grupo_60132" data-name="Grupo 60132" transform="translate(20.024 293.905)">
            <g id="Grupo_60131" data-name="Grupo 60131">
              <path id="Trazado_104793" data-name="Trazado 104793" d="M120.765,331a3.848,3.848,0,0,1-.43-.024,3.48,3.48,0,0,1-2.678-1.76,1.593,1.593,0,0,1-.2-.617c-2.035,1.327-3.316,1.831-4.373,1.618a2.071,2.071,0,0,1-1.4-1,1.662,1.662,0,0,1-.131-1.718l-3.995,2.307a1.605,1.605,0,0,1-2.19-.587,2.268,2.268,0,0,1,.451-2.725q-.8.6-1.686,1.234c-.569.412-1.2.87-1.512,1.118l-.179.2a1.6,1.6,0,0,1-2.588-.264,1.461,1.461,0,0,1,.337-2.031c.135-.15.3-.332.489-.539a1.585,1.585,0,0,1-.773-.677c-.018-.029-.037-.059-.054-.088-.718-1.245-.129-2.537.5-3.583a1.628,1.628,0,0,1-.5-.53,1.6,1.6,0,0,1,.587-2.19,1.577,1.577,0,0,1,.413-.167c.235-.135.689-.424,1.091-.7a1.6,1.6,0,0,1,2.29.523,2.66,2.66,0,0,1,.216,2.138l4.718-2.725a1.605,1.605,0,0,1,1.17-.173,7.392,7.392,0,0,1,3.983-1.087,3.562,3.562,0,0,1,2.818,1.845,1.777,1.777,0,0,1,.116,1.7l3.961-2.288a1.6,1.6,0,0,1,2.283,2.006c2.661-1.92,3.886-2.537,4.965-2.319a1.86,1.86,0,0,1,1.259.9c.292.506.923,1.6-.777,3.807,1.448-1.291,2.9-2.7,4.194-4.1a1.605,1.605,0,0,1,2.563.292c.713,1.234.234,1.87-3.842,5.79a83.634,83.634,0,0,0,7.8-6.187,1.6,1.6,0,0,1,2.456.395,1.493,1.493,0,0,1,.132,1.488l3.595-2.075a1.6,1.6,0,0,1,1.845,2.606c-1.853,1.588-3.863,3.4-5.432,4.913.7-.433,1.548-.986,2.557-1.693a34.5,34.5,0,0,1,7.636-5.817l0,.005a1.328,1.328,0,0,1,1.106-.2,1.6,1.6,0,0,1,.547,2.945c-.131.1-.384.3-.736.589-2.49,2-4.625,3.638-6.457,4.934a4.962,4.962,0,0,0-.577.773c1.955-.65,6.422-4.323,8.45-5.99,3.455-2.84,4.313-3.5,5.415-3.3a1.715,1.715,0,0,1,1.183.829,3.153,3.153,0,0,1,.462,1.691l3.947-2.279a1.6,1.6,0,0,1,2.169,2.227l3.856-2.227a1.6,1.6,0,0,1,2.4,1.283c2.3-1.416,3.481-1.822,4.438-1.611a1.962,1.962,0,0,1,.842.411,8.159,8.159,0,0,1,4.561-1.356,3.578,3.578,0,0,1,2.7,1.642,5.694,5.694,0,0,1,3.872-1.212,2.845,2.845,0,0,1,2.043,1.428c.753,1.305.309,2.775-1.7,4.855a66.132,66.132,0,0,0,5.7-5.178,1.6,1.6,0,0,1,2.533.322,3.348,3.348,0,0,1,.366,2.389c1.37-.941,2.754-1.924,4.063-2.882a1.6,1.6,0,0,1,2.336.492,3.017,3.017,0,0,1,.408,1.449L209.9,318.2a1.6,1.6,0,0,1,2.19.588,1.743,1.743,0,0,1,.19,1.518l3.65-2.107a1.6,1.6,0,0,1,2.189.587,2.215,2.215,0,0,1-.1,2.5c1.152-.917,2.325-1.9,3.476-2.907a1.6,1.6,0,0,1,2.308.2,5.578,5.578,0,0,1,3.894-1.484,3.135,3.135,0,0,1,2.341,1.559,5.682,5.682,0,0,1,3.94-1.478,3.043,3.043,0,0,1,2.3,1.6,1.59,1.59,0,0,1,.209.939c2.311-1.533,3.685-2.124,4.765-1.9a2,2,0,0,1,1.339.96,2.8,2.8,0,0,1,.348,1.941l4.379-2.529a1.605,1.605,0,0,1,2.19.587c1.182,2.05-1.207,3.469-3.974,5.112-1.3.772-4.2,2.5-4.731,3.468,1.92-.315,7.575-4.273,12.721-8.964a1.6,1.6,0,0,1,2.469.384,3.125,3.125,0,0,1-.1,3.1,2.758,2.758,0,0,1,.331.459,3.124,3.124,0,0,1-.221,3.034,1.635,1.635,0,0,1,.229.307,1.6,1.6,0,0,1-.586,2.19l-3.312,1.913a1.6,1.6,0,0,1-2.067-2.373c-1.285.9-2.593,1.709-3.724,2.37a1.6,1.6,0,0,1-2.071-.4c-.029-.037-.055-.073-.08-.111a8.032,8.032,0,0,1-4.442,1.267,2.735,2.735,0,0,1-2-1.342,3.223,3.223,0,0,1-.468-1.622l-3.826,2.21a1.6,1.6,0,0,1-2.19-.587,2.993,2.993,0,0,1-.418-1.615c-3.048,2.172-4.19,2.724-5.267,2.5a1.832,1.832,0,0,1-1.231-.883,2.688,2.688,0,0,1-.273-.651c-1.612,1.408-2.882,2.117-4.136,1.956a2.545,2.545,0,0,1-1.9-1.305,1.563,1.563,0,0,1-.187-.5c-1.5,1.319-2.753,2.016-3.982,1.87a2.637,2.637,0,0,1-1.965-1.314,7.84,7.84,0,0,1-4.335,1.211,2.659,2.659,0,0,1-2.244-2.559l-3.261,1.883a1.6,1.6,0,0,1-2.19-.587,2.047,2.047,0,0,1-.262-1.476l-.69.4c-1.33.83-2.453,1.44-2.94,1.7a1.6,1.6,0,0,1-2.152-.642,1.624,1.624,0,0,1-.187-.575q-3.352,1.795-4.615,1.534a1.979,1.979,0,0,1-1.08-.615,8.136,8.136,0,0,1-4.544,1.3,3.233,3.233,0,0,1-2.449-1.619c-.736-1.27.347-2.05,1.217-2.677,4.238-3.056,6.07-4.769,6.855-5.707a43.282,43.282,0,0,0-6.192,4.946c-3.544,3.191-5.313,4.717-6.933,4.457a2.048,2.048,0,0,1-1.478-1.017,3.439,3.439,0,0,1-.323-2.7q-.581.561-1.146,1.136l-1.755,1.866a1.6,1.6,0,0,1-2.36-2.171c.258-.286.68-.749,1.231-1.325l-.162.113c-5.042,3.532-6.028,4.141-7.126,3.9a1.717,1.717,0,0,1-1.114-.813,1.6,1.6,0,0,1-.035-1.54l-3.686,2.129a1.6,1.6,0,0,1-2.19-.587,1.756,1.756,0,0,1-.26-1.476l-3.577,2.065a1.6,1.6,0,0,1-2.19-.587c-.035-.063-.069-.124-.1-.186-1.849,1.138-3.395,1.714-4.641,1.489a2.664,2.664,0,0,1-1.86-1.3,3.007,3.007,0,0,1-.16-.318c-2.2,1.246-3.757,1.705-4.865,1.5a2.442,2.442,0,0,1-1.7-1.181,1.643,1.643,0,0,1,.067-2.007l-4.5,2.6a1.605,1.605,0,0,1-2.058-.392,7.513,7.513,0,0,1-4.132,1.1,2.715,2.715,0,0,1-1.44-.689A8.5,8.5,0,0,1,120.765,331Zm-9.368-9.9a5.922,5.922,0,0,1-.871,1.321l.018-.013c.843-.647,1.954-1.5,2.754-2.183A7.539,7.539,0,0,0,111.4,321.1Zm-8.775-1.369h0Zm0,0v0Zm0,0h0Zm-.173-.241a1.685,1.685,0,0,1,.171.239A1.641,1.641,0,0,0,102.446,319.482Z" transform="translate(-99.518 -316.916)" fill="#4dd0e1"/>
            </g>
          </g>
          <g id="Grupo_60134" data-name="Grupo 60134" transform="translate(30.224 347.46)">
            <g id="Grupo_60133" data-name="Grupo 60133">
              <path id="Trazado_104794" data-name="Trazado 104794" d="M128.565,371.956a3.883,3.883,0,0,1-.43-.024,3.481,3.481,0,0,1-2.677-1.759,1.577,1.577,0,0,1-.2-.619c-2.036,1.327-3.316,1.831-4.374,1.618a2.069,2.069,0,0,1-1.4-1,1.662,1.662,0,0,1-.131-1.718l-3.995,2.307a1.6,1.6,0,0,1-2.19-.587,2.267,2.267,0,0,1,.451-2.725q-.8.6-1.686,1.234c-.57.413-1.2.87-1.513,1.118l-.178.2a1.6,1.6,0,0,1-2.589-.264,1.462,1.462,0,0,1,.339-2.031c.133-.15.3-.332.489-.539a1.579,1.579,0,0,1-.773-.677c-.018-.029-.037-.059-.054-.088-.719-1.245-.131-2.537.5-3.583a1.6,1.6,0,0,1,.09-2.72,1.585,1.585,0,0,1,.415-.167c.234-.135.689-.424,1.089-.7a1.6,1.6,0,0,1,2.291.524,2.651,2.651,0,0,1,.214,2.137l4.719-2.725a1.6,1.6,0,0,1,1.17-.171,7.4,7.4,0,0,1,3.983-1.088,3.565,3.565,0,0,1,2.818,1.845,1.78,1.78,0,0,1,.116,1.7l3.961-2.288a1.6,1.6,0,0,1,2.282,2.006c2.662-1.92,3.888-2.537,4.967-2.319a1.861,1.861,0,0,1,1.259.9c.292.5.923,1.6-.777,3.805,1.448-1.289,2.9-2.7,4.194-4.1a1.605,1.605,0,0,1,2.563.292c.711,1.234.234,1.87-3.843,5.79a83.468,83.468,0,0,0,7.8-6.187,1.6,1.6,0,0,1,2.456.395,1.5,1.5,0,0,1,.132,1.488l3.595-2.075a1.6,1.6,0,0,1,1.845,2.606c-1.854,1.588-3.863,3.4-5.432,4.913.7-.433,1.548-.986,2.557-1.693a34.518,34.518,0,0,1,7.634-5.817l0,0a1.333,1.333,0,0,1,1.106-.2,1.6,1.6,0,0,1,.545,2.945c-.129.1-.383.3-.735.588-2.49,2-4.625,3.639-6.457,4.934a4.877,4.877,0,0,0-.577.773c1.955-.65,6.422-4.323,8.45-5.99,3.455-2.84,4.311-3.5,5.415-3.3a1.715,1.715,0,0,1,1.183.829,3.153,3.153,0,0,1,.462,1.691l3.945-2.278a1.6,1.6,0,0,1,2.171,2.226l3.856-2.227a1.6,1.6,0,0,1,2.4,1.283c2.3-1.416,3.481-1.822,4.438-1.611a1.949,1.949,0,0,1,.841.411,8.164,8.164,0,0,1,4.561-1.356,3.581,3.581,0,0,1,2.7,1.643,5.693,5.693,0,0,1,3.871-1.212,2.845,2.845,0,0,1,2.044,1.428c.753,1.305.307,2.775-1.7,4.855a66.327,66.327,0,0,0,5.7-5.178,1.6,1.6,0,0,1,2.533.322,3.355,3.355,0,0,1,.366,2.389c1.37-.942,2.754-1.924,4.063-2.882a1.6,1.6,0,0,1,2.336.492,3.017,3.017,0,0,1,.408,1.449l3.528-2.037a1.6,1.6,0,0,1,2.19.588,1.743,1.743,0,0,1,.19,1.518l3.648-2.107a1.6,1.6,0,0,1,2.19.587,2.217,2.217,0,0,1-.1,2.5c1.151-.917,2.325-1.9,3.475-2.907a1.6,1.6,0,0,1,2.309.2,5.575,5.575,0,0,1,3.893-1.484,3.137,3.137,0,0,1,2.342,1.559,5.679,5.679,0,0,1,3.939-1.478,3.045,3.045,0,0,1,2.3,1.6,1.6,1.6,0,0,1,.209.939c2.311-1.533,3.684-2.124,4.764-1.9a1.989,1.989,0,0,1,1.339.96,2.8,2.8,0,0,1,.349,1.941l4.378-2.529a1.606,1.606,0,0,1,2.192.587c1.182,2.05-1.207,3.469-3.974,5.112-1.3.771-4.2,2.495-4.731,3.468,1.918-.315,7.574-4.273,12.721-8.964a1.6,1.6,0,0,1,2.469.384,3.128,3.128,0,0,1-.1,3.1,2.754,2.754,0,0,1,.331.459,3.121,3.121,0,0,1-.222,3.034,1.584,1.584,0,0,1,.23.307,1.6,1.6,0,0,1-.586,2.19l-3.312,1.913a1.6,1.6,0,0,1-2.067-2.373c-1.285.9-2.593,1.709-3.724,2.369a1.6,1.6,0,0,1-2.071-.4c-.029-.037-.055-.073-.08-.111a8.035,8.035,0,0,1-4.444,1.267,2.732,2.732,0,0,1-2-1.342,3.224,3.224,0,0,1-.468-1.622l-3.826,2.21a1.6,1.6,0,0,1-2.19-.587,2.993,2.993,0,0,1-.418-1.615c-3.048,2.172-4.19,2.724-5.267,2.5a1.834,1.834,0,0,1-1.232-.883,2.739,2.739,0,0,1-.273-.651c-1.611,1.408-2.881,2.117-4.136,1.956a2.544,2.544,0,0,1-1.9-1.305,1.6,1.6,0,0,1-.187-.5c-1.5,1.319-2.753,2.016-3.981,1.87a2.632,2.632,0,0,1-1.965-1.314,7.843,7.843,0,0,1-4.335,1.211,2.659,2.659,0,0,1-2.244-2.559l-3.261,1.883a1.6,1.6,0,0,1-2.19-.587,2.056,2.056,0,0,1-.263-1.476l-.689.4c-1.33.83-2.453,1.44-2.94,1.7a1.6,1.6,0,0,1-2.339-1.216q-3.354,1.793-4.616,1.533a1.98,1.98,0,0,1-1.079-.615,8.136,8.136,0,0,1-4.544,1.3,3.235,3.235,0,0,1-2.449-1.618c-.738-1.271.347-2.052,1.217-2.678,4.237-3.055,6.07-4.769,6.854-5.707a43.276,43.276,0,0,0-6.191,4.946c-3.544,3.191-5.313,4.717-6.933,4.457a2.046,2.046,0,0,1-1.478-1.017,3.445,3.445,0,0,1-.324-2.7c-.386.374-.769.753-1.144,1.136l-1.755,1.866a1.6,1.6,0,0,1-2.36-2.171c.256-.286.68-.749,1.229-1.325l-.161.112c-5.042,3.532-6.03,4.141-7.126,3.9a1.719,1.719,0,0,1-1.115-.813,1.6,1.6,0,0,1-.034-1.54l-3.686,2.129a1.6,1.6,0,0,1-2.192-.587,1.762,1.762,0,0,1-.259-1.476l-3.577,2.065a1.6,1.6,0,0,1-2.19-.587c-.037-.063-.069-.124-.1-.186-1.848,1.138-3.393,1.714-4.64,1.49a2.664,2.664,0,0,1-1.86-1.3,3.007,3.007,0,0,1-.16-.318c-2.206,1.246-3.757,1.705-4.865,1.5a2.442,2.442,0,0,1-1.7-1.181,1.643,1.643,0,0,1,.067-2.009l-4.5,2.6a1.605,1.605,0,0,1-2.058-.392,7.506,7.506,0,0,1-4.132,1.1,2.71,2.71,0,0,1-1.44-.689A8.5,8.5,0,0,1,128.565,371.956Zm-9.367-9.9a6.013,6.013,0,0,1-.871,1.321l.017-.013c.843-.647,1.955-1.5,2.755-2.182A7.519,7.519,0,0,0,119.2,362.052Zm-8.775-1.369h0Zm0,0v0Zm0,0h0Zm-.173-.241a1.594,1.594,0,0,1,.173.239A1.644,1.644,0,0,0,110.246,360.436Z" transform="translate(-107.318 -357.87)" fill="#4dd0e1"/>
            </g>
          </g>
          <path id="Trazado_104795" data-name="Trazado 104795" d="M217.983,152.839h154.4v20.777H289.459" transform="translate(-43.045 -73.495)" fill="none" stroke="#263238" stroke-miterlimit="10" stroke-width="2"/>
          <path id="Trazado_104796" data-name="Trazado 104796" d="M283.4,173.616H103.555V152.839H211.927" transform="translate(-78.252 -73.495)" fill="none" stroke="#263238" stroke-miterlimit="10" stroke-width="2"/>
          <path id="Trazado_104797" data-name="Trazado 104797" d="M104.16,261.247V179.456h7.369" transform="translate(-78.066 -65.305)" fill="none" stroke="#263238" stroke-miterlimit="10" stroke-width="2"/>
          <path id="Trazado_104798" data-name="Trazado 104798" d="M220.583,256.74H104.16V242" transform="translate(-78.066 -46.061)" fill="none" stroke="#263238" stroke-miterlimit="10" stroke-width="2"/>
          <path id="Trazado_104799" data-name="Trazado 104799" d="M199.085,179.456h39.79v96.528H193.19" transform="translate(-50.673 -65.305)" fill="none" stroke="#263238" stroke-miterlimit="10" stroke-width="2"/>
          <line id="Línea_218" data-name="Línea 218" x2="114.95" transform="translate(33.462 114.15)" fill="none" stroke="#263238" stroke-miterlimit="10" stroke-width="2"/>
          <rect id="Rectángulo_7535" data-name="Rectángulo 7535" width="11.79" height="9.579" transform="translate(31.988 120.782)" fill="none" stroke="#263238" stroke-miterlimit="10" stroke-width="1"/>
          <path id="Trazado_104800" data-name="Trazado 104800" d="M166.142,196.36h93.581v61.9H108.668v-61.9h57.475" transform="translate(-76.679 -60.104)" fill="none" stroke="#263238" stroke-miterlimit="10" stroke-width="1"/>
          <line id="Línea_219" data-name="Línea 219" y1="32.171" x2="78.512" transform="translate(104.532 136.256)" fill="none" stroke="#263238" stroke-miterlimit="10" stroke-width="1"/>
          <line id="Línea_220" data-name="Línea 220" y1="29.725" x2="72.544" transform="translate(31.988 168.427)" fill="none" stroke="#263238" stroke-miterlimit="10" stroke-width="1"/>
          <g id="Grupo_60135" data-name="Grupo 60135" transform="translate(28.699 8.94)">
            <path id="Trazado_104801" data-name="Trazado 104801" d="M220.017,99h185.4v61.9H106.153V99H220.017" transform="translate(-106.153 -99)" fill="none" stroke="#263238" stroke-miterlimit="10" stroke-width="1"/>
            <line id="Línea_221" data-name="Línea 221" y1="32.171" x2="155.541" transform="translate(143.719)" fill="none" stroke="#263238" stroke-miterlimit="10" stroke-width="1"/>
            <line id="Línea_222" data-name="Línea 222" y1="29.725" x2="143.719" transform="translate(0 32.171)" fill="none" stroke="#263238" stroke-miterlimit="10" stroke-width="1"/>
          </g>
          <g id="Grupo_60136" data-name="Grupo 60136" transform="translate(196.157 235.603)">
            <path id="Trazado_104802" data-name="Trazado 104802" d="M265.023,272.332H315.2v61.9H234.209v-61.9h30.814" transform="translate(-234.209 -272.332)" fill="none" stroke="#263238" stroke-miterlimit="10" stroke-width="1"/>
            <line id="Línea_223" data-name="Línea 223" y1="32.171" x2="42.093" transform="translate(38.893)" fill="none" stroke="#263238" stroke-miterlimit="10" stroke-width="1"/>
            <line id="Línea_224" data-name="Línea 224" y1="29.725" x2="38.893" transform="translate(0 32.171)" fill="none" stroke="#263238" stroke-miterlimit="10" stroke-width="1"/>
          </g>
          <g id="Grupo_60137" data-name="Grupo 60137" transform="translate(196.157 308.175)">
            <path id="Trazado_104803" data-name="Trazado 104803" d="M265.023,327.829H315.2v61.9H234.209v-61.9h30.814" transform="translate(-234.209 -327.829)" fill="none" stroke="#263238" stroke-miterlimit="10" stroke-width="1"/>
            <line id="Línea_225" data-name="Línea 225" y1="32.171" x2="42.093" transform="translate(38.893)" fill="none" stroke="#263238" stroke-miterlimit="10" stroke-width="1"/>
            <line id="Línea_226" data-name="Línea 226" y1="29.725" x2="38.893" transform="translate(0 32.171)" fill="none" stroke="#263238" stroke-miterlimit="10" stroke-width="1"/>
          </g>
          <line id="Línea_227" data-name="Línea 227" x2="157.688" transform="translate(26.83 232.048)" fill="none" stroke="#263238" stroke-miterlimit="10" stroke-width="1"/>
          <line id="Línea_228" data-name="Línea 228" x2="74.423" transform="translate(110.095 268.154)" fill="none" stroke="#263238" stroke-miterlimit="10" stroke-width="1"/>
          <line id="Línea_229" data-name="Línea 229" x2="83.265" transform="translate(26.83 268.154)" fill="none" stroke="#263238" stroke-miterlimit="10" stroke-width="1"/>
          <line id="Línea_230" data-name="Línea 230" x2="33.609" transform="translate(29.939 243.466)" fill="none" stroke="#263238" stroke-miterlimit="10" stroke-width="1"/>
          <line id="Línea_231" data-name="Línea 231" x2="64.529" transform="translate(29.939 249.516)" fill="none" stroke="#263238" stroke-miterlimit="10" stroke-width="1"/>
          <line id="Línea_232" data-name="Línea 232" x2="111.582" transform="translate(29.939 255.565)" fill="none" stroke="#263238" stroke-miterlimit="10" stroke-width="1"/>
          <line id="Línea_233" data-name="Línea 233" x2="108.221" transform="translate(29.939 261.951)" fill="none" stroke="#263238" stroke-miterlimit="10" stroke-width="1"/>
          <line id="Línea_234" data-name="Línea 234" x2="157.688" transform="translate(26.83 280.189)" fill="none" stroke="#263238" stroke-miterlimit="10" stroke-width="1"/>
          <line id="Línea_235" data-name="Línea 235" x2="52.165" transform="translate(254.18 207.24)" fill="none" stroke="#263238" stroke-miterlimit="10" stroke-width="1"/>
          <line id="Línea_236" data-name="Línea 236" x2="57.213" transform="translate(197.995 207.24)" fill="none" stroke="#263238" stroke-miterlimit="10" stroke-width="1"/>
          <line id="Línea_237" data-name="Línea 237" x2="23.093" transform="translate(200.131 182.553)" fill="none" stroke="#263238" stroke-miterlimit="10" stroke-width="1"/>
          <line id="Línea_238" data-name="Línea 238" x2="44.339" transform="translate(200.131 188.602)" fill="none" stroke="#263238" stroke-miterlimit="10" stroke-width="1"/>
          <line id="Línea_239" data-name="Línea 239" x2="76.67" transform="translate(200.131 194.652)" fill="none" stroke="#263238" stroke-miterlimit="10" stroke-width="1"/>
          <line id="Línea_240" data-name="Línea 240" x2="74.36" transform="translate(200.131 201.037)" fill="none" stroke="#263238" stroke-miterlimit="10" stroke-width="1"/>
          <line id="Línea_241" data-name="Línea 241" x2="108.35" transform="translate(197.995 219.275)" fill="none" stroke="#263238" stroke-miterlimit="10" stroke-width="1"/>
          <line id="Línea_242" data-name="Línea 242" x2="74.423" transform="translate(110.095 322.19)" fill="none" stroke="#263238" stroke-miterlimit="10" stroke-width="1"/>
          <line id="Línea_243" data-name="Línea 243" x2="83.265" transform="translate(26.83 322.19)" fill="none" stroke="#263238" stroke-miterlimit="10" stroke-width="1"/>
          <line id="Línea_244" data-name="Línea 244" x2="33.609" transform="translate(29.939 297.502)" fill="none" stroke="#263238" stroke-miterlimit="10" stroke-width="1"/>
          <line id="Línea_245" data-name="Línea 245" x2="64.529" transform="translate(29.939 303.552)" fill="none" stroke="#263238" stroke-miterlimit="10" stroke-width="1"/>
          <line id="Línea_246" data-name="Línea 246" x2="111.582" transform="translate(29.939 309.602)" fill="none" stroke="#263238" stroke-miterlimit="10" stroke-width="1"/>
          <line id="Línea_247" data-name="Línea 247" x2="108.221" transform="translate(29.939 315.987)" fill="none" stroke="#263238" stroke-miterlimit="10" stroke-width="1"/>
          <g id="Grupo_60138" data-name="Grupo 60138" transform="translate(26.83 343.924)">
            <line id="Línea_248" data-name="Línea 248" x2="74.423" transform="translate(83.265 24.688)" fill="none" stroke="#263238" stroke-miterlimit="10" stroke-width="1"/>
            <line id="Línea_249" data-name="Línea 249" x2="83.265" transform="translate(0 24.688)" fill="none" stroke="#263238" stroke-miterlimit="10" stroke-width="1"/>
            <line id="Línea_250" data-name="Línea 250" x2="33.609" transform="translate(3.108 0)" fill="none" stroke="#263238" stroke-miterlimit="10" stroke-width="1"/>
            <line id="Línea_251" data-name="Línea 251" x2="64.529" transform="translate(3.108 6.05)" fill="none" stroke="#263238" stroke-miterlimit="10" stroke-width="1"/>
            <line id="Línea_252" data-name="Línea 252" x2="111.582" transform="translate(3.108 12.099)" fill="none" stroke="#263238" stroke-miterlimit="10" stroke-width="1"/>
            <line id="Línea_253" data-name="Línea 253" x2="108.221" transform="translate(3.108 18.485)" fill="none" stroke="#263238" stroke-miterlimit="10" stroke-width="1"/>
          </g>
          <line id="Línea_254" data-name="Línea 254" x2="58.611" transform="translate(248.594 112.805)" fill="none" stroke="#263238" stroke-miterlimit="10" stroke-width="2"/>
          <path id="Trazado_104804" data-name="Trazado 104804" d="M242.968,237.322H237.16V178.427h48.578" transform="translate(-37.144 -65.622)" fill="none" stroke="#263238" stroke-miterlimit="10" stroke-width="2"/>
          <line id="Línea_255" data-name="Línea 255" x1="95.935" transform="translate(205.824 171.7)" fill="none" stroke="#263238" stroke-miterlimit="10" stroke-width="2"/>
          <g id="Grupo_60139" data-name="Grupo 60139" transform="translate(238.561 126.006)">
            <path id="Trazado_104805" data-name="Trazado 104805" d="M273.684,214.495a14.524,14.524,0,0,1-2.8-22.721" transform="translate(-266.636 -187.521)" fill="none" stroke="#263238" stroke-miterlimit="10" stroke-width="1"/>
            <path id="Trazado_104806" data-name="Trazado 104806" d="M293.537,196.779a14.526,14.526,0,0,1-21.511,16.176" transform="translate(-264.978 -185.981)" fill="none" stroke="#263238" stroke-miterlimit="10" stroke-width="1"/>
            <path id="Trazado_104807" data-name="Trazado 104807" d="M269.888,192.775A14.525,14.525,0,0,1,294.2,199.32" transform="translate(-265.635 -188.522)" fill="none" stroke="#263238" stroke-miterlimit="10" stroke-width="1"/>
            <path id="Trazado_104808" data-name="Trazado 104808" d="M274.029,206.2l-.528-11.617,13.2,4.752-8.448,6.336" transform="translate(-264.524 -186.658)" fill="none" stroke="#263238" stroke-miterlimit="10" stroke-width="1"/>
          </g>
          <g id="Grupo_60140" data-name="Grupo 60140" transform="translate(9.4 6.414)">
            <line id="Línea_256" data-name="Línea 256" y2="51.435" transform="translate(0 308.179)" fill="none" stroke="#263238" stroke-miterlimit="10" stroke-width="1"/>
            <line id="Línea_257" data-name="Línea 257" y2="85.96" transform="translate(0 222.219)" fill="none" stroke="#263238" stroke-miterlimit="10" stroke-width="1"/>
            <line id="Línea_258" data-name="Línea 258" y2="81.732" transform="translate(0 140.487)" fill="none" stroke="#263238" stroke-miterlimit="10" stroke-width="1"/>
            <line id="Línea_259" data-name="Línea 259" y2="97.229" fill="none" stroke="#263238" stroke-miterlimit="10" stroke-width="1"/>
          </g>
          <g id="Grupo_60141" data-name="Grupo 60141" transform="translate(0 93.323)">
            <line id="Línea_260" data-name="Línea 260" y2="51.435" transform="translate(0 167.692)" fill="none" stroke="#263238" stroke-miterlimit="10" stroke-width="1"/>
            <line id="Línea_261" data-name="Línea 261" y2="85.96" transform="translate(0 81.732)" fill="none" stroke="#263238" stroke-miterlimit="10" stroke-width="1"/>
            <line id="Línea_262" data-name="Línea 262" y2="81.732" fill="none" stroke="#263238" stroke-miterlimit="10" stroke-width="1"/>
          </g>
          <line id="Línea_263" data-name="Línea 263" x2="159.879" transform="translate(27.582 222.503)" fill="none" stroke="#263238" stroke-miterlimit="10" stroke-width="6"/>
          <line id="Línea_264" data-name="Línea 264" x2="159.879" transform="translate(27.582)" fill="none" stroke="#263238" stroke-miterlimit="10" stroke-width="6"/>
          <line id="Línea_265" data-name="Línea 265" x2="79.651" transform="translate(197.327 302.255)" fill="none" stroke="#263238" stroke-miterlimit="10" stroke-width="6"/>
        </g>
      </g>
    </g>
  </g>
</svg>
