<svg xmlns="http://www.w3.org/2000/svg" xmlns:xlink="http://www.w3.org/1999/xlink" width="520" height="421" viewBox="0 0 520 421">
  <defs>
    <clipPath id="clip-path">
      <path id="Trazado_104676" data-name="Trazado 104676" d="M439.255,359c.265-2.389,1.025-6.573,3.761-9.554,7.775-8.462,17.561-2.453,18.643-6.392.515-1.878-2.674-5.086-6.243-6.149-9.021-2.685-9.1,3.946-11.576,1.952-3.021-2.435,9.551-14.644,4.189-25.545-2.749-5.59-10.661-9.357-14.756-7.189-3.3,1.747-3.881,7.223-3.972,8.324-.457,5.521,4.394,11.663,2.117,15.043-4.26,6.33-3.382-9.429-14.762-6.7-5.933,1.422-6.508,5.372-5.815,6.844,1.156,2.462,5.3.163,10.7,3.538,3.779,2.361,5.909,6.679,5.013,7.851-1.047,1.372-5.764-2.758-10.422-.806-2.705,1.136-4.625,4.282-4.051,5.63.4.951,1.95.706,4.73,1.23,1.559.294,8.876,1.673,10.5,5.864.3.777.842,2.774-.851,6.055Z" transform="translate(-410.611 -305.5)" fill="none"/>
    </clipPath>
  </defs>
  <g id="Grupo_60077" data-name="Grupo 60077" transform="translate(-953 -1394)">
    <rect id="Rectángulo_7515" data-name="Rectángulo 7515" width="455" height="421" rx="15" transform="translate(953 1394)" fill="#c4f8ff"/>
    <g id="Grupo_60076" data-name="Grupo 60076" transform="translate(472.949 1247.416)">
      <g id="Grupo_60049" data-name="Grupo 60049" transform="translate(535.804 192.742)">
        <ellipse id="Elipse_1618" data-name="Elipse 1618" cx="71.243" cy="4.064" rx="71.243" ry="4.064" transform="translate(0 202.372)" fill="#afccd3"/>
        <g id="Grupo_60048" data-name="Grupo 60048" transform="translate(0 0)">
          <path id="Trazado_104633" data-name="Trazado 104633" d="M518.556,201.258V386.039a10.824,10.824,0,0,1-10.828,10.828H386.9a10.824,10.824,0,0,1-10.828-10.828V201.258A10.837,10.837,0,0,1,386.9,190.43H507.728A10.837,10.837,0,0,1,518.556,201.258Z" transform="translate(-376.07 -190.43)" fill="#152235"/>
          <rect id="Rectángulo_7486" data-name="Rectángulo 7486" width="120.82" height="184.784" rx="1.555" transform="translate(131.651 195.612) rotate(180)" fill="#fff"/>
          <rect id="Rectángulo_7487" data-name="Rectángulo 7487" width="24.055" height="101.849" transform="translate(20.316 117.751) rotate(-90)" fill="#4dd0e1"/>
          <g id="Grupo_60045" data-name="Grupo 60045" transform="translate(20.316 59.03)">
            <rect id="Rectángulo_7488" data-name="Rectángulo 7488" width="32.149" height="32.149" transform="translate(0 32.149) rotate(-90)" fill="#4dd0e1"/>
            <rect id="Rectángulo_7489" data-name="Rectángulo 7489" width="32.149" height="32.149" transform="translate(34.85 32.149) rotate(-90)" fill="#4dd0e1"/>
            <rect id="Rectángulo_7490" data-name="Rectángulo 7490" width="32.149" height="32.149" transform="translate(69.7 32.149) rotate(-90)" fill="#4dd0e1"/>
          </g>
          <g id="Grupo_60046" data-name="Grupo 60046" transform="translate(20.316 24.365)">
            <rect id="Rectángulo_7491" data-name="Rectángulo 7491" width="32.149" height="32.149" transform="translate(0 32.149) rotate(-90)" fill="#ea5d3f"/>
            <rect id="Rectángulo_7492" data-name="Rectángulo 7492" width="32.149" height="32.149" transform="translate(34.85 32.149) rotate(-90)" fill="#4dd0e1"/>
            <rect id="Rectángulo_7493" data-name="Rectángulo 7493" width="32.149" height="32.149" transform="translate(69.7 32.149) rotate(-90)" fill="#4dd0e1"/>
          </g>
          <rect id="Rectángulo_7494" data-name="Rectángulo 7494" width="43.125" height="7.435" transform="translate(79.04 170.993)" fill="#c5d7d8"/>
          <rect id="Rectángulo_7495" data-name="Rectángulo 7495" width="43.125" height="7.435" transform="translate(79.04 158.589)" fill="#c5d7d8"/>
        </g>
      </g>
      <path id="Trazado_104640" data-name="Trazado 104640" d="M467.809,201.258V240.83H425.27v-50.4h31.711A10.837,10.837,0,0,1,467.809,201.258Z" transform="translate(210.481 2.311)" fill="#4c4c4c" opacity="0.3" style="mix-blend-mode: multiply;isolation: isolate"/>
      <g id="Grupo_60052" data-name="Grupo 60052" transform="translate(783.126 355.246)">
        <path id="Trazado_104642" data-name="Trazado 104642" d="M163.013,348.806c0,1.547,48.379,2.8,108.058,2.8s108.056-1.255,108.056-2.8-48.379-2.8-108.056-2.8S163.013,347.258,163.013,348.806Z" transform="translate(-163.013 -205.032)" fill="#a9ebf4"/>
        <g id="Grupo_60051" data-name="Grupo 60051" transform="translate(0.246)">
          <path id="Trazado_104643" data-name="Trazado 104643" d="M379.395,345.88a5.966,5.966,0,0,1-5.57,3.829H169.078a5.976,5.976,0,0,1-5.577-3.829,1.577,1.577,0,0,1,1.477-2.132H377.916A1.577,1.577,0,0,1,379.395,345.88Z" transform="translate(-163.105 -205.936)" fill="#576270"/>
          <path id="Trazado_104644" data-name="Trazado 104644" d="M379.868,256.7V371.79A11.371,11.371,0,0,1,368.5,383.162H174.561a11.348,11.348,0,0,1-10.91-8.193,10.842,10.842,0,0,1-.462-3.179V256.7a11.368,11.368,0,0,1,11.372-11.358H368.5A11.359,11.359,0,0,1,379.868,256.7Z" transform="translate(-163.189 -245.343)" fill="#152235"/>
          <rect id="Rectángulo_7496" data-name="Rectángulo 7496" width="115.086" height="193.941" rx="2.367" transform="translate(205.314 11.362) rotate(90)" fill="#fff"/>
          <g id="Grupo_60050" data-name="Grupo 60050" transform="translate(21.852 25.097)">
            <rect id="Rectángulo_7497" data-name="Rectángulo 7497" width="56.596" height="56.596" fill="#9dc2ca"/>
            <rect id="Rectángulo_7498" data-name="Rectángulo 7498" width="27.232" height="27.232" transform="translate(58.727)" fill="#00658f"/>
            <rect id="Rectángulo_7499" data-name="Rectángulo 7499" width="27.232" height="27.232" transform="translate(88.09)" fill="#9dc2ca"/>
            <rect id="Rectángulo_7500" data-name="Rectángulo 7500" width="52.57" height="6.512" transform="translate(120.414)" fill="#ea5d3f"/>
            <rect id="Rectángulo_7501" data-name="Rectángulo 7501" width="52.57" height="6.512" transform="translate(120.414 9.59)" fill="#4dd0e1"/>
            <rect id="Rectángulo_7502" data-name="Rectángulo 7502" width="52.57" height="6.512" transform="translate(120.414 19.181)" fill="#4dd0e1"/>
            <rect id="Rectángulo_7503" data-name="Rectángulo 7503" width="28.594" height="6.512" transform="translate(120.414 28.771)" fill="#4dd0e1"/>
            <rect id="Rectángulo_7504" data-name="Rectángulo 7504" width="27.232" height="27.232" transform="translate(58.727 29.364)" fill="#9dc2ca"/>
            <rect id="Rectángulo_7505" data-name="Rectángulo 7505" width="27.232" height="27.232" transform="translate(88.09 29.364)" fill="#9dc2ca"/>
            <rect id="Rectángulo_7506" data-name="Rectángulo 7506" width="172.984" height="11.722" transform="translate(0 79.684)" fill="#c5d7d8"/>
          </g>
          <path id="Trazado_104645" data-name="Trazado 104645" d="M265.525,343.749v.966a2.026,2.026,0,0,1-2.018,2.018H228.7a2.02,2.02,0,0,1-2.01-2.018v-.966Z" transform="translate(-137.76 -205.936)" fill="#ddd"/>
        </g>
      </g>
      <g id="Grupo_60055" data-name="Grupo 60055" transform="translate(632.229 352.799)">
        <ellipse id="Elipse_1619" data-name="Elipse 1619" cx="38.656" cy="2.17" rx="38.656" ry="2.17" transform="translate(0 130.86)" fill="#afccd3"/>
        <g id="Grupo_60054" data-name="Grupo 60054" transform="translate(1.673 0.001)">
          <path id="Trazado_104648" data-name="Trazado 104648" d="M498.325,276.188V394.866a6.962,6.962,0,0,1-6.948,6.968h-60.05a6.966,6.966,0,0,1-6.968-6.968V276.188a6.966,6.966,0,0,1,6.968-6.968h60.05a7.459,7.459,0,0,1,2.153.325A7.02,7.02,0,0,1,498.325,276.188Z" transform="translate(-424.36 -269.22)" fill="#152235"/>
          <rect id="Rectángulo_7507" data-name="Rectángulo 7507" width="60.056" height="112.453" rx="0.999" transform="translate(67.016 119.415) rotate(180)" fill="#fff"/>
          <g id="Grupo_60053" data-name="Grupo 60053" transform="translate(12.339 10.018)">
            <rect id="Rectángulo_7508" data-name="Rectángulo 7508" width="34.532" height="34.532" transform="translate(0.001)" fill="#ea5d3f"/>
            <path id="Trazado_104649" data-name="Trazado 104649" d="M447.7,327.109h0a17.267,17.267,0,0,1-17.267-17.265h0A17.267,17.267,0,0,1,447.7,292.578h0a17.265,17.265,0,0,1,17.265,17.265h0A17.265,17.265,0,0,1,447.7,327.109Z" transform="translate(-430.434 -255.145)" fill="#4dd0e1"/>
            <path id="Trazado_104650" data-name="Trazado 104650" d="M444.361,336.49h0a3.53,3.53,0,0,1-3.531-3.531h0a3.53,3.53,0,0,1,3.531-3.529h0a3.53,3.53,0,0,1,3.529,3.529h0A3.53,3.53,0,0,1,444.361,336.49Z" transform="translate(-419.711 -217.133)" fill="#2a3b4f"/>
            <rect id="Rectángulo_7509" data-name="Rectángulo 7509" width="14.863" height="28.299" transform="translate(0.001 74.866)" fill="#4dd0e1"/>
            <rect id="Rectángulo_7510" data-name="Rectángulo 7510" width="14.863" height="28.299" transform="translate(17.217 74.866)" fill="#4dd0e1"/>
            <rect id="Rectángulo_7511" data-name="Rectángulo 7511" width="14.863" height="28.299" transform="translate(34.433 74.866)" fill="#c5d7d8"/>
          </g>
          <rect id="Rectángulo_7512" data-name="Rectángulo 7512" width="12.086" height="12.086" transform="translate(49.549 10.018)" fill="#00658f"/>
        </g>
      </g>
      <g id="Grupo_60056" data-name="Grupo 60056" transform="translate(645.703 180.209)">
        <rect id="Rectángulo_7513" data-name="Rectángulo 7513" width="52.972" height="52.972" transform="translate(0 52.972) rotate(-90)" fill="#ea5d3f"/>
        <path id="Trazado_104653" data-name="Trazado 104653" d="M440.876,191.114v25.127l12.564-12.563Z" transform="translate(-419.125 -177.192)" fill="#fff"/>
      </g>
      <rect id="Rectángulo_7514" data-name="Rectángulo 7514" width="28.473" height="28.473" transform="translate(496.25 352.663) rotate(-45)" fill="#00658f"/>
      <g id="Grupo_60063" data-name="Grupo 60063" transform="translate(524.088 306.677)">
        <path id="Trazado_104654" data-name="Trazado 104654" d="M379.486,334.74c0,1.2,12.278,2.17,27.425,2.17s27.425-.971,27.425-2.17-12.278-2.172-27.425-2.172S379.486,333.541,379.486,334.74Z" transform="translate(-360.83 -157.757)" fill="#a9ebf4"/>
        <path id="Trazado_104655" data-name="Trazado 104655" d="M377.826,265.1a4.028,4.028,0,0,0,.616,1.184,22.025,22.025,0,0,1-3.472,1.178c-1.152.187-1.574-.532-2.868-.752s-1.7-.286-1.8-2.054a1.733,1.733,0,0,1,2.294-1.7c.967.288,2.291,1.771,3.1,1.668a15.733,15.733,0,0,0,2.005-.463A3.534,3.534,0,0,0,377.826,265.1Z" transform="translate(-370.303 -229.64)" fill="#f8b7b0"/>
        <path id="Trazado_104656" data-name="Trazado 104656" d="M391.209,260.22a4.792,4.792,0,0,1-4.579-.526c-.6-.465.75-1.392,1.15-2.092a1.744,1.744,0,0,0,.057-1.231,13.8,13.8,0,0,0-.932-2.47l4.435-1.9s.386,2.312.587,3.161a1.292,1.292,0,0,0,.15.382c.295.492.9.585,1.95,1.075C395.3,257.218,393.437,259.375,391.209,260.22Z" transform="translate(-353.616 -240.854)" fill="#f8b7b0"/>
        <g id="Grupo_60057" data-name="Grupo 60057" transform="translate(28.643 1.506)">
          <path id="Trazado_104657" data-name="Trazado 104657" d="M393.808,254.822c-.022,3.159-.083,4.693-1.182,6.076a5.106,5.106,0,0,1-3.277,2.172c-1.239.1-3.258-1.977-3.685-3.277a27.752,27.752,0,0,1-1.067-8.317c.059-1.757,1.775-4.022,3.72-4.181S393.856,247.1,393.808,254.822Z" transform="translate(-384.214 -247.257)" fill="#f8b7b0"/>
          <path id="Trazado_104658" data-name="Trazado 104658" d="M384.574,253.005c.347,1.123,1.107,1.885,1.694,1.7s.784-1.239.437-2.363-1.107-1.885-1.7-1.7S384.227,251.882,384.574,253.005Z" transform="translate(-384.402 -243.795)" fill="#f8b7b0"/>
          <path id="Trazado_104659" data-name="Trazado 104659" d="M388.742,251.808c-.355,1.121-.167,2.18.421,2.367s1.351-.573,1.706-1.694.167-2.18-.42-2.365S389.1,250.686,388.742,251.808Z" transform="translate(-380.111 -244.338)" fill="#f8b7b0"/>
        </g>
        <path id="Trazado_104660" data-name="Trazado 104660" d="M394.535,300.466c3.181-.386,5.91-1.434,5.91.534,0,1.672-.154,1.54-5.609,1.936-3.2.234-5.828.148-5.912-.534S391.354,300.854,394.535,300.466Z" transform="translate(-351.098 -191.514)" fill="#af3a27"/>
        <path id="Trazado_104661" data-name="Trazado 104661" d="M413.607,255.567c3.947,3.651,10.425,12.154,11.374,16.7a1.952,1.952,0,0,1-1.4,2.283L409.4,278.393a.724.724,0,0,1-.837-.38l-.508-1.04A.72.72,0,0,1,408.4,276l10.625-5.625c-3.057-5.777-5.223-6.982-5.223-6.982.366,7.167,6.738,23.276,7.157,25.2.516,2.373.906,4.307.087,4.479-2.627.548-8.816.9-14.287,1.79-3.917.638-3.941-.825-3.4-7.252.815-9.7-1.786-13.676-3.776-17.022a9.712,9.712,0,0,1-1.355-5.672l-6.137,8.146a3.585,3.585,0,0,1-2.287,1.292l-15.4,1.7a1.067,1.067,0,0,1-1.215-1.075l.008-.506a1.064,1.064,0,0,1,.8-1.016l14.517-3.825s4.1-6.606,6.033-9.324c.815-1.144,2.346-4.5,5.377-5.054C409.465,253.5,410.8,252.969,413.607,255.567Z" transform="translate(-367.33 -239.027)" fill="#ea5d3f"/>
        <path id="Trazado_104662" data-name="Trazado 104662" d="M387.876,273.842s.118,1.574.313,3.994c.022.217.034.445.055.683.6,7.358,1.737,21.139,2.182,24.288.607,4.232,5.154,18.915,7.726,26.553a.9.9,0,0,0,.869.62l1.52-.032a.91.91,0,0,0,.878-1.01c-.445-5.121-3.689-21.694-4.459-25.318-.695-3.319-1.184-15.441.6-20.922a.977.977,0,0,1,1.865.065c1.237,4.471,3.984,14.206,5.633,18.448,1.92,4.916,23.624-1.117,27.52-2.257a.627.627,0,0,0,.445-.553l.075-1.1a.607.607,0,0,0-.64-.672c-3.732.315-21.324,1.617-22.149-1.757-.748-3.094-2.257-12.1-3.169-17.69v-.01c-.053-.282-.1-.542-.14-.8-.37-2.3-.607-3.841-.607-3.841s-.077-.792-.75-.815h-.085c-.142-.01-.315-.022-.555-.022a82.936,82.936,0,0,0-8.465.64c-3.212.337-5.284.577-6.586.772-.2.02-.38.053-.542.075C388.156,273.4,387.853,273.582,387.876,273.842Z" transform="translate(-352.178 -220.548)" fill="#009894"/>
        <path id="Trazado_104663" data-name="Trazado 104663" d="M409.073,289.236c.719-3.122,1.847-5.528,2.517-5.373s1.394.67-.093,5.934c-.87,3.084-1.847,5.528-2.517,5.373S408.352,292.358,409.073,289.236Z" transform="translate(-330.9 -208.001)" fill="#af3a27"/>
        <g id="Grupo_60059" data-name="Grupo 60059" transform="translate(48.26 32.043)">
          <g id="Grupo_60058" data-name="Grupo 60058">
            <path id="Trazado_104664" data-name="Trazado 104664" d="M394.059,263.416l2.133-1.127,2.649,4.347-3.521.955C394.88,266.208,394.451,264.8,394.059,263.416Z" transform="translate(-394.059 -262.289)" fill="#af3a27"/>
          </g>
        </g>
        <path id="Trazado_104665" data-name="Trazado 104665" d="M385.95,258.1c1.274,3.218.492,9.1,1.591,14.307s9.365,13.546,16.487,7.618c8.185-6.809-2.312-14.36-4.225-19.177-2.151-5.408-2.092-9.629-4.953-12.605-2.728-2.836-6.781-1.643-8.471-.213C382.852,251.014,384.887,255.418,385.95,258.1Z" transform="translate(-355.768 -246.515)" fill="#0c0c0c"/>
        <g id="Grupo_60062" data-name="Grupo 60062" transform="translate(23.593 110.802)">
          <g id="Grupo_60061" data-name="Grupo 60061">
            <g id="Grupo_60060" data-name="Grupo 60060" transform="translate(7.989)">
              <path id="Trazado_104666" data-name="Trazado 104666" d="M386.627,301.78a.723.723,0,0,1,.63.807l-.163,1.318a1.075,1.075,0,0,0,.16.035h26.1a1.07,1.07,0,0,0,.161-.035l-.163-1.318a.716.716,0,0,1,1.408-.254,1.427,1.427,0,0,0-1.406-1.274h-26.1a1.427,1.427,0,0,0-1.406,1.27A.711.711,0,0,1,386.627,301.78Z" transform="translate(-385.849 -301.059)" fill="#00658f"/>
            </g>
            <path id="Trazado_104667" data-name="Trazado 104667" d="M418.839,302.047a.342.342,0,0,0-.026-.077.716.716,0,0,0-1.408.254l.163,1.318,2.74,22.22h-31.9l2.74-22.22.163-1.318a.723.723,0,0,0-.63-.807.711.711,0,0,0-.778.548.646.646,0,0,0-.028.081l-5.651,45.832a.7.7,0,0,0-.1.351.711.711,0,0,0,.037.185l-2.237,18.133a.721.721,0,0,0,.63.8.643.643,0,0,0,.089.006.725.725,0,0,0,.717-.636l2.192-17.769h37.618l2.192,17.769a.723.723,0,0,0,.717.636.668.668,0,0,0,.089-.006.722.722,0,0,0,.63-.8Zm-33.113,45.46,2.5-20.3h32.255l2.5,20.3Z" transform="translate(-381.916 -300.696)" fill="#00658f"/>
          </g>
        </g>
        <path id="Trazado_104668" data-name="Trazado 104668" d="M389.441,273.774a4.376,4.376,0,0,0-.2-1.312c.163-.022.347-.055.542-.075a4.933,4.933,0,0,1,.2,1.387,5.2,5.2,0,0,1-1.9,4.026c-.02-.238-.033-.465-.055-.683A4.673,4.673,0,0,0,389.441,273.774Z" transform="translate(-352.019 -219.831)" fill="#035954"/>
        <path id="Trazado_104669" data-name="Trazado 104669" d="M396.375,271.692c.24,0,.412.012.555.022a4.386,4.386,0,0,0-.152,1.15,4.631,4.631,0,0,0,1.595,3.506c.043.26.087.52.14.8a5.192,5.192,0,0,1-2.277-4.309A4.645,4.645,0,0,1,396.375,271.692Z" transform="translate(-343.555 -220.548)" fill="#035954"/>
      </g>
      <g id="Grupo_60068" data-name="Grupo 60068" transform="translate(808.706 241.552)">
        <g id="Grupo_60067" data-name="Grupo 60067">
          <g id="Grupo_60066" data-name="Grupo 60066">
            <path id="Trazado_104672" data-name="Trazado 104672" d="M319.935,244.6l-11.167-11.167-18.341-18.344-8.531-8.531v31.536h0V260.3l12.137-12.137,5.959,14.387,8.617-3.569L302.65,244.6Z" transform="translate(-281.893 -206.556)" fill="#fff"/>
          </g>
          <path id="Trazado_104673" data-name="Trazado 104673" d="M281.9,236.182v0l0,0Z" transform="translate(-281.893 -182.432)" fill="#fff"/>
        </g>
      </g>
      <g id="Grupo_60073" data-name="Grupo 60073" transform="translate(615.287 445.154)">
        <g id="Grupo_60072" data-name="Grupo 60072" transform="translate(1.661 1.887)">
          <ellipse id="Elipse_1620" data-name="Elipse 1620" cx="13.699" cy="1.366" rx="13.699" ry="1.366" transform="translate(8.605 76.73)" fill="#afccd3"/>
          <g id="Grupo_60071" data-name="Grupo 60071">
            <path id="Trazado_104674" data-name="Trazado 104674" d="M439.255,359c.265-2.389,1.025-6.573,3.761-9.554,7.775-8.462,17.561-2.453,18.643-6.392.515-1.878-2.674-5.086-6.243-6.149-9.021-2.685-9.1,3.946-11.576,1.952-3.021-2.435,9.551-14.644,4.189-25.545-2.749-5.59-10.661-9.357-14.756-7.189-3.3,1.747-3.881,7.223-3.972,8.324-.457,5.521,4.394,11.663,2.117,15.043-4.26,6.33-3.382-9.429-14.762-6.7-5.933,1.422-6.508,5.372-5.815,6.844,1.156,2.462,5.3.163,10.7,3.538,3.779,2.361,5.909,6.679,5.013,7.851-1.047,1.372-5.764-2.758-10.422-.806-2.705,1.136-4.625,4.282-4.051,5.63.4.951,1.95.706,4.73,1.23,1.559.294,8.876,1.673,10.5,5.864.3.777.842,2.774-.851,6.055Z" transform="translate(-410.611 -305.5)" fill="#26a69a"/>
            <g id="Grupo_60070" data-name="Grupo 60070">
              <g id="Grupo_60069" data-name="Grupo 60069" clip-path="url(#clip-path)">
                <path id="Trazado_104675" data-name="Trazado 104675" d="M466.42,418.409c.615-5.541,2.375-15.25,8.725-22.164,18.035-19.633,40.742-5.7,43.249-14.831,1.2-4.356-6.2-11.8-14.484-14.265-20.929-6.232-21.112,9.154-26.854,4.527-7.007-5.646,22.157-33.97,9.72-59.261-6.376-12.967-24.735-21.707-34.234-16.678-7.653,4.053-9,16.759-9.217,19.312-1.06,12.811,10.195,27.056,4.915,34.9-9.885,14.685-7.845-21.876-34.248-15.54-13.764,3.3-15.1,12.465-13.493,15.879,2.685,5.71,12.294.379,24.833,8.21,8.769,5.476,13.709,15.491,11.63,18.213-2.429,3.181-13.372-6.4-24.177-1.869-6.279,2.634-10.73,9.93-9.4,13.062.938,2.206,4.521,1.637,10.972,2.852,3.616.682,20.591,3.881,24.358,13.606.7,1.8,1.954,6.434-1.974,14.045Z" transform="translate(-419.28 -314.625)" fill="#007771"/>
              </g>
            </g>
            <path id="Trazado_104677" data-name="Trazado 104677" d="M447.213,345.659a16.777,16.777,0,0,1-17.093,16.774c-9.235-.169-16.464-8.092-16.464-17.331v-9.589a4.032,4.032,0,0,1,4.033-4.032h25.492a4.032,4.032,0,0,1,4.032,4.032Z" transform="translate(-408.131 -284.342)" fill="#a9ebf4"/>
          </g>
        </g>
        <path id="Trazado_104678" data-name="Trazado 104678" d="M426.85,352.809a.454.454,0,0,1-.423-.289c-.989-2.551-4.6-4.534-10.159-5.583-.875-.165-1.609-.25-2.259-.327-1.461-.169-2.428-.281-2.807-1.172a2.773,2.773,0,0,1,.163-2.085,8.122,8.122,0,0,1,4.131-4.14c2.907-1.217,5.768-.223,7.86.5,1.058.368,2.148.744,2.377.446a1.251,1.251,0,0,0,.067-.9c-.323-1.773-2.268-4.61-4.962-6.294a14.221,14.221,0,0,0-7.034-2.07c-1.778-.143-3.181-.258-3.839-1.66a4.19,4.19,0,0,1,.221-3.447c.648-1.348,2.2-3.144,5.9-4.031,6.691-1.606,9.371,2.907,11.14,5.9.695,1.176,1.35,2.286,1.9,2.3.287,0,.709-.218,1.448-1.314,1.123-1.671.283-4.189-.691-7.105-.8-2.408-1.716-5.138-1.5-7.724.129-1.584.818-6.889,4.211-8.685a8.319,8.319,0,0,1,6.381-.1,15.784,15.784,0,0,1,9,7.484c3.389,6.893-.1,14.118-2.645,19.394-1.37,2.834-2.551,5.283-1.666,6,.631.51.931.3,1.865-.5,1.412-1.216,3.776-3.251,9.555-1.528,3.843,1.145,7.147,4.527,6.55,6.7a.454.454,0,0,1-.875-.241c.415-1.511-2.442-4.554-5.935-5.594-5.3-1.578-7.348.181-8.7,1.348-.875.751-1.776,1.529-3.026.521-1.446-1.163-.245-3.654,1.419-7.1,2.464-5.107,5.84-12.1,2.647-18.6a14.825,14.825,0,0,0-8.46-7.022,7.444,7.444,0,0,0-5.675.033c-3.064,1.624-3.647,6.916-3.734,7.96-.2,2.4.646,4.922,1.461,7.363,1.005,3.012,1.956,5.857.581,7.9-.786,1.168-1.48,1.715-2.185,1.715l-.04,0c-1.054-.031-1.762-1.228-2.658-2.747-1.729-2.921-4.1-6.931-10.148-5.476-3.357.806-4.732,2.371-5.294,3.542a3.324,3.324,0,0,0-.218,2.669c.416.889,1.3,1,3.09,1.143a15.2,15.2,0,0,1,7.443,2.2c3.019,1.883,5.02,4.96,5.374,6.9a1.988,1.988,0,0,1-.24,1.608c-.628.827-1.847.4-3.4-.138-1.954-.68-4.621-1.608-7.21-.524a7.253,7.253,0,0,0-3.64,3.643,2,2,0,0,0-.169,1.392c.165.388.789.475,2.076.624.63.074,1.415.167,2.319.336,5.969,1.127,9.718,3.251,10.841,6.147a.456.456,0,0,1-.259.588A.472.472,0,0,1,426.85,352.809Z" transform="translate(-409.695 -304.46)" fill="#009894" opacity="0.35"/>
      </g>
    </g>
  </g>
</svg>
