<svg xmlns="http://www.w3.org/2000/svg" width="66.164" height="66.164" viewBox="0 0 66.164 66.164">
  <g id="correcto" transform="translate(90.163 -24) rotate(90)">
    <path id="Trazado_104742" data-name="Trazado 104742" d="M27.422,172.475A3.422,3.422,0,0,1,24,169.053,49.015,49.015,0,0,1,73.053,120H86.742a3.422,3.422,0,1,1,0,6.845H73.053a42.208,42.208,0,0,0-42.208,42.208,3.422,3.422,0,0,1-3.422,3.422Z" transform="translate(0 -82.312)" fill="#4dd0e1"/>
    <path id="Trazado_104743" data-name="Trazado 104743" d="M315.424,58.222a3.422,3.422,0,0,1-2.056-6.16l14.6-10.951-14.6-10.951a3.422,3.422,0,1,1,4.107-5.476l18.252,13.689a3.422,3.422,0,0,1,0,5.476L317.474,57.537A3.407,3.407,0,0,1,315.424,58.222Z" transform="translate(-246.931)" fill="#4dd0e1"/>
  </g>
</svg>
