<svg xmlns="http://www.w3.org/2000/svg" width="208" height="196" viewBox="0 0 208 196">
  <g id="Grupo_60147" data-name="Grupo 60147" transform="translate(7722 10253)">
    <g id="Grupo_58804" data-name="Grupo 58804" transform="translate(2 98)">
      <g id="Right" transform="translate(-7724 -10351)">
        <rect id="BG" width="208" height="196" rx="5" transform="translate(-0.001)" fill="#fff" opacity="0.949"/>
      </g>
      <g id="desplazamiento" transform="translate(-7692 -10328)">
        <path id="Trazado_104327" data-name="Trazado 104327" d="M84.625,30.583V20.456A10.222,10.222,0,0,0,74.4,10.234H20.456A10.221,10.221,0,0,0,10.234,20.456V30.583Zm0,0" transform="translate(-7.253 -7.253)" fill="#78b9eb"/>
        <path id="Trazado_104328" data-name="Trazado 104328" d="M196.193,235.241l-23.756-23.755c-3.659-3.659-9.347-3.9-12.708-.541s-3.118,9.05.541,12.708l-5.1-5.1c-3.659-3.659-9.349-3.9-12.708-.541s-3.118,9.05.539,12.709l-5.1-5.1c-3.658-3.659-9.347-3.9-12.708-.541s-3.118,9.049.541,12.708L107.949,220c-3.659-3.659-9.349-3.9-12.709-.541s-3.118,9.049.541,12.708l42.094,42.094H125.1a8.853,8.853,0,0,0-8.854,8.852v2a8.853,8.853,0,0,0,8.854,8.854h45.556a34.415,34.415,0,0,0,25.537-58.73Zm0,0" transform="translate(-65.814 -147.812)" fill="#fff"/>
        <path id="Trazado_104329" data-name="Trazado 104329" d="M10.234,114.876v45.347h46.1L37.219,141.112c-3.659-3.659-3.9-9.347-.541-12.708s9.05-3.118,12.709.541l17.782,17.782c-3.659-3.659-3.9-9.347-.541-12.708s9.05-3.118,12.708.541l5.1,5.1c-3.658-3.659-3.9-9.349-.539-12.708a7.838,7.838,0,0,1,.726-.641V80.082H10.234Zm0,0" transform="translate(-7.253 -56.752)" fill="#f0f0fa"/>
        <path id="Trazado_104330" data-name="Trazado 104330" d="M56.33,355.172h-46.1v22.18a10.221,10.221,0,0,0,10.221,10.221h37.23v-.566a8.853,8.853,0,0,1,8.854-8.852H79.313Zm-8.9,21.667a5.491,5.491,0,1,1,5.491-5.491A5.491,5.491,0,0,1,47.43,376.839Zm0,0" transform="translate(-7.253 -251.701)" fill="#78b9eb"/>
        <path id="Trazado_104331" data-name="Trazado 104331" d="M115.667,34.8H94.739a2.982,2.982,0,0,0,0,5.963h20.928a2.982,2.982,0,0,0,0-5.963Zm0,0" transform="translate(-65.026 -24.66)" fill="#fff"/>
        <path id="Trazado_104332" data-name="Trazado 104332" d="M132.487,85.321,108.732,61.567c-4.815-4.815-12.408-5.057-16.924-.541a10.978,10.978,0,0,0-3,5.552,12.49,12.49,0,0,0-5.795-1.718,11.909,11.909,0,0,0-2.662.185V51.328h25.777a2.981,2.981,0,1,0,0-5.962H80.353V13.2A13.217,13.217,0,0,0,67.15,0H13.2A13.218,13.218,0,0,0,0,13.2V34.215a2.981,2.981,0,1,0,5.962,0v-7.9H74.391V68.242a11.125,11.125,0,0,0-2.843,5.412,11.747,11.747,0,0,0-14.28,1.5,10.956,10.956,0,0,0-2.877,5.075l-10.15-10.15c-4.514-4.514-11.469-5.009-16.043-1.331a10.833,10.833,0,0,0-.881.791c-4.517,4.518-4.274,12.109.541,16.924L41.88,100.49H5.962V58.124a2.981,2.981,0,1,0-5.962,0v67.526a13.218,13.218,0,0,0,13.2,13.2H47.556a11.85,11.85,0,0,0,11.729,10.285l46.737.02a37.395,37.395,0,0,0,26.464-63.838ZM5.962,20.348V13.2A7.25,7.25,0,0,1,13.2,5.962H67.151a7.249,7.249,0,0,1,7.24,7.241v7.145Zm0,105.3v-19.2H47.842l17.02,17.02H59.767a13.563,13.563,0,0,0-3.859.494,11.886,11.886,0,0,0-8.209,8.925H13.2A7.249,7.249,0,0,1,5.963,125.651Zm122.307,8.341a31.53,31.53,0,0,1-23.324,9.186c-.034,0-45.66,0-45.66,0a5.933,5.933,0,0,1-5.857-5.457c-.056-.79-.019-1.594-.015-2.385a5.879,5.879,0,0,1,5.872-5.9H70.825l4.506,4.506a2.981,2.981,0,0,0,4.216-4.216L32.074,82.252a6.572,6.572,0,0,1-1.852-6.2,4.979,4.979,0,0,1,1.858-2.758,5.568,5.568,0,0,1,3.9-.986A6.859,6.859,0,0,1,40.026,74.3l32.783,32.783a2.981,2.981,0,0,0,4.216-4.216l-15-15c-2.491-2.49-2.733-6.3-.541-8.493s6-1.949,8.492.541l14.83,14.83a2.981,2.981,0,0,0,4.216-4.216L79.294,80.8a7.191,7.191,0,0,1-1.163-1.52,6.516,6.516,0,0,1-.873-3.412,5.209,5.209,0,0,1,1.5-3.56c.112-.112.23-.215.35-.315l.084-.069a5.352,5.352,0,0,1,3.572-1.107,6.773,6.773,0,0,1,4.486,2.032l9.728,9.728a2.981,2.981,0,0,0,4.216-4.215l-4.637-4.637a6.769,6.769,0,0,1-2.021-4.475,5.264,5.264,0,0,1,1.491-4.007c2.193-2.193,6-1.951,8.493.541L128.27,89.537A31.47,31.47,0,0,1,128.27,133.992Zm0,0" transform="translate(0)" fill="#1a6fb0"/>
        <path id="Trazado_104333" data-name="Trazado 104333" d="M.246,152.394a3,3,0,0,0,2.9,1.836,2.98,2.98,0,1,0-1.8-5.454,3.005,3.005,0,0,0-1.1,3.619Zm0,0" transform="translate(-0.017 -105.083)" fill="#1a6fb0"/>
        <path id="Trazado_104334" data-name="Trazado 104334" d="M117.3,381.617a8.472,8.472,0,1,0,8.471,8.472A8.482,8.482,0,0,0,117.3,381.617Zm0,10.982a2.51,2.51,0,1,1,2.509-2.509A2.512,2.512,0,0,1,117.3,392.6Zm0,0" transform="translate(-77.124 -270.442)" fill="#1a6fb0"/>
        <path id="Trazado_104335" data-name="Trazado 104335" d="M55.3,211.978a2.982,2.982,0,0,0-4.216,0,21.767,21.767,0,0,0,0,30.785,2.981,2.981,0,0,0,4.216-4.216,15.806,15.806,0,0,1,0-22.353A2.982,2.982,0,0,0,55.3,211.978Zm0,0" transform="translate(-31.685 -149.604)" fill="#78b9eb"/>
        <path id="Trazado_104336" data-name="Trazado 104336" d="M299.353,119.069h24.5a2.982,2.982,0,1,0,0-5.963h-24.5a2.982,2.982,0,1,0,0,5.963Zm0,0" transform="translate(-210.03 -80.155)" fill="#1a6fb0"/>
        <path id="Trazado_104337" data-name="Trazado 104337" d="M421.713,117.253a2.979,2.979,0,1,0,1.18-3.671A3.007,3.007,0,0,0,421.713,117.253Zm0,0" transform="translate(-298.699 -80.179)" fill="#1a6fb0"/>
      </g>
    </g>
  </g>
</svg>
