<svg xmlns="http://www.w3.org/2000/svg" width="421.138" height="514" viewBox="0 0 421.138 514">
  <g id="Grupo_60110" data-name="Grupo 60110" transform="translate(-368.862 -554)">
    <g id="Grupo_60108" data-name="Grupo 60108" transform="translate(-296 137)">
      <rect id="Rectángulo_7532" data-name="Rectángulo 7532" width="371" height="514" rx="20" transform="translate(715 417)" fill="#c4f8ff"/>
      <g id="Grupo_60107" data-name="Grupo 60107" transform="translate(515.063 356)">
        <g id="Graphics" transform="translate(221.087 80.693)">
          <g id="Grupo_60094" data-name="Grupo 60094">
            <rect id="Rectángulo_7518" data-name="Rectángulo 7518" width="329.271" height="426.194" rx="10" fill="none" stroke="#263238" stroke-linecap="round" stroke-linejoin="round" stroke-width="1.023"/>
            <g id="Grupo_60080" data-name="Grupo 60080" transform="translate(43.54 42.621)">
              <rect id="Rectángulo_7519" data-name="Rectángulo 7519" width="83.807" height="66.552" transform="translate(10.903 9.276)" fill="none" stroke="#263238" stroke-linecap="round" stroke-linejoin="round" stroke-width="1.023" stroke-dasharray="2.046"/>
              <rect id="Rectángulo_7520" data-name="Rectángulo 7520" width="57.045" height="45.3" transform="translate(24.283 19.902)" fill="#fff" stroke="#263238" stroke-linecap="round" stroke-linejoin="round" stroke-width="1.023"/>
              <line id="Línea_158" data-name="Línea 158" x1="19.574" y1="15.1" transform="translate(1.354 1.447)" fill="none" stroke="#263238" stroke-linecap="round" stroke-linejoin="round" stroke-width="1.023"/>
              <line id="Línea_159" data-name="Línea 159" x2="16.778" y2="14.541" transform="translate(85.243 67.44)" fill="none" stroke="#263238" stroke-linecap="round" stroke-linejoin="round" stroke-width="1.023"/>
              <path id="Trazado_104681" data-name="Trazado 104681" d="M218.449,115.756l-.584-6.423h6.715" transform="translate(-217.865 -109.333)" fill="none" stroke="#263238" stroke-linecap="round" stroke-linejoin="round" stroke-width="1.023"/>
              <path id="Trazado_104682" data-name="Trazado 104682" d="M298.424,167.815l1.168,7.007-8.175.292" transform="translate(-195.948 -91.907)" fill="none" stroke="#263238" stroke-linecap="round" stroke-linejoin="round" stroke-width="1.023"/>
            </g>
            <g id="Grupo_60081" data-name="Grupo 60081" transform="translate(167.818 284.008)">
              <rect id="Rectángulo_7521" data-name="Rectángulo 7521" width="27.697" height="9.989" transform="translate(0 5.259)" fill="#263238"/>
              <path id="Trazado_104683" data-name="Trazado 104683" d="M347.7,305.558,329.936,295.3v20.507Z" transform="translate(-308.748 -295.305)" fill="#263238"/>
            </g>
            <g id="Grupo_60084" data-name="Grupo 60084" transform="translate(75.138 220.331)">
              <g id="Grupo_60082" data-name="Grupo 60082">
                <rect id="Rectángulo_7522" data-name="Rectángulo 7522" width="81.701" height="159.438" rx="6.928" fill="#263238" stroke="#263238" stroke-linecap="round" stroke-linejoin="round" stroke-width="0.829"/>
                <rect id="Rectángulo_7523" data-name="Rectángulo 7523" width="74.434" height="139.148" transform="translate(3.633 10.828)" fill="#fff" stroke="#263238" stroke-linecap="round" stroke-linejoin="round" stroke-width="0.829"/>
              </g>
              <g id="Grupo_60083" data-name="Grupo 60083" transform="translate(23.219 82.88)">
                <path id="Trazado_104684" data-name="Trazado 104684" d="M301.149,406.121l5.7-22.094a29.155,29.155,0,0,0,.925-7.292v-26.5a3.727,3.727,0,0,0,.169-1.051A4.48,4.48,0,0,0,303.216,345a4.991,4.991,0,0,0-3.453,1.346,4.518,4.518,0,0,0-4.684-3.837,4.873,4.873,0,0,0-3.985,1.956,4.53,4.53,0,0,0-4.677-3.767,4.871,4.871,0,0,0-3.985,1.957c-.006-3.511-.061-20.316-.589-21.683-1.719-4.433-10.345-2.409-8.839,2.294v38.867c0-2.727-2.024-6.32-2.87-8.964-.793-2.477-1.345-5.174-2.907-7.4-2.675-3.81-7.382-1.713-7.118,2.265.231,3.488,2.754,6.237,4.12,9.4,2.522,5.849,1.007,11.96,3.388,17.824a103.5,103.5,0,0,0,6.566,10.771c1.474,1.981,3.049,7.188,3.049,7.188l-2.207,12.9" transform="translate(-260.098 -307.593)" fill="#fff" stroke="#263238" stroke-linecap="round" stroke-linejoin="round" stroke-width="1.023"/>
                <line id="Línea_160" data-name="Línea 160" y2="7.265" transform="translate(17.699)" fill="none" stroke="#263238" stroke-linecap="round" stroke-linejoin="round" stroke-width="1.023"/>
                <line id="Línea_161" data-name="Línea 161" x2="5.903" transform="translate(25.872 14.075)" fill="none" stroke="#263238" stroke-linecap="round" stroke-linejoin="round" stroke-width="1.023"/>
                <line id="Línea_162" data-name="Línea 162" x2="5.903" transform="translate(1.353 14.075)" fill="none" stroke="#263238" stroke-linecap="round" stroke-linejoin="round" stroke-width="1.023"/>
                <line id="Línea_163" data-name="Línea 163" x2="2.27" y2="3.632" transform="translate(9.526 6.357)" fill="none" stroke="#263238" stroke-linecap="round" stroke-linejoin="round" stroke-width="1.023"/>
                <line id="Línea_164" data-name="Línea 164" y1="4.086" x2="3.178" transform="translate(23.148 6.357)" fill="none" stroke="#263238" stroke-linecap="round" stroke-linejoin="round" stroke-width="1.023"/>
              </g>
              <rect id="Rectángulo_7524" data-name="Rectángulo 7524" width="69.015" height="8.627" transform="translate(6.411 64.718)" fill="none" stroke="#263238" stroke-linecap="round" stroke-linejoin="round" stroke-width="1.023"/>
              <rect id="Rectángulo_7525" data-name="Rectángulo 7525" width="33.145" height="39.502" transform="translate(8.681 18.405)" fill="none" stroke="#263238" stroke-linecap="round" stroke-linejoin="round" stroke-width="1.023"/>
              <line id="Línea_165" data-name="Línea 165" x2="33.145" y2="39.502" transform="translate(8.681 18.405)" fill="none" stroke="#263238" stroke-linecap="round" stroke-linejoin="round" stroke-width="1.023"/>
              <path id="Trazado_104685" data-name="Trazado 104685" d="M248.2,362.552v-56.3h67.2V362.1" transform="translate(-240.424 -228.365)" fill="none" stroke="#263238" stroke-linecap="round" stroke-linejoin="round" stroke-width="1.023"/>
            </g>
            <g id="Grupo_60086" data-name="Grupo 60086" transform="translate(212.537 220.331)">
              <g id="Grupo_60085" data-name="Grupo 60085">
                <rect id="Rectángulo_7526" data-name="Rectángulo 7526" width="81.701" height="159.438" rx="6.928" fill="#263238" stroke="#263238" stroke-linecap="round" stroke-linejoin="round" stroke-width="0.829"/>
                <rect id="Rectángulo_7527" data-name="Rectángulo 7527" width="74.434" height="139.148" transform="translate(3.634 10.828)" fill="#fff" stroke="#263238" stroke-linecap="round" stroke-linejoin="round" stroke-width="0.829"/>
              </g>
              <rect id="Rectángulo_7528" data-name="Rectángulo 7528" width="67.199" height="73.556" transform="translate(7.496 17.497)" fill="none" stroke="#263238" stroke-linecap="round" stroke-linejoin="round" stroke-width="1.023"/>
              <line id="Línea_166" data-name="Línea 166" x2="67.199" transform="translate(7.496 97.863)" fill="none" stroke="#263238" stroke-linecap="round" stroke-linejoin="round" stroke-width="1.023"/>
              <line id="Línea_167" data-name="Línea 167" x2="67.199" transform="translate(7.496 103.312)" fill="none" stroke="#263238" stroke-linecap="round" stroke-linejoin="round" stroke-width="1.023"/>
              <line id="Línea_168" data-name="Línea 168" x2="67.199" transform="translate(7.496 108.76)" fill="none" stroke="#263238" stroke-linecap="round" stroke-linejoin="round" stroke-width="1.023"/>
              <line id="Línea_169" data-name="Línea 169" x2="67.199" transform="translate(7.496 114.209)" fill="none" stroke="#263238" stroke-linecap="round" stroke-linejoin="round" stroke-width="1.023"/>
              <line id="Línea_170" data-name="Línea 170" x2="67.199" transform="translate(7.496 119.658)" fill="none" stroke="#263238" stroke-linecap="round" stroke-linejoin="round" stroke-width="1.023"/>
              <line id="Línea_171" data-name="Línea 171" x2="67.199" transform="translate(7.496 125.106)" fill="none" stroke="#263238" stroke-linecap="round" stroke-linejoin="round" stroke-width="1.023"/>
              <line id="Línea_172" data-name="Línea 172" x2="67.199" transform="translate(7.496 130.555)" fill="none" stroke="#263238" stroke-linecap="round" stroke-linejoin="round" stroke-width="1.023"/>
              <line id="Línea_173" data-name="Línea 173" y1="73.556" x2="67.199" transform="translate(7.496 17.497)" fill="none" stroke="#263238" stroke-linecap="round" stroke-linejoin="round" stroke-width="1.023"/>
            </g>
            <g id="Grupo_60088" data-name="Grupo 60088" transform="translate(212.537 37.307)">
              <g id="Grupo_60087" data-name="Grupo 60087">
                <rect id="Rectángulo_7529" data-name="Rectángulo 7529" width="81.701" height="159.439" rx="6.928" fill="#263238" stroke="#263238" stroke-linecap="round" stroke-linejoin="round" stroke-width="0.829"/>
                <rect id="Rectángulo_7530" data-name="Rectángulo 7530" width="74.434" height="139.148" transform="translate(3.634 10.828)" fill="#fff" stroke="#263238" stroke-linecap="round" stroke-linejoin="round" stroke-width="0.829"/>
              </g>
            </g>
            <path id="Trazado_104686" data-name="Trazado 104686" d="M284.648,252.324V209.916H353.84" transform="translate(-154.425 -36.741)" fill="none" stroke="#263238" stroke-linecap="round" stroke-linejoin="round" stroke-width="1.023"/>
            <line id="Línea_174" data-name="Línea 174" y1="42.074" transform="translate(251.867 172.393)" fill="none" stroke="#263238" stroke-linecap="round" stroke-linejoin="round" stroke-width="1.023"/>
            <g id="Grupo_60089" data-name="Grupo 60089" transform="translate(221.109 394.289)">
              <line id="Línea_175" data-name="Línea 175" x2="30.098" fill="none" stroke="#263238" stroke-linecap="round" stroke-linejoin="round" stroke-width="1.023"/>
              <line id="Línea_176" data-name="Línea 176" x2="30.098" transform="translate(0 6.772)" fill="none" stroke="#263238" stroke-linecap="round" stroke-linejoin="round" stroke-width="1.023"/>
              <line id="Línea_177" data-name="Línea 177" x2="30.098" transform="translate(0 13.544)" fill="none" stroke="#263238" stroke-linecap="round" stroke-linejoin="round" stroke-width="1.023"/>
            </g>
            <g id="Grupo_60090" data-name="Grupo 60090" transform="translate(148.121 394.289)">
              <line id="Línea_178" data-name="Línea 178" x2="30.098" fill="none" stroke="#263238" stroke-linecap="round" stroke-linejoin="round" stroke-width="1.023"/>
              <line id="Línea_179" data-name="Línea 179" x2="30.098" transform="translate(0 6.772)" fill="none" stroke="#263238" stroke-linecap="round" stroke-linejoin="round" stroke-width="1.023"/>
              <line id="Línea_180" data-name="Línea 180" x2="30.098" transform="translate(0 13.544)" fill="none" stroke="#263238" stroke-linecap="round" stroke-linejoin="round" stroke-width="1.023"/>
            </g>
            <g id="Grupo_60091" data-name="Grupo 60091" transform="translate(139.844 186.611)">
              <line id="Línea_181" data-name="Línea 181" x2="30.098" fill="none" stroke="#263238" stroke-linecap="round" stroke-linejoin="round" stroke-width="1.023"/>
              <line id="Línea_182" data-name="Línea 182" x2="30.098" transform="translate(0 6.772)" fill="none" stroke="#263238" stroke-linecap="round" stroke-linejoin="round" stroke-width="1.023"/>
              <line id="Línea_183" data-name="Línea 183" x2="30.098" transform="translate(0 13.544)" fill="none" stroke="#263238" stroke-linecap="round" stroke-linejoin="round" stroke-width="1.023"/>
            </g>
            <g id="Grupo_60092" data-name="Grupo 60092" transform="translate(162.418 104.594)">
              <line id="Línea_184" data-name="Línea 184" x2="30.098" fill="none" stroke="#263238" stroke-linecap="round" stroke-linejoin="round" stroke-width="1.023"/>
              <line id="Línea_185" data-name="Línea 185" x2="30.098" transform="translate(0 6.772)" fill="none" stroke="#263238" stroke-linecap="round" stroke-linejoin="round" stroke-width="1.023"/>
              <line id="Línea_186" data-name="Línea 186" x2="30.098" transform="translate(0 13.544)" fill="none" stroke="#263238" stroke-linecap="round" stroke-linejoin="round" stroke-width="1.023"/>
            </g>
            <g id="Grupo_60093" data-name="Grupo 60093" transform="translate(54.064 127.92)">
              <line id="Línea_187" data-name="Línea 187" x2="30.098" fill="none" stroke="#263238" stroke-linecap="round" stroke-linejoin="round" stroke-width="1.023"/>
              <line id="Línea_188" data-name="Línea 188" x2="30.098" transform="translate(0 6.772)" fill="none" stroke="#263238" stroke-linecap="round" stroke-linejoin="round" stroke-width="1.023"/>
              <line id="Línea_189" data-name="Línea 189" x2="30.098" transform="translate(0 13.544)" fill="none" stroke="#263238" stroke-linecap="round" stroke-linejoin="round" stroke-width="1.023"/>
            </g>
          </g>
        </g>
        <g id="Character" transform="translate(150.309 108.666)">
          <g id="Grupo_60106" data-name="Grupo 60106">
            <g id="Grupo_60102" data-name="Grupo 60102" transform="translate(0 420.917)">
              <path id="Trazado_104720" data-name="Trazado 104720" d="M132.609,424.512s-2.792,10.738-2.792,13.457-.68,4.533,5.211,5.666,9.744.453,10.65-2.266,1.586-16.316,1.586-16.316l-14.275-2.719Z" transform="translate(-129.791 -422.334)" fill="#fff" stroke="#263238" stroke-linecap="round" stroke-linejoin="round" stroke-width="1.035"/>
              <path id="Trazado_104721" data-name="Trazado 104721" d="M145.679,437.728a12.865,12.865,0,0,0,.389-1.892,96.221,96.221,0,0,1-16.255-1.281c-.031,2.593-.51,4.339,5.215,5.44C140.921,441.127,144.773,440.447,145.679,437.728Z" transform="translate(-129.792 -418.693)" fill="#fff" stroke="#263238" stroke-linecap="round" stroke-linejoin="round" stroke-width="1.035"/>
            </g>
            <g id="Grupo_60103" data-name="Grupo 60103" transform="translate(125.12 424.09)">
              <path id="Trazado_104722" data-name="Trazado 104722" d="M241.586,424.779s4.533,1.586,11.1,3.625,19.941,4.305,21.3,4.531,1.36,2.946.227,4.08-7.025,4.531-14.049,6.345-30.818,3.4-32.857,2.039c-1.708-1.138-1.133-12.236-.454-14.728S241.586,424.779,241.586,424.779Z" transform="translate(-226.188 -424.779)" fill="#fff" stroke="#263238" stroke-linecap="round" stroke-linejoin="round" stroke-width="1.035"/>
              <path id="Trazado_104723" data-name="Trazado 104723" d="M274.18,434.935a3.386,3.386,0,0,0,.668-3.175c-4.588,3.667-13.762,7.679-23.1,8.613-9.37.937-21.506.17-25.431-.123.164,1.555.463,2.737.959,3.068,2.039,1.36,25.832-.226,32.857-2.039S273.046,436.068,274.18,434.935Z" transform="translate(-226.15 -422.699)" fill="#fff" stroke="#263238" stroke-linecap="round" stroke-linejoin="round" stroke-width="1.035"/>
            </g>
            <path id="Trazado_104724" data-name="Trazado 104724" d="M160.044,272.575s-3.95,23.692-.877,36.855c0,0-5.7,52.213-6.582,75.466,0,0-12.285,40.8-14.04,53.529s-6.581,30.713-6.581,30.713,2.632,1.755,8.774,3.071,7.021-3.51,7.021-3.51,33.784-77.66,36.416-89.068,11.408-52.213,11.408-52.213L232,394.11s1.755,22.816,7.02,35.977,15.356,49.58,15.356,49.58a36.255,36.255,0,0,0,11.847-1.316c5.265-1.755,5.265-4.388,5.265-4.388s-7.9-29.4-7.9-39.049-3.072-42.56-5.266-51.774-17.111-57.477-19.3-62.742S232,298.462,232,298.462l-3.072-25.887S191.2,283.105,160.044,272.575Z" transform="translate(-129.145 -46.043)" fill="#263238" stroke="#263238" stroke-linecap="round" stroke-linejoin="round" stroke-width="1.035"/>
            <path id="Trazado_104725" data-name="Trazado 104725" d="M182.026,212.75s-2.016-4.368-2.016-7.056-1.343-15.455-1.343-15.455,19.487-35.278,24.863-42a82.808,82.808,0,0,1,11.758-11.76s13.1-2.688,15.791-2.688,5.712-1.343,5.712-3.023-4.368-1.345-7.056-1.345-6.047-2.352-6.047-2.352,4.377-12.523,5.711-17.471c.706-2.615,3.024-8.063,1.345-8.063s-2.017,1.343-3.024,3.359-5.376,8.735-5.376,8.735l1.009-14.783s-1.345-2.016-2.352.336a99.561,99.561,0,0,0-3.361,11.087,8.054,8.054,0,0,1-1.681,3.2l-1.345-11.03s-2.287-2.421-2.686,1.783c-.222,2.342,0,10.079,0,11.424s-1.35-1.908-1.35-1.908-.794-3.649-1.674-4.141c-1.016-.567-1.68.672-1.343,3.36s-.336,13.775-.336,13.775-2.016,2.687-5.04,6.383-27.213,25.534-36.285,32.59-10.08,12.767-11.424,19.823-2.688,48.046-2.688,62.829,1.343,38.3,2.352,46.029-.672,17.807-2.016,23.183,0,10.079,3.7,12.767,19.487,4.368,32.591,4.368,26.542-1.343,30.574-2.688,7.056-1.68,7.056-7.056-2.688-16.126-2.688-19.15,5.375-34.271,5.375-34.271,34.271,10.416,40.654,8.064,59.8-52.75,59.8-52.75,8.4-3.359,12.767-4.032,11.087-3.7,11.424-4.7-.671-.671-3.359-.671a31.712,31.712,0,0,0-7.056,1.343s9.174-5.807,10.751-6.383c1.093-.4,2.982-2.884.336-2.352-3.31.666-11.424,3.024-11.424,3.024l10.751-6.72s1.681-2.688-.336-2.688-12.095,6.047-12.095,6.047l7.846-7.286c1.519-1.411.253-3.39-1.541-2.353l-9.044,5.169a35.741,35.741,0,0,1-7.005,3.127l-1.68,1.007a44.46,44.46,0,0,0,.672-5.375c0-1.68-1.009-6.047-3.36-6.383s-.336,3.023-.336,4.7-3.359,10.415-3.359,11.758v4.032s-11.424,10.08-21.839,15.456-33.934,23.182-33.934,23.182-26.879-13.775-32.926-18.814-12.767-11.089-19.487-16.464a83.008,83.008,0,0,0-11.087-7.728Z" transform="translate(-123.289 -98.049)" fill="#fff" stroke="#263238" stroke-linecap="round" stroke-linejoin="round" stroke-width="1.035"/>
            <g id="Grupo_60104" data-name="Grupo 60104" transform="translate(28.327 53.728)">
              <path id="Trazado_104726" data-name="Trazado 104726" d="M294.3,225.381c-11.409,7.291-26.937,19.048-26.937,19.048s-26.879-13.775-32.926-18.814-12.767-11.089-19.487-16.464a83.008,83.008,0,0,0-11.087-7.728l-21.84-1.007s-2.016-4.368-2.016-7.056-1.343-15.455-1.343-15.455,10.062-18.215,17.72-30.961c-.205-.209-.4-.414-.613-.623-3.754-3.755-8.963-5.777-13.512-6.879-6.329,5.619-12.628,11.032-16.362,13.936-9.072,7.056-10.08,12.767-11.424,19.823s-2.688,48.046-2.688,62.829,1.343,38.3,2.352,46.029-.672,17.807-2.016,23.183,0,10.079,3.7,12.767,19.487,4.368,32.591,4.368,26.542-1.343,30.574-2.688,7.056-1.68,7.056-7.056-2.688-16.126-2.688-19.15,5.375-34.271,5.375-34.271,34.271,10.416,40.654,8.064c3.411-1.256,20.249-16.229,35.192-29.9A45.576,45.576,0,0,0,294.3,225.381Z" transform="translate(-151.616 -139.442)" fill="#ffca28" stroke="#263238" stroke-linecap="round" stroke-linejoin="round" stroke-width="1.035"/>
              <path id="Trazado_104727" data-name="Trazado 104727" d="M206.286,197.763s-13.517,3.686-14.337,13.927" transform="translate(-139.597 -122.063)" fill="none" stroke="#263238" stroke-linecap="round" stroke-linejoin="round" stroke-width="1.035"/>
              <path id="Trazado_104728" data-name="Trazado 104728" d="M216.521,234.592s-15.747-4.335-23.94-12.528" transform="translate(-139.409 -114.822)" fill="none" stroke="#263238" stroke-linecap="round" stroke-linejoin="round" stroke-width="1.035"/>
              <path id="Trazado_104729" data-name="Trazado 104729" d="M210.183,230.236s-13.518,3.686-25.808-1.229" transform="translate(-141.854 -112.753)" fill="none" stroke="#263238" stroke-linecap="round" stroke-linejoin="round" stroke-width="1.035"/>
              <path id="Trazado_104730" data-name="Trazado 104730" d="M160.3,213.23s4.26,29.819,24.849,44.728" transform="translate(-149.027 -117.455)" fill="none" stroke="#263238" stroke-linecap="round" stroke-linejoin="round" stroke-width="1.035"/>
              <path id="Trazado_104731" data-name="Trazado 104731" d="M184.455,253.948c1.561.436,3.18.809,4.86,1.106" transform="translate(-141.83 -105.321)" fill="none" stroke="#263238" stroke-linecap="round" stroke-linejoin="round" stroke-width="1.035"/>
              <path id="Trazado_104732" data-name="Trazado 104732" d="M160.3,236.2a57.749,57.749,0,0,0,23.031,19.928" transform="translate(-149.027 -110.609)" fill="none" stroke="#263238" stroke-linecap="round" stroke-linejoin="round" stroke-width="1.035"/>
              <path id="Trazado_104733" data-name="Trazado 104733" d="M157.233,185.837s13.108-6.555,20.892-.41" transform="translate(-149.942 -126.523)" fill="none" stroke="#263238" stroke-linecap="round" stroke-linejoin="round" stroke-width="1.035"/>
              <path id="Trazado_104734" data-name="Trazado 104734" d="M160.074,162.1s11.879,4.1,15.157,12.289" transform="translate(-149.095 -132.69)" fill="none" stroke="#263238" stroke-linecap="round" stroke-linejoin="round" stroke-width="1.035"/>
              <path id="Trazado_104735" data-name="Trazado 104735" d="M166.07,159.891A16.76,16.76,0,0,1,171.8,168.9" transform="translate(-147.309 -133.349)" fill="none" stroke="#263238" stroke-linecap="round" stroke-linejoin="round" stroke-width="1.035"/>
            </g>
            <g id="Grupo_60105" data-name="Grupo 60105" transform="translate(51.011 44.817)">
              <path id="Trazado_104736" data-name="Trazado 104736" d="M221.168,146.622s2.017,11.424,2.017,14.448-3.36,4.032-2.017,8.063,4.369,4.368,3.7,7.727-5.04,5.376-5.04,5.376-2.352,9.408-4.7,13.439-11.087,1.007-11.087,1.007l-.671,10.752s-3.024,4.368-14.112,3.023a61.776,61.776,0,0,1-18.479-5.039l-1.68-2.352s8.735-4.368,9.072-7.392,0-10.079,0-20.159-3.024-29.567,13.439-34.605S221.168,146.622,221.168,146.622Z" transform="translate(-169.092 -130.494)" fill="#fff" stroke="#263238" stroke-linecap="round" stroke-linejoin="round" stroke-width="1.035"/>
              <path id="Trazado_104737" data-name="Trazado 104737" d="M200.336,176.285s-3.793-8.7-8.036-3.727c-2.757,3.235.672,12.768,2.352,14.112s5.376.672,5.376.672-5.376,5.375-11.087,5.375-10.751-5.375-14.448-14.783-6.383-25.535-2.352-35.278,24.863-10.08,29.567-10.08,11.76,2.688,11.76,2.688,15.119-1.343,15.455,3.7-2.016,5.375-2.016,5.375,10.751,5.711,5.711,8.063-12.767,1.009-17.807,1.009a7.214,7.214,0,0,0-6.72,3.7s4.7,3.024,3.024,4.368-7.728,4.032-8.4,6.383,2.352,6.049.336,7.728S200.336,176.285,200.336,176.285Z" transform="translate(-168.782 -132.577)" fill="#263238" stroke="#263238" stroke-linecap="round" stroke-linejoin="round" stroke-width="1.035"/>
              <path id="Trazado_104738" data-name="Trazado 104738" d="M208.518,163.835c0,1.712-.7,3.1-1.572,3.1s-1.572-1.388-1.572-3.1.7-3.1,1.572-3.1S208.518,162.123,208.518,163.835Z" transform="translate(-158.281 -124.186)" fill="#263238"/>
              <path id="Trazado_104739" data-name="Trazado 104739" d="M203.56,160.8s2.173-5.069,5.612-2.353" transform="translate(-158.821 -125.108)" fill="none" stroke="#263238" stroke-linecap="round" stroke-linejoin="round" stroke-width="1.035"/>
            </g>
            <path id="Trazado_104740" data-name="Trazado 104740" d="M185.208,317.044l-3.071-5.7-15.357-3.949" transform="translate(-118.77 -35.668)" fill="none" stroke="#fff" stroke-linecap="round" stroke-linejoin="round" stroke-width="1.035"/>
          </g>
        </g>
      </g>
    </g>
  </g>
</svg>
